<svg width="500" height="500" viewBox="0 0 500 500" fill="none" xmlns="http://www.w3.org/2000/svg">
<path d="M482.327 357.466C482.327 357.61 385.227 357.727 265.471 357.727C145.671 357.727 48.5938 357.61 48.5938 357.466C48.5938 357.322 145.675 357.206 265.471 357.206C385.225 357.206 482.327 357.323 482.327 357.466Z" fill="#E0E0E0"/>
<path d="M414.594 281.586C414.918 281.273 417.145 282.869 420.067 286.159C421.767 288.096 423.319 290.158 424.711 292.327C428.136 297.658 430.672 303.511 432.218 309.657C432.849 312.156 433.292 314.699 433.543 317.264C433.943 321.646 433.585 324.364 433.135 324.384C432.084 324.459 431.128 313.852 425.945 302.084C420.9 290.256 413.819 282.3 414.594 281.586Z" fill="#EBEBEB"/>
<path d="M436.609 333.19C436.153 333.252 434.893 327.446 433.725 317.933C432.537 308.425 431.562 295.216 431.178 280.623C430.794 266.03 430.948 252.823 431.234 243.266C431.52 233.709 431.981 227.809 432.464 227.808C432.947 227.807 433.383 233.715 433.719 243.26C434.055 252.805 434.295 265.987 434.691 280.527C435.087 295.067 435.65 308.202 436.2 317.713C436.729 327.225 437.115 333.123 436.609 333.19Z" fill="#EBEBEB"/>
<path d="M457.9 250.235C458.352 250.493 456.515 254.551 454.108 261.325C451.646 268.077 448.623 277.554 445.654 288.125C442.744 298.717 440.447 308.396 439.074 315.451C437.643 322.496 437.124 326.919 436.603 326.907C436.154 326.907 435.797 322.341 436.618 315.073C439.062 296.214 444.177 277.799 451.809 260.381C454.859 253.732 457.519 250 457.9 250.235Z" fill="#EBEBEB"/>
<path d="M409.2 321.055V332.672C409.2 335.929 409.841 339.153 411.088 342.162C412.334 345.17 414.161 347.904 416.464 350.206C418.767 352.509 421.501 354.335 424.51 355.581C427.518 356.826 430.743 357.467 434 357.466V357.466C440.575 357.466 446.882 354.854 451.532 350.204C456.181 345.554 458.794 339.248 458.794 332.672V321.055H409.2Z" fill="#E0E0E0"/>
<path d="M459.239 330.884C459.239 331.078 448.039 331.235 434.221 331.235C420.403 331.235 409.202 331.078 409.202 330.884C409.202 330.69 420.402 330.533 434.221 330.533C448.04 330.533 459.239 330.69 459.239 330.884Z" fill="#FAFAFA"/>
<path d="M459.239 334.109C459.239 334.303 448.039 334.46 434.221 334.46C420.403 334.46 409.202 334.303 409.202 334.109C409.202 333.915 420.402 333.758 434.221 333.758C448.04 333.758 459.239 333.915 459.239 334.109Z" fill="#FAFAFA"/>
<path d="M456.574 52.271H361.736V151.132H456.574V52.271Z" fill="#E0E0E0"/>
<path d="M450.151 52.271H355.313V151.132H450.151V52.271Z" fill="#EBEBEB"/>
<path d="M437.403 65.561H368.062V137.843H437.403V65.561Z" fill="#FAFAFA"/>
<path d="M368.062 138.323C367.55 139.034 366.97 139.692 366.329 140.288C365.216 141.45 363.656 143.028 361.912 144.747C360.168 146.466 358.567 148.001 357.39 149.093C356.788 149.723 356.124 150.29 355.409 150.786C355.916 150.077 356.494 149.422 357.134 148.829C358.247 147.666 359.811 146.085 361.56 144.362C363.309 142.639 364.912 141.102 366.089 140.009C366.687 139.382 367.348 138.817 368.062 138.323Z" fill="#E0E0E0"/>
<path d="M437.4 138.146C438.111 138.656 438.769 139.237 439.365 139.878C440.528 140.991 442.105 142.552 443.824 144.296C445.543 146.04 447.078 147.641 448.171 148.818C448.801 149.419 449.368 150.083 449.864 150.799C449.155 150.291 448.499 149.713 447.906 149.074C446.744 147.961 445.163 146.397 443.44 144.648C441.717 142.899 440.179 141.296 439.086 140.119C438.459 139.52 437.894 138.859 437.4 138.146V138.146Z" fill="#E0E0E0"/>
<path d="M437.213 65.754C437.724 65.0431 438.304 64.3849 438.945 63.789C440.059 62.627 441.619 61.049 443.363 59.331C445.107 57.613 446.708 56.077 447.885 54.984C448.486 54.3543 449.15 53.787 449.866 53.291C449.358 53.9995 448.78 54.6551 448.141 55.248C447.028 56.411 445.464 57.992 443.715 59.715C441.966 61.438 440.363 62.975 439.186 64.068C438.587 64.6954 437.926 65.2603 437.213 65.754V65.754Z" fill="#E0E0E0"/>
<path d="M367.872 65.9308C367.161 65.4203 366.503 64.84 365.908 64.1988C364.745 63.0858 363.167 61.5258 361.449 59.7808C359.731 58.0358 358.2 56.4358 357.1 55.2598C356.471 54.6578 355.903 53.9941 355.407 53.2788C356.116 53.7849 356.773 54.3615 357.367 54.9998C358.529 56.1128 360.11 57.6768 361.833 59.4268C363.556 61.1768 365.094 62.7778 366.186 63.9548C366.813 64.5546 367.378 65.2167 367.872 65.9308V65.9308Z" fill="#E0E0E0"/>
<path d="M437.213 137.843C437.213 137.843 437.204 137.721 437.2 137.494C437.196 137.267 437.193 136.92 437.187 136.487C437.181 135.587 437.172 134.287 437.161 132.587C437.147 129.17 437.127 124.187 437.101 117.86C437.073 105.203 437.034 87.1598 436.986 65.5598L437.213 65.7868L368.069 65.8198H368.062L368.322 65.5598C368.309 92.0908 368.296 116.911 368.286 137.842L368.062 137.618L418.144 137.732L432.204 137.791L435.921 137.817L436.88 137.829C437.097 137.829 437.213 137.842 437.213 137.842C437.213 137.842 437.113 137.85 436.905 137.854L435.97 137.867L432.296 137.893L418.287 137.951L368.062 138.065H367.839V137.841C367.829 116.91 367.816 92.0898 367.803 65.5588V65.2998H368.071L437.215 65.3328H437.442V65.5598C437.394 87.2238 437.354 105.314 437.326 118.006C437.301 124.314 437.281 129.277 437.267 132.682C437.255 134.358 437.247 135.647 437.241 136.536C437.235 136.959 437.231 137.283 437.228 137.518C437.221 137.738 437.213 137.843 437.213 137.843Z" fill="#E0E0E0"/>
<path d="M386.362 95.7578C386.362 95.7578 384.878 113.658 404.262 113.658C404.259 104.1 396.38 96.5648 386.362 95.7578Z" fill="#EBEBEB"/>
<path d="M421.827 95.7708C421.827 95.7708 403.927 94.2858 403.927 113.671C413.481 113.667 421.02 105.788 421.827 95.7708Z" fill="#EBEBEB"/>
<path d="M403.4 85.9761C403.4 85.9761 388.78 99.1011 404.2 113.654C411.371 106.056 410.763 94.1401 403.4 85.9761Z" fill="#E0E0E0"/>
<path d="M165.941 84.7539H85.521V168.585H165.941V84.7539Z" fill="#E0E0E0"/>
<path d="M160.494 84.7539H80.0737V168.585H160.494V84.7539Z" fill="#FAFAFA"/>
<path d="M160.519 168.61H80.0488V84.729H160.519V168.61ZM80.0988 168.56H160.469V84.779H80.0998L80.0988 168.56Z" fill="#E0E0E0"/>
<path d="M149.684 96.0229H90.8848V157.316H149.684V96.0229Z" fill="#FAFAFA"/>
<path d="M90.8848 157.723C90.468 158.34 89.981 158.906 89.4338 159.41C88.4948 160.401 87.1748 161.742 85.6958 163.199C84.2168 164.656 82.8578 165.954 81.8548 166.876C81.346 167.413 80.7753 167.888 80.1548 168.291C80.5675 167.676 81.0519 167.112 81.5978 166.611C82.5368 165.621 83.8598 164.276 85.3438 162.811C86.8278 161.346 88.1898 160.049 89.1918 159.127C89.6981 158.593 90.2665 158.122 90.8848 157.723V157.723Z" fill="#E0E0E0"/>
<path d="M149.684 157.573C150.301 157.989 150.867 158.476 151.371 159.024C152.362 159.963 153.703 161.282 155.16 162.761C156.617 164.24 157.915 165.6 158.837 166.602C159.374 167.111 159.849 167.682 160.252 168.302C159.637 167.889 159.073 167.405 158.572 166.859C157.581 165.92 156.237 164.597 154.772 163.113C153.307 161.629 152.01 160.267 151.088 159.264C150.554 158.759 150.082 158.191 149.684 157.573V157.573Z" fill="#E0E0E0"/>
<path d="M149.523 96.1872C149.94 95.5702 150.427 95.0037 150.974 94.4992C151.913 93.5082 153.232 92.1672 154.711 90.7112C156.19 89.2552 157.55 87.9552 158.553 87.0342C159.061 86.4964 159.632 86.021 160.253 85.6182C159.84 86.2334 159.356 86.7973 158.81 87.2982C157.871 88.2892 156.548 89.6332 155.064 91.0982C153.58 92.5632 152.218 93.8602 151.216 94.7812C150.71 95.3158 150.141 95.7878 149.523 96.1872Z" fill="#E0E0E0"/>
<path d="M90.7238 96.3369C90.1072 95.9201 89.5411 95.4332 89.0368 94.8859C88.0458 93.9469 86.7048 92.6269 85.2478 91.1479C83.7908 89.6689 82.4928 88.3099 81.5708 87.3069C81.034 86.7978 80.5591 86.2272 80.1558 85.6069C80.771 86.0196 81.3349 86.504 81.8358 87.0499C82.8268 87.9889 84.1708 89.3119 85.6358 90.7959C87.1008 92.2799 88.3978 93.6419 89.3198 94.6439C89.8536 95.1503 90.3249 95.7186 90.7238 96.3369V96.3369Z" fill="#E0E0E0"/>
<path d="M149.523 157.316C149.513 157.216 149.509 157.116 149.51 157.016C149.51 156.807 149.503 156.525 149.497 156.16C149.491 155.392 149.482 154.287 149.471 152.852C149.457 149.952 149.437 145.724 149.411 140.36C149.383 129.625 149.344 114.332 149.296 96.0208L149.523 96.2478L90.891 96.2808H90.885L91.145 96.0208C91.132 118.521 91.119 139.564 91.109 157.313L90.885 157.09L133.343 157.204L145.268 157.263L148.424 157.289L149.239 157.301C149.334 157.299 149.429 157.303 149.523 157.314C149.437 157.323 149.35 157.327 149.264 157.326L148.473 157.339L145.36 157.365L133.485 157.423L90.885 157.537H90.662V157.312C90.652 139.563 90.639 118.512 90.626 96.0198V95.7598H90.893L149.525 95.7928H149.752V96.0198C149.704 114.391 149.664 129.734 149.637 140.504C149.611 145.846 149.591 150.053 149.577 152.945C149.566 154.361 149.557 155.451 149.551 156.209C149.545 156.564 149.541 156.837 149.538 157.04C149.539 157.132 149.534 157.224 149.523 157.316V157.316Z" fill="#E0E0E0"/>
<path d="M130.094 116.859H110.474V136.479H130.094V116.859Z" fill="#EBEBEB"/>
<path d="M251.944 459.963C368.88 459.963 463.676 442.598 463.676 421.178C463.676 399.758 368.88 382.393 251.944 382.393C135.008 382.393 40.2119 399.758 40.2119 421.178C40.2119 442.598 135.008 459.963 251.944 459.963Z" fill="#EBEBEB"/>
<path d="M332.738 421.179C332.707 420.898 332.577 420.638 332.372 420.444C331.755 419.894 331.03 419.479 330.244 419.223C327.225 418.203 324.115 417.475 320.957 417.049C309.345 415.406 297.653 414.381 285.932 413.981C271.094 413.316 253.398 413.037 233.765 413.49C223.949 413.729 213.647 414.148 202.996 414.962C197.672 415.376 192.258 415.882 186.796 416.628C184.067 417.005 181.323 417.439 178.596 418.028C177.231 418.314 175.883 418.674 174.558 419.108C173.901 419.323 173.262 419.591 172.648 419.908C172.07 420.208 171.436 420.67 171.407 421.175C171.423 421.681 172.059 422.14 172.636 422.447C173.249 422.765 173.887 423.032 174.544 423.247C175.869 423.682 177.218 424.043 178.583 424.329C181.308 424.92 184.052 425.354 186.783 425.729C192.246 426.476 197.661 426.982 202.983 427.396C213.637 428.211 223.941 428.63 233.758 428.869C253.394 429.321 271.091 429.042 285.929 428.378C297.649 427.977 309.34 426.953 320.952 425.309C324.109 424.883 327.219 424.155 330.238 423.136C331.024 422.88 331.748 422.464 332.365 421.914C332.57 421.721 332.7 421.46 332.731 421.18C332.736 421.324 332.709 421.468 332.652 421.601C332.596 421.734 332.511 421.853 332.404 421.95C331.795 422.526 331.07 422.963 330.277 423.233C327.263 424.298 324.15 425.061 320.985 425.509C309.374 427.232 297.676 428.313 285.946 428.746C271.101 429.457 253.396 429.775 233.746 429.346C223.922 429.12 213.61 428.711 202.946 427.903C197.613 427.491 192.19 426.987 186.711 426.24C183.972 425.862 181.218 425.428 178.471 424.833C177.085 424.543 175.716 424.175 174.371 423.733C173.686 423.509 173.02 423.23 172.381 422.898C172.047 422.726 171.736 422.513 171.455 422.264C171.289 422.13 171.152 421.963 171.053 421.774C170.954 421.585 170.895 421.377 170.88 421.164C170.899 420.952 170.961 420.746 171.063 420.559C171.164 420.371 171.301 420.206 171.468 420.073C171.75 419.826 172.061 419.614 172.395 419.443C173.034 419.112 173.7 418.834 174.384 418.611C175.729 418.169 177.098 417.802 178.484 417.511C181.23 416.911 183.984 416.482 186.721 416.105C192.199 415.358 197.621 414.855 202.952 414.443C213.617 413.635 223.926 413.226 233.752 413C253.398 412.574 271.102 412.891 285.952 413.6C297.683 414.033 309.381 415.113 320.993 416.836C324.158 417.284 327.272 418.047 330.286 419.112C331.079 419.382 331.805 419.82 332.414 420.396C332.522 420.495 332.608 420.616 332.664 420.751C332.72 420.887 332.745 421.033 332.738 421.179Z" fill="#FAFAFA"/>
<path d="M380.88 421.179C380.846 420.727 380.702 420.29 380.462 419.905C379.657 418.842 378.6 417.995 377.386 417.443C374.276 415.801 369.274 414.289 362.747 412.914C349.673 410.169 330.426 407.941 306.586 406.542C282.743 405.162 254.28 404.571 222.713 405.482C206.932 405.963 190.37 406.814 173.27 408.474C164.725 409.32 156.039 410.356 147.305 411.883C142.943 412.659 138.562 413.545 134.244 414.762C132.078 415.353 129.957 416.097 127.896 416.989C126.873 417.431 125.9 417.982 124.996 418.633C124.54 418.902 124.148 419.269 123.85 419.707C123.553 420.146 123.355 420.645 123.273 421.168C123.349 421.692 123.541 422.192 123.835 422.631C124.129 423.071 124.518 423.44 124.973 423.71C125.877 424.363 126.849 424.916 127.873 425.359C129.933 426.253 132.055 426.999 134.221 427.59C138.54 428.809 142.921 429.695 147.286 430.472C156.022 431.999 164.71 433.036 173.258 433.882C190.358 435.544 206.927 436.395 222.71 436.876C254.282 437.787 282.746 437.196 306.589 435.815C330.429 434.415 349.675 432.188 362.747 429.443C369.273 428.068 374.274 426.556 377.383 424.914C378.598 424.363 379.655 423.516 380.459 422.452C380.699 422.068 380.843 421.631 380.877 421.179C380.877 421.179 380.877 421.294 380.857 421.523C380.8 421.861 380.681 422.186 380.504 422.48C379.711 423.569 378.654 424.438 377.433 425.007C374.322 426.688 369.318 428.234 362.789 429.641C349.712 432.45 330.46 434.741 306.611 436.182C282.759 437.611 254.284 438.241 222.695 437.355C206.904 436.887 190.329 436.046 173.208 434.39C164.651 433.546 155.953 432.511 147.196 430.982C142.821 430.204 138.426 429.316 134.079 428.091C131.888 427.492 129.742 426.738 127.658 425.833C126.599 425.375 125.593 424.802 124.658 424.125C124.176 423.778 123.747 423.363 123.384 422.893C122.971 422.413 122.744 421.799 122.747 421.165C122.75 420.531 122.981 419.92 123.399 419.443C123.765 418.976 124.196 418.563 124.678 418.217C125.614 417.543 126.619 416.973 127.678 416.517C129.762 415.614 131.907 414.861 134.098 414.263C138.444 413.039 142.838 412.152 147.212 411.374C155.966 409.846 164.662 408.812 173.212 407.974C190.328 406.318 206.9 405.474 222.689 405.009C254.274 404.124 282.747 404.753 306.599 406.182C330.448 407.628 349.699 409.913 362.78 412.723C369.309 414.13 374.314 415.676 377.426 417.358C378.648 417.926 379.705 418.795 380.498 419.884C380.675 420.178 380.795 420.503 380.851 420.842C380.878 421.064 380.88 421.179 380.88 421.179Z" fill="#FAFAFA"/>
<path d="M440.614 421.179C440.573 420.512 440.411 419.858 440.137 419.248C439.194 417.518 437.797 416.077 436.095 415.083C431.782 412.189 424.527 409.502 415.001 407.078C395.909 402.233 367.588 398.299 332.474 395.833C291.327 393.092 250.067 392.458 208.856 393.933C185.599 394.771 161.191 396.256 136.032 399.164C123.46 400.649 110.689 402.464 97.894 405.144C91.4461 406.449 85.0828 408.142 78.839 410.214C75.692 411.251 72.6428 412.564 69.727 414.138C68.2754 414.926 66.9249 415.887 65.705 417C65.0371 417.47 64.4917 418.093 64.1143 418.817C63.7369 419.541 63.5386 420.345 63.5361 421.161C63.5335 421.978 63.7268 422.783 64.0997 423.51C64.4725 424.236 65.0141 424.862 65.679 425.336C66.8981 426.451 68.2484 427.412 69.7 428.2C72.6158 429.776 75.6654 431.091 78.813 432.13C85.0583 434.204 91.4232 435.898 97.873 437.204C110.673 439.886 123.446 441.704 136.02 443.188C161.186 446.097 185.599 447.582 208.859 448.42C250.073 449.896 291.336 449.262 332.486 446.52C367.6 444.054 395.918 440.12 415.009 435.274C424.533 432.851 431.787 430.164 436.099 427.274C437.801 426.281 439.198 424.84 440.14 423.109C440.414 422.5 440.576 421.846 440.617 421.179C440.617 421.179 440.612 421.348 440.588 421.685C440.576 421.895 440.538 422.103 440.475 422.304C440.412 422.59 440.316 422.867 440.189 423.131C439.261 424.886 437.866 426.349 436.158 427.361C431.844 430.297 424.586 433.018 415.058 435.474C395.958 440.386 367.636 444.374 332.511 446.891C291.35 449.686 250.071 450.358 208.841 448.903C185.57 448.077 161.141 446.603 135.96 443.697C123.375 442.214 110.588 440.397 97.765 437.714C91.2937 436.405 84.9077 434.705 78.642 432.624C75.4639 431.576 72.3852 430.248 69.442 428.656C67.9525 427.845 66.5676 426.856 65.318 425.709C64.6023 425.187 64.0206 424.502 63.6204 423.711C63.2203 422.92 63.013 422.046 63.0156 421.16C63.0183 420.274 63.2307 419.401 63.6356 418.612C64.0404 417.824 64.6262 417.143 65.345 416.624C66.5966 415.481 67.9824 414.494 69.472 413.685C72.4161 412.096 75.4947 410.771 78.672 409.723C84.9364 407.645 91.3207 405.947 97.79 404.639C110.61 401.956 123.39 400.139 135.976 398.658C161.155 395.758 185.576 394.28 208.842 393.458C250.068 392.002 291.343 392.673 332.5 395.466C367.625 397.979 395.953 401.966 415.052 406.882C424.58 409.339 431.839 412.06 436.152 414.996C437.86 416.007 439.256 417.471 440.183 419.226C440.31 419.49 440.407 419.768 440.47 420.054C440.533 420.255 440.571 420.463 440.583 420.673C440.609 421.009 440.614 421.179 440.614 421.179Z" fill="#FAFAFA"/>
<path d="M260.573 397.348C244.173 396.278 227.711 395.207 211.273 395.897C194.835 396.587 178.317 399.106 163.758 404.85C158.035 407.107 152.158 410.394 151.147 415.174C150.055 420.325 155.253 425.21 161.413 427.655C174.113 432.698 189.806 430.049 203.023 425.81C216.24 421.571 228.981 415.782 243.28 414.636C255.156 413.685 267.066 416.053 278.28 419.125C289.494 422.197 300.4 426 312.009 428.12C323.618 430.24 336.299 430.531 347.093 426.705C352.864 424.66 358.3 420.917 358.633 416.147C358.87 412.763 356.416 409.508 353.019 407.267C349.622 405.026 345.366 403.657 341.099 402.519C313.728 395.219 283.839 396.105 254.811 397.079" fill="#E0E0E0"/>
<path d="M56.9476 419.488L50.0476 424.528C49.3576 425.028 48.5876 425.711 48.7036 426.557C48.8476 427.614 50.1896 427.957 51.2546 428.016C58.6606 428.416 63.7206 427.626 70.2996 424.203C71.4453 423.619 72.555 422.968 73.6226 422.251C74.1326 421.867 76.2906 420.222 75.8896 419.724C75.6355 419.497 75.3337 419.331 75.0066 419.236C74.6794 419.142 74.3352 419.123 73.9996 419.18C68.0996 419.315 62.8516 419.352 56.9496 419.488" fill="#E0E0E0"/>
<path d="M329.936 200.765C329.964 199.603 329.672 198.455 329.092 197.447C328.512 196.439 327.666 195.61 326.646 195.051C325.627 194.491 324.474 194.222 323.312 194.274C322.15 194.325 321.025 194.695 320.06 195.343C318.237 196.484 316.761 198.102 315.792 200.021C313.106 204.938 312.786 210.746 312.226 216.321C311.726 221.86 310.073 227.233 307.373 232.095L327.854 207.7C329.244 205.658 329.971 203.236 329.936 200.765Z" fill="#0FA6AF"/>
<g opacity="0.2">
<path opacity="0.2" d="M329.936 200.765C329.964 199.603 329.672 198.455 329.092 197.447C328.512 196.439 327.666 195.61 326.646 195.051C325.627 194.491 324.474 194.222 323.312 194.274C322.15 194.325 321.025 194.695 320.06 195.343C318.237 196.484 316.761 198.102 315.792 200.021C313.106 204.938 312.786 210.746 312.226 216.321C311.726 221.86 310.073 227.233 307.373 232.095L327.854 207.7C329.244 205.658 329.971 203.236 329.936 200.765Z" fill="black"/>
</g>
<path d="M306.483 187.437C307.683 188.469 347.575 234.225 347.575 234.225L325.983 251.35L298.576 217.2L306.483 187.437Z" fill="#FFBE9D"/>
<path d="M187.64 202.912C186.578 204.09 154.36 246.934 154.36 246.934L174.527 268.792L199.281 231.422L187.64 202.912Z" fill="#FFBE9D"/>
<path d="M188.019 231.281C190.374 232.362 191.703 234.874 192.591 237.309C193.479 239.744 194.141 242.352 195.812 244.331C197.483 246.31 200.602 247.398 202.704 245.883C204.704 244.444 204.804 241.428 203.897 239.139C202.706 236.39 200.652 234.105 198.045 232.63C195.45 231.173 192.647 230.122 189.734 229.515" fill="#0FA6AF"/>
<g opacity="0.2">
<path opacity="0.2" d="M188.019 231.281C190.374 232.362 191.703 234.874 192.591 237.309C193.479 239.744 194.141 242.352 195.812 244.331C197.483 246.31 200.602 247.398 202.704 245.883C204.704 244.444 204.804 241.428 203.897 239.139C202.706 236.39 200.652 234.105 198.045 232.63C195.45 231.173 192.647 230.122 189.734 229.515" fill="black"/>
</g>
<path d="M375.484 317.869C374.763 317.67 374.027 317.529 373.284 317.447L292.9 283.74H212.969L134.169 314.869C126.177 317.533 114.759 333.138 121.229 351.788C121.409 352.306 121.597 352.811 121.793 353.302C126.965 366.274 141.341 373.025 154.831 369.418C165.716 366.508 181.36 362.249 197.458 357.842L199.264 357.794L249.4 343.567C257.253 345.736 273.751 350.29 292.087 355.327H292.094C314.394 361.453 339.394 368.291 354.821 372.416C368.312 376.023 382.687 369.272 387.859 356.301C388.055 355.809 388.243 355.304 388.423 354.786C394.895 336.138 383.476 320.534 375.484 317.869Z" fill="#455A64"/>
<path d="M248.774 343.745C248.86 343.701 248.952 343.667 249.046 343.645L249.861 343.392L253.042 342.459L265.042 339.045L264.907 339.281C262.837 331.681 260.082 321.564 256.901 309.881L257.179 310.095L248.942 310.108C246.116 310.147 243.219 310.359 240.251 310.487L221.751 311.496C198.897 312.825 178.232 314.369 163.282 315.58L145.582 317.044L140.769 317.436L139.515 317.522C139.373 317.539 139.229 317.542 139.086 317.53C139.224 317.491 139.366 317.467 139.509 317.457L140.756 317.308L145.556 316.796C149.73 316.375 155.771 315.786 163.244 315.129C178.187 313.802 198.853 312.186 221.713 310.858L240.218 309.864C243.189 309.741 246.097 309.535 248.927 309.504L257.177 309.517H257.4L257.457 309.731C260.565 321.431 263.257 331.566 265.277 339.18L265.327 339.367L265.143 339.417L253.1 342.656L249.892 343.491L249.063 343.691C248.969 343.721 248.872 343.739 248.774 343.745V343.745Z" fill="#455A64"/>
<path d="M222.738 310.837C222.648 310.98 220.427 309.713 218.017 307.697C215.607 305.681 213.956 303.731 214.081 303.617C214.206 303.503 216.043 305.225 218.427 307.206C220.811 309.187 222.839 310.683 222.738 310.837Z" fill="#455A64"/>
<path d="M366.009 320.775C365.642 320.796 365.274 320.789 364.909 320.753L361.758 320.563L350.177 319.772L311.969 317.2L273.74 314.889L262.153 314.202L259 313.993C258.631 313.982 258.263 313.943 257.9 313.875C258.266 313.843 258.634 313.839 259 313.864L262.154 313.957L273.754 314.441C283.546 314.892 297.07 315.613 312.001 316.565C326.932 317.517 340.431 318.523 350.201 319.32L361.767 320.315L364.909 320.624C365.279 320.645 365.647 320.696 366.009 320.775V320.775Z" fill="#455A64"/>
<path d="M250.1 319.238C249.987 319.119 251.309 317.909 253.4 317.386C255.485 316.844 257.225 317.273 257.183 317.431C257.162 317.62 255.5 317.497 253.558 318.006C251.612 318.489 250.212 319.394 250.1 319.238Z" fill="#455A64"/>
<path d="M252.283 324.319C252.262 324.143 253.722 323.825 255.543 323.608C257.364 323.391 258.858 323.358 258.879 323.533C258.9 323.708 257.44 324.027 255.619 324.244C253.798 324.461 252.3 324.494 252.283 324.319Z" fill="#455A64"/>
<path d="M253.264 330.215C253.264 330.026 255.051 329.976 257.126 329.363C259.208 328.77 260.742 327.857 260.845 328.016C260.95 328.143 259.501 329.349 257.305 329.977C255.113 330.622 253.244 330.378 253.264 330.215Z" fill="#455A64"/>
<path d="M255.22 336.562C255.213 336.373 256.927 336.236 258.871 335.495C260.823 334.775 262.205 333.752 262.324 333.895C262.442 334.01 261.168 335.322 259.095 336.095C257.029 336.877 255.206 336.726 255.22 336.562Z" fill="#455A64"/>
<path d="M291.852 307.794C291.984 307.923 290.644 309.482 289.152 311.513C287.66 313.544 286.544 315.274 286.383 315.185C286.222 315.096 287.102 313.198 288.638 311.132C290.174 309.066 291.733 307.673 291.852 307.794Z" fill="#455A64"/>
<path d="M257.464 309.728L238.313 306.828C238.313 306.828 236.567 302.317 233.613 302.09C230.659 301.863 227.938 305.117 225.784 304.913C223.63 304.709 197.918 296.072 196.451 307.72L207.145 312.13" fill="#FFBE9D"/>
<path d="M320.285 320.279L263.285 332.499L258.168 312.931L279.257 311.91C279.257 311.91 281.783 307.784 284.727 308.089C287.671 308.394 289.769 312.083 291.927 312.268C294.085 312.453 320.927 308.557 320.285 320.279Z" fill="#FFBE9D"/>
<path d="M212.008 285.716C212.008 285.716 211.845 285.808 211.516 285.964L210.05 286.645C208.76 287.245 206.843 288.09 204.363 289.158C199.406 291.298 192.174 294.258 183.205 297.818C174.241 301.397 163.536 305.574 151.78 310.532C145.9 313 139.6 315.338 133.6 318.794L132.484 319.459C132.411 319.498 132.344 319.547 132.284 319.603C132.254 319.629 132.284 319.615 132.278 319.577C132.271 319.51 132.26 319.512 132.26 319.512C132.416 319.593 132.585 319.647 132.76 319.673C133.614 319.805 134.478 319.877 135.343 319.887C137.099 319.938 138.877 319.915 140.666 319.877C144.246 319.793 147.879 319.63 151.554 319.441C166.259 318.659 180.254 317.606 192.977 316.641L226.777 313.941L249.557 312.047L255.751 311.542L257.363 311.422C257.726 311.398 257.914 311.399 257.914 311.399C257.914 311.399 257.729 311.434 257.368 311.475L255.76 311.646L249.574 312.246L226.808 314.306C217.193 315.145 205.741 316.116 193.017 317.117C180.293 318.118 166.299 319.172 151.584 319.955C147.906 320.144 144.27 320.307 140.684 320.389C138.889 320.426 137.106 320.449 135.333 320.396C134.439 320.384 133.547 320.309 132.665 320.17C132.407 320.133 132.16 320.043 131.94 319.905C131.887 319.865 131.845 319.814 131.815 319.755C131.785 319.696 131.768 319.632 131.767 319.566C131.772 319.45 131.82 319.34 131.902 319.257C131.996 319.161 132.104 319.08 132.223 319.016L133.35 318.347C139.407 314.867 145.729 312.54 151.603 310.083C163.374 305.147 174.098 301.004 183.077 297.47C192.056 293.936 199.313 291.047 204.292 288.965L210.015 286.543L211.502 285.909C211.831 285.775 212.008 285.716 212.008 285.716Z" fill="white"/>
<path d="M290.844 285.716C290.971 285.75 291.095 285.796 291.214 285.852L292.278 286.301L296.355 288.058L311.379 294.453L361.088 315.212C365.875 317.06 370.545 319.195 375.075 321.606C375.618 321.906 376.156 322.218 376.684 322.538C376.966 322.693 377.237 322.869 377.493 323.064C377.566 323.13 377.633 323.204 377.693 323.283C377.775 323.399 377.807 323.543 377.783 323.683C377.767 323.864 377.658 323.923 377.575 324.025C377.492 324.082 377.408 324.125 377.324 324.172C376.127 324.494 374.89 324.646 373.651 324.622C371.251 324.674 368.916 324.591 366.636 324.494C357.52 324.055 349.342 323.301 342.476 322.672C335.611 322.026 330.062 321.438 326.23 321.013L321.82 320.502L320.675 320.353C320.543 320.342 320.413 320.319 320.286 320.284C320.417 320.278 320.549 320.283 320.68 320.3L321.831 320.4L326.251 320.814L342.509 322.307C349.376 322.889 357.557 323.607 366.656 324.016C368.93 324.107 371.264 324.184 373.638 324.127C374.811 324.145 375.981 324.006 377.117 323.714L377.26 323.633C377.26 323.611 377.316 323.586 377.285 323.599C377.254 323.54 377.211 323.49 377.159 323.45C376.924 323.277 376.679 323.121 376.424 322.981C375.901 322.664 375.367 322.36 374.824 322.059C370.309 319.664 365.656 317.541 360.888 315.701C341.471 307.596 323.904 300.241 311.232 294.801C304.897 292.081 299.788 289.837 296.271 288.254L292.233 286.407L291.19 285.907C291.069 285.854 290.953 285.79 290.844 285.716Z" fill="white"/>
<path d="M248.726 171.028C251.06 171.192 253.402 170.856 255.596 170.044C257.79 169.231 259.786 167.96 261.45 166.315C263.114 164.67 264.408 162.689 265.247 160.505C266.085 158.32 266.448 155.982 266.311 153.646C266.067 149.51 265.864 146.351 265.864 146.351C265.864 146.351 278.907 144.323 279.064 131.283C279.221 118.243 276.964 88.2971 276.964 88.2971C269.55 85.1113 261.421 83.9623 253.415 84.9687C245.409 85.9751 237.817 89.1005 231.423 94.0221L229.491 95.5101L233.45 155.689C233.711 159.661 235.403 163.403 238.212 166.223C241.02 169.043 244.755 170.75 248.726 171.028V171.028Z" fill="#FFBE9D"/>
<path d="M265.885 146.163C259.864 146.276 253.946 144.595 248.885 141.332C248.885 141.332 252.904 150.717 265.917 149.542L265.885 146.163Z" fill="#EB996E"/>
<path d="M231.1 109.017C230.877 108.917 222.139 106.367 222.424 115.283C222.709 124.199 231.601 122.073 231.608 121.817C231.615 121.561 231.1 109.017 231.1 109.017Z" fill="#FFBE9D"/>
<path d="M228.779 118.526C228.739 118.499 228.627 118.64 228.369 118.769C228.004 118.938 227.588 118.96 227.208 118.83C226.256 118.514 225.415 117.044 225.32 115.439C225.273 114.675 225.397 113.91 225.684 113.201C225.759 112.92 225.901 112.661 226.098 112.447C226.294 112.233 226.54 112.069 226.814 111.971C226.991 111.918 227.181 111.93 227.351 112.003C227.521 112.076 227.66 112.206 227.744 112.371C227.872 112.616 227.821 112.796 227.868 112.81C227.894 112.831 228.055 112.655 227.968 112.289C227.912 112.069 227.782 111.876 227.6 111.741C227.349 111.563 227.038 111.491 226.734 111.541C226.37 111.625 226.034 111.801 225.757 112.052C225.481 112.303 225.274 112.621 225.155 112.975C224.801 113.758 224.643 114.617 224.696 115.475C224.811 117.269 225.784 118.921 227.085 119.253C227.327 119.315 227.579 119.322 227.824 119.273C228.068 119.224 228.299 119.121 228.498 118.971C228.77 118.742 228.811 118.541 228.779 118.526Z" fill="#EB996E"/>
<path d="M247.621 107.626C247.852 107.383 249.263 108.426 251.267 108.426C253.267 108.449 254.74 107.418 254.957 107.664C255.064 107.772 254.829 108.21 254.188 108.677C253.32 109.278 252.289 109.596 251.234 109.587C250.192 109.59 249.177 109.263 248.334 108.651C247.716 108.174 247.507 107.734 247.621 107.626Z" fill="#455A64"/>
<path d="M267.32 107.252C267.551 107.009 268.964 108.052 270.966 108.052C272.966 108.075 274.439 107.044 274.656 107.29C274.763 107.398 274.53 107.836 273.887 108.303C273.02 108.904 271.988 109.222 270.933 109.213C269.891 109.216 268.876 108.889 268.033 108.277C267.417 107.8 267.207 107.36 267.32 107.252Z" fill="#455A64"/>
<path d="M262.075 121.878C263.131 121.547 264.225 121.35 265.33 121.291C265.841 121.238 266.33 121.136 266.412 120.791C266.455 120.262 266.335 119.733 266.07 119.274L264.557 115.374C262.457 109.826 260.934 105.264 261.157 105.181C261.38 105.098 263.267 109.528 265.368 115.076C265.874 116.445 266.358 117.748 266.818 118.996C267.14 119.614 267.233 120.325 267.083 121.005C267.009 121.185 266.895 121.346 266.749 121.476C266.603 121.606 266.43 121.7 266.242 121.753C265.958 121.829 265.666 121.87 265.373 121.874C264.278 122.015 263.17 122.016 262.075 121.878V121.878Z" fill="#455A64"/>
<path d="M256.177 123.264C256.503 123.246 256.507 125.421 258.369 126.964C260.231 128.507 262.546 128.264 262.563 128.572C262.593 128.709 262.047 128.995 261.068 129.022C259.794 129.039 258.555 128.607 257.568 127.802C256.621 127.028 256.012 125.916 255.868 124.702C255.785 123.791 256.028 123.252 256.177 123.264Z" fill="#455A64"/>
<path d="M255.319 101.2C255.119 101.745 253.119 101.487 250.769 101.77C248.412 102.006 246.516 102.695 246.205 102.206C246.065 101.972 246.396 101.46 247.163 100.932C248.186 100.285 249.343 99.8798 250.546 99.7469C251.749 99.614 252.966 99.757 254.106 100.165C254.969 100.515 255.4 100.943 255.319 101.2Z" fill="#455A64"/>
<path d="M273.763 103.115C273.411 103.571 272.031 103.098 270.37 103.076C268.711 102.996 267.305 103.382 266.981 102.906C266.839 102.675 267.06 102.219 267.675 101.788C268.5 101.271 269.46 101.012 270.433 101.042C271.406 101.072 272.348 101.39 273.14 101.957C273.726 102.425 273.919 102.893 273.763 103.115Z" fill="#455A64"/>
<path d="M283.321 80.0652C283.412 79.2567 283.297 78.4382 282.986 77.6863C282.676 76.9343 282.179 76.2734 281.544 75.7652C280.888 75.2847 280.082 75.0541 279.271 75.1148C278.46 75.1754 277.697 75.5234 277.12 76.0962C277.242 75.5512 277.249 74.9867 277.139 74.439C277.029 73.8914 276.806 73.373 276.483 72.9174C276.16 72.4618 275.745 72.0792 275.264 71.7944C274.784 71.5095 274.249 71.3289 273.694 71.2642C271.567 71.1292 269.754 72.7362 267.694 73.2992C265.642 73.7316 263.505 73.4859 261.605 72.5992C259.676 71.8222 257.872 70.7502 255.918 70.0362C251.79 68.5287 247.234 68.7117 243.24 70.5453C239.246 72.379 236.137 75.715 234.59 79.8282C231.738 78.9372 228.497 80.3852 226.738 82.8002C225.076 85.3217 224.413 88.3721 224.878 91.3562C225.157 93.3562 225.657 95.3189 226.37 97.2082C226.37 97.3762 226.353 97.5402 226.356 97.7082C226.491 104.879 227.301 113.3 230.361 113.347C235.693 113.429 234.422 103.383 234.422 103.383C240.966 100.854 238.528 91.0502 240.165 89.5622C241.802 88.0742 245.224 84.6192 258.924 91.6222C264.244 94.3412 271.318 94.2562 275.18 93.3802C275.293 93.3552 275.408 93.3382 275.52 93.3102C275.544 93.3042 275.576 93.3002 275.6 93.2942C275.642 93.2832 275.672 93.2602 275.713 93.2492C276.954 92.9372 278.139 92.4342 279.226 91.7582C280.512 91.022 281.528 89.8936 282.126 88.5382C282.411 87.8586 282.491 87.1109 282.359 86.3862C282.226 85.6615 281.886 84.9909 281.379 84.4562C282.442 83.2141 283.117 81.6873 283.321 80.0652V80.0652Z" fill="#455A64"/>
<path d="M270.3 62.9941C270.315 62.9851 270.4 63.1051 270.542 63.3461C270.755 63.6975 270.931 64.0694 271.07 64.4561C271.565 65.9006 271.66 67.452 271.345 68.9461C270.919 71.2029 269.627 73.2035 267.745 74.5201C265.565 75.9721 262.583 76.2521 259.72 75.8201C256.82 75.3991 254.22 74.4571 251.791 73.9621C249.667 73.4164 247.448 73.361 245.3 73.8001C243.858 74.1066 242.519 74.7812 241.415 75.7581C240.656 76.4741 240.368 76.9951 240.323 76.9651C240.366 76.828 240.431 76.6987 240.516 76.5821C240.732 76.2324 240.986 75.9075 241.273 75.6131C242.362 74.5422 243.725 73.7915 245.212 73.4431C247.409 72.9369 249.694 72.9527 251.884 73.4891C254.357 73.9681 256.967 74.8941 259.784 75.3011C262.406 75.8376 265.133 75.4176 267.472 74.1171C269.27 72.8809 270.526 71.0018 270.98 68.8671C271.313 67.4315 271.276 65.9347 270.873 64.5171C270.575 63.5201 270.248 63.0241 270.3 62.9941Z" fill="#455A64"/>
<path d="M266.918 65.4248C267.185 65.6851 267.396 65.9962 267.541 66.3397C267.685 66.6832 267.759 67.0522 267.759 67.4248C267.824 68.2377 267.672 69.0533 267.318 69.7878C266.867 70.6833 266.161 71.4257 265.29 71.9218C264.431 72.4191 263.464 72.6976 262.472 72.7328C261.674 72.7598 260.877 72.6519 260.115 72.4138C259.403 72.2461 258.742 71.9077 258.19 71.4278C258.229 71.3498 258.952 71.7538 260.211 72.0588C261.832 72.4878 263.556 72.2777 265.027 71.4718C265.813 71.0252 266.458 70.3669 266.889 69.5718C267.228 68.9143 267.4 68.1834 267.389 67.4438C267.338 66.7504 267.179 66.0692 266.918 65.4248V65.4248Z" fill="#455A64"/>
<path d="M312.589 280.124C312.739 282.082 312.302 284.041 311.334 285.75C310.366 287.459 308.91 288.841 307.153 289.718L292.9 283.74L275.331 284.921L282.262 266.103C282.262 266.103 302.004 268.524 304.797 270.759C307.59 272.994 312.813 277.164 312.589 280.124Z" fill="#0FA6AF"/>
<g opacity="0.4">
<path opacity="0.4" d="M312.589 280.124C312.739 282.082 312.302 284.041 311.334 285.75C310.366 287.459 308.91 288.841 307.153 289.718L292.9 283.74L275.331 284.921L282.262 266.103C282.262 266.103 302.004 268.524 304.797 270.759C307.59 272.994 312.813 277.164 312.589 280.124Z" fill="black"/>
</g>
<path d="M312.589 280.124C312.739 282.082 312.302 284.041 311.334 285.75C310.366 287.459 308.91 288.841 307.153 289.718L292.9 283.74L275.331 284.921L282.262 266.103C282.262 266.103 302.004 268.524 304.797 270.759C307.59 272.994 312.813 277.164 312.589 280.124Z" fill="#0FA6AF"/>
<g opacity="0.4">
<path opacity="0.4" d="M312.589 280.124C312.739 282.082 312.302 284.041 311.334 285.75C310.366 287.459 308.91 288.841 307.153 289.718L292.9 283.74L275.331 284.921L282.262 266.103C282.262 266.103 302.004 268.524 304.797 270.759C307.59 272.994 312.813 277.164 312.589 280.124Z" fill="black"/>
</g>
<path d="M327.387 195.559L325.963 194.323L295.811 170.711C286.504 160.817 279.733 157.838 266.642 156.292C264.503 156.039 267.865 156.445 266.642 156.292C256.597 159.384 243.148 159.68 233.103 156.575C228.446 156.775 224.588 158.207 220.626 158.966C208.15 161.356 201.481 170.166 196.676 178.835L172.54 219.335L173.574 220.935C176.943 226.147 181.963 230.078 187.831 232.1V232.1L189.453 232.91C195.133 235.615 200.032 239.721 203.688 244.841V244.841L214.321 226.276L211.334 256.038L209.27 285.266C223.444 289.314 238.15 291.19 252.887 290.83C273.913 290.924 303.147 265.33 312.587 280.13C312.723 272.545 303.174 262.161 300.53 257.13C292.316 241.504 293.86 235.184 293.263 223.458L307.371 232.099L309.9 227.152C312.037 222.971 316.116 213.669 317.637 206.412C317.639 206.408 319.3 192.867 327.387 195.559Z" fill="#0FA6AF"/>
<path d="M214.394 196.279C214.482 196.68 214.518 197.091 214.503 197.502C214.535 198.29 214.562 199.429 214.582 200.836C214.622 203.651 214.637 207.536 214.617 211.836C214.597 216.136 214.546 220.021 214.479 222.836C214.446 224.243 214.408 225.382 214.369 226.168C214.38 226.579 214.339 226.989 214.248 227.39C214.161 226.988 214.125 226.577 214.139 226.167C214.107 225.38 214.081 224.241 214.06 222.834C214.02 220.019 214.005 216.134 214.025 211.834C214.045 207.534 214.097 203.651 214.163 200.834C214.197 199.427 214.234 198.288 214.273 197.501C214.262 197.09 214.303 196.679 214.394 196.279V196.279Z" fill="#455A64"/>
<path d="M294.978 243.481C294.843 242.859 294.759 242.227 294.728 241.591C294.611 240.27 294.455 238.528 294.267 236.422C293.904 232.056 293.443 226.022 292.967 219.354C292.491 212.686 292.099 206.644 291.842 202.27C291.731 200.159 291.642 198.412 291.569 197.088C291.51 196.454 291.504 195.817 291.55 195.182C291.683 195.804 291.766 196.436 291.799 197.071C291.917 198.392 292.072 200.134 292.26 202.24C292.623 206.606 293.085 212.64 293.56 219.312C294.035 225.984 294.427 232.019 294.684 236.393C294.795 238.504 294.884 240.25 294.957 241.575C295.016 242.209 295.023 242.846 294.978 243.481V243.481Z" fill="#455A64"/>
<g opacity="0.2">
<path opacity="0.2" d="M229.3 157.623C235.734 166.651 244.029 174.194 253.627 179.742C257.127 181.763 260.898 183.542 264.927 183.866C271.87 184.43 278.427 180.64 283.813 176.223C285.942 174.477 288.051 172.498 288.958 169.898C289.865 167.298 289.158 163.941 286.72 162.656C285.851 162.273 284.907 162.091 283.959 162.122C283.01 162.153 282.08 162.398 281.239 162.837C279.567 163.727 277.98 164.77 276.5 165.952C273.018 168.404 269.079 170.133 264.917 171.035C260.755 171.937 256.455 171.995 252.27 171.204C248.085 170.414 244.102 168.791 240.556 166.433C237.01 164.075 233.973 161.029 231.626 157.475" fill="black"/>
</g>
<path d="M270.956 229.515C270.852 228.102 270.638 226.699 270.317 225.32C269.906 223.713 269.256 222.177 268.388 220.764C266.344 217.358 263.177 214.771 259.432 213.447C255.687 212.123 251.598 212.145 247.868 213.509C246.321 214.058 244.868 214.841 243.56 215.832C242.881 216.337 242.236 216.886 241.629 217.476C241.03 218.096 240.472 218.756 239.961 219.451C237.811 222.366 236.651 225.892 236.651 229.514C236.651 233.136 237.811 236.663 239.961 239.578C240.954 240.974 242.17 242.197 243.561 243.198C244.87 244.189 246.323 244.973 247.87 245.522C251.602 246.876 255.688 246.893 259.43 245.57C263.173 244.246 266.34 241.665 268.391 238.266C269.259 236.852 269.909 235.317 270.32 233.71C270.641 232.329 270.855 230.924 270.958 229.51C270.974 229.603 270.978 229.697 270.971 229.791C270.971 230.006 270.961 230.277 270.955 230.615C270.956 231.063 270.919 231.509 270.844 231.951C270.78 232.558 270.67 233.16 270.516 233.751C270.135 235.39 269.502 236.961 268.641 238.407C267.386 240.545 265.69 242.39 263.665 243.82C261.641 245.25 259.334 246.232 256.9 246.7C253.823 247.283 250.646 247.03 247.7 245.969C246.106 245.41 244.608 244.609 243.258 243.594C241.824 242.568 240.569 241.312 239.544 239.877C237.324 236.877 236.125 233.243 236.125 229.511C236.125 225.779 237.324 222.145 239.544 219.145C240.569 217.71 241.824 216.454 243.258 215.428C244.608 214.413 246.106 213.613 247.699 213.054C250.645 211.992 253.822 211.74 256.899 212.323C259.332 212.791 261.637 213.772 263.661 215.201C265.684 216.63 267.38 218.474 268.634 220.611C269.496 222.057 270.128 223.627 270.51 225.267C270.664 225.858 270.774 226.459 270.838 227.067C270.913 227.509 270.95 227.956 270.949 228.404C270.955 228.741 270.961 229.013 270.965 229.228C270.974 229.323 270.971 229.42 270.956 229.515V229.515Z" fill="white"/>
<path d="M253.136 246.776C252.992 246.776 252.875 239.045 252.875 229.512C252.875 219.979 252.992 212.246 253.136 212.246C253.28 212.246 253.396 219.975 253.396 229.512C253.396 239.049 253.279 246.776 253.136 246.776Z" fill="white"/>
<path d="M267.371 240.039C266.959 239.811 266.572 239.543 266.213 239.239L263.175 236.915C260.625 234.934 257.124 232.17 253.275 229.091L252.975 228.848L253.316 228.834C249.788 232.149 246.588 235.116 244.258 237.242L241.484 239.742C241.159 240.065 240.802 240.354 240.42 240.605C240.695 240.24 241.006 239.902 241.347 239.597L244.009 236.981C246.274 234.787 249.433 231.781 252.959 228.46L253.124 228.305L253.3 228.446L253.6 228.69C257.446 231.768 260.911 234.578 263.4 236.632L266.334 239.086C266.709 239.37 267.057 239.689 267.371 240.039V240.039Z" fill="white"/>
<g opacity="0.2">
<path opacity="0.2" d="M238.891 275.713C246.238 277.007 253.799 276.253 260.745 273.533C267.692 270.814 273.755 266.234 278.271 260.296C279.709 258.368 281.028 256.001 280.433 253.671C279.811 251.238 277.151 249.718 274.64 249.784C272.114 249.999 269.74 251.081 267.922 252.847C263.341 256.861 260.722 262.74 256.154 266.773C252.023 270.388 246.641 272.242 241.16 271.937C240.323 271.879 239.483 271.912 238.654 272.037C238.159 272.112 237.703 272.348 237.356 272.709C237.009 273.069 236.791 273.534 236.736 274.032C236.736 275.026 237.518 275.448 238.891 275.715" fill="black"/>
</g>
<g opacity="0.2">
<path opacity="0.2" d="M292.025 205.24L293.265 223.454L307.373 232.095L310.316 226.595L292.025 205.24Z" fill="black"/>
</g>
<path d="M327.659 195.853C327.111 195.673 326.544 195.561 325.97 195.518C324.399 195.509 322.88 196.079 321.702 197.118C320.015 198.728 318.853 200.809 318.367 203.09C317.676 205.64 317.021 208.517 316.097 211.45C314.566 216.48 312.683 221.396 310.462 226.161C309.612 227.99 308.857 229.438 308.331 230.434C308.075 230.96 307.779 231.465 307.444 231.945C307.638 231.394 307.874 230.86 308.15 230.345C308.62 229.322 309.322 227.854 310.126 226.011C312.24 221.22 314.068 216.308 315.6 211.3C316.523 208.371 317.181 205.538 317.908 202.957C318.644 200.394 319.808 198.109 321.472 196.834C322.728 195.77 324.343 195.228 325.986 195.319C326.425 195.355 326.856 195.46 327.262 195.632C327.405 195.684 327.539 195.759 327.659 195.853V195.853Z" fill="#455A64"/>
<path d="M203.688 244.836C203.317 244.448 202.972 244.035 202.657 243.601C201.744 242.467 200.77 241.383 199.74 240.354C198.219 238.827 196.524 237.484 194.69 236.354C192.631 235.054 190.22 233.877 187.699 232.593C185.313 231.403 183.003 230.067 180.782 228.593C178.963 227.38 177.288 225.963 175.791 224.37C174.787 223.289 173.92 222.09 173.209 220.798C173.012 220.45 172.836 220.091 172.683 219.722C172.614 219.6 172.565 219.467 172.54 219.329C173.53 221.052 174.711 222.658 176.06 224.118C177.572 225.652 179.246 227.019 181.051 228.195C183.27 229.635 185.569 230.949 187.936 232.131C190.447 233.41 192.876 234.61 194.946 235.95C196.797 237.117 198.494 238.512 200 240.1C201.017 241.16 201.958 242.291 202.816 243.483C203.116 243.905 203.344 244.239 203.487 244.472C203.63 244.705 203.7 244.825 203.688 244.836Z" fill="#455A64"/>
<path d="M283.635 250.887C283.596 251.085 283.536 251.278 283.455 251.462C283.312 251.829 283.136 252.387 282.824 253.069C281.986 255.018 280.984 256.891 279.829 258.669C276.026 264.605 270.725 269.433 264.461 272.665C258.197 275.897 251.19 277.42 244.15 277.079C242.031 276.992 239.923 276.724 237.85 276.279C237.114 276.137 236.557 275.958 236.175 275.863C235.977 275.823 235.785 275.76 235.603 275.676C235.805 275.681 236.007 275.709 236.203 275.76C236.592 275.823 237.153 275.97 237.892 276.08C239.964 276.447 242.06 276.659 244.164 276.714C251.126 276.952 258.033 275.4 264.223 272.205C270.414 269.011 275.681 264.281 279.522 258.469C280.695 256.722 281.738 254.891 282.64 252.989C282.979 252.323 283.185 251.781 283.359 251.427C283.43 251.237 283.522 251.056 283.635 250.887V250.887Z" fill="#455A64"/>
<g opacity="0.2">
<path opacity="0.2" d="M204.58 242.745C205.733 228.186 209.04 213.879 214.393 200.291L214.369 226.166L204.58 242.745Z" fill="black"/>
</g>
<path d="M228.788 157.1C233.174 166.491 244.749 171.823 254.927 173.782C260.04 174.722 265.301 174.458 270.295 173.013C275.288 171.567 279.877 168.979 283.698 165.454C290.104 159.444 293.868 151.125 299.827 144.671C305.004 139.219 311.58 135.295 318.836 133.325C326.092 131.355 333.75 131.415 340.974 133.5L341.762 119.3C336.903 116.151 324.391 115.007 318.662 115.87C307.265 117.64 296.966 123.671 289.846 132.743C283.564 140.821 279.863 151.205 271.531 157.143C265.51 161.437 258.044 161.469 250.752 160.234C243.46 158.999 238.552 152.334 232.915 147.546L228.788 157.1Z" fill="#455A64"/>
<path d="M232.868 147.561C234.772 149.979 237.134 151.998 239.819 153.503C242.503 155.007 245.458 155.968 248.515 156.331C251.571 156.693 254.669 156.449 257.631 155.614C260.593 154.778 263.361 153.367 265.778 151.461C267.078 150.435 268.744 149.197 270.214 149.961C271.35 150.555 271.632 152.025 271.783 153.298C272.134 156.238 272.409 159.491 270.683 161.898C269.025 164.204 266.007 165.024 263.205 165.488C256.558 166.588 249.512 166.514 243.355 163.778C237.198 161.042 233.405 154.278 232.871 147.565" fill="#455A64"/>
<path d="M274.428 154.751C274.441 154.764 274.328 154.889 274.102 155.117C273.876 155.345 273.546 155.689 273.081 156.085C271.771 157.216 270.341 158.199 268.815 159.016C266.545 160.235 264.093 161.079 261.554 161.516C258.436 162.062 255.239 161.962 252.161 161.222C249.115 160.409 246.21 159.14 243.544 157.457C242.303 156.714 241.144 156.008 240.063 155.294C239.069 154.63 238.119 153.9 237.222 153.11C235.905 151.981 234.75 150.677 233.79 149.233C233.532 148.839 233.301 148.429 233.099 148.004C233.018 147.861 232.957 147.706 232.919 147.546C232.962 147.525 233.256 148.133 233.958 149.119C234.967 150.496 236.142 151.743 237.458 152.831C238.359 153.59 239.308 154.291 240.297 154.931C241.363 155.615 242.548 156.317 243.783 157.04C246.421 158.674 249.285 159.911 252.283 160.713C255.294 161.435 258.419 161.547 261.474 161.04C263.971 160.629 266.389 159.834 268.643 158.683C270.165 157.904 271.607 156.979 272.95 155.922C273.42 155.504 273.914 155.113 274.428 154.751V154.751Z" fill="#455A64"/>
<path d="M291.62 154.833C289.613 153.958 287.662 152.96 285.778 151.846C283.811 150.885 281.904 149.804 280.068 148.611C284.146 150.232 288.022 152.32 291.62 154.833V154.833Z" fill="#455A64"/>
<path d="M298.593 145.747C296.381 144.822 294.238 143.739 292.182 142.505C290.042 141.422 287.983 140.186 286.021 138.805C288.233 139.73 290.376 140.814 292.433 142.047C294.573 143.13 296.632 144.366 298.593 145.747V145.747Z" fill="#455A64"/>
<path d="M305.331 138.229C304.725 137.813 304.169 137.33 303.672 136.789L299.844 133.152L295.991 129.541C295.422 129.076 294.907 128.549 294.457 127.969C295.102 128.326 295.699 128.762 296.234 129.269C297.283 130.127 298.696 131.358 300.201 132.777C301.706 134.196 303.016 135.536 303.934 136.534C304.469 137.038 304.938 137.608 305.331 138.229V138.229Z" fill="#455A64"/>
<path d="M306.346 119.522C306.891 120.158 307.373 120.846 307.784 121.576L311.061 126.64L314.386 131.675C314.889 132.344 315.324 133.062 315.686 133.817C315.083 133.234 314.547 132.587 314.086 131.887C313.155 130.649 311.919 128.903 310.626 126.925C309.333 124.947 308.231 123.115 307.47 121.766C307.013 121.062 306.636 120.309 306.346 119.522V119.522Z" fill="#455A64"/>
<path d="M322.045 116.556C322.318 117.28 322.514 118.03 322.631 118.794C322.989 120.377 323.401 122.203 323.856 124.218C324.348 126.226 324.794 128.044 325.181 129.618C325.417 130.354 325.576 131.114 325.654 131.883C325.291 131.198 325.013 130.471 324.826 129.719C324.39 128.359 323.849 126.459 323.349 124.336C322.849 122.213 322.486 120.272 322.27 118.86C322.102 118.104 322.026 117.33 322.045 116.556V116.556Z" fill="#455A64"/>
<path d="M334.34 116.384C334.493 116.391 334.431 119.763 334.64 123.909C334.849 128.055 335.23 131.409 335.079 131.427C334.834 130.726 334.681 129.996 334.624 129.256C334.424 127.903 334.224 126.021 334.124 123.934C334.024 121.847 334.038 119.956 334.105 118.59C334.087 117.847 334.166 117.106 334.34 116.384V116.384Z" fill="#455A64"/>
<path d="M282.674 166.212C280.817 164.765 279.069 163.182 277.445 161.478C275.699 159.898 274.072 158.191 272.578 156.371C274.435 157.818 276.183 159.4 277.808 161.105C279.553 162.685 281.18 164.392 282.674 166.212V166.212Z" fill="#455A64"/>
<path d="M268.554 173.486C267.666 171.437 266.939 169.321 266.379 167.159C265.652 165.046 265.091 162.88 264.701 160.68C265.589 162.73 266.317 164.846 266.877 167.009C267.603 169.121 268.163 171.287 268.554 173.486V173.486Z" fill="#455A64"/>
<path d="M252.837 173.277C252.982 171.296 253.301 169.332 253.789 167.407C254.107 165.446 254.596 163.517 255.25 161.641C255.105 163.622 254.786 165.587 254.299 167.513C253.98 169.473 253.491 171.402 252.837 173.277Z" fill="#455A64"/>
<path d="M240.99 168.758C241.905 165.155 243.542 161.776 245.803 158.825C245.931 158.906 244.681 161.037 243.36 163.774C242.039 166.511 241.133 168.807 240.99 168.758Z" fill="#455A64"/>
<path d="M237.715 153.648C237.162 155.255 236.391 156.778 235.423 158.175C234.601 159.662 233.578 161.03 232.383 162.238C233.15 160.735 234.019 159.286 234.983 157.901C235.797 156.423 236.71 155.003 237.715 153.648V153.648Z" fill="#455A64"/>
<path d="M250.938 156.658C251.081 156.695 250.991 157.49 250.891 158.458C250.791 159.426 250.708 160.22 250.561 160.226C250.414 160.232 250.261 159.414 250.374 158.403C250.487 157.392 250.8 156.621 250.938 156.658Z" fill="#455A64"/>
<path d="M260.711 161.317C260.015 159.232 259.781 157.02 260.026 154.835C260.333 155.883 260.504 156.967 260.534 158.059C260.732 159.133 260.792 160.228 260.711 161.317Z" fill="#455A64"/>
<path d="M267.727 150.735C268.064 152.044 268.302 153.377 268.439 154.722C268.747 156.038 268.955 157.375 269.062 158.722C267.997 156.2 267.54 153.464 267.727 150.733V150.735Z" fill="#455A64"/>
<path d="M176.959 267.4L239.754 231.022C242.106 229.66 244.076 227.728 245.484 225.403C246.893 223.079 247.693 220.437 247.811 217.722L249.47 179.512C249.492 179.008 249.318 178.515 248.986 178.136C248.654 177.756 248.188 177.519 247.686 177.474V177.474C247.23 177.433 246.774 177.553 246.397 177.813C246.02 178.073 245.746 178.457 245.623 178.898L237.6 207.568L162.892 239.21C160.904 240.052 159.11 241.293 157.621 242.855C156.132 244.418 154.98 246.27 154.235 248.296C153.49 250.322 153.168 252.479 153.29 254.634C153.412 256.789 153.974 258.896 154.943 260.825V260.825C155.908 262.748 157.257 264.454 158.906 265.837C160.555 267.219 162.469 268.25 164.531 268.866C166.593 269.482 168.759 269.67 170.896 269.417C173.034 269.165 175.097 268.479 176.959 267.4V267.4Z" fill="#FFBE9D"/>
<path d="M237.6 207.568C237.371 207.715 237.13 207.842 236.881 207.948L234.781 208.948L226.995 212.51C220.406 215.483 211.267 219.51 201.107 223.81C190.947 228.11 181.676 231.837 174.938 234.46C171.57 235.771 168.838 236.815 166.938 237.515L164.751 238.315C164.5 238.419 164.24 238.501 163.976 238.56C164.211 238.425 164.458 238.31 164.713 238.217L166.865 237.329L174.8 234.12C181.5 231.411 190.741 227.626 200.9 223.333C211.059 219.04 220.215 215.063 226.842 212.177L234.694 208.767L236.838 207.858C237.083 207.74 237.338 207.643 237.6 207.568V207.568Z" fill="#EB996E"/>
<path d="M156.719 264.129C156.712 264.081 157.556 263.986 159.032 263.629C159.923 263.403 160.789 263.09 161.619 262.694C162.702 262.135 163.733 261.48 164.699 260.736C165.786 259.921 166.987 259.018 168.241 258.036C169.495 257.054 170.795 255.927 172.171 254.758C175.075 252.096 178.303 249.811 181.78 247.958C185.328 246.208 189.165 245.119 193.104 244.744C196.313 244.449 199.548 244.616 202.71 245.239C204.835 245.665 206.909 246.312 208.899 247.17C209.599 247.47 210.122 247.77 210.483 247.943C210.671 248.025 210.85 248.128 211.015 248.25C210.815 248.201 210.621 248.13 210.437 248.038C210.063 247.891 209.537 247.628 208.821 247.357C203.841 245.411 198.47 244.679 193.151 245.222C189.277 245.617 185.505 246.701 182.012 248.422C178.573 250.258 175.371 252.508 172.48 255.122C171.097 256.281 169.78 257.386 168.508 258.373C167.236 259.36 166.026 260.234 164.915 261.037C163.921 261.777 162.859 262.421 161.743 262.96C160.888 263.344 159.995 263.635 159.078 263.829C158.502 263.95 157.92 264.042 157.334 264.102C157.13 264.134 156.924 264.144 156.719 264.129Z" fill="#455A64"/>
<path d="M168.757 258.233C168.845 258.548 168.917 258.866 168.973 259.188C169.196 260.033 169.624 260.811 170.219 261.452C171.099 262.402 172.197 263.123 173.419 263.552C174.921 264.041 176.548 263.979 178.009 263.377C178.162 263.316 178.309 263.238 178.444 263.177L178.324 263.507C177.732 262.096 176.779 260.865 175.561 259.939C174.566 259.187 173.419 258.662 172.2 258.4C171.064 258.197 169.906 258.142 168.756 258.236C169.043 258.099 169.355 258.018 169.673 257.998C170.536 257.875 171.414 257.891 172.273 258.045C173.563 258.27 174.785 258.789 175.843 259.562C177.153 260.519 178.177 261.816 178.805 263.312L178.905 263.543L178.689 263.643C178.539 263.712 178.381 263.795 178.216 263.862C176.64 264.512 174.882 264.566 173.271 264.012C171.983 263.538 170.838 262.741 169.948 261.697C169.343 260.996 168.94 260.145 168.781 259.233C168.699 258.906 168.69 258.564 168.757 258.233V258.233Z" fill="#455A64"/>
<path d="M168.757 258.233C170.901 259.071 172.905 260.229 174.703 261.667C172.558 260.83 170.554 259.672 168.757 258.233V258.233Z" fill="#455A64"/>
<path d="M178.213 250.459C178.372 250.744 178.515 251.037 178.642 251.338C179.054 252.11 179.648 252.768 180.374 253.257C181.449 253.981 182.685 254.432 183.974 254.57C185.548 254.701 187.118 254.267 188.402 253.347C188.536 253.253 188.659 253.147 188.779 253.047L188.737 253.396C187.839 252.157 186.629 251.178 185.23 250.557C184.09 250.052 182.854 249.802 181.608 249.824C180.455 249.887 179.316 250.099 178.218 250.455C178.466 250.255 178.751 250.105 179.056 250.012C179.868 249.695 180.725 249.51 181.595 249.463C182.903 249.386 184.211 249.611 185.418 250.122C186.913 250.753 188.207 251.78 189.16 253.093L189.306 253.293L189.118 253.44C188.988 253.54 188.854 253.659 188.708 253.762C187.324 254.757 185.625 255.212 183.929 255.042C182.567 254.875 181.27 254.362 180.164 253.55C179.415 253.006 178.828 252.27 178.464 251.419C178.311 251.121 178.225 250.794 178.213 250.459V250.459Z" fill="#455A64"/>
<path d="M178.213 250.459C180.492 250.782 182.709 251.449 184.788 252.438C182.509 252.115 180.292 251.447 178.213 250.459V250.459Z" fill="#455A64"/>
<path d="M161.617 262.636C161.812 262.374 162.02 262.122 162.241 261.882C162.773 261.188 163.127 260.375 163.273 259.513C163.488 258.236 163.388 256.926 162.984 255.697C162.453 254.209 161.41 252.958 160.042 252.169C159.9 252.086 159.751 252.018 159.617 251.947L159.952 251.841C159.194 253.171 158.802 254.677 158.814 256.208C158.824 257.454 159.107 258.683 159.643 259.808C160.175 260.832 160.839 261.782 161.617 262.634C161.333 262.49 161.078 262.293 160.868 262.054C160.244 261.446 159.721 260.742 159.319 259.969C158.709 258.809 158.374 257.525 158.34 256.215C158.298 254.593 158.699 252.99 159.501 251.58L159.625 251.363L159.836 251.474C159.982 251.55 160.145 251.624 160.299 251.714C161.776 252.564 162.892 253.924 163.438 255.538C163.85 256.847 163.919 258.24 163.638 259.583C163.452 260.49 163.024 261.329 162.399 262.012C162.188 262.275 161.921 262.488 161.617 262.636Z" fill="#455A64"/>
<path d="M161.617 262.636C160.97 260.429 160.662 258.136 160.704 255.836C161.349 258.044 161.657 260.336 161.617 262.636V262.636Z" fill="#455A64"/>
<path d="M185.027 247.013C185.289 246.868 185.561 246.741 185.84 246.632C186.554 246.27 187.169 245.739 187.632 245.085C188.316 244.118 188.755 242.998 188.911 241.823C189.066 240.386 188.704 238.941 187.892 237.746C187.809 237.62 187.713 237.506 187.63 237.394L187.978 237.444C186.824 238.238 185.899 239.323 185.298 240.588C184.808 241.62 184.549 242.746 184.54 243.888C184.573 244.946 184.736 245.995 185.027 247.013C184.844 246.784 184.709 246.52 184.632 246.237C184.355 245.485 184.202 244.693 184.179 243.892C184.136 242.688 184.372 241.49 184.867 240.392C185.481 239.031 186.456 237.864 187.685 237.016L187.891 236.875L188.034 237.067C188.124 237.189 188.234 237.315 188.321 237.452C189.204 238.749 189.584 240.324 189.388 241.881C189.203 243.13 188.699 244.311 187.925 245.309C187.407 245.985 186.716 246.507 185.925 246.82C185.644 246.953 185.337 247.019 185.027 247.013Z" fill="#455A64"/>
<path d="M185.027 247.013C185.347 244.922 186.012 242.898 186.993 241.024C186.671 243.115 186.007 245.138 185.027 247.013V247.013Z" fill="#455A64"/>
<path d="M193.076 244.932C193.075 245.233 193.054 245.534 193.013 245.832C192.983 246.632 193.148 247.428 193.494 248.15C194.006 249.219 194.77 250.148 195.721 250.855C196.901 251.689 198.34 252.076 199.779 251.948C199.929 251.936 200.079 251.908 200.214 251.891L200.001 252.17C199.868 250.775 199.371 249.44 198.558 248.298C197.894 247.369 197.036 246.595 196.043 246.031C195.103 245.546 194.106 245.178 193.076 244.936C193.366 244.888 193.662 244.899 193.947 244.969C194.738 245.094 195.504 245.345 196.215 245.714C197.288 246.26 198.221 247.048 198.94 248.014C199.83 249.211 200.376 250.629 200.519 252.114L200.542 252.363L200.305 252.394C200.155 252.414 199.993 252.444 199.829 252.457C198.266 252.599 196.705 252.164 195.44 251.235C194.438 250.466 193.651 249.451 193.156 248.289C192.818 247.508 192.699 246.649 192.811 245.805C192.831 245.497 192.922 245.199 193.076 244.932Z" fill="#455A64"/>
<path d="M193.076 244.932C194.746 246.23 196.191 247.795 197.352 249.563C195.681 248.265 194.237 246.701 193.076 244.932V244.932Z" fill="#455A64"/>
<path d="M198.9 244.7C199.85 244.784 200.805 244.612 201.666 244.2C202.57 243.717 203.343 243.022 203.92 242.175C204.597 241.127 204.881 239.873 204.72 238.635C204.705 238.506 204.675 238.38 204.655 238.262L204.943 238.462C203.741 238.624 202.603 239.1 201.643 239.842C200.861 240.447 200.22 241.214 199.764 242.091C199.38 242.923 199.088 243.795 198.896 244.691C198.835 244.442 198.83 244.182 198.882 243.931C198.958 243.239 199.146 242.563 199.44 241.931C199.877 240.974 200.53 240.132 201.348 239.47C202.361 238.649 203.58 238.121 204.872 237.945L205.119 237.912L205.16 238.147C205.182 238.278 205.215 238.418 205.232 238.561C205.41 239.922 205.085 241.3 204.317 242.437C203.68 243.338 202.821 244.058 201.824 244.528C201.153 244.849 200.408 244.98 199.668 244.907C199.398 244.904 199.134 244.832 198.9 244.7V244.7Z" fill="#455A64"/>
<path d="M198.9 244.7C199.933 243.174 201.246 241.859 202.771 240.824C201.737 242.349 200.424 243.665 198.9 244.7V244.7Z" fill="#455A64"/>
<path d="M173.494 253.739C173.688 253.477 173.897 253.226 174.118 252.986C174.65 252.292 175.004 251.478 175.15 250.616C175.365 249.339 175.265 248.03 174.861 246.8C174.33 245.312 173.287 244.061 171.919 243.272C171.777 243.189 171.628 243.122 171.494 243.051L171.829 242.945C171.071 244.274 170.679 245.781 170.691 247.311C170.701 248.557 170.984 249.786 171.52 250.911C172.052 251.935 172.716 252.885 173.494 253.737C173.209 253.594 172.955 253.397 172.745 253.157C172.121 252.549 171.598 251.845 171.196 251.072C170.586 249.912 170.251 248.628 170.217 247.318C170.175 245.696 170.576 244.093 171.378 242.683L171.502 242.466L171.713 242.577C171.859 242.653 172.022 242.727 172.176 242.817C173.652 243.667 174.768 245.027 175.314 246.641C175.727 247.95 175.796 249.343 175.514 250.687C175.329 251.593 174.901 252.432 174.276 253.115C174.065 253.378 173.798 253.591 173.494 253.739V253.739Z" fill="#455A64"/>
<path d="M173.494 253.739C172.847 251.532 172.539 249.239 172.581 246.939C173.226 249.147 173.534 251.439 173.494 253.739V253.739Z" fill="#455A64"/>
<path d="M328.471 256.711L264.509 228.117C262.113 227.046 260.026 225.389 258.44 223.299C256.853 221.209 255.819 218.753 255.432 216.157L249.985 179.636C249.913 179.155 250.029 178.664 250.31 178.266C250.591 177.868 251.014 177.593 251.492 177.499V177.499C251.925 177.414 252.375 177.484 252.763 177.695C253.151 177.907 253.453 178.248 253.616 178.659L264.216 205.379L339.138 228.226C348.518 231.256 352.138 239.98 348.951 248.177C348.217 250.122 347.094 251.896 345.65 253.39C344.206 254.884 342.472 256.068 340.554 256.867C338.635 257.666 336.574 258.065 334.496 258.038C332.418 258.011 330.368 257.56 328.471 256.711V256.711Z" fill="#FFBE9D"/>
<path d="M264.212 205.379C264.471 205.423 264.726 205.49 264.973 205.579L267.123 206.233L275.007 208.713C281.661 210.813 290.856 213.713 301.041 216.806C311.226 219.899 320.484 222.606 327.19 224.533L335.132 226.816L337.287 227.453C337.542 227.516 337.79 227.602 338.03 227.71C337.769 227.681 337.512 227.629 337.26 227.555L335.079 227.012C333.187 226.531 330.458 225.806 327.091 224.887C320.357 223.05 311.083 220.402 300.891 217.304C290.699 214.206 281.521 211.255 274.891 209.063L267.057 206.426L264.937 205.679C264.687 205.601 264.444 205.5 264.212 205.379V205.379Z" fill="#EB996E"/>
<path d="M347.575 251.529C347.379 251.563 347.179 251.575 346.981 251.563C346.413 251.565 345.846 251.537 345.281 251.479C344.381 251.386 343.493 251.197 342.633 250.915C341.507 250.509 340.422 249.998 339.392 249.389C338.244 248.73 337.001 248.009 335.673 247.189C334.345 246.369 332.973 245.442 331.53 244.469C328.49 242.251 325.19 240.414 321.704 239C318.177 237.699 314.447 237.038 310.689 237.048C305.529 237.064 300.446 238.307 295.861 240.674C295.205 241.005 294.722 241.311 294.377 241.489C294.209 241.596 294.029 241.683 293.842 241.75C293.987 241.615 294.148 241.497 294.321 241.4C294.649 241.192 295.121 240.857 295.764 240.5C297.587 239.474 299.514 238.642 301.511 238.018C304.484 237.1 307.574 236.613 310.686 236.573C314.506 236.535 318.302 237.193 321.886 238.516C325.411 239.944 328.742 241.813 331.8 244.076C333.238 245.061 334.6 245.999 335.9 246.828C337.2 247.657 338.447 248.396 339.573 249.069C340.574 249.686 341.63 250.211 342.726 250.639C343.562 250.936 344.425 251.15 345.303 251.277C346.757 251.474 347.577 251.481 347.575 251.529Z" fill="#455A64"/>
<path d="M335.422 247.083C335.523 247.392 335.553 247.72 335.509 248.042C335.45 248.934 335.149 249.794 334.639 250.528C333.89 251.622 332.871 252.505 331.681 253.09C330.188 253.786 328.491 253.913 326.911 253.446C326.745 253.399 326.586 253.334 326.435 253.283L326.209 253.206L326.28 252.967C326.733 251.467 327.586 250.118 328.748 249.067C329.687 248.217 330.809 247.596 332.027 247.251C332.835 247.016 333.676 246.913 334.517 246.945C334.823 246.933 335.129 246.981 335.417 247.086C334.304 247.116 333.199 247.287 332.129 247.596C330.987 247.972 329.941 248.593 329.064 249.416C327.988 250.427 327.199 251.703 326.774 253.116L326.62 252.801C326.758 252.847 326.905 252.906 327.057 252.95C328.518 253.38 330.085 253.275 331.476 252.656C332.604 252.12 333.584 251.318 334.333 250.319C334.839 249.643 335.172 248.853 335.303 248.019C335.324 247.705 335.364 247.393 335.422 247.083V247.083Z" fill="#455A64"/>
<path d="M335.422 247.083C333.849 248.656 332.039 249.972 330.059 250.983C331.631 249.41 333.441 248.094 335.422 247.083Z" fill="#455A64"/>
<path d="M325.558 240.572C325.585 240.896 325.539 241.222 325.423 241.525C325.161 242.38 324.671 243.148 324.007 243.746C323.026 244.639 321.832 245.264 320.539 245.562C318.926 245.897 317.246 245.631 315.815 244.815C315.665 244.731 315.524 244.631 315.389 244.547L315.189 244.42L315.314 244.204C316.099 242.846 317.24 241.728 318.614 240.971C319.723 240.359 320.958 240.011 322.223 239.954C323.064 239.911 323.906 240.004 324.717 240.228C325.019 240.287 325.307 240.403 325.565 240.572C324.475 240.346 323.36 240.259 322.248 240.314C321.05 240.419 319.89 240.783 318.848 241.383C317.57 242.121 316.508 243.182 315.771 244.461L315.693 244.119C315.817 244.196 315.946 244.287 316.084 244.364C317.408 245.117 318.957 245.375 320.453 245.091C321.673 244.828 322.812 244.272 323.769 243.471C324.416 242.93 324.921 242.239 325.24 241.458C325.329 241.157 325.435 240.861 325.558 240.572V240.572Z" fill="#455A64"/>
<path d="M325.558 240.572C323.667 241.74 321.604 242.605 319.445 243.135C321.335 241.965 323.398 241.1 325.558 240.572Z" fill="#455A64"/>
<path d="M342.722 250.59C342.416 250.481 342.138 250.304 341.909 250.073C341.239 249.481 340.742 248.718 340.471 247.866C340.063 246.604 339.987 245.258 340.25 243.958C340.611 242.351 341.546 240.93 342.881 239.964C343.019 239.864 343.168 239.775 343.301 239.687L343.501 239.555L343.647 239.755C344.56 241.03 345.107 242.53 345.23 244.093C345.329 245.356 345.136 246.624 344.665 247.799C344.357 248.582 343.925 249.311 343.386 249.957C343.002 250.408 342.744 250.609 342.723 250.588C343.377 249.688 343.915 248.709 344.323 247.673C344.723 246.539 344.87 245.331 344.754 244.134C344.611 242.665 344.082 241.259 343.221 240.06L343.566 240.131C343.444 240.213 343.308 240.292 343.18 240.386C341.948 241.281 341.074 242.585 340.714 244.064C340.449 245.285 340.486 246.551 340.82 247.754C341.045 248.567 341.466 249.312 342.046 249.924C342.465 250.359 342.747 250.552 342.722 250.59Z" fill="#455A64"/>
<path d="M342.722 250.59C342.438 248.385 342.502 246.148 342.912 243.963C343.195 246.168 343.131 248.404 342.722 250.59V250.59Z" fill="#455A64"/>
<path d="M318.669 237.95C318.372 237.989 318.07 237.957 317.788 237.856C316.994 237.638 316.275 237.206 315.709 236.609C314.863 235.729 314.259 234.645 313.955 233.463C313.608 231.986 313.814 230.433 314.533 229.096C314.608 228.955 314.696 228.823 314.771 228.696L314.892 228.491L315.112 228.61C316.379 229.301 317.433 230.325 318.161 231.571C318.748 232.578 319.095 233.708 319.174 234.871C319.232 235.644 319.164 236.42 318.974 237.171C318.929 237.451 318.827 237.717 318.674 237.955C318.844 236.948 318.893 235.925 318.819 234.906C318.694 233.812 318.332 232.758 317.759 231.818C317.054 230.665 316.057 229.718 314.87 229.073L315.211 228.987C315.144 229.102 315.063 229.222 314.996 229.35C314.337 230.578 314.136 231.999 314.428 233.361C314.695 234.472 315.229 235.502 315.982 236.361C316.491 236.942 317.133 237.391 317.855 237.667C318.132 237.743 318.404 237.838 318.669 237.95V237.95Z" fill="#455A64"/>
<path d="M318.669 237.95C317.527 236.255 316.684 234.377 316.177 232.398C317.317 234.093 318.16 235.971 318.669 237.95V237.95Z" fill="#455A64"/>
<path d="M310.73 236.764C310.908 237.004 311.027 237.284 311.076 237.579C311.271 238.378 311.245 239.215 311 240C310.64 241.167 309.986 242.222 309.1 243.063C307.977 244.085 306.518 244.662 305 244.683C304.841 244.683 304.682 244.674 304.535 244.67L304.297 244.663V244.414C304.283 242.973 304.663 241.555 305.397 240.314C305.99 239.311 306.808 238.459 307.785 237.824C308.431 237.399 309.142 237.08 309.89 236.882C310.157 236.786 310.441 236.747 310.724 236.766C309.761 237.107 308.843 237.562 307.989 238.122C307.094 238.764 306.349 239.593 305.807 240.551C305.143 241.728 304.8 243.059 304.814 244.41L304.573 244.155C304.707 244.155 304.851 244.17 304.995 244.166C306.388 244.144 307.728 243.628 308.776 242.71C309.616 241.935 310.256 240.968 310.641 239.892C310.901 239.165 310.98 238.385 310.871 237.621C310.804 237.339 310.757 237.053 310.73 236.764Z" fill="#455A64"/>
<path d="M310.73 236.764C309.805 238.586 308.574 240.236 307.091 241.642C308.017 239.82 309.247 238.171 310.73 236.764V236.764Z" fill="#455A64"/>
<path d="M305.116 237.132C304.905 237.288 304.657 237.386 304.397 237.417C303.693 237.564 302.963 237.515 302.286 237.274C301.279 236.923 300.38 236.318 299.677 235.517C298.823 234.501 298.37 233.208 298.405 231.881C298.405 231.742 298.424 231.604 298.433 231.481L298.449 231.243L298.698 231.25C299.958 231.289 301.182 231.673 302.239 232.361C303.092 232.915 303.804 233.659 304.32 234.535C304.666 235.114 304.915 235.746 305.057 236.406C305.131 236.642 305.151 236.892 305.116 237.137C304.836 236.297 304.468 235.489 304.016 234.727C303.489 233.933 302.797 233.262 301.987 232.76C300.992 232.147 299.854 231.806 298.687 231.77L298.952 231.539C298.945 231.655 298.929 231.778 298.927 231.903C298.898 233.105 299.295 234.279 300.049 235.216C300.687 235.97 301.499 236.559 302.414 236.933C303.281 237.238 304.213 237.306 305.116 237.132V237.132Z" fill="#455A64"/>
<path d="M305.116 237.132C304.289 236.792 303.536 236.295 302.898 235.669C301.763 234.749 300.917 233.913 301.008 233.801C301.834 234.141 302.587 234.638 303.226 235.264C304.36 236.184 305.206 237.021 305.116 237.132Z" fill="#455A64"/>
<path d="M330.421 243.245C330.114 243.136 329.836 242.96 329.608 242.729C328.937 242.137 328.441 241.374 328.17 240.522C327.762 239.26 327.686 237.914 327.949 236.614C328.309 235.006 329.245 233.586 330.58 232.62C330.718 232.52 330.867 232.43 331 232.342L331.2 232.21L331.346 232.41C332.258 233.685 332.806 235.184 332.929 236.747C333.028 238.01 332.835 239.278 332.364 240.454C332.056 241.237 331.624 241.966 331.085 242.612C330.701 243.062 330.443 243.264 330.422 243.242C331.077 242.342 331.614 241.363 332.022 240.327C332.421 239.193 332.568 237.986 332.453 236.789C332.31 235.32 331.781 233.914 330.92 232.715L331.265 232.785C331.143 232.867 331.007 232.947 330.879 233.041C329.646 233.935 328.772 235.239 328.413 236.719C328.147 237.939 328.184 239.205 328.519 240.408C328.744 241.221 329.165 241.966 329.745 242.579C330.164 243.015 330.446 243.208 330.421 243.245Z" fill="#455A64"/>
<path d="M330.421 243.246C330.137 241.041 330.201 238.805 330.611 236.619C330.895 238.824 330.83 241.061 330.421 243.246V243.246Z" fill="#455A64"/>
<path d="M62.3456 393.427C62.3931 393.275 62.4544 393.127 62.5285 392.985C62.6755 392.673 62.8716 392.254 63.1216 391.721C63.8437 390.086 64.4265 388.394 64.8635 386.661C66.0165 382.161 66.4185 375.288 64.7145 367.122C63.7925 362.674 62.5823 358.291 61.0915 354C59.5565 349.342 57.7755 344.4 56.3205 339.058C54.6761 333.482 53.8818 327.69 53.9646 321.877C54.1856 315.8 55.9845 309.735 57.9646 303.697C59.9446 297.659 61.9805 291.738 62.5925 285.797C63.271 280.077 62.1218 274.289 59.3096 269.262C56.6916 264.437 53.3956 260.31 50.9296 256.035C48.6265 252.072 46.9291 247.786 45.8936 243.321C44.4071 236.849 44.2984 230.137 45.5746 223.621C46.0285 221.24 46.7172 218.91 47.6306 216.665C47.6031 216.822 47.5623 216.977 47.5085 217.127L47.0925 218.461C46.575 220.173 46.1484 221.911 45.8145 223.668C44.6407 230.151 44.8147 236.806 46.3256 243.218C47.3799 247.63 49.0827 251.86 51.3786 255.772C53.8386 259.995 57.1486 264.105 59.8186 268.986C62.6977 274.11 63.8812 280.014 63.1996 285.852C62.5846 291.898 60.5265 297.852 58.5565 303.889C56.5865 309.926 54.7995 315.924 54.5785 321.9C54.491 327.652 55.2662 333.384 56.8786 338.906C58.3096 344.222 60.0705 349.165 61.5855 353.836C63.063 358.153 64.2539 362.562 65.1506 367.036C66.8096 375.263 66.3365 382.207 65.1005 386.721C64.6359 388.459 64.0119 390.15 63.2365 391.773L62.5855 393.014C62.5176 393.158 62.4373 393.297 62.3456 393.427V393.427Z" fill="#455A64"/>
<path d="M54.2787 260.245C54.2787 260.245 49.2717 244.234 58.2537 234.859C58.3236 234.784 58.413 234.73 58.5118 234.703C58.6106 234.675 58.7151 234.676 58.8136 234.704C58.9121 234.733 59.0008 234.788 59.0698 234.864C59.1388 234.94 59.1855 235.033 59.2047 235.134C59.6847 237.778 60.2837 245.832 54.2787 260.245Z" fill="#0FA6AF"/>
<path d="M57.2786 240.194C57.2656 241.187 57.1523 242.177 56.9406 243.148C56.6116 245.183 56.2256 247.571 55.7986 250.21L54.6776 257.272C54.5916 258.26 54.4142 259.238 54.1476 260.194C54.0578 259.202 54.088 258.203 54.2376 257.218C54.4026 255.389 54.7256 252.872 55.1796 250.109C55.6336 247.346 56.1126 244.859 56.5046 243.067C56.6546 242.083 56.9142 241.12 57.2786 240.194V240.194Z" fill="#455A64"/>
<path d="M60.1597 298.009C60.1597 298.009 63.2227 281.515 75.5457 277.428C75.6427 277.394 75.7471 277.388 75.8474 277.411C75.9476 277.433 76.0398 277.482 76.1136 277.554C76.1874 277.625 76.2401 277.715 76.2657 277.815C76.2913 277.914 76.2889 278.019 76.2587 278.117C75.4457 280.678 72.2087 288.077 60.1597 298.009Z" fill="#0FA6AF"/>
<path d="M72.1889 281.688C71.7134 282.56 71.1508 283.382 70.5099 284.141C69.2669 285.786 67.8099 287.717 66.1969 289.849L61.8999 295.567C61.3615 296.4 60.7472 297.182 60.0649 297.902C60.4494 296.983 60.9433 296.114 61.5359 295.314C62.5359 293.774 63.9999 291.7 65.6929 289.471C67.3859 287.242 68.9739 285.271 70.1579 283.866C70.7519 283.067 71.4331 282.336 72.1889 281.688V281.688Z" fill="#455A64"/>
<path d="M56.8295 339.388C56.8295 339.388 54.9695 322.715 65.5745 315.226C65.6575 315.166 65.7556 315.129 65.8579 315.121C65.9602 315.113 66.0628 315.134 66.1542 315.18C66.2456 315.227 66.3223 315.298 66.3756 315.386C66.429 315.474 66.457 315.575 66.4565 315.677C66.4235 318.364 65.4745 326.385 56.8295 339.388Z" fill="#0FA6AF"/>
<path d="M63.5999 320.277C63.3988 321.25 63.0993 322.2 62.7059 323.112C61.9949 325.047 61.1599 327.318 60.2369 329.827C59.3139 332.336 58.4949 334.61 57.7899 336.545C57.5157 337.498 57.1549 338.425 56.7119 339.313C56.8129 338.323 57.0328 337.35 57.3669 336.413C57.8789 334.649 58.6759 332.24 59.6489 329.613C60.6219 326.986 61.5669 324.637 62.2929 322.953C62.6277 322.015 63.0661 321.117 63.5999 320.277V320.277Z" fill="#455A64"/>
<path d="M66.1127 381.009C66.1127 381.009 64.8507 364.28 75.7177 357.176C75.8027 357.119 75.902 357.086 76.0045 357.082C76.107 357.077 76.2087 357.101 76.2983 357.151C76.3879 357.201 76.4619 357.275 76.5121 357.364C76.5623 357.454 76.5868 357.555 76.5827 357.658C76.4527 360.342 75.2177 368.324 66.1127 381.009Z" fill="#0FA6AF"/>
<path d="M73.563 362.153C73.3246 363.117 72.9896 364.055 72.563 364.953L69.855 371.575L67.174 378.2C66.8679 379.144 66.4749 380.057 66 380.929C66.1372 379.942 66.3923 378.976 66.76 378.051C67.334 376.306 68.217 373.927 69.283 371.338C70.349 368.749 71.383 366.438 72.164 364.777C72.5312 363.853 73.0004 362.973 73.563 362.153Z" fill="#455A64"/>
<path d="M47.0828 246.178C47.0828 246.178 32.2128 238.412 31.9208 225.432C31.917 225.33 31.9418 225.228 31.9923 225.139C32.0429 225.049 32.1172 224.976 32.207 224.926C32.2969 224.877 32.3987 224.853 32.5012 224.858C32.6038 224.862 32.7029 224.895 32.7878 224.953C34.9998 226.481 41.1228 231.746 47.0828 246.178Z" fill="#0FA6AF"/>
<path d="M35.0088 229.891C35.7029 230.602 36.3233 231.381 36.8608 232.216L41.0538 238.016L45.2608 243.798C45.8991 244.557 46.4659 245.374 46.9538 246.237C46.1884 245.6 45.5025 244.873 44.9108 244.072C43.7328 242.662 42.1798 240.656 40.5448 238.383C38.9098 236.11 37.4878 234.014 36.4958 232.471C35.9057 231.669 35.4069 230.804 35.0088 229.891V229.891Z" fill="#455A64"/>
<path d="M63.0509 280.564C63.0509 280.564 47.7359 273.716 46.6569 260.777C46.647 260.675 46.6655 260.572 46.7105 260.48C46.7554 260.387 46.8251 260.31 46.9117 260.254C46.9983 260.199 47.0985 260.17 47.2011 260.168C47.3037 260.167 47.4047 260.193 47.4929 260.246C49.7919 261.637 56.2249 266.52 63.0509 280.564Z" fill="#0FA6AF"/>
<path d="M50.0098 265.04C50.7457 265.708 51.4124 266.448 51.9998 267.249L56.5368 272.78C58.2368 274.842 59.7758 276.707 61.0868 278.296C61.7704 279.015 62.386 279.796 62.9258 280.628C62.1227 280.039 61.3938 279.354 60.7548 278.59C59.4938 277.255 57.8208 275.347 56.0548 273.178C54.2888 271.009 52.7378 269.002 51.6548 267.522C51.0152 266.759 50.4634 265.926 50.0098 265.04V265.04Z" fill="#455A64"/>
<path d="M54.2388 318.92C54.2388 318.92 43.7238 305.848 48.6558 293.838C48.6934 293.743 48.7568 293.66 48.8388 293.598C48.9208 293.536 49.0183 293.499 49.1205 293.489C49.2226 293.48 49.3254 293.499 49.4175 293.544C49.5095 293.589 49.5871 293.659 49.6418 293.746C51.0548 296.031 54.5578 303.308 54.2388 318.92Z" fill="#0FA6AF"/>
<path d="M49.6997 299.16C50.052 300.089 50.3089 301.052 50.4667 302.033C50.9037 304.047 51.4177 306.411 51.9857 309.023L53.5237 316.006C53.8054 316.958 53.9979 317.933 54.0987 318.92C53.6549 318.03 53.3192 317.09 53.0987 316.12C52.5837 314.357 51.9637 311.896 51.3757 309.159C50.7877 306.422 50.3257 303.931 50.0347 302.12C49.8129 301.149 49.7006 300.156 49.6997 299.16Z" fill="#455A64"/>
<path d="M64.655 364.056C64.655 364.056 49.457 356.951 48.6 344C48.5917 343.898 48.6119 343.795 48.6584 343.703C48.7049 343.612 48.7759 343.535 48.8635 343.481C48.9511 343.428 49.0518 343.4 49.1544 343.4C49.2571 343.4 49.3576 343.429 49.445 343.483C51.716 344.909 58.066 349.9 64.655 364.056Z" fill="#0FA6AF"/>
<path d="M51.876 348.315C52.6008 348.995 53.2551 349.746 53.829 350.557L58.272 356.164L62.729 361.755C63.4003 362.486 64.0028 363.277 64.529 364.118C63.7359 363.515 63.0183 362.819 62.392 362.044C61.153 360.688 59.513 358.752 57.78 356.553C56.047 354.354 54.534 352.322 53.475 350.824C52.8498 350.05 52.3135 349.208 51.876 348.315V348.315Z" fill="#455A64"/>
<path d="M94.9246 298.1C94.9495 298.222 94.9559 298.347 94.9436 298.47C94.9366 298.762 94.9276 299.114 94.9176 299.542C94.8726 300.55 94.8176 301.911 94.7376 303.61C94.5376 307.186 94.2686 312.172 93.9376 318.137V318.151V318.171C92.8526 324.242 89.7606 330.971 85.6076 337.502C82.5616 342.315 79.3686 346.69 76.6146 350.759C74.1119 354.312 71.8589 358.035 69.8716 361.9C68.5693 364.523 67.5134 367.262 66.7176 370.08C66.4506 371.08 66.2496 371.863 66.1336 372.398C66.0867 372.674 66.0124 372.945 65.9116 373.206C65.9172 372.926 65.9507 372.647 66.0116 372.373C66.0876 371.829 66.2506 371.036 66.4836 370.018C67.194 367.153 68.1962 364.368 69.4746 361.707C71.4151 357.79 73.6421 354.021 76.1376 350.432C78.8726 346.332 82.0486 341.952 85.0786 337.164C89.2096 330.664 92.2856 324.038 93.4106 318.064V318.098C93.8296 312.139 94.1796 307.158 94.4306 303.585C94.5676 301.891 94.6776 300.533 94.7586 299.527C94.8016 299.101 94.8366 298.75 94.8656 298.46C94.868 298.338 94.8879 298.217 94.9246 298.1V298.1Z" fill="#455A64"/>
<path d="M85.876 336.252C85.876 336.252 92.312 320.76 84.216 310.61C84.1531 310.529 84.069 310.467 83.973 310.431C83.877 310.395 83.7729 310.386 83.6723 310.406C83.5716 310.425 83.4783 310.472 83.4027 310.541C83.3271 310.611 83.2721 310.699 83.244 310.798C82.527 313.388 81.2 321.354 85.876 336.252Z" fill="#0FA6AF"/>
<path d="M84.7 316.012C84.9787 316.967 85.1498 317.95 85.21 318.943C85.438 320.763 85.693 323.284 85.893 326.076C86.093 328.868 86.188 331.404 86.187 333.241C86.2463 334.236 86.1859 335.233 86.007 336.213C85.8282 335.237 85.7402 334.247 85.744 333.255C85.606 331.2 85.444 328.787 85.267 326.12C85.09 323.453 84.912 321.04 84.767 318.984C84.6448 317.998 84.6223 317.003 84.7 316.012V316.012Z" fill="#455A64"/>
<g opacity="0.3">
<path opacity="0.3" d="M85.876 336.252C85.876 336.252 92.312 320.76 84.216 310.61C84.1531 310.529 84.069 310.467 83.973 310.431C83.877 310.395 83.7729 310.386 83.6723 310.406C83.5716 310.425 83.4783 310.472 83.4027 310.541C83.3271 310.611 83.2721 310.699 83.244 310.798C82.527 313.388 81.2 321.354 85.876 336.252Z" fill="black"/>
</g>
<path d="M65.9408 373.585C65.9408 373.585 71.0998 357.622 62.2078 348.162C62.1384 348.086 62.0495 348.031 61.9508 348.003C61.8521 347.975 61.7476 347.974 61.6487 348.002C61.5498 348.029 61.4605 348.084 61.3906 348.159C61.3207 348.234 61.273 348.327 61.2528 348.428C60.7488 351.068 60.0728 359.115 65.9408 373.585Z" fill="#0FA6AF"/>
<path d="M63.1318 353.507C63.4871 354.436 63.7373 355.402 63.8778 356.387C64.2528 358.187 64.7108 360.674 65.1368 363.441C65.5628 366.208 65.8628 368.728 66.0108 370.559C66.1514 371.545 66.1718 372.544 66.0718 373.535C65.8158 372.577 65.6484 371.597 65.5718 370.608C65.2718 368.571 64.9118 366.179 64.5178 363.536C64.1238 360.893 63.7528 358.501 63.4428 356.463C63.2396 355.491 63.1354 354.5 63.1318 353.507V353.507Z" fill="#455A64"/>
<g opacity="0.3">
<path opacity="0.3" d="M65.9408 373.585C65.9408 373.585 71.0998 357.622 62.2078 348.162C62.1384 348.086 62.0495 348.031 61.9508 348.003C61.8521 347.975 61.7476 347.974 61.6487 348.002C61.5498 348.029 61.4605 348.084 61.3906 348.159C61.3207 348.234 61.273 348.327 61.2528 348.428C60.7488 351.068 60.0728 359.115 65.9408 373.585Z" fill="black"/>
</g>
<path d="M94.0728 317.319C94.0728 317.319 107.816 307.698 106.429 294.789C106.419 294.687 106.382 294.589 106.32 294.507C106.259 294.425 106.176 294.361 106.08 294.324C105.985 294.286 105.881 294.276 105.779 294.294C105.678 294.312 105.584 294.358 105.508 294.426C103.513 296.226 98.1198 302.238 94.0728 317.319Z" fill="#0FA6AF"/>
<g opacity="0.3">
<path opacity="0.3" d="M94.0728 317.319C94.0728 317.319 107.816 307.698 106.429 294.789C106.419 294.687 106.382 294.589 106.32 294.507C106.259 294.425 106.176 294.361 106.08 294.324C105.985 294.286 105.881 294.276 105.779 294.294C105.678 294.312 105.584 294.358 105.508 294.426C103.513 296.226 98.1198 302.238 94.0728 317.319Z" fill="black"/>
</g>
<path d="M103.943 299.609C103.666 300.564 103.283 301.486 102.801 302.356C102.017 304.015 100.879 306.279 99.5496 308.742C98.2206 311.205 96.9396 313.397 95.9496 314.942C95.4669 315.813 94.8806 316.623 94.2036 317.353C94.5762 316.433 95.0331 315.55 95.5686 314.715C96.5546 312.907 97.7136 310.785 98.9936 308.439L102.402 302.149C102.828 301.252 103.345 300.402 103.943 299.609V299.609Z" fill="#455A64"/>
<path d="M71.4829 357.759C71.4829 357.759 88.0589 355.175 92.4989 342.975C92.5354 342.879 92.5445 342.775 92.5253 342.674C92.5062 342.573 92.4594 342.48 92.3903 342.404C92.3212 342.328 92.2325 342.273 92.1339 342.244C92.0353 342.216 91.9308 342.215 91.8319 342.243C89.2479 342.981 81.7579 346 71.4829 357.759Z" fill="#0FA6AF"/>
<g opacity="0.3">
<path opacity="0.3" d="M71.4829 357.759C71.4829 357.759 88.0589 355.175 92.4989 342.975C92.5354 342.879 92.5445 342.775 92.5253 342.674C92.5062 342.573 92.4594 342.48 92.3903 342.404C92.3212 342.328 92.2325 342.273 92.1339 342.244C92.0353 342.216 91.9308 342.215 91.8319 342.243C89.2479 342.981 81.7579 346 71.4829 357.759Z" fill="black"/>
</g>
<path d="M88.1439 346.207C87.4747 346.943 86.725 347.602 85.9089 348.171C84.4739 349.314 82.4559 350.846 80.1769 352.471C77.8979 354.096 75.7839 355.501 74.2159 356.458C73.3985 357.027 72.5155 357.495 71.5859 357.853C72.3259 357.192 73.1253 356.6 73.9739 356.086L79.8129 351.96L85.6429 347.814C86.4206 347.196 87.2585 346.658 88.1439 346.207V346.207Z" fill="#455A64"/>
<path d="M51.8706 388.264L56.6246 419.45L75.6126 419.418L82.0126 388.264H51.8706Z" fill="#455A64"/>
<path d="M79.2267 400.3C79.2267 400.307 79.1777 400.346 79.0677 400.415C78.9577 400.484 78.7957 400.591 78.5677 400.701C77.8984 401.024 77.1817 401.238 76.4447 401.334C75.2708 401.489 74.077 401.374 72.9537 401C71.4395 400.523 70.1216 399.566 69.1997 398.274C68.6807 397.497 68.377 396.597 68.3197 395.665C68.2657 395.143 68.3575 394.616 68.5848 394.142C68.8122 393.669 69.1663 393.268 69.6077 392.984C70.1111 392.732 70.674 392.623 71.2349 392.67C71.7958 392.716 72.3333 392.915 72.7887 393.246C73.7348 393.937 74.3846 394.96 74.6077 396.11C74.8567 397.266 74.9362 398.453 74.8437 399.632C74.7799 400.865 74.52 402.08 74.0737 403.232C73.6078 404.442 72.8525 405.52 71.8737 406.372C70.8577 407.27 69.5728 407.807 68.2197 407.898C66.8712 407.922 65.5468 407.539 64.4197 406.798C63.3374 406.109 62.379 405.242 61.5847 404.235C60.7683 403.265 60.2673 402.07 60.1487 400.808C60.1002 400.191 60.1967 399.571 60.4306 398.998C60.6645 398.425 61.0293 397.915 61.4957 397.508C61.9763 397.151 62.5503 396.942 63.1478 396.905C63.7452 396.869 64.3404 397.007 64.8607 397.303C65.3583 397.548 65.7923 397.905 66.129 398.346C66.4657 398.787 66.6959 399.3 66.8017 399.845C66.943 400.813 66.7896 401.802 66.3616 402.682C65.9336 403.562 65.2507 404.294 64.4017 404.781C63.0012 405.539 61.3766 405.774 59.8187 405.444C58.6657 405.204 57.5612 404.772 56.5517 404.166C55.9166 403.792 55.3057 403.378 54.7227 402.927C54.5113 402.78 54.315 402.612 54.1367 402.427C54.3639 402.546 54.5807 402.684 54.7847 402.84C55.2027 403.117 55.8167 403.534 56.6507 403.987C57.6533 404.548 58.7405 404.942 59.8697 405.155C61.3545 405.441 62.8926 405.196 64.2147 404.462C64.9859 404.007 65.6039 403.332 65.9895 402.524C66.3752 401.716 66.5111 400.811 66.3797 399.926C66.2824 399.448 66.076 398.999 65.7766 398.615C65.4772 398.23 65.0929 397.919 64.6537 397.708C64.2118 397.456 63.7063 397.339 63.1988 397.37C62.6914 397.401 62.2038 397.579 61.7957 397.882C61.3924 398.243 61.0786 398.693 60.879 399.196C60.6794 399.7 60.5995 400.242 60.6457 400.782C60.7651 401.939 61.2331 403.034 61.9877 403.92C62.747 404.878 63.6617 405.702 64.6937 406.357C65.7314 407.041 66.9508 407.398 68.1937 407.381C69.4315 407.295 70.6063 406.803 71.5357 405.981C72.4524 405.185 73.161 404.177 73.5997 403.045C74.0283 401.943 74.2804 400.781 74.3467 399.601C74.4407 398.471 74.3714 397.334 74.1407 396.224C73.9506 395.186 73.3769 394.258 72.5337 393.624C72.1488 393.337 71.6929 393.16 71.2151 393.113C70.7372 393.065 70.2555 393.149 69.8217 393.355C69.4448 393.598 69.1425 393.941 68.9483 394.345C68.7542 394.749 68.6758 395.2 68.7217 395.646C68.767 396.508 69.038 397.344 69.5077 398.069C70.3733 399.309 71.6142 400.239 73.0477 400.721C74.1291 401.101 75.2813 401.238 76.4217 401.121C77.3957 401.004 78.3436 400.727 79.2267 400.3Z" fill="#455A64"/>
</svg>
