<svg width="750" height="500" fill="none" xmlns="http://www.w3.org/2000/svg"><path d="M107.682 197.316l112.201-75.055L330.4 287.475 218.199 362.53 107.682 197.316z" fill="#F5F5F5"/><path d="M272.42 279.66l-1.27 7.88-55.78-8.04 1.27-7.88 55.78 8.04z" fill="#E0E0E0"/><path d="M244.33 251.55l8 1.15-8.87 54.92-8.01-1.16 8.88-54.91zM193 181.75c.08.11-11.16 7.78-25.11 17.1s-25.32 16.8-25.4 16.68c-.08-.12 11.16-7.78 25.11-17.11 13.95-9.33 25.27-16.79 25.4-16.67zm41.22-10.36c.08.12-18.62 12.76-41.76 28.24-23.14 15.48-42 27.93-42.06 27.82-.06-.11 18.6-12.77 41.77-28.25s41.97-27.93 42.05-27.81zm8.27 12.36c.08.12-18.62 12.77-41.76 28.25-23.14 15.48-42 27.93-42.06 27.81-.06-.12 18.62-12.76 41.77-28.25 23.15-15.49 41.97-27.93 42.05-27.81zm8.27 12.37c.08.12-18.62 12.77-41.76 28.24-23.14 15.47-42 27.94-42 27.82 0-.12 18.61-12.77 41.76-28.25s41.92-27.93 42-27.81zm8.24 12.37c.08.12-18.62 12.76-41.76 28.24-23.14 15.48-42 27.93-42.05 27.81-.05-.12 18.64-12.76 41.81-28.24 23.17-15.48 42-27.93 42-27.81z" fill="#E0E0E0"/><path d="M500.839 295.999l94.23-63.034 92.814 138.748-94.23 63.035-92.814-138.749z" fill="#F5F5F5"/><path d="M639.2 365.18l-1.07 6.62-46.85-6.75 1.08-6.62 46.84 6.75z" fill="#E0E0E0"/><path d="M615.61 341.57l6.72.97-7.45 46.12-6.73-.97 7.46-46.12zM572.46 283c.08.12-9.35 6.57-21.07 14.4s-21.28 14.09-21.36 14c-.08-.09 9.36-6.56 21.07-14.4 11.71-7.84 21.28-14.17 21.36-14zm34.65-8.75c.08.12-15.61 10.76-35 23.75s-35.26 23.45-35.34 23.33c-.08-.12 15.61-10.76 35-23.76 19.39-13 35.23-23.44 35.34-23.32zm6.95 10.38c.08.12-15.61 10.76-35 23.76-19.39 13-35.26 23.44-35.34 23.32-.08-.12 15.56-10.71 35-23.71 19.44-13 35.28-23.48 35.34-23.37zM621 295c.08.12-15.62 10.76-35 23.76-19.38 13-35.26 23.44-35.34 23.32-.08-.12 15.61-10.75 35-23.76C605.05 305.31 620.93 294.9 621 295zm7 10.41c.08.12-15.61 10.75-35 23.75s-35.26 23.44-35.34 23.33c-.08-.11 15.61-10.76 35-23.76 19.39-13 35.21-23.44 35.34-23.32z" fill="#E0E0E0"/><path d="M343.174 73.348l102.817 54.991-80.973 151.396L262.2 224.744l80.974-151.396z" fill="#F5F5F5"/><path d="M347.42 232.37l-6.52 2.23-16.56-45.77 6.52-2.24 16.56 45.78z" fill="#E0E0E0"/><path d="M357.42 199.53l2.38 6.57-45.46 15.57-2.38-6.57 45.46-15.57zm32.3-67.53c-.08.15-10.5-5.27-23.29-12.1s-23.08-12.5-23-12.65c.08-.15 10.51 5.27 23.3 12.1 12.79 6.83 23.07 12.49 22.99 12.65zm24.68 27.23c-.08.15-17.34-8.93-38.55-20.27-21.21-11.34-38.33-20.66-38.25-20.81.08-.15 17.33 8.92 38.54 20.27s38.34 20.66 38.26 20.81zm-6.06 11.33c-.08.15-17.34-8.92-38.55-20.26-21.21-11.34-38.33-20.67-38.25-20.82.08-.15 17.33 8.93 38.54 20.27s38.34 20.66 38.26 20.81zm-6.06 11.33c-.08.15-17.34-8.92-38.55-20.26-21.21-11.34-38.33-20.63-38.25-20.81.08-.18 17.33 8.92 38.54 20.26 21.21 11.34 38.34 20.66 38.26 20.81zm-6.06 11.33c-.08.15-17.34-8.92-38.55-20.26-21.21-11.34-38.34-20.66-38.25-20.81.09-.15 17.33 8.92 38.54 20.26 21.21 11.34 38.34 20.66 38.26 20.81z" fill="#E0E0E0"/><path d="M663.67 439.83c0 .14-129.25.26-288.66.26-159.41 0-288.68-.09-288.68-.26s129.23-.26 288.68-.26c159.45 0 288.66.11 288.66.26z" fill="#263238"/><path d="M118.29 377.2a12.625 12.625 0 018.78 4.5 22.156 22.156 0 014.47 9c1.69 6.32.65 13.79-1.15 20.08-6.84-2.45-11.07-9.75-13-13.59-3-6.06-4.79-18.86.87-20l.03.01zm21.95 41.25a10.744 10.744 0 01-.5-10.78 14.256 14.256 0 018.6-6.91c1.67-.52 3.61-.73 5.06.24a4.576 4.576 0 011.77 4.31 9.273 9.273 0 01-2 4.42c-3.33 4.51-7.37 8.26-13 8.72" fill="#0FA6AF"/><path d="M141 439.58a6.486 6.486 0 01-.31-1.31c-.18-.94-.42-2.15-.71-3.6a37.745 37.745 0 01-.74-12.11 22.989 22.989 0 014.49-11.21 15.312 15.312 0 012.59-2.63c.262-.208.536-.402.82-.58.09-.075.191-.136.3-.18a25.35 25.35 0 00-3.45 3.59 23.847 23.847 0 00-4.28 11.08c-.64 4.66.15 8.93.61 12 .24 1.53.44 2.77.55 3.63.079.436.122.877.13 1.32z" fill="#263238"/><path d="M120.49 386.83c.114.158.208.329.28.51.18.4.42.9.7 1.53.61 1.33 1.46 3.26 2.49 5.65a584.65 584.65 0 017.7 18.87c2.88 7.42 5.33 14.19 7 19.12.86 2.46 1.53 4.46 2 5.85.21.66.37 1.19.5 1.6.071.184.122.375.15.57a2.485 2.485 0 01-.24-.54c-.15-.4-.34-.92-.59-1.57l-2.11-5.8c-1.79-4.89-4.29-11.65-7.16-19.06-2.87-7.41-5.59-14.09-7.57-18.91-1-2.37-1.77-4.3-2.34-5.71-.26-.64-.47-1.15-.63-1.56a3.536 3.536 0 01-.18-.55z" fill="#263238"/><path d="M132.87 425.601a25.174 25.174 0 00-8.296-8.422 25.17 25.17 0 00-11.224-3.709c-2-.14-4.46.2-5.36 2-.9 1.8.3 4 1.68 5.46a21.488 21.488 0 0023.27 5.2" fill="#0FA6AF"/><path d="M116.43 418.891a7.094 7.094 0 011.27.05 11.9 11.9 0 011.47.17c.57.11 1.24.17 1.94.37.782.165 1.554.379 2.31.64.876.281 1.734.615 2.57 1a27.792 27.792 0 015.42 3.21 27.31 27.31 0 014.48 4.44 22.296 22.296 0 011.57 2.25c.431.674.825 1.372 1.18 2.09.3.584.568 1.185.8 1.8.2.455.371.922.51 1.4.148.398.259.81.33 1.23-.11 0-.59-1.72-1.94-4.28a22.048 22.048 0 00-1.21-2 25.18 25.18 0 00-1.58-2.19 26.637 26.637 0 00-9.74-7.52c-.87-.38-1.7-.74-2.51-1a21.662 21.662 0 00-2.27-.69c-2.8-.77-4.61-.86-4.6-.97z" fill="#263238"/><path d="M299 234.54l-35.4 181.8-4.6 23.8L495 439c10.6-.05 20-9.46 23.39-23.44l41.86-171.63c2.59-10.61-3.09-21.65-11.13-21.64l-238.92.25c-5.2-.01-9.86 4.91-11.2 12z" fill="#0FA6AF"/><path d="M299 234.54l-35.4 181.8-4.6 23.8L495 439c10.6-.05 20-9.46 23.39-23.44l41.86-171.63c2.59-10.61-3.09-21.65-11.13-21.64l-238.92.25c-5.2-.01-9.86 4.91-11.2 12z" fill="#38557D"/><path d="M472.39 404l-25-201.41c-1-8.25-7.59-14.41-15.36-14.38l-54.8.17a15.003 15.003 0 00-10.83 4.8l-26 27.67-152.4.82c-9.31.05-16.47 8.87-15.24 18.77l23.21 186.15c1 8.24 7.59 14.39 15.34 14.38l265.65-.53c29.58.61 32.41-8.12 32.41-8.12-33.96 7.51-36.98-28.27-36.98-28.32z" fill="#0FA6AF"/><g opacity=".5" fill="#fff"><path opacity=".5" d="M357.84 363.72l-8.96 9.62-69-62.08 8.96-9.62 69 62.08z"/><path opacity=".5" d="M345.13 299.51l9.9 8.91-62.43 67.05-9.91-8.91 62.44-67.05z"/></g></svg>