<svg width="514" height="362" viewBox="0 0 514 362" fill="none" xmlns="http://www.w3.org/2000/svg">
<g clip-path="url(#clip0)">
<path d="M113.898 36.2619H81.1191C77.9677 36.2648 74.9463 37.5172 72.7179 39.7443C70.4896 41.9714 69.2365 44.9912 69.2336 48.1408V83.6588C68.8145 83.6337 68.3955 83.5962 67.9825 83.5462C60.2169 82.7297 52.834 79.7611 46.6661 74.9753C40.4983 70.1895 35.7908 63.7768 33.0744 56.4601C30.358 49.1434 29.7407 41.2138 31.2922 33.5653C32.8436 25.9167 36.5021 18.8535 41.8552 13.1718C47.2082 7.49022 54.0429 3.41617 61.5887 1.40905C69.1345 -0.598072 77.0912 -0.458455 84.5619 1.81217C92.0325 4.08279 98.7199 8.39412 103.87 14.2601C109.02 20.126 112.428 27.3133 113.71 35.0115C113.779 35.4241 113.842 35.843 113.898 36.2619Z" fill="#052B5D"/>
<path d="M500.863 35.0115H81.119C77.6361 35.0153 74.297 36.3998 71.8342 38.8612C69.3715 41.3226 67.9862 44.6598 67.9824 48.1408V269.464C67.9862 272.945 69.3715 276.282 71.8342 278.743C74.297 281.205 77.6361 282.589 81.119 282.593H500.863C504.346 282.589 507.685 281.205 510.148 278.743C512.611 276.282 513.996 272.945 514 269.464V48.1408C513.996 44.6598 512.611 41.3226 510.148 38.8612C507.685 36.3998 504.346 35.0153 500.863 35.0115ZM512.749 269.464C512.746 272.613 511.493 275.633 509.264 277.86C507.036 280.087 504.015 281.34 500.863 281.342H81.119C77.9676 281.34 74.9462 280.087 72.7178 277.86C70.4895 275.633 69.2364 272.613 69.2335 269.464V48.1408C69.2364 44.9912 70.4895 41.9714 72.7178 39.7443C74.9462 37.5172 77.9676 36.2647 81.119 36.2619H500.863C504.015 36.2647 507.036 37.5172 509.264 39.7443C511.493 41.9714 512.746 44.9912 512.749 48.1408V269.464Z" fill="#052B5D"/>
<path d="M480.22 70.8793H101.762C101.596 70.8793 101.437 70.8135 101.32 70.6962C101.203 70.579 101.137 70.4199 101.137 70.2541C101.137 70.0883 101.203 69.9293 101.32 69.812C101.437 69.6948 101.596 69.6289 101.762 69.6289H480.22C480.386 69.6289 480.545 69.6948 480.663 69.812C480.78 69.9293 480.846 70.0883 480.846 70.2541C480.846 70.4199 480.78 70.579 480.663 70.6962C480.545 70.8135 480.386 70.8793 480.22 70.8793Z" fill="#052B5D"/>
<path d="M208.732 255.709C208.566 255.709 208.406 255.643 208.289 255.526C208.172 255.409 208.106 255.25 208.106 255.084V49.3913C208.106 49.2255 208.172 49.0665 208.289 48.9492C208.406 48.832 208.566 48.7661 208.732 48.7661C208.897 48.7661 209.057 48.832 209.174 48.9492C209.291 49.0665 209.357 49.2255 209.357 49.3913V255.084C209.357 255.25 209.291 255.409 209.174 255.526C209.057 255.643 208.897 255.709 208.732 255.709Z" fill="#052B5D"/>
<path d="M303.19 255.709C303.024 255.709 302.865 255.643 302.747 255.526C302.63 255.409 302.564 255.25 302.564 255.084V49.3913C302.564 49.2255 302.63 49.0665 302.747 48.9492C302.865 48.832 303.024 48.7661 303.19 48.7661C303.355 48.7661 303.515 48.832 303.632 48.9492C303.749 49.0665 303.815 49.2255 303.815 49.3913V255.084C303.815 255.25 303.749 255.409 303.632 255.526C303.515 255.643 303.355 255.709 303.19 255.709Z" fill="#052B5D"/>
<path d="M397.648 255.709C397.482 255.709 397.323 255.643 397.205 255.526C397.088 255.409 397.022 255.25 397.022 255.084V49.3913C397.022 49.2255 397.088 49.0665 397.205 48.9492C397.323 48.832 397.482 48.7661 397.648 48.7661C397.813 48.7661 397.973 48.832 398.09 48.9492C398.207 49.0665 398.273 49.2255 398.273 49.3913V255.084C398.273 255.25 398.207 255.409 398.09 255.526C397.973 255.643 397.813 255.709 397.648 255.709Z" fill="#052B5D"/>
<path d="M148 135.412H125.143C124.396 135.411 123.681 135.114 123.153 134.587C122.625 134.059 122.328 133.344 122.328 132.598V105.64C122.328 104.894 122.625 104.179 123.153 103.651C123.681 103.124 124.396 102.827 125.143 102.826H148C148.747 102.827 149.462 103.124 149.99 103.651C150.518 104.179 150.814 104.894 150.815 105.64V132.598C150.814 133.344 150.518 134.059 149.99 134.587C149.462 135.114 148.747 135.411 148 135.412Z" fill="#00C2CB"/>
<path d="M180.529 212.312H157.671C156.925 212.311 156.21 212.014 155.682 211.487C155.154 210.96 154.857 210.244 154.856 209.499V182.54C154.857 181.794 155.154 181.079 155.682 180.551C156.21 180.024 156.925 179.727 157.671 179.727H180.529C181.275 179.727 181.991 180.024 182.519 180.551C183.046 181.079 183.343 181.794 183.344 182.54V209.499C183.343 210.245 183.046 210.96 182.519 211.487C181.991 212.014 181.275 212.311 180.529 212.312Z" fill="#00C2CB"/>
<path d="M254.344 151.667H231.486C230.74 151.666 230.025 151.369 229.497 150.842C228.969 150.315 228.672 149.599 228.671 148.854V121.895C228.672 121.149 228.969 120.434 229.497 119.906C230.025 119.379 230.74 119.082 231.486 119.082H254.344C255.09 119.082 255.806 119.379 256.334 119.906C256.861 120.434 257.158 121.149 257.159 121.895V148.854C257.158 149.6 256.861 150.315 256.334 150.842C255.806 151.369 255.09 151.666 254.344 151.667Z" fill="#00C2CB"/>
<path d="M350.053 122.282H327.195C326.449 122.281 325.733 121.985 325.206 121.457C324.678 120.93 324.381 120.215 324.38 119.469V92.5102C324.381 91.7643 324.678 91.0492 325.206 90.5217C325.733 89.9943 326.449 89.6976 327.195 89.6968H350.053C350.799 89.6976 351.515 89.9943 352.042 90.5217C352.57 91.0492 352.867 91.7643 352.868 92.5102V119.469C352.867 120.215 352.57 120.93 352.042 121.457C351.515 121.985 350.799 122.281 350.053 122.282Z" fill="#00C2CB"/>
<path d="M438.256 122.282H415.398C414.652 122.281 413.936 121.985 413.408 121.457C412.881 120.93 412.584 120.215 412.583 119.469V92.5102C412.584 91.7643 412.881 91.0492 413.408 90.5217C413.936 89.9943 414.652 89.6976 415.398 89.6968H438.256C439.002 89.6976 439.717 89.9943 440.245 90.5217C440.773 91.0492 441.07 91.7643 441.071 92.5102V119.469C441.07 120.215 440.773 120.93 440.245 121.457C439.717 121.985 439.002 122.281 438.256 122.282Z" fill="#00C2CB"/>
<path d="M478.917 129.785H456.059C455.313 129.784 454.597 129.487 454.07 128.96C453.542 128.432 453.245 127.717 453.244 126.971V100.013C453.245 99.2667 453.542 98.5516 454.07 98.0242C454.597 97.4967 455.313 97.2001 456.059 97.1992H478.917C479.663 97.2001 480.379 97.4967 480.906 98.0242C481.434 98.5516 481.731 99.2667 481.732 100.013V126.971C481.731 127.717 481.434 128.432 480.906 128.96C480.379 129.487 479.663 129.784 478.917 129.785Z" fill="#FFBD59"/>
<path d="M460.776 177.926H437.918C437.172 177.925 436.456 177.628 435.928 177.101C435.401 176.573 435.104 175.858 435.103 175.112V148.154C435.104 147.408 435.401 146.692 435.928 146.165C436.456 145.638 437.172 145.341 437.918 145.34H460.776C461.522 145.341 462.237 145.638 462.765 146.165C463.293 146.692 463.59 147.408 463.591 148.154V175.112C463.59 175.858 463.293 176.573 462.765 177.101C462.237 177.628 461.522 177.925 460.776 177.926Z" fill="#FFBD59"/>
<path d="M383.207 167.922H360.35C359.603 167.922 358.888 167.625 358.36 167.097C357.832 166.57 357.536 165.855 357.535 165.109V138.15C357.536 137.404 357.832 136.689 358.36 136.162C358.888 135.634 359.603 135.338 360.35 135.337H383.207C383.954 135.338 384.669 135.634 385.197 136.162C385.725 136.689 386.021 137.404 386.022 138.15V165.109C386.021 165.855 385.725 166.57 385.197 167.097C384.669 167.625 383.954 167.922 383.207 167.922Z" fill="#FF6584"/>
<path d="M338.793 177.926H315.936C315.189 177.925 314.474 177.628 313.946 177.101C313.418 176.573 313.121 175.858 313.121 175.112V148.154C313.121 147.408 313.418 146.692 313.946 146.165C314.474 145.638 315.189 145.341 315.936 145.34H338.793C339.539 145.341 340.255 145.638 340.783 146.165C341.31 146.692 341.607 147.408 341.608 148.154V175.112C341.607 175.858 341.31 176.573 340.783 177.101C340.255 177.628 339.539 177.925 338.793 177.926Z" fill="#FFBD59"/>
<path d="M243.084 220.439H220.226C219.48 220.439 218.764 220.142 218.237 219.615C217.709 219.087 217.412 218.372 217.411 217.626V190.667C217.412 189.922 217.709 189.206 218.237 188.679C218.764 188.152 219.48 187.855 220.226 187.854H243.084C243.83 187.855 244.546 188.152 245.073 188.679C245.601 189.206 245.898 189.922 245.899 190.667V217.626C245.898 218.372 245.601 219.087 245.073 219.615C244.546 220.142 243.83 220.439 243.084 220.439Z" fill="#FFBD59"/>
<path d="M127.357 184.803H104.5C103.753 184.802 103.038 184.505 102.51 183.978C101.982 183.45 101.685 182.735 101.685 181.989V155.031C101.685 154.285 101.982 153.57 102.51 153.042C103.038 152.515 103.753 152.218 104.5 152.217H127.357C128.103 152.218 128.819 152.515 129.347 153.042C129.874 153.57 130.171 154.285 130.172 155.031V181.989C130.171 182.735 129.874 183.45 129.347 183.978C128.819 184.505 128.103 184.802 127.357 184.803Z" fill="#FF6584"/>
<path d="M191.789 135.412H168.931C168.185 135.411 167.469 135.114 166.942 134.587C166.414 134.059 166.117 133.344 166.116 132.598V105.64C166.117 104.894 166.414 104.179 166.942 103.651C167.469 103.124 168.185 102.827 168.931 102.826H191.789C192.535 102.827 193.251 103.124 193.778 103.651C194.306 104.179 194.603 104.894 194.604 105.64V132.598C194.603 133.344 194.306 134.059 193.778 134.587C193.251 135.114 192.535 135.411 191.789 135.412Z" fill="#FFBD59"/>
<path d="M173.075 60.645H137.419C136.755 60.645 136.119 60.3815 135.649 59.9125C135.18 59.4435 134.917 58.8074 134.917 58.1441C134.917 57.4809 135.18 56.8448 135.649 56.3758C136.119 55.9068 136.755 55.6433 137.419 55.6433H173.075C173.739 55.6433 174.375 55.9068 174.844 56.3758C175.314 56.8448 175.577 57.4809 175.577 58.1441C175.577 58.8074 175.314 59.4435 174.844 59.9125C174.375 60.3815 173.739 60.645 173.075 60.645Z" fill="#FFBD59"/>
<path d="M273.788 60.645H238.132C237.468 60.645 236.832 60.3815 236.363 59.9125C235.894 59.4435 235.63 58.8074 235.63 58.1441C235.63 57.4809 235.894 56.8448 236.363 56.3758C236.832 55.9068 237.468 55.6433 238.132 55.6433H273.788C274.452 55.6433 275.089 55.9068 275.558 56.3758C276.027 56.8448 276.291 57.4809 276.291 58.1441C276.291 58.8074 276.027 59.4435 275.558 59.9125C275.089 60.3815 274.452 60.645 273.788 60.645Z" fill="#FFBD59"/>
<path d="M368.247 60.645H332.591C331.927 60.645 331.291 60.3815 330.821 59.9125C330.352 59.4435 330.088 58.8074 330.088 58.1441C330.088 57.4809 330.352 56.8448 330.821 56.3758C331.291 55.9068 331.927 55.6433 332.591 55.6433H368.247C368.911 55.6433 369.547 55.9068 370.016 56.3758C370.486 56.8448 370.749 57.4809 370.749 58.1441C370.749 58.8074 370.486 59.4435 370.016 59.9125C369.547 60.3815 368.911 60.645 368.247 60.645Z" fill="#FFBD59"/>
<path d="M456.45 60.645H420.793C420.13 60.645 419.493 60.3815 419.024 59.9125C418.555 59.4435 418.291 58.8074 418.291 58.1441C418.291 57.4809 418.555 56.8448 419.024 56.3758C419.493 55.9068 420.13 55.6433 420.793 55.6433H456.45C457.113 55.6433 457.75 55.9068 458.219 56.3758C458.688 56.8448 458.952 57.4809 458.952 58.1441C458.952 58.8074 458.688 59.4435 458.219 59.9125C457.75 60.3815 457.113 60.645 456.45 60.645Z" fill="#FFBD59"/>
<path d="M93.2128 243.762C92.2976 243.673 91.4131 243.383 90.6218 242.915C89.8304 242.447 89.1513 241.811 88.6325 241.052C88.1136 240.294 87.7675 239.43 87.6186 238.523C87.4697 237.616 87.5215 236.688 87.7705 235.803L71.7358 220.885L80.2138 218.735L95.9812 231.517C97.4407 232.033 98.6599 233.067 99.4077 234.422C100.156 235.777 100.38 237.359 100.039 238.868C99.6977 240.378 98.8143 241.71 97.5562 242.612C96.2981 243.514 94.7527 243.923 93.2128 243.762Z" fill="#FFB8B8"/>
<path d="M115.354 354.024H123.023L126.671 324.46H115.353L115.354 354.024Z" fill="#FFB8B8"/>
<path d="M137.814 361.141L113.711 361.142L113.711 351.835L128.501 351.834C130.971 351.834 133.34 352.814 135.086 354.56C136.833 356.305 137.814 358.672 137.814 361.141Z" fill="#052B5D"/>
<path d="M62.771 348.49L70.1825 350.462L81.3179 322.831L70.3802 319.921L62.771 348.49Z" fill="#FFB8B8"/>
<path d="M82.6431 361.143L59.3512 354.947L61.7466 345.953L76.0393 349.755C78.426 350.39 80.4626 351.947 81.7011 354.082C82.9395 356.218 83.2784 358.758 82.6431 361.143Z" fill="#052B5D"/>
<path d="M125.086 348.427H113.383C112.644 348.43 111.931 348.155 111.383 347.659C110.836 347.162 110.495 346.479 110.427 345.743L103.323 272.011C103.271 271.471 103.032 270.965 102.648 270.58C102.264 270.196 101.758 269.957 101.217 269.904C100.676 269.851 100.133 269.988 99.6821 270.291C99.2308 270.594 98.8988 271.044 98.7431 271.565L78.1165 340.462C77.8984 341.194 77.4058 341.814 76.7414 342.192C76.0771 342.57 75.2924 342.677 74.5509 342.491L63.6644 339.771C63.2844 339.676 62.927 339.507 62.6127 339.273C62.2984 339.04 62.0334 338.746 61.8329 338.41C61.6325 338.074 61.5006 337.701 61.4448 337.314C61.389 336.926 61.4105 336.532 61.5079 336.152C61.6857 335.458 79.2803 266.737 79.4339 266.03C83.4204 236.666 88.1898 228.797 90.752 224.57C90.9641 224.22 91.159 223.899 91.3345 223.595C91.5541 223.214 92.9061 219.44 93.7638 216.99C93.8752 216.591 94.0681 216.22 94.3303 215.899C94.5924 215.579 94.9182 215.316 95.2871 215.128C106.053 209.625 118.65 213.434 122.254 214.733C122.852 214.943 123.365 215.342 123.717 215.868C134.529 232.168 129.223 326.837 128.049 345.649C128 346.402 127.667 347.107 127.117 347.623C126.566 348.139 125.84 348.426 125.086 348.427Z" fill="#052B5D"/>
<path d="M94.8861 161.669C103.372 161.669 110.25 154.794 110.25 146.313C110.25 137.833 103.372 130.958 94.8861 130.958C86.4007 130.958 79.522 137.833 79.522 146.313C79.522 154.794 86.4007 161.669 94.8861 161.669Z" fill="#FFB8B8"/>
<path d="M93.258 219.971L93.1476 219.864C92.9405 219.664 72.4696 199.62 75.1189 181.086C76.2519 173.159 82.6695 168.094 93.6776 166.437C97.7217 165.837 101.847 166.716 105.294 168.912C108.742 171.108 111.281 174.474 112.444 178.392L123.328 215.582L93.258 219.971Z" fill="#CCCCCC"/>
<path d="M82.7807 234.227L68.1939 219.741C67.1965 218.745 66.4724 217.509 66.0912 216.152C65.71 214.795 65.6845 213.363 66.0172 211.994L73.0787 183.285C73.2903 182.425 73.6762 181.617 74.2126 180.912C74.7491 180.206 75.4247 179.619 76.1975 179.185C76.9704 178.751 77.8241 178.481 78.7058 178.39C79.5875 178.3 80.4784 178.391 81.3234 178.658C82.9341 179.177 84.2794 180.302 85.0745 181.795C85.8695 183.288 86.0519 185.032 85.5829 186.657L78.1485 211.913L90.1705 224.815L82.7807 234.227Z" fill="#CCCCCC"/>
<path d="M161.019 184.787C160.634 185.622 160.07 186.361 159.367 186.954C158.664 187.547 157.84 187.979 156.952 188.219C156.065 188.459 155.135 188.502 154.229 188.344C153.323 188.186 152.463 187.832 151.709 187.306L132.236 197.393L133.097 188.824L150.36 178.147C151.328 176.939 152.706 176.128 154.232 175.868C155.758 175.608 157.327 175.916 158.641 176.735C159.955 177.553 160.923 178.825 161.361 180.309C161.799 181.793 161.678 183.387 161.019 184.787H161.019Z" fill="#FFB8B8"/>
<path d="M149.582 191.166L130.599 199.364C129.336 199.906 127.954 200.113 126.587 199.967C125.22 199.82 123.914 199.325 122.794 198.528L98.6548 181.241C97.9344 180.725 97.3276 180.067 96.8719 179.307C96.4162 178.548 96.1214 177.702 96.0056 176.824C95.8899 175.946 95.9558 175.053 96.1991 174.201C96.4424 173.35 96.8581 172.557 97.4203 171.872C98.5007 170.57 100.046 169.74 101.728 169.557C103.411 169.374 105.098 169.853 106.434 170.892L127.132 187.173L143.584 180.812L149.582 191.166Z" fill="#CCCCCC"/>
<path d="M97.4332 151.234C99.3286 148.86 102.87 148.733 105.473 147.167C108.884 145.116 110.294 140.533 109.195 136.71C108.096 132.887 104.855 129.907 101.139 128.482C97.4226 127.057 93.2883 127.039 89.3683 127.728C83.5317 128.754 77.7855 131.476 74.2258 136.212C70.6662 140.947 69.7603 147.882 72.9863 152.85C74.469 155.133 76.7579 157.018 77.3499 159.675C78.127 163.164 75.6787 166.528 73.0559 168.957C70.0678 171.724 66.6397 174.042 64.0218 177.162C61.4039 180.281 59.6582 184.543 60.8527 188.435C61.8536 191.697 64.7661 194.099 67.9599 195.303C71.1537 196.506 74.6321 196.68 78.0445 196.747C81.3582 196.811 84.8778 196.731 87.6693 194.945C90.6576 193.033 92.2532 189.407 92.3711 185.863C92.4889 182.319 91.304 178.846 89.7158 175.675C88.7692 173.785 87.6686 171.954 87.0396 169.936C86.4106 167.918 86.3016 165.628 87.309 163.769C88.3678 161.816 90.51 160.638 92.6913 160.209C92.8046 160.187 92.9245 160.167 93.0499 160.15C93.6705 160.069 94.2684 159.864 94.8073 159.546C95.3463 159.228 95.815 158.804 96.1854 158.3C96.5557 157.795 96.8199 157.221 96.9619 156.612C97.1039 156.003 97.1209 155.371 97.0117 154.756C96.7632 153.371 96.7847 152.046 97.4332 151.234Z" fill="#052B5D"/>
<path d="M302.284 354.679H294.615L290.967 325.115L302.286 325.115L302.284 354.679Z" fill="#A0616A"/>
<path d="M289.137 352.489H303.927V361.796H279.824C279.824 360.574 280.065 359.364 280.533 358.234C281.001 357.105 281.687 356.079 282.552 355.215C283.417 354.351 284.443 353.665 285.573 353.197C286.703 352.73 287.914 352.489 289.137 352.489Z" fill="#052B5D"/>
<path d="M357.93 345.997L350.954 349.181L335.344 323.805L345.64 319.104L357.93 345.997Z" fill="#A0616A"/>
<path d="M345.061 349.464L358.515 343.322L362.384 351.788L340.459 361.797C339.951 360.685 339.667 359.484 339.624 358.263C339.58 357.041 339.777 355.823 340.205 354.678C340.632 353.533 341.281 352.483 342.114 351.588C342.947 350.694 343.949 349.972 345.061 349.464Z" fill="#052B5D"/>
<path d="M335.596 254.994C336.331 254.442 336.936 253.735 337.367 252.923C337.799 252.112 338.048 251.216 338.096 250.298C338.143 249.38 337.989 248.463 337.644 247.611C337.299 246.759 336.771 245.993 336.097 245.367L345.112 224.923L333.66 226.863L326.854 245.98C325.877 247.18 325.375 248.697 325.442 250.243C325.509 251.789 326.141 253.257 327.219 254.368C328.297 255.479 329.744 256.156 331.288 256.272C332.832 256.388 334.365 255.933 335.596 254.994Z" fill="#A0616A"/>
<path d="M301.795 346.884H294.469C293.758 346.881 293.075 346.611 292.554 346.128C292.034 345.644 291.715 344.982 291.661 344.274L287.666 237.64C287.636 237.231 287.696 236.821 287.841 236.438C287.987 236.055 288.214 235.708 288.507 235.422C288.801 235.136 289.153 234.918 289.54 234.782C289.927 234.646 290.339 234.596 290.747 234.636L333.118 239.133C333.805 239.201 334.443 239.517 334.912 240.024C335.38 240.53 335.646 241.191 335.659 241.88L336.547 288.918C336.552 289.173 336.602 289.426 336.694 289.664L354.075 334.712C354.209 335.06 354.273 335.431 354.262 335.804C354.251 336.177 354.167 336.544 354.013 336.884C353.859 337.223 353.639 337.529 353.366 337.783C353.093 338.037 352.771 338.235 352.421 338.363L344.997 341.097C344.352 341.335 343.643 341.328 343.002 341.079C342.362 340.83 341.835 340.355 341.521 339.745L320.169 298.25C320.053 298.025 319.967 297.784 319.916 297.536L316.269 279.971C316.163 279.462 315.879 279.007 315.468 278.688C315.057 278.369 314.546 278.207 314.026 278.23C313.506 278.254 313.011 278.462 312.631 278.816C312.251 279.171 312.009 279.65 311.95 280.167L304.592 344.39C304.513 345.077 304.185 345.71 303.669 346.17C303.153 346.63 302.486 346.884 301.795 346.884Z" fill="#052B5D"/>
<path d="M305.443 154.262C313.929 154.262 320.807 147.387 320.807 138.907C320.807 130.426 313.929 123.551 305.443 123.551C296.958 123.551 290.079 130.426 290.079 138.907C290.079 147.387 296.958 154.262 305.443 154.262Z" fill="#A0616A"/>
<path d="M315.98 247.39C305.561 247.276 295.39 244.196 286.659 238.513L286.509 238.41L286.525 238.229L292.402 169.822C292.604 167.501 293.641 165.332 295.32 163.716C296.998 162.1 299.206 161.146 301.534 161.03C309.151 160.681 319.382 161.122 324.858 165.198C333.135 171.359 337.124 180.637 335.803 190.652C333.063 211.421 336.167 239.436 336.53 242.562L336.556 242.788L336.35 242.882C329.969 245.849 323.017 247.388 315.98 247.39Z" fill="#00C2CB"/>
<path d="M336.459 242.678C336.026 242.678 335.597 242.587 335.201 242.413C334.805 242.238 334.449 241.983 334.156 241.664L330.795 238C330.432 237.602 330.178 237.117 330.056 236.592C329.935 236.067 329.95 235.519 330.102 235.002L337.765 209.079L326.105 184.606C325.56 183.46 325.427 182.162 325.727 180.93C325.992 179.848 326.578 178.872 327.409 178.13C328.24 177.389 329.277 176.916 330.382 176.775C331.487 176.634 332.609 176.831 333.6 177.34C334.591 177.849 335.404 178.647 335.932 179.627L351.755 205.287C352.398 206.328 352.775 207.51 352.853 208.731C352.932 209.952 352.709 211.173 352.205 212.288L339.313 240.838C339.101 241.31 338.774 241.722 338.363 242.036C337.951 242.35 337.468 242.557 336.957 242.638C336.792 242.665 336.626 242.678 336.459 242.678Z" fill="#00C2CB"/>
<path d="M228.162 193.159C228.9 193.707 229.749 194.088 230.65 194.273C231.551 194.458 232.481 194.443 233.376 194.23C234.27 194.016 235.107 193.61 235.827 193.038C236.547 192.467 237.134 191.744 237.544 190.922L259.713 193.796L254.618 183.362L234.348 182.233C232.92 181.635 231.322 181.581 229.857 182.082C228.392 182.583 227.162 183.603 226.399 184.95C225.637 186.297 225.395 187.876 225.72 189.389C226.045 190.902 226.914 192.243 228.162 193.159V193.159Z" fill="#A0616A"/>
<path d="M277.025 198.857C276.639 198.857 276.253 198.83 275.871 198.777L240.996 193.943C240.426 193.865 239.884 193.646 239.42 193.306C238.956 192.967 238.584 192.517 238.337 191.998C238.257 191.831 238.19 191.657 238.138 191.48H238.138C238.003 191.018 237.965 190.533 238.027 190.056C238.089 189.58 238.249 189.121 238.497 188.709L241.383 183.927C241.694 183.416 242.131 182.993 242.651 182.699C243.172 182.405 243.76 182.249 244.358 182.247H244.363L274.762 182.282L297.466 161.952C298.522 161.009 299.871 160.457 301.286 160.39C302.529 160.332 303.76 160.652 304.816 161.308C305.873 161.964 306.706 162.924 307.206 164.063C307.705 165.201 307.847 166.465 307.614 167.686C307.381 168.907 306.783 170.028 305.898 170.903L283.244 196.085C282.46 196.957 281.501 197.655 280.43 198.133C279.358 198.61 278.198 198.857 277.025 198.857Z" fill="#00C2CB"/>
<path d="M307.19 152.568C308.594 149.32 309.782 144.995 307.089 142.699C305.527 141.367 303.277 141.364 301.231 141.198C295.465 140.731 289.529 138.08 286.711 133.031C283.893 127.982 285.467 120.474 290.784 118.196C294.367 116.66 298.476 117.706 302.228 118.77L313.491 121.962C316.838 122.91 320.352 123.956 322.761 126.464C326.604 130.464 326.317 137.225 323.265 141.856C320.213 146.486 315.616 151.316 310.355 153.074L307.19 152.568Z" fill="#052B5D"/>
<path d="M462.585 362H0.74504C0.647046 362 0.549961 361.981 0.459345 361.944C0.368728 361.907 0.286368 361.852 0.216974 361.783C0.147581 361.714 0.0925216 361.631 0.054955 361.541C0.0173884 361.451 -0.00195312 361.354 -0.00195312 361.256C-0.00195312 361.158 0.0173884 361.061 0.054955 360.97C0.0925216 360.88 0.147581 360.798 0.216974 360.729C0.286368 360.659 0.368728 360.605 0.459345 360.567C0.549961 360.53 0.647046 360.511 0.74504 360.511H462.585C462.683 360.511 462.78 360.53 462.871 360.567C462.961 360.605 463.044 360.659 463.113 360.729C463.183 360.798 463.238 360.88 463.275 360.97C463.313 361.061 463.332 361.158 463.332 361.256C463.332 361.354 463.313 361.451 463.275 361.541C463.238 361.631 463.183 361.714 463.113 361.783C463.044 361.852 462.961 361.907 462.871 361.944C462.78 361.981 462.683 362 462.585 362Z" fill="#052B5D"/>
</g>
<defs>
<clipPath id="clip0">
<rect width="514" height="362" fill="white"/>
</clipPath>
</defs>
</svg>
