<svg xmlns="http://www.w3.org/2000/svg" xmlns:xlink="http://www.w3.org/1999/xlink" width="514" height="362" fill="none" xmlns:v="https://vecta.io/nano"><style><![CDATA[.B{fill:#052b5d}.C{fill:#a0616a}.D{fill:#ffb8b8}.E{fill:#00c2cb}.F{fill:#ffbd59}]]></style><g clip-path="url(#A)"><g class="B"><path d="M113.898 36.262H81.12a11.9 11.9 0 0 0-8.401 3.482c-2.228 2.227-3.48 5.247-3.484 8.396V83.66l-1.25-.113c-7.766-.817-15.148-3.785-21.316-8.57A41.89 41.89 0 0 1 33.074 56.46c-2.716-7.317-3.334-15.246-1.782-22.895a41.88 41.88 0 0 1 10.563-20.394C47.208 7.5 54.043 3.416 61.59 1.41s15.502-1.868 22.973.403S98.72 8.394 103.87 14.26a41.88 41.88 0 0 1 9.84 20.751c.07.413.132.832.188 1.25z"/><path d="M500.863 35.012H81.12c-3.483.004-6.822 1.388-9.285 3.85a13.14 13.14 0 0 0-3.852 9.28v221.323a13.14 13.14 0 0 0 3.852 9.279c2.463 2.462 5.802 3.846 9.285 3.85h419.744c3.483-.004 6.822-1.388 9.285-3.85a13.14 13.14 0 0 0 3.852-9.279V48.14a13.14 13.14 0 0 0-3.852-9.28c-2.463-2.46-5.802-3.846-9.285-3.85zm11.886 234.453a11.88 11.88 0 0 1-3.485 8.396 11.9 11.9 0 0 1-8.4 3.482H81.12c-3.15-.002-6.173-1.255-8.4-3.482s-3.48-5.247-3.484-8.396V48.14c.003-3.15 1.256-6.17 3.484-8.396a11.9 11.9 0 0 1 8.401-3.482h419.744c3.152.003 6.173 1.255 8.4 3.482s3.482 5.247 3.485 8.396v221.323zM480.22 70.88H101.762c-.166 0-.325-.066-.442-.183s-.183-.276-.183-.442.066-.325.183-.442.276-.183.442-.183H480.22a.63.63 0 0 1 .443.183c.117.117.183.276.183.442s-.066.325-.183.442a.63.63 0 0 1-.443.183z"/><path d="M208.732 255.71c-.166 0-.326-.066-.443-.183s-.183-.276-.183-.442V49.39c0-.166.066-.325.183-.442s.277-.183.443-.183.325.066.442.183.183.276.183.442v205.693c0 .166-.066.325-.183.442s-.277.183-.442.183z"/><use xlink:href="#B"/><path d="M397.648 255.71a.63.63 0 0 1-.443-.183c-.117-.117-.183-.276-.183-.442V49.39c0-.166.066-.325.183-.442a.63.63 0 0 1 .443-.183c.165 0 .325.066.442.183s.183.276.183.442v205.693c0 .166-.066.325-.183.442s-.277.183-.442.183z"/></g><g class="E"><path d="M148 135.412h-22.857a2.82 2.82 0 0 1-1.99-.825c-.528-.528-.825-1.243-.825-2V105.64a2.82 2.82 0 0 1 2.815-2.815H148a2.82 2.82 0 0 1 1.99.825c.528.528.824 1.243.825 2v26.958c-.001.746-.297 1.46-.825 2a2.82 2.82 0 0 1-1.99.825zm32.53 76.9h-22.86a2.82 2.82 0 0 1-1.989-.825c-.528-.527-.825-1.243-.826-1.988v-26.96a2.82 2.82 0 0 1 .826-1.989c.528-.527 1.243-.824 2-.824h22.858a2.82 2.82 0 0 1 2.815 2.813v26.96a2.82 2.82 0 0 1-.825 1.988c-.527.528-1.244.824-2 .825zm73.814-60.645h-22.858a2.82 2.82 0 0 1-1.989-.825c-.528-.527-.825-1.243-.826-1.988v-26.96a2.82 2.82 0 0 1 .826-1.989c.528-.527 1.243-.824 2-.824h22.858a2.82 2.82 0 0 1 2.815 2.813v26.96a2.82 2.82 0 0 1-.825 1.988c-.527.528-1.244.824-2 .825zm95.71-29.385h-22.858a2.82 2.82 0 0 1-1.99-.825c-.528-.528-.825-1.242-.826-1.988V92.5c.001-.746.298-1.46.826-2a2.81 2.81 0 0 1 1.99-.825h22.858a2.82 2.82 0 0 1 2.816 2.815v26.96c-.001.746-.298 1.46-.826 1.988s-1.243.824-2 .825zm88.203 0h-22.858a2.82 2.82 0 0 1-1.99-.825c-.527-.527-.824-1.242-.825-1.988V92.5a2.82 2.82 0 0 1 2.815-2.813h22.858a2.82 2.82 0 0 1 2.815 2.815v26.96c-.001.746-.298 1.46-.826 1.988s-1.243.824-2 .825z"/></g><g class="F"><path d="M478.917 129.785H456.06a2.82 2.82 0 0 1-2.815-2.814v-26.958c.001-.746.298-1.46.826-2a2.81 2.81 0 0 1 1.99-.825h22.858a2.82 2.82 0 0 1 2.816 2.815v26.958a2.82 2.82 0 0 1-2.815 2.814zm-18.14 48.14h-22.858c-.746-.001-1.462-.298-2-.825a2.82 2.82 0 0 1-.825-1.989v-26.958a2.82 2.82 0 0 1 .825-1.989 2.83 2.83 0 0 1 2-.825h22.858a2.82 2.82 0 0 1 1.989.825c.528.527.825 1.243.826 2v26.958a2.82 2.82 0 0 1-2.815 2.814z"/></g><path d="M383.207 167.922H360.35c-.747 0-1.462-.297-2-.825s-.824-1.242-.825-1.988v-26.96c.001-.746.297-1.46.825-1.988s1.243-.824 2-.825h22.857c.747.001 1.462.297 2 .825s.824 1.242.825 1.988v26.96c-.001.746-.297 1.46-.825 1.988s-1.243.825-2 .825z" fill="#ff6584"/><g class="F"><path d="M338.793 177.926h-22.857a2.82 2.82 0 0 1-1.99-.825c-.528-.528-.825-1.243-.825-2v-26.958a2.81 2.81 0 0 1 .825-1.989 2.82 2.82 0 0 1 1.99-.825h22.857c.746.001 1.462.298 2 .825a2.82 2.82 0 0 1 .825 1.989v26.958a2.82 2.82 0 0 1-.825 1.989 2.83 2.83 0 0 1-2 .825zm-95.71 42.514h-22.858a2.82 2.82 0 0 1-2.816-2.813v-26.96c.001-.745.298-1.46.826-1.988a2.82 2.82 0 0 1 1.989-.825h22.858a2.82 2.82 0 0 1 1.989.825c.528.527.825 1.243.826 1.988v26.96a2.82 2.82 0 0 1-.826 1.989c-.527.527-1.243.824-2 .824z"/></g><path d="M127.357 184.803H104.5a2.82 2.82 0 0 1-1.99-.825c-.528-.528-.825-1.243-.825-1.99V155.03c0-.746.297-1.46.825-1.99a2.82 2.82 0 0 1 1.99-.825h22.857c.746.001 1.462.298 2 .825a2.82 2.82 0 0 1 .825 1.989v26.958a2.82 2.82 0 0 1-.825 1.989c-.528.527-1.244.824-2 .825z" fill="#ff6584"/><g class="F"><path d="M191.8 135.412h-22.86a2.82 2.82 0 0 1-2.815-2.814V105.64a2.82 2.82 0 0 1 2.815-2.814h22.858a2.82 2.82 0 0 1 2.815 2.814v26.958a2.82 2.82 0 0 1-2.815 2.814zm-18.715-74.767H137.42c-.664 0-1.3-.264-1.77-.733a2.5 2.5 0 0 1 1.77-4.269h35.656a2.5 2.5 0 0 1 2.502 2.5c0 .663-.263 1.3-.733 1.768a2.5 2.5 0 0 1-1.769.733zm100.713 0h-35.656a2.5 2.5 0 1 1 0-5.002h35.656c.664 0 1.3.263 1.77.732a2.5 2.5 0 0 1-1.77 4.27zm94.46 0H332.6c-.664 0-1.3-.264-1.77-.733a2.5 2.5 0 0 1 1.77-4.269h35.656a2.5 2.5 0 0 1 2.502 2.5c0 .663-.263 1.3-.733 1.768a2.5 2.5 0 0 1-1.769.733zm88.203 0h-35.657c-.663 0-1.3-.264-1.77-.733a2.5 2.5 0 0 1 1.77-4.269h35.657c.663 0 1.3.263 1.77.732a2.5 2.5 0 0 1-1.77 4.27z"/></g><g class="D"><path d="M93.213 243.762c-.915-.1-1.8-.38-2.6-.847s-1.47-1.104-2-1.863a6.28 6.28 0 0 1-.862-5.249l-16.035-14.918 8.478-2.15 15.767 12.782a6.32 6.32 0 0 1 3.427 2.905 6.31 6.31 0 0 1 .63 4.446 6.32 6.32 0 0 1-2.483 3.744 6.33 6.33 0 0 1-4.343 1.15zm22.14 110.262h7.67l3.648-29.564h-11.318l.001 29.564z"/></g><path d="M137.814 361.14l-24.103.001v-9.307l14.8-.001a9.31 9.31 0 0 1 6.585 2.726 9.3 9.3 0 0 1 2.728 6.581z" class="B"/><path d="M62.77 348.5l7.412 1.972 11.135-27.63-10.938-2.9-7.61 28.57z" class="D"/><g class="B"><path d="M82.643 361.143l-23.292-6.196 2.395-8.994 14.293 3.802c2.387.635 4.423 2.192 5.662 4.327a9.3 9.3 0 0 1 .942 7.06zm42.443-12.716h-11.703a2.96 2.96 0 0 1-2-.768 2.95 2.95 0 0 1-.956-1.916l-7.104-73.732c-.052-.54-.3-1.046-.675-1.43a2.35 2.35 0 0 0-1.431-.676c-.54-.053-1.084.084-1.535.387a2.34 2.34 0 0 0-.939 1.274l-20.627 68.897a2.96 2.96 0 0 1-1.375 1.73 2.97 2.97 0 0 1-2.19.299l-10.886-2.72a2.97 2.97 0 0 1-1.052-.498c-.315-.234-.58-.527-.78-.863a2.97 2.97 0 0 1-.325-2.258l17.926-70.122c3.987-29.364 8.756-37.233 11.318-41.46l.583-.975c.22-.38 1.572-4.155 2.43-6.605a3 3 0 0 1 .566-1.091 2.98 2.98 0 0 1 .957-.77c10.766-5.503 23.363-1.694 26.967-.395a2.93 2.93 0 0 1 1.463 1.135c10.812 16.3 5.506 110.97 4.332 129.78a2.97 2.97 0 0 1-.932 1.974c-.55.516-1.277.803-2.03.804z"/></g><path d="M94.886 161.67c8.486 0 15.364-6.875 15.364-15.356s-6.878-15.355-15.364-15.355-15.364 6.875-15.364 15.355 6.88 15.356 15.364 15.356z" class="D"/><g fill="#ccc"><path d="M93.258 219.97l-.1-.107c-.207-.2-20.678-20.244-18.03-38.778 1.133-7.927 7.55-12.992 18.56-14.65 4.044-.6 8.17.28 11.616 2.475a16.96 16.96 0 0 1 7.15 9.48l10.884 37.2-30.07 4.39z"/><path d="M82.78 234.227L68.194 219.74a8.21 8.21 0 0 1-2.177-7.747l7.06-28.71c.212-.86.597-1.668 1.134-2.373a6.47 6.47 0 0 1 1.985-1.727 6.48 6.48 0 0 1 2.508-.795 6.5 6.5 0 0 1 2.618.268 6.51 6.51 0 0 1 3.751 3.137c.795 1.493.977 3.237.508 4.862l-7.434 25.256 12.022 12.902-7.4 9.412z"/></g><path d="M161.02 184.787a6.27 6.27 0 0 1-1.652 2.167 6.29 6.29 0 0 1-5.138 1.39c-.906-.158-1.766-.512-2.52-1.038l-19.473 10.087.86-8.57 17.263-10.677c.968-1.208 2.346-2.02 3.872-2.28s3.095.048 4.41.867 2.282 2.1 2.72 3.574.317 3.078-.342 4.478h0z" class="D"/><path d="M149.582 191.166l-18.983 8.198c-1.263.542-2.645.75-4.012.603a8.02 8.02 0 0 1-3.793-1.439l-24.14-17.287c-.72-.516-1.327-1.174-1.783-1.934a6.47 6.47 0 0 1-.866-2.483c-.116-.878-.05-1.77.194-2.623a6.48 6.48 0 0 1 1.221-2.329c1.08-1.302 2.626-2.132 4.308-2.315s3.37.296 4.706 1.335l20.698 16.28 16.452-6.36 5.998 10.354z" fill="#ccc"/><path d="M97.433 151.234c1.895-2.374 5.437-2.5 8.04-4.067 3.41-2.05 4.82-6.634 3.722-10.457s-4.34-6.803-8.056-8.228-7.85-1.443-11.77-.754c-5.837 1.026-11.583 3.748-15.142 8.484s-4.466 11.67-1.24 16.638c1.483 2.283 3.772 4.168 4.364 6.825.777 3.49-1.67 6.853-4.294 9.282-2.988 2.767-6.416 5.085-9.034 8.205s-4.364 7.38-3.17 11.273c1 3.262 3.913 5.664 7.107 6.868s6.672 1.377 10.085 1.444c3.314.064 6.833-.016 9.625-1.802 2.988-1.912 4.584-5.538 4.702-9.082s-1.067-7.017-2.655-10.188c-.947-1.9-2.047-3.72-2.676-5.74s-.738-4.308.27-6.167c1.06-1.953 3.2-3.13 5.382-3.56a6.38 6.38 0 0 1 .359-.059 4.64 4.64 0 0 0 1.757-.604 4.63 4.63 0 0 0 1.378-1.246c.37-.505.635-1.08.776-1.688a4.62 4.62 0 0 0 .05-1.856c-.25-1.385-.227-2.7.42-3.522z" class="B"/><path d="M302.284 354.68h-7.67l-3.648-29.564h11.32l-.002 29.564z" class="C"/><path d="M289.137 352.49h14.8v9.307h-24.103a9.31 9.31 0 0 1 .709-3.562 9.3 9.3 0 0 1 2.019-3.019c.865-.864 1.89-1.55 3.02-2.018a9.33 9.33 0 0 1 3.564-.708z" class="B"/><path d="M357.93 345.997l-6.976 3.184-15.6-25.376 10.296-4.7 12.3 26.893z" class="C"/><path d="M345.06 349.464l13.454-6.142 3.87 8.466-21.925 10.01c-.508-1.112-.792-2.313-.835-3.534s.153-2.44.58-3.585a9.31 9.31 0 0 1 1.909-3.09c.833-.894 1.835-1.616 2.947-2.124z" class="B"/><path d="M335.596 254.994c.735-.552 1.34-1.26 1.77-2.07a6.28 6.28 0 0 0 .729-2.625 6.3 6.3 0 0 0-.452-2.687 6.28 6.28 0 0 0-1.547-2.244l9.015-20.444-11.452 1.94-6.806 19.117a6.32 6.32 0 0 0-1.412 4.263c.067 1.546.7 3.014 1.777 4.125a6.33 6.33 0 0 0 4.069 1.904c1.544.116 3.077-.34 4.308-1.278z" class="C"/><path d="M301.795 346.884h-7.326c-.71-.003-1.394-.273-1.915-.756s-.84-1.146-.893-1.854l-3.995-106.634c-.03-.41.03-.82.175-1.202s.373-.73.666-1.016a2.82 2.82 0 0 1 1.033-.64c.387-.136.8-.186 1.207-.146l42.37 4.497a2.82 2.82 0 0 1 1.794.891c.468.506.734 1.167.747 1.856l.888 47.038a2.19 2.19 0 0 0 .147.746l17.38 45.048a2.81 2.81 0 0 1 .187 1.092 2.82 2.82 0 0 1-.249 1.08c-.154.34-.374.645-.647.9s-.595.452-.945.58l-7.424 2.734c-.645.238-1.354.23-1.995-.018s-1.167-.724-1.48-1.334L320.17 298.25c-.116-.225-.202-.466-.253-.714l-3.647-17.565a2.19 2.19 0 0 0-.801-1.283c-.41-.32-.922-.48-1.442-.458s-1.015.232-1.395.586a2.19 2.19 0 0 0-.681 1.351l-7.358 64.223c-.08.687-.407 1.32-.923 1.78s-1.183.714-1.874.714z" class="B"/><path d="M305.443 154.262c8.486 0 15.364-6.875 15.364-15.355s-6.878-15.356-15.364-15.356-15.364 6.875-15.364 15.356 6.88 15.355 15.364 15.355z" class="C"/><g class="E"><path d="M315.98 247.4a54.85 54.85 0 0 1-29.321-8.877l-.15-.103.016-.18 5.877-68.407c.202-2.32 1.24-4.5 2.918-6.106a9.65 9.65 0 0 1 6.214-2.686c7.617-.35 17.848.092 23.324 4.168 8.277 6.16 12.266 15.44 10.945 25.454-2.74 20.77.364 48.784.727 51.9l.026.226-.206.094c-6.38 2.967-13.333 4.506-20.37 4.508z"/><path d="M336.46 242.678a3.13 3.13 0 0 1-1.258-.265c-.396-.175-.752-.43-1.045-.75l-3.36-3.664c-.363-.398-.617-.883-.74-1.408a3.14 3.14 0 0 1 .046-1.59l7.663-25.923-11.66-24.473a5.52 5.52 0 0 1-.378-3.676 5.51 5.51 0 0 1 1.682-2.8 5.52 5.52 0 0 1 2.973-1.355c1.105-.14 2.227.056 3.218.565a5.51 5.51 0 0 1 2.332 2.287l15.823 25.66c.643 1.04 1.02 2.223 1.098 3.444s-.144 2.442-.648 3.557l-12.892 28.55c-.212.472-.54.884-.95 1.198s-.895.52-1.406.602a3.08 3.08 0 0 1-.498.04z"/></g><path d="M228.162 193.16a6.3 6.3 0 0 0 5.214 1.071c.894-.214 1.73-.62 2.45-1.192a6.28 6.28 0 0 0 1.717-2.116l22.17 2.874-5.095-10.434-20.27-1.13c-1.428-.598-3.026-.652-4.49-.15s-2.695 1.52-3.458 2.868a6.32 6.32 0 0 0-.679 4.439c.325 1.513 1.194 2.854 2.442 3.77h0z" class="C"/><path d="M277.025 198.857a8.4 8.4 0 0 1-1.154-.08l-34.875-4.834a3.46 3.46 0 0 1-2.659-1.945 3.46 3.46 0 0 1-.199-.518h0a3.48 3.48 0 0 1-.111-1.424c.062-.476.222-.935.47-1.347l2.886-4.782c.31-.51.748-.934 1.268-1.228a3.5 3.5 0 0 1 1.707-.452h.005l30.4.035 22.704-20.33c1.056-.943 2.405-1.495 3.82-1.562 1.243-.058 2.474.262 3.53.918s1.9 1.616 2.4 2.755.64 2.402.408 3.623a6.14 6.14 0 0 1-1.716 3.217l-22.654 25.182c-.784.872-1.743 1.57-2.814 2.048s-2.232.724-3.405.724z" class="E"/><g class="B"><path d="M307.2 152.568c1.404-3.248 2.592-7.573-.1-9.87-1.562-1.332-3.812-1.335-5.858-1.5-5.766-.467-11.702-3.118-14.52-8.167s-1.244-12.557 4.073-14.835c3.583-1.536 7.692-.5 11.444.574l11.263 3.192c3.347.948 6.86 1.994 9.27 4.502 3.843 4 3.556 10.76.504 15.392s-7.65 9.46-12.9 11.218l-3.165-.506zM462.585 362H.745a.78.78 0 0 1-.286-.056.74.74 0 0 1-.242-.161.75.75 0 0 1-.162-.242.74.74 0 0 1-.057-.285.75.75 0 0 1 .057-.286.65.65 0 0 1 .162-.24.78.78 0 0 1 .242-.162c.1-.038.188-.056.286-.056h461.84a.76.76 0 0 1 .286.056c.1.038.173.092.242.162a.75.75 0 0 1 .162.24.74.74 0 0 1 .057.286.73.73 0 0 1-.219.527.72.72 0 0 1-.242.16.76.76 0 0 1-.286.056z"/></g></g><defs><clipPath id="A"><path fill="#fff" d="M0 0h514v362H0z"/></clipPath><path id="B" d="M303.2 255.71a.63.63 0 0 1-.443-.183c-.117-.117-.183-.276-.183-.442V49.39c0-.166.066-.325.183-.442a.63.63 0 0 1 .443-.183c.165 0 .325.066.442.183s.183.276.183.442v205.693c0 .166-.066.325-.183.442s-.277.183-.442.183z"/></defs></svg>