<svg xmlns="http://www.w3.org/2000/svg" width="33.277" height="37.698" viewBox="0 0 33.277 37.698"><g transform="translate(0 0.001)"><path d="M108.5,288a4.5,4.5,0,1,0,4.5,4.5A4.5,4.5,0,0,0,108.5,288Zm0,8.1a3.6,3.6,0,1,1,3.6-3.6A3.6,3.6,0,0,1,108.5,296.1Zm0,0" transform="translate(-96.105 -261.103)" fill="#17a6af"/><path d="M153.8,321.35c.55,0,.9.266.9.45h.9a1.469,1.469,0,0,0-1.35-1.3V320h-.9v.5a1.467,1.467,0,0,0-1.35,1.3c0,.757.791,1.35,1.8,1.35.55,0,.9.266.9.45s-.35.45-.9.45-.9-.266-.9-.45H152a1.469,1.469,0,0,0,1.35,1.3v.5h.9v-.5a1.467,1.467,0,0,0,1.35-1.3c0-.757-.791-1.35-1.8-1.35-.55,0-.9-.266-.9-.45S153.25,321.35,153.8,321.35Zm0,0" transform="translate(-141.151 -291.303)" fill="#17a6af"/><path d="M29,36.441H5.118V21.361h9.1a1.8,1.8,0,0,0,1.706-1.885V3.769h6.256v7.54H29v8.8H30.14V10.42L22.982,2.512h-7.06V1.884A1.8,1.8,0,0,0,14.217,0H1.706A1.8,1.8,0,0,0,0,1.884V19.476a1.8,1.8,0,0,0,1.706,1.885H3.98V37.7H30.14V28.9H29ZM23.316,4.657,28.2,10.052H23.316ZM1.137,19.477V1.884a.6.6,0,0,1,.569-.628H14.217a.6.6,0,0,1,.569.628V19.477a.6.6,0,0,1-.569.628H1.706a.6.6,0,0,1-.569-.628Zm0,0" fill="#17a6af"/><path d="M256,200h.9v.9H256Zm0,0" transform="translate(-238.128 -184.14)" fill="#17a6af"/><path d="M288,200h5.4v.9H288Zm0,0" transform="translate(-267.08 -184.14)" fill="#17a6af"/><path d="M256,168h.9v.9H256Zm0,0" transform="translate(-238.128 -154.677)" fill="#17a6af"/><path d="M288,168h5.4v.9H288Zm0,0" transform="translate(-267.08 -154.677)" fill="#17a6af"/><path d="M256,232h.9v.9H256Zm0,0" transform="translate(-238.128 -213.602)" fill="#17a6af"/><path d="M288,232h5.4v.9H288Zm0,0" transform="translate(-267.08 -213.602)" fill="#17a6af"/><path d="M256,264h.9v.9H256Zm0,0" transform="translate(-238.128 -243.064)" fill="#17a6af"/><path d="M288,264h5.4v.9H288Zm0,0" transform="translate(-267.08 -243.064)" fill="#17a6af"/><path d="M33.9,24H24v3.15h9.9ZM33,26.25H24.9V24.9H33Zm0,0" transform="translate(-22.65 -22.651)" fill="#17a6af"/><path d="M33.8,88h-.9a.9.9,0,0,0-.9.9v.9a.9.9,0,0,0,.9.9h.9a.9.9,0,0,0,.9-.9v-.9A.9.9,0,0,0,33.8,88Zm-.9,1.8v-.9h.9v.9Zm0,0" transform="translate(-30.2 -80.872)" fill="#17a6af"/><path d="M89.8,88h-.9a.9.9,0,0,0-.9.9v.9a.9.9,0,0,0,.9.9h.9a.9.9,0,0,0,.9-.9v-.9A.9.9,0,0,0,89.8,88Zm-.9,1.8v-.9h.9v.9Zm0,0" transform="translate(-81.768 -80.872)" fill="#17a6af"/><path d="M145.8,88h-.9a.9.9,0,0,0-.9.9v.9a.9.9,0,0,0,.9.9h.9a.9.9,0,0,0,.9-.9v-.9A.9.9,0,0,0,145.8,88Zm-.9,1.8v-.9h.9v.9Zm0,0" transform="translate(-133.803 -80.872)" fill="#17a6af"/><path d="M33.8,144h-.9a.9.9,0,0,0-.9.9v.9a.9.9,0,0,0,.9.9h.9a.9.9,0,0,0,.9-.9v-.9A.9.9,0,0,0,33.8,144Zm-.9,1.8v-.9h.9v.9Zm0,0" transform="translate(-30.2 -132.335)" fill="#17a6af"/><path d="M89.8,144h-.9a.9.9,0,0,0-.9.9v.9a.9.9,0,0,0,.9.9h.9a.9.9,0,0,0,.9-.9v-.9A.9.9,0,0,0,89.8,144Zm-.9,1.8v-.9h.9v.9Zm0,0" transform="translate(-81.768 -132.335)" fill="#17a6af"/><path d="M145.8,144h-.9a.9.9,0,0,0-.9.9v.9a.9.9,0,0,0,.9.9h.9a.9.9,0,0,0,.9-.9v-.9A.9.9,0,0,0,145.8,144Zm-.9,1.8v-.9h.9v.9Zm0,0" transform="translate(-133.803 -132.335)" fill="#17a6af"/><path d="M33.8,200h-.9a.9.9,0,0,0-.9.9v.9a.9.9,0,0,0,.9.9h.9a.9.9,0,0,0,.9-.9v-.9A.9.9,0,0,0,33.8,200Zm-.9,1.8v-.9h.9v.9Zm0,0" transform="translate(-30.2 -183.798)" fill="#17a6af"/><path d="M89.8,200h-.9a.9.9,0,0,0-.9.9v.9a.9.9,0,0,0,.9.9h.9a.9.9,0,0,0,.9-.9v-.9A.9.9,0,0,0,89.8,200Zm-.9,1.8v-.9h.9v.9Zm0,0" transform="translate(-81.768 -183.798)" fill="#17a6af"/><path d="M145.8,200h-.9a.9.9,0,0,0-.9.9v.9a.9.9,0,0,0,.9.9h.9a.9.9,0,0,0,.9-.9v-.9A.9.9,0,0,0,145.8,200Zm-.9,1.8v-.9h.9v.9Zm0,0" transform="translate(-133.803 -183.798)" fill="#17a6af"/><path d="M290.853,248.849a1.382,1.382,0,0,0-1.909,0l-7.714,7.714a.456.456,0,0,0-.09.13l-1.086,2.359a.45.45,0,0,0,.6.6l2.359-1.086a.451.451,0,0,0,.13-.09l7.714-7.714A1.35,1.35,0,0,0,290.853,248.849Zm-8.294,8.93-1.179.543.543-1.179,5.752-5.752.636.636Zm6.39-6.39-.636-.636.315-.315.636.636Zm1.269-1.269-.318.318-.636-.636.319-.318a.46.46,0,0,1,.636,0A.45.45,0,0,1,290.219,250.119Zm0,0" transform="translate(-257.972 -223.793)" fill="#17a6af"/></g></svg>