<svg width="64" height="64" viewBox="0 0 64 64" fill="none" xmlns="http://www.w3.org/2000/svg">
<path d="M64 0H0V64H64V0Z" fill="#FF26BE"/>
<path d="M61.1837 2.81622H2.81567V61.1845H61.1837V2.81622Z" fill="#2E001F"/>
<path d="M33.2241 17.1331H28.2247L22.8581 28.3574L17.4194 17.1331H12.2694L19.5578 31.7075L12.0093 46.6309H17.0985L22.5612 35.1941L28.0873 46.6309H33.5957L25.8153 31.5322L33.2241 17.1331ZM47.0445 17.1331V24.6338C47.0445 24.6338 46.1797 24.6338 45.6039 24.6338C40.6877 24.6338 34.7445 27.804 34.7445 35.9018C34.7445 42.1619 37.9164 46.8672 44.6722 46.8672C49.6468 46.8672 51.9903 45.1464 51.9903 45.1464V17.1331H47.0445ZM47.0397 42.5584C47.0397 42.5584 46.4703 42.8088 45.1268 42.8088C43.7833 42.8088 39.6615 42.217 39.6615 35.6811C39.6615 29.1459 44.3981 28.6218 45.5364 28.6218C46.6753 28.6218 47.0396 28.9408 47.0396 28.9408V42.5584H47.0397Z" fill="#FFD9F2"/>
</svg>
