<svg width="40" height="40" viewBox="0 0 40 40" fill="none" xmlns="http://www.w3.org/2000/svg">
<path d="M40 0H0V40H40V0Z" fill="#FF26BE"/>
<path d="M38.2398 1.76013H1.75977V38.2403H38.2398V1.76013Z" fill="#2E001F"/>
<path d="M20.7651 10.7082H17.6405L14.2864 17.7234L10.8872 10.7082H7.66842L12.2237 19.8172L7.50586 29.1443H10.6866L14.1008 21.9963L17.5546 29.1443H20.9974L16.1346 19.7076L20.7651 10.7082ZM29.4029 10.7082V15.3961C29.4029 15.3961 28.8624 15.3961 28.5025 15.3961C25.4299 15.3961 21.7154 17.3775 21.7154 22.4386C21.7154 26.3512 23.6978 29.292 27.9202 29.292C31.0293 29.292 32.494 28.2165 32.494 28.2165V10.7082H29.4029ZM29.3999 26.599C29.3999 26.599 29.044 26.7555 28.2043 26.7555C27.3646 26.7555 24.7885 26.3856 24.7885 22.3007C24.7885 18.2162 27.7489 17.8886 28.4603 17.8886C29.1721 17.8886 29.3998 18.088 29.3998 18.088V26.599H29.3999Z" fill="#FFD9F2"/>
</svg>
