<svg width="651" height="715" viewBox="0 0 651 715" fill="none" xmlns="http://www.w3.org/2000/svg">
<g clip-path="url(#clip0)">
<path d="M553 507.784H552.152V484.524C552.152 482.756 551.805 481.006 551.129 479.372C550.453 477.739 549.463 476.255 548.215 475.005C546.967 473.755 545.485 472.763 543.854 472.087C542.223 471.41 540.475 471.062 538.71 471.062H489.504C487.739 471.062 485.991 471.41 484.36 472.087C482.729 472.763 481.247 473.755 479.999 475.005C478.75 476.255 477.76 477.739 477.085 479.372C476.409 481.006 476.062 482.756 476.062 484.524V612.132C476.062 613.9 476.409 615.65 477.085 617.284C477.76 618.917 478.75 620.401 479.999 621.651C481.247 622.901 482.729 623.893 484.36 624.57C485.991 625.246 487.739 625.594 489.504 625.594H538.71C540.475 625.594 542.223 625.246 543.854 624.57C545.485 623.893 546.967 622.901 548.215 621.651C549.463 620.401 550.453 618.917 551.129 617.284C551.805 615.65 552.152 613.9 552.152 612.132V524.342H553V507.784Z" fill="#3F3D56"/>
<path d="M549.292 485.315V612.737C549.292 615.404 548.234 617.961 546.351 619.847C544.468 621.733 541.914 622.792 539.252 622.792H489.809C488.491 622.792 487.186 622.532 485.968 622.027C484.75 621.521 483.644 620.78 482.712 619.847C481.78 618.913 481.041 617.804 480.537 616.585C480.032 615.365 479.773 614.057 479.774 612.737V485.315C479.774 482.65 480.831 480.093 482.713 478.208C484.595 476.324 487.147 475.265 489.809 475.265H495.807C495.513 475.99 495.401 476.776 495.481 477.555C495.562 478.334 495.832 479.081 496.268 479.73C496.704 480.38 497.293 480.912 497.982 481.281C498.672 481.649 499.441 481.842 500.223 481.843H528.413C529.196 481.845 529.967 481.653 530.658 481.285C531.349 480.917 531.938 480.385 532.375 479.734C532.811 479.084 533.081 478.336 533.16 477.556C533.24 476.777 533.126 475.99 532.829 475.265H539.252C541.914 475.265 544.467 476.323 546.35 478.208C548.232 480.093 549.291 482.649 549.292 485.315Z" fill="#D0CDE1"/>
<path d="M539.931 540.501H482.456V556.034H539.931V540.501Z" fill="#6C63FF"/>
<path d="M542.212 553.293H486.561C486.198 553.293 485.851 553.148 485.594 552.891C485.337 552.634 485.193 552.286 485.193 551.922V538.217C485.193 537.854 485.337 537.505 485.594 537.249C485.851 536.992 486.198 536.847 486.561 536.847H542.212C542.575 536.847 542.923 536.992 543.179 537.249C543.436 537.505 543.58 537.854 543.581 538.217V551.922C543.58 552.286 543.436 552.634 543.179 552.891C542.923 553.148 542.575 553.293 542.212 553.293ZM486.561 537.76C486.44 537.76 486.324 537.809 486.239 537.894C486.153 537.98 486.105 538.096 486.105 538.217V551.922C486.105 552.044 486.153 552.16 486.239 552.245C486.324 552.331 486.44 552.379 486.561 552.379H542.212C542.333 552.379 542.449 552.331 542.535 552.245C542.62 552.16 542.668 552.044 542.668 551.922V538.217C542.668 538.096 542.62 537.98 542.535 537.894C542.449 537.809 542.333 537.76 542.212 537.76H486.561Z" fill="#3F3D56"/>
<path d="M496.14 549.181H488.842V550.095H496.14V549.181Z" fill="#3F3D56"/>
<path d="M506.176 549.181H498.877V550.095H506.176V549.181Z" fill="#3F3D56"/>
<path d="M516.211 549.181H508.913V550.095H516.211V549.181Z" fill="#3F3D56"/>
<path d="M526.247 549.181H518.948V550.095H526.247V549.181Z" fill="#3F3D56"/>
<path d="M536.282 549.181H528.984V550.095H536.282V549.181Z" fill="#3F3D56"/>
<path opacity="0.1" d="M549.292 599.781V612.737C549.292 615.404 548.234 617.961 546.351 619.847C544.468 621.733 541.914 622.792 539.252 622.792H489.809C488.491 622.792 487.186 622.532 485.968 622.026C484.75 621.521 483.644 620.78 482.712 619.847C481.78 618.913 481.041 617.804 480.537 616.585C480.032 615.365 479.773 614.057 479.774 612.737V553.138L549.292 599.781Z" fill="black"/>
<path d="M312.31 588.013H96.5478V694H312.31V588.013Z" fill="#D0CDE1"/>
<path opacity="0.1" d="M257.457 694H97.4601C97.2184 693.999 96.9867 693.903 96.8158 693.731C96.6448 693.56 96.5485 693.328 96.5478 693.086V588.926C96.5485 588.684 96.6448 588.452 96.8158 588.281C96.9867 588.11 97.2184 588.013 97.4601 588.013H99.4854L257.457 694Z" fill="black"/>
<path d="M530.808 602.175H196.446V603.088H530.808V602.175Z" fill="#3F3D56"/>
<path d="M302.156 379.973H206.596V378H163.266V379.973H67.3118C66.4629 379.973 65.6224 380.14 64.8381 380.465C64.0539 380.791 63.3413 381.267 62.7411 381.869C62.1409 382.47 61.6647 383.183 61.3399 383.969C61.0151 384.754 60.8479 385.596 60.8479 386.446V517.494C60.8479 519.211 61.5289 520.857 62.7411 522.071C63.9533 523.285 65.5974 523.967 67.3118 523.967H302.156C303.871 523.967 305.515 523.285 306.727 522.071C307.939 520.857 308.62 519.211 308.62 517.494V386.446C308.62 385.596 308.453 384.754 308.128 383.969C307.803 383.183 307.327 382.47 306.727 381.869C306.127 381.267 305.414 380.791 304.63 380.465C303.846 380.14 303.005 379.973 302.156 379.973Z" fill="#3F3D56"/>
<path d="M299.952 391.411H69.516V521.602H299.952V391.411Z" fill="#D0CDE1"/>
<path d="M184.537 387.863C185.842 387.863 186.901 386.803 186.901 385.496C186.901 384.188 185.842 383.129 184.537 383.129C183.232 383.129 182.174 384.188 182.174 385.496C182.174 386.803 183.232 387.863 184.537 387.863Z" fill="#6C63FF"/>
<path d="M138.058 439.996H132.584C132.221 439.996 131.873 439.851 131.617 439.594C131.36 439.338 131.216 438.989 131.216 438.626V433.144C131.216 432.78 131.36 432.432 131.617 432.175C131.873 431.918 132.221 431.774 132.584 431.773H138.058C138.421 431.774 138.769 431.918 139.025 432.175C139.282 432.432 139.426 432.78 139.426 433.144V438.626C139.426 438.989 139.282 439.338 139.025 439.594C138.769 439.851 138.421 439.996 138.058 439.996ZM132.584 432.687C132.463 432.687 132.347 432.735 132.262 432.821C132.176 432.906 132.128 433.023 132.128 433.144V438.626C132.128 438.747 132.176 438.863 132.262 438.949C132.347 439.034 132.463 439.082 132.584 439.083H138.058C138.179 439.082 138.295 439.034 138.38 438.949C138.466 438.863 138.514 438.747 138.514 438.626V433.144C138.514 433.023 138.466 432.906 138.38 432.821C138.295 432.735 138.179 432.687 138.058 432.687H132.584Z" fill="#3F3D56"/>
<path d="M235.675 439.083H131.672V439.996H235.675V439.083Z" fill="#3F3D56"/>
<path d="M232.938 464.209H208.762V471.518H232.938V464.209Z" fill="#6C63FF"/>
<path d="M234.763 469.691H212.411C212.049 469.691 211.701 469.546 211.444 469.289C211.188 469.032 211.043 468.684 211.043 468.321V462.839C211.043 462.475 211.188 462.127 211.444 461.87C211.701 461.613 212.049 461.468 212.411 461.468H234.763C235.126 461.468 235.474 461.613 235.73 461.87C235.987 462.127 236.131 462.475 236.132 462.839V468.321C236.131 468.684 235.987 469.032 235.73 469.289C235.474 469.546 235.126 469.691 234.763 469.691ZM212.411 462.382C212.29 462.382 212.175 462.43 212.089 462.516C212.004 462.601 211.955 462.717 211.955 462.839V468.321C211.955 468.442 212.004 468.558 212.089 468.643C212.175 468.729 212.29 468.777 212.411 468.777H234.763C234.884 468.777 235 468.729 235.085 468.643C235.171 468.558 235.219 468.442 235.219 468.321V462.839C235.219 462.717 235.171 462.601 235.085 462.516C235 462.43 234.884 462.382 234.763 462.382H212.411Z" fill="#3F3D56"/>
<path d="M417.682 472.432H372.066V504.411H417.682V472.432Z" fill="#6C63FF"/>
<path d="M422.243 501.899H378.452C377.968 501.898 377.505 501.705 377.163 501.363C376.82 501.02 376.628 500.556 376.628 500.071V469.92C376.628 469.435 376.82 468.971 377.163 468.628C377.505 468.285 377.968 468.093 378.452 468.092H422.243C422.727 468.093 423.191 468.285 423.533 468.628C423.875 468.971 424.067 469.435 424.068 469.92V500.071C424.067 500.556 423.875 501.02 423.533 501.363C423.191 501.705 422.727 501.898 422.243 501.899ZM378.452 469.92V500.071H422.244L422.243 469.92H378.452Z" fill="#3F3D56"/>
<path d="M417.225 468.777H415.401C415.401 464.779 413.815 460.944 410.992 458.117C408.169 455.29 404.34 453.702 400.348 453.702C396.355 453.702 392.527 455.29 389.704 458.117C386.881 460.944 385.295 464.779 385.295 468.777H383.47C383.47 464.294 385.248 459.995 388.413 456.825C391.579 453.655 395.871 451.874 400.348 451.874C404.824 451.874 409.117 453.655 412.282 456.825C415.447 459.995 417.225 464.294 417.225 468.777Z" fill="#3F3D56"/>
<path d="M404.909 481.341C404.91 480.545 404.704 479.763 404.31 479.072C403.917 478.381 403.35 477.805 402.666 477.401C401.981 476.996 401.204 476.778 400.41 476.767C399.615 476.756 398.832 476.954 398.137 477.339C397.442 477.725 396.86 478.285 396.448 478.965C396.036 479.645 395.808 480.421 395.787 481.217C395.767 482.012 395.954 482.799 396.33 483.499C396.706 484.2 397.259 484.79 397.933 485.211V490.115C397.933 490.432 397.995 490.747 398.117 491.04C398.238 491.334 398.416 491.6 398.64 491.825C398.864 492.049 399.131 492.228 399.424 492.349C399.717 492.471 400.031 492.533 400.348 492.533C400.988 492.533 401.602 492.278 402.055 491.825C402.508 491.371 402.763 490.756 402.763 490.115V485.211C403.419 484.802 403.961 484.231 404.336 483.554C404.712 482.877 404.909 482.115 404.909 481.341Z" fill="#3F3D56"/>
<path d="M188.007 635.067H180.709V635.981H188.007V635.067Z" fill="#3F3D56"/>
<path d="M198.042 635.067H190.744V635.981H198.042V635.067Z" fill="#3F3D56"/>
<path d="M208.078 635.067H200.779V635.981H208.078V635.067Z" fill="#3F3D56"/>
<path d="M218.113 635.067H210.815V635.981H218.113V635.067Z" fill="#3F3D56"/>
<path d="M228.149 635.067H220.85V635.981H228.149V635.067Z" fill="#3F3D56"/>
<path d="M321.889 686.234H107.952C107.468 686.233 107.004 686.041 106.662 685.698C106.32 685.356 106.128 684.891 106.127 684.407V580.247C106.128 579.762 106.32 579.298 106.662 578.955C107.004 578.613 107.468 578.42 107.952 578.419H321.889C322.372 578.42 322.836 578.613 323.178 578.955C323.52 579.298 323.713 579.762 323.713 580.247V684.407C323.713 684.891 323.52 685.356 323.178 685.698C322.836 686.041 322.372 686.233 321.889 686.234ZM107.952 580.247V684.407H321.89L321.889 580.247H107.952Z" fill="#3F3D56"/>
<path d="M117.531 595.779C119.043 595.779 120.268 594.552 120.268 593.038C120.268 591.524 119.043 590.297 117.531 590.297C116.019 590.297 114.794 591.524 114.794 593.038C114.794 594.552 116.019 595.779 117.531 595.779Z" fill="#3F3D56"/>
<path d="M127.11 595.779C128.622 595.779 129.847 594.552 129.847 593.038C129.847 591.524 128.622 590.297 127.11 590.297C125.599 590.297 124.373 591.524 124.373 593.038C124.373 594.552 125.599 595.779 127.11 595.779Z" fill="#3F3D56"/>
<path d="M136.689 595.779C138.201 595.779 139.426 594.552 139.426 593.038C139.426 591.524 138.201 590.297 136.689 590.297C135.178 590.297 133.953 591.524 133.953 593.038C133.953 594.552 135.178 595.779 136.689 595.779Z" fill="#3F3D56"/>
<path d="M235.219 641.463H173.638C173.275 641.463 172.927 641.318 172.671 641.061C172.414 640.804 172.27 640.456 172.27 640.093V624.56C172.27 624.197 172.414 623.848 172.671 623.591C172.927 623.334 173.275 623.19 173.638 623.189H235.219C235.582 623.19 235.93 623.334 236.186 623.591C236.443 623.848 236.587 624.197 236.588 624.56V640.093C236.587 640.456 236.443 640.804 236.186 641.061C235.93 641.318 235.582 641.463 235.219 641.463ZM173.638 624.103C173.517 624.103 173.401 624.151 173.316 624.237C173.23 624.323 173.182 624.439 173.182 624.56V640.093C173.182 640.214 173.23 640.33 173.316 640.415C173.401 640.501 173.517 640.549 173.638 640.549H235.219C235.34 640.549 235.456 640.501 235.542 640.415C235.627 640.33 235.675 640.214 235.675 640.093V624.56C235.675 624.439 235.627 624.323 235.542 624.237C235.456 624.151 235.34 624.103 235.219 624.103H173.638Z" fill="#3F3D56"/>
<path d="M250.729 641.92C255.263 641.92 258.939 638.238 258.939 633.697C258.939 629.155 255.263 625.474 250.729 625.474C246.194 625.474 242.518 629.155 242.518 633.697C242.518 638.238 246.194 641.92 250.729 641.92Z" fill="#6C63FF"/>
<path d="M253.465 641.006C251.751 641.006 250.076 640.497 248.65 639.544C247.225 638.59 246.114 637.234 245.458 635.648C244.802 634.062 244.631 632.317 244.965 630.633C245.299 628.949 246.125 627.403 247.337 626.189C248.549 624.975 250.093 624.148 251.775 623.813C253.456 623.478 255.198 623.65 256.782 624.307C258.366 624.964 259.719 626.077 260.672 627.504C261.624 628.932 262.132 630.61 262.132 632.326C262.13 634.628 261.216 636.834 259.591 638.461C257.966 640.088 255.763 641.004 253.465 641.006ZM253.465 624.56C251.932 624.56 250.432 625.016 249.157 625.869C247.882 626.722 246.888 627.935 246.301 629.354C245.714 630.774 245.561 632.335 245.86 633.842C246.159 635.348 246.898 636.732 247.982 637.818C249.067 638.904 250.448 639.644 251.953 639.944C253.457 640.243 255.016 640.089 256.433 639.502C257.85 638.914 259.061 637.918 259.913 636.641C260.765 635.364 261.22 633.862 261.22 632.326C261.218 630.267 260.4 628.293 258.946 626.837C257.492 625.381 255.521 624.562 253.465 624.56Z" fill="#3F3D56"/>
<path d="M253.587 635.568L249.171 631.145L250.461 629.853L253.344 632.74L261.386 621.293L262.879 622.345L253.587 635.568Z" fill="#3F3D56"/>
<path opacity="0.1" d="M248.863 521.602H69.5158V401.275L248.863 521.602Z" fill="black"/>
<path d="M315.09 519.233H292.601V517.61C292.601 517.568 292.593 517.526 292.577 517.487C292.56 517.448 292.537 517.413 292.507 517.383C292.477 517.353 292.442 517.329 292.403 517.313C292.364 517.297 292.322 517.289 292.28 517.289H284.569C284.527 517.289 284.485 517.297 284.446 517.313C284.407 517.329 284.372 517.353 284.342 517.383C284.312 517.413 284.288 517.448 284.272 517.487C284.256 517.526 284.248 517.568 284.248 517.61V519.233H279.429V517.61C279.429 517.568 279.42 517.526 279.404 517.487C279.388 517.448 279.364 517.413 279.335 517.383C279.305 517.353 279.269 517.329 279.23 517.313C279.191 517.297 279.15 517.289 279.107 517.289H271.397C271.354 517.289 271.313 517.297 271.274 517.313C271.235 517.329 271.199 517.353 271.17 517.383C271.14 517.413 271.116 517.448 271.1 517.487C271.084 517.526 271.075 517.568 271.075 517.61V519.233H266.256V517.61C266.256 517.568 266.248 517.526 266.232 517.487C266.216 517.448 266.192 517.413 266.162 517.383C266.132 517.353 266.097 517.329 266.058 517.313C266.019 517.297 265.977 517.289 265.935 517.289H258.224C258.182 517.289 258.14 517.297 258.101 517.313C258.062 517.329 258.027 517.353 257.997 517.383C257.967 517.413 257.944 517.448 257.927 517.487C257.911 517.526 257.903 517.568 257.903 517.61V519.233H253.084V517.61C253.084 517.568 253.076 517.526 253.059 517.487C253.043 517.448 253.02 517.413 252.99 517.383C252.96 517.353 252.924 517.329 252.886 517.313C252.847 517.297 252.805 517.289 252.763 517.289H245.052C245.01 517.289 244.968 517.297 244.929 517.313C244.89 517.329 244.855 517.353 244.825 517.383C244.795 517.413 244.771 517.448 244.755 517.487C244.739 517.526 244.731 517.568 244.731 517.61V519.233H239.911V517.61C239.911 517.568 239.903 517.526 239.887 517.487C239.871 517.448 239.847 517.413 239.817 517.383C239.788 517.353 239.752 517.329 239.713 517.313C239.674 517.297 239.632 517.289 239.59 517.289H231.88C231.837 517.289 231.796 517.297 231.757 517.313C231.718 517.329 231.682 517.353 231.652 517.383C231.622 517.413 231.599 517.448 231.583 517.487C231.567 517.526 231.558 517.568 231.558 517.61V519.233H226.739V517.61C226.739 517.568 226.731 517.526 226.715 517.487C226.698 517.448 226.675 517.413 226.645 517.383C226.615 517.353 226.58 517.329 226.541 517.313C226.502 517.297 226.46 517.289 226.418 517.289H218.707C218.665 517.289 218.623 517.297 218.584 517.313C218.545 517.329 218.51 517.353 218.48 517.383C218.45 517.413 218.426 517.448 218.41 517.487C218.394 517.526 218.386 517.568 218.386 517.61V519.233H213.567V517.61C213.567 517.568 213.558 517.526 213.542 517.487C213.526 517.448 213.502 517.413 213.473 517.383C213.443 517.353 213.407 517.329 213.368 517.313C213.329 517.297 213.288 517.289 213.245 517.289H152.845C152.803 517.289 152.761 517.297 152.722 517.313C152.683 517.329 152.648 517.353 152.618 517.383C152.588 517.413 152.564 517.448 152.548 517.487C152.532 517.526 152.524 517.568 152.524 517.61V519.233H147.705V517.61C147.705 517.568 147.696 517.526 147.68 517.487C147.664 517.448 147.64 517.413 147.611 517.383C147.581 517.353 147.545 517.329 147.506 517.313C147.467 517.297 147.426 517.289 147.383 517.289H139.673C139.631 517.289 139.589 517.297 139.55 517.313C139.511 517.329 139.475 517.353 139.446 517.383C139.416 517.413 139.392 517.448 139.376 517.487C139.36 517.526 139.351 517.568 139.351 517.61V519.233H134.532V517.61C134.532 517.568 134.524 517.526 134.508 517.487C134.492 517.448 134.468 517.413 134.438 517.383C134.408 517.353 134.373 517.329 134.334 517.313C134.295 517.297 134.253 517.289 134.211 517.289H126.5C126.458 517.289 126.416 517.297 126.377 517.313C126.338 517.329 126.303 517.353 126.273 517.383C126.243 517.413 126.22 517.448 126.203 517.487C126.187 517.526 126.179 517.568 126.179 517.61V519.233H121.36V517.61C121.36 517.568 121.352 517.526 121.335 517.487C121.319 517.448 121.296 517.413 121.266 517.383C121.236 517.353 121.201 517.329 121.162 517.313C121.123 517.297 121.081 517.289 121.039 517.289H113.328C113.286 517.289 113.244 517.297 113.205 517.313C113.166 517.329 113.131 517.353 113.101 517.383C113.071 517.413 113.047 517.448 113.031 517.487C113.015 517.526 113.007 517.568 113.007 517.61V519.233H108.187V517.61C108.187 517.568 108.179 517.526 108.163 517.487C108.147 517.448 108.123 517.413 108.093 517.383C108.064 517.353 108.028 517.329 107.989 517.313C107.95 517.297 107.908 517.289 107.866 517.289H100.156C100.113 517.289 100.072 517.297 100.033 517.313C99.9936 517.329 99.9582 517.353 99.9283 517.383C99.8985 517.413 99.8748 517.448 99.8587 517.487C99.8425 517.526 99.8342 517.568 99.8342 517.61V519.233H95.0151V517.61C95.0151 517.568 95.0068 517.526 94.9906 517.487C94.9745 517.448 94.9508 517.413 94.921 517.383C94.8912 517.353 94.8557 517.329 94.8168 517.313C94.7778 517.297 94.736 517.289 94.6938 517.289H86.9831C86.9409 517.289 86.8992 517.297 86.8602 517.313C86.8212 517.329 86.7858 517.353 86.756 517.383C86.7261 517.413 86.7025 517.448 86.6863 517.487C86.6702 517.526 86.6619 517.568 86.6619 517.61V519.233H81.8427V517.61C81.8427 517.568 81.8344 517.526 81.8182 517.487C81.8021 517.448 81.7784 517.413 81.7486 517.383C81.7188 517.353 81.6833 517.329 81.6444 517.313C81.6054 517.297 81.5636 517.289 81.5214 517.289H73.8107C73.7685 517.289 73.7268 517.297 73.6878 517.313C73.6488 517.329 73.6134 517.353 73.5836 517.383C73.5537 517.413 73.5301 517.448 73.5139 517.487C73.4978 517.526 73.4895 517.568 73.4895 517.61V519.233H58.7107C57.6981 519.233 56.6954 519.433 55.7599 519.821C54.8244 520.209 53.9744 520.778 53.2584 521.495C52.5424 522.212 51.9744 523.063 51.5869 524C51.1994 524.937 51 525.941 51 526.955V530.447C51 532.495 51.8124 534.459 53.2584 535.908C54.7044 537.356 56.6657 538.169 58.7107 538.169H315.09C316.103 538.169 317.106 537.97 318.041 537.582C318.977 537.194 319.827 536.625 320.543 535.908C321.259 535.191 321.827 534.339 322.214 533.402C322.602 532.465 322.801 531.461 322.801 530.447V526.955C322.801 525.941 322.602 524.937 322.214 524C321.827 523.063 321.259 522.212 320.543 521.495C319.827 520.778 318.977 520.209 318.041 519.821C317.106 519.433 316.103 519.233 315.09 519.233Z" fill="#3F3D56"/>
<path d="M244.798 477.457H124.373C124.01 477.457 123.663 477.312 123.406 477.056C123.15 476.799 123.005 476.45 123.005 476.087V425.834C123.005 425.471 123.15 425.123 123.406 424.866C123.663 424.609 124.01 424.464 124.373 424.464H244.798C245.161 424.464 245.509 424.609 245.766 424.866C246.022 425.123 246.167 425.471 246.167 425.834V476.087C246.167 476.45 246.022 476.799 245.766 477.056C245.509 477.312 245.161 477.457 244.798 477.457ZM124.373 425.378C124.252 425.378 124.136 425.426 124.051 425.512C123.965 425.597 123.917 425.713 123.917 425.834V476.087C123.917 476.208 123.965 476.324 124.051 476.41C124.136 476.495 124.252 476.544 124.373 476.544H244.798C244.919 476.544 245.035 476.495 245.121 476.41C245.206 476.324 245.254 476.208 245.255 476.087V425.834C245.254 425.713 245.206 425.597 245.121 425.512C245.035 425.426 244.919 425.378 244.798 425.378H124.373Z" fill="#3F3D56"/>
<path d="M138.058 453.702H132.584C132.221 453.701 131.873 453.557 131.617 453.3C131.36 453.043 131.216 452.695 131.216 452.331V446.849C131.216 446.486 131.36 446.137 131.617 445.88C131.873 445.623 132.221 445.479 132.584 445.479H138.058C138.421 445.479 138.769 445.623 139.025 445.88C139.282 446.137 139.426 446.486 139.426 446.849V452.331C139.426 452.695 139.282 453.043 139.025 453.3C138.769 453.557 138.421 453.701 138.058 453.702ZM132.584 446.392C132.463 446.392 132.347 446.441 132.262 446.526C132.176 446.612 132.128 446.728 132.128 446.849V452.331C132.128 452.452 132.176 452.568 132.262 452.654C132.347 452.74 132.463 452.788 132.584 452.788H138.058C138.179 452.788 138.295 452.74 138.38 452.654C138.466 452.568 138.514 452.452 138.514 452.331V446.849C138.514 446.728 138.466 446.612 138.38 446.526C138.295 446.441 138.179 446.392 138.058 446.392H132.584Z" fill="#3F3D56"/>
<path d="M235.675 452.788H131.672V453.702H235.675V452.788Z" fill="#3F3D56"/>
<path d="M506.176 501.213H171.814V502.127H506.176V501.213Z" fill="#3F3D56"/>
<path d="M171.814 507.609C175.341 507.609 178.2 504.745 178.2 501.213C178.2 497.681 175.341 494.817 171.814 494.817C168.287 494.817 165.427 497.681 165.427 501.213C165.427 504.745 168.287 507.609 171.814 507.609Z" fill="#3F3D56"/>
<path d="M506.176 507.152C508.947 507.152 511.194 504.902 511.194 502.127C511.194 499.351 508.947 497.102 506.176 497.102C503.405 497.102 501.158 499.351 501.158 502.127C501.158 504.902 503.405 507.152 506.176 507.152Z" fill="#3F3D56"/>
<path d="M530.808 608.114C533.58 608.114 535.826 605.864 535.826 603.089C535.826 600.313 533.58 598.063 530.808 598.063C528.037 598.063 525.791 600.313 525.791 603.089C525.791 605.864 528.037 608.114 530.808 608.114Z" fill="#3F3D56"/>
<path d="M197.814 608.114C200.586 608.114 202.832 605.864 202.832 603.089C202.832 600.313 200.586 598.063 197.814 598.063C195.043 598.063 192.797 600.313 192.797 603.089C192.797 605.864 195.043 608.114 197.814 608.114Z" fill="#3F3D56"/>
</g>
<defs>
<clipPath id="clip0">
<rect width="502" height="316" fill="white" transform="translate(51 378)"/>
</clipPath>
</defs>
</svg>
