<svg xmlns="http://www.w3.org/2000/svg" xmlns:xlink="http://www.w3.org/1999/xlink" width="651" height="715" fill="none"><style>.B{fill:#3f3d56}.C{fill:#6c63ff}.D{fill:#d0cde1}</style><g clip-path="url(#A)"><path d="M553 507.784h-.848v-23.26a13.474 13.474 0 00-3.937-9.519 13.43 13.43 0 00-4.361-2.918 13.417 13.417 0 00-5.144-1.025h-49.206c-1.765 0-3.513.348-5.144 1.025a13.43 13.43 0 00-4.361 2.918c-1.25 1.25-2.24 2.734-2.914 4.367s-1.023 3.384-1.023 5.152v127.608a13.474 13.474 0 003.937 9.519 13.45 13.45 0 004.361 2.919c1.63.676 3.38 1.024 5.144 1.024H538.7c1.765 0 3.513-.348 5.144-1.024a13.45 13.45 0 004.361-2.919 13.475 13.475 0 003.937-9.519v-87.8H553v-16.558z" class="B"/><path d="M549.292 485.315v127.422c0 2.667-1.058 5.224-2.94 7.1a10.03 10.03 0 01-7.099 2.945H489.81a10.03 10.03 0 01-3.841-.765 10.055 10.055 0 01-3.256-2.18 10.06 10.06 0 01-2.175-3.262 10.04 10.04 0 01-.763-3.848V485.315a10.06 10.06 0 012.939-7.107 10.03 10.03 0 017.096-2.943h5.998a4.79 4.79 0 00.461 4.465 4.78 4.78 0 001.714 1.551c.7.368 1.46.56 2.24.562h28.2a4.75 4.75 0 002.245-.558 4.762 4.762 0 002.502-3.728 4.76 4.76 0 00-.331-2.291h6.423a10.03 10.03 0 017.098 2.943 10.068 10.068 0 012.942 7.107z" class="D"/><path d="M539.93 540.5h-57.475v15.533h57.475V540.5z" class="C"/><path d="M542.212 553.293h-55.65c-.363 0-.7-.145-.967-.402a1.37 1.37 0 01-.401-.969v-13.705a1.37 1.37 0 011.367-1.37h55.65c.363 0 .7.145.967.402a1.37 1.37 0 01.402.968v13.705a1.38 1.38 0 01-.402.97 1.363 1.363 0 01-.967.402zm-55.65-15.533a.457.457 0 00-.456.457v13.705a.457.457 0 00.456.457h55.65a.46.46 0 00.323-.134.45.45 0 00.133-.323v-13.705a.46.46 0 00-.456-.457h-55.65zm9.578 11.42h-7.298v.914h7.298v-.914zm10.036 0h-7.3v.914h7.3v-.914zm10.034 0h-7.298v.914h7.298v-.914zm10.037 0h-7.3v.914h7.3v-.914zm10.035 0h-7.298v.914h7.298v-.914z"/><path opacity=".1" d="M549.292 599.78v12.956c0 2.667-1.058 5.224-2.94 7.1a10.03 10.03 0 01-7.099 2.945H489.81a10.01 10.01 0 01-3.841-.766 10.023 10.023 0 01-3.256-2.18 10.06 10.06 0 01-2.175-3.262 10.04 10.04 0 01-.763-3.848v-59.6l69.518 46.643z" fill="#000"/><path d="M312.3 588.013H96.548V694H312.3V588.013z" class="D"/><path opacity=".1" d="M257.457 694H97.46a.92.92 0 01-.912-.915v-104.16a.917.917 0 01.268-.645.91.91 0 01.644-.268h2.025L257.457 694z" fill="#000"/><path d="M530.808 602.175H196.446v.913h334.362v-.913zM302.156 379.973h-95.56V378h-43.33v1.973H67.312a6.46 6.46 0 00-4.571 1.896 6.44 6.44 0 00-1.4 2.1 6.48 6.48 0 00-.492 2.477v131.048c0 1.717.68 3.363 1.893 4.577a6.46 6.46 0 004.571 1.896h234.844a6.46 6.46 0 004.571-1.896 6.48 6.48 0 001.893-4.577V386.446c0-.85-.167-1.692-.492-2.477a6.47 6.47 0 00-1.401-2.1 6.46 6.46 0 00-4.571-1.896z"/><path d="M299.952 391.41H69.516V521.6h230.436V391.41z" class="D"/><path d="M184.537 387.863a2.366 2.366 0 000-4.734c-1.304 0-2.363 1.06-2.363 2.367s1.058 2.367 2.363 2.367z" class="C"/><g class="B"><path d="M138.058 439.996h-5.474a1.367 1.367 0 01-1.367-1.37v-5.482a1.37 1.37 0 011.368-1.371h5.474a1.37 1.37 0 011.368 1.371v5.482a1.37 1.37 0 01-1.367 1.37zm-5.474-7.31a.454.454 0 00-.456.457v5.482c0 .12.048.237.134.323a.46.46 0 00.322.134h5.474a.46.46 0 00.322-.134.456.456 0 00.134-.323v-5.482a.456.456 0 00-.456-.457h-5.474z"/><path d="M235.675 439.083H131.672v.913h104.003v-.913z"/></g><path d="M232.938 464.21h-24.176v7.31h24.176v-7.31z" class="C"/><path d="M234.763 469.69H212.41a1.37 1.37 0 01-.967-.402 1.372 1.372 0 01-.4-.968v-5.482c0-.364.145-.712.4-.97a1.37 1.37 0 01.967-.402h22.352c.363 0 .71.145.967.402s.4.605.402.97v5.482a1.375 1.375 0 01-1.369 1.37zm-22.352-7.31a.456.456 0 00-.456.457v5.482c0 .12.05.237.134.322s.2.134.322.134h22.352a.454.454 0 00.456-.456v-5.482a.457.457 0 00-.456-.457H212.41z" class="B"/><path d="M417.682 472.432h-45.616v31.98h45.616v-31.98z" class="C"/><g class="B"><path d="M422.243 501.9h-43.79a1.83 1.83 0 01-1.289-.536 1.825 1.825 0 01-.535-1.292v-30.15a1.83 1.83 0 011.825-1.828h43.79c.484.001.948.193 1.3.536s.534.807.535 1.292v30.15c-.001.485-.193.95-.535 1.292a1.83 1.83 0 01-1.29.536zm-43.79-31.98v30.15h43.792l-.001-30.15h-43.79z"/><path d="M417.225 468.777H415.4c0-3.998-1.586-7.833-4.4-10.66s-6.652-4.415-10.644-4.415a15.04 15.04 0 00-10.644 4.415 15.09 15.09 0 00-4.41 10.66h-1.825c0-4.483 1.778-8.782 4.943-11.952s7.458-4.95 11.935-4.95a16.86 16.86 0 0111.934 4.95 16.92 16.92 0 014.943 11.952zM404.9 481.34a4.57 4.57 0 00-.599-2.269 4.56 4.56 0 00-1.644-1.671 4.554 4.554 0 00-2.256-.634 4.56 4.56 0 00-2.273.572 4.681 4.681 0 00-1.7 1.626 4.58 4.58 0 00-.118 4.534 4.56 4.56 0 001.603 1.712v4.904a2.41 2.41 0 00.184.925c.12.294.3.56.523.785a2.38 2.38 0 00.784.524 2.415 2.415 0 002.631-.524 2.42 2.42 0 00.708-1.71V485.2a4.56 4.56 0 002.146-3.87zM188.007 635.067h-7.298v.914h7.298v-.914zm10.035 0h-7.298v.914h7.298v-.914zm10.036 0h-7.3v.914h7.3v-.914zm10.035 0h-7.298v.914h7.298v-.914zm10.037 0h-7.3v.914h7.3v-.914zm93.74 51.167H107.952a1.867 1.867 0 01-1.3-.536 1.83 1.83 0 01-.535-1.291v-104.16a1.83 1.83 0 011.825-1.828H321.9a1.83 1.83 0 011.824 1.828v104.16a1.82 1.82 0 01-.535 1.29 1.84 1.84 0 01-1.29.536zM107.952 580.247v104.16H321.9v-104.16H107.952z"/><use xlink:href="#B"/><path d="M127.1 595.78a2.741 2.741 0 100-5.482 2.741 2.741 0 100 5.482zm9.6 0a2.741 2.741 0 100-5.482 2.741 2.741 0 100 5.482zm98.53 45.683h-61.58c-.363 0-.7-.145-.967-.402a1.37 1.37 0 01-.401-.968V624.56a1.37 1.37 0 011.368-1.371h61.58a1.37 1.37 0 01.967.402 1.38 1.38 0 01.402.97v15.533c-.001.363-.145.7-.402.968s-.604.402-.967.402zm-61.58-17.36a.454.454 0 00-.322.134.46.46 0 00-.134.323v15.533a.454.454 0 00.456.456h61.58a.46.46 0 00.323-.134.45.45 0 00.133-.322V624.56a.46.46 0 00-.133-.323.456.456 0 00-.323-.134h-61.58z"/></g><path d="M250.73 641.92a8.22 8.22 0 008.21-8.223c0-4.542-3.676-8.223-8.2-8.223a8.22 8.22 0 100 16.446z" class="C"/><g class="B"><path d="M253.465 641.006a8.67 8.67 0 01-4.815-1.462 8.68 8.68 0 01-3.192-3.896 8.694 8.694 0 01-.493-5.015 8.68 8.68 0 012.372-4.444 8.66 8.66 0 014.438-2.376c1.68-.335 3.423-.163 5.007.494s2.937 1.77 3.9 3.197 1.46 3.106 1.46 4.822a8.69 8.69 0 01-2.541 6.135 8.67 8.67 0 01-6.126 2.545zm0-16.446a7.75 7.75 0 00-4.308 1.309 7.757 7.757 0 00-2.856 3.485 7.78 7.78 0 00-.441 4.488 7.77 7.77 0 002.122 3.976 7.747 7.747 0 008.45 1.684 7.76 7.76 0 003.48-2.861 7.778 7.778 0 001.307-4.315 7.78 7.78 0 00-2.274-5.489 7.756 7.756 0 00-5.48-2.277z"/><path d="M253.587 635.568l-4.416-4.423 1.3-1.292 2.883 2.887 8.042-11.447 1.493 1.052-9.292 13.223z"/></g><path opacity=".1" d="M248.863 521.602H69.516V401.275l179.347 120.327z" fill="#000"/><g class="B"><path d="M315.1 519.233h-22.5V517.6a.325.325 0 00-.094-.227.318.318 0 00-.104-.07.32.32 0 00-.123-.024h-7.7a.325.325 0 00-.227.094.318.318 0 00-.07.104.32.32 0 00-.024.123v1.623h-4.82V517.6a.346.346 0 00-.025-.123.33.33 0 00-.069-.104.322.322 0 00-.105-.07.32.32 0 00-.123-.024h-7.7a.32.32 0 00-.123.024.334.334 0 00-.174.174.322.322 0 00-.025.123v1.623h-4.82V517.6a.325.325 0 00-.094-.227.318.318 0 00-.104-.07.32.32 0 00-.123-.024h-7.7a.325.325 0 00-.227.094c-.03.03-.053.065-.07.104s-.024.08-.024.123v1.623h-4.82V517.6c0-.042-.008-.084-.025-.123s-.04-.074-.07-.104a.33.33 0 00-.104-.07.325.325 0 00-.123-.024h-7.7a.325.325 0 00-.227.094.318.318 0 00-.07.104.32.32 0 00-.024.123v1.623h-4.82V517.6a.325.325 0 00-.094-.227.318.318 0 00-.104-.07.32.32 0 00-.123-.024h-7.7a.32.32 0 00-.123.024.334.334 0 00-.175.174.304.304 0 00-.025.123v1.623h-4.82V517.6a.325.325 0 00-.094-.227.318.318 0 00-.104-.07.32.32 0 00-.123-.024h-7.7a.325.325 0 00-.227.094.318.318 0 00-.07.104.32.32 0 00-.024.123v1.623h-4.82V517.6a.346.346 0 00-.025-.123.33.33 0 00-.069-.104.322.322 0 00-.105-.07.32.32 0 00-.123-.024h-60.4a.325.325 0 00-.227.094.318.318 0 00-.07.104.32.32 0 00-.024.123v1.623h-4.82V517.6a.346.346 0 00-.025-.123.33.33 0 00-.069-.104.322.322 0 00-.105-.07.32.32 0 00-.123-.024h-7.7a.325.325 0 00-.227.094.322.322 0 00-.095.227v1.623h-4.82V517.6a.325.325 0 00-.094-.227.318.318 0 00-.104-.07.32.32 0 00-.123-.024h-7.7a.325.325 0 00-.227.094c-.03.03-.053.065-.07.104s-.024.08-.024.123v1.623h-4.82V517.6c0-.042-.008-.084-.025-.123a.334.334 0 00-.174-.174.32.32 0 00-.123-.024h-7.7a.325.325 0 00-.227.094.318.318 0 00-.07.104.32.32 0 00-.024.123v1.623h-4.82V517.6a.325.325 0 00-.094-.227.318.318 0 00-.104-.07.32.32 0 00-.123-.024h-7.7a.32.32 0 00-.123.024.312.312 0 00-.105.07.32.32 0 00-.094.227v1.623h-4.82V517.6a.32.32 0 00-.094-.227.318.318 0 00-.104-.07.32.32 0 00-.123-.024h-7.7a.325.325 0 00-.227.094c-.03.03-.053.065-.07.104s-.024.08-.024.123v1.623h-4.82V517.6a.32.32 0 00-.094-.227.318.318 0 00-.104-.07.32.32 0 00-.123-.024h-7.7a.325.325 0 00-.227.094c-.03.03-.053.065-.07.104s-.024.08-.024.123v1.623H58.7c-1.013 0-2.015.2-2.95.588a7.71 7.71 0 00-2.501 1.674A7.72 7.72 0 0051.587 524a7.73 7.73 0 00-.587 2.955v3.492a7.73 7.73 0 002.258 5.461 7.703 7.703 0 005.452 2.26h256.4a7.7 7.7 0 002.951-.587 7.707 7.707 0 004.172-4.18c.386-.936.587-1.94.587-2.955v-3.492a7.74 7.74 0 00-.587-2.955 7.71 7.71 0 00-1.671-2.505 7.707 7.707 0 00-2.502-1.674 7.7 7.7 0 00-2.951-.588zm-70.302-41.776H124.373a1.37 1.37 0 01-.967-.401 1.375 1.375 0 01-.4-.97v-50.253c0-.363.145-.7.4-.968a1.36 1.36 0 01.967-.402h120.425a1.37 1.37 0 011.368 1.37v50.253c0 .363-.145.712-.4.97a1.36 1.36 0 01-.968.4zm-120.425-52.08a.454.454 0 00-.456.456v50.253a.46.46 0 00.134.323c.086.086.2.134.322.134h120.425a.46.46 0 00.323-.134.465.465 0 00.134-.323v-50.253a.46.46 0 00-.134-.322.456.456 0 00-.323-.134H124.373zm13.685 28.325h-5.474a1.37 1.37 0 01-1.368-1.371v-5.482a1.37 1.37 0 01.401-.969c.256-.257.604-.4.967-.4h5.474a1.37 1.37 0 011.368 1.369v5.482a1.37 1.37 0 01-1.368 1.371zm-5.474-7.3a.457.457 0 00-.456.457v5.482a.46.46 0 00.134.323c.086.086.2.134.322.134h5.474c.12 0 .237-.048.322-.134a.46.46 0 00.134-.323v-5.482a.46.46 0 00-.134-.323.452.452 0 00-.322-.134h-5.474z"/><path d="M235.675 452.788H131.672v.914h104.003v-.914zm270.5 48.425H171.814v.914h334.362v-.914z"/><path d="M171.814 507.6c3.527 0 6.386-2.864 6.386-6.396s-2.86-6.396-6.386-6.396-6.387 2.864-6.387 6.396 2.86 6.396 6.387 6.396zm334.362-.458c2.77 0 5.018-2.25 5.018-5.025s-2.247-5.025-5.018-5.025-5.018 2.25-5.018 5.025 2.247 5.025 5.018 5.025z"/><use xlink:href="#C"/><path d="M197.814 608.114c2.772 0 5.018-2.25 5.018-5.025s-2.246-5.026-5.018-5.026-5.017 2.25-5.017 5.026 2.246 5.025 5.017 5.025z"/></g></g><defs><path id="B" d="M117.53 595.78a2.74 2.74 0 100-5.482 2.74 2.74 0 100 5.482z"/><path id="C" d="M530.808 608.114c2.772 0 5.018-2.25 5.018-5.025s-2.246-5.026-5.018-5.026-5.017 2.25-5.017 5.026 2.246 5.025 5.017 5.025z"/><clipPath id="A"><path fill="#fff" transform="translate(51 378)" d="M0 0h502v316H0z"/></clipPath></defs></svg>