<svg width="104" height="104" viewBox="0 0 104 104" fill="none" xmlns="http://www.w3.org/2000/svg">
<path d="M96.7216 67.2845C96.8834 64.3731 96.7216 61.4618 95.9129 58.5504L102.383 53.6982L96.3981 42.2145L88.6345 44.8024C86.6936 42.538 84.4292 40.7588 81.8414 39.1414L83.1353 31.0543L70.8429 27.1725L67.2846 34.4509C67.1229 34.4509 66.9611 34.4509 66.9611 34.4509C67.2846 33.1569 67.4463 31.863 67.4463 30.4073C67.4463 24.0994 63.4028 18.2767 57.5801 16.1741C57.2566 7.27826 49.9782 0.161621 40.9207 0.161621C35.5832 0.161621 30.5692 2.74949 27.3344 7.11652C25.3935 5.98433 23.1291 5.33736 20.8647 5.33736C14.395 5.33736 9.05754 10.3514 8.57232 16.6593C3.23484 19.2472 0 24.4229 0 30.4073C0 38.8179 6.79316 45.6111 15.2037 45.6111H41.4059C40.5972 46.7433 39.7885 47.7137 38.9798 49.0076L30.8927 47.7137L27.1726 60.1678L34.451 63.7262C34.2893 66.6375 34.451 69.5489 35.2597 72.4602L28.79 77.3125L34.7745 88.7961L42.5381 86.2083C44.479 88.4727 46.7434 90.2518 49.3313 91.8692L48.0373 99.9563L60.3297 103.838L63.888 96.5597C66.7994 96.7215 69.7107 96.398 72.6221 95.751L77.4743 102.221L88.958 96.2363L86.3701 88.4727C88.6345 86.5318 90.4137 84.2674 92.0311 81.6795L100.118 82.9734L104 70.5193L96.7216 67.2845ZM3.39658 30.4073C3.39658 25.3933 6.30793 21.0263 10.9984 19.2472L11.9689 18.6002V17.468C11.9689 12.454 16.0124 8.41045 21.0264 8.41045C23.1291 8.41045 25.2317 9.21916 26.8491 10.5131L28.3048 11.807L29.437 10.1896C31.8631 5.98433 36.2302 3.39646 41.0824 3.39646C48.5225 3.39646 54.507 9.3809 54.507 16.821V18.6002L55.6392 18.9237C60.8149 20.3793 64.3732 25.2316 64.3732 30.5691C64.3732 37.2005 59.0358 42.538 52.4044 42.538H15.3655C8.73406 42.538 3.39658 37.0388 3.39658 30.4073ZM97.8538 79.7386L90.4137 78.6064L89.7667 79.5769C88.1493 82.4882 86.0467 85.0761 83.4588 87.1787L82.6501 87.8257L85.0762 94.9423L78.4448 98.3389L73.916 92.1927L72.7838 92.5162C69.549 93.3249 66.3142 93.6484 62.9176 93.3249L61.7854 93.1632L58.5505 100.118L51.4339 97.8537L52.5661 90.4136L51.5956 89.9283C48.6843 88.3109 46.2582 86.2083 43.9938 83.6204L43.3468 82.8117L36.2302 85.2378L32.8336 78.6064L38.9798 74.0776L38.6563 72.9454C37.8476 69.7106 37.5241 66.4758 37.8476 63.0792L38.0093 61.947L31.0544 58.5504L33.3188 51.4338L40.7589 52.566L41.2442 51.5955C42.5381 49.4929 43.9938 47.3902 45.7729 45.7728H52.0809C57.9036 45.7728 62.9176 42.538 65.5054 37.6857C66.3141 37.6857 67.1229 37.6857 67.9316 37.8475L69.0638 38.0092L72.4603 31.216L79.577 33.4804L78.6065 40.7588L79.577 41.244C82.4883 42.8615 84.9145 44.9641 87.1788 47.552L87.8258 48.3607L94.9425 45.9346L98.339 52.566L92.1928 57.0947L92.5163 58.2269C93.325 61.4618 93.6485 64.6966 93.325 68.0932L93.1633 69.2254L99.9565 72.622L97.8538 79.7386Z" fill="#052B5D"/>
</svg>
