<svg width="103" height="104" viewBox="0 0 103 104" fill="none" xmlns="http://www.w3.org/2000/svg">
<g clip-path="url(#clip0)">
<path d="M69.2385 76.424H33.7612C30.1986 76.424 27.3106 73.508 27.3106 69.9109V34.0891C27.3106 30.492 30.1986 27.5759 33.7612 27.5759H69.2387C72.8012 27.5759 75.6892 30.492 75.6892 34.0891V69.9111C75.689 73.508 72.801 76.424 69.2385 76.424Z" fill="#00C2CB"/>
<path d="M69.2385 71.5394H33.7611C32.8706 71.5394 32.1486 70.8104 32.1486 69.9112V34.0892C32.1486 33.19 32.8706 32.4609 33.7611 32.4609H69.2387C70.1293 32.4609 70.8513 33.19 70.8513 34.0892V69.9112C70.8513 70.8104 70.1293 71.5394 69.2385 71.5394Z" fill="#00C2CB"/>
<path d="M7.95933 42.2297C9.74032 42.2297 11.1841 40.7719 11.1841 38.9736C11.1841 37.1753 9.74032 35.7175 7.95933 35.7175C6.17834 35.7175 4.73456 37.1753 4.73456 38.9736C4.73456 40.7719 6.17834 42.2297 7.95933 42.2297Z" fill="#00C2CB"/>
<path d="M95.0413 68.2824C96.8223 68.2824 98.266 66.8246 98.266 65.0263C98.266 63.2281 96.8223 61.7703 95.0413 61.7703C93.2603 61.7703 91.8165 63.2281 91.8165 65.0263C91.8165 66.8246 93.2603 68.2824 95.0413 68.2824Z" fill="#00C2CB"/>
<path d="M4.73393 82.9357C6.51492 82.9357 7.9587 81.4779 7.9587 79.6797C7.9587 77.8814 6.51492 76.4236 4.73393 76.4236C2.95293 76.4236 1.50916 77.8814 1.50916 79.6797C1.50916 81.4779 2.95293 82.9357 4.73393 82.9357Z" fill="#00C2CB"/>
<path d="M98.266 27.5764C100.047 27.5764 101.491 26.1186 101.491 24.3203C101.491 22.522 100.047 21.0642 98.266 21.0642C96.485 21.0642 95.0412 22.522 95.0412 24.3203C95.0412 26.1186 96.485 27.5764 98.266 27.5764Z" fill="#00C2CB"/>
<path d="M64.4009 11.2929C66.1819 11.2929 67.6256 9.83513 67.6256 8.03684C67.6256 6.23856 66.1819 4.78076 64.4009 4.78076C62.6199 4.78076 61.1761 6.23856 61.1761 8.03684C61.1761 9.83513 62.6199 11.2929 64.4009 11.2929Z" fill="#00C2CB"/>
<path d="M38.5987 99.2202C40.3797 99.2202 41.8234 97.7624 41.8234 95.9641C41.8234 94.1658 40.3797 92.708 38.5987 92.708C36.8177 92.708 35.3739 94.1658 35.3739 95.9641C35.3739 97.7624 36.8177 99.2202 38.5987 99.2202Z" fill="#00C2CB"/>
<path d="M24.0862 8.03633C25.8672 8.03633 27.311 6.57853 27.311 4.78025C27.311 2.98197 25.8672 1.52417 24.0862 1.52417C22.3052 1.52417 20.8615 2.98197 20.8615 4.78025C20.8615 6.57853 22.3052 8.03633 24.0862 8.03633Z" fill="#00C2CB"/>
<path d="M78.9134 102.477C80.6944 102.477 82.1381 101.019 82.1381 99.2204C82.1381 97.4222 80.6944 95.9644 78.9134 95.9644C77.1324 95.9644 75.6886 97.4222 75.6886 99.2204C75.6886 101.019 77.1324 102.477 78.9134 102.477Z" fill="#00C2CB"/>
<path d="M51.4998 65.8625C51.9597 65.8625 52.3974 66.0606 52.703 66.4063C53.7565 67.5989 55.3015 68.2826 56.9425 68.2826C59.7645 68.2826 62.1347 66.2877 62.3379 63.7419C62.3803 63.2116 62.6781 62.7355 63.1331 62.4667C64.9095 61.4196 66.0135 59.5925 66.0135 57.6988C66.0135 56.3322 65.4496 55.0043 64.4244 53.9597C63.8024 53.3253 63.8024 52.3028 64.4244 51.6682C65.4496 50.6236 66.0135 49.2957 66.0135 47.9291C66.0135 45.4701 64.2355 43.3028 61.5897 42.5356C60.7661 42.2971 60.2717 41.4478 60.4638 40.6045C60.5362 40.2864 60.5708 40.0272 60.5708 39.7879C60.5708 37.5434 58.5362 35.7173 56.0354 35.7173C54.7425 35.7173 53.5047 36.219 52.6433 37.0935C52.0353 37.7073 50.9645 37.7073 50.3565 37.0935C49.4951 36.2188 48.2573 35.7173 46.9644 35.7173C44.4636 35.7173 42.429 37.5436 42.429 39.7879C42.429 40.0566 42.459 40.327 42.5157 40.59C42.6984 41.4295 42.2055 42.2676 41.3865 42.5053C38.755 43.2709 36.9865 45.4502 36.9865 47.9291C36.9865 49.1146 37.4086 50.2577 38.207 51.2366C38.681 51.8194 38.6983 52.6542 38.2464 53.2552C37.4229 54.3539 36.9865 55.6094 36.9865 56.8847C36.9865 58.9167 38.0763 60.8639 39.9031 62.0938C40.3473 62.3928 40.6164 62.8951 40.6213 63.435C40.6434 66.1079 43.0828 68.2824 46.0575 68.2824C47.6985 68.2824 49.2435 67.5987 50.297 66.4061C50.6022 66.0604 51.0399 65.8625 51.4998 65.8625Z" fill="#00C2CB"/>
<path d="M101.491 50.4766H77.1978V47.0105H83.7522C84.5854 47.0105 85.2609 46.3284 85.2609 45.4871C85.2609 44.6457 84.5854 43.9636 83.7522 43.9636H77.1978V40.4973H81.7483C83.4436 40.4973 85.0374 39.8309 86.236 38.6204L96.159 28.6011C96.8055 28.9263 97.5223 29.0994 98.2658 29.0994C99.5304 29.0994 100.719 28.6022 101.613 27.6995C102.508 26.7966 103 25.5963 103 24.3195C103 23.0427 102.508 21.8424 101.613 20.9395C100.719 20.0366 99.5304 19.5394 98.2658 19.5394C97.0013 19.5394 95.8126 20.0366 94.9184 20.9393C94.0241 21.8422 93.5317 23.0424 93.5317 24.3193C93.5317 25.07 93.7031 25.7938 94.0252 26.4466L84.1022 36.4659C83.4735 37.1007 82.6375 37.4505 81.7481 37.4505H77.1976V34.0892C77.1976 29.6578 73.627 26.0527 69.2385 26.0527H65.9095V12.5663C67.782 11.9287 69.1347 10.1398 69.1347 8.03665C69.1347 5.40091 67.0109 3.25673 64.4007 3.25673C61.7905 3.25673 59.6667 5.40111 59.6667 8.03665C59.6667 10.1398 61.0194 11.9285 62.8919 12.5663V26.0525H59.4591V19.4346C59.4591 18.5932 58.7836 17.9111 57.9504 17.9111C57.1171 17.9111 56.4416 18.5932 56.4416 19.4346V26.0525H53.0086V1.52368C53.0086 0.682335 52.3331 0.000244141 51.4998 0.000244141C50.6666 0.000244141 49.991 0.682335 49.991 1.52368V26.0525H46.5582V19.4346C46.5582 18.5932 45.8827 17.9111 45.0495 17.9111C44.2162 17.9111 43.5407 18.5932 43.5407 19.4346V26.0525H40.1079V21.4581C40.1079 19.7464 39.4476 18.137 38.2489 16.9268L28.3225 6.90403C29.1994 5.11633 28.9055 2.88725 27.4331 1.40038C25.5872 -0.463285 22.5839 -0.463082 20.7381 1.40038C18.8924 3.26404 18.8924 6.29648 20.7381 8.16035C21.6611 9.09208 22.8734 9.55805 24.0856 9.55805C24.8074 9.55805 25.528 9.38885 26.1889 9.05836L36.1152 19.0813C36.7441 19.7161 37.0903 20.5603 37.0903 21.4581V26.0525H33.7613C33.0884 26.0525 32.4191 26.1379 31.7722 26.3058C30.9653 26.5155 30.4794 27.346 30.687 28.161C30.8947 28.9759 31.7174 29.4665 32.5243 29.2566C32.9257 29.1524 33.3417 29.0994 33.7611 29.0994H69.2385C71.9633 29.0994 74.18 31.3378 74.18 34.089V69.9109C74.18 70.334 74.1277 70.7539 74.0247 71.1587C73.8173 71.9736 74.3033 72.804 75.1102 73.0134C75.2362 73.0461 75.3625 73.0618 75.487 73.0618C76.1592 73.0618 76.7721 72.605 76.9471 71.9172C77.1133 71.2647 77.1976 70.5896 77.1976 69.9107V66.5494H90.5541C91.1856 68.4401 92.9573 69.8059 95.0403 69.8059C97.6507 69.8059 99.7742 67.6617 99.7742 65.026C99.7742 62.3902 97.6505 60.2461 95.0403 60.2461C92.9573 60.2461 91.1858 61.6119 90.5541 63.5026H77.1976V60.0362H83.7519C84.5852 60.0362 85.2607 59.3541 85.2607 58.5128C85.2607 57.6715 84.5852 56.9894 83.7519 56.9894H77.1976V53.5235H101.491C102.324 53.5235 103 52.8414 103 52C103 51.1587 102.324 50.4766 101.491 50.4766ZM97.052 23.094C97.3763 22.7666 97.8072 22.5864 98.2656 22.5864C98.7241 22.5864 99.155 22.7666 99.4793 23.094C99.8036 23.4215 99.982 23.8566 99.982 24.3195C99.982 24.7824 99.8036 25.2175 99.4793 25.5449C99.155 25.8724 98.7241 26.0525 98.2656 26.0525C97.8072 26.0525 97.3763 25.8724 97.052 25.5449C96.7277 25.2175 96.5492 24.7824 96.5492 24.3195C96.5492 23.8566 96.7277 23.4213 97.052 23.094ZM64.4007 6.30359C65.3472 6.30359 66.1171 7.08115 66.1171 8.03665C66.1171 8.99215 65.347 9.76971 64.4007 9.76971C63.4544 9.76971 62.6843 8.99215 62.6843 8.03665C62.6843 7.08115 63.4542 6.30359 64.4007 6.30359ZM22.8715 6.00581C22.2023 5.33002 22.2023 4.23051 22.8715 3.55492C23.2063 3.21692 23.6457 3.04812 24.0854 3.04812C24.525 3.04812 24.9645 3.21712 25.2991 3.55492C25.9684 4.23071 25.9684 5.33022 25.2991 6.00602C24.63 6.68141 23.541 6.68161 22.8715 6.00581ZM95.0405 63.2931C95.987 63.2931 96.7569 64.0707 96.7569 65.0262C96.7569 65.9819 95.9868 66.7592 95.0405 66.7592C94.0942 66.7592 93.3241 65.9817 93.3241 65.0262C93.3239 64.0705 94.094 63.2931 95.0405 63.2931Z" fill="white"/>
<path d="M76.8109 94.9419L66.8846 84.9189C66.2557 84.2841 65.9095 83.4399 65.9095 82.5421V77.9477H69.2385C69.9114 77.9477 70.5805 77.8624 71.2272 77.6944C72.0341 77.4847 72.52 76.6542 72.3124 75.8392C72.1047 75.0245 71.2826 74.534 70.4751 74.7436C70.0739 74.8478 69.6579 74.9006 69.2385 74.9006H33.7611C31.0363 74.9006 28.8196 72.6622 28.8196 69.9111V34.0893C28.8196 33.6658 28.8719 33.2457 28.9751 32.8409C29.1829 32.0262 28.6971 31.1956 27.8902 30.9858C27.0831 30.7759 26.2605 31.2665 26.0529 32.0812C25.8863 32.734 25.802 33.4096 25.802 34.0893V37.4506H12.4452C11.8138 35.5599 10.0421 34.1941 7.95913 34.1941C5.34874 34.1941 3.22517 36.3383 3.22517 38.974C3.22517 41.6098 5.34894 43.7539 7.95913 43.7539C10.0421 43.7539 11.8136 42.3881 12.4452 40.4974H25.8018V43.9638H19.2474C18.4142 43.9638 17.7387 44.6459 17.7387 45.4872C17.7387 46.3285 18.4142 47.0106 19.2474 47.0106H25.8018V50.4767H1.50878C0.675532 50.4767 0 51.1588 0 52.0002C0 52.8415 0.675532 53.5236 1.50878 53.5236H25.8018V56.9897H19.2474C18.4142 56.9897 17.7387 57.6718 17.7387 58.5131C17.7387 59.3545 18.4142 60.0366 19.2474 60.0366H25.8018V63.5029H21.2513C19.556 63.5029 17.9622 64.1693 16.7636 65.3798L6.84062 75.3991C6.19406 75.0739 5.47729 74.9008 4.73376 74.9008C3.4692 74.9008 2.28048 75.3981 1.38627 76.3007C0.492467 77.2036 0 78.4041 0 79.6807C0 80.9574 0.492467 82.1578 1.38667 83.0607C2.28068 83.9636 3.4696 84.4606 4.73416 84.4606C5.99872 84.4606 7.18744 83.9634 8.08165 83.0607C8.97585 82.1578 9.46832 80.9576 9.46832 79.6807C9.46832 78.93 9.29692 78.2062 8.97485 77.5534L18.8978 67.5341C19.5265 66.8993 20.3625 66.5496 21.2519 66.5496H25.8024V69.9109C25.8024 74.3422 29.373 77.9473 33.7615 77.9473H37.0905V91.4335C35.218 92.0711 33.8653 93.86 33.8653 95.9632C33.8653 98.5989 35.9891 100.743 38.5993 100.743C41.2095 100.743 43.3333 98.5987 43.3333 95.9632C43.3333 93.86 41.9806 92.0713 40.1081 91.4335V77.9473H43.5409V84.5652C43.5409 85.4066 44.2164 86.0887 45.0496 86.0887C45.8829 86.0887 46.5584 85.4066 46.5584 84.5652V77.9473H49.991V102.477C49.991 103.318 50.6665 104 51.4998 104C52.333 104 53.0086 103.318 53.0086 102.477V77.9477H56.4414V84.5657C56.4414 85.407 57.1169 86.0891 57.9501 86.0891C58.7834 86.0891 59.4589 85.407 59.4589 84.5657V77.9477H62.8917V82.5421C62.8917 84.2539 63.552 85.8632 64.7507 87.0734L74.6771 97.0962C73.8002 98.8839 74.0941 101.113 75.5667 102.6C76.4895 103.532 77.7019 103.998 78.9142 103.998C80.1264 103.998 81.3389 103.532 82.2617 102.6C84.1074 100.736 84.1074 97.7037 82.2617 95.8401C80.7893 94.3532 78.5814 94.0564 76.8109 94.9419ZM7.95913 40.7071C7.01262 40.7071 6.24274 39.9295 6.24274 38.974C6.24274 38.0183 7.01282 37.241 7.95913 37.241C8.90544 37.241 9.67552 38.0185 9.67552 38.974C9.67573 39.9297 8.90564 40.7071 7.95913 40.7071ZM5.94762 80.9062C5.62334 81.2336 5.19243 81.4138 4.73396 81.4138C4.27549 81.4138 3.84458 81.2336 3.52029 80.9062C3.19601 80.5787 3.01757 80.1436 3.01757 79.6807C3.01757 79.2178 3.19601 78.7827 3.52029 78.4553C3.84458 78.1278 4.27549 77.9477 4.73396 77.9477C5.19243 77.9477 5.62334 78.1278 5.94762 78.4553C6.27191 78.7827 6.45035 79.2178 6.45035 79.6807C6.45035 80.1436 6.27191 80.5789 5.94762 80.9062ZM38.5989 97.6966C37.6524 97.6966 36.8825 96.9191 36.8825 95.9636C36.8825 95.0081 37.6526 94.2305 38.5989 94.2305C39.5452 94.2305 40.3153 95.0081 40.3153 95.9636C40.3153 96.9191 39.5454 97.6966 38.5989 97.6966ZM80.1281 100.446C79.4588 101.121 78.3698 101.121 77.7005 100.446C77.0312 99.7697 77.0312 98.6702 77.7005 97.9946C78.0353 97.6568 78.4748 97.4878 78.9144 97.4878C79.3539 97.4878 79.7935 97.6568 80.1281 97.9946C80.7972 98.6702 80.7972 99.7697 80.1281 100.446Z" fill="white"/>
<path d="M39.106 63.3942C39.106 63.3954 39.106 63.3966 39.106 63.3978C39.106 66.9314 42.2244 69.8062 46.0575 69.8062C48.2603 69.8062 50.2256 68.8558 51.5 67.3774C52.7744 68.8558 54.7396 69.8062 56.9425 69.8062C60.6313 69.8062 63.6567 67.1432 63.8792 63.7933C66.1197 62.4807 67.522 60.1816 67.522 57.699C67.522 55.8729 66.751 54.1309 65.4238 52.8142C66.7508 51.4976 67.522 49.7554 67.522 47.9295C67.522 44.6714 65.1619 41.9116 61.9309 41.0148C62.0265 40.6164 62.0796 40.2067 62.0796 39.7881C62.0796 36.7034 59.368 34.1938 56.0354 34.1938C54.2301 34.1938 52.6084 34.931 51.5 36.0961C50.3915 34.931 48.7697 34.1938 46.9646 34.1938C43.6318 34.1938 40.9204 36.7034 40.9204 39.7881C40.9204 40.2067 40.9735 40.6164 41.0691 41.0148C37.838 41.9113 35.4779 44.6712 35.4779 47.9295C35.4779 49.5218 36.036 51.0241 37.067 52.2648C36.0589 53.5825 35.4779 55.1821 35.4779 56.8851C35.4775 59.4753 36.8483 61.8939 39.106 63.3942ZM43.2984 43.7545C43.3119 43.7549 43.3254 43.7567 43.3387 43.7567C43.6831 43.7567 44.0293 43.6383 44.3127 43.396C44.8911 42.9016 45.0072 42.0627 44.6189 41.4316C44.6075 41.4129 44.597 41.3938 44.5849 41.3757C44.5787 41.3666 44.5712 41.3578 44.5648 41.3487C44.5415 41.3156 44.5175 41.2831 44.4916 41.2518C44.4908 41.2508 44.4902 41.2498 44.4894 41.249C44.2377 40.9485 43.9374 40.4513 43.9374 39.7879C43.9374 38.3833 45.2953 37.2405 46.964 37.2405C48.6327 37.2405 49.9906 38.3833 49.9906 39.7879C49.9906 40.6292 50.6661 41.3113 51.4994 41.3113C52.3326 41.3113 53.0082 40.6292 53.0082 39.7879C53.0082 38.3833 54.3661 37.2405 56.0348 37.2405C57.7035 37.2405 59.0614 38.3833 59.0614 39.7879C59.0614 40.1633 58.964 40.4834 58.8351 40.7466C57.9769 40.8285 57.1468 41.0379 56.3589 41.3735C55.591 41.7003 55.2311 42.5938 55.5548 43.3692C55.8785 44.1443 56.7634 44.5081 57.5313 44.1811C58.1835 43.9034 58.8852 43.7606 59.617 43.7549C59.6315 43.7553 59.6458 43.7567 59.6603 43.7567C59.6738 43.7567 59.687 43.7549 59.7005 43.7545C62.3526 43.772 64.5039 45.6377 64.5039 47.9291C64.5039 49.3695 63.636 50.6918 62.1822 51.4667C61.6873 51.7304 61.3775 52.2489 61.3775 52.814C61.3775 53.3791 61.6873 53.8977 62.1822 54.1614C63.636 54.9361 64.5039 56.2586 64.5039 57.699C64.5039 58.7729 64.0096 59.7972 63.1747 60.5632C62.3815 59.0802 60.9796 57.8997 59.2082 57.3378C58.4136 57.0857 57.5665 57.532 57.3166 58.3346C57.0668 59.1373 57.509 59.9924 58.3038 60.2445C59.8419 60.7326 60.8756 61.9999 60.8756 63.398C60.8756 65.2515 59.1109 66.7595 56.9417 66.7595C54.7726 66.7595 53.008 65.2515 53.008 63.398V53.6284C53.008 51.7749 54.7726 50.2671 56.9417 50.2671C57.7749 50.2671 58.4504 49.585 58.4504 48.7436C58.4504 47.9023 57.7749 47.2202 56.9417 47.2202C55.4824 47.2202 54.1273 47.6378 53.008 48.349V46.403C53.008 45.5617 52.3324 44.8796 51.4992 44.8796C50.6659 44.8796 49.9904 45.5617 49.9904 46.403V54.8605C49.4826 54.5388 48.9258 54.2725 48.3235 54.0813C47.5281 53.829 46.6815 54.2755 46.4319 55.0779C46.182 55.8806 46.624 56.7358 47.4188 56.988C48.957 57.4761 49.9904 58.7434 49.9904 60.1413V63.3978C49.9904 65.2513 48.2257 66.7593 46.0567 66.7593C43.8875 66.7593 42.1228 65.2513 42.1228 63.3978C42.1228 62.6034 42.4563 61.8311 43.0619 61.2234C43.6529 60.6303 43.6557 59.6656 43.0683 59.0688C42.4809 58.4721 41.5257 58.4692 40.9347 59.0623C40.5732 59.4253 40.262 59.8218 40.0033 60.2433C39.0505 59.3333 38.4943 58.1361 38.4943 56.8847C38.4943 54.6275 40.2487 52.6446 42.7607 52.0627C43.5728 51.8746 44.0802 51.0572 43.8939 50.2372C43.7076 49.417 42.8979 48.9049 42.086 49.093C41.0747 49.3272 40.1437 49.7182 39.3181 50.2315C38.7827 49.5527 38.4945 48.7577 38.4945 47.9291C38.4951 45.6377 40.6464 43.7722 43.2984 43.7545Z" fill="white"/>
</g>
<defs>
<clipPath id="clip0">
<rect width="103" height="104" fill="white"/>
</clipPath>
</defs>
</svg>
