<svg xmlns="http://www.w3.org/2000/svg" viewBox="0 0 100 100" fill="none"  xmlns:v="https://vecta.io/nano"><path d="M1.953 12.904h96.094v12.89H1.953v-12.89z" fill="#e6e8ec"/><path d="M33.15 58.453l.02.02c-4.672 4.447-7.584 10.726-7.584 17.686H11.328c0-10.9 4.508-20.744 11.762-27.774l.117.124 9.943 9.943z" fill="#00c2cb"/><path d="M77.24 48.71l-.123.125-9.96 9.96A24.33 24.33 0 0 0 50 51.747c-6.525 0-12.45 2.558-16.83 6.728l-.02-.02L23.1 48.387A38.54 38.54 0 0 1 50 37.489c10.627 0 20.252 4.285 27.24 11.22z" fill="#ffbd59"/><path d="M67.172 58.778L77.24 48.71c7.06 7.008 11.432 16.718 11.432 27.45H74.414c0-6.796-2.776-12.942-7.256-17.368l.014-.015z" fill="#f55f44"/><path d="M99.998 12.8c-.053-1.034-.906-1.854-1.95-1.854H1.953c-1.045 0-1.898.82-1.95 1.854l-.002.1V87.1c0 1.08.875 1.954 1.953 1.954h96.094c1.078 0 1.953-.875 1.953-1.954V12.793zm-96.1 2.03h92.188v9h-92.2v-9zm92.188 70.333h-92.2V27.74h92.188v57.415zM33.398 21.415H17.773a1.95 1.95 0 0 1-1.953-1.953c0-1.08.874-1.954 1.953-1.954h15.625c1.08 0 1.953.874 1.953 1.954a1.95 1.95 0 0 1-1.953 1.953zm-23.433 0c-1.08 0-1.954-.874-1.954-1.953s.874-1.954 1.952-1.954h.002c1.08 0 1.953.874 1.953 1.954a1.95 1.95 0 0 1-1.953 1.953zm68.72 25.98l-.07-.073A40.36 40.36 0 0 0 50 35.531a40.41 40.41 0 0 0-28.269 11.452l-.072.073C13.736 54.77 9.375 65.104 9.375 76.168c0 1.08.875 1.954 1.953 1.954h14.258c1.078 0 1.953-.875 1.953-1.954 0-6.2 2.48-11.992 6.98-16.277C38.7 55.898 44.207 53.7 50 53.7c5.95 0 11.557 2.303 15.785 6.484 4.304 4.256 6.676 9.93 6.676 15.984 0 1.08.875 1.954 1.953 1.954h14.258c1.078 0 1.953-.875 1.953-1.954a40.36 40.36 0 0 0-11.939-28.774zm-54.983 26.82h-10.37a36.37 36.37 0 0 1 9.767-23.05l7.326 7.33c-3.96 4.37-6.3 9.84-6.723 15.72zM50 49.793c-6.16 0-12.037 2.117-16.748 6l-7.344-7.346c6.684-5.824 15.164-9 24.092-9 9.1 0 17.7 3.3 24.435 9.313L67.1 56.1c-4.766-4.073-10.767-6.297-17.1-6.297zm26.297 24.42c-.416-5.717-2.647-11.064-6.42-15.378L77.21 51.5a36.42 36.42 0 0 1 9.457 22.712h-10.37z" fill="#052b5d"/><path d="M49.805 78.122c-.5 0-1-.19-1.38-.572l-10.937-10.94c-.763-.763-.763-2 0-2.763s2-.763 2.762 0l10.938 10.94c.763.763.763 2 0 2.763-.382.38-.88.572-1.38.572z" fill="#e6e8ec"/></svg>