<svg xmlns="http://www.w3.org/2000/svg" viewBox="0 0 104 104" fill="none"><path d="M64.534 1.625H15.42a4.92 4.92 0 00-4.902 4.902v91.15a4.92 4.92 0 004.902 4.902h49.115a4.92 4.92 0 004.902-4.902V6.527a4.92 4.92 0 00-4.902-4.902z" fill="#e4eaf8"/><path d="M14.58 97.676V6.527a4.92 4.92 0 014.902-4.902H15.42a4.92 4.92 0 00-4.902 4.902v91.15a4.92 4.92 0 004.902 4.902h4.063a4.92 4.92 0 01-4.902-4.902z" fill="#d8dce5"/><path d="M61.6 16.9H18.344a1.25 1.25 0 00-1.248 1.248v66.39a1.25 1.25 0 001.248 1.248H61.6a1.25 1.25 0 001.248-1.248V18.15a1.25 1.25 0 00-1.248-1.248z" fill="#5bddfc"/><g fill="#00c3ff"><path d="M21.16 84.54V18.15a1.25 1.25 0 011.248-1.248h-4.063a1.25 1.25 0 00-1.248 1.248v66.39a1.25 1.25 0 001.248 1.248h4.063a1.25 1.25 0 01-1.248-1.248z"/><path d="M61.6 16.9H18.344a1.25 1.25 0 00-1.248 1.248v8.413h45.762V18.15a1.25 1.25 0 00-1.248-1.248z"/></g><path d="M26.01 16.9h-7.665a1.25 1.25 0 00-1.248 1.248v8.413h8.913V16.9z" fill="#ff5050"/><path d="M21.16 18.304c0-.633.39-1.175.94-1.402h-3.755a1.25 1.25 0 00-1.248 1.248v8.413h4.063v-8.26z" fill="#ed3a3a"/><path d="M44.23 97.07h-8.504a2.31 2.31 0 01-2.302-2.302V93.61a2.31 2.31 0 012.302-2.302h8.504a2.31 2.31 0 012.302 2.302v1.158a2.31 2.31 0 01-2.302 2.302z" fill="#c3c8d1"/><path d="M44.228 94.188h-8.504a2.31 2.31 0 01-2.133-1.44 2.25 2.25 0 00-.17.86v1.158a2.31 2.31 0 002.302 2.302h8.504a2.31 2.31 0 002.302-2.302V93.61c0-.304-.06-.595-.17-.86a2.31 2.31 0 01-2.132 1.441z" fill="#b0b3b7"/><path d="M92.748 52.722h-5.776a14.792 14.792 0 00-1.8-4.37l4.084-4.084a.637.637 0 000-.9l-3.84-3.84a.637.637 0 00-.9 0l-4.084 4.084a14.58 14.58 0 00-4.371-1.81v-5.776a.636.636 0 00-.635-.635h-5.43a.636.636 0 00-.635.635v5.776c-1.57.367-3.04.984-4.37 1.8l-4.084-4.084a.637.637 0 00-.9 0l-3.84 3.84a.637.637 0 000 .9l4.084 4.084a14.299 14.299 0 00-1.8 4.37h-5.776a.636.636 0 00-.635.635v5.43c0 .35.284.635.635.635h5.776c.367 1.57.984 3.04 1.8 4.37l-4.084 4.084a.637.637 0 000 .9l3.84 3.84c.248.248.65.248.9 0l4.084-4.084a14.299 14.299 0 004.37 1.8v5.776c0 .35.285.635.635.635h5.43c.35 0 .635-.285.635-.635v-5.776c1.57-.367 3.04-.984 4.37-1.8l4.084 4.084c.248.248.65.248.9 0l3.84-3.84a.637.637 0 000-.9l-4.084-4.084a14.299 14.299 0 001.8-4.37h5.776c.35 0 .635-.285.635-.635v-5.43a.636.636 0 00-.635-.635zm-20.046 9.99a6.64 6.64 0 01-6.639-6.639 6.64 6.64 0 016.639-6.639 6.64 6.64 0 016.639 6.639 6.64 6.64 0 01-6.639 6.639z" fill="#ffc850"/><path d="M56.235 58.788v-5.43c0-.35.284-.635.635-.635h-4.214a.635.635 0 00-.635.635v5.43c0 .35.284.635.635.635h4.214a.635.635 0 01-.635-.635zm4.007-10.438a14.58 14.58 0 00-1.81 4.371h3.4c.38 0 .7-.254.812-.62a14.58 14.58 0 011.44-3.402.53.53 0 00-.078-.638l-3.795-3.795a.637.637 0 010-.9l2.258-2.258-1.582-1.582a.637.637 0 00-.9 0l-3.84 3.84a.637.637 0 000 .9l4.084 4.083zm-.022 20.427a.637.637 0 010-.9l3.726-3.726a.644.644 0 00.108-.775 14.584 14.584 0 01-1.446-3.498.62.62 0 00-.599-.456h-3.58c.367 1.57.984 3.04 1.8 4.37l-4.084 4.084a.637.637 0 000 .9l3.84 3.84c.248.248.65.248.9 0l1.582-1.582-2.258-2.258zm13.194-32.75c0-.35.285-.635.635-.635h-4.063a.635.635 0 00-.635.635v5.776h3.16c.502-.01.902-.5.902-.993v-4.783zm0 40.092v-5.15a.626.626 0 00-.626-.626H69.35v5.776c0 .35.284.635.635.635h4.063a.635.635 0 01-.635-.635z" fill="#f9b428"/><path d="M36.826 7.733a1.524 1.524 0 000 3.046h6.402a1.524 1.524 0 000-3.046h-6.402zm7.454 90.76a3.83 3.83 0 003.826-3.826v-1.158a3.83 3.83 0 00-3.826-3.826h-8.504a3.83 3.83 0 00-3.826 3.826v1.158a3.83 3.83 0 003.826 3.826h8.504zm-9.282-3.826v-1.158a.79.79 0 01.779-.779h8.504a.79.79 0 01.779.779v1.158a.79.79 0 01-.779.779h-8.504a.79.79 0 01-.779-.779zm57.8-43.57h-4.615a16.08 16.08 0 00-1.073-2.591l3.263-3.263c.408-.408.632-.95.632-1.527s-.225-1.12-.632-1.526l-3.84-3.84c-.842-.84-2.2-.84-3.053 0l-3.263 3.263a16.03 16.03 0 00-2.591-1.072v-4.615a2.16 2.16 0 00-2.159-2.159H71V25.7c0-.84-.682-1.523-1.523-1.523s-1.6.682-1.6 1.523v14.83c-.894.282-1.76.64-2.6 1.073l-.855-.856v-22.7a2.773 2.773 0 00-2.772-2.77H18.394a2.773 2.773 0 00-2.77 2.77v66.4a2.775 2.775 0 002.77 2.772H61.66a2.775 2.775 0 002.772-2.772V71.185l.855-.855a16.02 16.02 0 002.591 1.073l.085 5.2v20.963a3.384 3.384 0 01-3.38 3.38h-21c-.84 0-1.523.682-1.523 1.523A1.52 1.52 0 0043.582 104h21.003a6.434 6.434 0 006.426-6.426V78.176h4.457a2.16 2.16 0 002.16-2.16V71.4a16.06 16.06 0 002.591-1.073l3.263 3.263c.842.84 2.212.84 3.053 0l3.84-3.84c.408-.408.633-.95.633-1.527s-.225-1.12-.632-1.527l-3.276-3.26a16.06 16.06 0 001.073-2.591h4.615a2.16 2.16 0 002.159-2.159v-5.43a2.16 2.16 0 00-2.159-2.159zm-31.413-26.16H27.582v-6.614h33.802v6.614zM18.67 18.323h5.866v6.614H18.67v-6.614zm42.715 65.84H18.67v-56.18h42.715v9.925a2.17 2.17 0 00-2.414.442l-3.84 3.84a2.16 2.16 0 000 3.053l3.263 3.263a15.92 15.92 0 00-.439.921 16.15 16.15 0 00-.634 1.67h-4.615a2.16 2.16 0 00-2.159 2.159v1.192H24.842a1.524 1.524 0 000 3.046h25.705v1.2a2.16 2.16 0 002.159 2.159h4.615a16 16 0 001.073 2.591L55.13 66.7a2.16 2.16 0 000 3.053l3.84 3.84a2.17 2.17 0 002.414.442v10.13zM91.9 57.798h-4.888a1.52 1.52 0 00-1.483 1.176 13.04 13.04 0 01-1.621 3.914 1.52 1.52 0 00.217 1.88l3.456 3.456-2.584 2.584-3.456-3.456a1.51 1.51 0 00-1.88-.217 13.04 13.04 0 01-3.914 1.621 1.52 1.52 0 00-1.177 1.483v4.888h-3.654V70.24a1.52 1.52 0 00-1.177-1.483 13.03 13.03 0 01-3.914-1.621 1.52 1.52 0 00-1.88.217L60.498 70.8l-2.584-2.584 3.456-3.456c.5-.5.6-1.28.217-1.882a13.05 13.05 0 01-1.62-3.914 1.52 1.52 0 00-1.483-1.176h-4.888v-3.654h4.888a1.52 1.52 0 001.483-1.176 13.223 13.223 0 011.62-3.914 1.52 1.52 0 00-.217-1.881l-3.456-3.456 2.584-2.584 3.456 3.456a1.51 1.51 0 001.88.217 13.04 13.04 0 013.914-1.62 1.52 1.52 0 001.177-1.483v-4.888h3.654V41.7a1.52 1.52 0 001.177 1.483 13.03 13.03 0 013.914 1.621c.6.373 1.38.283 1.88-.217l3.456-3.456 2.584 2.584-3.456 3.456a1.51 1.51 0 00-.217 1.88 13.04 13.04 0 011.62 3.914 1.52 1.52 0 001.483 1.176h4.88v3.654zM72.752 47.8c-4.5 0-8.162 3.66-8.162 8.162s3.662 8.162 8.162 8.162 8.162-3.66 8.162-8.162a8.17 8.17 0 00-8.162-8.162zm0 13.278c-2.82 0-5.115-2.295-5.115-5.115s2.295-5.115 5.115-5.115 5.115 2.295 5.115 5.115-2.295 5.115-5.115 5.115zm-47.9-20.148h27.23a1.524 1.524 0 000-3.046h-27.23a1.524 1.524 0 000 3.046zm0 8.277h27.23a1.524 1.524 0 000-3.046h-27.23a1.524 1.524 0 000 3.046zm27.228 13.51H24.84a1.524 1.524 0 000 3.046h27.23a1.524 1.524 0 000-3.046zm0 8.277H24.84c-.84 0-1.523.682-1.523 1.523S24 74.05 24.842 74.05h27.23a1.524 1.524 0 000-3.046zm-15.598 29.95H15.47a3.384 3.384 0 01-3.38-3.38V6.426a3.383 3.383 0 013.38-3.38h49.116a3.384 3.384 0 013.38 3.38V18.6c0 .84.682 1.523 1.523 1.523S71 19.442 71 18.6V6.426C71 2.883 68.128 0 64.585 0H15.47a6.434 6.434 0 00-6.426 6.426v91.15a6.434 6.434 0 006.426 6.426h21.003a1.524 1.524 0 00-.001-3.047z" fill="#000"/></svg>