<svg width="103" height="104" viewBox="0 0 103 104" fill="none" xmlns="http://www.w3.org/2000/svg">
<g clip-path="url(#clip0)">
<path d="M69.2401 76.424H33.7601C30.1971 76.424 27.3101 73.508 27.3101 69.911V34.09C27.3101 30.493 30.1981 27.577 33.7601 27.577H69.2401C72.8031 27.577 75.6901 30.493 75.6901 34.09V69.91C75.6901 73.507 72.8021 76.423 69.2401 76.423V76.424Z" fill="#00C2CB"/>
<path d="M69.2399 71.54H33.7599C33.5471 71.539 33.3367 71.496 33.1405 71.4136C32.9444 71.3312 32.7664 71.211 32.6167 71.0599C32.467 70.9087 32.3486 70.7295 32.2681 70.5326C32.1877 70.3356 32.1468 70.1247 32.1479 69.912V34.1C32.1468 33.8873 32.1877 33.6764 32.2681 33.4794C32.3486 33.2825 32.467 33.1033 32.6167 32.9521C32.7664 32.801 32.9444 32.6808 33.1405 32.5984C33.3367 32.516 33.5471 32.473 33.7599 32.472H69.2399C69.4527 32.4729 69.6633 32.5158 69.8595 32.5981C70.0558 32.6804 70.2339 32.8006 70.3837 32.9518C70.5335 33.103 70.652 33.2822 70.7325 33.4792C70.813 33.6762 70.8539 33.8872 70.8529 34.1V69.9C70.8539 70.1128 70.813 70.3238 70.7325 70.5208C70.652 70.7178 70.5335 70.897 70.3837 71.0482C70.2339 71.1994 70.0558 71.3196 69.8595 71.4019C69.6633 71.4842 69.4527 71.5271 69.2399 71.528V71.54ZM7.95986 42.23C9.73986 42.23 11.1849 40.772 11.1849 38.974C11.1849 37.176 9.73986 35.718 7.95986 35.718C6.17986 35.718 4.73486 37.176 4.73486 38.974C4.73486 40.772 6.17786 42.23 7.95986 42.23Z" fill="#00C2CB"/>
<path d="M95.0399 68.282C96.8199 68.282 98.2649 66.824 98.2649 65.026C98.2649 63.228 96.8209 61.77 95.0399 61.77C93.2589 61.77 91.8149 63.228 91.8149 65.026C91.8149 66.824 93.2589 68.282 95.0399 68.282Z" fill="#00C2CB"/>
<path d="M4.734 82.936C6.514 82.936 7.959 81.478 7.959 79.68C7.959 77.882 6.515 76.424 4.734 76.424C2.953 76.424 1.5 77.88 1.5 79.68C1.5 81.48 2.944 82.936 4.725 82.936H4.734ZM98.266 27.576C100.046 27.576 101.491 26.118 101.491 24.32C101.491 22.522 100.047 21.064 98.266 21.064C96.485 21.064 95.041 22.522 95.041 24.32C95.041 26.118 96.485 27.576 98.266 27.576ZM64.4 11.293C66.18 11.293 67.625 9.835 67.625 8.037C67.625 6.239 66.182 4.78 64.4 4.78C62.618 4.78 61.175 6.238 61.175 8.036C61.175 9.834 62.619 11.292 64.4 11.292V11.293ZM38.6 99.22C40.38 99.22 41.825 97.762 41.825 95.964C41.825 94.166 40.381 92.708 38.6 92.708C36.819 92.708 35.375 94.166 35.375 95.964C35.375 97.762 36.82 99.22 38.6 99.22ZM24.086 8.036C25.866 8.036 27.311 6.578 27.311 4.78C27.311 2.982 25.867 1.524 24.086 1.524C22.305 1.524 20.86 2.982 20.86 4.78C20.86 6.578 22.304 8.036 24.085 8.036H24.086ZM78.913 102.476C80.693 102.476 82.138 101.018 82.138 99.219C82.138 97.42 80.694 95.963 78.913 95.963C77.132 95.963 75.688 97.421 75.688 99.219C75.688 101.017 77.132 102.476 78.913 102.476ZM51.5 65.863C51.96 65.863 52.398 66.061 52.703 66.407C53.756 67.6 55.301 68.283 56.943 68.283C59.765 68.283 62.135 66.288 62.338 63.743C62.3585 63.4823 62.4415 63.2303 62.5798 63.0084C62.7182 62.7865 62.9079 62.6012 63.133 62.468C64.909 61.421 66.013 59.594 66.013 57.7C66.013 56.333 65.449 55.006 64.413 53.96C64.114 53.6537 63.9466 53.2426 63.9466 52.8145C63.9466 52.3864 64.114 51.9753 64.413 51.669C65.438 50.624 66.013 49.296 66.013 47.929C66.013 45.469 64.235 43.303 61.589 42.536C61.1906 42.4183 60.8521 42.1528 60.6429 41.7939C60.4336 41.435 60.3692 41.0097 60.463 40.605C60.535 40.287 60.57 40.028 60.57 39.788C60.57 37.543 58.535 35.718 56.035 35.718C54.742 35.718 53.505 36.22 52.643 37.094C52.035 37.708 50.963 37.708 50.356 37.094C49.496 36.219 48.256 35.718 46.964 35.718C44.464 35.718 42.429 37.544 42.429 39.788C42.4296 40.0577 42.4588 40.3265 42.516 40.59C42.6051 40.9928 42.5381 41.4144 42.3286 41.7698C42.1191 42.1252 41.7826 42.3879 41.387 42.505C38.757 43.271 36.987 45.45 36.987 47.929C36.987 49.115 37.409 50.259 38.207 51.237C38.4378 51.521 38.567 51.8739 38.5741 52.2398C38.5812 52.6056 38.4657 52.9634 38.246 53.256C37.422 54.356 36.986 55.61 36.986 56.886C36.986 58.918 38.086 60.866 39.903 62.086C40.347 62.386 40.616 62.886 40.621 63.426C40.643 66.099 43.083 68.273 46.057 68.273C47.697 68.273 49.243 67.589 50.297 66.397C50.602 66.051 51.04 65.853 51.5 65.853V65.863Z" fill="white"/>
<path d="M101.5 50.477H77.198V47H83.752C84.585 47 85.252 46.318 85.252 45.477C85.252 44.636 84.577 43.954 83.752 43.954H77.198V40.488H81.748C82.5834 40.4899 83.4108 40.3248 84.1815 40.0025C84.9522 39.6802 85.6507 39.2071 86.236 38.611L96.16 28.6C96.806 28.925 97.523 29.098 98.267 29.098C98.89 29.0992 99.507 28.9759 100.082 28.7355C100.656 28.4951 101.177 28.1424 101.614 27.698C102.056 27.2535 102.405 26.7265 102.643 26.1469C102.881 25.5673 103.002 24.9465 103 24.32C103.002 23.6931 102.881 23.0719 102.643 22.4919C102.405 21.912 102.055 21.3846 101.613 20.94C101.177 20.4939 100.656 20.1393 100.082 19.8973C99.5067 19.6553 98.8893 19.5306 98.2655 19.5306C97.6418 19.5306 97.0243 19.6553 96.4495 19.8973C95.8746 20.1393 95.3539 20.4939 94.918 20.94C94.4761 21.3846 94.1261 21.912 93.8881 22.4919C93.6501 23.0719 93.5288 23.6931 93.531 24.32C93.5291 25.0575 93.6978 25.7855 94.024 26.447L84.1 36.467C83.793 36.7797 83.4267 37.0279 83.0224 37.197C82.6182 37.3662 82.1842 37.4529 81.746 37.452H77.196V34.092C77.196 29.662 73.626 26.056 69.236 26.056H65.9V12.556C67.773 11.918 69.125 10.129 69.125 8.026C69.125 5.39 67.001 3.246 64.391 3.246C61.781 3.246 59.657 5.39 59.657 8.026C59.657 10.129 61.01 11.918 62.882 12.556V26.042H59.46V19.424C59.46 18.584 58.785 17.901 57.96 17.901C57.135 17.901 56.46 18.583 56.46 19.424V26.042H53V1.524C53 0.682 52.333 0 51.5 0C50.667 0 50 0.682 50 1.523V26.053H46.567V19.435C46.567 18.595 45.892 17.912 45.067 17.912C44.242 17.912 43.567 18.594 43.567 19.435V26.053H40.134V21.46C40.1371 20.6197 39.9744 19.7871 39.6552 19.0098C39.336 18.2324 38.8667 17.5257 38.274 16.93L28.354 6.905C29.231 5.117 28.937 2.888 27.454 1.401C27.0161 0.958512 26.4947 0.607247 25.9201 0.367519C25.3455 0.127792 24.7291 0.00435838 24.1065 0.00435838C23.4839 0.00435838 22.8675 0.127792 22.2929 0.367519C21.7184 0.607247 21.197 0.958512 20.759 1.401C19.8723 2.30253 19.3753 3.51644 19.3753 4.781C19.3753 6.04556 19.8723 7.25947 20.759 8.161C21.682 9.093 22.894 9.559 24.107 9.559C24.8373 9.55762 25.5573 9.38645 26.21 9.059L36.136 19.082C36.766 19.717 37.111 20.562 37.111 21.459V26.053H33.781C33.1097 26.0528 32.441 26.1378 31.791 26.306C30.984 26.506 30.498 27.346 30.706 28.161C30.914 28.976 31.736 29.466 32.543 29.257C32.943 29.153 33.36 29.1 33.78 29.1H69.26C71.985 29.1 74.202 31.338 74.202 34.1V69.9C74.202 70.323 74.15 70.743 74.047 71.148C73.84 71.963 74.327 72.793 75.133 73.003C75.2562 73.0349 75.3828 73.0511 75.51 73.051C75.8461 73.0498 76.1722 72.9366 76.4366 72.7292C76.7011 72.5218 76.8888 72.2321 76.97 71.906C77.136 71.254 77.22 70.578 77.22 69.9V66.54H90.577C91.207 68.44 92.98 69.796 95.063 69.796C97.663 69.796 99.797 67.652 99.797 65.016C99.797 62.38 97.673 60.236 95.063 60.236C92.98 60.236 91.208 61.602 90.577 63.493H77.217V60.027H83.771C84.604 60.027 85.271 59.345 85.271 58.504C85.271 57.663 84.596 56.981 83.771 56.981H77.217V53.515H101.51C102.343 53.515 103.01 52.833 103.01 51.992C103.01 51.151 102.334 50.469 101.51 50.469L101.5 50.477ZM97.06 23.094C97.2185 22.9329 97.4074 22.805 97.6159 22.7178C97.8243 22.6305 98.0481 22.5857 98.274 22.586C98.734 22.586 99.174 22.766 99.488 23.094C99.6483 23.2553 99.7753 23.4466 99.8616 23.6569C99.9479 23.8673 99.9919 24.0926 99.991 24.32C99.9917 24.5472 99.9477 24.7723 99.8614 24.9825C99.7751 25.1927 99.6482 25.3838 99.488 25.545C99.164 25.873 98.733 26.053 98.274 26.053C97.815 26.053 97.374 25.873 97.06 25.545C96.8998 25.3838 96.773 25.1927 96.6867 24.9825C96.6004 24.7723 96.5563 24.5472 96.557 24.32C96.5562 24.0926 96.6002 23.8673 96.6865 23.6569C96.7728 23.4466 96.8997 23.2553 97.06 23.094V23.094ZM64.4 6.304C65.347 6.304 66.116 7.082 66.116 8.037C66.116 8.992 65.347 9.77 64.4 9.77C63.453 9.77 62.684 8.992 62.684 8.037C62.684 7.082 63.454 6.304 64.4 6.304V6.304ZM22.87 6.006C22.5491 5.67883 22.3693 5.23881 22.3693 4.7805C22.3693 4.32219 22.5491 3.88217 22.87 3.555C23.205 3.217 23.644 3.048 24.084 3.048C24.524 3.048 24.964 3.218 25.298 3.555C25.619 3.88217 25.7988 4.32219 25.7988 4.7805C25.7988 5.23881 25.619 5.67883 25.298 6.006C25.1391 6.16625 24.95 6.29343 24.7416 6.38023C24.5332 6.46703 24.3097 6.51171 24.084 6.51171C23.8583 6.51171 23.6348 6.46703 23.4265 6.38023C23.2181 6.29343 23.029 6.16625 22.87 6.006V6.006ZM95.04 63.293C95.987 63.293 96.756 64.071 96.756 65.026C96.756 65.981 95.986 66.759 95.04 66.759C94.094 66.759 93.324 65.981 93.324 65.026C93.324 64.071 94.094 63.293 95.04 63.293ZM76.8 94.942L66.885 84.92C66.255 84.285 65.91 83.44 65.91 82.543V77.95H69.24C69.9114 77.9502 70.5801 77.8652 71.23 77.697C72.037 77.497 72.523 76.657 72.315 75.842C72.107 75.027 71.285 74.537 70.478 74.746C70.074 74.8506 69.6584 74.9033 69.241 74.903H33.76C31.035 74.903 28.82 72.665 28.82 69.903V34.1C28.82 33.676 28.872 33.256 28.975 32.852C29.183 32.037 28.697 31.207 27.89 30.997C27.083 30.787 26.26 31.277 26.053 32.092C25.886 32.745 25.803 33.42 25.803 34.1V37.46H12.445C11.815 35.56 10.042 34.203 7.95903 34.203C5.35903 34.203 3.22503 36.347 3.22503 38.983C3.22503 41.619 5.34903 43.763 7.95903 43.763C10.042 43.763 11.813 42.397 12.445 40.506H25.802V43.972H19.248C18.415 43.972 17.748 44.654 17.748 45.495C17.748 46.336 18.423 47.018 19.248 47.018H25.802V50.484H1.50003C0.676031 50.477 3.10149e-05 51.16 3.10149e-05 52C3.10149e-05 52.84 0.676031 53.523 1.50003 53.523H25.793V57H19.25C18.417 57 17.75 57.682 17.75 58.523C17.75 59.364 18.425 60.046 19.25 60.046H25.804V63.512H21.254C20.4186 63.5101 19.5913 63.6752 18.8206 63.9975C18.0499 64.3198 17.3513 64.7929 16.766 65.389L6.84003 75.4C6.18628 75.0716 5.46463 74.901 4.73303 74.902C4.11004 74.9008 3.49309 75.0241 2.91835 75.2645C2.34361 75.5049 1.82266 75.8576 1.38603 76.302C0.492031 77.204 3.10149e-05 78.404 3.10149e-05 79.68C-0.00222956 80.3069 0.119106 80.9281 0.357099 81.5081C0.595091 82.088 0.945073 82.6154 1.38703 83.06C1.82366 83.5044 2.34461 83.8571 2.91935 84.0975C3.49409 84.3379 4.11104 84.4612 4.73403 84.46C5.35702 84.4612 5.97397 84.3379 6.54871 84.0975C7.12345 83.8571 7.64441 83.5044 8.08103 83.06C8.52299 82.6154 8.87297 82.088 9.11096 81.5081C9.34896 80.9281 9.47029 80.3069 9.46803 79.68C9.46999 78.9425 9.30126 78.2145 8.97503 77.553L18.898 67.533C19.2051 67.2205 19.5715 66.9725 19.9758 66.8035C20.38 66.6345 20.8139 66.548 21.252 66.549H25.802V69.909C25.802 74.339 29.372 77.945 33.762 77.945H37.092V91.43C35.22 92.068 33.867 93.857 33.867 95.96C33.867 98.596 35.991 100.74 38.601 100.74C41.211 100.74 43.335 98.596 43.335 95.96C43.335 93.857 41.982 92.068 40.11 91.43V77.947H43.543V84.565C43.543 85.405 44.218 86.088 45.043 86.088C45.868 86.088 46.543 85.406 46.543 84.565V77.947H49.976V102.477C49.976 103.317 50.651 104 51.476 104C52.301 104 52.976 103.318 52.976 102.477V77.947H56.409V84.565C56.409 85.405 57.084 86.088 57.909 86.088C58.734 86.088 59.409 85.406 59.409 84.565V77.947H62.842V82.541C62.839 83.3813 63.0017 84.2139 63.3209 84.9912C63.64 85.7686 64.1094 86.4753 64.702 87.071L74.628 97.094C73.751 98.882 74.045 101.111 75.528 102.598C76.451 103.53 77.663 103.996 78.875 103.996C80.087 103.996 81.3 103.53 82.223 102.598C83.1098 101.696 83.6068 100.483 83.6068 99.218C83.6068 97.9534 83.1098 96.7395 82.223 95.838C80.751 94.351 78.543 94.054 76.773 94.94L76.8 94.942ZM7.96003 40.707C7.01303 40.707 6.24403 39.929 6.24403 38.974C6.24403 38.019 7.01403 37.241 7.96003 37.241C8.90603 37.241 9.67603 38.019 9.67603 38.974C9.67603 39.929 8.90603 40.707 7.96003 40.707ZM5.94803 80.907C5.78959 81.0681 5.60063 81.196 5.39218 81.2832C5.18373 81.3705 4.95999 81.4153 4.73403 81.415C4.27403 81.415 3.83403 81.235 3.52003 80.907C3.35985 80.7458 3.23299 80.5547 3.14668 80.3445C3.06038 80.1343 3.01632 79.9092 3.01703 79.682C3.01632 79.4548 3.06038 79.2297 3.14668 79.0195C3.23299 78.8093 3.35985 78.6182 3.52003 78.457C3.84403 78.129 4.27503 77.949 4.73403 77.949C5.19303 77.949 5.63403 78.129 5.94803 78.457C6.10821 78.6182 6.23508 78.8093 6.32138 79.0195C6.40769 79.2297 6.45174 79.4548 6.45103 79.682C6.45174 79.9092 6.40769 80.1343 6.32138 80.3445C6.23508 80.5547 6.10821 80.7458 5.94803 80.907V80.907ZM38.598 97.707C37.651 97.707 36.882 96.929 36.882 95.974C36.882 95.019 37.652 94.241 38.598 94.241C39.544 94.241 40.314 95.019 40.314 95.974C40.314 96.929 39.544 97.707 38.598 97.707ZM80.128 100.457C79.9691 100.617 79.78 100.744 79.5716 100.831C79.3632 100.918 79.1397 100.963 78.914 100.963C78.6883 100.963 78.4648 100.918 78.2565 100.831C78.0481 100.744 77.859 100.617 77.7 100.457C77.3791 100.13 77.1993 99.6898 77.1993 99.2315C77.1993 98.7732 77.3791 98.3332 77.7 98.006C78.035 97.668 78.474 97.499 78.914 97.499C79.354 97.499 79.794 97.669 80.128 98.006C80.449 98.3332 80.6288 98.7732 80.6288 99.2315C80.6288 99.6898 80.449 100.13 80.128 100.457V100.457ZM39.106 63.394C39.106 66.931 42.224 69.806 46.056 69.806C48.259 69.806 50.224 68.856 51.499 67.376C52.773 68.854 54.739 69.806 56.942 69.806C60.642 69.806 63.656 67.143 63.879 63.793C66.119 62.48 67.522 60.181 67.522 57.699C67.522 55.873 66.752 54.131 65.424 52.814C66.751 51.497 67.522 49.754 67.522 47.929C67.522 44.671 65.162 41.911 61.922 41.014C62.018 40.616 62.072 40.206 62.072 39.787C62.072 36.702 59.36 34.193 56.028 34.193C54.223 34.193 52.601 34.93 51.493 36.095C50.385 34.93 48.763 34.193 46.958 34.193C43.625 34.193 40.914 36.693 40.914 39.787C40.9148 40.2005 40.9651 40.6125 41.064 41.014C37.834 41.91 35.464 44.67 35.464 47.929C35.464 49.521 36.022 51.024 37.064 52.264C36.056 53.582 35.464 55.181 35.464 56.884C35.464 59.484 36.834 61.884 39.092 63.384L39.106 63.394ZM43.298 43.754L43.338 43.756C43.682 43.756 44.038 43.638 44.312 43.396C44.89 42.902 45.006 42.063 44.618 41.432L44.584 41.376L44.564 41.349L44.491 41.252C44.237 40.949 43.937 40.452 43.937 39.788C43.937 38.383 45.295 37.241 46.964 37.241C48.633 37.241 49.991 38.384 49.991 39.788C49.991 40.628 50.666 41.311 51.491 41.311C52.316 41.311 52.991 40.629 52.991 39.788C52.991 38.383 54.349 37.241 56.018 37.241C57.687 37.241 59.045 38.384 59.045 39.788C59.0446 40.1208 58.9672 40.449 58.819 40.747C57.961 40.829 57.131 41.047 56.343 41.374C55.9732 41.5338 55.6814 41.8331 55.5308 42.2068C55.3803 42.5805 55.3833 42.9985 55.539 43.37C55.863 44.145 56.739 44.51 57.516 44.182C58.1762 43.903 58.8853 43.7582 59.602 43.756L59.645 43.758C59.659 43.758 59.672 43.756 59.685 43.756C62.337 43.773 64.488 45.639 64.488 47.931C64.488 49.371 63.62 50.694 62.166 51.469C61.671 51.733 61.361 52.251 61.361 52.816C61.361 53.381 61.661 53.9 62.166 54.163C63.62 54.938 64.488 56.26 64.488 57.701C64.488 58.775 63.994 59.799 63.158 60.565C62.365 59.082 60.963 57.902 59.191 57.34C58.396 57.088 57.549 57.534 57.299 58.337C57.049 59.14 57.491 59.995 58.286 60.237C59.824 60.725 60.858 61.992 60.858 63.391C60.858 65.244 59.093 66.751 56.924 66.751C54.755 66.751 53 65.243 53 63.39V53.62C53 51.767 54.765 50.26 56.934 50.26C57.767 50.26 58.434 49.578 58.434 48.737C58.434 47.896 57.759 47.214 56.934 47.214C55.474 47.214 54.12 47.632 53 48.344V46.4C53 45.56 52.324 44.877 51.5 44.877C50.676 44.877 50 45.563 50 46.404V54.862C49.4802 54.5317 48.9199 54.2699 48.333 54.083C47.538 53.831 46.691 54.277 46.441 55.08C46.191 55.883 46.633 56.738 47.428 56.98C48.958 57.477 50 58.744 50 60.14V63.396C50 65.25 48.235 66.756 46.066 66.756C43.897 66.756 42.132 65.248 42.132 63.396C42.132 62.602 42.466 61.829 43.072 61.222C43.672 60.629 43.666 59.664 43.078 59.067C42.939 58.9253 42.7732 58.8127 42.5903 58.7356C42.4074 58.6585 42.211 58.6184 42.0125 58.6178C41.814 58.6171 41.6173 58.6559 41.4339 58.7318C41.2505 58.8077 41.084 58.9193 40.944 59.06C40.5888 59.4161 40.2764 59.8125 40.013 60.241C39.06 59.341 38.513 58.134 38.513 56.881C38.513 54.624 40.267 52.641 42.779 52.059C43.591 51.871 44.099 51.054 43.912 50.234C43.8688 50.04 43.7876 49.8564 43.6733 49.6938C43.5589 49.5312 43.4136 49.3928 43.2456 49.2865C43.0776 49.1803 42.8903 49.1082 42.6944 49.0745C42.4985 49.0407 42.2979 49.046 42.104 49.09C41.1251 49.3147 40.1899 49.6992 39.336 50.228C38.801 49.548 38.512 48.754 38.512 47.926C38.513 45.626 40.664 43.769 43.316 43.751L43.298 43.754Z" fill="#1FBEC8"/>
</g>
<defs>
<clipPath id="clip0">
<rect width="103" height="104" fill="white"/>
</clipPath>
</defs>
</svg>
