<svg width="733" height="1472" viewBox="0 0 733 1472" fill="none" xmlns="http://www.w3.org/2000/svg">
<g opacity="0.7">
<path opacity="0.7" d="M624.307 832.932V816.365H541.531V892.988C541.531 895.11 541.948 897.21 542.76 899.17C543.571 901.13 544.76 902.91 546.259 904.41C547.757 905.91 549.537 907.1 551.495 907.912C553.453 908.724 555.552 909.141 557.672 909.141H608.165C612.446 909.141 616.552 907.44 619.579 904.41C622.606 901.381 624.307 897.272 624.307 892.988V876.007C630.007 875.996 635.471 873.722 639.498 869.684C643.525 865.646 645.787 860.175 645.787 854.47C645.787 848.765 643.525 843.293 639.498 839.255C635.471 835.217 630.007 832.943 624.307 832.932ZM624.307 867.723V841.216C627.819 841.216 631.188 842.612 633.671 845.098C636.155 847.583 637.551 850.955 637.551 854.47C637.551 857.985 636.155 861.356 633.671 863.841C631.188 866.327 627.819 867.723 624.307 867.723Z" fill="url(#paint0_linear)"/>
</g>
<path d="M621.643 835.525C617.757 835.525 613.958 836.679 610.726 838.839C607.495 841 604.976 844.071 603.489 847.665C602.001 851.258 601.612 855.212 602.371 859.026C603.129 862.841 605 866.345 607.748 869.095C610.497 871.845 613.998 873.718 617.81 874.477C621.621 875.235 625.573 874.846 629.163 873.358C632.754 871.869 635.823 869.349 637.982 866.115C640.141 862.881 641.294 859.079 641.294 855.19C641.294 849.975 639.223 844.973 635.538 841.285C631.853 837.597 626.855 835.525 621.643 835.525ZM621.643 867.291C619.252 867.291 616.914 866.581 614.925 865.252C612.936 863.922 611.387 862.032 610.471 859.821C609.556 857.61 609.317 855.176 609.783 852.829C610.25 850.482 611.401 848.325 613.093 846.633C614.784 844.941 616.938 843.788 619.284 843.321C621.63 842.854 624.061 843.094 626.271 844.01C628.48 844.926 630.369 846.477 631.698 848.467C633.027 850.457 633.736 852.797 633.736 855.19C633.736 858.399 632.462 861.477 630.194 863.747C627.926 866.016 624.85 867.291 621.643 867.291Z" fill="#6C63FF"/>
<path opacity="0.1" d="M621.643 835.525C617.757 835.525 613.958 836.679 610.726 838.839C607.495 841 604.976 844.071 603.489 847.665C602.001 851.258 601.612 855.212 602.371 859.026C603.129 862.841 605 866.345 607.748 869.095C610.497 871.845 613.998 873.718 617.81 874.477C621.621 875.235 625.573 874.846 629.163 873.358C632.754 871.869 635.823 869.349 637.982 866.115C640.141 862.881 641.294 859.079 641.294 855.19C641.294 849.975 639.223 844.973 635.538 841.285C631.853 837.597 626.855 835.525 621.643 835.525ZM621.643 867.291C619.252 867.291 616.914 866.581 614.925 865.252C612.936 863.922 611.387 862.032 610.471 859.821C609.556 857.61 609.317 855.176 609.783 852.829C610.25 850.482 611.401 848.325 613.093 846.633C614.784 844.941 616.938 843.788 619.284 843.321C621.63 842.854 624.061 843.094 626.271 844.01C628.48 844.926 630.369 846.477 631.698 848.467C633.027 850.457 633.736 852.797 633.736 855.19C633.736 858.399 632.462 861.477 630.194 863.747C627.926 866.016 624.85 867.291 621.643 867.291Z" fill="black"/>
<path d="M546.065 820.399H621.643V895.255C621.643 897.868 620.606 900.374 618.759 902.222C616.913 904.07 614.409 905.108 611.797 905.108H555.911C553.3 905.108 550.796 904.07 548.949 902.222C547.103 900.374 546.065 897.868 546.065 895.255V820.399Z" fill="#6C63FF"/>
<path d="M701 905.108H-280V938.386H701V905.108Z" fill="#E0E0E0"/>
<g opacity="0.7">
<path opacity="0.7" d="M365.257 682.444C354.743 644.253 295.136 616.364 250.286 610.18C250.292 609.898 250.308 609.619 250.308 609.336V576.643C250.355 576.626 250.404 576.611 250.452 576.594V575.355C266.369 569.431 280.732 559.963 292.456 547.667C304.179 535.371 312.956 520.57 318.122 504.38C320.894 499.365 323.307 494.159 325.342 488.802C330.13 487.057 333.746 479.156 333.746 469.663C333.764 466.415 333.309 463.183 332.395 460.067C332.982 455.232 333.282 450.366 333.292 445.495C333.311 428.468 329.752 411.628 322.846 396.066C315.94 380.505 305.841 366.571 293.205 355.168C293.58 353.212 293.708 351.216 293.584 349.228C292.569 333.537 275.822 322.877 260.125 322.164C264.271 317.457 266.997 311.669 267.986 305.472C268.975 299.276 268.186 292.926 265.711 287.161C255.702 301.753 235.155 303.304 217.469 303.419C225.1 300.461 228.535 289.88 224.096 283C205.612 307.793 169.58 312.384 147.595 334.129C142.805 338.885 138.791 344.364 135.699 350.365C121.412 361.756 109.876 376.225 101.952 392.696C94.0285 409.167 89.9203 427.215 89.9338 445.495C89.9437 450.322 90.2379 455.144 90.8147 459.936C89.8722 463.091 89.4025 466.369 89.421 469.663C89.421 479.2 93.0711 487.125 97.8916 488.821C99.9356 494.197 102.359 499.42 105.145 504.451C110.293 520.546 119.012 535.269 130.648 547.516C142.284 559.764 156.537 569.219 172.341 575.176V609.336C172.341 609.599 172.356 609.858 172.361 610.12C127.341 616.198 67.2576 644.306 56.837 682.804C47.838 716.051 38.232 752.562 33.4525 773.999C74.4199 802.806 160.383 819.721 214.256 819.721C265.441 819.721 349.102 804.454 388.864 778.224C384.557 754.669 374.648 716.554 365.257 682.444Z" fill="url(#paint1_linear)"/>
</g>
<path d="M214.146 810.238C263.523 810.238 344.228 795.511 382.584 770.207C378.43 747.485 368.871 710.717 359.812 677.812C348.275 635.906 275.462 606.854 232.027 606.854H190.17C146.6 606.854 73.6817 636.074 62.2901 678.159C53.6091 710.231 44.3426 745.453 39.7319 766.132C79.2517 793.921 162.177 810.238 214.146 810.238Z" fill="#6C63FF"/>
<path d="M211.597 566.701C276.424 566.701 328.977 514.11 328.977 449.236C328.977 384.362 276.424 331.771 211.597 331.771C146.77 331.771 94.2173 384.362 94.2173 449.236C94.2173 514.11 146.77 566.701 211.597 566.701Z" fill="#72351C"/>
<path opacity="0.1" d="M173.713 547.074H248.924V607.287C248.924 617.268 244.962 626.84 237.91 633.898C230.857 640.955 221.292 644.92 211.318 644.92H211.318C201.345 644.92 191.78 640.955 184.727 633.898C177.675 626.84 173.713 617.268 173.713 607.287V547.074H173.713Z" fill="black"/>
<path d="M184.501 544.287H238.136C240.997 544.287 243.741 545.424 245.764 547.449C247.788 549.473 248.924 552.219 248.924 555.083V604.5C248.924 614.48 244.962 624.053 237.91 631.11C230.857 638.168 221.292 642.133 211.318 642.133H211.318C201.345 642.133 191.78 638.168 184.727 631.11C177.675 624.053 173.713 614.48 173.713 604.5V555.083C173.713 552.219 174.849 549.473 176.872 547.449C178.896 545.424 181.64 544.287 184.501 544.287Z" fill="#FDA57D"/>
<path opacity="0.1" d="M173.852 575.494C198.092 584.558 224.774 584.631 249.063 575.702V566.456H173.852V575.494Z" fill="black"/>
<path d="M211.597 580.534C271.135 580.534 319.4 532.234 319.4 472.652C319.4 413.071 271.135 364.771 211.597 364.771C152.059 364.771 103.794 413.071 103.794 472.652C103.794 532.234 152.059 580.534 211.597 580.534Z" fill="#FDA57D"/>
<path opacity="0.1" d="M134.809 374.523C134.809 374.523 180.241 466.811 308.402 413.202L278.565 366.379L225.674 347.379L134.809 374.523Z" fill="black"/>
<path d="M134.809 373.165C134.809 373.165 180.241 465.454 308.402 411.845L278.565 365.022L225.674 346.022L134.809 373.165Z" fill="#72351C"/>
<path d="M134.405 366.93C137.467 357.44 142.761 348.823 149.841 341.805C171.049 320.829 205.808 316.4 223.639 292.483C227.92 299.12 224.608 309.327 217.246 312.18C234.307 312.07 254.128 310.573 263.783 296.497C266.171 302.058 266.932 308.184 265.978 314.161C265.024 320.139 262.394 325.722 258.395 330.263C273.537 330.951 289.693 341.234 290.671 356.371C291.323 366.455 285.005 376.003 276.724 381.786C268.443 387.57 258.425 390.224 248.564 392.4C219.778 398.751 115.622 425.372 134.405 366.93Z" fill="#72351C"/>
<path d="M319.397 473.597H316.539L260.935 523.134C207.365 498.026 168.035 523.134 168.035 523.134L109.719 475.632L103.839 476.372C104.636 504.686 116.529 531.55 136.95 551.164C157.371 570.778 184.681 581.568 212.983 581.204C241.286 580.839 268.309 569.35 288.219 549.217C308.129 529.084 319.328 501.922 319.397 473.597ZM211.434 542.134C190.461 542.134 173.46 537.881 173.46 532.634C173.46 527.387 190.461 523.134 211.434 523.134C232.406 523.134 249.407 527.387 249.407 532.634C249.407 537.881 232.406 542.134 211.434 542.134Z" fill="#72351C"/>
<path d="M103.751 491.366C109.289 491.366 113.779 482.942 113.779 472.55C113.779 462.158 109.289 453.733 103.751 453.733C98.2124 453.733 93.7227 462.158 93.7227 472.55C93.7227 482.942 98.2124 491.366 103.751 491.366Z" fill="#FDA57D"/>
<path d="M319.386 491.366C324.924 491.366 329.414 482.942 329.414 472.55C329.414 462.158 324.924 453.733 319.386 453.733C313.848 453.733 309.358 462.158 309.358 472.55C309.358 482.942 313.848 491.366 319.386 491.366Z" fill="#FDA57D"/>
<g opacity="0.7">
<path opacity="0.7" d="M404.452 664.698H16.548C8.46103 664.698 1.90527 671.259 1.90527 679.352V890.455C1.90527 898.547 8.46103 905.108 16.548 905.108H404.452C412.539 905.108 419.095 898.547 419.095 890.455V679.352C419.095 671.259 412.539 664.698 404.452 664.698Z" fill="url(#paint2_linear)"/>
</g>
<path d="M384.438 669.134H36.5621C21.5957 669.134 9.46301 681.275 9.46301 696.253V877.989C9.46301 892.966 21.5957 905.108 36.5621 905.108H384.438C399.404 905.108 411.537 892.966 411.537 877.989V696.253C411.537 681.275 399.404 669.134 384.438 669.134Z" fill="#535461"/>
<path d="M210.5 800.735C218.013 800.735 224.104 794.639 224.104 787.121C224.104 779.602 218.013 773.507 210.5 773.507C202.987 773.507 196.896 779.602 196.896 787.121C196.896 794.639 202.987 800.735 210.5 800.735Z" fill="white"/>
<path d="M659.432 938.386H-238.432V952H659.432V938.386Z" fill="#E0E0E0"/>
<path opacity="0.1" d="M659.432 938.386H-238.432V942.924H659.432V938.386Z" fill="black"/>
<path opacity="0.1" d="M608.039 820.399V890.359C608.039 894.271 606.487 898.022 603.723 900.788C600.959 903.554 597.21 905.108 593.302 905.108H600.859C604.768 905.108 608.517 903.554 611.281 900.788C614.044 898.022 615.597 894.271 615.597 890.359V820.399H608.039Z" fill="black"/>
<path d="M560.98 764.013C559.705 764.231 558.267 764.575 557.642 765.708C556.651 767.507 558.447 769.535 560.087 770.77C563.115 773.054 566.308 775.296 568.366 778.483C570.425 781.67 571.072 786.117 568.821 789.171C565.883 793.159 558.872 794.016 558.194 798.924C557.758 802.075 560.48 804.764 563.238 806.345C570.046 810.247 578.822 811.289 583.753 817.395C585.793 813.198 590.356 810.771 594.904 809.735C599.452 808.699 604.177 808.776 608.788 808.073C610.277 807.846 611.954 807.391 612.619 806.04C613.908 803.422 610.235 800.282 611.503 797.654C612.468 795.654 615.303 795.809 617.373 795.008C620.744 793.703 622.134 789.362 621.177 785.874C620.22 782.387 617.518 779.661 614.676 777.426C607.017 771.404 597.808 767.862 588.494 765.314C584.162 764.129 579.076 762.271 574.577 762.092C570.233 761.918 565.279 763.277 560.98 764.013Z" fill="#EEEEEE"/>
<path d="M104.409 115C115.045 115 121.489 108.42 121.489 97.5114C121.489 86.6364 115.045 80.0909 104.511 80.0909H92.0341V115H104.409ZM99.4148 108.676V86.4148H104.119C110.665 86.4148 114.125 89.7557 114.125 97.5114C114.125 105.301 110.665 108.676 104.102 108.676H99.4148ZM138.751 115.511C145.229 115.511 149.592 112.358 150.615 107.5L143.899 107.057C143.166 109.051 141.291 110.091 138.871 110.091C135.24 110.091 132.939 107.688 132.939 103.784V103.767H150.768V101.773C150.768 92.875 145.382 88.4773 138.462 88.4773C130.757 88.4773 125.763 93.9489 125.763 102.028C125.763 110.33 130.689 115.511 138.751 115.511ZM132.939 99.267C133.092 96.2841 135.359 93.8977 138.581 93.8977C141.734 93.8977 143.916 96.1477 143.933 99.267H132.939ZM135.683 85.4432H140.814L146.013 77.6875H139.297L135.683 85.4432ZM179.166 88.8182H171.479L166.058 107.551H165.786L160.348 88.8182H152.678L161.831 115H170.013L179.166 88.8182ZM193.923 115.511C200.401 115.511 204.764 112.358 205.787 107.5L199.071 107.057C198.338 109.051 196.463 110.091 194.043 110.091C190.412 110.091 188.111 107.688 188.111 103.784V103.767H205.94V101.773C205.94 92.875 200.554 88.4773 193.634 88.4773C185.929 88.4773 180.935 93.9489 180.935 102.028C180.935 110.33 185.861 115.511 193.923 115.511ZM188.111 99.267C188.264 96.2841 190.531 93.8977 193.753 93.8977C196.906 93.8977 199.088 96.1477 199.105 99.267H188.111ZM217.94 80.0909H210.679V115H217.94V80.0909ZM235.587 115.511C243.53 115.511 248.473 110.074 248.473 102.011C248.473 93.8977 243.53 88.4773 235.587 88.4773C227.643 88.4773 222.7 93.8977 222.7 102.011C222.7 110.074 227.643 115.511 235.587 115.511ZM235.621 109.886C231.956 109.886 230.081 106.528 230.081 101.96C230.081 97.392 231.956 94.017 235.621 94.017C239.217 94.017 241.092 97.392 241.092 101.96C241.092 106.528 239.217 109.886 235.621 109.886ZM253.195 124.818H260.456V110.807H260.678C261.683 112.989 263.882 115.426 268.109 115.426C274.075 115.426 278.729 110.705 278.729 101.943C278.729 92.9432 273.871 88.4773 268.126 88.4773C263.746 88.4773 261.649 91.0852 260.678 93.2159H260.354V88.8182H253.195V124.818ZM260.303 101.909C260.303 97.2386 262.28 94.2557 265.808 94.2557C269.405 94.2557 271.314 97.375 271.314 101.909C271.314 106.477 269.371 109.648 265.808 109.648C262.314 109.648 260.303 106.58 260.303 101.909ZM283.57 124.818H290.831V110.807H291.053C292.058 112.989 294.257 115.426 298.484 115.426C304.45 115.426 309.104 110.705 309.104 101.943C309.104 92.9432 304.246 88.4773 298.501 88.4773C294.121 88.4773 292.024 91.0852 291.053 93.2159H290.729V88.8182H283.57V124.818ZM290.678 101.909C290.678 97.2386 292.655 94.2557 296.183 94.2557C299.78 94.2557 301.689 97.375 301.689 101.909C301.689 106.477 299.746 109.648 296.183 109.648C292.689 109.648 290.678 106.58 290.678 101.909ZM325.876 115.511C332.354 115.511 336.717 112.358 337.74 107.5L331.024 107.057C330.291 109.051 328.416 110.091 325.996 110.091C322.365 110.091 320.064 107.688 320.064 103.784V103.767H337.893V101.773C337.893 92.875 332.507 88.4773 325.587 88.4773C317.882 88.4773 312.888 93.9489 312.888 102.028C312.888 110.33 317.814 115.511 325.876 115.511ZM320.064 99.267C320.217 96.2841 322.484 93.8977 325.706 93.8977C328.859 93.8977 331.041 96.1477 331.058 99.267H320.064ZM342.632 115H349.893V99.2841C349.893 96.3864 351.734 94.4602 354.155 94.4602C356.541 94.4602 358.143 96.0966 358.143 98.6705V115H365.183V99.0114C365.183 96.3011 366.734 94.4602 369.376 94.4602C371.695 94.4602 373.433 95.9091 373.433 98.8239V115H380.678V97.392C380.678 91.7159 377.303 88.4773 372.428 88.4773C368.592 88.4773 365.609 90.4375 364.536 93.4375H364.263C363.428 90.4034 360.751 88.4773 357.155 88.4773C353.626 88.4773 350.95 90.3523 349.859 93.4375H349.553V88.8182H342.632V115ZM398.345 115.511C404.822 115.511 409.186 112.358 410.209 107.5L403.493 107.057C402.76 109.051 400.885 110.091 398.464 110.091C394.834 110.091 392.533 107.688 392.533 103.784V103.767H410.362V101.773C410.362 92.875 404.976 88.4773 398.055 88.4773C390.351 88.4773 385.357 93.9489 385.357 102.028C385.357 110.33 390.283 115.511 398.345 115.511ZM392.533 99.267C392.686 96.2841 394.953 93.8977 398.175 93.8977C401.328 93.8977 403.51 96.1477 403.527 99.267H392.533ZM422.362 99.8636C422.379 96.4886 424.391 94.5114 427.322 94.5114C430.237 94.5114 431.993 96.4205 431.976 99.625V115H439.237V98.3295C439.237 92.2273 435.658 88.4773 430.203 88.4773C426.317 88.4773 423.504 90.3864 422.328 93.4375H422.021V88.8182H415.101V115H422.362V99.8636ZM458.886 88.8182H453.96V82.5455H446.699V88.8182H443.119V94.2727H446.699V107.909C446.665 113.04 450.159 115.58 455.426 115.358C457.301 115.29 458.631 114.915 459.364 114.676L458.222 109.273C457.864 109.341 457.097 109.511 456.415 109.511C454.966 109.511 453.96 108.966 453.96 106.955V94.2727H458.886V88.8182ZM101.545 173.426C105.773 173.426 107.972 170.989 108.977 168.807H109.284V173H116.443V138.091H109.199V151.216H108.977C108.006 149.085 105.909 146.477 101.528 146.477C95.7841 146.477 90.9261 150.943 90.9261 159.943C90.9261 168.705 95.5795 173.426 101.545 173.426ZM103.847 167.648C100.284 167.648 98.3409 164.477 98.3409 159.909C98.3409 155.375 100.25 152.256 103.847 152.256C107.375 152.256 109.352 155.239 109.352 159.909C109.352 164.58 107.341 167.648 103.847 167.648ZM128.499 138.091H123.044V141.807C123.044 144.688 122.021 146.784 120.879 148.591L124.084 150.483C126.487 148.472 128.499 144.892 128.499 141.773V138.091ZM138.082 173.494C141.952 173.494 144.457 171.807 145.736 169.369H145.94V173H152.827V155.341C152.827 149.102 147.543 146.477 141.713 146.477C135.44 146.477 131.315 149.477 130.31 154.25L137.026 154.795C137.52 153.057 139.071 151.778 141.679 151.778C144.151 151.778 145.565 153.023 145.565 155.17V155.273C145.565 156.96 143.776 157.182 139.224 157.625C134.043 158.102 129.389 159.841 129.389 165.688C129.389 170.869 133.088 173.494 138.082 173.494ZM140.162 168.483C137.929 168.483 136.327 167.443 136.327 165.449C136.327 163.403 138.014 162.398 140.571 162.04C142.156 161.818 144.747 161.443 145.616 160.864V163.642C145.616 166.386 143.349 168.483 140.162 168.483ZM158.46 182.818H165.722V168.807H165.943C166.949 170.989 169.148 173.426 173.375 173.426C179.341 173.426 183.994 168.705 183.994 159.943C183.994 150.943 179.136 146.477 173.392 146.477C169.011 146.477 166.915 149.085 165.943 151.216H165.619V146.818H158.46V182.818ZM165.568 159.909C165.568 155.239 167.545 152.256 171.074 152.256C174.67 152.256 176.58 155.375 176.58 159.909C176.58 164.477 174.636 167.648 171.074 167.648C167.58 167.648 165.568 164.58 165.568 159.909ZM188.835 182.818H196.097V168.807H196.318C197.324 170.989 199.523 173.426 203.75 173.426C209.716 173.426 214.369 168.705 214.369 159.943C214.369 150.943 209.511 146.477 203.767 146.477C199.386 146.477 197.29 149.085 196.318 151.216H195.994V146.818H188.835V182.818ZM195.943 159.909C195.943 155.239 197.92 152.256 201.449 152.256C205.045 152.256 206.955 155.375 206.955 159.909C206.955 164.477 205.011 167.648 201.449 167.648C197.955 167.648 195.943 164.58 195.943 159.909ZM226.472 138.091H219.21V173H226.472V138.091ZM232.288 173H239.55V146.818H232.288V173ZM235.936 143.443C238.101 143.443 239.874 141.79 239.874 139.761C239.874 137.75 238.101 136.097 235.936 136.097C233.788 136.097 232.016 137.75 232.016 139.761C232.016 141.79 233.788 143.443 235.936 143.443ZM257.196 173.511C264.168 173.511 268.548 169.42 268.889 163.403H262.037C261.611 166.199 259.77 167.767 257.281 167.767C253.889 167.767 251.69 164.92 251.69 159.909C251.69 154.966 253.906 152.136 257.281 152.136C259.94 152.136 261.645 153.892 262.037 156.5H268.889C268.582 150.449 263.997 146.477 257.162 146.477C249.219 146.477 244.31 151.983 244.31 160.011C244.31 167.972 249.134 173.511 257.196 173.511ZM281.004 173.494C284.874 173.494 287.379 171.807 288.658 169.369H288.862V173H295.749V155.341C295.749 149.102 290.464 146.477 284.635 146.477C278.362 146.477 274.237 149.477 273.232 154.25L279.947 154.795C280.442 153.057 281.993 151.778 284.601 151.778C287.072 151.778 288.487 153.023 288.487 155.17V155.273C288.487 156.96 286.697 157.182 282.146 157.625C276.964 158.102 272.311 159.841 272.311 165.688C272.311 170.869 276.01 173.494 281.004 173.494ZM283.084 168.483C280.851 168.483 279.249 167.443 279.249 165.449C279.249 163.403 280.936 162.398 283.493 162.04C285.078 161.818 287.669 161.443 288.538 160.864V163.642C288.538 166.386 286.271 168.483 283.084 168.483ZM315.308 146.818H310.382V140.545H303.121V146.818H299.541V152.273H303.121V165.909C303.087 171.04 306.581 173.58 311.848 173.358C313.723 173.29 315.053 172.915 315.786 172.676L314.643 167.273C314.286 167.341 313.518 167.511 312.837 167.511C311.388 167.511 310.382 166.966 310.382 164.955V152.273H315.308V146.818ZM320.038 173H327.3V146.818H320.038V173ZM323.686 143.443C325.851 143.443 327.624 141.79 327.624 139.761C327.624 137.75 325.851 136.097 323.686 136.097C321.538 136.097 319.766 137.75 319.766 139.761C319.766 141.79 321.538 143.443 323.686 143.443ZM344.946 173.511C352.889 173.511 357.832 168.074 357.832 160.011C357.832 151.898 352.889 146.477 344.946 146.477C337.003 146.477 332.06 151.898 332.06 160.011C332.06 168.074 337.003 173.511 344.946 173.511ZM344.98 167.886C341.315 167.886 339.44 164.528 339.44 159.96C339.44 155.392 341.315 152.017 344.98 152.017C348.577 152.017 350.452 155.392 350.452 159.96C350.452 164.528 348.577 167.886 344.98 167.886ZM369.815 157.864C369.832 154.489 371.844 152.511 374.776 152.511C377.69 152.511 379.446 154.42 379.429 157.625V173H386.69V156.33C386.69 150.227 383.111 146.477 377.656 146.477C373.77 146.477 370.957 148.386 369.781 151.438H369.474V146.818H362.554V173H369.815V157.864ZM414.197 154.284C413.55 149.46 409.663 146.477 403.05 146.477C396.351 146.477 391.936 149.58 391.953 154.625C391.936 158.545 394.408 161.085 399.521 162.108L404.055 163.011C406.339 163.472 407.379 164.307 407.413 165.619C407.379 167.17 405.692 168.278 403.152 168.278C400.561 168.278 398.839 167.17 398.396 165.04L391.254 165.415C391.936 170.426 396.197 173.511 403.135 173.511C409.919 173.511 414.777 170.051 414.794 164.886C414.777 161.102 412.305 158.835 407.226 157.795L402.487 156.841C400.05 156.312 399.146 155.477 399.163 154.216C399.146 152.648 400.919 151.625 403.169 151.625C405.692 151.625 407.192 153.006 407.55 154.693L414.197 154.284Z" fill="#F9FAFB"/>
<defs>
<linearGradient id="paint0_linear" x1="593.679" y1="909.141" x2="593.679" y2="816.365" gradientUnits="userSpaceOnUse">
<stop stop-color="#808080" stop-opacity="0.25"/>
<stop offset="0.53514" stop-color="#808080" stop-opacity="0.12"/>
<stop offset="1" stop-color="#808080" stop-opacity="0.1"/>
</linearGradient>
<linearGradient id="paint1_linear" x1="213512" y1="349208" x2="213512" y2="64152.8" gradientUnits="userSpaceOnUse">
<stop stop-color="#808080" stop-opacity="0.25"/>
<stop offset="0.53514" stop-color="#808080" stop-opacity="0.12"/>
<stop offset="1" stop-color="#808080" stop-opacity="0.1"/>
</linearGradient>
<linearGradient id="paint2_linear" x1="202639" y1="148660" x2="202639" y2="91468.4" gradientUnits="userSpaceOnUse">
<stop stop-color="#808080" stop-opacity="0.25"/>
<stop offset="0.53514" stop-color="#808080" stop-opacity="0.12"/>
<stop offset="1" stop-color="#808080" stop-opacity="0.1"/>
</linearGradient>
</defs>
</svg>
