<svg width="103" height="104" fill="none" xmlns="http://www.w3.org/2000/svg"><g clip-path="url(#clip0)"><path d="M69.24 76.424H33.76c-3.563 0-6.45-2.916-6.45-6.513V34.09c0-3.597 2.888-6.513 6.45-6.513h35.48c3.563 0 6.45 2.916 6.45 6.513v35.82c0 3.597-2.888 6.513-6.45 6.513v.001z" fill="#00C2CB"/><path d="M69.24 71.54H33.76a1.62 1.62 0 01-1.612-1.628V34.1a1.62 1.62 0 011.612-1.628h35.48a1.62 1.62 0 011.613 1.628v35.8a1.621 1.621 0 01-1.613 1.628v.012zM7.96 42.23c1.78 0 3.225-1.458 3.225-3.256 0-1.798-1.445-3.256-3.225-3.256s-3.225 1.458-3.225 3.256c0 1.798 1.443 3.256 3.225 3.256zM95.04 68.282c1.78 0 3.225-1.458 3.225-3.256 0-1.798-1.444-3.256-3.225-3.256-1.781 0-3.225 1.458-3.225 3.256 0 1.798 1.444 3.256 3.225 3.256z" fill="#00C2CB"/><path d="M4.734 82.936c1.78 0 3.225-1.458 3.225-3.256 0-1.798-1.444-3.256-3.225-3.256-1.781 0-3.234 1.456-3.234 3.256 0 1.8 1.444 3.256 3.225 3.256h.009zm93.532-55.36c1.78 0 3.225-1.458 3.225-3.256 0-1.798-1.444-3.256-3.225-3.256-1.781 0-3.225 1.458-3.225 3.256 0 1.798 1.444 3.256 3.225 3.256zM64.4 11.293c1.78 0 3.225-1.458 3.225-3.256 0-1.798-1.443-3.257-3.225-3.257s-3.225 1.458-3.225 3.256c0 1.798 1.444 3.256 3.225 3.256v.001zM38.6 99.22c1.78 0 3.225-1.458 3.225-3.256 0-1.798-1.444-3.256-3.225-3.256-1.781 0-3.225 1.458-3.225 3.256 0 1.798 1.445 3.256 3.225 3.256zM24.086 8.036c1.78 0 3.225-1.458 3.225-3.256 0-1.798-1.444-3.256-3.225-3.256-1.781 0-3.226 1.458-3.226 3.256 0 1.798 1.444 3.256 3.225 3.256h.001zm54.827 94.44c1.78 0 3.225-1.458 3.225-3.257 0-1.799-1.444-3.256-3.225-3.256-1.781 0-3.225 1.458-3.225 3.256 0 1.798 1.444 3.257 3.225 3.257zM51.5 65.863c.46 0 .898.198 1.203.544 1.053 1.193 2.598 1.876 4.24 1.876 2.822 0 5.192-1.995 5.395-4.54a1.63 1.63 0 01.795-1.275c1.776-1.047 2.88-2.874 2.88-4.768 0-1.367-.564-2.694-1.6-3.74a1.64 1.64 0 010-2.291c1.025-1.045 1.6-2.373 1.6-3.74 0-2.46-1.778-4.626-4.424-5.393a1.63 1.63 0 01-1.126-1.931c.072-.318.107-.577.107-.817 0-2.245-2.035-4.07-4.535-4.07-1.293 0-2.53.502-3.392 1.376-.608.614-1.68.614-2.287 0-.86-.875-2.1-1.376-3.392-1.376-2.5 0-4.535 1.826-4.535 4.07 0 .27.03.539.087.802a1.63 1.63 0 01-1.129 1.915c-2.63.766-4.4 2.945-4.4 5.424 0 1.186.422 2.33 1.22 3.308a1.64 1.64 0 01.039 2.019c-.824 1.1-1.26 2.354-1.26 3.63 0 2.032 1.1 3.98 2.917 5.2.444.3.713.8.718 1.34.022 2.673 2.462 4.847 5.436 4.847 1.64 0 3.186-.684 4.24-1.876a1.604 1.604 0 011.203-.544v.01z" fill="#fff"/><path d="M101.5 50.477H77.198V47h6.554c.833 0 1.5-.682 1.5-1.523 0-.841-.675-1.523-1.5-1.523h-6.554v-3.466h4.55a6.27 6.27 0 004.488-1.877L96.16 28.6a4.675 4.675 0 002.107.498 4.682 4.682 0 003.347-1.4A4.766 4.766 0 00103 24.32a4.775 4.775 0 00-1.387-3.38 4.688 4.688 0 00-3.347-1.41 4.68 4.68 0 00-3.348 1.41 4.771 4.771 0 00-1.387 3.38 4.781 4.781 0 00.493 2.127L84.1 36.467a3.288 3.288 0 01-2.354.985h-4.55v-3.36c0-4.43-3.57-8.036-7.96-8.036H65.9v-13.5a4.784 4.784 0 003.225-4.53c0-2.636-2.124-4.78-4.734-4.78s-4.734 2.144-4.734 4.78a4.785 4.785 0 003.225 4.53v13.486H59.46v-6.618c0-.84-.675-1.523-1.5-1.523s-1.5.682-1.5 1.523v6.618H53V1.524C53 .682 52.333 0 51.5 0S50 .682 50 1.523v24.53h-3.433v-6.618c0-.84-.675-1.523-1.5-1.523s-1.5.682-1.5 1.523v6.618h-3.433V21.46a6.388 6.388 0 00-1.86-4.53l-9.92-10.025c.877-1.788.583-4.017-.9-5.504a4.709 4.709 0 00-6.695 0 4.82 4.82 0 000 6.76 4.696 4.696 0 005.451.898l9.926 10.023c.63.635.975 1.48.975 2.377v4.594h-3.33c-.671 0-1.34.085-1.99.253-.807.2-1.293 1.04-1.085 1.855a1.508 1.508 0 001.837 1.096c.4-.104.817-.157 1.237-.157h35.48c2.725 0 4.942 2.238 4.942 5v35.8c0 .423-.052.843-.155 1.248a1.527 1.527 0 001.086 1.855 1.499 1.499 0 001.304-.274 1.51 1.51 0 00.533-.823c.166-.652.25-1.328.25-2.006v-3.36h13.357c.63 1.9 2.403 3.256 4.486 3.256 2.6 0 4.734-2.144 4.734-4.78s-2.124-4.78-4.734-4.78c-2.083 0-3.855 1.366-4.486 3.257h-13.36v-3.466h6.554c.833 0 1.5-.682 1.5-1.523 0-.841-.675-1.523-1.5-1.523h-6.554v-3.466h24.293c.833 0 1.5-.682 1.5-1.523 0-.841-.676-1.523-1.5-1.523l-.01.008zm-4.44-27.383a1.7 1.7 0 011.214-.508c.46 0 .9.18 1.214.508a1.73 1.73 0 01.503 1.226 1.73 1.73 0 01-.503 1.225 1.694 1.694 0 01-1.214.508c-.459 0-.9-.18-1.214-.508a1.73 1.73 0 01-.503-1.225 1.731 1.731 0 01.503-1.226zM64.4 6.304c.947 0 1.716.778 1.716 1.733 0 .955-.769 1.733-1.716 1.733a1.726 1.726 0 01-1.716-1.733c0-.955.77-1.733 1.716-1.733zm-41.53-.298a1.75 1.75 0 010-2.451 1.703 1.703 0 012.428 0 1.75 1.75 0 010 2.451 1.709 1.709 0 01-2.428 0zm72.17 57.287c.947 0 1.716.778 1.716 1.733 0 .955-.77 1.733-1.716 1.733a1.727 1.727 0 01-1.716-1.733c0-.955.77-1.733 1.716-1.733zM76.8 94.942L66.885 84.92a3.353 3.353 0 01-.975-2.377V77.95h3.33c.671 0 1.34-.085 1.99-.253.807-.2 1.293-1.04 1.085-1.855a1.508 1.508 0 00-1.837-1.096 4.92 4.92 0 01-1.237.157H33.76c-2.725 0-4.94-2.238-4.94-5V34.1c0-.424.052-.844.155-1.248a1.524 1.524 0 00-1.085-1.855c-.807-.21-1.63.28-1.837 1.095a8.105 8.105 0 00-.25 2.008v3.36H12.445c-.63-1.9-2.403-3.257-4.486-3.257-2.6 0-4.734 2.144-4.734 4.78s2.124 4.78 4.734 4.78c2.083 0 3.854-1.366 4.486-3.257h13.357v3.466h-6.554c-.833 0-1.5.682-1.5 1.523 0 .841.675 1.523 1.5 1.523h6.554v3.466H1.5C.676 50.477 0 51.16 0 52s.676 1.523 1.5 1.523h24.293V57H19.25c-.833 0-1.5.682-1.5 1.523 0 .841.675 1.523 1.5 1.523h6.554v3.466h-4.55a6.27 6.27 0 00-4.488 1.877L6.84 75.4a4.68 4.68 0 00-2.107-.498 4.68 4.68 0 00-3.347 1.4A4.768 4.768 0 000 79.68a4.77 4.77 0 001.387 3.38 4.68 4.68 0 003.347 1.4 4.68 4.68 0 003.347-1.4 4.77 4.77 0 001.387-3.38 4.78 4.78 0 00-.493-2.127l9.923-10.02a3.29 3.29 0 012.354-.984h4.55v3.36c0 4.43 3.57 8.036 7.96 8.036h3.33V91.43a4.785 4.785 0 00-3.225 4.53c0 2.636 2.124 4.78 4.734 4.78s4.734-2.144 4.734-4.78a4.785 4.785 0 00-3.225-4.53V77.947h3.433v6.618c0 .84.675 1.523 1.5 1.523s1.5-.682 1.5-1.523v-6.618h3.433v24.53c0 .84.675 1.523 1.5 1.523s1.5-.682 1.5-1.523v-24.53h3.433v6.618c0 .84.675 1.523 1.5 1.523s1.5-.682 1.5-1.523v-6.618h3.433v4.594a6.39 6.39 0 001.86 4.53l9.926 10.023c-.877 1.788-.583 4.017.9 5.504a4.695 4.695 0 003.347 1.398 4.698 4.698 0 003.348-1.398 4.82 4.82 0 000-6.76 4.703 4.703 0 00-5.45-.898l.027.002zM7.96 40.707a1.726 1.726 0 01-1.716-1.733c0-.955.77-1.733 1.716-1.733s1.716.778 1.716 1.733c0 .955-.77 1.733-1.716 1.733zm-2.012 40.2a1.7 1.7 0 01-1.214.508c-.46 0-.9-.18-1.214-.508a1.73 1.73 0 01-.503-1.225 1.73 1.73 0 011.717-1.733c.459 0 .9.18 1.214.508a1.73 1.73 0 01.503 1.225 1.73 1.73 0 01-.503 1.225zm32.65 16.8a1.726 1.726 0 01-1.716-1.733c0-.955.77-1.733 1.716-1.733s1.716.778 1.716 1.733c0 .955-.77 1.733-1.716 1.733zm41.53 2.75a1.715 1.715 0 01-1.871.374 1.717 1.717 0 01-1.058-1.6c0-.458.18-.898.501-1.225a1.703 1.703 0 012.428 0 1.75 1.75 0 010 2.451zM39.106 63.394c0 3.537 3.118 6.412 6.95 6.412 2.203 0 4.168-.95 5.443-2.43 1.274 1.478 3.24 2.43 5.443 2.43 3.7 0 6.714-2.663 6.937-6.013 2.24-1.313 3.643-3.612 3.643-6.094 0-1.826-.77-3.568-2.098-4.885 1.327-1.317 2.098-3.06 2.098-4.885 0-3.258-2.36-6.018-5.6-6.915.096-.398.15-.808.15-1.227 0-3.085-2.712-5.594-6.044-5.594-1.805 0-3.427.737-4.535 1.902-1.108-1.165-2.73-1.902-4.535-1.902-3.333 0-6.044 2.5-6.044 5.594 0 .413.051.825.15 1.227-3.23.896-5.6 3.656-5.6 6.915 0 1.592.558 3.095 1.6 4.335-1.008 1.318-1.6 2.917-1.6 4.62 0 2.6 1.37 5 3.628 6.5l.014.01zm4.192-19.64l.04.002c.344 0 .7-.118.974-.36a1.533 1.533 0 00.306-1.964l-.034-.056-.02-.027-.073-.097a2.275 2.275 0 01-.554-1.464c0-1.405 1.358-2.547 3.027-2.547s3.027 1.143 3.027 2.547c0 .84.675 1.523 1.5 1.523s1.5-.682 1.5-1.523c0-1.405 1.358-2.547 3.027-2.547s3.027 1.143 3.027 2.547c0 .333-.078.661-.226.959-.858.082-1.688.3-2.476.627a1.53 1.53 0 00-.804 1.996 1.5 1.5 0 001.977.812 5.401 5.401 0 012.086-.426l.043.002.04-.002c2.652.017 4.803 1.883 4.803 4.175 0 1.44-.868 2.763-2.322 3.538a1.525 1.525 0 00-.805 1.347c0 .565.3 1.084.805 1.347 1.454.775 2.322 2.097 2.322 3.538 0 1.074-.494 2.098-1.33 2.864-.793-1.483-2.195-2.663-3.967-3.225a1.507 1.507 0 00-1.892.997 1.51 1.51 0 00.987 1.9c1.538.488 2.572 1.755 2.572 3.154 0 1.853-1.765 3.36-3.934 3.36-2.169 0-3.924-1.508-3.924-3.361v-9.77c0-1.853 1.765-3.36 3.934-3.36.833 0 1.5-.682 1.5-1.523 0-.841-.675-1.523-1.5-1.523-1.46 0-2.814.418-3.934 1.13V46.4c0-.84-.676-1.523-1.5-1.523s-1.5.686-1.5 1.527v8.458a7.158 7.158 0 00-1.667-.779 1.507 1.507 0 00-1.892.997 1.51 1.51 0 00.987 1.9c1.53.497 2.572 1.764 2.572 3.16v3.256c0 1.854-1.765 3.36-3.934 3.36-2.169 0-3.934-1.508-3.934-3.36 0-.794.334-1.567.94-2.174a1.526 1.526 0 00-1.06-2.604 1.5 1.5 0 00-1.068.442 6.47 6.47 0 00-.931 1.181c-.953-.9-1.5-2.107-1.5-3.36 0-2.257 1.754-4.24 4.266-4.822a1.523 1.523 0 001.133-1.825 1.51 1.51 0 00-1.808-1.144 9.142 9.142 0 00-2.768 1.138c-.535-.68-.824-1.474-.824-2.302.001-2.3 2.152-4.157 4.804-4.175l-.018.003z" fill="#1FBEC8"/></g><defs><clipPath id="clip0"><path fill="#fff" d="M0 0h103v104H0z"/></clipPath></defs></svg>