<svg viewBox="0 0 100 100" fill="none" xmlns="http://www.w3.org/2000/svg">
<path d="M4.6875 32.8125H85.9375V85.9375C85.9375 86.7663 85.6083 87.5612 85.0222 88.1472C84.4362 88.7333 83.6413 89.0625 82.8125 89.0625H7.8125C6.9837 89.0625 6.18884 88.7333 5.60279 88.1472C5.01674 87.5612 4.6875 86.7663 4.6875 85.9375V32.8125Z" fill="#FFDAAA"/>
<path d="M4.68751 40.625V85.9375C4.68751 86.7663 5.01675 87.5612 5.6028 88.1472C6.18885 88.7333 6.98371 89.0625 7.81251 89.0625H53.125C46.7631 89.0662 40.4628 87.8158 34.5844 85.3829C28.706 82.95 23.3648 79.3823 18.8663 74.8837C14.3677 70.3852 10.8 65.044 8.36706 59.1656C5.93416 53.2872 4.68381 46.9869 4.68751 40.625Z" fill="#FFC477"/>
<path d="M85.9375 26.5625V70.3125H92.1875C93.0155 70.31 93.809 69.98 94.3945 69.3945C94.98 68.809 95.31 68.0155 95.3125 67.1875V14.0625H14.0625V23.4375H82.8125C83.6413 23.4375 84.4362 23.7667 85.0222 24.3528C85.6083 24.9388 85.9375 25.7337 85.9375 26.5625Z" fill="#FFB655"/>
<path d="M82.8125 23.4375H7.8125C6.9837 23.4375 6.18884 23.7667 5.60279 24.3528C5.01674 24.9388 4.6875 25.7337 4.6875 26.5625V32.8125H85.9375V26.5625C85.9375 25.7337 85.6083 24.9388 85.0222 24.3528C84.4362 23.7667 83.6413 23.4375 82.8125 23.4375Z" fill="#004FAC"/>
<path d="M92.1875 4.6875H17.1875C16.3587 4.6875 15.5638 5.01674 14.9778 5.60279C14.3917 6.18884 14.0625 6.9837 14.0625 7.8125V14.0625H95.3125V7.8125C95.3125 6.9837 94.9833 6.18884 94.3972 5.60279C93.8112 5.01674 93.0163 4.6875 92.1875 4.6875Z" fill="#004FAC"/>
<path d="M73.6875 72.3906V72.4062L77.3281 76.0312L72.9062 80.4531L69.2656 76.8125C68.6041 77.1693 67.9078 77.4573 67.1875 77.6719V82.8125H60.9375V77.6719C60.2172 77.4573 59.5209 77.1693 58.8594 76.8125L55.2188 80.4531L50.7969 76.0312L54.4375 72.4062V72.3906C54.0807 71.7291 53.7927 71.0328 53.5781 70.3125H48.4375V64.0625H53.5781C53.7927 63.3422 54.0807 62.6459 54.4375 61.9844L50.7969 58.3438L55.2188 53.9219L58.8438 57.5625H58.8594C59.5209 57.2057 60.2172 56.9177 60.9375 56.7031V51.5625H67.1875V56.7031C67.9078 56.9177 68.6041 57.2057 69.2656 57.5625H69.2812L72.9062 53.9219L77.3281 58.3438L73.6875 61.9844C74.0443 62.6459 74.3323 63.3422 74.5469 64.0625H79.6875V70.3125H74.5469C74.3323 71.0328 74.0443 71.7291 73.6875 72.3906Z" fill="#FFCD00"/>
<path d="M64.0625 71.875C66.6513 71.875 68.75 69.7763 68.75 67.1875C68.75 64.5987 66.6513 62.5 64.0625 62.5C61.4737 62.5 59.375 64.5987 59.375 67.1875C59.375 69.7763 61.4737 71.875 64.0625 71.875Z" fill="#F1F2F2"/>
<path d="M39.3125 84.8906V84.9062L42.9531 88.5312L38.5312 92.9531L34.8906 89.3125C34.2291 89.6693 33.5328 89.9573 32.8125 90.1719V95.3125H26.5625V90.1719C25.8422 89.9573 25.1459 89.6693 24.4844 89.3125L20.8438 92.9531L16.4219 88.5312L20.0625 84.9062V84.8906C19.7057 84.2291 19.4177 83.5328 19.2031 82.8125H14.0625V76.5625H19.2031C19.4177 75.8422 19.7057 75.1459 20.0625 74.4844L16.4219 70.8438L20.8438 66.4219L24.4688 70.0625H24.4844C25.1459 69.7057 25.8422 69.4177 26.5625 69.2031V64.0625H32.8125V69.2031C33.5328 69.4177 34.2291 69.7057 34.8906 70.0625H34.9062L38.5312 66.4219L42.9531 70.8438L39.3125 74.4844C39.6693 75.1459 39.9573 75.8422 40.1719 76.5625H45.3125V82.8125H40.1719C39.9573 83.5328 39.6693 84.2291 39.3125 84.8906Z" fill="#FF9811"/>
<path d="M29.6875 84.375C32.2763 84.375 34.375 82.2763 34.375 79.6875C34.375 77.0987 32.2763 75 29.6875 75C27.0987 75 25 77.0987 25 79.6875C25 82.2763 27.0987 84.375 29.6875 84.375Z" fill="#F1F2F2"/>
<path d="M18.75 9.375C18.75 8.51206 19.4496 7.8125 20.3125 7.8125C21.1754 7.8125 21.875 8.51206 21.875 9.375C21.875 10.2379 21.1754 10.9375 20.3125 10.9375C19.4496 10.9375 18.75 10.2379 18.75 9.375Z" fill="#F55F44"/>
<path d="M25 9.375C25 8.51206 25.6996 7.8125 26.5625 7.8125C27.4254 7.8125 28.125 8.51206 28.125 9.375C28.125 10.2379 27.4254 10.9375 26.5625 10.9375C25.6996 10.9375 25 10.2379 25 9.375Z" fill="#00C2CB"/>
<path d="M31.25 9.375C31.25 8.51206 31.9496 7.8125 32.8125 7.8125C33.6754 7.8125 34.375 8.51206 34.375 9.375C34.375 10.2379 33.6754 10.9375 32.8125 10.9375C31.9496 10.9375 31.25 10.2379 31.25 9.375Z" fill="white"/>
<path d="M9.375 28.125C9.375 27.2621 10.0746 26.5625 10.9375 26.5625C11.8004 26.5625 12.5 27.2621 12.5 28.125C12.5 28.9879 11.8004 29.6875 10.9375 29.6875C10.0746 29.6875 9.375 28.9879 9.375 28.125Z" fill="#F55F44"/>
<path d="M15.625 28.125C15.625 27.2621 16.3246 26.5625 17.1875 26.5625C18.0504 26.5625 18.75 27.2621 18.75 28.125C18.75 28.9879 18.0504 29.6875 17.1875 29.6875C16.3246 29.6875 15.625 28.9879 15.625 28.125Z" fill="#00C2CB"/>
<path d="M21.875 28.125C21.875 27.2621 22.5746 26.5625 23.4375 26.5625C24.3004 26.5625 25 27.2621 25 28.125C25 28.9879 24.3004 29.6875 23.4375 29.6875C22.5746 29.6875 21.875 28.9879 21.875 28.125Z" fill="white"/>
<path d="M92.1875 3.125H17.1875C15.9443 3.125 14.752 3.61886 13.8729 4.49794C12.9939 5.37701 12.5 6.5693 12.5 7.8125V21.875H7.8125C6.5693 21.875 5.37701 22.3689 4.49794 23.2479C3.61886 24.127 3.125 25.3193 3.125 26.5625V85.9375C3.125 87.1807 3.61886 88.373 4.49794 89.2521C5.37701 90.1311 6.5693 90.625 7.8125 90.625H10.9375C11.3519 90.625 11.7493 90.4604 12.0424 90.1674C12.3354 89.8743 12.5 89.4769 12.5 89.0625C12.5 88.6481 12.3354 88.2507 12.0424 87.9576C11.7493 87.6646 11.3519 87.5 10.9375 87.5H7.8125C7.3981 87.5 7.00067 87.3354 6.70765 87.0424C6.41462 86.7493 6.25 86.3519 6.25 85.9375V34.375H84.375V85.9375C84.375 86.3519 84.2104 86.7493 83.9174 87.0424C83.6243 87.3354 83.2269 87.5 82.8125 87.5H48.4375C48.0231 87.5 47.6257 87.6646 47.3326 87.9576C47.0396 88.2507 46.875 88.6481 46.875 89.0625C46.875 89.4769 47.0396 89.8743 47.3326 90.1674C47.6257 90.4604 48.0231 90.625 48.4375 90.625H82.8125C84.0557 90.625 85.248 90.1311 86.1271 89.2521C87.0061 88.373 87.5 87.1807 87.5 85.9375V71.875H92.1875C93.4307 71.875 94.623 71.3811 95.5021 70.5021C96.3811 69.623 96.875 68.4307 96.875 67.1875V7.8125C96.875 6.5693 96.3811 5.37701 95.5021 4.49794C94.623 3.61886 93.4307 3.125 92.1875 3.125ZM6.25 31.25V26.5625C6.25 26.1481 6.41462 25.7507 6.70765 25.4576C7.00067 25.1646 7.3981 25 7.8125 25H82.8125C83.2269 25 83.6243 25.1646 83.9174 25.4576C84.2104 25.7507 84.375 26.1481 84.375 26.5625V31.25H6.25ZM93.75 67.1875C93.75 67.6019 93.5854 67.9993 93.2924 68.2924C92.9993 68.5854 92.6019 68.75 92.1875 68.75H87.5V26.5625C87.5 25.3193 87.0061 24.127 86.1271 23.2479C85.248 22.3689 84.0557 21.875 82.8125 21.875H15.625V15.625H93.75V67.1875ZM15.625 12.5V7.8125C15.625 7.3981 15.7896 7.00067 16.0826 6.70765C16.3757 6.41462 16.7731 6.25 17.1875 6.25H92.1875C92.6019 6.25 92.9993 6.41462 93.2924 6.70765C93.5854 7.00067 93.75 7.3981 93.75 7.8125V12.5H15.625Z" fill="#052B5D"/>
<path d="M25 37.5H68.75V40.625H25V37.5Z" fill="white"/>
<path d="M18.75 50H21.875V53.125H18.75V50Z" fill="white"/>
<path d="M25 43.75H68.75V46.875H25V43.75Z" fill="white"/>
<path d="M18.75 56.25H21.875V59.375H18.75V56.25Z" fill="white"/>
<path d="M18.75 37.5H21.875V40.625H18.75V37.5Z" fill="white"/>
<path d="M18.75 43.75H21.875V46.875H18.75V43.75Z" fill="white"/>
<path d="M29.6875 73.4375C28.4514 73.4375 27.243 73.8041 26.2152 74.4908C25.1874 75.1776 24.3863 76.1537 23.9133 77.2957C23.4402 78.4378 23.3164 79.6944 23.5576 80.9068C23.7988 82.1192 24.394 83.2328 25.2681 84.1069C26.1422 84.981 27.2558 85.5763 28.4682 85.8174C29.6806 86.0586 30.9372 85.9348 32.0793 85.4618C33.2213 84.9887 34.1974 84.1876 34.8842 83.1598C35.5709 82.132 35.9375 80.9236 35.9375 79.6875C35.9375 78.0299 35.279 76.4402 34.1069 75.2681C32.9348 74.096 31.3451 73.4375 29.6875 73.4375ZM29.6875 82.8125C29.0694 82.8125 28.4652 82.6292 27.9513 82.2859C27.4374 81.9425 27.0369 81.4544 26.8004 80.8834C26.5639 80.3124 26.502 79.684 26.6225 79.0778C26.7431 78.4717 27.0408 77.9148 27.4778 77.4778C27.9148 77.0408 28.4717 76.7431 29.0778 76.6225C29.684 76.502 30.3124 76.5639 30.8834 76.8004C31.4544 77.0369 31.9425 77.4374 32.2858 77.9513C32.6292 78.4653 32.8125 79.0694 32.8125 79.6875C32.8125 80.5163 32.4833 81.3112 31.8972 81.8972C31.3112 82.4833 30.5163 82.8125 29.6875 82.8125Z" fill="#052B5D"/>
<path d="M78.4375 57.2391L74.0156 52.8172C73.7227 52.5241 73.3253 52.3595 72.9109 52.3594C72.7057 52.3596 72.5024 52.4003 72.3129 52.4791C72.1233 52.558 71.9512 52.6734 71.8063 52.8188L68.9562 55.6797L68.75 55.5969V51.5625C68.75 51.1481 68.5854 50.7507 68.2924 50.4576C67.9993 50.1646 67.6019 50 67.1875 50H60.9375C60.5231 50 60.1257 50.1646 59.8326 50.4576C59.5396 50.7507 59.375 51.1481 59.375 51.5625V55.5969L59.175 55.6797L56.325 52.8125C56.1904 52.6535 56.0198 52.529 55.8274 52.4491C55.635 52.3692 55.4264 52.3363 55.2188 52.3531C54.8044 52.3532 54.407 52.5179 54.1141 52.8109L49.6922 57.2328C49.3993 57.5258 49.2347 57.9232 49.2347 58.3375C49.2347 58.7518 49.3993 59.1492 49.6922 59.4422L52.5516 62.3016C52.5245 62.3641 52.4979 62.4281 52.4719 62.4937H48.4375C48.0231 62.4937 47.6257 62.6584 47.3326 62.9514C47.0396 63.2444 46.875 63.6418 46.875 64.0562V70.3062C46.875 70.7206 47.0396 71.1181 47.3326 71.4111C47.6257 71.7041 48.0231 71.8687 48.4375 71.8687H52.4719L52.5547 72.0688L49.6875 74.925C49.5422 75.0701 49.427 75.2424 49.3483 75.4321C49.2697 75.6218 49.2292 75.8251 49.2292 76.0305C49.2292 76.2358 49.2697 76.4391 49.3483 76.6288C49.427 76.8185 49.5422 76.9908 49.6875 77.1359L54.1094 81.5578C54.4024 81.8507 54.7997 82.0153 55.2141 82.0153C55.6284 82.0153 56.0257 81.8507 56.3187 81.5578L59.1781 78.6984L59.3703 78.7781V82.8125C59.3703 83.2269 59.5349 83.6243 59.828 83.9174C60.121 84.2104 60.5184 84.375 60.9328 84.375H67.1828C67.5972 84.375 67.9946 84.2104 68.2877 83.9174C68.5807 83.6243 68.7453 83.2269 68.7453 82.8125V78.7781L68.9375 78.6984L71.7969 81.5578C72.0899 81.8507 72.4872 82.0153 72.9016 82.0153C73.3159 82.0153 73.7132 81.8507 74.0062 81.5578L78.4281 77.1359C78.5734 76.9908 78.6887 76.8185 78.7673 76.6288C78.8459 76.4391 78.8864 76.2358 78.8864 76.0305C78.8864 75.8251 78.8459 75.6218 78.7673 75.4321C78.6887 75.2424 78.5734 75.0701 78.4281 74.925L75.5672 72.075L75.6531 71.875H79.6875C80.1019 71.875 80.4993 71.7104 80.7924 71.4174C81.0854 71.1243 81.25 70.7269 81.25 70.3125V64.0625C81.25 63.6481 81.0854 63.2507 80.7924 62.9576C80.4993 62.6646 80.1019 62.5 79.6875 62.5H75.6531C75.6271 62.4344 75.6005 62.3703 75.5734 62.3078L78.4328 59.4484C78.7264 59.156 78.8918 58.759 78.8926 58.3447C78.8935 57.9304 78.7298 57.5327 78.4375 57.2391ZM78.125 65.625V68.75H74.5469C74.212 68.7498 73.8859 68.8572 73.6167 69.0564C73.3475 69.2556 73.1493 69.536 73.0516 69.8563C72.8684 70.4746 72.6224 71.0725 72.3172 71.6406C72.1914 71.8762 72.1254 72.1392 72.125 72.4062C72.1263 72.6125 72.1683 72.8164 72.2488 73.0062C72.3293 73.1961 72.4465 73.3682 72.5937 73.5125L75.125 76.0344L72.9062 78.2437L70.3703 75.7078C70.1314 75.469 69.8216 75.3141 69.4872 75.2662C69.1528 75.2183 68.8119 75.28 68.5156 75.4422C67.9475 75.7474 67.3496 75.9934 66.7313 76.1766C66.411 76.2743 66.1306 76.4725 65.9314 76.7417C65.7322 77.0109 65.6248 77.337 65.625 77.6719V81.25H62.5V77.6719C62.5002 77.337 62.3928 77.0109 62.1936 76.7417C61.9944 76.4725 61.714 76.2743 61.3937 76.1766C60.7754 75.9934 60.1775 75.7474 59.6094 75.4422C59.3131 75.28 58.9722 75.2183 58.6378 75.2662C58.3034 75.3141 57.9936 75.469 57.7547 75.7078L55.2188 78.2437L53.0078 76.0344L55.5391 73.5125C55.8376 73.2153 56.0061 72.8119 56.0078 72.3906C56.0077 72.1285 55.9416 71.8705 55.8156 71.6406C55.5105 71.0725 55.2644 70.4746 55.0812 69.8563C54.9831 69.5347 54.7838 69.2533 54.513 69.054C54.2422 68.8548 53.9143 68.7481 53.5781 68.75H50V65.625H53.5781C53.913 65.6252 54.2391 65.5178 54.5083 65.3186C54.7775 65.1194 54.9757 64.839 55.0734 64.5187C55.2566 63.9004 55.5026 63.3025 55.8078 62.7344C55.97 62.4381 56.0317 62.0972 55.9838 61.7628C55.9359 61.4284 55.781 61.1186 55.5422 60.8797L53.0062 58.3438L55.2156 56.1328L57.7375 58.6641C57.982 58.9005 58.2948 59.0538 58.6315 59.102C58.9682 59.1503 59.3115 59.0911 59.6125 58.9328C60.1806 58.6276 60.7785 58.3816 61.3969 58.1984C61.7166 58.1001 61.9963 57.9018 62.1949 57.6326C62.3934 57.3634 62.5004 57.0376 62.5 56.7031V53.125H65.625V56.7031C65.6248 57.038 65.7322 57.3641 65.9314 57.6333C66.1306 57.9025 66.411 58.1007 66.7313 58.1984C67.3496 58.3816 67.9475 58.6276 68.5156 58.9328C68.8167 59.0911 69.16 59.1503 69.4966 59.102C69.8333 59.0538 70.1462 58.9005 70.3906 58.6641L72.9125 56.1328L75.1219 58.3438L72.5859 60.8797C72.3471 61.1186 72.1922 61.4284 72.1443 61.7628C72.0964 62.0972 72.1582 62.4381 72.3203 62.7344C72.6255 63.3025 72.8716 63.9004 73.0547 64.5187C73.1523 64.8385 73.35 65.1186 73.6185 65.3177C73.8871 65.5168 74.2125 65.6245 74.5469 65.625H78.125Z" fill="#052B5D"/>
<path d="M25 50H46.875V53.125H25V50Z" fill="white"/>
<path d="M25 56.25H43.75V59.375H25V56.25Z" fill="white"/>
<path d="M64.0625 60.9375C62.8264 60.9375 61.618 61.3041 60.5902 61.9908C59.5624 62.6776 58.7613 63.6537 58.2883 64.7957C57.8152 65.9378 57.6914 67.1944 57.9326 68.4068C58.1738 69.6192 58.769 70.7328 59.6431 71.6069C60.5172 72.481 61.6308 73.0763 62.8432 73.3174C64.0556 73.5586 65.3122 73.4348 66.4543 72.9618C67.5963 72.4887 68.5724 71.6876 69.2592 70.6598C69.946 69.632 70.3125 68.4236 70.3125 67.1875C70.3125 65.5299 69.654 63.9402 68.4819 62.7681C67.3098 61.596 65.7201 60.9375 64.0625 60.9375ZM64.0625 70.3125C63.4444 70.3125 62.8403 70.1292 62.3263 69.7859C61.8124 69.4425 61.4119 68.9544 61.1754 68.3834C60.9389 67.8124 60.877 67.184 60.9976 66.5778C61.1181 65.9717 61.4158 65.4148 61.8528 64.9778C62.2898 64.5408 62.8467 64.2431 63.4528 64.1225C64.059 64.002 64.6874 64.0639 65.2584 64.3004C65.8294 64.5369 66.3175 64.9374 66.6609 65.4513C67.0042 65.9653 67.1875 66.5694 67.1875 67.1875C67.1875 68.0163 66.8583 68.8112 66.2722 69.3972C65.6862 69.9833 64.8913 70.3125 64.0625 70.3125Z" fill="#052B5D"/>
<path d="M46.875 76.5625C46.875 76.1481 46.7104 75.7507 46.4174 75.4576C46.1243 75.1646 45.7269 75 45.3125 75H41.2781C41.251 74.9344 41.2245 74.8703 41.1984 74.8078L44.0578 71.9484C44.3507 71.6554 44.5153 71.2581 44.5153 70.8438C44.5153 70.4294 44.3507 70.0321 44.0578 69.7391L39.6359 65.3172C39.343 65.0241 38.9456 64.8595 38.5312 64.8594C38.326 64.8596 38.1227 64.9003 37.9332 64.9791C37.7437 65.058 37.5715 65.1734 37.4266 65.3188L34.5766 68.1797L34.375 68.0969V64.0625C34.375 63.6481 34.2104 63.2507 33.9174 62.9576C33.6243 62.6646 33.2269 62.5 32.8125 62.5H26.5625C26.1481 62.5 25.7507 62.6646 25.4576 62.9576C25.1646 63.2507 25 63.6481 25 64.0625V68.0969L24.8 68.1797L21.95 65.3125C21.8051 65.1671 21.6329 65.0517 21.4434 64.9729C21.2538 64.8941 21.0506 64.8534 20.8453 64.8531C20.4309 64.8532 20.0336 65.0179 19.7406 65.3109L15.3125 69.7391C15.0196 70.0321 14.855 70.4294 14.855 70.8438C14.855 71.2581 15.0196 71.6554 15.3125 71.9484L18.1719 74.8078C18.1458 74.8703 18.1193 74.9344 18.0922 75H14.0625C13.6481 75 13.2507 75.1646 12.9576 75.4576C12.6646 75.7507 12.5 76.1481 12.5 76.5625V82.8125C12.5 83.2269 12.6646 83.6243 12.9576 83.9174C13.2507 84.2104 13.6481 84.375 14.0625 84.375H18.0969L18.1797 84.575L15.3125 87.425C15.1672 87.5701 15.052 87.7424 14.9733 87.9321C14.8947 88.1218 14.8542 88.3251 14.8542 88.5305C14.8542 88.7358 14.8947 88.9391 14.9733 89.1288C15.052 89.3185 15.1672 89.4908 15.3125 89.6359L19.7344 94.0578C20.0274 94.3507 20.4247 94.5153 20.8391 94.5153C21.2534 94.5153 21.6507 94.3507 21.9437 94.0578L24.8031 91.1984L24.9953 91.2781V95.3125C24.9953 95.7269 25.1599 96.1243 25.453 96.4174C25.746 96.7104 26.1434 96.875 26.5578 96.875H32.8078C33.2222 96.875 33.6196 96.7104 33.9127 96.4174C34.2057 96.1243 34.3703 95.7269 34.3703 95.3125V91.2781L34.5625 91.1984L37.4219 94.0578C37.7149 94.3507 38.1122 94.5153 38.5266 94.5153C38.9409 94.5153 39.3382 94.3507 39.6313 94.0578L44.0531 89.6359C44.1984 89.4908 44.3137 89.3185 44.3923 89.1288C44.4709 88.9391 44.5114 88.7358 44.5114 88.5305C44.5114 88.3251 44.4709 88.1218 44.3923 87.9321C44.3137 87.7424 44.1984 87.5701 44.0531 87.425L41.1922 84.575L41.2781 84.375H45.3125C45.7269 84.375 46.1243 84.2104 46.4174 83.9174C46.7104 83.6243 46.875 83.2269 46.875 82.8125V76.5625ZM43.75 81.25H40.1719C39.837 81.2498 39.5109 81.3572 39.2417 81.5564C38.9725 81.7556 38.7743 82.036 38.6766 82.3563C38.4934 82.9746 38.2474 83.5725 37.9422 84.1406C37.8164 84.3762 37.7504 84.6392 37.75 84.9062C37.7502 85.1119 37.7911 85.3155 37.8702 85.5053C37.9493 85.6952 38.0651 85.8675 38.2109 86.0125L40.7422 88.5344L38.5312 90.7437L35.9953 88.2078C35.7564 87.969 35.4466 87.8141 35.1122 87.7662C34.7778 87.7183 34.4369 87.78 34.1406 87.9422C33.5725 88.2474 32.9746 88.4934 32.3563 88.6766C32.036 88.7743 31.7556 88.9725 31.5564 89.2417C31.3572 89.5109 31.2498 89.837 31.25 90.1719V93.75H28.125V90.1719C28.1252 89.837 28.0178 89.5109 27.8186 89.2417C27.6194 88.9725 27.339 88.7743 27.0187 88.6766C26.4004 88.4934 25.8025 88.2474 25.2344 87.9422C24.9381 87.78 24.5972 87.7183 24.2628 87.7662C23.9284 87.8141 23.6186 87.969 23.3797 88.2078L20.8438 90.7437L18.6328 88.5344L21.1641 86.0125C21.4597 85.714 21.6254 85.3108 21.625 84.8906C21.6249 84.6285 21.5588 84.3705 21.4328 84.1406C21.1276 83.5725 20.8816 82.9746 20.6984 82.3563C20.6006 82.036 20.4025 81.7556 20.1333 81.5564C19.8641 81.3572 19.538 81.2498 19.2031 81.25H15.625V78.125H19.2031C19.538 78.1252 19.8641 78.0178 20.1333 77.8186C20.4025 77.6194 20.6006 77.339 20.6984 77.0187C20.8816 76.4004 21.1276 75.8025 21.4328 75.2344C21.595 74.9381 21.6567 74.5972 21.6088 74.2628C21.5609 73.9284 21.406 73.6186 21.1672 73.3797L18.6312 70.8438L20.8406 68.6328L23.3625 71.1641C23.6072 71.4001 23.92 71.5531 24.2566 71.6013C24.5931 71.6496 24.9363 71.5906 25.2375 71.4328C25.8056 71.1276 26.4035 70.8816 27.0219 70.6984C27.3416 70.6001 27.6213 70.4018 27.8199 70.1326C28.0184 69.8634 28.1254 69.5376 28.125 69.2031V65.625H31.25V69.2031C31.2498 69.538 31.3572 69.8641 31.5564 70.1333C31.7556 70.4025 32.036 70.6007 32.3563 70.6984C32.9746 70.8816 33.5725 71.1276 34.1406 71.4328C34.4418 71.5906 34.785 71.6496 35.1215 71.6013C35.4581 71.5531 35.7709 71.4001 36.0156 71.1641L38.5375 68.6328L40.7469 70.8438L38.2109 73.3797C37.9721 73.6186 37.8172 73.9284 37.7693 74.2628C37.7214 74.5972 37.7832 74.9381 37.9453 75.2344C38.2505 75.8025 38.4966 76.4004 38.6797 77.0187C38.7773 77.3385 38.975 77.6186 39.2435 77.8177C39.5121 78.0168 39.8375 78.1245 40.1719 78.125H43.75V81.25Z" fill="#052B5D"/>
</svg>
