<svg xmlns="http://www.w3.org/2000/svg" xmlns:xlink="http://www.w3.org/1999/xlink" viewBox="0 0 100 100" fill="none"><path d="M4.688 32.813h81.25v53.125c0 .83-.33 1.624-.915 2.2s-1.38.915-2.2.915h-75c-.83 0-1.624-.33-2.2-.915s-.915-1.38-.915-2.2V32.813z" fill="#ffdaaa"/><path d="M4.688 40.625v45.313c0 .83.33 1.624.915 2.2s1.38.915 2.2.915h45.312a48.41 48.41 0 01-34.259-14.179A48.41 48.41 0 014.688 40.625z" fill="#ffc477"/><path d="M85.938 26.563v43.75h6.25a3.133 3.133 0 003.125-3.125V14.063h-81.25v9.375h68.75c.83 0 1.624.33 2.2.915s.915 1.38.915 2.2z" fill="#ffb655"/><g fill="#004fac"><use xlink:href="#B"/><use xlink:href="#B" x="9.375" y="-18.75"/></g><path d="M73.688 72.39v.016l3.64 3.625-4.422 4.422-3.64-3.64a11.02 11.02 0 01-2.078.86v5.14h-6.25v-5.14a10.993 10.993 0 01-2.078-.86l-3.64 3.64-4.422-4.422 3.64-3.625v-.016a11.02 11.02 0 01-.86-2.078h-5.14v-6.25h5.14c.215-.72.503-1.417.86-2.078l-3.64-3.64 4.422-4.422 3.625 3.64h.016c.66-.357 1.358-.645 2.078-.86v-5.14h6.25v5.14c.72.215 1.417.503 2.078.86h.016l3.625-3.64 4.422 4.422-3.64 3.64c.357.66.645 1.358.86 2.078h5.14v6.25h-5.14c-.215.72-.503 1.417-.86 2.078z" fill="#ffcd00"/><path d="M64.063 71.875a4.69 4.69 0 004.688-4.687 4.69 4.69 0 00-4.687-4.687 4.69 4.69 0 00-4.687 4.688 4.69 4.69 0 004.688 4.688z" fill="#f1f2f2"/><path d="M39.313 84.89v.016l3.64 3.625-4.422 4.422-3.64-3.64c-.66.357-1.358.645-2.078.86v5.14h-6.25v-5.14a10.993 10.993 0 01-2.078-.86l-3.64 3.64-4.422-4.422 3.64-3.625v-.016a11.02 11.02 0 01-.86-2.078h-5.14v-6.25h5.14c.215-.72.503-1.417.86-2.078l-3.64-3.64 4.422-4.422 3.625 3.64h.016a11.02 11.02 0 012.078-.86v-5.14h6.25v5.14c.72.215 1.417.503 2.078.86h.016l3.625-3.64 4.422 4.422-3.64 3.64c.357.662.645 1.358.86 2.078h5.14v6.25h-5.14c-.215.72-.503 1.417-.86 2.078z" fill="#ff9811"/><path d="M29.688 84.375a4.69 4.69 0 004.688-4.687A4.69 4.69 0 0029.688 75 4.69 4.69 0 0025 79.688a4.69 4.69 0 004.688 4.688z" fill="#f1f2f2"/><use xlink:href="#C" fill="#f55f44"/><path d="M25 9.375a1.562 1.562 0 113.125 0 1.562 1.562 0 01-3.125 0z" fill="#00c2cb"/><use xlink:href="#C" x="12.5" fill="#fff"/><use xlink:href="#C" x="-9.375" y="18.75" fill="#f55f44"/><use xlink:href="#C" x="-3.125" y="18.75" fill="#00c2cb"/><use xlink:href="#C" x="3.125" y="18.75" fill="#fff"/><path d="M92.188 3.125h-75A4.69 4.69 0 0012.5 7.813v14.063H7.813a4.69 4.69 0 00-4.687 4.688v59.375a4.69 4.69 0 004.688 4.688h3.125a1.564 1.564 0 000-3.126H7.813a1.564 1.564 0 01-1.563-1.563V34.375h78.125v51.563a1.564 1.564 0 01-1.563 1.563H48.438a1.564 1.564 0 000 3.126h34.375a4.69 4.69 0 004.688-4.687V71.875h4.688a4.69 4.69 0 004.688-4.687V7.813a4.69 4.69 0 00-4.687-4.687zM6.25 31.25v-4.687A1.564 1.564 0 017.813 25h75a1.564 1.564 0 011.563 1.563v4.688H6.25zm87.5 35.938a1.564 1.564 0 01-1.563 1.563H87.5V26.563a4.69 4.69 0 00-4.687-4.687H15.625v-6.25H93.75v51.563zM15.625 12.5V7.813a1.564 1.564 0 011.563-1.563h75a1.564 1.564 0 011.563 1.563V12.5H15.625z" fill="#052b5d"/><path d="M25 37.5h43.75v3.125H25V37.5zM18.75 50h3.125v3.125H18.75V50zM25 43.75h43.75v3.125H25V43.75zm-6.25 12.5h3.125v3.125H18.75V56.25zm0-18.75h3.125v3.125H18.75V37.5zm0 6.25h3.125v3.125H18.75V43.75z" fill="#fff"/><path d="M29.688 73.438a6.25 6.25 0 00-4.419 10.669 6.25 6.25 0 0010.669-4.419 6.25 6.25 0 00-6.25-6.25zm0 9.375a3.12 3.12 0 01-1.736-.527c-.514-.344-.914-.83-1.15-1.403s-.298-1.2-.178-1.806a3.12 3.12 0 012.455-2.455 3.12 3.12 0 011.806.178 3.13 3.13 0 011.402 1.15c.342.513.527 1.118.527 1.736 0 .83-.33 1.624-.915 2.2a3.16 3.16 0 01-2.2.915zm48.75-25.573l-4.422-4.422a1.56 1.56 0 00-1.703-.338 1.47 1.47 0 00-.507.34l-2.85 2.86-.206-.083v-4.034c0-.414-.165-.812-.458-1.105A1.56 1.56 0 0067.188 50h-6.25c-.414 0-.812.165-1.105.458a1.56 1.56 0 00-.458 1.105v4.034l-.2.083-2.85-2.867a1.31 1.31 0 00-1.106-.459c-.414 0-.812.165-1.105.458l-4.422 4.422a1.58 1.58 0 00-.458 1.105 1.58 1.58 0 00.458 1.105l2.86 2.86-.08.192h-4.034c-.414 0-.812.165-1.105.458a1.56 1.56 0 00-.458 1.105v6.25c0 .414.165.812.458 1.105a1.56 1.56 0 001.105.458h4.034l.083.2-2.867 2.856c-.145.145-.26.317-.34.507a1.54 1.54 0 00-.12.598 1.53 1.53 0 00.12.598 1.59 1.59 0 00.34.507L54.1 81.56a1.56 1.56 0 002.209 0l2.86-2.86.192.08v4.034a1.56 1.56 0 001.563 1.563h6.25c.414 0 .812-.165 1.105-.458a1.56 1.56 0 00.458-1.105V78.78l.192-.08 2.86 2.86a1.56 1.56 0 002.209 0l4.422-4.422a1.56 1.56 0 00.339-.507c.08-.2.12-.393.12-.598a1.53 1.53 0 00-.12-.598 1.56 1.56 0 00-.339-.507l-2.86-2.85.086-.2H79.7c.414 0 .812-.165 1.105-.458a1.56 1.56 0 00.458-1.105v-6.25c0-.414-.165-.812-.458-1.105a1.56 1.56 0 00-1.105-.458h-4.034l-.08-.192 2.86-2.86a1.56 1.56 0 00.005-2.209zm-.312 8.386v3.125h-3.578a1.56 1.56 0 00-1.495 1.106 9.43 9.43 0 01-.734 1.784 1.63 1.63 0 00-.192.766 1.56 1.56 0 00.124.6c.08.2.198.362.345.506l2.53 2.522-2.22 2.2-2.536-2.536a1.56 1.56 0 00-1.855-.266 9.43 9.43 0 01-1.784.734 1.56 1.56 0 00-1.106 1.495v3.578H62.5v-3.578a1.56 1.56 0 00-1.106-1.495 9.43 9.43 0 01-1.784-.734 1.56 1.56 0 00-1.855.266l-2.536 2.536-2.2-2.2 2.53-2.522a1.59 1.59 0 00.469-1.122 1.56 1.56 0 00-.192-.75 9.44 9.44 0 01-.734-1.784 1.56 1.56 0 00-1.503-1.106H50v-3.125h3.578a1.56 1.56 0 001.495-1.106 9.43 9.43 0 01.734-1.784 1.56 1.56 0 00-.266-1.855l-2.536-2.536 2.2-2.2 2.522 2.53c.245.236.557.4.894.438s.68-.01.98-.17a9.43 9.43 0 011.784-.734 1.56 1.56 0 00.798-.566 1.55 1.55 0 00.305-.93v-3.578h3.125v3.578a1.56 1.56 0 001.106 1.495 9.43 9.43 0 011.784.734c.3.158.644.218.98.17s.65-.2.894-.438l2.522-2.53 2.2 2.2-2.536 2.536a1.56 1.56 0 00-.442.883c-.048.334.014.675.176.972a9.5 9.5 0 01.734 1.784 1.57 1.57 0 00.564.8c.27.2.594.307.928.307h3.578z" fill="#052b5d"/><path d="M25 50h21.875v3.125H25V50zm0 6.25h18.75v3.125H25V56.25z" fill="#fff"/><path d="M64.063 60.938a6.25 6.25 0 00-4.419 10.669 6.25 6.25 0 0010.669-4.419 6.25 6.25 0 00-6.25-6.25zm0 9.375a3.12 3.12 0 01-1.736-.527c-.514-.344-.914-.83-1.15-1.403s-.298-1.2-.178-1.806a3.12 3.12 0 012.455-2.455 3.12 3.12 0 011.806.178 3.14 3.14 0 011.403 1.15c.343.513.527 1.118.527 1.736 0 .83-.33 1.624-.915 2.2a3.16 3.16 0 01-2.2.915zm-17.188 6.25c0-.414-.165-.812-.458-1.105A1.56 1.56 0 0045.313 75H41.28l-.08-.192 2.86-2.86a1.56 1.56 0 000-2.209l-4.422-4.422a1.56 1.56 0 00-1.703-.338 1.47 1.47 0 00-.507.34l-2.85 2.86-.202-.083v-4.034c0-.414-.165-.812-.458-1.105a1.56 1.56 0 00-1.105-.458h-6.25c-.414 0-.812.165-1.105.458A1.56 1.56 0 0025 64.062v4.034l-.2.083-2.85-2.867a1.56 1.56 0 00-.507-.34 1.564 1.564 0 00-1.703.338l-4.428 4.428a1.56 1.56 0 000 2.209l2.86 2.86-.08.192h-4.03c-.414 0-.812.165-1.105.458a1.56 1.56 0 00-.458 1.105v6.25c0 .414.165.812.458 1.105a1.56 1.56 0 001.105.458h4.034l.083.2-2.867 2.85c-.145.145-.26.317-.34.507a1.54 1.54 0 00-.12.598 1.53 1.53 0 00.12.598 1.59 1.59 0 00.34.507l4.422 4.422a1.56 1.56 0 002.209 0l2.86-2.86.192.08v4.034a1.56 1.56 0 001.563 1.563h6.25c.414 0 .812-.165 1.105-.458a1.56 1.56 0 00.458-1.105v-4.034l.192-.08 2.86 2.86a1.56 1.56 0 001.105.457c.414 0 .812-.165 1.105-.457l4.422-4.422a1.56 1.56 0 00.339-.507c.08-.2.12-.393.12-.598a1.53 1.53 0 00-.12-.598 1.56 1.56 0 00-.339-.507l-2.86-2.85.086-.2h4.034c.414 0 .812-.165 1.105-.458a1.56 1.56 0 00.458-1.105v-6.25zM43.75 81.25h-3.578a1.56 1.56 0 00-1.495 1.106 9.43 9.43 0 01-.734 1.784 1.63 1.63 0 00-.192.766 1.56 1.56 0 00.12.599c.08.2.195.362.34.507l2.53 2.522-2.2 2.2-2.536-2.536a1.56 1.56 0 00-1.855-.266 9.43 9.43 0 01-1.784.734 1.56 1.56 0 00-1.106 1.495v3.578h-3.125V90.17a1.56 1.56 0 00-1.106-1.495 9.43 9.43 0 01-1.784-.734 1.56 1.56 0 00-1.855.266l-2.536 2.536-2.2-2.2 2.53-2.522a1.59 1.59 0 00.461-1.122 1.56 1.56 0 00-.192-.75 9.43 9.43 0 01-.734-1.784 1.57 1.57 0 00-.565-.8 1.56 1.56 0 00-.93-.306h-3.578v-3.125h3.578a1.56 1.56 0 00.93-.306c.27-.2.467-.48.565-.8a9.43 9.43 0 01.734-1.784 1.56 1.56 0 00-.266-1.855l-2.536-2.536 2.2-2.2 2.522 2.53a1.62 1.62 0 001.875.269 9.43 9.43 0 011.784-.734 1.56 1.56 0 00.798-.566 1.57 1.57 0 00.305-.93v-3.578h3.125v3.578a1.56 1.56 0 001.106 1.495 9.43 9.43 0 011.784.734 1.62 1.62 0 001.875-.269l2.522-2.53 2.2 2.2-2.536 2.536a1.56 1.56 0 00-.442.883c-.048.334.014.675.176.972a9.5 9.5 0 01.734 1.784 1.57 1.57 0 00.564.8c.27.2.594.307.928.307h3.578v3.125z" fill="#052b5d"/><defs><path id="B" d="M82.813 23.438h-75c-.83 0-1.624.33-2.2.915s-.915 1.38-.915 2.2v6.25h81.25v-6.25c0-.83-.33-1.624-.915-2.2s-1.38-.915-2.2-.915z"/><path id="C" d="M18.75 9.375a1.562 1.562 0 11.002.002z"/></defs></svg>