<svg xmlns="http://www.w3.org/2000/svg" viewBox="0 0 104 104" fill="none"  xmlns:v="https://vecta.io/nano"><path d="M36.23 62.918c-.324 3.397 0 6.955.81 10.35l-6.308 4.69 4.69 9.058 7.44-2.426c2.264 2.75 5.014 5.014 7.925 6.793l-1.132 7.602 9.705 3.073 3.558-6.955c3.396.324 6.955 0 10.35-.81l4.69 6.308 9.058-4.69-2.426-7.44c2.75-2.264 5.014-5.014 6.63-7.925l7.764 1.132 3.073-9.704-6.955-3.72c.323-3.397 0-6.955-.81-10.352l6.307-4.7-4.852-9.058-7.44 2.426c-2.264-2.75-5.014-5.014-7.925-6.793l1.132-7.764-9.704-3.073-3.558 7.117c-3.396-.323-6.955 0-10.35.81l-4.7-6.308-9.058 4.69 2.426 7.44c-2.75 2.264-5.014 5.014-6.63 7.925l-7.764-1.132-3.073 9.705 7.117 3.72z" fill="#fff"/><path d="M65.548 89.1C78.5 89.1 89 78.6 89 65.657S78.5 42.205 65.548 42.205s-23.453 10.5-23.453 23.453S52.595 89.1 65.548 89.1z" fill="#fdbf5e"/><g fill="#052b5d"><path d="M59.198 74.078H56.77V62.1c0-2.103-1.617-3.72-3.72-3.72s-3.72 1.617-3.72 3.72v11.97h-2.426V62.1c0-3.397 2.75-6.146 6.146-6.146s6.146 2.75 6.146 6.146v11.97zm5.662 0h-2.426V55.963h6.47c2.588 0 4.7 2.103 4.7 4.7v2.103c0 2.588-2.103 4.7-4.7 4.7H64.86v6.63zm0-9.057h4.043c1.294 0 2.264-.97 2.264-2.264v-2.103c0-1.294-.97-2.264-2.264-2.264H64.86v6.63z"/><path d="M83.135 58.4v-2.426H76.02V58.4h2.426v14.395H76.02V75.2h7.117v-2.426H80.87V58.4h2.264zm-25.23 5.498h-9.866v2.426h9.866v-2.426z"/></g><path d="M55.963 17.306v-.485c0-8.25-6.793-15.042-15.042-15.042-5.66 0-10.513 3.073-13.1 7.602-1.78-1.617-4.205-2.588-6.955-2.588-5.823 0-10.675 4.852-10.675 10.675v.162c-5.014 1.94-8.572 6.955-8.572 12.778 0 7.602 6.146 13.586 13.586 13.586H52.08c7.602 0 13.586-6.146 13.586-13.586.324-6.146-3.882-11.484-9.704-13.1z" fill="#fff"/><path d="M96.722 67.285c.162-2.91 0-5.823-.81-8.734l6.47-4.852-5.985-11.484-7.764 2.588c-1.94-2.264-4.205-4.044-6.793-5.66l1.294-8.087-12.292-3.882-3.558 7.278h-.323c.323-1.294.485-2.588.485-4.044 0-6.308-4.043-12.13-9.866-14.233C57.257 7.278 49.978.162 40.92.162c-5.337 0-10.35 2.588-13.586 6.955-1.94-1.132-4.205-1.78-6.47-1.78-6.47 0-11.807 5.014-12.292 11.322C3.235 19.247 0 24.423 0 30.407a15.19 15.19 0 0 0 15.204 15.204h26.202c-.81 1.132-1.617 2.103-2.426 3.396l-8.087-1.294-3.72 12.454 7.278 3.558c-.162 2.91 0 5.823.81 8.734l-6.47 4.852 5.985 11.484 7.764-2.588c1.94 2.264 4.205 4.044 6.793 5.66l-1.294 8.087 12.292 3.882 3.558-7.278c2.91.162 5.823-.162 8.734-.81l4.852 6.47 11.484-5.985-2.588-7.764c2.264-1.94 4.044-4.205 5.66-6.793l8.087 1.294L104 70.52l-7.278-3.235zM3.397 30.407c0-5.014 2.91-9.38 7.602-11.16l.97-.647v-1.132c0-5.014 4.044-9.058 9.058-9.058 2.103 0 4.205.81 5.823 2.103l1.456 1.294 1.132-1.617c2.426-4.205 6.793-6.793 11.645-6.793a13.39 13.39 0 0 1 13.425 13.425v1.78l1.132.323c5.176 1.456 8.734 6.308 8.734 11.645 0 6.63-5.337 11.97-11.97 11.97h-37.04c-6.63 0-11.97-5.5-11.97-12.13zm94.457 49.33l-7.44-1.132-.647.97c-1.617 2.91-3.72 5.5-6.308 7.602l-.81.647 2.426 7.117-6.63 3.397-4.53-6.146-1.132.323c-3.235.81-6.47 1.132-9.866.81l-1.132-.162-3.235 6.955-7.117-2.264 1.132-7.44-.97-.485c-2.91-1.617-5.337-3.72-7.602-6.308l-.647-.81-7.117 2.426-3.397-6.63 6.146-4.53-.323-1.132c-.81-3.235-1.132-6.47-.81-9.866l.162-1.132-6.955-3.397 2.264-7.117 7.44 1.132.485-.97c1.294-2.103 2.75-4.205 4.53-5.823h6.308c5.823 0 10.837-3.235 13.424-8.087.81 0 1.618 0 2.426.162l1.132.162 3.397-6.793 7.117 2.264-.97 7.278.97.485c2.91 1.617 5.338 3.72 7.602 6.308l.647.81 7.117-2.426 3.397 6.63-6.146 4.53.323 1.132c.81 3.235 1.132 6.47.81 9.866l-.162 1.132 6.793 3.397-2.103 7.117z" fill="#052b5d"/><path d="M39.465 31.216h8.25v-8.25l-2.426 2.426-9.705-9.866-3.397 3.397 9.866 9.866-2.588 2.426z" fill="#2ea2db"/><path d="M27.173 20.38h-8.25v8.25l2.588-2.426 9.705 9.866 3.397-3.397-9.866-9.866 2.426-2.426z" fill="#f55f44"/></svg>