<svg xmlns="http://www.w3.org/2000/svg" xmlns:xlink="http://www.w3.org/1999/xlink" width="999" height="1472" fill="none"><path d="M147.27 826.496c-7.053 26.88-31.768 43.677-31.768 43.677s-13.28-26.782-6.227-53.66 31.77-43.677 31.77-43.677 13.28 26.782 6.226 53.66z" fill="#3f3d56"/><g fill="#6c63ff"><path d="M136.57 820.8c-19.755 19.532-21.965 49.348-21.965 49.348s29.82-1.85 49.574-21.383 21.965-49.347 21.965-49.347-29.82 1.85-49.574 21.382z"/><path d="M161.344 862.303H84.07c-8.476 0-15.347 6.876-15.347 15.358v15.26c0 8.482 6.87 15.358 15.347 15.358h77.274c8.476 0 15.347-6.876 15.347-15.358v-15.26c0-8.482-6.87-15.358-15.347-15.358z"/></g><path opacity=".5" d="M904.307 832.932v-16.567H821.53v76.623a16.15 16.15 0 001.229 6.182c.81 1.96 2 3.74 3.5 5.24s3.278 2.7 5.236 3.502 4.057 1.23 6.177 1.23h50.493c4.28 0 8.387-1.7 11.414-4.73a16.16 16.16 0 004.728-11.422v-16.98c5.7-.01 11.164-2.285 15.19-6.323s6.29-9.51 6.29-15.214-2.262-11.177-6.29-15.215-9.49-6.312-15.19-6.323zm0 34.79v-26.507c3.512 0 6.88 1.396 9.364 3.882a13.26 13.26 0 013.88 9.372 13.252 13.252 0 01-13.244 13.252z" fill="url(#A)"/><use xlink:href="#D" fill="#6c63ff"/><use xlink:href="#D" opacity=".1" fill="#000"/><path d="M826.065 820.4h75.578v74.856a9.853 9.853 0 01-2.884 6.967 9.84 9.84 0 01-6.962 2.886H835.91a9.845 9.845 0 01-6.962-2.886 9.86 9.86 0 01-2.884-6.967V820.4z" fill="#6c63ff"/><path d="M981 905.108H0v33.278h981v-33.278z" fill="#e0e0e0"/><path opacity=".5" d="M645.257 682.444c-10.514-38.19-70.12-66.08-114.97-72.264l.022-.844v-32.693c.047-.017.096-.032.144-.05v-1.24c15.917-5.924 30.28-15.392 42.004-27.688s20.5-27.097 25.666-43.287a121.1 121.1 0 007.22-15.578c4.788-1.745 8.404-9.646 8.404-19.14a33.43 33.43 0 00-1.351-9.596c.587-4.835.887-9.7.897-14.572.02-17.027-3.54-33.867-10.446-49.43s-17.005-29.495-29.64-40.898a23.71 23.71 0 00.379-5.94c-1.015-15.69-17.762-26.35-33.46-27.064a33.16 33.16 0 007.861-16.692c.99-6.196.2-12.546-2.275-18.31-10.01 14.592-30.556 16.143-48.242 16.258 7.63-2.958 11.066-13.54 6.627-20.42-18.484 24.793-54.516 29.384-76.5 51.13a64.53 64.53 0 00-11.896 16.236 121.51 121.51 0 00-33.747 42.331 121.59 121.59 0 00-12.018 52.799 122.93 122.93 0 00.881 14.441 33.296 33.296 0 00-1.394 9.727c0 9.537 3.65 17.462 8.47 19.158a121.1 121.1 0 007.253 15.63 112.11 112.11 0 0025.503 43.065 111.99 111.99 0 0041.693 27.66v34.16c0 .263.015.522.02.784-45.02 6.078-105.103 34.186-115.524 72.684L313.452 774c40.968 28.807 126.93 45.722 180.804 45.722 51.185 0 134.846-15.267 174.608-41.497-4.307-23.555-14.216-61.67-23.607-95.78z" fill="url(#B)"/><path d="M494.146 810.238c49.377 0 130.082-14.727 168.438-40.03-4.154-22.722-13.713-59.5-22.772-92.395-11.537-41.906-84.35-70.958-127.785-70.958H470.17c-43.57 0-116.488 29.22-127.88 71.305l-22.558 87.973c39.52 27.79 122.445 44.106 174.414 44.106z" fill="#6c63ff"/><path d="M491.597 566.7c64.827 0 117.38-52.59 117.38-117.465S556.424 331.77 491.597 331.77s-117.38 52.59-117.38 117.465S426.77 566.7 491.597 566.7z" fill="#72351c"/><path opacity=".1" d="M453.713 547.074h75.21v60.213a37.65 37.65 0 01-11.014 26.611 37.596 37.596 0 01-26.592 11.022 37.591 37.591 0 01-26.59-11.022 37.65 37.65 0 01-11.014-26.611v-60.213z" fill="#000"/><path d="M464.5 544.287h53.635a10.78 10.78 0 017.628 3.162 10.795 10.795 0 013.16 7.634V604.5a37.65 37.65 0 01-11.014 26.61 37.588 37.588 0 01-53.182 0 37.65 37.65 0 01-11.014-26.61v-49.417a10.8 10.8 0 013.159-7.634 10.786 10.786 0 017.63-3.162z" fill="#fda57d"/><path opacity=".1" d="M453.852 575.494a108.171 108.171 0 0075.21.208v-9.246h-75.21v9.038z" fill="#000"/><path d="M491.597 580.534c59.538 0 107.803-48.3 107.803-107.882s-48.265-107.88-107.803-107.88-107.803 48.3-107.803 107.88 48.265 107.882 107.803 107.882z" fill="#fda57d"/><path opacity=".1" d="M414.81 374.523s45.432 92.288 173.593 38.68l-29.837-46.823-52.89-19-90.865 27.144z" fill="#000"/><g fill="#72351c"><path d="M414.81 373.165s45.432 92.29 173.593 38.68l-29.837-46.823-52.89-19-90.865 27.143z"/><path d="M414.405 366.93a62.257 62.257 0 0115.436-25.125c21.208-20.976 55.967-25.405 73.798-49.322 4.28 6.637.97 16.844-6.393 19.697 17.06-.1 36.882-1.607 46.537-15.683a31.99 31.99 0 012.195 17.664 31.987 31.987 0 01-7.583 16.102c15.142.688 31.298 10.97 32.276 26.108.652 10.084-5.666 19.632-13.947 25.415s-18.3 8.438-28.16 10.614c-28.786 6.35-132.942 32.972-114.16-25.47zm184.992 106.667h-2.858l-55.604 49.537c-53.57-25.108-92.9 0-92.9 0l-58.316-47.502-5.88.74a107.96 107.96 0 0033.11 74.792 107.76 107.76 0 0076.033 30.04 107.765 107.765 0 0075.236-31.987 107.92 107.92 0 0031.178-75.62zm-107.963 68.537c-20.973 0-37.974-4.253-37.974-9.5s17-9.5 37.974-9.5 37.973 4.253 37.973 9.5-17 9.5-37.973 9.5z"/></g><path d="M383.75 491.366c5.538 0 10.028-8.424 10.028-18.816s-4.5-18.817-10.028-18.817-10.028 8.425-10.028 18.817 4.5 18.816 10.028 18.816zm215.636 0c5.538 0 10.028-8.424 10.028-18.816s-4.5-18.817-10.028-18.817-10.028 8.425-10.028 18.817 4.5 18.816 10.028 18.816z" fill="#fda57d"/><path opacity=".5" d="M684.452 664.698H296.548c-8.087 0-14.643 6.56-14.643 14.654v211.103c0 8.092 6.556 14.653 14.643 14.653h387.904c8.087 0 14.643-6.56 14.643-14.653V679.352c0-8.093-6.556-14.654-14.643-14.654z" fill="url(#C)"/><path d="M664.438 669.134H316.562c-14.966 0-27.1 12.14-27.1 27.12V877.99c0 14.977 12.133 27.12 27.1 27.12h347.876c14.966 0 27.1-12.142 27.1-27.12V696.253c0-14.978-12.133-27.12-27.1-27.12z" fill="#535461"/><path d="M490.5 800.735c7.513 0 13.604-6.096 13.604-13.614s-6.09-13.614-13.604-13.614-13.604 6.095-13.604 13.614 6.09 13.614 13.604 13.614z" fill="#fff"/><path d="M939.432 938.386H41.568V952h897.864v-13.614z" fill="#e0e0e0"/><path opacity=".1" d="M939.432 938.386H41.568v4.538h897.864v-4.538zM888.04 820.4v69.96c0 3.912-1.552 7.663-4.316 10.43a14.73 14.73 0 01-10.42 4.32h7.557a14.73 14.73 0 0010.422-4.32 14.753 14.753 0 004.316-10.43V820.4h-7.558z" fill="#000"/><path d="M840.98 764.013c-1.275.218-2.713.562-3.338 1.695-.99 1.8.805 3.827 2.445 5.062 3.028 2.284 6.22 4.526 8.28 7.713s2.706 7.634.455 10.688c-2.938 3.988-9.95 4.845-10.627 9.753-.436 3.15 2.286 5.84 5.044 7.42 6.808 3.902 15.584 4.944 20.515 11.05 2.04-4.197 6.603-6.624 11.15-7.66s9.273-.96 13.884-1.662c1.49-.227 3.166-.682 3.83-2.033 1.29-2.618-2.384-5.758-1.116-8.386.965-2 3.8-1.845 5.87-2.646 3.37-1.305 4.76-5.646 3.804-9.134s-3.66-6.213-6.5-8.448c-7.66-6.022-16.868-9.564-26.182-12.112-4.332-1.185-9.418-3.043-13.917-3.222-4.344-.174-9.298 1.185-13.597 1.92z" fill="#eee"/><defs><linearGradient id="A" x1="873.679" y1="909.141" x2="873.679" y2="816.365" gradientUnits="userSpaceOnUse"><stop stop-color="gray" stop-opacity=".25"/><stop offset=".535" stop-color="gray" stop-opacity=".12"/><stop offset="1" stop-color="gray" stop-opacity=".1"/></linearGradient><linearGradient id="B" x1="213792" y1="349208" x2="213792" y2="64152.8" gradientUnits="userSpaceOnUse"><stop stop-color="gray" stop-opacity=".25"/><stop offset=".535" stop-color="gray" stop-opacity=".12"/><stop offset="1" stop-color="gray" stop-opacity=".1"/></linearGradient><linearGradient id="C" x1="202919" y1="148660" x2="202919" y2="91468.4" gradientUnits="userSpaceOnUse"><stop stop-color="gray" stop-opacity=".25"/><stop offset=".535" stop-color="gray" stop-opacity=".12"/><stop offset="1" stop-color="gray" stop-opacity=".1"/></linearGradient><path id="D" d="M901.643 835.525a19.65 19.65 0 00-10.917 3.314 19.66 19.66 0 00-7.237 8.826c-1.488 3.593-1.877 7.547-1.118 11.36s2.63 7.32 5.377 10.07 6.25 4.623 10.062 5.382 7.763.37 11.353-1.12 6.66-4.01 8.82-7.243a19.68 19.68 0 003.312-10.925 19.67 19.67 0 00-5.756-13.905 19.64 19.64 0 00-13.895-5.76zm0 31.766c-2.39 0-4.73-.7-6.718-2.04s-3.538-3.22-4.454-5.43-1.154-4.645-.688-6.992a12.1 12.1 0 013.31-6.196 12.09 12.09 0 016.191-3.312 12.076 12.076 0 016.987.69 12.1 12.1 0 015.427 4.457 12.105 12.105 0 01-1.504 15.28 12.09 12.09 0 01-8.551 3.544z"/></defs></svg>