<svg xmlns="http://www.w3.org/2000/svg" width="125" height="124" viewBox="0 0 125 124"><g transform="translate(-222 -5179)"><g transform="translate(222.479 5178.687)"><ellipse cx="62.5" cy="62" rx="62.5" ry="62" transform="translate(-0.479 0.313)" fill="#17a6af" opacity="0.11"/><ellipse cx="54.5" cy="55" rx="54.5" ry="55" transform="translate(7.521 7.313)" fill="#17a6af" opacity="0.6"/><circle cx="48" cy="48" r="48" transform="translate(14.521 14.313)" fill="#17a6af"/></g><g transform="translate(257 5213)"><g transform="translate(0)"><g transform="translate(0)"><path d="M46.522,0H8.725A4.73,4.73,0,0,0,4,4.725V34.963a4.725,4.725,0,0,0,3.544,4.575l.472-1.829A2.835,2.835,0,0,1,5.89,34.963V4.725A2.835,2.835,0,0,1,8.725,1.89h37.8a2.835,2.835,0,0,1,2.835,2.835V5.67h1.89V4.725A4.73,4.73,0,0,0,46.522,0Z" transform="translate(-4)" fill="#fff"/></g></g><g transform="translate(4.03 4.145)"><g transform="translate(0 0)"><rect width="2" height="2" transform="translate(0.234 -0.302)" fill="#fff"/></g></g><g transform="translate(7.389 4.145)"><g transform="translate(0 0)"><rect width="2" height="2" transform="translate(-0.125 -0.302)" fill="#fff"/></g></g><g transform="translate(11.419 4.145)"><g transform="translate(0 0)"><rect width="2" height="2" transform="translate(-0.155 -0.302)" fill="#fff"/></g></g><g transform="translate(9.449 15.119)"><path d="M130.025,165.129l-8.963-8.963a13.068,13.068,0,0,0,1.123-2.653h1.5v-1.89h-1.1a12.732,12.732,0,0,0-.794-6.771v-9.292h-1.89v6.017a13.3,13.3,0,0,0-1.89-1.962V131.78h-1.89v6.514a13.143,13.143,0,0,0-1.89-.9V128h-1.89v8.818a13.08,13.08,0,0,0-1.89-.266V129.89h-1.89v6.663a13.08,13.08,0,0,0-1.89.266V133.67h-1.89v3.722a13.147,13.147,0,0,0-1.89.9v-5.569h-1.89v6.89a13.3,13.3,0,0,0-1.89,1.962v-6.962h-1.89v10.237a12.732,12.732,0,0,0-.794,6.771H84v1.89H96.842a13.2,13.2,0,0,0,20.263,7.038l8.749,8.749a.945.945,0,0,0,1.336,0l2.835-2.835A.945.945,0,0,0,130.025,165.129Zm-20.512-4.057a11.339,11.339,0,1,1,11.339-11.339A11.351,11.351,0,0,1,109.513,161.073Zm17.009,6.223-7.949-7.949A13.383,13.383,0,0,0,120,157.772l8.025,8.025Z" transform="translate(-84 -128)" fill="#fff"/></g><g transform="translate(25.513 27.403)"><path d="M229.449,232a9.449,9.449,0,1,0,9.449,9.449A9.449,9.449,0,0,0,229.449,232Zm0,17.009a7.56,7.56,0,0,1-6.537-3.78h13.074A7.56,7.56,0,0,1,229.449,249.009Zm-7.311-5.67a7.49,7.49,0,0,1,2.586-7.782v5.892h1.89v-7a7.524,7.524,0,0,1,1.89-.491v7.494h1.89v-7.494a7.525,7.525,0,0,1,1.89.491v7h1.89v-5.892a7.49,7.49,0,0,1,2.586,7.782Z" transform="translate(-220 -232)" fill="#fff"/></g><g transform="translate(5.67 7.559)"><g transform="translate(0)"><path d="M94.522,64h-37.8A4.73,4.73,0,0,0,52,68.725V98.963a4.73,4.73,0,0,0,4.725,4.725H69.009V101.8H56.725a2.835,2.835,0,0,1-2.835-2.835V68.725a2.835,2.835,0,0,1,2.835-2.835h37.8a2.835,2.835,0,0,1,2.835,2.835V98.963a2.835,2.835,0,0,1-.709,1.875l1.417,1.25a4.719,4.719,0,0,0,1.181-3.125V68.725A4.73,4.73,0,0,0,94.522,64Z" transform="translate(-52 -64)" fill="#fff"/></g></g><g transform="translate(9.404 10.862)"><g transform="translate(0 0)"><rect width="2" height="2" transform="translate(-0.14 -0.019)" fill="#fff"/></g></g><g transform="translate(13.434 10.862)"><g transform="translate(0 0)"><rect width="2" height="2" transform="translate(-0.17 -0.019)" fill="#fff"/></g></g><g transform="translate(17.464 10.862)"><g transform="translate(0 0)"><rect width="2" height="2" transform="translate(-0.2 -0.019)" fill="#fff"/></g></g><g transform="translate(11.419 31.685)"><g transform="translate(0 0)"><rect width="2" height="5" transform="translate(-0.155 0.158)" fill="#fff"/></g></g><g transform="translate(15.449 24.968)"><g transform="translate(0 0)"><rect width="2" height="12" transform="translate(-0.185 -0.125)" fill="#fff"/></g></g><g transform="translate(19.479 28.326)"><g transform="translate(0 0)"><rect width="2" height="9" transform="translate(-0.215 -0.483)" fill="#fff"/></g></g></g></g></svg>