<svg xmlns="http://www.w3.org/2000/svg" width="124" height="124" viewBox="0 0 124 124"><g transform="translate(-257 -4999)"><g transform="translate(256.736 4998.672)"><circle cx="62" cy="62" r="62" transform="translate(0.264 0.328)" fill="#feab45" opacity="0.11"/><circle cx="55" cy="55" r="55" transform="translate(7.264 7.328)" fill="#feab45" opacity="0.6"/><circle cx="48" cy="48" r="48" transform="translate(14.264 14.328)" fill="#feab45"/></g><g transform="translate(292.336 5034.273)"><g transform="translate(0 0)"><path d="M81.6,61.326a1.036,1.036,0,0,0-.486,2.015,18.655,18.655,0,1,1-8.777,0,1.036,1.036,0,0,0-.486-2.015A20.828,20.828,0,0,0,60.517,68.56,20.5,20.5,0,0,0,56,81.476a20.728,20.728,0,1,0,41.456,0A20.5,20.5,0,0,0,92.941,68.56,20.828,20.828,0,0,0,81.6,61.326Z" transform="translate(-50.197 -54.944)" fill="#fff"/><path d="M52.439,24.039l-1.212-2.262.2-2.8A5.29,5.29,0,0,0,49.514,14.3L47.5,12.649l-.792-2.385a5.327,5.327,0,0,0-3.625-3.832L40.6,5.682l-1.9-2.2a5.3,5.3,0,0,0-4.558-1.843L31.56,1.9,29.025.625a5.288,5.288,0,0,0-4.987,0L21.776,1.837l-2.8-.2A5.289,5.289,0,0,0,14.3,3.55L12.649,5.563l-2.385.792A5.327,5.327,0,0,0,6.432,9.98l-.75,2.484-2.2,1.9a5.3,5.3,0,0,0-1.843,4.558L1.9,21.5.624,24.038a5.288,5.288,0,0,0,0,4.987l1.212,2.262-.2,2.8a5.291,5.291,0,0,0,1.915,4.683l2.013,1.648L6.354,42.8a5.327,5.327,0,0,0,3.625,3.832l2.484.75,1.9,2.2a5.3,5.3,0,0,0,4.558,1.843l2.578-.257,2.535,1.271a5.288,5.288,0,0,0,4.987,0l2.262-1.212,2.8.2a5.292,5.292,0,0,0,4.683-1.915L40.414,47.5,42.8,46.71a5.327,5.327,0,0,0,3.832-3.625l.751-2.484,2.2-1.9a5.3,5.3,0,0,0,1.843-4.558l-.257-2.578,1.271-2.535a5.288,5.288,0,0,0,0-4.987Zm-1.834,4.02-.013.025L49.18,30.9a1.037,1.037,0,0,0-.1.568l.287,2.876a3.234,3.234,0,0,1-1.13,2.781L45.8,39.229a1.036,1.036,0,0,0-.314.484l-.838,2.772A3.248,3.248,0,0,1,42.28,44.7c-.031.007-.061.016-.091.026l-2.713.9a1.036,1.036,0,0,0-.475.327L37.162,48.2a3.226,3.226,0,0,1-2.869,1.166l-.041,0-3.116-.225a1.036,1.036,0,0,0-.564.12l-2.525,1.353A3.218,3.218,0,0,1,25,50.606l-.025-.013L22.164,49.18a1.037,1.037,0,0,0-.465-.11q-.051,0-.1.005l-2.876.287a3.233,3.233,0,0,1-2.781-1.13L13.834,45.8a1.035,1.035,0,0,0-.484-.314l-2.772-.837a3.248,3.248,0,0,1-2.217-2.367q-.011-.046-.026-.091l-.9-2.713A1.035,1.035,0,0,0,7.108,39L4.863,37.163A3.226,3.226,0,0,1,3.7,34.294c0-.014,0-.027,0-.041l.225-3.116a1.036,1.036,0,0,0-.12-.564L2.452,28.048a3.218,3.218,0,0,1,.006-3.043l.013-.025,1.412-2.815a1.036,1.036,0,0,0,.1-.567L3.7,18.721a3.234,3.234,0,0,1,1.13-2.781l2.433-2.105a1.037,1.037,0,0,0,.314-.484l.837-2.772a3.249,3.249,0,0,1,2.367-2.217q.046-.011.091-.026l2.713-.9a1.035,1.035,0,0,0,.475-.327L15.9,4.863A3.227,3.227,0,0,1,18.77,3.7l.041,0,3.116.225a1.04,1.04,0,0,0,.564-.12l2.525-1.353a3.218,3.218,0,0,1,3.042.006l.025.013L30.9,3.884a1.035,1.035,0,0,0,.567.1L34.343,3.7a3.233,3.233,0,0,1,2.781,1.13l2.105,2.433a1.036,1.036,0,0,0,.484.314l2.772.837A3.249,3.249,0,0,1,44.7,10.784q.011.046.026.091l.9,2.713a1.036,1.036,0,0,0,.327.475L48.2,15.9a3.226,3.226,0,0,1,1.166,2.869c0,.014,0,.027,0,.041l-.225,3.116a1.037,1.037,0,0,0,.12.564l1.353,2.525a3.218,3.218,0,0,1-.006,3.043Z" transform="translate(0.001 0)" fill="#fff"/><path d="M148.184,110.7a1.036,1.036,0,0,0-.936-.593h-5.476a1.036,1.036,0,0,0-1.036,1.036v15.688a1.036,1.036,0,0,0,1.036,1.036h5.476a1.036,1.036,0,0,0,.955-.634,19.643,19.643,0,0,1,2.451.57,14.9,14.9,0,0,0,3.96.717H160.6a4.157,4.157,0,0,0,4.009-2.623,3.719,3.719,0,0,0,.19-2.326,3.739,3.739,0,0,0,.855-1.144,3.948,3.948,0,0,0,.282-2.8,3.88,3.88,0,0,0,1.022-3.646,3.122,3.122,0,0,0,.6-4.965,3.241,3.241,0,0,0-2.248-.885h-8.433a2.815,2.815,0,0,1-.475-2.772,5.38,5.38,0,0,0-.15-4.945,4.219,4.219,0,0,0-3.765-2.193,1.961,1.961,0,0,0-1.673,1.635,6.059,6.059,0,0,0-.086.882,7.324,7.324,0,0,1-.806,3.288,8.734,8.734,0,0,0-.778,2.69C148.936,109.9,148.838,110.476,148.184,110.7Zm-5.375,1.48h3.4V125.79h-3.4Zm8.372-3.118a7.013,7.013,0,0,1,.572-2.076,9.394,9.394,0,0,0,1.038-4.139,5.214,5.214,0,0,1,.047-.576v0a2.43,2.43,0,0,1,1.572,1.113,3.309,3.309,0,0,1,.07,3.184,4.783,4.783,0,0,0,.03,3.579,1.036,1.036,0,0,0,.144,2.062H165.3a1.177,1.177,0,0,1,.819.313,1.056,1.056,0,0,1,.325.789,1.116,1.116,0,0,1-1.113,1.05l-2.668.058a1.036,1.036,0,0,0,.022,2.073h.023l2.222-.048a1.686,1.686,0,0,1-.042,1.046,1.388,1.388,0,0,1-1.355,1.022,1.036,1.036,0,0,0,0,2.073,3.667,3.667,0,0,0,.462-.029,2.029,2.029,0,0,1-.208.966,1.386,1.386,0,0,1-1.278.853,1.036,1.036,0,1,0,0,2.073q.161,0,.318-.014a1.956,1.956,0,0,1-.156.719,2.115,2.115,0,0,1-2.077,1.3h-5.983a13.177,13.177,0,0,1-3.407-.642,19.911,19.911,0,0,0-2.923-.652V112.793C150.618,112.371,150.94,110.482,151.181,109.058Z" transform="translate(-126.15 -89.811)" fill="#fff"/><path d="M247.036,58.074a1.036,1.036,0,1,0,0-2.073h0a1.036,1.036,0,0,0,0,2.073Z" transform="translate(-220.504 -50.197)" fill="#fff"/></g></g></g></svg>