<svg width="48" height="48" viewBox="0 0 48 48" fill="none" xmlns="http://www.w3.org/2000/svg">
<path d="M17.33 6.44C17.33 18.04 26.73 27.44 38.33 27.44C41.57 27.44 44.62 26.69 47.36 25.38V0.130005H18.3C17.67 2.12 17.33 4.24 17.33 6.44Z" fill="#1FBEC8"/>
<path d="M10 35.92C12.397 35.92 14.34 33.9769 14.34 31.58C14.34 29.1831 12.397 27.24 10 27.24C7.60312 27.24 5.66003 29.1831 5.66003 31.58C5.66003 33.9769 7.60312 35.92 10 35.92Z" fill="white"/>
<path d="M18.62 47.13C18.33 42.62 14.59 39.05 10.01 39.05C5.43003 39.05 1.68002 42.62 1.40002 47.13H18.62Z" fill="#1FBEC8"/>
<path d="M36.73 35.92C39.1269 35.92 41.07 33.9769 41.07 31.58C41.07 29.1831 39.1269 27.24 36.73 27.24C34.3331 27.24 32.39 29.1831 32.39 31.58C32.39 33.9769 34.3331 35.92 36.73 35.92Z" fill="white"/>
<path d="M45.34 47.13C45.05 42.62 41.31 39.05 36.73 39.05C32.15 39.05 28.4 42.62 28.12 47.13H45.34Z" fill="#1FBEC8"/>
<path d="M26.9 6.33V1.13H5.39001V14.22H8.47002V18.92L12.49 14.22H16.14" fill="#1FBEC8"/>
<path d="M37.66 6.32999V19.42H34.58V24.12L30.56 19.42H16.14V6.32999H37.66Z" fill="#1FBEC8"/>
<path d="M4.91003 31.58C4.91003 34.39 7.19003 36.67 10 36.67C12.81 36.67 15.09 34.39 15.09 31.58C15.09 28.77 12.81 26.49 10 26.49C7.19003 26.49 4.91003 28.78 4.91003 31.58ZM13.59 31.58C13.59 33.56 11.98 35.17 10 35.17C8.02003 35.17 6.41003 33.56 6.41003 31.58C6.41003 29.6 8.02003 27.99 10 27.99C11.98 27.99 13.59 29.6 13.59 31.58Z" fill="#1C2E5C"/>
<path d="M9.99998 38.29C5.06998 38.29 0.949978 42.15 0.639978 47.08C0.629978 47.29 0.699978 47.49 0.839978 47.64C0.979978 47.79 1.17998 47.88 1.38998 47.88H18.62C18.83 47.88 19.03 47.79 19.17 47.64C19.31 47.49 19.38 47.29 19.37 47.08C19.05 42.15 14.93 38.29 9.99998 38.29ZM2.22998 46.37C2.85998 42.62 6.12998 39.79 9.99998 39.79C13.87 39.79 17.15 42.62 17.77 46.37H2.22998Z" fill="#1C2E5C"/>
<path d="M31.64 31.58C31.64 34.39 33.92 36.67 36.73 36.67C39.54 36.67 41.82 34.39 41.82 31.58C41.82 28.77 39.54 26.49 36.73 26.49C33.92 26.49 31.64 28.78 31.64 31.58ZM40.32 31.58C40.32 33.56 38.71 35.17 36.73 35.17C34.75 35.17 33.14 33.56 33.14 31.58C33.14 29.6 34.75 27.99 36.73 27.99C38.71 27.99 40.32 29.6 40.32 31.58Z" fill="#1C2E5C"/>
<path d="M36.73 38.29C31.8 38.29 27.68 42.15 27.37 47.08C27.36 47.29 27.43 47.49 27.57 47.64C27.71 47.79 27.91 47.88 28.12 47.88H45.35C45.56 47.88 45.76 47.79 45.9 47.64C46.04 47.49 46.11 47.29 46.1 47.08C45.77 42.15 41.66 38.29 36.73 38.29ZM28.95 46.37C29.58 42.62 32.85 39.79 36.72 39.79C40.6 39.79 43.87 42.62 44.49 46.37H28.95Z" fill="#1C2E5C"/>
<path d="M16.15 10.64C16.5642 10.64 16.9 10.3042 16.9 9.88998C16.9 9.47577 16.5642 9.13998 16.15 9.13998C15.7358 9.13998 15.4 9.47577 15.4 9.88998C15.4 10.3042 15.7358 10.64 16.15 10.64Z" fill="#1C2E5C"/>
<path d="M5.39001 14.97H7.72002V18.92C7.72002 19.23 7.92001 19.51 8.21001 19.62C8.29001 19.65 8.38002 19.67 8.47002 19.67C8.68002 19.67 8.89001 19.58 9.04001 19.41L12.84 14.97H15.4V19.43C15.4 19.63 15.48 19.82 15.62 19.96C15.76 20.1 15.95 20.18 16.15 20.18H30.22L34.01 24.62C34.16 24.79 34.36 24.88 34.58 24.88C34.67 24.88 34.76 24.87 34.84 24.83C35.14 24.73 35.33 24.44 35.33 24.13V20.18H37.66C37.86 20.18 38.05 20.1 38.19 19.96C38.33 19.82 38.41 19.63 38.41 19.43V6.33C38.41 6.13 38.33 5.94 38.19 5.8C38.05 5.66 37.86 5.58 37.66 5.58H27.66V1.11999C27.66 0.709995 27.32 0.369995 26.91 0.369995H5.39001C4.98001 0.369995 4.64001 0.709995 4.64001 1.11999V14.21C4.64001 14.63 4.98001 14.97 5.39001 14.97ZM6.14001 1.86999H26.15V5.58H16.15C15.95 5.58 15.76 5.66 15.62 5.8C15.48 5.93 15.4 6.13 15.4 6.33V7.89C15.4 8.31 15.73 8.64 16.15 8.64C16.56 8.64 16.9 8.31 16.9 7.89V7.08H36.91V18.67H34.58C34.39 18.67 34.19 18.75 34.05 18.89C33.91 19.03 33.83 19.22 33.83 19.42V22.09L31.13 18.93C30.99 18.76 30.78 18.67 30.56 18.67H16.9V11.89C16.9 11.48 16.56 11.14 16.15 11.14C15.73 11.14 15.4 11.48 15.4 11.89V13.46H12.49C12.27 13.46 12.06 13.56 11.92 13.72L9.22002 16.88V14.21C9.22002 13.8 8.88002 13.46 8.47002 13.46H6.14001V1.86999Z" fill="#1C2E5C"/>
<path d="M19.87 10.77H33.93C34.34 10.77 34.68 10.43 34.68 10.02C34.68 9.60999 34.34 9.26999 33.93 9.26999H19.87C19.46 9.26999 19.12 9.60999 19.12 10.02C19.12 10.43 19.45 10.77 19.87 10.77Z" fill="#1C2E5C"/>
<path d="M19.87 13.86H33.93C34.34 13.86 34.68 13.52 34.68 13.11C34.68 12.7 34.34 12.36 33.93 12.36H19.87C19.46 12.36 19.12 12.7 19.12 13.11C19.12 13.52 19.45 13.86 19.87 13.86Z" fill="#1C2E5C"/>
<path d="M19.87 16.96H28.57C28.98 16.96 29.32 16.62 29.32 16.21C29.32 15.8 28.98 15.46 28.57 15.46H19.87C19.46 15.46 19.12 15.8 19.12 16.21C19.12 16.62 19.45 16.96 19.87 16.96Z" fill="#1C2E5C"/>
</svg>
