<svg xmlns="http://www.w3.org/2000/svg" width="124" height="124" viewBox="0 0 124 124"><g transform="translate(-203 -4820)"><g transform="translate(203 4820)"><circle cx="62" cy="62" r="62" fill="#052b5d" opacity="0.11"/><circle cx="55" cy="55" r="55" transform="translate(7 7)" fill="#052b5d" opacity="0.6"/><circle cx="48" cy="48" r="48" transform="translate(14 14)" fill="#052b5d"/></g><g transform="translate(238.6 4854.257)"><g transform="translate(42.774 20.732)"><g transform="translate(0)"><path d="M407.052,192.93a1.076,1.076,0,1,0-1.522,1.522l.05.049a1.076,1.076,0,0,0,1.472-1.571Z" transform="translate(-405.214 -192.615)" fill="#fff"/></g></g><g transform="translate(28.841 16.493)"><path d="M289.348,156.016a16.846,16.846,0,0,0-1.88-1.109,14.436,14.436,0,0,0-10.947-1.044,1.076,1.076,0,1,0,.638,2.056,12.323,12.323,0,0,1,9.34.91,14.991,14.991,0,0,1,1.639.968,1.076,1.076,0,1,0,1.209-1.781Z" transform="translate(-275.764 -153.23)" fill="#fff"/></g><g transform="translate(6.873 6.83)"><path d="M117.012,89.836a13.849,13.849,0,0,1-1.185-2.966,10.179,10.179,0,0,0-1.3-9.676,20.166,20.166,0,0,0-15.712-8.336,19.261,19.261,0,0,0-8.874,2.156,9.214,9.214,0,1,0-13.871,9.52,1.8,1.8,0,0,1,1.039,1.6v6.3a2.182,2.182,0,0,0,2.179,2.18h.366a19.17,19.17,0,0,0,6.491,12.138,4.245,4.245,0,0,1-.294,2.092c-.333,1.159-.844,2.446-1.3,3.581-.3.76-.563,1.416-.72,1.912a1.076,1.076,0,0,0,1.026,1.4h15.364a1.747,1.747,0,0,0,1.635-1.3,10.522,10.522,0,0,0,.445-1.63c.128-.582.428-1.944.726-2.109a.218.218,0,0,1,.06,0,1.057,1.057,0,0,0,.167.013c1.609,0,2.924.073,4.084.137,3.4.189,5.456.3,7.257-2.292.916-1.32.812-3.245.7-5.283a19.225,19.225,0,0,1-.011-3.036,9.391,9.391,0,0,1,.953-.71c1.015-.7,1.973-1.355,1.973-2.355A9.438,9.438,0,0,0,117.012,89.836ZM77.2,78.7a7.062,7.062,0,1,1,7.367,0,3.917,3.917,0,0,0-1.887,2.306H79.086A3.919,3.919,0,0,0,77.2,78.7Zm5.3,4.459v1.574H79.267V83.158Zm-3.206,5.3a.031.031,0,0,1-.026-.027V86.885H82.5v1.547a.031.031,0,0,1-.027.027Zm35.738,5.3c-.926.636-1.727,1.186-1.845,2.017a19.161,19.161,0,0,0-.028,3.619c.082,1.512.174,3.226-.321,3.939-1.071,1.543-2,1.558-5.37,1.37-1.113-.062-2.493-.138-4.131-.141a2.294,2.294,0,0,0-2.4,1.424,10,10,0,0,0-.725,2.358,11.437,11.437,0,0,1-.32,1.242H86.416l.146-.367c1.551-3.9,2.533-6.768,1.038-8.06a17.034,17.034,0,0,1-5.768-10.545h.641a2.182,2.182,0,0,0,2.179-2.18v-6.3a1.8,1.8,0,0,1,1.039-1.6,9.151,9.151,0,0,0,4.377-7.125,17.1,17.1,0,0,1,8.751-2.4,18.127,18.127,0,0,1,13.921,7.378,8.078,8.078,0,0,1,1.069,7.73c-.422,1.017.2,2.427,1.26,4.643A19.425,19.425,0,0,1,116.037,93,10.169,10.169,0,0,1,115.031,93.754Z" transform="translate(-71.668 -63.458)" fill="#fff"/></g><g transform="translate(17.512 11.675)"><path d="M174.369,111.318a4.309,4.309,0,0,0-2.285-2.729,1.076,1.076,0,0,0-.987,1.913,2.158,2.158,0,0,1,1.194,1.376,3.263,3.263,0,0,1-.3,2.224,1.076,1.076,0,1,0,1.815,1.157A5.4,5.4,0,0,0,174.369,111.318Z" transform="translate(-170.514 -108.47)" fill="#fff"/></g><g transform="translate(15.011)"><path d="M148.355,0a1.076,1.076,0,0,0-1.076,1.076V4.145a1.076,1.076,0,0,0,2.153,0V1.076A1.077,1.077,0,0,0,148.355,0Z" transform="translate(-147.279 0)" fill="#fff"/></g><g transform="translate(0 15.011)"><g transform="translate(0)"><path d="M11.96,139.465H8.891a1.076,1.076,0,1,0,0,2.153H11.96a1.076,1.076,0,0,0,0-2.153Z" transform="translate(-7.815 -139.465)" fill="#fff"/></g></g><g transform="translate(7.505 2.011)"><path d="M81.088,21.879l-1.534-2.656A1.076,1.076,0,1,0,77.69,20.3l1.534,2.656a1.076,1.076,0,0,0,1.864-1.076Z" transform="translate(-77.545 -18.684)" fill="#fff"/></g><g transform="translate(2.011 7.506)"><path d="M30.767,71.413,28.11,69.879a1.076,1.076,0,0,0-1.076,1.864l2.657,1.534a1.076,1.076,0,0,0,1.076-1.864Z" transform="translate(-26.495 -69.735)" fill="#fff"/></g><g transform="translate(25.355 7.506)"><path d="M248.047,70.271a1.076,1.076,0,0,0-1.47-.394l-2.657,1.534A1.076,1.076,0,1,0,245,73.275l2.657-1.534A1.076,1.076,0,0,0,248.047,70.271Z" transform="translate(-243.382 -69.732)" fill="#fff"/></g><g transform="translate(2.011 20.983)"><g transform="translate(0)"><path d="M31.161,195.484a1.076,1.076,0,0,0-1.47-.394l-2.657,1.534a1.076,1.076,0,1,0,1.076,1.864l2.657-1.534A1.076,1.076,0,0,0,31.161,195.484Z" transform="translate(-26.495 -194.946)" fill="#fff"/></g></g><g transform="translate(7.505 25.738)"><path d="M80.472,239.271a1.077,1.077,0,0,0-1.47.394l-1.313,2.274a1.076,1.076,0,1,0,1.864,1.076l1.313-2.274A1.076,1.076,0,0,0,80.472,239.271Z" transform="translate(-77.545 -239.127)" fill="#fff"/></g><g transform="translate(20.983 2.011)"><path d="M205.912,18.828a1.076,1.076,0,0,0-1.47.394l-1.534,2.656a1.076,1.076,0,1,0,1.864,1.076l1.534-2.656A1.076,1.076,0,0,0,205.912,18.828Z" transform="translate(-202.763 -18.683)" fill="#fff"/></g></g></g></svg>