<svg xmlns="http://www.w3.org/2000/svg" width="80" height="80.053" viewBox="0 0 80 80.053"><g transform="translate(-0.159 0)"><g transform="translate(0.159 16.053)"><g transform="translate(0)"><path d="M25.492,125.651a3.961,3.961,0,0,1-4-3.733,13.271,13.271,0,0,0,8-12.667v-.933a11.95,11.95,0,0,0-12-12h-16A1.26,1.26,0,0,0,.159,97.651a11.971,11.971,0,0,0,3.2,8.133,19.273,19.273,0,0,0-.533,3.867,13.475,13.475,0,0,0,8,12.267,3.961,3.961,0,0,1-4,3.733,6.6,6.6,0,0,0-6.667,6.667v26.667a1.26,1.26,0,0,0,1.333,1.333H30.826a1.26,1.26,0,0,0,1.333-1.333V132.318A6.6,6.6,0,0,0,25.492,125.651ZM2.959,98.985H17.492a9.329,9.329,0,0,1,9.2,8H12.159A9.329,9.329,0,0,1,2.959,98.985Zm2.533,10.667a8.2,8.2,0,0,1,.133-1.867,12.771,12.771,0,0,0,6.533,1.867H26.826a10.5,10.5,0,0,1-7.067,10,1.281,1.281,0,0,0-.933,1.2v.8a6.767,6.767,0,0,0,2,4.8l-3.467.533h-2.4l-3.467-.533a6.338,6.338,0,0,0,2-4.8v-.667a1.281,1.281,0,0,0-.933-1.2A10.8,10.8,0,0,1,5.492,109.651Zm13.333,35.6-2.667,2.533-2.533-2.533,2.4-15.6h.4Zm-16-12.933a3.986,3.986,0,0,1,3.867-4l6.533,1.067-2.533,16a2.151,2.151,0,0,0,.4,1.2l4,4a1.289,1.289,0,0,0,1.867,0l4-4a1.63,1.63,0,0,0,.4-1.2l-2.533-16,6.533-1.067a3.986,3.986,0,0,1,3.867,4v20H2.826v-20Zm26.667,25.333H2.826v-2.667H29.492Z" transform="translate(-0.159 -96.318)" fill="#17a6af"/></g></g><g transform="translate(24.159 0)"><g transform="translate(0 0)"><path d="M194.826,10.72h-6l-1.467-2.267a3.986,3.986,0,0,0-3.333-1.733h-2.933a1.3,1.3,0,0,1-1.333-1.067,8.064,8.064,0,0,0-10-5.333,8.2,8.2,0,0,0-5.333,5.333,1.436,1.436,0,0,1-1.333,1.067h-2.933a4.169,4.169,0,0,0-3.333,1.733l-1.333,2.267h-6a5.349,5.349,0,0,0-5.333,5.333h2.667a2.675,2.675,0,0,1,2.667-2.667h4.267a2.615,2.615,0,0,0,.933,3.6,2.573,2.573,0,0,0,1.333.4h32.4a2.675,2.675,0,0,0,2.667-2.667,2.252,2.252,0,0,0-.4-1.333h4.133a2.675,2.675,0,0,1,2.667,2.667V74.72a2.675,2.675,0,0,1-2.667,2.667h-40v2.667h40a5.349,5.349,0,0,0,5.333-5.333V16.053A5.349,5.349,0,0,0,194.826,10.72Zm-38.8,4,3.067-4.8a1.69,1.69,0,0,1,1.2-.533h2.933a4.122,4.122,0,0,0,3.867-2.933,5.313,5.313,0,0,1,10.133,0,4.122,4.122,0,0,0,3.867,2.933h2.933a1.646,1.646,0,0,1,1.067.533l3.2,4.8Z" transform="translate(-144.159 0)" fill="#17a6af"/></g></g><g transform="translate(50.826 5.387)"><rect width="2.667" height="2.667" fill="#17a6af"/></g><g transform="translate(36.559 31.12)"><path d="M228.426,188.585l-1.867-1.867-3.067,3.067-3.067-3.067-1.867,1.867,3.067,3.067-3.067,3.067,1.867,1.867,3.067-3.067,3.067,3.067,1.867-1.867-3.067-3.067Z" transform="translate(-218.559 -186.718)" fill="#17a6af"/></g><g transform="translate(51.226 57.787)"><path d="M316.426,348.585l-1.867-1.867-3.067,3.067-3.067-3.067-1.867,1.867,3.067,3.067-3.067,3.067,1.867,1.867,3.067-3.067,3.067,3.067,1.867-1.867-3.067-3.067Z" transform="translate(-306.559 -346.718)" fill="#17a6af"/></g><g transform="translate(36.159 37.387)"><path d="M242.426,224.718a1.289,1.289,0,0,0-1.867,0l-5.333,5.333,1.867,1.867,3.067-3.067v2.8a5.975,5.975,0,0,1-6,6,8.649,8.649,0,0,0-8.667,8.667v1.333a5.975,5.975,0,0,1-6,6h-3.333v2.667h3.333a8.649,8.649,0,0,0,8.667-8.667v-1.333a5.975,5.975,0,0,1,6-6,8.649,8.649,0,0,0,8.667-8.667v-2.8l3.067,3.067,1.867-1.867Z" transform="translate(-216.159 -224.318)" fill="#17a6af"/></g><g transform="translate(53.596 20.157)"><path d="M337.611,123.236l-1.867-2-1.733,1.733a7.825,7.825,0,1,0,1.733,2.133Zm-8.933,10.933a5.334,5.334,0,1,1,3.467-9.333l-3.467,3.467-1.733-1.733-1.867,1.867,2.667,2.667a1.289,1.289,0,0,0,1.867,0l4-4a3.691,3.691,0,0,1,.4,1.733A5.349,5.349,0,0,1,328.677,134.17Z" transform="translate(-320.781 -120.94)" fill="#17a6af"/></g><g transform="translate(21.492 54.72)"><rect width="4" height="2.667" fill="#17a6af"/></g><g transform="translate(34.826 17.387)"><path d="M245.492,104.318v54.667H208.159v2.667h38.667a1.26,1.26,0,0,0,1.333-1.333v-56Z" transform="translate(-208.159 -104.318)" fill="#17a6af"/></g></g></svg>