<svg width="48" height="44" viewBox="0 0 48 44" fill="none" xmlns="http://www.w3.org/2000/svg">
<path d="M19.14 18.14C22.16 20.5 25.95 21.91 30.07 21.91C39.9 21.91 47.87 13.94 47.87 4.11C47.87 2.79 47.72 1.52 47.45 0.279999H19.14V18.14Z" fill="#1FBEC8"/>
<path d="M40.05 34.25C41.9443 34.25 43.48 32.7143 43.48 30.82C43.48 28.9256 41.9443 27.39 40.05 27.39C38.1557 27.39 36.62 28.9256 36.62 30.82C36.62 32.7143 38.1557 34.25 40.05 34.25Z" fill="white"/>
<path d="M33.24 42.97H36.17H46.88C46.65 39.4 43.69 36.57 40.06 36.57C38.11 36.57 36.35 37.39 35.11 38.71" fill="#1FBEC8"/>
<path d="M7.69001 34.25C9.58435 34.25 11.12 32.7143 11.12 30.82C11.12 28.9256 9.58435 27.39 7.69001 27.39C5.79567 27.39 4.26001 28.9256 4.26001 30.82C4.26001 32.7143 5.79567 34.25 7.69001 34.25Z" fill="white"/>
<path d="M14.5 42.97H11.57H0.880005C1.1 39.4 4.06 36.57 7.69 36.57C9.64 36.57 11.4 37.39 12.64 38.71" fill="#1FBEC8"/>
<path d="M32.5499 14.52C32.5799 17.26 31.3399 19.7 29.3899 21.31C28.1099 22.37 27.32 23.92 27.32 25.59V25.6H20.43V25.59C20.43 23.91 19.61 22.36 18.32 21.27C16.41 19.67 15.2 17.29 15.2 14.61C15.2 9.7 19.28 5.74 24.24 5.94C28.79 6.12 32.4999 9.96 32.5499 14.52Z" fill="#1FBEC8"/>
<path d="M36.1699 42.97C35.7599 36.53 30.4199 31.43 23.8699 31.43C17.3299 31.43 11.9899 36.53 11.5699 42.97H36.1699Z" fill="#1FBEC8"/>
<path d="M40.05 35.01C42.36 35.01 44.23 33.13 44.23 30.83C44.23 28.53 42.35 26.65 40.05 26.65C37.75 26.65 35.86 28.53 35.86 30.83C35.86 33.13 37.75 35.01 40.05 35.01ZM40.05 28.14C41.53 28.14 42.73 29.34 42.73 30.82C42.73 32.3 41.53 33.5 40.05 33.5C38.57 33.5 37.36 32.3 37.36 30.82C37.36 29.34 38.57 28.14 40.05 28.14Z" fill="#1C2E5C"/>
<path d="M40.06 35.82C38.3 35.82 36.66 36.41 35.33 37.49C33.1 33.42 28.78 30.67 23.87 30.67C18.96 30.67 14.65 33.42 12.41 37.49C11.08 36.41 9.43996 35.82 7.67996 35.82C3.68996 35.82 0.369959 38.94 0.119959 42.92C0.109959 43.13 0.179959 43.33 0.319959 43.48C0.459959 43.63 0.659959 43.72 0.869959 43.72H46.87C47.08 43.72 47.28 43.63 47.42 43.48C47.56 43.33 47.63 43.13 47.62 42.92C47.37 38.94 44.04 35.82 40.06 35.82ZM23.87 32.18C29.69 32.18 34.58 36.53 35.34 42.22H28.73V39.77C28.73 39.36 28.39 39.02 27.98 39.02C27.57 39.02 27.23 39.36 27.23 39.77V42.22H17.7V39.77C17.7 39.36 17.36 39.02 16.95 39.02C16.54 39.02 16.2 39.36 16.2 39.77V42.22H12.4C13.16 36.53 18.05 32.18 23.87 32.18ZM7.68996 37.32C9.21996 37.32 10.64 37.88 11.75 38.89C11.33 39.94 11.04 41.05 10.91 42.21H1.72996C2.27996 39.42 4.75996 37.32 7.68996 37.32ZM36.84 42.22C36.7 41.06 36.42 39.94 36 38.9C37.11 37.88 38.53 37.33 40.06 37.33C42.99 37.33 45.47 39.42 46.03 42.23H36.84V42.22Z" fill="#1C2E5C"/>
<path d="M7.69 35.01C10 35.01 11.87 33.13 11.87 30.83C11.87 28.53 10 26.64 7.69 26.64C5.38 26.64 3.5 28.52 3.5 30.82C3.5 33.12 5.38 35.01 7.69 35.01ZM7.69 28.14C9.17 28.14 10.37 29.34 10.37 30.82C10.37 32.3 9.17 33.5 7.69 33.5C6.21 33.5 5 32.3 5 30.82C5 29.34 6.21 28.14 7.69 28.14Z" fill="#1C2E5C"/>
<path d="M17.82 21.85C19 22.83 19.67 24.2 19.67 25.6V25.61C19.67 25.81 19.75 26 19.89 26.14C20.03 26.28 20.22 26.36 20.42 26.36H27.31C27.51 26.36 27.7 26.28 27.84 26.14C27.98 26 28.06 25.81 28.06 25.61V25.6C28.06 24.19 28.72 22.84 29.86 21.89C32.04 20.09 33.29 17.44 33.29 14.62V14.52C33.27 12.23 32.39 10.02 30.82 8.28999C30.55 7.99999 30.06 7.96999 29.76 8.23999C29.46 8.51999 29.43 8.98999 29.71 9.29999C31.04 10.76 31.78 12.61 31.79 14.53V14.62C31.79 16.99 30.74 19.22 28.9 20.74C27.62 21.8 26.8 23.26 26.61 24.86H24.62V16.09L25.63 17.14C25.9 17.43 26.4 17.45 26.69 17.17C26.99 16.88 27 16.41 26.71 16.11L24.41 13.7C24.4 13.69 24.38 13.68 24.37 13.67C24.34 13.64 24.31 13.62 24.27 13.6C24.25 13.59 24.23 13.57 24.2 13.56C24.18 13.55 24.16 13.53 24.14 13.53C24.11 13.52 24.08 13.52 24.05 13.51C24.03 13.5 24.01 13.5 23.98 13.5C23.94 13.49 23.9 13.49 23.86 13.49C23.82 13.49 23.78 13.49 23.74 13.5C23.71 13.5 23.68 13.51 23.66 13.52C23.64 13.53 23.61 13.53 23.59 13.54C23.57 13.55 23.56 13.56 23.55 13.57C23.51 13.59 23.48 13.61 23.44 13.64C23.42 13.66 23.4 13.67 23.38 13.69C23.36 13.7 23.34 13.71 23.33 13.73L21.03 16.14C20.75 16.44 20.76 16.91 21.06 17.2C21.35 17.48 21.84 17.46 22.12 17.18L23.13 16.12V24.89H21.14C20.94 23.3 20.11 21.82 18.8 20.73C16.99 19.22 15.95 17 15.95 14.64C15.96 10.28 19.51 6.71999 23.88 6.70999C24 6.70999 24.1 6.70999 24.2 6.71999C25.07 6.75999 25.93 6.93999 26.74 7.25999C27.12 7.40999 27.57 7.21999 27.72 6.83999C27.79 6.64999 27.79 6.44999 27.71 6.25999C27.63 6.07999 27.48 5.93999 27.3 5.86999C26.32 5.47999 25.31 5.25999 24.27 5.21999C24.14 5.20999 24 5.20999 23.88 5.20999C18.68 5.20999 14.45 9.43999 14.45 14.64C14.44 17.41 15.67 20.05 17.82 21.85Z" fill="#1C2E5C"/>
<path d="M28.3399 8.09C28.4599 8.18 28.6099 8.23 28.7699 8.23C29.0099 8.23 29.2399 8.11 29.3799 7.91C29.4999 7.74 29.5399 7.54 29.5099 7.35C29.4699 7.15 29.3599 6.98 29.1999 6.86C28.8599 6.63 28.3799 6.72 28.1499 7.05C28.0399 7.22 27.9899 7.41 28.0299 7.61C28.0599 7.81 28.1699 7.98 28.3399 8.09Z" fill="#1C2E5C"/>
<path d="M20.4199 27.83C20.0099 27.83 19.6699 28.16 19.6699 28.58C19.6699 28.99 20.0099 29.33 20.4199 29.33H27.3099C27.7299 29.33 28.0599 28.99 28.0599 28.58C28.0599 28.16 27.7299 27.83 27.3099 27.83H20.4199Z" fill="#1C2E5C"/>
</svg>
