<svg xmlns="http://www.w3.org/2000/svg" width="124" height="124" viewBox="0 0 124 124"><g transform="translate(-480 -1506)"><g transform="translate(480 1506)" fill="#fff" stroke="#feab45" stroke-width="1"><circle cx="62" cy="62" r="62" stroke="none"/><circle cx="62" cy="62" r="61.5" fill="none"/></g><circle cx="53" cy="53" r="53" transform="translate(489 1515)" fill="#feab45"/><g transform="translate(506 1531.946)"><g transform="translate(0 0.364)"><g transform="translate(0)"><path d="M70.975,20.656h0l0,0-4.647-.663a1.195,1.195,0,0,1-.548-2.139l3.756-2.817a1.2,1.2,0,0,0,.239-1.673l-4.3-5.735A1.2,1.2,0,0,0,63.8,7.389l-3.755,2.817a1.195,1.195,0,0,1-1.9-1.124L58.8,4.435A1.2,1.2,0,0,0,57.79,3.082h0L50.7,2.069a1.2,1.2,0,0,0-1.352,1.013h0L48.68,7.73a1.195,1.195,0,0,1-2.139.548L43.726,4.522a1.2,1.2,0,0,0-1.673-.239l-3.59,2.694a23.116,23.116,0,0,0-4.886,0A22.7,22.7,0,0,0,13.562,27.331c-.032.338-.044.674-.061,1.01h-.358a1.2,1.2,0,0,0-1.168.956l-.826,3.926L7.842,30.941a1.2,1.2,0,0,0-1.523.139L2.735,34.664A1.2,1.2,0,0,0,2.6,36.186l2.27,3.3-3.927.826A1.2,1.2,0,0,0,0,41.482v4.779a1.2,1.2,0,0,0,.949,1.17l3.927.826-2.27,3.3a1.2,1.2,0,0,0,.139,1.522l3.584,3.584a1.2,1.2,0,0,0,1.523.139l3.3-2.276.826,3.927a1.2,1.2,0,0,0,1.168.956h4.779a1.2,1.2,0,0,0,1.17-.949l.826-3.927,3.3,2.27a1.2,1.2,0,0,0,1.522-.139L26.6,54.8v3.4a4.763,4.763,0,0,0,2.389,4.115V68.96a4.779,4.779,0,0,0,4.779,4.779h4.779a4.779,4.779,0,0,0,4.779-4.779V62.322a4.763,4.763,0,0,0,2.389-4.115V53.479A5.854,5.854,0,0,1,48.477,48.6a22.927,22.927,0,0,0,2.812-2.15L49.7,44.672A20.338,20.338,0,0,1,47.179,46.6a8.229,8.229,0,0,0-3.854,6.883v4.729A2.389,2.389,0,0,1,40.935,60.6H31.378a2.389,2.389,0,0,1-2.389-2.389V53.38a8.038,8.038,0,0,0-3.79-6.743A20.249,20.249,0,0,1,35.9,9.243a1.3,1.3,0,0,0-.047.13,1.2,1.2,0,0,0,.228.885L38.9,14.014a1.17,1.17,0,0,1,.072,1.326,1.188,1.188,0,0,1-1.195.575l-4.647-.664a1.2,1.2,0,0,0-1.352,1.013h0l-1.014,7.1a1.2,1.2,0,0,0,1.013,1.352h0l4.647.664a1.195,1.195,0,0,1,.548,2.139l-3.755,2.816A1.2,1.2,0,0,0,32.976,32l4.3,5.735a1.2,1.2,0,0,0,1.673.239l3.756-2.816a1.195,1.195,0,0,1,1.9,1.124l-.663,4.647a1.2,1.2,0,0,0,1.013,1.352h0l7.1,1.014a1.323,1.323,0,0,0,.168.011A1.2,1.2,0,0,0,53.4,42.285l.663-4.647a1.195,1.195,0,0,1,2.139-.548l2.817,3.755a1.2,1.2,0,0,0,1.673.239l5.735-4.3a1.2,1.2,0,0,0,.239-1.673l-2.816-3.755a1.174,1.174,0,0,1-.072-1.326,1.16,1.16,0,0,1,1.195-.573l4.647.663a1.2,1.2,0,0,0,1.352-1.013h0l1.013-7.1A1.2,1.2,0,0,0,70.975,20.656Zm-39.6,42.331h9.558v2.389H31.378Zm0,4.779h9.558V68.96a2.389,2.389,0,0,1-2.389,2.389H33.767a2.389,2.389,0,0,1-2.389-2.389Zm-9.511-20.6a22.58,22.58,0,0,0,2.042,1.487,5.832,5.832,0,0,1,2.407,3.057l-2.563,2.558-2.481-1.711a2.389,2.389,0,0,0-3.694,1.475l-.626,2.983h-2.84l-.626-2.978a2.389,2.389,0,0,0-3.694-1.475L7.309,54.265,5.132,52.093l1.71-2.48a2.39,2.39,0,0,0-1.474-3.7l-2.978-.627V42.452l2.978-.627a2.389,2.389,0,0,0,1.475-3.688L5.132,35.65l2.177-2.172,2.484,1.711a2.389,2.389,0,0,0,3.693-1.477l.209-.994a22.751,22.751,0,0,0,.947,4.051,7.168,7.168,0,1,0,7.224,10.394ZM20.011,45.48a4.772,4.772,0,1,1-4.48-6.387h.045A22.626,22.626,0,0,0,20.011,45.48Zm48.76-17.9-3.465-.495a3.584,3.584,0,0,0-3.374,5.7l2.1,2.8-3.823,2.867-2.1-2.8A3.584,3.584,0,0,0,51.693,37.3l-.484,3.469-4.73-.676.495-3.465a3.584,3.584,0,0,0-5.7-3.375l-2.8,2.1-2.867-3.823,2.8-2.1a3.584,3.584,0,0,0-1.643-6.416L33.3,22.515l.676-4.73,3.465.495a3.584,3.584,0,0,0,3.375-5.7l-2.106-2.8,3.823-2.867,2.1,2.8a3.584,3.584,0,0,0,6.416-1.643L51.543,4.6l4.73.675-.495,3.465a3.584,3.584,0,0,0,5.7,3.374l2.8-2.1,2.867,3.823-2.8,2.1a3.584,3.584,0,0,0,1.643,6.416l3.465.495Z" transform="translate(0 -2.057)" fill="#fff"/></g></g><g transform="translate(41.814 11.432)"><path d="M289.558,76.171a9.558,9.558,0,1,0,9.558,9.558A9.558,9.558,0,0,0,289.558,76.171Zm0,16.726a7.168,7.168,0,1,1,7.168-7.168A7.168,7.168,0,0,1,289.558,92.9Z" transform="translate(-280 -76.171)" fill="#fff"/></g><g transform="translate(34.962 52.931)"><rect width="2.389" height="3.584" fill="#fff"/></g><g transform="translate(19.42 13.69)"><path d="M141.555,118.8a14.336,14.336,0,0,1-2.42-25.486l-1.277-2.021a16.726,16.726,0,0,0,2.83,29.731,7.627,7.627,0,0,1,4.9,7.12h2.389A10,10,0,0,0,141.555,118.8Z" transform="translate(-130.044 -91.291)" fill="#fff"/></g><g transform="translate(58.856 44.568)"><rect width="8.363" height="2.389" fill="#fff"/></g><g transform="translate(56.896 50.818)"><rect width="2.389" height="9.331" transform="matrix(0.64, -0.768, 0.768, 0.64, 0, 1.836)" fill="#fff"/></g><g transform="translate(51.687 54.126)"><rect width="2.389" height="8.363" fill="#fff"/></g><g transform="translate(1.22 18.32)"><rect width="9.851" height="2.388" transform="translate(0 2.389) rotate(-14.035)" fill="#fff"/></g><g transform="translate(3.204 6.562)"><rect width="2.388" height="10.277" transform="matrix(0.581, -0.814, 0.814, 0.581, 0, 1.943)" fill="#fff"/></g><g transform="translate(13.441 0.067)"><g transform="translate(0 0)"><rect width="2.389" height="9.865" transform="matrix(0.969, -0.248, 0.248, 0.969, 0, 0.592)" fill="#fff"/></g></g></g></g></svg>