<svg xmlns="http://www.w3.org/2000/svg" width="40.79" height="37" viewBox="0 0 40.79 37"><g transform="translate(-9 -32.058)"><path d="M16.244,40.257,14.9,42.648c-.651,0-2.1,0-2.9,0a2.715,2.715,0,0,0-2.716,1.672A5.9,5.9,0,0,0,9,45.75a.565.565,0,0,0,.159.421.572.572,0,0,0,.418.173h0l2.005,0a3.813,3.813,0,0,0-1.437,3.063.6.6,0,0,0,0,.074l.928,7.359a2.193,2.193,0,0,0,1.8,2.1V61.3a1.4,1.4,0,0,0,1.382,1.4h2.421a1.419,1.419,0,0,0,1.4-1.4v-2.32h20.7a6.352,6.352,0,0,0,1.826,10.01.6.6,0,0,0,.572-.026.588.588,0,0,0,.283-.493V65.468l1.968-1.317,2.021,1.417-.012,2.908a.577.577,0,0,0,.834.52,6.364,6.364,0,0,0-.268-11.505V43.624a6.36,6.36,0,0,0,.266-11.5.584.584,0,0,0-.845.517v3.007l-1.968,1.316-2.021-1.417.012-2.908a.577.577,0,0,0-.834-.52,6.3,6.3,0,0,0-3.456,4.7,3.718,3.718,0,0,0-.584-.058H20.712C18.925,36.762,17.339,38.01,16.244,40.257Zm-6,4.942a4.656,4.656,0,0,1,.138-.513A1.619,1.619,0,0,1,12,43.806l2.245,0L13.464,45.2Zm6.687,16.1a.264.264,0,0,1-.246.241h-2.42a.245.245,0,0,1-.225-.241v-2.32h2.891Zm-3.675-3.477a1.019,1.019,0,0,1-1.016-1.018.6.6,0,0,0,0-.074L11.3,49.38a2.4,2.4,0,0,1,2.108-2.535.593.593,0,0,0,.1,0H40.805v3.308a2.23,2.23,0,0,0,0,4.256v3.088a3.958,3.958,0,0,0-.594.335ZM33.246,45.684a2.725,2.725,0,0,1,5.37,0Zm7.559,5.754v1.678a1.071,1.071,0,0,1,0-1.678Zm-.514-17.764,0,2.171a.579.579,0,0,0,.248.476l2.6,1.817a.578.578,0,0,0,.653.008l2.555-1.707a.57.57,0,0,0,.249-.481V33.677a5.072,5.072,0,0,1,2.056,4.14,5.243,5.243,0,0,1-3.4,4.877.594.594,0,0,0-.392.542V57.879a.6.6,0,0,0,.4.542A5.238,5.238,0,0,1,48.643,63.3,5.169,5.169,0,0,1,46.6,67.442l.01-2.172a.577.577,0,0,0-.246-.476l-2.6-1.817a.577.577,0,0,0-.651-.008l-2.554,1.707a.57.57,0,0,0-.249.481v2.279a5.072,5.072,0,0,1-2.056-4.14,5.229,5.229,0,0,1,2.4-4.388.545.545,0,0,0,.064-.043,4.944,4.944,0,0,1,.887-.446.559.559,0,0,0,.354-.542V43.236a.56.56,0,0,0-.355-.542,5.208,5.208,0,0,1-1.315-9.021ZM37.07,37.981a6.5,6.5,0,0,0,3.735,5.642v2.061H39.785a3.882,3.882,0,0,0-7.707,0H14.5l2.759-4.876c.006-.01.011-.026.017-.036.516-1.064,1.648-2.853,3.435-2.853H36.58a2.322,2.322,0,0,1,.491.063Z" transform="translate(0 0)" fill="#17a6af"/><path d="M64.641,249.8a2.23,2.23,0,1,0,2.23,2.23A2.23,2.23,0,0,0,64.641,249.8Zm0,3.3a1.074,1.074,0,1,1,1.074-1.074,1.074,1.074,0,0,1-1.074,1.074Z" transform="translate(-48.999 -199.759)" fill="#17a6af"/><path d="M146.961,245.215h15.3a.6.6,0,0,0,.547-.79l-.528-1.537A2.942,2.942,0,0,0,159.629,241H149.555a2.9,2.9,0,0,0-2.639,1.9l-.5,1.536a.6.6,0,0,0,.082.531A.59.59,0,0,0,146.961,245.215Zm1.054-1.942a1.776,1.776,0,0,1,1.539-1.115h10.074a1.812,1.812,0,0,1,1.56,1.115l.268.785h-13.7Z" transform="translate(-126.034 -191.683)" fill="#17a6af"/><path d="M147.058,302H128.185a.578.578,0,1,0,0,1.157h18.873a.578.578,0,0,0,0-1.157Z" transform="translate(-108.809 -247.642)" fill="#17a6af"/></g></svg>