<svg width="120" height="64" viewBox="0 0 2500 770" fill="none" xmlns="http://www.w3.org/2000/svg"><g clip-path="url(#clip0)"><path d="M362.524 279.71c-.428 12.84 1.284 25.68 4.708 38.092 3.852 10.701 8.56 20.973 13.696 30.817 1.712 2.996 2.996 6.42 2.996 9.844-.428 5.136-3.424 10.272-8.132 12.841l-26.965 17.976c-3.424 2.14-7.276 3.852-11.128 3.852-4.708-.428-9.416-2.568-12.84-5.992-5.564-5.992-11.128-12.84-15.409-20.117-4.28-7.276-8.56-15.408-13.268-25.252-33.385 39.377-75.329 59.065-125.834 59.065-35.953 0-64.63-10.272-85.602-30.816-20.973-20.545-31.673-47.937-31.673-82.178 0-36.381 12.84-65.914 38.949-88.17 26.108-22.256 60.777-33.385 104.862-33.385 14.98 0 30.389 1.284 45.369 3.424 15.836 2.14 32.101 5.564 49.221 9.417v-31.245c0-32.529-6.848-55.213-20.116-68.482-13.269-13.268-36.809-19.688-69.766-19.688-15.408 0-31.244 1.712-46.225 5.564-15.836 3.852-31.244 8.56-46.225 14.552-4.708 2.14-9.844 3.853-14.98 5.565-2.14.856-4.708 1.284-6.848 1.284-5.992 0-8.988-4.28-8.988-13.269V52.437c-.428-5.136.856-10.272 2.996-14.98 3.424-3.852 7.276-6.849 11.984-8.989 17.12-8.56 35.097-14.98 53.929-19.26 21.829-5.564 44.513-8.132 66.769-8.132 50.934 0 88.17 11.556 112.139 34.669 23.968 23.112 35.525 58.209 35.525 105.29V279.71h.856zm-173.772 65.057c14.98 0 29.961-2.568 44.085-7.704 15.836-5.564 29.532-14.98 40.661-27.393 6.848-7.704 11.984-17.12 14.552-27.392 2.996-11.985 4.28-24.825 4.28-37.237v-17.976c-12.84-2.997-26.108-5.565-39.377-7.277-13.268-1.712-26.964-2.568-40.233-2.568-28.676 0-49.649 5.564-63.773 17.121-14.124 11.556-20.972 27.82-20.972 49.221 0 20.116 5.136 35.096 15.836 45.369 10.7 10.272 25.253 15.836 44.941 15.836zm343.691 46.225c-5.564.428-11.556-.856-16.264-4.28-4.28-4.708-7.704-10.272-8.988-16.692L406.608 39.169c-2.14-5.564-3.424-11.129-3.852-17.12-.428-5.137 2.996-9.845 8.133-10.7h44.512c8.133 0 13.697 1.283 16.693 4.28 2.996 2.995 5.992 8.56 8.56 16.692l71.477 283.341 66.77-283.341c2.14-8.56 4.708-14.125 8.132-16.693 5.136-2.996 11.128-4.708 17.12-4.28h34.241c8.132 0 13.696 1.284 17.121 4.28 4.28 4.708 7.276 10.272 8.132 16.693l67.625 286.765L845.318 32.32c1.284-6.42 4.28-11.984 8.56-16.692 5.136-2.996 10.7-4.708 16.692-4.28h39.805c5.136-.856 9.844 2.996 10.7 8.132v2.568c0 2.14-.428 4.708-.856 6.848-.856 3.852-1.712 7.277-2.996 10.7l-103.15 330.852c-2.568 8.56-5.564 14.124-8.988 16.692-4.708 2.996-10.7 4.708-16.265 4.28h-36.808c-8.133 0-13.697-1.284-17.121-4.28-4.28-4.708-7.276-10.7-8.132-17.12L660.418 93.954l-65.914 275.638c-.856 6.42-3.852 12.412-8.132 17.12-5.136 3.424-11.128 4.708-17.12 4.28h-36.809zm549.987 11.556c-22.25 0-44.51-2.568-65.91-7.704-21.399-5.136-38.092-10.7-49.22-17.12-5.564-2.568-10.272-6.848-13.268-11.985-1.712-3.852-2.568-7.704-2.568-11.984v-21.828c0-8.988 3.424-13.269 9.844-13.269 2.568 0 5.136.428 7.704 1.284 2.568.856 6.42 2.569 10.7 4.281 14.981 6.848 30.818 11.556 47.078 14.98 16.7 3.424 33.82 5.136 50.94 5.136 26.96 0 47.93-4.708 62.49-14.124 14.12-8.56 22.68-23.969 22.25-40.661.43-11.128-3.85-21.829-11.55-29.961-7.71-8.132-22.26-15.408-43.23-22.256l-62.06-19.261c-31.25-9.844-54.361-24.396-68.486-43.657-13.696-17.976-21.4-39.376-21.4-62.061-.428-16.692 3.424-32.957 11.556-47.509 7.704-13.696 17.977-25.68 30.817-35.097 13.273-10.272 28.253-17.548 44.513-22.256 17.55-5.136 35.52-7.704 53.93-7.276 9.42 0 19.26.428 28.68 1.712 9.84 1.284 18.83 2.996 27.82 4.708 8.98 1.712 16.69 4.28 24.39 6.848 6.42 2.14 12.41 4.708 17.98 7.704 5.13 2.568 9.42 5.992 12.84 10.7 3 4.28 4.28 8.989 3.85 14.125v20.116c0 8.988-3.42 13.697-9.84 13.697-5.57-.856-11.13-2.569-16.27-5.137-25.68-11.556-53.93-17.12-82.18-16.692-24.39 0-43.65 3.852-56.92 11.984-13.27 8.133-20.12 20.545-20.12 38.093-.42 11.556 4.28 22.685 12.84 30.389 8.56 8.132 24.4 16.264 47.08 23.54l60.78 19.261c30.82 9.844 53.08 23.54 66.34 41.088 13.27 17.121 20.12 38.521 19.69 59.922.43 17.12-3.42 34.24-11.13 49.649-7.7 14.552-18.4 27.392-31.24 37.665-14.13 11.128-30.39 19.26-47.51 23.968-19.69 5.992-40.23 8.988-61.21 8.988z" fill="#252F3E"/><path d="M1163.33 610.56c-140.82 104.007-345.405 159.22-521.317 159.22-246.533 0-468.669-91.166-636.449-242.681-13.268-11.985-1.284-28.249 14.552-18.833C201.593 613.557 425.441 677.33 656.995 677.33c166.923-.856 332.135-34.669 485.786-99.298 23.54-10.7 43.66 15.408 20.55 32.528z" fill="#F90"/><path d="M1221.97 543.791c-17.98-23.113-118.99-11.128-164.79-5.564-13.69 1.712-15.83-10.272-3.42-19.261 80.46-56.497 212.72-40.232 228.13-21.4 15.41 18.832-4.28 151.515-79.61 214.86-11.56 9.845-22.69 4.708-17.55-8.132 17.12-42.373 55.21-137.819 37.24-160.503z" fill="#F90"/><path d="M1971.41 481.302c4.28 8.561 10.7 15.837 18.4 21.401 8.14 5.564 17.12 9.844 26.97 11.984 10.27 2.568 20.97 3.852 31.67 3.852 8.13 0 15.84-.856 23.97-1.712 8.13-1.284 16.26-3.424 23.97-7.276 7.27-3.424 13.69-8.56 18.4-14.552 5.14-6.849 7.71-14.981 7.28-23.541.43-9.416-3.43-18.404-9.85-24.824-7.27-6.848-16.26-11.985-25.68-15.837-11.55-4.708-23.54-8.132-35.95-11.128-13.27-2.996-26.96-6.848-40.66-10.7-14.12-3.424-27.82-7.704-41.52-12.84-12.84-4.709-25.25-11.557-35.95-20.117-10.7-8.132-19.26-18.404-25.68-30.388-6.85-13.697-10.27-28.677-9.84-44.085-.43-17.549 3.85-35.097 12.84-50.505 8.13-14.125 19.26-26.537 32.52-35.953 13.7-9.844 29.11-16.693 45.37-21.401 16.7-4.708 33.82-6.848 50.94-6.848 19.26 0 38.09 2.14 56.92 6.42 17.55 3.852 33.81 11.129 48.37 21.401 14.12 9.844 25.68 22.684 33.81 37.665 8.56 17.12 12.84 36.38 12.41 55.641h-80.46c-.43-9.844-3-19.261-7.28-27.821-3.85-7.276-9.42-13.268-16.26-17.548-7.28-4.28-14.98-7.276-23.12-8.988a157.55 157.55 0 00-28.25-2.568c-6.84 0-13.69.856-20.11 2.14-6.42 1.284-12.84 3.852-18.41 7.276-5.56 3.424-9.84 8.132-13.26 13.268-3.86 5.992-5.57 12.84-5.14 20.116-.43 6.421 1.28 12.413 4.28 17.977 4.28 5.992 9.84 10.272 16.69 12.84 11.13 4.708 22.69 8.56 34.24 11.556 14.55 3.852 33.81 8.989 57.36 14.981 6.84 1.284 16.69 3.852 29.53 7.704 13.27 3.852 25.68 9.844 37.23 17.548 12.85 8.56 23.97 19.261 32.11 32.101 8.98 13.696 13.69 30.816 13.69 52.217 0 16.692-3.42 32.957-10.27 48.365-6.85 14.98-17.12 28.249-29.96 38.521-14.55 11.556-31.25 20.116-49.22 25.252-22.26 6.42-44.94 9.416-68.06 8.988-20.54 0-40.66-2.568-60.77-7.704-18.84-4.708-36.38-12.84-51.79-24.396-14.98-11.128-27.39-25.253-35.95-41.945-9.42-18.832-13.7-39.377-12.84-60.349h80.46c-.43 12.412 2.14 23.54 6.85 33.812zm390.34-127.974c8.99-.428 17.55-2.568 25.68-5.992 7.71-2.996 14.56-8.133 19.69-14.553 5.57-7.276 8.13-16.264 7.71-25.252 0-15.837-5.14-28.249-15.84-36.381-10.27-8.56-23.11-12.84-36.38-12.84-19.26 0-33.39 6.42-43.23 18.832-10.27 13.696-14.98 30.389-14.12 47.509h-71.48c.43-17.976 3.85-35.525 10.27-52.217 5.99-14.98 14.55-29.105 26.11-40.661 11.56-11.556 24.82-20.544 39.8-26.108 16.7-6.421 34.24-9.417 51.79-9.417 14.98 0 29.96 2.14 44.52 6.421 14.55 4.28 27.82 11.128 39.8 19.688 11.56 8.56 21.4 19.688 28.68 32.101 7.7 13.268 11.55 28.676 11.13 44.085.42 16.692-4.28 33.384-12.84 47.509-8.99 14.124-22.69 23.968-38.95 28.248v1.284c18.83 3.852 35.95 14.124 47.93 29.533 11.99 15.836 17.98 35.097 17.55 54.357.43 17.976-3.42 35.953-11.13 51.789-7.27 14.98-17.54 27.821-30.38 38.093-13.27 10.272-27.83 18.404-44.09 23.112-16.69 5.136-34.24 8.132-51.79 8.132-19.26.428-38.52-2.996-56.92-8.988-16.27-5.564-31.25-14.552-43.66-26.108-12.41-11.985-21.83-26.109-27.82-42.373-6.85-18.405-9.85-37.665-9.42-57.353h71.48c.43 9.416 1.71 19.26 4.71 28.248 2.57 8.56 6.85 16.265 12.41 23.541 5.56 6.42 11.98 11.984 19.69 15.408 8.99 4.28 18.4 5.992 28.25 5.992 15.83.428 31.24-5.136 42.8-15.408 11.55-10.272 17.55-24.825 17.55-42.801 0-14.124-2.57-24.825-8.14-32.101-5.13-7.276-12.41-12.84-20.97-16.264-8.99-3.424-18.4-5.136-27.82-5.564-10.27-.428-19.69-.856-28.68-.856v-52.645c8.56.856 17.55.856 26.11 0zm-755-344.975h29.96v753.295h-29.96V8.353z" fill="#252F3E"/></g><defs><clipPath id="clip0"><path fill="#fff" d="M0 0h2500v770H0z"/></clipPath></defs></svg>