<svg xmlns="http://www.w3.org/2000/svg" width="31.198" height="31.198" viewBox="0 0 31.198 31.198"><g transform="translate(-1021 -5639.667)"><g transform="translate(1021 5639.667)"><path d="M31.7,12.07a.5.5,0,0,0,.5-.5V3.516a.5.5,0,0,0-.5-.5h-.5V1.5a.5.5,0,0,0-.5-.5H2.51a.5.5,0,0,0-.5.5v1.51H1.5a.5.5,0,0,0-.5.5v8.051a.5.5,0,0,0,.5.5h.5V29.179H1.5a.5.5,0,0,0-.5.5V31.7a.5.5,0,0,0,.5.5H31.7a.5.5,0,0,0,.5-.5V29.682a.5.5,0,0,0-.5-.5h-.5V12.07ZM3.013,2.006H30.185V3.013H3.013ZM2.006,4.019H31.192v7.045H2.006ZM30.185,17.1H24.147V14.083h6.038Zm-7.045,0H17.1V14.083h6.038Zm-7.045,0H10.058V14.083H16.1Zm-7.045,0H3.013V14.083H9.051Zm22.141,14.09H2.006V30.185H31.192ZM18.109,29.179H17.1V21.631a.5.5,0,0,0-.5-.5H6.535a.5.5,0,0,0-.5.5v7.548H5.026V20.122H18.109Zm-11.07,0V22.134h4.026v7.045Zm5.032-7.045H16.1v7.045H12.07Zm16.1,7.045H22.134V20.122h6.038Zm1.006,0V19.618a.5.5,0,0,0-.5-.5H21.631a.5.5,0,0,0-.5.5v9.561H19.115V19.618a.5.5,0,0,0-.5-.5H4.522a.5.5,0,0,0-.5.5v9.561H3.013V18.109H30.185v11.07Zm1.006-16.1H3.013V12.07H30.185Z" transform="translate(-1 -1)" fill="#17a6af"/><path d="M16.516,9H14.5a.5.5,0,0,0-.5.5v4.026a.5.5,0,0,0,.5.5h2.013a1.509,1.509,0,0,0,1.124-2.516A1.509,1.509,0,0,0,16.516,9Zm0,4.026h-1.51V12.019h1.51a.5.5,0,0,1,0,1.006Zm0-2.013h-1.51V10.006h1.51a.5.5,0,0,1,0,1.006Z" transform="translate(-7.458 -4.974)" fill="#17a6af"/><path d="M26.013,9A2.015,2.015,0,0,0,24,11.013v3.019h1.006v-1.51h2.013v1.51h1.006V11.013A2.015,2.015,0,0,0,26.013,9Zm-1.006,2.516v-.5a1.006,1.006,0,0,1,2.013,0v.5Z" transform="translate(-12.426 -4.974)" fill="#17a6af"/><path d="M37.019,12.019,34.906,9.2A.5.5,0,0,0,34,9.5v4.529h1.006V11.013l2.113,2.818a.5.5,0,0,0,.4.2.513.513,0,0,0,.159-.026.5.5,0,0,0,.344-.478V9H37.019Z" transform="translate(-17.394 -4.974)" fill="#17a6af"/><path d="M47.019,9H46.013a1.925,1.925,0,0,1-1.006,1.7V9H44v5.032h1.006v-1.7a1.925,1.925,0,0,1,1.006,1.7h1.006a2.923,2.923,0,0,0-1.427-2.516A2.923,2.923,0,0,0,47.019,9Z" transform="translate(-22.363 -4.974)" fill="#17a6af"/><path d="M45.5,45.026h3.019a.5.5,0,0,0,.5-.5V41.5a.5.5,0,0,0-.5-.5H45.5a.5.5,0,0,0-.5.5v3.019A.5.5,0,0,0,45.5,45.026Zm.5-3.019h2.013v2.013H46.006Z" transform="translate(-22.859 -20.872)" fill="#17a6af"/></g></g></svg>