<svg xmlns="http://www.w3.org/2000/svg" width="124" height="124" viewBox="0 0 124 124"><g transform="translate(-480 -1506)"><g transform="translate(480 1506)" fill="#fff" stroke="#feab45" stroke-width="1"><circle cx="62" cy="62" r="62" stroke="none"/><circle cx="62" cy="62" r="61.5" fill="none"/></g><circle cx="53" cy="53" r="53" transform="translate(489 1515)" fill="#feab45"/><g transform="translate(491 1503.044)"><path d="M85.489,416H63.111a1.177,1.177,0,0,0-.833.345l-2.011,2.01H42.4l-2.011-2.011a1.178,1.178,0,0,0-.833-.345H17.178A1.178,1.178,0,0,0,16,417.178v2.65a5.6,5.6,0,0,0,5.594,5.594h6.183v-2.356H21.594a3.243,3.243,0,0,1-3.239-3.239v-1.472H39.068l2.011,2.011a1.178,1.178,0,0,0,.833.345H60.755a1.178,1.178,0,0,0,.833-.345l2.011-2.011H84.311v1.472a3.243,3.243,0,0,1-3.239,3.239H30.133v2.356H81.072a5.6,5.6,0,0,0,5.594-5.594v-2.65A1.178,1.178,0,0,0,85.489,416Z" transform="translate(0 -327.467)" fill="#fff"/><path d="M448,64h2.356v2.356H448Z" transform="translate(-368.4 -27.289)" fill="#fff"/><path d="M112,64h2.356v2.356H112Z" transform="translate(-81.867 -27.289)" fill="#fff"/><path d="M48,64h2.356v2.356H48Z" transform="translate(-27.289 -27.289)" fill="#fff"/><path d="M80,64h2.356v2.356H80Z" transform="translate(-54.578 -27.289)" fill="#fff"/><path d="M85.489,32H17.178A1.178,1.178,0,0,0,16,33.178v53h2.356v-42.4H84.311v5.889h2.356V33.178A1.178,1.178,0,0,0,85.489,32ZM18.356,41.422V34.356H84.311v7.067Z" fill="#fff"/><path d="M52.711,132.122v10.7l-4.366,4.366a1.178,1.178,0,0,0,0,1.666l4.366,4.366v10.7a4.127,4.127,0,0,0,4.122,4.122H58.6v-2.356H56.833a1.769,1.769,0,0,1-1.767-1.767V152.733a1.178,1.178,0,0,0-.345-.833l-3.878-3.878,3.878-3.878a1.178,1.178,0,0,0,.345-.833V132.122a1.769,1.769,0,0,1,1.767-1.767H58.6V128H56.833A4.127,4.127,0,0,0,52.711,132.122Z" transform="translate(-27.289 -81.867)" fill="#fff"/><path d="M393.767,128H392v2.356h1.767a1.769,1.769,0,0,1,1.767,1.767v11.189a1.178,1.178,0,0,0,.345.833l3.878,3.878-3.878,3.878a1.178,1.178,0,0,0-.345.833v11.189a1.769,1.769,0,0,1-1.767,1.767H392v2.356h1.767a4.127,4.127,0,0,0,4.122-4.122v-10.7l4.366-4.366a1.178,1.178,0,0,0,0-1.666l-4.366-4.366v-10.7A4.127,4.127,0,0,0,393.767,128Z" transform="translate(-320.644 -81.867)" fill="#fff"/><path d="M480,168h2.356v34.156H480Z" transform="translate(-395.689 -115.978)" fill="#fff"/><path d="M115.878,154.343l-3.533,3.533a1.178,1.178,0,0,0,0,1.666l3.533,3.533,1.666-1.666-2.7-2.7,2.7-2.7Z" transform="translate(-81.866 -104.331)" fill="#fff"/><path d="M196.009,163.076l3.533-3.533a1.178,1.178,0,0,0,0-1.666l-3.533-3.533-1.666,1.666,2.7,2.7-2.7,2.7Z" transform="translate(-152.087 -104.332)" fill="#fff"/><path d="M0,0H2.356V10.063H0Z" transform="translate(36.087 50.076) rotate(-20.556)" fill="#fff"/><path d="M112,248h9.422v2.356H112Z" transform="translate(-81.867 -184.2)" fill="#fff"/><path d="M192,248h3.533v2.356H192Z" transform="translate(-150.089 -184.2)" fill="#fff"/><path d="M232,248h2.356v2.356H232Z" transform="translate(-184.2 -184.2)" fill="#fff"/><path d="M264,248h11.778v2.356H264Z" transform="translate(-211.489 -184.2)" fill="#fff"/><path d="M360,248h5.889v2.356H360Z" transform="translate(-293.356 -184.2)" fill="#fff"/><path d="M336,288h9.422v2.356H336Z" transform="translate(-272.889 -218.311)" fill="#fff"/><path d="M296,288h3.533v2.356H296Z" transform="translate(-238.778 -218.311)" fill="#fff"/><path d="M264,288h2.356v2.356H264Z" transform="translate(-211.489 -218.311)" fill="#fff"/><path d="M168,288h11.778v2.356H168Z" transform="translate(-129.622 -218.311)" fill="#fff"/><path d="M112,288h5.889v2.356H112Z" transform="translate(-81.867 -218.311)" fill="#fff"/><path d="M280,328h5.889v2.356H280Z" transform="translate(-225.133 -252.422)" fill="#fff"/><path d="M224,328h5.889v2.356H224Z" transform="translate(-177.378 -252.422)" fill="#fff"/><path d="M152,328h8.244v2.356H152Z" transform="translate(-115.978 -252.422)" fill="#fff"/><path d="M112,328h3.533v2.356H112Z" transform="translate(-81.867 -252.422)" fill="#fff"/><path d="M336,368h5.889v2.356H336Z" transform="translate(-272.889 -286.533)" fill="#fff"/></g></g></svg>