<svg width="20" height="20" viewBox="0 0 20 20" fill="none" xmlns="http://www.w3.org/2000/svg">
<g clip-path="url(#clip0)">
<rect width="20" height="20" rx="5" fill="#1FBEC8"/>
<path d="M10 3.74994C13.4425 3.74994 16.25 6.55742 16.25 9.99994C16.25 13.4425 13.4425 16.2499 10 16.2499C9.04337 16.2499 8.11492 15.9996 7.25912 15.5778L3.78255 16.2304L4.42382 12.7392C4.00194 11.8842 3.75 10.955 3.75 9.99994C3.75 6.55742 6.55747 3.74994 10 3.74994ZM10 5.31244C7.40191 5.31244 5.3125 7.40186 5.3125 9.99994C5.3125 10.8008 5.51913 11.5871 5.91146 12.2835L6.04818 12.5292L5.72917 14.2756L7.46419 13.9501L7.71159 14.0899C8.40969 14.4823 9.19791 14.6872 10 14.6872C12.5981 14.6872 14.6875 12.5978 14.6875 9.99975C14.6875 7.40167 12.5981 5.31244 10 5.31244ZM8.12988 6.9775C8.26068 6.97891 8.35396 6.98383 8.42936 6.99643C8.50477 7.00903 8.5661 7.02952 8.61328 7.0714C8.6562 7.1092 8.6837 7.16144 8.70606 7.22096C8.77356 7.39955 8.96443 8.03889 9.12109 8.4433C9.16909 8.5674 9.15326 8.68961 9.10317 8.7949C9.05308 8.90041 8.9758 8.99366 8.89646 9.07807C8.81713 9.16279 8.73471 9.23998 8.67836 9.30769C8.62186 9.37541 8.60119 9.42954 8.60352 9.45725C8.60686 9.49285 8.63969 9.58643 8.70118 9.69005C8.76268 9.79368 8.84792 9.91179 8.93718 10.0302C9.11572 10.2671 9.31995 10.5024 9.41082 10.5949C9.50327 10.6856 9.73223 10.8885 9.96908 11.0669C10.0875 11.1561 10.2055 11.2364 10.3093 11.2981C10.413 11.3595 10.5096 11.3993 10.5453 11.4024C10.5732 11.4048 10.6289 11.3771 10.6966 11.3211C10.7644 11.2647 10.8367 11.1873 10.9212 11.1079C11.0058 11.0285 11.0975 10.9495 11.2028 10.8994C11.3082 10.8493 11.4352 10.8285 11.5593 10.8773C11.9637 11.0338 12.6045 11.2248 12.7832 11.2923C12.8783 11.3283 12.9443 11.3928 12.9785 11.4779C13.0126 11.5629 13.0184 11.659 13.0241 11.7952C13.0299 11.9392 13.0151 12.1583 12.8646 12.3779C12.7141 12.5974 12.4345 12.8153 11.9352 12.9704C11.4144 13.1323 10.7554 12.942 10.1302 12.6253C9.50502 12.3085 8.91245 11.8585 8.52704 11.473C8.14162 11.0876 7.69636 10.4934 7.37958 9.86816C7.06275 9.24296 6.87276 8.58397 7.03453 8.06315C7.17992 7.59509 7.37371 7.32561 7.57652 7.16964C7.77932 7.01373 7.98751 6.97756 8.1299 6.97913L8.12988 6.9775Z" fill="white"/>
</g>
<defs>
<clipPath id="clip0">
<rect width="20" height="20" rx="5" fill="white"/>
</clipPath>
</defs>
</svg>
