<svg width="20" height="20" viewBox="0 0 20 20" fill="none" xmlns="http://www.w3.org/2000/svg">
<rect width="20" height="20" rx="5" fill="#1FBEC8"/>
<path d="M4.90554 15H7.17472V6.81818H4.90554V15ZM6.04545 5.76349C6.72195 5.76349 7.27592 5.2468 7.27592 4.61293C7.27592 3.98438 6.72195 3.46768 6.04545 3.46768C5.37429 3.46768 4.82031 3.98438 4.82031 4.61293C4.82031 5.2468 5.37429 5.76349 6.04545 5.76349ZM11.2616 10.2699C11.267 9.2152 11.8955 8.5973 12.8117 8.5973C13.7226 8.5973 14.2712 9.19389 14.2659 10.1953V15H16.5351V9.79048C16.5351 7.88352 15.4165 6.71165 13.7119 6.71165C12.4974 6.71165 11.6185 7.30824 11.251 8.26172H11.1551V6.81818H8.99245V15H11.2616V10.2699Z" fill="white"/>
</svg>
