<svg width="252" height="252" viewBox="0 0 252 252" fill="none" xmlns="http://www.w3.org/2000/svg">
<path d="M213.945 13.3739L13.3744 213.945C6.54019 220.779 6.54019 231.859 13.3744 238.693C20.2085 245.528 31.2889 245.528 38.1231 238.693L238.694 38.1226C245.528 31.2885 245.528 20.2081 238.694 13.3739C231.86 6.53972 220.779 6.53972 213.945 13.3739Z" fill="#0FA6AF"/>
<path d="M238.626 213.754L38.0554 13.1835C31.2212 6.34928 20.1408 6.34928 13.3067 13.1835C6.47249 20.0176 6.47249 31.098 13.3067 37.9322L213.877 238.503C220.712 245.337 231.792 245.337 238.626 238.503C245.46 231.669 245.46 220.588 238.626 213.754Z" fill="#0FA6AF"/>
</svg>
