<svg width="28" height="28" viewBox="0 0 28 28" fill="none" xmlns="http://www.w3.org/2000/svg">
<g clip-path="url(#clip0)" filter="url(#filter0_d)">
<rect width="20" height="20" transform="translate(4)" fill="white"/>
<path d="M7.33333 0C5.48667 0 4 1.48664 4 3.33329V16.6666C4 18.5133 5.48667 20 7.33333 20H20.6667C22.5133 20 24 18.5133 24 16.6666V3.33329C24 1.48664 22.5133 0 20.6667 0H7.33333ZM14 3.74996C17.4425 3.74996 20.25 6.55744 20.25 9.99996C20.25 13.4425 17.4425 16.25 14 16.25C13.0434 16.25 12.1149 15.9996 11.2591 15.5778L7.78255 16.2304L8.42382 12.7392C8.00194 11.8842 7.75 10.955 7.75 9.99996C7.75 6.55744 10.5575 3.74996 14 3.74996ZM14 5.31246C11.4019 5.31246 9.3125 7.40188 9.3125 9.99996C9.3125 10.8008 9.51913 11.5871 9.91146 12.2835L10.0482 12.5292L9.72917 14.2756L11.4642 13.9501L11.7116 14.0899C12.4097 14.4824 13.1979 14.6873 14 14.6873C16.5981 14.6873 18.6875 12.5978 18.6875 9.99977C18.6875 7.40169 16.5981 5.31227 14 5.31227V5.31246ZM12.1299 6.97752C12.2607 6.97894 12.354 6.98386 12.4294 6.99645C12.5048 7.00905 12.5661 7.02954 12.6133 7.07143C12.6562 7.10922 12.6837 7.16146 12.7061 7.22099C12.7736 7.39957 12.9644 8.03892 13.1211 8.44332C13.1691 8.56742 13.1533 8.68963 13.1032 8.79493C13.0531 8.90044 12.9758 8.99368 12.8965 9.07809C12.8171 9.16281 12.7347 9.24 12.6784 9.30772C12.6219 9.37543 12.6012 9.42956 12.6035 9.45728C12.6069 9.49287 12.6397 9.58645 12.7012 9.69008C12.7627 9.7937 12.8479 9.91181 12.9372 10.0302C13.1157 10.2671 13.32 10.5025 13.4108 10.5949C13.5033 10.6856 13.7322 10.8885 13.9691 11.067C14.0875 11.1561 14.2055 11.2364 14.3093 11.2981C14.413 11.3596 14.5096 11.3993 14.5453 11.4024C14.5732 11.4048 14.6289 11.3772 14.6966 11.3211C14.7644 11.2647 14.8367 11.1873 14.9212 11.1079C15.0058 11.0285 15.0975 10.9495 15.2028 10.8994C15.3082 10.8494 15.4353 10.8285 15.5593 10.8773C15.9637 11.0339 16.6045 11.2248 16.7832 11.2924C16.8783 11.3283 16.9443 11.3928 16.9785 11.4779C17.0126 11.5629 17.0184 11.659 17.0241 11.7953C17.0299 11.9392 17.0151 12.1583 16.8646 12.3779C16.7141 12.5975 16.4345 12.8153 15.9352 12.9704C15.4144 13.1323 14.7554 12.9421 14.1302 12.6253C13.505 12.3086 12.9125 11.8585 12.527 11.4731C12.1416 11.0877 11.6964 10.4934 11.3796 9.86818C11.0628 9.24299 10.8728 8.584 11.0345 8.06318C11.1799 7.59511 11.3737 7.32563 11.5765 7.16966C11.7793 7.01375 11.9875 6.97758 12.1299 6.97915L12.1299 6.97752Z" fill="#0FA6AF"/>
</g>
<defs>
<filter id="filter0_d" x="0" y="0" width="28" height="28" filterUnits="userSpaceOnUse" color-interpolation-filters="sRGB">
<feFlood flood-opacity="0" result="BackgroundImageFix"/>
<feColorMatrix in="SourceAlpha" type="matrix" values="0 0 0 0 0 0 0 0 0 0 0 0 0 0 0 0 0 0 127 0"/>
<feOffset dy="4"/>
<feGaussianBlur stdDeviation="2"/>
<feColorMatrix type="matrix" values="0 0 0 0 0 0 0 0 0 0 0 0 0 0 0 0 0 0 0.25 0"/>
<feBlend mode="normal" in2="BackgroundImageFix" result="effect1_dropShadow"/>
<feBlend mode="normal" in="SourceGraphic" in2="effect1_dropShadow" result="shape"/>
</filter>
<clipPath id="clip0">
<rect width="20" height="20" fill="white" transform="translate(4)"/>
</clipPath>
</defs>
</svg>
