<svg width="20" height="20" viewBox="0 0 20 20" fill="none" xmlns="http://www.w3.org/2000/svg">
<path d="M3.33333 0C1.48666 0 0 1.48664 0 3.33329V16.6666C0 18.5133 1.48666 20 3.33333 20H16.6667C18.5133 20 20 18.5133 20 16.6666V3.33329C20 1.48664 18.5133 0 16.6667 0H3.33333ZM5.27669 3.99574C6.12097 3.99542 6.80647 4.62892 6.80501 5.40848C6.80487 6.18697 6.11983 6.81837 5.27669 6.81806C4.43356 6.81837 3.75014 6.18697 3.75 5.40848C3.74833 4.62892 4.43242 3.99542 5.27669 3.99574ZM13.2096 7.71484C15.0179 7.71484 16.25 8.83753 16.25 10.9505V16.0042H13.5075V10.9505C13.5075 10.386 13.1764 9.81772 12.277 9.81772C10.7697 9.81772 10.7633 11.3346 10.7633 11.888V16.0042H8.02083V7.77348H10.7633V9.14547C10.7633 9.14547 11.4351 7.71484 13.2096 7.71484ZM3.90625 7.77338H6.64876V16.0042H3.90625V7.77338Z" fill="#0FA6AF"/>
</svg>
