<svg width="961" height="552" viewBox="0 0 961 552" fill="none" xmlns="http://www.w3.org/2000/svg">
<path d="M916.048 177.071C917.764 178.959 919.08 181.172 919.916 183.578C920.753 185.984 921.093 188.534 920.917 191.074C920.531 196.16 918.98 201.09 916.383 205.486C911.623 214.099 902.709 221.106 894.18 226.052C889.28 216.294 892.304 203.991 894.231 197.847C897.276 188.138 908.701 172.432 916.048 177.077" fill="#EBEBEB"/>
<path d="M896.906 244.592C897.451 241.798 898.728 239.196 900.608 237.051C902.488 234.906 904.905 233.295 907.612 232.379C910.333 231.513 913.199 231.195 916.045 231.442C918.891 231.69 921.658 232.499 924.187 233.822C926.54 235.002 928.875 236.782 929.444 239.344C929.637 240.559 929.5 241.804 929.048 242.949C928.596 244.094 927.844 245.098 926.872 245.857C924.901 247.35 922.57 248.298 920.113 248.606C911.787 250.033 903.467 249.892 896.906 244.592" fill="#EBEBEB"/>
<path d="M875.68 268.275C875.974 267.665 876.321 267.082 876.717 266.533C877.497 265.327 878.502 263.768 879.712 261.895C882.286 258.05 885.848 252.489 891.525 247.999C896.29 244.08 902.016 241.494 908.116 240.505C909.959 240.24 911.827 240.194 913.681 240.366C914.184 240.41 914.684 240.48 915.179 240.578C915.519 240.64 915.696 240.684 915.692 240.709C913.188 240.556 910.676 240.657 908.193 241.01C902.233 242.125 896.652 244.723 891.97 248.562C886.406 252.958 882.811 258.407 880.132 262.183C878.802 264.096 877.722 265.646 876.948 266.696C876.577 267.261 876.152 267.79 875.68 268.275V268.275Z" fill="#E0E0E0"/>
<path d="M908.41 189.793C908.361 190.084 908.28 190.368 908.17 190.642L907.346 193.027C906.621 195.093 905.526 198.069 904.156 201.737C901.403 209.069 897.458 219.148 892.852 230.174C888.246 241.201 883.84 251.097 880.556 258.209C878.914 261.767 877.561 264.633 876.601 266.602L875.481 268.863C875.365 269.134 875.219 269.392 875.047 269.632C875.118 269.346 875.219 269.068 875.349 268.804C875.607 268.205 875.937 267.437 876.347 266.487C877.267 264.396 878.538 261.524 880.092 258.003C883.258 250.84 887.581 240.925 892.19 229.9C896.799 218.875 900.81 208.835 903.681 201.551C905.094 197.972 906.249 195.046 907.085 192.925L908.032 190.588C908.129 190.31 908.256 190.043 908.41 189.793V189.793Z" fill="#E0E0E0"/>
<path d="M881.421 244.683C882.758 238.833 882.676 232.749 881.181 226.937C879.687 221.125 876.823 215.751 872.826 211.26C870.777 208.998 867.772 206.838 864.894 207.87C862.015 208.902 861.079 212.495 861.022 215.545C861.014 221.917 862.901 228.148 866.444 233.453C869.988 238.758 875.029 242.9 880.934 245.356" fill="#EBEBEB"/>
<path d="M870.529 220.328C871.016 220.74 871.461 221.198 871.859 221.696C872.37 222.24 872.848 222.815 873.29 223.417C873.799 224.125 874.457 224.881 875.02 225.827C875.69 226.824 876.305 227.855 876.862 228.918C877.524 230.128 878.118 231.373 878.642 232.648C879.832 235.58 880.685 238.636 881.187 241.758C881.635 244.889 881.72 248.062 881.439 251.212C881.305 252.584 881.093 253.947 880.802 255.295C880.571 256.474 880.27 257.637 879.9 258.78C879.616 259.726 879.281 260.657 878.898 261.568C878.638 262.267 878.333 262.949 877.984 263.609C877.733 264.195 877.426 264.755 877.065 265.282C876.925 265.215 878.212 262.814 879.416 258.639C879.747 257.503 880.016 256.35 880.221 255.185C880.48 253.854 880.667 252.509 880.781 251.158C881.019 248.06 880.918 244.945 880.479 241.868C879.984 238.8 879.163 235.793 878.029 232.898C877.529 231.636 876.964 230.4 876.336 229.197C875.789 228.041 875.149 227.036 874.592 226.102C872.28 222.412 870.41 220.43 870.529 220.328Z" fill="#E0E0E0"/>
<path d="M46.0842 90.1818C46.0842 90.1818 33.2042 94.3178 45.695 121.816C58.1858 149.314 67.094 163.056 67.094 163.056C67.094 163.056 69.2402 169.404 63.9244 170.126C58.6086 170.848 47.0894 168.462 44.4378 174.774C41.6882 181.326 46.2578 187.832 55.8408 193.803C65.4238 199.775 85.9632 213.63 87.8154 214.885C89.6354 216.121 91.3728 219.11 87.8308 220.182C84.2888 221.254 58.057 222.743 59.5116 235.098C60.9662 247.453 90.4334 259.716 93.6282 261.118C96.823 262.521 97.537 263.93 97.187 265.698C96.837 267.465 87.9736 267.136 80.527 267.865C73.0804 268.594 64.581 270.737 66.0216 277.793C67.4622 284.85 84.5282 300.337 127.448 306.557L147.525 308.145L159.266 291.742C182.244 255.114 181.415 232.143 176.939 226.487C172.464 220.832 165.319 225.904 159.953 231.087C154.587 236.27 149.102 243.215 147.523 242.338C145.943 241.462 145.325 240.009 146.316 236.675C147.307 233.34 156.956 203.028 148.435 193.936C139.915 184.844 121.81 203.808 118.701 205.807C115.591 207.806 114.427 204.553 114.655 202.371C114.886 200.15 117.546 175.598 119.17 164.454C120.794 153.311 118.75 145.635 111.963 143.488C105.412 141.422 99.7924 151.713 95.8024 155.286C91.8124 158.859 88.3362 153.122 88.3362 153.122C88.3362 153.122 83.5664 137.475 70.573 110.207C57.5796 82.9386 45.8294 90.2864 45.8294 90.2864" fill="#EBEBEB"/>
<path d="M148.34 312.904C138.878 292.84 122.66 256.9 108.58 226.115C94.5004 195.33 81.7282 167.489 72.3692 147.38C67.6862 137.344 63.8936 129.222 61.2602 123.578C59.9596 120.79 58.9446 118.607 58.2432 117.103C57.9142 116.378 57.658 115.816 57.4732 115.412C57.3038 115.03 57.231 114.828 57.231 114.828C57.231 114.828 57.3416 115.012 57.532 115.385C57.728 115.783 58.0038 116.335 58.358 117.048L61.48 123.473C64.1862 129.049 68.0418 137.161 72.7696 147.195C82.2322 167.259 95.0702 195.083 109.15 225.857C123.23 256.631 139.39 292.609 148.745 312.719" fill="#E0E0E0"/>
<path d="M60.4204 178.758C60.897 178.858 61.3609 179.01 61.8036 179.212C62.6814 179.538 63.9344 180.049 65.4786 180.693C68.5586 181.986 72.7768 183.879 77.3898 186.054L89.1764 191.662L92.7576 193.335C93.2123 193.508 93.6458 193.732 94.0498 194.003C93.5722 193.906 93.1069 193.757 92.6624 193.558C91.786 193.229 90.5302 192.722 88.9944 192.059C85.9214 190.735 81.734 188.786 77.1224 186.613L65.2994 181.091L61.7084 179.431C61.255 179.256 60.8229 179.03 60.4204 178.758V178.758Z" fill="#E0E0E0"/>
<path d="M95.4818 192.791C95.3222 192.724 98.8613 183.902 103.388 173.087C107.914 162.273 111.711 153.554 111.87 153.62C112.03 153.686 108.491 162.508 103.964 173.327C99.4382 184.146 95.6414 192.86 95.4818 192.791Z" fill="#E0E0E0"/>
<path d="M114.966 241.029C115.213 240.599 115.506 240.198 115.841 239.832C116.52 238.995 117.368 237.942 118.376 236.697C120.513 234.048 123.447 230.379 126.537 226.211C129.627 222.043 132.31 218.184 134.223 215.373C135.124 214.05 135.883 212.935 136.492 212.042C136.745 211.616 137.045 211.22 137.385 210.859C137.205 211.32 136.974 211.76 136.698 212.172C136.219 212.996 135.507 214.175 134.598 215.614C132.778 218.492 130.153 222.407 127.045 226.582C123.937 230.757 120.948 234.398 118.722 236.978C117.602 238.265 116.685 239.295 116.031 239.989C115.715 240.374 115.358 240.722 114.966 241.029V241.029Z" fill="#E0E0E0"/>
<path d="M80.4399 235.287C80.8992 235.262 81.3598 235.291 81.8119 235.375L85.5205 235.842C88.6467 236.26 92.9587 236.89 97.7159 237.619C102.473 238.349 106.777 239.044 109.886 239.571L113.563 240.235C114.019 240.292 114.467 240.402 114.898 240.562C114.439 240.588 113.978 240.558 113.526 240.474L109.819 240.006C106.691 239.588 102.379 238.959 97.6207 238.23C92.8621 237.501 88.5613 236.807 85.4533 236.278L81.7755 235.615C81.3189 235.559 80.8706 235.449 80.4399 235.287V235.287Z" fill="#E0E0E0"/>
<path d="M92.21 280.049C92.7979 280.037 93.3857 280.081 93.9656 280.178L98.7186 280.76C102.728 281.278 108.262 282.038 114.368 282.915C120.473 283.792 125.999 284.62 129.993 285.248L134.718 286.028C135.302 286.096 135.877 286.22 136.437 286.397C135.85 286.408 135.263 286.364 134.683 286.267L129.923 285.685C125.912 285.166 120.379 284.408 114.271 283.531C108.163 282.654 102.643 281.826 98.6486 281.196L93.9236 280.418C93.3423 280.347 92.7687 280.224 92.21 280.049V280.049Z" fill="#E0E0E0"/>
<path d="M135.424 285.948C135.734 285.403 136.092 284.886 136.493 284.404C137.284 283.348 138.313 281.973 139.564 280.314C142.152 276.859 145.71 272.074 149.485 266.68C153.261 261.287 156.569 256.324 158.931 252.713L161.731 248.436C162.049 247.894 162.413 247.381 162.82 246.902C162.575 247.48 162.281 248.035 161.94 248.561C161.336 249.608 160.442 251.109 159.305 252.947C157.036 256.623 153.79 261.638 149.998 267.036C146.205 272.433 142.596 277.191 139.918 280.581C138.572 282.272 137.469 283.63 136.687 284.551C136.307 285.052 135.884 285.52 135.424 285.948V285.948Z" fill="#E0E0E0"/>
<path d="M462.456 255.1C426.589 237.127 413.092 196.126 408.89 158.127C408.19 151.785 406.527 145.231 408.738 139.259C410.948 133.287 417.436 128.49 423.498 130.337C428.525 131.871 431.369 137.029 434.657 141.153C439.049 146.661 444.914 150.82 451.576 153.152C455.916 154.657 461.096 155.213 464.762 152.455C469.793 148.663 469.347 141.049 468.402 134.776C466.628 123.086 464.855 111.397 463.082 99.7084C462.131 93.4354 461.182 87.0299 462.277 80.789C463.371 74.548 466.897 68.3907 472.656 65.8551C478.416 63.3194 486.329 65.6948 488.486 71.6569C489.385 74.1382 489.248 76.8677 489.801 79.448C490.354 82.0282 491.991 84.7368 494.583 85.1048C497.206 85.4784 499.47 83.3358 501.089 81.2267C506.676 73.9514 509.909 65.1511 512.849 56.4372C515.789 47.7233 518.589 38.8338 523.496 31.0664C528.403 23.299 535.768 16.6483 544.723 14.8402C553.677 13.0322 564.104 17.1961 567.667 25.6925C571.24 34.214 567.358 43.94 562.755 51.9151C555.928 63.748 547.419 74.5358 537.492 83.9436C535.708 85.6345 533.775 87.4621 533.352 89.896C532.59 94.2787 537.177 97.8613 541.526 98.6405C546.452 99.523 551.48 98.3032 556.48 98.1708C561.479 98.0383 567.12 99.4254 569.65 103.791C573.164 109.836 568.751 117.337 564.087 122.504C554.745 132.859 543.683 141.536 531.385 148.154C526.993 150.511 522.327 152.696 519.065 156.478C515.803 160.26 514.358 166.229 517.259 170.324C520.16 174.42 526.167 175.005 530.895 173.408C535.623 171.81 539.589 168.561 543.965 166.159C552.157 161.655 563.425 160.64 570.064 167.296C574.422 171.672 575.734 178.448 574.737 184.557C573.74 190.665 570.732 196.236 567.432 201.448C555.902 219.669 540.02 235.287 520.928 245.119C501.836 254.951 483.488 259.51 462.457 255.111" fill="#F5F5F5"/>
<path d="M468.817 229.985C472.132 208.48 476.684 187.182 482.451 166.196C483.949 160.613 485.427 155.1 486.886 149.658C488.356 144.234 489.81 138.853 491.562 133.68C494.942 123.752 498.871 114.018 503.333 104.523C507.533 95.4286 511.839 86.9503 515.933 79.0533C520.027 71.1563 524.014 63.8782 527.916 57.3933C534.023 47.1269 540.939 37.36 548.601 28.1849C551.304 24.9382 553.484 22.4904 554.985 20.8496L556.702 18.9942C556.888 18.7745 557.094 18.5724 557.317 18.3906C557.165 18.6351 556.989 18.8644 556.792 19.0751L555.161 21.0072C553.72 22.6967 551.598 25.1892 548.951 28.479C541.448 37.7412 534.653 47.5504 528.623 57.8241C524.777 64.3187 520.858 71.608 516.793 79.5078C512.727 87.4076 508.468 95.8998 504.31 104.983C499.895 114.454 496.003 124.158 492.65 134.051C490.916 139.199 489.479 144.534 488.01 149.972C486.541 155.41 485.078 160.922 483.582 166.502C477.828 187.446 473.255 208.694 469.884 230.146" fill="#E0E0E0"/>
<path d="M491.886 133.588C491.459 132.763 491.122 131.895 490.881 130.998C490.299 129.311 489.537 126.844 488.641 123.781C486.842 117.659 484.648 109.119 482.264 99.6973C479.88 90.2752 477.57 81.7857 475.684 75.7079C474.749 72.6662 473.968 70.2114 473.405 68.5218C473.058 67.6605 472.808 66.7639 472.657 65.8481C473.141 66.6412 473.535 67.485 473.832 68.3643C474.532 70.0092 475.432 72.4306 476.469 75.45C478.569 81.4846 481.014 89.9685 483.399 99.4059C485.728 108.711 487.833 117.129 489.442 123.561C490.185 126.462 490.817 128.906 491.322 130.868C491.61 131.752 491.799 132.664 491.886 133.588V133.588Z" fill="#E0E0E0"/>
<path d="M570.754 106.837C569.724 107.219 568.661 107.503 567.577 107.688C565.524 108.171 562.549 108.856 558.897 109.818C551.588 111.684 541.584 114.615 530.687 118.321C519.791 122.028 510.082 125.849 503.137 128.801C499.652 130.252 496.865 131.501 494.931 132.353C493.955 132.856 492.934 133.267 491.881 133.581C492.778 132.944 493.734 132.394 494.735 131.936C496.611 130.961 499.355 129.589 502.805 128.033C509.685 124.881 519.384 120.947 530.309 117.2C539.626 113.986 549.101 111.248 558.699 108.998C562.383 108.138 565.395 107.573 567.482 107.229C568.558 106.995 569.653 106.864 570.754 106.837V106.837Z" fill="#E0E0E0"/>
<path d="M469.599 228.356C469.325 228.088 469.089 227.785 468.899 227.453C468.41 226.717 467.812 225.819 467.088 224.732C465.527 222.362 463.357 218.877 460.735 214.533C455.482 205.85 448.604 193.623 441.2 180.04C433.795 166.457 427.036 154.177 421.973 145.398L415.945 135.015L414.321 132.181C414.109 131.862 413.941 131.515 413.821 131.15C414.094 131.419 414.33 131.724 414.521 132.056L416.331 134.774C417.892 137.144 420.061 140.629 422.685 144.973C427.937 153.656 434.814 165.883 442.223 179.472C449.632 193.06 456.384 205.329 461.446 214.11C463.924 218.374 465.96 221.884 467.473 224.491C468.124 225.624 468.659 226.559 469.099 227.326C469.311 227.645 469.48 227.992 469.599 228.356V228.356Z" fill="#E0E0E0"/>
<path d="M572.293 178.287C571.986 178.528 571.648 178.728 571.288 178.88L568.311 180.373C565.557 181.723 561.839 183.543 557.317 185.756C548.035 190.303 535.287 196.729 521.211 203.848C507.135 210.968 494.31 217.287 484.93 221.643C480.241 223.823 476.429 225.546 473.772 226.686C472.541 227.205 471.532 227.631 470.703 227.98C470.354 228.156 469.983 228.282 469.599 228.356C469.907 228.116 470.245 227.917 470.604 227.762L473.58 226.271L484.573 220.889C493.855 216.343 506.605 209.915 520.685 202.793C534.764 195.671 547.58 189.358 556.959 185.002C561.649 182.821 565.459 181.098 568.121 179.958C569.35 179.439 570.361 179.01 571.19 178.664C571.539 178.489 571.91 178.362 572.293 178.287V178.287Z" fill="#E0E0E0"/>
<path d="M750.51 83.6354C750.51 60.8922 726.511 46.4839 702.042 57.884C696.509 60.4592 691.982 64.7779 689.162 70.1721C683.002 82.0462 685.723 95.6056 691.306 106.864L710.346 154.92C710.953 156.451 712.009 157.764 713.377 158.687C714.745 159.61 716.361 160.1 718.013 160.093C719.665 160.086 721.277 159.582 722.637 158.648C723.998 157.713 725.043 156.392 725.636 154.856L744.32 106.549C750.781 91.8363 750.51 83.6354 750.51 83.6354ZM727.522 103.43C711.072 112.954 694.402 95.345 703.418 77.9785C704.601 75.6854 706.412 73.7726 708.641 72.461C725.093 62.9372 741.764 80.5463 732.745 97.9141C731.561 100.206 729.749 102.118 727.52 103.427L727.522 103.43Z" fill="#F5F5F5"/>
<path d="M948.95 547.052C948.95 547.253 738.976 547.416 480.023 547.416C220.978 547.416 11.0508 547.253 11.0508 547.052C11.0508 546.851 220.978 546.689 480.023 546.689C738.976 546.689 948.95 546.851 948.95 547.052Z" fill="#263238"/>
<path d="M408.828 547.051L222.739 546.194C211.991 546.145 201.703 541.848 194.136 534.247C186.57 526.646 182.345 516.364 182.391 505.662L184.364 41.134C184.386 35.8323 185.457 30.5868 187.516 25.6974C189.575 20.8079 192.581 16.3701 196.362 12.6377C200.144 8.90519 204.627 5.9511 209.555 3.94413C214.484 1.93716 219.761 0.916634 225.085 0.940851L411.175 1.79676C421.923 1.8462 432.211 6.14397 439.778 13.745C447.344 21.3461 451.569 31.6281 451.523 42.3301L449.55 506.86C449.528 512.161 448.457 517.407 446.398 522.296C444.34 527.186 441.334 531.624 437.552 535.356C433.77 539.088 429.287 542.042 424.359 544.049C419.43 546.056 414.153 547.076 408.828 547.051Z" fill="#455A64"/>
<path d="M410.909 17.8292L374.829 17.6633C372.454 17.7058 370.192 18.6862 368.542 20.3889C366.892 22.0915 365.989 24.3769 366.032 26.7425L366.002 33.2594C366.023 34.4308 365.812 35.5949 365.381 36.6851C364.951 37.7754 364.308 38.7704 363.491 39.6135C362.674 40.4566 361.698 41.1311 360.619 41.5987C359.541 42.0663 358.38 42.3177 357.203 42.3385L286.876 42.0151C284.5 41.9498 282.247 40.9486 280.612 39.2313C278.977 37.514 278.093 35.2208 278.154 32.8552L278.182 26.3382C278.243 23.9725 277.359 21.6793 275.724 19.9622C274.088 18.245 271.835 17.2442 269.46 17.1796L256.77 17.1197L225.192 16.9803C221.463 16.9632 217.768 17.6777 214.316 19.0829C210.865 20.488 207.726 22.5564 205.077 25.1699C202.429 27.7833 200.324 30.8906 198.881 34.3143C197.439 37.7381 196.689 41.4111 196.672 45.1237L194.747 498.538C194.715 506.033 197.674 513.234 202.973 518.558C208.272 523.881 215.477 526.891 223.005 526.926L408.722 527.78C412.451 527.797 416.147 527.082 419.598 525.677C423.05 524.271 426.189 522.202 428.838 519.588C431.486 516.975 433.591 513.867 435.033 510.443C436.475 507.018 437.226 503.345 437.241 499.632L439.168 46.2111C439.197 38.7169 436.238 31.5176 430.939 26.1956C425.64 20.8735 418.435 17.8643 410.909 17.8292V17.8292Z" fill="#FAFAFA"/>
<path d="M196.441 99.5327H226.88L254.04 126.576L225.801 154.695L196.758 125.776L196.441 99.5327Z" fill="#EBEBEB"/>
<path d="M260.241 114.719L244.989 99.5327H279.305L260.241 114.719Z" fill="#EBEBEB"/>
<path d="M273.585 127.117L300.306 100.513H393.686C393.686 100.513 407.984 164.079 351.745 204.886L273.585 127.117Z" fill="#EBEBEB"/>
<path d="M262.148 135.6L233.551 164.073L312.668 242.851L341.26 213.428L262.148 135.6Z" fill="#EBEBEB"/>
<path d="M196.098 180.209L214.01 161.701L196.441 144.209L196.098 180.209Z" fill="#EBEBEB"/>
<path d="M224.734 172.616L197.21 200.022V238.106L254.05 296.003L302.188 251.395L224.734 172.616Z" fill="#EBEBEB"/>
<path d="M362.374 212.873C362.374 212.873 421.333 169.828 402.274 100.517H438.941L438.496 296.172L362.374 212.873Z" fill="#EBEBEB"/>
<path d="M351.319 224.167L322.804 253.81L410.23 340.861L436.97 312.646L351.319 224.167Z" fill="#EBEBEB"/>
<path d="M310.897 261.921L266.08 306.227L355.7 394.839L400.432 351.776L310.897 261.921Z" fill="#EBEBEB"/>
<path d="M287.408 483.886L355.914 413.176L421.085 479.327L287.408 483.886Z" fill="#EBEBEB"/>
<path d="M366.6 404.051L437.943 333.675C437.943 336.8 437.323 479.648 437.323 479.648L366.6 404.051Z" fill="#EBEBEB"/>
<path d="M305.517 364.514L345.988 404.812L266.08 486.928L229.149 442.829L305.517 364.514Z" fill="#EBEBEB"/>
<path d="M196.166 448.55C199.983 448.17 297.859 356.911 297.859 356.911L196.166 251.986V448.55Z" fill="#EBEBEB"/>
<path d="M194.748 469.345L218.312 448.55L250.942 486.928H194.748V472.246" fill="#EBEBEB"/>
<path d="M225.244 71.9066C222.757 70.0735 220.42 68.0488 218.252 65.8511V65.8511C218.252 64.7944 218.252 65.557 218.252 65.32L218.263 65.3102L218.286 65.2893L218.329 65.2489L218.416 65.168L218.589 65.0063L218.932 64.6871L219.607 64.064L220.888 62.893L223.086 60.9414C223.726 60.2944 224.45 59.7356 225.239 59.2798C224.733 60.0356 224.128 60.7206 223.439 61.3164L221.349 63.3795L220.089 64.5798L219.422 65.2113L219.081 65.5333L218.909 65.695L218.822 65.7772L218.777 65.8176L218.756 65.8372L218.745 65.8483C218.745 65.6127 218.745 66.378 218.745 65.3214C221.081 67.3437 223.254 69.5456 225.244 71.9066V71.9066Z" fill="#263238"/>
<path d="M418.754 61.2732C418.754 61.5724 418.665 61.8648 418.498 62.1135C418.331 62.3623 418.094 62.5561 417.817 62.6706C417.539 62.7851 417.234 62.815 416.939 62.7567C416.644 62.6983 416.374 62.5542 416.161 62.3427C415.949 62.1312 415.804 61.8617 415.745 61.5683C415.687 61.2749 415.717 60.9708 415.832 60.6944C415.947 60.4181 416.142 60.1818 416.391 60.0157C416.641 59.8495 416.935 59.7607 417.235 59.7607C417.435 59.7606 417.632 59.7996 417.817 59.8755C418.001 59.9515 418.169 60.0628 418.31 60.2033C418.451 60.3438 418.563 60.5106 418.639 60.6942C418.715 60.8778 418.754 61.0746 418.754 61.2732V61.2732Z" fill="#263238"/>
<path d="M418.309 65.4052C418.522 65.6167 418.666 65.8862 418.725 66.1796C418.784 66.473 418.754 66.7772 418.639 67.0536C418.524 67.33 418.329 67.5663 418.079 67.7325C417.829 67.8987 417.536 67.9875 417.235 67.9875C416.935 67.9875 416.641 67.8987 416.391 67.7325C416.142 67.5663 415.947 67.33 415.832 67.0536C415.717 66.7772 415.687 66.473 415.746 66.1796C415.804 65.8862 415.949 65.6167 416.162 65.4052C416.302 65.2647 416.47 65.1532 416.654 65.0771C416.838 65.0011 417.036 64.9619 417.235 64.9619C417.435 64.9619 417.632 65.0011 417.817 65.0771C418.001 65.1532 418.168 65.2647 418.309 65.4052V65.4052Z" fill="#263238"/>
<path d="M418.754 71.6751C418.754 71.9742 418.665 72.2667 418.498 72.5154C418.331 72.7641 418.094 72.958 417.817 73.0725C417.539 73.1869 417.234 73.2169 416.939 73.1585C416.644 73.1002 416.374 72.9561 416.161 72.7446C415.949 72.5331 415.804 72.2636 415.745 71.9702C415.687 71.6768 415.717 71.3726 415.832 71.0963C415.947 70.8199 416.142 70.5837 416.391 70.4175C416.641 70.2513 416.935 70.1626 417.235 70.1626C417.638 70.1626 418.025 70.3219 418.309 70.6056C418.594 70.8892 418.754 71.274 418.754 71.6751Z" fill="#263238"/>
<path d="M353.139 67.4473H287.653V72.8797H353.139V67.4473Z" fill="#263238"/>
<path d="M346.02 165.04C346.02 139.637 319.215 123.543 291.884 136.277C285.706 139.156 280.653 143.979 277.503 150.003C270.628 163.265 273.664 178.41 279.9 190.986L301.17 244.662C301.847 246.372 303.027 247.839 304.555 248.87C306.083 249.901 307.888 250.449 309.734 250.441C311.58 250.434 313.381 249.871 314.901 248.827C316.42 247.783 317.587 246.307 318.25 244.591L339.11 190.635C346.33 174.2 346.02 165.04 346.02 165.04ZM320.35 187.144C301.976 197.781 283.356 178.12 293.427 158.717C294.748 156.155 296.771 154.018 299.262 152.554C317.637 141.915 336.258 161.578 326.185 180.981C324.863 183.543 322.84 185.68 320.35 187.144Z" fill="#E8505B"/>
<path d="M902.897 358.911H126.151V472.392H902.897V358.911Z" fill="#E8505B"/>
<g opacity="0.5">
<g opacity="0.5">
<path opacity="0.5" d="M902.897 358.911H126.151V472.392H902.897V358.911Z" fill="black"/>
</g>
</g>
<path d="M235.551 546.047C276.823 543.282 308.03 507.727 305.253 466.631C302.476 425.536 266.768 394.463 225.496 397.228C184.224 399.993 153.017 435.549 155.794 476.644C158.571 517.739 194.279 548.812 235.551 546.047Z" fill="#263238"/>
<path d="M155.645 470.371C155.645 470.435 155.634 470.497 155.633 470.562C155.492 490.246 163.173 509.188 177.001 523.257C190.829 537.325 209.682 545.38 229.45 545.664C249.218 545.948 268.297 538.438 282.527 524.773C296.757 511.108 304.983 492.394 305.413 472.714C305.413 472.648 305.406 472.586 305.406 472.522L155.645 470.371Z" fill="#263238"/>
<path d="M177.946 470.882C177.796 481.236 180.733 491.402 186.386 500.094C192.038 508.786 200.152 515.614 209.702 519.714C219.251 523.815 229.807 525.003 240.035 523.13C250.263 521.257 259.704 516.406 267.163 509.19C274.622 501.975 279.765 492.719 281.941 482.593C284.118 472.467 283.23 461.926 279.389 452.303C275.549 442.68 268.929 434.406 260.367 428.529C251.805 422.652 241.684 419.435 231.286 419.285C224.381 419.185 217.524 420.441 211.106 422.98C204.689 425.519 198.836 429.292 193.883 434.083C188.93 438.874 184.973 444.59 182.238 450.904C179.504 457.218 178.045 464.007 177.946 470.882V470.882Z" fill="#FAFAFA"/>
<path d="M231.281 419.285C224.376 419.185 217.519 420.441 211.102 422.98C204.684 425.519 198.832 429.292 193.878 434.083C188.925 438.874 184.969 444.59 182.234 450.904C179.5 457.218 178.041 464.007 177.941 470.882L283.097 472.393C283.298 458.509 277.953 445.114 268.235 435.154C258.518 425.194 245.225 419.486 231.281 419.285Z" fill="#E0E0E0"/>
<path d="M198.495 471.177C198.403 477.485 200.192 483.678 203.636 488.973C207.079 494.268 212.022 498.428 217.84 500.926C223.657 503.424 230.088 504.148 236.319 503.007C242.55 501.866 248.301 498.91 252.845 494.514C257.389 490.118 260.521 484.48 261.847 478.311C263.172 472.142 262.631 465.721 260.291 459.859C257.951 453.996 253.918 448.957 248.701 445.377C243.485 441.797 237.32 439.838 230.985 439.747C222.491 439.625 214.296 442.868 208.203 448.762C202.11 454.657 198.618 462.72 198.495 471.177V471.177Z" fill="#263238"/>
<path d="M807.597 546.028C848.879 543.64 880.401 508.38 878.001 467.275C875.602 426.169 840.191 394.783 798.908 397.172C757.626 399.56 726.105 434.82 728.504 475.926C730.903 517.031 766.314 548.417 807.597 546.028Z" fill="#263238"/>
<path d="M728.386 470.371C728.386 470.435 728.375 470.497 728.374 470.562C728.232 480.355 730.028 490.079 733.661 499.181C737.293 508.283 742.691 516.583 749.545 523.607C756.399 530.632 764.576 536.243 773.608 540.122C782.64 544 792.351 546.068 802.186 546.21C822.049 546.495 841.212 538.912 855.46 525.129C869.707 511.346 877.873 492.492 878.16 472.714C878.16 472.648 878.153 472.586 878.153 472.522L728.386 470.371Z" fill="#263238"/>
<path d="M750.687 470.882C750.537 481.236 753.474 491.402 759.126 500.094C764.779 508.786 772.893 515.614 782.442 519.714C791.992 523.815 802.548 525.003 812.776 523.13C823.004 521.257 832.445 516.406 839.904 509.19C847.363 501.975 852.506 492.719 854.682 482.593C856.858 472.467 855.97 461.926 852.13 452.303C848.29 442.68 841.67 434.406 833.108 428.529C824.545 422.652 814.425 419.435 804.027 419.285C797.122 419.185 790.265 420.441 783.847 422.98C777.429 425.519 771.577 429.292 766.624 434.083C761.67 438.874 757.714 444.59 754.979 450.904C752.245 457.218 750.786 464.007 750.687 470.882V470.882Z" fill="#FAFAFA"/>
<path d="M804.023 419.285C797.118 419.185 790.261 420.441 783.843 422.98C777.425 425.519 771.573 429.292 766.62 434.083C761.667 438.874 757.71 444.59 754.975 450.904C752.241 457.218 750.782 464.007 750.683 470.882L855.838 472.393C856.04 458.509 850.694 445.114 840.977 435.154C831.259 425.194 817.967 419.486 804.023 419.285V419.285Z" fill="#E0E0E0"/>
<path d="M771.236 471.177C771.145 477.485 772.934 483.678 776.377 488.973C779.82 494.268 784.763 498.428 790.581 500.926C796.398 503.424 802.829 504.148 809.06 503.007C815.291 501.866 821.042 498.91 825.586 494.514C830.13 490.119 833.263 484.48 834.588 478.311C835.913 472.142 835.372 465.721 833.032 459.859C830.692 453.996 826.659 448.957 821.443 445.377C816.226 441.797 810.061 439.838 803.726 439.747C795.232 439.625 787.037 442.868 780.944 448.762C774.851 454.657 771.359 462.72 771.236 471.177V471.177Z" fill="#263238"/>
<path d="M328.705 295.065C328.705 295.065 218.411 303.165 177.531 312.295C148.722 318.73 93.1658 329.832 93.8364 364.634L98.2422 389.58C98.2422 389.58 77.63 398.952 77.63 422.87C77.63 446.788 72.5998 483.876 120.698 485.358C128.625 485.603 143.683 485.358 143.683 485.358C143.683 485.358 134.443 383.354 228.565 380.368C324.31 377.332 317.95 484.425 317.95 484.425H717.546C717.546 484.425 701.145 380.087 804.215 379.941C907.284 379.794 891.6 485.107 891.6 485.107C891.6 485.107 929.515 488.374 947.156 456.644C964.797 424.914 960.207 402.33 960.207 402.33L959.623 382.277C959.527 378.986 958.179 375.854 955.852 373.515C953.525 371.176 950.393 369.804 947.089 369.678C947.089 369.678 953.976 319.18 943.41 310.433C932.844 301.686 874.919 248.967 874.919 248.967L877.678 247.243C878.716 246.594 879.549 245.665 880.079 244.565C880.61 243.465 880.817 242.237 880.676 241.025C880.536 239.812 880.054 238.664 879.286 237.713C878.518 236.761 877.495 236.046 876.336 235.649C854.346 228.121 810.865 213.222 800.64 209.661C799.107 209.125 797.51 208.791 795.89 208.667C789.792 208.201 772.519 207.111 740.811 206.775C702.183 206.364 548.824 206.775 548.824 206.775C548.824 206.775 496.044 211.096 466.644 223.984C435.73 237.538 328.705 295.065 328.705 295.065Z" fill="#E8505B"/>
<g opacity="0.4">
<g opacity="0.4">
<g opacity="0.4">
<path opacity="0.4" d="M105.592 420.103C101.594 419.292 95.4587 419.214 92.4109 421.915C90.1457 423.92 89.5451 427.162 89.2007 430.161C88.564 434.266 88.6587 438.451 89.4807 442.523C89.9042 444.557 90.7444 446.482 91.9488 448.178C93.1532 449.874 94.696 451.304 96.4807 452.38C100.138 454.358 105.161 454.033 108.001 451.008C110.6 448.243 110.898 444.09 110.829 440.302C110.733 434.924 111.167 430.369 110.171 425.081C109.953 423.968 109.483 422.919 108.795 422.014C108.448 421.47 107.979 421.014 107.423 420.683C106.868 420.352 106.243 420.154 105.598 420.106" fill="black"/>
</g>
</g>
</g>
<path d="M98.2422 389.58C109.952 389.605 121.307 388.938 132.99 388.163C133.695 388.275 134.416 388.209 135.088 387.971C135.76 387.733 136.362 387.331 136.837 386.802C137.313 386.272 137.648 385.633 137.811 384.941C137.974 384.25 137.96 383.529 137.771 382.844C137.827 376.596 137.515 369.496 132.755 365.419C129.847 362.932 125.857 362.16 122.039 361.795C112.543 360.793 102.941 361.756 93.8364 364.623L98.2422 389.58Z" fill="#FAFAFA"/>
<path d="M341.363 481.231C341.363 481.231 341.32 480.896 341.272 480.238C341.226 479.555 341.162 478.582 341.079 477.31C340.939 474.713 340.729 470.927 340.462 466.058C340.194 461.189 339.861 455.196 339.157 448.286C338.439 440.456 337.058 432.7 335.028 425.102C332.477 415.919 328.684 407.124 323.754 398.958C318.183 389.527 310.776 381.3 301.967 374.759C283.067 361.377 257.551 353.814 230.854 353.49C204.091 353.172 178.665 361.592 160.247 375.626C151.414 382.131 143.676 389.992 137.322 398.916C131.779 406.682 127.268 415.129 123.903 424.048C121.141 431.413 119.24 439.069 118.238 446.867C117.458 452.751 117.228 458.694 117.551 464.621C117.773 468.363 118.232 472.088 118.923 475.773C119.152 477.023 119.327 477.984 119.448 478.655C119.561 479.305 119.602 479.644 119.602 479.644C119.602 479.644 119.512 479.316 119.375 478.668C119.235 477.999 119.036 477.042 118.779 475.798C118.024 472.113 117.519 468.381 117.267 464.629C116.89 458.684 117.078 452.717 117.827 446.807C118.791 438.969 120.666 431.269 123.413 423.861C126.763 414.884 131.27 406.378 136.822 398.558C143.193 389.564 150.962 381.639 159.838 375.081C178.347 360.931 203.938 352.433 230.853 352.755C257.697 353.085 283.324 360.701 302.354 374.21C311.222 380.814 318.673 389.121 324.265 398.638C329.201 406.862 332.987 415.716 335.52 424.959C337.528 432.59 338.879 440.378 339.556 448.238C340.222 455.165 340.507 461.15 340.738 466.037C340.946 470.909 341.107 474.696 341.218 477.295C341.271 478.566 341.312 479.541 341.34 480.222C341.37 480.893 341.363 481.231 341.363 481.231Z" fill="white"/>
<path d="M345.6 482.965C345.6 482.965 345.575 482.686 345.552 482.129L345.463 479.657C345.394 477.463 345.293 474.23 345.163 470.021C344.921 461.567 344.567 449.197 344.117 433.467C343.668 417.737 343.16 398.617 342.558 376.731C342.409 371.257 342.256 365.611 342.098 359.794C341.995 356.836 342.123 353.875 342.481 350.937C342.693 349.45 342.907 347.954 343.12 346.449C343.427 344.962 343.735 343.464 344.047 341.954C345.493 335.801 347.581 329.815 350.277 324.095C353.054 318.079 356.494 312.388 360.534 307.129L360.562 307.093L360.609 307.063L429.811 263.656L448.498 251.946C454.797 247.778 461.411 244.102 468.279 240.95C475.27 237.696 482.442 234.844 489.761 232.408C493.437 231.124 497.203 230.071 500.961 228.955C504.769 228 508.565 226.919 512.449 226.146C527.126 223.006 542.048 221.13 557.049 220.539C571.434 219.848 585.846 219.895 600.226 220.679L600.638 220.701L600.547 221.105C593.923 250.608 587.677 278.429 581.951 303.928L581.939 303.978L581.909 304.03C578.487 309.64 575.691 315.605 573.569 321.819C571.445 327.718 570.486 333.97 570.745 340.231C571.22 346.35 571.389 352.338 571.546 358.145C571.661 363.957 571.772 369.6 571.879 375.072C572.201 396.958 572.285 416.048 572.347 431.775C572.362 447.495 572.376 459.856 572.384 468.298C572.369 472.506 572.358 475.735 572.349 477.929C572.34 479.009 572.332 479.832 572.326 480.397C572.319 480.955 572.3 481.234 572.3 481.234C572.3 481.234 572.284 480.955 572.275 480.397C572.267 479.84 572.261 479.003 572.249 477.929C572.235 475.735 572.215 472.506 572.188 468.299C572.138 459.853 572.067 447.492 571.974 431.776C571.858 416.049 571.725 396.958 571.358 375.079C571.241 369.61 571.119 363.97 570.993 358.159C570.826 352.349 570.647 346.384 570.164 340.273C569.889 333.934 570.848 327.602 572.989 321.626C575.12 315.361 577.931 309.346 581.374 303.688L581.332 303.789C587.035 278.286 593.258 250.459 599.858 220.95L600.179 221.378C585.825 220.603 571.441 220.561 557.084 221.253C542.124 221.845 527.243 223.717 512.606 226.848C508.735 227.621 504.952 228.697 501.155 229.648C497.403 230.763 493.65 231.81 489.986 233.088C482.693 235.514 475.546 238.353 468.579 241.591C461.743 244.726 455.16 248.382 448.89 252.527L430.193 264.237L360.94 307.59L361.015 307.525C357.004 312.738 353.586 318.379 350.823 324.343C348.136 330.023 346.053 335.966 344.607 342.076C341.459 354.022 343.046 365.809 343.067 376.724C343.612 398.61 344.086 417.716 344.478 433.46C344.87 449.204 345.146 461.56 345.348 470.014C345.437 474.225 345.506 477.458 345.552 479.652C345.569 480.733 345.582 481.558 345.591 482.125C345.615 482.684 345.6 482.965 345.6 482.965Z" fill="#263238"/>
<path d="M599.767 223.026C599.767 223.026 599.988 223 600.421 222.983L602.346 222.919L609.778 222.739L637.345 222.198L730.282 220.62H730.457L730.568 220.76L743.588 236.634L780.776 282.036L785.005 287.204C786.367 288.922 787.533 290.785 788.483 292.758C790.221 296.425 791.166 300.415 791.257 304.469C791.348 308.523 790.582 312.551 789.009 316.292L784.773 326.112L771.924 355.714C770.402 359.182 769.215 361.884 768.397 363.748L767.462 365.83C767.248 366.297 767.122 366.527 767.122 366.527C767.122 366.527 767.203 366.275 767.393 365.798C767.601 365.297 767.89 364.594 768.261 363.688L771.663 355.603L784.298 325.91C786.712 319.608 790.948 312.978 790.658 304.896C790.61 300.79 789.67 296.743 787.903 293.033C786.969 291.105 785.824 289.286 784.489 287.609L780.249 282.451L743.021 237.093L730.008 221.215L730.288 221.348L637.346 222.685L609.777 223.008L602.343 223.061H600.417C599.988 223.046 599.767 223.026 599.767 223.026Z" fill="#263238"/>
<path d="M552.85 346.083C552.85 346.043 553.242 346.047 553.963 345.919C555.013 345.736 556.014 345.34 556.903 344.753C558.309 343.829 559.363 342.463 559.898 340.872C560.217 339.883 560.346 338.843 560.279 337.806C560.249 336.649 559.952 335.515 559.411 334.491C558.785 333.325 557.857 332.349 556.723 331.662C555.589 330.976 554.291 330.605 552.964 330.587L543.528 330.614L521.894 330.643C520.096 330.647 518.362 331.309 517.022 332.503C515.682 333.696 514.829 335.338 514.625 337.117C514.398 338.81 514.71 340.531 515.519 342.038C516.328 343.459 517.588 344.573 519.1 345.206C520.596 345.718 522.182 345.911 523.757 345.772L528.34 345.79L536.567 345.834L548.478 345.949L551.716 346.018C552.094 346.01 552.472 346.034 552.846 346.092C552.472 346.148 552.094 346.172 551.716 346.164L548.478 346.232L536.567 346.348L528.34 346.391L523.757 346.411C522.96 346.401 522.192 346.443 521.339 346.391C520.017 346.309 518.737 345.899 517.615 345.198C516.493 344.498 515.565 343.529 514.915 342.381C514.028 340.749 513.677 338.881 513.914 337.04C514.133 335.084 515.068 333.278 516.54 331.964C518.011 330.65 519.917 329.922 521.894 329.917L543.528 329.945L552.973 329.985C555.037 330.022 557.005 330.86 558.457 332.321C559.909 333.782 560.729 335.75 560.743 337.806C560.793 338.894 560.637 339.981 560.283 341.012C559.696 342.666 558.56 344.072 557.063 344.997C556.129 345.578 555.077 345.945 553.983 346.071C553.607 346.121 553.227 346.125 552.85 346.083V346.083Z" fill="#263238"/>
<path d="M759.952 346.083C759.952 346.043 760.344 346.047 761.072 345.919C762.123 345.736 763.124 345.34 764.012 344.753C765.416 343.829 766.468 342.462 767 340.872C767.318 339.883 767.448 338.843 767.382 337.806C767.352 336.649 767.055 335.515 766.514 334.491C765.888 333.325 764.96 332.348 763.825 331.662C762.691 330.975 761.393 330.604 760.066 330.587L750.63 330.614L728.997 330.643C727.199 330.648 725.465 331.309 724.125 332.503C722.785 333.696 721.931 335.338 721.727 337.117C721.5 338.81 721.814 340.531 722.623 342.038C723.431 343.46 724.691 344.574 726.204 345.206C727.698 345.718 729.284 345.911 730.859 345.772L735.442 345.79L743.669 345.834L755.58 345.949L758.82 346.018C759.197 346.01 759.575 346.034 759.948 346.092C759.575 346.148 759.197 346.172 758.82 346.164L755.58 346.232L743.669 346.348L735.442 346.391L730.859 346.411C730.062 346.401 729.295 346.443 728.441 346.391C727.119 346.309 725.839 345.899 724.717 345.198C723.595 344.498 722.667 343.529 722.016 342.381C721.13 340.749 720.78 338.881 721.017 337.04C721.236 335.084 722.17 333.277 723.642 331.963C725.114 330.649 727.02 329.921 728.997 329.917L750.63 329.945L760.075 329.985C762.139 330.022 764.107 330.86 765.559 332.321C767.011 333.782 767.831 335.75 767.845 337.806C767.895 338.894 767.739 339.981 767.385 341.012C766.798 342.666 765.662 344.072 764.165 344.997C763.231 345.578 762.179 345.945 761.085 346.071C760.709 346.121 760.329 346.125 759.952 346.083V346.083Z" fill="#263238"/>
<path d="M941.57 312.431H900.13C897.343 312.431 894.609 313.189 892.224 314.624C889.838 316.059 887.892 318.115 886.595 320.572V320.572C885.524 322.599 884.926 324.841 884.846 327.13C884.766 329.419 885.206 331.697 886.133 333.794L902.38 370.549L943.873 370.144C943.873 370.144 952.704 323.552 941.57 312.431Z" fill="#FAFAFA"/>
<path d="M366.04 307.232L579.868 303.31L719.028 300.768L764.917 274.388C765.792 273.884 766.549 273.201 767.139 272.383C767.728 271.565 768.136 270.632 768.335 269.645C768.535 268.658 768.521 267.64 768.295 266.659C768.069 265.678 767.636 264.756 767.025 263.954L738.458 226.582C736.988 224.659 735.096 223.096 732.925 222.014C730.754 220.932 728.364 220.359 725.937 220.34L570.29 219.085C570.29 219.085 511.676 215.694 465.503 241.438C416.902 268.529 366.04 307.232 366.04 307.232Z" fill="#263238"/>
<path d="M464.04 222.937C464.04 222.937 474.757 227.805 467.782 232.314C460.807 236.824 352.475 304.828 352.475 304.828L327.572 293.606C371.676 269.134 416.234 245.368 464.04 222.937Z" fill="#455A64"/>
<path d="M355.968 306.527C355.968 306.527 355.744 306.597 355.3 306.697L353.329 307.125L345.73 308.69C339.121 309.999 329.545 311.838 317.668 313.869C293.922 317.938 260.94 322.682 224.298 325.837C215.137 326.63 206.181 327.281 197.529 327.847C188.877 328.413 180.536 328.935 172.609 329.659C156.757 331.035 142.554 333.333 131.019 336.752C121.869 339.314 113.065 342.971 104.8 347.643C101.821 349.208 99.6982 350.738 98.189 351.665L96.4866 352.741C96.1002 352.979 95.8916 353.088 95.8916 353.088C95.8916 353.088 96.0708 352.939 96.4432 352.679L98.1078 351.543C100.22 350.054 102.407 348.671 104.658 347.399C112.898 342.614 121.706 338.872 130.876 336.259C142.435 332.765 156.678 330.405 172.551 328.993C180.488 328.25 188.836 327.711 197.485 327.137C206.135 326.563 215.081 325.906 224.238 325.113C260.856 321.961 293.826 317.307 317.586 313.363C329.468 311.397 339.055 309.637 345.68 308.413L353.303 306.981L355.289 306.624C355.734 306.548 355.968 306.527 355.968 306.527Z" fill="#263238"/>
<path d="M958.128 401.868C958.128 402.069 943.876 402.231 926.299 402.231C908.722 402.231 894.469 402.069 894.469 401.868C894.469 401.668 908.716 401.506 926.299 401.506C943.882 401.506 958.128 401.668 958.128 401.868Z" fill="#263238"/>
<path d="M697.408 438.083C697.408 438.284 616.96 438.445 517.745 438.445C418.495 438.445 338.063 438.284 338.063 438.083C338.063 437.882 418.495 437.719 517.745 437.719C616.96 437.719 697.408 437.882 697.408 438.083Z" fill="#263238"/>
<path d="M134.127 403.067C134.127 403.268 122.752 403.431 108.723 403.431C94.6933 403.431 83.3169 403.268 83.3169 403.067C83.3169 402.866 94.6891 402.705 108.723 402.705C122.756 402.705 134.127 402.866 134.127 403.067Z" fill="#263238"/>
<path d="M873.779 247.513C873.779 247.513 864.232 258.158 867.986 265.968C871.739 273.779 910.523 301.117 910.523 301.117L938.679 306.378L873.779 247.513Z" fill="#455A64"/>
<path d="M606.101 228.467L599.766 296.54L713.054 293.324L758.715 266.898L729.154 228.466L606.101 228.467Z" fill="#455A64"/>
<path d="M392.865 300.025C392.865 300.025 461.206 250.878 488.174 241.108C514.198 231.682 527.766 229.319 552.212 228.626C575.578 227.964 589.814 228.605 589.814 228.605L571.754 297.814L392.865 300.025Z" fill="#455A64"/>
<path d="M382.862 300.253C382.862 298.136 383.428 296.057 384.502 294.23C385.576 292.402 387.12 290.893 388.973 289.856L404.673 281.074C409.149 278.57 414.198 277.254 419.332 277.254C422.499 277.254 425.645 277.754 428.654 278.736C431.924 279.863 434.772 281.957 436.817 284.737C438.862 287.517 440.006 290.853 440.099 294.297C440.187 296.613 439.805 298.922 438.977 301.087C438.148 303.252 436.889 305.229 435.275 306.898C433.661 308.567 431.726 309.895 429.584 310.802C427.443 311.709 425.14 312.177 422.813 312.177H394.839C391.663 312.177 388.617 310.921 386.371 308.684C384.125 306.448 382.863 303.415 382.862 300.253V300.253Z" fill="#E8505B"/>
<path d="M382.862 300.252C382.902 300.252 382.909 300.779 383.043 301.762C383.309 303.61 384.008 305.37 385.084 306.899C386.16 308.429 387.583 309.684 389.237 310.564C390.495 311.224 391.863 311.652 393.274 311.83C394.881 311.943 396.492 311.973 398.101 311.92L422.05 311.842C424.321 311.896 426.583 311.528 428.718 310.756C430.932 309.929 432.948 308.652 434.639 307.006C436.397 305.306 437.761 303.244 438.636 300.965C439.518 298.612 439.875 296.096 439.68 293.592C439.493 291.123 438.763 288.726 437.542 286.569C436.321 284.412 434.639 282.549 432.614 281.111C430.652 279.788 428.447 278.862 426.125 278.389C419.742 276.878 413.036 277.518 407.057 280.209C405.25 281.012 403.599 282.03 401.96 282.912L397.284 285.501L389.237 289.941C387.211 291.022 385.542 292.662 384.428 294.664C383.723 295.929 383.252 297.31 383.036 298.741C382.896 299.725 382.904 300.254 382.862 300.252C382.818 299.742 382.827 299.228 382.89 298.719C383.048 297.252 383.485 295.828 384.178 294.524C385.28 292.442 386.969 290.724 389.036 289.583L397.032 285.049L401.685 282.419C403.312 281.528 404.954 280.497 406.807 279.657C412.901 276.867 419.755 276.181 426.285 277.706C428.695 278.193 430.985 279.149 433.023 280.519C435.138 282.014 436.895 283.954 438.172 286.202C439.448 288.45 440.211 290.95 440.407 293.525C440.61 296.137 440.237 298.761 439.313 301.214C438.41 303.545 437.02 305.657 435.235 307.413C433.45 309.168 431.311 310.526 428.96 311.397C426.746 312.191 424.402 312.566 422.05 312.503L398.101 312.425C396.471 312.464 394.84 312.417 393.214 312.285C391.752 312.084 390.339 311.62 389.042 310.918C386.979 309.767 385.29 308.053 384.173 305.978C383.483 304.671 383.05 303.245 382.897 301.777C382.843 301.271 382.831 300.761 382.862 300.252V300.252Z" fill="#263238"/>
<path d="M909.429 481.867C909.429 481.867 909.429 481.538 909.469 480.899C909.514 480.239 909.578 479.295 909.66 478.07C909.737 476.825 909.885 475.289 909.968 473.469C910.05 471.65 910.108 469.544 910.183 467.182C910.206 464.813 910.171 462.184 910.144 459.306C909.958 456.433 909.943 453.3 909.552 449.967C908.913 442.382 907.557 434.874 905.501 427.543C904.292 423.289 902.802 419.12 901.042 415.062C899.159 410.654 896.898 406.416 894.284 402.395C888.451 393.54 881.032 385.829 872.396 379.648C862.887 372.771 852.27 367.56 841.001 364.237C829.322 360.672 816.617 359.377 803.681 359.287C791.063 359.167 778.502 360.986 766.441 364.682C760.73 366.478 755.183 368.757 749.862 371.495C744.793 374.18 739.977 377.314 735.473 380.859C727.107 387.393 719.649 395.004 713.296 403.493C710.508 407.395 708.044 411.517 705.926 415.816C704.007 419.805 702.306 423.893 700.829 428.064C696.349 440.672 693.63 453.834 692.75 467.18C692.526 471.905 692.551 475.583 692.67 478.071C692.74 479.298 692.794 480.239 692.834 480.901C692.866 481.539 692.864 481.868 692.864 481.868C692.864 481.868 692.815 481.545 692.758 480.908C692.703 480.246 692.625 479.305 692.523 478.078C692.32 474.443 692.301 470.801 692.467 467.164C693.24 453.772 695.891 440.554 700.343 427.894C701.811 423.698 703.506 419.584 705.421 415.571C707.54 411.233 710.01 407.075 712.807 403.136C719.172 394.582 726.653 386.911 735.053 380.325C739.584 376.746 744.431 373.583 749.535 370.875C754.889 368.111 760.471 365.81 766.22 363.997C778.351 360.271 790.988 358.437 803.683 358.561C816.668 358.65 829.443 359.955 841.203 363.555C852.545 366.907 863.229 372.163 872.794 379.098C877.226 382.341 881.368 385.959 885.175 389.912C888.789 393.623 892.011 397.694 894.792 402.059C897.414 406.113 899.678 410.387 901.558 414.831C903.315 418.916 904.798 423.114 905.997 427.395C908.034 434.762 909.36 442.305 909.958 449.922C910.33 453.268 910.326 456.414 910.492 459.294C910.499 462.179 910.512 464.815 910.468 467.185C910.361 469.555 910.266 471.653 910.188 473.479C910.081 475.3 909.908 476.836 909.81 478.079C909.712 479.323 909.608 480.244 909.546 480.905C909.481 481.543 909.429 481.867 909.429 481.867Z" fill="white"/>
<path d="M568.76 307.232C568.654 307.261 568.545 307.274 568.436 307.27L567.486 307.31L563.835 307.39L550.406 307.63C539.066 307.842 523.408 308.257 506.11 308.725C488.811 309.194 473.137 309.528 461.793 309.609C456.121 309.652 451.532 309.657 448.36 309.618L444.707 309.562L443.758 309.53C443.649 309.533 443.54 309.521 443.435 309.494C443.54 309.465 443.649 309.452 443.758 309.454L444.707 309.415L448.358 309.336L461.786 309.096C473.126 308.884 488.786 308.469 506.09 308.001C523.394 307.532 539.056 307.198 550.399 307.117C556.07 307.074 560.661 307.069 563.839 307.108L567.491 307.164L568.441 307.196C568.548 307.192 568.656 307.205 568.76 307.232V307.232Z" fill="white"/>
<path d="M550.2 328.195C546.123 328.557 542.028 328.678 537.936 328.558C533.844 328.678 529.748 328.557 525.669 328.195C529.748 327.832 533.844 327.71 537.936 327.831C542.028 327.711 546.123 327.832 550.2 328.195V328.195Z" fill="white"/>
<path d="M554.701 253.595C554.776 253.782 539.55 260.094 520.696 267.693C501.842 275.292 486.49 281.303 486.414 281.117C486.339 280.932 501.562 274.621 520.423 267.02C539.284 259.418 554.62 253.41 554.701 253.595Z" fill="white"/>
<path d="M523.849 258.356C523.929 258.541 509.429 264.899 491.471 272.558C473.513 280.216 458.882 286.277 458.802 286.093C458.722 285.909 473.222 279.551 491.184 271.89C509.146 264.229 523.769 258.172 523.849 258.356Z" fill="white"/>
<path d="M719.513 250.959C719.589 251.145 704.363 257.457 685.509 265.055C666.655 272.654 651.302 278.666 651.227 278.481C651.151 278.296 666.375 271.985 685.236 264.383C704.096 256.782 719.438 250.774 719.513 250.959Z" fill="white"/>
<path d="M688.661 255.72C688.741 255.904 674.241 262.263 656.284 269.922C638.326 277.581 623.694 283.642 623.615 283.458C623.535 283.274 638.035 276.916 655.997 269.254C673.959 261.593 688.582 255.536 688.661 255.72Z" fill="white"/>
<path d="M722.49 307.221C722.49 307.422 692.209 307.763 654.861 307.985C617.514 308.207 587.225 308.225 587.223 308.024C587.222 307.823 617.498 307.482 654.857 307.26C692.216 307.039 722.488 307.02 722.49 307.221Z" fill="white"/>
<path d="M756.024 327.029C756.024 327.229 747.533 327.47 737.058 327.568C726.583 327.666 718.084 327.582 718.083 327.381C718.081 327.181 726.572 326.939 737.051 326.842C747.53 326.744 756.021 326.824 756.024 327.029Z" fill="white"/>
<path d="M176.214 316.723C175.947 316.807 175.67 316.86 175.391 316.88L173.011 317.19C171.979 317.307 170.719 317.469 169.263 317.701C167.807 317.934 166.14 318.142 164.321 318.509C160.664 319.14 156.348 320.095 151.61 321.352C146.885 322.657 141.746 324.292 136.471 326.333C131.207 328.409 126.321 330.688 121.964 332.929C117.624 335.216 113.812 337.436 110.7 339.449C109.115 340.411 107.75 341.387 106.525 342.204C105.3 343.021 104.262 343.753 103.427 344.364L101.467 345.745C101.247 345.918 101.009 346.066 100.755 346.186C100.94 345.977 101.149 345.79 101.377 345.629L103.249 344.139C104.062 343.49 105.069 342.715 106.283 341.872C107.496 341.029 108.839 340.012 110.411 339.018C113.498 336.944 117.306 334.668 121.643 332.338C131.084 327.322 141.08 323.418 151.428 320.705C156.2 319.479 160.545 318.571 164.226 318.003C166.058 317.667 167.736 317.494 169.201 317.306C170.667 317.117 171.936 316.989 172.981 316.914L175.371 316.74C175.65 316.701 175.933 316.695 176.214 316.723Z" fill="white"/>
<path d="M426.216 283.834C426.16 283.874 425.796 283.287 424.868 282.536C423.527 281.509 421.929 280.866 420.248 280.676C417.731 280.477 415.2 280.749 412.785 281.481C409.767 282.234 406.817 283.232 403.964 284.467C398.773 286.71 393.941 289.701 389.624 293.344C386.297 296.132 384.537 298.18 384.433 298.083C384.776 297.55 385.171 297.053 385.615 296.6C386.767 295.316 387.99 294.097 389.28 292.949C395.931 287.048 403.948 282.881 412.614 280.821C415.112 280.101 417.728 279.876 420.314 280.159C422.071 280.402 423.718 281.15 425.053 282.313C425.405 282.633 425.719 282.993 425.988 283.385C426.163 283.667 426.24 283.821 426.216 283.834Z" fill="white"/>
<path d="M876.952 247.02C875.001 247.486 872.997 247.69 870.992 247.626C868.639 247.562 866.299 247.274 864.002 246.765C860.968 246.073 857.99 245.158 855.093 244.027C851.861 242.811 848.41 241.272 844.689 239.689L838.876 237.354C836.875 236.561 834.765 235.876 832.629 235.1C823.284 231.945 813.756 229.359 804.096 227.358C786.533 223.703 768.699 221.492 750.772 220.747C747.334 220.562 744.219 220.559 741.485 220.482H734.468L730.034 220.581L728.879 220.588C728.747 220.597 728.615 220.589 728.484 220.566C728.612 220.533 728.744 220.516 728.876 220.514L730.027 220.435L734.461 220.201L741.486 220.077C744.225 220.114 747.345 220.077 750.791 220.234C768.762 220.829 786.648 222.975 804.247 226.647C813.936 228.655 823.49 231.268 832.85 234.468C834.991 235.256 837.103 235.952 839.108 236.759L844.928 239.137C848.646 240.747 852.068 242.308 855.278 243.547C858.144 244.698 861.089 245.641 864.091 246.369C866.359 246.904 868.672 247.23 871 247.345C872.473 247.394 873.947 247.34 875.412 247.182L876.557 247.042C876.687 247.019 876.82 247.011 876.952 247.02V247.02Z" fill="#263238"/>
<path d="M203.373 248.936C197.78 218.434 194.014 213.75 190.848 203.256C187.719 192.888 182.658 185.94 176.393 183.541C172.17 181.922 151.104 174.353 143.764 176.864C136.584 179.398 129.752 182.817 123.424 187.04C118.51 190.283 114.784 195.025 112.805 200.555L101.531 232.016L121.25 251.597L131.133 230.687L141.858 255.718L140.269 281.023L201.784 297.502C207.388 288.572 206.545 266.243 203.373 248.936Z" fill="#15B2BC"/>
<g opacity="0.2">
<g opacity="0.2">
<path opacity="0.2" d="M187.354 215.668C184.639 231.545 184.204 233.737 181.489 249.614C180.557 255.064 177.83 263.566 173.929 267.503C171.041 270.422 168.21 273.231 164.206 274.175C160.474 275.054 154.812 275.15 151.304 273.617C147.795 272.084 144.809 265.298 146.253 261.76C151.468 262.875 153.078 264.609 157.579 261.76C161.499 259.277 167.066 253.786 169.199 249.674C178.174 232.388 180.641 231.768 187.348 215.675" fill="black"/>
</g>
</g>
<path d="M142.842 246.428C141.843 245.084 140.935 243.675 140.126 242.21L133.788 231.919C131.305 228.016 129.06 224.498 127.294 221.722C126.328 220.355 125.456 218.924 124.684 217.44C125.024 217.739 125.32 218.085 125.563 218.467C126.091 219.156 126.823 220.171 127.722 221.438C129.507 223.971 131.894 227.527 134.407 231.535C136.92 235.542 139.073 239.242 140.567 241.952C141.317 243.308 141.907 244.414 142.296 245.189C142.535 245.575 142.718 245.992 142.842 246.428V246.428Z" fill="#263238"/>
<path d="M185.759 274.909C185.302 275.147 184.816 275.329 184.315 275.45C183.743 275.645 183.161 275.807 182.57 275.934C181.883 276.089 181.103 276.302 180.221 276.423C178.165 276.776 176.083 276.962 173.996 276.981C168.867 277.029 163.775 276.104 158.993 274.255C157.047 273.503 155.166 272.596 153.367 271.541C152.585 271.123 151.932 270.645 151.343 270.257C150.836 269.931 150.349 269.575 149.883 269.192C149.456 268.904 149.067 268.564 148.725 268.179C148.808 268.066 150.535 269.417 153.625 271.094C155.433 272.069 157.307 272.917 159.235 273.63C163.962 275.375 168.959 276.283 174.001 276.312C176.056 276.322 178.11 276.188 180.147 275.912C183.62 275.431 185.72 274.775 185.759 274.909Z" fill="#263238"/>
<path d="M161.08 227.388C160.974 227.933 154.36 241.037 154.36 241.037L123.168 224.675L119.983 211.293C119.728 210.227 119.265 209.222 118.619 208.334C117.973 207.447 117.158 206.695 116.22 206.122C115.282 205.549 114.24 205.165 113.153 204.994C112.066 204.823 110.956 204.867 109.886 205.123L100.688 208.873C100.308 209.02 99.9705 209.259 99.7063 209.568C99.4421 209.878 99.2594 210.248 99.1747 210.645C99.0473 211.324 99.2139 211.979 100.389 211.887C102.673 211.71 107.432 211.207 107.432 211.207L105.261 218.829C104.691 220.828 104.912 222.968 105.878 224.809L107.26 227.448L110.301 232.344L110.239 232.387C110.239 232.387 140.557 263.397 157.58 265.414C167.8 266.625 179.403 238.063 179.403 238.063L161.08 227.388Z" fill="#B78876"/>
<path d="M107.168 211.718C107.135 211.669 107.404 211.395 107.926 211.05C108.618 210.571 109.443 210.318 110.286 210.325C110.722 210.347 111.144 210.481 111.511 210.716C111.878 210.95 112.177 211.277 112.378 211.662C112.658 212.285 112.47 212.712 112.43 212.69C112.351 212.69 112.4 212.291 112.095 211.814C111.889 211.514 111.617 211.265 111.299 211.086C110.982 210.906 110.628 210.801 110.264 210.778C109.502 210.785 108.754 210.976 108.084 211.336C107.542 211.59 107.206 211.772 107.168 211.718Z" fill="#AA6550"/>
<path d="M111.1 216.473C111.035 216.495 110.899 216.219 110.6 215.851C110.224 215.37 109.726 214.999 109.157 214.775C108.588 214.551 107.969 214.483 107.364 214.578C106.894 214.641 106.604 214.751 106.572 214.69C106.54 214.628 106.79 214.421 107.294 214.265C107.962 214.067 108.677 214.097 109.324 214.352C109.972 214.607 110.515 215.071 110.866 215.67C111.119 216.127 111.147 216.456 111.1 216.473Z" fill="#AA6550"/>
<path d="M167.549 186.029L159.103 225.887L181.489 239.281L190.089 214.787C190.089 214.787 186.53 185.045 167.549 186.029Z" fill="#15B2BC"/>
<path d="M179.617 186.727C179.446 186.872 179.254 186.993 179.048 187.083C178.661 187.294 178.091 187.603 177.345 187.977C175.858 188.734 173.686 189.789 170.954 191.001C163.854 194.24 156.377 196.586 148.694 197.985C140.97 199.362 133.04 199.095 125.426 197.201C123.135 196.606 120.901 195.808 118.752 194.816C117.984 194.483 117.425 194.147 117.035 193.946C116.828 193.856 116.636 193.737 116.463 193.592C117.282 193.869 118.084 194.191 118.866 194.557C121.037 195.439 123.273 196.157 125.554 196.703C133.112 198.426 140.941 198.615 148.574 197.261C156.198 195.861 163.637 193.6 170.747 190.522C173.494 189.377 175.696 188.394 177.219 187.715C177.995 187.331 178.796 187 179.617 186.727Z" fill="#EBEBEB"/>
<path d="M185.507 191.129C185.321 191.307 185.113 191.459 184.887 191.583L183.028 192.767C182.052 193.4 181.045 193.984 180.009 194.515C178.804 195.146 177.461 195.928 175.885 196.606L173.436 197.721C172.582 198.104 171.663 198.426 170.726 198.801C168.863 199.579 166.798 200.205 164.639 200.905C155.184 203.748 145.3 204.912 135.44 204.345C133.177 204.166 131.022 204.037 129.027 203.714C128.029 203.575 127.059 203.469 126.139 203.296L123.496 202.776C121.804 202.483 120.315 202.034 118.996 201.701C117.865 201.425 116.748 201.092 115.651 200.703L113.567 199.984C113.318 199.915 113.08 199.816 112.857 199.687C113.115 199.708 113.368 199.762 113.613 199.846L115.734 200.432C116.647 200.711 117.77 201.026 119.094 201.308C120.418 201.589 121.905 202.013 123.594 202.273L126.227 202.742C127.143 202.901 128.11 202.986 129.103 203.119C131.086 203.414 133.226 203.519 135.473 203.676C145.256 204.162 155.053 203.008 164.453 200.262C166.599 199.585 168.653 198.985 170.516 198.237C171.45 197.877 172.37 197.571 173.224 197.204L175.674 196.133C177.254 195.491 178.605 194.739 179.822 194.151C181.038 193.563 182.062 192.998 182.888 192.519L184.813 191.454C185.03 191.317 185.263 191.208 185.507 191.129V191.129Z" fill="#EBEBEB"/>
<path d="M181.489 239.28C180.859 239.021 180.251 238.713 179.669 238.359L174.738 235.606L157.902 225.945L157.685 225.821L157.734 225.579C158.335 222.602 158.979 219.409 159.645 216.111L162.516 202.127C162.984 199.983 163.356 197.936 163.776 196.016C164.155 194.222 164.758 192.481 165.571 190.836C166.739 188.394 168.815 186.501 171.36 185.558C172.049 185.325 172.773 185.206 173.501 185.207C173.754 185.192 174.007 185.22 174.251 185.288C173.297 185.333 172.354 185.513 171.451 185.825C169.045 186.83 167.109 188.703 166.028 191.067C165.267 192.687 164.707 194.393 164.362 196.147C163.986 198.064 163.587 200.105 163.169 202.249C162.301 206.562 161.349 211.282 160.353 216.243C159.679 219.54 159.026 222.731 158.417 225.707L158.249 225.34L174.955 235.222L179.781 238.15C180.38 238.481 180.951 238.859 181.489 239.28V239.28Z" fill="#263238"/>
<path d="M188.344 213.606C188.46 214.845 188.422 216.093 188.232 217.323C187.624 223.293 186.081 229.131 183.658 234.625C183.215 235.788 182.631 236.892 181.919 237.914C182.25 236.722 182.671 235.557 183.179 234.429C185.312 228.886 186.834 223.128 187.718 217.257C187.834 216.026 188.044 214.806 188.344 213.606V213.606Z" fill="#263238"/>
<path d="M66.8834 435.277L66.637 456.559C66.637 456.559 44.8292 463.455 44.3994 467.383L85.8226 469.343L87.5796 436.207L66.8834 435.277Z" fill="#455A64"/>
<path d="M79.5315 455.384C79.924 455.524 80.251 455.803 80.4498 456.168C80.6487 456.533 80.7055 456.958 80.6095 457.362C80.4837 457.757 80.2104 458.09 79.8458 458.291C79.4811 458.492 79.053 458.546 78.6495 458.442C78.2334 458.294 77.8875 457.997 77.6788 457.609C77.47 457.221 77.4134 456.77 77.5197 456.343C77.6929 455.943 78.0152 455.626 78.4186 455.458C78.8221 455.29 79.2752 455.284 79.6827 455.442" fill="#E0E0E0"/>
<path d="M85.823 469.35L85.8678 466.005L46.1344 465.377C46.1344 465.377 44.2528 466.088 44.3998 467.392L85.823 469.35Z" fill="#E0E0E0"/>
<path d="M65.9753 456.326C65.9753 456.528 66.9805 456.668 67.9437 457.362C68.9237 458.031 69.3983 458.929 69.5887 458.858C69.7763 458.827 69.5327 457.603 68.3497 456.788C67.1667 455.972 65.9403 456.137 65.9753 456.326Z" fill="#263238"/>
<path d="M61.5402 457.907C61.4842 458.101 62.3438 458.484 62.9906 459.369C63.6626 460.233 63.7928 461.163 63.9944 461.165C64.1834 461.205 64.3794 460.031 63.5548 458.948C62.7302 457.865 61.5598 457.72 61.5402 457.907Z" fill="#263238"/>
<path d="M58.8308 462.969C59.0128 463.02 59.3418 462.028 58.8756 460.9C58.4094 459.772 57.484 459.289 57.3902 459.452C57.267 459.612 57.8536 460.234 58.2302 461.165C58.6068 462.096 58.6306 462.94 58.8308 462.969Z" fill="#263238"/>
<path d="M66.5729 451.48C66.6485 451.667 67.5893 451.433 68.7289 451.565C69.8713 451.673 70.7435 452.098 70.8569 451.929C70.9801 451.79 70.1471 451.004 68.8031 450.867C67.4591 450.731 66.4805 451.317 66.5729 451.48Z" fill="#263238"/>
<g opacity="0.3">
<path opacity="0.3" d="M66.8405 439.499L66.7915 443.292L87.1587 444.07L87.3477 440.66L66.8405 439.499Z" fill="black"/>
</g>
<path d="M66.7017 447.187C67.3725 447.403 68.0896 447.433 68.7765 447.275C69.5306 447.179 70.2701 446.992 70.9787 446.717C71.3989 446.554 71.8072 446.362 72.2009 446.143C72.4401 446.026 72.6593 445.872 72.8505 445.687C72.989 445.55 73.0779 445.371 73.1032 445.178C73.1285 444.985 73.0889 444.789 72.9905 444.621C72.8954 444.476 72.7677 444.355 72.6175 444.267C72.4674 444.18 72.2988 444.129 72.1253 444.117C71.8623 444.103 71.5986 444.127 71.3427 444.189C70.8947 444.275 70.4556 444.402 70.0309 444.568C69.3164 444.849 68.6508 445.241 68.0583 445.728C67.0559 446.564 66.6919 447.306 66.7591 447.347C66.8473 447.418 67.3457 446.809 68.3579 446.125C68.9487 445.727 69.5886 445.408 70.2619 445.174C70.6555 445.039 71.0596 444.935 71.4701 444.865C71.9153 444.77 72.2877 444.785 72.3913 444.985C72.4291 445.061 72.4333 445.09 72.3353 445.213C72.193 445.346 72.0322 445.459 71.8579 445.546C71.4957 445.758 71.1218 445.949 70.7379 446.119C70.0791 446.405 69.3953 446.629 68.6953 446.79C68.0222 446.875 67.356 447.008 66.7017 447.187V447.187Z" fill="#263238"/>
<path d="M66.9511 447.488C67.3735 446.919 67.599 446.228 67.5937 445.52C67.7104 444.299 67.4876 443.069 66.9497 441.965C66.8513 441.687 66.6824 441.44 66.4594 441.246C66.2364 441.052 65.967 440.919 65.6771 440.86C65.4923 440.855 65.3099 440.903 65.1514 440.997C64.9929 441.092 64.8649 441.23 64.7825 441.395C64.6646 441.631 64.5808 441.883 64.5333 442.142C64.4397 442.601 64.4171 443.071 64.4661 443.536C64.5438 444.315 64.8131 445.062 65.2501 445.712C66.0089 446.819 66.8419 447.099 66.8615 447.032C66.9343 446.935 66.2469 446.512 65.6771 445.456C65.3491 444.846 65.158 444.173 65.1171 443.483C65.0925 443.083 65.1245 442.682 65.2123 442.291C65.2977 441.856 65.4797 441.511 65.6435 441.564C65.8493 441.564 66.1839 441.916 66.3435 442.275C66.5309 442.641 66.685 443.024 66.8041 443.418C67.0032 444.094 67.1055 444.794 67.1079 445.499C67.0953 446.708 66.8433 447.453 66.9511 447.488Z" fill="#263238"/>
<path d="M151.306 281.24C151.306 281.24 86.6138 254.218 66.5798 253.061C54.0162 252.336 44.5144 260.372 46.2224 273.315C47.0778 279.79 64.9558 355.58 64.9558 355.58L92.2264 343.174L79.1294 290.776L132.271 316.508L151.306 281.24Z" fill="#263238"/>
<path d="M70.9605 277.516C70.7505 277.695 72.8995 280.444 75.1479 284.086C77.3963 287.729 78.9279 290.861 79.1771 290.755C79.4095 290.667 78.2685 287.297 75.9571 283.589C73.6457 279.88 71.1439 277.348 70.9605 277.516Z" fill="#455A64"/>
<path d="M65.664 280.526C65.524 280.764 68.7958 282.827 72.6234 285.639C76.451 288.451 79.4148 290.928 79.6024 290.727C79.7774 290.549 77.0824 287.715 73.1876 284.872C69.2928 282.03 65.783 280.307 65.664 280.526Z" fill="#455A64"/>
<path d="M201.784 297.494C201.784 297.494 193.643 307.931 185.884 310.786C176.134 314.375 104.044 348.242 104.044 348.242C104.044 348.242 90.9693 444.964 92.0039 440.928L61.8325 440.203L65.1141 351.113C65.5075 339.699 74.6887 326.603 84.5531 320.779L151.307 281.24L201.784 297.494Z" fill="#263238"/>
<path d="M64.5402 367.416C64.6237 367.014 64.665 366.606 64.6634 366.196C64.711 365.297 64.7726 364.134 64.8482 362.691C65.0108 358.403 65.409 354.127 66.041 349.882C66.9153 343.597 69.1385 337.574 72.5594 332.221C74.681 329.152 77.3024 326.456 80.3154 324.246C83.5818 321.875 87.0015 319.72 90.5522 317.796C105.07 309.512 117.603 301.068 126.865 295.279C131.485 292.351 135.235 290.021 137.843 288.432L140.842 286.59C141.204 286.394 141.544 286.16 141.858 285.893C141.47 286.031 141.098 286.208 140.746 286.421C140.034 286.799 138.984 287.354 137.655 288.111C134.985 289.605 131.173 291.854 126.51 294.709C117.148 300.359 104.552 308.713 90.0818 316.971C86.4939 318.915 83.0421 321.097 79.7498 323.505C76.6652 325.784 73.9883 328.564 71.8314 331.729C68.3764 337.2 66.173 343.361 65.3774 349.775C64.7987 354.051 64.498 358.36 64.4772 362.675C64.4772 364.12 64.4772 365.286 64.4772 366.185C64.4561 366.596 64.4772 367.008 64.5402 367.416V367.416Z" fill="#455A64"/>
<path d="M175.156 307.686C174.591 306.826 173.974 305.999 173.309 305.212C171.912 303.205 170.941 300.935 170.456 298.542C169.97 296.148 169.98 293.681 170.484 291.292C170.79 290.309 171.035 289.309 171.219 288.297C170.533 289.114 170.056 290.085 169.832 291.126C169.117 293.6 169.01 296.209 169.522 298.732C170.034 301.256 171.148 303.619 172.772 305.623C173.385 306.494 174.204 307.203 175.156 307.686V307.686Z" fill="#455A64"/>
<path d="M72.9151 440.203C72.9673 440.043 72.9989 439.876 73.0089 439.708L73.1909 438.247L73.7943 432.615C74.2857 427.647 74.9829 420.584 75.8411 411.887C76.2611 407.503 76.7175 402.709 77.2089 397.567C77.7003 392.426 78.2253 386.917 78.6299 381.118C79.0807 375.329 79.6323 369.258 80.6921 363.045C81.7168 356.631 83.5797 350.379 86.2333 344.446C89.0269 338.581 92.7231 333.185 97.1883 328.454C101.36 324.046 105.934 320.033 110.851 316.466C119.29 310.541 128.057 305.091 137.109 300.144C144.767 295.762 150.868 292.028 154.927 289.215C156.965 287.821 158.511 286.686 159.547 285.894L160.71 284.982C160.85 284.887 160.976 284.774 161.086 284.646C160.931 284.714 160.785 284.8 160.652 284.904L159.434 285.741C158.37 286.481 156.793 287.567 154.727 288.908C150.615 291.621 144.48 295.258 136.783 299.561C127.657 304.441 118.826 309.851 110.337 315.763C105.36 319.343 100.731 323.379 96.5121 327.82C91.9696 332.614 88.2124 338.09 85.3779 344.046C82.6878 350.054 80.8049 356.388 79.7779 362.886C78.7223 369.151 78.1889 375.251 77.7619 381.05C77.3796 386.853 76.8939 392.351 76.4277 397.499C75.9615 402.647 75.5596 407.438 75.176 411.824C74.4452 420.531 73.8503 427.601 73.4317 432.575C73.2511 434.971 73.1083 436.86 73.0117 438.222C72.9767 438.824 72.9487 439.308 72.9249 439.693C72.9006 439.862 72.8973 440.033 72.9151 440.203V440.203Z" fill="#455A64"/>
<path d="M143.962 127.81C142.946 125.205 141.03 123.047 138.558 121.722C136.086 120.398 133.221 119.996 130.478 120.587C129.266 121.019 128.003 121.29 126.72 121.392C125.168 121.125 123.642 120.724 122.16 120.192C120.48 119.919 118.759 120.278 117.331 121.2C115.902 122.122 114.87 123.54 114.435 125.179C113.118 124.86 111.746 124.83 110.416 125.093C109.087 125.356 107.83 125.904 106.735 126.699C105.666 127.529 104.908 128.691 104.582 130.001C104.256 131.311 104.381 132.691 104.937 133.922C105.485 134.939 106.379 135.747 106.879 136.788C107.702 138.505 107.327 140.566 107.905 142.379C108.444 143.688 109.341 144.819 110.495 145.644C111.648 146.469 113.012 146.954 114.429 147.043C117.265 147.179 120.102 146.774 122.785 145.849" fill="#263238"/>
<path d="M130.973 182.941C130.619 180.244 130.385 178.352 130.385 178.352C130.385 178.352 121.367 178.291 117.722 167.163C115.911 161.629 114.712 152.275 113.979 144.59C113.821 142.95 113.998 141.296 114.5 139.726C115.001 138.157 115.816 136.704 116.896 135.457C117.976 134.209 119.299 133.192 120.784 132.467C122.269 131.742 123.887 131.324 125.539 131.238L149.505 129.983L150.02 133.68L156.337 179.564C156.566 181.227 156.462 182.92 156.031 184.543C155.6 186.167 154.852 187.689 153.828 189.024C152.804 190.358 151.526 191.478 150.066 192.318C148.606 193.159 146.994 193.704 145.322 193.922V193.922C141.957 194.359 138.556 193.448 135.865 191.389C133.174 189.33 131.415 186.292 130.973 182.941V182.941Z" fill="#B78876"/>
<path d="M117.374 151.179C117.43 151.562 117.635 151.907 117.944 152.142C118.253 152.376 118.642 152.481 119.027 152.434C119.217 152.419 119.401 152.367 119.57 152.28C119.739 152.193 119.889 152.074 120.01 151.928C120.132 151.783 120.223 151.615 120.278 151.434C120.334 151.253 120.352 151.062 120.332 150.874C120.275 150.492 120.07 150.147 119.762 149.913C119.453 149.678 119.065 149.573 118.68 149.62C118.49 149.634 118.306 149.686 118.137 149.773C117.968 149.86 117.818 149.98 117.696 150.125C117.575 150.271 117.483 150.439 117.428 150.62C117.373 150.801 117.354 150.991 117.374 151.179Z" fill="#263238"/>
<path d="M116.779 149.112C116.992 149.274 117.976 148.275 119.558 148.03C121.136 147.761 122.426 148.388 122.566 148.17C122.638 148.071 122.397 147.751 121.833 147.473C121.073 147.108 120.219 146.986 119.387 147.125C118.563 147.252 117.802 147.637 117.213 148.224C116.786 148.67 116.677 149.041 116.779 149.112Z" fill="#263238"/>
<path d="M132.411 148.636C132.468 149.019 132.674 149.364 132.983 149.598C133.292 149.832 133.68 149.937 134.066 149.891C134.255 149.876 134.44 149.823 134.608 149.736C134.777 149.649 134.927 149.53 135.048 149.384C135.17 149.239 135.261 149.071 135.316 148.89C135.372 148.709 135.39 148.519 135.371 148.331C135.313 147.948 135.109 147.604 134.8 147.369C134.491 147.135 134.103 147.03 133.717 147.076C133.528 147.091 133.343 147.144 133.175 147.231C133.006 147.318 132.856 147.437 132.735 147.582C132.613 147.728 132.522 147.896 132.466 148.077C132.411 148.258 132.392 148.448 132.411 148.636V148.636Z" fill="#263238"/>
<path d="M132.38 146.944C132.593 147.106 133.577 146.108 135.159 145.862C136.737 145.593 138.028 146.22 138.17 146.002C138.24 145.903 138 145.583 137.434 145.305C136.674 144.941 135.819 144.82 134.987 144.959C134.164 145.086 133.403 145.471 132.814 146.057C132.387 146.501 132.277 146.871 132.38 146.944Z" fill="#263238"/>
<path d="M128.502 159.543C127.626 159.415 126.738 159.397 125.857 159.489C125.447 159.511 125.052 159.489 124.94 159.228C124.84 158.818 124.868 158.387 125.02 157.993C125.244 156.958 125.478 155.874 125.72 154.739C126.413 151.969 126.882 149.148 127.12 146.303C126.204 149.011 125.507 151.788 125.037 154.607C124.81 155.746 124.593 156.834 124.385 157.87C124.208 158.396 124.223 158.967 124.427 159.483C124.508 159.616 124.619 159.728 124.75 159.811C124.882 159.895 125.03 159.948 125.185 159.965C125.418 159.99 125.654 159.985 125.885 159.951C126.772 159.927 127.651 159.79 128.502 159.543Z" fill="#263238"/>
<path d="M130.385 178.352C135.796 177.579 140.885 175.326 145.085 171.844C145.085 171.844 142.611 180.276 130.966 181.023L130.385 178.352Z" fill="#AA6550"/>
<path d="M133.333 159.889C133.074 159.916 133.342 161.626 132.073 163.072C130.803 164.517 128.938 164.62 128.963 164.861C128.963 164.973 129.424 165.129 130.199 165.027C131.207 164.883 132.132 164.39 132.81 163.633C133.46 162.907 133.802 161.957 133.762 160.985C133.708 160.254 133.449 159.861 133.333 159.889Z" fill="#263238"/>
<path d="M130.98 140.834C131.206 141.239 132.753 140.784 134.644 140.714C136.534 140.606 138.117 140.91 138.304 140.486C138.383 140.285 138.059 139.928 137.387 139.605C136.497 139.224 135.533 139.05 134.566 139.096C133.6 139.142 132.656 139.407 131.808 139.87C131.175 140.25 130.885 140.642 130.98 140.834Z" fill="#263238"/>
<path d="M116.633 144.461C116.969 144.774 117.999 144.231 119.307 144.005C120.608 143.734 121.765 143.865 121.967 143.447C122.051 143.248 121.819 142.917 121.28 142.655C120.563 142.353 119.773 142.269 119.008 142.414C118.244 142.559 117.54 142.927 116.986 143.471C116.576 143.913 116.482 144.306 116.633 144.461Z" fill="#263238"/>
<path d="M112.789 139.586C112.789 139.586 119.131 141.713 126.416 136.866C131.197 133.686 136.989 131.697 138.43 132.553C139.87 133.409 140.81 138.61 146.064 139.5C146.064 139.5 146.988 149.537 150.943 148.674C153.761 148.061 152.113 136.991 150.933 130.679C150.701 129.452 150.057 128.339 149.106 127.524C148.156 126.709 146.955 126.239 145.701 126.193L138.319 125.915L129.103 128.475L119.22 131.157L111.705 134.262L112.789 139.586Z" fill="#263238"/>
<path d="M150.058 144.616C150.208 144.51 156.325 141.307 157.457 147.962C158.59 154.617 151.653 154.374 151.608 154.182C151.563 153.989 150.058 144.616 150.058 144.616Z" fill="#B78876"/>
<path d="M153.219 151.319C153.245 151.292 153.35 151.38 153.561 151.437C153.858 151.508 154.17 151.461 154.433 151.308C154.817 150.963 155.102 150.524 155.259 150.034C155.416 149.544 155.44 149.022 155.328 148.52C155.248 147.947 155.04 147.399 154.719 146.917C154.621 146.719 154.477 146.548 154.298 146.419C154.119 146.29 153.911 146.206 153.693 146.175C153.553 146.162 153.413 146.199 153.298 146.278C153.183 146.357 153.099 146.474 153.061 146.609C153.002 146.809 153.068 146.935 153.035 146.951C153.001 146.968 152.872 146.865 152.879 146.581C152.888 146.41 152.956 146.247 153.071 146.121C153.231 145.951 153.452 145.851 153.686 145.842C153.969 145.85 154.245 145.93 154.489 146.075C154.732 146.22 154.934 146.424 155.076 146.668C155.458 147.196 155.704 147.809 155.794 148.453C155.928 149.039 155.885 149.651 155.67 150.213C155.455 150.775 155.079 151.261 154.587 151.61C154.416 151.692 154.229 151.735 154.04 151.735C153.85 151.735 153.663 151.692 153.492 151.61C153.259 151.471 153.198 151.327 153.219 151.319Z" fill="#AA6550"/>
<path d="M116 122.733C116.057 122.707 116.231 123.085 116.7 123.627C117.383 124.376 118.252 124.931 119.22 125.238C120.657 125.702 122.194 125.77 123.666 125.434C125.5 124.993 127.3 124.423 129.052 123.729C130.873 123.016 132.817 122.671 134.773 122.714C136.42 122.772 137.979 123.473 139.113 124.666C139.892 125.447 140.365 126.48 140.448 127.578C140.502 127.974 140.432 128.378 140.248 128.733C140.181 128.722 140.272 128.315 140.165 127.607C139.986 126.615 139.487 125.709 138.744 125.025C137.664 123.991 136.229 123.406 134.731 123.389C132.867 123.391 131.021 123.741 129.287 124.422C127.501 125.127 125.66 125.687 123.783 126.094C122.197 126.42 120.552 126.292 119.037 125.724C118.009 125.35 117.115 124.682 116.468 123.804C116.214 123.498 116.052 123.127 116 122.733V122.733Z" fill="#455A64"/>
<path d="M138.553 129.099C138.501 129.142 138.213 128.746 137.52 128.262C136.519 127.617 135.352 127.274 134.16 127.272C132.383 127.263 130.632 127.689 129.059 128.512C127.097 129.58 125.069 130.524 122.988 131.339C121.01 131.949 118.928 132.148 116.87 131.924C114.812 131.7 112.823 131.057 111.025 130.035C109.943 129.428 108.953 128.67 108.085 127.785C107.747 127.481 107.463 127.122 107.245 126.725C108.49 127.811 109.842 128.77 111.281 129.585C114.822 131.429 118.95 131.811 122.772 130.649C124.826 129.84 126.835 128.924 128.792 127.904C130.466 127.068 132.328 126.673 134.199 126.759C135.471 126.809 136.695 127.256 137.699 128.036C138.076 128.306 138.371 128.673 138.553 129.099V129.099Z" fill="#455A64"/>
<path d="M117.82 242.378L85.3077 214.785L74.5879 217.2C74.5879 217.2 85.8845 240.585 94.0619 249.157C94.0619 249.157 102.143 259.928 115.465 255.272C128.787 250.617 117.82 242.378 117.82 242.378Z" fill="#B78876"/>
<path d="M82.8535 184.404H69.0355C68.5137 184.43 68.0044 184.572 67.5448 184.819C67.0853 185.067 66.6872 185.413 66.3798 185.834C66.0723 186.255 65.8633 186.738 65.7681 187.25C65.6729 187.761 65.6939 188.287 65.8295 188.79L79.7259 215.74C79.9905 216.252 80.3918 216.682 80.8858 216.982C81.3798 217.282 81.9473 217.441 82.5259 217.441L99.3721 217.406C99.7663 217.361 100.143 217.22 100.47 216.996C100.796 216.771 101.062 216.47 101.243 216.118C101.425 215.767 101.517 215.377 101.51 214.982C101.504 214.587 101.4 214.199 101.207 213.854L87.7997 187.47C87.3459 186.549 86.6418 185.774 85.7674 185.232C84.893 184.69 83.8834 184.403 82.8535 184.404V184.404Z" fill="#455A64"/>
<path d="M81.9198 186.03H68.1018C67.706 186.029 67.3168 186.13 66.9713 186.322C66.6257 186.514 66.3355 186.791 66.1284 187.127C65.9213 187.463 65.8043 187.846 65.7885 188.239C65.7727 188.633 65.8586 189.024 66.0382 189.375L79.6 215.74C79.8646 216.252 80.2659 216.682 80.7599 216.982C81.2539 217.282 81.8213 217.441 82.4 217.441H99.06C99.2923 217.441 99.5209 217.382 99.7238 217.269C99.9267 217.157 100.097 216.994 100.219 216.797C100.341 216.6 100.411 216.375 100.421 216.144C100.431 215.913 100.381 215.683 100.277 215.477L86.866 189.097C86.412 188.176 85.7078 187.401 84.8335 186.859C83.9592 186.316 82.9497 186.029 81.9198 186.03V186.03Z" fill="#263238"/>
<path d="M80.7477 197.064L72.3393 200.41L70.5361 207.157L74.5877 217.201L89.4473 219.346L85.0947 214.917L85.6547 211.062C85.6547 211.062 89.8001 209.767 89.9023 209.135C90.0045 208.504 89.3885 206.385 88.7529 206.283C87.0529 206.65 85.386 207.155 83.7689 207.793C83.7689 207.793 88.9153 203.736 88.7711 203.085C88.6269 202.434 88.0711 200.767 87.0477 200.576C86.0243 200.385 77.7167 204.288 77.7167 204.288L76.3671 207.355L75.1911 202.459C75.1911 202.459 82.5719 200.404 80.7477 197.064Z" fill="#B78876"/>
<path d="M81.806 212.882C81.7556 212.897 81.5988 212.592 81.526 212.046C81.4408 211.331 81.5272 210.607 81.7781 209.932C82.0291 209.257 82.4374 208.652 82.9694 208.165C83.3894 207.802 83.703 207.671 83.731 207.716C83.0462 208.38 82.5186 209.187 82.1865 210.079C81.8545 210.971 81.7264 211.926 81.8116 212.874L81.806 212.882Z" fill="#AA6550"/>
<path d="M77.8091 211.421C77.9648 210.697 78.0761 209.964 78.1423 209.227C78.1764 208.402 78.3176 207.586 78.5623 206.797C78.7253 206.315 78.9897 205.873 79.3379 205.501C79.7286 205.119 80.1969 204.825 80.7113 204.639C82.7217 203.913 84.5319 203.326 85.8577 202.899C86.5611 202.632 87.2887 202.433 88.0305 202.304C87.3707 202.665 86.6772 202.961 85.9599 203.188C84.6691 203.686 82.8463 204.328 80.8737 205.041C80.4154 205.205 79.996 205.462 79.6417 205.795C79.3327 206.123 79.0945 206.511 78.9417 206.935C78.6904 207.69 78.5251 208.47 78.4489 209.262C78.4234 210.024 78.2032 210.767 77.8091 211.421V211.421Z" fill="#AA6550"/>
<path d="M75.8799 209.907C75.7623 209.888 75.7861 209.149 75.9331 208.257C76.0801 207.365 76.2971 206.657 76.4161 206.676C76.5351 206.696 76.5099 207.435 76.3615 208.328C76.2131 209.222 75.9989 209.927 75.8799 209.907Z" fill="#AA6550"/>
<path d="M75.6548 191.112C75.6551 191.459 75.7585 191.797 75.952 192.085C76.1456 192.373 76.4205 192.598 76.7421 192.73C77.0637 192.862 77.4175 192.897 77.7588 192.829C78.1 192.761 78.4135 192.594 78.6594 192.349C78.9054 192.104 79.0729 191.792 79.1407 191.452C79.2085 191.112 79.1735 190.76 79.0403 190.44C78.9071 190.12 78.6815 189.846 78.3921 189.654C78.1028 189.461 77.7626 189.358 77.4146 189.358C77.1834 189.358 76.9544 189.404 76.7408 189.492C76.5272 189.58 76.3332 189.709 76.1697 189.872C76.0063 190.035 75.8767 190.228 75.7883 190.441C75.7 190.654 75.6546 190.882 75.6548 191.112V191.112Z" fill="#FAFAFA"/>
<path d="M27.2397 456.827C29.4335 457.504 31.4675 458.615 33.2197 460.094C34.972 461.572 36.4065 463.388 37.4373 465.432C39.4752 469.539 40.5417 474.056 40.5551 478.637C40.8351 487.46 37.1629 496.939 32.8439 504.646C24.5713 499.332 21.2561 488.45 19.9233 482.825C17.8149 473.932 19.4291 456.588 27.2397 456.827" fill="#15B2BC"/>
<path d="M43.4688 517.735C42.6049 515.327 42.3959 512.734 42.8631 510.22C43.3302 507.705 44.4569 505.359 46.1288 503.418C47.8338 501.509 49.9031 499.957 52.2163 498.853C54.5294 497.748 57.0402 497.113 59.6024 496.983C61.9628 496.822 64.5864 497.134 66.202 498.856C66.9098 499.707 67.3761 500.731 67.5529 501.822C67.7296 502.913 67.6103 504.031 67.2072 505.06C66.3702 507.113 65.0034 508.908 63.2452 510.265C57.4674 515.161 50.9714 518.841 43.466 517.735" fill="#15B2BC"/>
<path d="M37.946 545.711C37.8924 545.108 37.8924 544.502 37.946 543.899C37.9936 542.612 38.0551 540.949 38.1293 538.951C38.1648 533.462 39.0924 528.014 40.8761 522.82C42.7578 517.62 45.9952 513.011 50.2561 509.468C51.5577 508.422 52.9788 507.533 54.4897 506.82C54.9001 506.624 55.3207 506.451 55.7497 506.301C55.8927 506.229 56.0471 506.182 56.2061 506.162C54.2014 507.185 52.3059 508.408 50.5487 509.811C46.4541 513.389 43.3344 517.94 41.4795 523.04C39.7305 528.175 38.7562 533.54 38.5886 538.96C38.4388 541.044 38.317 542.733 38.2008 543.899C38.1747 544.509 38.0894 545.116 37.946 545.711V545.711Z" fill="#263238"/>
<path d="M27.1826 470.144C27.2773 470.391 27.3454 470.647 27.3856 470.909L27.8462 473.127C28.234 475.055 28.7604 477.851 29.3862 481.312C30.6294 488.234 32.2114 497.82 33.7192 508.444C35.227 519.067 36.368 528.721 37.0974 535.714C37.4628 539.212 37.7344 542.043 37.8968 544.003C37.9682 544.929 38.0256 545.676 38.0718 546.26C38.1061 546.523 38.1117 546.788 38.0886 547.052C38.0139 546.798 37.967 546.538 37.9486 546.274C37.8716 545.694 37.775 544.95 37.6546 544.028C37.4082 541.999 37.068 539.195 36.6508 535.766C35.8108 528.788 34.5914 519.154 33.0878 508.533C31.5842 497.912 30.0722 488.32 28.9438 481.388L27.611 473.17L27.2694 470.931C27.2113 470.673 27.1822 470.408 27.1826 470.144V470.144Z" fill="#263238"/>
<path d="M31.5421 524.859C29.8874 519.728 27.0284 515.063 23.2021 511.251C19.3758 507.439 14.6923 504.589 9.53968 502.939C6.91608 502.125 3.60088 501.824 1.85088 503.933C0.100876 506.042 1.02628 509.245 2.38428 511.629C5.30603 516.557 9.62751 520.513 14.804 522.999C19.9804 525.485 25.7802 526.389 31.4721 525.598" fill="#15B2BC"/>
<path d="M11.9323 510.999C12.498 511.094 13.0528 511.245 13.5885 511.449C14.2341 511.637 14.8676 511.864 15.4855 512.128C16.2051 512.442 17.0605 512.728 17.9299 513.203C18.9056 513.668 19.8552 514.185 20.7747 514.752C21.8418 515.385 22.8729 516.077 23.8631 516.825C26.1326 518.547 28.1991 520.52 30.0231 522.706C31.8093 524.921 33.3324 527.335 34.5619 529.899C35.0903 531.019 35.5526 532.169 35.9465 533.343C36.3084 534.359 36.6099 535.395 36.8495 536.447C37.065 537.308 37.2341 538.18 37.3563 539.059C37.4776 539.718 37.5548 540.384 37.5873 541.054C37.6635 541.62 37.6827 542.192 37.6447 542.761C37.5047 542.777 37.3983 540.333 36.4099 536.557C36.1429 535.528 35.8209 534.515 35.4453 533.521C35.0342 532.373 34.5613 531.249 34.0285 530.153C32.7894 527.649 31.2797 525.288 29.5261 523.11C27.7334 520.963 25.7153 519.013 23.5061 517.293C22.5407 516.544 21.5364 515.846 20.4975 515.202C19.5427 514.558 18.5879 514.073 17.7283 513.604C14.2423 511.808 11.8861 511.13 11.9323 510.999Z" fill="#263238"/>
</svg>
