<svg xmlns="http://www.w3.org/2000/svg" width="436.248" height="415.046"><g transform="translate(-31.876 -50.232)"><path d="M387.457 83.972c0-3.6 1.89-5.753 4.508-5.753s4.525 2.149 4.525 5.753-1.906 5.752-4.525 5.752-4.508-2.149-4.508-5.752zm7.838 0c0-3.022-1.358-4.687-3.33-4.687s-3.329 1.665-3.329 4.687 1.358 4.686 3.329 4.686 3.335-1.664 3.335-4.686zM398.149 83.972c0-3.6 1.891-5.753 4.509-5.753s4.524 2.149 4.524 5.753-1.906 5.752-4.524 5.752-4.509-2.149-4.509-5.752zm7.838 0c0-3.022-1.358-4.687-3.329-4.687s-3.329 1.665-3.329 4.687 1.357 4.686 3.329 4.686 3.329-1.664 3.329-4.686zM411.945 78.316v11.311h-1.164V79.35h-2.666v-1.034zM414.64 83.972c0-3.6 1.891-5.753 4.509-5.753s4.524 2.149 4.524 5.753-1.906 5.752-4.524 5.752-4.509-2.149-4.509-5.752zm7.838 0c0-3.022-1.357-4.687-3.329-4.687s-3.329 1.665-3.329 4.687 1.357 4.686 3.329 4.686 3.329-1.664 3.329-4.686zM428.436 78.316v11.311h-1.164V79.35h-2.666v-1.034zM376.325 100.017c0-3.6 1.89-5.752 4.509-5.752s4.524 2.149 4.524 5.752-1.906 5.753-4.524 5.753-4.509-2.149-4.509-5.753zm7.838 0c0-3.021-1.358-4.686-3.329-4.686S377.5 97 377.5 100.017s1.358 4.686 3.33 4.686 3.333-1.664 3.333-4.686zM387.017 100.017c0-3.6 1.891-5.752 4.509-5.752s4.524 2.149 4.524 5.752-1.906 5.753-4.524 5.753-4.509-2.149-4.509-5.753zm7.838 0c0-3.021-1.357-4.686-3.329-4.686S388.2 97 388.2 100.017s1.357 4.686 3.329 4.686 3.326-1.664 3.326-4.686zM400.813 94.362v11.311h-1.164V95.4h-2.666v-1.038zM403.508 100.017c0-3.6 1.891-5.752 4.509-5.752s4.525 2.149 4.525 5.752-1.907 5.753-4.525 5.753-4.509-2.149-4.509-5.753zm7.838 0c0-3.021-1.357-4.686-3.329-4.686s-3.329 1.665-3.329 4.686 1.357 4.686 3.329 4.686 3.329-1.664 3.329-4.686zM417.3 94.362v11.311h-1.16V95.4h-2.666v-1.038zM423.135 94.362v11.311h-1.164V95.4H419.3v-1.038zM425.83 100.017c0-3.6 1.89-5.752 4.508-5.752s4.525 2.149 4.525 5.752-1.906 5.753-4.525 5.753-4.508-2.149-4.508-5.753zm7.838 0c0-3.021-1.358-4.686-3.33-4.686s-3.329 1.665-3.329 4.686 1.358 4.686 3.329 4.686 3.33-1.664 3.33-4.686zM439.627 94.362v11.311h-1.165V95.4H435.8v-1.038zM387.459 115.535c0-3.6 1.89-5.752 4.508-5.752s4.525 2.149 4.525 5.752-1.906 5.753-4.525 5.753-4.508-2.149-4.508-5.753zm7.837 0c0-3.021-1.357-4.686-3.329-4.686s-3.329 1.665-3.329 4.686 1.358 4.686 3.329 4.686 3.333-1.664 3.333-4.686zM401.254 109.879v11.312h-1.164v-10.278h-2.666v-1.034zM407.086 109.879v11.312h-1.165v-10.278h-2.666v-1.034zM412.917 109.879v11.312h-1.164v-10.278h-2.666v-1.034zM415.611 115.535c0-3.6 1.891-5.752 4.509-5.752s4.524 2.149 4.524 5.752-1.906 5.753-4.524 5.753-4.509-2.149-4.509-5.753zm7.838 0c0-3.021-1.358-4.686-3.329-4.686s-3.329 1.665-3.329 4.686 1.357 4.686 3.329 4.686 3.329-1.664 3.329-4.686zM429.407 109.879v11.312h-1.164v-10.278h-2.666v-1.034zM132.561 203.719c0 .091-12.882.164-28.77.164s-28.772-.073-28.772-.164 12.88-.164 28.772-.164 28.77.073 28.77.164zM132.561 208.819c0 .09-12.882.164-28.77.164s-28.772-.074-28.772-.164 12.88-.164 28.772-.164 28.77.073 28.77.164zM112.061 213.919a1.682 1.682 0 01-.376.033l-1.079.03-3.97.053-13.1.048-13.1-.048-3.969-.053-1.079-.03a1.7 1.7 0 01-.377-.033 1.577 1.577 0 01.377-.034l1.079-.03 3.969-.053 13.1-.048 13.1.048 3.97.053 1.079.03a1.563 1.563 0 01.376.034zM137.9 227.212c0-.133.414-.24.924-.24s.924.107.924.24-.414.241-.924.241-.924-.108-.924-.241zM134.2 227.212c0-.133.414-.24.924-.24s.924.107.924.24-.414.241-.924.241-.924-.108-.924-.241zM130.5 227.212c0-.133.414-.24.924-.24s.924.107.924.24-.414.241-.924.241-.924-.108-.924-.241zM126.808 227.212c0-.133.414-.24.924-.24s.924.107.924.24-.413.241-.924.241-.924-.108-.924-.241zM123.112 227.212c0-.133.414-.24.924-.24s.924.107.924.24-.413.241-.924.241-.924-.108-.924-.241zM119.417 227.212c0-.133.413-.24.924-.24s.924.107.924.24-.414.241-.924.241-.924-.108-.924-.241zM115.721 227.212c0-.133.413-.24.924-.24s.924.107.924.24-.414.241-.924.241-.924-.108-.924-.241zM112.025 227.212c0-.133.414-.24.924-.24s.924.107.924.24-.414.241-.924.241-.924-.108-.924-.241zM108.329 227.212c0-.133.414-.24.924-.24s.924.107.924.24-.414.241-.924.241-.924-.108-.924-.241zM104.633 227.212c0-.133.414-.24.924-.24s.924.107.924.24-.413.241-.924.241-.924-.108-.924-.241zM100.937 227.212c0-.133.414-.24.924-.24s.924.107.924.24-.413.241-.924.241-.924-.108-.924-.241zM97.242 227.212c0-.133.413-.24.923-.24s.924.107.924.24-.413.241-.924.241-.923-.108-.923-.241zM93.546 227.212c0-.133.413-.24.924-.24s.924.107.924.24-.414.241-.924.241-.924-.108-.924-.241zM89.85 227.212c0-.133.414-.24.924-.24s.924.107.924.24-.414.241-.924.241-.924-.108-.924-.241zM86.154 227.212c0-.133.414-.24.924-.24s.924.107.924.24-.414.241-.924.241-.924-.108-.924-.241zM82.458 227.212c0-.133.414-.24.924-.24s.924.107.924.24-.414.241-.924.241-.924-.108-.924-.241zM78.762 227.212c0-.133.414-.24.924-.24s.924.107.924.24-.413.241-.924.241-.924-.108-.924-.241zM75.066 227.212c0-.133.414-.24.924-.24s.924.107.924.24-.413.241-.924.241-.924-.108-.924-.241zM71.371 227.212c0-.133.413-.24.923-.24s.925.107.925.24-.414.241-.925.241-.923-.108-.923-.241zM67.675 227.212c0-.133.413-.24.924-.24s.924.107.924.24-.414.241-.924.241-.924-.108-.924-.241zM63.979 227.212c0-.133.414-.24.924-.24s.924.107.924.24-.414.241-.924.241-.924-.108-.924-.241zM60.283 227.212c0-.133.414-.24.924-.24s.924.107.924.24-.414.241-.924.241-.924-.108-.924-.241zM56.587 227.212c0-.133.414-.24.924-.24s.924.107.924.24-.414.241-.924.241-.924-.108-.924-.241zM52.891 227.212c0-.133.414-.24.924-.24s.924.107.924.24-.413.241-.924.241-.924-.108-.924-.241zM49.2 227.212c0-.133.413-.24.923-.24s.924.107.924.24-.413.241-.924.241-.923-.108-.923-.241zM45.5 227.212c0-.133.413-.24.924-.24s.924.107.924.24-.414.241-.924.241-.924-.108-.924-.241zM41.8 227.212c0-.133.413-.24.924-.24s.924.107.924.24-.414.241-.924.241-.924-.108-.924-.241zM38.108 227.212c0-.133.414-.24.924-.24s.924.107.924.24-.414.241-.924.241-.924-.108-.924-.241zM36.1 225.528c.133 0 .241.414.241.924a2.342 2.342 0 01-.1.76l-.137-.136c.1.038.164.085.164.136s-.06.1-.164.137l-.074.028-.063-.165a2.374 2.374 0 01-.1-.76c-.011-.51.096-.924.233-.924zM36.1 221.832c.133 0 .241.414.241.924s-.108.924-.241.924-.24-.413-.24-.924.103-.924.24-.924zM36.1 218.137c.133 0 .241.413.241.923s-.108.924-.241.924-.24-.413-.24-.924.103-.923.24-.923zM36.1 214.441c.133 0 .241.413.241.924s-.108.924-.241.924-.24-.414-.24-.924.103-.924.24-.924zM36.1 210.745c.133 0 .241.414.241.924s-.108.924-.241.924-.24-.414-.24-.924.103-.924.24-.924zM36.1 207.049c.133 0 .241.414.241.924s-.108.924-.241.924-.24-.414-.24-.924.103-.924.24-.924zM36.1 203.353c.133 0 .241.414.241.924s-.108.924-.241.924-.24-.414-.24-.924.103-.924.24-.924zM36.1 199.657c.133 0 .241.414.241.924s-.108.924-.241.924-.24-.413-.24-.924.103-.924.24-.924zM36.1 195.961c.133 0 .241.414.241.924s-.108.924-.241.924-.24-.413-.24-.924.103-.924.24-.924zM36.1 192.266c.133 0 .241.413.241.924s-.108.924-.241.924-.24-.414-.24-.924.103-.924.24-.924zM36.1 188.57c.133 0 .241.413.241.924s-.108.924-.241.924-.24-.414-.24-.924.103-.924.24-.924zM36.9 185.679c0 .122-.35.223-.805.238l.239-.238v.119c0 .51-.108.924-.241.924s-.24-.414-.24-.924v-.366l.234.008c.464.016.813.117.813.239zM40.6 185.679c0 .133-.414.24-.924.24s-.924-.107-.924-.24.414-.241.924-.241.924.108.924.241zM44.293 185.679c0 .133-.414.24-.924.24s-.924-.107-.924-.24.413-.241.924-.241.924.108.924.241zM47.988 185.679c0 .133-.413.24-.923.24s-.924-.107-.924-.24.413-.241.924-.241.923.108.923.241zM51.684 185.679c0 .133-.413.24-.924.24s-.924-.107-.924-.24.414-.241.924-.241.924.108.924.241zM55.38 185.679c0 .133-.413.24-.924.24s-.924-.107-.924-.24.414-.241.924-.241.924.108.924.241zM59.076 185.679c0 .133-.414.24-.924.24s-.924-.107-.924-.24.414-.241.924-.241.924.108.924.241zM62.772 185.679c0 .133-.414.24-.924.24s-.924-.107-.924-.24.414-.241.924-.241.924.108.924.241zM66.468 185.679c0 .133-.414.24-.924.24s-.924-.107-.924-.24.413-.241.924-.241.924.108.924.241zM70.164 185.679c0 .133-.414.24-.924.24s-.924-.107-.924-.24.413-.241.924-.241.924.108.924.241zM73.859 185.679c0 .133-.413.24-.923.24s-.925-.107-.925-.24.414-.241.925-.241.923.108.923.241zM77.555 185.679c0 .133-.413.24-.924.24s-.924-.107-.924-.24.414-.241.924-.241.924.108.924.241zM81.251 185.679c0 .133-.414.24-.924.24s-.924-.107-.924-.24.414-.241.924-.241.924.108.924.241zM84.947 185.679c0 .133-.414.24-.924.24s-.924-.107-.924-.24.414-.241.924-.241.924.108.924.241zM88.643 185.679c0 .133-.414.24-.924.24s-.924-.107-.924-.24.414-.241.924-.241.924.108.924.241zM92.339 185.679c0 .133-.414.24-.924.24s-.924-.107-.924-.24.413-.241.924-.241.924.108.924.241zM96.034 185.679c0 .133-.413.24-.923.24s-.924-.107-.924-.24.413-.241.924-.241.923.108.923.241zM99.73 185.679c0 .133-.413.24-.924.24s-.924-.107-.924-.24.414-.241.924-.241.924.108.924.241zM103.426 185.679c0 .133-.413.24-.924.24s-.924-.107-.924-.24.414-.241.924-.241.924.108.924.241zM107.122 185.679c0 .133-.414.24-.924.24s-.924-.107-.924-.24.414-.241.924-.241.924.108.924.241zM110.818 185.679c0 .133-.414.24-.924.24s-.924-.107-.924-.24.414-.241.924-.241.924.108.924.241zM114.514 185.679c0 .133-.414.24-.924.24s-.924-.107-.924-.24.413-.241.924-.241.924.108.924.241zM118.21 185.679c0 .133-.414.24-.924.24s-.924-.107-.924-.24.413-.241.924-.241.924.108.924.241zM121.9 185.679c0 .133-.413.24-.923.24s-.924-.107-.924-.24.413-.241.924-.241.923.108.923.241zM125.6 185.679c0 .133-.413.24-.924.24s-.924-.107-.924-.24.414-.241.924-.241.924.108.924.241zM129.3 185.679c0 .133-.414.24-.924.24s-.924-.107-.924-.24.414-.241.924-.241.924.108.924.241zM132.993 185.679c0 .133-.414.24-.924.24s-.924-.107-.924-.24.414-.241.924-.241.924.108.924.241zM136.689 185.679c0 .133-.414.24-.924.24s-.924-.107-.924-.24.414-.241.924-.241.924.108.924.241zM139.744 186.32c-.107 0-.2-.269-.229-.641l.229.229a3.6 3.6 0 01-.283.011c-.511 0-.924-.107-.924-.24s.413-.241.924-.241c.1 0 .2 0 .283.012l.246.021-.017.208c-.032.372-.122.641-.229.641zM139.744 190.015c-.133 0-.241-.413-.241-.923s.108-.924.241-.924.24.413.24.924-.107.923-.24.923zM139.744 193.711c-.133 0-.241-.413-.241-.924s.108-.924.241-.924.24.414.24.924-.107.924-.24.924zM139.744 197.407c-.133 0-.241-.414-.241-.924s.108-.924.241-.924.24.414.24.924-.107.924-.24.924zM139.744 201.1c-.133 0-.241-.414-.241-.924s.108-.924.241-.924.24.414.24.924-.107.924-.24.924zM139.744 204.8c-.133 0-.241-.414-.241-.924s.108-.924.241-.924.24.414.24.924-.107.924-.24.924zM139.744 208.495c-.133 0-.241-.414-.241-.924s.108-.924.241-.924.24.413.24.924-.107.924-.24.924zM139.744 212.191c-.133 0-.241-.414-.241-.924s.108-.924.241-.924.24.413.24.924-.107.924-.24.924zM139.744 215.886c-.133 0-.241-.413-.241-.923s.108-.925.241-.925.24.414.24.925-.107.923-.24.923zM139.744 219.582c-.133 0-.241-.413-.241-.924s.108-.924.241-.924.24.414.24.924-.107.924-.24.924zM139.744 223.278c-.133 0-.241-.414-.241-.924s.108-.924.241-.924.24.414.24.924-.107.924-.24.924zM139.744 226.974c-.133 0-.241-.414-.241-.924s.108-.924.241-.924.24.414.24.924-.107.924-.24.924zM70.356 219.909c0-.133.413-.241.924-.241-.481.481-.134.133-.241.24v-.184l.014-.173a2.195 2.195 0 01.051-.294c.044-.167.1-.27.171-.27s.126.1.17.27a2.195 2.195 0 01.051.294l.014.173v.184l-.24.241c-.501 0-.914-.108-.914-.24zM66.9 219.909c0-.133.386-.241.862-.241s.863.108.863.241-.386.24-.863.24-.862-.108-.862-.24zM63.453 219.909c0-.133.387-.241.863-.241s.863.108.863.241-.386.24-.863.24-.863-.108-.863-.24zM60 219.909c0-.133.387-.241.863-.241s.863.108.863.241-.386.24-.863.24-.863-.108-.863-.24zM56.551 219.909c0-.133.387-.241.863-.241s.863.108.863.241-.386.24-.863.24-.863-.108-.863-.24zM53.1 219.909c0-.133.387-.241.863-.241s.863.108.863.241-.386.24-.863.24-.863-.108-.863-.24zM49.649 219.909c0-.133.387-.241.863-.241s.863.108.863.241-.386.24-.863.24-.863-.108-.863-.24zM46.2 219.909c0-.133.387-.241.863-.241s.863.108.863.241-.387.24-.863.24-.863-.108-.863-.24zM43.549 218.985c.133 0 .24.413.24.923l-.24-.24h.186l.173.014a2.195 2.195 0 01.294.051c.167.044.271.1.271.171s-.1.126-.271.17a2.195 2.195 0 01-.294.051l-.173.014h-.186l-.241-.241c0-.498.108-.913.241-.913zM43.549 215.265c.133 0 .24.416.24.93s-.107.93-.24.93-.241-.417-.241-.93.108-.93.241-.93zM43.549 211.545c.133 0 .24.416.24.93s-.107.93-.24.93-.241-.416-.241-.93.108-.93.241-.93zM43.549 207.825c.133 0 .24.417.24.93s-.107.93-.24.93-.241-.416-.241-.93.108-.93.241-.93zM43.549 204.1c.133 0 .24.417.24.93s-.107.93-.24.93-.241-.416-.241-.93.108-.93.241-.93zM43.549 200.386c.133 0 .24.416.24.929s-.107.93-.24.93-.241-.416-.241-.93.108-.929.241-.929zM43.549 196.666c.133 0 .24.416.24.93s-.107.93-.24.93-.241-.417-.241-.93.108-.93.241-.93zM44.473 193.882c0 .133-.414.24-.924.24l.24-.24v.185l-.014.173a2.022 2.022 0 01-.051.294c-.044.167-.1.271-.17.271s-.127-.1-.17-.271a2.012 2.012 0 01-.052-.294l-.014-.173v-.185l.241-.241c.5 0 .914.108.914.241zM47.924 193.882c0 .133-.387.24-.863.24s-.863-.107-.863-.24.386-.241.863-.241.863.108.863.241zM51.375 193.882c0 .133-.387.24-.863.24s-.863-.107-.863-.24.387-.241.863-.241.863.108.863.241zM54.826 193.882c0 .133-.386.24-.863.24s-.863-.107-.863-.24.387-.241.863-.241.863.108.863.241zM58.277 193.882c0 .133-.386.24-.863.24s-.863-.107-.863-.24.387-.241.863-.241.863.108.863.241zM61.728 193.882c0 .133-.386.24-.863.24s-.863-.107-.863-.24.387-.241.863-.241.863.108.863.241zM65.179 193.882c0 .133-.386.24-.863.24s-.863-.107-.863-.24.387-.241.863-.241.863.108.863.241zM68.63 193.882c0 .133-.386.24-.863.24s-.862-.107-.862-.24.386-.241.862-.241.863.108.863.241zM71.28 194.806c-.133 0-.241-.414-.241-.924l.24.24h-.186l-.173-.014a2.184 2.184 0 01-.294-.052c-.167-.044-.27-.1-.27-.17s.1-.127.27-.17a2.036 2.036 0 01.294-.052l.173-.014h.186l.241.241c0 .501-.108.915-.24.915zM71.28 198.526c-.133 0-.241-.417-.241-.93s.108-.93.241-.93.24.416.24.93-.108.93-.24.93zM71.28 202.245c-.133 0-.241-.416-.241-.929s.108-.93.241-.93.24.416.24.93-.108.929-.24.929zM71.28 205.965c-.133 0-.241-.416-.241-.93s.108-.93.241-.93.24.417.24.93-.108.93-.24.93zM71.28 209.685c-.133 0-.241-.416-.241-.93s.108-.93.241-.93.24.416.24.93-.108.93-.24.93zM71.28 213.4c-.133 0-.241-.417-.241-.93s.108-.93.241-.93.24.416.24.93-.108.93-.24.93zM71.28 217.125c-.133 0-.241-.417-.241-.93s.108-.93.241-.93.24.416.24.93-.108.93-.24.93z" fill="#e0e0e0"/><path fill="#e0e0e0" d="M42.887 219.247h1.323v1.323h-1.323zM42.887 193.22h1.323v1.323h-1.323zM70.618 193.22h1.323v1.323h-1.323zM70.618 218.586h1.323v1.322h-1.323zM56.092 219.247h1.323v1.323h-1.323zM56.753 193.22h1.323v1.323h-1.323zM42.887 206.895h1.323v1.323h-1.323zM69.957 206.234h1.323v1.323h-1.323zM210.992 101.367s-.013-.329-.019-.948-.012-1.542-.021-2.726l-.047-10.327-.093-36.916.18.181-62.484.037.217-.218-.024 50.917-.193-.194 45.123.1 12.789.052 3.4.023.878.011c.2 0 .3.011.3.011s-.091.008-.282.012l-.856.011-3.357.023-12.746.051-45.248.1h-.194v-.195l-.023-50.917v-.218h.222l62.484.036h.182v.182l-.093 37.03-.047 10.286-.02 2.692c-.014.602-.028.904-.028.904z"/><path d="M211.482 58.005c0 .12-14.106.218-31.5.218s-31.5-.1-31.5-.218 14.1-.218 31.5-.218 31.5.097 31.5.218zM153.6 54.289a.841.841 0 11-.841-.845.842.842 0 01.841.845zM156.669 54.289a.841.841 0 11-.841-.845.842.842 0 01.841.845zM159.736 54.289a.842.842 0 11-.841-.845.843.843 0 01.841.845zM171.145 77.191c0 2.707-1.961 4.343-5.2 4.343h-3.416v4.014h-1.339V72.831h4.76c3.234 0 5.195 1.635 5.195 4.36zm-1.344 0c0-2.035-1.344-3.2-3.888-3.2h-3.379v6.358h3.379c2.544.003 3.887-1.159 3.887-3.158zM184.676 72.831v12.717h-1.327V79.68h-7.958v5.868h-1.344V72.831h1.344V78.5h7.958v-5.669zM198.768 77.191c0 2.707-1.962 4.343-5.2 4.343h-3.416v4.014h-1.345V72.831h4.761c3.238 0 5.2 1.635 5.2 4.36zm-1.344 0c0-2.035-1.344-3.2-3.888-3.2h-3.379v6.358h3.379c2.544.003 3.888-1.159 3.888-3.158z" fill="#e0e0e0"/><path fill="#ebebeb" d="M247.804 285.11h63.557v51.005h-63.557z"/><path d="M311.922 292.678c0 .174-8.157.315-28.076.315s-36.073-.141-36.073-.315 16.147-.314 36.073-.314 28.076.136 28.076.314z" fill="#fafafa"/><path d="M253.643 288.956a.971.971 0 11-.963-.846.91.91 0 01.963.846zM257.155 288.956a.972.972 0 11-.963-.846.91.91 0 01.963.846zM260.667 288.956a.972.972 0 11-.964-.846.911.911 0 01.964.846zM288.657 321.5a4.153 4.153 0 01.633-.718l1.834-1.843a516.994 516.994 0 016.163-5.965l.055-.053v.312a475.188 475.188 0 01-6.2-5.848l-1.845-1.806a4.087 4.087 0 01-.637-.7 4.065 4.065 0 01.749.583l1.937 1.706a527.39 527.39 0 016.291 5.756l.166.155-.164.157-.056.053a516.497 516.497 0 01-6.249 5.874L289.4 320.9a4.091 4.091 0 01-.743.6zM269.81 304.875a4.154 4.154 0 01-.633.718l-1.834 1.844a517.975 517.975 0 01-6.163 5.964l-.056.053v-.312a475.565 475.565 0 016.2 5.848l1.846 1.807a4.114 4.114 0 01.637.7 4.024 4.024 0 01-.749-.583l-1.937-1.706a510.807 510.807 0 01-6.291-5.756l-.166-.155.164-.157.055-.053a514.847 514.847 0 016.249-5.873l1.928-1.745a4.191 4.191 0 01.75-.594zM274.647 325.417c-.11-.041 1.869-5.6 4.418-12.418s4.707-12.312 4.817-12.27-1.867 5.6-4.418 12.42-4.706 12.31-4.817 12.268z" fill="#fff"/><path d="M109.906 395.492a19.583 19.583 0 0112.15-1.477c2.2.364 4.5 1.024 6 2.679s1.784 4.57.062 5.993a5.756 5.756 0 01-3.784.96c-3.212-.038-6.776-.6-9.342 1.329-1.464 1.1-2.438 2.936-4.189 3.478a4.136 4.136 0 01-4.552-2.026 7.068 7.068 0 01-.515-5.219 7.964 7.964 0 014.17-5.717zM101.439 379.147c2.26 3.227 6.652 2.159 8.689.189s2.9-4.826 3.68-7.549c1.79-6.221 3.6-12.747 2.264-19.083a10.607 10.607 0 00-2.437-5.188 5.538 5.538 0 00-5.249-1.746c-2.214.585-3.591 2.754-4.585 4.817a45.48 45.48 0 00-4.5 19.522c-.011 3.144.359 6.442 2.133 9.038M95.234 383.778c2.453-2.912 2.919-7.159 1.827-10.808a20.838 20.838 0 00-6.4-9.285 34.479 34.479 0 00-11.461-6.763 12.234 12.234 0 00-5.155-.876 5.41 5.41 0 00-4.326 2.618c-1.207 2.3-.05 5.091 1.2 7.368a87.315 87.315 0 007.527 11.468c2.257 2.909 4.842 5.779 8.281 7.094s7.011 1.16 8.834-1.225" fill="#ebebeb"/><path d="M101.286 427.834a6.993 6.993 0 00.2-1.467c.1-1.067.234-2.407.389-4a57.935 57.935 0 01.9-5.871 45.333 45.333 0 012.133-6.929 25.526 25.526 0 013.539-6.269 13.2 13.2 0 014.473-3.719 12.484 12.484 0 013.767-1.173 6.952 6.952 0 001.46-.212 6.9 6.9 0 00-1.486-.023 11.418 11.418 0 00-3.928 1.023 13.181 13.181 0 00-4.719 3.751 24.979 24.979 0 00-3.667 6.4 42.387 42.387 0 00-2.119 7.043 49.64 49.64 0 00-.78 5.945 82.096 82.096 0 00-.2 4.027 6.9 6.9 0 00.038 1.474z" fill="#e0e0e0"/><path d="M101.562 424.754a2.861 2.861 0 00.039-.68v-1.946c0-1.689 0-4.133.087-7.151.149-6.036.669-12.532 1.673-21.69.95-8.612 2.226-18.634 3.573-25.15.288-1.482.579-2.816.853-3.983s.484-2.18.7-3l.455-1.892a2.933 2.933 0 00.119-.671 2.879 2.879 0 00-.237.638l-.565 1.865c-.25.809-.507 1.811-.8 2.977s-.627 2.493-.943 3.973a220.768 220.768 0 00-3.756 23.336c-1.006 9.178-1.459 17.534-1.5 23.585-.036 3.025.028 5.475.106 7.164l.118 1.945a2.851 2.851 0 00.078.68z" fill="#e0e0e0"/><path d="M101.6 408.637a12.9 12.9 0 00-.014-2.032 56.2 56.2 0 00-.622-5.508 72.461 72.461 0 00-1.792-8.024 65.647 65.647 0 00-3.355-9.495 50.571 50.571 0 00-9.854-15.344 24.871 24.871 0 00-2.319-2.155c-.355-.3-.67-.6-.99-.838l-.9-.62a12.887 12.887 0 00-1.712-1.1 60.546 60.546 0 015.61 5.005 53.261 53.261 0 019.608 15.288 75.063 75.063 0 013.375 9.408c.88 2.948 1.464 5.66 1.906 7.944.42 2.29.663 4.159.809 5.454a13.225 13.225 0 00.25 2.017zM86.025 437.068l1.615 22.125h28.423l1.615-22.125zM83.279 428.347h37.79v8.721h-37.79z" fill="#e0e0e0"/><path d="M83.279 458.346v2.417h37.166v-2.417z" fill="#ebebeb"/><path d="M86.8 465.018l-1.74-4.254h34.036l-2.031 4.254z" fill="#e0e0e0"/><path d="M117.15 444.3a.883.883 0 01-.132.2l-.425.563-1.656 2.119-.073.094-.072-.1-4.068-5.626h.234l-4 5.67-.125.178-.141-.167-4.749-5.651h.273l-.261.329-4.255 5.324-.142.178-.13-.185-4.007-5.67.233.011-4.935 5.623-.088.1-.067-.113-1.545-2.6-.4-.691a1.1 1.1 0 01-.121-.246 1.093 1.093 0 01.165.219l.439.665 1.622 2.549-.154-.013 4.855-5.691.123-.144.11.155 4.043 5.644-.272-.007 4.237-5.333.262-.328.135-.17.139.166 4.736 5.663-.266.01 4.045-5.642.119-.166.115.166c1.6 2.288 2.964 4.232 3.982 5.687h-.144l1.722-2.065.462-.534a.959.959 0 01.177-.171zM118.073 436.922c0 .1-7.122.177-15.9.177s-15.907-.08-15.907-.177 7.121-.177 15.907-.177 15.9.079 15.9.177zM119.509 461c0 .1-7.74.177-17.286.177S84.936 461.1 84.936 461s7.738-.177 17.287-.177 17.286.077 17.286.177z" fill="#f5f5f5"/><path d="M368.418 376.289a31.666 31.666 0 00-13.548-4.663c-2.213-.227-4.632-.162-6.408 1.179a1.316 1.316 0 00-.659 1.17 1.426 1.426 0 00.626.8 19.37 19.37 0 0019.989 1.514M368.07 375.906a66.058 66.058 0 01-8.75-7.7 22.138 22.138 0 01-5.486-10.145 4.093 4.093 0 01.434-3.4c6.975 5.447 12.454 12.492 13.8 21.239" fill="#feab45"/><path d="M368.346 376.237a31.607 31.607 0 01.162-11.488 15.529 15.529 0 016.119-9.48c1.206 2.817.687 6.063-.162 9.007a43.756 43.756 0 01-6.068 12.775M375.183 388.488c-4.15.505-7.765 2.693-10.864 5.5a20.55 20.55 0 00-6.215 10.668c4.071-.251 7.525-3.122 10.03-6.342s4.241-6.751 6.992-9.762M376.668 390.448a26.8 26.8 0 013.094-25.347c2.365 8.412 1.5 17.912-3.094 25.347M385.7 401.2a19.376 19.376 0 00-18.527 10.665c-.229.458-.432 1.041-.125 1.452a1.381 1.381 0 001.229.362c3.651-.237 6.887-2.434 9.558-4.935s5-5.391 7.947-7.555M385.414 400.619a34.51 34.51 0 01-.345-19.275c.68-2.481 1.82-5.093 4.114-6.256a.806.806 0 01.629-.111.832.832 0 01.4.461 11.614 11.614 0 01.97 5.53 34.648 34.648 0 01-.867 5.6c-.722 3.421-1.107 7.1-2.983 10.049a20.232 20.232 0 00-1.193 2.207c-.356.75-.358 1.014-.684 1.61M409.327 404.182c-1.771-6.739.109-14.909 4.356-20.434.313-.407.727-.843 1.238-.8.782.073.985 1.115.95 1.9a36.925 36.925 0 01-6.544 19.33M411.483 405.656a29.727 29.727 0 0024.391-4.961 19.749 19.749 0 00-13.2-1.621c-4.41 1.009-8.441 2.985-11.187 6.582M413.3 401.168c4.585-7.476 13.377-12.355 22.136-12.8-1.009 3.563-3.937 6.332-7.24 8a40.206 40.206 0 01-10.626 3.108c-1.414.275-3.354.577-4.27 1.687M409.783 379.395a64.309 64.309 0 002.831-12.965 21.585 21.585 0 00-2.582-12.823c-4.283 8.288-4.717 17.972-.378 26.232M424.2 372.106c5.009-9.1 15.229-16.376 25.57-17.395-3.989 9.932-14.868 17.608-25.57 17.395M421.053 373.89c7.47 1.138 13.835 5.909 20.816 8.8a9.325 9.325 0 004.706.9 3.684 3.684 0 002.307-6.517 10.075 10.075 0 00-3.419-2.073c-7.6-3.165-15.758-3.245-23.767-1.325" fill="#feab45"/><path d="M416.73 379.129c1.691.485 2.269 1.36 3.608 2.5a38.937 38.937 0 0015.786 8.109c.6.15 1.394.209 1.692-.336.261-.476-.069-1.052-.408-1.476a21.735 21.735 0 00-9.531-6.47c-3.643-1.356-6.8-2.991-11.147-2.641M411.851 347.484a29.875 29.875 0 0022.9 7.792 1.565 1.565 0 001.042-.374c.577-.627-.115-1.6-.786-2.119-6.734-5.25-14.891-7.426-23.16-5.3" fill="#feab45"/><path d="M417.635 345.367a31.925 31.925 0 0128.58-4.716 22.685 22.685 0 01-13.615 5.979 43.092 43.092 0 01-14.961-1.263M415.337 330.825c-.662-6.721-.233-12.026-.7-18.779-.037-.539-.153-1.188-.658-1.383-.7-.27-1.289.593-1.519 1.31a21.527 21.527 0 002.866 18.7" fill="#feab45"/><path d="M414.853 331.568a39.508 39.508 0 0011.133-10.821c2.2-3.009 4.053-6.613 3.553-10.306a10.651 10.651 0 00-8.03 3.988 22.391 22.391 0 00-4.094 8.237c-.892 2.957-1.516 6-2.562 8.9M425.791 328.529a89.763 89.763 0 0027.4-16.156c-3.273-1.318-7.02-.529-10.292.792a32.449 32.449 0 00-17.25 15.291M417.929 335.245a55.7 55.7 0 0015.214.074c4.932-.824 9.593-2.779 14.2-4.719a1.671 1.671 0 00.965-.733 1.111 1.111 0 00-.346-1.215 2.947 2.947 0 00-1.211-.568c-5.011-1.4-10.419-.745-15.349.917a71.2 71.2 0 00-13.476 6.244M389.048 347.714c-3.451-6.966-3.227-15.1-.246-22.274 2.1 3.2 2.355 7.27 1.971 11.075s-1.542 7.721-1.617 11.545M375.262 340.761a31.064 31.064 0 00-23.084 9.834 21.575 21.575 0 0012.64-2.344A64.288 64.288 0 00375.651 341M365.994 337.661c-4.215-.342-8.271-.863-12.323.378a14.781 14.781 0 00-9.393 7.961 22.274 22.274 0 0011.553-2.182 66.452 66.452 0 0010.163-6.161M379.717 337.8c-3.792-2.485-7.686-5.014-12.1-6.044s-9.531-.268-12.609 3.059c3.573 2.1 7.91 2.345 12.053 2.342s9.224-.05 13.13 1.332" fill="#feab45"/><path d="M379.739 338c-6.482-6.365-8.94-17.8-6.332-26.5a40.375 40.375 0 016.332 26.5M397.564 319.968c1.222-2.842 2.082-5.825 3.179-8.718a25.062 25.062 0 014.532-8.037 11.943 11.943 0 018.029-4.161 32.332 32.332 0 01-15.582 20.961M394.338 323.726c-2.023-2.785-4.36-6.565-7.1-8.643s-6.316-3.336-9.664-2.538a22.51 22.51 0 0016.768 11.181M394.983 320.2a48.133 48.133 0 01-3.2-10.356 16.161 16.161 0 011.622-10.531c3.558 6.727 4.7 13.947 1.758 20.963M397.6 299.313c2.016-6.668 8.121-11.577 14.713-13.83a5.5 5.5 0 012.58-.387 2.238 2.238 0 011.9 1.587c.24 1.135-.7 2.151-1.578 2.9a50.06 50.06 0 01-17.616 9.726M397.669 293.86c.256-4.3.525-8.66 1.923-12.734s4.093-7.9 8.014-9.677c.667 4.342-1.249 8.662-3.559 12.4s-5.1 7.263-6.483 11.431M397.564 296.82c-1.666-4.86-1.838-11.032-4.748-15.266-2.034-2.959-5.292-4.975-7.044-8.109a12.331 12.331 0 00.41 9.206 26.606 26.606 0 005.383 7.706c2.153 2.3 4 4.03 6 6.463" fill="#feab45"/><path d="M397.6 439.927c-.129 0-.241-32.417-.25-72.4s.088-72.4.218-72.4.241 32.411.25 72.4-.092 72.4-.218 72.4z" fill="#263238"/><path d="M425.925 342.822a6.984 6.984 0 01-1.218.458l-3.355 1.131a196.13 196.13 0 00-10.93 4.087c-4.176 1.791-8.113 3.245-10.356 5.188a7.607 7.607 0 00-2.08 2.753c-.322.761-.38 1.227-.422 1.219a.934.934 0 01.014-.34 5.114 5.114 0 01.238-.945 7.3 7.3 0 012.03-2.934 18.206 18.206 0 014.494-2.792c1.8-.838 3.789-1.713 5.9-2.582a135.317 135.317 0 0111.005-3.969c1.43-.446 2.6-.774 3.4-.991a6.905 6.905 0 011.28-.283z" fill="#263238"/><path d="M435.211 320.013a1.928 1.928 0 01-.342.365l-1.04.977-3.883 3.528-12.926 11.509c-5.045 4.491-9.4 8.782-12.427 12.013a155.24 155.24 0 00-3.518 3.883l-.939 1.073a1.979 1.979 0 01-.351.356 2.063 2.063 0 01.278-.415c.2-.261.482-.649.873-1.13a86.108 86.108 0 013.413-3.991 163.807 163.807 0 0112.359-12.139c5.063-4.481 9.671-8.506 13.019-11.407l3.981-3.417 1.1-.911a2.018 2.018 0 01.403-.294z" fill="#263238"/><path d="M411.574 340.958c-.133-.059.922-2.492 1.972-5.57s1.558-5.675 1.693-5.653a18.994 18.994 0 01-1.25 5.8 37.694 37.694 0 01-1.569 3.9 6.05 6.05 0 01-.846 1.523zM397.626 360.579a5.748 5.748 0 01-.778-.9l-1.991-2.554c-1.674-2.163-3.986-5.148-6.579-8.415s-4.976-6.2-6.7-8.318l-2.035-2.519a5.7 5.7 0 01-.7-.962 5.861 5.861 0 01.841.844c.519.562 1.254 1.39 2.15 2.424 1.793 2.068 4.219 4.969 6.816 8.24s4.87 6.292 6.477 8.507c.8 1.108 1.443 2.011 1.873 2.645a5.86 5.86 0 01.626 1.008z" fill="#263238"/><path d="M391.414 352.605a11.432 11.432 0 01-2.6-4.871 13.927 13.927 0 01-.59-4.912l.207.017c-.093.375-.16.573-.2.567s-.039-.215-.008-.6l.206.017a22.451 22.451 0 00.831 4.778 36.489 36.489 0 002.154 5.004zM383.395 342.518a8.391 8.391 0 00-1.816-1.056 12.176 12.176 0 00-5.045-.4 31.219 31.219 0 00-5.079.82 15.493 15.493 0 01-2.091.5 7.247 7.247 0 012-.821 23.2 23.2 0 015.133-.968 11.011 11.011 0 015.2.561 3.218 3.218 0 011.698 1.364zM381.494 340.073c-.035.073-1.058-.424-2.783-1.013a28.008 28.008 0 00-14.027-1.07c-1.795.321-2.881.657-2.9.58a2.62 2.62 0 01.738-.314 17.187 17.187 0 012.1-.591 24.763 24.763 0 0114.205 1.083 17.476 17.476 0 011.989.9 2.655 2.655 0 01.678.425zM397.564 329.735a57.3 57.3 0 01-2.03-7.051 57.456 57.456 0 01-1.576-7.167 57.714 57.714 0 012.03 7.052 57.642 57.642 0 011.576 7.166z" fill="#263238"/><path d="M397.693 329.735a34.108 34.108 0 00-2.25-4.221 18.6 18.6 0 00-3.311-3.418 3.091 3.091 0 011.278.659 10.3 10.3 0 012.416 2.49 9.361 9.361 0 011.867 4.49zM397.6 422.646c-.05.008-.146-.779-.511-2.155a30.7 30.7 0 00-2.166-5.613 77.687 77.687 0 00-11.494-16.193c-2.566-2.931-5.055-5.7-7.168-8.345a58.6 58.6 0 01-5.127-7.393 35.51 35.51 0 01-2.587-5.487c-.238-.676-.413-1.2-.509-1.569a2.709 2.709 0 01-.133-.56c.042-.013.278.742.812 2.063a40.133 40.133 0 002.7 5.385 62.1 62.1 0 005.177 7.29c2.121 2.621 4.614 5.371 7.185 8.308 5.192 5.828 9.258 11.7 11.439 16.357a27.969 27.969 0 012.045 5.713 15.923 15.923 0 01.287 1.626 2.6 2.6 0 01.05.573zM423.2 393.732a11.462 11.462 0 01-1.341.753 29.322 29.322 0 00-3.48 2.3 39.9 39.9 0 00-4.57 4.168c-1.6 1.695-3.257 3.663-4.943 5.771-3.372 4.231-6.525 7.974-8.414 10.962a45.091 45.091 0 00-2.112 3.609 11.52 11.52 0 01-.739 1.35 1.347 1.347 0 01.125-.38c.1-.241.235-.6.45-1.051a34.21 34.21 0 012-3.7 120.808 120.808 0 018.328-11.078c1.69-2.113 3.363-4.085 5-5.777a37.035 37.035 0 014.683-4.134 24.349 24.349 0 013.594-2.2c.445-.223.807-.36 1.047-.464a1.351 1.351 0 01.372-.129z" fill="#263238"/><path d="M423.7 403.112a19.221 19.221 0 01-2.835.412 37.426 37.426 0 00-6.726 1.325 20.227 20.227 0 00-6.021 3.16c-1.389 1.073-2.043 1.96-2.107 1.908a2.144 2.144 0 01.42-.652 10.636 10.636 0 011.477-1.513 18.239 18.239 0 016.088-3.349 30.362 30.362 0 016.836-1.208 15.8 15.8 0 012.868-.083z" fill="#263238"/><path d="M406.834 408.887c-.148-.084 1.13-2.036 2.122-4.662.93-2.649 1.148-4.972 1.314-4.946a4.485 4.485 0 01-.047 1.522 16.258 16.258 0 01-.827 3.584 17.286 17.286 0 01-1.645 3.288 4.565 4.565 0 01-.917 1.214zM431.486 368.55a2.121 2.121 0 01-.454.241l-1.332.606c-.584.25-1.293.567-2.091.988s-1.736.839-2.709 1.424l-1.548.88c-.536.308-1.067.674-1.631 1.028-1.141.691-2.283 1.544-3.5 2.414a60.087 60.087 0 00-13.488 13.957c-.828 1.249-1.641 2.42-2.293 3.584-.334.576-.682 1.119-.972 1.665l-.826 1.577c-.551.993-.945 1.941-1.33 2.756s-.687 1.531-.917 2.123l-.56 1.353a2.149 2.149 0 01-.225.461 2.118 2.118 0 01.136-.493l.479-1.387c.205-.6.474-1.336.847-2.161s.739-1.793 1.274-2.8l.8-1.6c.284-.554.626-1.105.955-1.69.642-1.18 1.448-2.367 2.272-3.632a57.92 57.92 0 0113.587-14.059c1.236-.867 2.395-1.713 3.552-2.395.573-.349 1.112-.71 1.656-1.012l1.572-.859c.989-.569 1.939-.977 2.755-1.369s1.535-.695 2.132-.92l1.373-.53a2.108 2.108 0 01.486-.15z" fill="#263238"/><path d="M411.226 382.124a3.261 3.261 0 011.114-1.659 7.033 7.033 0 014.489-1.722 12.255 12.255 0 014.723.923 6.745 6.745 0 011.786.867 10.844 10.844 0 01-1.9-.554 14.268 14.268 0 00-4.6-.768 7.315 7.315 0 00-4.288 1.505 13.333 13.333 0 00-1.324 1.408zM408.2 385.248a11.988 11.988 0 00.989-8.475 2.753 2.753 0 01.526 1.208 8.565 8.565 0 01-.725 6.213c-.398.717-.747 1.087-.79 1.054z" fill="#263238"/><path d="M375.207 427.291c.7 12.389 4.432 24.988 10.174 37.727h24.97c5.476-12.612 8.952-25.192 9.57-37.727z" fill="#455a64"/><path d="M415.874 447.338c0 .13-8.222.235-18.361.235s-18.363-.105-18.363-.235 8.22-.234 18.363-.234 18.361.105 18.361.234zM415.316 451.826c0 .13-7.708.235-17.213.235s-17.215-.105-17.215-.235 7.706-.234 17.215-.234 17.213.108 17.213.234z" fill="#fafafa"/><path d="M246 139.976c0-2.415 1.268-3.856 3.023-3.856s3.033 1.441 3.033 3.856-1.278 3.857-3.033 3.857-3.023-1.441-3.023-3.857zm5.254 0c0-2.026-.91-3.141-2.231-3.141s-2.232 1.115-2.232 3.141.911 3.143 2.232 3.143 2.235-1.119 2.235-3.143zM253.177 139.976c0-2.415 1.268-3.856 3.023-3.856s3.033 1.441 3.033 3.856-1.278 3.857-3.033 3.857-3.023-1.441-3.023-3.857zm5.254 0c0-2.026-.91-3.141-2.231-3.141s-2.232 1.115-2.232 3.141.911 3.143 2.232 3.143 2.231-1.119 2.231-3.143zM262.43 136.185v7.583h-.78v-6.89h-1.787v-.693zM264.24 139.976c0-2.415 1.267-3.856 3.022-3.856s3.033 1.441 3.033 3.856-1.278 3.857-3.033 3.857-3.022-1.441-3.022-3.857zm5.254 0c0-2.026-.91-3.141-2.232-3.141s-2.231 1.115-2.231 3.141.91 3.143 2.231 3.143 2.232-1.119 2.232-3.143zM273.493 136.185v7.583h-.781v-6.89h-1.787v-.693zM238.537 150.74c0-2.415 1.267-3.856 3.022-3.856s3.033 1.441 3.033 3.856-1.278 3.857-3.033 3.857-3.022-1.44-3.022-3.857zm5.254 0c0-2.025-.911-3.141-2.232-3.141s-2.231 1.116-2.231 3.141.91 3.143 2.231 3.143 2.232-1.117 2.232-3.143zM245.71 150.74c0-2.415 1.267-3.856 3.022-3.856s3.033 1.441 3.033 3.856-1.278 3.857-3.033 3.857-3.022-1.44-3.022-3.857zm5.253 0c0-2.025-.91-3.141-2.231-3.141s-2.231 1.116-2.231 3.141.91 3.143 2.231 3.143 2.231-1.117 2.231-3.143zM254.962 146.949v7.584h-.78v-6.891H252.4v-.693zM256.772 150.74c0-2.415 1.268-3.856 3.023-3.856s3.033 1.441 3.033 3.856-1.279 3.857-3.033 3.857-3.023-1.44-3.023-3.857zm5.254 0c0-2.025-.91-3.141-2.231-3.141s-2.232 1.116-2.232 3.141.91 3.143 2.232 3.143 2.231-1.117 2.231-3.143zM266.025 146.949v7.584h-.78v-6.891h-1.787v-.693zM269.936 146.949v7.584h-.78v-6.891h-1.787v-.693zM271.746 150.74c0-2.415 1.267-3.856 3.022-3.856s3.033 1.441 3.033 3.856-1.278 3.857-3.033 3.857-3.022-1.44-3.022-3.857zm5.254 0c0-2.025-.911-3.141-2.232-3.141s-2.231 1.116-2.231 3.141.91 3.143 2.231 3.143S277 152.766 277 150.74zM281 146.949v7.584h-.781v-6.891h-1.787v-.693zM246.005 161.15c0-2.415 1.268-3.856 3.023-3.856s3.033 1.441 3.033 3.856-1.278 3.857-3.033 3.857-3.023-1.441-3.023-3.857zm5.254 0c0-2.026-.91-3.141-2.231-3.141s-2.232 1.115-2.232 3.141.911 3.142 2.232 3.142 2.231-1.116 2.231-3.142zM255.258 157.359v7.583h-.78v-6.89h-1.787v-.693zM259.17 157.359v7.583h-.781v-6.89H256.6v-.693zM263.081 157.359v7.583h-.781v-6.89h-1.787v-.693zM264.891 161.15c0-2.415 1.268-3.856 3.023-3.856s3.033 1.441 3.033 3.856-1.278 3.857-3.033 3.857-3.023-1.441-3.023-3.857zm5.254 0c0-2.026-.91-3.141-2.231-3.141s-2.232 1.115-2.232 3.141.91 3.142 2.232 3.142 2.231-1.116 2.231-3.142zM274.143 157.359v7.583h-.78v-6.89h-1.787v-.693z" fill="#feab45"/><path d="M275.113 60.581s.172-.009.507 0l1.489.05c.327.016.694.017 1.1.051l1.312.188 1.533.222 1.71.428a30.565 30.565 0 013.934 1.307l2.144 1.021c.739.362 1.448.848 2.214 1.292a29.32 29.32 0 0113.48 21.967 31.356 31.356 0 01.09 4.007c-.043.678-.045 1.366-.122 2.051l-.312 2.064a28.921 28.921 0 01-2.752 8.163 29.3 29.3 0 01-12.929 12.908c-.731.336-1.441.733-2.2 1.023l-2.3.843c-.788.224-1.589.415-2.388.625a23.482 23.482 0 01-2.447.431c-.412.054-.822.146-1.238.169l-1.254.064c-.837.042-1.676.1-2.521.064a29.56 29.56 0 01-13.231-3.6l.236.006-9.85 4.689-.454.216.094-.494 2.059-10.873.059.211a29.5 29.5 0 01-6.961-25.445 29.028 29.028 0 014.4-10.636 29.833 29.833 0 016.8-7.156 31.211 31.211 0 013.575-2.335c.589-.323 1.191-.579 1.756-.858a12.652 12.652 0 011.68-.72 23.874 23.874 0 013.109-1 19.634 19.634 0 012.666-.57c.81-.11 1.524-.233 2.145-.293l1.577-.059.963-.028a2.01 2.01 0 01.326.005 1.934 1.934 0 01-.326.038l-.96.07-1.568.1c-.617.072-1.326.208-2.129.331a19.961 19.961 0 00-2.641.6 23.987 23.987 0 00-3.074 1.028 12.572 12.572 0 00-1.659.73c-.558.282-1.152.541-1.732.865a31.344 31.344 0 00-3.522 2.34 29.662 29.662 0 00-6.678 7.116 28.71 28.71 0 00-4.294 10.512 29.1 29.1 0 006.916 25.034l.082.091-.023.12-2.044 10.876-.36-.278 9.846-4.7.119-.057.117.064a29.012 29.012 0 008.034 2.945 29.322 29.322 0 004.965.587c.829.037 1.654-.021 2.477-.063l1.232-.061c.409-.022.811-.113 1.216-.166a22.937 22.937 0 002.4-.422c.785-.206 1.572-.393 2.346-.612l2.259-.826c.746-.285 1.443-.674 2.163-1a28.832 28.832 0 0012.73-12.673 28.5 28.5 0 002.728-8.026l.314-2.031c.078-.674.082-1.352.126-2.019a31.4 31.4 0 00-.074-3.949 29.092 29.092 0 00-13.198-21.76c-.756-.444-1.454-.932-2.183-1.3l-2.117-1.029a31.1 31.1 0 00-3.888-1.34l-1.694-.447-1.52-.245-1.3-.211c-.4-.042-.765-.052-1.09-.077l-1.483-.1c-.34-.026-.512-.053-.512-.053z" fill="#455a64"/><path d="M282.821 97.377a3.334 3.334 0 01.517-.587l1.5-1.508a409.489 409.489 0 015.041-4.878l.045-.043v.255c-2-1.856-3.79-3.547-5.075-4.784l-1.509-1.477a3.371 3.371 0 01-.521-.576 3.347 3.347 0 01.612.476l1.585 1.4a419.004 419.004 0 015.145 4.708l.136.127-.135.128-.045.043a382.184 382.184 0 01-5.111 4.8l-1.576 1.428a3.368 3.368 0 01-.609.488z" fill="#feab45"/><path d="M282.809 97.641a.236.236 0 01-.17-.092c-.188-.2-.066-.326.52-.933l1.5-1.51a401.17 401.17 0 014.764-4.614c-1.8-1.679-3.479-3.26-4.747-4.479l-1.511-1.479c-.6-.6-.718-.726-.528-.927s.331-.076.956.458l1.588 1.4a423.314 423.314 0 015.15 4.712l.136.127a.244.244 0 01.08.181.252.252 0 01-.077.183l-.135.128a425.386 425.386 0 01-5.16 4.85l-1.575 1.428c-.448.393-.646.567-.791.567zM267.406 83.779a3.481 3.481 0 01-.518.587l-1.5 1.508a424.388 424.388 0 01-5.041 4.878l-.045.043v-.255c2 1.856 3.79 3.547 5.075 4.784l1.51 1.477a3.375 3.375 0 01.521.576 3.326 3.326 0 01-.613-.476l-1.584-1.4a419.004 419.004 0 01-5.145-4.708l-.136-.127.134-.128.045-.043a382.184 382.184 0 015.111-4.8l1.577-1.428a3.325 3.325 0 01.609-.488z" fill="#feab45"/><path d="M267.418 97.64c-.144 0-.342-.169-.787-.549l-1.587-1.4a418.177 418.177 0 01-5.15-4.712l-.137-.126a.255.255 0 01-.08-.182.252.252 0 01.077-.183l.135-.128a413.296 413.296 0 015.16-4.85l1.578-1.429c.637-.56.771-.677.96-.475s.067.325-.519.932l-1.5 1.511a402.114 402.114 0 01-4.765 4.614c1.8 1.679 3.48 3.26 4.747 4.479l1.511 1.479c.6.6.719.725.528.927a.231.231 0 01-.171.092zM271.362 100.58c-.09-.034 1.528-4.582 3.614-10.157s3.85-10.07 3.94-10.036-1.528 4.582-3.614 10.159-3.849 10.068-3.94 10.034z" fill="#feab45"/><path d="M271.4 100.847a.354.354 0 01-.123-.033c-.289-.109-.4-.149 3.467-10.479 3.753-10.032 3.981-10.136 4.067-10.175a.254.254 0 01.2-.006c.289.108.4.149-3.467 10.479-1.01 2.7-1.976 5.23-2.72 7.125-1.055 2.67-1.224 3.089-1.424 3.089z" fill="#feab45"/><path fill="#fff" d="M338.504 190.061h86.66v35.2h-86.66z"/><path d="M425.163 225.261s-.006-.216-.01-.628-.005-1.028-.01-1.827l-.024-7.005-.052-25.739.1.1-86.653.041h-.014l.137-.137c0 12.326 0 24.225-.006 35.2l-.131-.131 62.133.062 18.024.036 4.824.017 1.249.008c.282 0 .429.008.429.008s-.136.006-.412.008l-1.234.009-4.8.016-17.994.037-62.222.062h-.132v-.132c0-10.974 0-22.873-.005-35.2v-.138h.143l86.653.041h.1v.1l-.052 25.8-.024 6.983-.011 1.809c.001.397-.006.6-.006.6z" fill="#feab45"/><path fill="#feab45" d="M345.869 198.125h20.932v20.932h-20.932zM419.167 206.139c0 .076-10.771.137-24.055.137s-24.057-.061-24.057-.137 10.769-.139 24.057-.139 24.055.063 24.055.139zM419.167 210.4c0 .076-10.771.137-24.055.137s-24.057-.061-24.057-.137 10.769-.137 24.057-.137 24.055.065 24.055.137zM402.027 214.667a1.319 1.319 0 01-.315.028l-.9.026-3.319.043-10.949.041-10.952-.041-3.318-.043-.9-.026a1.315 1.315 0 01-.314-.028 1.433 1.433 0 01.314-.027l.9-.026 3.318-.044 10.952-.04 10.949.04 3.319.044.9.026a1.439 1.439 0 01.315.027z"/><path fill="#fafafa" d="M309.692 119.033h91.425v60.329h-91.425z"/><path d="M401.117 179.362s-.015-.382-.022-1.1-.013-1.8-.023-3.187l-.053-12.136-.109-43.9.207.207-91.418.053h-.007l.26-.26-.021 60.329-.239-.239 65.821.118 18.838.064 5.018.029 1.3.014c.293 0 .449.014.449.014s-.137.01-.421.014l-1.272.014-4.97.029-18.784.065-65.978.117h-.239v-.24l-.022-60.329v-.26h.268l91.418.052h.208v.207l-.109 44.031-.053 12.089-.023 3.148a39.885 39.885 0 01-.024 1.057z" fill="#263238"/><path d="M401.536 125.187c0 .144-20.42.26-45.6.26s-45.608-.116-45.608-.26 20.416-.26 45.608-.26 45.6.116 45.6.26z" fill="#263238"/><path fill="#feab45" d="M317.646 133.875h29.131v38.403h-29.131zM393.163 135.666c0 .143-9.143.26-20.418.26s-20.421-.117-20.421-.26 9.141-.261 20.421-.261 20.418.117 20.418.261zM393.163 140.471c0 .144-9.143.26-20.418.26s-20.421-.116-20.421-.26 9.141-.26 20.421-.26 20.418.116 20.418.26zM393.163 145.277c0 .144-9.143.26-20.418.26s-20.421-.116-20.421-.26 9.141-.261 20.421-.261 20.418.117 20.418.261zM393.163 150.082c0 .144-9.143.261-20.418.261s-20.421-.117-20.421-.261 9.141-.26 20.421-.26 20.418.116 20.418.26zM375.484 154.063H391.9v18.215h-16.416zM372.789 154.888a95.769 95.769 0 01-9.975.26 95.78 95.78 0 01-9.976-.26 95.6 95.6 0 019.976-.261 95.585 95.585 0 019.975.261zM372.789 159.693a95.58 95.58 0 01-9.975.261 95.591 95.591 0 01-9.976-.261 96.116 96.116 0 019.976-.26 96.1 96.1 0 019.975.26zM372.789 165.263a95.585 95.585 0 01-9.975.261 95.6 95.6 0 01-9.976-.261 96.111 96.111 0 019.976-.26 96.1 96.1 0 019.975.26zM372.275 170.944a95.784 95.784 0 01-9.975.26 95.765 95.765 0 01-9.976-.26 95.765 95.765 0 019.976-.26 95.784 95.784 0 019.975.26zM163.08 150.337a3.185 3.185 0 01-.022-.393l-.021-1.1-.05-4.154-.1-14.77.192.191-25.487.039c-.053.05.434-.435.228-.227v10.691l-.018 9.725-.207-.206 18.361.1 5.234.055 1.4.024a4.3 4.3 0 01.5.024 2.994 2.994 0 01-.451.024l-1.357.024-5.187.055-18.5.1h-.206v-.207l-.018-9.725c0-1.712 0-3.465-.005-5.25v-5.444c-.206.2.28-.285.233-.234l25.487.039h.193v.192l-.1 14.89-.049 4.112-.022 1.068a2.063 2.063 0 01-.028.357z"/><path d="M159.821 142.886a13.022 13.022 0 01-1.592-1.382 322.02 322.02 0 01-3.99-3.779l.3-.011-4.045 4.624-.162.184-.148.168-.172-.143-2.5-2.071.291-.006a456.942 456.942 0 01-5.512 4.851l-1.633 1.382a2.973 2.973 0 01-.624.459 2.969 2.969 0 01.522-.573l1.546-1.479a480.3 480.3 0 015.4-4.972l.141-.128.15.122 2.509 2.06-.319.025.163-.184 4.081-4.591.146-.164.153.152c1.6 1.593 2.943 2.94 3.873 3.9a13.272 13.272 0 011.422 1.556zM146.463 135.87c-.033.02-.144-.149-.4-.381a2.256 2.256 0 00-1.29-.567 2.106 2.106 0 00-1.832.761 2.054 2.054 0 001.924 3.331 2.109 2.109 0 001.575-1.205 2.26 2.26 0 00.153-1.4c-.071-.338-.162-.519-.128-.537s.167.137.3.488a2.252 2.252 0 01-.025 1.577 2.412 2.412 0 01-1.8 1.5 2.461 2.461 0 01-2.323-4.024 2.411 2.411 0 012.2-.811 2.252 2.252 0 011.378.766c.233.288.29.491.268.502zM134.629 144.77c-.033.02-.144-.148-.4-.38a2.263 2.263 0 00-1.291-.568 2.109 2.109 0 00-1.831.762 2.055 2.055 0 001.924 3.331 2.109 2.109 0 001.575-1.2 2.267 2.267 0 00.153-1.4c-.071-.339-.162-.519-.128-.538s.167.138.3.489a2.252 2.252 0 01-.025 1.577 2.411 2.411 0 01-1.8 1.5 2.461 2.461 0 01-2.323-4.023 2.411 2.411 0 012.2-.811 2.252 2.252 0 011.378.766c.233.282.29.484.268.495z" fill="#feab45"/><path d="M150.335 151.236a1.776 1.776 0 01.04.434l.037 1.262.066 4.751v.142h-.145c-5.269.053-13.554.088-22.85.088h-1.406v-.23l.062-18.778v-.17h.168l6.839.075 1.86.045a3.44 3.44 0 01.649.048 3.269 3.269 0 01-.649.049l-1.86.045-6.839.075.168-.169.062 18.778-.23-.23h1.174c9.3 0 17.581.034 22.85.088l-.143.143.066-4.751.037-1.262a1.774 1.774 0 01.044-.433z" fill="#feab45"/><path d="M136.228 149.078a35.616 35.616 0 01-3.687 3.5 35.856 35.856 0 01-3.864 3.3 23.327 23.327 0 013.556-3.645 23.434 23.434 0 013.995-3.155zM141.373 154.206c-.078.1-.771-.344-1.434-1.1s-1.019-1.489-.914-1.555.619.531 1.259 1.249 1.173 1.306 1.089 1.406z" fill="#feab45"/><path d="M171.3 168.934s-.013-.326-.02-.944-.011-1.54-.019-2.729l-.046-10.412c-.022-9.005-.055-21.968-.1-37.861l.179.179-87.078.051h-.007l.231-.23-.017 51.946-.214-.214 62.634.1 17.984.058 4.8.026 1.241.013c.281 0 .43.012.43.012s-.132.009-.4.013l-1.218.013-4.753.026-17.935.058-62.776.1H84v-.214c0-15.985-.011-33.548-.017-51.946v-.231h.238l87.078.052h.18v.179c-.04 15.94-.073 28.94-.1 37.972l-.045 10.372-.02 2.695c-.004.621-.014.916-.014.916z" fill="#feab45"/><path fill="#feab45" d="M91.266 129.152h26.529v1.936H91.266zM116.724 138.737c0 .127-5.787.231-12.925.231s-12.927-.1-12.927-.231 5.786-.231 12.927-.231 12.925.104 12.925.231zM116.724 143.034c0 .128-5.787.231-12.925.231s-12.927-.1-12.927-.231 5.786-.23 12.927-.23 12.925.103 12.925.23zM116.724 147.332c0 .127-5.787.23-12.925.23s-12.927-.1-12.927-.23 5.786-.231 12.927-.231 12.925.099 12.925.231zM116.724 151.629c0 .127-5.787.23-12.925.23s-12.927-.1-12.927-.23 5.786-.231 12.927-.231 12.925.102 12.925.231zM102.5 155.842a36.972 36.972 0 01-5.816.23 36.98 36.98 0 01-5.817-.23 36.759 36.759 0 015.817-.231 36.751 36.751 0 015.816.231zM358.218 250.608c0 .08-11.312.145-25.262.145s-25.264-.065-25.264-.145 11.309-.144 25.264-.144 25.262.065 25.262.144zM358.218 255.086c0 .08-11.312.145-25.262.145s-25.264-.065-25.264-.145 11.309-.144 25.264-.144 25.262.065 25.262.144zM340.218 259.565a1.566 1.566 0 01-.331.029l-.948.027-3.485.045-11.5.043-11.5-.043-3.485-.045-.948-.027a1.561 1.561 0 01-.33-.029 1.434 1.434 0 01.33-.03l.948-.027 3.485-.045 11.5-.043 11.5.043 3.485.045.948.027a1.439 1.439 0 01.331.03zM362.9 271.237c0-.116.364-.211.812-.211s.811.1.811.211-.363.212-.811.212-.812-.095-.812-.212zM359.657 271.237c0-.116.363-.211.811-.211s.812.1.812.211-.364.212-.812.212-.811-.095-.811-.212zM356.412 271.237c0-.116.363-.211.811-.211s.811.1.811.211-.363.212-.811.212-.811-.095-.811-.212zM353.167 271.237c0-.116.363-.211.811-.211s.811.1.811.211-.363.212-.811.212-.811-.095-.811-.212zM349.921 271.237c0-.116.364-.211.812-.211s.811.1.811.211-.363.212-.811.212-.812-.095-.812-.212zM346.676 271.237c0-.116.363-.211.811-.211s.812.1.812.211-.363.212-.812.212-.811-.095-.811-.212zM343.431 271.237c0-.116.363-.211.811-.211s.812.1.812.211-.364.212-.812.212-.811-.095-.811-.212zM340.186 271.237c0-.116.363-.211.811-.211s.811.1.811.211-.363.212-.811.212-.811-.095-.811-.212zM336.941 271.237c0-.116.363-.211.811-.211s.811.1.811.211-.363.212-.811.212-.811-.095-.811-.212zM333.7 271.237c0-.116.364-.211.812-.211s.811.1.811.211-.363.212-.811.212-.812-.095-.812-.212zM330.45 271.237c0-.116.363-.211.811-.211s.812.1.812.211-.364.212-.812.212-.811-.095-.811-.212zM327.2 271.237c0-.116.363-.211.811-.211s.811.1.811.211-.363.212-.811.212-.811-.095-.811-.212zM323.96 271.237c0-.116.363-.211.811-.211s.811.1.811.211-.363.212-.811.212-.811-.095-.811-.212zM320.714 271.237c0-.116.364-.211.812-.211s.811.1.811.211-.363.212-.811.212-.812-.095-.812-.212zM317.469 271.237c0-.116.363-.211.811-.211s.812.1.812.211-.363.212-.812.212-.811-.095-.811-.212zM314.224 271.237c0-.116.363-.211.811-.211s.812.1.812.211-.364.212-.812.212-.811-.095-.811-.212zM310.979 271.237c0-.116.363-.211.811-.211s.811.1.811.211-.363.212-.811.212-.811-.095-.811-.212zM307.733 271.237c0-.116.364-.211.812-.211s.811.1.811.211-.363.212-.811.212-.812-.095-.812-.212zM304.488 271.237c0-.116.363-.211.811-.211s.812.1.812.211-.363.212-.812.212-.811-.095-.811-.212zM301.243 271.237c0-.116.363-.211.811-.211s.812.1.812.211-.364.212-.812.212-.811-.095-.811-.212zM298 271.237c0-.116.363-.211.811-.211s.811.1.811.211-.363.212-.811.212-.811-.095-.811-.212zM294.753 271.237c0-.116.363-.211.811-.211s.811.1.811.211-.363.212-.811.212-.811-.095-.811-.212zM291.507 271.237c0-.116.364-.211.812-.211s.811.1.811.211-.363.212-.811.212-.812-.095-.812-.212zM288.262 271.237c0-.116.363-.211.811-.211s.812.1.812.211-.363.212-.812.212-.811-.095-.811-.212zM285.017 271.237c0-.116.363-.211.811-.211s.812.1.812.211-.364.212-.812.212-.811-.095-.811-.212zM281.772 271.237c0-.116.363-.211.811-.211s.811.1.811.211-.363.212-.811.212-.811-.095-.811-.212zM278.526 271.237c0-.116.364-.211.812-.211s.811.1.811.211-.363.212-.811.212-.812-.095-.812-.212zM275.281 271.237c0-.116.363-.211.811-.211s.812.1.812.211-.363.212-.812.212-.811-.095-.811-.212zM273.515 269.759c.116 0 .211.363.211.811a2.067 2.067 0 01-.091.667l-.12-.12c.091.034.144.076.144.12s-.053.086-.144.12l-.066.025-.054-.145a2.063 2.063 0 01-.092-.667c-.003-.448.097-.811.212-.811z"/><ellipse cx=".211" cy=".811" rx=".211" ry=".811" transform="translate(273.303 266.513)" fill="#feab45"/><ellipse cx=".211" cy=".811" rx=".211" ry=".811" transform="translate(273.303 263.268)" fill="#feab45"/><ellipse cx=".211" cy=".811" rx=".211" ry=".811" transform="translate(273.303 260.023)" fill="#feab45"/><ellipse cx=".211" cy=".811" rx=".211" ry=".811" transform="translate(273.303 256.778)" fill="#feab45"/><ellipse cx=".211" cy=".811" rx=".211" ry=".811" transform="translate(273.303 253.533)" fill="#feab45"/><ellipse cx=".211" cy=".811" rx=".211" ry=".811" transform="translate(273.303 250.287)" fill="#feab45"/><path d="M273.515 247.042c.116 0 .211.363.211.811s-.1.812-.211.812-.212-.363-.212-.812.097-.811.212-.811z" fill="#feab45"/><ellipse cx=".211" cy=".811" rx=".211" ry=".811" transform="translate(273.303 243.797)" fill="#feab45"/><ellipse cx=".211" cy=".811" rx=".211" ry=".811" transform="translate(273.303 240.552)" fill="#feab45"/><ellipse cx=".211" cy=".811" rx=".211" ry=".811" transform="translate(273.303 237.306)" fill="#feab45"/><path d="M274.221 234.768c0 .107-.307.2-.706.209l.209-.209v.1c0 .448-.1.811-.211.811s-.212-.363-.212-.811v-.317l.206.007c.407.014.714.102.714.21zM277.467 234.768c0 .117-.364.211-.812.211s-.811-.094-.811-.211.363-.211.811-.211.812.094.812.211zM280.712 234.768c0 .117-.363.211-.811.211s-.812-.094-.812-.211.363-.211.812-.211.811.094.811.211zM283.957 234.768c0 .117-.363.211-.811.211s-.812-.094-.812-.211.364-.211.812-.211.811.094.811.211zM287.2 234.768c0 .117-.363.211-.811.211s-.811-.094-.811-.211.363-.211.811-.211.811.094.811.211zM290.447 234.768c0 .117-.363.211-.811.211s-.811-.094-.811-.211.363-.211.811-.211.811.094.811.211zM293.693 234.768c0 .117-.364.211-.812.211s-.811-.094-.811-.211.363-.211.811-.211.812.094.812.211zM296.938 234.768c0 .117-.363.211-.811.211s-.812-.094-.812-.211.364-.211.812-.211.811.094.811.211zM300.183 234.768c0 .117-.363.211-.811.211s-.811-.094-.811-.211.363-.211.811-.211.811.094.811.211zM303.428 234.768c0 .117-.363.211-.811.211s-.811-.094-.811-.211.363-.211.811-.211.811.094.811.211zM306.674 234.768c0 .117-.364.211-.812.211s-.811-.094-.811-.211.363-.211.811-.211.812.094.812.211zM309.919 234.768c0 .117-.363.211-.811.211s-.812-.094-.812-.211.363-.211.812-.211.811.094.811.211zM313.164 234.768c0 .117-.363.211-.811.211s-.812-.094-.812-.211.364-.211.812-.211.811.094.811.211zM316.409 234.768c0 .117-.363.211-.811.211s-.811-.094-.811-.211.363-.211.811-.211.811.094.811.211zM319.655 234.768c0 .117-.364.211-.812.211s-.811-.094-.811-.211.363-.211.811-.211.812.094.812.211zM322.9 234.768c0 .117-.363.211-.811.211s-.812-.094-.812-.211.363-.211.812-.211.811.094.811.211zM326.145 234.768c0 .117-.363.211-.811.211s-.812-.094-.812-.211.364-.211.812-.211.811.094.811.211zM329.39 234.768c0 .117-.363.211-.811.211s-.811-.094-.811-.211.363-.211.811-.211.811.094.811.211zM332.635 234.768c0 .117-.363.211-.811.211s-.811-.094-.811-.211.363-.211.811-.211.811.094.811.211zM335.881 234.768c0 .117-.364.211-.812.211s-.811-.094-.811-.211.363-.211.811-.211.812.094.812.211zM339.126 234.768c0 .117-.363.211-.811.211s-.812-.094-.812-.211.363-.211.812-.211.811.094.811.211zM342.371 234.768c0 .117-.363.211-.811.211s-.812-.094-.812-.211.364-.211.812-.211.811.094.811.211zM345.616 234.768c0 .117-.363.211-.811.211s-.811-.094-.811-.211.363-.211.811-.211.811.094.811.211zM348.862 234.768c0 .117-.364.211-.812.211s-.811-.094-.811-.211.363-.211.811-.211.812.094.812.211zM352.107 234.768c0 .117-.363.211-.811.211s-.812-.094-.812-.211.363-.211.812-.211.811.094.811.211zM355.352 234.768c0 .117-.363.211-.811.211s-.812-.094-.812-.211.364-.211.812-.211.811.094.811.211zM358.6 234.768c0 .117-.363.211-.811.211s-.811-.094-.811-.211.363-.211.811-.211.811.094.811.211zM361.842 234.768c0 .117-.363.211-.811.211s-.811-.094-.811-.211.363-.211.811-.211.811.094.811.211zM364.525 235.331c-.094 0-.174-.236-.2-.563l.2.2c-.077.007-.161.01-.249.01-.448 0-.811-.094-.811-.211s.363-.211.811-.211c.088 0 .172 0 .249.01l.216.018-.015.183c-.026.333-.107.564-.201.564zM364.525 238.576c-.117 0-.211-.363-.211-.811s.094-.812.211-.812.211.363.211.812-.094.811-.211.811zM364.525 241.821c-.117 0-.211-.363-.211-.811s.094-.812.211-.812.211.364.211.812-.094.811-.211.811zM364.525 245.066c-.117 0-.211-.363-.211-.811s.094-.811.211-.811.211.363.211.811-.094.811-.211.811zM364.525 248.312c-.117 0-.211-.364-.211-.812s.094-.811.211-.811.211.363.211.811-.094.812-.211.812zM364.525 251.557c-.117 0-.211-.363-.211-.811s.094-.812.211-.812.211.363.211.812-.094.811-.211.811zM364.525 254.8c-.117 0-.211-.363-.211-.811s.094-.812.211-.812.211.364.211.812-.094.811-.211.811zM364.525 258.047c-.117 0-.211-.363-.211-.811s.094-.811.211-.811.211.363.211.811-.094.811-.211.811zM364.525 261.292c-.117 0-.211-.363-.211-.811s.094-.811.211-.811.211.363.211.811-.094.811-.211.811zM364.525 264.538c-.117 0-.211-.364-.211-.812s.094-.811.211-.811.211.363.211.811-.094.812-.211.812zM364.525 267.783c-.117 0-.211-.363-.211-.811s.094-.812.211-.812.211.364.211.812-.094.811-.211.811zM364.525 271.028c-.117 0-.211-.363-.211-.811s.094-.811.211-.811.211.363.211.811-.094.811-.211.811zM303.6 264.824c0-.117.363-.211.811-.211l-.211.211v-.161l.013-.153a1.779 1.779 0 01.045-.258c.038-.146.091-.237.149-.237s.112.091.15.237a1.929 1.929 0 01.045.258l.012.153v.161c-.1.094.211-.211-.212.211-.442 0-.802-.094-.802-.211zM300.567 264.824c0-.117.339-.211.757-.211s.758.094.758.211-.339.211-.758.211-.757-.094-.757-.211zM297.536 264.824c0-.117.34-.211.758-.211s.758.094.758.211-.34.211-.758.211-.758-.094-.758-.211zM294.506 264.824c0-.117.339-.211.758-.211s.757.094.757.211-.339.211-.757.211-.758-.094-.758-.211zM291.476 264.824c0-.117.339-.211.757-.211s.758.094.758.211-.339.211-.758.211-.757-.094-.757-.211zM288.446 264.824c0-.117.339-.211.757-.211s.758.094.758.211-.339.211-.758.211-.757-.094-.757-.211zM285.415 264.824c0-.117.34-.211.758-.211s.757.094.757.211-.339.211-.757.211-.758-.094-.758-.211zM282.385 264.824c0-.117.339-.211.758-.211s.757.094.757.211-.339.211-.757.211-.758-.094-.758-.211zM280.059 264.013c.116 0 .211.363.211.811l-.211-.211h.163l.152.013a1.759 1.759 0 01.258.045c.147.038.238.091.238.149s-.091.111-.238.15a1.9 1.9 0 01-.258.045l-.152.012h-.163l-.212-.211c0-.44.095-.803.212-.803zM280.059 260.747c.116 0 .211.365.211.816s-.1.817-.211.817-.212-.366-.212-.817.095-.816.212-.816zM280.059 257.48c.116 0 .211.366.211.817s-.1.816-.211.816-.212-.365-.212-.816.095-.817.212-.817zM280.059 254.214c.116 0 .211.366.211.817s-.1.816-.211.816-.212-.365-.212-.816.095-.817.212-.817zM280.059 250.948c.116 0 .211.365.211.816s-.1.817-.211.817-.212-.366-.212-.817.095-.816.212-.816zM280.059 247.682c.116 0 .211.365.211.816s-.1.817-.211.817-.212-.366-.212-.817.095-.816.212-.816zM280.059 244.415c.116 0 .211.366.211.817s-.1.816-.211.816-.212-.365-.212-.816.095-.817.212-.817zM280.87 241.971c0 .117-.363.211-.811.211l.211-.211v.161l-.013.153a1.74 1.74 0 01-.045.257c-.038.147-.091.238-.149.238s-.112-.091-.15-.238a1.884 1.884 0 01-.045-.257l-.012-.153v-.161c.1-.094-.211.211.212-.211.439 0 .802.094.802.211zM283.9 241.971c0 .117-.339.211-.757.211s-.758-.094-.758-.211.339-.211.758-.211.757.094.757.211zM286.93 241.971c0 .117-.339.211-.757.211s-.758-.094-.758-.211.339-.211.758-.211.757.094.757.211zM289.961 241.971c0 .117-.339.211-.758.211s-.757-.094-.757-.211.339-.211.757-.211.758.094.758.211zM292.991 241.971c0 .117-.339.211-.758.211s-.757-.094-.757-.211.339-.211.757-.211.758.094.758.211zM296.021 241.971c0 .117-.339.211-.757.211s-.758-.094-.758-.211.339-.211.758-.211.757.094.757.211zM299.052 241.971c0 .117-.34.211-.758.211s-.758-.094-.758-.211.34-.211.758-.211.758.094.758.211zM302.082 241.971c0 .117-.339.211-.758.211s-.757-.094-.757-.211.339-.211.757-.211.758.094.758.211zM304.408 242.782c-.116 0-.211-.363-.211-.811l.211.211h-.163l-.152-.013a1.73 1.73 0 01-.258-.045c-.147-.038-.238-.091-.238-.149s.091-.111.238-.15a1.872 1.872 0 01.258-.045l.152-.012h.163l.212.211c0 .44-.095.803-.212.803zM304.408 246.048c-.116 0-.211-.365-.211-.816s.1-.817.211-.817.212.366.212.817-.095.816-.212.816zM304.408 249.315c-.116 0-.211-.366-.211-.817s.1-.816.211-.816.212.365.212.816-.095.817-.212.817zM304.408 252.581c-.116 0-.211-.366-.211-.817s.1-.816.211-.816.212.365.212.816-.095.817-.212.817zM304.408 255.847c-.116 0-.211-.366-.211-.816s.1-.817.211-.817.212.366.212.817-.095.816-.212.816zM304.408 259.113c-.116 0-.211-.365-.211-.816s.1-.817.211-.817.212.366.212.817-.095.816-.212.816zM304.408 262.38c-.116 0-.211-.366-.211-.817s.1-.816.211-.816.212.365.212.816-.095.817-.212.817z" fill="#feab45"/><path fill="#feab45" d="M279.478 264.243h1.161v1.161h-1.161zM279.478 241.39h1.161v1.161h-1.161zM303.828 241.39h1.161v1.161h-1.161zM303.828 263.663h1.161v1.161h-1.161zM291.072 264.243h1.161v1.161h-1.161zM291.653 241.39h1.161v1.161h-1.161zM279.478 253.397h1.161v1.161h-1.161zM303.247 252.817h1.161v1.161h-1.161z"/><path d="M253.69 218.627h56.378a2.226 2.226 0 001.647-.728l21.156-23.229a2.229 2.229 0 00.58-1.5v-42.41a2.227 2.227 0 00-2.228-2.228h-53.956a2.227 2.227 0 00-2.228 2.228v40.582a2.227 2.227 0 01-.666 1.588l-22.245 21.881a2.228 2.228 0 001.562 3.816z" fill="#263238"/><path fill="#f5f5f5" d="M277.088 151.188h54.411v38.715h-54.411z"/><path d="M332.73 192.618c0 .144-12.664.26-28.283.26s-28.285-.116-28.285-.26 12.661-.26 28.285-.26 28.283.116 28.283.26z" fill="#455a64"/><path d="M327.308 187.054a7.4 7.4 0 011.74-.1h.26l-.1.1a5.929 5.929 0 01.1-1.479 5.875 5.875 0 01.1 1.479v.1h-.36a7.3 7.3 0 01-1.74-.1zM323.308 187.054a4.86 4.86 0 012 0 4.815 4.815 0 01-2 0zM319.308 187.054a4.86 4.86 0 012 0 4.815 4.815 0 01-2 0zM315.308 187.054a4.86 4.86 0 012 0 4.815 4.815 0 01-2 0zM311.308 187.054a4.86 4.86 0 012 0 4.815 4.815 0 01-2 0zM307.308 187.054a4.86 4.86 0 012 0 4.815 4.815 0 01-2 0zM303.308 187.054a4.86 4.86 0 012 0 4.815 4.815 0 01-2 0zM299.308 187.054a4.86 4.86 0 012 0 4.815 4.815 0 01-2 0zM295.308 187.054a4.86 4.86 0 012 0 4.815 4.815 0 01-2 0zM291.308 187.054a4.86 4.86 0 012 0 4.815 4.815 0 01-2 0zM287.308 187.054a4.86 4.86 0 012 0 4.815 4.815 0 01-2 0zM283.308 187.054a4.86 4.86 0 012 0 4.815 4.815 0 01-2 0zM279.308 187.054a4.86 4.86 0 012 0 4.815 4.815 0 01-2 0zM279.279 183.084a4.86 4.86 0 010 2 4.86 4.86 0 010-2zM279.279 179.084a4.86 4.86 0 010 2 4.86 4.86 0 010-2zM279.279 175.084a4.86 4.86 0 010 2 4.86 4.86 0 010-2zM279.279 171.084a4.86 4.86 0 010 2 4.86 4.86 0 010-2zM279.279 167.084a4.86 4.86 0 010 2 4.86 4.86 0 010-2zM279.279 163.084a4.86 4.86 0 010 2 4.86 4.86 0 010-2zM282.539 162.344a4.86 4.86 0 01-2 0 4.86 4.86 0 012 0zM286.539 162.344a4.86 4.86 0 01-2 0 4.86 4.86 0 012 0zM290.539 162.344a4.86 4.86 0 01-2 0 4.86 4.86 0 012 0zM294.539 162.344a4.86 4.86 0 01-2 0 4.86 4.86 0 012 0zM298.539 162.344a4.86 4.86 0 01-2 0 4.86 4.86 0 012 0zM302.539 162.344a4.86 4.86 0 01-2 0 4.86 4.86 0 012 0zM306.539 162.344a4.86 4.86 0 01-2 0 4.86 4.86 0 012 0zM310.539 162.344a4.86 4.86 0 01-2 0 4.86 4.86 0 012 0zM314.539 162.344a4.86 4.86 0 01-2 0 4.86 4.86 0 012 0zM318.539 162.344a4.86 4.86 0 01-2 0 4.86 4.86 0 012 0zM322.539 162.344a4.86 4.86 0 01-2 0 4.86 4.86 0 012 0zM326.539 162.344a4.86 4.86 0 01-2 0 4.86 4.86 0 012 0zM329.308 163.575a2.5 2.5 0 01-.1-1v-.231l.1.1a1.765 1.765 0 01-.769-.1 1.765 1.765 0 01.769-.1h.1v.331a2.484 2.484 0 01-.1 1zM329.308 167.575a4.86 4.86 0 010-2 4.861 4.861 0 010 2zM329.308 171.575a4.86 4.86 0 010-2 4.861 4.861 0 010 2zM329.308 175.575a4.86 4.86 0 010-2 4.861 4.861 0 010 2zM329.308 179.575a4.86 4.86 0 010-2 4.861 4.861 0 010 2zM329.308 183.575a4.86 4.86 0 010-2 4.861 4.861 0 010 2zM279.279 153.234h50.029v7.213h-50.029z" fill="#263238"/><path d="M316.662 207.191l11.8-12.881h-50.831l-13.02 12.49z" fill="#455a64"/><path d="M152.518 441.431l-5.845 21.613 19 1.734 3.993-20.576z" fill="#feab45"/><path d="M166.222 463.017a13.394 13.394 0 01-2.782-.094c-1.712-.137-4.07-.4-6.666-.732l-6.64-.892a15.565 15.565 0 01-2.74-.474 13.623 13.623 0 012.782.1c1.711.141 4.069.4 6.665.738l6.64.885a15.771 15.771 0 012.741.469z" fill="#263238"/><path d="M146.672 463.044l19 1.734.307-1.585-18.756-2.384-.529 2.02" fill="#fff" opacity=".6"/><path d="M156.111 462.082a160.884 160.884 0 014.046-16.455 80.816 80.816 0 01-1.807 8.281 80.783 80.783 0 01-2.239 8.174z" fill="#263238"/><path d="M165.172 462.877a9.134 9.134 0 00.043-4.018 8 8 0 00-2.079-3.761 7.782 7.782 0 00-4.728-2.172 8.093 8.093 0 00-5.088 1.157 8.791 8.791 0 00-2.958 3.143 11.272 11.272 0 00-1.2 3.854c-.015 0-.024-.1-.027-.287a5.675 5.675 0 01.044-.822 8.635 8.635 0 01.9-2.9 8.868 8.868 0 013.016-3.34 8.361 8.361 0 015.352-1.254 7.836 7.836 0 017.071 6.309 7.507 7.507 0 01.007 3.034 5.116 5.116 0 01-.234.792c-.062.181-.105.27-.119.265z" fill="#263238"/><path d="M230.96 435.631l-1.271 19.2s19.112 6.343 19.222 9.914l-37.342.271.754-30z" fill="#feab45"/><path d="M218.2 452.867a1.525 1.525 0 00-1.106 1.708 1.466 1.466 0 001.683 1.111 1.608 1.608 0 001.162-1.814 1.522 1.522 0 00-1.879-.963M211.569 465.018l.076-3.024 36.067 1a2.58 2.58 0 011.389 2.029z" fill="#fff" opacity=".6"/><path d="M230.3 454.662c-.011.182-.925.237-1.839.8-.93.535-1.416 1.31-1.581 1.233-.167-.041.138-1.122 1.257-1.779s2.207-.416 2.163-.254zM234.165 456.4c.036.178-.763.464-1.4 1.216-.664.733-.846 1.562-1.027 1.549-.172.023-.266-1.048.551-1.968s1.877-.972 1.876-.797zM236.246 461.151c-.167.034-.393-.884.106-1.868s1.362-1.355 1.434-1.2c.1.153-.471.672-.867 1.486-.419.803-.491 1.57-.673 1.582zM230.1 450.253c-.082.164-.91-.113-1.943-.074-1.032.018-1.845.34-1.935.18-.1-.135.7-.785 1.918-.814s2.06.568 1.96.708z" fill="#263238"/><path d="M230.7 439.434l-.222 3.422-18.337-.722.07-3.088z" opacity=".3"/><path d="M230.289 446.374a3.489 3.489 0 01-1.869-.066 8.414 8.414 0 01-1.938-.659 9.041 9.041 0 01-1.056-.6 2.325 2.325 0 01-.551-.457.8.8 0 01-.054-.972 1 1 0 01.811-.393 2.468 2.468 0 01.7.118 6.737 6.737 0 011.15.434 6.59 6.59 0 011.689 1.184c.842.828 1.117 1.517 1.054 1.551-.085.057-.489-.526-1.35-1.214a7.412 7.412 0 00-1.638-.99 7.034 7.034 0 00-1.064-.364c-.392-.115-.728-.128-.835.044-.039.067-.044.093.035.211a1.872 1.872 0 00.4.334 9.9 9.9 0 00.971.594 10.3 10.3 0 001.786.747 13.122 13.122 0 011.759.498z" fill="#263238"/><path d="M230.043 446.629a2.983 2.983 0 01-.438-1.82 6.089 6.089 0 01.317-2.039 6.184 6.184 0 01.51-1.121 1.546 1.546 0 011.221-.907.873.873 0 01.765.545 2.5 2.5 0 01.171.691 4.146 4.146 0 01-.037 1.259 4.292 4.292 0 01-.856 1.906c-.759.945-1.526 1.14-1.539 1.078-.058-.093.588-.426 1.174-1.339a4.3 4.3 0 00.644-1.738 3.839 3.839 0 000-1.081c-.046-.4-.185-.723-.335-.687-.185-.008-.51.281-.672.593a6.131 6.131 0 00-.494 1 6.7 6.7 0 00-.418 1.854c-.087 1.093.087 1.777-.013 1.806z" fill="#263238"/><path d="M230.961 268.808l-56.9-.428-27.49 180.578 23.613 3 30.263-148.479 9.053 149.004.024.443 25.537-.446z" fill="#052b5d"/><path d="M205.083 283.441a9.861 9.861 0 011.176-.076l3.422-.126 12.3-.348.234-.007v.237l.029 11.794v.114l-.084.077-2.142 1.969-6.313 5.786-.168.154-.168-.151-8.417-7.5-.069-.062v-.09l.106-8.654.051-2.331a5.03 5.03 0 01.045-.785 7.426 7.426 0 01.044.863l.051 2.377.107 8.53-.068-.151 8.481 7.429h-.335l6.3-5.8 2.143-1.967-.084.19.029-11.794.235.231-12.154.114-3.476.005-.934-.01a1.9 1.9 0 01-.341-.018zM178.3 282.659a7.743 7.743 0 011.05.054l3.061.249 11.065 1 .23.021-.028.232-1.4 11.71-.012.1-.084.067-2.452 1.958-6.052 4.815-.2.158-.156-.2-6.616-8.364-.054-.069.011-.084 1.157-8.568.335-2.314a5.141 5.141 0 01.141-.776 7.331 7.331 0 01-.06.867l-.237 2.372-.927 8.469-.044-.153 6.687 8.306-.353-.04 6.04-4.829 2.454-1.956-.1.17 1.464-11.7.2.252-10.9-1.216-3.1-.373a10.656 10.656 0 01-1.12-.158zM213.115 310.068a17.344 17.344 0 01-2.579-1.253c-1.566-.819-3.729-1.949-6.14-3.153s-4.616-2.251-6.212-3.009a17.075 17.075 0 01-2.553-1.307 14.463 14.463 0 012.7.97c1.638.674 3.875 1.674 6.3 2.88s4.563 2.393 6.087 3.3a14.348 14.348 0 012.397 1.572z" fill="#455a64"/><path d="M212.383 314.453a5.871 5.871 0 01-1.94-.731 16.6 16.6 0 01-7.056-6.95 5.824 5.824 0 01-.759-1.929 22.309 22.309 0 009.755 9.61zM228.445 366.631a3.081 3.081 0 01-.257.944 12.722 12.722 0 01-1.188 2.389 14.435 14.435 0 01-15.334 6.47 12.742 12.742 0 01-2.54-.816 3.088 3.088 0 01-.855-.474 35.751 35.751 0 003.464.929 14.8 14.8 0 0014.957-6.312 35.643 35.643 0 001.753-3.13zM224.7 365.092a6.983 6.983 0 01-2.174.96 21.348 21.348 0 01-5.659.934 30.021 30.021 0 01-5.718-.336 8.937 8.937 0 01-2.311-.534c.025-.178 3.59.514 8.008.35a27.011 27.011 0 005.579-.768 23.18 23.18 0 012.275-.606zM182.4 366.167a9.179 9.179 0 01-1.979 1.793 22.994 22.994 0 01-11.973 4.458 9.094 9.094 0 01-2.669-.062 26.138 26.138 0 012.633-.3 27.105 27.105 0 0011.8-4.392 25.924 25.924 0 012.188-1.497zM177.414 365.947a16.275 16.275 0 01-10.3-.821c.047-.15 2.283.515 5.126.731 2.838.237 5.152-.066 5.174.09zM200.108 304.722a11.26 11.26 0 01-2.558 1.159 35.657 35.657 0 01-13.334 2.134 11.2 11.2 0 01-2.792-.3 22.5 22.5 0 012.795-.066 46.23 46.23 0 0013.213-2.115 22.162 22.162 0 012.676-.812zM198.556 298.892c.143 0 .266.445.273 1s-.1 1-.247 1-.266-.443-.273-1 .103-.999.247-1zM198.56 294.892c.144 0 .258.45.255 1s-.123 1-.267 1-.257-.448-.254-1 .123-1.002.266-1zM198.642 290.892c.144.005.249.455.235 1.007s-.142 1-.285.993-.249-.453-.235-1.006.143-.998.285-.994zM198.8 286.895c.144.008.24.46.216 1.011s-.162.993-.305.988-.24-.459-.216-1.011.164-.995.305-.988zM199.039 282.9c.144.01.232.464.2 1.015s-.18.989-.324.981-.231-.463-.195-1.015.18-.989.319-.981zM199.354 278.914c.143.013.222.469.176 1.018s-.2.986-.343.975-.222-.467-.176-1.018.2-.989.343-.975zM199.67 275.648c.143.015.23.312.194.664s-.18.625-.324.611-.23-.311-.194-.664.181-.626.324-.611zM167.505 447.994c.141.028.167.49.059 1.032s-.311.957-.452.929-.167-.49-.059-1.031.311-.958.452-.93zM168.289 444.072c.141.028.168.49.059 1.031s-.31.958-.451.93-.168-.49-.059-1.032.31-.957.451-.929zM169.074 440.149c.141.029.167.491.059 1.032s-.31.958-.451.93-.168-.49-.06-1.032.311-.958.452-.93zM169.859 436.227c.141.028.167.49.059 1.032s-.311.958-.452.929-.167-.49-.059-1.031.311-.957.452-.93zM170.643 432.3c.141.028.168.49.059 1.032s-.31.957-.451.929-.168-.49-.059-1.032.308-.952.451-.929zM171.428 428.383c.141.028.167.49.059 1.031s-.31.958-.452.93-.167-.49-.059-1.032.311-.958.452-.929zM172.212 424.46c.141.028.168.49.06 1.032s-.311.958-.452.93-.167-.49-.059-1.032.31-.958.451-.93zM173 420.538c.141.028.168.49.059 1.032s-.31.957-.451.929-.168-.49-.059-1.031.307-.958.451-.93zM173.782 416.616c.141.028.167.49.059 1.031s-.311.958-.452.93-.167-.49-.059-1.032.311-.957.452-.929zM174.566 412.694c.141.028.168.49.06 1.031s-.311.958-.452.93-.167-.49-.059-1.032.31-.958.451-.929zM175.351 408.771c.141.028.168.49.059 1.032s-.31.958-.451.929-.168-.49-.059-1.031.31-.958.451-.93zM176.136 404.849c.141.028.167.49.059 1.032s-.311.957-.452.929-.167-.49-.059-1.032.311-.957.452-.929zM176.92 400.927c.141.028.168.49.059 1.031s-.31.958-.451.93-.168-.49-.059-1.032.31-.956.451-.929zM177.705 397c.141.029.167.491.059 1.032s-.31.958-.451.93-.168-.491-.06-1.032.311-.954.452-.93zM178.49 393.082c.141.028.167.49.059 1.032s-.311.957-.452.929-.167-.49-.059-1.031.311-.958.452-.93zM179.274 389.16c.141.028.168.49.059 1.031s-.31.958-.451.93-.168-.49-.059-1.032.31-.958.451-.929zM180.059 385.237c.141.029.167.491.059 1.032s-.31.958-.451.93-.168-.49-.06-1.032.311-.958.452-.93zM180.843 381.315c.142.028.168.49.06 1.032s-.311.958-.452.929-.167-.49-.059-1.031.308-.958.451-.93zM181.628 377.393c.141.028.168.49.059 1.032s-.31.957-.451.929-.168-.49-.059-1.032.31-.957.451-.929zM182.413 373.471c.141.028.167.49.059 1.031s-.311.958-.452.93-.167-.49-.059-1.032.311-.958.452-.929zM183.2 369.548c.141.029.168.491.06 1.032s-.311.958-.452.93-.167-.491-.059-1.032.307-.958.451-.93zM183.982 365.626c.141.028.168.49.059 1.032s-.31.957-.451.929-.168-.49-.059-1.031.31-.956.451-.93zM184.767 361.7c.141.028.167.49.059 1.031s-.311.958-.452.93-.167-.49-.059-1.032.311-.953.452-.929zM185.551 357.781c.141.029.168.491.06 1.032s-.311.958-.452.93-.167-.49-.059-1.032.31-.958.451-.93zM186.336 353.859c.141.028.167.49.059 1.032s-.31.958-.451.929-.168-.49-.059-1.031.315-.958.451-.93zM187.121 349.937c.141.028.167.49.059 1.032s-.311.957-.452.929-.167-.49-.059-1.032.311-.957.452-.929zM187.9 346.015c.141.028.168.49.059 1.031s-.31.958-.451.93-.168-.49-.059-1.032.315-.958.451-.929zM188.69 342.092c.141.029.167.49.059 1.032s-.31.958-.451.929-.168-.49-.06-1.031.311-.958.452-.93zM189.475 338.17c.141.028.167.49.059 1.032s-.311.957-.452.929-.167-.49-.059-1.031.311-.958.452-.93zM190.259 334.248c.141.028.168.49.059 1.031s-.31.958-.451.93-.168-.49-.059-1.032.31-.957.451-.929zM191.044 330.325c.141.029.167.491.059 1.032s-.31.958-.452.93-.167-.49-.059-1.032.308-.955.452-.93zM191.828 326.4c.141.028.168.49.06 1.032s-.311.957-.452.929-.167-.49-.059-1.031.31-.955.451-.93zM192.613 322.481c.141.028.168.49.059 1.032s-.31.957-.451.929-.168-.49-.059-1.032.31-.957.451-.929zM193.4 318.559c.141.028.167.49.059 1.031s-.311.958-.452.93-.167-.49-.059-1.032.309-.958.452-.929zM194.182 314.636c.141.029.168.49.06 1.032s-.311.958-.452.929-.167-.49-.059-1.031.31-.958.451-.93zM194.967 310.714c.141.028.168.49.059 1.032s-.31.957-.451.929-.168-.49-.059-1.032.31-.957.451-.929zM195.752 306.792c.141.028.167.49.059 1.031s-.311.958-.452.93-.167-.49-.059-1.032.311-.957.452-.929z" fill="#455a64"/><path d="M274.182 185.832s6.657-9.98 6.834-10.068 6.01-10.12 8.007-10.122 1.277 2.051-.786 5.677a14.454 14.454 0 00-1.992 5.162l4.936 2.981s3.3-1.276 3.434 1.8a21.281 21.281 0 01-.568 4.173c-.2 1.094-.7 2.261-1.728 1.849a1.3 1.3 0 01-.883-1.235c-.064-1.818.276-2.485.043-2.486-.3 0-3.552 9.537-3.552 9.537z" fill="#ffbe9d"/><path d="M287.624 178a9.656 9.656 0 011.584-.944 3.221 3.221 0 011.8-.279 1.614 1.614 0 011 .532 1.637 1.637 0 01.19 1.516 4.8 4.8 0 01-.81 1.36" fill="#ffbe9d"/><path d="M285.372 175.984a9.14 9.14 0 011.5-.89 3.077 3.077 0 011.7-.264 1.364 1.364 0 011.127 1.929 12.85 12.85 0 01-1.534 1.974M276.5 180.2l-9.62 20.575 10.605 10.838 5.526-15.333s2.962.59 4.17-1.374c1.348-2.193 3.117-8.53 3.117-8.53z" fill="#ffbe9d"/><path d="M283.375 179.631a5.233 5.233 0 011.138-2.845 5.071 5.071 0 011.649-1.46c.494-.269.83-.359.861-.3.092.154-1.152.769-2.09 2.068-.921 1.306-1.397 2.606-1.558 2.537zM294.047 179.717c-.043.068-.372-.111-.931-.208a3.263 3.263 0 00-2.1.322 5.114 5.114 0 00-1.562 1.549c-.345.481-.571.785-.637.748s.049-.393.323-.94a4.216 4.216 0 011.625-1.814 3.1 3.1 0 012.444-.221c.606.209.877.516.838.564zM290.466 176.815a13.781 13.781 0 00-2.26 1.329c-1.076.951-1.6 2.067-1.751 1.994a3.631 3.631 0 011.408-2.386 4.134 4.134 0 011.772-.928c.504-.111.823-.073.831-.009zM292.83 181.259c.136-.052.388.746-.117 1.543s-1.327.922-1.339.777c-.044-.141.519-.427.9-1.054.397-.613.41-1.244.556-1.266z" fill="#eb996e"/><path d="M274.2 185.432s-.336-6.139 1.148-7.529 5.736.054 5.736.054" fill="#ffbe9d"/><path d="M281.691 175.029a16.727 16.727 0 01-2.2 3.5 16.669 16.669 0 01-2.623 3.2 32.781 32.781 0 014.824-6.694z" fill="#eb996e"/><path d="M178.039 180.622c.148-.822.347-1.782.633-2.9a8.71 8.71 0 011.216-2.693 13.337 13.337 0 012.354-2.834 1.143 1.143 0 00-.5-2.1c-1.031 0-3.589 1.8-5.348 5.007s-2.792-2.453-3.206-4.508-1.991-8.35-2.724-8.723c-1.074-.547-1.858.5-1.4 2.544.467 2.067 1.412 8.263.316 8.43-1.079.163-3.042-10.324-3.042-10.324s-.057-2.309-1.329-2.159c-2.295.269.613 11.264.915 12.3.211.722-.973.945-1.158.158-.189-.812-1.714-10.506-4.053-10.254-1.795.194 2.307 9.066 1.506 11.253s-2.427-7.044-4.133-6.789c-.636.1-1.1.255.6 5.421.825 2.508 4.023 14.25 4.023 14.25l-1.835 9.624 14.616 3.7zM196.522 128.48l-.147 47.912 20.556.98.594-11.653s7.3 1.449 9.184-5.331c1.2-4.331.9-37.805.9-37.805z" fill="#ffbe9d"/><path d="M230.317 125.957c-3.238.927-3.941 6.218-3.941 6.218l-5.076 11.217c-2.587-2.026-6.061-1.91-6.719 2.637-.475 3.285 3.61 3.949 3.61 3.949-2.378 4.046-3.991 7.319-7.453 11.168-3.747 4.165-5.846 4.585-9.91 4.653h-4.48s-2.194-7.12-6.256-24.926c-4.506-19.754 18.853-17.209 23.184-22.251 7.05-8.212 27.247 4.413 17.041 7.335z" fill="#263238"/><path d="M190.517 142.736c-3.786-2.543-4.128-9.66-1.919-13.927a13.713 13.713 0 0111.663-7.253 5.551 5.551 0 001.9-.213 5.282 5.282 0 002.045-1.941c3.384-4.4 6.71-8.723 13.017-8.722a7.178 7.178 0 013.966.983 6.234 6.234 0 012.381 3.153 13.472 13.472 0 013.689-1.327 4.551 4.551 0 013.7.9 2.786 2.786 0 01.582 3.545 4.485 4.485 0 014.475 3.729c.335 2.1-2.679 3.582-2.994 3.746 0 0 1.655 3.463-2.29 5.54-1.589.836-3.655-.171-3.889-.293" fill="#263238"/><path d="M205.525 147.343a9.68 9.68 0 01-1.571 6.975c-.137-.069.522-1.537.945-3.452.439-1.911.472-3.52.626-3.523zM208.011 144.992a13.531 13.531 0 01-1.276 6.838 18.674 18.674 0 01.573-3.431 18.654 18.654 0 01.703-3.407zM215.131 137.084c.049.069-.533.494-1.272 1.36a13.138 13.138 0 00-2.215 3.823 32.132 32.132 0 00-1.229 4.309 7.211 7.211 0 01-.509 1.812 6.523 6.523 0 01.147-1.881 21.161 21.161 0 011.105-4.428 11.147 11.147 0 012.43-3.885 3.913 3.913 0 011.543-1.11zM218.009 131.7a2.675 2.675 0 01.4 1.3 8.627 8.627 0 01-1.565 6.24c-.506.674-.918 1-.963.955a17.89 17.89 0 001.844-4.051 17.947 17.947 0 00.284-4.444zM193.476 143.667c-.07.126-.7-.092-1.406-.487s-1.222-.816-1.151-.942.7.093 1.4.488 1.227.816 1.157.941zM203.407 138.552c.136.02.052 1.035-.587 2.084s-1.491 1.6-1.572 1.49c-.1-.115.549-.791 1.126-1.759s.886-1.848 1.033-1.815zM206.461 136.912a4.116 4.116 0 01-.915 2.491c-.823 1.25-1.86 1.921-1.939 1.81-.1-.116.734-.924 1.505-2.1a21.248 21.248 0 011.349-2.201zM221.639 116.846c-.036.042-.385-.293-1.127-.714a7.591 7.591 0 00-3.444-.891 9.232 9.232 0 00-5.053 1.358 12.525 12.525 0 00-4.3 4.794 21.519 21.519 0 00-1.746 4.492l-.083.3-.276-.145a10.263 10.263 0 00-4.586-1.173 10.881 10.881 0 00-3.733.564 15.926 15.926 0 00-3.048 1.525 3.146 3.146 0 01.687-.61 9.5 9.5 0 012.256-1.21 10.671 10.671 0 013.843-.695 10.448 10.448 0 014.816 1.159l-.358.156a21.156 21.156 0 011.77-4.611 12.718 12.718 0 014.514-4.958 9.4 9.4 0 015.317-1.315 7.326 7.326 0 013.532 1.084 5.418 5.418 0 01.79.627c.161.161.241.25.229.263z" fill="#455a64"/><path d="M232.449 119.454c-.037-.01.571-.154 1.179.534a2.04 2.04 0 01.473 1.5 2.329 2.329 0 01-1.195 1.707 3.385 3.385 0 01-2.5.344 7.235 7.235 0 01-2.576-1.249 25.294 25.294 0 00-2.52-1.727 10.486 10.486 0 00-3.037-1.067 12.838 12.838 0 00-6.2.424 16.95 16.95 0 00-4.581 2.329 47.075 47.075 0 00-3.657 3.094 5.18 5.18 0 01.813-1.012 19.722 19.722 0 012.627-2.38 16.469 16.469 0 014.649-2.487 13 13 0 016.443-.48 10.785 10.785 0 013.186 1.132 24.244 24.244 0 012.552 1.783 6.95 6.95 0 002.4 1.219 3.028 3.028 0 002.217-.242 2.041 2.041 0 001.089-1.423 1.863 1.863 0 00-.343-1.339 1.8 1.8 0 00-1.019-.66z" fill="#455a64"/><path d="M175.631 178.733l-25.12 44.912a12.738 12.738 0 001.937 11.937l-.519-.747a10.725 10.725 0 008.339 3.982h.475a10.723 10.723 0 009.833-6.445l5.9-8.949z" fill="#feab45"/><path d="M230.031 175.519c-4.928-2.516-9.793-3.086-15.1-3.24-6.182-.18-14.9-1.045-21.559-.336 0 0-20.3-.624-20.393 15.111l2.685 60.4-4.346 25.887 60.831 1.837-.436-30.539c.752-15.891-.852-38.391-.852-38.391.936-8.542 5.61-12.389 6.274-17.943.584-4.911-2.7-10.536-7.104-12.786z" fill="#feab45"/><path d="M212.886 248.331a4.861 4.861 0 01-.9.848 19.64 19.64 0 01-2.773 1.9 22.157 22.157 0 01-21.366.378 19.678 19.678 0 01-2.839-1.8 4.835 4.835 0 01-.924-.815c.06-.084 1.407 1.057 3.929 2.288a22.933 22.933 0 0021.022-.372c2.482-1.32 3.788-2.508 3.851-2.427zM172.976 187.054a2.587 2.587 0 01.071.6c.027.446.061 1.012.1 1.707l.292 6.282.868 20.726c.365 8.064.7 15.36.938 20.726l.32 6.278.073 1.709a2.567 2.567 0 01-.01.6 2.575 2.575 0 01-.1-.59l-.17-1.7c-.143-1.479-.3-3.623-.485-6.272-.36-5.3-.75-12.627-1.092-20.725s-.579-15.427-.715-20.736c-.052-2.6-.1-4.733-.127-6.288 0-.7 0-1.263-.005-1.71a2.61 2.61 0 01.042-.607z" fill="#263238"/><path d="M160.222 192.271s-2.3 6.756-2.71 7.671c0 0-5.68 16.423-7.532 27.511l18.162-32.8c.158.022-7.677-2.315-7.92-2.382z" fill="#feab45"/><path d="M169.167 190.289a1.912 1.912 0 01-.209.476l-.689 1.315a152.623 152.623 0 01-2.7 4.748c-2.309 3.991-5.782 9.336-9.291 15.413-1.753 3.035-3.241 6.04-4.529 8.785a16.139 16.139 0 00-1.769 7.71 12.393 12.393 0 001.409 5.16c.6 1.128 1.1 1.652 1.057 1.686-.014.012-.139-.115-.368-.369a8.68 8.68 0 01-.865-1.218 11.972 11.972 0 01-1.6-5.235 16.2 16.2 0 011.7-7.929c1.275-2.78 2.751-5.793 4.515-8.848 3.524-6.1 7.04-11.407 9.428-15.345l2.837-4.659.774-1.266a2.023 2.023 0 01.3-.424z" fill="#263238"/><path d="M281.062 207.062l-14.076-9.207-8.886 15.389s-12.317-17.12-17.912-27.15c-5.15-9.231-11.812-11.718-15.026-12.387a1.428 1.428 0 00-1.706 1.557l4.855 33.289c.611 1.734 10.772 16.463 16.45 23.874 9.476 12.371 23.438 4.454 27.272-4.2 3.045-6.875 7.782-17.316 9.029-21.165z" fill="#feab45"/><path d="M262.149 227.135a9.943 9.943 0 01-.27-2.2 42 42 0 00-.679-5.243 17.3 17.3 0 00-1.8-4.912c-.661-1.172-1.223-1.807-1.159-1.863a5.247 5.247 0 011.474 1.671 14.687 14.687 0 011.992 5 28.119 28.119 0 01.538 5.333 8.924 8.924 0 01-.096 2.214z" fill="#263238"/><path d="M266.269 220.257c-.083.006-.15-.714-.5-1.8a9.929 9.929 0 00-2.251-3.775 5.9 5.9 0 00-3.743-2.048 5.318 5.318 0 00-1.785.314c-.053-.029.538-.64 1.789-.682a5.79 5.79 0 014.114 2.055 8.919 8.919 0 012.23 4.035 4 4 0 01.146 1.901zM224.247 177.818a1.981 1.981 0 01-.338.391l-.433.443-.538.65a13.75 13.75 0 00-2.438 4.732 18.507 18.507 0 00-.534 7.859 17.348 17.348 0 001.209 4.5 49.29 49.29 0 002.275 4.52c3.447 6.051 6.994 11.287 9.56 15.065l3.09 4.442a16.491 16.491 0 011.118 1.644 1.958 1.958 0 01-.353-.376c-.219-.257-.536-.64-.927-1.147-.793-1.005-1.9-2.492-3.23-4.352a178.769 178.769 0 01-9.708-15.02 47.792 47.792 0 01-2.292-4.577 17.625 17.625 0 01-1.214-4.635 18.449 18.449 0 01.659-8.032 13.167 13.167 0 012.633-4.753l.583-.627.473-.412a1.938 1.938 0 01.405-.315z" fill="#263238"/><path d="M208.539 251.045c4.488-2.05 8.034-6.743 8.164-11.494a4.749 4.749 0 00-1.1-3.557c-1.328-1.31-3.571-1.067-5.222-.2-2.72 1.429-4.5 4.111-6.409 6.517s-4.335 4.77-7.393 5.061a19.219 19.219 0 01-3.932-.3 6.687 6.687 0 00-3.864.467 2.92 2.92 0 00-1.6 3.267s5.376 3.344 10.986 2.948a31.657 31.657 0 0010.37-2.709z" opacity=".3"/><path d="M224.282 266.266a1.541 1.541 0 01-.429.187l-1.265.437c-.55.19-1.226.408-2.025.621s-1.7.492-2.714.71a69.31 69.31 0 01-7.185 1.32 71 71 0 01-17.863.05 69.26 69.26 0 01-7.193-1.278c-1.018-.213-1.921-.483-2.718-.7s-1.478-.422-2.028-.609l-1.267-.43a1.631 1.631 0 01-.431-.183 1.571 1.571 0 01.462.083l1.293.336c.558.156 1.241.341 2.044.522s1.706.429 2.724.617c2.022.438 4.455.838 7.17 1.162a76.049 76.049 0 0017.748-.051c2.712-.339 5.143-.752 7.163-1.2 1.017-.194 1.92-.443 2.72-.633s1.485-.374 2.042-.533l1.291-.343a1.646 1.646 0 01.461-.085zM468.124 465.018c0 .144-97.665.26-218.114.26-120.49 0-218.134-.116-218.134-.26s97.644-.261 218.134-.261c120.449 0 218.114.117 218.114.261z" fill="#263238"/></g></svg>