<svg xmlns="http://www.w3.org/2000/svg" width="436.248" height="415.046" viewBox="0 0 436.248 415.046"><g transform="translate(-31.876 -50.232)"><path d="M387.457,83.972c0-3.6,1.89-5.753,4.508-5.753s4.525,2.149,4.525,5.753-1.906,5.752-4.525,5.752S387.457,87.575,387.457,83.972Zm7.838,0c0-3.022-1.358-4.687-3.33-4.687s-3.329,1.665-3.329,4.687,1.358,4.686,3.329,4.686S395.3,86.994,395.3,83.972Z" fill="#e0e0e0"/><path d="M398.149,83.972c0-3.6,1.891-5.753,4.509-5.753s4.524,2.149,4.524,5.753-1.906,5.752-4.524,5.752S398.149,87.575,398.149,83.972Zm7.838,0c0-3.022-1.358-4.687-3.329-4.687s-3.329,1.665-3.329,4.687,1.357,4.686,3.329,4.686S405.987,86.994,405.987,83.972Z" fill="#e0e0e0"/><path d="M411.945,78.316V89.627h-1.164V79.35h-2.666V78.316Z" fill="#e0e0e0"/><path d="M414.64,83.972c0-3.6,1.891-5.753,4.509-5.753s4.524,2.149,4.524,5.753-1.906,5.752-4.524,5.752S414.64,87.575,414.64,83.972Zm7.838,0c0-3.022-1.357-4.687-3.329-4.687s-3.329,1.665-3.329,4.687,1.357,4.686,3.329,4.686S422.478,86.994,422.478,83.972Z" fill="#e0e0e0"/><path d="M428.436,78.316V89.627h-1.164V79.35h-2.666V78.316Z" fill="#e0e0e0"/><path d="M376.325,100.017c0-3.6,1.89-5.752,4.509-5.752s4.524,2.149,4.524,5.752-1.906,5.753-4.524,5.753S376.325,103.621,376.325,100.017Zm7.838,0c0-3.021-1.358-4.686-3.329-4.686S377.5,97,377.5,100.017s1.358,4.686,3.33,4.686S384.163,103.039,384.163,100.017Z" fill="#e0e0e0"/><path d="M387.017,100.017c0-3.6,1.891-5.752,4.509-5.752s4.524,2.149,4.524,5.752-1.906,5.753-4.524,5.753S387.017,103.621,387.017,100.017Zm7.838,0c0-3.021-1.357-4.686-3.329-4.686S388.2,97,388.2,100.017s1.357,4.686,3.329,4.686S394.855,103.039,394.855,100.017Z" fill="#e0e0e0"/><path d="M400.813,94.362v11.311h-1.164V95.4h-2.666V94.362Z" fill="#e0e0e0"/><path d="M403.508,100.017c0-3.6,1.891-5.752,4.509-5.752s4.525,2.149,4.525,5.752-1.907,5.753-4.525,5.753S403.508,103.621,403.508,100.017Zm7.838,0c0-3.021-1.357-4.686-3.329-4.686s-3.329,1.665-3.329,4.686,1.357,4.686,3.329,4.686S411.346,103.039,411.346,100.017Z" fill="#e0e0e0"/><path d="M417.3,94.362v11.311H416.14V95.4h-2.666V94.362Z" fill="#e0e0e0"/><path d="M423.135,94.362v11.311h-1.164V95.4H419.3V94.362Z" fill="#e0e0e0"/><path d="M425.83,100.017c0-3.6,1.89-5.752,4.508-5.752s4.525,2.149,4.525,5.752-1.906,5.753-4.525,5.753S425.83,103.621,425.83,100.017Zm7.838,0c0-3.021-1.358-4.686-3.33-4.686s-3.329,1.665-3.329,4.686,1.358,4.686,3.329,4.686S433.668,103.039,433.668,100.017Z" fill="#e0e0e0"/><path d="M439.627,94.362v11.311h-1.165V95.4H435.8V94.362Z" fill="#e0e0e0"/><path d="M387.459,115.535c0-3.6,1.89-5.752,4.508-5.752s4.525,2.149,4.525,5.752-1.906,5.753-4.525,5.753S387.459,119.139,387.459,115.535Zm7.837,0c0-3.021-1.357-4.686-3.329-4.686s-3.329,1.665-3.329,4.686,1.358,4.686,3.329,4.686S395.3,118.557,395.3,115.535Z" fill="#e0e0e0"/><path d="M401.254,109.879v11.312H400.09V110.913h-2.666v-1.034Z" fill="#e0e0e0"/><path d="M407.086,109.879v11.312h-1.165V110.913h-2.666v-1.034Z" fill="#e0e0e0"/><path d="M412.917,109.879v11.312h-1.164V110.913h-2.666v-1.034Z" fill="#e0e0e0"/><path d="M415.611,115.535c0-3.6,1.891-5.752,4.509-5.752s4.524,2.149,4.524,5.752-1.906,5.753-4.524,5.753S415.611,119.139,415.611,115.535Zm7.838,0c0-3.021-1.358-4.686-3.329-4.686s-3.329,1.665-3.329,4.686,1.357,4.686,3.329,4.686S423.449,118.557,423.449,115.535Z" fill="#e0e0e0"/><path d="M429.407,109.879v11.312h-1.164V110.913h-2.666v-1.034Z" fill="#e0e0e0"/><path d="M132.561,203.719c0,.091-12.882.164-28.77.164s-28.772-.073-28.772-.164,12.88-.164,28.772-.164S132.561,203.628,132.561,203.719Z" fill="#e0e0e0"/><path d="M132.561,208.819c0,.09-12.882.164-28.77.164s-28.772-.074-28.772-.164,12.88-.164,28.772-.164S132.561,208.728,132.561,208.819Z" fill="#e0e0e0"/><path d="M112.061,213.919a1.682,1.682,0,0,1-.376.033l-1.079.03-3.97.053-13.1.048-13.1-.048-3.969-.053-1.079-.03a1.7,1.7,0,0,1-.377-.033,1.577,1.577,0,0,1,.377-.034l1.079-.03,3.969-.053,13.1-.048,13.1.048,3.97.053,1.079.03A1.563,1.563,0,0,1,112.061,213.919Z" fill="#e0e0e0"/><path d="M137.9,227.212c0-.133.414-.24.924-.24s.924.107.924.24-.414.241-.924.241S137.9,227.345,137.9,227.212Z" fill="#e0e0e0"/><path d="M134.2,227.212c0-.133.414-.24.924-.24s.924.107.924.24-.414.241-.924.241S134.2,227.345,134.2,227.212Z" fill="#e0e0e0"/><path d="M130.5,227.212c0-.133.414-.24.924-.24s.924.107.924.24-.414.241-.924.241S130.5,227.345,130.5,227.212Z" fill="#e0e0e0"/><path d="M126.808,227.212c0-.133.414-.24.924-.24s.924.107.924.24-.413.241-.924.241S126.808,227.345,126.808,227.212Z" fill="#e0e0e0"/><path d="M123.112,227.212c0-.133.414-.24.924-.24s.924.107.924.24-.413.241-.924.241S123.112,227.345,123.112,227.212Z" fill="#e0e0e0"/><path d="M119.417,227.212c0-.133.413-.24.924-.24s.924.107.924.24-.414.241-.924.241S119.417,227.345,119.417,227.212Z" fill="#e0e0e0"/><path d="M115.721,227.212c0-.133.413-.24.924-.24s.924.107.924.24-.414.241-.924.241S115.721,227.345,115.721,227.212Z" fill="#e0e0e0"/><path d="M112.025,227.212c0-.133.414-.24.924-.24s.924.107.924.24-.414.241-.924.241S112.025,227.345,112.025,227.212Z" fill="#e0e0e0"/><path d="M108.329,227.212c0-.133.414-.24.924-.24s.924.107.924.24-.414.241-.924.241S108.329,227.345,108.329,227.212Z" fill="#e0e0e0"/><path d="M104.633,227.212c0-.133.414-.24.924-.24s.924.107.924.24-.413.241-.924.241S104.633,227.345,104.633,227.212Z" fill="#e0e0e0"/><path d="M100.937,227.212c0-.133.414-.24.924-.24s.924.107.924.24-.413.241-.924.241S100.937,227.345,100.937,227.212Z" fill="#e0e0e0"/><path d="M97.242,227.212c0-.133.413-.24.923-.24s.924.107.924.24-.413.241-.924.241S97.242,227.345,97.242,227.212Z" fill="#e0e0e0"/><path d="M93.546,227.212c0-.133.413-.24.924-.24s.924.107.924.24-.414.241-.924.241S93.546,227.345,93.546,227.212Z" fill="#e0e0e0"/><path d="M89.85,227.212c0-.133.414-.24.924-.24s.924.107.924.24-.414.241-.924.241S89.85,227.345,89.85,227.212Z" fill="#e0e0e0"/><path d="M86.154,227.212c0-.133.414-.24.924-.24s.924.107.924.24-.414.241-.924.241S86.154,227.345,86.154,227.212Z" fill="#e0e0e0"/><path d="M82.458,227.212c0-.133.414-.24.924-.24s.924.107.924.24-.414.241-.924.241S82.458,227.345,82.458,227.212Z" fill="#e0e0e0"/><path d="M78.762,227.212c0-.133.414-.24.924-.24s.924.107.924.24-.413.241-.924.241S78.762,227.345,78.762,227.212Z" fill="#e0e0e0"/><path d="M75.066,227.212c0-.133.414-.24.924-.24s.924.107.924.24-.413.241-.924.241S75.066,227.345,75.066,227.212Z" fill="#e0e0e0"/><path d="M71.371,227.212c0-.133.413-.24.923-.24s.925.107.925.24-.414.241-.925.241S71.371,227.345,71.371,227.212Z" fill="#e0e0e0"/><path d="M67.675,227.212c0-.133.413-.24.924-.24s.924.107.924.24-.414.241-.924.241S67.675,227.345,67.675,227.212Z" fill="#e0e0e0"/><path d="M63.979,227.212c0-.133.414-.24.924-.24s.924.107.924.24-.414.241-.924.241S63.979,227.345,63.979,227.212Z" fill="#e0e0e0"/><path d="M60.283,227.212c0-.133.414-.24.924-.24s.924.107.924.24-.414.241-.924.241S60.283,227.345,60.283,227.212Z" fill="#e0e0e0"/><path d="M56.587,227.212c0-.133.414-.24.924-.24s.924.107.924.24-.414.241-.924.241S56.587,227.345,56.587,227.212Z" fill="#e0e0e0"/><path d="M52.891,227.212c0-.133.414-.24.924-.24s.924.107.924.24-.413.241-.924.241S52.891,227.345,52.891,227.212Z" fill="#e0e0e0"/><path d="M49.2,227.212c0-.133.413-.24.923-.24s.924.107.924.24-.413.241-.924.241S49.2,227.345,49.2,227.212Z" fill="#e0e0e0"/><path d="M45.5,227.212c0-.133.413-.24.924-.24s.924.107.924.24-.414.241-.924.241S45.5,227.345,45.5,227.212Z" fill="#e0e0e0"/><path d="M41.8,227.212c0-.133.413-.24.924-.24s.924.107.924.24-.414.241-.924.241S41.8,227.345,41.8,227.212Z" fill="#e0e0e0"/><path d="M38.108,227.212c0-.133.414-.24.924-.24s.924.107.924.24-.414.241-.924.241S38.108,227.345,38.108,227.212Z" fill="#e0e0e0"/><path d="M36.1,225.528c.133,0,.241.414.241.924a2.342,2.342,0,0,1-.1.76l-.137-.136c.1.038.164.085.164.136s-.06.1-.164.137l-.074.028-.063-.165a2.374,2.374,0,0,1-.1-.76C35.856,225.942,35.963,225.528,36.1,225.528Z" fill="#e0e0e0"/><path d="M36.1,221.832c.133,0,.241.414.241.924s-.108.924-.241.924-.24-.413-.24-.924S35.963,221.832,36.1,221.832Z" fill="#e0e0e0"/><path d="M36.1,218.137c.133,0,.241.413.241.923s-.108.924-.241.924-.24-.413-.24-.924S35.963,218.137,36.1,218.137Z" fill="#e0e0e0"/><path d="M36.1,214.441c.133,0,.241.413.241.924s-.108.924-.241.924-.24-.414-.24-.924S35.963,214.441,36.1,214.441Z" fill="#e0e0e0"/><path d="M36.1,210.745c.133,0,.241.414.241.924s-.108.924-.241.924-.24-.414-.24-.924S35.963,210.745,36.1,210.745Z" fill="#e0e0e0"/><path d="M36.1,207.049c.133,0,.241.414.241.924s-.108.924-.241.924-.24-.414-.24-.924S35.963,207.049,36.1,207.049Z" fill="#e0e0e0"/><path d="M36.1,203.353c.133,0,.241.414.241.924s-.108.924-.241.924-.24-.414-.24-.924S35.963,203.353,36.1,203.353Z" fill="#e0e0e0"/><path d="M36.1,199.657c.133,0,.241.414.241.924s-.108.924-.241.924-.24-.413-.24-.924S35.963,199.657,36.1,199.657Z" fill="#e0e0e0"/><path d="M36.1,195.961c.133,0,.241.414.241.924s-.108.924-.241.924-.24-.413-.24-.924S35.963,195.961,36.1,195.961Z" fill="#e0e0e0"/><path d="M36.1,192.266c.133,0,.241.413.241.924s-.108.924-.241.924-.24-.414-.24-.924S35.963,192.266,36.1,192.266Z" fill="#e0e0e0"/><path d="M36.1,188.57c.133,0,.241.413.241.924s-.108.924-.241.924-.24-.414-.24-.924S35.963,188.57,36.1,188.57Z" fill="#e0e0e0"/><path d="M36.9,185.679c0,.122-.35.223-.805.238l.239-.238,0,.119c0,.51-.108.924-.241.924s-.24-.414-.24-.924l0-.119,0-.247.234.008C36.551,185.456,36.9,185.557,36.9,185.679Z" fill="#e0e0e0"/><path d="M40.6,185.679c0,.133-.414.24-.924.24s-.924-.107-.924-.24.414-.241.924-.241S40.6,185.546,40.6,185.679Z" fill="#e0e0e0"/><path d="M44.293,185.679c0,.133-.414.24-.924.24s-.924-.107-.924-.24.413-.241.924-.241S44.293,185.546,44.293,185.679Z" fill="#e0e0e0"/><path d="M47.988,185.679c0,.133-.413.24-.923.24s-.924-.107-.924-.24.413-.241.924-.241S47.988,185.546,47.988,185.679Z" fill="#e0e0e0"/><path d="M51.684,185.679c0,.133-.413.24-.924.24s-.924-.107-.924-.24.414-.241.924-.241S51.684,185.546,51.684,185.679Z" fill="#e0e0e0"/><path d="M55.38,185.679c0,.133-.413.24-.924.24s-.924-.107-.924-.24.414-.241.924-.241S55.38,185.546,55.38,185.679Z" fill="#e0e0e0"/><path d="M59.076,185.679c0,.133-.414.24-.924.24s-.924-.107-.924-.24.414-.241.924-.241S59.076,185.546,59.076,185.679Z" fill="#e0e0e0"/><path d="M62.772,185.679c0,.133-.414.24-.924.24s-.924-.107-.924-.24.414-.241.924-.241S62.772,185.546,62.772,185.679Z" fill="#e0e0e0"/><path d="M66.468,185.679c0,.133-.414.24-.924.24s-.924-.107-.924-.24.413-.241.924-.241S66.468,185.546,66.468,185.679Z" fill="#e0e0e0"/><path d="M70.164,185.679c0,.133-.414.24-.924.24s-.924-.107-.924-.24.413-.241.924-.241S70.164,185.546,70.164,185.679Z" fill="#e0e0e0"/><path d="M73.859,185.679c0,.133-.413.24-.923.24s-.925-.107-.925-.24.414-.241.925-.241S73.859,185.546,73.859,185.679Z" fill="#e0e0e0"/><path d="M77.555,185.679c0,.133-.413.24-.924.24s-.924-.107-.924-.24.414-.241.924-.241S77.555,185.546,77.555,185.679Z" fill="#e0e0e0"/><path d="M81.251,185.679c0,.133-.414.24-.924.24s-.924-.107-.924-.24.414-.241.924-.241S81.251,185.546,81.251,185.679Z" fill="#e0e0e0"/><path d="M84.947,185.679c0,.133-.414.24-.924.24s-.924-.107-.924-.24.414-.241.924-.241S84.947,185.546,84.947,185.679Z" fill="#e0e0e0"/><path d="M88.643,185.679c0,.133-.414.24-.924.24s-.924-.107-.924-.24.414-.241.924-.241S88.643,185.546,88.643,185.679Z" fill="#e0e0e0"/><path d="M92.339,185.679c0,.133-.414.24-.924.24s-.924-.107-.924-.24.413-.241.924-.241S92.339,185.546,92.339,185.679Z" fill="#e0e0e0"/><path d="M96.034,185.679c0,.133-.413.24-.923.24s-.924-.107-.924-.24.413-.241.924-.241S96.034,185.546,96.034,185.679Z" fill="#e0e0e0"/><path d="M99.73,185.679c0,.133-.413.24-.924.24s-.924-.107-.924-.24.414-.241.924-.241S99.73,185.546,99.73,185.679Z" fill="#e0e0e0"/><path d="M103.426,185.679c0,.133-.413.24-.924.24s-.924-.107-.924-.24.414-.241.924-.241S103.426,185.546,103.426,185.679Z" fill="#e0e0e0"/><path d="M107.122,185.679c0,.133-.414.24-.924.24s-.924-.107-.924-.24.414-.241.924-.241S107.122,185.546,107.122,185.679Z" fill="#e0e0e0"/><path d="M110.818,185.679c0,.133-.414.24-.924.24s-.924-.107-.924-.24.414-.241.924-.241S110.818,185.546,110.818,185.679Z" fill="#e0e0e0"/><path d="M114.514,185.679c0,.133-.414.24-.924.24s-.924-.107-.924-.24.413-.241.924-.241S114.514,185.546,114.514,185.679Z" fill="#e0e0e0"/><path d="M118.21,185.679c0,.133-.414.24-.924.24s-.924-.107-.924-.24.413-.241.924-.241S118.21,185.546,118.21,185.679Z" fill="#e0e0e0"/><path d="M121.9,185.679c0,.133-.413.24-.923.24s-.924-.107-.924-.24.413-.241.924-.241S121.9,185.546,121.9,185.679Z" fill="#e0e0e0"/><path d="M125.6,185.679c0,.133-.413.24-.924.24s-.924-.107-.924-.24.414-.241.924-.241S125.6,185.546,125.6,185.679Z" fill="#e0e0e0"/><path d="M129.3,185.679c0,.133-.414.24-.924.24s-.924-.107-.924-.24.414-.241.924-.241S129.3,185.546,129.3,185.679Z" fill="#e0e0e0"/><path d="M132.993,185.679c0,.133-.414.24-.924.24s-.924-.107-.924-.24.414-.241.924-.241S132.993,185.546,132.993,185.679Z" fill="#e0e0e0"/><path d="M136.689,185.679c0,.133-.414.24-.924.24s-.924-.107-.924-.24.414-.241.924-.241S136.689,185.546,136.689,185.679Z" fill="#e0e0e0"/><path d="M139.744,186.32c-.107,0-.2-.269-.229-.641l.229.229c-.088.007-.184.011-.283.011-.511,0-.924-.107-.924-.24s.413-.241.924-.241c.1,0,.2,0,.283.012l.246.021-.017.208C139.941,186.051,139.851,186.32,139.744,186.32Z" fill="#e0e0e0"/><path d="M139.744,190.015c-.133,0-.241-.413-.241-.923s.108-.924.241-.924.24.413.24.924S139.877,190.015,139.744,190.015Z" fill="#e0e0e0"/><path d="M139.744,193.711c-.133,0-.241-.413-.241-.924s.108-.924.241-.924.24.414.24.924S139.877,193.711,139.744,193.711Z" fill="#e0e0e0"/><path d="M139.744,197.407c-.133,0-.241-.414-.241-.924s.108-.924.241-.924.24.414.24.924S139.877,197.407,139.744,197.407Z" fill="#e0e0e0"/><path d="M139.744,201.1c-.133,0-.241-.414-.241-.924s.108-.924.241-.924.24.414.24.924S139.877,201.1,139.744,201.1Z" fill="#e0e0e0"/><path d="M139.744,204.8c-.133,0-.241-.414-.241-.924s.108-.924.241-.924.24.414.24.924S139.877,204.8,139.744,204.8Z" fill="#e0e0e0"/><path d="M139.744,208.495c-.133,0-.241-.414-.241-.924s.108-.924.241-.924.24.413.24.924S139.877,208.495,139.744,208.495Z" fill="#e0e0e0"/><path d="M139.744,212.191c-.133,0-.241-.414-.241-.924s.108-.924.241-.924.24.413.24.924S139.877,212.191,139.744,212.191Z" fill="#e0e0e0"/><path d="M139.744,215.886c-.133,0-.241-.413-.241-.923s.108-.925.241-.925.24.414.24.925S139.877,215.886,139.744,215.886Z" fill="#e0e0e0"/><path d="M139.744,219.582c-.133,0-.241-.413-.241-.924s.108-.924.241-.924.24.414.24.924S139.877,219.582,139.744,219.582Z" fill="#e0e0e0"/><path d="M139.744,223.278c-.133,0-.241-.414-.241-.924s.108-.924.241-.924.24.414.24.924S139.877,223.278,139.744,223.278Z" fill="#e0e0e0"/><path d="M139.744,226.974c-.133,0-.241-.414-.241-.924s.108-.924.241-.924.24.414.24.924S139.877,226.974,139.744,226.974Z" fill="#e0e0e0"/><path d="M70.356,219.909c0-.133.413-.241.924-.241-.481.481-.134.133-.241.24h0v-.092l0-.092.014-.173a2.195,2.195,0,0,1,.051-.294c.044-.167.1-.27.171-.27s.126.1.17.27a2.195,2.195,0,0,1,.051.294l.014.173,0,.092v.092h0l-.24.241C70.769,220.149,70.356,220.041,70.356,219.909Z" fill="#e0e0e0"/><path d="M66.9,219.909c0-.133.386-.241.862-.241s.863.108.863.241-.386.24-.863.24S66.9,220.041,66.9,219.909Z" fill="#e0e0e0"/><path d="M63.453,219.909c0-.133.387-.241.863-.241s.863.108.863.241-.386.24-.863.24S63.453,220.041,63.453,219.909Z" fill="#e0e0e0"/><path d="M60,219.909c0-.133.387-.241.863-.241s.863.108.863.241-.386.24-.863.24S60,220.041,60,219.909Z" fill="#e0e0e0"/><path d="M56.551,219.909c0-.133.387-.241.863-.241s.863.108.863.241-.386.24-.863.24S56.551,220.041,56.551,219.909Z" fill="#e0e0e0"/><path d="M53.1,219.909c0-.133.387-.241.863-.241s.863.108.863.241-.386.24-.863.24S53.1,220.041,53.1,219.909Z" fill="#e0e0e0"/><path d="M49.649,219.909c0-.133.387-.241.863-.241s.863.108.863.241-.386.24-.863.24S49.649,220.041,49.649,219.909Z" fill="#e0e0e0"/><path d="M46.2,219.909c0-.133.387-.241.863-.241s.863.108.863.241-.387.24-.863.24S46.2,220.041,46.2,219.909Z" fill="#e0e0e0"/><path d="M43.549,218.985c.133,0,.24.413.24.923l-.24-.24h.094l.092,0,.173.014a2.195,2.195,0,0,1,.294.051c.167.044.271.1.271.171s-.1.126-.271.17a2.195,2.195,0,0,1-.294.051l-.173.014-.092,0h-.094l-.241-.241C43.308,219.4,43.416,218.985,43.549,218.985Z" fill="#e0e0e0"/><path d="M43.549,215.265c.133,0,.24.416.24.93s-.107.93-.24.93-.241-.417-.241-.93S43.416,215.265,43.549,215.265Z" fill="#e0e0e0"/><path d="M43.549,211.545c.133,0,.24.416.24.93s-.107.93-.24.93-.241-.416-.241-.93S43.416,211.545,43.549,211.545Z" fill="#e0e0e0"/><path d="M43.549,207.825c.133,0,.24.417.24.93s-.107.93-.24.93-.241-.416-.241-.93S43.416,207.825,43.549,207.825Z" fill="#e0e0e0"/><path d="M43.549,204.1c.133,0,.24.417.24.93s-.107.93-.24.93-.241-.416-.241-.93S43.416,204.1,43.549,204.1Z" fill="#e0e0e0"/><path d="M43.549,200.386c.133,0,.24.416.24.929s-.107.93-.24.93-.241-.416-.241-.93S43.416,200.386,43.549,200.386Z" fill="#e0e0e0"/><path d="M43.549,196.666c.133,0,.24.416.24.93s-.107.93-.24.93-.241-.417-.241-.93S43.416,196.666,43.549,196.666Z" fill="#e0e0e0"/><path d="M44.473,193.882c0,.133-.414.24-.924.24l.24-.24h0v.093l0,.092-.014.173a2.022,2.022,0,0,1-.051.294c-.044.167-.1.271-.17.271s-.127-.1-.17-.271a2.012,2.012,0,0,1-.052-.294l-.014-.173,0-.092v-.093h0l.241-.241C44.059,193.641,44.473,193.749,44.473,193.882Z" fill="#e0e0e0"/><path d="M47.924,193.882c0,.133-.387.24-.863.24s-.863-.107-.863-.24.386-.241.863-.241S47.924,193.749,47.924,193.882Z" fill="#e0e0e0"/><path d="M51.375,193.882c0,.133-.387.24-.863.24s-.863-.107-.863-.24.387-.241.863-.241S51.375,193.749,51.375,193.882Z" fill="#e0e0e0"/><path d="M54.826,193.882c0,.133-.386.24-.863.24s-.863-.107-.863-.24.387-.241.863-.241S54.826,193.749,54.826,193.882Z" fill="#e0e0e0"/><path d="M58.277,193.882c0,.133-.386.24-.863.24s-.863-.107-.863-.24.387-.241.863-.241S58.277,193.749,58.277,193.882Z" fill="#e0e0e0"/><path d="M61.728,193.882c0,.133-.386.24-.863.24s-.863-.107-.863-.24.387-.241.863-.241S61.728,193.749,61.728,193.882Z" fill="#e0e0e0"/><path d="M65.179,193.882c0,.133-.386.24-.863.24s-.863-.107-.863-.24.387-.241.863-.241S65.179,193.749,65.179,193.882Z" fill="#e0e0e0"/><path d="M68.63,193.882c0,.133-.386.24-.863.24s-.862-.107-.862-.24.386-.241.862-.241S68.63,193.749,68.63,193.882Z" fill="#e0e0e0"/><path d="M71.28,194.806c-.133,0-.241-.414-.241-.924l.24.24h-.094l-.092,0-.173-.014a2.184,2.184,0,0,1-.294-.052c-.167-.044-.27-.1-.27-.17s.1-.127.27-.17a2.036,2.036,0,0,1,.294-.052l.173-.014.092,0h.094l.241.241C71.52,194.392,71.412,194.806,71.28,194.806Z" fill="#e0e0e0"/><path d="M71.28,198.526c-.133,0-.241-.417-.241-.93s.108-.93.241-.93.24.416.24.93S71.412,198.526,71.28,198.526Z" fill="#e0e0e0"/><path d="M71.28,202.245c-.133,0-.241-.416-.241-.929s.108-.93.241-.93.24.416.24.93S71.412,202.245,71.28,202.245Z" fill="#e0e0e0"/><path d="M71.28,205.965c-.133,0-.241-.416-.241-.93s.108-.93.241-.93.24.417.24.93S71.412,205.965,71.28,205.965Z" fill="#e0e0e0"/><path d="M71.28,209.685c-.133,0-.241-.416-.241-.93s.108-.93.241-.93.24.416.24.93S71.412,209.685,71.28,209.685Z" fill="#e0e0e0"/><path d="M71.28,213.4c-.133,0-.241-.417-.241-.93s.108-.93.241-.93.24.416.24.93S71.412,213.4,71.28,213.4Z" fill="#e0e0e0"/><path d="M71.28,217.125c-.133,0-.241-.417-.241-.93s.108-.93.241-.93.24.416.24.93S71.412,217.125,71.28,217.125Z" fill="#e0e0e0"/><rect width="1.323" height="1.323" transform="translate(42.887 219.247)" fill="#e0e0e0"/><rect width="1.323" height="1.323" transform="translate(42.887 193.22)" fill="#e0e0e0"/><rect width="1.323" height="1.323" transform="translate(70.618 193.22)" fill="#e0e0e0"/><rect width="1.323" height="1.322" transform="translate(70.618 218.586)" fill="#e0e0e0"/><rect width="1.323" height="1.323" transform="translate(56.092 219.247)" fill="#e0e0e0"/><rect width="1.323" height="1.323" transform="translate(56.753 193.22)" fill="#e0e0e0"/><rect width="1.323" height="1.323" transform="translate(42.887 206.895)" fill="#e0e0e0"/><rect width="1.323" height="1.323" transform="translate(69.957 206.234)" fill="#e0e0e0"/><path d="M210.992,101.367s-.013-.329-.019-.948-.012-1.542-.021-2.726c-.011-2.394-.027-5.882-.047-10.327-.022-8.891-.054-21.6-.093-36.916l.18.181-62.484.037h0l.217-.218c-.009,18.407-.017,35.789-.024,50.917l-.193-.194,45.123.1,12.789.052,3.4.023.878.011c.2,0,.3.011.3.011s-.091.008-.282.012l-.856.011-3.357.023-12.746.051-45.248.1h-.194v-.195c-.007-15.128-.015-32.51-.023-50.917v-.218h.222l62.484.036h.182v.182c-.038,15.367-.071,28.112-.093,37.03-.02,4.427-.036,7.9-.047,10.286-.009,1.17-.016,2.069-.02,2.692C211.006,101.065,210.992,101.367,210.992,101.367Z" fill="#e0e0e0"/><path d="M211.482,58.005c0,.12-14.106.218-31.5.218s-31.5-.1-31.5-.218,14.1-.218,31.5-.218S211.482,57.884,211.482,58.005Z" fill="#e0e0e0"/><path d="M153.6,54.289a.841.841,0,1,1-.841-.845A.842.842,0,0,1,153.6,54.289Z" fill="#e0e0e0"/><path d="M156.669,54.289a.841.841,0,1,1-.841-.845A.842.842,0,0,1,156.669,54.289Z" fill="#e0e0e0"/><path d="M159.736,54.289a.842.842,0,1,1-.841-.845A.843.843,0,0,1,159.736,54.289Z" fill="#e0e0e0"/><path d="M171.145,77.191c0,2.707-1.961,4.343-5.2,4.343h-3.416v4.014H161.19V72.831h4.76C169.184,72.831,171.145,74.466,171.145,77.191Zm-1.344,0c0-2.035-1.344-3.2-3.888-3.2h-3.379v6.358h3.379C168.457,80.352,169.8,79.19,169.8,77.191Z" fill="#e0e0e0"/><path d="M184.676,72.831V85.548h-1.327V79.68h-7.958v5.868h-1.344V72.831h1.344V78.5h7.958V72.831Z" fill="#e0e0e0"/><path d="M198.768,77.191c0,2.707-1.962,4.343-5.2,4.343h-3.416v4.014h-1.345V72.831h4.761C196.806,72.831,198.768,74.466,198.768,77.191Zm-1.344,0c0-2.035-1.344-3.2-3.888-3.2h-3.379v6.358h3.379C196.08,80.352,197.424,79.19,197.424,77.191Z" fill="#e0e0e0"/><rect width="63.557" height="51.005" transform="translate(247.804 285.11)" fill="#ebebeb"/><path d="M311.922,292.678c0,.174-8.157.315-28.076.315s-36.073-.141-36.073-.315,16.147-.314,36.073-.314S311.922,292.5,311.922,292.678Z" fill="#fafafa"/><path d="M253.643,288.956a.971.971,0,1,1-.963-.846A.91.91,0,0,1,253.643,288.956Z" fill="#fff"/><path d="M257.155,288.956a.972.972,0,1,1-.963-.846A.91.91,0,0,1,257.155,288.956Z" fill="#fff"/><path d="M260.667,288.956a.972.972,0,1,1-.964-.846A.911.911,0,0,1,260.667,288.956Z" fill="#fff"/><path d="M288.657,321.5a4.153,4.153,0,0,1,.633-.718l1.834-1.843c1.562-1.543,3.74-3.654,6.163-5.965l.055-.053,0,.312c-2.442-2.268-4.633-4.336-6.2-5.848l-1.845-1.806a4.087,4.087,0,0,1-.637-.7,4.065,4.065,0,0,1,.749.583l1.937,1.706c1.624,1.456,3.848,3.489,6.291,5.756l.166.155-.164.157-.056.053c-2.423,2.311-4.634,4.387-6.249,5.874L289.4,320.9A4.091,4.091,0,0,1,288.657,321.5Z" fill="#fff"/><path d="M269.81,304.875a4.154,4.154,0,0,1-.633.718l-1.834,1.844c-1.562,1.543-3.74,3.653-6.163,5.964l-.056.053,0-.312c2.442,2.268,4.634,4.337,6.2,5.848l1.846,1.807a4.114,4.114,0,0,1,.637.7,4.024,4.024,0,0,1-.749-.583c-.525-.462-1.173-1.032-1.937-1.706-1.624-1.455-3.848-3.488-6.291-5.756l-.166-.155.164-.157.055-.053c2.424-2.311,4.634-4.387,6.249-5.873l1.928-1.745A4.191,4.191,0,0,1,269.81,304.875Z" fill="#fff"/><path d="M274.647,325.417c-.11-.041,1.869-5.6,4.418-12.418s4.707-12.312,4.817-12.27-1.867,5.6-4.418,12.42S274.758,325.459,274.647,325.417Z" fill="#fff"/><path d="M109.906,395.492a19.583,19.583,0,0,1,12.15-1.477c2.2.364,4.5,1.024,6,2.679s1.784,4.57.062,5.993a5.756,5.756,0,0,1-3.784.96c-3.212-.038-6.776-.6-9.342,1.329-1.464,1.1-2.438,2.936-4.189,3.478a4.136,4.136,0,0,1-4.552-2.026,7.068,7.068,0,0,1-.515-5.219A7.964,7.964,0,0,1,109.906,395.492Z" fill="#ebebeb"/><path d="M101.439,379.147c2.26,3.227,6.652,2.159,8.689.189s2.9-4.826,3.68-7.549c1.79-6.221,3.6-12.747,2.264-19.083a10.607,10.607,0,0,0-2.437-5.188,5.538,5.538,0,0,0-5.249-1.746c-2.214.585-3.591,2.754-4.585,4.817a45.48,45.48,0,0,0-4.5,19.522c-.011,3.144.359,6.442,2.133,9.038" fill="#ebebeb"/><path d="M95.234,383.778c2.453-2.912,2.919-7.159,1.827-10.808a20.838,20.838,0,0,0-6.4-9.285A34.479,34.479,0,0,0,79.2,356.922a12.234,12.234,0,0,0-5.155-.876,5.41,5.41,0,0,0-4.326,2.618c-1.207,2.3-.05,5.091,1.2,7.368A87.315,87.315,0,0,0,78.446,377.5c2.257,2.909,4.842,5.779,8.281,7.094s7.011,1.16,8.834-1.225" fill="#ebebeb"/><path d="M101.286,427.834a6.993,6.993,0,0,0,.2-1.467c.1-1.067.234-2.407.389-4a57.935,57.935,0,0,1,.9-5.871,45.333,45.333,0,0,1,2.133-6.929,25.526,25.526,0,0,1,3.539-6.269,13.2,13.2,0,0,1,4.473-3.719,12.484,12.484,0,0,1,3.767-1.173,6.952,6.952,0,0,0,1.46-.212,6.9,6.9,0,0,0-1.486-.023,11.418,11.418,0,0,0-3.928,1.023,13.181,13.181,0,0,0-4.719,3.751,24.979,24.979,0,0,0-3.667,6.4,42.387,42.387,0,0,0-2.119,7.043,49.64,49.64,0,0,0-.78,5.945c-.127,1.7-.175,3.076-.2,4.027A6.9,6.9,0,0,0,101.286,427.834Z" fill="#e0e0e0"/><path d="M101.562,424.754a2.861,2.861,0,0,0,.039-.68c0-.512,0-1.156,0-1.946,0-1.689,0-4.133.087-7.151.149-6.036.669-12.532,1.673-21.69.95-8.612,2.226-18.634,3.573-25.15.288-1.482.579-2.816.853-3.983s.484-2.18.7-3c.185-.768.335-1.395.455-1.892a2.933,2.933,0,0,0,.119-.671,2.879,2.879,0,0,0-.237.638c-.148.49-.335,1.107-.565,1.865-.25.809-.507,1.811-.8,2.977s-.627,2.493-.943,3.973a220.768,220.768,0,0,0-3.756,23.336c-1.006,9.178-1.459,17.534-1.5,23.585-.036,3.025.028,5.475.106,7.164l.118,1.945A2.851,2.851,0,0,0,101.562,424.754Z" fill="#e0e0e0"/><path d="M101.6,408.637a12.9,12.9,0,0,0-.014-2.032c-.075-1.307-.254-3.2-.622-5.508a72.461,72.461,0,0,0-1.792-8.024,65.647,65.647,0,0,0-3.355-9.495,50.571,50.571,0,0,0-9.854-15.344,24.871,24.871,0,0,0-2.319-2.155c-.355-.3-.67-.6-.99-.838l-.9-.62a12.887,12.887,0,0,0-1.712-1.1,60.546,60.546,0,0,1,5.61,5.005,53.261,53.261,0,0,1,9.608,15.288,75.063,75.063,0,0,1,3.375,9.408c.88,2.948,1.464,5.66,1.906,7.944.42,2.29.663,4.159.809,5.454A13.225,13.225,0,0,0,101.6,408.637Z" fill="#e0e0e0"/><path d="M86.025,437.068l1.615,22.125h28.423l1.615-22.125Z" fill="#e0e0e0"/><rect width="37.79" height="8.721" transform="translate(83.279 428.347)" fill="#e0e0e0"/><path d="M83.279,458.346v2.417h37.166v-2.417Z" fill="#ebebeb"/><path d="M86.8,465.018l-1.74-4.254h34.036l-2.031,4.254Z" fill="#e0e0e0"/><path d="M117.15,444.3a.883.883,0,0,1-.132.2l-.425.563-1.656,2.119-.073.094-.072-.1c-1.04-1.44-2.431-3.363-4.068-5.626h.234l-4,5.67-.125.178-.141-.167-4.749-5.651.273,0-.261.329L97.7,447.233l-.142.178-.13-.185-4.007-5.67.233.011-4.935,5.623-.088.1-.067-.113-1.545-2.6-.4-.691a1.1,1.1,0,0,1-.121-.246,1.093,1.093,0,0,1,.165.219l.439.665,1.622,2.549-.154-.013,4.855-5.691.123-.144.11.155c1.229,1.716,2.589,3.613,4.043,5.644l-.272-.007c1.345-1.693,2.768-3.483,4.237-5.333l.262-.328.135-.17.139.166,4.736,5.663-.266.01c1.462-2.038,2.823-3.937,4.045-5.642l.119-.166.115.166c1.6,2.288,2.964,4.232,3.982,5.687l-.144,0,1.722-2.065.462-.534A.959.959,0,0,1,117.15,444.3Z" fill="#f5f5f5"/><path d="M118.073,436.922c0,.1-7.122.177-15.9.177s-15.907-.08-15.907-.177,7.121-.177,15.907-.177S118.073,436.824,118.073,436.922Z" fill="#f5f5f5"/><path d="M119.509,461c0,.1-7.74.177-17.286.177S84.936,461.1,84.936,461s7.738-.177,17.287-.177S119.509,460.9,119.509,461Z" fill="#f5f5f5"/><path d="M368.418,376.289a31.666,31.666,0,0,0-13.548-4.663c-2.213-.227-4.632-.162-6.408,1.179a1.316,1.316,0,0,0-.659,1.17,1.426,1.426,0,0,0,.626.8,19.37,19.37,0,0,0,19.989,1.514" fill="#feab45"/><path d="M368.07,375.906a66.058,66.058,0,0,1-8.75-7.7,22.138,22.138,0,0,1-5.486-10.145,4.093,4.093,0,0,1,.434-3.4c6.975,5.447,12.454,12.492,13.8,21.239" fill="#feab45"/><path d="M368.346,376.237a31.607,31.607,0,0,1,.162-11.488,15.529,15.529,0,0,1,6.119-9.48c1.206,2.817.687,6.063-.162,9.007a43.756,43.756,0,0,1-6.068,12.775" fill="#feab45"/><path d="M375.183,388.488c-4.15.505-7.765,2.693-10.864,5.5a20.55,20.55,0,0,0-6.215,10.668c4.071-.251,7.525-3.122,10.03-6.342s4.241-6.751,6.992-9.762" fill="#feab45"/><path d="M376.668,390.448a26.8,26.8,0,0,1,3.094-25.347c2.365,8.412,1.5,17.912-3.094,25.347" fill="#feab45"/><path d="M385.7,401.2a19.376,19.376,0,0,0-18.527,10.665c-.229.458-.432,1.041-.125,1.452a1.381,1.381,0,0,0,1.229.362c3.651-.237,6.887-2.434,9.558-4.935s5-5.391,7.947-7.555" fill="#feab45"/><path d="M385.414,400.619a34.51,34.51,0,0,1-.345-19.275c.68-2.481,1.82-5.093,4.114-6.256a.806.806,0,0,1,.629-.111.832.832,0,0,1,.4.461,11.614,11.614,0,0,1,.97,5.53,34.648,34.648,0,0,1-.867,5.6c-.722,3.421-1.107,7.1-2.983,10.049a20.232,20.232,0,0,0-1.193,2.207c-.356.75-.358,1.014-.684,1.61" fill="#feab45"/><path d="M409.327,404.182c-1.771-6.739.109-14.909,4.356-20.434.313-.407.727-.843,1.238-.8.782.073.985,1.115.95,1.9a36.925,36.925,0,0,1-6.544,19.33" fill="#feab45"/><path d="M411.483,405.656a29.727,29.727,0,0,0,24.391-4.961,19.749,19.749,0,0,0-13.2-1.621c-4.41,1.009-8.441,2.985-11.187,6.582" fill="#feab45"/><path d="M413.3,401.168c4.585-7.476,13.377-12.355,22.136-12.8-1.009,3.563-3.937,6.332-7.24,8a40.206,40.206,0,0,1-10.626,3.108c-1.414.275-3.354.577-4.27,1.687" fill="#feab45"/><path d="M409.783,379.395a64.309,64.309,0,0,0,2.831-12.965,21.585,21.585,0,0,0-2.582-12.823c-4.283,8.288-4.717,17.972-.378,26.232" fill="#feab45"/><path d="M424.2,372.106c5.009-9.1,15.229-16.376,25.57-17.395-3.989,9.932-14.868,17.608-25.57,17.395" fill="#feab45"/><path d="M421.053,373.89c7.47,1.138,13.835,5.909,20.816,8.8a9.325,9.325,0,0,0,4.706.9,3.684,3.684,0,0,0,2.307-6.517A10.075,10.075,0,0,0,445.463,375c-7.6-3.165-15.758-3.245-23.767-1.325" fill="#feab45"/><path d="M416.73,379.129c1.691.485,2.269,1.36,3.608,2.5a38.937,38.937,0,0,0,15.786,8.109c.6.15,1.394.209,1.692-.336.261-.476-.069-1.052-.408-1.476a21.735,21.735,0,0,0-9.531-6.47c-3.643-1.356-6.8-2.991-11.147-2.641" fill="#feab45"/><path d="M411.851,347.484a29.875,29.875,0,0,0,22.9,7.792,1.565,1.565,0,0,0,1.042-.374c.577-.627-.115-1.6-.786-2.119-6.734-5.25-14.891-7.426-23.16-5.3" fill="#feab45"/><path d="M417.635,345.367a31.925,31.925,0,0,1,28.58-4.716A22.685,22.685,0,0,1,432.6,346.63a43.092,43.092,0,0,1-14.961-1.263" fill="#feab45"/><path d="M415.337,330.825c-.662-6.721-.233-12.026-.7-18.779-.037-.539-.153-1.188-.658-1.383-.7-.27-1.289.593-1.519,1.31a21.527,21.527,0,0,0,2.866,18.7" fill="#feab45"/><path d="M414.853,331.568a39.508,39.508,0,0,0,11.133-10.821c2.2-3.009,4.053-6.613,3.553-10.306a10.651,10.651,0,0,0-8.03,3.988,22.391,22.391,0,0,0-4.094,8.237c-.892,2.957-1.516,6-2.562,8.9" fill="#feab45"/><path d="M425.791,328.529a89.763,89.763,0,0,0,27.4-16.156c-3.273-1.318-7.02-.529-10.292.792a32.449,32.449,0,0,0-17.25,15.291" fill="#feab45"/><path d="M417.929,335.245a55.7,55.7,0,0,0,15.214.074c4.932-.824,9.593-2.779,14.2-4.719a1.671,1.671,0,0,0,.965-.733,1.111,1.111,0,0,0-.346-1.215,2.947,2.947,0,0,0-1.211-.568c-5.011-1.4-10.419-.745-15.349.917a71.2,71.2,0,0,0-13.476,6.244" fill="#feab45"/><path d="M389.048,347.714c-3.451-6.966-3.227-15.1-.246-22.274,2.1,3.2,2.355,7.27,1.971,11.075s-1.542,7.721-1.617,11.545" fill="#feab45"/><path d="M375.262,340.761a31.064,31.064,0,0,0-23.084,9.834,21.575,21.575,0,0,0,12.64-2.344A64.288,64.288,0,0,0,375.651,341" fill="#feab45"/><path d="M365.994,337.661c-4.215-.342-8.271-.863-12.323.378A14.781,14.781,0,0,0,344.278,346a22.274,22.274,0,0,0,11.553-2.182,66.452,66.452,0,0,0,10.163-6.161" fill="#feab45"/><path d="M379.717,337.8c-3.792-2.485-7.686-5.014-12.1-6.044s-9.531-.268-12.609,3.059c3.573,2.1,7.91,2.345,12.053,2.342s9.224-.05,13.13,1.332" fill="#feab45"/><path d="M379.739,338c-6.482-6.365-8.94-17.8-6.332-26.5a40.375,40.375,0,0,1,6.332,26.5" fill="#feab45"/><path d="M397.564,319.968c1.222-2.842,2.082-5.825,3.179-8.718a25.062,25.062,0,0,1,4.532-8.037,11.943,11.943,0,0,1,8.029-4.161,32.332,32.332,0,0,1-15.582,20.961" fill="#feab45"/><path d="M394.338,323.726c-2.023-2.785-4.36-6.565-7.1-8.643s-6.316-3.336-9.664-2.538a22.51,22.51,0,0,0,16.768,11.181" fill="#feab45"/><path d="M394.983,320.2a48.133,48.133,0,0,1-3.2-10.356,16.161,16.161,0,0,1,1.622-10.531c3.558,6.727,4.7,13.947,1.758,20.963" fill="#feab45"/><path d="M397.6,299.313c2.016-6.668,8.121-11.577,14.713-13.83a5.5,5.5,0,0,1,2.58-.387,2.238,2.238,0,0,1,1.9,1.587c.24,1.135-.7,2.151-1.578,2.9a50.06,50.06,0,0,1-17.616,9.726" fill="#feab45"/><path d="M397.669,293.86c.256-4.3.525-8.66,1.923-12.734s4.093-7.9,8.014-9.677c.667,4.342-1.249,8.662-3.559,12.4s-5.1,7.263-6.483,11.431" fill="#feab45"/><path d="M397.564,296.82c-1.666-4.86-1.838-11.032-4.748-15.266-2.034-2.959-5.292-4.975-7.044-8.109a12.331,12.331,0,0,0,.41,9.206,26.606,26.606,0,0,0,5.383,7.706c2.153,2.3,4,4.03,6,6.463" fill="#feab45"/><path d="M397.6,439.927c-.129,0-.241-32.417-.25-72.4s.088-72.4.218-72.4.241,32.411.25,72.4S397.726,439.927,397.6,439.927Z" fill="#263238"/><path d="M425.925,342.822a6.984,6.984,0,0,1-1.218.458l-3.355,1.131c-2.828.964-6.713,2.359-10.93,4.087-4.176,1.791-8.113,3.245-10.356,5.188a7.607,7.607,0,0,0-2.08,2.753c-.322.761-.38,1.227-.422,1.219a.934.934,0,0,1,.014-.34,5.114,5.114,0,0,1,.238-.945,7.3,7.3,0,0,1,2.03-2.934,18.206,18.206,0,0,1,4.494-2.792c1.8-.838,3.789-1.713,5.9-2.582,4.23-1.734,8.145-3.084,11.005-3.969,1.43-.446,2.6-.774,3.4-.991A6.905,6.905,0,0,1,425.925,342.822Z" fill="#263238"/><path d="M435.211,320.013a1.928,1.928,0,0,1-.342.365l-1.04.977-3.883,3.528L417.02,336.392c-5.045,4.491-9.4,8.782-12.427,12.013-1.513,1.614-2.7,2.95-3.518,3.883l-.939,1.073a1.979,1.979,0,0,1-.351.356,2.063,2.063,0,0,1,.278-.415c.2-.261.482-.649.873-1.13.771-.971,1.927-2.345,3.413-3.991a163.807,163.807,0,0,1,12.359-12.139c5.063-4.481,9.671-8.506,13.019-11.407l3.981-3.417,1.1-.911A2.018,2.018,0,0,1,435.211,320.013Z" fill="#263238"/><path d="M411.574,340.958c-.133-.059.922-2.492,1.972-5.57s1.558-5.675,1.693-5.653a18.994,18.994,0,0,1-1.25,5.8,37.694,37.694,0,0,1-1.569,3.9A6.05,6.05,0,0,1,411.574,340.958Z" fill="#263238"/><path d="M397.626,360.579a5.748,5.748,0,0,1-.778-.9c-.527-.677-1.195-1.533-1.991-2.554-1.674-2.163-3.986-5.148-6.579-8.415s-4.976-6.2-6.7-8.318l-2.035-2.519a5.7,5.7,0,0,1-.7-.962,5.861,5.861,0,0,1,.841.844c.519.562,1.254,1.39,2.15,2.424,1.793,2.068,4.219,4.969,6.816,8.24s4.87,6.292,6.477,8.507c.8,1.108,1.443,2.011,1.873,2.645A5.86,5.86,0,0,1,397.626,360.579Z" fill="#263238"/><path d="M391.414,352.605a11.432,11.432,0,0,1-2.6-4.871,13.927,13.927,0,0,1-.59-4.912l.207.017c-.093.375-.16.573-.2.567s-.039-.215-.008-.6l.206.017a22.451,22.451,0,0,0,.831,4.778A36.489,36.489,0,0,0,391.414,352.605Z" fill="#263238"/><path d="M383.395,342.518a8.391,8.391,0,0,0-1.816-1.056,12.176,12.176,0,0,0-5.045-.4,31.219,31.219,0,0,0-5.079.82,15.493,15.493,0,0,1-2.091.5,7.247,7.247,0,0,1,2-.821,23.2,23.2,0,0,1,5.133-.968,11.011,11.011,0,0,1,5.2.561A3.218,3.218,0,0,1,383.395,342.518Z" fill="#263238"/><path d="M381.494,340.073c-.035.073-1.058-.424-2.783-1.013a28.008,28.008,0,0,0-14.027-1.07c-1.795.321-2.881.657-2.9.58a2.62,2.62,0,0,1,.738-.314,17.187,17.187,0,0,1,2.1-.591,24.763,24.763,0,0,1,14.205,1.083,17.476,17.476,0,0,1,1.989.9A2.655,2.655,0,0,1,381.494,340.073Z" fill="#263238"/><path d="M397.564,329.735a57.3,57.3,0,0,1-2.03-7.051,57.456,57.456,0,0,1-1.576-7.167,57.714,57.714,0,0,1,2.03,7.052A57.642,57.642,0,0,1,397.564,329.735Z" fill="#263238"/><path d="M397.693,329.735a34.108,34.108,0,0,0-2.25-4.221,18.6,18.6,0,0,0-3.311-3.418,3.091,3.091,0,0,1,1.278.659,10.3,10.3,0,0,1,2.416,2.49A9.361,9.361,0,0,1,397.693,329.735Z" fill="#263238"/><path d="M397.6,422.646c-.05.008-.146-.779-.511-2.155a30.7,30.7,0,0,0-2.166-5.613,77.687,77.687,0,0,0-11.494-16.193c-2.566-2.931-5.055-5.7-7.168-8.345a58.6,58.6,0,0,1-5.127-7.393,35.51,35.51,0,0,1-2.587-5.487c-.238-.676-.413-1.2-.509-1.569a2.709,2.709,0,0,1-.133-.56c.042-.013.278.742.812,2.063a40.133,40.133,0,0,0,2.7,5.385,62.1,62.1,0,0,0,5.177,7.29c2.121,2.621,4.614,5.371,7.185,8.308,5.192,5.828,9.258,11.7,11.439,16.357a27.969,27.969,0,0,1,2.045,5.713,15.923,15.923,0,0,1,.287,1.626A2.6,2.6,0,0,1,397.6,422.646Z" fill="#263238"/><path d="M423.2,393.732a11.462,11.462,0,0,1-1.341.753,29.322,29.322,0,0,0-3.48,2.3,39.9,39.9,0,0,0-4.57,4.168c-1.6,1.695-3.257,3.663-4.943,5.771-3.372,4.231-6.525,7.974-8.414,10.962-.958,1.482-1.655,2.732-2.112,3.609a11.52,11.52,0,0,1-.739,1.35,1.347,1.347,0,0,1,.125-.38c.1-.241.235-.6.45-1.051a34.21,34.21,0,0,1,2-3.7,120.808,120.808,0,0,1,8.328-11.078c1.69-2.113,3.363-4.085,5-5.777a37.035,37.035,0,0,1,4.683-4.134,24.349,24.349,0,0,1,3.594-2.2c.445-.223.807-.36,1.047-.464A1.351,1.351,0,0,1,423.2,393.732Z" fill="#263238"/><path d="M423.7,403.112a19.221,19.221,0,0,1-2.835.412,37.426,37.426,0,0,0-6.726,1.325,20.227,20.227,0,0,0-6.021,3.16c-1.389,1.073-2.043,1.96-2.107,1.908a2.144,2.144,0,0,1,.42-.652,10.636,10.636,0,0,1,1.477-1.513,18.239,18.239,0,0,1,6.088-3.349,30.362,30.362,0,0,1,6.836-1.208A15.8,15.8,0,0,1,423.7,403.112Z" fill="#263238"/><path d="M406.834,408.887c-.148-.084,1.13-2.036,2.122-4.662.93-2.649,1.148-4.972,1.314-4.946a4.485,4.485,0,0,1-.047,1.522,16.258,16.258,0,0,1-.827,3.584,17.286,17.286,0,0,1-1.645,3.288A4.565,4.565,0,0,1,406.834,408.887Z" fill="#263238"/><path d="M431.486,368.55a2.121,2.121,0,0,1-.454.241l-1.332.606c-.584.25-1.293.567-2.091.988s-1.736.839-2.709,1.424l-1.548.88c-.536.308-1.067.674-1.631,1.028-1.141.691-2.283,1.544-3.5,2.414a60.087,60.087,0,0,0-13.488,13.957c-.828,1.249-1.641,2.42-2.293,3.584-.334.576-.682,1.119-.972,1.665l-.826,1.577c-.551.993-.945,1.941-1.33,2.756s-.687,1.531-.917,2.123l-.56,1.353a2.149,2.149,0,0,1-.225.461,2.118,2.118,0,0,1,.136-.493c.127-.366.285-.825.479-1.387.205-.6.474-1.336.847-2.161s.739-1.793,1.274-2.8l.8-1.6c.284-.554.626-1.105.955-1.69.642-1.18,1.448-2.367,2.272-3.632a57.92,57.92,0,0,1,13.587-14.059c1.236-.867,2.395-1.713,3.552-2.395.573-.349,1.112-.71,1.656-1.012l1.572-.859c.989-.569,1.939-.977,2.755-1.369s1.535-.695,2.132-.92L431,368.7A2.108,2.108,0,0,1,431.486,368.55Z" fill="#263238"/><path d="M411.226,382.124a3.261,3.261,0,0,1,1.114-1.659,7.033,7.033,0,0,1,4.489-1.722,12.255,12.255,0,0,1,4.723.923,6.745,6.745,0,0,1,1.786.867,10.844,10.844,0,0,1-1.9-.554,14.268,14.268,0,0,0-4.6-.768,7.315,7.315,0,0,0-4.288,1.505A13.333,13.333,0,0,0,411.226,382.124Z" fill="#263238"/><path d="M408.2,385.248a11.988,11.988,0,0,0,.989-8.475,2.753,2.753,0,0,1,.526,1.208,8.565,8.565,0,0,1-.725,6.213C408.592,384.911,408.243,385.281,408.2,385.248Z" fill="#263238"/><path d="M375.207,427.291c.7,12.389,4.432,24.988,10.174,37.727h24.97c5.476-12.612,8.952-25.192,9.57-37.727Z" fill="#455a64"/><path d="M415.874,447.338c0,.13-8.222.235-18.361.235s-18.363-.105-18.363-.235,8.22-.234,18.363-.234S415.874,447.209,415.874,447.338Z" fill="#fafafa"/><path d="M415.316,451.826c0,.13-7.708.235-17.213.235s-17.215-.105-17.215-.235,7.706-.234,17.215-.234S415.316,451.7,415.316,451.826Z" fill="#fafafa"/><path d="M246,139.976c0-2.415,1.268-3.856,3.023-3.856s3.033,1.441,3.033,3.856-1.278,3.857-3.033,3.857S246,142.392,246,139.976Zm5.254,0c0-2.026-.91-3.141-2.231-3.141s-2.232,1.115-2.232,3.141.911,3.143,2.232,3.143S251.258,142,251.258,139.976Z" fill="#feab45"/><path d="M253.177,139.976c0-2.415,1.268-3.856,3.023-3.856s3.033,1.441,3.033,3.856-1.278,3.857-3.033,3.857S253.177,142.392,253.177,139.976Zm5.254,0c0-2.026-.91-3.141-2.231-3.141s-2.232,1.115-2.232,3.141.911,3.143,2.232,3.143S258.431,142,258.431,139.976Z" fill="#feab45"/><path d="M262.43,136.185v7.583h-.78v-6.89h-1.787v-.693Z" fill="#feab45"/><path d="M264.24,139.976c0-2.415,1.267-3.856,3.022-3.856s3.033,1.441,3.033,3.856-1.278,3.857-3.033,3.857S264.24,142.392,264.24,139.976Zm5.254,0c0-2.026-.91-3.141-2.232-3.141s-2.231,1.115-2.231,3.141.91,3.143,2.231,3.143S269.494,142,269.494,139.976Z" fill="#feab45"/><path d="M273.493,136.185v7.583h-.781v-6.89h-1.787v-.693Z" fill="#feab45"/><path d="M238.537,150.74c0-2.415,1.267-3.856,3.022-3.856s3.033,1.441,3.033,3.856-1.278,3.857-3.033,3.857S238.537,153.157,238.537,150.74Zm5.254,0c0-2.025-.911-3.141-2.232-3.141s-2.231,1.116-2.231,3.141.91,3.143,2.231,3.143S243.791,152.766,243.791,150.74Z" fill="#feab45"/><path d="M245.71,150.74c0-2.415,1.267-3.856,3.022-3.856s3.033,1.441,3.033,3.856-1.278,3.857-3.033,3.857S245.71,153.157,245.71,150.74Zm5.253,0c0-2.025-.91-3.141-2.231-3.141s-2.231,1.116-2.231,3.141.91,3.143,2.231,3.143S250.963,152.766,250.963,150.74Z" fill="#feab45"/><path d="M254.962,146.949v7.584h-.78v-6.891H252.4v-.693Z" fill="#feab45"/><path d="M256.772,150.74c0-2.415,1.268-3.856,3.023-3.856s3.033,1.441,3.033,3.856-1.279,3.857-3.033,3.857S256.772,153.157,256.772,150.74Zm5.254,0c0-2.025-.91-3.141-2.231-3.141s-2.232,1.116-2.232,3.141.91,3.143,2.232,3.143S262.026,152.766,262.026,150.74Z" fill="#feab45"/><path d="M266.025,146.949v7.584h-.78v-6.891h-1.787v-.693Z" fill="#feab45"/><path d="M269.936,146.949v7.584h-.78v-6.891h-1.787v-.693Z" fill="#feab45"/><path d="M271.746,150.74c0-2.415,1.267-3.856,3.022-3.856s3.033,1.441,3.033,3.856-1.278,3.857-3.033,3.857S271.746,153.157,271.746,150.74Zm5.254,0c0-2.025-.911-3.141-2.232-3.141s-2.231,1.116-2.231,3.141.91,3.143,2.231,3.143S277,152.766,277,150.74Z" fill="#feab45"/><path d="M281,146.949v7.584h-.781v-6.891h-1.787v-.693Z" fill="#feab45"/><path d="M246.005,161.15c0-2.415,1.268-3.856,3.023-3.856s3.033,1.441,3.033,3.856-1.278,3.857-3.033,3.857S246.005,163.566,246.005,161.15Zm5.254,0c0-2.026-.91-3.141-2.231-3.141s-2.232,1.115-2.232,3.141.911,3.142,2.232,3.142S251.259,163.176,251.259,161.15Z" fill="#feab45"/><path d="M255.258,157.359v7.583h-.78v-6.89h-1.787v-.693Z" fill="#feab45"/><path d="M259.17,157.359v7.583h-.781v-6.89H256.6v-.693Z" fill="#feab45"/><path d="M263.081,157.359v7.583H262.3v-6.89h-1.787v-.693Z" fill="#feab45"/><path d="M264.891,161.15c0-2.415,1.268-3.856,3.023-3.856s3.033,1.441,3.033,3.856-1.278,3.857-3.033,3.857S264.891,163.566,264.891,161.15Zm5.254,0c0-2.026-.91-3.141-2.231-3.141s-2.232,1.115-2.232,3.141.91,3.142,2.232,3.142S270.145,163.176,270.145,161.15Z" fill="#feab45"/><path d="M274.143,157.359v7.583h-.78v-6.89h-1.787v-.693Z" fill="#feab45"/><path d="M275.113,60.581s.172-.009.507,0l1.489.05c.327.016.694.017,1.1.051l1.312.188,1.533.222,1.71.428a30.565,30.565,0,0,1,3.934,1.307l2.144,1.021c.739.362,1.448.848,2.214,1.292a29.32,29.32,0,0,1,13.48,21.967,31.356,31.356,0,0,1,.09,4.007c-.043.678-.045,1.366-.122,2.051q-.154,1.024-.312,2.064a28.921,28.921,0,0,1-2.752,8.163A29.3,29.3,0,0,1,288.511,116.3c-.731.336-1.441.733-2.2,1.023l-2.3.843c-.788.224-1.589.415-2.388.625a23.482,23.482,0,0,1-2.447.431c-.412.054-.822.146-1.238.169l-1.254.064c-.837.042-1.676.1-2.521.064a29.56,29.56,0,0,1-13.231-3.6l.236.006-9.85,4.689-.454.216.094-.494c.706-3.728,1.394-7.36,2.059-10.873l.059.211a29.5,29.5,0,0,1-6.961-25.445,29.028,29.028,0,0,1,4.4-10.636,29.833,29.833,0,0,1,6.8-7.156,31.211,31.211,0,0,1,3.575-2.335c.589-.323,1.191-.579,1.756-.858a12.652,12.652,0,0,1,1.68-.72,23.874,23.874,0,0,1,3.109-1,19.634,19.634,0,0,1,2.666-.57c.81-.11,1.524-.233,2.145-.293l1.577-.059.963-.028a2.01,2.01,0,0,1,.326.005,1.934,1.934,0,0,1-.326.038l-.96.07-1.568.1c-.617.072-1.326.208-2.129.331a19.961,19.961,0,0,0-2.641.6,23.987,23.987,0,0,0-3.074,1.028,12.572,12.572,0,0,0-1.659.73c-.558.282-1.152.541-1.732.865a31.344,31.344,0,0,0-3.522,2.34,29.662,29.662,0,0,0-6.678,7.116,28.71,28.71,0,0,0-4.294,10.512,29.1,29.1,0,0,0,6.916,25.034l.082.091-.023.12c-.66,3.514-1.343,7.147-2.044,10.876l-.36-.278,9.846-4.7.119-.057.117.064a29.012,29.012,0,0,0,8.034,2.945,29.322,29.322,0,0,0,4.965.587c.829.037,1.654-.021,2.477-.063l1.232-.061c.409-.022.811-.113,1.216-.166a22.937,22.937,0,0,0,2.4-.422c.785-.206,1.572-.393,2.346-.612l2.259-.826c.746-.285,1.443-.674,2.163-1a28.832,28.832,0,0,0,12.73-12.673,28.5,28.5,0,0,0,2.728-8.026q.159-1.023.314-2.031c.078-.674.082-1.352.126-2.019a31.4,31.4,0,0,0-.074-3.949A29.092,29.092,0,0,0,290.9,65.383c-.756-.444-1.454-.932-2.183-1.3L286.6,63.054a31.1,31.1,0,0,0-3.888-1.34l-1.694-.447-1.52-.245-1.3-.211c-.4-.042-.765-.052-1.09-.077l-1.483-.1C275.285,60.608,275.113,60.581,275.113,60.581Z" fill="#455a64"/><path d="M282.821,97.377a3.334,3.334,0,0,1,.517-.587l1.5-1.508c1.277-1.262,3.058-2.988,5.041-4.878l.045-.043v.255c-2-1.856-3.79-3.547-5.075-4.784l-1.509-1.477a3.371,3.371,0,0,1-.521-.576,3.347,3.347,0,0,1,.612.476l1.585,1.4c1.328,1.19,3.147,2.853,5.145,4.708l.136.127-.135.128-.045.043c-1.982,1.891-3.79,3.588-5.111,4.8l-1.576,1.428A3.368,3.368,0,0,1,282.821,97.377Z" fill="#feab45"/><path d="M282.809,97.641a.236.236,0,0,1-.17-.092c-.188-.2-.066-.326.52-.933l1.5-1.51c1.263-1.249,2.946-2.878,4.764-4.614-1.8-1.679-3.479-3.26-4.747-4.479l-1.511-1.479c-.6-.6-.718-.726-.528-.927s.331-.076.956.458l1.588,1.4c1.381,1.238,3.209,2.91,5.15,4.712l.136.127a.244.244,0,0,1,.08.181.252.252,0,0,1-.077.183l-.135.128c-1.943,1.853-3.759,3.56-5.16,4.85L283.6,97.074C283.152,97.467,282.954,97.641,282.809,97.641Z" fill="#feab45"/><path d="M267.406,83.779a3.481,3.481,0,0,1-.518.587l-1.5,1.508c-1.278,1.262-3.059,2.988-5.041,4.878l-.045.043,0-.255c2,1.856,3.79,3.547,5.075,4.784l1.51,1.477a3.375,3.375,0,0,1,.521.576,3.326,3.326,0,0,1-.613-.476l-1.584-1.4c-1.328-1.19-3.147-2.853-5.145-4.708l-.136-.127.134-.128.045-.043c1.982-1.891,3.79-3.588,5.111-4.8l1.577-1.428A3.325,3.325,0,0,1,267.406,83.779Z" fill="#feab45"/><path d="M267.418,97.64c-.144,0-.342-.169-.787-.549l-1.587-1.4c-1.4-1.255-3.229-2.928-5.15-4.712l-.137-.126a.255.255,0,0,1-.08-.182.252.252,0,0,1,.077-.183l.135-.128c1.972-1.881,3.788-3.588,5.16-4.85l1.578-1.429c.637-.56.771-.677.96-.475s.067.325-.519.932l-1.5,1.511c-1.264,1.249-2.946,2.878-4.765,4.614,1.8,1.679,3.48,3.26,4.747,4.479l1.511,1.479c.6.6.719.725.528.927A.231.231,0,0,1,267.418,97.64Z" fill="#feab45"/><path d="M271.362,100.58c-.09-.034,1.528-4.582,3.614-10.157s3.85-10.07,3.94-10.036-1.528,4.582-3.614,10.159S271.453,100.614,271.362,100.58Z" fill="#feab45"/><path d="M271.4,100.847a.354.354,0,0,1-.123-.033h0c-.289-.109-.4-.149,3.467-10.479,3.753-10.032,3.981-10.136,4.067-10.175a.254.254,0,0,1,.2-.006c.289.108.4.149-3.467,10.479-1.01,2.7-1.976,5.23-2.72,7.125C271.769,100.428,271.6,100.847,271.4,100.847Z" fill="#feab45"/><rect width="86.66" height="35.2" transform="translate(338.504 190.061)" fill="#fff"/><path d="M425.163,225.261s-.006-.216-.01-.628-.005-1.028-.01-1.827c-.005-1.606-.013-3.965-.024-7.005-.012-6.075-.03-14.863-.052-25.739l.1.1-86.653.041H338.5l.137-.137c0,12.326,0,24.225-.006,35.2l-.131-.131,62.133.062,18.024.036,4.824.017,1.249.008c.282,0,.429.008.429.008s-.136.006-.412.008l-1.234.009-4.8.016-17.994.037-62.222.062h-.132v-.132c0-10.974,0-22.873-.005-35.2v-.138h.143l86.653.041h.1v.1c-.022,10.9-.04,19.709-.052,25.8-.011,3.03-.019,5.382-.024,6.983q-.008,1.188-.011,1.809C425.17,225.058,425.163,225.261,425.163,225.261Z" fill="#feab45"/><rect width="20.932" height="20.932" transform="translate(345.869 198.125)" fill="#feab45"/><path d="M419.167,206.139c0,.076-10.771.137-24.055.137s-24.057-.061-24.057-.137S381.824,206,395.112,206,419.167,206.063,419.167,206.139Z" fill="#feab45"/><path d="M419.167,210.4c0,.076-10.771.137-24.055.137s-24.057-.061-24.057-.137,10.769-.137,24.057-.137S419.167,210.328,419.167,210.4Z" fill="#feab45"/><path d="M402.027,214.667a1.319,1.319,0,0,1-.315.028l-.9.026-3.319.043-10.949.041-10.952-.041-3.318-.043-.9-.026a1.315,1.315,0,0,1-.314-.028,1.433,1.433,0,0,1,.314-.027l.9-.026,3.318-.044,10.952-.04,10.949.04,3.319.044.9.026A1.439,1.439,0,0,1,402.027,214.667Z" fill="#feab45"/><rect width="91.425" height="60.329" transform="translate(309.692 119.033)" fill="#fafafa"/><path d="M401.117,179.362s-.015-.382-.022-1.1-.013-1.8-.023-3.187c-.013-2.8-.03-6.9-.053-12.136-.026-10.481-.064-25.535-.109-43.9l.207.207-91.418.053h-.007l.26-.26c-.007,21.466-.015,41.888-.021,60.329l-.239-.239,65.821.118,18.838.064,5.018.029,1.3.014c.293,0,.449.014.449.014s-.137.01-.421.014l-1.272.014-4.97.029-18.784.065-65.978.117h-.239v-.24c-.007-18.441-.014-38.863-.022-60.329v-.26h.268l91.418.052h.208v.207c-.046,18.421-.083,33.519-.109,44.031-.023,5.22-.041,9.3-.053,12.089q-.015,2.057-.023,3.148C401.132,179.01,401.117,179.362,401.117,179.362Z" fill="#263238"/><path d="M401.536,125.187c0,.144-20.42.26-45.6.26s-45.608-.116-45.608-.26,20.416-.26,45.608-.26S401.536,125.043,401.536,125.187Z" fill="#263238"/><rect width="29.131" height="38.403" transform="translate(317.646 133.875)" fill="#feab45"/><path d="M393.163,135.666c0,.143-9.143.26-20.418.26s-20.421-.117-20.421-.26,9.141-.261,20.421-.261S393.163,135.522,393.163,135.666Z" fill="#feab45"/><path d="M393.163,140.471c0,.144-9.143.26-20.418.26s-20.421-.116-20.421-.26,9.141-.26,20.421-.26S393.163,140.327,393.163,140.471Z" fill="#feab45"/><path d="M393.163,145.277c0,.144-9.143.26-20.418.26s-20.421-.116-20.421-.26,9.141-.261,20.421-.261S393.163,145.133,393.163,145.277Z" fill="#feab45"/><path d="M393.163,150.082c0,.144-9.143.261-20.418.261s-20.421-.117-20.421-.261,9.141-.26,20.421-.26S393.163,149.938,393.163,150.082Z" fill="#feab45"/><rect width="16.416" height="18.215" transform="translate(375.484 154.063)" fill="#feab45"/><path d="M372.789,154.888a95.769,95.769,0,0,1-9.975.26,95.78,95.78,0,0,1-9.976-.26,95.6,95.6,0,0,1,9.976-.261A95.585,95.585,0,0,1,372.789,154.888Z" fill="#feab45"/><path d="M372.789,159.693a95.58,95.58,0,0,1-9.975.261,95.591,95.591,0,0,1-9.976-.261,96.116,96.116,0,0,1,9.976-.26A96.1,96.1,0,0,1,372.789,159.693Z" fill="#feab45"/><path d="M372.789,165.263a95.585,95.585,0,0,1-9.975.261,95.6,95.6,0,0,1-9.976-.261,96.111,96.111,0,0,1,9.976-.26A96.1,96.1,0,0,1,372.789,165.263Z" fill="#feab45"/><path d="M372.275,170.944a95.784,95.784,0,0,1-9.975.26,95.765,95.765,0,0,1-9.976-.26,95.765,95.765,0,0,1,9.976-.26A95.784,95.784,0,0,1,372.275,170.944Z" fill="#feab45"/><path d="M163.08,150.337a3.185,3.185,0,0,1-.022-.393c-.005-.281-.012-.646-.021-1.1-.012-.994-.029-2.39-.05-4.154-.024-3.588-.058-8.662-.1-14.77l.192.191-25.487.039c-.053.05.434-.435.228-.227v2.741q0,1.363,0,2.7c0,1.785,0,3.538,0,5.25-.007,3.423-.013,6.685-.018,9.725l-.207-.206,18.361.1,5.234.055,1.4.024a4.3,4.3,0,0,1,.5.024,2.994,2.994,0,0,1-.451.024l-1.357.024-5.187.055-18.5.1h-.206v-.207c-.006-3.04-.012-6.3-.018-9.725,0-1.712,0-3.465-.005-5.25v-5.444c-.206.2.28-.285.233-.234l25.487.039h.193l0,.192c-.041,6.158-.075,11.274-.1,14.89-.021,1.746-.038,3.128-.049,4.112-.009.444-.017.8-.022,1.068A2.063,2.063,0,0,1,163.08,150.337Z" fill="#feab45"/><path d="M159.821,142.886a13.022,13.022,0,0,1-1.592-1.382c-.98-.907-2.36-2.214-3.99-3.779l.3-.011-4.045,4.624-.162.184-.148.168-.172-.143-2.5-2.071.291-.006c-2.205,1.967-4.13,3.66-5.512,4.851l-1.633,1.382a2.973,2.973,0,0,1-.624.459,2.969,2.969,0,0,1,.522-.573l1.546-1.479c1.329-1.249,3.215-2.985,5.4-4.972l.141-.128.15.122,2.509,2.06-.319.025.163-.184,4.081-4.591.146-.164.153.152c1.6,1.593,2.943,2.94,3.873,3.9A13.272,13.272,0,0,1,159.821,142.886Z" fill="#feab45"/><path d="M146.463,135.87c-.033.02-.144-.149-.4-.381a2.256,2.256,0,0,0-1.29-.567,2.106,2.106,0,0,0-1.832.761,2.054,2.054,0,0,0,1.924,3.331,2.109,2.109,0,0,0,1.575-1.205,2.26,2.26,0,0,0,.153-1.4c-.071-.338-.162-.519-.128-.537s.167.137.3.488a2.252,2.252,0,0,1-.025,1.577,2.412,2.412,0,0,1-1.8,1.5,2.461,2.461,0,0,1-2.323-4.024,2.411,2.411,0,0,1,2.2-.811,2.252,2.252,0,0,1,1.378.766C146.428,135.656,146.485,135.859,146.463,135.87Z" fill="#feab45"/><path d="M134.629,144.77c-.033.02-.144-.148-.4-.38a2.263,2.263,0,0,0-1.291-.568,2.109,2.109,0,0,0-1.831.762,2.055,2.055,0,0,0,1.924,3.331,2.109,2.109,0,0,0,1.575-1.2,2.267,2.267,0,0,0,.153-1.4c-.071-.339-.162-.519-.128-.538s.167.138.3.489a2.252,2.252,0,0,1-.025,1.577,2.411,2.411,0,0,1-1.8,1.5,2.461,2.461,0,0,1-2.323-4.023,2.411,2.411,0,0,1,2.2-.811,2.252,2.252,0,0,1,1.378.766C134.594,144.557,134.651,144.759,134.629,144.77Z" fill="#feab45"/><path d="M150.335,151.236a1.776,1.776,0,0,1,.04.434c.009.33.022.747.037,1.262.016,1.158.039,2.756.066,4.751l0,.142h-.145c-5.269.053-13.554.088-22.85.088h-1.406v-.23c.024-7.255.046-13.819.062-18.778v-.17l.168,0,6.839.075,1.86.045a3.44,3.44,0,0,1,.649.048,3.269,3.269,0,0,1-.649.049l-1.86.045-6.839.075.168-.169c.016,4.959.038,11.523.062,18.778l-.23-.23h1.174c9.3,0,17.581.034,22.85.088l-.143.143c.027-1.995.05-3.593.066-4.751.015-.515.027-.932.037-1.262A1.774,1.774,0,0,1,150.335,151.236Z" fill="#feab45"/><path d="M136.228,149.078a35.616,35.616,0,0,1-3.687,3.5,35.856,35.856,0,0,1-3.864,3.3,23.327,23.327,0,0,1,3.556-3.645A23.434,23.434,0,0,1,136.228,149.078Z" fill="#feab45"/><path d="M141.373,154.206c-.078.1-.771-.344-1.434-1.1s-1.019-1.489-.914-1.555.619.531,1.259,1.249S141.457,154.106,141.373,154.206Z" fill="#feab45"/><path d="M171.3,168.934s-.013-.326-.02-.944-.011-1.54-.019-2.729c-.011-2.4-.026-5.909-.046-10.412-.022-9.005-.055-21.968-.1-37.861l.179.179-87.078.051h-.007l.231-.23c-.006,18.4-.012,35.961-.017,51.946l-.214-.214,62.634.1,17.984.058,4.8.026,1.241.013c.281,0,.43.012.43.012s-.132.009-.4.013l-1.218.013-4.753.026-17.935.058-62.776.1H84v-.214c0-15.985-.011-33.548-.017-51.946v-.231h.238l87.078.052h.18v.179c-.04,15.94-.073,28.94-.1,37.972-.02,4.485-.035,7.981-.045,10.372-.009,1.174-.016,2.074-.02,2.695S171.3,168.934,171.3,168.934Z" fill="#feab45"/><rect width="26.529" height="1.936" transform="translate(91.266 129.152)" fill="#feab45"/><path d="M116.724,138.737c0,.127-5.787.231-12.925.231s-12.927-.1-12.927-.231,5.786-.231,12.927-.231S116.724,138.61,116.724,138.737Z" fill="#feab45"/><path d="M116.724,143.034c0,.128-5.787.231-12.925.231s-12.927-.1-12.927-.231,5.786-.23,12.927-.23S116.724,142.907,116.724,143.034Z" fill="#feab45"/><path d="M116.724,147.332c0,.127-5.787.23-12.925.23s-12.927-.1-12.927-.23,5.786-.231,12.927-.231S116.724,147.2,116.724,147.332Z" fill="#feab45"/><path d="M116.724,151.629c0,.127-5.787.23-12.925.23s-12.927-.1-12.927-.23,5.786-.231,12.927-.231S116.724,151.5,116.724,151.629Z" fill="#feab45"/><path d="M102.5,155.842a36.972,36.972,0,0,1-5.816.23,36.98,36.98,0,0,1-5.817-.23,36.759,36.759,0,0,1,5.817-.231A36.751,36.751,0,0,1,102.5,155.842Z" fill="#feab45"/><path d="M358.218,250.608c0,.08-11.312.145-25.262.145s-25.264-.065-25.264-.145,11.309-.144,25.264-.144S358.218,250.529,358.218,250.608Z" fill="#feab45"/><path d="M358.218,255.086c0,.08-11.312.145-25.262.145s-25.264-.065-25.264-.145,11.309-.144,25.264-.144S358.218,255.007,358.218,255.086Z" fill="#feab45"/><path d="M340.218,259.565a1.566,1.566,0,0,1-.331.029l-.948.027-3.485.045-11.5.043-11.5-.043-3.485-.045-.948-.027a1.561,1.561,0,0,1-.33-.029,1.434,1.434,0,0,1,.33-.03l.948-.027,3.485-.045,11.5-.043,11.5.043,3.485.045.948.027A1.439,1.439,0,0,1,340.218,259.565Z" fill="#feab45"/><path d="M362.9,271.237c0-.116.364-.211.812-.211s.811.1.811.211-.363.212-.811.212S362.9,271.354,362.9,271.237Z" fill="#feab45"/><path d="M359.657,271.237c0-.116.363-.211.811-.211s.812.1.812.211-.364.212-.812.212S359.657,271.354,359.657,271.237Z" fill="#feab45"/><path d="M356.412,271.237c0-.116.363-.211.811-.211s.811.1.811.211-.363.212-.811.212S356.412,271.354,356.412,271.237Z" fill="#feab45"/><path d="M353.167,271.237c0-.116.363-.211.811-.211s.811.1.811.211-.363.212-.811.212S353.167,271.354,353.167,271.237Z" fill="#feab45"/><path d="M349.921,271.237c0-.116.364-.211.812-.211s.811.1.811.211-.363.212-.811.212S349.921,271.354,349.921,271.237Z" fill="#feab45"/><path d="M346.676,271.237c0-.116.363-.211.811-.211s.812.1.812.211-.363.212-.812.212S346.676,271.354,346.676,271.237Z" fill="#feab45"/><path d="M343.431,271.237c0-.116.363-.211.811-.211s.812.1.812.211-.364.212-.812.212S343.431,271.354,343.431,271.237Z" fill="#feab45"/><path d="M340.186,271.237c0-.116.363-.211.811-.211s.811.1.811.211-.363.212-.811.212S340.186,271.354,340.186,271.237Z" fill="#feab45"/><path d="M336.941,271.237c0-.116.363-.211.811-.211s.811.1.811.211-.363.212-.811.212S336.941,271.354,336.941,271.237Z" fill="#feab45"/><path d="M333.7,271.237c0-.116.364-.211.812-.211s.811.1.811.211-.363.212-.811.212S333.7,271.354,333.7,271.237Z" fill="#feab45"/><path d="M330.45,271.237c0-.116.363-.211.811-.211s.812.1.812.211-.364.212-.812.212S330.45,271.354,330.45,271.237Z" fill="#feab45"/><path d="M327.2,271.237c0-.116.363-.211.811-.211s.811.1.811.211-.363.212-.811.212S327.2,271.354,327.2,271.237Z" fill="#feab45"/><path d="M323.96,271.237c0-.116.363-.211.811-.211s.811.1.811.211-.363.212-.811.212S323.96,271.354,323.96,271.237Z" fill="#feab45"/><path d="M320.714,271.237c0-.116.364-.211.812-.211s.811.1.811.211-.363.212-.811.212S320.714,271.354,320.714,271.237Z" fill="#feab45"/><path d="M317.469,271.237c0-.116.363-.211.811-.211s.812.1.812.211-.363.212-.812.212S317.469,271.354,317.469,271.237Z" fill="#feab45"/><path d="M314.224,271.237c0-.116.363-.211.811-.211s.812.1.812.211-.364.212-.812.212S314.224,271.354,314.224,271.237Z" fill="#feab45"/><path d="M310.979,271.237c0-.116.363-.211.811-.211s.811.1.811.211-.363.212-.811.212S310.979,271.354,310.979,271.237Z" fill="#feab45"/><path d="M307.733,271.237c0-.116.364-.211.812-.211s.811.1.811.211-.363.212-.811.212S307.733,271.354,307.733,271.237Z" fill="#feab45"/><path d="M304.488,271.237c0-.116.363-.211.811-.211s.812.1.812.211-.363.212-.812.212S304.488,271.354,304.488,271.237Z" fill="#feab45"/><path d="M301.243,271.237c0-.116.363-.211.811-.211s.812.1.812.211-.364.212-.812.212S301.243,271.354,301.243,271.237Z" fill="#feab45"/><path d="M298,271.237c0-.116.363-.211.811-.211s.811.1.811.211-.363.212-.811.212S298,271.354,298,271.237Z" fill="#feab45"/><path d="M294.753,271.237c0-.116.363-.211.811-.211s.811.1.811.211-.363.212-.811.212S294.753,271.354,294.753,271.237Z" fill="#feab45"/><path d="M291.507,271.237c0-.116.364-.211.812-.211s.811.1.811.211-.363.212-.811.212S291.507,271.354,291.507,271.237Z" fill="#feab45"/><path d="M288.262,271.237c0-.116.363-.211.811-.211s.812.1.812.211-.363.212-.812.212S288.262,271.354,288.262,271.237Z" fill="#feab45"/><path d="M285.017,271.237c0-.116.363-.211.811-.211s.812.1.812.211-.364.212-.812.212S285.017,271.354,285.017,271.237Z" fill="#feab45"/><path d="M281.772,271.237c0-.116.363-.211.811-.211s.811.1.811.211-.363.212-.811.212S281.772,271.354,281.772,271.237Z" fill="#feab45"/><path d="M278.526,271.237c0-.116.364-.211.812-.211s.811.1.811.211-.363.212-.811.212S278.526,271.354,278.526,271.237Z" fill="#feab45"/><path d="M275.281,271.237c0-.116.363-.211.811-.211s.812.1.812.211-.363.212-.812.212S275.281,271.354,275.281,271.237Z" fill="#feab45"/><path d="M273.515,269.759c.116,0,.211.363.211.811a2.067,2.067,0,0,1-.091.667l-.12-.12c.091.034.144.076.144.12s-.053.086-.144.12l-.066.025-.054-.145a2.063,2.063,0,0,1-.092-.667C273.3,270.122,273.4,269.759,273.515,269.759Z" fill="#feab45"/><ellipse cx="0.211" cy="0.811" rx="0.211" ry="0.811" transform="translate(273.303 266.513)" fill="#feab45"/><ellipse cx="0.211" cy="0.811" rx="0.211" ry="0.811" transform="translate(273.303 263.268)" fill="#feab45"/><ellipse cx="0.211" cy="0.811" rx="0.211" ry="0.811" transform="translate(273.303 260.023)" fill="#feab45"/><ellipse cx="0.211" cy="0.811" rx="0.211" ry="0.811" transform="translate(273.303 256.778)" fill="#feab45"/><ellipse cx="0.211" cy="0.811" rx="0.211" ry="0.811" transform="translate(273.303 253.533)" fill="#feab45"/><ellipse cx="0.211" cy="0.811" rx="0.211" ry="0.811" transform="translate(273.303 250.287)" fill="#feab45"/><path d="M273.515,247.042c.116,0,.211.363.211.811s-.1.812-.211.812-.212-.363-.212-.812S273.4,247.042,273.515,247.042Z" fill="#feab45"/><ellipse cx="0.211" cy="0.811" rx="0.211" ry="0.811" transform="translate(273.303 243.797)" fill="#feab45"/><ellipse cx="0.211" cy="0.811" rx="0.211" ry="0.811" transform="translate(273.303 240.552)" fill="#feab45"/><ellipse cx="0.211" cy="0.811" rx="0.211" ry="0.811" transform="translate(273.303 237.306)" fill="#feab45"/><path d="M274.221,234.768c0,.107-.307.2-.706.209l.209-.209,0,.1c0,.448-.1.811-.211.811s-.212-.363-.212-.811l0-.1,0-.217.206.007C273.914,234.572,274.221,234.66,274.221,234.768Z" fill="#feab45"/><path d="M277.467,234.768c0,.117-.364.211-.812.211s-.811-.094-.811-.211.363-.211.811-.211S277.467,234.651,277.467,234.768Z" fill="#feab45"/><path d="M280.712,234.768c0,.117-.363.211-.811.211s-.812-.094-.812-.211.363-.211.812-.211S280.712,234.651,280.712,234.768Z" fill="#feab45"/><path d="M283.957,234.768c0,.117-.363.211-.811.211s-.812-.094-.812-.211.364-.211.812-.211S283.957,234.651,283.957,234.768Z" fill="#feab45"/><path d="M287.2,234.768c0,.117-.363.211-.811.211s-.811-.094-.811-.211.363-.211.811-.211S287.2,234.651,287.2,234.768Z" fill="#feab45"/><path d="M290.447,234.768c0,.117-.363.211-.811.211s-.811-.094-.811-.211.363-.211.811-.211S290.447,234.651,290.447,234.768Z" fill="#feab45"/><path d="M293.693,234.768c0,.117-.364.211-.812.211s-.811-.094-.811-.211.363-.211.811-.211S293.693,234.651,293.693,234.768Z" fill="#feab45"/><path d="M296.938,234.768c0,.117-.363.211-.811.211s-.812-.094-.812-.211.364-.211.812-.211S296.938,234.651,296.938,234.768Z" fill="#feab45"/><path d="M300.183,234.768c0,.117-.363.211-.811.211s-.811-.094-.811-.211.363-.211.811-.211S300.183,234.651,300.183,234.768Z" fill="#feab45"/><path d="M303.428,234.768c0,.117-.363.211-.811.211s-.811-.094-.811-.211.363-.211.811-.211S303.428,234.651,303.428,234.768Z" fill="#feab45"/><path d="M306.674,234.768c0,.117-.364.211-.812.211s-.811-.094-.811-.211.363-.211.811-.211S306.674,234.651,306.674,234.768Z" fill="#feab45"/><path d="M309.919,234.768c0,.117-.363.211-.811.211s-.812-.094-.812-.211.363-.211.812-.211S309.919,234.651,309.919,234.768Z" fill="#feab45"/><path d="M313.164,234.768c0,.117-.363.211-.811.211s-.812-.094-.812-.211.364-.211.812-.211S313.164,234.651,313.164,234.768Z" fill="#feab45"/><path d="M316.409,234.768c0,.117-.363.211-.811.211s-.811-.094-.811-.211.363-.211.811-.211S316.409,234.651,316.409,234.768Z" fill="#feab45"/><path d="M319.655,234.768c0,.117-.364.211-.812.211s-.811-.094-.811-.211.363-.211.811-.211S319.655,234.651,319.655,234.768Z" fill="#feab45"/><path d="M322.9,234.768c0,.117-.363.211-.811.211s-.812-.094-.812-.211.363-.211.812-.211S322.9,234.651,322.9,234.768Z" fill="#feab45"/><path d="M326.145,234.768c0,.117-.363.211-.811.211s-.812-.094-.812-.211.364-.211.812-.211S326.145,234.651,326.145,234.768Z" fill="#feab45"/><path d="M329.39,234.768c0,.117-.363.211-.811.211s-.811-.094-.811-.211.363-.211.811-.211S329.39,234.651,329.39,234.768Z" fill="#feab45"/><path d="M332.635,234.768c0,.117-.363.211-.811.211s-.811-.094-.811-.211.363-.211.811-.211S332.635,234.651,332.635,234.768Z" fill="#feab45"/><path d="M335.881,234.768c0,.117-.364.211-.812.211s-.811-.094-.811-.211.363-.211.811-.211S335.881,234.651,335.881,234.768Z" fill="#feab45"/><path d="M339.126,234.768c0,.117-.363.211-.811.211s-.812-.094-.812-.211.363-.211.812-.211S339.126,234.651,339.126,234.768Z" fill="#feab45"/><path d="M342.371,234.768c0,.117-.363.211-.811.211s-.812-.094-.812-.211.364-.211.812-.211S342.371,234.651,342.371,234.768Z" fill="#feab45"/><path d="M345.616,234.768c0,.117-.363.211-.811.211s-.811-.094-.811-.211.363-.211.811-.211S345.616,234.651,345.616,234.768Z" fill="#feab45"/><path d="M348.862,234.768c0,.117-.364.211-.812.211s-.811-.094-.811-.211.363-.211.811-.211S348.862,234.651,348.862,234.768Z" fill="#feab45"/><path d="M352.107,234.768c0,.117-.363.211-.811.211s-.812-.094-.812-.211.363-.211.812-.211S352.107,234.651,352.107,234.768Z" fill="#feab45"/><path d="M355.352,234.768c0,.117-.363.211-.811.211s-.812-.094-.812-.211.364-.211.812-.211S355.352,234.651,355.352,234.768Z" fill="#feab45"/><path d="M358.6,234.768c0,.117-.363.211-.811.211s-.811-.094-.811-.211.363-.211.811-.211S358.6,234.651,358.6,234.768Z" fill="#feab45"/><path d="M361.842,234.768c0,.117-.363.211-.811.211s-.811-.094-.811-.211.363-.211.811-.211S361.842,234.651,361.842,234.768Z" fill="#feab45"/><path d="M364.525,235.331c-.094,0-.174-.236-.2-.563l.2.2c-.077.007-.161.01-.249.01-.448,0-.811-.094-.811-.211s.363-.211.811-.211c.088,0,.172,0,.249.01l.216.018-.015.183C364.7,235.1,364.619,235.331,364.525,235.331Z" fill="#feab45"/><path d="M364.525,238.576c-.117,0-.211-.363-.211-.811s.094-.812.211-.812.211.363.211.812S364.642,238.576,364.525,238.576Z" fill="#feab45"/><path d="M364.525,241.821c-.117,0-.211-.363-.211-.811s.094-.812.211-.812.211.364.211.812S364.642,241.821,364.525,241.821Z" fill="#feab45"/><path d="M364.525,245.066c-.117,0-.211-.363-.211-.811s.094-.811.211-.811.211.363.211.811S364.642,245.066,364.525,245.066Z" fill="#feab45"/><path d="M364.525,248.312c-.117,0-.211-.364-.211-.812s.094-.811.211-.811.211.363.211.811S364.642,248.312,364.525,248.312Z" fill="#feab45"/><path d="M364.525,251.557c-.117,0-.211-.363-.211-.811s.094-.812.211-.812.211.363.211.812S364.642,251.557,364.525,251.557Z" fill="#feab45"/><path d="M364.525,254.8c-.117,0-.211-.363-.211-.811s.094-.812.211-.812.211.364.211.812S364.642,254.8,364.525,254.8Z" fill="#feab45"/><path d="M364.525,258.047c-.117,0-.211-.363-.211-.811s.094-.811.211-.811.211.363.211.811S364.642,258.047,364.525,258.047Z" fill="#feab45"/><path d="M364.525,261.292c-.117,0-.211-.363-.211-.811s.094-.811.211-.811.211.363.211.811S364.642,261.292,364.525,261.292Z" fill="#feab45"/><path d="M364.525,264.538c-.117,0-.211-.364-.211-.812s.094-.811.211-.811.211.363.211.811S364.642,264.538,364.525,264.538Z" fill="#feab45"/><path d="M364.525,267.783c-.117,0-.211-.363-.211-.811s.094-.812.211-.812.211.364.211.812S364.642,267.783,364.525,267.783Z" fill="#feab45"/><path d="M364.525,271.028c-.117,0-.211-.363-.211-.811s.094-.811.211-.811.211.363.211.811S364.642,271.028,364.525,271.028Z" fill="#feab45"/><path d="M303.6,264.824c0-.117.363-.211.811-.211l-.211.211h0v-.081l0-.08.013-.153a1.779,1.779,0,0,1,.045-.258c.038-.146.091-.237.149-.237s.112.091.15.237a1.929,1.929,0,0,1,.045.258l.012.153,0,.08v.081h0c-.1.094.211-.211-.212.211C303.96,265.035,303.6,264.941,303.6,264.824Z" fill="#feab45"/><path d="M300.567,264.824c0-.117.339-.211.757-.211s.758.094.758.211-.339.211-.758.211S300.567,264.941,300.567,264.824Z" fill="#feab45"/><path d="M297.536,264.824c0-.117.34-.211.758-.211s.758.094.758.211-.34.211-.758.211S297.536,264.941,297.536,264.824Z" fill="#feab45"/><path d="M294.506,264.824c0-.117.339-.211.758-.211s.757.094.757.211-.339.211-.757.211S294.506,264.941,294.506,264.824Z" fill="#feab45"/><path d="M291.476,264.824c0-.117.339-.211.757-.211s.758.094.758.211-.339.211-.758.211S291.476,264.941,291.476,264.824Z" fill="#feab45"/><path d="M288.446,264.824c0-.117.339-.211.757-.211s.758.094.758.211-.339.211-.758.211S288.446,264.941,288.446,264.824Z" fill="#feab45"/><path d="M285.415,264.824c0-.117.34-.211.758-.211s.757.094.757.211-.339.211-.757.211S285.415,264.941,285.415,264.824Z" fill="#feab45"/><path d="M282.385,264.824c0-.117.339-.211.758-.211s.757.094.757.211-.339.211-.757.211S282.385,264.941,282.385,264.824Z" fill="#feab45"/><path d="M280.059,264.013c.116,0,.211.363.211.811l-.211-.211h.083l.08,0,.152.013a1.759,1.759,0,0,1,.258.045c.147.038.238.091.238.149s-.091.111-.238.15a1.9,1.9,0,0,1-.258.045l-.152.012-.08,0h-.083c-.094-.094.211.211-.212-.211C279.847,264.376,279.942,264.013,280.059,264.013Z" fill="#feab45"/><path d="M280.059,260.747c.116,0,.211.365.211.816s-.1.817-.211.817-.212-.366-.212-.817S279.942,260.747,280.059,260.747Z" fill="#feab45"/><path d="M280.059,257.48c.116,0,.211.366.211.817s-.1.816-.211.816-.212-.365-.212-.816S279.942,257.48,280.059,257.48Z" fill="#feab45"/><path d="M280.059,254.214c.116,0,.211.366.211.817s-.1.816-.211.816-.212-.365-.212-.816S279.942,254.214,280.059,254.214Z" fill="#feab45"/><path d="M280.059,250.948c.116,0,.211.365.211.816s-.1.817-.211.817-.212-.366-.212-.817S279.942,250.948,280.059,250.948Z" fill="#feab45"/><path d="M280.059,247.682c.116,0,.211.365.211.816s-.1.817-.211.817-.212-.366-.212-.817S279.942,247.682,280.059,247.682Z" fill="#feab45"/><path d="M280.059,244.415c.116,0,.211.366.211.817s-.1.816-.211.816-.212-.365-.212-.816S279.942,244.415,280.059,244.415Z" fill="#feab45"/><path d="M280.87,241.971c0,.117-.363.211-.811.211l.211-.211h0v.081l0,.08-.013.153a1.74,1.74,0,0,1-.045.257c-.038.147-.091.238-.149.238s-.112-.091-.15-.238a1.884,1.884,0,0,1-.045-.257l-.012-.153,0-.08v-.081h0c.1-.094-.211.211.212-.211C280.507,241.76,280.87,241.854,280.87,241.971Z" fill="#feab45"/><path d="M283.9,241.971c0,.117-.339.211-.757.211s-.758-.094-.758-.211.339-.211.758-.211S283.9,241.854,283.9,241.971Z" fill="#feab45"/><path d="M286.93,241.971c0,.117-.339.211-.757.211s-.758-.094-.758-.211.339-.211.758-.211S286.93,241.854,286.93,241.971Z" fill="#feab45"/><path d="M289.961,241.971c0,.117-.339.211-.758.211s-.757-.094-.757-.211.339-.211.757-.211S289.961,241.854,289.961,241.971Z" fill="#feab45"/><path d="M292.991,241.971c0,.117-.339.211-.758.211s-.757-.094-.757-.211.339-.211.757-.211S292.991,241.854,292.991,241.971Z" fill="#feab45"/><path d="M296.021,241.971c0,.117-.339.211-.757.211s-.758-.094-.758-.211.339-.211.758-.211S296.021,241.854,296.021,241.971Z" fill="#feab45"/><path d="M299.052,241.971c0,.117-.34.211-.758.211s-.758-.094-.758-.211.34-.211.758-.211S299.052,241.854,299.052,241.971Z" fill="#feab45"/><path d="M302.082,241.971c0,.117-.339.211-.758.211s-.757-.094-.757-.211.339-.211.757-.211S302.082,241.854,302.082,241.971Z" fill="#feab45"/><path d="M304.408,242.782c-.116,0-.211-.363-.211-.811l.211.211h-.083l-.08,0-.152-.013a1.73,1.73,0,0,1-.258-.045c-.147-.038-.238-.091-.238-.149s.091-.111.238-.15a1.872,1.872,0,0,1,.258-.045l.152-.012.08,0h.083c.094.094-.211-.211.212.211C304.62,242.419,304.525,242.782,304.408,242.782Z" fill="#feab45"/><path d="M304.408,246.048c-.116,0-.211-.365-.211-.816s.1-.817.211-.817.212.366.212.817S304.525,246.048,304.408,246.048Z" fill="#feab45"/><path d="M304.408,249.315c-.116,0-.211-.366-.211-.817s.1-.816.211-.816.212.365.212.816S304.525,249.315,304.408,249.315Z" fill="#feab45"/><path d="M304.408,252.581c-.116,0-.211-.366-.211-.817s.1-.816.211-.816.212.365.212.816S304.525,252.581,304.408,252.581Z" fill="#feab45"/><path d="M304.408,255.847c-.116,0-.211-.366-.211-.816s.1-.817.211-.817.212.366.212.817S304.525,255.847,304.408,255.847Z" fill="#feab45"/><path d="M304.408,259.113c-.116,0-.211-.365-.211-.816s.1-.817.211-.817.212.366.212.817S304.525,259.113,304.408,259.113Z" fill="#feab45"/><path d="M304.408,262.38c-.116,0-.211-.366-.211-.817s.1-.816.211-.816.212.365.212.816S304.525,262.38,304.408,262.38Z" fill="#feab45"/><rect width="1.161" height="1.161" transform="translate(279.478 264.243)" fill="#feab45"/><rect width="1.161" height="1.161" transform="translate(279.478 241.39)" fill="#feab45"/><rect width="1.161" height="1.161" transform="translate(303.828 241.39)" fill="#feab45"/><rect width="1.161" height="1.161" transform="translate(303.828 263.663)" fill="#feab45"/><rect width="1.161" height="1.161" transform="translate(291.072 264.243)" fill="#feab45"/><rect width="1.161" height="1.161" transform="translate(291.653 241.39)" fill="#feab45"/><rect width="1.161" height="1.161" transform="translate(279.478 253.397)" fill="#feab45"/><rect width="1.161" height="1.161" transform="translate(303.247 252.817)" fill="#feab45"/><path d="M253.69,218.627h56.378a2.226,2.226,0,0,0,1.647-.728l21.156-23.229a2.229,2.229,0,0,0,.58-1.5V150.76a2.227,2.227,0,0,0-2.228-2.228H277.267a2.227,2.227,0,0,0-2.228,2.228v40.582a2.227,2.227,0,0,1-.666,1.588l-22.245,21.881A2.228,2.228,0,0,0,253.69,218.627Z" fill="#263238"/><rect width="54.411" height="38.715" transform="translate(277.088 151.188)" fill="#f5f5f5"/><path d="M332.73,192.618c0,.144-12.664.26-28.283.26s-28.285-.116-28.285-.26,12.661-.26,28.285-.26S332.73,192.474,332.73,192.618Z" fill="#455a64"/><path d="M327.308,187.054a7.4,7.4,0,0,1,1.74-.1h.26l-.1.1a5.929,5.929,0,0,1,.1-1.479,5.875,5.875,0,0,1,.1,1.479v.1h-.1l-.26,0A7.3,7.3,0,0,1,327.308,187.054Z" fill="#263238"/><path d="M323.308,187.054a4.86,4.86,0,0,1,2,0,4.815,4.815,0,0,1-2,0Z" fill="#263238"/><path d="M319.308,187.054a4.86,4.86,0,0,1,2,0,4.815,4.815,0,0,1-2,0Z" fill="#263238"/><path d="M315.308,187.054a4.86,4.86,0,0,1,2,0,4.815,4.815,0,0,1-2,0Z" fill="#263238"/><path d="M311.308,187.054a4.86,4.86,0,0,1,2,0,4.815,4.815,0,0,1-2,0Z" fill="#263238"/><path d="M307.308,187.054a4.86,4.86,0,0,1,2,0,4.815,4.815,0,0,1-2,0Z" fill="#263238"/><path d="M303.308,187.054a4.86,4.86,0,0,1,2,0,4.815,4.815,0,0,1-2,0Z" fill="#263238"/><path d="M299.308,187.054a4.86,4.86,0,0,1,2,0,4.815,4.815,0,0,1-2,0Z" fill="#263238"/><path d="M295.308,187.054a4.86,4.86,0,0,1,2,0,4.815,4.815,0,0,1-2,0Z" fill="#263238"/><path d="M291.308,187.054a4.86,4.86,0,0,1,2,0,4.815,4.815,0,0,1-2,0Z" fill="#263238"/><path d="M287.308,187.054a4.86,4.86,0,0,1,2,0,4.815,4.815,0,0,1-2,0Z" fill="#263238"/><path d="M283.308,187.054a4.86,4.86,0,0,1,2,0,4.815,4.815,0,0,1-2,0Z" fill="#263238"/><path d="M279.308,187.054a4.86,4.86,0,0,1,2,0,4.815,4.815,0,0,1-2,0Z" fill="#263238"/><path d="M279.279,183.084a4.86,4.86,0,0,1,0,2,4.86,4.86,0,0,1,0-2Z" fill="#263238"/><path d="M279.279,179.084a4.86,4.86,0,0,1,0,2,4.86,4.86,0,0,1,0-2Z" fill="#263238"/><path d="M279.279,175.084a4.86,4.86,0,0,1,0,2,4.86,4.86,0,0,1,0-2Z" fill="#263238"/><path d="M279.279,171.084a4.86,4.86,0,0,1,0,2,4.86,4.86,0,0,1,0-2Z" fill="#263238"/><path d="M279.279,167.084a4.86,4.86,0,0,1,0,2,4.86,4.86,0,0,1,0-2Z" fill="#263238"/><path d="M279.279,163.084a4.86,4.86,0,0,1,0,2,4.86,4.86,0,0,1,0-2Z" fill="#263238"/><path d="M282.539,162.344a4.86,4.86,0,0,1-2,0,4.86,4.86,0,0,1,2,0Z" fill="#263238"/><path d="M286.539,162.344a4.86,4.86,0,0,1-2,0,4.86,4.86,0,0,1,2,0Z" fill="#263238"/><path d="M290.539,162.344a4.86,4.86,0,0,1-2,0,4.86,4.86,0,0,1,2,0Z" fill="#263238"/><path d="M294.539,162.344a4.86,4.86,0,0,1-2,0,4.86,4.86,0,0,1,2,0Z" fill="#263238"/><path d="M298.539,162.344a4.86,4.86,0,0,1-2,0,4.86,4.86,0,0,1,2,0Z" fill="#263238"/><path d="M302.539,162.344a4.86,4.86,0,0,1-2,0,4.86,4.86,0,0,1,2,0Z" fill="#263238"/><path d="M306.539,162.344a4.86,4.86,0,0,1-2,0,4.86,4.86,0,0,1,2,0Z" fill="#263238"/><path d="M310.539,162.344a4.86,4.86,0,0,1-2,0,4.86,4.86,0,0,1,2,0Z" fill="#263238"/><path d="M314.539,162.344a4.86,4.86,0,0,1-2,0,4.86,4.86,0,0,1,2,0Z" fill="#263238"/><path d="M318.539,162.344a4.86,4.86,0,0,1-2,0,4.86,4.86,0,0,1,2,0Z" fill="#263238"/><path d="M322.539,162.344a4.86,4.86,0,0,1-2,0,4.86,4.86,0,0,1,2,0Z" fill="#263238"/><path d="M326.539,162.344a4.86,4.86,0,0,1-2,0,4.86,4.86,0,0,1,2,0Z" fill="#263238"/><path d="M329.308,163.575a2.5,2.5,0,0,1-.1-1l0-.231.1.1a1.765,1.765,0,0,1-.769-.1,1.765,1.765,0,0,1,.769-.1l.1,0,0,.1,0,.231A2.484,2.484,0,0,1,329.308,163.575Z" fill="#263238"/><path d="M329.308,167.575a4.86,4.86,0,0,1,0-2,4.861,4.861,0,0,1,0,2Z" fill="#263238"/><path d="M329.308,171.575a4.86,4.86,0,0,1,0-2,4.861,4.861,0,0,1,0,2Z" fill="#263238"/><path d="M329.308,175.575a4.86,4.86,0,0,1,0-2,4.861,4.861,0,0,1,0,2Z" fill="#263238"/><path d="M329.308,179.575a4.86,4.86,0,0,1,0-2,4.861,4.861,0,0,1,0,2Z" fill="#263238"/><path d="M329.308,183.575a4.86,4.86,0,0,1,0-2,4.861,4.861,0,0,1,0,2Z" fill="#263238"/><rect width="50.029" height="7.213" transform="translate(279.279 153.234)" fill="#263238"/><path d="M316.662,207.191l11.8-12.881H277.631L264.611,206.8Z" fill="#455a64"/><path d="M152.518,441.431l-5.845,21.613,19,1.734,3.993-20.576Z" fill="#feab45"/><path d="M166.222,463.017a13.394,13.394,0,0,1-2.782-.094c-1.712-.137-4.07-.4-6.666-.732l-6.64-.892a15.565,15.565,0,0,1-2.74-.474,13.623,13.623,0,0,1,2.782.1c1.711.141,4.069.4,6.665.738l6.64.885A15.771,15.771,0,0,1,166.222,463.017Z" fill="#263238"/><g opacity="0.6"><path d="M146.672,463.044l19,1.734.307-1.585-18.756-2.384-.529,2.02" fill="#fff"/></g><path d="M156.111,462.082a160.884,160.884,0,0,1,4.046-16.455,80.816,80.816,0,0,1-1.807,8.281A80.783,80.783,0,0,1,156.111,462.082Z" fill="#263238"/><path d="M165.172,462.877a9.134,9.134,0,0,0,.043-4.018,8,8,0,0,0-2.079-3.761,7.782,7.782,0,0,0-4.728-2.172,8.093,8.093,0,0,0-5.088,1.157,8.791,8.791,0,0,0-2.958,3.143,11.272,11.272,0,0,0-1.2,3.854c-.015,0-.024-.1-.027-.287a5.675,5.675,0,0,1,.044-.822,8.635,8.635,0,0,1,.9-2.9,8.868,8.868,0,0,1,3.016-3.34,8.361,8.361,0,0,1,5.352-1.254,7.836,7.836,0,0,1,7.071,6.309,7.507,7.507,0,0,1,.007,3.034,5.116,5.116,0,0,1-.234.792C165.229,462.793,165.186,462.882,165.172,462.877Z" fill="#263238"/><path d="M230.96,435.631l-1.271,19.2s19.112,6.343,19.222,9.914l-37.342.271.754-30Z" fill="#feab45"/><g opacity="0.6"><path d="M218.2,452.867a1.525,1.525,0,0,0-1.106,1.708,1.466,1.466,0,0,0,1.683,1.111,1.608,1.608,0,0,0,1.162-1.814,1.522,1.522,0,0,0-1.879-.963" fill="#fff"/></g><g opacity="0.6"><path d="M211.569,465.018l.076-3.024,36.067,1a2.58,2.58,0,0,1,1.389,2.029Z" fill="#fff"/></g><path d="M230.3,454.662c-.011.182-.925.237-1.839.8-.93.535-1.416,1.31-1.581,1.233-.167-.041.138-1.122,1.257-1.779S230.344,454.5,230.3,454.662Z" fill="#263238"/><path d="M234.165,456.4c.036.178-.763.464-1.4,1.216-.664.733-.846,1.562-1.027,1.549-.172.023-.266-1.048.551-1.968S234.166,456.225,234.165,456.4Z" fill="#263238"/><path d="M236.246,461.151c-.167.034-.393-.884.106-1.868s1.362-1.355,1.434-1.2c.1.153-.471.672-.867,1.486C236.5,460.372,236.428,461.139,236.246,461.151Z" fill="#263238"/><path d="M230.1,450.253c-.082.164-.91-.113-1.943-.074-1.032.018-1.845.34-1.935.18-.1-.135.7-.785,1.918-.814S230.2,450.113,230.1,450.253Z" fill="#263238"/><g opacity="0.3"><path d="M230.7,439.434l-.222,3.422-18.337-.722.07-3.088Z"/></g><path d="M230.289,446.374a3.489,3.489,0,0,1-1.869-.066,8.414,8.414,0,0,1-1.938-.659,9.041,9.041,0,0,1-1.056-.6,2.325,2.325,0,0,1-.551-.457.8.8,0,0,1-.054-.972,1,1,0,0,1,.811-.393,2.468,2.468,0,0,1,.7.118,6.737,6.737,0,0,1,1.15.434,6.59,6.59,0,0,1,1.689,1.184c.842.828,1.117,1.517,1.054,1.551-.085.057-.489-.526-1.35-1.214a7.412,7.412,0,0,0-1.638-.99,7.034,7.034,0,0,0-1.064-.364c-.392-.115-.728-.128-.835.044-.039.067-.044.093.035.211a1.872,1.872,0,0,0,.4.334,9.9,9.9,0,0,0,.971.594,10.3,10.3,0,0,0,1.786.747A13.122,13.122,0,0,1,230.289,446.374Z" fill="#263238"/><path d="M230.043,446.629a2.983,2.983,0,0,1-.438-1.82,6.089,6.089,0,0,1,.317-2.039,6.184,6.184,0,0,1,.51-1.121,1.546,1.546,0,0,1,1.221-.907.873.873,0,0,1,.765.545,2.5,2.5,0,0,1,.171.691,4.146,4.146,0,0,1-.037,1.259,4.292,4.292,0,0,1-.856,1.906c-.759.945-1.526,1.14-1.539,1.078-.058-.093.588-.426,1.174-1.339a4.3,4.3,0,0,0,.644-1.738,3.839,3.839,0,0,0,0-1.081c-.046-.4-.185-.723-.335-.687-.185-.008-.51.281-.672.593a6.131,6.131,0,0,0-.494,1,6.7,6.7,0,0,0-.418,1.854C229.969,445.916,230.143,446.6,230.043,446.629Z" fill="#263238"/><path d="M230.961,268.808l-56.9-.428L146.571,448.958l23.613,3,30.263-148.479L209.5,452.483l.024.443,25.537-.446Z" fill="#052b5d"/><path d="M205.083,283.441a9.861,9.861,0,0,1,1.176-.076l3.422-.126,12.3-.348.234-.007v.237c.009,3.568.018,7.559.029,11.794v.114l-.084.077-2.142,1.969-6.313,5.786-.168.154-.168-.151-8.417-7.5-.069-.062v-.09c.044-3.587.08-6.533.106-8.654q.031-1.446.051-2.331a5.03,5.03,0,0,1,.045-.785,7.426,7.426,0,0,1,.044.863c.013.6.03,1.394.051,2.377.026,2.09.063,4.994.107,8.53l-.068-.151,8.481,7.429-.335,0,6.3-5.8,2.143-1.967-.084.19c.011-4.235.02-8.226.029-11.794l.235.231-12.154.114-3.476.005-.934-.01A1.9,1.9,0,0,1,205.083,283.441Z" fill="#455a64"/><path d="M178.3,282.659a7.743,7.743,0,0,1,1.05.054l3.061.249,11.065,1,.23.021-.028.232-1.4,11.71-.012.1-.084.067-2.452,1.958-6.052,4.815-.2.158-.156-.2-6.616-8.364-.054-.069.011-.084c.478-3.541.872-6.46,1.157-8.568.138-.955.25-1.724.335-2.314a5.141,5.141,0,0,1,.141-.776,7.331,7.331,0,0,1-.06.867c-.061.605-.139,1.393-.237,2.372l-.927,8.469-.044-.153c1.95,2.421,4.216,5.236,6.687,8.306l-.353-.04,6.04-4.829,2.454-1.956-.1.17c.531-4.24,1.028-8.215,1.464-11.7l.2.252-10.9-1.216-3.1-.373A10.656,10.656,0,0,1,178.3,282.659Z" fill="#455a64"/><path d="M213.115,310.068a17.344,17.344,0,0,1-2.579-1.253c-1.566-.819-3.729-1.949-6.14-3.153s-4.616-2.251-6.212-3.009a17.075,17.075,0,0,1-2.553-1.307,14.463,14.463,0,0,1,2.7.97c1.638.674,3.875,1.674,6.3,2.88s4.563,2.393,6.087,3.3A14.348,14.348,0,0,1,213.115,310.068Z" fill="#455a64"/><path d="M212.383,314.453a5.871,5.871,0,0,1-1.94-.731,16.6,16.6,0,0,1-7.056-6.95,5.824,5.824,0,0,1-.759-1.929,22.309,22.309,0,0,0,9.755,9.61Z" fill="#455a64"/><path d="M228.445,366.631a3.081,3.081,0,0,1-.257.944A12.722,12.722,0,0,1,227,369.964a14.435,14.435,0,0,1-15.334,6.47,12.742,12.742,0,0,1-2.54-.816,3.088,3.088,0,0,1-.855-.474,35.751,35.751,0,0,0,3.464.929,14.8,14.8,0,0,0,14.957-6.312A35.643,35.643,0,0,0,228.445,366.631Z" fill="#455a64"/><path d="M224.7,365.092a6.983,6.983,0,0,1-2.174.96,21.348,21.348,0,0,1-5.659.934,30.021,30.021,0,0,1-5.718-.336,8.937,8.937,0,0,1-2.311-.534c.025-.178,3.59.514,8.008.35a27.011,27.011,0,0,0,5.579-.768A23.18,23.18,0,0,1,224.7,365.092Z" fill="#455a64"/><path d="M182.4,366.167a9.179,9.179,0,0,1-1.979,1.793,22.994,22.994,0,0,1-11.973,4.458,9.094,9.094,0,0,1-2.669-.062,26.138,26.138,0,0,1,2.633-.3,27.105,27.105,0,0,0,11.8-4.392A25.924,25.924,0,0,1,182.4,366.167Z" fill="#455a64"/><path d="M177.414,365.947a16.275,16.275,0,0,1-10.3-.821c.047-.15,2.283.515,5.126.731C175.078,366.094,177.392,365.791,177.414,365.947Z" fill="#455a64"/><path d="M200.108,304.722a11.26,11.26,0,0,1-2.558,1.159,35.657,35.657,0,0,1-13.334,2.134,11.2,11.2,0,0,1-2.792-.3,22.5,22.5,0,0,1,2.795-.066,46.23,46.23,0,0,0,13.213-2.115A22.162,22.162,0,0,1,200.108,304.722Z" fill="#455a64"/><path d="M198.556,298.892c.143,0,.266.445.273,1s-.1,1-.247,1-.266-.443-.273-1S198.412,298.893,198.556,298.892Z" fill="#455a64"/><path d="M198.56,294.892c.144,0,.258.45.255,1s-.123,1-.267,1-.257-.448-.254-1S198.417,294.89,198.56,294.892Z" fill="#455a64"/><path d="M198.642,290.892c.144.005.249.455.235,1.007s-.142,1-.285.993-.249-.453-.235-1.006S198.5,290.888,198.642,290.892Z" fill="#455a64"/><path d="M198.8,286.895c.144.008.24.46.216,1.011s-.162.993-.305.988-.24-.459-.216-1.011S198.659,286.888,198.8,286.895Z" fill="#455a64"/><path d="M199.039,282.9c.144.01.232.464.2,1.015s-.18.989-.324.981-.231-.463-.195-1.015S198.9,282.892,199.039,282.9Z" fill="#455a64"/><path d="M199.354,278.914c.143.013.222.469.176,1.018s-.2.986-.343.975-.222-.467-.176-1.018S199.211,278.9,199.354,278.914Z" fill="#455a64"/><path d="M199.67,275.648c.143.015.23.312.194.664s-.18.625-.324.611-.23-.311-.194-.664S199.527,275.633,199.67,275.648Z" fill="#455a64"/><path d="M167.505,447.994c.141.028.167.49.059,1.032s-.311.957-.452.929-.167-.49-.059-1.031S167.364,447.966,167.505,447.994Z" fill="#455a64"/><path d="M168.289,444.072c.141.028.168.49.059,1.031s-.31.958-.451.93-.168-.49-.059-1.032S168.148,444.044,168.289,444.072Z" fill="#455a64"/><path d="M169.074,440.149c.141.029.167.491.059,1.032s-.31.958-.451.93-.168-.49-.06-1.032S168.933,440.121,169.074,440.149Z" fill="#455a64"/><path d="M169.859,436.227c.141.028.167.49.059,1.032s-.311.958-.452.929-.167-.49-.059-1.031S169.718,436.2,169.859,436.227Z" fill="#455a64"/><path d="M170.643,432.3c.141.028.168.49.059,1.032s-.31.957-.451.929-.168-.49-.059-1.032S170.5,432.277,170.643,432.3Z" fill="#455a64"/><path d="M171.428,428.383c.141.028.167.49.059,1.031s-.31.958-.452.93-.167-.49-.059-1.032S171.287,428.354,171.428,428.383Z" fill="#455a64"/><path d="M172.212,424.46c.141.028.168.49.06,1.032s-.311.958-.452.93-.167-.49-.059-1.032S172.071,424.432,172.212,424.46Z" fill="#455a64"/><path d="M173,420.538c.141.028.168.49.059,1.032s-.31.957-.451.929-.168-.49-.059-1.031S172.856,420.51,173,420.538Z" fill="#455a64"/><path d="M173.782,416.616c.141.028.167.49.059,1.031s-.311.958-.452.93-.167-.49-.059-1.032S173.641,416.588,173.782,416.616Z" fill="#455a64"/><path d="M174.566,412.694c.141.028.168.49.06,1.031s-.311.958-.452.93-.167-.49-.059-1.032S174.425,412.665,174.566,412.694Z" fill="#455a64"/><path d="M175.351,408.771c.141.028.168.49.059,1.032s-.31.958-.451.929-.168-.49-.059-1.031S175.21,408.743,175.351,408.771Z" fill="#455a64"/><path d="M176.136,404.849c.141.028.167.49.059,1.032s-.311.957-.452.929-.167-.49-.059-1.032S175.995,404.821,176.136,404.849Z" fill="#455a64"/><path d="M176.92,400.927c.141.028.168.49.059,1.031s-.31.958-.451.93-.168-.49-.059-1.032S176.779,400.9,176.92,400.927Z" fill="#455a64"/><path d="M177.705,397c.141.029.167.491.059,1.032s-.31.958-.451.93-.168-.491-.06-1.032S177.564,396.976,177.705,397Z" fill="#455a64"/><path d="M178.49,393.082c.141.028.167.49.059,1.032s-.311.957-.452.929-.167-.49-.059-1.031S178.349,393.054,178.49,393.082Z" fill="#455a64"/><path d="M179.274,389.16c.141.028.168.49.059,1.031s-.31.958-.451.93-.168-.49-.059-1.032S179.133,389.131,179.274,389.16Z" fill="#455a64"/><path d="M180.059,385.237c.141.029.167.491.059,1.032s-.31.958-.451.93-.168-.49-.06-1.032S179.918,385.209,180.059,385.237Z" fill="#455a64"/><path d="M180.843,381.315c.142.028.168.49.06,1.032s-.311.958-.452.929-.167-.49-.059-1.031S180.7,381.287,180.843,381.315Z" fill="#455a64"/><path d="M181.628,377.393c.141.028.168.49.059,1.032s-.31.957-.451.929-.168-.49-.059-1.032S181.487,377.365,181.628,377.393Z" fill="#455a64"/><path d="M182.413,373.471c.141.028.167.49.059,1.031s-.311.958-.452.93-.167-.49-.059-1.032S182.272,373.442,182.413,373.471Z" fill="#455a64"/><path d="M183.2,369.548c.141.029.168.491.06,1.032s-.311.958-.452.93-.167-.491-.059-1.032S183.056,369.52,183.2,369.548Z" fill="#455a64"/><path d="M183.982,365.626c.141.028.168.49.059,1.032s-.31.957-.451.929-.168-.49-.059-1.031S183.841,365.6,183.982,365.626Z" fill="#455a64"/><path d="M184.767,361.7c.141.028.167.49.059,1.031s-.311.958-.452.93-.167-.49-.059-1.032S184.626,361.676,184.767,361.7Z" fill="#455a64"/><path d="M185.551,357.781c.141.029.168.491.06,1.032s-.311.958-.452.93-.167-.49-.059-1.032S185.41,357.753,185.551,357.781Z" fill="#455a64"/><path d="M186.336,353.859c.141.028.167.49.059,1.032s-.31.958-.451.929-.168-.49-.059-1.031S186.2,353.831,186.336,353.859Z" fill="#455a64"/><path d="M187.121,349.937c.141.028.167.49.059,1.032s-.311.957-.452.929-.167-.49-.059-1.032S186.98,349.909,187.121,349.937Z" fill="#455a64"/><path d="M187.9,346.015c.141.028.168.49.059,1.031s-.31.958-.451.93-.168-.49-.059-1.032S187.764,345.986,187.9,346.015Z" fill="#455a64"/><path d="M188.69,342.092c.141.029.167.49.059,1.032s-.31.958-.451.929-.168-.49-.06-1.031S188.549,342.064,188.69,342.092Z" fill="#455a64"/><path d="M189.475,338.17c.141.028.167.49.059,1.032s-.311.957-.452.929-.167-.49-.059-1.031S189.334,338.142,189.475,338.17Z" fill="#455a64"/><path d="M190.259,334.248c.141.028.168.49.059,1.031s-.31.958-.451.93-.168-.49-.059-1.032S190.118,334.22,190.259,334.248Z" fill="#455a64"/><path d="M191.044,330.325c.141.029.167.491.059,1.032s-.31.958-.452.93-.167-.49-.059-1.032S190.9,330.3,191.044,330.325Z" fill="#455a64"/><path d="M191.828,326.4c.141.028.168.49.06,1.032s-.311.957-.452.929-.167-.49-.059-1.031S191.687,326.375,191.828,326.4Z" fill="#455a64"/><path d="M192.613,322.481c.141.028.168.49.059,1.032s-.31.957-.451.929-.168-.49-.059-1.032S192.472,322.453,192.613,322.481Z" fill="#455a64"/><path d="M193.4,318.559c.141.028.167.49.059,1.031s-.311.958-.452.93-.167-.49-.059-1.032S193.257,318.53,193.4,318.559Z" fill="#455a64"/><path d="M194.182,314.636c.141.029.168.49.06,1.032s-.311.958-.452.929-.167-.49-.059-1.031S194.041,314.608,194.182,314.636Z" fill="#455a64"/><path d="M194.967,310.714c.141.028.168.49.059,1.032s-.31.957-.451.929-.168-.49-.059-1.032S194.826,310.686,194.967,310.714Z" fill="#455a64"/><path d="M195.752,306.792c.141.028.167.49.059,1.031s-.311.958-.452.93-.167-.49-.059-1.032S195.611,306.764,195.752,306.792Z" fill="#455a64"/><path d="M274.182,185.832s6.657-9.98,6.834-10.068h0s6.01-10.12,8.007-10.122,1.277,2.051-.786,5.677a14.454,14.454,0,0,0-1.992,5.162l4.936,2.981s3.3-1.276,3.434,1.8a21.281,21.281,0,0,1-.568,4.173c-.2,1.094-.7,2.261-1.728,1.849a1.3,1.3,0,0,1-.883-1.235c-.064-1.818.276-2.485.043-2.486-.3,0-3.552,9.537-3.552,9.537Z" fill="#ffbe9d"/><path d="M287.624,178a9.656,9.656,0,0,1,1.584-.944,3.221,3.221,0,0,1,1.8-.279,1.614,1.614,0,0,1,1,.532,1.637,1.637,0,0,1,.19,1.516,4.8,4.8,0,0,1-.81,1.36" fill="#ffbe9d"/><path d="M285.372,175.984a9.14,9.14,0,0,1,1.5-.89,3.077,3.077,0,0,1,1.7-.264,1.364,1.364,0,0,1,1.127,1.929,12.85,12.85,0,0,1-1.534,1.974" fill="#ffbe9d"/><path d="M276.5,180.2l-9.62,20.575,10.605,10.838,5.526-15.333s2.962.59,4.17-1.374c1.348-2.193,3.117-8.53,3.117-8.53Z" fill="#ffbe9d"/><path d="M283.375,179.631a5.233,5.233,0,0,1,1.138-2.845,5.071,5.071,0,0,1,1.649-1.46c.494-.269.83-.359.861-.3.092.154-1.152.769-2.09,2.068C284.012,178.4,283.536,179.7,283.375,179.631Z" fill="#eb996e"/><path d="M294.047,179.717c-.043.068-.372-.111-.931-.208a3.263,3.263,0,0,0-2.1.322,5.114,5.114,0,0,0-1.562,1.549c-.345.481-.571.785-.637.748s.049-.393.323-.94a4.216,4.216,0,0,1,1.625-1.814,3.1,3.1,0,0,1,2.444-.221C293.815,179.362,294.086,179.669,294.047,179.717Z" fill="#eb996e"/><path d="M290.466,176.815a13.781,13.781,0,0,0-2.26,1.329c-1.076.951-1.6,2.067-1.751,1.994a3.631,3.631,0,0,1,1.408-2.386,4.134,4.134,0,0,1,1.772-.928C290.139,176.713,290.458,176.751,290.466,176.815Z" fill="#eb996e"/><path d="M292.83,181.259c.136-.052.388.746-.117,1.543s-1.327.922-1.339.777c-.044-.141.519-.427.9-1.054C292.671,181.912,292.684,181.281,292.83,181.259Z" fill="#eb996e"/><path d="M274.2,185.432s-.336-6.139,1.148-7.529,5.736.054,5.736.054" fill="#ffbe9d"/><path d="M281.691,175.029a16.727,16.727,0,0,1-2.2,3.5,16.669,16.669,0,0,1-2.623,3.2,32.781,32.781,0,0,1,4.824-6.694Z" fill="#eb996e"/><path d="M178.039,180.622c.148-.822.347-1.782.633-2.9a8.71,8.71,0,0,1,1.216-2.693,13.337,13.337,0,0,1,2.354-2.834,1.143,1.143,0,0,0-.5-2.1c-1.031,0-3.589,1.8-5.348,5.007s-2.792-2.453-3.206-4.508-1.991-8.35-2.724-8.723c-1.074-.547-1.858.5-1.4,2.544.467,2.067,1.412,8.263.316,8.43-1.079.163-3.042-10.324-3.042-10.324s-.057-2.309-1.329-2.159c-2.295.269.613,11.264.915,12.3.211.722-.973.945-1.158.158-.189-.812-1.714-10.506-4.053-10.254-1.795.194,2.307,9.066,1.506,11.253s-2.427-7.044-4.133-6.789c-.636.1-1.1.255.6,5.421.825,2.508,4.023,14.25,4.023,14.25l-1.835,9.624,14.616,3.7Z" fill="#ffbe9d"/><path d="M196.522,128.48l-.147,47.912,20.556.98.594-11.653s7.3,1.449,9.184-5.331c1.2-4.331.9-37.805.9-37.805Z" fill="#ffbe9d"/><path d="M230.317,125.957c-3.238.927-3.941,6.218-3.941,6.218L221.3,143.392c-2.587-2.026-6.061-1.91-6.719,2.637-.475,3.285,3.61,3.949,3.61,3.949-2.378,4.046-3.991,7.319-7.453,11.168-3.747,4.165-5.846,4.585-9.91,4.653h-4.48s-2.194-7.12-6.256-24.926c-4.506-19.754,18.853-17.209,23.184-22.251C220.326,110.41,240.523,123.035,230.317,125.957Z" fill="#263238"/><path d="M190.517,142.736c-3.786-2.543-4.128-9.66-1.919-13.927a13.713,13.713,0,0,1,11.663-7.253,5.551,5.551,0,0,0,1.9-.213,5.282,5.282,0,0,0,2.045-1.941c3.384-4.4,6.71-8.723,13.017-8.722a7.178,7.178,0,0,1,3.966.983,6.234,6.234,0,0,1,2.381,3.153,13.472,13.472,0,0,1,3.689-1.327,4.551,4.551,0,0,1,3.7.9,2.786,2.786,0,0,1,.582,3.545,4.485,4.485,0,0,1,4.475,3.729c.335,2.1-2.679,3.582-2.994,3.746,0,0,1.655,3.463-2.29,5.54-1.589.836-3.655-.171-3.889-.293" fill="#263238"/><path d="M205.525,147.343a9.68,9.68,0,0,1-1.571,6.975c-.137-.069.522-1.537.945-3.452C205.338,148.955,205.371,147.346,205.525,147.343Z" fill="#455a64"/><path d="M208.011,144.992a13.531,13.531,0,0,1-1.276,6.838,18.674,18.674,0,0,1,.573-3.431A18.654,18.654,0,0,1,208.011,144.992Z" fill="#455a64"/><path d="M215.131,137.084c.049.069-.533.494-1.272,1.36a13.138,13.138,0,0,0-2.215,3.823,32.132,32.132,0,0,0-1.229,4.309,7.211,7.211,0,0,1-.509,1.812,6.523,6.523,0,0,1,.147-1.881,21.161,21.161,0,0,1,1.105-4.428,11.147,11.147,0,0,1,2.43-3.885A3.913,3.913,0,0,1,215.131,137.084Z" fill="#455a64"/><path d="M218.009,131.7a2.675,2.675,0,0,1,.4,1.3,8.627,8.627,0,0,1-1.565,6.24c-.506.674-.918,1-.963.955a17.89,17.89,0,0,0,1.844-4.051A17.947,17.947,0,0,0,218.009,131.7Z" fill="#455a64"/><path d="M193.476,143.667c-.07.126-.7-.092-1.406-.487s-1.222-.816-1.151-.942.7.093,1.4.488S193.546,143.542,193.476,143.667Z" fill="#455a64"/><path d="M203.407,138.552c.136.02.052,1.035-.587,2.084s-1.491,1.6-1.572,1.49c-.1-.115.549-.791,1.126-1.759S203.26,138.519,203.407,138.552Z" fill="#455a64"/><path d="M206.461,136.912a4.116,4.116,0,0,1-.915,2.491c-.823,1.25-1.86,1.921-1.939,1.81-.1-.116.734-.924,1.505-2.1A21.248,21.248,0,0,1,206.461,136.912Z" fill="#455a64"/><path d="M221.639,116.846c-.036.042-.385-.293-1.127-.714a7.591,7.591,0,0,0-3.444-.891,9.232,9.232,0,0,0-5.053,1.358,12.525,12.525,0,0,0-4.3,4.794,21.519,21.519,0,0,0-1.746,4.492l-.083.3-.276-.145a10.263,10.263,0,0,0-4.586-1.173,10.881,10.881,0,0,0-3.733.564,15.926,15.926,0,0,0-3.048,1.525,3.146,3.146,0,0,1,.687-.61,9.5,9.5,0,0,1,2.256-1.21,10.671,10.671,0,0,1,3.843-.695,10.448,10.448,0,0,1,4.816,1.159l-.358.156a21.156,21.156,0,0,1,1.77-4.611,12.718,12.718,0,0,1,4.514-4.958,9.4,9.4,0,0,1,5.317-1.315,7.326,7.326,0,0,1,3.532,1.084,5.418,5.418,0,0,1,.79.627C221.571,116.744,221.651,116.833,221.639,116.846Z" fill="#455a64"/><path d="M232.449,119.454c-.037-.01.571-.154,1.179.534a2.04,2.04,0,0,1,.473,1.5,2.329,2.329,0,0,1-1.195,1.707,3.385,3.385,0,0,1-2.5.344,7.235,7.235,0,0,1-2.576-1.249,25.294,25.294,0,0,0-2.52-1.727,10.486,10.486,0,0,0-3.037-1.067,12.838,12.838,0,0,0-6.2.424,16.95,16.95,0,0,0-4.581,2.329,47.075,47.075,0,0,0-3.657,3.094,5.18,5.18,0,0,1,.813-1.012,19.722,19.722,0,0,1,2.627-2.38,16.469,16.469,0,0,1,4.649-2.487,13,13,0,0,1,6.443-.48,10.785,10.785,0,0,1,3.186,1.132,24.244,24.244,0,0,1,2.552,1.783,6.95,6.95,0,0,0,2.4,1.219,3.028,3.028,0,0,0,2.217-.242,2.041,2.041,0,0,0,1.089-1.423,1.863,1.863,0,0,0-.343-1.339A1.8,1.8,0,0,0,232.449,119.454Z" fill="#455a64"/><path d="M175.631,178.733l-25.12,44.912a12.738,12.738,0,0,0,1.937,11.937l-.519-.747a10.725,10.725,0,0,0,8.339,3.982h.475a10.723,10.723,0,0,0,9.833-6.445l5.9-8.949Z" fill="#feab45"/><path d="M230.031,175.519c-4.928-2.516-9.793-3.086-15.1-3.24-6.182-.18-14.9-1.045-21.559-.336,0,0-20.3-.624-20.393,15.111l2.685,60.4-4.346,25.887,60.831,1.837-.436-30.539c.752-15.891-.852-38.391-.852-38.391.936-8.542,5.61-12.389,6.274-17.943C237.719,183.394,234.435,177.769,230.031,175.519Z" fill="#feab45"/><path d="M212.886,248.331a4.861,4.861,0,0,1-.9.848,19.64,19.64,0,0,1-2.773,1.9,22.157,22.157,0,0,1-21.366.378,19.678,19.678,0,0,1-2.839-1.8,4.835,4.835,0,0,1-.924-.815c.06-.084,1.407,1.057,3.929,2.288a22.933,22.933,0,0,0,21.022-.372C211.517,249.438,212.823,248.25,212.886,248.331Z" fill="#263238"/><path d="M172.976,187.054a2.587,2.587,0,0,1,.071.6c.027.446.061,1.012.1,1.707.072,1.553.171,3.682.292,6.282.225,5.367.53,12.664.868,20.726.365,8.064.7,15.36.938,20.726.133,2.6.241,4.726.32,6.278.03.7.054,1.262.073,1.709a2.567,2.567,0,0,1-.01.6,2.575,2.575,0,0,1-.1-.59c-.044-.446-.1-1.009-.17-1.7-.143-1.479-.3-3.623-.485-6.272-.36-5.3-.75-12.627-1.092-20.725s-.579-15.427-.715-20.736c-.052-2.6-.1-4.733-.127-6.288,0-.7,0-1.263-.005-1.71A2.61,2.61,0,0,1,172.976,187.054Z" fill="#263238"/><path d="M160.222,192.271s-2.3,6.756-2.71,7.671c0,0-5.68,16.423-7.532,27.511l18.162-32.8C168.3,194.675,160.465,192.338,160.222,192.271Z" fill="#feab45"/><path d="M169.167,190.289a1.912,1.912,0,0,1-.209.476l-.689,1.315c-.615,1.134-1.527,2.762-2.7,4.748-2.309,3.991-5.782,9.336-9.291,15.413-1.753,3.035-3.241,6.04-4.529,8.785a16.139,16.139,0,0,0-1.769,7.71,12.393,12.393,0,0,0,1.409,5.16c.6,1.128,1.1,1.652,1.057,1.686-.014.012-.139-.115-.368-.369a8.68,8.68,0,0,1-.865-1.218,11.972,11.972,0,0,1-1.6-5.235,16.2,16.2,0,0,1,1.7-7.929c1.275-2.78,2.751-5.793,4.515-8.848,3.524-6.1,7.04-11.407,9.428-15.345l2.837-4.659.774-1.266A2.023,2.023,0,0,1,169.167,190.289Z" fill="#263238"/><path d="M281.062,207.062l-14.076-9.207L258.1,213.244s-12.317-17.12-17.912-27.15c-5.15-9.231-11.812-11.718-15.026-12.387a1.428,1.428,0,0,0-1.706,1.557l4.855,33.289c.611,1.734,10.772,16.463,16.45,23.874,9.476,12.371,23.438,4.454,27.272-4.2C275.078,221.352,279.815,210.911,281.062,207.062Z" fill="#feab45"/><path d="M262.149,227.135a9.943,9.943,0,0,1-.27-2.2,42,42,0,0,0-.679-5.243,17.3,17.3,0,0,0-1.8-4.912c-.661-1.172-1.223-1.807-1.159-1.863a5.247,5.247,0,0,1,1.474,1.671,14.687,14.687,0,0,1,1.992,5,28.119,28.119,0,0,1,.538,5.333A8.924,8.924,0,0,1,262.149,227.135Z" fill="#263238"/><path d="M266.269,220.257c-.083.006-.15-.714-.5-1.8a9.929,9.929,0,0,0-2.251-3.775,5.9,5.9,0,0,0-3.743-2.048,5.318,5.318,0,0,0-1.785.314c-.053-.029.538-.64,1.789-.682a5.79,5.79,0,0,1,4.114,2.055,8.919,8.919,0,0,1,2.23,4.035A4,4,0,0,1,266.269,220.257Z" fill="#263238"/><path d="M224.247,177.818a1.981,1.981,0,0,1-.338.391c-.129.133-.273.279-.433.443l-.538.65a13.75,13.75,0,0,0-2.438,4.732,18.507,18.507,0,0,0-.534,7.859,17.348,17.348,0,0,0,1.209,4.5,49.29,49.29,0,0,0,2.275,4.52c3.447,6.051,6.994,11.287,9.56,15.065l3.09,4.442a16.491,16.491,0,0,1,1.118,1.644,1.958,1.958,0,0,1-.353-.376c-.219-.257-.536-.64-.927-1.147-.793-1.005-1.9-2.492-3.23-4.352A178.769,178.769,0,0,1,223,201.169a47.792,47.792,0,0,1-2.292-4.577,17.625,17.625,0,0,1-1.214-4.635,18.449,18.449,0,0,1,.659-8.032,13.167,13.167,0,0,1,2.633-4.753l.583-.627.473-.412A1.938,1.938,0,0,1,224.247,177.818Z" fill="#263238"/><g opacity="0.3"><path d="M208.539,251.045c4.488-2.05,8.034-6.743,8.164-11.494a4.749,4.749,0,0,0-1.1-3.557c-1.328-1.31-3.571-1.067-5.222-.2-2.72,1.429-4.5,4.111-6.409,6.517s-4.335,4.77-7.393,5.061a19.219,19.219,0,0,1-3.932-.3,6.687,6.687,0,0,0-3.864.467,2.92,2.92,0,0,0-1.6,3.267s5.376,3.344,10.986,2.948A31.657,31.657,0,0,0,208.539,251.045Z"/></g><path d="M224.282,266.266a1.541,1.541,0,0,1-.429.187l-1.265.437c-.55.19-1.226.408-2.025.621s-1.7.492-2.714.71a69.31,69.31,0,0,1-7.185,1.32,71,71,0,0,1-17.863.05,69.26,69.26,0,0,1-7.193-1.278c-1.018-.213-1.921-.483-2.718-.7s-1.478-.422-2.028-.609l-1.267-.43a1.631,1.631,0,0,1-.431-.183,1.571,1.571,0,0,1,.462.083l1.293.336c.558.156,1.241.341,2.044.522s1.706.429,2.724.617c2.022.438,4.455.838,7.17,1.162a76.049,76.049,0,0,0,17.748-.051c2.712-.339,5.143-.752,7.163-1.2,1.017-.194,1.92-.443,2.72-.633s1.485-.374,2.042-.533l1.291-.343A1.646,1.646,0,0,1,224.282,266.266Z" fill="#263238"/><path d="M468.124,465.018c0,.144-97.665.26-218.114.26-120.49,0-218.134-.116-218.134-.26s97.644-.261,218.134-.261C370.459,464.757,468.124,464.874,468.124,465.018Z" fill="#263238"/></g></svg>