<svg width="20" height="20" viewBox="0 0 20 20" fill="none" xmlns="http://www.w3.org/2000/svg">
<path fill-rule="evenodd" clip-rule="evenodd" d="M5.29279 7.29299C5.48031 7.10552 5.73462 7.0002 5.99979 7.0002C6.26495 7.0002 6.51926 7.10552 6.70679 7.29299L9.99979 10.586L13.2928 7.29299C13.385 7.19748 13.4954 7.1213 13.6174 7.06889C13.7394 7.01648 13.8706 6.98889 14.0034 6.98774C14.1362 6.98659 14.2678 7.01189 14.3907 7.06217C14.5136 7.11245 14.6253 7.1867 14.7192 7.28059C14.8131 7.37449 14.8873 7.48614 14.9376 7.60904C14.9879 7.73193 15.0132 7.86361 15.012 7.99639C15.0109 8.12917 14.9833 8.26039 14.9309 8.38239C14.8785 8.5044 14.8023 8.61474 14.7068 8.70699L10.7068 12.707C10.5193 12.8945 10.265 12.9998 9.99979 12.9998C9.73462 12.9998 9.48031 12.8945 9.29279 12.707L5.29279 8.70699C5.10532 8.51946 5 8.26515 5 7.99999C5 7.73483 5.10532 7.48052 5.29279 7.29299Z" fill="white"/>
</svg>
