<svg width="11" height="7" viewBox="0 0 11 7" fill="none" xmlns="http://www.w3.org/2000/svg">
<path fill-rule="evenodd" clip-rule="evenodd" d="M0.292763 1.29295C0.480291 1.10548 0.734599 1.00017 0.999763 1.00017C1.26493 1.00017 1.51924 1.10548 1.70676 1.29295L4.99976 4.58595L8.29276 1.29295C8.38508 1.19744 8.4955 1.12128 8.61757 1.06891C8.73965 1.01654 8.87093 0.989021 9.00376 0.987953C9.13659 0.986791 9.26831 1.0121 9.39124 1.06241C9.51418 1.11272 9.62586 1.18701 9.71976 1.28095C9.81371 1.37486 9.888 1.48654 9.93831 1.60947C9.98861 1.73241 10.0139 1.86413 10.0128 1.99695C10.0117 2.12978 9.98417 2.26107 9.93181 2.38314C9.87944 2.50522 9.80328 2.61564 9.70776 2.70795L5.70776 6.70795C5.52024 6.89542 5.26593 7.00074 5.00076 7.00074C4.7356 7.00074 4.48129 6.89542 4.29376 6.70795L0.293763 2.70795C0.106292 2.52043 0.000976562 2.26612 0.000976562 2.00095C0.000976562 1.73579 0.106292 1.48148 0.293763 1.29395L0.292763 1.29295Z" fill="#1FBEC8"/>
</svg>
