<svg width="124" height="124" fill="none" xmlns="http://www.w3.org/2000/svg"><path d="M62 124c34.242 0 62-27.758 62-62 0-34.242-27.758-62-62-62C27.758 0 0 27.758 0 62c0 34.242 27.758 62 62 62z" fill="#fff"/><path d="M62 123.5c33.966 0 61.5-27.534 61.5-61.5C123.5 28.035 95.966.5 62 .5 28.035.5.5 28.035.5 62c0 33.966 27.535 61.5 61.5 61.5z" stroke="#FEAB45"/><path d="M62 115c29.271 0 53-23.729 53-53S91.271 9 62 9 9 32.729 9 62s23.729 53 53 53z" fill="#FEAB45"/><path d="M50.5 57.688h4.313V62h1.437V47.625H50.5v1.438h4.313v7.187H50.5v-7.188h-1.438V62H50.5v-4.313zM60.563 57.688h5.75v-8.626h-1.438v7.188h-4.313v-7.188h4.313v-1.437h-5.75V62h1.438v-4.313zM73.5 60.563h-1.438v-11.5H73.5v-1.438h-4.313v1.438h1.438v11.5h-1.438V62H73.5v-1.438z" fill="#fff"/><path d="M43.313 28.117v5.478l7.187 5.75v3.968h-5.75v4.312h-6.847l-3.84-4.702a2.84 2.84 0 00.624-1.767 2.876 2.876 0 00-5.75 0 2.876 2.876 0 003.991 2.65l4.294 5.257h7.528v2.874h-8.923l-2.563 2.564a2.841 2.841 0 00-1.452-.407 2.876 2.876 0 000 5.75 2.876 2.876 0 002.875-2.875 2.84 2.84 0 00-.406-1.452l2.142-2.142h8.327v7.188h-8.923l-2.563 2.563a2.841 2.841 0 00-1.452-.407 2.876 2.876 0 000 5.75 2.876 2.876 0 002.875-2.875c0-.532-.153-1.024-.406-1.452L36.423 62h8.327v4.313h5.75v1.437a2.87 2.87 0 00-2.156 2.773 2.876 2.876 0 005.75 0 2.87 2.87 0 00-2.157-2.773v-1.438h5.75v1.438a2.87 2.87 0 00-2.156 2.773 2.876 2.876 0 005.75 0 2.87 2.87 0 00-2.156-2.773v-1.438h5.75v1.438a2.87 2.87 0 00-2.156 2.773 2.876 2.876 0 005.75 0 2.87 2.87 0 00-2.156-2.773v-1.438h5.75v1.438a2.87 2.87 0 00-2.157 2.773 2.876 2.876 0 005.75 0A2.87 2.87 0 0073.5 67.75v-1.438h5.75V62h8.327l2.142 2.142c-.253.428-.406.92-.406 1.452a2.876 2.876 0 005.75 0 2.876 2.876 0 00-2.876-2.875c-.531 0-1.023.154-1.451.407l-2.563-2.563H79.25v-2.876h8.917l2.18-2.121a2.841 2.841 0 001.84.684 2.876 2.876 0 000-5.75 2.876 2.876 0 00-2.874 2.875c0 .355.073.691.19 1.006l-1.92 1.869H79.25v-7.188h7.528l4.293-5.256a2.876 2.876 0 101.117-5.524 2.876 2.876 0 00-2.876 2.874c0 .67.24 1.278.624 1.767l-3.84 4.702H79.25v-4.313H73.5v-3.967l7.188-5.75v-5.478a2.87 2.87 0 002.156-2.773 2.876 2.876 0 00-5.75 0 2.87 2.87 0 002.156 2.773v4.788l-7.188 5.75v4.657h-5.75v-6.836l7.188-5.63v-2.73a2.87 2.87 0 002.156-2.772 2.876 2.876 0 00-5.75 0 2.87 2.87 0 002.156 2.773v2.028l-7.187 5.63v7.538h-5.75v-7.539l-7.188-5.629v-2.028a2.87 2.87 0 002.157-2.773 2.876 2.876 0 00-5.75 0 2.87 2.87 0 002.156 2.773v2.728l7.188 5.63v6.837h-5.75v-4.657l-7.188-5.75v-4.788a2.87 2.87 0 002.156-2.773 2.876 2.876 0 00-5.75 0 2.87 2.87 0 002.157 2.773zm-11.5 14.477a1.438 1.438 0 110-2.876 1.438 1.438 0 010 2.876zm0 15.812a1.438 1.438 0 110-2.876 1.438 1.438 0 010 2.876zm0 8.625a1.438 1.438 0 110-2.876 1.438 1.438 0 010 2.876zm60.374-2.875a1.438 1.438 0 110 2.876 1.438 1.438 0 010-2.876zm0-12.219a1.438 1.438 0 110 2.877 1.438 1.438 0 010-2.877zm0-12.218a1.438 1.438 0 110 2.876 1.438 1.438 0 010-2.876zM78.531 25.344a1.438 1.438 0 112.877.001 1.438 1.438 0 01-2.877-.001zm-7.187 0a1.438 1.438 0 112.876 0 1.438 1.438 0 01-2.876 0zm-21.563 0a1.438 1.438 0 112.877.001 1.438 1.438 0 01-2.877-.001zm2.875 45.179a1.438 1.438 0 11-2.876-.001 1.438 1.438 0 012.876 0zm7.188 0a1.438 1.438 0 11-2.876-.001 1.438 1.438 0 012.876 0zm7.187 0a1.438 1.438 0 11-2.876-.001 1.438 1.438 0 012.876 0zm7.188 0a1.438 1.438 0 11-2.876-.001 1.438 1.438 0 012.876 0zm3.594-25.773v20.125H46.186V44.75h31.626zM44.03 23.906a1.438 1.438 0 11-.001 2.877 1.438 1.438 0 01.001-2.877z" fill="#fff"/><path d="M97.938 30.375H82.124v1.438h15.813a1.44 1.44 0 011.437 1.437v46h-74.75v-46a1.44 1.44 0 011.438-1.438h15.812v-1.437H26.062a2.883 2.883 0 00-2.875 2.875V83.562a2.883 2.883 0 002.875 2.876h26.902l-2.054 7.187h-4.722a2.876 2.876 0 00-2.876 2.875v1.438h37.376V96.5a2.876 2.876 0 00-2.876-2.875H73.09l-2.054-7.188h26.903a2.883 2.883 0 002.874-2.874V33.25a2.883 2.883 0 00-2.874-2.875zM73.5 95.063h4.313A1.44 1.44 0 0179.25 96.5h-34.5a1.44 1.44 0 011.438-1.438H73.5zm-1.906-1.438H52.406l2.054-7.188h15.081l2.053 7.188zm27.781-10.063A1.44 1.44 0 0197.937 85H26.063a1.44 1.44 0 01-1.437-1.438v-2.874h74.75v2.874z" fill="#fff"/><path d="M46.188 30.375v1.438h3.215l-.34-.268v-1.17h-2.876zM67.602 31.813l1.835-1.438H54.563l1.836 1.438h11.204zM77.812 30.375h-2.875v1.17l-.34.267h3.215v-1.437zM63.932 34.688l1.836-1.438h-7.536l1.836 1.438h3.864z" fill="#fff"/><path d="M26.063 33.25v43.125h71.874V33.25H82.126v1.036l-.502.401H96.5v40.25h-69v-40.25h14.877l-.502-.4V33.25H26.062z" fill="#fff"/><path d="M53.075 34.688l-1.836-1.438h-3.756l1.797 1.438h3.794zM70.925 34.688h3.796l1.796-1.438h-3.756l-1.835 1.438z" fill="#fff"/></svg>