<svg width="124" height="124" viewBox="0 0 124 124" fill="none" xmlns="http://www.w3.org/2000/svg">
<path d="M62 124C96.2417 124 124 96.2417 124 62C124 27.7583 96.2417 0 62 0C27.7583 0 0 27.7583 0 62C0 96.2417 27.7583 124 62 124Z" fill="white"/>
<path d="M62 123.5C95.9655 123.5 123.5 95.9655 123.5 62C123.5 28.0345 95.9655 0.5 62 0.5C28.0345 0.5 0.5 28.0345 0.5 62C0.5 95.9655 28.0345 123.5 62 123.5Z" stroke="#FEAB45"/>
<path d="M62 115C91.2711 115 115 91.2711 115 62C115 32.7289 91.2711 9 62 9C32.7289 9 9 32.7289 9 62C9 91.2711 32.7289 115 62 115Z" fill="#FEAB45"/>
<path d="M97.1562 31.0625H26.8438C25.2969 31.0625 24.0312 32.3295 24.0312 33.8764V47.9389V90.1264C24.0312 91.6733 25.2969 92.9375 26.8438 92.9375H97.1562C98.7031 92.9375 99.9688 91.6733 99.9688 90.1264V47.9389V33.8764C99.9688 32.3295 98.7031 31.0625 97.1562 31.0625ZM25.4375 33.8764C25.4375 33.1002 26.0675 32.4688 26.8438 32.4688H97.1562C97.9325 32.4688 98.5625 33.1002 98.5625 33.8764V46.5312H25.4375V33.8764ZM98.5625 90.1264C98.5625 90.9027 97.9325 91.5312 97.1562 91.5312H26.8438C26.0675 91.5312 25.4375 90.9027 25.4375 90.1264V47.9375H98.5625V90.1264Z" fill="white"/>
<path d="M32.4688 35.9858C30.5267 35.9858 28.9531 37.5594 28.9531 39.5014C28.9531 41.4434 30.5267 43.017 32.4688 43.017C34.4108 43.017 35.9844 41.4434 35.9844 39.5014C35.9844 37.5594 34.4108 35.9858 32.4688 35.9858ZM32.4688 41.6108C31.3058 41.6108 30.3594 40.6644 30.3594 39.5014C30.3594 38.3384 31.3058 37.392 32.4688 37.392C33.6317 37.392 34.5781 38.3384 34.5781 39.5014C34.5781 40.6644 33.6317 41.6108 32.4688 41.6108Z" fill="white"/>
<path d="M40.9062 35.9858C38.9642 35.9858 37.3906 37.5594 37.3906 39.5014C37.3906 41.4434 38.9642 43.017 40.9062 43.017C42.8483 43.017 44.4219 41.4434 44.4219 39.5014C44.4219 37.5594 42.8483 35.9858 40.9062 35.9858ZM40.9062 41.6108C39.7433 41.6108 38.7969 40.6644 38.7969 39.5014C38.7969 38.3384 39.7433 37.392 40.9062 37.392C42.0692 37.392 43.0156 38.3384 43.0156 39.5014C43.0156 40.6644 42.0692 41.6108 40.9062 41.6108Z" fill="white"/>
<path d="M49.3438 35.9858C47.4017 35.9858 45.8281 37.5594 45.8281 39.5014C45.8281 41.4434 47.4017 43.017 49.3438 43.017C51.2858 43.017 52.8594 41.4434 52.8594 39.5014C52.8594 37.5594 51.2858 35.9858 49.3438 35.9858ZM49.3438 41.6108C48.1808 41.6108 47.2344 40.6644 47.2344 39.5014C47.2344 38.3384 48.1808 37.392 49.3438 37.392C50.5067 37.392 51.4531 38.3384 51.4531 39.5014C51.4531 40.6644 50.5067 41.6108 49.3438 41.6108Z" fill="white"/>
<path d="M91.5312 38.0938C91.5312 37.3161 90.9027 36.6875 90.125 36.6875H73.25C72.4723 36.6875 71.8438 37.3161 71.8438 38.0938V40.9062C71.8438 41.6839 72.4723 42.3125 73.25 42.3125H90.125C90.9027 42.3125 91.5312 41.6839 91.5312 40.9062V38.0938ZM90.125 40.9062H73.25V38.0938H90.125V40.9062Z" fill="white"/>
<path d="M65.9572 65.6309L70.4375 68.8302V85.9077C70.4375 88.228 72.3359 90.1264 74.6562 90.1264C76.9766 90.1264 78.875 88.228 78.875 85.9077V68.8302L83.3553 65.6309C83.9881 65.1795 84.5 64.1853 84.5 63.4077V56.3764C84.5 55.5987 84.0556 54.5258 83.5058 53.9759L78.875 49.3452V57.7827L74.6562 60.5952L70.4375 57.7827V49.3452L65.8067 53.9759C65.2569 54.5258 64.8125 55.5987 64.8125 56.3764V63.4077C64.8125 64.1853 65.3244 65.1795 65.9572 65.6309ZM66.2188 56.3764C66.2188 55.9756 66.5183 55.2528 66.8009 54.9702L69.0312 52.7398V57.7827V58.535L69.657 58.9527L73.8758 61.7652L74.6562 62.2855L75.4367 61.7652L79.6555 58.9527L80.2812 58.535V57.7827V52.4487L82.5116 54.8239C82.7942 55.108 83.0938 55.9756 83.0938 56.3764V63.4077C83.0938 63.7325 82.8027 64.2978 82.5369 64.4877L78.0566 67.6869L77.4688 68.1073V68.8316V85.9091C77.4688 87.4601 76.2073 88.7216 74.6562 88.7216C73.1052 88.7216 71.8438 87.4601 71.8438 85.9091V68.8302V68.1059L71.2545 67.6855L66.7742 64.4862C66.5098 64.2978 66.2188 63.7325 66.2188 63.4077V56.3764Z" fill="white"/>
<path d="M74.6562 85.9077V70.4389" stroke="white" stroke-miterlimit="10" stroke-linecap="round"/>
<path d="M62 74.6562H56.375V50.75H45.125V74.6562H39.5L50.75 90.125L62 74.6562ZM45.125 76.0625H46.5312V74.6577V52.1562H54.9688V74.6577V76.0625H56.375H59.2381L50.75 87.7344L42.2619 76.0625H45.125Z" fill="white"/>
</svg>
