<svg width="124" height="124" fill="none" xmlns="http://www.w3.org/2000/svg"><path d="M62 124c34.242 0 62-27.758 62-62 0-34.242-27.758-62-62-62C27.758 0 0 27.758 0 62c0 34.242 27.758 62 62 62z" fill="#fff"/><path d="M62 123.5c33.966 0 61.5-27.534 61.5-61.5C123.5 28.035 95.966.5 62 .5 28.035.5.5 28.035.5 62c0 33.966 27.535 61.5 61.5 61.5z" stroke="#FEAB45"/><path d="M62 115c29.271 0 53-23.729 53-53S91.271 9 62 9 9 32.729 9 62s23.729 53 53 53z" fill="#FEAB45"/><path d="M33.217 43.715a1.417 1.417 0 100-2.833 1.417 1.417 0 000 2.833zM42.667 43.715a1.417 1.417 0 100-2.833 1.417 1.417 0 000 2.833zM37.95 43.715a1.417 1.417 0 10-.001-2.833 1.417 1.417 0 000 2.833zM48.333 62.854l4.25-4.25a1.423 1.423 0 00-2.011-2.011l-5.27 5.284a1.416 1.416 0 000 1.997l5.27 5.284a1.416 1.416 0 102.011-1.997l-4.25-4.307zM68.62 69.13a1.417 1.417 0 001.998 0l5.284-5.213a1.417 1.417 0 000-1.998l-5.284-5.284a1.417 1.417 0 10-1.998 2.012l4.25 4.25-4.25 4.25a1.417 1.417 0 000 1.983zM63.917 57.046a1.417 1.417 0 00-1.941.524l-5.227 9.18a1.417 1.417 0 102.45 1.417l5.285-9.138a1.417 1.417 0 00-.567-1.983z" fill="#fff"/><path d="M99.135 76.667a.412.412 0 01-.383-.27 14.775 14.775 0 00-2.365-4.094.41.41 0 010-.467 3.259 3.259 0 00-1.19-4.448l-1.063-.638V40.882a4.25 4.25 0 00-4.25-4.25h-58.55a4.25 4.25 0 00-4.25 4.25V76.78a3.314 3.314 0 003.3 3.3H49.75l-1.417 5.243H46.45a6.134 6.134 0 00-5.964 4.717H37a1.417 1.417 0 000 2.833h36.082c-.024.339.01.679.1 1.006a3.187 3.187 0 001.515 1.983l2.99 1.729a3.256 3.256 0 004.448-1.204.438.438 0 01.44-.199c1.555.27 3.146.27 4.702 0a.426.426 0 01.44.213 3.258 3.258 0 002.833 1.615 3.215 3.215 0 001.63-.425l2.988-1.728a3.245 3.245 0 001.516-1.984 3.201 3.201 0 00-.326-2.465.425.425 0 010-.481c1-1.226 1.799-2.604 2.366-4.08a.396.396 0 01.383-.27 3.271 3.271 0 003.258-3.258v-3.457a3.26 3.26 0 00-3.23-3.201zM29.917 40.882a1.417 1.417 0 011.416-1.417h58.551a1.417 1.417 0 011.417 1.417v4.25H29.917v-4.25zm.467 36.366a.467.467 0 01-.467-.468V47.965H91.3v17.368a3.244 3.244 0 00-3.584 1.417.411.411 0 01-.425.184 14.548 14.548 0 00-4.704 0 .397.397 0 01-.425-.184 3.245 3.245 0 00-4.448-1.19l-2.99 1.728a3.172 3.172 0 00-1.515 1.97 3.287 3.287 0 00.312 2.479.382.382 0 010 .467 14.775 14.775 0 00-2.366 4.094.411.411 0 01-.383.27 3.244 3.244 0 00-1.926.637l-38.463.043zm37.783 8.075h-17l1.416-5.242h14.875v3.244c.01.726.258 1.428.709 1.998zm-21.704 2.833H71.68a15.58 15.58 0 001.105 1.884h-29.31a3.3 3.3 0 012.974-1.884h.014zm53.097-4.831a.425.425 0 01-.425.425 3.272 3.272 0 00-3.046 2.097 11.983 11.983 0 01-1.898 3.3 3.272 3.272 0 00-.298 3.684.368.368 0 010 .311.41.41 0 01-.198.27l-2.947 1.671a.425.425 0 01-.58-.17 3.272 3.272 0 00-3.358-1.572 11.217 11.217 0 01-3.768 0 3.273 3.273 0 00-3.358 1.587.439.439 0 01-.58.155l-2.99-1.728a.41.41 0 01-.198-.27.368.368 0 010-.31 3.3 3.3 0 00-.298-3.684 11.83 11.83 0 01-1.912-3.301 3.23 3.23 0 00-2.99-2.04.425.425 0 01-.424-.425v-3.457a.41.41 0 01.425-.425 3.258 3.258 0 003.031-2.096 11.63 11.63 0 011.913-3.301 3.3 3.3 0 00.297-3.684.396.396 0 010-.325.368.368 0 01.199-.255l2.989-1.729c.07-.019.143-.019.212 0a.424.424 0 01.354.199 3.287 3.287 0 003.358 1.586 11.223 11.223 0 013.768 0 3.3 3.3 0 003.33-1.671.41.41 0 01.566-.142l2.99 1.728a.37.37 0 01.198.255.397.397 0 010 .326 3.258 3.258 0 00.297 3.67 12.058 12.058 0 011.898 3.314 3.287 3.287 0 003.018 2.182.412.412 0 01.425.425v3.4z" fill="#fff"/><path d="M84.926 75.165a6.431 6.431 0 100 12.863 6.431 6.431 0 000-12.863zm0 10.03a3.598 3.598 0 113.598-3.598 3.598 3.598 0 01-3.598 3.57v.028z" fill="#fff"/></svg>