<svg width="124" height="124" fill="none" xmlns="http://www.w3.org/2000/svg"><path d="M62 124c34.242 0 62-27.758 62-62 0-34.242-27.758-62-62-62C27.758 0 0 27.758 0 62c0 34.242 27.758 62 62 62z" fill="#fff"/><path d="M62 123.5c33.966 0 61.5-27.534 61.5-61.5C123.5 28.035 95.966.5 62 .5 28.035.5.5 28.035.5 62c0 33.966 27.535 61.5 61.5 61.5z" stroke="#FEAB45"/><path d="M62 115c29.271 0 53-23.729 53-53S91.271 9 62 9 9 32.729 9 62s23.729 53 53 53z" fill="#FEAB45"/><path d="M43.754 61.465c-6.982 0-12.656 5.674-12.656 12.656s5.674 12.656 12.656 12.656c6.988 0 12.656-5.674 12.656-12.656s-5.668-12.656-12.656-12.656zm0 23.906c-6.208 0-11.25-5.041-11.25-11.25s5.042-11.25 11.25-11.25c6.21 0 11.25 5.041 11.25 11.25s-5.04 11.25-11.25 11.25z" fill="#fff"/><path d="M45.16 51.621c.105 0 .283.146.304.249l.852 4.268c.02.097.037.214.062.377l.148.945.932.21a16.73 16.73 0 015.3 2.202l.806.51.772-.56.075-.053c.084-.062.166-.122.243-.173l3.622-2.417a.321.321 0 01.155-.031c.127 0 .214.046.238.07l1.988 1.988c.075.075.096.306.04.39l-2.422 3.63c-.055.084-.128.18-.22.305l-.569.774.515.813a16.648 16.648 0 012.204 5.299l.209.931.944.149.07.01v.001c.108.017.217.033.302.05l4.272.853c.106.021.252.2.252.304v2.812c0 .104-.146.283-.249.304l-4.268.852c-.09.019-.2.034-.308.05l-.07.012-.944.15-.21.93a16.68 16.68 0 01-2.203 5.299l-.495.842.571.775c.07.096.144.193.201.28l2.418 3.624c.059.088.035.318-.038.39l-1.99 1.99c-.03.03-.122.07-.238.07a.305.305 0 01-.15-.03l-3.628-2.422c-.082-.053-.175-.122-.307-.219l-.775-.567-.81.514a16.714 16.714 0 01-5.301 2.202l-.941.256-.146.946c-.019.115-.036.232-.054.324l-.853 4.272c-.022.103-.2.25-.304.25h-2.813c-.104 0-.282-.146-.303-.249l-.855-4.282c-.017-.08-.03-.173-.044-.266l-.015-.097-.148-.945-.933-.21a16.727 16.727 0 01-5.295-2.203l-.809-.512-.774.563-.073.053c-.084.062-.167.124-.244.175l-3.624 2.417a.29.29 0 01-.152.032c-.115 0-.208-.04-.24-.071l-1.989-1.99c-.073-.073-.096-.302-.038-.388l2.422-3.629c.047-.074.11-.157.171-.241l.054-.074.562-.773-.512-.808a16.7 16.7 0 01-2.203-5.296l-.21-.933-.95-.149-.096-.015c-.093-.014-.187-.028-.274-.045l-4.273-.854c-.104-.021-.25-.2-.25-.304v-2.812c0-.104.146-.283.25-.304l4.281-.855c.08-.017.173-.03.266-.043l.097-.016.945-.148.21-.932a16.732 16.732 0 012.203-5.296l.512-.808-.563-.774-.053-.073c-.062-.084-.124-.167-.174-.245l-2.418-3.624c-.059-.088-.035-.318.038-.39l1.99-1.99c.03-.03.121-.07.236-.07.085 0 .14.022.152.03l3.63 2.422c.073.048.156.11.24.171l.073.054.774.562.811-.512a16.7 16.7 0 015.296-2.203l.932-.21.148-.945.016-.097c.014-.093.028-.187.045-.274l.853-4.272c.021-.103.2-.25.304-.25h2.812v-.002zm0-1.406h-2.812c-.773 0-1.53.62-1.682 1.378l-.854 4.274c-.026.126-.047.28-.071.431A18.138 18.138 0 0034 58.686c-.127-.091-.256-.188-.366-.261l-3.625-2.42c-.27-.18-.601-.265-.933-.265-.456 0-.914.164-1.232.482l-1.988 1.989c-.549.547-.644 1.52-.215 2.164L28.06 64c.074.11.17.24.262.366a18.138 18.138 0 00-2.388 5.74c-.149.024-.305.045-.432.072l-4.276.855c-.758.152-1.378.908-1.378 1.682v2.812c0 .774.62 1.53 1.378 1.682l4.274.854c.126.026.28.048.431.072a18.141 18.141 0 002.388 5.74c-.091.126-.188.256-.261.365l-2.42 3.626c-.428.644-.331 1.617.216 2.164l1.988 1.989c.318.317.778.483 1.234.483.33 0 .66-.088.93-.267l3.626-2.419c.11-.073.239-.169.366-.261a18.138 18.138 0 005.74 2.387c.024.15.045.306.072.432l.853 4.274c.152.758.909 1.378 1.682 1.378h2.813c.773 0 1.53-.62 1.681-1.378l.854-4.274c.025-.126.048-.28.072-.43a18.158 18.158 0 005.744-2.386c.124.09.252.185.362.258l3.625 2.419c.27.18.6.267.931.267.457 0 .915-.166 1.233-.483l1.989-1.989c.548-.547.644-1.52.215-2.164l-2.419-3.626a9.433 9.433 0 00-.26-.362 18.133 18.133 0 002.388-5.743c.147-.024.303-.047.43-.072l4.274-.854c.758-.152 1.378-.908 1.378-1.682v-2.812c0-.774-.62-1.53-1.378-1.682l-4.274-.854c-.127-.025-.281-.047-.43-.071a18.133 18.133 0 00-2.388-5.743c.091-.126.187-.254.26-.363l2.419-3.626c.427-.644.332-1.615-.215-2.164l-1.989-1.988c-.316-.318-.776-.483-1.232-.483-.331 0-.662.088-.932.266l-3.625 2.419c-.11.073-.238.167-.363.259a18.137 18.137 0 00-5.743-2.387c-.024-.149-.047-.303-.072-.43l-.853-4.274c-.15-.759-.906-1.38-1.68-1.38z" fill="#fff"/><path d="M43.754 68.419c-3.103 0-5.625 2.553-5.625 5.702s2.522 5.702 5.625 5.702c3.104 0 5.625-2.553 5.625-5.702 0-3.148-2.521-5.702-5.625-5.702zm0 9.92a4.222 4.222 0 01-4.219-4.218 4.222 4.222 0 014.22-4.219 4.222 4.222 0 014.218 4.22 4.222 4.222 0 01-4.219 4.218zM93.48 40.874l-4.359-.023a9.495 9.495 0 00-.575.017 13.89 13.89 0 00-1.57-2.379c.09-.182.172-.362.238-.518l1.68-4.022c.296-.713.018-1.651-.624-2.081l-2.331-1.574c-.37-.249-.854-.323-1.3-.238a1.692 1.692 0 00-.866.44l-3.098 3.066c-.12.118-.256.264-.392.415a13.973 13.973 0 00-2.791-.564c-.07-.194-.138-.381-.204-.539l-1.654-4.034c-.294-.715-1.156-1.179-1.914-1.03l-2.762.536c-.758.148-1.382.903-1.386 1.675l-.024 4.358c0 .17.007.371.016.575-.85.446-1.649.97-2.377 1.57a10.652 10.652 0 00-.52-.237l-4.021-1.68a1.683 1.683 0 00-.966-.084c-.447.087-.868.334-1.117.707L58.99 37.56c-.433.642-.341 1.615.203 2.166l3.066 3.098c.118.12.264.256.414.39a14.007 14.007 0 00-.563 2.794c-.196.07-.382.138-.54.204l-4.03 1.653c-.715.294-1.18 1.156-1.033 1.914l.537 2.76c.148.76.902 1.385 1.675 1.389l4.358.024c.17 0 .371-.006.575-.017.446.85.97 1.648 1.57 2.378-.089.184-.173.365-.24.52l-1.68 4.022c-.297.713-.018 1.65.623 2.081l2.332 1.574c.37.249.852.323 1.3.237.327-.063.633-.212.865-.44l3.098-3.065c.12-.119.256-.265.391-.417.903.283 1.838.47 2.793.566.07.194.138.38.204.538l1.655 4.033c.294.716 1.156 1.18 1.914 1.031l2.762-.536c.758-.147 1.382-.902 1.386-1.674l.023-4.358c.001-.17-.006-.372-.016-.576.851-.445 1.65-.97 2.378-1.569.183.089.363.173.52.238l4.021 1.679c.3.125.639.148.966.084.447-.087.868-.336 1.117-.707l1.573-2.332c.432-.641.34-1.614-.204-2.165l-3.065-3.098a9.886 9.886 0 00-.415-.391 14.1 14.1 0 00.564-2.794 9.57 9.57 0 00.538-.202l4.034-1.655c.714-.294 1.178-1.156 1.029-1.914l-.536-2.761c-.145-.758-.897-1.384-1.672-1.389zm.832 4.418c.02.102-.09.306-.187.346l-4.03 1.655c-.136.054-.299.115-.466.173l-.85.294-.088.895a12.539 12.539 0 01-.508 2.512l-.267.858.667.604c.13.119.257.237.36.34l3.064 3.097c.074.075.096.304.036.39l-1.57 2.331a.4.4 0 01-.22.116.297.297 0 01-.156-.003l-4.022-1.68c-.133-.057-.29-.13-.448-.206l-.809-.39-.695.57a12.537 12.537 0 01-2.139 1.412l-.79.415.038.894c.01.182.016.357.016.504l-.024 4.356c0 .107-.148.284-.25.304l-2.761.539c-.103.02-.307-.092-.346-.188l-1.654-4.028a9.505 9.505 0 01-.175-.477l-.3-.842-.889-.09a12.545 12.545 0 01-2.511-.507l-.858-.267-.605.667c-.118.13-.236.257-.339.36l-3.098 3.064a.287.287 0 01-.145.06.36.36 0 01-.246-.024l-2.331-1.57c-.087-.06-.153-.28-.113-.377l1.678-4.02c.059-.136.133-.293.21-.455l.385-.809-.567-.69a12.545 12.545 0 01-1.412-2.139l-.419-.796-.9.047c-.177.008-.35.014-.495.015l-4.358-.025c-.105 0-.282-.148-.302-.25l-.537-2.761c-.02-.103.091-.307.187-.346l4.026-1.652a9.91 9.91 0 01.478-.178l.844-.298.088-.89c.086-.866.258-1.714.508-2.511l.267-.858-.667-.605c-.13-.118-.257-.236-.36-.339l-3.065-3.096c-.073-.075-.094-.306-.035-.391l1.57-2.332a.394.394 0 01.22-.115c.084-.016.14-.006.156.003l4.019 1.679c.136.057.294.132.456.206l.808.387.69-.567a12.495 12.495 0 012.14-1.411l.79-.417-.038-.893a9.618 9.618 0 01-.016-.503l.024-4.358c0-.105.148-.283.25-.302l2.761-.539c.103-.021.307.09.346.186l1.654 4.03c.056.138.117.305.176.477l.3.842.888.089c.866.085 1.714.257 2.511.507l.858.267.605-.666c.118-.13.236-.258.339-.36l3.098-3.064a.286.286 0 01.145-.06c.124-.026.22.002.246.023l2.331 1.57c.088.06.154.28.113.378l-1.68 4.022c-.057.133-.13.29-.206.448l-.39.809.57.694a12.545 12.545 0 011.412 2.14l.419.795.9-.046c.176-.008.35-.014.495-.016l4.358.026c.104 0 .283.147.302.25l.535 2.76z" fill="#fff"/><path d="M75.024 41.881a5.62 5.62 0 00-4.447 6.594 5.622 5.622 0 006.594 4.447 5.622 5.622 0 004.447-6.594 5.621 5.621 0 00-6.594-4.447zm1.88 9.663a4.223 4.223 0 01-4.949-3.336 4.223 4.223 0 013.336-4.948 4.224 4.224 0 014.948 3.335 4.222 4.222 0 01-3.335 4.949z" fill="#fff"/><path d="M69.137 40.441c-3.842 3.844-3.842 10.079 0 13.922 3.843 3.842 10.079 3.842 13.92 0 3.844-3.843 3.844-10.078 0-13.92-3.841-3.845-10.077-3.845-13.92-.002zm12.926 12.927c-3.293 3.294-8.638 3.294-11.93 0-3.295-3.294-3.295-8.639 0-11.931 3.293-3.295 8.638-3.295 11.93 0a8.436 8.436 0 010 11.93zM94.005 87.784c.77-.074 1.495-.76 1.61-1.526v-.001c.107-.714-.313-1.517-.95-1.863a1.25 1.25 0 00-.14-.066l-2.759-1.145c-.07-.03-.163-.06-.242-.089a11.277 11.277 0 00-.901-3.607c.058-.066.125-.137.176-.198l1.897-2.3c.492-.6.519-1.598.06-2.22h-.001a1.704 1.704 0 00-.554-.474c-.48-.261-1.089-.323-1.58-.12l-2.761 1.141c-.07.03-.155.072-.23.106a11.194 11.194 0 00-1.943-1.339 11.36 11.36 0 00-1.252-.576c-.004-.086-.005-.183-.014-.26l-.287-2.97c-.056-.583-.462-1.14-.988-1.427a1.642 1.642 0 00-.537-.182h-.002c-.763-.116-1.632.375-1.93 1.088l-1.145 2.76c-.03.07-.06.16-.089.24a11.29 11.29 0 00-3.607.901c-.066-.058-.136-.125-.195-.174l-2.305-1.899a1.399 1.399 0 00-.248-.164c-.597-.325-1.425-.296-1.968.104v.003c-.623.458-.89 1.418-.595 2.134l1.14 2.76c.03.07.07.153.106.228a11.208 11.208 0 00-1.342 1.944c-.222.41-.409.83-.575 1.251-.084.006-.181.008-.259.015l-2.971.288c-.77.073-1.494.76-1.609 1.524h.001c-.108.715.311 1.519.948 1.865.047.025.092.046.141.067l2.759 1.144c.07.03.16.057.24.088.096 1.248.403 2.467.9 3.612-.057.063-.125.133-.175.192l-1.899 2.305c-.492.598-.517 1.595-.059 2.216h.002c.143.196.336.355.554.474.48.262 1.09.324 1.582.121l2.759-1.14c.069-.028.152-.07.226-.104a11.2 11.2 0 001.944 1.34c.41.223.828.408 1.251.575.006.086.007.183.014.259l.288 2.97c.057.582.463 1.139.99 1.426.168.091.35.154.535.182l.001.002c.765.114 1.633-.376 1.93-1.089l1.144-2.759c.03-.07.06-.16.089-.24a11.276 11.276 0 003.611-.902c.065.057.135.126.194.175l2.302 1.897c.076.063.16.118.246.166.6.325 1.43.294 1.97-.107.622-.46.89-1.42.595-2.135l-1.141-2.76c-.03-.07-.072-.152-.106-.228.504-.59.955-1.236 1.34-1.944.224-.409.41-.83.577-1.252.084-.005.183-.008.26-.014l2.977-.289zm-3.102-1.114l-.096.006-.107.004-.9.05-.332.838c-.17.43-.329.779-.503 1.098-.325.599-.72 1.173-1.173 1.703l-.576.674.361.81.06.128.03.064 1.14 2.76c.048.114-.02.37-.116.456l-.016.011c-.077.058-.312.082-.48-.01l-.003-.002-2.297-1.893-.066-.059-.098-.09-.671-.592-.82.356a9.91 9.91 0 01-3.163.791l-.901.072-.31.85-.029.083-.035.1-1.145 2.756c-.05.12-.294.258-.424.239-.005-.002-.03-.006-.072-.03-.148-.08-.253-.246-.26-.325l-.289-2.966-.004-.078-.007-.144-.06-.886-.826-.326a9.788 9.788 0 01-1.098-.503 9.839 9.839 0 01-1.7-1.173l-.694-.594-.824.391-.061.03-.005.001-.094.044-2.758 1.14c-.064.029-.23.023-.374-.056-.066-.035-.09-.069-.093-.072l-.015-.02c-.063-.117-.053-.375.025-.469l1.893-2.296.062-.07.083-.09.598-.671-.358-.825a9.798 9.798 0 01-.788-3.16l-.07-.884-.828-.32-.144-.053-.062-.02-2.766-1.15c-.133-.071-.248-.308-.231-.419.018-.126.226-.323.353-.336l2.967-.285.079-.004.143-.007.886-.06.327-.828a9.98 9.98 0 01.503-1.095c.326-.6.721-1.172 1.173-1.7l.585-.682-.374-.818-.045-.098-.037-.081-1.142-2.76c-.049-.118.027-.39.128-.466l.019-.013a.566.566 0 01.466.022l.005.003 2.296 1.892.063.057.104.094.671.588.819-.354a9.82 9.82 0 013.158-.79l.883-.07.32-.828.053-.143.022-.065 1.145-2.756c.048-.117.297-.259.42-.239l.014.001a.294.294 0 01.062.027c.148.08.254.246.262.324l.285 2.967.005.086.007.126.053.895.833.33c.43.17.777.329 1.096.502.6.326 1.172.72 1.7 1.173l.684.583.816-.375.094-.044.087-.038 2.758-1.14c.063-.028.229-.024.372.055.052.03.085.057.096.074.077.104.069.387-.014.488l-1.894 2.3-.058.064-.093.101-.586.671.353.817a9.82 9.82 0 01.789 3.159l.07.883.827.319.14.052.068.025 2.766 1.148c.13.072.246.308.23.422-.019.128-.226.322-.354.333l-2.968.285z" fill="#fff"/><path d="M82.666 79.64a4.922 4.922 0 10-4.702 8.648 4.922 4.922 0 004.702-8.647zm-4.028 7.413a3.515 3.515 0 113.357-6.177 3.515 3.515 0 01-3.358 6.177z" fill="#fff"/></svg>