<svg width="124" height="124" viewBox="0 0 124 124" fill="none" xmlns="http://www.w3.org/2000/svg">
<path d="M62 124C96.2417 124 124 96.2417 124 62C124 27.7583 96.2417 0 62 0C27.7583 0 0 27.7583 0 62C0 96.2417 27.7583 124 62 124Z" fill="white"/>
<path d="M62 123.5C95.9655 123.5 123.5 95.9655 123.5 62C123.5 28.0345 95.9655 0.5 62 0.5C28.0345 0.5 0.5 28.0345 0.5 62C0.5 95.9655 28.0345 123.5 62 123.5Z" stroke="#FEAB45"/>
<path d="M62 115C91.2711 115 115 91.2711 115 62C115 32.7289 91.2711 9 62 9C32.7289 9 9 32.7289 9 62C9 91.2711 32.7289 115 62 115Z" fill="#FEAB45"/>
<path d="M43.7542 61.4649C36.7721 61.4649 31.0979 67.1391 31.0979 74.1211C31.0979 81.1031 36.7721 86.7774 43.7542 86.7774C50.7418 86.7774 56.4104 81.1031 56.4104 74.1211C56.4104 67.1391 50.7418 61.4649 43.7542 61.4649ZM43.7542 85.3711C37.5456 85.3711 32.5042 80.3297 32.5042 74.1211C32.5042 67.9125 37.5456 62.8711 43.7542 62.8711C49.9642 62.8711 55.0042 67.9125 55.0042 74.1211C55.0042 80.3297 49.9642 85.3711 43.7542 85.3711Z" fill="white"/>
<path d="M45.1604 51.6211C45.2645 51.6211 45.4431 51.7674 45.4641 51.87L46.3163 56.138C46.336 56.235 46.3529 56.3517 46.3782 56.5149L46.5259 57.4599L47.4582 57.6694C49.3356 58.0913 51.1187 58.8324 52.7584 59.8716L53.5641 60.382L54.3362 59.8224L54.4107 59.7689C54.4951 59.707 54.5766 59.6466 54.654 59.596L58.2765 57.1786C58.2934 57.1674 58.3482 57.1477 58.4312 57.1477C58.5577 57.1477 58.6449 57.1941 58.6688 57.218L60.6573 59.2064C60.7318 59.281 60.7529 59.5116 60.6966 59.596L58.2751 63.2255C58.2202 63.3099 58.1471 63.4055 58.0557 63.5306L57.4862 64.3055L58.0009 65.1183C59.0415 66.7566 59.784 68.5397 60.2045 70.417L60.414 71.348L61.3576 71.497L61.4279 71.5069V71.5083C61.5362 71.5252 61.6445 71.5406 61.7302 71.5575L66.0024 72.4111C66.1079 72.4322 66.2541 72.6108 66.2541 72.7149V75.5274C66.2541 75.6314 66.1079 75.81 66.0052 75.8311L61.7373 76.6833C61.6473 76.7016 61.5376 76.717 61.4293 76.7339L61.359 76.7452L60.4154 76.8942L60.2059 77.8252C59.784 79.7025 59.0429 81.4856 58.0023 83.1239L57.5073 83.9663L58.0782 84.7411C58.1485 84.8367 58.2216 84.9338 58.2793 85.0209L60.6966 88.6449C60.7557 88.7334 60.7318 88.9627 60.6587 89.0358L58.6688 91.0256C58.6393 91.0552 58.5465 91.0959 58.4312 91.0959C58.3482 91.0959 58.2948 91.0749 58.2807 91.065L54.6526 88.6434C54.571 88.59 54.4782 88.5211 54.346 88.4241L53.5712 87.8574L52.7612 88.3706C51.1201 89.4099 49.337 90.1524 47.4596 90.5728L46.5188 90.8288L46.3726 91.7752C46.3543 91.8905 46.3374 92.0072 46.3191 92.0986L45.4656 96.3708C45.4445 96.4735 45.2659 96.6211 45.1618 96.6211H42.3493C42.2452 96.6211 42.0666 96.4749 42.0456 96.3722L41.1906 92.0902C41.1737 92.01 41.161 91.9172 41.147 91.8244L41.1315 91.7274L40.9838 90.7824L40.0515 90.5728C38.1784 90.151 36.3966 89.4099 34.7556 88.3692L33.947 87.8574L33.1735 88.4199L33.1004 88.4733C33.016 88.5352 32.9331 88.597 32.8557 88.6477L29.2318 91.065C29.2149 91.0777 29.1615 91.0974 29.0799 91.0974C28.9646 91.0974 28.8718 91.0566 28.8409 91.0256L26.851 89.0358C26.7779 88.9627 26.7554 88.7335 26.8131 88.6477L29.2346 85.0195C29.2824 84.945 29.3443 84.862 29.4062 84.7777L29.4596 84.7045L30.0221 83.9311L29.5102 83.1225C28.4696 81.4814 27.7271 79.6997 27.3066 77.8266L27.0971 76.8942L26.1479 76.7452L26.0509 76.7297C25.9581 76.7156 25.8638 76.7016 25.7766 76.6847L21.5045 75.8311C21.4004 75.81 21.2542 75.6314 21.2542 75.5274V72.7149C21.2542 72.6108 21.4004 72.4322 21.5031 72.4111L25.7851 71.5561C25.8652 71.5392 25.9581 71.5266 26.0509 71.5125L26.1479 71.497L27.0929 71.3494L27.3024 70.417C27.7243 68.5439 28.4654 66.7622 29.506 65.1211L30.0179 64.3125L29.4554 63.5391L29.402 63.466C29.3401 63.3816 29.2782 63.2986 29.2276 63.2213L26.8102 59.5974C26.7512 59.5088 26.7751 59.2795 26.8482 59.2064L28.8381 57.2166C28.8676 57.187 28.959 57.1477 29.0743 57.1477C29.1587 57.1477 29.2135 57.1688 29.2262 57.1772L32.8557 59.5988C32.9288 59.6466 33.0118 59.7085 33.0962 59.7703L33.1693 59.8238L33.9427 60.3863L34.7541 59.8744C36.3952 58.8338 38.177 58.0913 40.0501 57.6708L40.9824 57.4613L41.1301 56.5163L41.1456 56.4192C41.1596 56.3264 41.1737 56.2322 41.1906 56.145L42.0441 51.8728C42.0652 51.7702 42.2438 51.6225 42.3479 51.6225H45.1604V51.6211ZM45.1604 50.2149H42.3479C41.5745 50.2149 40.8179 50.835 40.666 51.593L39.8124 55.8666C39.7857 55.9931 39.7646 56.1478 39.7407 56.2983C37.6707 56.7638 35.7385 57.5836 34.0004 58.6861C33.8738 58.5947 33.7445 58.4977 33.6348 58.4245L30.0095 56.0058C29.7395 55.8258 29.409 55.74 29.0771 55.74C28.6215 55.74 28.1631 55.9045 27.8452 56.2224L25.8568 58.2108C25.3084 58.7578 25.2127 59.731 25.6416 60.375L28.0604 64.0003C28.1335 64.11 28.2291 64.2394 28.322 64.366C27.2195 66.1041 26.3996 68.0363 25.9341 70.1063C25.7851 70.1302 25.629 70.1513 25.5024 70.178L21.226 71.033C20.4681 71.1849 19.8479 71.9414 19.8479 72.7149V75.5274C19.8479 76.3008 20.4681 77.0574 21.226 77.2092L25.4996 78.0628C25.6262 78.0895 25.7809 78.1106 25.9313 78.1345C26.3968 80.2045 27.2167 82.1367 28.3191 83.8749C28.2277 84.0014 28.1307 84.1308 28.0576 84.2405L25.6388 87.8658C25.2099 88.5099 25.307 89.483 25.854 90.03L27.8424 92.0185C28.1602 92.3363 28.6201 92.5022 29.0757 92.5022C29.4062 92.5022 29.7366 92.4136 30.0066 92.235L33.632 89.8163C33.7416 89.7431 33.871 89.6475 33.9976 89.5547C35.7357 90.6572 37.6679 91.477 39.7379 91.9425C39.7618 92.0916 39.7829 92.2477 39.8096 92.3742L40.6632 96.6478C40.8151 97.4058 41.5716 98.0259 42.3451 98.0259H45.1576C45.931 98.0259 46.6876 97.4058 46.8395 96.6478L47.6931 92.3742C47.7184 92.2477 47.7409 92.0944 47.7648 91.9439C49.8362 91.4784 51.7698 90.66 53.5093 89.5575C53.6331 89.6475 53.761 89.7431 53.8707 89.8163L57.496 92.235C57.766 92.415 58.0965 92.5022 58.427 92.5022C58.884 92.5022 59.3424 92.3363 59.6602 92.0185L61.6487 90.03C62.1971 89.483 62.2927 88.5099 61.8638 87.8658L59.4451 84.2405C59.372 84.1308 59.2777 84.0028 59.1849 83.8777C60.2888 82.1381 61.1073 80.2045 61.5727 78.1345C61.7204 78.1106 61.8765 78.0881 62.0031 78.0628L66.2766 77.2092C67.0346 77.0574 67.6548 76.3008 67.6548 75.5274V72.7149C67.6548 71.9414 67.0346 71.1849 66.2766 71.033L62.0031 70.1794C61.8765 70.1541 61.7218 70.1316 61.5727 70.1077C61.1073 68.0377 60.2888 66.1041 59.1849 64.3645C59.2763 64.2394 59.372 64.1114 59.4451 64.0017L61.8638 60.3764C62.2913 59.7324 62.1957 58.7606 61.6487 58.2122L59.6602 56.2238C59.3438 55.906 58.884 55.7414 58.4284 55.7414C58.0965 55.7414 57.766 55.8286 57.496 56.0072L53.8707 58.426C53.761 58.4991 53.6331 58.5933 53.5079 58.6847C51.7698 57.5822 49.8362 56.7638 47.7648 56.2983C47.7409 56.1492 47.7184 55.9945 47.6931 55.868L46.8395 51.5944C46.6904 50.835 45.9338 50.2149 45.1604 50.2149Z" fill="white"/>
<path d="M43.7542 68.4188C40.6506 68.4188 38.1292 70.9725 38.1292 74.1211C38.1292 77.2697 40.6506 79.8234 43.7542 79.8234C46.8577 79.8234 49.3792 77.2697 49.3792 74.1211C49.3792 70.9725 46.8577 68.4188 43.7542 68.4188ZM43.7542 78.3398C41.4268 78.3398 39.5354 76.4484 39.5354 74.1211C39.5354 71.7938 41.4268 69.9024 43.7542 69.9024C46.0815 69.9024 47.9729 71.7938 47.9729 74.1211C47.9729 76.4484 46.0815 78.3398 43.7542 78.3398Z" fill="white"/>
<path d="M93.4792 40.8745L89.1213 40.8506C88.9511 40.8492 88.75 40.8563 88.5461 40.8675C88.1003 40.0167 87.5758 39.218 86.9767 38.4895C87.0653 38.3067 87.1483 38.1267 87.2144 37.9706L88.8934 33.9488C89.1902 33.2358 88.9117 32.2978 88.2705 31.8675L85.9389 30.2939C85.5691 30.045 85.0853 29.9705 84.6381 30.0563C84.3119 30.1195 84.0053 30.2686 83.7733 30.4964L80.6753 33.562C80.5558 33.6802 80.4194 33.8264 80.283 33.9769C79.3816 33.6942 78.4464 33.5086 77.4916 33.413C77.4213 33.2189 77.3538 33.0319 77.2877 32.8744L75.6339 28.8399C75.34 28.1255 74.478 27.6614 73.72 27.8105L70.9581 28.3463C70.2002 28.4939 69.5758 29.2491 69.5716 30.0211L69.5477 34.3791C69.5477 34.5492 69.5547 34.7503 69.5645 34.9542C68.7138 35.4 67.915 35.9231 67.1866 36.5236C67.0023 36.435 66.8224 36.352 66.6663 36.2874L62.6458 34.6069C62.3463 34.4817 62.0074 34.4592 61.6797 34.5225C61.2325 34.6097 60.812 34.8572 60.5631 35.2299L58.9895 37.5614C58.5564 38.2027 58.6478 39.1758 59.192 39.727L62.2577 42.825C62.3758 42.9445 62.522 43.0809 62.6725 43.2159C62.3898 44.1188 62.2042 45.0539 62.1086 46.0088C61.9131 46.0791 61.7275 46.1466 61.5686 46.2127L57.5383 47.8664C56.8239 48.1603 56.3584 49.0224 56.5061 49.7803L57.0433 52.5408C57.1909 53.3002 57.9447 53.9245 58.7181 53.9288L63.0761 53.9527C63.2463 53.9527 63.4473 53.947 63.6513 53.9358C64.097 54.7866 64.6216 55.5839 65.2206 56.3138C65.132 56.498 65.0477 56.6794 64.9816 56.8341L63.3011 60.8559C63.0044 61.5689 63.2828 62.5055 63.9241 62.9372L66.2556 64.5108C66.6269 64.7597 67.1078 64.8342 67.5564 64.7484C67.8827 64.6852 68.1892 64.5361 68.4213 64.3083L71.5192 61.2427C71.6388 61.1245 71.7752 60.9783 71.9102 60.8264C72.813 61.1091 73.7481 61.2961 74.703 61.3917C74.7733 61.5858 74.8408 61.7728 74.9069 61.9303L76.562 65.9634C76.8559 66.6792 77.718 67.1433 78.4759 66.9942L81.2378 66.4584C81.9958 66.3108 82.6202 65.5556 82.6244 64.7836L82.6469 60.4256C82.6483 60.2555 82.6413 60.0544 82.6314 59.8505C83.4822 59.4047 84.2809 58.8802 85.0094 58.2811C85.1922 58.3697 85.3722 58.4541 85.5283 58.5188L89.5502 60.1978C89.8497 60.323 90.1886 60.3455 90.5163 60.2822C90.9634 60.195 91.3839 59.9461 91.6328 59.5749L93.2064 57.2433C93.6381 56.602 93.5467 55.6289 93.0025 55.0777L89.9369 51.9797C89.8188 51.8602 89.6725 51.7238 89.522 51.5888C89.8033 50.6859 89.9903 49.7508 90.0859 48.7945C90.28 48.727 90.467 48.6595 90.6245 48.5934L94.6577 46.9383C95.372 46.6444 95.8361 45.7824 95.687 45.0244L95.1513 42.2625C95.0064 41.5045 94.2541 40.8788 93.4792 40.8745ZM94.3117 45.2916C94.3328 45.3942 94.2217 45.5981 94.1247 45.6375L90.0958 47.2927C89.9594 47.3475 89.7963 47.408 89.6289 47.4656L88.7795 47.7595L88.6909 48.6553C88.6052 49.5216 88.4336 50.3695 88.1833 51.1669L87.9161 52.0247L88.5827 52.6294C88.7134 52.7475 88.84 52.8656 88.9427 52.9683L92.0069 56.0663C92.0814 56.1408 92.1025 56.37 92.0434 56.4558L90.4727 58.7874C90.4488 58.8211 90.3658 58.8788 90.2533 58.9027C90.1689 58.9181 90.1141 58.9083 90.0972 58.8999L86.0753 57.2208C85.9417 57.1631 85.7856 57.09 85.6267 57.0141L84.8181 56.6245L84.1234 57.1941C83.4766 57.7256 82.7552 58.2024 81.9845 58.6059L81.1942 59.0208L81.2322 59.9152C81.242 60.0966 81.2477 60.2724 81.2477 60.4186L81.2238 64.7752C81.2238 64.882 81.0761 65.0592 80.9734 65.0789L78.213 65.6175C78.1103 65.6372 77.9064 65.5261 77.867 65.4305L76.2133 61.4016C76.157 61.2638 76.0966 61.0964 76.0375 60.9249L75.738 60.0825L74.8492 59.9939C73.983 59.9081 73.135 59.7366 72.3377 59.4863L71.4799 59.2191L70.8752 59.8856C70.757 60.0164 70.6389 60.143 70.5363 60.2456L67.4383 63.3099C67.4242 63.3253 67.3764 63.3549 67.2934 63.3703C67.1697 63.3956 67.0755 63.3661 67.0473 63.3464L64.7158 61.7756C64.6286 61.7152 64.5625 61.4958 64.6033 61.3988L66.2809 57.3797C66.34 57.2433 66.4145 57.0858 66.4905 56.9241L66.8758 56.1155L66.3091 55.425C65.7775 54.7781 65.3008 54.0567 64.8972 53.2861L64.4781 52.4902L63.5781 52.5366C63.4009 52.545 63.228 52.5506 63.0831 52.552L58.7252 52.5267C58.6197 52.5267 58.4425 52.3791 58.4228 52.2764L57.8856 49.5159C57.8659 49.4133 57.977 49.2094 58.0727 49.17L62.0988 47.5177C62.2394 47.4614 62.4039 47.3995 62.5769 47.3405L63.4206 47.0424L63.5092 46.1522C63.595 45.2859 63.7666 44.438 64.0169 43.6406L64.2841 42.7828L63.6175 42.1781C63.4867 42.06 63.3602 41.9419 63.2575 41.8392L60.1919 38.7427C60.1188 38.6681 60.0977 38.4375 60.1567 38.3517L61.7275 36.0202C61.7514 35.9864 61.833 35.9288 61.9469 35.9049C62.0313 35.8894 62.0861 35.8992 62.103 35.9077L66.122 37.5867C66.2584 37.6444 66.4159 37.7189 66.5777 37.7934L67.3863 38.1802L68.0767 37.6134C68.7236 37.0819 69.4436 36.6052 70.2156 36.2016L71.0059 35.7853L70.968 34.8924C70.9581 34.7109 70.9525 34.5338 70.9525 34.3889L70.9764 30.0309C70.9764 29.9255 71.1241 29.7483 71.2267 29.7286L73.9872 29.19C74.0899 29.1689 74.2938 29.28 74.3331 29.3756L75.9869 33.4059C76.0431 33.5438 76.1036 33.7111 76.1627 33.8827L76.4622 34.725L77.3509 34.8136C78.2172 34.8994 79.0652 35.0709 79.8625 35.3213L80.7203 35.5884L81.325 34.9219C81.4431 34.7911 81.5613 34.6645 81.6639 34.5619L84.7619 31.4977C84.7759 31.4822 84.8238 31.4527 84.9067 31.4372C85.0305 31.4119 85.1261 31.44 85.1528 31.4611L87.4844 33.0319C87.5716 33.0909 87.6377 33.3117 87.5969 33.4088L85.9178 37.4306C85.8602 37.5642 85.787 37.7203 85.7111 37.8792L85.3216 38.6878L85.8911 39.3825C86.4227 40.0294 86.8994 40.7508 87.303 41.5214L87.722 42.3174L88.622 42.2709C88.7978 42.2625 88.9722 42.2569 89.117 42.2555L93.475 42.2808C93.5791 42.2808 93.7577 42.4284 93.7773 42.5311L94.3117 45.2916Z" fill="white"/>
<path d="M75.0236 41.8814C71.972 42.4735 69.9822 45.4266 70.577 48.4753C71.1691 51.5241 74.1222 53.5167 77.171 52.9219C80.2197 52.3299 82.2124 49.3767 81.6175 46.328C81.0269 43.2792 78.0724 41.2866 75.0236 41.8814ZM76.9038 51.5438C74.6158 51.9867 72.4024 50.4947 71.9552 48.2081C71.5122 45.9216 73.0028 43.7067 75.2908 43.2595C77.5774 42.8166 79.7922 44.3086 80.2394 46.5952C80.6838 48.8831 79.1903 51.098 76.9038 51.5438Z" fill="white"/>
<path d="M69.137 40.4414C65.2951 44.2847 65.2951 50.52 69.137 54.3633C72.9803 58.2052 79.2156 58.2052 83.0575 54.3633C86.9008 50.52 86.9008 44.2847 83.0575 40.4428C79.2156 36.5981 72.9803 36.5981 69.137 40.4414ZM82.0633 53.3677C78.7698 56.6625 73.4247 56.6625 70.1326 53.3677C66.8378 50.0742 66.8378 44.7291 70.1326 41.437C73.4261 38.1422 78.7712 38.1422 82.0633 41.437C85.3581 44.7305 85.3581 50.0742 82.0633 53.3677Z" fill="white"/>
<path d="M94.005 87.7842C94.7756 87.7097 95.4998 87.0234 95.6151 86.2584V86.257C95.722 85.5427 95.3015 84.7397 94.6659 84.3938C94.6195 84.3684 94.5745 84.3473 94.5253 84.3277L91.7662 83.183C91.6959 83.1534 91.6031 83.1239 91.5243 83.0944C91.4259 81.8484 91.1193 80.6292 90.6229 79.4874C90.6806 79.4213 90.7481 79.3495 90.7987 79.2891L92.6958 76.9884C93.1879 76.3894 93.2147 75.3909 92.7562 74.7694H92.7548C92.6114 74.5753 92.4187 74.415 92.2007 74.2955C91.7212 74.0339 91.1123 73.972 90.6201 74.1745L87.8597 75.3164C87.7907 75.3459 87.705 75.3881 87.6304 75.4219C87.0426 74.9198 86.3943 74.4656 85.687 74.0831C85.2778 73.8609 84.8587 73.6739 84.4354 73.5066C84.4312 73.4208 84.4298 73.3238 84.4214 73.2478L84.1345 70.2764C84.0783 69.6942 83.6718 69.1373 83.1459 68.8505C82.9772 68.7591 82.7958 68.6958 82.6087 68.6677H82.6073C81.8437 68.5524 80.9747 69.0431 80.6765 69.7561L79.5318 72.5152C79.5023 72.5855 79.4728 72.6769 79.4433 72.7556C78.1973 72.8541 76.9795 73.1606 75.8362 73.657C75.7701 73.5994 75.6998 73.5319 75.6408 73.4827L73.3359 71.5842C73.26 71.5209 73.177 71.4661 73.0884 71.4197C72.4908 71.0949 71.6625 71.1244 71.1197 71.5238V71.5266C70.4967 71.985 70.2295 72.9455 70.5248 73.6613L71.6653 76.4217C71.6948 76.4906 71.7356 76.5736 71.7708 76.6495C71.2659 77.2374 70.8145 77.8856 70.4292 78.593C70.207 79.0022 70.02 79.4227 69.854 79.8445C69.7697 79.8502 69.6726 79.8516 69.5953 79.8586L66.6239 80.1469C65.8547 80.22 65.1304 80.9063 65.0151 81.6713H65.0165C64.9083 82.3856 65.3273 83.19 65.9643 83.5359C66.0108 83.5613 66.0558 83.5824 66.105 83.6034L68.864 84.7467C68.9343 84.7763 69.0244 84.8044 69.1031 84.8353C69.2001 86.0827 69.5067 87.3019 70.0031 88.4466C69.9469 88.5099 69.8794 88.5802 69.8287 88.6392L67.9303 90.9441C67.4381 91.5417 67.4128 92.5388 67.8712 93.1603H67.8726C68.0161 93.3558 68.2087 93.5147 68.4267 93.6342C68.9076 93.8958 69.5165 93.9577 70.0087 93.7552L72.7678 92.6147C72.8367 92.5866 72.9197 92.5444 72.9942 92.5106C73.582 93.0141 74.2303 93.4669 74.9376 93.8508C75.3483 94.0744 75.7659 94.2586 76.1892 94.4259C76.1948 94.5117 76.1962 94.6088 76.2033 94.6847L76.4915 97.6547C76.5478 98.2369 76.9542 98.7938 77.4801 99.0806C77.6489 99.172 77.8303 99.2353 78.0159 99.2634L78.0173 99.2649C78.7823 99.3788 79.65 98.8894 79.9467 98.1764L81.0914 95.4174C81.1209 95.347 81.1504 95.257 81.18 95.1769C82.4273 95.0799 83.6465 94.7719 84.7912 94.2755C84.8559 94.3317 84.9262 94.4006 84.9853 94.4499L87.2873 96.3469C87.3633 96.4102 87.4462 96.465 87.5334 96.5128C88.1325 96.8377 88.9622 96.8067 89.5022 96.4059H89.5036C90.1251 95.9461 90.3923 94.9856 90.0984 94.2713L88.9565 91.5108C88.927 91.4419 88.8848 91.3589 88.8511 91.283C89.3545 90.6938 89.8059 90.0469 90.1912 89.3395C90.4148 88.9303 90.6004 88.5099 90.7678 88.0866C90.8522 88.0824 90.9506 88.0795 91.0279 88.0725L94.005 87.7842ZM90.9028 86.6705L90.8072 86.6761L90.7003 86.6803L89.8003 86.7295L89.4684 87.5677C89.2982 87.998 89.1393 88.3467 88.965 88.6659C88.6401 89.265 88.245 89.8388 87.7922 90.3689L87.2156 91.0425L87.577 91.8525L87.6375 91.9805L87.667 92.0452L88.8075 94.8042C88.8553 94.9195 88.7878 95.1741 88.6908 95.2613L88.6753 95.2725C88.5979 95.3302 88.3631 95.3541 88.1943 95.2613L88.1915 95.2599L85.8951 93.367L85.829 93.308L85.7306 93.218L85.0598 92.6259L84.24 92.9817C83.2289 93.4205 82.1658 93.6863 81.0773 93.7734L80.1759 93.8452L79.8665 94.6945L79.837 94.7775L79.8018 94.8774L78.6572 97.6336C78.6079 97.7531 78.3633 97.8924 78.2325 97.8727C78.2283 97.8713 78.2029 97.867 78.1608 97.8431C78.0131 97.763 77.9076 97.597 77.9006 97.5183L77.6123 94.5525L77.6081 94.4738L77.6011 94.3303L77.5406 93.4444L76.7151 93.1181C76.2848 92.948 75.9375 92.7891 75.6168 92.6147C75.0164 92.2899 74.4454 91.8933 73.9167 91.4419L73.2234 90.8484L72.3993 91.2394L72.3375 91.2689L72.3333 91.2703L72.239 91.3139L69.4814 92.4544C69.4167 92.4825 69.2508 92.4769 69.1073 92.3981C69.0412 92.363 69.0173 92.3292 69.0145 92.3264L68.999 92.3053C68.9358 92.1886 68.9456 91.9313 69.0244 91.837L70.9172 89.5406L70.979 89.4717L71.062 89.3817L71.6597 88.7095L71.3025 87.8855C70.8623 86.8744 70.5979 85.8113 70.5136 84.7242L70.4433 83.8411L69.6164 83.5219L69.4715 83.4684L69.4097 83.4474L66.6436 82.2984C66.5114 82.2267 66.3961 81.9905 66.4129 81.8794C66.4312 81.7528 66.6393 81.5559 66.7659 81.5433L69.7331 81.2578L69.8118 81.2536L69.9553 81.2466L70.8412 81.1861L71.1675 80.3592C71.3348 79.9374 71.4994 79.5788 71.6709 79.2638C71.9972 78.6633 72.3923 78.0924 72.8437 77.5636L73.4287 76.8816L73.0547 76.0645L73.0097 75.9661L72.9731 75.8845L71.8312 73.1241C71.782 73.0074 71.8579 72.7345 71.9592 72.6586L71.9775 72.6459C72.0689 72.5967 72.284 72.5813 72.4443 72.6684L72.4486 72.6713L74.745 74.5627L74.8083 74.6203L74.9123 74.7145L75.5831 75.3024L76.4015 74.948C77.4112 74.5078 78.4744 74.2434 79.56 74.1577L80.4431 74.0888L80.7623 73.2605L80.8158 73.117L80.8383 73.0524L81.9829 70.2961C82.0308 70.1794 82.2797 70.0374 82.4034 70.057L82.4175 70.0584C82.4329 70.0627 82.454 70.0711 82.4793 70.0852C82.627 70.1653 82.7325 70.3313 82.7409 70.4086L83.0264 73.3758L83.0306 73.4616L83.0376 73.5881L83.0911 74.4825L83.9236 74.813C84.3539 74.9831 84.7012 75.142 85.0204 75.315C85.6195 75.6413 86.1918 76.035 86.7206 76.4878L87.404 77.0714L88.2197 76.6959L88.3139 76.6523L88.4011 76.6144L91.1587 75.4739C91.222 75.4458 91.3879 75.45 91.5314 75.5288C91.5834 75.5583 91.6157 75.5864 91.627 75.6033C91.7043 75.7074 91.6959 75.99 91.6129 76.0913L89.7187 78.3905L89.6611 78.4552L89.5682 78.5564L88.9818 79.2272L89.3348 80.0442C89.775 81.0539 90.0379 82.117 90.1237 83.2027L90.194 84.0858L91.0209 84.405L91.1615 84.457L91.229 84.4824L93.9951 85.6299C94.1259 85.7016 94.2412 85.9378 94.2243 86.0517C94.2061 86.1797 93.9993 86.3738 93.8714 86.385L90.9028 86.6705Z" fill="white"/>
<path d="M82.6664 79.6406C80.2772 78.3413 77.2903 79.2258 75.991 81.6136C74.6916 84.0028 75.5761 86.9897 77.9639 88.2891C80.3532 89.587 83.34 88.7039 84.6394 86.3161C85.9388 83.9269 85.0557 80.94 82.6664 79.6406ZM78.6375 87.053C76.9317 86.1263 76.3003 83.9916 77.2285 82.2844C78.1566 80.5786 80.2899 79.9472 81.9957 80.8753C83.7014 81.802 84.3328 83.9367 83.4047 85.6425C82.478 87.3497 80.3433 87.9797 78.6375 87.053Z" fill="white"/>
</svg>
