<svg width="124" height="124" viewBox="0 0 124 124" fill="none" xmlns="http://www.w3.org/2000/svg">
<path d="M62 124C96.2417 124 124 96.2417 124 62C124 27.7583 96.2417 0 62 0C27.7583 0 0 27.7583 0 62C0 96.2417 27.7583 124 62 124Z" fill="white"/>
<path d="M62 123.5C95.9655 123.5 123.5 95.9655 123.5 62C123.5 28.0345 95.9655 0.5 62 0.5C28.0345 0.5 0.5 28.0345 0.5 62C0.5 95.9655 28.0345 123.5 62 123.5Z" stroke="#FEAB45"/>
<path d="M62 115C91.2711 115 115 91.2711 115 62C115 32.7289 91.2711 9 62 9C32.7289 9 9 32.7289 9 62C9 91.2711 32.7289 115 62 115Z" fill="#FEAB45"/>
<path opacity="0.3" d="M57.7549 78.248H46.0894V81.0271H57.7549V78.248Z" fill="white"/>
<path d="M70.9622 78.3191H28.7127C25.0333 78.3191 22.0227 75.309 22.0227 71.63V38.9568C22.0227 35.2779 25.0333 32.2677 28.7127 32.2677H75.2522C78.9316 32.2677 81.9422 35.2779 81.9422 38.9568V51.4751" stroke="white" stroke-miterlimit="10" stroke-linecap="round" stroke-linejoin="round"/>
<path d="M70.962 68.7377H28.7565C26.7798 68.7377 25.1626 67.1207 25.1626 65.1443V39.1457C25.1626 37.1693 26.7798 35.5517 28.757 35.5517H75.2087C77.1854 35.5517 78.8026 37.1687 78.8026 39.1451V51.1851" stroke="white" stroke-miterlimit="10" stroke-linecap="round" stroke-linejoin="round"/>
<path opacity="0.3" d="M25.1624 40.2855V39.1457C25.1624 37.1693 26.7796 35.5517 28.7568 35.5517H75.2085C77.1851 35.5517 78.8024 37.1687 78.8024 39.1451V40.2855H25.1624Z" fill="white"/>
<path d="M25.1624 40.2855V39.1457C25.1624 37.1693 26.7796 35.5517 28.7568 35.5517H75.2085C77.1851 35.5517 78.8024 37.1687 78.8024 39.1451V40.2855H25.1624Z" stroke="white" stroke-miterlimit="10" stroke-linecap="round" stroke-linejoin="round"/>
<path opacity="0.3" d="M51.9828 75.6689C53.0889 75.6689 53.9855 74.7724 53.9855 73.6664C53.9855 72.5605 53.0889 71.6639 51.9828 71.6639C50.8767 71.6639 49.98 72.5605 49.98 73.6664C49.98 74.7724 50.8767 75.6689 51.9828 75.6689Z" fill="white"/>
<path d="M51.9828 75.6689C53.0889 75.6689 53.9855 74.7724 53.9855 73.6664C53.9855 72.5605 53.0889 71.6639 51.9828 71.6639C50.8767 71.6639 49.98 72.5605 49.98 73.6664C49.98 74.7724 50.8767 75.6689 51.9828 75.6689Z" stroke="white" stroke-miterlimit="10" stroke-linecap="round" stroke-linejoin="round"/>
<path d="M57.8394 78.4624C57.8394 78.4624 56.7816 85.2993 61.9883 85.2993C55.6433 85.2993 51.5755 85.2993 51.5755 85.2993H52.2261C52.2261 85.2993 48.3216 85.2993 41.9761 85.2993C47.1822 85.2993 46.0433 78.5335 46.0433 78.5335" stroke="white" stroke-miterlimit="10" stroke-linecap="round" stroke-linejoin="round"/>
<path d="M49.1627 43.845H29.1877V51.3073H49.1627V43.845Z" stroke="white" stroke-miterlimit="10" stroke-linecap="round" stroke-linejoin="round"/>
<path d="M52.4221 44.7493H69.0888" stroke="white" stroke-miterlimit="10" stroke-linecap="round" stroke-linejoin="round"/>
<path d="M52.4221 48.0822H71.8666" stroke="white" stroke-miterlimit="10" stroke-linecap="round" stroke-linejoin="round"/>
<path d="M52.4221 50.3041H69.0888" stroke="white" stroke-miterlimit="10" stroke-linecap="round" stroke-linejoin="round"/>
<path opacity="0.3" d="M39.1755 55.4229H29.1877V65.4092H39.1755V55.4229Z" fill="white"/>
<path d="M39.1755 55.4229H29.1877V65.4092H39.1755V55.4229Z" stroke="white" stroke-miterlimit="10" stroke-linecap="round" stroke-linejoin="round"/>
<path d="M52.7849 55.4229H42.7971V65.4092H52.7849V55.4229Z" stroke="white" stroke-miterlimit="10" stroke-linecap="round" stroke-linejoin="round"/>
<path d="M66.3943 55.4229H56.4065V65.4092H66.3943V55.4229Z" stroke="white" stroke-miterlimit="10" stroke-linecap="round" stroke-linejoin="round"/>
<path d="M94.8481 89.3681H73.6642C72.1909 89.3681 70.9854 88.1628 70.9854 86.6896V54.1508C70.9854 52.6777 72.1909 51.4723 73.6642 51.4723H94.8481C96.3215 51.4723 97.527 52.6777 97.527 54.1508V86.6896C97.527 88.1628 96.3215 89.3681 94.8481 89.3681Z" stroke="white" stroke-miterlimit="10" stroke-linecap="round" stroke-linejoin="round"/>
<path d="M93.9454 83.2712H74.5676C73.6137 83.2712 72.8398 82.498 72.8398 81.5437V55.3618C72.8398 54.408 73.6132 53.6342 74.5676 53.6342H93.9454C94.8993 53.6342 95.6732 54.4074 95.6732 55.3618V81.5437C95.6726 82.498 94.8993 83.2712 93.9454 83.2712Z" stroke="white" stroke-miterlimit="10" stroke-linecap="round" stroke-linejoin="round"/>
<path opacity="0.3" d="M85.2534 87.464C85.9303 87.464 86.479 86.9153 86.479 86.2386C86.479 85.5618 85.9303 85.0132 85.2534 85.0132C84.5765 85.0132 84.0278 85.5618 84.0278 86.2386C84.0278 86.9153 84.5765 87.464 85.2534 87.464Z" fill="white"/>
<path d="M85.2534 87.464C85.9303 87.464 86.479 86.9153 86.479 86.2386C86.479 85.5618 85.9303 85.0132 85.2534 85.0132C84.5765 85.0132 84.0278 85.5618 84.0278 86.2386C84.0278 86.9153 84.5765 87.464 85.2534 87.464Z" stroke="white" stroke-miterlimit="10" stroke-linecap="round" stroke-linejoin="round"/>
<path opacity="0.3" d="M93.0867 56.4649H76.0889V70.7124H93.0867V56.4649Z" fill="white"/>
<path d="M93.0866 56.4649H75.7322V70.7124H93.0866V56.4649Z" stroke="white" stroke-miterlimit="10" stroke-linecap="round" stroke-linejoin="round"/>
<path d="M76.311 74.7452H89.6444" stroke="white" stroke-miterlimit="10" stroke-linecap="round" stroke-linejoin="round"/>
<path d="M76.311 76.9671H87.4221" stroke="white" stroke-miterlimit="10" stroke-linecap="round" stroke-linejoin="round"/>
<path d="M89.7432 42.5024V45.9636" stroke="white" stroke-miterlimit="10" stroke-linecap="round" stroke-linejoin="round"/>
<path d="M91.4744 44.2327H88.0127" stroke="white" stroke-miterlimit="10" stroke-linecap="round" stroke-linejoin="round"/>
<path d="M95.3682 30.2036V35.985" stroke="white" stroke-miterlimit="10" stroke-linecap="round" stroke-linejoin="round"/>
<path d="M98.2592 33.0943H92.4775" stroke="white" stroke-miterlimit="10" stroke-linecap="round" stroke-linejoin="round"/>
</svg>
