<svg width="124" height="124" viewBox="0 0 124 124" fill="none" xmlns="http://www.w3.org/2000/svg">
<path d="M62 124C96.2417 124 124 96.2417 124 62C124 27.7583 96.2417 0 62 0C27.7583 0 0 27.7583 0 62C0 96.2417 27.7583 124 62 124Z" fill="white"/>
<path d="M62 123.5C95.9655 123.5 123.5 95.9655 123.5 62C123.5 28.0345 95.9655 0.5 62 0.5C28.0345 0.5 0.5 28.0345 0.5 62C0.5 95.9655 28.0345 123.5 62 123.5Z" stroke="#FEAB45"/>
<path d="M62 115C91.2711 115 115 91.2711 115 62C115 32.7289 91.2711 9 62 9C32.7289 9 9 32.7289 9 62C9 91.2711 32.7289 115 62 115Z" fill="#FEAB45"/>
<path d="M92.8333 99H31.1667C27.7657 99 25 96.2263 25 92.8156V46.4322C25 43.0215 27.7657 40.2478 31.1667 40.2478H62C62.851 40.2478 63.5417 40.9404 63.5417 41.7939C63.5417 42.6473 62.851 43.34 62 43.34H31.1667C29.4662 43.34 28.0833 44.7268 28.0833 46.4322V92.8156C28.0833 94.5209 29.4662 95.9078 31.1667 95.9078H92.8333C94.5338 95.9078 95.9167 94.5209 95.9167 92.8156V46.4322C95.9167 44.7268 94.5338 43.34 92.8333 43.34C91.9823 43.34 91.2917 42.6473 91.2917 41.7939C91.2917 40.9404 91.9823 40.2478 92.8333 40.2478C96.2342 40.2478 99 43.0215 99 46.4322V92.8156C99 96.2263 96.2342 99 92.8333 99Z" fill="white"/>
<path d="M92.8334 92.8156H40.4167V46.4322H55.8334C56.6844 46.4322 57.3751 47.1249 57.3751 47.9783C57.3751 48.8318 56.6844 49.5244 55.8334 49.5244H43.5001V89.7233H89.7501V49.5244H86.6668C85.8158 49.5244 85.1251 48.8318 85.1251 47.9783C85.1251 47.1249 85.8158 46.4322 86.6668 46.4322H92.8334V92.8156Z" fill="white"/>
<path d="M37.3333 89.7233H25V49.5244H37.3333V89.7233ZM28.0833 86.6311H34.25V52.6166H28.0833V86.6311Z" fill="white"/>
<path d="M51.8867 67.3975L55.9552 54.5694L83.6928 26.7533C86.0223 24.4156 90.0846 24.4156 92.4141 26.7533C94.8191 29.1652 94.8191 33.0877 92.4141 35.4981L64.6779 63.3157L51.8867 67.3975ZM58.667 56.2237L56.632 62.637L63.0268 60.5961L90.2341 33.3134C91.4366 32.1075 91.4366 30.147 90.2341 28.941C89.0686 27.7722 87.0383 27.7722 85.8728 28.941L58.667 56.2237Z" fill="white"/>
<path d="M35.7917 61.8933H26.5417V64.9855H35.7917V61.8933Z" fill="white"/>
<path d="M35.7917 74.2622H26.5417V77.3544H35.7917V74.2622Z" fill="white"/>
<path d="M89.1424 38.1388C88.7478 38.1388 88.3531 37.9873 88.0525 37.6858L81.5112 31.1257C80.9084 30.5212 80.9084 29.544 81.5112 28.9395C82.114 28.335 83.0883 28.335 83.6911 28.9395L90.2324 35.4996C90.8352 36.1042 90.8352 37.0813 90.2324 37.6858C89.9318 37.9889 89.5371 38.1388 89.1424 38.1388Z" fill="white"/>
<path d="M80.4229 46.8852C80.0283 46.8852 79.6336 46.7337 79.333 46.4322L72.7917 39.872C72.1889 39.2675 72.1889 38.2904 72.7917 37.6858C73.3945 37.0813 74.3688 37.0813 74.9716 37.6858L81.5129 44.246C82.1157 44.8505 82.1157 45.8277 81.5129 46.4322C81.2107 46.7337 80.8176 46.8852 80.4229 46.8852Z" fill="white"/>
<path d="M63.8531 63.5028C63.4585 63.5028 63.0638 63.3513 62.7632 63.0498L56.2219 56.4897C55.6191 55.8851 55.6191 54.908 56.2219 54.3034C56.8247 53.6989 57.799 53.6989 58.4018 54.3034L64.9431 60.8636C65.5459 61.4681 65.5459 62.4453 64.9431 63.0498C64.6409 63.3513 64.2478 63.5028 63.8531 63.5028Z" fill="white"/>
<path d="M51.2083 69.6239C50.8136 69.6239 50.419 69.4724 50.1184 69.1709C49.5156 68.5663 49.5156 67.5892 50.1184 66.9847L53.1693 63.9249C53.7721 63.3204 54.7464 63.3204 55.3492 63.9249C55.952 64.5294 55.952 65.5066 55.3492 66.1111L52.2983 69.1709C51.9976 69.4724 51.603 69.6239 51.2083 69.6239Z" fill="white"/>
</svg>
