<svg width="48" height="48" viewBox="0 0 48 48" fill="none" xmlns="http://www.w3.org/2000/svg">
<path d="M0.22998 47.05H29.41C29.41 35.45 20.01 26.05 8.40998 26.05C5.50998 26.05 2.73998 26.64 0.22998 27.7V47.05V47.05Z" fill="#1FBEC8"/>
<path d="M42.33 32.14H47.02V1.70001H1.02002V32.14H25.58" fill="white"/>
<path d="M37.05 37.53V45.16L33.96 41.93L30.86 45.16V37.53" fill="#1C2E5C"/>
<path d="M41.02 4.70001H7.02002C7.02002 6.36001 5.68002 7.70001 4.02002 7.70001V26.14C5.68002 26.14 7.02002 27.48 7.02002 29.14H25.08C25.11 24.27 29.08 20.31 33.96 20.31C37.95 20.31 41.34 22.96 42.45 26.59C42.91 26.31 43.44 26.13 44.02 26.13V7.70001C42.36 7.70001 41.02 6.36001 41.02 4.70001Z" fill="#1FBEC8"/>
<path d="M33.9601 38.08C38.8644 38.08 42.8401 34.1043 42.8401 29.2C42.8401 24.2957 38.8644 20.32 33.9601 20.32C29.0558 20.32 25.0801 24.2957 25.0801 29.2C25.0801 34.1043 29.0558 38.08 33.9601 38.08Z" fill="#1FBEC8"/>
<path d="M33.96 24.35L35.16 28.06H39.06L35.9 30.35L37.11 34.05L33.96 31.76L30.8 34.05L32.01 30.35L28.85 28.06H32.75L33.96 24.35Z" fill="white"/>
<path d="M47.02 0.950012H1.02002C0.61002 0.950012 0.27002 1.29001 0.27002 1.70001V32.14C0.27002 32.55 0.61002 32.89 1.02002 32.89H25.06C26.02 35.18 27.83 37.03 30.11 38.02V45.16C30.11 45.47 30.3 45.74 30.58 45.86C30.87 45.97 31.19 45.9 31.4 45.68L33.95 43.01L36.5 45.68C36.64 45.83 36.84 45.91 37.04 45.91C37.13 45.91 37.23 45.89 37.32 45.86C37.6 45.75 37.79 45.47 37.79 45.16V38.02C40.06 37.03 41.88 35.18 42.84 32.89H47.01C47.42 32.89 47.76 32.55 47.76 32.14V1.70001C47.77 1.29001 47.43 0.950012 47.02 0.950012ZM36.3 43.3L34.5 41.42C34.22 41.13 33.7 41.13 33.42 41.42L31.62 43.3V38.53C32.37 38.72 33.16 38.83 33.97 38.83C34.78 38.83 35.56 38.72 36.32 38.53V43.3H36.3ZM33.96 37.33C29.48 37.33 25.83 33.68 25.83 29.2C25.83 24.72 29.48 21.07 33.96 21.07C38.44 21.07 42.09 24.72 42.09 29.2C42.09 33.68 38.44 37.33 33.96 37.33ZM46.27 31.39H43.33C43.5 30.68 43.59 29.95 43.59 29.2C43.59 28.45 43.49 27.72 43.33 27.02C43.55 26.94 43.78 26.89 44.02 26.89C44.22 26.89 44.41 26.81 44.55 26.67C44.7 26.53 44.77 26.34 44.77 26.14V7.70001C44.77 7.50001 44.7 7.31001 44.55 7.17001C44.41 7.03001 44.22 6.95001 44.02 6.95001C42.79 6.95001 41.78 5.94001 41.77 4.70001C41.77 4.50001 41.7 4.31001 41.55 4.17001C41.41 4.03001 41.22 3.95001 41.02 3.95001H29.83C29.42 3.95001 29.08 4.29001 29.08 4.70001C29.08 5.11001 29.42 5.45001 29.83 5.45001H40.34C40.64 6.91001 41.8 8.08001 43.26 8.38001V25.47C43.13 25.5 43 25.55 42.87 25.59C41.44 22.06 37.98 19.57 33.95 19.57C28.91 19.57 24.77 23.46 24.36 28.39H7.69002C7.39002 26.93 6.22002 25.76 4.76002 25.47V8.38001C6.22002 8.08001 7.39002 6.91001 7.69002 5.45001H25.83C26.24 5.45001 26.58 5.11001 26.58 4.70001C26.58 4.29001 26.24 3.95001 25.83 3.95001H7.01002C6.82002 3.95001 6.62002 4.03001 6.48002 4.17001C6.34002 4.31001 6.26002 4.50001 6.26002 4.70001C6.26002 5.94001 5.25002 6.95001 4.01002 6.95001C3.82002 6.95001 3.62002 7.03001 3.48002 7.17001C3.34002 7.31001 3.26002 7.50001 3.26002 7.70001V26.14C3.26002 26.34 3.34002 26.53 3.48002 26.67C3.62002 26.81 3.82002 26.89 4.01002 26.89C5.25002 26.89 6.26002 27.9 6.26002 29.14C6.26002 29.34 6.34002 29.54 6.48002 29.67C6.62002 29.81 6.82002 29.89 7.01002 29.89H24.35C24.39 30.4 24.46 30.9 24.58 31.39H1.77002V2.45001H46.27V31.39Z" fill="#1C2E5C"/>
<path d="M6.88 12.11C6.88 12.52 7.22 12.86 7.63 12.86H40.41C40.82 12.86 41.16 12.52 41.16 12.11C41.16 11.7 40.82 11.36 40.41 11.36H7.63C7.21 11.36 6.88 11.69 6.88 12.11Z" fill="#1C2E5C"/>
<path d="M40.41 16.51H7.63C7.22 16.51 6.88 16.85 6.88 17.26C6.88 17.67 7.22 18.01 7.63 18.01H40.41C40.82 18.01 41.16 17.67 41.16 17.26C41.16 16.85 40.82 16.51 40.41 16.51Z" fill="#1C2E5C"/>
<path d="M22.02 21.66H7.63C7.22 21.66 6.88 22 6.88 22.41C6.88 22.82 7.22 23.16 7.63 23.16H22.02C22.43 23.16 22.77 22.82 22.77 22.41C22.77 22 22.43 21.66 22.02 21.66Z" fill="#1C2E5C"/>
<path d="M39.77 27.82C39.67 27.51 39.38 27.3 39.06 27.3H35.7L34.66 24.11C34.56 23.8 34.27 23.59 33.95 23.59C33.63 23.59 33.34 23.8 33.24 24.11L32.2 27.3H28.85C28.52 27.3 28.24 27.51 28.14 27.82C28.04 28.13 28.15 28.47 28.41 28.66L31.12 30.63L30.08 33.82C29.98 34.13 30.09 34.47 30.35 34.66C30.48 34.76 30.64 34.8 30.79 34.8C30.94 34.8 31.1 34.75 31.23 34.66L33.94 32.69L36.65 34.66C36.91 34.85 37.27 34.85 37.53 34.66C37.79 34.47 37.9 34.13 37.8 33.82L36.76 30.63L39.47 28.66C39.76 28.47 39.87 28.13 39.77 27.82ZM35.46 29.74C35.2 29.93 35.09 30.27 35.19 30.58L35.68 32.09L34.39 31.16C34.13 30.97 33.77 30.97 33.51 31.16L32.22 32.09L32.71 30.58C32.81 30.27 32.7 29.93 32.44 29.74L31.15 28.81H32.74C33.07 28.81 33.35 28.6 33.45 28.29L33.94 26.78L34.43 28.29C34.53 28.6 34.82 28.81 35.14 28.81H36.73L35.46 29.74Z" fill="#1C2E5C"/>
<path d="M27.8301 5.45001C28.2443 5.45001 28.5801 5.11423 28.5801 4.70001C28.5801 4.2858 28.2443 3.95001 27.8301 3.95001C27.4159 3.95001 27.0801 4.2858 27.0801 4.70001C27.0801 5.11423 27.4159 5.45001 27.8301 5.45001Z" fill="#1C2E5C"/>
</svg>
