<svg xmlns="http://www.w3.org/2000/svg" width="69.334" height="64.697" viewBox="0 0 69.334 64.697"><g transform="translate(0 -17.123)"><g transform="translate(0 17.123)"><path d="M172.189,116.7a12.613,12.613,0,0,0-10.131,5.136,1.072,1.072,0,0,0,.866,1.706h0l18.513-.024a1.072,1.072,0,0,0,.863-1.708A12.616,12.616,0,0,0,172.189,116.7Zm-8.061,5.2a10.914,10.914,0,0,1,16.1-.021Z" transform="translate(-137.513 -102.834)" fill="#17a6af"/><path d="M161.967,333.531a1.066,1.066,0,0,0,.091,1.118,12.56,12.56,0,0,0,20.243.026,1.072,1.072,0,0,0-.863-1.708l-18.513-.024h0A1.068,1.068,0,0,0,161.967,333.531Zm18.263,1.076a10.914,10.914,0,0,1-16.1-.021Z" transform="translate(-137.513 -288.957)" fill="#17a6af"/><path d="M67.012,41.047h-4.2a1.949,1.949,0,0,1,.153-.464,7.83,7.83,0,0,0-6.453-11.176,1.935,1.935,0,0,1-1.783-1.783,7.83,7.83,0,0,0-11.176-6.453,1.935,1.935,0,0,1-2.436-.653,7.83,7.83,0,0,0-12.905,0,1.935,1.935,0,0,1-2.436.653A7.83,7.83,0,0,0,14.6,27.623a1.935,1.935,0,0,1-1.783,1.783A7.83,7.83,0,0,0,6.366,40.583a1.959,1.959,0,0,1,.152.464h-4.2A2.325,2.325,0,0,0,0,43.37v12.2A2.325,2.325,0,0,0,2.323,57.9h4.2a1.955,1.955,0,0,1-.152.464,7.83,7.83,0,0,0,6.453,11.176A1.935,1.935,0,0,1,14.6,71.32a7.83,7.83,0,0,0,11.176,6.453,1.935,1.935,0,0,1,2.436.653,7.83,7.83,0,0,0,12.905,0,1.936,1.936,0,0,1,2.436-.653A7.83,7.83,0,0,0,54.732,71.32a1.935,1.935,0,0,1,1.783-1.783A7.83,7.83,0,0,0,62.968,58.36a1.953,1.953,0,0,1-.152-.464h4.2a2.325,2.325,0,0,0,2.323-2.323V43.37A2.325,2.325,0,0,0,67.012,41.047ZM8.408,34.31a5.807,5.807,0,0,1,4.572-2.884,3.953,3.953,0,0,0,3.643-3.643A5.8,5.8,0,0,1,24.907,23a3.952,3.952,0,0,0,4.977-1.333,5.8,5.8,0,0,1,9.567,0A3.953,3.953,0,0,0,44.427,23a5.8,5.8,0,0,1,8.285,4.783,3.953,3.953,0,0,0,3.643,3.643,5.8,5.8,0,0,1,4.783,8.285,3.984,3.984,0,0,0-.369,1.335h-4.4a23.311,23.311,0,0,0-6.189-8.94,1.013,1.013,0,1,0-1.351,1.511,21.275,21.275,0,0,1,5.348,7.429H15.15A21.265,21.265,0,0,1,45.2,31a1.013,1.013,0,0,0,1.005-1.76A23.294,23.294,0,0,0,12.959,41.047H8.566a3.989,3.989,0,0,0-.37-1.335,5.807,5.807,0,0,1,.212-5.4ZM60.927,64.632a5.807,5.807,0,0,1-4.572,2.884,3.953,3.953,0,0,0-3.643,3.643,5.8,5.8,0,0,1-8.285,4.783,3.953,3.953,0,0,0-4.977,1.333,5.8,5.8,0,0,1-9.567,0,3.954,3.954,0,0,0-4.977-1.333,5.8,5.8,0,0,1-8.285-4.783,3.953,3.953,0,0,0-3.643-3.643A5.8,5.8,0,0,1,8.2,59.231a3.989,3.989,0,0,0,.37-1.335H12.96a23.285,23.285,0,0,0,43.416,0h4.392a3.989,3.989,0,0,0,.371,1.335A5.807,5.807,0,0,1,60.927,64.632Zm6.381-9.059a.3.3,0,0,1-.3.3H23.645a1.013,1.013,0,0,0,0,2.026H54.184a21.256,21.256,0,0,1-39.034,0h3.743a1.013,1.013,0,0,0,0-2.026H2.323a.3.3,0,0,1-.3-.3V43.37a.3.3,0,0,1,.3-.3H67.012a.3.3,0,0,1,.3.3Z" transform="translate(0 -17.123)" fill="#17a6af"/><path d="M273.665,218.953a.821.821,0,0,0-.821.821v6.488a.821.821,0,1,0,1.642,0v-6.488A.821.821,0,0,0,273.665,218.953Z" transform="translate(-235.685 -190.669)" fill="#17a6af"/><path d="M351.323,218.953a.821.821,0,0,0-.821.821v6.488a.821.821,0,1,0,1.642,0v-6.488A.821.821,0,0,0,351.323,218.953Z" transform="translate(-302.766 -190.669)" fill="#17a6af"/><path d="M304.527,221.029a.821.821,0,0,0,0-1.642h-2.61a.821.821,0,0,0-.821.821v6.44a.821.821,0,1,0,1.642,0v-2.46h1.582a.821.821,0,0,0,0-1.642h-1.582v-1.517h1.789Z" transform="translate(-259.688 -191.049)" fill="#17a6af"/><path d="M110.872,221.135a.821.821,0,1,0,0-1.642h-2.709a.821.821,0,0,0-.821.821v6.429a.821.821,0,0,0,.821.821h2.709a.821.821,0,1,0,0-1.642h-1.888v-1.572h1.688a.821.821,0,0,0,0-1.642h-1.688v-1.572Z" transform="translate(-92.574 -191.142)" fill="#17a6af"/><path d="M379.65,221.135a.821.821,0,1,0,0-1.642h-2.709a.821.821,0,0,0-.821.821v6.429a.821.821,0,0,0,.821.821h2.709a.821.821,0,1,0,0-1.642h-1.888v-1.572h1.688a.821.821,0,0,0,0-1.642h-1.688v-1.572Z" transform="translate(-324.375 -191.142)" fill="#17a6af"/><path d="M429.029,220.7h-1.783a.821.821,0,0,0-.821.823v0h0s.006,6.294.016,6.346a.819.819,0,0,0,.818.764h0c.054,0,1.325-.005,1.834-.014,1.91-.033,3.3-1.7,3.3-3.955C432.393,222.3,431.041,220.7,429.029,220.7Zm.038,6.282c-.228,0-.625.007-.99.01,0-.742-.005-1.8-.005-2.33,0-.446,0-1.547,0-2.32h.961c1.6,0,1.721,1.781,1.721,2.327C430.751,226.249,429.9,226.969,429.067,226.984Z" transform="translate(-366.48 -192.2)" fill="#17a6af"/><path d="M37.823,224.716a.821.821,0,0,0-1.157.1,1.773,1.773,0,0,1-.18.186,1.8,1.8,0,0,1-1.234.436,2.423,2.423,0,1,1,1.354-4.432.821.821,0,1,0,.919-1.361,4.065,4.065,0,1,0-2.273,7.435,3.375,3.375,0,0,0,2.673-1.209.821.821,0,0,0-.1-1.157Z" transform="translate(-27.765 -190.669)" fill="#17a6af"/><path d="M218.562,218.953h-3.583a.821.821,0,0,0,0,1.642h.963v5.667a.821.821,0,1,0,1.642,0v-5.667h.978a.821.821,0,0,0,0-1.642Z" transform="translate(-184.593 -190.669)" fill="#17a6af"/><path d="M165.143,221.459a2.559,2.559,0,0,0-2.6-2.507h-1.726a.821.821,0,0,0-.821.821v6.488a.821.821,0,0,0,1.642,0v-1.81l2.07,2.352a.821.821,0,0,0,1.233-1.085l-1.638-1.861A2.525,2.525,0,0,0,165.143,221.459Zm-2.6.865-.9,0c0-.324,0-1.394,0-1.733h.9a.87.87,0,1,1,0,1.73Z" transform="translate(-137.912 -190.669)" fill="#17a6af"/></g></g></svg>