<svg width="58" height="58" viewBox="0 0 58 58" fill="none" xmlns="http://www.w3.org/2000/svg">
<g clip-path="url(#clip0)">
<path d="M57.4442 26.7767C55.689 25.6789 53.6865 25.0391 51.62 24.9158C51.2661 24.8869 50.9105 24.8869 50.5567 24.9158C49.8901 22.7 48.4932 20.775 46.5933 19.4542C46.3569 19.2957 46.0721 19.2257 45.7892 19.2567C45.5062 19.2876 45.2433 19.4175 45.0467 19.6233C44.208 20.744 43.6188 22.0312 43.3187 23.3983C43.0186 24.7655 43.0145 26.1811 43.3067 27.55C43.328 27.728 43.311 27.9085 43.2568 28.0794C43.2026 28.2503 43.1125 28.4076 42.9925 28.5408C42.8893 28.6563 42.7625 28.7483 42.6208 28.8109C42.4791 28.8734 42.3257 28.9049 42.1708 28.9033H41.0833V22.9583C41.0833 22.6379 40.956 22.3305 40.7294 22.1039C40.5028 21.8773 40.1955 21.75 39.875 21.75H33.8333V8.45833C33.8333 8.13786 33.706 7.83052 33.4794 7.60391C33.2528 7.37731 32.9455 7.25 32.625 7.25H25.375C25.0545 7.25 24.7472 7.37731 24.5206 7.60391C24.294 7.83052 24.1667 8.13786 24.1667 8.45833V14.5H10.875C10.5545 14.5 10.2472 14.6273 10.0206 14.8539C9.79397 15.0805 9.66667 15.3879 9.66667 15.7083V21.75H3.625C3.30453 21.75 2.99719 21.8773 2.77058 22.1039C2.54397 22.3305 2.41667 22.6379 2.41667 22.9583V29H1.20833C0.887863 29 0.580519 29.1273 0.353913 29.3539C0.127306 29.5805 0 29.8879 0 30.2083C0 48.7442 13.5092 50.75 19.3333 50.75C25.3818 50.7679 31.329 49.1968 36.5795 46.1941C41.8301 43.1913 46.1999 38.8622 49.2517 33.64C50.9686 33.4136 52.6191 32.83 54.0968 31.9267C55.5744 31.0235 56.8464 29.8207 57.8308 28.3958C57.9862 28.1278 58.0328 27.8104 57.9608 27.509C57.8888 27.2077 57.7039 26.9455 57.4442 26.7767V26.7767ZM38.6667 29H33.8333V24.1667H38.6667V29ZM12.0833 29V24.1667H16.9167V29H12.0833ZM19.3333 29V24.1667H24.1667V29H19.3333ZM31.4167 16.9167V21.75H26.5833V16.9167H31.4167ZM26.5833 29V24.1667H31.4167V29H26.5833ZM26.5833 9.66667H31.4167V14.5H26.5833V9.66667ZM24.1667 21.75H19.3333V16.9167H24.1667V21.75ZM12.0833 16.9167H16.9167V21.75H12.0833V16.9167ZM4.83333 24.1667H9.66667V29H4.83333V24.1667ZM12.0833 41.0833C11.6054 41.0833 11.1381 40.9416 10.7407 40.6761C10.3433 40.4105 10.0335 40.0331 9.85062 39.5915C9.66771 39.1499 9.61985 38.664 9.7131 38.1952C9.80635 37.7264 10.0365 37.2958 10.3745 36.9578C10.7125 36.6198 11.1431 36.3897 11.6119 36.2964C12.0807 36.2032 12.5666 36.251 13.0082 36.434C13.4497 36.6169 13.8272 36.9266 14.0927 37.324C14.3583 37.7215 14.5 38.1887 14.5 38.6667C14.5 39.3076 14.2454 39.9223 13.7922 40.3755C13.339 40.8287 12.7243 41.0833 12.0833 41.0833Z" fill="#00AFF0"/>
</g>
<defs>
<clipPath id="clip0">
<rect width="58" height="58" fill="white"/>
</clipPath>
</defs>
</svg>
