<svg xmlns="http://www.w3.org/2000/svg" width="43.868" height="37" viewBox="0 0 43.868 37"><g transform="translate(0 -40.081)"><g transform="translate(0 40.081)"><path d="M41.165,40.081H2.7a2.706,2.706,0,0,0-2.7,2.7v26.1a2.706,2.706,0,0,0,2.7,2.7H15.712L15.185,75.8h-2.18a.643.643,0,0,0,0,1.285H30.863a.643.643,0,0,0,0-1.285h-2.18l-.526-4.209H41.165a2.706,2.706,0,0,0,2.7-2.7v-26.1A2.706,2.706,0,0,0,41.165,40.081ZM16.481,75.8l.526-4.209h2.365l.232.928a2.4,2.4,0,0,0,4.66,0l.232-.928h2.365l.526,4.209ZM20.7,71.586h2.475l-.154.616a1.117,1.117,0,0,1-2.167,0Zm21.886-2.7h0A1.419,1.419,0,0,1,41.165,70.3H2.7a1.419,1.419,0,0,1-1.418-1.418v-26.1A1.419,1.419,0,0,1,2.7,41.366H41.165a1.419,1.419,0,0,1,1.418,1.418v26.1Z" transform="translate(0 -40.081)" fill="#17a6af"/></g><g transform="translate(2.747 42.828)"><path d="M65.674,72.146H32.707a.643.643,0,0,0-.643.643V97.514a.642.642,0,0,0,.643.643H34.08a.643.643,0,0,0,0-1.285h-.731V73.431H65.674a.643.643,0,1,0,0-1.285Z" transform="translate(-32.064 -72.146)" fill="#17a6af"/></g><g transform="translate(6.868 42.828)"><path d="M113.772,72.146H112.4a.643.643,0,0,0,0,1.285h.731v23.44H80.8a.643.643,0,1,0,0,1.285h32.967a.642.642,0,0,0,.643-.643V72.789A.642.642,0,0,0,113.772,72.146Z" transform="translate(-80.162 -72.146)" fill="#17a6af"/></g><g transform="translate(11.676 46.949)"><path d="M155.282,123.235a.642.642,0,0,0-.477-.246L139.7,122.3h-.035a1.332,1.332,0,0,0-.534-.719l-1.85-1.234a.643.643,0,0,0-.713,1.069l1.85,1.233a.045.045,0,0,1,.018.025l2.357,8.249a2.023,2.023,0,0,0,.35.688l-.862,1.725a1.321,1.321,0,0,0,.058,1.293,1.335,1.335,0,0,0,.33.363,2.016,2.016,0,1,0,3.629.268h5.859a2.016,2.016,0,1,0,3.683-.167.642.642,0,0,0-.431-1.118H141.464a.044.044,0,0,1-.039-.064l.794-1.589a2.017,2.017,0,0,0,.5.064,2.075,2.075,0,0,0,.24-.014l9.029-1.062a2.7,2.7,0,0,0,2.335-2.155l1.08-5.4A.643.643,0,0,0,155.282,123.235Zm-3.253,12.028a.731.731,0,1,1-.731.731A.732.732,0,0,1,152.029,135.263Zm-9.615,0a.731.731,0,1,1-.731.731A.732.732,0,0,1,142.413,135.263Zm-1.576-8.84-.805-2.818,2.569.117.445,2.7Zm1.974,4.676a.728.728,0,0,1-.788-.525l-.819-2.865h2.054l.54,3.274Zm3.767-.443-1.5.177-.515-3.124h2.017Zm0-4.233h-2.229l-.436-2.642,2.665.121Zm3.254,3.85-1.969.232v-2.8h2.2Zm.348-3.85h-2.318V123.96l2.53.115Zm2.885,2.483a1.414,1.414,0,0,1-1.225,1.13l-.7.083.218-2.411h1.95Zm.5-2.483h-2.091l.207-2.289,2.32.105Z" transform="translate(-136.276 -120.241)" fill="#17a6af"/></g></g></svg>