<svg xmlns="http://www.w3.org/2000/svg" width="46.131" height="37" viewBox="0 0 46.131 37"><g transform="translate(0 -50.669)"><path d="M297.508,104.109a28.969,28.969,0,0,1-6.042-1.213,10.942,10.942,0,0,0-7.67.367.676.676,0,1,0,.534,1.242,9.625,9.625,0,0,1,6.747-.315,30.3,30.3,0,0,0,6.329,1.266l.052,0a.676.676,0,0,0,.051-1.35Z" transform="translate(-257.853 -47.048)" fill="#17a6af"/><path d="M297.508,135.984a28.963,28.963,0,0,1-6.042-1.213,10.942,10.942,0,0,0-7.67.367.676.676,0,1,0,.534,1.242,9.625,9.625,0,0,1,6.747-.315,30.3,30.3,0,0,0,6.329,1.266l.052,0a.676.676,0,0,0,.051-1.35Z" transform="translate(-257.853 -76.051)" fill="#17a6af"/><path d="M297.508,295.361a28.963,28.963,0,0,1-6.042-1.213,10.942,10.942,0,0,0-7.67.367.676.676,0,1,0,.534,1.242,9.627,9.627,0,0,1,6.747-.315,30.3,30.3,0,0,0,6.329,1.267l.052,0a.676.676,0,0,0,.051-1.349Z" transform="translate(-257.853 -221.068)" fill="#17a6af"/><path d="M297.508,327.236a28.97,28.97,0,0,1-6.042-1.213,10.942,10.942,0,0,0-7.67.367.676.676,0,1,0,.534,1.242,9.625,9.625,0,0,1,6.747-.315,30.3,30.3,0,0,0,6.329,1.266l.052,0a.676.676,0,0,0,.051-1.35Z" transform="translate(-257.853 -250.071)" fill="#17a6af"/><path d="M297.508,167.86a28.963,28.963,0,0,1-6.042-1.213,10.942,10.942,0,0,0-7.67.367.676.676,0,1,0,.534,1.242,9.626,9.626,0,0,1,6.747-.315,30.3,30.3,0,0,0,6.329,1.267l.052,0a.676.676,0,0,0,.051-1.35Z" transform="translate(-257.853 -105.054)" fill="#17a6af"/><path d="M297.508,231.61a28.956,28.956,0,0,1-6.042-1.213,10.942,10.942,0,0,0-7.67.367.676.676,0,1,0,.534,1.242,9.626,9.626,0,0,1,6.747-.315,30.305,30.305,0,0,0,6.329,1.267l.052,0a.676.676,0,0,0,.051-1.35Z" transform="translate(-257.853 -163.061)" fill="#17a6af"/><path d="M297.508,199.735a28.97,28.97,0,0,1-6.042-1.213,10.942,10.942,0,0,0-7.67.367.676.676,0,1,0,.534,1.242,9.626,9.626,0,0,1,6.747-.315,30.3,30.3,0,0,0,6.329,1.266l.052,0a.676.676,0,0,0,.051-1.35Z" transform="translate(-257.853 -134.058)" fill="#17a6af"/><path d="M297.508,263.485a28.953,28.953,0,0,1-6.042-1.213,10.942,10.942,0,0,0-7.67.368.676.676,0,1,0,.534,1.242,9.627,9.627,0,0,1,6.747-.315,30.294,30.294,0,0,0,6.329,1.267l.052,0a.676.676,0,0,0,.051-1.35Z" transform="translate(-257.853 -192.065)" fill="#17a6af"/><path d="M65.623,105.459l.052,0A30.3,30.3,0,0,0,72,104.19a9.625,9.625,0,0,1,6.747.315.676.676,0,0,0,.534-1.242,10.942,10.942,0,0,0-7.67-.367,28.97,28.97,0,0,1-6.043,1.213.676.676,0,0,0,.051,1.35Z" transform="translate(-59.097 -47.048)" fill="#17a6af"/><path d="M65.623,137.334l.052,0A30.29,30.29,0,0,0,72,136.066a9.625,9.625,0,0,1,6.747.315.676.676,0,0,0,.534-1.242,10.942,10.942,0,0,0-7.67-.367,28.964,28.964,0,0,1-6.042,1.213.676.676,0,0,0,.051,1.35Z" transform="translate(-59.097 -76.051)" fill="#17a6af"/><path d="M65.623,296.71l.052,0A30.29,30.29,0,0,0,72,295.442a9.624,9.624,0,0,1,6.747.315.676.676,0,0,0,.534-1.242,10.942,10.942,0,0,0-7.67-.367,28.965,28.965,0,0,1-6.043,1.213.676.676,0,0,0,.051,1.349Z" transform="translate(-59.097 -221.068)" fill="#17a6af"/><path d="M65.623,328.586l.052,0A30.293,30.293,0,0,0,72,327.317a9.625,9.625,0,0,1,6.747.315.676.676,0,0,0,.534-1.242,10.942,10.942,0,0,0-7.67-.367,28.971,28.971,0,0,1-6.043,1.213.676.676,0,0,0,.051,1.349Z" transform="translate(-59.097 -250.071)" fill="#17a6af"/><path d="M65.623,169.209l.052,0A30.293,30.293,0,0,0,72,167.941a9.625,9.625,0,0,1,6.747.315.676.676,0,0,0,.534-1.242,10.942,10.942,0,0,0-7.67-.367,28.963,28.963,0,0,1-6.043,1.213.676.676,0,0,0,.051,1.35Z" transform="translate(-59.097 -105.055)" fill="#17a6af"/><path d="M65.623,232.96l.052,0A30.3,30.3,0,0,0,72,231.692a9.625,9.625,0,0,1,6.747.315.676.676,0,0,0,.534-1.242,10.942,10.942,0,0,0-7.67-.367,28.957,28.957,0,0,1-6.042,1.213.676.676,0,0,0,.051,1.35Z" transform="translate(-59.097 -163.061)" fill="#17a6af"/><path d="M65.623,201.084l.052,0A30.293,30.293,0,0,0,72,199.815a9.625,9.625,0,0,1,6.747.315.676.676,0,0,0,.534-1.242,10.941,10.941,0,0,0-7.67-.367,28.969,28.969,0,0,1-6.043,1.213.676.676,0,0,0,.051,1.35Z" transform="translate(-59.097 -134.057)" fill="#17a6af"/><path d="M65.623,264.835l.052,0A30.288,30.288,0,0,0,72,263.567a9.624,9.624,0,0,1,6.747.315.676.676,0,1,0,.534-1.242,10.942,10.942,0,0,0-7.67-.368,28.955,28.955,0,0,1-6.042,1.213.676.676,0,0,0,.051,1.35Z" transform="translate(-59.097 -192.065)" fill="#17a6af"/><path d="M44.48,54.511H43.422v-.617a1.484,1.484,0,0,0-1.6-1.479,20.811,20.811,0,0,1-6.6-.783.676.676,0,1,0-.332,1.31,22,22,0,0,0,7.041.82.131.131,0,0,1,.141.132V81.164a23.944,23.944,0,0,1-8.459-1.2,11.2,11.2,0,0,0-9.871,1.607V54.556a9.667,9.667,0,0,1,8.053-2.406.676.676,0,1,0,.215-1.334,10.932,10.932,0,0,0-8.945,2.529,11.028,11.028,0,0,0-10.545-2.158,22.958,22.958,0,0,1-8.21,1.229,1.483,1.483,0,0,0-1.6,1.479v.617H1.65A1.652,1.652,0,0,0,0,56.162v27.4a1.652,1.652,0,0,0,1.65,1.65H19.159a.666.666,0,0,1,.606.369,3.654,3.654,0,0,0,6.6,0,.667.667,0,0,1,.606-.369H44.48a1.652,1.652,0,0,0,1.65-1.65V70.749a.676.676,0,1,0-1.351,0V83.565a.3.3,0,0,1-.3.3H26.972a2.023,2.023,0,0,0-1.828,1.143,2.3,2.3,0,0,1-4.156,0,2.023,2.023,0,0,0-1.828-1.143H1.65a.3.3,0,0,1-.3-.3v-27.4a.3.3,0,0,1,.3-.3H2.708V81.74a.676.676,0,0,0,.5.653c.128.034,3.224.811,9.7-1.14a9.7,9.7,0,0,1,8.554,1.326,2.79,2.79,0,0,0,3.207,0,9.693,9.693,0,0,1,8.554-1.326c6.474,1.951,9.569,1.174,9.7,1.14a.676.676,0,0,0,.5-.653V55.863H44.48a.3.3,0,0,1,.3.3V67.6a.676.676,0,1,0,1.351,0V56.162A1.652,1.652,0,0,0,44.48,54.511ZM4.06,53.895a.131.131,0,0,1,.141-.132,24.268,24.268,0,0,0,8.708-1.283,9.635,9.635,0,0,1,9.481,2.076v27.01a11.147,11.147,0,0,0-9.871-1.607c-.364.11-.765.224-1.136.323l-.013,0a22.1,22.1,0,0,1-7.309.877c0-1.878,0-26.766,0-27.269Z" transform="translate(0 0)" fill="#17a6af"/></g></svg>