<svg xmlns="http://www.w3.org/2000/svg" width="37.198" height="37.198" viewBox="0 0 37.198 37.198"><path d="M12.275,4.65a.775.775,0,0,1-.775-.775V.775a.775.775,0,0,1,1.55,0v3.1A.775.775,0,0,1,12.275,4.65Z" transform="translate(6.324)" fill="#17a6af"/><path d="M18.993,7.109a.774.774,0,0,1-.549-1.322L20.636,3.6a.775.775,0,0,1,1.1,1.1L19.54,6.883A.772.772,0,0,1,18.993,7.109Z" transform="translate(10.018 1.853)" fill="#17a6af"/><path d="M24.875,13.05h-3.1a.775.775,0,0,1,0-1.55h3.1a.775.775,0,1,1,0,1.55Z" transform="translate(11.548 6.324)" fill="#17a6af"/><path d="M21.185,21.959a.778.778,0,0,1-.549-.226l-2.192-2.192a.775.775,0,1,1,1.1-1.1l2.192,2.192a.774.774,0,0,1-.547,1.322Z" transform="translate(10.018 10.019)" fill="#17a6af"/><path d="M12.275,25.65a.775.775,0,0,1-.775-.775v-3.1a.775.775,0,0,1,1.55,0v3.1A.775.775,0,0,1,12.275,25.65Z" transform="translate(6.324 11.548)" fill="#17a6af"/><path d="M4.143,21.959a.774.774,0,0,1-.549-1.322l2.192-2.192a.775.775,0,1,1,1.1,1.1L4.69,21.733a.772.772,0,0,1-.547.226Z" transform="translate(1.852 10.019)" fill="#17a6af"/><path d="M3.875,13.05H.775a.775.775,0,0,1,0-1.55h3.1a.775.775,0,0,1,0,1.55Z" transform="translate(0 6.324)" fill="#17a6af"/><path d="M6.334,7.109a.778.778,0,0,1-.549-.226L3.6,4.691a.775.775,0,0,1,1.1-1.1L6.883,5.787a.774.774,0,0,1-.549,1.322Z" transform="translate(1.853 1.853)" fill="#17a6af"/><path d="M12.538,28.8a.789.789,0,0,1-.271-.048.775.775,0,0,1-.5-.828l1.322-9.974H7.775a.775.775,0,0,1-.62-1.24l9.3-12.4A.776.776,0,0,1,17.84,4.9l-1.4,8.4h5.285a.774.774,0,0,1,.682.408.782.782,0,0,1-.034.8L13.186,28.452a.778.778,0,0,1-.648.347ZM9.325,16.4h4.65a.777.777,0,0,1,.769.877l-.994,7.5,6.536-9.926H15.525a.774.774,0,0,1-.764-.9l1.028-6.166Z" transform="translate(3.849 2.199)" fill="#17a6af"/></svg>