<svg xmlns="http://www.w3.org/2000/svg" width="36.987" height="37" viewBox="0 0 36.987 37"><g transform="translate(-0.082)"><g transform="translate(0.082 8.743)"><g transform="translate(0)"><path d="M25.3,127.929a.616.616,0,0,0-1.16.418l.009.023c.562,1.467.6,2.589.111,3.082-.6.6-2.083.409-3.977-.5a26.367,26.367,0,0,1-6.823-5.092c-4.828-4.829-6.821-9.568-5.589-10.8a1.684,1.684,0,0,1,1.394-.325.616.616,0,0,0,.12-1.227A2.839,2.839,0,0,0,7,114.19c-2.259,2.258,1.194,8.148,5.589,12.543a27.568,27.568,0,0,0,7.163,5.331,12.146,12.146,0,0,0,1.487.595l-4.38,1.661A17.448,17.448,0,0,1,5.829,120.731a.616.616,0,0,0-1.218.191A18.663,18.663,0,0,0,15.2,134.95l-7.208,2.728a.605.605,0,0,0-.123-.147,8.589,8.589,0,0,1-3.181-5.969L4.4,128.1a.609.609,0,0,0-.648-.567l-.019,0a.616.616,0,0,0-.566.663v0l.291,3.462a9.82,9.82,0,0,0,3.262,6.494L1.576,140.1l.925-3.795a.617.617,0,1,0-1.2-.292L.1,140.948a.616.616,0,0,0,.817.723l22.808-8.63a.575.575,0,0,0,.1-.064,2.4,2.4,0,0,0,1.309-.653C25.747,131.713,26.273,130.454,25.3,127.929Z" transform="translate(-0.082 -113.468)" fill="#17a6af"/></g></g><g transform="translate(17.975 20.325)"><path d="M245.44,265.07A20.3,20.3,0,0,0,235,264.056l-2.2.37a.616.616,0,0,0,.2,1.216l2.2-.367a19.052,19.052,0,0,1,9.809.953.636.636,0,0,0,.216.036.616.616,0,0,0,.216-1.194Z" transform="translate(-232.294 -263.781)" fill="#17a6af"/></g><g transform="translate(19.195 11.712)"><path d="M262.244,152.348a.616.616,0,0,0-.822-.292l-12.945,6.164a.616.616,0,0,0-.292.822h0a.616.616,0,0,0,.822.292h0l12.945-6.164A.616.616,0,0,0,262.244,152.348Z" transform="translate(-248.126 -151.997)" fill="#17a6af"/></g><g transform="translate(11.986 3.69)"><path d="M157.643,48.381a.616.616,0,1,0-1.208.245l0,.022a17.243,17.243,0,0,1-.92,10.423l-.9,2.151a.616.616,0,0,0,.331.8.608.608,0,0,0,.237.047.616.616,0,0,0,.569-.379l.9-2.148A18.468,18.468,0,0,0,157.643,48.381Z" transform="translate(-154.576 -47.887)" fill="#17a6af"/></g><g transform="translate(32.138 22.191)"><path d="M417.954,288a1.849,1.849,0,1,0,1.849,1.849A1.849,1.849,0,0,0,417.954,288Zm0,2.466a.616.616,0,1,1,.616-.616A.616.616,0,0,1,417.954,290.466Z" transform="translate(-416.105 -288)" fill="#17a6af"/></g><g transform="translate(17.344 4.931)"><path d="M225.954,64a1.849,1.849,0,1,0,1.849,1.849A1.849,1.849,0,0,0,225.954,64Zm0,2.466a.616.616,0,1,1,.616-.616A.616.616,0,0,1,225.954,66.466Z" transform="translate(-224.105 -64)" fill="#17a6af"/></g><g transform="translate(12.412)"><circle cx="1.233" cy="1.233" r="1.233" fill="#17a6af"/></g><g transform="translate(30.289 3.082)"><path d="M392.721,40a.616.616,0,0,0-.616.616v.616a.616.616,0,0,0,1.233,0v-.616A.616.616,0,0,0,392.721,40Z" transform="translate(-392.105 -40)" fill="#17a6af"/></g><g transform="translate(30.289)"><path d="M392.721,0a.616.616,0,0,0-.616.616v.616a.616.616,0,0,0,1.233,0V.616A.616.616,0,0,0,392.721,0Z" transform="translate(-392.105)" fill="#17a6af"/></g><g transform="translate(31.522 1.849)"><path d="M409.338,24h-.616a.616.616,0,0,0,0,1.233h.616a.616.616,0,0,0,0-1.233Z" transform="translate(-408.105 -24)" fill="#17a6af"/></g><g transform="translate(28.439 1.849)"><path d="M369.338,24h-.616a.616.616,0,0,0,0,1.233h.616a.616.616,0,0,0,0-1.233Z" transform="translate(-368.105 -24)" fill="#17a6af"/></g><g transform="translate(22.879 6.768)"><path d="M299.649,87.832h-3.1a.616.616,0,0,0-.616.616v3.1a.616.616,0,0,0,.616.616h3.1a.616.616,0,0,0,.616-.616v-3.1A.616.616,0,0,0,299.649,87.832Zm-.616,3.1H297.17V89.065h1.862Z" transform="translate(-295.937 -87.832)" fill="#17a6af"/></g><g transform="translate(14.878 11.72)"><path d="M199.328,152.3a.616.616,0,0,0-.853-.045l-6.164,5.548a.616.616,0,0,0,.825.916l6.164-5.548A.616.616,0,0,0,199.328,152.3Z" transform="translate(-192.107 -152.105)" fill="#17a6af"/></g><g transform="translate(32.754 14.178)"><path d="M424.721,184a.616.616,0,0,0-.616.616v.616a.616.616,0,0,0,1.233,0v-.616A.616.616,0,0,0,424.721,184Z" transform="translate(-424.105 -184)" fill="#17a6af"/></g><g transform="translate(34.506 13.463)"><path d="M448.316,175.331l-.436-.436a.616.616,0,0,0-.872.872l.436.436a.616.616,0,0,0,.872-.872Z" transform="translate(-446.836 -174.722)" fill="#17a6af"/></g><g transform="translate(35.22 11.712)"><path d="M457.338,152h-.616a.616.616,0,1,0,0,1.233h.616a.616.616,0,1,0,0-1.233Z" transform="translate(-456.105 -152)" fill="#17a6af"/></g><g transform="translate(34.498 9.541)"><path d="M448.211,123.992a.617.617,0,0,0-.857,0l-.436.436a.616.616,0,0,0,.436,1.052h0a.616.616,0,0,0,.436-.181l.436-.436A.616.616,0,0,0,448.211,123.992Z" transform="translate(-446.739 -123.819)" fill="#17a6af"/></g><g transform="translate(32.754 8.63)"><path d="M424.721,112a.616.616,0,0,0-.616.616v.616a.616.616,0,0,0,1.233,0v-.616A.616.616,0,0,0,424.721,112Z" transform="translate(-424.105 -112)" fill="#17a6af"/></g><g transform="translate(30.582 9.541)"><path d="M397.4,124.427l-.436-.436a.616.616,0,0,0-.872.872l.436.436a.616.616,0,0,0,.872-.872Z" transform="translate(-395.915 -123.818)" fill="#17a6af"/></g><g transform="translate(0.083 0.028)"><g transform="translate(0)"><path d="M7.463,3a.616.616,0,0,0-.5-.419L5.156,2.316,4.349.677a.642.642,0,0,0-1.106,0L2.433,2.316.623,2.579A.616.616,0,0,0,.281,3.63L1.589,4.906l-.308,1.8a.616.616,0,0,0,.9.652l1.618-.853,1.618.851a.616.616,0,0,0,.894-.65L6,4.906,7.308,3.63A.616.616,0,0,0,7.463,3ZM4.9,4.25a.616.616,0,0,0-.178.545l.153.891-.8-.421a.617.617,0,0,0-.573,0l-.8.42.153-.891a.616.616,0,0,0-.174-.544l-.648-.631.894-.13A.616.616,0,0,0,3.4,3.152l.4-.809.4.809a.616.616,0,0,0,.464.337l.894.13Z" transform="translate(-0.095 -0.361)" fill="#17a6af"/></g></g><g transform="translate(27.838 26.509)"><path d="M367.443,348.42h0l-.254-.381a9.3,9.3,0,0,0-6.19-4,.616.616,0,0,0-.2,1.216,8.065,8.065,0,0,1,4.7,2.622,3.637,3.637,0,0,0-2.466,1.693,2.466,2.466,0,1,0,4.306,2.4,3.575,3.575,0,0,0,.4-1.582,3.012,3.012,0,0,1,.135,3.2.616.616,0,0,0,1.06.629l.016-.029A4.3,4.3,0,0,0,367.443,348.42Zm-1.18,2.95a1.233,1.233,0,1,1-2.159-1.191l.006-.01a2.31,2.31,0,0,1,1.669-1.086.628.628,0,0,1,.308.072C366.608,349.445,366.635,350.7,366.263,351.371Z" transform="translate(-360.294 -344.031)" fill="#17a6af"/></g></g></svg>