<svg width="72" height="72" viewBox="0 0 72 72" fill="none" xmlns="http://www.w3.org/2000/svg">
<g clip-path="url(#clip0)">
<path d="M70.68 32.79L39.18 1.29001C38.3216 0.475494 37.1833 0.0214233 36 0.0214233C34.8167 0.0214233 33.6784 0.475494 32.82 1.29001L26.82 7.29001C26.6794 7.42945 26.5678 7.59535 26.4917 7.77814C26.4155 7.96093 26.3763 8.15699 26.3763 8.35501C26.3763 8.55302 26.4155 8.74908 26.4917 8.93187C26.5678 9.11466 26.6794 9.28056 26.82 9.42001L32.22 15C32.428 15.2077 32.6924 15.3497 32.9804 15.4083C33.2684 15.467 33.5673 15.4398 33.84 15.33C34.7547 14.977 35.742 14.8535 36.7155 14.9703C37.689 15.0872 38.619 15.4408 39.4242 16.0003C40.2294 16.5598 40.8852 17.308 41.3342 18.1796C41.7832 19.0512 42.0118 20.0196 42 21C41.9923 21.7619 41.8396 22.5153 41.55 23.22C41.4402 23.4927 41.413 23.7916 41.4717 24.0796C41.5303 24.3676 41.6723 24.632 41.88 24.84L47.16 30C47.368 30.2077 47.6324 30.3497 47.9204 30.4083C48.2084 30.467 48.5073 30.4398 48.78 30.33C49.9688 29.8567 51.2778 29.7759 52.5159 30.0993C53.7539 30.4228 54.8561 31.1336 55.6615 32.1279C56.467 33.1222 56.9334 34.3479 56.9928 35.6261C57.0522 36.9043 56.7013 38.168 55.9915 39.2327C55.2818 40.2974 54.2502 41.1073 53.0475 41.5441C51.8448 41.9809 50.5339 42.0218 49.3063 41.6607C48.0787 41.2997 46.9987 40.5556 46.224 39.5372C45.4492 38.5188 45.0204 37.2794 45 36C45.0093 35.2704 45.1516 34.5486 45.42 33.87C45.5234 33.6013 45.5473 33.3084 45.4888 33.0265C45.4303 32.7445 45.2918 32.4854 45.09 32.28L40.05 27.21C39.8403 27.0044 39.575 26.8649 39.2868 26.8088C38.9986 26.7526 38.7002 26.7823 38.4287 26.8941C38.1572 27.0059 37.9245 27.1949 37.7594 27.4377C37.5943 27.6805 37.5041 27.9664 37.5 28.26V44.1C37.499 44.3928 37.5837 44.6794 37.7436 44.9246C37.9035 45.1698 38.1317 45.3629 38.4 45.48C39.6634 46.0314 40.6983 47.0009 41.3309 48.2257C41.9635 49.4504 42.1551 50.8556 41.8734 52.205C41.5918 53.5543 40.8542 54.7656 39.7845 55.635C38.7148 56.5045 37.3784 56.9791 36 56.9791C34.6216 56.9791 33.2852 56.5045 32.2155 55.635C31.1459 54.7656 30.4082 53.5543 30.1266 52.205C29.8449 50.8556 30.0365 49.4504 30.6691 48.2257C31.3017 47.0009 32.3366 46.0314 33.6 45.48C33.8683 45.3629 34.0965 45.1698 34.2564 44.9246C34.4164 44.6794 34.501 44.3928 34.5 44.1V27.84C34.501 27.5473 34.4164 27.2606 34.2564 27.0154C34.0965 26.7702 33.8683 26.5771 33.6 26.46C32.1809 25.8381 31.0574 24.6914 30.4646 23.2599C29.8719 21.8284 29.8559 20.223 30.42 18.78C30.5124 18.5029 30.5219 18.2048 30.4473 17.9223C30.3727 17.6399 30.2172 17.3853 30 17.19L24.57 11.64C24.4306 11.4994 24.2647 11.3878 24.0819 11.3117C23.8991 11.2355 23.703 11.1963 23.505 11.1963C23.307 11.1963 23.1109 11.2355 22.9281 11.3117C22.7453 11.3878 22.5794 11.4994 22.44 11.64L1.44 32.64C0.5973 33.4838 0.123962 34.6275 0.123962 35.82C0.123962 37.0125 0.5973 38.1563 1.44 39L32.94 70.53C33.7838 71.3727 34.9275 71.846 36.12 71.846C37.3125 71.846 38.4563 71.3727 39.3 70.53L70.8 39C71.6427 38.1563 72.116 37.0125 72.116 35.82C72.116 34.6275 71.6427 33.4838 70.8 32.64L70.68 32.79Z" fill="#303C42"/>
</g>
<defs>
<clipPath id="clip0">
<rect width="72" height="72" fill="white"/>
</clipPath>
</defs>
</svg>
