<svg xmlns="http://www.w3.org/2000/svg" width="20" height="20" fill="none"  xmlns:v="https://vecta.io/nano"><g clip-path="url(#A)"><path d="M10 .417c-5.525 0-10 4.4-10 9.827 0 4.343 2.865 8.025 6.838 9.323.5.092.683-.212.683-.473l-.013-1.67c-2.782.592-3.368-1.318-3.368-1.318-.455-1.134-1.112-1.437-1.112-1.437-.906-.61.07-.597.07-.597 1.004.068 1.532 1.012 1.532 1.012.892 1.502 2.34 1.068 2.912.818.1-.636.348-1.068.633-1.314-2.22-.246-4.555-1.09-4.555-4.856 0-1.072.388-1.95 1.03-2.637-.112-.248-.45-1.248.088-2.6 0 0 .837-.263 2.75 1.007.8-.218 1.65-.327 2.5-.332.85.005 1.7.113 2.5.332 1.9-1.27 2.737-1.007 2.737-1.007.537 1.353.2 2.353.1 2.6.638.688 1.025 1.564 1.025 2.637 0 3.775-2.338 4.606-4.562 4.848.35.295.675.897.675 1.818l-.013 2.69c0 .258.175.565.688.467 4-1.3 6.863-4.975 6.863-9.31C20 4.817 15.523.417 10 .417z" fill="#fff"/></g><defs><clipPath id="A"><path fill="#fff" d="M0 0h20v20H0z"/></clipPath></defs></svg>