<svg width="56" height="56" viewBox="0 0 56 56" fill="none" xmlns="http://www.w3.org/2000/svg">
<path d="M5.76974 22.4767L27.9926 51.3593L3.63474 33.2807C2.96646 32.7787 2.68099 31.9048 2.93693 31.1183L5.76646 22.4722L5.76974 22.4767Z" fill="#FCA326"/>
<path d="M18.7362 22.4723L28.0013 51.356L27.9926 51.3593L5.76974 22.4767L5.77631 22.4723H18.7362Z" fill="#FC6D26"/>
<path d="M37.2674 22.4723L28.0023 51.3593L28.0013 51.356L18.7361 22.4723H18.746H37.2577H37.2674Z" fill="#E24329"/>
<path d="M50.2351 22.4767L28.0023 51.3593L37.2674 22.4723H50.2284L50.2351 22.4767Z" fill="#FC6D26"/>
<path d="M53.0678 31.1184C53.3128 31.9048 53.0382 32.7788 52.3601 33.2808L28.0023 51.3594L50.2351 22.4768L50.2382 22.4724L53.0678 31.1184Z" fill="#FCA326"/>
<path d="M44.6766 5.29605L50.2285 22.4723H37.2676H37.2577L42.8194 5.29605C43.1332 4.42215 44.3715 4.42215 44.6766 5.29605Z" fill="#E24329"/>
<path d="M18.746 22.4723H18.7362H5.77631L11.3282 5.29605C11.6421 4.42215 12.8802 4.42215 13.1854 5.29605C13.1854 5.29605 18.7362 22.4723 18.746 22.4723Z" fill="#E24329"/>
</svg>
