<svg width="1030" height="759" viewBox="0 0 1030 759" fill="none" xmlns="http://www.w3.org/2000/svg">
<path d="M926.005 707.091H857.832V707.605H926.005V707.091Z" fill="#EBEBEB"/>
<path d="M681.731 712.676H663.839V713.191H681.731V712.676Z" fill="#EBEBEB"/>
<path d="M855.772 687.978H816.27V688.492H855.772V687.978Z" fill="#EBEBEB"/>
<path d="M196.875 691.436H107.973V691.95H196.875V691.436Z" fill="#EBEBEB"/>
<path d="M228.237 691.436H215.202V691.95H228.237V691.436Z" fill="#EBEBEB"/>
<path d="M463.408 700.128H270.6V700.642H463.408V700.128Z" fill="#EBEBEB"/>
<path d="M487.832 582.168H90.3876C87.2729 582.164 84.2868 580.925 82.0844 578.722C79.882 576.52 78.643 573.534 78.6392 570.419V11.7464C78.643 8.63187 79.882 5.64604 82.0845 3.44393C84.287 1.24182 87.2731 0.00326808 90.3876 0H487.834C490.948 0.00381271 493.934 1.2426 496.136 3.44465C498.338 5.6467 499.577 8.63222 499.581 11.7464V570.419C499.577 573.534 498.338 576.52 496.135 578.722C493.933 580.925 490.947 582.164 487.832 582.168ZM90.3876 0.508389C87.4094 0.511113 84.5539 1.69527 82.4478 3.801C80.3417 5.90673 79.157 8.762 79.1537 11.7402V570.419C79.157 573.398 80.3416 576.253 82.4477 578.359C84.5537 580.465 87.4092 581.65 90.3876 581.653H487.834C490.812 581.65 493.668 580.465 495.773 578.359C497.879 576.253 499.063 573.397 499.066 570.419V11.7464C499.063 8.76853 497.878 5.91357 495.773 3.8079C493.667 1.70223 490.812 0.517829 487.834 0.514561L90.3876 0.508389Z" fill="#EBEBEB"/>
<path d="M933.024 582.168H535.577C532.463 582.164 529.477 580.925 527.275 578.722C525.073 576.52 523.834 573.534 523.831 570.419V11.7464C523.834 8.63206 525.073 5.64622 527.275 3.44405C529.477 1.24189 532.463 0.00326907 535.577 0H933.024C936.139 0.00326808 939.125 1.24182 941.327 3.44393C943.53 5.64604 944.769 8.63187 944.773 11.7464V570.419C944.769 573.534 943.53 576.52 941.327 578.722C939.125 580.925 936.139 582.164 933.024 582.168V582.168ZM535.58 0.508389C532.602 0.511658 529.747 1.69605 527.641 3.80172C525.535 5.90739 524.351 8.76236 524.348 11.7402V570.419C524.35 573.397 525.535 576.253 527.64 578.359C529.746 580.465 532.601 581.65 535.58 581.653H933.026C936.005 581.65 938.86 580.465 940.966 578.359C943.072 576.253 944.257 573.398 944.26 570.419V11.7464C944.256 8.76834 943.071 5.91339 940.965 3.80778C938.859 1.70217 936.004 0.517828 933.026 0.514561L535.58 0.508389Z" fill="#EBEBEB"/>
<path d="M1029.12 673.96H0V674.475H1029.12V673.96Z" fill="#EBEBEB"/>
<path d="M769.927 463.45V675.227H878.118V463.45H769.927Z" fill="#EBEBEB"/>
<path d="M790.703 437.306V484.234H857.34V437.306H790.703Z" fill="#EBEBEB"/>
<path d="M790.705 470.377H776.853V484.229H790.705V470.377Z" fill="#FAFAFA"/>
<path d="M817.535 470.377H803.683V484.229H817.535V470.377Z" fill="#FAFAFA"/>
<path d="M844.363 470.377H830.511V484.229H844.363V470.377Z" fill="#FAFAFA"/>
<path d="M871.193 470.377H857.341V484.229H871.193V470.377Z" fill="#F0F0F0"/>
<path d="M790.705 495.544H776.853V509.396H790.705V495.544Z" fill="#F0F0F0"/>
<path d="M817.535 495.544H803.683V509.396H817.535V495.544Z" fill="#F0F0F0"/>
<path d="M844.363 495.544H830.511V509.396H844.363V495.544Z" fill="#FAFAFA"/>
<path d="M871.193 495.544H857.341V509.396H871.193V495.544Z" fill="#FAFAFA"/>
<path d="M790.705 520.71H776.853V534.562H790.705V520.71Z" fill="#F0F0F0"/>
<path d="M817.535 520.71H803.683V534.562H817.535V520.71Z" fill="#FAFAFA"/>
<path d="M844.363 520.71H830.511V534.562H844.363V520.71Z" fill="#FAFAFA"/>
<path d="M817.535 448.622H803.683V462.474H817.535V448.622Z" fill="#FAFAFA"/>
<path d="M844.363 448.622H830.511V462.474H844.363V448.622Z" fill="#F0F0F0"/>
<path d="M871.193 520.71H857.341V534.562H871.193V520.71Z" fill="#F0F0F0"/>
<path d="M790.705 545.878H776.853V559.73H790.705V545.878Z" fill="#FAFAFA"/>
<path d="M817.535 545.878H803.683V559.73H817.535V545.878Z" fill="#F0F0F0"/>
<path d="M844.363 545.878H830.511V559.73H844.363V545.878Z" fill="#F0F0F0"/>
<path d="M871.193 545.878H857.341V559.73H871.193V545.878Z" fill="#FAFAFA"/>
<path d="M790.705 571.046H776.853V584.898H790.705V571.046Z" fill="#F0F0F0"/>
<path d="M817.535 571.046H803.683V584.898H817.535V571.046Z" fill="#FAFAFA"/>
<path d="M844.363 571.046H830.511V584.898H844.363V571.046Z" fill="#FAFAFA"/>
<path d="M871.193 571.046H857.341V584.898H871.193V571.046Z" fill="#F0F0F0"/>
<path d="M790.705 596.212H776.853V610.064H790.705V596.212Z" fill="#F0F0F0"/>
<path d="M817.535 596.212H803.683V610.064H817.535V596.212Z" fill="#FAFAFA"/>
<path d="M844.363 596.212H830.511V610.064H844.363V596.212Z" fill="#F0F0F0"/>
<path d="M871.193 596.212H857.341V610.064H871.193V596.212Z" fill="#FAFAFA"/>
<path d="M790.705 621.381H776.853V635.233H790.705V621.381Z" fill="#FAFAFA"/>
<path d="M817.535 621.381H803.683V635.233H817.535V621.381Z" fill="#FAFAFA"/>
<path d="M844.363 621.381H830.511V635.233H844.363V621.381Z" fill="#F0F0F0"/>
<path d="M871.193 621.381H857.341V635.233H871.193V621.381Z" fill="#F0F0F0"/>
<path d="M790.705 646.55H776.853V660.402H790.705V646.55Z" fill="#F0F0F0"/>
<path d="M871.193 646.55H857.341V660.402H871.193V646.55Z" fill="#FAFAFA"/>
<path d="M844.362 646.55H803.683V650.522H805.329V675.221H809.302V650.522H838.734V675.221H842.707V650.522H844.354L844.362 646.55Z" fill="#F5F5F5"/>
<path d="M824.022 650.521H809.3V675.228H824.022V650.521Z" fill="#E6E6E6"/>
<path d="M838.744 650.521H824.021V675.228H838.744V650.521Z" fill="#EBEBEB"/>
<path d="M137.791 463.45V675.227H245.983V463.45H137.791Z" fill="#F5F5F5"/>
<path d="M144.717 470.377V509.395H158.569V470.377H144.717Z" fill="#E6E6E6"/>
<path d="M171.547 470.377V509.395H185.399V470.377H171.547Z" fill="#F0F0F0"/>
<path d="M198.375 470.377V509.395H212.227V470.377H198.375Z" fill="#E6E6E6"/>
<path d="M225.205 470.377V509.395H239.057V470.377H225.205Z" fill="#F0F0F0"/>
<path d="M144.717 520.71V559.732H158.569V520.71H144.717Z" fill="#F0F0F0"/>
<path d="M171.547 520.71V559.732H185.399V520.71H171.547Z" fill="#F0F0F0"/>
<path d="M198.375 520.71V559.732H212.227V520.71H198.375Z" fill="#E6E6E6"/>
<path d="M225.205 520.71V559.732H239.057V520.71H225.205Z" fill="#F0F0F0"/>
<path d="M144.717 571.053V610.071H158.569V571.053H144.717Z" fill="#E6E6E6"/>
<path d="M171.547 571.053V610.071H185.399V571.053H171.547Z" fill="#F0F0F0"/>
<path d="M198.375 571.053V610.071H212.227V571.053H198.375Z" fill="#F0F0F0"/>
<path d="M225.205 571.053V610.071H239.057V571.053H225.205Z" fill="#E6E6E6"/>
<path d="M232.131 621.381H144.717V635.233H239.057V621.381H232.131Z" fill="#F0F0F0"/>
<path d="M212.228 646.55H171.547V650.522H173.193V675.221H177.166V650.522H206.609V675.221H210.581V650.522H212.228V646.55Z" fill="#EBEBEB"/>
<path d="M191.886 650.521H177.163V675.228H191.886V650.521Z" fill="#FAFAFA"/>
<path d="M206.608 650.521H191.886V675.228H206.608V650.521Z" fill="#F5F5F5"/>
<path d="M245.983 559.732V675.23H354.175V559.732H245.983Z" fill="#E6E6E6"/>
<path d="M266.758 571.046H252.906V584.898H266.758V571.046Z" fill="#F0F0F0"/>
<path d="M293.59 571.046H279.738V584.898H293.59V571.046Z" fill="#F0F0F0"/>
<path d="M320.418 571.046H306.566V584.898H320.418V571.046Z" fill="#F0F0F0"/>
<path d="M347.248 571.046H333.396V584.898H347.248V571.046Z" fill="#F0F0F0"/>
<path d="M266.758 596.212H252.906V610.064H266.758V596.212Z" fill="#F0F0F0"/>
<path d="M293.59 596.212H279.738V610.064H293.59V596.212Z" fill="#F0F0F0"/>
<path d="M320.418 596.212H306.566V610.064H320.418V596.212Z" fill="#F0F0F0"/>
<path d="M347.248 596.212H333.396V610.064H347.248V596.212Z" fill="#F0F0F0"/>
<path d="M266.758 621.381H252.906V635.233H266.758V621.381Z" fill="#F0F0F0"/>
<path d="M293.59 621.381H279.738V635.233H293.59V621.381Z" fill="#F0F0F0"/>
<path d="M320.418 621.381H306.566V635.233H320.418V621.381Z" fill="#F0F0F0"/>
<path d="M347.248 621.381H333.396V635.233H347.248V621.381Z" fill="#F0F0F0"/>
<path d="M266.758 646.55H252.906V660.402H266.758V646.55Z" fill="#F0F0F0"/>
<path d="M347.248 646.55H333.396V660.402H347.248V646.55Z" fill="#F0F0F0"/>
<path d="M320.417 646.55H279.738V650.522H281.384V675.221H285.357V650.522H314.8V675.221H318.772V650.522H320.419L320.417 646.55Z" fill="#F5F5F5"/>
<path d="M300.078 650.521H285.355V675.228H300.078V650.521Z" fill="#E6E6E6"/>
<path d="M314.8 650.521H300.078V675.228H314.8V650.521Z" fill="#EBEBEB"/>
<path d="M642.67 463.45V675.227H750.861V463.45H642.67Z" fill="#FAFAFA"/>
<path d="M682.044 621.381H649.596V660.401H663.448V635.233H690.277V621.381H682.044Z" fill="#F0F0F0"/>
<path d="M734.482 621.381H703.254V635.233H730.083V660.401H743.935V621.381H734.482Z" fill="#F0F0F0"/>
<path d="M717.106 646.55H676.425V650.522H678.072V675.221H682.044V650.522H711.487V675.221H715.46V650.522H717.106V646.55Z" fill="#F5F5F5"/>
<path d="M696.767 650.521H682.044V675.228H696.767V650.521Z" fill="#EBEBEB"/>
<path d="M711.489 650.521H696.766V675.228H711.489V650.521Z" fill="#E0E0E0"/>
<path d="M690.277 470.377H649.596V509.395H690.277V470.377Z" fill="#F0F0F0"/>
<path d="M743.935 470.377H703.254V509.395H743.935V470.377Z" fill="#F0F0F0"/>
<path d="M690.277 520.71H649.596V559.73H690.277V520.71Z" fill="#F0F0F0"/>
<path d="M743.935 520.71H703.254V559.73H743.935V520.71Z" fill="#F0F0F0"/>
<path d="M690.277 571.046H649.596V610.067H690.277V571.046Z" fill="#F0F0F0"/>
<path d="M743.935 571.046H703.254V610.067H743.935V571.046Z" fill="#F0F0F0"/>
<path d="M258.863 413.163C258.071 413.852 257.498 414.756 257.212 415.765C256.926 416.774 256.941 417.845 257.253 418.846C257.566 419.847 258.163 420.736 258.972 421.403C259.782 422.071 260.768 422.488 261.81 422.604C295.386 426.231 363.23 431.237 381.6 415.071C405.214 394.283 337.965 413.941 332.778 409.218C327.591 404.494 346.019 394.026 331.543 394.289C321.38 394.474 305.574 412.463 289.349 410.082C276.125 408.143 293.758 398.539 281.476 398.539C270.842 398.539 265.97 406.805 258.863 413.163Z" fill="#F0F0F0"/>
<path d="M323.469 407.8C322.903 408.293 322.493 408.94 322.288 409.663C322.084 410.385 322.094 411.152 322.318 411.868C322.541 412.585 322.969 413.221 323.548 413.699C324.127 414.177 324.833 414.476 325.579 414.559C349.615 417.155 398.183 420.734 411.331 409.165C428.238 394.286 380.099 408.356 376.38 404.976C372.661 401.596 385.848 394.1 375.489 394.288C368.215 394.421 356.899 407.298 345.284 405.596C335.816 404.206 348.44 397.332 339.649 397.332C332.046 397.338 328.557 403.255 323.469 407.8Z" fill="#F5F5F5"/>
<path d="M564.526 244.4C612.269 244.4 650.972 205.697 650.972 157.954C650.972 110.211 612.269 71.5078 564.526 71.5078C516.783 71.5078 478.08 110.211 478.08 157.954C478.08 205.697 516.783 244.4 564.526 244.4Z" fill="#F0F0F0"/>
<path d="M549.933 184.049C549.046 184.594 548.351 185.401 547.944 186.359C547.537 187.317 547.438 188.377 547.661 189.394C547.884 190.41 548.417 191.333 549.188 192.032C549.958 192.732 550.927 193.174 551.96 193.299C604.446 199.422 734.387 211.106 767.952 181.567C808.459 145.914 693.127 179.63 684.215 171.528C675.303 163.427 706.926 145.471 682.08 145.922C664.651 146.239 637.538 177.094 609.711 173.012C587.029 169.686 617.273 153.214 596.209 153.214C574.504 153.208 566.798 173.35 549.933 184.049Z" fill="#FAFAFA"/>
<path d="M683.21 53.59C682.51 54.1748 681.996 54.9527 681.734 55.8269C681.472 56.7012 681.472 57.6332 681.735 58.5072C681.999 59.3811 682.513 60.1585 683.214 60.7425C683.916 61.3266 684.773 61.6916 685.68 61.7921C718.03 65.3529 786.197 70.6426 804.441 54.5718C827.574 34.2096 761.708 53.4645 756.62 48.8376C751.532 44.2106 769.587 33.9565 755.401 34.2137C745.446 34.3949 729.963 52.0155 714.07 49.6856C701.117 47.7858 718.392 38.3776 706.36 38.3776C695.467 38.3796 690.746 47.2898 683.21 53.59Z" fill="#F5F5F5"/>
<path d="M504.636 759C725.037 759 903.707 748.565 903.707 735.694C903.707 722.823 725.037 712.389 504.636 712.389C284.235 712.389 105.565 722.823 105.565 735.694C105.565 748.565 284.235 759 504.636 759Z" fill="#F5F5F5"/>
<path d="M288.385 692.534H221.029V726.211H288.385V692.534Z" fill="#0FA6AF"/>
<path opacity="0.3" d="M288.385 692.534H221.029V726.211H288.385V692.534Z" fill="white"/>
<path opacity="0.2" d="M288.384 726.211V692.534H271.545V726.211H288.384Z" fill="black"/>
<path d="M423.096 625.179H355.74V726.214H423.096V625.179Z" fill="#0FA6AF"/>
<path opacity="0.4" d="M423.096 625.179H355.74V726.214H423.096V625.179Z" fill="white"/>
<path opacity="0.2" d="M423.097 726.214V625.179H406.258V726.214H423.097Z" fill="black"/>
<path d="M557.809 557.823H490.453V726.214H557.809V557.823Z" fill="#0FA6AF"/>
<path opacity="0.3" d="M557.809 557.823H490.453V726.214H557.809V557.823Z" fill="white"/>
<path opacity="0.2" d="M557.809 726.214V557.823H540.971V726.214H557.809Z" fill="black"/>
<path d="M692.52 456.791H625.164V726.214H692.52V456.791Z" fill="#0FA6AF"/>
<path opacity="0.2" d="M692.52 456.791H625.164V726.214H692.52V456.791Z" fill="white"/>
<path opacity="0.2" d="M692.521 726.214V456.791H675.682V726.214H692.521Z" fill="black"/>
<path d="M827.232 322.078H759.876V726.214H827.232V322.078Z" fill="#0FA6AF"/>
<path opacity="0.2" d="M827.232 726.214V322.078H810.394V726.214H827.232Z" fill="black"/>
<path d="M309.948 642.499H222.061L190.364 629.027H275.31V561.671H410.022V494.315H544.734V393.283H679.446V258.571H793.073V141.179H827.713V272.042H714.086V406.754H579.374V507.789H444.662V575.145H309.95L309.948 642.499Z" fill="#0FA6AF"/>
<g opacity="0.4">
<path opacity="0.4" d="M309.948 642.499H222.061L190.364 629.027H275.31V561.671H410.022V494.315H544.734V393.283H679.446V258.571H793.073V141.179H827.713V272.042H714.086V406.754H579.374V507.789H444.662V575.145H309.95L309.948 642.499Z" fill="white"/>
</g>
<path d="M793.073 258.571V141.179H827.713V272.042L793.073 258.571Z" fill="#0FA6AF"/>
<path d="M679.444 393.283V258.571L714.084 272.042V406.754L679.444 393.283Z" fill="#0FA6AF"/>
<path d="M544.733 494.316V393.283L579.373 406.754V507.789L544.733 494.316Z" fill="#0FA6AF"/>
<path d="M410.022 561.672V494.316L444.663 507.787V575.143L410.022 561.672Z" fill="#0FA6AF"/>
<path d="M275.31 629.028V561.672L309.95 575.143V642.499L275.31 629.028Z" fill="#0FA6AF"/>
<path d="M769.927 150.773L810.394 102.128L850.861 180.23L769.927 150.773Z" fill="#0FA6AF"/>
<path d="M400.904 221.536C397.749 227.843 395.207 234.439 393.315 241.233C393.268 241.404 393.221 241.573 393.175 241.744C392.902 242.773 392.352 245.122 392.319 245.243C392.083 246.305 391.862 247.379 391.667 248.466C391.657 248.52 391.255 250.897 391.107 252.047L391.066 252.437C390.771 254.771 390.553 259.727 390.551 259.828C390.539 261.023 390.565 262.22 390.629 263.419C390.629 263.485 390.823 266.05 390.983 267.264L391.023 267.608C391.008 267.493 391 267.379 390.983 267.266C394.12 286.875 397.053 289.44 399.443 296.718C406.484 318.144 411.951 386.06 411.951 386.06C371.241 397.032 322.211 441.696 322.211 441.696L331.017 462.036C331.017 462.036 436.635 412.088 444.127 401.935C453.025 389.884 447.919 326.093 450.714 300.945C451.743 291.638 452.93 283.563 454.108 276.349L467.346 255.946L400.904 221.536Z" fill="#E8505B"/>
<path opacity="0.2" d="M420.585 275.215L412.694 266.81C412.694 266.81 398.046 278.982 449.769 323.798C449.837 314.849 450.057 306.844 450.71 300.964C450.796 300.198 450.887 299.488 450.973 298.739L420.585 275.215Z" fill="black"/>
<path d="M323.692 445.321L302.286 456.214L308.887 467.019L328.829 458.185L323.692 445.321Z" fill="#FFC3BD"/>
<path d="M309.803 469.747C309.775 469.682 309.768 469.61 309.781 469.541C309.794 469.471 309.827 469.407 309.877 469.356C309.927 469.306 309.992 469.273 310.062 469.26C310.131 469.248 310.203 469.258 310.268 469.288C310.502 469.399 315.8 471.935 316.648 474.325C316.809 474.767 316.792 475.254 316.601 475.683C316.513 475.938 316.349 476.16 316.13 476.318C315.911 476.475 315.648 476.56 315.378 476.562C314.395 476.513 313.05 475.156 312.015 473.662C311.165 472.424 310.425 471.114 309.803 469.747ZM310.821 470.406C312.093 472.835 314.211 475.854 315.38 475.868C315.533 475.883 315.755 475.838 315.963 475.383C316.028 475.253 316.063 475.111 316.065 474.966C316.067 474.822 316.036 474.678 315.975 474.547C315.902 474.336 315.798 474.136 315.669 473.954C314.291 472.476 312.647 471.272 310.821 470.406Z" fill="#0FA6AF"/>
<path d="M309.714 469.581C309.713 469.52 309.728 469.459 309.757 469.406C309.787 469.352 309.831 469.308 309.883 469.276C311.674 468.214 313.753 467.741 315.827 467.924C316.162 468.015 316.475 468.172 316.748 468.387C317.02 468.601 317.246 468.869 317.412 469.174C317.875 470.011 317.649 470.532 317.342 470.785C316.169 471.977 311.563 470.892 309.933 469.898C309.889 469.873 309.856 469.834 309.84 469.787C309.774 469.737 309.729 469.663 309.714 469.581V469.581ZM316.739 469.357C316.494 468.993 316.124 468.731 315.7 468.62C314.043 468.441 312.372 468.774 310.91 469.575C312.822 470.454 316.173 470.938 316.937 470.299C316.994 470.227 317.178 470.05 316.867 469.509L316.739 469.357V469.357Z" fill="#0FA6AF"/>
<path d="M310.636 467.355L301.553 454.233C301.387 453.993 301.144 453.816 300.864 453.732C300.584 453.648 300.284 453.663 300.013 453.772L287.697 458.788C287.4 458.906 287.134 459.089 286.918 459.323C286.701 459.558 286.54 459.838 286.446 460.142C286.352 460.447 286.327 460.769 286.373 461.085C286.42 461.4 286.537 461.701 286.715 461.966C290.07 466.638 293.241 470.666 297.309 476.561C302.117 483.512 300.065 482.324 305.605 490.576C308.948 495.542 315.166 492.57 313.997 490.294C308.588 479.906 310.786 476.915 311.654 470.866C311.756 469.61 311.394 468.361 310.636 467.355V467.355Z" fill="#1C2E5C"/>
<path opacity="0.2" d="M320.314 447.04L312.287 451.121L318.093 462.937L324.714 460.004L320.314 447.04Z" fill="black"/>
<path d="M322.15 434.954L313.094 440.233L324.445 466.266L334.98 463.339L322.15 434.954Z" fill="#1C2E5C"/>
<path d="M513.325 371.155C513.325 371.155 420.544 292.911 412.647 279.022C404.749 265.133 425.875 246.09 425.875 246.09L449.411 249.383C449.411 249.383 548.546 339.328 544.487 357.342L513.325 371.155Z" fill="#E8505B"/>
<path d="M544.477 357.353C541.878 375.626 502.695 463.506 502.695 463.506C502.695 463.506 494.598 463.029 479.781 453.769C479.781 453.769 495.267 384.316 510.986 357.353H544.477Z" fill="#E8505B"/>
<path d="M486.453 457.943L479.455 480.922L491.817 483.661L499.284 463.167L486.453 457.943Z" fill="#FFC3BD"/>
<path d="M494.415 484.889C494.349 484.863 494.292 484.819 494.251 484.761C494.21 484.703 494.187 484.635 494.184 484.564C494.183 484.493 494.203 484.423 494.243 484.364C494.283 484.305 494.34 484.26 494.406 484.235C494.649 484.142 500.151 482.086 502.452 483.14C502.882 483.329 503.221 483.678 503.399 484.113C503.523 484.353 503.57 484.625 503.533 484.892C503.497 485.159 503.378 485.409 503.193 485.605C501.82 486.28 500.246 486.427 498.772 486.017C497.289 485.77 495.831 485.392 494.415 484.889V484.889ZM495.596 484.609C498.229 485.379 501.872 485.947 502.693 485.115C502.808 485.017 502.932 484.825 502.746 484.358C502.699 484.222 502.62 484.098 502.518 483.996C502.415 483.895 502.29 483.818 502.154 483.771C501.951 483.677 501.735 483.613 501.514 483.58C499.494 483.547 497.486 483.895 495.596 484.607V484.609Z" fill="#0FA6AF"/>
<path d="M494.237 484.84C494.191 484.799 494.158 484.746 494.14 484.687C494.121 484.628 494.12 484.566 494.134 484.506C494.61 482.479 495.712 480.653 497.283 479.286C497.58 479.108 497.91 478.991 498.253 478.944C498.597 478.897 498.946 478.919 499.28 479.011C500.206 479.258 500.424 479.782 500.395 480.18C500.439 481.851 496.462 484.418 494.614 484.914C494.566 484.928 494.514 484.925 494.468 484.903C494.386 484.912 494.303 484.889 494.237 484.84V484.84ZM498.946 479.622C498.514 479.548 498.07 479.632 497.695 479.859C496.416 480.929 495.497 482.366 495.06 483.975C497.022 483.207 499.692 481.129 499.764 480.137C499.751 480.044 499.751 479.791 499.146 479.638L498.94 479.624L498.946 479.622Z" fill="#0FA6AF"/>
<path d="M493.27 482.629L477.512 480.079C477.224 480.032 476.928 480.084 476.674 480.228C476.419 480.372 476.221 480.598 476.113 480.869L471.185 493.219C471.064 493.514 471.011 493.832 471.03 494.151C471.049 494.469 471.138 494.779 471.292 495.059C471.447 495.338 471.661 495.579 471.921 495.764C472.181 495.949 472.479 496.074 472.793 496.129C478.486 496.952 483.586 497.463 490.654 498.619C498.998 499.978 496.718 500.632 506.503 502.363C512.399 503.403 514.571 496.86 512.12 496.123C500.886 492.815 500.258 489.16 496.5 484.335C495.668 483.391 494.519 482.784 493.27 482.629V482.629Z" fill="#1C2E5C"/>
<path opacity="0.2" d="M485.348 461.565L482.724 470.175L495.263 474.186L497.733 467.382L485.348 461.565Z" fill="black"/>
<path d="M477.925 451.862L475.442 462.053L502.068 471.932L507.265 462.314L477.925 451.862Z" fill="#1C2E5C"/>
<path d="M371.526 189.94L373.076 175.047L386.076 177.758L381.661 192.859C381.661 192.859 386.035 199.857 385.7 206.054C385.364 212.252 381.811 211.406 381.811 211.406C381.811 211.406 382.178 217.967 376.6 216.037C371.022 214.106 363.814 211.243 365.033 205.809C366.634 200.306 368.811 194.987 371.526 189.94V189.94Z" fill="#FFC3BD"/>
<path d="M466.277 127.266C461.812 110.448 410.4 126.49 410.4 126.49C410.4 126.49 385.303 134.587 378.717 140.675C372.102 146.805 368.426 182.575 368.426 182.575L386.444 186.506L397.608 155.709C447.81 147.056 470.609 143.594 466.277 127.266Z" fill="#0FA6AF"/>
<path d="M386.866 180.757C386.661 180.988 386.393 181.154 386.094 181.233C385.795 181.312 385.48 181.3 385.188 181.2C384.896 181.1 384.64 180.915 384.453 180.669C384.265 180.424 384.155 180.128 384.136 179.82C384.117 179.512 384.189 179.204 384.344 178.937C384.5 178.67 384.73 178.455 385.008 178.319C385.285 178.184 385.597 178.133 385.903 178.174C386.209 178.215 386.496 178.346 386.728 178.55C387.038 178.825 387.227 179.211 387.253 179.625C387.279 180.039 387.14 180.446 386.866 180.757V180.757Z" fill="white"/>
<path opacity="0.1" d="M453.294 137.438L453.41 121.548C453.41 121.548 442.6 119.696 426.163 150.678C433.546 149.283 439.928 147.937 445.304 146.512L453.294 137.438Z" fill="black"/>
<path d="M519.5 96.708L521.606 106.688C520.436 106.933 519.225 106.899 518.07 106.591C516.916 106.282 515.85 105.707 514.958 104.912L519.5 96.708Z" fill="#38557D"/>
<path d="M521.709 92.7567C521.623 93.7982 521.011 94.6091 520.328 94.5453C519.645 94.4815 519.122 93.5532 519.235 92.5426C519.348 91.532 519.933 90.6902 520.616 90.7643C521.3 90.8384 521.785 91.7173 521.709 92.7567Z" fill="#1C2E5C"/>
<path d="M473.785 124.529C473.785 124.529 482.72 125.182 485.439 109.012C485.439 109.012 494.199 106.748 498.612 112.445C503.025 118.143 491.056 127.522 496.747 133.365C502.438 139.209 473.785 124.529 473.785 124.529Z" fill="#FFC3BD"/>
<path opacity="0.2" d="M492.607 118.123C493.582 120.473 494.847 122.691 496.374 124.726C497.197 122.715 498.273 120.667 498.95 118.718L492.607 118.123Z" fill="black"/>
<path d="M481.76 85.2479C479.992 99.0381 478.947 104.846 484.494 113.156C493.653 122.288 510.185 124.824 516.036 111.828C521.305 100.137 523.302 79.6 510.998 71.5482C508.29 69.7776 505.175 68.7286 501.948 68.5007C498.721 68.2729 495.489 68.8739 492.56 70.2465C489.63 71.6192 487.1 73.7179 485.21 76.3435C483.32 78.969 482.132 82.0342 481.76 85.2479V85.2479Z" fill="#FFC3BD"/>
<path d="M517.292 87.1982C517.36 87.258 517.442 87.3007 517.53 87.3229C517.618 87.3451 517.71 87.3461 517.798 87.3258C518.453 87.1343 519.144 87.1015 519.814 87.2299C520.484 87.3584 521.114 87.6446 521.651 88.0647C521.757 88.1614 521.898 88.2124 522.041 88.2066C522.185 88.2008 522.32 88.1388 522.419 88.0339C522.514 87.9251 522.564 87.7835 522.558 87.6388C522.551 87.4941 522.489 87.3576 522.384 87.2579C521.714 86.712 520.923 86.3362 520.076 86.1627C519.23 85.9893 518.355 86.0232 517.524 86.2617C517.384 86.2981 517.263 86.3886 517.189 86.5136C517.115 86.6386 517.093 86.7878 517.129 86.9286V86.9286C517.157 87.0318 517.214 87.1251 517.292 87.1982V87.1982Z" fill="#38557D"/>
<path d="M508.917 98.0789L513.811 97.799C513.155 95.8279 513.025 93.7195 513.434 91.6827C513.843 89.6458 514.777 87.7512 516.143 86.1864C520.877 80.0981 532.535 76.8564 523.084 66.3037C520.475 63.2615 517.193 60.8696 513.498 59.3182C509.804 57.7668 505.798 57.0987 501.799 57.3669L509.648 62.99C509.648 62.99 493.464 51.1119 483.92 64.0191C486.277 63.2744 488.813 63.3236 491.14 64.1591C491.14 64.1591 448.172 78.682 484.479 113.156C484.479 113.156 485.856 110.358 491.654 114.915C495.782 112.066 499.226 108.337 501.74 103.996C505.235 97.4244 507.7 91.2641 508.917 98.0789Z" fill="#38557D"/>
<path d="M508.723 93.4396C509.585 94.5505 510.22 95.8208 510.589 97.1775C510.959 98.5342 511.057 99.9506 510.878 101.345C510.368 105.079 506.65 105.484 503.897 103.227C501.4 101.185 498.693 96.7905 500.603 93.6208C501.027 92.9332 501.616 92.3626 502.316 91.961C503.017 91.5594 503.807 91.3395 504.614 91.3215C505.421 91.3035 506.22 91.4879 506.938 91.8579C507.656 92.2278 508.269 92.7716 508.723 93.4396V93.4396Z" fill="#FFC3BD"/>
<path d="M527.687 70.0762C527.687 70.0762 528.94 77.5661 517.169 82.014C517.169 82.014 533.553 83.6873 527.687 70.0762Z" fill="#38557D"/>
<path d="M472.535 126.623L477.201 120.654C477.201 120.654 499.595 122.696 500.953 135.416L472.535 126.623Z" fill="#0FA6AF"/>
<path opacity="0.5" d="M472.535 126.623L477.201 120.654C477.201 120.654 499.595 122.696 500.953 135.416L472.535 126.623Z" fill="white"/>
<path d="M423.202 178.226C429.377 162.867 439.32 122.073 455.146 120.214C470.972 118.355 516.471 136.538 521.833 152.712C527.195 168.885 464.888 260.924 464.888 260.924L398.765 224.511C398.765 224.511 418.318 190.363 423.202 178.226Z" fill="#0FA6AF"/>
<path opacity="0.1" d="M500.91 147.382C500.91 147.382 488.915 170.268 503.38 199.094C508.815 189.69 513.71 179.984 518.039 170.023L512.953 157.999L500.91 147.382Z" fill="black"/>
<path d="M434.678 179.767C443.333 181.051 452.821 178.497 460.517 174.745C469.322 170.451 475.855 163.999 482.318 156.791C488.081 150.359 495.826 143.017 504.831 141.817C525.247 139.1 529.608 171.662 527.472 185.864C524.932 202.751 515.443 218.213 505.049 231.41C498.897 239.373 492.031 246.758 484.537 253.473C482.102 255.609 485.909 258.923 488.32 256.809C507.822 239.701 526.766 215.465 531.936 189.614C535.056 174.012 531.113 151.763 517.224 141.657C504.639 132.508 490.746 140.959 481.552 150.221C469.293 162.57 455.116 177.701 435.653 174.811C432.455 174.335 431.461 179.283 434.684 179.751L434.678 179.767Z" fill="#0FA6AF"/>
<g opacity="0.3">
<path opacity="0.3" d="M434.678 179.767C443.333 181.051 452.821 178.497 460.517 174.745C469.322 170.451 475.855 163.999 482.318 156.791C488.081 150.359 495.826 143.017 504.831 141.817C525.247 139.1 529.608 171.662 527.472 185.864C524.932 202.751 515.443 218.213 505.049 231.41C498.897 239.373 492.031 246.758 484.537 253.473C482.102 255.609 485.909 258.923 488.32 256.809C507.822 239.701 526.766 215.465 531.936 189.614C535.056 174.012 531.113 151.763 517.224 141.657C504.639 132.508 490.746 140.959 481.552 150.221C469.293 162.57 455.116 177.701 435.653 174.811C432.455 174.335 431.461 179.283 434.684 179.751L434.678 179.767Z" fill="black"/>
</g>
<path d="M581.6 207.217L567.713 211.937L565.815 201.464L580.05 196.998C580.05 196.998 582.874 189.642 588.528 187.4C594.182 185.159 596.497 189.265 596.497 189.265C596.497 189.265 602.19 186.25 602.756 192.005C603.322 197.759 603.133 206.966 597.796 208.108C592.459 209.251 586.28 207.285 581.6 207.217Z" fill="#FFC3BD"/>
<path d="M574.19 195.949L544.885 200.569C525.632 155.473 517.266 135.541 502.638 143.35C487.287 151.55 514.522 195.302 514.522 195.302C514.522 195.302 527.452 219.04 534.306 224.902C534.719 225.287 535.193 225.602 535.707 225.834C544.412 228.195 577.249 212.384 577.249 212.384L574.19 195.949Z" fill="#0FA6AF"/>
<path d="M574.186 211.97C573.981 212.202 573.712 212.369 573.413 212.448C573.114 212.528 572.798 212.517 572.506 212.417C572.213 212.317 571.956 212.133 571.768 211.887C571.58 211.641 571.47 211.345 571.45 211.036C571.43 210.727 571.503 210.419 571.658 210.152C571.813 209.884 572.045 209.668 572.323 209.532C572.6 209.396 572.912 209.345 573.219 209.386C573.526 209.428 573.813 209.559 574.046 209.764C574.357 210.038 574.546 210.424 574.572 210.838C574.598 211.252 574.459 211.659 574.186 211.97Z" fill="white"/>
<path d="M438.957 177.781L488.547 249.379C489.046 250.1 489.399 250.911 489.584 251.768C489.77 252.624 489.785 253.509 489.628 254.372C489.472 255.234 489.147 256.057 488.672 256.794C488.198 257.531 487.582 258.167 486.862 258.666L450.135 284.104C447.628 285.839 444.535 286.509 441.536 285.964C438.536 285.419 435.876 283.705 434.14 281.199L390.04 217.528C388.304 215.021 387.635 211.928 388.18 208.929C388.725 205.929 390.439 203.268 392.945 201.533L429.672 176.095C431.127 175.087 432.923 174.699 434.664 175.015C436.405 175.331 437.949 176.326 438.957 177.781V177.781Z" fill="#0FA6AF"/>
<path opacity="0.3" d="M438.957 177.781L488.547 249.379C489.046 250.1 489.399 250.911 489.584 251.768C489.77 252.624 489.785 253.509 489.628 254.372C489.472 255.234 489.147 256.057 488.672 256.794C488.198 257.531 487.582 258.167 486.862 258.666L450.135 284.104C447.628 285.839 444.535 286.509 441.536 285.964C438.536 285.419 435.876 283.705 434.14 281.199L390.04 217.528C388.304 215.021 387.635 211.928 388.18 208.929C388.725 205.929 390.439 203.268 392.945 201.533L429.672 176.095C431.127 175.087 432.923 174.699 434.664 175.015C436.405 175.331 437.949 176.326 438.957 177.781V177.781Z" fill="white"/>
<path opacity="0.1" d="M484.716 253.878L433.315 179.668C432.935 179.119 432.451 178.651 431.889 178.289C431.328 177.928 430.701 177.68 430.044 177.561C429.387 177.442 428.713 177.453 428.061 177.594C427.408 177.735 426.79 178.004 426.241 178.384L424.708 179.446C423.162 180.516 421.842 181.881 420.823 183.462C419.805 185.043 419.107 186.809 418.771 188.659C418.435 190.51 418.467 192.408 418.865 194.246C419.263 196.084 420.019 197.826 421.089 199.372L461.97 258.396C463.041 259.942 464.406 261.262 465.986 262.28C467.567 263.299 469.333 263.996 471.184 264.332C473.034 264.668 474.932 264.636 476.77 264.239C478.608 263.841 480.35 263.085 481.896 262.014L483.429 260.952C484.538 260.184 485.296 259.008 485.537 257.681C485.778 256.355 485.483 254.987 484.716 253.878Z" fill="black"/>
<path d="M489.45 250.684L438.052 176.476C437.672 175.927 437.187 175.458 436.626 175.096C436.065 174.734 435.438 174.487 434.781 174.367C434.124 174.248 433.45 174.259 432.798 174.4C432.145 174.541 431.526 174.809 430.978 175.189L429.444 176.253C427.898 177.324 426.578 178.689 425.56 180.27C424.541 181.85 423.844 183.617 423.508 185.467C423.172 187.317 423.204 189.216 423.601 191.054C423.999 192.892 424.755 194.633 425.826 196.179L466.707 255.203C468.869 258.325 472.183 260.46 475.92 261.139C479.657 261.817 483.51 260.984 486.632 258.822L488.166 257.758C488.715 257.378 489.184 256.893 489.545 256.332C489.907 255.771 490.155 255.144 490.274 254.487C490.393 253.83 490.382 253.156 490.24 252.503C490.099 251.851 489.831 251.232 489.45 250.684Z" fill="#0FA6AF"/>
<path d="M489.45 250.684L438.052 176.476C437.672 175.927 437.187 175.458 436.626 175.096C436.065 174.734 435.438 174.487 434.781 174.367C434.124 174.248 433.45 174.259 432.798 174.4C432.145 174.541 431.526 174.809 430.978 175.189L429.444 176.253C427.898 177.324 426.578 178.689 425.56 180.27C424.541 181.85 423.844 183.617 423.508 185.467C423.172 187.317 423.204 189.216 423.601 191.054C423.999 192.892 424.755 194.633 425.826 196.179L466.707 255.203C468.869 258.325 472.183 260.46 475.92 261.139C479.657 261.817 483.51 260.984 486.632 258.822L488.166 257.758C488.715 257.378 489.184 256.893 489.545 256.332C489.907 255.771 490.155 255.144 490.274 254.487C490.393 253.83 490.382 253.156 490.24 252.503C490.099 251.851 489.831 251.232 489.45 250.684Z" fill="#0FA6AF"/>
<path opacity="0.5" d="M489.45 250.684L438.052 176.476C437.672 175.927 437.187 175.458 436.626 175.096C436.065 174.734 435.438 174.487 434.781 174.367C434.124 174.248 433.45 174.259 432.798 174.4C432.145 174.541 431.526 174.809 430.978 175.189L429.444 176.253C427.898 177.324 426.578 178.689 425.56 180.27C424.541 181.85 423.844 183.617 423.508 185.467C423.172 187.317 423.204 189.216 423.601 191.054C423.999 192.892 424.755 194.633 425.826 196.179L466.707 255.203C468.869 258.325 472.183 260.46 475.92 261.139C479.657 261.817 483.51 260.984 486.632 258.822L488.166 257.758C488.715 257.378 489.184 256.893 489.545 256.332C489.907 255.771 490.155 255.144 490.274 254.487C490.393 253.83 490.382 253.156 490.24 252.503C490.099 251.851 489.831 251.232 489.45 250.684Z" fill="white"/>
<path d="M439.962 201.524L439.062 200.223C437.801 198.402 435.303 197.948 433.482 199.208L423.479 206.132C421.658 207.393 421.204 209.891 422.465 211.712L423.365 213.013C424.626 214.834 427.124 215.289 428.945 214.028L438.948 207.104C440.769 205.844 441.223 203.345 439.962 201.524Z" fill="#0FA6AF"/>
<path d="M466.747 240.19L467.648 241.489C468.254 242.364 468.488 243.443 468.299 244.491C468.109 245.538 467.511 246.467 466.637 247.073L456.634 254.009C455.76 254.616 454.68 254.85 453.633 254.66C452.586 254.471 451.657 253.873 451.05 252.998L450.148 251.697C449.542 250.823 449.308 249.743 449.497 248.696C449.687 247.649 450.285 246.72 451.159 246.113L461.16 239.178C462.035 238.572 463.115 238.337 464.163 238.527C465.21 238.717 466.14 239.315 466.747 240.19V240.19Z" fill="#0FA6AF"/>
<path opacity="0.3" d="M439.962 201.524L439.062 200.223C437.801 198.402 435.303 197.948 433.482 199.208L423.479 206.132C421.658 207.393 421.204 209.891 422.465 211.712L423.365 213.013C424.626 214.834 427.124 215.289 428.945 214.028L438.948 207.104C440.769 205.844 441.223 203.345 439.962 201.524Z" fill="black"/>
<path opacity="0.3" d="M466.747 240.19L467.648 241.489C468.254 242.364 468.488 243.443 468.299 244.491C468.109 245.538 467.511 246.467 466.637 247.073L456.634 254.009C455.76 254.616 454.68 254.85 453.633 254.66C452.586 254.471 451.657 253.873 451.05 252.998L450.148 251.697C449.542 250.823 449.308 249.743 449.497 248.696C449.687 247.649 450.285 246.72 451.159 246.113L461.16 239.178C462.035 238.572 463.115 238.337 464.163 238.527C465.21 238.717 466.14 239.315 466.747 240.19V240.19Z" fill="black"/>
<path opacity="0.2" d="M392.425 220.971C392.425 220.971 409.58 249.237 424.311 240.897L412.089 249.362L392.425 220.971Z" fill="black"/>
<path d="M456.768 205.583C460.77 205.011 462.968 202.758 466.366 201.171C468.686 200.086 465.926 199.112 467.982 201.027C468.674 201.823 469.265 202.7 469.744 203.64C471.125 205.826 472.298 208.144 473.73 210.297C474.965 212.149 478.174 214.115 478.973 216.004C480.276 219.092 473.576 223.414 471.656 224.993C469.33 226.901 471.989 230.785 474.331 228.86C477.682 226.112 484.33 221.706 484.094 216.599C483.948 213.432 481.169 211.968 479.259 209.858C475.657 205.882 474.21 198.802 469.431 195.945C468.75 195.479 467.947 195.225 467.123 195.215C466.298 195.205 465.489 195.439 464.798 195.889C462.933 196.918 462.062 198.946 459.92 199.886C458.798 200.376 457.615 200.714 456.404 200.891C453.416 201.317 453.763 206.012 456.766 205.583H456.768Z" fill="#0FA6AF"/>
<g opacity="0.3">
<path opacity="0.3" d="M456.768 205.583C460.77 205.011 462.968 202.758 466.366 201.171C468.686 200.086 465.926 199.112 467.982 201.027C468.674 201.823 469.265 202.7 469.744 203.64C471.125 205.826 472.298 208.144 473.73 210.297C474.965 212.149 478.174 214.115 478.973 216.004C480.276 219.092 473.576 223.414 471.656 224.993C469.33 226.901 471.989 230.785 474.331 228.86C477.682 226.112 484.33 221.706 484.094 216.599C483.948 213.432 481.169 211.968 479.259 209.858C475.657 205.882 474.21 198.802 469.431 195.945C468.75 195.479 467.947 195.225 467.123 195.215C466.298 195.205 465.489 195.439 464.798 195.889C462.933 196.918 462.062 198.946 459.92 199.886C458.798 200.376 457.615 200.714 456.404 200.891C453.416 201.317 453.763 206.012 456.766 205.583H456.768Z" fill="black"/>
</g>
</svg>
