<svg width="23" height="16" viewBox="0 0 23 16" fill="none" xmlns="http://www.w3.org/2000/svg">
<path d="M21.5 0H7.5C6.67157 0 6 0.671573 6 1.5C6 2.32843 6.67157 3 7.5 3H21.5C22.3284 3 23 2.32843 23 1.5C23 0.671573 22.3284 0 21.5 0Z" fill="white"/>
<path d="M21.5 13H7.5C6.67157 13 6 13.6716 6 14.5C6 15.3284 6.67157 16 7.5 16H21.5C22.3284 16 23 15.3284 23 14.5C23 13.6716 22.3284 13 21.5 13Z" fill="white"/>
<path d="M21.5 6H1.5C0.671573 6 0 6.67157 0 7.5C0 8.32843 0.671573 9 1.5 9H21.5C22.3284 9 23 8.32843 23 7.5C23 6.67157 22.3284 6 21.5 6Z" fill="white"/>
</svg>
