<svg xmlns="http://www.w3.org/2000/svg" width="27.667" height="37.198" viewBox="0 0 27.667 37.198"><g transform="translate(-79.352 -18.5)"><path d="M309.045,112.437a.506.506,0,1,0-.5-.506A.506.506,0,0,0,309.045,112.437Z" transform="translate(-211.242 -85.649)" fill="#17a6af"/><path d="M309.848,128.9a.47.47,0,0,0-.47.47v1.675a.47.47,0,0,0,.94,0V129.37A.47.47,0,0,0,309.848,128.9Z" transform="translate(-212.012 -101.754)" fill="#17a6af"/><path d="M106.549,46.776h-.669V42.453a3.044,3.044,0,1,0-6.089,0v7.993a2.584,2.584,0,1,1-5.169,0V46.939a1.734,1.734,0,0,0,1.253-1.667V43.909a.941.941,0,0,0-.94-.94h-.313V42.15h.392A1.254,1.254,0,0,0,96.268,40.9v-.7h.157a1.568,1.568,0,0,0,1.566-1.566v-.7h.861a1.254,1.254,0,0,0,1.253-1.253V25.332a1.254,1.254,0,0,0-1.253-1.253H94.623V22.989a2.91,2.91,0,0,0,2.353-2.811L97,19a.47.47,0,1,0-.94-.02l-.026,1.18a1.96,1.96,0,1,1-3.919-.02V18.97a.47.47,0,0,0-.47-.47H80.605a1.254,1.254,0,0,0-1.253,1.253V55.228a.47.47,0,0,0,.94,0V19.753a.313.313,0,0,1,.313-.313H91.177v.7a2.9,2.9,0,0,0,2.506,2.872v1.064H89.454A1.254,1.254,0,0,0,88.2,25.332V36.668a1.254,1.254,0,0,0,1.253,1.253h.7v.7a1.568,1.568,0,0,0,1.566,1.566h.157v.7a1.254,1.254,0,0,0,1.253,1.253h.548v.819H93.37a.941.941,0,0,0-.94.94v1.363a1.734,1.734,0,0,0,1.253,1.667v3.507a3.524,3.524,0,1,0,7.048,0V42.454a2.1,2.1,0,1,1,4.209,0v4.323H104.2a.47.47,0,0,0,0,.94h.741V49.4a.47.47,0,1,0,.94,0V47.716h.669a.47.47,0,1,0,0-.94Zm-17.408-17H89.7a.47.47,0,1,0,0-.94h-.559v-1.41h1.421a.47.47,0,0,0,0-.94H89.142V25.332a.313.313,0,0,1,.313-.313h9.4a.313.313,0,0,1,.313.313v6.708l-1.441.294a6.487,6.487,0,0,1-3.674-.317,7.4,7.4,0,0,0-4.522-.292l-.387.1Zm.313,7.2a.313.313,0,0,1-.313-.313v-1.41H89.7a.47.47,0,1,0,0-.94h-.559V32.79l.615-.154a6.466,6.466,0,0,1,3.951.255,7.427,7.427,0,0,0,4.2.363L99.165,33v3.67a.313.313,0,0,1-.313.313Zm2.271,2.271a.627.627,0,0,1-.626-.626v-.7h5.952v.7a.627.627,0,0,1-.626.626Zm1.41,1.958a.313.313,0,0,1-.313-.313v-.7h2.506v.7a.313.313,0,0,1-.313.313Zm1.018,4.831a.47.47,0,0,0-.116.015.791.791,0,0,1-.668-.784V43.909h1.567v1.363a.791.791,0,0,1-.667.784A.47.47,0,0,0,94.153,46.041Z" transform="translate(0 0)" fill="#17a6af"/></g></svg>