<svg xmlns="http://www.w3.org/2000/svg" width="453.803" height="439.692"><g transform="translate(-19.059 -32.913)"><path fill="#fff" d="M68.733 116.417h125.216v83.84H68.733z"/><path d="M193.949 200.257s-.013-.524-.019-1.525-.011-2.489-.02-4.423l-.046-16.862-.094-61.03.179.18-125.206.045h-.009l.224-.225-.019 83.84-.205-.206 90.209.1 25.773.055 6.856.025 1.77.012c.4 0 .607.012.607.012s-.192.008-.583.012l-1.747.012-6.814.025-25.727.055-90.344.1h-.206v-.206l-.019-83.84v-.224h.234l125.206.045h.18v.179c-.04 25.573-.072 46.549-.1 61.141l-.045 16.822-.02 4.39c-.004 1-.015 1.491-.015 1.491z" fill="#e0e0e0"/><path d="M68.733 123.9c0-.124 28.01-.224 62.554-.224s62.559.1 62.559.224-28 .225-62.559.225-62.554-.102-62.554-.225z" fill="#e0e0e0"/><path d="M73.673 120.125a1 1 0 11-1-1 1 1 0 011 1z" fill="#e0e0e0" opacity=".3"/><circle cx="1.003" cy="1.003" r="1.003" transform="translate(75.105 119.121)" fill="#e0e0e0" opacity=".3"/><path d="M80.5 120.125a1 1 0 11-1-1 1 1 0 011 1z" fill="#e0e0e0" opacity=".3"/><path fill="#e0e0e0" d="M79.498 132.642h33.401v33.401H79.498zM176.778 142.083c0 .124-13.027.225-29.093.225s-29.1-.1-29.1-.225 13.024-.224 29.1-.224 29.093.1 29.093.224zM176.778 148.29c0 .124-13.027.225-29.093.225s-29.1-.1-29.1-.225 13.024-.224 29.1-.224 29.093.1 29.093.224zM176.778 154.5c0 .124-13.027.225-29.093.225s-29.1-.1-29.1-.225 13.024-.224 29.1-.224 29.093.097 29.093.224zM152.98 160.7a7.73 7.73 0 01-1.351.087l-3.686.072c-3.111.04-7.41.066-12.157.066s-9.049-.026-12.16-.066l-3.685-.072a7.73 7.73 0 01-1.351-.087 7.86 7.86 0 011.351-.087l3.685-.072c3.111-.04 7.41-.065 12.16-.065s9.046.025 12.157.065l3.686.072a7.86 7.86 0 011.351.087zM81.588 177.305h15.697v15.697H81.588zM110.055 177.305h15.697v15.697h-15.697zM138.522 177.305h15.697v15.697h-15.697zM166.989 177.305h15.697v15.697h-15.697z"/><path d="M428.088 143.667a14.5 14.5 0 01-2.66 2.794l.693 3.509-5.41 2.4-2.137-2.868a14.536 14.536 0 01-3.857.1l-1.991 2.97-5.526-2.132.516-3.538a14.465 14.465 0 01-2.793-2.661l-3.51.693-2.4-5.409 2.869-2.138a14.494 14.494 0 01-.1-3.857l-2.97-1.99 2.128-5.523 3.538.517a14.472 14.472 0 012.661-2.794l-.693-3.51 5.41-2.4L414 120.7a14.536 14.536 0 013.857-.1l1.991-2.969 5.522 2.128-.517 3.538a14.443 14.443 0 012.794 2.661l3.51-.693 2.4 5.409-2.869 2.138a14.535 14.535 0 01.1 3.857l2.97 1.991-2.128 5.521-3.539-.516zm-5.974-6.033a6.349 6.349 0 10-8.207 3.641 6.347 6.347 0 008.207-3.641z" fill="none"/><path d="M422.114 137.634a4.8 4.8 0 01-.685 1.416 6.316 6.316 0 01-3.434 2.515 6.4 6.4 0 01-2.982.175 6.5 6.5 0 01-3.1-1.476 6.514 6.514 0 01-2.02-3.2 6.479 6.479 0 012.774-7.2 6.524 6.524 0 013.648-1.019 6.512 6.512 0 013.286.983 6.413 6.413 0 012.093 2.132 6.317 6.317 0 01.857 4.168 4.8 4.8 0 01-.442 1.509c-.043-.013.191-.533.3-1.526a6.326 6.326 0 00-.937-4.016 6.2 6.2 0 00-5.166-2.914 6.2 6.2 0 00-3.448.984 6.152 6.152 0 00-2.623 6.8 6.216 6.216 0 001.9 3.044 6.2 6.2 0 005.785 1.307 6.327 6.327 0 003.39-2.35c.59-.808.763-1.351.804-1.332z" fill="#e0e0e0"/><path d="M428.088 143.667a1.359 1.359 0 01.223.019l.672.084 2.652.356-.063.036c.537-1.417 1.243-3.28 2.1-5.534l.035.11-2.977-1.978-.054-.036.007-.065a14.505 14.505 0 00-.109-3.826l-.012-.072.059-.043 2.862-2.146-.041.157-2.412-5.4.159.083-3.508.7-.09.018-.057-.071a14.371 14.371 0 00-2.769-2.628l-.077-.056.014-.094c.158-1.1.333-2.307.512-3.538l.1.175-5.525-2.122.2-.064L418 120.7l-.059.087-.1-.012a14.431 14.431 0 00-3.81.1l-.105.016-.064-.085-2.139-2.868.215.057-5.408 2.4.1-.2.693 3.51.022.108-.086.069a14.319 14.319 0 00-2.625 2.756c-.078.033.173-.072-.174.074H404.407l-.055-.009-.112-.016-.222-.032-.445-.066-.887-.129-1.764-.258.2-.115-2.13 5.522-.068-.214 2.97 1.992.09.06-.012.108a14.31 14.31 0 00.093 3.81l.017.1-.086.064-2.87 2.135.055-.21 2.394 5.412-.185-.1 3.51-.688.1-.019.062.077a14.364 14.364 0 002.759 2.636l.077.056-.014.094-.522 3.537-.1-.163 5.518 2.14-.166.052c.7-1.043 1.362-2.021 2-2.965l.044-.066.079.009a14.408 14.408 0 003.824-.086l.072-.011.043.058 2.124 2.873-.13-.034 5.42-2.375-.047.09-.669-3.514-.007-.035.028-.022a14.981 14.981 0 002.086-2.012l.457-.554a1.644 1.644 0 01.153-.182 1.648 1.648 0 01-.129.2c-.092.129-.232.324-.434.573a14.082 14.082 0 01-2.06 2.066l.021-.057c.2.956.429 2.1.715 3.5l.013.064-.06.027-5.4 2.423-.079.035-.052-.069-2.146-2.861.115.047a14.653 14.653 0 01-3.89.109l.122-.057-1.984 2.975-.061.092-.105-.04-5.526-2.117-.113-.044.018-.12.51-3.538.064.15a14.666 14.666 0 01-2.829-2.686l.159.058-3.508.7-.132.026-.054-.122-2.4-5.407-.057-.126.112-.083 2.866-2.14-.069.169a14.717 14.717 0 01-.1-3.9l.078.168-2.97-1.99-.12-.08.052-.134 2.126-5.523.053-.136.143.021 1.764.257.888.13.444.065.223.033.111.016.056.008H404.518c-.347.146-.1.04-.173.072a14.692 14.692 0 012.692-2.826l-.065.177-.691-3.51-.028-.142.132-.058 5.411-2.4.13-.057.085.114 2.135 2.87-.169-.069a14.785 14.785 0 013.9-.1l-.162.076 1.994-2.968.076-.112.126.049 5.52 2.134.121.047-.019.129-.522 3.536-.063-.149a14.669 14.669 0 012.819 2.693l-.147-.053 3.511-.685.113-.023.046.105 2.387 5.415.042.1-.083.061-2.874 2.13.046-.115a14.626 14.626 0 01.085 3.887l-.046-.1 2.961 2 .062.041-.027.069-2.16 5.509-.017.044-.046-.007-2.62-.413-.676-.113a1.672 1.672 0 01-.236-.035z" fill="#e0e0e0"/><path d="M459.556 126.833a12.087 12.087 0 01-2.207 2.318l.574 2.911-4.488 1.991-1.773-2.38a12.048 12.048 0 01-3.2.081l-1.652 2.464-4.581-1.766.429-2.935a12.034 12.034 0 01-2.318-2.208l-2.912.574-1.99-4.487 2.379-1.773a12.049 12.049 0 01-.08-3.2l-2.464-1.652 1.765-4.582 2.936.429a11.993 11.993 0 012.207-2.317l-.574-2.912 4.493-1.989 1.773 2.38a12.09 12.09 0 013.2-.081l1.651-2.463L457.3 107l-.429 2.935a12.034 12.034 0 012.318 2.208l2.912-.574 1.991 4.487-2.38 1.773a12.049 12.049 0 01.08 3.2l2.464 1.652-1.766 4.581-2.935-.428zm-4.957-5a5.267 5.267 0 10-6.808 3.02 5.267 5.267 0 006.809-3.025zM440.218 99.481a18.906 18.906 0 01-3.461 3.635l.9 4.566-7.037 3.118-2.781-3.731a18.866 18.866 0 01-5.018.127l-2.591 3.864-7.183-2.77.672-4.6a18.793 18.793 0 01-3.635-3.462l-4.566.9-3.118-7.036 3.732-2.781a18.866 18.866 0 01-.132-5.018l-3.864-2.59 2.768-7.185 4.6.673a18.759 18.759 0 013.461-3.635l-.9-4.567 7.038-3.122 2.781 3.733a18.907 18.907 0 015.018-.127l2.59-3.863 7.184 2.769-.672 4.6a18.794 18.794 0 013.635 3.462l4.566-.9 3.122 7.037-3.727 2.783a18.866 18.866 0 01.126 5.018l3.864 2.59-2.769 7.184-4.6-.672zm-7.773-7.849a8.259 8.259 0 10-10.677 4.737 8.26 8.26 0 0010.677-4.737z" fill="#e0e0e0" fill-rule="evenodd"/><path d="M369.624 61.361a3.462 3.462 0 01.524-.6l1.52-1.526c1.293-1.278 3.1-3.026 5.1-4.94l.046-.043v.258a415.423 415.423 0 01-5.139-4.843l-1.528-1.5a3.465 3.465 0 01-.528-.583 3.3 3.3 0 01.621.482l1.6 1.414a430.765 430.765 0 015.209 4.766l.138.128-.136.13-.046.044a421.356 421.356 0 01-5.175 4.864l-1.6 1.445a3.341 3.341 0 01-.606.504zM354.017 47.593a3.47 3.47 0 01-.524.594l-1.519 1.527a475.609 475.609 0 01-5.1 4.939l-.046.044v-.258a421.66 421.66 0 015.138 4.843q.906.885 1.528 1.5a3.309 3.309 0 01.528.583 3.4 3.4 0 01-.62-.483l-1.6-1.413a422.385 422.385 0 01-5.21-4.766l-.138-.129.137-.13.045-.043a428.784 428.784 0 015.175-4.864l1.6-1.445a3.36 3.36 0 01.606-.499zM358.023 64.6c-.091-.034 1.547-4.639 3.659-10.284s3.9-10.195 3.989-10.161-1.547 4.638-3.659 10.285-3.898 10.198-3.989 10.16z" fill="#e0e0e0"/><path d="M387.361 74.457s-.011-.267-.017-.77-.009-1.253-.016-2.215l-.038-8.39-.076-29.992.147.148-50.765.029.176-.177-.019 41.367-.157-.158 36.659.079 10.391.042 2.758.019.713.009c.161 0 .248.009.248.009s-.075.006-.23.009l-.7.009-2.728.019-10.355.042-36.761.079h-.158v-.159l-.019-41.367v-.177h.181l50.765.03h.147v.147l-.077 30.085-.037 8.357-.017 2.187c-.005.493-.015.739-.015.739z" fill="#e0e0e0"/><path d="M387.758 39.228c0 .1-11.46.177-25.593.177s-25.6-.079-25.6-.177 11.457-.177 25.6-.177 25.593.079 25.593.177zM340.735 36.209a.683.683 0 11-.683-.686.685.685 0 01.683.686z" fill="#e0e0e0"/><circle cx=".683" cy=".683" r=".683" transform="translate(341.86 35.526)" fill="#e0e0e0"/><path d="M345.718 36.209a.683.683 0 11-.683-.686.685.685 0 01.683.686z" fill="#e0e0e0"/><path fill="#fff" d="M171.837 53.043H289.22v47.679H171.837z"/><path d="M289.221 100.722s-.009-.293-.014-.851-.008-1.392-.014-2.474l-.032-9.489-.071-34.865.13.131-117.375.055h-.008l.186-.186c0 16.7 0 32.814-.008 47.679l-.178-.178 84.162.084 24.414.05 6.535.022 1.691.011c.382 0 .582.011.582.011s-.186.008-.56.011l-1.67.011-6.5.023-24.374.049-84.282.084h-.178v-.178c0-14.865 0-30.982-.008-47.679v-.186h.194l117.375.055h.131v.13l-.071 34.944-.032 9.46-.014 2.45c-.003.559-.011.826-.011.826z" fill="#e0e0e0"/><path d="M171.954 59.473c0-.1 26.238-.186 58.6-.186s58.6.083 58.6.186-26.232.186-58.6.186-58.6-.083-58.6-.186z" fill="#e0e0e0"/><path d="M176.869 56.6a.852.852 0 11-.852-.852.852.852 0 01.852.852zM179.788 56.6a.852.852 0 11-.852-.852.852.852 0 01.852.852z" fill="#ebebeb" opacity=".3"/><circle cx=".852" cy=".852" r=".852" transform="translate(180.961 55.745)" fill="#ebebeb" opacity=".3"/><path fill="#e0e0e0" d="M181.813 67.223h28.353v28.353h-28.353zM281.1 74.821c0 .1-14.59.186-32.584.186s-32.586-.084-32.586-.186 14.587-.186 32.586-.186 32.584.083 32.584.186zM281.1 80.6c0 .1-14.59.186-32.584.186s-32.586-.084-32.586-.186 14.587-.186 32.586-.186 32.584.08 32.584.186zM257.881 86.373a1.921 1.921 0 01-.426.037l-1.222.035-4.5.059-14.831.054-14.83-.058-4.5-.059-1.222-.035a1.921 1.921 0 01-.426-.037 1.8 1.8 0 01.426-.038l1.222-.035 4.5-.059 14.834-.054 14.831.054 4.5.059 1.222.035a1.8 1.8 0 01.422.042z"/><path d="M472.862 445.088c0 .144-99.787.26-222.851.26-123.108 0-222.873-.116-222.873-.26s99.765-.26 222.873-.26c123.064 0 222.851.116 222.851.26z" fill="#263238"/><path fill="#e0e0e0" d="M295.035 135.408h140.129v114.16H295.035z"/><path fill="#ebebeb" d="M285.071 142.665H425.2v114.16H285.071z"/><path fill="#fff" d="M271.343 150.612h143.868v117.205H271.343z"/><path d="M415.211 267.817s-.016-.743-.024-2.16-.014-3.523-.025-6.258l-.056-23.75-.112-85.037.217.217-143.856.043h-.012l.26-.26-.028 117.2-.232-.232 103.957.12 29.418.062 7.794.028 2.008.013c.452 0 .689.013.689.013s-.219.009-.662.014l-1.983.013-7.748.028-29.365.061-104.11.117h-.233v-.233l-.028-117.2v-.261h.273l143.856.044h.217v.217l-.112 85.174-.056 23.7-.025 6.217c-.005 1.417-.022 2.11-.022 2.11z" fill="#263238"/><path d="M288.878 167.549l-1.544.566 1.544.561v.58l-2.208-.84v-.6l2.208-.839zM292.521 166.491v3.247h-.752v-1.331H290.3v1.331h-.752v-3.247h.752v1.28h1.474v-1.28zM293.96 167.1h-1.04v-.612h2.831v.612h-1.039v2.635h-.752zM299.106 169.738v-1.948l-.955 1.605h-.339l-.951-1.563v1.906h-.7v-3.247h.622l1.215 2.018 1.2-2.018h.616l.01 3.247zM300.576 166.491h.752v2.635h1.628v.612h-2.38zM305.485 167.813v.6l-2.207.84v-.58l1.544-.561-1.544-.566v-.575z" fill="#feab45"/><path d="M287.567 256.43l-1.545.565 1.545.562v.58l-2.209-.84v-.6l2.209-.84zM289.224 254.713h.645l-1.531 4.37h-.645zM293.026 255.372v3.248h-.752v-1.332H290.8v1.332h-.752v-3.248h.752v1.281h1.475v-1.281zM294.464 255.985h-1.039v-.613h2.829v.613h-1.039v2.635h-.751zM299.611 258.62l-.005-1.949-.955 1.605h-.339l-.951-1.563v1.907h-.7v-3.248h.622l1.215 2.018 1.2-2.018h.617l.009 3.248zM301.082 255.372h.752v2.635h1.628v.613h-2.38zM305.991 256.7v.6l-2.207.84v-.58l1.544-.562-1.544-.565v-.575z" fill="#e8505b"/><path d="M299.066 176.437l-1.646.636 1.646.635v.385l-2.078-.821v-.4l2.078-.821zM302.654 175.449v3.251h-.464v-1.447h-1.864v1.447h-.464v-3.247h.464v1.4h1.864v-1.4zM305.981 178.293v.4h-2.356v-3.247h2.291v.4h-1.828v1h1.628v.394h-1.628v1.049zM308.8 177.885h-1.725l-.357.811h-.478l1.471-3.247h.459l1.475 3.247h-.487zm-.162-.371l-.7-1.592-.7 1.592zM310.121 175.449h1.368a1.628 1.628 0 110 3.247h-1.368zm1.341 2.844a1.224 1.224 0 100-2.441h-.877v2.441zM315.85 176.873v.4l-2.078.821v-.385l1.651-.635-1.651-.636v-.385zM299.066 187.558l-1.646.636 1.646.636v.385l-2.078-.822v-.4l2.078-.821zM300.506 186.974h-1.113v-.4h2.686v.4h-1.114v2.844h-.459zM302.582 186.571h.463v3.247h-.463zM304.663 186.974h-1.114v-.4h2.686v.4h-1.113v2.844h-.459zM306.738 186.571h.464v2.843h1.758v.4h-2.222zM311.847 189.414v.4h-2.356v-3.247h2.291v.4h-1.827v1h1.628v.394h-1.628v1.048zM314.5 187.995v.4l-2.078.822v-.385l1.651-.636-1.651-.636v-.384zM316.539 186.571H317v2.843h1.757v.4h-2.221zM318.967 188.589a1.278 1.278 0 111.28 1.257 1.223 1.223 0 01-1.28-1.257zm2.106 0a.829.829 0 10-.826.867.807.807 0 00.826-.867zM323.459 187.336v.431a.932.932 0 00-.1 0 .733.733 0 00-.774.83v1.225h-.446v-2.459h.427v.413a.939.939 0 01.893-.44zM326.193 188.737H324.2a.833.833 0 00.89.719.917.917 0 00.71-.3l.247.288a1.34 1.34 0 01-2.292-.858 1.2 1.2 0 011.234-1.253 1.185 1.185 0 011.211 1.267 1.291 1.291 0 01-.007.137zm-1.995-.32h1.578a.794.794 0 00-1.578 0zM330.9 188.4v1.415h-.445v-1.364c0-.482-.232-.719-.636-.719a.714.714 0 00-.737.817v1.266h-.446v-1.364c0-.482-.231-.719-.635-.719a.714.714 0 00-.738.817v1.266h-.445v-2.459h.427v.366a1 1 0 01.849-.389.911.911 0 01.854.455 1.106 1.106 0 01.945-.455.943.943 0 011.007 1.067zM332.881 186.6a.293.293 0 01.3-.292.288.288 0 01.3.282.3.3 0 01-.6.01zm.08.76h.445v2.459h-.445zM336.8 188.589a1.194 1.194 0 01-1.243 1.257 1.052 1.052 0 01-.858-.4v1.271h-.445v-3.359h.426v.39a1.047 1.047 0 01.877-.413 1.193 1.193 0 011.243 1.254zm-.45 0a.829.829 0 10-.83.867.813.813 0 00.83-.867zM337.1 189.558l.186-.353a1.576 1.576 0 00.862.256c.413 0 .585-.126.585-.334 0-.552-1.554-.074-1.554-1.053 0-.441.395-.738 1.026-.738a1.8 1.8 0 01.894.222l-.189.353a1.283 1.283 0 00-.71-.194c-.39 0-.58.143-.58.338 0 .58 1.558.107 1.558 1.062 0 .445-.408.729-1.062.729a1.77 1.77 0 01-1.016-.288zM342.028 187.359v2.459h-.422v-.371a1 1 0 01-.836.4.966.966 0 01-1.057-1.072v-1.415h.446v1.364c0 .482.24.724.663.724a.724.724 0 00.761-.817v-1.271zM346.955 188.4v1.415h-.446v-1.364c0-.482-.231-.719-.635-.719a.714.714 0 00-.738.817v1.266h-.445v-1.364c0-.482-.231-.719-.636-.719a.714.714 0 00-.737.817v1.266h-.445v-2.459h.426v.366a1 1 0 01.85-.389.912.912 0 01.854.455 1.106 1.106 0 01.945-.455.943.943 0 011.007 1.067zM350.984 187.558l-1.647.636 1.647.636v.385l-2.078-.822v-.4l2.078-.821zM352.694 185.912h.4l-1.531 4.37h-.4zM354.194 186.974h-1.113v-.4h2.685v.4h-1.113v2.844h-.459zM356.27 186.571h.464v3.247h-.464zM358.351 186.974h-1.113v-.4h2.685v.4h-1.113v2.844h-.459zM360.426 186.571h.464v2.843h1.758v.4h-2.222zM365.536 189.414v.4h-2.357v-3.247h2.291v.4h-1.827v1h1.628v.394h-1.628v1.048zM368.185 187.995v.4l-2.078.822v-.385l1.651-.636-1.651-.636v-.384zM299.066 198.68l-1.646.635 1.646.636v.385l-2.078-.821v-.4l2.078-.821zM300.776 197.033h.4l-1.531 4.37h-.4zM304.285 197.692v3.247h-.464v-1.447h-1.864v1.447h-.464v-3.247h.464v1.4h1.864v-1.4zM307.612 200.535v.4h-2.357v-3.247h2.291v.4h-1.827v1h1.628v.394h-1.628v1.048zM310.428 200.127H308.7l-.357.812h-.478l1.47-3.247h.459l1.476 3.247h-.487zm-.162-.371l-.7-1.591-.7 1.591zM311.753 197.692h1.368a1.628 1.628 0 110 3.247h-1.368zm1.339 2.843a1.223 1.223 0 100-2.439h-.876v2.439zM317.481 199.116v.4l-2.078.821v-.385l1.651-.636-1.651-.635v-.385zM290.452 208.332l-1.647.635 1.647.635v.386l-2.078-.821v-.4l2.078-.82zM294.04 209.714c0 .556-.422.877-1.244.877h-1.548v-3.247h1.452c.747 0 1.164.315 1.164.839a.77.77 0 01-.436.724.785.785 0 01.612.807zm-2.328-1.994v1.039h.951c.472 0 .742-.177.742-.52s-.27-.519-.742-.519zm1.859 1.957c0-.376-.277-.543-.793-.543h-1.066v1.081h1.066c.516 0 .793-.162.793-.538zM294.491 208.967a1.727 1.727 0 111.73 1.661 1.649 1.649 0 01-1.73-1.661zm2.987 0a1.262 1.262 0 10-1.257 1.248 1.218 1.218 0 001.257-1.248zM298.648 207.344h1.368a1.628 1.628 0 110 3.247h-1.368zm1.341 2.843a1.224 1.224 0 100-2.44h-.877v2.44zM303.58 209.468v1.123h-.46v-1.132l-1.289-2.115h.5l1.039 1.712 1.044-1.712h.459zM307.236 208.767v.4l-2.078.821v-.388l1.651-.635-1.651-.635v-.385zM290.452 219.453l-1.647.636 1.647.635v.385l-2.078-.821v-.4l2.078-.822zM294.04 218.465v3.247h-.464v-1.447h-1.864v1.447h-.464v-3.247h.464v1.4h1.864v-1.4zM295.753 218.465v3.247h-.459v-2.843h-.734v-.4zM298.626 219.89v.4l-2.079.821v-.385l1.652-.635-1.652-.636v-.385zM300.71 218.465h.342v2.95h1.819v.3h-2.161zM303.087 220.492a1.24 1.24 0 111.242 1.243 1.2 1.2 0 01-1.242-1.243zm2.147 0a.908.908 0 10-.9.951.891.891 0 00.9-.951zM307.466 219.254v.32c-.028 0-.055-.005-.079-.005a.789.789 0 00-.82.9v1.243h-.33v-2.44h.315v.478a.922.922 0 01.914-.496zM310.161 220.6h-2.041a.9.9 0 00.96.848.96.96 0 00.747-.32l.185.214a1.291 1.291 0 01-2.222-.845 1.189 1.189 0 112.375 0c0 .023-.004.06-.004.103zm-2.041-.246h1.73a.867.867 0 00-1.73 0zM314.861 220.3v1.414h-.329v-1.384c0-.515-.26-.779-.7-.779a.784.784 0 00-.817.881v1.28h-.329v-1.382c0-.515-.26-.779-.705-.779a.785.785 0 00-.816.881v1.28h-.33v-2.44h.315v.446a.987.987 0 01.9-.464.878.878 0 01.868.514 1.062 1.062 0 01.965-.514.921.921 0 01.978 1.046zM316.89 218.5a.238.238 0 01.241-.232.234.234 0 01.242.228.242.242 0 01-.483 0zm.074.77h.33v2.44h-.33zM320.684 220.492a1.181 1.181 0 01-1.215 1.243 1.063 1.063 0 01-.927-.482v1.359h-.33v-3.34h.315v.483a1.063 1.063 0 01.942-.5 1.18 1.18 0 011.215 1.237zm-.329 0a.91.91 0 10-.909.951.9.9 0 00.909-.951zM321.014 221.434l.149-.26a1.475 1.475 0 00.868.274c.464 0 .653-.158.653-.4 0-.636-1.581-.135-1.581-1.1 0-.4.343-.7.965-.7a1.653 1.653 0 01.862.227l-.143.264a1.256 1.256 0 00-.719-.208c-.44 0-.636.171-.636.4 0 .659 1.582.162 1.582 1.1 0 .422-.371.7-1.007.7a1.638 1.638 0 01-.993-.297zM325.818 219.272v2.44h-.318v-.445a.972.972 0 01-.877.468.945.945 0 01-1.03-1.048v-1.415h.329v1.383a.682.682 0 00.733.783.793.793 0 00.831-.885v-1.281zM330.764 220.3v1.414h-.329v-1.384c0-.515-.26-.779-.7-.779a.783.783 0 00-.816.881v1.28h-.331v-1.382c0-.515-.259-.779-.705-.779a.786.786 0 00-.816.881v1.28h-.329v-2.44h.315v.446a.989.989 0 01.9-.464.877.877 0 01.867.514 1.063 1.063 0 01.965-.514.921.921 0 01.979 1.046zM335.094 218.27v3.442h-.315v-.482a1.057 1.057 0 01-.942.505 1.241 1.241 0 010-2.481 1.066 1.066 0 01.928.482v-1.466zm-.324 2.222a.908.908 0 10-.9.951.893.893 0 00.9-.951zM335.764 220.492a1.242 1.242 0 111.244 1.243 1.2 1.2 0 01-1.244-1.243zm2.149 0a.908.908 0 10-.9.951.89.89 0 00.9-.951zM338.916 218.27h.329v3.442h-.329zM339.917 220.492a1.241 1.241 0 111.242 1.243 1.2 1.2 0 01-1.242-1.243zm2.147 0a.908.908 0 10-.9.951.891.891 0 00.9-.951zM344.3 219.254v.32c-.028 0-.055-.005-.079-.005a.789.789 0 00-.82.9v1.243h-.33v-2.44h.315v.478a.922.922 0 01.914-.496zM345.8 221.434l.149-.26a1.469 1.469 0 00.867.274c.464 0 .654-.158.654-.4 0-.636-1.582-.135-1.582-1.1 0-.4.343-.7.965-.7a1.65 1.65 0 01.862.227l-.143.264a1.254 1.254 0 00-.719-.208c-.441 0-.636.171-.636.4 0 .659 1.582.162 1.582 1.1 0 .422-.371.7-1.006.7a1.636 1.636 0 01-.993-.297zM348.332 218.5a.237.237 0 01.241-.232.234.234 0 01.241.228.241.241 0 01-.482 0zm.074.77h.329v2.44h-.329zM350.937 221.564a.785.785 0 01-.515.171.646.646 0 01-.714-.709v-1.475h-.436v-.279h.436v-.533h.33v.533h.742v.279h-.742v1.456a.391.391 0 00.422.446.542.542 0 00.361-.126zM354.589 220.2v1.512h-.315v-.38a.917.917 0 01-.84.4c-.552 0-.89-.287-.89-.709 0-.376.241-.691.941-.691h.775v-.149c0-.418-.236-.645-.691-.645a1.247 1.247 0 00-.812.288l-.148-.246a1.544 1.544 0 01.992-.329.866.866 0 01.988.949zm-.329.779v-.4h-.765c-.473 0-.626.186-.626.436 0 .284.227.459.616.459a.78.78 0 00.775-.495zM359.507 220.3v1.414h-.329v-1.384c0-.515-.259-.779-.7-.779a.783.783 0 00-.816.881v1.28h-.329v-1.382c0-.515-.26-.779-.705-.779a.786.786 0 00-.817.881v1.28h-.33v-2.44h.315v.446a.989.989 0 01.9-.464.877.877 0 01.867.514 1.065 1.065 0 01.965-.514.921.921 0 01.979 1.046zM362.532 220.6h-2.041a.9.9 0 00.96.848.96.96 0 00.747-.32l.185.214a1.291 1.291 0 01-2.222-.845 1.175 1.175 0 011.192-1.238 1.163 1.163 0 011.183 1.238c0 .023-.004.06-.004.103zm-2.041-.246h1.73a.867.867 0 00-1.73 0zM364.491 221.564a.783.783 0 01-.515.171.646.646 0 01-.715-.709v-1.475h-.435v-.279h.435v-.533h.329v.533h.743v.279h-.743v1.456a.392.392 0 00.423.446.545.545 0 00.362-.126zM365.417 221.48a.76.76 0 01-.065.269l-.195.641h-.223l.158-.673a.236.236 0 01-.168-.237.247.247 0 11.493 0zM367.085 220.492a1.2 1.2 0 011.257-1.238 1.065 1.065 0 01.955.482l-.246.167a.826.826 0 00-.709-.362.951.951 0 000 1.9.821.821 0 00.709-.357l.246.167a1.075 1.075 0 01-.955.482 1.2 1.2 0 01-1.257-1.241zM369.651 220.492a1.241 1.241 0 111.244 1.243 1.2 1.2 0 01-1.244-1.243zm2.148 0a.908.908 0 10-.9.951.889.889 0 00.901-.951zM375.048 220.3v1.414h-.329v-1.384a.681.681 0 00-.732-.779.8.8 0 00-.854.881v1.28h-.33v-2.44h.316v.45a1.027 1.027 0 01.927-.468.934.934 0 011.002 1.046zM375.6 221.434l.149-.26a1.469 1.469 0 00.867.274c.464 0 .654-.158.654-.4 0-.636-1.582-.135-1.582-1.1 0-.4.343-.7.965-.7a1.653 1.653 0 01.862.227l-.143.264a1.253 1.253 0 00-.719-.208c-.442 0-.636.171-.636.4 0 .659 1.582.162 1.582 1.1 0 .422-.371.7-1.007.7a1.632 1.632 0 01-.992-.297zM380.331 220.6h-2.041a.9.9 0 00.96.848.962.962 0 00.747-.32l.185.214a1.291 1.291 0 01-2.222-.845 1.189 1.189 0 112.375 0c0 .023-.004.06-.004.103zm-2.041-.246h1.73a.867.867 0 00-1.73 0zM380.758 220.492a1.2 1.2 0 011.258-1.238 1.065 1.065 0 01.955.482l-.246.167a.827.827 0 00-.709-.362.951.951 0 000 1.9.822.822 0 00.709-.357l.246.167a1.075 1.075 0 01-.955.482 1.205 1.205 0 01-1.258-1.241zM384.926 221.564a.782.782 0 01-.514.171.646.646 0 01-.715-.709v-1.475h-.436v-.279h.436v-.533h.329v.533h.742v.279h-.742v1.456a.391.391 0 00.423.446.542.542 0 00.361-.126zM387.56 220.6h-2.041a.9.9 0 00.96.848.959.959 0 00.747-.32l.186.214a1.291 1.291 0 01-2.222-.845 1.189 1.189 0 112.375 0c0 .023-.005.06-.005.103zm-2.041-.246h1.73a.867.867 0 00-1.73 0zM389.519 221.564a.785.785 0 01-.515.171.646.646 0 01-.714-.709v-1.475h-.436v-.279h.436v-.533h.33v.533h.742v.279h-.742v1.456a.391.391 0 00.422.446.542.542 0 00.361-.126zM392.314 219.272v2.44H392v-.445a.972.972 0 01-.877.468.945.945 0 01-1.03-1.048v-1.415h.329v1.383a.682.682 0 00.733.783.793.793 0 00.831-.885v-1.281zM395.358 220.6h-2.041a.9.9 0 00.96.848.96.96 0 00.747-.32l.186.214a1.291 1.291 0 01-2.223-.845 1.175 1.175 0 011.192-1.238 1.163 1.163 0 011.183 1.238c0 .023-.004.06-.004.103zm-2.041-.246h1.73a.867.867 0 00-1.73 0zM397.262 219.254v.32c-.027 0-.055-.005-.079-.005a.79.79 0 00-.821.9v1.243h-.329v-2.44h.315v.478a.922.922 0 01.914-.496zM290.364 225.761v1.512h-.316v-.381a.914.914 0 01-.839.4c-.552 0-.891-.287-.891-.71 0-.375.241-.691.942-.691h.775v-.148c0-.418-.238-.645-.692-.645a1.237 1.237 0 00-.811.288l-.149-.247a1.554 1.554 0 01.993-.329.867.867 0 01.988.951zm-.329.779v-.4h-.766c-.474 0-.626.186-.626.436 0 .283.227.459.617.459a.781.781 0 00.775-.495zM293.492 223.831v3.442h-.316v-.483a1.055 1.055 0 01-.941.506 1.241 1.241 0 010-2.482 1.065 1.065 0 01.928.483v-1.466zm-.324 2.222a.908.908 0 10-.906.951.893.893 0 00.906-.951zM294.333 224.063a.237.237 0 01.241-.232.233.233 0 01.241.227.241.241 0 01-.482.005zm.074.77h.33v2.44h-.33zM298.127 226.053a1.182 1.182 0 01-1.216 1.243 1.067 1.067 0 01-.928-.483v1.36h-.329v-3.34h.315v.482a1.063 1.063 0 01.942-.5 1.181 1.181 0 011.216 1.238zm-.33 0a.91.91 0 10-.909.951.9.9 0 00.912-.951zM298.721 224.063a.238.238 0 01.241-.232.234.234 0 01.242.227.237.237 0 01-.242.242.24.24 0 01-.241-.237zm.074.77h.331v2.44h-.326zM299.7 226.995l.148-.26a1.472 1.472 0 00.867.274c.464 0 .655-.159.655-.4 0-.635-1.582-.134-1.582-1.1 0-.4.342-.7.964-.7a1.645 1.645 0 01.863.228l-.144.264a1.254 1.254 0 00-.719-.209c-.441 0-.635.172-.635.4 0 .659 1.582.162 1.582 1.1 0 .422-.371.7-1.007.7a1.632 1.632 0 01-.992-.297zM302.063 226.053a1.2 1.2 0 011.257-1.239 1.062 1.062 0 01.955.483l-.245.167a.832.832 0 00-.71-.362.951.951 0 000 1.9.829.829 0 00.71-.358l.245.167a1.073 1.073 0 01-.955.483 1.2 1.2 0 01-1.257-1.241zM304.842 224.063a.238.238 0 01.242-.232.234.234 0 01.241.227.237.237 0 01-.241.242.24.24 0 01-.242-.237zm.075.77h.33v2.44h-.33zM308.409 225.858v1.415h-.329v-1.383a.682.682 0 00-.734-.779.8.8 0 00-.853.882v1.28h-.329v-2.44h.315v.45a1.027 1.027 0 01.928-.469.934.934 0 011.002 1.044zM311.569 224.833v2.143a1.071 1.071 0 01-1.221 1.22 1.7 1.7 0 01-1.136-.376l.167-.25a1.455 1.455 0 00.96.334c.617 0 .9-.283.9-.887v-.31a1.1 1.1 0 01-.951.473 1.184 1.184 0 110-2.366 1.1 1.1 0 01.965.488v-.469zm-.32 1.16a.927.927 0 10-.928.9.873.873 0 00.928-.9zM315.828 226.155h-2.041a.9.9 0 00.96.849.961.961 0 00.747-.321l.185.214a1.289 1.289 0 01-2.221-.844 1.189 1.189 0 112.375 0c0 .028-.005.065-.005.102zm-2.041-.246h1.729a.866.866 0 00-1.729 0zM316.5 223.831h.329v3.442h-.329zM317.673 224.063a.238.238 0 01.242-.232.234.234 0 01.241.227.242.242 0 01-.483.005zm.075.77h.329v2.44h-.329zM320.28 227.124a.783.783 0 01-.515.172.647.647 0 01-.715-.71v-1.475h-.435v-.278h.435v-.533h.329v.533h.743v.278h-.743v1.457a.391.391 0 00.423.445.544.544 0 00.362-.125zM321.2 227.041a.749.749 0 01-.066.269l-.194.64h-.223l.157-.673a.234.234 0 01-.166-.236.246.246 0 11.492 0zM322.78 226.995l.148-.26a1.48 1.48 0 00.868.274c.464 0 .654-.159.654-.4 0-.635-1.581-.134-1.581-1.1 0-.4.343-.7.965-.7a1.644 1.644 0 01.862.228l-.144.264a1.253 1.253 0 00-.718-.209c-.441 0-.636.172-.636.4 0 .659 1.582.162 1.582 1.1 0 .422-.371.7-1.007.7a1.638 1.638 0 01-.993-.297zM327.509 226.155h-2.041a.9.9 0 00.96.849.96.96 0 00.747-.321l.186.214a1.29 1.29 0 01-2.222-.844 1.189 1.189 0 112.375 0c0 .028-.005.065-.005.102zm-2.041-.246h1.73a.867.867 0 00-1.73 0zM330.41 223.831v3.442h-.316v-.483a1.055 1.055 0 01-.941.506 1.241 1.241 0 010-2.482 1.065 1.065 0 01.928.483v-1.466zm-.324 2.222a.908.908 0 10-.906.951.893.893 0 00.906-.951zM334.765 223.831v3.442h-.315v-.483a1.056 1.056 0 01-.942.506 1.241 1.241 0 010-2.482 1.065 1.065 0 01.928.483v-1.466zm-.324 2.222a.908.908 0 10-.9.951.892.892 0 00.9-.951zM335.606 224.063a.237.237 0 01.241-.232.233.233 0 01.241.227.236.236 0 01-.241.242.239.239 0 01-.241-.237zm.074.77h.33v2.44h-.33zM338.769 225.761v1.512h-.315v-.381a.916.916 0 01-.84.4c-.552 0-.891-.287-.891-.71 0-.375.241-.691.942-.691h.775v-.148c0-.418-.236-.645-.691-.645a1.238 1.238 0 00-.812.288l-.148-.247a1.55 1.55 0 01.992-.329.867.867 0 01.988.951zm-.329.779v-.4h-.766c-.472 0-.626.186-.626.436 0 .283.228.459.617.459a.781.781 0 00.775-.495zM343.688 225.858v1.415h-.329v-1.383c0-.514-.26-.779-.7-.779a.785.785 0 00-.817.882v1.28h-.33v-1.383c0-.514-.259-.779-.7-.779a.787.787 0 00-.816.882v1.28h-.329v-2.44h.315v.445a.988.988 0 01.9-.464.877.877 0 01.867.515 1.064 1.064 0 01.965-.515.921.921 0 01.974 1.044zM346.507 225.014l-1.646.635 1.646.636v.385l-2.078-.821v-.4l2.078-.821zM348.217 223.367h.4l-1.532 4.37h-.4zM351.726 224.026v3.247h-.464v-1.448H349.4v1.448h-.464v-3.247h.464v1.4h1.864v-1.4zM353.439 224.026v3.247h-.46v-2.843h-.732v-.4zM356.313 225.45v.4l-2.078.821v-.385l1.651-.636-1.651-.635v-.385zM290.452 236.136l-1.647.635 1.647.635v.385l-2.078-.82v-.4l2.078-.821zM293.868 236.279c0 .7-.51 1.132-1.354 1.132h-.8v.983h-.464v-3.247h1.266c.842 0 1.352.427 1.352 1.132zm-.463 0c0-.464-.312-.728-.9-.728h-.788v1.457h.788c.588 0 .895-.265.895-.729zM296.495 236.571v.4l-2.078.82v-.385l1.651-.635-1.651-.635v-.386zM300.438 236.136l-1.646.635 1.646.635v.385l-2.078-.82v-.4l2.078-.821zM301.233 235.147h.464v3.247h-.464zM305.68 238.394l-.005-2.365L304.5 238h-.214l-1.173-1.957v2.351h-.445v-3.247h.379l1.355 2.283 1.336-2.283h.381l.005 3.247zM309.344 236.752h.446v1.266a1.919 1.919 0 01-1.229.414 1.662 1.662 0 111.257-2.821l-.288.288a1.285 1.285 0 00-.942-.376 1.248 1.248 0 100 2.5 1.371 1.371 0 00.759-.208zM311.622 238.023l.172-.362a1.661 1.661 0 001.071.376c.561 0 .8-.218.8-.5 0-.793-1.967-.292-1.967-1.5 0-.5.39-.928 1.244-.928a1.905 1.905 0 011.043.288l-.152.371a1.681 1.681 0 00-.891-.264c-.553 0-.789.231-.789.514 0 .793 1.967.3 1.967 1.49 0 .5-.4.923-1.257.923a1.92 1.92 0 01-1.241-.408zM316.967 238.394l-.7-1c-.064 0-.134.009-.2.009h-.8v.988h-.467v-3.247h1.267c.844 0 1.354.427 1.354 1.132a1.027 1.027 0 01-.714 1.026l.77 1.089zm-.013-2.115c0-.464-.312-.728-.906-.728h-.788v1.461h.788c.594 0 .906-.269.906-.733zM317.9 236.771a1.642 1.642 0 011.721-1.661 1.605 1.605 0 011.234.506l-.3.292a1.2 1.2 0 00-.914-.385 1.248 1.248 0 100 2.5 1.208 1.208 0 00.914-.389l.3.292a1.612 1.612 0 01-1.238.511 1.641 1.641 0 01-1.717-1.666zM321.338 236.038h2.079v.366h-2.079zm0 1.1h2.079v.366h-2.079zM325.263 235.147h.39l-.032 1.253h-.329zm.84 0h.39l-.032 1.253h-.33zM327.271 235.147h.464v2.844h1.758v.4h-2.222zM329.7 237.165a1.278 1.278 0 111.281 1.257 1.223 1.223 0 01-1.281-1.257zm2.106 0a.829.829 0 10-1.656 0 .829.829 0 101.656 0zM334.19 235.913v.431a.9.9 0 00-.1 0 .733.733 0 00-.775.83v1.224h-.445v-2.458h.427v.413a.937.937 0 01.893-.44zM336.925 237.313h-1.995a.835.835 0 00.891.72.92.92 0 00.71-.3l.246.287a1.34 1.34 0 01-2.292-.858 1.2 1.2 0 011.234-1.252 1.185 1.185 0 011.215 1.266 1.272 1.272 0 01-.009.137zm-1.995-.319h1.578a.794.794 0 00-1.578 0zM341.63 236.979v1.415h-.445v-1.363c0-.483-.231-.72-.636-.72a.714.714 0 00-.737.817v1.266h-.445v-1.363c0-.483-.232-.72-.636-.72a.714.714 0 00-.737.817v1.266h-.446v-2.458h.427v.367a1 1 0 01.85-.39.91.91 0 01.853.454 1.109 1.109 0 01.946-.454.942.942 0 011.006 1.066zM343.614 235.175a.294.294 0 01.3-.292.29.29 0 11-.3.292zm.079.761h.445v2.458h-.445zM347.533 237.165a1.2 1.2 0 01-1.243 1.257 1.05 1.05 0 01-.859-.4v1.271h-.445v-3.358h.427v.389a1.048 1.048 0 01.877-.412 1.194 1.194 0 011.243 1.253zm-.45 0a.829.829 0 10-.83.868.812.812 0 00.83-.868zM347.836 238.135l.185-.353a1.576 1.576 0 00.862.255c.413 0 .585-.125.585-.334 0-.552-1.553-.074-1.553-1.053 0-.44.394-.737 1.025-.737a1.781 1.781 0 01.895.223l-.19.352a1.284 1.284 0 00-.71-.2c-.39 0-.58.144-.58.339 0 .58 1.559.106 1.559 1.062 0 .446-.409.728-1.063.728a1.774 1.774 0 01-1.015-.282zM352.759 235.936v2.458h-.422v-.371a1 1 0 01-.834.4.967.967 0 01-1.059-1.072v-1.414h.445v1.363c0 .482.242.723.664.723a.723.723 0 00.761-.816v-1.271zM357.687 236.979v1.415h-.445v-1.363c0-.483-.232-.72-.636-.72a.714.714 0 00-.737.817v1.266h-.446v-1.363c0-.483-.231-.72-.635-.72a.714.714 0 00-.738.817v1.266h-.445v-2.458h.427v.367a1 1 0 01.849-.39.912.912 0 01.854.454 1.106 1.106 0 01.945-.454.942.942 0 011.007 1.066zM358.373 235.147h.389l-.032 1.253h-.33zm.839 0h.39l-.032 1.253h-.329zM362.281 236.571v.4l-2.078.82v-.385l1.651-.635-1.651-.635v-.386zM364.978 236.136l-1.646.635 1.646.635v.385l-2.078-.82v-.4l2.078-.821zM366.688 234.489h.4l-1.531 4.369h-.4zM370.026 236.279c0 .7-.511 1.132-1.356 1.132h-.8v.983h-.47v-3.247h1.265c.85 0 1.361.427 1.361 1.132zm-.465 0c0-.464-.31-.728-.9-.728h-.788v1.457h.788c.59 0 .9-.265.9-.729zM372.652 236.571v.4l-2.078.82v-.385l1.651-.635-1.651-.635v-.386zM290.452 247.257l-1.647.635 1.647.636v.385l-2.078-.821v-.4l2.078-.821zM292.161 245.61h.4l-1.531 4.37h-.4zM295.67 248.64c0 .556-.421.876-1.243.876h-1.548v-3.247h1.456c.747 0 1.164.315 1.164.839a.77.77 0 01-.436.724.785.785 0 01.607.808zm-2.328-2v1.039h.952c.472 0 .742-.175.742-.519s-.27-.52-.742-.52zm1.86 1.958c0-.376-.278-.543-.793-.543h-1.067v1.081h1.067c.515.004.791-.158.791-.536zM296.122 247.892a1.727 1.727 0 111.73 1.661 1.649 1.649 0 01-1.73-1.661zm2.987 0a1.262 1.262 0 10-1.257 1.248 1.22 1.22 0 001.257-1.248zM300.279 246.269h1.368a1.628 1.628 0 110 3.247h-1.368zm1.341 2.843a1.223 1.223 0 100-2.439h-.877v2.439zM305.211 248.393v1.123h-.46v-1.132l-1.289-2.115h.5L305 247.98l1.044-1.711h.459zM308.867 247.693v.4l-2.078.821v-.385l1.651-.636-1.651-.635v-.385z"/><path d="M415.211 160.363c0 .144-32.094.26-71.674.26s-71.68-.116-71.68-.26 32.087-.261 71.68-.261 71.674.117 71.674.261zM276.152 155.245a.922.922 0 11-.922-.923.922.922 0 01.922.923z" fill="#263238"/><circle cx=".922" cy=".922" r=".922" transform="translate(277.851 154.322)" fill="#263238"/><path d="M283.238 155.245a.922.922 0 11-.922-.923.922.922 0 01.922.923z" fill="#263238"/><path d="M280.961 268.785c-.144 0-.261-24.331-.261-54.337s.117-54.342.261-54.342.26 24.325.26 54.342-.121 54.337-.26 54.337z" fill="#e0e0e0"/><path fill="#feab45" d="M402.388 216.305h53.565v38.183h-53.565z"/><text transform="translate(428.059 239.913)" fill="#fff" font-size="8" font-family="SegoeUI-Bold, Segoe UI" font-weight="700"><tspan x="-9.527" y="0">JAVA</tspan></text><path d="M456.373 221.97c0 .093-12.091.169-27 .169s-27.005-.076-27.005-.169 12.088-.169 27.005-.169 27 .076 27 .169zM406.76 219.184a.728.728 0 11-.722-.634.682.682 0 01.722.634zM409.388 219.184a.727.727 0 11-.721-.634.681.681 0 01.721.634zM412.017 219.184a.727.727 0 11-.721-.634.682.682 0 01.721.634z" fill="#fff"/><path fill="#feab45" d="M51.778 215.755h39.486v28.147H51.778z"/><path d="M91.573 219.932c0 .068-8.913.124-19.906.124S51.76 220 51.76 219.932s8.911-.125 19.907-.125 19.906.056 19.906.125zM55 217.878a.536.536 0 11-.532-.468.5.5 0 01.532.468zM56.938 217.878a.536.536 0 11-.532-.468.5.5 0 01.532.468zM58.876 217.878a.536.536 0 11-.532-.468.5.5 0 01.532.468z" fill="#fff"/><path d="M287.053 107.287a7.389 7.389 0 017.672-7.5 7.053 7.053 0 015.261 2.05l-.675.7a6.2 6.2 0 00-4.544-1.753 6.51 6.51 0 100 13.018 6.216 6.216 0 004.544-1.775l.675.7a7.064 7.064 0 01-5.261 2.071 7.389 7.389 0 01-7.672-7.511zM302.016 112.781l.485-.8a7.036 7.036 0 004.882 1.86c2.959 0 4.269-1.289 4.269-2.895 0-4.438-9.235-1.775-9.235-7.228 0-2.092 1.607-3.931 5.241-3.931a7.937 7.937 0 014.459 1.331l-.4.867a7.317 7.317 0 00-4.058-1.247c-2.874 0-4.163 1.332-4.163 2.959 0 4.438 9.235 1.817 9.235 7.185 0 2.092-1.669 3.91-5.326 3.91a7.577 7.577 0 01-5.389-2.011zM314.885 112.781l.485-.8a7.036 7.036 0 004.882 1.86c2.959 0 4.27-1.289 4.27-2.895 0-4.438-9.236-1.775-9.236-7.228 0-2.092 1.607-3.931 5.241-3.931a7.937 7.937 0 014.459 1.331l-.4.867a7.312 7.312 0 00-4.058-1.247c-2.874 0-4.163 1.332-4.163 2.959 0 4.438 9.235 1.817 9.235 7.185 0 2.092-1.669 3.91-5.325 3.91a7.578 7.578 0 01-5.39-2.011z" fill="#feab45"/><path d="M338.192 126.519s-.015-.273-.022-.784l-.023-2.251-.053-8.559-.108-30.961.206.206-65.887.054h-.005l.261-.26-.021 42.555-.24-.239 47.4.117 13.6.065 3.628.029.941.014c.213.005.323.01.328.014a2.1 2.1 0 01-.3.015l-.914.014-3.58.029-13.541.064-47.557.118h-.239v-.241l-.021-42.555V83.7h.265l65.887.054h.207v.206l-.108 31.089-.053 8.513-.023 2.213c-.013.5-.028.744-.028.744z" fill="#feab45"/><path d="M338.192 90.278c0 .144-14.757.26-32.957.26s-32.961-.116-32.961-.26 14.754-.261 32.961-.261 32.957.117 32.957.261zM277.172 87.172a.81.81 0 11-.8-.706.759.759 0 01.8.706zM280.1 87.172a.81.81 0 11-.8-.706.76.76 0 01.8.706zM283.032 87.172a.81.81 0 11-.8-.706.76.76 0 01.8.706z" fill="#feab45"/><path d="M147.883 271.95l26.125 88.183a9.221 9.221 0 008.841 6.6l106 .292a9.8 9.8 0 009.812-10.318 9.8 9.8 0 00-9.785-9.28h-40.539l-32.461-90.446h-56.817a11.656 11.656 0 00-11.176 14.969z" fill="#455a64"/><path d="M237.561 354.671c0 .206-10.808.373-24.137.373s-24.138-.167-24.138-.373 10.805-.374 24.138-.374 24.137.168 24.137.374zM155.678 259.784c.2-.066 7.413 21.048 16.119 47.153s15.607 47.328 15.412 47.394-7.412-21.045-16.121-47.158-15.606-47.324-15.41-47.389z" fill="#263238"/><path d="M233.152 445.088l-6.46-.153v-78.2h6.46z" fill="#455a64"/><path d="M199.856 444.731h60.132l-27.24-9.467h-6.46z" fill="#455a64"/><path d="M184.648 236.763l9.95 49.707-1.776 37.252L259.7 312.6l-2.625-32.621-.05-26.993 16.4 31.781 12.769-24.667-23.379-42.348a39.457 39.457 0 00-15.295-9.9 31.562 31.562 0 00-9.586-1.837 38.421 38.421 0 01-23.152.014c-.94.118-2.244.241-3.887.436l-.3.036a29.569 29.569 0 00-25.809 27.8z" fill="#feab45"/><path d="M210.893 206.471s-27.479.208-30.883 29.231l-.462 21.281 23.666-.2z" fill="#feab45"/><path d="M276.542 243.8c0 .206-21.623.373-48.291.373s-48.3-.167-48.3-.373 21.619-.373 48.3-.373 48.291.173 48.291.373zM276.542 248.406c0 .206-21.623.373-48.291.373s-48.3-.167-48.3-.373 21.619-.373 48.3-.373 48.291.167 48.291.373zM274.995 239.992c0 .207-21.277.374-47.517.374s-47.522-.167-47.522-.374 21.272-.373 47.522-.373 47.517.167 47.517.373z" fill="#fafafa"/><path d="M256.668 284.766c-.206 0-.115-11.767.2-26.269s.745-26.259.951-26.254.115 11.764-.205 26.271-.74 26.257-.946 26.252z" fill="#263238"/><path d="M247.273 265.69s13 .93 15.339 4.366 5.906 13.236 4.555 13.308a3.691 3.691 0 01-2.334-.738l-3.562-6.313s.572 6.1-1.558 6.22-12.684 2.233-12.684 2.233z" fill="#ffbe9d"/><path d="M179.556 251.318l-.049 33.509a12.73 12.73 0 0015.423 11.751l52.409-10.8-.112-21.488-45.219 8.678-.6-22.746z" fill="#feab45"/><path d="M209.456 293.894a3.692 3.692 0 01.692-.193l2.032-.457 7.7-1.631 27.28-5.575-.268.326-.037-22.072.44.363-9.213 1.771-36.016 6.856-.391.074.013-.392.829-24.165.282-6.748c.041-.735.073-1.322.1-1.775a2.751 2.751 0 01.067-.606 2.943 2.943 0 01.031.611v1.779l-.107 6.755-.562 24.16-.378-.318 35.995-6.964 9.214-1.765.441-.084v.448l-.036 22.072v.275l-.268.052L219.96 292l-7.739 1.448-2.052.356a3.672 3.672 0 01-.713.09zM239.519 206.471c.024-.008.1.16.215.491a9.885 9.885 0 01.405 1.482 12.143 12.143 0 01-.245 5.64 14.831 14.831 0 01-4.549 7.019 14.116 14.116 0 01-9.539 3.6 12.946 12.946 0 01-9.431-3.83 13.282 13.282 0 01-3.508-7.587 11.956 11.956 0 01.66-5.607 7.946 7.946 0 01.672-1.383c.181-.3.286-.452.308-.439.076.04-.318.667-.706 1.917a12.521 12.521 0 00-.411 5.446 13.011 13.011 0 003.479 7.174 12.406 12.406 0 008.938 3.563 13.606 13.606 0 009.083-3.372 14.63 14.63 0 004.5-6.653 12.72 12.72 0 00.464-5.444c-.174-1.297-.41-1.996-.335-2.017z" fill="#263238"/><path d="M242.049 287.557a16.281 16.281 0 01.011-3.307c.078-2.034.176-4.841.2-7.943s-.047-5.911-.1-7.946a16.236 16.236 0 01.029-3.307 13.293 13.293 0 01.5 3.276c.189 2.035.338 4.859.321 7.981s-.2 5.943-.415 7.976a13.27 13.27 0 01-.546 3.27zM239.344 288.105a15.336 15.336 0 01-.094-3.283l.085-7.895c0-2.932-.006-5.587-.008-7.9a15.3 15.3 0 01.127-3.281 13.6 13.6 0 01.4 3.263c.138 2.023.241 4.824.226 7.919s-.145 5.893-.3 7.914a13.5 13.5 0 01-.436 3.263z" fill="#fafafa"/><path d="M291.825 421.248l9.9 27.277 14.056 19.317a2.974 2.974 0 01-.823 4.267 2.953 2.953 0 01-2.712.232c-5.668-2.352-26.474-11.106-27.087-13.143-.71-2.359-14.141-31.7-14.141-31.7z" fill="#feab45"/><path d="M314.963 472.109l-30.509-14.736.446 1.146a4.476 4.476 0 002.041 2.319c2.5 1.35 9.495 4.925 25.229 11.536a2.972 2.972 0 002.793-.265zM286.608 446.489a1.8 1.8 0 011.311 2.011 1.73 1.73 0 01-1.981 1.317 1.9 1.9 0 01-1.378-2.137 1.794 1.794 0 012.214-1.141" fill="#fff" opacity=".6"/><path d="M304.183 462.7c.182.016.24-1.638 1.552-3.026 1.271-1.427 2.913-1.627 2.882-1.808 0-.075-.426-.152-1.094 0a4.742 4.742 0 00-3.43 3.739c-.099.682.014 1.095.09 1.095zM307.518 465.57c.175.067.7-1.15 1.943-2.1 1.222-.973 2.531-1.183 2.509-1.369.024-.168-1.5-.235-2.9.866-1.411 1.09-1.721 2.585-1.552 2.603zM298.79 459.452c.177.08.977-1.8 2.78-3.436 1.779-1.667 3.713-2.314 3.648-2.5-.012-.161-2.168.245-4.08 2.028-1.93 1.767-2.508 3.883-2.348 3.908zM295.086 451.412c.136.134 1.387-1.072 3.3-1.9 1.9-.853 3.639-.959 3.632-1.15.023-.161-1.839-.345-3.889.567-2.053.894-3.177 2.391-3.043 2.483zM291.976 443.478c.145.124 1.3-1.362 3.386-2.068 2.074-.752 3.9-.308 3.937-.495.022-.074-.4-.3-1.169-.416a6.483 6.483 0 00-5.5 1.925c-.523.568-.717 1.01-.654 1.054zM294.726 439.918a2.5 2.5 0 00-.361-1.037 7.621 7.621 0 00-1.856-2.363 3.38 3.38 0 00-1.937-.978 1.2 1.2 0 00-1.159.736 1.948 1.948 0 00.048 1.388 4.2 4.2 0 004.843 2.287 4.874 4.874 0 003.537-4.113 1.69 1.69 0 00-.436-1.34 1.172 1.172 0 00-1.368-.133 4.156 4.156 0 00-1.421 1.619 8.527 8.527 0 00-1.028 2.819 2.616 2.616 0 00-.052 1.1 13.576 13.576 0 011.464-3.685 3.883 3.883 0 011.273-1.381.624.624 0 01.746.068 1.157 1.157 0 01.235.9 4.353 4.353 0 01-3.108 3.531 3.651 3.651 0 01-4.139-1.883 1.413 1.413 0 01-.074-.968.647.647 0 01.634-.415 3.058 3.058 0 011.655.8 11.276 11.276 0 012.504 3.048z" fill="#263238"/><path d="M333.642 414.113l-.856 22.169s22.246 8.315 22.487 12.428l-43.044-.117-.083-34.6z" fill="#feab45"/><path d="M319.481 434.381a1.757 1.757 0 00-1.22 2 1.689 1.689 0 001.974 1.228 1.854 1.854 0 001.282-2.127 1.754 1.754 0 00-2.2-1.05M312.229 448.593l-.008-3.45 41.358 1.379s1.914.839 1.694 2.188z" fill="#fff" opacity=".6"/><path d="M333.484 436.065c-.007.21-1.058.3-2.094.975-1.054.646-1.59 1.555-1.783 1.472-.193-.042.124-1.3 1.392-2.09s2.531-.55 2.485-.357zM337.994 437.944c.048.2-.864.559-1.58 1.446-.742.866-.925 1.827-1.134 1.817-.2.032-.34-1.2.572-2.285s2.138-1.178 2.142-.978zM340.543 443.354c-.191.045-.48-1.006.063-2.156s1.527-1.605 1.615-1.429c.118.173-.521.789-.953 1.739-.453.94-.516 1.826-.725 1.846zM333.119 430.991c-.089.191-1.052-.1-2.24-.024-1.19.053-2.116.45-2.225.269-.121-.152.784-.928 2.185-1s2.384.59 2.28.755z" fill="#263238"/><path d="M333.468 418.5l-.147 3.951-21.154-.25-.017-3.56z" opacity=".3"/><path d="M333.209 426.515a4.031 4.031 0 01-2.155-.017 9.647 9.647 0 01-2.254-.7 9.992 9.992 0 01-1.236-.66 2.644 2.644 0 01-.65-.509.916.916 0 01-.093-1.118 1.153 1.153 0 01.922-.478 2.774 2.774 0 01.808.114 7.72 7.72 0 011.339.463 7.611 7.611 0 011.985 1.31c1 .928 1.335 1.714 1.263 1.754-.1.069-.58-.59-1.594-1.356a8.618 8.618 0 00-1.92-1.089 8.11 8.11 0 00-1.236-.385c-.456-.12-.844-.125-.961.078-.043.077-.049.108.046.241a2.153 2.153 0 00.478.372 11.387 11.387 0 001.137.654 12.008 12.008 0 002.082.8 14.917 14.917 0 012.039.526z" fill="#263238"/><path d="M332.935 426.816a3.428 3.428 0 01-.563-2.084 6.96 6.96 0 01.853-3.666 1.779 1.779 0 011.378-1.085 1.008 1.008 0 01.9.6 2.95 2.95 0 01.219.791 4.77 4.77 0 010 1.452 4.96 4.96 0 01-.926 2.224c-.845 1.114-1.722 1.363-1.74 1.291-.07-.105.664-.509 1.311-1.579a4.981 4.981 0 00.687-2.024 4.477 4.477 0 00-.036-1.246c-.066-.458-.237-.827-.408-.781-.214 0-.579.34-.756.7a7.271 7.271 0 00-.538 1.167 7.783 7.783 0 00-.423 2.15c-.066 1.274.156 2.058.042 2.09z" fill="#263238"/><path d="M312.188 307.843c-25.426 2.63-59.137 6.084-59.137 6.084l4.6 41.389s49.526-13.089 49.172-12.027 2.294 88.064 2.294 88.064h29.823l.561-98.529a24.767 24.767 0 00-27.313-24.981z" fill="#052b5d"/><path d="M192.205 324.54v12.834c0 8.737 9.951 18 18.688 18h6.755c5.324 0 13.664-3.875 17.963-7.017l2.582-1.887 31.054 96.209s35.536-6.37 35.536-7.491-24.065-78.8-35.174-114.854c-4.536-14.72-20.307-23.28-34.877-18.283q-.745.256-1.492.554c-15.918 6.369-41.035 21.935-41.035 21.935z" fill="#052b5d"/><path d="M304.783 435.19a1.468 1.468 0 01-.158-.342l-.392-1.029c-.338-.908-.828-2.25-1.409-3.994-1.194-3.479-2.823-8.544-4.808-14.811-3.964-12.536-9.274-29.9-15.056-49.109l-8.108-27.093-3.516-11.828q-.828-2.777-1.6-5.359a48.1 48.1 0 00-1.617-4.867 19.927 19.927 0 00-5.016-7.1 42.256 42.256 0 00-5.255-4.092 85.11 85.11 0 00-3.561-2.276l-.934-.583a.189.189 0 11.038-.066l.972.519a58.307 58.307 0 013.645 2.163 40.266 40.266 0 015.378 4.028 20.2 20.2 0 015.22 7.206 48.129 48.129 0 011.682 4.9l1.638 5.349 3.582 11.808 8.164 27.076 14.845 49.168c1.92 6.237 3.481 11.3 4.58 14.876l1.275 4.035.322 1.053a1.43 1.43 0 01.089.368zM312.278 330.876c.184.128-1.506 2.668-2.922 6.114-1.44 3.438-2.044 6.427-2.264 6.388-.188-.017.1-3.139 1.575-6.674 1.457-3.542 3.467-5.949 3.611-5.828zM317.976 334.877c.088.208-2.478 1.331-5.147 3.447-2.688 2.093-4.386 4.32-4.567 4.185-.164-.091 1.316-2.6 4.106-4.772 2.773-2.196 5.558-3.037 5.608-2.86zM269.582 442.681c-.2.062-8.587-25.684-18.737-57.5s-18.224-57.668-18.028-57.731 8.585 25.678 18.739 57.5 18.222 57.668 18.026 57.731zM231.47 292.593l101.653.978 18.955-53.578-73.937.5-17.16 48.181-29.511.441z" fill="#455a64"/><path d="M308.539 271.4a4.117 4.117 0 114.653-3.5 4.117 4.117 0 01-4.653 3.5z" fill="#fff"/><path d="M223.175 147.566c.959-3.564 3.642-5.319 7.136-6.511a11.515 11.515 0 0110.5 1.705c1.964 1.5 3.5 3.669 5.835 4.479 3.84 1.335 8.341-1.54 12.023.183a5.245 5.245 0 01-2.482 9.988c2.506.915 3.285 4.49 1.821 6.721s-4.472 3.073-7.094 2.583a14.715 14.715 0 01-6.894-3.864c-1.984-1.783-3.763-3.8-5.883-5.421a11.449 11.449 0 00-7.356-2.7c-3.607.195-6.7 2.914-8.309 6.149s-1.979 6.929-2.18 10.536-.265 7.273-1.333 10.723c-.126.4-.317.859-.722.983-.585.18-1.083-.442-1.374-.981a53.014 53.014 0 01-6.057-19.709c-.408-4-.3-7.782 1.9-11.145s7.75-5.84 10.474-3.717" fill="#263238"/><path d="M216.2 164.3l-1.845 40.461c-.314 6.881.631 17.052 11.532 17.052 9.458-.713 12.254-9.552 12.541-15.973.135-3.046.255-5.586.289-5.9 0 0 10.345-.5 11.553-10.66.584-4.91.964-15.121 1.2-24.363a19.059 19.059 0 00-17.042-19.429l-.982-.1c-10.651-.508-17.033 8.254-17.246 18.912z" fill="#ffbe9d"/><path d="M238.75 199.8a23.791 23.791 0 01-12.863-5.181s2.356 7.656 12.606 7.82z" fill="#eb996e"/><path d="M247.781 171.421a1.46 1.46 0 01-1.557 1.316 1.4 1.4 0 01-1.358-1.469 1.461 1.461 0 011.555-1.318 1.4 1.4 0 011.36 1.471zM248.753 169.682c-.2.17-1.214-.761-2.779-.924-1.559-.184-2.792.5-2.941.289-.075-.094.145-.417.683-.727a4.009 4.009 0 012.381-.465 3.852 3.852 0 012.186.972c.441.42.568.78.47.855zM232.39 170.32a1.461 1.461 0 01-1.557 1.316 1.4 1.4 0 01-1.358-1.469 1.462 1.462 0 011.556-1.318 1.4 1.4 0 011.359 1.471zM233.354 168.338c-.2.17-1.217-.761-2.779-.924-1.56-.184-2.793.5-2.943.288-.074-.093.144-.416.685-.726a4 4 0 012.38-.465 3.845 3.845 0 012.186.972c.44.417.568.78.471.855zM237.793 180.537a10.409 10.409 0 012.589-.188c.4 0 .79-.038.886-.3a2.044 2.044 0 00-.141-1.212l-.857-3.166c-1.179-4.5-1.987-8.188-1.805-8.234s1.285 3.567 2.464 8.07q.422 1.664.8 3.178a2.323 2.323 0 01.04 1.59 1.006 1.006 0 01-.718.513 2.68 2.68 0 01-.688.022 10.206 10.206 0 01-2.57-.273zM233.077 181.129c.256.012.079 1.709 1.4 3.069s3.151 1.364 3.139 1.6c.012.109-.438.287-1.2.226a4.249 4.249 0 01-2.63-1.242 3.7 3.7 0 01-1.068-2.562c.01-.713.244-1.114.359-1.091zM234.409 162.254c-.2.408-1.739.041-3.6.067-1.858-.012-3.394.368-3.6-.039-.089-.194.211-.567.853-.915a6.253 6.253 0 015.481-.021c.651.343.957.713.866.908zM248.66 165.1c-.313.326-1.351-.157-2.644-.313-1.288-.2-2.417-.016-2.63-.414-.092-.192.119-.529.634-.814a3.854 3.854 0 014.249.585c.419.41.531.792.391.956z" fill="#263238"/><path d="M216.229 171.925c-.166-.094-6.771-2.812-7.289 4.167s6.6 6.06 6.623 5.861.666-10.028.666-10.028z" fill="#ffbe9d"/><path d="M213.627 179.151c-.029-.025-.128.076-.34.155a1.226 1.226 0 01-.911-.049 3.017 3.017 0 01-1.191-2.8 4.023 4.023 0 01.469-1.715 1.407 1.407 0 01.984-.865.62.62 0 01.693.386c.079.2.024.338.06.353.019.019.159-.106.124-.4a.774.774 0 00-.242-.458.922.922 0 00-.659-.228 1.718 1.718 0 00-1.351.988 4.139 4.139 0 00-.566 1.914c-.059 1.41.563 2.779 1.55 3.146a1.308 1.308 0 001.126-.1c.227-.16.277-.313.254-.327z" fill="#eb996e"/><path d="M253.849 163.038a14.777 14.777 0 01-12.741-4.33c-2.251-2.362-3.84-5.581-6.84-6.866a8.308 8.308 0 00-6.411.192 16.05 16.05 0 00-5.26 3.893c1.416 5.38-.519 11.011-2.429 16.236a2.783 2.783 0 01-.98 1.518c-.891.545-2.07-.08-2.707-.907a8.633 8.633 0 01-1.4-4.736 28.8 28.8 0 011.268-11.276 19.6 19.6 0 016.4-9.262 18.558 18.558 0 0113.465-3.514 22.792 22.792 0 0112.644 6.1 13.353 13.353 0 013.748 5.376" fill="#263238"/><path d="M58.318 378.077a18.886 18.886 0 0111.72-1.424c2.126.351 4.343.987 5.79 2.584s1.721 4.408.059 5.78a5.55 5.55 0 01-3.65.927c-3.1-.037-6.536-.582-9.011 1.282-1.413 1.064-2.352 2.832-4.041 3.355a3.992 3.992 0 01-4.392-1.954 6.82 6.82 0 01-.5-5.035 7.683 7.683 0 014.025-5.515zM50.15 362.31c2.18 3.114 6.417 2.083 8.381.183s2.8-4.655 3.551-7.282c1.727-6 3.468-12.3 2.184-18.407a10.233 10.233 0 00-2.351-5 5.344 5.344 0 00-5.063-1.685c-2.137.565-3.464 2.657-4.424 4.647a43.887 43.887 0 00-4.336 18.831c-.01 3.033.347 6.214 2.058 8.718M44.164 366.778a11.329 11.329 0 001.763-10.425 20.094 20.094 0 00-6.175-8.957 33.239 33.239 0 00-11.057-6.524 11.787 11.787 0 00-4.972-.845 5.22 5.22 0 00-4.173 2.525c-1.164 2.219-.048 4.911 1.159 7.107a84.1 84.1 0 007.262 11.059c2.177 2.806 4.67 5.575 7.987 6.843s6.764 1.119 8.522-1.182" fill="#feab45"/><path d="M50 409.275a6.859 6.859 0 00.2-1.415l.376-3.861a55.649 55.649 0 01.868-5.663 43.749 43.749 0 012.058-6.683 24.641 24.641 0 013.414-6.048 12.753 12.753 0 014.314-3.588 12.086 12.086 0 013.634-1.131 6.844 6.844 0 001.409-.2 6.644 6.644 0 00-1.434-.022 11.007 11.007 0 00-3.789.986 12.722 12.722 0 00-4.551 3.618 24.06 24.06 0 00-3.538 6.17 40.9 40.9 0 00-2.044 6.793 48.119 48.119 0 00-.753 5.735 76.728 76.728 0 00-.191 3.884 6.559 6.559 0 00.027 1.425z" fill="#263238"/><path d="M50.269 406.3a2.847 2.847 0 00.038-.656c0-.493 0-1.115-.005-1.878 0-1.629 0-3.986.083-6.9.144-5.822.646-12.089 1.614-20.923.917-8.307 2.148-17.974 3.446-24.26.279-1.429.559-2.716.823-3.842s.467-2.1.675-2.89l.438-1.825a2.839 2.839 0 00.115-.647 2.791 2.791 0 00-.228.615l-.545 1.8c-.242.78-.489 1.747-.772 2.872s-.6 2.4-.909 3.832a213.136 213.136 0 00-3.624 22.511c-.97 8.853-1.407 16.913-1.446 22.75-.034 2.918.028 5.281.1 6.911l.115 1.876a2.717 2.717 0 00.082.654z" fill="#263238"/><path d="M50.308 390.758a12.633 12.633 0 00-.014-1.961c-.072-1.26-.246-3.082-.6-5.313a70.126 70.126 0 00-1.727-7.74 63.512 63.512 0 00-3.237-9.159 48.811 48.811 0 00-9.506-14.8 24.079 24.079 0 00-2.236-2.078c-.343-.29-.646-.58-.955-.809l-.868-.6a12.464 12.464 0 00-1.651-1.057 58.53 58.53 0 015.412 4.828 51.413 51.413 0 019.268 14.748 72.435 72.435 0 013.255 9.074 78.39 78.39 0 011.838 7.664c.405 2.208.64 4.012.781 5.26a12.686 12.686 0 00.24 1.943zM35.281 418.182l1.558 21.342h27.418l1.558-21.342zM32.633 409.77h36.453v8.412H32.633z" fill="#263238"/><path d="M32.633 438.707v2.332h35.85v-2.332zM36.025 445.143l-1.679-4.1h32.832l-1.959 4.1z" fill="#455a64"/><path d="M65.305 425.157a.866.866 0 01-.128.2l-.409.544c-.39.5-.925 1.182-1.6 2.044l-.071.09-.069-.1-3.924-5.427h.226l-3.864 5.471-.121.171-.135-.161-4.582-5.452h.264l-.252.317-4.1 5.136-.137.171-.126-.178-3.865-5.469.225.011-4.76 5.423-.085.1-.064-.108-1.491-2.5-.382-.667a1.069 1.069 0 01-.117-.238 1.141 1.141 0 01.16.212l.423.641c.38.6.906 1.424 1.564 2.459l-.148-.012 4.683-5.49.119-.138.106.149 3.9 5.444-.262-.007 4.087-5.144.252-.316.13-.164.134.16 4.569 5.462-.256.01 3.9-5.442.114-.16.112.16 3.841 5.486-.14-.005 1.662-1.992.445-.515a.9.9 0 01.172-.176z" fill="#e0e0e0"/><path d="M66.2 418.041c0 .094-6.87.171-15.343.171s-15.344-.077-15.344-.171 6.869-.171 15.344-.171 15.343.077 15.343.171z" fill="#455a64"/><path d="M67.581 441.269c0 .094-7.466.171-16.674.171s-16.676-.077-16.676-.171 7.464-.17 16.676-.17 16.674.076 16.674.17zM391.707 195.564l-19.046 79.664h5.326l18.763-79.664z" fill="#263238"/><path d="M384.393 248.033c-.344 1.46 8.626 44.883 8.626 44.883H388.7l-6.774-34.416z" fill="#263238"/><path fill="#feab45" d="M358.598 350.327h89.227v94.591h-89.227z"/><path fill="#263238" d="M447.824 364.15h4.381v4.381h-4.381zM447.824 378.06h4.381v4.381h-4.381zM447.824 391.97h4.381v4.381h-4.381zM447.824 405.88h4.381v4.381h-4.381z"/><path d="M452.366 393.25a6.63 6.63 0 011.347-.3 22.478 22.478 0 013.754-.355 10.124 10.124 0 015.422 1.428 6.269 6.269 0 013.012 6 7.543 7.543 0 01-1.138 3.431 9.006 9.006 0 01-2.307 2.44 11.8 11.8 0 01-5.218 2.061 17.151 17.151 0 01-3.771.128 5.6 5.6 0 01-1.368-.191 9.412 9.412 0 011.375-.012 20.228 20.228 0 003.7-.289 11.777 11.777 0 004.992-2.083 7.677 7.677 0 003.212-5.525 5.83 5.83 0 00-2.752-5.56 10 10 0 00-5.17-1.464 28.489 28.489 0 00-3.72.188 7.4 7.4 0 01-1.37.103z" fill="#263238"/><path d="M451.275 379.424a1.634 1.634 0 01.418-.254 8.77 8.77 0 011.3-.524 10.265 10.265 0 015.125-.286 4.66 4.66 0 011.633.65 2.84 2.84 0 011.154 1.557 4.5 4.5 0 01-1 3.989 4.43 4.43 0 01-1.847 1.36 2.882 2.882 0 01-2.416-.129 2.464 2.464 0 01-1.388-2.1 2.521 2.521 0 011.417-2.168 3.883 3.883 0 012.552-.268 5.26 5.26 0 012.226 1.061 6.016 6.016 0 012.225 3.975 5.62 5.62 0 01-1.142 3.962 8.079 8.079 0 01-2.743 2.316 13.173 13.173 0 01-4.972 1.3c-.6.049-1.074.064-1.392.067a1.68 1.68 0 01-.487-.025c0-.041.665-.089 1.857-.244a13.854 13.854 0 004.819-1.419 7.817 7.817 0 002.569-2.246 5.192 5.192 0 001.014-3.652 5.547 5.547 0 00-2.065-3.63 4.76 4.76 0 00-2.012-.954 3.386 3.386 0 00-2.209.222 2.015 2.015 0 00-1.139 1.7 1.96 1.96 0 001.111 1.652 2.376 2.376 0 002 .112 3.973 3.973 0 001.649-1.2 4.077 4.077 0 00.956-3.561 3.014 3.014 0 00-2.453-1.968 10.561 10.561 0 00-4.988.12c-1.156.313-1.747.63-1.772.585z" fill="#263238"/><path d="M451.32 365.847a2.549 2.549 0 01.973-.18 7.149 7.149 0 012.677.376 7.644 7.644 0 013.334 2.246 7.6 7.6 0 01.285 9.3 7.649 7.649 0 01-3.19 2.446 7.16 7.16 0 01-2.649.539 2.539 2.539 0 01-.982-.12 9.989 9.989 0 003.485-.757 7.565 7.565 0 002.95-2.393 7.288 7.288 0 00-.267-8.708 7.569 7.569 0 00-3.091-2.207 9.993 9.993 0 00-3.525-.542z" fill="#263238"/><path d="M385.091 300.071a8.916 8.916 0 01.751 1.765 33.89 33.89 0 011.184 5.373c.369 2.362.681 5.269.99 8.646s.6 7.229 1.138 11.452a50.06 50.06 0 00.523 3.22 14.376 14.376 0 00.964 3.221 11.711 11.711 0 002.188 2.7 17.208 17.208 0 0010.089 4.677 14.2 14.2 0 007.881-1.363 9.54 9.54 0 005.092-6.393 7.305 7.305 0 00-.3-4.252 7.5 7.5 0 00-2.771-3.348 8.364 8.364 0 00-4.219-1.406 6.686 6.686 0 00-4.273 1.257 4.7 4.7 0 00-1.447 1.708 3.519 3.519 0 00-.28 2.183 5.291 5.291 0 002.766 3.518 12.83 12.83 0 004.559 1.26 41.712 41.712 0 004.747.329 74.137 74.137 0 009.313-.525c6.088-.681 11.962-1.658 17.637-1.719 5.647-.094 11.134.727 15.7 2.966a18.389 18.389 0 015.845 4.365 13.474 13.474 0 013.034 6 16.182 16.182 0 01-1.734 11.253 19.016 19.016 0 01-5.931 6.331 22.221 22.221 0 01-4.9 2.5 15.2 15.2 0 01-1.837.554s.153-.066.457-.169.757-.262 1.343-.484a23.165 23.165 0 004.821-2.568 18.957 18.957 0 005.791-6.3 15.912 15.912 0 001.63-11.031 13.126 13.126 0 00-2.978-5.813 18.012 18.012 0 00-5.732-4.241c-4.492-2.181-9.906-2.981-15.506-2.875-5.628.074-11.479 1.056-17.588 1.747a74.53 74.53 0 01-9.377.536 42.158 42.158 0 01-4.806-.331 13.3 13.3 0 01-4.741-1.319 5.8 5.8 0 01-3.028-3.879 4.051 4.051 0 01.322-2.5 5.224 5.224 0 011.606-1.9 7.2 7.2 0 014.6-1.356 8.878 8.878 0 014.483 1.5 8.006 8.006 0 012.954 3.584 7.8 7.8 0 01.317 4.544 10.027 10.027 0 01-5.359 6.715 14.648 14.648 0 01-8.146 1.392 17.623 17.623 0 01-10.333-4.833 11.971 11.971 0 01-2.259-2.826 14.726 14.726 0 01-.981-3.322 50.055 50.055 0 01-.51-3.248c-.521-4.245-.77-8.1-1.063-11.475s-.563-6.282-.9-8.641a36.752 36.752 0 00-1.084-5.371 12.238 12.238 0 00-.472-1.344c-.117-.306-.17-.464-.17-.464z" fill="#263238"/><path d="M442.749 440.962s-.009-.144-.013-.417-.007-.686-.013-1.21l-.027-4.689-.059-17.718-.116-62.884.228.228-80.649.028h-.008l.26-.261-.038 86.918-.222-.222 58.448.114 16.385.058 4.328.026c.982.008 1.5.024 1.5.024s-.486.017-1.452.025l-4.286.026-16.335.058-58.589.114h-.222v-.223l-.038-86.918v-.26h.269l80.654.032h.228v.228l-.116 63.03-.059 17.666-.027 4.646-.013 1.184c-.003.284-.018.397-.018.397z" fill="#263238"/><path d="M420.033 364.735a.415.415 0 11-.415-.415.414.414 0 01.415.415zM422.312 364.735a.415.415 0 11-.415-.415.414.414 0 01.415.415zM424.591 364.735a.415.415 0 11-.415-.415.414.414 0 01.415.415zM426.87 364.735a.415.415 0 11-.415-.415.414.414 0 01.415.415zM429.149 364.735a.415.415 0 11-.415-.415.414.414 0 01.415.415zM431.428 364.735a.415.415 0 11-.415-.415.414.414 0 01.415.415zM433.707 364.735a.415.415 0 11-.415-.415.414.414 0 01.415.415z" fill="#263238"/><circle cx=".415" cy=".415" r=".415" transform="translate(431.826 365.851)" fill="#263238"/><circle cx=".415" cy=".415" r=".415" transform="translate(429.495 365.851)" fill="#263238"/><path d="M427.993 366.266a.415.415 0 11-.415-.415.415.415 0 01.415.415z" fill="#263238"/><circle cx=".415" cy=".415" r=".415" transform="translate(424.831 365.851)" fill="#263238"/><circle cx=".415" cy=".415" r=".415" transform="translate(422.5 365.851)" fill="#263238"/><path d="M421 366.266a.415.415 0 11-.415-.415.415.415 0 01.415.415zM420.033 368a.415.415 0 11-.415-.415.415.415 0 01.415.415zM422.312 368a.415.415 0 11-.415-.415.415.415 0 01.415.415zM424.591 368a.415.415 0 11-.415-.415.415.415 0 01.415.415zM426.87 368a.415.415 0 11-.415-.415.415.415 0 01.415.415zM429.149 368a.415.415 0 11-.415-.415.415.415 0 01.415.415zM431.428 368a.415.415 0 11-.415-.415.415.415 0 01.415.415zM433.707 368a.415.415 0 11-.415-.415.415.415 0 01.415.415zM432.656 369.531a.415.415 0 11-.415-.415.415.415 0 01.415.415zM430.325 369.531a.415.415 0 11-.415-.415.415.415 0 01.415.415zM427.993 369.531a.415.415 0 11-.415-.415.415.415 0 01.415.415zM425.661 369.531a.415.415 0 11-.415-.415.415.415 0 01.415.415zM423.329 369.531a.415.415 0 11-.414-.415.414.414 0 01.414.415zM421 369.531a.415.415 0 11-.415-.415.415.415 0 01.415.415zM420.033 371.264a.415.415 0 11-.415-.415.415.415 0 01.415.415zM422.312 371.264a.415.415 0 11-.415-.415.415.415 0 01.415.415zM424.591 371.264a.415.415 0 11-.415-.415.415.415 0 01.415.415zM426.87 371.264a.415.415 0 11-.415-.415.415.415 0 01.415.415zM429.149 371.264a.415.415 0 11-.415-.415.415.415 0 01.415.415zM431.428 371.264a.415.415 0 11-.415-.415.415.415 0 01.415.415zM433.707 371.264a.415.415 0 11-.415-.415.415.415 0 01.415.415z" fill="#263238"/><circle cx=".415" cy=".415" r=".415" transform="translate(431.826 372.381)" fill="#263238"/><circle cx=".415" cy=".415" r=".415" transform="translate(429.495 372.381)" fill="#263238"/><path d="M427.993 372.8a.415.415 0 11-.415-.415.414.414 0 01.415.415z" fill="#263238"/><circle cx=".415" cy=".415" r=".415" transform="translate(424.831 372.381)" fill="#263238"/><circle cx=".415" cy=".415" r=".415" transform="translate(422.5 372.381)" fill="#263238"/><path d="M421 372.8a.415.415 0 11-.415-.415.414.414 0 01.415.415z" fill="#263238"/><path d="M388.5 271.294a5.029 5.029 0 011.624.284 9.122 9.122 0 013.941 2.576 17.057 17.057 0 013.485 6.6 64.74 64.74 0 012.2 9.664 122 122 0 01.637 25.751 15.128 15.128 0 01-2.24 7.142 9.093 9.093 0 01-2.818 2.729 6.306 6.306 0 01-3.9.926 6.038 6.038 0 01-3.706-1.724 4.585 4.585 0 01-1.094-1.815 3.879 3.879 0 01-.029-2.152 4.6 4.6 0 012.791-3.145 3.309 3.309 0 012.211.006 4.016 4.016 0 011.762 1.33 5.449 5.449 0 01.971 4.147 11.375 11.375 0 01-1.441 3.934 15.472 15.472 0 01-5.7 5.741 15.284 15.284 0 01-14.807.207 17.418 17.418 0 01-5.4-4.654 22.628 22.628 0 01-3.278-5.869 38.338 38.338 0 01-2.19-11.8c-.2-3.671.006-7-.358-9.873a16.445 16.445 0 00-.93-3.906 11.011 11.011 0 00-1.672-2.919 8.3 8.3 0 00-3.711-2.745 11.182 11.182 0 00-1.591-.382 5.136 5.136 0 011.625.282 8.253 8.253 0 013.834 2.717 11.118 11.118 0 011.746 2.956 16.614 16.614 0 01.988 3.959c.4 2.913.214 6.244.437 9.891a38.164 38.164 0 002.225 11.669 22.243 22.243 0 003.236 5.741 16.96 16.96 0 005.265 4.514 14.807 14.807 0 0014.324-.225 14.982 14.982 0 005.5-5.555 10.886 10.886 0 001.377-3.75 4.933 4.933 0 00-.869-3.759 3.5 3.5 0 00-1.529-1.159 2.784 2.784 0 00-1.859 0 4.091 4.091 0 00-2.462 2.786 3.592 3.592 0 00.992 3.477 5.531 5.531 0 003.386 1.574 5.8 5.8 0 003.594-.852 8.6 8.6 0 002.664-2.574 14.678 14.678 0 002.173-6.911 123.647 123.647 0 00-.523-25.649 65.667 65.667 0 00-2.109-9.631 17.032 17.032 0 00-3.356-6.55 9.242 9.242 0 00-3.824-2.614 10.664 10.664 0 00-1.592-.39z" fill="#e0e0e0"/><path fill="#e0e0e0" d="M347.427 285.762h33.222v6.329h-33.222z"/><path fill="#263238" d="M97.524 351.198h43.331v93.272H97.524z"/><path d="M137.128 434.646s-.01-.141-.015-.4c0-.279-.009-.661-.015-1.158l-.031-4.463-.068-16.663-.118-57.533.247.248-36.248.013h-.006l.26-.261-.072 80.22-.188-.188 26.469.1 7.234.047 1.893.021c.429.006.658.019.658.019s-.2.013-.62.02l-1.859.02-7.192.048-26.583.1h-.188v-.19l-.072-80.22v-.26h.267l36.248.013h.248v.247l-.118 57.7-.068 16.607-.031 4.412-.015 1.129c-.007.252-.017.372-.017.372z" fill="#455a64"/><path d="M134.89 361.216c-.014-.014-.029-.349-.049-.973l-.065-2.7.114.115c-5.607.086-17.626.146-31.523.146.116-.116-.261.259.259-.261v3.676l-.259-.259c8.818.006 16.653.059 22.323.111l6.708.077 1.833.036a5.059 5.059 0 01.661.035 3.524 3.524 0 01-.592.035l-1.775.036-6.648.076c-5.657.053-13.585.106-22.51.112h-.259v-.259-3.676c.52-.52.144-.144.261-.26 13.9 0 25.916.06 31.523.146h.117v.112l-.065 2.77a7 7 0 01-.054.905zM106.539 363.857c0 .143-.651.26-1.454.26s-1.453-.117-1.453-.26.65-.261 1.453-.261 1.454.117 1.454.261zM134.048 368.669c0 .144-6.71.261-14.985.261s-14.987-.117-14.987-.261 6.709-.26 14.987-.26 14.985.117 14.985.26zM134.177 374.483c0 .144-6.594.26-14.727.26s-14.728-.116-14.728-.26 6.593-.261 14.728-.261 14.727.117 14.727.261z" fill="#455a64"/><circle cx="2.385" cy="2.385" r="2.385" transform="translate(116.677 385.681)" fill="#feab45"/><path d="M112.341 387.956a9.961 9.961 0 01-3.187.261 9.965 9.965 0 01-3.188-.261 10.018 10.018 0 013.188-.26 10.014 10.014 0 013.187.26zM131.7 387.342a9.069 9.069 0 01-3.034.26 9.072 9.072 0 01-3.035-.26 9.055 9.055 0 013.035-.261 9.051 9.051 0 013.034.261z" fill="#455a64"/><path d="M99.012 398.005a8.988 8.988 0 01-1.623-.3 14.1 14.1 0 01-4.29-1.986 18.326 18.326 0 01-5.172-5.393 31.143 31.143 0 01-3.772-9.162 37.4 37.4 0 01-1.2-11.949 24.533 24.533 0 014.549-12.934 20.5 20.5 0 015.433-5.161 18.62 18.62 0 013.488-1.733 19.02 19.02 0 013.859-.92c2.643-.368 5.345-.317 8.05-.476a19.984 19.984 0 007.915-1.824 8.866 8.866 0 004.912-6.037 8.427 8.427 0 00-8.419-10.3 5.973 5.973 0 00-3.337 1.237 3.618 3.618 0 00-1.4 3.017 4.837 4.837 0 004.46 4.309 7.329 7.329 0 005.718-2.569 13.728 13.728 0 002.766-5.428 47.154 47.154 0 001.154-5.609 92.44 92.44 0 00.529-17.307c-.1-2.026-.183-3.61-.239-4.716l-.057-1.227a2.5 2.5 0 010-.419 2.4 2.4 0 01.055.415l.109 1.224c.087 1.077.214 2.664.336 4.713a88.78 88.78 0 01-.367 17.369 47.148 47.148 0 01-1.131 5.667 14.117 14.117 0 01-2.832 5.608 7.762 7.762 0 01-6.07 2.736 5.3 5.3 0 01-4.908-4.739 4.1 4.1 0 011.565-3.422 6.466 6.466 0 013.614-1.355 8.93 8.93 0 018.959 10.907 8.705 8.705 0 01-1.835 3.776 10.306 10.306 0 01-3.348 2.613 20.425 20.425 0 01-8.119 1.877c-2.733.158-5.42.106-8.011.464a18.607 18.607 0 00-3.758.889 18.2 18.2 0 00-3.391 1.678 20.034 20.034 0 00-5.314 5.026 24.148 24.148 0 00-4.506 12.682 37.265 37.265 0 001.123 11.827 31.079 31.079 0 003.661 9.1 18.332 18.332 0 005.041 5.382 14.591 14.591 0 004.2 2.052c.516.151.915.249 1.186.3a2.551 2.551 0 01.417.098zM84.247 206.51h102.604v70.456H84.247z" fill="#263238"/><path fill="#263238" d="M127.617 267.36h13.97v26.578h-13.97z"/><path d="M94.46 292.916v9.566h52.94v142.453h4.872V302.482l221.1 1.091v141.362h4.776V303.307l34.12.274v-11.49z" fill="#263238"/><path d="M128.336 300.622l20.874 15.031-1.814 1.741-21.046-15.857zM397.813 302.024l-24.22 17.248 1.814 1.741 24.393-18.074zM171.443 289.395h54.716v4.026h-54.716z" fill="#263238"/></g></svg>