<svg height="60" width="120" xmlns="http://www.w3.org/2000/svg"><g fill="#f36" transform="matrix(.12698413 0 0 .12698485 9.230769 13.826427)"><path d="m240.1 0h-216.2c-13.2 0-23.9 10.7-23.9 23.9v216.1c0 13.3 10.7 24 23.9 24h216.1c13.2 0 23.9-10.7 23.9-23.9v-216.2c.1-13.2-10.6-23.9-23.8-23.9z"/><path d="m370.7 204.9h25.3v-110.2h-25.3zm92.3-65.1c-12.9-4.2-24.9-7.5-24.9-15.5v-.4c0-6.5 5.6-11.1 15.5-11.1 4.8 0 10.1 1.1 15.7 3 0 0 .1 0 .2.1.5.2 1 .4 1.4.5 4 1.3 14.8 3 23.9-11.2-11.8-7.6-26.8-12.4-40.6-12.4-21.9 0-39.3 12.7-39.3 33.6v.4c0 21.1 18.2 27.8 34.5 32.4 12.9 4 24.6 6.9 24.6 15.4v.4c0 7.3-6.3 11.9-17.1 11.9-7.2 0-15.1-1.9-23-5.6-2.3-1-14.1-5-24.1 9.4 13.7 10.7 31 16.3 46.5 16.3 23 0 40.9-11.5 40.9-34.7v-.3c0-19.9-18.1-27.2-34.2-32.2zm-161.2 35.9-29.7-81h-27.1l45.3 111.1h22.8l45.1-111.1h-26.5zm312.8-83.3c-33.8 0-58.9 26.1-58.9 57.8 0 31.5 24.8 57.2 58.5 57.2 34 0 59.1-26.1 59.1-57.6 0-31.7-24.9-57.4-58.7-57.4zm0 93.1c-19.6 0-33.6-16.1-33.6-35.7 0-19.4 12.9-35.3 33.2-35.3 19.8 0 33.8 16.1 33.8 35.7 0 19.5-13 35.3-33.4 35.3zm133.6-93.1c-17.1 0-27.4 9-34.5 19.4v-17.1h-25.3v110.3h25.3v-62.2c0-17.1 10.2-27.4 24.9-27.4 15 0 23.6 9.8 23.6 26.9v62.6h25.3v-70.2c0-25.6-14.4-42.3-39.3-42.3zm-234.3 112.5h25.3v-110.2h-25.3z"/></g><path d="m20.430769 24.378867c1.11746 0 2.044444-.876195 2.044444-2.019062 0-1.142856-.939682-2.019051-2.044444-2.019051-1.11746 0-2.044444.876195-2.044444 2.019051 0 1.142867.939682 2.019062 2.044444 2.019062zm-4.24127 10.806411c-.114285.507943-.177777 1.066676-.177777 1.511118 0 1.77779.965079 2.958747 3.009523 2.958747 1.701587 0 3.073016-1.003176 4.063492-2.641285l-.609524 2.425414h3.377778l1.930159-7.733374c.48254-1.955571 1.409524-2.971447 2.831746-2.971447 1.11746 0 1.803175.698414 1.803175 1.841281 0 .330162-.0254.698414-.152381 1.079366l-.990477 3.55558c-.152381.507933-.215873 1.028576-.215873 1.511119 0 1.688899.990477 2.920646 3.073016 2.920646 1.777778 0 3.187302-1.142856 3.974603-3.885732l-1.320634-.507943c-.660318 1.841281-1.231746 2.171442-1.688889 2.171442s-.698413-.304761-.698413-.901595c0-.266661.06349-.571423.152381-.939685l.965079-3.46669c.24127-.812694.330159-1.536508.330159-2.196832 0-2.590495-1.561905-3.936532-3.466667-3.936532-1.777777 0-3.580952 1.600009-4.482539 3.288908l.660317-3.022237h-5.155555l-.72381 2.666675h2.412698l-1.485714 5.942894c-1.168254 2.590495-3.301587 2.628585-3.568254 2.577795-.444444-.101591-.723809-.266672-.723809-.838105 0-.330152.06349-.800005.215873-1.384128l2.260317-8.965131h-5.726984l-.723809 2.666675h2.374603z" fill="#fff" stroke-width=".126984"/></svg>