<svg width="50" height="50" viewBox="0 0 50 50" fill="none" xmlns="http://www.w3.org/2000/svg">
<path d="M23.64 48.39C24.16 46.77 24.46 45.05 24.46 43.26C24.46 34.09 17.02 26.65 7.85004 26.65C5.42004 26.65 3.12004 27.18 1.04004 28.12V48.39H23.64Z" fill="#1FBEC8"/>
<path d="M41.39 41.51C43.2843 41.51 44.82 39.9743 44.82 38.08C44.82 36.1857 43.2843 34.65 41.39 34.65C39.4956 34.65 37.96 36.1857 37.96 38.08C37.96 39.9743 39.4956 41.51 41.39 41.51Z" fill="white"/>
<path d="M48.2101 48C47.9801 44.43 45.0201 41.6 41.3901 41.6C37.7601 41.6 34.8001 44.43 34.5701 48H48.2101Z" fill="#1FBEC8"/>
<path d="M25.21 41.51C27.1044 41.51 28.64 39.9743 28.64 38.08C28.64 36.1857 27.1044 34.65 25.21 34.65C23.3157 34.65 21.78 36.1857 21.78 38.08C21.78 39.9743 23.3157 41.51 25.21 41.51Z" fill="white"/>
<path d="M32.0299 48C31.7999 44.43 28.8399 41.6 25.2099 41.6C21.5799 41.6 18.6199 44.43 18.3899 48H32.0299Z" fill="#1FBEC8"/>
<path d="M9.02985 41.51C10.9242 41.51 12.4599 39.9743 12.4599 38.08C12.4599 36.1857 10.9242 34.65 9.02985 34.65C7.13552 34.65 5.59985 36.1857 5.59985 38.08C5.59985 39.9743 7.13552 41.51 9.02985 41.51Z" fill="white"/>
<path d="M15.85 48C15.62 44.43 12.66 41.6 9.02996 41.6C5.39996 41.6 2.43996 44.43 2.20996 48H15.85Z" fill="#1FBEC8"/>
<path d="M25.21 17.5C29.4902 17.5 32.96 14.0302 32.96 9.75C32.96 5.46979 29.4902 2 25.21 2C20.9298 2 17.46 5.46979 17.46 9.75C17.46 14.0302 20.9298 17.5 25.21 17.5Z" fill="#1FBEC8"/>
<path d="M44 41.33C44.95 40.56 45.58 39.4 45.58 38.08C45.58 35.77 43.7 33.9 41.4 33.9C39.1 33.9 37.21 35.78 37.21 38.08C37.21 39.4 37.83 40.56 38.79 41.33C36.05 42.34 34.03 44.89 33.83 47.96C33.82 48.17 33.89 48.37 34.03 48.52C34.17 48.67 34.37 48.76 34.58 48.76H48.22C48.43 48.76 48.63 48.67 48.77 48.52C48.91 48.37 48.98 48.17 48.97 47.96C48.76 44.89 46.74 42.34 44 41.33ZM41.39 35.4C42.87 35.4 44.07 36.6 44.07 38.08C44.07 39.56 42.87 40.76 41.39 40.76C39.91 40.76 38.7 39.56 38.7 38.08C38.7 36.6 39.91 35.4 41.39 35.4ZM35.43 47.25C35.99 44.45 38.47 42.35 41.39 42.35C44.32 42.35 46.8 44.44 47.36 47.25H35.43Z" fill="#1C2E5C"/>
<path d="M27.8199 41.33C28.7699 40.56 29.3999 39.4 29.3999 38.08C29.3999 35.77 27.5199 33.9 25.2199 33.9C22.9199 33.9 21.0399 35.78 21.0399 38.08C21.0399 39.4 21.6599 40.56 22.6199 41.33C19.8799 42.34 17.8599 44.89 17.6599 47.96C17.6499 48.17 17.7199 48.37 17.8599 48.52C17.9999 48.67 18.1999 48.76 18.4099 48.76H32.0399C32.2499 48.76 32.4499 48.67 32.5899 48.52C32.7299 48.37 32.7999 48.17 32.7899 47.96C32.5799 44.89 30.5599 42.34 27.8199 41.33ZM25.2099 35.4C26.6899 35.4 27.8899 36.6 27.8899 38.08C27.8899 39.56 26.6899 40.76 25.2099 40.76C23.7299 40.76 22.5299 39.56 22.5299 38.08C22.5299 36.6 23.7299 35.4 25.2099 35.4ZM19.2399 47.25C19.7999 44.45 22.2799 42.35 25.1999 42.35C28.1199 42.35 30.6099 44.44 31.1599 47.25H19.2399Z" fill="#1C2E5C"/>
<path d="M11.6399 41.33C12.5899 40.56 13.2199 39.4 13.2199 38.08C13.2199 35.77 11.3399 33.9 9.03994 33.9C6.73994 33.9 4.85994 35.78 4.85994 38.08C4.85994 39.4 5.47994 40.56 6.43994 41.33C3.69994 42.34 1.67994 44.89 1.47994 47.96C1.46994 48.17 1.53994 48.37 1.67994 48.52C1.79994 48.66 1.99994 48.75 2.20994 48.75H15.8499C16.0599 48.75 16.2599 48.66 16.3999 48.51C16.5399 48.36 16.6099 48.16 16.5999 47.95C16.3999 44.89 14.3799 42.34 11.6399 41.33ZM9.02994 35.4C10.5099 35.4 11.7099 36.6 11.7099 38.08C11.7099 39.56 10.5099 40.76 9.02994 40.76C7.54994 40.76 6.34994 39.56 6.34994 38.08C6.34994 36.6 7.54994 35.4 9.02994 35.4ZM3.05994 47.25C3.61994 44.45 6.09994 42.35 9.01994 42.35C11.9499 42.35 14.4299 44.44 14.9899 47.25H3.05994Z" fill="#1C2E5C"/>
<path d="M9.03003 33.29C9.44003 33.29 9.78003 32.95 9.78003 32.54V25.23H24.46V32.54C24.46 32.95 24.8 33.29 25.21 33.29C25.62 33.29 25.96 32.95 25.96 32.54V25.23H40.64V32.54C40.64 32.95 40.98 33.29 41.39 33.29C41.8 33.29 42.14 32.95 42.14 32.54V24.48C42.14 24.07 41.8 23.73 41.39 23.73H25.96V18.22C30.29 17.84 33.71 14.19 33.71 9.76001C33.71 5.07001 29.9 1.26001 25.21 1.26001C20.52 1.26001 16.71 5.07001 16.71 9.76001C16.71 14.19 20.12 17.84 24.46 18.22V23.73H9.03003C8.62003 23.73 8.28003 24.07 8.28003 24.48V32.54C8.28003 32.95 8.61003 33.29 9.03003 33.29ZM18.21 9.75001C18.21 5.89001 21.35 2.75001 25.21 2.75001C29.07 2.75001 32.21 5.89001 32.21 9.75001C32.21 13.61 29.07 16.75 25.21 16.75C21.35 16.75 18.21 13.61 18.21 9.75001Z" fill="#1C2E5C"/>
<path d="M22.4335 12.5074C22.7983 12.7838 23.0129 13.2261 23.0129 13.6841V13.7038C23.0129 13.7828 23.0472 13.8578 23.1073 13.9131C23.1674 13.9684 23.2489 14 23.3348 14H26.6695C26.7554 14 26.8369 13.9684 26.897 13.9131C26.9571 13.8578 26.9914 13.7828 26.9914 13.7038V13.6802C26.9914 13.2261 27.2189 12.7838 27.6137 12.4679C28.4979 11.7651 29 10.7502 29 9.68016C29 9.64462 29 9.60513 29 9.5696C28.9914 9.24975 28.9356 8.93386 28.8326 8.62586C28.7811 8.47581 28.6009 8.385 28.4335 8.42843C28.2618 8.47581 28.1674 8.64166 28.2189 8.79961C28.3004 9.05232 28.3476 9.32083 28.3562 9.58539C28.3562 9.61698 28.3562 9.64857 28.3562 9.68016C28.3562 10.5765 27.9313 11.4294 27.1931 12.0217C26.7339 12.385 26.4421 12.8746 26.3648 13.4077H25.3219V10.2962L26.2103 9.47878C26.3348 9.36427 26.3348 9.17473 26.2103 9.06022C26.0858 8.94571 25.8798 8.94571 25.7554 9.06022L25 9.75518L24.2403 9.06022C24.1159 8.94571 23.9099 8.94571 23.7854 9.06022C23.6609 9.17473 23.6609 9.36427 23.7854 9.47878L24.6781 10.2962V13.4077H23.6395C23.5622 12.8707 23.2833 12.3889 22.8498 12.0533C22.0815 11.461 21.6438 10.5962 21.6438 9.68016C21.6481 7.98223 23.1545 6.59625 25.0043 6.5923C25.0773 6.5923 25.1459 6.59625 25.2103 6.6002C26.0558 6.64758 26.8455 6.99112 27.4378 7.56367C27.5536 7.67818 27.7682 7.68608 27.8927 7.57552C28.0215 7.46496 28.0258 7.27542 27.9056 7.15696C27.2017 6.47384 26.2575 6.06318 25.2532 6.0079C25.1674 6.00395 25.0858 6 25.0043 6C22.794 6 21 7.65054 21 9.68016C21 10.7739 21.5236 11.8045 22.4335 12.5074Z" fill="#1C2E5C"/>
</svg>
