<svg width="82" height="82" viewBox="0 0 82 82" fill="none" xmlns="http://www.w3.org/2000/svg">
<g clip-path="url(#clip0)">
<path d="M9.81606 82H6.48481C6.3994 81.7745 6.3174 81.5524 6.24565 81.3269C5.51106 79.0514 4.21615 76.236 3.88132 73.9674C3.38248 70.6054 6.54631 70.4175 8.57581 68.962C11.7021 66.707 14.1621 65.4599 17.5514 63.4235C18.5593 62.8154 21.5899 61.295 21.9281 60.5946C22.6149 59.2006 20.7494 57.2394 20.254 56.1495C19.4852 54.4206 19.0752 52.9515 18.9693 51.25C16.154 50.8024 13.9981 49.1077 12.669 47.2012C10.5165 44.0408 9.02682 38.1983 10.8752 33.7532C11.029 33.4013 11.7431 32.7111 11.849 32.1713C12.054 31.1156 11.4902 29.7113 11.4356 28.5872C11.2306 22.8062 12.4093 17.8247 16.3077 16.0822C17.8896 9.79555 23.5271 7.70114 28.8571 4.5783C30.8422 3.4098 33.0391 2.65814 35.3146 1.82105C43.419 -1.17536 55.9103 -0.611614 62.6309 4.4963C65.4872 6.65905 70.0656 11.2306 71.7056 14.5379C76.0174 23.2675 75.7031 37.8601 72.6861 48.4825C72.2727 49.9209 71.6919 52.0085 70.8651 53.7202C70.2911 54.9126 68.511 57.3077 68.7296 58.3669C68.9483 59.4397 72.7921 62.3644 73.6223 63.1331C75.1051 64.575 77.9273 66.4644 78.146 68.2581C78.3851 70.1612 77.2986 72.8228 76.7451 74.6644C76.0037 77.1278 75.2555 79.5878 74.5106 81.9453H9.80923L9.81606 82ZM47.7547 69.9016C45.8926 68.88 43.1046 67.7798 40.6993 67.3185C37.7302 66.7582 38.0377 71.3775 38.1368 74.1314C38.2393 76.3283 39.3702 78.6277 39.8827 80.09C40.139 80.7631 40.1868 81.4909 40.754 81.6241C41.779 81.8565 45.1615 80.5103 46.1352 79.9875C48.1852 78.8669 49.7706 77.1039 51.5131 75.9251C51.5677 75.3443 51.5677 74.7635 51.619 74.1895C50.5906 73.6838 49.4152 73.308 47.8743 73.243C48.9471 72.7306 50.4368 72.7305 51.4106 72.1087L51.4652 71.4493C49.7706 71.3434 49.1111 70.5815 47.9768 69.9596L47.7547 69.9016ZM73.226 79.9329C73.8854 77.818 74.4526 75.7611 74.8147 73.9469C75.0163 72.9663 75.5493 70.8104 75.4229 69.9289C75.2213 68.3606 73.0859 67.199 71.9926 66.2184C69.9972 64.4246 68.7433 62.8871 66.6591 61.1993C65.8118 62.4806 63.9976 63.3005 63.304 64.3221C68.2479 61.968 69.1431 73.2909 67.2024 76.9262C67.5099 78.0537 68.5383 78.4671 68.9586 79.4409L68.6647 80.008H73.0688C73.1166 80.008 73.1747 80.008 73.2226 80.0559L73.226 79.9329ZM50.5564 79.8919C50.389 79.639 50.2147 79.4306 50.0439 79.1778L49.0155 79.844H50.5564V79.8919ZM60.024 79.8919C60.0513 79.1778 60.0855 78.5116 60.1231 77.8487C58.3156 77.9478 57.3077 76.2087 56.0401 76.0481C54.9331 75.8944 53.9901 77.2815 52.5551 76.7144C52.2271 77.0731 51.9265 77.49 51.5814 77.794C52.1076 78.409 52.5893 79.0753 53.0301 79.7894H55.8181C55.8659 79.229 56.2793 78.8156 56.8396 78.8156C57.4068 78.8156 57.8134 79.229 57.8134 79.7381H60.0684L60.024 79.8919ZM67.2536 79.8919C66.1808 78.2553 64.0181 76.8237 61.5136 77.9956L61.4077 79.844H67.2536V79.8919ZM38.1778 79.8919L37.8191 78.7165C37.0503 76.2531 36.5925 74.4115 36.4353 72.9765C33.3125 71.4869 30.0291 70.0006 27.3675 68.1044C26.855 67.7456 23.5784 63.4919 23.165 63.6456C17.2234 65.9553 11.6884 69.9972 6.71715 73.841C7.59181 75.744 8.35715 77.7394 9.07465 79.786H38.1334L38.1778 79.8919ZM66.4166 72.6725C66.3175 70.9231 65.8562 67.3391 64.7766 66.7275C62.5216 65.3915 58.4694 69.389 56.7816 69.9494C56.9353 70.4619 57.2428 70.8753 57.2941 71.5894C58.2678 71.3365 59.4978 71.4903 60.3622 71.9037C59.3406 72.0028 58.2131 72.0028 57.5469 72.4641C57.2941 73.1303 57.6016 74.104 57.4478 75.0744C59.8019 75.7475 62.5728 76.1096 65.5966 76.2087C66.1569 75.4331 66.3653 74.005 66.3175 72.5119L66.4166 72.6725ZM52.4766 71.4425C52.3228 72.7237 52.6303 73.185 52.8831 74.6644C57.1881 76.0003 56.4194 68.7194 52.4219 71.3878L52.4766 71.4425ZM29.9334 66.625C28.3959 68.1864 34.276 70.3218 36.1312 70.4345C36.1312 69.4403 36.695 68.5075 36.5925 67.8003C34.3751 67.4006 31.4606 67.6602 29.9471 66.6181L29.9334 66.625ZM48.9471 67.3596C48.9471 67.5065 48.7387 67.4586 48.7148 67.5782C50.6965 69.1191 52.1793 69.4403 54.8751 69.3207C56.0846 68.4255 57.1642 67.3971 58.4386 66.5635C55.5174 66.8163 51.8376 68.6374 48.9574 67.3459L48.9471 67.3596ZM60.6321 6.7923C55.1484 3.6968 45.7696 1.35639 39.8725 4.29472C35.1575 6.65905 28.7 10.5848 26.5509 15.5424C28.6009 20.3326 25.9837 24.7196 25.7787 29.5815C25.7172 32.1713 27.0087 34.4331 27.1146 37.245C26.4313 38.3999 24.2959 38.5434 22.8096 38.4614C22.3108 35.9706 21.4396 33.169 18.8634 32.8888C15.2281 32.4959 12.5596 35.5026 12.4025 38.6425C12.1975 42.3291 15.252 48.4278 19.5296 48.0212C21.197 47.8641 21.607 46.1728 23.4212 46.1728C24.395 48.1203 21.9008 48.7353 21.6343 50.119C21.5796 50.4778 21.8359 51.865 21.9896 52.5278C22.7857 55.7531 24.5316 59.9044 26.2434 62.3678C28.413 65.4428 32.6804 65.9587 37.2758 66.2662C38.0958 64.4725 41.1196 64.6262 43.1046 65.084C40.7437 64.1615 38.54 61.8553 36.6984 59.86C34.5971 57.5503 32.4959 55.0425 32.39 52.07C36.3362 57.5503 39.565 62.3166 46.7434 64.7253C52.1759 66.5191 58.5275 63.8575 62.6787 60.9362C64.4212 59.7096 65.4496 57.7587 66.6762 56.0196C71.2887 49.405 73.4412 39.9271 72.9834 30.7534C72.775 26.9575 72.775 23.165 71.4937 20.6571C70.1646 17.9887 65.7025 15.6312 63.0375 17.9887C62.525 15.3784 65.1866 13.7896 68.3162 14.7121C66.0612 11.7909 63.7516 8.36055 60.5741 6.56339L60.6321 6.7923ZM46.4051 50.8946C48.5064 56.17 55.7156 55.5515 61.8006 55.4149C61.5136 56.0777 60.926 56.9011 60.2119 57.1745C58.2644 57.9671 52.8797 58.5685 50.1737 57.1335C48.4449 56.2076 47.3584 54.1507 46.4086 52.9412C45.9405 52.3535 43.6923 50.8639 46.3676 50.8605L46.4051 50.8946ZM46.9655 47.9187C50.0166 49.5075 55.5755 49.6885 59.7165 49.5587C59.942 50.4744 59.942 51.5882 59.9488 52.6815C54.6496 52.9549 48.3766 51.6429 46.9826 47.9153H46.9655V47.9187ZM69.7751 45.92C68.1591 48.995 65.8631 52.4014 61.1002 52.5073C61.0216 51.537 60.9465 49.996 61.1002 49.4186C64.7356 49.0667 67.0008 47.2115 69.7888 45.9439L69.7751 45.92ZM67.5577 43.641C64.0727 45.896 60.1982 48.339 54.4924 47.7752C53.2897 46.716 52.8319 44.3551 54.0106 42.7937C54.6325 43.8631 54.2191 45.8175 55.9581 46.1045C59.1869 46.6716 62.9247 44.1296 65.2856 43.2345C66.7206 40.8018 65.1319 39.9032 63.8506 38.3418C61.1822 35.1609 57.5981 31.1668 57.6972 26.3493C58.7701 25.5806 58.8794 27.5281 59.0331 27.8834C60.4135 31.1668 63.8985 35.3181 66.461 38.1334C67.076 38.8543 68.101 39.4693 68.2035 39.9271C68.5178 41.2562 67.3356 42.845 67.4894 43.7162L67.5577 43.641ZM21.6377 41.3348C20.5649 40.7061 20.295 37.9523 19.0137 37.884C17.1858 37.7815 17.5172 41.4681 17.5241 43.6206C16.2599 42.4965 16.0378 38.9602 16.9637 37.163C15.9114 36.6506 15.4433 37.7268 14.8522 38.1368C15.6039 32.7043 22.8472 35.629 21.648 41.4168L21.6377 41.3348ZM16.1061 20.4795C13.7657 23.0625 14.2611 27.9073 14.5379 31.3718C18.7882 28.6897 24.4394 31.5768 24.3881 36.1381C26.4211 36.0834 25.1501 33.5961 24.7811 31.9868C23.575 26.7627 26.8037 21.0945 24.9211 16.3043C21.2858 16.5879 18.2962 18.0776 16.113 20.4521L16.1061 20.4795ZM47.2661 24.2822C48.3151 26.2024 48.6465 28.2045 50.1361 29.6464C50.8024 30.299 52.0973 31.0951 51.4584 32.8956C51.3046 33.3091 50.2113 34.2316 49.5758 34.4331C47.273 35.0994 41.8746 34.5356 43.6957 31.6656C45.6193 31.7169 48.1852 32.8922 49.6134 31.5119C48.5406 29.7181 46.5896 26.2844 47.3106 24.2344L47.2661 24.2822ZM68.4461 24.2378H68.6784C69.8059 26.5201 70.7284 28.9357 72.1087 30.9515C71.1862 33.1006 65.0943 35.0174 65.1968 31.1463C66.5259 30.5655 68.7809 31.0267 69.9631 30.2921C69.3036 28.3925 68.3231 26.855 68.4802 24.2412L68.4461 24.2378ZM44.7754 18.7131C39.9169 17.5856 37.4945 20.7357 36.0287 24.0191C34.7167 23.698 35.2395 21.9179 35.5675 21.0022C36.4387 18.6071 39.9408 15.4228 42.8074 15.8567C44.034 16.0515 45.7047 17.1756 44.7754 18.7062V18.7131ZM32.9469 5.4393C27.6169 6.94264 20.7836 10.8171 18.5969 15.6005C20.2881 15.3613 21.4669 14.5037 23.1411 14.4012C23.7766 14.3466 24.6034 14.6541 25.3311 14.4525C26.7798 14.0971 27.9961 10.8137 29.0963 9.63839C30.1589 8.45622 31.4367 7.9403 32.3114 6.86747C32.8786 6.55997 33.7054 6.61463 33.7464 5.73997C33.4936 5.48372 33.2339 5.27872 32.9503 5.38122V5.4393H32.9469Z" fill="black"/>
</g>
<defs>
<clipPath id="clip0">
<rect width="82" height="82" fill="white"/>
</clipPath>
</defs>
</svg>
