<svg width="24" height="24" viewBox="0 0 24 24" fill="none" xmlns="http://www.w3.org/2000/svg">
<g clip-path="url(#clip0)">
<path d="M14.0511 2.751L18.9861 5.601C19.8021 4.742 21.1591 4.708 22.0181 5.524C22.1661 5.664 22.2921 5.825 22.3951 6.001C22.9841 7.029 22.6271 8.34 21.5991 8.929C21.4251 9.029 21.2381 9.104 21.0411 9.152V14.851C22.1871 15.124 22.8951 16.274 22.6211 17.42C22.5731 17.624 22.4941 17.82 22.3891 18.001C21.7971 19.024 20.4881 19.375 19.4621 18.783C19.2661 18.67 19.0871 18.524 18.9361 18.354L14.0311 21.186C14.4031 22.31 13.7931 23.521 12.6701 23.892C12.4531 23.963 12.2281 24 12.0001 24C10.8191 24.001 9.8611 23.045 9.8601 21.864C9.8601 21.659 9.8891 21.454 9.9481 21.255L5.0121 18.408C4.1961 19.262 2.8411 19.295 1.9861 18.478C1.1321 17.662 1.1001 16.307 1.9161 15.452C2.1991 15.155 2.5621 14.946 2.9601 14.849L2.9611 9.15C1.8111 8.874 1.1031 7.717 1.3801 6.566C1.4271 6.368 1.5031 6.177 1.6041 6C2.1961 4.976 3.5061 4.626 4.5311 5.218C4.7081 5.319 4.8701 5.446 5.0111 5.595L9.9491 2.745C9.6131 1.612 10.2601 0.423001 11.3901 0.0880008C11.5871 0.0290008 11.7941 7.84623e-07 12.0001 7.84623e-07C13.1811 -0.000999215 14.1391 0.954001 14.1401 2.134C14.1411 2.343 14.1101 2.552 14.0511 2.751ZM13.5361 3.628C13.5171 3.649 13.4991 3.667 13.4781 3.686L19.9391 14.876C19.9651 14.867 19.9951 14.86 20.0211 14.853V9.146C18.8761 8.863 18.1791 7.704 18.4631 6.558C18.4691 6.534 18.4751 6.509 18.4821 6.486L13.5361 3.628V3.628ZM10.5211 3.687L10.4611 3.627L5.5151 6.479C5.8421 7.614 5.1881 8.797 4.0541 9.124C4.0281 9.132 4.0031 9.138 3.9781 9.145V14.853L4.0621 14.876L10.5231 3.686L10.5211 3.687V3.687ZM12.5971 4.194C12.2071 4.306 11.7941 4.306 11.4051 4.194L4.9451 15.383C5.2391 15.666 5.4471 16.028 5.5451 16.424H18.4561C18.5531 16.026 18.7631 15.663 19.0591 15.38L12.5971 4.194ZM13.5831 20.421L18.4961 17.583C18.4811 17.536 18.4691 17.489 18.4581 17.441H5.5421L5.5211 17.524L10.4601 20.376C10.8481 19.972 11.3941 19.723 12.0001 19.723C12.6271 19.723 13.1901 19.992 13.5831 20.421Z" fill="#1FBEC8"/>
</g>
<defs>
<clipPath id="clip0">
<rect width="24" height="24" fill="white"/>
</clipPath>
</defs>
</svg>
