<svg width="119" height="147" viewBox="0 0 119 147" fill="none" xmlns="http://www.w3.org/2000/svg">
<path d="M10.6123 61.6251H8.75293V59.3282C8.75293 59.176 8.70396 59.0299 8.61678 58.9222C8.52961 58.8145 8.41137 58.754 8.28809 58.754C8.1648 58.754 8.04657 58.8145 7.95939 58.9222C7.87222 59.0299 7.82324 59.176 7.82324 59.3282V61.6251H5.96387C5.84058 61.6251 5.72235 61.6856 5.63517 61.7933C5.548 61.901 5.49902 62.0471 5.49902 62.1993C5.49902 62.3516 5.548 62.4977 5.63517 62.6054C5.72235 62.7131 5.84058 62.7736 5.96387 62.7736H7.82324V65.0704C7.82324 65.2227 7.87222 65.3688 7.95939 65.4765C8.04657 65.5842 8.1648 65.6447 8.28809 65.6447C8.41137 65.6447 8.52961 65.5842 8.61678 65.4765C8.70396 65.3688 8.75293 65.2227 8.75293 65.0704V62.7736H10.6123C10.7356 62.7736 10.8538 62.7131 10.941 62.6054C11.0282 62.4977 11.0771 62.3516 11.0771 62.1993C11.0771 62.0471 11.0282 61.901 10.941 61.7933C10.8538 61.6856 10.7356 61.6251 10.6123 61.6251Z" fill="#1FBEC8"/>
<path d="M27.4258 13.7411H25.5664V11.4442C25.5664 11.2919 25.5174 11.1459 25.4303 11.0382C25.3431 10.9305 25.2248 10.87 25.1016 10.87C24.9783 10.87 24.86 10.9305 24.7729 11.0382C24.6857 11.1459 24.6367 11.2919 24.6367 11.4442V13.7411H22.7773C22.6541 13.7411 22.5358 13.8016 22.4486 13.9093C22.3615 14.017 22.3125 14.163 22.3125 14.3153C22.3125 14.4676 22.3615 14.6137 22.4486 14.7213C22.5358 14.829 22.6541 14.8895 22.7773 14.8895H24.6367V17.1864C24.6367 17.3387 24.6857 17.4847 24.7729 17.5924C24.86 17.7001 24.9783 17.7606 25.1016 17.7606C25.2248 17.7606 25.3431 17.7001 25.4303 17.5924C25.5174 17.4847 25.5664 17.3387 25.5664 17.1864V14.8895H27.4258C27.5491 14.8895 27.6673 14.829 27.7545 14.7213C27.8417 14.6137 27.8906 14.4676 27.8906 14.3153C27.8906 14.163 27.8417 14.017 27.7545 13.9093C27.6673 13.8016 27.5491 13.7411 27.4258 13.7411Z" fill="#1FBEC8"/>
<path d="M35.844 129.199H33.9846V126.902C33.9846 126.75 33.9356 126.604 33.8485 126.496C33.7613 126.389 33.6431 126.328 33.5198 126.328C33.3965 126.328 33.2783 126.389 33.1911 126.496C33.1039 126.604 33.0549 126.75 33.0549 126.902V129.199H31.1956C31.0723 129.199 30.954 129.26 30.8669 129.367C30.7797 129.475 30.7307 129.621 30.7307 129.773C30.7307 129.926 30.7797 130.072 30.8669 130.179C30.954 130.287 31.0723 130.348 31.1956 130.348H33.0549V132.645C33.0549 132.797 33.1039 132.943 33.1911 133.051C33.2783 133.158 33.3965 133.219 33.5198 133.219C33.6431 133.219 33.7613 133.158 33.8485 133.051C33.9356 132.943 33.9846 132.797 33.9846 132.645V130.348H35.844C35.9673 130.348 36.0855 130.287 36.1727 130.179C36.2599 130.072 36.3088 129.926 36.3088 129.773C36.3088 129.621 36.2599 129.475 36.1727 129.367C36.0855 129.26 35.9673 129.199 35.844 129.199Z" fill="#1FBEC8"/>
<path d="M86.1587 129.199H84.2993V126.902C84.2993 126.75 84.2503 126.604 84.1632 126.496C84.076 126.389 83.9578 126.328 83.8345 126.328C83.7112 126.328 83.593 126.389 83.5058 126.496C83.4186 126.604 83.3696 126.75 83.3696 126.902V129.199H81.5103C81.387 129.199 81.2687 129.26 81.1816 129.367C81.0944 129.475 81.0454 129.621 81.0454 129.773C81.0454 129.926 81.0944 130.072 81.1816 130.179C81.2687 130.287 81.387 130.348 81.5103 130.348H83.3696V132.645C83.3696 132.797 83.4186 132.943 83.5058 133.051C83.593 133.158 83.7112 133.219 83.8345 133.219C83.9578 133.219 84.076 133.158 84.1632 133.051C84.2503 132.943 84.2993 132.797 84.2993 132.645V130.348H86.1587C86.282 130.348 86.4002 130.287 86.4874 130.179C86.5746 130.072 86.6235 129.926 86.6235 129.773C86.6235 129.621 86.5746 129.475 86.4874 129.367C86.4002 129.26 86.282 129.199 86.1587 129.199Z" fill="#1FBEC8"/>
<path d="M112.413 50.1006H110.554V47.8037C110.554 47.6514 110.505 47.5054 110.418 47.3977C110.33 47.29 110.212 47.2295 110.089 47.2295C109.966 47.2295 109.847 47.29 109.76 47.3977C109.673 47.5054 109.624 47.6514 109.624 47.8037V50.1006H107.765C107.641 50.1006 107.523 50.1611 107.436 50.2688C107.349 50.3765 107.3 50.5225 107.3 50.6748C107.3 50.8271 107.349 50.9732 107.436 51.0808C107.523 51.1885 107.641 51.249 107.765 51.249H109.624V53.5459C109.624 53.6982 109.673 53.8442 109.76 53.9519C109.847 54.0596 109.966 54.1201 110.089 54.1201C110.212 54.1201 110.33 54.0596 110.418 53.9519C110.505 53.8442 110.554 53.6982 110.554 53.5459V51.249H112.413C112.536 51.249 112.655 51.1885 112.742 51.0808C112.829 50.9732 112.878 50.8271 112.878 50.6748C112.878 50.5225 112.829 50.3765 112.742 50.2688C112.655 50.1611 112.536 50.1006 112.413 50.1006Z" fill="#1FBEC8"/>
<path d="M52.3833 17.7606C51.8317 17.7606 51.2924 17.5585 50.8338 17.1799C50.3751 16.8013 50.0176 16.2633 49.8065 15.6337C49.5954 15.0042 49.5402 14.3114 49.6478 13.6431C49.7554 12.9748 50.0211 12.3609 50.4111 11.879C50.8012 11.3972 51.2982 11.0691 51.8392 10.9361C52.3802 10.8032 52.941 10.8714 53.4506 11.1322C53.9603 11.393 54.3959 11.8346 54.7023 12.4011C55.0088 12.9677 55.1724 13.6338 55.1724 14.3152C55.1724 15.229 54.8785 16.1053 54.3555 16.7515C53.8324 17.3976 53.123 17.7606 52.3833 17.7606V17.7606ZM52.3833 12.0184C52.0156 12.0184 51.6561 12.1531 51.3503 12.4055C51.0445 12.6579 50.8062 13.0166 50.6655 13.4363C50.5247 13.856 50.4879 14.3178 50.5597 14.7633C50.6314 15.2089 50.8085 15.6182 51.0685 15.9394C51.3286 16.2606 51.6599 16.4794 52.0206 16.568C52.3812 16.6566 52.7551 16.6111 53.0949 16.4373C53.4346 16.2634 53.725 15.969 53.9293 15.5913C54.1336 15.2136 54.2427 14.7695 54.2427 14.3152C54.2427 13.7061 54.0468 13.1219 53.6981 12.6911C53.3494 12.2604 52.8764 12.0184 52.3833 12.0184Z" fill="#1FBEC8"/>
<path d="M60.6621 133.219C60.1105 133.219 59.5712 133.017 59.1126 132.638C58.6539 132.26 58.2965 131.721 58.0854 131.092C57.8743 130.462 57.819 129.77 57.9266 129.101C58.0343 128.433 58.2999 127.819 58.6899 127.337C59.08 126.855 59.577 126.527 60.118 126.394C60.659 126.261 61.2198 126.33 61.7294 126.59C62.2391 126.851 62.6747 127.293 62.9811 127.859C63.2876 128.426 63.4512 129.092 63.4512 129.773C63.4512 130.687 63.1573 131.564 62.6343 132.21C62.1112 132.856 61.4018 133.219 60.6621 133.219ZM60.6621 127.477C60.2944 127.477 59.9349 127.611 59.6291 127.864C59.3233 128.116 59.085 128.475 58.9443 128.894C58.8035 129.314 58.7667 129.776 58.8385 130.222C58.9102 130.667 59.0873 131.076 59.3473 131.398C59.6074 131.719 59.9387 131.938 60.2994 132.026C60.66 132.115 61.0339 132.069 61.3737 131.895C61.7134 131.722 62.0038 131.427 62.2081 131.05C62.4124 130.672 62.5215 130.228 62.5215 129.773C62.5215 129.164 62.3256 128.58 61.9769 128.149C61.6282 127.719 61.1552 127.477 60.6621 127.477Z" fill="#1FBEC8"/>
<path d="M106.914 32.1563C106.362 32.1563 105.823 31.9542 105.365 31.5756C104.906 31.197 104.548 30.659 104.337 30.0294C104.126 29.3999 104.071 28.7071 104.179 28.0388C104.286 27.3705 104.552 26.7566 104.942 26.2747C105.332 25.7929 105.829 25.4648 106.37 25.3318C106.911 25.1989 107.472 25.2671 107.981 25.5279C108.491 25.7887 108.927 26.2302 109.233 26.7968C109.54 27.3634 109.703 28.0295 109.703 28.7109C109.703 29.6247 109.409 30.501 108.886 31.1471C108.363 31.7933 107.654 32.1563 106.914 32.1563V32.1563ZM106.914 26.4141C106.546 26.4141 106.187 26.5488 105.881 26.8012C105.575 27.0535 105.337 27.4123 105.196 27.832C105.055 28.2517 105.019 28.7135 105.09 29.159C105.162 29.6046 105.339 30.0139 105.599 30.3351C105.859 30.6563 106.191 30.8751 106.551 30.9637C106.912 31.0523 107.286 31.0068 107.626 30.833C107.965 30.6591 108.256 30.3647 108.46 29.987C108.664 29.6093 108.773 29.1652 108.773 28.7109C108.773 28.1018 108.578 27.5176 108.229 27.0868C107.88 26.6561 107.407 26.4141 106.914 26.4141Z" fill="#1FBEC8"/>
<path d="M45.1177 27.4534H20.918C18.8642 27.4534 17.1992 29.5101 17.1992 32.0472V53.7526C17.1992 56.2897 18.8642 58.3464 20.918 58.3464H45.1177C47.1715 58.3464 48.8365 56.2897 48.8365 53.7526V32.0472C48.8365 29.5101 47.1715 27.4534 45.1177 27.4534Z" fill="#1FBEC8"/>
<path d="M104.125 64.9786C104.119 58.5497 102.049 52.3862 98.3687 47.8402C94.6886 43.2942 89.6991 40.737 84.4947 40.7294H82.454C81.5111 40.8439 80.5614 40.8439 79.6185 40.7294H77.5964C72.392 40.737 67.4025 43.2942 63.7225 47.8402C60.0424 52.3862 57.9722 58.5497 57.9661 64.9786V72.3516H104.125V64.9786Z" fill="white"/>
<path d="M79.7208 38.4267H82.3936C85.6563 38.0038 88.6633 36.0503 90.7942 32.969C92.9251 29.8878 94.0176 25.9138 93.8461 21.8668C93.6747 17.8198 92.2526 14.0084 89.873 11.2186C87.4934 8.42891 84.3378 6.87366 81.0572 6.87366C77.7766 6.87366 74.621 8.42891 72.2414 11.2186C69.8618 14.0084 68.4397 17.8198 68.2682 21.8668C68.0968 25.9138 69.1892 29.8878 71.3202 32.969C73.4511 36.0503 76.458 38.0038 79.7208 38.4267V38.4267Z" fill="white"/>
<path d="M34.2172 60.6432H29.4944V72.3516H34.2172V60.6432Z" fill="#1FBEC8"/>
<path d="M34.217 60.6432H32.8225V72.3516H34.217V60.6432Z" fill="#1FBEC8"/>
<path d="M104.125 119.438H96.6875V140.109H104.125V119.438Z" fill="#1FBEC8"/>
<path d="M109.703 74.6944H11.6211C10.6348 74.6944 9.68894 75.1784 8.99154 76.0399C8.29414 76.9014 7.90234 78.0698 7.90234 79.2881V117.141H113.422V79.2881C113.422 78.0698 113.03 76.9014 112.333 76.0399C111.635 75.1784 110.689 74.6944 109.703 74.6944Z" fill="#1FBEC8"/>
<path d="M22.3125 119.438H16.7344V140.109H22.3125V119.438Z" fill="#1FBEC8"/>
<path d="M45.1177 27.4534H43.2583C44.2446 27.4534 45.1905 27.9374 45.8879 28.7989C46.5853 29.6604 46.9771 30.8288 46.9771 32.0472V53.7526C46.9771 54.971 46.5853 56.1394 45.8879 57.0009C45.1905 57.8624 44.2446 58.3464 43.2583 58.3464H45.1177C46.1039 58.3464 47.0498 57.8624 47.7472 57.0009C48.4446 56.1394 48.8364 54.971 48.8364 53.7526V32.0472C48.8364 30.8288 48.4446 29.6604 47.7472 28.7989C47.0498 27.9374 46.1039 27.4534 45.1177 27.4534Z" fill="#1FBEC8"/>
<path d="M80.1158 40.7695L79.6138 40.7236H77.7544C78.5392 40.818 79.329 40.8333 80.1158 40.7695V40.7695Z" fill="#1FBEC8"/>
<path d="M84.4945 40.7236H82.677C87.875 40.7448 92.8544 43.3089 96.5256 47.8546C100.197 52.4004 102.261 58.5575 102.266 64.9786V72.3515H104.125V64.9786C104.12 58.5486 102.05 52.3837 98.3701 47.8364C94.6899 43.2892 89.6998 40.7312 84.4945 40.7236V40.7236Z" fill="white"/>
<path d="M81.0454 6.89063C80.734 6.89063 80.4225 6.89062 80.1157 6.93656C83.3071 7.21891 86.297 8.96776 88.4963 11.8384C90.6955 14.709 91.9444 18.4932 91.9969 22.445C92.0494 26.3968 90.9017 30.2296 88.7799 33.1878C86.6581 36.1461 83.7162 38.0152 80.5341 38.4267H82.3935C85.6477 37.9916 88.6434 36.0331 90.7649 32.9539C92.8864 29.8746 93.9724 25.9085 93.7998 21.8707C93.6272 17.8329 92.2091 14.0301 89.8369 11.2439C87.4647 8.4578 84.3187 6.89997 81.0454 6.89063V6.89063Z" fill="white"/>
<path d="M104.125 119.438H102.266V140.109H104.125V119.438Z" fill="#1FBEC8"/>
<path d="M109.703 74.6944H107.844C108.83 74.6944 109.776 75.1784 110.473 76.0399C111.171 76.9014 111.562 78.0698 111.562 79.2881V117.141H113.422V79.2881C113.422 78.0698 113.03 76.9014 112.333 76.0399C111.635 75.1784 110.689 74.6944 109.703 74.6944Z" fill="#1FBEC8"/>
<path d="M22.3125 119.438H20.4531V140.109H22.3125V119.438Z" fill="#1FBEC8"/>
<path d="M109.703 72.1104H106.217V64.9786C106.21 58.7252 104.438 52.6705 101.206 47.8575C97.9743 43.0444 93.4847 39.7743 88.5109 38.6105C91.3403 36.5816 93.5493 33.4572 94.7959 29.7208C96.0425 25.9844 96.2572 21.8446 95.4068 17.9422C94.5564 14.0399 92.6882 10.5927 90.0916 8.13444C87.495 5.67615 84.3147 4.34387 81.0432 4.34387C77.7717 4.34387 74.5914 5.67615 71.9948 8.13444C69.3982 10.5927 67.53 14.0399 66.6796 17.9422C65.8291 21.8446 66.0438 25.9844 67.2905 29.7208C68.5371 33.4572 70.7461 36.5816 73.5755 38.6105C68.6017 39.7743 64.1121 43.0444 60.8802 47.8575C57.6483 52.6705 55.8763 58.7252 55.8696 64.9786V72.1161H36.3089V60.9304H45.141C46.6817 60.9288 48.1589 60.1721 49.2483 58.8264C50.3377 57.4806 50.9503 55.6558 50.9515 53.7526V32.0472C50.9503 30.144 50.3377 28.3192 49.2483 26.9734C48.1589 25.6277 46.6817 24.8709 45.141 24.8694H18.5938C17.0531 24.8709 15.5759 25.6277 14.4864 26.9734C13.397 28.3192 12.7844 30.144 12.7832 32.0472V53.7526C12.7844 55.6558 13.397 57.4806 14.4864 58.8264C15.5759 60.1721 17.0531 60.9288 18.5938 60.9304H27.4258V72.1161H9.29688C7.7562 72.1177 6.27898 72.8744 5.18956 74.2201C4.10014 75.5659 3.48756 77.3907 3.48633 79.2939V118.289C3.48633 118.67 3.60876 119.035 3.8267 119.304C4.04464 119.573 4.34023 119.725 4.64844 119.725H12.7832V141.258C12.7832 141.639 12.9056 142.004 13.1236 142.273C13.3415 142.542 13.6371 142.693 13.9453 142.693H23.2422C23.5504 142.693 23.846 142.542 24.0639 142.273C24.2819 142.004 24.4043 141.639 24.4043 141.258V119.725H94.5957V141.258C94.5957 141.639 94.7181 142.004 94.9361 142.273C95.154 142.542 95.4496 142.693 95.7578 142.693H105.055C105.363 142.693 105.658 142.542 105.876 142.273C106.094 142.004 106.217 141.639 106.217 141.258V119.725H114.352C114.66 119.725 114.955 119.573 115.173 119.304C115.391 119.035 115.514 118.67 115.514 118.289V79.2881C115.512 77.385 114.9 75.5602 113.81 74.2144C112.721 72.8686 111.244 72.1119 109.703 72.1104V72.1104ZM68.4761 22.7276C68.4802 19.7331 69.1862 16.8041 70.5088 14.2946C71.8314 11.785 73.714 9.80233 75.9292 8.58605C78.1443 7.36978 80.5972 6.97197 82.9915 7.44071C85.3857 7.90944 87.6189 9.22466 89.421 11.2274C91.2232 13.2302 92.5173 15.8348 93.1469 18.7266C93.7766 21.6183 93.7148 24.6734 92.9691 27.5227C92.2234 30.372 90.8257 32.8936 88.9448 34.7828C87.064 36.6719 84.7805 37.8478 82.3703 38.1683H79.7207C76.6317 37.7601 73.7742 35.9547 71.6982 33.0998C69.6222 30.2448 68.4746 26.5422 68.4761 22.7046V22.7276ZM58.1938 65.0016C58.1999 58.6487 60.2456 52.5583 63.8821 48.0662C67.5186 43.574 72.449 41.047 77.5917 41.0394H79.6138C80.0786 41.0968 80.5435 41.1256 81.0455 41.1256C81.5475 41.1256 82.0031 41.0968 82.4772 41.0394H84.4993C89.6421 41.047 94.5724 43.574 98.2089 48.0662C101.845 52.5583 103.891 58.6487 103.897 65.0016V72.0645H58.1938V65.0016ZM18.5938 58.0593C17.6695 58.0577 16.7834 57.6035 16.1299 56.7962C15.4764 55.9889 15.1087 54.8944 15.1074 53.7526V32.0472C15.1087 30.9054 15.4764 29.8109 16.1299 29.0036C16.7834 28.1963 17.6695 27.742 18.5938 27.7405H45.1177C46.042 27.742 46.928 28.1963 47.5816 29.0036C48.2351 29.8109 48.6028 30.9054 48.6041 32.0472V53.7526C48.6028 54.8944 48.2351 55.9889 47.5816 56.7962C46.928 57.6035 46.042 58.0577 45.1177 58.0593H18.5938ZM33.9847 60.9304V72.0645H29.75V60.9304H33.9847ZM22.0801 139.822H15.1074V119.725H22.0801V139.822ZM103.893 139.822H96.9199V119.725H103.893V139.822ZM113.189 116.854H5.81055V79.2881C5.81178 78.1464 6.17948 77.0519 6.83303 76.2446C7.48657 75.4372 8.37262 74.983 9.29688 74.9815H109.703C110.627 74.983 111.513 75.4372 112.167 76.2446C112.821 77.0519 113.188 78.1464 113.189 79.2881V116.854Z" fill="#1FBEC8"/>
</svg>
