<svg width="120" height="626" viewBox="0 0 1871 626" fill="none" xmlns="http://www.w3.org/2000/svg">
<path fill-rule="evenodd" clip-rule="evenodd" d="M358.8 168.4L358.2 0.299805H264.4L265 168.4L311.9 232.8L358.8 168.4ZM265 456.5V625.2H358.8V456.5L311.9 392.1L265 456.5Z" fill="white"/>
<path fill-rule="evenodd" clip-rule="evenodd" d="M358.8 456.5L457.6 592.8L533.2 537.8L434.4 401.5L358.8 377.1V456.5ZM265 168.4L165.6 32.0996L90 87.0996L188.8 223.3L265 247.7V168.4Z" fill="#00F2E6"/>
<path fill-rule="evenodd" clip-rule="evenodd" d="M188.8 223.4L28.8 171.5L0 260.2L160 312.7L235.6 287.7L188.8 223.4ZM387.5 337.1L434.4 401.5L594.4 453.4L623.2 364.7L463.2 312.8L387.5 337.1Z" fill="#00B9F1"/>
<path fill-rule="evenodd" clip-rule="evenodd" d="M463.1 312.8L623.1 260.3L594.3 171.6L434.3 223.5L387.4 287.9L463.1 312.8ZM160 312.8L0 364.7L28.8 453.4L188.8 401.5L235.7 337.1L160 312.8Z" fill="#D63AFF"/>
<path fill-rule="evenodd" clip-rule="evenodd" d="M188.8 401.5L90 537.8L165.6 592.8L265 456.5V377.1L188.8 401.5ZM434.4 223.4L533.2 87.0996L457.6 32.0996L358.8 168.3V247.7L434.4 223.4Z" fill="#FB015B"/>
<path fill-rule="evenodd" clip-rule="evenodd" d="M973.1 159.6V378.3C973.1 426.4 933.7 465.8 885.6 465.8V422C910 422 929.4 402.6 929.4 378.2V159.6H973.1ZM1771.9 203.4H1870.6V159.7H1630V203.4H1728.1V465.9H1771.9V203.4ZM1498.1 159.6V378.3C1498.1 402.7 1478.7 422.1 1454.3 422.1C1429.9 422.1 1410.5 402.7 1410.5 378.3V247.1C1410.5 199 1371.1 159.6 1323 159.6C1274.9 159.6 1235.5 199 1235.5 247.1V378.4C1235.5 402.8 1216.1 422.2 1191.7 422.2C1167.3 422.2 1147.9 402.8 1147.9 378.4V159.6H1104.1V378.3C1104.1 426.4 1143.5 465.8 1191.6 465.8C1239.7 465.8 1279.1 426.4 1279.1 378.3V247.1C1279.1 222.7 1298.5 203.3 1322.9 203.3C1347.3 203.3 1366.7 222.7 1366.7 247.1V378.4C1366.7 426.5 1406.1 465.9 1454.2 465.9C1502.3 465.9 1541.7 426.5 1541.7 378.4V159.6H1498.1Z" fill="#1C2E5C"/>
</svg>
