<svg xmlns="http://www.w3.org/2000/svg" xmlns:xlink="http://www.w3.org/1999/xlink" width="907" height="342" fill="none" xmlns:v="https://vecta.io/nano"><style><![CDATA[.B{fill:#04666c}.C{fill:#1c2e5c}.D{fill:#ceebf0}.E{stroke:#1c2e5c}.F{fill:#fff}.G{fill:#a0dae1}.H{fill:#fdbc5a}.I{fill:#1fbec8}.J{fill:#15b2bc}.K{fill:#00c2cb}.L{fill:#feca7a}.M{fill:#73ccd6}]]></style><path d="M553.108 253.864l18.756-10.9 19.445 11.227-18.756 10.9-19.445-11.227z" class="M"/><path d="M572.553 265.091l18.756-10.9-.02 1.217-18.757 10.9.021-1.217z" fill="#09969f"/><path d="M572.553 265.091l-.021 1.217-19.445-11.227.02-1.217 19.446 11.227z" class="D"/><path d="M571.872 231.169l15.181-8.354-.016 31.84-14.579 8.473-.586-31.959z" class="B"/><g class="G"><path d="M580.752 255.523l.002.693 4.814-2.78-.002-.692-4.814 2.779zm-.014-4.79l.002.693 4.814-2.78-.002-.693-4.814 2.78z"/><use xlink:href="#B"/><path d="M580.745 253.128l.002.693 4.814-2.78-.002-.692-4.814 2.779zm.004 1.197l.002.693 4.813-2.779-.002-.693-4.813 2.779z"/><use xlink:href="#B" x="0.01" y="-17.503"/><use xlink:href="#B" x="-0.004" y="-22.293"/><path d="M580.742 230.835l.002.692 4.814-2.779-.002-.693-4.814 2.78z"/><use xlink:href="#B" x="0.003" y="-19.898"/><path d="M580.749 233.23l.002.692 4.813-2.779-.002-.693-4.813 2.78z"/></g><g class="B"><path d="M572.474 231.169l-.016 31.959-15.115-8.727.016-31.84 15.115 8.608z"/><path d="M571.248 232.335l.624-.363-.013 3.388-.625.362.014-3.387z"/></g><g class="D"><use xlink:href="#C"/><use xlink:href="#D"/><use xlink:href="#D"/></g><g class="G"><path d="M559.748 226.614l-.002.463-.931-.538.002-.462.931.537z"/><use xlink:href="#E"/><use xlink:href="#F"/></g><g class="H"><path d="M569.971 234.075c.068-.04.068-.168-.001-.287s-.18-.182-.248-.142-.069.168 0 .286.18.183.249.143z"/><use xlink:href="#G"/><path d="M568.775 233.384c.069-.039.069-.168 0-.286s-.18-.182-.249-.142-.068.168 0 .286.181.182.249.142z"/><use xlink:href="#H"/></g><g class="B"><use xlink:href="#I"/><path d="M571.248 237.428l.624-.363-.013 3.387-.625.363.014-3.387z"/></g><g class="D"><use xlink:href="#C" y="5.093"/><use xlink:href="#J"/><use xlink:href="#J"/></g><path d="M559.748 231.707l-.002.462-.931-.537.002-.463.931.538zm1.351.78l-.002.462-.929-.536.002-.462.929.536zm8.929 5.155l-.002.463-.931-.538.002-.462.931.537z" class="G"/><path d="M569.971 239.167c.068-.039.068-.168-.001-.286s-.18-.182-.248-.142-.069.168 0 .286.18.182.249.142zm-.723-.762c.099.057.176.193.176.304s-.078.157-.177.101-.174-.192-.173-.303.078-.158.174-.102zm-.473.072c.069-.04.069-.168 0-.286s-.18-.183-.249-.143-.068.168 0 .287.181.182.249.142zm-.598-.345c.068-.04.068-.169-.001-.287s-.18-.182-.249-.142-.068.168.001.286.18.182.249.143z" class="H"/><path d="M558.411 230.45l-.08-.046-.011 2.522 12.542 7.24.01-2.522-12.461-7.194zm12.344 9.532l-12.327-7.117.01-2.277 12.326 7.117-.009 2.277zm.493 2.539l.624-.363-.013 3.387-.625.363.014-3.387z" class="B"/><g class="D"><use xlink:href="#C" y="10.186"/><use xlink:href="#J" y="5.093"/><use xlink:href="#J" y="5.093"/></g><g class="G"><use xlink:href="#F" x="-10.28" y="4.25"/><use xlink:href="#E" y="10.185"/><path d="M570.028 242.735l-.002.463-.931-.538.002-.463.931.538z"/></g><path d="M569.971 244.26c.068-.04.068-.168-.001-.286s-.18-.183-.248-.143-.069.168 0 .287.18.182.249.142zm-.723-.762c.099.057.176.193.176.304s-.078.157-.177.1-.174-.191-.173-.302.078-.158.174-.102zm-.473.072c.069-.04.069-.168 0-.287s-.18-.182-.249-.142-.068.168 0 .287.181.182.249.142zm-.598-.346c.068-.04.068-.168-.001-.286s-.18-.183-.249-.143-.068.169.001.287.18.182.249.142z" class="H"/><path d="M558.411 235.542l-.08-.046-.011 2.523 12.542 7.24.01-2.522-12.461-7.195zm12.344 9.533l-12.327-7.117.01-2.278 12.326 7.117-.009 2.278zm.493 2.538l.624-.363-.013 3.388-.625.363.014-3.388z" class="B"/><g class="D"><path d="M557.958 239.94l.624-.362 13.29 7.672-.624.363-13.29-7.673z"/><path d="M571.248 247.613l-.014 3.388-13.289-7.673.013-3.388 13.29 7.673z"/><path d="M571.248 247.613l-.014 3.388-13.289-7.673.013-3.388 13.29 7.673z"/></g><g class="G"><use xlink:href="#F" x="-10.28" y="9.343"/><use xlink:href="#E" y="15.278"/><use xlink:href="#F" y="15.278"/></g><g class="H"><path d="M569.971 249.353c.068-.04.068-.168-.001-.287s-.18-.182-.248-.142-.069.168 0 .287.18.182.249.142zm-.723-.762c.099.056.176.192.176.303s-.078.158-.177.101a.38.38 0 0 1-.173-.303c.001-.111.078-.157.174-.101zm-.473.072c.069-.04.069-.169 0-.287s-.18-.182-.249-.142-.068.168 0 .286.181.182.249.143z"/><use xlink:href="#H" y="15.278"/></g><path d="M558.411 240.635l-.08-.046-.011 2.522 12.542 7.241.01-2.523-12.461-7.194zm12.344 9.533l-12.327-7.117.01-2.278 12.326 7.117-.009 2.278zm.493 2.538l.624-.363-.013 3.388-.625.362.014-3.387z" class="B"/><g class="D"><use xlink:href="#C" y="20.371"/><use xlink:href="#D" y="20.371"/><use xlink:href="#D" y="20.371"/></g><g class="G"><path d="M559.748 246.985l-.002.463-.931-.538.002-.463.931.538z"/><use xlink:href="#E" y="20.371"/><use xlink:href="#F" y="20.371"/></g><g class="H"><path d="M569.971 254.446c.068-.04.068-.169-.001-.287s-.18-.182-.248-.142-.069.168 0 .286.18.183.249.143z"/><use xlink:href="#G" y="20.371"/><path d="M568.775 253.755c.069-.04.069-.168 0-.286s-.18-.182-.249-.143-.069.169 0 .287.181.182.249.142zm-.598-.345c.068-.04.068-.169-.001-.287s-.18-.182-.249-.142-.068.168.001.286.18.183.249.143z"/></g><g class="B"><use xlink:href="#I" y="20.371"/><path d="M570.452 256.61v2.105l-.01 1.948-.867-.506v-1.939l.01-2.115.867.507zm-9.89-5.72l.868.507-.01 2.114v1.939l-.877-.506.019-4.054zm2.212 1.287l.458.263-.01 2.104v1.949l-.458-.263-.419-.244.02-4.053.409.244zm3.196 1.841l.877.507-.01 2.114v1.939l-.877-.507v-1.939l.01-2.114zm2.212 1.277l.468.272v2.105l-.01 1.949-.468-.273-.399-.234v-1.939l.009-2.114.4.234zm-4.015-2.32l.868.507v2.105l-.01 1.949-.867-.507v-1.939l.009-2.115zm-5.417-3.117l.877.496-.01 2.115v1.939l-.877-.497.01-1.949v-2.104z"/></g><path d="M557.359 222.561l14.579-8.473 15.115 8.726-14.579 8.473-15.115-8.726z" class="G"/><path d="M582.414 222.138c.526.303.528.795.006 1.099l-9.232 5.365c-.522.304-1.372.304-1.898 0l-9.292-5.365c-.526-.303-.529-.796-.006-1.099l9.231-5.365c.523-.304 1.373-.304 1.899 0l9.292 5.365z" class="B"/><g clip-path="url(#A)"><path d="M591.675 265.41c6.597 0 11.944-5.348 11.944-11.945s-5.347-11.944-11.944-11.944-11.945 5.347-11.945 11.944a11.95 11.95 0 0 0 11.945 11.945z" class="I"/><g class="M"><path d="M598.225 243.475c-.289.017-.322.195-.236.797-.392-.094-.775.266-1.175.033-.023-.012-.07-.002-.092-.003-.386.069-.397.058-.314-.37.014-.081.051-.161.053-.231.003-.092.007-.197-.014-.291l-.046-.001c-.067.288-.296.537-.202.888-.001.035-.074.137-.109.136-.279.015-.504.136-.618.434-.024.023-.06.068-.083.068-.21.028-.365.139-.419.37-.012.046-.106.066-.154.1-.082.032-.142.088-.212.121l-.225.097-.224.121c.045.06.089.143.145.191.125.085.263.147.365.243.123.132.134.539.003.64-.083.055-.232-.008-.336-.034-.197-.029-.369-.104-.554-.11-.221-.007-.343.198-.257.398a.47.47 0 0 1-.025.43c-.111.205-.065.602.073.641a2.48 2.48 0 0 0 .553.156c.162.04.314-.013.378-.197.176-.424.463-.706.831-.938l.107-.067c-.078-.107-.122-.201-.178-.273a.44.44 0 0 1 .301.045c.172.075.333.115.445-.126.039-.126.143-.123.222-.016.033.059.089.119.098.2.072.305.289.416.494.562.091.061.204.146.236.251.032.083.016.233-.022.313-.036.057-.152.054-.246.086l-.14-.005c0 .012-.012.035-.012.046.067.061.145.167.227.147.21-.017.36-.337.359-.709.081.025.15.039.23.076.012-.011.025-.045.037-.056l-.441-.386c-.192-.169-.41-.28-.412-.594-.02-.094-.097-.235.055-.265.129-.02.291-.003.285.194.001.337.207.437.424.548.092.038.183.075.239.147.057.06.1.166.087.223-.076.195-.034.336.066.479a.78.78 0 0 1 .099.189c.043.083.064.176.085.258.071-.067.142-.112.214-.179.024-.022.048-.045.06-.068.108-.101.122-.182-.003-.279-.079-.06-.122-.155-.19-.226.191-.157.353-.141.526-.089.127.027.278.021.373-.046.035-.022-.016-.233-.012-.361-.008-.116-.039-.257.011-.348.051-.161.148-.297.233-.411.085-.102.205-.226.251-.213.126.05.215.181.293.3.068.048.099.177.169.179.08.014.187-.052.281-.084.001-.035-.01-.047-.009-.07l-.333-.138.002-.07.844-.241c-.051.138-.123.217-.196.319-.145.193-.148.275.022.431.102.084.227.158.305.277.055.083.074.234.047.338-.013.07-.155.135-.236.132a.99.99 0 0 1-.403-.14.68.68 0 0 0-.766-.024l-.601.272c-.047.033-.13.077-.131.123.063.211.102.434.201.634.021.059.217.112.253.078.132-.147.2-.075.301.021.123.155.239.17.371.035.036-.046.071-.056.083-.068.066.142.108.271.187.367.111.142.109.224-.034.347-.095.067-.193.203-.196.307.005.21-.065.219-.192.204-.173-.04-.369-.081-.533-.063-.455.055-.846-.073-1.233-.329-.079-.061-.217-.1-.266-.043-.071.044-.075.195-.067.3.028.233-.033.301-.227.202l-.741-.476c-.239-.159-.372-.361-.28-.683.041-.208-.072-.316-.27-.299-.116.008-.245.039-.348.001a1.29 1.29 0 0 0-1.109.14c-.201.133-.425.219-.676.071-.023-.012-.129.054-.178.111l-.35.419c-.073.126-.171.285-.164.413.015.28-.049.475-.262.608-.32.199-.505.53-.655.874-.049.08-.075.172-.124.24-.144.17-.151.379-.065.591.085.27.076.537-.014.824-.051.161-.093.381-.016.511.165.296.307.591.378.941a.28.28 0 0 0 .065.13l.574.611c.158.156.341.254.543.11.213-.145.458-.16.703-.199a.41.41 0 0 0 .282-.084c.213-.156.409-.092.59.064.113.109.199.332.412.211.012-.012.057.013.08.049.181.145.24.483.129.701-.137.286-.155.495.014.674.179.203.312.417.327.696.008.093.051.199.095.282.206.483.226.96-.043 1.404a1.07 1.07 0 0 0-.045 1.056 3.53 3.53 0 0 1 .278 1.148c.014.314.085.618.205.889.153.296.248.601.203.948-.032.254.036.326.257.298.303-.014.595-.063.887-.112.047-.01.106-.054.154-.088.453-.369.815-.799.847-1.461.018-.185.101-.252.242-.294.071-.044.155-.123.18-.192.064-.184.046-.359-.053-.548-.032-.082-.038-.257-.001-.325.133-.182.29-.351.468-.485.381-.279.599-.946.474-1.415-.096-.282-.122-.573-.182-.877-.113-.48.129-.774.451-1.043.238-.19.489-.392.648-.654.292-.421.539-.901.786-1.358.061-.114.066-.265.105-.392-.128-.004-.255-.008-.361.024-.233.027-.457.113-.678.141-.059.01-.138-.062-.182-.133l-.374-.697c-.021-.071-.065-.13-.109-.201l-.226-.588-.336-1.15-.136-.492-.206-.459c.082-.021.128.004.15.039l.619 1.019c.033.036.019.105.029.175.043.106.051.211.083.316.229.484.505.934.522 1.515-.005.151.086.224.251.148.13-.066.282-.096.412-.162.212-.086.413-.196.614-.329l.583-.412c.284-.177.455-.439.547-.773.026-.092-.051-.246-.094-.352-.044-.082-.147-.132-.215-.204-.134-.143-.261-.182-.429-.025-.143.124-.318.165-.463-.049-.01-.035-.069-.037-.091-.061-.033-.059-.1-.142-.087-.189.076-.206.011-.359-.112-.503-.057-.059-.124-.131-.156-.214-.021-.07-.018-.186.007-.243.037-.058.141-.054.222-.028.185.04.249.228.313.393.15.4.242.449.616.368.059-.022.151-.007.185.04.089.141.191.243.303.31-.646-3.163-2.543-5.872-5.152-7.586zm-17.758 11.07c.285.007.4.08.504.328.023.047.092.085.152.125.037.027.105.024.134.06.131.152.322.094.474.142.048-.074.077-.145.107-.215.267.183.427.487.379.71l-.122.65c-.005.076.057.163.087.249.011.031.052.089.033.118-.053.185-.009.327.194.409.36.147.567.408.769.686.164.212.337.388.642.403.327.019.477.121.594.381l.226.567c.111.272.201.551.357.803.112.196.179.381.244.594a5.07 5.07 0 0 0 .377.912c.025.053.122.1.182.141.033.033.049.072.068.1.047.116.107.219.17.339.064.137.186.29-.068.352.202.019.299.091.35.234-.003.01.012.031.032.042.222.117.231.231.086.32l.537.352c.149.116.308.155.498.136.164-.009.321.001.299-.179 0-.028.07-.055.099-.075l.12-.091c-.101.003-.156.033-.234.036-.063.007-.163.009-.194-.015l-.474-.386c-.011-.014-.017-.065.002-.099.027-.126.055-.251.104-.365.043-.122-.047-.168-.176-.192l-.398-.105c.043-.033.055-.063.081-.073.206-.177.214-.301.045-.563-.029-.042-.019-.141.03-.166.149-.119.07-.22-.04-.337-.032-.032-.055-.067-.096-.114.238-.035.469-.044.46-.294.004-.195-.029-.35-.324-.448l.51-.113c-.126-.117-.144-.218-.026-.288.042-.038.053-.091.068-.137.105-.237.027-.463-.103-.699-.077-.122-.037-.222.065-.308l.367-.313c.066-.074.09-.168.09-.27.027-.109-.004-.233.029-.336.044-.121.094-.25-.013-.368-.235-.261-.214-.514-.039-.77.029-.053.064-.115.077-.179.068-.153.032-.316-.119-.392-.311-.173-.64-.279-1.005-.234-.199.03-.385.018-.571-.056-.151-.059-.328-.137-.503-.006.026-.269-.098-.465-.297-.626-.06-.034-.167-.09-.23-.07-.39.116-.731-.06-1.08-.177-.03-.002-.05-.038-.059-.068-.101-.186-.167-.214-.358-.085-.182.126-.37.049-.552.032-.092-.016-.178-.041-.252-.06l.059.254c.003.007-.005.017.001.039-.039-.001-.095.009-.1-.006l-.101-.376c-.219.213-.466.36-.476.671-.266-.173-.267-.183-.538-.021-.09.064-.16.027-.238-.043-.215-.17-.239-.414-.295-.644-.049-.248-.093-.274-.337-.189-.038.006-.064.018-.083.021l-.202.013-.013-.189.044-.635c-.295.03-.361.096-.373.323.002.057-.006.159-.042.172-.11.045-.223.121-.34.124l.017.288c.127.017.244.072.368.141.101.053.22.101.34.108z"/></g><g opacity=".3" class="H"><path opacity=".3" d="M598.315 243.537c1.919 2.12 3.098 4.922 3.098 8.006a11.95 11.95 0 0 1-11.945 11.945c-2.457 0-4.741-.744-6.64-2.017 2.186 2.414 5.334 3.939 8.847 3.939 6.597 0 11.944-5.348 11.944-11.945a11.93 11.93 0 0 0-5.304-9.928z"/></g><path d="M579.813 252.272c.228-.306.248-.305.643-.142.062.027.147.018.202.003.101-.035.145.001.157.089.026.046.015.104.042.158.059.205.183.312.388.327l-.21-.493c-.028-.061-.047-.132-.046-.197.015-.244.127-.449.329-.613.184-.161.215-.323.121-.538a1.41 1.41 0 0 0-.079-.168c.053-.045.109-.073.153-.117.179-.173.388-.331.531-.514a1.15 1.15 0 0 1 .497-.379c.021.069.042.121.073.173.056-.004.133.006.17-.02l.529-.299c.093-.06.109-.152.023-.238-.028.017-.057.027-.084.052-.233.168-.338.153-.456-.086-.01-.046-.039-.098-.03-.138.046-.21-.094-.287-.302-.3-.009 0-.009-.015-.028-.053l.51-.026c.161-.008.33.006.51.004-.003-.062.005-.115.026-.158.181-.022.385-.07.516-.2.025-.025.247-.477.108-.459l.816-.107c.091-.012.192-.029.248-.102.041-.051.049-.12.056-.186.035-.367.047-.748.136-1.102l.202-.347c.084-.139.149-.196.314-.168.155.029.275-.03.41-.123.157-.114.33-.199.518-.27.25-.098.512-.153.769-.235.069-.021.159-.055.164-.082.027-.153.147-.144.288-.15l.035-.468c.043-.027.091-.081.147-.121.123-.094.28-.172.266-.316-.032-.145-.005-.255.264-.285l-.377-.25 1.153-.618c-.164-.11-.8-.117-1.061.006-.161.074-.18.073-.262-.002l.499-.289-.811-.348-.037-.003-.515-.038-.948.419c-3.58 1.773-6.144 5.289-6.583 9.439l-.008.078h.024z" class="M"/><g class="H"><path d="M602.823 249.214l.249.741c3.836 1.638 3.243 4.042-1.8 5.486-5.749 1.646-15.132 1.646-20.918 0s-5.817-4.49-.069-6.135c.074-.022.155-.039.23-.06a11.24 11.24 0 0 1 .25-.598c-.514.114-1.014.236-1.486.371-6.303 1.805-6.27 4.738.074 6.543s16.623 1.804 22.926-.001c6.08-1.74 6.241-4.533.544-6.347z"/><path d="M601.171 260.672l-.125.182c.738 2.795-1.426 3.528-5.547 1.448-5.338-2.694-12.228-9.064-15.359-14.201s-1.17-7.138 4.169-4.444c.104.053.211.113.318.171a11.15 11.15 0 0 1 .476-.328c-.454-.264-.903-.516-1.339-.737-5.853-2.953-7.82-.777-4.387 4.855s10.981 12.61 16.834 15.563c5.172 2.611 7.3 1.202 5.352-3.049-.125.184-.257.363-.392.54z"/><path d="M592.099 241.062l-.408.46a10.79 10.79 0 0 1 .99.05c3.767-3.496 6.885-1.583 6.761 4.341-.131 6.24-3.541 14.793-7.602 19.066-3.629 3.82-6.799 2.737-7.29-1.947a11.94 11.94 0 0 1-.784-.635c.015 6.473 3.459 8.053 7.814 3.47 4.449-4.682 8.187-14.053 8.331-20.895s-3.363-8.592-7.812-3.91z"/><path d="M601.391 246.552l.414.622c3.615.124 3.901 2.373.15 5.465-4.433 3.655-12.7 7.254-18.429 8.023-5.231.702-6.644-1.299-3.462-4.416a12.64 12.64 0 0 1-.134-.649c-4.668 3.928-3.479 6.434 2.73 5.6 6.277-.843 15.336-4.785 20.197-8.792 4.556-3.756 3.822-6.253-1.466-5.853z"/><path d="M586.21 261.197c.396 0 .716-.32.716-.715s-.32-.715-.716-.715-.715.32-.715.715.32.715.715.715zm-8.686-5.347c.577 0 1.045-.468 1.045-1.046s-.468-1.045-1.045-1.045-1.046.468-1.046 1.045.468 1.046 1.046 1.046zm5.304-12.441c.395 0 .716-.32.716-.716s-.321-.715-.716-.715-.715.32-.715.715.32.716.715.716zm16.827 3.385c.577 0 1.045-.468 1.045-1.045s-.468-1.045-1.045-1.045-1.046.468-1.046 1.045.468 1.045 1.046 1.045zm-2.46 10.291c.411 0 .744-.333.744-.744s-.333-.744-.744-.744-.744.333-.744.744.333.744.744.744zm8.476-2.574c.577 0 1.045-.468 1.045-1.046s-.468-1.045-1.045-1.045-1.045.468-1.045 1.045.468 1.046 1.045 1.046zm-15.689 13.466c.577 0 1.045-.468 1.045-1.045s-.468-1.045-1.045-1.045-1.045.468-1.045 1.045.468 1.045 1.045 1.045z"/></g></g><path d="M566.499 274.7l-1.611 4.815-1.593-4.815h-1.08l-1.629 4.788-1.566-4.788h-1.215l2.088 6.3h1.251l1.584-4.662 1.557 4.662h1.242l2.088-6.3h-1.116zm10.292 0l-1.611 4.815-1.593-4.815h-1.08l-1.629 4.788-1.566-4.788h-1.215l2.088 6.3h1.251l1.584-4.662 1.557 4.662h1.242l2.088-6.3h-1.116zm10.292 0l-1.611 4.815-1.593-4.815h-1.08l-1.629 4.788-1.566-4.788h-1.215l2.088 6.3h1.251l1.584-4.662 1.557 4.662h1.242l2.088-6.3h-1.116zm274.823-142.976c.486-.261.81-.738.81-1.386 0-.999-.81-1.638-2.322-1.638h-2.952v6.3h3.132c1.62 0 2.466-.63 2.466-1.71 0-.819-.459-1.35-1.134-1.566zm-1.638-2.106c.81 0 1.269.288 1.269.873 0 .576-.459.864-1.269.864h-1.656v-1.737h1.656zm.234 4.464h-1.89v-1.818h1.89c.882 0 1.359.279 1.359.909s-.477.909-1.359.909zm5.514-3.942c-.774 0-1.521.198-2.034.594l.441.819c.36-.297.918-.477 1.458-.477.801 0 1.197.387 1.197 1.044v.072h-1.242c-1.458 0-1.998.63-1.998 1.431 0 .837.693 1.44 1.791 1.44.72 0 1.242-.234 1.512-.648V135h1.062v-2.817c0-1.386-.801-2.043-2.187-2.043zm-.153 4.104c-.576 0-.918-.261-.918-.666 0-.351.207-.639.972-.639h1.161v.558c-.189.495-.666.747-1.215.747zm5.269.819c1.35 0 2.178-.585 2.178-1.485 0-1.881-2.97-1.017-2.97-1.989 0-.315.324-.54 1.008-.54a2.63 2.63 0 0 1 1.377.36l.432-.855c-.432-.261-1.161-.414-1.8-.414-1.296 0-2.115.594-2.115 1.503 0 1.917 2.97 1.053 2.97 1.971 0 .333-.297.531-1.008.531-.603 0-1.251-.198-1.674-.477l-.432.855c.432.306 1.233.54 2.034.54zm7.665-2.439c0-1.503-1.026-2.484-2.43-2.484-1.431 0-2.484 1.026-2.484 2.457s1.044 2.466 2.655 2.466c.828 0 1.503-.27 1.935-.783l-.603-.693c-.342.351-.765.522-1.305.522-.837 0-1.422-.45-1.557-1.152h3.771l.018-.333zm-2.43-1.584c.738 0 1.269.477 1.359 1.17h-2.727c.108-.702.639-1.17 1.368-1.17zm9.58-2.718v2.466c-.378-.441-.927-.648-1.548-.648-1.395 0-2.43.963-2.43 2.457s1.035 2.466 2.43 2.466c.657 0 1.215-.225 1.593-.684V135h1.08v-6.678h-1.125zm-1.413 5.778c-.81 0-1.431-.585-1.431-1.503s.621-1.503 1.431-1.503 1.431.585 1.431 1.503-.621 1.503-1.431 1.503zm8.528-1.476c0-1.503-1.026-2.484-2.43-2.484-1.431 0-2.484 1.026-2.484 2.457s1.044 2.466 2.655 2.466c.828 0 1.503-.27 1.935-.783l-.603-.693c-.342.351-.765.522-1.305.522-.837 0-1.422-.45-1.557-1.152h3.771l.018-.333zm-2.43-1.584c.738 0 1.269.477 1.359 1.17h-2.727c.108-.702.639-1.17 1.368-1.17zm-39.912 8.282v2.466c-.378-.441-.927-.648-1.548-.648-1.395 0-2.43.963-2.43 2.457s1.035 2.466 2.43 2.466c.657 0 1.215-.225 1.593-.684V146h1.08v-6.678h-1.125zm-1.413 5.778c-.81 0-1.431-.585-1.431-1.503s.621-1.503 1.431-1.503 1.431.585 1.431 1.503-.621 1.503-1.431 1.503zm6.17.963c1.494 0 2.565-1.026 2.565-2.466s-1.071-2.457-2.565-2.457c-1.476 0-2.556 1.017-2.556 2.457s1.08 2.466 2.556 2.466zm0-.963c-.81 0-1.422-.585-1.422-1.503s.612-1.503 1.422-1.503c.819 0 1.431.585 1.431 1.503s-.612 1.503-1.431 1.503zm6.368-3.96c-.702 0-1.287.234-1.656.675v-.621h-1.071V146h1.125v-2.43c0-.963.54-1.449 1.341-1.449.72 0 1.143.414 1.143 1.269V146h1.125v-2.754c0-1.449-.855-2.106-2.007-2.106zm6.161 0c-.702 0-1.287.234-1.656.675v-.621h-1.071V146h1.125v-2.43c0-.963.54-1.449 1.341-1.449.72 0 1.143.414 1.143 1.269V146h1.125v-2.754c0-1.449-.855-2.106-2.007-2.106zm7.321-1.836h-1.323l-1.215 1.233h.972l1.566-1.233zm.675 4.32c0-1.503-1.026-2.484-2.43-2.484-1.431 0-2.484 1.026-2.484 2.457s1.044 2.466 2.655 2.466c.828 0 1.503-.27 1.935-.783l-.603-.693c-.342.351-.765.522-1.305.522-.837 0-1.422-.45-1.557-1.152h3.771l.018-.333zm-2.43-1.584c.738 0 1.269.477 1.359 1.17h-2.727c.108-.702.639-1.17 1.368-1.17zm8.029 1.584c0-1.503-1.026-2.484-2.43-2.484-1.431 0-2.484 1.026-2.484 2.457s1.044 2.466 2.655 2.466c.828 0 1.503-.27 1.935-.783l-.603-.693c-.342.351-.765.522-1.305.522-.837 0-1.422-.45-1.557-1.152h3.771l.018-.333zm-2.43-1.584c.738 0 1.269.477 1.359 1.17h-2.727c.108-.702.639-1.17 1.368-1.17zm4.995 4.023c1.35 0 2.178-.585 2.178-1.485 0-1.881-2.97-1.017-2.97-1.989 0-.315.324-.54 1.008-.54a2.63 2.63 0 0 1 1.377.36l.432-.855c-.432-.261-1.161-.414-1.8-.414-1.296 0-2.115.594-2.115 1.503 0 1.917 2.97 1.053 2.97 1.971 0 .333-.297.531-1.008.531-.603 0-1.251-.198-1.674-.477l-.432.855c.432.306 1.233.54 2.034.54zm7.12 0c1.35 0 2.178-.585 2.178-1.485 0-1.881-2.97-1.017-2.97-1.989 0-.315.324-.54 1.008-.54a2.63 2.63 0 0 1 1.377.36l.432-.855c-.432-.261-1.161-.414-1.8-.414-1.296 0-2.115.594-2.115 1.503 0 1.917 2.97 1.053 2.97 1.971 0 .333-.297.531-1.008.531-.603 0-1.251-.198-1.674-.477l-.432.855c.432.306 1.233.54 2.034.54zm6.674-4.869v2.43c0 .963-.531 1.449-1.314 1.449-.711 0-1.125-.414-1.125-1.287v-2.592h-1.125v2.745c0 1.449.837 2.124 2.07 2.124.621 0 1.188-.234 1.548-.675V146h1.071v-4.806h-1.125zm3.669.702v-.702h-1.071V146h1.125v-2.331c0-.981.54-1.485 1.395-1.485a1.43 1.43 0 0 1 .261.027v-1.071c-.801 0-1.386.252-1.71.756zM857.448 157h1.125v-6.678h-1.125V157zm7.12-2.376c0-1.503-1.026-2.484-2.43-2.484-1.431 0-2.484 1.026-2.484 2.457s1.044 2.466 2.655 2.466c.828 0 1.503-.27 1.935-.783l-.603-.693c-.342.351-.765.522-1.305.522-.837 0-1.422-.45-1.557-1.152h3.771l.018-.333zm-2.43-1.584c.738 0 1.269.477 1.359 1.17h-2.727c.108-.702.639-1.17 1.368-1.17zm8.202 4.023c.936 0 1.683-.405 2.052-1.125l-.864-.504a1.36 1.36 0 0 1-1.197.666c-.828 0-1.458-.567-1.458-1.503 0-.927.63-1.503 1.458-1.503a1.36 1.36 0 0 1 1.197.666l.864-.504c-.369-.729-1.116-1.116-2.052-1.116-1.521 0-2.601 1.017-2.601 2.457s1.08 2.466 2.601 2.466zm2.981-.063h1.125v-6.678h-1.125V157zm4.762.063c1.494 0 2.565-1.026 2.565-2.466s-1.071-2.457-2.565-2.457c-1.476 0-2.556 1.017-2.556 2.457s1.08 2.466 2.556 2.466zm0-.963c-.81 0-1.422-.585-1.422-1.503s.612-1.503 1.422-1.503c.819 0 1.431.585 1.431 1.503s-.612 1.503-1.431 1.503zm7.168-3.906v2.43c0 .963-.531 1.449-1.314 1.449-.711 0-1.125-.414-1.125-1.287v-2.592h-1.125v2.745c0 1.449.837 2.124 2.07 2.124.621 0 1.188-.234 1.548-.675V157h1.071v-4.806h-1.125zm6.18-1.872v2.466c-.378-.441-.927-.648-1.548-.648-1.395 0-2.43.963-2.43 2.457s1.035 2.466 2.43 2.466c.657 0 1.215-.225 1.593-.684V157h1.08v-6.678h-1.125zm-1.413 5.778c-.81 0-1.431-.585-1.431-1.503s.621-1.503 1.431-1.503 1.431.585 1.431 1.503-.621 1.503-1.431 1.503z" class="C"/><path d="M854.144 48.538c10.741 0 19.478 9.232 19.478 20.585 0 .062-.007.128-.011.191l-.022.459-.073 3.112 2.949.012c7.138.021 12.945 6.177 12.945 13.72 0 7.523-5.795 13.678-12.918 13.717l-.629.003h-52.82c-7.948-.009-14.416-6.847-14.416-15.245 0-6.507 3.92-12.3 9.752-14.414l1.623-.587.286-1.787c.708-4.411 4.292-7.612 8.523-7.612a8.18 8.18 0 0 1 3.874.98l2.63 1.397 1.27-2.805c3.225-7.123 10.118-11.724 17.559-11.724zm0-3.05c-8.899 0-16.562 5.507-20.162 13.458-1.557-.828-3.309-1.305-5.171-1.305-5.712 0-10.443 4.393-11.367 10.152-6.803 2.466-11.702 9.268-11.702 17.297 0 10.099 7.745 18.285 17.298 18.294l53.468-.003c8.727-.047 15.787-7.534 15.787-16.766 0-9.247-7.077-16.743-15.821-16.77.005-.244.034-.479.034-.724 0-13.053-10.013-23.634-22.364-23.634z" fill="#052b5d"/><use xlink:href="#K" class="J"/><path d="M821.047 121.123c.006-3.821-7.621-6.93-17.036-6.945s-17.052 3.071-17.058 6.891 7.621 6.929 17.036 6.944 17.052-3.07 17.058-6.89z" class="K"/><path d="M820.623 119.609c.41 1.917-1.176 3.889-4.78 5.356-6.498 2.645-17.069 2.646-23.609 0-3.647-1.475-5.265-3.46-4.863-5.387-1.216 2.235.313 4.67 4.614 6.409 6.679 2.702 17.473 2.701 24.108 0 4.254-1.731 5.751-4.152 4.53-6.378z" class="B"/><path d="M819.713 111.834v6.44c-.007 1.621-1.527 3.24-4.566 4.477-6.116 2.49-16.066 2.49-22.221 0-3.098-1.253-4.645-2.898-4.639-4.54v-6.44c-.007 1.642 1.541 3.287 4.639 4.54 6.155 2.49 16.105 2.49 22.221 0 3.038-1.237 4.559-2.856 4.566-4.477z" class="D"/><use xlink:href="#K" y="-13.589" class="J"/><path d="M821.047 107.534c.006-3.821-7.621-6.93-17.036-6.945s-17.052 3.07-17.058 6.891 7.621 6.929 17.036 6.944 17.052-3.07 17.058-6.89z" class="K"/><path d="M820.623 106.019c.41 1.918-1.176 3.89-4.78 5.357-6.497 2.645-17.069 2.646-23.609 0-3.647-1.475-5.265-3.46-4.863-5.387-1.216 2.235.313 4.67 4.614 6.409 6.679 2.702 17.473 2.701 24.108 0 4.254-1.732 5.751-4.152 4.53-6.379z" class="B"/><path d="M819.713 98.245v6.44c-.007 1.621-1.528 3.24-4.566 4.477-6.116 2.489-16.066 2.489-22.221 0-3.098-1.253-4.646-2.898-4.639-4.54v-6.44c-.007 1.642 1.541 3.287 4.639 4.54 6.155 2.489 16.105 2.489 22.221 0 3.038-1.237 4.559-2.856 4.566-4.477z" class="D"/><path d="M821.047 93.952v6.987c-.007 1.758-1.657 3.515-4.954 4.857-6.635 2.701-17.429 2.701-24.108 0-3.361-1.36-5.039-3.144-5.032-4.925v-6.987c-.007 1.782 1.671 3.566 5.032 4.925 6.679 2.701 17.473 2.701 24.108 0 3.297-1.342 4.947-3.098 4.954-4.857z" class="J"/><path d="M821.047 93.945c.006-3.82-7.621-6.929-17.036-6.944s-17.052 3.07-17.058 6.89 7.621 6.929 17.036 6.944 17.052-3.07 17.058-6.89z" class="K"/><path d="M820.623 92.43c.41 1.918-1.176 3.889-4.78 5.357-6.498 2.645-17.069 2.646-23.609 0-3.647-1.475-5.265-3.46-4.863-5.387-1.216 2.235.313 4.67 4.614 6.409 6.679 2.702 17.473 2.701 24.108 0 4.254-1.732 5.751-4.152 4.53-6.379zm5.147 27.847c-1.895-8.34-6.363-11.08-6.843-12.129-.528-.739-1.1-2.148-1.1-2.148-.003.028-.006.046-.007.073v.02h-.002c-.003.022-.004.038-.006.059v.022h-.003c0 .015-.003.027-.003.039v.039h-.004c-.002.012-.002.027-.005.037v.032h-.003c0 .01 0 .022-.003.031v.03h-.003c0 .015-.001.034-.003.049v.002c-.004.026-.009.051-.013.075v.013h-.003l-.005.043h-.004v.033h-.008v.027h-.007v.031h-.006v.029h-.006v.025h-.009v.021h-.006v.027h-.006v.021h-.008v.02h-.004v.023h-.006l-.002.02h-.004l-.002.019h-.003c-.007.025-.013.035-.018.046v.003l-.007.022h-.006v.013h-.008v.012h-.004v.014h-.009v.022h-.006v.006h-.006v.012h-.006v.016h-.006v.012h-.009v.016h-.006v.013h-.008v.012h-.004v.014h-.008v.012h-.006v.009h-.006v.013h-.009v.013h-.006v.009h-.007v.012h-.006v.017h-.008v.005h-.004v.013h-.009v.005h-.006v.016h-.006v.005h-.006v.013h-.008v.008h-.004l-.003.007v.006h-.003l-.003.007h-.002l-.006.015h-.001c-.008.009-.012.018-.018.027v.001c-.003.003-.011.01-.014.015v.004h-.001l-.005.009h-.003l-.004.004v.001h-.002l-.004.013h-.005l-.003.003v.002h-.003l-.003.01h-.006l-.003.013h-.004v.006h-.006v.009h-.006v.012h-.008v-.012h-.007v.006h-.006v.009h-.008v.012h-.007v.006h-.006v.009h-.006v.006h-.006v.012h-.009v.006h-.006v.009h-.008v.006h-.006v.008h-.007v.014h-.003v.007h-.009v.007h-.006v.003h-.006v.006h-.008v.015h-.006v.006h-.007v.006h-.006v.009h-.008v.006h-.007v.006h-.006v.006h-.006v.015h-.006v.008h-.009v.006h-.006v.005h-.008v.009h-.006v.006h-.007v.011h-.006v.006h-.009v.009h-.003v.006h-.006v.006h-.008v.006h-.006v.009h-.007v.006h-.005l-.001.006h-.003l-.006.006-.006.014h-.006v.007h-.006v.006h-.006v.006h-.005l-.004.004v.005h-.003l-.003.003v.004h-.003c-.008.009-.011.016-.021.025-.003.002-.012.01-.018.014a.83.83 0 0 0-.059.048c-.012.008-.024.019-.033.026v.002h-.001l-.074.058v.002l-.111.092v-.001h-.003l-.279.238v.002h-.001c-.254.222-.555.507-.893.852l-.028.028c-2.04 2.111-5.255 6.509-5.594 13.616a15.55 15.55 0 0 0 .009 1.716v.014c.164 2.8 1.043 5.191 2.142 7.134v.001c.438.774.911 1.478 1.389 2.108v.001c1.653 2.183 3.341 3.476 3.771 3.789.662 1.534.6 4.168.6 4.168l.966.323s-.196-2.551.08-3.783c.085-.385.288-.714.523-.993.159-.113.63-.452 1.196-.967.027-.029.042-.054.066-.081 2.281-2.127 6.543-7.366 5.082-15.899z" class="B"/><rect x=".5" y="-.5" width="296" height="139" rx="18.5" transform="matrix(1 0 0 -1 427 157)" stroke-linejoin="round" stroke-dasharray="10 3" class="E"/><rect x="534" y="118" width="77" height="35" rx="5" class="C"/><path d="M551.82 140h1.632l-3.792-8.4h-1.536l-3.78 8.4h1.608l.828-1.944h4.2l.84 1.944zm-4.512-3.168l1.572-3.672 1.584 3.672h-3.156zm10.669-5.232h-3.456v8.4h1.56v-2.424h1.896c2.208 0 3.576-1.14 3.576-2.988 0-1.86-1.368-2.988-3.576-2.988zm-.072 4.656h-1.824v-3.336h1.824c1.368 0 2.076.612 2.076 1.668s-.708 1.668-2.076 1.668zM563.11 140h1.56v-8.4h-1.56v8.4zm14.325 0l-1.932-2.76c1.14-.444 1.788-1.38 1.788-2.652 0-1.86-1.368-2.988-3.576-2.988h-3.456v8.4h1.56v-2.448h1.896l.324-.012 1.716 2.46h1.68zm-1.716-5.412c0 1.056-.708 1.68-2.076 1.68h-1.824v-3.348h1.824c1.368 0 2.076.612 2.076 1.668zm4.877 4.104v-2.316h4.056v-1.284h-4.056v-2.184h4.572V131.6h-6.132v8.4h6.3v-1.308h-4.74zm9.083 1.428c2.304 0 3.396-1.152 3.396-2.496 0-3.084-4.98-1.92-4.98-3.708 0-.636.528-1.14 1.824-1.14.732 0 1.56.216 2.316.66l.492-1.212c-.732-.48-1.788-.744-2.796-.744-2.304 0-3.384 1.152-3.384 2.508 0 3.12 4.992 1.932 4.992 3.744 0 .624-.552 1.092-1.86 1.092-1.032 0-2.1-.384-2.772-.924l-.54 1.212c.696.6 2.004 1.008 3.312 1.008zm6.53-.12h1.56v-7.08h2.784v-1.32h-7.128v1.32h2.784V140z" class="F"/><path d="M680.974 26.748c-.227.544-.518 1.06-.866 1.536-2.071-2.07-5.094-2.866-7.915-2.08a8.13 8.13 0 0 0-3.435 13.715l.3.265a8.13 8.13 0 0 0 13.339-5.635c.221-2.069-.386-4.687-1.423-7.8v-.001zm-11.06 13.217a.7.7 0 0 1-.738.23c-.27-.079-.464-.314-.494-.594s.113-.549.36-.683.55-.106.769.071c.297.241.343.679.102.977h.001zm11.025-2.434c-2.005 2.672-6.287 1.771-9.033 1.9 0 0-.487.029-.977.109l.421-.168c1.929-.672 2.84-.8 4.011-1.403 2.206-1.121 4.387-3.576 4.84-6.129-.838 2.455-3.386 4.566-5.705 5.424-1.59.586-4.461 1.156-4.461 1.156l-.116-.062c-1.954-.95-2.015-5.181 1.534-6.545 1.56-.599 3.044-.27 4.725-.672 1.794-.426 3.869-1.771 4.714-3.524.945 2.806 2.083 7.193.042 9.915l.005-.001zm3.192-.884a.53.53 0 0 1-.252-.471.55.55 0 0 1 .041-.212.54.54 0 0 1 .51-.338c.102.001.202.028.291.078a3.12 3.12 0 0 0 1.706.572c.583 0 .92-.252.92-.643v-.022c0-.46-.631-.617-1.325-.831-.874-.252-1.851-.606-1.851-1.739v-.023c0-1.123.932-1.805 2.11-1.805a4.08 4.08 0 0 1 1.852.484.57.57 0 0 1 .325.517.54.54 0 0 1-.042.214c-.028.068-.069.129-.122.18a.56.56 0 0 1-.182.119.55.55 0 0 1-.215.038c-.094.002-.186-.022-.268-.068-.483-.252-.977-.404-1.386-.404-.527 0-.831.252-.831.583v.023c0 .438.643.617 1.336.842.864.272 1.84.662 1.84 1.727v.023c0 1.245-.965 1.861-2.199 1.861a4.05 4.05 0 0 1-2.258-.707h0zm4.969-4.745c-.002-.089.014-.178.047-.261s.082-.159.145-.222a.66.66 0 0 1 .22-.149.68.68 0 0 1 .26-.052.69.69 0 0 1 .633.422.67.67 0 0 1 .051.262v.411c.438-.617 1.055-1.111 2.016-1.111 1.386 0 2.748 1.099 2.748 3.074v.023c0 1.963-1.347 3.073-2.748 3.073-.989 0-1.607-.494-2.016-1.043v2.091a.68.68 0 0 1-1.159.48c-.128-.127-.199-.3-.199-.48l.002-6.518zm4.746 2.394v-.023c0-1.144-.775-1.89-1.694-1.89s-1.728.766-1.728 1.89v.023c0 1.134.808 1.89 1.728 1.89s1.694-.723 1.694-1.894v.003zm1.894-2.393a.67.67 0 0 1 .047-.261.68.68 0 0 1 .365-.371c.083-.034.171-.052.261-.052a.68.68 0 0 1 .263.051.67.67 0 0 1 .37.371.66.66 0 0 1 .051.263v.326c.068-.504.898-1.008 1.492-1.008a.63.63 0 0 1 .265.038.64.64 0 0 1 .225.145.63.63 0 0 1 .183.49.64.64 0 0 1-.146.427c-.099.12-.238.2-.392.224-.965.168-1.627 1.008-1.627 2.181v1.953a.66.66 0 0 1-.053.26.67.67 0 0 1-.149.219.69.69 0 0 1-.221.145.68.68 0 0 1-.261.049.67.67 0 0 1-.258-.05.66.66 0 0 1-.219-.146.67.67 0 0 1-.196-.477v-4.776zm4.036.003c-.002-.089.014-.178.047-.261a.68.68 0 0 1 .365-.371c.083-.034.171-.052.261-.052a.69.69 0 0 1 .485.199c.063.064.114.139.148.223s.051.172.051.262v4.778a.68.68 0 0 1-.208.463c-.126.122-.295.19-.471.19a.68.68 0 0 1-.678-.653v-4.778zm2.042.003c-.001-.089.015-.178.048-.261a.67.67 0 0 1 .145-.223.66.66 0 0 1 .22-.149.67.67 0 0 1 .26-.052c.09-.001.18.017.263.051a.68.68 0 0 1 .222.148.69.69 0 0 1 .149.223c.034.083.051.173.051.263v.278c.197-.308.472-.56.797-.729a2.1 2.1 0 0 1 1.054-.236c1.334 0 2.109.897 2.109 2.268v3.19a.66.66 0 0 1-.194.479.65.65 0 0 1-.22.146.66.66 0 0 1-.259.048c-.09.002-.179-.013-.263-.046s-.159-.082-.224-.145a.68.68 0 0 1-.15-.221.69.69 0 0 1-.052-.261v-2.773c0-.92-.46-1.448-1.268-1.448-.785 0-1.334.55-1.334 1.47v2.749a.68.68 0 0 1-.208.463c-.126.122-.295.19-.471.19a.68.68 0 0 1-.678-.653l.003-4.771zm11.285-.702a.68.68 0 0 0-.262.051.69.69 0 0 0-.223.148c-.063.064-.114.139-.148.223s-.051.172-.051.262v.403c-.438-.618-1.055-1.112-2.016-1.112-1.386 0-2.75 1.099-2.75 3.073v.023c-.003 1.965 1.344 3.073 2.746 3.073.982 0 1.598-.488 2.016-1.035-.068 1.067-.721 1.631-1.866 1.631a3.63 3.63 0 0 1-1.822-.47.54.54 0 0 0-.246-.055c-.15 0-.294.059-.401.163a.57.57 0 0 0-.172.397.55.55 0 0 0 .1.331c.068.097.165.17.278.208a5.11 5.11 0 0 0 2.288.528c1.066 0 1.896-.252 2.435-.796.493-.494.756-1.236.756-2.233v-4.131c.002-.088-.014-.177-.046-.259s-.081-.157-.143-.221a.67.67 0 0 0-.473-.204v.003zm-2.379 4.971c-.931 0-1.693-.729-1.693-1.896v-.023c0-1.144.774-1.89 1.693-1.89s1.728.757 1.728 1.89v.023c0 1.133-.806 1.896-1.728 1.896zm-10.269-5.908c.378 0 .684-.306.684-.684s-.306-.684-.684-.684-.684.306-.684.684.306.684.684.684z" fill="#68bd45"/><path d="M572.646 208.354a.5.5 0 0 0 .708 0l3.182-3.182a.501.501 0 1 0-.708-.708L573 207.293l-2.828-2.829a.501.501 0 1 0-.708.708l3.182 3.182zM572.5 158v1.562h1V158h-1zm0 6.771v3.125h1v-3.125h-1zm0 8.333v3.125h1v-3.125h-1zm0 8.334v3.125h1v-3.125h-1zm0 8.333v3.125h1v-3.125h-1zm0 8.333v3.125h1v-3.125h-1zm0 8.334V208h1v-1.562h-1zm-.207 2.269a1 1 0 0 0 1.414 0l6.364-6.364a1 1 0 0 0-1.414-1.414L573 206.586l-5.657-5.657a1 1 0 0 0-1.414 1.414l6.364 6.364zM572 158v1.562h2V158h-2zm0 6.771v3.125h2v-3.125h-2zm0 8.333v3.125h2v-3.125h-2zm0 8.334v3.125h2v-3.125h-2zm0 8.333v3.125h2v-3.125h-2zm0 8.333v3.125h2v-3.125h-2zm0 8.334V208h2v-1.562h-2zm190.354-85.084a.5.5 0 0 0 0-.708l-3.182-3.182a.501.501 0 1 0-.708.708l2.829 2.828-2.829 2.828a.501.501 0 1 0 .708.708l3.182-3.182zM724 121.5h1.425v-1H724v1zm6.175 0h2.85v-1h-2.85v1zm7.6 0h2.85v-1h-2.85v1zm7.6 0h2.85v-1h-2.85v1zm7.6 0h2.85v-1h-2.85v1zm7.6 0H762v-1h-1.425v1zm2.132.207a1 1 0 0 0 0-1.414l-6.364-6.364a1 1 0 0 0-1.414 1.414l5.657 5.657-5.657 5.657a1 1 0 0 0 1.414 1.414l6.364-6.364zM724 122h1.425v-2H724v2zm6.175 0h2.85v-2h-2.85v2zm7.6 0h2.85v-2h-2.85v2zm7.6 0h2.85v-2h-2.85v2zm7.6 0h2.85v-2h-2.85v2zm7.6 0H762v-2h-1.425v2z" fill="#000"/><path d="M231.276 0H103.718C88.82 0 76.699 11.612 76.699 25.883v290.233c0 14.272 12.121 25.884 27.019 25.884h127.563c14.898 0 27.019-11.612 27.019-25.884V25.883C258.294 11.612 246.173 0 231.276 0zM103.718 8.636h127.563c9.152 0 16.652 6.603 17.776 15.089H85.942c1.118-8.486 8.618-15.089 17.776-15.089zm145.563 307.48c0 9.512-8.078 17.248-18.005 17.248H103.718c-9.928 0-18.004-7.737-18.004-17.248v-2.331h163.572v2.331h-.005zm0-6.648H85.714V28.042h163.572l-.005 281.426zM111.218 20.944c2.33 0 4.219-1.809 4.219-4.041s-1.889-4.041-4.219-4.041S107 14.671 107 16.903s1.889 4.041 4.218 4.041zm73.4-8.083h-34.001c-2.074 0-3.144 1.503-2.398 3.35l.108.259c.751 1.848 3.035 3.35 5.108 3.35h29.309c2.073 0 4.171-1.56 4.693-3.477.511-1.928-.752-3.482-2.819-3.482z" class="C"/><rect x="115" y="44" width="109.004" height="166.899" rx="5" class="I"/><rect x="119.227" y="53.425" width="99.619" height="42.733" rx="4.5" class="E F"/><path d="M134.897 68.999h-1.764l-1.62 1.644h1.296l2.088-1.644zm-3.9 9.42v-2.316h4.056v-1.284h-4.056v-2.184h4.572v-1.308h-6.132v8.4h6.3v-1.308h-4.74zm10.813-5.1l-2.052 4.752-1.992-4.752h-1.56l2.748 6.408h1.548l2.748-6.408h-1.44zm7.325-2.52h-1.764l-1.62 1.644h1.296l2.088-1.644zm.9 5.76c0-2.004-1.368-3.312-3.24-3.312-1.908 0-3.312 1.368-3.312 3.276s1.392 3.288 3.54 3.288c1.104 0 2.004-.36 2.58-1.044l-.804-.924c-.456.468-1.02.696-1.74.696-1.116 0-1.896-.6-2.076-1.536h5.028l.024-.444zm-3.24-2.112c.984 0 1.692.636 1.812 1.56h-3.636c.144-.936.852-1.56 1.824-1.56zm8.317-1.2c-.936 0-1.716.312-2.208.9v-.828h-1.428v6.408h1.5v-3.24c0-1.284.72-1.932 1.788-1.932.96 0 1.524.552 1.524 1.692v3.48h1.5v-3.672c0-1.932-1.14-2.808-2.676-2.808zm10.662 3.312c0-2.004-1.368-3.312-3.24-3.312-1.908 0-3.312 1.368-3.312 3.276s1.392 3.288 3.54 3.288c1.104 0 2.004-.36 2.58-1.044l-.804-.924c-.456.468-1.02.696-1.74.696-1.116 0-1.896-.6-2.076-1.536h5.028l.024-.444zm-3.24-2.112c.984 0 1.692.636 1.812 1.56h-3.636c.144-.936.852-1.56 1.824-1.56zm12.768-1.2c-1.02 0-1.884.408-2.4 1.068-.444-.72-1.224-1.068-2.16-1.068-.876 0-1.62.312-2.1.888v-.816h-1.428v6.408h1.5v-3.252c0-1.272.672-1.92 1.668-1.92.912 0 1.44.552 1.44 1.692v3.48h1.5v-3.252c0-1.272.684-1.92 1.668-1.92.912 0 1.44.552 1.44 1.692v3.48h1.5v-3.672c0-1.932-1.08-2.808-2.628-2.808zm10.628 3.312c0-2.004-1.368-3.312-3.24-3.312-1.908 0-3.312 1.368-3.312 3.276s1.392 3.288 3.54 3.288c1.104 0 2.004-.36 2.58-1.044l-.804-.924c-.456.468-1.02.696-1.74.696-1.116 0-1.896-.6-2.076-1.536h5.028l.024-.444zm-3.24-2.112c.984 0 1.692.636 1.812 1.56h-3.636c.144-.936.852-1.56 1.824-1.56zm8.317-1.2c-.936 0-1.716.312-2.208.9v-.828h-1.428v6.408h1.5v-3.24c0-1.284.72-1.932 1.788-1.932.96 0 1.524.552 1.524 1.692v3.48h1.5v-3.672c0-1.932-1.14-2.808-2.676-2.808zm8.011 5.064c-.228.18-.528.264-.84.264-.576 0-.888-.336-.888-.96v-3.048h1.716v-1.2h-1.716v-1.464h-1.5v1.464h-1.056v1.2h1.056v3.084c0 1.416.804 2.16 2.208 2.16.54 0 1.08-.144 1.44-.432l-.42-1.068zm3.633 1.5c1.8 0 2.904-.78 2.904-1.98 0-2.508-3.96-1.356-3.96-2.652 0-.42.432-.72 1.344-.72.612 0 1.224.12 1.836.48l.576-1.14c-.576-.348-1.548-.552-2.4-.552-1.728 0-2.82.792-2.82 2.004 0 2.556 3.96 1.404 3.96 2.628 0 .444-.396.708-1.344.708-.804 0-1.668-.264-2.232-.636l-.576 1.14c.576.408 1.644.72 2.712.72z" class="C"/><rect x="119.227" y="106.083" width="99.619" height="42.733" rx="4.5" class="E F"/><path d="M134.199 123.985h-3.456v8.4h1.56v-2.424h1.896c2.208 0 3.576-1.14 3.576-2.988 0-1.86-1.368-2.988-3.576-2.988zm-.072 4.656h-1.824v-3.336h1.824c1.368 0 2.076.612 2.076 1.668s-.708 1.668-2.076 1.668zm7.451-2.736c-1.032 0-2.028.264-2.712.792l.588 1.092c.48-.396 1.224-.636 1.944-.636 1.068 0 1.596.516 1.596 1.392v.096h-1.656c-1.944 0-2.664.84-2.664 1.908 0 1.116.924 1.92 2.388 1.92.96 0 1.656-.312 2.016-.864v.78h1.416v-3.756c0-1.848-1.068-2.724-2.916-2.724zm-.204 5.472c-.768 0-1.224-.348-1.224-.888 0-.468.276-.852 1.296-.852h1.548v.744c-.252.66-.888.996-1.62.996zm6.474-4.464v-.936h-1.428v6.408h1.5v-3.108c0-1.308.72-1.98 1.86-1.98.108 0 .216.012.348.036v-1.428c-1.068 0-1.848.336-2.28 1.008zm7.218 4.056c-.228.18-.528.264-.84.264-.576 0-.888-.336-.888-.96v-3.048h1.716v-1.2h-1.716v-1.464h-1.5v1.464h-1.056v1.2h1.056v3.084c0 1.416.804 2.16 2.208 2.16.54 0 1.08-.144 1.44-.432l-.42-1.068zm2.41-6.048c.564 0 .96-.408.96-.936 0-.492-.408-.864-.96-.864s-.96.396-.96.9.408.9.96.9zm-.756 7.464h1.5v-6.408h-1.5v6.408zm6.409.084c1.248 0 2.244-.54 2.736-1.5l-1.152-.672a1.81 1.81 0 0 1-1.596.888c-1.104 0-1.944-.756-1.944-2.004 0-1.236.84-2.004 1.944-2.004a1.81 1.81 0 0 1 1.596.888l1.152-.672c-.492-.972-1.488-1.488-2.736-1.488-2.028 0-3.468 1.356-3.468 3.276s1.44 3.288 3.468 3.288zm4.789-7.548c.564 0 .96-.408.96-.936 0-.492-.408-.864-.96-.864s-.96.396-.96.9.408.9.96.9zm-.756 7.464h1.5v-6.408h-1.5v6.408zm7.02-6.48c-.876 0-1.62.3-2.124.912v-.84h-1.428v8.736h1.5v-3.108c.516.588 1.236.864 2.052.864 1.872 0 3.252-1.296 3.252-3.288 0-1.98-1.38-3.276-3.252-3.276zm-.168 5.28c-1.08 0-1.908-.78-1.908-2.004s.828-2.004 1.908-2.004 1.896.78 1.896 2.004-.816 2.004-1.896 2.004zm7.209-5.28c-1.032 0-2.028.264-2.712.792l.588 1.092c.48-.396 1.224-.636 1.944-.636 1.068 0 1.596.516 1.596 1.392v.096h-1.656c-1.944 0-2.664.84-2.664 1.908 0 1.116.924 1.92 2.388 1.92.96 0 1.656-.312 2.016-.864v.78h1.416v-3.756c0-1.848-1.068-2.724-2.916-2.724zm-.204 5.472c-.768 0-1.224-.348-1.224-.888 0-.468.276-.852 1.296-.852h1.548v.744c-.252.66-.888.996-1.62.996zm8.681-5.472c-.936 0-1.716.312-2.208.9v-.828h-1.428v6.408h1.5v-3.24c0-1.284.72-1.932 1.788-1.932.96 0 1.524.552 1.524 1.692v3.48h1.5v-3.672c0-1.932-1.14-2.808-2.676-2.808zm8.011 5.064c-.228.18-.528.264-.84.264-.576 0-.888-.336-.888-.96v-3.048h1.716v-1.2h-1.716v-1.464h-1.5v1.464h-1.056v1.2h1.056v3.084c0 1.416.804 2.16 2.208 2.16.54 0 1.08-.144 1.44-.432l-.42-1.068zm3.634 1.5c1.8 0 2.904-.78 2.904-1.98 0-2.508-3.96-1.356-3.96-2.652 0-.42.432-.72 1.344-.72.612 0 1.224.12 1.836.48l.576-1.14c-.576-.348-1.548-.552-2.4-.552-1.728 0-2.82.792-2.82 2.004 0 2.556 3.96 1.404 3.96 2.628 0 .444-.396.708-1.344.708-.804 0-1.668-.264-2.232-.636l-.576 1.14c.576.408 1.644.72 2.712.72z" class="C"/><rect x="119.227" y="158.741" width="99.619" height="42.733" rx="4.5" class="E F"/><path d="M149.92 176.643h-3.456v8.4h1.56v-2.424h1.896c2.208 0 3.576-1.14 3.576-2.988 0-1.86-1.368-2.988-3.576-2.988zm-.072 4.656h-1.824v-3.336h1.824c1.368 0 2.076.612 2.076 1.668s-.708 1.668-2.076 1.668zm8.815-2.736c-.888 0-1.644.288-2.136.816v-3.24h-1.5v8.904h1.5v-3.24c0-1.284.72-1.932 1.788-1.932.96 0 1.524.552 1.524 1.692v3.48h1.5v-3.672c0-1.932-1.14-2.808-2.676-2.808zm7.517 6.564c1.992 0 3.42-1.368 3.42-3.288s-1.428-3.276-3.42-3.276c-1.968 0-3.408 1.356-3.408 3.276s1.44 3.288 3.408 3.288zm0-1.284c-1.08 0-1.896-.78-1.896-2.004s.816-2.004 1.896-2.004c1.092 0 1.908.78 1.908 2.004s-.816 2.004-1.908 2.004zm8.287-.216c-.228.18-.528.264-.84.264-.576 0-.888-.336-.888-.96v-3.048h1.716v-1.2h-1.716v-1.464h-1.5v1.464h-1.056v1.2h1.056v3.084c0 1.416.804 2.16 2.208 2.16.54 0 1.08-.144 1.44-.432l-.42-1.068zm4.323 1.5c1.992 0 3.42-1.368 3.42-3.288s-1.428-3.276-3.42-3.276c-1.968 0-3.408 1.356-3.408 3.276s1.44 3.288 3.408 3.288zm0-1.284c-1.08 0-1.896-.78-1.896-2.004s.816-2.004 1.896-2.004c1.092 0 1.908.78 1.908 2.004s-.816 2.004-1.908 2.004zm6.834 1.284c1.8 0 2.904-.78 2.904-1.98 0-2.508-3.96-1.356-3.96-2.652 0-.42.432-.72 1.344-.72.612 0 1.224.12 1.836.48l.576-1.14c-.576-.348-1.548-.552-2.4-.552-1.728 0-2.82.792-2.82 2.004 0 2.556 3.96 1.404 3.96 2.628 0 .444-.396.708-1.344.708-.804 0-1.668-.264-2.232-.636l-.576 1.14c.576.408 1.644.72 2.712.72z" class="C"/><path d="M186.206 284.022v6.568c-.007 1.653-1.624 3.304-4.855 4.566-6.502 2.539-17.081 2.539-23.626 0-3.294-1.278-4.939-2.955-4.932-4.63v-6.568c-.007 1.675 1.638 3.352 4.932 4.63 6.545 2.539 17.124 2.539 23.626 0 3.231-1.262 4.848-2.912 4.855-4.566z" class="J"/><path d="M186.206 284.018c.005-3.592-7.47-6.515-16.696-6.529s-16.711 2.885-16.717 6.476 7.47 6.514 16.696 6.529 16.711-2.885 16.717-6.476z" class="K"/><path d="M185.791 282.592c.401 1.802-1.153 3.656-4.685 5.035-6.367 2.487-16.727 2.487-23.137 0-3.574-1.386-5.16-3.252-4.766-5.064-1.191 2.101.307 4.39 4.523 6.025 6.544 2.539 17.123 2.539 23.626 0 4.168-1.628 5.636-3.903 4.439-5.996z" class="B"/><path d="M184.899 275.284v6.053c-.007 1.524-1.497 3.046-4.475 4.209-5.993 2.34-15.744 2.34-21.777 0-3.036-1.178-4.552-2.724-4.546-4.268v-6.053c-.006 1.543 1.51 3.089 4.546 4.267 6.033 2.341 15.784 2.341 21.777 0 2.978-1.163 4.468-2.684 4.475-4.208z" class="D"/><path d="M186.206 271.248v6.568c-.007 1.653-1.624 3.304-4.855 4.566-6.502 2.539-17.081 2.539-23.626 0-3.294-1.278-4.939-2.955-4.932-4.63v-6.568c-.007 1.675 1.638 3.352 4.932 4.63 6.545 2.539 17.124 2.539 23.626 0 3.231-1.261 4.848-2.912 4.855-4.566z" class="J"/><use xlink:href="#L" class="K"/><path d="M185.791 269.818c.401 1.803-1.153 3.656-4.685 5.035-6.367 2.487-16.727 2.488-23.137 0-3.574-1.386-5.16-3.252-4.765-5.063-1.192 2.101.306 4.389 4.522 6.024 6.544 2.54 17.123 2.539 23.626 0 4.168-1.627 5.636-3.903 4.439-5.996z" class="B"/><path d="M184.899 262.51v6.054c-.007 1.523-1.497 3.045-4.475 4.208-5.993 2.34-15.744 2.34-21.777 0-3.036-1.178-4.552-2.724-4.546-4.267v-6.054c-.006 1.544 1.51 3.09 4.546 4.267 6.033 2.341 15.784 2.341 21.777 0 2.978-1.163 4.468-2.684 4.475-4.208z" class="D"/><path d="M186.206 258.475v6.567c-.007 1.654-1.624 3.304-4.855 4.566-6.502 2.539-17.081 2.539-23.626 0-3.294-1.278-4.939-2.955-4.932-4.63v-6.567c-.007 1.674 1.638 3.352 4.932 4.629 6.545 2.54 17.124 2.54 23.626 0 3.231-1.261 4.848-2.912 4.855-4.565z" class="J"/><use xlink:href="#L" y="-12.774" class="K"/><path d="M185.791 257.044c.401 1.803-1.153 3.657-4.685 5.036-6.367 2.486-16.727 2.487-23.137 0-3.574-1.387-5.16-3.253-4.765-5.064-1.192 2.101.306 4.389 4.522 6.024 6.544 2.54 17.123 2.539 23.626 0 4.168-1.627 5.636-3.902 4.439-5.996z" class="B"/><path d="M168.646 246.354a.5.5 0 0 0 .708 0l3.182-3.182a.5.5 0 1 0-.708-.708L169 245.293l-2.828-2.829a.5.5 0 1 0-.708.708l3.182 3.182zM168.5 211v35h1v-35h-1z" fill="#000"/><path d="M141.937 326h1.224l-2.844-6.3h-1.152l-2.835 6.3h1.206l.621-1.458h3.15l.63 1.458zm-3.384-2.376l1.179-2.754 1.188 2.754h-2.367zm8.028-2.484c-.702 0-1.287.234-1.656.675v-.621h-1.071V326h1.125v-2.43c0-.963.54-1.449 1.341-1.449.72 0 1.143.414 1.143 1.269V326h1.125v-2.754c0-1.449-.855-2.106-2.007-2.106zm7.06-1.818v2.466c-.378-.441-.927-.648-1.548-.648-1.395 0-2.43.963-2.43 2.457s1.035 2.466 2.43 2.466c.657 0 1.215-.225 1.593-.684V326h1.08v-6.678h-1.125zm-1.413 5.778c-.81 0-1.431-.585-1.431-1.503s.621-1.503 1.431-1.503 1.431.585 1.431 1.503-.621 1.503-1.431 1.503zm5.081-3.204v-.702h-1.071V326h1.125v-2.331c0-.981.54-1.485 1.395-1.485a1.43 1.43 0 0 1 .261.027v-1.071c-.801 0-1.386.252-1.71.756zm4.78 4.167c1.494 0 2.565-1.026 2.565-2.466s-1.071-2.457-2.565-2.457c-1.476 0-2.556 1.017-2.556 2.457s1.08 2.466 2.556 2.466zm0-.963c-.81 0-1.422-.585-1.422-1.503s.612-1.503 1.422-1.503c.819 0 1.431.585 1.431 1.503s-.612 1.503-1.431 1.503zm4.208-4.698a.69.69 0 0 0 .72-.702c0-.369-.306-.648-.72-.648s-.72.297-.72.675.306.675.72.675zM165.73 326h1.125v-4.806h-1.125V326zm6.183-6.678v2.466c-.378-.441-.927-.648-1.548-.648-1.395 0-2.43.963-2.43 2.457s1.035 2.466 2.43 2.466c.657 0 1.215-.225 1.593-.684V326h1.08v-6.678h-1.125zM170.5 325.1c-.81 0-1.431-.585-1.431-1.503s.621-1.503 1.431-1.503 1.431.585 1.431 1.503-.621 1.503-1.431 1.503zm9.224-3.96c-.702 0-1.287.234-1.656.675v-.621h-1.071V326h1.125v-2.43c0-.963.54-1.449 1.341-1.449.72 0 1.143.414 1.143 1.269V326h1.125v-2.754c0-1.449-.855-2.106-2.007-2.106zm5.27 0c-.774 0-1.521.198-2.034.594l.441.819c.36-.297.918-.477 1.458-.477.801 0 1.197.387 1.197 1.044v.072h-1.242c-1.458 0-1.998.63-1.998 1.431 0 .837.693 1.44 1.791 1.44.72 0 1.242-.234 1.512-.648V326h1.062v-2.817c0-1.386-.801-2.043-2.187-2.043zm-.153 4.104c-.576 0-.918-.261-.918-.666 0-.351.207-.639.972-.639h1.161v.558c-.189.495-.666.747-1.215.747zm6.358-.306c-.171.135-.396.198-.63.198-.432 0-.666-.252-.666-.72v-2.286h1.287v-.9h-1.287v-1.098h-1.125v1.098h-.792v.9h.792v2.313c0 1.062.603 1.62 1.656 1.62.405 0 .81-.108 1.08-.324l-.315-.801zm1.808-4.536a.69.69 0 0 0 .72-.702c0-.369-.306-.648-.72-.648s-.72.297-.72.675.306.675.72.675zM192.44 326h1.125v-4.806h-1.125V326zm4.554-5.832c.234 0 .45.081.621.198l.315-.846c-.252-.18-.63-.261-1.017-.261-1.116 0-1.719.657-1.719 1.665v.306h-.792v.9h.792V326h1.125v-3.87h1.287v-.9h-1.323v-.288c0-.513.243-.774.711-.774z" class="C"/><path d="M856.144 179.538c10.741 0 19.478 9.232 19.478 20.584 0 .063-.007.128-.011.191l-.022.459-.073 3.112 2.949.011c7.138.021 12.945 6.177 12.945 13.721 0 7.522-5.795 13.678-12.918 13.717l-.629.003h-52.82c-7.948-.009-14.416-6.847-14.416-15.245 0-6.508 3.92-12.3 9.752-14.415l1.623-.586.286-1.787c.708-4.411 4.292-7.612 8.523-7.612 1.349 0 2.652.331 3.874.98l2.63 1.396 1.27-2.805c3.225-7.123 10.118-11.724 17.559-11.724zm0-3.05c-8.899 0-16.562 5.506-20.162 13.458-1.557-.828-3.309-1.305-5.171-1.305-5.712 0-10.443 4.393-11.367 10.153-6.803 2.466-11.702 9.268-11.702 17.297 0 10.099 7.745 18.285 17.298 18.294l53.468-.003c8.727-.047 15.787-7.534 15.787-16.766 0-9.248-7.077-16.743-15.821-16.77.005-.244.034-.48.034-.724 0-13.053-10.013-23.634-22.364-23.634z" fill="#052b5d"/><path d="M841.259 237.725v17.192c0 1.445-1.084 2.63-2.407 2.63h-10.791c-1.324 0-2.408-1.185-2.408-2.63v-17.192c0-1.446 1.084-2.63 2.408-2.63h10.791c1.323 0 2.407 1.184 2.407 2.63z" class="M"/><path d="M840.956 237.725v16.936c0 .326-.01.64-.102.955-.274.95-1.104 1.59-2.007 1.6h-10.728c-.669 0-1.299-.298-1.719-.885-.503-.699-.449-1.515-.449-2.336v-16.238c.005-.784.347-1.52.952-1.952.708-.501 1.612-.379 2.422-.379h9.155c.298 0 .586-.01.879.07.938.261 1.582 1.189 1.597 2.229.005.427.615.432.61 0-.014-1.136-.615-2.203-1.567-2.683-.444-.224-.903-.282-1.382-.282h-10.356c-.503 0-.987.074-1.441.325-.903.501-1.465 1.542-1.479 2.64v17.086c0 1.669 1.172 3.051 2.724 3.067h10.782c.966-.011 1.875-.571 2.358-1.494.41-.779.361-1.616.361-2.475V237.72c0-.421-.61-.427-.61.005z" class="C"/><use xlink:href="#M" class="L"/><path d="M840.956 237.726v1.488l.308-.336h-2.754c-.518 0-1.001-.08-1.348-.555-.337-.464-.293-1.013-.293-1.568v-1.664l-.307.336h2.182c1.192 0 2.193.955 2.212 2.299.005.427.615.432.61 0-.014-1.302-.796-2.465-1.943-2.843-.679-.224-1.479-.123-2.183-.123h-.883c-.166 0-.308.155-.308.336v1.52c0 .63-.044 1.254.239 1.825a1.97 1.97 0 0 0 1.787 1.109h2.979c.166 0 .308-.155.308-.336v-1.488c.004-.427-.606-.432-.606 0z" class="C"/><g class="F"><use xlink:href="#N"/><path d="M840.076 253.599h-7.52c-.683 0-1.245-.614-1.245-1.361v-3.467c0-.747.562-1.36 1.245-1.36h7.52c.684 0 1.245.613 1.245 1.36v3.467c0 .747-.557 1.361-1.245 1.361z"/></g><g class="C"><path d="M840.076 253.269H832.6c-.542-.006-.971-.432-.986-1.035v-3.019c0-.491-.01-.982.41-1.296.259-.192.537-.176.83-.176h7.061c.415 0 .801.133 1.001.57.161.352.097.848.097 1.232v1.873c0 .373.064.859-.068 1.211a.97.97 0 0 1-.869.64c-.391.01-.396.677 0 .666.864-.026 1.533-.762 1.553-1.706v-3.206c0-.672-.171-1.28-.713-1.67-.337-.245-.713-.267-1.099-.267h-4.829c-.796 0-1.592-.005-2.388 0-.703.006-1.342.491-1.533 1.243-.107.427-.054.928-.054 1.366v1.952c0 .528-.034 1.051.245 1.515.322.533.844.779 1.411.779h7.412c.39-.006.39-.672-.005-.672z"/><path d="M836.557 248.047h.957c.39 0 .395-.666 0-.666h-.957c-.391 0-.391.666 0 .666z"/></g><path d="M836.419 249.087c-.576 0-1.045.576-1.045 1.291 0 .709.469 1.29 1.045 1.29s1.045-.576 1.045-1.29-.469-1.291-1.045-1.291zm0 2.283c-.445 0-.801-.443-.801-.987s.356-.987.801-.987.8.443.8.987-.356.987-.8.987zm-1.446-1.441c-.068-.309-.322-.544-.322-.544-.22-.213-.596-.256-.796-.267s-.727.048-.727.048v2.491s.41.059.776.022a1.35 1.35 0 0 0 .713-.283 1.29 1.29 0 0 0 .381-.699c.044-.277.049-.459-.025-.768zm-.288.741c-.063.24-.107.363-.307.55s-.689.251-.952.176v-1.99s.4-.074.678 0 .469.288.537.475a1.55 1.55 0 0 1 .044.789zm4.698-1.183c-.225-.139-.557-.144-.811-.054-.269.096-.571.507-.552.993s.176.757.552.933.83-.069.83-.069l.078.288s-.62.288-1.157.026c-.464-.229-.625-.709-.625-1.178 0-.646.259-1.046.708-1.259s1.064.058 1.064.058l-.087.262z" class="B"/><path d="M840.259 239.91v17.192c0 1.445-1.084 2.629-2.407 2.629h-10.791c-1.324 0-2.408-1.184-2.408-2.629V239.91c0-1.446 1.084-2.63 2.408-2.63h10.791c1.323 0 2.407 1.184 2.407 2.63z" class="M"/><path d="M839.956 239.91v16.936c0 .326-.01.64-.102.955-.274.95-1.104 1.59-2.007 1.6h-10.728c-.669 0-1.299-.298-1.719-.885-.503-.699-.449-1.515-.449-2.337v-16.237c.005-.784.347-1.52.952-1.952.708-.501 1.612-.379 2.422-.379h9.155c.298 0 .586-.01.879.07.938.261 1.582 1.189 1.597 2.229.005.427.615.432.61 0-.014-1.136-.615-2.203-1.567-2.683-.444-.224-.903-.283-1.382-.283h-10.356c-.503 0-.987.075-1.441.326-.903.501-1.465 1.541-1.479 2.64v17.086c0 1.669 1.172 3.051 2.724 3.067h10.782c.966-.011 1.875-.571 2.358-1.494.41-.779.361-1.616.361-2.475v-16.189c0-.421-.61-.427-.61.005z" class="C"/><use xlink:href="#M" x="-1" y="2.185" class="L"/><path d="M839.956 239.911v1.488l.308-.336h-2.754c-.518 0-1.001-.08-1.348-.555-.337-.464-.293-1.013-.293-1.568v-1.664l-.307.336h2.182c1.192 0 2.193.954 2.212 2.299.005.426.615.432.61 0-.014-1.302-.796-2.465-1.943-2.843-.679-.224-1.479-.123-2.183-.123h-.883c-.166 0-.308.155-.308.336v1.52c0 .63-.044 1.254.239 1.824a1.97 1.97 0 0 0 1.787 1.11h2.979c.166 0 .308-.155.308-.336v-1.488c.004-.427-.606-.432-.606 0z" class="C"/><g class="F"><use xlink:href="#N" x="-1" y="2.185"/><path d="M839.076 255.783h-7.52c-.683 0-1.245-.613-1.245-1.36v-3.467c0-.747.562-1.36 1.245-1.36h7.52c.684 0 1.245.613 1.245 1.36v3.467c0 .747-.557 1.36-1.245 1.36z"/></g><g class="C"><path d="M839.076 255.454H831.6c-.542-.006-.971-.432-.986-1.035V251.4c0-.491-.01-.982.41-1.297.259-.192.537-.176.83-.176h7.061c.415 0 .801.134 1.001.571.161.352.097.848.097 1.232v1.873c0 .373.064.858-.068 1.21a.97.97 0 0 1-.869.641c-.391.01-.396.677 0 .666.864-.026 1.533-.762 1.553-1.707v-3.205c0-.673-.171-1.281-.713-1.67-.337-.245-.713-.267-1.099-.267h-4.829c-.796 0-1.592-.005-2.388 0-.703.006-1.342.491-1.533 1.243-.107.427-.054.928-.054 1.366v1.952c0 .528-.034 1.051.245 1.515.322.533.844.779 1.411.779h7.412c.39-.006.39-.672-.005-.672z"/><path d="M835.557 250.232h.957c.39 0 .395-.667 0-.667h-.957c-.391 0-.391.667 0 .667z"/></g><path d="M835.419 251.272c-.576 0-1.045.576-1.045 1.29s.469 1.291 1.045 1.291 1.045-.576 1.045-1.291c0-.709-.469-1.29-1.045-1.29zm0 2.283c-.445 0-.801-.443-.801-.987s.356-.987.801-.987.8.443.8.987-.356.987-.8.987zm-1.446-1.441c-.068-.31-.322-.544-.322-.544-.22-.214-.596-.256-.796-.267s-.727.048-.727.048v2.491s.41.059.776.021a1.31 1.31 0 0 0 .713-.282 1.29 1.29 0 0 0 .381-.699c.044-.277.049-.459-.025-.768zm-.288.741c-.063.24-.107.363-.307.55s-.689.25-.952.176v-1.99s.4-.075.678 0 .469.288.537.475a1.55 1.55 0 0 1 .044.789zm4.698-1.183c-.225-.139-.557-.144-.811-.054-.269.096-.571.507-.552.992s.176.758.552.934.83-.069.83-.069l.078.288s-.62.288-1.157.026c-.464-.229-.625-.709-.625-1.179 0-.645.259-1.045.708-1.258s1.064.058 1.064.058l-.087.262zm-42.521-6.147l.011 5.139c.001.443.292.886.875 1.224l13.078 7.601c1.173.681 3.079.682 4.259 0l13.164-7.6c.594-.343.891-.793.89-1.242l-.012-5.136c0 .448-14.052 8.84-14.052 8.84-1.181.681-3.088.681-4.26-.001 0 0-13.952-8.381-13.953-8.825z" class="B"/><path d="M815.238 254.915l10.9-6.294c.282-.163.634.041.634.366v1.7c0 .302-.161.581-.422.732l-10.901 6.294c-.282.162-.634-.041-.634-.366v-1.7c0-.302.161-.581.423-.732zm-18.487-10.632c-1.18.681-1.187 1.786-.014 2.467l13.078 7.6c1.173.682 3.079.682 4.259.001l13.165-7.601c1.18-.681 1.185-1.785.013-2.467l-13.079-7.6c-1.172-.681-3.078-.681-4.258 0l-13.164 7.6z" class="I"/><path d="M801.866 244.971c-.522.301-.525.79-.006 1.091l9.16 5.323c.518.302 1.361.302 1.883 0l9.22-5.323c.522-.301.525-.79.006-1.091l-9.16-5.323c-.518-.301-1.362-.301-1.884 0l-9.219 5.323z" class="B"/><path d="M816.176 255.3l3.489-2.015v1.321l-3.489 2.015V255.3z" class="L"/><path d="M795.862 237.468l.011 5.138c.001.444.292.887.875 1.225l13.078 7.601c1.173.681 3.079.681 4.259 0l13.164-7.6c.594-.343.891-.793.89-1.243l-.012-5.135c0 .448-14.052 8.839-14.052 8.839-1.181.682-3.088.682-4.26 0 0 0-13.952-8.382-13.953-8.825z" class="B"/><path d="M815.238 246.857l10.9-6.293c.282-.163.634.04.634.366v1.7c0 .302-.161.581-.422.732l-10.901 6.293c-.282.163-.634-.04-.634-.366v-1.699c0-.302.161-.582.423-.733zm-18.487-10.631c-1.18.681-1.187 1.785-.014 2.467l13.078 7.6c1.173.681 3.079.682 4.259 0l13.165-7.6c1.18-.681 1.185-1.786.013-2.467l-13.079-7.6c-1.172-.682-3.078-.682-4.258 0l-13.164 7.6z" class="I"/><path d="M801.866 236.914c-.522.301-.525.789-.006 1.091l9.16 5.323a2.08 2.08 0 0 0 1.883 0l9.22-5.323c.522-.301.525-.79.006-1.091l-9.16-5.323c-.518-.302-1.362-.302-1.884 0l-9.219 5.323z" class="B"/><path d="M816.176 247.242l3.489-2.014v1.321l-3.489 2.015v-1.322z" class="L"/><path d="M795.862 229.411l.011 5.138c.001.444.292.887.875 1.225l13.078 7.6c1.173.682 3.079.682 4.259 0l13.164-7.6c.594-.343.891-.792.89-1.242l-.012-5.135c0 .448-14.052 8.839-14.052 8.839-1.181.681-3.088.681-4.26 0 0 0-13.952-8.382-13.953-8.825z" class="B"/><path d="M815.238 238.8l10.9-6.294c.282-.162.634.041.634.366v1.701c0 .302-.161.581-.422.732l-10.901 6.293c-.282.163-.634-.041-.634-.366v-1.7c0-.302.161-.581.423-.732zm-18.487-10.631c-1.18.681-1.187 1.785-.014 2.466l13.078 7.601c1.173.681 3.079.681 4.259 0l13.165-7.6c1.18-.682 1.185-1.786.013-2.467l-13.079-7.601c-1.172-.681-3.078-.681-4.258 0l-13.164 7.601z" class="I"/><path d="M801.866 228.856c-.522.302-.525.79-.006 1.092l9.16 5.323a2.08 2.08 0 0 0 1.883 0l9.22-5.323c.522-.302.525-.79.006-1.091l-9.16-5.324c-.518-.301-1.362-.301-1.884 0l-9.219 5.323z" class="B"/><path d="M816.176 239.185l3.489-2.015v1.322l-3.489 2.014v-1.321z" class="L"/><path d="M795.862 221.353l.011 5.139c.001.444.292.886.875 1.224l13.078 7.601c1.173.681 3.079.682 4.259 0l13.164-7.6c.594-.343.891-.792.89-1.242l-.012-5.136c0 .448-14.052 8.84-14.052 8.84-1.181.681-3.088.681-4.26-.001 0 0-13.952-8.381-13.953-8.825z" class="B"/><path d="M815.238 230.743l10.9-6.294c.282-.163.634.041.634.366v1.7c0 .302-.161.581-.422.732l-10.901 6.294c-.282.163-.634-.041-.634-.366v-1.7c0-.302.161-.581.423-.732zm-18.487-10.632c-1.18.682-1.187 1.786-.014 2.467l13.078 7.601c1.173.681 3.079.681 4.259 0l13.165-7.601c1.18-.681 1.185-1.785.013-2.467l-13.079-7.6c-1.172-.681-3.078-.681-4.258 0l-13.164 7.6z" class="I"/><path d="M801.866 220.799c-.522.302-.525.79-.006 1.091l9.16 5.323c.518.302 1.361.302 1.883.001l9.22-5.323c.522-.302.525-.79.006-1.092l-9.16-5.323c-.518-.301-1.362-.301-1.884 0l-9.219 5.323z" class="B"/><path d="M816.176 231.128l3.489-2.015v1.322l-3.489 2.014v-1.321z" class="L"/><g class="C"><path d="M839.315 276.07c1.344 0 1.981-.672 1.981-1.456 0-1.799-2.905-1.12-2.905-2.163 0-.371.308-.665 1.064-.665.427 0 .91.126 1.351.385l.287-.707c-.427-.28-1.043-.434-1.631-.434-1.344 0-1.974.672-1.974 1.463 0 1.82 2.912 1.127 2.912 2.184 0 .364-.322.637-1.085.637-.602 0-1.225-.224-1.617-.539l-.315.707c.406.35 1.169.588 1.932.588zm6.314-1.918c0-1.169-.798-1.932-1.89-1.932-1.113 0-1.932.798-1.932 1.911s.812 1.918 2.065 1.918c.644 0 1.169-.21 1.505-.609l-.469-.539c-.266.273-.595.406-1.015.406-.651 0-1.106-.35-1.211-.896h2.933l.014-.259zm-1.89-1.232c.574 0 .987.371 1.057.91h-2.121a1.03 1.03 0 0 1 1.064-.91zm3.563-.112v-.546h-.833V276h.875v-1.813c0-.763.42-1.155 1.085-1.155a1.11 1.11 0 0 1 .203.021v-.833c-.623 0-1.078.196-1.33.588zm4.869-.546l-1.197 2.772-1.162-2.772h-.91l1.603 3.738h.903l1.603-3.738h-.84zm4.798 1.89c0-1.169-.798-1.932-1.89-1.932-1.113 0-1.932.798-1.932 1.911s.812 1.918 2.065 1.918c.644 0 1.169-.21 1.505-.609l-.469-.539c-.266.273-.595.406-1.015.406-.651 0-1.106-.35-1.211-.896h2.933l.014-.259zm-1.89-1.232c.574 0 .987.371 1.057.91h-2.121a1.03 1.03 0 0 1 1.064-.91zm5.475-.658v1.89c0 .749-.413 1.127-1.022 1.127-.553 0-.875-.322-.875-1.001v-2.016h-.875v2.135c0 1.127.651 1.652 1.61 1.652.483 0 .924-.182 1.204-.525V276h.833v-3.738h-.875zm2.853.546v-.546h-.833V276h.875v-1.813c0-.763.42-1.155 1.085-1.155a1.11 1.11 0 0 1 .203.021v-.833c-.623 0-1.078.196-1.33.588zm6.828-2.002v1.918c-.294-.343-.721-.504-1.204-.504-1.085 0-1.89.749-1.89 1.911s.805 1.918 1.89 1.918c.511 0 .945-.175 1.239-.532V276h.84v-5.194h-.875zm-1.099 4.494c-.63 0-1.113-.455-1.113-1.169s.483-1.169 1.113-1.169 1.113.455 1.113 1.169-.483 1.169-1.113 1.169zm6.632-1.148c0-1.169-.798-1.932-1.89-1.932-1.113 0-1.932.798-1.932 1.911s.812 1.918 2.065 1.918c.644 0 1.169-.21 1.505-.609l-.469-.539c-.266.273-.595.406-1.015.406-.651 0-1.106-.35-1.211-.896h2.933l.014-.259zm-1.89-1.232c.574 0 .987.371 1.057.91h-2.121a1.03 1.03 0 0 1 1.064-.91zm8.249-1.274c.329 0 .56-.238.56-.546 0-.287-.238-.504-.56-.504s-.56.231-.56.525.238.525.56.525zm-3.465.406v.238h-.616v.7h.616V276h.875v-3.01h1.001v-.7h-1.029v-.224c0-.399.189-.602.553-.602a.86.86 0 0 1 .483.154l.245-.658c-.196-.14-.49-.203-.791-.203-.868 0-1.337.511-1.337 1.295zm3.024 3.948h.875v-3.738h-.875V276zm3.74.049c.728 0 1.309-.315 1.596-.875l-.672-.392c-.224.357-.56.518-.931.518-.644 0-1.134-.441-1.134-1.169 0-.721.49-1.169 1.134-1.169.371 0 .707.161.931.518l.672-.392c-.287-.567-.868-.868-1.596-.868-1.183 0-2.023.791-2.023 1.911s.84 1.918 2.023 1.918zm4.439-3.829c-.518 0-.959.168-1.246.476v-1.89h-.875V276h.875v-1.89c0-.749.42-1.127 1.043-1.127.56 0 .889.322.889.987V276h.875v-2.142c0-1.127-.665-1.638-1.561-1.638zm3.112-.574c.329 0 .56-.238.56-.546 0-.287-.238-.504-.56-.504s-.56.231-.56.525.238.525.56.525zm-.441 4.354h.875v-3.738h-.875V276zm5.538-1.848c0-1.169-.798-1.932-1.89-1.932-1.113 0-1.932.798-1.932 1.911s.812 1.918 2.065 1.918c.644 0 1.169-.21 1.505-.609l-.469-.539c-.266.273-.595.406-1.015.406-.651 0-1.106-.35-1.211-.896h2.933l.014-.259zm-1.89-1.232c.574 0 .987.371 1.057.91h-2.121a1.03 1.03 0 0 1 1.064-.91zm3.563-.112v-.546h-.833V276h.875v-1.813c0-.763.42-1.155 1.085-1.155a1.11 1.11 0 0 1 .203.021v-.833c-.623 0-1.078.196-1.33.588zm3.241 3.241c1.05 0 1.694-.455 1.694-1.155 0-1.463-2.31-.791-2.31-1.547 0-.245.252-.42.784-.42.357 0 .714.07 1.071.28l.336-.665c-.336-.203-.903-.322-1.4-.322-1.008 0-1.645.462-1.645 1.169 0 1.491 2.31.819 2.31 1.533 0 .259-.231.413-.784.413-.469 0-.973-.154-1.302-.371l-.336.665c.336.238.959.42 1.582.42zm-51.105 9c1.05 0 1.694-.455 1.694-1.155 0-1.463-2.31-.791-2.31-1.547 0-.245.252-.42.784-.42.357 0 .714.07 1.071.28l.336-.665c-.336-.203-.903-.322-1.4-.322-1.008 0-1.645.462-1.645 1.169 0 1.491 2.31.819 2.31 1.533 0 .259-.231.413-.784.413-.469 0-.973-.154-1.302-.371l-.336.665c.336.238.959.42 1.582.42zm5.191-3.787v1.89c0 .749-.413 1.127-1.022 1.127-.553 0-.875-.322-.875-1.001v-2.016h-.875v2.135c0 1.127.651 1.652 1.61 1.652.483 0 .924-.182 1.204-.525V285h.833v-3.738h-.875zm2.854.546v-.546h-.833V285h.875v-1.813c0-.763.42-1.155 1.085-1.155a1.11 1.11 0 0 1 .203.021v-.833c-.623 0-1.078.196-1.33.588zm4.041 3.192h.875v-5.194h-.875V285zm5.537-1.848c0-1.169-.798-1.932-1.89-1.932-1.113 0-1.932.798-1.932 1.911s.812 1.918 2.065 1.918c.644 0 1.169-.21 1.505-.609l-.469-.539c-.266.273-.595.406-1.015.406-.651 0-1.106-.35-1.211-.896h2.933l.014-.259zm-1.89-1.232c.574 0 .987.371 1.057.91h-2.121a1.03 1.03 0 0 1 1.064-.91zm6.381 3.129c.728 0 1.309-.315 1.596-.875l-.672-.392c-.224.357-.56.518-.931.518-.644 0-1.134-.441-1.134-1.169 0-.721.49-1.169 1.134-1.169.371 0 .707.161.931.518l.672-.392c-.287-.567-.868-.868-1.596-.868-1.183 0-2.023.791-2.023 1.911s.84 1.918 2.023 1.918zm2.318-.049h.875v-5.194h-.875V285zm3.703.049c1.162 0 1.995-.798 1.995-1.918s-.833-1.911-1.995-1.911c-1.148 0-1.988.791-1.988 1.911s.84 1.918 1.988 1.918zm0-.749c-.63 0-1.106-.455-1.106-1.169s.476-1.169 1.106-1.169c.637 0 1.113.455 1.113 1.169s-.476 1.169-1.113 1.169zm5.576-3.038v1.89c0 .749-.413 1.127-1.022 1.127-.553 0-.875-.322-.875-1.001v-2.016h-.875v2.135c0 1.127.651 1.652 1.61 1.652.483 0 .924-.182 1.204-.525V285h.833v-3.738h-.875zm4.807-1.456v1.918c-.294-.343-.721-.504-1.204-.504-1.085 0-1.89.749-1.89 1.911s.805 1.918 1.89 1.918c.511 0 .945-.175 1.239-.532V285h.84v-5.194h-.875zm-1.099 4.494c-.63 0-1.113-.455-1.113-1.169s.483-1.169 1.113-1.169 1.113.455 1.113 1.169-.483 1.169-1.113 1.169zM94.846 260h1.17v-6.3h-1.17v6.3zm5.493-4.86c-.702 0-1.287.234-1.656.675v-.621h-1.071V260h1.125v-2.43c0-.963.54-1.449 1.341-1.449.72 0 1.143.414 1.143 1.269V260h1.125v-2.754c0-1.449-.855-2.106-2.007-2.106zm7.06-1.818v2.466c-.378-.441-.927-.648-1.548-.648-1.395 0-2.43.963-2.43 2.457s1.035 2.466 2.43 2.466c.657 0 1.215-.225 1.593-.684V260h1.08v-6.678h-1.125zm-1.413 5.778c-.81 0-1.431-.585-1.431-1.503s.621-1.503 1.431-1.503 1.431.585 1.431 1.503-.621 1.503-1.431 1.503zm8.528-1.476c0-1.503-1.026-2.484-2.43-2.484-1.431 0-2.484 1.026-2.484 2.457s1.044 2.466 2.655 2.466c.828 0 1.503-.27 1.935-.783l-.603-.693c-.342.351-.765.522-1.305.522-.837 0-1.422-.45-1.557-1.152h3.771l.018-.333zm-2.43-1.584c.738 0 1.269.477 1.359 1.17h-2.727c.108-.702.639-1.17 1.368-1.17zm7.708 3.96l-1.881-2.457 1.8-2.349h-1.215l-1.179 1.575-1.179-1.575h-1.251l1.791 2.367-1.872 2.439h1.242l1.242-1.665 1.233 1.665h1.269zm6.899-6.678v2.466c-.378-.441-.927-.648-1.548-.648-1.395 0-2.43.963-2.43 2.457s1.035 2.466 2.43 2.466c.657 0 1.215-.225 1.593-.684V260h1.08v-6.678h-1.125zm-1.413 5.778c-.81 0-1.431-.585-1.431-1.503s.621-1.503 1.431-1.503 1.431.585 1.431 1.503-.621 1.503-1.431 1.503zm8.528-1.476c0-1.503-1.026-2.484-2.43-2.484-1.431 0-2.484 1.026-2.484 2.457s1.044 2.466 2.655 2.466c.828 0 1.503-.27 1.935-.783l-.603-.693c-.342.351-.765.522-1.305.522-.837 0-1.422-.45-1.557-1.152h3.771l.018-.333zm-2.43-1.584c.738 0 1.269.477 1.359 1.17h-2.727c.108-.702.639-1.17 1.368-1.17zm4.995 4.023c1.35 0 2.178-.585 2.178-1.485 0-1.881-2.97-1.017-2.97-1.989 0-.315.324-.54 1.008-.54a2.63 2.63 0 0 1 1.377.36l.432-.855c-.432-.261-1.161-.414-1.8-.414-1.296 0-2.115.594-2.115 1.503 0 1.917 2.97 1.053 2.97 1.971 0 .333-.297.531-1.008.531-.603 0-1.251-.198-1.674-.477l-.432.855c.432.306 1.233.54 2.034.54zm-38.969 6.077c-.657 0-1.215.225-1.593.684v-.63h-1.071v6.552h1.125v-2.331c.387.441.927.648 1.539.648 1.404 0 2.439-.972 2.439-2.466 0-1.485-1.035-2.457-2.439-2.457zm-.126 3.96c-.81 0-1.431-.585-1.431-1.503s.621-1.503 1.431-1.503 1.422.585 1.422 1.503-.612 1.503-1.422 1.503zm6.359-3.96c-.666 0-1.233.216-1.602.612v-2.43h-1.125V271h1.125v-2.43c0-.963.54-1.449 1.341-1.449.72 0 1.143.414 1.143 1.269V271h1.125v-2.754c0-1.449-.855-2.106-2.007-2.106zm5.638 4.923c1.494 0 2.565-1.026 2.565-2.466s-1.071-2.457-2.565-2.457c-1.476 0-2.556 1.017-2.556 2.457s1.08 2.466 2.556 2.466zm0-.963c-.81 0-1.422-.585-1.422-1.503s.612-1.503 1.422-1.503c.819 0 1.431.585 1.431 1.503s-.612 1.503-1.431 1.503zm6.215-.162c-.171.135-.396.198-.63.198-.432 0-.666-.252-.666-.72v-2.286h1.287v-.9h-1.287v-1.098h-1.125v1.098h-.792v.9h.792v2.313c0 1.062.603 1.62 1.656 1.62.405 0 .81-.108 1.08-.324l-.315-.801zm3.242 1.125c1.494 0 2.565-1.026 2.565-2.466s-1.071-2.457-2.565-2.457c-1.476 0-2.556 1.017-2.556 2.457s1.08 2.466 2.556 2.466zm0-.963c-.81 0-1.422-.585-1.422-1.503s.612-1.503 1.422-1.503c.819 0 1.431.585 1.431 1.503s-.612 1.503-1.431 1.503zm5.126.963c1.35 0 2.178-.585 2.178-1.485 0-1.881-2.97-1.017-2.97-1.989 0-.315.324-.54 1.008-.54a2.63 2.63 0 0 1 1.377.36l.432-.855c-.432-.261-1.161-.414-1.8-.414-1.296 0-2.115.594-2.115 1.503 0 1.917 2.97 1.053 2.97 1.971 0 .333-.297.531-1.008.531-.603 0-1.251-.198-1.674-.477l-.432.855c.432.306 1.233.54 2.034.54zM95.799 287.09c1.728 0 2.547-.864 2.547-1.872 0-2.313-3.735-1.44-3.735-2.781 0-.477.396-.855 1.368-.855.549 0 1.17.162 1.737.495l.369-.909c-.549-.36-1.341-.558-2.097-.558-1.728 0-2.538.864-2.538 1.881 0 2.34 3.744 1.449 3.744 2.808 0 .468-.414.819-1.395.819-.774 0-1.575-.288-2.079-.693l-.405.909c.522.45 1.503.756 2.484.756zm5.435-4.95c-.774 0-1.521.198-2.034.594l.441.819c.36-.297.918-.477 1.458-.477.801 0 1.197.387 1.197 1.044v.072h-1.242c-1.458 0-1.998.63-1.998 1.431 0 .837.693 1.44 1.791 1.44.72 0 1.242-.234 1.512-.648V287h1.062v-2.817c0-1.386-.801-2.043-2.187-2.043zm-.153 4.104c-.576 0-.918-.261-.918-.666 0-.351.207-.639.972-.639h1.161v.558c-.189.495-.666.747-1.215.747zm7.312-4.05v2.43c0 .963-.531 1.449-1.314 1.449-.711 0-1.125-.414-1.125-1.287v-2.592h-1.125v2.745c0 1.449.837 2.124 2.07 2.124.621 0 1.188-.234 1.548-.675V287h1.071v-4.806h-1.125zm6.018 0l-1.539 3.564-1.494-3.564h-1.17l2.061 4.806h1.161l2.061-4.806h-1.08zm6.169 2.43c0-1.503-1.026-2.484-2.43-2.484-1.431 0-2.484 1.026-2.484 2.457s1.044 2.466 2.655 2.466c.828 0 1.503-.27 1.935-.783l-.603-.693c-.342.351-.765.522-1.305.522-.837 0-1.422-.45-1.557-1.152h3.771l.018-.333zm-2.43-1.584c.738 0 1.269.477 1.359 1.17h-2.727c.108-.702.639-1.17 1.368-1.17zm7.21-.846v.639c-.396-.477-.99-.693-1.665-.693-1.377 0-2.43.918-2.43 2.313s1.053 2.331 2.43 2.331c.648 0 1.215-.207 1.611-.639v.252c0 .972-.468 1.458-1.53 1.458-.666 0-1.35-.225-1.773-.576l-.504.846c.549.45 1.44.684 2.34.684 1.683 0 2.592-.792 2.592-2.538v-4.077h-1.071zm-1.494 3.636c-.855 0-1.467-.558-1.467-1.377 0-.81.612-1.359 1.467-1.359.846 0 1.458.549 1.458 1.359 0 .819-.612 1.377-1.458 1.377zm5.88-3.69c-.774 0-1.521.198-2.034.594l.441.819c.36-.297.918-.477 1.458-.477.801 0 1.197.387 1.197 1.044v.072h-1.242c-1.458 0-1.998.63-1.998 1.431 0 .837.693 1.44 1.791 1.44.72 0 1.242-.234 1.512-.648V287h1.062v-2.817c0-1.386-.801-2.043-2.187-2.043zm-.153 4.104c-.576 0-.918-.261-.918-.666 0-.351.207-.639.972-.639h1.161v.558c-.189.495-.666.747-1.215.747zm4.855-3.348v-.702h-1.071V287h1.125v-2.331c0-.981.54-1.485 1.395-1.485a1.43 1.43 0 0 1 .261.027v-1.071c-.801 0-1.386.252-1.71.756zm6.202-2.574v2.466c-.378-.441-.927-.648-1.548-.648-1.395 0-2.43.963-2.43 2.457s1.035 2.466 2.43 2.466c.657 0 1.215-.225 1.593-.684V287h1.08v-6.678h-1.125zm-1.413 5.778c-.81 0-1.431-.585-1.431-1.503s.621-1.503 1.431-1.503 1.431.585 1.431 1.503-.621 1.503-1.431 1.503zm8.528-1.476c0-1.503-1.026-2.484-2.43-2.484-1.431 0-2.484 1.026-2.484 2.457s1.044 2.466 2.655 2.466c.828 0 1.503-.27 1.935-.783l-.603-.693c-.342.351-.765.522-1.305.522-.837 0-1.422-.45-1.557-1.152h3.771l.018-.333zm-2.43-1.584c.738 0 1.269.477 1.359 1.17h-2.727c.108-.702.639-1.17 1.368-1.17zM93.738 298h1.125v-6.678h-1.125V298zm4.762.063c1.494 0 2.565-1.026 2.565-2.466s-1.071-2.457-2.565-2.457c-1.476 0-2.556 1.017-2.556 2.457s1.08 2.466 2.556 2.466zm0-.963c-.81 0-1.422-.585-1.422-1.503s.612-1.503 1.422-1.503c.819 0 1.431.585 1.431 1.503s-.612 1.503-1.431 1.503zm5.845.963c.936 0 1.683-.405 2.052-1.125l-.864-.504a1.36 1.36 0 0 1-1.197.666c-.828 0-1.458-.567-1.458-1.503 0-.927.63-1.503 1.458-1.503a1.36 1.36 0 0 1 1.197.666l.864-.504c-.369-.729-1.116-1.116-2.052-1.116-1.521 0-2.601 1.017-2.601 2.457s1.08 2.466 2.601 2.466zm4.861-4.923c-.774 0-1.521.198-2.034.594l.441.819c.36-.297.918-.477 1.458-.477.801 0 1.197.387 1.197 1.044v.072h-1.242c-1.458 0-1.998.63-1.998 1.431 0 .837.693 1.44 1.791 1.44.72 0 1.242-.234 1.512-.648V298h1.062v-2.817c0-1.386-.801-2.043-2.187-2.043zm-.153 4.104c-.576 0-.918-.261-.918-.666 0-.351.207-.639.972-.639h1.161v.558c-.189.495-.666.747-1.215.747zm3.784.756h1.125v-6.678h-1.125V298zm7.119-2.376c0-1.503-1.026-2.484-2.43-2.484-1.431 0-2.484 1.026-2.484 2.457s1.044 2.466 2.655 2.466c.828 0 1.503-.27 1.935-.783l-.603-.693c-.342.351-.765.522-1.305.522-.837 0-1.422-.45-1.557-1.152h3.771l.018-.333zm-2.43-1.584c.738 0 1.269.477 1.359 1.17h-2.727c.108-.702.639-1.17 1.368-1.17z"/><ellipse cx="543.116" cy="263.916" rx="1.966" ry="1.884" transform="rotate(90 543.116 263.916)"/></g><g class="E"><path d="M283.541 296.697L279 300.671l4.541 3.973"/><path d="M543.529 263.205l-37.465 37.466H279"/></g><ellipse cx="280.882" cy="269.865" rx="1.965" ry="1.882" transform="rotate(90 280.882 269.865)" class="C"/><path d="M540.29 238.767l4.566-3.939-4.51-4.003m-260.091 39.584l37.701-37.175 226.9 1.594" class="E"/><rect x="436" y="47" width="280" height="55.082" rx="5" class="I"/><rect x="442.577" y="53.722" width="84.737" height="42.201" rx="4.5" class="E F"/><path d="M463.023 68.193c1.728 0 2.547-.864 2.547-1.872 0-2.313-3.735-1.44-3.735-2.781 0-.477.396-.855 1.368-.855.549 0 1.17.162 1.737.495l.369-.909c-.549-.36-1.341-.558-2.097-.558-1.728 0-2.538.864-2.538 1.881 0 2.34 3.744 1.449 3.744 2.808 0 .468-.414.819-1.395.819-.774 0-1.575-.288-2.079-.693l-.405.909c.522.45 1.503.756 2.484.756zm8.117-2.466c0-1.503-1.026-2.484-2.43-2.484-1.431 0-2.484 1.026-2.484 2.457s1.044 2.466 2.655 2.466c.828 0 1.503-.27 1.935-.783l-.603-.693c-.342.351-.765.522-1.305.522-.837 0-1.422-.45-1.557-1.152h3.771l.018-.333zm-2.43-1.584c.738 0 1.269.477 1.359 1.17h-2.727c.108-.702.639-1.17 1.368-1.17zm4.581-.144v-.702h-1.071v4.806h1.125v-2.331c0-.981.54-1.485 1.395-1.485a1.43 1.43 0 0 1 .261.027v-1.071c-.801 0-1.386.252-1.71.756zm6.261-.702l-1.539 3.564-1.494-3.564h-1.17l2.061 4.806h1.161l2.061-4.806h-1.08zm2.35-.792a.69.69 0 0 0 .72-.702c0-.369-.306-.648-.72-.648s-.72.297-.72.675.306.675.72.675zm-.567 5.598h1.125v-4.806h-1.125v4.806zm4.806.063c.936 0 1.683-.405 2.052-1.125l-.864-.504a1.36 1.36 0 0 1-1.197.666c-.828 0-1.458-.567-1.458-1.503 0-.927.63-1.503 1.458-1.503a1.36 1.36 0 0 1 1.197.666l.864-.504c-.369-.729-1.116-1.116-2.052-1.116-1.521 0-2.601 1.017-2.601 2.457s1.08 2.466 2.601 2.466zm7.472-2.439c0-1.503-1.026-2.484-2.43-2.484-1.431 0-2.484 1.026-2.484 2.457s1.044 2.466 2.655 2.466c.828 0 1.503-.27 1.935-.783l-.603-.693c-.342.351-.765.522-1.305.522-.837 0-1.422-.45-1.557-1.152h3.771l.018-.333zm-2.43-1.584c.738 0 1.269.477 1.359 1.17h-2.727c.108-.702.639-1.17 1.368-1.17zm9.58-2.718v2.466c-.378-.441-.927-.648-1.548-.648-1.395 0-2.43.963-2.43 2.457s1.035 2.466 2.43 2.466c.657 0 1.215-.225 1.593-.684v.621h1.08v-6.678h-1.125zm-1.413 5.778c-.81 0-1.431-.585-1.431-1.503s.621-1.503 1.431-1.503 1.431.585 1.431 1.503-.621 1.503-1.431 1.503zm8.528-1.476c0-1.503-1.026-2.484-2.43-2.484-1.431 0-2.484 1.026-2.484 2.457s1.044 2.466 2.655 2.466c.828 0 1.503-.27 1.935-.783l-.603-.693c-.342.351-.765.522-1.305.522-.837 0-1.422-.45-1.557-1.152h3.771l.018-.333zm-2.43-1.584c.738 0 1.269.477 1.359 1.17h-2.727c.108-.702.639-1.17 1.368-1.17zm-43.666 10.154v.639c-.396-.477-.99-.693-1.665-.693-1.377 0-2.43.918-2.43 2.313s1.053 2.331 2.43 2.331c.648 0 1.215-.207 1.611-.639v.252c0 .972-.468 1.458-1.53 1.458-.666 0-1.35-.225-1.773-.576l-.504.846c.549.45 1.44.684 2.34.684 1.683 0 2.592-.792 2.592-2.538v-4.077h-1.071zm-1.494 3.636c-.855 0-1.467-.558-1.467-1.377 0-.81.612-1.359 1.467-1.359.846 0 1.458.549 1.458 1.359 0 .819-.612 1.377-1.458 1.377zm8.562-1.206c0-1.503-1.026-2.484-2.43-2.484-1.431 0-2.484 1.026-2.484 2.457s1.044 2.466 2.655 2.466c.828 0 1.503-.27 1.935-.783l-.603-.693c-.342.351-.765.522-1.305.522-.837 0-1.422-.45-1.557-1.152h3.771l.018-.333zm-2.43-1.584c.738 0 1.269.477 1.359 1.17h-2.727c.108-.702.639-1.17 1.368-1.17zm4.996 4.023c1.35 0 2.178-.585 2.178-1.485 0-1.881-2.97-1.017-2.97-1.989 0-.315.324-.54 1.008-.54a2.63 2.63 0 0 1 1.377.36l.432-.855c-.432-.261-1.161-.414-1.8-.414-1.296 0-2.115.594-2.115 1.503 0 1.917 2.97 1.053 2.97 1.971 0 .333-.297.531-1.008.531-.603 0-1.251-.198-1.674-.477l-.432.855c.432.306 1.233.54 2.034.54zm5.721-1.125c-.171.135-.396.198-.63.198-.432 0-.666-.252-.666-.72v-2.286h1.287v-.9h-1.287v-1.098h-1.125v1.098h-.792v.9h.792v2.313c0 1.062.603 1.62 1.656 1.62.405 0 .81-.108 1.08-.324l-.315-.801zm1.807-4.536a.69.69 0 0 0 .72-.702c0-.369-.306-.648-.72-.648s-.72.297-.72.675.306.675.72.675zm-.567 5.598h1.125v-4.806h-1.125v4.806zm4.762.063c1.494 0 2.565-1.026 2.565-2.466s-1.071-2.457-2.565-2.457c-1.476 0-2.556 1.017-2.556 2.457s1.08 2.466 2.556 2.466zm0-.963c-.81 0-1.422-.585-1.422-1.503s.612-1.503 1.422-1.503c.819 0 1.431.585 1.431 1.503s-.612 1.503-1.431 1.503zm6.368-3.96c-.702 0-1.287.234-1.656.675v-.621h-1.071v4.806h1.125v-2.43c0-.963.54-1.449 1.341-1.449.72 0 1.143.414 1.143 1.269v2.61h1.125v-2.754c0-1.449-.855-2.106-2.007-2.106zm9.503-1.818v2.466c-.378-.441-.927-.648-1.548-.648-1.395 0-2.43.963-2.43 2.457s1.035 2.466 2.43 2.466c.657 0 1.215-.225 1.593-.684v.621h1.08v-6.678h-1.125zm-1.413 5.778c-.81 0-1.431-.585-1.431-1.503s.621-1.503 1.431-1.503 1.431.585 1.431 1.503-.621 1.503-1.431 1.503zm8.528-1.476c0-1.503-1.026-2.484-2.43-2.484-1.431 0-2.484 1.026-2.484 2.457s1.044 2.466 2.655 2.466c.828 0 1.503-.27 1.935-.783l-.603-.693c-.342.351-.765.522-1.305.522-.837 0-1.422-.45-1.557-1.152h3.771l.018-.333zm-2.43-1.584c.738 0 1.269.477 1.359 1.17h-2.727c.108-.702.639-1.17 1.368-1.17zm4.995 4.023c1.35 0 2.178-.585 2.178-1.485 0-1.881-2.97-1.017-2.97-1.989 0-.315.324-.54 1.008-.54a2.63 2.63 0 0 1 1.377.36l.432-.855c-.432-.261-1.161-.414-1.8-.414-1.296 0-2.115.594-2.115 1.503 0 1.917 2.97 1.053 2.97 1.971 0 .333-.297.531-1.008.531-.603 0-1.251-.198-1.674-.477l-.432.855c.432.306 1.233.54 2.034.54zm-48.741 4.241h-1.323l-1.215 1.233h.972l1.566-1.233zm.675 4.32c0-1.503-1.026-2.484-2.43-2.484-1.431 0-2.484 1.026-2.484 2.457s1.044 2.466 2.655 2.466c.828 0 1.503-.27 1.935-.783l-.603-.693c-.342.351-.765.522-1.305.522-.837 0-1.422-.45-1.557-1.152h3.771l.018-.333zm-2.43-1.584c.738 0 1.269.477 1.359 1.17h-2.727c.108-.702.639-1.17 1.368-1.17zm6.842-.846l-1.539 3.564-1.494-3.564h-1.17l2.061 4.806h1.161l2.061-4.806h-1.08zm5.495-1.89h-1.323l-1.215 1.233h.972l1.566-1.233zm.675 4.32c0-1.503-1.026-2.484-2.43-2.484-1.431 0-2.484 1.026-2.484 2.457s1.044 2.466 2.655 2.466c.828 0 1.503-.27 1.935-.783l-.603-.693c-.342.351-.765.522-1.305.522-.837 0-1.422-.45-1.557-1.152h3.771l.018-.333zm-2.43-1.584c.738 0 1.269.477 1.359 1.17h-2.727c.108-.702.639-1.17 1.368-1.17zm6.237-.9c-.702 0-1.287.234-1.656.675v-.621h-1.071v4.806h1.125v-2.43c0-.963.54-1.449 1.341-1.449.72 0 1.143.414 1.143 1.269v2.61h1.125v-2.754c0-1.449-.855-2.106-2.007-2.106zm7.996 2.484c0-1.503-1.026-2.484-2.43-2.484-1.431 0-2.484 1.026-2.484 2.457s1.044 2.466 2.655 2.466c.828 0 1.503-.27 1.935-.783l-.603-.693c-.342.351-.765.522-1.305.522-.837 0-1.422-.45-1.557-1.152h3.771l.018-.333zm-2.43-1.584c.738 0 1.269.477 1.359 1.17h-2.727c.108-.702.639-1.17 1.368-1.17zm9.577-.9c-.765 0-1.413.306-1.8.801-.333-.54-.918-.801-1.62-.801-.657 0-1.215.234-1.575.666v-.612h-1.071v4.806h1.125v-2.439c0-.954.504-1.44 1.251-1.44.684 0 1.08.414 1.08 1.269v2.61h1.125v-2.439c0-.954.513-1.44 1.251-1.44.684 0 1.08.414 1.08 1.269v2.61h1.125v-2.754c0-1.449-.81-2.106-1.971-2.106zm7.971 2.484c0-1.503-1.026-2.484-2.43-2.484-1.431 0-2.484 1.026-2.484 2.457s1.044 2.466 2.655 2.466c.828 0 1.503-.27 1.935-.783l-.603-.693c-.342.351-.765.522-1.305.522-.837 0-1.422-.45-1.557-1.152h3.771l.018-.333zm-2.43-1.584c.738 0 1.269.477 1.359 1.17h-2.727c.108-.702.639-1.17 1.368-1.17zm6.237-.9c-.702 0-1.287.234-1.656.675v-.621h-1.071v4.806h1.125v-2.43c0-.963.54-1.449 1.341-1.449.72 0 1.143.414 1.143 1.269v2.61h1.125v-2.754c0-1.449-.855-2.106-2.007-2.106zm6.008 3.798c-.171.135-.396.198-.63.198-.432 0-.666-.252-.666-.72v-2.286h1.287v-.9h-1.287v-1.098h-1.125v1.098h-.792v.9h.792v2.313c0 1.062.603 1.62 1.656 1.62.405 0 .81-.108 1.08-.324l-.315-.801zm2.726 1.125c1.35 0 2.178-.585 2.178-1.485 0-1.881-2.97-1.017-2.97-1.989 0-.315.324-.54 1.008-.54a2.63 2.63 0 0 1 1.377.36l.432-.855c-.432-.261-1.161-.414-1.8-.414-1.296 0-2.115.594-2.115 1.503 0 1.917 2.97 1.053 2.97 1.971 0 .333-.297.531-1.008.531-.603 0-1.251-.198-1.674-.477l-.432.855c.432.306 1.233.54 2.034.54z" class="C"/><rect x="533.981" y="53.722" width="84.737" height="42.201" rx="4.5" class="E F"/><path d="M554.427 68.193c1.728 0 2.547-.864 2.547-1.872 0-2.313-3.735-1.44-3.735-2.781 0-.477.396-.855 1.368-.855.549 0 1.17.162 1.737.495l.369-.909c-.549-.36-1.341-.558-2.097-.558-1.728 0-2.538.864-2.538 1.881 0 2.34 3.744 1.449 3.744 2.808 0 .468-.414.819-1.395.819-.774 0-1.575-.288-2.079-.693l-.405.909c.522.45 1.503.756 2.484.756zm8.117-2.466c0-1.503-1.026-2.484-2.43-2.484-1.431 0-2.484 1.026-2.484 2.457s1.044 2.466 2.655 2.466c.828 0 1.503-.27 1.935-.783l-.603-.693c-.342.351-.765.522-1.305.522-.837 0-1.422-.45-1.557-1.152h3.771l.018-.333zm-2.43-1.584c.738 0 1.269.477 1.359 1.17h-2.727c.108-.702.639-1.17 1.368-1.17zm4.582-.144v-.702h-1.071v4.806h1.125v-2.331c0-.981.54-1.485 1.395-1.485a1.43 1.43 0 0 1 .261.027v-1.071c-.801 0-1.386.252-1.71.756zm6.26-.702l-1.539 3.564-1.494-3.564h-1.17l2.061 4.806h1.161l2.061-4.806h-1.08zm2.35-.792a.69.69 0 0 0 .72-.702c0-.369-.306-.648-.72-.648s-.72.297-.72.675.306.675.72.675zm-.567 5.598h1.125v-4.806h-1.125v4.806zm4.807.063c.936 0 1.683-.405 2.052-1.125l-.864-.504a1.36 1.36 0 0 1-1.197.666c-.828 0-1.458-.567-1.458-1.503 0-.927.63-1.503 1.458-1.503a1.36 1.36 0 0 1 1.197.666l.864-.504c-.369-.729-1.116-1.116-2.052-1.116-1.521 0-2.601 1.017-2.601 2.457s1.08 2.466 2.601 2.466zm7.472-2.439c0-1.503-1.026-2.484-2.43-2.484-1.431 0-2.484 1.026-2.484 2.457s1.044 2.466 2.655 2.466c.828 0 1.503-.27 1.935-.783l-.603-.693c-.342.351-.765.522-1.305.522-.837 0-1.422-.45-1.557-1.152H585l.018-.333zm-2.43-1.584c.738 0 1.269.477 1.359 1.17h-2.727c.108-.702.639-1.17 1.368-1.17zm9.58-2.718v2.466c-.378-.441-.927-.648-1.548-.648-1.395 0-2.43.963-2.43 2.457s1.035 2.466 2.43 2.466c.657 0 1.215-.225 1.593-.684v.621h1.08v-6.678h-1.125zm-1.413 5.778c-.81 0-1.431-.585-1.431-1.503s.621-1.503 1.431-1.503 1.431.585 1.431 1.503-.621 1.503-1.431 1.503zm8.527-1.476c0-1.503-1.026-2.484-2.43-2.484-1.431 0-2.484 1.026-2.484 2.457s1.044 2.466 2.655 2.466c.828 0 1.503-.27 1.935-.783l-.603-.693c-.342.351-.765.522-1.305.522-.837 0-1.422-.45-1.557-1.152h3.771l.018-.333zm-2.43-1.584c.738 0 1.269.477 1.359 1.17h-2.727c.108-.702.639-1.17 1.368-1.17zm-43.665 10.154v.639c-.396-.477-.99-.693-1.665-.693-1.377 0-2.43.918-2.43 2.313s1.053 2.331 2.43 2.331c.648 0 1.215-.207 1.611-.639v.252c0 .972-.468 1.458-1.53 1.458-.666 0-1.35-.225-1.773-.576l-.504.846c.549.45 1.44.684 2.34.684 1.683 0 2.592-.792 2.592-2.538v-4.077h-1.071zm-1.494 3.636c-.855 0-1.467-.558-1.467-1.377 0-.81.612-1.359 1.467-1.359.846 0 1.458.549 1.458 1.359 0 .819-.612 1.377-1.458 1.377zm8.562-1.206c0-1.503-1.026-2.484-2.43-2.484-1.431 0-2.484 1.026-2.484 2.457s1.044 2.466 2.655 2.466c.828 0 1.503-.27 1.935-.783l-.603-.693c-.342.351-.765.522-1.305.522-.837 0-1.422-.45-1.557-1.152h3.771l.018-.333zm-2.43-1.584c.738 0 1.269.477 1.359 1.17h-2.727c.108-.702.639-1.17 1.368-1.17zm4.995 4.023c1.35 0 2.178-.585 2.178-1.485 0-1.881-2.97-1.017-2.97-1.989 0-.315.324-.54 1.008-.54a2.63 2.63 0 0 1 1.377.36l.432-.855c-.432-.261-1.161-.414-1.8-.414-1.296 0-2.115.594-2.115 1.503 0 1.917 2.97 1.053 2.97 1.971 0 .333-.297.531-1.008.531-.603 0-1.251-.198-1.674-.477l-.432.855c.432.306 1.233.54 2.034.54zm5.721-1.125c-.171.135-.396.198-.63.198-.432 0-.666-.252-.666-.72v-2.286h1.287v-.9h-1.287v-1.098h-1.125v1.098h-.792v.9h.792v2.313c0 1.062.603 1.62 1.656 1.62.405 0 .81-.108 1.08-.324l-.315-.801zm1.807-4.536a.69.69 0 0 0 .72-.702c0-.369-.306-.648-.72-.648s-.72.297-.72.675.306.675.72.675zm-.567 5.598h1.125v-4.806h-1.125v4.806zm4.762.063c1.494 0 2.565-1.026 2.565-2.466s-1.071-2.457-2.565-2.457c-1.476 0-2.556 1.017-2.556 2.457s1.08 2.466 2.556 2.466zm0-.963c-.81 0-1.422-.585-1.422-1.503s.612-1.503 1.422-1.503c.819 0 1.431.585 1.431 1.503s-.612 1.503-1.431 1.503zm6.368-3.96c-.702 0-1.287.234-1.656.675v-.621h-1.071v4.806h1.125v-2.43c0-.963.54-1.449 1.341-1.449.72 0 1.143.414 1.143 1.269v2.61h1.125v-2.754c0-1.449-.855-2.106-2.007-2.106zm9.503-1.818v2.466c-.378-.441-.927-.648-1.548-.648-1.395 0-2.43.963-2.43 2.457s1.035 2.466 2.43 2.466c.657 0 1.215-.225 1.593-.684v.621h1.08v-6.678h-1.125zm-1.413 5.778c-.81 0-1.431-.585-1.431-1.503s.621-1.503 1.431-1.503 1.431.585 1.431 1.503-.621 1.503-1.431 1.503zm8.528-1.476c0-1.503-1.026-2.484-2.43-2.484-1.431 0-2.484 1.026-2.484 2.457s1.044 2.466 2.655 2.466c.828 0 1.503-.27 1.935-.783l-.603-.693c-.342.351-.765.522-1.305.522-.837 0-1.422-.45-1.557-1.152h3.771l.018-.333zm-2.43-1.584c.738 0 1.269.477 1.359 1.17h-2.727c.108-.702.639-1.17 1.368-1.17zm4.996 4.023c1.35 0 2.178-.585 2.178-1.485 0-1.881-2.97-1.017-2.97-1.989 0-.315.324-.54 1.008-.54a2.63 2.63 0 0 1 1.377.36l.432-.855c-.432-.261-1.161-.414-1.8-.414-1.296 0-2.115.594-2.115 1.503 0 1.917 2.97 1.053 2.97 1.971 0 .333-.297.531-1.008.531-.603 0-1.251-.198-1.674-.477l-.432.855c.432.306 1.233.54 2.034.54zm-49.025 6.077c-.657 0-1.215.225-1.593.684v-.63h-1.071v6.552h1.125v-2.331c.387.441.927.648 1.539.648 1.404 0 2.439-.972 2.439-2.466 0-1.485-1.035-2.457-2.439-2.457zm-.126 3.96c-.81 0-1.431-.585-1.431-1.503s.621-1.503 1.431-1.503 1.422.585 1.422 1.503-.612 1.503-1.422 1.503zm5.407-3.96c-.774 0-1.521.198-2.034.594l.441.819c.36-.297.918-.477 1.458-.477.801 0 1.197.387 1.197 1.044v.072h-1.242c-1.458 0-1.998.63-1.998 1.431 0 .837.693 1.44 1.791 1.44.72 0 1.242-.234 1.512-.648v.585h1.062v-2.817c0-1.386-.801-2.043-2.187-2.043zm-.153 4.104c-.576 0-.918-.261-.918-.666 0-.351.207-.639.972-.639h1.161v.558c-.189.495-.666.747-1.215.747zm4.855-3.348v-.702h-1.071v4.806h1.125v-2.331c0-.981.54-1.485 1.395-1.485a1.43 1.43 0 0 1 .261.027v-1.071c-.801 0-1.386.252-1.71.756zm5.414 3.042c-.171.135-.396.198-.63.198-.432 0-.666-.252-.666-.72v-2.286h1.287v-.9h-1.287v-1.098h-1.125v1.098h-.792v.9h.792v2.313c0 1.062.603 1.62 1.656 1.62.405 0 .81-.108 1.08-.324l-.315-.801zm1.807-4.536a.69.69 0 0 0 .72-.702c0-.369-.306-.648-.72-.648s-.72.297-.72.675.306.675.72.675zm-.567 5.598h1.125v-4.806h-1.125v4.806zm4.807.063c.936 0 1.683-.405 2.052-1.125l-.864-.504a1.36 1.36 0 0 1-1.197.666c-.828 0-1.458-.567-1.458-1.503 0-.927.63-1.503 1.458-1.503a1.36 1.36 0 0 1 1.197.666l.864-.504c-.369-.729-1.116-1.116-2.052-1.116-1.521 0-2.601 1.017-2.601 2.457s1.08 2.466 2.601 2.466zm3.591-5.661a.69.69 0 0 0 .72-.702c0-.369-.306-.648-.72-.648s-.72.297-.72.675.306.675.72.675zm-.567 5.598h1.125v-4.806h-1.125v4.806zm5.266-4.86c-.657 0-1.215.225-1.593.684v-.63h-1.071v6.552h1.125v-2.331c.387.441.927.648 1.539.648 1.404 0 2.439-.972 2.439-2.466 0-1.485-1.035-2.457-2.439-2.457zm-.126 3.96c-.81 0-1.431-.585-1.431-1.503s.621-1.503 1.431-1.503 1.422.585 1.422 1.503-.612 1.503-1.422 1.503zm5.406-3.96c-.774 0-1.521.198-2.034.594l.441.819c.36-.297.918-.477 1.458-.477.801 0 1.197.387 1.197 1.044v.072h-1.242c-1.458 0-1.998.63-1.998 1.431 0 .837.693 1.44 1.791 1.44.72 0 1.242-.234 1.512-.648v.585h1.062v-2.817c0-1.386-.801-2.043-2.187-2.043zm-.153 4.104c-.576 0-.918-.261-.918-.666 0-.351.207-.639.972-.639h1.161v.558c-.189.495-.666.747-1.215.747zm6.511-4.104c-.702 0-1.287.234-1.656.675v-.621h-1.071v4.806h1.125v-2.43c0-.963.54-1.449 1.341-1.449.72 0 1.143.414 1.143 1.269v2.61h1.125v-2.754c0-1.449-.855-2.106-2.007-2.106zm6.008 3.798c-.171.135-.396.198-.63.198-.432 0-.666-.252-.666-.72v-2.286h1.287v-.9h-1.287v-1.098h-1.125v1.098h-.792v.9h.792v2.313c0 1.062.603 1.62 1.656 1.62.405 0 .81-.108 1.08-.324l-.315-.801zm2.726 1.125c1.35 0 2.178-.585 2.178-1.485 0-1.881-2.97-1.017-2.97-1.989 0-.315.324-.54 1.008-.54a2.63 2.63 0 0 1 1.377.36l.432-.855c-.432-.261-1.161-.414-1.8-.414-1.296 0-2.115.594-2.115 1.503 0 1.917 2.97 1.053 2.97 1.971 0 .333-.297.531-1.008.531-.603 0-1.251-.198-1.674-.477l-.432.855c.432.306 1.233.54 2.034.54z" class="C"/><rect x="625.241" y="53.722" width="84.737" height="42.201" rx="4.5" class="E F"/><path d="M646.615 69.23c1.728 0 2.547-.864 2.547-1.872 0-2.313-3.735-1.44-3.735-2.781 0-.477.396-.855 1.368-.855.549 0 1.17.162 1.737.495l.369-.909c-.549-.36-1.341-.558-2.097-.558-1.728 0-2.538.864-2.538 1.881 0 2.34 3.744 1.449 3.744 2.808 0 .468-.414.819-1.395.819-.774 0-1.575-.288-2.079-.693l-.405.909c.522.45 1.503.756 2.484.756zm8.117-2.466c0-1.503-1.026-2.484-2.43-2.484-1.431 0-2.484 1.026-2.484 2.457s1.044 2.466 2.655 2.466c.828 0 1.503-.27 1.935-.783l-.603-.693c-.342.351-.765.522-1.305.522-.837 0-1.422-.45-1.557-1.152h3.771l.018-.333zm-2.43-1.584c.738 0 1.269.477 1.359 1.17h-2.727c.108-.702.639-1.17 1.368-1.17zm4.582-.144v-.702h-1.071v4.806h1.125v-2.331c0-.981.54-1.485 1.395-1.485a1.43 1.43 0 0 1 .261.027V64.28c-.801 0-1.386.252-1.71.756zm6.26-.702l-1.539 3.564-1.494-3.564h-1.17l2.061 4.806h1.161l2.061-4.806h-1.08zm2.35-.792a.69.69 0 0 0 .72-.702c0-.369-.306-.648-.72-.648s-.72.297-.72.675.306.675.72.675zm-.567 5.598h1.125v-4.806h-1.125v4.806zm4.807.063c.936 0 1.683-.405 2.052-1.125l-.864-.504a1.36 1.36 0 0 1-1.197.666c-.828 0-1.458-.567-1.458-1.503 0-.927.63-1.503 1.458-1.503a1.36 1.36 0 0 1 1.197.666l.864-.504c-.369-.729-1.116-1.116-2.052-1.116-1.521 0-2.601 1.017-2.601 2.457s1.08 2.466 2.601 2.466zm7.472-2.439c0-1.503-1.026-2.484-2.43-2.484-1.431 0-2.484 1.026-2.484 2.457s1.044 2.466 2.655 2.466c.828 0 1.503-.27 1.935-.783l-.603-.693c-.342.351-.765.522-1.305.522-.837 0-1.422-.45-1.557-1.152h3.771l.018-.333zm-2.43-1.584c.738 0 1.269.477 1.359 1.17h-2.727c.108-.702.639-1.17 1.368-1.17zm9.58-2.718v2.466c-.378-.441-.927-.648-1.548-.648-1.395 0-2.43.963-2.43 2.457s1.035 2.466 2.43 2.466c.657 0 1.215-.225 1.593-.684v.621h1.08v-6.678h-1.125zm-1.413 5.778c-.81 0-1.431-.585-1.431-1.503s.621-1.503 1.431-1.503 1.431.585 1.431 1.503-.621 1.503-1.431 1.503zm8.527-1.476c0-1.503-1.026-2.484-2.43-2.484-1.431 0-2.484 1.026-2.484 2.457s1.044 2.466 2.655 2.466c.828 0 1.503-.27 1.935-.783l-.603-.693c-.342.351-.765.522-1.305.522-.837 0-1.422-.45-1.557-1.152h3.771l.018-.333zm-2.43-1.584c.738 0 1.269.477 1.359 1.17h-2.727c.108-.702.639-1.17 1.368-1.17zm-43.666 10.154v.639c-.396-.477-.99-.693-1.665-.693-1.377 0-2.43.918-2.43 2.313s1.053 2.331 2.43 2.331c.648 0 1.215-.207 1.611-.639v.252c0 .972-.468 1.458-1.53 1.458-.666 0-1.35-.225-1.773-.576l-.504.846c.549.45 1.44.684 2.34.684 1.683 0 2.592-.792 2.592-2.538v-4.077h-1.071zm-1.494 3.636c-.855 0-1.467-.558-1.467-1.377 0-.81.612-1.359 1.467-1.359.846 0 1.458.549 1.458 1.359 0 .819-.612 1.377-1.458 1.377zm8.563-1.206c0-1.503-1.026-2.484-2.43-2.484-1.431 0-2.484 1.026-2.484 2.457s1.044 2.466 2.655 2.466c.828 0 1.503-.27 1.935-.783l-.603-.693c-.342.351-.765.522-1.305.522-.837 0-1.422-.45-1.557-1.152h3.771l.018-.333zm-2.43-1.584c.738 0 1.269.477 1.359 1.17h-2.727c.108-.702.639-1.17 1.368-1.17zm4.995 4.023c1.35 0 2.178-.585 2.178-1.485 0-1.881-2.97-1.017-2.97-1.989 0-.315.324-.54 1.008-.54a2.63 2.63 0 0 1 1.377.36l.432-.855c-.432-.261-1.161-.414-1.8-.414-1.296 0-2.115.594-2.115 1.503 0 1.917 2.97 1.053 2.97 1.971 0 .333-.297.531-1.008.531-.603 0-1.251-.198-1.674-.477l-.432.855c.432.306 1.233.54 2.034.54zm5.721-1.125c-.171.135-.396.198-.63.198-.432 0-.666-.252-.666-.72V76.27h1.287v-.9h-1.287v-1.098h-1.125v1.098h-.792v.9h.792v2.313c0 1.062.603 1.62 1.656 1.62.405 0 .81-.108 1.08-.324l-.315-.801zm1.807-4.536a.69.69 0 0 0 .72-.702c0-.369-.306-.648-.72-.648s-.72.297-.72.675.306.675.72.675zm-.567 5.598h1.125v-4.806h-1.125v4.806zm4.762.063c1.494 0 2.565-1.026 2.565-2.466s-1.071-2.457-2.565-2.457c-1.476 0-2.556 1.017-2.556 2.457s1.08 2.466 2.556 2.466zm0-.963c-.81 0-1.422-.585-1.422-1.503s.612-1.503 1.422-1.503c.819 0 1.431.585 1.431 1.503s-.612 1.503-1.431 1.503zm6.368-3.96c-.702 0-1.287.234-1.656.675v-.621h-1.071v4.806h1.125v-2.43c0-.963.54-1.449 1.341-1.449.72 0 1.143.414 1.143 1.269v2.61h1.125v-2.754c0-1.449-.855-2.106-2.007-2.106zm9.503-1.818v2.466c-.378-.441-.927-.648-1.548-.648-1.395 0-2.43.963-2.43 2.457s1.035 2.466 2.43 2.466c.657 0 1.215-.225 1.593-.684v.621h1.08v-6.678h-1.125zm-1.413 5.778c-.81 0-1.431-.585-1.431-1.503s.621-1.503 1.431-1.503 1.431.585 1.431 1.503-.621 1.503-1.431 1.503zm8.528-1.476c0-1.503-1.026-2.484-2.43-2.484-1.431 0-2.484 1.026-2.484 2.457s1.044 2.466 2.655 2.466c.828 0 1.503-.27 1.935-.783l-.603-.693c-.342.351-.765.522-1.305.522-.837 0-1.422-.45-1.557-1.152h3.771l.018-.333zm-2.43-1.584c.738 0 1.269.477 1.359 1.17h-2.727c.108-.702.639-1.17 1.368-1.17zm4.996 4.023c1.35 0 2.178-.585 2.178-1.485 0-1.881-2.97-1.017-2.97-1.989 0-.315.324-.54 1.008-.54a2.63 2.63 0 0 1 1.377.36l.432-.855c-.432-.261-1.161-.414-1.8-.414-1.296 0-2.115.594-2.115 1.503 0 1.917 2.97 1.053 2.97 1.971 0 .333-.297.531-1.008.531-.603 0-1.251-.198-1.674-.477l-.432.855c.432.306 1.233.54 2.034.54zm-37.199 6.077c-.657 0-1.215.225-1.593.684v-.63h-1.071v6.552h1.125v-2.331c.387.441.927.648 1.539.648 1.404 0 2.439-.972 2.439-2.466 0-1.485-1.035-2.457-2.439-2.457zm-.126 3.96c-.81 0-1.431-.585-1.431-1.503s.621-1.503 1.431-1.503 1.422.585 1.422 1.503-.612 1.503-1.422 1.503zm6.359-3.96c-.666 0-1.233.216-1.602.612v-2.43h-1.125v6.678h1.125v-2.43c0-.963.54-1.449 1.341-1.449.72 0 1.143.414 1.143 1.269v2.61h1.125v-2.754c0-1.449-.855-2.106-2.007-2.106zm5.638 4.923c1.494 0 2.565-1.026 2.565-2.466s-1.071-2.457-2.565-2.457c-1.476 0-2.556 1.017-2.556 2.457s1.08 2.466 2.556 2.466zm0-.963c-.81 0-1.422-.585-1.422-1.503s.612-1.503 1.422-1.503c.819 0 1.431.585 1.431 1.503s-.612 1.503-1.431 1.503zm6.215-.162c-.171.135-.396.198-.63.198-.432 0-.666-.252-.666-.72V87.27h1.287v-.9h-1.287v-1.098h-1.125v1.098h-.792v.9h.792v2.313c0 1.062.603 1.62 1.656 1.62.405 0 .81-.108 1.08-.324l-.315-.801zm3.242 1.125c1.494 0 2.565-1.026 2.565-2.466s-1.071-2.457-2.565-2.457c-1.476 0-2.556 1.017-2.556 2.457s1.08 2.466 2.556 2.466zm0-.963c-.81 0-1.422-.585-1.422-1.503s.612-1.503 1.422-1.503c.819 0 1.431.585 1.431 1.503s-.612 1.503-1.431 1.503zm5.126.963c1.35 0 2.178-.585 2.178-1.485 0-1.881-2.97-1.017-2.97-1.989 0-.315.324-.54 1.008-.54a2.63 2.63 0 0 1 1.377.36l.432-.855c-.432-.261-1.161-.414-1.8-.414-1.296 0-2.115.594-2.115 1.503 0 1.917 2.97 1.053 2.97 1.971 0 .333-.297.531-1.008.531-.603 0-1.251-.198-1.674-.477l-.432.855c.432.306 1.233.54 2.034.54z" class="C"/><g class="E"><path d="M572 101.5v16" stroke-width="1.5" stroke-dasharray="10 2"/><path d="M687 158.5V202h99" stroke-width="2" stroke-dasharray="5 3"/></g><path d="M791.707 202.707a1 1 0 0 0 0-1.414l-6.364-6.364a1 1 0 0 0-1.414 1.414l5.657 5.657-5.657 5.657a1 1 0 0 0 1.414 1.414l6.364-6.364zM785 203h6v-2h-6v2z" class="C"/><defs><clipPath id="A"><path transform="translate(574.188 236.881)" d="M0 0h33.168v33.168H0z" class="F"/></clipPath><path id="B" d="M580.742 251.93l.002.693 4.814-2.779-.002-.693-4.814 2.779z"/><path id="C" d="M557.958 224.662l.624-.363 13.29 7.673-.624.363-13.29-7.673z"/><path id="D" d="M571.248 232.335l-.014 3.387-13.289-7.672.013-3.388 13.29 7.673z"/><path id="E" d="M561.099 227.394l-.002.463-.929-.536.002-.463.929.536z"/><path id="F" d="M570.028 232.549l-.002.463-.931-.537.002-.463.931.537z"/><path id="G" d="M569.248 233.312c.099.057.176.193.176.304s-.078.158-.177.101-.174-.192-.173-.303.078-.157.174-.102z"/><path id="H" d="M568.177 233.039c.068-.04.068-.168-.001-.287s-.18-.182-.249-.142-.068.168.001.287.18.182.249.142z"/><path id="I" d="M558.411 225.357l-.08-.046-.011 2.522 12.542 7.241.01-2.523-12.461-7.194zm12.344 9.532l-12.327-7.117.01-2.277 12.326 7.117-.009 2.277z"/><path id="J" d="M571.248 237.428l-.014 3.387-13.289-7.673.013-3.387 13.29 7.673z"/><path id="K" d="M821.047 121.13v6.987c-.007 1.759-1.657 3.515-4.954 4.857-6.635 2.701-17.429 2.701-24.108 0-3.361-1.359-5.039-3.144-5.032-4.925v-6.987c-.007 1.781 1.671 3.566 5.032 4.925 6.679 2.701 17.473 2.701 24.108 0 3.297-1.342 4.947-3.098 4.954-4.857z"/><path id="L" d="M186.206 271.244c.005-3.591-7.47-6.514-16.696-6.529s-16.711 2.885-16.717 6.476 7.47 6.514 16.696 6.529 16.711-2.885 16.717-6.476z"/><path id="M" d="M841.259 237.725v1.488h-3.047c-.913 0-1.655-.811-1.655-1.808v-2.31h2.295c1.323 0 2.407 1.184 2.407 2.63z"/><path id="N" d="M827.401 240.265h-.112c-.317 0-.576-.283-.576-.63v-1.707c0-.346.259-.629.576-.629h.112c.318 0 .577.283.577.629v1.707c0 .347-.259.63-.577.63z"/></defs></svg>