<svg width="67" height="67" viewBox="0 0 67 67" fill="none" xmlns="http://www.w3.org/2000/svg">
<g clip-path="url(#clip0)">
<path d="M28.4862 40.0604L28.5057 40.0883L25.7168 46.8246C23.0406 45.1114 21.0045 42.563 19.9241 39.5746L27.121 38.3547L27.1322 38.3687C27.3507 38.3285 27.576 38.3483 27.7841 38.4261C27.9923 38.5038 28.1754 38.6366 28.3141 38.8102C28.4527 38.9838 28.5417 39.1917 28.5715 39.4119C28.6013 39.6321 28.5709 39.8562 28.4834 40.0604H28.4862ZM26.1607 34.1169C26.375 34.0583 26.5693 33.9426 26.7231 33.7822C26.8768 33.6218 26.9842 33.4228 27.0337 33.2062C27.0833 32.9897 27.0732 32.7637 27.0045 32.5524C26.9358 32.3411 26.8111 32.1525 26.6437 32.0064L26.6492 31.9757L21.1748 27.0792C19.5047 29.7976 18.7877 32.9948 19.1369 36.166L26.1551 34.1421L26.1607 34.1169V34.1169ZM29.3572 28.5894C29.5368 28.7205 29.7487 28.8004 29.9701 28.8205C30.1916 28.8407 30.4144 28.8003 30.6147 28.7037C30.815 28.6071 30.9854 28.458 31.1076 28.2722C31.2298 28.0863 31.2992 27.8708 31.3085 27.6487L31.3365 27.6347L31.7552 20.3205C28.5847 20.6912 25.628 22.1076 23.3523 24.3461L29.346 28.5978L29.3572 28.5922V28.5894ZM31.4788 36.2665L33.4972 37.2408L35.5128 36.2721L36.0153 34.0946L34.6195 32.3554H32.375L30.9791 34.0946L31.4788 36.2693V36.2665ZM35.6663 27.6263C35.6758 27.8487 35.7455 28.0644 35.868 28.2503C35.9906 28.4361 36.1613 28.5852 36.362 28.6816C36.5627 28.7779 36.7858 28.8179 37.0075 28.7972C37.2292 28.7766 37.441 28.6961 37.6205 28.5643L37.6428 28.5727L43.6003 24.3489C41.3324 22.128 38.3977 20.7136 35.2476 20.3233L35.6608 27.6235L35.6663 27.6263V27.6263ZM66.0285 44.2926L49.9122 64.3395C49.4924 64.8588 48.9614 65.2773 48.3585 65.5643C47.7556 65.8512 47.096 65.9994 46.4282 65.9978L20.5746 66.0061C19.9069 66.0067 19.2475 65.8574 18.6451 65.5695C18.0426 65.2816 17.5124 64.8622 17.0934 64.3423L0.968708 44.2982C0.553818 43.7792 0.2613 43.1733 0.112917 42.5256C-0.0354659 41.878 -0.0358935 41.2052 0.111666 40.5573L5.8625 15.5579C6.164 14.2459 7.04896 13.1459 8.27171 12.5625L31.5598 1.43211C32.1634 1.14363 32.824 0.993896 33.493 0.993896C34.1621 0.993896 34.8226 1.14363 35.4262 1.43211L58.7227 12.5569C59.9455 13.1404 60.8304 14.2431 61.1319 15.5524L66.8883 40.5517C67.1898 41.8638 66.8744 43.2401 66.0285 44.2926ZM56.8467 38.5501C56.7295 38.5222 56.5592 38.4775 56.4419 38.4552C55.9562 38.3631 55.5625 38.3854 55.1047 38.3491C54.1276 38.2458 53.3236 38.1621 52.6062 37.9359C52.313 37.8243 52.1037 37.4753 52.0032 37.3329L51.442 37.1682C51.7411 34.9984 51.6418 32.7922 51.1489 30.6581C50.6553 28.5022 49.7695 26.4554 48.5359 24.6197C48.6811 24.4885 48.9547 24.2484 49.03 24.1758C49.0524 23.9246 49.0328 23.6649 49.2925 23.3886C49.8424 22.8721 50.532 22.445 51.3667 21.9313C51.7631 21.6968 52.1288 21.5489 52.5252 21.2557C52.6145 21.1887 52.7374 21.0827 52.8323 21.0073C53.5023 20.4741 53.6558 19.5556 53.1757 18.9526C52.6955 18.3496 51.7631 18.2938 51.0959 18.827C51.001 18.9024 50.8725 19.0001 50.786 19.0727C50.4119 19.3965 50.1802 19.7147 49.8647 20.0497C49.178 20.7477 48.6085 21.3283 47.986 21.7499C47.7152 21.9062 47.3187 21.8532 47.1401 21.842L46.6097 22.2189C43.5562 19.0146 39.4434 17.0276 35.0354 16.6272L35.0019 16.0046C34.8205 15.8315 34.6027 15.6836 34.5469 15.3067C34.4855 14.5585 34.5888 13.7517 34.706 12.7802C34.7702 12.3252 34.8763 11.9483 34.8958 11.4542C34.8986 11.3425 34.893 11.1778 34.893 11.0578C34.893 10.2035 34.2677 9.5084 33.4972 9.5084C32.7295 9.5084 32.1042 10.2035 32.1042 11.0578L32.107 11.0969C32.107 11.2113 32.1014 11.3537 32.107 11.4542C32.1237 11.9483 32.2298 12.3252 32.294 12.7802C32.4113 13.7517 32.5117 14.5585 32.4503 15.3095C32.3711 15.5877 32.2142 15.8375 31.9981 16.0297L31.9646 16.6188C27.5284 16.975 23.3831 18.9681 20.3345 22.2105C20.1654 22.0936 19.9979 21.9745 19.832 21.8532C19.5808 21.8867 19.3295 21.9648 19.0029 21.7722C18.3803 21.3534 17.8108 20.7728 17.1241 20.0749C16.8086 19.7399 16.5797 19.4216 16.2056 19.1006C16.1219 19.028 15.9907 18.9275 15.8957 18.8549C15.6198 18.6312 15.2792 18.502 14.9243 18.4864C14.7135 18.4752 14.503 18.5139 14.31 18.5992C14.1169 18.6846 13.9467 18.8143 13.8132 18.9777C13.333 19.5807 13.4865 20.502 14.1565 21.0352L14.1761 21.0492L14.4664 21.2809C14.8628 21.574 15.2258 21.7247 15.6222 21.9564C16.4569 22.4729 17.1464 22.9 17.6964 23.4137C17.9085 23.6426 17.9476 24.0446 17.9755 24.2177L18.4222 24.6169C15.9553 28.3158 14.9413 32.7954 15.5747 37.1962L14.994 37.3637C14.8405 37.5647 14.6228 37.8773 14.3938 37.9694C13.6764 38.1956 12.8696 38.2765 11.8953 38.3798C11.4375 38.4189 11.0438 38.3966 10.5553 38.4887C10.452 38.5082 10.304 38.5445 10.184 38.5724L10.1728 38.578L10.1533 38.5836C9.32975 38.7818 8.80212 39.5384 8.97242 40.2809C9.14271 41.0263 9.94671 41.4786 10.773 41.2999L10.7926 41.2971L10.8205 41.2887L11.1806 41.2078C11.6552 41.0794 12.0014 40.8923 12.4313 40.7276C13.3525 40.3982 14.1175 40.1218 14.86 40.0129C15.1727 39.9878 15.5021 40.2056 15.664 40.2949L16.2698 40.1916C17.6343 44.4073 20.494 47.978 24.3098 50.2304L24.0586 50.839C24.1507 51.0735 24.2512 51.3946 24.1814 51.6263C23.9106 52.3298 23.4472 53.0696 22.9196 53.8959C22.6655 54.2756 22.4031 54.5715 22.1714 55.0098C22.1156 55.1131 22.0458 55.275 21.9927 55.3839C21.6354 56.1516 21.8978 57.0337 22.5874 57.3659C23.2797 57.7009 24.1395 57.3464 24.5136 56.5787V56.5731C24.5695 56.4642 24.642 56.3219 24.6867 56.2186C24.8821 55.7663 24.9491 55.3783 25.0887 54.94C25.4572 54.0132 25.661 53.0417 26.1691 52.4359C26.3087 52.2684 26.532 52.2069 26.7693 52.1427L27.0847 51.5704C31.2233 53.1651 35.8047 53.1771 39.9515 51.6039L40.2475 52.1399C40.4875 52.2181 40.75 52.2572 40.9621 52.5727C41.3418 53.2203 41.6014 53.988 41.9169 54.9177C42.0565 55.3532 42.1235 55.7412 42.3217 56.1934C42.3663 56.2967 42.4417 56.4447 42.4948 56.5536C42.866 57.3241 43.7287 57.6758 44.421 57.3408C45.1105 57.0114 45.373 56.1264 45.0156 55.3587C44.9598 55.2499 44.89 55.0907 44.8342 54.9846C44.6025 54.5491 44.34 54.256 44.086 53.8736C43.5556 53.0472 43.1201 52.3633 42.8493 51.6598C42.7376 51.2969 42.8688 51.0735 42.9554 50.839C42.9051 50.7776 42.7907 50.437 42.7237 50.2751C46.5535 48.0052 49.415 44.4064 50.7637 40.1637C50.9423 40.1916 51.255 40.2474 51.3583 40.2698C51.5677 40.1302 51.7603 39.9515 52.14 39.9794C52.8825 40.0883 53.6475 40.3647 54.5687 40.6941C54.9986 40.8616 55.342 41.0514 55.8194 41.1771C55.9199 41.205 56.065 41.2301 56.1823 41.2552L56.2074 41.2636L56.227 41.2664C57.0561 41.4451 57.8573 40.9928 58.0276 40.2474C58.1951 39.5049 57.6703 38.7483 56.8467 38.5501V38.5501ZM45.7833 27.0819L40.3396 31.9562V31.9702C40.1714 32.116 40.046 32.3049 39.9769 32.5166C39.9077 32.7282 39.8974 32.9546 39.947 33.1717C39.9966 33.3888 40.1043 33.5882 40.2585 33.7488C40.4127 33.9094 40.6077 34.0251 40.8225 34.0834L40.8309 34.1114L47.8827 36.1437C48.0358 34.5799 47.934 33.0016 47.5812 31.4704C47.2264 29.9181 46.619 28.4346 45.7833 27.0792V27.0819ZM34.5804 41.9476C34.4726 41.7442 34.3095 41.5755 34.11 41.4609C33.9104 41.3463 33.6825 41.2905 33.4525 41.2999C33.2377 41.3079 33.0286 41.3722 32.8464 41.4864C32.6641 41.6005 32.5151 41.7605 32.414 41.9504H32.4085L28.8686 48.3489C31.878 49.3756 35.1425 49.3785 38.1537 48.3572L34.6083 41.9476H34.5804V41.9476ZM39.851 38.3379C39.5955 38.2909 39.3316 38.3261 39.0973 38.4384C38.8104 38.5755 38.5878 38.8185 38.4764 39.1163C38.365 39.4141 38.3734 39.7435 38.4999 40.0353L38.4915 40.0464L41.3111 46.8525C44.0052 45.1326 46.0494 42.5639 47.1205 39.5523L39.8622 38.324L39.851 38.3379V38.3379Z" fill="#00AFF0"/>
</g>
<defs>
<clipPath id="clip0">
<rect width="67" height="67" fill="white"/>
</clipPath>
</defs>
</svg>
