<svg xmlns="http://www.w3.org/2000/svg" width="32" height="32" fill="none"  xmlns:v="https://vecta.io/nano"><path d="M21.174 5.203c.473-.186.838.054.945.156s.424.41.325.927L19.588 22.7a1.01 1.01 0 0 1-.619.771c-.165.065-.57.177-.945-.156L5.735 12.86c-.395-.324-.363-.768-.325-.927s.146-.585.62-.77l15.145-5.958zm-.296-.843L5.734 10.318c-1.337.526-1.643 2.325-.57 3.246l12.29 10.466c.536.46 1.236.52 1.813.294a1.93 1.93 0 0 0 1.192-1.476l2.856-16.424c.252-1.418-1.096-2.6-2.434-2.064z" fill="#fdbc5a"/></svg>