<svg xmlns="http://www.w3.org/2000/svg" xmlns:xlink="http://www.w3.org/1999/xlink" width="627" height="433" fill="none" xmlns:v="https://vecta.io/nano"><style><![CDATA[.B{fill:#ffbd59}.C{opacity:.1}.D{fill:#052b5d}.E{fill:#fff}.F{opacity:.2}.G{fill:#e6e8ec}.H{stroke-width:2}.I{stroke-miterlimit:10}.J{opacity:.05}.K{fill:#575988}.L{stroke:#535461}.M{fill:#f7c4a7}.N{fill:#535461}.O{fill:#fdc2cc}.P{fill:#f1f1f4}.Q{fill:#f3b5b7}.R{fill:#714b4f}]]></style><g fill-rule="evenodd" fill="#f9fafb"><path d="M537.794 328.415a2.32 2.32 0 0 1 1.646.685 2.35 2.35 0 0 1 0 3.312 2.32 2.32 0 0 1-3.291 0c-.437-.44-.682-1.035-.682-1.656a2.35 2.35 0 0 1 .682-1.656 2.32 2.32 0 0 1 1.645-.685zm-12.41 0a2.32 2.32 0 0 1 1.646.685 2.35 2.35 0 0 1 0 3.312c-.437.44-1.03.686-1.646.686a2.32 2.32 0 0 1-1.645-.686c-.437-.44-.682-1.035-.682-1.656a2.35 2.35 0 0 1 .682-1.656 2.32 2.32 0 0 1 1.645-.685zm-12.41 0a2.32 2.32 0 0 1 1.645.685 2.35 2.35 0 0 1 .682 1.656c0 .62-.245 1.217-.682 1.656a2.32 2.32 0 0 1-1.645.686c-.617 0-1.21-.247-1.646-.686a2.35 2.35 0 0 1 0-3.312 2.32 2.32 0 0 1 1.646-.685zm-12.41 0a2.32 2.32 0 0 1 1.645.685 2.35 2.35 0 0 1 .682 1.656c0 .62-.245 1.217-.682 1.656a2.32 2.32 0 0 1-1.645.686c-.617 0-1.21-.247-1.646-.686a2.35 2.35 0 0 1 0-3.312 2.32 2.32 0 0 1 1.646-.685zm-12.41 0a2.32 2.32 0 0 1 1.645.685c.436.44.682 1.035.682 1.656a2.35 2.35 0 0 1-.682 1.656 2.32 2.32 0 0 1-3.291 0 2.35 2.35 0 0 1-.682-1.656c0-.62.246-1.216.682-1.656a2.32 2.32 0 0 1 1.646-.685zm-12.412 0a2.32 2.32 0 0 1 1.646.685 2.35 2.35 0 0 1 0 3.312 2.32 2.32 0 0 1-3.291 0c-.437-.44-.682-1.035-.682-1.656a2.35 2.35 0 0 1 .682-1.656 2.32 2.32 0 0 1 1.645-.685zm-12.41 0a2.32 2.32 0 0 1 1.646.685 2.35 2.35 0 0 1 0 3.312c-.437.44-1.03.686-1.646.686a2.32 2.32 0 0 1-1.645-.686c-.437-.44-.682-1.035-.682-1.656a2.35 2.35 0 0 1 .682-1.656 2.32 2.32 0 0 1 1.645-.685zm74.467-12.488a2.32 2.32 0 0 1 1.646.686 2.35 2.35 0 0 1 0 3.311 2.32 2.32 0 0 1-3.291 0c-.437-.44-.682-1.035-.682-1.656s.245-1.216.682-1.655a2.32 2.32 0 0 1 1.645-.686zm-12.41 0c.617 0 1.21.247 1.646.686a2.35 2.35 0 0 1 0 3.311c-.437.44-1.03.686-1.646.686a2.32 2.32 0 0 1-1.645-.686c-.437-.44-.682-1.035-.682-1.656s.245-1.216.682-1.655a2.32 2.32 0 0 1 1.645-.686zm-12.41 0a2.32 2.32 0 0 1 1.645.686c.437.44.682 1.034.682 1.655s-.245 1.217-.682 1.656a2.32 2.32 0 0 1-1.645.686c-.617 0-1.21-.247-1.646-.686a2.35 2.35 0 0 1 0-3.311c.437-.44 1.03-.686 1.646-.686zm-12.41 0a2.32 2.32 0 0 1 1.645.686c.437.44.682 1.034.682 1.655s-.245 1.217-.682 1.656a2.32 2.32 0 0 1-1.645.686c-.617 0-1.21-.247-1.646-.686a2.35 2.35 0 0 1 0-3.311c.437-.44 1.03-.686 1.646-.686zm-12.41 0a2.32 2.32 0 0 1 1.645.686 2.35 2.35 0 0 1 0 3.311 2.32 2.32 0 0 1-3.291 0 2.35 2.35 0 0 1 0-3.311 2.32 2.32 0 0 1 1.646-.686zm-12.412 0a2.32 2.32 0 0 1 1.646.686 2.35 2.35 0 0 1 0 3.311 2.32 2.32 0 0 1-3.291 0c-.437-.44-.682-1.035-.682-1.656s.245-1.216.682-1.655a2.32 2.32 0 0 1 1.645-.686zm-12.41 0c.617 0 1.21.247 1.646.686a2.35 2.35 0 0 1 0 3.311c-.437.44-1.03.686-1.646.686a2.32 2.32 0 0 1-1.645-.686c-.437-.44-.682-1.035-.682-1.656s.245-1.216.682-1.655a2.32 2.32 0 0 1 1.645-.686zm74.467-12.488a2.32 2.32 0 0 1 1.646.686 2.35 2.35 0 0 1 0 3.311 2.32 2.32 0 0 1-3.291 0c-.437-.44-.682-1.035-.682-1.656s.245-1.216.682-1.655a2.32 2.32 0 0 1 1.645-.686zm-12.41 0c.617 0 1.21.247 1.646.686a2.35 2.35 0 0 1 0 3.311c-.437.44-1.03.686-1.646.686a2.32 2.32 0 0 1-1.645-.686c-.437-.44-.682-1.035-.682-1.656s.245-1.216.682-1.655a2.32 2.32 0 0 1 1.645-.686zm-12.41 0a2.32 2.32 0 0 1 1.645.686c.437.44.682 1.034.682 1.655s-.245 1.217-.682 1.656a2.32 2.32 0 0 1-1.645.686c-.617 0-1.21-.247-1.646-.686a2.35 2.35 0 0 1 0-3.311c.437-.44 1.03-.686 1.646-.686zm-12.41 0a2.32 2.32 0 0 1 1.645.686c.437.44.682 1.034.682 1.655s-.245 1.217-.682 1.656a2.32 2.32 0 0 1-1.645.686c-.617 0-1.21-.247-1.646-.686a2.35 2.35 0 0 1 0-3.311c.437-.44 1.03-.686 1.646-.686zm-12.41 0a2.32 2.32 0 0 1 1.645.686 2.35 2.35 0 0 1 0 3.311 2.32 2.32 0 0 1-3.291 0 2.35 2.35 0 0 1 0-3.311 2.32 2.32 0 0 1 1.646-.686zm-12.412 0a2.32 2.32 0 0 1 1.646.686 2.35 2.35 0 0 1 0 3.311 2.32 2.32 0 0 1-3.291 0c-.437-.44-.682-1.035-.682-1.656s.245-1.216.682-1.655a2.32 2.32 0 0 1 1.645-.686zm-12.41 0c.617 0 1.21.247 1.646.686a2.35 2.35 0 0 1 0 3.311c-.437.44-1.03.686-1.646.686a2.32 2.32 0 0 1-1.645-.686c-.437-.44-.682-1.035-.682-1.656s.245-1.216.682-1.655a2.32 2.32 0 0 1 1.645-.686zm74.467-12.488a2.32 2.32 0 0 1 1.646.686 2.35 2.35 0 0 1 0 3.311 2.32 2.32 0 0 1-3.291 0c-.437-.44-.682-1.034-.682-1.655s.245-1.217.682-1.656a2.32 2.32 0 0 1 1.645-.686zm-12.41 0c.617 0 1.21.247 1.646.686a2.35 2.35 0 0 1 0 3.311c-.437.44-1.03.686-1.646.686a2.32 2.32 0 0 1-1.645-.686c-.437-.44-.682-1.034-.682-1.655s.245-1.217.682-1.656a2.32 2.32 0 0 1 1.645-.686zm-12.41 0a2.32 2.32 0 0 1 1.645.686c.437.44.682 1.035.682 1.656s-.245 1.216-.682 1.655a2.32 2.32 0 0 1-1.645.686c-.617 0-1.21-.247-1.646-.686a2.35 2.35 0 0 1 0-3.311c.437-.44 1.03-.686 1.646-.686zm-12.41 0a2.32 2.32 0 0 1 1.645.686c.437.44.682 1.035.682 1.656s-.245 1.216-.682 1.655a2.32 2.32 0 0 1-1.645.686c-.617 0-1.21-.247-1.646-.686a2.35 2.35 0 0 1 0-3.311c.437-.44 1.03-.686 1.646-.686zm-12.41 0a2.32 2.32 0 0 1 1.645.686 2.35 2.35 0 0 1 0 3.311 2.32 2.32 0 0 1-3.291 0 2.35 2.35 0 0 1 0-3.311 2.32 2.32 0 0 1 1.646-.686zm-12.412 0a2.32 2.32 0 0 1 1.646.686 2.35 2.35 0 0 1 0 3.311 2.32 2.32 0 0 1-3.291 0c-.437-.44-.682-1.034-.682-1.655s.245-1.217.682-1.656a2.32 2.32 0 0 1 1.645-.686zm-12.41 0c.617 0 1.21.247 1.646.686a2.35 2.35 0 0 1 0 3.311c-.437.44-1.03.686-1.646.686a2.32 2.32 0 0 1-1.645-.686c-.437-.44-.682-1.034-.682-1.655s.245-1.217.682-1.656a2.32 2.32 0 0 1 1.645-.686zm74.467-12.488a2.32 2.32 0 0 1 1.646.686 2.35 2.35 0 0 1 0 3.312 2.32 2.32 0 0 1-3.291 0 2.35 2.35 0 0 1-.682-1.656c0-.62.245-1.217.682-1.656a2.32 2.32 0 0 1 1.645-.686zm-12.41 0c.617 0 1.21.247 1.646.686a2.35 2.35 0 0 1 0 3.312 2.32 2.32 0 0 1-3.291 0 2.35 2.35 0 0 1-.682-1.656c0-.62.245-1.217.682-1.656a2.32 2.32 0 0 1 1.645-.686zm-12.41 0a2.32 2.32 0 0 1 1.645.686c.437.44.682 1.035.682 1.656a2.35 2.35 0 0 1-.682 1.656 2.32 2.32 0 0 1-3.291 0 2.35 2.35 0 0 1 0-3.312c.437-.44 1.03-.686 1.646-.686zm-12.41 0a2.32 2.32 0 0 1 1.645.686c.437.44.682 1.035.682 1.656a2.35 2.35 0 0 1-.682 1.656 2.32 2.32 0 0 1-3.291 0 2.35 2.35 0 0 1 0-3.312c.437-.44 1.03-.686 1.646-.686zm-12.41 0a2.32 2.32 0 0 1 1.645.686 2.35 2.35 0 0 1 .682 1.656c0 .62-.246 1.216-.682 1.656a2.32 2.32 0 0 1-3.291 0c-.436-.44-.682-1.035-.682-1.656a2.35 2.35 0 0 1 .682-1.656 2.32 2.32 0 0 1 1.646-.686zm-12.412 0a2.32 2.32 0 0 1 1.646.686 2.35 2.35 0 0 1 0 3.312 2.32 2.32 0 0 1-3.291 0 2.35 2.35 0 0 1-.682-1.656c0-.62.245-1.217.682-1.656a2.32 2.32 0 0 1 1.645-.686zm-12.41 0c.617 0 1.21.247 1.646.686a2.35 2.35 0 0 1 0 3.312 2.32 2.32 0 0 1-3.291 0 2.35 2.35 0 0 1-.682-1.656c0-.62.245-1.217.682-1.656a2.32 2.32 0 0 1 1.645-.686zm74.467-12.487a2.32 2.32 0 0 1 1.646.685 2.35 2.35 0 0 1 0 3.312 2.32 2.32 0 0 1-3.291 0c-.437-.44-.682-1.035-.682-1.656a2.35 2.35 0 0 1 .682-1.656 2.32 2.32 0 0 1 1.645-.685zm-12.41 0a2.32 2.32 0 0 1 1.646.685 2.35 2.35 0 0 1 0 3.312c-.437.44-1.03.686-1.646.686a2.32 2.32 0 0 1-1.645-.686c-.437-.44-.682-1.035-.682-1.656a2.35 2.35 0 0 1 .682-1.656 2.32 2.32 0 0 1 1.645-.685zm-12.41 0a2.32 2.32 0 0 1 1.645.685 2.35 2.35 0 0 1 .682 1.656c0 .62-.245 1.217-.682 1.656a2.32 2.32 0 0 1-1.645.686c-.617 0-1.21-.247-1.646-.686a2.35 2.35 0 0 1 0-3.312 2.32 2.32 0 0 1 1.646-.685zm-12.41 0a2.32 2.32 0 0 1 1.645.685 2.35 2.35 0 0 1 .682 1.656c0 .62-.245 1.217-.682 1.656a2.32 2.32 0 0 1-1.645.686c-.617 0-1.21-.247-1.646-.686a2.35 2.35 0 0 1 0-3.312 2.32 2.32 0 0 1 1.646-.685zm-12.41 0a2.32 2.32 0 0 1 1.645.685c.436.44.682 1.035.682 1.656a2.35 2.35 0 0 1-.682 1.656 2.32 2.32 0 0 1-3.291 0 2.35 2.35 0 0 1-.682-1.656c0-.62.246-1.216.682-1.656a2.32 2.32 0 0 1 1.646-.685zm-12.412 0a2.32 2.32 0 0 1 1.646.685 2.35 2.35 0 0 1 0 3.312 2.32 2.32 0 0 1-3.291 0c-.437-.44-.682-1.035-.682-1.656a2.35 2.35 0 0 1 .682-1.656 2.32 2.32 0 0 1 1.645-.685zm-12.41 0a2.32 2.32 0 0 1 1.646.685 2.35 2.35 0 0 1 0 3.312c-.437.44-1.03.686-1.646.686a2.32 2.32 0 0 1-1.645-.686c-.437-.44-.682-1.035-.682-1.656a2.35 2.35 0 0 1 .682-1.656 2.32 2.32 0 0 1 1.645-.685zm74.467-12.488c.618 0 1.21.246 1.646.686a2.35 2.35 0 0 1 0 3.311 2.32 2.32 0 0 1-3.291 0c-.437-.44-.682-1.035-.682-1.656s.245-1.216.682-1.655 1.028-.686 1.645-.686zm-12.41 0a2.32 2.32 0 0 1 1.646.686 2.35 2.35 0 0 1 0 3.311c-.437.44-1.03.686-1.646.686a2.32 2.32 0 0 1-1.645-.686c-.437-.44-.682-1.035-.682-1.656s.245-1.216.682-1.655 1.028-.686 1.645-.686zm-12.41 0c.617 0 1.21.246 1.645.686s.682 1.034.682 1.655-.245 1.217-.682 1.656a2.32 2.32 0 0 1-1.645.686c-.617 0-1.21-.247-1.646-.686a2.35 2.35 0 0 1 0-3.311 2.32 2.32 0 0 1 1.646-.686zm-12.41 0c.617 0 1.21.246 1.645.686s.682 1.034.682 1.655-.245 1.217-.682 1.656a2.32 2.32 0 0 1-1.645.686c-.617 0-1.21-.247-1.646-.686a2.35 2.35 0 0 1 0-3.311 2.32 2.32 0 0 1 1.646-.686zm-12.41 0c.617 0 1.21.246 1.645.686a2.35 2.35 0 0 1 0 3.311 2.32 2.32 0 0 1-3.291 0 2.35 2.35 0 0 1 0-3.311c.436-.44 1.028-.686 1.646-.686zm-12.412 0c.618 0 1.21.246 1.646.686a2.35 2.35 0 0 1 0 3.311 2.32 2.32 0 0 1-3.291 0c-.437-.44-.682-1.035-.682-1.656s.245-1.216.682-1.655 1.028-.686 1.645-.686zm-12.41 0a2.32 2.32 0 0 1 1.646.686 2.35 2.35 0 0 1 0 3.311c-.437.44-1.03.686-1.646.686a2.32 2.32 0 0 1-1.645-.686c-.437-.44-.682-1.035-.682-1.656s.245-1.216.682-1.655 1.028-.686 1.645-.686zM537.794 241a2.32 2.32 0 0 1 1.646.686 2.35 2.35 0 0 1 0 3.311 2.32 2.32 0 0 1-3.291 0c-.437-.44-.682-1.035-.682-1.656s.245-1.216.682-1.655a2.32 2.32 0 0 1 1.645-.686h0zm-12.41 0c.617 0 1.21.247 1.646.686a2.35 2.35 0 0 1 0 3.311c-.437.44-1.03.686-1.646.686a2.32 2.32 0 0 1-1.645-.686c-.437-.44-.682-1.035-.682-1.656s.245-1.216.682-1.655a2.32 2.32 0 0 1 1.645-.686h0zm-12.41 0a2.32 2.32 0 0 1 1.645.686c.437.44.682 1.034.682 1.655s-.245 1.217-.682 1.656a2.32 2.32 0 0 1-1.645.686c-.617 0-1.21-.247-1.646-.686a2.35 2.35 0 0 1 0-3.311c.437-.44 1.03-.686 1.646-.686h0zm-12.41 0a2.32 2.32 0 0 1 1.645.686c.437.44.682 1.034.682 1.655s-.245 1.217-.682 1.656a2.32 2.32 0 0 1-1.645.686c-.617 0-1.21-.247-1.646-.686a2.35 2.35 0 0 1 0-3.311c.437-.44 1.03-.686 1.646-.686h0zm-12.41 0a2.32 2.32 0 0 1 1.645.686 2.35 2.35 0 0 1 0 3.311 2.32 2.32 0 0 1-3.291 0 2.35 2.35 0 0 1 0-3.311 2.32 2.32 0 0 1 1.646-.686h0zm-12.412 0a2.32 2.32 0 0 1 1.646.686 2.35 2.35 0 0 1 0 3.311 2.32 2.32 0 0 1-3.291 0c-.437-.44-.682-1.035-.682-1.656s.245-1.216.682-1.655a2.32 2.32 0 0 1 1.645-.686h0zm-12.41 0c.617 0 1.21.247 1.646.686a2.35 2.35 0 0 1 0 3.311c-.437.44-1.03.686-1.646.686a2.32 2.32 0 0 1-1.645-.686c-.437-.44-.682-1.035-.682-1.656s.245-1.216.682-1.655a2.32 2.32 0 0 1 1.645-.686h0z"/><path d="M537.794 428.317a2.32 2.32 0 0 1 1.646.686 2.35 2.35 0 0 1 0 3.311 2.32 2.32 0 0 1-3.291 0c-.437-.44-.682-1.034-.682-1.655s.245-1.217.682-1.656a2.32 2.32 0 0 1 1.645-.686zm-12.41 0c.617 0 1.21.247 1.646.686a2.35 2.35 0 0 1 0 3.311c-.437.44-1.03.686-1.646.686a2.32 2.32 0 0 1-1.645-.686c-.437-.44-.682-1.034-.682-1.655s.245-1.217.682-1.656a2.32 2.32 0 0 1 1.645-.686zm-12.41 0a2.32 2.32 0 0 1 1.645.686c.437.44.682 1.035.682 1.656s-.245 1.216-.682 1.655a2.32 2.32 0 0 1-1.645.686c-.617 0-1.21-.247-1.646-.686a2.35 2.35 0 0 1 0-3.311c.437-.44 1.03-.686 1.646-.686zm-12.41 0a2.32 2.32 0 0 1 1.645.686c.437.44.682 1.035.682 1.656s-.245 1.216-.682 1.655a2.32 2.32 0 0 1-1.645.686c-.617 0-1.21-.247-1.646-.686a2.35 2.35 0 0 1 0-3.311c.437-.44 1.03-.686 1.646-.686zm-12.41 0a2.32 2.32 0 0 1 1.645.686 2.35 2.35 0 0 1 0 3.311 2.32 2.32 0 0 1-3.291 0 2.35 2.35 0 0 1 0-3.311 2.32 2.32 0 0 1 1.646-.686zm-12.412 0a2.32 2.32 0 0 1 1.646.686 2.35 2.35 0 0 1 0 3.311 2.32 2.32 0 0 1-3.291 0c-.437-.44-.682-1.034-.682-1.655s.245-1.217.682-1.656a2.32 2.32 0 0 1 1.645-.686zm-12.41 0c.617 0 1.21.247 1.646.686a2.35 2.35 0 0 1 0 3.311c-.437.44-1.03.686-1.646.686a2.32 2.32 0 0 1-1.645-.686c-.437-.44-.682-1.034-.682-1.655s.245-1.217.682-1.656a2.32 2.32 0 0 1 1.645-.686zm74.467-12.488a2.32 2.32 0 0 1 1.646.686 2.35 2.35 0 0 1 0 3.311c-.437.44-1.028.686-1.646.686s-1.21-.246-1.645-.686-.682-1.034-.682-1.655.245-1.217.682-1.656a2.32 2.32 0 0 1 1.645-.686zm-12.41 0c.617 0 1.21.247 1.646.686a2.35 2.35 0 0 1 0 3.311 2.32 2.32 0 0 1-1.646.686c-.617 0-1.21-.246-1.645-.686s-.682-1.034-.682-1.655.245-1.217.682-1.656a2.32 2.32 0 0 1 1.645-.686zm-12.41 0a2.32 2.32 0 0 1 1.645.686c.437.44.682 1.035.682 1.656s-.245 1.216-.682 1.655-1.028.686-1.645.686a2.32 2.32 0 0 1-1.646-.686 2.35 2.35 0 0 1 0-3.311c.437-.44 1.03-.686 1.646-.686zm-12.41 0a2.32 2.32 0 0 1 1.645.686c.437.44.682 1.035.682 1.656s-.245 1.216-.682 1.655-1.028.686-1.645.686a2.32 2.32 0 0 1-1.646-.686 2.35 2.35 0 0 1 0-3.311c.437-.44 1.03-.686 1.646-.686zm-12.41 0a2.32 2.32 0 0 1 1.645.686 2.35 2.35 0 0 1 0 3.311c-.436.44-1.028.686-1.645.686s-1.2-.246-1.646-.686a2.35 2.35 0 0 1 0-3.311 2.32 2.32 0 0 1 1.646-.686zm-12.412 0a2.32 2.32 0 0 1 1.646.686 2.35 2.35 0 0 1 0 3.311c-.437.44-1.028.686-1.646.686s-1.21-.246-1.645-.686-.682-1.034-.682-1.655.245-1.217.682-1.656a2.32 2.32 0 0 1 1.645-.686zm-12.41 0c.617 0 1.21.247 1.646.686a2.35 2.35 0 0 1 0 3.311 2.32 2.32 0 0 1-1.646.686c-.617 0-1.21-.246-1.645-.686s-.682-1.034-.682-1.655.245-1.217.682-1.656a2.32 2.32 0 0 1 1.645-.686zm74.467-12.488a2.32 2.32 0 0 1 1.646.686 2.35 2.35 0 0 1 0 3.312 2.32 2.32 0 0 1-3.291 0 2.35 2.35 0 0 1-.682-1.656c0-.62.245-1.217.682-1.656a2.32 2.32 0 0 1 1.645-.686zm-12.41 0c.617 0 1.21.247 1.646.686a2.35 2.35 0 0 1 0 3.312 2.32 2.32 0 0 1-3.291 0 2.35 2.35 0 0 1-.682-1.656c0-.62.245-1.217.682-1.656a2.32 2.32 0 0 1 1.645-.686zm-12.41 0a2.32 2.32 0 0 1 1.645.686c.437.44.682 1.035.682 1.656a2.35 2.35 0 0 1-.682 1.656 2.32 2.32 0 0 1-3.291 0 2.35 2.35 0 0 1 0-3.312c.437-.44 1.03-.686 1.646-.686zm-12.41 0a2.32 2.32 0 0 1 1.645.686c.437.44.682 1.035.682 1.656a2.35 2.35 0 0 1-.682 1.656 2.32 2.32 0 0 1-3.291 0 2.35 2.35 0 0 1 0-3.312c.437-.44 1.03-.686 1.646-.686zm-12.41 0a2.32 2.32 0 0 1 1.645.686 2.35 2.35 0 0 1 .682 1.656c0 .62-.246 1.216-.682 1.656a2.32 2.32 0 0 1-3.291 0c-.436-.44-.682-1.035-.682-1.656a2.35 2.35 0 0 1 .682-1.656 2.32 2.32 0 0 1 1.646-.686zm-12.412 0a2.32 2.32 0 0 1 1.646.686 2.35 2.35 0 0 1 0 3.312 2.32 2.32 0 0 1-3.291 0 2.35 2.35 0 0 1-.682-1.656c0-.62.245-1.217.682-1.656a2.32 2.32 0 0 1 1.645-.686zm-12.41 0c.617 0 1.21.247 1.646.686a2.35 2.35 0 0 1 0 3.312 2.32 2.32 0 0 1-3.291 0 2.35 2.35 0 0 1-.682-1.656c0-.62.245-1.217.682-1.656a2.32 2.32 0 0 1 1.645-.686zm74.467-12.487a2.32 2.32 0 0 1 1.646.685 2.35 2.35 0 0 1 0 3.312 2.32 2.32 0 0 1-3.291 0c-.437-.44-.682-1.035-.682-1.656a2.35 2.35 0 0 1 .682-1.656 2.32 2.32 0 0 1 1.645-.685zm-12.41 0a2.32 2.32 0 0 1 1.646.685 2.35 2.35 0 0 1 0 3.312c-.437.44-1.03.686-1.646.686a2.32 2.32 0 0 1-1.645-.686c-.437-.44-.682-1.035-.682-1.656a2.35 2.35 0 0 1 .682-1.656 2.32 2.32 0 0 1 1.645-.685zm-12.41 0a2.32 2.32 0 0 1 1.645.685 2.35 2.35 0 0 1 .682 1.656c0 .62-.245 1.217-.682 1.656a2.32 2.32 0 0 1-1.645.686c-.617 0-1.21-.247-1.646-.686a2.35 2.35 0 0 1 0-3.312 2.32 2.32 0 0 1 1.646-.685zm-12.41 0a2.32 2.32 0 0 1 1.645.685 2.35 2.35 0 0 1 .682 1.656c0 .62-.245 1.217-.682 1.656a2.32 2.32 0 0 1-1.645.686c-.617 0-1.21-.247-1.646-.686a2.35 2.35 0 0 1 0-3.312 2.32 2.32 0 0 1 1.646-.685zm-12.41 0a2.32 2.32 0 0 1 1.645.685c.436.44.682 1.035.682 1.656a2.35 2.35 0 0 1-.682 1.656 2.32 2.32 0 0 1-3.291 0 2.35 2.35 0 0 1-.682-1.656c0-.62.246-1.216.682-1.656a2.32 2.32 0 0 1 1.646-.685zm-12.412 0a2.32 2.32 0 0 1 1.646.685 2.35 2.35 0 0 1 0 3.312 2.32 2.32 0 0 1-3.291 0c-.437-.44-.682-1.035-.682-1.656a2.35 2.35 0 0 1 .682-1.656 2.32 2.32 0 0 1 1.645-.685zm-12.41 0a2.32 2.32 0 0 1 1.646.685 2.35 2.35 0 0 1 0 3.312c-.437.44-1.03.686-1.646.686a2.32 2.32 0 0 1-1.645-.686c-.437-.44-.682-1.035-.682-1.656a2.35 2.35 0 0 1 .682-1.656 2.32 2.32 0 0 1 1.645-.685zm74.467-12.488a2.32 2.32 0 0 1 1.646.686 2.35 2.35 0 0 1 0 3.311 2.32 2.32 0 0 1-3.291 0c-.437-.44-.682-1.035-.682-1.656s.245-1.216.682-1.655a2.32 2.32 0 0 1 1.645-.686zm-12.41 0c.617 0 1.21.247 1.646.686a2.35 2.35 0 0 1 0 3.311c-.437.44-1.03.686-1.646.686a2.32 2.32 0 0 1-1.645-.686c-.437-.44-.682-1.035-.682-1.656s.245-1.216.682-1.655a2.32 2.32 0 0 1 1.645-.686zm-12.41 0a2.32 2.32 0 0 1 1.645.686c.437.44.682 1.034.682 1.655s-.245 1.217-.682 1.656a2.32 2.32 0 0 1-1.645.686c-.617 0-1.21-.247-1.646-.686a2.35 2.35 0 0 1 0-3.311c.437-.44 1.03-.686 1.646-.686zm-12.41 0a2.32 2.32 0 0 1 1.645.686c.437.44.682 1.034.682 1.655s-.245 1.217-.682 1.656a2.32 2.32 0 0 1-1.645.686c-.617 0-1.21-.247-1.646-.686a2.35 2.35 0 0 1 0-3.311c.437-.44 1.03-.686 1.646-.686zm-12.41 0a2.32 2.32 0 0 1 1.645.686 2.35 2.35 0 0 1 0 3.311 2.32 2.32 0 0 1-3.291 0 2.35 2.35 0 0 1 0-3.311 2.32 2.32 0 0 1 1.646-.686zm-12.412 0a2.32 2.32 0 0 1 1.646.686 2.35 2.35 0 0 1 0 3.311 2.32 2.32 0 0 1-3.291 0c-.437-.44-.682-1.035-.682-1.656s.245-1.216.682-1.655a2.32 2.32 0 0 1 1.645-.686zm-12.41 0c.617 0 1.21.247 1.646.686a2.35 2.35 0 0 1 0 3.311c-.437.44-1.03.686-1.646.686a2.32 2.32 0 0 1-1.645-.686c-.437-.44-.682-1.035-.682-1.656s.245-1.216.682-1.655a2.32 2.32 0 0 1 1.645-.686zm74.467-12.488a2.32 2.32 0 0 1 1.646.686 2.35 2.35 0 0 1 0 3.311 2.32 2.32 0 0 1-3.291 0c-.437-.44-.682-1.034-.682-1.655s.245-1.217.682-1.656a2.32 2.32 0 0 1 1.645-.686zm-12.41 0c.617 0 1.21.247 1.646.686a2.35 2.35 0 0 1 0 3.311c-.437.44-1.03.686-1.646.686a2.32 2.32 0 0 1-1.645-.686c-.437-.44-.682-1.034-.682-1.655s.245-1.217.682-1.656a2.32 2.32 0 0 1 1.645-.686zm-12.41 0a2.32 2.32 0 0 1 1.645.686c.437.44.682 1.035.682 1.656s-.245 1.216-.682 1.655a2.32 2.32 0 0 1-1.645.686c-.617 0-1.21-.247-1.646-.686a2.35 2.35 0 0 1 0-3.311c.437-.44 1.03-.686 1.646-.686zm-12.41 0a2.32 2.32 0 0 1 1.645.686c.437.44.682 1.035.682 1.656s-.245 1.216-.682 1.655a2.32 2.32 0 0 1-1.645.686c-.617 0-1.21-.247-1.646-.686a2.35 2.35 0 0 1 0-3.311c.437-.44 1.03-.686 1.646-.686zm-12.41 0a2.32 2.32 0 0 1 1.645.686 2.35 2.35 0 0 1 0 3.311 2.32 2.32 0 0 1-3.291 0 2.35 2.35 0 0 1 0-3.311 2.32 2.32 0 0 1 1.646-.686zm-12.412 0a2.32 2.32 0 0 1 1.646.686 2.35 2.35 0 0 1 0 3.311 2.32 2.32 0 0 1-3.291 0c-.437-.44-.682-1.034-.682-1.655s.245-1.217.682-1.656a2.32 2.32 0 0 1 1.645-.686zm-12.41 0c.617 0 1.21.247 1.646.686a2.35 2.35 0 0 1 0 3.311c-.437.44-1.03.686-1.646.686a2.32 2.32 0 0 1-1.645-.686c-.437-.44-.682-1.034-.682-1.655s.245-1.217.682-1.656a2.32 2.32 0 0 1 1.645-.686zm74.467-12.488a2.32 2.32 0 0 1 1.646.686 2.35 2.35 0 0 1 0 3.311 2.32 2.32 0 0 1-3.291 0c-.437-.44-.682-1.034-.682-1.655s.245-1.217.682-1.656a2.32 2.32 0 0 1 1.645-.686zm-12.41 0c.617 0 1.21.247 1.646.686a2.35 2.35 0 0 1 0 3.311c-.437.44-1.03.686-1.646.686a2.32 2.32 0 0 1-1.645-.686c-.437-.44-.682-1.034-.682-1.655s.245-1.217.682-1.656a2.32 2.32 0 0 1 1.645-.686zm-12.41 0a2.32 2.32 0 0 1 1.645.686c.437.44.682 1.035.682 1.656s-.245 1.216-.682 1.655a2.32 2.32 0 0 1-1.645.686c-.617 0-1.21-.247-1.646-.686a2.35 2.35 0 0 1 0-3.311c.437-.44 1.03-.686 1.646-.686zm-12.41 0a2.32 2.32 0 0 1 1.645.686c.437.44.682 1.035.682 1.656s-.245 1.216-.682 1.655a2.32 2.32 0 0 1-1.645.686c-.617 0-1.21-.247-1.646-.686a2.35 2.35 0 0 1 0-3.311c.437-.44 1.03-.686 1.646-.686zm-12.41 0a2.32 2.32 0 0 1 1.645.686 2.35 2.35 0 0 1 0 3.311 2.32 2.32 0 0 1-3.291 0 2.35 2.35 0 0 1 0-3.311 2.32 2.32 0 0 1 1.646-.686zm-12.412 0a2.32 2.32 0 0 1 1.646.686 2.35 2.35 0 0 1 0 3.311 2.32 2.32 0 0 1-3.291 0c-.437-.44-.682-1.034-.682-1.655s.245-1.217.682-1.656a2.32 2.32 0 0 1 1.645-.686zm-12.41 0c.617 0 1.21.247 1.646.686a2.35 2.35 0 0 1 0 3.311c-.437.44-1.03.686-1.646.686a2.32 2.32 0 0 1-1.645-.686c-.437-.44-.682-1.034-.682-1.655s.245-1.217.682-1.656a2.32 2.32 0 0 1 1.645-.686zm74.467-12.488a2.32 2.32 0 0 1 1.646.686 2.35 2.35 0 0 1 0 3.312 2.32 2.32 0 0 1-3.291 0 2.35 2.35 0 0 1-.682-1.656c0-.62.245-1.217.682-1.656a2.32 2.32 0 0 1 1.645-.686h0zm-12.41 0c.617 0 1.21.247 1.646.686a2.35 2.35 0 0 1 0 3.312 2.32 2.32 0 0 1-3.291 0 2.35 2.35 0 0 1-.682-1.656c0-.62.245-1.217.682-1.656a2.32 2.32 0 0 1 1.645-.686h0zm-12.41 0a2.32 2.32 0 0 1 1.645.686c.437.44.682 1.035.682 1.656a2.35 2.35 0 0 1-.682 1.656 2.32 2.32 0 0 1-3.291 0 2.35 2.35 0 0 1 0-3.312c.437-.44 1.03-.686 1.646-.686h0zm-12.41 0a2.32 2.32 0 0 1 1.645.686c.437.44.682 1.035.682 1.656a2.35 2.35 0 0 1-.682 1.656 2.32 2.32 0 0 1-3.291 0 2.35 2.35 0 0 1 0-3.312c.437-.44 1.03-.686 1.646-.686h0zm-12.41 0a2.32 2.32 0 0 1 1.645.686 2.35 2.35 0 0 1 .682 1.656c0 .62-.246 1.216-.682 1.656a2.32 2.32 0 0 1-3.291 0c-.436-.44-.682-1.035-.682-1.656a2.35 2.35 0 0 1 .682-1.656 2.32 2.32 0 0 1 1.646-.686h0zm-12.412 0a2.32 2.32 0 0 1 1.646.686 2.35 2.35 0 0 1 0 3.312 2.32 2.32 0 0 1-3.291 0 2.35 2.35 0 0 1-.682-1.656c0-.62.245-1.217.682-1.656a2.32 2.32 0 0 1 1.645-.686h0zm-12.41 0c.617 0 1.21.247 1.646.686a2.35 2.35 0 0 1 0 3.312 2.32 2.32 0 0 1-3.291 0 2.35 2.35 0 0 1-.682-1.656c0-.62.245-1.217.682-1.656a2.32 2.32 0 0 1 1.645-.686h0z"/><path d="M624.673 328.415a2.32 2.32 0 0 1 1.645.685 2.35 2.35 0 0 1 .682 1.656c0 .62-.245 1.217-.682 1.656a2.32 2.32 0 0 1-1.645.686c-.617 0-1.21-.247-1.646-.686a2.35 2.35 0 0 1 0-3.312 2.32 2.32 0 0 1 1.646-.685zm-12.41 0a2.32 2.32 0 0 1 1.645.685 2.35 2.35 0 0 1 .682 1.656c0 .62-.245 1.217-.682 1.656a2.32 2.32 0 0 1-3.291 0 2.35 2.35 0 0 1-.682-1.656c0-.62.246-1.216.682-1.656a2.32 2.32 0 0 1 1.646-.685zm-12.412 0a2.32 2.32 0 0 1 1.646.685 2.35 2.35 0 0 1 0 3.312 2.32 2.32 0 0 1-3.291 0c-.437-.44-.682-1.035-.682-1.656a2.35 2.35 0 0 1 .682-1.656 2.32 2.32 0 0 1 1.645-.685zm-12.41 0a2.32 2.32 0 0 1 1.646.685 2.35 2.35 0 0 1 0 3.312c-.437.44-1.03.686-1.646.686a2.32 2.32 0 0 1-1.645-.686c-.437-.44-.682-1.035-.682-1.656a2.35 2.35 0 0 1 .682-1.656 2.32 2.32 0 0 1 1.645-.685zm-12.41 0a2.32 2.32 0 0 1 1.645.685 2.35 2.35 0 0 1 .682 1.656c0 .62-.245 1.217-.682 1.656a2.32 2.32 0 0 1-1.645.686c-.617 0-1.21-.247-1.646-.686a2.35 2.35 0 0 1 0-3.312 2.32 2.32 0 0 1 1.646-.685zm-12.41 0a2.32 2.32 0 0 1 1.645.685 2.35 2.35 0 0 1 .682 1.656c0 .62-.245 1.217-.682 1.656a2.32 2.32 0 0 1-1.645.686c-.617 0-1.21-.247-1.646-.686a2.35 2.35 0 0 1 0-3.312 2.32 2.32 0 0 1 1.646-.685zm-12.41 0a2.32 2.32 0 0 1 1.645.685c.436.44.682 1.035.682 1.656a2.35 2.35 0 0 1-.682 1.656 2.32 2.32 0 0 1-3.291 0 2.35 2.35 0 0 1-.682-1.656c0-.62.246-1.216.682-1.656a2.32 2.32 0 0 1 1.646-.685zm74.467-12.488a2.32 2.32 0 0 1 1.645.686c.437.44.682 1.034.682 1.655s-.245 1.217-.682 1.656a2.32 2.32 0 0 1-1.645.686c-.617 0-1.21-.247-1.646-.686a2.35 2.35 0 0 1 0-3.311c.437-.44 1.03-.686 1.646-.686zm-12.41 0a2.32 2.32 0 0 1 1.645.686c.437.44.682 1.034.682 1.655s-.245 1.217-.682 1.656a2.32 2.32 0 0 1-3.291 0 2.35 2.35 0 0 1 0-3.311 2.32 2.32 0 0 1 1.646-.686zm-12.412 0a2.32 2.32 0 0 1 1.646.686 2.35 2.35 0 0 1 0 3.311 2.32 2.32 0 0 1-3.291 0c-.437-.44-.682-1.035-.682-1.656s.245-1.216.682-1.655a2.32 2.32 0 0 1 1.645-.686zm-12.41 0c.617 0 1.21.247 1.646.686a2.35 2.35 0 0 1 0 3.311c-.437.44-1.03.686-1.646.686a2.32 2.32 0 0 1-1.645-.686c-.437-.44-.682-1.035-.682-1.656s.245-1.216.682-1.655a2.32 2.32 0 0 1 1.645-.686zm-12.41 0a2.32 2.32 0 0 1 1.645.686c.437.44.682 1.034.682 1.655s-.245 1.217-.682 1.656a2.32 2.32 0 0 1-1.645.686c-.617 0-1.21-.247-1.646-.686a2.35 2.35 0 0 1 0-3.311c.437-.44 1.03-.686 1.646-.686zm-12.41 0a2.32 2.32 0 0 1 1.645.686c.437.44.682 1.034.682 1.655s-.245 1.217-.682 1.656a2.32 2.32 0 0 1-1.645.686c-.617 0-1.21-.247-1.646-.686a2.35 2.35 0 0 1 0-3.311c.437-.44 1.03-.686 1.646-.686zm-12.41 0a2.32 2.32 0 0 1 1.645.686 2.35 2.35 0 0 1 0 3.311 2.32 2.32 0 0 1-3.291 0 2.35 2.35 0 0 1 0-3.311 2.32 2.32 0 0 1 1.646-.686zm74.467-12.488a2.32 2.32 0 0 1 1.645.686c.437.44.682 1.034.682 1.655s-.245 1.217-.682 1.656a2.32 2.32 0 0 1-1.645.686c-.617 0-1.21-.247-1.646-.686a2.35 2.35 0 0 1 0-3.311c.437-.44 1.03-.686 1.646-.686zm-12.41 0a2.32 2.32 0 0 1 1.645.686c.437.44.682 1.034.682 1.655s-.245 1.217-.682 1.656a2.32 2.32 0 0 1-3.291 0 2.35 2.35 0 0 1 0-3.311 2.32 2.32 0 0 1 1.646-.686zm-12.412 0a2.32 2.32 0 0 1 1.646.686 2.35 2.35 0 0 1 0 3.311 2.32 2.32 0 0 1-3.291 0c-.437-.44-.682-1.035-.682-1.656s.245-1.216.682-1.655a2.32 2.32 0 0 1 1.645-.686zm-12.41 0c.617 0 1.21.247 1.646.686a2.35 2.35 0 0 1 0 3.311c-.437.44-1.03.686-1.646.686a2.32 2.32 0 0 1-1.645-.686c-.437-.44-.682-1.035-.682-1.656s.245-1.216.682-1.655a2.32 2.32 0 0 1 1.645-.686zm-12.41 0a2.32 2.32 0 0 1 1.645.686c.437.44.682 1.034.682 1.655s-.245 1.217-.682 1.656a2.32 2.32 0 0 1-1.645.686c-.617 0-1.21-.247-1.646-.686a2.35 2.35 0 0 1 0-3.311c.437-.44 1.03-.686 1.646-.686zm-12.41 0a2.32 2.32 0 0 1 1.645.686c.437.44.682 1.034.682 1.655s-.245 1.217-.682 1.656a2.32 2.32 0 0 1-1.645.686c-.617 0-1.21-.247-1.646-.686a2.35 2.35 0 0 1 0-3.311c.437-.44 1.03-.686 1.646-.686zm-12.41 0a2.32 2.32 0 0 1 1.645.686 2.35 2.35 0 0 1 0 3.311 2.32 2.32 0 0 1-3.291 0 2.35 2.35 0 0 1 0-3.311 2.32 2.32 0 0 1 1.646-.686zm74.467-12.488a2.32 2.32 0 0 1 1.645.686c.437.44.682 1.035.682 1.656s-.245 1.216-.682 1.655a2.32 2.32 0 0 1-1.645.686c-.617 0-1.21-.247-1.646-.686a2.35 2.35 0 0 1 0-3.311c.437-.44 1.03-.686 1.646-.686zm-12.41 0a2.32 2.32 0 0 1 1.645.686c.437.44.682 1.035.682 1.656s-.245 1.216-.682 1.655a2.32 2.32 0 0 1-3.291 0 2.35 2.35 0 0 1 0-3.311 2.32 2.32 0 0 1 1.646-.686zm-12.412 0a2.32 2.32 0 0 1 1.646.686 2.35 2.35 0 0 1 0 3.311 2.32 2.32 0 0 1-3.291 0c-.437-.44-.682-1.034-.682-1.655s.245-1.217.682-1.656a2.32 2.32 0 0 1 1.645-.686zm-12.41 0c.617 0 1.21.247 1.646.686a2.35 2.35 0 0 1 0 3.311c-.437.44-1.03.686-1.646.686a2.32 2.32 0 0 1-1.645-.686c-.437-.44-.682-1.034-.682-1.655s.245-1.217.682-1.656a2.32 2.32 0 0 1 1.645-.686zm-12.41 0a2.32 2.32 0 0 1 1.645.686c.437.44.682 1.035.682 1.656s-.245 1.216-.682 1.655a2.32 2.32 0 0 1-1.645.686c-.617 0-1.21-.247-1.646-.686a2.35 2.35 0 0 1 0-3.311c.437-.44 1.03-.686 1.646-.686zm-12.41 0a2.32 2.32 0 0 1 1.645.686c.437.44.682 1.035.682 1.656s-.245 1.216-.682 1.655a2.32 2.32 0 0 1-1.645.686c-.617 0-1.21-.247-1.646-.686a2.35 2.35 0 0 1 0-3.311c.437-.44 1.03-.686 1.646-.686zm-12.41 0a2.32 2.32 0 0 1 1.645.686 2.35 2.35 0 0 1 0 3.311 2.32 2.32 0 0 1-3.291 0 2.35 2.35 0 0 1 0-3.311 2.32 2.32 0 0 1 1.646-.686zm74.467-12.488a2.32 2.32 0 0 1 1.645.686c.437.44.682 1.035.682 1.656a2.35 2.35 0 0 1-.682 1.656 2.32 2.32 0 0 1-3.291 0 2.35 2.35 0 0 1 0-3.312c.437-.44 1.03-.686 1.646-.686zm-12.41 0a2.32 2.32 0 0 1 1.645.686c.437.44.682 1.035.682 1.656a2.35 2.35 0 0 1-.682 1.656 2.32 2.32 0 0 1-3.291 0c-.436-.44-.682-1.035-.682-1.656a2.35 2.35 0 0 1 .682-1.656 2.32 2.32 0 0 1 1.646-.686zm-12.412 0a2.32 2.32 0 0 1 1.646.686 2.35 2.35 0 0 1 0 3.312 2.32 2.32 0 0 1-3.291 0 2.35 2.35 0 0 1-.682-1.656c0-.62.245-1.217.682-1.656a2.32 2.32 0 0 1 1.645-.686zm-12.41 0c.617 0 1.21.247 1.646.686a2.35 2.35 0 0 1 0 3.312 2.32 2.32 0 0 1-3.291 0 2.35 2.35 0 0 1-.682-1.656c0-.62.245-1.217.682-1.656a2.32 2.32 0 0 1 1.645-.686zm-12.41 0a2.32 2.32 0 0 1 1.645.686c.437.44.682 1.035.682 1.656a2.35 2.35 0 0 1-.682 1.656 2.32 2.32 0 0 1-3.291 0 2.35 2.35 0 0 1 0-3.312c.437-.44 1.03-.686 1.646-.686zm-12.41 0a2.32 2.32 0 0 1 1.645.686c.437.44.682 1.035.682 1.656a2.35 2.35 0 0 1-.682 1.656 2.32 2.32 0 0 1-3.291 0 2.35 2.35 0 0 1 0-3.312c.437-.44 1.03-.686 1.646-.686zm-12.41 0a2.32 2.32 0 0 1 1.645.686 2.35 2.35 0 0 1 .682 1.656c0 .62-.246 1.216-.682 1.656a2.32 2.32 0 0 1-3.291 0c-.436-.44-.682-1.035-.682-1.656a2.35 2.35 0 0 1 .682-1.656 2.32 2.32 0 0 1 1.646-.686zm74.467-12.487a2.32 2.32 0 0 1 1.645.685 2.35 2.35 0 0 1 .682 1.656c0 .62-.245 1.217-.682 1.656a2.32 2.32 0 0 1-1.645.686c-.617 0-1.21-.247-1.646-.686a2.35 2.35 0 0 1 0-3.312 2.32 2.32 0 0 1 1.646-.685zm-12.41 0a2.32 2.32 0 0 1 1.645.685 2.35 2.35 0 0 1 .682 1.656c0 .62-.245 1.217-.682 1.656a2.32 2.32 0 0 1-3.291 0 2.35 2.35 0 0 1-.682-1.656c0-.62.246-1.216.682-1.656a2.32 2.32 0 0 1 1.646-.685zm-12.412 0a2.32 2.32 0 0 1 1.646.685 2.35 2.35 0 0 1 0 3.312 2.32 2.32 0 0 1-3.291 0c-.437-.44-.682-1.035-.682-1.656a2.35 2.35 0 0 1 .682-1.656 2.32 2.32 0 0 1 1.645-.685zm-12.41 0a2.32 2.32 0 0 1 1.646.685 2.35 2.35 0 0 1 0 3.312c-.437.44-1.03.686-1.646.686a2.32 2.32 0 0 1-1.645-.686c-.437-.44-.682-1.035-.682-1.656a2.35 2.35 0 0 1 .682-1.656 2.32 2.32 0 0 1 1.645-.685zm-12.41 0a2.32 2.32 0 0 1 1.645.685 2.35 2.35 0 0 1 .682 1.656c0 .62-.245 1.217-.682 1.656a2.32 2.32 0 0 1-1.645.686c-.617 0-1.21-.247-1.646-.686a2.35 2.35 0 0 1 0-3.312 2.32 2.32 0 0 1 1.646-.685zm-12.41 0a2.32 2.32 0 0 1 1.645.685 2.35 2.35 0 0 1 .682 1.656c0 .62-.245 1.217-.682 1.656a2.32 2.32 0 0 1-1.645.686c-.617 0-1.21-.247-1.646-.686a2.35 2.35 0 0 1 0-3.312 2.32 2.32 0 0 1 1.646-.685zm-12.41 0a2.32 2.32 0 0 1 1.645.685c.436.44.682 1.035.682 1.656a2.35 2.35 0 0 1-.682 1.656 2.32 2.32 0 0 1-3.291 0 2.35 2.35 0 0 1-.682-1.656c0-.62.246-1.216.682-1.656a2.32 2.32 0 0 1 1.646-.685zm74.467-12.488c.617 0 1.21.246 1.645.686s.682 1.034.682 1.655-.245 1.217-.682 1.656a2.32 2.32 0 0 1-1.645.686c-.617 0-1.21-.247-1.646-.686a2.35 2.35 0 0 1 0-3.311 2.32 2.32 0 0 1 1.646-.686zm-12.41 0c.617 0 1.21.246 1.645.686s.682 1.034.682 1.655-.245 1.217-.682 1.656a2.32 2.32 0 0 1-3.291 0 2.35 2.35 0 0 1 0-3.311c.436-.44 1.028-.686 1.646-.686zm-12.412 0c.618 0 1.21.246 1.646.686a2.35 2.35 0 0 1 0 3.311 2.32 2.32 0 0 1-3.291 0c-.437-.44-.682-1.035-.682-1.656s.245-1.216.682-1.655 1.028-.686 1.645-.686zm-12.41 0a2.32 2.32 0 0 1 1.646.686 2.35 2.35 0 0 1 0 3.311c-.437.44-1.03.686-1.646.686a2.32 2.32 0 0 1-1.645-.686c-.437-.44-.682-1.035-.682-1.656s.245-1.216.682-1.655 1.028-.686 1.645-.686zm-12.41 0c.617 0 1.21.246 1.645.686s.682 1.034.682 1.655-.245 1.217-.682 1.656a2.32 2.32 0 0 1-1.645.686c-.617 0-1.21-.247-1.646-.686a2.35 2.35 0 0 1 0-3.311 2.32 2.32 0 0 1 1.646-.686zm-12.41 0c.617 0 1.21.246 1.645.686s.682 1.034.682 1.655-.245 1.217-.682 1.656a2.32 2.32 0 0 1-1.645.686c-.617 0-1.21-.247-1.646-.686a2.35 2.35 0 0 1 0-3.311 2.32 2.32 0 0 1 1.646-.686zm-12.41 0c.617 0 1.21.246 1.645.686a2.35 2.35 0 0 1 0 3.311 2.32 2.32 0 0 1-3.291 0 2.35 2.35 0 0 1 0-3.311c.436-.44 1.028-.686 1.646-.686zM624.673 241a2.32 2.32 0 0 1 1.645.686c.437.44.682 1.034.682 1.655s-.245 1.217-.682 1.656a2.32 2.32 0 0 1-1.645.686c-.617 0-1.21-.247-1.646-.686a2.35 2.35 0 0 1 0-3.311c.437-.44 1.03-.686 1.646-.686h0zm-12.41 0a2.32 2.32 0 0 1 1.645.686c.437.44.682 1.034.682 1.655s-.245 1.217-.682 1.656a2.32 2.32 0 0 1-3.291 0 2.35 2.35 0 0 1 0-3.311 2.32 2.32 0 0 1 1.646-.686h0zm-12.412 0a2.32 2.32 0 0 1 1.646.686 2.35 2.35 0 0 1 0 3.311 2.32 2.32 0 0 1-3.291 0c-.437-.44-.682-1.035-.682-1.656s.245-1.216.682-1.655a2.32 2.32 0 0 1 1.645-.686h0zm-12.41 0c.617 0 1.21.247 1.646.686a2.35 2.35 0 0 1 0 3.311c-.437.44-1.03.686-1.646.686a2.32 2.32 0 0 1-1.645-.686c-.437-.44-.682-1.035-.682-1.656s.245-1.216.682-1.655a2.32 2.32 0 0 1 1.645-.686h0zm-12.41 0a2.32 2.32 0 0 1 1.645.686c.437.44.682 1.034.682 1.655s-.245 1.217-.682 1.656a2.32 2.32 0 0 1-1.645.686c-.617 0-1.21-.247-1.646-.686a2.35 2.35 0 0 1 0-3.311c.437-.44 1.03-.686 1.646-.686h0zm-12.41 0a2.32 2.32 0 0 1 1.645.686c.437.44.682 1.034.682 1.655s-.245 1.217-.682 1.656a2.32 2.32 0 0 1-1.645.686c-.617 0-1.21-.247-1.646-.686a2.35 2.35 0 0 1 0-3.311c.437-.44 1.03-.686 1.646-.686h0zm-12.41 0a2.32 2.32 0 0 1 1.645.686 2.35 2.35 0 0 1 0 3.311 2.32 2.32 0 0 1-3.291 0 2.35 2.35 0 0 1 0-3.311 2.32 2.32 0 0 1 1.646-.686h0z"/><path d="M624.673 428.317a2.32 2.32 0 0 1 1.645.686c.437.44.682 1.035.682 1.656s-.245 1.216-.682 1.655a2.32 2.32 0 0 1-1.645.686c-.617 0-1.21-.247-1.646-.686a2.35 2.35 0 0 1 0-3.311c.437-.44 1.03-.686 1.646-.686zm-12.41 0a2.32 2.32 0 0 1 1.645.686c.437.44.682 1.035.682 1.656s-.245 1.216-.682 1.655a2.32 2.32 0 0 1-3.291 0 2.35 2.35 0 0 1 0-3.311 2.32 2.32 0 0 1 1.646-.686zm-12.412 0a2.32 2.32 0 0 1 1.646.686 2.35 2.35 0 0 1 0 3.311 2.32 2.32 0 0 1-3.291 0c-.437-.44-.682-1.034-.682-1.655s.245-1.217.682-1.656a2.32 2.32 0 0 1 1.645-.686zm-12.41 0c.617 0 1.21.247 1.646.686a2.35 2.35 0 0 1 0 3.311c-.437.44-1.03.686-1.646.686a2.32 2.32 0 0 1-1.645-.686c-.437-.44-.682-1.034-.682-1.655s.245-1.217.682-1.656a2.32 2.32 0 0 1 1.645-.686zm-12.41 0a2.32 2.32 0 0 1 1.645.686c.437.44.682 1.035.682 1.656s-.245 1.216-.682 1.655a2.32 2.32 0 0 1-1.645.686c-.617 0-1.21-.247-1.646-.686a2.35 2.35 0 0 1 0-3.311c.437-.44 1.03-.686 1.646-.686zm-12.41 0a2.32 2.32 0 0 1 1.645.686c.437.44.682 1.035.682 1.656s-.245 1.216-.682 1.655a2.32 2.32 0 0 1-1.645.686c-.617 0-1.21-.247-1.646-.686a2.35 2.35 0 0 1 0-3.311c.437-.44 1.03-.686 1.646-.686zm-12.41 0a2.32 2.32 0 0 1 1.645.686 2.35 2.35 0 0 1 0 3.311 2.32 2.32 0 0 1-3.291 0 2.35 2.35 0 0 1 0-3.311 2.32 2.32 0 0 1 1.646-.686zm74.467-12.488a2.32 2.32 0 0 1 1.645.686c.437.44.682 1.035.682 1.656s-.245 1.216-.682 1.655-1.028.686-1.645.686a2.32 2.32 0 0 1-1.646-.686 2.35 2.35 0 0 1 0-3.311c.437-.44 1.03-.686 1.646-.686zm-12.41 0a2.32 2.32 0 0 1 1.645.686c.437.44.682 1.035.682 1.656s-.245 1.216-.682 1.655-1.028.686-1.645.686-1.2-.246-1.646-.686a2.35 2.35 0 0 1 0-3.311 2.32 2.32 0 0 1 1.646-.686zm-12.412 0a2.32 2.32 0 0 1 1.646.686 2.35 2.35 0 0 1 0 3.311c-.437.44-1.028.686-1.646.686s-1.21-.246-1.645-.686-.682-1.034-.682-1.655.245-1.217.682-1.656a2.32 2.32 0 0 1 1.645-.686zm-12.41 0c.617 0 1.21.247 1.646.686a2.35 2.35 0 0 1 0 3.311 2.32 2.32 0 0 1-1.646.686c-.617 0-1.21-.246-1.645-.686s-.682-1.034-.682-1.655.245-1.217.682-1.656a2.32 2.32 0 0 1 1.645-.686zm-12.41 0a2.32 2.32 0 0 1 1.645.686c.437.44.682 1.035.682 1.656s-.245 1.216-.682 1.655-1.028.686-1.645.686a2.32 2.32 0 0 1-1.646-.686 2.35 2.35 0 0 1 0-3.311c.437-.44 1.03-.686 1.646-.686zm-12.41 0a2.32 2.32 0 0 1 1.645.686c.437.44.682 1.035.682 1.656s-.245 1.216-.682 1.655-1.028.686-1.645.686a2.32 2.32 0 0 1-1.646-.686 2.35 2.35 0 0 1 0-3.311c.437-.44 1.03-.686 1.646-.686zm-12.41 0a2.32 2.32 0 0 1 1.645.686 2.35 2.35 0 0 1 0 3.311c-.436.44-1.028.686-1.645.686s-1.2-.246-1.646-.686a2.35 2.35 0 0 1 0-3.311 2.32 2.32 0 0 1 1.646-.686zm74.467-12.488a2.32 2.32 0 0 1 1.645.686c.437.44.682 1.035.682 1.656a2.35 2.35 0 0 1-.682 1.656 2.32 2.32 0 0 1-3.291 0 2.35 2.35 0 0 1 0-3.312c.437-.44 1.03-.686 1.646-.686zm-12.41 0a2.32 2.32 0 0 1 1.645.686c.437.44.682 1.035.682 1.656a2.35 2.35 0 0 1-.682 1.656 2.32 2.32 0 0 1-3.291 0c-.436-.44-.682-1.035-.682-1.656a2.35 2.35 0 0 1 .682-1.656 2.32 2.32 0 0 1 1.646-.686zm-12.412 0a2.32 2.32 0 0 1 1.646.686 2.35 2.35 0 0 1 0 3.312 2.32 2.32 0 0 1-3.291 0 2.35 2.35 0 0 1-.682-1.656c0-.62.245-1.217.682-1.656a2.32 2.32 0 0 1 1.645-.686zm-12.41 0c.617 0 1.21.247 1.646.686a2.35 2.35 0 0 1 0 3.312 2.32 2.32 0 0 1-3.291 0 2.35 2.35 0 0 1-.682-1.656c0-.62.245-1.217.682-1.656a2.32 2.32 0 0 1 1.645-.686zm-12.41 0a2.32 2.32 0 0 1 1.645.686c.437.44.682 1.035.682 1.656a2.35 2.35 0 0 1-.682 1.656 2.32 2.32 0 0 1-3.291 0 2.35 2.35 0 0 1 0-3.312c.437-.44 1.03-.686 1.646-.686zm-12.41 0a2.32 2.32 0 0 1 1.645.686c.437.44.682 1.035.682 1.656a2.35 2.35 0 0 1-.682 1.656 2.32 2.32 0 0 1-3.291 0 2.35 2.35 0 0 1 0-3.312c.437-.44 1.03-.686 1.646-.686zm-12.41 0a2.32 2.32 0 0 1 1.645.686 2.35 2.35 0 0 1 .682 1.656c0 .62-.246 1.216-.682 1.656a2.32 2.32 0 0 1-3.291 0c-.436-.44-.682-1.035-.682-1.656a2.35 2.35 0 0 1 .682-1.656 2.32 2.32 0 0 1 1.646-.686zm74.467-12.487a2.32 2.32 0 0 1 1.645.685 2.35 2.35 0 0 1 .682 1.656c0 .62-.245 1.217-.682 1.656a2.32 2.32 0 0 1-1.645.686c-.617 0-1.21-.247-1.646-.686a2.35 2.35 0 0 1 0-3.312 2.32 2.32 0 0 1 1.646-.685zm-12.41 0a2.32 2.32 0 0 1 1.645.685 2.35 2.35 0 0 1 .682 1.656c0 .62-.245 1.217-.682 1.656a2.32 2.32 0 0 1-3.291 0 2.35 2.35 0 0 1-.682-1.656c0-.62.246-1.216.682-1.656a2.32 2.32 0 0 1 1.646-.685zm-12.412 0a2.32 2.32 0 0 1 1.646.685 2.35 2.35 0 0 1 0 3.312 2.32 2.32 0 0 1-3.291 0c-.437-.44-.682-1.035-.682-1.656a2.35 2.35 0 0 1 .682-1.656 2.32 2.32 0 0 1 1.645-.685zm-12.41 0a2.32 2.32 0 0 1 1.646.685 2.35 2.35 0 0 1 0 3.312c-.437.44-1.03.686-1.646.686a2.32 2.32 0 0 1-1.645-.686c-.437-.44-.682-1.035-.682-1.656a2.35 2.35 0 0 1 .682-1.656 2.32 2.32 0 0 1 1.645-.685zm-12.41 0a2.32 2.32 0 0 1 1.645.685 2.35 2.35 0 0 1 .682 1.656c0 .62-.245 1.217-.682 1.656a2.32 2.32 0 0 1-1.645.686c-.617 0-1.21-.247-1.646-.686a2.35 2.35 0 0 1 0-3.312 2.32 2.32 0 0 1 1.646-.685zm-12.41 0a2.32 2.32 0 0 1 1.645.685 2.35 2.35 0 0 1 .682 1.656c0 .62-.245 1.217-.682 1.656a2.32 2.32 0 0 1-1.645.686c-.617 0-1.21-.247-1.646-.686a2.35 2.35 0 0 1 0-3.312 2.32 2.32 0 0 1 1.646-.685zm-12.41 0a2.32 2.32 0 0 1 1.645.685c.436.44.682 1.035.682 1.656a2.35 2.35 0 0 1-.682 1.656 2.32 2.32 0 0 1-3.291 0 2.35 2.35 0 0 1-.682-1.656c0-.62.246-1.216.682-1.656a2.32 2.32 0 0 1 1.646-.685zm74.467-12.488a2.32 2.32 0 0 1 1.645.686c.437.44.682 1.034.682 1.655s-.245 1.217-.682 1.656a2.32 2.32 0 0 1-1.645.686c-.617 0-1.21-.247-1.646-.686a2.35 2.35 0 0 1 0-3.311c.437-.44 1.03-.686 1.646-.686zm-12.41 0a2.32 2.32 0 0 1 1.645.686c.437.44.682 1.034.682 1.655s-.245 1.217-.682 1.656a2.32 2.32 0 0 1-3.291 0 2.35 2.35 0 0 1 0-3.311 2.32 2.32 0 0 1 1.646-.686zm-12.412 0a2.32 2.32 0 0 1 1.646.686 2.35 2.35 0 0 1 0 3.311 2.32 2.32 0 0 1-3.291 0c-.437-.44-.682-1.035-.682-1.656s.245-1.216.682-1.655a2.32 2.32 0 0 1 1.645-.686zm-12.41 0c.617 0 1.21.247 1.646.686a2.35 2.35 0 0 1 0 3.311c-.437.44-1.03.686-1.646.686a2.32 2.32 0 0 1-1.645-.686c-.437-.44-.682-1.035-.682-1.656s.245-1.216.682-1.655a2.32 2.32 0 0 1 1.645-.686zm-12.41 0a2.32 2.32 0 0 1 1.645.686c.437.44.682 1.034.682 1.655s-.245 1.217-.682 1.656a2.32 2.32 0 0 1-1.645.686c-.617 0-1.21-.247-1.646-.686a2.35 2.35 0 0 1 0-3.311c.437-.44 1.03-.686 1.646-.686zm-12.41 0a2.32 2.32 0 0 1 1.645.686c.437.44.682 1.034.682 1.655s-.245 1.217-.682 1.656a2.32 2.32 0 0 1-1.645.686c-.617 0-1.21-.247-1.646-.686a2.35 2.35 0 0 1 0-3.311c.437-.44 1.03-.686 1.646-.686zm-12.41 0a2.32 2.32 0 0 1 1.645.686 2.35 2.35 0 0 1 0 3.311 2.32 2.32 0 0 1-3.291 0 2.35 2.35 0 0 1 0-3.311 2.32 2.32 0 0 1 1.646-.686zm74.467-12.488a2.32 2.32 0 0 1 1.645.686c.437.44.682 1.035.682 1.656s-.245 1.216-.682 1.655a2.32 2.32 0 0 1-1.645.686c-.617 0-1.21-.247-1.646-.686a2.35 2.35 0 0 1 0-3.311c.437-.44 1.03-.686 1.646-.686zm-12.41 0a2.32 2.32 0 0 1 1.645.686c.437.44.682 1.035.682 1.656s-.245 1.216-.682 1.655a2.32 2.32 0 0 1-3.291 0 2.35 2.35 0 0 1 0-3.311 2.32 2.32 0 0 1 1.646-.686zm-12.412 0a2.32 2.32 0 0 1 1.646.686 2.35 2.35 0 0 1 0 3.311 2.32 2.32 0 0 1-3.291 0c-.437-.44-.682-1.034-.682-1.655s.245-1.217.682-1.656a2.32 2.32 0 0 1 1.645-.686zm-12.41 0c.617 0 1.21.247 1.646.686a2.35 2.35 0 0 1 0 3.311c-.437.44-1.03.686-1.646.686a2.32 2.32 0 0 1-1.645-.686c-.437-.44-.682-1.034-.682-1.655s.245-1.217.682-1.656a2.32 2.32 0 0 1 1.645-.686zm-12.41 0a2.32 2.32 0 0 1 1.645.686c.437.44.682 1.035.682 1.656s-.245 1.216-.682 1.655a2.32 2.32 0 0 1-1.645.686c-.617 0-1.21-.247-1.646-.686a2.35 2.35 0 0 1 0-3.311c.437-.44 1.03-.686 1.646-.686zm-12.41 0a2.32 2.32 0 0 1 1.645.686c.437.44.682 1.035.682 1.656s-.245 1.216-.682 1.655a2.32 2.32 0 0 1-1.645.686c-.617 0-1.21-.247-1.646-.686a2.35 2.35 0 0 1 0-3.311c.437-.44 1.03-.686 1.646-.686zm-12.41 0a2.32 2.32 0 0 1 1.645.686 2.35 2.35 0 0 1 0 3.311 2.32 2.32 0 0 1-3.291 0 2.35 2.35 0 0 1 0-3.311 2.32 2.32 0 0 1 1.646-.686zm74.467-12.488a2.32 2.32 0 0 1 1.645.686c.437.44.682 1.035.682 1.656s-.245 1.216-.682 1.655a2.32 2.32 0 0 1-1.645.686c-.617 0-1.21-.247-1.646-.686a2.35 2.35 0 0 1 0-3.311c.437-.44 1.03-.686 1.646-.686zm-12.41 0a2.32 2.32 0 0 1 1.645.686c.437.44.682 1.035.682 1.656s-.245 1.216-.682 1.655a2.32 2.32 0 0 1-3.291 0 2.35 2.35 0 0 1 0-3.311 2.32 2.32 0 0 1 1.646-.686zm-12.412 0a2.32 2.32 0 0 1 1.646.686 2.35 2.35 0 0 1 0 3.311 2.32 2.32 0 0 1-3.291 0c-.437-.44-.682-1.034-.682-1.655s.245-1.217.682-1.656a2.32 2.32 0 0 1 1.645-.686zm-12.41 0c.617 0 1.21.247 1.646.686a2.35 2.35 0 0 1 0 3.311c-.437.44-1.03.686-1.646.686a2.32 2.32 0 0 1-1.645-.686c-.437-.44-.682-1.034-.682-1.655s.245-1.217.682-1.656a2.32 2.32 0 0 1 1.645-.686zm-12.41 0a2.32 2.32 0 0 1 1.645.686c.437.44.682 1.035.682 1.656s-.245 1.216-.682 1.655a2.32 2.32 0 0 1-1.645.686c-.617 0-1.21-.247-1.646-.686a2.35 2.35 0 0 1 0-3.311c.437-.44 1.03-.686 1.646-.686zm-12.41 0a2.32 2.32 0 0 1 1.645.686c.437.44.682 1.035.682 1.656s-.245 1.216-.682 1.655a2.32 2.32 0 0 1-1.645.686c-.617 0-1.21-.247-1.646-.686a2.35 2.35 0 0 1 0-3.311c.437-.44 1.03-.686 1.646-.686zm-12.41 0a2.32 2.32 0 0 1 1.645.686 2.35 2.35 0 0 1 0 3.311 2.32 2.32 0 0 1-3.291 0 2.35 2.35 0 0 1 0-3.311 2.32 2.32 0 0 1 1.646-.686zm74.467-12.488a2.32 2.32 0 0 1 1.645.686c.437.44.682 1.035.682 1.656a2.35 2.35 0 0 1-.682 1.656 2.32 2.32 0 0 1-3.291 0 2.35 2.35 0 0 1 0-3.312c.437-.44 1.03-.686 1.646-.686h0zm-12.41 0a2.32 2.32 0 0 1 1.645.686c.437.44.682 1.035.682 1.656a2.35 2.35 0 0 1-.682 1.656 2.32 2.32 0 0 1-3.291 0c-.436-.44-.682-1.035-.682-1.656a2.35 2.35 0 0 1 .682-1.656 2.32 2.32 0 0 1 1.646-.686h0zm-12.412 0a2.32 2.32 0 0 1 1.646.686 2.35 2.35 0 0 1 0 3.312 2.32 2.32 0 0 1-3.291 0 2.35 2.35 0 0 1-.682-1.656c0-.62.245-1.217.682-1.656a2.32 2.32 0 0 1 1.645-.686h0zm-12.41 0c.617 0 1.21.247 1.646.686a2.35 2.35 0 0 1 0 3.312 2.32 2.32 0 0 1-3.291 0 2.35 2.35 0 0 1-.682-1.656c0-.62.245-1.217.682-1.656a2.32 2.32 0 0 1 1.645-.686h0zm-12.41 0a2.32 2.32 0 0 1 1.645.686c.437.44.682 1.035.682 1.656a2.35 2.35 0 0 1-.682 1.656 2.32 2.32 0 0 1-3.291 0 2.35 2.35 0 0 1 0-3.312c.437-.44 1.03-.686 1.646-.686h0zm-12.41 0a2.32 2.32 0 0 1 1.645.686c.437.44.682 1.035.682 1.656a2.35 2.35 0 0 1-.682 1.656 2.32 2.32 0 0 1-3.291 0 2.35 2.35 0 0 1 0-3.312c.437-.44 1.03-.686 1.646-.686h0zm-12.41 0a2.32 2.32 0 0 1 1.645.686 2.35 2.35 0 0 1 .682 1.656c0 .62-.246 1.216-.682 1.656a2.32 2.32 0 0 1-3.291 0c-.436-.44-.682-1.035-.682-1.656a2.35 2.35 0 0 1 .682-1.656 2.32 2.32 0 0 1 1.646-.686h0z"/></g><path d="M27.537 386.493l-20.69 5.937c-1.8.527-2.46 2.793-1.15 4.098l14.84 14.78c1.3 1.305 3.573.647 4.092-1.166l5.85-20.717c.52-1.812-1.113-3.44-2.944-2.932z" class="B"/><g clip-path="url(#J)"><path d="M77.07 21.883c-4.05-.115-8.2 0-11.997 1.164-10.334 3.17-15.232 13.545-13.64 22.5s8.144 16.776 14.94 23.915 14.162 14.198 17.9 22.73c1.86 4.26 2.728 9.03.84 13.284-2.914 6.557-11.7 10.22-20.136 10.982s-16.905-.723-25.37-1.22c-3.552-.206-7.204-.23-10.55.727-3.672 1.044-6.732 3.176-9.545 5.398-10.997 8.71-19.8 20.604-18.362 33.08 1.608 14.162 15.946 25.355 31.65 31.36 5.2 2.006 10.7 3.602 15.278 6.44 12.057 7.5 14.765 21.537 13.564 33.934s-5.3 24.808-3.014 37.094c2.678 14.293 14.53 27.206 30.515 33.236 14.242 5.373 32.067 5.017 44.712-2.563 6.164-3.703 10.826-8.845 14.88-14.163a114.24 114.24 0 0 0 14.795-25.585c1.763-4.26 3.42-8.84 7.535-11.8 2.512-1.82 5.768-2.84 8.988-3.632 9.706-2.388 19.93-3.04 29.726-5.167s19.628-6.096 24.953-13.184c7.536-10.034 4.02-22.887 4.055-34.686.06-26.92 19.648-51.016 26.877-77.26 2.36-8.574 3.24-18.06-2.034-25.71-3.582-5.192-9.626-8.94-15.976-11.835-13.97-6.366-29.852-9.2-45.47-11.96-21.708-3.833-48.068-4.33-64.893-16.73-16.12-11.88-38.21-20.363-60.2-20.363z" class="B F"/><g opacity=".5"><path opacity=".5" d="M13.735 175.26c-1.075 1.586-1.96 3.888-.553 6.572 2.763 5.268 9.596 4.184 12.916 9.226a9.21 9.21 0 0 1 1.432 4.661c.126 2.854-.76 5.102-1.216 7.615-.598 2.964-.132 6.044 1.316 8.7a15.37 15.37 0 0 0 7.033 6.266c2.572 1.134 5.024 1.425 7.486 1.977 3.054.7 6.028 1.708 8.877 3 1.354.567 2.628 1.31 3.788 2.208 1.415 1.24 2.7 2.622 3.833 4.123l10.686 13.174c1.358 1.776 2.87 3.428 4.522 4.937a27.26 27.26 0 0 0 5.888 3.617c4.265 2.122 8.726 4.294 12.43 4.05s6.275-3.813 4.52-8.8c-1.658-4.746-6.33-8.744-8.45-13.48-3.34-7.465 1.035-13.044-1.763-20.52-2.683-7.184-10.203-12-15.006-18.562-3.446-4.665-5.365-10.094-8.47-14.995-4.52-7.023-11.253-12.396-17.583-15.116-5.567-2.363-11.663-3.206-17.664-2.443-2.29.25-4.546.678-6.174 2.047-1.728 1.455-1.507 4.174-2.633 6.106-1.29 2.222-3.753 3.48-5.215 5.628z" class="B"/><g class="H I L"><path opacity=".5" d="M20.442 165.158s53.494 49.942 75.066 88.827"/><path opacity=".5" d="M13.4 182.14s21.376-4.148 36.172 12.492M28.58 213.5s23.612-16.5 31.78-6.898m-15.04-42.8s-2.487 12.622 6.46 33.24m34.675 15.75s-2.1 8.278-18.9 2.192M69.4 241.75s10.254-11.835 5.592-17.644"/></g></g><path d="M3.682 117.333C1.17 120.298-1.18 124.4.668 128.45c3.557 7.946 16.724 4.058 21.422 11.458 1.407 2.213 1.598 4.917 1.27 7.33-.633 4.72-2.974 8.73-4.592 13.043s-2.457 9.532-.176 14.087c2.195 4.4 6.822 7.195 11.304 8.303s8.973.858 13.45 1.004a74.56 74.56 0 0 1 15.75 2.317 21.78 21.78 0 0 1 6.42 2.579c2.286 1.46 4.135 3.602 5.943 5.71l16.076 18.708c2.135 2.508 4.316 5.016 6.963 6.858 3.055 2.122 6.53 3.2 9.952 4.24 7.36 2.247 15.072 4.515 22.105 2.975s12.937-8.253 11.178-16.024c-1.673-7.4-9.218-12.647-11.76-19.896-4.02-11.424 5.903-22.02 2.924-33.643-2.853-11.147-15.503-16.897-22.537-26.333-5.023-6.763-7.003-15.22-11.394-22.415-6.34-10.385-17.392-17.263-28.395-19.877s-22.07-1.395-32.39 1.22c-4.37 1.11-8.74 2.508-12.208 5.278-3.682 2.945-4.104 7.415-6.787 10.967-3.1 4.13-8.118 6.983-11.505 10.997z" class="B"/><g stroke="#052b5d" class="H I"><path d="M19.332 98.47s85.24 66.974 113.92 125.218"/><path d="M.94 128.87s41.38-13.37 64.074 9.863"/></g><path d="M19.93 176.53s49.29-34.616 61.748-21.116" class="H I L"/><path d="M66.445 88.677s-8.495 21.768 2 53.408" stroke="#052b5d" class="H I"/><g class="L H I"><path d="M128.766 157.813s-6.436 14.413-36.12 9.37m-4.68 44.014s22.844-22.817 15.86-31.104"/></g><g class="B"><path d="M310.458 387.135c129.018 0 233.608-27.968 233.608-62.47s-104.6-62.47-233.608-62.47-233.608 27.97-233.608 62.47 104.6 62.47 233.608 62.47z" class="C"/><path d="M492.41.206s-18 17.975-7.837 44.65-17.423 71.033-17.423 71.033.296-.045.844-.14c36.97-6.522 55.342-48.743 34.785-80.113-7.64-11.66-13.916-25.335-10.37-35.43z"/></g><path d="M492.41.206s-10.164 22.034 0 40.01 1.743 68.423-25.26 75.673" class="H I L"/><use xlink:href="#K" class="B"/><use xlink:href="#K" fill="#f5f5f5" class="F"/><g class="H I L"><path d="M524.473 72.914s-15.946 3.512-14.635 17.97-23.677 31.832-47.274 18.06M123.938 140.37s-6.662-22.576 1.25-39.2a35.62 35.62 0 0 0 2.889-22.375 60 60 0 0 0-3.17-10.5"/></g><g class="B"><path d="M129.82 57.783c0 2.77-5.024 10.8-5.024 10.8s-5.024-8.027-5.024-10.8a5.02 5.02 0 0 1 1.47-3.547 5.03 5.03 0 0 1 3.553-1.469c1.332 0 2.6.53 3.552 1.47a4.97 4.97 0 0 1 1.472 3.547zm8.3 15.332c-1.507 2.323-10.088 6.336-10.088 6.336s.156-9.462 1.663-11.785a5.03 5.03 0 0 1 1.346-1.499c.546-.404 1.168-.692 1.828-.85s1.347-.178 2.016-.063a5.03 5.03 0 0 1 3.316 2.143 5.03 5.03 0 0 1 .766 1.862 5.02 5.02 0 0 1-.028 2.013c-.146.662-.424 1.288-.82 1.84zm-.36 26.197c-2.477 1.244-11.912.386-11.912.386s4.918-8.087 7.4-9.33a5.03 5.03 0 0 1 1.918-.61 5.05 5.05 0 0 1 2.004.19c.648.197 1.25.525 1.768.96a5.02 5.02 0 0 1 1.249 1.577 5.01 5.01 0 0 1 .251 3.931 5.05 5.05 0 0 1-1.037 1.723c-.457.5-1.014.9-1.63 1.178v-.005zm-4.744 19.756c-2.23 1.646-11.675 2.388-11.675 2.388s3.476-8.8 5.707-10.445a5.02 5.02 0 0 1 3.804-1.094c.675.084 1.325.304 1.913.647s1.098.802 1.503 1.348a5.01 5.01 0 0 1 .85 1.829 5 5 0 0 1 .06 2.017c-.117.67-.37 1.307-.74 1.876a5.01 5.01 0 0 1-1.42 1.434zm-15.518-39.08c2 1.927 11.248 3.928 11.248 3.928s-2.266-9.186-4.255-11.112c-.465-.495-1.025-.9-1.648-1.164a5.03 5.03 0 0 0-5.622 1.098 5.03 5.03 0 0 0-1.087 1.698 4.99 4.99 0 0 0-.33 1.988c.025.688.2 1.344.48 1.957a4.86 4.86 0 0 0 1.213 1.61v-.005zm-5.26 23.177c2.477 1.244 11.912.386 11.912.386s-4.918-8.087-7.4-9.33a5.03 5.03 0 0 0-3.742-.158 5.02 5.02 0 0 0-2.812 2.471 5.01 5.01 0 0 0-.319 3.727c.38 1.237 1.22 2.28 2.35 2.9v-.005zm-2.01 23.228c2.23 1.645 11.675 2.388 11.675 2.388s-3.476-8.8-5.707-10.445a5.03 5.03 0 0 0-6.827 1.19 5.01 5.01 0 0 0-.946 3.605c.16 1.278.806 2.446 1.805 3.262z"/></g><path d="M538.76 271.66h-42.747a14.21 14.21 0 0 0 1.507-6.356V70.912c-.003-3.79-1.512-7.422-4.196-10.1S487 56.63 483.207 56.63H152.302a14.32 14.32 0 0 0-10.12 4.186 14.28 14.28 0 0 0-4.193 10.107v194.38a14.2 14.2 0 0 0 1.508 6.356h-44.26c-1.003 0-1.966.398-2.675 1.106a3.78 3.78 0 0 0-1.108 2.672v3.045c0 5.607 2.23 10.984 6.2 14.95a21.19 21.19 0 0 0 14.97 6.192h408.78a21.19 21.19 0 0 0 14.97-6.192 21.13 21.13 0 0 0 6.201-14.949v-3.045c0-.5-.1-.993-.29-1.453s-.474-.878-.828-1.23-.775-.63-1.238-.817-.957-.283-1.457-.28zm-263.394 12.1l-3.667-4.158h90.986l-4.06 4.158h-83.26z" fill="url(#A)"/><path d="M481.745 59.374H153.73a11.68 11.68 0 0 0-11.686 11.669V265.63a11.68 11.68 0 0 0 11.686 11.669h328.016a11.68 11.68 0 0 0 11.685-11.669V71.043a11.68 11.68 0 0 0-11.685-11.669z" class="N"/><path d="M485.297 91.14H149.444v178.03h335.853V91.14z" class="P"/><path d="M317.37 78.578c1.634 0 2.96-1.323 2.96-2.955s-1.325-2.955-2.96-2.955-2.96 1.323-2.96 2.955 1.324 2.955 2.96 2.955z" class="E"/><path d="M369.226 269.537l-11.554 11.82h-81.387l-10.43-11.82h-165.61a3.7 3.7 0 0 0-2.614 1.081 3.69 3.69 0 0 0-1.083 2.611v2.98c0 2.715.536 5.404 1.577 7.912s2.567 4.787 4.49 6.705a20.69 20.69 0 0 0 6.72 4.477c2.513 1.037 5.206 1.57 7.925 1.565h399.495a20.7 20.7 0 0 0 14.629-6.051 20.64 20.64 0 0 0 6.059-14.608v-2.98a3.69 3.69 0 0 0-1.083-2.611 3.7 3.7 0 0 0-2.614-1.081h-164.52z" class="N"/><path d="M261.777 104.705h-91.82v69.102h91.82v-69.102z" class="E"/><path d="M209.544 110.685h-30.606v17.273h30.606v-17.273z" class="B F"/><g class="G"><path d="M252.794 110.685h-35.93v4h35.93v-4zm-10.644 6.643h-25.285v3.988h25.285v-3.988zm10.644 6.642h-35.93v3.988h35.93v-3.988z"/><use xlink:href="#L"/><use xlink:href="#M"/><path d="M252.794 143.907h-73.856v3.988h73.856v-3.988z"/><use xlink:href="#N"/><path d="M252.794 157.2h-73.856v3.988h73.856V157.2zm0 6.648h-73.856v4h73.856v-4z"/></g><path d="M362.91 104.705h-91.82v69.102h91.82v-69.102z" class="E"/><path d="M310.674 110.685h-30.606v17.273h30.606v-17.273z" class="B F"/><g class="G"><path d="M353.93 110.685H318v4h35.93v-4zm-10.646 6.643H318v3.988h25.285v-3.988zm10.646 6.642H318v3.988h35.93v-3.988zm-.006 6.647h-73.856v3.988h73.856v-3.988zm0 6.643h-73.856v4h73.856v-4zm0 6.647h-73.856v3.988h73.856v-3.988zm-5.99 6.643h-67.867v3.988h67.867v-3.988zm5.99 6.64h-73.856v3.988h73.856V157.2zm0 6.648h-73.856v4h73.856v-4z"/></g><path d="M464.04 104.705h-91.82v69.102h91.82v-69.102z" class="E"/><path d="M411.808 110.685h-30.605v17.273h30.605v-17.273z" class="B F"/><g class="G"><path d="M455.058 110.685h-35.93v4h35.93v-4zm-10.645 6.643h-25.285v3.988h25.285v-3.988zm10.645 6.642h-35.93v3.988h35.93v-3.988zm0 6.647h-73.855v3.988h73.855v-3.988zm0 6.643h-73.855v4h73.855v-4zm0 6.647h-73.855v3.988h73.855v-3.988zm-5.988 6.643h-67.867v3.988h67.867v-3.988zm5.988 6.64h-73.855v3.988h73.855V157.2zm0 6.648h-73.855v4h73.855v-4z"/></g><path d="M261.777 182.44h-91.82v69.102h91.82V182.44z" class="E"/><path d="M209.544 188.42h-30.606v17.273h30.606V188.42z" class="B F"/><g class="G"><path d="M252.794 188.42h-35.93v4h35.93v-4zm-10.644 6.648h-25.285v3.988h25.285v-3.988zm10.644 6.632h-35.93v3.988h35.93V201.7zm0 6.652h-73.856v3.988h73.856v-3.988zm0 6.648h-73.856v4h73.856v-4zm0 6.642h-73.856v3.988h73.856v-3.988zm-5.99 6.648h-67.867v3.988h67.867V228.3zm5.99 6.64h-73.856v3.988h73.856v-3.988zm0 6.643h-73.856v4h73.856v-4z"/></g><path d="M362.91 182.44h-91.82v69.102h91.82V182.44z" class="E"/><path d="M310.674 188.42h-30.606v17.273h30.606V188.42z" class="B F"/><g class="G"><path d="M353.93 188.42H318v4h35.93v-4zm-10.646 6.648H318v3.988h25.285v-3.988zm10.646 6.632H318v3.988h35.93V201.7zm-.006 6.652h-73.856v3.988h73.856v-3.988zm0 6.648h-73.856v4h73.856v-4zm0 6.642h-73.856v3.988h73.856v-3.988zm-5.99 6.648h-67.867v3.988h67.867V228.3zm5.99 6.64h-73.856v3.988h73.856v-3.988zm0 6.643h-73.856v4h73.856v-4z"/></g><path d="M464.04 182.44h-91.82v69.102h91.82V182.44z" class="C D"/><path d="M222.09 127.958H80.417a12.99 12.99 0 0 0-4.973.979c-1.577.65-3 1.603-4.218 2.806a12.96 12.96 0 0 0-2.82 4.205c-.654 1.574-.99 3.26-.992 4.963v196.026c.002 1.703.34 3.388.994 4.96s1.612 3 2.82 4.202 2.64 2.154 4.215 2.804 3.264.98 4.97.98h141.672a13 13 0 0 0 4.968-.979 12.99 12.99 0 0 0 4.215-2.804 12.95 12.95 0 0 0 2.819-4.202c.655-1.57.992-3.256.994-4.96V140.91a12.93 12.93 0 0 0-.99-4.96c-.654-1.573-1.61-3.002-2.817-4.205s-2.64-2.156-4.215-2.806a12.99 12.99 0 0 0-4.969-.982z" fill="url(#B)"/><path d="M223.043 130.617H79.462c-5.55 0-10.048 4.492-10.048 10.034v197.2c0 5.542 4.498 10.034 10.048 10.034h143.58c5.55 0 10.047-4.492 10.047-10.034v-197.2c0-5.542-4.498-10.034-10.047-10.034z" class="N"/><path d="M224.77 151.17H77.73v176.164H224.77V151.17z" class="P"/><g class="E"><path d="M150.584 142.577c1.102 0 1.995-.892 1.995-1.992s-.893-2-1.995-2a1.99 1.99 0 0 0-1.994 1.99c0 1.1.893 1.992 1.994 1.992zm.001 200.656c3.307 0 5.988-2.677 5.988-5.98s-2.68-5.98-5.988-5.98-6 2.678-6 5.98 2.68 5.98 6 5.98zM126.023 169.17h-41.94v31.566h41.94V169.17z"/></g><path d="M102.17 171.905H88.19v7.892h13.98v-7.892z" class="B F"/><g class="G"><use xlink:href="#O"/><use xlink:href="#P"/><path d="M121.924 177.976H105.51v1.82h16.413v-1.82z"/><use xlink:href="#Q"/><path d="M121.924 184.046H88.2v1.82h33.736v-1.82zm0 3.034H88.2v1.82h33.736v-1.82zm-2.734 3.036h-31v1.82h31.002v-1.82zm2.734 3.034H88.2v1.82h33.736v-1.82zm0 3.036H88.2v1.822h33.736v-1.822z"/></g><path d="M172.222 169.17h-41.94v31.566h41.94V169.17z" class="E"/><path d="M148.364 171.905h-13.982v7.892h13.982v-7.892z" class="B F"/><g class="G"><use xlink:href="#R"/><path d="M163.26 174.94H151.7v1.82h11.55v-1.82zm4.862 3.036H151.7v1.82h16.413v-1.82z"/><use xlink:href="#S"/><path d="M168.117 184.046h-33.735v1.82h33.735v-1.82zm0 3.034h-33.735v1.82h33.735v-1.82z"/><use xlink:href="#T"/><path d="M168.117 193.15h-33.735v1.82h33.735v-1.82z"/><use xlink:href="#U"/></g><path d="M218.416 169.17h-41.94v31.566h41.94V169.17z" class="E"/><path d="M194.563 171.905h-13.98v7.892h13.98v-7.892z" class="B F"/><g class="G"><use xlink:href="#V"/><path d="M209.454 174.94h-11.55v1.82h11.55v-1.82zm4.863 3.036h-16.413v1.82h16.413v-1.82zm0 3.034h-33.735v1.82h33.735V181zm0 3.036h-33.735v1.82h33.735v-1.82zm0 3.034h-33.735v1.82h33.735v-1.82zm-2.733 3.036h-31.002v1.82h31.002v-1.82zm2.733 3.034h-33.735v1.82h33.735v-1.82zm0 3.036h-33.735v1.822h33.735v-1.822z"/></g><path d="M126.023 204.68h-41.94v31.565h41.94V204.68z" class="E"/><path d="M102.17 207.414H88.19v7.89h13.98v-7.89z" class="B F"/><g class="G"><path d="M121.924 207.414H105.5v1.82h16.413v-1.82zm-4.864 3.036H105.5v1.82h11.55v-1.82zm4.864 3.034H105.5v1.82h16.413v-1.82zm0 3.036H88.2v1.822h33.736v-1.822zm0 3.035H88.2v1.82h33.736v-1.82zm0 3.045H88.2v1.82h33.736v-1.82zm-2.734 3.025h-31v1.82h31.002v-1.82zm2.734 3.035H88.2v1.82h33.736v-1.82zm0 3.035H88.2v1.82h33.736v-1.82z"/></g><path d="M172.222 204.68h-41.94v31.565h41.94V204.68z" class="E"/><path d="M148.364 207.414h-13.982v7.89h13.982v-7.89z" class="B F"/><g class="G"><path d="M168.122 207.414H151.7v1.82h16.413v-1.82zm-4.862 3.036H151.7v1.82h11.55v-1.82zm4.862 3.034H151.7v1.82h16.413v-1.82zm-.005 3.036h-33.735v1.822h33.735v-1.822zm0 3.035h-33.735v1.82h33.735v-1.82zm0 3.045h-33.735v1.82h33.735v-1.82zm-2.733 3.025h-31.002v1.82h31.002v-1.82zm2.733 3.035h-33.735v1.82h33.735v-1.82zm0 3.035h-33.735v1.82h33.735v-1.82z"/></g><path d="M218.416 204.68h-41.94v31.565h41.94V204.68z" class="E"/><path d="M194.563 207.414h-13.98v7.89h13.98v-7.89z" class="B F"/><g class="G"><path d="M214.317 207.414h-16.413v1.82h16.413v-1.82zm-4.863 3.036h-11.55v1.82h11.55v-1.82zm4.863 3.034h-16.413v1.82h16.413v-1.82zm0 3.036h-33.735v1.822h33.735v-1.822zm0 3.035h-33.735v1.82h33.735v-1.82zm0 3.045h-33.735v1.82h33.735v-1.82zm-2.733 3.025h-31.002v1.82h31.002v-1.82zm2.733 3.035h-33.735v1.82h33.735v-1.82zm0 3.035h-33.735v1.82h33.735v-1.82z"/></g><use xlink:href="#W" class="E"/><path d="M102.17 244.328H88.19v7.89h13.98v-7.89z" class="B F"/><g class="G"><path d="M121.924 244.328H105.5v1.82h16.413v-1.82zm-4.864 3.035H105.5v1.82h11.55v-1.82zm4.864 3.035H105.5v1.82h16.413v-1.82zm0 3.035H88.2v1.82h33.736v-1.82zm0 3.035H88.2v1.82h33.736v-1.82zm0 3.035H88.2v1.82h33.736v-1.82zm-2.734 3.035h-31v1.822h31.002v-1.822zm2.734 3.036H88.2v1.82h33.736v-1.82zm0 3.036H88.2v1.82h33.736v-1.82z"/></g><path d="M172.222 241.593h-41.94v31.566h41.94v-31.566z" class="E"/><path d="M148.364 244.328h-13.982v7.89h13.982v-7.89z" class="B F"/><g class="G"><path d="M168.122 244.328H151.7v1.82h16.413v-1.82zm-4.862 3.035H151.7v1.82h11.55v-1.82zm4.862 3.035H151.7v1.82h16.413v-1.82zm-.005 3.035h-33.735v1.82h33.735v-1.82zm0 3.035h-33.735v1.82h33.735v-1.82zm0 3.035h-33.735v1.82h33.735v-1.82zm-2.733 3.035h-31.002v1.822h31.002v-1.822zm2.733 3.036h-33.735v1.82h33.735v-1.82zm0 3.036h-33.735v1.82h33.735v-1.82z"/></g><path d="M218.416 241.593h-41.94v31.566h41.94v-31.566z" class="E"/><path d="M194.563 244.328h-13.98v7.89h13.98v-7.89z" class="B F"/><g class="G"><path d="M214.317 244.328h-16.413v1.82h16.413v-1.82zm-4.863 3.035h-11.55v1.82h11.55v-1.82zm4.863 3.035h-16.413v1.82h16.413v-1.82zm0 3.035h-33.735v1.82h33.735v-1.82zm0 3.035h-33.735v1.82h33.735v-1.82zm0 3.035h-33.735v1.82h33.735v-1.82zm-2.733 3.035h-31.002v1.822h31.002v-1.822zm2.733 3.036h-33.735v1.82h33.735v-1.82zm0 3.036h-33.735v1.82h33.735v-1.82z"/></g><path d="M126.023 277.102h-41.94v31.566h41.94v-31.566z" class="E"/><path d="M102.17 279.836H88.19v7.892h13.98v-7.892z" class="B F"/><g class="G"><path d="M121.924 279.836H105.5v1.82h16.413v-1.82zm-4.864 3.034H105.5v1.822h11.55v-1.822zm4.864 3.037H105.5v1.82h16.413v-1.82zm0 3.035H88.2v1.82h33.736v-1.82zm0 3.035H88.2v1.82h33.736v-1.82zm0 3.035H88.2v1.82h33.736v-1.82zm-2.734 3.035h-31v1.82h31.002v-1.82zm2.734 3.035H88.2v1.822h33.736v-1.822zm0 3.036H88.2v1.82h33.736v-1.82z"/></g><path d="M172.222 277.102h-41.94v31.566h41.94v-31.566z" class="E"/><path d="M148.364 279.836h-13.982v7.892h13.982v-7.892z" class="B F"/><g class="G"><path d="M168.122 279.836H151.7v1.82h16.413v-1.82zm-4.862 3.034H151.7v1.822h11.55v-1.822zm4.862 3.037H151.7v1.82h16.413v-1.82zm-.005 3.035h-33.735v1.82h33.735v-1.82zm0 3.035h-33.735v1.82h33.735v-1.82zm0 3.035h-33.735v1.82h33.735v-1.82zm-2.733 3.035h-31.002v1.82h31.002v-1.82zm2.733 3.035h-33.735v1.822h33.735v-1.822zm0 3.036h-33.735v1.82h33.735v-1.82z"/></g><path d="M218.416 277.102h-41.94v31.566h41.94v-31.566z" class="C D"/><path d="M114.1 194.4H41.356a7.19 7.19 0 0 0-2.754.542c-.874.36-1.668.886-2.337 1.552s-1.2 1.457-1.564 2.327-.552 1.805-.553 2.748v159.078c.002.943.2 1.877.553 2.748a7.17 7.17 0 0 0 1.564 2.327c.67.666 1.464 1.193 2.337 1.553s1.81.543 2.754.54H114.1a7.2 7.2 0 0 0 2.754-.541 7.21 7.21 0 0 0 2.338-1.553c.67-.665 1.2-1.456 1.564-2.327s.55-1.805.553-2.748V201.574a7.17 7.17 0 0 0-.551-2.749c-.364-.872-.895-1.663-1.565-2.33s-1.463-1.194-2.337-1.554-1.81-.544-2.756-.542z" fill="url(#C)"/><path d="M115.12 195.735h-74.78c-3.052 0-5.526 2.47-5.526 5.518V361.64c0 3.048 2.474 5.52 5.526 5.52h74.78c3.052 0 5.527-2.47 5.527-5.52V201.253c0-3.047-2.475-5.518-5.527-5.518z" class="N"/><path d="M114.322 211.678H41.135v139.527h73.187V211.678z" class="P"/><g class="E"><path d="M69.078 204.37c.366 0 .663-.297.663-.662s-.297-.663-.663-.663-.663.297-.663.663.297.662.663.662zm17.468-1.33H72.9a.5.5 0 0 0-.502.502v.326a.5.5 0 0 0 .502.502h13.635a.5.5 0 0 0 .502-.502v-.326a.5.5 0 0 0-.502-.502zm-9.15 159.463c2.572 0 4.657-2.082 4.657-4.65s-2.085-4.65-4.657-4.65-4.657 2.082-4.657 4.65 2.085 4.65 4.657 4.65z"/></g><path d="M102.682 220.03H52.775v37.56h49.907v-37.56z" class="C D"/><path d="M102.682 262.288H52.775v37.56h49.907v-37.56z" class="E"/><path d="M74.293 265.538H57.66v9.392h16.634v-9.392z" class="B F"/><g class="G"><path d="M97.8 265.538H78.272v2.168H97.8v-2.168zm-5.783 3.612H78.272v2.167h13.745v-2.167zm5.783 3.608H78.272v2.167H97.8v-2.167z"/><use xlink:href="#X"/><path d="M97.804 279.982H57.66v2.167h40.145v-2.167zm0 3.612H57.66v2.167h40.145v-2.167zm-3.254 3.612h-36.9v2.167h36.9v-2.167zm3.254 3.612H57.66v2.167h40.145v-2.167zm0 3.612H57.66v2.167h40.145v-2.167z"/></g><path d="M102.682 304.63H52.775v37.56h49.907v-37.56z" class="E"/><path d="M74.293 307.88H57.66v9.392h16.634v-9.392z" class="B F"/><g class="G"><path d="M97.8 307.88H78.272v2.167H97.8v-2.167zm-5.783 3.612H78.272v2.167h13.745v-2.167zm5.783 3.612H78.272v2.168H97.8v-2.168zm.004 3.612H57.66v2.168h40.145v-2.168zm0 3.612H57.66v2.168h40.145v-2.168zm0 3.612H57.66v2.167h40.145v-2.167zm-3.254 3.613h-36.9v2.167h36.9v-2.167zm3.254 3.607H57.66v2.167h40.145v-2.167zm0 3.612H57.66v2.167h40.145v-2.167z"/></g><path d="M273.126 322.374c-3.376-4.09-7.466-8.8-6.893-14.233.462-4.4-.648-8.483-.427-12.903.31-6.28-.96-11.203-5.49-15.23-2.648-2.353-7.074-4.204-8.4-3.733-2.612.934-5.46.577-8.15 1.204-2.04.502-3.4 1.2-4.24 2.128-1.693 1.505-1.723 3.642-.95 5.924a10 10 0 0 0-.659 8.13 10 10 0 0 0 2.18 3.557 10.01 10.01 0 0 0 3.442 2.36c-1.884.783-3.516 2.594-4.144 6.266a42.82 42.82 0 0 1-2.01 7.405c-.4.2-.808.357-1.226.502.09.035.186.06.282.095l-.593.22c.36.14.735.247 1.115.32-1.37 3.552-3.212 6.905-5.476 9.968 0 0-5.687 1.254-7.897-.938a29.92 29.92 0 0 0 .849 1.054l-8.747-3.562c-2.2-.873-2.768 0-2.738 1.214-.54.063-1.063.233-1.537.502a14.7 14.7 0 0 0-2.04-1.094c-1.266-.31-5.37-2.51-9.48 5.017-2.39 4.38-8.54 12.366-13.237 18.28-9.17 4.21-21.1 9.532-25.532 10.88h-2.833l-.633-1.003-.22.145-.095-.145s-5.582 3.858-11.25 3.888c-.806-.013-1.608-.118-2.39-.31-2.608-.657-4.44-.948-5.752-.923-1.553-.025-2.432.34-2.98 1.033a2.77 2.77 0 0 0-.195.286 3.17 3.17 0 0 0-.166.316 5.2 5.2 0 0 0-.141.346.71.71 0 0 0 .02.317c.03.102.084.196.156.275.075.11.158.213.246.31l.156.17c1.122 1.043 2.338 1.982 3.632 2.804l1.477.97.98.622.874.546.35.216.392.24.7.426.417.25.783.467.633.376c1.658 1.003 3.316 1.927 4.803 2.764l1.045.587.1.055.668.372 1.16.642.8.436.372.206.402.216.08.045.693.376c.143.024.29.016.43-.022a1 1 0 0 0 .38-.199c.2-.852.694-2.68 1.216-2.82s2.803-4.134 3.45-6.793h6.165a27.05 27.05 0 0 0 3.602-.547c-1.593 1.134-3.17 1.847-4.396 1.54-2.592-.643-5.05.933-5.295 2.508l-.03.095v.723c0 .03 0 .085.03.125s0 .055 0 .08a1.32 1.32 0 0 0 .065.161v.04a1.62 1.62 0 0 0 .116.191l.05.065.1.125.07.07.115.1.086.07.135.1.1.065.165.095.11.06.206.096.105.045a4.92 4.92 0 0 0 .352.13c.126.04.432.13.698.196l.267.065.387.1.206.045.844.17.748.136.774.135 1.507.246 1.33.2 1.733.246.382.05.623.086.894.12.613.08 1.583.2.502.06 1.005.12 3.748.436 2.034.226.292.03 1.834.2.788.08h.086l.502.05c.063.006.126 0 .187-.02s.115-.05.162-.093.085-.093.112-.15.04-.12.04-.182v-.05a.45.45 0 0 0 .076-.24 10.32 10.32 0 0 1 .281-2.228 9.21 9.21 0 0 1 .116-.381l.05-.146c.055-.155.1-.31.176-.47.044-.113.083-.23.115-.346l.03-.11c0-.06.03-.125.046-.2.638-2.168-.13-6.206-.352-7.79a8.34 8.34 0 0 0-.347-1.505.61.61 0 0 0 .121 0c.327-.122.636-.29.914-.502 4.657-1.66 8.59-3.557 9.832-5.458a8.52 8.52 0 0 1 6.028.627c2.412 1.2 20.664 7.144 29.164 9.893 1.507 1.314 2.723 2.082 3.38 2.007 0 0 10.816 1.745 15.167-1.666.387.266.628.41.628.41s6.32-3.135 7.27-7.21c.307-1.32.583-3.27.864-5.428a7.88 7.88 0 0 0 2.296-5.548c.196-6.848 2.854-14.67 4.823-21.638 2.39.186 3.316-.26 5.526-1.344l-.095-.126.382-.16zm-36.232 10.254l-1.206-.406c.408-.545.76-1.13 1.05-1.746l.156 2.152zm-6.802 2.88l7.324 4.39.066.893a6.39 6.39 0 0 0 .06 2.042c-3.225-2.864-7.003-6.34-7.445-7.324h-.005zm-3-6.392c-.798-.33-1.462-.627-1.914-.873l1.698.106a3.72 3.72 0 0 1 .221.767h-.005zm-19.593 7.15s1.266-2.82 4.1 1.88c.442.733 1.256 1.892 2.33 3.337l-8.27-1.11c.86-1.244 1.476-2.637 1.818-4.11h.01z" fill="url(#D)"/><use xlink:href="#Y" class="M"/><use xlink:href="#Y" class="D J"/><use xlink:href="#Z" class="K"/><use xlink:href="#Z" class="C D"/><g class="M"><path d="M244.6 297.214s6.406 7.3 6.712 13.4 7.32-6.396 7.933-6.702-6.104-10.656-6.717-14.002-7.928 7.304-7.928 7.304z"/><path d="M249.03 300.34l-4.04 3.652 1.904 7.7 5.185-4.87-.608-4.872-2.442-1.6zm-84.334 54.14h-7.013l2.743 6.697 6.712-1.826-2.442-4.87z"/></g><path d="M159.3 353.513s-7.255 5.052-13.47 3.477-7.893-1.004-8.616 1.048c-.668 1.866 17.337 11.744 20.206 13.304.045.03.097.05.15.054s.11-.004.158-.026a.32.32 0 0 0 .128-.097c.033-.043.056-.093.065-.146.196-.828.668-2.604 1.17-2.74.658-.176 3.667-5.78 3.516-7.992s-3.3-6.883-3.3-6.883z" class="C D"/><path d="M159 353.513s-7.255 5.052-13.47 3.477-7.892-1.004-8.616 1.048c-.668 1.866 17.337 11.744 20.206 13.304.045.03.097.05.15.054s.11-.004.16-.026.093-.054.127-.097a.32.32 0 0 0 .065-.146c.196-.828.67-2.604 1.17-2.74.658-.176 3.667-5.78 3.517-7.992s-3.31-6.883-3.31-6.883z" class="Q"/><use xlink:href="#a" class="K"/><use xlink:href="#a" class="C D"/><path d="M182.69 350.824l-3.356 4.264 3.356 1.826 4.884-3.652-4.884-2.438z" class="M"/><path d="M240.948 345.948s-10.972-9.382-11.74-11.088-18.76-13.274-19.98-13.58-5.185-2.438-9.15 4.87-18.588 24.974-18.588 24.974 4.577 6.396 6.1 6.1 18.588-14.62 19.824-21.627c0 0 1.22-2.74 3.964 1.826s20.437 26.5 23.793 26.193c0 0 13.117 2.132 15.86-3.046s-10.083-14.613-10.083-14.613z" class="K"/><path d="M237.868 296.773h-45.67v34.37h45.67v-34.37z" fill="url(#E)"/><path d="M236 298.173h-41.94v31.565H236v-31.565z" class="E"/><path d="M212.146 300.907h-13.98v7.89h13.98v-7.89z" class="B F"/><g class="G"><path d="M231.9 300.907h-16.413v1.82H231.9v-1.82zm-4.863 3.035h-11.55v1.82h11.55v-1.82zm4.863 3.035h-16.413v1.82H231.9v-1.82zm0 3.035h-33.735v1.82H231.9v-1.82zm0 3.035h-33.735v1.822H231.9v-1.822zm0 3.036h-33.735v1.82H231.9v-1.82zm-2.733 3.035h-31.002v1.82h31.002v-1.82zm2.733 3.035h-33.735v1.82H231.9v-1.82zm0 3.035h-33.735v1.82H231.9v-1.82z"/></g><path d="M247.203 301.328s-3.813 1.676-4.12 8.68-7.033 18.883-7.033 18.883l.608 14.012s7.32 7.3 7.932 11.88 5.803 7.616 5.803 7.616 6.1-3.046 7.033-7.024 1.507-13.706 3.05-17.363.608-26.5.608-26.5l-4.577-7.92-2.442-2.74-6.405 7.31s-3.507-4.706-.457-6.833z" class="Q"/><path d="M238.205 338.332s-.914-10.967 1.83-13.4l5.49-15.552s1.984-7.46 1.678-8.072-7.17 5.94-7.17 5.94l-4.577 16.144 1.22 17.057 1.527-2.117z" class="C D"/><path d="M237.898 338.332s-.914-10.967 1.83-13.4l5.49-15.552s2.135-7.615 1.83-8.222-7.32 6.1-7.32 6.1l-4.577 16.144 1.22 17.057 1.527-2.117z" class="K"/><path d="M240.034 333.46s-15.263-4.872-16.167-6.09-10.676-9.135-14.032-3.657 12.505 7.024 12.505 7.024l16.166 9.747 1.528-7.023z" class="M"/><path d="M183.35 355.058l-4.522-.813s-7.395 9.457-11.243 8.5-7.395 3.18-3.326 4.515c3.678 1.2 19.548 2.88 22.582 3.19.062.008.126.003.186-.014a.45.45 0 0 0 .163-.089.44.44 0 0 0 .112-.148c.027-.057.04-.118.042-.18a9.67 9.67 0 0 1 .673-3.431c.814-2.007 0-6.28-.226-7.907-.126-.958-.427-1.885-.89-2.734l-3.552-.888z" class="C D"/><path d="M183.28 355.354l-4.522-.813s-7.385 9.462-11.258 8.5-7.395 3.18-3.326 4.515c3.677 1.2 19.548 2.88 22.582 3.19a.46.46 0 0 0 .185-.014c.06-.018.116-.048.164-.09s.085-.09.112-.148.04-.118.04-.18a9.69 9.69 0 0 1 .674-3.431c.814-2.007 0-6.28-.226-7.907-.126-.958-.428-1.885-.9-2.734l-3.536-.888z" class="Q"/><use xlink:href="#b" class="C D"/><path d="M245.982 300.72c5.39 0 9.76-4.364 9.76-9.747s-4.37-9.748-9.76-9.748-9.76 4.364-9.76 9.748 4.37 9.747 9.76 9.747z" class="M"/><path d="M255.587 300.566s11.6 3.958 11.6 12.185-6.405 21.322-6.71 31.982-17.082 9.136-17.082 9.136-2.44-35.94 0-38.684 13.424-13.4 12.203-14.62z" class="K"/><path d="M253.452 317.623s-4.27 18.883-14.338 15.552c0 0-5.184 7.615-1.507 10.966 0 0 8.847 2.133 14.64-3.657s10.052-7.93 10.967-14.955 1.507-16.75-1.507-15.838-8.255 7.932-8.255 7.932z" class="C D"/><path d="M253.76 317.317s-4.27 18.883-14.34 15.552c0 0-5.184 7.615-1.507 10.967 0 0 8.847 2.132 14.64-3.658s10.047-7.92 10.982-14.925 1.507-16.75-1.507-15.838-8.27 7.902-8.27 7.902z" class="K"/><g fill="#dddbe2"><path d="M188.193 365.904c0 .03 0 .06-.03.086a8.89 8.89 0 0 0-.503 1.61c.07-.24.156-.502.256-.727.13-.312.222-.636.277-.97zm-23.773.763c-1.256-.4-1.784-1.1-1.804-1.8-.502 1.003-.2 2.107 1.583 2.7 3.677 1.2 19.553 2.88 22.582 3.2a.45.45 0 0 0 .186-.015.35.35 0 0 0 .164-.1.43.43 0 0 0 .152-.332.44.44 0 0 0-.397-.451c-3.34-.362-18.84-2.012-22.466-3.2zm-27.1-9.167a3.78 3.78 0 0 1 .297-.647 2.97 2.97 0 0 0-.719 1.184c-.668 1.866 17.337 11.74 20.206 13.304a.34.34 0 0 0 .151.051c.054.004.108-.005.157-.026s.093-.054.127-.096a.32.32 0 0 0 .067-.144.33.33 0 0 0-.16-.366c-3.185-1.736-20.8-11.414-20.126-13.26zm21.87 10.35c-.16.045-.32.256-.467.557h.05c.13-.035.362-.296.643-.703-.063.066-.14.115-.226.146z"/></g><path d="M244.625 299.552c-.86 1.892-1.04 4.014-1.673 6.02-.616 1.943-1.674 3.717-3.1 5.184s-3.152 2.588-5.073 3.275c3.17 1.264 6.907-.28 9.36-2.84s3.883-5.965 5.26-9.276c3.557 2.388 3.125 7.877 4.315 12.15.514 1.86 1.42 3.587 2.66 5.066s2.782 2.675 4.524 3.508c1.736.778 3.624 1.162 5.526 1.124s3.773-.498 5.477-1.345c-3.26-3.973-7.903-9.422-7.35-14.71.447-4.285-2.633-7.556-2.417-11.85.302-6.1-2.01-9.186-6.405-13.1-2.557-2.288 1.467-5.518-1.83-4.57-1.296.37-2.662-1.004-3.933-.557-2.512.903-5.27.562-7.863 1.17-13.48 3.15 3.758 17.985 2.512 20.75z" class="C D"/><path d="M244.932 299.246c-.86 1.892-1.04 4.014-1.673 6.02a13.23 13.23 0 0 1-3.09 5.184c-1.416 1.467-3.153 2.588-5.074 3.275 3.17 1.264 6.908-.28 9.36-2.84s3.883-5.965 5.26-9.276c3.556 2.388 3.124 7.877 4.315 12.15a13.46 13.46 0 0 0 2.66 5.066c1.24 1.48 2.782 2.675 4.524 3.508 1.736.778 3.623 1.162 5.526 1.124a12.89 12.89 0 0 0 5.476-1.345c-3.26-3.973-7.596-8.53-7.033-13.796.447-4.285-.22-8.684 0-12.98.3-6.1-2.688-11.975-7.064-15.888-2.557-2.288-6.53-2.58-7.822-2.122-2.512.903-5.27.562-7.862 1.17-13.494 3.155 3.753 17.985 2.497 20.75z" fill="#b96b6b"/><path d="M82.306 391.997c17.583-5.403 27.962-4.957 27.962-4.957l-1.44-8.162a6.19 6.19 0 0 0 1.215-1.069s-1.803-9.908 0-12.386 6.767-24.994 6.767-24.994v-7.66c9.043-3.15 19.618-21.39 19.618-21.39l13.31 34.22s13.303 26.35 15.106 27.247c1.442.717 2.16 6.612 2.397 8.954l-.11.036.08.918.106-.07v.07a5.15 5.15 0 0 1 .703-.412c-2.597 2.98-6.485 7.265-9.72 10.094-1.783 1.56 1.417 2.764 2.914 2.74.852-.027 1.702.093 2.512.356 7.58 2.614 20.045-6.928 20.045-6.928l-3.12-8.69 1.316-.095s-10.148-35.58-14.885-38.96c-1.498-1.1-2.848-2.368-4.02-3.802-2.253-2.735-3.39-6.218-3.18-9.753l1.663-29.193c2.672-.39 4.395-.717 4.395-.717s.623-7.977.603-14.097c0-3.186-.13-5.98-.603-7.074-.557-1.294-.733-3.883-.743-6.48 0-3.512.29-6.803.29-6.803s3.607-4.73 8.57-15.552c2.185-4.76 2.753-8.53 2.703-11.228.034-1.257-.088-2.514-.362-3.742-.14-.608-.4-1.18-.766-1.686a4.69 4.69 0 0 0-1.359-1.259c-2.854-1.746-9.35-6.055-11.263-10.23-2.432-5.298-5.944-6.05-6.084-6.08l-.216-.933c1.346-1.112 2.33-2.6 2.823-4.274.734-2.258.884-4.666 1.507-6.958.302-1.104.72-2.173 1.005-3.276.286-1.11.423-2.255.407-3.402.054-1.67-.3-3.33-1.005-4.84-1.165-2.393-3.486-4.274-6.13-4.585-1.457-.17-3.07.08-4.265-.768-.824-.587-1.256-1.585-2-2.283-1.43-1.354-3.722-1.284-5.586-.652-2.5.86-4.66 2.532-6.11 4.75-.87 1.335-1.477 2.865-2.592 4.014-.94.958-2.17 1.57-3.206 2.423-.766.597-1.39 1.357-1.823 2.225a6.51 6.51 0 0 0-.689 2.791v.452c.05 1.936 1.402 3.863 3.3 4.254.497.092 1.006.105 1.507.04-.428 1.58-.532 3.23-.306 4.852s.777 3.18 1.62 4.585a12.17 12.17 0 0 0 3.29 3.583c1.327.962 2.835 1.645 4.433 2.01l-.1.5h.105a17.19 17.19 0 0 1-.814 2.288h-.145l.366-.652-5.174-.356c-1.507-.114-3.017.168-4.38.817-1.784.863-3.733 2.51-3.974 5.62-.452 5.83-11.504 14.61-11.504 14.61-3.834 6.08-28.867 7.204-28.867 7.204s.11.14.16.216l-.502-.096-1.894-.346s-5.863-17.338-11.5-14.187 9.696 20.268 9.696 20.268l4.878.326a27.01 27.01 0 0 1-.698 3.326c-.06.22-.106.36-.116.396 0 0 11.655-1.344 21.557-1.13h.894l.633-.03c.503 5.434 8.26 16.475 8.26 16.475l5.15 1.08a39.99 39.99 0 0 1-5.828 8.825l-1.577 8.784.125-.03-.125.707a1.69 1.69 0 0 0 .728-.381c-3.09 8.187-8.214 20.93-11.776 25.375-5.4 6.758-4.737 17.56-4.737 17.56s-5.41 28.375-5.185 33.552c.026 2.5-.65 4.955-1.954 7.09-1.06 1.217-1.994 2.54-2.783 3.948-4.06 6.983-10.6 6.522-10.6 6.522-5.637 3.622 1.105 6.552 1.105 6.552zm34.83-137.355l.583-.23.135-.055.558-.24.095-.045.503-.23.1-.05.533-.266.125-.065.503-.266h.04l1.125-.652.08-.05.437-.266.1-.06.468-.296.105-.07.432-.286.04-.026.543-.376.422-.3.065-.045.372-.27.08-.06.387-.296.08-.06.35-.276h.03l.432-.346.337-.276.03-.025.302-.256.05-.045.296-.256.045-.04.533-.482.537-.537.734-.06c.623.808.87 2.238.894 3.878-.07 4.21-1.346 9.407-1.346 9.407-.11 2.58-.558 5.133-1.337 7.595a4.49 4.49 0 0 1-1.592-.386l-.075.43-.432-.1-2.196-.547s-1.824-9.27-5.516-13.104z" fill="url(#F)"/><g fill="#4f4d59"><path d="M178.3 374.588l4.185 11.644s-11.46 8.78-18.905 6.964a20.68 20.68 0 0 0-3.416-.552c-1.543-.116-4.195-1.234-2.557-2.664 5.285-4.616 12.328-13.2 12.328-13.2l8.365-2.203zm-69.57-1.088l1.98 11.212s-10.128-.44-27.3 4.836c0 0-6.606-2.86-1.1-6.376 0 0 6.385.44 10.35-6.376s6.385-5.935 6.385-5.935l9.686 2.64z"/></g><path d="M161.12 292.143l-1.94 34.114a14.1 14.1 0 0 0 3.371 9.978c1.072 1.27 2.293 2.408 3.638 3.386 4.622 3.296 14.53 38.033 14.53 38.033s-11.23.657-14.308 2.86c0 0-.658-8.794-2.422-9.672s-14.75-26.59-14.75-26.59l-12.996-33.422s-10.35 17.8-19.156 20.885v7.475s-4.843 21.983-6.607 24.402 0 12.1 0 12.1-5.064 6.376-16.73-.44c0 0 3.743-4.18 3.517-9.236s5.074-32.75 5.074-32.75-.658-10.535 4.622-17.147 14.066-31.877 14.066-31.877l6.06-13.02 34.032 20.93z" fill="#787c9c"/><g class="C D"><path d="M178.623 377.664s-9.907-34.737-14.53-38.033a20.95 20.95 0 0 1-3.824-3.607 13.94 13.94 0 0 1-3.18-9.752l1.94-34.114-32.47-19.987.442-.948 34.006 20.93-1.94 34.114a13.93 13.93 0 0 0 3.18 9.752c1.118 1.358 2.402 2.57 3.823 3.607 4.622 3.296 14.53 38.033 14.53 38.033s-11.228.657-14.308 2.86c0 0-.025-.34-.08-.898 4.33-1.48 12.4-1.956 12.4-1.956zm-70.23-1.967s-1.763-9.672 0-12.1S115 339.205 115 339.205v-7.475c8.807-3.08 19.156-20.885 19.156-20.885l.77 1.982c-2.984 4.726-10.947 16.46-17.94 18.903v7.475s-4.843 21.983-6.607 24.402 0 12.1 0 12.1-2.456 3.085-7.882 2.67c4.044-.346 5.898-2.67 5.898-2.67z" class="C"/></g><g class="R"><path d="M85.385 253.9l6.606.436v-5.518l-3.014-.542-1.854-.336s-5.722-16.927-11.228-13.852 9.5 19.812 9.5 19.812zm69.35-45.297s2.863 10.992 3.742 17.8-20.472 1.32-20.472 1.32 8.144-9.893 3.517-15.17l13.213-3.958z"/></g><path d="M131.62 254.33l-.442 4.18 6.823-.44 6.822-5.935 6.822-19.13 4.41-6.808 3.3-4.18-1.32-5.057-1.623 1.304c-3.35 2.564-11.218 7.887-16.965 6.417-.266-.066-.528-.15-.784-.246l-8.586 14.73 1.542 15.166z" fill="#e6e6f0"/><g class="D"><path d="M156.276 215.662s3.517.657 5.943 5.934c1.864 4.06 8.15 8.243 10.957 9.964.536.327 1 .758 1.366 1.267s.626 1.086.764 1.698c.568 2.508.784 7.174-2.3 13.896-4.843 10.535-8.364 15.17-8.364 15.17s-.88 10.535.442 13.63 0 20.006 0 20.006-23.1 4.395-30.82 0-6.607-21.366-6.607-21.366-7.264 15.402-9.892 15.843l1.508-8.574s8.585-9.236 9.042-21.105c0 0 2.643-10.77.443-13.63 0 0-37.207 3.08-39.407.442 0 0 24.436-1.1 28.178-7.024 0 0 10.786-8.574 11.23-14.288a6.31 6.31 0 0 1 .978-3.015 6.33 6.33 0 0 1 2.322-2.162c1.498-.85 3.216-1.233 4.934-1.1l4.973.34s-8.58 15.14-8.123 17.148-.442 18.025-.442 18.025 9.907-21.326 14.307-23.744 9.45-12.342 9.45-12.342l-.88-5.016z" class="C"/><path d="M131.62 254.33l-.442 4.18 6.823-.44 6.822-5.935 6.822-19.13 4.4-6.808 3.3-4.18-1.32-5.057-1.623 1.304.302 1.736s-5.065 9.928-9.465 12.346-14.308 23.745-14.308 23.745.88-16.054.442-18.025c-.302-1.345 3.557-8.755 6.064-13.385-.266-.066-.528-.15-.784-.246l-8.586 14.73 1.542 15.166zm-41.9-.15l2.28.15v-5.518l-3.014-.542c1.06 1.404 1.025 3.843.733 5.9z" class="C"/></g><path d="M156.276 214.98s3.517.658 5.943 5.935c1.864 4.06 8.15 8.243 10.957 9.964a4.68 4.68 0 0 1 1.366 1.267 4.67 4.67 0 0 1 .764 1.697c.568 2.51.784 7.174-2.3 13.897-4.843 10.535-8.364 15.17-8.364 15.17s-.88 10.535.442 13.63 0 20.007 0 20.007-23.1 4.395-30.82 0-6.607-21.326-6.607-21.326-7.264 15.386-9.892 15.823l1.508-8.574s8.585-9.236 9.042-21.105c0 0 2.643-10.772.443-13.63 0 0-8.586 9.236-18.272 9.03s-21.135 1.1-21.135 1.1 2.2-7.024 0-9.673c0 0 24.436-1.098 28.178-7.023 0 0 10.786-8.574 11.23-14.288.06-1.076.397-2.118.976-3.028s1.38-1.656 2.33-2.17c1.498-.85 3.216-1.233 4.934-1.1l4.973.34s-8.585 15.16-8.128 17.138-.442 18.025-.442 18.025 9.907-21.326 14.307-23.745 9.465-12.346 9.465-12.346l-.88-5.017" fill="#67647e"/><path d="M161.12 238.062s-5.285 17.81-8.365 20.006-21.793 13.4-27.3 10.772c0 0-1.32 6.597.658 8.132l20.693-.878s13.43-1.76 15.63-8.353 4.843-17.8 4.843-17.8l-6.16-11.87z" class="C D"/><g fill="#ba7855"><path d="M132.94 258.18c.424 0 .768-.492.768-1.1s-.344-1.098-.768-1.098-.77.5-.77 1.098.344 1.1.77 1.1zm-2.2 7.695c.425 0 .77-.492.77-1.1s-.344-1.1-.77-1.1-.768.492-.768 1.1.344 1.1.768 1.1z"/></g><g class="C D"><path d="M163.54 296.32s1.32-16.926 0-20.006-.442-13.63-.442-13.63 3.516-4.616 8.364-15.17c3.085-6.722 2.864-11.388 2.3-13.896a4.63 4.63 0 0 0-.767-1.7 4.82 4.82 0 0 0-1.368-1.266c-2.808-1.72-9.093-5.905-10.952-9.964-1.366-2.975-3.08-4.485-4.32-5.232l-.086-.502s3.517.657 5.943 5.935c1.864 4.06 8.15 8.243 10.952 9.963a4.72 4.72 0 0 1 1.37 1.267 4.66 4.66 0 0 1 .766 1.698c.568 2.5.784 7.174-2.3 13.897-4.843 10.535-8.365 15.17-8.365 15.17s-.88 10.535.442 13.63 0 20.007 0 20.007-16.513 3.14-26.28 1.46c9.867 1.17 24.743-1.66 24.743-1.66zm-29.7-58.258c.3 1.354 0 9.32-.246 14.197l-1.734 3.607s.88-16.054.442-18.025c-.417-1.88 7.315-15.678 8.084-17.057l1.602.1s-8.605 15.2-8.148 17.168zm-24.898 18.466c9.686.22 18.27-9.03 18.27-9.03a3.51 3.51 0 0 1 .558 1.194c-2.512 2.363-9.545 8.218-17.287 8.027-9.686-.22-21.135 1.1-21.135 1.1l.116-.397a175.71 175.71 0 0 1 19.478-.893zm17.17 18.467s-.1 1.375-.04 3.437c-2.3 4.515-6.46 12.3-8.324 12.612l.326-1.806c3.205-4.02 8.038-14.243 8.038-14.243z" class="C"/></g><path d="M128.66 219.514H76.036v39.603h52.624v-39.603z" fill="url(#G)"/><path d="M127.3 220.533H77.392v37.56H127.3v-37.56z" class="E"/><path d="M98.91 223.784H82.275v9.39H98.91v-9.39z" class="B F"/><g class="G"><path d="M122.416 223.784h-19.528v2.167h19.528v-2.167zm-5.783 3.612h-13.745v2.167h13.745v-2.167zm5.783 3.612h-19.528v2.167h19.528v-2.167zm.004 3.612H82.275v2.167h40.146v-2.167zm0 3.612H82.275v2.167h40.146v-2.167zm0 3.608H82.275v2.167h40.146v-2.167zm-3.255 3.6h-36.9v2.168h36.9v-2.168zm3.255 3.613H82.275v2.168h40.146v-2.168zm0 3.612H82.275v2.168h40.146v-2.168z"/></g><path d="M119.95 272.798l4.677 1.003 3.687.758-1.98-5.52-1.376-.346-2.146-.532s-3.08-15.376-9.243-14.272 6.38 18.908 6.38 18.908z" class="R"/><path d="M124.626 273.78l3.688.778-1.98-5.52-1.376-.346c-.308 1.677-.42 3.384-.332 5.087z" class="C D"/><path d="M161.12 237.625s-5.285 17.8-8.365 20.007-21.793 13.4-27.3 10.77c0 0-1.32 6.597.658 8.132l20.693-.878s13.43-1.76 15.63-8.353 4.843-17.81 4.843-17.81l-6.16-11.87z" fill="#67647e"/><path d="M154.513 209.044l1.045 4.225a11.87 11.87 0 0 1-5.54 5.229 11.9 11.9 0 0 1-7.582.791c.527-2.258.412-4.515-1.136-6.306l13.213-3.94z" class="C D"/><path d="M145.27 219.158c6.565 0 11.887-5.314 11.887-11.87s-5.322-11.87-11.887-11.87a11.88 11.88 0 0 0-11.886 11.87 11.88 11.88 0 0 0 11.886 11.869z" class="R"/><path d="M134.945 204.018c-.863.24-1.767.294-2.652.16-1.854-.38-3.176-2.262-3.22-4.154a6.37 6.37 0 0 1 .673-2.727 6.38 6.38 0 0 1 1.779-2.174c1.005-.838 2.2-1.435 3.13-2.368 1.1-1.11 1.683-2.604 2.512-3.908a11.62 11.62 0 0 1 5.968-4.636c1.824-.617 4.054-.687 5.456.637.718.678 1.14 1.656 1.944 2.228 1.166.828 2.743.582 4.165.747 1.288.198 2.508.7 3.552 1.49s1.88 1.805 2.43 2.984c1.08 2.39 1.286 5.08.583 7.606l-.975 3.2c-.618 2.237-.763 4.585-1.477 6.792s-2.185 4.365-4.41 5.017c.176-2.475-.313-4.95-1.416-7.174-.183-.484-.542-.882-1.005-1.114a2.46 2.46 0 0 0-1.211 0 12.07 12.07 0 0 1-8.038-1.625c-.844-.502-2.16-2.263-3.064-2.438-1.14-.206-3.517 1.184-4.723 1.455z" class="C D"/><path d="M134.945 203.576c-.863.24-1.767.294-2.652.16-1.854-.382-3.176-2.263-3.22-4.154a6.37 6.37 0 0 1 .673-2.727c.424-.848 1.03-1.59 1.78-2.175 1.005-.837 2.2-1.434 3.13-2.368 1.1-1.108 1.683-2.603 2.512-3.908 1.416-2.166 3.517-3.798 5.968-4.635 1.824-.617 4.054-.687 5.456.637.718.677 1.14 1.656 1.944 2.227 1.166.828 2.743.582 4.165.748 1.288.198 2.508.7 3.552 1.5s1.88 1.806 2.43 2.985a11.18 11.18 0 0 1 .583 7.605l-.975 3.2c-.618 2.238-.763 4.585-1.477 6.793s-2.185 4.364-4.41 5.017c.176-2.475-.313-4.952-1.416-7.174a2.06 2.06 0 0 0-1.005-1.114c-.397-.102-.814-.102-1.21 0-2.787.413-5.63-.162-8.038-1.626-.844-.5-2.16-2.262-3.064-2.438-1.14-.205-3.517 1.19-4.723 1.455z" fill="#503f43"/><g class="B"><path d="M43.3 381.42c.92-.75 1.592-1.76 1.924-2.9.25-1.154-.24-2.534-1.346-2.955-1.236-.472-2.557.38-3.557 1.25s-2.15 1.85-3.462 1.665a5.26 5.26 0 0 0 1.463-2.246 5.25 5.25 0 0 0 .164-2.675c-.057-.37-.213-.716-.452-1.003-.688-.733-1.93-.417-2.753.16-2.612 1.836-3.34 5.378-3.356 8.57-.26-1.15-.04-2.348-.05-3.512s-.332-2.508-1.326-3.12a4.02 4.02 0 0 0-2.009-.477c-1.176-.045-2.482.075-3.286.933-1.005 1.064-.74 2.855.13 4.014s2.185 1.906 3.4 2.72a7.53 7.53 0 0 1 2.432 2.312 2.29 2.29 0 0 1 .181.412h7.35a20.54 20.54 0 0 0 4.552-3.146zm436.56-69.732a5.85 5.85 0 0 0 1.924-2.9c.252-1.154-.24-2.533-1.346-2.955-1.236-.47-2.557.382-3.557 1.25s-2.15 1.852-3.46 1.666c.674-.6 1.178-1.384 1.463-2.246a5.25 5.25 0 0 0 .164-2.675 2.05 2.05 0 0 0-.452-1.004c-.688-.732-1.93-.416-2.753.16-2.612 1.836-3.34 5.378-3.356 8.568-.26-1.148-.04-2.347-.05-3.5s-.332-2.5-1.326-3.12a4.02 4.02 0 0 0-2.01-.476c-1.175-.046-2.482.075-3.285.933-1.005 1.063-.74 2.854.13 4.013s2.186 1.907 3.4 2.72a7.53 7.53 0 0 1 2.432 2.313 2.31 2.31 0 0 1 .181.411h7.36a20.52 20.52 0 0 0 4.541-3.145z"/></g><path d="M545.16 160.883c-1.04-3.04-2.542-6.893-3.728-7.8-.072-.058-.15-.107-.236-.145h-.145v-3.758l-2.804.447c-.445-1.358-.78-2.748-1.005-4.16.27.27.614.454.99.53s.763.037 1.116-.108a3.29 3.29 0 0 1-.125-.236l.125-.055a5.2 5.2 0 0 1-.678-2.548 9.31 9.31 0 0 1 .387-2.408c.502-1.73 1.35-3.347 1.824-5.087a12.38 12.38 0 0 0 .422-3.437c.015-1.966-.432-3.908-1.307-5.67-.22-.51-.566-.954-1.004-1.294-.395-.22-.8-.416-1.216-.592a6.57 6.57 0 0 1-1.768-1.761 15.86 15.86 0 0 0-7.662-5.107 4.49 4.49 0 0 0-2.451-.196c-1.884.502-2.568 2.835-4.095 4.06-1.346 1.078-3.195 1.19-4.888 1.55s-3.396 1.08-4.552 2.383c-.796.91-1.23 2.078-1.22 3.286a3.3 3.3 0 0 0 .288 1.645 3.31 3.31 0 0 0 1.058 1.295c.522.34 1.112.563 1.73.65s1.246.036 1.842-.15c-.466 1.606-.594 3.29-.377 4.948s.776 3.253 1.64 4.685a12.14 12.14 0 0 0 3.381 3.637 12.13 12.13 0 0 0 4.556 1.981l.326.587a25.1 25.1 0 0 1 2.281 5.945c-2.582 1.46-5.4 2.83-7.104 2.96-.068.665-.193 1.323-.37 1.967a10.85 10.85 0 0 1-2.236 4.389c-2.316 2.6-12.73 22.245-12.73 22.245l-.865 2.117c-6.465.793-17.02 1.936-19.964 1.35L473.04 178.05s-3.738 2.85-3.41 6.31l-2.085-1.977s-10.992 8.378 6.365 13.867l26.4 3.06c-2.512 7.58-4.863 16.405-4.134 21.206h.216c.504-.001 1.008-.04 1.507-.116l-.045.853-2.542 45.482s-.578 8.378 7.234 12.13c0 0 9.545 28.02 5.787 31.2 0 0 .447.236 1.2.562l-7.852 6.95s-5.788 1.444-8.968 1.153a2.3 2.3 0 0 0-1.594.37c-.468.315-.804.8-.943 1.336 0 .06 0 .12-.03.18v.557c0 .02 0 .125.035.185v.07a1.57 1.57 0 0 0 .066.201l.025.06c.025.066.055.13.1.196v.045c.035.065.075.126.116.19l.035.055a2.73 2.73 0 0 0 .156.201l.045.05c.06.07.125.135.19.2l.03.026.216.185.045.035c.08.066.17.126.26.186l.06.04a4.5 4.5 0 0 0 .301.176h.045l.327.16h.045l.382.15.08.03.417.135h.07l.457.12h.035l.502.1h.1l.542.08h.106l.613.06c1.2.09 2.793.126 4.647.116v.296a.35.35 0 0 0 .035.185v.07a1.55 1.55 0 0 0 .065.2l.025.06c.025.065.056.13.09.195v.045c.035.066.075.126.115.19l.035.055a2.73 2.73 0 0 0 .156.201l.045.05c.06.07.126.135.19.2l.03.025.216.185.046.036a3.27 3.27 0 0 0 .261.185l.065.04c.096.06.196.12.302.176h.045l.326.16h.046l.38.15.08.03.417.135h.07l.457.12h.036l.502.1h.1l.543.08h.105l.613.06c7.536.577 31.53-1.154 31.53-1.154v-.15c.236-1.118 1.39-7.62-2.708-12.426a5.47 5.47 0 0 0 .352-.402s-3.18-5.488-1.447-7.224-8.676-31.776-8.676-31.776-5.496-8.664-2.316-18.487-.292-20.51-.292-20.51 7.586-2.252 7.742-11.578v-.868a3.01 3.01 0 0 0 .502.03c.107.008.215.008.322 0 0 0-1.447-5.198.29-8.955s5.496-.29 8.968-15.597c2.512-11.077 4.722-23.82 5.752-30.02.448-2.49.29-5.05-.457-7.465zm-66.018 32.494l-2.638-2.508c.874.36 1.844.717 2.93 1.058l9.947 1.154c-4.44.41-8.565.632-10.238.3v-.005z" fill="url(#H)"/><use xlink:href="#c" class="O"/><use xlink:href="#c" class="D J"/><use xlink:href="#d" fill="#47465a"/><use xlink:href="#d" class="D J"/><path opacity=".3" d="M527.13 317.392c-.016 1.034-.136 2.064-.356 3.075 0 0-23.612 1.7-30.977 1.134-3.552-.27-5.064-1.595-5.336-2.865-.32 1.455.965 3.382 5.336 3.718 7.4.567 30.977-1.134 30.977-1.134a16.4 16.4 0 0 0 .356-3.928z" class="E"/><path d="M523.363 146.214s6.254 8.8 3.98 14.76 11.92-6.246 11.92-6.246-4.546-7.947-2.276-16.46l-13.624 7.946z" class="O"/><path d="M521.68 310.534l-9.948 8.8s-5.682 1.42-8.81 1.133-4.547 4.826 2.843 5.393 30.977-1.133 30.977-1.133 2.276-9.08-4.547-14.193H521.68z" fill="#47465a"/><use xlink:href="#e" fill="#565171"/><use xlink:href="#e" class="D J"/><path d="M534.45 311.954c-4.833 5.96-16.197 0-16.197 0 .232-.2.405-.476.503-.773 2.085-5.66-7.034-32.714-7.034-32.714-7.67-3.688-8.54-12.487-8.54-12.487l-2.27-51.367 15.63-5.96 12.223 9.366a22.12 22.12 0 0 1 .784 5.935c-.156 9.166-7.606 11.378-7.606 11.378s3.41 10.5.286 20.148 2.276 18.16 2.276 18.16 10.234 29.513 8.54 31.22 1.406 7.094 1.406 7.094z" fill="#565171"/><path d="M529.547 223.95c-2.457-.35-7.43-3.306-9.987-4.91l-1.598-1.003s-2.557-7.094-9.38-1.7a25.56 25.56 0 0 1-7.411 4.184 17.31 17.31 0 0 1-3.165.792l.628-11.222 7.958-4.826 6.275 4.806 3.672-1.4 12.223 9.367c.528 1.927.79 3.916.784 5.914z" class="C D"/><path d="M544.93 169.507c-1.005 6.09-3.185 18.607-5.652 29.494-3.41 15.05-7.104 11.634-8.812 15.326s-.286 8.8-.286 8.8c-2.844.286-12.223-5.96-12.223-5.96s-2.557-7.094-9.38-1.7-12.223 5.107-12.223 5.107c-1.42-9.366 9.093-34.34 9.093-34.34s10.234-19.3 12.505-21.853a10.66 10.66 0 0 0 2.195-4.314 11.64 11.64 0 0 0 .362-1.932c3.693-.286 12.79-6.522 12.79-6.522l7.103-1.133v3.687a1.06 1.06 0 0 1 .231.14c1.17.893 2.643 4.68 3.663 7.666a15.54 15.54 0 0 1 .633 7.535z" fill="#f68080"/><g class="D"><path d="M539.263 157.853s-7.4-5.96-18.472 13.34-13.64 16.174-13.64 16.174 2.276 8.528 1.135 10.22c0 0 7.672-.567 10.515 0s20.462-21.557 20.462-21.557 9.113-12.502 0-18.176z" class="C"/><path d="M538.997 156.714s-7.4-5.96-18.473 13.34-13.64 16.174-13.64 16.174 8.812 9.647 11.65 10.22 20.462-21.572 20.462-21.572 9.093-12.482 0-18.16z" class="C"/><path d="M508.04 195.74c.115-2.102-.68-5.8-1.136-7.716l2.82-.376 2 8.528-3.692-.436zm29.25-56.9l-13.64 7.946a29.09 29.09 0 0 1 1.587 2.599 12.01 12.01 0 0 0 2.392.241c3.642 0 5.34-3.818 7.536-6.387-.156-2.062 1.517-2.117 2.125-4.4z" class="C"/></g><path d="M527.347 149.054c6.592 0 11.936-5.337 11.936-11.92s-5.344-11.92-11.936-11.92-11.937 5.337-11.937 11.92 5.344 11.92 11.937 11.92z" class="O"/><path d="M508.9 150.72h-96.13v72.342h96.13V150.72z" fill="url(#I)"/><path d="M506.744 152.34h-91.82v69.1h91.82v-69.1z" class="E"/><path d="M454.51 158.32h-30.605v17.273h30.605V158.32z" class="B F"/><g class="G"><path d="M497.76 158.32h-35.93v3.988h35.93v-3.988zm-10.645 6.647H461.83v3.988h25.284v-3.988zm10.645 6.643h-35.93v4h35.93v-4zm0 6.64h-73.855v4h73.855v-4zm0 6.65h-73.855v3.988h73.855V184.9zm0 6.64h-73.855v3.988h73.855v-3.988zm-5.987 6.648h-67.867v3.988h67.867v-3.988zm5.987 6.642h-73.855v4h73.855v-4zm0 6.643h-73.855v3.988h73.855v-3.988z"/></g><path d="M512.245 127.492a8.16 8.16 0 0 1 4.471-2.343c1.658-.356 3.477-.467 4.803-1.505 1.507-1.2 2.17-3.477 4.02-3.984a4.42 4.42 0 0 1 2.407.191 15.57 15.57 0 0 1 7.535 5.017c.462.682 1.05 1.27 1.734 1.73a12.43 12.43 0 0 1 1.195.582 3.24 3.24 0 0 1 .975 1.269 12.32 12.32 0 0 1 .864 8.664c-.462 1.7-1.296 3.296-1.79 5.017s-.618 3.632.287 5.152c-.874.446-1.98-.116-2.512-.928s-.714-1.816-1.005-2.755c-.568-1.845-1.634-3.5-3.08-4.78-.894-.792-2.51-1.324-3.12-.3-.24.397-.226.898-.432 1.3-.407.803-1.583.963-2.362.502a3.62 3.62 0 0 1-1.477-2.188c-1.17-3.953-3.165-6.44-7.4-4.75-1.577.632-3.436 1.06-4.953-.025-1.98-1.43-1.593-4.26-.16-5.874z" class="C D"/><path d="M512.245 127.206a8.16 8.16 0 0 1 4.471-2.343c1.658-.356 3.477-.467 4.803-1.505 1.507-1.2 2.17-3.477 4.02-3.984a4.42 4.42 0 0 1 2.407.191 15.57 15.57 0 0 1 7.535 5.017c.462.682 1.05 1.27 1.734 1.73a12.43 12.43 0 0 1 1.195.582 3.24 3.24 0 0 1 .975 1.269 12.32 12.32 0 0 1 .864 8.664c-.462 1.71-1.296 3.296-1.79 5.017s-.618 3.632.287 5.152c-.874.446-1.98-.116-2.512-.928s-.714-1.816-1.005-2.754a10.52 10.52 0 0 0-3.08-4.781c-.894-.793-2.51-1.325-3.12-.3-.24.396-.226.898-.432 1.31-.407.803-1.583.963-2.362.502a3.62 3.62 0 0 1-1.477-2.188c-1.17-3.953-3.165-6.44-7.4-4.75-1.577.632-3.436 1.06-4.953-.025-1.98-1.43-1.593-4.254-.16-5.874z" fill="#b96b6b"/><path d="M540.65 154.306h-5.777s-11.37 5.674-11.65 5.393c-.19-.2-1.95.136-3.064.372.174-.633.295-1.28.36-1.932 3.693-.286 12.79-6.522 12.79-6.522l7.104-1.133v3.687c.084.035.163.08.236.135z" class="D J"/><path opacity=".3" d="M537.078 320.798c-.017 1.035-.137 2.065-.357 3.076 0 0-23.612 1.7-30.977 1.134-3.552-.27-5.064-1.596-5.335-2.865-.322 1.455.964 3.38 5.335 3.717 7.4.567 30.977-1.133 30.977-1.133.277-1.29.396-2.6.357-3.93z" class="E"/><g class="D J"><path d="M505.884 215.16c-3.833 3-7.224 4.27-9.45 4.77 0 .2.04.42.07.622 0 0 5.4.286 12.223-5.107a9.17 9.17 0 0 1 3.652-1.906c-1.487-.688-3.612-.643-6.496 1.62zm38.573-53.178c-1.004-3-2.5-6.773-3.662-7.666a1.08 1.08 0 0 0-.23-.14l-2.276.14c1.17.893 2.306 4.395 3.326 7.38a15.53 15.53 0 0 1 .618 7.525c-1.005 6.1-3.185 18.607-5.652 29.494-3.4 15.05-7.104 11.634-8.812 15.326-1.396 3-.698 6.994-.397 8.333 1.216.502 2.27.818 2.954.748 0 0-1.42-5.108.287-8.8s5.4-.286 8.812-15.326c2.466-10.882 4.637-23.403 5.65-29.494a15.52 15.52 0 0 0-.618-7.52z" class="J"/></g><path d="M511.712 196.166l-31.805-3.692c-17.05-5.393-6.255-13.62-6.255-13.62l11.37 10.787c3.28.657 16.14-.873 21.904-1.61l2.818-.376 1.97 8.513z" class="O"/><path d="M539.263 157.286s-7.4-5.96-18.472 13.34-13.64 16.174-13.64 16.174 2.276 8.53 1.135 10.22c0 0 7.672-.567 10.515 0s20.462-21.572 20.462-21.572 9.113-12.487 0-18.16z" fill="#f68080"/></g><defs><linearGradient id="A" x1="316.998" y1="299.623" x2="316.998" y2="56.619" xlink:href="#f"><stop stop-color="gray" stop-opacity=".25"/><stop offset=".54" stop-color="gray" stop-opacity=".12"/><stop offset="1" stop-color="gray" stop-opacity=".1"/></linearGradient><linearGradient id="B" x1="60034.6" y1="167131" x2="60034.6" y2="68963.9" xlink:href="#f"><stop stop-color="gray" stop-opacity=".25"/><stop offset=".54" stop-color="gray" stop-opacity=".12"/><stop offset="1" stop-color="gray" stop-opacity=".1"/></linearGradient><linearGradient id="C" x1="18452.7" y1="136896" x2="18452.7" y2="76951.5" xlink:href="#f"><stop stop-color="gray" stop-opacity=".25"/><stop offset=".54" stop-color="gray" stop-opacity=".12"/><stop offset="1" stop-color="gray" stop-opacity=".1"/></linearGradient><linearGradient id="D" x1="64225" y1="77639.7" x2="64225" y2="58932.9" xlink:href="#f"><stop stop-color="gray" stop-opacity=".25"/><stop offset=".54" stop-color="gray" stop-opacity=".12"/><stop offset="1" stop-color="gray" stop-opacity=".1"/></linearGradient><linearGradient id="E" x1="17664.8" y1="21805.9" x2="21816.8" y2="21805.9" xlink:href="#f"><stop stop-color="gray" stop-opacity=".25"/><stop offset=".54" stop-color="gray" stop-opacity=".12"/><stop offset="1" stop-color="gray" stop-opacity=".1"/></linearGradient><linearGradient id="F" x1="-56372.5" y1="181937" x2="-56372.5" y2="89609.1" xlink:href="#f"><stop stop-color="gray" stop-opacity=".25"/><stop offset=".54" stop-color="gray" stop-opacity=".12"/><stop offset="1" stop-color="gray" stop-opacity=".1"/></linearGradient><linearGradient id="G" x1="10796.7" y1="20674.2" x2="10796.7" y2="17548" xlink:href="#f"><stop stop-color="gray" stop-opacity=".25"/><stop offset=".54" stop-color="gray" stop-opacity=".12"/><stop offset="1" stop-color="gray" stop-opacity=".1"/></linearGradient><linearGradient id="H" x1="87285.4" y1="149042" x2="87285.4" y2="60888.9" xlink:href="#f"><stop stop-color="gray" stop-opacity=".25"/><stop offset=".54" stop-color="gray" stop-opacity=".12"/><stop offset="1" stop-color="gray" stop-opacity=".1"/></linearGradient><linearGradient id="I" x1="88593.7" y1="32316.2" x2="88593.7" y2="21884.5" xlink:href="#f"><stop stop-color="gray" stop-opacity=".25"/><stop offset=".54" stop-color="gray" stop-opacity=".12"/><stop offset="1" stop-color="gray" stop-opacity=".1"/></linearGradient><clipPath id="J"><path d="M0 0h546v396H0z" class="E"/></clipPath><path id="K" d="M524.473 72.914S503.93 69.648 502.06 88.03s-39.497 20.93-39.497 20.93l.703.466c31.068 20.363 60.79 12.974 56.267-14.047-1.643-10.074-1.507-20.188 4.94-22.465z"/><path id="L" d="M252.794 130.617h-73.856v3.988h73.856v-3.988z"/><path id="M" d="M252.794 137.26h-73.856v3.99h73.856v-3.99z"/><path id="N" d="M246.805 150.55h-67.867v3.988h67.867v-3.988z"/><path id="O" d="M121.924 171.905H105.51v1.82h16.413v-1.82z"/><path id="P" d="M117.06 174.94h-11.55v1.82h11.55v-1.82z"/><path id="Q" d="M121.924 181.01H88.19v1.82h33.736v-1.82z"/><path id="R" d="M168.122 171.905H151.71v1.82h16.413v-1.82z"/><path id="S" d="M168.117 181.01h-33.735v1.82h33.735v-1.82z"/><path id="T" d="M165.384 190.116h-31.002v1.82h31.002v-1.82z"/><path id="U" d="M168.117 196.186h-33.735v1.822h33.735v-1.822z"/><path id="V" d="M214.317 171.905h-16.413v1.82h16.413v-1.82z"/><path id="W" d="M126.023 241.593h-41.94v31.566h41.94v-31.566z"/><path id="X" d="M97.804 276.37H57.66v2.167h40.145v-2.167z"/><path id="Y" d="M225.7 324.932l-10.37-4.264c-4.57-1.826-1.828 4.264-1.828 4.264s7.626 2.132 7.626 2.438 6.405.607 6.405.607l-1.834-3.045z"/><path id="Z" d="M250.393 300.872s-10.37-5.484-12.203 5.177a43.49 43.49 0 0 1-7.611 17.975s-5.49 1.22-7.626-.913c0 0 5.184 6.09 2.743 6.703 0 0 5.49 3.958 7.932 2.74s4.27-9.442 5.185-11.574 4.27-20.72 11.58-20.107z"/><path id="a" d="M218.99 341.382l-20.437-2.74s-33.248 15.838-37.212 16.144l.915 7.024h6.1c2.44 0 26.23-5.178 29.585-10.355a8.18 8.18 0 0 1 5.797.607c3.05 1.505 32.334 10.967 32.334 10.967l-17.08-21.648z"/><path id="b" d="M246.896 300.72c5.39 0 9.76-4.364 9.76-9.747s-4.37-9.748-9.76-9.748-9.76 4.364-9.76 9.748 4.37 9.747 9.76 9.747z"/><path id="c" d="M504.322 191.907s-20.462 2.84-24.727 2.007l-11.37-10.786s-10.8 8.232 6.255 13.62l31.83 3.688-2-8.53z"/><path id="d" d="M511.712 307.133l-9.947 8.8s-5.682 1.42-8.812 1.134-4.546 4.826 2.844 5.393 30.977-1.134 30.977-1.134 2.276-9.08-4.547-14.192h-10.515z"/><path id="e" d="M524.503 308.547c-1.482 1.826-3.572 2.51-5.757 2.634-4.97.236-10.44-2.634-10.44-2.634 3.693-3.12-5.682-30.652-5.682-30.652-7.67-3.688-7.103-11.92-7.103-11.92l3.14-55.907 7.957-4.826 12.223 9.366c.387 1.45.636 2.933.744 4.43.688 10.43-7.566 12.883-7.566 12.883s3.41 10.5.286 20.147 2.276 18.16 2.276 18.16 10.234 29.514 8.54 31.22 1.38 7.098 1.38 7.098z"/><linearGradient id="f" gradientUnits="userSpaceOnUse"/></defs></svg>