<svg width="166" height="192" viewBox="0 0 166 192" fill="none" xmlns="http://www.w3.org/2000/svg">
<path fill-rule="evenodd" clip-rule="evenodd" d="M76.7944 87.4146C77.4116 87.4146 78.0035 87.6613 78.4399 88.1004C78.8763 88.5395 79.1215 89.1351 79.1215 89.7561C79.1215 90.3771 78.8763 90.9726 78.4399 91.4118C78.0035 91.8509 77.4116 92.0976 76.7944 92.0976C76.1772 92.0976 75.5853 91.8509 75.1489 91.4118C74.7125 90.9726 74.4673 90.3771 74.4673 89.7561C74.4673 89.1351 74.7125 88.5395 75.1489 88.1004C75.5853 87.6613 76.1772 87.4146 76.7944 87.4146ZM64.3832 87.4146C65.0004 87.4146 65.5923 87.6613 66.0287 88.1004C66.4651 88.5395 66.7103 89.1351 66.7103 89.7561C66.7103 90.3771 66.4651 90.9726 66.0287 91.4118C65.5923 91.8509 65.0004 92.0976 64.3832 92.0976C63.766 92.0976 63.1741 91.8509 62.7377 91.4118C62.3013 90.9726 62.0561 90.3771 62.0561 89.7561C62.0561 89.1351 62.3013 88.5395 62.7377 88.1004C63.1741 87.6613 63.766 87.4146 64.3832 87.4146ZM51.972 87.4146C52.5892 87.4146 53.1811 87.6613 53.6175 88.1004C54.0539 88.5395 54.2991 89.1351 54.2991 89.7561C54.2991 90.3771 54.0539 90.9726 53.6175 91.4118C53.1811 91.8509 52.5892 92.0976 51.972 92.0976C51.3548 92.0976 50.7629 91.8509 50.3265 91.4118C49.89 90.9726 49.6449 90.3771 49.6449 89.7561C49.6449 89.1351 49.89 88.5395 50.3265 88.1004C50.7629 87.6613 51.3548 87.4146 51.972 87.4146ZM39.5607 87.4146C40.1779 87.4146 40.7698 87.6613 41.2063 88.1004C41.6427 88.5395 41.8879 89.1351 41.8879 89.7561C41.8879 90.3771 41.6427 90.9726 41.2063 91.4118C40.7698 91.8509 40.1779 92.0976 39.5607 92.0976C38.9436 92.0976 38.3517 91.8509 37.9152 91.4118C37.4788 90.9726 37.2336 90.3771 37.2336 89.7561C37.2336 89.1351 37.4788 88.5395 37.9152 88.1004C38.3517 87.6613 38.9436 87.4146 39.5607 87.4146ZM27.1495 87.4146C27.7667 87.4146 28.3586 87.6613 28.795 88.1004C29.2315 88.5395 29.4766 89.1351 29.4766 89.7561C29.4766 90.3771 29.2315 90.9726 28.795 91.4118C28.3586 91.8509 27.7667 92.0976 27.1495 92.0976C26.5323 92.0976 25.9404 91.8509 25.504 91.4118C25.0676 90.9726 24.8224 90.3771 24.8224 89.7561C24.8224 89.1351 25.0676 88.5395 25.504 88.1004C25.9404 87.6613 26.5323 87.4146 27.1495 87.4146ZM14.7383 87.4146C15.3555 87.4146 15.9474 87.6613 16.3838 88.1004C16.8202 88.5395 17.0654 89.1351 17.0654 89.7561C17.0654 90.3771 16.8202 90.9726 16.3838 91.4118C15.9474 91.8509 15.3555 92.0976 14.7383 92.0976C14.1211 92.0976 13.5292 91.8509 13.0928 91.4118C12.6564 90.9726 12.4112 90.3771 12.4112 89.7561C12.4112 89.1351 12.6564 88.5395 13.0928 88.1004C13.5292 87.6613 14.1211 87.4146 14.7383 87.4146ZM2.3271 87.4146C2.94429 87.4146 3.5362 87.6613 3.97261 88.1004C4.40903 88.5395 4.65421 89.1351 4.65421 89.7561C4.65421 90.3771 4.40903 90.9726 3.97261 91.4118C3.5362 91.8509 2.94429 92.0976 2.3271 92.0976C1.70992 92.0976 1.11801 91.8509 0.681593 91.4118C0.245176 90.9726 0 90.3771 0 89.7561C0 89.1351 0.245176 88.5395 0.681593 88.1004C1.11801 87.6613 1.70992 87.4146 2.3271 87.4146ZM76.7944 74.9268C77.4116 74.9268 78.0035 75.1735 78.4399 75.6126C78.8763 76.0517 79.1215 76.6473 79.1215 77.2683C79.1215 77.8893 78.8763 78.4848 78.4399 78.924C78.0035 79.3631 77.4116 79.6098 76.7944 79.6098C76.1772 79.6098 75.5853 79.3631 75.1489 78.924C74.7125 78.4848 74.4673 77.8893 74.4673 77.2683C74.4673 76.6473 74.7125 76.0517 75.1489 75.6126C75.5853 75.1735 76.1772 74.9268 76.7944 74.9268ZM64.3832 74.9268C65.0004 74.9268 65.5923 75.1735 66.0287 75.6126C66.4651 76.0517 66.7103 76.6473 66.7103 77.2683C66.7103 77.8893 66.4651 78.4848 66.0287 78.924C65.5923 79.3631 65.0004 79.6098 64.3832 79.6098C63.766 79.6098 63.1741 79.3631 62.7377 78.924C62.3013 78.4848 62.0561 77.8893 62.0561 77.2683C62.0561 76.6473 62.3013 76.0517 62.7377 75.6126C63.1741 75.1735 63.766 74.9268 64.3832 74.9268ZM51.972 74.9268C52.5892 74.9268 53.1811 75.1735 53.6175 75.6126C54.0539 76.0517 54.2991 76.6473 54.2991 77.2683C54.2991 77.8893 54.0539 78.4848 53.6175 78.924C53.1811 79.3631 52.5892 79.6098 51.972 79.6098C51.3548 79.6098 50.7629 79.3631 50.3265 78.924C49.89 78.4848 49.6449 77.8893 49.6449 77.2683C49.6449 76.6473 49.89 76.0517 50.3265 75.6126C50.7629 75.1735 51.3548 74.9268 51.972 74.9268ZM39.5607 74.9268C40.1779 74.9268 40.7698 75.1735 41.2063 75.6126C41.6427 76.0517 41.8879 76.6473 41.8879 77.2683C41.8879 77.8893 41.6427 78.4848 41.2063 78.924C40.7698 79.3631 40.1779 79.6098 39.5607 79.6098C38.9436 79.6098 38.3517 79.3631 37.9152 78.924C37.4788 78.4848 37.2336 77.8893 37.2336 77.2683C37.2336 76.6473 37.4788 76.0517 37.9152 75.6126C38.3517 75.1735 38.9436 74.9268 39.5607 74.9268ZM27.1495 74.9268C27.7667 74.9268 28.3586 75.1735 28.795 75.6126C29.2315 76.0517 29.4766 76.6473 29.4766 77.2683C29.4766 77.8893 29.2315 78.4848 28.795 78.924C28.3586 79.3631 27.7667 79.6098 27.1495 79.6098C26.5323 79.6098 25.9404 79.3631 25.504 78.924C25.0676 78.4848 24.8224 77.8893 24.8224 77.2683C24.8224 76.6473 25.0676 76.0517 25.504 75.6126C25.9404 75.1735 26.5323 74.9268 27.1495 74.9268ZM14.7383 74.9268C15.3555 74.9268 15.9474 75.1735 16.3838 75.6126C16.8202 76.0517 17.0654 76.6473 17.0654 77.2683C17.0654 77.8893 16.8202 78.4848 16.3838 78.924C15.9474 79.3631 15.3555 79.6098 14.7383 79.6098C14.1211 79.6098 13.5292 79.3631 13.0928 78.924C12.6564 78.4848 12.4112 77.8893 12.4112 77.2683C12.4112 76.6473 12.6564 76.0517 13.0928 75.6126C13.5292 75.1735 14.1211 74.9268 14.7383 74.9268ZM2.3271 74.9268C2.94429 74.9268 3.5362 75.1735 3.97261 75.6126C4.40903 76.0517 4.65421 76.6473 4.65421 77.2683C4.65421 77.8893 4.40903 78.4848 3.97261 78.924C3.5362 79.3631 2.94429 79.6098 2.3271 79.6098C1.70992 79.6098 1.11801 79.3631 0.681593 78.924C0.245176 78.4848 0 77.8893 0 77.2683C0 76.6473 0.245176 76.0517 0.681593 75.6126C1.11801 75.1735 1.70992 74.9268 2.3271 74.9268ZM76.7944 62.439C77.4116 62.439 78.0035 62.6857 78.4399 63.1248C78.8763 63.5639 79.1215 64.1595 79.1215 64.7805C79.1215 65.4015 78.8763 65.997 78.4399 66.4361C78.0035 66.8753 77.4116 67.1219 76.7944 67.1219C76.1772 67.1219 75.5853 66.8753 75.1489 66.4361C74.7125 65.997 74.4673 65.4015 74.4673 64.7805C74.4673 64.1595 74.7125 63.5639 75.1489 63.1248C75.5853 62.6857 76.1772 62.439 76.7944 62.439ZM64.3832 62.439C65.0004 62.439 65.5923 62.6857 66.0287 63.1248C66.4651 63.5639 66.7103 64.1595 66.7103 64.7805C66.7103 65.4015 66.4651 65.997 66.0287 66.4361C65.5923 66.8753 65.0004 67.1219 64.3832 67.1219C63.766 67.1219 63.1741 66.8753 62.7377 66.4361C62.3013 65.997 62.0561 65.4015 62.0561 64.7805C62.0561 64.1595 62.3013 63.5639 62.7377 63.1248C63.1741 62.6857 63.766 62.439 64.3832 62.439ZM51.972 62.439C52.5892 62.439 53.1811 62.6857 53.6175 63.1248C54.0539 63.5639 54.2991 64.1595 54.2991 64.7805C54.2991 65.4015 54.0539 65.997 53.6175 66.4361C53.1811 66.8753 52.5892 67.1219 51.972 67.1219C51.3548 67.1219 50.7629 66.8753 50.3265 66.4361C49.89 65.997 49.6449 65.4015 49.6449 64.7805C49.6449 64.1595 49.89 63.5639 50.3265 63.1248C50.7629 62.6857 51.3548 62.439 51.972 62.439ZM39.5607 62.439C40.1779 62.439 40.7698 62.6857 41.2063 63.1248C41.6427 63.5639 41.8879 64.1595 41.8879 64.7805C41.8879 65.4015 41.6427 65.997 41.2063 66.4361C40.7698 66.8753 40.1779 67.1219 39.5607 67.1219C38.9436 67.1219 38.3517 66.8753 37.9152 66.4361C37.4788 65.997 37.2336 65.4015 37.2336 64.7805C37.2336 64.1595 37.4788 63.5639 37.9152 63.1248C38.3517 62.6857 38.9436 62.439 39.5607 62.439ZM27.1495 62.439C27.7667 62.439 28.3586 62.6857 28.795 63.1248C29.2315 63.5639 29.4766 64.1595 29.4766 64.7805C29.4766 65.4015 29.2315 65.997 28.795 66.4361C28.3586 66.8753 27.7667 67.1219 27.1495 67.1219C26.5323 67.1219 25.9404 66.8753 25.504 66.4361C25.0676 65.997 24.8224 65.4015 24.8224 64.7805C24.8224 64.1595 25.0676 63.5639 25.504 63.1248C25.9404 62.6857 26.5323 62.439 27.1495 62.439ZM14.7383 62.439C15.3555 62.439 15.9474 62.6857 16.3838 63.1248C16.8202 63.5639 17.0654 64.1595 17.0654 64.7805C17.0654 65.4015 16.8202 65.997 16.3838 66.4361C15.9474 66.8753 15.3555 67.1219 14.7383 67.1219C14.1211 67.1219 13.5292 66.8753 13.0928 66.4361C12.6564 65.997 12.4112 65.4015 12.4112 64.7805C12.4112 64.1595 12.6564 63.5639 13.0928 63.1248C13.5292 62.6857 14.1211 62.439 14.7383 62.439ZM2.3271 62.439C2.94429 62.439 3.5362 62.6857 3.97261 63.1248C4.40903 63.5639 4.65421 64.1595 4.65421 64.7805C4.65421 65.4015 4.40903 65.997 3.97261 66.4361C3.5362 66.8753 2.94429 67.1219 2.3271 67.1219C1.70992 67.1219 1.11801 66.8753 0.681593 66.4361C0.245176 65.997 0 65.4015 0 64.7805C0 64.1595 0.245176 63.5639 0.681593 63.1248C1.11801 62.6857 1.70992 62.439 2.3271 62.439ZM76.7944 49.9512C77.4116 49.9512 78.0035 50.1979 78.4399 50.637C78.8763 51.0761 79.1215 51.6717 79.1215 52.2927C79.1215 52.9137 78.8763 53.5092 78.4399 53.9483C78.0035 54.3875 77.4116 54.6341 76.7944 54.6341C76.1772 54.6341 75.5853 54.3875 75.1489 53.9483C74.7125 53.5092 74.4673 52.9137 74.4673 52.2927C74.4673 51.6717 74.7125 51.0761 75.1489 50.637C75.5853 50.1979 76.1772 49.9512 76.7944 49.9512ZM64.3832 49.9512C65.0004 49.9512 65.5923 50.1979 66.0287 50.637C66.4651 51.0761 66.7103 51.6717 66.7103 52.2927C66.7103 52.9137 66.4651 53.5092 66.0287 53.9483C65.5923 54.3875 65.0004 54.6341 64.3832 54.6341C63.766 54.6341 63.1741 54.3875 62.7377 53.9483C62.3013 53.5092 62.0561 52.9137 62.0561 52.2927C62.0561 51.6717 62.3013 51.0761 62.7377 50.637C63.1741 50.1979 63.766 49.9512 64.3832 49.9512ZM51.972 49.9512C52.5892 49.9512 53.1811 50.1979 53.6175 50.637C54.0539 51.0761 54.2991 51.6717 54.2991 52.2927C54.2991 52.9137 54.0539 53.5092 53.6175 53.9483C53.1811 54.3875 52.5892 54.6341 51.972 54.6341C51.3548 54.6341 50.7629 54.3875 50.3265 53.9483C49.89 53.5092 49.6449 52.9137 49.6449 52.2927C49.6449 51.6717 49.89 51.0761 50.3265 50.637C50.7629 50.1979 51.3548 49.9512 51.972 49.9512ZM39.5607 49.9512C40.1779 49.9512 40.7698 50.1979 41.2063 50.637C41.6427 51.0761 41.8879 51.6717 41.8879 52.2927C41.8879 52.9137 41.6427 53.5092 41.2063 53.9483C40.7698 54.3875 40.1779 54.6341 39.5607 54.6341C38.9436 54.6341 38.3517 54.3875 37.9152 53.9483C37.4788 53.5092 37.2336 52.9137 37.2336 52.2927C37.2336 51.6717 37.4788 51.0761 37.9152 50.637C38.3517 50.1979 38.9436 49.9512 39.5607 49.9512ZM27.1495 49.9512C27.7667 49.9512 28.3586 50.1979 28.795 50.637C29.2315 51.0761 29.4766 51.6717 29.4766 52.2927C29.4766 52.9137 29.2315 53.5092 28.795 53.9483C28.3586 54.3875 27.7667 54.6341 27.1495 54.6341C26.5323 54.6341 25.9404 54.3875 25.504 53.9483C25.0676 53.5092 24.8224 52.9137 24.8224 52.2927C24.8224 51.6717 25.0676 51.0761 25.504 50.637C25.9404 50.1979 26.5323 49.9512 27.1495 49.9512ZM14.7383 49.9512C15.3555 49.9512 15.9474 50.1979 16.3838 50.637C16.8202 51.0761 17.0654 51.6717 17.0654 52.2927C17.0654 52.9137 16.8202 53.5092 16.3838 53.9483C15.9474 54.3875 15.3555 54.6341 14.7383 54.6341C14.1211 54.6341 13.5292 54.3875 13.0928 53.9483C12.6564 53.5092 12.4112 52.9137 12.4112 52.2927C12.4112 51.6717 12.6564 51.0761 13.0928 50.637C13.5292 50.1979 14.1211 49.9512 14.7383 49.9512ZM2.3271 49.9512C2.94429 49.9512 3.5362 50.1979 3.97261 50.637C4.40903 51.0761 4.65421 51.6717 4.65421 52.2927C4.65421 52.9137 4.40903 53.5092 3.97261 53.9483C3.5362 54.3875 2.94429 54.6341 2.3271 54.6341C1.70992 54.6341 1.11801 54.3875 0.681593 53.9483C0.245176 53.5092 0 52.9137 0 52.2927C0 51.6717 0.245176 51.0761 0.681593 50.637C1.11801 50.1979 1.70992 49.9512 2.3271 49.9512ZM76.7944 37.4634C77.4116 37.4634 78.0035 37.7101 78.4399 38.1492C78.8763 38.5883 79.1215 39.1839 79.1215 39.8049C79.1215 40.4259 78.8763 41.0214 78.4399 41.4605C78.0035 41.8997 77.4116 42.1463 76.7944 42.1463C76.1772 42.1463 75.5853 41.8997 75.1489 41.4605C74.7125 41.0214 74.4673 40.4259 74.4673 39.8049C74.4673 39.1839 74.7125 38.5883 75.1489 38.1492C75.5853 37.7101 76.1772 37.4634 76.7944 37.4634ZM64.3832 37.4634C65.0004 37.4634 65.5923 37.7101 66.0287 38.1492C66.4651 38.5883 66.7103 39.1839 66.7103 39.8049C66.7103 40.4259 66.4651 41.0214 66.0287 41.4605C65.5923 41.8997 65.0004 42.1463 64.3832 42.1463C63.766 42.1463 63.1741 41.8997 62.7377 41.4605C62.3013 41.0214 62.0561 40.4259 62.0561 39.8049C62.0561 39.1839 62.3013 38.5883 62.7377 38.1492C63.1741 37.7101 63.766 37.4634 64.3832 37.4634ZM51.972 37.4634C52.5892 37.4634 53.1811 37.7101 53.6175 38.1492C54.0539 38.5883 54.2991 39.1839 54.2991 39.8049C54.2991 40.4259 54.0539 41.0214 53.6175 41.4605C53.1811 41.8997 52.5892 42.1463 51.972 42.1463C51.3548 42.1463 50.7629 41.8997 50.3265 41.4605C49.89 41.0214 49.6449 40.4259 49.6449 39.8049C49.6449 39.1839 49.89 38.5883 50.3265 38.1492C50.7629 37.7101 51.3548 37.4634 51.972 37.4634ZM39.5607 37.4634C40.1779 37.4634 40.7698 37.7101 41.2063 38.1492C41.6427 38.5883 41.8879 39.1839 41.8879 39.8049C41.8879 40.4259 41.6427 41.0214 41.2063 41.4605C40.7698 41.8997 40.1779 42.1463 39.5607 42.1463C38.9436 42.1463 38.3517 41.8997 37.9152 41.4605C37.4788 41.0214 37.2336 40.4259 37.2336 39.8049C37.2336 39.1839 37.4788 38.5883 37.9152 38.1492C38.3517 37.7101 38.9436 37.4634 39.5607 37.4634ZM27.1495 37.4634C27.7667 37.4634 28.3586 37.7101 28.795 38.1492C29.2315 38.5883 29.4766 39.1839 29.4766 39.8049C29.4766 40.4259 29.2315 41.0214 28.795 41.4605C28.3586 41.8997 27.7667 42.1463 27.1495 42.1463C26.5323 42.1463 25.9404 41.8997 25.504 41.4605C25.0676 41.0214 24.8224 40.4259 24.8224 39.8049C24.8224 39.1839 25.0676 38.5883 25.504 38.1492C25.9404 37.7101 26.5323 37.4634 27.1495 37.4634ZM14.7383 37.4634C15.3555 37.4634 15.9474 37.7101 16.3838 38.1492C16.8202 38.5883 17.0654 39.1839 17.0654 39.8049C17.0654 40.4259 16.8202 41.0214 16.3838 41.4605C15.9474 41.8997 15.3555 42.1463 14.7383 42.1463C14.1211 42.1463 13.5292 41.8997 13.0928 41.4605C12.6564 41.0214 12.4112 40.4259 12.4112 39.8049C12.4112 39.1839 12.6564 38.5883 13.0928 38.1492C13.5292 37.7101 14.1211 37.4634 14.7383 37.4634ZM2.3271 37.4634C2.94429 37.4634 3.5362 37.7101 3.97261 38.1492C4.40903 38.5883 4.65421 39.1839 4.65421 39.8049C4.65421 40.4259 4.40903 41.0214 3.97261 41.4605C3.5362 41.8997 2.94429 42.1463 2.3271 42.1463C1.70992 42.1463 1.11801 41.8997 0.681593 41.4605C0.245176 41.0214 0 40.4259 0 39.8049C0 39.1839 0.245176 38.5883 0.681593 38.1492C1.11801 37.7101 1.70992 37.4634 2.3271 37.4634ZM76.7944 24.9756C77.4116 24.9756 78.0035 25.2223 78.4399 25.6614C78.8763 26.1005 79.1215 26.6961 79.1215 27.3171C79.1215 27.9381 78.8763 28.5336 78.4399 28.9727C78.0035 29.4118 77.4116 29.6585 76.7944 29.6585C76.1772 29.6585 75.5853 29.4118 75.1489 28.9727C74.7125 28.5336 74.4673 27.9381 74.4673 27.3171C74.4673 26.6961 74.7125 26.1005 75.1489 25.6614C75.5853 25.2223 76.1772 24.9756 76.7944 24.9756ZM64.3832 24.9756C65.0004 24.9756 65.5923 25.2223 66.0287 25.6614C66.4651 26.1005 66.7103 26.6961 66.7103 27.3171C66.7103 27.9381 66.4651 28.5336 66.0287 28.9727C65.5923 29.4118 65.0004 29.6585 64.3832 29.6585C63.766 29.6585 63.1741 29.4118 62.7377 28.9727C62.3013 28.5336 62.0561 27.9381 62.0561 27.3171C62.0561 26.6961 62.3013 26.1005 62.7377 25.6614C63.1741 25.2223 63.766 24.9756 64.3832 24.9756ZM51.972 24.9756C52.5892 24.9756 53.1811 25.2223 53.6175 25.6614C54.0539 26.1005 54.2991 26.6961 54.2991 27.3171C54.2991 27.9381 54.0539 28.5336 53.6175 28.9727C53.1811 29.4118 52.5892 29.6585 51.972 29.6585C51.3548 29.6585 50.7629 29.4118 50.3265 28.9727C49.89 28.5336 49.6449 27.9381 49.6449 27.3171C49.6449 26.6961 49.89 26.1005 50.3265 25.6614C50.7629 25.2223 51.3548 24.9756 51.972 24.9756ZM39.5607 24.9756C40.1779 24.9756 40.7698 25.2223 41.2063 25.6614C41.6427 26.1005 41.8879 26.6961 41.8879 27.3171C41.8879 27.9381 41.6427 28.5336 41.2063 28.9727C40.7698 29.4118 40.1779 29.6585 39.5607 29.6585C38.9436 29.6585 38.3517 29.4118 37.9152 28.9727C37.4788 28.5336 37.2336 27.9381 37.2336 27.3171C37.2336 26.6961 37.4788 26.1005 37.9152 25.6614C38.3517 25.2223 38.9436 24.9756 39.5607 24.9756ZM27.1495 24.9756C27.7667 24.9756 28.3586 25.2223 28.795 25.6614C29.2315 26.1005 29.4766 26.6961 29.4766 27.3171C29.4766 27.9381 29.2315 28.5336 28.795 28.9727C28.3586 29.4118 27.7667 29.6585 27.1495 29.6585C26.5323 29.6585 25.9404 29.4118 25.504 28.9727C25.0676 28.5336 24.8224 27.9381 24.8224 27.3171C24.8224 26.6961 25.0676 26.1005 25.504 25.6614C25.9404 25.2223 26.5323 24.9756 27.1495 24.9756ZM14.7383 24.9756C15.3555 24.9756 15.9474 25.2223 16.3838 25.6614C16.8202 26.1005 17.0654 26.6961 17.0654 27.3171C17.0654 27.9381 16.8202 28.5336 16.3838 28.9727C15.9474 29.4118 15.3555 29.6585 14.7383 29.6585C14.1211 29.6585 13.5292 29.4118 13.0928 28.9727C12.6564 28.5336 12.4112 27.9381 12.4112 27.3171C12.4112 26.6961 12.6564 26.1005 13.0928 25.6614C13.5292 25.2223 14.1211 24.9756 14.7383 24.9756ZM2.3271 24.9756C2.94429 24.9756 3.5362 25.2223 3.97261 25.6614C4.40903 26.1005 4.65421 26.6961 4.65421 27.3171C4.65421 27.9381 4.40903 28.5336 3.97261 28.9727C3.5362 29.4118 2.94429 29.6585 2.3271 29.6585C1.70992 29.6585 1.11801 29.4118 0.681593 28.9727C0.245176 28.5336 0 27.9381 0 27.3171C0 26.6961 0.245176 26.1005 0.681593 25.6614C1.11801 25.2223 1.70992 24.9756 2.3271 24.9756ZM76.7944 12.4878C77.4116 12.4878 78.0035 12.7345 78.4399 13.1736C78.8763 13.6127 79.1215 14.2083 79.1215 14.8293C79.1215 15.4503 78.8763 16.0458 78.4399 16.4849C78.0035 16.924 77.4116 17.1707 76.7944 17.1707C76.1772 17.1707 75.5853 16.924 75.1489 16.4849C74.7125 16.0458 74.4673 15.4503 74.4673 14.8293C74.4673 14.2083 74.7125 13.6127 75.1489 13.1736C75.5853 12.7345 76.1772 12.4878 76.7944 12.4878ZM64.3832 12.4878C65.0004 12.4878 65.5923 12.7345 66.0287 13.1736C66.4651 13.6127 66.7103 14.2083 66.7103 14.8293C66.7103 15.4503 66.4651 16.0458 66.0287 16.4849C65.5923 16.924 65.0004 17.1707 64.3832 17.1707C63.766 17.1707 63.1741 16.924 62.7377 16.4849C62.3013 16.0458 62.0561 15.4503 62.0561 14.8293C62.0561 14.2083 62.3013 13.6127 62.7377 13.1736C63.1741 12.7345 63.766 12.4878 64.3832 12.4878ZM51.972 12.4878C52.5892 12.4878 53.1811 12.7345 53.6175 13.1736C54.0539 13.6127 54.2991 14.2083 54.2991 14.8293C54.2991 15.4503 54.0539 16.0458 53.6175 16.4849C53.1811 16.924 52.5892 17.1707 51.972 17.1707C51.3548 17.1707 50.7629 16.924 50.3265 16.4849C49.89 16.0458 49.6449 15.4503 49.6449 14.8293C49.6449 14.2083 49.89 13.6127 50.3265 13.1736C50.7629 12.7345 51.3548 12.4878 51.972 12.4878ZM39.5607 12.4878C40.1779 12.4878 40.7698 12.7345 41.2063 13.1736C41.6427 13.6127 41.8879 14.2083 41.8879 14.8293C41.8879 15.4503 41.6427 16.0458 41.2063 16.4849C40.7698 16.924 40.1779 17.1707 39.5607 17.1707C38.9436 17.1707 38.3517 16.924 37.9152 16.4849C37.4788 16.0458 37.2336 15.4503 37.2336 14.8293C37.2336 14.2083 37.4788 13.6127 37.9152 13.1736C38.3517 12.7345 38.9436 12.4878 39.5607 12.4878ZM27.1495 12.4878C27.7667 12.4878 28.3586 12.7345 28.795 13.1736C29.2315 13.6127 29.4766 14.2083 29.4766 14.8293C29.4766 15.4503 29.2315 16.0458 28.795 16.4849C28.3586 16.924 27.7667 17.1707 27.1495 17.1707C26.5323 17.1707 25.9404 16.924 25.504 16.4849C25.0676 16.0458 24.8224 15.4503 24.8224 14.8293C24.8224 14.2083 25.0676 13.6127 25.504 13.1736C25.9404 12.7345 26.5323 12.4878 27.1495 12.4878ZM14.7383 12.4878C15.3555 12.4878 15.9474 12.7345 16.3838 13.1736C16.8202 13.6127 17.0654 14.2083 17.0654 14.8293C17.0654 15.4503 16.8202 16.0458 16.3838 16.4849C15.9474 16.924 15.3555 17.1707 14.7383 17.1707C14.1211 17.1707 13.5292 16.924 13.0928 16.4849C12.6564 16.0458 12.4112 15.4503 12.4112 14.8293C12.4112 14.2083 12.6564 13.6127 13.0928 13.1736C13.5292 12.7345 14.1211 12.4878 14.7383 12.4878ZM2.3271 12.4878C2.94429 12.4878 3.5362 12.7345 3.97261 13.1736C4.40903 13.6127 4.65421 14.2083 4.65421 14.8293C4.65421 15.4503 4.40903 16.0458 3.97261 16.4849C3.5362 16.924 2.94429 17.1707 2.3271 17.1707C1.70992 17.1707 1.11801 16.924 0.681593 16.4849C0.245176 16.0458 0 15.4503 0 14.8293C0 14.2083 0.245176 13.6127 0.681593 13.1736C1.11801 12.7345 1.70992 12.4878 2.3271 12.4878ZM76.7944 0C77.4116 0 78.0035 0.246689 78.4399 0.685799C78.8763 1.12491 79.1215 1.72047 79.1215 2.34146C79.1215 2.96246 78.8763 3.55802 78.4399 3.99713C78.0035 4.43624 77.4116 4.68293 76.7944 4.68293C76.1772 4.68293 75.5853 4.43624 75.1489 3.99713C74.7125 3.55802 74.4673 2.96246 74.4673 2.34146C74.4673 1.72047 74.7125 1.12491 75.1489 0.685799C75.5853 0.246689 76.1772 0 76.7944 0V0ZM64.3832 0C65.0004 0 65.5923 0.246689 66.0287 0.685799C66.4651 1.12491 66.7103 1.72047 66.7103 2.34146C66.7103 2.96246 66.4651 3.55802 66.0287 3.99713C65.5923 4.43624 65.0004 4.68293 64.3832 4.68293C63.766 4.68293 63.1741 4.43624 62.7377 3.99713C62.3013 3.55802 62.0561 2.96246 62.0561 2.34146C62.0561 1.72047 62.3013 1.12491 62.7377 0.685799C63.1741 0.246689 63.766 0 64.3832 0V0ZM51.972 0C52.5892 0 53.1811 0.246689 53.6175 0.685799C54.0539 1.12491 54.2991 1.72047 54.2991 2.34146C54.2991 2.96246 54.0539 3.55802 53.6175 3.99713C53.1811 4.43624 52.5892 4.68293 51.972 4.68293C51.3548 4.68293 50.7629 4.43624 50.3265 3.99713C49.89 3.55802 49.6449 2.96246 49.6449 2.34146C49.6449 1.72047 49.89 1.12491 50.3265 0.685799C50.7629 0.246689 51.3548 0 51.972 0V0ZM39.5607 0C40.1779 0 40.7698 0.246689 41.2063 0.685799C41.6427 1.12491 41.8879 1.72047 41.8879 2.34146C41.8879 2.96246 41.6427 3.55802 41.2063 3.99713C40.7698 4.43624 40.1779 4.68293 39.5607 4.68293C38.9436 4.68293 38.3517 4.43624 37.9152 3.99713C37.4788 3.55802 37.2336 2.96246 37.2336 2.34146C37.2336 1.72047 37.4788 1.12491 37.9152 0.685799C38.3517 0.246689 38.9436 0 39.5607 0V0ZM27.1495 0C27.7667 0 28.3586 0.246689 28.795 0.685799C29.2315 1.12491 29.4766 1.72047 29.4766 2.34146C29.4766 2.96246 29.2315 3.55802 28.795 3.99713C28.3586 4.43624 27.7667 4.68293 27.1495 4.68293C26.5323 4.68293 25.9404 4.43624 25.504 3.99713C25.0676 3.55802 24.8224 2.96246 24.8224 2.34146C24.8224 1.72047 25.0676 1.12491 25.504 0.685799C25.9404 0.246689 26.5323 0 27.1495 0V0ZM14.7383 0C15.3555 0 15.9474 0.246689 16.3838 0.685799C16.8202 1.12491 17.0654 1.72047 17.0654 2.34146C17.0654 2.96246 16.8202 3.55802 16.3838 3.99713C15.9474 4.43624 15.3555 4.68293 14.7383 4.68293C14.1211 4.68293 13.5292 4.43624 13.0928 3.99713C12.6564 3.55802 12.4112 2.96246 12.4112 2.34146C12.4112 1.72047 12.6564 1.12491 13.0928 0.685799C13.5292 0.246689 14.1211 0 14.7383 0V0ZM2.3271 0C2.94429 0 3.5362 0.246689 3.97261 0.685799C4.40903 1.12491 4.65421 1.72047 4.65421 2.34146C4.65421 2.96246 4.40903 3.55802 3.97261 3.99713C3.5362 4.43624 2.94429 4.68293 2.3271 4.68293C1.70992 4.68293 1.11801 4.43624 0.681593 3.99713C0.245176 3.55802 0 2.96246 0 2.34146C0 1.72047 0.245176 1.12491 0.681593 0.685799C1.11801 0.246689 1.70992 0 2.3271 0V0Z" fill="#F9FAFB"/>
<path fill-rule="evenodd" clip-rule="evenodd" d="M76.7944 187.317C77.4116 187.317 78.0035 187.564 78.4399 188.003C78.8763 188.442 79.1215 189.038 79.1215 189.659C79.1215 190.28 78.8763 190.875 78.4399 191.314C78.0035 191.753 77.4116 192 76.7944 192C76.1772 192 75.5853 191.753 75.1489 191.314C74.7125 190.875 74.4673 190.28 74.4673 189.659C74.4673 189.038 74.7125 188.442 75.1489 188.003C75.5853 187.564 76.1772 187.317 76.7944 187.317ZM64.3832 187.317C65.0004 187.317 65.5923 187.564 66.0287 188.003C66.4651 188.442 66.7103 189.038 66.7103 189.659C66.7103 190.28 66.4651 190.875 66.0287 191.314C65.5923 191.753 65.0004 192 64.3832 192C63.766 192 63.1741 191.753 62.7377 191.314C62.3013 190.875 62.0561 190.28 62.0561 189.659C62.0561 189.038 62.3013 188.442 62.7377 188.003C63.1741 187.564 63.766 187.317 64.3832 187.317ZM51.972 187.317C52.5892 187.317 53.1811 187.564 53.6175 188.003C54.0539 188.442 54.2991 189.038 54.2991 189.659C54.2991 190.28 54.0539 190.875 53.6175 191.314C53.1811 191.753 52.5892 192 51.972 192C51.3548 192 50.7629 191.753 50.3265 191.314C49.89 190.875 49.6449 190.28 49.6449 189.659C49.6449 189.038 49.89 188.442 50.3265 188.003C50.7629 187.564 51.3548 187.317 51.972 187.317ZM39.5607 187.317C40.1779 187.317 40.7698 187.564 41.2063 188.003C41.6427 188.442 41.8879 189.038 41.8879 189.659C41.8879 190.28 41.6427 190.875 41.2063 191.314C40.7698 191.753 40.1779 192 39.5607 192C38.9436 192 38.3517 191.753 37.9152 191.314C37.4788 190.875 37.2336 190.28 37.2336 189.659C37.2336 189.038 37.4788 188.442 37.9152 188.003C38.3517 187.564 38.9436 187.317 39.5607 187.317ZM27.1495 187.317C27.7667 187.317 28.3586 187.564 28.795 188.003C29.2315 188.442 29.4766 189.038 29.4766 189.659C29.4766 190.28 29.2315 190.875 28.795 191.314C28.3586 191.753 27.7667 192 27.1495 192C26.5323 192 25.9404 191.753 25.504 191.314C25.0676 190.875 24.8224 190.28 24.8224 189.659C24.8224 189.038 25.0676 188.442 25.504 188.003C25.9404 187.564 26.5323 187.317 27.1495 187.317ZM14.7383 187.317C15.3555 187.317 15.9474 187.564 16.3838 188.003C16.8202 188.442 17.0654 189.038 17.0654 189.659C17.0654 190.28 16.8202 190.875 16.3838 191.314C15.9474 191.753 15.3555 192 14.7383 192C14.1211 192 13.5292 191.753 13.0928 191.314C12.6564 190.875 12.4112 190.28 12.4112 189.659C12.4112 189.038 12.6564 188.442 13.0928 188.003C13.5292 187.564 14.1211 187.317 14.7383 187.317ZM2.3271 187.317C2.94429 187.317 3.5362 187.564 3.97261 188.003C4.40903 188.442 4.65421 189.038 4.65421 189.659C4.65421 190.28 4.40903 190.875 3.97261 191.314C3.5362 191.753 2.94429 192 2.3271 192C1.70992 192 1.11801 191.753 0.681593 191.314C0.245176 190.875 0 190.28 0 189.659C0 189.038 0.245176 188.442 0.681593 188.003C1.11801 187.564 1.70992 187.317 2.3271 187.317ZM76.7944 174.829C77.4116 174.829 78.0035 175.076 78.4399 175.515C78.8763 175.954 79.1215 176.55 79.1215 177.171C79.1215 177.792 78.8763 178.387 78.4399 178.826C78.0035 179.266 77.4116 179.512 76.7944 179.512C76.1772 179.512 75.5853 179.266 75.1489 178.826C74.7125 178.387 74.4673 177.792 74.4673 177.171C74.4673 176.55 74.7125 175.954 75.1489 175.515C75.5853 175.076 76.1772 174.829 76.7944 174.829ZM64.3832 174.829C65.0004 174.829 65.5923 175.076 66.0287 175.515C66.4651 175.954 66.7103 176.55 66.7103 177.171C66.7103 177.792 66.4651 178.387 66.0287 178.826C65.5923 179.266 65.0004 179.512 64.3832 179.512C63.766 179.512 63.1741 179.266 62.7377 178.826C62.3013 178.387 62.0561 177.792 62.0561 177.171C62.0561 176.55 62.3013 175.954 62.7377 175.515C63.1741 175.076 63.766 174.829 64.3832 174.829ZM51.972 174.829C52.5892 174.829 53.1811 175.076 53.6175 175.515C54.0539 175.954 54.2991 176.55 54.2991 177.171C54.2991 177.792 54.0539 178.387 53.6175 178.826C53.1811 179.266 52.5892 179.512 51.972 179.512C51.3548 179.512 50.7629 179.266 50.3265 178.826C49.89 178.387 49.6449 177.792 49.6449 177.171C49.6449 176.55 49.89 175.954 50.3265 175.515C50.7629 175.076 51.3548 174.829 51.972 174.829ZM39.5607 174.829C40.1779 174.829 40.7698 175.076 41.2063 175.515C41.6427 175.954 41.8879 176.55 41.8879 177.171C41.8879 177.792 41.6427 178.387 41.2063 178.826C40.7698 179.266 40.1779 179.512 39.5607 179.512C38.9436 179.512 38.3517 179.266 37.9152 178.826C37.4788 178.387 37.2336 177.792 37.2336 177.171C37.2336 176.55 37.4788 175.954 37.9152 175.515C38.3517 175.076 38.9436 174.829 39.5607 174.829ZM27.1495 174.829C27.7667 174.829 28.3586 175.076 28.795 175.515C29.2315 175.954 29.4766 176.55 29.4766 177.171C29.4766 177.792 29.2315 178.387 28.795 178.826C28.3586 179.266 27.7667 179.512 27.1495 179.512C26.5323 179.512 25.9404 179.266 25.504 178.826C25.0676 178.387 24.8224 177.792 24.8224 177.171C24.8224 176.55 25.0676 175.954 25.504 175.515C25.9404 175.076 26.5323 174.829 27.1495 174.829ZM14.7383 174.829C15.3555 174.829 15.9474 175.076 16.3838 175.515C16.8202 175.954 17.0654 176.55 17.0654 177.171C17.0654 177.792 16.8202 178.387 16.3838 178.826C15.9474 179.266 15.3555 179.512 14.7383 179.512C14.1211 179.512 13.5292 179.266 13.0928 178.826C12.6564 178.387 12.4112 177.792 12.4112 177.171C12.4112 176.55 12.6564 175.954 13.0928 175.515C13.5292 175.076 14.1211 174.829 14.7383 174.829ZM2.3271 174.829C2.94429 174.829 3.5362 175.076 3.97261 175.515C4.40903 175.954 4.65421 176.55 4.65421 177.171C4.65421 177.792 4.40903 178.387 3.97261 178.826C3.5362 179.266 2.94429 179.512 2.3271 179.512C1.70992 179.512 1.11801 179.266 0.681593 178.826C0.245176 178.387 0 177.792 0 177.171C0 176.55 0.245176 175.954 0.681593 175.515C1.11801 175.076 1.70992 174.829 2.3271 174.829ZM76.7944 162.341C77.4116 162.341 78.0035 162.588 78.4399 163.027C78.8763 163.466 79.1215 164.062 79.1215 164.683C79.1215 165.304 78.8763 165.899 78.4399 166.339C78.0035 166.778 77.4116 167.024 76.7944 167.024C76.1772 167.024 75.5853 166.778 75.1489 166.339C74.7125 165.899 74.4673 165.304 74.4673 164.683C74.4673 164.062 74.7125 163.466 75.1489 163.027C75.5853 162.588 76.1772 162.341 76.7944 162.341ZM64.3832 162.341C65.0004 162.341 65.5923 162.588 66.0287 163.027C66.4651 163.466 66.7103 164.062 66.7103 164.683C66.7103 165.304 66.4651 165.899 66.0287 166.339C65.5923 166.778 65.0004 167.024 64.3832 167.024C63.766 167.024 63.1741 166.778 62.7377 166.339C62.3013 165.899 62.0561 165.304 62.0561 164.683C62.0561 164.062 62.3013 163.466 62.7377 163.027C63.1741 162.588 63.766 162.341 64.3832 162.341ZM51.972 162.341C52.5892 162.341 53.1811 162.588 53.6175 163.027C54.0539 163.466 54.2991 164.062 54.2991 164.683C54.2991 165.304 54.0539 165.899 53.6175 166.339C53.1811 166.778 52.5892 167.024 51.972 167.024C51.3548 167.024 50.7629 166.778 50.3265 166.339C49.89 165.899 49.6449 165.304 49.6449 164.683C49.6449 164.062 49.89 163.466 50.3265 163.027C50.7629 162.588 51.3548 162.341 51.972 162.341ZM39.5607 162.341C40.1779 162.341 40.7698 162.588 41.2063 163.027C41.6427 163.466 41.8879 164.062 41.8879 164.683C41.8879 165.304 41.6427 165.899 41.2063 166.339C40.7698 166.778 40.1779 167.024 39.5607 167.024C38.9436 167.024 38.3517 166.778 37.9152 166.339C37.4788 165.899 37.2336 165.304 37.2336 164.683C37.2336 164.062 37.4788 163.466 37.9152 163.027C38.3517 162.588 38.9436 162.341 39.5607 162.341ZM27.1495 162.341C27.7667 162.341 28.3586 162.588 28.795 163.027C29.2315 163.466 29.4766 164.062 29.4766 164.683C29.4766 165.304 29.2315 165.899 28.795 166.339C28.3586 166.778 27.7667 167.024 27.1495 167.024C26.5323 167.024 25.9404 166.778 25.504 166.339C25.0676 165.899 24.8224 165.304 24.8224 164.683C24.8224 164.062 25.0676 163.466 25.504 163.027C25.9404 162.588 26.5323 162.341 27.1495 162.341ZM14.7383 162.341C15.3555 162.341 15.9474 162.588 16.3838 163.027C16.8202 163.466 17.0654 164.062 17.0654 164.683C17.0654 165.304 16.8202 165.899 16.3838 166.339C15.9474 166.778 15.3555 167.024 14.7383 167.024C14.1211 167.024 13.5292 166.778 13.0928 166.339C12.6564 165.899 12.4112 165.304 12.4112 164.683C12.4112 164.062 12.6564 163.466 13.0928 163.027C13.5292 162.588 14.1211 162.341 14.7383 162.341ZM2.3271 162.341C2.94429 162.341 3.5362 162.588 3.97261 163.027C4.40903 163.466 4.65421 164.062 4.65421 164.683C4.65421 165.304 4.40903 165.899 3.97261 166.339C3.5362 166.778 2.94429 167.024 2.3271 167.024C1.70992 167.024 1.11801 166.778 0.681593 166.339C0.245176 165.899 0 165.304 0 164.683C0 164.062 0.245176 163.466 0.681593 163.027C1.11801 162.588 1.70992 162.341 2.3271 162.341ZM76.7944 149.854C77.4116 149.854 78.0035 150.1 78.4399 150.539C78.8763 150.979 79.1215 151.574 79.1215 152.195C79.1215 152.816 78.8763 153.412 78.4399 153.851C78.0035 154.29 77.4116 154.537 76.7944 154.537C76.1772 154.537 75.5853 154.29 75.1489 153.851C74.7125 153.412 74.4673 152.816 74.4673 152.195C74.4673 151.574 74.7125 150.979 75.1489 150.539C75.5853 150.1 76.1772 149.854 76.7944 149.854ZM64.3832 149.854C65.0004 149.854 65.5923 150.1 66.0287 150.539C66.4651 150.979 66.7103 151.574 66.7103 152.195C66.7103 152.816 66.4651 153.412 66.0287 153.851C65.5923 154.29 65.0004 154.537 64.3832 154.537C63.766 154.537 63.1741 154.29 62.7377 153.851C62.3013 153.412 62.0561 152.816 62.0561 152.195C62.0561 151.574 62.3013 150.979 62.7377 150.539C63.1741 150.1 63.766 149.854 64.3832 149.854ZM51.972 149.854C52.5892 149.854 53.1811 150.1 53.6175 150.539C54.0539 150.979 54.2991 151.574 54.2991 152.195C54.2991 152.816 54.0539 153.412 53.6175 153.851C53.1811 154.29 52.5892 154.537 51.972 154.537C51.3548 154.537 50.7629 154.29 50.3265 153.851C49.89 153.412 49.6449 152.816 49.6449 152.195C49.6449 151.574 49.89 150.979 50.3265 150.539C50.7629 150.1 51.3548 149.854 51.972 149.854ZM39.5607 149.854C40.1779 149.854 40.7698 150.1 41.2063 150.539C41.6427 150.979 41.8879 151.574 41.8879 152.195C41.8879 152.816 41.6427 153.412 41.2063 153.851C40.7698 154.29 40.1779 154.537 39.5607 154.537C38.9436 154.537 38.3517 154.29 37.9152 153.851C37.4788 153.412 37.2336 152.816 37.2336 152.195C37.2336 151.574 37.4788 150.979 37.9152 150.539C38.3517 150.1 38.9436 149.854 39.5607 149.854ZM27.1495 149.854C27.7667 149.854 28.3586 150.1 28.795 150.539C29.2315 150.979 29.4766 151.574 29.4766 152.195C29.4766 152.816 29.2315 153.412 28.795 153.851C28.3586 154.29 27.7667 154.537 27.1495 154.537C26.5323 154.537 25.9404 154.29 25.504 153.851C25.0676 153.412 24.8224 152.816 24.8224 152.195C24.8224 151.574 25.0676 150.979 25.504 150.539C25.9404 150.1 26.5323 149.854 27.1495 149.854ZM14.7383 149.854C15.3555 149.854 15.9474 150.1 16.3838 150.539C16.8202 150.979 17.0654 151.574 17.0654 152.195C17.0654 152.816 16.8202 153.412 16.3838 153.851C15.9474 154.29 15.3555 154.537 14.7383 154.537C14.1211 154.537 13.5292 154.29 13.0928 153.851C12.6564 153.412 12.4112 152.816 12.4112 152.195C12.4112 151.574 12.6564 150.979 13.0928 150.539C13.5292 150.1 14.1211 149.854 14.7383 149.854ZM2.3271 149.854C2.94429 149.854 3.5362 150.1 3.97261 150.539C4.40903 150.979 4.65421 151.574 4.65421 152.195C4.65421 152.816 4.40903 153.412 3.97261 153.851C3.5362 154.29 2.94429 154.537 2.3271 154.537C1.70992 154.537 1.11801 154.29 0.681593 153.851C0.245176 153.412 0 152.816 0 152.195C0 151.574 0.245176 150.979 0.681593 150.539C1.11801 150.1 1.70992 149.854 2.3271 149.854ZM76.7944 137.366C77.4116 137.366 78.0035 137.613 78.4399 138.052C78.8763 138.491 79.1215 139.086 79.1215 139.707C79.1215 140.328 78.8763 140.924 78.4399 141.363C78.0035 141.802 77.4116 142.049 76.7944 142.049C76.1772 142.049 75.5853 141.802 75.1489 141.363C74.7125 140.924 74.4673 140.328 74.4673 139.707C74.4673 139.086 74.7125 138.491 75.1489 138.052C75.5853 137.613 76.1772 137.366 76.7944 137.366ZM64.3832 137.366C65.0004 137.366 65.5923 137.613 66.0287 138.052C66.4651 138.491 66.7103 139.086 66.7103 139.707C66.7103 140.328 66.4651 140.924 66.0287 141.363C65.5923 141.802 65.0004 142.049 64.3832 142.049C63.766 142.049 63.1741 141.802 62.7377 141.363C62.3013 140.924 62.0561 140.328 62.0561 139.707C62.0561 139.086 62.3013 138.491 62.7377 138.052C63.1741 137.613 63.766 137.366 64.3832 137.366ZM51.972 137.366C52.5892 137.366 53.1811 137.613 53.6175 138.052C54.0539 138.491 54.2991 139.086 54.2991 139.707C54.2991 140.328 54.0539 140.924 53.6175 141.363C53.1811 141.802 52.5892 142.049 51.972 142.049C51.3548 142.049 50.7629 141.802 50.3265 141.363C49.89 140.924 49.6449 140.328 49.6449 139.707C49.6449 139.086 49.89 138.491 50.3265 138.052C50.7629 137.613 51.3548 137.366 51.972 137.366ZM39.5607 137.366C40.1779 137.366 40.7698 137.613 41.2063 138.052C41.6427 138.491 41.8879 139.086 41.8879 139.707C41.8879 140.328 41.6427 140.924 41.2063 141.363C40.7698 141.802 40.1779 142.049 39.5607 142.049C38.9436 142.049 38.3517 141.802 37.9152 141.363C37.4788 140.924 37.2336 140.328 37.2336 139.707C37.2336 139.086 37.4788 138.491 37.9152 138.052C38.3517 137.613 38.9436 137.366 39.5607 137.366ZM27.1495 137.366C27.7667 137.366 28.3586 137.613 28.795 138.052C29.2315 138.491 29.4766 139.086 29.4766 139.707C29.4766 140.328 29.2315 140.924 28.795 141.363C28.3586 141.802 27.7667 142.049 27.1495 142.049C26.5323 142.049 25.9404 141.802 25.504 141.363C25.0676 140.924 24.8224 140.328 24.8224 139.707C24.8224 139.086 25.0676 138.491 25.504 138.052C25.9404 137.613 26.5323 137.366 27.1495 137.366ZM14.7383 137.366C15.3555 137.366 15.9474 137.613 16.3838 138.052C16.8202 138.491 17.0654 139.086 17.0654 139.707C17.0654 140.328 16.8202 140.924 16.3838 141.363C15.9474 141.802 15.3555 142.049 14.7383 142.049C14.1211 142.049 13.5292 141.802 13.0928 141.363C12.6564 140.924 12.4112 140.328 12.4112 139.707C12.4112 139.086 12.6564 138.491 13.0928 138.052C13.5292 137.613 14.1211 137.366 14.7383 137.366ZM2.3271 137.366C2.94429 137.366 3.5362 137.613 3.97261 138.052C4.40903 138.491 4.65421 139.086 4.65421 139.707C4.65421 140.328 4.40903 140.924 3.97261 141.363C3.5362 141.802 2.94429 142.049 2.3271 142.049C1.70992 142.049 1.11801 141.802 0.681593 141.363C0.245176 140.924 0 140.328 0 139.707C0 139.086 0.245176 138.491 0.681593 138.052C1.11801 137.613 1.70992 137.366 2.3271 137.366ZM76.7944 124.878C77.4116 124.878 78.0035 125.125 78.4399 125.564C78.8763 126.003 79.1215 126.599 79.1215 127.22C79.1215 127.841 78.8763 128.436 78.4399 128.875C78.0035 129.314 77.4116 129.561 76.7944 129.561C76.1772 129.561 75.5853 129.314 75.1489 128.875C74.7125 128.436 74.4673 127.841 74.4673 127.22C74.4673 126.599 74.7125 126.003 75.1489 125.564C75.5853 125.125 76.1772 124.878 76.7944 124.878ZM64.3832 124.878C65.0004 124.878 65.5923 125.125 66.0287 125.564C66.4651 126.003 66.7103 126.599 66.7103 127.22C66.7103 127.841 66.4651 128.436 66.0287 128.875C65.5923 129.314 65.0004 129.561 64.3832 129.561C63.766 129.561 63.1741 129.314 62.7377 128.875C62.3013 128.436 62.0561 127.841 62.0561 127.22C62.0561 126.599 62.3013 126.003 62.7377 125.564C63.1741 125.125 63.766 124.878 64.3832 124.878ZM51.972 124.878C52.5892 124.878 53.1811 125.125 53.6175 125.564C54.0539 126.003 54.2991 126.599 54.2991 127.22C54.2991 127.841 54.0539 128.436 53.6175 128.875C53.1811 129.314 52.5892 129.561 51.972 129.561C51.3548 129.561 50.7629 129.314 50.3265 128.875C49.89 128.436 49.6449 127.841 49.6449 127.22C49.6449 126.599 49.89 126.003 50.3265 125.564C50.7629 125.125 51.3548 124.878 51.972 124.878ZM39.5607 124.878C40.1779 124.878 40.7698 125.125 41.2063 125.564C41.6427 126.003 41.8879 126.599 41.8879 127.22C41.8879 127.841 41.6427 128.436 41.2063 128.875C40.7698 129.314 40.1779 129.561 39.5607 129.561C38.9436 129.561 38.3517 129.314 37.9152 128.875C37.4788 128.436 37.2336 127.841 37.2336 127.22C37.2336 126.599 37.4788 126.003 37.9152 125.564C38.3517 125.125 38.9436 124.878 39.5607 124.878ZM27.1495 124.878C27.7667 124.878 28.3586 125.125 28.795 125.564C29.2315 126.003 29.4766 126.599 29.4766 127.22C29.4766 127.841 29.2315 128.436 28.795 128.875C28.3586 129.314 27.7667 129.561 27.1495 129.561C26.5323 129.561 25.9404 129.314 25.504 128.875C25.0676 128.436 24.8224 127.841 24.8224 127.22C24.8224 126.599 25.0676 126.003 25.504 125.564C25.9404 125.125 26.5323 124.878 27.1495 124.878ZM14.7383 124.878C15.3555 124.878 15.9474 125.125 16.3838 125.564C16.8202 126.003 17.0654 126.599 17.0654 127.22C17.0654 127.841 16.8202 128.436 16.3838 128.875C15.9474 129.314 15.3555 129.561 14.7383 129.561C14.1211 129.561 13.5292 129.314 13.0928 128.875C12.6564 128.436 12.4112 127.841 12.4112 127.22C12.4112 126.599 12.6564 126.003 13.0928 125.564C13.5292 125.125 14.1211 124.878 14.7383 124.878ZM2.3271 124.878C2.94429 124.878 3.5362 125.125 3.97261 125.564C4.40903 126.003 4.65421 126.599 4.65421 127.22C4.65421 127.841 4.40903 128.436 3.97261 128.875C3.5362 129.314 2.94429 129.561 2.3271 129.561C1.70992 129.561 1.11801 129.314 0.681593 128.875C0.245176 128.436 0 127.841 0 127.22C0 126.599 0.245176 126.003 0.681593 125.564C1.11801 125.125 1.70992 124.878 2.3271 124.878ZM76.7944 112.39C77.4116 112.39 78.0035 112.637 78.4399 113.076C78.8763 113.515 79.1215 114.111 79.1215 114.732C79.1215 115.353 78.8763 115.948 78.4399 116.387C78.0035 116.826 77.4116 117.073 76.7944 117.073C76.1772 117.073 75.5853 116.826 75.1489 116.387C74.7125 115.948 74.4673 115.353 74.4673 114.732C74.4673 114.111 74.7125 113.515 75.1489 113.076C75.5853 112.637 76.1772 112.39 76.7944 112.39ZM64.3832 112.39C65.0004 112.39 65.5923 112.637 66.0287 113.076C66.4651 113.515 66.7103 114.111 66.7103 114.732C66.7103 115.353 66.4651 115.948 66.0287 116.387C65.5923 116.826 65.0004 117.073 64.3832 117.073C63.766 117.073 63.1741 116.826 62.7377 116.387C62.3013 115.948 62.0561 115.353 62.0561 114.732C62.0561 114.111 62.3013 113.515 62.7377 113.076C63.1741 112.637 63.766 112.39 64.3832 112.39ZM51.972 112.39C52.5892 112.39 53.1811 112.637 53.6175 113.076C54.0539 113.515 54.2991 114.111 54.2991 114.732C54.2991 115.353 54.0539 115.948 53.6175 116.387C53.1811 116.826 52.5892 117.073 51.972 117.073C51.3548 117.073 50.7629 116.826 50.3265 116.387C49.89 115.948 49.6449 115.353 49.6449 114.732C49.6449 114.111 49.89 113.515 50.3265 113.076C50.7629 112.637 51.3548 112.39 51.972 112.39ZM39.5607 112.39C40.1779 112.39 40.7698 112.637 41.2063 113.076C41.6427 113.515 41.8879 114.111 41.8879 114.732C41.8879 115.353 41.6427 115.948 41.2063 116.387C40.7698 116.826 40.1779 117.073 39.5607 117.073C38.9436 117.073 38.3517 116.826 37.9152 116.387C37.4788 115.948 37.2336 115.353 37.2336 114.732C37.2336 114.111 37.4788 113.515 37.9152 113.076C38.3517 112.637 38.9436 112.39 39.5607 112.39ZM27.1495 112.39C27.7667 112.39 28.3586 112.637 28.795 113.076C29.2315 113.515 29.4766 114.111 29.4766 114.732C29.4766 115.353 29.2315 115.948 28.795 116.387C28.3586 116.826 27.7667 117.073 27.1495 117.073C26.5323 117.073 25.9404 116.826 25.504 116.387C25.0676 115.948 24.8224 115.353 24.8224 114.732C24.8224 114.111 25.0676 113.515 25.504 113.076C25.9404 112.637 26.5323 112.39 27.1495 112.39ZM14.7383 112.39C15.3555 112.39 15.9474 112.637 16.3838 113.076C16.8202 113.515 17.0654 114.111 17.0654 114.732C17.0654 115.353 16.8202 115.948 16.3838 116.387C15.9474 116.826 15.3555 117.073 14.7383 117.073C14.1211 117.073 13.5292 116.826 13.0928 116.387C12.6564 115.948 12.4112 115.353 12.4112 114.732C12.4112 114.111 12.6564 113.515 13.0928 113.076C13.5292 112.637 14.1211 112.39 14.7383 112.39ZM2.3271 112.39C2.94429 112.39 3.5362 112.637 3.97261 113.076C4.40903 113.515 4.65421 114.111 4.65421 114.732C4.65421 115.353 4.40903 115.948 3.97261 116.387C3.5362 116.826 2.94429 117.073 2.3271 117.073C1.70992 117.073 1.11801 116.826 0.681593 116.387C0.245176 115.948 0 115.353 0 114.732C0 114.111 0.245176 113.515 0.681593 113.076C1.11801 112.637 1.70992 112.39 2.3271 112.39ZM76.7944 99.9024C77.4116 99.9024 78.0035 100.149 78.4399 100.588C78.8763 101.027 79.1215 101.623 79.1215 102.244C79.1215 102.865 78.8763 103.46 78.4399 103.9C78.0035 104.339 77.4116 104.585 76.7944 104.585C76.1772 104.585 75.5853 104.339 75.1489 103.9C74.7125 103.46 74.4673 102.865 74.4673 102.244C74.4673 101.623 74.7125 101.027 75.1489 100.588C75.5853 100.149 76.1772 99.9024 76.7944 99.9024V99.9024ZM64.3832 99.9024C65.0004 99.9024 65.5923 100.149 66.0287 100.588C66.4651 101.027 66.7103 101.623 66.7103 102.244C66.7103 102.865 66.4651 103.46 66.0287 103.9C65.5923 104.339 65.0004 104.585 64.3832 104.585C63.766 104.585 63.1741 104.339 62.7377 103.9C62.3013 103.46 62.0561 102.865 62.0561 102.244C62.0561 101.623 62.3013 101.027 62.7377 100.588C63.1741 100.149 63.766 99.9024 64.3832 99.9024V99.9024ZM51.972 99.9024C52.5892 99.9024 53.1811 100.149 53.6175 100.588C54.0539 101.027 54.2991 101.623 54.2991 102.244C54.2991 102.865 54.0539 103.46 53.6175 103.9C53.1811 104.339 52.5892 104.585 51.972 104.585C51.3548 104.585 50.7629 104.339 50.3265 103.9C49.89 103.46 49.6449 102.865 49.6449 102.244C49.6449 101.623 49.89 101.027 50.3265 100.588C50.7629 100.149 51.3548 99.9024 51.972 99.9024V99.9024ZM39.5607 99.9024C40.1779 99.9024 40.7698 100.149 41.2063 100.588C41.6427 101.027 41.8879 101.623 41.8879 102.244C41.8879 102.865 41.6427 103.46 41.2063 103.9C40.7698 104.339 40.1779 104.585 39.5607 104.585C38.9436 104.585 38.3517 104.339 37.9152 103.9C37.4788 103.46 37.2336 102.865 37.2336 102.244C37.2336 101.623 37.4788 101.027 37.9152 100.588C38.3517 100.149 38.9436 99.9024 39.5607 99.9024V99.9024ZM27.1495 99.9024C27.7667 99.9024 28.3586 100.149 28.795 100.588C29.2315 101.027 29.4766 101.623 29.4766 102.244C29.4766 102.865 29.2315 103.46 28.795 103.9C28.3586 104.339 27.7667 104.585 27.1495 104.585C26.5323 104.585 25.9404 104.339 25.504 103.9C25.0676 103.46 24.8224 102.865 24.8224 102.244C24.8224 101.623 25.0676 101.027 25.504 100.588C25.9404 100.149 26.5323 99.9024 27.1495 99.9024V99.9024ZM14.7383 99.9024C15.3555 99.9024 15.9474 100.149 16.3838 100.588C16.8202 101.027 17.0654 101.623 17.0654 102.244C17.0654 102.865 16.8202 103.46 16.3838 103.9C15.9474 104.339 15.3555 104.585 14.7383 104.585C14.1211 104.585 13.5292 104.339 13.0928 103.9C12.6564 103.46 12.4112 102.865 12.4112 102.244C12.4112 101.623 12.6564 101.027 13.0928 100.588C13.5292 100.149 14.1211 99.9024 14.7383 99.9024V99.9024ZM2.3271 99.9024C2.94429 99.9024 3.5362 100.149 3.97261 100.588C4.40903 101.027 4.65421 101.623 4.65421 102.244C4.65421 102.865 4.40903 103.46 3.97261 103.9C3.5362 104.339 2.94429 104.585 2.3271 104.585C1.70992 104.585 1.11801 104.339 0.681593 103.9C0.245176 103.46 0 102.865 0 102.244C0 101.623 0.245176 101.027 0.681593 100.588C1.11801 100.149 1.70992 99.9024 2.3271 99.9024V99.9024Z" fill="#F9FAFB"/>
<path fill-rule="evenodd" clip-rule="evenodd" d="M163.673 87.4146C164.29 87.4146 164.882 87.6613 165.318 88.1004C165.755 88.5395 166 89.1351 166 89.7561C166 90.3771 165.755 90.9726 165.318 91.4118C164.882 91.8509 164.29 92.0976 163.673 92.0976C163.056 92.0976 162.464 91.8509 162.027 91.4118C161.591 90.9726 161.346 90.3771 161.346 89.7561C161.346 89.1351 161.591 88.5395 162.027 88.1004C162.464 87.6613 163.056 87.4146 163.673 87.4146ZM151.262 87.4146C151.879 87.4146 152.471 87.6613 152.907 88.1004C153.344 88.5395 153.589 89.1351 153.589 89.7561C153.589 90.3771 153.344 90.9726 152.907 91.4118C152.471 91.8509 151.879 92.0976 151.262 92.0976C150.644 92.0976 150.052 91.8509 149.616 91.4118C149.18 90.9726 148.934 90.3771 148.934 89.7561C148.934 89.1351 149.18 88.5395 149.616 88.1004C150.052 87.6613 150.644 87.4146 151.262 87.4146ZM138.85 87.4146C139.468 87.4146 140.059 87.6613 140.496 88.1004C140.932 88.5395 141.177 89.1351 141.177 89.7561C141.177 90.3771 140.932 90.9726 140.496 91.4118C140.059 91.8509 139.468 92.0976 138.85 92.0976C138.233 92.0976 137.641 91.8509 137.205 91.4118C136.768 90.9726 136.523 90.3771 136.523 89.7561C136.523 89.1351 136.768 88.5395 137.205 88.1004C137.641 87.6613 138.233 87.4146 138.85 87.4146ZM126.439 87.4146C127.056 87.4146 127.648 87.6613 128.085 88.1004C128.521 88.5395 128.766 89.1351 128.766 89.7561C128.766 90.3771 128.521 90.9726 128.085 91.4118C127.648 91.8509 127.056 92.0976 126.439 92.0976C125.822 92.0976 125.23 91.8509 124.794 91.4118C124.357 90.9726 124.112 90.3771 124.112 89.7561C124.112 89.1351 124.357 88.5395 124.794 88.1004C125.23 87.6613 125.822 87.4146 126.439 87.4146ZM114.028 87.4146C114.645 87.4146 115.237 87.6613 115.673 88.1004C116.11 88.5395 116.355 89.1351 116.355 89.7561C116.355 90.3771 116.11 90.9726 115.673 91.4118C115.237 91.8509 114.645 92.0976 114.028 92.0976C113.411 92.0976 112.819 91.8509 112.382 91.4118C111.946 90.9726 111.701 90.3771 111.701 89.7561C111.701 89.1351 111.946 88.5395 112.382 88.1004C112.819 87.6613 113.411 87.4146 114.028 87.4146ZM101.617 87.4146C102.234 87.4146 102.826 87.6613 103.262 88.1004C103.699 88.5395 103.944 89.1351 103.944 89.7561C103.944 90.3771 103.699 90.9726 103.262 91.4118C102.826 91.8509 102.234 92.0976 101.617 92.0976C101 92.0976 100.408 91.8509 99.9712 91.4118C99.5348 90.9726 99.2896 90.3771 99.2896 89.7561C99.2896 89.1351 99.5348 88.5395 99.9712 88.1004C100.408 87.6613 101 87.4146 101.617 87.4146ZM89.2055 87.4146C89.8227 87.4146 90.4146 87.6613 90.851 88.1004C91.2874 88.5395 91.5326 89.1351 91.5326 89.7561C91.5326 90.3771 91.2874 90.9726 90.851 91.4118C90.4146 91.8509 89.8227 92.0976 89.2055 92.0976C88.5883 92.0976 87.9964 91.8509 87.56 91.4118C87.1236 90.9726 86.8784 90.3771 86.8784 89.7561C86.8784 89.1351 87.1236 88.5395 87.56 88.1004C87.9964 87.6613 88.5883 87.4146 89.2055 87.4146ZM163.673 74.9268C164.29 74.9268 164.882 75.1735 165.318 75.6126C165.755 76.0517 166 76.6473 166 77.2683C166 77.8893 165.755 78.4848 165.318 78.924C164.882 79.3631 164.29 79.6098 163.673 79.6098C163.056 79.6098 162.464 79.3631 162.027 78.924C161.591 78.4848 161.346 77.8893 161.346 77.2683C161.346 76.6473 161.591 76.0517 162.027 75.6126C162.464 75.1735 163.056 74.9268 163.673 74.9268ZM151.262 74.9268C151.879 74.9268 152.471 75.1735 152.907 75.6126C153.344 76.0517 153.589 76.6473 153.589 77.2683C153.589 77.8893 153.344 78.4848 152.907 78.924C152.471 79.3631 151.879 79.6098 151.262 79.6098C150.644 79.6098 150.052 79.3631 149.616 78.924C149.18 78.4848 148.934 77.8893 148.934 77.2683C148.934 76.6473 149.18 76.0517 149.616 75.6126C150.052 75.1735 150.644 74.9268 151.262 74.9268ZM138.85 74.9268C139.468 74.9268 140.059 75.1735 140.496 75.6126C140.932 76.0517 141.177 76.6473 141.177 77.2683C141.177 77.8893 140.932 78.4848 140.496 78.924C140.059 79.3631 139.468 79.6098 138.85 79.6098C138.233 79.6098 137.641 79.3631 137.205 78.924C136.768 78.4848 136.523 77.8893 136.523 77.2683C136.523 76.6473 136.768 76.0517 137.205 75.6126C137.641 75.1735 138.233 74.9268 138.85 74.9268ZM126.439 74.9268C127.056 74.9268 127.648 75.1735 128.085 75.6126C128.521 76.0517 128.766 76.6473 128.766 77.2683C128.766 77.8893 128.521 78.4848 128.085 78.924C127.648 79.3631 127.056 79.6098 126.439 79.6098C125.822 79.6098 125.23 79.3631 124.794 78.924C124.357 78.4848 124.112 77.8893 124.112 77.2683C124.112 76.6473 124.357 76.0517 124.794 75.6126C125.23 75.1735 125.822 74.9268 126.439 74.9268ZM114.028 74.9268C114.645 74.9268 115.237 75.1735 115.673 75.6126C116.11 76.0517 116.355 76.6473 116.355 77.2683C116.355 77.8893 116.11 78.4848 115.673 78.924C115.237 79.3631 114.645 79.6098 114.028 79.6098C113.411 79.6098 112.819 79.3631 112.382 78.924C111.946 78.4848 111.701 77.8893 111.701 77.2683C111.701 76.6473 111.946 76.0517 112.382 75.6126C112.819 75.1735 113.411 74.9268 114.028 74.9268ZM101.617 74.9268C102.234 74.9268 102.826 75.1735 103.262 75.6126C103.699 76.0517 103.944 76.6473 103.944 77.2683C103.944 77.8893 103.699 78.4848 103.262 78.924C102.826 79.3631 102.234 79.6098 101.617 79.6098C101 79.6098 100.408 79.3631 99.9712 78.924C99.5348 78.4848 99.2896 77.8893 99.2896 77.2683C99.2896 76.6473 99.5348 76.0517 99.9712 75.6126C100.408 75.1735 101 74.9268 101.617 74.9268ZM89.2055 74.9268C89.8227 74.9268 90.4146 75.1735 90.851 75.6126C91.2874 76.0517 91.5326 76.6473 91.5326 77.2683C91.5326 77.8893 91.2874 78.4848 90.851 78.924C90.4146 79.3631 89.8227 79.6098 89.2055 79.6098C88.5883 79.6098 87.9964 79.3631 87.56 78.924C87.1236 78.4848 86.8784 77.8893 86.8784 77.2683C86.8784 76.6473 87.1236 76.0517 87.56 75.6126C87.9964 75.1735 88.5883 74.9268 89.2055 74.9268ZM163.673 62.439C164.29 62.439 164.882 62.6857 165.318 63.1248C165.755 63.5639 166 64.1595 166 64.7805C166 65.4015 165.755 65.997 165.318 66.4361C164.882 66.8753 164.29 67.1219 163.673 67.1219C163.056 67.1219 162.464 66.8753 162.027 66.4361C161.591 65.997 161.346 65.4015 161.346 64.7805C161.346 64.1595 161.591 63.5639 162.027 63.1248C162.464 62.6857 163.056 62.439 163.673 62.439ZM151.262 62.439C151.879 62.439 152.471 62.6857 152.907 63.1248C153.344 63.5639 153.589 64.1595 153.589 64.7805C153.589 65.4015 153.344 65.997 152.907 66.4361C152.471 66.8753 151.879 67.1219 151.262 67.1219C150.644 67.1219 150.052 66.8753 149.616 66.4361C149.18 65.997 148.934 65.4015 148.934 64.7805C148.934 64.1595 149.18 63.5639 149.616 63.1248C150.052 62.6857 150.644 62.439 151.262 62.439ZM138.85 62.439C139.468 62.439 140.059 62.6857 140.496 63.1248C140.932 63.5639 141.177 64.1595 141.177 64.7805C141.177 65.4015 140.932 65.997 140.496 66.4361C140.059 66.8753 139.468 67.1219 138.85 67.1219C138.233 67.1219 137.641 66.8753 137.205 66.4361C136.768 65.997 136.523 65.4015 136.523 64.7805C136.523 64.1595 136.768 63.5639 137.205 63.1248C137.641 62.6857 138.233 62.439 138.85 62.439ZM126.439 62.439C127.056 62.439 127.648 62.6857 128.085 63.1248C128.521 63.5639 128.766 64.1595 128.766 64.7805C128.766 65.4015 128.521 65.997 128.085 66.4361C127.648 66.8753 127.056 67.1219 126.439 67.1219C125.822 67.1219 125.23 66.8753 124.794 66.4361C124.357 65.997 124.112 65.4015 124.112 64.7805C124.112 64.1595 124.357 63.5639 124.794 63.1248C125.23 62.6857 125.822 62.439 126.439 62.439ZM114.028 62.439C114.645 62.439 115.237 62.6857 115.673 63.1248C116.11 63.5639 116.355 64.1595 116.355 64.7805C116.355 65.4015 116.11 65.997 115.673 66.4361C115.237 66.8753 114.645 67.1219 114.028 67.1219C113.411 67.1219 112.819 66.8753 112.382 66.4361C111.946 65.997 111.701 65.4015 111.701 64.7805C111.701 64.1595 111.946 63.5639 112.382 63.1248C112.819 62.6857 113.411 62.439 114.028 62.439ZM101.617 62.439C102.234 62.439 102.826 62.6857 103.262 63.1248C103.699 63.5639 103.944 64.1595 103.944 64.7805C103.944 65.4015 103.699 65.997 103.262 66.4361C102.826 66.8753 102.234 67.1219 101.617 67.1219C101 67.1219 100.408 66.8753 99.9712 66.4361C99.5348 65.997 99.2896 65.4015 99.2896 64.7805C99.2896 64.1595 99.5348 63.5639 99.9712 63.1248C100.408 62.6857 101 62.439 101.617 62.439ZM89.2055 62.439C89.8227 62.439 90.4146 62.6857 90.851 63.1248C91.2874 63.5639 91.5326 64.1595 91.5326 64.7805C91.5326 65.4015 91.2874 65.997 90.851 66.4361C90.4146 66.8753 89.8227 67.1219 89.2055 67.1219C88.5883 67.1219 87.9964 66.8753 87.56 66.4361C87.1236 65.997 86.8784 65.4015 86.8784 64.7805C86.8784 64.1595 87.1236 63.5639 87.56 63.1248C87.9964 62.6857 88.5883 62.439 89.2055 62.439ZM163.673 49.9512C164.29 49.9512 164.882 50.1979 165.318 50.637C165.755 51.0761 166 51.6717 166 52.2927C166 52.9137 165.755 53.5092 165.318 53.9483C164.882 54.3875 164.29 54.6341 163.673 54.6341C163.056 54.6341 162.464 54.3875 162.027 53.9483C161.591 53.5092 161.346 52.9137 161.346 52.2927C161.346 51.6717 161.591 51.0761 162.027 50.637C162.464 50.1979 163.056 49.9512 163.673 49.9512ZM151.262 49.9512C151.879 49.9512 152.471 50.1979 152.907 50.637C153.344 51.0761 153.589 51.6717 153.589 52.2927C153.589 52.9137 153.344 53.5092 152.907 53.9483C152.471 54.3875 151.879 54.6341 151.262 54.6341C150.644 54.6341 150.052 54.3875 149.616 53.9483C149.18 53.5092 148.934 52.9137 148.934 52.2927C148.934 51.6717 149.18 51.0761 149.616 50.637C150.052 50.1979 150.644 49.9512 151.262 49.9512ZM138.85 49.9512C139.468 49.9512 140.059 50.1979 140.496 50.637C140.932 51.0761 141.177 51.6717 141.177 52.2927C141.177 52.9137 140.932 53.5092 140.496 53.9483C140.059 54.3875 139.468 54.6341 138.85 54.6341C138.233 54.6341 137.641 54.3875 137.205 53.9483C136.768 53.5092 136.523 52.9137 136.523 52.2927C136.523 51.6717 136.768 51.0761 137.205 50.637C137.641 50.1979 138.233 49.9512 138.85 49.9512ZM126.439 49.9512C127.056 49.9512 127.648 50.1979 128.085 50.637C128.521 51.0761 128.766 51.6717 128.766 52.2927C128.766 52.9137 128.521 53.5092 128.085 53.9483C127.648 54.3875 127.056 54.6341 126.439 54.6341C125.822 54.6341 125.23 54.3875 124.794 53.9483C124.357 53.5092 124.112 52.9137 124.112 52.2927C124.112 51.6717 124.357 51.0761 124.794 50.637C125.23 50.1979 125.822 49.9512 126.439 49.9512ZM114.028 49.9512C114.645 49.9512 115.237 50.1979 115.673 50.637C116.11 51.0761 116.355 51.6717 116.355 52.2927C116.355 52.9137 116.11 53.5092 115.673 53.9483C115.237 54.3875 114.645 54.6341 114.028 54.6341C113.411 54.6341 112.819 54.3875 112.382 53.9483C111.946 53.5092 111.701 52.9137 111.701 52.2927C111.701 51.6717 111.946 51.0761 112.382 50.637C112.819 50.1979 113.411 49.9512 114.028 49.9512ZM101.617 49.9512C102.234 49.9512 102.826 50.1979 103.262 50.637C103.699 51.0761 103.944 51.6717 103.944 52.2927C103.944 52.9137 103.699 53.5092 103.262 53.9483C102.826 54.3875 102.234 54.6341 101.617 54.6341C101 54.6341 100.408 54.3875 99.9712 53.9483C99.5348 53.5092 99.2896 52.9137 99.2896 52.2927C99.2896 51.6717 99.5348 51.0761 99.9712 50.637C100.408 50.1979 101 49.9512 101.617 49.9512ZM89.2055 49.9512C89.8227 49.9512 90.4146 50.1979 90.851 50.637C91.2874 51.0761 91.5326 51.6717 91.5326 52.2927C91.5326 52.9137 91.2874 53.5092 90.851 53.9483C90.4146 54.3875 89.8227 54.6341 89.2055 54.6341C88.5883 54.6341 87.9964 54.3875 87.56 53.9483C87.1236 53.5092 86.8784 52.9137 86.8784 52.2927C86.8784 51.6717 87.1236 51.0761 87.56 50.637C87.9964 50.1979 88.5883 49.9512 89.2055 49.9512ZM163.673 37.4634C164.29 37.4634 164.882 37.7101 165.318 38.1492C165.755 38.5883 166 39.1839 166 39.8049C166 40.4259 165.755 41.0214 165.318 41.4605C164.882 41.8997 164.29 42.1463 163.673 42.1463C163.056 42.1463 162.464 41.8997 162.027 41.4605C161.591 41.0214 161.346 40.4259 161.346 39.8049C161.346 39.1839 161.591 38.5883 162.027 38.1492C162.464 37.7101 163.056 37.4634 163.673 37.4634ZM151.262 37.4634C151.879 37.4634 152.471 37.7101 152.907 38.1492C153.344 38.5883 153.589 39.1839 153.589 39.8049C153.589 40.4259 153.344 41.0214 152.907 41.4605C152.471 41.8997 151.879 42.1463 151.262 42.1463C150.644 42.1463 150.052 41.8997 149.616 41.4605C149.18 41.0214 148.934 40.4259 148.934 39.8049C148.934 39.1839 149.18 38.5883 149.616 38.1492C150.052 37.7101 150.644 37.4634 151.262 37.4634ZM138.85 37.4634C139.468 37.4634 140.059 37.7101 140.496 38.1492C140.932 38.5883 141.177 39.1839 141.177 39.8049C141.177 40.4259 140.932 41.0214 140.496 41.4605C140.059 41.8997 139.468 42.1463 138.85 42.1463C138.233 42.1463 137.641 41.8997 137.205 41.4605C136.768 41.0214 136.523 40.4259 136.523 39.8049C136.523 39.1839 136.768 38.5883 137.205 38.1492C137.641 37.7101 138.233 37.4634 138.85 37.4634ZM126.439 37.4634C127.056 37.4634 127.648 37.7101 128.085 38.1492C128.521 38.5883 128.766 39.1839 128.766 39.8049C128.766 40.4259 128.521 41.0214 128.085 41.4605C127.648 41.8997 127.056 42.1463 126.439 42.1463C125.822 42.1463 125.23 41.8997 124.794 41.4605C124.357 41.0214 124.112 40.4259 124.112 39.8049C124.112 39.1839 124.357 38.5883 124.794 38.1492C125.23 37.7101 125.822 37.4634 126.439 37.4634ZM114.028 37.4634C114.645 37.4634 115.237 37.7101 115.673 38.1492C116.11 38.5883 116.355 39.1839 116.355 39.8049C116.355 40.4259 116.11 41.0214 115.673 41.4605C115.237 41.8997 114.645 42.1463 114.028 42.1463C113.411 42.1463 112.819 41.8997 112.382 41.4605C111.946 41.0214 111.701 40.4259 111.701 39.8049C111.701 39.1839 111.946 38.5883 112.382 38.1492C112.819 37.7101 113.411 37.4634 114.028 37.4634ZM101.617 37.4634C102.234 37.4634 102.826 37.7101 103.262 38.1492C103.699 38.5883 103.944 39.1839 103.944 39.8049C103.944 40.4259 103.699 41.0214 103.262 41.4605C102.826 41.8997 102.234 42.1463 101.617 42.1463C101 42.1463 100.408 41.8997 99.9712 41.4605C99.5348 41.0214 99.2896 40.4259 99.2896 39.8049C99.2896 39.1839 99.5348 38.5883 99.9712 38.1492C100.408 37.7101 101 37.4634 101.617 37.4634ZM89.2055 37.4634C89.8227 37.4634 90.4146 37.7101 90.851 38.1492C91.2874 38.5883 91.5326 39.1839 91.5326 39.8049C91.5326 40.4259 91.2874 41.0214 90.851 41.4605C90.4146 41.8997 89.8227 42.1463 89.2055 42.1463C88.5883 42.1463 87.9964 41.8997 87.56 41.4605C87.1236 41.0214 86.8784 40.4259 86.8784 39.8049C86.8784 39.1839 87.1236 38.5883 87.56 38.1492C87.9964 37.7101 88.5883 37.4634 89.2055 37.4634ZM163.673 24.9756C164.29 24.9756 164.882 25.2223 165.318 25.6614C165.755 26.1005 166 26.6961 166 27.3171C166 27.9381 165.755 28.5336 165.318 28.9727C164.882 29.4118 164.29 29.6585 163.673 29.6585C163.056 29.6585 162.464 29.4118 162.027 28.9727C161.591 28.5336 161.346 27.9381 161.346 27.3171C161.346 26.6961 161.591 26.1005 162.027 25.6614C162.464 25.2223 163.056 24.9756 163.673 24.9756ZM151.262 24.9756C151.879 24.9756 152.471 25.2223 152.907 25.6614C153.344 26.1005 153.589 26.6961 153.589 27.3171C153.589 27.9381 153.344 28.5336 152.907 28.9727C152.471 29.4118 151.879 29.6585 151.262 29.6585C150.644 29.6585 150.052 29.4118 149.616 28.9727C149.18 28.5336 148.934 27.9381 148.934 27.3171C148.934 26.6961 149.18 26.1005 149.616 25.6614C150.052 25.2223 150.644 24.9756 151.262 24.9756ZM138.85 24.9756C139.468 24.9756 140.059 25.2223 140.496 25.6614C140.932 26.1005 141.177 26.6961 141.177 27.3171C141.177 27.9381 140.932 28.5336 140.496 28.9727C140.059 29.4118 139.468 29.6585 138.85 29.6585C138.233 29.6585 137.641 29.4118 137.205 28.9727C136.768 28.5336 136.523 27.9381 136.523 27.3171C136.523 26.6961 136.768 26.1005 137.205 25.6614C137.641 25.2223 138.233 24.9756 138.85 24.9756ZM126.439 24.9756C127.056 24.9756 127.648 25.2223 128.085 25.6614C128.521 26.1005 128.766 26.6961 128.766 27.3171C128.766 27.9381 128.521 28.5336 128.085 28.9727C127.648 29.4118 127.056 29.6585 126.439 29.6585C125.822 29.6585 125.23 29.4118 124.794 28.9727C124.357 28.5336 124.112 27.9381 124.112 27.3171C124.112 26.6961 124.357 26.1005 124.794 25.6614C125.23 25.2223 125.822 24.9756 126.439 24.9756ZM114.028 24.9756C114.645 24.9756 115.237 25.2223 115.673 25.6614C116.11 26.1005 116.355 26.6961 116.355 27.3171C116.355 27.9381 116.11 28.5336 115.673 28.9727C115.237 29.4118 114.645 29.6585 114.028 29.6585C113.411 29.6585 112.819 29.4118 112.382 28.9727C111.946 28.5336 111.701 27.9381 111.701 27.3171C111.701 26.6961 111.946 26.1005 112.382 25.6614C112.819 25.2223 113.411 24.9756 114.028 24.9756ZM101.617 24.9756C102.234 24.9756 102.826 25.2223 103.262 25.6614C103.699 26.1005 103.944 26.6961 103.944 27.3171C103.944 27.9381 103.699 28.5336 103.262 28.9727C102.826 29.4118 102.234 29.6585 101.617 29.6585C101 29.6585 100.408 29.4118 99.9712 28.9727C99.5348 28.5336 99.2896 27.9381 99.2896 27.3171C99.2896 26.6961 99.5348 26.1005 99.9712 25.6614C100.408 25.2223 101 24.9756 101.617 24.9756ZM89.2055 24.9756C89.8227 24.9756 90.4146 25.2223 90.851 25.6614C91.2874 26.1005 91.5326 26.6961 91.5326 27.3171C91.5326 27.9381 91.2874 28.5336 90.851 28.9727C90.4146 29.4118 89.8227 29.6585 89.2055 29.6585C88.5883 29.6585 87.9964 29.4118 87.56 28.9727C87.1236 28.5336 86.8784 27.9381 86.8784 27.3171C86.8784 26.6961 87.1236 26.1005 87.56 25.6614C87.9964 25.2223 88.5883 24.9756 89.2055 24.9756ZM163.673 12.4878C164.29 12.4878 164.882 12.7345 165.318 13.1736C165.755 13.6127 166 14.2083 166 14.8293C166 15.4503 165.755 16.0458 165.318 16.4849C164.882 16.924 164.29 17.1707 163.673 17.1707C163.056 17.1707 162.464 16.924 162.027 16.4849C161.591 16.0458 161.346 15.4503 161.346 14.8293C161.346 14.2083 161.591 13.6127 162.027 13.1736C162.464 12.7345 163.056 12.4878 163.673 12.4878ZM151.262 12.4878C151.879 12.4878 152.471 12.7345 152.907 13.1736C153.344 13.6127 153.589 14.2083 153.589 14.8293C153.589 15.4503 153.344 16.0458 152.907 16.4849C152.471 16.924 151.879 17.1707 151.262 17.1707C150.644 17.1707 150.052 16.924 149.616 16.4849C149.18 16.0458 148.934 15.4503 148.934 14.8293C148.934 14.2083 149.18 13.6127 149.616 13.1736C150.052 12.7345 150.644 12.4878 151.262 12.4878ZM138.85 12.4878C139.468 12.4878 140.059 12.7345 140.496 13.1736C140.932 13.6127 141.177 14.2083 141.177 14.8293C141.177 15.4503 140.932 16.0458 140.496 16.4849C140.059 16.924 139.468 17.1707 138.85 17.1707C138.233 17.1707 137.641 16.924 137.205 16.4849C136.768 16.0458 136.523 15.4503 136.523 14.8293C136.523 14.2083 136.768 13.6127 137.205 13.1736C137.641 12.7345 138.233 12.4878 138.85 12.4878ZM126.439 12.4878C127.056 12.4878 127.648 12.7345 128.085 13.1736C128.521 13.6127 128.766 14.2083 128.766 14.8293C128.766 15.4503 128.521 16.0458 128.085 16.4849C127.648 16.924 127.056 17.1707 126.439 17.1707C125.822 17.1707 125.23 16.924 124.794 16.4849C124.357 16.0458 124.112 15.4503 124.112 14.8293C124.112 14.2083 124.357 13.6127 124.794 13.1736C125.23 12.7345 125.822 12.4878 126.439 12.4878ZM114.028 12.4878C114.645 12.4878 115.237 12.7345 115.673 13.1736C116.11 13.6127 116.355 14.2083 116.355 14.8293C116.355 15.4503 116.11 16.0458 115.673 16.4849C115.237 16.924 114.645 17.1707 114.028 17.1707C113.411 17.1707 112.819 16.924 112.382 16.4849C111.946 16.0458 111.701 15.4503 111.701 14.8293C111.701 14.2083 111.946 13.6127 112.382 13.1736C112.819 12.7345 113.411 12.4878 114.028 12.4878ZM101.617 12.4878C102.234 12.4878 102.826 12.7345 103.262 13.1736C103.699 13.6127 103.944 14.2083 103.944 14.8293C103.944 15.4503 103.699 16.0458 103.262 16.4849C102.826 16.924 102.234 17.1707 101.617 17.1707C101 17.1707 100.408 16.924 99.9712 16.4849C99.5348 16.0458 99.2896 15.4503 99.2896 14.8293C99.2896 14.2083 99.5348 13.6127 99.9712 13.1736C100.408 12.7345 101 12.4878 101.617 12.4878ZM89.2055 12.4878C89.8227 12.4878 90.4146 12.7345 90.851 13.1736C91.2874 13.6127 91.5326 14.2083 91.5326 14.8293C91.5326 15.4503 91.2874 16.0458 90.851 16.4849C90.4146 16.924 89.8227 17.1707 89.2055 17.1707C88.5883 17.1707 87.9964 16.924 87.56 16.4849C87.1236 16.0458 86.8784 15.4503 86.8784 14.8293C86.8784 14.2083 87.1236 13.6127 87.56 13.1736C87.9964 12.7345 88.5883 12.4878 89.2055 12.4878ZM163.673 0C164.29 0 164.882 0.246689 165.318 0.685799C165.755 1.12491 166 1.72047 166 2.34146C166 2.96246 165.755 3.55802 165.318 3.99713C164.882 4.43624 164.29 4.68293 163.673 4.68293C163.056 4.68293 162.464 4.43624 162.027 3.99713C161.591 3.55802 161.346 2.96246 161.346 2.34146C161.346 1.72047 161.591 1.12491 162.027 0.685799C162.464 0.246689 163.056 0 163.673 0V0ZM151.262 0C151.879 0 152.471 0.246689 152.907 0.685799C153.344 1.12491 153.589 1.72047 153.589 2.34146C153.589 2.96246 153.344 3.55802 152.907 3.99713C152.471 4.43624 151.879 4.68293 151.262 4.68293C150.644 4.68293 150.052 4.43624 149.616 3.99713C149.18 3.55802 148.934 2.96246 148.934 2.34146C148.934 1.72047 149.18 1.12491 149.616 0.685799C150.052 0.246689 150.644 0 151.262 0V0ZM138.85 0C139.468 0 140.059 0.246689 140.496 0.685799C140.932 1.12491 141.177 1.72047 141.177 2.34146C141.177 2.96246 140.932 3.55802 140.496 3.99713C140.059 4.43624 139.468 4.68293 138.85 4.68293C138.233 4.68293 137.641 4.43624 137.205 3.99713C136.768 3.55802 136.523 2.96246 136.523 2.34146C136.523 1.72047 136.768 1.12491 137.205 0.685799C137.641 0.246689 138.233 0 138.85 0V0ZM126.439 0C127.056 0 127.648 0.246689 128.085 0.685799C128.521 1.12491 128.766 1.72047 128.766 2.34146C128.766 2.96246 128.521 3.55802 128.085 3.99713C127.648 4.43624 127.056 4.68293 126.439 4.68293C125.822 4.68293 125.23 4.43624 124.794 3.99713C124.357 3.55802 124.112 2.96246 124.112 2.34146C124.112 1.72047 124.357 1.12491 124.794 0.685799C125.23 0.246689 125.822 0 126.439 0V0ZM114.028 0C114.645 0 115.237 0.246689 115.673 0.685799C116.11 1.12491 116.355 1.72047 116.355 2.34146C116.355 2.96246 116.11 3.55802 115.673 3.99713C115.237 4.43624 114.645 4.68293 114.028 4.68293C113.411 4.68293 112.819 4.43624 112.382 3.99713C111.946 3.55802 111.701 2.96246 111.701 2.34146C111.701 1.72047 111.946 1.12491 112.382 0.685799C112.819 0.246689 113.411 0 114.028 0V0ZM101.617 0C102.234 0 102.826 0.246689 103.262 0.685799C103.699 1.12491 103.944 1.72047 103.944 2.34146C103.944 2.96246 103.699 3.55802 103.262 3.99713C102.826 4.43624 102.234 4.68293 101.617 4.68293C101 4.68293 100.408 4.43624 99.9712 3.99713C99.5348 3.55802 99.2896 2.96246 99.2896 2.34146C99.2896 1.72047 99.5348 1.12491 99.9712 0.685799C100.408 0.246689 101 0 101.617 0V0ZM89.2055 0C89.8227 0 90.4146 0.246689 90.851 0.685799C91.2874 1.12491 91.5326 1.72047 91.5326 2.34146C91.5326 2.96246 91.2874 3.55802 90.851 3.99713C90.4146 4.43624 89.8227 4.68293 89.2055 4.68293C88.5883 4.68293 87.9964 4.43624 87.56 3.99713C87.1236 3.55802 86.8784 2.96246 86.8784 2.34146C86.8784 1.72047 87.1236 1.12491 87.56 0.685799C87.9964 0.246689 88.5883 0 89.2055 0V0Z" fill="#F9FAFB"/>
<path fill-rule="evenodd" clip-rule="evenodd" d="M163.673 187.317C164.29 187.317 164.882 187.564 165.318 188.003C165.755 188.442 166 189.038 166 189.659C166 190.28 165.755 190.875 165.318 191.314C164.882 191.753 164.29 192 163.673 192C163.056 192 162.464 191.753 162.027 191.314C161.591 190.875 161.346 190.28 161.346 189.659C161.346 189.038 161.591 188.442 162.027 188.003C162.464 187.564 163.056 187.317 163.673 187.317ZM151.262 187.317C151.879 187.317 152.471 187.564 152.907 188.003C153.344 188.442 153.589 189.038 153.589 189.659C153.589 190.28 153.344 190.875 152.907 191.314C152.471 191.753 151.879 192 151.262 192C150.644 192 150.052 191.753 149.616 191.314C149.18 190.875 148.934 190.28 148.934 189.659C148.934 189.038 149.18 188.442 149.616 188.003C150.052 187.564 150.644 187.317 151.262 187.317ZM138.85 187.317C139.468 187.317 140.059 187.564 140.496 188.003C140.932 188.442 141.177 189.038 141.177 189.659C141.177 190.28 140.932 190.875 140.496 191.314C140.059 191.753 139.468 192 138.85 192C138.233 192 137.641 191.753 137.205 191.314C136.768 190.875 136.523 190.28 136.523 189.659C136.523 189.038 136.768 188.442 137.205 188.003C137.641 187.564 138.233 187.317 138.85 187.317ZM126.439 187.317C127.056 187.317 127.648 187.564 128.085 188.003C128.521 188.442 128.766 189.038 128.766 189.659C128.766 190.28 128.521 190.875 128.085 191.314C127.648 191.753 127.056 192 126.439 192C125.822 192 125.23 191.753 124.794 191.314C124.357 190.875 124.112 190.28 124.112 189.659C124.112 189.038 124.357 188.442 124.794 188.003C125.23 187.564 125.822 187.317 126.439 187.317ZM114.028 187.317C114.645 187.317 115.237 187.564 115.673 188.003C116.11 188.442 116.355 189.038 116.355 189.659C116.355 190.28 116.11 190.875 115.673 191.314C115.237 191.753 114.645 192 114.028 192C113.411 192 112.819 191.753 112.382 191.314C111.946 190.875 111.701 190.28 111.701 189.659C111.701 189.038 111.946 188.442 112.382 188.003C112.819 187.564 113.411 187.317 114.028 187.317ZM101.617 187.317C102.234 187.317 102.826 187.564 103.262 188.003C103.699 188.442 103.944 189.038 103.944 189.659C103.944 190.28 103.699 190.875 103.262 191.314C102.826 191.753 102.234 192 101.617 192C101 192 100.408 191.753 99.9712 191.314C99.5348 190.875 99.2896 190.28 99.2896 189.659C99.2896 189.038 99.5348 188.442 99.9712 188.003C100.408 187.564 101 187.317 101.617 187.317ZM89.2055 187.317C89.8227 187.317 90.4146 187.564 90.851 188.003C91.2874 188.442 91.5326 189.038 91.5326 189.659C91.5326 190.28 91.2874 190.875 90.851 191.314C90.4146 191.753 89.8227 192 89.2055 192C88.5883 192 87.9964 191.753 87.56 191.314C87.1236 190.875 86.8784 190.28 86.8784 189.659C86.8784 189.038 87.1236 188.442 87.56 188.003C87.9964 187.564 88.5883 187.317 89.2055 187.317ZM163.673 174.829C164.29 174.829 164.882 175.076 165.318 175.515C165.755 175.954 166 176.55 166 177.171C166 177.792 165.755 178.387 165.318 178.826C164.882 179.266 164.29 179.512 163.673 179.512C163.056 179.512 162.464 179.266 162.027 178.826C161.591 178.387 161.346 177.792 161.346 177.171C161.346 176.55 161.591 175.954 162.027 175.515C162.464 175.076 163.056 174.829 163.673 174.829ZM151.262 174.829C151.879 174.829 152.471 175.076 152.907 175.515C153.344 175.954 153.589 176.55 153.589 177.171C153.589 177.792 153.344 178.387 152.907 178.826C152.471 179.266 151.879 179.512 151.262 179.512C150.644 179.512 150.052 179.266 149.616 178.826C149.18 178.387 148.934 177.792 148.934 177.171C148.934 176.55 149.18 175.954 149.616 175.515C150.052 175.076 150.644 174.829 151.262 174.829ZM138.85 174.829C139.468 174.829 140.059 175.076 140.496 175.515C140.932 175.954 141.177 176.55 141.177 177.171C141.177 177.792 140.932 178.387 140.496 178.826C140.059 179.266 139.468 179.512 138.85 179.512C138.233 179.512 137.641 179.266 137.205 178.826C136.768 178.387 136.523 177.792 136.523 177.171C136.523 176.55 136.768 175.954 137.205 175.515C137.641 175.076 138.233 174.829 138.85 174.829ZM126.439 174.829C127.056 174.829 127.648 175.076 128.085 175.515C128.521 175.954 128.766 176.55 128.766 177.171C128.766 177.792 128.521 178.387 128.085 178.826C127.648 179.266 127.056 179.512 126.439 179.512C125.822 179.512 125.23 179.266 124.794 178.826C124.357 178.387 124.112 177.792 124.112 177.171C124.112 176.55 124.357 175.954 124.794 175.515C125.23 175.076 125.822 174.829 126.439 174.829ZM114.028 174.829C114.645 174.829 115.237 175.076 115.673 175.515C116.11 175.954 116.355 176.55 116.355 177.171C116.355 177.792 116.11 178.387 115.673 178.826C115.237 179.266 114.645 179.512 114.028 179.512C113.411 179.512 112.819 179.266 112.382 178.826C111.946 178.387 111.701 177.792 111.701 177.171C111.701 176.55 111.946 175.954 112.382 175.515C112.819 175.076 113.411 174.829 114.028 174.829ZM101.617 174.829C102.234 174.829 102.826 175.076 103.262 175.515C103.699 175.954 103.944 176.55 103.944 177.171C103.944 177.792 103.699 178.387 103.262 178.826C102.826 179.266 102.234 179.512 101.617 179.512C101 179.512 100.408 179.266 99.9712 178.826C99.5348 178.387 99.2896 177.792 99.2896 177.171C99.2896 176.55 99.5348 175.954 99.9712 175.515C100.408 175.076 101 174.829 101.617 174.829ZM89.2055 174.829C89.8227 174.829 90.4146 175.076 90.851 175.515C91.2874 175.954 91.5326 176.55 91.5326 177.171C91.5326 177.792 91.2874 178.387 90.851 178.826C90.4146 179.266 89.8227 179.512 89.2055 179.512C88.5883 179.512 87.9964 179.266 87.56 178.826C87.1236 178.387 86.8784 177.792 86.8784 177.171C86.8784 176.55 87.1236 175.954 87.56 175.515C87.9964 175.076 88.5883 174.829 89.2055 174.829ZM163.673 162.341C164.29 162.341 164.882 162.588 165.318 163.027C165.755 163.466 166 164.062 166 164.683C166 165.304 165.755 165.899 165.318 166.339C164.882 166.778 164.29 167.024 163.673 167.024C163.056 167.024 162.464 166.778 162.027 166.339C161.591 165.899 161.346 165.304 161.346 164.683C161.346 164.062 161.591 163.466 162.027 163.027C162.464 162.588 163.056 162.341 163.673 162.341ZM151.262 162.341C151.879 162.341 152.471 162.588 152.907 163.027C153.344 163.466 153.589 164.062 153.589 164.683C153.589 165.304 153.344 165.899 152.907 166.339C152.471 166.778 151.879 167.024 151.262 167.024C150.644 167.024 150.052 166.778 149.616 166.339C149.18 165.899 148.934 165.304 148.934 164.683C148.934 164.062 149.18 163.466 149.616 163.027C150.052 162.588 150.644 162.341 151.262 162.341ZM138.85 162.341C139.468 162.341 140.059 162.588 140.496 163.027C140.932 163.466 141.177 164.062 141.177 164.683C141.177 165.304 140.932 165.899 140.496 166.339C140.059 166.778 139.468 167.024 138.85 167.024C138.233 167.024 137.641 166.778 137.205 166.339C136.768 165.899 136.523 165.304 136.523 164.683C136.523 164.062 136.768 163.466 137.205 163.027C137.641 162.588 138.233 162.341 138.85 162.341ZM126.439 162.341C127.056 162.341 127.648 162.588 128.085 163.027C128.521 163.466 128.766 164.062 128.766 164.683C128.766 165.304 128.521 165.899 128.085 166.339C127.648 166.778 127.056 167.024 126.439 167.024C125.822 167.024 125.23 166.778 124.794 166.339C124.357 165.899 124.112 165.304 124.112 164.683C124.112 164.062 124.357 163.466 124.794 163.027C125.23 162.588 125.822 162.341 126.439 162.341ZM114.028 162.341C114.645 162.341 115.237 162.588 115.673 163.027C116.11 163.466 116.355 164.062 116.355 164.683C116.355 165.304 116.11 165.899 115.673 166.339C115.237 166.778 114.645 167.024 114.028 167.024C113.411 167.024 112.819 166.778 112.382 166.339C111.946 165.899 111.701 165.304 111.701 164.683C111.701 164.062 111.946 163.466 112.382 163.027C112.819 162.588 113.411 162.341 114.028 162.341ZM101.617 162.341C102.234 162.341 102.826 162.588 103.262 163.027C103.699 163.466 103.944 164.062 103.944 164.683C103.944 165.304 103.699 165.899 103.262 166.339C102.826 166.778 102.234 167.024 101.617 167.024C101 167.024 100.408 166.778 99.9712 166.339C99.5348 165.899 99.2896 165.304 99.2896 164.683C99.2896 164.062 99.5348 163.466 99.9712 163.027C100.408 162.588 101 162.341 101.617 162.341ZM89.2055 162.341C89.8227 162.341 90.4146 162.588 90.851 163.027C91.2874 163.466 91.5326 164.062 91.5326 164.683C91.5326 165.304 91.2874 165.899 90.851 166.339C90.4146 166.778 89.8227 167.024 89.2055 167.024C88.5883 167.024 87.9964 166.778 87.56 166.339C87.1236 165.899 86.8784 165.304 86.8784 164.683C86.8784 164.062 87.1236 163.466 87.56 163.027C87.9964 162.588 88.5883 162.341 89.2055 162.341ZM163.673 149.854C164.29 149.854 164.882 150.1 165.318 150.539C165.755 150.979 166 151.574 166 152.195C166 152.816 165.755 153.412 165.318 153.851C164.882 154.29 164.29 154.537 163.673 154.537C163.056 154.537 162.464 154.29 162.027 153.851C161.591 153.412 161.346 152.816 161.346 152.195C161.346 151.574 161.591 150.979 162.027 150.539C162.464 150.1 163.056 149.854 163.673 149.854ZM151.262 149.854C151.879 149.854 152.471 150.1 152.907 150.539C153.344 150.979 153.589 151.574 153.589 152.195C153.589 152.816 153.344 153.412 152.907 153.851C152.471 154.29 151.879 154.537 151.262 154.537C150.644 154.537 150.052 154.29 149.616 153.851C149.18 153.412 148.934 152.816 148.934 152.195C148.934 151.574 149.18 150.979 149.616 150.539C150.052 150.1 150.644 149.854 151.262 149.854ZM138.85 149.854C139.468 149.854 140.059 150.1 140.496 150.539C140.932 150.979 141.177 151.574 141.177 152.195C141.177 152.816 140.932 153.412 140.496 153.851C140.059 154.29 139.468 154.537 138.85 154.537C138.233 154.537 137.641 154.29 137.205 153.851C136.768 153.412 136.523 152.816 136.523 152.195C136.523 151.574 136.768 150.979 137.205 150.539C137.641 150.1 138.233 149.854 138.85 149.854ZM126.439 149.854C127.056 149.854 127.648 150.1 128.085 150.539C128.521 150.979 128.766 151.574 128.766 152.195C128.766 152.816 128.521 153.412 128.085 153.851C127.648 154.29 127.056 154.537 126.439 154.537C125.822 154.537 125.23 154.29 124.794 153.851C124.357 153.412 124.112 152.816 124.112 152.195C124.112 151.574 124.357 150.979 124.794 150.539C125.23 150.1 125.822 149.854 126.439 149.854ZM114.028 149.854C114.645 149.854 115.237 150.1 115.673 150.539C116.11 150.979 116.355 151.574 116.355 152.195C116.355 152.816 116.11 153.412 115.673 153.851C115.237 154.29 114.645 154.537 114.028 154.537C113.411 154.537 112.819 154.29 112.382 153.851C111.946 153.412 111.701 152.816 111.701 152.195C111.701 151.574 111.946 150.979 112.382 150.539C112.819 150.1 113.411 149.854 114.028 149.854ZM101.617 149.854C102.234 149.854 102.826 150.1 103.262 150.539C103.699 150.979 103.944 151.574 103.944 152.195C103.944 152.816 103.699 153.412 103.262 153.851C102.826 154.29 102.234 154.537 101.617 154.537C101 154.537 100.408 154.29 99.9712 153.851C99.5348 153.412 99.2896 152.816 99.2896 152.195C99.2896 151.574 99.5348 150.979 99.9712 150.539C100.408 150.1 101 149.854 101.617 149.854ZM89.2055 149.854C89.8227 149.854 90.4146 150.1 90.851 150.539C91.2874 150.979 91.5326 151.574 91.5326 152.195C91.5326 152.816 91.2874 153.412 90.851 153.851C90.4146 154.29 89.8227 154.537 89.2055 154.537C88.5883 154.537 87.9964 154.29 87.56 153.851C87.1236 153.412 86.8784 152.816 86.8784 152.195C86.8784 151.574 87.1236 150.979 87.56 150.539C87.9964 150.1 88.5883 149.854 89.2055 149.854ZM163.673 137.366C164.29 137.366 164.882 137.613 165.318 138.052C165.755 138.491 166 139.086 166 139.707C166 140.328 165.755 140.924 165.318 141.363C164.882 141.802 164.29 142.049 163.673 142.049C163.056 142.049 162.464 141.802 162.027 141.363C161.591 140.924 161.346 140.328 161.346 139.707C161.346 139.086 161.591 138.491 162.027 138.052C162.464 137.613 163.056 137.366 163.673 137.366ZM151.262 137.366C151.879 137.366 152.471 137.613 152.907 138.052C153.344 138.491 153.589 139.086 153.589 139.707C153.589 140.328 153.344 140.924 152.907 141.363C152.471 141.802 151.879 142.049 151.262 142.049C150.644 142.049 150.052 141.802 149.616 141.363C149.18 140.924 148.934 140.328 148.934 139.707C148.934 139.086 149.18 138.491 149.616 138.052C150.052 137.613 150.644 137.366 151.262 137.366ZM138.85 137.366C139.468 137.366 140.059 137.613 140.496 138.052C140.932 138.491 141.177 139.086 141.177 139.707C141.177 140.328 140.932 140.924 140.496 141.363C140.059 141.802 139.468 142.049 138.85 142.049C138.233 142.049 137.641 141.802 137.205 141.363C136.768 140.924 136.523 140.328 136.523 139.707C136.523 139.086 136.768 138.491 137.205 138.052C137.641 137.613 138.233 137.366 138.85 137.366ZM126.439 137.366C127.056 137.366 127.648 137.613 128.085 138.052C128.521 138.491 128.766 139.086 128.766 139.707C128.766 140.328 128.521 140.924 128.085 141.363C127.648 141.802 127.056 142.049 126.439 142.049C125.822 142.049 125.23 141.802 124.794 141.363C124.357 140.924 124.112 140.328 124.112 139.707C124.112 139.086 124.357 138.491 124.794 138.052C125.23 137.613 125.822 137.366 126.439 137.366ZM114.028 137.366C114.645 137.366 115.237 137.613 115.673 138.052C116.11 138.491 116.355 139.086 116.355 139.707C116.355 140.328 116.11 140.924 115.673 141.363C115.237 141.802 114.645 142.049 114.028 142.049C113.411 142.049 112.819 141.802 112.382 141.363C111.946 140.924 111.701 140.328 111.701 139.707C111.701 139.086 111.946 138.491 112.382 138.052C112.819 137.613 113.411 137.366 114.028 137.366ZM101.617 137.366C102.234 137.366 102.826 137.613 103.262 138.052C103.699 138.491 103.944 139.086 103.944 139.707C103.944 140.328 103.699 140.924 103.262 141.363C102.826 141.802 102.234 142.049 101.617 142.049C101 142.049 100.408 141.802 99.9712 141.363C99.5348 140.924 99.2896 140.328 99.2896 139.707C99.2896 139.086 99.5348 138.491 99.9712 138.052C100.408 137.613 101 137.366 101.617 137.366ZM89.2055 137.366C89.8227 137.366 90.4146 137.613 90.851 138.052C91.2874 138.491 91.5326 139.086 91.5326 139.707C91.5326 140.328 91.2874 140.924 90.851 141.363C90.4146 141.802 89.8227 142.049 89.2055 142.049C88.5883 142.049 87.9964 141.802 87.56 141.363C87.1236 140.924 86.8784 140.328 86.8784 139.707C86.8784 139.086 87.1236 138.491 87.56 138.052C87.9964 137.613 88.5883 137.366 89.2055 137.366ZM163.673 124.878C164.29 124.878 164.882 125.125 165.318 125.564C165.755 126.003 166 126.599 166 127.22C166 127.841 165.755 128.436 165.318 128.875C164.882 129.314 164.29 129.561 163.673 129.561C163.056 129.561 162.464 129.314 162.027 128.875C161.591 128.436 161.346 127.841 161.346 127.22C161.346 126.599 161.591 126.003 162.027 125.564C162.464 125.125 163.056 124.878 163.673 124.878ZM151.262 124.878C151.879 124.878 152.471 125.125 152.907 125.564C153.344 126.003 153.589 126.599 153.589 127.22C153.589 127.841 153.344 128.436 152.907 128.875C152.471 129.314 151.879 129.561 151.262 129.561C150.644 129.561 150.052 129.314 149.616 128.875C149.18 128.436 148.934 127.841 148.934 127.22C148.934 126.599 149.18 126.003 149.616 125.564C150.052 125.125 150.644 124.878 151.262 124.878ZM138.85 124.878C139.468 124.878 140.059 125.125 140.496 125.564C140.932 126.003 141.177 126.599 141.177 127.22C141.177 127.841 140.932 128.436 140.496 128.875C140.059 129.314 139.468 129.561 138.85 129.561C138.233 129.561 137.641 129.314 137.205 128.875C136.768 128.436 136.523 127.841 136.523 127.22C136.523 126.599 136.768 126.003 137.205 125.564C137.641 125.125 138.233 124.878 138.85 124.878ZM126.439 124.878C127.056 124.878 127.648 125.125 128.085 125.564C128.521 126.003 128.766 126.599 128.766 127.22C128.766 127.841 128.521 128.436 128.085 128.875C127.648 129.314 127.056 129.561 126.439 129.561C125.822 129.561 125.23 129.314 124.794 128.875C124.357 128.436 124.112 127.841 124.112 127.22C124.112 126.599 124.357 126.003 124.794 125.564C125.23 125.125 125.822 124.878 126.439 124.878ZM114.028 124.878C114.645 124.878 115.237 125.125 115.673 125.564C116.11 126.003 116.355 126.599 116.355 127.22C116.355 127.841 116.11 128.436 115.673 128.875C115.237 129.314 114.645 129.561 114.028 129.561C113.411 129.561 112.819 129.314 112.382 128.875C111.946 128.436 111.701 127.841 111.701 127.22C111.701 126.599 111.946 126.003 112.382 125.564C112.819 125.125 113.411 124.878 114.028 124.878ZM101.617 124.878C102.234 124.878 102.826 125.125 103.262 125.564C103.699 126.003 103.944 126.599 103.944 127.22C103.944 127.841 103.699 128.436 103.262 128.875C102.826 129.314 102.234 129.561 101.617 129.561C101 129.561 100.408 129.314 99.9712 128.875C99.5348 128.436 99.2896 127.841 99.2896 127.22C99.2896 126.599 99.5348 126.003 99.9712 125.564C100.408 125.125 101 124.878 101.617 124.878ZM89.2055 124.878C89.8227 124.878 90.4146 125.125 90.851 125.564C91.2874 126.003 91.5326 126.599 91.5326 127.22C91.5326 127.841 91.2874 128.436 90.851 128.875C90.4146 129.314 89.8227 129.561 89.2055 129.561C88.5883 129.561 87.9964 129.314 87.56 128.875C87.1236 128.436 86.8784 127.841 86.8784 127.22C86.8784 126.599 87.1236 126.003 87.56 125.564C87.9964 125.125 88.5883 124.878 89.2055 124.878ZM163.673 112.39C164.29 112.39 164.882 112.637 165.318 113.076C165.755 113.515 166 114.111 166 114.732C166 115.353 165.755 115.948 165.318 116.387C164.882 116.826 164.29 117.073 163.673 117.073C163.056 117.073 162.464 116.826 162.027 116.387C161.591 115.948 161.346 115.353 161.346 114.732C161.346 114.111 161.591 113.515 162.027 113.076C162.464 112.637 163.056 112.39 163.673 112.39ZM151.262 112.39C151.879 112.39 152.471 112.637 152.907 113.076C153.344 113.515 153.589 114.111 153.589 114.732C153.589 115.353 153.344 115.948 152.907 116.387C152.471 116.826 151.879 117.073 151.262 117.073C150.644 117.073 150.052 116.826 149.616 116.387C149.18 115.948 148.934 115.353 148.934 114.732C148.934 114.111 149.18 113.515 149.616 113.076C150.052 112.637 150.644 112.39 151.262 112.39ZM138.85 112.39C139.468 112.39 140.059 112.637 140.496 113.076C140.932 113.515 141.177 114.111 141.177 114.732C141.177 115.353 140.932 115.948 140.496 116.387C140.059 116.826 139.468 117.073 138.85 117.073C138.233 117.073 137.641 116.826 137.205 116.387C136.768 115.948 136.523 115.353 136.523 114.732C136.523 114.111 136.768 113.515 137.205 113.076C137.641 112.637 138.233 112.39 138.85 112.39ZM126.439 112.39C127.056 112.39 127.648 112.637 128.085 113.076C128.521 113.515 128.766 114.111 128.766 114.732C128.766 115.353 128.521 115.948 128.085 116.387C127.648 116.826 127.056 117.073 126.439 117.073C125.822 117.073 125.23 116.826 124.794 116.387C124.357 115.948 124.112 115.353 124.112 114.732C124.112 114.111 124.357 113.515 124.794 113.076C125.23 112.637 125.822 112.39 126.439 112.39ZM114.028 112.39C114.645 112.39 115.237 112.637 115.673 113.076C116.11 113.515 116.355 114.111 116.355 114.732C116.355 115.353 116.11 115.948 115.673 116.387C115.237 116.826 114.645 117.073 114.028 117.073C113.411 117.073 112.819 116.826 112.382 116.387C111.946 115.948 111.701 115.353 111.701 114.732C111.701 114.111 111.946 113.515 112.382 113.076C112.819 112.637 113.411 112.39 114.028 112.39ZM101.617 112.39C102.234 112.39 102.826 112.637 103.262 113.076C103.699 113.515 103.944 114.111 103.944 114.732C103.944 115.353 103.699 115.948 103.262 116.387C102.826 116.826 102.234 117.073 101.617 117.073C101 117.073 100.408 116.826 99.9712 116.387C99.5348 115.948 99.2896 115.353 99.2896 114.732C99.2896 114.111 99.5348 113.515 99.9712 113.076C100.408 112.637 101 112.39 101.617 112.39ZM89.2055 112.39C89.8227 112.39 90.4146 112.637 90.851 113.076C91.2874 113.515 91.5326 114.111 91.5326 114.732C91.5326 115.353 91.2874 115.948 90.851 116.387C90.4146 116.826 89.8227 117.073 89.2055 117.073C88.5883 117.073 87.9964 116.826 87.56 116.387C87.1236 115.948 86.8784 115.353 86.8784 114.732C86.8784 114.111 87.1236 113.515 87.56 113.076C87.9964 112.637 88.5883 112.39 89.2055 112.39ZM163.673 99.9024C164.29 99.9024 164.882 100.149 165.318 100.588C165.755 101.027 166 101.623 166 102.244C166 102.865 165.755 103.46 165.318 103.9C164.882 104.339 164.29 104.585 163.673 104.585C163.056 104.585 162.464 104.339 162.027 103.9C161.591 103.46 161.346 102.865 161.346 102.244C161.346 101.623 161.591 101.027 162.027 100.588C162.464 100.149 163.056 99.9024 163.673 99.9024V99.9024ZM151.262 99.9024C151.879 99.9024 152.471 100.149 152.907 100.588C153.344 101.027 153.589 101.623 153.589 102.244C153.589 102.865 153.344 103.46 152.907 103.9C152.471 104.339 151.879 104.585 151.262 104.585C150.644 104.585 150.052 104.339 149.616 103.9C149.18 103.46 148.934 102.865 148.934 102.244C148.934 101.623 149.18 101.027 149.616 100.588C150.052 100.149 150.644 99.9024 151.262 99.9024V99.9024ZM138.85 99.9024C139.468 99.9024 140.059 100.149 140.496 100.588C140.932 101.027 141.177 101.623 141.177 102.244C141.177 102.865 140.932 103.46 140.496 103.9C140.059 104.339 139.468 104.585 138.85 104.585C138.233 104.585 137.641 104.339 137.205 103.9C136.768 103.46 136.523 102.865 136.523 102.244C136.523 101.623 136.768 101.027 137.205 100.588C137.641 100.149 138.233 99.9024 138.85 99.9024V99.9024ZM126.439 99.9024C127.056 99.9024 127.648 100.149 128.085 100.588C128.521 101.027 128.766 101.623 128.766 102.244C128.766 102.865 128.521 103.46 128.085 103.9C127.648 104.339 127.056 104.585 126.439 104.585C125.822 104.585 125.23 104.339 124.794 103.9C124.357 103.46 124.112 102.865 124.112 102.244C124.112 101.623 124.357 101.027 124.794 100.588C125.23 100.149 125.822 99.9024 126.439 99.9024V99.9024ZM114.028 99.9024C114.645 99.9024 115.237 100.149 115.673 100.588C116.11 101.027 116.355 101.623 116.355 102.244C116.355 102.865 116.11 103.46 115.673 103.9C115.237 104.339 114.645 104.585 114.028 104.585C113.411 104.585 112.819 104.339 112.382 103.9C111.946 103.46 111.701 102.865 111.701 102.244C111.701 101.623 111.946 101.027 112.382 100.588C112.819 100.149 113.411 99.9024 114.028 99.9024V99.9024ZM101.617 99.9024C102.234 99.9024 102.826 100.149 103.262 100.588C103.699 101.027 103.944 101.623 103.944 102.244C103.944 102.865 103.699 103.46 103.262 103.9C102.826 104.339 102.234 104.585 101.617 104.585C101 104.585 100.408 104.339 99.9712 103.9C99.5348 103.46 99.2896 102.865 99.2896 102.244C99.2896 101.623 99.5348 101.027 99.9712 100.588C100.408 100.149 101 99.9024 101.617 99.9024V99.9024ZM89.2055 99.9024C89.8227 99.9024 90.4146 100.149 90.851 100.588C91.2874 101.027 91.5326 101.623 91.5326 102.244C91.5326 102.865 91.2874 103.46 90.851 103.9C90.4146 104.339 89.8227 104.585 89.2055 104.585C88.5883 104.585 87.9964 104.339 87.56 103.9C87.1236 103.46 86.8784 102.865 86.8784 102.244C86.8784 101.623 87.1236 101.027 87.56 100.588C87.9964 100.149 88.5883 99.9024 89.2055 99.9024V99.9024Z" fill="#F9FAFB"/>
</svg>
