<svg xmlns="http://www.w3.org/2000/svg" width="166" height="192" fill="#f9fafb"  fill-rule="evenodd" xmlns:v="https://vecta.io/nano"><path d="M76.794 87.415a2.32 2.32 0 0 1 1.645.686 2.35 2.35 0 0 1 0 3.311 2.32 2.32 0 0 1-3.291 0 2.35 2.35 0 0 1 0-3.311 2.32 2.32 0 0 1 1.645-.686zm-12.41 0a2.32 2.32 0 0 1 1.645.686 2.35 2.35 0 0 1 0 3.311 2.32 2.32 0 0 1-3.291 0 2.35 2.35 0 0 1 0-3.311 2.32 2.32 0 0 1 1.646-.686zm-12.41 0a2.32 2.32 0 0 1 1.645.686 2.35 2.35 0 0 1 0 3.311 2.32 2.32 0 0 1-3.291 0 2.35 2.35 0 0 1 0-3.311 2.32 2.32 0 0 1 1.645-.686zm-12.41 0a2.32 2.32 0 0 1 1.646.686 2.35 2.35 0 0 1 0 3.311 2.32 2.32 0 0 1-3.291 0 2.35 2.35 0 0 1 0-3.311 2.32 2.32 0 0 1 1.645-.686zm-12.41 0a2.32 2.32 0 0 1 1.646.686 2.35 2.35 0 0 1 0 3.311 2.32 2.32 0 0 1-3.291 0 2.35 2.35 0 0 1 0-3.311 2.32 2.32 0 0 1 1.645-.686zm-12.41 0a2.32 2.32 0 0 1 1.646.686 2.35 2.35 0 0 1 0 3.311 2.32 2.32 0 0 1-3.291 0 2.35 2.35 0 0 1 0-3.311 2.32 2.32 0 0 1 1.646-.686zm-12.41 0a2.32 2.32 0 0 1 1.646.686 2.35 2.35 0 0 1 0 3.311 2.32 2.32 0 0 1-1.646.686 2.32 2.32 0 0 1-1.646-.686 2.35 2.35 0 0 1 0-3.311 2.32 2.32 0 0 1 1.646-.686zm74.467-12.488a2.32 2.32 0 0 1 1.645.686 2.35 2.35 0 0 1 0 3.311 2.32 2.32 0 0 1-3.291 0 2.35 2.35 0 0 1 0-3.311 2.32 2.32 0 0 1 1.645-.686zm-12.41 0a2.32 2.32 0 0 1 1.645.686 2.35 2.35 0 0 1 0 3.311 2.32 2.32 0 0 1-3.291 0 2.35 2.35 0 0 1 0-3.311 2.32 2.32 0 0 1 1.646-.686zm-12.41 0a2.32 2.32 0 0 1 1.645.686 2.35 2.35 0 0 1 0 3.311 2.32 2.32 0 0 1-3.291 0 2.35 2.35 0 0 1 0-3.311 2.32 2.32 0 0 1 1.645-.686zm-12.41 0a2.32 2.32 0 0 1 1.646.686 2.35 2.35 0 0 1 0 3.311 2.32 2.32 0 0 1-3.291 0 2.35 2.35 0 0 1 0-3.311 2.32 2.32 0 0 1 1.645-.686zm-12.41 0a2.32 2.32 0 0 1 1.646.686 2.35 2.35 0 0 1 0 3.311 2.32 2.32 0 0 1-3.291 0 2.35 2.35 0 0 1 0-3.311 2.32 2.32 0 0 1 1.645-.686zm-12.41 0a2.32 2.32 0 0 1 1.646.686 2.35 2.35 0 0 1 0 3.311 2.32 2.32 0 0 1-3.291 0 2.35 2.35 0 0 1 0-3.311 2.32 2.32 0 0 1 1.646-.686zm-12.41 0a2.32 2.32 0 0 1 1.646.686 2.35 2.35 0 0 1 0 3.311 2.32 2.32 0 0 1-1.646.686 2.32 2.32 0 0 1-1.646-.686 2.35 2.35 0 0 1 0-3.311 2.32 2.32 0 0 1 1.646-.686zM76.794 62.44a2.32 2.32 0 0 1 1.645.686 2.35 2.35 0 0 1 0 3.311 2.32 2.32 0 0 1-3.291 0 2.35 2.35 0 0 1 0-3.311 2.32 2.32 0 0 1 1.645-.686zm-12.41 0a2.32 2.32 0 0 1 1.645.686 2.35 2.35 0 0 1 0 3.311 2.32 2.32 0 0 1-3.291 0 2.35 2.35 0 0 1 0-3.311 2.32 2.32 0 0 1 1.646-.686zm-12.41 0a2.32 2.32 0 0 1 1.645.686 2.35 2.35 0 0 1 0 3.311 2.32 2.32 0 0 1-3.291 0 2.35 2.35 0 0 1 0-3.311 2.32 2.32 0 0 1 1.645-.686zm-12.41 0a2.32 2.32 0 0 1 1.646.686 2.35 2.35 0 0 1 0 3.311 2.32 2.32 0 0 1-3.291 0 2.35 2.35 0 0 1 0-3.311 2.32 2.32 0 0 1 1.645-.686zm-12.41 0a2.32 2.32 0 0 1 1.646.686 2.35 2.35 0 0 1 0 3.311 2.32 2.32 0 0 1-3.291 0 2.35 2.35 0 0 1 0-3.311 2.32 2.32 0 0 1 1.645-.686zm-12.41 0a2.32 2.32 0 0 1 1.646.686 2.35 2.35 0 0 1 0 3.311 2.32 2.32 0 0 1-3.291 0 2.35 2.35 0 0 1 0-3.311 2.32 2.32 0 0 1 1.646-.686zm-12.41 0a2.32 2.32 0 0 1 1.646.686 2.35 2.35 0 0 1 0 3.311 2.32 2.32 0 0 1-3.291 0 2.35 2.35 0 0 1 0-3.311 2.32 2.32 0 0 1 1.646-.686zM76.794 49.95a2.32 2.32 0 0 1 1.645.686 2.35 2.35 0 0 1 0 3.311 2.32 2.32 0 0 1-3.291 0 2.35 2.35 0 0 1 0-3.311 2.32 2.32 0 0 1 1.645-.686zm-12.41 0a2.32 2.32 0 0 1 1.645.686 2.35 2.35 0 0 1 0 3.311 2.32 2.32 0 0 1-3.291 0 2.35 2.35 0 0 1 0-3.311 2.32 2.32 0 0 1 1.646-.686zm-12.41 0a2.32 2.32 0 0 1 1.645.686 2.35 2.35 0 0 1 0 3.311 2.32 2.32 0 0 1-3.291 0 2.35 2.35 0 0 1 0-3.311 2.32 2.32 0 0 1 1.645-.686zm-12.41 0a2.32 2.32 0 0 1 1.646.686 2.35 2.35 0 0 1 0 3.311 2.32 2.32 0 0 1-3.291 0 2.35 2.35 0 0 1 0-3.311 2.32 2.32 0 0 1 1.645-.686zm-12.41 0a2.32 2.32 0 0 1 1.646.686 2.35 2.35 0 0 1 0 3.311 2.32 2.32 0 0 1-3.291 0 2.35 2.35 0 0 1 0-3.311 2.32 2.32 0 0 1 1.645-.686zm-12.41 0a2.32 2.32 0 0 1 1.646.686 2.35 2.35 0 0 1 0 3.311 2.32 2.32 0 0 1-3.291 0 2.35 2.35 0 0 1 0-3.311 2.32 2.32 0 0 1 1.646-.686zm-12.41 0a2.32 2.32 0 0 1 1.646.686 2.35 2.35 0 0 1 0 3.311 2.32 2.32 0 0 1-3.291 0 2.35 2.35 0 0 1 0-3.311 2.32 2.32 0 0 1 1.646-.686zm74.467-12.488a2.32 2.32 0 0 1 1.645.686 2.35 2.35 0 0 1 0 3.311 2.32 2.32 0 0 1-3.291 0 2.35 2.35 0 0 1 0-3.311 2.32 2.32 0 0 1 1.645-.686zm-12.41 0a2.32 2.32 0 0 1 1.645.686 2.35 2.35 0 0 1 0 3.311 2.32 2.32 0 0 1-3.291 0 2.35 2.35 0 0 1 0-3.311 2.32 2.32 0 0 1 1.646-.686zm-12.41 0a2.32 2.32 0 0 1 1.645.686 2.35 2.35 0 0 1 0 3.311 2.32 2.32 0 0 1-3.291 0 2.35 2.35 0 0 1 0-3.311 2.32 2.32 0 0 1 1.645-.686zm-12.41 0a2.32 2.32 0 0 1 1.646.686 2.35 2.35 0 0 1 0 3.311 2.32 2.32 0 0 1-3.291 0 2.35 2.35 0 0 1 0-3.311 2.32 2.32 0 0 1 1.645-.686zm-12.41 0a2.32 2.32 0 0 1 1.646.686 2.35 2.35 0 0 1 0 3.311 2.32 2.32 0 0 1-3.291 0 2.35 2.35 0 0 1 0-3.311 2.32 2.32 0 0 1 1.645-.686zm-12.41 0a2.32 2.32 0 0 1 1.646.686 2.35 2.35 0 0 1 0 3.311 2.32 2.32 0 0 1-3.291 0 2.35 2.35 0 0 1 0-3.311 2.32 2.32 0 0 1 1.646-.686zm-12.41 0a2.32 2.32 0 0 1 1.646.686 2.35 2.35 0 0 1 0 3.311 2.32 2.32 0 0 1-3.291 0 2.35 2.35 0 0 1 0-3.311 2.32 2.32 0 0 1 1.646-.686zm74.467-12.488a2.32 2.32 0 0 1 1.645.686 2.35 2.35 0 0 1 0 3.311 2.32 2.32 0 0 1-3.291 0 2.35 2.35 0 0 1 0-3.311 2.32 2.32 0 0 1 1.645-.686zm-12.41 0a2.32 2.32 0 0 1 1.645.686 2.35 2.35 0 0 1 0 3.311 2.32 2.32 0 0 1-3.291 0 2.35 2.35 0 0 1 0-3.311 2.32 2.32 0 0 1 1.646-.686zm-12.41 0a2.32 2.32 0 0 1 1.645.686 2.35 2.35 0 0 1 0 3.311 2.32 2.32 0 0 1-3.291 0 2.35 2.35 0 0 1 0-3.311 2.32 2.32 0 0 1 1.645-.686zm-12.41 0a2.32 2.32 0 0 1 1.646.686 2.35 2.35 0 0 1 0 3.311 2.32 2.32 0 0 1-3.291 0 2.35 2.35 0 0 1 0-3.311 2.32 2.32 0 0 1 1.645-.686zm-12.41 0a2.32 2.32 0 0 1 1.646.686 2.35 2.35 0 0 1 0 3.311 2.32 2.32 0 0 1-3.291 0 2.35 2.35 0 0 1 0-3.311 2.32 2.32 0 0 1 1.645-.686zm-12.41 0a2.32 2.32 0 0 1 1.646.686 2.35 2.35 0 0 1 0 3.311 2.32 2.32 0 0 1-3.291 0 2.35 2.35 0 0 1 0-3.311 2.32 2.32 0 0 1 1.646-.686zm-12.41 0a2.32 2.32 0 0 1 1.646.686 2.35 2.35 0 0 1 0 3.311 2.32 2.32 0 0 1-1.646.686 2.32 2.32 0 0 1-1.646-.686 2.35 2.35 0 0 1 0-3.311 2.32 2.32 0 0 1 1.646-.686zm74.467-12.488a2.32 2.32 0 0 1 1.645.686 2.35 2.35 0 0 1 0 3.311 2.32 2.32 0 0 1-3.291 0 2.35 2.35 0 0 1 0-3.311 2.32 2.32 0 0 1 1.645-.686zm-12.41 0a2.32 2.32 0 0 1 1.645.686 2.35 2.35 0 0 1 0 3.311 2.32 2.32 0 0 1-3.291 0 2.35 2.35 0 0 1 0-3.311 2.32 2.32 0 0 1 1.646-.686zm-12.41 0a2.32 2.32 0 0 1 1.645.686 2.35 2.35 0 0 1 0 3.311 2.32 2.32 0 0 1-3.291 0 2.35 2.35 0 0 1 0-3.311 2.32 2.32 0 0 1 1.645-.686zm-12.41 0a2.32 2.32 0 0 1 1.646.686 2.35 2.35 0 0 1 0 3.311 2.32 2.32 0 0 1-3.291 0 2.35 2.35 0 0 1 0-3.311 2.32 2.32 0 0 1 1.645-.686zm-12.41 0a2.32 2.32 0 0 1 1.646.686 2.35 2.35 0 0 1 0 3.311 2.32 2.32 0 0 1-3.291 0 2.35 2.35 0 0 1 0-3.311 2.32 2.32 0 0 1 1.645-.686zm-12.41 0a2.32 2.32 0 0 1 1.646.686 2.35 2.35 0 0 1 0 3.311 2.32 2.32 0 0 1-3.291 0 2.35 2.35 0 0 1 0-3.311 2.32 2.32 0 0 1 1.646-.686zm-12.41 0a2.32 2.32 0 0 1 1.646.686 2.35 2.35 0 0 1 0 3.311 2.32 2.32 0 0 1-1.646.686 2.32 2.32 0 0 1-1.646-.686 2.35 2.35 0 0 1 0-3.311 2.32 2.32 0 0 1 1.646-.686zM76.794 0a2.32 2.32 0 0 1 1.645.686 2.35 2.35 0 0 1 0 3.311 2.32 2.32 0 0 1-3.291 0 2.35 2.35 0 0 1 0-3.311A2.32 2.32 0 0 1 76.794 0h0zm-12.41 0a2.32 2.32 0 0 1 1.645.686 2.35 2.35 0 0 1 0 3.311 2.32 2.32 0 0 1-3.291 0 2.35 2.35 0 0 1 0-3.311A2.32 2.32 0 0 1 64.383 0h0zm-12.41 0a2.32 2.32 0 0 1 1.645.686 2.35 2.35 0 0 1 0 3.311 2.32 2.32 0 0 1-3.291 0 2.35 2.35 0 0 1-.682-1.656 2.35 2.35 0 0 1 .682-1.656A2.32 2.32 0 0 1 51.972 0h0zM39.56 0a2.32 2.32 0 0 1 1.646.686 2.35 2.35 0 0 1 0 3.311 2.32 2.32 0 0 1-3.291 0 2.35 2.35 0 0 1 0-3.311A2.32 2.32 0 0 1 39.561 0h0zM27.15 0a2.32 2.32 0 0 1 1.646.686 2.35 2.35 0 0 1 .682 1.656 2.35 2.35 0 0 1-.682 1.656 2.32 2.32 0 0 1-3.291 0 2.35 2.35 0 0 1 0-3.311A2.32 2.32 0 0 1 27.15 0h0zm-12.41 0a2.32 2.32 0 0 1 1.646.686 2.35 2.35 0 0 1 0 3.311 2.32 2.32 0 0 1-3.291 0 2.35 2.35 0 0 1 0-3.311A2.32 2.32 0 0 1 14.738 0h0zM2.327 0a2.32 2.32 0 0 1 1.646.686 2.35 2.35 0 0 1 .682 1.656 2.35 2.35 0 0 1-.682 1.656 2.32 2.32 0 0 1-1.646.686 2.32 2.32 0 0 1-1.646-.686A2.35 2.35 0 0 1 0 2.341 2.35 2.35 0 0 1 .682.686 2.32 2.32 0 0 1 2.327 0h0z"/><path d="M76.794 187.317a2.32 2.32 0 0 1 1.645.686 2.35 2.35 0 0 1 .682 1.656c0 .62-.245 1.216-.682 1.655a2.32 2.32 0 0 1-3.291 0c-.436-.44-.682-1.034-.682-1.655a2.35 2.35 0 0 1 .682-1.656 2.32 2.32 0 0 1 1.645-.686zm-12.41 0a2.32 2.32 0 0 1 1.645.686 2.35 2.35 0 0 1 .682 1.656c0 .62-.245 1.216-.682 1.655a2.32 2.32 0 0 1-3.291 0c-.436-.44-.682-1.034-.682-1.655a2.35 2.35 0 0 1 .682-1.656 2.32 2.32 0 0 1 1.646-.686zm-12.41 0a2.32 2.32 0 0 1 1.645.686 2.35 2.35 0 0 1 .682 1.656c0 .62-.245 1.216-.682 1.655a2.32 2.32 0 0 1-3.291 0c-.437-.44-.682-1.034-.682-1.655a2.35 2.35 0 0 1 .682-1.656 2.32 2.32 0 0 1 1.645-.686zm-12.41 0a2.32 2.32 0 0 1 1.646.686 2.35 2.35 0 0 1 .682 1.656c0 .62-.245 1.216-.682 1.655a2.32 2.32 0 0 1-3.291 0c-.436-.44-.682-1.034-.682-1.655a2.35 2.35 0 0 1 .682-1.656 2.32 2.32 0 0 1 1.645-.686zm-12.41 0a2.32 2.32 0 0 1 1.646.686 2.35 2.35 0 0 1 .682 1.656c0 .62-.245 1.216-.682 1.655a2.32 2.32 0 0 1-3.291 0c-.436-.44-.682-1.034-.682-1.655a2.35 2.35 0 0 1 .682-1.656 2.32 2.32 0 0 1 1.645-.686zm-12.41 0a2.32 2.32 0 0 1 1.646.686 2.35 2.35 0 0 1 .682 1.656c0 .62-.245 1.216-.682 1.655a2.32 2.32 0 0 1-3.291 0c-.436-.44-.682-1.034-.682-1.655a2.35 2.35 0 0 1 .682-1.656 2.32 2.32 0 0 1 1.646-.686zm-12.41 0a2.32 2.32 0 0 1 1.646.686 2.35 2.35 0 0 1 .682 1.656c0 .62-.245 1.216-.682 1.655a2.32 2.32 0 0 1-1.646.686 2.32 2.32 0 0 1-1.646-.686C.245 190.875 0 190.28 0 189.66a2.35 2.35 0 0 1 .682-1.656 2.32 2.32 0 0 1 1.646-.686zm74.467-12.488a2.32 2.32 0 0 1 1.645.686 2.35 2.35 0 0 1 .682 1.656c0 .62-.245 1.216-.682 1.655s-1.028.686-1.645.686-1.21-.246-1.645-.686-.682-1.034-.682-1.655a2.35 2.35 0 0 1 .682-1.656 2.32 2.32 0 0 1 1.645-.686zm-12.41 0a2.32 2.32 0 0 1 1.645.686 2.35 2.35 0 0 1 .682 1.656c0 .62-.245 1.216-.682 1.655s-1.028.686-1.645.686-1.21-.246-1.646-.686-.682-1.034-.682-1.655a2.35 2.35 0 0 1 .682-1.656 2.32 2.32 0 0 1 1.646-.686zm-12.41 0a2.32 2.32 0 0 1 1.645.686 2.35 2.35 0 0 1 .682 1.656c0 .62-.245 1.216-.682 1.655s-1.028.686-1.645.686-1.21-.246-1.645-.686-.682-1.034-.682-1.655a2.35 2.35 0 0 1 .682-1.656 2.32 2.32 0 0 1 1.645-.686zm-12.41 0a2.32 2.32 0 0 1 1.646.686 2.35 2.35 0 0 1 .682 1.656c0 .62-.245 1.216-.682 1.655s-1.028.686-1.646.686-1.21-.246-1.645-.686-.682-1.034-.682-1.655a2.35 2.35 0 0 1 .682-1.656 2.32 2.32 0 0 1 1.645-.686zm-12.41 0a2.32 2.32 0 0 1 1.646.686 2.35 2.35 0 0 1 .682 1.656c0 .62-.245 1.216-.682 1.655s-1.028.686-1.646.686-1.21-.246-1.645-.686-.682-1.034-.682-1.655a2.35 2.35 0 0 1 .682-1.656 2.32 2.32 0 0 1 1.645-.686zm-12.41 0a2.32 2.32 0 0 1 1.646.686 2.35 2.35 0 0 1 .682 1.656c0 .62-.245 1.216-.682 1.655s-1.028.686-1.646.686-1.21-.246-1.646-.686-.682-1.034-.682-1.655a2.35 2.35 0 0 1 .682-1.656 2.32 2.32 0 0 1 1.646-.686zm-12.41 0a2.32 2.32 0 0 1 1.646.686 2.35 2.35 0 0 1 .682 1.656c0 .62-.245 1.216-.682 1.655s-1.028.686-1.646.686-1.21-.246-1.646-.686S0 177.792 0 177.17a2.35 2.35 0 0 1 .682-1.656 2.32 2.32 0 0 1 1.646-.686zm74.467-12.488a2.32 2.32 0 0 1 1.645.686 2.35 2.35 0 0 1 0 3.312 2.32 2.32 0 0 1-3.291 0 2.35 2.35 0 0 1 0-3.312 2.32 2.32 0 0 1 1.645-.686zm-12.41 0a2.32 2.32 0 0 1 1.645.686 2.35 2.35 0 0 1 0 3.312 2.32 2.32 0 0 1-3.291 0 2.35 2.35 0 0 1 0-3.312 2.32 2.32 0 0 1 1.646-.686zm-12.41 0a2.32 2.32 0 0 1 1.645.686 2.35 2.35 0 0 1 0 3.312 2.32 2.32 0 0 1-3.291 0 2.35 2.35 0 0 1 0-3.312 2.32 2.32 0 0 1 1.645-.686zm-12.41 0a2.32 2.32 0 0 1 1.646.686 2.35 2.35 0 0 1 0 3.312 2.32 2.32 0 0 1-3.291 0 2.35 2.35 0 0 1 0-3.312 2.32 2.32 0 0 1 1.645-.686zm-12.41 0a2.32 2.32 0 0 1 1.646.686 2.35 2.35 0 0 1 0 3.312 2.32 2.32 0 0 1-3.291 0 2.35 2.35 0 0 1 0-3.312 2.32 2.32 0 0 1 1.645-.686zm-12.41 0a2.32 2.32 0 0 1 1.646.686 2.35 2.35 0 0 1 0 3.312 2.32 2.32 0 0 1-3.291 0 2.35 2.35 0 0 1 0-3.312 2.32 2.32 0 0 1 1.646-.686zm-12.41 0a2.32 2.32 0 0 1 1.646.686 2.35 2.35 0 0 1 0 3.312 2.32 2.32 0 0 1-3.291 0 2.35 2.35 0 0 1 0-3.312 2.32 2.32 0 0 1 1.646-.686zm74.467-12.487a2.32 2.32 0 0 1 1.645.685 2.35 2.35 0 0 1 0 3.312 2.32 2.32 0 0 1-3.291 0 2.35 2.35 0 0 1 0-3.312 2.32 2.32 0 0 1 1.645-.685zm-12.41 0a2.32 2.32 0 0 1 1.645.685 2.35 2.35 0 0 1 0 3.312 2.32 2.32 0 0 1-3.291 0 2.35 2.35 0 0 1 0-3.312 2.32 2.32 0 0 1 1.646-.685zm-12.41 0a2.32 2.32 0 0 1 1.645.685 2.35 2.35 0 0 1 0 3.312 2.32 2.32 0 0 1-3.291 0 2.35 2.35 0 0 1 0-3.312 2.32 2.32 0 0 1 1.645-.685zm-12.41 0a2.32 2.32 0 0 1 1.646.685 2.35 2.35 0 0 1 0 3.312 2.32 2.32 0 0 1-3.291 0 2.35 2.35 0 0 1 0-3.312 2.32 2.32 0 0 1 1.645-.685zm-12.41 0a2.32 2.32 0 0 1 1.646.685 2.35 2.35 0 0 1 0 3.312 2.32 2.32 0 0 1-3.291 0 2.35 2.35 0 0 1 0-3.312 2.32 2.32 0 0 1 1.645-.685zm-12.41 0a2.32 2.32 0 0 1 1.646.685 2.35 2.35 0 0 1 0 3.312 2.32 2.32 0 0 1-3.291 0 2.35 2.35 0 0 1 0-3.312 2.32 2.32 0 0 1 1.646-.685zm-12.41 0a2.32 2.32 0 0 1 1.646.685 2.35 2.35 0 0 1 0 3.312 2.32 2.32 0 0 1-1.646.686 2.32 2.32 0 0 1-1.646-.686 2.35 2.35 0 0 1 0-3.312 2.32 2.32 0 0 1 1.646-.685zm74.467-12.488a2.32 2.32 0 0 1 1.645.686c.436.44.682 1.034.682 1.655a2.35 2.35 0 0 1-.682 1.656 2.32 2.32 0 0 1-3.291 0 2.35 2.35 0 0 1-.682-1.656c0-.62.245-1.216.682-1.655a2.32 2.32 0 0 1 1.645-.686zm-12.41 0a2.32 2.32 0 0 1 1.645.686c.436.44.682 1.034.682 1.655a2.35 2.35 0 0 1-.682 1.656 2.32 2.32 0 0 1-3.291 0 2.35 2.35 0 0 1-.682-1.656c0-.62.245-1.216.682-1.655a2.32 2.32 0 0 1 1.646-.686zm-12.41 0a2.32 2.32 0 0 1 1.645.686c.436.44.682 1.034.682 1.655a2.35 2.35 0 0 1-.682 1.656 2.32 2.32 0 0 1-3.291 0 2.35 2.35 0 0 1-.682-1.656c0-.62.245-1.216.682-1.655a2.32 2.32 0 0 1 1.645-.686zm-12.41 0a2.32 2.32 0 0 1 1.646.686c.436.44.682 1.034.682 1.655a2.35 2.35 0 0 1-.682 1.656 2.32 2.32 0 0 1-3.291 0 2.35 2.35 0 0 1-.682-1.656c0-.62.245-1.216.682-1.655a2.32 2.32 0 0 1 1.645-.686zm-12.41 0a2.32 2.32 0 0 1 1.646.686c.436.44.682 1.034.682 1.655a2.35 2.35 0 0 1-.682 1.656 2.32 2.32 0 0 1-3.291 0 2.35 2.35 0 0 1-.682-1.656c0-.62.245-1.216.682-1.655a2.32 2.32 0 0 1 1.645-.686zm-12.41 0a2.32 2.32 0 0 1 1.646.686c.436.44.682 1.034.682 1.655a2.35 2.35 0 0 1-.682 1.656 2.32 2.32 0 0 1-3.291 0 2.35 2.35 0 0 1-.682-1.656c0-.62.245-1.216.682-1.655a2.32 2.32 0 0 1 1.646-.686zm-12.41 0a2.32 2.32 0 0 1 1.646.686c.436.44.682 1.034.682 1.655a2.35 2.35 0 0 1-.682 1.656 2.32 2.32 0 0 1-1.646.686 2.32 2.32 0 0 1-1.646-.686A2.35 2.35 0 0 1 0 139.707c0-.62.245-1.216.682-1.655a2.32 2.32 0 0 1 1.646-.686zm74.467-12.488a2.32 2.32 0 0 1 1.645.686 2.35 2.35 0 0 1 .682 1.656c0 .62-.245 1.216-.682 1.655a2.32 2.32 0 0 1-3.291 0c-.436-.44-.682-1.034-.682-1.655a2.35 2.35 0 0 1 .682-1.656 2.32 2.32 0 0 1 1.645-.686zm-12.41 0a2.32 2.32 0 0 1 1.645.686 2.35 2.35 0 0 1 .682 1.656c0 .62-.245 1.216-.682 1.655a2.32 2.32 0 0 1-3.291 0c-.436-.44-.682-1.034-.682-1.655a2.35 2.35 0 0 1 .682-1.656 2.32 2.32 0 0 1 1.646-.686zm-12.41 0a2.32 2.32 0 0 1 1.645.686 2.35 2.35 0 0 1 .682 1.656c0 .62-.245 1.216-.682 1.655a2.32 2.32 0 0 1-3.291 0c-.437-.44-.682-1.034-.682-1.655a2.35 2.35 0 0 1 .682-1.656 2.32 2.32 0 0 1 1.645-.686zm-12.41 0a2.32 2.32 0 0 1 1.646.686 2.35 2.35 0 0 1 .682 1.656c0 .62-.245 1.216-.682 1.655a2.32 2.32 0 0 1-3.291 0c-.436-.44-.682-1.034-.682-1.655a2.35 2.35 0 0 1 .682-1.656 2.32 2.32 0 0 1 1.645-.686zm-12.41 0a2.32 2.32 0 0 1 1.646.686 2.35 2.35 0 0 1 .682 1.656c0 .62-.245 1.216-.682 1.655a2.32 2.32 0 0 1-3.291 0c-.436-.44-.682-1.034-.682-1.655a2.35 2.35 0 0 1 .682-1.656 2.32 2.32 0 0 1 1.645-.686zm-12.41 0a2.32 2.32 0 0 1 1.646.686 2.35 2.35 0 0 1 .682 1.656c0 .62-.245 1.216-.682 1.655a2.32 2.32 0 0 1-3.291 0c-.436-.44-.682-1.034-.682-1.655a2.35 2.35 0 0 1 .682-1.656 2.32 2.32 0 0 1 1.646-.686zm-12.41 0a2.32 2.32 0 0 1 1.646.686 2.35 2.35 0 0 1 .682 1.656c0 .62-.245 1.216-.682 1.655a2.32 2.32 0 0 1-1.646.686 2.32 2.32 0 0 1-1.646-.686C.245 128.436 0 127.84 0 127.22a2.35 2.35 0 0 1 .682-1.656 2.32 2.32 0 0 1 1.646-.686zM76.794 112.4a2.32 2.32 0 0 1 1.645.686 2.35 2.35 0 0 1 .682 1.656c0 .62-.245 1.216-.682 1.655a2.32 2.32 0 0 1-3.291 0c-.436-.44-.682-1.034-.682-1.655a2.35 2.35 0 0 1 .682-1.656 2.32 2.32 0 0 1 1.645-.686zm-12.41 0a2.32 2.32 0 0 1 1.645.686 2.35 2.35 0 0 1 .682 1.656c0 .62-.245 1.216-.682 1.655a2.32 2.32 0 0 1-3.291 0c-.436-.44-.682-1.034-.682-1.655a2.35 2.35 0 0 1 .682-1.656 2.32 2.32 0 0 1 1.646-.686zm-12.41 0a2.32 2.32 0 0 1 1.645.686 2.35 2.35 0 0 1 .682 1.656c0 .62-.245 1.216-.682 1.655a2.32 2.32 0 0 1-3.291 0c-.437-.44-.682-1.034-.682-1.655a2.35 2.35 0 0 1 .682-1.656 2.32 2.32 0 0 1 1.645-.686zm-12.41 0a2.32 2.32 0 0 1 1.646.686 2.35 2.35 0 0 1 .682 1.656c0 .62-.245 1.216-.682 1.655a2.32 2.32 0 0 1-3.291 0c-.436-.44-.682-1.034-.682-1.655a2.35 2.35 0 0 1 .682-1.656 2.32 2.32 0 0 1 1.645-.686zm-12.41 0a2.32 2.32 0 0 1 1.646.686 2.35 2.35 0 0 1 .682 1.656c0 .62-.245 1.216-.682 1.655a2.32 2.32 0 0 1-3.291 0c-.436-.44-.682-1.034-.682-1.655a2.35 2.35 0 0 1 .682-1.656 2.32 2.32 0 0 1 1.645-.686zm-12.41 0a2.32 2.32 0 0 1 1.646.686 2.35 2.35 0 0 1 .682 1.656c0 .62-.245 1.216-.682 1.655a2.32 2.32 0 0 1-3.291 0c-.436-.44-.682-1.034-.682-1.655a2.35 2.35 0 0 1 .682-1.656 2.32 2.32 0 0 1 1.646-.686zm-12.41 0a2.32 2.32 0 0 1 1.646.686 2.35 2.35 0 0 1 .682 1.656c0 .62-.245 1.216-.682 1.655a2.32 2.32 0 0 1-1.646.686 2.32 2.32 0 0 1-1.646-.686c-.436-.44-.682-1.034-.682-1.655a2.35 2.35 0 0 1 .682-1.656 2.32 2.32 0 0 1 1.646-.686zm74.467-12.488a2.32 2.32 0 0 1 1.645.686 2.35 2.35 0 0 1 0 3.312 2.32 2.32 0 0 1-3.291 0 2.35 2.35 0 0 1 0-3.312 2.32 2.32 0 0 1 1.645-.686h0zm-12.41 0a2.32 2.32 0 0 1 1.645.686 2.35 2.35 0 0 1 0 3.312 2.32 2.32 0 0 1-3.291 0 2.35 2.35 0 0 1 0-3.312 2.32 2.32 0 0 1 1.646-.686h0zm-12.41 0a2.32 2.32 0 0 1 1.645.686 2.35 2.35 0 0 1 0 3.312 2.32 2.32 0 0 1-3.291 0 2.35 2.35 0 0 1 0-3.312 2.32 2.32 0 0 1 1.645-.686h0zm-12.41 0a2.32 2.32 0 0 1 1.646.686 2.35 2.35 0 0 1 0 3.312 2.32 2.32 0 0 1-3.291 0 2.35 2.35 0 0 1 0-3.312 2.32 2.32 0 0 1 1.645-.686h0zm-12.41 0a2.32 2.32 0 0 1 1.646.686 2.35 2.35 0 0 1 0 3.312 2.32 2.32 0 0 1-3.291 0 2.35 2.35 0 0 1 0-3.312 2.32 2.32 0 0 1 1.645-.686h0zm-12.41 0a2.32 2.32 0 0 1 1.646.686 2.35 2.35 0 0 1 0 3.312 2.32 2.32 0 0 1-3.291 0 2.35 2.35 0 0 1 0-3.312 2.32 2.32 0 0 1 1.646-.686h0zm-12.41 0a2.32 2.32 0 0 1 1.646.686 2.35 2.35 0 0 1 0 3.312 2.32 2.32 0 0 1-3.291 0 2.35 2.35 0 0 1 0-3.312 2.32 2.32 0 0 1 1.646-.686h0z"/><path d="M163.673 87.415a2.32 2.32 0 0 1 1.645.686c.437.44.682 1.035.682 1.656s-.245 1.216-.682 1.656a2.32 2.32 0 0 1-1.645.686c-.617 0-1.21-.247-1.646-.686a2.35 2.35 0 0 1 0-3.311c.437-.44 1.03-.686 1.646-.686zm-12.41 0a2.32 2.32 0 0 1 1.645.686c.437.44.682 1.035.682 1.656s-.245 1.216-.682 1.656a2.32 2.32 0 0 1-3.291 0 2.35 2.35 0 0 1 0-3.311 2.32 2.32 0 0 1 1.646-.686zm-12.412 0a2.32 2.32 0 0 1 1.646.686 2.35 2.35 0 0 1 0 3.311 2.32 2.32 0 0 1-3.291 0c-.437-.44-.682-1.035-.682-1.656s.245-1.217.682-1.656a2.32 2.32 0 0 1 1.645-.686zm-12.41 0c.617 0 1.21.247 1.646.686a2.35 2.35 0 0 1 0 3.311c-.437.44-1.03.686-1.646.686a2.32 2.32 0 0 1-1.645-.686c-.437-.44-.682-1.035-.682-1.656s.245-1.217.682-1.656a2.32 2.32 0 0 1 1.645-.686zm-12.41 0a2.32 2.32 0 0 1 1.645.686c.437.44.682 1.035.682 1.656s-.245 1.216-.682 1.656a2.32 2.32 0 0 1-1.645.686c-.617 0-1.21-.247-1.646-.686a2.35 2.35 0 0 1 0-3.311c.437-.44 1.03-.686 1.646-.686zm-12.41 0a2.32 2.32 0 0 1 1.645.686c.437.44.682 1.035.682 1.656s-.245 1.216-.682 1.656a2.32 2.32 0 0 1-3.291 0 2.35 2.35 0 0 1 0-3.311 2.32 2.32 0 0 1 1.646-.686zm-12.412 0a2.32 2.32 0 0 1 1.645.686 2.35 2.35 0 0 1 0 3.311 2.32 2.32 0 0 1-3.291 0 2.35 2.35 0 0 1 0-3.311 2.32 2.32 0 0 1 1.645-.686zm74.468-12.488a2.32 2.32 0 0 1 1.645.686c.437.44.682 1.035.682 1.656s-.245 1.217-.682 1.656a2.32 2.32 0 0 1-1.645.686c-.617 0-1.21-.247-1.646-.686a2.35 2.35 0 0 1 0-3.311c.437-.44 1.03-.686 1.646-.686zm-12.41 0a2.32 2.32 0 0 1 1.645.686c.437.44.682 1.035.682 1.656s-.245 1.217-.682 1.656a2.32 2.32 0 0 1-3.291 0 2.35 2.35 0 0 1 0-3.311 2.32 2.32 0 0 1 1.646-.686zm-12.412 0a2.32 2.32 0 0 1 1.646.686 2.35 2.35 0 0 1 0 3.311 2.32 2.32 0 0 1-3.291 0c-.437-.44-.682-1.035-.682-1.656s.245-1.217.682-1.656a2.32 2.32 0 0 1 1.645-.686zm-12.41 0c.617 0 1.21.247 1.646.686a2.35 2.35 0 0 1 0 3.311c-.437.44-1.03.686-1.646.686a2.32 2.32 0 0 1-1.645-.686c-.437-.44-.682-1.035-.682-1.656s.245-1.217.682-1.656a2.32 2.32 0 0 1 1.645-.686zm-12.41 0a2.32 2.32 0 0 1 1.645.686c.437.44.682 1.035.682 1.656s-.245 1.217-.682 1.656a2.32 2.32 0 0 1-1.645.686c-.617 0-1.21-.247-1.646-.686a2.35 2.35 0 0 1 0-3.311c.437-.44 1.03-.686 1.646-.686zm-12.41 0a2.32 2.32 0 0 1 1.645.686c.437.44.682 1.035.682 1.656s-.245 1.217-.682 1.656a2.32 2.32 0 0 1-3.291 0 2.35 2.35 0 0 1 0-3.311 2.32 2.32 0 0 1 1.646-.686zm-12.412 0a2.32 2.32 0 0 1 1.645.686 2.35 2.35 0 0 1 0 3.311 2.32 2.32 0 0 1-3.291 0 2.35 2.35 0 0 1 0-3.311 2.32 2.32 0 0 1 1.645-.686zm74.468-12.488a2.32 2.32 0 0 1 1.645.686c.437.44.682 1.035.682 1.656s-.245 1.216-.682 1.656a2.32 2.32 0 0 1-3.291 0 2.35 2.35 0 0 1 0-3.311c.437-.44 1.03-.686 1.646-.686zm-12.41 0a2.32 2.32 0 0 1 1.645.686c.437.44.682 1.035.682 1.656s-.245 1.216-.682 1.656a2.32 2.32 0 0 1-3.291 0 2.35 2.35 0 0 1 0-3.311 2.32 2.32 0 0 1 1.646-.686zm-12.412 0a2.32 2.32 0 0 1 1.646.686 2.35 2.35 0 0 1 0 3.311 2.32 2.32 0 0 1-3.291 0c-.437-.44-.682-1.035-.682-1.656s.245-1.217.682-1.656a2.32 2.32 0 0 1 1.645-.686zm-12.41 0c.617 0 1.21.247 1.646.686a2.35 2.35 0 0 1 0 3.311 2.32 2.32 0 0 1-3.291 0c-.437-.44-.682-1.035-.682-1.656s.245-1.217.682-1.656a2.32 2.32 0 0 1 1.645-.686zm-12.41 0a2.32 2.32 0 0 1 1.645.686c.437.44.682 1.035.682 1.656s-.245 1.216-.682 1.656a2.32 2.32 0 0 1-3.291 0 2.35 2.35 0 0 1 0-3.311c.437-.44 1.03-.686 1.646-.686zm-12.41 0a2.32 2.32 0 0 1 1.645.686c.437.44.682 1.035.682 1.656s-.245 1.216-.682 1.656a2.32 2.32 0 0 1-3.291 0 2.35 2.35 0 0 1 0-3.311 2.32 2.32 0 0 1 1.646-.686zm-12.412 0a2.32 2.32 0 0 1 1.645.686 2.35 2.35 0 0 1 0 3.311 2.32 2.32 0 0 1-3.291 0 2.35 2.35 0 0 1 0-3.311 2.32 2.32 0 0 1 1.645-.686zm74.468-12.488a2.32 2.32 0 0 1 1.645.686c.437.44.682 1.035.682 1.656s-.245 1.216-.682 1.656a2.32 2.32 0 0 1-3.291 0 2.35 2.35 0 0 1 0-3.311c.437-.44 1.03-.686 1.646-.686zm-12.41 0a2.32 2.32 0 0 1 1.645.686c.437.44.682 1.035.682 1.656s-.245 1.216-.682 1.656a2.32 2.32 0 0 1-3.291 0 2.35 2.35 0 0 1 0-3.311 2.32 2.32 0 0 1 1.646-.686zm-12.412 0a2.32 2.32 0 0 1 1.646.686 2.35 2.35 0 0 1 0 3.311 2.32 2.32 0 0 1-3.291 0c-.437-.44-.682-1.035-.682-1.656s.245-1.217.682-1.656a2.32 2.32 0 0 1 1.645-.686zm-12.41 0c.617 0 1.21.247 1.646.686a2.35 2.35 0 0 1 0 3.311 2.32 2.32 0 0 1-3.291 0c-.437-.44-.682-1.035-.682-1.656s.245-1.217.682-1.656a2.32 2.32 0 0 1 1.645-.686zm-12.41 0a2.32 2.32 0 0 1 1.645.686c.437.44.682 1.035.682 1.656s-.245 1.216-.682 1.656a2.32 2.32 0 0 1-3.291 0 2.35 2.35 0 0 1 0-3.311c.437-.44 1.03-.686 1.646-.686zm-12.41 0a2.32 2.32 0 0 1 1.645.686c.437.44.682 1.035.682 1.656s-.245 1.216-.682 1.656a2.32 2.32 0 0 1-3.291 0 2.35 2.35 0 0 1 0-3.311 2.32 2.32 0 0 1 1.646-.686zm-12.412 0a2.32 2.32 0 0 1 1.645.686 2.35 2.35 0 0 1 0 3.311 2.32 2.32 0 0 1-3.291 0 2.35 2.35 0 0 1 0-3.311 2.32 2.32 0 0 1 1.645-.686zm74.468-12.488a2.32 2.32 0 0 1 1.645.686c.437.44.682 1.035.682 1.656s-.245 1.216-.682 1.656a2.32 2.32 0 0 1-3.291 0 2.35 2.35 0 0 1 0-3.311c.437-.44 1.03-.686 1.646-.686zm-12.41 0a2.32 2.32 0 0 1 1.645.686c.437.44.682 1.035.682 1.656s-.245 1.216-.682 1.656a2.32 2.32 0 0 1-3.291 0 2.35 2.35 0 0 1 0-3.311 2.32 2.32 0 0 1 1.646-.686zm-12.412 0a2.32 2.32 0 0 1 1.646.686 2.35 2.35 0 0 1 0 3.311 2.32 2.32 0 0 1-3.291 0c-.437-.44-.682-1.035-.682-1.656s.245-1.217.682-1.656a2.32 2.32 0 0 1 1.645-.686zm-12.41 0c.617 0 1.21.247 1.646.686a2.35 2.35 0 0 1 0 3.311 2.32 2.32 0 0 1-3.291 0c-.437-.44-.682-1.035-.682-1.656s.245-1.217.682-1.656a2.32 2.32 0 0 1 1.645-.686zm-12.41 0a2.32 2.32 0 0 1 1.645.686c.437.44.682 1.035.682 1.656s-.245 1.216-.682 1.656a2.32 2.32 0 0 1-3.291 0 2.35 2.35 0 0 1 0-3.311c.437-.44 1.03-.686 1.646-.686zm-12.41 0a2.32 2.32 0 0 1 1.645.686c.437.44.682 1.035.682 1.656s-.245 1.216-.682 1.656a2.32 2.32 0 0 1-3.291 0 2.35 2.35 0 0 1 0-3.311 2.32 2.32 0 0 1 1.646-.686zm-12.412 0a2.32 2.32 0 0 1 1.645.686 2.35 2.35 0 0 1 0 3.311 2.32 2.32 0 0 1-3.291 0 2.35 2.35 0 0 1 0-3.311 2.32 2.32 0 0 1 1.645-.686zm74.468-12.488a2.32 2.32 0 0 1 1.645.686c.437.44.682 1.035.682 1.656s-.245 1.217-.682 1.656a2.32 2.32 0 0 1-1.645.686c-.617 0-1.21-.247-1.646-.686a2.35 2.35 0 0 1 0-3.311c.437-.44 1.03-.686 1.646-.686zm-12.41 0a2.32 2.32 0 0 1 1.645.686c.437.44.682 1.035.682 1.656s-.245 1.217-.682 1.656a2.32 2.32 0 0 1-3.291 0 2.35 2.35 0 0 1 0-3.311 2.32 2.32 0 0 1 1.646-.686zm-12.412 0a2.32 2.32 0 0 1 1.646.686 2.35 2.35 0 0 1 0 3.311 2.32 2.32 0 0 1-3.291 0c-.437-.44-.682-1.035-.682-1.656s.245-1.217.682-1.656a2.32 2.32 0 0 1 1.645-.686zm-12.41 0c.617 0 1.21.247 1.646.686a2.35 2.35 0 0 1 0 3.311c-.437.44-1.03.686-1.646.686a2.32 2.32 0 0 1-1.645-.686c-.437-.44-.682-1.035-.682-1.656s.245-1.217.682-1.656a2.32 2.32 0 0 1 1.645-.686zm-12.41 0a2.32 2.32 0 0 1 1.645.686c.437.44.682 1.035.682 1.656s-.245 1.217-.682 1.656a2.32 2.32 0 0 1-1.645.686c-.617 0-1.21-.247-1.646-.686a2.35 2.35 0 0 1 0-3.311c.437-.44 1.03-.686 1.646-.686zm-12.41 0a2.32 2.32 0 0 1 1.645.686c.437.44.682 1.035.682 1.656s-.245 1.217-.682 1.656a2.32 2.32 0 0 1-3.291 0 2.35 2.35 0 0 1 0-3.311 2.32 2.32 0 0 1 1.646-.686zm-12.412 0a2.32 2.32 0 0 1 1.645.686 2.35 2.35 0 0 1 0 3.311 2.32 2.32 0 0 1-3.291 0 2.35 2.35 0 0 1 0-3.311 2.32 2.32 0 0 1 1.645-.686zm74.468-12.488a2.32 2.32 0 0 1 1.645.686c.437.44.682 1.035.682 1.656s-.245 1.217-.682 1.656a2.32 2.32 0 0 1-1.645.686c-.617 0-1.21-.247-1.646-.686a2.35 2.35 0 0 1 0-3.311c.437-.44 1.03-.686 1.646-.686zm-12.41 0a2.32 2.32 0 0 1 1.645.686c.437.44.682 1.035.682 1.656s-.245 1.217-.682 1.656a2.32 2.32 0 0 1-3.291 0 2.35 2.35 0 0 1 0-3.311 2.32 2.32 0 0 1 1.646-.686zm-12.412 0a2.32 2.32 0 0 1 1.646.686 2.35 2.35 0 0 1 0 3.311 2.32 2.32 0 0 1-3.291 0c-.437-.44-.682-1.035-.682-1.656s.245-1.217.682-1.656a2.32 2.32 0 0 1 1.645-.686zm-12.41 0c.617 0 1.21.247 1.646.686a2.35 2.35 0 0 1 0 3.311c-.437.44-1.03.686-1.646.686a2.32 2.32 0 0 1-1.645-.686c-.437-.44-.682-1.035-.682-1.656s.245-1.217.682-1.656a2.32 2.32 0 0 1 1.645-.686zm-12.41 0a2.32 2.32 0 0 1 1.645.686c.437.44.682 1.035.682 1.656s-.245 1.217-.682 1.656a2.32 2.32 0 0 1-1.645.686c-.617 0-1.21-.247-1.646-.686a2.35 2.35 0 0 1 0-3.311c.437-.44 1.03-.686 1.646-.686zm-12.41 0a2.32 2.32 0 0 1 1.645.686c.437.44.682 1.035.682 1.656s-.245 1.217-.682 1.656a2.32 2.32 0 0 1-3.291 0 2.35 2.35 0 0 1 0-3.311 2.32 2.32 0 0 1 1.646-.686zm-12.412 0a2.32 2.32 0 0 1 1.645.686 2.35 2.35 0 0 1 0 3.311 2.32 2.32 0 0 1-3.291 0 2.35 2.35 0 0 1 0-3.311 2.32 2.32 0 0 1 1.645-.686zM163.673 0a2.32 2.32 0 0 1 1.645.686c.437.44.682 1.035.682 1.656s-.245 1.217-.682 1.656a2.32 2.32 0 0 1-1.645.686c-.617 0-1.21-.247-1.646-.686a2.35 2.35 0 0 1-.681-1.656 2.35 2.35 0 0 1 .681-1.656c.437-.44 1.03-.686 1.646-.686h0zm-12.41 0a2.32 2.32 0 0 1 1.645.686c.437.44.682 1.035.682 1.656s-.245 1.217-.682 1.656a2.32 2.32 0 0 1-3.291 0 2.35 2.35 0 0 1 0-3.311A2.32 2.32 0 0 1 151.262 0h0zM138.85 0a2.32 2.32 0 0 1 1.646.686 2.35 2.35 0 0 1 .681 1.656 2.35 2.35 0 0 1-.681 1.656 2.32 2.32 0 0 1-3.291 0c-.437-.44-.682-1.035-.682-1.656s.245-1.217.682-1.656A2.32 2.32 0 0 1 138.85 0h0zm-12.41 0c.617 0 1.21.247 1.646.686a2.35 2.35 0 0 1 .681 1.656 2.35 2.35 0 0 1-.681 1.656c-.437.44-1.03.686-1.646.686a2.32 2.32 0 0 1-1.645-.686c-.437-.44-.682-1.035-.682-1.656s.245-1.217.682-1.656A2.32 2.32 0 0 1 126.439 0h0zm-12.41 0a2.32 2.32 0 0 1 1.645.686c.437.44.682 1.035.682 1.656s-.245 1.217-.682 1.656a2.32 2.32 0 0 1-1.645.686c-.617 0-1.21-.247-1.646-.686a2.35 2.35 0 0 1-.681-1.656 2.35 2.35 0 0 1 .681-1.656c.437-.44 1.03-.686 1.646-.686h0zm-12.41 0a2.32 2.32 0 0 1 1.645.686c.437.44.682 1.035.682 1.656s-.245 1.217-.682 1.656a2.32 2.32 0 0 1-1.645.686 2.32 2.32 0 0 1-1.646-.686 2.35 2.35 0 0 1 0-3.311A2.32 2.32 0 0 1 101.617 0h0zM89.206 0a2.32 2.32 0 0 1 1.645.686 2.35 2.35 0 0 1 0 3.311 2.32 2.32 0 0 1-3.291 0 2.35 2.35 0 0 1 0-3.311A2.32 2.32 0 0 1 89.206 0h0z"/><path d="M163.673 187.317a2.32 2.32 0 0 1 1.645.686c.437.44.682 1.035.682 1.656s-.245 1.216-.682 1.655a2.32 2.32 0 0 1-1.645.686c-.617 0-1.21-.247-1.646-.686a2.35 2.35 0 0 1 0-3.311c.437-.44 1.03-.686 1.646-.686zm-12.41 0a2.32 2.32 0 0 1 1.645.686c.437.44.682 1.035.682 1.656s-.245 1.216-.682 1.655a2.32 2.32 0 0 1-3.291 0 2.35 2.35 0 0 1 0-3.311 2.32 2.32 0 0 1 1.646-.686zm-12.412 0a2.32 2.32 0 0 1 1.646.686 2.35 2.35 0 0 1 0 3.311 2.32 2.32 0 0 1-3.291 0c-.437-.44-.682-1.034-.682-1.655s.245-1.217.682-1.656a2.32 2.32 0 0 1 1.645-.686zm-12.41 0c.617 0 1.21.247 1.646.686a2.35 2.35 0 0 1 0 3.311c-.437.44-1.03.686-1.646.686a2.32 2.32 0 0 1-1.645-.686c-.437-.44-.682-1.034-.682-1.655s.245-1.217.682-1.656a2.32 2.32 0 0 1 1.645-.686zm-12.41 0a2.32 2.32 0 0 1 1.645.686c.437.44.682 1.035.682 1.656s-.245 1.216-.682 1.655a2.32 2.32 0 0 1-1.645.686c-.617 0-1.21-.247-1.646-.686a2.35 2.35 0 0 1 0-3.311c.437-.44 1.03-.686 1.646-.686zm-12.41 0a2.32 2.32 0 0 1 1.645.686c.437.44.682 1.035.682 1.656s-.245 1.216-.682 1.655a2.32 2.32 0 0 1-3.291 0c-.436-.44-.682-1.034-.682-1.655a2.35 2.35 0 0 1 .682-1.656 2.32 2.32 0 0 1 1.646-.686zm-12.412 0a2.32 2.32 0 0 1 1.645.686 2.35 2.35 0 0 1 .682 1.656c0 .62-.245 1.216-.682 1.655a2.32 2.32 0 0 1-3.291 0c-.436-.44-.682-1.034-.682-1.655a2.35 2.35 0 0 1 .682-1.656 2.32 2.32 0 0 1 1.645-.686zm74.468-12.488a2.32 2.32 0 0 1 1.645.686c.437.44.682 1.035.682 1.656s-.245 1.216-.682 1.655-1.028.686-1.645.686a2.32 2.32 0 0 1-1.646-.686 2.35 2.35 0 0 1 0-3.311c.437-.44 1.03-.686 1.646-.686zm-12.41 0a2.32 2.32 0 0 1 1.645.686c.437.44.682 1.035.682 1.656s-.245 1.216-.682 1.655-1.028.686-1.645.686-1.2-.246-1.646-.686a2.35 2.35 0 0 1 0-3.311 2.32 2.32 0 0 1 1.646-.686zm-12.412 0a2.32 2.32 0 0 1 1.646.686 2.35 2.35 0 0 1 0 3.311c-.437.44-1.028.686-1.646.686s-1.21-.246-1.645-.686-.682-1.034-.682-1.655.245-1.217.682-1.656a2.32 2.32 0 0 1 1.645-.686zm-12.41 0c.617 0 1.21.247 1.646.686a2.35 2.35 0 0 1 0 3.311 2.32 2.32 0 0 1-1.646.686c-.617 0-1.21-.246-1.645-.686s-.682-1.034-.682-1.655.245-1.217.682-1.656a2.32 2.32 0 0 1 1.645-.686zm-12.41 0a2.32 2.32 0 0 1 1.645.686c.437.44.682 1.035.682 1.656s-.245 1.216-.682 1.655-1.028.686-1.645.686a2.32 2.32 0 0 1-1.646-.686 2.35 2.35 0 0 1 0-3.311c.437-.44 1.03-.686 1.646-.686zm-12.41 0a2.32 2.32 0 0 1 1.645.686c.437.44.682 1.035.682 1.656s-.245 1.216-.682 1.655-1.028.686-1.645.686a2.32 2.32 0 0 1-1.646-.686c-.436-.44-.682-1.034-.682-1.655a2.35 2.35 0 0 1 .682-1.656 2.32 2.32 0 0 1 1.646-.686zm-12.412 0a2.32 2.32 0 0 1 1.645.686 2.35 2.35 0 0 1 .682 1.656c0 .62-.245 1.216-.682 1.655s-1.028.686-1.645.686-1.21-.246-1.645-.686-.682-1.034-.682-1.655a2.35 2.35 0 0 1 .682-1.656 2.32 2.32 0 0 1 1.645-.686zm74.468-12.488a2.32 2.32 0 0 1 1.645.686c.437.44.682 1.035.682 1.656a2.35 2.35 0 0 1-.682 1.656 2.32 2.32 0 0 1-3.291 0 2.35 2.35 0 0 1 0-3.312c.437-.44 1.03-.686 1.646-.686zm-12.41 0a2.32 2.32 0 0 1 1.645.686c.437.44.682 1.035.682 1.656a2.35 2.35 0 0 1-.682 1.656 2.32 2.32 0 0 1-3.291 0c-.436-.44-.682-1.035-.682-1.656a2.35 2.35 0 0 1 .682-1.656 2.32 2.32 0 0 1 1.646-.686zm-12.412 0a2.32 2.32 0 0 1 1.646.686 2.35 2.35 0 0 1 0 3.312 2.32 2.32 0 0 1-3.291 0 2.35 2.35 0 0 1-.682-1.656c0-.62.245-1.217.682-1.656a2.32 2.32 0 0 1 1.645-.686zm-12.41 0c.617 0 1.21.247 1.646.686a2.35 2.35 0 0 1 0 3.312 2.32 2.32 0 0 1-3.291 0 2.35 2.35 0 0 1-.682-1.656c0-.62.245-1.217.682-1.656a2.32 2.32 0 0 1 1.645-.686zm-12.41 0a2.32 2.32 0 0 1 1.645.686c.437.44.682 1.035.682 1.656a2.35 2.35 0 0 1-.682 1.656 2.32 2.32 0 0 1-3.291 0 2.35 2.35 0 0 1 0-3.312c.437-.44 1.03-.686 1.646-.686zm-12.41 0a2.32 2.32 0 0 1 1.645.686c.437.44.682 1.035.682 1.656a2.35 2.35 0 0 1-.682 1.656 2.32 2.32 0 0 1-3.291 0 2.35 2.35 0 0 1 0-3.312 2.32 2.32 0 0 1 1.646-.686zm-12.412 0a2.32 2.32 0 0 1 1.645.686 2.35 2.35 0 0 1 0 3.312 2.32 2.32 0 0 1-3.291 0 2.35 2.35 0 0 1 0-3.312 2.32 2.32 0 0 1 1.645-.686zm74.468-12.487a2.32 2.32 0 0 1 1.645.685 2.35 2.35 0 0 1 .682 1.656c0 .62-.245 1.217-.682 1.656a2.32 2.32 0 0 1-1.645.686c-.617 0-1.21-.247-1.646-.686a2.35 2.35 0 0 1 0-3.312 2.32 2.32 0 0 1 1.646-.685zm-12.41 0a2.32 2.32 0 0 1 1.645.685 2.35 2.35 0 0 1 .682 1.656c0 .62-.245 1.217-.682 1.656a2.32 2.32 0 0 1-3.291 0 2.35 2.35 0 0 1-.682-1.656c0-.62.246-1.216.682-1.656a2.32 2.32 0 0 1 1.646-.685zm-12.412 0a2.32 2.32 0 0 1 1.646.685 2.35 2.35 0 0 1 0 3.312 2.32 2.32 0 0 1-3.291 0c-.437-.44-.682-1.035-.682-1.656a2.35 2.35 0 0 1 .682-1.656 2.32 2.32 0 0 1 1.645-.685zm-12.41 0a2.32 2.32 0 0 1 1.646.685 2.35 2.35 0 0 1 0 3.312c-.437.44-1.03.686-1.646.686a2.32 2.32 0 0 1-1.645-.686c-.437-.44-.682-1.035-.682-1.656a2.35 2.35 0 0 1 .682-1.656 2.32 2.32 0 0 1 1.645-.685zm-12.41 0a2.32 2.32 0 0 1 1.645.685 2.35 2.35 0 0 1 .682 1.656c0 .62-.245 1.217-.682 1.656a2.32 2.32 0 0 1-1.645.686c-.617 0-1.21-.247-1.646-.686a2.35 2.35 0 0 1 0-3.312 2.32 2.32 0 0 1 1.646-.685zm-12.41 0a2.32 2.32 0 0 1 1.645.685 2.35 2.35 0 0 1 .682 1.656c0 .62-.245 1.217-.682 1.656a2.32 2.32 0 0 1-3.291 0 2.35 2.35 0 0 1 0-3.312 2.32 2.32 0 0 1 1.646-.685zm-12.412 0a2.32 2.32 0 0 1 1.645.685 2.35 2.35 0 0 1 0 3.312 2.32 2.32 0 0 1-3.291 0 2.35 2.35 0 0 1 0-3.312 2.32 2.32 0 0 1 1.645-.685zm74.468-12.488a2.32 2.32 0 0 1 1.645.686c.437.44.682 1.034.682 1.655s-.245 1.217-.682 1.656a2.32 2.32 0 0 1-1.645.686c-.617 0-1.21-.247-1.646-.686a2.35 2.35 0 0 1 0-3.311c.437-.44 1.03-.686 1.646-.686zm-12.41 0a2.32 2.32 0 0 1 1.645.686c.437.44.682 1.034.682 1.655s-.245 1.217-.682 1.656a2.32 2.32 0 0 1-3.291 0 2.35 2.35 0 0 1 0-3.311 2.32 2.32 0 0 1 1.646-.686zm-12.412 0a2.32 2.32 0 0 1 1.646.686 2.35 2.35 0 0 1 0 3.311 2.32 2.32 0 0 1-3.291 0c-.437-.44-.682-1.035-.682-1.656s.245-1.216.682-1.655a2.32 2.32 0 0 1 1.645-.686zm-12.41 0c.617 0 1.21.247 1.646.686a2.35 2.35 0 0 1 0 3.311c-.437.44-1.03.686-1.646.686a2.32 2.32 0 0 1-1.645-.686c-.437-.44-.682-1.035-.682-1.656s.245-1.216.682-1.655a2.32 2.32 0 0 1 1.645-.686zm-12.41 0a2.32 2.32 0 0 1 1.645.686c.437.44.682 1.034.682 1.655s-.245 1.217-.682 1.656a2.32 2.32 0 0 1-1.645.686c-.617 0-1.21-.247-1.646-.686a2.35 2.35 0 0 1 0-3.311c.437-.44 1.03-.686 1.646-.686zm-12.41 0a2.32 2.32 0 0 1 1.645.686c.437.44.682 1.034.682 1.655s-.245 1.217-.682 1.656a2.32 2.32 0 0 1-3.291 0 2.35 2.35 0 0 1-.682-1.656c0-.62.245-1.216.682-1.655a2.32 2.32 0 0 1 1.646-.686zm-12.412 0a2.32 2.32 0 0 1 1.645.686c.436.44.682 1.034.682 1.655a2.35 2.35 0 0 1-.682 1.656 2.32 2.32 0 0 1-3.291 0 2.35 2.35 0 0 1-.682-1.656c0-.62.245-1.216.682-1.655a2.32 2.32 0 0 1 1.645-.686zm74.468-12.488a2.32 2.32 0 0 1 1.645.686c.437.44.682 1.035.682 1.656s-.245 1.216-.682 1.655a2.32 2.32 0 0 1-1.645.686c-.617 0-1.21-.247-1.646-.686a2.35 2.35 0 0 1 0-3.311c.437-.44 1.03-.686 1.646-.686zm-12.41 0a2.32 2.32 0 0 1 1.645.686c.437.44.682 1.035.682 1.656s-.245 1.216-.682 1.655a2.32 2.32 0 0 1-3.291 0 2.35 2.35 0 0 1 0-3.311 2.32 2.32 0 0 1 1.646-.686zm-12.412 0a2.32 2.32 0 0 1 1.646.686 2.35 2.35 0 0 1 0 3.311 2.32 2.32 0 0 1-3.291 0c-.437-.44-.682-1.034-.682-1.655s.245-1.217.682-1.656a2.32 2.32 0 0 1 1.645-.686zm-12.41 0c.617 0 1.21.247 1.646.686a2.35 2.35 0 0 1 0 3.311c-.437.44-1.03.686-1.646.686a2.32 2.32 0 0 1-1.645-.686c-.437-.44-.682-1.034-.682-1.655s.245-1.217.682-1.656a2.32 2.32 0 0 1 1.645-.686zm-12.41 0a2.32 2.32 0 0 1 1.645.686c.437.44.682 1.035.682 1.656s-.245 1.216-.682 1.655a2.32 2.32 0 0 1-1.645.686c-.617 0-1.21-.247-1.646-.686a2.35 2.35 0 0 1 0-3.311c.437-.44 1.03-.686 1.646-.686zm-12.41 0a2.32 2.32 0 0 1 1.645.686c.437.44.682 1.035.682 1.656s-.245 1.216-.682 1.655a2.32 2.32 0 0 1-3.291 0c-.436-.44-.682-1.034-.682-1.655a2.35 2.35 0 0 1 .682-1.656 2.32 2.32 0 0 1 1.646-.686zm-12.412 0a2.32 2.32 0 0 1 1.645.686 2.35 2.35 0 0 1 .682 1.656c0 .62-.245 1.216-.682 1.655a2.32 2.32 0 0 1-3.291 0c-.436-.44-.682-1.034-.682-1.655a2.35 2.35 0 0 1 .682-1.656 2.32 2.32 0 0 1 1.645-.686zm74.468-12.488a2.32 2.32 0 0 1 1.645.686c.437.44.682 1.035.682 1.656s-.245 1.216-.682 1.655a2.32 2.32 0 0 1-1.645.686c-.617 0-1.21-.247-1.646-.686a2.35 2.35 0 0 1 0-3.311c.437-.44 1.03-.686 1.646-.686zm-12.41 0a2.32 2.32 0 0 1 1.645.686c.437.44.682 1.035.682 1.656s-.245 1.216-.682 1.655a2.32 2.32 0 0 1-3.291 0 2.35 2.35 0 0 1 0-3.311 2.32 2.32 0 0 1 1.646-.686zm-12.412 0a2.32 2.32 0 0 1 1.646.686 2.35 2.35 0 0 1 0 3.311 2.32 2.32 0 0 1-3.291 0c-.437-.44-.682-1.034-.682-1.655s.245-1.217.682-1.656a2.32 2.32 0 0 1 1.645-.686zm-12.41 0c.617 0 1.21.247 1.646.686a2.35 2.35 0 0 1 0 3.311c-.437.44-1.03.686-1.646.686a2.32 2.32 0 0 1-1.645-.686c-.437-.44-.682-1.034-.682-1.655s.245-1.217.682-1.656a2.32 2.32 0 0 1 1.645-.686zm-12.41 0a2.32 2.32 0 0 1 1.645.686c.437.44.682 1.035.682 1.656s-.245 1.216-.682 1.655a2.32 2.32 0 0 1-1.645.686c-.617 0-1.21-.247-1.646-.686a2.35 2.35 0 0 1 0-3.311c.437-.44 1.03-.686 1.646-.686zm-12.41 0a2.32 2.32 0 0 1 1.645.686c.437.44.682 1.035.682 1.656s-.245 1.216-.682 1.655a2.32 2.32 0 0 1-3.291 0c-.436-.44-.682-1.034-.682-1.655a2.35 2.35 0 0 1 .682-1.656 2.32 2.32 0 0 1 1.646-.686zm-12.412 0a2.32 2.32 0 0 1 1.645.686 2.35 2.35 0 0 1 .682 1.656c0 .62-.245 1.216-.682 1.655a2.32 2.32 0 0 1-3.291 0c-.436-.44-.682-1.034-.682-1.655a2.35 2.35 0 0 1 .682-1.656 2.32 2.32 0 0 1 1.645-.686zm74.468-12.488a2.32 2.32 0 0 1 1.645.686c.437.44.682 1.035.682 1.656a2.35 2.35 0 0 1-.682 1.656 2.32 2.32 0 0 1-3.291 0 2.35 2.35 0 0 1 0-3.312c.437-.44 1.03-.686 1.646-.686h0zm-12.41 0a2.32 2.32 0 0 1 1.645.686c.437.44.682 1.035.682 1.656a2.35 2.35 0 0 1-.682 1.656 2.32 2.32 0 0 1-3.291 0c-.436-.44-.682-1.035-.682-1.656a2.35 2.35 0 0 1 .682-1.656 2.32 2.32 0 0 1 1.646-.686h0zm-12.412 0a2.32 2.32 0 0 1 1.646.686 2.35 2.35 0 0 1 0 3.312 2.32 2.32 0 0 1-3.291 0 2.35 2.35 0 0 1-.682-1.656c0-.62.245-1.217.682-1.656a2.32 2.32 0 0 1 1.645-.686h0zm-12.41 0c.617 0 1.21.247 1.646.686a2.35 2.35 0 0 1 0 3.312 2.32 2.32 0 0 1-3.291 0 2.35 2.35 0 0 1-.682-1.656c0-.62.245-1.217.682-1.656a2.32 2.32 0 0 1 1.645-.686h0zm-12.41 0a2.32 2.32 0 0 1 1.645.686c.437.44.682 1.035.682 1.656a2.35 2.35 0 0 1-.682 1.656 2.32 2.32 0 0 1-3.291 0 2.35 2.35 0 0 1 0-3.312c.437-.44 1.03-.686 1.646-.686h0zm-12.41 0a2.32 2.32 0 0 1 1.645.686c.437.44.682 1.035.682 1.656a2.35 2.35 0 0 1-.682 1.656 2.32 2.32 0 0 1-3.291 0 2.35 2.35 0 0 1 0-3.312 2.32 2.32 0 0 1 1.646-.686h0zm-12.412 0a2.32 2.32 0 0 1 1.645.686 2.35 2.35 0 0 1 0 3.312 2.32 2.32 0 0 1-3.291 0 2.35 2.35 0 0 1 0-3.312 2.32 2.32 0 0 1 1.645-.686h0z"/></svg>