<svg xmlns="http://www.w3.org/2000/svg" width="166" height="192" fill="#f9fafb" fill-rule="evenodd"><path d="M76.794 87.415a2.32 2.32 0 011.645.686 2.35 2.35 0 010 3.311 2.32 2.32 0 01-3.291 0 2.35 2.35 0 010-3.311 2.32 2.32 0 011.645-.686zm-12.41 0a2.32 2.32 0 011.645.686 2.35 2.35 0 010 3.311 2.32 2.32 0 01-3.291 0 2.35 2.35 0 010-3.311 2.32 2.32 0 011.646-.686zm-12.41 0a2.32 2.32 0 011.645.686 2.35 2.35 0 010 3.311 2.32 2.32 0 01-3.291 0 2.35 2.35 0 010-3.311 2.32 2.32 0 011.645-.686zm-12.41 0a2.32 2.32 0 011.646.686 2.35 2.35 0 010 3.311 2.32 2.32 0 01-3.291 0 2.35 2.35 0 010-3.311 2.32 2.32 0 011.645-.686zm-12.41 0a2.32 2.32 0 011.646.686 2.35 2.35 0 010 3.311 2.32 2.32 0 01-3.291 0 2.35 2.35 0 010-3.311 2.32 2.32 0 011.645-.686zm-12.41 0a2.32 2.32 0 011.646.686 2.35 2.35 0 010 3.311 2.32 2.32 0 01-3.291 0 2.35 2.35 0 010-3.311 2.32 2.32 0 011.646-.686zm-12.41 0a2.32 2.32 0 011.646.686 2.35 2.35 0 010 3.311 2.32 2.32 0 01-1.646.686 2.32 2.32 0 01-1.646-.686 2.35 2.35 0 010-3.311 2.32 2.32 0 011.646-.686zm74.467-12.488a2.32 2.32 0 011.645.686 2.35 2.35 0 010 3.311 2.32 2.32 0 01-3.291 0 2.35 2.35 0 010-3.311 2.32 2.32 0 011.645-.686zm-12.41 0a2.32 2.32 0 011.645.686 2.35 2.35 0 010 3.311 2.32 2.32 0 01-3.291 0 2.35 2.35 0 010-3.311 2.32 2.32 0 011.646-.686zm-12.41 0a2.32 2.32 0 011.645.686 2.35 2.35 0 010 3.311 2.32 2.32 0 01-3.291 0 2.35 2.35 0 010-3.311 2.32 2.32 0 011.645-.686zm-12.41 0a2.32 2.32 0 011.646.686 2.35 2.35 0 010 3.311 2.32 2.32 0 01-3.291 0 2.35 2.35 0 010-3.311 2.32 2.32 0 011.645-.686zm-12.41 0a2.32 2.32 0 011.646.686 2.35 2.35 0 010 3.311 2.32 2.32 0 01-3.291 0 2.35 2.35 0 010-3.311 2.32 2.32 0 011.645-.686zm-12.41 0a2.32 2.32 0 011.646.686 2.35 2.35 0 010 3.311 2.32 2.32 0 01-3.291 0 2.35 2.35 0 010-3.311 2.32 2.32 0 011.646-.686zm-12.41 0a2.32 2.32 0 011.646.686 2.35 2.35 0 010 3.311 2.32 2.32 0 01-1.646.686 2.32 2.32 0 01-1.646-.686 2.35 2.35 0 010-3.311 2.32 2.32 0 011.646-.686zM76.794 62.44a2.32 2.32 0 011.645.686 2.35 2.35 0 010 3.311 2.32 2.32 0 01-3.291 0 2.35 2.35 0 010-3.311 2.32 2.32 0 011.645-.686zm-12.41 0a2.32 2.32 0 011.645.686 2.35 2.35 0 010 3.311 2.32 2.32 0 01-3.291 0 2.35 2.35 0 010-3.311 2.32 2.32 0 011.646-.686zm-12.41 0a2.32 2.32 0 011.645.686 2.35 2.35 0 010 3.311 2.32 2.32 0 01-3.291 0 2.35 2.35 0 010-3.311 2.32 2.32 0 011.645-.686zm-12.41 0a2.32 2.32 0 011.646.686 2.35 2.35 0 010 3.311 2.32 2.32 0 01-3.291 0 2.35 2.35 0 010-3.311 2.32 2.32 0 011.645-.686zm-12.41 0a2.32 2.32 0 011.646.686 2.35 2.35 0 010 3.311 2.32 2.32 0 01-3.291 0 2.35 2.35 0 010-3.311 2.32 2.32 0 011.645-.686zm-12.41 0a2.32 2.32 0 011.646.686 2.35 2.35 0 010 3.311 2.32 2.32 0 01-3.291 0 2.35 2.35 0 010-3.311 2.32 2.32 0 011.646-.686zm-12.41 0a2.32 2.32 0 011.646.686 2.35 2.35 0 010 3.311 2.32 2.32 0 01-3.291 0 2.35 2.35 0 010-3.311 2.32 2.32 0 011.646-.686zm74.46-12.49a2.32 2.32 0 011.645.686 2.35 2.35 0 010 3.311 2.32 2.32 0 01-3.291 0 2.35 2.35 0 010-3.311 2.32 2.32 0 011.645-.686zm-12.41 0a2.32 2.32 0 011.645.686 2.35 2.35 0 010 3.311 2.32 2.32 0 01-3.291 0 2.35 2.35 0 010-3.311 2.32 2.32 0 011.646-.686zm-12.41 0a2.32 2.32 0 011.645.686 2.35 2.35 0 010 3.311 2.32 2.32 0 01-3.291 0 2.35 2.35 0 010-3.311 2.32 2.32 0 011.645-.686zm-12.41 0a2.32 2.32 0 011.646.686 2.35 2.35 0 010 3.311 2.32 2.32 0 01-3.291 0 2.35 2.35 0 010-3.311 2.32 2.32 0 011.645-.686zm-12.41 0a2.32 2.32 0 011.646.686 2.35 2.35 0 010 3.311 2.32 2.32 0 01-3.291 0 2.35 2.35 0 010-3.311 2.32 2.32 0 011.645-.686zm-12.41 0a2.32 2.32 0 011.646.686 2.35 2.35 0 010 3.311 2.32 2.32 0 01-3.291 0 2.35 2.35 0 010-3.311 2.32 2.32 0 011.646-.686zm-12.41 0a2.32 2.32 0 011.646.686 2.35 2.35 0 010 3.311 2.32 2.32 0 01-3.291 0 2.35 2.35 0 010-3.311 2.32 2.32 0 011.646-.686zm74.467-12.488a2.32 2.32 0 011.645.686 2.35 2.35 0 010 3.311 2.32 2.32 0 01-3.291 0 2.35 2.35 0 010-3.311 2.32 2.32 0 011.645-.686zm-12.41 0a2.32 2.32 0 011.645.686 2.35 2.35 0 010 3.311 2.32 2.32 0 01-3.291 0 2.35 2.35 0 010-3.311 2.32 2.32 0 011.646-.686zm-12.41 0a2.32 2.32 0 011.645.686 2.35 2.35 0 010 3.311 2.32 2.32 0 01-3.291 0 2.35 2.35 0 010-3.311 2.32 2.32 0 011.645-.686zm-12.41 0a2.32 2.32 0 011.646.686 2.35 2.35 0 010 3.311 2.32 2.32 0 01-3.291 0 2.35 2.35 0 010-3.311 2.32 2.32 0 011.645-.686zm-12.41 0a2.32 2.32 0 011.646.686 2.35 2.35 0 010 3.311 2.32 2.32 0 01-3.291 0 2.35 2.35 0 010-3.311 2.32 2.32 0 011.645-.686zm-12.41 0a2.32 2.32 0 011.646.686 2.35 2.35 0 010 3.311 2.32 2.32 0 01-3.291 0 2.35 2.35 0 010-3.311 2.32 2.32 0 011.646-.686zm-12.41 0a2.32 2.32 0 011.646.686 2.35 2.35 0 010 3.311 2.32 2.32 0 01-3.291 0 2.35 2.35 0 010-3.311 2.32 2.32 0 011.646-.686zm74.467-12.488a2.32 2.32 0 011.645.686 2.35 2.35 0 010 3.311 2.32 2.32 0 01-3.291 0 2.35 2.35 0 010-3.311 2.32 2.32 0 011.645-.686zm-12.41 0a2.32 2.32 0 011.645.686 2.35 2.35 0 010 3.311 2.32 2.32 0 01-3.291 0 2.35 2.35 0 010-3.311 2.32 2.32 0 011.646-.686zm-12.41 0a2.32 2.32 0 011.645.686 2.35 2.35 0 010 3.311 2.32 2.32 0 01-3.291 0 2.35 2.35 0 010-3.311 2.32 2.32 0 011.645-.686zm-12.41 0a2.32 2.32 0 011.646.686 2.35 2.35 0 010 3.311 2.32 2.32 0 01-3.291 0 2.35 2.35 0 010-3.311 2.32 2.32 0 011.645-.686zm-12.41 0a2.32 2.32 0 011.646.686 2.35 2.35 0 010 3.311 2.32 2.32 0 01-3.291 0 2.35 2.35 0 010-3.311 2.32 2.32 0 011.645-.686zm-12.41 0a2.32 2.32 0 011.646.686 2.35 2.35 0 010 3.311 2.32 2.32 0 01-3.291 0 2.35 2.35 0 010-3.311 2.32 2.32 0 011.646-.686zm-12.41 0a2.32 2.32 0 011.646.686 2.35 2.35 0 010 3.311 2.32 2.32 0 01-1.646.686 2.32 2.32 0 01-1.646-.686 2.35 2.35 0 010-3.311 2.32 2.32 0 011.646-.686zm74.467-12.488a2.32 2.32 0 011.645.686 2.35 2.35 0 010 3.311 2.32 2.32 0 01-3.291 0 2.35 2.35 0 010-3.311 2.32 2.32 0 011.645-.686zm-12.41 0a2.32 2.32 0 011.645.686 2.35 2.35 0 010 3.311 2.32 2.32 0 01-3.291 0 2.35 2.35 0 010-3.311 2.32 2.32 0 011.646-.686zm-12.41 0a2.32 2.32 0 011.645.686 2.35 2.35 0 010 3.311 2.32 2.32 0 01-3.291 0 2.35 2.35 0 010-3.311 2.32 2.32 0 011.645-.686zm-12.41 0a2.32 2.32 0 011.646.686 2.35 2.35 0 010 3.311 2.32 2.32 0 01-3.291 0 2.35 2.35 0 010-3.311 2.32 2.32 0 011.645-.686zm-12.41 0a2.32 2.32 0 011.646.686 2.35 2.35 0 010 3.311 2.32 2.32 0 01-3.291 0 2.35 2.35 0 010-3.311 2.32 2.32 0 011.645-.686zm-12.41 0a2.32 2.32 0 011.646.686 2.35 2.35 0 010 3.311 2.32 2.32 0 01-3.291 0 2.35 2.35 0 010-3.311 2.32 2.32 0 011.646-.686zm-12.41 0a2.32 2.32 0 011.646.686 2.35 2.35 0 010 3.311 2.32 2.32 0 01-1.646.686 2.32 2.32 0 01-1.646-.686 2.35 2.35 0 010-3.311 2.32 2.32 0 011.646-.686zM76.794 0a2.32 2.32 0 011.645.686 2.35 2.35 0 010 3.311 2.32 2.32 0 01-3.291 0 2.35 2.35 0 010-3.311A2.32 2.32 0 0176.794 0zm-12.41 0a2.32 2.32 0 011.645.686 2.35 2.35 0 010 3.311 2.32 2.32 0 01-3.291 0 2.35 2.35 0 010-3.311A2.32 2.32 0 0164.383 0zm-12.41 0a2.32 2.32 0 011.645.686 2.35 2.35 0 010 3.311 2.32 2.32 0 01-3.291 0 2.35 2.35 0 01-.682-1.656 2.35 2.35 0 01.682-1.656A2.32 2.32 0 0151.972 0zM39.56 0a2.32 2.32 0 011.646.686 2.35 2.35 0 010 3.311 2.32 2.32 0 01-3.291 0 2.35 2.35 0 010-3.311A2.32 2.32 0 0139.561 0zM27.15 0a2.32 2.32 0 011.646.686 2.35 2.35 0 01.682 1.656 2.35 2.35 0 01-.682 1.656 2.32 2.32 0 01-3.291 0 2.35 2.35 0 010-3.311A2.32 2.32 0 0127.15 0zM14.74 0a2.32 2.32 0 011.646.686 2.35 2.35 0 010 3.311 2.32 2.32 0 01-3.291 0 2.35 2.35 0 010-3.311A2.32 2.32 0 0114.738 0zM2.327 0a2.32 2.32 0 011.646.686 2.35 2.35 0 01.682 1.656 2.35 2.35 0 01-.682 1.656 2.32 2.32 0 01-1.646.686 2.32 2.32 0 01-1.646-.686A2.35 2.35 0 010 2.341 2.35 2.35 0 01.682.686 2.32 2.32 0 012.327 0zM76.794 187.317a2.32 2.32 0 011.645.686 2.35 2.35 0 01.682 1.656c0 .62-.245 1.216-.682 1.655a2.32 2.32 0 01-3.291 0 2.351 2.351 0 01-.682-1.655 2.35 2.35 0 01.682-1.656 2.32 2.32 0 011.645-.686zm-12.41 0a2.32 2.32 0 011.645.686 2.35 2.35 0 01.682 1.656c0 .62-.245 1.216-.682 1.655a2.32 2.32 0 01-3.291 0 2.351 2.351 0 01-.682-1.655 2.35 2.35 0 01.682-1.656 2.32 2.32 0 011.646-.686zm-12.41 0a2.32 2.32 0 011.645.686 2.35 2.35 0 01.682 1.656c0 .62-.245 1.216-.682 1.655a2.32 2.32 0 01-3.291 0 2.347 2.347 0 01-.682-1.655 2.35 2.35 0 01.682-1.656 2.32 2.32 0 011.645-.686zm-12.41 0a2.32 2.32 0 011.646.686 2.35 2.35 0 01.682 1.656c0 .62-.245 1.216-.682 1.655a2.32 2.32 0 01-3.291 0 2.351 2.351 0 01-.682-1.655 2.35 2.35 0 01.682-1.656 2.32 2.32 0 011.645-.686zm-12.41 0a2.32 2.32 0 011.646.686 2.35 2.35 0 01.682 1.656c0 .62-.245 1.216-.682 1.655a2.32 2.32 0 01-3.291 0 2.351 2.351 0 01-.682-1.655 2.35 2.35 0 01.682-1.656 2.32 2.32 0 011.645-.686zm-12.41 0a2.32 2.32 0 011.646.686 2.35 2.35 0 01.682 1.656c0 .62-.245 1.216-.682 1.655a2.32 2.32 0 01-3.291 0 2.351 2.351 0 01-.682-1.655 2.35 2.35 0 01.682-1.656 2.32 2.32 0 011.646-.686zm-12.41 0a2.32 2.32 0 011.646.686 2.35 2.35 0 01.682 1.656c0 .62-.245 1.216-.682 1.655a2.32 2.32 0 01-1.646.686 2.32 2.32 0 01-1.646-.686A2.325 2.325 0 010 189.66a2.35 2.35 0 01.682-1.656 2.32 2.32 0 011.646-.686zm74.467-12.488a2.32 2.32 0 011.645.686 2.35 2.35 0 01.682 1.656c0 .62-.245 1.216-.682 1.655s-1.028.686-1.645.686-1.21-.246-1.645-.686-.682-1.034-.682-1.655a2.35 2.35 0 01.682-1.656 2.32 2.32 0 011.645-.686zm-12.41 0a2.32 2.32 0 011.645.686 2.35 2.35 0 01.682 1.656c0 .62-.245 1.216-.682 1.655a2.32 2.32 0 01-3.291 0 2.351 2.351 0 01-.682-1.655 2.35 2.35 0 01.682-1.656 2.32 2.32 0 011.646-.686zm-12.41 0a2.32 2.32 0 011.645.686 2.35 2.35 0 01.682 1.656c0 .62-.245 1.216-.682 1.655s-1.028.686-1.645.686-1.21-.246-1.645-.686-.682-1.034-.682-1.655a2.35 2.35 0 01.682-1.656 2.32 2.32 0 011.645-.686zm-12.41 0a2.32 2.32 0 011.646.686 2.35 2.35 0 01.682 1.656c0 .62-.245 1.216-.682 1.655s-1.028.686-1.646.686-1.21-.246-1.645-.686-.682-1.034-.682-1.655a2.35 2.35 0 01.682-1.656 2.32 2.32 0 011.645-.686zm-12.41 0a2.32 2.32 0 011.646.686 2.35 2.35 0 01.682 1.656c0 .62-.245 1.216-.682 1.655s-1.028.686-1.646.686-1.21-.246-1.645-.686-.682-1.034-.682-1.655a2.35 2.35 0 01.682-1.656 2.32 2.32 0 011.645-.686zm-12.41 0a2.32 2.32 0 011.646.686 2.35 2.35 0 01.682 1.656c0 .62-.245 1.216-.682 1.655a2.321 2.321 0 01-3.292 0 2.351 2.351 0 01-.682-1.655 2.35 2.35 0 01.682-1.656 2.32 2.32 0 011.646-.686zm-12.41 0a2.32 2.32 0 011.646.686 2.35 2.35 0 01.682 1.656c0 .62-.245 1.216-.682 1.655a2.321 2.321 0 01-3.292 0A2.364 2.364 0 010 177.17a2.35 2.35 0 01.682-1.656 2.32 2.32 0 011.646-.686zm74.467-12.488a2.32 2.32 0 011.645.686 2.35 2.35 0 010 3.312 2.32 2.32 0 01-3.291 0 2.35 2.35 0 010-3.312 2.32 2.32 0 011.645-.686zm-12.41 0a2.32 2.32 0 011.645.686 2.35 2.35 0 010 3.312 2.32 2.32 0 01-3.291 0 2.35 2.35 0 010-3.312 2.32 2.32 0 011.646-.686zm-12.41 0a2.32 2.32 0 011.645.686 2.35 2.35 0 010 3.312 2.32 2.32 0 01-3.291 0 2.35 2.35 0 010-3.312 2.32 2.32 0 011.645-.686zm-12.41 0a2.32 2.32 0 011.646.686 2.35 2.35 0 010 3.312 2.32 2.32 0 01-3.291 0 2.35 2.35 0 010-3.312 2.32 2.32 0 011.645-.686zm-12.41 0a2.32 2.32 0 011.646.686 2.35 2.35 0 010 3.312 2.32 2.32 0 01-3.291 0 2.35 2.35 0 010-3.312 2.32 2.32 0 011.645-.686zm-12.41 0a2.32 2.32 0 011.646.686 2.35 2.35 0 010 3.312 2.32 2.32 0 01-3.291 0 2.35 2.35 0 010-3.312 2.32 2.32 0 011.646-.686zm-12.41 0a2.32 2.32 0 011.646.686 2.35 2.35 0 010 3.312 2.32 2.32 0 01-3.291 0 2.35 2.35 0 010-3.312 2.32 2.32 0 011.646-.686zm74.467-12.487a2.32 2.32 0 011.645.685 2.35 2.35 0 010 3.312 2.32 2.32 0 01-3.291 0 2.35 2.35 0 010-3.312 2.32 2.32 0 011.645-.685zm-12.41 0a2.32 2.32 0 011.645.685 2.35 2.35 0 010 3.312 2.32 2.32 0 01-3.291 0 2.35 2.35 0 010-3.312 2.32 2.32 0 011.646-.685zm-12.41 0a2.32 2.32 0 011.645.685 2.35 2.35 0 010 3.312 2.32 2.32 0 01-3.291 0 2.35 2.35 0 010-3.312 2.32 2.32 0 011.645-.685zm-12.41 0a2.32 2.32 0 011.646.685 2.35 2.35 0 010 3.312 2.32 2.32 0 01-3.291 0 2.35 2.35 0 010-3.312 2.32 2.32 0 011.645-.685zm-12.41 0a2.32 2.32 0 011.646.685 2.35 2.35 0 010 3.312 2.32 2.32 0 01-3.291 0 2.35 2.35 0 010-3.312 2.32 2.32 0 011.645-.685zm-12.41 0a2.32 2.32 0 011.646.685 2.35 2.35 0 010 3.312 2.32 2.32 0 01-3.291 0 2.35 2.35 0 010-3.312 2.32 2.32 0 011.646-.685zm-12.41 0a2.32 2.32 0 011.646.685 2.35 2.35 0 010 3.312 2.32 2.32 0 01-1.646.686 2.32 2.32 0 01-1.646-.686 2.35 2.35 0 010-3.312 2.32 2.32 0 011.646-.685zm74.467-12.488a2.32 2.32 0 011.645.686c.436.44.682 1.034.682 1.655a2.35 2.35 0 01-.682 1.656 2.32 2.32 0 01-3.291 0 2.35 2.35 0 01-.682-1.656c0-.62.245-1.216.682-1.655a2.32 2.32 0 011.645-.686zm-12.41 0a2.32 2.32 0 011.645.686c.436.44.682 1.034.682 1.655a2.35 2.35 0 01-.682 1.656 2.32 2.32 0 01-3.291 0 2.35 2.35 0 01-.682-1.656c0-.62.245-1.216.682-1.655a2.32 2.32 0 011.646-.686zm-12.41 0a2.32 2.32 0 011.645.686c.436.44.682 1.034.682 1.655a2.35 2.35 0 01-.682 1.656 2.32 2.32 0 01-3.291 0 2.35 2.35 0 01-.682-1.656c0-.62.245-1.216.682-1.655a2.32 2.32 0 011.645-.686zm-12.41 0a2.32 2.32 0 011.646.686c.436.44.682 1.034.682 1.655a2.35 2.35 0 01-.682 1.656 2.32 2.32 0 01-3.291 0 2.35 2.35 0 01-.682-1.656c0-.62.245-1.216.682-1.655a2.32 2.32 0 011.645-.686zm-12.41 0a2.32 2.32 0 011.646.686c.436.44.682 1.034.682 1.655a2.35 2.35 0 01-.682 1.656 2.32 2.32 0 01-3.291 0 2.35 2.35 0 01-.682-1.656c0-.62.245-1.216.682-1.655a2.32 2.32 0 011.645-.686zm-12.41 0a2.32 2.32 0 011.646.686c.436.44.682 1.034.682 1.655a2.35 2.35 0 01-.682 1.656 2.32 2.32 0 01-3.291 0 2.35 2.35 0 01-.682-1.656c0-.62.245-1.216.682-1.655a2.32 2.32 0 011.646-.686zm-12.41 0a2.32 2.32 0 011.646.686c.436.44.682 1.034.682 1.655a2.35 2.35 0 01-.682 1.656 2.32 2.32 0 01-1.646.686 2.32 2.32 0 01-1.646-.686A2.35 2.35 0 010 139.707c0-.62.245-1.216.682-1.655a2.32 2.32 0 011.646-.686zm74.467-12.488a2.32 2.32 0 011.645.686 2.35 2.35 0 01.682 1.656c0 .62-.245 1.216-.682 1.655a2.32 2.32 0 01-3.291 0 2.351 2.351 0 01-.682-1.655 2.35 2.35 0 01.682-1.656 2.32 2.32 0 011.645-.686zm-12.41 0a2.32 2.32 0 011.645.686 2.35 2.35 0 01.682 1.656c0 .62-.245 1.216-.682 1.655a2.32 2.32 0 01-3.291 0 2.351 2.351 0 01-.682-1.655 2.35 2.35 0 01.682-1.656 2.32 2.32 0 011.646-.686zm-12.41 0a2.32 2.32 0 011.645.686 2.35 2.35 0 01.682 1.656c0 .62-.245 1.216-.682 1.655a2.32 2.32 0 01-3.291 0 2.347 2.347 0 01-.682-1.655 2.35 2.35 0 01.682-1.656 2.32 2.32 0 011.645-.686zm-12.41 0a2.32 2.32 0 011.646.686 2.35 2.35 0 01.682 1.656c0 .62-.245 1.216-.682 1.655a2.32 2.32 0 01-3.291 0 2.351 2.351 0 01-.682-1.655 2.35 2.35 0 01.682-1.656 2.32 2.32 0 011.645-.686zm-12.41 0a2.32 2.32 0 011.646.686 2.35 2.35 0 01.682 1.656c0 .62-.245 1.216-.682 1.655a2.32 2.32 0 01-3.291 0 2.351 2.351 0 01-.682-1.655 2.35 2.35 0 01.682-1.656 2.32 2.32 0 011.645-.686zm-12.41 0a2.32 2.32 0 011.646.686 2.35 2.35 0 01.682 1.656c0 .62-.245 1.216-.682 1.655a2.32 2.32 0 01-3.291 0 2.351 2.351 0 01-.682-1.655 2.35 2.35 0 01.682-1.656 2.32 2.32 0 011.646-.686zm-12.41 0a2.32 2.32 0 011.646.686 2.35 2.35 0 01.682 1.656c0 .62-.245 1.216-.682 1.655a2.32 2.32 0 01-1.646.686 2.32 2.32 0 01-1.646-.686A2.225 2.225 0 010 127.22a2.35 2.35 0 01.682-1.656 2.32 2.32 0 011.646-.686zM76.794 112.4a2.32 2.32 0 011.645.686 2.35 2.35 0 01.682 1.656c0 .62-.245 1.216-.682 1.655a2.32 2.32 0 01-3.291 0 2.351 2.351 0 01-.682-1.655 2.35 2.35 0 01.682-1.656 2.32 2.32 0 011.645-.686zm-12.41 0a2.32 2.32 0 011.645.686 2.35 2.35 0 01.682 1.656c0 .62-.245 1.216-.682 1.655a2.32 2.32 0 01-3.291 0 2.351 2.351 0 01-.682-1.655 2.35 2.35 0 01.682-1.656 2.32 2.32 0 011.646-.686zm-12.41 0a2.32 2.32 0 011.645.686 2.35 2.35 0 01.682 1.656c0 .62-.245 1.216-.682 1.655a2.32 2.32 0 01-3.291 0 2.347 2.347 0 01-.682-1.655 2.35 2.35 0 01.682-1.656 2.32 2.32 0 011.645-.686zm-12.41 0a2.32 2.32 0 011.646.686 2.35 2.35 0 01.682 1.656c0 .62-.245 1.216-.682 1.655a2.32 2.32 0 01-3.291 0 2.351 2.351 0 01-.682-1.655 2.35 2.35 0 01.682-1.656 2.32 2.32 0 011.645-.686zm-12.41 0a2.32 2.32 0 011.646.686 2.35 2.35 0 01.682 1.656c0 .62-.245 1.216-.682 1.655a2.32 2.32 0 01-3.291 0 2.351 2.351 0 01-.682-1.655 2.35 2.35 0 01.682-1.656 2.32 2.32 0 011.645-.686zm-12.41 0a2.32 2.32 0 011.646.686 2.35 2.35 0 01.682 1.656c0 .62-.245 1.216-.682 1.655a2.32 2.32 0 01-3.291 0 2.351 2.351 0 01-.682-1.655 2.35 2.35 0 01.682-1.656 2.32 2.32 0 011.646-.686zm-12.41 0a2.32 2.32 0 011.646.686 2.35 2.35 0 01.682 1.656c0 .62-.245 1.216-.682 1.655a2.32 2.32 0 01-1.646.686 2.32 2.32 0 01-1.646-.686 2.351 2.351 0 01-.682-1.655 2.35 2.35 0 01.682-1.656 2.32 2.32 0 011.646-.686zm74.467-12.488a2.32 2.32 0 011.645.686 2.35 2.35 0 010 3.312 2.32 2.32 0 01-3.291 0 2.35 2.35 0 010-3.312 2.32 2.32 0 011.645-.686zm-12.41 0a2.32 2.32 0 011.645.686 2.35 2.35 0 010 3.312 2.32 2.32 0 01-3.291 0 2.35 2.35 0 010-3.312 2.32 2.32 0 011.646-.686zm-12.41 0a2.32 2.32 0 011.645.686 2.35 2.35 0 010 3.312 2.32 2.32 0 01-3.291 0 2.35 2.35 0 010-3.312 2.32 2.32 0 011.645-.686zm-12.41 0a2.32 2.32 0 011.646.686 2.35 2.35 0 010 3.312 2.32 2.32 0 01-3.291 0 2.35 2.35 0 010-3.312 2.32 2.32 0 011.645-.686zm-12.41 0a2.32 2.32 0 011.646.686 2.35 2.35 0 010 3.312 2.32 2.32 0 01-3.291 0 2.35 2.35 0 010-3.312 2.32 2.32 0 011.645-.686zm-12.41 0a2.32 2.32 0 011.646.686 2.35 2.35 0 010 3.312 2.32 2.32 0 01-3.291 0 2.35 2.35 0 010-3.312 2.32 2.32 0 011.646-.686zm-12.41 0a2.32 2.32 0 011.646.686 2.35 2.35 0 010 3.312 2.32 2.32 0 01-3.291 0 2.35 2.35 0 010-3.312 2.32 2.32 0 011.646-.686zM163.673 87.415a2.32 2.32 0 011.645.686 2.35 2.35 0 010 3.312 2.32 2.32 0 01-1.645.686c-.617 0-1.21-.247-1.646-.686a2.35 2.35 0 010-3.311 2.32 2.32 0 011.646-.686zm-12.41 0a2.32 2.32 0 011.645.686 2.35 2.35 0 010 3.312 2.32 2.32 0 01-3.291 0 2.35 2.35 0 010-3.311 2.32 2.32 0 011.646-.686zm-12.412 0a2.32 2.32 0 011.646.686 2.35 2.35 0 010 3.311 2.32 2.32 0 01-3.291 0 2.35 2.35 0 010-3.312 2.32 2.32 0 011.645-.686zm-12.41 0c.617 0 1.21.247 1.646.686a2.35 2.35 0 010 3.311 2.32 2.32 0 01-1.646.686 2.32 2.32 0 01-1.645-.686 2.35 2.35 0 010-3.312 2.32 2.32 0 011.645-.686zm-12.41 0a2.32 2.32 0 011.645.686 2.35 2.35 0 010 3.312 2.32 2.32 0 01-1.645.686c-.617 0-1.21-.247-1.646-.686a2.35 2.35 0 010-3.311 2.32 2.32 0 011.646-.686zm-12.41 0a2.32 2.32 0 011.645.686 2.35 2.35 0 010 3.312 2.32 2.32 0 01-3.291 0 2.35 2.35 0 010-3.311 2.32 2.32 0 011.646-.686zm-12.412 0a2.32 2.32 0 011.645.686 2.35 2.35 0 010 3.311 2.32 2.32 0 01-3.291 0 2.35 2.35 0 010-3.311 2.32 2.32 0 011.645-.686zm74.468-12.488a2.32 2.32 0 011.645.686 2.35 2.35 0 010 3.312 2.32 2.32 0 01-1.645.686c-.617 0-1.21-.247-1.646-.686a2.35 2.35 0 010-3.311 2.32 2.32 0 011.646-.686zm-12.41 0a2.32 2.32 0 011.645.686 2.35 2.35 0 010 3.312 2.32 2.32 0 01-3.291 0 2.35 2.35 0 010-3.311 2.32 2.32 0 011.646-.686zm-12.412 0a2.32 2.32 0 011.646.686 2.35 2.35 0 010 3.311 2.32 2.32 0 01-3.291 0 2.35 2.35 0 010-3.312 2.32 2.32 0 011.645-.686zm-12.41 0c.617 0 1.21.247 1.646.686a2.35 2.35 0 010 3.311 2.32 2.32 0 01-1.646.686 2.32 2.32 0 01-1.645-.686 2.35 2.35 0 010-3.312 2.32 2.32 0 011.645-.686zm-12.41 0a2.32 2.32 0 011.645.686 2.35 2.35 0 010 3.312 2.32 2.32 0 01-1.645.686c-.617 0-1.21-.247-1.646-.686a2.35 2.35 0 010-3.311 2.32 2.32 0 011.646-.686zm-12.41 0a2.32 2.32 0 011.645.686 2.35 2.35 0 010 3.312 2.32 2.32 0 01-3.291 0 2.35 2.35 0 010-3.311 2.32 2.32 0 011.646-.686zm-12.412 0a2.32 2.32 0 011.645.686 2.35 2.35 0 010 3.311 2.32 2.32 0 01-3.291 0 2.35 2.35 0 010-3.311 2.32 2.32 0 011.645-.686zm74.468-12.488a2.32 2.32 0 011.645.686 2.35 2.35 0 010 3.312 2.32 2.32 0 01-3.291 0 2.35 2.35 0 010-3.311 2.32 2.32 0 011.646-.686zm-12.41 0a2.32 2.32 0 011.645.686 2.35 2.35 0 010 3.312 2.32 2.32 0 01-3.291 0 2.35 2.35 0 010-3.311 2.32 2.32 0 011.646-.686zm-12.412 0a2.32 2.32 0 011.646.686 2.35 2.35 0 010 3.311 2.32 2.32 0 01-3.291 0 2.35 2.35 0 010-3.312 2.32 2.32 0 011.645-.686zm-12.41 0c.617 0 1.21.247 1.646.686a2.35 2.35 0 010 3.311 2.32 2.32 0 01-3.291 0 2.35 2.35 0 010-3.312 2.32 2.32 0 011.645-.686zm-12.41 0a2.32 2.32 0 011.645.686 2.35 2.35 0 010 3.312 2.32 2.32 0 01-3.291 0 2.35 2.35 0 010-3.311 2.32 2.32 0 011.646-.686zm-12.41 0a2.32 2.32 0 011.645.686 2.35 2.35 0 010 3.312 2.32 2.32 0 01-3.291 0 2.35 2.35 0 010-3.311 2.32 2.32 0 011.646-.686zm-12.412 0a2.32 2.32 0 011.645.686 2.35 2.35 0 010 3.311 2.32 2.32 0 01-3.291 0 2.35 2.35 0 010-3.311 2.32 2.32 0 011.645-.686zm74.468-12.488a2.32 2.32 0 011.645.686 2.35 2.35 0 010 3.312 2.32 2.32 0 01-3.291 0 2.35 2.35 0 010-3.311 2.32 2.32 0 011.646-.686zm-12.41 0a2.32 2.32 0 011.645.686 2.35 2.35 0 010 3.312 2.32 2.32 0 01-3.291 0 2.35 2.35 0 010-3.311 2.32 2.32 0 011.646-.686zm-12.412 0a2.32 2.32 0 011.646.686 2.35 2.35 0 010 3.311 2.32 2.32 0 01-3.291 0 2.35 2.35 0 010-3.312 2.32 2.32 0 011.645-.686zm-12.41 0c.617 0 1.21.247 1.646.686a2.35 2.35 0 010 3.311 2.32 2.32 0 01-3.291 0 2.35 2.35 0 010-3.312 2.32 2.32 0 011.645-.686zm-12.41 0a2.32 2.32 0 011.645.686 2.35 2.35 0 010 3.312 2.32 2.32 0 01-3.291 0 2.35 2.35 0 010-3.311 2.32 2.32 0 011.646-.686zm-12.41 0a2.32 2.32 0 011.645.686 2.35 2.35 0 010 3.312 2.32 2.32 0 01-3.291 0 2.35 2.35 0 010-3.311 2.32 2.32 0 011.646-.686zm-12.412 0a2.32 2.32 0 011.645.686 2.35 2.35 0 010 3.311 2.32 2.32 0 01-3.291 0 2.35 2.35 0 010-3.311 2.32 2.32 0 011.645-.686zm74.468-12.488a2.32 2.32 0 011.645.686 2.35 2.35 0 010 3.312 2.32 2.32 0 01-3.291 0 2.35 2.35 0 010-3.311 2.32 2.32 0 011.646-.686zm-12.41 0a2.32 2.32 0 011.645.686 2.35 2.35 0 010 3.312 2.32 2.32 0 01-3.291 0 2.35 2.35 0 010-3.311 2.32 2.32 0 011.646-.686zm-12.412 0a2.32 2.32 0 011.646.686 2.35 2.35 0 010 3.311 2.32 2.32 0 01-3.291 0 2.35 2.35 0 010-3.312 2.32 2.32 0 011.645-.686zm-12.41 0c.617 0 1.21.247 1.646.686a2.35 2.35 0 010 3.311 2.32 2.32 0 01-3.291 0 2.35 2.35 0 010-3.312 2.32 2.32 0 011.645-.686zm-12.41 0a2.32 2.32 0 011.645.686 2.35 2.35 0 010 3.312 2.32 2.32 0 01-3.291 0 2.35 2.35 0 010-3.311 2.32 2.32 0 011.646-.686zm-12.41 0a2.32 2.32 0 011.645.686 2.35 2.35 0 010 3.312 2.32 2.32 0 01-3.291 0 2.35 2.35 0 010-3.311 2.32 2.32 0 011.646-.686zm-12.412 0a2.32 2.32 0 011.645.686 2.35 2.35 0 010 3.311 2.32 2.32 0 01-3.291 0 2.35 2.35 0 010-3.311 2.32 2.32 0 011.645-.686zm74.468-12.488a2.32 2.32 0 011.645.686 2.35 2.35 0 010 3.312 2.32 2.32 0 01-1.645.686c-.617 0-1.21-.247-1.646-.686a2.35 2.35 0 010-3.311 2.32 2.32 0 011.646-.686zm-12.41 0a2.32 2.32 0 011.645.686 2.35 2.35 0 010 3.312 2.32 2.32 0 01-3.291 0 2.35 2.35 0 010-3.311 2.32 2.32 0 011.646-.686zm-12.412 0a2.32 2.32 0 011.646.686 2.35 2.35 0 010 3.311 2.32 2.32 0 01-3.291 0 2.35 2.35 0 010-3.312 2.32 2.32 0 011.645-.686zm-12.41 0c.617 0 1.21.247 1.646.686a2.35 2.35 0 010 3.311 2.32 2.32 0 01-1.646.686 2.32 2.32 0 01-1.645-.686 2.35 2.35 0 010-3.312 2.32 2.32 0 011.645-.686zm-12.41 0a2.32 2.32 0 011.645.686 2.35 2.35 0 010 3.312 2.32 2.32 0 01-1.645.686c-.617 0-1.21-.247-1.646-.686a2.35 2.35 0 010-3.311 2.32 2.32 0 011.646-.686zm-12.41 0a2.32 2.32 0 011.645.686 2.35 2.35 0 010 3.312 2.32 2.32 0 01-3.291 0 2.35 2.35 0 010-3.311 2.32 2.32 0 011.646-.686zm-12.412 0a2.32 2.32 0 011.645.686 2.35 2.35 0 010 3.311 2.32 2.32 0 01-3.291 0 2.35 2.35 0 010-3.311 2.32 2.32 0 011.645-.686zm74.468-12.488a2.32 2.32 0 011.645.686 2.35 2.35 0 010 3.312 2.32 2.32 0 01-1.645.686c-.617 0-1.21-.247-1.646-.686a2.35 2.35 0 010-3.311 2.32 2.32 0 011.646-.686zm-12.41 0a2.32 2.32 0 011.645.686 2.35 2.35 0 010 3.312 2.32 2.32 0 01-3.291 0 2.35 2.35 0 010-3.311 2.32 2.32 0 011.646-.686zm-12.412 0a2.32 2.32 0 011.646.686 2.35 2.35 0 010 3.311 2.32 2.32 0 01-3.291 0 2.35 2.35 0 010-3.312 2.32 2.32 0 011.645-.686zm-12.41 0c.617 0 1.21.247 1.646.686a2.35 2.35 0 010 3.311 2.32 2.32 0 01-1.646.686 2.32 2.32 0 01-1.645-.686 2.35 2.35 0 010-3.312 2.32 2.32 0 011.645-.686zm-12.41 0a2.32 2.32 0 011.645.686 2.35 2.35 0 010 3.312 2.32 2.32 0 01-1.645.686c-.617 0-1.21-.247-1.646-.686a2.35 2.35 0 010-3.311 2.32 2.32 0 011.646-.686zm-12.41 0a2.32 2.32 0 011.645.686 2.35 2.35 0 010 3.312 2.32 2.32 0 01-3.291 0 2.35 2.35 0 010-3.311 2.32 2.32 0 011.646-.686zm-12.412 0a2.32 2.32 0 011.645.686 2.35 2.35 0 010 3.311 2.32 2.32 0 01-3.291 0 2.35 2.35 0 010-3.311 2.32 2.32 0 011.645-.686zM163.673 0a2.32 2.32 0 011.645.686 2.35 2.35 0 010 3.312 2.32 2.32 0 01-1.645.686c-.617 0-1.21-.247-1.646-.686a2.35 2.35 0 01-.681-1.656 2.35 2.35 0 01.681-1.656A2.32 2.32 0 01163.673 0zm-12.41 0a2.32 2.32 0 011.645.686 2.35 2.35 0 010 3.312 2.32 2.32 0 01-3.291 0 2.35 2.35 0 010-3.311A2.32 2.32 0 01151.262 0zM138.85 0a2.32 2.32 0 011.646.686 2.35 2.35 0 01.681 1.656 2.35 2.35 0 01-.681 1.656 2.32 2.32 0 01-3.291 0 2.35 2.35 0 010-3.312A2.32 2.32 0 01138.85 0zm-12.41 0c.617 0 1.21.247 1.646.686a2.35 2.35 0 01.681 1.656 2.35 2.35 0 01-.681 1.656 2.32 2.32 0 01-1.646.686 2.32 2.32 0 01-1.645-.686 2.35 2.35 0 010-3.312A2.32 2.32 0 01126.439 0zm-12.41 0a2.32 2.32 0 011.645.686 2.35 2.35 0 010 3.312 2.32 2.32 0 01-1.645.686c-.617 0-1.21-.247-1.646-.686a2.35 2.35 0 01-.681-1.656 2.35 2.35 0 01.681-1.656A2.32 2.32 0 01114.03 0zm-12.41 0a2.32 2.32 0 011.645.686 2.35 2.35 0 010 3.312 2.32 2.32 0 01-1.645.686 2.32 2.32 0 01-1.646-.686 2.35 2.35 0 010-3.311A2.32 2.32 0 01101.617 0zM89.206 0a2.32 2.32 0 011.645.686 2.35 2.35 0 010 3.311 2.32 2.32 0 01-3.291 0 2.35 2.35 0 010-3.311A2.32 2.32 0 0189.206 0zM163.673 187.317a2.32 2.32 0 011.645.686 2.35 2.35 0 010 3.311 2.32 2.32 0 01-1.645.686c-.617 0-1.21-.247-1.646-.686a2.35 2.35 0 010-3.311 2.32 2.32 0 011.646-.686zm-12.41 0a2.32 2.32 0 011.645.686 2.35 2.35 0 010 3.311 2.32 2.32 0 01-3.291 0 2.35 2.35 0 010-3.311 2.32 2.32 0 011.646-.686zm-12.412 0a2.32 2.32 0 011.646.686 2.35 2.35 0 010 3.311 2.32 2.32 0 01-3.291 0 2.347 2.347 0 010-3.311 2.32 2.32 0 011.645-.686zm-12.41 0c.617 0 1.21.247 1.646.686a2.35 2.35 0 010 3.311 2.32 2.32 0 01-1.646.686 2.32 2.32 0 01-1.645-.686 2.347 2.347 0 010-3.311 2.32 2.32 0 011.645-.686zm-12.41 0a2.32 2.32 0 011.645.686 2.35 2.35 0 010 3.311 2.32 2.32 0 01-1.645.686c-.617 0-1.21-.247-1.646-.686a2.35 2.35 0 010-3.311 2.32 2.32 0 011.646-.686zm-12.41 0a2.32 2.32 0 011.645.686 2.35 2.35 0 010 3.311 2.32 2.32 0 01-3.291 0 2.351 2.351 0 01-.682-1.655 2.35 2.35 0 01.682-1.656 2.32 2.32 0 011.646-.686zm-12.412 0a2.32 2.32 0 011.645.686 2.35 2.35 0 01.682 1.656c0 .62-.245 1.216-.682 1.655a2.32 2.32 0 01-3.291 0 2.351 2.351 0 01-.682-1.655 2.35 2.35 0 01.682-1.656 2.32 2.32 0 011.645-.686zm74.468-12.488a2.32 2.32 0 011.645.686 2.35 2.35 0 010 3.311 2.32 2.32 0 01-1.645.686 2.32 2.32 0 01-1.646-.686 2.35 2.35 0 010-3.311 2.32 2.32 0 011.646-.686zm-12.41 0a2.32 2.32 0 011.645.686 2.35 2.35 0 010 3.311c-.437.439-1.028.686-1.645.686s-1.2-.246-1.646-.686a2.35 2.35 0 010-3.311 2.32 2.32 0 011.646-.686zm-12.412 0a2.32 2.32 0 011.646.686 2.35 2.35 0 010 3.311 2.317 2.317 0 01-3.291 0 2.347 2.347 0 010-3.311 2.32 2.32 0 011.645-.686zm-12.41 0c.617 0 1.21.247 1.646.686a2.35 2.35 0 010 3.311 2.32 2.32 0 01-1.646.686c-.617 0-1.21-.246-1.645-.686s-.682-1.034-.682-1.655.245-1.217.682-1.656a2.32 2.32 0 011.645-.686zm-12.41 0a2.32 2.32 0 011.645.686 2.35 2.35 0 010 3.311 2.32 2.32 0 01-1.645.686 2.32 2.32 0 01-1.646-.686 2.35 2.35 0 010-3.311 2.32 2.32 0 011.646-.686zm-12.41 0a2.32 2.32 0 011.645.686 2.35 2.35 0 010 3.311 2.32 2.32 0 01-1.645.686 2.32 2.32 0 01-1.646-.686 2.351 2.351 0 01-.682-1.655 2.35 2.35 0 01.682-1.656 2.32 2.32 0 011.646-.686zm-12.412 0a2.32 2.32 0 011.645.686 2.35 2.35 0 01.682 1.656c0 .62-.245 1.216-.682 1.655s-1.028.686-1.645.686-1.21-.246-1.645-.686-.682-1.034-.682-1.655a2.35 2.35 0 01.682-1.656 2.32 2.32 0 011.645-.686zm74.468-12.488a2.32 2.32 0 011.645.686 2.35 2.35 0 01.682 1.656 2.35 2.35 0 01-.682 1.656 2.32 2.32 0 01-3.291 0 2.35 2.35 0 010-3.312 2.32 2.32 0 011.646-.686zm-12.41 0a2.32 2.32 0 011.645.686 2.35 2.35 0 01.682 1.656 2.35 2.35 0 01-.682 1.656 2.32 2.32 0 01-3.291 0 2.353 2.353 0 01-.682-1.656 2.35 2.35 0 01.682-1.656 2.32 2.32 0 011.646-.686zm-12.412 0a2.32 2.32 0 011.646.686 2.35 2.35 0 010 3.312 2.32 2.32 0 01-3.291 0 2.35 2.35 0 01-.682-1.656c0-.62.245-1.217.682-1.656a2.32 2.32 0 011.645-.686zm-12.41 0c.617 0 1.21.247 1.646.686a2.35 2.35 0 010 3.312 2.32 2.32 0 01-3.291 0 2.35 2.35 0 01-.682-1.656c0-.62.245-1.217.682-1.656a2.32 2.32 0 011.645-.686zm-12.41 0a2.32 2.32 0 011.645.686 2.35 2.35 0 01.682 1.656 2.35 2.35 0 01-.682 1.656 2.32 2.32 0 01-3.291 0 2.35 2.35 0 010-3.312 2.32 2.32 0 011.646-.686zm-12.41 0a2.32 2.32 0 011.645.686 2.35 2.35 0 01.682 1.656 2.35 2.35 0 01-.682 1.656 2.32 2.32 0 01-3.291 0 2.35 2.35 0 010-3.312 2.32 2.32 0 011.646-.686zm-12.412 0a2.32 2.32 0 011.645.686 2.35 2.35 0 010 3.312 2.32 2.32 0 01-3.291 0 2.35 2.35 0 010-3.312 2.32 2.32 0 011.645-.686zm74.468-12.487a2.32 2.32 0 011.645.685 2.35 2.35 0 01.682 1.656 2.35 2.35 0 01-.682 1.656 2.32 2.32 0 01-1.645.686c-.617 0-1.21-.247-1.646-.686a2.35 2.35 0 010-3.312 2.32 2.32 0 011.646-.685zm-12.41 0a2.32 2.32 0 011.645.685 2.35 2.35 0 01.682 1.656 2.35 2.35 0 01-.682 1.656 2.32 2.32 0 01-3.291 0 2.35 2.35 0 01-.682-1.656c0-.62.246-1.216.682-1.656a2.32 2.32 0 011.646-.685zm-12.412 0a2.32 2.32 0 011.646.685 2.35 2.35 0 010 3.312 2.32 2.32 0 01-3.291 0 2.35 2.35 0 01-.682-1.656 2.35 2.35 0 01.682-1.656 2.32 2.32 0 011.645-.685zm-12.41 0a2.32 2.32 0 011.646.685 2.35 2.35 0 010 3.312 2.32 2.32 0 01-1.646.686 2.32 2.32 0 01-1.645-.686 2.35 2.35 0 01-.682-1.656 2.35 2.35 0 01.682-1.656 2.32 2.32 0 011.645-.685zm-12.41 0a2.32 2.32 0 011.645.685 2.35 2.35 0 01.682 1.656 2.35 2.35 0 01-.682 1.656 2.32 2.32 0 01-1.645.686c-.617 0-1.21-.247-1.646-.686a2.35 2.35 0 010-3.312 2.32 2.32 0 011.646-.685zm-12.41 0a2.32 2.32 0 011.645.685 2.35 2.35 0 01.682 1.656 2.35 2.35 0 01-.682 1.656 2.32 2.32 0 01-3.291 0 2.35 2.35 0 010-3.312 2.32 2.32 0 011.646-.685zm-12.412 0a2.32 2.32 0 011.645.685 2.35 2.35 0 010 3.312 2.32 2.32 0 01-3.291 0 2.35 2.35 0 010-3.312 2.32 2.32 0 011.645-.685zm74.468-12.488a2.32 2.32 0 011.645.686 2.347 2.347 0 010 3.311 2.32 2.32 0 01-1.645.686c-.617 0-1.21-.247-1.646-.686a2.35 2.35 0 010-3.311 2.32 2.32 0 011.646-.686zm-12.41 0a2.32 2.32 0 011.645.686 2.347 2.347 0 010 3.311 2.32 2.32 0 01-3.291 0 2.35 2.35 0 010-3.311 2.32 2.32 0 011.646-.686zm-12.412 0a2.32 2.32 0 011.646.686 2.35 2.35 0 010 3.311 2.32 2.32 0 01-3.291 0 2.35 2.35 0 010-3.311 2.32 2.32 0 011.645-.686zm-12.41 0c.617 0 1.21.247 1.646.686a2.35 2.35 0 010 3.311 2.32 2.32 0 01-1.646.686 2.32 2.32 0 01-1.645-.686 2.35 2.35 0 010-3.311 2.32 2.32 0 011.645-.686zm-12.41 0a2.32 2.32 0 011.645.686 2.347 2.347 0 010 3.311 2.32 2.32 0 01-1.645.686c-.617 0-1.21-.247-1.646-.686a2.35 2.35 0 010-3.311 2.32 2.32 0 011.646-.686zm-12.41 0a2.32 2.32 0 011.645.686 2.347 2.347 0 010 3.311 2.32 2.32 0 01-3.291 0 2.35 2.35 0 01-.682-1.656c0-.62.245-1.216.682-1.655a2.32 2.32 0 011.646-.686zm-12.412 0a2.32 2.32 0 011.645.686c.436.44.682 1.034.682 1.655a2.35 2.35 0 01-.682 1.656 2.32 2.32 0 01-3.291 0 2.35 2.35 0 01-.682-1.656c0-.62.245-1.216.682-1.655a2.32 2.32 0 011.645-.686zm74.468-12.488a2.32 2.32 0 011.645.686 2.35 2.35 0 010 3.311 2.32 2.32 0 01-1.645.686c-.617 0-1.21-.247-1.646-.686a2.35 2.35 0 010-3.311 2.32 2.32 0 011.646-.686zm-12.41 0a2.32 2.32 0 011.645.686 2.35 2.35 0 010 3.311 2.32 2.32 0 01-3.291 0 2.35 2.35 0 010-3.311 2.32 2.32 0 011.646-.686zm-12.412 0a2.32 2.32 0 011.646.686 2.35 2.35 0 010 3.311 2.32 2.32 0 01-3.291 0 2.347 2.347 0 010-3.311 2.32 2.32 0 011.645-.686zm-12.41 0c.617 0 1.21.247 1.646.686a2.35 2.35 0 010 3.311 2.32 2.32 0 01-1.646.686 2.32 2.32 0 01-1.645-.686 2.347 2.347 0 010-3.311 2.32 2.32 0 011.645-.686zm-12.41 0a2.32 2.32 0 011.645.686 2.35 2.35 0 010 3.311 2.32 2.32 0 01-1.645.686c-.617 0-1.21-.247-1.646-.686a2.35 2.35 0 010-3.311 2.32 2.32 0 011.646-.686zm-12.41 0a2.32 2.32 0 011.645.686 2.35 2.35 0 010 3.311 2.32 2.32 0 01-3.291 0 2.351 2.351 0 01-.682-1.655 2.35 2.35 0 01.682-1.656 2.32 2.32 0 011.646-.686zm-12.412 0a2.32 2.32 0 011.645.686 2.35 2.35 0 01.682 1.656c0 .62-.245 1.216-.682 1.655a2.32 2.32 0 01-3.291 0 2.351 2.351 0 01-.682-1.655 2.35 2.35 0 01.682-1.656 2.32 2.32 0 011.645-.686zm74.468-12.488a2.32 2.32 0 011.645.686 2.35 2.35 0 010 3.311 2.32 2.32 0 01-1.645.686c-.617 0-1.21-.247-1.646-.686a2.35 2.35 0 010-3.311 2.32 2.32 0 011.646-.686zm-12.41 0a2.32 2.32 0 011.645.686 2.35 2.35 0 010 3.311 2.32 2.32 0 01-3.291 0 2.35 2.35 0 010-3.311 2.32 2.32 0 011.646-.686zm-12.412 0a2.32 2.32 0 011.646.686 2.35 2.35 0 010 3.311 2.32 2.32 0 01-3.291 0 2.347 2.347 0 010-3.311 2.32 2.32 0 011.645-.686zm-12.41 0c.617 0 1.21.247 1.646.686a2.35 2.35 0 010 3.311 2.32 2.32 0 01-1.646.686 2.32 2.32 0 01-1.645-.686 2.347 2.347 0 010-3.311 2.32 2.32 0 011.645-.686zm-12.41 0a2.32 2.32 0 011.645.686 2.35 2.35 0 010 3.311 2.32 2.32 0 01-1.645.686c-.617 0-1.21-.247-1.646-.686a2.35 2.35 0 010-3.311 2.32 2.32 0 011.646-.686zm-12.41 0a2.32 2.32 0 011.645.686 2.35 2.35 0 010 3.311 2.32 2.32 0 01-3.291 0 2.351 2.351 0 01-.682-1.655 2.35 2.35 0 01.682-1.656 2.32 2.32 0 011.646-.686zm-12.412 0a2.32 2.32 0 011.645.686 2.35 2.35 0 01.682 1.656c0 .62-.245 1.216-.682 1.655a2.32 2.32 0 01-3.291 0 2.351 2.351 0 01-.682-1.655 2.35 2.35 0 01.682-1.656 2.32 2.32 0 011.645-.686zm74.468-12.488a2.32 2.32 0 011.645.686 2.35 2.35 0 01.682 1.656 2.35 2.35 0 01-.682 1.656 2.32 2.32 0 01-3.291 0 2.35 2.35 0 010-3.312 2.32 2.32 0 011.646-.686zm-12.41 0a2.32 2.32 0 011.645.686 2.35 2.35 0 01.682 1.656 2.35 2.35 0 01-.682 1.656 2.32 2.32 0 01-3.291 0 2.353 2.353 0 01-.682-1.656 2.35 2.35 0 01.682-1.656 2.32 2.32 0 011.646-.686zm-12.412 0a2.32 2.32 0 011.646.686 2.35 2.35 0 010 3.312 2.32 2.32 0 01-3.291 0 2.35 2.35 0 01-.682-1.656c0-.62.245-1.217.682-1.656a2.32 2.32 0 011.645-.686zm-12.41 0c.617 0 1.21.247 1.646.686a2.35 2.35 0 010 3.312 2.32 2.32 0 01-3.291 0 2.35 2.35 0 01-.682-1.656c0-.62.245-1.217.682-1.656a2.32 2.32 0 011.645-.686zm-12.41 0a2.32 2.32 0 011.645.686 2.35 2.35 0 01.682 1.656 2.35 2.35 0 01-.682 1.656 2.32 2.32 0 01-3.291 0 2.35 2.35 0 010-3.312 2.32 2.32 0 011.646-.686zm-12.41 0a2.32 2.32 0 011.645.686 2.35 2.35 0 01.682 1.656 2.35 2.35 0 01-.682 1.656 2.32 2.32 0 01-3.291 0 2.35 2.35 0 010-3.312 2.32 2.32 0 011.646-.686zm-12.412 0a2.32 2.32 0 011.645.686 2.35 2.35 0 010 3.312 2.32 2.32 0 01-3.291 0 2.35 2.35 0 010-3.312 2.32 2.32 0 011.645-.686z"/></svg>