<svg xmlns="http://www.w3.org/2000/svg" width="37.198" height="37.198" viewBox="0 0 37.198 37.198"><g transform="translate(-0.002 0)"><g transform="translate(0.002 -0.001)"><path d="M37.138,22.682l.006,0L31.036,9.354l1.481-.737-.554-1.11-1.444.719-.2-.426a.62.62,0,0,0-1.127,0l-.174.381a7.975,7.975,0,0,0-3.354-.742H20.461V6.2H21.7V4.959H20.635l.446-1.784a2.556,2.556,0,1,0-4.96,0l.446,1.784H15.5V6.2h1.24v1.24h-5.2a7.975,7.975,0,0,0-3.357.744L8.005,7.8a.62.62,0,0,0-1.127,0l-.2.426L5.239,7.506,4.685,8.617l1.481.74L.058,22.68A.605.605,0,0,0,0,22.938a4.345,4.345,0,0,0,4.34,4.34h6.2a4.345,4.345,0,0,0,4.34-4.34.606.606,0,0,0-.062-.257L8.7,9.306a6.744,6.744,0,0,1,2.841-.627h5.2V31.361l-2.117,2.117H12.4a3.1,3.1,0,0,0-3.1,3.1.62.62,0,0,0,.62.62H27.281a.62.62,0,0,0,.62-.62,3.1,3.1,0,0,0-3.1-3.1H22.577l-2.117-2.117V8.679h5.208a6.744,6.744,0,0,1,2.841.627L22.377,22.68a.605.605,0,0,0-.056.259,4.345,4.345,0,0,0,4.34,4.34h6.2a4.345,4.345,0,0,0,4.34-4.34A.6.6,0,0,0,37.138,22.682Zm-26.6,3.357h-6.2A3.1,3.1,0,0,1,1.3,23.558H13.579A3.1,3.1,0,0,1,10.541,26.038Zm2.754-3.72H1.588l5.7-12.425a.612.612,0,0,0,.317,0ZM17.564,1.745a1.356,1.356,0,0,1,2.074,0,1.309,1.309,0,0,1,.24,1.13l-.521,2.084H17.845l-.521-2.084A1.309,1.309,0,0,1,17.564,1.745Zm.417,5.694V6.2h1.24v1.24Zm1.24,1.24V31h-1.24V8.679ZM24.8,34.718a1.864,1.864,0,0,1,1.754,1.24H10.647a1.864,1.864,0,0,1,1.754-1.24Zm-3.976-1.24H16.378l1.24-1.24h1.967ZM29.6,9.9a.423.423,0,0,0,.314-.013l5.7,12.436H23.907Zm3.26,16.143h-6.2a3.1,3.1,0,0,1-3.038-2.48H35.9A3.1,3.1,0,0,1,32.86,26.038Z" transform="translate(-0.002 0.001)" fill="#17a6af"/></g></g></svg>