<svg xmlns="http://www.w3.org/2000/svg" width="20" height="20" fill="none"  xmlns:v="https://vecta.io/nano"><g clip-path="url(#A)"><path d="M3.333 0C1.487 0 0 1.487 0 3.333v13.333C0 18.513 1.487 20 3.333 20h13.333C18.513 20 20 18.513 20 16.667V3.333C20 1.487 18.513 0 16.667 0H3.333zm1.943 3.996c.844 0 1.53.633 1.528 1.413s-.685 1.4-1.528 1.4-1.527-.63-1.527-1.4.682-1.413 1.527-1.413zm7.933 3.72c1.808 0 3.04 1.123 3.04 3.236v5.054h-2.742V10.95c0-.565-.33-1.133-1.23-1.133-1.507 0-1.514 1.517-1.514 2.07v4.116H8.02v-8.23h2.742v1.372s.672-1.43 2.446-1.43zm-9.303.06H6.65v8.23H3.906v-8.23z" fill="#fff"/></g><defs><clipPath id="A"><path fill="#fff" d="M0 0h20v20H0z"/></clipPath></defs></svg>