<svg width="20" height="20" viewBox="0 0 20 20" fill="none" xmlns="http://www.w3.org/2000/svg">
<g clip-path="url(#clip0)">
<path d="M3.33333 3.05176e-05C1.48666 3.05176e-05 0 1.48667 0 3.33332V16.6667C0 18.5133 1.48666 20 3.33333 20H16.6667C18.5133 20 20 18.5133 20 16.6667V3.33332C20 1.48667 18.5133 3.05176e-05 16.6667 3.05176e-05H3.33333ZM5.27669 3.99577C6.12097 3.99545 6.80647 4.62896 6.80501 5.40851C6.80487 6.187 6.11983 6.8184 5.27669 6.81809C4.43356 6.8184 3.75014 6.187 3.75 5.40851C3.74833 4.62896 4.43242 3.99545 5.27669 3.99577ZM13.2096 7.71487C15.0179 7.71487 16.25 8.83756 16.25 10.9505V16.0042H13.5075V10.9505C13.5075 10.386 13.1764 9.81775 12.277 9.81775C10.7697 9.81775 10.7633 11.3346 10.7633 11.888V16.0042H8.02083V7.77351H10.7633V9.1455C10.7633 9.1455 11.4351 7.71487 13.2096 7.71487ZM3.90625 7.77341H6.64876V16.0042H3.90625V7.77341Z" fill="white"/>
</g>
<defs>
<clipPath id="clip0">
<rect width="20" height="20" fill="white"/>
</clipPath>
</defs>
</svg>
