<svg xmlns="http://www.w3.org/2000/svg" width="188" height="25" fill="none"  xmlns:v="https://vecta.io/nano"><path d="M58.76 19.815h9.694v4.177H53v-3.487l9.495-14.4h-9.257v-4.14h15.018v3.45l-9.495 14.4zm15.336-2.5c.556 1.954 2.106 2.95 4.6 2.95 1.6 0 2.82-.536 3.655-1.57l3.377 1.878c-1.63 2.26-3.973 3.372-7.112 3.372-2.702 0-4.847-.805-6.476-2.376s-2.463-3.564-2.463-5.94.795-4.33 2.424-5.94c1.6-1.57 3.655-2.376 6.198-2.376 2.384 0 4.37.805 5.92 2.376 1.55 1.6 2.344 3.564 2.344 5.9 0 .537-.04 1.073-.16 1.686H74.096v.038zm-.04-3.142h8.303c-.238-1.073-.715-1.878-1.47-2.376-.755-.537-1.6-.805-2.543-.805-1.112 0-2.066.268-2.82.843s-1.232 1.34-1.47 2.338zm19.667-3.22c.397-.996 1.033-1.763 1.947-2.26a6.18 6.18 0 0 1 3.019-.766v4.522a5.15 5.15 0 0 0-3.456.766c-.993.65-1.5 1.724-1.5 3.257v7.5h-4.2V8.28h4.2v2.682zm20.66 10.615c-1.67 1.6-3.735 2.414-6.12 2.414s-4.45-.805-6.118-2.414-2.503-3.564-2.503-5.9.834-4.292 2.503-5.9 3.695-2.414 6.118-2.414 4.45.805 6.12 2.414 2.503 3.564 2.503 5.9a7.86 7.86 0 0 1-2.503 5.9zm-9.257-2.797c.834.805 1.867 1.226 3.138 1.226a4.5 4.5 0 0 0 3.18-1.226c.834-.805 1.27-1.84 1.27-3.104s-.437-2.3-1.27-3.104-1.907-1.226-3.18-1.226-2.304.422-3.138 1.226-1.272 1.84-1.272 3.104.437 2.3 1.272 3.104zm23.003-13.374c-2.304-.153-3.456.728-3.456 2.682v.153h3.456v3.9h-3.456v11.84h-4.212V12.15h-2.344v-3.9h2.344V8.1c0-2.223.636-3.9 1.907-5.058s3.18-1.648 5.72-1.494v3.87h.04zM144.576 1h-4.2v22.954h4.2V1zm13.2 11.036h-3.695v6.553c0 .537.16.958.437 1.188.278.268.715.383 1.232.42.556.038 1.23.038 2.026 0v3.68c-2.9.306-4.926.038-6.118-.805s-1.788-2.338-1.788-4.484v-6.553h-2.82v-3.9h2.82v-3.18l4.2-1.226v4.407h3.695v3.9zm7.43-1.073c.398-.996 1.033-1.763 1.947-2.26a6.18 6.18 0 0 1 3.02-.766v4.522a5.15 5.15 0 0 0-3.457.766c-.993.65-1.5 1.724-1.5 3.257v7.5h-4.2V8.28h4.2v2.682zm10.33 6.362c.556 1.954 2.106 2.95 4.6 2.95 1.6 0 2.82-.536 3.655-1.57l3.377 1.878c-1.6 2.26-3.973 3.372-7.112 3.372-2.7 0-4.847-.805-6.476-2.376s-2.463-3.564-2.463-5.94.795-4.33 2.424-5.94c1.6-1.57 3.655-2.376 6.197-2.376 2.384 0 4.37.805 5.92 2.376 1.55 1.6 2.344 3.564 2.344 5.9a8.6 8.6 0 0 1-.159 1.686h-12.316v.038zm-.08-3.142h8.303c-.238-1.073-.715-1.878-1.47-2.376-.755-.537-1.6-.805-2.543-.805-1.112 0-2.066.268-2.82.843a4.15 4.15 0 0 0-1.47 2.338zm-41.04-7.818c-.715 0-1.3-.23-1.827-.728s-.755-1.073-.755-1.763.238-1.265.755-1.763 1.112-.766 1.827-.766a2.48 2.48 0 0 1 1.828.766 2.33 2.33 0 0 1 .755 1.763 2.33 2.33 0 0 1-.755 1.763c-.477.498-1.113.728-1.828.728zm-2.066 1.878h4.212v15.7h-4.212v-15.7z" fill="#fff"/><path d="M30.826 3.374L19.498 21.418C18.5 23 19.752 25 21.746 25h22.656c1.994 0 3.244-1.983 2.248-3.582L35.32 3.374c-.997-1.6-3.498-1.6-4.495 0z" fill="#ffbd59"/><path d="M11.697 21.624L.35 3.584C-.647 2 .604 0 2.598 0h22.656c1.994 0 3.244 1.984 2.248 3.584L16.173 21.64c-.98 1.584-3.48 1.584-4.477-.017z" fill="#00c2cb"/></svg>