<svg width="117" height="68" viewBox="0 0 117 68" fill="none" xmlns="http://www.w3.org/2000/svg">
<path d="M79.0197 10.9288L79.0236 10.922C80.5276 8.30226 84.2976 8.30226 85.8016 10.922L85.8055 10.9288L113.811 59.3572C113.812 59.3581 113.812 59.3591 113.813 59.36C115.318 61.986 113.429 65.228 110.422 65.228H54.4031C51.3935 65.228 49.5139 61.9433 51.0085 59.367L51.0102 59.364L79.0197 10.9288Z" stroke="#00C2CB" stroke-width="5"/>
<path d="M36.3589 56.8812L36.3536 56.872L8.29929 8.45053L8.29892 8.4499C6.80235 5.86857 8.68608 2.58218 11.6932 2.58218H67.7122C70.717 2.58218 72.6096 5.82616 71.1021 8.45744C71.1017 8.4582 71.1012 8.45896 71.1008 8.45971L43.0952 56.9191L43.0911 56.9262L43.0871 56.9333C41.6382 59.4786 37.8755 59.5246 36.3589 56.8812Z" stroke="#00C2CB" stroke-width="5"/>
</svg>
