<svg xmlns="http://www.w3.org/2000/svg" width="36.393" height="37" viewBox="0 0 36.393 37"><g transform="translate(-2 -1)"><path d="M23.23,45.344H22.016V39.4a.607.607,0,0,0-1.213,0v5.944H5.033V33.213h5.047a.607.607,0,1,0,0-1.213H4.426a.607.607,0,0,0-.607.607V45.344H2.607A.607.607,0,0,0,2,45.951v1.213A3.033,3.033,0,0,0,5.033,50.2H20.8a3.033,3.033,0,0,0,3.033-3.033V45.951A.607.607,0,0,0,23.23,45.344Zm-.607,1.82a1.82,1.82,0,0,1-1.82,1.82H19.59v-.607a.607.607,0,0,0-1.213,0v.607H7.459v-.607a.607.607,0,0,0-1.213,0v.607H5.033a1.82,1.82,0,0,1-1.82-1.82v-.607h19.41Z" transform="translate(0 -12.197)" fill="#17a6af"/><path d="M52.033,7.213h1.213a.607.607,0,0,0,0-1.213H52.033a1.82,1.82,0,0,0-1.82,1.82v.607h-.607a.607.607,0,1,0,0,1.213h.607v1.82a.607.607,0,1,0,1.213,0V9.639h.607a.607.607,0,0,0,0-1.213h-.607V7.82A.607.607,0,0,1,52.033,7.213Z" transform="translate(-18.492 -1.967)" fill="#17a6af"/><path d="M53.1,2H45.82A1.82,1.82,0,0,0,44,3.82V5.033a.607.607,0,0,0,1.213,0V3.82a.607.607,0,0,1,.607-.607H53.1a.607.607,0,0,1,.607.607V11.1a.607.607,0,0,1-.607.607H45.82a.607.607,0,0,1-.607-.607V7.459a.607.607,0,0,0-1.213,0V11.1a1.82,1.82,0,0,0,1.82,1.82H53.1a1.82,1.82,0,0,0,1.82-1.82V3.82A1.82,1.82,0,0,0,53.1,2Z" transform="translate(-16.525 -0.393)" fill="#17a6af"/><path d="M49,40.426A2.426,2.426,0,1,0,51.426,38,2.426,2.426,0,0,0,49,40.426Zm3.639,0a1.213,1.213,0,1,1-1.213-1.213A1.213,1.213,0,0,1,52.639,40.426Z" transform="translate(-18.492 -14.557)" fill="#17a6af"/><path d="M53.1,33H45.82A1.82,1.82,0,0,0,44,34.82V42.1a1.82,1.82,0,0,0,1.82,1.82H53.1a1.82,1.82,0,0,0,1.82-1.82V40.885a.607.607,0,0,0-1.213,0V42.1a.607.607,0,0,1-.607.607H45.82a.607.607,0,0,1-.607-.607V34.82a.607.607,0,0,1,.607-.607H53.1a.607.607,0,0,1,.607.607v3.639a.607.607,0,0,0,1.213,0V34.82A1.82,1.82,0,0,0,53.1,33Z" transform="translate(-16.525 -12.59)" fill="#17a6af"/><path d="M24.285,10.763a.6.6,0,0,0,.594.024l3.639-1.82a.607.607,0,0,0,0-1.08L24.88,6.068a.607.607,0,0,0-.88.54v3.639A.607.607,0,0,0,24.285,10.763Zm.928-3.172,1.674.837-1.674.837Z" transform="translate(-8.656 -1.968)" fill="#17a6af"/><path d="M23.459,11.918A5.459,5.459,0,1,0,18,6.459,5.459,5.459,0,0,0,23.459,11.918Zm0-9.7a4.246,4.246,0,1,1-4.246,4.246,4.246,4.246,0,0,1,4.246-4.246Z" transform="translate(-6.295)" fill="#17a6af"/><path d="M36.607,20.639a.607.607,0,0,0,.485-.243l1.82-2.426a.607.607,0,1,0-.97-.728l-1.82,2.426a.607.607,0,0,0,.485.97Z" transform="translate(-13.377 -6.295)" fill="#17a6af"/><path d="M39.121,24.79a.607.607,0,0,0,.849.121l2.426-1.82a.607.607,0,0,0-.728-.97l-2.426,1.82a.607.607,0,0,0-.121.849Z" transform="translate(-14.557 -8.262)" fill="#17a6af"/><path d="M46.2,28.476a.607.607,0,0,0-.728-.485l-3.033.607a.61.61,0,1,0,.121,1.213h.121l3.033-.607a.607.607,0,0,0,.485-.728Z" transform="translate(-15.696 -10.614)" fill="#17a6af"/><path d="M2.607,21.918H9.885a.607.607,0,0,0,.607-.607v-9.7A.607.607,0,0,0,9.885,11H2.607A.607.607,0,0,0,2,11.607v9.7A.607.607,0,0,0,2.607,21.918Zm.607-9.7H9.279V20.7H3.213Z" transform="translate(0 -3.934)" fill="#17a6af"/><path d="M9.82,15H8.607a.607.607,0,0,0,0,1.213H9.82A.607.607,0,1,0,9.82,15Z" transform="translate(-2.361 -5.508)" fill="#17a6af"/><path d="M9.033,19H6.607a.607.607,0,0,0,0,1.213H9.033a.607.607,0,1,0,0-1.213Z" transform="translate(-1.574 -7.082)" fill="#17a6af"/><path d="M9.033,23H6.607a.607.607,0,1,0,0,1.213H9.033a.607.607,0,1,0,0-1.213Z" transform="translate(-1.574 -8.656)" fill="#17a6af"/><path d="M25.463,26.458a.609.609,0,1,0-1.055.607l2.675,4.628-9.7,3.639h-.091l-1.577.91-1.049.607A1.211,1.211,0,0,1,13,36.406l-1.213-2.1a1.213,1.213,0,0,1,.455-1.6l2.1-1.213,1.516,2.626a.609.609,0,1,0,1.055-.607l-1.565-2.705,7.612-6.278.249.431a.609.609,0,0,0,1.055-.607L23.662,23.3a.615.615,0,0,0-.916-.164l-8.492,7L11.67,31.632a2.426,2.426,0,0,0-1.116,2.748l-.607.346a1.818,1.818,0,0,0,.91,3.4,1.856,1.856,0,0,0,.91-.243l.607-.346a2.353,2.353,0,0,0,1.061.631,2.3,2.3,0,0,0,.637.085,2.39,2.39,0,0,0,1.213-.328l.528-.3,1.213,2.1a1.818,1.818,0,1,0,3.148-1.82l-1.1-1.923,9.1-3.415a.608.608,0,0,0,.315-.867ZM11.136,36.825a.606.606,0,1,1-.607-1.049l.528-.3.607,1.049Zm7.982,1.7a.606.606,0,0,1-1.049.607l-1.213-2.1,1.007-.576h.049Z" transform="translate(-2.767 -8.657)" fill="#17a6af"/></g></svg>