<svg width="500" height="360" viewBox="0 0 500 370" fill="none" xmlns="http://www.w3.org/2000/svg"><path d="M449.901 344.494h-33.122v.25h33.122v-.25zM331.22 347.208h-8.693v.25h8.693v-.25zM415.778 335.208h-19.192v.25h19.192v-.25zM95.652 336.888H52.459v.25h43.193v-.25zM110.889 336.888h-6.333v.25h6.333v-.25zM225.147 341.111h-93.676v.25h93.676v-.25zM237.014 283.8H43.915a5.716 5.716 0 01-5.708-5.708V6.66A5.714 5.714 0 0143.915.953h193.1a5.712 5.712 0 015.707 5.707v271.432a5.716 5.716 0 01-5.708 5.708zM43.915 1.2a5.463 5.463 0 00-5.458 5.457v271.435a5.465 5.465 0 005.458 5.458h193.1a5.46 5.46 0 005.457-5.458V6.66a5.465 5.465 0 00-5.457-5.457L43.915 1.2zM453.311 283.8h-193.1a5.716 5.716 0 01-5.707-5.708V6.66a5.71 5.71 0 015.707-5.707h193.1a5.714 5.714 0 015.708 5.707v271.432a5.716 5.716 0 01-5.708 5.708zM260.212 1.2a5.463 5.463 0 00-5.457 5.457v271.435a5.464 5.464 0 005.457 5.458h193.1a5.464 5.464 0 005.458-5.458V6.66a5.466 5.466 0 00-5.458-5.457l-193.1-.003zM500 328.398H0v.25h500v-.25z" fill="#EBEBEB"/><path d="M374.07 226.121v102.892h52.565V226.121H374.07z" fill="#EBEBEB"/><path d="M384.164 213.419v22.8h32.376v-22.8h-32.376z" fill="#EBEBEB"/><path d="M384.165 229.486h-6.73v6.73h6.73v-6.73zM397.2 229.486h-6.73v6.73h6.73v-6.73zM410.235 229.486h-6.73v6.73h6.73v-6.73z" fill="#FAFAFA"/><path d="M423.27 229.486h-6.73v6.73h6.73v-6.73zM384.165 241.714h-6.73v6.73h6.73v-6.73zM397.2 241.714h-6.73v6.73h6.73v-6.73z" fill="#F0F0F0"/><path d="M410.235 241.714h-6.73v6.73h6.73v-6.73zM423.27 241.714h-6.73v6.73h6.73v-6.73z" fill="#FAFAFA"/><path d="M384.165 253.941h-6.73v6.73h6.73v-6.73z" fill="#F0F0F0"/><path d="M397.2 253.941h-6.73v6.73h6.73v-6.73zM410.235 253.941h-6.73v6.73h6.73v-6.73zM397.2 218.917h-6.73v6.73h6.73v-6.73z" fill="#FAFAFA"/><path d="M410.235 218.917h-6.73v6.73h6.73v-6.73zM423.27 253.941h-6.73v6.73h6.73v-6.73z" fill="#F0F0F0"/><path d="M384.165 266.169h-6.73v6.73h6.73v-6.73z" fill="#FAFAFA"/><path d="M397.2 266.169h-6.73v6.73h6.73v-6.73zM410.235 266.169h-6.73v6.73h6.73v-6.73z" fill="#F0F0F0"/><path d="M423.27 266.169h-6.73v6.73h6.73v-6.73z" fill="#FAFAFA"/><path d="M384.165 278.397h-6.73v6.73h6.73v-6.73z" fill="#F0F0F0"/><path d="M397.2 278.397h-6.73v6.73h6.73v-6.73zM410.235 278.397h-6.73v6.73h6.73v-6.73z" fill="#FAFAFA"/><path d="M423.27 278.397h-6.73v6.73h6.73v-6.73zM384.165 290.624h-6.73v6.73h6.73v-6.73z" fill="#F0F0F0"/><path d="M397.2 290.624h-6.73v6.73h6.73v-6.73z" fill="#FAFAFA"/><path d="M410.235 290.624h-6.73v6.73h6.73v-6.73z" fill="#F0F0F0"/><path d="M423.27 290.624h-6.73v6.73h6.73v-6.73zM384.165 302.852h-6.73v6.73h6.73v-6.73zM397.2 302.852h-6.73v6.73h6.73v-6.73z" fill="#FAFAFA"/><path d="M410.235 302.852h-6.73v6.73h6.73v-6.73zM423.27 302.852h-6.73v6.73h6.73v-6.73zM384.165 315.08h-6.73v6.73h6.73v-6.73z" fill="#F0F0F0"/><path d="M423.27 315.08h-6.73v6.73h6.73v-6.73z" fill="#FAFAFA"/><path d="M410.234 315.08H390.47v1.93h.8v12h1.93v-12h14.3v12h1.93v-12h.8l.004-1.93z" fill="#F5F5F5"/><path d="M400.352 317.009h-7.153v12.004h7.153v-12.004z" fill="#E6E6E6"/><path d="M407.505 317.009h-7.153v12.004h7.153v-12.004z" fill="#EBEBEB"/><path d="M66.946 226.121v102.892h52.565V226.121H66.946z" fill="#F5F5F5"/><path d="M70.311 229.486v18.957h6.73v-18.957h-6.73z" fill="#E6E6E6"/><path d="M83.346 229.486v18.957h6.73v-18.957h-6.73z" fill="#F0F0F0"/><path d="M96.38 229.486v18.957h6.731v-18.957h-6.73z" fill="#E6E6E6"/><path d="M109.416 229.486v18.957h6.73v-18.957h-6.73zM70.311 253.941V272.9h6.73v-18.959h-6.73zM83.346 253.941V272.9h6.73v-18.959h-6.73z" fill="#F0F0F0"/><path d="M96.38 253.941V272.9h6.731v-18.959h-6.73z" fill="#E6E6E6"/><path d="M109.416 253.941V272.9h6.73v-18.959h-6.73z" fill="#F0F0F0"/><path d="M70.311 278.4v18.957h6.73V278.4h-6.73z" fill="#E6E6E6"/><path d="M83.346 278.4v18.957h6.73V278.4h-6.73zM96.38 278.4v18.957h6.731V278.4h-6.73z" fill="#F0F0F0"/><path d="M109.416 278.4v18.957h6.73V278.4h-6.73z" fill="#E6E6E6"/><path d="M112.781 302.852h-42.47v6.73h45.835v-6.73h-3.365z" fill="#F0F0F0"/><path d="M103.111 315.08H83.346v1.93h.8v12h1.93v-12h14.305v12h1.93v-12h.8v-1.93z" fill="#EBEBEB"/><path d="M93.228 317.009h-7.153v12.004h7.153v-12.004z" fill="#FAFAFA"/><path d="M100.381 317.009h-7.153v12.004h7.153v-12.004z" fill="#F5F5F5"/><path d="M119.511 272.9v56.115h52.565V272.9h-52.565z" fill="#E6E6E6"/><path d="M129.605 278.397h-6.73v6.73h6.73v-6.73zM142.641 278.397h-6.73v6.73h6.73v-6.73zM155.676 278.397h-6.73v6.73h6.73v-6.73zM168.711 278.397h-6.73v6.73h6.73v-6.73zM129.605 290.624h-6.73v6.73h6.73v-6.73zM142.641 290.624h-6.73v6.73h6.73v-6.73zM155.676 290.624h-6.73v6.73h6.73v-6.73zM168.711 290.624h-6.73v6.73h6.73v-6.73zM129.605 302.852h-6.73v6.73h6.73v-6.73zM142.641 302.852h-6.73v6.73h6.73v-6.73zM155.676 302.852h-6.73v6.73h6.73v-6.73zM168.711 302.852h-6.73v6.73h6.73v-6.73zM129.605 315.08h-6.73v6.73h6.73v-6.73zM168.711 315.08h-6.73v6.73h6.73v-6.73z" fill="#F0F0F0"/><path d="M155.675 315.08h-19.764v1.93h.8v12h1.93v-12h14.305v12h1.93v-12h.8l-.001-1.93z" fill="#F5F5F5"/><path d="M145.793 317.009h-7.153v12.004h7.153v-12.004z" fill="#E6E6E6"/><path d="M152.946 317.009h-7.153v12.004h7.153v-12.004z" fill="#EBEBEB"/><path d="M312.242 226.121v102.892h52.565V226.121h-52.565z" fill="#FAFAFA"/><path d="M331.372 302.852h-15.765v18.958h6.73v-12.228h13.035v-6.73h-4zM356.849 302.852h-15.172v6.73h13.035v12.228h6.73v-18.958h-4.593z" fill="#F0F0F0"/><path d="M348.407 315.08h-19.765v1.93h.8v12h1.93v-12h14.305v12h1.93v-12h.8v-1.93z" fill="#F5F5F5"/><path d="M338.525 317.009h-7.153v12.004h7.153v-12.004z" fill="#EBEBEB"/><path d="M345.678 317.009h-7.153v12.004h7.153v-12.004z" fill="#E0E0E0"/><path d="M335.372 229.486h-19.765v18.957h19.765v-18.957zM361.442 229.486h-19.765v18.957h19.765v-18.957zM335.372 253.941h-19.765v18.958h19.765v-18.958zM361.442 253.941h-19.765v18.958h19.765v-18.958zM335.372 278.397h-19.765v18.958h19.765v-18.958zM361.442 278.397h-19.765v18.958h19.765v-18.958zM125.769 201.689a2.624 2.624 0 001.432 4.587c16.313 1.762 49.275 4.194 58.2-3.66 11.473-10.1-21.2-.549-23.72-2.844-2.52-2.295 6.433-7.381-.6-7.253-4.938.09-12.617 8.83-20.5 7.673-6.425-.942 2.142-5.608-3.825-5.608-5.167 0-7.534 4.016-10.987 7.105z" fill="#F0F0F0"/><path d="M157.158 199.083a1.879 1.879 0 001.025 3.284c11.678 1.261 35.275 3 41.663-2.621 8.214-7.229-15.174-.393-16.981-2.035-1.807-1.642 4.6-5.284-.433-5.193-3.534.065-9.032 6.321-14.675 5.494-4.6-.675 1.533-4.015-2.738-4.015-3.694.003-5.389 2.878-7.861 5.086z" fill="#F5F5F5"/><path d="M274.276 119.695c23.196 0 42-18.804 42-42s-18.804-42-42-42-42 18.804-42 42 18.804 42 42 42z" fill="#F0F0F0"/><path d="M267.186 90.373a2.437 2.437 0 00.985 4.494c25.5 2.975 88.632 8.652 104.94-5.7 19.68-17.322-36.354-.94-40.684-4.877-4.33-3.936 11.034-12.66-1.037-12.44-8.468.153-21.641 15.144-35.161 13.161-11.02-1.616 3.674-9.619-6.56-9.619-10.545-.003-14.289 9.783-22.483 14.981z" fill="#FAFAFA"/><path d="M331.939 26.99a2.264 2.264 0 00-.717 2.389 2.262 2.262 0 001.917 1.596c15.717 1.73 48.836 4.3 57.7-3.508 11.239-9.893-20.762-.538-23.234-2.786-2.472-2.248 6.3-7.23-.592-7.105-4.837.088-12.359 8.649-20.081 7.517-6.293-.923 2.1-5.494-3.746-5.494-5.292.001-7.586 4.33-11.247 7.391zM245.178 369.714c107.082 0 193.889-5.069 193.889-11.323 0-6.253-86.807-11.323-193.889-11.323-107.082 0-193.889 5.07-193.889 11.323 0 6.254 86.807 11.323 193.889 11.323z" fill="#F5F5F5"/><path d="M140.112 337.422h-32.725v16.362h32.725v-16.362z" fill="#0FA6AF"/><path opacity=".3" d="M140.112 337.422h-32.725v16.362h32.725v-16.362z" fill="#fff"/><path opacity=".2" d="M140.112 353.784v-16.362h-8.181v16.362h8.181z" fill="#000"/><path d="M205.562 304.697h-32.725v49.088h32.725v-49.088z" fill="#0FA6AF"/><path opacity=".4" d="M205.562 304.697h-32.725v49.088h32.725v-49.088z" fill="#fff"/><path opacity=".2" d="M205.562 353.785v-49.088h-8.181v49.088h8.181z" fill="#000"/><path d="M271.012 271.972h-32.725v81.813h32.725v-81.813z" fill="#0FA6AF"/><path opacity=".3" d="M271.012 271.972h-32.725v81.813h32.725v-81.813z" fill="#fff"/><path opacity=".2" d="M271.012 353.785v-81.813h-8.181v81.813h8.181z" fill="#000"/><path d="M336.462 222.885h-32.725v130.9h32.725v-130.9z" fill="#0FA6AF"/><path opacity=".2" d="M336.462 222.885h-32.725v130.9h32.725v-130.9z" fill="#fff"/><path opacity=".2" d="M336.462 353.785v-130.9h-8.181v130.9h8.181z" fill="#000"/><path d="M401.912 157.435h-32.725v196.35h32.725v-196.35z" fill="#0FA6AF"/><path opacity=".2" d="M401.912 353.785v-196.35h-8.181v196.35h8.181z" fill="#000"/><path d="M150.589 313.112h-42.7l-15.4-6.545h41.271v-32.725h65.45v-32.725h65.45V192.03h65.45v-65.45h55.206V69.545h16.83v63.58H346.94v65.45h-65.45v49.088h-65.45v32.725h-65.45l-.001 32.724z" fill="#0FA6AF"/><path opacity=".4" d="M150.589 313.112h-42.7l-15.4-6.545h41.271v-32.725h65.45v-32.725h65.45V192.03h65.45v-65.45h55.206V69.545h16.83v63.58H346.94v65.45h-65.45v49.088h-65.45v32.725h-65.45l-.001 32.724z" fill="#fff"/><path d="M385.316 126.58V69.545h16.83v63.58l-16.83-6.545zM330.109 192.03v-65.45l16.83 6.545v65.45l-16.83-6.545zM264.659 241.117V192.03l16.83 6.545v49.088l-16.83-6.546zM199.21 273.842v-32.725l16.83 6.545v32.725l-16.83-6.545zM133.76 306.567v-32.725l16.83 6.545v32.725l-16.83-6.545z" fill="#0FA6AF"/><path d="M374.07 74.206l19.661-23.634 19.661 37.946-39.322-14.312z" fill="#0FA6AF"/><path d="M194.78 108.587a53.393 53.393 0 00-3.687 9.57l-.068.248c-.133.5-.4 1.641-.416 1.7a38.713 38.713 0 00-.317 1.566c-.005.026-.2 1.181-.272 1.74l-.02.189c-.143 1.134-.249 3.542-.25 3.591-.006.581.007 1.162.038 1.745 0 .032.094 1.278.172 1.868l.019.167c-.007-.056-.011-.111-.019-.166 1.524 9.527 2.949 10.773 4.11 14.309 3.421 10.41 6.077 43.407 6.077 43.407-19.779 5.331-43.6 27.031-43.6 27.031l4.278 9.882s51.315-24.267 54.955-29.2c4.323-5.855 1.842-36.848 3.2-49.066.5-4.522 1.077-8.445 1.649-11.95l6.432-9.913-32.281-16.718z" fill="#FDBC5A"/><path opacity=".2" d="M204.342 134.667l-3.834-4.084s-7.117 5.914 18.013 27.688c.033-4.348.14-8.237.457-11.094.042-.372.086-.717.128-1.081l-14.764-11.429z" fill="#000"/><path d="M157.266 217.313l-10.4 5.292 3.207 5.25 9.689-4.292-2.496-6.25z" fill="#FFC3BD"/><path d="M150.518 229.18a.18.18 0 01-.011-.1.182.182 0 01.047-.09.171.171 0 01.19-.033c.114.054 2.688 1.286 3.1 2.447a.882.882 0 01-.023.66.63.63 0 01-.594.427c-.478-.024-1.131-.683-1.634-1.409a12.442 12.442 0 01-1.075-1.902zm.495.32c.618 1.18 1.647 2.647 2.215 2.654.074.007.182-.015.283-.236a.457.457 0 00.006-.406 1.176 1.176 0 00-.149-.288 7.776 7.776 0 00-2.355-1.724z" fill="#0FA6AF"/><path d="M150.475 229.1a.168.168 0 01.082-.148 4.828 4.828 0 012.888-.657 1.237 1.237 0 01.77.607c.225.407.115.66-.034.783-.57.579-2.808.052-3.6-.431a.1.1 0 01-.045-.054.16.16 0 01-.061-.1zm3.413-.109a.876.876 0 00-.505-.358 3.957 3.957 0 00-2.327.464c.929.427 2.557.662 2.928.352.028-.035.117-.121-.034-.384l-.062-.074z" fill="#0FA6AF"/><path d="M150.923 228.018l-4.413-6.375a.621.621 0 00-.748-.224l-5.984 2.437a1.045 1.045 0 00-.643 1.116c.023.153.079.3.166.428 1.63 2.27 3.171 4.227 5.147 7.091 2.336 3.377 1.339 2.8 4.031 6.809 1.624 2.413 4.645.969 4.077-.137-2.628-5.047-1.56-6.5-1.138-9.439a2.504 2.504 0 00-.495-1.706z" fill="#FDBC5A"/><path opacity=".2" d="M155.625 218.148l-3.9 1.983 2.821 5.741 3.217-1.425-2.138-6.299z" fill="#000"/><path d="M156.517 212.276l-4.4 2.565 5.515 12.648 5.118-1.422-6.233-13.791z" fill="#0FA6AF"/><path d="M249.4 181.279s-45.078-38.015-48.915-44.763c-3.837-6.748 6.427-16 6.427-16l11.435 1.6s48.165 43.7 46.193 52.452l-15.14 6.711z" fill="#FDBC5A"/><path d="M264.535 174.573c-1.263 8.878-20.3 51.575-20.3 51.575s-3.934-.232-11.133-4.731c0 0 7.524-33.744 15.161-46.844h16.272z" fill="#FDBC5A"/><path d="M236.344 223.445l-3.4 11.164 6.006 1.331 3.628-9.957-6.234-2.538z" fill="#FFC3BD"/><path d="M240.212 236.537a.176.176 0 01-.112-.158.17.17 0 01.108-.16c.118-.045 2.791-1.044 3.909-.532a.88.88 0 01.46.473.631.631 0 01-.1.725 3.03 3.03 0 01-2.148.2c-.72-.12-1.429-.303-2.117-.548zm.574-.136c1.279.374 3.049.65 3.448.246.056-.048.116-.141.026-.368a.466.466 0 00-.288-.285 1.127 1.127 0 00-.311-.093 7.793 7.793 0 00-2.875.499v.001z" fill="#0FA6AF"/><path d="M240.126 236.513a.164.164 0 01-.05-.162 4.816 4.816 0 011.53-2.536 1.258 1.258 0 01.97-.134c.45.12.556.375.542.568.021.812-1.911 2.059-2.809 2.3a.097.097 0 01-.071-.005.16.16 0 01-.112-.031zm2.288-2.535a.886.886 0 00-.608.115 3.96 3.96 0 00-1.28 2c.953-.373 2.25-1.383 2.285-1.865-.006-.045-.006-.168-.3-.242l-.1-.007.003-.001z" fill="#0FA6AF"/><path d="M239.656 235.439L232 234.2a.625.625 0 00-.68.384l-2.394 6a1.031 1.031 0 00.357 1.237c.126.09.271.15.424.177 2.766.4 5.244.648 8.678 1.21 4.054.66 2.946.978 7.7 1.819 2.865.505 3.92-2.674 2.729-3.032-5.458-1.607-5.763-3.383-7.589-5.727a2.498 2.498 0 00-1.569-.829z" fill="#FDBC5A"/><path opacity=".2" d="M235.807 225.205l-1.275 4.183 6.092 1.949 1.2-3.306-6.017-2.826z" fill="#000"/><path d="M232.2 220.491l-1.206 4.951 12.936 4.8 2.525-4.673-14.255-5.078z" fill="#0FA6AF"/><path d="M180.507 93.236L181.26 86l6.316 1.317-2.145 7.337s2.125 3.4 1.962 6.411c-.163 3.011-1.889 2.6-1.889 2.6s.178 3.188-2.532 2.25c-2.71-.938-6.212-2.329-5.62-4.969a39.616 39.616 0 013.155-7.71z" fill="#FFC3BD"/><path d="M226.541 62.785c-2.169-8.17-27.148-.377-27.148-.377S187.2 66.342 184 69.3c-3.214 2.978-5 20.357-5 20.357l8.754 1.91 5.424-14.963c24.391-4.204 35.468-5.886 33.363-13.819z" fill="#0FA6AF"/><path d="M187.959 88.774a.758.758 0 01-1.326-.455.757.757 0 011.259-.617.757.757 0 01.067 1.072z" fill="#fff"/><path opacity=".1" d="M220.234 67.727l.056-7.72s-5.252-.9-13.238 14.153c3.587-.678 6.688-1.332 9.3-2.024l3.882-4.409z" fill="#000"/><path d="M252.4 47.939l1.023 4.849a3.717 3.717 0 01-3.23-.863l2.207-3.986z" fill="#BA4D3C"/><path d="M253.473 46.019c-.042.506-.339.9-.671.869-.332-.031-.586-.482-.531-.973.055-.491.339-.9.671-.864.332.036.568.463.531.968z" fill="#FDBC5A"/><path d="M230.189 61.456s4.341.317 5.662-7.54c0 0 4.256-1.1 6.4 1.669 2.144 2.768-3.671 7.325-.906 10.164 2.765 2.839-11.156-4.293-11.156-4.293z" fill="#FFC3BD"/><path opacity=".2" d="M239.334 58.343a14.794 14.794 0 001.83 3.208c.4-.977.923-1.972 1.252-2.919l-3.082-.289z" fill="#000"/><path d="M234.064 42.37c-.859 6.7-1.367 9.523 1.328 13.56 4.45 4.437 12.482 5.669 15.325-.645 2.56-5.68 3.53-15.658-2.448-19.57a9.219 9.219 0 00-14.205 6.656z" fill="#FFC3BD"/><path d="M251.327 43.318a.28.28 0 00.246.062 2.086 2.086 0 011.872.36.267.267 0 00.373-.016.27.27 0 00.067-.192.27.27 0 00-.084-.185 2.599 2.599 0 00-2.361-.484.268.268 0 00-.192.324c.014.05.041.096.079.131z" fill="#FDBC5A"/><path d="M247.258 48.605l2.378-.136a5.79 5.79 0 011.133-5.642c2.3-2.958 7.964-4.533 3.372-9.66a12.518 12.518 0 00-10.341-4.342l3.813 2.732s-7.863-5.771-12.5.5a5.488 5.488 0 013.508.068s-20.876 7.056-3.236 23.805c0 0 .669-1.36 3.486.855a16.486 16.486 0 004.9-5.305c1.698-3.193 2.896-6.186 3.487-2.875z" fill="#FDBC5A"/><path d="M247.164 46.351a5.19 5.19 0 011.047 3.841c-.248 1.814-2.054 2.011-3.392.914-1.213-.992-2.528-3.127-1.6-4.667a2.354 2.354 0 011.948-1.117 2.351 2.351 0 011.997 1.029z" fill="#FFC3BD"/><path d="M256.377 35s.609 3.639-5.11 5.8c0 0 7.96.813 5.11-5.8z" fill="#FDBC5A"/><path d="M229.582 62.473l2.267-2.9s10.88.992 11.54 7.172l-13.807-4.272z" fill="#0FA6AF"/><path opacity=".5" d="M229.582 62.473l2.267-2.9s10.88.992 11.54 7.172l-13.807-4.272z" fill="#fff"/><path d="M205.613 87.544c3-7.462 7.831-27.282 15.52-28.185 7.689-.903 29.795 7.931 32.4 15.79 2.605 7.857-27.667 52.574-27.667 52.574l-32.126-17.691s9.5-16.59 11.873-22.488z" fill="#0FA6AF"/><path opacity=".1" d="M243.368 72.56s-5.828 11.118 1.2 25.123a138.987 138.987 0 007.122-14.124l-2.471-5.842-5.851-5.158z" fill="#000"/><path d="M211.189 88.293c4.205.624 8.815-.617 12.554-2.44 4.278-2.086 7.452-5.221 10.592-8.723 2.8-3.125 6.563-6.692 10.938-7.275 9.919-1.32 12.038 14.5 11 21.4-1.234 8.205-5.844 15.717-10.894 22.129a80.325 80.325 0 01-9.966 10.719c-1.183 1.038.667 2.648 1.838 1.621 9.475-8.312 18.679-20.087 21.191-32.647 1.516-7.58-.4-18.39-7.148-23.3-6.114-4.445-12.864-.339-17.331 4.161-5.956 6-12.844 13.351-22.3 11.947-1.554-.231-2.037 2.173-.471 2.4l-.003.008z" fill="#0FA6AF"/><path opacity=".3" d="M211.189 88.293c4.205.624 8.815-.617 12.554-2.44 4.278-2.086 7.452-5.221 10.592-8.723 2.8-3.125 6.563-6.692 10.938-7.275 9.919-1.32 12.038 14.5 11 21.4-1.234 8.205-5.844 15.717-10.894 22.129a80.325 80.325 0 01-9.966 10.719c-1.183 1.038.667 2.648 1.838 1.621 9.475-8.312 18.679-20.087 21.191-32.647 1.516-7.58-.4-18.39-7.148-23.3-6.114-4.445-12.864-.339-17.331 4.161-5.956 6-12.844 13.351-22.3 11.947-1.554-.231-2.037 2.173-.471 2.4l-.003.008z" fill="#000"/><path d="M282.571 101.63l-6.747 2.293-.922-5.088 6.916-2.17s1.372-3.574 4.119-4.663c2.747-1.089 3.872.906 3.872.906s2.766-1.465 3.041 1.331c.275 2.796.183 7.269-2.41 7.824-2.593.555-5.595-.4-7.869-.433z" fill="#FFC3BD"/><path d="M278.971 96.155L264.733 98.4c-9.354-21.91-13.419-31.594-20.526-27.8-7.458 3.984 5.774 25.24 5.774 25.24s6.282 11.534 9.612 14.382c.201.187.431.34.681.453 4.229 1.147 20.183-6.535 20.183-6.535l-1.486-7.985z" fill="#0FA6AF"/><path d="M278.969 103.939a.762.762 0 01-1.175-.04.761.761 0 111.363-.51.763.763 0 01-.188.55z" fill="#fff"/><path d="M213.268 87.328l24.093 34.786a3.236 3.236 0 01.525 2.426 3.234 3.234 0 01-1.344 2.086l-17.843 12.359a5.582 5.582 0 01-7.772-1.411l-21.426-30.935a5.584 5.584 0 011.412-7.771l17.844-12.359a3.241 3.241 0 014.511.82z" fill="#0FA6AF"/><path opacity=".3" d="M213.268 87.328l24.093 34.786a3.236 3.236 0 01.525 2.426 3.234 3.234 0 01-1.344 2.086l-17.843 12.359a5.582 5.582 0 01-7.772-1.411l-21.426-30.935a5.584 5.584 0 011.412-7.771l17.844-12.359a3.241 3.241 0 014.511.82z" fill="#fff"/><path opacity=".1" d="M235.5 124.3l-24.973-36.055a2.472 2.472 0 00-3.437-.624l-.745.516a6.964 6.964 0 00-2.884 4.477 6.947 6.947 0 001.126 5.204l19.862 28.677a6.96 6.96 0 004.476 2.884 6.945 6.945 0 005.205-1.126l.745-.516a2.47 2.47 0 00.625-3.437z" fill="#000"/><path d="M237.8 122.748l-24.972-36.054a2.471 2.471 0 00-3.437-.625l-.745.517a6.96 6.96 0 00-1.758 9.681l19.862 28.677a6.96 6.96 0 009.681 1.758l.745-.517a2.46 2.46 0 001.008-2.553 2.475 2.475 0 00-.384-.884z" fill="#0FA6AF"/><path d="M237.8 122.748l-24.972-36.054a2.471 2.471 0 00-3.437-.625l-.745.517a6.96 6.96 0 00-1.758 9.681l19.862 28.677a6.96 6.96 0 009.681 1.758l.745-.517a2.46 2.46 0 001.008-2.553 2.475 2.475 0 00-.384-.884z" fill="#0FA6AF"/><path opacity=".5" d="M237.8 122.748l-24.972-36.054a2.471 2.471 0 00-3.437-.625l-.745.517a6.96 6.96 0 00-1.758 9.681l19.862 28.677a6.96 6.96 0 009.681 1.758l.745-.517a2.46 2.46 0 001.008-2.553 2.475 2.475 0 00-.384-.884z" fill="#fff"/><path d="M213.757 98.864l-.438-.632a1.948 1.948 0 00-2.711-.493l-4.86 3.364a1.949 1.949 0 00-.493 2.711l.438.632a1.948 1.948 0 002.711.493l4.859-3.364a1.949 1.949 0 00.494-2.71zM226.77 117.65l.437.631a1.95 1.95 0 01-.491 2.713l-4.859 3.37a1.95 1.95 0 01-2.713-.491l-.439-.632a1.95 1.95 0 01.491-2.713l4.859-3.37a1.955 1.955 0 012.715.492z" fill="#0FA6AF"/><path opacity=".3" d="M213.757 98.864l-.438-.632a1.948 1.948 0 00-2.711-.493l-4.86 3.364a1.949 1.949 0 00-.493 2.711l.438.632a1.948 1.948 0 002.711.493l4.859-3.364a1.949 1.949 0 00.494-2.71zM226.77 117.65l.437.631a1.95 1.95 0 01-.491 2.713l-4.859 3.37a1.95 1.95 0 01-2.713-.491l-.439-.632a1.95 1.95 0 01.491-2.713l4.859-3.37a1.955 1.955 0 012.715.492z" fill="#000"/><path opacity=".2" d="M190.66 108.312s8.335 13.733 15.492 9.681l-5.938 4.113-9.554-13.794z" fill="#000"/><path d="M221.922 100.836c1.944-.278 3.012-1.373 4.663-2.144 1.127-.527-.214-1 .785-.07.336.387.623.814.856 1.27.671 1.062 1.241 2.188 1.937 3.234.6.9 2.159 1.855 2.547 2.773.633 1.5-2.622 3.6-3.555 4.367-1.13.927.162 2.814 1.3 1.879 1.628-1.335 4.858-3.476 4.743-5.957-.071-1.539-1.421-2.25-2.349-3.275-1.75-1.932-2.453-5.372-4.775-6.76a2.029 2.029 0 00-2.251-.027c-.906.5-1.329 1.485-2.37 1.942a6.684 6.684 0 01-1.708.488c-1.452.207-1.283 2.488.176 2.28h.001z" fill="#0FA6AF"/><path opacity=".3" d="M221.922 100.836c1.944-.278 3.012-1.373 4.663-2.144 1.127-.527-.214-1 .785-.07.336.387.623.814.856 1.27.671 1.062 1.241 2.188 1.937 3.234.6.9 2.159 1.855 2.547 2.773.633 1.5-2.622 3.6-3.555 4.367-1.13.927.162 2.814 1.3 1.879 1.628-1.335 4.858-3.476 4.743-5.957-.071-1.539-1.421-2.25-2.349-3.275-1.75-1.932-2.453-5.372-4.775-6.76a2.029 2.029 0 00-2.251-.027c-.906.5-1.329 1.485-2.37 1.942a6.684 6.684 0 01-1.708.488c-1.452.207-1.283 2.488.176 2.28h.001z" fill="#000"/></svg>