<svg width="438" height="453" viewBox="0 0 438 453" fill="none" xmlns="http://www.w3.org/2000/svg">
<path d="M274.646 108.2C274.283 108.222 273.933 108.347 273.637 108.559C273.342 108.771 273.112 109.063 272.974 109.4L269.354 118.321C269.242 118.598 269.195 118.897 269.217 119.195C269.24 119.492 269.331 119.781 269.484 120.038C269.637 120.294 269.847 120.512 270.099 120.673C270.35 120.835 270.635 120.936 270.932 120.969C271.746 121.074 272.53 121.345 273.235 121.765C273.941 122.185 274.552 122.745 275.032 123.411C275.487 123.991 275.819 124.659 276.006 125.372C276.193 126.086 276.233 126.83 276.121 127.559C275.964 128.284 275.662 128.97 275.234 129.576C274.806 130.182 274.26 130.696 273.629 131.087C272.952 131.546 272.191 131.867 271.389 132.029C270.587 132.191 269.76 132.192 268.958 132.032C267.388 131.567 266.021 130.584 265.081 129.243C264.141 127.901 263.684 126.281 263.783 124.646C263.803 124.393 263.773 124.138 263.694 123.897C263.615 123.656 263.49 123.432 263.325 123.239C263.16 123.046 262.958 122.888 262.732 122.773C262.506 122.658 262.259 122.588 262.006 122.568C261.753 122.549 261.498 122.579 261.257 122.658C261.015 122.736 260.792 122.862 260.599 123.027C260.406 123.192 260.247 123.393 260.132 123.62C260.017 123.846 259.948 124.093 259.928 124.346C259.764 126.902 260.486 129.436 261.972 131.522C263.458 133.607 265.617 135.117 268.086 135.797C269.398 136.078 270.752 136.092 272.069 135.838C273.387 135.584 274.639 135.066 275.751 134.317C276.819 133.639 277.739 132.752 278.456 131.71C279.173 130.668 279.673 129.492 279.925 128.252C280.131 127.001 280.079 125.72 279.771 124.49C279.463 123.26 278.906 122.106 278.134 121.1C277.021 119.593 275.51 118.425 273.771 117.727L276.563 110.851C276.685 110.548 276.729 110.219 276.69 109.894C276.651 109.57 276.53 109.261 276.339 108.996C276.148 108.73 275.893 108.518 275.598 108.378C275.303 108.237 274.977 108.174 274.651 108.194L274.646 108.2Z" fill="#E0E0E0"/>
<path d="M278.635 105.454C278.76 105.168 278.797 104.85 278.741 104.543C278.686 104.235 278.541 103.951 278.323 103.726C278.106 103.501 277.828 103.345 277.522 103.278C277.217 103.212 276.898 103.237 276.607 103.352C276.316 103.466 276.066 103.664 275.887 103.921C275.709 104.177 275.611 104.481 275.605 104.794C275.599 105.106 275.686 105.414 275.855 105.677C276.024 105.94 276.267 106.147 276.553 106.272C276.744 106.355 276.948 106.4 277.156 106.404C277.364 106.408 277.57 106.371 277.764 106.295C277.957 106.219 278.133 106.105 278.283 105.961C278.433 105.817 278.552 105.645 278.635 105.454Z" fill="#E0E0E0"/>
<path d="M218.672 38.0732C218.818 37.7418 218.867 37.3758 218.814 37.0175C218.761 36.6592 218.608 36.3232 218.372 36.0482L212.156 28.7832C211.963 28.5577 211.721 28.38 211.448 28.2639C211.175 28.1479 210.879 28.0967 210.582 28.1144C210.286 28.1322 209.998 28.2183 209.741 28.3661C209.484 28.5139 209.264 28.7193 209.1 28.9662C208.636 29.6357 208.039 30.2029 207.347 30.6329C206.655 31.0628 205.882 31.3465 205.076 31.4662C204.356 31.6021 203.616 31.5894 202.901 31.4288C202.187 31.2682 201.512 30.9631 200.92 30.5322C200.352 30.0621 199.885 29.4826 199.546 28.8283C199.207 28.1739 199.002 27.4581 198.945 26.7232C198.849 25.9162 198.915 25.0982 199.138 24.3167C199.361 23.5353 199.737 22.806 200.245 22.1712C201.373 20.9992 202.864 20.2434 204.476 20.0269C206.088 19.8105 207.725 20.1461 209.122 20.9792C209.555 21.2475 210.077 21.3328 210.572 21.2165C211.068 21.1001 211.497 20.7916 211.766 20.3587C212.034 19.9259 212.119 19.4042 212.003 18.9085C211.886 18.4127 211.578 17.9835 211.145 17.7152C208.966 16.4037 206.401 15.8833 203.883 16.2418C201.365 16.6002 199.047 17.8156 197.32 19.6832C196.473 20.7114 195.842 21.9001 195.465 23.178C195.088 24.4559 194.972 25.7968 195.126 27.1202C195.237 28.3716 195.599 29.5877 196.191 30.6959C196.783 31.8042 197.592 32.7817 198.57 33.5702C199.58 34.3232 200.733 34.8613 201.958 35.1513C203.184 35.4413 204.456 35.477 205.696 35.2562C207.534 34.9614 209.254 34.1621 210.664 32.9472L215.454 38.5472C215.665 38.7938 215.935 38.9828 216.239 39.0967C216.543 39.2105 216.871 39.2454 217.193 39.1982C217.514 39.1509 217.818 39.0231 218.076 38.8265C218.334 38.63 218.539 38.3712 218.67 38.0742L218.672 38.0732Z" fill="#E0E0E0"/>
<path d="M219.277 42.8472C219.473 43.0883 219.736 43.266 220.033 43.3577C220.33 43.4494 220.647 43.451 220.945 43.3623C221.243 43.2736 221.508 43.0986 221.706 42.8594C221.904 42.6202 222.027 42.3276 222.059 42.0186C222.091 41.7095 222.031 41.3979 221.886 41.1231C221.741 40.8484 221.518 40.6228 221.244 40.4749C220.971 40.3271 220.66 40.2636 220.351 40.2924C220.041 40.3213 219.747 40.4413 219.506 40.6372C219.346 40.7671 219.213 40.9275 219.115 41.1089C219.016 41.2904 218.955 41.4894 218.934 41.6947C218.912 41.8999 218.932 42.1074 218.991 42.3051C219.05 42.5029 219.147 42.6871 219.277 42.8472Z" fill="#E0E0E0"/>
<path d="M435.823 43.3579H346.99V172.119H435.823V43.3579Z" fill="#E0E0E0"/>
<path d="M431.374 43.3579H342.54V172.119H431.374V43.3579Z" fill="#F5F5F5"/>
<path d="M420.337 57.3042H353.577V158.173H420.337V57.3042Z" fill="white"/>
<path d="M420.337 158.173C420.337 158.173 420.328 158.003 420.324 157.68C420.32 157.357 420.316 156.872 420.31 156.25C420.304 154.982 420.295 153.126 420.284 150.717C420.27 145.883 420.25 138.838 420.224 129.938C420.197 112.152 420.16 86.9651 420.115 57.3041L420.337 57.5261L353.585 57.5461H353.577L353.818 57.3041C353.8 95.3561 353.783 130.44 353.769 158.173L353.577 157.981L402.169 158.081L415.594 158.13L419.118 158.152C419.918 158.159 420.337 158.172 420.337 158.172C420.337 158.172 419.944 158.186 419.159 158.193L415.671 158.215L402.289 158.264L353.577 158.364H353.384V158.171C353.371 130.438 353.354 95.3541 353.335 57.3021V57.0601H353.585L420.337 57.0801H420.559V57.3001C420.515 87.0201 420.477 112.258 420.45 130.08C420.425 138.958 420.404 145.986 420.391 150.808C420.379 153.198 420.37 155.039 420.364 156.297C420.358 156.908 420.354 157.375 420.351 157.697C420.348 158.019 420.337 158.173 420.337 158.173Z" fill="#E0E0E0"/>
<path d="M431.623 43.3579C431.167 44.1712 430.637 44.9411 430.04 45.6579C429.008 47.0379 427.54 48.9149 425.872 50.9449C424.204 52.9749 422.637 54.7719 421.481 56.0449C420.892 56.768 420.237 57.4358 419.526 58.0399C420.029 57.2542 420.598 56.5125 421.226 55.8229L425.503 50.6339L429.775 45.4419C430.332 44.697 430.95 43.9999 431.623 43.3579Z" fill="#E0E0E0"/>
<path d="M420.677 157.849C423.997 163.127 427.903 168.012 432.321 172.411L420.677 157.849Z" fill="white"/>
<path d="M432.321 172.411C431.583 171.867 430.902 171.248 430.291 170.564C427.194 167.411 424.427 163.95 422.032 160.235C421.499 159.489 421.045 158.689 420.677 157.848C421.277 158.538 421.824 159.272 422.315 160.043C423.294 161.418 424.67 163.298 426.276 165.309C427.882 167.32 429.414 169.073 430.54 170.33C431.185 170.979 431.78 171.674 432.321 172.411Z" fill="#E0E0E0"/>
<path d="M342.527 172.017L354.163 157.661L342.527 172.017Z" fill="white"/>
<path d="M354.163 157.661C352.416 160.201 350.537 162.648 348.533 164.991C346.655 167.436 344.65 169.781 342.527 172.017C344.276 169.477 346.155 167.03 348.158 164.686C350.036 162.241 352.041 159.897 354.163 157.661Z" fill="#E0E0E0"/>
<path d="M342.54 43.3579C344.544 45.504 346.429 47.758 348.187 50.1099C350.071 52.3624 351.831 54.7166 353.457 57.1619C351.452 55.0158 349.567 52.7614 347.809 50.4089C345.925 48.157 344.166 45.8031 342.54 43.3579Z" fill="#E0E0E0"/>
<path d="M399.537 77.7852H377.183V141.254H399.537V77.7852Z" fill="#E0E0E0"/>
<path d="M93.3911 49.021L86.2842 49.0591L86.4737 84.4206L93.5806 84.3825L93.3911 49.021Z" fill="#E0E0E0"/>
<path d="M43.121 49.1123L24.7183 49.2109L24.8229 68.7327L43.2256 68.6341L43.121 49.1123Z" fill="#EBEBEB"/>
<path d="M61.4369 49.0147L43.0342 49.1133L43.1388 68.635L61.5415 68.5364L61.4369 49.0147Z" fill="#F5F5F5"/>
<path d="M24.7471 54.6C36.9771 54.7013 49.2168 54.645 61.4661 54.431C61.5108 54.4213 61.5508 54.3967 61.5795 54.3611C61.6083 54.3255 61.6239 54.2812 61.6239 54.2355C61.6239 54.1898 61.6083 54.1454 61.5795 54.1099C61.5508 54.0743 61.5108 54.0496 61.4661 54.04C49.2361 53.972 36.9751 54.032 24.7471 54.264C24.7025 54.264 24.6598 54.2817 24.6283 54.3132C24.5968 54.3447 24.5791 54.3874 24.5791 54.432C24.5791 54.4765 24.5968 54.5193 24.6283 54.5508C24.6598 54.5823 24.7025 54.6 24.7471 54.6Z" fill="#E0E0E0"/>
<path d="M46.6797 68.3091L13.2441 68.4883L13.3294 84.3971L46.7649 84.2179L46.6797 68.3091Z" fill="#EBEBEB"/>
<path d="M79.9565 68.1309L46.521 68.3101L46.6062 84.2188L80.0418 84.0397L79.9565 68.1309Z" fill="#F5F5F5"/>
<path d="M13.2681 72.9131C35.4801 73.1641 57.7681 72.9391 79.9811 72.5831C80.0258 72.5734 80.0658 72.5488 80.0945 72.5132C80.1233 72.4776 80.1389 72.4333 80.1389 72.3876C80.1389 72.3419 80.1233 72.2975 80.0945 72.262C80.0658 72.2264 80.0258 72.2017 79.9811 72.1921C57.7671 72.0751 35.4811 72.0921 13.2681 72.5771C13.2235 72.5771 13.1808 72.5948 13.1493 72.6263C13.1178 72.6578 13.1001 72.7005 13.1001 72.7451C13.1001 72.7896 13.1178 72.8324 13.1493 72.8639C13.1808 72.8954 13.2235 72.9131 13.2681 72.9131Z" fill="#E0E0E0"/>
<path d="M130.304 84.397H0.76416V90.096H130.304V84.397Z" fill="#E0E0E0"/>
<path d="M27.2312 87.1372H21.9722V106.585H27.2312V87.1372Z" fill="#E0E0E0"/>
<path d="M105.732 87.1372H100.473V106.585H105.732V87.1372Z" fill="#E0E0E0"/>
<path d="M100.326 35.834L93.2192 35.8721L93.4798 84.5064L100.587 84.4683L100.326 35.834Z" fill="#EBEBEB"/>
<path d="M111.43 44.8879L100.387 44.9473L100.599 84.3597L111.642 84.3003L111.43 44.8879Z" fill="#F5F5F5"/>
<path d="M111.355 52.481C109.521 52.6713 107.677 52.7351 105.834 52.672C103.991 52.7351 102.146 52.6713 100.312 52.481C102.146 52.2894 103.991 52.2252 105.834 52.289C107.677 52.2252 109.521 52.2894 111.355 52.481Z" fill="#E0E0E0"/>
<path d="M111.355 50.8252C109.521 51.0155 107.677 51.0794 105.834 51.0162C103.991 51.0794 102.146 51.0155 100.312 50.8252C102.146 50.6336 103.991 50.5695 105.834 50.6332C107.677 50.5695 109.521 50.6336 111.355 50.8252Z" fill="#E0E0E0"/>
<path d="M111.355 78.3703C109.521 78.5619 107.677 78.6261 105.834 78.5623C103.991 78.6261 102.146 78.5619 100.312 78.3703C102.146 78.18 103.991 78.1162 105.834 78.1793C107.677 78.1162 109.521 78.18 111.355 78.3703Z" fill="#E0E0E0"/>
<path d="M111.355 76.7153C109.521 76.9057 107.677 76.9695 105.834 76.9063C103.991 76.9695 102.146 76.9057 100.312 76.7153C102.146 76.5237 103.991 76.4596 105.834 76.5234C107.677 76.4596 109.521 76.5238 111.355 76.7153Z" fill="#E0E0E0"/>
<path d="M106.011 73.1004C105.911 73.1004 105.82 69.1244 105.82 64.2204C105.82 59.3164 105.906 55.3394 106.011 55.3394C106.116 55.3394 106.203 59.3144 106.203 64.2204C106.203 69.1264 106.117 73.1004 106.011 73.1004Z" fill="#E0E0E0"/>
<path d="M123.495 54.5659H111.475V84.3149H123.495V54.5659Z" fill="#EBEBEB"/>
<path d="M98.71 44.1382C98.7098 44.542 98.5899 44.9367 98.3654 45.2723C98.141 45.608 97.822 45.8695 97.449 46.024C97.0759 46.1784 96.6654 46.2188 96.2694 46.1399C95.8733 46.0611 95.5096 45.8666 95.2241 45.5811C94.9386 45.2956 94.7441 44.9319 94.6653 44.5358C94.5864 44.1398 94.6268 43.7293 94.7812 43.3562C94.9357 42.9832 95.1972 42.6642 95.5329 42.4398C95.8685 42.2153 96.2632 42.0954 96.667 42.0952C96.9353 42.0952 97.2009 42.1481 97.4488 42.2507C97.6967 42.3534 97.9219 42.5039 98.1116 42.6936C98.3013 42.8833 98.4518 43.1085 98.5545 43.3564C98.6571 43.6043 98.71 43.8699 98.71 44.1382Z" fill="#E0E0E0"/>
<path d="M97.2991 49.7554H96.0361V78.6874H97.2991V49.7554Z" fill="#E0E0E0"/>
<path d="M438 451.814C438 451.958 342.181 452.074 224.01 452.074C105.798 452.074 10 451.958 10 451.814C10 451.67 105.8 451.553 224.01 451.553C342.181 451.553 438 451.67 438 451.814Z" fill="#1C2E5C"/>
<path d="M348.472 212.3H58.2671V221.593H348.472V212.3Z" fill="#E0E0E0"/>
<path d="M84.6002 452.288L75.1782 452.255V220.366H84.6002V452.288Z" fill="#E0E0E0"/>
<path d="M334.683 452.267H325.165L325.265 220.367H334.687L334.683 452.267Z" fill="#E0E0E0"/>
<path d="M170.728 126.861C170.728 126.861 222.528 181.132 221.618 193.176C220.708 205.22 209.112 207.832 205.326 207.365C201.54 206.898 173.064 175.179 173.064 175.179L170.728 126.861Z" fill="#FDBC5A"/>
<g opacity="0.4">
<path opacity="0.4" d="M170.728 126.861C170.728 126.861 222.528 181.132 221.618 193.176C220.708 205.22 209.112 207.832 205.326 207.365C201.54 206.898 173.064 175.179 173.064 175.179L170.728 126.861Z" fill="black"/>
</g>
<path d="M198.334 394.976L212.377 441.976L228.164 433.404L219.2 390.375L198.334 394.976Z" fill="#FFBE9D"/>
<path d="M226.226 412.721L231.062 434.964C231.062 434.964 255.295 437.519 256.59 441.542L213.8 452.469L204.84 418.12L226.226 412.721Z" fill="#FDBC5A"/>
<path d="M217.357 436.489C216.977 436.719 216.696 437.081 216.567 437.505C216.438 437.93 216.47 438.387 216.657 438.789C216.873 439.177 217.229 439.467 217.653 439.6C218.076 439.733 218.534 439.698 218.933 439.503C219.336 439.259 219.633 438.873 219.768 438.422C219.902 437.97 219.864 437.485 219.661 437.06C219.394 436.679 218.989 436.416 218.532 436.326C218.075 436.237 217.601 436.328 217.21 436.581" fill="#E0E0E0"/>
<g opacity="0.4">
<path opacity="0.4" d="M213.8 452.469L213.033 448.969L254.348 439.801C254.348 439.801 256.464 440.143 256.592 441.54L213.8 452.469Z" fill="black"/>
</g>
<path d="M231.7 434.569C231.746 434.78 230.726 435.142 229.869 436.076C228.988 436.988 228.689 438.029 228.476 437.995C228.276 438.003 228.266 436.675 229.323 435.561C230.38 434.447 231.7 434.366 231.7 434.569Z" fill="#1C2E5C"/>
<path d="M236.662 435.28C236.762 435.47 235.947 436.056 235.462 437.122C234.946 438.172 235.011 439.173 234.801 439.222C234.613 439.304 234.156 438.122 234.783 436.805C235.41 435.488 236.607 435.082 236.662 435.28Z" fill="#1C2E5C"/>
<path d="M240.583 440C240.404 440.093 239.847 439.123 240.092 437.842C240.337 436.561 241.192 435.855 241.33 436.007C241.492 436.148 241.014 436.924 240.83 437.979C240.62 439.031 240.785 439.927 240.583 440Z" fill="#1C2E5C"/>
<path d="M230.035 429.622C229.996 429.835 228.964 429.792 227.804 430.174C226.635 430.532 225.817 431.163 225.663 431.012C225.503 430.891 226.203 429.889 227.576 429.458C228.949 429.027 230.1 429.432 230.035 429.622Z" fill="#1C2E5C"/>
<path d="M228.977 425.153C228.324 425.523 227.582 425.708 226.831 425.689C226.023 425.749 225.211 425.71 224.413 425.573C223.939 425.493 223.471 425.379 223.013 425.234C222.738 425.163 222.476 425.049 222.237 424.895C222.062 424.782 221.929 424.614 221.861 424.417C221.792 424.22 221.791 424.006 221.857 423.808C221.925 423.636 222.032 423.482 222.169 423.358C222.307 423.235 222.472 423.145 222.651 423.097C222.922 423.025 223.203 422.993 223.483 423.003C224.791 422.987 226.083 423.299 227.239 423.912C228.467 424.578 229.005 425.272 228.944 425.331C228.867 425.424 228.217 424.893 227.012 424.392C226.312 424.103 225.577 423.905 224.826 423.803C224.386 423.745 223.942 423.723 223.499 423.738C223.015 423.738 222.629 423.83 222.564 424.061C222.541 424.149 222.544 424.181 222.672 424.289C222.85 424.397 223.042 424.48 223.242 424.535C223.668 424.68 224.102 424.8 224.542 424.894C225.291 425.053 226.052 425.142 226.817 425.159C227.536 425.106 228.258 425.104 228.977 425.153Z" fill="#1C2E5C"/>
<path d="M228.781 425.522C228.715 425.573 228.11 424.93 227.688 423.596C227.304 422.342 227.272 421.006 227.594 419.735C227.637 419.423 227.76 419.127 227.951 418.876C228.143 418.625 228.395 418.428 228.685 418.304C228.877 418.26 229.077 418.271 229.263 418.336C229.449 418.401 229.612 418.518 229.733 418.673C229.907 418.895 230.049 419.141 230.153 419.403C230.349 419.862 230.474 420.348 230.523 420.845C230.61 421.678 230.49 422.518 230.173 423.293C229.62 424.615 228.812 425.093 228.773 425.022C229.11 424.405 229.41 423.768 229.673 423.116C229.886 422.408 229.942 421.661 229.837 420.929C229.777 420.505 229.657 420.092 229.481 419.701C229.298 419.263 229.034 418.94 228.875 419.03C228.662 419.081 228.388 419.516 228.305 419.923C228.188 420.349 228.11 420.784 228.071 421.223C228.008 421.974 228.052 422.73 228.202 423.468C228.464 424.736 228.887 425.461 228.781 425.522Z" fill="#1C2E5C"/>
<path d="M160.2 260.97C160.72 263.05 197.406 412.721 197.406 412.721L230.719 402.664L199.267 251.064L160.2 260.97Z" fill="#1C2E5C"/>
<path d="M155.294 69.7491L149.472 114.468C149.238 116.27 149.372 118.101 149.867 119.849C150.362 121.597 151.207 123.227 152.35 124.639C153.494 126.051 154.912 127.216 156.52 128.063C158.127 128.911 159.89 129.423 161.701 129.568C165.137 129.842 168.546 128.784 171.223 126.613C173.899 124.442 175.639 121.325 176.08 117.907C176.515 114.54 176.88 111.733 176.952 111.39C176.952 111.39 188.475 111.802 190.764 100.641C191.87 95.2481 193.244 83.9541 194.364 73.7221C194.943 68.4212 193.506 63.0965 190.337 58.8075C187.169 54.5186 182.501 51.5799 177.264 50.5761L176.185 50.3691C164.424 48.8151 156.526 57.9411 155.294 69.7491Z" fill="#FFBE9D"/>
<path d="M177 111.237C171.817 110.341 167.017 107.921 163.213 104.288C163.213 104.288 165.113 113.001 176.469 114.14L177 111.237Z" fill="#EB996E"/>
<path d="M191.17 80.0461C191.094 80.4632 190.858 80.8342 190.513 81.0798C190.167 81.3255 189.739 81.4264 189.32 81.3611C189.114 81.3382 188.914 81.2742 188.733 81.173C188.552 81.0717 188.393 80.9351 188.265 80.7714C188.137 80.6077 188.044 80.42 187.99 80.2196C187.936 80.0191 187.922 79.8098 187.95 79.6041C188.026 79.1869 188.262 78.8159 188.607 78.5699C188.953 78.3239 189.38 78.2224 189.799 78.2871C190.006 78.31 190.206 78.3741 190.387 78.4755C190.569 78.5768 190.728 78.7135 190.856 78.8775C190.984 79.0414 191.077 79.2293 191.131 79.43C191.185 79.6307 191.199 79.8402 191.17 80.0461Z" fill="#1C2E5C"/>
<path d="M191.263 78.121C191.025 78.291 189.987 77.163 188.263 76.837C186.55 76.486 185.118 77.128 184.972 76.882C184.898 76.771 185.172 76.434 185.798 76.139C186.642 75.7666 187.579 75.6642 188.483 75.846C189.378 76.0144 190.196 76.4634 190.818 77.128C191.272 77.635 191.379 78.046 191.263 78.121Z" fill="#1C2E5C"/>
<path d="M173.875 77.593C173.799 78.0103 173.563 78.3814 173.218 78.6273C172.872 78.8732 172.444 78.9742 172.025 78.909C171.819 78.8861 171.619 78.8221 171.438 78.7208C171.256 78.6195 171.097 78.483 170.97 78.3193C170.842 78.1555 170.748 77.9679 170.694 77.7674C170.64 77.5669 170.627 77.3577 170.655 77.152C170.731 76.7348 170.966 76.3637 171.312 76.1177C171.657 75.8717 172.085 75.7703 172.504 75.835C172.71 75.8579 172.91 75.9219 173.092 76.0232C173.273 76.1245 173.432 76.2611 173.56 76.425C173.688 76.5888 173.781 76.7765 173.836 76.9771C173.89 77.1777 173.903 77.3871 173.875 77.593Z" fill="#1C2E5C"/>
<path d="M174.072 75.4222C173.834 75.5932 172.794 74.4642 171.072 74.1382C169.359 73.7882 167.927 74.4302 167.781 74.1832C167.708 74.0732 167.981 73.7352 168.608 73.4412C169.451 73.0688 170.388 72.9661 171.292 73.1472C172.187 73.3158 173.005 73.7648 173.627 74.4292C174.079 74.9362 174.187 75.3482 174.072 75.4222Z" fill="#1C2E5C"/>
<path d="M177.737 89.775C178.698 89.6659 179.668 89.677 180.626 89.808C181.074 89.847 181.506 89.84 181.638 89.554C181.762 89.1079 181.747 88.6344 181.595 88.197C181.387 87.055 181.168 85.8577 180.94 84.605C180.052 79.499 179.499 75.334 179.705 75.3C179.911 75.266 180.798 79.377 181.685 84.484C181.894 85.74 182.094 86.94 182.285 88.084C182.461 88.6665 182.425 89.2921 182.185 89.851C182.092 89.9931 181.967 90.1119 181.821 90.1985C181.674 90.2852 181.51 90.3373 181.34 90.351C181.084 90.3704 180.827 90.3569 180.574 90.311C179.61 90.2533 178.656 90.0732 177.737 89.775Z" fill="#1C2E5C"/>
<path d="M175.25 71.922C174.99 72.357 173.316 71.805 171.25 71.661C169.189 71.475 167.45 71.752 167.262 71.282C167.181 71.058 167.549 70.673 168.294 70.347C169.278 69.9611 170.338 69.8044 171.392 69.889C172.446 69.9736 173.467 70.2971 174.377 70.835C175.063 71.275 175.365 71.714 175.25 71.922Z" fill="#1C2E5C"/>
<path d="M192.055 71.866C191.678 72.198 190.572 71.566 189.155 71.272C187.745 70.93 186.475 71.029 186.276 70.567C186.192 70.346 186.457 69.991 187.055 69.722C187.848 69.4157 188.714 69.3517 189.544 69.5381C190.373 69.7245 191.129 70.1529 191.715 70.769C192.137 71.267 192.225 71.7 192.055 71.866Z" fill="#1C2E5C"/>
<path d="M154.615 78.208C154.44 78.089 147.366 74.457 146.14 82.152C144.914 89.847 152.892 89.49 152.94 89.272C152.988 89.054 154.615 78.208 154.615 78.208Z" fill="#FFBE9D"/>
<path d="M151.055 85.9823C151.025 85.9523 150.905 86.0553 150.662 86.1223C150.322 86.2078 149.962 86.1579 149.657 85.9833C148.892 85.5553 148.413 84.1563 148.596 82.7633C148.682 82.1003 148.915 81.4648 149.277 80.9033C149.388 80.6746 149.553 80.4761 149.757 80.3249C149.961 80.1738 150.199 80.0744 150.45 80.0353C150.611 80.0191 150.772 80.0596 150.906 80.1499C151.04 80.2401 151.137 80.3744 151.182 80.5293C151.251 80.7603 151.182 80.9063 151.216 80.9293C151.235 80.9513 151.402 80.8293 151.391 80.4983C151.378 80.3011 151.299 80.1143 151.165 79.9683C150.979 79.7746 150.724 79.6618 150.455 79.6543C150.129 79.6664 149.812 79.7619 149.533 79.9317C149.255 80.1016 149.024 80.34 148.864 80.6243C148.431 81.2386 148.154 81.9496 148.058 82.6953C147.858 84.2533 148.423 85.8313 149.484 86.3293C149.681 86.4226 149.897 86.4703 150.114 86.4689C150.332 86.4676 150.547 86.4171 150.742 86.3213C151.011 86.1663 151.079 86.0003 151.055 85.9823Z" fill="#EB996E"/>
<path d="M150.41 77.1313C151.147 77.2221 151.845 77.5115 152.429 77.9684C153.014 78.4253 153.463 79.0326 153.729 79.7253C154.016 80.9133 153.888 82.1713 154.173 83.3603C154.458 84.5493 155.39 85.7523 156.611 85.7003C157.031 85.6516 157.431 85.4929 157.77 85.2403C158.109 84.9876 158.375 84.6499 158.541 84.2613C158.864 83.4801 159.034 82.6444 159.041 81.7993C159.277 78.1403 159.207 74.4543 159.755 70.8293C160.16 67.1605 161.641 63.6935 164.011 60.8643C166.49 58.1643 170.392 56.5763 173.925 57.5553C176.265 58.2043 178.207 59.8623 180.505 60.6473C181.875 61.1027 183.331 61.2403 184.763 61.0497C186.194 60.8591 187.563 60.3453 188.766 59.5473C188.9 59.4654 189.039 59.3919 189.182 59.3273C189.6 59.1361 189.944 58.8131 190.161 58.4077C190.378 58.0024 190.455 57.5371 190.382 57.0833C190.339 56.791 190.233 56.5116 190.071 56.2643C186.219 51.0313 178.01 48.1983 171.522 48.5643C165.034 48.9303 158.394 52.1863 154.622 57.4733C150.85 62.7603 150.083 70.9783 150.422 77.1293" fill="#1C2E5C"/>
<path d="M181.2 94.9883C179.53 94.7434 177.93 94.154 176.5 93.2573C178.17 93.5031 179.77 94.0925 181.2 94.9883Z" fill="#1C2E5C"/>
<path d="M189.558 103.615C189.413 104.376 189.087 105.089 188.607 105.696C187.525 107.215 186.091 108.451 184.429 109.296C182.783 110.129 181.028 110.728 179.216 111.076C178.481 111.277 177.722 111.376 176.96 111.37C177.661 111.086 178.388 110.867 179.13 110.718C180.878 110.274 182.573 109.642 184.186 108.835C185.781 108.017 187.185 106.872 188.309 105.475C189.156 104.394 189.476 103.58 189.558 103.615Z" fill="#EB996E"/>
<path d="M184.141 109.328C181.433 110.684 179.441 114.367 177.718 116.754C177.136 117.445 176.72 118.26 176.502 119.137C176.42 120.093 176.587 121.054 176.986 121.926C177.486 123.258 178.038 124.566 178.594 125.874C178.752 126.245 178.964 126.663 179.357 126.753C179.857 126.866 180.285 126.374 180.49 125.904C180.872 124.685 181.085 123.42 181.124 122.144C181.15 121.505 181.333 120.883 181.657 120.332C181.981 119.78 182.436 119.318 182.981 118.984" fill="#EB996E"/>
<path d="M188.422 119.313L185.786 117.345C185.626 117.216 185.421 117.154 185.216 117.173C185.011 117.191 184.821 117.289 184.686 117.445L183.286 119.062C183.285 119.064 183.284 119.067 183.284 119.069C183.284 119.072 183.285 119.074 183.286 119.076L184.022 123.168C184.883 128.416 180.994 127.597 180.994 127.597L180.685 126.597L178.975 120.197C178.631 117.142 178.875 116.781 180.36 114.568L183.621 109.907C183.949 109.418 184.432 109.053 184.993 108.872C185.553 108.69 186.158 108.703 186.711 108.907C191.389 110.634 201.483 113.763 202.62 117.726C204.692 124.951 206.362 143.379 206.391 143.707V143.714L192.146 144.992L192.213 132.692C190.956 131.913 190.01 130.72 189.536 129.319C188.926 127.149 188.423 119.319 188.423 119.319" fill="#FFBE9D"/>
<path d="M198.291 121.722C198.313 121.746 198.139 121.969 197.749 122.298C197.19 122.776 196.525 123.114 195.809 123.282C195.3 123.394 194.772 123.39 194.264 123.271C193.664 123.134 193.126 122.8 192.736 122.323C191.9 121.316 191.781 119.897 191.036 118.866C190.609 118.396 190.115 117.991 189.569 117.666C189.056 117.335 188.521 117.037 187.969 116.775C187.528 116.51 187.023 116.367 186.508 116.362C186.073 116.499 185.675 116.735 185.346 117.05C184.054 118.25 183.346 119.14 183.273 119.066C183.246 119.043 183.401 118.811 183.701 118.407C184.124 117.828 184.592 117.283 185.101 116.777C185.464 116.395 185.915 116.108 186.415 115.941C186.573 115.904 186.737 115.895 186.898 115.914C187.046 115.939 187.191 115.974 187.334 116.019C187.619 116.108 187.898 116.214 188.17 116.338C188.747 116.598 189.306 116.899 189.84 117.238C190.445 117.59 190.989 118.037 191.452 118.561C192.3 119.786 192.394 121.17 193.104 122.026C193.423 122.397 193.835 122.676 194.298 122.835C194.76 122.993 195.257 123.024 195.736 122.926C196.413 122.796 197.055 122.528 197.625 122.14C198.044 121.865 198.265 121.693 198.291 121.722Z" fill="#EB996E"/>
<path d="M196.71 126.058C193.98 125.897 191.32 125.129 188.924 123.81C190.255 124.056 191.564 124.41 192.837 124.867C194.159 125.158 195.454 125.557 196.71 126.058Z" fill="#EB996E"/>
<path d="M191.635 119.372C187.9 119.381 187.464 119.2 183.235 119.431C182.603 119.433 181.975 119.534 181.375 119.731C181.075 119.833 180.803 120.003 180.581 120.229C180.359 120.455 180.193 120.729 180.096 121.031C179.801 122.188 180.971 123.245 182.136 123.509C183.301 123.773 184.536 123.568 185.699 123.839C187.539 124.167 189.202 125.142 190.386 126.589C192.821 130.046 195.381 128.383 197.044 129.617L201.408 126.862L199.866 120.418L191.639 119.374" fill="#FFBE9D"/>
<path d="M197.421 129.615C197.041 129.441 196.639 129.318 196.227 129.247C195.05 129.236 193.882 129.031 192.772 128.639C192.026 128.267 191.374 127.731 190.865 127.071C190.359 126.331 189.704 125.706 188.942 125.234C188.09 124.727 187.164 124.356 186.198 124.134C185.131 123.967 184.053 123.874 182.973 123.855C182.375 123.823 181.798 123.618 181.314 123.266C180.829 122.913 180.456 122.428 180.24 121.869C180.161 121.577 180.157 121.27 180.23 120.976C180.302 120.683 180.449 120.413 180.655 120.191C181.031 119.79 181.519 119.511 182.055 119.391C182.98 119.235 183.917 119.159 184.855 119.163C185.721 119.135 186.529 119.125 187.267 119.137C188.743 119.167 189.927 119.237 190.748 119.274C191.176 119.266 191.603 119.302 192.023 119.381C191.602 119.461 191.174 119.495 190.746 119.481C189.923 119.51 188.73 119.492 187.267 119.51C186.535 119.52 185.734 119.552 184.874 119.598C183.971 119.614 183.071 119.702 182.182 119.859C181.326 120.047 180.461 120.84 180.739 121.742C180.933 122.201 181.252 122.595 181.661 122.879C182.069 123.163 182.55 123.325 183.047 123.347C184.147 123.365 185.243 123.465 186.328 123.647C187.344 123.89 188.315 124.292 189.204 124.84C189.998 125.348 190.678 126.015 191.2 126.8C191.658 127.424 192.25 127.938 192.931 128.305C194 128.708 195.121 128.957 196.26 129.044C196.578 129.106 196.883 129.224 197.16 129.392C197.345 129.526 197.432 129.6 197.421 129.615Z" fill="#EB996E"/>
<path d="M191.221 116.453C191.226 116.39 191.495 116.336 191.88 116.514C192.134 116.634 192.355 116.816 192.521 117.042C192.688 117.268 192.796 117.532 192.836 117.811C192.876 118.089 192.846 118.373 192.749 118.637C192.652 118.901 192.491 119.137 192.28 119.323C191.96 119.601 191.687 119.623 191.664 119.565C191.641 119.507 191.818 119.356 192.007 119.076C192.135 118.908 192.227 118.716 192.28 118.511C192.333 118.307 192.345 118.094 192.315 117.885C192.285 117.676 192.214 117.474 192.106 117.293C191.999 117.111 191.856 116.953 191.686 116.827C191.427 116.611 191.208 116.53 191.221 116.453Z" fill="#EB996E"/>
<path d="M199.592 284.078L181.355 329.611L199.048 332.719L218.788 293.451L199.592 284.078Z" fill="#FFBE9D"/>
<path d="M210.394 315.322L200.345 335.746C200.345 335.746 217.731 352.82 216.245 356.776L175.945 338.714L190.297 306.247L210.394 315.322Z" fill="#FDBC5A"/>
<path d="M188.665 328.415C188.224 328.359 187.779 328.467 187.413 328.72C187.048 328.972 186.789 329.351 186.686 329.783C186.614 330.221 186.713 330.67 186.962 331.037C187.211 331.405 187.591 331.662 188.025 331.758C188.492 331.817 188.965 331.7 189.351 331.43C189.737 331.16 190.009 330.757 190.114 330.298C190.142 329.833 189.989 329.375 189.687 329.021C189.384 328.667 188.956 328.443 188.493 328.398" fill="#E0E0E0"/>
<g opacity="0.4">
<path opacity="0.4" d="M175.939 338.714L177.388 335.437L215.566 354.018C215.566 354.018 217.011 355.603 216.242 356.776L175.939 338.714Z" fill="black"/>
</g>
<path d="M201.09 335.834C200.996 336.028 199.971 335.676 198.72 335.875C197.462 336.041 196.581 336.675 196.435 336.511C196.271 336.391 197.092 335.346 198.612 335.132C200.132 334.918 201.214 335.673 201.09 335.834Z" fill="#1C2E5C"/>
<path d="M204.534 339.477C204.493 339.688 203.491 339.64 202.45 340.177C201.393 340.677 200.821 341.504 200.629 341.408C200.429 341.356 200.81 340.142 202.117 339.508C203.424 338.874 204.614 339.287 204.534 339.477Z" fill="#1C2E5C"/>
<path d="M204.667 345.612C204.467 345.574 204.637 344.468 205.625 343.617C206.613 342.766 207.725 342.749 207.736 342.95C207.774 343.162 206.918 343.472 206.117 344.184C205.3 344.876 204.871 345.68 204.667 345.612Z" fill="#1C2E5C"/>
<path d="M202.864 330.925C202.701 331.068 201.92 330.392 200.774 329.969C199.636 329.522 198.603 329.508 198.574 329.293C198.524 329.1 199.696 328.75 201.039 329.267C202.382 329.784 203.03 330.814 202.864 330.925Z" fill="#1C2E5C"/>
<path d="M204.815 326.767C204.073 326.651 203.377 326.335 202.801 325.852C202.131 325.395 201.52 324.858 200.98 324.252C200.66 323.895 200.365 323.516 200.097 323.118C199.926 322.891 199.791 322.639 199.697 322.37C199.631 322.173 199.632 321.958 199.701 321.761C199.769 321.565 199.901 321.396 200.076 321.282C200.236 321.189 200.416 321.135 200.601 321.124C200.786 321.113 200.97 321.146 201.14 321.219C201.397 321.332 201.637 321.481 201.85 321.663C202.234 321.961 202.589 322.293 202.912 322.656C203.455 323.268 203.899 323.962 204.226 324.711C204.596 325.372 204.753 326.13 204.678 326.883C204.56 326.907 204.378 326.083 203.75 324.946C203.381 324.284 202.929 323.672 202.404 323.125C202.095 322.807 201.76 322.513 201.404 322.248C201.027 321.948 200.665 321.779 200.47 321.92C200.398 321.975 200.38 322.001 200.413 322.166C200.485 322.362 200.583 322.546 200.706 322.713C200.949 323.091 201.214 323.454 201.499 323.801C201.986 324.391 202.527 324.934 203.115 325.423C204.131 326.268 204.866 326.662 204.815 326.767Z" fill="#1C2E5C"/>
<path d="M204.432 326.934C204.308 326.187 204.428 325.42 204.774 324.746C205.073 323.984 205.501 323.278 206.039 322.66C206.36 322.294 206.716 321.96 207.103 321.665C207.331 321.447 207.611 321.292 207.917 321.214C208.223 321.137 208.543 321.14 208.847 321.223C209.025 321.308 209.175 321.441 209.28 321.608C209.384 321.774 209.439 321.967 209.438 322.164C209.436 322.446 209.394 322.726 209.313 322.996C209.181 323.478 208.976 323.936 208.705 324.356C208.254 325.062 207.636 325.647 206.905 326.056C206.594 326.278 206.242 326.435 205.87 326.518C205.497 326.602 205.112 326.609 204.736 326.541C205.383 326.266 206.013 325.954 206.623 325.606C207.231 325.184 207.739 324.635 208.112 323.996C208.329 323.627 208.492 323.228 208.597 322.813C208.726 322.356 208.721 321.939 208.54 321.913C208.359 321.895 208.175 321.916 208.003 321.976C207.83 322.035 207.672 322.131 207.54 322.257C207.185 322.517 206.854 322.808 206.55 323.127C206.034 323.676 205.598 324.295 205.256 324.966C204.673 326.121 204.553 326.952 204.432 326.934Z" fill="#1C2E5C"/>
<path d="M164.677 229.477L220.84 201.977C225.653 199.62 231.098 198.88 236.365 199.866C241.633 200.852 246.442 203.511 250.076 207.449C253.473 211.129 255.68 215.747 256.411 220.701C257.141 225.655 256.36 230.714 254.17 235.217L216.906 311.838L185.738 302.013L213.147 243.613L182.313 267.113C173.985 273.46 163.826 276.938 153.356 277.028L145.282 277.097C138.63 276.82 132.161 274.834 126.498 271.332C120.836 267.829 116.17 262.928 112.95 257.1L164.677 229.477Z" fill="#1C2E5C"/>
<path d="M216.906 311.838C216.906 311.838 216.706 311.799 216.335 311.692L214.682 311.203L208.392 309.28L185.675 302.213L185.445 302.142L185.545 301.923L205.321 259.664L212.914 243.5L213.296 243.81C199.153 254.347 186.496 263.098 177.157 268.861C173.532 271.169 169.757 273.232 165.857 275.037C164.804 275.515 163.707 275.888 162.581 276.152C162.29 276.221 161.992 276.26 161.693 276.268C161.594 276.282 161.493 276.285 161.393 276.277C161.393 276.243 161.806 276.245 162.565 276.063C163.673 275.764 164.752 275.367 165.789 274.876C169.649 273.012 173.389 270.91 176.989 268.583C186.267 262.754 198.88 253.953 212.995 243.405L213.808 242.798L213.377 243.716L205.797 259.885L185.928 302.1L185.801 301.81L208.464 309.049L214.72 311.081L216.354 311.629C216.722 311.758 216.906 311.838 216.906 311.838Z" fill="#455A64"/>
<path d="M223.706 230.923C218.787 233.931 214.988 238.467 212.891 243.838C213.012 242.994 213.263 242.173 213.635 241.405C215.249 237.589 217.968 234.343 221.441 232.083C222.132 231.582 222.896 231.191 223.706 230.923Z" fill="#455A64"/>
<path d="M104.651 339.338H185.434C185.974 339.338 186.493 339.549 186.88 339.925C187.267 340.301 187.492 340.814 187.507 341.353C187.515 341.63 187.467 341.906 187.366 342.165C187.266 342.423 187.114 342.658 186.921 342.857C186.728 343.056 186.497 343.214 186.241 343.322C185.986 343.43 185.711 343.485 185.434 343.485H104.651C104.101 343.485 103.574 343.267 103.185 342.878C102.796 342.489 102.577 341.961 102.577 341.411C102.577 340.861 102.796 340.334 103.185 339.945C103.574 339.557 104.101 339.338 104.651 339.338Z" fill="#E0E0E0"/>
<path d="M174.808 287.912H111.617C111.617 284.665 112.907 281.551 115.203 279.255C117.499 276.958 120.613 275.668 123.86 275.668H162.565C165.812 275.668 168.926 276.958 171.222 279.255C173.518 281.551 174.808 284.665 174.808 287.912Z" fill="#455A64"/>
<path d="M176.792 287.912H110.129V291.626H176.792V287.912Z" fill="#E0E0E0"/>
<path d="M116.063 291.625L99.7632 452.288H103.6L123.49 291.625H116.063Z" fill="#E0E0E0"/>
<path d="M170.362 291.625L186.655 452.209L182.822 452.23L162.943 291.686L170.362 291.625Z" fill="#E0E0E0"/>
<path d="M147.657 290.214L144.914 452.284H140.98L139.265 289.768L147.657 290.214Z" fill="#E0E0E0"/>
<path d="M146.381 114.068L150.338 102.046L176.47 114.14L175.27 126.861L162.247 130.561L149.463 122.727L146.381 114.068Z" fill="#FDBC5A"/>
<path d="M112.95 257.1C111.789 256.277 110.849 255.182 110.21 253.911C109.572 252.639 109.256 251.231 109.289 249.808C109.277 244.99 113.589 244.593 113.726 241.927C115.164 214.375 118.282 157.305 120.34 139.295C122.933 116.595 149.526 111.8 149.526 111.8L171.484 117.194V118.853C179.084 128.623 182.371 143.353 182.378 155.727L181.355 221.313L112.95 257.1Z" fill="#FDBC5A"/>
<path d="M137.628 220.366C137.393 220.765 137.12 221.14 136.813 221.486C136.265 222.186 135.443 223.179 134.402 224.386C132.322 226.796 129.328 230.027 125.814 233.386C122.3 236.745 118.93 239.586 116.426 241.548C115.174 242.532 114.146 243.308 113.419 243.823C113.06 244.114 112.673 244.369 112.263 244.584C112.576 244.244 112.922 243.935 113.295 243.662L116.195 241.262C118.634 239.228 121.95 236.353 125.456 233.009C128.962 229.665 131.984 226.484 134.129 224.142C135.146 223.025 135.995 222.09 136.661 221.359C136.95 220.997 137.274 220.664 137.628 220.366Z" fill="#1C2E5C"/>
<g opacity="0.2">
<path opacity="0.2" d="M115.995 241.831C116.073 237.678 119.177 234.263 122.255 231.474C125.859 228.21 129.69 225.206 133.721 222.486C133.921 224.514 132.54 226.324 131.199 227.857C126.697 233.003 121.715 237.709 116.321 241.91" fill="black"/>
</g>
<path d="M154.428 112.08C154.528 110.885 154.8 109.711 155.236 108.594C155.509 107.426 155.949 106.304 156.541 105.261C156.442 106.456 156.17 107.631 155.733 108.748C155.461 109.916 155.021 111.038 154.428 112.08Z" fill="#1C2E5C"/>
<path d="M164.623 108.67C164.618 109.846 164.439 111.014 164.094 112.138C163.915 113.3 163.565 114.43 163.057 115.49C163.063 114.314 163.241 113.146 163.586 112.022C163.766 110.86 164.115 109.73 164.623 108.67Z" fill="#1C2E5C"/>
<path d="M172.213 112.459C172.24 113.517 172.149 114.576 171.943 115.614C171.906 116.672 171.752 117.723 171.484 118.748C171.159 116.624 171.411 114.452 172.213 112.459Z" fill="#1C2E5C"/>
<path d="M145.834 176.64C145.47 176.712 145.098 176.739 144.726 176.721C144.013 176.739 142.98 176.748 141.705 176.747C139.154 176.747 135.63 176.71 131.737 176.637C127.844 176.564 124.32 176.469 121.77 176.374C120.495 176.327 119.463 176.279 118.75 176.235C118.38 176.238 118.011 176.197 117.65 176.113C118.015 176.041 118.388 176.014 118.759 176.032C119.473 176.014 120.505 176.005 121.781 176.006C124.332 176.006 127.855 176.043 131.747 176.116C135.639 176.189 139.161 176.284 141.711 176.379L144.731 176.518C145.103 176.515 145.473 176.556 145.834 176.64Z" fill="#FAFAFA"/>
<path d="M140.256 168.252C140.256 168.395 135.241 168.405 129.063 168.273C122.885 168.141 117.877 167.918 117.88 167.773C117.883 167.628 122.894 167.62 129.074 167.751C135.254 167.882 140.259 168.108 140.256 168.252Z" fill="#FAFAFA"/>
<g opacity="0.2">
<path opacity="0.2" d="M130.755 155.322C138.744 172.739 148.528 188.378 159.901 203.8C162.831 207.772 165.968 211.76 170.201 214.294C174.434 216.828 177.239 216.121 181.463 213.569C176.739 212.064 175.496 211.585 171.481 208.675C167.579 205.63 164.174 201.997 161.388 197.906C151.374 184.149 141.624 169.978 131.61 156.221" fill="black"/>
</g>
<path d="M213.924 180.09C214.032 178.933 214.345 177.804 214.849 176.756C215.108 176.235 215.5 175.792 215.984 175.47C216.469 175.148 217.03 174.96 217.61 174.923C217.897 174.924 218.179 174.985 218.441 175.102C218.702 175.219 218.935 175.39 219.126 175.604C219.317 175.817 219.46 176.068 219.547 176.341C219.634 176.614 219.662 176.902 219.63 177.186C219.38 177.824 219.004 178.404 218.524 178.893C217.247 180.629 217.367 182.979 217.385 185.134C217.403 187.289 217.116 189.734 215.392 191.034" fill="#FFBE9D"/>
<path d="M134.581 129.889C132.577 131.29 130.876 133.081 129.58 135.156C128.285 137.23 127.421 139.544 127.042 141.96C126.663 144.376 126.775 146.844 127.373 149.216C127.97 151.587 129.04 153.813 130.519 155.761L167.06 203.883C170.911 208.891 176.374 212.413 182.525 213.853C188.676 215.293 195.135 214.562 200.808 211.783C205.635 209.42 209.659 205.689 212.38 201.054C215.101 196.419 216.397 191.087 216.108 185.72L208.063 135.12L188.4 136.34L190.257 177.552L159.839 134.325C157.073 130.394 152.861 127.72 148.127 126.888C143.392 126.057 138.521 127.136 134.581 129.889Z" fill="#FDBC5A"/>
<path d="M213.339 200.066C208.503 198.937 207.682 198.106 202.846 196.977C201.406 196.641 199.558 195.706 200.203 194.184C200.378 193.796 200.669 193.471 201.037 193.256C201.405 193.041 201.831 192.946 202.255 192.984C204.141 193.136 207.172 194.259 208.989 194.433C209.443 194.476 209.43 194.019 209.229 193.709C206.273 192.824 203.251 192.175 200.192 191.768C199.763 191.712 199.36 191.531 199.033 191.248C198.706 190.965 198.468 190.593 198.35 190.177C198.232 189.761 198.238 189.319 198.367 188.906C198.497 188.494 198.744 188.128 199.079 187.854C199.481 187.643 199.921 187.517 200.374 187.484C202.31 187.764 202.31 187.764 204.374 188.122C210.174 189.122 209.403 187.977 209.403 187.977C209.44 187.542 202.803 186.9 199.415 186.494C198.684 186.496 197.979 186.222 197.442 185.726C197.196 185.36 197.084 184.919 197.126 184.48C197.167 184.04 197.36 183.629 197.671 183.315C197.962 182.976 198.318 182.699 198.718 182.499C199.118 182.299 199.554 182.18 200 182.15C203.769 182.085 216.147 183.461 216.147 183.461C216.147 183.461 217.768 185.661 217.273 190.167C216.73 195.113 213.339 200.066 213.339 200.066Z" fill="#FFBE9D"/>
<path d="M195.828 213.575C195.828 213.575 195.652 213.608 195.306 213.648L193.767 213.808C192.412 213.931 190.412 214.123 187.823 214.152C184.666 214.235 181.517 213.799 178.501 212.862C174.565 211.395 171.038 209.007 168.212 205.899C164.783 202.199 161.561 198.311 158.561 194.255C155.271 189.931 151.831 185.255 148.252 180.305C144.673 175.355 140.966 170.126 137.158 164.679L131.386 156.346L129.926 154.214L129.234 153.096C128.994 152.727 128.784 152.339 128.605 151.936C127.012 148.733 126.404 145.131 126.857 141.583C126.967 140.71 127.134 139.845 127.357 138.994C127.601 138.155 127.899 137.333 128.251 136.534C128.922 134.938 129.842 133.458 130.976 132.15C132.065 130.841 133.336 129.696 134.752 128.75C136.141 127.819 137.646 127.076 139.229 126.539C143.86 125.041 148.895 125.436 153.235 127.639C155.919 129.04 158.222 131.071 159.949 133.558L164.743 140.477C167.832 144.941 170.711 149.1 173.343 152.899L185.762 170.909C187.21 173.027 188.338 174.679 189.117 175.82L189.979 177.105C190.171 177.396 190.258 177.553 190.258 177.553C190.258 177.553 190.142 177.417 189.936 177.136L189.036 175.88L185.601 171.025L173.045 153.109L164.394 140.722L159.578 133.822C157.889 131.405 155.641 129.432 153.024 128.072C148.797 125.939 143.897 125.563 139.394 127.027C137.856 127.551 136.394 128.275 135.045 129.182C133.67 130.102 132.435 131.215 131.377 132.487C130.839 133.126 130.343 133.8 129.891 134.504C128.534 136.671 127.675 139.114 127.379 141.654C126.941 145.1 127.533 148.599 129.079 151.71C129.888 153.224 130.804 154.677 131.821 156.059L137.585 164.393C141.385 169.842 145.085 175.074 148.65 180.031C152.215 184.988 155.641 189.669 158.912 194C161.889 198.054 165.084 201.942 168.484 205.648C171.258 208.733 174.727 211.113 178.603 212.592C181.585 213.541 184.701 214.001 187.83 213.955C190.409 213.955 192.41 213.799 193.766 213.709L195.309 213.601C195.649 213.573 195.828 213.575 195.828 213.575Z" fill="#1C2E5C"/>
<path d="M192.349 192.654C193.603 187.253 192.7 181.577 189.831 176.832C190.411 177.412 190.889 178.087 191.244 178.826C193.159 182.333 193.805 186.392 193.073 190.32C192.964 191.133 192.72 191.922 192.349 192.654Z" fill="#1C2E5C"/>
<path d="M192.843 141.713C192.059 139.993 191.897 138.054 192.385 136.228C192.574 137.129 192.664 138.048 192.656 138.968C192.817 139.874 192.879 140.794 192.843 141.713Z" fill="#1C2E5C"/>
<path d="M198.257 141.209C197.419 139.552 197.172 137.659 197.557 135.842C197.796 136.716 197.933 137.614 197.965 138.518C198.166 139.401 198.264 140.304 198.257 141.209Z" fill="#1C2E5C"/>
<path d="M203.626 140.042C203.203 138.603 203.122 137.085 203.392 135.609C203.816 137.048 203.896 138.567 203.626 140.042Z" fill="#1C2E5C"/>
<path d="M170.518 151.185C170.6 151.303 164.399 155.743 156.67 161.101C148.941 166.459 142.606 170.708 142.524 170.59C142.442 170.472 148.641 166.033 156.373 160.673C164.105 155.313 170.436 151.067 170.518 151.185Z" fill="#FAFAFA"/>
<path d="M165.678 143.928C165.344 144.243 164.98 144.523 164.591 144.766L161.536 146.908C158.954 148.708 155.403 151.226 151.541 154.084C147.679 156.942 144.241 159.61 141.762 161.554L138.822 163.854C138.477 164.156 138.102 164.424 137.705 164.654C138.001 164.304 138.332 163.985 138.693 163.702C139.35 163.113 140.319 162.283 141.531 161.274C143.953 159.254 147.363 156.538 151.231 153.674C155.099 150.81 158.691 148.34 161.331 146.611C162.65 145.747 163.731 145.062 164.481 144.604C164.857 144.34 165.258 144.114 165.678 143.928Z" fill="#FAFAFA"/>
<path d="M405.808 394.646H337.765V403.995H405.808V394.646Z" fill="#1C2E5C"/>
<path d="M405.924 404.112H337.649V394.53H405.924V404.112ZM337.881 403.879H405.691V394.763H337.881V403.879Z" fill="#1C2E5C"/>
<path d="M344.074 400.884L353.868 449.202H390.107L399.574 404L344.074 400.884Z" fill="#1C2E5C"/>
<path d="M344.074 444.631L349.297 451.813H393.345L399.574 444.631H344.074Z" fill="#455A64"/>
<path d="M369.231 402.3C369.097 402.3 368.931 379.916 368.848 352.309C368.765 324.702 368.816 302.309 368.948 302.309C369.08 302.309 369.248 324.689 369.331 352.309C369.414 379.929 369.365 402.3 369.231 402.3Z" fill="#1C2E5C"/>
<path d="M384.388 346.278C384.348 346.458 384.287 346.633 384.206 346.799C384.046 347.179 383.845 347.658 383.598 348.248C383.462 348.567 383.315 348.914 383.154 349.291C383.014 349.685 382.863 350.109 382.701 350.561C382.539 351.014 382.365 351.5 382.177 352.019C381.995 352.536 381.852 353.099 381.677 353.681C380.869 356.415 380.234 359.198 379.777 362.012C379.246 365.464 378.895 368.942 378.723 372.43C378.472 378.778 378.652 385.136 379.261 391.46C379.48 393.89 379.7 395.853 379.861 397.208C379.93 397.844 379.987 398.361 380.032 398.771C380.063 398.953 380.072 399.138 380.06 399.321C379.998 399.148 379.956 398.968 379.936 398.785C379.867 398.378 379.78 397.864 379.674 397.233C379.454 395.884 379.182 393.925 378.919 391.494C378.207 385.159 377.979 378.778 378.238 372.407C378.411 368.9 378.778 365.405 379.338 361.938C379.82 359.11 380.493 356.317 381.354 353.58C381.544 352.998 381.699 352.435 381.893 351.919L382.456 350.465C382.631 350.016 382.795 349.595 382.949 349.203C383.117 348.822 383.288 348.481 383.434 348.172C383.715 347.596 383.944 347.127 384.126 346.756C384.195 346.587 384.283 346.427 384.388 346.278Z" fill="#1C2E5C"/>
<path d="M382.649 328.174C382.597 328.426 382.524 328.673 382.432 328.912L381.724 330.993C381.566 331.448 381.393 331.948 381.204 332.493C381.034 333.052 380.851 333.655 380.656 334.301C380.256 335.601 379.797 337.068 379.387 338.724L378.704 341.312C378.5 342.22 378.288 343.164 378.067 344.142C377.591 346.09 377.248 348.207 376.81 350.418C376.06 354.864 375.399 359.779 374.944 364.963C374.514 370.151 374.327 375.109 374.261 379.619C374.247 384.129 374.304 388.194 374.49 391.601C374.55 393.301 374.659 394.846 374.747 396.201C374.835 397.556 374.91 398.719 374.996 399.67C375.066 400.587 375.122 401.318 375.163 401.862C375.193 402.117 375.202 402.375 375.188 402.631C375.127 402.382 375.086 402.128 375.066 401.872C374.999 401.33 374.914 400.601 374.809 399.687C374.693 398.738 374.58 397.575 374.477 396.221C374.374 394.867 374.229 393.328 374.147 391.621C373.918 388.21 373.825 384.139 373.814 379.621C373.855 375.1 374.03 370.129 374.461 364.927C374.917 359.727 375.594 354.8 376.37 350.345C376.822 348.129 377.18 346.009 377.67 344.059L378.336 341.226C378.585 340.327 378.823 339.464 379.051 338.638C379.484 336.984 379.969 335.514 380.393 334.224C380.603 333.581 380.799 332.981 380.98 332.424C381.18 331.884 381.367 331.388 381.541 330.935L382.341 328.882C382.423 328.638 382.526 328.401 382.649 328.174Z" fill="#1C2E5C"/>
<path d="M364.927 406.255C364.904 406.17 364.891 406.082 364.889 405.993C364.872 405.793 364.851 405.539 364.825 405.223C364.777 404.51 364.71 403.523 364.625 402.259C364.461 399.647 364.225 395.932 363.942 391.359C363.352 382.159 362.498 369.438 360.949 355.459C360.157 348.467 359.239 341.827 358.285 335.806C357.778 332.801 357.318 329.941 356.796 327.281C356.317 324.613 355.802 322.141 355.327 319.886C354.88 317.624 354.381 315.599 353.98 313.812C353.579 312.025 353.205 310.493 352.886 309.243C352.586 308.018 352.35 307.053 352.179 306.359C352.109 306.05 352.052 305.802 352.007 305.605C351.983 305.52 351.968 305.433 351.965 305.344C352.006 305.423 352.036 305.506 352.055 305.592L352.274 306.333L353.074 309.196C353.421 310.439 353.829 311.964 354.249 313.749C354.669 315.534 355.198 317.549 355.667 319.813C356.167 322.067 356.7 324.538 357.196 327.206C357.736 329.866 358.211 332.727 358.731 335.734C359.711 341.758 360.643 348.406 361.431 355.405C362.981 369.405 363.781 382.132 364.285 391.344C364.535 395.951 364.709 399.68 364.813 402.258C364.86 403.52 364.896 404.513 364.922 405.227L364.939 406C364.946 406.085 364.942 406.171 364.927 406.255Z" fill="#1C2E5C"/>
<path d="M368.676 313.068C368.381 309.897 365.176 307.505 361.991 307.468C360.396 307.539 358.837 307.972 357.434 308.734C356.03 309.497 354.819 310.568 353.891 311.868C352.057 314.483 350.734 317.42 349.991 320.526C347.847 327.997 346.674 335.846 347.591 343.565C348.508 351.284 351.64 358.883 357.178 364.336C358.078 365.223 359.245 366.11 360.478 365.846C361.143 365.646 361.744 365.274 362.221 364.769C367.644 359.805 371.943 353.738 374.829 346.976C377.715 340.214 379.121 332.913 378.954 325.563C378.868 322.628 378.482 319.573 376.854 317.128C375.226 314.683 371.439 312.085 368.672 313.067" fill="#FDBC5A"/>
<path d="M344.895 287.668L340.409 295.792C340.304 295.981 340.166 296.192 339.951 296.211C339.715 296.231 339.539 296.011 339.41 295.811L327.551 277.611L330.283 276.063L344.895 287.668Z" fill="#FDBC5A"/>
<g opacity="0.2">
<path opacity="0.2" d="M344.895 287.668L340.409 295.792C340.304 295.981 340.166 296.192 339.951 296.211C339.715 296.231 339.539 296.011 339.41 295.811L327.551 277.611L330.283 276.063L344.895 287.668Z" fill="black"/>
</g>
<path d="M368.95 302.307L328.5 278.435C328.057 278.243 327.705 277.887 327.516 277.442C327.354 276.842 327.804 276.266 328.235 275.821C331.016 272.935 334.387 270.682 338.118 269.216C341.849 267.751 345.852 267.107 349.854 267.328C353.854 267.616 357.723 268.873 361.128 270.99C364.534 273.108 367.372 276.023 369.398 279.483C373.298 286.459 373.431 295.683 368.954 302.307" fill="#FDBC5A"/>
<path d="M334.327 270.816C334.5 270.772 334.678 270.75 334.857 270.75C335.205 270.732 335.72 270.669 336.385 270.676C338.266 270.651 340.145 270.8 341.998 271.122C348.168 272.163 353.911 274.947 358.55 279.145C363.189 283.343 366.531 288.78 368.182 294.815C368.686 296.627 369.021 298.481 369.182 300.355C369.223 300.747 369.243 301.14 369.244 301.534C369.212 301.849 369.105 302.152 368.932 302.417C369.055 301.743 369.076 301.055 368.994 300.375C368.761 298.525 368.378 296.697 367.85 294.909C366.154 288.969 362.826 283.623 358.246 279.478C353.665 275.333 348.015 272.555 341.935 271.459C340.103 271.111 338.246 270.912 336.381 270.865C335.063 270.836 334.329 270.859 334.327 270.816Z" fill="#1C2E5C"/>
<path d="M363.474 285.831C362.83 286.218 362.144 286.53 361.429 286.76C360.141 287.268 358.339 287.917 356.329 288.56C354.319 289.203 352.468 289.708 351.122 290.037C350.405 290.262 349.664 290.403 348.915 290.458C349.593 290.137 350.301 289.885 351.03 289.707L356.182 288.097L361.318 286.439C362.014 286.163 362.736 285.959 363.474 285.831Z" fill="#1C2E5C"/>
<path d="M357.1 268.719C357.662 271.702 357.739 274.756 357.329 277.763C357.13 276.266 357.052 274.754 357.094 273.244C356.976 271.738 356.978 270.225 357.1 268.719Z" fill="#1C2E5C"/>
<path d="M328.143 277.983C329.091 277.555 330.075 277.209 331.082 276.949C332.92 276.382 335.482 275.665 338.332 274.977C341.182 274.289 343.792 273.763 345.687 273.43C346.702 273.202 347.735 273.063 348.774 273.013C347.787 273.336 346.777 273.587 345.754 273.766C343.88 274.184 341.293 274.766 338.446 275.448C335.599 276.13 333.034 276.798 331.175 277.279C330.183 277.586 329.169 277.821 328.143 277.983Z" fill="#1C2E5C"/>
<path d="M351.886 306.187C348.407 303.549 344.728 303.029 340.365 303.202C335.996 303.494 331.72 304.597 327.755 306.456C320.934 309.444 314.522 313.847 310.446 320.08C306.37 326.313 304.952 334.564 308.004 341.357C308.241 342.067 308.733 342.664 309.385 343.033C310.142 343.25 310.952 343.187 311.668 342.858C319.427 340.327 327.24 337.773 334.374 333.809C341.508 329.845 348 324.336 351.828 317.129C352.813 315.429 353.439 313.545 353.666 311.594C353.772 310.618 353.668 309.63 353.361 308.698C353.054 307.765 352.551 306.909 351.886 306.187Z" fill="#FDBC5A"/>
<path d="M351.955 305.369C351.777 305.464 351.59 305.54 351.397 305.596L349.771 306.155L348.594 306.547C348.167 306.701 347.712 306.892 347.218 307.083C346.237 307.483 345.097 307.877 343.897 308.459L341.997 309.326C341.337 309.626 340.679 310.005 339.981 310.36C338.575 311.051 337.152 311.934 335.637 312.828C329.132 316.858 323.347 321.947 318.522 327.886C317.441 329.275 316.385 330.574 315.522 331.886C315.081 332.532 314.622 333.138 314.24 333.753L313.14 335.53C312.409 336.646 311.871 337.73 311.352 338.649C311.1 339.114 310.852 339.541 310.646 339.944L310.106 341.062C309.794 341.694 309.541 342.205 309.345 342.603C309.263 342.788 309.163 342.964 309.045 343.128C309.093 342.933 309.162 342.744 309.251 342.564C309.427 342.155 309.651 341.631 309.932 340.981L310.432 339.842C310.626 339.431 310.863 338.996 311.105 338.523C311.605 337.584 312.123 336.487 312.839 335.354L313.92 333.554C314.3 332.93 314.75 332.316 315.187 331.66C316.042 330.335 317.093 329.019 318.172 327.613C322.991 321.597 328.821 316.465 335.4 312.448C336.931 311.558 338.371 310.683 339.794 310.003C340.494 309.653 341.166 309.285 341.834 308.988L343.759 308.145C344.974 307.58 346.129 307.203 347.123 306.829C347.623 306.649 348.085 306.47 348.517 306.329L349.717 305.975L351.373 305.502C351.562 305.437 351.757 305.392 351.955 305.369Z" fill="#1C2E5C"/>
<path d="M324.773 320.087C322.003 321.148 319.178 322.059 316.31 322.814C313.487 323.723 310.616 324.478 307.71 325.075C310.48 324.014 313.305 323.103 316.174 322.348C318.997 321.439 321.868 320.684 324.773 320.087Z" fill="#1C2E5C"/>
<path d="M324.425 338.763C324.278 337.892 324.215 337.009 324.239 336.126C324.194 334.496 324.188 332.242 324.257 329.755C324.326 327.268 324.457 325.016 324.595 323.391C324.621 322.508 324.732 321.63 324.928 320.769C325.009 321.647 325.012 322.531 324.937 323.41C324.882 325.197 324.815 327.367 324.737 329.768C324.659 332.169 324.623 334.339 324.578 336.126C324.605 337.008 324.554 337.89 324.425 338.763Z" fill="#1C2E5C"/>
<path d="M340.424 330.613C340.29 330.622 339.865 326.042 339.474 320.385C339.083 314.728 338.874 310.133 339.007 310.124C339.14 310.115 339.566 314.693 339.957 320.352C340.348 326.011 340.557 330.6 340.424 330.613Z" fill="#1C2E5C"/>
<path d="M320.509 309.68C321.409 309.571 322.317 309.543 323.222 309.598C324.895 309.609 327.204 309.658 329.753 309.743C332.302 309.828 334.61 309.93 336.28 310.029C337.186 310.035 338.09 310.123 338.98 310.29C338.082 310.4 337.175 310.427 336.271 310.372C334.599 310.361 332.288 310.311 329.736 310.227C327.184 310.143 324.876 310.039 323.206 309.94C322.301 309.934 321.399 309.847 320.509 309.68Z" fill="#1C2E5C"/>
<path d="M358.911 365.4C358.871 365.223 358.852 365.041 358.854 364.859C358.835 364.451 358.811 363.936 358.782 363.303C358.721 361.951 358.707 359.993 358.759 357.574C358.811 355.155 358.968 352.274 359.259 349.088C359.574 345.903 360.03 342.41 360.683 338.772C361.353 335.136 362.157 331.703 362.983 328.607C363.834 325.516 364.695 322.759 365.507 320.474C366.319 318.189 367.015 316.353 367.549 315.105C367.8 314.52 368.003 314.045 368.164 313.669C368.226 313.497 368.309 313.333 368.41 313.181C368.379 313.361 368.327 313.536 368.255 313.704C368.117 314.088 367.941 314.574 367.725 315.171C367.246 316.437 366.593 318.284 365.832 320.579C365.071 322.874 364.239 325.631 363.415 328.717C362.615 331.809 361.826 335.232 361.158 338.855C360.507 342.48 360.04 345.955 359.701 349.13C359.387 352.305 359.188 355.173 359.101 357.584C359.014 359.995 358.967 361.95 358.97 363.3C358.962 363.934 358.955 364.449 358.95 364.856C358.959 365.038 358.946 365.221 358.911 365.4Z" fill="#1C2E5C"/>
<path d="M361.045 338.915C360.573 339.562 360.032 340.156 359.432 340.686C358.385 341.729 356.899 343.13 355.204 344.617C353.509 346.104 351.923 347.394 350.752 348.295C350.147 348.82 349.488 349.279 348.785 349.663C349.314 349.063 349.9 348.517 350.535 348.03L354.884 344.253L359.197 340.436C359.763 339.871 360.382 339.362 361.045 338.915Z" fill="#1C2E5C"/>
<path d="M373.85 349.229C373.217 348.481 372.642 347.686 372.131 346.849L368.131 341.015L364.05 335.238C363.443 334.468 362.897 333.653 362.415 332.799C363.118 333.485 363.756 334.233 364.324 335.033C365.446 336.458 366.947 338.466 368.529 340.738C370.111 343.01 371.47 345.115 372.416 346.663C372.97 347.474 373.45 348.333 373.85 349.229Z" fill="#1C2E5C"/>
<path d="M367.142 316.79C367.215 316.903 362.961 319.767 357.642 323.19C352.323 326.613 347.952 329.29 347.88 329.178C347.808 329.066 352.06 326.202 357.38 322.778C362.7 319.354 367.07 316.678 367.142 316.79Z" fill="#1C2E5C"/>
<path d="M379.136 329.735C376.883 327.874 374.736 325.889 372.702 323.791C370.554 321.808 368.518 319.707 366.602 317.498C371 321.343 375.183 325.428 379.131 329.735H379.136Z" fill="#1C2E5C"/>
<path d="M382.152 329.476L385.803 329.176C388.395 328.963 390.91 328.193 393.177 326.918C394.284 326.268 395.432 325.692 396.614 325.192C401.128 323.38 406.165 323.704 411.023 323.46C418.979 323.056 426.773 321.063 433.946 317.599C434.365 317.407 434.715 317.09 434.946 316.692C435.696 315.326 434.303 314.11 433.104 313.371C426.952 309.58 420.691 305.742 413.715 303.86C406.739 301.978 398.815 302.297 392.867 306.393C385.88 311.201 383.334 321.078 382.153 329.478" fill="#FDBC5A"/>
<path d="M435.027 316.242C434.812 316.166 434.605 316.069 434.408 315.953L432.677 315.047C431.177 314.258 429.015 313.093 426.285 311.783C423.107 310.221 419.795 308.945 416.39 307.97C412.227 306.777 407.868 306.424 403.566 306.931C399.259 307.412 395.19 309.159 391.875 311.951C389.286 314.358 387.215 317.268 385.787 320.502C384.794 322.676 383.91 324.898 383.138 327.16C382.869 327.923 382.653 328.535 382.488 329.001C382.424 329.22 382.338 329.432 382.233 329.634C382.266 329.409 382.32 329.187 382.395 328.971C382.538 328.498 382.725 327.871 382.959 327.1C383.664 324.805 384.505 322.554 385.476 320.358C386.881 317.053 388.958 314.076 391.576 311.617C394.946 308.742 399.099 306.943 403.5 306.45C407.865 305.934 412.289 306.304 416.507 307.539C419.931 308.541 423.253 309.859 426.432 311.475C429.154 312.829 431.291 314.041 432.765 314.882L434.453 315.868C434.656 315.974 434.848 316.1 435.027 316.242Z" fill="#1C2E5C"/>
<path d="M426.258 320.953C426.183 321.064 421.408 317.975 415.593 314.053C409.778 310.131 405.123 306.862 405.198 306.753C405.273 306.644 410.047 309.73 415.864 313.653C421.681 317.576 426.333 320.842 426.258 320.953Z" fill="#1C2E5C"/>
<path d="M421.164 306.5C420.044 306.885 418.872 307.096 417.688 307.126C416.511 307.29 415.315 307.274 414.142 307.079C416.474 306.796 418.817 306.603 421.164 306.5Z" fill="#1C2E5C"/>
<path d="M400.259 303.776C399.869 304.669 399.34 305.495 398.693 306.223C398.144 307.067 397.475 307.826 396.708 308.478C397.098 307.585 397.627 306.76 398.275 306.031C398.825 305.189 399.493 304.429 400.259 303.776Z" fill="#1C2E5C"/>
<path d="M404.538 323.766C403.731 323.431 402.96 323.013 402.238 322.52C400.858 321.683 398.994 320.456 397.002 319.01C395.01 317.564 393.253 316.195 391.991 315.194C391.28 314.69 390.616 314.12 390.008 313.494C390.782 313.898 391.515 314.376 392.197 314.92L397.286 318.62C399.272 320.062 401.096 321.327 402.424 322.235C403.171 322.685 403.878 323.197 404.538 323.766Z" fill="#1C2E5C"/>
<path d="M387.528 344.989C384.045 344.069 379.894 347.457 379.176 350.989C378.458 354.521 379.782 358.129 381.332 361.381C384.648 368.669 389.571 375.111 395.732 380.224C401.946 385.337 409.708 388.195 417.754 388.331C416.281 381.493 418.144 374.348 417.323 367.401C416.6 361.28 413.821 355.585 409.44 351.248C405.06 346.911 399.338 344.189 393.209 343.527C390.986 343.287 388.409 342.938 387.526 344.991" fill="#FDBC5A"/>
<path d="M417.756 388.329C417.581 388.273 417.413 388.196 417.256 388.099C416.799 387.845 416.364 387.553 415.956 387.224C414.495 385.954 413.323 384.385 412.518 382.624C411.962 381.546 411.342 380.375 410.735 379.079L408.862 374.937C408.188 373.415 407.42 371.937 406.562 370.51C405.618 368.994 404.559 367.554 403.393 366.201C401.009 363.401 398.451 360.977 396.233 358.662C394.227 356.641 392.4 354.449 390.773 352.112C389.683 350.525 388.788 348.813 388.105 347.012C387.881 346.37 387.72 345.868 387.64 345.518C387.583 345.345 387.546 345.166 387.53 344.984C387.575 344.971 387.773 345.695 388.281 346.944C389.024 348.696 389.954 350.363 391.056 351.914C392.712 354.204 394.551 356.356 396.556 358.347C398.784 360.637 401.356 363.054 403.766 365.883C404.947 367.255 406.017 368.718 406.966 370.259C407.828 371.705 408.596 373.205 409.266 374.749L411.097 378.907C411.682 380.197 412.286 381.38 412.819 382.463C413.582 384.205 414.69 385.773 416.075 387.075C417.1 387.957 417.785 388.283 417.756 388.329Z" fill="#1C2E5C"/>
<path d="M399.746 382.646C399.763 381.855 399.871 381.069 400.066 380.302C400.338 378.868 400.786 376.902 401.389 374.754C401.992 372.606 402.64 370.695 403.156 369.329C403.39 368.574 403.71 367.847 404.107 367.163C403.971 367.94 403.761 368.703 403.481 369.441C403.049 370.83 402.458 372.75 401.856 374.885C401.254 377.02 400.756 378.966 400.4 380.376C400.254 381.152 400.035 381.912 399.746 382.646Z" fill="#1C2E5C"/>
<path d="M417.1 365.86C416.267 365.744 415.446 365.555 414.646 365.296C413.146 364.903 411.073 364.367 408.768 363.847C406.463 363.327 404.359 362.925 402.836 362.636C402.002 362.527 401.179 362.346 400.377 362.094C401.219 362.071 402.062 362.138 402.89 362.294C404.432 362.494 406.556 362.85 408.875 363.371C411.194 363.892 413.262 364.486 414.742 364.963C415.558 365.178 416.348 365.478 417.1 365.86Z" fill="#1C2E5C"/>
<path d="M386.822 370.737C386.861 369.823 386.987 368.914 387.199 368.024C387.505 366.361 387.993 364.076 388.644 361.578C389.295 359.08 389.988 356.848 390.534 355.248C390.785 354.368 391.12 353.513 391.534 352.697C391.384 353.599 391.16 354.486 390.864 355.35C390.403 356.973 389.764 359.213 389.116 361.701C388.468 364.189 387.929 366.454 387.537 368.095C387.372 368.994 387.133 369.878 386.822 370.737Z" fill="#1C2E5C"/>
<path d="M409.106 351.231C409.092 351.364 404.744 351.012 399.396 350.445C394.048 349.878 389.722 349.31 389.736 349.177C389.75 349.044 394.097 349.396 399.447 349.963C404.797 350.53 409.12 351.1 409.106 351.231Z" fill="#1C2E5C"/>
<path d="M405.921 403.956C405.921 404.09 390.637 404.199 371.788 404.199C352.939 404.199 337.652 404.09 337.652 403.956C337.652 403.822 352.933 403.714 371.788 403.714C390.643 403.714 405.921 403.823 405.921 403.956Z" fill="#455A64"/>
<path d="M395.287 423.624C395.287 423.758 384.987 423.867 372.287 423.867C359.587 423.867 349.287 423.758 349.287 423.624C349.287 423.49 359.587 423.382 372.287 423.382C384.987 423.382 395.287 423.491 395.287 423.624Z" fill="#455A64"/>
<path d="M394.888 426.436C394.888 426.57 384.769 426.679 372.288 426.679C359.807 426.679 349.688 426.57 349.688 426.436C349.688 426.302 359.804 426.194 372.288 426.194C384.772 426.194 394.888 426.3 394.888 426.436Z" fill="#455A64"/>
<path d="M395.689 421.306C395.689 421.44 385.037 421.549 371.901 421.549C358.765 421.549 348.111 421.44 348.111 421.306C348.111 421.172 358.76 421.064 371.901 421.064C385.042 421.064 395.689 421.173 395.689 421.306Z" fill="#455A64"/>
<path d="M259.015 20.2C250.09 18.211 238.644 24.4 235.559 32.743C232.474 41.086 235.822 51.403 242.538 57.231C237.298 63.97 237.079 73.996 241.508 81.295C245.937 88.594 254.524 92.977 263.061 92.925C267.34 92.8083 271.546 91.7872 275.402 89.9287C279.258 88.0702 282.676 85.4164 285.433 82.142C289.072 83.9351 293.138 84.6807 297.177 84.2955C301.215 83.9103 305.067 82.4094 308.301 79.9606C311.535 77.5118 314.025 74.2117 315.491 70.4292C316.958 66.6468 317.343 62.531 316.604 58.542C326.721 54.85 332.28 41.92 327.999 32.042C323.718 22.164 310.484 17.372 300.871 22.227C301.079 11.456 291.686 1.40501 280.925 0.885011C270.164 0.365011 259.846 9.46501 259.015 20.206C259.678 20.098 258.351 20.313 259.015 20.206" fill="#FAFAFA"/>
<path d="M259.015 20.2001C258.963 20.2152 258.91 20.2272 258.856 20.2361H258.834H258.828C258.816 20.1911 258.828 20.2231 258.828 20.2131H258.841L258.895 20.2031L259.028 20.1791L259.194 20.1491C259.194 20.2261 259.082 20.1901 259.021 20.2181L258.991 20.2321L258.996 20.1951C259.154 18.0487 259.673 15.9443 260.533 13.9711C261.324 12.1656 262.352 10.4734 263.59 8.93914C265.176 6.97393 267.08 5.28769 269.222 3.95015C271.793 2.30815 274.696 1.25721 277.722 0.873144L278.958 0.734144L280.224 0.723145C281.091 0.726049 281.956 0.787523 282.814 0.907145C284.613 1.18826 286.365 1.71273 288.023 2.46614C288.462 2.64081 288.886 2.84875 289.293 3.08814C289.707 3.32214 290.133 3.54215 290.545 3.78815C291.37 4.31325 292.162 4.88763 292.918 5.50814C293.696 6.14391 294.435 6.8251 295.132 7.54815C295.829 8.30791 296.478 9.10939 297.077 9.94815C299.685 13.5084 301.09 17.807 301.089 22.2201L300.782 22.0281C305.223 19.9191 310.285 19.5228 315 20.9151C320.14 22.285 324.551 25.5885 327.312 30.1351C328.665 32.5969 329.466 35.3234 329.661 38.1257C329.856 40.9279 329.439 43.739 328.439 46.3641C327.466 49.1098 325.956 51.6338 323.995 53.7881C321.992 56.007 319.49 57.7175 316.695 58.7781L316.86 58.4901C317.604 62.7371 317.101 67.1088 315.41 71.0751C313.719 75.1952 310.812 78.7011 307.075 81.1241C303.844 83.1369 300.158 84.3058 296.358 84.5237C292.557 84.7416 288.762 84.0014 285.322 82.3711L285.632 82.3071C280.941 87.8125 274.483 91.5176 267.362 92.7891C260.63 93.9216 253.722 92.3921 248.097 88.5241C245.457 86.7159 243.212 84.3906 241.497 81.6891C239.88 79.0869 238.828 76.1734 238.411 73.1381C237.994 70.2551 238.138 67.3184 238.836 64.4901C239.506 61.8136 240.713 59.3013 242.384 57.1061L242.41 57.3791C239.337 54.6353 237.007 51.1589 235.637 47.2731C234.995 45.4964 234.572 43.6476 234.38 41.7681C234.176 40.0025 234.208 38.2176 234.473 36.4601C234.896 33.2713 236.241 30.2753 238.343 27.8401C240.1 25.8048 242.202 24.0947 244.552 22.7881C246.423 21.7392 248.421 20.9369 250.498 20.4011C252.024 20.0171 253.589 19.8101 255.162 19.7841C256.129 19.7649 257.096 19.8402 258.048 20.0091C258.692 20.1241 259.018 20.1981 259.018 20.1981C259.018 20.1981 258.683 20.1631 258.039 20.0681C257.088 19.9251 256.126 19.8688 255.164 19.9001C253.603 19.9482 252.052 20.1719 250.541 20.5671C248.486 21.1174 246.51 21.9294 244.662 22.9831C242.347 24.291 240.279 25.9941 238.552 28.0151C236.498 30.4189 235.19 33.3699 234.788 36.5061C234.534 38.2371 234.511 39.994 234.718 41.7311C234.914 43.5825 235.337 45.4027 235.976 47.1511C237.339 50.9712 239.643 54.3856 242.676 57.0781L242.816 57.2011L242.702 57.3511C241.072 59.5059 239.897 61.9694 239.248 64.5921C238.569 67.3676 238.434 70.2481 238.848 73.0751C239.263 76.0478 240.298 78.8999 241.887 81.4461C243.572 84.0908 245.777 86.3661 248.367 88.1341C253.893 91.9223 260.675 93.4147 267.281 92.2961C274.282 91.037 280.63 87.3883 285.241 81.9721L285.372 81.8211L285.551 81.9091C288.912 83.4981 292.618 84.2185 296.33 84.0045C300.042 83.7905 303.641 82.6489 306.797 80.6841C310.443 78.3178 313.282 74.896 314.933 70.8751C316.586 67.0016 317.08 62.7319 316.356 58.5831L316.316 58.3711L316.516 58.2951C319.185 57.224 321.59 55.5879 323.566 53.4992C325.542 51.4105 327.043 48.9188 327.965 46.1951C328.943 43.6378 329.354 40.8985 329.169 38.1668C328.983 35.4351 328.207 32.7762 326.893 30.3741C324.199 25.9299 319.893 22.6978 314.873 21.3521C310.266 19.9807 305.315 20.3563 300.967 22.4071L300.657 22.5611V22.2141C300.668 17.8892 299.302 13.6731 296.757 10.1761C295.618 8.52615 294.245 7.05098 292.68 5.79715C291.939 5.18403 291.161 4.61633 290.351 4.09715C289.951 3.85115 289.528 3.63315 289.122 3.40215C288.723 3.16451 288.306 2.95822 287.875 2.78514C286.248 2.0391 284.528 1.51669 282.761 1.23215C281.918 1.11219 281.068 1.04838 280.217 1.04115H278.972L277.756 1.17315C274.77 1.53895 271.901 2.56105 269.356 4.16615C267.228 5.47723 265.333 7.13317 263.749 9.06615C262.511 10.5783 261.477 12.2465 260.673 14.0281C259.808 15.9846 259.255 18.065 259.036 20.1931L259.011 20.1711C259.078 20.1781 259.171 20.1081 259.197 20.1811L259.03 20.2061L258.897 20.2251L258.842 20.2321H258.829C258.829 20.2221 258.829 20.2561 258.824 20.2091H258.83H258.853C258.907 20.2033 258.961 20.2003 259.015 20.2001Z" fill="#1C2E5C"/>
<path d="M275.809 64.3214C277.887 65.508 280.293 65.991 282.667 65.6984C284.091 65.4765 285.455 64.9698 286.679 64.2084C287.902 63.4471 288.959 62.4468 289.787 61.2674C290.597 60.1816 291.179 58.9439 291.499 57.6281C291.819 56.3123 291.87 54.9455 291.65 53.6094C291.377 52.2808 290.834 51.0223 290.056 49.9116C289.277 48.8008 288.279 47.8614 287.123 47.1514C285.256 45.9529 283.065 45.3593 280.848 45.4514L281.032 36.4224C281.041 35.998 280.88 35.5877 280.586 35.2816C280.292 34.9756 279.889 34.7988 279.464 34.7904C279.04 34.7819 278.63 34.9423 278.324 35.2364C278.017 35.5304 277.841 35.934 277.832 36.3584L277.609 47.2724C277.605 47.5191 277.657 47.7637 277.762 47.9868C277.868 48.21 278.023 48.4057 278.217 48.5587C278.411 48.7117 278.637 48.8179 278.879 48.8688C279.12 48.9197 279.37 48.9141 279.609 48.8524C280.592 48.6137 281.614 48.5793 282.611 48.7513C283.607 48.9233 284.558 49.298 285.404 49.8524C286.19 50.3267 286.871 50.9569 287.404 51.7042C287.937 52.4514 288.311 53.2999 288.504 54.1974C288.645 55.1079 288.601 56.0375 288.376 56.9309C288.15 57.8242 287.747 58.663 287.19 59.3974C286.616 60.2262 285.88 60.9307 285.027 61.469C284.174 62.0073 283.222 62.3683 282.226 62.5304C278.426 63.0564 274.246 60.2404 273.102 56.3834C273.051 56.1723 272.958 55.9738 272.828 55.7999C272.698 55.6261 272.534 55.4804 272.346 55.372C272.158 55.2635 271.95 55.1945 271.734 55.169C271.519 55.1435 271.3 55.1622 271.092 55.2239C270.884 55.2856 270.691 55.389 270.524 55.5278C270.357 55.6666 270.22 55.8379 270.121 56.0313C270.023 56.2247 269.965 56.4362 269.95 56.6528C269.936 56.8694 269.966 57.0867 270.038 57.2914C270.976 60.2951 273.046 62.8162 275.809 64.3214Z" fill="#FDBC5A"/>
<path d="M281.636 29.8643C281.653 29.5101 281.563 29.159 281.38 28.8555C281.197 28.552 280.928 28.3096 280.607 28.159C280.286 28.0084 279.927 27.9564 279.577 28.0095C279.226 28.0626 278.899 28.2185 278.637 28.4574C278.375 28.6964 278.19 29.0076 278.105 29.3518C278.02 29.6961 278.038 30.0578 278.159 30.3913C278.279 30.7248 278.496 31.0151 278.781 31.2255C279.067 31.4359 279.408 31.557 279.762 31.5733C279.998 31.5842 280.233 31.5487 280.454 31.4687C280.676 31.3887 280.879 31.2658 281.053 31.1071C281.227 30.9484 281.369 30.7569 281.469 30.5437C281.569 30.3305 281.626 30.0996 281.636 29.8643Z" fill="#FDBC5A"/>
<path d="M222.244 70.223C219.926 69.9458 217.593 70.5999 215.756 72.0417C213.92 73.4836 212.731 75.5953 212.451 77.913C212.17 80.2308 212.821 82.5652 214.26 84.4034C215.699 86.2417 217.809 87.4336 220.127 87.7174C222.444 88.0011 224.779 87.3535 226.62 85.9168C228.46 84.4801 229.655 82.3718 229.942 80.0548C230.229 77.7379 229.585 75.4017 228.151 73.5594C226.716 71.7171 224.61 70.5193 222.293 70.229" fill="#FAFAFA"/>
<path d="M222.293 70.229C223.015 70.2525 223.726 70.4063 224.393 70.683C225.953 71.3128 227.314 72.3508 228.335 73.688C229.355 75.0252 229.997 76.6123 230.193 78.283C230.343 79.8718 230.019 81.4693 229.261 82.874C228.865 83.6342 228.36 84.332 227.761 84.945C227.15 85.5967 226.448 86.1556 225.675 86.604C224.067 87.6229 222.158 88.0609 220.266 87.8451C218.374 87.6294 216.613 86.7729 215.275 85.418C214.624 84.8061 214.065 84.1028 213.616 83.33C213.169 82.598 212.832 81.8042 212.616 80.974C212.194 79.4348 212.238 77.805 212.743 76.291C213.198 74.9898 213.942 73.8093 214.921 72.839C216.315 71.4172 218.133 70.4871 220.102 70.189C220.814 70.0696 221.541 70.0798 222.249 70.219C221.542 70.2343 220.836 70.291 220.135 70.389C218.243 70.7531 216.512 71.7 215.184 73.097C214.266 74.0409 213.572 75.1789 213.153 76.427C212.695 77.8617 212.669 79.3998 213.08 80.849C213.288 81.634 213.611 82.3841 214.038 83.075C214.467 83.8062 215.001 84.4708 215.622 85.048C216.883 86.3218 218.541 87.1268 220.322 87.33C222.103 87.5331 223.9 87.1221 225.415 86.165C226.149 85.7423 226.818 85.2151 227.4 84.6C227.972 84.0231 228.455 83.365 228.835 82.647C229.561 81.3276 229.883 79.8238 229.76 78.323C229.633 77.0133 229.213 75.749 228.532 74.623C227.553 72.9625 226.08 71.6495 224.318 70.868C223.656 70.6154 222.98 70.4021 222.293 70.229Z" fill="#1C2E5C"/>
<path d="M205.219 89.2441C204.198 89.2471 203.219 89.6551 202.499 90.3788C201.778 91.1024 201.375 92.0824 201.376 93.1036C201.377 94.1248 201.784 95.1037 202.507 95.8253C203.229 96.5468 204.209 96.9521 205.23 96.9521C206.251 96.9521 207.231 96.5468 207.953 95.8253C208.676 95.1037 209.083 94.1248 209.084 93.1036C209.085 92.0824 208.682 91.1024 207.961 90.3788C207.24 89.6551 206.262 89.2471 205.241 89.2441" fill="#FAFAFA"/>
<path d="M205.241 89.247C205.557 89.2094 205.878 89.2585 206.168 89.389C206.863 89.6531 207.473 90.1022 207.931 90.6877C208.389 91.2732 208.679 91.9729 208.768 92.711C208.842 93.4205 208.703 94.136 208.368 94.766C208.014 95.5097 207.436 96.1243 206.716 96.5238C205.996 96.9234 205.168 97.0879 204.35 96.9945C203.532 96.9011 202.763 96.5544 202.151 96.0029C201.539 95.4513 201.115 94.7224 200.937 93.918C200.752 93.2285 200.777 92.4996 201.007 91.824C201.213 91.248 201.549 90.727 201.988 90.301C202.608 89.6803 203.418 89.2838 204.288 89.174C204.6 89.1123 204.924 89.1365 205.223 89.244C205.223 89.292 204.887 89.256 204.323 89.374C203.529 89.5495 202.807 89.9625 202.253 90.558C201.84 90.9749 201.543 91.4935 201.394 92.0614C201.245 92.6294 201.248 93.2267 201.403 93.793C201.566 94.4962 201.942 95.1318 202.481 95.6124C203.02 96.093 203.694 96.3949 204.411 96.4768C205.128 96.5587 205.853 96.4165 206.486 96.0696C207.119 95.7228 207.629 95.1885 207.946 94.54C208.225 94.0232 208.362 93.442 208.345 92.8551C208.327 92.2682 208.155 91.6963 207.846 91.197C207.441 90.4921 206.83 89.9271 206.096 89.577C205.566 89.334 205.234 89.294 205.241 89.247Z" fill="#1C2E5C"/>
</svg>
