<svg width="438" height="453" fill="none" xmlns="http://www.w3.org/2000/svg"><path d="M274.646 108.2a1.935 1.935 0 00-1.672 1.2l-3.62 8.921a1.942 1.942 0 00.13 1.717 1.928 1.928 0 001.448.931 6 6 0 014.1 2.442 5.397 5.397 0 011.089 4.148 5.523 5.523 0 01-2.492 3.528 6.169 6.169 0 01-4.671.945 7.249 7.249 0 01-5.175-7.386 1.92 1.92 0 00-.458-1.407 1.933 1.933 0 00-3.397 1.107 11.138 11.138 0 008.158 11.451 9.985 9.985 0 007.665-1.48 9.398 9.398 0 004.174-6.065 9.282 9.282 0 00-1.791-7.152 10.102 10.102 0 00-4.363-3.373l2.792-6.876a1.942 1.942 0 00-.224-1.855 1.93 1.93 0 00-1.688-.802l-.005.006zM278.635 105.454c.125-.286.162-.604.106-.911a1.582 1.582 0 00-2.134-1.191 1.58 1.58 0 00.549 3.052 1.581 1.581 0 001.479-.95zM218.672 38.073a1.921 1.921 0 00-.3-2.025l-6.216-7.265a1.922 1.922 0 00-2.415-.417 1.917 1.917 0 00-.641.6 5.96 5.96 0 01-4.024 2.5 5.375 5.375 0 01-4.156-.934 5.49 5.49 0 01-1.975-3.809 6.131 6.131 0 011.3-4.552 7.203 7.203 0 018.877-1.192 1.92 1.92 0 002.023-3.264 11.06 11.06 0 00-13.825 1.968 9.905 9.905 0 00-2.194 7.437 9.34 9.34 0 003.444 6.45 9.223 9.223 0 007.126 1.686 10.049 10.049 0 004.968-2.309l4.79 5.6a1.92 1.92 0 003.216-.473h.002zM219.277 42.847a1.572 1.572 0 102.44-1.983 1.572 1.572 0 00-2.44 1.983zM435.823 43.358H346.99v128.761h88.833V43.358z" fill="#E0E0E0"/><path d="M431.374 43.358H342.54v128.761h88.834V43.358z" fill="#F5F5F5"/><path d="M420.337 57.304h-66.76v100.869h66.76V57.304z" fill="#fff"/><path d="M420.337 158.173s-.009-.17-.013-.493l-.014-1.43-.026-5.533-.06-20.779-.109-72.634.222.222-66.752.02h-.008l.241-.242-.049 100.869-.192-.192 48.592.1 13.425.049 3.524.022c.8.007 1.219.02 1.219.02s-.393.014-1.178.021l-3.488.022-13.382.049-48.712.1h-.193v-.193l-.049-100.869v-.242h.25l66.752.02h.222v.22l-.109 72.78-.059 20.728-.027 5.489-.013 1.4a8.684 8.684 0 01-.014.476z" fill="#E0E0E0"/><path d="M431.623 43.358a15.241 15.241 0 01-1.583 2.3c-1.032 1.38-2.5 3.257-4.168 5.287a141.101 141.101 0 01-4.391 5.1 15.292 15.292 0 01-1.955 1.995 16.53 16.53 0 011.7-2.217l4.277-5.19 4.272-5.191a16.707 16.707 0 011.848-2.084z" fill="#E0E0E0"/><path d="M420.677 157.849a82.651 82.651 0 0011.644 14.562l-11.644-14.562z" fill="#fff"/><path d="M432.321 172.411a13.318 13.318 0 01-2.03-1.847 65 65 0 01-8.259-10.329 13.226 13.226 0 01-1.355-2.387c.6.69 1.147 1.424 1.638 2.195a120.653 120.653 0 003.961 5.266 117.183 117.183 0 004.264 5.021c.645.649 1.24 1.344 1.781 2.081z" fill="#E0E0E0"/><path d="M342.527 172.017l11.636-14.356-11.636 14.356z" fill="#fff"/><path d="M354.163 157.661a87.997 87.997 0 01-5.63 7.33 88.495 88.495 0 01-6.006 7.026 88.842 88.842 0 015.631-7.331 88.677 88.677 0 016.005-7.025zM342.54 43.358a80.582 80.582 0 015.647 6.752 80.272 80.272 0 015.27 7.052 80.32 80.32 0 01-5.648-6.753 80.172 80.172 0 01-5.269-7.051zM399.537 77.785h-22.354v63.469h22.354V77.785zM93.391 49.021l-7.107.038.19 35.362 7.107-.039-.19-35.361z" fill="#E0E0E0"/><path d="M43.121 49.112l-18.403.099.105 19.522 18.403-.099-.105-19.522z" fill="#EBEBEB"/><path d="M61.437 49.015l-18.403.098.105 19.522 18.402-.099-.104-19.521z" fill="#F5F5F5"/><path d="M24.747 54.6c12.23.101 24.47.045 36.72-.169a.2.2 0 000-.391c-12.23-.068-24.492-.008-36.72.224a.168.168 0 100 .336z" fill="#E0E0E0"/><path d="M46.68 68.31l-33.436.178.085 15.91 33.436-.18-.085-15.909z" fill="#EBEBEB"/><path d="M79.957 68.13l-33.436.18.085 15.909 33.436-.18-.085-15.908z" fill="#F5F5F5"/><path d="M13.268 72.913c22.212.251 44.5.026 66.713-.33a.2.2 0 000-.39c-22.214-.118-44.5-.1-66.713.384a.168.168 0 100 .336zM130.304 84.397H.764v5.699h129.54v-5.699z" fill="#E0E0E0"/><path d="M27.231 87.137h-5.259v19.448h5.26V87.137zM105.732 87.137h-5.259v19.448h5.259V87.137z" fill="#E0E0E0"/><path d="M100.326 35.834l-7.107.038.26 48.634 7.108-.038-.261-48.634z" fill="#EBEBEB"/><path d="M111.43 44.888l-11.043.06.212 39.412 11.043-.06-.212-39.412z" fill="#F5F5F5"/><path d="M111.355 52.481c-1.834.19-3.678.254-5.521.191-1.843.063-3.688 0-5.522-.191a39.868 39.868 0 015.522-.192c1.843-.064 3.687 0 5.521.192zM111.355 50.825c-1.834.19-3.678.254-5.521.191-1.843.063-3.688 0-5.522-.19a39.884 39.884 0 015.522-.193 39.87 39.87 0 015.521.192zM111.355 78.37a39.854 39.854 0 01-5.521.192c-1.843.064-3.688 0-5.522-.192a40.181 40.181 0 015.522-.19c1.843-.064 3.687 0 5.521.19zM111.355 76.715c-1.834.19-3.678.254-5.521.191a40.15 40.15 0 01-5.522-.19 39.868 39.868 0 015.522-.193 39.87 39.87 0 015.521.192zM106.011 73.1c-.1 0-.191-3.976-.191-8.88 0-4.904.086-8.88.191-8.88.105 0 .192 3.974.192 8.88 0 4.906-.086 8.88-.192 8.88z" fill="#E0E0E0"/><path d="M123.495 54.566h-12.02v29.749h12.02v-29.75z" fill="#EBEBEB"/><path d="M98.71 44.138a2.042 2.042 0 11-4.083-.002 2.042 2.042 0 014.083.002zM97.3 49.755h-1.264v28.932H97.3V49.755z" fill="#E0E0E0"/><path d="M438 451.814c0 .144-95.819.26-213.99.26-118.212 0-214.01-.116-214.01-.26 0-.144 95.8-.261 214.01-.261 118.171 0 213.99.117 213.99.261z" fill="#1C2E5C"/><path d="M348.472 212.3H58.267v9.293h290.205V212.3z" fill="#E0E0E0"/><path d="M84.6 452.288l-9.422-.033V220.366H84.6v231.922zM334.683 452.267h-9.518l.1-231.9h9.422l-.004 231.9z" fill="#E0E0E0"/><path d="M170.728 126.861s51.8 54.271 50.89 66.315c-.91 12.044-12.506 14.656-16.292 14.189-3.786-.467-32.262-32.186-32.262-32.186l-2.336-48.318z" fill="#FDBC5A"/><path opacity=".4" d="M170.728 126.861s51.8 54.271 50.89 66.315c-.91 12.044-12.506 14.656-16.292 14.189-3.786-.467-32.262-32.186-32.262-32.186l-2.336-48.318z" fill="#000"/><path d="M198.334 394.976l14.043 47 15.787-8.572-8.964-43.029-20.866 4.601z" fill="#FFBE9D"/><path d="M226.226 412.721l4.836 22.243s24.233 2.555 25.528 6.578l-42.79 10.927-8.96-34.349 21.386-5.399z" fill="#FDBC5A"/><path d="M217.357 436.489a1.8 1.8 0 00-.7 2.3 1.733 1.733 0 002.276.714 1.9 1.9 0 00.728-2.443 1.8 1.8 0 00-2.451-.479" fill="#E0E0E0"/><path opacity=".4" d="M213.8 452.469l-.767-3.5 41.315-9.168s2.116.342 2.244 1.739L213.8 452.469z" fill="#000"/><path d="M231.7 434.569c.046.211-.974.573-1.831 1.507-.881.912-1.18 1.953-1.393 1.919-.2.008-.21-1.32.847-2.434s2.377-1.195 2.377-.992zM236.662 435.28c.1.19-.715.776-1.2 1.842-.516 1.05-.451 2.051-.661 2.1-.188.082-.645-1.1-.018-2.417.627-1.317 1.824-1.723 1.879-1.525zM240.583 440c-.179.093-.736-.877-.491-2.158s1.1-1.987 1.238-1.835c.162.141-.316.917-.5 1.972-.21 1.052-.045 1.948-.247 2.021zM230.035 429.622c-.039.213-1.071.17-2.231.552-1.169.358-1.987.989-2.141.838-.16-.121.54-1.123 1.913-1.554 1.373-.431 2.524-.026 2.459.164zM228.977 425.153a4.14 4.14 0 01-2.146.536 9.94 9.94 0 01-2.418-.116c-.474-.08-.942-.194-1.4-.339a2.66 2.66 0 01-.776-.339.941.941 0 01-.38-1.087 1.188 1.188 0 01.794-.711c.271-.072.552-.104.832-.094a7.814 7.814 0 013.756.909c1.228.666 1.766 1.36 1.705 1.419-.077.093-.727-.438-1.932-.939a8.85 8.85 0 00-2.186-.589 8.067 8.067 0 00-1.327-.065c-.484 0-.87.092-.935.323-.023.088-.02.12.108.228.178.108.37.191.57.246.426.145.86.265 1.3.359.749.159 1.51.248 2.275.265a15.266 15.266 0 012.16-.006z" fill="#1C2E5C"/><path d="M228.781 425.522c-.066.051-.671-.592-1.093-1.926a7.173 7.173 0 01-.094-3.861 1.832 1.832 0 011.091-1.431c.192-.044.392-.033.578.032.186.065.349.182.47.337.174.222.316.468.42.73a5.07 5.07 0 01.02 3.89c-.553 1.322-1.361 1.8-1.4 1.729.337-.617.637-1.254.9-1.906a5.087 5.087 0 00.164-2.187 4.54 4.54 0 00-.356-1.228c-.183-.438-.447-.761-.606-.671-.213.051-.487.486-.57.893a7.37 7.37 0 00-.234 1.3 7.94 7.94 0 00.131 2.245c.262 1.268.685 1.993.579 2.054zM160.2 260.97c.52 2.08 37.206 151.751 37.206 151.751l33.313-10.057-31.452-151.6-39.067 9.906z" fill="#1C2E5C"/><path d="M155.294 69.75l-5.822 44.718a13.412 13.412 0 0021.751 12.145 13.424 13.424 0 004.857-8.706c.435-3.367.8-6.174.872-6.517 0 0 11.523.412 13.812-10.749 1.106-5.393 2.48-16.687 3.6-26.919a21.22 21.22 0 00-17.1-23.146l-1.079-.207c-11.761-1.554-19.659 7.572-20.891 19.38z" fill="#FFBE9D"/><path d="M177 111.237a26.5 26.5 0 01-13.787-6.949s1.9 8.713 13.256 9.852l.531-2.903z" fill="#EB996E"/><path d="M191.17 80.046a1.627 1.627 0 01-1.85 1.315 1.556 1.556 0 01-1.37-1.757 1.63 1.63 0 011.849-1.317 1.552 1.552 0 011.332 1.143c.054.2.068.41.039.616zM191.263 78.121c-.238.17-1.276-.958-3-1.284-1.713-.351-3.145.291-3.291.045-.074-.111.2-.448.826-.743a4.467 4.467 0 012.685-.293 4.283 4.283 0 012.335 1.282c.454.507.561.918.445.993zM173.875 77.593a1.629 1.629 0 01-1.85 1.316 1.555 1.555 0 01-1.37-1.757 1.625 1.625 0 011.849-1.317 1.565 1.565 0 011.056.59 1.56 1.56 0 01.315 1.168zM174.072 75.422c-.238.171-1.278-.958-3-1.284-1.713-.35-3.145.292-3.291.045-.073-.11.2-.448.827-.742a4.468 4.468 0 012.684-.294 4.285 4.285 0 012.335 1.282c.452.507.56.92.445.993zM177.737 89.775c.961-.11 1.931-.098 2.889.033.448.039.88.032 1.012-.254.124-.446.109-.92-.043-1.357l-.655-3.592c-.888-5.106-1.441-9.271-1.235-9.305.206-.034 1.093 4.077 1.98 9.184l.6 3.6c.176.582.14 1.208-.1 1.767a1.114 1.114 0 01-.845.5c-.256.02-.513.006-.766-.04a11.402 11.402 0 01-2.837-.536zM175.25 71.922c-.26.435-1.934-.117-4-.261-2.061-.186-3.8.091-3.988-.379-.081-.224.287-.609 1.032-.935a6.962 6.962 0 016.083.488c.686.44.988.879.873 1.087zM192.055 71.866c-.377.332-1.483-.3-2.9-.594-1.41-.342-2.68-.243-2.879-.705-.084-.221.181-.576.779-.845a4.295 4.295 0 014.66 1.047c.422.498.51.931.34 1.097z" fill="#1C2E5C"/><path d="M154.615 78.208c-.175-.119-7.249-3.751-8.475 3.944s6.752 7.338 6.8 7.12c.048-.218 1.675-11.064 1.675-11.064z" fill="#FFBE9D"/><path d="M151.055 85.982c-.03-.03-.15.073-.393.14-.34.086-.7.036-1.005-.139-.765-.428-1.244-1.827-1.061-3.22a4.502 4.502 0 01.681-1.86 1.578 1.578 0 011.173-.868.691.691 0 01.732.494c.069.231 0 .377.034.4.019.022.186-.1.175-.43a.867.867 0 00-.226-.53 1.024 1.024 0 00-.71-.315 1.909 1.909 0 00-1.591.97 4.619 4.619 0 00-.806 2.071c-.2 1.558.365 3.136 1.426 3.634a1.452 1.452 0 001.258-.008c.269-.155.337-.32.313-.339z" fill="#EB996E"/><path d="M150.41 77.131a4.088 4.088 0 013.319 2.594c.287 1.188.159 2.446.444 3.635.285 1.19 1.217 2.392 2.438 2.34a2.403 2.403 0 001.93-1.439 6.586 6.586 0 00.5-2.462c.236-3.659.166-7.345.714-10.97a18.716 18.716 0 014.256-9.965c2.479-2.7 6.381-4.288 9.914-3.309 2.34.65 4.282 2.307 6.58 3.092a9.517 9.517 0 008.261-1.1 3.79 3.79 0 01.416-.22 2.102 2.102 0 001.2-2.244 2.035 2.035 0 00-.311-.819c-3.852-5.233-12.061-8.066-18.549-7.7-6.488.366-13.128 3.622-16.9 8.91-3.772 5.286-4.539 13.504-4.2 19.655M181.2 94.988a12.17 12.17 0 01-4.7-1.73c1.67.245 3.27.835 4.7 1.73z" fill="#1C2E5C"/><path d="M189.558 103.615a4.802 4.802 0 01-.951 2.081 11.569 11.569 0 01-4.178 3.6 19.827 19.827 0 01-5.213 1.78c-.735.201-1.494.3-2.256.294a12.156 12.156 0 012.17-.652 25.126 25.126 0 005.056-1.883 12.774 12.774 0 004.123-3.36c.847-1.081 1.167-1.895 1.249-1.86z" fill="#EB996E"/><path d="M184.141 109.328c-2.708 1.356-4.7 5.039-6.423 7.426a5.913 5.913 0 00-1.216 2.383 5.562 5.562 0 00.484 2.789c.5 1.332 1.052 2.64 1.608 3.948.158.371.37.789.763.879.5.113.928-.379 1.133-.849.382-1.219.595-2.484.634-3.76a3.885 3.885 0 011.857-3.16" fill="#EB996E"/><path d="M188.422 119.313l-2.636-1.968a.793.793 0 00-1.1.1l-1.4 1.617a.019.019 0 00-.002.007l.002.007.736 4.092c.861 5.248-3.028 4.429-3.028 4.429l-.309-1-1.71-6.4c-.344-3.055-.1-3.416 1.385-5.629l3.261-4.661a2.622 2.622 0 013.09-1c4.678 1.727 14.772 4.856 15.909 8.819 2.072 7.225 3.742 25.653 3.771 25.981v.007l-14.245 1.278.067-12.3a6.369 6.369 0 01-2.677-3.373c-.61-2.17-1.113-10-1.113-10" fill="#FFBE9D"/><path d="M198.291 121.722c.022.024-.152.247-.542.576a4.604 4.604 0 01-1.94.984 3.488 3.488 0 01-1.545-.011 2.772 2.772 0 01-1.528-.948c-.836-1.007-.955-2.426-1.7-3.457a6.418 6.418 0 00-1.467-1.2 14.12 14.12 0 00-1.6-.891 2.893 2.893 0 00-1.461-.413 2.973 2.973 0 00-1.162.688c-1.292 1.2-2 2.09-2.073 2.016-.027-.023.128-.255.428-.659.423-.579.891-1.124 1.4-1.63a3.22 3.22 0 011.314-.836c.158-.037.322-.046.483-.027.148.025.293.06.436.105.285.089.564.195.836.319.577.26 1.136.561 1.67.9a6.541 6.541 0 011.612 1.323c.848 1.225.942 2.609 1.652 3.465a2.745 2.745 0 002.632.9 5.048 5.048 0 001.889-.786c.419-.275.64-.447.666-.418zM196.71 126.058a18.39 18.39 0 01-7.786-2.248c1.331.246 2.64.6 3.913 1.057 1.322.291 2.617.69 3.873 1.191z" fill="#EB996E"/><path d="M191.635 119.372c-3.735.009-4.171-.172-8.4.059a6.025 6.025 0 00-1.86.3 2.026 2.026 0 00-1.279 1.3c-.295 1.157.875 2.214 2.04 2.478 1.165.264 2.4.059 3.563.33a7.832 7.832 0 014.687 2.75c2.435 3.457 4.995 1.794 6.658 3.028l4.364-2.755-1.542-6.444-8.227-1.044" fill="#FFBE9D"/><path d="M197.421 129.615a4.845 4.845 0 00-1.194-.368 10.677 10.677 0 01-3.455-.608 5.517 5.517 0 01-1.907-1.568 6.43 6.43 0 00-1.923-1.837 9.548 9.548 0 00-2.744-1.1 23.538 23.538 0 00-3.225-.279 3.105 3.105 0 01-2.733-1.986 1.777 1.777 0 01.415-1.678 2.74 2.74 0 011.4-.8 16.418 16.418 0 012.8-.228 50.15 50.15 0 012.412-.026c1.476.03 2.66.1 3.481.137.428-.008.855.028 1.275.107a5.82 5.82 0 01-1.277.1c-.823.029-2.016.011-3.479.029-.732.01-1.533.042-2.393.088-.903.016-1.803.104-2.692.261-.856.188-1.721.981-1.443 1.883a2.629 2.629 0 002.308 1.605c1.1.018 2.196.118 3.281.3a9.843 9.843 0 012.876 1.193 6.792 6.792 0 011.996 1.96 5.218 5.218 0 001.731 1.505c1.069.403 2.19.652 3.329.739.318.062.623.18.9.348.185.134.272.208.261.223z" fill="#EB996E"/><path d="M191.221 116.453c.005-.063.274-.117.659.061a1.695 1.695 0 01.956 1.297 1.696 1.696 0 01-.556 1.512c-.32.278-.593.3-.616.242-.023-.058.154-.209.343-.489a1.585 1.585 0 00.308-1.191 1.6 1.6 0 00-.629-1.058c-.259-.216-.478-.297-.465-.374z" fill="#EB996E"/><path d="M199.592 284.078l-18.237 45.533 17.693 3.108 19.74-39.268-19.196-9.373z" fill="#FFBE9D"/><path d="M210.394 315.322l-10.049 20.424s17.386 17.074 15.9 21.03l-40.3-18.062 14.352-32.467 20.097 9.075z" fill="#FDBC5A"/><path d="M188.665 328.415a1.8 1.8 0 00-1.979 1.368 1.733 1.733 0 001.339 1.975 1.9 1.9 0 002.089-1.46 1.801 1.801 0 00-1.621-1.9" fill="#E0E0E0"/><path opacity=".4" d="M175.939 338.714l1.449-3.277 38.178 18.581s1.445 1.585.676 2.758l-40.303-18.062z" fill="#000"/><path d="M201.09 335.834c-.094.194-1.119-.158-2.37.041-1.258.166-2.139.8-2.285.636-.164-.12.657-1.165 2.177-1.379 1.52-.214 2.602.541 2.478.702zM204.534 339.477c-.041.211-1.043.163-2.084.7-1.057.5-1.629 1.327-1.821 1.231-.2-.052.181-1.266 1.488-1.9 1.307-.634 2.497-.221 2.417-.031zM204.667 345.612c-.2-.038-.03-1.144.958-1.995.988-.851 2.1-.868 2.111-.667.038.212-.818.522-1.619 1.234-.817.692-1.246 1.496-1.45 1.428zM202.864 330.925c-.163.143-.944-.533-2.09-.956-1.138-.447-2.171-.461-2.2-.676-.05-.193 1.122-.543 2.465-.026 1.343.517 1.991 1.547 1.825 1.658zM204.815 326.767a4.125 4.125 0 01-2.014-.915 9.942 9.942 0 01-1.821-1.6 10.41 10.41 0 01-.883-1.134 2.751 2.751 0 01-.4-.748.941.941 0 01.379-1.088 1.185 1.185 0 011.064-.063c.257.113.497.262.71.444a7.801 7.801 0 012.376 3.048c.37.661.527 1.419.452 2.172-.118.024-.3-.8-.928-1.937a8.856 8.856 0 00-1.346-1.821 8.338 8.338 0 00-1-.877c-.377-.3-.739-.469-.934-.328-.072.055-.09.081-.057.246.072.196.17.38.293.547.243.378.508.741.793 1.088a12.26 12.26 0 001.616 1.622c1.016.845 1.751 1.239 1.7 1.344z" fill="#1C2E5C"/><path d="M204.432 326.934a3.526 3.526 0 01.342-2.188 7.162 7.162 0 012.329-3.081 1.831 1.831 0 011.744-.442 1.04 1.04 0 01.591.941 2.968 2.968 0 01-.125.832 5.083 5.083 0 01-2.408 3.06 2.85 2.85 0 01-2.169.485 18.08 18.08 0 001.887-.935 5.072 5.072 0 001.489-1.61c.217-.369.38-.768.485-1.183.129-.457.124-.874-.057-.9a1.26 1.26 0 00-1 .344 7.44 7.44 0 00-.99.87 7.971 7.971 0 00-1.294 1.839c-.583 1.155-.703 1.986-.824 1.968zM164.677 229.477l56.163-27.5a24.887 24.887 0 0129.236 5.472 24.893 24.893 0 014.094 27.768l-37.264 76.621-31.168-9.825 27.409-58.4-30.834 23.5a48.457 48.457 0 01-28.957 9.915l-8.074.069A38.783 38.783 0 01112.95 257.1l51.727-27.623z" fill="#1C2E5C"/><path d="M216.906 311.838s-.2-.039-.571-.146l-1.653-.489-6.29-1.923-22.717-7.067-.23-.071.1-.219 19.776-42.259 7.593-16.164.382.31c-14.143 10.537-26.8 19.288-36.139 25.051a96.533 96.533 0 01-11.3 6.176c-1.053.478-2.15.851-3.276 1.115a4.357 4.357 0 01-.888.116c-.099.014-.2.017-.3.009 0-.034.413-.032 1.172-.214a19.258 19.258 0 003.224-1.187c3.86-1.864 7.6-3.966 11.2-6.293 9.278-5.829 21.891-14.63 36.006-25.178l.813-.607-.431.918-7.58 16.169-19.869 42.215-.127-.29 22.663 7.239 6.256 2.032 1.634.548c.368.129.552.209.552.209z" fill="#455A64"/><path d="M223.706 230.923a26.388 26.388 0 00-10.815 12.915 8.277 8.277 0 01.744-2.433 20.782 20.782 0 017.806-9.322 8.3 8.3 0 012.265-1.16z" fill="#455A64"/><path d="M104.651 339.338h80.783a2.076 2.076 0 012.073 2.015 2.07 2.07 0 01-1.266 1.969 2.07 2.07 0 01-.807.163h-80.783a2.072 2.072 0 110-4.147z" fill="#E0E0E0"/><path d="M174.808 287.912h-63.191a12.243 12.243 0 0112.243-12.244h38.705a12.243 12.243 0 0112.243 12.244z" fill="#455A64"/><path d="M176.792 287.912h-66.663v3.714h66.663v-3.714z" fill="#E0E0E0"/><path d="M116.063 291.625l-16.3 160.663h3.837l19.89-160.663h-7.427zM170.362 291.625l16.293 160.584-3.833.021-19.879-160.544 7.419-.061zM147.657 290.214l-2.743 162.07h-3.934l-1.715-162.516 8.392.446z" fill="#E0E0E0"/><path d="M146.381 114.068l3.957-12.022 26.132 12.094-1.2 12.721-13.023 3.7-12.784-7.834-3.082-8.659z" fill="#FDBC5A"/><path d="M112.95 257.1a8.695 8.695 0 01-3.661-7.292c-.012-4.818 4.3-5.215 4.437-7.881 1.438-27.552 4.556-84.622 6.614-102.632 2.593-22.7 29.186-27.495 29.186-27.495l21.958 5.394v1.659c7.6 9.77 10.887 24.5 10.894 36.874l-1.023 65.586L112.95 257.1z" fill="#FDBC5A"/><path d="M137.628 220.366a7.17 7.17 0 01-.815 1.12c-.548.7-1.37 1.693-2.411 2.9-2.08 2.41-5.074 5.641-8.588 9-3.514 3.359-6.884 6.2-9.388 8.162a81.165 81.165 0 01-3.007 2.275 6.993 6.993 0 01-1.156.761c.313-.34.659-.649 1.032-.922l2.9-2.4a189.41 189.41 0 009.261-8.253 186.453 186.453 0 008.673-8.867l2.532-2.783c.289-.362.613-.695.967-.993z" fill="#1C2E5C"/><path opacity=".2" d="M115.995 241.831c.078-4.153 3.182-7.568 6.26-10.357a102.435 102.435 0 0111.466-8.988c.2 2.028-1.181 3.838-2.522 5.371a107.68 107.68 0 01-14.878 14.053" fill="#000"/><path d="M154.428 112.08c.1-1.195.372-2.369.808-3.486.273-1.168.713-2.29 1.305-3.333a12.377 12.377 0 01-.808 3.487 12.442 12.442 0 01-1.305 3.332zM164.623 108.67a11.991 11.991 0 01-.529 3.468 11.979 11.979 0 01-1.037 3.352c.006-1.176.184-2.344.529-3.468.18-1.162.529-2.292 1.037-3.352zM172.213 112.459a14.336 14.336 0 01-.27 3.155 14.375 14.375 0 01-.459 3.134 11.989 11.989 0 01.729-6.289z" fill="#1C2E5C"/><path d="M145.834 176.64a4.57 4.57 0 01-1.108.081c-.713.018-1.746.027-3.021.026-2.551 0-6.075-.037-9.968-.11a571.246 571.246 0 01-9.967-.263 130.788 130.788 0 01-3.02-.139 4.685 4.685 0 01-1.1-.122 4.586 4.586 0 011.109-.081c.714-.018 1.746-.027 3.022-.026 2.551 0 6.074.037 9.966.11 3.892.073 7.414.168 9.964.263l3.02.139c.372-.003.742.038 1.103.122zM140.256 168.252c0 .143-5.015.153-11.193.021s-11.186-.355-11.183-.5c.003-.145 5.014-.153 11.194-.022 6.18.131 11.185.357 11.182.501z" fill="#FAFAFA"/><path opacity=".2" d="M130.755 155.322c7.989 17.417 17.773 33.056 29.146 48.478 2.93 3.972 6.067 7.96 10.3 10.494 4.233 2.534 7.038 1.827 11.262-.725-4.724-1.505-5.967-1.984-9.982-4.894a47.76 47.76 0 01-10.093-10.769c-10.014-13.757-19.764-27.928-29.778-41.685" fill="#000"/><path d="M213.924 180.09a9.792 9.792 0 01.925-3.334 3.321 3.321 0 012.761-1.833 2.032 2.032 0 012.02 2.263 5.083 5.083 0 01-1.106 1.707c-1.277 1.736-1.157 4.086-1.139 6.241.018 2.155-.269 4.6-1.993 5.9" fill="#FFBE9D"/><path d="M134.581 129.889a18.171 18.171 0 00-7.539 12.071 18.166 18.166 0 003.477 13.801l36.541 48.122a27.381 27.381 0 0049.048-18.163l-8.045-50.6-19.663 1.22 1.857 41.212-30.418-43.227a18.165 18.165 0 00-25.258-4.436z" fill="#FDBC5A"/><path d="M213.339 200.066c-4.836-1.129-5.657-1.96-10.493-3.089-1.44-.336-3.288-1.271-2.643-2.793a2.05 2.05 0 012.052-1.2c1.886.152 4.917 1.275 6.734 1.449.454.043.441-.414.24-.724a58.333 58.333 0 00-9.037-1.941 2.218 2.218 0 01-1.113-3.914 3.3 3.3 0 011.295-.37c1.936.28 1.936.28 4 .638 5.8 1 5.029-.145 5.029-.145.037-.435-6.6-1.077-9.988-1.483a2.896 2.896 0 01-1.973-.768 1.91 1.91 0 01.229-2.411A3.358 3.358 0 01200 182.15c3.769-.065 16.147 1.311 16.147 1.311s1.621 2.2 1.126 6.706c-.543 4.946-3.934 9.899-3.934 9.899z" fill="#FFBE9D"/><path d="M195.828 213.575s-.176.033-.522.073l-1.539.16c-1.355.123-3.355.315-5.944.344a28.863 28.863 0 01-9.322-1.29 26.34 26.34 0 01-10.289-6.963 136.867 136.867 0 01-9.651-11.644c-3.29-4.324-6.73-9-10.309-13.95a1211.632 1211.632 0 01-11.094-15.626l-5.772-8.333-1.46-2.132-.692-1.118a8.325 8.325 0 01-.629-1.16 18.1 18.1 0 01-1.748-10.353c.11-.873.277-1.738.5-2.589a19.85 19.85 0 01.894-2.46 16.391 16.391 0 012.725-4.384 17.706 17.706 0 013.776-3.4 19.006 19.006 0 014.477-2.211 18.418 18.418 0 0114.006 1.1 18.72 18.72 0 016.714 5.919l4.794 6.919c3.089 4.464 5.968 8.623 8.6 12.422l12.419 18.01 3.355 4.911.862 1.285c.192.291.279.448.279.448s-.116-.136-.322-.417l-.9-1.256-3.435-4.855-12.556-17.916-8.651-12.387-4.816-6.9a18.279 18.279 0 00-6.554-5.75 17.943 17.943 0 00-13.63-1.045c-1.538.524-3 1.248-4.349 2.155a17.243 17.243 0 00-3.668 3.305 19.43 19.43 0 00-1.486 2.017 17.233 17.233 0 00-2.512 7.15 17.609 17.609 0 001.7 10.056 35.812 35.812 0 002.742 4.349l5.764 8.334c3.8 5.449 7.5 10.681 11.065 15.638 3.565 4.957 6.991 9.638 10.262 13.969a138.425 138.425 0 009.572 11.648 26.141 26.141 0 0010.119 6.944 29.02 29.02 0 009.227 1.363c2.579 0 4.58-.156 5.936-.246l1.543-.108c.34-.028.519-.026.519-.026z" fill="#1C2E5C"/><path d="M192.349 192.654a21.277 21.277 0 00-2.518-15.822 7.278 7.278 0 011.413 1.994 17.349 17.349 0 011.829 11.494 7.31 7.31 0 01-.724 2.334zM192.843 141.713a8.15 8.15 0 01-.458-5.485c.189.901.279 1.82.271 2.74.161.906.223 1.826.187 2.745zM198.257 141.209a8.148 8.148 0 01-.7-5.367c.239.874.376 1.772.408 2.676.201.883.299 1.786.292 2.691zM203.626 140.042a9.595 9.595 0 01-.234-4.433 9.583 9.583 0 01.234 4.433z" fill="#1C2E5C"/><path d="M170.518 151.185c.082.118-6.119 4.558-13.848 9.916-7.729 5.358-14.064 9.607-14.146 9.489-.082-.118 6.117-4.557 13.849-9.917 7.732-5.36 14.063-9.606 14.145-9.488zM165.678 143.928a6.948 6.948 0 01-1.087.838l-3.055 2.142a442.363 442.363 0 00-9.995 7.176 441.397 441.397 0 00-9.779 7.47l-2.94 2.3c-.345.302-.72.57-1.117.8a6.74 6.74 0 01.988-.952 109.46 109.46 0 012.838-2.428 220.316 220.316 0 019.7-7.6 221.422 221.422 0 0110.1-7.063 124.37 124.37 0 013.15-2.007 7.05 7.05 0 011.197-.676z" fill="#FAFAFA"/><path d="M405.808 394.646h-68.043v9.349h68.043v-9.349z" fill="#1C2E5C"/><path d="M405.924 404.112h-68.275v-9.582h68.275v9.582zm-68.043-.233h67.81v-9.116h-67.81v9.116z" fill="#1C2E5C"/><path d="M344.074 400.884l9.794 48.318h36.239L399.574 404l-55.5-3.116z" fill="#1C2E5C"/><path d="M344.074 444.631l5.223 7.182h44.048l6.229-7.182h-55.5z" fill="#455A64"/><path d="M369.231 402.3c-.134 0-.3-22.384-.383-49.991-.083-27.607-.032-50 .1-50s.3 22.38.383 50c.083 27.62.034 49.991-.1 49.991zM384.388 346.278c-.04.18-.101.355-.182.521l-.608 1.449-.444 1.043a489.91 489.91 0 01-.977 2.728c-.182.517-.325 1.08-.5 1.662a67.674 67.674 0 00-1.9 8.331c-.531 3.452-.882 6.93-1.054 10.418a140.584 140.584 0 00.538 19.03c.219 2.43.439 4.393.6 5.748l.171 1.563c.031.182.04.367.028.55a2.345 2.345 0 01-.124-.536l-.262-1.552a111.2 111.2 0 01-.755-5.739 125.32 125.32 0 01-.681-19.087 95.01 95.01 0 011.1-10.469 63.29 63.29 0 012.016-8.358c.19-.582.345-1.145.539-1.661l.563-1.454.493-1.262c.168-.381.339-.722.485-1.031l.692-1.416c.069-.169.157-.329.262-.478z" fill="#1C2E5C"/><path d="M382.649 328.174a4.7 4.7 0 01-.217.738l-.708 2.081-.52 1.5-.548 1.808c-.4 1.3-.859 2.767-1.269 4.423l-.683 2.588-.637 2.83c-.476 1.948-.819 4.065-1.257 6.276a185.292 185.292 0 00-1.866 14.545c-.43 5.188-.617 10.146-.683 14.656-.014 4.51.043 8.575.229 11.982.06 1.7.169 3.245.257 4.6.088 1.355.163 2.518.249 3.469l.167 2.192c.03.255.039.513.025.769a4.744 4.744 0 01-.122-.759c-.067-.542-.152-1.271-.257-2.185a77.803 77.803 0 01-.332-3.466c-.103-1.354-.248-2.893-.33-4.6-.229-3.411-.322-7.482-.333-12 .041-4.521.216-9.492.647-14.694.456-5.2 1.133-10.127 1.909-14.582.452-2.216.81-4.336 1.3-6.286l.666-2.833.715-2.588c.433-1.654.918-3.124 1.342-4.414l.587-1.8c.2-.54.387-1.036.561-1.489l.8-2.053c.082-.244.185-.481.308-.708zM364.927 406.255a1.098 1.098 0 01-.038-.262l-.064-.77-.2-2.964c-.164-2.612-.4-6.327-.683-10.9-.59-9.2-1.444-21.921-2.993-35.9a450.105 450.105 0 00-2.664-19.653c-.507-3.005-.967-5.865-1.489-8.525-.479-2.668-.994-5.14-1.469-7.395-.447-2.262-.946-4.287-1.347-6.074a161.218 161.218 0 00-1.094-4.569l-.707-2.884-.172-.754a1.094 1.094 0 01-.042-.261c.041.079.071.162.09.248l.219.741.8 2.863c.347 1.243.755 2.768 1.175 4.553.42 1.785.949 3.8 1.418 6.064.5 2.254 1.033 4.725 1.529 7.393.54 2.66 1.015 5.521 1.535 8.528a406.65 406.65 0 012.7 19.671c1.55 14 2.35 26.727 2.854 35.939.25 4.607.424 8.336.528 10.914l.109 2.969.017.773a.99.99 0 01-.012.255z" fill="#1C2E5C"/><path d="M368.676 313.068c-.295-3.171-3.5-5.563-6.685-5.6a10.531 10.531 0 00-8.1 4.4 25.347 25.347 0 00-3.9 8.658c-2.144 7.471-3.317 15.32-2.4 23.039.917 7.719 4.049 15.318 9.587 20.771.9.887 2.067 1.774 3.3 1.51a3.973 3.973 0 001.743-1.077 51.561 51.561 0 0016.733-39.206c-.086-2.935-.472-5.99-2.1-8.435-1.628-2.445-5.415-5.043-8.182-4.061M344.895 287.668l-4.486 8.124c-.105.189-.243.4-.458.419-.236.02-.412-.2-.541-.4l-11.859-18.2 2.732-1.548 14.612 11.605z" fill="#FDBC5A"/><path opacity=".2" d="M344.895 287.668l-4.486 8.124c-.105.189-.243.4-.458.419-.236.02-.412-.2-.541-.4l-11.859-18.2 2.732-1.548 14.612 11.605z" fill="#000"/><path d="M368.95 302.307l-40.45-23.872a1.884 1.884 0 01-.984-.993c-.162-.6.288-1.176.719-1.621a27.889 27.889 0 0121.619-8.493 24.695 24.695 0 0119.544 12.155c3.9 6.976 4.033 16.2-.444 22.824" fill="#FDBC5A"/><path d="M334.327 270.816a2.15 2.15 0 01.53-.066c.348-.018.863-.081 1.528-.074 1.881-.025 3.76.124 5.613.446a32.801 32.801 0 0126.184 23.693 30.373 30.373 0 011 5.54c.041.392.061.785.062 1.179a1.982 1.982 0 01-.312.883 6.822 6.822 0 00.062-2.042 34.541 34.541 0 00-1.144-5.466 33.053 33.053 0 00-25.915-23.45 34.402 34.402 0 00-5.554-.594c-1.318-.029-2.052-.006-2.054-.049z" fill="#1C2E5C"/><path d="M363.474 285.831a9.792 9.792 0 01-2.045.929 85.437 85.437 0 01-5.1 1.8 79.988 79.988 0 01-5.207 1.477 9.76 9.76 0 01-2.207.421 11.088 11.088 0 012.115-.751l5.152-1.61 5.136-1.658c.696-.276 1.418-.48 2.156-.608zM357.1 268.719c.562 2.983.639 6.037.229 9.044a28.326 28.326 0 01-.235-4.519 28.483 28.483 0 01.006-4.525zM328.143 277.983a18.205 18.205 0 012.939-1.034 125.16 125.16 0 017.25-1.972c2.85-.688 5.46-1.214 7.355-1.547a18.042 18.042 0 013.087-.417c-.987.323-1.997.574-3.02.753-1.874.418-4.461 1-7.308 1.682-2.847.682-5.412 1.35-7.271 1.831-.992.307-2.006.542-3.032.704z" fill="#1C2E5C"/><path d="M351.886 306.187c-3.479-2.638-7.158-3.158-11.521-2.985a35.239 35.239 0 00-12.61 3.254c-6.821 2.988-13.233 7.391-17.309 13.624-4.076 6.233-5.494 14.484-2.442 21.277.237.71.729 1.307 1.381 1.676a3.294 3.294 0 002.283-.175c7.759-2.531 15.572-5.085 22.706-9.049 7.134-3.964 13.626-9.473 17.454-16.68a14.35 14.35 0 001.838-5.535 6.883 6.883 0 00-1.78-5.407z" fill="#FDBC5A"/><path d="M351.955 305.369a2.903 2.903 0 01-.558.227l-1.626.559-1.177.392c-.427.154-.882.345-1.376.536-.981.4-2.121.794-3.321 1.376l-1.9.867c-.66.3-1.318.679-2.016 1.034-1.406.691-2.829 1.574-4.344 2.468a68.595 68.595 0 00-17.115 15.058c-1.081 1.389-2.137 2.688-3 4-.441.646-.9 1.252-1.282 1.867l-1.1 1.777c-.731 1.116-1.269 2.2-1.788 3.119-.252.465-.5.892-.706 1.295l-.54 1.118-.761 1.541a2.932 2.932 0 01-.3.525 2.76 2.76 0 01.206-.564c.176-.409.4-.933.681-1.583l.5-1.139c.194-.411.431-.846.673-1.319.5-.939 1.018-2.036 1.734-3.169l1.081-1.8c.38-.624.83-1.238 1.267-1.894.855-1.325 1.906-2.641 2.985-4.047a66.428 66.428 0 0117.228-15.165c1.531-.89 2.971-1.765 4.394-2.445.7-.35 1.372-.718 2.04-1.015l1.925-.843c1.215-.565 2.37-.942 3.364-1.316.5-.18.962-.359 1.394-.5l1.2-.354 1.656-.473c.189-.065.384-.11.582-.133zM324.773 320.087a82.078 82.078 0 01-8.463 2.727 81.7 81.7 0 01-8.6 2.261 82.017 82.017 0 018.464-2.727 81.747 81.747 0 018.599-2.261z" fill="#1C2E5C"/><path d="M324.425 338.763a13.621 13.621 0 01-.186-2.637c-.045-1.63-.051-3.884.018-6.371.069-2.487.2-4.739.338-6.364.026-.883.137-1.761.333-2.622.081.878.084 1.762.009 2.641a3642.11 3642.11 0 01-.2 6.358c-.078 2.401-.114 4.571-.159 6.358.027.882-.024 1.764-.153 2.637zM340.424 330.613c-.134.009-.559-4.571-.95-10.228-.391-5.657-.6-10.252-.467-10.261.133-.009.559 4.569.95 10.228.391 5.659.6 10.248.467 10.261z" fill="#1C2E5C"/><path d="M320.509 309.68c.9-.109 1.808-.137 2.713-.082 1.673.011 3.982.06 6.531.145 2.549.085 4.857.187 6.527.286.906.006 1.81.094 2.7.261a14.86 14.86 0 01-2.709.082 263.692 263.692 0 01-6.535-.145c-2.552-.084-4.86-.188-6.53-.287a15.164 15.164 0 01-2.697-.26zM358.911 365.4a2.34 2.34 0 01-.057-.541l-.072-1.556c-.061-1.352-.075-3.31-.023-5.729s.209-5.3.5-8.486c.315-3.185.771-6.678 1.424-10.316.67-3.636 1.474-7.069 2.3-10.165.851-3.091 1.712-5.848 2.524-8.133.812-2.285 1.508-4.121 2.042-5.369l.615-1.436a2.28 2.28 0 01.246-.488 2.33 2.33 0 01-.155.523l-.53 1.467a145.424 145.424 0 00-1.893 5.408 145.105 145.105 0 00-2.417 8.138c-.8 3.092-1.589 6.515-2.257 10.138-.651 3.625-1.118 7.1-1.457 10.275-.314 3.175-.513 6.043-.6 8.454-.087 2.411-.134 4.366-.131 5.716l-.02 1.556c.009.182-.004.365-.039.544z" fill="#1C2E5C"/><path d="M361.045 338.915a11.062 11.062 0 01-1.613 1.771 94.766 94.766 0 01-4.228 3.931 93.242 93.242 0 01-4.452 3.678c-.605.525-1.264.984-1.967 1.368.529-.6 1.115-1.146 1.75-1.633l4.349-3.777 4.313-3.817a12.53 12.53 0 011.848-1.521zM373.85 349.229a19.054 19.054 0 01-1.719-2.38l-4-5.834-4.081-5.777a19.112 19.112 0 01-1.635-2.439 16.323 16.323 0 011.909 2.234 125.328 125.328 0 014.205 5.705 123.072 123.072 0 013.887 5.925c.554.811 1.034 1.67 1.434 2.566zM367.142 316.79c.073.113-4.181 2.977-9.5 6.4-5.319 3.423-9.69 6.1-9.762 5.988-.072-.112 4.18-2.976 9.5-6.4 5.32-3.424 9.69-6.1 9.762-5.988zM379.136 329.735a79.318 79.318 0 01-6.434-5.944 79.114 79.114 0 01-6.1-6.293 158.648 158.648 0 0112.529 12.237h.005z" fill="#1C2E5C"/><path d="M382.152 329.476l3.651-.3a18.059 18.059 0 007.374-2.258 29.432 29.432 0 013.437-1.726c4.514-1.812 9.551-1.488 14.409-1.732a59.67 59.67 0 0022.923-5.861 2.23 2.23 0 001-.907c.75-1.366-.643-2.582-1.842-3.321-6.152-3.791-12.413-7.629-19.389-9.511-6.976-1.882-14.9-1.563-20.848 2.533-6.987 4.808-9.533 14.685-10.714 23.085" fill="#FDBC5A"/><path d="M435.027 316.242a3.555 3.555 0 01-.619-.289l-1.731-.906c-1.5-.789-3.662-1.954-6.392-3.264a59.676 59.676 0 00-9.895-3.813 32.67 32.67 0 00-12.824-1.039 21.928 21.928 0 00-11.691 5.02 26.033 26.033 0 00-6.088 8.551 71.995 71.995 0 00-2.649 6.658l-.65 1.841c-.064.219-.15.431-.255.633.033-.225.087-.447.162-.663.143-.473.33-1.1.564-1.871a60.877 60.877 0 012.517-6.742 25.886 25.886 0 016.1-8.741 22.175 22.175 0 0111.924-5.167 32.648 32.648 0 0113.007 1.089 57.605 57.605 0 019.925 3.936 121.187 121.187 0 016.333 3.407l1.688.986c.203.106.395.232.574.374z" fill="#1C2E5C"/><path d="M426.258 320.953c-.075.111-4.85-2.978-10.665-6.9-5.815-3.922-10.47-7.191-10.395-7.3.075-.109 4.849 2.977 10.666 6.9 5.817 3.923 10.469 7.189 10.394 7.3zM421.164 306.5c-1.12.385-2.292.596-3.476.626a11.744 11.744 0 01-3.546-.047 91.65 91.65 0 017.022-.579zM400.259 303.776a9.27 9.27 0 01-1.566 2.447 10.41 10.41 0 01-1.985 2.255 9.264 9.264 0 011.567-2.447 10.531 10.531 0 011.984-2.255zM404.538 323.766a12.746 12.746 0 01-2.3-1.246 79.451 79.451 0 01-5.236-3.51 148.344 148.344 0 01-5.011-3.816 14.273 14.273 0 01-1.983-1.7c.774.404 1.507.882 2.189 1.426l5.089 3.7a224.125 224.125 0 005.138 3.615c.747.45 1.454.962 2.114 1.531z" fill="#1C2E5C"/><path d="M387.528 344.989c-3.483-.92-7.634 2.468-8.352 6s.606 7.14 2.156 10.392a53.021 53.021 0 0014.4 18.843 35.606 35.606 0 0022.022 8.107c-1.473-6.838.39-13.983-.431-20.93a27.223 27.223 0 00-24.114-23.874c-2.223-.24-4.8-.589-5.683 1.464" fill="#FDBC5A"/><path d="M417.756 388.329a2.264 2.264 0 01-.5-.23 9.154 9.154 0 01-1.3-.875 13.57 13.57 0 01-3.438-4.6c-.556-1.078-1.176-2.249-1.783-3.545l-1.873-4.142c-.674-1.522-1.442-3-2.3-4.427a34.678 34.678 0 00-3.169-4.309c-2.384-2.8-4.942-5.224-7.16-7.539a49.212 49.212 0 01-5.46-6.55 24.101 24.101 0 01-2.668-5.1c-.224-.642-.385-1.144-.465-1.494a2.369 2.369 0 01-.11-.534c.045-.013.243.711.751 1.96a26.328 26.328 0 002.775 4.97 52.043 52.043 0 005.5 6.433c2.228 2.29 4.8 4.707 7.21 7.536a34.185 34.185 0 013.2 4.376 39.395 39.395 0 012.3 4.49l1.831 4.158c.585 1.29 1.189 2.473 1.722 3.556a14.087 14.087 0 003.256 4.612c1.025.882 1.71 1.208 1.681 1.254z" fill="#1C2E5C"/><path d="M399.746 382.646a10.42 10.42 0 01.32-2.344c.272-1.434.72-3.4 1.323-5.548a67.38 67.38 0 011.767-5.425c.234-.755.554-1.482.951-2.166-.136.777-.346 1.54-.626 2.278a211.002 211.002 0 00-1.625 5.444 204.92 204.92 0 00-1.456 5.491 12.51 12.51 0 01-.654 2.27zM417.1 365.86a14.428 14.428 0 01-2.454-.564c-1.5-.393-3.573-.929-5.878-1.449s-4.409-.922-5.932-1.211a14.45 14.45 0 01-2.459-.542c.842-.023 1.685.044 2.513.2 1.542.2 3.666.556 5.985 1.077a68.819 68.819 0 015.867 1.592c.816.215 1.606.515 2.358.897zM386.822 370.737c.039-.914.165-1.823.377-2.713a93.523 93.523 0 011.445-6.446 92.147 92.147 0 011.89-6.33c.251-.88.586-1.735 1-2.551-.15.902-.374 1.789-.67 2.653-.461 1.623-1.1 3.863-1.748 6.351-.648 2.488-1.187 4.753-1.579 6.394a16.524 16.524 0 01-.715 2.642zM409.106 351.231c-.014.133-4.362-.219-9.71-.786-5.348-.567-9.674-1.135-9.66-1.268.014-.133 4.361.219 9.711.786 5.35.567 9.673 1.137 9.659 1.268z" fill="#1C2E5C"/><path d="M405.921 403.956c0 .134-15.284.243-34.133.243-18.849 0-34.136-.109-34.136-.243s15.281-.242 34.136-.242c18.855 0 34.133.109 34.133.242zM395.287 423.624c0 .134-10.3.243-23 .243s-23-.109-23-.243 10.3-.242 23-.242 23 .109 23 .242zM394.888 426.436c0 .134-10.119.243-22.6.243-12.481 0-22.6-.109-22.6-.243s10.116-.242 22.6-.242c12.484 0 22.6.106 22.6.242zM395.689 421.306c0 .134-10.652.243-23.788.243-13.136 0-23.79-.109-23.79-.243s10.649-.242 23.79-.242 23.788.109 23.788.242z" fill="#455A64"/><path d="M259.015 20.2c-8.925-1.989-20.371 4.2-23.456 12.543-3.085 8.343.263 18.66 6.979 24.488-5.24 6.739-5.459 16.765-1.03 24.064 4.429 7.299 13.016 11.682 21.553 11.63a30.329 30.329 0 0022.372-10.783 21.872 21.872 0 0031.171-23.6c10.117-3.692 15.676-16.622 11.395-26.5-4.281-9.878-17.515-14.67-27.128-9.815.208-10.771-9.185-20.822-19.946-21.342-10.761-.52-21.079 8.58-21.91 19.321.663-.108-.664.107 0 0" fill="#FAFAFA"/><path d="M259.015 20.2a1.367 1.367 0 01-.159.036H258.828c-.012-.045 0-.013 0-.023h.013l.054-.01.133-.024.166-.03c0 .077-.112.041-.173.07l-.03.013.005-.037c.158-2.146.677-4.25 1.537-6.224a22.198 22.198 0 013.057-5.032 22.661 22.661 0 015.632-4.989 20.614 20.614 0 018.5-3.077l1.236-.139 1.266-.01a19.22 19.22 0 012.59.183c1.799.281 3.551.806 5.209 1.56.439.174.863.382 1.27.621.414.234.84.454 1.252.7a25.394 25.394 0 014.587 3.76c.697.76 1.346 1.561 1.945 2.4a20.758 20.758 0 014.012 12.272l-.307-.192A19.963 19.963 0 01315 20.915a20.615 20.615 0 0112.312 9.22 19.383 19.383 0 011.127 16.23 21.888 21.888 0 01-4.444 7.423 18.838 18.838 0 01-7.3 4.99l.165-.288a22.284 22.284 0 01-1.45 12.585 21.873 21.873 0 01-8.335 10.05 22.732 22.732 0 01-21.753 1.246l.31-.064a31.21 31.21 0 01-18.27 10.482 26.3 26.3 0 01-19.265-4.265 23.642 23.642 0 01-6.6-6.835 21.832 21.832 0 01-3.086-8.55 22.595 22.595 0 01.425-8.649 20.35 20.35 0 013.548-7.384l.026.273a24.445 24.445 0 01-6.773-10.106 23.112 23.112 0 01-1.257-5.505 20.116 20.116 0 01.093-5.308 16.516 16.516 0 013.87-8.62 22.91 22.91 0 016.209-5.052 24.853 24.853 0 015.946-2.387 20.5 20.5 0 014.664-.617c.967-.02 1.934.056 2.886.225.644.115.97.19.97.19s-.335-.036-.979-.13c-.951-.144-1.913-.2-2.875-.169a20.803 20.803 0 00-4.623.667 24.843 24.843 0 00-5.879 2.416 22.77 22.77 0 00-6.11 5.032 16.251 16.251 0 00-3.764 8.491 19.828 19.828 0 00-.07 5.225 22.775 22.775 0 001.258 5.42 24.105 24.105 0 006.7 9.927l.14.123-.114.15a19.943 19.943 0 00-3.454 7.241 22.176 22.176 0 00-.4 8.483 21.399 21.399 0 003.039 8.371 23.178 23.178 0 006.48 6.688 25.825 25.825 0 0018.914 4.162 30.731 30.731 0 0017.96-10.324l.131-.15.179.087a22.226 22.226 0 0021.246-1.225 21.373 21.373 0 008.136-9.809 21.778 21.778 0 001.423-12.292l-.04-.212.2-.076a19.915 19.915 0 0011.449-12.1 18.9 18.9 0 00-1.072-15.82 20.16 20.16 0 00-12.02-9.023 19.533 19.533 0 00-13.906 1.055l-.31.154v-.347a20.37 20.37 0 00-3.9-12.038 20.622 20.622 0 00-4.077-4.379 23.8 23.8 0 00-2.329-1.7c-.4-.246-.823-.464-1.229-.695a8.968 8.968 0 00-1.247-.617 19.834 19.834 0 00-5.114-1.553 19.218 19.218 0 00-2.544-.19h-1.245l-1.216.131a20.397 20.397 0 00-8.4 2.993 22.524 22.524 0 00-5.607 4.9 22.335 22.335 0 00-3.076 4.962 20.416 20.416 0 00-1.637 6.165l-.025-.022c.067.007.16-.063.186.01l-.167.025-.133.02-.055.006h-.013c0-.01 0 .024-.005-.023H258.853a1.57 1.57 0 01.162-.009z" fill="#1C2E5C"/><path d="M275.809 64.321a11.094 11.094 0 006.858 1.377 10.719 10.719 0 007.12-4.43 10.062 10.062 0 001.863-7.659 9.93 9.93 0 00-4.527-6.458 10.786 10.786 0 00-6.275-1.7l.184-9.029a1.598 1.598 0 00-2.708-1.186 1.6 1.6 0 00-.492 1.122l-.223 10.914a1.603 1.603 0 002 1.58 7.395 7.395 0 015.795 1 6.723 6.723 0 013.1 4.345 6.869 6.869 0 01-1.314 5.2 7.499 7.499 0 01-4.964 3.133c-3.8.526-7.98-2.29-9.124-6.147a1.603 1.603 0 00-2.01-1.16 1.6 1.6 0 00-1.054 2.068 12.12 12.12 0 005.771 7.03zM281.636 29.864a1.789 1.789 0 00-1.029-1.705 1.794 1.794 0 101.029 1.705z" fill="#FDBC5A"/><path d="M222.244 70.223a8.813 8.813 0 00-9.793 7.69 8.81 8.81 0 0014.169 8.004 8.812 8.812 0 00-4.327-15.688" fill="#FAFAFA"/><path d="M222.293 70.229a5.987 5.987 0 012.1.454 9.376 9.376 0 015.8 7.6 8.07 8.07 0 01-.932 4.591 8.74 8.74 0 01-1.5 2.071 9.158 9.158 0 01-2.086 1.659 8.34 8.34 0 01-10.4-1.186 9.228 9.228 0 01-1.659-2.088 8.746 8.746 0 01-1-2.356 8.063 8.063 0 01.127-4.683 9.077 9.077 0 012.178-3.452 9.18 9.18 0 015.181-2.65 5.99 5.99 0 012.147.03c-.707.015-1.413.072-2.114.17a9.24 9.24 0 00-4.951 2.708 8.787 8.787 0 00-2.031 3.33 7.665 7.665 0 00-.073 4.422c.208.785.531 1.535.958 2.226a8.716 8.716 0 001.584 1.973 7.868 7.868 0 009.793 1.117A8.732 8.732 0 00227.4 84.6a8.261 8.261 0 001.435-1.953 7.67 7.67 0 00.925-4.324 8.79 8.79 0 00-1.228-3.7 9.242 9.242 0 00-4.214-3.755 18.05 18.05 0 00-2.025-.639z" fill="#1C2E5C"/><path d="M205.219 89.244a3.853 3.853 0 10.022 0" fill="#FAFAFA"/><path d="M205.241 89.247c.316-.038.637.011.927.142a4.077 4.077 0 012.6 3.322 3.585 3.585 0 01-.4 2.055 3.955 3.955 0 01-7.431-.848 3.602 3.602 0 01.07-2.094 4 4 0 01.981-1.523 3.951 3.951 0 012.3-1.127c.312-.062.636-.038.935.07 0 .048-.336.012-.9.13a4.01 4.01 0 00-2.07 1.184 3.343 3.343 0 00-.85 3.235 3.494 3.494 0 006.543.747 3.342 3.342 0 00-.1-3.343 4.008 4.008 0 00-1.75-1.62c-.53-.243-.862-.283-.855-.33z" fill="#1C2E5C"/></svg>