<svg width="462" height="320" viewBox="0 0 462 454" fill="none" xmlns="http://www.w3.org/2000/svg"><path d="M97.761 148.661a19.083 19.083 0 014.662-2.026l.96-4.615 7.8-.137 1.123 4.578a19.083 19.083 0 014.731 1.861l3.94-2.583 5.611 5.417-2.443 4.028a19.084 19.084 0 012.026 4.664l4.615.96.137 7.8-4.578 1.122a19.122 19.122 0 01-1.861 4.731l2.582 3.941-5.416 5.61-4.029-2.442a19.115 19.115 0 01-4.663 2.026l-.96 4.615-7.8.136-1.123-4.578a19.129 19.129 0 01-4.73-1.861l-3.941 2.583-5.61-5.417 2.442-4.028a19.077 19.077 0 01-2.026-4.663l-4.615-.961-.137-7.8 4.579-1.122a19.099 19.099 0 011.861-4.731l-2.583-3.941 5.416-5.61 4.03 2.443zm4.156 10.387a8.368 8.368 0 006.166 14.176 8.375 8.375 0 007.637-5.3 8.372 8.372 0 00-7.932-11.43 8.366 8.366 0 00-5.871 2.554z" fill="#E0E0E0"/><path d="M101.917 159.048c.44-.538.967-1 1.558-1.367a8.338 8.338 0 015.457-1.29 8.437 8.437 0 013.71 1.317 8.582 8.582 0 013 3.38 8.577 8.577 0 01.808 4.924 8.537 8.537 0 01-7.061 7.315 8.55 8.55 0 01-8.433-3.514 8.41 8.41 0 01-1.447-3.661 8.32 8.32 0 011.1-5.5 6.315 6.315 0 011.311-1.6c.045.038-.5.549-1.15 1.7a8.344 8.344 0 00-.924 5.356 8.18 8.18 0 004.775 6.188 8.181 8.181 0 004.691.575 8.106 8.106 0 006.675-6.915 8.174 8.174 0 00-7.091-9.222 8.34 8.34 0 00-5.32 1.113c-1.128.677-1.619 1.245-1.659 1.201z" fill="#E0E0E0"/><path d="M97.76 148.661a1.706 1.706 0 01-.26-.137l-.772-.447-3.037-1.793.1-.013-5.384 5.642.015-.151 2.6 3.93.047.071-.04.075a19.037 19.037 0 00-1.832 4.7l-.023.093-.093.023-4.575 1.135.13-.168c.05 2.454.1 5.06.155 7.8l-.15-.182 4.616.952.118.024.033.116a19.006 19.006 0 002.012 4.61l.065.107-.065.107-2.437 4.032-.034-.264 5.617 5.409-.278-.026 3.94-2.587.114-.075.121.067a18.998 18.998 0 004.675 1.835l.136.033.034.137 1.125 4.577-.233-.179 7.8-.14-.228.19c.3-1.458.629-3.031.959-4.615l.029-.142.14-.04a18.869 18.869 0 004.6-2l.126-.074.122.075 4.029 2.443-.3.038 5.417-5.609-.027.3a1760.83 1760.83 0 00-2.581-3.942l-.079-.119.07-.125a18.836 18.836 0 001.841-4.671l.034-.137.137-.033 4.578-1.119-.174.226-.129-7.8.176.212-4.614-.966-.127-.027-.035-.125a18.943 18.943 0 00-2-4.614l-.065-.108.065-.107 2.449-4.024.032.246-5.6-5.428.228.022-3.947 2.573-.088.057-.09-.051a19.043 19.043 0 00-4.685-1.858l-.093-.023-.022-.093c-.4-1.665-.765-3.164-1.107-4.581l.14.108-7.8.1.1-.085-.989 4.608-.01.047-.045.012c-1.23.341-2.424.8-3.565 1.372l-.839.438c-.089.055-.183.103-.28.142.083-.065.17-.124.26-.177.18-.11.45-.274.822-.474a18.435 18.435 0 013.56-1.449l-.054.058.93-4.621.017-.084h.087l7.8-.171h.113l.027.11 1.138 4.574-.115-.115a19.195 19.195 0 014.776 1.864l-.178.006 3.935-2.592.122-.081.106.1 5.621 5.4.115.111-.083.136-2.436 4.033v-.215a19.313 19.313 0 012.055 4.712l-.163-.152 4.616.955.172.036v.176c.048 2.533.097 5.133.145 7.8v.182l-.178.044-4.577 1.126.17-.17a19.317 19.317 0 01-1.881 4.789l-.009-.243 2.585 3.94.1.158-.132.137-5.415 5.612-.133.137-.163-.1-4.029-2.442h.248a19.33 19.33 0 01-4.717 2.049l.168-.181-.961 4.614-.039.187h-.19l-7.8.133H104l-.045-.183-1.119-4.579.17.17a19.394 19.394 0 01-4.786-1.887l.236-.009-3.944 2.58-.149.1-.128-.124-5.6-5.424-.123-.119.09-.146 2.447-4.024v.214a19.359 19.359 0 01-2.04-4.716l.151.139-4.613-.969-.148-.031v-.151c-.04-2.735-.08-5.341-.119-7.8v-.137l.133-.032L89 160.347l-.115.115a19.25 19.25 0 011.891-4.761v.145l-2.567-3.951-.053-.082.067-.069 5.45-5.579.042-.044.052.032L96.74 148l.763.485c.09.053.176.112.258.176z" fill="#E0E0E0"/><path d="M326.672 204.011a11.502 11.502 0 012.791-1.213l.575-2.762 4.668-.082.671 2.74c.989.243 1.942.618 2.832 1.114l2.359-1.546 3.359 3.243-1.463 2.411c.527.872.935 1.811 1.213 2.792l2.763.575.082 4.667-2.741.672a11.407 11.407 0 01-1.114 2.831l1.546 2.36-3.242 3.358-2.412-1.462c-.872.527-1.811.935-2.791 1.213l-.575 2.762-4.667.082-.672-2.741a11.414 11.414 0 01-2.832-1.114l-2.359 1.547-3.358-3.243 1.462-2.411a11.415 11.415 0 01-1.213-2.792l-2.762-.575-.082-4.667 2.74-.672c.244-.989.619-1.942 1.114-2.832l-1.546-2.359 3.242-3.358 2.412 1.462zm2.488 6.218a5.007 5.007 0 107.205 6.955 5.007 5.007 0 00-7.205-6.955z" fill="#F5F5F5"/><path d="M329.16 210.229c.264-.322.58-.599.933-.818a4.983 4.983 0 013.267-.773 5.036 5.036 0 012.22.789 5.114 5.114 0 012.284 4.97 5.107 5.107 0 01-4.228 4.379 4.771 4.771 0 01-1.541.026 4.858 4.858 0 01-1.421-.4 5.075 5.075 0 01-2.952-3.916 4.998 4.998 0 01.657-3.292c.208-.361.473-.685.785-.96.027.023-.3.329-.688 1.016a4.998 4.998 0 00-.553 3.206 4.894 4.894 0 005.666 4.044 4.848 4.848 0 004-4.139 4.885 4.885 0 00-1.996-4.64 4.884 4.884 0 00-2.247-.88 4.988 4.988 0 00-3.184.666c-.684.408-.978.748-1.002.722z" fill="#F5F5F5"/><path d="M326.672 204.011a.998.998 0 01-.155-.082l-.463-.267-1.817-1.074.056-.007-3.223 3.377.009-.091 1.556 2.353.028.042-.025.045c-.49.885-.86 1.831-1.1 2.814l-.014.055-.055.014-2.739.679.078-.1.093 4.667-.09-.108 2.763.569.07.015.02.069c.276.969.679 1.897 1.2 2.759l.039.064-.039.065-1.459 2.413-.02-.158 3.362 3.238-.166-.015 2.357-1.549.069-.045.072.04c.88.489 1.822.859 2.8 1.1l.082.02.02.082.673 2.74-.139-.107 4.667-.084-.137.114.575-2.763.017-.085.084-.023a11.319 11.319 0 002.754-1.2l.075-.045.074.045 2.411 1.462-.177.023 3.243-3.357-.017.176-1.545-2.359-.047-.072.042-.074c.49-.88.86-1.822 1.1-2.8l.021-.081.081-.02 2.741-.67-.1.135c-.027-1.593-.053-3.149-.077-4.667l.1.127-2.762-.578-.076-.016-.021-.075a11.319 11.319 0 00-1.2-2.762l-.039-.065.039-.064 1.466-2.409.02.148-3.352-3.25.137.013-2.363 1.54-.053.035-.054-.031a11.38 11.38 0 00-2.8-1.112l-.056-.014-.013-.055-.663-2.743.084.065-4.668.061.062-.051-.592 2.759-.006.027-.027.008c-.736.204-1.451.479-2.134.821l-.5.262c-.054.033-.11.061-.168.085.05-.038.102-.073.156-.106.107-.065.268-.164.492-.283a10.992 10.992 0 012.131-.868l-.033.035.557-2.766.01-.05h.052l4.667-.1h.068l.016.066.681 2.738-.069-.069c.998.243 1.96.618 2.859 1.115h-.106l2.355-1.552.073-.048.064.061 3.364 3.236.069.066-.049.082-1.458 2.413v-.128c.533.881.947 1.83 1.23 2.82l-.1-.09 2.763.571.1.022v.1l.086 4.667v.11l-.106.026-2.74.674.1-.1a11.543 11.543 0 01-1.126 2.867l-.005-.146 1.547 2.359.062.094-.079.082-3.241 3.36-.079.082-.1-.06-2.412-1.461h.146c-.883.532-1.832.945-2.824 1.226l.1-.108c-.2.948-.394 1.89-.575 2.762l-.024.112h-.114l-4.667.08h-.112l-.027-.109-.67-2.741.1.1a11.555 11.555 0 01-2.865-1.13l.141-.005-2.361 1.544-.089.059-.077-.074-3.354-3.247-.074-.071.053-.087 1.466-2.409v.128a11.575 11.575 0 01-1.221-2.823l.09.083-2.761-.58-.089-.019v-.09l-.071-4.667v-.082l.079-.019 2.743-.665-.069.069c.249-.996.63-1.955 1.132-2.85v.087l-1.537-2.365-.032-.049.041-.041 3.261-3.34.026-.026.031.019 1.777 1.105.456.29c.064.034.125.073.183.116zM363.319 32.647a14.693 14.693 0 013.594-1.561l.74-3.557 6.009-.106.865 3.529c1.274.313 2.5.796 3.646 1.434l3.037-1.986 4.323 4.175-1.882 3.1a14.73 14.73 0 011.561 3.594l3.557.74.1 6.009-3.528.865a14.72 14.72 0 01-1.434 3.646l1.99 3.037-4.174 4.324-3.105-1.883a14.734 14.734 0 01-3.594 1.562l-.74 3.556-6.009.106-.865-3.528a14.76 14.76 0 01-3.645-1.435l-3.037 1.99-4.324-4.174 1.882-3.1a14.736 14.736 0 01-1.561-3.594l-3.557-.74-.105-6.01 3.528-.864c.314-1.274.796-2.5 1.434-3.646l-1.99-3.037 4.174-4.324 3.105 1.883.005-.005zm3.2 8.005a6.446 6.446 0 004.751 10.924 6.445 6.445 0 006.187-7.815 6.446 6.446 0 00-10.934-3.11h-.004z" fill="#F5F5F5"/><path d="M366.523 40.652c.34-.415.745-.77 1.2-1.053a6.416 6.416 0 014.206-1c1.02.109 2 .457 2.859 1.016a6.594 6.594 0 012.312 2.6 6.612 6.612 0 01.622 3.795 6.573 6.573 0 01-5.442 5.637 6.6 6.6 0 01-6.499-2.708 6.5 6.5 0 01-1.115-2.821 6.423 6.423 0 01.846-4.238 4.87 4.87 0 011.011-1.237c-.317.421-.612.858-.886 1.308a6.424 6.424 0 00-.713 4.127 6.3 6.3 0 007.295 5.212 6.247 6.247 0 005.144-5.329 6.295 6.295 0 00-5.469-7.11 6.427 6.427 0 00-4.1.857c-.862.54-1.241.978-1.271.944z" fill="#F5F5F5"/><path d="M363.319 32.647a1.337 1.337 0 01-.2-.106l-.6-.344-2.34-1.382.073-.01a8116.917 8116.917 0 01-4.149 4.348l.011-.116c.607.918 1.282 1.937 2 3.029l.036.054-.032.058a14.688 14.688 0 00-1.411 3.622l-.017.07-.072.019-3.526.875.1-.13.12 6.008-.116-.14 3.558.734.09.018.026.089a14.597 14.597 0 001.551 3.553l.05.083-.05.083-1.878 3.107-.027-.2 4.329 4.169-.214-.02 3.035-1.994.089-.058.093.052a14.662 14.662 0 003.6 1.414l.1.025.026.106.867 3.528-.179-.138 6.009-.108-.176.146.739-3.557.023-.11.107-.03a14.557 14.557 0 003.545-1.54l.1-.057.1.057 3.105 1.883-.229.03 4.175-4.323-.021.227c-.667-1.022-1.33-2.035-1.989-3.037l-.06-.092.053-.1a14.57 14.57 0 001.419-3.6l.026-.106.106-.025 3.528-.863-.134.174-.1-6.008.135.163-3.555-.745-.1-.02-.027-.1a14.6 14.6 0 00-1.539-3.556l-.05-.083.05-.082 1.888-3.1.024.19-4.303-4.181.176.017-3.041 1.983-.068.044-.07-.04a14.698 14.698 0 00-3.61-1.432l-.072-.018-.017-.071-.853-3.53.108.083-6.01.079.08-.066-.763 3.55-.008.037-.034.01c-.948.263-1.868.617-2.748 1.057l-.646.337c-.069.043-.141.08-.216.11.064-.05.13-.095.2-.136.137-.085.345-.212.633-.365a14.22 14.22 0 012.743-1.118l-.042.045c.2-.972.431-2.14.718-3.561l.012-.064h.067l6.009-.132h.087l.021.086.877 3.525-.089-.09c1.286.313 2.524.796 3.681 1.437l-.137.005 3.032-2 .094-.062.082.079 4.332 4.165.088.085-.063.106-1.877 3.107v-.165a14.914 14.914 0 011.584 3.63l-.126-.116 3.557.736.133.027v.137l.111 6.008v.14l-.137.034-3.527.868.131-.131a14.937 14.937 0 01-1.45 3.69l-.007-.186 1.992 3.036.08.122-.1.105-4.173 4.325-.1.106-.126-.076-3.1-1.882h.188a14.883 14.883 0 01-3.635 1.579l.13-.14-.741 3.557-.03.144h-.147l-6.009.1h-.144l-.035-.14c-.3-1.218-.592-2.424-.862-3.53l.131.132a14.932 14.932 0 01-3.689-1.454l.182-.007-3.041 1.989-.115.075-.1-.095-4.312-4.18-.1-.092.068-.112 1.887-3.1v.165a14.912 14.912 0 01-1.572-3.634l.116.107-3.555-.747-.114-.024v-.116l-.092-6.01v-.104l.1-.025 3.53-.855-.089.089a14.875 14.875 0 011.458-3.67v.113c-.713-1.1-1.379-2.123-1.979-3.045l-.041-.064.052-.053c1.71-1.751 3.124-3.2 4.2-4.3l.033-.035.04.025 2.287 1.423.588.374c.07.04.138.087.202.137zM265.225 59.281a11.484 11.484 0 012.791-1.213l.574-2.762 4.668-.082.672 2.74c.99.244 1.942.618 2.832 1.114l2.359-1.546 3.358 3.243-1.462 2.411c.527.873.935 1.812 1.213 2.792l2.762.575.082 4.667-2.741.672a11.41 11.41 0 01-1.114 2.832l1.546 2.36-3.242 3.357-2.411-1.462c-.872.527-1.811.934-2.792 1.212l-.575 2.763-4.667.082-.672-2.74a11.441 11.441 0 01-2.832-1.115l-2.359 1.546-3.358-3.242 1.462-2.41a11.47 11.47 0 01-1.213-2.793l-2.762-.575-.082-4.667 2.74-.672c.244-.99.619-1.942 1.115-2.832l-1.547-2.359 3.243-3.358 2.412 1.462zm2.488 6.218a5.012 5.012 0 00-.988 5.475 5.007 5.007 0 10.988-5.474z" fill="#F5F5F5"/><path d="M267.713 65.5c.264-.322.579-.599.932-.818a4.982 4.982 0 013.267-.773 5.06 5.06 0 012.221.789c.77.5 1.392 1.2 1.8 2.023.45.913.619 1.939.484 2.948a5.104 5.104 0 01-4.227 4.378c-.509.092-1.03.1-1.542.027a5.125 5.125 0 01-3.506-2.13 5.047 5.047 0 01-.867-2.192 4.992 4.992 0 01.658-3.292c.207-.361.473-.685.785-.96.027.023-.3.329-.688 1.016a4.999 4.999 0 00-.554 3.206 4.898 4.898 0 002.859 3.7c.881.389 1.858.509 2.807.344a4.855 4.855 0 004-4.14 4.891 4.891 0 00-4.242-5.52 4.991 4.991 0 00-3.185.667c-.346.225-.68.468-1.002.727z" fill="#F5F5F5"/><path d="M265.225 59.281a1.019 1.019 0 01-.156-.082l-.463-.267-1.817-1.074.057-.007c-.826.865-1.911 2-3.223 3.377l.008-.09c.472.712 1 1.5 1.556 2.352l.028.042-.025.045a11.473 11.473 0 00-1.1 2.814l-.013.055-.056.014-2.739.68.078-.1.093 4.666-.09-.108 2.763.57.071.014.019.07c.277.968.68 1.895 1.2 2.758l.039.064-.039.065-1.459 2.413-.02-.158 3.362 3.238-.166-.015 2.358-1.549.069-.045.072.04c.881.49 1.822.859 2.8 1.1l.082.02.02.081.674 2.74-.14-.107 4.668-.084-.137.114.574-2.762.018-.086.083-.023c.967-.276 1.894-.68 2.754-1.2l.075-.045.074.045 2.411 1.462-.177.023 3.243-3.357-.017.176-1.537-2.36-.047-.072.041-.074c.49-.88.86-1.822 1.1-2.8l.021-.082.082-.02 2.74-.67-.1.135-.077-4.667.105.127-2.765-.577-.076-.016-.021-.075a11.359 11.359 0 00-1.195-2.762l-.039-.065.039-.064 1.466-2.409.019.148-3.352-3.25.137.013-2.363 1.541-.052.034-.054-.03a11.372 11.372 0 00-2.8-1.113l-.056-.014-.013-.055-.663-2.743.084.065-4.667.061.061-.05-.592 2.758-.006.027-.027.008c-.736.204-1.451.479-2.134.821l-.5.262a1.17 1.17 0 01-.167.085 1.77 1.77 0 01.155-.106c.107-.065.269-.164.492-.283.676-.36 1.388-.65 2.124-.864l-.032.035.556-2.766.011-.05h.051l4.667-.1h.068l.016.066.681 2.738-.069-.069c.999.243 1.961.618 2.86 1.115h-.107l2.355-1.552.073-.048.064.061 3.365 3.236.068.066-.049.082-1.458 2.414v-.129c.535.881.948 1.83 1.23 2.821l-.1-.09 2.763.57.1.022v.105l.087 4.667v.11l-.106.026-2.74.674.1-.1a11.51 11.51 0 01-1.126 2.867l-.005-.146L282.884 77l.063.094-.079.082-3.242 3.36-.079.082-.1-.06-2.412-1.46h.146c-.882.531-1.832.944-2.824 1.225l.1-.108c-.2.948-.393 1.89-.575 2.762l-.023.112h-.114l-4.668.08h-.112l-.027-.109-.67-2.74.1.1a11.602 11.602 0 01-2.865-1.13l.141-.006-2.36 1.544-.09.06-.076-.075-3.355-3.247-.073-.07.053-.088L261.208 75v.128c-.53-.883-.94-1.832-1.221-2.823l.09.083-2.761-.58-.089-.019v-.09l-.071-4.667v-.082l.08-.019 2.742-.665-.069.07c.249-.996.63-1.955 1.132-2.85v.087l-1.537-2.366-.031-.049.04-.04 3.262-3.34.026-.027.03.02 1.777 1.104.457.29c.056.036.109.075.16.117zM51.336 141.6c.872-.527 1.81-.934 2.791-1.212l.575-2.763 4.667-.082.672 2.74c.99.244 1.942.619 2.832 1.115l2.359-1.547 3.358 3.249-1.462 2.411c.527.873.935 1.811 1.213 2.792l2.762.575.082 4.667-2.74.672a11.44 11.44 0 01-1.115 2.832l1.546 2.359-3.242 3.358-2.411-1.466c-.873.527-1.812.935-2.792 1.213l-.575 2.762-4.667.082-.672-2.74a11.452 11.452 0 01-2.832-1.115l-2.358 1.547-3.359-3.243 1.462-2.406a11.426 11.426 0 01-1.213-2.792l-2.762-.574-.082-4.668 2.741-.672c.243-.989.618-1.941 1.114-2.831l-1.546-2.363 3.242-3.359 2.412 1.462v-.003zm2.488 6.218a5.01 5.01 0 003.68 8.492 5.015 5.015 0 004.576-3.17 5.008 5.008 0 00-8.256-5.32v-.002z" fill="#F5F5F5"/><path d="M53.824 147.82c.264-.322.579-.598.932-.818a4.988 4.988 0 013.267-.772 5.053 5.053 0 012.221.788 5.13 5.13 0 01.889 7.858 5.137 5.137 0 01-5.8 1.112 5.129 5.129 0 01-2.085-1.724 5.057 5.057 0 01-.209-5.483 3.79 3.79 0 01.785-.961c.027.023-.3.329-.688 1.016a5 5 0 00-.554 3.206 4.894 4.894 0 005.667 4.044 4.856 4.856 0 004-4.139 4.9 4.9 0 00-1.995-4.64 4.895 4.895 0 00-2.247-.88 4.988 4.988 0 00-3.185.666c-.68.414-.974.754-.998.727z" fill="#F5F5F5"/><path d="M51.337 141.6a1.008 1.008 0 01-.157-.082l-.462-.267-1.818-1.072.058-.007-3.224 3.377.008-.09 1.556 2.352.029.043-.026.045c-.489.885-.859 1.831-1.1 2.813l-.013.055-.056.014-2.738.68.078-.1.093 4.666-.09-.108 2.762.569.072.015.019.069c.277.969.683 1.897 1.204 2.76l.04.064-.04.064-1.457 2.414-.022-.159 3.363 3.239-.166-.016 2.358-1.549.069-.045.072.04c.88.489 1.822.859 2.8 1.1l.081.02.02.082.675 2.74-.14-.107 4.667-.084-.136.113.573-2.762.018-.085.084-.024c.967-.276 1.893-.68 2.754-1.2l.075-.044.074.044 2.412 1.463-.178.023 3.242-3.358-.016.177-1.544-2.36-.047-.071.04-.075c.49-.88.86-1.822 1.1-2.8l.02-.082.083-.02 2.74-.67-.1.135-.078-4.667.1.127-2.76-.578-.078-.016-.02-.075a11.37 11.37 0 00-1.195-2.762l-.04-.065.04-.064c.501-.826.99-1.629 1.466-2.409l.019.148-3.353-3.249.137.013-2.363 1.54-.051.034-.054-.03a11.383 11.383 0 00-2.806-1.113l-.054-.014-.015-.055c-.24-1-.458-1.894-.662-2.743l.083.065-4.666.061.062-.051-.594 2.759-.006.028-.026.007c-.737.204-1.451.479-2.134.821l-.5.262a1.053 1.053 0 01-.167.085c.049-.038.1-.073.154-.105a8.65 8.65 0 01.492-.284 11.002 11.002 0 012.132-.868l-.032.035.556-2.766.01-.05h.057l4.666-.1h.069l.017.066.68 2.738-.07-.069c1 .243 1.961.618 2.86 1.116h-.106l2.355-1.552.073-.049.064.062 3.364 3.235.069.066-.05.082-1.457 2.414v-.129c.534.881.947 1.83 1.23 2.821l-.1-.091 2.762.571.1.022v.106l.088 4.667v.109l-.106.026-2.74.674.1-.1a11.548 11.548 0 01-1.126 2.867l-.005-.145 1.547 2.358.063.1-.08.082-3.242 3.359-.078.082-.1-.059-2.412-1.462h.146c-.883.532-1.833.945-2.825 1.227l.1-.109c-.2.948-.393 1.89-.575 2.762l-.023.112h-.114l-4.669.08h-.111l-.028-.109c-.23-.946-.46-1.883-.67-2.741l.1.1c-1-.248-1.964-.627-2.864-1.129h.14l-2.341 1.54-.09.059-.077-.074-3.355-3.245-.072-.071.052-.087 1.465-2.409v.128c-.53-.883-.94-1.832-1.22-2.823l.09.083-2.762-.58-.089-.019v-.09c-.025-1.637-.049-3.2-.07-4.667v-.082l.08-.019 2.741-.664-.069.069a11.53 11.53 0 011.133-2.85v.087l-1.537-2.365-.032-.05.04-.041 3.263-3.34.025-.026.03.019 1.777 1.106.458.29c.053.031.105.065.154.101z" fill="#F5F5F5"/><path d="M73.158 214.229A36.267 36.267 0 0182 210.385l1.821-8.753 14.79-.259 2.128 8.683a36.16 36.16 0 018.974 3.53l7.474-4.9 10.641 10.275-4.628 7.639a36.25 36.25 0 013.843 8.845l8.752 1.822.26 14.789-8.683 2.129a36.255 36.255 0 01-3.53 8.972l4.9 7.476-10.273 10.641-7.641-4.633a36.233 36.233 0 01-8.845 3.843l-1.822 8.753-14.789.26-2.129-8.684a36.216 36.216 0 01-8.973-3.531l-7.474 4.9L56.15 271.91l4.633-7.641a36.195 36.195 0 01-3.843-8.845l-8.753-1.824-.26-14.789 8.684-2.129a36.273 36.273 0 013.53-8.973l-4.9-7.474L65.515 209.6l7.643 4.634v-.005zm7.884 19.7a15.868 15.868 0 1022.833 22.038 15.868 15.868 0 00-22.833-22.036v-.002z" stroke="#E0E0E0" stroke-width=".05" stroke-miterlimit="10"/><path d="M81.042 233.931A12.006 12.006 0 0184 231.338a15.8 15.8 0 0110.352-2.448c2.51.267 4.92 1.123 7.036 2.5a16.226 16.226 0 015.69 6.41 16.267 16.267 0 011.532 9.339 16.19 16.19 0 01-13.394 13.875c-3.179.54-6.447.122-9.388-1.2a16.247 16.247 0 01-6.607-5.461 15.99 15.99 0 01-2.745-6.944c-.533-3.613.204-7.3 2.083-10.431a11.975 11.975 0 012.487-3.043c.086.072-.958 1.041-2.18 3.219a15.824 15.824 0 00-1.755 10.158 15.508 15.508 0 0017.959 12.827 15.374 15.374 0 0012.661-13.115 15.52 15.52 0 00-1.4-8.852 15.499 15.499 0 00-12.047-8.639 15.816 15.816 0 00-10.091 2.109c-2.144 1.295-3.075 2.372-3.151 2.289z" fill="#EBEBEB"/><path d="M73.158 214.229a3.524 3.524 0 01-.493-.261l-1.466-.847-5.759-3.4.18-.024L55.407 220.4l.027-.287 4.93 7.455.088.134-.079.143a36.17 36.17 0 00-3.473 8.913l-.042.175-.177.044L48 239.128l.247-.32.294 14.787-.285-.343 8.756 1.8.223.046.062.219a36.044 36.044 0 003.818 8.745l.123.2-.123.2-4.615 7.658-.065-.5 10.654 10.261-.527-.049 7.47-4.907.22-.143.228.127a36.024 36.024 0 008.867 3.481l.26.063.062.259c.67 2.72 1.4 5.686 2.135 8.682l-.44-.339 14.788-.266-.434.36 1.819-8.753.056-.27.265-.075a35.892 35.892 0 008.725-3.791h.008l.238-.141.233.141 7.641 4.634-.562.072 10.276-10.638-.052.559-4.9-7.477-.148-.226.132-.236a35.774 35.774 0 003.492-8.861l.064-.259.259-.063 8.685-2.122-.33.428-.245-14.789.333.4-8.75-1.833-.243-.051-.066-.237a35.915 35.915 0 00-3.788-8.752l-.123-.205.123-.2 4.646-7.633.06.468-10.62-10.295.433.04-7.486 4.881-.166.108-.172-.1a36.031 36.031 0 00-8.886-3.525l-.177-.044-.042-.175-2.1-8.69.266.205-14.79.194.2-.163-1.878 8.742-.019.088-.084.023a37.474 37.474 0 00-6.763 2.6l-1.59.831c-.17.104-.347.194-.53.27a4.47 4.47 0 01.492-.336c.338-.208.85-.52 1.56-.9a35.08 35.08 0 016.751-2.749l-.1.11 1.765-8.765.031-.158h.165l14.788-.324.214-.005.052.21 2.157 8.675-.218-.219a36.55 36.55 0 019.061 3.536l-.338.012L117 208.4l.232-.152.2.194 10.662 10.252.218.209-.157.259-4.62 7.649v-.411a36.661 36.661 0 013.9 8.937l-.309-.288 8.755 1.811.327.068.006.335.275 14.788.006.346-.336.083-8.682 2.135.322-.322a36.615 36.615 0 01-3.567 9.085l-.017-.462 4.9 7.472.2.3-.249.259-10.271 10.645-.252.261-.31-.189-7.642-4.632h.47-.008a36.743 36.743 0 01-8.947 3.886l.32-.345-1.823 8.753-.074.354-.361.006-14.79.253-.356.006-.084-.346-2.123-8.685.322.323a36.8 36.8 0 01-9.078-3.58l.447-.016-7.479 4.892-.284.186-.243-.235L55.87 272.2l-.235-.226.17-.277 4.643-7.633v.4a36.674 36.674 0 01-3.87-8.944l.285.264-8.749-1.838-.28-.059v-.286l-.227-14.789v-.26l.251-.061 8.69-2.1-.219.219a36.617 36.617 0 013.587-9.031l.01.276-4.869-7.495-.1-.155.128-.132 10.335-10.581.082-.085.1.061 5.63 3.5 1.446.919c.168.103.329.217.48.342z" fill="#EBEBEB"/><path d="M328.16 65c2.172.042 4.328.374 6.411.986l4.177-4.326 8.508 5.16-1.9 5.7a24.364 24.364 0 013.839 5.227l6.011-.105 2.367 9.664-5.377 2.685a24.343 24.343 0 01-.988 6.411l4.326 4.177-5.158 8.508-5.705-1.9a24.364 24.364 0 01-5.228 3.838l.105 6.011-9.668 2.364-2.685-5.378a24.391 24.391 0 01-6.412-.987l-4.177 4.327-8.506-5.162 1.9-5.7a24.398 24.398 0 01-3.838-5.228l-6.011.1-2.367-9.664 5.377-2.684c.042-2.172.374-4.328.987-6.412l-4.326-4.177 5.159-8.508 5.7 1.9A24.421 24.421 0 01315.916 68l-.1-6.01 9.664-2.369 2.68 5.38zm-2.584 14.038a10.676 10.676 0 00-8.008 8.746 10.674 10.674 0 108.008-8.747v.001z" fill="#E0E0E0"/><path d="M325.576 79.037a8.059 8.059 0 012.612-.415 10.624 10.624 0 016.768 2.322 10.767 10.767 0 013.106 3.946 10.913 10.913 0 01-1.542 11.552 10.885 10.885 0 01-12.6 3.088 10.928 10.928 0 01-4.91-4.053 10.937 10.937 0 01-1.8-5.478 10.77 10.77 0 01.93-4.936 10.632 10.632 0 014.928-5.187 8.065 8.065 0 012.507-.839c.023.072-.918.249-2.395 1.049a10.647 10.647 0 00-4.643 5.15 10.43 10.43 0 005.612 13.741 10.347 10.347 0 0011.91-2.919 10.425 10.425 0 001.677-10.636 10.417 10.417 0 00-3.053-4.142 10.636 10.636 0 00-6.5-2.42c-1.677-.027-2.594.252-2.607.177z" fill="#E0E0E0"/><path d="M328.16 65a2.351 2.351 0 01-.187-.324l-.53-1.008-2.056-4 .111.05-9.65 2.425.118-.153.13 6.009v.109l-.1.053a24.33 24.33 0 00-5.174 3.825l-.087.084-.116-.038-5.71-1.89.255-.092-5.139 8.518-.039-.3 4.335 4.168.11.106-.043.148a24.252 24.252 0 00-.966 6.344v.16l-.143.072-5.374 2.692.144-.308 2.379 9.66-.282-.217 6.011-.111h.176l.084.154a24.291 24.291 0 003.8 5.163l.125.128-.057.171c-.6 1.787-1.245 3.736-1.9 5.705l-.129-.351a22069.8 22069.8 0 008.51 5.155l-.377.049 4.177-4.327.128-.133.178.052c2.056.604 4.183.931 6.324.974h.006l.186.006.082.164a5348 5348 0 012.685 5.378l-.346-.161 9.664-2.365-.231.3-.1-6.01v-.182l.159-.087a24.052 24.052 0 005.167-3.788l.129-.125.17.057 5.7 1.909-.341.125 5.167-8.5.045.349-4.321-4.183-.12-.116.047-.158c.609-2.06.941-4.192.986-6.34v-.16l.143-.071 5.382-2.676-.133.288-2.348-9.668.232.178-6.011.09h-.134l-.063-.116a24.223 24.223 0 00-3.79-5.194l-.085-.088.039-.115c.7-2.07 1.328-3.936 1.923-5.7l.078.21-8.485-5.2.17-.021-4.2 4.3-.042.043-.057-.017a25.192 25.192 0 00-4.781-.947l-1.2-.1a2.45 2.45 0 01-.4-.037c.133-.013.267-.018.4-.014.267 0 .671.01 1.209.049 1.636.117 3.254.405 4.829.858l-.1.026 4.15-4.354.075-.08.1.058 8.53 5.122.123.074-.045.138-1.886 5.71-.046-.2a24.559 24.559 0 013.887 5.263l-.2-.114 6.01-.12h.187l.045.183 2.387 9.658.049.2-.182.09-5.373 2.695.146-.231a24.629 24.629 0 01-.989 6.483l-.072-.274 4.331 4.172.162.156-.117.193-5.15 8.512-.12.2-.222-.074-5.705-1.9.3-.068a24.672 24.672 0 01-5.29 3.889l.156-.269.108 6.011v.242l-.235.057-9.663 2.371-.237.058-.108-.218-2.686-5.378.267.169h-.006a24.781 24.781 0 01-6.485-1l.306-.081-4.178 4.326-.169.174-.208-.125a17836.05 17836.05 0 00-8.505-5.163l-.2-.125.076-.227 1.909-5.7.067.3a24.799 24.799 0 01-3.88-5.294l.26.152-6.011.1h-.228l-.054-.221-2.355-9.667-.052-.212.2-.1 5.381-2.676-.146.23a24.722 24.722 0 011.009-6.477l.067.253-4.318-4.186-.139-.134.1-.164 5.178-8.5.091-.15.165.056 5.7 1.92-.2.046a24.656 24.656 0 015.281-3.851l-.093.16-.081-6.01v-.125l.12-.03 9.677-2.311.077-.018.034.069 1.946 4.013.494 1.043c.054.12.1.242.137.368z" fill="#E0E0E0"/><path d="M356.067 254.519a8.14 8.14 0 012.635-.419c2.48-.032 4.894.797 6.831 2.344a10.831 10.831 0 013.135 3.983 11.02 11.02 0 01-1.554 11.659A10.993 10.993 0 01354.4 275.2a11.052 11.052 0 01-4.956-4.091 11.04 11.04 0 01-1.816-5.529 10.872 10.872 0 01.939-4.982 10.726 10.726 0 014.974-5.235 8.123 8.123 0 012.53-.847c.023.073-.927.251-2.418 1.059a10.75 10.75 0 00-4.686 5.2 10.539 10.539 0 00.951 10.02 10.52 10.52 0 004.714 3.848 10.44 10.44 0 0012.02-2.946 10.52 10.52 0 002.4-5.59 10.52 10.52 0 00-3.789-9.325 10.74 10.74 0 00-6.558-2.442c-1.7-.027-2.625.26-2.638.179z" fill="#EBEBEB"/><path d="M358.675 240.351a2.27 2.27 0 01-.189-.328l-.535-1.018c-.48-.937-1.172-2.283-2.075-4.039l.111.052-9.739 2.446.12-.154.13 6.065v.11l-.1.053a24.566 24.566 0 00-5.222 3.861l-.088.085-.117-.039-5.763-1.906.257-.094-5.186 8.6-.039-.3 4.374 4.207.111.107-.043.149a24.468 24.468 0 00-.975 6.4v.161l-.144.073-5.424 2.718.145-.312 2.4 9.75-.284-.219 6.066-.112h.178l.085.156a24.444 24.444 0 003.831 5.21l.126.13-.057.172-1.919 5.758-.13-.354 8.588 5.2-.379.049 4.215-4.367.129-.135.179.053a24.31 24.31 0 006.384.983h.006l.188.005.082.165 2.71 5.428-.349-.161 9.753-2.388-.233.3-.1-6.066v-.184l.161-.087a24.31 24.31 0 005.214-3.824l.131-.126.172.058 5.755 1.927-.344.126 5.215-8.581.045.352-4.361-4.221-.12-.117.047-.161a24.346 24.346 0 001-6.4v-.163l.145-.071 5.431-2.7-.134.291-2.37-9.758.234.18-6.066.091h-.135l-.064-.117a24.535 24.535 0 00-3.826-5.243l-.085-.089.039-.116 1.941-5.75.079.214-8.564-5.245.172-.022c-1.7 1.733-3.086 3.155-4.244 4.34l-.043.043-.057-.017a25.5 25.5 0 00-4.826-.955l-1.214-.1a2.44 2.44 0 01-.4-.037c.133-.014.267-.019.4-.015.27 0 .677.01 1.221.049a23.85 23.85 0 014.873.866l-.1.026 4.187-4.394.076-.079.1.057 8.609 5.17.125.074-.046.14c-.589 1.782-1.212 3.668-1.9 5.763l-.047-.2a24.833 24.833 0 013.923 5.311l-.2-.115 6.066-.121h.188l.045.184 2.41 9.749.049.2-.184.092-5.423 2.719.148-.234a24.88 24.88 0 01-1 6.544l-.073-.277 4.371 4.21.164.157-.118.195-5.2 8.591-.122.2-.223-.075-5.758-1.918.3-.068a24.874 24.874 0 01-5.338 3.924l.157-.271.109 6.066v.245l-.237.058-9.752 2.393-.24.058-.11-.22-2.71-5.428.27.171h-.006a24.988 24.988 0 01-6.546-1.009l.309-.082-4.217 4.366-.17.176-.21-.127-8.584-5.211-.207-.125.077-.23 1.926-5.756.068.3a25.02 25.02 0 01-3.916-5.343l.263.153-6.067.1h-.23l-.054-.223-2.378-9.756-.053-.214.2-.1 5.432-2.7-.147.233a24.924 24.924 0 011.017-6.537l.068.255-4.358-4.224-.14-.136.1-.166 5.226-8.574.092-.15.166.056 5.752 1.938-.205.047a24.853 24.853 0 015.33-3.887l-.094.162-.082-6.067v-.126l.121-.029 9.767-2.333.077-.019.034.07 1.964 4.05c.213.448.376.794.5 1.052.061.122.114.248.159.377z" fill="#EBEBEB"/><path d="M37.229 422.448v30.843h94.851v-30.843H37.229z" fill="#F5F5F5"/><path d="M33.249 413.825v8.623H135.4v-8.623H33.249z" fill="#E0E0E0"/><path d="M84.323 453.291h47.757v-30.843h3.32v-8.623H82.333v7.825l1.99 31.641zM69.731 427.422H50.495v4.643h19.236v-4.643z" fill="#E0E0E0"/><path d="M72.719 437.869h-24.7v9.804h24.7v-9.804z" fill="#fff"/><path d="M51.822 383.023v30.843h94.851v-30.843h-94.85z" fill="#F5F5F5"/><path d="M47.842 374.4v8.623H149.99V374.4H47.842z" fill="#E0E0E0"/><path d="M98.916 413.866h47.757v-30.843h3.317V374.4H96.926v7.825l1.99 31.641zM84.324 387.996H65.088v4.643h19.236v-4.643z" fill="#E0E0E0"/><path d="M87.312 398.444h-24.7v9.804h24.7v-9.804z" fill="#fff"/><path d="M461.655 453.291c0 .144-103.276.26-230.644.26-127.412 0-230.666-.116-230.666-.26 0-.144 103.254-.26 230.666-.26 127.368 0 230.644.116 230.644.26z" fill="#1C2E5C"/><path fill-rule="evenodd" clip-rule="evenodd" d="M67.187 33.422a48.105 48.105 0 0111.76-5.062L81.4 16.746l19.636-.276 2.786 11.538a48.087 48.087 0 0111.9 4.728l9.947-6.47 14.08 13.69-6.186 10.123a48.112 48.112 0 015.062 11.761l11.614 2.46.277 19.635-11.538 2.787a48.132 48.132 0 01-4.729 11.9l6.47 9.946-13.688 14.081-10.125-6.186a48.064 48.064 0 01-11.76 5.061l-2.458 11.613-19.637.277-2.786-11.539a48.137 48.137 0 01-11.9-4.728l-9.946 6.47-14.078-13.693L50.527 99.8a48.07 48.07 0 01-5.06-11.76l-11.614-2.459-.277-19.636 11.54-2.787a48.141 48.141 0 014.727-11.9l-6.47-9.947 13.688-14.08 10.126 6.187v.004z" fill="#FDBC5A"/><path d="M103.635 69.158a27.246 27.246 0 00-.63-4.126 16.275 16.275 0 00-1.9-4.48 16.799 16.799 0 00-20.18-7.134A15.716 15.716 0 0076.69 55.7a18.869 18.869 0 00-1.9 1.616 19.074 19.074 0 00-1.639 1.942 16.673 16.673 0 000 19.792 15.305 15.305 0 003.538 3.56 15.72 15.72 0 004.238 2.285 16.853 16.853 0 0020.18-7.135c.855-1.39 1.495-2.9 1.9-4.48.315-1.357.526-2.736.63-4.125.016.091.02.184.012.276 0 .212-.008.479-.015.81.002.441-.034.88-.108 1.315-.063.599-.17 1.192-.322 1.774a16.092 16.092 0 01-1.844 4.579 17.144 17.144 0 01-11.545 8.156 17.24 17.24 0 01-9.05-.72 16.193 16.193 0 01-4.37-2.335 15.8 15.8 0 01-3.653-3.657 17.139 17.139 0 010-20.4 15.768 15.768 0 013.652-3.653 16.174 16.174 0 014.37-2.336 17.236 17.236 0 019.048-.72 17.142 17.142 0 0111.545 8.156 16.063 16.063 0 011.844 4.58c.152.582.26 1.175.323 1.774.074.434.11.874.108 1.314l.015.81c.008.094.004.188-.012.28z" fill="#fff"/><path d="M98.278 81.543c.1-.1 3.806 3.438 8.273 7.9s8.007 8.171 7.9 8.273c-.107.102-3.8-3.437-8.274-7.9-4.474-4.463-8.001-8.17-7.899-8.273z" fill="#fff"/><path fill-rule="evenodd" clip-rule="evenodd" d="M201.428 107.727a61.716 61.716 0 0115.094-6.5l3.156-14.907 25.205-.354 3.575 14.809a61.78 61.78 0 0115.272 6.069l12.767-8.3 18.073 17.572-7.94 12.994a61.664 61.664 0 016.5 15.1l14.906 3.156.356 25.2-14.811 3.577a61.781 61.781 0 01-6.069 15.27l8.3 12.767-17.571 18.074-12.995-7.941a61.702 61.702 0 01-15.1 6.5l-3.146 14.9-25.205.356-3.576-14.812a61.773 61.773 0 01-15.271-6.069l-12.766 8.306-18.082-17.572 7.94-12.994a61.757 61.757 0 01-6.5-15.1l-14.906-3.157-.355-25.2L173.1 145.9a61.74 61.74 0 016.068-15.269l-8.305-12.768 17.57-18.073 13 7.942-.005-.005z" fill="#FDBC5A"/><path d="M224.811 187.281c.1-.01.2-.015.3-.015l.861-.015 3.311-.037 12.364-.086-.153.156-.167-7.074v-.117l.112-.052a38.212 38.212 0 0010.583-7.236 26.805 26.805 0 004.435-5.687 19.462 19.462 0 002.442-7.23 24.029 24.029 0 00-3.784-15.836 28.77 28.77 0 00-13.8-11 23.723 23.723 0 00-13.242-.919 25.996 25.996 0 00-11.5 5.315 23.488 23.488 0 00-6.945 9.592c-.307.909-.7 1.781-.928 2.693-.228.912-.441 1.818-.658 2.711a28.818 28.818 0 00-.472 5.341 24.62 24.62 0 00.634 5.029 23.15 23.15 0 001.622 4.48 25.707 25.707 0 004.985 6.908 34.231 34.231 0 0010.316 7.051l.063.027v.064c-.114 1.925-.202 3.395-.264 4.41l-.076 1.135a3.678 3.678 0 01-.036.393 2.718 2.718 0 010-.361l.032-1.115.159-4.471.059.091a33.783 33.783 0 01-10.474-7 25.96 25.96 0 01-5.1-6.97 23.525 23.525 0 01-1.674-4.549 25.004 25.004 0 01-.669-5.118c-.017-1.821.137-3.64.459-5.432l.658-2.753c.227-.927.625-1.816.935-2.742a23.93 23.93 0 017.062-9.8 26.479 26.479 0 0111.719-5.437 24.217 24.217 0 0113.524.936 29.23 29.23 0 0114.041 11.212 23.757 23.757 0 013.369 7.94c.175.682.3 1.375.374 2.074.123.684.193 1.377.21 2.072.019.69.057 1.376.06 2.057l-.184 2.031a19.883 19.883 0 01-2.521 7.394 27.162 27.162 0 01-4.531 5.766 38.35 38.35 0 01-10.742 7.262l.109-.168.117 7.075v.158h-.156l-12.458-.086-3.275-.037-.834-.016a1.648 1.648 0 01-.272-.014zM241.893 191.962a72.19 72.19 0 01-8.651.264 71.99 71.99 0 01-8.651-.256 72.203 72.203 0 018.651-.265 71.985 71.985 0 018.651.257zM236.292 198.5c-2.007.544-4.13.477-6.1-.191 2.036-.024 4.071.04 6.1.191z" fill="#fff"/><path d="M228.338 187.281a1.244 1.244 0 01-.018-.286v-.837l.049-3.218.277-11.83.217-8.168a5.506 5.506 0 00-.288-2.115 1.388 1.388 0 00-1.523-1.014 2.02 2.02 0 00-1.342 1.515 3.103 3.103 0 00.279 2.2 5.018 5.018 0 003.865 2.572 5.13 5.13 0 004.5-1.8 7.67 7.67 0 001.893-4.837 4.576 4.576 0 00-.528-2.558 1.886 1.886 0 00-.904-.815 1.891 1.891 0 00-1.215-.09 1.91 1.91 0 00-1.013 2.078 5.181 5.181 0 001.2 2.348 9.582 9.582 0 004.167 3.221c.801.297 1.66.399 2.507.3a5.059 5.059 0 002.279-.95 3.962 3.962 0 001.43-1.9 2.857 2.857 0 00-.132-2.248 1.934 1.934 0 00-1.707-1.162 2.37 2.37 0 00-1.792 1.071c-.825 1.228-.834 2.842-1.05 4.268-.318 2.913-.526 5.642-.714 8.131-.335 4.955-.607 8.977-.8 11.8l-.215 3.21-.068.834a.143.143 0 01.117.155.143.143 0 01-.24.093.139.139 0 01-.046-.093.139.139 0 01.028-.1.145.145 0 01.088-.055c0-.218.009-.493.016-.836l.118-3.216c.121-2.791.311-6.83.632-11.817.166-2.494.352-5.225.653-8.154.09-.733.162-1.474.29-2.235.105-.8.383-1.568.815-2.249a2.823 2.823 0 012.156-1.277 2.413 2.413 0 012.144 1.413 3.337 3.337 0 01.169 2.621 4.443 4.443 0 01-1.6 2.143 5.532 5.532 0 01-2.505 1.052 5.894 5.894 0 01-2.748-.316 10.077 10.077 0 01-4.406-3.382 5.652 5.652 0 01-1.308-2.594 2.417 2.417 0 011.346-2.64 2.395 2.395 0 012.741 1.119 5.07 5.07 0 01.6 2.851 8.172 8.172 0 01-2.033 5.162 5.623 5.623 0 01-4.937 1.954 5.498 5.498 0 01-4.233-2.853 3.585 3.585 0 01-.3-2.541 2.458 2.458 0 011.707-1.837 1.675 1.675 0 011.279.286c.344.256.604.609.745 1.014.252.737.356 1.517.306 2.294l-.281 8.167-.443 11.824-.146 3.214-.052.835a1.08 1.08 0 01-.026.278zM240.369 195.234a47.41 47.41 0 01-7.018.261 47.423 47.423 0 01-7.019-.261 47.697 47.697 0 017.019-.26 47.683 47.683 0 017.018.26z" fill="#fff"/><path fill-rule="evenodd" clip-rule="evenodd" d="M366.94 147.966a40.094 40.094 0 019.726-4.369l1.9-9.7 16.347-.485 2.47 9.571a40.054 40.054 0 019.968 3.782l8.2-5.517 11.9 11.216-5.02 8.51a40.018 40.018 0 014.369 9.726l9.7 1.9.486 16.346-9.572 2.471a40.062 40.062 0 01-3.782 9.967l5.517 8.2-11.215 11.9-8.511-5.02a40.042 40.042 0 01-9.727 4.368l-1.9 9.7-16.347.485-2.47-9.572a40.084 40.084 0 01-9.968-3.782l-8.2 5.517-11.9-11.215 5.02-8.51a40.042 40.042 0 01-4.368-9.727l-9.7-1.9-.486-16.346 9.572-2.471a40.101 40.101 0 013.782-9.967l-5.517-8.2 11.215-11.9 8.512 5.021-.001.001z" fill="#FDBC5A"/><path d="M410.1 199.807a4.473 4.473 0 01-.793.053l-2.274.049-8.364.083-27.593.076h-2.228v-.26l.08-26.279.081-7.9.048-2.139a4.04 4.04 0 01.051-.745c.039.246.056.496.051.745l.047 2.139.081 7.9.081 26.279-.26-.26h1.967l27.593.076 8.364.083 2.274.049c.266-.006.531.011.794.051z" fill="#fff"/><path d="M405.54 171.738c-.375.423-.784.814-1.223 1.169l-3.46 3.038c-2.937 2.548-7.017 6.04-11.545 9.873l-.686.58-.176.149-.168-.156-5.135-4.772.32.008-7.54 6.219-2.189 1.751a4.746 4.746 0 01-.817.584 4.92 4.92 0 01.716-.705l2.1-1.856 7.42-6.364.161-.138.159.146 5.159 4.745-.346-.009.686-.581c4.527-3.832 8.645-7.28 11.643-9.756l3.567-2.912c.424-.373.877-.712 1.354-1.013z" fill="#fff"/><path d="M405.54 180.327a12.974 12.974 0 01-.179-2.558 236.217 236.217 0 01-.081-6.232l.26.26h-.44c-2.55 0-4.858-.029-6.529-.077a14.03 14.03 0 01-2.7-.184 13.95 13.95 0 012.7-.184c1.671-.047 3.979-.076 6.529-.076h.7v.26c0 2.449-.034 4.647-.081 6.232.026.857-.034 1.714-.179 2.559z" fill="#fff"/><path d="M141.022 201.237a17.457 17.457 0 01-1.825-5.716 17.372 17.372 0 011.825 5.716zM151.635 222.636a40.38 40.38 0 01-5.965-10.373 53.086 53.086 0 013.047 5.15 53.244 53.244 0 012.918 5.223zM167.242 240.711a39.603 39.603 0 01-8.386-8.535 54.136 54.136 0 014.24 4.222 55.168 55.168 0 014.146 4.313zM187.017 254.1a24.79 24.79 0 01-5.4-2.607 25.09 25.09 0 01-4.936-3.413 56.039 56.039 0 015.2 2.963 57.517 57.517 0 015.136 3.057zM209.724 261.416c-2-.131-3.984-.444-5.927-.935a34.61 34.61 0 01-5.7-1.878c1.977.289 3.925.748 5.822 1.372 1.971.321 3.913.803 5.805 1.441zM233.591 261.945c-1.951.466-3.95.703-5.957.706-2 .175-4.014.113-6-.184a54.206 54.206 0 015.974-.336 52.402 52.402 0 015.983-.186zM256.923 256.786a42.41 42.41 0 01-11.523 3.228 50.211 50.211 0 015.735-1.708 49.86 49.86 0 015.788-1.52zM278.566 246.652a41.656 41.656 0 01-10.538 5.673 50.771 50.771 0 015.228-2.915 51.652 51.652 0 015.31-2.758zM297.124 231.624a24.494 24.494 0 01-4.065 4.414 25.07 25.07 0 01-4.709 3.72 56.419 56.419 0 014.355-4.1 59.193 59.193 0 014.419-4.034zM310.331 211.774a24.978 24.978 0 01-2.46 5.472 23.385 23.385 0 01-3.317 5c-.122-.083 1.283-2.358 2.86-5.251a56.45 56.45 0 012.917-5.221zM318.528 189.295a34.65 34.65 0 01-1.622 5.768 34.385 34.385 0 01-2.116 5.6 34.785 34.785 0 011.622-5.769 34.746 34.746 0 012.116-5.599zM326.183 166.615c.157.062-.767 2.577-1.842 5.7a34.514 34.514 0 01-2.209 5.565c.406-1.96.982-3.882 1.719-5.743a48.718 48.718 0 011.533-3.949 5.997 5.997 0 01.799-1.573zM336.8 145.191a53.716 53.716 0 01-2.832 5.271 48.41 48.41 0 01-2.988 5.185 26.9 26.9 0 012.533-5.438 25.603 25.603 0 013.287-5.018zM352.76 127.519c.09.122-2.011 1.778-4.421 4.019s-4.248 4.187-4.363 4.086a22.508 22.508 0 014.009-4.468 21.657 21.657 0 014.775-3.637zM374.322 117.422c.039.145-2.522.925-5.621 2.04-3.099 1.115-5.568 2.145-5.632 2.01a23.345 23.345 0 015.456-2.5 24.01 24.01 0 015.797-1.55zM398.026 114.779c-.01.149-2.685.084-5.977.2-3.292.116-5.96.333-5.978.183a23.903 23.903 0 015.961-.7 23.07 23.07 0 015.994.317zM421.1 120.674a56.164 56.164 0 01-5.655-1.95 58.783 58.783 0 01-5.621-2.048c1.99.28 3.938.803 5.8 1.557a25.08 25.08 0 015.476 2.441zM441.46 133.125c-.1.114-2.2-1.539-4.889-3.446a58.694 58.694 0 01-4.849-3.505 24.635 24.635 0 015.151 3.081 23.99 23.99 0 014.587 3.87zM453.471 146.4a10.551 10.551 0 01-1.923-2.3 10.416 10.416 0 01-1.637-2.516 13.23 13.23 0 013.56 4.821v-.005z" fill="#1C2E5C"/><path d="M13.505 60.662s.055-.308.187-.9c.132-.592.337-1.493.6-2.648a68.071 68.071 0 013.326-9.888 74.568 74.568 0 018.275-14.276 81.76 81.76 0 0115.261-15.618A80.793 80.793 0 0164.408 4.751a85.764 85.764 0 0114.366-3.472A92.132 92.132 0 0194.417.372a81.111 81.111 0 0116.336 2.07 74.085 74.085 0 0116.191 5.718 73.047 73.047 0 0114.806 9.858 70.11 70.11 0 0112.293 13.572 67.659 67.659 0 018.239 16.358 76.853 76.853 0 013.749 17.394c.11 1.457.266 2.9.334 4.351.034 1.447.068 2.887.1 4.322.018 1.434-.077 2.862-.11 4.283-.13 1.415-.224 2.828-.407 4.223a63.128 63.128 0 01-4.3 15.895 123.022 123.022 0 01-7.1 13.968l-7.463 12.736a74.9 74.9 0 00-8.726 24.8 108.165 108.165 0 00-1.415 11.444c-.278 3.633-.392 7.07-.411 10.285-.14 5.496.12 10.995.776 16.453a65.315 65.315 0 002.285 10.153c.365 1.133.679 1.986.908 2.552.109.286.209.493.266.637.057.144.084.218.084.218a23.281 23.281 0 01-1.358-3.375 62.832 62.832 0 01-2.385-10.155 112 112 0 01-.867-16.485c.005-3.22.106-6.664.372-10.308.256-3.851.719-7.685 1.386-11.486a75.104 75.104 0 018.713-24.948l7.441-12.749a122.913 122.913 0 007.057-13.923 62.699 62.699 0 004.247-15.775c.18-1.384.272-2.786.4-4.19.031-1.411.125-2.827.1-4.253-.025-1.426-.068-2.858-.1-4.3-.07-1.437-.226-2.876-.335-4.325a76.54 76.54 0 00-3.732-17.274 67.164 67.164 0 00-8.178-16.232 69.609 69.609 0 00-12.2-13.474 72.605 72.605 0 00-14.7-9.795 73.58 73.58 0 00-16.075-5.69A80.648 80.648 0 0094.398.85a91.843 91.843 0 00-15.56.88 85.45 85.45 0 00-14.29 3.43A80.633 80.633 0 0041.38 17.623a81.887 81.887 0 00-15.254 15.5A75.239 75.239 0 0017.8 47.3a70.963 70.963 0 00-3.41 9.833l-.649 2.633c-.14.595-.236.896-.236.896z" fill="#1C2E5C"/><path d="M256.9 428.387l15.006 5.264-.161 14.431c-7.184 2.026-8.189 5.66-8.189 5.66l15.016-.344 13.065-26.569-10.337-6.762-19.321-8.452" fill="#FDBC5A"/><path opacity=".6" d="M291.634 426.829L278.569 453.4l-15.016.344 1.641-2.3 12.2-.95 12.047-25.105 2.193 1.44z" fill="#fff"/><path d="M271.69 441.473c.115.151.97-.36 2.132-.353 1.162-.027 2.025.47 2.137.317.139-.116-.728-1-2.143-.978-1.415.022-2.266.9-2.126 1.014zM271.852 437.891c.153.1.8-.8 1.994-1.059 1.194-.259 2.161.267 2.255.108.05-.068-.129-.316-.556-.537a2.812 2.812 0 00-3.419.765c-.292.382-.348.682-.274.723zM271.652 433.3c.166.079.658-.8 1.7-1.186 1.042-.386 1.985-.065 2.057-.235.038-.076-.156-.281-.576-.427a2.606 2.606 0 00-3.033 1.148c-.218.385-.228.668-.148.7zM270.547 433.29c.184-.045.071-.991.521-2.006.422-1.029 1.183-1.6 1.089-1.765-.053-.173-1.167.249-1.7 1.506-.533 1.257-.071 2.347.09 2.265zM268.77 431.6a6.408 6.408 0 00.353-2.016c.067-.723.133-1.452.2-2.2a4.76 4.76 0 000-1.4 1.208 1.208 0 00-.534-.745.94.94 0 00-1.022.04 2.787 2.787 0 00-.853 1.33 5.018 5.018 0 00.125 3.631c.535 1.225 1.289 1.665 1.317 1.609a16.344 16.344 0 01-.88-1.774 5.178 5.178 0 01-.227-2.061c.04-.404.132-.801.272-1.182.118-.382.33-.728.617-1.006a.27.27 0 01.314-.023c.124.08.212.205.246.349.055.398.061.801.018 1.2l-.06 2.207a6.392 6.392 0 00.114 2.041z" fill="#1C2E5C"/><path d="M268.526 432.253c.059-.039-.383-.695-1.539-1.073a3.758 3.758 0 00-4.261 1.521.701.701 0 00.065.582.835.835 0 00.394.322c.225.083.461.131.7.142.407.037.816.037 1.223 0a6.475 6.475 0 001.987-.506c1.076-.472 1.573-1.018 1.524-1.075-.061-.087-.644.308-1.687.638a7.37 7.37 0 01-1.868.336 7.016 7.016 0 01-1.113-.034 1.862 1.862 0 01-.506-.1c-.129-.078-.094-.054-.092-.1a1.16 1.16 0 01.3-.357c.137-.13.284-.248.44-.353a3.667 3.667 0 012.779-.565c.564.173 1.116.381 1.654.622z" fill="#1C2E5C"/><path opacity=".6" d="M279.645 426.642a1.782 1.782 0 103.562-.078 1.782 1.782 0 00-3.562.078z" fill="#fff"/><path d="M179.894 422.351l.2 19.662s-19.916 6.81-20.232 10.447l38.136.974.94-30.648-19.044-.435z" fill="#FDBC5A"/><path opacity=".6" d="M191.932 440.662a1.556 1.556 0 011.032 1.8 1.5 1.5 0 01-1.78 1.039 1.643 1.643 0 01-1.083-1.917 1.552 1.552 0 011.972-.875M198 453.434l-.026-3.092-36.555.222s-1.716.7-1.555 1.9l38.136.97z" fill="#fff"/><path d="M179.484 441.8c0 .186.931.295 1.832.917.917.6 1.369 1.417 1.542 1.348.172-.032-.077-1.152-1.181-1.887-1.104-.735-2.229-.547-2.193-.378zM175.442 443.355c-.047.179.751.517 1.364 1.321.636.785.773 1.641.959 1.638.174.033.331-1.054-.449-2.039-.78-.985-1.865-1.097-1.874-.92zM173.048 448.085c.168.044.451-.88 0-1.912s-1.313-1.46-1.4-1.307c-.11.15.442.712.8 1.565.382.844.415 1.63.6 1.654zM179.935 437.317c.074.172.935-.063 1.985.035 1.053.077 1.863.451 1.964.294.111-.132-.671-.842-1.91-.94-1.239-.098-2.127.462-2.039.611z" fill="#1C2E5C"/><path opacity=".3" d="M179.939 426.245l.032 3.5 18.748.308.1-3.154-18.88-.654z" fill="#000"/><path d="M179.967 433.35a3.59 3.59 0 001.91.039 8.59 8.59 0 002.014-.563 8.999 8.999 0 001.112-.554c.218-.113.416-.26.588-.435a.806.806 0 00.224-.475.804.804 0 00-.113-.513 1.027 1.027 0 00-.8-.447 2.53 2.53 0 00-.719.081 6.744 6.744 0 00-2.991 1.488c-.9.8-1.225 1.485-1.162 1.522.082.064.528-.508 1.446-1.161a7.247 7.247 0 012.828-1.227c.406-.1.75-.09.849.093.036.069.04.1-.047.212a1.903 1.903 0 01-.433.318c-.33.203-.672.387-1.024.551-.599.278-1.223.499-1.864.66-.615.094-1.222.231-1.818.411z" fill="#1C2E5C"/><path d="M180.2 433.623a3.057 3.057 0 00.551-1.832 6.176 6.176 0 00-.664-3.27 1.582 1.582 0 00-1.194-.995.888.888 0 00-.811.512 2.592 2.592 0 00-.214.7 4.39 4.39 0 00.731 3.28c.72 1.008 1.491 1.25 1.509 1.187.064-.092-.576-.468-1.122-1.432a4.412 4.412 0 01-.558-1.81 3.904 3.904 0 01.063-1.1c.07-.4.231-.727.381-.681.19 0 .5.315.652.642.18.335.33.686.447 1.048.198.62.306 1.265.321 1.915.027 1.113-.192 1.805-.092 1.836zM268.546 412.332L224.632 396l46.166-6.48 2.324-22.49-86.331 7.534-12.191 17.551 3.211 22.024 84.11 21.383 6.625-23.19z" fill="#1C2E5C"/><path d="M175.435 428.071L171.23 347.7a22.612 22.612 0 0111.27-18.9 22.605 22.605 0 0118.476-1.881l56.012 18.674 30.742 7.9s5.236 12.918 2.158 22.954c-3.013 9.824-13.779 16.359-23.253 13.551-11.765-3.488-65.783-26.717-65.783-26.717v65.447l-25.417-.657z" fill="#1C2E5C"/><path d="M265.822 390.21a1.742 1.742 0 01-.334-.11l-.961-.37-3.673-1.47-13.472-5.495-44.371-18.311-2.258-.936.359-.24-.079 46.373-.082 13.966-.048 3.789-.025.984c.004.112-.005.225-.026.335a1.708 1.708 0 01-.026-.335l-.025-.984-.048-3.789-.082-13.966-.079-46.373v-.39l.361.149 2.258.936 44.313 18.452 13.409 5.648 3.636 1.56.94.418c.11.042.215.096.313.159z" fill="#455A64"/><path d="M214.091 390.3a18.388 18.388 0 0110.527 5.831c-.108.119-2.1-1.743-5.025-3.346-2.907-1.624-5.546-2.328-5.502-2.485zM195.98 352.4a40.125 40.125 0 015.05 11.264c-.141.05-1.17-2.512-2.565-5.614s-2.617-5.574-2.485-5.65z" fill="#455A64"/><path d="M196.1 316.987l-9.905-1.852-10.407 10.615 1.92 6.762 12.133-4.468 6.259-11.057z" fill="#FFBE9D"/><path d="M159.481 199.158l-2.68.226s-4.828.79-4.828.9c0 .11-2.12 3.07-2.126 3.079l-1.943 3.005a2.79 2.79 0 002.715-.5l-.678 1.51a3.012 3.012 0 003.729-1.448 35.434 35.434 0 012.1-2.99l.879-.08c.072.181 3.462 4.959 3.535 4.85.073-.109 2.885-2.826 2.885-2.826l-3.588-5.726z" fill="#EB996E"/><path d="M166.669 219.981l.792-14.838-7.518-8.52-8.269.5-3.384 2.36c.174.819 2.519 1.38 5.049.647a12.776 12.776 0 015.206-.175l3.185 5.55-2.1 2.321 2.7 14.231 4.339-2.076z" fill="#FFBE9D"/><path d="M144.723 200.431H171.6a1.227 1.227 0 011.228 1.228 1.219 1.219 0 01-.757 1.136 1.244 1.244 0 01-.471.093h-26.877l-2.636-1.229 2.636-1.228z" fill="#1C2E5C"/><path d="M158.329 223.969l-2.737-6.734a6.33 6.33 0 01-.462-2.7c.118-2.419.3-7.277-.073-8.395-.5-1.5-2.506-6.641-1.379-7.392 1.127-.751 2.69-1 3.788 2 1.098 3 4.482 9.523 4.482 9.523l2.561 10.734-6.18 2.964z" fill="#FFBE9D"/><path d="M161.607 209.617a20.384 20.384 0 01-1.556-2.874c-.9-1.781-2.121-4.372-3.424-7.052a1.978 1.978 0 00-1.589-1.037 1.443 1.443 0 00-1.337 1c-.118.583-.1 1.185.053 1.76.107.576.232 1.108.36 1.591.524 1.929 1.074 3.056 1 3.092a2.539 2.539 0 01-.457-.756 15.701 15.701 0 01-.892-2.233c-.154-.485-.3-1.023-.43-1.608a4.127 4.127 0 01-.09-1.984 1.934 1.934 0 011.784-1.37 2.453 2.453 0 012.04 1.265c1.388 2.842 2.487 5.321 3.319 7.177a20.24 20.24 0 011.219 3.029z" fill="#EB996E"/><path d="M286.875 353.305l-2.74-4.809-29.312-7.337 3.452 5.961 28.6 6.185z" fill="#FFBE9D"/><path d="M155.776 223.969l18.451 43.716a16.987 16.987 0 009.193 9.1l39.809 16.346 9.267-25.644-38.766-13.722-25.181-35.9-12.773 6.104z" fill="#FDBC5A"/><path d="M215.718 267.924c.041 1.025-4.3 32.836-4.3 39.334 0 6.498 12.445 13.553 12.445 13.553l13.627 28.933h48.534l-16.594-31.155-7.5-24.956a58.786 58.786 0 00-15.063-24.976l-8.1-5.423-23.049 4.69z" fill="#FDBC5A"/><path d="M229.814 293.044l8.152 34.2-41.112-11.584-7.009 12.383 53.495 24.364a15.033 15.033 0 0018.541-5.046A15.029 15.029 0 00264.14 335l-11.978-46.8a11.442 11.442 0 00-22.348 4.844z" fill="#FDBC5A"/><path d="M223.861 320.811a2.006 2.006 0 01-.473-.2 27.43 27.43 0 01-1.3-.692 37.673 37.673 0 01-4.509-2.99 18.386 18.386 0 01-5.306-6.03c-1.317-2.846-1.224-6.348-.743-9.775.5-3.462 1.208-6.685 1.626-9.665.456-2.971.771-5.66.938-7.925.167-2.265.2-4.105.2-5.375 0-1.27-.041-1.975 0-1.978.051.164.08.335.084.507.041.333.081.827.116 1.465a49.63 49.63 0 01-.032 5.4c-.12 2.28-.4 4.986-.83 7.972-.393 2.989-1.1 6.244-1.585 9.664-.479 3.4-.565 6.8.662 9.5a18.485 18.485 0 005.1 5.945 45.421 45.421 0 004.383 3.1c.574.331 1.131.69 1.669 1.077zM246.527 283.965a16.996 16.996 0 00-11.2-.758 11.427 11.427 0 0111.2.758zM240.971 265.519a4.604 4.604 0 01-.742.829c-.5.511-1.243 1.23-2.178 2.1a136.95 136.95 0 01-7.56 6.518c-3.042 2.44-5.9 4.518-8.009 5.96a69.557 69.557 0 01-2.525 1.667c-.3.219-.626.402-.971.544a4.59 4.59 0 01.856-.711l2.426-1.8a262.519 262.519 0 007.9-6.067 254.765 254.765 0 007.64-6.385l2.286-1.975c.264-.261.559-.49.877-.68zM193.716 253.862c.053.143-1.438.776-3.09 1.864s-2.837 2.189-2.948 2.083c1.472-2 3.616-3.401 6.038-3.947z" fill="#1C2E5C"/><path d="M233.748 308.542a3.255 3.255 0 01-.894.287 17.36 17.36 0 01-2.521.441c-1.262.137-2.533.17-3.8.1a24.472 24.472 0 01-9-2.256 23.303 23.303 0 01-3.3-1.884 17.433 17.433 0 01-2.015-1.578c-.444-.41-.677-.649-.653-.676.062-.072 1.063.81 2.87 1.946A26.49 26.49 0 00230.3 308.9c2.129-.146 3.428-.452 3.448-.358zM236.534 323.578a5.138 5.138 0 01-1.844.336 16.888 16.888 0 01-8.787-1.79 5.12 5.12 0 01-1.565-1.03 38.112 38.112 0 005.942 2.009c2.068.33 4.16.489 6.254.475zM257.79 314.235c-.23.19-.487.345-.763.459a23.1 23.1 0 01-2.208.991 33.796 33.796 0 01-15.7 2.174 23.026 23.026 0 01-2.394-.355 2.953 2.953 0 01-.859-.234c.015-.085 1.26.1 3.282.222 5.275.322 10.56-.41 15.549-2.152 1.903-.664 3.056-1.183 3.093-1.105zM254.005 297.486c-.017.081-1.273-.154-3.314-.4a51.096 51.096 0 00-15.969.576c-2.019.389-3.254.714-3.277.634.261-.153.543-.267.837-.336.548-.189 1.355-.416 2.362-.658a41.663 41.663 0 0116.1-.581c1.022.169 1.844.338 2.4.487.3.049.59.143.861.278zM262.468 344.284a5.187 5.187 0 01-1.168-.231 29.761 29.761 0 01-3.1-.958 40.854 40.854 0 01-17.359-12.19 30.01 30.01 0 01-1.954-2.59 5.335 5.335 0 01-.614-1.02c.077-.055 1.045 1.334 2.847 3.37a45.321 45.321 0 0017.211 12.085c2.527 1.005 4.162 1.444 4.137 1.534zM225.6 343.765a11.158 11.158 0 01-.122-2.845 31.665 31.665 0 013.468-13.228c.394-.868.898-1.681 1.5-2.419a25.026 25.026 0 01-1.171 2.58 39.256 39.256 0 00-3.431 13.089 24.944 24.944 0 01-.244 2.823zM200.852 332.513a8.112 8.112 0 01.022-2.395 13.573 13.573 0 011.774-5.513 17.755 17.755 0 013.863-4.314 9.203 9.203 0 011.944-1.391 13.183 13.183 0 01-1.7 1.666 21.38 21.38 0 00-3.66 4.306 15.301 15.301 0 00-1.857 5.3 16.708 16.708 0 01-.386 2.341zM282.8 343.512c-.917.522-1.885.949-2.889 1.274a53.81 53.81 0 01-7.3 2.192 31.179 31.179 0 01-7.591.826 12.396 12.396 0 01-1.32-.088 7.479 7.479 0 01-.988-.138 2.688 2.688 0 01-.825-.215c.016-.092 1.2.106 3.136.073a37.885 37.885 0 007.476-.967c2.883-.642 5.447-1.429 7.292-2.03a24.492 24.492 0 013.009-.927zM271.816 323.744c.056.025-.258.631-1.1 1.247a14.98 14.98 0 01-3.531 1.855 22.028 22.028 0 01-3.815 1.124 6.247 6.247 0 01-1.212.125c-.291.008-.467-.1-.443-.119.031-.037.6-.073 1.572-.365.963-.27 2.283-.7 3.708-1.25a21.72 21.72 0 003.511-1.673c.855-.511 1.239-.988 1.31-.944zM264.944 303.665c.026-.005.016.17-.153.359a3.325 3.325 0 01-.8.651 15.936 15.936 0 01-3.021 1.409 17.516 17.516 0 01-3.215.869c-.849.145-1.408.031-1.393-.039.015-.07.512-.092 1.319-.322.806-.21 1.91-.563 3.112-1a31.525 31.525 0 003.016-1.241c.295-.134.577-.293.844-.475.184-.119.247-.225.291-.211zM229.288 293.053a8.308 8.308 0 01-2.351.093 30.093 30.093 0 01-11-2.609 8.36 8.36 0 01-2.06-1.138c.07-.151 3.282 1.459 7.559 2.457 4.264 1.028 7.858 1.032 7.852 1.197zM258.082 284.012c.1.142-1.338 1.114-3.285 1.885-1.933.809-3.641 1.119-3.669.948-.017-.115 1.56-.631 3.472-1.43 1.926-.765 3.415-1.497 3.482-1.403zM235.663 271.016a4.347 4.347 0 011.39 1.1 12.69 12.69 0 013.508 7.7 4.348 4.348 0 01-.079 1.774 17.189 17.189 0 00-4.819-10.575v.001zM204.153 285.231a3.544 3.544 0 01-.458-.942 16.16 16.16 0 01-.8-2.745 24.852 24.852 0 01.069-9.4 49.7 49.7 0 012.723-8.993c.442-1.116.821-2.01 1.093-2.623.117-.33.277-.643.474-.933a4.043 4.043 0 01-.285 1.006l-.937 2.679a61.23 61.23 0 00-2.556 8.959 27.04 27.04 0 00-.219 9.233c.388 2.354.988 3.728.896 3.759zM180.635 275.615c.014-.343.073-.682.176-1.009.212-.905.475-1.797.789-2.672a34.237 34.237 0 0110.413-14.944 24.169 24.169 0 012.234-1.666c.272-.209.569-.382.885-.514.052.075-1.136.909-2.879 2.459a38.537 38.537 0 00-10.308 14.793c-.845 2.172-1.221 3.576-1.31 3.553zM184.418 240.488c.005.094-1.139.146-2.9.646a27.06 27.06 0 00-6.5 2.9 30.755 30.755 0 00-5.643 4.356c-1.3 1.286-1.957 2.222-2.032 2.17-.03-.02.111-.269.394-.706.171-.265.358-.52.559-.763.253-.334.524-.653.813-.956a25.856 25.856 0 015.64-4.547 23.345 23.345 0 016.676-2.812c.407-.104.82-.18 1.236-.228.312-.053.628-.084.944-.092.271-.036.546-.025.813.032zM175.089 226.854a25.329 25.329 0 00-16.474 4.166 8.265 8.265 0 012.03-1.581 20.237 20.237 0 0111.907-3.01 8.286 8.286 0 012.537.425z" fill="#FAFAFA"/><path d="M229.814 293.044c.086.211.153.43.2.653.124.475.289 1.108.5 1.907l1.777 7.134 5.921 24.45.1.419-.417-.117-10.482-2.946-30.612-8.7.215-.088-5.2 9.018c-.606 1.03-1.085 1.843-1.438 2.439l-.385.628a.878.878 0 01-.148.205.885.885 0 01.1-.232l.34-.654 1.351-2.488 5.055-9.1.071-.129.143.04 30.652 8.562L238.035 327l-.315.3c-2.3-9.808-4.3-18.35-5.744-24.491l-1.632-7.169-.416-1.927a3.98 3.98 0 01-.114-.669zM252.343 290.915c.088.188.155.385.2.587l.476 1.707c.408 1.554.969 3.691 1.656 6.3l5.271 20.842c1.007 4.079 1.993 7.949 2.824 11.5a27.112 27.112 0 01.785 9.654 13.6 13.6 0 01-2.3 6.1c-.445.671-1 1.262-1.642 1.748a19.433 19.433 0 001.474-1.862 13.909 13.909 0 002.1-6.036 27.404 27.404 0 00-.887-9.5l-2.861-11.481c-1.994-8.124-3.8-15.477-5.124-20.879l-1.495-6.344-.381-1.731a2.806 2.806 0 01-.096-.605z" fill="#1C2E5C"/><path opacity=".3" d="M259.8 349.744c6.02.554 9.513-2.879 10.157-7.576.355-2.587-.5-5.171-1.343-7.643-3.69-10.82-7.421-21.73-13.277-31.548 2.212 9.824 5.033 19.257 7.245 29.082a30.477 30.477 0 01.934 8.366 15.06 15.06 0 01-3.716 9.319" fill="#000"/><path d="M237.654 261.152a12.25 12.25 0 0013.551-4.65 12.223 12.223 0 002.004-4.65 7.199 7.199 0 006.207 1.648 11.838 11.838 0 005.788-3.124 14.432 14.432 0 003.599-4.907 14.435 14.435 0 001.26-5.953 10.581 10.581 0 00-6.57-9.516c-3.852-1.38-8.726.417-10.314 4.189-.715-2.143 1.123-5.036.684-7.251-.883-4.447-3.54-7.047-5.8-7.14" fill="#1C2E5C"/><path d="M242.493 260c4.4-7.678 5.666-17.907 6.779-26.755.523-4.164 1.445-10.093-1.393-12.7-3.041-2.791-3.334-7.093-6.827-9.246-3.493-2.153-8.232-2.331-11.527.133" fill="#1C2E5C"/><path d="M219.6 275.282v-12.048s-12.548-2.217-13.291-12.273c-.743-10.056-.483-33.278-.483-33.278a33.081 33.081 0 0134.337 2.174l-.507 35.4.024 11.532-10.28 8.339-9.8 7.722v-7.568z" fill="#FFBE9D"/><path d="M215.99 238.652c1.675-2.155 4.407-3.019 6.657-1.521a5.959 5.959 0 011.909 7.3 7.496 7.496 0 01-4.772 3.745s4.518 8.242 7.393 10.427c3.424 2.6 5.033 3.883 9.258 4.386 4.153.494 3.652.537 6.058-2.992a13.819 13.819 0 002.348-8.173l.383-22.25a32.807 32.807 0 00-.514-7.981 10.757 10.757 0 00-4.1-6.589c-2.376-1.6-5.38-1.731-8.084-2.624-3.379-1.117-6.253-3.419-9.417-5.077-3.164-1.658-7.039-2.642-10.206-.99-2.273 1.185-3.792 3.534-6 4.84-3.147 1.859-7.438 1.452-8.955 6.238a8.349 8.349 0 00.067 5.114c2.155 6.5 9.974 9.1 15.592 6.271.114 1.1-.931 3.558.2 7.037.363 1.111.5 2.808 2.181 2.834" fill="#1C2E5C"/><path d="M217.752 244.926c-.04.015-.039.19.136.434a1.438 1.438 0 001.088.557 2.73 2.73 0 002.518-2.784 2.952 2.952 0 00-.722-2.126 2.89 2.89 0 00-1.528-.9c-1.005-.214-1.582.17-1.54.235.025.115.6-.048 1.4.254a2.516 2.516 0 011.696 2.504 2.324 2.324 0 01-1.827 2.309c-.818.052-1.15-.547-1.221-.483z" fill="#EB996E"/><path d="M268.745 239.644a3.04 3.04 0 01-.285.945c-.344.834-.793 1.62-1.335 2.341a11.707 11.707 0 01-7.468 4.579 11.491 11.491 0 01-8.478-2.191 10.42 10.42 0 01-1.941-1.87 3.1 3.1 0 01-.537-.828 20.939 20.939 0 002.693 2.4 11.615 11.615 0 008.184 1.976 11.858 11.858 0 007.256-4.291c.72-.966 1.359-1.99 1.911-3.061z" fill="#455A64"/><path d="M267.355 238.016a2.339 2.339 0 01-.349.773c-.385.67-.839 1.297-1.356 1.871a12.555 12.555 0 01-6.5 3.877c-2.523.562-5.16.314-7.534-.71-.71-.302-1.386-.68-2.016-1.127-.44-.323-.657-.533-.638-.559.054-.081 1.008.669 2.792 1.349a12.76 12.76 0 007.28.545 13.087 13.087 0 006.347-3.621c1.331-1.375 1.892-2.448 1.974-2.398zM250.528 250.942a1.62 1.62 0 01-.417.231c-.422.18-.867.297-1.323.349A7.182 7.182 0 01244 250.2a13.941 13.941 0 01-4.509-5.861c-1.22-2.5-2.189-5.44-4.089-7.971a9.55 9.55 0 00-3.43-2.931 12.197 12.197 0 00-4.106-1.082c-2.732-.278-5.257-.1-7.362-.387a11.79 11.79 0 01-4.768-1.485 7.249 7.249 0 01-1.089-.822c-.224-.218-.334-.338-.321-.351.035-.041.5.43 1.511 1 1.468.74 3.069 1.18 4.708 1.294 2.07.241 4.57.02 7.37.275 1.481.111 2.93.483 4.28 1.1a9.988 9.988 0 013.623 3.076c1.967 2.629 2.923 5.6 4.107 8.079a13.83 13.83 0 004.283 5.763 7.176 7.176 0 004.563 1.423 8.655 8.655 0 001.757-.378z" fill="#455A64"/><path d="M249.547 247.315a1.469 1.469 0 01-.448.044 4.97 4.97 0 01-1.285-.163 8.119 8.119 0 01-3.908-2.646 15.32 15.32 0 01-1.879-2.695c-.575-1.03-1.1-2.168-1.68-3.341A23.002 23.002 0 00238.3 235a10.43 10.43 0 00-1.427-1.572 6.925 6.925 0 00-.866-.648 4.906 4.906 0 00-.933-.572 11.757 11.757 0 00-4.133-1.215 31.798 31.798 0 00-4.081-.21c-2.333.085-4.67.023-6.995-.185a12.48 12.48 0 01-4.529-1.356 8.544 8.544 0 01-1.069-.72c-.235-.177-.352-.276-.341-.29.031-.043.536.317 1.5.831a13.28 13.28 0 004.477 1.17c2.314.153 4.635.177 6.952.07a31.237 31.237 0 014.148.184c1.503.148 2.964.575 4.31 1.26.35.164.681.365.987.6.322.206.628.436.915.689a10.848 10.848 0 011.492 1.655 22.868 22.868 0 012.068 3.612c.572 1.186 1.079 2.325 1.627 3.344a15.333 15.333 0 001.78 2.662 8.24 8.24 0 003.689 2.691 12.72 12.72 0 001.676.315z" fill="#455A64"/><path d="M251.978 252.45c-.024.022-.228-.135-.554-.467a9.935 9.935 0 01-1.215-1.548 12.311 12.311 0 01-.493-12.469c.308-.581.671-1.131 1.086-1.641.3-.357.488-.53.514-.51.072.056-.581.847-1.271 2.316a13.008 13.008 0 00.479 12.113c.805 1.409 1.521 2.145 1.454 2.206zM391.139 390.9c6.9 2.409 15.9.256 21.8-4.053s10.148-10.485 13.912-16.748c1.606-2.673 3.174-5.46 3.682-8.537.508-3.077-.24-6.538-2.626-8.545-3.708-3.121-9.39-1.538-13.6.861a46.9 46.9 0 00-23.168 37.022M398.546 407.41c4.143 5.466 11.261 7.9 18.113 8.217 6.852.317 13.622-1.577 20.025-4.034 2.323-.892 4.866-2.114 5.663-4.471a5.68 5.68 0 00-1.213-5.274 11.802 11.802 0 00-4.624-3.152 31.583 31.583 0 00-20.157-1.091c-6.632 1.72-12.425 5.565-17.807 9.8M391.038 361.343c5.711.114 10.034-4.889 12.619-9.982a36.985 36.985 0 003.4-23.069c-.522-2.919-1.626-6.065-4.237-7.469-2.654-1.427-6.107-.487-8.333 1.544s-3.443 4.93-4.332 7.809c-3.065 9.919-2.4 21.319.882 31.167M372.279 392.93c9.737-16.572 11.36-36.847 5.609-55.188-.933-2.975-2.694-6.38-5.8-6.577-3.446-.218-5.606 3.624-6.558 6.943-3.339 11.646-2.629 24.016-1.891 36.109.455 7.448 3.014 13.816 8.645 18.713M362.153 399.745a39.831 39.831 0 00-23.627-25.055c-2.586-.974-5.874-1.529-7.8.45-1.892 1.94-1.309 5.184-.1 7.607 1.961 3.914 5.143 7.058 8.314 10.076 2.884 2.745 5.881 5.5 9.529 7.1 3.648 1.6 10.347 2 13.682-.174" fill="#FDBC5A"/><path d="M422.522 357.171a.822.822 0 01-.17.152l-.525.407-2.041 1.525-1.48 1.094c-.532.411-1.088.887-1.7 1.382-1.2 1.007-2.63 2.091-4.063 3.454l-2.3 2.086c-.794.73-1.559 1.553-2.385 2.37-1.676 1.611-3.3 3.492-5.045 5.434a107.186 107.186 0 00-17.8 28.793c-.957 2.43-1.914 4.723-2.606 6.942-.361 1.1-.756 2.157-1.053 3.193l-.84 2.986c-.579 1.892-.911 3.651-1.273 5.179-.17.766-.347 1.476-.477 2.136-.114.66-.22 1.264-.316 1.813l-.452 2.508c-.053.264-.1.478-.13.65a.796.796 0 01-.059.22.854.854 0 01.013-.226l.084-.657.368-2.525.277-1.823c.117-.664.283-1.378.441-2.149.339-1.537.65-3.307 1.211-5.21l.814-3c.289-1.042.677-2.1 1.031-3.212.68-2.233 1.626-4.54 2.576-6.984A104.965 104.965 0 01402.5 374.8c1.762-1.942 3.4-3.82 5.1-5.426.835-.814 1.609-1.634 2.412-2.359l2.323-2.071c1.452-1.352 2.9-2.421 4.118-3.412.62-.486 1.184-.953 1.725-1.356l1.508-1.063 2.094-1.457.55-.37a.85.85 0 01.192-.115z" fill="#1C2E5C"/><path d="M435.416 403.109a3.883 3.883 0 01-.668-.112c-.436-.078-1.067-.246-1.9-.384a53.203 53.203 0 00-7.05-.862 51.427 51.427 0 00-41.767 17.38 53.555 53.555 0 00-4.357 5.608c-.486.685-.812 1.251-1.064 1.616-.113.196-.244.38-.392.552.087-.209.192-.41.313-.6.227-.381.528-.963.994-1.666a47.408 47.408 0 014.262-5.724 50.598 50.598 0 0118.939-13.738 50.587 50.587 0 0123.093-3.752c2.377.159 4.739.497 7.065 1.011.826.165 1.452.362 1.882.469.223.047.44.115.65.202zM399.456 327.439a1.017 1.017 0 01-.038.257l-.155.745-.64 2.852c-.561 2.476-1.416 6.049-2.491 10.459-2.145 8.822-5.263 20.97-8.511 34.431a831.926 831.926 0 00-4.333 19.035c-1.235 5.87-2.289 11.17-3.073 15.639-.42 2.229-.737 4.257-1.036 6.034a216.213 216.213 0 00-.725 4.566l-.45 2.888c-.052.309-.1.555-.128.75a1.057 1.057 0 01-.059.253 1.068 1.068 0 01.013-.259l.083-.756.364-2.9c.156-1.26.366-2.8.649-4.58.283-1.78.569-3.816.969-6.051.744-4.48 1.766-9.79 2.979-15.671a719.416 719.416 0 014.3-19.055c3.249-13.467 6.417-25.6 8.642-34.4l2.632-10.423.724-2.832.2-.734c.018-.086.046-.169.084-.248zM377.1 424.015a.673.673 0 01-.062-.2l-.136-.6-.48-2.307c-.412-2-.959-4.915-1.583-8.521-1.248-7.209-2.729-17.222-3.639-28.358a278.306 278.306 0 01-.794-15.728c-.081-4.84-.039-9.2.113-12.858.044-1.83.165-3.482.245-4.933.08-1.451.176-2.7.271-3.719l.216-2.347.068-.609a.85.85 0 01.038-.206c.013.069.016.14.008.21l-.022.613-.13 2.351a116.951 116.951 0 00-.193 3.72c-.05 1.451-.153 3.1-.177 4.93-.109 3.654-.118 8.007-.015 12.839.131 4.83.389 10.139.83 15.7.908 11.118 2.336 21.124 3.5 28.342.583 3.61 1.081 6.527 1.439 8.541.166.978.3 1.754.395 2.323l.091.606c.016.069.021.14.017.211z" fill="#1C2E5C"/><path d="M377.817 426.12a3.4 3.4 0 01-.254-.572l-.641-1.667-.457-1.205-.625-1.4-.715-1.61c-.252-.571-.578-1.145-.886-1.765l-.994-1.931-1.184-2.037c-.782-1.428-1.793-2.848-2.769-4.4a103.787 103.787 0 00-7.334-9.373 115.734 115.734 0 00-8.416-8.425c-1.4-1.18-2.681-2.36-3.976-3.35l-1.843-1.469-1.75-1.29c-1.1-.838-2.143-1.538-3.058-2.151-.915-.613-1.7-1.15-2.361-1.548l-1.509-.957a3.368 3.368 0 01-.511-.361c.195.076.382.17.558.281l1.555.884c.681.376 1.488.878 2.41 1.487.93.594 1.986 1.277 3.106 2.1l1.774 1.271 1.866 1.454c1.31.98 2.606 2.154 4.019 3.331a109.03 109.03 0 018.479 8.436 98.903 98.903 0 017.341 9.441c.972 1.561 1.976 3 2.747 4.441.4.71.789 1.396 1.167 2.059l.973 1.955c.3.627.618 1.21.861 1.787l.686 1.632.592 1.421c.154.443.294.851.422 1.224l.561 1.7c.076.196.131.399.166.607zM418.911 376.392c0 .073-1.181.073-3.076.179a55.12 55.12 0 00-14.516 2.756c-1.8.6-2.9 1.029-2.927.962.224-.168.47-.302.732-.4a28.407 28.407 0 012.087-.87 43.779 43.779 0 0114.612-2.776c.955-.011 1.729.006 2.262.045.279-.005.557.03.826.104zM426.257 412.269a22.353 22.353 0 00-9.741-10.489c.702.185 1.37.48 1.979.875a17.471 17.471 0 017.035 7.576c.349.637.594 1.325.727 2.038zM401.207 340.892c.094.1-1.7 1.876-3.656 4.284-1.956 2.408-3.347 4.515-3.462 4.444a27.408 27.408 0 017.118-8.728zM395.324 330.732a33.751 33.751 0 011.322 7.764 33.977 33.977 0 01-1.322-7.764zM377.109 362.614A96.262 96.262 0 01371 374.4a95.825 95.825 0 016.108-11.785l.001-.001zM366.267 351.79a53.64 53.64 0 014.421 8.883 53.64 53.64 0 01-4.421-8.883z" fill="#1C2E5C"/><path d="M350.333 388.807c-.03.132-1.963-.244-4.373-.409-2.41-.165-4.377-.078-4.388-.212a17.562 17.562 0 018.761.621zM361.215 421.534l5.42 28.507a4 4 0 003.926 3.25h16.014a4 4 0 003.943-3.342l4.712-28.415h-34.015z" fill="#1C2E5C"/><path d="M362.977 430.8H393.6l1.627-9.265h-34.012l1.762 9.265z" fill="#455A64"/><path d="M362.977 430.8l.642 3.378h29.514l.469-3.378h-30.625z" fill="#FAFAFA"/></svg>