<svg width="500" height="360" viewBox="0 0 500 370" fill="none" xmlns="http://www.w3.org/2000/svg">
<path d="M449.901 344.494H416.779V344.744H449.901V344.494Z" fill="#EBEBEB"/>
<path d="M331.22 347.208H322.527V347.458H331.22V347.208Z" fill="#EBEBEB"/>
<path d="M415.778 335.208H396.586V335.458H415.778V335.208Z" fill="#EBEBEB"/>
<path d="M95.652 336.888H52.459V337.138H95.652V336.888Z" fill="#EBEBEB"/>
<path d="M110.889 336.888H104.556V337.138H110.889V336.888Z" fill="#EBEBEB"/>
<path d="M225.147 341.111H131.471V341.361H225.147V341.111Z" fill="#EBEBEB"/>
<path d="M237.014 283.8H43.915C42.4017 283.798 40.951 283.196 39.8809 282.126C38.8109 281.056 38.2089 279.605 38.207 278.092V6.66013C38.2089 5.14693 38.8109 3.69626 39.881 2.62636C40.9511 1.55646 42.4018 0.954713 43.915 0.953125H237.015C238.528 0.954977 239.979 1.55684 241.048 2.62671C242.118 3.69658 242.72 5.1471 242.722 6.66013V278.092C242.72 279.605 242.118 281.056 241.048 282.126C239.978 283.196 238.527 283.798 237.014 283.8ZM43.915 1.20013C42.4681 1.20145 41.0807 1.77678 40.0575 2.79985C39.0342 3.82292 38.4586 5.21016 38.457 6.65713V278.092C38.4586 279.539 39.0342 280.927 40.0574 281.95C41.0806 282.973 42.468 283.549 43.915 283.55H237.015C238.462 283.549 239.849 282.973 240.872 281.95C241.895 280.926 242.471 279.539 242.472 278.092V6.66013C242.47 5.21333 241.895 3.82624 240.872 2.8032C239.849 1.78016 238.462 1.20471 237.015 1.20312L43.915 1.20013Z" fill="#EBEBEB"/>
<path d="M453.311 283.8H260.211C258.698 283.798 257.247 283.196 256.177 282.126C255.107 281.056 254.505 279.605 254.504 278.092V6.66013C254.505 5.14702 255.107 3.69635 256.177 2.62642C257.247 1.5565 258.698 0.954713 260.211 0.953125H453.311C454.824 0.954713 456.275 1.55646 457.345 2.62636C458.415 3.69626 459.017 5.14693 459.019 6.66013V278.092C459.017 279.605 458.415 281.056 457.345 282.126C456.275 283.196 454.824 283.798 453.311 283.8V283.8ZM260.212 1.20013C258.765 1.20171 257.378 1.77716 256.355 2.8002C255.332 3.82324 254.757 5.21033 254.755 6.65713V278.092C254.756 279.539 255.332 280.926 256.355 281.95C257.378 282.973 258.765 283.549 260.212 283.55H453.312C454.759 283.549 456.146 282.973 457.17 281.95C458.193 280.927 458.768 279.539 458.77 278.092V6.66013C458.768 5.21323 458.192 3.82615 457.169 2.80314C456.146 1.78013 454.759 1.20471 453.312 1.20312L260.212 1.20013Z" fill="#EBEBEB"/>
<path d="M500 328.398H0V328.648H500V328.398Z" fill="#EBEBEB"/>
<path d="M374.07 226.121V329.013H426.635V226.121H374.07Z" fill="#EBEBEB"/>
<path d="M384.164 213.419V236.219H416.54V213.419H384.164Z" fill="#EBEBEB"/>
<path d="M384.165 229.486H377.435V236.216H384.165V229.486Z" fill="#FAFAFA"/>
<path d="M397.2 229.486H390.47V236.216H397.2V229.486Z" fill="#FAFAFA"/>
<path d="M410.235 229.486H403.505V236.216H410.235V229.486Z" fill="#FAFAFA"/>
<path d="M423.27 229.486H416.54V236.216H423.27V229.486Z" fill="#F0F0F0"/>
<path d="M384.165 241.714H377.435V248.444H384.165V241.714Z" fill="#F0F0F0"/>
<path d="M397.2 241.714H390.47V248.444H397.2V241.714Z" fill="#F0F0F0"/>
<path d="M410.235 241.714H403.505V248.444H410.235V241.714Z" fill="#FAFAFA"/>
<path d="M423.27 241.714H416.54V248.444H423.27V241.714Z" fill="#FAFAFA"/>
<path d="M384.165 253.941H377.435V260.671H384.165V253.941Z" fill="#F0F0F0"/>
<path d="M397.2 253.941H390.47V260.671H397.2V253.941Z" fill="#FAFAFA"/>
<path d="M410.235 253.941H403.505V260.671H410.235V253.941Z" fill="#FAFAFA"/>
<path d="M397.2 218.917H390.47V225.647H397.2V218.917Z" fill="#FAFAFA"/>
<path d="M410.235 218.917H403.505V225.647H410.235V218.917Z" fill="#F0F0F0"/>
<path d="M423.27 253.941H416.54V260.671H423.27V253.941Z" fill="#F0F0F0"/>
<path d="M384.165 266.169H377.435V272.899H384.165V266.169Z" fill="#FAFAFA"/>
<path d="M397.2 266.169H390.47V272.899H397.2V266.169Z" fill="#F0F0F0"/>
<path d="M410.235 266.169H403.505V272.899H410.235V266.169Z" fill="#F0F0F0"/>
<path d="M423.27 266.169H416.54V272.899H423.27V266.169Z" fill="#FAFAFA"/>
<path d="M384.165 278.397H377.435V285.127H384.165V278.397Z" fill="#F0F0F0"/>
<path d="M397.2 278.397H390.47V285.127H397.2V278.397Z" fill="#FAFAFA"/>
<path d="M410.235 278.397H403.505V285.127H410.235V278.397Z" fill="#FAFAFA"/>
<path d="M423.27 278.397H416.54V285.127H423.27V278.397Z" fill="#F0F0F0"/>
<path d="M384.165 290.624H377.435V297.354H384.165V290.624Z" fill="#F0F0F0"/>
<path d="M397.2 290.624H390.47V297.354H397.2V290.624Z" fill="#FAFAFA"/>
<path d="M410.235 290.624H403.505V297.354H410.235V290.624Z" fill="#F0F0F0"/>
<path d="M423.27 290.624H416.54V297.354H423.27V290.624Z" fill="#FAFAFA"/>
<path d="M384.165 302.852H377.435V309.582H384.165V302.852Z" fill="#FAFAFA"/>
<path d="M397.2 302.852H390.47V309.582H397.2V302.852Z" fill="#FAFAFA"/>
<path d="M410.235 302.852H403.505V309.582H410.235V302.852Z" fill="#F0F0F0"/>
<path d="M423.27 302.852H416.54V309.582H423.27V302.852Z" fill="#F0F0F0"/>
<path d="M384.165 315.08H377.435V321.81H384.165V315.08Z" fill="#F0F0F0"/>
<path d="M423.27 315.08H416.54V321.81H423.27V315.08Z" fill="#FAFAFA"/>
<path d="M410.234 315.08H390.47V317.01H391.27V329.01H393.2V317.01H407.5V329.01H409.43V317.01H410.23L410.234 315.08Z" fill="#F5F5F5"/>
<path d="M400.352 317.009H393.199V329.013H400.352V317.009Z" fill="#E6E6E6"/>
<path d="M407.505 317.009H400.352V329.013H407.505V317.009Z" fill="#EBEBEB"/>
<path d="M66.9458 226.121V329.013H119.511V226.121H66.9458Z" fill="#F5F5F5"/>
<path d="M70.311 229.486V248.443H77.041V229.486H70.311Z" fill="#E6E6E6"/>
<path d="M83.3462 229.486V248.443H90.0762V229.486H83.3462Z" fill="#F0F0F0"/>
<path d="M96.3809 229.486V248.443H103.111V229.486H96.3809Z" fill="#E6E6E6"/>
<path d="M109.416 229.486V248.443H116.146V229.486H109.416Z" fill="#F0F0F0"/>
<path d="M70.311 253.941V272.9H77.041V253.941H70.311Z" fill="#F0F0F0"/>
<path d="M83.3462 253.941V272.9H90.0762V253.941H83.3462Z" fill="#F0F0F0"/>
<path d="M96.3809 253.941V272.9H103.111V253.941H96.3809Z" fill="#E6E6E6"/>
<path d="M109.416 253.941V272.9H116.146V253.941H109.416Z" fill="#F0F0F0"/>
<path d="M70.311 278.4V297.357H77.041V278.4H70.311Z" fill="#E6E6E6"/>
<path d="M83.3462 278.4V297.357H90.0762V278.4H83.3462Z" fill="#F0F0F0"/>
<path d="M96.3809 278.4V297.357H103.111V278.4H96.3809Z" fill="#F0F0F0"/>
<path d="M109.416 278.4V297.357H116.146V278.4H109.416Z" fill="#E6E6E6"/>
<path d="M112.781 302.852H70.311V309.582H116.146V302.852H112.781Z" fill="#F0F0F0"/>
<path d="M103.111 315.08H83.3462V317.01H84.1462V329.01H86.0762V317.01H100.381V329.01H102.311V317.01H103.111V315.08Z" fill="#EBEBEB"/>
<path d="M93.2282 317.009H86.0752V329.013H93.2282V317.009Z" fill="#FAFAFA"/>
<path d="M100.381 317.009H93.228V329.013H100.381V317.009Z" fill="#F5F5F5"/>
<path d="M119.511 272.9V329.015H172.076V272.9H119.511Z" fill="#E6E6E6"/>
<path d="M129.605 278.397H122.875V285.127H129.605V278.397Z" fill="#F0F0F0"/>
<path d="M142.641 278.397H135.911V285.127H142.641V278.397Z" fill="#F0F0F0"/>
<path d="M155.676 278.397H148.946V285.127H155.676V278.397Z" fill="#F0F0F0"/>
<path d="M168.711 278.397H161.981V285.127H168.711V278.397Z" fill="#F0F0F0"/>
<path d="M129.605 290.624H122.875V297.354H129.605V290.624Z" fill="#F0F0F0"/>
<path d="M142.641 290.624H135.911V297.354H142.641V290.624Z" fill="#F0F0F0"/>
<path d="M155.676 290.624H148.946V297.354H155.676V290.624Z" fill="#F0F0F0"/>
<path d="M168.711 290.624H161.981V297.354H168.711V290.624Z" fill="#F0F0F0"/>
<path d="M129.605 302.852H122.875V309.582H129.605V302.852Z" fill="#F0F0F0"/>
<path d="M142.641 302.852H135.911V309.582H142.641V302.852Z" fill="#F0F0F0"/>
<path d="M155.676 302.852H148.946V309.582H155.676V302.852Z" fill="#F0F0F0"/>
<path d="M168.711 302.852H161.981V309.582H168.711V302.852Z" fill="#F0F0F0"/>
<path d="M129.605 315.08H122.875V321.81H129.605V315.08Z" fill="#F0F0F0"/>
<path d="M168.711 315.08H161.981V321.81H168.711V315.08Z" fill="#F0F0F0"/>
<path d="M155.675 315.08H135.911V317.01H136.711V329.01H138.641V317.01H152.946V329.01H154.876V317.01H155.676L155.675 315.08Z" fill="#F5F5F5"/>
<path d="M145.793 317.009H138.64V329.013H145.793V317.009Z" fill="#E6E6E6"/>
<path d="M152.946 317.009H145.793V329.013H152.946V317.009Z" fill="#EBEBEB"/>
<path d="M312.242 226.121V329.013H364.807V226.121H312.242Z" fill="#FAFAFA"/>
<path d="M331.372 302.852H315.607V321.81H322.337V309.582H335.372V302.852H331.372Z" fill="#F0F0F0"/>
<path d="M356.849 302.852H341.677V309.582H354.712V321.81H361.442V302.852H356.849Z" fill="#F0F0F0"/>
<path d="M348.407 315.08H328.642V317.01H329.442V329.01H331.372V317.01H345.677V329.01H347.607V317.01H348.407V315.08Z" fill="#F5F5F5"/>
<path d="M338.525 317.009H331.372V329.013H338.525V317.009Z" fill="#EBEBEB"/>
<path d="M345.678 317.009H338.525V329.013H345.678V317.009Z" fill="#E0E0E0"/>
<path d="M335.372 229.486H315.607V248.443H335.372V229.486Z" fill="#F0F0F0"/>
<path d="M361.442 229.486H341.677V248.443H361.442V229.486Z" fill="#F0F0F0"/>
<path d="M335.372 253.941H315.607V272.899H335.372V253.941Z" fill="#F0F0F0"/>
<path d="M361.442 253.941H341.677V272.899H361.442V253.941Z" fill="#F0F0F0"/>
<path d="M335.372 278.397H315.607V297.355H335.372V278.397Z" fill="#F0F0F0"/>
<path d="M361.442 278.397H341.677V297.355H361.442V278.397Z" fill="#F0F0F0"/>
<path d="M125.769 201.689C125.384 202.024 125.106 202.463 124.967 202.953C124.828 203.444 124.835 203.964 124.987 204.45C125.139 204.937 125.429 205.368 125.822 205.693C126.215 206.017 126.694 206.219 127.201 206.276C143.514 208.038 176.476 210.47 185.401 202.616C196.874 192.516 164.201 202.067 161.681 199.772C159.161 197.477 168.114 192.391 161.081 192.519C156.143 192.609 148.464 201.349 140.581 200.192C134.156 199.25 142.723 194.584 136.756 194.584C131.589 194.584 129.222 198.6 125.769 201.689Z" fill="#F0F0F0"/>
<path d="M157.158 199.083C156.883 199.323 156.683 199.637 156.584 199.988C156.485 200.339 156.49 200.712 156.599 201.06C156.707 201.408 156.915 201.717 157.196 201.949C157.478 202.181 157.82 202.327 158.183 202.367C169.861 203.628 193.458 205.367 199.846 199.746C208.06 192.517 184.672 199.353 182.865 197.711C181.058 196.069 187.465 192.427 182.432 192.518C178.898 192.583 173.4 198.839 167.757 198.012C163.157 197.337 169.29 193.997 165.019 193.997C161.325 194 159.63 196.875 157.158 199.083Z" fill="#F5F5F5"/>
<path d="M274.276 119.695C297.472 119.695 316.276 100.891 316.276 77.6953C316.276 54.4994 297.472 35.6953 274.276 35.6953C251.08 35.6953 232.276 54.4994 232.276 77.6953C232.276 100.891 251.08 119.695 274.276 119.695Z" fill="#F0F0F0"/>
<path d="M267.186 90.3733C266.755 90.638 266.417 91.0303 266.22 91.4956C266.022 91.9609 265.974 92.4763 266.082 92.9702C266.19 93.4641 266.449 93.9121 266.824 94.252C267.198 94.5919 267.669 94.807 268.171 94.8673C293.671 97.8423 356.803 103.519 373.111 89.1673C392.791 71.8453 336.757 88.2263 332.427 84.2903C328.097 80.3543 343.461 71.6303 331.39 71.8493C322.922 72.0033 309.749 86.9943 296.229 85.0113C285.209 83.3953 299.903 75.3923 289.669 75.3923C279.124 75.3893 275.38 85.1753 267.186 90.3733Z" fill="#FAFAFA"/>
<path d="M331.939 26.99C331.598 27.2742 331.349 27.6521 331.221 28.0768C331.094 28.5016 331.094 28.9544 331.222 29.379C331.35 29.8037 331.6 30.1813 331.941 30.4651C332.281 30.7488 332.698 30.9262 333.139 30.975C348.856 32.705 381.975 35.275 390.839 27.467C402.078 17.574 370.077 26.929 367.605 24.681C365.133 22.433 373.905 17.451 367.013 17.576C362.176 17.664 354.654 26.225 346.932 25.093C340.639 24.17 349.032 19.599 343.186 19.599C337.894 19.6 335.6 23.929 331.939 26.99Z" fill="#F5F5F5"/>
<path d="M245.178 369.714C352.26 369.714 439.067 364.645 439.067 358.391C439.067 352.138 352.26 347.068 245.178 347.068C138.096 347.068 51.2891 352.138 51.2891 358.391C51.2891 364.645 138.096 369.714 245.178 369.714Z" fill="#F5F5F5"/>
<path d="M140.112 337.422H107.387V353.784H140.112V337.422Z" fill="#0FA6AF"/>
<path opacity="0.3" d="M140.112 337.422H107.387V353.784H140.112V337.422Z" fill="white"/>
<path opacity="0.2" d="M140.112 353.784V337.422H131.931V353.784H140.112Z" fill="black"/>
<path d="M205.562 304.697H172.837V353.785H205.562V304.697Z" fill="#0FA6AF"/>
<path opacity="0.4" d="M205.562 304.697H172.837V353.785H205.562V304.697Z" fill="white"/>
<path opacity="0.2" d="M205.562 353.785V304.697H197.381V353.785H205.562Z" fill="black"/>
<path d="M271.012 271.972H238.287V353.785H271.012V271.972Z" fill="#0FA6AF"/>
<path opacity="0.3" d="M271.012 271.972H238.287V353.785H271.012V271.972Z" fill="white"/>
<path opacity="0.2" d="M271.012 353.785V271.972H262.831V353.785H271.012Z" fill="black"/>
<path d="M336.462 222.885H303.737V353.785H336.462V222.885Z" fill="#0FA6AF"/>
<path opacity="0.2" d="M336.462 222.885H303.737V353.785H336.462V222.885Z" fill="white"/>
<path opacity="0.2" d="M336.462 353.785V222.885H328.281V353.785H336.462Z" fill="black"/>
<path d="M401.912 157.435H369.187V353.785H401.912V157.435Z" fill="#0FA6AF"/>
<path opacity="0.2" d="M401.912 353.785V157.435H393.731V353.785H401.912Z" fill="black"/>
<path d="M150.589 313.112H107.889L92.4888 306.567H133.76V273.842H199.21V241.117H264.66V192.03H330.11V126.58H385.316V69.5449H402.146V133.125H346.94V198.575H281.49V247.663H216.04V280.388H150.59L150.589 313.112Z" fill="#0FA6AF"/>
<g opacity="0.4">
<path opacity="0.4" d="M150.589 313.112H107.889L92.4888 306.567H133.76V273.842H199.21V241.117H264.66V192.03H330.11V126.58H385.316V69.5449H402.146V133.125H346.94V198.575H281.49V247.663H216.04V280.388H150.59L150.589 313.112Z" fill="white"/>
</g>
<path d="M385.316 126.58V69.5449H402.146V133.125L385.316 126.58Z" fill="#0FA6AF"/>
<path d="M330.109 192.03V126.58L346.939 133.125V198.575L330.109 192.03Z" fill="#0FA6AF"/>
<path d="M264.659 241.117V192.03L281.489 198.575V247.663L264.659 241.117Z" fill="#0FA6AF"/>
<path d="M199.21 273.842V241.117L216.04 247.662V280.387L199.21 273.842Z" fill="#0FA6AF"/>
<path d="M133.76 306.567V273.842L150.59 280.387V313.112L133.76 306.567Z" fill="#0FA6AF"/>
<path d="M374.07 74.2063L393.731 50.5723L413.392 88.5183L374.07 74.2063Z" fill="#0FA6AF"/>
<path d="M194.78 108.587C193.247 111.651 192.012 114.856 191.093 118.157C191.07 118.24 191.047 118.322 191.025 118.405C190.892 118.905 190.625 120.046 190.609 120.105C190.494 120.621 190.387 121.143 190.292 121.671C190.287 121.697 190.092 122.852 190.02 123.411L190 123.6C189.857 124.734 189.751 127.142 189.75 127.191C189.744 127.772 189.757 128.353 189.788 128.936C189.788 128.968 189.882 130.214 189.96 130.804L189.979 130.971C189.972 130.915 189.968 130.86 189.96 130.805C191.484 140.332 192.909 141.578 194.07 145.114C197.491 155.524 200.147 188.521 200.147 188.521C180.368 193.852 156.547 215.552 156.547 215.552L160.825 225.434C160.825 225.434 212.14 201.167 215.78 196.234C220.103 190.379 217.622 159.386 218.98 147.168C219.48 142.646 220.057 138.723 220.629 135.218L227.061 125.305L194.78 108.587Z" fill="#FDBC5A"/>
<path opacity="0.2" d="M204.342 134.667L200.508 130.583C200.508 130.583 193.391 136.497 218.521 158.271C218.554 153.923 218.661 150.034 218.978 147.177C219.02 146.805 219.064 146.46 219.106 146.096L204.342 134.667Z" fill="black"/>
<path d="M157.266 217.313L146.866 222.605L150.073 227.855L159.762 223.563L157.266 217.313Z" fill="#FFC3BD"/>
<path d="M150.518 229.18C150.505 229.149 150.501 229.114 150.507 229.08C150.514 229.046 150.53 229.015 150.554 228.99C150.579 228.966 150.61 228.95 150.644 228.944C150.678 228.938 150.713 228.943 150.744 228.957C150.858 229.011 153.432 230.243 153.844 231.404C153.922 231.619 153.914 231.856 153.821 232.064C153.779 232.188 153.699 232.296 153.592 232.373C153.486 232.449 153.358 232.491 153.227 232.491C152.749 232.467 152.096 231.808 151.593 231.082C151.18 230.481 150.82 229.845 150.518 229.18ZM151.013 229.5C151.631 230.68 152.66 232.147 153.228 232.154C153.302 232.161 153.41 232.139 153.511 231.918C153.543 231.856 153.56 231.786 153.561 231.716C153.562 231.646 153.547 231.576 153.517 231.512C153.481 231.41 153.431 231.313 153.368 231.224C152.699 230.506 151.9 229.921 151.013 229.5Z" fill="#0FA6AF"/>
<path d="M150.475 229.1C150.474 229.07 150.482 229.041 150.496 229.015C150.51 228.989 150.532 228.967 150.557 228.952C151.427 228.436 152.437 228.206 153.445 228.295C153.608 228.339 153.76 228.415 153.892 228.52C154.025 228.624 154.134 228.754 154.215 228.902C154.44 229.309 154.33 229.562 154.181 229.685C153.611 230.264 151.373 229.737 150.581 229.254C150.56 229.242 150.544 229.223 150.536 229.2C150.504 229.176 150.482 229.14 150.475 229.1V229.1ZM153.888 228.991C153.769 228.814 153.589 228.687 153.383 228.633C152.578 228.546 151.766 228.708 151.056 229.097C151.985 229.524 153.613 229.759 153.984 229.449C154.012 229.414 154.101 229.328 153.95 229.065L153.888 228.991V228.991Z" fill="#0FA6AF"/>
<path d="M150.923 228.018L146.51 221.643C146.429 221.526 146.311 221.44 146.175 221.4C146.039 221.359 145.894 221.366 145.762 221.419L139.778 223.856C139.634 223.914 139.505 224.002 139.399 224.116C139.294 224.23 139.216 224.366 139.17 224.514C139.125 224.662 139.113 224.819 139.135 224.972C139.158 225.125 139.214 225.272 139.301 225.4C140.931 227.67 142.472 229.627 144.448 232.491C146.784 235.868 145.787 235.291 148.479 239.3C150.103 241.713 153.124 240.269 152.556 239.163C149.928 234.116 150.996 232.663 151.418 229.724C151.467 229.114 151.291 228.507 150.923 228.018V228.018Z" fill="#FDBC5A"/>
<path opacity="0.2" d="M155.625 218.148L151.725 220.131L154.546 225.872L157.763 224.447L155.625 218.148Z" fill="black"/>
<path d="M156.517 212.276L152.117 214.841L157.632 227.489L162.75 226.067L156.517 212.276Z" fill="#0FA6AF"/>
<path d="M249.4 181.279C249.4 181.279 204.322 143.264 200.485 136.516C196.648 129.768 206.912 120.516 206.912 120.516L218.347 122.116C218.347 122.116 266.512 165.816 264.54 174.568L249.4 181.279Z" fill="#FDBC5A"/>
<path d="M264.535 174.573C263.272 183.451 244.235 226.148 244.235 226.148C244.235 226.148 240.301 225.916 233.102 221.417C233.102 221.417 240.626 187.673 248.263 174.573H264.535Z" fill="#FDBC5A"/>
<path d="M236.344 223.445L232.944 234.609L238.95 235.94L242.578 225.983L236.344 223.445Z" fill="#FFC3BD"/>
<path d="M240.212 236.537C240.18 236.525 240.152 236.503 240.133 236.475C240.113 236.447 240.101 236.413 240.1 236.379C240.099 236.345 240.11 236.311 240.129 236.282C240.148 236.253 240.176 236.231 240.208 236.219C240.326 236.174 242.999 235.175 244.117 235.687C244.326 235.779 244.491 235.949 244.577 236.16C244.638 236.276 244.66 236.409 244.643 236.539C244.625 236.668 244.567 236.79 244.477 236.885C243.81 237.213 243.045 237.284 242.329 237.085C241.609 236.965 240.9 236.782 240.212 236.537V236.537ZM240.786 236.401C242.065 236.775 243.835 237.051 244.234 236.647C244.29 236.599 244.35 236.506 244.26 236.279C244.237 236.213 244.199 236.153 244.149 236.103C244.099 236.054 244.039 236.017 243.972 235.994C243.873 235.948 243.769 235.917 243.661 235.901C242.68 235.885 241.704 236.054 240.786 236.4V236.401Z" fill="#0FA6AF"/>
<path d="M240.126 236.513C240.104 236.493 240.087 236.468 240.079 236.439C240.07 236.411 240.069 236.38 240.076 236.351C240.307 235.366 240.842 234.479 241.606 233.815C241.75 233.729 241.911 233.672 242.077 233.649C242.244 233.626 242.414 233.637 242.576 233.681C243.026 233.801 243.132 234.056 243.118 234.249C243.139 235.061 241.207 236.308 240.309 236.549C240.286 236.556 240.26 236.555 240.238 236.544C240.198 236.548 240.158 236.537 240.126 236.513V236.513ZM242.414 233.978C242.204 233.942 241.988 233.983 241.806 234.093C241.185 234.613 240.738 235.311 240.526 236.093C241.479 235.72 242.776 234.71 242.811 234.228C242.805 234.183 242.805 234.06 242.511 233.986L242.411 233.979L242.414 233.978Z" fill="#0FA6AF"/>
<path d="M239.656 235.439L232 234.2C231.86 234.177 231.716 234.203 231.592 234.273C231.469 234.342 231.373 234.452 231.32 234.584L228.926 240.584C228.867 240.727 228.841 240.882 228.85 241.037C228.859 241.192 228.903 241.342 228.978 241.478C229.053 241.614 229.157 241.731 229.283 241.821C229.409 241.911 229.554 241.971 229.707 241.998C232.473 242.398 234.951 242.646 238.385 243.208C242.439 243.868 241.331 244.186 246.085 245.027C248.95 245.532 250.005 242.353 248.814 241.995C243.356 240.388 243.051 238.612 241.225 236.268C240.821 235.809 240.263 235.514 239.656 235.439V235.439Z" fill="#FDBC5A"/>
<path opacity="0.2" d="M235.807 225.205L234.532 229.388L240.624 231.337L241.824 228.031L235.807 225.205Z" fill="black"/>
<path d="M232.2 220.491L230.994 225.442L243.93 230.242L246.455 225.569L232.2 220.491Z" fill="#0FA6AF"/>
<path d="M180.507 93.236L181.26 86L187.576 87.317L185.431 94.654C185.431 94.654 187.556 98.054 187.393 101.065C187.23 104.076 185.504 103.665 185.504 103.665C185.504 103.665 185.682 106.853 182.972 105.915C180.262 104.977 176.76 103.586 177.352 100.946C178.13 98.2723 179.187 95.6881 180.507 93.236V93.236Z" fill="#FFC3BD"/>
<path d="M226.541 62.7852C224.372 54.6142 199.393 62.4082 199.393 62.4082C199.393 62.4082 187.2 66.3422 184 69.3002C180.786 72.2782 179 89.6572 179 89.6572L187.754 91.5672L193.178 76.6042C217.569 72.4002 228.646 70.7182 226.541 62.7852Z" fill="#0FA6AF"/>
<path d="M187.959 88.7742C187.86 88.8867 187.729 88.9672 187.584 89.0055C187.439 89.0438 187.286 89.0383 187.144 88.9896C187.002 88.9409 186.878 88.8512 186.787 88.7318C186.696 88.6125 186.642 88.4688 186.633 88.319C186.623 88.1693 186.659 88.0201 186.734 87.8903C186.81 87.7606 186.922 87.6561 187.057 87.5901C187.191 87.524 187.343 87.4995 187.491 87.5194C187.64 87.5394 187.78 87.603 187.892 87.7022C188.043 87.8356 188.135 88.0234 188.147 88.2244C188.16 88.4254 188.092 88.6231 187.959 88.7742V88.7742Z" fill="white"/>
<path opacity="0.1" d="M220.234 67.7273L220.29 60.0073C220.29 60.0073 215.038 59.1073 207.052 74.1603C210.639 73.4823 213.74 72.8283 216.352 72.1363L220.234 67.7273Z" fill="black"/>
<path d="M252.4 47.939L253.423 52.788C252.855 52.9066 252.266 52.8903 251.705 52.7405C251.144 52.5906 250.626 52.3113 250.193 51.925L252.4 47.939Z" fill="#BA4D3C"/>
<path d="M253.473 46.019C253.431 46.525 253.134 46.919 252.802 46.888C252.47 46.857 252.216 46.406 252.271 45.915C252.326 45.424 252.61 45.015 252.942 45.051C253.274 45.087 253.51 45.514 253.473 46.019Z" fill="#FDBC5A"/>
<path d="M230.189 61.4559C230.189 61.4559 234.53 61.7729 235.851 53.9169C235.851 53.9169 240.107 52.8169 242.251 55.5849C244.395 58.3529 238.58 62.9099 241.345 65.7489C244.11 68.5879 230.189 61.4559 230.189 61.4559Z" fill="#FFC3BD"/>
<path opacity="0.2" d="M239.334 58.3433C239.808 59.4849 240.422 60.5626 241.164 61.5513C241.564 60.5743 242.087 59.5793 242.416 58.6323L239.334 58.3433Z" fill="black"/>
<path d="M234.064 42.3709C233.205 49.0709 232.697 51.8929 235.392 55.9299C239.842 60.3669 247.874 61.5989 250.717 55.2849C253.277 49.6049 254.247 39.6269 248.269 35.7149C246.954 34.8547 245.44 34.345 243.872 34.2343C242.304 34.1236 240.734 34.4156 239.311 35.0825C237.888 35.7494 236.658 36.7691 235.74 38.0447C234.822 39.3204 234.245 40.8096 234.064 42.3709V42.3709Z" fill="#FFC3BD"/>
<path d="M251.327 43.3183C251.36 43.3473 251.4 43.3681 251.442 43.3788C251.485 43.3896 251.53 43.3901 251.573 43.3803C251.891 43.2872 252.227 43.2713 252.552 43.3337C252.878 43.3961 253.184 43.5351 253.445 43.7393C253.497 43.7862 253.565 43.811 253.634 43.8082C253.704 43.8054 253.77 43.7752 253.818 43.7243C253.864 43.6714 253.889 43.6026 253.885 43.5323C253.882 43.462 253.852 43.3957 253.801 43.3473C253.476 43.082 253.091 42.8995 252.68 42.8152C252.269 42.7309 251.843 42.7474 251.44 42.8633C251.372 42.8809 251.313 42.9249 251.277 42.9856C251.241 43.0464 251.231 43.1188 251.248 43.1873V43.1873C251.262 43.2374 251.289 43.2827 251.327 43.3183V43.3183Z" fill="#FDBC5A"/>
<path d="M247.258 48.6049L249.636 48.4689C249.317 47.5113 249.254 46.4869 249.453 45.4973C249.651 44.5077 250.105 43.5872 250.769 42.8269C253.069 39.8689 258.733 38.2939 254.141 33.1669C252.874 31.6889 251.279 30.5268 249.484 29.773C247.689 29.0193 245.743 28.6946 243.8 28.8249L247.613 31.5569C247.613 31.5569 239.75 25.7859 235.113 32.0569C236.258 31.6951 237.491 31.719 238.621 32.1249C238.621 32.1249 217.745 39.1809 235.385 55.9299C235.385 55.9299 236.054 54.5709 238.871 56.7849C240.876 55.4005 242.55 53.5887 243.771 51.4799C245.469 48.2869 246.667 45.2939 247.258 48.6049Z" fill="#FDBC5A"/>
<path d="M247.164 46.351C247.583 46.8907 247.891 47.5078 248.071 48.167C248.25 48.8262 248.298 49.5143 248.211 50.192C247.963 52.006 246.157 52.203 244.819 51.106C243.606 50.114 242.291 47.979 243.219 46.439C243.425 46.1049 243.711 45.8277 244.051 45.6326C244.391 45.4374 244.775 45.3306 245.167 45.3219C245.56 45.3131 245.948 45.4027 246.297 45.5825C246.645 45.7622 246.943 46.0264 247.164 46.351V46.351Z" fill="#FFC3BD"/>
<path d="M256.377 35C256.377 35 256.986 38.639 251.267 40.8C251.267 40.8 259.227 41.613 256.377 35Z" fill="#FDBC5A"/>
<path d="M229.582 62.4732L231.849 59.5732C231.849 59.5732 242.729 60.5652 243.389 66.7452L229.582 62.4732Z" fill="#0FA6AF"/>
<path opacity="0.5" d="M229.582 62.4732L231.849 59.5732C231.849 59.5732 242.729 60.5652 243.389 66.7452L229.582 62.4732Z" fill="white"/>
<path d="M205.613 87.5443C208.613 80.0823 213.444 60.2623 221.133 59.3593C228.822 58.4563 250.928 67.2903 253.533 75.1483C256.138 83.0063 225.866 127.723 225.866 127.723L193.74 110.032C193.74 110.032 203.24 93.4413 205.613 87.5443Z" fill="#0FA6AF"/>
<path opacity="0.1" d="M243.368 72.5591C243.368 72.5591 237.54 83.6781 244.568 97.6831C247.208 93.1144 249.586 88.3987 251.69 83.5591L249.219 77.7171L243.368 72.5591Z" fill="black"/>
<path d="M211.189 88.293C215.394 88.917 220.004 87.676 223.743 85.853C228.021 83.767 231.195 80.632 234.335 77.13C237.135 74.005 240.898 70.438 245.273 69.855C255.192 68.535 257.311 84.355 256.273 91.255C255.039 99.46 250.429 106.972 245.379 113.384C242.39 117.253 239.054 120.841 235.413 124.103C234.23 125.141 236.08 126.751 237.251 125.724C246.726 117.412 255.93 105.637 258.442 93.077C259.958 85.497 258.042 74.687 251.294 69.777C245.18 65.332 238.43 69.438 233.963 73.938C228.007 79.938 221.119 87.289 211.663 85.885C210.109 85.654 209.626 88.058 211.192 88.285L211.189 88.293Z" fill="#0FA6AF"/>
<g opacity="0.3">
<path opacity="0.3" d="M211.189 88.293C215.394 88.917 220.004 87.676 223.743 85.853C228.021 83.767 231.195 80.632 234.335 77.13C237.135 74.005 240.898 70.438 245.273 69.855C255.192 68.535 257.311 84.355 256.273 91.255C255.039 99.46 250.429 106.972 245.379 113.384C242.39 117.253 239.054 120.841 235.413 124.103C234.23 125.141 236.08 126.751 237.251 125.724C246.726 117.412 255.93 105.637 258.442 93.077C259.958 85.497 258.042 74.687 251.294 69.777C245.18 65.332 238.43 69.438 233.963 73.938C228.007 79.938 221.119 87.289 211.663 85.885C210.109 85.654 209.626 88.058 211.192 88.285L211.189 88.293Z" fill="black"/>
</g>
<path d="M282.571 101.63L275.824 103.923L274.902 98.835L281.818 96.665C281.818 96.665 283.19 93.091 285.937 92.002C288.684 90.913 289.809 92.908 289.809 92.908C289.809 92.908 292.575 91.443 292.85 94.239C293.125 97.035 293.033 101.508 290.44 102.063C287.847 102.618 284.845 101.663 282.571 101.63Z" fill="#FFC3BD"/>
<path d="M278.971 96.1549L264.733 98.3999C255.379 76.4899 251.314 66.8059 244.207 70.5999C236.749 74.5839 249.981 95.8409 249.981 95.8409C249.981 95.8409 256.263 107.374 259.593 110.222C259.794 110.409 260.024 110.562 260.274 110.675C264.503 111.822 280.457 104.14 280.457 104.14L278.971 96.1549Z" fill="#0FA6AF"/>
<path d="M278.969 103.939C278.87 104.052 278.739 104.133 278.594 104.172C278.448 104.21 278.295 104.205 278.153 104.156C278.01 104.108 277.886 104.018 277.794 103.899C277.703 103.779 277.649 103.635 277.64 103.485C277.63 103.335 277.665 103.186 277.741 103.056C277.816 102.926 277.929 102.821 278.064 102.755C278.199 102.689 278.35 102.664 278.499 102.684C278.648 102.704 278.788 102.768 278.901 102.867C279.052 103 279.144 103.188 279.157 103.389C279.169 103.59 279.102 103.788 278.969 103.939Z" fill="white"/>
<path d="M213.268 87.3283L237.361 122.114C237.604 122.464 237.775 122.859 237.865 123.275C237.955 123.691 237.962 124.121 237.886 124.54C237.81 124.959 237.653 125.359 237.422 125.717C237.191 126.075 236.893 126.384 236.542 126.626L218.699 138.985C217.481 139.829 215.978 140.154 214.521 139.889C213.063 139.624 211.771 138.792 210.927 137.574L189.501 106.639C188.658 105.422 188.333 103.919 188.598 102.461C188.862 101.004 189.695 99.7114 190.913 98.868L208.757 86.509C209.464 86.0194 210.336 85.8307 211.182 85.9844C212.028 86.138 212.778 86.6214 213.268 87.3283V87.3283Z" fill="#0FA6AF"/>
<path opacity="0.3" d="M213.268 87.3283L237.361 122.114C237.604 122.464 237.775 122.859 237.865 123.275C237.955 123.691 237.962 124.121 237.886 124.54C237.81 124.959 237.653 125.359 237.422 125.717C237.191 126.075 236.893 126.384 236.542 126.626L218.699 138.985C217.481 139.829 215.978 140.154 214.521 139.889C213.063 139.624 211.771 138.792 210.927 137.574L189.501 106.639C188.658 105.422 188.333 103.919 188.598 102.461C188.862 101.004 189.695 99.7114 190.913 98.868L208.757 86.509C209.464 86.0194 210.336 85.8307 211.182 85.9844C212.028 86.138 212.778 86.6214 213.268 87.3283V87.3283Z" fill="white"/>
<path opacity="0.1" d="M235.5 124.3L210.527 88.2452C210.342 87.9786 210.107 87.7509 209.834 87.5752C209.561 87.3996 209.257 87.2793 208.938 87.2214C208.618 87.1634 208.291 87.1689 207.974 87.2375C207.657 87.3061 207.356 87.4365 207.09 87.6212L206.345 88.1372C205.594 88.6574 204.952 89.3205 204.457 90.0885C203.963 90.8566 203.624 91.7146 203.461 92.6136C203.297 93.5126 203.313 94.4349 203.506 95.3279C203.699 96.2209 204.066 97.0671 204.587 97.8182L224.449 126.495C224.969 127.246 225.632 127.888 226.4 128.383C227.168 128.877 228.026 129.216 228.925 129.379C229.824 129.543 230.746 129.527 231.639 129.334C232.532 129.141 233.379 128.774 234.13 128.253L234.875 127.737C235.413 127.364 235.782 126.793 235.899 126.148C236.016 125.504 235.872 124.839 235.5 124.3Z" fill="black"/>
<path d="M237.8 122.748L212.828 86.6941C212.643 86.4274 212.408 86.1996 212.135 86.0239C211.863 85.8481 211.558 85.7278 211.239 85.6697C210.92 85.6117 210.592 85.6171 210.275 85.6856C209.958 85.7542 209.658 85.8845 209.391 86.0691L208.646 86.5861C207.895 87.1063 207.254 87.7694 206.759 88.5374C206.264 89.3055 205.925 90.1635 205.762 91.0625C205.599 91.9615 205.614 92.8838 205.807 93.7768C206.001 94.6699 206.368 95.5161 206.888 96.2671L226.75 124.944C227.801 126.461 229.411 127.498 231.226 127.828C233.042 128.158 234.914 127.753 236.431 126.702L237.176 126.185C237.443 126.001 237.671 125.765 237.846 125.492C238.022 125.22 238.142 124.915 238.2 124.596C238.258 124.277 238.253 123.949 238.184 123.632C238.115 123.315 237.985 123.015 237.8 122.748Z" fill="#0FA6AF"/>
<path d="M237.8 122.748L212.828 86.6941C212.643 86.4274 212.408 86.1996 212.135 86.0239C211.863 85.8481 211.558 85.7278 211.239 85.6697C210.92 85.6117 210.592 85.6171 210.275 85.6856C209.958 85.7542 209.658 85.8845 209.391 86.0691L208.646 86.5861C207.895 87.1063 207.254 87.7694 206.759 88.5374C206.264 89.3055 205.925 90.1635 205.762 91.0625C205.599 91.9615 205.614 92.8838 205.807 93.7768C206.001 94.6699 206.368 95.5161 206.888 96.2671L226.75 124.944C227.801 126.461 229.411 127.498 231.226 127.828C233.042 128.158 234.914 127.753 236.431 126.702L237.176 126.185C237.443 126.001 237.671 125.765 237.846 125.492C238.022 125.22 238.142 124.915 238.2 124.596C238.258 124.277 238.253 123.949 238.184 123.632C238.115 123.315 237.985 123.015 237.8 122.748Z" fill="#0FA6AF"/>
<path opacity="0.5" d="M237.8 122.748L212.828 86.6941C212.643 86.4274 212.408 86.1996 212.135 86.0239C211.863 85.8481 211.558 85.7278 211.239 85.6697C210.92 85.6117 210.592 85.6171 210.275 85.6856C209.958 85.7542 209.658 85.8845 209.391 86.0691L208.646 86.5861C207.895 87.1063 207.254 87.7694 206.759 88.5374C206.264 89.3055 205.925 90.1635 205.762 91.0625C205.599 91.9615 205.614 92.8838 205.807 93.7768C206.001 94.6699 206.368 95.5161 206.888 96.2671L226.75 124.944C227.801 126.461 229.411 127.498 231.226 127.828C233.042 128.158 234.914 127.753 236.431 126.702L237.176 126.185C237.443 126.001 237.671 125.765 237.846 125.492C238.022 125.22 238.142 124.915 238.2 124.596C238.258 124.277 238.253 123.949 238.184 123.632C238.115 123.315 237.985 123.015 237.8 122.748Z" fill="white"/>
<path d="M213.757 98.8641L213.319 98.232C212.706 97.3472 211.493 97.1264 210.608 97.7389L205.748 101.103C204.863 101.715 204.643 102.929 205.255 103.814L205.693 104.446C206.305 105.331 207.519 105.552 208.404 104.939L213.263 101.575C214.148 100.963 214.369 99.7489 213.757 98.8641Z" fill="#0FA6AF"/>
<path d="M226.77 117.65L227.207 118.281C227.502 118.706 227.616 119.231 227.524 119.739C227.432 120.248 227.141 120.699 226.716 120.994L221.857 124.364C221.432 124.659 220.907 124.772 220.398 124.68C219.89 124.588 219.438 124.298 219.144 123.873L218.705 123.241C218.411 122.816 218.297 122.291 218.389 121.782C218.481 121.274 218.772 120.822 219.196 120.528L224.055 117.158C224.48 116.864 225.005 116.75 225.514 116.842C226.023 116.934 226.475 117.225 226.77 117.65V117.65Z" fill="#0FA6AF"/>
<path opacity="0.3" d="M213.757 98.8641L213.319 98.232C212.706 97.3472 211.493 97.1264 210.608 97.7389L205.748 101.103C204.863 101.715 204.643 102.929 205.255 103.814L205.693 104.446C206.305 105.331 207.519 105.552 208.404 104.939L213.263 101.575C214.148 100.963 214.369 99.7489 213.757 98.8641Z" fill="black"/>
<path opacity="0.3" d="M226.77 117.65L227.207 118.281C227.502 118.706 227.616 119.231 227.524 119.739C227.432 120.248 227.141 120.699 226.716 120.994L221.857 124.364C221.432 124.659 220.907 124.772 220.398 124.68C219.89 124.588 219.438 124.298 219.144 123.873L218.705 123.241C218.411 122.816 218.297 122.291 218.389 121.782C218.481 121.274 218.772 120.822 219.196 120.528L224.055 117.158C224.48 116.864 225.005 116.75 225.514 116.842C226.023 116.934 226.475 117.225 226.77 117.65V117.65Z" fill="black"/>
<path opacity="0.2" d="M190.66 108.312C190.66 108.312 198.995 122.045 206.152 117.993L200.214 122.106L190.66 108.312Z" fill="black"/>
<path d="M221.922 100.836C223.866 100.558 224.934 99.4632 226.585 98.6922C227.712 98.1652 226.371 97.6922 227.37 98.6222C227.706 99.009 227.993 99.4355 228.226 99.8922C228.897 100.954 229.467 102.08 230.163 103.126C230.763 104.026 232.322 104.981 232.71 105.899C233.343 107.399 230.088 109.499 229.155 110.266C228.025 111.193 229.317 113.08 230.455 112.145C232.083 110.81 235.313 108.669 235.198 106.188C235.127 104.649 233.777 103.938 232.849 102.913C231.099 100.981 230.396 97.5412 228.074 96.1532C227.743 95.9267 227.353 95.8033 226.952 95.7985C226.552 95.7937 226.159 95.9077 225.823 96.1262C224.917 96.6262 224.494 97.6112 223.453 98.0682C222.908 98.3062 222.333 98.4703 221.745 98.5562C220.293 98.7632 220.462 101.044 221.921 100.836H221.922Z" fill="#0FA6AF"/>
<g opacity="0.3">
<path opacity="0.3" d="M221.922 100.836C223.866 100.558 224.934 99.4632 226.585 98.6922C227.712 98.1652 226.371 97.6922 227.37 98.6222C227.706 99.009 227.993 99.4355 228.226 99.8922C228.897 100.954 229.467 102.08 230.163 103.126C230.763 104.026 232.322 104.981 232.71 105.899C233.343 107.399 230.088 109.499 229.155 110.266C228.025 111.193 229.317 113.08 230.455 112.145C232.083 110.81 235.313 108.669 235.198 106.188C235.127 104.649 233.777 103.938 232.849 102.913C231.099 100.981 230.396 97.5412 228.074 96.1532C227.743 95.9267 227.353 95.8033 226.952 95.7985C226.552 95.7937 226.159 95.9077 225.823 96.1262C224.917 96.6262 224.494 97.6112 223.453 98.0682C222.908 98.3062 222.333 98.4703 221.745 98.5562C220.293 98.7632 220.462 101.044 221.921 100.836H221.922Z" fill="black"/>
</g>
</svg>
