<svg width="459" height="444" fill="none" xmlns="http://www.w3.org/2000/svg"><path d="M17.679 262.349s9-2.96 13.319 17.823c4.319 20.783 4.965 32.265 4.965 32.265s1.413 4.494 4.72 2.712c3.309-1.782 8.84-7.886 12.955-5.391 4.267 2.587 4.38 8.169 1.425 15.518-2.956 7.349-8.84 23.69-9.366 25.169-.517 1.452-.265 3.869 2.183 3.017 2.448-.852 17.913-10.82 22.2-3.2 4.287 7.62-7.308 26.743-8.535 28.858-1.227 2.115-1.048 3.21-.12 4.07.93.86 5.812-2.98 10.327-5.635s10.215-4.942 12.322-.337c2.107 4.605-1.142 20.441-22.857 41.676l-10.706 9.18-13.438-4.483C8.9 412.244-.138 398.844.053 393.783c.19-5.061 6.333-5.12 11.519-4.387 5.186.733 11.164 2.42 11.695 1.271.53-1.149.279-2.231-1.662-3.718-1.941-1.487-19.956-14.739-18.9-23.421 1.056-8.682 19.157-5.366 21.745-5.511 2.588-.145 1.9-2.476.868-3.622C24.27 353.228 12.6 340.368 7.064 334.7c-5.536-5.668-7.56-10.87-4.6-14.889 2.852-3.876 10.294-.342 14.03.044 3.738.386 3.332-4.308 3.332-4.308s-3.78-10.863-7.717-31.72 5.756-21.527 5.756-21.527" fill="#F5F5F5"/><path d="M50.59 425.11c-2.948-15.307-7.2-36.42-11.976-59.726-4.775-23.306-9.079-44.396-12.114-59.684l-3.576-18.111-.978-4.923c-.113-.545-.2-.97-.266-1.278a6.354 6.354 0 00-.107-.432s.012.151.06.441c.051.311.124.738.218 1.287l.89 4.941c.776 4.289 1.947 10.487 3.423 18.14 2.948 15.308 7.2 36.418 11.974 59.716 4.774 23.298 9.081 44.407 12.114 59.7" fill="#E0E0E0"/><path d="M46.243 318.61a4.118 4.118 0 00-.6.825 75.92 75.92 0 00-1.474 2.352c-1.213 2.005-2.816 4.819-4.527 7.956l-4.344 8.051-1.326 2.433a4.167 4.167 0 00-.448.917c.237-.247.441-.522.61-.82a61.76 61.76 0 001.462-2.361c1.194-2.018 2.76-4.851 4.47-7.988 1.69-3.079 3.217-5.863 4.4-8.016l1.34-2.428c.183-.288.33-.597.437-.921zM32.207 341.044c.069-.113-5.582-3.678-12.622-7.961S6.78 325.421 6.71 325.534c-.07.113 5.58 3.679 12.623 7.962 7.042 4.283 12.804 7.662 12.873 7.548zM41.153 376.5a4.31 4.31 0 00-.99-.329l-2.73-.743c-2.305-.629-5.485-1.507-8.958-2.6a240.059 240.059 0 01-8.84-2.985l-2.666-.951a4.314 4.314 0 00-1-.3c.29.194.602.352.93.471.61.274 1.5.653 2.614 1.1 2.222.89 5.327 2.036 8.816 3.127a131.15 131.15 0 009.019 2.473c1.167.268 2.113.473 2.772.6.337.087.684.133 1.033.137zM58.316 359c-.274.17-.526.375-.747.61-.459.415-1.111 1.026-1.91 1.789a448.303 448.303 0 00-6.172 6.034 461.513 461.513 0 00-6.073 6.135 94.214 94.214 0 00-1.8 1.9c-.236.22-.443.47-.615.743.275-.169.526-.374.747-.609a104.55 104.55 0 001.91-1.79c1.6-1.526 3.781-3.658 6.173-6.034a455.273 455.273 0 006.072-6.134 94.214 94.214 0 001.8-1.9c.236-.221.443-.471.615-.744zM70.19 389.3a6.106 6.106 0 00-.946.791l-2.455 2.286a760.088 760.088 0 00-7.97 7.672 764.833 764.833 0 00-7.873 7.774l-2.346 2.392c-.302.28-.575.59-.814.926.342-.231.659-.496.946-.791l2.454-2.285a760.337 760.337 0 007.971-7.673 764.767 764.767 0 007.872-7.773l2.347-2.4c.302-.278.575-.586.814-.919zM48.173 410.468a6.94 6.94 0 00-1.243-.446l-3.43-1.065c-2.894-.9-6.888-2.157-11.258-3.665-4.37-1.508-8.3-2.964-11.132-4.04l-3.358-1.27a6.832 6.832 0 00-1.254-.414c.374.234.77.431 1.182.588.774.35 1.9.837 3.305 1.414a200.842 200.842 0 0011.1 4.178c4.383 1.505 8.4 2.719 11.319 3.536 1.462.406 2.649.721 3.475.919.422.129.855.218 1.294.265zM427.331 22.648h-93.627v135.708h93.627V22.648z" fill="#E0E0E0"/><path d="M422.641 22.648h-93.627v135.708h93.627V22.648z" fill="#F5F5F5"/><path d="M411.008 37.346h-70.362v106.312h70.362V37.346z" fill="#fff"/><path d="M411.007 143.658s-.009-.18-.014-.52c-.005-.34-.008-.852-.014-1.507l-.028-5.831-.063-21.9-.115-76.554.234.234-70.354.02h-.008l.255-.254-.052 106.312-.2-.2 51.214.107 14.15.052 3.714.022c.841.008 1.284.022 1.284.022s-.414.015-1.242.022l-3.676.023-14.1.051-51.34.107h-.2v-.2L340.4 37.352v-.254h.263l70.354.02h.234v.234l-.115 76.707-.063 21.847-.029 5.784-.013 1.482c-.003.345-.024.486-.024.486z" fill="#E0E0E0"/><path d="M422.899 22.648a16.12 16.12 0 01-1.669 2.425 156.77 156.77 0 01-4.393 5.572 157.67 157.67 0 01-4.627 5.38 16.188 16.188 0 01-2.06 2.1 17.472 17.472 0 011.787-2.337l4.507-5.469 4.5-5.471a17.592 17.592 0 011.955-2.2z" fill="#E0E0E0"/><path d="M411.366 143.316a87.22 87.22 0 0012.272 15.348z" fill="#fff"/><path d="M423.638 158.664a14.005 14.005 0 01-2.139-1.947 68.63 68.63 0 01-8.7-10.886 14.122 14.122 0 01-1.428-2.515c.633.727 1.21 1.5 1.727 2.313a127.612 127.612 0 004.174 5.549 123.95 123.95 0 004.495 5.293 19.272 19.272 0 011.871 2.193z" fill="#E0E0E0"/><path d="M329 158.249l12.264-15.131z" fill="#fff"/><path d="M341.264 143.118a93.416 93.416 0 01-5.934 7.725 93.587 93.587 0 01-6.33 7.406 93.264 93.264 0 015.934-7.726 92.977 92.977 0 016.33-7.405zM329.014 22.648a84.952 84.952 0 015.952 7.116 84.704 84.704 0 015.553 7.432 84.486 84.486 0 01-5.952-7.116 84.339 84.339 0 01-5.553-7.432zM389.085 58.932h-23.56v66.893h23.56V58.932zM133.42.967v74.775H26.023L22.154 1.49 133.42.967z" fill="#E0E0E0"/><path d="M22.154 1.491v74.094h107.397V1.491H22.154z" fill="#fff"/><path d="M130.061 76.094H21.645V.981h108.416v75.113zm-107.4-1.019h106.382V2H22.664l-.004 73.075z" fill="#E0E0E0"/><path d="M117.92 10.696H33.787v55.683h84.133V10.696z" fill="#fff"/><path d="M117.92 10.7s-.145.01-.415.014l-1.2.015-4.621.029-17.337.066-60.564.119.243-.243.022 55.676v.007l-.265-.265 84.133.054-.211.21.111-40.513.054-11.2.023-2.943c.008-.668.023-1.022.023-1.022s.015.324.023.977l.024 2.9.053 11.155.111 40.646v.21h-.212l-84.133.054h-.266v-.273l.022-55.676v-.244h.244l60.723.119 17.283.066 4.572.029 1.169.015c.265.004.391.018.391.018z" fill="#E0E0E0"/><path d="M22.154 1.282c.661.322 1.28.724 1.845 1.196 1.1.794 2.6 1.919 4.211 3.21a85.246 85.246 0 014.037 3.434 8.74 8.74 0 011.54 1.578c-.1.113-2.683-2.017-5.908-4.592a58.758 58.758 0 01-5.725-4.826zM129.552 1.49A52.089 52.089 0 01123.9 6.3a52.153 52.153 0 01-5.981 4.4 52.106 52.106 0 015.651-4.811 52.187 52.187 0 015.982-4.4z" fill="#E0E0E0"/><path d="M129.467 75.6l-11.975-9.705z" fill="#fff"/><path d="M117.492 65.89a56.052 56.052 0 016.154 4.646 56.249 56.249 0 015.821 5.059 56.16 56.16 0 01-6.155-4.646 56.294 56.294 0 01-5.82-5.06zM22.154 75.585a50.94 50.94 0 015.592-4.761 50.91 50.91 0 015.921-4.345 50.94 50.94 0 01-5.592 4.761 51.053 51.053 0 01-5.92 4.345zM50.87 28.044v18.645h52.937V28.044H50.869z" fill="#E0E0E0"/><path d="M384.714 249.244a37.74 37.74 0 01-57.92-7.164 37.74 37.74 0 011.074-41.935 37.74 37.74 0 0139.162-15.032 37.73 37.73 0 0119.049 10.843 37.702 37.702 0 01-1.365 53.288z" fill="#EBEBEB"/><path d="M378.536 242.727a28.75 28.75 0 01-31.497 5.457 28.755 28.755 0 0118.022-54.329 28.748 28.748 0 0114.516 8.263A28.715 28.715 0 01385 233.571a28.725 28.725 0 01-6.464 9.156z" fill="#F5F5F5"/><path d="M379.187 242.1c-.125-.122.707-1.079 1.987-2.93a30.546 30.546 0 004.115-8.471 29.371 29.371 0 001.173-6.358 28.804 28.804 0 00-.447-7.374 28.265 28.265 0 00-2.667-7.686 27.913 27.913 0 00-2.274-3.659 30.55 30.55 0 00-2.9-3.364 30.89 30.89 0 00-3.39-2.866 28.185 28.185 0 00-11.391-4.841 28.733 28.733 0 00-7.378-.378c-2.154.177-4.283.59-6.347 1.232a30.506 30.506 0 00-8.429 4.2c-1.838 1.3-2.788 2.138-2.911 2.014-.093-.089.651-1.139 2.38-2.688a26.57 26.57 0 018.455-4.994 29.037 29.037 0 016.673-1.577 29.365 29.365 0 017.895.2c1.416.222 2.812.554 4.176.992a28.083 28.083 0 014.16 1.677 28.957 28.957 0 013.99 2.389 29.453 29.453 0 019.205 10.687 29.227 29.227 0 012.745 8.31 28.798 28.798 0 01-1.244 14.581 26.625 26.625 0 01-4.914 8.5c-1.529 1.745-2.572 2.498-2.662 2.404z" fill="#E0E0E0"/><path d="M348.542 236.016l-3.585 3.5-3.122-3.2 3.488-3.4c-2.9-3.357-4.875-7.366-5.215-10.469l5.623-2.051a18.091 18.091 0 003.786 8.429l5.347-5.217c-2.6-4.4-5.292-9.521-.713-13.988 3.393-3.31 8.711-3.687 14.221.809l3.554-3.468 3.124 3.2-3.491 3.4a20.208 20.208 0 014.388 8.4l-5.5 2.242a18.307 18.307 0 00-3.114-6.523l-5.442 5.311c2.635 4.364 5.26 9.427.747 13.83-3.329 3.25-8.584 3.628-14.096-.805zm11.028-17.006l4.544-4.435c-2.039-1.322-3.623-1.088-4.68-.057-1.119 1.093-.792 2.647.136 4.492zm-2.344 13.035c1.121-1.1.823-2.615-.039-4.462l-4.418 4.311c1.913 1.257 3.43 1.15 4.457.151z" fill="#E0E0E0"/><path d="M236.873 293.987a39.613 39.613 0 01-11.046 42.635 39.615 39.615 0 01-43.62 6.085 39.623 39.623 0 014.289-73.1 39.577 39.577 0 0150.377 24.38z" fill="#EBEBEB"/><path d="M227.966 297.073a30.197 30.197 0 01-8.418 32.491 30.194 30.194 0 01-50.23-24.309 30.194 30.194 0 0120.258-26.761 30.155 30.155 0 0138.39 18.579z" fill="#F5F5F5"/><path d="M227.649 296.181c-.171.067-.726-1.143-1.943-3.169a31.975 31.975 0 00-6.32-7.6 30.856 30.856 0 00-5.573-3.876 30.296 30.296 0 00-7.247-2.765 29.652 29.652 0 00-8.506-.777 29.328 29.328 0 00-4.485.591 29.5 29.5 0 00-8.68 3.314 29.468 29.468 0 00-9.559 8.802 30.17 30.17 0 00-3.556 6.892 30.993 30.993 0 00-1.57 6.6 32.045 32.045 0 00.362 9.879c.445 2.32.839 3.593.666 3.656-.125.051-.807-1.116-1.54-3.44a27.936 27.936 0 01-1.116-10.25 30.258 30.258 0 014.988-14.531 29.187 29.187 0 012.756-3.565 29.688 29.688 0 013.4-3.253 30.958 30.958 0 0118.221-6.957 30.825 30.825 0 019.137.973 30.23 30.23 0 0113.408 7.5 27.95 27.95 0 016.006 8.383c1.009 2.222 1.278 3.547 1.151 3.593z" fill="#E0E0E0"/><path d="M208.56 322.855l1.794 4.945-4.415 1.6-1.745-4.811c-4.466 1.319-9.156 1.473-12.272.455l.473-6.266c3.176.849 6.519.858 9.7.028l-2.675-7.373c-5.332.587-11.4.939-13.687-5.374-1.7-4.68.245-9.929 6.931-13.253l-1.778-4.9 4.415-1.6 1.745 4.813a21.24 21.24 0 019.937-.559l-.237 6.231a19.247 19.247 0 00-7.587.153l2.723 7.506c5.315-.631 11.294-.949 13.551 5.274 1.667 4.589-.247 9.776-6.873 13.131zm-11.491-17.911l-2.275-6.267c-2.146 1.378-2.609 2.995-2.081 4.452.561 1.544 2.187 1.903 4.356 1.815zm11.452 7.886c-.561-1.546-2.145-1.919-4.284-1.895l2.21 6.093c2.031-1.286 2.586-2.786 2.074-4.198z" fill="#E0E0E0"/><path d="M86.364 196.145A33.253 33.253 0 1152.7 163.386a33.216 33.216 0 0133.664 32.759z" fill="#EBEBEB"/><path d="M78.452 196.244a25.34 25.34 0 01-29.938 25.296 25.346 25.346 0 01-20.189-19.648A25.342 25.342 0 0152.8 171.279a25.31 25.31 0 0125.652 24.965z" fill="#F5F5F5"/><path d="M78.435 195.45c-.153.008-.275-1.1-.708-3.039a26.863 26.863 0 00-3.02-7.73 25.919 25.919 0 00-3.412-4.563A25.316 25.316 0 0066.256 176a24.819 24.819 0 00-28.032 1.23 25.344 25.344 0 00-4.658 4.548 25.93 25.93 0 00-3 4.844 26.9 26.9 0 00-2.328 7.964c-.26 1.965-.284 3.083-.438 3.088-.113.007-.348-1.1-.316-3.148a23.46 23.46 0 011.826-8.459 25.408 25.408 0 017.821-10.252 25.802 25.802 0 0110.646-4.953 25.93 25.93 0 018.4-.368 25.7 25.7 0 014.02.8 25.828 25.828 0 017.02 3.2 25.381 25.381 0 018.69 9.527 23.48 23.48 0 012.563 8.267c.215 2.033.08 3.158-.035 3.162z" fill="#E0E0E0"/><path d="M56.168 211.638l.119 4.413-3.94.106-.115-4.294c-3.907-.132-7.683-1.251-9.9-2.888l2.037-4.865a15.935 15.935 0 007.719 2.592l-.178-6.581c-4.4-.944-9.326-2.271-9.478-7.9-.112-4.176 2.825-7.843 9.03-8.719l-.117-4.374 3.94-.107.115 4.3c2.823.08 5.586.829 8.062 2.187l-1.838 4.9a16.185 16.185 0 00-6.084-1.888l.181 6.7c4.4.9 9.246 2.235 9.4 7.789.111 4.091-2.788 7.714-8.953 8.629zM51.76 194.33l-.152-5.594c-2.075.529-2.871 1.694-2.837 3 .038 1.373 1.24 2.091 2.989 2.594zm7.032 9.314c-.037-1.38-1.2-2.1-2.91-2.644l.146 5.437c1.959-.485 2.798-1.537 2.764-2.793z" fill="#E0E0E0"/><path d="M243.847 52.875a29.231 29.231 0 00-10.752-39.466 29.235 29.235 0 00-14.385-4.01c-2.593.001-5.174.355-7.671 1.053a29.271 29.271 0 0121.172 28.126 29.269 29.269 0 01-21.172 28.126 28.539 28.539 0 0022.948-3.381l13.566 5.245-3.706-15.693z" fill="#EBEBEB"/><path d="M431.374 428.075c0 .144-95.091.261-212.364.261-117.314 0-212.384-.117-212.384-.261 0-.144 95.07-.26 212.384-.26 117.273 0 212.364.117 212.364.26z" fill="#1C2E5C"/><path d="M121.085 395.966l.816 24.886 6.322 19.5a2.558 2.558 0 01-.195 2.023 2.555 2.555 0 01-1.612 1.238 2.537 2.537 0 01-2.274-.532c-4-3.428-18.637-16.108-18.6-17.933.049-2.113-2.6-26.193-2.6-26.193l18.143-2.989z" fill="#FDBC5A"/><path d="M126.417 443.611l-20.962-20.142.058 1.053c.049.91.421 1.774 1.048 2.436 1.682 1.767 6.433 6.545 17.506 16.126a2.557 2.557 0 002.35.527z" fill="#E0E0E0"/><path d="M110.11 415.165a1.54 1.54 0 01.534 1.989 1.483 1.483 0 01-1.967.547 1.633 1.633 0 01-.555-2.11 1.543 1.543 0 012.109-.342" fill="#fff"/><path d="M120.129 433.065c.144.061.632-1.272 2.072-2.055a7.768 7.768 0 012.832-.707c.018-.062-.307-.238-.894-.288a4.075 4.075 0 00-3.793 2.137c-.261.527-.28.896-.217.913zM122.084 436.3c.125.1.877-.752 2.143-1.192a20.772 20.772 0 012.41-.448 2.833 2.833 0 00-2.6-.066c-1.438.506-2.086 1.642-1.953 1.706zM116.6 428.982a25.26 25.26 0 013.182-2.062 25.295 25.295 0 013.64-1.066 6.962 6.962 0 00-3.868.568 6.963 6.963 0 00-2.954 2.56zM115.714 421.438c.075.145 1.417-.506 3.2-.67 1.782-.188 3.224.187 3.269.029a6.33 6.33 0 00-6.469.641zM115.29 414.138a12.459 12.459 0 013.312-.785c1.138.061 2.263.278 3.343.644.038-.054-.251-.351-.843-.65a5.554 5.554 0 00-5 .106c-.576.324-.852.633-.812.685zM118.481 411.967a2.174 2.174 0 00-.019-.943 6.538 6.538 0 00-.884-2.421 2.906 2.906 0 00-1.32-1.314 1.023 1.023 0 00-1.141.292 1.673 1.673 0 00-.331 1.145 3.605 3.605 0 003.341 3.155 4.184 4.184 0 003.981-2.413 1.452 1.452 0 000-1.209 1.004 1.004 0 00-1.08-.473 3.553 3.553 0 00-1.591.942 7.324 7.324 0 00-1.589 2.026 2.25 2.25 0 00-.334.881 11.61 11.61 0 012.175-2.613c.397-.374.88-.645 1.406-.788a.53.53 0 01.591.254.996.996 0 01-.048.795 3.733 3.733 0 01-3.475 2.053 3.134 3.134 0 01-2.875-2.638c-.031-.285.04-.572.2-.809a.557.557 0 01.628-.17c.482.239.879.62 1.138 1.092a9.647 9.647 0 011.227 3.156z" fill="#1C2E5C"/><path d="M169.533 399.662l-1.289 18.609s18.482 7.56 18.578 11.022l-36.171-1.2.819-29.078 18.063.647z" fill="#FDBC5A"/><path d="M157.112 416.332a1.473 1.473 0 00-1.077 1.651 1.42 1.42 0 001.627 1.083 1.561 1.561 0 001.132-1.755 1.475 1.475 0 00-1.818-.939M150.651 428.09l.2-2.928 34.607 2.249s1.587.754 1.367 1.882l-36.174-1.203z" fill="#E0E0E0"/><path d="M168.837 418.107c-.012.176-.9.227-1.785.766-.9.516-1.376 1.266-1.536 1.19-.162-.039.137-1.086 1.223-1.72 1.086-.634 2.142-.397 2.098-.236zM172.579 419.8c.034.173-.741.447-1.365 1.175-.646.708-.825 1.511-1 1.5-.167.022-.255-1.017.539-1.906s1.827-.935 1.826-.769zM174.582 424.414c-.162.033-.378-.858.108-1.81.486-.952 1.324-1.31 1.394-1.16.1.148-.458.65-.845 1.437-.405.779-.481 1.519-.657 1.533zM168.66 413.833c-.079.159-.881-.112-1.882-.077-1 .014-1.789.323-1.876.169-.1-.132.682-.76 1.861-.784 1.179-.024 1.989.559 1.897.692zM168.851 410.074a3.407 3.407 0 01-1.811-.069 8.41 8.41 0 01-2.898-1.232c-.2-.12-.38-.27-.533-.445a.767.767 0 01-.05-.942.98.98 0 01.788-.378c.23.006.457.045.676.116.383.108.756.25 1.114.424a6.46 6.46 0 011.634 1.152c.813.8 1.077 1.475 1.016 1.507-.082.056-.472-.511-1.305-1.181a7.253 7.253 0 00-1.585-.964 6.702 6.702 0 00-1.03-.355c-.379-.114-.705-.127-.809.04-.038.064-.044.089.033.2.114.126.246.235.392.324.301.211.614.404.938.579.552.296 1.131.541 1.729.73.578.125 1.146.29 1.701.494z" fill="#1C2E5C"/><path d="M168.612 410.32a2.893 2.893 0 01-.42-1.766 5.87 5.87 0 01.811-3.059 1.501 1.501 0 011.186-.877.839.839 0 01.74.531c.086.214.141.44.164.67a4.171 4.171 0 01-.875 3.066c-.739.913-1.483 1.1-1.5 1.04-.055-.091.572-.411 1.142-1.294.33-.509.545-1.083.63-1.683a3.754 3.754 0 000-1.048c-.044-.386-.178-.7-.323-.667-.18-.009-.495.271-.654.572a6.178 6.178 0 00-.481.967 6.576 6.576 0 00-.411 1.8c-.079 1.056.088 1.728-.009 1.748zM95.169 216.019l5.346 200.046 28.534-.857 6.8-206.008-40.68 6.819z" fill="#1C2E5C"/><path d="M154.478 208.86s21.184 84.8 21.834 99.264c.65 14.464-4.534 104.839-4.534 104.839h-27.935l2.332-102.921-21.218-87.1 5.136-13.638 24.385-.444z" fill="#1C2E5C"/><path d="M137.236 219.274c.016.09.02.181.012.272l-.016.793-.113 3.048c-.123 2.686-.3 6.5-.514 11.2l-1.891 36.948c-.8 14.413-1.519 27.457-2.044 36.947l-.679 11.195-.211 3.043-.068.791a1.025 1.025 0 01-.041.269 1.018 1.018 0 01-.012-.27c0-.209.009-.47.016-.793l.113-3.046c.123-2.686.3-6.5.514-11.2l1.892-36.957c.8-14.41 1.518-27.454 2.043-36.945.285-4.7.517-8.51.679-11.2l.211-3.042.068-.79c.003-.089.017-.177.041-.263z" fill="#0FA6AF"/><path d="M134.1 100.118s10.365 51.439 10.515 65.933c.15 14.494 5.24 42.809 5.24 42.809h-44.9l-.969-78.368-3.2-23.375 6.743-9.615 26.571 2.616z" fill="#F5F5F5"/><path d="M134.646 101.634s10.712 3.145 13.544 7.107c2.234 3.126 5.247 62.294 5.247 62.294l4.6 52.114-4.495-.421-6.342-19.507-12.554-101.587z" fill="#FDBC5A"/><path d="M148.189 108.741l30.243 27.749 37.211-12.055 7.412 15.622-39.7 18.022c-5.675 2.421-9.232 1.088-13.17-2.066l-20.83-16.683-1.166-30.589z" fill="#FDBC5A"/><path d="M208.714 129.413a.816.816 0 11-1.437.774.816.816 0 011.437-.774z" fill="#1C2E5C"/><path d="M208 130.639a.83.83 0 11.002-1.66.83.83 0 01-.002 1.66zm0-1.633a.79.79 0 00-.076 1.578.793.793 0 00.845-.98.79.79 0 00-.769-.598zM211.835 128.672a.816.816 0 11-1.437.771.816.816 0 011.437-.771z" fill="#1C2E5C"/><path d="M211.116 129.9a.85.85 0 01-.745-.444.848.848 0 01-.096-.479.847.847 0 01.593-.723.848.848 0 01.895.271.844.844 0 01-.255 1.276.824.824 0 01-.392.099zm0-1.632a.787.787 0 00-.782.675.791.791 0 10.782-.675zM214.799 128.072a.816.816 0 11-1.437.774.816.816 0 011.437-.774z" fill="#1C2E5C"/><path d="M214.086 129.3a.846.846 0 01-.808-.597.846.846 0 01.155-.778.845.845 0 01.734-.303.848.848 0 01.659.442.849.849 0 01-.02.828.838.838 0 01-.72.41v-.002zm0-1.632a.785.785 0 00-.755.561.79.79 0 00.527.987.797.797 0 00.459 0 .788.788 0 00.468-1.13.789.789 0 00-.702-.42l.003.002z" fill="#1C2E5C"/><path d="M216.014 125.213l2.878-1.053 6.608 13.922-2.813 1.2-6.673-14.069z" fill="#E0E0E0"/><path d="M149.158 119.706c.102.512.16 1.033.173 1.556l.434 4.238 1.582 13.976c.6 5.463 1.087 10.418 1.313 14.016.119 1.8.171 3.257.183 4.266a8.922 8.922 0 01-.051 1.567 9.168 9.168 0 01-.151-1.559c-.074-1-.182-2.454-.348-4.245-.319-3.583-.859-8.526-1.463-13.987-.604-5.461-1.136-10.407-1.432-14a92.839 92.839 0 01-.269-4.261 8.818 8.818 0 01.029-1.567z" fill="#1C2E5C"/><path d="M155.765 126.649a57.14 57.14 0 01-1.894 7.456 57.285 57.285 0 01-2.4 7.312 56.819 56.819 0 011.9-7.457 56.88 56.88 0 012.394-7.311zM178.111 145.863a3.118 3.118 0 01-.669-1.323 9.555 9.555 0 01.44-7.027c.4-.828.778-1.262.83-1.229a18.377 18.377 0 00-1.2 4.733 18.337 18.337 0 00.599 4.846z" fill="#1C2E5C"/><path d="M174.652 178.008l3.871.3-1.538 16.147-3.736-.426 1.403-16.021z" fill="#E0E0E0"/><path d="M107.54 98.622l-20.866 13.3a13.553 13.553 0 00-5.058 15.371l16.007 50.295-5.771 45.7 45.733-1.941-1.111-20.033-3.885-35.836a71.256 71.256 0 00-4.91-19.345L107.54 98.622z" fill="#FDBC5A"/><path d="M85.737 130.054l20.874 43.676a12.915 12.915 0 008.683 7l57.919 13.72 1.476-16.862-44.212-16.628-22.241-42.686a12.703 12.703 0 00-17.817-5.006 12.698 12.698 0 00-4.682 16.786z" fill="#FDBC5A"/><path d="M174.689 177.592a.931.931 0 01-.238-.064l-.684-.232-2.621-.939-9.7-3.568-32.686-12.217-.093-.035-.047-.092-3.846-7.625a582.243 582.243 0 00-10.616-19.706c-1.688-3-3.318-5.831-4.857-8.475l-2.242-3.818a24.956 24.956 0 00-1.1-1.762 14.868 14.868 0 00-6.743-5.614 12.63 12.63 0 00-5.133-.914 9.173 9.173 0 00-4.294 1.147c.074-.067.155-.125.242-.173.24-.167.499-.308.77-.42a8.98 8.98 0 013.273-.757c1.79-.093 3.578.196 5.247.846a14.095 14.095 0 015.733 4.066c.446.503.855 1.038 1.224 1.6.4.567.766 1.16 1.123 1.772l2.269 3.8c1.557 2.636 3.2 5.465 4.9 8.458a537.4 537.4 0 0110.661 19.7c1.338 2.6 2.629 5.176 3.845 7.635l-.14-.127 32.627 12.379 9.642 3.715 2.59 1.023.667.276a.97.97 0 01.227.121zM164.846 188.1a.813.813 0 01-.504.754.825.825 0 01-.889-.177.814.814 0 01-.177-.89.815.815 0 011.57.313z" fill="#1C2E5C"/><path d="M164.029 188.944a.846.846 0 01-.776-.519.838.838 0 011.098-1.099.84.84 0 01-.322 1.618zm0-1.632a.79.79 0 00-.559 1.35.796.796 0 00.862.172.792.792 0 00-.303-1.522zM167.946 188.919a.812.812 0 01-.503.754.818.818 0 01-1.113-.595.817.817 0 111.616-.159z" fill="#1C2E5C"/><path d="M167.13 189.76a.845.845 0 01-.824-1.006.84.84 0 011.147-.612.828.828 0 01.377.31.834.834 0 01.078.789.837.837 0 01-.778.519zm0-1.632a.79.79 0 00-.558 1.35.794.794 0 001.35-.559.794.794 0 00-.792-.791zM170.032 190.605a.817.817 0 10-.002-1.634.817.817 0 00.002 1.634z" fill="#1C2E5C"/><path d="M170.031 190.63a.844.844 0 01-.777-.519.842.842 0 011.477-.789.84.84 0 01-.7 1.308zm0-1.632a.79.79 0 00-.559 1.35.796.796 0 00.862.172.792.792 0 00.256-1.289.79.79 0 00-.559-.231v-.002zM173.213 194.454a1.122 1.122 0 01-.282-.045l-.814-.182-3.12-.746-11.455-2.82c-9.672-2.373-23.019-5.73-37.819-9.159-1.849-.443-3.686-.794-5.493-1.284a12.051 12.051 0 01-4.951-2.473 14.445 14.445 0 01-3.029-4.394l-2.184-4.566-7.492-15.813c-2.1-4.483-3.81-8.123-5.009-10.68l-1.338-2.915-.337-.763a1.174 1.174 0 01-.1-.268c.059.075.108.157.147.245l.383.741 1.426 2.873 5.159 10.608 7.591 15.763 2.2 4.552a14.017 14.017 0 002.926 4.239 11.595 11.595 0 004.748 2.352c1.767.477 3.622.833 5.47 1.276 14.811 3.431 28.142 6.844 37.793 9.309l11.415 2.98 3.1.842.8.232c.092.021.181.054.265.096zM126.434 191.718c.02.029-.226.236-.69.582-.464.346-1.146.833-2.007 1.408a32.435 32.435 0 01-7.195 3.741 16.434 16.434 0 01-8.063.808 10.731 10.731 0 01-2.376-.684 2.615 2.615 0 01-.8-.431c1.06.314 2.138.565 3.228.751 2.65.289 5.331-.031 7.838-.936a38.567 38.567 0 007.167-3.56 24.577 24.577 0 012.898-1.679zM128.966 197.516c.069.116.117.244.144.377.113.367.202.742.266 1.122.231 1.405.217 2.84-.04 4.241a12.978 12.978 0 01-2.6 5.726 12.836 12.836 0 01-14.119 3.945 12.96 12.96 0 01-5.192-3.55 12.386 12.386 0 01-2.232-3.606 8.538 8.538 0 01-.354-1.1 1.193 1.193 0 01-.072-.4 15.255 15.255 0 002.931 4.852 12.935 12.935 0 005.08 3.346 12.546 12.546 0 0013.585-3.8 12.933 12.933 0 002.611-5.495c.349-1.87.346-3.789-.008-5.658z" fill="#1C2E5C"/><path d="M109.787 58.808l.132 37.263a11.076 11.076 0 003.471 8.017 11.095 11.095 0 008.2 3.012 11.091 11.091 0 0010.5-11.126c-.013-2.805-.018-5.144 0-5.433 0 0 9.483-.925 10.134-10.316.315-4.54.2-13.94 0-22.442A17.533 17.533 0 00125.687 40.7l-.906-.052c-9.81.015-15.281 8.352-14.994 18.16z" fill="#B78876"/><path d="M132.111 90.408a21.89 21.89 0 01-12.053-4.18s2.51 6.928 11.936 6.616l.117-2.436z" fill="#AA6550"/><path d="M139.9 63.31a1.342 1.342 0 01-1.371 1.28 1.284 1.284 0 01-1.315-1.29 1.342 1.342 0 011.37-1.28 1.286 1.286 0 011.316 1.29zM140.163 61.723c-.176.166-1.15-.645-2.6-.723-1.441-.1-2.543.583-2.69.4-.073-.083.115-.39.6-.7a3.684 3.684 0 012.166-.535c.751.04 1.47.319 2.053.795.425.365.558.69.471.763zM125.865 63.2a1.347 1.347 0 01-1.372 1.28 1.286 1.286 0 01-1.314-1.289 1.341 1.341 0 011.37-1.281 1.29 1.29 0 011.316 1.29zM125.787 61.4c-.177.166-1.152-.645-2.6-.723-1.442-.1-2.544.583-2.691.4-.072-.082.114-.388.6-.7a3.687 3.687 0 012.166-.535c.752.04 1.471.318 2.053.794.424.364.558.688.472.764zM130.362 72.75a9.605 9.605 0 012.369-.29c.371-.016.724-.07.8-.318a1.875 1.875 0 00-.184-1.107l-.931-2.87c-1.286-4.084-2.195-7.434-2.03-7.485.165-.051 1.342 3.219 2.628 7.3.308 1.007.6 1.966.884 2.884.206.458.245.975.109 1.459a.915.915 0 01-.637.5c-.207.044-.42.061-.632.052a9.359 9.359 0 01-2.376-.125zM126.369 58.4c-.165.385-1.6.117-3.3.224-1.708.074-3.1.492-3.308.127-.09-.174.169-.53.743-.879a5.755 5.755 0 015.036-.267c.605.287.901.614.829.795zM140.041 58.278c-.273.313-1.248-.084-2.444-.168-1.192-.126-2.222.094-2.435-.262-.093-.173.085-.492.545-.777a3.54 3.54 0 013.932.346c.403.36.523.707.402.86z" fill="#1C2E5C"/><path d="M110.157 65.81c-.156-.078-6.348-2.277-6.509 4.159-.161 6.436 6.334 5.27 6.35 5.086.016-.185.159-9.244.159-9.244z" fill="#B78876"/><path d="M108.094 72.568c-.028-.022-.115.075-.306.158-.269.109-.57.109-.839 0a2.78 2.78 0 01-1.221-2.522c-.003-.553.118-1.1.354-1.6a1.306 1.306 0 01.865-.84.57.57 0 01.654.324c.082.182.037.31.071.322.018.016.141-.1.1-.372a.717.717 0 00-.243-.409.846.846 0 00-.616-.18 1.578 1.578 0 00-1.2.969 3.808 3.808 0 00-.434 1.784 2.91 2.91 0 001.566 2.821 1.197 1.197 0 001.03-.145c.203-.155.241-.298.219-.31z" fill="#AA6550"/><path d="M106.6 65.389a3.383 3.383 0 013 1.761c.366.942.4 1.986.763 2.928a2.277 2.277 0 002.253 1.65 1.98 1.98 0 001.422-1.39 5.436 5.436 0 00.137-2.071c-.207-3.022-.668-6.034-.617-9.063a15.452 15.452 0 012.4-8.627 8.454 8.454 0 017.756-3.8c1.988.275 3.76 1.421 5.728 1.812a7.861 7.861 0 006.645-1.806c.101-.082.207-.157.317-.226a1.73 1.73 0 00.733-1.968 1.673 1.673 0 00-.344-.637c-3.728-3.864-10.762-5.284-16.035-4.273a18.784 18.784 0 00-12.869 9.149c-2.515 4.744-2.237 11.558-1.286 16.558M126.953 73.883c.235-.014.238 1.551 1.577 2.661s3.005.939 3.017 1.158c.022.1-.372.3-1.075.323a3.9 3.9 0 01-2.519-.878 3.398 3.398 0 01-1.222-2.231c-.059-.654.115-1.042.222-1.033z" fill="#1C2E5C"/><path d="M216.809 126.8s7.047-6.193 8.383-6.647c1.336-.454 11.944-.65 12.661-.119.717.531 11.456 6.422 9.678 7.324-1.778.902-9.229-3.316-9.229-3.316l-1.253.165s6.5 3.47 7.656 4.806c1.066 1.23.046 2.7-1.168 2.138-1.214-.562-6.789-3.784-7.229-3.661-.44.123 5.942 3.855 6.53 4.546.79.93.28 2.729-.943 2.21-.721-.306-6.609-4.207-6.609-4.207a58.402 58.402 0 014.761 4.356c.52 1-.478 1.906-1.5 1.277-.7-.431-3.729-3.407-4.673-3.982 0 0-1.042-.074-2.574 1.557-1.532 1.631-7.573 3.873-7.573 3.873l-6.918-10.32z" fill="#B78876"/><path d="M247.5 127.378a5.561 5.561 0 01-2.278-.143c-.816-.161-1.615-.4-2.385-.714-.839-.4-1.745-.862-2.7-1.347l-2.021-1.046.133.032a32.38 32.38 0 01-5.455-.155 32.57 32.57 0 015.447-.387h.064l.069.035 2.014 1.014 2.654 1.375a16 16 0 002.273.8c1.328.358 2.191.449 2.185.536z" fill="#AA6550"/><path d="M219.432 128.59a2.396 2.396 0 002.652.913c.983-.208 1.866-.744 2.831-1.022 2.885-.834 6.1.708 8.937-.263.4-.135.842-.426.794-.842-.045-.386-.479-.578-.849-.7l-9.478-3.02" fill="#B78876"/><path d="M224.319 123.661c.361.024.717.099 1.058.221.67.178 1.635.453 2.823.8l4.164 1.262 1.2.373c.372.147.922.174 1.281.763a.833.833 0 01-.149.929 1.717 1.717 0 01-.682.445c-.463.16-.943.267-1.431.32a38.133 38.133 0 01-5.351-.289 7.456 7.456 0 00-2.232.215c-.674.183-1.287.477-1.881.69a3.512 3.512 0 01-2.965.022c-.649-.375-.746-.83-.722-.824.234.256.511.468.82.626a3.401 3.401 0 002.723-.2c.563-.227 1.169-.547 1.9-.768a7.707 7.707 0 012.374-.282c1.752.187 3.513.27 5.275.248a6.158 6.158 0 001.3-.283c.389-.14.653-.42.53-.606-.1-.222-.537-.362-.945-.488l-1.2-.39-4.127-1.379c-1.172-.4-2.118-.734-2.768-.976a4.008 4.008 0 01-.995-.429z" fill="#AA6550"/><path d="M176.781 178.4l11.691-1.158s15.459 10.588 13.977 12.918c-1.482 2.33-4.024 0-4.024 0s2.753 3.388-1.694 4.447c0 0-1.059 2.329-2.753 2.117l-1.059.014s-.958 2.951-2.385 2.316c-1.427-.635-5.742-4.447-5.742-4.447l-11.99-1.059 3.979-15.148z" fill="#B78876"/><path d="M184.053 190.453s-2.994 1.15-3.616 2.352c-.622 1.202-.983 4.037.948 4.552 1.134.077 2.273.041 3.4-.107l-.739-3.147a22.207 22.207 0 011.785-1.845c.639-.531-.058-2.602-1.778-1.805z" fill="#FFBE9D"/><path d="M187.423 192.053s-2.994 1.15-3.616 2.352a2.648 2.648 0 00-.033 2.279 2.638 2.638 0 001.753 1.457c1.031.08 2.067.044 3.089-.105l-.314-.611c-.606-1.18-.866-2.135.2-2.924.059-.043.655-.6.7-.644a1.296 1.296 0 00-.941-1.988 1.305 1.305 0 00-.838.184z" fill="#FFBE9D"/><path d="M188.144 197.926a1.739 1.739 0 01-.243-2.057 2.838 2.838 0 011.755-1.28 1.309 1.309 0 011.369.223 1.169 1.169 0 01.192.9 4.721 4.721 0 01-1.175 2.187c-.278.349-.622.731-1.068.72-.446-.011-.784-.428-1.042-.806" fill="#FFBE9D"/><path d="M124.957 103.673l2.628-.995 2.28 4.072-1.265 4.35-2.681.663-2.673-3.367 1.711-4.723z" fill="#FDBC5A"/><path d="M125.914 111.76s3.4 18.71 6.239 31.871c0 0 2.325 10.956 3.267 13.484a37.05 37.05 0 004.286 7.039l3.294 1.274-2.012-18.493L128.6 111.1l-2.686.66z" fill="#FDBC5A"/><path opacity=".4" d="M124.957 103.673l2.628-.995 2.28 4.072-1.265 4.35-2.681.663-2.673-3.367 1.711-4.723z" fill="#000"/><path opacity=".4" d="M125.914 111.76s3.4 18.71 6.239 31.871c0 0 2.664 10.855 3.267 13.484.354 1.545 4.286 7.039 4.286 7.039l3.294 1.274-2.012-18.493L128.6 111.1l-2.686.66z" fill="#000"/><path d="M109.18 92.3l15.776 11.37-3.411 9.38-14.355-14.781 1.99-5.97zM127.585 102.679l4.41-9.835 2.493 8.112-3.464 8.527-3.439-6.804z" fill="#F5F5F5"/><path d="M124.957 103.674a2.636 2.636 0 01-.177.72c-.178.545-.39 1.194-.639 1.962a454.075 454.075 0 01-2.366 6.781l-.136.382-.274-.3-3.678-4.057a680.275 680.275 0 01-7.26-8.172l-2.156-2.516a5.475 5.475 0 01-.738-.97c.327.243.625.523.888.834l2.279 2.406c1.908 2.046 4.516 4.9 7.374 8.07l3.653 4.079-.41.079c1.016-2.739 1.9-5.072 2.543-6.716l.77-1.914a2.64 2.64 0 01.327-.668zM134.488 100.956c-.162.79-.409 1.562-.736 2.3a194.14 194.14 0 01-2.118 5.417l-.371.906-.258.633-.225-.644a44.012 44.012 0 00-3.146-6.461 6.632 6.632 0 011.317 1.641 21.757 21.757 0 012.317 4.647l-.484-.011.367-.907c.855-2.1 1.656-4 2.259-5.359.279-.758.641-1.483 1.078-2.162z" fill="#1C2E5C"/><path d="M335.039 397.067l6.085 24.145 10.319 17.71a2.548 2.548 0 01-.256 2.931 2.537 2.537 0 01-.817.64 2.542 2.542 0 01-2.335-.037c-4.634-2.5-21.633-11.781-21.98-13.573-.4-2.076-8.108-25.043-8.108-25.043l17.092-6.773z" fill="#FDBC5A"/><path opacity=".6" d="M350.37 442.493l-24.762-15.23.281 1.017a3.84 3.84 0 001.541 2.157c2.019 1.37 7.677 5.029 20.532 12.039.369.201.782.308 1.202.31.42.003.835-.097 1.206-.293zM328.392 418.16a1.538 1.538 0 01.945 1.83 1.485 1.485 0 01-1.806.952 1.629 1.629 0 01-.99-1.944 1.542 1.542 0 011.988-.782" fill="#fff"/><path d="M341.985 433.523a5.509 5.509 0 014.206-3.74c0-.065-.351-.168-.935-.092a4.06 4.06 0 00-3.252 2.894c-.144.57-.083.935-.019.938zM344.583 436.264c.143.073.7-.92 1.841-1.619a20.803 20.803 0 012.26-.95 2.816 2.816 0 00-2.551.487c-1.298.803-1.693 2.052-1.55 2.082zM337.666 430.284a13.104 13.104 0 016-4.506 6.975 6.975 0 00-6 4.506zM335.2 423.1c.1.126 1.276-.8 2.984-1.334 1.7-.563 3.19-.5 3.2-.666a6.33 6.33 0 00-6.185 2h.001zM333.237 416.056a8.1 8.1 0 016.473-1.551c.026-.061-.32-.29-.961-.457a5.548 5.548 0 00-2.569.006 5.554 5.554 0 00-2.293 1.159c-.496.44-.7.8-.65.843zM335.894 413.256a2.168 2.168 0 00-.219-.916 6.547 6.547 0 00-1.378-2.179 2.9 2.9 0 00-1.569-1 1.027 1.027 0 00-1.053.528 1.67 1.67 0 00-.08 1.188 3.606 3.606 0 003.935 2.374 4.186 4.186 0 003.378-3.2 1.468 1.468 0 00-.256-1.182 1.002 1.002 0 00-1.157-.232 3.544 3.544 0 00-1.353 1.259 7.26 7.26 0 00-1.123 2.317c-.112.297-.16.614-.139.931a11.56 11.56 0 011.57-3.015c.308-.45.723-.817 1.207-1.068a.531.531 0 01.631.122 1 1 0 01.122.787 3.733 3.733 0 01-2.96 2.744 3.127 3.127 0 01-3.369-1.967 1.203 1.203 0 01.021-.832.553.553 0 01.577-.3c.521.131.99.419 1.343.826a9.68 9.68 0 011.872 2.815z" fill="#1C2E5C"/><path d="M259.633 401.574l1.289 18.609s-18.482 7.56-18.579 11.022l36.171-1.2-.819-29.077-18.062.646z" fill="#FDBC5A"/><path d="M272.054 418.243a1.48 1.48 0 011.078 1.652 1.423 1.423 0 01-1.628 1.083 1.558 1.558 0 01-1.132-1.756 1.477 1.477 0 011.818-.938M278.514 430l-.2-2.928-34.606 2.249s-1.587.754-1.368 1.882L278.514 430z" fill="#E0E0E0"/><path d="M260.328 420.018c.012.177.9.228 1.786.767.9.515 1.375 1.266 1.536 1.19.161-.04-.137-1.087-1.224-1.72s-2.141-.397-2.098-.237zM256.588 421.714c-.035.172.74.447 1.365 1.174.646.709.824 1.512 1 1.5.167.022.255-1.016-.539-1.9-.794-.884-1.828-.943-1.826-.774zM254.584 426.326c.162.033.378-.858-.107-1.81-.485-.952-1.325-1.31-1.395-1.16-.1.148.459.649.846 1.437.405.779.48 1.522.656 1.533zM260.506 415.745c.08.159.882-.112 1.882-.078 1 .015 1.79.324 1.877.169.1-.131-.683-.759-1.862-.784-1.179-.025-1.988.557-1.897.693zM260.314 411.986a3.4 3.4 0 001.812-.07 8.163 8.163 0 001.876-.645 8.598 8.598 0 001.021-.587 2.17 2.17 0 00.533-.444.77.77 0 00.05-.942.963.963 0 00-.788-.378 2.328 2.328 0 00-.676.116 6.435 6.435 0 00-2.747 1.576c-.813.8-1.078 1.475-1.016 1.507.082.055.472-.511 1.3-1.181a7.183 7.183 0 011.586-.964 6.59 6.59 0 011.029-.356c.38-.113.706-.127.81.041.037.064.043.089-.033.2a1.88 1.88 0 01-.392.324 9.39 9.39 0 01-.939.579c-.552.296-1.131.541-1.729.73-.576.124-1.143.289-1.697.494z" fill="#1C2E5C"/><path d="M260.554 412.231a2.882 2.882 0 00.419-1.765 5.838 5.838 0 00-.813-3.06 1.49 1.49 0 00-1.186-.876.848.848 0 00-.74.531 2.45 2.45 0 00-.163.67 4.174 4.174 0 00.875 3.066c.738.913 1.482 1.1 1.495 1.04.056-.091-.571-.411-1.142-1.294a4.197 4.197 0 01-.63-1.683 3.754 3.754 0 010-1.048c.043-.387.177-.7.323-.667.179-.009.495.27.653.572.189.307.351.631.482.967a6.54 6.54 0 01.411 1.8c.086 1.056-.081 1.724.016 1.747z" fill="#1C2E5C"/><path d="M249.763 199.144l5.818 216.556 28.534-.857-2.191-185.864 36.359 191.032 25.771-6.727-33.271-213.727-61.02-.413z" fill="#1C2E5C"/><path d="M265.4 415.987c-.144 0-.26-44.89-.26-100.252 0-55.382.116-100.262.26-100.262.144 0 .261 44.88.261 100.262-.002 55.365-.119 100.252-.261 100.252zM326.424 419.945c-.143.022-6.808-43.018-14.887-96.119-8.081-53.119-14.515-96.185-14.373-96.206.142-.021 6.807 43.008 14.888 96.128 8.078 53.101 14.514 96.175 14.372 96.197z" fill="#0FA6AF"/><path d="M290.65 63.725a44.565 44.565 0 002.412-6.893c.342-1.8.881-4.5.158-6.177-.723-1.677-2.467-3.291-4.673-2.835a10.447 10.447 0 00-6.043-8.188 26.644 26.644 0 00-10.008-2.6 8.507 8.507 0 00-3.751.471 4.803 4.803 0 00-2.255 2.432 8.285 8.285 0 00-7.353-1.179c-2.752.749-5.895 2.235-7.1 4.818a8.048 8.048 0 00-.218 6.1c.536 1.681 2.314 4.32 3.968 3.705" fill="#1C2E5C"/><path d="M276.739 110.431a12.352 12.352 0 01-11.347-8.114 12.354 12.354 0 01-.735-4.852c.173-3.457.333-6.244.333-6.244s-9.416-1.223-9.767-10.6c-.351-9.377.735-30.947.735-30.947a32.6 32.6 0 0132.85 3.295l1.416 1.035-.877 44.318a12.355 12.355 0 01-12.608 12.109z" fill="#FFBE9D"/><path d="M264.971 91.086a21.818 21.818 0 0012.138-3.781s-2.893 7.276-12.271 6.666l.133-2.885z" fill="#EB996E"/><path d="M289.311 63.748c.159-.073 6.4-2.067 6.352 4.349-.048 6.416-6.476 5.048-6.487 4.864-.011-.184.135-9.213.135-9.213z" fill="#FFBE9D"/><path d="M291.153 70.544c.028-.02.111.079.3.167.265.115.564.123.835.023a2.77 2.77 0 001.3-2.473 3.694 3.694 0 00-.3-1.6 1.287 1.287 0 00-.835-.864.57.57 0 00-.662.3c-.087.179-.047.307-.081.318-.018.016-.137-.108-.084-.373a.72.72 0 01.256-.4.84.84 0 01.619-.16 1.57 1.57 0 011.16 1c.27.557.399 1.172.376 1.79a2.896 2.896 0 01-1.65 2.76 1.197 1.197 0 01-1.021-.176c-.202-.156-.235-.3-.213-.312z" fill="#EB996E"/><path d="M258.393 64.322a1.335 1.335 0 001.326 1.318 1.282 1.282 0 001.35-1.242 1.34 1.34 0 00-1.324-1.32 1.29 1.29 0 00-.939.337 1.28 1.28 0 00-.413.907zM258.063 62.824c.171.17 1.166-.606 2.608-.64 1.439-.052 2.515.663 2.667.483.075-.08-.1-.391-.571-.715a3.667 3.667 0 00-2.141-.6c-.75.015-1.475.27-2.07.726-.434.35-.577.669-.493.746zM272.514 64.306a1.34 1.34 0 001.325 1.319 1.28 1.28 0 001.35-1.242 1.34 1.34 0 00-1.324-1.32 1.28 1.28 0 00-1.351 1.243zM272.235 62.737c.17.17 1.167-.606 2.607-.638 1.439-.053 2.515.662 2.667.48.075-.08-.1-.39-.571-.713a3.671 3.671 0 00-2.14-.6c-.75.016-1.475.27-2.07.726-.434.349-.577.669-.493.745zM267.272 73.555a9.578 9.578 0 00-2.351-.364c-.369-.029-.719-.093-.787-.342-.042-.38.034-.764.218-1.1l1.018-2.829c1.411-4.028 2.422-7.335 2.26-7.391-.162-.056-1.439 3.164-2.85 7.191l-.971 2.845c-.22.45-.275.963-.155 1.449a.93.93 0 00.618.523c.206.05.417.074.628.071a9.38 9.38 0 002.372-.053zM271.539 74.445c-.235-.007-.2 1.557-1.509 2.7-1.309 1.143-2.981 1.013-2.987 1.232-.02.1.379.295 1.083.3a3.902 3.902 0 002.495-.94 3.399 3.399 0 001.166-2.262c.043-.658-.141-1.041-.248-1.03zM271.721 57.1c.152.388 1.586.166 3.282.328 1.7.127 3.075.588 3.29.23.1-.17-.151-.532-.712-.9a5.734 5.734 0 00-5.007-.425c-.614.267-.919.582-.853.767zM258.489 58.64c.261.321 1.245-.044 2.439-.09 1.191-.088 2.21.165 2.434-.184.1-.168-.07-.492-.519-.791a3.534 3.534 0 00-3.927.22c-.416.347-.543.688-.427.845z" fill="#1C2E5C"/><path d="M290.717 54.745c-.059 2.735.627 5.762.216 8.458-.062.407-1.086 1.517-1.169 1.92-.492 2.389-1.452 3.432-2.926 1.017a21.52 21.52 0 01-1.219-4.6c-.642-2.872-1.283-5.744-1.923-8.617a14.988 14.988 0 01-7.087 1.87 7.288 7.288 0 01-6.183-3.442 7.564 7.564 0 01-11.695 1.834 3.154 3.154 0 01-4.153 1 3.754 3.754 0 01-1.628-4.1c.588-2.305 3.007-3.607 5.271-4.335 8.852-2.848 18.767-1.039 26.901 3.464a13.636 13.636 0 013.3 2.358c.941.977 2.239 2.122 2.312 3.476" fill="#1C2E5C"/><path d="M283.978 54c.494-.002.986.076 1.455.232.49.213.942.505 1.339.862.455.4.911.922 1.457 1.43.511.518 1.135.91 1.823 1.146a3.248 3.248 0 001.777.024c.992-.277 1.386-.824 1.337-.857-.461.193-.935.352-1.419.477a3.146 3.146 0 01-1.539-.126 4.664 4.664 0 01-1.605-1.066c-.522-.485-.99-1-1.507-1.417a4.59 4.59 0 00-1.536-.84c-1.008-.3-1.628.086-1.582.135zM285.073 56.8c.365.083.71.237 1.016.452.308.276.582.587.816.927a4.37 4.37 0 004.141 1.753c.77-.116 1.173-.4 1.145-.458-.031-.081-.469.062-1.178.071a4.826 4.826 0 01-2.6-.7c-.916-.518-1.372-1.49-2.106-1.914-.715-.44-1.283-.199-1.234-.131zM260.337 38.562c0-.03-.3-.078-.823.077a3.592 3.592 0 00-1.807 1.36c-1.15 1.61-1.412 4.468-.524 7.232a10.186 10.186 0 004.593 5.649c.646.375 1.335.669 2.053.876.257.1.532.146.808.135a27.008 27.008 0 01-2.658-1.344 10.391 10.391 0 01-4.273-5.488c-.847-2.62-.644-5.344.323-6.84.377-.6.919-1.077 1.561-1.376.461-.208.752-.236.747-.281zM252.572 42.455a4.1 4.1 0 00.081 1.807 11.177 11.177 0 004.746 7.138c.481.376 1.04.64 1.636.772A18.206 18.206 0 01254.773 48a18.257 18.257 0 01-2.201-5.545z" fill="#0FA6AF"/><path d="M200.855 173.139l-13.721.694a3.239 3.239 0 00-3.081 3.3c.065 3.134.594 7.427 3.038 7.019l1.563-6.831 11.386 10.046a8.269 8.269 0 004.1 2.011l2.675-.277-5.96-15.962z" fill="#FFBE9D"/><path d="M266.472 99.649l-7.172 2.369-3.558 59.556V214.4l44.03 4.877.511-76.181-2.844-37.915-6.725-8.037-24.242 2.505z" fill="#E0E0E0"/><path d="M264.265 102.5v-5.772l26.165-3.642-1.051 13.3-6.013 10.414-9.825.548-7.1-4.386-2.176-10.462z" fill="#E0E0E0"/><path d="M266.608 101.825a13.397 13.397 0 01.225-5.253 13.416 13.416 0 01-.225 5.253zM273.153 101.35a8.514 8.514 0 01-.088-2.948 8.503 8.503 0 01.432-2.918c.2.97.23 1.968.088 2.948a8.504 8.504 0 01-.432 2.918zM279.481 100.687a9.515 9.515 0 01-.032-3.118 9.449 9.449 0 01.488-3.08 9.568 9.568 0 01.032 3.119 9.504 9.504 0 01-.488 3.079zM285.557 99.689a12.047 12.047 0 01.268-5.873c.145.975.152 1.966.023 2.944.039.985-.058 1.97-.291 2.929zM282.652 124.864c-.072.34-.189.668-.347.978-.253.617-.646 1.5-1.156 2.573a101.807 101.807 0 01-4.39 8.208 100.518 100.518 0 01-5.115 7.779c-.7.962-1.287 1.728-1.708 2.245a4.04 4.04 0 01-.694.772 34.77 34.77 0 012.1-3.228 171.841 171.841 0 004.969-7.834c1.853-3.113 3.409-6 4.508-8.106a35.204 35.204 0 011.833-3.387z" fill="#1C2E5C"/><path d="M290.578 96.214l7.1 3.42 13.715 3.355a11.426 11.426 0 019.379 12.71l-7.182 56.008 8.571 54.3-34-1.012-1.995-20.2v-56l4.412-52.581z" fill="#0FA6AF"/><path d="M286.173 161.706a3.53 3.53 0 01.1-.694c.1-.5.227-1.155.386-1.968l1.515-7.219 5.188-23.774 1.65-7.416.065.23-2.356-2.464-.131-.137.1-.161 3.956-6.578-.014.2-4.355-10.56-1.187-2.965a7.138 7.138 0 01-.376-1.062c.193.323.36.661.5 1.01.322.724.754 1.7 1.294 2.913l4.526 10.488.043.1-.057.1-3.907 6.607-.034-.3 2.366 2.455.094.1-.029.134-1.637 7.419-5.338 23.74c-.7 2.989-1.266 5.428-1.676 7.183-.2.8-.359 1.452-.481 1.948a3.49 3.49 0 01-.205.671z" fill="#1C2E5C"/><path d="M201.437 170.882l30.081-16.77 14.575-39.312a21.102 21.102 0 0111.668-12.144l3.869-1.614.018 103.5.776 24.517-16.3-4.881 8.311-49.279-2.873-24.255-2.855 11.735a15.941 15.941 0 01-7.426 9.98l-31.313 16.263-8.531-17.74z" fill="#0FA6AF"/><path d="M201.8 171.643l-2.532.755 7.121 16.977 3.318-1.287-7.907-16.445z" fill="#E0E0E0"/><path d="M236.96 161.089a13.974 13.974 0 00-5.578-6.718 8.425 8.425 0 015.578 6.718zM205.044 171.1c.032.068-.148.2-.166.494a.45.45 0 00.346.514.451.451 0 00.532-.318.451.451 0 00-.102-.424c-.173-.235-.4-.251-.407-.326-.035-.057.279-.224.661.06a.89.89 0 11-1.388.408c.168-.445.522-.475.524-.408zM207.471 170.077c.032.068-.148.2-.166.494a.45.45 0 00.346.514.451.451 0 00.532-.318.451.451 0 00-.102-.424c-.173-.235-.4-.251-.407-.326-.034-.058.279-.224.661.059a.885.885 0 01.329.869.893.893 0 01-1.106.695.892.892 0 01-.611-1.155c.168-.446.522-.475.524-.408zM261.63 163.3a3.078 3.078 0 01-.132-.638l-.277-1.844-.923-6.794-2.849-22.438a2956.38 2956.38 0 00-.451-3.667l-.008-.066.024-.06 2.2-5.586v.19l-2.17-4.956-.033-.075.021-.077 3.259-11.782.953-3.305c.098-.396.227-.784.385-1.16a7.79 7.79 0 01-.247 1.2l-.83 3.338-3.077 11.83-.011-.151c.694 1.557 1.432 3.21 2.2 4.941l.042.094-.038.1-2.177 5.593.016-.126c.15 1.2.301 2.422.454 3.667 1.05 8.741 2 16.652 2.7 22.457l.758 6.814.18 1.856c.034.213.044.429.031.645zM254.393 175.19a1.825 1.825 0 01-.1-.49c-.053-.383-.117-.85-.2-1.414l-.642-5.208c-.532-4.4-1.28-10.472-2.179-17.17a1309.878 1309.878 0 00-2.429-17.139l-.755-5.193-.185-1.415a1.825 1.825 0 01-.029-.5c.066.154.111.316.133.482l.281 1.4c.235 1.218.55 2.983.919 5.168.74 4.37 1.68 10.423 2.581 17.128a520.4 520.4 0 012.029 17.2c.22 2.206.383 3.992.477 5.228l.1 1.424c.023.165.023.333-.001.499zM250.234 211.98a4.9 4.9 0 00.7.841 3.187 3.187 0 002.745.615 4.656 4.656 0 002.977-2.928c.548-1.742.83-3.555.839-5.38.213-1.808.023-3.64-.557-5.364a9.786 9.786 0 00-2.726-3.444 12.91 12.91 0 01-2.082-2.268 2.835 2.835 0 01-.492-1.019c.042-.021.217.34.656.9.651.772 1.376 1.48 2.164 2.112a9.751 9.751 0 012.924 3.534c.636 1.786.852 3.695.633 5.579a17.732 17.732 0 01-.916 5.532 4.98 4.98 0 01-3.338 3.1 3.313 3.313 0 01-2.964-.825 2.38 2.38 0 01-.487-.7c-.07-.18-.092-.279-.076-.285zM239.06 173.139s.971-11.469 10.079-12.53c0 0 .167 9.346-10.079 12.53z" fill="#1C2E5C"/><path d="M287.742 216.088c.6.4 26.446 17.3 26.446 17.3l2.983-2.388 1.409-38.775-25.186-19.088-3.465 1.193-2.187 41.758z" fill="#FDBC5A"/><path d="M293.115 173.688l1.033 41.966h-5.558l1.862-41.135 2.663-.831z" fill="#E0E0E0"/><path d="M301.437 225.285a3.248 3.248 0 002.984 2.03c.073.005.147.06.217.181a2.962 2.962 0 002.515 1.565 5.436 5.436 0 002.835-.818c1.382-.842 3.844-6.363 3.844-6.363l5.833-12.991-9.81-2.651-12.46 3.884c0 .225-2.916 12.023-2.916 12.023a3 3 0 003.5-1.856 31.98 31.98 0 012.199-4.116l.929 5.309-3.543 1.212a2.353 2.353 0 001.517 2.694l2.356-.103z" fill="#FFBE9D"/><path d="M305.835 134.063l16.33 30.058-13.29 39.453 14.78 8.321 18.78-43.884a12.454 12.454 0 00-.159-10.156l-23.043-49.494-13.398 25.702z" fill="#0FA6AF"/><path d="M308.875 203.574l-1.379 3.058 13.943 7.514 1.461-2.675-14.025-7.897z" fill="#E0E0E0"/><path d="M308.874 203.574a.794.794 0 01.044-.2l.172-.581.707-2.232 2.713-8.291 9.414-28.228.022.21a554.88 554.88 0 01-5.826-10.162c-3.6-6.431-6.9-12.627-9.734-18.355-1.4-2.873-2.7-5.616-3.8-8.239a16.526 16.526 0 01-1.362-7.79 18.035 18.035 0 011.459-6.372 12.469 12.469 0 012.883-4.005 9.86 9.86 0 012.6-1.72 5.358 5.358 0 011.024-.364 11.466 11.466 0 00-3.488 2.232 12.499 12.499 0 00-2.755 3.976 17.956 17.956 0 00-1.357 6.272 16.228 16.228 0 001.392 7.6c1.113 2.6 2.427 5.334 3.832 8.2 2.847 5.706 6.164 11.888 9.759 18.314a608.394 608.394 0 005.808 10.158l.059.1-.037.109-9.585 28.171-2.856 8.242-.788 2.205-.214.567a.665.665 0 01-.086.183z" fill="#1C2E5C"/><path d="M333.207 163.841a11.879 11.879 0 01-1.61-.569 11.44 11.44 0 00-7.926.247c-.507.261-1.032.484-1.572.667a3.848 3.848 0 011.42-1 9.916 9.916 0 018.209-.256 3.829 3.829 0 011.479.911zM302.568 126.911l11.731 39.263 1.655-12.909-13.386-26.354zM321.953 204.049c.032.068-.148.2-.166.494-.018.294.175.627.57.506a.438.438 0 00.205-.734c-.172-.235-.4-.251-.407-.326-.034-.057.28-.224.662.06a.894.894 0 01.326.868.89.89 0 11-1.714-.46c.171-.445.521-.475.524-.408zM323.132 201.221c.032.069-.148.2-.166.5-.018.3.176.627.57.506a.438.438 0 00.206-.734c-.173-.235-.4-.251-.408-.326-.034-.058.28-.224.662.059a.89.89 0 11-1.388.409c.168-.451.522-.481.524-.414zM339.182 151.209c-1.75.923-2.361 3.5-2.159 5.466.202 1.966.925 3.882.874 5.86a24.008 24.008 0 01-.75 4.163 7.199 7.199 0 00.126 4.172 3.206 3.206 0 003.31 2.092l1.386-2.8a15.425 15.425 0 00-.2-14.059l-2.587-4.894z" fill="#1C2E5C"/><path d="M424.8 362.3c.9-3.117 2.825-6.129 5.8-7.413 3.1-1.335 6.688-.575 9.859.577 3.171 1.152 6.285 2.694 9.653 2.9 3.368.206 7.168-1.39 8.177-4.61.948-3.026-.877-6.255-3.163-8.454a19.958 19.958 0 00-18.499-5.03 19.954 19.954 0 00-14.201 12.879" fill="#FDBC5A"/><path opacity=".5" d="M424.8 362.3c.9-3.117 2.825-6.129 5.8-7.413 3.1-1.335 6.688-.575 9.859.577 3.171 1.152 6.285 2.694 9.653 2.9 3.368.206 7.168-1.39 8.177-4.61.948-3.026-.877-6.255-3.163-8.454a19.958 19.958 0 00-18.499-5.03 19.954 19.954 0 00-14.201 12.879" fill="#000"/><path d="M398.119 375.831c-4.941-4.694-4.694-12.865-2.229-19.218s7.844-11.232 13.852-14.448a43.864 43.864 0 0138.233-1.239 18.153 18.153 0 00-14.672 8.615c-2.708 4.5-3.309 9.955-5.546 14.7a23.148 23.148 0 01-29.638 11.586M395.744 347.632c-5.47-6.458-6.2-16.823-5.392-25.247.808-8.424 2.758-16.9 1.429-25.26-.787-4.952-2.708-9.679-3.357-14.651-.649-4.972.271-10.593 4.123-13.8 4.427-3.688 11.4-2.818 16.005.645 4.605 3.463 7.274 8.9 9.224 14.326 4.284 11.913 5.857 25.123 2.337 37.284-3.52 12.161-11.777 23.034-23.893 26.7" fill="#FDBC5A"/><path d="M393.119 400.611a4.623 4.623 0 01-.021-.744c.007-.488 0-1.208.041-2.134a90.62 90.62 0 01.663-7.821 104.611 104.611 0 012.1-11.452 52.82 52.82 0 015.228-13.26 55.311 55.311 0 018.54-11.417 54.37 54.37 0 018.953-7.445c1.366-.945 2.688-1.662 3.826-2.327a100.525 100.525 0 013.019-1.518l1.968-.827c.226-.105.46-.192.7-.26-.21.133-.431.248-.661.344l-1.928.9c-.82.426-1.823.95-2.972 1.58-1.121.683-2.424 1.415-3.771 2.372a56.27 56.27 0 00-17.276 18.817c-5.03 8.8-6.407 18.049-7.406 24.533-.454 3.274-.68 5.942-.8 7.787l-.125 2.127a4.66 4.66 0 01-.078.745z" fill="#1C2E5C"/><path d="M345.936 322.158c-10.121 6.108-10.089 11.666-8.4 16.912 1.689 5.246 7.9 8.89 13.052 6.926 2.911-1.11 5.02-3.641 6.821-6.183 1.801-2.542 3.493-5.264 6.018-7.09 2.525-1.826 6.183-2.525 8.719-.715" fill="#FDBC5A"/><path opacity=".5" d="M345.936 322.158c-10.121 6.108-10.089 11.666-8.4 16.912 1.689 5.246 7.9 8.89 13.052 6.926 2.911-1.11 5.02-3.641 6.821-6.183 1.801-2.542 3.493-5.264 6.018-7.09 2.525-1.826 6.183-2.525 8.719-.715" fill="#000"/><path d="M338.358 328.854c2.646-3.656 9.184-4.715 13.312-2.891 4.128 1.824 7.153 5.443 9.859 9.055 2.706 3.612 5.341 7.426 9.091 9.939 3.75 2.513 8.986 3.423 12.723.892a10.939 10.939 0 004.322-7.484c.33-2.954.129-5.943-.595-8.825-.893-4.244-2.351-8.677-5.748-11.374-3.785-3.006-9.038-3.148-13.87-2.99-5.543.181-11.17.6-16.373 2.519-5.203 1.919-10.512 6.071-12.721 11.159z" fill="#FDBC5A"/><path d="M384.706 392.505a.828.828 0 01-.027-.222l-.034-.653-.088-2.512-.265-9.238a573.89 573.89 0 00-.563-13.691c-.282-5.149-.67-10.809-1.451-16.7a53.7 53.7 0 00-1.677-8.482 44.017 44.017 0 00-3.1-7.421 42.825 42.825 0 00-3.914-6.142 39.967 39.967 0 00-4.272-4.691 31.44 31.44 0 00-7.575-5.164c-.495-.226-.925-.449-1.313-.606l-.989-.384-.606-.244a.108.108 0 01-.063.05.108.108 0 01-.081-.005.117.117 0 01-.057-.057.113.113 0 01-.003-.081.114.114 0 01.051-.063.118.118 0 01.08-.012.112.112 0 01.088.123l.622.2 1.008.344c.4.145.834.356 1.337.571a30.29 30.29 0 017.716 5.087 39.445 39.445 0 014.354 4.7 42.41 42.41 0 013.985 6.177 43.88 43.88 0 013.157 7.485c.799 2.8 1.367 5.66 1.7 8.552.785 5.915 1.154 11.584 1.42 16.739.266 5.155.384 9.8.466 13.705.082 3.905.111 7.06.122 9.243v2.514c0 .265-.008.48-.011.653a.811.811 0 01-.017.225zM388.348 397.079a29.222 29.222 0 01-1.109-4.347 45.622 45.622 0 01-.463-12.21 81.19 81.19 0 013.856-17.717c2.077-6.511 4.9-13.475 7.306-20.959a96.2 96.2 0 002.906-11.089 98.438 98.438 0 001.436-10.581c.461-6.02.568-12.062.322-18.094-.175-5.155-.449-9.322-.62-12.2-.083-1.418-.149-2.53-.2-3.317l-.04-.864a1.454 1.454 0 010-.295c.026.095.041.193.045.292l.085.86.28 3.312c.225 2.877.548 7.043.764 12.2.293 6.045.217 12.103-.227 18.14a97.277 97.277 0 01-1.416 10.631 95.158 95.158 0 01-2.91 11.142c-2.417 7.509-5.247 14.464-7.34 20.95a82.491 82.491 0 00-3.935 17.618 47.175 47.175 0 00.319 12.151c.248 1.418.476 2.515.676 3.247.085.35.152.627.2.839.032.094.054.192.065.291z" fill="#1C2E5C"/><path d="M413.441 401.652h-47.522l-1.085-9.147h48.607v9.147z" fill="#0FA6AF"/><path d="M371.018 400.611l5.941 27.44h25.823l5.559-27.44h-37.323z" fill="#0FA6AF"/><path d="M413.439 401.652c0 .125-10.449.2-23.334.161-12.885-.039-23.335-.166-23.334-.292.001-.126 10.446-.2 23.335-.16 12.889.04 23.333.166 23.333.291z" fill="#0FA6AF"/><path d="M405.284 415.2a19.536 19.536 0 00-4.185-2.4 14.787 14.787 0 00-5.089-1.022 17.887 17.887 0 00-6.257 1.149c-2.166.732-4.189 1.584-6.159 2.054a14.659 14.659 0 01-5.323.16 10.983 10.983 0 01-3.421-1.083 6.882 6.882 0 01-.825-.524c-.178-.134-.267-.211-.258-.223.026-.037.406.235 1.161.589 1.078.473 2.22.784 3.388.925 1.73.219 3.485.134 5.185-.251 1.9-.475 3.925-1.337 6.107-2.076a17.756 17.756 0 016.413-1.136c1.789.057 3.552.444 5.2 1.142a13.452 13.452 0 013.1 1.806c.259.197.505.41.738.637.156.153.235.237.225.253z" fill="#1C2E5C"/><path d="M404.923 417.029a20.572 20.572 0 00-4.019-2.367A13.602 13.602 0 00396 413.65a17.66 17.66 0 00-6.053 1.089c-2.094.7-4.058 1.512-5.935 2.017-1.66.48-3.39.674-5.115.574a8.67 8.67 0 01-3.353-.9 6.094 6.094 0 01-.8-.506c-.172-.13-.258-.2-.248-.217.025-.037.392.229 1.124.564a9.216 9.216 0 003.3.737 15.653 15.653 0 004.984-.657c1.837-.517 3.786-1.336 5.9-2.044a17.517 17.517 0 016.206-1.077 13.445 13.445 0 017.988 2.929c.248.193.484.4.708.621.152.153.228.237.217.249z" fill="#fff"/><path d="M405.755 413.377a22.47 22.47 0 00-4.3-2.533 15.797 15.797 0 00-5.216-1.254c-2.206-.047-4.4.34-6.456 1.138a58.25 58.25 0 01-6.377 2.082 16.25 16.25 0 01-5.5.01 12.375 12.375 0 01-3.531-1.118 6.513 6.513 0 01-.857-.532c-.185-.138-.277-.216-.268-.228.026-.037.418.244 1.2.6 1.118.475 2.295.798 3.5.96 1.783.258 3.596.224 5.368-.1a64.54 64.54 0 006.311-2.1c2.11-.817 4.364-1.2 6.627-1.125a15.978 15.978 0 018.49 3.286c.266.204.52.423.761.657.177.156.258.245.248.257z" fill="#fff"/><path d="M413.859 401.692c0 .125-10.69.226-23.873.226-13.183 0-23.876-.1-23.876-.226s10.687-.227 23.876-.227c13.189 0 23.873.102 23.873.227z" fill="#1C2E5C"/><path d="M50.714 391.252c1.709 2.441 5.031 1.633 6.571.143s2.192-3.65 2.784-5.709c1.354-4.705 2.719-9.641 1.713-14.433a8.02 8.02 0 00-1.844-3.924 4.187 4.187 0 00-3.969-1.321c-1.675.443-2.716 2.083-3.469 3.644a34.405 34.405 0 00-3.4 14.764 11.932 11.932 0 001.613 6.836" fill="#FDBC5A"/><path opacity=".2" d="M50.714 391.252c1.709 2.441 5.031 1.633 6.571.143s2.192-3.65 2.784-5.709c1.354-4.705 2.719-9.641 1.713-14.433a8.02 8.02 0 00-1.844-3.924 4.187 4.187 0 00-3.969-1.321c-1.675.443-2.716 2.083-3.469 3.644a34.405 34.405 0 00-3.4 14.764 11.932 11.932 0 001.613 6.836" fill="#000"/><path d="M57.117 403.614a14.807 14.807 0 019.19-1.117 7.642 7.642 0 014.54 2.027c1.133 1.252 1.348 3.456.046 4.532a4.352 4.352 0 01-2.862.726c-2.43-.028-5.125-.456-7.066 1.006-1.107.833-1.844 2.22-3.168 2.63a3.128 3.128 0 01-3.443-1.532 5.35 5.35 0 01-.39-3.948 6.023 6.023 0 013.153-4.324zM46.02 394.755a8.882 8.882 0 001.382-8.174 15.751 15.751 0 00-4.84-7.023 26.059 26.059 0 00-8.67-5.115 9.241 9.241 0 00-3.9-.662 4.086 4.086 0 00-3.273 1.979c-.913 1.74-.038 3.851.908 5.573A66.153 66.153 0 0033.323 390c1.707 2.2 3.662 4.37 6.263 5.365 2.601.995 5.3.877 6.682-.927" fill="#FDBC5A"/><path d="M50.6 428.075a5.28 5.28 0 00.154-1.109l.295-3.027c.15-1.491.378-2.973.68-4.44.398-1.788.937-3.54 1.614-5.241a19.327 19.327 0 012.677-4.742 9.995 9.995 0 013.38-2.816 9.444 9.444 0 012.849-.888c.371-.015.74-.068 1.1-.159a5.143 5.143 0 00-1.123-.018 8.633 8.633 0 00-2.971.773 9.968 9.968 0 00-3.57 2.837 18.842 18.842 0 00-2.773 4.838 32.007 32.007 0 00-1.6 5.326 37.574 37.574 0 00-.591 4.5 56.279 56.279 0 00-.15 3.046c-.032.373-.022.749.029 1.12z" fill="#1C2E5C"/><path d="M50.807 425.746c.03-.17.04-.343.03-.515v-1.472c0-1.277 0-3.125.066-5.408.113-4.565.506-10.867 1.265-17.793.759-6.926 1.778-13.161 2.7-17.633.218-1.121.438-2.129.645-3.012.207-.883.366-1.649.529-2.266l.344-1.431c.05-.165.08-.336.09-.508a2.247 2.247 0 00-.179.483l-.427 1.41a45.84 45.84 0 00-.606 2.252 85.198 85.198 0 00-.713 3.005 167.063 167.063 0 00-2.84 17.649c-.761 6.942-1.1 13.261-1.134 17.838a95.18 95.18 0 00.08 5.419l.09 1.471c0 .172.02.344.06.511z" fill="#1C2E5C"/><path d="M50.838 413.556a9.932 9.932 0 00-.01-1.537 42.534 42.534 0 00-.472-4.165 54.846 54.846 0 00-1.356-6.07 53.966 53.966 0 00-2.537-7.181A38.297 38.297 0 0039.011 383a19.01 19.01 0 00-1.754-1.63c-.269-.227-.506-.454-.749-.634l-.68-.468a9.774 9.774 0 00-1.294-.829 45.92 45.92 0 014.242 3.785 40.31 40.31 0 017.267 11.563A57.26 57.26 0 0148.6 401.9c.665 2.23 1.107 4.281 1.441 6.009.318 1.732.5 3.145.612 4.124.022.512.084 1.021.185 1.523z" fill="#1C2E5C"/><path d="M198.289 9.409c.169-.021.34-.025.51-.012l1.5.038c.813.016 1.624.096 2.425.24.477.074 1 .122 1.54.235l1.724.426a28.728 28.728 0 0121.182 26.228 28.59 28.59 0 01-3.944 16.225 29.087 29.087 0 01-13.9 12.092A28.505 28.505 0 01199.69 67a27.613 27.613 0 01-10.083-1.255l-.3-.1h.238l-16.852 5.837-.685.238.216-.692 4.373-14.037.073.338a28.815 28.815 0 01-6.761-24.954A28.354 28.354 0 01174.257 22a29.095 29.095 0 016.672-6.962 30.884 30.884 0 013.495-2.267c1.089-.571 2.21-1.08 3.358-1.523.987-.392 2-.714 3.033-.964a18.815 18.815 0 012.6-.544c.789-.1 1.483-.223 2.088-.275l1.534-.05.936-.017c.105-.01.212-.004.317.014-.103.028-.21.044-.316.046l-.932.077-1.522.1c-.6.07-1.287.207-2.066.328-.868.138-1.724.336-2.564.592-1.017.265-2.014.599-2.984 1a32.64 32.64 0 00-3.294 1.547 31.062 31.062 0 00-3.421 2.275 28.892 28.892 0 00-6.5 6.9 27.957 27.957 0 00-4.2 10.212 28.25 28.25 0 00.474 12.975 28.244 28.244 0 006.226 11.395l.132.148-.058.19-4.345 14.046-.47-.454 16.848-5.85.116-.04.122.038.292.092a26.906 26.906 0 009.823 1.225c3.229-.134 6.41-.83 9.4-2.057a28.436 28.436 0 0013.584-11.767 28.478 28.478 0 00-8.561-38.03 28.532 28.532 0 00-8.166-3.79l-1.7-.453c-.536-.124-1.05-.182-1.521-.268a16.677 16.677 0 00-2.4-.308l-1.489-.112a2.656 2.656 0 01-.509-.06z" fill="#FDBC5A"/><path d="M181.347 40.147l4.433-4.433 8.55 7.6 16.784-16.151 4.117 4.433L193.7 51.864l-12.353-11.717z" fill="#FDBC5A"/></svg>