<svg width="692" height="470" viewBox="0 0 692 429" fill="none" xmlns="http://www.w3.org/2000/svg"><path d="M536.659 383.745a7.943 7.943 0 004.732-7.347 7.458 7.458 0 00-1.988-5.579 7.47 7.47 0 00-5.425-2.375 7.471 7.471 0 00-7.042 4.894 7.466 7.466 0 00-.445 2.991 7.936 7.936 0 004.746 7.416c-11.462 1.727-10.942 14.184-10.942 14.184l27.1.125s.626-12.593-10.736-14.309zM56.238 101.864a5.961 5.961 0 003.551-5.514 5.601 5.601 0 10-11.178-.051 5.952 5.952 0 003.562 5.565c-8.6 1.295-8.21 10.643-8.21 10.643l20.337.093s.464-9.449-8.062-10.736z" fill="#EBEBEB"/><path d="M539.573 69.578a24.838 24.838 0 01-14.818 23.279 24.833 24.833 0 01-33.161-31.718 24.835 24.835 0 0147.979 8.44z" fill="#F5F5F5"/><path d="M509.5 63.5a2.751 2.751 0 00-3.834-.353 4.719 4.719 0 00-1.9 3.473 4.798 4.798 0 00-2.156-3.383 2.792 2.792 0 00-3.844.524 3.687 3.687 0 00-.507 2.635 5.09 5.09 0 001 2.527c2.051 2.384 3.149 2.791 5.75 4.459 2.506-1.783 3.312-2.231 5.239-4.7.519-.762.822-1.65.877-2.57a3.701 3.701 0 00-.625-2.612zM531.427 63.014a2.753 2.753 0 00-3.834-.351 4.7 4.7 0 00-1.9 3.471 4.794 4.794 0 00-2.155-3.381 2.788 2.788 0 00-3.844.524 3.681 3.681 0 00-.507 2.633 5.07 5.07 0 001 2.528c2.05 2.384 3.149 2.792 5.75 4.458 2.505-1.781 3.312-2.231 5.239-4.7a5.09 5.09 0 00.876-2.569 3.705 3.705 0 00-.625-2.613z" fill="#E0E0E0"/><path d="M523.1 75.78a8.2 8.2 0 01-16.344.091l16.344-.09z" fill="#fff"/><path d="M654.444 347.751c2.232-13.868-7.201-26.92-21.069-29.152-13.869-2.233-26.921 7.2-29.153 21.069-2.232 13.868 7.201 26.92 21.069 29.152 13.868 2.232 26.92-7.2 29.153-21.069z" fill="#F5F5F5"/><path d="M620.894 336.412c.965-.059 1.818 1.021 1.9 2.415.082 1.394-.627 2.571-1.592 2.63-.965.059-1.818-1.021-1.9-2.415-.082-1.394.627-2.571 1.592-2.63zM623.264 330.02c-.059.366-2.137.254-4.459 1.083-2.34.782-3.907 2.153-4.178 1.9-.28-.19 1.069-2.19 3.76-3.107 2.683-.939 4.979-.196 4.877.124zM641.7 340.382c-.273.228-1.64-1.246-3.832-1.469-2.191-.249-3.839.9-4.057.62-.111-.123.157-.615.886-1.109a5.11 5.11 0 016.374.687c.608.638.763 1.176.629 1.271zM643.885 336.134c-.2.315-2.259-.767-5.01-.849-2.751-.139-4.892.776-5.063.445-.213-.264 1.956-1.861 5.114-1.72 3.157.112 5.192 1.879 4.959 2.124zM642.085 343.2c.114-.015.143 2.1-1.594 4.888a12.893 12.893 0 01-21.609.677c-1.909-2.668-2.013-4.786-1.9-4.778.224-.077.65 1.884 2.609 4.223a12.482 12.482 0 0020.154-.633c1.81-2.453 2.112-4.437 2.34-4.377z" fill="#E0E0E0"/><path d="M57.04 207.033c6.617-12.271 2.033-27.583-10.24-34.2-12.271-6.616-27.583-2.032-34.2 10.24-6.616 12.272-2.032 27.584 10.24 34.2 12.272 6.617 27.584 2.032 34.2-10.24z" fill="#F5F5F5"/><path d="M26.111 188.693c.956-.078 1.824.977 1.938 2.358.114 1.381-.569 2.564-1.526 2.643-.957.079-1.825-.977-1.938-2.357-.113-1.38.569-2.565 1.526-2.644zM28.33 182.3c-.017.218-2.131.017-4.5.912-2.378.855-3.855 2.379-4.011 2.225-.163-.09 1.183-1.97 3.76-2.9 2.572-.965 4.82-.41 4.752-.237zM42.16 188.363c-.959-.039-1.782 1.051-1.84 2.435-.058 1.384.675 2.539 1.634 2.578.96.039 1.783-1.051 1.84-2.436.057-1.385-.675-2.54-1.634-2.577zM39.678 182.068c-.072-.172 2.148-.82 4.753.036 2.614.828 4.037 2.65 3.878 2.748-.149.16-1.687-1.3-4.1-2.058-2.4-.794-4.503-.509-4.531-.726zM47.274 194.8c.02.458-.04.915-.176 1.353a11.484 11.484 0 01-1.466 3.426 13.42 13.42 0 01-3.85 3.984 12.215 12.215 0 01-13.029.678 13.374 13.374 0 01-4.242-3.564 11.439 11.439 0 01-1.814-3.255 4.002 4.002 0 01-.316-1.326 19.032 19.032 0 002.527 4.257 13.571 13.571 0 004.156 3.3A11.873 11.873 0 0041.411 203a13.563 13.563 0 003.791-3.709c.884-1.4 1.58-2.91 2.072-4.491zM252.523 228.825a3.54 3.54 0 00-4.945-.239 6.052 6.052 0 00-2.249 4.567 6.159 6.159 0 00-2.957-4.224 3.588 3.588 0 00-4.909.885 4.747 4.747 0 00-.505 3.413 6.52 6.52 0 001.422 3.19c2.767 2.948 4.2 3.41 7.634 5.408 3.119-2.428 4.13-3.051 6.468-6.334a6.548 6.548 0 00.983-3.349 4.768 4.768 0 00-.942-3.317zM617.318 35.433a3.538 3.538 0 00-4.945-.239 6.047 6.047 0 00-1.627 2.036 6.048 6.048 0 00-.622 2.531 6.161 6.161 0 00-2.957-4.225 3.584 3.584 0 00-4.909.886 4.741 4.741 0 00-.5 3.413 6.51 6.51 0 001.421 3.19c2.767 2.948 4.2 3.41 7.634 5.407 3.119-2.427 4.13-3.05 6.468-6.333a6.548 6.548 0 00.983-3.349 4.762 4.762 0 00-.946-3.317z" fill="#E0E0E0"/><path d="M518.712 314.6a3.54 3.54 0 00-4.945-.239 6.048 6.048 0 00-2.249 4.566 6.159 6.159 0 00-2.957-4.224 3.585 3.585 0 00-4.909.886 4.746 4.746 0 00-.505 3.412 6.528 6.528 0 001.422 3.191c2.767 2.947 4.2 3.409 7.634 5.407 3.119-2.428 4.13-3.05 6.468-6.334a6.547 6.547 0 00.983-3.348 4.768 4.768 0 00-.942-3.317z" fill="#EBEBEB"/><path d="M589.159 136.591a75.32 75.32 0 00-61.345 31.554L501 171.943l15.042 21.427a75.452 75.452 0 00119.386 78.269 75.448 75.448 0 00-2.413-120.987 75.458 75.458 0 00-43.858-14.061h.002z" fill="#E0E0E0"/><path d="M575.307 105.231c11.058-14.562 22.714-12.505 30.8-8.986a22.24 22.24 0 0112.985 21.19c-.142 2.325-.639 4.774.306 6.9 1.522 3.425 5.948 4.389 8.512 7.123 3.5 3.738 2.728 9.657 1.544 14.642-1.184 4.985-2.43 10.676.5 14.879 2.685 3.849 7.8 4.881 12.027 6.931a22.063 22.063 0 0111.683 13.748 18.822 18.822 0 01-4 17.373c-4.1 4.471-10.268 6.454-16.273 7.339a59.95 59.95 0 01-68.607-62.348" fill="#1C2E5C"/><path d="M643.356 200.527c-.033-.035.38-.36 1-1.122a10.222 10.222 0 001.967-3.765c.561-2.193.581-4.49.059-6.694a16.326 16.326 0 00-4.109-7.815 19.624 19.624 0 00-4-3.3 32.487 32.487 0 00-5.094-2.464 37.778 37.778 0 01-5.572-2.639 17.454 17.454 0 01-4.819-4.472A22.99 22.99 0 01618.514 155c-.051-2.484.16-4.966.629-7.406.45-2.472 1.077-4.93 1.555-7.432.372-1.738.577-3.508.611-5.285a14.37 14.37 0 00-1.163-5.012c-.641-1.607-1.4-3.166-2-4.79a22.927 22.927 0 01-1.042-5.011c-.2-1.669-.2-3.316-.389-4.879a28.286 28.286 0 00-.889-4.587 24.338 24.338 0 00-3.705-7.9l-.02-.026v-.007a16.417 16.417 0 00-11.424-7.366 15.668 15.668 0 00-10.381 2.17 16.73 16.73 0 00-5.084 4.719c-.92 1.328-1.26 2.132-1.31 2.107.3-.779.687-1.521 1.154-2.213a16.331 16.331 0 015.052-4.919 15.95 15.95 0 0110.639-2.364 16.9 16.9 0 0111.879 7.538l-.023-.033a24.799 24.799 0 013.869 8.119c.439 1.534.75 3.103.928 4.688.2 1.625.2 3.255.406 4.878a22.33 22.33 0 001.016 4.845c.589 1.573 1.344 3.129 2 4.768a15.082 15.082 0 011.22 5.26 28.287 28.287 0 01-.622 5.442c-.484 2.532-1.111 4.986-1.558 7.426a34.772 34.772 0 00-.628 7.256 22.372 22.372 0 004.1 12.871 16.873 16.873 0 004.617 4.327 37.687 37.687 0 005.465 2.625 32.74 32.74 0 015.163 2.547 20.05 20.05 0 014.08 3.426 16.664 16.664 0 014.129 8.082 14.115 14.115 0 01-.186 6.858 9.911 9.911 0 01-2.129 3.78 6.21 6.21 0 01-1.117 1.025z" fill="#455A64"/><path d="M602.913 183.431a24.969 24.969 0 015.415-4.72 24.869 24.869 0 01-5.415 4.72z" fill="#FAFAFA"/><path d="M599.29 174.789l-33.337 4.06s-26.825 4.876-32.217 24.967c-3.724 13.874-11.432 39.717-15.845 54.38a13.743 13.743 0 006.823 16.156 13.748 13.748 0 0018.949-6.718l14.58-33.551s5.138 11.719 4.843 17.262c-.295 5.543-11.874 25.913-11.874 25.913 24.624 14.121 49.646 12.339 69.109 3.51l-.929-53.025s9.163 47.311 27.72 43.708c15.558-3.019 5.313-33.342 0-44.938-6.776-14.789-15.618-35.889-21.184-40.976-14.921-13.637-26.638-10.748-26.638-10.748z" fill="#FDBC5A"/><path opacity=".2" d="M568.51 181.524a40.227 40.227 0 01-7.6 8.19 21.498 21.498 0 01-6.208 4.234 7.771 7.771 0 01-7.228-.531c-2.044-1.471-2.847-4.674-1.255-6.625 1.052-1.291 2.785-1.761 4.4-2.159l16.2-3.993" fill="#000"/><path d="M526 243.319a11.346 11.346 0 019.762-2.5 19.619 19.619 0 00-9.762 2.5zM530.4 238.722a6.357 6.357 0 016.9.663 12.098 12.098 0 00-6.9-.663z" fill="#1C2E5C"/><path opacity=".2" d="M537.022 241.2a9.335 9.335 0 00-9.231.64c-.559.383-1.264.845-1.848.5-.559-.329-.527-1.174-.217-1.744.738-1.359 2.426-1.873 3.965-2.033a15.971 15.971 0 018.163 1.311M591.209 218.787c-1.755 3.535-6.8 5.749-9.169 9.606-2 3.256-2.74 7.1-3.942 10.722a43.465 43.465 0 01-19.582 23.862 60.03 60.03 0 004.432-10.851 13.668 13.668 0 00-.98-6.721c1.145-3.518 6.154-8.37 8.45-11.271a66.473 66.473 0 018.911-9.837 22.292 22.292 0 0111.88-5.51" fill="#000"/><path d="M605.393 255.879a66.757 66.757 0 015.89-10.216 66.97 66.97 0 01-5.89 10.216z" fill="#FAFAFA"/><path d="M632.428 241.755c.067.952.045 1.908-.064 2.856-.09 1.758-.288 4.184-.178 6.847.19 5.37 2.269 9.34 2.067 9.4-.032.015-.172-.221-.4-.662a18.742 18.742 0 01-.838-1.924c-.8-2.18-1.256-4.47-1.352-6.79a46.248 46.248 0 01.331-6.9c.057-.954.203-1.9.434-2.827z" fill="#1C2E5C"/><path d="M587.219 264.28a25.885 25.885 0 016.218 8.507c-.132.074-1.377-1.928-3.092-4.266s-3.237-4.138-3.126-4.241zM604.2 268.155a30.903 30.903 0 017.167 3.565 30.843 30.843 0 01-7.167-3.565zM593.031 252.108a15.3 15.3 0 01-5.176-5.962 29.465 29.465 0 012.59 2.979c.927.937 1.79 1.933 2.586 2.983zM572.33 265.81c-.089-.123 1.409-1.328 3.06-3.01 1.651-1.682 2.844-3.189 2.968-3.1a16.01 16.01 0 01-6.028 6.111v-.001zM561.405 271.4a27.87 27.87 0 015.623 5.11 27.81 27.81 0 01-5.623-5.11zM582.111 233.05a39.906 39.906 0 017.756-4.772 39.955 39.955 0 01-7.756 4.772zM599.842 226.829a37.392 37.392 0 013.825 7.932 37.37 37.37 0 01-3.825-7.932zM611.992 224.191a33.11 33.11 0 014.25-7.115 33.11 33.11 0 01-4.25 7.115zM597.819 211.9c.067-.139 1.746.6 3.928 1.107 2.179.523 4.011.613 4.009.767a12.303 12.303 0 01-7.937-1.874zM606.175 198.016a27.78 27.78 0 01-.529-7.562c.522 2.485.7 5.029.529 7.562zM624.815 225.846A38.365 38.365 0 01628 217.5a38.509 38.509 0 01-3.188 8.35l.003-.004zM627.488 235.97a13.553 13.553 0 012.713 7.591c-.15.024-.519-1.745-1.269-3.827-.75-2.082-1.575-3.687-1.444-3.764zM565.909 199.132a29.157 29.157 0 016.622 4.079 29.18 29.18 0 01-6.622-4.079zM556.238 215.518c-.1-.115 1.283-1.45 2.643-3.368 1.36-1.918 2.187-3.654 2.329-3.593a13.169 13.169 0 01-4.972 6.961zM541.843 216.209a22.438 22.438 0 016.482 6.233 31.074 31.074 0 01-3.287-3.069 30.986 30.986 0 01-3.195-3.164zM545.3 202.189a50.772 50.772 0 017.382-7.135 50.619 50.619 0 01-7.382 7.135zM536.39 228.83a36.865 36.865 0 01-2.611-8.344 36.765 36.765 0 012.611 8.344zM543.279 237.39a42.267 42.267 0 01.866-9.34 42.393 42.393 0 01-.866 9.34z" fill="#FAFAFA"/><path d="M593.092 198.005a9.542 9.542 0 00-7.14-1.623 9.55 9.55 0 00-6.192 3.909l-8.7 12.361-47.16 37.615a13.52 13.52 0 00-1.371 19.885 13.537 13.537 0 0010.041 4.208 13.51 13.51 0 005.422-1.238 13.508 13.508 0 004.466-3.316l38.5-43.485 4.971-3.831 5.848-4.242 1.329-12.727s3.514 1.556 6.258 2.814c4.331 1.986 5.775-1.624 5.775-1.624l-12.047-8.706z" fill="#B78876"/><path d="M593.163 206.181c-.064.042-.343-.295-.806-.8a5.335 5.335 0 00-2.076-1.511 2.74 2.74 0 00-2.382.326c-.527.377-.643.818-.728.789-.053.008-.073-.528.493-1.072a2.85 2.85 0 012.786-.536 4.647 4.647 0 012.194 1.773c.407.587.574.994.519 1.031zM586.976 209.578c-.05-.039.12-.378.59-.754a3.557 3.557 0 014.385.017c.466.38.634.72.583.759-.051.039-.319-.187-.791-.455a3.913 3.913 0 00-3.972-.015c-.471.263-.736.501-.795.448z" fill="#AA6550"/><path d="M627.261 195.48l3.307 3.583s1.1 50.707 3.031 57.6c1.931 6.893 13.228 18.464 19.291 9.094 6.063-9.37-9.094-69.172-9.094-69.172s-4.134-13.779-4.41-17.086l-12.125 15.981z" fill="#B78876"/><path d="M634.85 166.11l-1.3 35.03a7.288 7.288 0 01-3.631 6.033l-10.55 6.1a4.364 4.364 0 01-5.97-1.597 4.375 4.375 0 01-.585-2.185V177.06a5.06 5.06 0 012.608-4.429l15.791-8.757a2.453 2.453 0 013.637 2.236z" fill="#455A64"/><path d="M622.718 175.345a2.333 2.333 0 00.342 2.573 2.335 2.335 0 004.086-1.393 2.337 2.337 0 00-4.428-1.18z" fill="#FAFAFA"/><path d="M639.386 179.5s-7.812-10.824-9.545-10.732c-1.733.092-10.126 5.108-9.761 6.2.365 1.092 2.1 1.733 3.649 1 1.549-.733 4.287-3.375 4.926-2.828.639.547 2.463 2.464 2.463 2.464s-7.714 3.937-8.3 5.473c-.6 1.572-2.006 4.288-.182 5.291 1.188.654 3.1-.091 3.831-3.193 0 0-1.459 4.47.8 5.565 2.427 1.178 3.173-1.3 5.134-3.74 1.649-2.051 2.391.558 2.391.558l4.594-6.058z" fill="#B78876"/><path d="M633.472 179.589a9.78 9.78 0 01-1.429.138 7.24 7.24 0 00-5.449 3.556 9.713 9.713 0 01-.7 1.252 2.647 2.647 0 01.377-1.425 6.548 6.548 0 015.747-3.75 2.654 2.654 0 011.454.229z" fill="#AA6550"/><path d="M567.679 108.422l.009 4.513-.294 67.561c-.034 7.844 6.683 14.12 15.081 14.092 8.482-.028 15.486-6.468 15.651-14.391.173-8.315.508-17.067.508-17.067s10.745-1.588 13.212-15.526c1.228-6.931 1.081-18.335.66-27.662a14.758 14.758 0 00-5.02-10.446 14.752 14.752 0 00-11.016-3.603l-28.791 2.529z" fill="#B78876"/><path d="M609.221 128.446a1.794 1.794 0 01-1.761 1.778 1.718 1.718 0 01-1.819-1.649 1.794 1.794 0 011.759-1.775 1.73 1.73 0 011.257.44 1.726 1.726 0 01.564 1.206zM609.928 125.828c-.226.229-1.567-.8-3.5-.829-1.926-.057-3.359.91-3.564.67-.1-.106.132-.524.757-.962a4.915 4.915 0 012.859-.825 4.722 4.722 0 012.777.951c.589.467.782.892.671.995zM590.949 128.121a1.794 1.794 0 01-1.761 1.778 1.718 1.718 0 01-1.819-1.649 1.797 1.797 0 011.759-1.779 1.709 1.709 0 011.662.989c.097.207.151.432.159.661zM590.961 125.851c-.227.229-1.569-.8-3.5-.829-1.927-.056-3.36.91-3.566.67-.1-.106.132-.524.758-.961a4.904 4.904 0 012.859-.826 4.722 4.722 0 012.777.951c.588.466.782.892.672.995zM597.707 140.28c1.023-.3 2.078-.471 3.143-.509.493-.042.961-.132 1.05-.467a2.503 2.503 0 00-.3-1.466l-1.391-3.776c-1.928-5.376-3.314-9.793-3.1-9.869.214-.076 1.957 4.22 3.885 9.6.463 1.325.906 2.588 1.328 3.8.299.599.378 1.285.221 1.937a1.227 1.227 0 01-.823.706 3.33 3.33 0 01-.838.1 12.544 12.544 0 01-3.175-.056z" fill="#1C2E5C"/><path d="M598.634 163.13A35.557 35.557 0 01580 157.8s4.371 9.683 18.384 8.623l.25-3.293zM596.809 144.915a3.476 3.476 0 00-3.093-1.347 3.185 3.185 0 00-2.213 1.137 2.01 2.01 0 00-.193 2.3 2.327 2.327 0 002.517.685 7.318 7.318 0 002.492-1.428c.221-.15.411-.34.561-.561a.641.641 0 00.01-.718" fill="#AA6550"/><path d="M592.006 141.514c.315-.013.281 2.081 2.047 3.6 1.766 1.519 4 1.327 4.01 1.62.027.132-.5.4-1.447.407a5.222 5.222 0 01-3.349-1.234 4.549 4.549 0 01-1.582-3.016c-.064-.877.179-1.391.321-1.377zM550.836 187.2a21.958 21.958 0 0023.385-18.732c.115-.953.329-1.892.639-2.8a20.65 20.65 0 00.527-12.876c-.518-1.956-1.262-4.1-.373-5.915.645-1.319 2-2.109 3.1-3.074a13.033 13.033 0 004.125-8.744 22.623 22.623 0 00-1.6-9.7c-.633-1.7-1.4-3.572-.76-5.273a8.167 8.167 0 012.481-2.9 22.917 22.917 0 004.97-6.413c1.28-2.453 2.108-5.641-1.23-7.585a6.482 6.482 0 00-2.282-.776c-5.909-.916-12.95-.036-16.908 4.615-3.226 3.789-3.684 9.135-4 14.1-.981 15.645-26.883 44.713-16.873 66.14l4.799-.067z" fill="#1C2E5C"/><path d="M591.593 118.3c-.2.521-2.121.238-4.389.471-2.273.187-4.109.817-4.4.341-.13-.227.2-.715.944-1.21a7.662 7.662 0 016.7-.618c.82.349 1.231.769 1.145 1.016zM609.318 120.232c-.347.432-1.668-.046-3.265-.1-1.6-.1-2.957.242-3.26-.221-.132-.225.088-.661.687-1.065a4.735 4.735 0 015.257.256c.557.465.735.919.581 1.13z" fill="#1C2E5C"/><path d="M662.683 129.9a1.961 1.961 0 01-3.346 1.386 1.958 1.958 0 112.772-2.772 1.95 1.95 0 01.574 1.386zM668.567 131.86a1.96 1.96 0 10-.001-3.921 1.96 1.96 0 00.001 3.921zM678.351 128.92a1.958 1.958 0 01-3.171 2.272 1.965 1.965 0 01-.285-2.159 1.962 1.962 0 012.952-.689c.204.157.376.353.504.576z" fill="#455A64"/><path d="M668.688 107.006c.133-.014.267-.017.4-.007l1.165.033c.256.012.544.012.859.039l1.027.144 1.2.172 1.34.332a21.691 21.691 0 016.492 2.831 22.912 22.912 0 0110.524 17.222 23.66 23.66 0 01.064 3.139c-.037.531-.027 1.071-.1 1.606-.073.535-.162 1.074-.244 1.617a22.992 22.992 0 01-2.182 6.389 24.566 24.566 0 01-4.173 5.742 24.06 24.06 0 01-6.012 4.319 21.843 21.843 0 01-7.328 2.25c-.647.099-1.3.154-1.955.166-.657.049-1.317.061-1.976.036a23.635 23.635 0 01-3.957-.5 23.14 23.14 0 01-7.879-3.316l.239.024-8.026 3.221-.475.191.136-.493 2.359-8.58.04.212a23.018 23.018 0 01-4.282-9.8 20.773 20.773 0 01-.312-5.022c.015-.809.091-1.616.227-2.413l.183-1.174c.071-.386.189-.76.28-1.136a22.959 22.959 0 018.954-13.054 21.989 21.989 0 015.329-2.811l1.2-.429 1.14-.29 1.042-.258c.335-.064.657-.1.96-.145.607-.077 1.139-.182 1.607-.205l1.179-.04.72-.016c.082-.006.164-.003.244.009-.079.02-.161.031-.243.033l-.717.057-1.172.079c-.464.036-.992.153-1.592.242a22.826 22.826 0 00-18.249 16.929c-.088.37-.2.737-.27 1.117s-.115.766-.173 1.153c-.13.783-.201 1.575-.213 2.369-.09 1.648.019 3.302.325 4.924a22.624 22.624 0 004.224 9.591l.073.1-.032.116-2.342 8.585-.339-.3 8.022-3.23.125-.051.114.075a22.651 22.651 0 007.7 3.239c1.274.272 2.568.436 3.869.489.644.025 1.289.013 1.932-.035.64-.01 1.279-.064 1.911-.161a21.374 21.374 0 007.167-2.192 23.663 23.663 0 005.889-4.215 24.157 24.157 0 004.1-5.611 22.607 22.607 0 002.158-6.251l.245-1.585c.078-.524.069-1.054.108-1.574a22.63 22.63 0 00-10.3-20.1 21.822 21.822 0 00-6.387-2.879l-1.323-.352-1.186-.2-1.018-.168c-.312-.035-.6-.043-.852-.063l-1.158-.084a2.212 2.212 0 01-.405-.052z" fill="#455A64"/><path d="M222.839 290.1l-35.307 5.951a75.197 75.197 0 00-100.671 2.436A75.2 75.2 0 10206.358 320.6l16.481-30.5z" fill="#E0E0E0"/><path d="M68.1 273.977a1.962 1.962 0 103.924.002 1.962 1.962 0 00-3.924-.002zM60.258 273.977a1.96 1.96 0 103.918.001 1.96 1.96 0 00-3.918-.001zM52.434 273a1.962 1.962 0 002.205 2.876 1.964 1.964 0 00.473-3.593 1.963 1.963 0 00-2.678.717z" fill="#1C2E5C"/><path d="M62.1 251.083c-.13.028-.262.043-.395.047l-1.159.084c-.254.021-.54.029-.852.063l-1.018.168-1.186.2-1.323.352a21.852 21.852 0 00-6.387 2.88 22.666 22.666 0 00-10.252 17.016 23.537 23.537 0 00-.049 3.081c.04.521.03 1.05.108 1.575.078.525.163 1.052.245 1.584a22.612 22.612 0 002.158 6.252 24.175 24.175 0 004.1 5.611 23.648 23.648 0 005.89 4.215 21.356 21.356 0 007.166 2.191c.633.097 1.271.152 1.911.162a17.06 17.06 0 001.932.034 22.79 22.79 0 003.868-.489 22.667 22.667 0 007.7-3.238l.114-.075.126.051 8.022 3.23-.34.3-2.342-8.584-.032-.117.073-.1a22.611 22.611 0 004.224-9.59c.306-1.622.415-3.276.325-4.925a15.813 15.813 0 00-.212-2.368 1833.9 1833.9 0 01-.173-1.154c-.069-.379-.183-.747-.27-1.116a22.83 22.83 0 00-18.25-16.93c-.6-.088-1.128-.206-1.592-.242l-1.17-.079-.719-.056a1.05 1.05 0 01-.243-.034c.08-.011.163-.014.244-.008l.72.016 1.18.039c.467.024 1 .128 1.607.2.3.047.625.081.96.145l1.042.259 1.14.289 1.2.43a21.981 21.981 0 015.328 2.811 22.952 22.952 0 018.954 13.053c.091.377.21.75.281 1.137.072.387.121.779.182 1.173.136.798.213 1.604.228 2.413a20.9 20.9 0 01-.312 5.023 23.026 23.026 0 01-4.283 9.8l.041-.212c.761 2.771 1.548 5.631 2.36 8.58l.134.494-.475-.191-8.025-3.221.24-.024a23.135 23.135 0 01-11.838 3.815c-.659.025-1.319.013-1.976-.036a14.382 14.382 0 01-1.955-.166 21.842 21.842 0 01-7.328-2.249 24.076 24.076 0 01-6.012-4.32 24.571 24.571 0 01-4.173-5.742 23.027 23.027 0 01-2.182-6.388l-.244-1.618c-.077-.535-.067-1.075-.1-1.606a22.668 22.668 0 013.864-13.811 23.317 23.317 0 016.715-6.54 21.732 21.732 0 016.493-2.83l1.34-.333 1.2-.172 1.027-.144c.314-.027.6-.026.858-.038l1.165-.033a2.25 2.25 0 01.402.006zM146.551 237.222a12.04 12.04 0 0110.576-7.093 12.037 12.037 0 0111.024 6.372c1.247 2.347 1.739 5.144 3.543 7.1a7.043 7.043 0 009.051.847 6.13 6.13 0 01-3.823 7.06l4.422.453c-2.386 5.207-8.919 7.591-14.568 6.575-5.649-1.016-10.448-4.753-14.292-9" fill="#1C2E5C"/><path d="M146.583 237.3l13.642 4.467a26.566 26.566 0 0110.5 13.258c.639 1.84 1.074 3.756 1.881 5.529a8.172 8.172 0 003.841 4.239c1.311.585 2.8.653 4.144 1.149a7.572 7.572 0 014.577 5.278 9.178 9.178 0 01-1.237 6.963c-.646 1.028-1.507 2.024-1.563 3.236.053.82.222 1.627.5 2.4a6.599 6.599 0 01-10.838 6.436c-.873 2-2.033 4.066-4.009 5.008-1.976.942-4.892.1-5.3-2.05a5.229 5.229 0 01-2.351 2.406 5.218 5.218 0 01-7.567-4.284l-37.385-40.779c5.582-14.923 27.399-13.604 31.165-13.256z" fill="#1C2E5C"/><path d="M152.914 251.479a4.653 4.653 0 014.17 4.715l-2.641 62.787c-.1 7.415-13.589 16.183-21.548 16.016-8.039-.169-5.675-8.678-5.791-15.731-.194-11.785-.19-16.209-.194-16.142 0 0-10.157-1.682-12.261-14.9-1.046-6.573-.715-17.35-.159-26.159.5-7.929 5.768-17.658 13.689-16.822l24.735 6.236z" fill="#FFBE9D"/><path d="M117.933 270.621a1.703 1.703 0 001.639 1.71 1.61 1.61 0 001.198-.395 1.624 1.624 0 00.553-1.133 1.701 1.701 0 00-1.636-1.711 1.63 1.63 0 00-1.754 1.529zM116.834 267.672c.211.221 1.5-.729 3.327-.724 1.827-.022 3.169.916 3.367.693.1-.1-.117-.5-.7-.922a4.663 4.663 0 00-2.7-.829 4.48 4.48 0 00-2.648.853c-.559.43-.75.83-.646.929zM135.811 270.621a1.703 1.703 0 001.639 1.71 1.63 1.63 0 001.198-.396 1.632 1.632 0 00.552-1.135 1.698 1.698 0 00-1.637-1.711 1.634 1.634 0 00-1.199.397 1.62 1.62 0 00-.553 1.135zM134.81 268.012c.211.221 1.5-.729 3.327-.724 1.827-.021 3.17.917 3.368.694.1-.1-.115-.5-.7-.923a4.682 4.682 0 00-2.695-.829 4.5 4.5 0 00-2.649.853c-.561.431-.754.83-.651.929zM128.173 281.539c-.964-.3-1.961-.48-2.97-.534-.467-.048-.909-.141-.988-.459a2.37 2.37 0 01.312-1.38l1.381-3.547c1.918-5.049 3.306-9.2 3.1-9.277-.206-.077-1.926 3.957-3.843 9.007l-1.323 3.567a2.688 2.688 0 00-.242 1.828 1.175 1.175 0 00.767.681c.259.07.526.107.794.11 1 .129 2.012.13 3.012.004z" fill="#1C2E5C"/><path d="M126.91 303.124a33.787 33.787 0 0017.747-4.722s-4.306 9.079-17.568 7.843l-.179-3.121zM128.947 285.935a3.3 3.3 0 012.954-1.22 3.01 3.01 0 012.077 1.111 1.902 1.902 0 01.145 2.174 2.216 2.216 0 01-2.4.605 6.926 6.926 0 01-2.337-1.392 2.002 2.002 0 01-.523-.539.602.602 0 010-.679" fill="#EB996E"/><path d="M133.555 282.8c-.3-.017-.3 1.963-2 3.368-1.7 1.405-3.812 1.187-3.828 1.464-.027.124.472.385 1.365.409a4.959 4.959 0 003.2-1.11 4.299 4.299 0 001.55-2.824c.07-.827-.151-1.317-.287-1.307zM133.987 264.819c.181.495 2.007.261 4.152.518 2.151.215 3.881.842 4.166.4.127-.213-.175-.679-.874-1.159a7.285 7.285 0 00-6.337-.7c-.787.316-1.184.705-1.107.941zM117.507 262.393c.321.414 1.581-.016 3.1-.036 1.514-.073 2.8.278 3.093-.155.129-.21-.073-.625-.633-1.018a4.496 4.496 0 00-4.987.154c-.539.426-.715.853-.573 1.055z" fill="#1C2E5C"/><path d="M155.617 272.62a3.33 3.33 0 013.465.173 6.13 6.13 0 012.74 7.281 6.127 6.127 0 01-6.612 4.098" fill="#FFBE9D"/><path d="M134.783 240.841c-4.829.16-8.492 1.625-12.731 3.939a18.39 18.39 0 00-9.089 10.771 3.762 3.762 0 00.107 2.977 2.927 2.927 0 003.634.781 8.503 8.503 0 002.956-2.718 5.671 5.671 0 009.024 2.994 5.665 5.665 0 001.976-3.117 4.961 4.961 0 005.109 4.545 6.553 6.553 0 005.64-4.441 16.493 16.493 0 002.331 6.453c1.353 1.867 3.8 3.151 6 2.438-.311 1.969-.614 4.043.087 5.91s2.781 3.38 4.672 2.733c1.836-.629 2.548-2.8 2.978-4.686a44.004 44.004 0 001.42-11.078 16.24 16.24 0 00-13.125-16.449 43.045 43.045 0 00-11.533-1.047" fill="#1C2E5C"/><path d="M156.543 280.23c.037-.094.515.113 1.154-.18a2.292 2.292 0 001.137-2.258 2.338 2.338 0 00-1.414-2.12c-.663-.271-1.151-.138-1.178-.241-.047-.065.45-.416 1.325-.221.507.124.961.406 1.295.806.402.494.633 1.104.658 1.74a2.626 2.626 0 01-1.659 2.749c-.901.237-1.389-.221-1.318-.275z" fill="#EB996E"/><path d="M156.938 285.782c.954 0 1.728-.772 1.728-1.724s-.774-1.724-1.728-1.724-1.728.772-1.728 1.724.774 1.724 1.728 1.724zM146.76 236.625a5.153 5.153 0 012.152-.245 11.108 11.108 0 018.813 5.078c.427.593.722 1.27.865 1.986-.085.036-.407-.723-1.17-1.78a12.142 12.142 0 00-8.534-4.917c-1.296-.131-2.115-.03-2.126-.122z" fill="#FDBC5A"/><path d="M153.687 236.632a1.245 1.245 0 01-.047-.416c.007-.405.093-.805.253-1.177a4.825 4.825 0 013.422-2.649c1.89-.515 4.284.454 5.946 2.283a13.02 13.02 0 012.155 3.214c.59 1.2 1.069 2.495 1.577 3.8a24.674 24.674 0 001.7 3.671 10.472 10.472 0 002.408 2.812 6.274 6.274 0 002.994 1.364c.96.139 1.939.003 2.824-.394a6.056 6.056 0 002.98-2.9c.193-.49.356-.991.488-1.5.02.138.018.279-.008.417a4.82 4.82 0 01-.294 1.163 6.069 6.069 0 01-3.013 3.151 5.442 5.442 0 01-3.037.487 6.664 6.664 0 01-3.23-1.414 10.817 10.817 0 01-2.549-2.926 24.28 24.28 0 01-1.745-3.746c-.993-2.617-1.954-5.125-3.6-6.874-1.577-1.76-3.764-2.679-5.518-2.248a4.697 4.697 0 00-3.313 2.372c-.21.479-.343.989-.393 1.51zM128.721 257.044a1.087 1.087 0 01-.085-.364 9.221 9.221 0 01-.122-1.06 15.39 15.39 0 01.245-3.921 17.59 17.59 0 012.025-5.47 16.75 16.75 0 014.8-5.29 19.433 19.433 0 016.508-2.939 19.249 19.249 0 015.8-.593c1.314.055 2.614.29 3.864.7.34.109.671.241.993.394.222.1.335.162.327.178a20.277 20.277 0 00-5.2-.908 19.838 19.838 0 00-5.665.69 19.571 19.571 0 00-6.33 2.9 16.699 16.699 0 00-4.683 5.107 18.042 18.042 0 00-2.079 5.3 24.18 24.18 0 00-.398 5.276z" fill="#455A64"/><path d="M137.07 256.154a3.481 3.481 0 01-.036-1.029c.043-.937.172-1.868.384-2.782a17.754 17.754 0 0112.107-13.043 15.523 15.523 0 012.743-.6 3.45 3.45 0 011.029-.043c.015.1-1.452.218-3.657.988a18.429 18.429 0 00-11.864 12.783c-.601 2.261-.607 3.733-.706 3.726z" fill="#455A64"/><path d="M134.783 334.225c-2.893-8.868-9.969-17.9-17.743-14.641-8.653 3.626-11.058 8.222-15.8 15.343-4.742 7.121-7.65 15.273-10.514 23.331-1.12 3.152-2.2 6.808-.483 9.681 1.482 2.476 4.53 3.456 7.324 4.2a294.295 294.295 0 0021.818 4.922c2.941.547 6.168 1.006 8.768-.47 3.3-1.874 4.311-6.069 5-9.8l7.247-39.251" fill="#FDBC5A"/><path d="M126.461 315.328l-11.383 4.908c-5.753 4.53-7.38 12.289-7.184 19.6l-4.733 80.138s33.2 20.521 72-.939c1.011-.559-6.5-18.888-6.5-18.888l10.568-40.017c.814-5.754 1.311-17.683-.19-23.345-3.852-14.522-14.151-18.866-24.73-21.775 0 0-10.583 8.88-20.907 7.009-.002-.003-6.302-.588-6.941-6.691z" fill="#FDBC5A"/><path opacity=".2" d="M111.174 382.047l19.7 28.548c2.568 3.721 5.237 7.542 9.047 9.976a17.025 17.025 0 0018.631-.191 17.024 17.024 0 007.303-17.14 4.1 4.1 0 00-.875-2.13 3.342 3.342 0 00-3.365-.644 18.169 18.169 0 00-3.22 1.61c-6.186 3.283-14.042 1.519-19.845-2.4-5.803-3.919-10.063-9.668-14.506-15.08-1.643-2-3.437-4.051-5.868-4.945-2.431-.894-5.659-.163-6.688 2.213" fill="#000"/><path d="M144.353 342.784c3.756 0 6.801-3.037 6.801-6.784s-3.045-6.784-6.801-6.784c-3.756 0-6.801 3.037-6.801 6.784s3.045 6.784 6.801 6.784zM112.653 330.211a6.794 6.794 0 001.139 3.782 6.795 6.795 0 006.978 2.906 6.802 6.802 0 002.463-12.325 6.8 6.8 0 00-6.379-.633 6.806 6.806 0 00-3.681 3.672 6.791 6.791 0 00-.52 2.598zM107.166 395.167a6.806 6.806 0 004.186 6.295 6.805 6.805 0 007.416-1.463 6.802 6.802 0 00-1.022-10.468 6.809 6.809 0 00-8.585.837 6.79 6.79 0 00-1.995 4.799zM126.255 421.482c3.756 0 6.801-3.037 6.801-6.784s-3.045-6.784-6.801-6.784c-3.756 0-6.801 3.037-6.801 6.784s3.045 6.784 6.801 6.784zM157.955 423.128c3.756 0 6.801-3.037 6.801-6.784s-3.045-6.784-6.801-6.784c-3.756 0-6.801 3.037-6.801 6.784s3.045 6.784 6.801 6.784zM131.099 381.362c3.756 0 6.801-3.037 6.801-6.784s-3.045-6.784-6.801-6.784c-3.756 0-6.801 3.037-6.801 6.784s3.045 6.784 6.801 6.784zM124.297 359.973c3.756 0 6.801-3.037 6.801-6.784 0-3.746-3.045-6.784-6.801-6.784-3.756 0-6.801 3.038-6.801 6.784 0 3.747 3.045 6.784 6.801 6.784z" fill="#fff"/><path d="M124.3 316.976a16.13 16.13 0 003.505 4.314 15.85 15.85 0 005.275 2.861 17.642 17.642 0 007.292.742 22.021 22.021 0 007.057-2.137 29.152 29.152 0 005.129-3.236 40.71 40.71 0 003.107-2.688 9.49 9.49 0 011.118-1.022c-.284.42-.61.81-.974 1.164a30.66 30.66 0 01-3.022 2.833 27.543 27.543 0 01-5.144 3.379 21.829 21.829 0 01-7.211 2.224 17.681 17.681 0 01-7.5-.8 15.66 15.66 0 01-5.364-3.037 12.23 12.23 0 01-2.64-3.207 7.831 7.831 0 01-.5-1.015 1.158 1.158 0 01-.128-.375z" fill="#1C2E5C"/><path d="M158.565 316.513c7.777 3.251 15.871 6.731 21.242 13.215 5.46 6.591 7.362 15.546 6.965 24.086-.397 8.54-2.884 16.828-5.352 25.016-.965 3.2-2.261 6.788-5.348 8.092-2.663 1.124-5.7.116-8.4-.933a292.18 292.18 0 01-20.513-8.9c-2.7-1.293-5.57-2.827-6.793-5.55-1.554-3.46.122-7.437 1.777-10.85l17.425-35.928" fill="#FDBC5A"/><path d="M175.158 364.74c3.756 0 6.801-3.037 6.801-6.784s-3.045-6.784-6.801-6.784c-3.756 0-6.801 3.037-6.801 6.784s3.045 6.784 6.801 6.784zM157.147 377.141c3.756 0 6.801-3.037 6.801-6.784 0-3.746-3.045-6.784-6.801-6.784-3.756 0-6.801 3.038-6.801 6.784 0 3.747 3.045 6.784 6.801 6.784zM158.946 337.057a6.666 6.666 0 007.959 6.561 6.67 6.67 0 10-7.959-6.561z" fill="#fff"/><path d="M145.126 376.045l-1.735 6.678-34.557-25.188-10.582-15.04a9.536 9.536 0 00-5.976-3.87 9.57 9.57 0 00-7.356 1.584l-9.845 6.986s.265 5.3 2.658 4.242c2.393-1.058 7.177-3.711 7.177-3.711l1.33 12.726 5.847 4.242 5.848 4.507 39.019 38.733a17.426 17.426 0 0027.84-4.539l5.782-16.417-25.45-10.933z" fill="#FFBE9D"/><path d="M142.521 381.772a2.878 2.878 0 011.451.893 7.592 7.592 0 012.021 3.579c.321 1.332.447 2.704.375 4.073a5.096 5.096 0 01-.2 1.675 5.963 5.963 0 01-.167-1.673 19.608 19.608 0 00-.51-3.942 8.503 8.503 0 00-1.782-3.456c-.67-.754-1.232-1.075-1.188-1.149zM84.85 348.385c-.056-.037.11-.444.518-1.032a4.646 4.646 0 012.194-1.773 2.848 2.848 0 012.786.536c.566.544.546 1.08.493 1.072-.085.03-.2-.412-.728-.789a2.738 2.738 0 00-2.382-.326 5.334 5.334 0 00-2.076 1.511c-.463.506-.742.844-.805.801zM91.036 351.782c-.06.053-.321-.185-.8-.448a3.912 3.912 0 00-3.972.016c-.472.267-.732.507-.791.454-.06-.053.117-.378.583-.759a3.553 3.553 0 014.385-.017c.475.372.645.715.595.754z" fill="#EB996E"/><path d="M145.126 376.045a1.974 1.974 0 01-.664-.159 3.688 3.688 0 01-1.562-1.186 5.683 5.683 0 01-1.136-2.885 8.369 8.369 0 01.734-4.04c.567-1.419 1.419-2.846 2.144-4.447a43.345 43.345 0 001.978-5.267c1.184-3.792 2.038-8.092 3.234-12.548a39.87 39.87 0 015.047-11.974 19.503 19.503 0 017.941-6.981 14.383 14.383 0 016.994-1.419 9.113 9.113 0 012.579.49c-.013.064-.914-.227-2.588-.287a14.67 14.67 0 00-6.827 1.553 19.37 19.37 0 00-7.7 6.915 40.169 40.169 0 00-4.944 11.844c-1.189 4.428-2.059 8.738-3.278 12.554a42.661 42.661 0 01-2.045 5.306c-.755 1.62-1.621 3.03-2.195 4.406a8.193 8.193 0 00-.784 3.87 5.565 5.565 0 001.008 2.791c.371.518.866.934 1.44 1.209.398.189.631.224.624.255zM106.774 354.331c.112-2.904.398-5.8.856-8.67a72.873 72.873 0 011.372-8.6 73.063 73.063 0 01-.856 8.671 73.273 73.273 0 01-1.372 8.599z" fill="#1C2E5C"/><path d="M91.231 369.183L89.4 383.622l-22.023-18.766-12.043 2.908s12.417 26.072 22.226 36.4 15.1 11.8 18.8 11.957c5.089.223 7.415-5.974 7.415-5.974l2.217-35.889-14.761-5.075z" fill="#FFBE9D"/><path d="M89.481 383.237a14.295 14.295 0 012.067 7.481 468.774 468.774 0 00-2.067-7.481z" fill="#EB996E"/><path d="M65.25 328.256H48.673c-2.507 0-4.746 2.907-3.845 5.283L61.5 366a3.779 3.779 0 003.358 2.05l20.206-.043a2.884 2.884 0 002.243-1.551 2.892 2.892 0 00-.043-2.726l-16.083-31.781a6.601 6.601 0 00-5.932-3.693z" fill="#455A64"/><path d="M64.13 330.211H47.555a2.768 2.768 0 00-2.369 1.323 2.773 2.773 0 00-.106 2.711L61.352 366a3.769 3.769 0 003.357 2.05h19.976a1.627 1.627 0 001.46-2.365L70.062 333.9a6.605 6.605 0 00-5.932-3.689z" fill="#1C2E5C"/><path d="M62.724 343.507l-10.087 4.03-2.162 8.127 4.86 12.1 17.824 2.592-5.22-5.335.671-4.645s4.973-1.56 5.1-2.321c.127-.761-.617-3.313-1.38-3.435-.763-.122-5.979 1.819-5.979 1.819s6.174-4.887 6-5.672c-.174-.785-.836-2.793-2.068-3.015-1.232-.222-11.193 4.472-11.193 4.472l-1.618 3.687-1.41-5.9s8.85-2.479 6.662-6.504z" fill="#FFBE9D"/><path d="M63.993 362.563c-.06.018-.249-.35-.342-1a5.48 5.48 0 011.731-4.675c.5-.437.88-.594.913-.541a7.724 7.724 0 00-2.3 6.221l-.002-.005zM59.2 360.8c.187-.872.32-1.755.4-2.643a11.54 11.54 0 01.507-2.927c.196-.58.513-1.113.93-1.562a4.603 4.603 0 011.647-1.036 188.101 188.101 0 016.175-2.1 13.864 13.864 0 012.6-.717c-.79.435-1.623.792-2.483 1.065-1.549.6-3.734 1.374-6.1 2.232a4.21 4.21 0 00-1.477.909c-.373.395-.66.862-.845 1.373-.302.908-.5 1.847-.59 2.8a5.382 5.382 0 01-.764 2.606zM56.885 358.979c-.142-.023-.113-.913.064-1.988s.437-1.928.578-1.9c.141.028.114.913-.064 1.989s-.436 1.92-.578 1.899z" fill="#EB996E"/><path d="M56.614 336.337a2.11 2.11 0 001.304 1.951 2.115 2.115 0 002.302-.457 2.116 2.116 0 00.458-2.302 2.112 2.112 0 00-4.064.808z" fill="#FAFAFA"/><path d="M97.935 369.2c.224.139.43.304.616.49l1.653 1.479 5.819 5.379.078.072-.009.111-.9 11.561c-.457 6.2-.814 11.822-1.013 15.891l-.216 4.82c.006.592-.034 1.183-.119 1.769a11.655 11.655 0 01-.084-1.772c-.015-1.141-.007-2.792.051-4.831.1-4.079.4-9.707.861-15.915.313-4.251.653-8.223.976-11.564l.069.182-5.692-5.515-1.567-1.568a3.388 3.388 0 01-.523-.589z" fill="#EB996E"/><path d="M265.058 114.935L229.514 97.3a75.466 75.466 0 00-91.742-40.436 75.464 75.464 0 1098.518 74.985l28.768-16.914z" fill="#E0E0E0"/><path d="M229.133 46.662a1.963 1.963 0 01-1.21 1.81 1.958 1.958 0 01-2.672-1.428 1.96 1.96 0 113.882-.382zM236.977 46.662a1.963 1.963 0 01-1.21 1.81 1.958 1.958 0 01-2.672-1.428 1.96 1.96 0 113.882-.382zM244.8 45.682a1.954 1.954 0 01-.143 2.173 1.96 1.96 0 11.143-2.173z" fill="#1C2E5C"/><path d="M235.138 23.768c.133-.014.267-.016.4-.007l1.165.033c.255.012.543.012.858.038l1.027.145 1.2.172 1.34.332a21.692 21.692 0 016.493 2.831 22.916 22.916 0 0110.524 17.221c.09 1.044.111 2.093.063 3.14-.037.531-.026 1.071-.1 1.606-.074.535-.162 1.074-.243 1.617a23.058 23.058 0 01-2.182 6.39 24.621 24.621 0 01-4.173 5.741 24.147 24.147 0 01-6.012 4.32 21.827 21.827 0 01-7.329 2.248c-.647.1-1.299.155-1.954.167a18.09 18.09 0 01-1.976.036 23.554 23.554 0 01-3.958-.5 23.138 23.138 0 01-7.879-3.316l.239.024-8.026 3.221-.475.191.136-.493 2.359-8.58.041.212a23.023 23.023 0 01-4.283-9.805 20.882 20.882 0 01-.312-5.023c.016-.809.092-1.615.228-2.412l.182-1.174c.072-.386.189-.76.281-1.136a22.95 22.95 0 018.954-13.054 22.004 22.004 0 015.328-2.81l1.2-.43 1.139-.29 1.042-.258c.335-.064.658-.1.96-.145.607-.077 1.14-.182 1.607-.205l1.179-.04.721-.016c.081-.006.163-.003.243.01-.079.019-.161.03-.243.032l-.717.057-1.172.08c-.463.035-.991.152-1.592.241a22.826 22.826 0 00-18.249 16.93c-.088.37-.2.736-.27 1.116-.07.38-.115.766-.173 1.153-.13.783-.201 1.575-.213 2.37-.09 1.648.019 3.3.326 4.923a22.626 22.626 0 004.224 9.591l.072.1-.032.116-2.341 8.585-.34-.3 8.022-3.23.126-.05.113.074a22.661 22.661 0 007.7 3.238c1.274.273 2.568.436 3.869.49.644.025 1.289.013 1.932-.035.64-.01 1.279-.064 1.911-.16a21.383 21.383 0 007.167-2.193 23.663 23.663 0 005.889-4.215 24.164 24.164 0 004.1-5.61 22.608 22.608 0 002.157-6.253c.084-.533.165-1.061.245-1.584.079-.524.069-1.054.108-1.574a22.624 22.624 0 00-10.3-20.1 21.824 21.824 0 00-6.388-2.879l-1.323-.353-1.186-.194-1.017-.168c-.313-.035-.6-.043-.853-.063l-1.158-.085a2.363 2.363 0 01-.401-.05zM206.619 120.684c.144 0 .15 7.087.014 15.823-.136 8.736-.363 15.818-.507 15.816-.144-.002-.15-7.086-.014-15.825.136-8.739.363-15.817.507-15.814zM177.548 83.227c.012.175.002.35-.031.523-.054.5-.137.994-.251 1.483a17.248 17.248 0 01-2.1 5.11 17.917 17.917 0 01-5.767 5.808 17.737 17.737 0 01-19.177-.543 17.934 17.934 0 01-5.429-6.128 17.308 17.308 0 01-1.811-5.22 12.487 12.487 0 01-.166-1.494 1.998 1.998 0 010-.524c.056 0 .1.716.366 1.98a18.473 18.473 0 001.935 5.08 17.95 17.95 0 005.379 5.911 17.482 17.482 0 0018.654.53 17.937 17.937 0 005.705-5.6 18.458 18.458 0 002.22-4.964c.337-1.243.417-1.96.473-1.952zM116.5 122.819c.144 0 .264 6.908.268 15.428.004 8.52-.11 15.431-.254 15.431-.144 0-.263-6.907-.267-15.43-.004-8.523.109-15.429.253-15.429z" fill="#1C2E5C"/><path d="M146.026 80.458l29.7.012s26.854 9.542 35.584 16.236c8.73 6.694 22.118 53.839 22.118 53.839l-26.82-.793-2.008 40.494c-27.472 19.564-60.437 18.134-85.9 1.006l-1.988-38.333-22.34-.657c-7.55-.222-7.9-2.3-7.9-2.3s17.169-45.109 22.408-53.839c4.565-7.609 31.111-14.4 37.152-15.666" fill="#1C2E5C"/><path d="M217.473 107.5c-.333.24-.689.447-1.062.618a9.987 9.987 0 01-3.394.937 16.199 16.199 0 01-5.556-.445 34.537 34.537 0 01-6.9-2.634 48.87 48.87 0 00-8.213-3.359 19.618 19.618 0 00-10.012.125A45.19 45.19 0 00172 107.119c-3.429 1.886-6.908 4.025-10.732 5.737a26.347 26.347 0 01-11.874 2.629 31.31 31.31 0 01-10.993-2.813c-3.332-1.432-6.334-3.106-9.194-4.548a57.814 57.814 0 00-8.151-3.538 22.915 22.915 0 00-12.649-.84 15.913 15.913 0 00-3.277 1.195c-.362.17-.62.336-.8.427a1.36 1.36 0 01-.283.135c.078-.068.164-.129.255-.18.176-.107.427-.288.784-.475a14.734 14.734 0 013.275-1.3 22.78 22.78 0 0112.812.685c2.831.95 5.584 2.12 8.232 3.5 2.877 1.429 5.881 3.085 9.188 4.492a30.997 30.997 0 0010.826 2.744c4.03.05 8.015-.841 11.641-2.6 3.783-1.693 7.25-3.818 10.7-5.709a45.373 45.373 0 0110.466-4.392 19.996 19.996 0 0110.241-.076 48.402 48.402 0 018.26 3.443 34.85 34.85 0 006.808 2.684c1.779.484 3.627.662 5.466.526a10.395 10.395 0 003.371-.831c.728-.307 1.086-.538 1.101-.514zM227.224 130.1c-.018.032-.424-.255-1.277-.637a13.043 13.043 0 00-3.917-1.067 17.858 17.858 0 00-6.392.473 30.613 30.613 0 00-7.827 3.371c-2.76 1.571-5.622 3.573-8.908 5.406-3.268 1.791-7.08 3.514-11.386 3.609-4.3.159-8.639-1.344-12.813-3.193-4.2-1.832-8.43-4.059-13.138-5.146a36.22 36.22 0 00-14-.02c-4.505.754-8.753 1.985-12.826 3.059a85.68 85.68 0 01-11.724 2.459 34.136 34.136 0 01-10.436-.2 21.992 21.992 0 01-12.965-7.315 15.75 15.75 0 01-2.14-3.509l-.368-1.005a1.911 1.911 0 01-.108-.347 17.384 17.384 0 002.773 4.733 21.998 21.998 0 0012.878 7.081c3.411.568 6.889.612 10.313.13a86.3 86.3 0 0011.653-2.494c4.063-1.084 8.323-2.331 12.865-3.1a36.6 36.6 0 0114.2.015c4.8 1.111 9.051 3.359 13.229 5.187 4.153 1.849 8.409 3.324 12.593 3.18 4.185-.076 7.94-1.746 11.191-3.508 3.267-1.8 6.147-3.787 8.935-5.347a30.506 30.506 0 017.94-3.334c2.12-.528 4.319-.66 6.487-.391a12.53 12.53 0 013.936 1.173c.435.203.848.45 1.232.737zM205.724 167.168c-.265.17-.55.307-.849.407a7.451 7.451 0 01-2.668.422 12.267 12.267 0 01-4.186-.865 52.583 52.583 0 01-5.077-2.468 19.73 19.73 0 00-6.375-2.154 25.351 25.351 0 00-7.733.116c-5.449.813-11.019 3.323-16.979 5.568a55.14 55.14 0 01-8.958 2.6 54.004 54.004 0 01-8.637.961 53.222 53.222 0 01-14.584-1.635 47.93 47.93 0 01-9.3-3.384c-1.066-.482-1.845-.954-2.386-1.245l-.608-.347a.126.126 0 01-.077.04.123.123 0 01-.083-.022.12.12 0 01-.048-.072.121.121 0 01.078-.141.116.116 0 01.086.003c.028.011.05.032.063.059a.122.122 0 01.007.086l.631.3c.556.261 1.348.7 2.423 1.154a51.134 51.134 0 009.3 3.211 53.131 53.131 0 0023.032.53 55.352 55.352 0 008.876-2.592c5.93-2.232 11.55-4.753 17.086-5.554a25.574 25.574 0 017.874-.068 19.907 19.907 0 016.476 2.253 55.316 55.316 0 005.015 2.524c1.299.542 2.68.858 4.085.934a8.254 8.254 0 003.516-.621zM204.866 188.137a25.52 25.52 0 00-2.639-2.56 17.421 17.421 0 00-9.159-3.628 16.058 16.058 0 00-6.77.8 24.468 24.468 0 00-6.781 4.005c-2.191 1.742-4.331 3.778-6.713 5.724a24.4 24.4 0 01-8.254 4.727 22.948 22.948 0 01-9.5.6 51.497 51.497 0 01-8.632-1.992c-5.392-1.646-10.082-3.613-14.162-4.759a23.663 23.663 0 00-9.887-1.032 23.089 23.089 0 00-3.558.909.887.887 0 01.217-.11l.659-.276a6.275 6.275 0 011.1-.372 9.894 9.894 0 011.549-.352 23.204 23.204 0 0110.016.878c4.131 1.112 8.825 3.041 14.205 4.655a51.774 51.774 0 008.554 1.945c3.101.45 6.263.249 9.282-.59a24.02 24.02 0 008.082-4.625c2.365-1.921 4.516-3.954 6.737-5.7a24.715 24.715 0 016.936-4.035 16.314 16.314 0 016.948-.764 17.304 17.304 0 019.252 3.837 12.586 12.586 0 012.518 2.715z" fill="#FAFAFA"/><path opacity=".2" d="M115.775 184.182c6.029.469 11.4-3.578 15.875-7.645s9.154-8.6 15.14-9.457c6.273-.9 12.648 2.5 18.863 1.253 2.8-.56 5.4-2.043 8.256-2.155 4.7-.184 8.637 3.31 12.017 6.577l13.188 12.745c1.345 1.3 3.911 3.249 5.6 2.439l.327-6.575c-2.107-11.827-4.4-23.988-13.505-31.819-6.762-5.812-15.963-7.81-24.823-8.819-10.733-1.223-22.348-1.083-31.358 4.877-6.008 3.974-10.248 10.2-13.026 16.848-2.778 6.648-4.218 13.762-5.642 20.824" fill="#000"/><path d="M231.239 150.48c.26 1.559 4.585 26.54 3.806 31.478-.779 4.938-2.08 11.435-7.8 13.774-5.72 2.339-14.034-.78-18.712-8.836-4.678-8.056-24.949-36.385-24.949-36.385l-15.074-1.819v-25.209l28.848 18.363 13.254 12.028-1.013-4.033 21.64.639z" fill="#EB996E"/><path d="M175.017 110.083h-22.756a3.382 3.382 0 00-3.382 3.382v41.055a3.382 3.382 0 003.382 3.382h22.756a3.382 3.382 0 003.382-3.382v-41.055a3.382 3.382 0 00-3.382-3.382z" fill="#455A64"/><path d="M196.091 141.205c.1-.108 6.366 5.313 14 12.1s13.758 12.395 13.662 12.495c-.096.1-6.364-5.312-14.005-12.106-7.641-6.794-13.753-12.382-13.657-12.489z" fill="#E07646"/><path d="M90.39 151.894s-3.6 31.054-3.6 34.592c0 3.538 3.183 12.029 12.028 12.736 8.845.707 20.165-19.1 20.165-19.1l18.4-27.948-8.137-15.212-15.91 15.858-22.947-.926zM172.525 128.773l-23.823-.659-19.458 8.844 8.137 15.212 14.237-2.075s8.33-1.356 8.844-1.868c.959-.955 1.794-3.908 2.368-6.47.585-2.609.29-5.339-.839-7.764l-.536-.455s7.841-1.638 9.142-2.212c3.123-1.378 1.928-2.553 1.928-2.553z" fill="#EB996E"/><path d="M129.244 136.958a7.965 7.965 0 01-.927 1.129c-.62.705-1.541 1.7-2.693 2.924-2.3 2.443-5.565 5.741-9.2 9.339l-9.309 9.227-2.81 2.808a7.739 7.739 0 01-1.074.989c.273-.404.584-.782.927-1.129.62-.705 1.541-1.7 2.693-2.924 2.3-2.443 5.565-5.741 9.207-9.341l9.307-9.225 2.81-2.808a7.883 7.883 0 011.069-.989zM152.72 135.844a10.129 10.129 0 019.365-1.861 28.087 28.087 0 00-4.814.27c-1.56.398-3.082.93-4.551 1.591zM163.432 138.5a19.013 19.013 0 00-4.285-.352 19.08 19.08 0 00-4.153 1.115 7.77 7.77 0 018.438-.763zM161.933 142.887c-.054.061-.316-.114-.766-.277a3.878 3.878 0 00-3.522.475c-.391.276-.6.514-.665.469-.053-.03.048-.358.425-.749a3.364 3.364 0 013.919-.528c.467.278.652.567.609.61z" fill="#E07646"/><path d="M161.757 95.412a14.83 14.83 0 0013.972-14.942c-.043-4.75-.1-8.823-.1-8.823s12.047-1.874 12.2-13.918c.153-12.044-1.939-39.7-1.939-39.7a41.86 41.86 0 00-42.063 5.287l-1.785 1.374 4.074 56.98a14.825 14.825 0 0015.641 13.742z" fill="#EB996E"/><path d="M175.651 71.473a28.011 28.011 0 01-15.7-4.463s3.712 8.67 15.731 7.584l-.031-3.12z" fill="#E07646"/><path d="M143.524 37.164c-.206-.089-8.276-2.448-8.013 5.787.263 8.235 8.476 6.272 8.483 6.035.007-.237-.47-11.822-.47-11.822z" fill="#EB996E"/><path d="M141.378 45.947c-.037-.025-.14.105-.379.224-.336.156-.72.176-1.071.056-.88-.291-1.657-1.65-1.744-3.132a4.743 4.743 0 01.336-2.067 1.657 1.657 0 011.043-1.136.732.732 0 01.86.367c.117.227.07.392.114.4.024.02.173-.143.1-.481a.914.914 0 00-.341-.506 1.083 1.083 0 00-.8-.184 2.012 2.012 0 00-1.458 1.324 4.885 4.885 0 00-.424 2.31c.106 1.659 1.005 3.185 2.206 3.49a1.54 1.54 0 001.305-.26c.245-.206.282-.391.253-.405z" fill="#E07646"/><path d="M181.938 38.339a1.721 1.721 0 01-1.659 1.736 1.644 1.644 0 01-1.773-1.551 1.72 1.72 0 011.657-1.737 1.649 1.649 0 011.775 1.552zM183.608 34.97c-.214.225-1.517-.74-3.368-.735-1.849-.021-3.207.93-3.408.7-.1-.1.119-.505.71-.936a4.724 4.724 0 012.728-.841c.963-.003 1.902.3 2.681.866.569.44.761.846.657.947zM163.388 38.55a1.723 1.723 0 01-1.658 1.736 1.642 1.642 0 01-1.609-.92 1.65 1.65 0 01-.164-.631A1.722 1.722 0 01161.614 37a1.647 1.647 0 011.774 1.55zM165.414 35.316c-.214.224-1.519-.74-3.369-.735-1.848-.022-3.207.93-3.408.7-.1-.1.117-.505.711-.936a4.717 4.717 0 012.728-.84c.963-.004 1.901.299 2.68.864.568.441.762.847.658.947zM172.131 49.043a12.208 12.208 0 013.006-.543c.473-.048.92-.142 1-.465a2.413 2.413 0 00-.316-1.4l-1.4-3.6c-1.941-5.124-3.346-9.338-3.139-9.414.207-.076 1.949 4.015 3.89 9.14.467 1.263.914 2.467 1.339 3.62.297.57.384 1.227.245 1.855a1.19 1.19 0 01-.777.691c-.261.07-.53.108-.8.112-1.012.13-2.036.132-3.048.004zM166.684 50.323c.3-.017.3 1.992 2.024 3.418 1.724 1.426 3.858 1.205 3.874 1.486.028.126-.477.39-1.381.414a5 5 0 01-3.234-1.126 4.354 4.354 0 01-1.568-2.866c-.077-.84.147-1.337.285-1.326z" fill="#1C2E5C"/><path d="M165.891 28.062c-.182.5-2.03.265-4.2.527-2.177.218-3.928.854-4.216.4-.129-.216.177-.689.885-1.177a7.365 7.365 0 016.413-.708c.795.324 1.197.72 1.118.958zM182.927 29.614c-.326.42-1.6-.016-3.134-.037-1.533-.074-2.832.283-3.131-.157-.13-.214.074-.635.641-1.033a4.539 4.539 0 015.048.156c.542.432.72.866.576 1.07z" fill="#FDBC5A"/><path d="M191.755 10.423a4.438 4.438 0 00-1.642-3.973 3.152 3.152 0 00-4.086.306 3.673 3.673 0 00-.588-2.936 3.675 3.675 0 00-2.576-1.527c-1.964-.125-3.64 1.359-5.538 1.879a8.944 8.944 0 01-5.624-.649c-1.782-.718-3.448-1.708-5.253-2.368a15.4 15.4 0 00-19.7 9.045 6.837 6.837 0 00-7.252 2.745 11.222 11.222 0 00-1.718 7.9c.258 1.846.72 3.657 1.378 5.4 0 .155-.016.307-.013.462.125 6.624.873 14.4 3.7 14.445 4.925.075 3.751-9.2 3.751-9.2 6.045-2.335 3.793-11.39 5.3-12.764 1.507-1.373 4.673-4.566 17.327 1.9 4.914 2.512 11.447 2.433 15.014 1.624.1-.022.21-.038.314-.064.022-.005.052-.009.074-.015.038-.01.066-.03.1-.042a11.354 11.354 0 003.245-1.377 6.405 6.405 0 002.675-2.973 3.514 3.514 0 00-.69-3.77 7.71 7.71 0 001.802-4.048z" fill="#FDBC5A"/><path d="M438.865 410.2l-129.717-.6a28.256 28.256 0 01-28.125-28.375l1.374-325.2a28.245 28.245 0 012.199-10.806 28.248 28.248 0 0126.188-17.33l129.717.601a28.258 28.258 0 0128.125 28.376l-1.375 325.2a28.266 28.266 0 01-8.365 19.947 28.256 28.256 0 01-20.021 8.187z" fill="#1C2E5C"/><path d="M440.316 39.713l-25.15-.116a6.246 6.246 0 00-6.133 6.356l-.021 4.562a6.248 6.248 0 01-6.133 6.356l-49.023-.227a6.254 6.254 0 01-6.08-6.412l.02-4.562a6.257 6.257 0 00-6.081-6.412l-8.845-.042-22.012-.1a19.792 19.792 0 00-18.341 12.137 19.793 19.793 0 00-1.539 7.569l-1.342 317.421a19.79 19.79 0 0019.7 19.873l129.457.6a19.79 19.79 0 0019.88-19.705l1.342-317.423a19.789 19.789 0 00-19.699-19.875z" fill="#FAFAFA"/><path d="M321.319 89.9a6.225 6.225 0 01-3.84 5.748 6.224 6.224 0 01-8.483-4.534 6.22 6.22 0 1112.323-1.214zM332.924 85.225h104.388A5.78 5.78 0 01443.089 91v15.814a5.78 5.78 0 01-5.777 5.777h-93.5a5.78 5.78 0 01-5.777-5.777V89.829l-5.111-4.604z" fill="#FDBC5A"/><path d="M426.351 95.038c0 .144-16.028.26-35.8.26s-35.8-.116-35.8-.26c0-.144 16.024-.26 35.8-.26 19.776 0 35.8.122 35.8.26zM426.351 101.482c0 .144-16.028.261-35.8.261s-35.8-.117-35.8-.261c0-.144 16.024-.26 35.8-.26 19.776 0 35.8.116 35.8.26z" fill="#fff"/><path d="M321.319 242.962a6.223 6.223 0 01-7.435 6.102 6.224 6.224 0 01-4.533-8.482 6.218 6.218 0 0111.968 2.38zM332.924 238.284h104.388a5.775 5.775 0 015.777 5.777v15.814a5.777 5.777 0 01-5.777 5.776h-93.5a5.781 5.781 0 01-4.085-1.691 5.782 5.782 0 01-1.692-4.085v-16.986l-5.111-4.605z" fill="#FDBC5A"/><path d="M426.351 248.1c0 .144-16.028.26-35.8.26s-35.8-.116-35.8-.26c0-.144 16.024-.261 35.8-.261 19.776 0 35.8.115 35.8.261zM426.351 254.542c0 .144-16.028.26-35.8.26s-35.8-.116-35.8-.26c0-.144 16.024-.261 35.8-.261 19.776 0 35.8.119 35.8.261z" fill="#fff"/><path d="M430.565 143.836a6.114 6.114 0 100-12.228 6.114 6.114 0 000 12.228zM415.823 129.138h-97.771a5.407 5.407 0 00-4.998 3.341 5.407 5.407 0 00-.412 2.07v14.811a5.403 5.403 0 001.585 3.826 5.405 5.405 0 003.825 1.584h87.569a5.414 5.414 0 005.411-5.41v-15.909l4.791-4.313z" fill="#455A64"/><path d="M328.319 138.33c0-.144 15.012-.261 33.526-.261 18.514 0 33.53.117 33.53.261 0 .144-15.009.26-33.53.26s-33.526-.117-33.526-.26zM328.319 144.365c0-.144 15.012-.26 33.526-.26 18.514 0 33.53.116 33.53.26 0 .144-15.009.261-33.53.261s-33.526-.117-33.526-.261z" fill="#fff"/><path d="M308.877 180.808a6.217 6.217 0 003.84 5.748 6.218 6.218 0 006.779-1.348 6.222 6.222 0 00-8.797-8.798 6.22 6.22 0 00-1.822 4.398zM336.8 171.8h97.771a5.414 5.414 0 015.411 5.41v14.81a5.41 5.41 0 01-5.411 5.411h-87.565a5.41 5.41 0 01-5.41-5.411v-15.909L336.8 171.8z" fill="#1C2E5C"/><path d="M424.309 180.99c0 .144-15.012.261-33.526.261-18.514 0-33.53-.117-33.53-.261 0-.144 15.009-.26 33.53-.26s33.526.116 33.526.26zM424.309 187.026c0 .143-15.012.26-33.526.26-18.514 0-33.53-.117-33.53-.26 0-.143 15.009-.261 33.53-.261s33.526.117 33.526.261z" fill="#fff"/><path d="M432.112 209.564h-23.591a3.993 3.993 0 00-3.993 3.993v8.527a3.993 3.993 0 003.993 3.993h23.591a3.993 3.993 0 003.993-3.993v-8.527a3.993 3.993 0 00-3.993-3.993z" fill="#1C2E5C"/><path d="M430.482 217.82a82.348 82.348 0 01-9.267.261c-3.092.087-6.186 0-9.268-.261a83.093 83.093 0 019.268-.26 83.062 83.062 0 019.267.26z" fill="#fff"/><path d="M317.049 319.337h-15.462v15.462h15.462v-15.462zM335.441 319.337h-15.462v15.462h15.462v-15.462zM353.833 319.337h-15.462v15.462h15.462v-15.462zM372.225 319.337h-15.462v15.462h15.462v-15.462zM390.617 319.337h-15.462v15.462h15.462v-15.462zM317.748 357.481h-16.161v16.161h16.161v-16.161zM398.78 357.522h-77.969v16.161h77.969v-16.161z" fill="#E0E0E0"/><path d="M445.981 314.845s-.015-.4-.023-1.172c-.008-.772-.016-1.918-.028-3.413l-.066-13.216.117.117-144.381.139h-.007l.26-.261v17.8l-.258-.259 102.6.112 30.6.076 8.284.035 2.157.018c.488.006.746.018.746.018s-.235.011-.711.017l-2.123.018-8.226.035-30.542.077-102.791.111h-.259v-.259V296.778h.268l144.386.143h.117v.117l-.067 13.284-.027 3.387c-.007.763-.026 1.136-.026 1.136z" fill="#1C2E5C"/><path d="M435.936 300.204h-.737c-.818 0-1.482.664-1.482 1.482v4.389c0 .819.664 1.482 1.482 1.482h.737c.819 0 1.482-.663 1.482-1.482v-4.389c0-.818-.663-1.482-1.482-1.482z" fill="#FDBC5A"/><path d="M440.05 306.1a3.516 3.516 0 01-1.18.148l.148-.136a4.678 4.678 0 01-.748 2.288 3.174 3.174 0 01-1.186 1.068 3.444 3.444 0 01-1.722.328 3.533 3.533 0 01-2.728-1.5 5.338 5.338 0 01-.907-2.168l.154.127a4.294 4.294 0 01-1.362-.157 4.352 4.352 0 011.362-.157l.116-.005.038.133c.198.704.526 1.364.969 1.946.281.372.64.678 1.052.896.412.217.867.341 1.333.363a3.065 3.065 0 001.472-.261 2.824 2.824 0 001.033-.88 4.987 4.987 0 00.829-2.046l.025-.143.122.007c.399-.018.798.033 1.18.149z" fill="#FDBC5A"/><path d="M435.568 309.554c.143 0 .26.508.26 1.134 0 .626-.117 1.135-.26 1.135-.143 0-.261-.508-.261-1.135s.117-1.134.261-1.134z" fill="#FDBC5A"/><path d="M417.576 357.481h-16.161v16.161h16.161v-16.161z" fill="#E0E0E0"/><path d="M445.981 357.481h-25.342v16.161h25.342v-16.161z" fill="#FDBC5A"/><path d="M409.198 319.337h-15.462v15.462h15.462v-15.462zM427.589 319.337h-15.462v15.462h15.462v-15.462zM445.981 319.337h-15.462v15.462h15.462v-15.462zM317.049 338.409h-15.462v15.462h15.462v-15.462zM335.441 338.409h-15.462v15.462h15.462v-15.462zM353.833 338.409h-15.462v15.462h15.462v-15.462zM372.225 338.409h-15.462v15.462h15.462v-15.462zM390.617 338.409h-15.462v15.462h15.462v-15.462zM409.198 338.409h-15.462v15.462h15.462v-15.462zM427.589 338.409h-15.462v15.462h15.462v-15.462zM445.981 338.409h-15.462v15.462h15.462v-15.462z" fill="#E0E0E0"/><path d="M370.845 283.671a2.672 2.672 0 11-2.66-2.657 2.656 2.656 0 012.66 2.657zM379.122 283.709a2.669 2.669 0 01-3.188 2.633 2.672 2.672 0 01-1.948-3.647 2.67 2.67 0 012.476-1.644 2.656 2.656 0 012.66 2.658zM387.4 283.747a2.662 2.662 0 01-.445 1.488 2.666 2.666 0 01-4.114.414 2.674 2.674 0 01-.578-2.916 2.668 2.668 0 012.477-1.644 2.655 2.655 0 012.66 2.658z" fill="#FDBC5A"/></svg>