<svg width="673" height="550" viewBox="0 0 673 455" fill="none" xmlns="http://www.w3.org/2000/svg"><path d="M277.078 91.214H127.894l24.3 17.536v34.5a7.2 7.2 0 007.2 7.2h117.684a7.203 7.203 0 007.2-7.2V98.418a7.202 7.202 0 00-7.2-7.204z" fill="#F5F5F5"/><path d="M270.855 115.6c0 .144-22.5.261-50.249.261-27.749 0-50.253-.117-50.253-.261 0-.144 22.5-.26 50.253-.26s50.249.113 50.249.26zM270.855 128.843c0 .144-22.5.26-50.249.26-27.749 0-50.253-.116-50.253-.26 0-.144 22.5-.261 50.253-.261s50.249.118 50.249.261z" fill="#E0E0E0"/><path d="M49.1 25.51h106.468l-17.343 12.516v24.622a5.142 5.142 0 01-5.141 5.14H49.1a5.14 5.14 0 01-5.141-5.14v-32A5.14 5.14 0 0149.1 25.51z" fill="#F5F5F5"/><path d="M53.544 42.911c0 .1 16.057.186 35.86.186s35.864-.083 35.864-.186-16.054-.185-35.864-.185-35.86.083-35.86.185zM53.544 52.365c0 .1 16.057.186 35.86.186s35.864-.084 35.864-.186-16.054-.186-35.864-.186-35.86.083-35.86.186z" fill="#E0E0E0"/><path d="M565.9 120.452h106.461l-17.343 12.515v24.622a5.146 5.146 0 01-5.142 5.142H565.9a5.141 5.141 0 01-5.141-5.142v-32a5.14 5.14 0 015.141-5.137z" fill="#F5F5F5"/><path d="M570.336 137.853c0 .1 16.057.185 35.86.185s35.864-.083 35.864-.185-16.054-.186-35.864-.186-35.86.083-35.86.186zM570.336 147.306c0 .1 16.057.186 35.86.186s35.864-.083 35.864-.186-16.054-.186-35.864-.186-35.86.08-35.86.186z" fill="#E0E0E0"/><path d="M590.384 405.173c-.712-2.824 1.153-5.645 3.238-7.68s4.573-3.853 5.667-6.553c1.773-4.373-.544-10.063 2.458-13.7 1.767-2.142 4.916-2.843 6.486-5.133a11.782 11.782 0 001.425-4.1 41.703 41.703 0 0110.486-19.356 36.193 36.193 0 01-4.177 18.689c-1.221 2.292-2.717 4.525-3.131 7.089-.674 4.164 1.628 8.47.581 12.556-1.2 4.672-6.471 7.774-6.748 12.59-.234 4.071 3.295 7.666 3.008 11.734a10.99 10.99 0 01-1.84 4.819c-3.178 5.217-7.824 8.8-14.835 8.639l-8.589.252 5.971-19.846z" fill="#F5F5F5"/><path d="M582.672 425.231a6.852 6.852 0 01-2.364-.064 14.38 14.38 0 01-2.786-.718 11.831 11.831 0 01-3.436-1.908 4.796 4.796 0 01-1.407-1.9 8.912 8.912 0 01-.39-2.568 25.064 25.064 0 00-.184-2.779 7.667 7.667 0 00-1.034-2.768c-1-1.784-2.674-3.477-3.2-5.9-.574-2.378-.138-4.946.276-7.526.414-2.58.816-5.379-.154-8.068-.906-2.691-2.775-5.127-3.7-8.16-.92-3.063-.464-6.35-.644-9.6a12.746 12.746 0 00-1.092-4.774c-.686-1.524-1.642-2.963-2.385-4.568-1.506-3.244-1.754-6.912-2.151-10.508l-.585-5.49a26.896 26.896 0 00-.923-5.5 48.598 48.598 0 00-2.024-5.326 17.703 17.703 0 01-.981-2.782 27.853 27.853 0 01-.26-2.955 34.724 34.724 0 01.262-5.943c.245-1.98.614-3.943.838-5.928l.04-.342.047-.4.351.178a13.267 13.267 0 014.6 3.927 21.033 21.033 0 012.811 5.251c1.414 3.7 1.908 7.567 2.61 11.261a30.548 30.548 0 003.47 10.406c.932 1.535 2.063 2.937 3.051 4.435a12.148 12.148 0 012.1 4.906c.487 3.636-1.532 6.815-1.134 10.034a11.117 11.117 0 001.542 4.466c.772 1.376 1.681 2.654 2.543 3.938a25.228 25.228 0 012.283 3.975 12.582 12.582 0 011.031 4.311c.193 2.9-.234 5.642-.037 8.237.224 2.47.93 4.872 2.079 7.07 1.027 2.119 2.172 4.036 3.129 5.894.474.892.904 1.808 1.287 2.744.34.878.587 1.789.738 2.719a17.19 17.19 0 01.036 4.9 12.356 12.356 0 01-2.493 6.237c-.212.269-.446.52-.7.749a3.477 3.477 0 01-.566.475c-.322.234-.494.341-.494.341a10.779 10.779 0 001.673-1.635 12.436 12.436 0 002.366-6.2 17.074 17.074 0 00-.082-4.831 13.366 13.366 0 00-.744-2.656c-.361-.888-.81-1.789-1.295-2.707-.965-1.842-2.122-3.752-3.171-5.884a19.262 19.262 0 01-2.152-7.194c-.211-2.65.2-5.4 0-8.234a12.152 12.152 0 00-1.012-4.167 24.775 24.775 0 00-2.257-3.9c-.862-1.275-1.781-2.557-2.575-3.962a11.603 11.603 0 01-1.613-4.649c-.394-3.429 1.61-6.629 1.113-10.009a11.66 11.66 0 00-2.032-4.693c-.972-1.47-2.109-2.874-3.069-4.448a31.02 31.02 0 01-3.55-10.579c-.709-3.717-1.205-7.545-2.593-11.167a20.509 20.509 0 00-2.737-5.113 12.717 12.717 0 00-4.407-3.765l.4-.217-.041.346c-.227 2.008-.6 3.975-.839 5.932a34.376 34.376 0 00-.261 5.852c.033.959.116 1.916.248 2.867.242.918.559 1.816.948 2.683a48.747 48.747 0 012.04 5.385 27.34 27.34 0 01.935 5.588l.578 5.495c.39 3.611.639 7.22 2.089 10.352.716 1.558 1.67 3 2.376 4.576a13.21 13.21 0 011.123 4.95c.169 3.316-.281 6.553.6 9.494.874 2.926 2.733 5.375 3.664 8.151 1 2.806.561 5.7.137 8.268-.43 2.584-.861 5.1-.32 7.384.483 2.31 2.106 3.988 3.13 5.823a7.964 7.964 0 011.048 2.877c.108.934.163 1.873.165 2.813a8.705 8.705 0 00.352 2.5 4.601 4.601 0 001.322 1.815 11.761 11.761 0 003.353 1.916c.889.342 1.809.597 2.747.762.576.106 1.16.166 1.746.179l.597.023z" fill="#E0E0E0"/><path d="M556.113 323.909c.038.082.066.169.081.259l.186.775c.164.677.36 1.7.677 2.977.317 1.277 1.1 2.718 1.757 4.495a64.804 64.804 0 012.007 6.1c.634 2.292 1.208 4.841 1.8 7.568a31.799 31.799 0 002.7 8.4c.7 1.4 1.48 2.815 2.1 4.363a20.26 20.26 0 011.208 4.935 99.245 99.245 0 001.793 10.4l4.742 19.871 3.978 16.207c1.105 4.585 2 8.31 2.635 10.938l.69 2.98.165.779a.977.977 0 01.038.269.98.98 0 01-.092-.256c-.059-.2-.131-.455-.219-.765l-.79-2.955c-.674-2.618-1.63-6.328-2.8-10.9l-4.093-16.178-4.788-19.876a98.222 98.222 0 01-1.789-10.443 19.844 19.844 0 00-1.163-4.815c-.6-1.509-1.371-2.918-2.067-4.332a31.97 31.97 0 01-2.693-8.532c-.572-2.735-1.114-5.274-1.729-7.562a71.533 71.533 0 00-1.918-6.1c-.622-1.771-1.368-3.233-1.677-4.549-.29-1.309-.448-2.32-.578-3.01-.054-.318-.1-.576-.132-.785a.901.901 0 01-.029-.258z" fill="#E0E0E0"/><path d="M581.157 425.249c-5.591-3.366-7.143-13.495-4.769-19.573 2.374-6.078 6.5-11.621 7.17-18.112.514-4.989-1.092-10.123.1-15 1.606-6.576 8.065-11.64 8.029-18.41-.02-3.8-2.161-7.385-1.967-11.178.237-4.653 3.831-8.325 6.067-12.413 3.422-6.256 3.687-13.675 4.885-20.7 1.198-7.025 3.922-14.55 10.178-17.973.887 5.979 2.436 10.079 1.9 18.17-.193 2.9-3.6 8.45-4.1 14.817-.3 3.806-.508 7.618-.762 11.427-.248 3.706-.51 7.48-1.858 10.941-1.034 2.653-2.684 5.058-3.455 7.8-1.452 5.155.385 10.758-.794 15.982-1 4.426-4.087 8.222-4.739 12.713-.916 6.309 3.133 12.892 1.007 18.9-1.055 2.983-3.527 5.369-4.242 8.451-.555 2.391.021 4.929-.483 7.331-.811 3.871-8.22 6.838-12.165 6.576" fill="#E0E0E0"/><path d="M609.269 297.81c.004.113-.004.227-.026.338l-.132.981c-.134.862-.285 2.128-.586 3.764-.323 1.646-1.182 3.5-1.873 5.728a83.09 83.09 0 00-2.1 7.669c-.645 2.876-1.21 6.057-1.792 9.482a39.8 39.8 0 01-2.936 10.716c-.8 1.789-1.69 3.578-2.363 5.486a24.684 24.684 0 00-1.218 6.055c-.338 4.38-.912 8.739-1.719 13.057l-4.986 24.929c-1.613 7.635-3.066 14.513-4.29 20.3l-2.939 13.678-.827 3.714-.228.962c-.022.111-.055.22-.1.324 0-.113.014-.225.041-.335.044-.249.1-.57.175-.974l.725-3.735c.66-3.274 1.6-7.95 2.767-13.714 1.191-5.8 2.6-12.684 4.175-20.328l4.94-24.922a123.85 123.85 0 001.724-13.014 25.062 25.062 0 011.259-6.176c.694-1.949 1.6-3.745 2.4-5.519a39.646 39.646 0 002.95-10.587c.6-3.419 1.178-6.61 1.862-9.49.684-2.88 1.429-5.455 2.188-7.68.725-2.24 1.61-4.073 1.956-5.677.329-1.606.518-2.885.686-3.735l.186-.972c.015-.111.043-.22.081-.325zM9.258 258.178s-9.563 1.948-2.816 22.737c6.747 20.789 12.027 31.385 12.027 31.385s1.029 4.74-2.84 4.835c-3.867.095-11.93-2.535-14.336 1.794-2.495 4.492.252 9.542 6.646 14.606s20 16.675 21.222 17.729c1.2 1.035 2.21 3.325-.413 3.813-2.624.488-21.542-.535-21.49 8.471.052 9.006 20.184 20.188 22.36 21.452 2.178 1.264 2.577 2.336 2.185 3.58-.392 1.244-6.718.3-12.111.23-5.393-.07-11.658.79-11.192 5.99.466 5.2 11.454 17.7 41.712 25.6l14.26 2.746 9.729-10.867c19.405-24.527 20.653-41.127 17.9-45.555-2.753-4.428-8.277-1.347-12.541 1.955-4.264 3.302-8.75 7.862-9.81 7.1-1.061-.762-1.39-1.852-.411-4.173.978-2.321 10.324-23.366 4.946-30.59S54.412 346 52.024 347.194c-2.388 1.194-2.963-1.245-2.625-2.8.345-1.58 4.219-19.038 6.277-26.931 2.058-7.893 1.213-13.579-3.483-15.664-4.53-2.011-9.381 4.948-12.527 7.2-3.146 2.252-5.177-2.153-5.177-2.153s-2.163-11.644-9.287-32.306c-7.124-20.662-16.135-16.313-16.135-16.313" fill="#EBEBEB"/><path d="M64.677 426.641C59.5 411.445 50.766 384.283 43.142 361c-7.624-23.283-14.542-44.336-19.635-59.556l-6.052-18.019-1.643-4.9-.416-1.278a6.985 6.985 0 01-.127-.44s.065.141.17.425l.459 1.264 1.723 4.873c1.49 4.234 3.605 10.376 6.188 17.974 5.172 15.2 12.14 36.246 19.762 59.52 7.62 23.274 16.314 50.457 21.409 65.677M12.425 323.072c.333.11.654.257.955.438.6.3 1.46.772 2.515 1.358 2.106 1.178 4.974 2.878 8.106 4.81l8 4.978 2.43 1.493c.313.161.606.357.874.584a4.812 4.812 0 01-.96-.431c-.6-.307-1.46-.774-2.507-1.372-2.1-1.2-4.941-2.935-8.071-4.868l-8.03-4.918-2.44-1.481a4.645 4.645 0 01-.872-.591zM36.428 335.972c-.109-.06 3.135-6.127 7.245-13.55 4.11-7.423 7.532-13.393 7.641-13.333.109.06-3.135 6.127-7.246 13.552-4.111 7.425-7.531 13.392-7.64 13.331z" fill="#E0E0E0"/><path d="M46.522 372.246c.211-.29.454-.556.723-.793l2.068-2.053c1.744-1.735 4.141-4.142 6.689-6.895a240.799 240.799 0 006.378-7.187l1.893-2.215c.216-.287.462-.549.735-.781a4.851 4.851 0 01-.6.89 74.299 74.299 0 01-1.785 2.309 129.764 129.764 0 01-6.292 7.291c-2.562 2.756-5 5.139-6.8 6.818-.9.837-1.645 1.505-2.17 1.952a4.915 4.915 0 01-.839.664zM22.243 365.357c.33.018.658.076.976.172l2.619.633c2.207.554 5.247 1.348 8.6 2.253 3.353.905 6.379 1.748 8.564 2.38l2.582.772c.322.077.635.192.93.342a4.21 4.21 0 01-.976-.173l-2.62-.633a520.657 520.657 0 01-8.6-2.253 516.645 516.645 0 01-8.562-2.38l-2.582-.771a4.224 4.224 0 01-.931-.342zM27.085 398.512c.422.038.84.116 1.248.233l3.359.8c2.832.694 6.737 1.682 11.042 2.8 4.305 1.118 8.2 2.156 11.01 2.929l3.324.937c.411.096.813.23 1.2.4a6.86 6.86 0 01-1.247-.233l-3.36-.8a845.32 845.32 0 01-11.043-2.8 849.572 849.572 0 01-11.009-2.928l-3.324-.937a6.936 6.936 0 01-1.2-.401zM57.58 406.209c.266-.368.564-.711.89-1.027l2.529-2.7c2.132-2.28 5.065-5.44 8.2-9.02a397.118 397.118 0 007.889-9.3l2.35-2.854a7.83 7.83 0 01.9-1.016 7.923 7.923 0 01-.765 1.124 115.21 115.21 0 01-2.24 2.946 211.976 211.976 0 01-7.8 9.4 220.147 220.147 0 01-8.312 8.943c-1.1 1.11-2 2-2.634 2.6-.31.33-.646.632-1.007.904z" fill="#E0E0E0"/><path d="M665 425.277c0 .144-147.757.26-329.982.26-182.289 0-330.014-.116-330.014-.26 0-.144 147.725-.261 330.014-.261 182.223 0 329.982.117 329.982.261zM482.218 158.334l12.622 9.6 5.373 2.4-5.373-8.091-10.221-7.185a2.035 2.035 0 00-2.812.464 2.034 2.034 0 00.411 2.812z" fill="#1C2E5C"/><path d="M532.17 180.875c-.57 0-17.794-6.793-18.174-7.743-.38-.95-.184-3.537-3.6-4.486-3.416-.949-6.951-2.152-6.951-2.152l-8.756-5.821s-2.446.8-.237 3.421a35.238 35.238 0 004.065 3.974c.8.7-.866 1.662-.866 1.662l-11.891-9.057a12.466 12.466 0 002.469 6.08l1.71 2.279a4.484 4.484 0 001.33 4.94c2.47 2.28 6.411 8.142 10.591 8.332 4.18.19 7.107.483 7.107.483l21.733 10.624 1.47-12.536z" fill="#FFBE9D"/><path d="M566.279 56.118c.807 4.605 7.364 6.558 7.924 11.2.24 1.99-.746 3.946-.716 5.95.041 2.7 1.869 5 2.777 7.536 1.871 5.23-.477 11.346-4.717 14.937-4.24 3.59-10 4.959-15.552 4.965M528.868 60.127c.527 2.459-.808 4.9-2.2 7-1.392 2.1-2.967 4.288-2.984 6.8-.03 4.456 4.807 7.922 4.522 12.37-.152 2.383-1.793 4.508-1.808 6.9-.015 2.31 1.505 4.36 3.248 5.876 1.743 1.516 3.45 1.024 5.038 2.7a18.897 18.897 0 006.482 4.334c5.156 1.964 10.385-2.629 12.6-3.63" fill="#1C2E5C"/><path d="M567.576 58.654c-.247-2.261-2.571-3.715-4.782-4.25-2.211-.535-4.586-.525-6.629-1.526-1.809-.885-3.162-2.47-4.76-3.7a14.002 14.002 0 00-19.785 2.762 13.998 13.998 0 00-2.669 6.825c-.363 3.32.711 7.037 3.535 8.82 3.277 2.07 7.553.919 11.208-.37 3.655-1.29 7.807-2.636 11.252-.86 2.078 1.07 3.463 3.087 4.9 4.933 1.437 1.846 3.171 3.692 5.464 4.143 2.293.451 5.086-1.26 4.852-3.586" fill="#1C2E5C"/><path d="M558.92 59.284l-20.7-2.341c-6.5.193-9.691 8.664-9.223 15.15.52 7.209 1.44 15.988 3.01 21.206 3.159 10.49 11.563 10.739 11.563 10.739 0-.027 1.838 13.081 2.583 18.247l22.648-2.761-5.986-56.873a3.805 3.805 0 00-3.895-3.367z" fill="#FFBE9D"/><path d="M531.692 79.645a1.389 1.389 0 001.514 1.207 1.324 1.324 0 001.249-1.432 1.39 1.39 0 00-1.513-1.208 1.336 1.336 0 00-.927.453 1.33 1.33 0 00-.323.98zM531.345 77.445c.2.156 1.132-.757 2.612-.954 1.476-.218 2.665.4 2.8.193.068-.091-.15-.391-.669-.671a3.807 3.807 0 00-2.273-.376 3.653 3.653 0 00-2.048.983c-.407.41-.517.756-.422.825zM546.106 77.575a1.387 1.387 0 001.514 1.208 1.323 1.323 0 001.187-.91c.055-.169.076-.347.062-.523a1.39 1.39 0 00-1.513-1.208 1.334 1.334 0 00-.927.453 1.315 1.315 0 00-.323.98zM545.927 75.746c.2.156 1.134-.757 2.613-.954 1.476-.218 2.665.4 2.8.193.068-.09-.148-.39-.669-.67a3.807 3.807 0 00-2.273-.377 3.654 3.654 0 00-2.048.982c-.406.411-.517.757-.423.826zM542.048 87.449a9.85 9.85 0 00-2.463-.108c-.383.013-.751-.014-.849-.263a1.94 1.94 0 01.1-1.154l.727-3.03c.995-4.306 1.661-7.828 1.487-7.866-.174-.038-1.122 3.42-2.117 7.729l-.678 3.039a2.213 2.213 0 00.006 1.51.948.948 0 00.7.468c.217.027.437.027.654 0a9.808 9.808 0 002.433-.325z" fill="#1C2E5C"/><path d="M543.4 105.1a27.531 27.531 0 0013.84-5.781c-.117.042-2.924 8-13.351 8.293l-.489-2.512z" fill="#EB996E"/><path d="M543.158 90.93a2.69 2.69 0 012.255-1.315 2.454 2.454 0 011.8.673 1.562 1.562 0 01.357 1.748 1.808 1.808 0 01-1.874.754 5.657 5.657 0 01-2.044-.872 1.636 1.636 0 01-.482-.38.502.502 0 01-.073-.551" fill="#1FBEC8"/><path d="M546.541 87.881c-.242.018-.027 1.625-1.247 2.952-1.22 1.327-2.954 1.382-2.936 1.608-.009.1.424.26 1.149.182a4.04 4.04 0 002.463-1.252c.621-.667.96-1.55.943-2.46-.03-.68-.263-1.055-.372-1.03zM544.91 73.245c.2.383 1.652-.01 3.416-.035 1.764-.062 3.233.256 3.415-.136.079-.187-.216-.532-.835-.845a5.939 5.939 0 00-5.2.13c-.606.34-.885.704-.796.886zM531.307 73.088c.306.3 1.278-.186 2.5-.37 1.217-.225 2.294-.081 2.486-.465.081-.185-.128-.5-.625-.756a3.662 3.662 0 00-4.018.673c-.384.405-.48.77-.343.918z" fill="#1C2E5C"/><path d="M568.242 95.577c-2.866 1-3.336-.463-5.821-2.206a9.773 9.773 0 01-4.09-7.758c-.03-2.678 1.02-5.553-.237-7.918-1.661-3.128-6.419-3.5-8.1-6.622-.976-1.812-.645-4.136-1.711-5.9-1-1.656-2.994-2.414-4.887-2.817-1.893-.403-3.889-.586-5.565-1.554-1.676-.968-2.928-3.058-2.179-4.843 8.138-.145 16.265.68 24.209 2.457 1.839.412 3.785.944 5.034 2.356 1.322 1.494 1.563 3.627 1.743 5.613l2.639 29.06M571.966 72.779a8.298 8.298 0 0110.98-8.215 8.3 8.3 0 014.195 3.215c1.908 2.822 1.9 6.577.934 9.843-1.148 3.88-4.073 7.686-8.1 8.058-3.792.349-7.283-2.542-8.868-6s-1.681-7.4-1.75-11.2" fill="#1C2E5C"/><path d="M576.092 87.17a1.92 1.92 0 00.475-.7c.33-.707.501-1.477.5-2.256 0-1.148-.191-2.288-.565-3.373-.392-1.232-1-2.494-1.5-3.855a10.062 10.062 0 01-.781-3.934c.054-1.223.476-2.315.593-3.291a4.124 4.124 0 00-.252-2.3c-.243-.5-.505-.691-.519-.673-.033.026.173.25.347.743.218.706.25 1.457.092 2.179a27.252 27.252 0 00-.7 3.32 10.05 10.05 0 00.773 4.124c.514 1.387 1.133 2.643 1.533 3.827.379 1.039.596 2.13.644 3.235a6.818 6.818 0 01-.64 2.954z" fill="#FDBC5A"/><path d="M574.47 74.277a5.265 5.265 0 001.866 1.382 9.493 9.493 0 0010.62-1.278 5.29 5.29 0 001.485-1.784c-.066-.053-.591.665-1.7 1.525a9.884 9.884 0 01-10.26 1.233c-1.281-.572-1.96-1.145-2.011-1.078zM575.234 75.883a4.92 4.92 0 001.14 1.558 11.84 11.84 0 008.412 3.6 4.973 4.973 0 001.914-.25 18.126 18.126 0 00-1.9-.086 13.466 13.466 0 01-8.188-3.5 18.316 18.316 0 00-1.378-1.322zM574.576 91.037c.007 0 .04-.047.1-.15.089-.151.168-.308.236-.47a5.773 5.773 0 00.448-1.971 6.658 6.658 0 00-.61-3.142 6.1 6.1 0 00-2.957-3.01c-1.4-.722-3.138-1.117-4.387-2.4a3.246 3.246 0 01-.929-2.437c.082-.986.266-1.961.548-2.91a8.075 8.075 0 00-1.025-6.38 7.09 7.09 0 00-2.549-2.4 8.561 8.561 0 00-3.475-.91c-1.2-.104-2.377-.1-3.5-.274a6.661 6.661 0 01-3.056-1.162 4.756 4.756 0 01-1.621-2.642 24.726 24.726 0 00-.935-3.047 10.848 10.848 0 00-3.593-4.671 8.561 8.561 0 00-4.866-1.631 6.826 6.826 0 00-4.057 1.2 6.607 6.607 0 00-2.11 2.4 5.598 5.598 0 00-.588 1.935 2.827 2.827 0 00-.009.7 6.887 6.887 0 01.76-2.552 6.521 6.521 0 016-3.356 8.252 8.252 0 014.641 1.614 10.503 10.503 0 013.419 4.52c.366.982.668 1.986.905 3.007a5.214 5.214 0 001.772 2.883 7.118 7.118 0 003.268 1.26c1.174.186 2.356.178 3.529.282a8.117 8.117 0 013.291.85 6.631 6.631 0 012.382 2.239 7.64 7.64 0 01.986 6.03 14.625 14.625 0 00-.54 3 3.649 3.649 0 001.064 2.716c1.382 1.377 3.169 1.74 4.521 2.427a5.851 5.851 0 012.867 2.823c.458.94.686 1.975.665 3.02a7.304 7.304 0 01-.595 2.609z" fill="#FDBC5A"/><path d="M569.727 61.209c.058-.165.08-.34.064-.513a2.346 2.346 0 00-.552-1.375 3.685 3.685 0 00-2-1.235 5.707 5.707 0 00-3.093.323c-1.095.368-2.2.978-3.438 1.4a4.796 4.796 0 01-3.961-.075 8.647 8.647 0 01-2.829-3.541 16.146 16.146 0 00-3.086-4.072A14.97 14.97 0 00542 48a8.578 8.578 0 00-4.268.7 6.722 6.722 0 00-2.856 2.46 4.996 4.996 0 00-.795 3 4.92 4.92 0 00.672 2.249c.248.432.58.81.976 1.113.13.114.279.204.44.267a5.233 5.233 0 01-1.255-1.471 4.875 4.875 0 01-.567-2.17c-.031-.998.253-1.982.812-2.811a6.423 6.423 0 012.738-2.283 8.234 8.234 0 014.069-.625 14.694 14.694 0 018.543 4.034 15.952 15.952 0 013.008 3.957c.8 1.4 1.6 2.9 3.02 3.695a4.11 4.11 0 002.226.5 7.307 7.307 0 002.077-.437c1.285-.458 2.366-1.081 3.423-1.457a5.5 5.5 0 012.921-.38 3.55 3.55 0 011.916 1.099c.324.35.533.791.6 1.264.04.325 0 .502.027.505z" fill="#FDBC5A"/><path d="M561.546 267.863c.489 1.483 15.092 65.462 15.092 65.462l44.446 53.58 15.64-13.186-33.3-50.229-6.362-63.415-35.516 7.788z" fill="#FFBE9D"/><path d="M636.724 373.719l.5.656L646.908 387l11.99 8.215-16.055 30.9-17.679.019s1.277-4.245 9.783-6.444l.558-16.962-15.27-16.76" fill="#1C2E5C"/><path opacity=".6" d="M658.9 395.218l-16.055 30.9-17.679.019 1.989-2.657 14.375-.805 14.819-29.207 2.551 1.75z" fill="#fff"/><path d="M635.054 411.924c.131.18 1.15-.4 2.518-.361 1.368 0 2.371.605 2.507.428.165-.134-.831-1.191-2.5-1.2-1.662-.036-2.687.995-2.525 1.133zM635.337 407.717c.177.124.963-.919 2.373-1.194 1.407-.29 2.536.368 2.651.185.06-.08-.144-.376-.641-.646a3.306 3.306 0 00-4.042.812c-.354.441-.428.792-.341.843zM635.218 402.313c.194.1.8-.924 2.027-1.35 1.227-.442 2.337-.026 2.426-.224.048-.088-.176-.334-.666-.517a3.062 3.062 0 00-3.594 1.27c-.266.45-.285.782-.193.821zM630.483 398.127c.211.073.707-.931 1.8-1.642 1.077-.742 2.2-.816 2.208-1.039.06-.2-1.31-.5-2.64.394s-1.58 2.26-1.368 2.287zM628.176 394.5c.089.058.672-.653 1.541-1.85l1.494-2.125c.341-.433.617-.914.819-1.427a1.42 1.42 0 00-.109-1.073 1.094 1.094 0 00-1.067-.557 3.276 3.276 0 00-1.65.857 5.904 5.904 0 00-2 3.777 3.276 3.276 0 00.4 2.411 19.83 19.83 0 01.14-2.324 6.072 6.072 0 01.977-2.235c.277-.389.603-.74.969-1.046.344-.32.763-.549 1.219-.665a.32.32 0 01.193.025.32.32 0 01.142.135.682.682 0 01.047.5 5.868 5.868 0 01-.682 1.23l-1.355 2.216a7.475 7.475 0 00-1.078 2.151zM627.543 395.027c.083-.006.016-.934-.943-2a4.424 4.424 0 00-2.463-1.349 4.424 4.424 0 00-2.777.408.811.811 0 00-.275.631.985.985 0 00.213.559c.181.217.395.405.635.556.394.275.812.514 1.25.713.735.337 1.52.556 2.325.647a3.577 3.577 0 002.185-.205c-.01-.124-.837-.063-2.095-.337a8.734 8.734 0 01-2.105-.75 8.227 8.227 0 01-1.116-.686 2.27 2.27 0 01-.458-.4c-.086-.155-.063-.11-.035-.157.156-.097.33-.162.512-.19a4.388 4.388 0 011.913-.011 4.321 4.321 0 011.908.965c.944.841 1.208 1.655 1.326 1.606z" fill="#1C2E5C"/><path opacity=".6" d="M644.795 394.69a2.101 2.101 0 004.16.41 2.102 2.102 0 00-3.545-1.895 2.1 2.1 0 00-.615 1.485z" fill="#fff"/><path d="M562.3 279.186l-34.8 55.623s-.377 13.71-4.085 21.868c-3.708 8.158-20.471 42.438-20.471 42.438l-15.2-6.927 18.769-67.927 26.546-68.437 29.241 23.362z" fill="#FFBE9D"/><path d="M506.792 393.483l-12.409 31.075-38.965-14.887c1.651-3.632 26.234-2.648 26.234-2.648l7.823-21.077 17.317 7.537z" fill="#1FBEC8"/><path opacity=".6" d="M492.78 409.191a1.699 1.699 0 01.4 2.234 1.641 1.641 0 01-2.213.422 1.798 1.798 0 01-.418-2.369 1.698 1.698 0 012.352-.183M494.383 424.558l1.1-3.2-37.771-13.08s-2.023.092-2.294 1.388l38.965 14.892z" fill="#fff"/><path d="M480.931 407.15c-.067.193.851.643 1.554 1.612.727.95.9 1.958 1.1 1.95.189.03.341-1.215-.53-2.373-.871-1.158-2.099-1.379-2.124-1.189zM475.149 406.968c-.114.168.586.806.924 1.857.37 1.041.2 1.973.393 2.037.167.1.725-.965.279-2.264-.446-1.299-1.523-1.809-1.596-1.63zM471.112 410.815c.157.107.786-.742.7-1.969-.086-1.227-.821-1.983-.962-1.855-.167.115.2.895.255 1.9.077 1.009-.175 1.833.007 1.924zM483.228 402.051c.013.2.987.275 2.034.759 1.058.463 1.756 1.143 1.918 1.018.163-.1-.385-1.111-1.627-1.664-1.242-.553-2.361-.298-2.325-.113zM484.325 397.113a3.901 3.901 0 001.955.736 9.387 9.387 0 002.282.153c.452-.024.903-.08 1.348-.166.265-.037.523-.116.764-.233a.887.887 0 00.474-.978 1.116 1.116 0 00-.667-.753 2.723 2.723 0 00-.77-.179 7.34 7.34 0 00-3.624.445c-1.224.491-1.8 1.083-1.753 1.145.062.1.729-.332 1.914-.671a8.31 8.31 0 012.115-.314c.419-.007.838.021 1.253.083.454.049.806.18.842.4.011.085.006.114-.127.2a2.113 2.113 0 01-.561.169c-.415.091-.834.158-1.256.2-.72.067-1.444.067-2.163 0a14.52 14.52 0 00-2.026-.237z" fill="#1C2E5C"/><path d="M484.468 397.48c.056.055.7-.482 1.236-1.686a6.76 6.76 0 00.506-3.61 1.727 1.727 0 00-.868-1.46.977.977 0 00-1.023.232 2.792 2.792 0 00-.474.638c-.232.41-.401.853-.5 1.313a4.782 4.782 0 00.063 2.332c.375 1.3 1.082 1.831 1.123 1.773a16.877 16.877 0 01-.634-1.884 4.766 4.766 0 01.084-2.068c.102-.391.259-.766.467-1.113.219-.39.5-.665.641-.563.2.07.4.508.438.9.063.411.089.826.079 1.242a7.502 7.502 0 01-.367 2.09c-.388 1.162-.863 1.796-.771 1.864z" fill="#1C2E5C"/><path d="M568.892 107.851s9.083 6.315 13.219 13.156c4.136 6.841 4.859 17.15 5.244 23.575.587 9.817-1.46 27.858.8 37.434 2.26 9.576 12.784 28.729 15.793 50.275 3.009 21.546 1.105 62.793 1.105 62.793s-33.374 13.156-48.481-1.544c-17.738-17.258-37.6-11.582-37.6-11.582s17.672-46.931 21.432-57.191c3.76-10.26 2.845-45.978 2.845-45.978s-13.478-17.857-9.516-28.071c4.071-10.495 12.495-32.408 12.495-32.408l22.664-10.459z" fill="#FDBC5A"/><path d="M639.172 206.538l-32.12-52.338s-15.012 2.873-21.71 8.082c-6.698 5.209-20.093 17.118-20.093 17.118l21.582 57.3s1.275.241 7.938-1.24c6.663-1.481 44.403-28.922 44.403-28.922z" fill="#1C2E5C"/><path d="M568.238 107.851l-1.3-5.979s-24.459 9.747-23.9 11.105c.559 1.358 2.083 6.476 2.083 6.476l23.117-11.602z" fill="#FDBC5A"/><path d="M600.551 155.4a140.184 140.184 0 00-14.924-27.693c-6.544-9.014-14.985-15.89-20.378-14.005 0 0 4.8.806 10.172 7.844 6.841 8.97 16.428 37.152 16.428 37.152l8.702-3.298z" fill="#1C2E5C"/><path d="M557.7 119.055l-7.817 56.453-33.408-3.854-3.17 14.341s49.657 29.071 58.07 5.218c8.78-24.9 7.154-55.577 7.154-55.577s-4.029-23.53-20.829-16.581z" fill="#FDBC5A"/><path d="M535.412 196.483a.863.863 0 01.239.059l.682.222 2.616.875a70.373 70.373 0 009.78 2.576c2.284.418 4.607.592 6.929.519a22.35 22.35 0 007.723-1.734 15.984 15.984 0 006.775-5.364 23.921 23.921 0 003.523-8.688 297.686 297.686 0 004.4-33.133c.339-4.268.527-7.728.651-10.12l.146-2.754.048-.716c0-.083.011-.165.034-.244.018.08.024.163.019.245v.718c-.005.631-.01 1.562-.047 2.759-.062 2.4-.2 5.862-.487 10.139a272.98 272.98 0 01-4.264 33.222 24.295 24.295 0 01-3.616 8.869 16.425 16.425 0 01-7 5.508 22.619 22.619 0 01-7.895 1.723 32.532 32.532 0 01-7.012-.588 64.518 64.518 0 01-9.781-2.746c-1.128-.406-2-.737-2.585-.968l-.666-.271a.92.92 0 01-.212-.108zM555.081 137.982c.007.243-.009.487-.047.727l-.238 2.071-.969 7.6-3.392 25.053-.292 2.108-.035.253-.248-.03-23.7-2.814-7.1-.9-1.92-.269a3.317 3.317 0 01-.664-.128c.225-.013.452-.004.676.028l1.932.175 7.119.739 23.706 2.653-.282.223.291-2.108 3.543-25.033 1.134-7.579.334-2.057c.028-.242.079-.48.152-.712z" fill="#1C2E5C"/><path d="M549.485 175.12c.019-.058.49.023 1.168.378a6.612 6.612 0 013.34 4.723c.109.757.028 1.228-.033 1.227a8.956 8.956 0 00-4.475-6.328z" fill="#FDBC5A"/><path d="M554.076 129.239a2.99 2.99 0 01.053-.9c.069-.573.187-1.4.376-2.419a20.395 20.395 0 012.807-7.594 10.404 10.404 0 016.645-4.507 6.625 6.625 0 012.479.033c.301.042.593.141.858.291a9.3 9.3 0 00-9.55 4.473 22.407 22.407 0 00-2.879 7.38 27.56 27.56 0 01-.789 3.243z" fill="#1C2E5C"/><path d="M557.841 117.62c-1.677 1.453-5.352 8.734-6.183 16.385-.643 5.916.619 11.871 1.595 17.742.143-2.893 1.447-11.014 1.447-11.014s-.336-3.973-.273-7.708a27.822 27.822 0 011.067-7.14l2.347-8.265zM578.764 143.484a23.251 23.251 0 012.216-4.378 4.693 4.693 0 01-.759 2.366c-.613 1.228-1.337 2.101-1.457 2.012zM545.131 118.614a8.3 8.3 0 003.649-.478c2.188-.742 4.582-2.974 7.571-4.926a67.349 67.349 0 017.916-4.549 46.336 46.336 0 012.521-1.138 3.82 3.82 0 01.963-.329c.032.071-1.266.7-3.317 1.795a92.87 92.87 0 00-7.794 4.655c-1.48.978-2.832 1.978-4.1 2.877a14.081 14.081 0 01-3.643 1.963c-.89.31-1.834.434-2.774.365a2.292 2.292 0 01-.992-.235zM558.171 289.2a31.074 31.074 0 003.693-5.816 11.69 11.69 0 00.66-1.535l.648-1.693c.336-1.208.794-2.47 1.062-3.858a55.409 55.409 0 001.3-9.081 94.87 94.87 0 00-.44-16.69c-.239-2.128-.464-3.848-.652-5.031l-.191-1.368a1.674 1.674 0 01-.032-.484c.067.148.113.304.135.465l.288 1.353c.25 1.175.531 2.891.817 5.021.75 5.557.949 11.174.594 16.77a52.896 52.896 0 01-1.353 9.147c-.284 1.4-.763 2.674-1.121 3.889a518.73 518.73 0 01-.685 1.7 11.74 11.74 0 01-.7 1.541 19.014 19.014 0 01-1.444 2.527 13.34 13.34 0 01-1.3 1.771l-.933 1.027c-.217.239-.333.354-.346.345zM388.421 425.505l-144.25-.667a31.421 31.421 0 01-31.277-31.555l1.528-361.64a31.433 31.433 0 019.302-22.183A31.434 31.434 0 01245.99.354l144.251.667a31.422 31.422 0 0131.276 31.555l-1.529 361.64a31.43 31.43 0 01-9.302 22.184 31.4 31.4 0 01-10.227 6.767 31.407 31.407 0 01-12.038 2.338z" fill="#1C2E5C"/><path d="M389.925 13.327l-27.967-.127a6.946 6.946 0 00-6.821 7.068l-.023 5.073a6.949 6.949 0 01-4.172 6.492 6.945 6.945 0 01-2.648.576l-54.515-.252a6.952 6.952 0 01-6.762-7.131l.022-5.073a6.955 6.955 0 00-6.762-7.13l-9.836-.046-24.478-.113a22.004 22.004 0 00-20.397 13.497 22.017 22.017 0 00-1.711 8.417l-1.492 352.985a22.008 22.008 0 0021.9 22.1l143.962.664a22.006 22.006 0 0022.108-21.913l1.497-352.988a22.008 22.008 0 00-21.905-22.1z" fill="#fff"/><path d="M396.465 52.193a1.037 1.037 0 01-.641.952 1.032 1.032 0 11.641-.952zM396.451 55.907a1.037 1.037 0 01-.641.952 1.032 1.032 0 11.641-.952zM396.438 59.621a1.037 1.037 0 01-.641.953 1.032 1.032 0 11.641-.953z" fill="#1C2E5C"/><path d="M389.073 175.035v3.909h-.4v-3.552h-.921v-.357h1.321zM391.087 175.035v3.909h-.4v-3.552h-.922v-.357h1.322zM392.024 176.285a.299.299 0 01.512-.212.3.3 0 01.088.212.308.308 0 01-.3.308.292.292 0 01-.117-.024.314.314 0 01-.163-.167.275.275 0 01-.02-.117zm0 2.379a.299.299 0 01.512-.212.3.3 0 01.088.212.308.308 0 01-.3.308.292.292 0 01-.117-.024.314.314 0 01-.163-.167.275.275 0 01-.02-.117zM395.872 178.586v.358h-2.743v-.285l1.625-1.592c.442-.435.526-.7.526-.966 0-.452-.318-.731-.916-.731a1.32 1.32 0 00-1.067.435l-.285-.246A1.756 1.756 0 01394.4 175c.793 0 1.3.4 1.3 1.056a1.605 1.605 0 01-.643 1.223l-1.329 1.306 2.144.001zM399.025 177.793c0 .665-.464 1.184-1.419 1.184a2.012 2.012 0 01-1.4-.5l.2-.318c.325.302.756.465 1.2.453.664 0 1.016-.324 1.016-.8 0-.5-.313-.815-1.307-.815h-.832l.2-1.96h2.139v.357h-1.787l-.134 1.245h.5c1.177-.002 1.624.461 1.624 1.154zM384.124 330.087V334h-.4v-3.551h-.924v-.358l1.324-.004zM386.138 330.087V334h-.4v-3.551h-.922v-.358l1.322-.004zM387.075 331.338a.3.3 0 11.6 0 .292.292 0 01-.086.217.305.305 0 01-.214.09.313.313 0 01-.117-.023.295.295 0 01-.162-.167.292.292 0 01-.021-.117zm0 2.379a.3.3 0 11.6 0 .301.301 0 01-.087.216.302.302 0 01-.33.069.303.303 0 01-.183-.285zM391.576 332.969h-.782V334h-.4v-1.027h-2.206v-.291l2.071-2.591h.448l-2 2.525h1.7v-.906h.391v.906h.782l-.004.353zM394.572 332.846c0 .664-.464 1.184-1.419 1.184a2.025 2.025 0 01-1.4-.5l.195-.319c.326.301.756.464 1.2.452.664 0 1.016-.324 1.016-.8 0-.5-.313-.816-1.307-.816h-.832l.2-1.96h2.139v.358h-1.787l-.134 1.245h.5c1.182 0 1.629.464 1.629 1.156z" fill="#E0E0E0"/><path d="M301.498 110.475h58.254a17.284 17.284 0 0117.289 17.288v33.892a17.288 17.288 0 01-17.289 17.289H284.21v-51.181a17.29 17.29 0 0117.288-17.288zM295.266 303.71h60.089a11.66 11.66 0 0111.66 11.66v13.862c0 3.092-1.229 6.058-3.415 8.245a11.664 11.664 0 01-8.245 3.415h-71.749V315.37a11.66 11.66 0 0111.66-11.66z" fill="#EBEBEB"/><path d="M383.355 394.6H252.692a15.999 15.999 0 01-15.982-15.983v-.7a16.002 16.002 0 0115.982-15.982h130.663a16.002 16.002 0 0115.982 15.982v.7a16.002 16.002 0 01-15.982 15.983zm-130.663-31.671a15.005 15.005 0 00-10.589 4.393 15.005 15.005 0 00-4.393 10.589v.7a15 15 0 0014.982 14.989h130.663a15.002 15.002 0 0014.982-14.983v-.7a15.005 15.005 0 00-4.393-10.589 15.005 15.005 0 00-10.589-4.393l-130.663-.006z" fill="#1FBEC8"/><path d="M384.142 385.892a8.122 8.122 0 100-16.244 8.122 8.122 0 000 16.244z" fill="#1FBEC8"/><path d="M383.932 382.784h-.018a.25.25 0 01-.223-.183l-1.039-3.843-3.606-1.276a.25.25 0 01-.12-.38.242.242 0 01.12-.091l8.483-3.029a.24.24 0 01.143-.007.248.248 0 01.169.344l-3.679 8.318a.249.249 0 01-.23.147zm-4.056-5.539l3.066 1.084a.244.244 0 01.158.17l.889 3.288 3.159-7.139-7.272 2.597z" fill="#fff"/><path d="M382.859 378.815a.268.268 0 01-.101-.021.25.25 0 01-.068-.414l4.753-4.348a.25.25 0 01.353.015.25.25 0 01-.015.354l-4.753 4.348a.253.253 0 01-.169.066z" fill="#fff"/><path d="M274.174 375.563h-1.569v-.408h3.61v.408h-1.569v4.057h-.472v-4.057zM279.475 376.265l-1.678 3.756c-.28.657-.637.868-1.116.868a1.155 1.155 0 01-.816-.307l.211-.337a.842.842 0 00.612.254c.3 0 .5-.139.7-.56l.147-.326-1.5-3.348h.472l1.263 2.85 1.262-2.85h.443zM283.514 377.942a1.63 1.63 0 01-1.015 1.592 1.637 1.637 0 01-.656.118 1.471 1.471 0 01-1.276-.664v1.869h-.453v-4.592h.434v.663a1.457 1.457 0 011.295-.689 1.614 1.614 0 011.208.485 1.628 1.628 0 01.463 1.218zm-.453 0a1.25 1.25 0 00-1.528-1.164 1.254 1.254 0 00-.953.996c-.044.241-.016.49.081.715a1.243 1.243 0 001.15.76 1.23 1.23 0 001.176-.809c.059-.159.084-.329.074-.498zM287.362 378.082h-2.807a1.232 1.232 0 00.418.858 1.225 1.225 0 00.903.309 1.32 1.32 0 001.026-.439l.256.293a1.777 1.777 0 01-2.725-.191 1.772 1.772 0 01-.33-.97 1.627 1.627 0 01.45-1.206 1.628 1.628 0 011.189-.494 1.598 1.598 0 011.626 1.7c0 .038-.006.09-.006.14zm-2.807-.337h2.38a1.195 1.195 0 00-1.19-1.123 1.19 1.19 0 00-1.19 1.123zM292.5 377.54v2.08h-.433v-.52a1.26 1.26 0 01-1.155.556c-.759 0-1.225-.4-1.225-.977 0-.517.332-.95 1.3-.95h1.065v-.2c0-.574-.325-.887-.95-.887a1.7 1.7 0 00-1.116.4l-.2-.338a2.127 2.127 0 011.365-.453 1.184 1.184 0 01.986.319 1.197 1.197 0 01.363.97zm-.453 1.072v-.549h-1.052c-.651 0-.861.256-.861.6 0 .39.312.632.848.632a1.072 1.072 0 001.063-.683h.002zM300.938 377.674v1.946h-.453v-1.9c0-.708-.356-1.072-.962-1.072a1.081 1.081 0 00-1.08.747c-.048.15-.063.309-.043.465v1.761h-.453v-1.9c0-.708-.357-1.072-.969-1.072a1.083 1.083 0 00-1.123 1.212v1.761h-.455v-3.355h.434v.612c.129-.208.311-.376.528-.488a1.34 1.34 0 01.703-.15 1.195 1.195 0 011.192.708 1.468 1.468 0 011.327-.708 1.261 1.261 0 011.305.875c.058.18.074.37.049.558zM305.106 378.082H302.3a1.25 1.25 0 00.418.858 1.238 1.238 0 00.903.309 1.32 1.32 0 001.027-.439l.255.293a1.777 1.777 0 01-2.725-.191 1.772 1.772 0 01-.33-.97 1.627 1.627 0 01.45-1.206 1.628 1.628 0 011.189-.494 1.598 1.598 0 011.626 1.7c-.001.038-.007.09-.007.14zm-2.807-.337h2.38a1.195 1.195 0 00-1.19-1.123 1.19 1.19 0 00-1.19 1.123zM305.573 379.237l.2-.358c.348.249.765.38 1.193.377.638 0 .9-.217.9-.549 0-.874-2.175-.184-2.175-1.511 0-.549.472-.957 1.327-.957.416-.006.826.102 1.186.312l-.2.364a1.718 1.718 0 00-.988-.287c-.606 0-.874.237-.874.555 0 .906 2.175.224 2.175 1.512 0 .58-.51.957-1.384.957a2.24 2.24 0 01-1.36-.415zM308.693 379.237l.205-.358c.347.249.765.381 1.192.377.638 0 .9-.217.9-.549 0-.874-2.174-.184-2.174-1.511 0-.549.471-.957 1.326-.957.416-.006.826.102 1.186.312l-.2.364a1.716 1.716 0 00-.988-.287c-.606 0-.874.237-.874.555 0 .906 2.175.224 2.175 1.512 0 .58-.51.957-1.384.957a2.24 2.24 0 01-1.364-.415zM314.811 377.54v2.08h-.433v-.52a1.269 1.269 0 01-1.155.556c-.759 0-1.225-.4-1.225-.977 0-.517.332-.95 1.3-.95h1.065v-.2c0-.574-.325-.887-.95-.887a1.7 1.7 0 00-1.116.4l-.2-.338a2.13 2.13 0 011.366-.453 1.193 1.193 0 011.348 1.289zm-.453 1.072v-.549h-1.052c-.651 0-.861.256-.861.6 0 .39.312.632.848.632a1.076 1.076 0 001.065-.683zM319.163 376.265v2.946a1.484 1.484 0 01-.415 1.263 1.465 1.465 0 01-1.263.415 2.347 2.347 0 01-1.563-.517l.23-.344c.37.307.839.47 1.32.459.848 0 1.238-.389 1.238-1.218v-.428a1.51 1.51 0 01-1.308.651 1.64 1.64 0 01-1.177-.462 1.634 1.634 0 01-.363-1.797 1.619 1.619 0 01.905-.882c.202-.079.418-.118.635-.112a1.517 1.517 0 011.327.669v-.643h.434zm-.441 1.594a1.272 1.272 0 00-1.494-1.296 1.275 1.275 0 00-.959 1.729 1.268 1.268 0 001.178.798 1.198 1.198 0 00.909-.335 1.19 1.19 0 00.366-.896zM323.355 378.082h-2.807a1.25 1.25 0 00.417.858 1.238 1.238 0 00.903.309 1.32 1.32 0 001.027-.439l.255.293a1.777 1.777 0 01-2.725-.191 1.772 1.772 0 01-.33-.97 1.627 1.627 0 01.45-1.206 1.628 1.628 0 011.189-.494 1.62 1.62 0 01.645.122 1.613 1.613 0 01.888.928c.076.208.108.429.094.65 0 .038-.006.09-.006.14zm-2.807-.337h2.379a1.194 1.194 0 00-1.19-1.115 1.193 1.193 0 00-1.189 1.115zM323.994 379.3a.327.327 0 01.024-.131.347.347 0 01.183-.187.344.344 0 01.475.318.347.347 0 01-.1.247.346.346 0 01-.244.105.334.334 0 01-.242-.106.323.323 0 01-.073-.113.358.358 0 01-.023-.133zM325.346 379.3a.334.334 0 01.208-.318.344.344 0 01.475.318.35.35 0 01-.344.352.34.34 0 01-.339-.352zM326.7 379.3a.327.327 0 01.024-.131.347.347 0 01.183-.187.344.344 0 01.475.318.347.347 0 01-.1.247.346.346 0 01-.244.105.334.334 0 01-.242-.106.338.338 0 01-.096-.246z" fill="#1C2E5C"/><path d="M252.606 381.051a1.78 1.78 0 01-1.199.631 1.768 1.768 0 01-1.518-2.894l3.656-4.39a1.143 1.143 0 012.019.627 1.15 1.15 0 01-.26.837l-3.1 3.723a.652.652 0 01-.817-.017.652.652 0 01-.153-.802l2.388-2.867-.329-.273-2.281 2.739-.11.133.013.011a1.052 1.052 0 00.22 1.371 1.055 1.055 0 001.388-.032l.008.006.061-.073c.018-.02.039-.036.057-.057l-.006-.005 3.022-3.628a1.573 1.573 0 00-.226-2.182 1.573 1.573 0 00-2.186.173l-3.818 4.584.008.007a2.192 2.192 0 001.903 3.448 2.193 2.193 0 001.455-.648l.008.007 3.077-3.7-.328-.274-2.952 3.545zM275.502 141.846H238.88v36.622h36.622v-36.622z" fill="#1FBEC8"/><path opacity=".7" d="M275.502 141.846H238.88v36.622h36.622v-36.622z" fill="#fff"/><path d="M265.113 154.565a16.29 16.29 0 00-16.373-2.058s-.813 10.766-.755 15.454c.058 4.688 4.747 5.418 4.747 5.418l-.019 5.076 11.424.01 1.671-23.365-.695-.535z" fill="#B78876"/><path d="M252.724 173.311a10.9 10.9 0 006.112-1.737s-1.444 3.375-6.123 2.952l.011-1.215z" fill="#AA6550"/><path d="M265.23 159.956c.08-.034 3.221-.952 3.119 2.253-.102 3.205-3.3 2.441-3.3 2.349 0-.092.181-4.602.181-4.602z" fill="#B78876"/><path d="M266.065 163.375c.014-.01.054.041.147.087a.565.565 0 00.418.022 1.384 1.384 0 00.678-1.219 1.852 1.852 0 00-.13-.8.643.643 0 00-.407-.442.279.279 0 00-.334.142c-.046.088-.028.153-.045.158-.017.005-.067-.056-.037-.188a.357.357 0 01.133-.2.405.405 0 01.311-.072.786.786 0 01.568.515c.127.282.183.591.165.9a1.452 1.452 0 01-.859 1.358.597.597 0 01-.508-.1c-.097-.083-.111-.155-.1-.161z" fill="#AA6550"/><path d="M250.277 159.721a.666.666 0 00.645.675.647.647 0 00.471-.155.634.634 0 00.22-.445.67.67 0 00-.645-.676.634.634 0 00-.472.155.634.634 0 00-.219.446z" fill="#1C2E5C"/><path d="M249.627 159.1c.083.088.59-.288 1.311-.286.721.002 1.248.363 1.326.274.039-.039-.046-.2-.276-.364a1.84 1.84 0 00-1.062-.327 1.753 1.753 0 00-1.043.337c-.222.166-.297.329-.256.366zM257.359 160.025a.67.67 0 00.646.675.647.647 0 00.471-.155.646.646 0 00.219-.445.67.67 0 00-.645-.676.652.652 0 00-.472.155.658.658 0 00-.219.446zM256.709 159.237c.083.087.591-.288 1.311-.286.72.002 1.248.362 1.327.274.038-.039-.046-.2-.277-.364a1.834 1.834 0 00-1.062-.328 1.767 1.767 0 00-1.043.337c-.221.17-.297.33-.256.367zM254.094 164.58a4.756 4.756 0 00-1.17-.211c-.184-.019-.358-.055-.389-.181a.92.92 0 01.123-.545l.544-1.4a24.28 24.28 0 001.222-3.665 23.91 23.91 0 00-1.514 3.558l-.522 1.409a1.064 1.064 0 00-.1.722.47.47 0 00.3.269c.102.027.206.042.312.044.396.051.797.051 1.194 0zM256.523 156.413c.071.2.79.1 1.636.205.847.085 1.529.333 1.641.157.05-.084-.069-.268-.345-.458a2.869 2.869 0 00-2.5-.276c-.306.125-.463.279-.432.372zM249.892 157.017c.126.164.623-.006 1.22-.014.6-.029 1.1.11 1.218-.061.051-.083-.028-.247-.249-.4a1.764 1.764 0 00-1.965.061c-.216.166-.28.334-.224.414z" fill="#1C2E5C"/><path d="M246.455 149.547a1.729 1.729 0 01.639-1.546 1.227 1.227 0 011.591.119 1.425 1.425 0 01.229-1.144 1.433 1.433 0 011.003-.594c.764-.048 1.416.529 2.155.732a3.481 3.481 0 002.189-.253c.694-.279 1.343-.665 2.045-.921a5.998 5.998 0 017.668 3.52 2.66 2.66 0 012.823 1.069c.598.906.836 2.003.669 3.076a9.826 9.826 0 01-.536 2.1c0 .06.006.119.005.18-.049 2.578-.34 5.606-1.44 5.622-1.917.03-1.46-3.582-1.46-3.582-2.353-.909-1.477-4.434-2.065-4.969-.588-.535-1.819-1.777-6.745.74a9.541 9.541 0 01-5.844.632c-.041-.008-.082-.015-.122-.025l-.029-.005c-.015 0-.026-.012-.041-.017a4.42 4.42 0 01-1.263-.536 2.488 2.488 0 01-1.041-1.157 1.369 1.369 0 01.269-1.468 3.012 3.012 0 01-.699-1.573z" fill="#1C2E5C"/><path d="M253.483 166.8c.099.291.24.567.418.818a1.083 1.083 0 00.773.449.972.972 0 00.826-.45c.173-.281.254-.61.23-.939-.014-.3-.149-.649-.443-.684a.753.753 0 00-.358.079l-1.546.628" fill="#AA6550"/><path d="M254.1 168.069a2.26 2.26 0 00.825-.1c.27-.106.492-.307.624-.566a1.25 1.25 0 00.02-1.012 1.135 1.135 0 00-.135-.231c-.061-.065-.05-.062-.117-.052-.067.01-.164.065-.247.1l-.254.1a33.55 33.55 0 01-.884.345c-.266.128-.55.214-.842.254.23-.184.489-.33.765-.433.243-.118.535-.253.861-.4l.25-.112c.092-.044.186-.083.283-.116a.36.36 0 01.229.006.426.426 0 01.171.135c.07.09.128.188.173.293a1.452 1.452 0 01-.047 1.238 1.32 1.32 0 01-.785.634 1.24 1.24 0 01-.67.026c-.154-.041-.226-.094-.22-.109z" fill="#1C2E5C"/><path d="M262.125 152.523a2.827 2.827 0 000-.567 2.216 2.216 0 00-.733-1.317 2.98 2.98 0 00-2.111-.7 9.191 9.191 0 00-2.743.613c-.479.158-.951.308-1.419.412a7.425 7.425 0 01-3.681-.134 7.162 7.162 0 01-1.446-.613 4.647 4.647 0 01-.363-.224.653.653 0 01-.119-.09c.008-.012.179.1.508.266a7.588 7.588 0 003.726.837 7.433 7.433 0 001.345-.171c.461-.1.928-.254 1.406-.411a9.078 9.078 0 012.784-.61 3.057 3.057 0 012.179.753c.399.358.655.849.72 1.382.026.193.008.389-.053.574zM265.771 160.446s-.025-.031-.062-.1a4.95 4.95 0 01-.146-.3 5.967 5.967 0 01-.373-1.165 6.418 6.418 0 01-.121-1.813c.089-.735.229-1.463.419-2.178a4.298 4.298 0 000-2.155 2.2 2.2 0 00-.449-.816 1.651 1.651 0 00-.674-.442 1.54 1.54 0 00-1.157.029 2.1 2.1 0 00-.36.253.888.888 0 01.335-.3 1.539 1.539 0 011.213-.075c.277.089.527.246.727.458.223.246.388.538.486.855.197.727.2 1.492.01 2.221-.189.71-.331 1.432-.427 2.161a6.573 6.573 0 00.09 1.782c.075.397.184.787.327 1.165.061.137.115.277.162.42z" fill="#FDBC5A"/><path d="M262.576 152.144a.984.984 0 010-.188l.021-.538a6.273 6.273 0 00-.217-1.947 3.482 3.482 0 00-.626-1.183 2.435 2.435 0 00-1.257-.83 3.187 3.187 0 00-1.678.068 7.81 7.81 0 00-1.678.761c-.535.323-1.091.609-1.664.856a5.086 5.086 0 01-1.714.344 5.407 5.407 0 01-1.571-.193 5.975 5.975 0 01-1.274-.524 5.198 5.198 0 01-1.508-1.288 3.146 3.146 0 01-.306-.446.843.843 0 01-.09-.164.927.927 0 01.114.15 5.363 5.363 0 001.838 1.662c.398.213.82.381 1.256.5a5.348 5.348 0 001.537.176 5 5 0 001.668-.343 14.227 14.227 0 001.646-.85 7.846 7.846 0 011.709-.771 3.304 3.304 0 011.748-.061c.52.146.98.455 1.312.881.289.363.504.78.632 1.227.168.645.228 1.313.176 1.977a9.85 9.85 0 01-.046.538 1.057 1.057 0 01-.028.186z" fill="#FDBC5A"/><path d="M275.502 305.277H238.88v36.622h36.622v-36.622z" fill="#1FBEC8"/><path opacity=".4" d="M275.502 305.277H238.88v36.622h36.622v-36.622z" fill="#fff"/><path d="M250.052 327.309c-1.406-2.894-1.78-8.054-.066-10.881s5.12-4.831 8.3-5.718a2.746 2.746 0 011.629-.077 1.092 1.092 0 01.75 1.288 6.922 6.922 0 012-1.111 2.344 2.344 0 012.175.344 1.434 1.434 0 01.448 1.541c-.057.18-.15.348-.272.493a2.48 2.48 0 013.32 3.108 7.889 7.889 0 01-1.659 2.514 2.217 2.217 0 00-.546 2.215" fill="#1C2E5C"/><path d="M266.364 321.168a8.583 8.583 0 00-8.169-8.281l-.444-.021c-4.8.052-7.436 4.156-7.252 8.952l.236 20.081h10.846s-.033-4.517-.026-4.659c0 0 4.635-.5 4.911-5.093.134-2.222.034-6.82-.102-10.979z" fill="#FFBE9D"/><path d="M261.566 337.175a10.709 10.709 0 01-5.916-1.99s1.26 3.378 5.87 3.182l.046-1.192z" fill="#EB996E"/><path d="M264.877 324.185a.654.654 0 01-.665.633.628.628 0 01-.649-.625.656.656 0 01.664-.633.63.63 0 01.65.625zM265.268 323.379c-.086.081-.566-.311-1.273-.342-.707-.031-1.242.3-1.314.207-.036-.041.054-.191.288-.345a1.798 1.798 0 011.057-.271c.368.016.721.149 1.008.379.21.177.276.335.234.372zM257.933 324.1a.657.657 0 01-.665.632.624.624 0 01-.649-.624.659.659 0 01.664-.633.627.627 0 01.65.625zM258.313 323.18c-.085.082-.566-.31-1.273-.342-.707-.032-1.241.3-1.314.207-.036-.04.054-.191.288-.344a1.799 1.799 0 011.057-.272c.368.015.721.148 1.008.379.209.177.276.336.234.372zM260.629 328.544c.378-.099.767-.15 1.158-.152.182-.01.354-.038.39-.16a.911.911 0 00-.1-.54l-.468-1.4a23.65 23.65 0 01-1.028-3.653c.534 1.149.975 2.34 1.319 3.561l.446 1.407c.103.223.124.475.06.713a.457.457 0 01-.309.25 1.24 1.24 0 01-.309.028 4.591 4.591 0 01-1.159-.054zM258.526 328.934c.115 0 .08.767.711 1.342.631.575 1.451.531 1.452.638.009.049-.189.141-.535.134a1.914 1.914 0 01-1.214-.49 1.663 1.663 0 01-.547-1.123c-.014-.322.08-.508.133-.501zM258.628 320.418c-.079.189-.781.065-1.615.125-.835.044-1.516.255-1.617.077-.045-.085.08-.26.359-.433a2.81 2.81 0 012.462-.154c.299.137.445.296.411.385zM265.105 321.32c-.132.155-.611-.035-1.2-.071-.584-.056-1.086.057-1.193-.116-.046-.084.04-.241.264-.383a1.737 1.737 0 011.925.151c.199.175.263.344.204.419z" fill="#1C2E5C"/><path d="M250.713 325.242c-.077-.038-3.116-1.085-3.165 2.065-.049 3.15 3.123 2.549 3.13 2.459.007-.09.035-4.524.035-4.524z" fill="#FFBE9D"/><path d="M249.734 328.557c-.013-.01-.055.038-.149.079a.548.548 0 01-.41 0 1.355 1.355 0 01-.609-1.228c-.004-.27.052-.538.166-.783a.63.63 0 01.419-.415.283.283 0 01.322.156c.04.088.019.151.036.157.017.006.068-.052.045-.182a.357.357 0 00-.121-.2.421.421 0 00-.3-.085.77.77 0 00-.581.48 1.857 1.857 0 00-.2.875 1.42 1.42 0 00.78 1.372.592.592 0 00.5-.075c.095-.075.113-.145.102-.151z" fill="#EB996E"/><path d="M268.47 315.257c.3 4.09-4.756 5.711-6.926 3.392-1-1.073-1.872-2.407-3.254-2.9a3.743 3.743 0 00-2.876.255l-.026.013a4.799 4.799 0 00-2.324 3.588c-.314 2.014-.02 3.8-.575 5.645a1.25 1.25 0 01-.4.708 1 1 0 01-1.24-.336 3.87 3.87 0 01-.756-2.091 12.952 12.952 0 01.273-5.1A8.82 8.82 0 01253 314.1a8.35 8.35 0 015.958-1.933 10.25 10.25 0 015.841 2.407 6.015 6.015 0 011.826 2.317" fill="#1C2E5C"/><path d="M265.172 312.956a.929.929 0 01.435.026c.393.099.751.307 1.032.6.426.432.692.997.755 1.6a3.019 3.019 0 01-.636 2.066 3.96 3.96 0 01-1.726 1.3 5.364 5.364 0 01-1.725.353 6.626 6.626 0 01-1.178-.056 1.275 1.275 0 01-.422-.094c0-.044.614.055 1.589-.021a5.6 5.6 0 001.652-.389 3.861 3.861 0 001.616-1.239 2.86 2.86 0 00.608-1.9 2.578 2.578 0 00-.657-1.5 2.275 2.275 0 00-.933-.624 3.863 3.863 0 01-.41-.122zM263.088 311.479c0-.012.116-.033.3.058a.994.994 0 01.48.681c.054.418-.038.842-.26 1.2a5.27 5.27 0 01-.882 1.191A5.474 5.474 0 01260.45 316c-.348.133-.72.19-1.092.167-.007-.043.413-.09 1.037-.329a5.995 5.995 0 002.158-1.4c.333-.339.622-.718.859-1.129.209-.315.309-.689.287-1.065a.95.95 0 00-.361-.629c-.146-.101-.253-.115-.25-.136z" fill="#FDBC5A"/><path d="M279.973 64.29h-9.452a2.785 2.785 0 00-2.785 2.784v9.452a2.785 2.785 0 002.785 2.785h9.452a2.785 2.785 0 002.785-2.785v-9.452a2.785 2.785 0 00-2.785-2.785z" fill="#1FBEC8"/><path opacity=".4" d="M279.973 64.29h-9.452a2.785 2.785 0 00-2.785 2.784v9.452a2.785 2.785 0 002.785 2.785h9.452a2.785 2.785 0 002.785-2.785v-9.452a2.785 2.785 0 00-2.785-2.785z" fill="#000"/><path d="M277.9 72.955a1.997 1.997 0 01-.671 1.46 2.007 2.007 0 01-1.529.496c-1.664 0-2.6-1.115-2.6-3.088 0-2.116 1.2-3.248 2.929-3.248a2.983 2.983 0 011.54.363l-.336.69a2.144 2.144 0 00-1.186-.292c-1.256 0-2.062.787-2.062 2.336-.002.074.001.147.009.22a2.06 2.06 0 011.779-.813 1.916 1.916 0 012.127 1.876zm-.858.036c0-.726-.549-1.195-1.416-1.195A1.287 1.287 0 00274.2 73c0 .637.513 1.195 1.468 1.195a1.225 1.225 0 001.262-.705c.072-.157.11-.327.113-.5h-.001z" fill="#fff"/><path d="M263.64 47.652h-10.8a2.11 2.11 0 00-2.111 2.11v10.8c0 1.167.945 2.112 2.111 2.112h10.8a2.111 2.111 0 002.111-2.111v-10.8a2.11 2.11 0 00-2.111-2.111zM280.647 47.652h-10.8a2.11 2.11 0 00-2.111 2.11v10.8c0 1.167.945 2.112 2.111 2.112h10.8a2.111 2.111 0 002.111-2.111v-10.8a2.11 2.11 0 00-2.111-2.111zM263.64 64.29h-10.8a2.11 2.11 0 00-2.111 2.11v10.8c0 1.166.945 2.111 2.111 2.111h10.8a2.111 2.111 0 002.111-2.11V66.4a2.11 2.11 0 00-2.111-2.112z" fill="#1FBEC8"/><path opacity=".4" d="M263.64 64.29h-10.8a2.11 2.11 0 00-2.111 2.11v10.8c0 1.166.945 2.111 2.111 2.111h10.8a2.111 2.111 0 002.111-2.11V66.4a2.11 2.11 0 00-2.111-2.112z" fill="#fff"/><path d="M295.478 70.082h-1.3V71.8h-.443v-1.718H290.2v-.327l3.363-4.151h.505l-3.3 4.08h2.973v-1.513h.434v1.513h1.3l.003.398zM302.159 68.87v2.93h-.425v-.823a1.781 1.781 0 01-1.663.858c-1.036 0-1.664-.531-1.664-1.318 0-.7.443-1.292 1.726-1.292h1.584v-.372a1.198 1.198 0 00-.83-1.275 1.196 1.196 0 00-.542-.043 2.398 2.398 0 00-1.593.584l-.221-.319a2.817 2.817 0 011.849-.655 1.572 1.572 0 011.779 1.725zm-.442 1.566v-.867h-1.575c-.956 0-1.292.4-1.292.929 0 .6.468.974 1.283.974a1.582 1.582 0 001.584-1.036zM303.486 69.489a2.248 2.248 0 011.427-2.191 2.25 2.25 0 01.91-.154 2.026 2.026 0 011.752.85l-.327.239a1.686 1.686 0 00-1.425-.691 1.948 1.948 0 000 3.894 1.682 1.682 0 001.425-.69l.327.239a2.05 2.05 0 01-1.752.849 2.252 2.252 0 01-1.681-.663 2.262 2.262 0 01-.656-1.682zM311.248 71.507a1.406 1.406 0 01-.948.327 1.148 1.148 0 01-1.196-.756 1.136 1.136 0 01-.06-.5V67.56h-.85v-.38h.85v-1.01h.442v1.01h1.47v.38h-1.47v2.974c0 .592.292.92.859.92a1.07 1.07 0 00.717-.256l.186.309zM312.336 65.7a.362.362 0 01.56-.301.357.357 0 01.053.55.356.356 0 01-.389.08.358.358 0 01-.224-.33zm.141 1.478h.443V71.8h-.443v-4.622zM318.5 67.18l-2.093 4.62h-.451l-2.08-4.62h.469l1.841 4.133 1.858-4.132.456-.001zM323.23 69.6h-3.974a1.972 1.972 0 001.323 1.73 1.978 1.978 0 002.111-.536l.256.292a2.202 2.202 0 01-1.743.752 2.264 2.264 0 01-1.706-.65 2.278 2.278 0 01-.675-1.695 2.2 2.2 0 01.595-1.646 2.21 2.21 0 013.822 1.629c0 .031-.009.075-.009.124zm-3.965-.346h3.54a1.775 1.775 0 00-1.77-1.712 1.77 1.77 0 00-1.77 1.712zM331.018 69.1v2.7h-.443v-2.665a1.394 1.394 0 00-.884-1.504 1.4 1.4 0 00-.616-.09 1.656 1.656 0 00-1.292.496 1.653 1.653 0 00-.46 1.305V71.8h-.443v-4.62h.425v1a1.905 1.905 0 011.832-1.036 1.756 1.756 0 011.881 1.956zM332.344 69.489a2.31 2.31 0 112.31 2.345 2.25 2.25 0 01-2.31-2.345zm4.168 0a1.86 1.86 0 00-2.275-1.728 1.865 1.865 0 00-1.416 1.483 1.861 1.861 0 001.833 2.192 1.834 1.834 0 001.858-1.947zM344.8 67.18l-1.748 4.62h-.416l-1.557-4.01-1.567 4.01h-.407l-1.752-4.62h.425l1.54 4.124 1.575-4.123h.381l1.566 4.115 1.56-4.116h.4zM294.885 59.144h1.089v2.47a3.923 3.923 0 01-2.425.787 3.186 3.186 0 01-3.086-1.937 3.2 3.2 0 01.007-2.515 3.183 3.183 0 011.827-1.728c.405-.15.837-.215 1.269-.192a3.197 3.197 0 012.487 1.009l-.725.708a2.299 2.299 0 00-1.708-.708 2.18 2.18 0 00-2.248 2.172 2.171 2.171 0 001.386 2.034c.271.106.562.156.853.148.445.01.885-.1 1.274-.318v-1.93zM300.115 57.534v1.053a1.376 1.376 0 00-.257-.027 1.287 1.287 0 00-1.371 1.46v2.293h-1.107v-4.726h1.054v.69a1.864 1.864 0 011.681-.743zM300.619 59.95a2.523 2.523 0 011.49-2.396 2.517 2.517 0 012.778.488 2.515 2.515 0 01.586 2.759 2.524 2.524 0 01-2.341 1.574 2.385 2.385 0 01-1.786-.663 2.38 2.38 0 01-.727-1.762zm3.921 0a1.4 1.4 0 10-1.408 1.478 1.38 1.38 0 001.408-1.478zM311.292 57.587v4.726h-1.053v-.6a1.93 1.93 0 01-1.523.664 1.87 1.87 0 01-2.035-2.09v-2.7h1.106v2.55c0 .858.407 1.265 1.107 1.265a1.245 1.245 0 001.292-1.425v-2.39h1.106zM317.761 59.95a2.297 2.297 0 01-1.459 2.27c-.299.116-.62.17-.941.155a1.939 1.939 0 01-1.513-.637v2.292h-1.107v-6.443h1.059v.619a1.943 1.943 0 011.567-.672 2.298 2.298 0 012.394 2.416zm-1.124 0a1.404 1.404 0 00-.916-1.237 1.401 1.401 0 00-1.253 2.483c.228.151.495.232.769.232a1.375 1.375 0 001.4-1.478zM240.672 66.563a.504.504 0 01-.355-.148l-3.357-3.39a.502.502 0 01-.097-.566.488.488 0 01.122-.161l3.326-2.915a.493.493 0 01.364-.128.495.495 0 01.347.17.51.51 0 01.122.366.507.507 0 01-.174.344l-2.926 2.565 2.983 3.01a.503.503 0 01-.078.769.5.5 0 01-.277.084z" fill="#1C2E5C"/><path opacity=".7" d="M263.64 47.652h-10.8a2.11 2.11 0 00-2.111 2.11v10.8c0 1.167.945 2.112 2.111 2.112h10.8a2.111 2.111 0 002.111-2.111v-10.8a2.11 2.11 0 00-2.111-2.111z" fill="#fff"/><path d="M363.627 129.256c0 .143-14.776.26-33 .26s-33-.117-33-.26c0-.143 14.774-.261 33-.261s33 .117 33 .261zM363.627 137.419c0 .143-14.776.26-33 .26s-33-.117-33-.26c0-.143 14.774-.261 33-.261s33 .117 33 .261zM363.627 145.581c0 .144-14.776.261-33 .261s-33-.117-33-.261c0-.144 14.774-.26 33-.26s33 .117 33 .26zM363.627 153.744c0 .144-14.776.261-33 .261s-33-.117-33-.261c0-.144 14.774-.26 33-.26s33 .116 33 .26zM330.742 161.907a6.294 6.294 0 01-1.3.1l-3.549.082c-3 .047-7.136.077-11.708.077s-8.713-.03-11.71-.077l-3.549-.082a6.294 6.294 0 01-1.3-.1 6.294 6.294 0 011.3-.1l3.549-.083c3-.047 7.137-.076 11.71-.076 4.573 0 8.712.029 11.708.076l3.549.083c.436-.012.871.022 1.3.1z" fill="#1C2E5C"/><path d="M295.87 193.794h60.089a11.66 11.66 0 0111.66 11.66v13.862a11.66 11.66 0 01-11.66 11.66H284.21v-25.522a11.66 11.66 0 0111.66-11.66z" fill="#EBEBEB"/><path d="M354.942 207.918c0 .144-13 .26-29.026.26s-29.029-.116-29.029-.26c0-.144 12.995-.261 29.029-.261s29.026.117 29.026.261zM332.338 216.97c-.46.078-.927.112-1.393.1l-3.8.082c-3.208.047-7.639.077-12.533.077-4.894 0-9.327-.03-12.534-.077l-3.8-.082a7.22 7.22 0 01-1.393-.1 7.14 7.14 0 011.393-.1l3.8-.083c3.207-.047 7.639-.076 12.534-.076 4.895 0 9.325.029 12.533.076l3.8.083c.466-.012.933.021 1.393.1z" fill="#1C2E5C"/><path d="M243.223 280.086v3.909h-.4v-3.551h-.923v-.358h1.323zM245.237 280.086v3.909h-.4v-3.551h-.921v-.358h1.321zM246.174 281.337a.3.3 0 01.6 0 .31.31 0 01-.087.215.31.31 0 01-.213.092.295.295 0 01-.215-.091.296.296 0 01-.085-.216zm0 2.379a.3.3 0 01.6 0 .308.308 0 01-.3.308.295.295 0 01-.215-.091.314.314 0 01-.065-.1.31.31 0 01-.02-.117zM249.937 282.873c0 .654-.475 1.156-1.418 1.156a2.04 2.04 0 01-1.408-.5l.2-.319c.329.303.764.465 1.212.452.648 0 1-.3 1-.787 0-.469-.33-.776-1.056-.776h-.279v-.3l1.084-1.357h-2v-.358h2.513v.285l-1.106 1.39c.839.047 1.258.488 1.258 1.114zM250.5 282.04c0-1.245.653-1.987 1.558-1.987s1.564.742 1.564 1.987-.659 1.989-1.564 1.989-1.558-.743-1.558-1.989zm2.709 0c0-1.044-.47-1.619-1.151-1.619s-1.15.575-1.15 1.619.469 1.62 1.15 1.62c.681 0 1.15-.575 1.15-1.62h.001z" fill="#E0E0E0"/><path d="M400.797 248.315h-36.622v36.622h36.622v-36.622z" fill="#1FBEC8"/><path d="M390.214 258.84c.079 2.176 2.98 3.495 2.942 5.672-.016.934-.6 1.773-.709 2.7-.153 1.247.544 2.424.8 3.653a6.568 6.568 0 01-.566 3.769 6.57 6.57 0 01-2.561 2.823 11.185 11.185 0 01-7.492 1.3M372.7 258.307a4.472 4.472 0 01-1.463 3.087 6.104 6.104 0 00-1.81 2.949c-.3 2.054 1.714 3.962 1.3 6-.222 1.09-1.115 1.966-1.274 3.067a3.815 3.815 0 001.124 2.918c.708.811 1.527.692 2.153 1.568a8.797 8.797 0 002.714 2.412c2.255 1.235 4.96-.551 6.047-.872" fill="#1C2E5C"/><path d="M390.65 260.093a2.672 2.672 0 00-1.935-2.266 14.64 14.64 0 01-2.961-1.126 14.107 14.107 0 01-1.961-2.009 6.527 6.527 0 00-9.304.016 6.51 6.51 0 00-1.667 2.977 4.275 4.275 0 001.069 4.3c1.38 1.163 3.427.9 5.2.543 1.773-.357 3.77-.719 5.247.32a7.568 7.568 0 011.945 2.588 4.628 4.628 0 002.257 2.26c1.029.354 2.427-.258 2.467-1.346" fill="#1C2E5C"/><path d="M386.473 260.31l-9.4-2.4c-3.012-.325-5.023 3.38-5.221 6.4a53.785 53.785 0 00.039 9.975c.789 5.042 4.65 5.692 4.65 5.692l.03 4.786 10.625.169.861-22.825a1.773 1.773 0 00-1.584-1.797z" fill="#FFBE9D"/><path d="M373.451 267.2a.646.646 0 00.621.654.625.625 0 00.606-.345.63.63 0 00.062-.237.646.646 0 00-.621-.654.612.612 0 00-.457.15.618.618 0 00-.211.432zM372.737 266.455c.08.084.571-.277 1.266-.274.695.003 1.2.353 1.28.268.037-.038-.044-.19-.266-.353-.3-.209-.658-.32-1.024-.318a1.703 1.703 0 00-1.008.323c-.215.164-.285.316-.248.354zM380.2 267.37a.646.646 0 00.621.653.607.607 0 00.456-.15.617.617 0 00.212-.431.646.646 0 00-.621-.654.613.613 0 00-.606.344.6.6 0 00-.062.238zM379.573 266.6c.081.084.572-.277 1.267-.274.695.003 1.2.353 1.28.268.037-.038-.044-.19-.266-.353a1.78 1.78 0 00-1.025-.318 1.703 1.703 0 00-1.008.323c-.213.163-.287.316-.248.354zM377.038 271.752a4.576 4.576 0 00-1.129-.206c-.178-.019-.346-.055-.376-.176a.913.913 0 01.12-.526l.528-1.351c.49-1.145.887-2.327 1.188-3.535a23.015 23.015 0 00-1.469 3.431c-.178.474-.346.927-.506 1.359a1.024 1.024 0 00-.094.7.44.44 0 00.291.26c.097.027.198.042.3.043.38.05.766.05 1.147.001z" fill="#1C2E5C"/><path d="M376.539 279.981a12.816 12.816 0 006.754-1.785 6.663 6.663 0 01-6.688 2.976l-.066-1.191z" fill="#EB996E"/><path d="M377.328 273.429a1.262 1.262 0 011.563-.331c.136.073.255.173.351.294a.72.72 0 01.053.829.841.841 0 01-.912.228 2.645 2.645 0 01-.888-.532.783.783 0 01-.2-.206.23.23 0 010-.259" fill="#1FBEC8"/><path d="M379.084 272.238c-.113-.007-.116.748-.764 1.282s-1.451.45-1.457.556c-.01.047.179.146.519.156.442.008.873-.141 1.216-.42.329-.269.541-.654.592-1.076.029-.315-.055-.502-.106-.498zM379.263 265.381c.069.189.763.1 1.579.2.818.084 1.475.325 1.584.155.048-.081-.066-.259-.332-.443a2.77 2.77 0 00-2.409-.271c-.3.121-.451.269-.422.359zM373 264.442c.122.159.6 0 1.178-.011.576-.026 1.064.109 1.176-.056.05-.08-.027-.239-.24-.389a1.699 1.699 0 00-1.9.055c-.203.159-.27.324-.214.401z" fill="#1C2E5C"/><path d="M388.606 277.171c-1.386.279-1.51-.426-2.545-1.389a4.546 4.546 0 01-1.393-3.839c.157-1.238.824-2.5.395-3.669-.567-1.549-2.739-2.026-3.315-3.571-.335-.9-.034-1.949-.414-2.83a3.36 3.36 0 00-2.075-1.611 8.693 8.693 0 01-2.469-1.071 1.942 1.942 0 01-.7-2.374 47.776 47.776 0 0111.013 2.676 4.252 4.252 0 012.173 1.407c.429.831.585 1.775.447 2.7-.212 4.525-.424 9.051-.634 13.576M391.776 266.89a3.865 3.865 0 013.153-3.435 3.868 3.868 0 014.167 2.095 5.478 5.478 0 01-.2 4.6c-.777 1.718-2.369 3.287-4.252 3.2a4.438 4.438 0 01-3.709-3.335 13.013 13.013 0 01-.094-5.281" fill="#1C2E5C"/><path d="M392.763 273.792a.88.88 0 00.264-.292c.197-.305.326-.65.376-1.009a4.861 4.861 0 00-.045-1.592c-.1-.593-.3-1.215-.448-1.874a4.657 4.657 0 01-.11-1.865c.1-.561.367-1.038.483-1.481a1.92 1.92 0 00.03-1.078c-.079-.249-.188-.351-.2-.344-.012.007.064.127.113.365.054.34.019.688-.1 1.011-.209.484-.387.981-.534 1.488a4.66 4.66 0 00.094 1.952c.149.673.354 1.291.464 1.863.108.503.139 1.021.091 1.534a3.166 3.166 0 01-.478 1.322z" fill="#FDBC5A"/><path d="M392.836 267.74c.199.306.463.564.773.756a4.426 4.426 0 004.981.088c.317-.181.591-.43.8-.729-.027-.029-.315.269-.88.6a4.598 4.598 0 01-4.813-.084c-.555-.351-.833-.659-.861-.631zM393.086 268.53c.09.289.235.557.427.791a5.512 5.512 0 003.652 2.2c.297.061.602.064.9.007a7.863 7.863 0 00-.872-.161 6.275 6.275 0 01-3.555-2.138 8.473 8.473 0 00-.552-.699zM391.818 275.48s.021-.019.055-.063c.051-.063.097-.13.139-.2a2.68 2.68 0 00.332-.881 3.112 3.112 0 00-.081-1.488 2.845 2.845 0 00-1.173-1.578 6.936 6.936 0 01-1.871-1.386 1.503 1.503 0 01-.274-1.183c.101-.45.248-.888.439-1.308a3.765 3.765 0 00-.065-3.009 3.292 3.292 0 00-1.023-1.271 3.995 3.995 0 00-1.546-.64c-.546-.125-1.09-.2-1.6-.35-.5-.129-.959-.38-1.337-.731a2.217 2.217 0 01-.579-1.322 11.414 11.414 0 00-.234-1.47 5.044 5.044 0 00-1.36-2.384 3.985 3.985 0 00-2.141-1.063 3.184 3.184 0 00-1.948.295c-.45.228-.837.563-1.127.976a2.6 2.6 0 00-.394.855c-.03.106-.046.214-.049.324.095-.406.27-.79.513-1.129a3.037 3.037 0 012.981-1.166c.769.132 1.48.494 2.038 1.04a4.902 4.902 0 011.29 2.3c.106.477.181.96.225 1.446.045.538.269 1.046.635 1.443.402.378.893.649 1.427.789.53.16 1.076.232 1.61.355a3.775 3.775 0 011.465.6 3.1 3.1 0 01.956 1.185 3.556 3.556 0 01.071 2.845 6.744 6.744 0 00-.44 1.35 1.692 1.692 0 00.317 1.321A6.91 6.91 0 00391 271.4c.544.345.949.871 1.143 1.485.151.463.19.955.114 1.436-.074.41-.223.803-.439 1.159z" fill="#FDBC5A"/><path d="M391.48 261.408a.568.568 0 00.062-.232 1.083 1.083 0 00-.167-.67 1.715 1.715 0 00-.842-.7 2.66 2.66 0 00-1.448-.047c-.529.1-1.076.311-1.675.427a2.226 2.226 0 01-1.823-.287 4.024 4.024 0 01-1.08-1.814 7.565 7.565 0 00-1.164-2.076 6.97 6.97 0 00-3.814-2.466 3.996 3.996 0 00-2.014.052 3.135 3.135 0 00-1.475.954 2.317 2.317 0 00-.558 1.335c-.032.368.025.739.167 1.08.086.215.215.411.379.576a.678.678 0 00.186.151 2.417 2.417 0 01-.485-.759 2.255 2.255 0 01-.124-1.036c.05-.463.243-.899.554-1.246a2.99 2.99 0 011.409-.879 3.853 3.853 0 011.917-.029 6.84 6.84 0 013.685 2.406 7.375 7.375 0 011.135 2.017 4.177 4.177 0 001.159 1.9c.289.216.634.345.994.373.33.025.663.002.987-.069.622-.13 1.16-.348 1.672-.454.45-.122.924-.118 1.372.011.331.117.615.336.813.626.128.182.198.399.2.622-.002.152-.035.226-.022.234z" fill="#FDBC5A"/><path d="M349 286.409h-71.748a11.66 11.66 0 01-11.66-11.66v-13.862a11.658 11.658 0 0111.66-11.66h60.088a11.66 11.66 0 0111.66 11.66v25.522z" fill="#EBEBEB"/><path d="M335.484 262.965c0 .143-12.82.26-28.63.26-15.81 0-28.633-.117-28.633-.26 0-.143 12.817-.261 28.633-.261 15.816 0 28.63.117 28.63.261zM335.484 271.78c0 .144-12.82.26-28.63.26-15.81 0-28.633-.116-28.633-.26 0-.144 12.817-.261 28.633-.261 15.816 0 28.63.117 28.63.261zM356.014 317.222c0 .144-13.748.26-30.7.26-16.952 0-30.706-.116-30.706-.26 0-.144 13.745-.26 30.706-.26s30.7.116 30.7.26zM334.1 326.056a8.962 8.962 0 01-1.552.1l-4.232.082c-3.573.048-8.509.077-13.961.077s-10.39-.029-13.964-.077l-4.231-.082a8.955 8.955 0 01-1.552-.1 8.858 8.858 0 011.552-.1l4.231-.083c3.574-.047 8.51-.076 13.964-.076 5.454 0 10.388.029 13.961.076l4.232.083a8.864 8.864 0 011.552.1z" fill="#1C2E5C"/><path d="M347.325 95.956c-.208.04-.42.057-.632.05l-1.813.047c-1.574.03-3.852.05-6.667.059-5.63.016-13.408-.061-22-.232l-21.991-.384-6.665-.107-1.812-.051a2.907 2.907 0 01-.632-.054c.208-.04.42-.057.632-.051l1.812-.046c1.574-.032 3.852-.05 6.667-.06 5.63-.016 13.409.062 22 .233l21.987.383 6.666.107 1.812.052a2.9 2.9 0 01.636.054z" fill="#E0E0E0"/><path d="M519.931 337.613l-81.5 38.246 18.269-85.408h31.278c3.626-.008 16.425 4.321 19.523 12.56 0 0 13.73 32.79 12.433 34.6" fill="#1FBEC8"/><path d="M516.667 326.142l22.107 84.48-15.689 4.312S493.007 350 493.491 348.939c.484-1.061 23.176-22.797 23.176-22.797z" fill="#1FBEC8"/><path opacity=".2" d="M499.322 321.518c2.951.048 5.606 2.045 7.173 4.546a22.793 22.793 0 012.72 8.365 101.242 101.242 0 011.456 16.478c.019 2.943-.041 6.079 1.518 8.576 1.595 2.554 4.525 3.87 7.031 5.54a24.94 24.94 0 0110.9 20.86c-.164 8.183-5.552 13.569-12.364 17.814l-11.028-35.012L497.8 329l1.522-7.482z" fill="#000"/><path d="M501.953 308.513a74.43 74.43 0 01-1.508 8.669 74.424 74.424 0 01-2.018 8.565 74.374 74.374 0 011.508-8.67 74.358 74.358 0 012.018-8.564zM487.766 291.448c.068.258.087.527.055.792a9.564 9.564 0 01-.323 2.14 10.997 10.997 0 01-10.582 8.236 9.56 9.56 0 01-2.154-.212 2.077 2.077 0 01-.754-.249c.017-.1 1.114.2 2.9.093a11.257 11.257 0 0010.241-7.971c.532-1.7.52-2.836.617-2.829z" fill="#1C2E5C"/><path d="M482.3 312.545a18.479 18.479 0 013.047-5.378 18.456 18.456 0 01-3.047 5.378zM495.024 317.562a12.869 12.869 0 01-2.689-6.453 165.212 165.212 0 012.689 6.453zM498.251 303.4a11.735 11.735 0 01-5.916-2.51 71.794 71.794 0 015.916 2.51zM508.475 324.557a160.57 160.57 0 002.14-5.562 8.364 8.364 0 01-2.14 5.562zM518.327 362.2a16.936 16.936 0 01-4.84-3.406 16.917 16.917 0 014.84 3.406zM526.2 405.388a65.23 65.23 0 012.887-6.623 15.696 15.696 0 01-2.887 6.623z" fill="#FAFAFA"/><path d="M466.9 262.659c-2.063-6.737-1.131-18.025 3.532-23.563s12.7-8.722 19.895-9.565a6 6 0 013.551.383 2.395 2.395 0 011.187 3.039 15.133 15.133 0 014.7-1.728 5.134 5.134 0 014.59 1.477 3.15 3.15 0 01.772 2.293 3.163 3.163 0 01-1.079 2.166 5.427 5.427 0 016.776 4.802 5.43 5.43 0 01-.642 3.042 17.258 17.258 0 01-4.437 4.88c-1.606 1.213-1.983 2.6-1.93 4.607" fill="#1C2E5C"/><path d="M504.258 254.893a18.79 18.79 0 00-14.875-20.686l-.953-.2c-10.4-1.508-17.49 6.482-18.709 16.92l-5.182 38.209a11.787 11.787 0 009.862 13.229 11.787 11.787 0 0013.516-10.22c.28-2.3.494-4.025.515-4.123 0 0 10.194.49 12.342-9.362 1.038-4.754 2.377-14.727 3.484-23.767z" fill="#EB996E"/><path d="M488.432 288.026a24.362 24.362 0 01-12.081-6.44s1.735 7.735 11.774 8.867l.307-2.427z" fill="#D16F43"/><path d="M500.025 260.9a1.444 1.444 0 01-.593.908 1.446 1.446 0 01-1.059.236 1.378 1.378 0 01-1.193-1.57 1.437 1.437 0 011.651-1.145 1.376 1.376 0 011.194 1.571zM501.143 259.292c-.212.148-1.119-.862-2.638-1.17-1.512-.329-2.786.224-2.913 0-.064-.1.182-.394.74-.648a3.96 3.96 0 012.379-.23 3.79 3.79 0 012.052 1.16c.393.458.483.823.38.888zM485.032 258.367a1.441 1.441 0 01-1.652 1.144 1.387 1.387 0 01-1.193-1.57 1.44 1.44 0 011.651-1.146 1.363 1.363 0 01.928.534 1.363 1.363 0 01.266 1.038zM486.165 256.514c-.213.148-1.121-.862-2.638-1.169-1.513-.329-2.787.223-2.914 0-.063-.1.181-.395.741-.648a3.941 3.941 0 012.378-.231c.79.159 1.509.565 2.053 1.16.392.458.482.823.38.888zM489.365 268.9a10.22 10.22 0 012.556.061c.4.039.778.038.9-.214a2.021 2.021 0 00-.023-1.2l-.541-3.187c-.73-4.529-1.173-8.22-.99-8.248.183-.028.922 3.62 1.652 8.149l.489 3.194a2.3 2.3 0 01-.111 1.563 1 1 0 01-.754.436 2.696 2.696 0 01-.677-.044 10.126 10.126 0 01-2.501-.51zM484.682 269.035c.25.036-.085 1.684 1.085 3.143 1.17 1.459 2.962 1.637 2.927 1.87 0 .108-.457.24-1.2.108a4.187 4.187 0 01-2.462-1.468 3.643 3.643 0 01-.805-2.614c.073-.702.344-1.074.455-1.039zM487.777 250.646c-.234.382-1.71-.124-3.534-.275-1.822-.188-3.365.039-3.526-.379-.069-.2.261-.536.924-.816a6.15 6.15 0 015.378.5c.6.396.863.787.758.97zM501.486 254.784c-.337.29-1.31-.282-2.564-.557-1.244-.319-2.369-.245-2.54-.656-.072-.2.167-.508.7-.738a3.797 3.797 0 014.113.977c.371.445.444.83.291.974z" fill="#1C2E5C"/><path d="M469.027 258.41c-.153-.108-6.375-3.4-7.544 3.4-1.169 6.8 5.895 6.57 5.941 6.377.046-.193 1.603-9.777 1.603-9.777z" fill="#EB996E"/><path d="M465.791 265.251c-.027-.027-.133.063-.349.12a1.2 1.2 0 01-.888-.134 2.973 2.973 0 01-.9-2.862 3.952 3.952 0 01.624-1.638 1.38 1.38 0 011.047-.756.608.608 0 01.643.445c.058.206-.009.334.025.352.017.02.166-.089.159-.379a.758.758 0 00-.194-.472.899.899 0 00-.625-.286 1.686 1.686 0 00-1.418.841 4.074 4.074 0 00-.736 1.824 3.12 3.12 0 001.222 3.233 1.288 1.288 0 001.114.006c.235-.131.297-.277.276-.294z" fill="#D16F43"/><path d="M510.812 242.8c-.729 8.949-12.217 10.75-16.128 5-1.808-2.659-3.238-5.839-6.058-7.384a8.179 8.179 0 00-6.308-.419l-.062.02c-3.05.971-5.265 3.927-6.239 6.977-1.359 4.252-1.325 8.215-3.148 12.019a2.746 2.746 0 01-1.106 1.4c-.925.45-2.022-.275-2.569-1.146a8.501 8.501 0 01-.929-4.779 28.36 28.36 0 012.312-10.94 19.306 19.306 0 017.156-8.48 18.287 18.287 0 0113.541-2.171 22.463 22.463 0 0111.824 7.18 13.153 13.153 0 013.167 5.628" fill="#1C2E5C"/><path d="M504.454 236.712c.322-.008.642.06.933.2a4.75 4.75 0 012.03 1.639 5.859 5.859 0 011.1 3.714 6.624 6.624 0 01-2.074 4.253 8.677 8.677 0 01-4.174 2.232 11.712 11.712 0 01-3.849.182 14.57 14.57 0 01-2.531-.517 2.944 2.944 0 01-.882-.346c.024-.1 1.312.325 3.446.49 1.24.093 2.488-.002 3.7-.284a8.44 8.44 0 003.915-2.136 6.268 6.268 0 001.957-3.907 5.638 5.638 0 00-.915-3.468 4.96 4.96 0 00-1.81-1.664 8.729 8.729 0 01-.846-.388zM500.445 232.814c0-.027.262-.033.628.226a2.184 2.184 0 01.809 1.634 4.018 4.018 0 01-.968 2.512 11.548 11.548 0 01-2.311 2.278 11.921 11.921 0 01-5.393 2.24 5.698 5.698 0 01-2.418-.006c0-.1.924-.057 2.354-.363a13.09 13.09 0 005.141-2.3 12.236 12.236 0 002.24-2.151c.557-.61.901-1.385.98-2.207a2.087 2.087 0 00-.569-1.484c-.28-.27-.508-.337-.493-.379z" fill="#FDBC5A"/><path d="M456.138 386.531c.978.081 49.1-16.12 49.1-16.12s21.821-4.839 24.355 9.158c2.534 13.997-20.017 30.6-20.017 30.6l-39.925 20.084L448.937 414l2.989-12.309 4.212-15.16z" fill="#EB996E"/><path d="M473.746 404.441l-26.751 16.281a3.518 3.518 0 00-1.259 4.692l17.5 29.368s3.144 2.46-1.488-19.43L485.1 422.48l-11.354-18.039z" fill="#EBEBEB"/><path d="M486.86 394.854a125.374 125.374 0 01-12.971 9.634 125.663 125.663 0 0112.971-9.634z" fill="#D16F43"/><path d="M461.321 409.291c6.917-12.924 13.436-29.7 19.733-48.637l6.574 36.588 3.769 20.98 17.392-2.351-3.218-77.849s-3.891-16.049-17.847-16.979c-12.025-.8-22.657 6.206-30.159 22.276a210.378 210.378 0 01-16.127 28.393l19.883 37.579z" fill="#EB996E"/><path d="M404.644 418.222a42.172 42.172 0 0039.838 4.08l16.995-11.42s-1.635-19.827-7.154-28.208l-4.906 1.227 3.271-4.088-8.208-12.2-21.635 21.293-18.201 29.316z" fill="#1C2E5C"/><path d="M479.282 365.907a1.68 1.68 0 01-.126.456l-.453 1.267c-.427 1.176-1 2.745-1.687 4.647-1.413 3.928-3.235 9.4-5.416 15.4a115.343 115.343 0 01-6.471 15 36.85 36.85 0 01-1.4 2.456c-.444.706-.8 1.326-1.141 1.8l-.774 1.1c-.181.249-.283.374-.3.364.049-.151.12-.293.211-.423l.69-1.154c.315-.49.66-1.115 1.06-1.839s.859-1.547 1.323-2.481a135.091 135.091 0 006.308-15.012c2.177-5.984 4.056-11.444 5.56-15.346.75-1.95 1.375-3.523 1.844-4.594l.544-1.232c.055-.147.132-.285.228-.409zM482.021 366.033c.151.365.259.746.323 1.136.175.738.409 1.809.684 3.136a363.34 363.34 0 011.982 10.4c.718 4.073 1.3 7.772 1.654 10.46.173 1.345.3 2.434.369 3.19.063.39.081.786.054 1.18a5.125 5.125 0 01-.255-1.153l-.533-3.162-1.8-10.425c-.692-4.013-1.342-7.638-1.831-10.421l-.521-3.166a5.053 5.053 0 01-.126-1.175zM506.913 392.248c-.144 0-.341-7.517-.441-16.79-.1-9.273-.063-16.8.081-16.8.144 0 .341 7.515.44 16.792.099 9.277.064 16.797-.08 16.798z" fill="#D16F43"/><path d="M486.243 395.882l5.376 29.947a4.452 4.452 0 004.961 3.628l34.235-4.483s2.015-3.174-20.071-6.752l-2.944-26.169-21.557 3.829z" fill="#E0E0E0"/><path opacity=".2" d="M490.3 337.142c-5.127-.444-10.487 5.714-10.617 11.089a4.067 4.067 0 00.249 1.72 1.74 1.74 0 001.285 1.075 2.1 2.1 0 002.134-1.263 6.783 6.783 0 00.518-2.4c-.209-5.558 2.467-9.046 6.431-10.39" fill="#000"/><path d="M524.965 414.388l3.771 10.565h29.583s-1.644-2.487-7.67-3.07l-11.055-1.056-2.739-9.678-11.89 3.239z" fill="#EB996E"/><path d="M464.964 286.4s-19.655 3.463-26.827 12.861c-5.694 7.461-27.284 49.207-35.945 66.106a51.624 51.624 0 00-5.262 16.728c-1.665 12.492-2.673 33.061 8.065 36.129 0 0 12.283-6.32 18.165-18.849a41.196 41.196 0 013.033-5.489l8.234-12.266s9.256-10.181 13.616-18.583l7.9-15.225 1.971-4.491 6.437-52.359.613-4.562z" fill="#1FBEC8"/><path d="M451.849 328.448a8.763 8.763 0 01-7.366-5.052 14.555 14.555 0 007.366 5.052zM421.538 362.471a7.785 7.785 0 011.446-.13 22.252 22.252 0 001.691-.125c.657-.076 1.408-.113 2.228-.252a45.013 45.013 0 0018.679-6.977 45.54 45.54 0 004.656-3.5c.649-.521 1.18-1.054 1.668-1.5.488-.446.894-.845 1.217-1.18a7.6 7.6 0 011.058-.994 7.822 7.822 0 01-.911 1.133c-.366.436-.753.853-1.16 1.249-.472.468-.99 1.024-1.628 1.567a40.882 40.882 0 01-4.635 3.628 42.463 42.463 0 01-13.109 5.888c-1.903.49-3.838.842-5.79 1.055-.83.116-1.59.133-2.253.176a16.73 16.73 0 01-1.705.037 7.66 7.66 0 01-1.452-.075zM407.42 391.988c.088-.434.229-.856.419-1.256a20.014 20.014 0 011.677-3.2A22.342 22.342 0 01429.9 377.22c1.205.073 2.401.256 3.573.547.435.085.858.221 1.261.407a45.207 45.207 0 00-4.852-.587 22.963 22.963 0 00-20.062 10.145 45.247 45.247 0 00-2.4 4.256zM437.846 375.149c0 .149-3.124.33-6.97.657-3.846.327-6.961.663-6.982.516a7.666 7.666 0 012.012-.448c1.253-.2 2.995-.424 4.927-.587a66.99 66.99 0 014.955-.244 7.68 7.68 0 012.058.106z" fill="#1C2E5C"/><path opacity=".2" d="M434.076 381.618c.231.1.871-2.29.661-3.444-3.867-1.608-6.124-.433-8.848-.827-.345-.05-3.907 1.375-4.1 1.087-.376-.555 2.153-1.961 2.807-2.112 5.088-1.173 9.313-1.762 12.605-3.746a7.09 7.09 0 003.712-4.606l1.57-4.912c.292-.913.445-2.177-.422-2.586-.637-.3-1.355.121-1.989.426-.634.305-1.571.4-1.881-.228-.382-.779.644-1.466 1.456-1.774a23.92 23.92 0 0014.913-18.81l-.376-6.622 3.61 10.112-10.1 19.459a104.57 104.57 0 01-13.618 18.583z" fill="#000"/><path d="M433.109 338.014a73.304 73.304 0 01-.827-12.311c.622 4.073.899 8.191.827 12.311zM445.58 343.576a34.565 34.565 0 01-4.979 6.84 34.456 34.456 0 014.979-6.84zM427.828 360.754a11.028 11.028 0 01-1.618-4.48 11.002 11.002 0 011.618 4.48zM417.219 370.255a32.04 32.04 0 01-1.839 3.02 31.932 31.932 0 01-1.733 3.084 11.007 11.007 0 013.572-6.1v-.004zM414.521 362.2a30.805 30.805 0 01-2.213-7.691 30.975 30.975 0 012.213 7.691zM429.238 343.554a15.358 15.358 0 01-7.349.358 92.456 92.456 0 017.349-.358zM447.7 334.412c.023-1.56.143-3.116.359-4.661a6.327 6.327 0 01-.359 4.661zM444.653 313.078a11.923 11.923 0 01-6.631.9c2.203-.355 4.414-.655 6.631-.9z" fill="#FAFAFA"/><path d="M557.64 314.6l-14.3 10.873-6.089 2.716 6.089-9.168 11.582-8.142a2.309 2.309 0 013.187.525 2.305 2.305 0 01-.469 3.196z" fill="#1C2E5C"/><path d="M501.034 340.144c.646 0 20.165-7.7 20.6-8.774.435-1.074.209-4.008 4.084-5.085 3.875-1.077 7.877-2.438 7.877-2.438l9.923-6.6s2.772.91.268 3.876a40.117 40.117 0 01-4.606 4.5c-.9.794.44 1.5.44 1.5l14.016-9.883a14.141 14.141 0 01-2.8 6.889l-1.938 2.584a5.083 5.083 0 01-1.507 5.6c-2.8 2.584-7.265 9.227-12 9.443-4.735.216-8.053.546-8.053.546l-24.628 12.04-1.676-14.198z" fill="#EB996E"/><path d="M549.553 325.747a39.6 39.6 0 01-7.187 5.525 39.575 39.575 0 017.187-5.525z" fill="#D16F43"/><path d="M447.692 293.86s12.079-6.04 19.46-1.678c5.9 3.486 10.1 19.064 14.114 27.542 1.009 2.131 3.2 3.725 4.005 4.668 4.026 4.7 5.033 12.75 5.033 12.75l27.9-5.127 3 17.784s-27.206 20.367-42.837 15.666c-16.241-4.884-21.613-24.632-21.613-24.632l-9.062-46.973z" fill="#1FBEC8"/><path d="M483.926 347.868a1.022 1.022 0 01-.035-.226l-.065-.675a5.833 5.833 0 01-.035-1.113 8.1 8.1 0 01.145-1.53 8.71 8.71 0 011.673-3.916 10.226 10.226 0 014.653-3.4h.016l27.885-5.21.226-.042.039.228 3.02 17.779.027.158-.132.09a126.294 126.294 0 01-18.891 11.01l-1.93.875c-.644.284-1.306.522-1.955.784s-1.3.52-1.951.757l-1.976.651c-1.3.47-2.65.75-3.961 1.112-.663.159-1.335.262-2 .395-.66.142-1.328.244-2 .306a25.12 25.12 0 01-7.884-.111 17.548 17.548 0 01-6.988-2.877 34.377 34.377 0 01-9.53-10.112 60.012 60.012 0 01-5.352-10.885c-1.323-3.466-2.336-6.662-3.234-9.462-.898-2.8-1.662-5.214-2.335-7.171-.673-1.957-1.239-3.459-1.622-4.479l-.449-1.155a2.452 2.452 0 01-.137-.4c.072.122.134.249.186.38l.5 1.137a97.323 97.323 0 011.716 4.451c.698 1.951 1.5 4.355 2.421 7.148.921 2.793 1.961 5.975 3.3 9.419a60.228 60.228 0 005.373 10.784 34.046 34.046 0 009.433 9.947c3.976 2.846 9.33 3.618 14.543 2.881.661-.06 1.319-.161 1.968-.3.654-.132 1.317-.234 1.972-.391 1.3-.361 2.63-.637 3.92-1.1l1.958-.645c.648-.236 1.288-.5 1.936-.753.648-.253 1.3-.5 1.941-.779l1.917-.87a126.98 126.98 0 0018.823-10.949l-.1.248-2.973-17.787.265.185-27.916 5.045h.016a10.072 10.072 0 00-4.56 3.263 8.644 8.644 0 00-1.7 3.81c-.106.495-.166 1-.179 1.506a6.372 6.372 0 000 1.105l.027.675c.004.07.001.14-.009.209z" fill="#1C2E5C"/><path d="M490.3 337.142a2.944 2.944 0 01-.15-.626c-.086-.412-.2-1.021-.386-1.8a25.81 25.81 0 00-2.282-6.312c-1.322-2.513-3.683-5-6.005-8a25.368 25.368 0 01-3.107-5.1 48.444 48.444 0 01-2.182-6.013 56.2 56.2 0 00-2-6.014 38.607 38.607 0 00-2.752-5.2 30.09 30.09 0 00-3.182-4.264 9.68 9.68 0 00-3.747-2.566 15.703 15.703 0 00-6.58-.98c-1.587.113-2.438.385-2.45.331.195-.09.4-.159.611-.205a12.626 12.626 0 011.822-.328 15.258 15.258 0 016.73.838 9.992 9.992 0 013.931 2.617 29.772 29.772 0 013.27 4.3 38.22 38.22 0 012.816 5.26 55.216 55.216 0 012.029 6.063 48.92 48.92 0 002.149 5.954 25.203 25.203 0 003.024 5.023c2.277 2.986 4.632 5.514 5.949 8.113a24.185 24.185 0 012.154 6.442c.154.787.239 1.4.292 1.822.037.213.053.429.046.645z" fill="#1C2E5C"/><path d="M448.418 301.967c.014-2.08.378-4.142 1.076-6.1a18.547 18.547 0 01-1.076 6.1zM465.627 298.39a19.29 19.29 0 01-6.273.717 19.21 19.21 0 016.273-.717zM455.968 318.813a24.149 24.149 0 01-1.1-6.987 24.172 24.172 0 011.1 6.987zM473.155 316.129a21.316 21.316 0 01-6.632-.358 21.286 21.286 0 016.632.358zM463.691 333.709a24.314 24.314 0 012.524-6.627 24.302 24.302 0 01-2.524 6.627zM480.684 333.157a13.105 13.105 0 01-2.51-6.632 197.535 197.535 0 012.51 6.632zM473.143 345.558a13.244 13.244 0 01-4.874-1.883c1.733.298 3.39.938 4.874 1.883zM478.533 358.969a1037.253 1037.253 0 01-7.529-3.4 16.92 16.92 0 017.529 3.4zM491.587 354.1a27.94 27.94 0 01-5.212 5.544 27.912 27.912 0 015.212-5.544zM493.036 345.354a28.822 28.822 0 01-1.891-2.484 29.186 29.186 0 01-2.031-2.371 8.282 8.282 0 013.922 4.855zM500.934 349.825a140.143 140.143 0 011.979-6.63 12.752 12.752 0 01-1.979 6.63zM511.7 338.712a24.96 24.96 0 01-7.17-.537 24.965 24.965 0 017.17.537zM511.839 350.287a22.462 22.462 0 01-6.24 2.765 22.508 22.508 0 016.24-2.765zM417.6 394.822a21.817 21.817 0 011.073-6.633 21.817 21.817 0 01-1.073 6.633zM411.481 401.663a24.992 24.992 0 01-6.808-2.339 24.97 24.97 0 016.808 2.339zM406.348 405.015a29.634 29.634 0 01-1.367 7.72 29.62 29.62 0 011.367-7.72zM406.132 378.708a382.85 382.85 0 01-5.067 5.515 14.2 14.2 0 015.067-5.515zM438.764 367.8a10.768 10.768 0 01-7.554 1.929c0-.155 1.755-.223 3.829-.761 2.077-.522 3.651-1.304 3.725-1.168z" fill="#FAFAFA"/><path d="M222.363 309.486c-.14.02-.281.029-.422.026l-1.238.026-4.761.049-17.509.083-57.766.076-57.776-.076-17.508-.083-4.76-.049-1.238-.026a2.59 2.59 0 01-.422-.026c.14-.021.28-.03.422-.027l1.238-.026 4.76-.049 17.508-.083 57.776-.076 57.766.076 17.509.083 4.761.049 1.238.026c.141-.003.282.006.422.027z" fill="#1C2E5C"/><path d="M93.252 194.129l22.06-11.942 21.826-2.979 20.025 76.2-1.84 23.492-56.485 3.04 2.3-54.675-7.886-33.136z" fill="#EBEBEB"/><path d="M131.41 139.021a33.827 33.827 0 00-34.25-.7s.656 22.4 1.79 32.071c1.136 9.671 10.977 10.156 10.977 10.156l.4 3.524a12.28 12.28 0 0021.502 6.624 12.282 12.282 0 002.971-8.556l-1.837-42.166-1.553-.953z" fill="#B78876"/><path d="M109.9 180.409a22.636 22.636 0 0012.243-4.911s-2.252 7.279-12 7.421l-.243-2.51z" fill="#AA6550"/><path d="M132.82 150.126c.158-.089 6.444-2.666 6.928 3.974.484 6.64-6.283 5.756-6.308 5.566-.025-.19-.62-9.54-.62-9.54z" fill="#B78876"/><path d="M135.285 157c.028-.023.122.073.324.148.283.097.594.081.866-.045a2.876 2.876 0 001.137-2.664 3.849 3.849 0 00-.444-1.633 1.35 1.35 0 00-.935-.825.592.592 0 00-.66.367c-.075.192-.023.322-.058.336-.017.018-.15-.1-.117-.379a.741.741 0 01.231-.435.869.869 0 01.628-.216 1.63 1.63 0 011.283.942c.324.554.508 1.179.535 1.821a3.008 3.008 0 01-1.478 2.99 1.249 1.249 0 01-1.071-.1c-.217-.144-.263-.29-.241-.307z" fill="#AA6550"/><path d="M101.748 154.209a1.393 1.393 0 001.479 1.254 1.321 1.321 0 001.217-.878c.06-.167.087-.345.077-.522a1.39 1.39 0 00-1.477-1.255 1.326 1.326 0 00-1.219.878c-.06.167-.087.345-.077.523zM100.421 151.745c.191.162 1.157-.723 2.645-.875 1.484-.173 2.656.477 2.8.278.071-.089-.138-.4-.65-.692a3.808 3.808 0 00-2.263-.446 3.656 3.656 0 00-2.081.922c-.423.399-.543.741-.451.813zM116.585 153.3a1.391 1.391 0 001.48 1.255 1.34 1.34 0 00.942-.427c.121-.131.214-.284.275-.451.06-.167.086-.345.077-.522a1.392 1.392 0 00-1.479-1.256 1.31 1.31 0 00-.515.118 1.333 1.333 0 00-.78 1.283zM115.072 150.488c.191.162 1.158-.723 2.645-.875 1.484-.174 2.656.477 2.8.278.071-.089-.136-.4-.65-.692a3.808 3.808 0 00-2.263-.446 3.661 3.661 0 00-2.081.921c-.423.399-.543.742-.451.814zM110.832 162.086a9.922 9.922 0 00-2.462-.182c-.384 0-.751-.037-.842-.29a1.932 1.932 0 01.135-1.152l.82-3.011c1.127-4.282 1.9-7.786 1.728-7.83-.172-.044-1.227 3.391-2.354 7.673-.269 1.055-.527 2.06-.771 3.023a2.205 2.205 0 00-.04 1.511.95.95 0 00.682.49c.216.034.436.042.655.022a9.756 9.756 0 002.449-.254zM114.076 144.7c.189.389 1.655.042 3.422.069 1.768-.009 3.229.355 3.422-.032.085-.185-.2-.539-.81-.871a5.954 5.954 0 00-5.214-.028c-.614.323-.903.675-.82.862zM100.516 147.383c.3.31 1.285-.148 2.516-.294 1.225-.189 2.3-.012 2.5-.391.087-.182-.113-.5-.6-.775a3.67 3.67 0 00-4.043.551c-.399.393-.505.756-.373.909z" fill="#1C2E5C"/><path d="M91.8 132.705a3.59 3.59 0 01.984-3.331 2.542 2.542 0 011.636-.661c.607-.019 1.2.18 1.674.561a2.973 2.973 0 012.166-3.854c1.568-.266 3.039.785 4.609 1.043a7.226 7.226 0 004.464-1c1.372-.727 2.627-1.664 4.022-2.346a12.442 12.442 0 0116.6 5.606 5.52 5.52 0 016.059 1.594 9.07 9.07 0 012.048 6.206 20.37 20.37 0 01-.651 4.46c.013.124.038.245.049.37.459 5.334.513 11.647-1.754 11.921-3.951.476-3.791-7.08-3.791-7.08-5.055-1.367-4.009-8.834-5.34-9.811-1.331-.977-4.14-3.275-13.764 2.99-3.737 2.433-8.994 2.921-11.93 2.572-.085-.009-.171-.013-.257-.025-.018 0-.042 0-.06-.006-.018-.006-.056-.019-.088-.025a9.224 9.224 0 01-2.724-.832 5.19 5.19 0 01-2.4-2.164 2.838 2.838 0 01.236-3.088 6.244 6.244 0 01-1.788-3.1z" fill="#1C2E5C"/><path d="M110.05 166.794c.269.58.619 1.119 1.04 1.6a2.26 2.26 0 001.694.76 2.026 2.026 0 001.607-1.109 3.239 3.239 0 00.272-1.988c-.092-.608-.448-1.308-1.063-1.317a1.543 1.543 0 00-.721.241l-3.057 1.63" fill="#AA6550"/><path d="M111.6 169.287a4.668 4.668 0 001.681-.389 2.455 2.455 0 001.165-1.3 2.59 2.59 0 00-.178-2.093 2.334 2.334 0 00-.328-.448c-.141-.119-.117-.116-.253-.081s-.326.17-.49.255l-.5.268c-.654.348-1.248.655-1.75.9a5.891 5.891 0 01-1.683.706 5.82 5.82 0 011.486-1.06c.477-.3 1.05-.639 1.69-1.012l.493-.286c.18-.11.366-.21.557-.3a.747.747 0 01.476-.036.887.887 0 01.381.241c.164.17.306.361.422.568a3.013 3.013 0 01.171 2.565 2.747 2.747 0 01-1.483 1.48c-.432.191-.909.26-1.377.2-.328-.052-.488-.145-.48-.178z" fill="#1C2E5C"/><path d="M124.8 135.452a5.76 5.76 0 00-.118-1.172 4.593 4.593 0 00-1.8-2.56 6.187 6.187 0 00-4.509-.981c-1.928.332-3.793.96-5.53 1.86-.928.433-1.876.82-2.843 1.158-2.459.813-5.083.99-7.629.515a14.83 14.83 0 01-3.117-.952 9.05 9.05 0 01-.8-.384 1.295 1.295 0 01-.265-.158c.013-.027.391.168 1.106.439 1.007.386 2.049.672 3.111.856 1.575.262 3.181.283 4.763.064a15.436 15.436 0 002.74-.646c.928-.313 1.86-.724 2.814-1.153a18.829 18.829 0 015.616-1.862 6.339 6.339 0 014.661 1.082 4.598 4.598 0 011.786 2.7c.095.391.1.8.014 1.194zM134.043 151.02c-.008.006-.059-.06-.148-.19a9.772 9.772 0 01-.366-.585 12.607 12.607 0 01-1.024-2.325 13.336 13.336 0 01-.642-3.716c.025-1.537.156-3.07.392-4.588a8.859 8.859 0 00-.459-4.449 4.531 4.531 0 00-1.1-1.589 3.416 3.416 0 00-1.487-.766 3.193 3.193 0 00-2.382.312c-.249.177-.48.378-.689.6.146-.281.362-.519.627-.692a3.23 3.23 0 012.489-.417 3.583 3.583 0 011.6.787c.513.46.918 1.026 1.188 1.66a8.968 8.968 0 01.5 4.584 35.978 35.978 0 00-.413 4.553c.024 1.24.217 2.472.572 3.661.241.803.552 1.583.928 2.333.152.268.29.544.414.827z" fill="#FDBC5A"/><path d="M125.647 134.572a1.95 1.95 0 01-.037-.389l-.075-1.114a12.962 12.962 0 00-.869-3.973 7.156 7.156 0 00-1.55-2.306 5.02 5.02 0 00-2.775-1.442 6.59 6.59 0 00-3.449.5 16.15 16.15 0 00-3.3 1.934 28.672 28.672 0 01-3.249 2.128c-1.084.56-2.256.929-3.465 1.09a11.296 11.296 0 01-3.284-.058 12.568 12.568 0 01-2.744-.808 10.823 10.823 0 01-3.393-2.331 6.821 6.821 0 01-.728-.854 1.972 1.972 0 01-.223-.321c.098.086.188.182.268.285.236.287.49.558.762.811a11.208 11.208 0 003.394 2.224 12.59 12.59 0 002.7.759 11.18 11.18 0 003.211.031 10.394 10.394 0 003.37-1.07 29.323 29.323 0 003.214-2.113 16.181 16.181 0 013.36-1.96 6.824 6.824 0 013.6-.506 5.246 5.246 0 012.9 1.534 7.286 7.286 0 011.57 2.4c.489 1.294.757 2.661.793 4.044.022.486.024.864.022 1.12.005.129-.003.258-.023.385z" fill="#FDBC5A"/><path d="M66.374 390.409l-3.14 28.1-8.89 21.511a2.9 2.9 0 001.755 3.853 2.88 2.88 0 002.622-.4c4.83-3.525 22.532-16.578 22.646-18.647.133-2.4 5.279-29.423 5.279-29.423l-20.272-4.994z" fill="#1FBEC8"/><path opacity=".6" d="M56.1 443.874l25.524-20.938-.16 1.187a4.362 4.362 0 01-1.4 2.664c-2.062 1.851-7.866 6.837-21.254 16.7a2.907 2.907 0 01-2.707.388l-.003-.001zM77.09 413.121a1.753 1.753 0 00-.78 2.2 1.686 1.686 0 002.178.794 1.85 1.85 0 00.816-2.339 1.75 1.75 0 00-2.358-.575" fill="#fff"/><path d="M64.156 432.495a8.85 8.85 0 00-2.163-2.512 8.867 8.867 0 00-3.143-1.052c-.015-.072.369-.242 1.037-.246a4.617 4.617 0 014.1 2.756c.254.62.242 1.04.169 1.054zM61.654 435.978c-.15.1-.926-.93-2.32-1.54a23.335 23.335 0 00-2.688-.722c-.062-.154 1.367-.567 2.944.156 1.585.705 2.22 2.05 2.064 2.106zM68.52 428.186c-.15.115-1.335-1.478-3.42-2.618-2.065-1.172-4.044-1.342-4.025-1.53-.025-.155 2.109-.264 4.328.987 2.232 1.229 3.263 3.101 3.117 3.161zM70.188 419.723c-.1.158-1.558-.7-3.562-1.042-2-.372-3.667-.076-3.7-.258-.06-.147 1.663-.748 3.813-.353 2.149.375 3.556 1.535 3.449 1.653zM71.319 411.5c-.11.15-1.54-.994-3.68-1.184-2.137-.237-3.765.6-3.842.432-.038-.065.315-.375 1.012-.661a6.305 6.305 0 015.648.564c.626.416.912.791.862.849zM67.9 408.755a2.457 2.457 0 01.1-1.065 7.445 7.445 0 011.217-2.662 3.29 3.29 0 011.61-1.37 1.158 1.158 0 011.267.432c.25.393.347.865.272 1.325a4.097 4.097 0 01-4.063 3.275 4.759 4.759 0 01-4.292-3.086 1.646 1.646 0 01.107-1.369 1.144 1.144 0 011.265-.44c.668.244 1.26.659 1.717 1.205a8.29 8.29 0 011.619 2.435c.172.316.274.666.3 1.026a13.17 13.17 0 00-2.23-3.151 3.77 3.77 0 00-1.522-1.017.61.61 0 00-.691.235 1.134 1.134 0 00-.017.9 4.243 4.243 0 003.752 2.633 3.55 3.55 0 003.489-2.731c.062-.319.008-.65-.151-.933a.628.628 0 00-.695-.248 2.97 2.97 0 00-1.385 1.135 11.013 11.013 0 00-1.67 3.471z" fill="#1C2E5C"/><path d="M195.323 391.455l-.9 21.568s21.62 8.163 21.842 12.165l-41.884-.25.029-33.665 20.913.182z" fill="#1FBEC8"/><path d="M181.479 411.131a1.706 1.706 0 00-1.194 1.945 1.64 1.64 0 001.917 1.2 1.8 1.8 0 001.254-2.066 1.706 1.706 0 00-2.133-1.028" fill="#E0E0E0"/><path opacity=".6" d="M174.377 424.938l.136-3.393 40.106 1.509s1.86.822 1.642 2.134l-41.884-.25z" fill="#fff"/><path d="M195.1 412.815c-.008.2-1.031.29-2.041.942-1.027.625-1.551 1.508-1.739 1.426-.188-.041.124-1.262 1.361-2.029 1.237-.767 2.464-.527 2.419-.339zM199.482 414.658c.045.2-.843.541-1.542 1.4-.725.84-.906 1.774-1.11 1.764-.192.031-.327-1.168.564-2.221.891-1.053 2.084-1.138 2.088-.943zM201.945 419.93c-.186.043-.464-.981.068-2.1.532-1.119 1.49-1.557 1.576-1.386.115.169-.51.766-.933 1.69-.444.915-.508 1.778-.711 1.796zM194.76 407.876c-.087.186-1.023-.1-2.18-.03-1.158.048-2.06.431-2.165.255-.118-.149.765-.9 2.128-.966 1.363-.066 2.318.581 2.217.741zM194.862 403.521a3.93 3.93 0 01-2.1-.023 9.446 9.446 0 01-2.19-.687 9.826 9.826 0 01-1.2-.647 2.563 2.563 0 01-.63-.5.893.893 0 01-.088-1.088c.103-.142.238-.258.395-.338.156-.081.329-.123.505-.124.266-.001.531.037.786.113a7.378 7.378 0 013.226 1.736c.967.906 1.294 1.672 1.224 1.711-.093.067-.562-.576-1.547-1.325a8.42 8.42 0 00-1.864-1.065 7.92 7.92 0 00-1.2-.379c-.443-.119-.821-.124-.936.072-.042.076-.047.1.045.236.137.142.293.264.464.362.354.235.721.449 1.1.641a11.7 11.7 0 002.023.789c.673.125 1.337.298 1.987.516z" fill="#1C2E5C"/><path d="M194.594 403.813a3.336 3.336 0 01-.541-2.029 6.805 6.805 0 01.841-3.566 1.735 1.735 0 011.345-1.051.983.983 0 01.872.591c.106.245.177.505.211.77a4.815 4.815 0 01-.916 3.574c-.825 1.081-1.679 1.32-1.7 1.251-.068-.1.647-.494 1.28-1.533.364-.599.595-1.27.675-1.967a4.325 4.325 0 00-.031-1.213c-.063-.445-.228-.805-.4-.761-.208 0-.564.329-.738.683a6.984 6.984 0 00-.526 1.134 7.536 7.536 0 00-.419 2.09c-.056 1.229.158 1.997.047 2.027zM59.81 401.311l5.714-92.056c1.033-14.073 3.337-20.492 14.68-26.066l4.844-3.364 50.4-4.652 3.1 33.726-39.368 8.812-10.313 88.241-29.057-4.641z" fill="#1C2E5C"/><path d="M138.546 308.9l25.146 10.369 5.449 80.182 32.563-3.986-1.987-86.734a22.802 22.802 0 00-7.973-16.8l-22.766-19.47-33.533 2.714-2.373 34.951 5.474-1.226z" fill="#1C2E5C"/><path d="M100.253 306.34a84.846 84.846 0 01-.707 9.377 84.909 84.909 0 01-1.225 9.325c.063-3.137.299-6.268.707-9.378a85.183 85.183 0 011.225-9.324zM95.38 291.889a1.596 1.596 0 01-.271.178l-.82.478-3.176 1.791-11.73 6.5.1-.154c-.55 10.68-1.3 25.239-2.122 41.279-.856 16.457-1.705 31.351-2.416 42.126-.376 5.359-.681 9.707-.9 12.756l-.282 3.465-.086.9c-.004.101-.02.202-.047.3a1.354 1.354 0 01-.006-.309l.035-.9.184-3.472.73-12.765 2.263-42.13c.834-16.054 1.619-30.626 2.267-41.273l.007-.105.09-.049 11.81-6.351 3.225-1.7.845-.431c.094-.056.195-.101.3-.134zM162.524 302.593a70.71 70.71 0 01.937 8.513c.312 2.84.452 5.697.418 8.555a70.749 70.749 0 01-.937-8.514 70.64 70.64 0 01-.418-8.554zM163.692 319.268a52.283 52.283 0 01-3.6-9.782 52.424 52.424 0 013.6 9.782zM161.891 287.323c.157.069.307.153.45.25l1.279.786 4.828 3.042 17.237 11.007.1.063v.116l.884 33.2c.425 16.95.768 32.293.973 43.4.082 5.528.149 10.013.2 13.155v3.578l-.027.931c.003.106-.006.212-.026.316a1.42 1.42 0 01-.027-.318l-.025-.929-.1-3.574-.361-13.15-1.125-43.4c-.3-12.253-.572-23.667-.8-33.2l.1.178-17.141-11.16-4.762-3.143-1.243-.841a3.038 3.038 0 01-.414-.307zM135.374 305.167c.643.55 1.218 1.175 1.712 1.862a6.609 6.609 0 011.4 2.119c-.109.092-.928-.7-1.808-1.792s-1.478-2.093-1.304-2.189z" fill="#FDBC5A"/><path d="M135.374 305.167a49.697 49.697 0 01-.7-7.14 49.508 49.508 0 01-.178-7.173 49.71 49.71 0 01.7 7.141 49.49 49.49 0 01.178 7.172zM101.222 313.127c.034.14-.264.333-.667.431-.403.098-.756.064-.79-.076-.034-.14.265-.332.667-.43.402-.098.756-.065.79.075zM107.059 311.7c.034.14-.591.412-1.4.609-.809.197-1.487.242-1.521.1-.034-.142.592-.412 1.4-.608.808-.196 1.487-.237 1.521-.101zM112.9 310.281c.035.139-.591.412-1.4.608-.809.196-1.487.243-1.521.1-.034-.143.591-.412 1.4-.609.809-.197 1.483-.239 1.521-.099zM118.734 308.857c.034.14-.592.413-1.4.609-.808.196-1.487.243-1.521.1-.034-.143.592-.412 1.4-.609.808-.197 1.487-.239 1.521-.1zM124.571 307.434c.034.14-.592.412-1.4.609-.808.197-1.487.242-1.521.1-.034-.142.592-.412 1.4-.609.808-.197 1.487-.234 1.521-.1zM130.408 306.011c.034.14-.592.412-1.4.609-.808.197-1.487.242-1.521.1-.034-.142.592-.413 1.4-.609.808-.196 1.487-.24 1.521-.1zM134.783 304.944c.035.14-.264.333-.666.431-.402.098-.757.064-.791-.076-.034-.14.265-.332.667-.43.402-.098.756-.069.79.075zM137.175 305.3c-.037.139-.392.167-.791.062-.399-.105-.7-.3-.66-.441.04-.141.389-.168.792-.063.403.105.697.309.659.442zM142.722 306.976c-.046.136-.7.051-1.459-.19-.759-.241-1.343-.548-1.3-.686.043-.138.694-.053 1.459.19.765.243 1.345.55 1.3.686zM148.161 308.967c-.054.133-.7.01-1.446-.275-.746-.285-1.308-.625-1.259-.76.049-.135.7-.013 1.445.274.745.287 1.313.627 1.26.761zM153.476 311.27c-.062.13-.7-.03-1.428-.358-.728-.328-1.27-.7-1.213-.833.057-.133.7.029 1.427.358.727.329 1.275.703 1.214.833zM158.648 313.877c-.069.127-.7-.07-1.4-.44s-1.227-.773-1.162-.9c.065-.127.692.068 1.4.44s1.23.774 1.162.9zM162.468 316.057c-.074.123-.422.053-.778-.157-.356-.21-.586-.481-.514-.606.072-.125.421-.054.779.157.358.211.588.482.513.606z" fill="#FDBC5A"/><path d="M133.423 187.907s-6.9 31.94-1.59 45.207c5.31 13.267 25.828 40.261 25.828 40.261l15.632-.916s-5.639-82.463-6.965-84.122c-1.326-1.659-31.728-10.412-31.728-10.412l-1.177 9.982z" fill="#1FBEC8"/><path d="M153.964 290.7s36.342-13.084 39.311-20.478c7.148-17.8-18.7-78.355-26.947-81.887-8.247-3.532-12.974 15.665-11.609 21.23 5.2 21.169 15.465 43.12 15.465 43.12l-24.47 15.828 8.25 22.187zM112.927 210.56c-1.552-6.4-4.169-24.825-4.169-24.825l-18.6 9.726c-3.3 2.467-10.87 11.079-10.868 20.887 0 17.695 2.51 58.044 5.755 63.476 4 6.691 20.913 16.974 20.913 16.974l11.941-18.36-4.868-3.841c2.922-5.767 9.407-18.888 10.175-23.24.994-5.639-9.016-35.59-10.279-40.797z" fill="#1FBEC8"/><path d="M154.4 214.746c.125.206.23.423.314.649l.807 1.9c.7 1.712 1.68 4.1 2.878 7.019l9.313 23.231 2.639 6.658.081.205-.19.109-17.466 10.075-5.161 2.919-1.4.765a2.603 2.603 0 01-.5.238c.139-.122.291-.229.454-.318l1.355-.84 5.084-3.05 17.377-10.229-.109.314-2.649-6.653-9.171-23.288-2.724-7.08c-.3-.8-.535-1.445-.717-1.935a3.693 3.693 0 01-.215-.689z" fill="#1C2E5C"/><path d="M180.343 260.312a7.896 7.896 0 01-1.284-1.418 17.9 17.9 0 00-3.231-3.16 7.998 7.998 0 00-4.138-1.513c-1.147-.056-1.845.207-1.871.119a3.154 3.154 0 011.874-.487 7.5 7.5 0 014.436 1.456 14.218 14.218 0 013.221 3.36c.412.494.747 1.048.993 1.643zM165.2 188.014a24.18 24.18 0 00-2.965 1.578 16.683 16.683 0 00-5.213 6.057 37.007 37.007 0 00-2.767 7.627 25.68 25.68 0 01-.932 3.264 3.109 3.109 0 01.1-.911c.1-.579.252-1.414.477-2.44a31.42 31.42 0 012.664-7.783 15.816 15.816 0 015.473-6.123 10.3 10.3 0 012.269-1.07c.284-.117.586-.185.894-.199zM104.118 263.923a1.608 1.608 0 01-.183-.439l-.426-1.288-1.475-4.763c-1.223-4.027-2.877-9.6-4.674-15.766-1.797-6.166-3.4-11.758-4.53-15.812l-1.315-4.809-.332-1.316a1.64 1.64 0 01-.082-.469c.08.137.142.284.182.439l.426 1.286 1.474 4.762c1.223 4.028 2.879 9.6 4.676 15.772 1.797 6.172 3.4 11.757 4.529 15.811l1.316 4.809.332 1.315c.049.151.077.309.082.468zM104.216 188.111c.061.236.1.477.116.72.06.525.138 1.213.234 2.073l.765 7.634 2.351 25.2.532 5.108-.128-.195 5.665 3.262.278.16-.226.226-3.331 3.343.045-.261c.614 1.3 1.223 2.551 1.879 3.679a36.93 36.93 0 002.126 3.065c1.432 1.866 2.816 3.395 3.973 4.641l2.727 2.867.718.763c.088.083.165.176.229.279a1.313 1.313 0 01-.282-.227l-.767-.712a105.615 105.615 0 01-2.824-2.781 58.513 58.513 0 01-4.076-4.6 36.3 36.3 0 01-2.19-3.08c-.684-1.15-1.3-2.393-1.931-3.7l-.07-.144.115-.116 3.309-3.364.053.387-5.676-3.238-.114-.065-.014-.13-.538-5.115c-.933-9.843-1.66-18.761-2.2-25.217l-.6-7.649c-.057-.863-.1-1.555-.137-2.082a3.721 3.721 0 01-.011-.731z" fill="#1C2E5C"/><path d="M121.981 274.76l-9.132-12.141-21.781 3.251-.495 1.414 23.013 27.9 19.718-3.807-11.323-16.617z" fill="#FDBC5A"/><path d="M121.486 276.174l-9.132-12.141-21.781 3.251 22.52 29.316 19.068-3.933 1.145-1.288-11.82-15.205z" fill="#FDBC5A"/><path d="M103.374 271.18a1.1 1.1 0 00.624.147 1.097 1.097 0 00.977-.744 1.105 1.105 0 00-2.001-.916 1.102 1.102 0 00.4 1.513z" fill="#EBEBEB"/><path d="M146.815 271.475l-8.2 2.259a12.088 12.088 0 00-9.97-3.062l-3.009.449-1.708 2.616s-14.635 2.841-14.907 4.738l.075.589.043.344 12.726-1.034s-10.723 1.567-11.361 1.686c-.7.132-3.018.267-2.783 1.518.193 1.028 1.538 1.66 3.431 1.655.778 0 10.182-.582 10.182-.582s-9.761 1.362-10.233 1.43c-1.146.166-.727 1.981-.012 2.11.565.1 14.224 1.967 14.224 1.967a8.026 8.026 0 01-3.8 1.944c-1.816.14-5.241-1.711-5.72-.524-.479 1.187-.254 1.809.169 2.009a46.441 46.441 0 006.453 1.923c1.469.174 15.392-3.543 15.392-3.543l14.814-2.644-5.806-15.848zM94.182 271.982s-1.955 1.134-.36 3.888a25.251 25.251 0 005.716 6.628 2.714 2.714 0 001.3 2.486s-1.553.645-.138 3.217a3.088 3.088 0 001.346 3.296c.356.229.754.382 1.172.451 0 0-.46 2.44 2.629 3.112a6.951 6.951 0 005.627-1.666l-17.292-21.412z" fill="#B78876"/><path d="M100.622 282.109c2.153.249 4.494.355 6.517.8.666.145 1.292.064 1.789.531a1.45 1.45 0 01.312 1.841 2.03 2.03 0 01-1.633.591 30.082 30.082 0 01-6.683-.821" fill="#B78876"/><path d="M101.964 285.44c2.153.25 4.494.356 6.517.8.666.145 1.292.064 1.789.53a1.457 1.457 0 01.312 1.841 2.036 2.036 0 01-1.633.591 30.036 30.036 0 01-6.683-.82" fill="#B78876"/><path d="M103.671 288.82c2.154.249 4.495.355 6.518.8.666.146 1.292.065 1.789.531a1.456 1.456 0 01.312 1.841 2.045 2.045 0 01-1.634.591 30.154 30.154 0 01-6.683-.82" fill="#B78876"/><path d="M101.059 285.1c.021-.092 1.558.2 3.469.437 1.911.237 3.472.334 3.47.429a18.669 18.669 0 01-6.939-.866zM101.129 288.207c.019-.092 1.775.213 3.949.511 2.174.298 3.947.484 3.941.577a27.243 27.243 0 01-7.89-1.088zM103.073 291.924c1.225-.045 2.451.02 3.665.192 1.224.064 2.44.236 3.634.516a20.81 20.81 0 01-3.666-.191 20.799 20.799 0 01-3.633-.517z" fill="#AA6550"/><path d="M98.837 281.943c.02-.094 1.946.254 4.341.5 2.395.246 4.352.318 4.351.413a4.544 4.544 0 01-1.285.085 31.473 31.473 0 01-6.167-.65 4.653 4.653 0 01-1.24-.348z" fill="#B78876"/><path d="M118.944 274.663a41.906 41.906 0 015.14-.961 41.925 41.925 0 015.191-.637 41.92 41.92 0 01-5.141.96 41.745 41.745 0 01-5.19.638z" fill="#AA6550"/><path d="M119.749 273.864s-.206-.244-.561-.714l-1.511-2.025-5.165-7.033.1.04-4.993.742-12.044 1.747-3.653.506-.994.127c-.116.019-.232.03-.35.031.112-.034.227-.058.343-.072l.989-.166 3.644-.571 12.034-1.808 5-.733.06-.009.035.049 5.1 7.076 1.464 2.06c.333.482.502.753.502.753z" fill="#1C2E5C"/><path opacity=".3" d="M151.384 264.961c.467-2.417 2.1-3.834 4.372-4.784 2.272-.95 4.8-1.823 6.118-3.9 1.657-2.622.722-6.021-.029-9.03-1.476-5.915-5.157-20.556-4.761-26.639l13.028 33.692-18.728 10.661zM146.721 258.284a4.665 4.665 0 001.121-3.369 16.33 16.33 0 00-.674-3.574c-1.143-4.471-1.387-9.1-1.826-13.691-.356-3.723-.8-6.835-.779-6.586 0 0-2.955-1.551-4.791-2.518a11.092 11.092 0 002.643-1.957s-1-3.251-1.195-4.236c0 0-2.175-10.977-2.762-14.514l.256 15.5-4.118 6.424 6.624 2.344 4.35 24.406 1.151 1.771z" fill="#000"/><path d="M145.714 256.728a2.207 2.207 0 01-.183-.441c-.1-.3-.28-.73-.444-1.314a35.071 35.071 0 01-1.111-5.106c-.342-2.217-.543-4.919-.947-7.96a42.21 42.21 0 00-.914-4.771 34.659 34.659 0 00-.756-2.5l-.833-2.63.06.1a5.759 5.759 0 00-1.338-.641 30.962 30.962 0 00-1.524-.522 75.93 75.93 0 00-3.193-.934l-.333-.09.186-.29 4.111-6.428-.04.118c.05-.844.1-1.747.157-2.657.157-5.808-.335-11.348-.625-16.392a99.404 99.404 0 01-.117-13.435 36.82 36.82 0 011.637-8.907c.126-.458.287-.906.482-1.339l.4-.962c.099-.269.22-.53.363-.778a5.462 5.462 0 01-.266.818c-.1.278-.219.6-.356.975a9.725 9.725 0 00-.433 1.346 38.951 38.951 0 00-1.464 8.872c-.21 4.46-.133 8.93.229 13.381.315 5.035.825 10.582.667 16.439l-.16 2.683v.062l-.036.057-4.124 6.419-.147-.38c1.1.3 2.167.615 3.212.952a31.99 31.99 0 011.546.538c.535.176 1.04.431 1.5.757l.038.03.022.072.811 2.612c.281.859.543 1.7.749 2.543.388 1.59.682 3.202.88 4.828.375 3.065.538 5.761.838 7.972.214 1.719.539 3.422.972 5.1.141.588.3 1.026.371 1.331.055.152.093.311.113.472zM137.586 250.335c.085.337.119.685.1 1.032.01.944-.069 1.887-.236 2.816a17.027 17.027 0 01-11.8 13.373 14.83 14.83 0 01-2.764.586 3.462 3.462 0 01-1.036.033c-.014-.1 1.466-.2 3.685-.969a17.6 17.6 0 0011.549-13.094c.491-2.298.402-3.779.502-3.777zM477.953 107.673a2.823 2.823 0 105.646.002 2.823 2.823 0 00-5.646-.002zM469.48 110.495a2.822 2.822 0 100-5.644 2.822 2.822 0 000 5.644zM455.393 106.262a2.82 2.82 0 001.537 4.083 2.82 2.82 0 003.704-2.304 2.825 2.825 0 00-1.386-2.812 2.825 2.825 0 00-3.129.205 2.823 2.823 0 00-.726.828z" fill="#1C2E5C"/><path d="M469.3 74.709c-.19-.02-.38-.024-.57-.01l-1.677.048c-.369.017-.783.017-1.236.055l-1.48.207-1.726.249-1.929.478a31.215 31.215 0 00-9.348 4.076 32.994 32.994 0 00-15.154 24.8 33.926 33.926 0 00-.091 4.52c.053.764.038 1.542.15 2.312.112.77.233 1.547.35 2.329a33.134 33.134 0 003.142 9.2 35.401 35.401 0 006.008 8.268 34.71 34.71 0 008.657 6.219 31.475 31.475 0 0010.552 3.239c.932.143 1.872.223 2.815.239.946.07 1.896.088 2.845.052a33.854 33.854 0 005.7-.72 33.321 33.321 0 0011.345-4.774l-.344.035 11.556 4.638.684.274-.2-.71-3.4-12.354-.059.3a33.167 33.167 0 006.167-14.117c.441-2.384.591-4.812.449-7.232a23.381 23.381 0 00-.328-3.474l-.262-1.69c-.1-.556-.273-1.1-.4-1.636a33.052 33.052 0 00-12.893-18.8 31.622 31.622 0 00-7.673-4.047l-1.728-.62-1.641-.416-1.5-.372c-.481-.092-.946-.142-1.381-.21-.874-.11-1.641-.26-2.314-.294l-1.7-.057-1.037-.023a1.604 1.604 0 00-.352.013c.115.029.232.045.351.048l1.033.08 1.687.115c.667.052 1.427.22 2.292.349a32.864 32.864 0 0126.276 24.375c.127.533.291 1.062.389 1.608l.249 1.661c.188 1.127.29 2.268.306 3.411a29.417 29.417 0 01-.468 7.09 32.573 32.573 0 01-6.082 13.81l-.1.138.046.167 3.371 12.361.489-.436-11.55-4.651-.181-.073-.164.108a32.65 32.65 0 01-11.091 4.663 33.371 33.371 0 01-5.57.705c-.928.035-1.857.018-2.782-.051a20.285 20.285 0 01-2.752-.232 30.767 30.767 0 01-10.32-3.156 34.092 34.092 0 01-8.479-6.068 34.79 34.79 0 01-5.9-8.08 32.53 32.53 0 01-3.106-9c-.12-.766-.237-1.526-.353-2.281-.113-.756-.1-1.518-.155-2.268a33.504 33.504 0 01.069-4.436 32.647 32.647 0 0114.762-24.5 31.442 31.442 0 019.2-4.147l1.9-.507 1.708-.28 1.465-.242c.45-.05.861-.061 1.227-.091l1.668-.121c.19-.005.381-.026.568-.064z" fill="#1C2E5C"/></svg>