<svg width="455" height="465" fill="none" xmlns="http://www.w3.org/2000/svg"><path d="M26.523 391.925a24.71 24.71 0 00-10.574-3.639 7.048 7.048 0 00-5 .919 1.028 1.028 0 00-.515.914c.082.261.256.483.49.624a15.116 15.116 0 0015.6 1.182zM26.251 391.626a51.617 51.617 0 01-6.829-6.009 17.267 17.267 0 01-4.28-7.918 3.19 3.19 0 01.337-2.649c5.444 4.251 9.72 9.75 10.772 16.576z" fill="#E0E0E0"/><path d="M26.466 391.884a24.69 24.69 0 01.127-8.966 12.12 12.12 0 014.775-7.4c.941 2.2.537 4.731-.126 7.029a34.156 34.156 0 01-4.735 9.97M31.8 401.445a15.63 15.63 0 00-8.479 4.292 16.036 16.036 0 00-4.85 8.326c3.178-.2 5.873-2.437 7.828-4.95 1.955-2.513 3.31-5.268 5.457-7.618M32.961 402.975a20.914 20.914 0 012.415-19.782 25.178 25.178 0 01-2.415 19.782zM40.012 411.37a15.12 15.12 0 00-14.459 8.323c-.179.358-.338.813-.1 1.134a1.074 1.074 0 00.96.282c2.85-.184 5.374-1.9 7.458-3.851 2.084-1.951 3.9-4.208 6.2-5.9M39.787 410.913a26.934 26.934 0 01-.269-15.043c.53-1.936 1.42-3.975 3.21-4.883a.636.636 0 01.492-.086.645.645 0 01.31.36 9.052 9.052 0 01.757 4.315 27.212 27.212 0 01-.676 4.369c-.564 2.67-.864 5.54-2.329 7.843a15.87 15.87 0 00-.93 1.722c-.278.586-.28.792-.534 1.257M58.45 413.694a19.403 19.403 0 013.4-15.948c.244-.318.567-.658.966-.621.61.057.768.87.741 1.482a28.816 28.816 0 01-5.107 15.087zM60.133 414.844a23.191 23.191 0 0019.036-3.872 15.416 15.416 0 00-10.305-1.264 14.704 14.704 0 00-8.73 5.136zM61.552 411.342a22.007 22.007 0 0117.276-9.99 10.645 10.645 0 01-5.65 6.247 31.372 31.372 0 01-8.293 2.426c-1.1.214-2.618.45-3.333 1.317zM58.806 394.348a50.172 50.172 0 002.209-10.118A16.845 16.845 0 0059 374.222a22.029 22.029 0 00-.294 20.473M70.061 388.66c3.909-7.105 11.885-12.781 19.956-13.576-3.114 7.752-11.6 13.742-19.956 13.576zM67.6 390.052c5.831.888 10.8 4.612 16.247 6.869a7.271 7.271 0 003.672.7 2.872 2.872 0 001.8-5.086 7.868 7.868 0 00-2.667-1.619 29.661 29.661 0 00-18.55-1.034" fill="#E0E0E0"/><path d="M64.228 394.141c1.32.378 1.77 1.062 2.816 1.952a30.408 30.408 0 0012.32 6.329c.47.116 1.087.163 1.32-.262.2-.372-.054-.821-.318-1.152a16.957 16.957 0 00-7.439-5.05c-2.843-1.059-5.306-2.335-8.7-2.061M60.42 369.444a23.312 23.312 0 0017.875 6.081c.298.005.587-.099.814-.292.45-.489-.09-1.245-.614-1.653-5.256-4.1-11.621-5.8-18.075-4.136z" fill="#E0E0E0"/><path d="M64.934 367.792a24.914 24.914 0 0122.305-3.681 17.706 17.706 0 01-10.629 4.667c-3.92.357-7.871.023-11.676-.986zM63.14 356.443c-.516-5.246-.18-9.386-.545-14.656-.029-.422-.12-.928-.514-1.08-.548-.211-1.005.463-1.185 1.023a16.8 16.8 0 002.236 14.6" fill="#E0E0E0"/><path d="M62.763 357.022a30.844 30.844 0 008.69-8.445c1.715-2.348 3.162-5.161 2.772-8.043a8.307 8.307 0 00-6.268 3.112 17.498 17.498 0 00-3.195 6.429c-.7 2.307-1.183 4.679-2 6.947M71.3 354.65a70.05 70.05 0 0021.383-12.608c-2.554-1.029-5.479-.414-8.032.617a25.327 25.327 0 00-13.463 11.935M65.163 359.892a43.52 43.52 0 0011.874.058 50.412 50.412 0 0011.085-3.683 1.3 1.3 0 00.753-.572.87.87 0 00-.27-.949c-.277-.218-.6-.37-.946-.443a20.523 20.523 0 00-11.979.716 55.656 55.656 0 00-10.517 4.873zM42.623 369.623a21.006 21.006 0 01-.192-17.383c1.638 2.495 1.838 5.673 1.538 8.643-.3 2.97-1.2 6.026-1.262 9.01M31.864 364.2a24.235 24.235 0 00-18.016 7.675 16.83 16.83 0 009.865-1.83 50.062 50.062 0 008.454-5.658M24.631 361.778c-3.29-.267-6.455-.674-9.618.295a11.528 11.528 0 00-7.33 6.215 17.381 17.381 0 009.016-1.7 51.938 51.938 0 007.932-4.808M35.341 361.888c-2.96-1.939-6-3.913-9.444-4.716-3.444-.803-7.439-.21-9.84 2.387 2.788 1.637 6.172 1.83 9.406 1.828 3.234-.002 7.2-.04 10.247 1.039" fill="#E0E0E0"/><path d="M35.358 362.045c-5.059-4.968-6.977-13.892-4.941-20.684a31.52 31.52 0 014.941 20.684zM49.269 347.969c.954-2.218 1.626-4.546 2.481-6.8a19.528 19.528 0 013.538-6.272 9.315 9.315 0 016.266-3.248 25.23 25.23 0 01-12.161 16.36M46.752 350.9c-1.579-2.173-3.4-5.123-5.544-6.746a9.274 9.274 0 00-7.543-1.98 17.578 17.578 0 0013.087 8.726zM47.256 348.15a37.482 37.482 0 01-2.5-8.082 12.608 12.608 0 011.265-8.219c2.777 5.25 3.671 10.885 1.372 16.36M49.295 331.849c1.573-5.2 6.338-9.035 11.482-10.794a4.293 4.293 0 012.014-.3 1.745 1.745 0 011.483 1.238c.188.885-.543 1.679-1.231 2.267a39.09 39.09 0 01-13.748 7.59M49.352 327.593a37.29 37.29 0 011.5-9.938 12.576 12.576 0 016.255-7.553c.52 3.389-.975 6.76-2.778 9.677s-3.976 5.668-5.06 8.921M49.27 329.9c-1.3-3.793-1.435-8.61-3.7-11.914-1.589-2.309-4.13-3.883-5.5-6.329a9.632 9.632 0 00.32 7.185 20.793 20.793 0 004.2 6.015c1.68 1.794 3.12 3.144 4.681 5.043" fill="#E0E0E0"/><path d="M49.295 441.591c-.1 0-.189-25.3-.2-56.5-.01-31.2.07-56.507.17-56.507.101 0 .19 25.294.2 56.507.011 31.213-.065 56.5-.17 56.5z" fill="#E0E0E0"/><path d="M71.4 365.8c-.305.15-.623.27-.95.358l-2.619.883c-2.207.752-5.24 1.841-8.53 3.189-3.259 1.4-6.332 2.533-8.082 4.049a5.94 5.94 0 00-1.624 2.149c-.25.594-.3.957-.33.951a.76.76 0 01.011-.265c.039-.251.1-.498.186-.738a5.709 5.709 0 011.585-2.29 14.183 14.183 0 013.507-2.178 106.586 106.586 0 0113.197-5.116c1.115-.348 2.026-.6 2.657-.774.323-.103.655-.176.992-.218z" fill="#E0E0E0"/><path d="M78.651 348.005c-.077.105-.166.2-.266.284l-.812.763-3.031 2.748-10.088 8.982c-3.937 3.505-7.34 6.854-9.7 9.376-1.181 1.259-2.11 2.3-2.745 3.03l-.733.838c-.08.103-.172.196-.274.277a1.53 1.53 0 01.217-.324c.153-.2.376-.506.681-.882.6-.758 1.5-1.829 2.664-3.114a127.58 127.58 0 019.646-9.474c3.951-3.5 7.547-6.638 10.16-8.9l3.107-2.666.858-.711c.095-.089.201-.165.316-.227z" fill="#E0E0E0"/><path d="M60.2 364.351c-.1-.046.72-1.946 1.54-4.347.818-2.401 1.216-4.429 1.321-4.412a14.87 14.87 0 01-.975 4.529 29.507 29.507 0 01-1.225 3.04 4.732 4.732 0 01-.66 1.19zM49.318 379.664a4.567 4.567 0 01-.607-.7c-.412-.528-.933-1.2-1.554-1.994a687.664 687.664 0 00-5.134-6.567 637.415 637.415 0 00-5.232-6.491l-1.59-1.971a4.478 4.478 0 01-.549-.75c.241.196.461.417.656.658.4.439.98 1.085 1.678 1.892 1.4 1.614 3.293 3.878 5.32 6.431s3.8 4.91 5.054 6.639a88.33 88.33 0 011.463 2.064c.192.245.358.51.495.789z" fill="#E0E0E0"/><path d="M44.47 373.441a8.916 8.916 0 01-2.03-3.8 10.843 10.843 0 01-.46-3.834l.16.014c-.072.293-.125.447-.154.442-.029-.005-.03-.168-.006-.469l.161.014a17.49 17.49 0 00.65 3.728 28.362 28.362 0 001.68 3.905zM38.212 365.568a6.544 6.544 0 00-1.418-.824 9.493 9.493 0 00-3.937-.313 24.27 24.27 0 00-3.964.64c-.534.169-1.08.299-1.632.391a5.67 5.67 0 011.562-.64 18.084 18.084 0 014.006-.755 8.582 8.582 0 014.062.438c.55.191 1.017.566 1.321 1.063zM36.728 363.66c-.028.057-.826-.331-2.172-.791a21.858 21.858 0 00-10.948-.835c-1.4.251-2.248.513-2.267.453a2.05 2.05 0 01.576-.245 13.52 13.52 0 011.641-.461 19.316 19.316 0 0111.086.845c.532.201 1.05.435 1.552.7.194.084.373.196.532.334zM49.27 355.592a89.716 89.716 0 01-2.815-11.1A45.104 45.104 0 0148.04 350a44.845 44.845 0 011.23 5.592z" fill="#E0E0E0"/><path d="M49.37 355.592a26.498 26.498 0 00-1.756-3.3 14.482 14.482 0 00-2.584-2.667c.37.09.712.267 1 .514a8.034 8.034 0 011.887 1.943 7.298 7.298 0 011.453 3.51zM49.295 428.1c-.04.006-.114-.608-.4-1.682a24.018 24.018 0 00-1.69-4.381 60.595 60.595 0 00-8.97-12.637c-2-2.288-3.947-4.447-5.6-6.514a45.68 45.68 0 01-4-5.769 27.714 27.714 0 01-2.02-4.282c-.187-.528-.323-.94-.4-1.225a2.064 2.064 0 01-.1-.437c.032-.01.216.579.633 1.61a31.148 31.148 0 002.11 4.2 48.226 48.226 0 004.04 5.689c1.655 2.045 3.6 4.192 5.607 6.484a57.438 57.438 0 018.928 12.766 21.835 21.835 0 011.6 4.458c.097.419.172.842.224 1.269.029.149.041.3.038.451z" fill="#E0E0E0"/><path d="M69.273 405.538a9.106 9.106 0 01-1.047.588 23.038 23.038 0 00-2.716 1.795 31.377 31.377 0 00-3.566 3.253c-1.252 1.323-2.542 2.859-3.858 4.5-2.631 3.3-5.092 6.224-6.566 8.556a35.219 35.219 0 00-1.65 2.816c-.167.364-.36.716-.575 1.054a.989.989 0 01.1-.3c.078-.188.184-.471.352-.82.458-.991.976-1.953 1.553-2.88a94.11 94.11 0 016.5-8.646c1.319-1.649 2.624-3.188 3.9-4.509a29.007 29.007 0 013.655-3.227A19.144 19.144 0 0168.16 406c.347-.174.63-.281.818-.362.093-.048.192-.082.295-.1z" fill="#E0E0E0"/><path d="M69.665 412.859c-.73.161-1.47.268-2.214.321-1.777.184-3.534.53-5.248 1.034a15.796 15.796 0 00-4.7 2.466c-1.083.837-1.594 1.53-1.644 1.49.077-.188.188-.361.327-.51.345-.43.73-.825 1.153-1.18a14.273 14.273 0 014.75-2.614 23.758 23.758 0 015.337-.943 12.14 12.14 0 012.239-.064z" fill="#E0E0E0"/><path d="M56.5 417.365c-.116-.065.882-1.589 1.655-3.637.726-2.068.9-3.882 1.026-3.861.056.395.043.797-.037 1.188a12.689 12.689 0 01-.645 2.8 13.578 13.578 0 01-1.284 2.566 3.571 3.571 0 01-.715.944zM75.744 385.885c-.11.076-.229.139-.354.188l-1.04.473c-.456.2-1.009.443-1.632.771s-1.355.655-2.114 1.111l-1.208.687c-.418.24-.833.526-1.273.8-.89.54-1.782 1.205-2.734 1.884a46.934 46.934 0 00-10.527 10.893c-.646.975-1.28 1.889-1.789 2.8-.26.45-.533.873-.759 1.3l-.645 1.23c-.43.775-.737 1.516-1.038 2.152a25.567 25.567 0 00-.715 1.656l-.437 1.056a1.65 1.65 0 01-.176.36 1.64 1.64 0 01.107-.385c.1-.286.222-.644.373-1.082.16-.471.37-1.043.661-1.687.291-.644.577-1.4.994-2.186l.628-1.248c.221-.433.488-.863.745-1.32.5-.92 1.13-1.847 1.774-2.834a45.196 45.196 0 0110.6-10.973c.964-.676 1.868-1.336 2.771-1.869.448-.272.868-.554 1.293-.79l1.227-.67c.772-.444 1.513-.762 2.15-1.068.637-.306 1.2-.542 1.664-.718l1.07-.411a1.62 1.62 0 01.384-.12z" fill="#E0E0E0"/><path d="M59.932 396.479c.146-.514.45-.969.87-1.3a5.493 5.493 0 013.5-1.344 9.568 9.568 0 013.685.72 5.28 5.28 0 011.394.677c-.505-.099-1-.244-1.479-.433a11.158 11.158 0 00-3.59-.6 5.712 5.712 0 00-3.346 1.175c-.371.343-.717.712-1.034 1.105zM57.57 398.917a9.354 9.354 0 00.77-6.615c.212.276.353.6.411.943a6.7 6.7 0 01-.565 4.849c-.309.559-.586.848-.617.823zM31.821 431.729c.545 9.669 3.46 19.5 7.94 29.444H59.25c4.274-9.843 6.986-19.661 7.47-29.444H31.82z" fill="#E0E0E0"/><path d="M63.559 447.375c0 .1-6.416.183-14.33.183s-14.331-.082-14.331-.183c0-.101 6.415-.183 14.33-.183 7.917 0 14.33.082 14.33.183zM63.124 450.878c0 .1-6.016.182-13.434.182-7.418 0-13.435-.081-13.435-.182 0-.101 6.014-.183 13.435-.183 7.42 0 13.434.082 13.434.183zM40.076 438.077a55.15 55.15 0 010 8.978 55.15 55.15 0 010-8.978z" fill="#FAFAFA"/><path d="M50.517 438.077a59.145 59.145 0 010 9.3 59.145 59.145 0 010-9.3zM60.32 438a61.833 61.833 0 010 9.482 61.504 61.504 0 010-9.482z" fill="#FAFAFA"/><path d="M66.1 438.077c0 .1-7.526.183-16.807.183-9.281 0-16.81-.081-16.81-.183s7.525-.182 16.81-.182c9.285 0 16.807.082 16.807.182z" fill="#FAFAFA"/><path d="M411.022 380.088c-.084.1-.786-.317-1.568-.942s-1.347-1.218-1.263-1.323c.084-.105.786.317 1.568.942s1.347 1.218 1.263 1.323z" fill="#E0E0E0"/><path d="M432.342 348.221c.297-2.972.05-5.974-.727-8.859-.94-2.828-3.121-5.428-6.039-6.033-3.331-.69-6.743 1.413-8.61 4.256-1.867 2.843-2.508 6.3-3.059 9.652a340.856 340.856 0 00-4.178 70.064l13.629 1.911c5.986-24.457 7.896-45.835 8.984-70.991z" fill="#EBEBEB"/><path d="M423.684 333.224a.781.781 0 01-.062.217l-.225.618-.908 2.355c-.19.513-.443 1.068-.646 1.7l-.661 2.064-.764 2.37c-.223.855-.456 1.755-.7 2.7a118.676 118.676 0 00-2.632 13.488c-.738 5.125-1.222 10.8-1.6 16.767-.7 11.941-.806 22.781-1.113 30.619-.146 3.919-.28 7.091-.43 9.28l-.171 2.52-.056.654a.799.799 0 01-.036.222.74.74 0 01-.014-.225c0-.177.005-.393.008-.657l.08-2.523c.091-2.191.173-5.363.275-9.282.219-7.837.273-18.677.971-30.638.381-5.974.879-11.663 1.643-16.8a112.822 112.822 0 012.744-13.513l.74-2.7.8-2.368.7-2.057c.217-.632.483-1.184.688-1.694l.994-2.324.27-.6a.724.724 0 01.105-.193zM424.947 333.231a9.76 9.76 0 011.665 2.82 20.894 20.894 0 011.243 8.817c-.363 7.531-1.037 17.908-1.933 29.366-.896 11.458-1.9 21.818-2.7 29.307-.4 3.744-.75 6.771-1.007 8.861l-.309 2.406-.092.624a.72.72 0 01-.048.21.711.711 0 010-.216l.045-.629.218-2.415c.206-2.141.5-5.162.853-8.876.716-7.5 1.66-17.854 2.561-29.31s1.625-21.833 2.074-29.34a21.3 21.3 0 00-1.074-8.734 18.402 18.402 0 00-1.496-2.891zM434.4 368.505a14.634 14.634 0 01-5-1.794c1.762.288 3.457.896 5 1.794zM436.038 354.615a16.2 16.2 0 01-5.114 2.289 16.255 16.255 0 015.114-2.289zM435.187 343.279a8.514 8.514 0 01-4.031-.279 8.526 8.526 0 014.031.279zM421.122 336.015c-.114.071-.711-.672-1.333-1.661s-1.034-1.849-.92-1.92c.114-.071.71.671 1.332 1.661.622.99 1.035 1.848.921 1.92zM416.475 342.869a7.792 7.792 0 01-3.861-.082 7.791 7.791 0 013.861.082zM413.138 356.586a4.747 4.747 0 01-2.037-.559c-1.075-.434-1.9-.886-1.855-1.011a4.747 4.747 0 012.037.559c1.075.433 1.905.886 1.855 1.011zM412.781 368.121c.028.131-.749.4-1.734.612-.985.212-1.806.268-1.834.136-.028-.132.749-.406 1.734-.613.985-.207 1.806-.267 1.834-.135zM411.211 386.989c.024.132-.8.391-1.841.577a3.97 3.97 0 01-1.927.1c-.024-.132.8-.391 1.841-.577a3.957 3.957 0 011.927-.1zM410.168 397.4c.063.119-.624.606-1.535 1.088-.911.482-1.7.775-1.763.656-.063-.119.625-.605 1.535-1.087.91-.482 1.7-.772 1.763-.657zM418.673 409.226c-.116.067-.715-.76-1.338-1.847a5.478 5.478 0 01-.915-2.088c.116-.067.716.76 1.338 1.846.448.624.76 1.336.915 2.089zM421.127 389.581c.094.1-.573.9-1.49 1.8s-1.737 1.551-1.831 1.455c-.094-.096.573-.9 1.49-1.8s1.737-1.551 1.831-1.455z" fill="#E0E0E0"/><path d="M420.584 379.273c-.1.091-.717-.417-1.382-1.134-.665-.717-1.124-1.374-1.026-1.465.098-.091.718.416 1.383 1.134s1.124 1.373 1.025 1.465zM422.271 366.1c.1.09-.456.874-1.242 1.751-.786.877-1.505 1.516-1.6 1.427-.095-.089.456-.874 1.242-1.752s1.5-1.513 1.6-1.426zM423.221 356.544c-.094.1-.87-.514-1.733-1.362-.863-.848-1.486-1.614-1.392-1.71.094-.096.87.514 1.733 1.363.863.849 1.487 1.613 1.392 1.709zM425.087 343.623c.116.069-.274.935-.87 1.934-.596.999-1.173 1.754-1.289 1.685.142-.702.44-1.363.871-1.934.596-1 1.173-1.754 1.288-1.685zM428.6 331.649a4.573 4.573 0 01-.769 1.936c-.544 1.006-1.08 1.769-1.2 1.705.106-.695.37-1.357.77-1.936.542-1.006 1.078-1.769 1.199-1.705zM432.58 337.088c.058.121-.487.5-1.218.852s-1.37.535-1.428.413c-.058-.122.487-.5 1.218-.852s1.37-.535 1.428-.413zM432.675 380.089a8.315 8.315 0 01-4.977-2.123c1.677.665 3.337 1.373 4.977 2.123zM431.048 389.2c.025.132-.8.4-1.834.6a3.965 3.965 0 01-1.925.124c-.026-.132.8-.4 1.833-.6a3.98 3.98 0 011.926-.124zM429.047 404.814a7.706 7.706 0 01-3.376-4.258 459.991 459.991 0 003.376 4.258zM407.14 411.956c-.088-.1.466-.719 1.236-1.378.77-.659 1.466-1.11 1.554-1.008.088.102-.467.719-1.237 1.378-.77.659-1.466 1.11-1.553 1.008z" fill="#E0E0E0"/><path d="M400.842 377.872c-.887-2.771-2.552-6-5.46-6.041a4.834 4.834 0 00-4.089 2.736 10.079 10.079 0 00-1.105 5.015 130.626 130.626 0 006.25 36.3h10.641a126.453 126.453 0 00-6.237-38.01zM381.6 360.435c-1.488-5.949-5.925-9.163-11.079-9.461-4.7.825-6.528 5.456-7.086 10.2-.558 4.744.914 9.463 2.368 14.012 4.667 14.604 9.336 29.208 14.008 43.812l13.238-1.446c-4.193-19.568-6.599-37.705-11.449-57.117z" fill="#EBEBEB"/><path d="M395.382 371.831c-.339.478-.64.981-.9 1.506a9.925 9.925 0 00-.5 4.7c.206 2.023.438 4.459.777 7.128.339 2.669.828 5.6 1.426 8.658 1.2 6.114 2.559 11.6 3.42 15.6.435 2 .764 3.621.972 4.746l.222 1.3c.037.15.052.305.045.46a1.752 1.752 0 01-.141-.44l-.312-1.279-1.122-4.708c-.946-3.975-2.354-9.449-3.562-15.581a121.15 121.15 0 01-1.393-8.7c-.17-1.344-.282-2.626-.391-3.826-.109-1.2-.228-2.307-.284-3.334a9.65 9.65 0 01.669-4.807 4.193 4.193 0 011.074-1.423zM370.71 350.6a17.945 17.945 0 00-1.6 2.15 15.13 15.13 0 00-2.015 6.927c-.06 3.62.494 7.223 1.638 10.658l3.778 12.8 6.776 23.291 2 7.073.52 1.931c.071.222.121.451.149.682a3.816 3.816 0 01-.243-.655l-.608-1.9-2.149-7.03-6.912-23.251-3.744-12.822a31.681 31.681 0 01-1.549-10.8 14.836 14.836 0 012.2-7 8.202 8.202 0 011.759-2.054z" fill="#E0E0E0"/><path d="M390.159 416.135a3.869 3.869 0 01-.3-.634c-.174-.425-.455-1.042-.754-1.862-.631-1.627-1.44-4.023-2.277-7.031-.837-3.008-1.668-6.631-2.467-10.676l-2.493-13.169c-.921-4.66-1.946-9.07-3.136-13.006a72.14 72.14 0 00-3.859-10.2 53.92 53.92 0 00-3.569-6.431c-.455-.742-.869-1.277-1.115-1.664a3.816 3.816 0 01-.371-.6c.167.165.317.345.45.538.272.37.712.889 1.193 1.617a48.138 48.138 0 013.722 6.388 69.074 69.074 0 013.979 10.219 130.71 130.71 0 013.184 13.041l2.455 13.178c.774 4.043 1.564 7.665 2.36 10.673.796 3.008 1.547 5.412 2.122 7.055.271.828.523 1.455.668 1.891.091.218.16.443.208.673zM366.037 373c.031.13-.689.417-1.609.641-.92.224-1.691.3-1.723.167-.032-.133.688-.417 1.608-.641.92-.224 1.692-.3 1.724-.167zM364.634 363.962a16.352 16.352 0 01-4.478.176 7.7 7.7 0 014.478-.176zM366.126 355.71c-.087.1-.807-.364-1.607-1.043-.8-.679-1.378-1.312-1.291-1.414.087-.102.806.364 1.607 1.043.801.679 1.378 1.312 1.291 1.414zM370.164 348.071c.134.031.1.674.077 1.452-.023.778-.026 1.423-.161 1.445-.135.022-.352-.626-.326-1.459.026-.833.282-1.469.41-1.438zM378.417 351.671c.11.077-.214.729-.723 1.456s-1.011 1.254-1.121 1.177c-.11-.077.213-.729.722-1.456s1.012-1.254 1.122-1.177zM383.772 360.974c.051.125-.635.522-1.531.888-.896.366-1.664.56-1.715.436-.051-.124.635-.522 1.531-.888.896-.366 1.664-.56 1.715-.436zM387.021 370.547a6.116 6.116 0 01-4.388.994 8.796 8.796 0 012.182-.553 8.613 8.613 0 012.206-.441zM372.1 367.828c-.128-.04-.035-.7.208-1.477.243-.777.544-1.372.672-1.332.128.04.036.7-.207 1.477-.243.777-.54 1.372-.673 1.332zM374.185 379.845a4.59 4.59 0 01.6-1.989c.454-1.046.922-1.85 1.045-1.8a4.567 4.567 0 01-.6 1.99c-.453 1.054-.921 1.854-1.045 1.799zM369.045 383.136a4.82 4.82 0 01-1.906-.419c-1.015-.319-1.835-.609-1.806-.742a3.579 3.579 0 011.951.277c1.038.323 1.816.761 1.761.884zM372.008 392.934c.078.109-.489.648-1.267 1.2-.778.552-1.471.916-1.549.807-.078-.109.489-.649 1.267-1.2.778-.551 1.471-.916 1.549-.807zM374.385 402.7c.032.131-.67.414-1.567.632-.897.218-1.65.289-1.682.159-.032-.13.67-.414 1.567-.632.897-.218 1.65-.286 1.682-.159zM387.283 378.708c.067.113-.532.591-1.406.919-.874.328-1.639.367-1.663.237-.024-.13.662-.378 1.491-.693.829-.315 1.509-.582 1.578-.463zM389.126 393.906c-.058.122-.772-.094-1.6-.482-.828-.388-1.446-.8-1.388-.922.058-.122.771.094 1.6.482.829.388 1.445.801 1.388.922zM392.379 404.782a5.04 5.04 0 01-2.108-.564c-1.115-.437-1.979-.893-1.93-1.018a9.765 9.765 0 014.038 1.582zM374.906 413.3c-.066-.123.8-.706 1.8-1.5s1.779-1.493 1.882-1.4c.103.093-.537.964-1.582 1.782-.583.56-1.31.946-2.1 1.118zM383.506 407.772c-.138.016-.325-.714-.657-1.563s-.678-1.519-.565-1.6c.113-.081.666.505 1.019 1.424.353.919.332 1.729.203 1.739zM381.226 394.692c-.079.109-.634-.155-1.241-.591-.607-.436-1.035-.877-.956-.986.079-.109.634.155 1.24.591.606.436 1.031.877.957.986zM401.271 374.194c.08.108-.461.642-1.208 1.194-.747.552-1.418.91-1.5.8-.082-.11.461-.643 1.208-1.194.747-.551 1.421-.909 1.5-.8zM404.293 382.453c.012.13-.835.309-1.883.193-1.048-.116-1.838-.466-1.8-.59.038-.124.852 0 1.85.106.998.106 1.822.153 1.833.291zM391.307 384.3c.029.128-.756.41-1.769.475s-1.828-.105-1.817-.236c.011-.131.811-.182 1.784-.249s1.773-.119 1.802.01zM392.422 376.5c-.009.129-.8.15-1.669-.252s-1.371-1.011-1.279-1.1c.092-.089.69.3 1.482.661.792.361 1.484.55 1.466.691zM405.407 391.319c-.071.114-.883-.268-1.813-.853-.93-.585-1.625-1.152-1.553-1.266.072-.114.883.269 1.813.854.93.585 1.625 1.152 1.553 1.265z" fill="#E0E0E0"/><path d="M437.094 414.496h-69.283v12.28h69.283v-12.28z" fill="#E0E0E0"/><path d="M372.985 424.34l8.425 36.7h41.29l9.217-36.7h-58.932z" fill="#E0E0E0"/><path d="M437.055 426.791c0 .135-15.627.244-34.9.244-19.273 0-34.9-.109-34.9-.244s15.624-.243 34.9-.243c19.276 0 34.9.109 34.9.243z" fill="#EBEBEB"/><path d="M398.525 384.573c-.114.072-.587-.48-1.057-1.232s-.759-1.42-.645-1.491c.114-.071.588.48 1.058 1.233.47.753.758 1.417.644 1.49zM398.551 394.453c-.128-.043.034-.877.362-1.865.328-.988.7-1.753.825-1.71.125.043-.035.877-.363 1.864-.328.987-.697 1.753-.824 1.711zM401.932 404.825c-.121.058-.639-.771-1.156-1.852a5.063 5.063 0 01-.717-2.062c.121-.058.639.771 1.156 1.852.387.627.632 1.331.717 2.062zM394.615 413.17c-.1-.088.312-.731.923-1.435.611-.704 1.19-1.2 1.291-1.117.101.083-.311.731-.923 1.436-.612.705-1.19 1.204-1.291 1.116zM393.079 398.019c-.023.132-.69.125-1.489-.016-.799-.141-1.428-.363-1.4-.495.028-.132.689-.125 1.489.016.8.141 1.421.362 1.4.495zM370.967 65.742l-14.861 4.763 12.8 39.94 14.861-4.763-12.8-39.94z" fill="#E0E0E0"/><path d="M366.948 67.032l-14.857 4.76 12.792 39.928 14.857-4.76-12.792-39.928z" fill="#EBEBEB"/><path d="M365.589 78.129a3.52 3.52 0 11-6.704 2.148 3.52 3.52 0 016.704-2.148z" fill="#fff"/><path d="M372.868 71.76a13.26 13.26 0 01-.829 3.6 13.228 13.228 0 01-1.327 3.444c.107-1.233.386-2.444.829-3.6a13.191 13.191 0 011.327-3.445zM374.284 76.178a13.259 13.259 0 01-.829 3.6 13.227 13.227 0 01-1.327 3.445 13.26 13.26 0 01.829-3.6 13.191 13.191 0 011.327-3.445zM375.7 80.6a13.259 13.259 0 01-.829 3.6 13.236 13.236 0 01-1.327 3.446c.107-1.233.386-2.444.829-3.6A13.236 13.236 0 01375.7 80.6zM377.116 85.015a13.259 13.259 0 01-.829 3.6 13.227 13.227 0 01-1.327 3.445 13.26 13.26 0 01.829-3.6 13.228 13.228 0 011.327-3.445zM378.532 89.433a13.259 13.259 0 01-.829 3.6 13.27 13.27 0 01-1.326 3.445c.106-1.233.385-2.445.828-3.6a13.23 13.23 0 011.327-3.445zM379.948 93.852a13.26 13.26 0 01-.829 3.6 13.232 13.232 0 01-1.326 3.445c.106-1.233.385-2.445.828-3.6a13.227 13.227 0 011.327-3.445zM381.364 98.271a13.263 13.263 0 01-.829 3.6 13.278 13.278 0 01-1.326 3.445c.106-1.233.385-2.445.828-3.6a13.224 13.224 0 011.327-3.445zM371.578 67.875a13.182 13.182 0 01-.829 3.6 13.235 13.235 0 01-1.326 3.445c.106-1.233.385-2.445.828-3.6.28-1.204.727-2.364 1.327-3.445zM369.387 66.249c.039.74-.094 1.48-.389 2.16-.352 1.152-.749 2.05-.887 2.008-.039-.74.094-1.48.389-2.16.352-1.151.749-2.05.887-2.008z" fill="#EBEBEB"/><path d="M390.27 100.144l-10.5-35.552s7.37-4.044 10.949-16.97c2.369-8.554-1.74-15.5-1.844-18.884-.063-2.072 4.532-3.124 6.565-3.524 1.927-.38 5.328-.33 7.559 2.195 4.135 4.68 4.966 18.783 4.966 18.783s-.609 3.122 3.107 1.93l13.251-4.246a7.571 7.571 0 015.253.175 5.626 5.626 0 013.441 4.063c1.217 5.169-.714 8.276-.373 9.337.341 1.06 2.395 2.452 2.311 5.844-.084 3.392-.832 3.339-.364 4.8a25.013 25.013 0 011.187 7.813 11.364 11.364 0 01-.927 3.955s2.114 4.68 1.495 7.86c-.812 4.172-8.808 9.33-12.948 8.833-1.937-.233-10.426.415-14.439.677-4.013.262-15.659.038-18.689 2.911z" fill="#E0E0E0"/><path d="M385.653 102.065l-11.439-35.694s7.37-4.045 10.949-16.97a62.545 62.545 0 002.525-18.322 4.252 4.252 0 013.374-4.336 6.482 6.482 0 016.625 2.158c4.136 4.68 4.723 19.07 4.723 19.07s-.61 3.121 3.106 1.931l13.252-4.247a7.574 7.574 0 015.252.174 5.63 5.63 0 013.441 4.063c1.218 5.17-.713 8.276-.373 9.338.34 1.062 2.395 2.451 2.311 5.844-.084 3.393-.832 3.34-.364 4.8a25.013 25.013 0 011.187 7.813 11.366 11.366 0 01-.927 3.955s1.929 4.65 1.495 7.861c-.434 3.212-5.539 6.457-7.4 7.053-1.861.596-15.977 2.194-19.99 2.456-4.013.262-14.717.18-17.747 3.053z" fill="#EBEBEB"/><path d="M406.912 38.669a18.062 18.062 0 01-1.864 4.49 18.111 18.111 0 01-2.573 4.128 30.982 30.982 0 012.11-4.365 30.857 30.857 0 012.327-4.253zM406.1 33.668a12.196 12.196 0 01-1.849 4.027 20.682 20.682 0 01-2.533 3.622 17.437 17.437 0 012.088-3.893c.7-1.29 1.466-2.544 2.294-3.756zM404.354 29.48a7.43 7.43 0 01-1.554 3.27 19.854 19.854 0 01-2.215 2.828 9.265 9.265 0 011.79-3.13c1.15-1.58 1.825-3.032 1.979-2.968zM401.744 26.358a6.926 6.926 0 01-1.163 2.379 6.895 6.895 0 01-1.606 2.1c.23-.86.625-1.669 1.163-2.38.394-.797.94-1.51 1.606-2.1zM398.374 25.1c.108.1-.237.71-.77 1.373s-1.059 1.132-1.175 1.047c-.116-.085.228-.7.769-1.373s1.068-1.139 1.176-1.047zM407.894 45.292a7.713 7.713 0 01-1.242 2.513 7.696 7.696 0 01-1.685 2.239 7.755 7.755 0 011.242-2.513 7.719 7.719 0 011.685-2.239zM433.451 50.825a25.848 25.848 0 01-2.963 4.241 25.794 25.794 0 01-3.374 3.922 25.887 25.887 0 012.963-4.24 25.85 25.85 0 013.374-3.923zM431.3 44.841a9.35 9.35 0 01-1.679 2.6 9.321 9.321 0 01-2.091 2.28 9.37 9.37 0 011.679-2.6 9.373 9.373 0 012.091-2.28zM434.2 60.137a20.653 20.653 0 01-2.268 3.062 20.606 20.606 0 01-2.415 2.947 10.812 10.812 0 012-3.267 10.866 10.866 0 012.683-2.742zM434.469 67.634a13.956 13.956 0 01-1.974 3.233 13.879 13.879 0 01-2.4 2.931 13.992 13.992 0 011.975-3.233 13.88 13.88 0 012.399-2.93zM435.528 76.266a14.027 14.027 0 01-2.263 3.795 14.035 14.035 0 01-2.975 3.268 28.821 28.821 0 012.557-3.578 28.857 28.857 0 012.681-3.485zM436.02 83.654a18.31 18.31 0 01-2.7 4.384 18.287 18.287 0 01-3.412 3.856 42.414 42.414 0 012.994-4.166 42.285 42.285 0 013.118-4.074z" fill="#EBEBEB"/><path d="M57.097 93.95l-16.482 30.602 11.387 6.133 16.482-30.602-11.387-6.132z" fill="#E0E0E0"/><path d="M60.173 95.607L43.691 126.21l11.386 6.133L71.56 101.74l-11.387-6.133z" fill="#EBEBEB"/><path d="M59.6 104.857a2.919 2.919 0 105.14 2.768 2.919 2.919 0 00-5.14-2.768z" fill="#fff"/><path d="M54.637 98.564c.367.96.57 1.973.6 3 .2 1.009.23 2.044.086 3.062a9.155 9.155 0 01-.6-3 9.146 9.146 0 01-.086-3.062zM52.814 101.95c.366.96.569 1.974.6 3 .2 1.009.229 2.044.085 3.062a9.158 9.158 0 01-.6-3 9.155 9.155 0 01-.085-3.062zM50.99 105.335c.367.959.57 1.973.6 3 .2 1.009.23 2.044.086 3.062a9.16 9.16 0 01-.6-3 9.183 9.183 0 01-.086-3.062zM49.167 108.721a9.15 9.15 0 01.6 3c.2 1.009.229 2.044.085 3.062a9.16 9.16 0 01-.6-3 9.158 9.158 0 01-.085-3.062zM47.343 112.106c.367.959.57 1.973.6 3a9.18 9.18 0 01.086 3.062 9.155 9.155 0 01-.6-3 9.177 9.177 0 01-.086-3.062zM45.52 115.492c.367.959.57 1.974.6 3 .2 1.009.229 2.044.085 3.062a9.155 9.155 0 01-.6-3 9.153 9.153 0 01-.085-3.062zM43.7 118.877c.367.959.57 1.973.6 3a9.18 9.18 0 01.086 3.062 9.155 9.155 0 01-.6-3 9.177 9.177 0 01-.086-3.062zM56.276 95.6c.367.96.57 1.974.6 3 .2 1.009.23 2.044.086 3.062a9.16 9.16 0 01-.6-3 9.211 9.211 0 01-.086-3.062zM58.308 94.6c.143-.017.35.774.463 1.765.113.99.088 1.808-.055 1.824-.143.016-.35-.774-.463-1.765-.113-.991-.088-1.805.055-1.824z" fill="#EBEBEB"/><path d="M36.156 119.054L50.1 91.68s-5.392-4.413-6.349-15.487c-.634-7.328 3.766-12.36 4.364-15.106.366-1.678-3.218-3.232-4.814-3.866a6.69 6.69 0 00-6.49.642c-4.076 3.187-6.89 14.551-6.89 14.551s.022 2.636-2.825 1.1l-10.153-5.466a6.28 6.28 0 00-4.306-.654 4.664 4.664 0 00-3.419 2.79c-1.776 4.027-.673 6.85-1.11 7.663-.439.813-2.324 1.635-2.77 4.411-.448 2.776.171 2.847-.43 3.965a20.744 20.744 0 00-2.153 6.186 9.422 9.422 0 00.156 3.364S.48 99.265.502 101.951c.03 3.521 5.762 8.936 9.21 9.158 1.614.1 8.433 1.918 11.663 2.74 3.23.822 12.748 2.404 14.781 5.205z" fill="#E0E0E0"/><path d="M39.627 121.319l14.73-27.349s-5.392-4.412-6.35-15.486c-.52-5.11-.277-10.27.72-15.31a3.527 3.527 0 00-2.091-4.045 5.375 5.375 0 00-5.725.754c-4.08 3.187-6.738 14.822-6.738 14.822s.023 2.636-2.824 1.1l-10.15-5.466a6.28 6.28 0 00-4.305-.654 4.665 4.665 0 00-3.42 2.79c-1.775 4.026-.672 6.85-1.111 7.663-.44.813-2.323 1.634-2.77 4.411-.445 2.777.173 2.847-.43 3.965A20.699 20.699 0 007.013 94.7a9.414 9.414 0 00.156 3.363s-2.276 3.5-2.41 6.179c-.132 2.679 3.535 6.1 4.958 6.867 1.423.767 12.686 4.209 15.916 5.031 3.23.822 11.96 2.379 13.995 5.179z" fill="#EBEBEB"/><path d="M31.914 66.444a20.014 20.014 0 011.295 3.805c.467 1.259.807 2.562 1.014 3.889A12.951 12.951 0 0132.71 70.4a13.012 13.012 0 01-.796-3.956zM33.337 62.493c.532 1.096.98 2.23 1.34 3.392a12.161 12.161 0 011.07 3.5 14.161 14.161 0 01-1.556-3.32 9.01 9.01 0 01-.854-3.572zM35.391 59.345c.462.871.863 1.773 1.2 2.7.525.864.847 1.835.943 2.841a12.624 12.624 0 01-1.415-2.622 5.546 5.546 0 01-.728-2.919zM37.991 57.2c.134-.052.6.818 1.031 1.943a4.8 4.8 0 01.546 2.131c-.134.052-.6-.818-1.03-1.943a4.8 4.8 0 01-.547-2.131zM40.927 56.685c.124-.074.5.378.839 1.01.339.632.509 1.194.379 1.256-.13.062-.5-.389-.838-1.01-.338-.62-.507-1.183-.38-1.256zM30.111 71.69a5.385 5.385 0 011.075 2.065 5.37 5.37 0 01.59 2.25c-.135.053-.617-.871-1.076-2.063a5.35 5.35 0 01-.589-2.251zM8.45 72.326a17.758 17.758 0 012.193 3.686 17.787 17.787 0 011.732 3.925 17.81 17.81 0 01-2.194-3.686 17.902 17.902 0 01-1.732-3.925zM11.106 67.776a6.476 6.476 0 011.4 2.153c.468.727.785 1.54.935 2.39a6.474 6.474 0 01-1.4-2.152 6.493 6.493 0 01-.935-2.391zM6.428 79.8a7.856 7.856 0 011.806 2.62c.568.91.942 1.926 1.1 2.986a13.227 13.227 0 01-1.56-2.747A13.2 13.2 0 016.427 79.8zM5.072 85.867A9.611 9.611 0 016.623 88.6a9.662 9.662 0 011.078 2.952 9.628 9.628 0 01-1.55-2.734 9.651 9.651 0 01-1.079-2.95zM2.9 92.74a18.095 18.095 0 011.7 3.225 18.203 18.203 0 011.5 3.323 10.18 10.18 0 01-1.97-3.094A10.157 10.157 0 012.9 92.74zM1.38 98.684a26.259 26.259 0 011.962 3.772 26.304 26.304 0 011.768 3.868 13.327 13.327 0 01-2.236-3.639 13.266 13.266 0 01-1.494-4z" fill="#EBEBEB"/><path d="M218.435 159.122l1.521-66.65s14.842-2.883 28.066-23.055c8.751-13.349 5.524-27.493 7.206-33.353 1.029-3.583 9.476-2.862 13.178-2.432 3.508.407 9.3 2.36 11.74 7.907 4.514 10.285-1.8 34.894-1.8 34.894s-2.757 5.012 4.26 5.012h25.026a13.626 13.626 0 018.9 3.181 10.124 10.124 0 013.663 8.847c-.752 9.522-5.764 13.782-5.764 15.787 0 2.005 2.757 5.513.752 11.276s-3.257 5.263-3.257 8.019c0 2.756-.5 9.773-2.256 14.033a20.394 20.394 0 01-3.759 6.265s.752 9.021-1.754 14.283c-2.506 5.262-13.03 8.019-16.538 8.019-3.508 0-28.567-5.012-35.584-6.766-7.017-1.754-26.835-8.525-33.6-5.267z" fill="#6A819F"/><path d="M209.474 159.879V92.471s14.841-2.882 28.065-23.054c8.751-13.349 12.7-24.132 14.379-29.993a7.653 7.653 0 018.159-5.575c3.508.408 7.727 1.785 10.162 7.333 4.514 10.285-2.379 35.251-2.379 35.251s-2.756 5.012 4.26 5.012h25.026a13.632 13.632 0 018.9 3.181 10.123 10.123 0 013.662 8.847c-.751 9.522-5.763 13.782-5.763 15.787 0 2.005 2.756 5.513.752 11.276-2.004 5.763-3.258 5.263-3.258 8.019 0 2.756-.5 9.773-2.255 14.033a20.405 20.405 0 01-3.759 6.265s.752 9.021-1.754 14.283c-2.506 5.262-13.031 8.019-16.539 8.019-3.508 0-28.567-5.012-35.583-6.766-7.016-1.754-25.31-7.768-32.075-4.51z" fill="#EBEBEB"/><path d="M239.106 34.6a46.27 46.27 0 01-5.566-4.143 46.375 46.375 0 01-5.241-4.549 46.284 46.284 0 015.567 4.144 46.427 46.427 0 015.24 4.548zM249.772 27.03a17.411 17.411 0 01-1.955-2.5 111.63 111.63 0 01-4.217-6.393 110.926 110.926 0 01-3.784-6.66 17.443 17.443 0 01-1.342-2.878c.622.857 1.178 1.76 1.665 2.7a353.359 353.359 0 003.9 6.566 298.306 298.306 0 004.078 6.458 21.37 21.37 0 011.655 2.706zM259.551.31c.261 3.234.348 6.48.261 9.725.087 3.244 0 6.491-.261 9.726a91.494 91.494 0 01-.26-9.726c-.086-3.244.001-6.49.26-9.726zM282.105 15.533a39.28 39.28 0 01-4.326 4.694 39.243 39.243 0 01-4.695 4.327 39.373 39.373 0 014.327-4.695 39.36 39.36 0 014.694-4.326zM289.154 27.373a25.984 25.984 0 01-3.481 3.849 26.022 26.022 0 01-3.849 3.481 26.06 26.06 0 013.481-3.849 26.094 26.094 0 013.849-3.481z" fill="#1C2E5C"/><path d="M280.676 62.975a11.737 11.737 0 01-1.582 2.015 90.31 90.31 0 01-4.223 4.505 90.593 90.593 0 01-4.507 4.222 11.7 11.7 0 01-2.016 1.582 13.391 13.391 0 011.766-1.852l4.389-4.32 4.32-4.387a13.484 13.484 0 011.853-1.765zM282.024 53.96a8.94 8.94 0 01-1.455 1.828 48.884 48.884 0 01-4.057 3.9c-1.663 1.435-3.207 2.678-4.322 3.58-.573.528-1.2.994-1.87 1.39a52.407 52.407 0 015.85-5.364 105.256 105.256 0 004.136-3.761 12.359 12.359 0 011.718-1.572zM281.338 45.833a6.112 6.112 0 01-1.161 1.51 23.355 23.355 0 01-3.419 3.07c-2.913 2.067-5.123 3.893-5.22 3.8A24.29 24.29 0 01276.445 50c2.855-2.1 4.763-4.286 4.893-4.167zM278.582 39.053a21.764 21.764 0 01-3.432 3.278 21.715 21.715 0 01-3.772 2.882 21.882 21.882 0 013.433-3.278 21.806 21.806 0 013.771-2.882zM273.5 35.054a7.743 7.743 0 01-2.187 1.756 7.734 7.734 0 01-2.473 1.321 7.68 7.68 0 012.186-1.755 7.667 7.667 0 012.474-1.322zM278.722 74.856a24.347 24.347 0 01-3.64 3.463 24.35 24.35 0 01-3.979 3.068 24.42 24.42 0 013.64-3.463 24.414 24.414 0 013.979-3.068zM319.455 98.358a83.192 83.192 0 01-7.519 5.466 83.214 83.214 0 01-7.814 5.036 83.56 83.56 0 017.52-5.466 82.69 82.69 0 017.813-5.036zM319.06 86.931a29.58 29.58 0 01-4.418 3.355 29.723 29.723 0 01-4.714 2.927 29.731 29.731 0 014.419-3.356 29.835 29.835 0 014.713-2.926zM315.626 114.717c.074.133-2.565 1.7-5.68 3.828-3.115 2.128-5.541 4.01-5.638 3.893a7.2 7.2 0 011.459-1.4c.952-.8 2.315-1.854 3.885-2.926a49.758 49.758 0 014.141-2.55 7.194 7.194 0 011.833-.845zM312.712 127.149a50.84 50.84 0 01-5.649 4.564 50.866 50.866 0 01-5.963 4.148 50.746 50.746 0 015.65-4.565 50.727 50.727 0 015.962-4.147zM309.051 143.068a9.533 9.533 0 01-1.668 1.624 62.538 62.538 0 01-4.413 3.465 61.555 61.555 0 01-4.7 3.072 9.382 9.382 0 01-2.072 1.06c.577-.52 1.206-.979 1.876-1.371 1.184-.8 2.817-1.913 4.589-3.184a200.804 200.804 0 004.484-3.328c.587-.51 1.225-.959 1.904-1.338zM305.838 155.992a12.039 12.039 0 01-1.976 1.859c-1.278 1.083-3.1 2.508-5.174 4a84.373 84.373 0 01-5.445 3.624c-.748.514-1.551.942-2.394 1.276a16.727 16.727 0 012.2-1.586 270.22 270.22 0 0010.589-7.6 16.542 16.542 0 012.2-1.573z" fill="#38557D"/><path d="M299.672 49.077a26.214 26.214 0 01-5.208-.26c3.463-.35 6.952-.35 10.415 0a26.22 26.22 0 01-5.207.26zM82.974 103.543a78.765 78.765 0 01-3.976-13c-.947-4.462-.77-9.09.514-13.466.212-.654 2.073-5.063 2.76-5.024.491.027-.6 4.113-.332 4.527a23.35 23.35 0 013.194 13.49 61.439 61.439 0 01-2.16 13.477" fill="#1C2E5C"/><path d="M109.4 127.613c-.1-3.2-.17-5.734-.146-5.735 0 0 10.944-1.571 11.206-12.492.126-5.273-.5-16.153-1.175-25.994a20.351 20.351 0 00-20.069-18.954l-1.054-.013c-11.37.532-17.272 10.486-16.426 21.838l1.695 39.8 8.1 8.875a10.284 10.284 0 0011.493 2.579 10.278 10.278 0 006.372-9.906l.004.002z" fill="#BD8C83"/><path d="M109.32 121.875a26.393 26.393 0 01-14.172-4.37s3.266 8.364 14.176 7.507l-.004-3.137z" fill="#896360"/><path d="M116.518 92.335a1.559 1.559 0 01-1.523 1.557 1.492 1.492 0 01-1.591-1.425 1.562 1.562 0 011.52-1.558 1.498 1.498 0 011.594 1.426zM116.963 87.886c-.2.2-1.367-.688-3.046-.7-1.676-.039-2.918.81-3.1.6-.089-.092.112-.457.653-.842.732-.494 1.6-.75 2.483-.733a4.112 4.112 0 012.421.812c.515.403.685.772.589.863zM100.884 92.507a1.562 1.562 0 01-1.522 1.556 1.49 1.49 0 01-1.592-1.425 1.563 1.563 0 011.521-1.557 1.494 1.494 0 011.593 1.426zM100.515 88.373c-.2.2-1.37-.686-3.047-.7-1.676-.039-2.918.81-3.1.6-.088-.092.111-.457.654-.84a4.278 4.278 0 012.483-.735 4.124 4.124 0 012.422.812c.512.404.683.774.588.863zM106.385 101.34c.888-.266 1.806-.42 2.732-.46.429-.039.836-.119.911-.411a2.177 2.177 0 00-.271-1.274l-1.229-3.278c-1.707-4.667-2.936-8.5-2.748-8.57.188-.07 1.725 3.662 3.431 8.33l1.176 3.3c.263.52.334 1.116.2 1.684a1.06 1.06 0 01-.284.391 1.057 1.057 0 01-.427.227 2.894 2.894 0 01-.73.093c-.918.107-1.846.096-2.761-.032zM100.977 82.706c-.17.454-1.844.222-3.815.44-1.976.178-3.57.739-3.827.328-.115-.2.167-.624.813-1.059a6.675 6.675 0 015.822-.586c.72.299 1.081.661 1.007.877zM116.352 82.235c-.291.384-1.452 0-2.842 0-1.39-.052-2.565.284-2.84-.112-.121-.192.06-.576.571-.942a4.113 4.113 0 014.578.092c.496.383.661.774.533.962z" fill="#1C2E5C"/><path d="M82.6 94.358c-.186-.083-7.479-2.308-7.328 5.162.151 7.47 7.62 5.777 7.63 5.563.008-.214-.302-10.725-.302-10.725z" fill="#BD8C83"/><path d="M80.56 102.3c-.032-.023-.127.093-.345.2a1.298 1.298 0 01-.972.04 3.216 3.216 0 01-1.55-2.859c-.03-.64.081-1.278.328-1.87a1.505 1.505 0 01.959-1.019.664.664 0 01.775.341c.1.207.06.357.1.37.02.017.157-.13.09-.437a.828.828 0 00-.3-.462.98.98 0 00-.722-.175 1.83 1.83 0 00-1.336 1.185 4.425 4.425 0 00-.41 2.091c.08 1.5.879 2.9 1.965 3.188a1.403 1.403 0 001.186-.222c.224-.191.26-.359.233-.371z" fill="#896360"/><path d="M114.158 71.15c1.189-.7-2.552-4.512-5.561-5.773-4.549-1.906-11.44-2.96-15.545-1.666-4.942 1.558-9.01 4.158-11.38 8.766a29.384 29.384 0 00-2.86 15.094A8.916 8.916 0 0080 92.101c1.091 1.62 3.123 2.6 3.1 4.882a3.13 3.13 0 00.843 2.257c1.408 1.414 3.04 0 3.77-1.392 1.555-2.973 1.636-6.47 1.683-9.826a21.857 21.857 0 00-.679-7.089c-.4-1.234-1.023-2.393-1.355-3.648a4.487 4.487 0 01.42-3.744c.177-.228.374-.439.59-.63a7.793 7.793 0 017.683-1.7c4.249 1.365 11.5 3.378 13.329 1.9a11.493 11.493 0 003.245-3.49l1.529 1.528zM108.667 106.536c.047.123-.264.4-.888.57a4.439 4.439 0 01-4.517-1.57c-.381-.523-.456-.93-.343-1 .251-.152 1.143.953 2.71 1.47 1.55.569 2.936.255 3.038.53z" fill="#1C2E5C"/><path d="M115.485 421.088l-4.178 22.361s21.325 11.756 20.955 15.964l-43.646-6.544 5.08-35.107 21.789 3.326z" fill="#FDBC5A"/><path opacity=".3" d="M115.485 421.088l-4.178 22.361s21.325 11.756 20.955 15.964l-43.646-6.544 5.08-35.107 21.789 3.326z" fill="#000"/><path d="M98.094 439.534a1.803 1.803 0 00-1.537 1.849 1.735 1.735 0 001.82 1.541 1.898 1.898 0 001.617-1.967 1.804 1.804 0 00-2.07-1.392" fill="#E0E0E0"/><path d="M88.616 452.869l.65-3.519 41.605 7.59s1.816 1.137 1.391 2.473l-43.646-6.544zM112.048 443.333c-.039.212-1.119.149-2.271.677-1.165.5-1.844 1.34-2.028 1.226-.19-.071.319-1.3 1.724-1.912 1.405-.612 2.65-.18 2.575.009zM116.342 445.913c.018.213-.96.437-1.819 1.23-.882.768-1.211 1.715-1.422 1.674-.205 0-.165-1.267.921-2.232 1.086-.965 2.346-.876 2.32-.672zM118.12 451.781c-.2.017-.337-1.093.385-2.178s1.789-1.4 1.852-1.209c.1.193-.646.723-1.226 1.623-.6.883-.796 1.775-1.011 1.764zM112.434 438.131c-.118.181-1.052-.259-2.269-.358-1.214-.124-2.213.14-2.3-.06-.1-.172.933-.824 2.365-.687 1.432.137 2.334.953 2.204 1.105z" fill="#1C2E5C"/><path d="M101.234 426.437l-.4 22.743s22.983 8.047 23.318 12.257l-44.127.8-.828-35.463 22.037-.337z" fill="#FDBC5A"/><path d="M87.153 447.517a1.801 1.801 0 00-1.21 2.079A1.73 1.73 0 0088 450.812a1.9 1.9 0 001.268-2.208 1.8 1.8 0 00-2.273-1.028" fill="#E0E0E0"/><path d="M80.023 462.242l.057-3.577 42.287.566s1.98.819 1.783 2.206l-44.127.805zM101.543 448.943c0 .215-1.078.333-2.126 1.045-1.066.685-1.6 1.628-1.795 1.546-.2-.038.1-1.332 1.381-2.172 1.281-.84 2.584-.618 2.54-.419zM106.207 450.773c.053.207-.874.591-1.589 1.516-.742.9-.909 1.892-1.124 1.887-.2.037-.374-1.222.537-2.355s2.169-1.254 2.176-1.048zM108.936 456.264c-.2.049-.514-1.022.018-2.212.532-1.19 1.531-1.678 1.625-1.5.125.175-.518.82-.939 1.8-.44.977-.49 1.887-.704 1.912zM101.06 443.749c-.087.2-1.081-.081-2.3.024-1.22.08-2.16.506-2.275.324-.127-.154.784-.968 2.218-1.072 1.434-.104 2.46.553 2.357.724zM70.108 249.845l.586 22.5L77.34 342.2s-2.12 34.027-3.463 53.239c-1.168 16.684 2.2 45.6 2.2 45.6l28.082-.732 7.53-96.92 4.667-60.444 9.479-31.6-55.727-1.498z" fill="#1C2E5C"/><path d="M139.513 254.957l1.77 91.36a38.256 38.256 0 01-2.243 13.675L114.914 427.2l-1.19 4.437-16.883-3.619 8.2-178.174 34.472 5.113z" fill="#1C2E5C"/><path d="M115.976 271.1c.019.145.026.292.021.438 0 .317.006.743.01 1.287 0 1.163-.007 2.824-.012 4.949 0 4.3-.125 10.514-.329 18.194-.447 15.358-1.477 36.563-3.335 59.917-1.82 23.366-3.952 44.464-5.514 59.73-.8 7.608-1.443 13.774-1.893 18.072l-.539 4.911-.153 1.275a2.74 2.74 0 01-.07.432c-.006-.146 0-.293.017-.438l.1-1.282c.1-1.156.252-2.809.442-4.922l1.727-18.093c1.468-15.276 3.541-36.377 5.36-59.734 1.857-23.346 2.945-44.535 3.487-59.883.251-7.675.431-13.888.495-18.184l.111-4.945.042-1.286c-.001-.147.01-.293.033-.438zM91.467 255.614c.02.347-.01.696-.09 1.034a15.698 15.698 0 01-.727 2.737 17.929 17.929 0 01-13.694 11.6c-.93.174-1.873.263-2.819.267a3.53 3.53 0 01-1.035-.081c0-.1 1.48-.043 3.78-.549 3-.644 5.794-2.018 8.135-4.001a18.638 18.638 0 005.283-7.368c.881-2.186 1.07-3.659 1.167-3.639zM117.446 259.2a1.446 1.446 0 11-2.89.074 1.446 1.446 0 012.89-.074zM140.232 269.994a9.085 9.085 0 01-2.028-1.8 22.254 22.254 0 01-5.609-11.7 9.135 9.135 0 01-.137-2.711c.087-.006.173 1.024.5 2.647a25.934 25.934 0 005.523 11.522c1.061 1.266 1.81 1.978 1.751 2.042z" fill="#38557D"/><path d="M44.866 295.557l52.433-20.02 18.1 41-55.42 19.313-15.113-40.293z" fill="#38557D"/><path d="M83.343 296.869c-2.084-1.909-4.836-4.519-4.859-5-.02-.431-.751-3.655-1.392-6.421a2.617 2.617 0 012.935-3.308l3.555-1.367a22.7 22.7 0 00-3.231-4.843c-1.7-1.735-6.461-4.217-6.461-4.217l-.536-6.2-14.187 2.842 2.057 14.24s3.513 13.367 5.089 14.647c1.576 1.28 6 1.893 6 1.893 1.764 2.041 5.359 1.168 5.359 1.168 4.051 2.348 3.808-.6 3.808-.6a.817.817 0 00.421.216c1.658.381 2.691-1.904 1.442-3.05z" fill="#BD8C83"/><path d="M72.992 286.968c-.1.81-.081 1.63.057 2.434A12.611 12.611 0 0074.8 295a11.335 11.335 0 004.5 3.661 7.68 7.68 0 002.223.878 10.772 10.772 0 00-2.008-1.27 12.639 12.639 0 01-4.2-3.628 14.296 14.296 0 01-1.838-5.315 10.918 10.918 0 00-.485-2.358zM69.947 288.594a4.663 4.663 0 00-.067 2.23c.093.8.246 1.592.458 2.369a7.35 7.35 0 001.262 2.716 12.37 12.37 0 002.214 1.928l1.91 1.358c.56.466 1.184.847 1.853 1.131.053-.07-.557-.633-1.584-1.488a61.48 61.48 0 00-1.832-1.469 14.176 14.176 0 01-2.083-1.871 7.503 7.503 0 01-1.192-2.483 22.386 22.386 0 01-.572-2.269c-.268-1.314-.279-2.146-.367-2.152zM66.579 290.755c-.247.059.374 2.449 1.3 5.259.136.388.37.734.679 1.005a9.764 9.764 0 002.229 1.631c.878.464 1.5.566 1.523.488.023-.078-.511-.331-1.292-.871a14.852 14.852 0 01-1.316-1.017 9.732 9.732 0 01-.706-.668 1.94 1.94 0 01-.523-.765 76.951 76.951 0 00-1.27-3.607 6.633 6.633 0 00-.624-1.455z" fill="#896360"/><path d="M121.142 139.682s12.28 6.146 17.1 13.109c4.82 6.963 13.14 19.583 13.14 19.583l11.1-28.828 16.636 7.381s-9.5 34.422-11.257 38.189c-2.431 5.219-8.221 9.894-17.293 9.345-9.072-.549-6.173-.312-12.13-5.89l-8.045-9.384-9.251-43.505z" fill="#FDBC5A"/><path opacity=".3" d="M128.772 166.532a90.045 90.045 0 0010.287 26.576 64.216 64.216 0 01-5.238-5.917c-1.368-1.615-3.312-3.863-3.312-3.863-.524-5.645-1.737-16.8-1.737-16.8" fill="#000"/><path d="M153.337 185.594a7.94 7.94 0 01-.511-2.016 75.142 75.142 0 01-.763-4.947 73.835 73.835 0 01-.449-4.986 7.958 7.958 0 01.012-2.08 69 69 0 01.954 7c.372 2.329.625 4.675.757 7.029z" fill="#1C2E5C"/><path d="M81.659 127.8l-.615-5.952a1.933 1.933 0 011.483-1.888c.28-.068.573-.072.856-.012 7.1 1.513 27.876 6.03 28.121 7.113.148.657.02 5.007-.06 8.63L81.659 127.8zM56.3 143.546s-7.353 5.222-8.618 19.3c-.777 8.64-1.852 64.663-1.852 64.663l11.97 46.66 19.085-4.827-6.774-49.167.66-42.7-14.47-33.929z" fill="#FDBC5A"/><path d="M57.8 274.169c.105-.051.216-.09.33-.115l.984-.28 3.791-1.016 13.93-3.618-.156.232-5.417-37.165-1.42-9.9v-.043c.234-13.41.44-25.2.59-33.693.1-4.193.173-7.568.227-9.94.038-1.133.067-2.025.087-2.675l.035-.692a.873.873 0 01.028-.235.83.83 0 01.022.236c0 .185.01.413.015.693 0 .65.003 1.542.007 2.676l-.064 9.942c-.1 8.49-.242 20.285-.4 33.7v-.043l1.43 9.9 5.281 37.184.027.188-.182.045-13.975 3.439-3.819.908-1 .221a1.488 1.488 0 01-.35.051z" fill="#1C2E5C"/><path d="M82.88 126.252S60.9 137.111 56.3 143.546c-5.58 7.8 9.867 32.752 11.046 38.94.566 2.973 4.248 25.313 2.514 42.935a302.078 302.078 0 00-1.312 35.257l70.968-5.721c0-12.378-3.2-21.929-5.33-37.644l-5.333-51.279-7.708-26.352-10.963-4.636-27.302-8.794z" fill="#FDBC5A"/><path d="M127.548 157.381c.065.174.107.356.124.541l.25 1.565c.205 1.361.479 3.334.8 5.773a770.501 770.501 0 012.236 19.1 765.826 765.826 0 011.776 19.147c.193 2.453.335 4.439.416 5.813l.081 1.583c.022.184.019.371-.009.555a2.112 2.112 0 01-.1-.546l-.185-1.574-.592-5.8c-.5-4.969-1.184-11.693-1.937-19.125l-2.074-19.107-.624-5.793-.146-1.578a2.142 2.142 0 01-.016-.554zM74.1 162.6c-.1 0-.025-1.472-.49-3.766a18.506 18.506 0 00-11.068-13.518c-2.156-.909-3.616-1.122-3.594-1.224.346-.02.693.014 1.028.1.925.169 1.833.424 2.712.76a17.777 17.777 0 0111.308 13.811c.156.928.226 1.868.21 2.809.019.346-.017.693-.106 1.028zM121.847 222.245a6.835 6.835 0 01-1.387-.2 32.912 32.912 0 01-3.7-.926 43.156 43.156 0 01-5.3-2 44.85 44.85 0 01-11.578-7.6 43.216 43.216 0 01-3.945-4.07 33.049 33.049 0 01-2.324-3.029 6.72 6.72 0 01-.733-1.193c.086-.061 1.213 1.582 3.352 3.963a49.285 49.285 0 003.99 3.948 48.257 48.257 0 0011.453 7.515 49.433 49.433 0 005.209 2.091c3.028 1.018 4.984 1.398 4.963 1.501z" fill="#1C2E5C"/><path opacity=".3" d="M70.767 177.479c-4.566 27.209-2.25 55.953 4.774 82.633l1.817-.144c1.478-27.54-1.246-55.432-6.59-82.489zM102.46 223.941a63.01 63.01 0 0023.428 4.757c-1.219 1.84-3.526 2.316-5.729 2.445a18.072 18.072 0 01-6.445-.626c-4.045-1.237-8.8-3.132-11.254-6.576z" fill="#000"/><path d="M111.243 135.528c-.396.126-.806.2-1.221.222a18.045 18.045 0 01-3.384.014 42.222 42.222 0 01-10.771-2.775c-4.07-1.466-7.821-2.679-10.394-3.937a16.54 16.54 0 01-2.92-1.714 5.217 5.217 0 01-.691-.613c-.146-.153-.216-.238-.2-.251.038-.04.348.274 1.012.7.941.594 1.93 1.11 2.955 1.544 2.58 1.158 6.33 2.31 10.417 3.782a47.496 47.496 0 0010.631 2.9c1.518.135 3.043.178 4.566.128z" fill="#1C2E5C"/><path d="M85.724 120.532a23.55 23.55 0 010 4.185 23.47 23.47 0 01-.23 4.179 13.358 13.358 0 01-.29-4.194 13.385 13.385 0 01.52-4.17zM96.168 122.851c.239 1.636.344 3.289.314 4.942.143 1.647.151 3.303.026 4.952a19.488 19.488 0 01-.547-4.935 19.479 19.479 0 01.207-4.959zM108.767 125.987c.395 1.588.541 3.228.433 4.861a15.796 15.796 0 01-.567 4.847 42.053 42.053 0 01.046-4.855 42.25 42.25 0 01.088-4.853z" fill="#1C2E5C"/><path opacity=".3" d="M82.76 127.2c1.534 2.3 3.914 3.442 6.386 4.683a47.267 47.267 0 0010.06 4.014 18.89 18.89 0 0010.7-.259c-4.706-.086-9.288-1.485-13.7-3.139-4.412-1.654-9.082-3.578-13.4-5.285" fill="#000"/><path d="M181.151 129.748l-6.236.881-.728-8.452-1.114-7.435.475-13.033-6.341 7.579a5.878 5.878 0 00-.931 2.729l-.644 22.877-.114 9.785 11.1 6.962-.242-11.641 2.576-2.755c2.577-2.758 2.199-7.497 2.199-7.497z" fill="#BD8C83"/><path d="M205.561 90.951h-25.757v69.223h25.757V90.951z" fill="#EBEBEB"/><path d="M190.87 107.71a5.816 5.816 0 01-6.946 5.7 5.818 5.818 0 01-2.976-1.59 5.818 5.818 0 01-1.259-6.334 5.807 5.807 0 017.593-3.146 5.829 5.829 0 011.886 1.26 5.813 5.813 0 011.702 4.11z" fill="#fff"/><path d="M205.518 101.364a35.68 35.68 0 01-3.253 5.139 35.648 35.648 0 01-3.682 4.844 35.762 35.762 0 013.254-5.141 35.829 35.829 0 013.681-4.842zM205.518 109.022a35.888 35.888 0 01-3.253 5.14 35.7 35.7 0 01-3.682 4.843 35.752 35.752 0 013.254-5.14 35.694 35.694 0 013.681-4.843zM205.518 116.68a35.746 35.746 0 01-3.253 5.14 35.7 35.7 0 01-3.682 4.843 35.807 35.807 0 013.254-5.14 35.776 35.776 0 013.681-4.843zM205.518 124.338a35.746 35.746 0 01-3.253 5.14 35.71 35.71 0 01-3.682 4.844 35.675 35.675 0 013.254-5.141 35.776 35.776 0 013.681-4.843zM205.518 132a35.833 35.833 0 01-3.253 5.14 35.7 35.7 0 01-3.682 4.843 35.762 35.762 0 013.254-5.141 35.704 35.704 0 013.681-4.842zM205.518 139.655a35.833 35.833 0 01-3.253 5.14 35.639 35.639 0 01-3.682 4.843 35.807 35.807 0 013.254-5.14 35.694 35.694 0 013.681-4.843zM205.518 147.313a35.746 35.746 0 01-3.253 5.14 35.7 35.7 0 01-3.682 4.843 35.752 35.752 0 013.254-5.14 35.776 35.776 0 013.681-4.843zM205.448 94.609a35.654 35.654 0 01-3.254 5.14 35.688 35.688 0 01-3.681 4.843 35.752 35.752 0 013.253-5.14 35.645 35.645 0 013.682-4.843zM202.822 90.95a12.602 12.602 0 01-1.838 3.1 12.618 12.618 0 01-2.266 2.806 12.685 12.685 0 011.838-3.1 12.766 12.766 0 012.266-2.806z" fill="#38557D"/><path d="M167.592 119.6a47.563 47.563 0 015-7.177 6.734 6.734 0 012.136-1.869 2.54 2.54 0 012.7.194 2.65 2.65 0 01.444 3.006 10.096 10.096 0 01-1.94 2.59 5.316 5.316 0 00-1.519 2.815 8.727 8.727 0 00.55 2.991 9.81 9.81 0 01-2.557 9.181" fill="#BD8C83"/><path d="M172.4 131.33c-.037-.035.333-.407.86-1.175a10.111 10.111 0 001.529-3.59c.192-.879.259-1.78.2-2.678a13.332 13.332 0 00-.654-3.039 4.72 4.72 0 01-.178-1.788c.094-.63.328-1.231.684-1.759.683-1.072 1.681-1.889 2.364-2.911a3.538 3.538 0 00.638-1.63 1.963 1.963 0 00-.942-2.071 1.972 1.972 0 00-2.267.202 8.76 8.76 0 00-2.215 2.1c-.633.756-1.2 1.476-1.708 2.146a61.378 61.378 0 00-2.28 3.257 8.533 8.533 0 01-.834 1.205c.166-.462.384-.904.65-1.317a39.208 39.208 0 012.148-3.376 45.127 45.127 0 011.668-2.207 8.98 8.98 0 012.321-2.254 3.287 3.287 0 011.777-.446 2.304 2.304 0 011.749.869 3.344 3.344 0 01-.243 3.829c-.755 1.116-1.744 1.918-2.369 2.9a3.746 3.746 0 00-.615 1.532 4.269 4.269 0 00.147 1.594c.332 1.018.539 2.072.618 3.139a9.683 9.683 0 01-.273 2.792 9.53 9.53 0 01-1.736 3.629 6.57 6.57 0 01-.735.811c-.189.168-.292.25-.304.236z" fill="#896360"/><path d="M336.636 222.777c-1.441.8-14.855.957-14.855.957l.538 10.768 26.628 2.6-12.311-14.325z" fill="#FDBC5A"/><path d="M264.939 214.378a4.494 4.494 0 00-.917 2.094c-.014.843 23.334 17.948 28.121 21.446a3.22 3.22 0 001.9.62l32.053-.047.169-2.551S297 215.123 296.438 215.175c-.562.052-31.499-.797-31.499-.797z" fill="#1C2E5C"/><path d="M296.384 216.327c-.437.04-28.292-.384-28.292-.384s21.161 15.9 24.887 18.624c.431.315.95.483 1.483.482l29.58.568-27.658-19.29z" fill="#FAFAFA"/><path d="M321.837 225.3H319.6s-8.125-5.977-8.965-6.164c-.365-.081-6.624-.927-6.624-.927l-7.012 2.7s-.373 1.579 2.428 1.863c2.077.059 4.14-.351 6.036-1.2 0 0 6.252 6.189 8.907 7.667 2.655 1.478 7.818 3.8 7.818 3.8l-.351-7.739z" fill="#FFBE9D"/><path opacity=".3" d="M336.636 222.777c-1.441.8-14.855.957-14.855.957l.538 10.768 26.628 2.6-12.311-14.325z" fill="#000"/><path d="M362.868 361.862l12.8 31-38.49 16.118c-1.314-3.77 15.505-19.491 15.505-19.491l-9.014-19.525 19.199-8.102z" fill="#FDBC5A"/><path opacity=".6" d="M363.886 382.838a1.705 1.705 0 011.838 1.338 1.635 1.635 0 01-1.311 1.834 1.798 1.798 0 01-1.939-1.428 1.7 1.7 0 011.575-1.756" fill="#fff"/><path d="M375.665 392.862l-1.291-3.129-36.493 16.658s-1.4 1.464-.7 2.589l38.484-16.118z" fill="#fff"/><path d="M351.978 389.555c.084.185 1.06-.123 2.238.094 1.183.186 2 .8 2.142.654.158-.109-.593-1.115-2.023-1.353-1.43-.238-2.47.45-2.357.605zM348.64 392.915c.033.2.981.179 1.952.707.987.5 1.508 1.291 1.692 1.2.189-.044-.142-1.2-1.362-1.832-1.22-.632-2.353-.256-2.282-.075zM348.371 398.707c.187-.032.056-1.08-.858-1.907s-1.964-.869-1.978-.679c-.042.2.76.512 1.5 1.2.756.679 1.141 1.445 1.336 1.386zM350.417 384.877c.15.138.9-.482 2-.855 1.085-.395 2.062-.384 2.092-.586.052-.182-1.047-.539-2.327-.082s-1.919 1.414-1.765 1.523zM349.421 379.927a3.926 3.926 0 001.924-.817 9.445 9.445 0 001.757-1.464c.31-.33.598-.682.861-1.051.166-.211.298-.448.391-.7a.885.885 0 00-.332-1.036 1.12 1.12 0 00-1-.085 2.697 2.697 0 00-.681.4 7.352 7.352 0 00-2.318 2.826 3.48 3.48 0 00-.478 2.039c.111.027.3-.743.922-1.807a8.327 8.327 0 011.313-1.688c.299-.292.622-.56.964-.8.363-.278.708-.426.889-.288.067.053.083.078.048.233a2.096 2.096 0 01-.289.511 11.14 11.14 0 01-.775 1.008 11.516 11.516 0 01-1.564 1.495c-.974.768-1.678 1.123-1.632 1.224z" fill="#1C2E5C"/><path d="M349.779 380.094a3.337 3.337 0 00-.272-2.075 6.77 6.77 0 00-2.127-2.965 1.74 1.74 0 00-1.638-.458.981.981 0 00-.58.875c-.004.267.03.532.1.789a4.8 4.8 0 002.199 2.946c1.17.683 2.048.579 2.037.508a16.482 16.482 0 01-1.76-.926 4.811 4.811 0 01-1.369-1.556 4.298 4.298 0 01-.431-1.128c-.111-.435-.1-.829.075-.851a1.205 1.205 0 01.939.349c.33.254.636.537.915.845.475.53.871 1.125 1.178 1.767.525 1.106.619 1.894.734 1.88z" fill="#1C2E5C"/><path d="M320.141 374.462l11.273 31.586-39.225 14.226c-1.13-3.83 16.435-18.713 16.435-18.713l-8.054-19.941 19.571-7.158z" fill="#FDBC5A"/><path opacity=".6" d="M320.136 395.462a1.7 1.7 0 011.771 1.427 1.639 1.639 0 01-1.4 1.767 1.8 1.8 0 01-1.868-1.52c-.008-.838.831-1.8 1.659-1.678" fill="#fff"/><path d="M331.414 406.048l-1.137-3.189-37.261 14.864s-1.471 1.393-.827 2.551l39.225-14.226z" fill="#fff"/><path d="M307.916 401.592c.075.189 1.065-.071 2.23.2 1.174.243 1.96.9 2.109.757.163-.1-.538-1.143-1.955-1.45-1.417-.307-2.49.332-2.384.493zM304.419 404.786c.023.2.971.226 1.915.8.961.546 1.443 1.362 1.631 1.285.191-.036-.084-1.205-1.271-1.9-1.187-.695-2.338-.371-2.275-.185zM303.868 410.557c.189-.022.108-1.076-.764-1.946-.872-.87-1.92-.963-1.943-.774-.051.2.735.548 1.44 1.274.722.709 1.07 1.497 1.267 1.446zM306.584 396.844c.144.145.927-.438 2.036-.757 1.1-.342 2.077-.284 2.118-.484.06-.179-1.02-.589-2.321-.2-1.301.389-1.981 1.325-1.833 1.441zM305.83 391.851a3.91 3.91 0 001.961-.723 9.325 9.325 0 001.827-1.377 9.88 9.88 0 00.911-1.007c.176-.202.32-.431.425-.678a.887.887 0 00-.282-1.05 1.112 1.112 0 00-1-.134c-.25.089-.486.213-.7.369a7.38 7.38 0 00-2.45 2.708 3.485 3.485 0 00-.577 2.014c.11.032.335-.728 1.009-1.76a8.401 8.401 0 011.394-1.622 7.746 7.746 0 011-.757c.376-.26.728-.391.9-.245.064.057.079.083.037.236a2.117 2.117 0 01-.314.495c-.255.339-.53.663-.823.97-.5.522-1.047.996-1.635 1.416-.587.342-1.15.724-1.683 1.145z" fill="#1C2E5C"/><path d="M306.179 392.035a3.33 3.33 0 00-.169-2.085 6.788 6.788 0 00-1.981-3.065 1.733 1.733 0 00-1.614-.538.984.984 0 00-.621.846c-.018.266.002.533.059.793a4.796 4.796 0 002.054 3.049c1.135.738 2.017.677 2.01.606a16.649 16.649 0 01-1.713-1.01 4.8 4.8 0 01-1.291-1.621 4.259 4.259 0 01-.376-1.148c-.09-.44-.056-.832.116-.847a1.206 1.206 0 01.92.395c.317.269.609.567.873.888a7.514 7.514 0 011.092 1.823c.471 1.131.527 1.922.641 1.914zM335.861 105.444c-1.511 1.295-1.89 3.5-1.727 5.482.163 1.982.761 3.922.8 5.912.077 3.856-1.942 7.525-1.869 11.381.075 3.874 2.245 7.432 2.609 11.289.344 3.647 4.572 6.383 3.664 9.931-.908 3.548-6.915 8.345-5.138 11.547a3.02 3.02 0 001.438 1.453 3.664 3.664 0 001.979-.007l9.214-1.744a5.98 5.98 0 003.159-1.266 5.535 5.535 0 001.284-3.532c.752-7.731-1.05-15.449-2.031-23.155a110 110 0 01-.078-27.1" fill="#1C2E5C"/><path d="M336.607 115.3a17.903 17.903 0 0116.822-17.7 17.387 17.387 0 0116.871 10.187 17.391 17.391 0 011.541 6.765l-.418 39.159a3.405 3.405 0 01-.745 2.081 15.962 15.962 0 01-10.6 5.766 16.73 16.73 0 01-10.126-2.853 3.34 3.34 0 01-1.487-2.973l.455-8.741a.046.046 0 00-.003-.023.045.045 0 00-.011-.019.052.052 0 00-.019-.014.054.054 0 00-.022-.005c-.82.005-1.639-.076-2.443-.24-2.269-.725-7.995-3.4-9.361-12.176-.45-2.914-.543-11.09-.454-19.214z" fill="#FFBE9D"/><path d="M348.532 128.948a10.382 10.382 0 00-2.509-.446c-.394-.041-.768-.118-.832-.383a1.948 1.948 0 01.27-1.15l1.185-2.954c1.646-4.206 2.841-7.664 2.668-7.727-.173-.063-1.647 3.295-3.294 7.5l-1.136 2.972a2.21 2.21 0 00-.213 1.522.976.976 0 00.645.568c.219.059.444.09.67.092.845.108 1.701.11 2.546.006zM339 121.963a1.414 1.414 0 001.377 1.426 1.377 1.377 0 001.345-.75 1.38 1.38 0 00.144-.522 1.416 1.416 0 00-1.376-1.427 1.379 1.379 0 00-1.49 1.273zM339.375 118.5c.155.238 1.337-.653 2.88-.534 1.543.092 2.582 1.135 2.772.919.092-.1-.049-.516-.5-.986a3.416 3.416 0 00-2.191-1.015 3.465 3.465 0 00-2.32.706c-.516.41-.716.81-.641.91zM353.637 122.141a1.414 1.414 0 001.377 1.426 1.379 1.379 0 001.345-.751c.083-.163.131-.34.144-.522a1.413 1.413 0 00-1.376-1.426 1.365 1.365 0 00-.538.061 1.36 1.36 0 00-.808.69c-.082.162-.131.34-.144.522zM354.211 119.044c.2.216 1.334-.834 3-.934 1.665-.126 2.933.762 3.1.521.084-.107-.128-.5-.683-.907a3.878 3.878 0 00-4.873.329c-.487.474-.643.895-.544.991z" fill="#1C2E5C"/><path d="M348.926 146.927s5.968.486 13.462-3.921c0 0-2.4 7.755-13.61 6.717l.148-2.796zM349.164 132.611a2.83 2.83 0 012.5-1.015 2.536 2.536 0 011.752.927 1.562 1.562 0 01.112 1.812 1.905 1.905 0 01-2.031.5 5.84 5.84 0 01-1.969-1.161 1.69 1.69 0 01-.439-.449.504.504 0 01.006-.566" fill="#EB996E"/><path d="M353.077 130c-.251-.015-.264 1.635-1.708 2.8-1.444 1.165-3.229.987-3.243 1.218-.025.1.4.321 1.151.341a4.24 4.24 0 002.707-.923 3.575 3.575 0 001.324-2.351c.069-.685-.116-1.092-.231-1.085zM353.643 113.656c.144.416 1.692.243 3.5.486 1.815.207 3.267.751 3.516.384.111-.176-.137-.568-.72-.977a6.24 6.24 0 00-5.345-.663c-.671.253-1.013.573-.951.77zM339.528 113.619c.291.328 1.334-.094 2.612-.188 1.275-.138 2.374.089 2.6-.286.1-.182-.09-.517-.581-.815a3.847 3.847 0 00-4.2.383c-.431.381-.559.745-.431.906z" fill="#1C2E5C"/><path d="M352.2 95.549a5.243 5.243 0 014.136-1.969c6.9-.554 14.239 4.1 17.661 10.115 3.422 6.015 3.023 14.614-.223 20.731l-2.593.268c-5.314-.7-13.244-16.193-20.149-24.931-.863-1.086.38-3.073 1.168-4.214z" fill="#1C2E5C"/><path d="M338.8 99.11c3.086-3.05 8.006-6.687 13.779-4.011.757 1.723-1.155 3.754-2.713 4.91-2.281 1.693-4.249 2.807-5.753 4.028-3.042 2.468-6.889 6.635-7.513 11.511-.039.306-.277.334-.582.265-.395-.09-1.174-2.153-1.458-4.845-.601-5.741 1.158-8.81 4.24-11.858z" fill="#1C2E5C"/><path d="M369.7 121.46c.165-.075 6.65-2.127 6.584 4.538-.066 6.665-6.743 5.224-6.753 5.032-.01-.192.169-9.57.169-9.57z" fill="#FFBE9D"/><path d="M371.589 128.525c.029-.021.115.083.311.175.275.121.586.13.867.026a2.862 2.862 0 001.355-2.564 3.829 3.829 0 00-.308-1.666 1.335 1.335 0 00-.865-.9.59.59 0 00-.688.312c-.092.185-.051.319-.086.33-.019.017-.142-.113-.085-.388a.744.744 0 01.266-.415.88.88 0 01.643-.163 1.625 1.625 0 011.2 1.045c.278.58.41 1.219.384 1.862a3.016 3.016 0 01-1.722 2.861 1.237 1.237 0 01-1.06-.187c-.201-.167-.235-.316-.212-.328z" fill="#EB996E"/><path d="M288.308 154.434l-9.8 5.06-3.932-6.6a31.399 31.399 0 01-5.16-3.71l-3.493-3.951a3.622 3.622 0 01-.879-3.171c.029-.232.135-.448.3-.614l.971-1.707s-.536-2.428-.686-3.964c-.142-1.463 1.141-4.344 1.141-4.344l-3.659-7.838a2.018 2.018 0 01.3-2.218.855.855 0 01.908-.322c.111.03.214.081.304.151 1.249.843 4.891 7.181 4.891 7.181l1.352 1.307 1.726.278s-.512-2.44.542-2.99l4.988 3.6 4.12 5.773s.815 8.342 1.911 10.567c1.096 2.225 4.155 7.512 4.155 7.512z" fill="#FFBE9D"/><path d="M269.477 137.608a13.435 13.435 0 01-2.713-6.211c.092-.024.5 1.443 1.251 3.152.751 1.709 1.541 3.008 1.462 3.059zM267.113 141.586a3.754 3.754 0 01-.787-1.715 5.231 5.231 0 01-.348-1.851c.307.55.528 1.143.654 1.76.208.588.369 1.192.481 1.806zM268.673 126.952a16.44 16.44 0 011.155 1.575 99.799 99.799 0 004.455 5.773 6.469 6.469 0 001.5 1.421 3.196 3.196 0 001.813.483.978.978 0 01-.524.1 2.854 2.854 0 01-1.4-.39 6.246 6.246 0 01-1.611-1.425 52.785 52.785 0 01-1.655-2.006 50.435 50.435 0 01-2.762-3.831 9.256 9.256 0 01-.971-1.7z" fill="#EB996E"/><path d="M276.436 135.576c-.051.01-.142-.474-.449-1.189a6.908 6.908 0 00-1.749-2.433 8.949 8.949 0 01-1.269-1.161 2.525 2.525 0 01-.542-1.334 2.779 2.779 0 01.075-1.294c.057 0 .013.5.147 1.258.072.436.261.844.546 1.181.387.404.807.775 1.254 1.111a6.23 6.23 0 011.748 2.59c.175.4.256.835.239 1.271z" fill="#EB996E"/><path d="M384.246 231.549v-17.324s1.86-26.987 1.86-35.306c0-8.319-9.8-26.744-9.8-26.744l-16.055.483-11.819.261c-.121 0-19.523 18.8-19.523 18.8a55.327 55.327 0 00-3.3 24.325c.283 2.289.74 4.553 1.369 6.771l4.17 16.321s2.337 10.881 3.142 14.659c.633 2.972 33.632 1.544 47.982 1.274 3.428-.069 1.974-3.52 1.974-3.52z" fill="#FDBC5A"/><path d="M285.77 146.971s20.589 29.44 21.3 29.44c.711 0 24.779-16.955 24.779-16.955s10.537-7.813 16.918-6.394c6.381 1.419-1.8 29.579-1.8 29.579s-32.974 18.766-44.083 19.712c-11.109.946-25.451-43.5-25.451-43.5l-1.893-2.54 10.23-9.342z" fill="#FDBC5A"/><path d="M343.272 184.545a2.789 2.789 0 01-.529.337l-1.564.877-5.8 3.138-4.016 2.145c-.73.377-1.449.8-2.261 1.172a12.58 12.58 0 00-2.332 1.217 2.471 2.471 0 00-1.1 2.225c.043.964.177 1.923.4 2.862.407 1.95 1.027 3.918 1.488 6.016 1.735 8.3 3.854 15.7 5.17 21.111.67 2.7 1.171 4.9 1.492 6.423l.35 1.759c.052.203.081.411.086.621a2.881 2.881 0 01-.188-.6l-.445-1.736-1.652-6.377c-1.4-5.38-3.582-12.766-5.323-21.1-.449-2.049-1.072-4.044-1.477-6.016a15.626 15.626 0 01-.4-2.967 2.996 2.996 0 01.315-1.5c.243-.441.582-.822.993-1.113l8.727-4.476 5.873-2.992 1.609-.79c.186-.1.381-.179.584-.236zM306.31 187.282a16.22 16.22 0 01.728-10.947c.153.048-.609 2.417-.8 5.445-.212 3.02.23 5.475.072 5.502z" fill="#1C2E5C"/><path d="M301.754 185.594a10.194 10.194 0 011.652-5.171 11.05 11.05 0 013.662-4.012 47.198 47.198 0 00-3.213 4.276 34.139 34.139 0 00-2.101 4.907zM349.419 176.835c-.092-.022.217-1.221.385-3.192a23.666 23.666 0 00-3.638-14.7c-1.068-1.665-1.9-2.581-1.829-2.644.026-.025.252.186.641.591a15.241 15.241 0 011.494 1.848 21.585 21.585 0 013.7 14.947 15.17 15.17 0 01-.46 2.332 2.78 2.78 0 01-.293.818z" fill="#1C2E5C"/><path opacity=".3" d="M381.28 163.568c-.94-1.653-2.029-3.382-1.925-5.281l-20.117 4.523c-.884 2.153.022 4.709 1.619 6.4a17.952 17.952 0 005.889 3.661c2.611 1.179 5.444 2.363 8.254 1.8a12.038 12.038 0 005.124-2.807 6.804 6.804 0 002.342-2.9c.604-1.796-.246-3.742-1.186-5.396zM326.8 192.99l-.727.86a17.38 17.38 0 0020.534-12.509c-6.7 4.87-12.101 8.618-19.807 11.649zM307.068 176.411c-4.148 1.584-8.267 5.982-8.722 10.4-.067.41-.033.829.1 1.222a.999.999 0 00.947.665c.623-.056.9-.792 1.063-1.4a27.075 27.075 0 016.617-10.891l-.005.004z" fill="#000"/><path d="M392.42 156.472a10.364 10.364 0 01-5-10.563c.43-2.432 1.731-4.615 2.494-6.965.763-2.35.879-5.2-.785-7.023-1.009-1.107-2.493-1.639-3.686-2.545a9.423 9.423 0 01-3.157-5.047c-.1-1.917.03-3.893-.046-5.81a24.256 24.256 0 00-20.13-22.955l-10.491 3.785a26.838 26.838 0 005.971 12.981 56.898 56.898 0 014.673 5.493c1.309 2.019 2.074 4.587 1.254 6.849-.723 2-2.552 3.448-3.248 5.456-1.371 3.958 2.115 8.162 1.465 12.3a8.671 8.671 0 01-1.438 3.406c-.878.348-1.78.629-2.7.843a19.398 19.398 0 00-5.393 1.805 5.341 5.341 0 00-2.859 4.614 85.338 85.338 0 0113.367.065c-3.012 3.983-5.306 11.274-4.416 12.165 1.175 1.176 9.583 3.183 11.24 3.31 6.954.535 5.524-4.091 12.444-4.967a3.642 3.642 0 002.068-.719 3.442 3.442 0 00.664-3.006c-.245-1.983-.773-3.976-1.164-5.957a10.653 10.653 0 008.873 2.485z" fill="#1C2E5C"/><path d="M361.1 162.693a.525.525 0 01-.055-.172 3.698 3.698 0 01-.1-.522 5.908 5.908 0 01.112-2.036 10.375 10.375 0 011.239-2.98 35.2 35.2 0 012.445-3.484 15.627 15.627 0 002.457-4.409c.285-.88.37-1.812.248-2.729a7.045 7.045 0 00-1.106-2.7c-.545-.868-1.193-1.718-1.747-2.683a5.995 5.995 0 01-.906-3.3 7.965 7.965 0 011.04-3.375c.553-1.048 1.205-2.043 1.774-3.082a9.131 9.131 0 001.129-6.576 16.18 16.18 0 00-2.482-5.876c-1.129-1.725-2.4-3.237-3.554-4.679a42.705 42.705 0 01-3.057-4.16 14.847 14.847 0 01-2.426-7.031 9.416 9.416 0 01.137-2.032c.038-.234.1-.463.185-.685a14.229 14.229 0 00-.12 2.705 15.128 15.128 0 002.535 6.847 44.128 44.128 0 003.081 4.083 58.21 58.21 0 013.62 4.688 16.516 16.516 0 012.583 6.048c.225 1.16.251 2.35.075 3.519a10.26 10.26 0 01-1.249 3.4c-1.147 2.1-2.663 4.027-2.762 6.227a5.51 5.51 0 00.83 3.032c.525.927 1.167 1.779 1.722 2.675a7.512 7.512 0 011.151 2.888 6.59 6.59 0 01-.289 2.924 15.747 15.747 0 01-2.575 4.5 37.619 37.619 0 00-2.49 3.412 10.569 10.569 0 00-1.291 2.878 7.583 7.583 0 00-.154 2.685z" fill="#38557D"/><path d="M334.642 243.352l-4.337-.282c-1.753 2.111-2.834 4.72-4.623 6.8a17.126 17.126 0 01-7.351 4.733 51.056 51.056 0 01-8.607 1.977 9.96 9.96 0 00.372 2.72 3.346 3.346 0 001.706 2.061 4.75 4.75 0 002.521.157 47.432 47.432 0 0013.138-3.666c2.274-1.006 4.561-2.275 5.93-4.35 1.918-2.902 1.62-6.688 1.251-10.15zM308.294 299.178c.76.9 36.809 83.2 36.809 83.2s24.408-10.246 23.806-11.15c-.602-.904-29.119-74.251-29.119-74.251l-31.496 2.201z" fill="#1C2E5C"/><path d="M383.457 234.925l-48.618-.3-.65 10.732c-2.7 6.148-5.309 9.288-8.917 10.46-14.759 4.795-52.475 17.191-57.927 20.4-6.8 4-5.816 14.53-6.616 21.732-.8 7.202 39.5 96.434 39.5 96.434l27.9-11.907-22.769-72.65-1.6-9.2 77.152-1.112s14.7-3.683 14.3-24.088c-.4-20.405-11.755-40.501-11.755-40.501z" fill="#1C2E5C"/><path d="M371.2 270.381c.165.458.278.933.337 1.416a22.05 22.05 0 01.309 3.958 24.5 24.5 0 01-12.946 21.484 22.145 22.145 0 01-3.645 1.575 6.59 6.59 0 01-1.409.364 45.525 45.525 0 004.875-2.261 25.112 25.112 0 0012.759-21.17 45.153 45.153 0 00-.28-5.366z" fill="#FDBC5A"/><path d="M335.036 236.168c-1.03-.908-3.972-.546-5.047.307a3.907 3.907 0 00-1.289 3.7 5.475 5.475 0 002.213 3.355c1.205.886 2.95 1.328 4.17.463a3.283 3.283 0 001.232-2.258 9.725 9.725 0 00-.117-2.633 5.843 5.843 0 00-.682-2.39 2.005 2.005 0 00-2.116-.989" fill="#38557D"/><path d="M385.407 234.2c3.132 7.684 6.274 15.4 8.29 23.449 2.016 8.049 2.879 16.5 1.4 24.665-1.03 5.674-2.433 12.3-7.319 15.359 0 0-1.817 1.869-6.05 2.091-9.081.477-25.409.2-34.5-.133-4.388-.158-10.012.415-14.4.257 13.252-11.568 21.056-30.99 18.124-48.335-.451-2.666-1.253-5.522-3.435-7.12-1.946-1.425-4.527-1.512-6.935-1.652-2.408-.14-3.041.465-5.217.465-3.331 0-2.861-8.02-.525-8.621l50.567-.425z" fill="#1C2E5C"/><path d="M375.639 270a7.515 7.515 0 01-.392 1.372c-.277.876-.741 2.122-1.37 3.639a66.276 66.276 0 01-14.221 21.205c-1.165 1.158-2.141 2.061-2.846 2.649-.345.33-.72.626-1.121.884.295-.374.624-.72.984-1.033a86.712 86.712 0 002.719-2.757 75.04 75.04 0 0014.147-21.094 86.901 86.901 0 001.518-3.563c.152-.451.347-.887.582-1.302zM380 283.27a3.8 3.8 0 01-.536.856c-.369.534-.942 1.279-1.681 2.173a50.675 50.675 0 01-13.861 11.58c-1.011.569-1.846 1-2.437 1.267a3.645 3.645 0 01-.938.375c-.038-.074 1.225-.748 3.188-1.959a61.93 61.93 0 0013.769-11.5c1.543-1.72 2.431-2.843 2.496-2.792z" fill="#1C2E5C"/><path d="M390.064 299.648c0 .144-12.224.261-27.3.261s-27.3-.117-27.3-.261c0-.144 12.221-.26 27.3-.26s27.3.117 27.3.26zM363.586 250.755c-.064.074-1.232-.985-3.338-2.38a33.807 33.807 0 00-3.848-2.19 33.362 33.362 0 00-10.345-3.082 34.177 34.177 0 00-4.419-.272c-2.526.016-4.083.263-4.1.166.35-.124.713-.204 1.082-.24a22.612 22.612 0 013.006-.294 29.602 29.602 0 014.485.164 31.064 31.064 0 0110.5 3.127 29.783 29.783 0 013.843 2.317 22.545 22.545 0 012.356 1.891c.291.232.552.498.778.793zM370.754 247.557a9.964 9.964 0 01-2.356-.313 71.471 71.471 0 01-5.576-1.311 70.05 70.05 0 01-5.458-1.74 9.928 9.928 0 01-2.182-.943c.785.119 1.556.318 2.3.594 1.4.416 3.334.992 5.481 1.587s4.1 1.092 5.517 1.454c.779.147 1.541.372 2.274.672zM335.623 243.507a2.66 2.66 0 01-1.55-.673 5.027 5.027 0 01-1.816-5.595 5.024 5.024 0 011.034-1.805c.713-.8 1.354-1.032 1.374-.982.05.074-.5.414-1.087 1.213a5 5 0 00.728 6.887c.742.655 1.35.873 1.317.955z" fill="#1C2E5C"/><path d="M332.755 240.1c-.022.149-.848.114-1.738.51-.9.376-1.441 1-1.564.915-.128-.057.3-.943 1.357-1.393 1.057-.45 1.99-.159 1.945-.032z" fill="#1C2E5C"/><path d="M335.649 243.761c.022.008-.042.266-.393.554a2.69 2.69 0 01-1.779.512 5.299 5.299 0 01-2.6-.847 4.99 4.99 0 01-2.09-2.628 4.66 4.66 0 01.159-3.359 3.979 3.979 0 011.942-1.944 3.602 3.602 0 011.81-.35c.436.04.658.142.651.169a5.078 5.078 0 00-2.295.51 3.743 3.743 0 00-1.67 1.81 4.32 4.32 0 00-.1 3 4.667 4.667 0 001.859 2.389 5.245 5.245 0 002.362.88 2.713 2.713 0 001.641-.309c.34-.204.464-.415.503-.387z" fill="#1C2E5C"/><path opacity=".3" d="M367.273 254.724l-.013-.04a7.984 7.984 0 00-2.439-3.295c-6.1-5.567-15.734-9.563-23.354-8.54 4.569.177 11.772 2.7 15.341 5.554a53.61 53.61 0 017.579 7.788 1.66 1.66 0 002.034.428 1.653 1.653 0 00.852-1.895zM379.531 283.987c-4.68 6.323-11.816 11.751-18.763 15.419 4.091-.752 9.242-1.758 12.629-4.154 3.578-2.531 6.575-6.906 6.134-11.265z" fill="#000"/><path d="M153.765 461.638l5.938-.09 13.12-115.223-5.85-.672-13.208 115.985zM188.581 461.638l5.938-.09 13.12-115.223-5.85-.672-13.208 115.985zM293.527 461.854l-5.937-.09L274.47 347.6l5.85-.672 13.207 114.926zM255.239 461.854l-5.937-.09L236.181 347.6l5.85-.672 13.208 114.926z" fill="#38557D"/><path d="M163.012 365.414h119.837v-12.415H163.012v12.415z" fill="#38557D"/><path d="M239.894 214.574l-75.924.938L163.012 353l87.18 1.191-10.298-139.617z" fill="#38557D"/><path d="M273.893 268.373c-.4-2.657-8.342-11.447-8.342-11.447s-3.972-15.943-5.164-20.645a15.624 15.624 0 00-1.727-3.851 31.035 31.035 0 00-11.6-11.187l-10.995-6.183-2.631-5.854-28.255-5.033-5.7 6.543s-21.33 8.1-24.13 10.557c-3.435 3.016 5.947 53.337 5.947 53.337s-7.28 30.538-8.815 36.856c-1.535 6.318.675 15.2.675 15.2l14.456-13.818c4.025-5.051 11.183-11.154 17.53-11.064l54.25.24-2.158-15.2 43.863 8.531s7.548-14.717 8.144-15.014c.596-.297-35.348-11.968-35.348-11.968z" fill="#FDBC5A"/><path d="M205.579 211.956c-.381-.388 3.378 12.533 7.7 24.386a58.321 58.321 0 013.5 19.983v42.919l26.012-1.767L238.9 269.2s-3.171-18.238-4.059-25.174c-.812-6.351-3.614-25.678-3.614-25.678s-14.757 4.699-25.648-6.392z" fill="#fff"/><path d="M263.61 279.038a1.642 1.642 0 010-.655 9.73 9.73 0 01.342-1.749 11.75 11.75 0 018.014-8.03 9.64 9.64 0 011.748-.346c.216-.043.439-.043.655 0 .011.081-.912.179-2.3.663a12.483 12.483 0 00-7.8 7.814c-.482 1.391-.579 2.314-.659 2.303zM264.95 268.74a10.413 10.413 0 018.077-.664c-.028.141-1.837-.21-4.067-.016-2.232.173-3.96.815-4.01.68z" fill="#1C2E5C"/><path opacity=".3" d="M178.68 292.159l-2.257 2.56a18.236 18.236 0 009.164 6.06 46.659 46.659 0 0011.056 1c1.504.07 3.009-.074 4.472-.426 1.471-.424 2.844-1.26 4.372-1.351 1.027.007 2.048.152 3.035.433a5.909 5.909 0 003.039.049 2.401 2.401 0 001.769-2.243 160.249 160.249 0 00-34.65-6.082z" fill="#000"/><path d="M252.932 295.442l-6.382-6.779-13.128-3.321s-12.03 3.6-12.318 3.593c-.288-.007-10.469-2.782-10.469-2.782l-3.559 13.047 18.338 1.257 20.939-.839s1.092-1.017.444-1.712c-.648-.695 3.5 1.176 3.989 1.2.489.024 1.436.4 2.082-.385.441-.53 1.04-2.243.064-3.279z" fill="#FFBE9D"/><path d="M246.8 297.911a11.439 11.439 0 01-2.086-.593 96.585 96.585 0 00-5-1.449 97.215 97.215 0 00-5.084-1.14 11.264 11.264 0 01-2.112-.492 8.904 8.904 0 012.167.164c1.733.24 3.451.578 5.146 1.011 1.696.432 3.366.964 5 1.591.691.22 1.353.525 1.969.908zM252.932 295.442a27.82 27.82 0 01-2.912-.94c-1.788-.6-4.285-1.341-7.062-2.116a37.105 37.105 0 00-7.118-1.758 17.452 17.452 0 00-3.023.118c.245-.134.511-.223.787-.265a8.636 8.636 0 012.256-.186c2.466.253 4.892.803 7.226 1.637 2.779.776 5.278 1.569 7.046 2.256.886.339 1.591.64 2.073.862.261.094.506.226.727.392z" fill="#EB996E"/><path d="M175.355 221.273s-4.659 3.056-6.961 12.533c-2.302 9.477-12.278 48.175-10.232 53.967 2.046 5.792 41.838 11.471 41.838 11.471l4.715-19.895-20.208-5.529s.256-18.427.512-26.062c.256-7.635-9.664-26.485-9.664-26.485z" fill="#FDBC5A"/><path d="M204.452 282.316l6.512 1.6-3.917 15.017-6.4-1.025 3.805-15.592z" fill="#fff"/><path d="M158.013 285.725c.033 0-.019.331.1.937a4.41 4.41 0 001.387 2.259c1.729 1.61 5.031 2.951 9.22 3.705h.014l.016.006c1.914.628 4.094 1.128 6.425 1.656a386.26 386.26 0 007.49 1.6 1072.35 1072.35 0 0017.36 3.383l-.27.175c.449-1.845.924-3.8 1.406-5.775 1.117-4.565 2.2-8.988 3.224-13.18l.159.273-17.961-5.127h-.02a17.75 17.75 0 00-7.834-1.372 17.32 17.32 0 00-5.911 1.388 19.989 19.989 0 00-3.4 1.882l-.823.6c-.089.075-.187.14-.291.193.077-.087.163-.166.257-.236.178-.146.435-.373.794-.644a18.325 18.325 0 013.376-1.984 17.24 17.24 0 015.978-1.492c2.73-.173 5.464.28 7.992 1.326l-.02-.007 17.984 5.043.211.059-.052.214c-1.02 4.194-2.1 8.617-3.208 13.184l-1.409 5.774-.053.216-.218-.041a882.746 882.746 0 01-17.359-3.433 355.62 355.62 0 01-7.488-1.64c-2.336-.54-4.5-1.061-6.452-1.722l.03.008c-4.234-.806-7.546-2.2-9.291-3.895a4.396 4.396 0 01-1.355-2.368 2.744 2.744 0 01-.008-.965z" fill="#1C2E5C"/><path d="M185.6 275.14c-.056.059-.73-.559-1.944-1.372a18.57 18.57 0 00-10.762-3.135c-1.461.034-2.362.194-2.377.114a7.427 7.427 0 012.36-.447 16.48 16.48 0 0110.971 3.2 7.422 7.422 0 011.752 1.64z" fill="#1C2E5C"/><path d="M188.25 242.725c.045.403.049.809.013 1.213-.017.781-.085 1.907-.191 3.3a121.88 121.88 0 01-1.364 10.813 75.343 75.343 0 01-2.51 10.615c-.222.663-.45 1.254-.646 1.774l-.578 1.3c-.17.369-.378.72-.62 1.047.113-.388.265-.764.453-1.122l.5-1.322c.17-.525.374-1.118.574-1.782a93.59 93.59 0 002.363-10.594c.724-4.181 1.19-8 1.5-10.765l.34-3.279c.014-.404.07-.805.166-1.198zM211.328 232.528c-.031.008-.094-.228-.314-.618a3.837 3.837 0 00-1.36-1.372 3.618 3.618 0 00-3.274-.281 3.622 3.622 0 00-2.156 2.481l-.126.6-.277-.55a55.997 55.997 0 01-2.768-6.449 31.525 31.525 0 01-2.045-11.4c0-.744.113-1.412.159-2 .11-.583.191-1.085.289-1.49.094-.423.228-.836.4-1.234a26.924 26.924 0 00-.516 4.729 33.684 33.684 0 002.16 11.256 61.866 61.866 0 002.707 6.419l-.4.044a3.972 3.972 0 012.8-2.831 3.891 3.891 0 013.2.514 3.661 3.661 0 011.338 1.514c.076.157.133.323.172.493.015.112.022.172.011.175zM233.4 234.5a6.696 6.696 0 01-.209-1.077 11.247 11.247 0 01-.192-3.036 6.358 6.358 0 012.184-4.01 4.151 4.151 0 012.632-.945 3.578 3.578 0 012.771 1.239l-.4.229-.86-2.164a881.78 881.78 0 01-4.26-10.947l-1.24-3.336a6.93 6.93 0 01-.394-1.245 7 7 0 01.566 1.181l1.381 3.284c1.147 2.78 2.7 6.633 4.389 10.9l.855 2.165.552 1.4-.952-1.169a3.159 3.159 0 00-2.412-1.087 3.748 3.748 0 00-2.373.823 6.14 6.14 0 00-2.132 3.727c-.098.99-.08 1.987.052 2.973.059.362.073.73.042 1.095zM250.2 236.745c.129-.018 2.175 13.749 4.57 30.744 2.395 16.995 4.232 30.795 4.1 30.813-.132.018-2.175-13.745-4.57-30.747-2.395-17.002-4.231-30.791-4.1-30.81z" fill="#1C2E5C"/><path opacity=".3" d="M201.331 225.891a28.387 28.387 0 002.255 10.225c.986-1.217 2.079-2.505 3.579-2.864 1.87-.448 3.761.709 5.113 2.113a9.281 9.281 0 00-1.633-3.907 4.574 4.574 0 00-3.589-1.876 3.18 3.18 0 00-3.022 2.464l-2.6-6.1" fill="#000"/><path d="M186.039 235.841c-.087 0-.058-.948-.332-2.428a14.774 14.774 0 00-2.2-5.385 15.909 15.909 0 00-2.069-2.461 14.039 14.039 0 00-2.076-1.615c-1.271-.8-2.168-1.112-2.137-1.194.01-.031.239.026.649.158.251.075.495.17.73.284.32.135.63.291.93.466.789.446 1.527.977 2.2 1.583a14.648 14.648 0 012.166 2.517 13.45 13.45 0 012.139 5.594c.088.602.118 1.211.089 1.818.012.225-.018.45-.089.663z" fill="#1C2E5C"/><path d="M233 166.4a19.402 19.402 0 00-21.688-14.9l-.995.144c-10.633 2.171-14.73 12.415-12.265 22.984l7.527 37.324 1.454 3.886a19.685 19.685 0 0024.2 2.511l.23-2.192-2.255-12.022s10.079-3.088 8.721-13.414c-.657-4.984-2.844-15.146-4.929-24.321z" fill="#FFBE9D"/><path d="M229.286 204.112a25.256 25.256 0 01-14.076-2.012s4.246 6.961 14.4 4.551l-.324-2.539z" fill="#EB996E"/><path d="M231.34 174.258a1.489 1.489 0 01-1.205 1.69 1.41 1.41 0 01-.564.012 1.426 1.426 0 01-1.145-1.121 1.486 1.486 0 011.2-1.69 1.415 1.415 0 011.092.192 1.434 1.434 0 01.622.917zM215.843 176.211a1.489 1.489 0 01-1.205 1.689 1.428 1.428 0 01-1.491-.588 1.43 1.43 0 01-.218-.52 1.49 1.49 0 011.2-1.691 1.414 1.414 0 011.496.588c.107.158.181.335.218.522zM215.364 173.67c-.161.219-1.43-.429-3.061-.184-1.634.224-2.715 1.21-2.92 1.043-.1-.072.041-.444.512-.887a4.343 4.343 0 012.3-1.071 4.135 4.135 0 012.471.385c.557.297.778.616.698.714zM230.615 171.655c-.161.219-1.436-.428-3.074-.182-1.641.225-2.728 1.212-2.934 1.046-.1-.072.041-.444.515-.888a4.37 4.37 0 012.314-1.073 4.163 4.163 0 012.482.383c.556.296.782.615.697.714zM222.871 185.292a10.6 10.6 0 012.505-.835c.4-.1.77-.235.8-.521a2.075 2.075 0 00-.443-1.16l-1.64-2.908c-2.293-4.145-4.015-7.577-3.847-7.669.168-.092 2.162 3.2 4.455 7.342.556 1.024 1.087 2 1.592 2.933a2.36 2.36 0 01.439 1.557c-.038.151-.11.291-.211.41-.1.12-.226.214-.369.277a2.763 2.763 0 01-.673.195c-.85.237-1.726.364-2.608.379zM214.481 167.538c-.128.445-1.736.349-3.594.7-1.864.318-3.337.97-3.612.6-.124-.179.111-.6.693-1.067a6.377 6.377 0 012.631-1.13 6.381 6.381 0 012.859.138c.707.231 1.076.548 1.023.759zM230.268 166.034c-.3.4-1.713.206-3.355.4-1.647.146-3 .63-3.364.294-.164-.165.008-.554.571-.973a5.55 5.55 0 012.648-.94 5.446 5.446 0 012.767.382c.626.295.865.642.733.837zM234.937 156.9a1.986 1.986 0 00-2.258-1.346 4.198 4.198 0 001.34-.9 1.426 1.426 0 00.319-1.5c-.359-.768-1.4-.813-2.24-.947a5.354 5.354 0 01-2.909-1.482c-1.13-1.126-1.7-2.7-2.705-3.933a6.913 6.913 0 00-8.41-1.848 6.906 6.906 0 00-2.39 1.931 7.2 7.2 0 00-11.294 3.109 8.407 8.407 0 00-8.275 2.176 8.399 8.399 0 00-2.075 8.301l6.906 3.188a3.497 3.497 0 013.885-3.518c2.01.333 3.519 2.436 5.555 2.352 1.585-.066 2.778-1.442 4.252-2.029 1.788-.712 3.825-.2 5.6.54a21.834 21.834 0 005.406 1.972c2.267.18 4.532-.365 6.469-1.555a6.875 6.875 0 002.252-1.79 3.046 3.046 0 00.572-2.721z" fill="#1C2E5C"/><path d="M201.711 160.487l29.473-3.646a13.599 13.599 0 00-5.046-4.362 23.21 23.21 0 00-14-2.843c-4.8.616-13.7 7.877-16.692 11.689-2.39 3.049-2.038 5.334-2.038 5.334.115 3.874 2.88 7.892 4.274 11.508.719 1.865 2.416 7.577 2.416 7.577 1.618-.242 2.031-1.618 1.551-3.182l-1.221-6.234a9.584 9.584 0 001.279-11.5c-.507-.506-1.779-2.992.004-4.341z" fill="#1C2E5C"/><path d="M199.918 175.962c-2.117-5.046-4.155-10.479-3.172-15.862l-.88.067-.334.309a4.157 4.157 0 00-4.978 4.564 4.161 4.161 0 001.092 2.342 3.59 3.59 0 00-3.215 3.544 6.669 6.669 0 001.356 3.333 8.075 8.075 0 011.522 3.277 2.587 2.587 0 01-1.65 2.892 2.97 2.97 0 003.533 1.23 5.886 5.886 0 01-1.724 2.794c2.075 1.081 4.659.323 6.629-.94a5.685 5.685 0 002.639-3.1c.393-1.484-.223-3.031-.818-4.45z" fill="#1C2E5C"/><path d="M200.154 182.1c-.186-.051-7.384-1.074-6.143 5.94 1.241 7.014 8.026 4.322 8 4.119-.026-.203-1.857-10.059-1.857-10.059z" fill="#FFBE9D"/><path d="M200.021 189.794c-.035-.017-.107.107-.3.238-.268.176-.595.24-.91.18a3.065 3.065 0 01-1.879-2.465 4.126 4.126 0 01.033-1.81 1.436 1.436 0 01.753-1.1.632.632 0 01.781.207c.128.18.109.327.148.333.023.014.13-.144.022-.424a.791.791 0 00-.354-.39.925.925 0 00-.707-.059 1.742 1.742 0 00-1.084 1.313 4.215 4.215 0 00-.078 2.03c.295 1.4 1.252 2.6 2.318 2.714a1.335 1.335 0 001.085-.384c.189-.211.199-.377.172-.383z" fill="#EB996E"/><path d="M192.13 177.112c-.019.016-.229-.243-.227-.806a2.686 2.686 0 011.1-2 8.203 8.203 0 013.143-1.163 3.993 3.993 0 003.031-2.018 5.893 5.893 0 00.116-3.772c-.309-1.166-.75-2.207-1.014-3.115a5.293 5.293 0 01-.309-3.036c.12.993.349 1.97.681 2.913.306.877.78 1.883 1.135 3.108a6.21 6.21 0 01-.106 4.135 3.51 3.51 0 01-1.515 1.623 7.14 7.14 0 01-1.9.659 8.514 8.514 0 00-3.033.984 2.582 2.582 0 00-1.116 1.7c-.012.263-.007.526.014.788zM190.062 174.232c-.026.014-.179-.183-.293-.612a3.088 3.088 0 01.137-1.859c.162-.415.407-.792.721-1.107a3.67 3.67 0 011.281-.793 3.911 3.911 0 001.276-.708 1.648 1.648 0 00.379-1.357c-.043-.541-.192-1.1-.245-1.666a8.324 8.324 0 01-.009-1.625c.08-.917.323-1.812.716-2.644a1.956 1.956 0 011.446-1.178c.469-.051.689.137.67.157-.014.046-.245-.052-.628.055a1.805 1.805 0 00-1.134 1.135 8.21 8.21 0 00-.561 2.516 8.537 8.537 0 00.04 1.525c.053.521.206 1.065.257 1.682a2.164 2.164 0 01-.546 1.782c-.431.363-.93.635-1.468.8a2.946 2.946 0 00-1.834 1.581 3.99 3.99 0 00-.205 2.316zM229.2 150.737c.046.005-.488.448-1.465.121a4.175 4.175 0 01-1.467-.978 5.75 5.75 0 00-1.811-1.261 4.94 4.94 0 00-5.285.981c-.8.736-1.468 1.712-2.4 2.572a4.594 4.594 0 01-1.672 1.028 3.844 3.844 0 01-2.033.047c-1.328-.307-2.424-.969-3.57-1.238a8.989 8.989 0 00-3.387-.206 8.831 8.831 0 00-5.132 2.471 9.724 9.724 0 00-2.176 3.257c-.343.872-.444 1.39-.491 1.38-.019 0-.009-.135.026-.384a7.59 7.59 0 01.262-1.07 9.21 9.21 0 012.1-3.459 9.067 9.067 0 015.343-2.7 9.362 9.362 0 013.587.186c1.236.29 2.354.953 3.556 1.223a3.313 3.313 0 001.748-.032 4.067 4.067 0 001.472-.9c.87-.791 1.557-1.768 2.415-2.545a5.164 5.164 0 012.965-1.385 5.507 5.507 0 012.82.419 5.915 5.915 0 011.87 1.4c.372.419.825.759 1.33 1 .442.189.936.215 1.395.073z" fill="#38557D"/><path d="M219.162 187.606c.218-.077.653 1.4 2.227 2.082 1.574.682 3.1.058 3.174.261.048.087-.268.391-.928.6a3.843 3.843 0 01-2.625-.134 3.348 3.348 0 01-1.772-1.773c-.238-.6-.179-1.015-.076-1.036z" fill="#1C2E5C"/><path d="M311.374 341.254a13.923 13.923 0 00-10.005-3.3l-6.117 19.446c4.484.2 8.957 2.51 13.286 1.325a9.474 9.474 0 006.6-7.789 11.263 11.263 0 00-3.764-9.682z" fill="#FDBC5A"/><path d="M301.478 337.495c.012-.157.665-.279 1.854-.267 1.711.028 3.405.348 5.008.944a13.614 13.614 0 016.1 4.736 12.619 12.619 0 012.034 4.217c.445 1.665.497 3.411.151 5.1a10.289 10.289 0 01-2.224 4.642 9.693 9.693 0 01-3.947 2.738 14.108 14.108 0 01-7.7.5 24.022 24.022 0 01-4.8-1.489c-1.079-.466-1.643-.807-1.6-.961.043-.154.707-.111 1.854.08 1.147.191 2.781.539 4.772.719a13.715 13.715 0 006.649-.859 7.853 7.853 0 002.993-2.208 8.356 8.356 0 001.684-3.632 9.998 9.998 0 00-.061-3.967 10.006 10.006 0 00-1.595-3.633 13.082 13.082 0 00-4.986-4.453 22.61 22.61 0 00-4.463-1.561c-1.101-.29-1.736-.479-1.723-.646z" fill="#F5F5F5"/><path d="M244.775 410.437l-13.312 37.295 46.316 16.8c1.333-4.523-19.406-22.1-19.406-22.1l9.51-23.546-23.108-8.449z" fill="#FDBC5A"/><path opacity=".6" d="M244.78 435.233a2.011 2.011 0 00-2.091 1.685 1.934 1.934 0 001.651 2.087 2.123 2.123 0 002.205-1.8c.01-.989-.98-2.122-1.958-1.981" fill="#fff"/><path d="M231.463 447.732l1.344-3.764 43.995 17.55s1.737 1.645.977 3.013l-46.316-16.799z" fill="#fff"/><path d="M259.209 442.471c-.089.224-1.257-.084-2.634.24-1.385.287-2.313 1.059-2.489.894-.193-.12.635-1.349 2.309-1.712 1.674-.363 2.939.389 2.814.578zM263.338 446.243c-.027.237-1.146.267-2.261.945-1.135.645-1.7 1.609-1.926 1.517-.225-.041.1-1.422 1.5-2.239s2.761-.441 2.687-.223zM263.989 453.057c-.223-.026-.128-1.27.9-2.3 1.028-1.03 2.267-1.137 2.294-.914.06.232-.868.648-1.7 1.505-.851.838-1.261 1.768-1.494 1.709zM260.781 436.865c-.169.172-1.094-.517-2.4-.894-1.3-.4-2.453-.335-2.5-.571-.072-.211 1.2-.7 2.739-.231s2.337 1.559 2.161 1.696zM261.671 430.97a4.627 4.627 0 01-2.315-.854 11.085 11.085 0 01-2.156-1.625 11.673 11.673 0 01-1.076-1.19 3.047 3.047 0 01-.5-.8 1.049 1.049 0 01.332-1.24 1.321 1.321 0 011.179-.158c.295.105.574.251.826.436a8.71 8.71 0 012.892 3.197c.466.704.703 1.534.681 2.378-.129.038-.4-.86-1.191-2.078a9.81 9.81 0 00-1.646-1.916 9.1 9.1 0 00-1.183-.893c-.444-.307-.86-.462-1.065-.289-.076.066-.093.1-.043.278.096.212.221.409.371.585.301.4.625.782.971 1.144.59.617 1.237 1.177 1.931 1.673 1.19.852 2.041 1.231 1.992 1.352z" fill="#1C2E5C"/><path d="M261.259 431.187a3.939 3.939 0 01.2-2.462 8.005 8.005 0 012.341-3.619 2.048 2.048 0 011.9-.635 1.158 1.158 0 01.734 1c.02.314-.003.629-.07.937a5.479 5.479 0 01-.566 1.562 5.672 5.672 0 01-1.859 2.037c-1.341.872-2.383.8-2.374.716a20.019 20.019 0 002.023-1.193 5.676 5.676 0 001.525-1.914c.211-.429.36-.885.443-1.355.106-.519.066-.983-.137-1a1.392 1.392 0 00-.594.114c-.188.08-.356.2-.493.352a8.167 8.167 0 00-1.03 1.049 8.882 8.882 0 00-1.289 2.152c-.553 1.335-.618 2.272-.754 2.259zM199.9 310.826c-7.025.163-13.69 1.156-18.529 6.252-6.418 6.759-14.355 16.386-14.8 23.063-.674 9.98 5.346 12.946 9.742 15.379a12.197 12.197 0 006.376 1.48l81.205-.616 2.549-13.755-52.521-12.944 2.182-19.767-16.204.908z" fill="#1C2E5C"/><path d="M216.1 309.914l25.545-1.176s44.129 2.453 53.542 11.081c9.413 8.628 8.236 18.434 5.1 27.847-3.136 9.413-30.787 69.616-30.787 69.616s2.242 3.827.98 7.648a10.099 10.099 0 01-7.211 6.868l-24.557-9.025s-3.334-1.177-.981-4.315c2.353-3.138 3.922-3.726 3.922-3.726v-6.275s8.629-15.688 9.413-17.845c.784-2.157 9.055-34.087 9.055-34.087l5.494-9.441s-13.287-6.247-24.8-10.775l-26.893-6.628 2.178-19.767z" fill="#1C2E5C"/><path d="M257.537 421.636c-.049.059-.824-.553-2.155-1.413a29.109 29.109 0 00-11.466-4.359c-1.566-.242-2.552-.3-2.549-.376a9.535 9.535 0 012.592.045 24.51 24.51 0 0111.611 4.414 9.533 9.533 0 011.967 1.689zM269.81 417.324a8.477 8.477 0 01-1.426-1.5 73.066 73.066 0 01-3.087-3.92 71.789 71.789 0 01-2.825-4.114 8.453 8.453 0 01-1.009-1.808 9.661 9.661 0 011.285 1.621l2.929 4.021 2.968 3.993a9.676 9.676 0 011.165 1.707zM278.81 338.463c.015.077-.9.272-2.326.745a24.446 24.446 0 00-9.837 6.141c-1.051 1.073-1.628 1.81-1.691 1.764a8.416 8.416 0 011.447-1.991 20.873 20.873 0 019.983-6.233 8.474 8.474 0 012.424-.426z" fill="#38557D"/><path d="M253.69 381.1a2.33 2.33 0 01.1-.53c.1-.392.223-.888.377-1.5l1.471-5.48c1.3-4.669 3.071-11.017 5.026-18.031 1.019-3.516 1.894-6.871 2.876-9.908a20.662 20.662 0 014.624-7.054 26.444 26.444 0 014.39-3.619 22.75 22.75 0 011.325-.8c.152-.098.314-.178.484-.239.022.037-.614.418-1.705 1.188a29.315 29.315 0 00-4.253 3.7 20.795 20.795 0 00-4.457 6.975c-.943 2.994-1.817 6.387-2.832 9.892l-5.157 17.988-1.616 5.438-.462 1.473a2.35 2.35 0 01-.191.507zM231.094 335.105c-.129.012-.666-4.765-1.2-10.667-.534-5.902-.859-10.7-.729-10.71.13-.01.666 4.763 1.2 10.668.534 5.905.859 10.697.729 10.709zM188.577 347.856c-.072.036-.466-.737-1.266-1.87a18.392 18.392 0 00-8.39-6.555c-1.292-.5-2.137-.7-2.121-.775.765.03 1.519.185 2.233.461a16.106 16.106 0 018.556 6.684c.441.626.775 1.32.988 2.055zM204.227 330.517c-.045.073-1.128-.621-3-1.475a28.3 28.3 0 00-15.7-2.252c-2.04.291-3.274.653-3.3.57.267-.144.552-.252.847-.321a18.636 18.636 0 012.4-.579 25.711 25.711 0 0115.9 2.281c.74.362 1.454.772 2.139 1.23a3.3 3.3 0 01.714.546z" fill="#38557D"/><path d="M265.395 342.612a3.273 3.273 0 01-.637-.106l-1.8-.391-6.619-1.487a919.178 919.178 0 00-21.893-4.629 899.746 899.746 0 00-22.009-4.062l-6.685-1.147-1.816-.325a3.32 3.32 0 01-.629-.146c.216-.004.431.014.643.052l1.83.238c1.588.214 3.881.554 6.712 1a580.35 580.35 0 0122.046 3.929 578.39 578.39 0 0121.876 4.766c2.787.667 5.037 1.227 6.587 1.634l1.783.477c.21.045.414.111.611.197z" fill="#38557D"/><path d="M213.922 332.013a27.655 27.655 0 00-1.124-2.6 11.381 11.381 0 00-1.858-2.4 29.955 29.955 0 00-2.843-2.459 43.033 43.033 0 00-5.817-3.613 19.04 19.04 0 01-2.485-1.413c.911.291 1.793.665 2.636 1.116 2.1.972 4.095 2.157 5.953 3.536a26.416 26.416 0 012.869 2.531 10.785 10.785 0 011.839 2.547c.32.631.563 1.297.725 1.985.08.249.116.509.105.77z" fill="#38557D"/><path d="M304.367 344.291c.1.1-1.254 1.474-2.311 3.561-1.08 2.077-1.4 3.98-1.546 3.954a10.335 10.335 0 013.857-7.515z" fill="#1C2E5C"/><path opacity=".3" d="M250.949 242.382l5.812 40.947.291.654a87.86 87.86 0 00-6.103-41.601z" fill="#000"/><path d="M282.254 265.913l-18.9 33.057-46.57 1.013-.116 2.109 45.093-.335 1.43-.049 47.617.094 9.623-16.6 12.292-17.617a1.738 1.738 0 00-1.433-2.734l-47.532.182a1.736 1.736 0 00-1.504.88z" fill="#E0E0E0"/><path d="M320.429 285.207s2.446 2.242 2.06 4.147c-.386 1.905-.257 3.322-2.06 3.451a2.744 2.744 0 01-2.447 2.834s.552 2.987-2.926 3.5c0 0-1.067 3.2-3.256 2.422a19.418 19.418 0 01-3.606-1.674l-.644-1.16s-3.226-1.212-2.431-3.034c.482-1.105 2.151-1.393 2.151-1.393a3.133 3.133 0 01.206-2.832c.774-1.039 3.292-.18 3.292-.18a3.548 3.548 0 01.8-2.464c.857-1.017 4.867 1.746 4.867 1.746l2.187-2.612 1.807-2.751z" fill="#FFBE9D"/><path d="M315.056 299.141a44.705 44.705 0 01-7.786-4.839 44.765 44.765 0 017.786 4.839zM317.982 295.639a37.778 37.778 0 01-7.214-4.349 37.778 37.778 0 017.214 4.349zM314 289.083a12.68 12.68 0 013.306 1.756 30.386 30.386 0 013.109 2.062c-.066.155-1.62-.551-3.359-1.662a18.312 18.312 0 01-3.056-2.156z" fill="#EB996E"/><path d="M332.727 266.109a.823.823 0 01-.227.024l-.669.024-2.571.044-9.456.075-31.2.069h-2.271a1.874 1.874 0 00-1.731.817l-2.117 3.817-4.015 7.246-6.821 12.255-4.634 8.242-1.28 2.229-.344.573a.765.765 0 01-.131.188.852.852 0 01.089-.211c.081-.159.18-.356.3-.6l1.2-2.273 4.5-8.315 6.733-12.3 3.99-7.259 2.128-3.849a2.35 2.35 0 012.123-1.03h2.271l31.2.07 9.456.074 2.571.045.669.023c.08-.004.16.004.237.022z" fill="#1C2E5C"/><path d="M299.218 282.727a2.003 2.003 0 00-.064 2.176 2.011 2.011 0 001.956.957 2.003 2.003 0 001.678-1.387 2.008 2.008 0 00-.57-2.101 2.149 2.149 0 00-3 .355z" fill="#fff"/><path d="M283.71 386.024a.784.784 0 01.066-.211l.235-.6.952-2.3 3.617-8.529 12.41-28.819-.014.042a40.02 40.02 0 001.173-8.863 22.763 22.763 0 00-2.035-10.27 18.45 18.45 0 00-2.846-4.115 18.868 18.868 0 00-3.446-3.336 20.067 20.067 0 00-4.1-2.017 65.987 65.987 0 00-4.094-1.491 89.909 89.909 0 00-7.536-2.11c-4.663-1.1-8.5-1.684-11.154-2.064l-3.061-.408-.8-.108a1.135 1.135 0 01-.27-.054c.091-.012.184-.012.275 0l.8.056c.7.058 1.743.152 3.076.312 3.768.441 7.51 1.077 11.211 1.906 2.343.529 4.9 1.19 7.588 2.058 1.348.428 2.725.925 4.129 1.476a20.37 20.37 0 014.2 2.051 25.271 25.271 0 016.475 7.618 23.182 23.182 0 012.1 10.5 40.222 40.222 0 01-1.2 8.978l-.005.021-.009.021c-5 11.435-9.4 21.5-12.571 28.748l-3.759 8.468-1.033 2.27c-.113.235-.2.427-.279.583a.784.784 0 01-.095.187z" fill="#38557D"/><path d="M454.221 461.388c0 .144-100.4.261-224.21.261-123.858 0-224.232-.117-224.232-.261 0-.144 100.374-.26 224.232-.26 123.815 0 224.21.116 224.21.26z" fill="#1C2E5C"/><path d="M134.3 91.1l9.819-5.572a26.31 26.31 0 10-7.009-6.3l-.012-.009L134.3 91.1z" fill="#fff"/><path d="M134.3 91.1l2.7-11.9a.1.1 0 01.157-.056l.012.01-.139.14a26.253 26.253 0 01-5.326-12.616 23.667 23.667 0 01-.212-4.164c.04-.716.058-1.445.119-2.18l.335-2.223A26.525 26.525 0 01142.5 41.665a26.214 26.214 0 0110.162-4.447c3.875-.76 7.87-.654 11.7.31a25.943 25.943 0 0110.821 5.638 26.42 26.42 0 017.238 10.134 26.836 26.836 0 011.811 11.8 25.955 25.955 0 01-3.2 10.824A26.69 26.69 0 01165.665 88.4a28.443 28.443 0 01-8.555 1.14 26.179 26.179 0 01-13.04-3.933h.1L134.3 91.1l9.772-5.655a.1.1 0 01.1 0 26.11 26.11 0 0012.948 3.82 28.199 28.199 0 008.455-1.162 26.4 26.4 0 0015.139-12.36 25.62 25.62 0 003.138-10.676 26.482 26.482 0 00-1.8-11.618 26.066 26.066 0 00-7.132-9.984 25.582 25.582 0 00-10.656-5.557 26.476 26.476 0 00-11.532-.316 25.907 25.907 0 00-10.025 4.37 26.242 26.242 0 00-10.453 16.2l-.339 2.194c-.064.726-.083 1.447-.126 2.156a23.44 23.44 0 00.192 4.12 26.16 26.16 0 005.205 12.53c.014.018.02.042.018.066a.098.098 0 01-.091.091.1.1 0 01-.066-.018l-.011-.009.157-.056c-1.828 7.504-2.725 11.18-2.893 11.864z" fill="#1C2E5C"/><path d="M143.072 64.46l3.774-3.774 7.278 6.47 14.287-13.748 3.5 3.774-18.33 17.252-10.509-9.974z" fill="#FDBC5A"/><path d="M88.748 461.388h-4.372l-2.489-150.294h9.351l-2.49 150.294z" fill="#E0E0E0"/><path d="M88.748 461.388s-.008-.272-.006-.787.011-1.285.02-2.274l.107-8.721.452-32.081 1.656-106.435.26.265h-9.351l.261-.265c1.215 73.486 2.143 134.667 2.288 150.3l-.059-.058 3.283.034c.724.011 1.089.025 1.089.025s-.336.015-1.055.025l-3.317.034h-.058v-.059c-.373-15.626-1.472-76.8-2.691-150.29v-.265h9.88v.264c-.735 41.872-1.4 79.473-1.873 106.621l-.609 32.019-.181 8.659-.055 2.24c-.025.501-.041.749-.041.749z" fill="#1C2E5C"/><path d="M374.216 461.388h-4.372l-1.4-149.865h9.356l-3.584 149.865z" fill="#E0E0E0"/><path d="M374.216 461.388s-.006-.272 0-.785.02-1.281.036-2.268c.039-2 .1-4.927.17-8.7.162-7.553.4-18.468.686-31.99l2.43-106.132.26.266h-9.35l.26-.262c.681 73.269 1.164 134.269 1.2 149.867l-.059-.059 3.284.034c.724.011 1.088.025 1.088.025s-.336.015-1.055.025l-3.317.034h-.058v-.059c-.259-15.6-.913-76.594-1.6-149.864v-.262h9.88l-.006.266-2.649 106.317-.842 31.927-.244 8.634-.072 2.233c-.024.506-.042.753-.042.753z" fill="#1C2E5C"/><path d="M409.962 299.65H60.855v12.397h349.107V299.65z" fill="#E0E0E0"/><path d="M60.855 299.65s.593-.012 1.77-.019l5.236-.018 20.188-.037 74.5-.079 247.418-.107h.26v12.917h-.26l-349.107-.2h-.07v-.065l.038-9.407c.008-2.046.027-2.989.027-2.989 0 .441.021 3.969.064 12.4l-.064-.064 349.107-.2-.26.26v-12.4l.26.26-247.225-.102-74.556-.079-20.249-.037-5.27-.019a119.865 119.865 0 01-1.807-.015z" fill="#1C2E5C"/><path d="M134.809 299.834a.663.663 0 01-.111.134c-.079.085-.2.214-.364.371a7.285 7.285 0 01-1.755 1.142 11.42 11.42 0 01-3.373.918c-1.56.182-3.131.238-4.7.168a55.978 55.978 0 01-5.663-.528 61.669 61.669 0 00-6.449-.625 48.246 48.246 0 00-14.514 2.285c-4.982 1.446-9.635 3.09-14.087 4.091a46.969 46.969 0 01-6.424 1.035c-1.9.16-3.81.157-5.709-.009a22.61 22.61 0 01-7.828-2.034 12.374 12.374 0 01-2.42-1.47c.06.022.116.051.168.087l.466.282c.602.366 1.226.695 1.87.983a23.218 23.218 0 007.777 1.906 33.59 33.59 0 005.638-.033c2.14-.207 4.263-.56 6.354-1.056 4.413-1.011 9.047-2.658 14.052-4.111a48.145 48.145 0 0114.671-2.277c2.175.103 4.342.323 6.493.66 2.013.277 3.891.505 5.618.567 1.552.084 3.108.046 4.654-.113 1.145-.115 2.267-.4 3.328-.845a8.63 8.63 0 002.308-1.528z" fill="#fff"/><path d="M96.621 300.022c-.332.27-.685.515-1.056.731a25.317 25.317 0 01-3.185 1.666 31.918 31.918 0 01-5.21 1.721 34.358 34.358 0 01-6.805.864 31.22 31.22 0 01-12.165-2.039 7.555 7.555 0 01-2.937-1.949 3.263 3.263 0 01-.48-.747c-.072-.184-.1-.281-.089-.285.209.335.443.654.7.953a7.983 7.983 0 002.937 1.807 32.407 32.407 0 0012.02 1.911 35.339 35.339 0 006.71-.825 33.868 33.868 0 005.177-1.63 31.875 31.875 0 003.227-1.557c.37-.235.756-.443 1.156-.621zM178.537 307.879c.184.042.365.095.542.158.529.152 1.067.269 1.611.348a11.48 11.48 0 006.11-.776l-.018.157a16.608 16.608 0 00-7.576-2.4 17.42 17.42 0 00-9.853 2.079c-.369.216-.727.482-.763.8-.036.318.252.616.654.8.432.189.887.319 1.353.385l1.487.274c2 .361 4.061.72 6.2.974 2.186.282 4.389.404 6.592.364a29.687 29.687 0 003.383-.263 22.854 22.854 0 001.684-.287 9.849 9.849 0 001.63-.428 5.47 5.47 0 002.115-1.241 1.677 1.677 0 00.406-1.9 3.597 3.597 0 00-1.66-1.505 14.587 14.587 0 00-2.317-.919 38.107 38.107 0 00-9.7-1.634 48.695 48.695 0 00-16.551 2.083 44.424 44.424 0 00-9.964 4.42c-1.065.668-1.885 1.2-2.408 1.586l-.615.425a1.343 1.343 0 01-.22.136c.058-.06.121-.115.19-.162.148-.115.342-.264.587-.451.506-.408 1.31-.954 2.364-1.642a42.862 42.862 0 019.957-4.542 48.495 48.495 0 0116.683-2.174c3.334.117 6.638.667 9.829 1.637.824.246 1.625.563 2.394.948a3.95 3.95 0 011.829 1.674 1.977 1.977 0 01-.466 2.237 5.858 5.858 0 01-2.283 1.348 10.3 10.3 0 01-1.7.447c-.569.123-1.144.213-1.718.292-1.141.155-2.29.244-3.442.266a45.295 45.295 0 01-6.666-.376c-2.152-.26-4.223-.625-6.223-.992l-1.487-.278a5.67 5.67 0 01-1.463-.425 1.92 1.92 0 01-.613-.435.838.838 0 01-.185-.31c-.039-.115-.052-.238-.039-.359.076-.493.543-.791.923-1.02a17.769 17.769 0 0110.1-2.085 16.705 16.705 0 017.692 2.5l.141.092-.159.066a11.5 11.5 0 01-6.243.708 8.14 8.14 0 01-2.124-.6zM223.461 300.155c.157.182.274.395.344.624.227.593.306 1.231.23 1.861-.115 1.6-1.321 3.695-3.4 5.41a16.734 16.734 0 01-3.176 2.192 15.68 15.68 0 01-3.064 1.207c-.73.199-1.472.35-2.221.452-.276.051-.557.07-.837.058-.015-.064 1.172-.2 2.954-.742a16.789 16.789 0 002.95-1.243 17.46 17.46 0 003.081-2.163 8.949 8.949 0 003.411-5.2 5.582 5.582 0 00-.272-2.456zM286.152 311.395a18.41 18.41 0 00-1.6-1.266 12.708 12.708 0 00-5.46-2 14.999 14.999 0 00-4.157.1 21.862 21.862 0 01-4.872.364 10.78 10.78 0 01-4.85-1.932 17.75 17.75 0 00-4.874-2.347 21.84 21.84 0 00-10.825-.136 28.322 28.322 0 00-8.009 3.294 42.712 42.712 0 00-4.643 3.219l-1.185.949c-.132.12-.276.228-.428.321.108-.135.231-.259.365-.369a37.328 37.328 0 015.71-4.321 27.927 27.927 0 018.081-3.406 22.117 22.117 0 0111.079.118 17.986 17.986 0 014.985 2.4 10.39 10.39 0 004.641 1.883 21.84 21.84 0 004.769-.33 15.139 15.139 0 014.262-.055c1.986.257 3.88.991 5.52 2.139a6.608 6.608 0 011.491 1.375zM342.124 299.768c-.113.154-.24.296-.381.424-.378.404-.776.789-1.193 1.152a31.254 31.254 0 01-5.1 3.677 44.395 44.395 0 01-8.839 3.979 42.747 42.747 0 01-5.7 1.477 35.864 35.864 0 01-6.379.666 37.894 37.894 0 01-12.1-2.044 43.533 43.533 0 01-8.8-4.051 32.873 32.873 0 01-5.06-3.709c-.561-.47-.923-.888-1.195-1.15a2.964 2.964 0 01-.384-.423c.161.113.311.239.45.378.293.247.674.649 1.251 1.1a36.153 36.153 0 005.119 3.6 44.65 44.65 0 008.764 3.951 37.931 37.931 0 0011.948 1.994 35.801 35.801 0 006.29-.651 42.907 42.907 0 005.649-1.442 45.544 45.544 0 008.812-3.883 34.252 34.252 0 005.152-3.569c.579-.451.955-.856 1.248-1.1.139-.137.289-.263.448-.376z" fill="#fff"/><path d="M334.128 299.65c-.09.08-.191.148-.3.2-.2.116-.5.3-.9.5-.794.421-1.979.988-3.5 1.607a42.225 42.225 0 01-5.524 1.826c-2.353.63-4.774.966-7.209 1a35.128 35.128 0 01-12.8-2.627 30.154 30.154 0 01-3.467-1.653c-.4-.212-.682-.4-.881-.524-.199-.124-.3-.195-.287-.2.431.182.851.388 1.26.615a37.887 37.887 0 003.508 1.545 36.57 36.57 0 0012.665 2.5 30.046 30.046 0 007.092-.959 46.156 46.156 0 005.509-1.741 55.264 55.264 0 003.542-1.5c.419-.221.85-.418 1.292-.589zM369.624 300.919a1.783 1.783 0 01-.4 0l-1.143-.059-.824-.051-.983-.006c-.7-.006-1.507-.026-2.392.032l-1.39.061-1.5.142c-1.04.073-2.129.272-3.284.429a58.441 58.441 0 00-7.3 1.767 56.352 56.352 0 00-6.836 2.731c-.984.517-1.949.973-2.78 1.486l-1.225.715-1.082.711c-.7.439-1.286.889-1.807 1.275l-.729.536-.576.481-.808.66a1.48 1.48 0 01-.3.215c-.011-.008.071-.1.239-.262l.752-.706.552-.505.708-.561c.508-.4 1.08-.867 1.778-1.322l1.073-.735 1.221-.737c.829-.528 1.795-1 2.782-1.526a53.334 53.334 0 016.885-2.781 55.901 55.901 0 017.376-1.757c1.169-.15 2.27-.34 3.322-.4l1.514-.123 1.4-.039c.893-.043 1.7-.006 2.412.019l.988.035.826.081 1.139.125c.133.008.265.031.392.069zM292.423 311.146a14.259 14.259 0 00-1.92-1.854 19.123 19.123 0 00-7.035-3.193 46.213 46.213 0 00-5.49-.984c-2-.259-4.159-.461-6.418-.778a64.146 64.146 0 01-6.971-1.419 54.832 54.832 0 00-7.436-1.458 37.623 37.623 0 00-14.487 1.625 59.248 59.248 0 00-5.892 2.149 150.24 150.24 0 00-4.965 2.182 260.8 260.8 0 00-7.045 3.373l-1.9.944-.5.241a.813.813 0 01-.178.073c0-.006.048-.04.154-.1l.473-.27c.42-.235 1.043-.574 1.855-1a182.086 182.086 0 016.983-3.473c1.5-.7 3.147-1.459 4.952-2.224a58.494 58.494 0 015.918-2.194 37.704 37.704 0 0114.679-1.669 54.19 54.19 0 017.5 1.477 65.243 65.243 0 006.918 1.43c2.241.323 4.4.536 6.406.808 1.862.23 3.707.576 5.526 1.035a18.64 18.64 0 017.059 3.331 7.51 7.51 0 011.814 1.948zM213.791 299.834c.032.265.014.533-.051.792a7.866 7.866 0 01-.682 2.092 12.695 12.695 0 01-5.366 5.575 40.377 40.377 0 01-7.953 2.973 49.554 49.554 0 01-2.539.62 5.046 5.046 0 01-.954.161 5 5 0 01.9-.291l2.487-.723a46.056 46.056 0 007.824-3.033 13.207 13.207 0 005.319-5.376c.434-.892.774-1.827 1.015-2.79zM132.748 312.047c.261-.248.546-.471.85-.664.561-.414 1.41-.98 2.485-1.651a75.515 75.515 0 018.9-4.659c3.628-1.619 7.017-2.914 9.477-3.832 1.231-.458 2.232-.819 2.927-1.062.357-.145.725-.26 1.1-.345a6.789 6.789 0 01-1.027.468l-2.868 1.162c-2.425.975-5.787 2.3-9.4 3.915a92.85 92.85 0 00-8.93 4.551 81.215 81.215 0 00-2.56 1.558c-.301.213-.621.4-.954.559zM149.2 300.341c0 .04-.807-.084-2.252.005a18.756 18.756 0 00-5.824 1.438 55.556 55.556 0 00-7.566 4.123A40.509 40.509 0 01129 308.3a29.269 29.269 0 01-5.449 1.7 61.736 61.736 0 01-11.151 1.1c-3.452.083-6.553.027-9.151.113-2.047.049-4.09.211-6.119.486-.715.108-1.269.2-1.64.268-.191.043-.384.072-.579.085.18-.067.367-.118.556-.153.367-.094.917-.205 1.631-.333 2.031-.33 4.081-.53 6.138-.6 2.608-.119 5.715-.089 9.15-.188a63.125 63.125 0 0011.057-1.1A29.025 29.025 0 00128.8 308a40.807 40.807 0 004.521-2.355 53.549 53.549 0 017.664-4.083 18.258 18.258 0 015.947-1.352 12.818 12.818 0 011.686.045c.196.013.391.042.582.086zM377.826 312.047a5.56 5.56 0 01.849-.664c.562-.414 1.411-.98 2.486-1.651a75.365 75.365 0 018.9-4.659c3.628-1.619 7.017-2.914 9.477-3.832 1.231-.458 2.232-.819 2.927-1.062.357-.145.725-.26 1.1-.345a6.789 6.789 0 01-1.027.468l-2.868 1.162c-2.425.975-5.787 2.3-9.4 3.915a92.85 92.85 0 00-8.93 4.551 80.058 80.058 0 00-2.56 1.558c-.301.213-.62.4-.954.559zM394.273 300.341c0 .04-.807-.084-2.253.005-2.006.164-3.972.65-5.824 1.438a55.604 55.604 0 00-7.565 4.123 40.697 40.697 0 01-4.556 2.4 29.245 29.245 0 01-5.449 1.7 61.734 61.734 0 01-11.152 1.088c-3.452.083-6.553.027-9.151.113a55.46 55.46 0 00-6.119.486c-.715.108-1.269.2-1.642.268a3.717 3.717 0 01-.577.085c.181-.067.367-.118.556-.153.367-.094.917-.205 1.631-.333 2.032-.33 4.082-.53 6.138-.6 2.608-.119 5.715-.089 9.15-.188a63.125 63.125 0 0011.057-1.1 29.1 29.1 0 005.36-1.668 40.978 40.978 0 004.521-2.355 53.549 53.549 0 017.664-4.083 18.258 18.258 0 015.947-1.352 12.818 12.818 0 011.686.045c.195.011.388.038.578.081z" fill="#fff"/><path d="M366.924 299.6c0 .1-14.59.174-32.583.174s-32.587-.078-32.587-.174c0-.096 14.587-.175 32.587-.175 18 0 32.583.075 32.583.175z" fill="#1C2E5C"/></svg>