<svg width="455" height="320" viewBox="0 0 455 417" fill="none" xmlns="http://www.w3.org/2000/svg"><path d="M363.337 125.578h79.439s-7.024-12.783-27.472-10.923c-19.529 1.777-20.522-6.289-30.452-7.282-9.93-.993-18.205 6.62-21.515 18.205zM22.079 82.317h79.439s-7.02-12.78-27.472-10.918c-19.53 1.777-20.522-6.29-30.452-7.282-9.93-.993-18.205 6.62-21.515 18.2z" fill="#F5F5F5"/><path d="M165.442 23.085h100.257S256.834 6.952 231.028 9.3c-24.645 2.243-25.9-7.937-38.43-9.19-12.53-1.253-22.979 8.355-27.156 22.975z" fill="#E0E0E0"/><path d="M402.769 396.856c-13.659-8.7-17.4-25.766-17.542-41.248-.023-2.584-.423-5.292.707-7.609s3.929-3.987 6.286-3c1.955.82 2.886 3.013 4.037 4.811a15.117 15.117 0 006.3 5.521c1.68.782 3.735 1.216 5.319.252 2.174-1.323 2.3-4.41 2.178-6.976-.235-4.782-.468-9.564-.7-14.346a23.934 23.934 0 01.448-7.656c.694-2.47 2.361-4.808 4.773-5.6 2.412-.792 5.492.49 6.115 2.98.141 1.058.211 2.125.21 3.193a2.697 2.697 0 001.688 2.473c1.037.258 2.033-.514 2.768-1.3 2.538-2.705 4.193-6.12 5.73-9.512 1.537-3.392 3.023-6.86 5.306-9.79 2.283-2.93 5.511-5.311 9.177-5.677 3.666-.366 7.681 1.735 8.764 5.3 1.083 3.565-.867 7.34-3.039 10.367a57.338 57.338 0 01-11.441 11.881 4.718 4.718 0 00-1.9 2.231c-.484 1.735 1.21 3.365 2.923 3.855 1.941.555 4.008.267 6.019.417 2.011.15 4.217.94 5.055 2.8 1.164 2.578-.912 5.422-2.994 7.315a49.115 49.115 0 01-14.165 9.006 16.567 16.567 0 00-5.292 2.865c-1.466 1.392-2.286 3.738-1.288 5.506.998 1.768 3.383 2.248 5.345 1.8 1.962-.448 3.686-1.6 5.54-2.393 3.47-1.482 8.035-1.434 10.425 1.517a8.123 8.123 0 011.172 7.145 18.745 18.745 0 01-3.619 6.51 49.398 49.398 0 01-20.438 15.711c-8.06 3.188-15.608 4.28-23.866 1.655" fill="#0FA6AF"/><path d="M403.057 408.325a112.792 112.792 0 013.287-21.332 229.986 229.986 0 018.068-25.151l2.454-6.484c.81-2.126 1.613-4.235 2.526-6.249a115.161 115.161 0 015.911-11.271c2.053-3.495 4.129-6.736 6.092-9.752 1.963-3.016 3.86-5.787 5.69-8.242a91.1 91.1 0 019.488-10.93c1.217-1.2 2.192-2.1 2.861-2.7l.764-.677c.083-.081.174-.154.271-.219a1.745 1.745 0 01-.238.255l-.733.712c-.647.623-1.6 1.542-2.8 2.759a96.323 96.323 0 00-9.35 11c-1.808 2.46-3.677 5.238-5.629 8.257-1.952 3.019-4.009 6.268-6.047 9.759a116.365 116.365 0 00-5.862 11.24c-.9 2-1.7 4.1-2.51 6.227-.81 2.127-1.623 4.293-2.45 6.481a235.787 235.787 0 00-8.089 25.09 114.693 114.693 0 00-3.375 21.242" fill="#1C2E5C"/><path d="M419.527 349.086a5.174 5.174 0 01-.3-1.084c-.165-.7-.37-1.729-.606-3-.472-2.54-1-6.07-1.577-9.963-.577-3.893-1.154-7.408-1.663-9.934a145.574 145.574 0 00-.622-2.988 5.022 5.022 0 01-.191-1.108c.161.339.284.695.368 1.062.212.691.477 1.7.77 2.962.6 2.517 1.232 6.035 1.8 9.934l1.441 9.979.457 3.02c.081.368.122.743.123 1.12zM452.26 341.506a7.261 7.261 0 01-1.31.214c-.843.112-2.065.266-3.567.506-3.008.456-7.142 1.231-11.665 2.285a167.05 167.05 0 00-11.48 3.106c-1.458.443-2.627.833-3.437 1.1a7.148 7.148 0 01-1.274.371 6.98 6.98 0 011.212-.546 61.107 61.107 0 013.4-1.245c2.888-.992 6.94-2.183 11.476-3.25a116.25 116.25 0 0111.725-2.154c1.513-.2 2.744-.3 3.6-.356a6.85 6.85 0 011.32-.031zM406.724 386.368c-.1-.118-.182-.25-.244-.391l-.615-1.17c-.53-1.018-1.258-2.511-2.134-4.367-1.754-3.712-4.015-8.917-6.433-14.693s-4.629-10.994-6.3-14.737l-1.995-4.428-.537-1.21a1.656 1.656 0 01-.158-.435c.098.12.18.252.244.394l.615 1.169c.53 1.018 1.258 2.511 2.134 4.367 1.754 3.712 4.015 8.916 6.434 14.694 2.419 5.778 4.628 10.993 6.3 14.737l1.995 4.427.537 1.207c.072.138.124.285.157.436zM449.966 370.358a1.714 1.714 0 01-.427.2l-1.255.481-4.631 1.723c-3.909 1.456-9.285 3.528-15.223 5.826-5.938 2.298-11.341 4.324-15.281 5.7-1.97.688-3.57 1.229-4.683 1.58l-1.284.4a1.679 1.679 0 01-.458.107c.133-.085.276-.152.427-.2l1.255-.481 4.63-1.723c3.909-1.455 9.287-3.528 15.226-5.826 5.939-2.298 11.338-4.323 15.279-5.7 1.97-.689 3.569-1.229 4.683-1.58l1.284-.4c.147-.056.301-.092.458-.107z" fill="#1C2E5C"/><path d="M1.447 377.309a8.933 8.933 0 016.9 1.228 15.794 15.794 0 014.91 5.189c2.463 3.941 3.309 9.224 3.392 13.871-5.156-.238-9.54-4.317-11.634-6.526-3.31-3.492-7.171-11.811-3.567-13.762M24.93 400.751a7.628 7.628 0 01-2.584-7.218 10.132 10.132 0 014.4-6.481 4.261 4.261 0 013.487-.888 3.268 3.268 0 012.1 2.559 6.619 6.619 0 01-.417 3.414c-1.323 3.752-3.292 7.139-6.986 8.614z" fill="#0FA6AF"/><path d="M29.615 415.46a3.518 3.518 0 01-.514-.832c-.3-.55-.717-1.355-1.2-2.366a32.768 32.768 0 01-2.858-8.3 16.44 16.44 0 01.694-8.731c.32-.836.745-1.629 1.262-2.36.172-.28.389-.531.64-.742a22.892 22.892 0 00-1.556 3.229 17.244 17.244 0 00-.527 8.514 37.975 37.975 0 002.68 8.236 29.56 29.56 0 011.379 3.352zM4.947 383.385c.405.354.779.741 1.118 1.159.695.768 1.68 1.9 2.886 3.3a363.075 363.075 0 019.169 11.192 362.833 362.833 0 018.732 11.539c1.085 1.5 1.95 2.724 2.534 3.58.326.428.616.884.865 1.362a9.45 9.45 0 01-1.028-1.239l-2.666-3.479c-2.244-2.943-5.353-7-8.846-11.437a904.707 904.707 0 00-9.043-11.278l-2.758-3.408a9.432 9.432 0 01-.963-1.291z" fill="#1C2E5C"/><path d="M21.447 406.482a17.86 17.86 0 00-16.02-3.107c-1.38.415-2.91 1.257-3.048 2.691-.14 1.434 1.208 2.56 2.5 3.2a15.263 15.263 0 008.747 1.317 15.263 15.263 0 008.008-3.759" fill="#0FA6AF"/><path d="M8.853 406c.285-.133.588-.223.9-.269a7.727 7.727 0 011.078-.2c.48-.077.963-.126 1.449-.147a18.896 18.896 0 013.787.165c1.536.24 3.04.642 4.49 1.2a21.827 21.827 0 014.1 2.2 18.825 18.825 0 012.877 2.471c.34.348.658.716.956 1.1.237.279.455.574.65.883.195.246.353.518.47.809-.084.06-.82-1.051-2.337-2.531a21.125 21.125 0 00-2.886-2.334 23.308 23.308 0 00-4.018-2.11 23.329 23.329 0 00-4.371-1.209 21.028 21.028 0 00-3.7-.271c-2.129.036-3.425.343-3.445.243z" fill="#1C2E5C"/><path d="M59.999 195.976l271.849-140.09-17.446-24.62 88.8-7.985-40.047 71.894-18.621-23.3L69.081 223.173l-9.082-27.197z" fill="#0FA6AF"/><path d="M107.153 295.531H44.536v120.62h62.617v-120.62z" fill="#1C2E5C"/><path d="M90.086 295.531H27.469v120.62h62.617v-120.62z" fill="#38557D"/><path d="M204.866 255.296h-62.617V416.15h62.617V255.296z" fill="#1C2E5C"/><path d="M185.949 255.296h-62.617V416.15h62.617V255.296z" fill="#38557D"/><path d="M305.372 204.336h-62.617V416.15h62.617V204.336z" fill="#1C2E5C"/><path d="M286.562 204.336h-62.617V416.15h62.617V204.336z" fill="#38557D"/><path d="M406.305 159.708h-62.617v256.443h62.617V159.708z" fill="#1C2E5C"/><path d="M381.363 159.708h-62.617v256.443h62.617V159.708z" fill="#38557D"/><path d="M61.665 276.416l5.834-4.8-8.918-10.989-8.612 6.929.51.717c2.292 3.169 11.879 15.951 14.138 17.479 2.522 1.707-2.952-9.336-2.952-9.336z" fill="#0FA6AF"/><path opacity=".5" d="M53.29 271.473a4.906 4.906 0 001.206-3.3 4.769 4.769 0 00-1.286-3.217l-3.073 2.49 3.154 4.027z" fill="#fff"/><path opacity=".4" d="M64.177 281.943s1.712 4.039.842 4.068c-.87.029-11.044-12.523-15.048-18.453l.26-.181 11.743 14.739s1.657-.791 2.203-.173z" fill="#fff"/><path d="M50.099 267.199c.037.073.082.142.133.206l.407.569 1.534 2.068a250.074 250.074 0 005.23 6.692 245.602 245.602 0 005.455 6.512l1.7 1.931.472.517c.052.063.11.12.173.173a1.316 1.316 0 00-.147-.2l-.448-.538-1.66-1.962c-1.4-1.66-3.325-3.964-5.412-6.541a401.937 401.937 0 01-5.268-6.657l-1.577-2.035c-.16-.2-.3-.385-.433-.55a1.324 1.324 0 00-.16-.185z" fill="#1C2E5C"/><path d="M61.799 282.256a3.739 3.739 0 012.574-.339 2.284 2.284 0 00-2.574.339z" fill="#1C2E5C"/><path d="M60.817 277.677a2.875 2.875 0 00-1.728 3.533 2.87 2.87 0 102.41-3.699 1.515 1.515 0 00-.682.166zM60.566 276.405c-.007.047.249.127.573.178.324.051.592.055.6.009.008-.046-.248-.127-.572-.178-.324-.051-.593-.056-.601-.009zM61.148 275.001c-.038.03.138.313.39.633.254.32.49.556.528.527.037-.029-.138-.313-.392-.633s-.49-.556-.526-.527zM61.723 274.217c.028.291.143.567.332.791.273.4.6.625.624.589a4.677 4.677 0 00-.482-.687 4.606 4.606 0 00-.474-.693z" fill="#1C2E5C"/><path d="M62.078 277.272c.15.266.345.503.577.7.239.23.499.437.776.618.164.116.34.212.526.287a.49.49 0 00.36 0 .358.358 0 00.2-.336 1.669 1.669 0 00-1.677-1.295 1.645 1.645 0 00-.658.151c-.144.07-.211.128-.205.137.276-.105.568-.161.863-.167.315.01.62.109.88.286a1.413 1.413 0 01.626.888c.008.18-.16.243-.335.179a2.698 2.698 0 01-.491-.26 6.189 6.189 0 01-.78-.574c-.421-.363-.641-.631-.662-.614z" fill="#1C2E5C"/><path d="M62.192 277.485a.906.906 0 00.556-.316c.167-.172.29-.382.36-.611a.914.914 0 00-.117-.881.359.359 0 00-.5.047.983.983 0 00-.22.376c-.08.219-.133.447-.156.68a1.3 1.3 0 00.042.636c.027 0 .013-.243.078-.619.039-.22.1-.434.185-.64.07-.218.285-.5.46-.35a.81.81 0 01.078.708 1.5 1.5 0 01-.3.572 3.46 3.46 0 01-.466.398zM53.288 264.986c-.023.022.285.29.629.835a4.431 4.431 0 01.039 4.74c-.335.549-.64.822-.615.845a.874.874 0 00.222-.18c.185-.183.351-.384.495-.6a4.302 4.302 0 00-.04-4.872 3.706 3.706 0 00-.505-.592c-.135-.125-.214-.184-.225-.176zM58.787 262.417a24.692 24.692 0 00-2.336 1.735 24.743 24.743 0 00-2.23 1.87 24.89 24.89 0 002.337-1.736 24.899 24.899 0 002.229-1.869zM55.484 271.988a11.666 11.666 0 002.574 3.238c.035-.035-.59-.719-1.3-1.612-.71-.893-1.232-1.653-1.274-1.626z" fill="#1C2E5C"/><path d="M53.74 269.831c-.048-.005-.1.182-.21.389-.11.207-.218.365-.185.4.033.035.22-.084.34-.324.12-.24.102-.463.056-.465zM54.093 268.199c-.047-.006-.1.158-.127.365-.027.207 0 .38.044.385.044.005.1-.159.127-.366.027-.207.003-.379-.044-.384zM53.613 266.663c-.031.038.089.183.163.391.074.208.082.394.13.4.05.006.126-.206.03-.462-.094-.256-.298-.367-.323-.329zM53.16 265.659c-.044.014-.05.123-.011.243.039.12.106.205.15.191.046-.014.052-.124.013-.244-.04-.12-.106-.205-.151-.19z" fill="#1C2E5C"/><path d="M172.848 251.407l.243-7.551-14.141-.547-.473 11.043.874.091c3.894.367 19.824 1.594 22.464.9 2.943-.766-8.967-3.936-8.967-3.936z" fill="#0FA6AF"/><path opacity=".5" d="M163.608 254.44a4.901 4.901 0 00-1.688-3.085 4.756 4.756 0 00-3.265-1.156l-.156 3.952 5.109.289z" fill="#fff"/><path opacity=".4" d="M178.659 253.165s4.164 1.378 3.612 2.051c-.552.673-16.7.039-23.794-.864l.035-.315 18.826.9s.496-1.77 1.321-1.772z" fill="#fff"/><path d="M158.29 254.017a1.4 1.4 0 00.242.036l.7.069 2.566.212a255.71 255.71 0 0016.973.682l2.574-.006.7-.014a1.43 1.43 0 00.244-.016 1.253 1.253 0 00-.244-.018l-.7-.019-2.573-.048a419.197 419.197 0 01-8.487-.247c-3.314-.132-6.31-.3-8.479-.432l-2.568-.157-.7-.038a1.286 1.286 0 00-.248-.004z" fill="#1C2E5C"/><path d="M177.325 255.157a3.737 3.737 0 011.443-2.158 2.283 2.283 0 00-1.443 2.158zM173.236 252.876c.039.027.248-.208.467-.525.219-.317.365-.6.326-.622-.039-.022-.248.207-.467.524-.219.317-.363.596-.326.623zM172.115 252.226c.03.036.259-.1.511-.313s.432-.409.4-.445c-.032-.036-.259.1-.511.313s-.431.408-.4.445zM171.443 250.863c.232.095.483.137.734.123.248.04.502.023.743-.049a3.21 3.21 0 00-1.477-.074zM171.232 249.912a2.097 2.097 0 001.668.191 4.51 4.51 0 00-.835-.09 4.41 4.41 0 00-.833-.101z" fill="#1C2E5C"/><path d="M173.764 251.661c.299.063.606.073.909.03.33-.028.657-.087.976-.175a2.69 2.69 0 00.562-.207.485.485 0 00.236-.273.36.36 0 00-.123-.369 1.668 1.668 0 00-2.08.407 1.613 1.613 0 00-.32.6.484.484 0 00-.033.244 2.54 2.54 0 01.444-.759 1.64 1.64 0 01.8-.474 1.405 1.405 0 011.08.117c.14.112.077.28-.087.369a2.77 2.77 0 01-.519.2c-.31.093-.626.162-.946.207-.552.068-.898.055-.899.083z" fill="#1C2E5C"/><path d="M173.999 251.716a.903.903 0 00.129-.627 1.5 1.5 0 00-.222-.674.913.913 0 00-.738-.493.361.361 0 00-.3.409.989.989 0 00.139.412c.111.206.248.396.407.567.134.169.308.303.506.388.017-.022-.175-.17-.414-.468a3.1 3.1 0 01-.359-.56c-.117-.2-.189-.545.04-.578.229-.013.452.223.584.41.12.181.2.386.234.6.017.205.015.41-.006.614zM158.73 250.161c0 .032.407-.023 1.043.078a4.43 4.43 0 013.588 3.1c.192.614.2 1.022.229 1.02a.858.858 0 00.012-.286 3.776 3.776 0 00-.125-.768 4.297 4.297 0 00-4.466-3.195.841.841 0 00-.281.051z" fill="#1C2E5C"/><path d="M160.427 244.334a49.023 49.023 0 00-.3 5.809c.214-1.928.315-3.868.3-5.809zM165.442 253.13c1.354.314 2.753.382 4.131.2 0-.05-.929-.029-2.067-.087-1.138-.058-2.057-.162-2.064-.113zM162.67 253.017c-.035.033.068.2.154.414.086.214.131.399.179.399.048 0 .082-.219-.02-.467-.102-.248-.284-.378-.313-.346zM161.677 251.676c-.035.032.051.183.191.337.14.154.283.253.318.221.035-.032-.051-.183-.191-.337-.14-.154-.283-.253-.318-.221zM160.206 251.023c.008.049.2.054.4.136.2.082.35.2.388.167.038-.033-.072-.231-.327-.327s-.474-.02-.461.024zM159.153 250.701c-.019.044.059.12.175.17.116.05.224.055.243.012.019-.043-.059-.119-.175-.17-.116-.051-.224-.055-.243-.012z" fill="#1C2E5C"/><path d="M179.299 61.87c-1.265-.36-3.4 6.454-3.792 4.723-.392-1.73 3.582-8.032 2.245-8.355-1.743-.42-3.848 6.755-4.072 7.35-.216.576-1.089.291-.859-.234.331-.756 3.61-8.778 1.9-9.208-.947-.238-1.217 1.5-1.217 1.5s-2.515 7.732-3.314 7.5c-.799-.232.512-4.822 1.068-6.339.549-1.5.06-2.368-.806-2.06-.59.21-2.4 4.813-2.916 6.325-.516 1.512-1.852 5.684-2.866 3.09-1.014-2.594-2.771-4.2-3.549-4.309a.874.874 0 00-.871 1.091.874.874 0 00.285.448 10.174 10.174 0 011.5 2.373c.34.676.561 1.405.654 2.155.213 1.504.276 3.024.19 4.54l-13.659 28.412-25.075-7.795-2.531 14.209s33.052 12.264 35 11.047c4.4-2.744 16.294-43.6 16.294-43.6a95.45 95.45 0 005.4-8.825c1.799-3.739 1.467-3.904.991-4.038zM50.899 157.883c-.7-.628-1.31-1.349-1.812-2.144a6.636 6.636 0 01-.944-2.044 28.892 28.892 0 01-.69-3.31s8.627-25.746 10.913-29.729c2.286-3.983 33.74-15.311 33.74-15.311L88.159 89.66s-28.795 11.568-39.76 20.245c-6.973 5.518-11.954 39.758-11.96 39.788a82.116 82.116 0 00-3.493 8.146c-1.261 3.948-.91 4.066-.424 4.135 1.3.183 2.482-6.861 3.106-5.2.624 1.661-2.444 8.448-1.075 8.585 1.785.177 2.884-7.221 3.023-7.84.135-.6 1.039-.439.883.113-.223.794-2.368 9.191-.617 9.382.97.106 1-1.654 1-1.654s1.428-8.005 2.252-7.887c.824.118.156 4.848-.187 6.426-.338 1.559.267 2.354 1.082 1.93.555-.289 1.717-5.1 2.019-6.666.302-1.566 1.053-5.884 2.414-3.455 1.36 2.429 3.322 3.783 4.107 3.781a.88.88 0 00.756-.672.87.87 0 00-.386-.934z" fill="#B78876"/><path d="M52.288 262.256l14.2 15.894 44.846-45.257a31.923 31.923 0 009.2-20.739l1.916-35.4-29.125-17.783 2.334 49.583a19.567 19.567 0 01-5.48 14.523l-37.891 39.179z" fill="#FDBC5A"/><path d="M87.475 160.335c-.27.362-1.267 22.9 16.766 25.721 1.079.168 7.594.826 7.594.826 20.462-.158 48.07-.942 48.07-.942l-4.584 62.912 21.725.079 6.613-67.171c1.454-18.6-14.253-21.812-22.9-21.981l-41.613-.42-31.671.976z" fill="#FDBC5A"/><path d="M108.663 160.34a4.198 4.198 0 01-.544 2.027 7.966 7.966 0 01-8.5 4.477 4.192 4.192 0 01-1.98-.7c.03-.084.774.218 2.026.332a8.264 8.264 0 008.124-4.279c.616-1.096.788-1.881.874-1.857zM165.618 181.761a22.247 22.247 0 01-5.492 3.983 22.222 22.222 0 015.492-3.983zM166.519 185.473c-2.149.585-4.376.83-6.6.724a21.332 21.332 0 016.6-.724z" fill="#38557D"/><path d="M97.658 94.969a7.593 7.593 0 007.63-7.844 1850.37 1850.37 0 00-.295-8.314s6.207-1.032 6.218-7.248c.011-6.216-1.212-20.477-1.212-20.477a21.6 21.6 0 00-21.676 2.956l-.914.718 2.724 33.236a7.593 7.593 0 007.525 6.973z" fill="#B78876"/><path d="M107.832 62.178a.9.9 0 111.2-1.34.9.9 0 01-1.2 1.34z" fill="#1C2E5C"/><path d="M110.169 60.963c-.1.108-.712-.355-1.568-.35-.856.005-1.472.453-1.568.344-.047-.048.048-.243.317-.452a2.11 2.11 0 012.5 0c.271.212.366.412.319.458zM99.669 61.59a.902.902 0 01.424.905.904.904 0 01-.672.739.9.9 0 11.248-1.644z" fill="#1C2E5C"/><path d="M100.885 61.823c-.1.11-.712-.355-1.568-.35-.856.005-1.472.454-1.568.345-.047-.049.048-.244.317-.453a2.111 2.111 0 012.5 0c.271.214.366.41.319.458zM104.386 68.225a4.2 4.2 0 011.382-.306c.223-.028.4-.08.413-.2a1.214 1.214 0 00-.167-.64l-.695-1.732a23.751 23.751 0 01-1.513-4.557 23.75 23.75 0 011.967 4.38c.228.6.445 1.177.659 1.746.147.287.194.614.133.93a.588.588 0 01-.383.362 1.451 1.451 0 01-.381.054c-.471.069-.949.056-1.415-.037z" fill="#1C2E5C"/><path d="M101.615 69.2a10.2 10.2 0 004.211 1.177 2.368 2.368 0 01-2.782.97c-1.867-.661-1.429-2.146-1.429-2.146z" fill="#fff"/><path d="M104.999 78.721a14.46 14.46 0 01-8.127-2.218s1.962 4.453 8.159 3.828l-.032-1.61z" fill="#A36957"/><path d="M86.699 60.37a6.6 6.6 0 00-.183-3.67 11.968 11.968 0 01-.656-3.649 3.2 3.2 0 011.9-2.945c.839-.283 1.779-.06 2.63-.3a5.799 5.799 0 002.19-1.562 17.766 17.766 0 018.938-4.469 4.925 4.925 0 012.906.154 2.068 2.068 0 011.232 2.393 11.428 11.428 0 013.954-1.637 3.88 3.88 0 013.809 1.452c.779 1.206.277 3.163-1.114 3.517a3.065 3.065 0 012.29 3.726 4.494 4.494 0 01-3.514 3.088 8.758 8.758 0 01-4.83-.6c-1.538-.582-2.986-1.384-4.517-1.984a5.034 5.034 0 01-4.511 1.951 14.835 14.835 0 01-4.91-1.449c.294 1.773.142 3.59-.441 5.29a15.389 15.389 0 00-.93 1.992 16.208 16.208 0 00-.16 2.954c-.088.985-.625 2.082-1.6 2.235a2 2 0 01-2.008-1.442 6.893 6.893 0 01-.163-2.659c.046-.893-.752-1.583-.313-2.38" fill="#1C2E5C"/><path d="M88.299 62.382a.936.936 0 00-.961-.872c-1.157.05-3.012.646-2.96 3.845.076 4.57 4.372 3.118 4.378 2.987.007-.103-.315-4.192-.457-5.96z" fill="#B78876"/><path d="M87.627 66.624c-.021-.013-.08.059-.213.122a.793.793 0 01-.6.023 1.974 1.974 0 01-.94-1.754c-.02-.391.049-.782.2-1.144a.918.918 0 01.589-.62.4.4 0 01.473.21c.064.128.036.22.06.227.026.006.1-.079.058-.267a.51.51 0 00-.185-.283.6.6 0 00-.442-.11 1.119 1.119 0 00-.82.723 2.7 2.7 0 00-.255 1.279 2.066 2.066 0 001.193 1.954.848.848 0 00.726-.133c.149-.115.172-.219.156-.227z" fill="#A36957"/><path d="M100.713 58.516c-.024.15-.993.083-2.126.36-1.136.258-1.974.751-2.062.627-.092-.1.687-.844 1.943-1.135a2.837 2.837 0 012.245.148zM103.23 75.972c-.144-.005-.242-.634-.218-1.406.024-.772.159-1.394.3-1.39.141.004.241.634.217 1.406-.024.772-.156 1.394-.299 1.39zM104.47 75.534c-.144 0-.261-.528-.26-1.18.001-.65.117-1.178.261-1.178.144 0 .26.528.26 1.179 0 .65-.118 1.179-.261 1.179zM105.834 75.185c-.144.012-.3-.448-.347-1.027-.047-.58.029-1.058.172-1.07.143-.012.3.448.347 1.027.047.579-.029 1.058-.172 1.07z" fill="#1C2E5C"/><path d="M139.327 97.016c-7.016-2.99-11.957-4.714-15.822-6.818-12.019-6.543-14.927-4.692-17.654-4.835a26.348 26.348 0 01-15.833 1.133c-6.97.8-11.04 4.08-18.822 7.2l-15.562 8.352 11.228 15.631 14.4-4.808c1.194 6 1.48 10.789 2.282 18.078l1.527 29.415 43.638-.67-4.425-27.959-2.65-22.054 12.835 5.293 4.854-17.962" fill="#0FA6AF"/><path opacity=".4" d="M124.099 90.422c.006-.005.046.03.118.109.11.113.201.245.268.39a2.037 2.037 0 01-.122 1.784 4.043 4.043 0 01-2.128 1.9c-1.215.347-2.47.528-3.732.538a9.788 9.788 0 00-2.1.346 7.52 7.52 0 00-2.033 1.027c-1.3.935-2.442 2.251-3.834 3.48a8.729 8.729 0 01-2.426 1.559 5.52 5.52 0 01-3.016.307c-2.071-.363-3.808-1.633-5.7-2.475a10.936 10.936 0 00-5.906-.805c-1.889.256-3.76.626-5.606 1.108a24.733 24.733 0 01-5.189.733 9.833 9.833 0 01-4.495-.907 6.474 6.474 0 01-2.7-2.645 5.015 5.015 0 01-.648-2.778c.05-.608.254-1.193.594-1.7.12-.173.262-.33.422-.466a4.109 4.109 0 00-.814 2.18 4.9 4.9 0 00.7 2.624 6.237 6.237 0 002.61 2.459c1.36.598 2.84.872 4.324.8a24.835 24.835 0 005.086-.768 46.63 46.63 0 015.661-1.15 11.4 11.4 0 016.172.838c1.952.88 3.663 2.116 5.571 2.448.923.17 1.875.077 2.749-.267a8.285 8.285 0 002.294-1.46c1.363-1.181 2.532-2.507 3.9-3.468a7.882 7.882 0 012.167-1.066 10.049 10.049 0 012.188-.326c1.233.01 2.462-.14 3.657-.445a3.879 3.879 0 002.049-1.718 1.968 1.968 0 00.206-1.65c-.143-.367-.318-.513-.287-.535zM120.766 110.922c-.11.213-.244.412-.4.593a7.645 7.645 0 01-1.513 1.4 8.486 8.486 0 01-2.982 1.341 8.121 8.121 0 01-4.327-.134c-1.554-.468-3.061-1.432-4.839-1.837a8.25 8.25 0 00-5.579 1.155 24.407 24.407 0 01-6.079 2.67 13.75 13.75 0 01-7.132-.336 13.445 13.445 0 01-3.29-1.6c-1-.668-1.9-1.421-2.8-2.108a13.78 13.78 0 00-2.809-1.736c-.974-.41-2-.684-3.048-.814a58.318 58.318 0 00-5.94-.26 16.562 16.562 0 01-5.176-.855 7.135 7.135 0 01-3.48-2.564 5.972 5.972 0 01-1.121-3.07 4.034 4.034 0 01.365-2.031c.097-.22.225-.425.382-.609.026.015-.117.221-.286.65a4.164 4.164 0 00-.259 1.975 5.86 5.86 0 001.155 2.915 6.877 6.877 0 003.37 2.388c1.637.52 3.345.78 5.063.77 2-.035 4 .037 5.992.215 1.093.129 2.164.409 3.18.833a14.198 14.198 0 012.919 1.787c.921.693 1.814 1.438 2.783 2.083.98.651 2.045 1.166 3.163 1.532a13.32 13.32 0 006.862.333 24.324 24.324 0 005.974-2.6 13.006 13.006 0 012.915-1.118 6.599 6.599 0 012.972-.03c1.883.456 3.366 1.441 4.858 1.909a7.903 7.903 0 004.152.2 8.532 8.532 0 002.931-1.224 10.756 10.756 0 002.024-1.823zM136.722 104.332c.018.089-.832.219-2.008.88a27.619 27.619 0 00-4.192 3.246 10.626 10.626 0 01-4.775 2.547 3.421 3.421 0 01-2.239-.184c.726.013 1.451-.046 2.165-.177a11.664 11.664 0 004.515-2.585 20.99 20.99 0 014.358-3.175 4.168 4.168 0 012.176-.552zM122.233 128.73a1.05 1.05 0 01-.154.407 2.687 2.687 0 01-.838.932 5.18 5.18 0 01-4.468.514c-1.882-.509-3.854-1.768-6.354-1.912a21.784 21.784 0 00-7.985 1.2 52.037 52.037 0 01-7.975 2.1 12.392 12.392 0 01-6.7-.729 8.16 8.16 0 01-3.593-2.781 5.092 5.092 0 01-.6-1.087 1.373 1.373 0 01-.134-.412c.05-.024.255.543.9 1.378a8.322 8.322 0 003.569 2.561c2.07.782 4.314.99 6.493.6a55.222 55.222 0 007.892-2.128 21.703 21.703 0 018.177-1.176c1.215.112 2.405.414 3.527.894 1.046.43 1.988.873 2.888 1.143a5.075 5.075 0 004.251-.328c.447-.309.824-.71 1.104-1.176zM126.557 146.482c.022.157.017.318-.016.474a2.833 2.833 0 01-.572 1.239 5.189 5.189 0 01-4.591 1.655 15.179 15.179 0 01-3.324-.9 15.975 15.975 0 00-3.71-1.02c-2.7-.361-5.638.583-8.607 1.645-1.5.529-2.972 1.051-4.443 1.418a17.46 17.46 0 01-4.342.522 18.18 18.18 0 01-7.185-1.572 16.964 16.964 0 01-4.19-2.654 10.572 10.572 0 01-.97-.935c-.21-.225-.313-.349-.3-.362a21.681 21.681 0 005.606 3.613 18.309 18.309 0 007.04 1.43 17.28 17.28 0 004.217-.537c1.438-.365 2.894-.884 4.393-1.414 2.969-1.06 6-2.033 8.84-1.63 1.306.206 2.583.572 3.8 1.091 1.036.431 2.117.747 3.223.941a5.052 5.052 0 004.387-1.419 3.558 3.558 0 00.744-1.585z" fill="#000"/><path opacity=".4" d="M92.243 110.17a12.384 12.384 0 01-1.908-2.206 12.356 12.356 0 01-1.77-2.318 10.054 10.054 0 013.678 4.524zM117.435 103.658a17.66 17.66 0 01-4.155 4.381 17.608 17.608 0 014.155-4.381zM131.487 102.278a6.04 6.04 0 01-2.125-1.27c-1.087-.817-1.9-1.572-1.811-1.687a6.055 6.055 0 012.124 1.27c1.087.817 1.898 1.572 1.812 1.687zM68.812 99.166a3.53 3.53 0 01-.27 2.301c-.436 1.226-1.143 2.03-1.253 1.947.175-.734.43-1.446.762-2.123.175-.734.43-1.446.76-2.124zM93.005 144.356c-.113.09-.968-.8-1.91-1.985a7.455 7.455 0 01-1.5-2.309c.113-.089.968.8 1.91 1.985a7.462 7.462 0 011.5 2.309zM105.499 138.657a18.385 18.385 0 01-4.434 4.264 18.238 18.238 0 014.434-4.264zM120.989 142.805a15.373 15.373 0 01-4.563-3.326 15.469 15.469 0 014.563 3.326zM96.419 121.224a11.11 11.11 0 01-2.784 1.906 11.11 11.11 0 01-3.045 1.455 11.03 11.03 0 012.785-1.906 11.111 11.111 0 013.044-1.455zM110.076 122.384a4.518 4.518 0 01-3.779-3.192c.136-.07.711.9 1.749 1.762 1.038.862 2.076 1.284 2.03 1.43zM91.322 91.539c.059.13-.853.674-2.037 1.213a5.546 5.546 0 01-2.253.738c-.059-.13.853-.673 2.037-1.212a5.557 5.557 0 012.253-.74zM105.39 93.854a13.689 13.689 0 01-4.7-2.473c1.713.51 3.31 1.35 4.7 2.473zM117.268 89.868a10.88 10.88 0 01-4.707.458 10.87 10.87 0 014.707-.458zM93.969 157.51c-.087.115-1.013-.443-2.068-1.244-1.055-.801-1.84-1.545-1.752-1.659.087-.114 1.013.442 2.068 1.244 1.055.802 1.839 1.545 1.752 1.659zM112.556 154.396c.1.091-.623 1.054-1.839 1.882a4.591 4.591 0 01-2.42 1.033 12.839 12.839 0 012.126-1.463 12.815 12.815 0 012.133-1.452zM124.689 158.153a12.22 12.22 0 01-4.495-2.218 12.15 12.15 0 014.495 2.218z" fill="#000"/><path d="M168.413 180.594c-.254.056-.512.09-.772.1-.508.052-1.258.106-2.224.161-1.933.118-4.731.237-8.189.357-6.917.23-16.475.461-27.035.517-5.282.014-10.312.02-14.9-.2a22.329 22.329 0 01-11.508-3.789 17.273 17.273 0 01-5.443-6.112 13.151 13.151 0 01-1.093-2.807c.066-.024.358 1.016 1.272 2.711a17.617 17.617 0 005.472 5.9 22.207 22.207 0 0011.327 3.614c4.557.193 9.591.174 14.868.159 10.554-.056 20.11-.228 27.027-.365l8.19-.19 2.226-.063a4.44 4.44 0 01.782.007z" fill="#38557D"/></svg>