<svg width="455" height="350" viewBox="0 0 455 417" fill="none" xmlns="http://www.w3.org/2000/svg">
<path d="M363.337 125.578H442.776C442.776 125.578 435.752 112.795 415.304 114.655C395.775 116.432 394.782 108.366 384.852 107.373C374.922 106.38 366.647 113.993 363.337 125.578Z" fill="#F5F5F5"/>
<path d="M22.0786 82.3166H101.518C101.518 82.3166 94.4986 69.5376 74.0456 71.3986C54.5166 73.1756 53.5236 65.1096 43.5936 64.1166C33.6636 63.1236 25.3886 70.7366 22.0786 82.3166Z" fill="#F5F5F5"/>
<path d="M165.442 23.0846H265.699C265.699 23.0846 256.834 6.95157 231.028 9.29957C206.383 11.5426 205.128 1.36257 192.598 0.109566C180.068 -1.14343 169.619 8.46457 165.442 23.0846Z" fill="#E0E0E0"/>
<path d="M402.769 396.856C389.11 388.156 385.369 371.09 385.227 355.608C385.204 353.024 384.804 350.316 385.934 347.999C387.064 345.682 389.863 344.012 392.22 344.999C394.175 345.819 395.106 348.012 396.257 349.81C397.795 352.207 399.979 354.121 402.557 355.331C404.237 356.113 406.292 356.547 407.876 355.583C410.05 354.26 410.176 351.173 410.054 348.607C409.819 343.825 409.586 339.043 409.354 334.261C409.091 331.701 409.242 329.116 409.802 326.605C410.496 324.135 412.163 321.797 414.575 321.005C416.987 320.213 420.067 321.495 420.69 323.985C420.831 325.043 420.901 326.11 420.9 327.178C420.906 327.71 421.069 328.23 421.37 328.67C421.67 329.11 422.094 329.451 422.588 329.651C423.625 329.909 424.621 329.137 425.356 328.351C427.894 325.646 429.549 322.231 431.086 318.839C432.623 315.447 434.109 311.979 436.392 309.049C438.675 306.119 441.903 303.738 445.569 303.372C449.235 303.006 453.25 305.107 454.333 308.672C455.416 312.237 453.466 316.012 451.294 319.039C448.073 323.53 444.219 327.532 439.853 330.92C438.999 331.443 438.334 332.224 437.953 333.151C437.469 334.886 439.163 336.516 440.876 337.006C442.817 337.561 444.884 337.273 446.895 337.423C448.906 337.573 451.112 338.363 451.95 340.223C453.114 342.801 451.038 345.645 448.956 347.538C444.786 351.331 439.994 354.377 434.791 356.544C432.867 357.168 431.073 358.139 429.499 359.409C428.033 360.801 427.213 363.147 428.211 364.915C429.209 366.683 431.594 367.163 433.556 366.715C435.518 366.267 437.242 365.115 439.096 364.322C442.566 362.84 447.131 362.888 449.521 365.839C450.255 366.858 450.743 368.034 450.946 369.274C451.149 370.513 451.063 371.783 450.693 372.984C449.934 375.374 448.704 377.588 447.074 379.494C441.772 386.448 434.719 391.869 426.636 395.205C418.576 398.393 411.028 399.485 402.77 396.86" fill="#0FA6AF"/>
<path d="M403.057 408.325C403.468 401.126 404.569 393.983 406.344 386.993C408.549 378.462 411.243 370.065 414.412 361.842C415.241 359.654 416.059 357.492 416.866 355.358C417.676 353.232 418.479 351.123 419.392 349.109C421.153 345.246 423.126 341.484 425.303 337.838C427.356 334.343 429.432 331.102 431.395 328.086C433.358 325.07 435.255 322.299 437.085 319.844C439.953 315.955 443.125 312.3 446.573 308.914C447.79 307.714 448.765 306.814 449.434 306.214L450.198 305.537C450.281 305.456 450.372 305.383 450.469 305.318C450.398 305.411 450.318 305.497 450.231 305.573L449.498 306.285C448.851 306.908 447.898 307.827 446.698 309.044C443.31 312.472 440.185 316.149 437.348 320.044C435.54 322.504 433.671 325.282 431.719 328.301C429.767 331.32 427.71 334.569 425.672 338.06C423.515 341.698 421.558 345.45 419.81 349.3C418.91 351.3 418.11 353.4 417.3 355.527C416.49 357.654 415.677 359.82 414.85 362.008C411.688 370.214 408.987 378.591 406.761 387.098C404.973 394.058 403.843 401.17 403.386 408.34" fill="#1C2E5C"/>
<path d="M419.527 349.086C419.388 348.736 419.287 348.373 419.227 348.002C419.062 347.302 418.857 346.273 418.621 345.002C418.149 342.462 417.621 338.932 417.044 335.039C416.467 331.146 415.89 327.631 415.381 325.105C415.129 323.842 414.916 322.821 414.759 322.117C414.654 321.756 414.59 321.384 414.568 321.009C414.729 321.348 414.852 321.704 414.936 322.071C415.148 322.762 415.413 323.771 415.706 325.033C416.306 327.55 416.938 331.068 417.506 334.967C418.062 338.811 418.563 342.289 418.947 344.946C419.128 346.146 419.281 347.155 419.404 347.966C419.485 348.334 419.526 348.709 419.527 349.086V349.086Z" fill="#1C2E5C"/>
<path d="M452.26 341.506C451.831 341.617 451.392 341.689 450.95 341.72C450.107 341.832 448.885 341.986 447.383 342.226C444.375 342.682 440.241 343.457 435.718 344.511C431.195 345.565 427.144 346.711 424.238 347.617C422.78 348.06 421.611 348.45 420.801 348.717C420.389 348.88 419.962 349.004 419.527 349.088C419.913 348.868 420.318 348.685 420.739 348.542C421.531 348.223 422.687 347.783 424.139 347.297C427.027 346.305 431.079 345.114 435.615 344.047C439.484 343.129 443.397 342.41 447.34 341.893C448.853 341.693 450.084 341.593 450.94 341.537C451.378 341.484 451.82 341.474 452.26 341.506Z" fill="#1C2E5C"/>
<path d="M406.724 386.368C406.624 386.25 406.542 386.118 406.48 385.977C406.314 385.66 406.111 385.277 405.865 384.807C405.335 383.789 404.607 382.296 403.731 380.44C401.977 376.728 399.716 371.523 397.298 365.747C394.88 359.971 392.669 354.753 390.998 351.01L389.003 346.582C388.788 346.099 388.611 345.7 388.466 345.372C388.393 345.235 388.34 345.088 388.308 344.937C388.406 345.057 388.488 345.189 388.552 345.331L389.167 346.5C389.697 347.518 390.425 349.011 391.301 350.867C393.055 354.579 395.316 359.783 397.735 365.561C400.154 371.339 402.363 376.554 404.035 380.298C404.855 382.116 405.529 383.614 406.03 384.725L406.567 385.932C406.639 386.07 406.691 386.217 406.724 386.368V386.368Z" fill="#1C2E5C"/>
<path d="M449.966 370.358C449.833 370.444 449.689 370.512 449.539 370.558L448.284 371.039L443.653 372.762C439.744 374.218 434.368 376.29 428.43 378.588C422.492 380.886 417.089 382.912 413.149 384.288C411.179 384.976 409.579 385.517 408.466 385.868L407.182 386.268C407.035 386.325 406.881 386.361 406.724 386.375C406.857 386.29 407 386.223 407.151 386.175L408.406 385.694L413.036 383.971C416.945 382.516 422.323 380.443 428.262 378.145C434.201 375.847 439.6 373.822 443.541 372.445C445.511 371.756 447.11 371.216 448.224 370.865L449.508 370.465C449.655 370.409 449.809 370.373 449.966 370.358Z" fill="#1C2E5C"/>
<path d="M1.44678 377.309C2.62034 377.038 3.83637 377.008 5.022 377.219C6.20764 377.43 7.33848 377.878 8.34678 378.537C10.3583 379.869 12.0379 381.644 13.2568 383.726C15.7198 387.667 16.5658 392.95 16.6488 397.597C11.4928 397.359 7.10878 393.28 5.01478 391.071C1.70578 387.579 -2.15622 379.26 1.44778 377.309" fill="#0FA6AF"/>
<path d="M24.9298 400.751C23.9007 399.883 23.1197 398.758 22.6659 397.49C22.212 396.223 22.1016 394.857 22.3458 393.533C22.6127 392.215 23.1392 390.963 23.8946 389.851C24.65 388.738 25.6192 387.787 26.7458 387.052C27.2273 386.659 27.7888 386.376 28.3911 386.223C28.9934 386.069 29.622 386.049 30.2328 386.164C30.7792 386.365 31.2621 386.708 31.6313 387.158C32.0005 387.608 32.2427 388.148 32.3328 388.723C32.497 389.878 32.3532 391.056 31.9158 392.137C30.5928 395.889 28.6238 399.276 24.9298 400.751Z" fill="#0FA6AF"/>
<path d="M29.6149 415.46C29.4057 415.208 29.2327 414.928 29.1009 414.628C28.8009 414.078 28.3839 413.273 27.9009 412.262C26.5804 409.636 25.6191 406.845 25.0429 403.962C24.4805 401.043 24.7203 398.025 25.7369 395.231C26.0578 394.395 26.4817 393.602 26.9989 392.871C27.171 392.591 27.3875 392.34 27.6399 392.129C27.0372 393.163 26.5166 394.243 26.0829 395.358C25.197 398.107 25.0157 401.035 25.5559 403.872C26.1323 406.711 27.0315 409.474 28.2359 412.108C28.7638 413.196 29.2243 414.316 29.6149 415.46V415.46Z" fill="#1C2E5C"/>
<path d="M4.94678 383.385C5.35179 383.739 5.72581 384.126 6.06478 384.544C6.75978 385.312 7.74578 386.444 8.95078 387.844C11.3598 390.656 14.6238 394.597 18.1198 399.036C21.6158 403.475 24.6828 407.574 26.8518 410.575C27.9368 412.075 28.8018 413.299 29.3858 414.155C29.7121 414.583 30.0015 415.039 30.2508 415.517C29.8733 415.134 29.5294 414.719 29.2228 414.278C28.5368 413.384 27.6398 412.213 26.5568 410.799C24.3128 407.856 21.2038 403.799 17.7108 399.362C14.2178 394.925 11.0028 390.955 8.66778 388.084C7.54678 386.7 6.61878 385.552 5.90978 384.676C5.55259 384.274 5.23041 383.842 4.94678 383.385V383.385Z" fill="#1C2E5C"/>
<path d="M21.4466 406.482C19.215 404.729 16.598 403.533 13.8121 402.993C11.0262 402.452 8.15167 402.584 5.42657 403.375C4.04657 403.79 2.51757 404.632 2.37857 406.066C2.23957 407.5 3.58657 408.626 4.87857 409.266C7.60042 410.559 10.6441 411.017 13.6259 410.583C16.6076 410.148 19.3939 408.84 21.6336 406.824" fill="#0FA6AF"/>
<path d="M8.85254 406C9.13776 405.867 9.44099 405.777 9.75254 405.731C10.1065 405.639 10.4668 405.572 10.8305 405.531C11.3103 405.454 11.7941 405.405 12.2795 405.384C13.5445 405.312 14.8136 405.367 16.0675 405.549C17.6026 405.789 19.1078 406.191 20.5575 406.749C21.9988 407.334 23.3733 408.072 24.6575 408.949C25.6972 409.674 26.6608 410.502 27.5335 411.42C27.8731 411.768 28.1923 412.136 28.4895 412.52C28.7273 412.799 28.9445 413.094 29.1395 413.403C29.3346 413.649 29.493 413.921 29.6095 414.212C29.5265 414.272 28.7905 413.161 27.2725 411.681C26.3811 410.82 25.4153 410.039 24.3865 409.347C23.1196 408.515 21.7742 407.808 20.3695 407.237C18.955 406.693 17.4907 406.288 15.9975 406.028C14.7747 405.829 13.5365 405.738 12.2975 405.757C10.1695 405.793 8.87254 406.1 8.85254 406Z" fill="#1C2E5C"/>
<path d="M59.999 195.976L331.848 55.8858L314.402 31.2658L403.202 23.2808L363.155 95.1748L344.534 71.8748L69.081 223.173L59.999 195.976Z" fill="#0FA6AF"/>
<path d="M107.153 295.531H44.5356V416.151H107.153V295.531Z" fill="#1C2E5C"/>
<path d="M90.0858 295.531H27.4688V416.151H90.0858V295.531Z" fill="#38557D"/>
<path d="M204.866 255.296H142.249V416.15H204.866V255.296Z" fill="#1C2E5C"/>
<path d="M185.949 255.296H123.332V416.15H185.949V255.296Z" fill="#38557D"/>
<path d="M305.372 204.336H242.755V416.15H305.372V204.336Z" fill="#1C2E5C"/>
<path d="M286.562 204.336H223.945V416.15H286.562V204.336Z" fill="#38557D"/>
<path d="M406.305 159.708H343.688V416.151H406.305V159.708Z" fill="#1C2E5C"/>
<path d="M381.363 159.708H318.746V416.151H381.363V159.708Z" fill="#38557D"/>
<path d="M61.6647 276.416L67.4987 271.616L58.5807 260.627L49.9688 267.556L50.4788 268.273C52.7708 271.442 62.3577 284.224 64.6167 285.752C67.1387 287.459 61.6647 276.416 61.6647 276.416Z" fill="#0FA6AF"/>
<g opacity="0.5">
<path opacity="0.5" d="M53.2907 271.473C54.086 270.559 54.5152 269.384 54.4957 268.173C54.4854 266.977 54.0264 265.829 53.2097 264.956L50.1367 267.446L53.2907 271.473Z" fill="white"/>
</g>
<g opacity="0.4">
<path opacity="0.4" d="M64.1767 281.943C64.1767 281.943 65.8887 285.982 65.0187 286.011C64.1487 286.04 53.9747 273.488 49.9707 267.558L50.2307 267.377L61.9737 282.116C61.9737 282.116 63.6307 281.325 64.1767 281.943Z" fill="white"/>
</g>
<path d="M50.0986 267.199C50.1359 267.272 50.1805 267.341 50.2316 267.405L50.6386 267.974L52.1726 270.042C53.4796 271.779 55.3176 274.155 57.4036 276.734C59.4896 279.313 61.4316 281.606 62.8576 283.246C63.5283 284.008 64.095 284.651 64.5576 285.177L65.0296 285.694C65.0819 285.757 65.1398 285.814 65.2026 285.867C65.1601 285.796 65.1109 285.729 65.0556 285.667L64.6076 285.129L62.9486 283.167C61.5486 281.507 59.6226 279.203 57.5356 276.626C55.4486 274.049 53.5986 271.686 52.2676 269.969L50.6906 267.934C50.5306 267.734 50.3906 267.549 50.2576 267.384C50.2103 267.317 50.1571 267.256 50.0986 267.199V267.199Z" fill="#1C2E5C"/>
<path d="M61.7988 282.256C62.5889 281.839 63.5019 281.719 64.3728 281.917C63.96 281.706 63.4928 281.625 63.0331 281.686C62.5734 281.746 62.143 281.945 61.7988 282.256V282.256Z" fill="#1C2E5C"/>
<path d="M60.8167 277.677C60.1332 277.936 59.5739 278.445 59.2528 279.101C58.9318 279.758 58.8732 280.512 59.089 281.21C59.3048 281.908 59.7787 282.497 60.4142 282.858C61.0496 283.219 61.7987 283.324 62.5088 283.151C63.2188 282.978 63.8362 282.542 64.2353 281.929C64.6343 281.317 64.7848 280.576 64.6561 279.857C64.5274 279.137 64.1292 278.494 63.5427 278.059C62.9562 277.623 62.2255 277.427 61.4997 277.511C61.2621 277.512 61.028 277.569 60.8167 277.677V277.677Z" fill="#1C2E5C"/>
<path d="M60.5656 276.405C60.5586 276.452 60.8146 276.532 61.1386 276.583C61.4626 276.634 61.7306 276.638 61.7386 276.592C61.7466 276.546 61.4906 276.465 61.1666 276.414C60.8426 276.363 60.5736 276.358 60.5656 276.405Z" fill="#1C2E5C"/>
<path d="M61.1477 275.001C61.1097 275.031 61.2857 275.314 61.5387 275.634C61.7917 275.954 62.0287 276.19 62.0657 276.161C62.1027 276.132 61.9277 275.848 61.6737 275.528C61.4197 275.208 61.1847 274.972 61.1477 275.001Z" fill="#1C2E5C"/>
<path d="M61.7227 274.217C61.7505 274.508 61.8663 274.784 62.0547 275.008C62.3277 275.408 62.6547 275.633 62.6787 275.597C62.5389 275.354 62.3776 275.124 62.1967 274.91C62.0601 274.665 61.9014 274.433 61.7227 274.217V274.217Z" fill="#1C2E5C"/>
<path d="M62.0779 277.272C62.228 277.538 62.4232 277.775 62.6549 277.972C62.8938 278.202 63.1536 278.409 63.4309 278.59C63.5949 278.706 63.7713 278.802 63.9569 278.877C64.073 278.923 64.2019 278.923 64.3179 278.877C64.3803 278.847 64.4324 278.799 64.4679 278.739C64.5034 278.679 64.5208 278.611 64.5179 278.541C64.4317 278.165 64.2172 277.829 63.9111 277.593C63.605 277.357 63.2264 277.234 62.8399 277.246C62.6125 277.25 62.3884 277.302 62.1819 277.397C62.0379 277.467 61.9709 277.525 61.9769 277.534C62.2527 277.429 62.5448 277.373 62.8399 277.367C63.1549 277.377 63.4607 277.476 63.7209 277.653C63.8787 277.753 64.0153 277.882 64.1226 278.035C64.2298 278.187 64.3058 278.359 64.3459 278.541C64.3539 278.721 64.1869 278.784 64.0109 278.72C63.8389 278.651 63.6744 278.563 63.5199 278.46C63.2459 278.289 62.9854 278.098 62.7409 277.886C62.3189 277.523 62.0989 277.255 62.0779 277.272Z" fill="#1C2E5C"/>
<path d="M62.1917 277.485C62.4094 277.451 62.6073 277.338 62.7477 277.169C62.9148 276.997 63.0382 276.787 63.1077 276.558C63.1649 276.413 63.1842 276.256 63.1637 276.102C63.1433 275.948 63.0837 275.801 62.9907 275.677C62.9174 275.618 62.8244 275.59 62.7312 275.599C62.638 275.608 62.5517 275.653 62.4907 275.724C62.3906 275.831 62.3158 275.96 62.2717 276.1C62.1908 276.319 62.1381 276.547 62.1147 276.78C62.0757 276.992 62.0901 277.21 62.1567 277.416C62.1837 277.416 62.1697 277.173 62.2347 276.797C62.2738 276.577 62.3358 276.363 62.4197 276.157C62.4897 275.939 62.7047 275.657 62.8797 275.807C62.9456 275.911 62.9869 276.029 63.0005 276.152C63.014 276.274 62.9993 276.398 62.9577 276.515C62.9006 276.725 62.7982 276.92 62.6577 277.087C62.5148 277.233 62.3588 277.366 62.1917 277.485Z" fill="#1C2E5C"/>
<path d="M53.2878 264.986C53.2648 265.008 53.5728 265.276 53.9168 265.821C54.3712 266.526 54.616 267.346 54.6229 268.185C54.6298 269.024 54.3985 269.848 53.9558 270.561C53.6208 271.11 53.3168 271.383 53.3408 271.406C53.4244 271.358 53.4994 271.298 53.5628 271.226C53.7484 271.043 53.9143 270.842 54.0578 270.626C54.5449 269.905 54.8019 269.053 54.7949 268.184C54.788 267.314 54.5174 266.466 54.0188 265.754C53.8712 265.539 53.7016 265.341 53.5128 265.162C53.3778 265.037 53.2988 264.978 53.2878 264.986Z" fill="#1C2E5C"/>
<path d="M58.7867 262.417C57.9747 262.949 57.1947 263.528 56.4507 264.152C55.672 264.731 54.9277 265.355 54.2217 266.022C55.0336 265.489 55.8137 264.91 56.5577 264.286C57.3364 263.707 58.0807 263.083 58.7867 262.417V262.417Z" fill="#1C2E5C"/>
<path d="M55.4839 271.988C56.1419 273.212 57.0136 274.308 58.0579 275.226C58.0929 275.191 57.4679 274.507 56.7579 273.614C56.0479 272.721 55.5259 271.961 55.4839 271.988Z" fill="#1C2E5C"/>
<path d="M53.7409 269.831C53.6919 269.826 53.6409 270.013 53.5309 270.22C53.4209 270.427 53.3119 270.585 53.3449 270.62C53.3779 270.655 53.5649 270.536 53.6849 270.296C53.8049 270.056 53.7869 269.833 53.7409 269.831Z" fill="#1C2E5C"/>
<path d="M54.0929 268.199C54.0459 268.193 53.9929 268.357 53.9659 268.564C53.9389 268.771 53.9659 268.944 54.0099 268.949C54.0539 268.954 54.1099 268.79 54.1369 268.583C54.1639 268.376 54.1399 268.204 54.0929 268.199Z" fill="#1C2E5C"/>
<path d="M53.6129 266.663C53.5819 266.701 53.7019 266.846 53.7759 267.054C53.8499 267.262 53.8579 267.448 53.9069 267.454C53.9559 267.46 54.0319 267.248 53.9369 266.992C53.8419 266.736 53.6379 266.625 53.6129 266.663Z" fill="#1C2E5C"/>
<path d="M53.1609 265.659C53.1159 265.673 53.1099 265.782 53.1489 265.902C53.1879 266.022 53.2549 266.107 53.2999 266.093C53.3449 266.079 53.3509 265.969 53.3119 265.849C53.2729 265.729 53.2059 265.644 53.1609 265.659Z" fill="#1C2E5C"/>
<path d="M172.848 251.407L173.091 243.856L158.95 243.309L158.477 254.352L159.351 254.443C163.245 254.81 179.175 256.037 181.815 255.343C184.758 254.577 172.848 251.407 172.848 251.407Z" fill="#0FA6AF"/>
<g opacity="0.5">
<path opacity="0.5" d="M163.608 254.44C163.446 253.238 162.845 252.139 161.92 251.355C161.015 250.573 159.85 250.16 158.655 250.199L158.499 254.151L163.608 254.44Z" fill="white"/>
</g>
<g opacity="0.4">
<path opacity="0.4" d="M178.659 253.165C178.659 253.165 182.823 254.543 182.271 255.216C181.719 255.889 165.571 255.255 158.477 254.352L158.512 254.037L177.338 254.937C177.338 254.937 177.834 253.167 178.659 253.165Z" fill="white"/>
</g>
<path d="M158.29 254.017C158.369 254.036 158.45 254.048 158.532 254.053L159.232 254.122L161.798 254.334C163.966 254.497 166.964 254.683 170.278 254.816C173.592 254.949 176.597 255.003 178.771 255.016L181.345 255.01L182.045 254.996C182.126 254.998 182.208 254.992 182.289 254.98C182.208 254.966 182.126 254.96 182.045 254.962L181.345 254.943L178.772 254.895C176.6 254.853 173.599 254.78 170.285 254.648C166.971 254.516 163.975 254.348 161.806 254.216L159.238 254.059L158.538 254.021C158.455 254.012 158.372 254.01 158.29 254.017V254.017Z" fill="#1C2E5C"/>
<path d="M177.325 255.157C177.533 254.288 178.045 253.522 178.768 252.999C178.337 253.17 177.968 253.468 177.711 253.853C177.453 254.238 177.318 254.693 177.325 255.157Z" fill="#1C2E5C"/>
<path d="M173.236 252.876C173.275 252.903 173.484 252.668 173.703 252.351C173.922 252.034 174.068 251.751 174.029 251.729C173.99 251.707 173.781 251.936 173.562 252.253C173.343 252.57 173.199 252.849 173.236 252.876Z" fill="#1C2E5C"/>
<path d="M172.115 252.226C172.145 252.262 172.374 252.126 172.626 251.913C172.878 251.7 173.058 251.504 173.026 251.468C172.994 251.432 172.767 251.568 172.515 251.781C172.263 251.994 172.084 252.189 172.115 252.226Z" fill="#1C2E5C"/>
<path d="M171.443 250.863C171.675 250.958 171.926 251 172.177 250.986C172.425 251.026 172.679 251.009 172.92 250.937C172.44 250.798 171.934 250.772 171.443 250.863V250.863Z" fill="#1C2E5C"/>
<path d="M171.232 249.912C171.481 250.057 171.759 250.15 172.046 250.183C172.333 250.215 172.624 250.188 172.9 250.103C172.625 250.047 172.345 250.017 172.065 250.013C171.791 249.953 171.512 249.919 171.232 249.912V249.912Z" fill="#1C2E5C"/>
<path d="M173.764 251.661C174.063 251.724 174.37 251.734 174.673 251.691C175.003 251.663 175.33 251.604 175.649 251.516C175.843 251.468 176.032 251.399 176.211 251.309C176.322 251.252 176.406 251.154 176.447 251.036C176.464 250.969 176.461 250.899 176.439 250.833C176.418 250.768 176.377 250.71 176.324 250.667C175.984 250.483 175.59 250.423 175.211 250.497C174.831 250.572 174.489 250.775 174.244 251.074C174.096 251.249 173.987 251.453 173.924 251.674C173.892 251.751 173.881 251.835 173.891 251.918C173.994 251.641 174.144 251.384 174.335 251.159C174.55 250.927 174.828 250.763 175.135 250.685C175.313 250.632 175.501 250.615 175.686 250.635C175.872 250.655 176.051 250.712 176.215 250.802C176.355 250.914 176.292 251.082 176.128 251.171C175.962 251.255 175.788 251.322 175.609 251.371C175.299 251.464 174.983 251.533 174.663 251.578C174.111 251.646 173.765 251.633 173.764 251.661Z" fill="#1C2E5C"/>
<path d="M173.999 251.716C174.117 251.53 174.163 251.307 174.128 251.089C174.109 250.85 174.033 250.619 173.906 250.415C173.835 250.277 173.73 250.159 173.601 250.073C173.472 249.987 173.323 249.935 173.168 249.922C173.074 249.938 172.991 249.989 172.935 250.066C172.878 250.142 172.855 250.238 172.868 250.331C172.883 250.477 172.931 250.618 173.007 250.743C173.118 250.949 173.255 251.139 173.414 251.31C173.548 251.479 173.722 251.613 173.92 251.698C173.937 251.676 173.745 251.528 173.506 251.23C173.367 251.057 173.246 250.869 173.147 250.67C173.03 250.47 172.958 250.125 173.187 250.092C173.416 250.079 173.639 250.315 173.771 250.502C173.891 250.683 173.971 250.888 174.005 251.102C174.022 251.307 174.02 251.512 173.999 251.716V251.716Z" fill="#1C2E5C"/>
<path d="M158.73 250.161C158.73 250.193 159.137 250.138 159.773 250.239C160.603 250.363 161.381 250.72 162.016 251.269C162.652 251.818 163.118 252.536 163.361 253.339C163.553 253.953 163.561 254.361 163.59 254.359C163.61 254.265 163.614 254.169 163.602 254.073C163.587 253.814 163.545 253.556 163.477 253.305C163.257 252.464 162.786 251.709 162.128 251.141C161.47 250.572 160.654 250.217 159.79 250.121C159.531 250.091 159.27 250.087 159.011 250.11C158.915 250.111 158.82 250.128 158.73 250.161Z" fill="#1C2E5C"/>
<path d="M160.427 244.334C160.212 246.263 160.112 248.203 160.127 250.143C160.341 248.215 160.442 246.275 160.427 244.334V244.334Z" fill="#1C2E5C"/>
<path d="M165.442 253.13C166.796 253.444 168.195 253.512 169.573 253.33C169.573 253.28 168.644 253.301 167.506 253.243C166.368 253.185 165.449 253.081 165.442 253.13Z" fill="#1C2E5C"/>
<path d="M162.67 253.017C162.635 253.05 162.738 253.217 162.824 253.431C162.91 253.645 162.955 253.83 163.003 253.83C163.051 253.83 163.085 253.611 162.983 253.363C162.881 253.115 162.699 252.985 162.67 253.017Z" fill="#1C2E5C"/>
<path d="M161.677 251.676C161.642 251.708 161.728 251.859 161.868 252.013C162.008 252.167 162.151 252.266 162.186 252.234C162.221 252.202 162.135 252.051 161.995 251.897C161.855 251.743 161.712 251.644 161.677 251.676Z" fill="#1C2E5C"/>
<path d="M160.206 251.023C160.214 251.072 160.406 251.077 160.606 251.159C160.806 251.241 160.956 251.359 160.994 251.326C161.032 251.293 160.922 251.095 160.667 250.999C160.412 250.903 160.193 250.979 160.206 251.023Z" fill="#1C2E5C"/>
<path d="M159.153 250.701C159.134 250.745 159.212 250.821 159.328 250.871C159.444 250.921 159.552 250.926 159.571 250.883C159.59 250.84 159.512 250.764 159.396 250.713C159.28 250.662 159.172 250.658 159.153 250.701Z" fill="#1C2E5C"/>
<path d="M179.299 61.8704C178.034 61.5094 175.899 68.3244 175.507 66.5934C175.115 64.8624 179.089 58.5614 177.752 58.2384C176.009 57.8174 173.904 64.9934 173.68 65.5874C173.464 66.1644 172.591 65.8794 172.821 65.3544C173.152 64.5984 176.431 56.5764 174.721 56.1464C173.774 55.9084 173.504 57.6464 173.504 57.6464C173.504 57.6464 170.989 65.3784 170.19 65.1464C169.391 64.9144 170.702 60.3244 171.258 58.8074C171.807 57.3074 171.318 56.4394 170.452 56.7474C169.862 56.9574 168.052 61.5604 167.536 63.0724C167.02 64.5844 165.684 68.7564 164.67 66.1624C163.656 63.5684 161.899 61.9624 161.121 61.8534C160.94 61.8477 160.761 61.8986 160.61 61.9991C160.459 62.0996 160.344 62.2446 160.279 62.414C160.215 62.5834 160.205 62.7687 160.25 62.9441C160.296 63.1195 160.396 63.2762 160.535 63.3924C161.142 64.11 161.647 64.9087 162.035 65.7654C162.375 66.441 162.596 67.1699 162.689 67.9204C162.902 69.4235 162.965 70.9439 162.879 72.4594L149.22 100.872L124.145 93.0774L121.614 107.286C121.614 107.286 154.666 119.55 156.614 118.333C161.014 115.589 172.908 74.7334 172.908 74.7334C174.866 71.8916 176.669 68.9456 178.308 65.9084C180.107 62.1694 179.775 62.0044 179.299 61.8704Z" fill="#B78876"/>
<path d="M50.8986 157.883C50.1981 157.255 49.5883 156.534 49.0866 155.739C48.6577 155.116 48.3384 154.425 48.1426 153.695C47.8485 152.606 47.6185 151.501 47.4536 150.385C47.4536 150.385 56.0796 124.639 58.3656 120.656C60.6516 116.673 92.1056 105.345 92.1056 105.345L88.1586 89.6597C88.1586 89.6597 59.3636 101.228 48.3986 109.905C41.4256 115.423 36.4446 149.663 36.4396 149.693C35.1294 152.343 33.963 155.062 32.9456 157.839C31.6846 161.787 32.0366 161.905 32.5216 161.974C33.8216 162.157 35.0036 155.113 35.6276 156.774C36.2516 158.435 33.1836 165.222 34.5526 165.359C36.3376 165.536 37.4366 158.138 37.5756 157.519C37.7106 156.919 38.6146 157.08 38.4586 157.632C38.2356 158.426 36.0906 166.823 37.8416 167.014C38.8116 167.12 38.8416 165.36 38.8416 165.36C38.8416 165.36 40.2696 157.355 41.0936 157.473C41.9176 157.591 41.2496 162.321 40.9066 163.899C40.5686 165.458 41.1736 166.253 41.9886 165.829C42.5436 165.54 43.7056 160.729 44.0076 159.163C44.3096 157.597 45.0606 153.279 46.4216 155.708C47.7826 158.137 49.7436 159.491 50.5286 159.489C50.7089 159.469 50.8787 159.394 51.0143 159.274C51.15 159.154 51.2447 158.994 51.2854 158.817C51.3262 158.641 51.3108 158.456 51.2414 158.288C51.1721 158.121 51.0523 157.979 50.8986 157.883Z" fill="#B78876"/>
<path d="M52.2876 262.256L66.4876 278.15L111.334 232.893C116.837 227.34 120.11 219.96 120.534 212.154L122.45 176.754L93.3246 158.971L95.6586 208.554C95.7843 211.22 95.363 213.884 94.4206 216.382C93.4781 218.88 92.0345 221.158 90.1786 223.077L52.2876 262.256Z" fill="#FDBC5A"/>
<path d="M87.4746 160.335C87.2046 160.697 86.2076 183.235 104.241 186.056C105.32 186.224 111.835 186.882 111.835 186.882C132.297 186.724 159.905 185.94 159.905 185.94L155.321 248.852L177.046 248.931L183.659 181.76C185.113 163.16 169.406 159.948 160.759 159.779L119.146 159.359L87.4746 160.335Z" fill="#FDBC5A"/>
<path d="M108.663 160.34C108.656 161.051 108.469 161.749 108.119 162.367C107.382 163.937 106.154 165.223 104.62 166.031C103.085 166.839 101.33 167.125 99.6187 166.844C98.91 166.782 98.2287 166.542 97.6387 166.144C97.6697 166.06 98.4127 166.362 99.6647 166.476C101.29 166.646 102.929 166.33 104.375 165.568C105.821 164.807 107.009 163.634 107.789 162.197C108.405 161.101 108.577 160.316 108.663 160.34Z" fill="#38557D"/>
<path d="M165.618 181.761C164.002 183.361 162.15 184.705 160.126 185.744C161.742 184.143 163.594 182.8 165.618 181.761V181.761Z" fill="#38557D"/>
<path d="M166.519 185.473C164.37 186.058 162.143 186.303 159.919 186.197C162.068 185.613 164.295 185.368 166.519 185.473V185.473Z" fill="#38557D"/>
<path d="M97.6577 94.9685C98.6794 94.974 99.6917 94.7733 100.634 94.3783C101.576 93.9834 102.429 93.4023 103.142 92.6699C103.854 91.9375 104.411 91.0689 104.78 90.116C105.149 89.1632 105.321 88.1457 105.288 87.1245C105.152 82.9895 104.993 78.8115 104.993 78.8115C104.993 78.8115 111.2 77.7795 111.211 71.5635C111.222 65.3475 109.999 51.0865 109.999 51.0865C106.45 49.6048 102.57 49.0974 98.7589 49.6169C94.9483 50.1364 91.3455 51.6639 88.3227 54.0415L87.4087 54.7595L90.1327 87.9965C90.288 89.8891 91.1468 91.6548 92.5398 92.9454C93.9327 94.2361 95.7588 94.9579 97.6577 94.9685V94.9685Z" fill="#B78876"/>
<path d="M107.832 62.1785C107.7 62.06 107.605 61.9049 107.561 61.7328C107.516 61.5607 107.524 61.3793 107.582 61.2114C107.641 61.0436 107.748 60.8969 107.89 60.7898C108.032 60.6826 108.202 60.6199 108.379 60.6095C108.557 60.599 108.733 60.6414 108.887 60.7311C109.04 60.8209 109.164 60.9541 109.241 61.1139C109.319 61.2737 109.348 61.4529 109.324 61.629C109.3 61.8052 109.225 61.9702 109.107 62.1035C109.028 62.1925 108.933 62.2651 108.826 62.3171C108.72 62.369 108.604 62.3994 108.485 62.4064C108.367 62.4133 108.248 62.3968 108.136 62.3577C108.024 62.3186 107.92 62.2577 107.832 62.1785V62.1785Z" fill="#1C2E5C"/>
<path d="M110.169 60.9626C110.069 61.0706 109.457 60.6076 108.601 60.6126C107.745 60.6176 107.129 61.0656 107.033 60.9566C106.986 60.9086 107.081 60.7136 107.35 60.5046C107.712 60.2383 108.15 60.0947 108.6 60.0947C109.05 60.0947 109.488 60.2383 109.85 60.5046C110.121 60.7166 110.216 60.9166 110.169 60.9626Z" fill="#1C2E5C"/>
<path d="M99.6687 61.5905C99.8208 61.6825 99.9422 61.8175 100.018 61.9785C100.093 62.1394 100.119 62.3191 100.093 62.4949C100.066 62.6706 99.9881 62.8346 99.8685 62.9661C99.7489 63.0976 99.593 63.1907 99.4205 63.2337C99.2481 63.2767 99.0667 63.2677 98.8994 63.2078C98.732 63.1479 98.5861 63.0397 98.4802 62.897C98.3742 62.7543 98.3129 62.5834 98.3039 62.4059C98.2949 62.2284 98.3387 62.0522 98.4297 61.8995C98.4905 61.7976 98.5709 61.7086 98.6662 61.6379C98.7615 61.5671 98.8698 61.5159 98.985 61.4872C99.1001 61.4585 99.2198 61.4528 99.3372 61.4705C99.4545 61.4883 99.5672 61.529 99.6687 61.5905V61.5905Z" fill="#1C2E5C"/>
<path d="M100.885 61.8234C100.785 61.9324 100.173 61.4684 99.3168 61.4734C98.4608 61.4784 97.8448 61.9274 97.7488 61.8184C97.7018 61.7694 97.7968 61.5744 98.0658 61.3654C98.4282 61.0992 98.8661 60.9556 99.3158 60.9556C99.7655 60.9556 100.203 61.0992 100.566 61.3654C100.837 61.5794 100.932 61.7754 100.885 61.8234Z" fill="#1C2E5C"/>
<path d="M104.386 68.2255C104.826 68.0458 105.293 67.9419 105.768 67.9185C105.991 67.8915 106.168 67.8396 106.181 67.7186C106.185 67.4942 106.128 67.2729 106.014 67.0796L105.319 65.3465C104.662 63.8823 104.155 62.3556 103.806 60.7896C104.608 62.1796 105.267 63.6475 105.773 65.1705C106.001 65.7705 106.218 66.3475 106.432 66.9165C106.579 67.2025 106.626 67.5297 106.565 67.8456C106.533 67.9315 106.482 68.009 106.416 68.0719C106.35 68.1347 106.269 68.1812 106.182 68.2076C106.058 68.2424 105.93 68.2606 105.801 68.2616C105.33 68.3307 104.852 68.3185 104.386 68.2255V68.2255Z" fill="#1C2E5C"/>
<path d="M101.615 69.2007C102.917 69.8924 104.354 70.2937 105.826 70.3767C105.54 70.8293 105.11 71.1718 104.605 71.3481C104.099 71.5245 103.549 71.5243 103.044 71.3477C101.177 70.6857 101.615 69.2007 101.615 69.2007Z" fill="white"/>
<path d="M104.999 78.7214C102.129 78.805 99.3004 78.0329 96.8716 76.5034C96.8716 76.5034 98.8336 80.9564 105.031 80.3314L104.999 78.7214Z" fill="#A36957"/>
<path d="M86.6989 60.3694C86.9864 59.1537 86.9229 57.8814 86.5159 56.7004C86.109 55.5255 85.8877 54.2944 85.8599 53.0514C85.8559 52.4289 86.0334 51.8188 86.3709 51.2957C86.7084 50.7726 87.1911 50.3593 87.7599 50.1064C88.5989 49.8234 89.5389 50.0454 90.3899 49.8064C91.2323 49.4646 91.9824 48.9295 92.5799 48.2444C95.0703 45.9302 98.1724 44.3792 101.518 43.7754C102.48 43.5329 103.493 43.5865 104.424 43.9294C104.881 44.1154 105.257 44.459 105.483 44.8979C105.709 45.3368 105.77 45.8421 105.656 46.3224C106.859 45.5326 108.201 44.9772 109.61 44.6854C110.317 44.5501 111.048 44.6143 111.721 44.8707C112.393 45.1272 112.981 45.5658 113.419 46.1374C114.198 47.3434 113.696 49.3004 112.305 49.6544C112.702 49.7452 113.077 49.9143 113.408 50.1517C113.738 50.389 114.019 50.69 114.232 51.0369C114.445 51.3838 114.587 51.7697 114.649 52.1721C114.712 52.5745 114.693 52.9852 114.595 53.3804C114.349 54.1682 113.891 54.8731 113.272 55.4178C112.652 55.9625 111.894 56.326 111.081 56.4684C109.447 56.7288 107.772 56.5207 106.251 55.8684C104.713 55.2864 103.265 54.4844 101.734 53.8844C101.211 54.5681 100.523 55.1064 99.7328 55.448C98.943 55.7895 98.0789 55.9229 97.2229 55.8354C95.5147 55.6406 93.8533 55.1503 92.3129 54.3864C92.6068 56.159 92.4553 57.9769 91.8719 59.6764C91.5148 60.3174 91.204 60.9831 90.9419 61.6684C90.7986 62.6461 90.7451 63.6349 90.7819 64.6224C90.6939 65.6074 90.1569 66.7044 89.1819 66.8574C88.734 66.8769 88.2926 66.7453 87.9285 66.4838C87.5643 66.2223 87.2986 65.846 87.1739 65.4154C86.9472 64.5481 86.8918 63.6449 87.0109 62.7564C87.0569 61.8634 86.2589 61.1734 86.6979 60.3764" fill="#1C2E5C"/>
<path d="M88.299 62.3817C88.2826 62.1403 88.1733 61.9147 87.9942 61.7521C87.815 61.5895 87.5798 61.5027 87.338 61.5097C86.181 61.5607 84.326 62.1557 84.378 65.3547C84.454 69.9247 88.75 68.4727 88.756 68.3417C88.763 68.2387 88.441 64.1497 88.299 62.3817Z" fill="#B78876"/>
<path d="M87.6268 66.6245C87.6058 66.6105 87.5478 66.6825 87.4138 66.7455C87.2246 66.8315 87.0091 66.8397 86.8138 66.7685C86.516 66.5856 86.272 66.327 86.1069 66.019C85.9417 65.711 85.8613 65.3647 85.8738 65.0155C85.8542 64.624 85.9226 64.2331 86.0738 63.8715C86.1143 63.7281 86.1891 63.5967 86.2917 63.4887C86.3943 63.3807 86.5217 63.2993 86.6628 63.2515C86.7538 63.2248 86.8512 63.2312 86.9379 63.2697C87.0245 63.3081 87.0946 63.3761 87.1358 63.4615C87.1998 63.5885 87.1718 63.6805 87.1968 63.6875C87.2218 63.6945 87.2968 63.6095 87.2538 63.4215C87.2263 63.3085 87.161 63.2083 87.0688 63.1375C86.9415 63.0445 86.7828 63.0053 86.6268 63.0285C86.4398 63.0687 86.2663 63.1562 86.1227 63.2826C85.9792 63.409 85.8704 63.5701 85.8068 63.7505C85.6186 64.1496 85.531 64.5887 85.5518 65.0295C85.536 65.4365 85.6408 65.8391 85.8531 66.1867C86.0653 66.5344 86.3756 66.8116 86.7448 66.9835C86.868 67.0175 86.9973 67.0232 87.1231 67.0002C87.2488 66.9772 87.3677 66.926 87.4708 66.8505C87.6198 66.7355 87.6428 66.6325 87.6268 66.6245Z" fill="#A36957"/>
<path d="M100.713 58.5164C100.689 58.6664 99.7199 58.5994 98.5869 58.8754C97.4509 59.1344 96.6129 59.6274 96.5249 59.5034C96.4329 59.4034 97.2119 58.6594 98.4679 58.3684C98.8324 58.2386 99.2196 58.1848 99.6057 58.2102C99.9918 58.2357 100.369 58.3399 100.713 58.5164V58.5164Z" fill="#1C2E5C"/>
<path d="M103.23 75.9718C103.086 75.9668 102.988 75.3378 103.012 74.5658C103.036 73.7938 103.171 73.1718 103.312 73.1758C103.453 73.1798 103.553 73.8098 103.529 74.5818C103.505 75.3538 103.373 75.9758 103.23 75.9718Z" fill="#1C2E5C"/>
<path d="M104.47 75.5338C104.326 75.5338 104.209 75.0058 104.21 74.3548C104.211 73.7038 104.327 73.1758 104.471 73.1758C104.615 73.1758 104.731 73.7038 104.731 74.3548C104.731 75.0058 104.613 75.5338 104.47 75.5338Z" fill="#1C2E5C"/>
<path d="M105.834 75.1846C105.69 75.1966 105.534 74.7366 105.487 74.1576C105.44 73.5786 105.516 73.0996 105.659 73.0876C105.802 73.0756 105.959 73.5356 106.006 74.1146C106.053 74.6936 105.977 75.1726 105.834 75.1846Z" fill="#1C2E5C"/>
<path d="M139.327 97.0165C132.311 94.0255 127.37 92.3025 123.505 90.1985C111.486 83.6545 108.578 85.5055 105.851 85.3625C100.815 87.3588 95.2864 87.7544 90.0178 86.4955V86.4955C83.0478 87.2955 78.9788 90.5765 71.1958 93.6955L55.6338 102.048L66.8618 117.679L81.2618 112.871C82.4558 118.871 82.7418 123.66 83.5438 130.949L85.0708 160.364L128.709 159.694L124.284 131.735L121.634 109.681L134.469 114.974L139.323 97.0125" fill="#0FA6AF"/>
<g opacity="0.4">
<path opacity="0.4" d="M124.099 90.4225C124.105 90.4165 124.145 90.4525 124.217 90.5305C124.327 90.6443 124.418 90.7762 124.485 90.9205C124.602 91.2076 124.652 91.5178 124.631 91.8272C124.61 92.1366 124.518 92.437 124.363 92.7055C123.908 93.5767 123.151 94.2522 122.235 94.6055C121.02 94.9521 119.765 95.1331 118.503 95.1435C117.792 95.1819 117.088 95.2976 116.403 95.4885C115.677 95.7261 114.991 96.0727 114.37 96.5165C113.07 97.4515 111.928 98.7675 110.536 99.9965C109.819 100.647 108.999 101.174 108.11 101.555C107.153 101.937 106.108 102.043 105.094 101.862C103.023 101.499 101.286 100.229 99.3935 99.3865C97.5377 98.5767 95.4934 98.298 93.4885 98.5815C91.5993 98.8381 89.7273 99.2081 87.8825 99.6895C86.1838 100.117 84.4443 100.363 82.6935 100.423C81.1447 100.479 79.6044 100.169 78.1985 99.5165C77.0553 98.9228 76.1152 98.0015 75.4985 96.8705C75.0178 96.0269 74.7923 95.0618 74.8495 94.0925C74.9 93.4846 75.1044 92.8996 75.4435 92.3925C75.5637 92.2198 75.7059 92.0635 75.8665 91.9275C75.3904 92.5604 75.1074 93.3175 75.0515 94.1075C75.0332 95.0303 75.2758 95.9396 75.7515 96.7305C76.3623 97.7881 77.2702 98.6432 78.3625 99.1895C79.7219 99.7883 81.202 100.062 82.6855 99.9895C84.4032 99.9103 86.108 99.6529 87.7725 99.2215C89.634 98.7219 91.5246 98.3381 93.4335 98.0725C95.5288 97.7735 97.6659 98.0637 99.6055 98.9105C101.557 99.7905 103.268 101.026 105.176 101.358C106.099 101.528 107.051 101.435 107.925 101.091C108.765 100.734 109.54 100.241 110.219 99.6315C111.582 98.4495 112.751 97.1235 114.119 96.1635C114.782 95.6987 115.513 95.3388 116.286 95.0965C117.001 94.9077 117.734 94.7984 118.474 94.7705C119.707 94.7812 120.936 94.6319 122.131 94.3265C122.996 94.0148 123.722 93.4055 124.18 92.6075C124.333 92.3645 124.431 92.0907 124.467 91.8055C124.502 91.5203 124.475 91.2308 124.386 90.9575C124.243 90.5905 124.068 90.4445 124.099 90.4225Z" fill="black"/>
</g>
<g opacity="0.4">
<path opacity="0.4" d="M120.766 110.922C120.656 111.135 120.522 111.334 120.366 111.515C119.927 112.048 119.418 112.519 118.853 112.915C117.955 113.551 116.942 114.007 115.871 114.256C114.443 114.604 112.948 114.557 111.544 114.122C109.99 113.654 108.483 112.69 106.705 112.285C104.767 111.995 102.789 112.405 101.126 113.44C99.2305 114.603 97.1853 115.501 95.047 116.11C92.6815 116.628 90.2214 116.512 87.915 115.774C86.7507 115.393 85.6439 114.855 84.625 114.174C83.625 113.506 82.725 112.753 81.825 112.066C80.9618 111.377 80.0187 110.794 79.016 110.33C78.0424 109.92 77.0167 109.646 75.968 109.516C73.9937 109.328 72.0111 109.242 70.028 109.256C68.2682 109.248 66.521 108.959 64.852 108.401C63.455 107.927 62.2393 107.031 61.372 105.837C60.7202 104.938 60.3321 103.875 60.251 102.767C60.1945 102.07 60.3203 101.37 60.616 100.736C60.7126 100.516 60.8413 100.311 60.998 100.127C61.024 100.142 60.881 100.348 60.712 100.777C60.4671 101.405 60.3782 102.083 60.453 102.752C60.5664 103.811 60.9656 104.819 61.608 105.667C62.4604 106.79 63.6367 107.623 64.978 108.055C66.6151 108.575 68.3234 108.835 70.041 108.825C72.0407 108.79 74.0409 108.862 76.033 109.04C77.1265 109.169 78.1968 109.449 79.213 109.873C80.2548 110.349 81.235 110.949 82.132 111.66C83.053 112.353 83.946 113.098 84.915 113.743C85.8957 114.394 86.9596 114.909 88.078 115.275C90.2969 115.984 92.6629 116.099 94.94 115.608C97.0387 115.013 99.048 114.139 100.914 113.008C101.837 112.52 102.816 112.144 103.829 111.89C104.804 111.654 105.821 111.644 106.801 111.86C108.684 112.316 110.167 113.301 111.659 113.769C113 114.205 114.434 114.274 115.811 113.969C116.856 113.748 117.85 113.333 118.742 112.745C119.491 112.226 120.171 111.613 120.766 110.922V110.922Z" fill="black"/>
</g>
<g opacity="0.4">
<path opacity="0.4" d="M136.722 104.332C136.74 104.421 135.89 104.551 134.714 105.212C133.216 106.157 131.812 107.244 130.522 108.458C129.177 109.705 127.532 110.582 125.747 111.005C125.001 111.197 124.212 111.133 123.508 110.821C124.234 110.834 124.959 110.775 125.673 110.644C127.353 110.133 128.897 109.25 130.188 108.059C131.498 106.818 132.962 105.751 134.546 104.884C135.207 104.504 135.96 104.314 136.722 104.332V104.332Z" fill="black"/>
</g>
<g opacity="0.4">
<path opacity="0.4" d="M122.233 128.73C122.211 128.875 122.158 129.013 122.079 129.137C121.877 129.509 121.59 129.829 121.241 130.069C120.583 130.485 119.839 130.748 119.065 130.837C118.292 130.926 117.508 130.839 116.773 130.583C114.891 130.074 112.919 128.815 110.419 128.671C107.705 128.57 104.997 128.977 102.434 129.871C99.8352 130.781 97.1685 131.483 94.4586 131.971C92.2009 132.352 89.8817 132.099 87.7586 131.242C86.3217 130.674 85.0756 129.709 84.1656 128.461C83.9218 128.124 83.7202 127.759 83.5656 127.374C83.4992 127.244 83.454 127.105 83.4316 126.962C83.4826 126.938 83.6866 127.505 84.3316 128.34C85.2702 129.498 86.5029 130.382 87.9006 130.901C89.9711 131.683 92.2148 131.891 94.3936 131.501C97.0733 130.988 99.7113 130.276 102.286 129.373C104.911 128.461 107.687 128.062 110.463 128.197C111.678 128.309 112.868 128.611 113.99 129.091C115.036 129.521 115.978 129.964 116.878 130.234C117.567 130.491 118.305 130.595 119.039 130.539C119.774 130.482 120.487 130.266 121.129 129.906C121.576 129.597 121.953 129.196 122.233 128.73V128.73Z" fill="black"/>
</g>
<g opacity="0.4">
<path opacity="0.4" d="M126.557 146.482C126.579 146.639 126.574 146.8 126.541 146.956C126.454 147.409 126.258 147.835 125.969 148.195C125.398 148.826 124.68 149.307 123.88 149.595C123.079 149.884 122.22 149.971 121.378 149.85C120.239 149.677 119.124 149.375 118.054 148.95C116.863 148.462 115.617 148.119 114.344 147.93C111.644 147.569 108.706 148.513 105.737 149.575C104.237 150.104 102.765 150.626 101.294 150.993C99.8741 151.348 98.4153 151.524 96.9518 151.515C94.4746 151.486 92.0294 150.951 89.7668 149.943C88.2477 149.268 86.8363 148.374 85.5778 147.289C85.2344 146.998 84.9101 146.686 84.6068 146.354C84.3968 146.129 84.2938 146.005 84.3068 145.992C85.9777 147.478 87.8688 148.697 89.9128 149.605C92.1422 150.542 94.5353 151.028 96.9538 151.035C98.3759 151.03 99.792 150.85 101.17 150.498C102.608 150.133 104.064 149.614 105.563 149.084C108.532 148.024 111.563 147.051 114.403 147.454C115.709 147.66 116.986 148.026 118.203 148.545C119.239 148.976 120.32 149.292 121.426 149.486C122.217 149.614 123.028 149.552 123.79 149.305C124.553 149.058 125.246 148.634 125.813 148.067C126.189 147.609 126.445 147.064 126.557 146.482V146.482Z" fill="black"/>
</g>
<g opacity="0.4">
<path opacity="0.4" d="M92.2429 110.17C91.5225 109.513 90.8821 108.772 90.3349 107.964C89.6559 107.264 89.0622 106.486 88.5659 105.646C90.2116 106.758 91.4911 108.332 92.2429 110.17V110.17Z" fill="black"/>
</g>
<g opacity="0.4">
<path opacity="0.4" d="M117.435 103.658C116.312 105.346 114.906 106.828 113.28 108.039C114.403 106.35 115.808 104.868 117.435 103.658V103.658Z" fill="black"/>
</g>
<g opacity="0.4">
<path opacity="0.4" d="M131.487 102.278C130.698 102.006 129.975 101.573 129.362 101.008C128.275 100.191 127.462 99.4358 127.551 99.3208C128.339 99.5934 129.062 100.026 129.675 100.591C130.762 101.408 131.573 102.163 131.487 102.278Z" fill="black"/>
</g>
<g opacity="0.4">
<path opacity="0.4" d="M68.8116 99.1665C68.9829 99.9417 68.8878 100.752 68.5416 101.467C68.1056 102.693 67.3986 103.497 67.2886 103.414C67.4641 102.68 67.7196 101.968 68.0506 101.291C68.226 100.557 68.4812 99.8446 68.8116 99.1665Z" fill="black"/>
</g>
<g opacity="0.4">
<path opacity="0.4" d="M93.0047 144.356C92.8917 144.446 92.0367 143.556 91.0947 142.371C90.4556 141.701 89.9469 140.918 89.5947 140.062C89.7077 139.973 90.5627 140.862 91.5047 142.047C92.1436 142.717 92.6523 143.5 93.0047 144.356V144.356Z" fill="black"/>
</g>
<g opacity="0.4">
<path opacity="0.4" d="M105.499 138.657C104.271 140.317 102.772 141.759 101.065 142.921C102.291 141.259 103.79 139.817 105.499 138.657V138.657Z" fill="black"/>
</g>
<g opacity="0.4">
<path opacity="0.4" d="M120.989 142.805C119.276 141.988 117.729 140.86 116.426 139.479C118.138 140.298 119.685 141.426 120.989 142.805V142.805Z" fill="black"/>
</g>
<g opacity="0.4">
<path opacity="0.4" d="M96.4188 121.224C95.5936 121.997 94.6547 122.64 93.6348 123.13C92.6999 123.767 91.6731 124.258 90.5898 124.585C91.4151 123.81 92.3544 123.168 93.3748 122.679C94.3096 122.042 95.3361 121.551 96.4188 121.224V121.224Z" fill="black"/>
</g>
<g opacity="0.4">
<path opacity="0.4" d="M110.076 122.384C109.204 122.277 108.381 121.919 107.71 121.352C107.039 120.785 106.548 120.034 106.297 119.192C106.433 119.122 107.008 120.092 108.046 120.954C109.084 121.816 110.122 122.238 110.076 122.384Z" fill="black"/>
</g>
<g opacity="0.4">
<path opacity="0.4" d="M91.322 91.5386C91.381 91.6696 90.469 92.2126 89.285 92.7516C88.596 93.1571 87.8274 93.4089 87.032 93.4896C86.973 93.3596 87.885 92.8166 89.069 92.2776C89.7581 91.872 90.5266 91.62 91.322 91.5386V91.5386Z" fill="black"/>
</g>
<g opacity="0.4">
<path opacity="0.4" d="M105.39 93.8543C103.677 93.3447 102.08 92.5045 100.69 91.3813C102.403 91.8904 104 92.7306 105.39 93.8543V93.8543Z" fill="black"/>
</g>
<g opacity="0.4">
<path opacity="0.4" d="M117.268 89.8678C115.751 90.3638 114.144 90.5202 112.561 90.3258C114.077 89.8296 115.684 89.6732 117.268 89.8678V89.8678Z" fill="black"/>
</g>
<g opacity="0.4">
<path opacity="0.4" d="M93.9687 157.51C93.8817 157.625 92.9557 157.067 91.9007 156.266C90.8457 155.465 90.0617 154.721 90.1487 154.607C90.2357 154.493 91.1617 155.049 92.2167 155.851C93.2717 156.653 94.0557 157.396 93.9687 157.51Z" fill="black"/>
</g>
<g opacity="0.4">
<path opacity="0.4" d="M112.556 154.396C112.656 154.487 111.933 155.45 110.717 156.278C110.029 156.851 109.187 157.21 108.297 157.311C108.955 156.753 109.667 156.263 110.423 155.848C111.084 155.293 111.798 154.807 112.556 154.396V154.396Z" fill="black"/>
</g>
<g opacity="0.4">
<path opacity="0.4" d="M124.689 158.153C123.053 157.732 121.523 156.977 120.194 155.935C121.83 156.354 123.361 157.109 124.689 158.153Z" fill="black"/>
</g>
<path d="M168.413 180.594C168.159 180.65 167.901 180.684 167.641 180.694C167.133 180.746 166.383 180.8 165.417 180.855C163.484 180.973 160.686 181.092 157.228 181.212C150.311 181.442 140.753 181.673 130.193 181.729C124.911 181.743 119.881 181.749 115.293 181.529C111.181 181.351 107.198 180.039 103.785 177.74C101.507 176.168 99.6407 174.072 98.342 171.628C97.8712 170.737 97.5045 169.795 97.249 168.821C97.315 168.797 97.607 169.837 98.521 171.532C99.8654 173.894 101.738 175.914 103.993 177.432C107.37 179.644 111.286 180.893 115.32 181.046C119.877 181.239 124.911 181.22 130.188 181.205C140.742 181.149 150.298 180.977 157.215 180.84L165.405 180.65L167.631 180.587C167.891 180.566 168.153 180.569 168.413 180.594Z" fill="#38557D"/>
</svg>
