<svg width="500" height="500" fill="none" xmlns="http://www.w3.org/2000/svg"><path d="M448.955 140.274L446.6 134.1l4.1-11.214a11.693 11.693 0 00-5.339-14.26l1.715-4.691-2.957-1.081-1.7 4.641a11.695 11.695 0 00-13.685 7.358l-3.9 10.671-6.013 3.726L430 133.341a4.931 4.931 0 002.203 4.06 4.921 4.921 0 004.597.451 4.89 4.89 0 001.843-1.349l10.312 3.771z" fill="#EBEBEB"/><path d="M41.454 376.59a31.79 31.79 0 00-13.6-4.682c-2.222-.228-4.65-.163-6.433 1.183a1.318 1.318 0 00-.662 1.175c.105.334.329.619.63.8a19.45 19.45 0 0020.066 1.52M41.1 376.2a66.362 66.362 0 01-8.784-7.729 22.213 22.213 0 01-5.508-10.185 4.11 4.11 0 01.436-3.408c7 5.468 12.5 12.541 13.856 21.322z" fill="#E0E0E0"/><path d="M41.381 376.537A31.763 31.763 0 0141.544 365a15.6 15.6 0 016.143-9.517c1.211 2.828.69 6.086-.162 9.042a43.944 43.944 0 01-6.092 12.825M48.246 388.837c-4.167.506-7.8 2.7-10.908 5.52a20.631 20.631 0 00-6.238 10.71c4.087-.253 7.554-3.135 10.07-6.367 2.514-3.232 4.256-6.777 7.02-9.8M49.736 390.8a26.9 26.9 0 013.107-25.446c2.373 8.444 1.5 17.982-3.107 25.446zM58.806 401.6a19.447 19.447 0 00-18.6 10.707c-.23.46-.433 1.045-.125 1.458a1.377 1.377 0 001.233.363c3.666-.238 6.915-2.443 9.6-4.955 2.685-2.512 5.017-5.412 7.98-7.584M58.516 401.015a34.64 34.64 0 01-.345-19.351c.682-2.49 1.826-5.113 4.13-6.281a.818.818 0 01.631-.11c.188.097.33.263.4.462a11.66 11.66 0 01.974 5.552 34.796 34.796 0 01-.87 5.62c-.725 3.434-1.11 7.126-3 10.088a20.554 20.554 0 00-1.2 2.216c-.356.753-.359 1.018-.686 1.616M82.524 404.592c-1.779-6.766.11-14.968 4.373-20.514.313-.409.73-.847 1.243-.8.785.073.988 1.119.953 1.907a37.071 37.071 0 01-6.569 19.406M84.688 406.071a29.843 29.843 0 0024.487-4.98 19.84 19.84 0 00-13.256-1.627c-4.428 1.013-8.474 3-11.231 6.607zM86.514 401.567c4.6-7.506 13.43-12.4 22.223-12.851-1.013 3.577-3.952 6.357-7.269 8.037a40.354 40.354 0 01-10.668 3.119c-1.42.276-3.367.579-4.287 1.695M82.981 379.707a64.582 64.582 0 002.843-13.015 21.676 21.676 0 00-2.593-12.874c-4.3 8.321-4.735 18.044-.379 26.335M97.459 372.39c5.029-9.14 15.289-16.44 25.67-17.464-4 9.972-14.926 17.678-25.67 17.464zM94.295 374.181c7.5 1.142 13.89 5.932 20.9 8.836a9.37 9.37 0 004.724.9 3.701 3.701 0 002.315-6.543 10.082 10.082 0 00-3.434-2.074c-7.634-3.178-15.82-3.258-23.86-1.33" fill="#E0E0E0"/><path d="M89.955 379.441c1.7.486 2.278 1.365 3.623 2.51a39.093 39.093 0 0015.847 8.141c.606.151 1.4.21 1.7-.337.262-.477-.07-1.056-.41-1.481a21.794 21.794 0 00-9.569-6.5c-3.657-1.362-6.825-3-11.19-2.651M85.058 347.671a29.989 29.989 0 0022.993 7.823c.383.006.755-.127 1.047-.375.579-.63-.116-1.6-.79-2.127-6.76-5.271-14.949-7.456-23.25-5.321z" fill="#E0E0E0"/><path d="M90.864 345.546a32.046 32.046 0 0128.692-4.734 22.777 22.777 0 01-13.672 6 43.282 43.282 0 01-15.02-1.268M88.557 330.948c-.664-6.748-.233-12.074-.7-18.853-.037-.542-.154-1.194-.66-1.389-.706-.272-1.294.6-1.525 1.315a21.61 21.61 0 002.875 18.779" fill="#E0E0E0"/><path d="M88.071 331.693a39.671 39.671 0 0011.177-10.863c2.208-3.021 4.069-6.64 3.567-10.347a10.695 10.695 0 00-8.062 4 22.49 22.49 0 00-4.11 8.269c-.895 2.969-1.522 6.019-2.572 8.937M99.053 328.642a90.132 90.132 0 0027.506-16.219c-3.286-1.324-7.047-.532-10.332.794a32.587 32.587 0 00-17.318 15.352M91.16 335.384a55.967 55.967 0 0015.273.075c4.952-.828 9.631-2.791 14.258-4.738.404-.115.75-.378.969-.736a1.114 1.114 0 00-.347-1.22 2.948 2.948 0 00-1.216-.57c-5.031-1.407-10.46-.748-15.409.921a71.437 71.437 0 00-13.529 6.268zM62.165 347.9c-3.465-6.993-3.24-15.154-.247-22.361 2.107 3.21 2.364 7.3 1.98 11.118-.386 3.818-1.55 7.752-1.625 11.59M48.325 340.922a31.193 31.193 0 00-23.175 9.872 21.66 21.66 0 0012.69-2.352 64.608 64.608 0 0010.875-7.279M39.02 337.81c-4.23-.343-8.3-.867-12.37.38a14.841 14.841 0 00-9.43 7.995c3.993.322 8-.434 11.6-2.19a66.735 66.735 0 0010.2-6.185zM52.8 337.952c-3.807-2.494-7.716-5.034-12.148-6.067-4.432-1.033-9.568-.27-12.659 3.071 3.588 2.105 7.941 2.354 12.1 2.351 4.16-.003 9.26-.051 13.181 1.337" fill="#E0E0E0"/><path d="M52.82 338.153c-6.508-6.39-8.975-17.869-6.357-26.606a40.546 40.546 0 016.357 26.606zM70.714 320.047c1.227-2.853 2.091-5.847 3.192-8.752a25.134 25.134 0 014.55-8.068 11.979 11.979 0 018.06-4.177 32.46 32.46 0 01-15.643 21.043M67.476 323.82c-2.031-2.8-4.378-6.59-7.132-8.677-2.754-2.087-6.341-3.349-9.7-2.548a22.607 22.607 0 0016.832 11.225zM68.124 320.28a48.244 48.244 0 01-3.21-10.4 16.216 16.216 0 011.627-10.571c3.572 6.753 4.722 14 1.765 21.045M70.747 299.312c2.023-6.694 8.153-11.623 14.77-13.885a5.501 5.501 0 012.59-.388 2.244 2.244 0 011.909 1.593c.241 1.139-.7 2.159-1.584 2.916a50.3 50.3 0 01-17.685 9.764zM70.82 293.837c.257-4.316.526-8.694 1.93-12.784s4.11-7.926 8.046-9.716c.67 4.36-1.254 8.7-3.573 12.448-2.319 3.748-5.115 7.291-6.509 11.476M70.714 296.808c-1.672-4.878-1.845-11.075-4.766-15.325-2.043-2.971-5.313-4.995-7.072-8.141a12.386 12.386 0 00.411 9.242 26.759 26.759 0 005.405 7.736c2.161 2.309 4.012 4.046 6.022 6.488z" fill="#E0E0E0"/><path d="M70.747 440.478c-.13 0-.243-32.545-.252-72.681-.009-40.136.09-72.689.22-72.689s.242 32.538.251 72.688c.01 40.15-.089 72.682-.219 72.682z" fill="#E0E0E0"/><path d="M99.187 342.991a7.024 7.024 0 01-1.224.459l-3.363 1.137c-2.84.967-6.74 2.367-10.973 4.1-4.192 1.8-8.145 3.259-10.4 5.209a7.621 7.621 0 00-2.089 2.764c-.323.764-.381 1.231-.424 1.223a.938.938 0 01.014-.341c.05-.323.13-.641.239-.949a7.356 7.356 0 012.039-2.946 18.286 18.286 0 014.511-2.8c1.8-.842 3.8-1.72 5.927-2.593 4.247-1.74 8.177-3.1 11.049-3.984a90.56 90.56 0 013.418-.995 7.053 7.053 0 011.276-.284z" fill="#E0E0E0"/><path d="M108.509 320.093a1.984 1.984 0 01-.343.366l-1.044.981-3.9 3.542-12.975 11.553c-5.065 4.509-9.442 8.817-12.476 12.061a142.702 142.702 0 00-3.53 3.9l-.944 1.077c-.102.133-.22.252-.352.357.075-.151.168-.291.278-.417.2-.262.484-.652.876-1.135a87.923 87.923 0 013.427-4.006 164.37 164.37 0 0112.408-12.186c5.083-4.5 9.708-8.539 13.069-11.453l4-3.429 1.1-.915a2.03 2.03 0 01.406-.296z" fill="#E0E0E0"/><path d="M84.78 341.12c-.134-.059.925-2.5 1.98-5.592 1.053-3.092 1.564-5.7 1.7-5.675a19.108 19.108 0 01-1.256 5.826 38.131 38.131 0 01-1.575 3.911 6.064 6.064 0 01-.85 1.53zM70.777 360.818a5.78 5.78 0 01-.78-.906l-2-2.564a881.44 881.44 0 00-6.6-8.448c-2.6-3.28-5-6.222-6.73-8.35-.817-1.012-1.5-1.859-2.044-2.529a5.979 5.979 0 01-.7-.966c.31.252.594.536.845.847.521.565 1.26 1.4 2.158 2.434a257.83 257.83 0 016.844 8.272 252.332 252.332 0 016.5 8.541 110.236 110.236 0 011.881 2.655c.243.316.453.655.626 1.014z" fill="#E0E0E0"/><path d="M64.541 352.813a11.464 11.464 0 01-2.613-4.891 13.97 13.97 0 01-.592-4.931l.208.017c-.093.377-.162.576-.2.57-.038-.006-.039-.216-.008-.6l.208.016c.103 1.626.383 3.235.834 4.8a36.562 36.562 0 002.163 5.019zM56.49 342.686a8.367 8.367 0 00-1.824-1.06 12.194 12.194 0 00-5.064-.4c-1.72.133-3.425.408-5.1.822a15.59 15.59 0 01-2.1.5 7.349 7.349 0 012.01-.824 23.298 23.298 0 015.153-.972 11.05 11.05 0 015.224.564 3.23 3.23 0 011.701 1.37zM54.582 340.231c-.036.074-1.063-.425-2.8-1.017A28.119 28.119 0 0037.7 338.14c-1.8.323-2.892.66-2.916.582.23-.142.48-.248.741-.315.69-.242 1.395-.44 2.11-.593A24.856 24.856 0 0151.9 338.9c.685.26 1.353.562 2 .906.248.106.478.249.682.425zM70.714 329.853a57.915 57.915 0 01-2.038-7.079 57.734 57.734 0 01-1.582-7.195 57.788 57.788 0 012.038 7.08 57.722 57.722 0 011.582 7.194z" fill="#E0E0E0"/><path d="M70.844 329.853a34.166 34.166 0 00-2.259-4.238 18.604 18.604 0 00-3.324-3.431c.474.117.913.344 1.283.662a10.32 10.32 0 012.426 2.5 9.4 9.4 0 011.874 4.507zM70.747 423.129c-.05.008-.147-.783-.513-2.164a30.898 30.898 0 00-2.175-5.635 77.994 77.994 0 00-11.539-16.256c-2.576-2.943-5.075-5.72-7.2-8.379a58.806 58.806 0 01-5.146-7.422 35.59 35.59 0 01-2.6-5.508 22.342 22.342 0 01-.51-1.575 2.7 2.7 0 01-.134-.562c.042-.014.28.744.815 2.071a40.223 40.223 0 002.714 5.406 62.15 62.15 0 005.2 7.319c2.13 2.63 4.633 5.392 7.213 8.34 5.213 5.851 9.295 11.751 11.484 16.421a28.076 28.076 0 012.053 5.736c.125.539.221 1.083.288 1.632.038.19.054.383.05.576z" fill="#E0E0E0"/><path d="M96.446 394.1c-.432.282-.882.534-1.347.756a29.433 29.433 0 00-3.493 2.31 40.114 40.114 0 00-4.588 4.184c-1.61 1.7-3.269 3.677-4.963 5.794-3.384 4.247-6.55 8.005-8.446 11.005a45.42 45.42 0 00-2.12 3.623c-.218.468-.465.921-.742 1.356.021-.133.063-.262.125-.382.1-.242.236-.606.452-1.055a34.162 34.162 0 012-3.719 121.152 121.152 0 018.361-11.122c1.7-2.121 3.375-4.1 5.016-5.8a37.41 37.41 0 014.7-4.151 24.507 24.507 0 013.61-2.2c.445-.224.81-.361 1.05-.465.12-.065.25-.11.385-.134z" fill="#E0E0E0"/><path d="M96.95 403.518c-.938.208-1.89.346-2.848.414-2.286.235-4.546.68-6.75 1.33a20.289 20.289 0 00-6.047 3.172c-1.393 1.077-2.05 1.968-2.115 1.916.1-.242.243-.465.422-.656.444-.554.94-1.062 1.483-1.518a18.312 18.312 0 016.111-3.362 30.526 30.526 0 016.863-1.213 15.66 15.66 0 012.88-.083z" fill="#E0E0E0"/><path d="M80.021 409.315c-.149-.084 1.135-2.044 2.13-4.679.934-2.66 1.152-4.993 1.32-4.966.07.508.054 1.025-.048 1.528a16.372 16.372 0 01-.83 3.6 17.456 17.456 0 01-1.65 3.3 4.607 4.607 0 01-.922 1.217zM104.77 368.82a2.238 2.238 0 01-.456.242l-1.338.608c-.586.251-1.3.57-2.1.993-.8.423-1.743.842-2.72 1.429l-1.553.883c-.538.31-1.07.677-1.638 1.032-1.145.7-2.292 1.55-3.516 2.423a60.29 60.29 0 00-13.542 14.013c-.83 1.254-1.647 2.429-2.3 3.6-.336.579-.685 1.124-.976 1.673l-.83 1.584c-.554 1-.949 1.95-1.336 2.768a32.753 32.753 0 00-.92 2.131l-.562 1.357a2.19 2.19 0 01-.226.464c.025-.172.07-.34.137-.5l.48-1.392c.206-.607.476-1.341.85-2.171.374-.83.742-1.8 1.28-2.811l.807-1.606c.284-.557.628-1.11.958-1.7.645-1.185 1.454-2.376 2.281-3.646a58.143 58.143 0 0113.641-14.115c1.24-.87 2.4-1.719 3.565-2.4.576-.35 1.117-.713 1.663-1.016L98 371.8c.993-.571 1.947-.981 2.766-1.375s1.541-.7 2.14-.923l1.375-.528c.156-.071.321-.123.489-.154z" fill="#E0E0E0"/><path d="M84.43 382.448c.19-.659.58-1.241 1.118-1.666a7.06 7.06 0 014.507-1.729 12.32 12.32 0 014.742.926c.638.2 1.242.494 1.793.872a11.118 11.118 0 01-1.9-.558 14.333 14.333 0 00-4.617-.77 7.33 7.33 0 00-4.305 1.511c-.48.437-.927.91-1.338 1.414zM81.39 385.584a12.038 12.038 0 00.993-8.509c.271.356.453.772.528 1.213a8.61 8.61 0 01-.728 6.238c-.397.719-.748 1.09-.793 1.058zM48.269 427.792c.7 12.437 4.45 25.086 10.214 37.874h25.069c5.5-12.661 8.986-25.29 9.607-37.874h-44.89z" fill="#E0E0E0"/><path d="M89.1 447.918c0 .13-8.254.235-18.433.235s-18.435-.105-18.435-.235 8.252-.236 18.435-.236c10.183 0 18.433.106 18.433.236zM88.536 452.423c0 .13-7.738.235-17.28.235-9.544 0-17.283-.1-17.283-.235 0-.135 7.736-.235 17.282-.235s17.281.105 17.281.235zM58.888 435.958a71.037 71.037 0 010 11.548 71.06 71.06 0 010-11.548z" fill="#FAFAFA"/><path d="M72.319 435.958a76.212 76.212 0 010 11.96 76.187 76.187 0 010-11.96zM84.928 435.857a78.92 78.92 0 010 12.2 79.27 79.27 0 010-12.2z" fill="#FAFAFA"/><path d="M92.363 435.958c0 .13-9.68.235-21.62.235-11.939 0-21.622-.1-21.622-.235 0-.135 9.68-.235 21.622-.235 11.943 0 21.62.105 21.62.235z" fill="#FAFAFA"/><path d="M188.774 107.287a35.48 35.48 0 01-36.887 40.614 35.474 35.474 0 01-31.634-23.547 35.475 35.475 0 0128.321-46.99 35.439 35.439 0 0140.2 29.923z" fill="#F5F5F5"/><path d="M180.42 108.5a27.03 27.03 0 01-12.871 27.158 27.033 27.033 0 01-39.346-14.148 27.034 27.034 0 0121.584-35.81 27.003 27.003 0 0127.101 12.874 26.989 26.989 0 013.532 9.926z" fill="#EBEBEB"/><path d="M180.292 107.664c-.161.029-.446-1.129-1.175-3.115a28.624 28.624 0 00-4.278-7.751 27.61 27.61 0 00-4.248-4.347 27.093 27.093 0 00-5.907-3.652 26.517 26.517 0 00-7.35-2.115 26.081 26.081 0 00-4.044-.236 26.432 26.432 0 00-8.19 1.452 26.402 26.402 0 00-9.889 6.13 27.064 27.064 0 00-4.288 5.463 27.71 27.71 0 00-2.492 5.543 28.692 28.692 0 00-1.345 8.749c0 2.115.132 3.3-.031 3.327-.119.024-.522-1.117-.775-3.284a25.021 25.021 0 01.745-9.2 27.08 27.08 0 016.833-11.94c.939-.966 1.95-1.86 3.025-2.671a27.469 27.469 0 017.542-4.057c2.84-1 5.825-1.53 8.835-1.568a27.541 27.541 0 0112.235 2.68 27.079 27.079 0 0110.527 8.858 25.026 25.026 0 013.87 8.383c.508 2.121.52 3.331.4 3.351z" fill="#E0E0E0"/><path d="M159.012 127.907l.745 4.65-4.152.664-.724-4.525c-4.15.409-8.3-.246-10.869-1.666l1.471-5.431a16.978 16.978 0 008.527 1.658l-1.111-6.934c-4.787-.381-10.181-1.093-11.132-7.031-.7-4.4 1.888-8.691 8.327-10.488l-.738-4.61 4.152-.664.725 4.527a18.998 18.998 0 018.833 1.182l-1.258 5.44a17.224 17.224 0 00-6.7-1.143l1.13 7.059c4.781.34 10.093 1.067 11.03 6.92.693 4.318-1.868 8.56-8.256 10.392zm-7.089-17.686l-.945-5.9c-2.12.85-2.8 2.194-2.58 3.564.233 1.458 1.602 2.048 3.525 2.336zm8.743 8.863c-.233-1.454-1.563-2.049-3.448-2.388l.917 5.73c2.003-.788 2.744-2.014 2.531-3.342z" fill="#E0E0E0"/><path d="M233.961 56.148a30.733 30.733 0 01-23.61 24.698 30.735 30.735 0 01-37.395-29.348 30.734 30.734 0 0136.105-30.921 30.695 30.695 0 0124.641 23.594 30.7 30.7 0 01.259 11.977z" fill="#F5F5F5"/><path d="M226.76 54.869a23.42 23.42 0 01-17.994 18.82 23.426 23.426 0 01-24.822-35.47 23.428 23.428 0 0123.845-10.46 23.397 23.397 0 0118.971 27.11z" fill="#EBEBEB"/><path d="M226.883 54.145a13.892 13.892 0 01-.116-2.882 24.867 24.867 0 00-1.4-7.541 23.972 23.972 0 00-2.308-4.734 23.476 23.476 0 00-3.862-4.614 22.94 22.94 0 00-15.861-6.083 22.886 22.886 0 00-9.808 2.344 23.499 23.499 0 00-5.016 3.322 24.04 24.04 0 00-3.562 3.879 24.87 24.87 0 00-3.492 6.828c-.214.94-.527 1.854-.933 2.728a6.916 6.916 0 01.259-2.912 21.67 21.67 0 013.122-7.365 23.465 23.465 0 018.876-7.954A22.708 22.708 0 01196 27.79a23.878 23.878 0 017.307-1.28 23.969 23.969 0 0111.202 2.547 23.893 23.893 0 015.82 4.116 23.47 23.47 0 016.242 10.155 21.668 21.668 0 01.9 7.95 6.863 6.863 0 01-.588 2.866z" fill="#E0E0E0"/><path d="M203.862 64.988l-.656 4.027-3.6-.586.638-3.92a17.277 17.277 0 01-8.484-4.333l2.692-4.065a14.735 14.735 0 006.56 3.689l.978-6.005c-3.834-1.62-8.075-3.677-7.237-8.82.621-3.81 3.922-6.631 9.708-6.352l.651-3.992 3.6.586-.638 3.92a16.48 16.48 0 016.941 3.38L212.5 46.65c-1.532-1.26-3.3-2.2-5.2-2.767l-1 6.113c3.838 1.584 8.008 3.63 7.182 8.7-.604 3.739-3.864 6.529-9.62 6.293zm-1.006-16.478l.831-5.106c-1.976.12-2.9 1.04-3.094 2.228-.205 1.258.762 2.118 2.263 2.878zm4.773 9.673c.205-1.26-.727-2.111-2.185-2.9l-.808 4.962c1.864-.106 2.805-.911 2.993-2.062z" fill="#E0E0E0"/><path d="M314.455 40.323a30.738 30.738 0 11-36.9-22.873 30.7 30.7 0 0136.9 22.873z" fill="#F5F5F5"/><path d="M307.333 41.986a23.416 23.416 0 01-.856 13.579 23.423 23.423 0 11-27.267-31.01 23.4 23.4 0 0128.123 17.43z" fill="#EBEBEB"/><path d="M307.161 41.273a13.976 13.976 0 01-1.244-2.6 24.85 24.85 0 00-4.263-6.376 23.975 23.975 0 00-3.988-3.44 23.435 23.435 0 00-5.368-2.718 22.946 22.946 0 00-25.062 6.686 23.452 23.452 0 00-3.3 5.032 24.031 24.031 0 00-1.743 4.969 24.88 24.88 0 00-.517 7.652c.174.947.247 1.91.219 2.874-.5-.85-.81-1.798-.911-2.778a21.67 21.67 0 01-.035-8 23.483 23.483 0 015.02-10.81 23.761 23.761 0 018.621-6.586 23.96 23.96 0 017.512-2 23.906 23.906 0 013.798-.078c2.386.144 4.736.646 6.972 1.488a23.448 23.448 0 019.74 6.87 21.69 21.69 0 013.958 6.953c.4.9.602 1.876.591 2.862z" fill="#E0E0E0"/><path d="M290.28 60.315l.986 3.959-3.535.879-.959-3.853c-3.553.658-7.183.4-9.506-.638l.871-4.8a14.716 14.716 0 007.483.8l-1.469-5.9c-4.162.023-8.87-.195-10.128-5.251-.932-3.747.99-7.641 6.417-9.667l-.977-3.924 3.536-.88.958 3.854a16.477 16.477 0 017.712.371l-.684 4.788a14.934 14.934 0 00-5.867-.493l1.495 6.01c4.152-.057 8.791.179 10.031 5.162.915 3.681-.981 7.53-6.364 9.583zm-7.421-14.747l-1.25-5.019c-1.768.89-2.255 2.1-1.965 3.267.308 1.237 1.536 1.646 3.215 1.752zm8.2 7.008c-.308-1.238-1.5-1.654-3.153-1.807l1.214 4.879c1.671-.828 2.22-1.941 1.939-3.072z" fill="#E0E0E0"/><path d="M375.257 102.363a30.735 30.735 0 01-40.781 24.427 30.743 30.743 0 01-20.326-27.465 30.735 30.735 0 0135.279-31.862 30.698 30.698 0 0125.828 34.9z" fill="#F5F5F5"/><path d="M368.025 101.275a23.425 23.425 0 11-19.683-26.6 23.4 23.4 0 0119.683 26.6z" fill="#EBEBEB"/><path d="M368.129 100.548c-.165-.95-.23-1.915-.193-2.878a24.854 24.854 0 00-1.6-7.5 23.972 23.972 0 00-2.436-4.67 23.468 23.468 0 00-3.982-4.51 22.988 22.988 0 00-5.565-3.6 22.766 22.766 0 00-3.294-1.21 22.912 22.912 0 00-16.896 1.756 23.44 23.44 0 00-4.927 3.454 23.97 23.97 0 00-3.457 3.972 24.85 24.85 0 00-3.311 6.918 13.673 13.673 0 01-.86 2.752 6.918 6.918 0 01.182-2.919 21.642 21.642 0 012.926-7.444 23.473 23.473 0 018.662-8.187 22.632 22.632 0 013.179-1.456 22.966 22.966 0 013.511-1.008 24.004 24.004 0 0111.48.451c1.215.35 2.401.795 3.546 1.332a23.925 23.925 0 015.927 3.961 23.453 23.453 0 016.508 9.986 21.679 21.679 0 011.106 7.923 6.894 6.894 0 01-.506 2.877z" fill="#E0E0E0"/><path d="M345.4 112l-.549 4.044-3.609-.491.534-3.934c-3.544-.7-6.821-2.287-8.6-4.109l2.583-4.135a14.715 14.715 0 006.655 3.515l.818-6.03c-3.874-1.517-8.169-3.46-7.467-8.623.52-3.827 3.745-6.734 9.537-6.608l.544-4.008 3.61.49-.535 3.936a16.47 16.47 0 017.029 3.2l-2.408 4.2a14.93 14.93 0 00-5.268-2.628l-.833 6.137c3.879 1.482 8.1 3.417 7.41 8.506-.503 3.743-3.688 6.619-9.451 6.538zm-1.441-16.445l.7-5.126c-1.971.173-2.871 1.118-3.034 2.31-.174 1.261.816 2.092 2.336 2.812l-.002.004zm5.027 9.544c.171-1.265-.782-2.092-2.261-2.846l-.677 4.982c1.861-.155 2.783-.986 2.94-2.135l-.002-.001zM105.868 42.56H48.9v59.384h56.968V42.56z" fill="#E0E0E0"/><path d="M102.009 42.56H45.042v59.384h56.967V42.56z" fill="#FAFAFA"/><path d="M102.027 101.962h-57V42.543h57v59.419zm-56.968-.035h56.933V42.578H45.059v59.349z" fill="#E0E0E0"/><path d="M94.352 50.543H52.7v43.418h41.652V50.543z" fill="#FAFAFA"/><path d="M52.7 94.25c-.296.436-.64.838-1.028 1.195-.665.7-1.6 1.652-2.648 2.684a116.984 116.984 0 01-2.721 2.605c-.359.38-.762.715-1.2 1a6.627 6.627 0 011.023-1.19c.665-.7 1.6-1.654 2.653-2.689a118.812 118.812 0 012.726-2.609 6.523 6.523 0 011.195-.996zM94.351 94.143c.437.296.838.64 1.195 1.028.7.666 1.652 1.6 2.685 2.648a106.06 106.06 0 012.6 2.721c.38.359.715.762 1 1.2a6.593 6.593 0 01-1.19-1.022c-.7-.666-1.655-1.6-2.69-2.654a123.218 123.218 0 01-2.609-2.726 6.48 6.48 0 01-.99-1.195zM94.237 50.659c.296-.437.64-.838 1.028-1.195.665-.7 1.6-1.652 2.648-2.684a106.457 106.457 0 012.721-2.6c.359-.38.762-.716 1.2-1a6.6 6.6 0 01-1.022 1.19c-.666.7-1.6 1.654-2.654 2.689a123.218 123.218 0 01-2.726 2.609c-.357.377-.758.71-1.195.99zM52.586 50.766a6.861 6.861 0 01-1.195-1.028c-.7-.665-1.652-1.6-2.684-2.648a105.902 105.902 0 01-2.6-2.721 6.533 6.533 0 01-1-1.2c.436.293.835.636 1.19 1.022.7.666 1.654 1.6 2.69 2.654a123.218 123.218 0 012.608 2.726c.377.357.71.759.991 1.195z" fill="#E0E0E0"/><path d="M94.237 93.96c-.007-.07-.01-.14-.009-.21 0-.148 0-.347-.009-.606 0-.544-.01-1.327-.019-2.343l-.042-8.85-.08-31.408.16.16-41.538.025.184-.185-.026 43.418-.158-.161 30.076.08 8.448.042 2.235.019.577.009c.131 0 .2 0 .2.008-.06.007-.122.01-.183.009l-.56.009-2.2.019-8.414.04-30.179.085h-.158v-.16l-.026-43.417v-.184h.184l41.533.024h.167v.16c-.034 13.014-.062 23.882-.08 31.512-.02 3.784-.034 6.764-.044 8.812l-.018 2.313c0 .25-.007.445-.009.589 0 .064-.003.128-.012.192z" fill="#E0E0E0"/><path d="M80.474 65.303H66.576V79.2h13.898V65.303zM453.82 395.676a19.71 19.71 0 0112.231-1.487c2.219.367 4.532 1.031 6.042 2.7 1.51 1.669 1.8 4.6.063 6.032a5.792 5.792 0 01-3.81.966c-3.233-.037-6.821-.607-9.4 1.339-1.474 1.11-2.455 2.955-4.217 3.5a4.166 4.166 0 01-4.583-2.039 7.118 7.118 0 01-.519-5.254 8.015 8.015 0 014.193-5.757zM445.3 379.222c2.275 3.249 6.7 2.173 8.747.19 2.047-1.983 2.916-4.858 3.7-7.6 1.8-6.263 3.619-12.833 2.279-19.21a10.676 10.676 0 00-2.453-5.223 5.568 5.568 0 00-5.284-1.758c-2.23.589-3.615 2.772-4.617 4.849a45.815 45.815 0 00-4.525 19.652c-.011 3.166.362 6.485 2.148 9.1M439.049 383.884c2.47-2.932 2.939-7.208 1.84-10.88a20.97 20.97 0 00-6.444-9.347 34.654 34.654 0 00-11.539-6.808 12.295 12.295 0 00-5.189-.882 5.446 5.446 0 00-4.355 2.635c-1.215 2.316-.051 5.125 1.209 7.417a87.884 87.884 0 007.579 11.541c2.271 2.929 4.873 5.818 8.335 7.141 3.462 1.323 7.059 1.168 8.894-1.233" fill="#EBEBEB"/><path d="M445.142 428.234a7 7 0 00.206-1.476l.392-4.029c.201-1.984.503-3.957.906-5.91a45.688 45.688 0 012.149-6.976 25.71 25.71 0 013.561-6.311 13.294 13.294 0 014.5-3.744 12.606 12.606 0 013.792-1.181c.496-.019.989-.09 1.47-.213-.498-.062-1-.07-1.5-.023a11.477 11.477 0 00-3.954 1.029 13.276 13.276 0 00-4.751 3.777 25.158 25.158 0 00-3.692 6.438 42.673 42.673 0 00-2.121 7.085 50.006 50.006 0 00-.786 5.985 79.676 79.676 0 00-.2 4.054c-.044.498-.035.999.028 1.495z" fill="#E0E0E0"/><path d="M445.42 425.134c.04-.226.053-.456.039-.685 0-.515 0-1.164-.005-1.959-.005-1.7 0-4.161.087-7.2.151-6.076.674-12.615 1.685-21.835.956-8.669 2.241-18.758 3.6-25.318.291-1.491.584-2.834.859-4.009.275-1.175.487-2.2.7-3.016l.458-1.9c.067-.22.107-.447.119-.676a2.95 2.95 0 00-.238.642l-.568 1.877c-.253.814-.511 1.824-.806 3-.295 1.176-.631 2.51-.949 4a222.283 222.283 0 00-3.781 23.492c-1.013 9.239-1.469 17.651-1.509 23.742-.036 3.046.028 5.511.106 7.213l.12 1.957c.001.228.029.454.083.675z" fill="#E0E0E0"/><path d="M445.46 408.909c.05-.681.045-1.365-.014-2.046-.075-1.315-.256-3.216-.627-5.544a72.618 72.618 0 00-1.8-8.078 66.03 66.03 0 00-3.378-9.559 50.89 50.89 0 00-9.92-15.446 25.064 25.064 0 00-2.333-2.17c-.359-.3-.675-.6-1-.843l-.906-.625c-.544-.412-1.12-.78-1.723-1.1a60.633 60.633 0 015.648 5.037 53.652 53.652 0 019.672 15.391 75.392 75.392 0 013.4 9.471c.886 2.968 1.474 5.7 1.919 8 .422 2.3.667 4.187.815 5.49.031.679.113 1.355.247 2.022zM429.779 437.529L431.4 459.8h28.613l1.626-22.273-31.86.002z" fill="#E0E0E0"/><path d="M465.058 428.75h-38.043v8.779h38.043v-8.779z" fill="#E0E0E0"/><path d="M427.015 458.95v2.434h37.414v-2.434h-37.414z" fill="#EBEBEB"/><path d="M430.554 465.666l-1.752-4.283h34.264l-2.044 4.283h-30.468z" fill="#E0E0E0"/><path d="M461.112 444.809a.916.916 0 01-.133.2l-.428.567-1.667 2.133-.074.1-.072-.1-4.1-5.664h.236l-4.032 5.709-.126.179-.142-.168-4.781-5.689h.275l-.263.331-4.275 5.36-.143.179-.131-.186-4.034-5.708.235.011-4.968 5.66-.088.1-.068-.113-1.555-2.613-.4-.7a1.106 1.106 0 01-.122-.249c.064.067.12.141.166.221l.442.67 1.633 2.565-.155-.012 4.888-5.729.123-.145.111.156 4.07 5.682-.274-.008 4.266-5.368.263-.33.136-.171.14.167 4.768 5.7-.268.011 4.072-5.68.12-.167.116.167 4.009 5.725h-.146l1.734-2.079.464-.538a.988.988 0 01.178-.176zM462.042 437.382c0 .1-7.17.179-16.012.179s-16.013-.08-16.013-.179c0-.099 7.168-.178 16.013-.178 8.845 0 16.012.08 16.012.178zM463.487 461.623c0 .1-7.792.178-17.4.178-9.608 0-17.4-.079-17.4-.178 0-.099 7.791-.178 17.4-.178 9.609 0 17.4.08 17.4.178z" fill="#F5F5F5"/><path d="M309.057 415.105l-114.836-.068a25.013 25.013 0 01-25-25.02l.056-287.9a25.028 25.028 0 017.334-17.69 25.015 25.015 0 0117.696-7.32l114.836.067a25.017 25.017 0 0125 25.02l-.057 287.9a25.011 25.011 0 01-25.029 25.011z" fill="#1C2E5C"/><path d="M309.021 87.36l-22.264-.012A5.532 5.532 0 00281.349 93v4.038a5.53 5.53 0 01-5.407 5.649l-43.4-.026A5.534 5.534 0 01227.137 97v-4.035a5.534 5.534 0 00-5.406-5.655H213.9l-19.487-.011a17.525 17.525 0 00-16.194 10.81 17.536 17.536 0 00-1.335 6.706l-.055 281.007a17.522 17.522 0 0017.509 17.524l114.607.066a17.515 17.515 0 0012.393-5.127 17.516 17.516 0 005.136-12.388l.055-281.009a17.516 17.516 0 00-17.508-17.527z" fill="#FAFAFA"/><path d="M243.237 379.833a2.202 2.202 0 01-1.341 2.043 2.202 2.202 0 01-3.013-1.578 2.205 2.205 0 01.917-2.266 2.201 2.201 0 013.437 1.801zM255.564 379.731a2.195 2.195 0 01-1.341 2.043 2.202 2.202 0 01-3.013-1.578 2.196 2.196 0 01.917-2.266 2.194 2.194 0 012.062-.221 2.21 2.21 0 011.375 2.022zM267.891 379.629a2.195 2.195 0 01-1.341 2.043 2.202 2.202 0 01-3.013-1.578 2.205 2.205 0 01.917-2.266 2.194 2.194 0 012.062-.221 2.21 2.21 0 011.375 2.022zM188.877 125.4c.073-.012.146-.018.219-.018l.6-.024 2.215-.061-.077.078-.029-1.61c0-.3-.027-.577 0-.93a.881.881 0 01.763-.7c.363-.007.67-.024 1.066-.006a.882.882 0 01.749.88l.028 2.348-.129-.127 2.8-.03-.133.136-.032-3.489c0-.3 0-.594-.007-.889a.872.872 0 00-.386-.642l-1.224-1.207-1.18-1.166-.572-.566c-.2-.192-.348-.382-.567-.426a.723.723 0 00-.621.118c-.164.138-.35.345-.519.51l-1.006 1.012c-.631.654-1.295 1.259-1.768 1.817a1.968 1.968 0 00-.141 1.034l-.005.984c0 .6-.011 1.126-.015 1.588l-.017 1.018c.003.124-.003.248-.017.371a2.065 2.065 0 01-.024-.333 620.2 620.2 0 00-.033-1l-.042-1.6-.021-1.009a2.149 2.149 0 01.147-1.148c.523-.643 1.136-1.2 1.773-1.878l1-1.023c.181-.177.324-.35.543-.538a.966.966 0 01.834-.165c.269.095.506.264.684.487l.575.563 1.185 1.161 1.227 1.2a1.141 1.141 0 01.468.829c0 .3.005.6.008.894l.026 3.49v.135h-.134l-2.8.017h-.128v-.128l-.01-2.348a.647.647 0 00-.546-.657c-.314-.017-.7-.007-1.01 0a.667.667 0 00-.586.526c-.026.273-.007.608-.013.891v1.689h-.077l-2.261-.024-.586-.014a.906.906 0 01-.194-.02zM244.754 123.3c0 .692-.549 1.093-1.6 1.093h-2.071v-4.006h1.956c1 0 1.517.418 1.517 1.042a.964.964 0 01-.532.881.991.991 0 01.73.99zM242 121.082v.944h.921c.452 0 .7-.16.7-.475 0-.315-.246-.469-.7-.469H242zm1.819 2.118c0-.338-.257-.5-.738-.5H242v.989h1.081c.483.002.74-.146.74-.489h-.002zM248.091 123.531h-1.859l-.355.859h-.95l1.785-4.006h.916l1.791 4.006h-.973l-.355-.859zm-.292-.7l-.634-1.534-.636 1.534h1.27zM253.505 120.384v4.006h-.76l-2-2.432v2.432h-.915v-4.006h.766l1.991 2.432v-2.432h.918zM255.909 122.816l-.537.561v1.013h-.922v-4.006h.922v1.871l1.773-1.871h1.03l-1.659 1.785 1.756 2.221h-1.081l-1.282-1.574zM310.324 118.249a.834.834 0 01-1.002.818.84.84 0 01-.656-.66.833.833 0 01.359-.858.837.837 0 011.299.7zM310.312 121.257a.834.834 0 01-1.429.586.833.833 0 01.596-1.425.835.835 0 01.833.839zM310.3 124.265a.834.834 0 01-1.429.586.833.833 0 01.596-1.425.84.84 0 01.771.519c.042.101.063.21.062.32z" fill="#1C2E5C"/><path d="M251.164 220.7a26.362 26.362 0 01-14.649-4.444 26.363 26.363 0 01-11.213-27.068 26.37 26.37 0 0120.718-20.718 26.367 26.367 0 0131.511 25.863 26.398 26.398 0 01-26.367 26.367zm0-50.735a24.372 24.372 0 00-22.513 15.042 24.365 24.365 0 0031.837 31.839 24.37 24.37 0 0015.043-22.513 24.398 24.398 0 00-24.367-24.373v.005z" fill="#FDBC5A"/><path d="M239.418 194.81l3.379-3.379 6.517 5.793 12.792-12.309 3.138 3.379-16.413 15.446-9.413-8.93zM215.581 238.655l.7-1.556a5.255 5.255 0 002.947.931c1.224 0 1.722-.409 1.722-.957 0-1.671-5.192-.523-5.192-3.84 0-1.518 1.224-2.78 3.763-2.78a5.99 5.99 0 013.1.791l-.638 1.568a5.041 5.041 0 00-2.475-.7c-1.224 0-1.7.459-1.7 1.02 0 1.646 5.191.51 5.191 3.789 0 1.492-1.237 2.768-3.788 2.768a6.373 6.373 0 01-3.63-1.034zM231.2 232.672v6.863h-1.888v-.816a2.777 2.777 0 01-2.131.918 2.735 2.735 0 01-2.933-3.087v-3.878h1.989v3.585c0 1.148.511 1.658 1.391 1.658.919 0 1.582-.587 1.582-1.85v-3.393h1.99zM232.535 236.1a3.548 3.548 0 013.827-3.533 3.146 3.146 0 013.075 1.748l-1.544.829a1.709 1.709 0 00-1.544-.944 1.899 1.899 0 100 3.8 1.69 1.69 0 001.544-.944l1.544.842a3.185 3.185 0 01-3.075 1.735 3.558 3.558 0 01-2.685-.931 3.54 3.54 0 01-1.142-2.602zM239.986 236.1c.001-.489.103-.973.299-1.421a3.54 3.54 0 013.528-2.112 3.146 3.146 0 013.074 1.748l-1.543.829a1.709 1.709 0 00-1.544-.944 1.899 1.899 0 100 3.8 1.69 1.69 0 001.544-.944l1.543.842a3.177 3.177 0 01-3.074 1.735 3.56 3.56 0 01-2.685-.931 3.553 3.553 0 01-1.142-2.602zM254.63 236.665h-5.191a1.832 1.832 0 001.964 1.377 2.325 2.325 0 001.722-.663l1.059 1.148a3.6 3.6 0 01-2.832 1.11c-2.372 0-3.916-1.493-3.916-3.534a3.484 3.484 0 011.068-2.557 3.497 3.497 0 012.593-.976 3.395 3.395 0 012.576.987 3.395 3.395 0 01.996 2.572c0 .153-.026.371-.039.536zm-5.217-1.161h3.381a1.711 1.711 0 00-1.69-1.431 1.716 1.716 0 00-1.691 1.431zM255.332 238.9l.663-1.428c.721.43 1.545.659 2.385.663.919 0 1.263-.242 1.263-.625 0-1.123-4.145.025-4.145-2.718 0-1.3 1.173-2.219 3.176-2.219a5.63 5.63 0 012.641.6l-.664 1.415a3.936 3.936 0 00-1.977-.51c-.893 0-1.276.281-1.276.638 0 1.174 4.147.038 4.147 2.743 0 1.275-1.187 2.181-3.241 2.181a5.89 5.89 0 01-2.972-.74zM262.106 238.9l.664-1.428c.722.43 1.545.659 2.385.663.919 0 1.263-.242 1.263-.625 0-1.123-4.146.025-4.146-2.718 0-1.3 1.174-2.219 3.177-2.219a5.635 5.635 0 012.64.6l-.664 1.415a3.93 3.93 0 00-1.976-.51c-.894 0-1.277.281-1.277.638 0 1.174 4.147.038 4.147 2.743 0 1.275-1.187 2.181-3.24 2.181a5.91 5.91 0 01-2.973-.74zM271.724 232.825h1.761v1.531h-1.71v5.179h-1.989v-5.179h-1.059v-1.531h1.059v-.306a2.397 2.397 0 011.618-2.439 2.392 2.392 0 011.035-.112 2.81 2.81 0 011.518.37l-.523 1.441a1.4 1.4 0 00-.8-.242c-.586 0-.906.319-.906.995l-.004.293zM281.394 232.672v6.863h-1.888v-.816a2.777 2.777 0 01-2.129.918 2.735 2.735 0 01-2.935-3.087v-3.878h1.99v3.585c0 1.148.511 1.658 1.391 1.658.918 0 1.582-.587 1.582-1.85v-3.393h1.989zM283.245 230.07h1.989v9.465h-1.989v-9.465z" fill="#FDBC5A"/><path d="M239.9 274.25v1.314h-.572v-1.3a4.287 4.287 0 01-2.731-1.04l.331-.651a3.899 3.899 0 002.4.96v-3.006c-1.257-.309-2.537-.7-2.537-2.2 0-1.1.789-2.046 2.537-2.184v-1.314h.572v1.3a4.475 4.475 0 012.32.708l-.286.675a4.224 4.224 0 00-2.034-.663v3.028c1.291.309 2.651.675 2.651 2.206 0 1.104-.834 2.064-2.651 2.167zm-.572-4.526v-2.857c-1.177.1-1.7.709-1.7 1.428-.002.869.763 1.189 1.7 1.429zm2.389 2.4c0-.9-.835-1.212-1.817-1.452v2.858c1.257-.091 1.817-.674 1.817-1.406zM248.892 266.193v8h-.823v-7.269h-1.886v-.731h2.709zM250.8 270.193c0-2.549 1.337-4.069 3.189-4.069s3.2 1.52 3.2 4.069-1.349 4.068-3.2 4.068c-1.851 0-3.189-1.519-3.189-4.068zm5.543 0c0-2.138-.96-3.315-2.354-3.315-1.394 0-2.355 1.177-2.355 3.315s.96 3.314 2.355 3.314 2.353-1.178 2.353-3.314h.001zM258.364 270.193c0-2.549 1.337-4.069 3.188-4.069 1.851 0 3.2 1.52 3.2 4.069s-1.349 4.068-3.2 4.068c-1.851 0-3.188-1.519-3.188-4.068zm5.543 0c0-2.138-.96-3.315-2.355-3.315s-2.354 1.177-2.354 3.315.96 3.314 2.354 3.314c1.394 0 2.355-1.178 2.355-3.314z" fill="#1C2E5C"/><path d="M234.379 250.849a1.86 1.86 0 01-1.19.379 1.559 1.559 0 01-1.269-.437 1.554 1.554 0 01-.454-1.263v-2.984h-.922v-.81h.922v-1.19h.985v1.19h1.558v.81h-1.558v2.943a.802.802 0 00.851.913c.278.003.549-.088.769-.257l.308.706zM238.487 245.681v.953a1.864 1.864 0 00-.225-.01 1.612 1.612 0 00-1.291.512 1.622 1.622 0 00-.422 1.323v2.707h-.984v-5.434h.943v.913a2.08 2.08 0 011.979-.964zM243.991 247.885v3.281h-.933v-.717a2.01 2.01 0 01-1.784.779c-1.23 0-2.01-.656-2.01-1.6 0-.871.564-1.59 2.184-1.59h1.559v-.194c0-.83-.482-1.312-1.456-1.312a2.738 2.738 0 00-1.723.585l-.41-.739a3.62 3.62 0 012.246-.7c1.486.003 2.327.722 2.327 2.207zm-.984 1.62v-.759h-1.518c-.974 0-1.251.38-1.251.841 0 .543.452.882 1.2.882a1.577 1.577 0 001.569-.964zM250.971 248.038v3.128h-.985v-3.014c0-1.067-.533-1.589-1.466-1.589a1.597 1.597 0 00-.698.103 1.589 1.589 0 00-.588.391 1.601 1.601 0 00-.437 1.306v2.8h-.984v-5.434h.943v.82a2.326 2.326 0 011.959-.871 2.097 2.097 0 012.256 2.36zM252.1 250.592l.41-.779c.568.368 1.23.564 1.907.563.914 0 1.292-.276 1.292-.738 0-1.22-3.434-.164-3.434-2.327 0-.974.871-1.63 2.266-1.63a3.955 3.955 0 011.979.492l-.421.779a2.831 2.831 0 00-1.569-.43c-.862 0-1.281.317-1.281.748 0 1.282 3.445.235 3.445 2.349 0 .984-.9 1.609-2.348 1.609a3.922 3.922 0 01-2.246-.636zM259.032 245.26v.472h1.58v.81h-1.559v4.624h-.984v-4.624h-.924v-.81h.924v-.482a1.634 1.634 0 011.794-1.754 1.83 1.83 0 011.107.318l-.3.749a1.263 1.263 0 00-.757-.256c-.583 0-.881.328-.881.953zM266.352 248.777h-4.409a1.845 1.845 0 001.969 1.59 2.038 2.038 0 001.569-.657l.543.636a2.964 2.964 0 01-5.065-1.9 2.663 2.663 0 012.727-2.768 2.615 2.615 0 011.963.805 2.615 2.615 0 01.724 1.995c0 .084-.011.207-.021.299zm-4.409-.707h3.486a1.75 1.75 0 00-1.743-1.558 1.757 1.757 0 00-1.743 1.558zM270.655 245.681v.953a1.702 1.702 0 00-.226-.01 1.605 1.605 0 00-.702.111 1.616 1.616 0 00-1.01 1.724v2.707h-.984v-5.434h.943v.913a2.071 2.071 0 011.979-.964zM285.378 307.878h-69.365c-7.043 0-12.752 5.709-12.752 12.752v5.696c0 7.043 5.709 12.752 12.752 12.752h69.365c7.043 0 12.752-5.709 12.752-12.752v-5.696c0-7.043-5.709-12.752-12.752-12.752z" fill="#FDBC5A"/><path d="M237.728 319.89h2.606a3.094 3.094 0 013.059 1.856 3.11 3.11 0 010 2.472 3.107 3.107 0 01-3.059 1.857h-2.606v-6.185zm2.553 5.416a2.34 2.34 0 001.764-.613c.236-.219.424-.483.552-.778a2.323 2.323 0 00-.552-2.644 2.34 2.34 0 00-1.764-.613h-1.67v4.648h1.67zM244.517 322.983a3.291 3.291 0 011.938-3.126 3.291 3.291 0 014.562 2.306 3.286 3.286 0 01-1.368 3.414 3.29 3.29 0 01-1.837.568 3.139 3.139 0 01-3.295-3.162zm5.689 0a2.4 2.4 0 10-2.394 2.376 2.317 2.317 0 001.708-.673 2.321 2.321 0 00.686-1.703zM257.754 319.89v6.185h-.724l-3.711-4.612v4.612h-.883v-6.185h.724l3.711 4.612v-4.612h.883zM264.093 325.306v.769h-4.488v-6.185h4.364v.768h-3.48v1.9h3.1v.751h-3.1v2l3.604-.003z" fill="#fff"/><path d="M440.556 465.666c0 .144-87.529.261-195.477.261-107.984 0-195.495-.117-195.495-.261 0-.144 87.511-.26 195.495-.26 107.948 0 195.477.117 195.477.26z" fill="#1C2E5C"/><path d="M387.066 432.984l-.674 32.172 42.349 1c-.147-3.829-21.854-12.022-21.854-12.022l1.327-20.6-21.148-.55z" fill="#FDBC5A"/><path opacity=".6" d="M393.838 452.09a1.638 1.638 0 00-1.245 1.837 1.663 1.663 0 001.916 1.182 1.729 1.729 0 001.308-1.952 1.752 1.752 0 00-2.138-1.021M386.392 465.156l.2-3.24 40.528 2.168s1.865.819 1.619 2.07l-42.347-.998z" fill="#fff"/><path d="M407.579 453.945c-.012.2-1.048.259-2.082.864-1.051.579-1.6 1.413-1.786 1.331-.19-.042.15-1.2 1.415-1.914 1.265-.714 2.503-.459 2.453-.281zM411.975 455.786c.042.19-.862.5-1.586 1.312-.749.79-.95 1.679-1.156 1.666-.2.026-.308-1.122.613-2.113.921-.991 2.13-1.051 2.129-.865zM414.366 460.869c-.189.038-.452-.946.108-2s1.537-1.461 1.621-1.3c.112.164-.531.723-.976 1.6-.466.863-.548 1.686-.753 1.7zM407.331 449.219c-.092.176-1.034-.116-2.2-.068-1.172.025-2.092.374-2.2.2-.116-.144.791-.846 2.171-.884 1.38-.038 2.334.601 2.229.752zM406.447 444.447c-.7.162-1.43.141-2.121-.06a9.941 9.941 0 01-2.2-.7 10.37 10.37 0 01-1.2-.639 2.647 2.647 0 01-.627-.487.813.813 0 01-.068-1.042 1.163 1.163 0 01.918-.425c.269.004.536.045.793.122.449.114.886.268 1.307.459a7.467 7.467 0 011.924 1.259c.96.883 1.276 1.621 1.2 1.657-.095.063-.557-.561-1.538-1.294a8.608 8.608 0 00-1.865-1.052 8.325 8.325 0 00-1.209-.383c-.445-.122-.827-.134-.947.052-.044.071-.05.1.041.225.137.139.292.259.461.356.355.23.722.441 1.1.631.652.324 1.332.589 2.031.791a15.18 15.18 0 012 .53z" fill="#1C2E5C"/><path d="M406.17 444.721a3.07 3.07 0 01-.508-1.95 6.187 6.187 0 01.919-3.387 1.738 1.738 0 011.38-.981.981.981 0 01.871.58c.103.235.17.485.2.74.061.449.049.905-.035 1.35-.14.754-.47 1.46-.96 2.05-.855 1.017-1.724 1.23-1.74 1.164-.066-.1.665-.46 1.324-1.442.379-.56.625-1.199.721-1.868a3.95 3.95 0 00-.009-1.159c-.055-.427-.214-.774-.384-.735-.21-.008-.577.3-.759.64a6.38 6.38 0 00-.554 1.074 6.845 6.845 0 00-.464 1.99c-.09 1.17.112 1.907-.002 1.934z" fill="#1C2E5C"/><path d="M354.969 435.656l-4.047 31.925-42.038-5.218c.706-3.766 23.378-8.69 23.378-8.69l1.705-20.569 21.002 2.552z" fill="#FDBC5A"/><path opacity=".6" d="M345.47 453.564a1.634 1.634 0 01.963 2 1.667 1.667 0 01-2.069.889 1.726 1.726 0 01-1.007-2.123 1.755 1.755 0 012.264-.7M350.922 467.581l.275-3.235-40.409-3.793s-1.965.537-1.9 1.81l42.034 5.218z" fill="#fff"/><path d="M331.606 453.386c-.017.2 1 .411 1.933 1.16.955.727 1.373 1.632 1.572 1.578.193-.014.028-1.212-1.12-2.1-1.148-.888-2.408-.824-2.385-.638zM326.987 454.563c-.069.183.78.623 1.377 1.53.626.891.694 1.8.9 1.818.189.054.469-1.065-.3-2.18-.769-1.115-1.95-1.352-1.977-1.168zM323.878 459.242c.182.064.585-.87.187-2-.398-1.13-1.307-1.671-1.414-1.52-.135.146.419.793.731 1.724.335.926.295 1.754.496 1.796zM332.544 448.748c.065.188 1.039.037 2.19.255 1.156.2 2.014.677 2.141.524.136-.126-.659-.953-2.018-1.193-1.359-.24-2.395.249-2.313.414zM334.117 444.157a4.22 4.22 0 002.107.251 10 10 0 002.28-.367 10.03 10.03 0 001.283-.456 2.58 2.58 0 00.692-.39.813.813 0 00.219-1.02 1.146 1.146 0 00-.845-.556 2.897 2.897 0 00-.8.005c-.46.048-.916.135-1.361.262a7.487 7.487 0 00-2.087.964c-1.079.733-1.5 1.417-1.434 1.463.085.076.633-.473 1.711-1.055a8.585 8.585 0 012-.767 8.16 8.16 0 011.252-.2c.458-.056.837-.012.929.19.033.077.035.105-.073.217a2.067 2.067 0 01-.509.284c-.386.176-.782.331-1.185.463a12.16 12.16 0 01-2.125.485 14.92 14.92 0 00-2.054.227z" fill="#1C2E5C"/><path d="M334.351 444.468c.069.039.56-.606.788-1.854a6.175 6.175 0 00-.023-2.215 6.389 6.389 0 00-.39-1.275 1.737 1.737 0 00-1.221-1.172.983.983 0 00-.946.446 2.584 2.584 0 00-.3.7 4.22 4.22 0 00-.164 1.341c.028.766.252 1.513.65 2.168.7 1.132 1.525 1.47 1.55 1.406.081-.089-.59-.552-1.1-1.62a4.444 4.444 0 01-.439-1.953c.002-.388.061-.774.178-1.145.117-.415.326-.735.488-.671.209.023.526.385.657.744.165.368.296.751.391 1.143.157.667.213 1.354.167 2.037-.087 1.177-.395 1.876-.286 1.92z" fill="#1C2E5C"/><path d="M423.8 262.1l-69.823 2.232s-15.539 103.779-15.111 110.989l-9.583 75.279 27.886.978s4.387-24.411 7.446-41.118c2.036-11.117 5.75-27.426 6.757-36.708 1.007-9.282 14.9-73.171 14.9-73.171s1.208 74.313 1.235 77.4c.027 3.087-3.223 73.533-3.223 73.533h27.69c1.43-12.714 4.828-63.591 5.56-73.873 1.321-18.561 7.813-71.965 8.42-85.366.607-13.401-2.154-30.175-2.154-30.175z" fill="#1C2E5C"/><path d="M364.574 273.244a21.926 21.926 0 01-.2-6.474c.387 2.136.455 4.318.2 6.474zM367.12 272.491a15.804 15.804 0 01.512-5.476 15.809 15.809 0 01-.512 5.476zM409.732 272.495a11.737 11.737 0 010-4.73 11.7 11.7 0 010 4.73zM412.47 273.739a8.892 8.892 0 01.5-5.974c-.029 1-.125 1.996-.288 2.984-.004 1-.075 1.999-.212 2.99zM390.228 298.918c.011-.409.065-.816.161-1.214l.56-3.282c.458-2.772 1-6.617 1.346-10.887.346-4.27.43-8.154.424-10.964l-.025-3.329a6.036 6.036 0 01.036-1.224c.092.399.142.807.151 1.216.07.785.133 1.923.179 3.332a100.258 100.258 0 01-1.775 21.916 63.06 63.06 0 01-.712 3.26 6.01 6.01 0 01-.345 1.176zM387.84 268.8a2.549 2.549 0 00-1.4.778 1.953 1.953 0 00-.455 1.562 1.811 1.811 0 003.159.6 1.962 1.962 0 00.149-1.621 2.518 2.518 0 00-1.013-1.235c.005-.022.186-.026.466.12.393.224.699.575.866.995a2.24 2.24 0 01-.089 1.973 2.223 2.223 0 01-3.976-.756 2.235 2.235 0 01.641-1.868 2.01 2.01 0 011.171-.608c.319-.034.485.036.481.06zM357.443 383.3a118.093 118.093 0 01-13.941-5.726 59.164 59.164 0 017.062 2.64 59.022 59.022 0 016.879 3.086z" fill="#0FA6AF"/><path d="M427.491 266.77c-.248-.891-5.808-46.962-5.808-46.962l2.887-59.791-24.88-8.725-3.938-3.006-25.007.29-2.833 4.22-23.679 10.776 6.6 48.986 1.852 40.992 1.75 15.181 70.184 4.186 2.872-6.147z" fill="#0FA6AF"/><path opacity=".3" d="M423.673 236.041l-26.261 3.159a4.645 4.645 0 003.033 4.553 11 11 0 005.8.366c1.921-.4 3.881-.578 5.842-.531 1.959.173 3.864.946 5.827.825a6.445 6.445 0 004.919-2.781 6.451 6.451 0 00.843-5.587l-.003-.004z" fill="#000"/><path d="M424.57 160.017s5.823.815 9.224 11.018c3.401 10.203 11.394 47.275 11.9 49.826.506 2.551-1.7 10.692-10.583 14.334a30.79 30.79 0 01-15.265 2.394V218.82l3.741-4.081-1.465-6.62 2.448-48.102z" fill="#0FA6AF"/><path d="M440.386 215.743a7.522 7.522 0 01-.889-.373 39.483 39.483 0 00-2.425-.994 23.463 23.463 0 00-3.724-1.059 16.562 16.562 0 00-2.264-.286 9.124 9.124 0 00-2.424.144 12.687 12.687 0 00-7.264 4.248 8.53 8.53 0 00-1.262 2.262 7.982 7.982 0 01-.284.918.863.863 0 01.033-.248c.033-.16.074-.4.152-.7a7.938 7.938 0 011.211-2.346 12.554 12.554 0 017.363-4.4 9.25 9.25 0 012.491-.143c.771.047 1.538.15 2.295.306a22.02 22.02 0 013.745 1.124c1.036.407 1.847.8 2.4 1.076.278.139.49.255.633.334a.9.9 0 01.213.137z" fill="#1C2E5C"/><path d="M435.115 212.244c-.018.047-.7-.27-1.878-.51a10.348 10.348 0 00-8.748 2.19c-.924.765-1.378 1.367-1.416 1.335.078-.16.179-.307.3-.437.302-.374.635-.723.994-1.042a9.885 9.885 0 018.913-2.231c.468.111.926.262 1.369.45.167.059.324.141.466.245zM392.227 174.269a1.308 1.308 0 01-.207-.13l-.582-.405a26.257 26.257 0 00-2.294-1.366c-1.011-.543-2.272-1.124-3.7-1.817a25.875 25.875 0 01-4.561-2.725l.179-.034-4.38 7.361-.158.266-.086-.3c-.1-.362-.215-.751-.327-1.142a117.353 117.353 0 00-5.556-15.115 138.217 138.217 0 00-2.077-4.422l-.586-1.193-.148-.313a.374.374 0 01-.042-.111c.027.029.05.063.066.1l.172.3c.146.267.365.658.631 1.171a96.48 96.48 0 012.156 4.391 108.865 108.865 0 015.641 15.118l.328 1.145-.244-.033 4.4-7.348.07-.117.108.084a26.142 26.142 0 004.5 2.735c1.418.706 2.676 1.307 3.681 1.87.785.43 1.542.908 2.269 1.431.251.184.435.337.561.436.068.047.13.102.186.163zM401.291 152.083c.05.135.089.274.115.415l.279 1.2.978 4.43c.4 1.873.9 4.1 1.4 6.581.273 1.303.447 2.625.522 3.954a10.953 10.953 0 01-.569 4.25c-.083.253-.2.491-.3.732l-.1.244-.136-.234a57.51 57.51 0 01-4.136-8.711l.2.028-4.671 6.238-1.326 1.738-.356.453a.75.75 0 01-.133.148.882.882 0 01.1-.17l.328-.474 1.274-1.777c1.125-1.542 2.7-3.707 4.594-6.294l.126-.173.076.2a59.78 59.78 0 004.149 8.658l-.236.01c.1-.234.213-.463.293-.709a10.76 10.76 0 00.558-4.148 27.037 27.037 0 00-.5-3.917l-1.348-6.589-.894-4.447-.23-1.212a2.752 2.752 0 01-.057-.424zM422.655 175.308c.074 0 .023 9.132-.114 20.392s-.308 20.392-.382 20.391c-.074-.001-.023-9.13.114-20.394.137-11.264.308-20.39.382-20.389z" fill="#1C2E5C"/><path d="M370.8 150.614l9.5 12.906 12.273 9.858 5.533-9.633-.944-9-.791-7.549s9.868-2.467 9.081-12.486c-.38-4.838-1.973-14.736-3.519-23.678a18.725 18.725 0 00-20.15-15.462l-.966.088c-10.357 1.555-14.822 11.221-12.98 21.531l2.957 33.425" fill="#AA7E72"/><path d="M396.386 147.189A23.366 23.366 0 01383 144.668s3.74 6.922 13.644 5.112l-.258-2.591z" fill="#7F5D55"/><path d="M399.28 119.217a1.434 1.434 0 01-1.247 1.568 1.38 1.38 0 01-1.038-.243 1.365 1.365 0 01-.552-.912 1.437 1.437 0 011.245-1.568 1.37 1.37 0 011.592 1.155zM400.332 115.58c-.16.2-1.316-.5-2.854-.356-1.538.122-2.594 1.016-2.778.842-.09-.076.06-.429.519-.831a3.934 3.934 0 012.2-.9c.8-.076 1.603.105 2.293.516.508.315.7.638.62.729zM384.559 120.594c.038.372-.072.745-.304 1.038a1.44 1.44 0 01-.943.53 1.385 1.385 0 01-1.039-.242 1.382 1.382 0 01-.551-.913 1.437 1.437 0 011.245-1.568 1.365 1.365 0 011.04.242 1.378 1.378 0 01.552.913zM384.967 116.542c-.138.218-1.364-.355-2.876-.045-1.515.288-2.469 1.291-2.671 1.138-.1-.065.012-.432.427-.882a3.938 3.938 0 012.092-1.139 3.781 3.781 0 012.335.265c.536.263.762.563.693.663zM391.758 128.679a10.23 10.23 0 012.457-.678c.389-.076.753-.188.8-.462a1.998 1.998 0 00-.368-1.14l-1.433-2.885c-2-4.111-3.487-7.506-3.321-7.585.166-.079 1.923 3.189 3.923 7.3l1.387 2.907c.29.451.412.99.344 1.523a.991.991 0 01-.594.633c-.212.079-.433.13-.658.153-.832.185-1.685.264-2.537.234zM384.575 109.887c-.114.432-1.668.374-3.452.755-1.793.346-3.2 1.007-3.473.654-.123-.17.1-.587.646-1.045a6.139 6.139 0 015.276-1.073c.686.207 1.05.505 1.003.709zM399.721 112.587c-.239.374-1.331.107-2.607.206-1.279.055-2.331.449-2.613.106-.125-.167.013-.532.454-.906a3.787 3.787 0 014.206-.252c.483.318.664.665.56.846z" fill="#1C2E5C"/><path d="M369.332 124.525c-.177-.058-7.061-1.408-6.22 5.414.841 6.822 7.517 4.57 7.5 4.373-.017-.197-1.28-9.787-1.28-9.787z" fill="#AA7E72"/><path d="M368.214 131.985c-.033-.019-.109.1-.3.214a1.202 1.202 0 01-.886.128 2.968 2.968 0 01-1.686-2.471 3.978 3.978 0 01.122-1.742 1.39 1.39 0 01.782-1.023.608.608 0 01.741.24c.115.179.089.32.126.328.037.008.133-.133.043-.407a.76.76 0 00-.321-.4.9.9 0 00-.679-.092 1.685 1.685 0 00-1.111 1.21 4.074 4.074 0 00-.177 1.953 3.112 3.112 0 002.1 2.732c.19.03.384.018.568-.036.184-.055.354-.15.496-.278.19-.19.207-.347.182-.356z" fill="#7F5D55"/><path d="M401.985 99.252a3.499 3.499 0 00-2.88-2.554 3.13 3.13 0 00-5.2-3.183 3.206 3.206 0 00-1.675-2.422 3.214 3.214 0 00-2.944-.041 2.713 2.713 0 00-2.188-2.576 2.709 2.709 0 00-2.997 1.563 4.671 4.671 0 00-7.3.069 5.964 5.964 0 00-6.924 3.843 5.677 5.677 0 00-4.619 4.33 4.14 4.14 0 00-3.177 2.657 4.146 4.146 0 00.709 4.081 3.065 3.065 0 00-1.042 3.769c.193.432.484.813.849 1.114a3.016 3.016 0 00.573 5.421c-1 .216-1.278 1.584-.89 2.526.513.879 1.07 1.731 1.67 2.553.4.739.57 1.579.922 2.342a5.454 5.454 0 003.519 2.931l-.16.222c-.1.893 1.178 1.385 1.971.963a4.463 4.463 0 001.592-2.118 9.815 9.815 0 001.189-2.834 2.387 2.387 0 00-1.184-2.6 3.583 3.583 0 001.912-3.017 10.55 10.55 0 00-.55-3.688l-1.46-5.338a6.861 6.861 0 005.553-4.413 3.942 3.942 0 003.206.293 3.93 3.93 0 002.349-2.201 5.121 5.121 0 006.487 2.59c-.143 1.44 2.518 2.526 3.945 2.773a5.06 5.06 0 003.084-.9s2.524 1.2 3.788.557c1.241-.63 2.825-2.437 1.857-3.715a6.38 6.38 0 00.015-2.997z" fill="#1C2E5C"/><path d="M362.248 109.913c.064-.03.15.463.758.823a1.328 1.328 0 001.139.1 1.394 1.394 0 00.862-1.1l.045-.417.342.252a1.79 1.79 0 002.008.058 1.788 1.788 0 00.792-1.845l-.083-.4.384.122a1.804 1.804 0 002.158-.951c.124-.334.211-.681.258-1.034.032-.02.246.415.009 1.144a2.024 2.024 0 01-.841 1.05 2.198 2.198 0 01-.834.302 2.207 2.207 0 01-.886-.055l.3-.278a2.242 2.242 0 01-.983 2.388 2.243 2.243 0 01-2.58-.115l.386-.165a1.786 1.786 0 01-1.207 1.426 1.602 1.602 0 01-1.437-.235c-.667-.516-.63-1.09-.59-1.07zM361.809 116.563c.245.097.499.171.758.221a1.654 1.654 0 001.654-.886l.113-.25.208.184a1.845 1.845 0 001.788.331 1.79 1.79 0 001.136-1.714l-.021-.452.4.213c.103.054.212.093.326.115a1.258 1.258 0 001.341-.586 1.322 1.322 0 00-.067-1.368l-.293-.4.49.031a2.153 2.153 0 002.219-1.642 4.7 4.7 0 00.049-1.208c.024-.024.332.413.222 1.262a2.351 2.351 0 01-.687 1.343 2.525 2.525 0 01-1.826.708l.2-.371a1.78 1.78 0 01.139 1.885 1.758 1.758 0 01-2.358.686l.382-.239a2.2 2.2 0 01-3.714 1.7l.321-.065a1.757 1.757 0 01-1.042.888 1.888 1.888 0 01-1.016.058c-.559-.136-.746-.433-.722-.444zM388.372 90.937a2.55 2.55 0 00-.812-.374 1.452 1.452 0 00-.994.147 1.482 1.482 0 00-.742 1.065l-.057.4-.237-.332a2.51 2.51 0 00-2.215-.993 2.436 2.436 0 00-2.1 1.923l-.09.462-.32-.347a3.048 3.048 0 00-2.468-.923 2.984 2.984 0 00-2.636 2.724l-.022.28-.276-.042a2.933 2.933 0 00-3.125 1.822 2.994 2.994 0 00.772 3.153l.289.258-.37.1a3.24 3.24 0 00-1.934 1.5 3.183 3.183 0 00-.408 1.866c.073.567.246 1.118.509 1.626-.014.011-.134-.1-.3-.355a3.204 3.204 0 01-.447-1.244 3.335 3.335 0 01.349-2.055 3.55 3.55 0 012.117-1.735l-.082.357a3.33 3.33 0 01.621-5.457 3.33 3.33 0 012.088-.343l-.3.238a3.479 3.479 0 013.107-3.2 3.517 3.517 0 012.864 1.107l-.41.115a2.8 2.8 0 012.187-2.195 2.795 2.795 0 012.867 1.172l-.294.067a1.74 1.74 0 01.947-1.24 1.6 1.6 0 011.152-.091c.233.064.446.183.623.347.117.114.157.189.147.197z" fill="#0FA6AF"/><path d="M404.837 129.251a2.155 2.155 0 00-3.1 1.243 2.676 2.676 0 00-4.687 1.112 2.188 2.188 0 00-1.736-1.213 2.192 2.192 0 00-1.953.82 1.722 1.722 0 00-1.907-.631 1.705 1.705 0 00-.979-1.63 1.7 1.7 0 00-1.878.298 2.747 2.747 0 00-1.963-1.141 2.775 2.775 0 00-2.156.716 1.528 1.528 0 00-1.584-.984 1.535 1.535 0 00-1.361 1.275 2.487 2.487 0 00-2.91-.567 1.66 1.66 0 00-2.153-1.392c.186-.861-1.08-1.166-1.754-1.733-.3-.254-.506-.613-.828-.841-.322-.228-.857-.248-1.036.1a1.418 1.418 0 00-2.721-.759 4.307 4.307 0 00-.157 1.222c-.109 1.326-.75 2.933.261 3.8.178.153.4.274.49.492.146.373-.2.76-.208 1.161 0 .466.445.793.661 1.206a4.25 4.25 0 01.1 2.041c-.006.691.438 1.539 1.12 1.427a2.417 2.417 0 00.942 2.943 2.348 2.348 0 00.74 2.567c.244.201.527.35.83.44a1.214 1.214 0 00.01 1.6c.405.427.909.747 1.468.93a1.001 1.001 0 00-.153 1.422c.363.404.858.665 1.395.739.232.018.45.117.617.279.268.341-.031.845.062 1.268.144.648 1.076.779 1.389 1.364.279.52 0 1.291.46 1.669.294.244.732.168 1.1.273.657.186.987.891 1.43 1.411a5.75 5.75 0 003.435 1.584 30.27 30.27 0 001.943.3c1.3.159 2.6.235 3.907.311.647.038 1.439 0 1.742-.574a2.233 2.233 0 001.928.566c.343-.062.667-.204.946-.413.278-.21.504-.482.659-.794a5.42 5.42 0 003.42-.871l1.108-.566c1.1-.563 2.322-1.275 2.582-2.484a2.501 2.501 0 001.839-2.459 2.495 2.495 0 00-.262-1.061c.525.115.993-.437 1.042-.972a4.814 4.814 0 00-.3-1.575c-.524-2.124.48-4.383.05-6.528-.3-1.5-1.3-2.943-.954-4.436.107-.297.16-.611.157-.926-.041-.312-.35-.619-.645-.508a1.398 1.398 0 00-1.531-1.772" fill="#1C2E5C"/><path d="M387.329 130.155c.248-.037.4 1.632 1.94 2.687s3.3.709 3.332.941c.032.1-.367.361-1.117.449a4.175 4.175 0 01-2.772-.691 3.637 3.637 0 01-1.52-2.263c-.127-.692.021-1.122.137-1.123z" fill="#fff"/><path d="M378.277 142.541a11.407 11.407 0 01-.59-7.1c-.18.315-.302.66-.36 1.018a8.536 8.536 0 00.427 5.14c.117.343.294.662.523.942zM376.551 140.221c.034-.035-.226-.256-.429-.737a4.962 4.962 0 01-.291-2.013c.023-1.627.392-2.913.313-2.934a6.742 6.742 0 00-.584 2.929 4.302 4.302 0 00.39 2.1c.267.5.589.678.601.655zM374.781 138.936a7.938 7.938 0 01-.626-6.007 2.207 2.207 0 00-.368.854 6.093 6.093 0 00.458 4.393c.123.288.306.547.536.76zM403.314 147.458a1.77 1.77 0 00.917-.668 5.488 5.488 0 001.046-2.525c.168-.9.187-1.822.059-2.728a3.11 3.11 0 00-.287-1.092 13.845 13.845 0 01-.039 3.771 6.06 6.06 0 01-.93 2.456 6.538 6.538 0 01-.766.786zM401.831 147.183c.287-.138.54-.34.738-.589a5.374 5.374 0 001.373-4.246 2.118 2.118 0 00-.253-.91c.001.31.022.619.062.926a6.138 6.138 0 01-1.327 4.1 7.053 7.053 0 00-.593.719zM394.8 134.028a2.197 2.197 0 00-.644-2.41c-.062.049.265.515.436 1.174.171.659.127 1.224.208 1.236zM393.037 133.721c.049.053.456-.359.518-1.034s-.252-1.156-.31-1.114c-.058.042.1.5.04 1.088-.06.588-.312 1.014-.248 1.06zM391.264 133.294c.052.048.421-.334.549-.954a1.314 1.314 0 00-.116-1.094c-.077.016-.028.486-.149 1.038s-.348.964-.284 1.01zM389.929 131.95c.065.034.259-.22.362-.591.103-.371.069-.689 0-.694-.069-.005-.16.278-.256.621-.096.343-.175.631-.106.664zM388.809 131.451c.071.032.283-.318.649-.641.366-.323.732-.5.708-.577-.024-.077-.476 0-.889.375-.413.375-.536.821-.468.843zM387.124 130.314c.057.056.492-.346 1.163-.561.671-.215 1.255-.165 1.267-.244a1.62 1.62 0 00-1.352-.013c-.746.243-1.137.779-1.078.818zM394.659 149.445a3.19 3.19 0 00.668-.962 7.445 7.445 0 00.523-5.532 3.122 3.122 0 00-.476-1.07c-.042.018.128.43.291 1.12a8.463 8.463 0 01-.51 5.4c-.29.646-.534 1.018-.496 1.044zM392.889 149.446a5.825 5.825 0 001.211-5.5 8.983 8.983 0 01-1.211 5.5zM389.756 149.031c.258-.072.494-.205.688-.388a4.736 4.736 0 001.772-3.293 1.645 1.645 0 00-.055-.788 6.29 6.29 0 01-2.4 4.469h-.005z" fill="#0FA6AF"/><path d="M423.11 216.852l-13.983-.18a2.638 2.638 0 00-2.323 1.334l-9.564 20.709.36 1.4h16.254l9.5-21.353-.244-1.91z" fill="#1C2E5C"/><path d="M422.985 219.6l-.517 1.167-2.832 5.729s-7.33-.656-8.483-.809c-1.153-.153-1.767 1.076-1.844 1.8.028.571.245 1.117.615 1.552a33.76 33.76 0 01-6.071-2.506c-1.537-1.076-2.3-.4-2.3-.4a2.107 2.107 0 00-3.227.4 26.425 26.425 0 002.228 5.4c.615.941 4 4.208 4.226 4.593.226.385 2.843 1.075 5.84 2.718a4.44 4.44 0 005.189-.533c.141-.003.282-.015.421-.034.691-.077 2.536-1.844 3-1.788.464.056.845-.056 1.767-1.076a30.535 30.535 0 004.057-7.663c.537-1.829.223-2.3.07-2.42.854.415 1.77.687 2.712.806 1.921.307 2.92-1.076 3.074-3.688.154-2.612-5.774-2.559-7.925-3.248z" fill="#AA7E72"/><path d="M421.992 231.544c-.157.058-.32.097-.486.116-.447.082-.898.138-1.351.167a15.953 15.953 0 01-8.687-1.883 11.197 11.197 0 01-1.161-.711 1.951 1.951 0 01-.394-.307c.023-.036.613.359 1.632.871a17.665 17.665 0 008.6 1.864c1.14-.044 1.84-.161 1.847-.117zM422.127 226.3a4.902 4.902 0 01-3.448.155c.013-.068.781.046 1.728 0s1.701-.219 1.72-.155zM425.6 226.056c-.029.064-1.067-.377-2.4-.743s-2.447-.531-2.439-.6c1.699.044 3.361.505 4.839 1.344v-.001zM424.93 221.122c.066.022-.2.821-.209 1.839a4.21 4.21 0 00.129 1.27c.1.3.312.38.3.413 0 .013-.063.017-.157-.029a.7.7 0 01-.293-.316 3.185 3.185 0 01-.213-1.342 3.385 3.385 0 01.443-1.835zM417.876 236a.83.83 0 01-.228.008l-.651-.023a35.49 35.49 0 01-2.388-.189 17.575 17.575 0 01-3.486-.731c-.67-.22-1.32-.501-1.939-.839-.644-.349-1.278-.76-1.927-1.174a732.514 732.514 0 01-7.2-4.648l-.04-.026.005-.044a2.538 2.538 0 01.929-1.668 2.35 2.35 0 01.436-.274.583.583 0 01.167-.059 5.26 5.26 0 00-.551.4c-.47.418-.767.996-.832 1.621l-.034-.071a739.694 739.694 0 017.246 4.575c.65.415 1.278.824 1.911 1.171.608.334 1.243.614 1.9.836 1.119.365 2.27.623 3.438.771 1 .137 1.812.206 2.374.263l.647.067a.879.879 0 01.223.034zM415.4 238.492a3.603 3.603 0 01-.687-.075 35.24 35.24 0 01-7.792-2.181 12.24 12.24 0 01-2.948-1.763 17.438 17.438 0 01-2-1.957c-.528-.6-.929-1.1-1.2-1.449a3.84 3.84 0 01-.406-.56c.173.153.332.32.476.5.3.331.716.817 1.256 1.4a19.18 19.18 0 002.018 1.9c.887.7 1.865 1.278 2.906 1.717a40.87 40.87 0 005.884 1.886c.769.19 1.4.325 1.83.42.225.036.447.09.663.162z" fill="#7F5D55"/><path d="M346.988 175.56a37.578 37.578 0 01-1.475-4.241 37.422 37.422 0 01-1.22-4.322 37.777 37.777 0 011.475 4.241 37.884 37.884 0 011.22 4.322zM424.352 162.872a6.356 6.356 0 01-.129 1.261l-.406 3.022-.35 3.03c-.02.423-.082.843-.185 1.254a5.496 5.496 0 010-1.269c.038-.782.126-1.861.274-3.048.148-1.187.329-2.253.484-3.02a5.62 5.62 0 01.312-1.23zM393.235 269.977a.875.875 0 01-.02-.25v-.733c.009-.687.021-1.626.034-2.819l.223-10.362c.23-8.786.547-20.851.9-34.179.32-13.349.15-25.439-.458-34.164-.271-4.364-.659-7.882-.912-10.315l-.335-2.8-.075-.729a.887.887 0 01-.007-.252.89.89 0 01.06.244l.125.722.433 2.786c.315 2.428.76 5.946 1.078 10.314.7 8.733.932 20.844.612 34.2-.32 13.356-.759 25.432-1.049 34.179-.163 4.34-.3 7.867-.388 10.357l-.132 2.816-.047.731a.913.913 0 01-.042.254z" fill="#1C2E5C"/><path d="M399.937 233.138a6.72 6.72 0 01-1.044.835 63.943 63.943 0 01-3 2.065 102.05 102.05 0 01-21.483 10.651c-1.449.511-2.632.9-3.457 1.135a6.598 6.598 0 01-1.3.325 6.556 6.556 0 011.232-.517l3.394-1.288a135.117 135.117 0 0010.953-4.814c4.189-2.073 7.851-4.2 10.461-5.8l3.08-1.922a6.533 6.533 0 011.164-.67z" fill="#1C2E5C"/><path opacity=".3" d="M346.87 237.744a39.793 39.793 0 00-7.964-3.5 13.369 13.369 0 00-8.558.206c-.3.124-.636.32-.658.643-.031.449.536.662.98.733 5.337.847 10.978 1.24 16.324 2.024M348.954 185.924a56.436 56.436 0 001.729 28.2l-1.729-28.2z" fill="#000"/><path d="M376.347 283.838s-5.473-4.445-7.059-6.465c-1.586-2.02-2.621-3.188-2.621-3.188s-6.555-1.964-8.965-4.735c-2.41-2.771-6.369-6.773-6.369-6.773l-7.77 8.143s4.481 7.265 4.846 9.659c.365 2.394 3.1 8.993 3.1 8.993l14.914-8.917s3.176 4.446 5.21 4.931c1.667.398 4.584 1.602 4.714-1.648z" fill="#AA7E72"/><path d="M344.233 163.572s-5.376 1.368-10.7 21.4c-4.81 18.092-11.349 53.014-11.126 56.526.223 3.512 21 35.022 21 35.022l4.489 1.6 9.651-8.023s3.149-5.224 2.252-6.5c-.897-1.276-4.9-3.948-4.9-3.948l-7.9-21.8 4.384-28.9-7.15-45.377z" fill="#0FA6AF"/><path d="M338.857 236.484c.195-.015.391-.002.582.036l1.639.219 5.95.907.117.018.042.114 4.523 12.323c1.232 3.435 2.392 6.668 3.4 9.47l-.072-.1c.65.548 1.292 1.013 1.868 1.583a6.516 6.516 0 011.823 5.426 9.068 9.068 0 01-.682 2.225 3.428 3.428 0 01-.343.746c.039-.272.109-.538.208-.794a10.49 10.49 0 00.547-2.208 6.361 6.361 0 00-.614-3.383 6.265 6.265 0 00-1.237-1.713c-.529-.509-1.209-.993-1.858-1.524l-.05-.041-.022-.06c-1.022-2.795-2.2-6.021-3.456-9.448l-4.419-12.361.159.132-5.92-1.083-1.621-.328a2.13 2.13 0 01-.564-.156z" fill="#1C2E5C"/><path d="M349.1 185.245c.144-.008 1.051 14.73 2.026 32.914.975 18.184 1.65 32.937 1.507 32.944-.143.007-1.051-14.727-2.027-32.916-.976-18.189-1.649-32.934-1.506-32.942z" fill="#1C2E5C"/><path d="M166.84 452.839l-5.751-19.739 23.731-1.924 1.974 23.028-7.094 4.492-12.86-5.857zM100.695 430.87l2.757 33.864 15.543-2.251 1.047-33.261-19.347 1.648z" fill="#FFBE9D"/><path d="M119.048 455.793s-10.432 8.419-16.244 2.233l-1.155 3.292-4.566 23.182a3.034 3.034 0 002.03 3.516 3.088 3.088 0 003.156-.834c4.212-4.526 19.622-21.253 19.3-23.343l-.478-5.573a2.85 2.85 0 00-2.047-2.473h.004z" fill="#FDBC5A"/><path opacity=".6" d="M99.664 488.129l21.774-26.229.085 1.219c.216 1.312-.337 1.878-.918 2.771-1.722 2.649-6.589 8.649-18.247 21.289a3.086 3.086 0 01-2.694.952v-.002zM117.712 458.525a1.757 1.757 0 00-.338 2.365 1.796 1.796 0 002.4.337 1.693 1.693 0 00.676-1.887 1.7 1.7 0 00-.898-1.058 1.711 1.711 0 00-1.972.359" fill="#fff"/><path d="M105.534 475.087c-.161.091-.933-1.369-2.746-2.055-1.792-.74-3.4-.22-3.445-.4-.03-.069.328-.319 1.012-.462a4.828 4.828 0 012.679.269 4.679 4.679 0 012.11 1.626c.386.572.462.993.39 1.022zM103.7 479.087c-.131.134-1.145-.735-2.7-1.054-1.55-.352-2.85.017-2.91-.159-.1-.141 1.283-.851 3.053-.459 1.771.374 2.706 1.585 2.557 1.672zM109.1 469.875c-.129.146-1.681-1.2-4.057-1.9-2.366-.739-4.431-.495-4.451-.687-.058-.15 2.108-.7 4.647.082 2.55.76 4.002 2.414 3.861 2.505zM109.114 462.921c-.067.178-1.745-.372-3.873-.3-2.129.046-3.776.69-3.852.515-.091-.135 1.547-1.093 3.836-1.148 2.287-.072 3.975.793 3.889.933z" fill="#1C2E5C"/><path d="M104.028 462.651a2.42 2.42 0 01.086-1.089 7.498 7.498 0 011.215-2.745 3.439 3.439 0 011.655-1.438 1.231 1.231 0 011.335.408c.271.392.383.873.314 1.344a4.276 4.276 0 01-4.18 3.443 4.943 4.943 0 01-4.56-3.037 1.642 1.642 0 01.08-1.4 1.214 1.214 0 011.315-.481c.701.231 1.33.64 1.824 1.189a8.384 8.384 0 011.748 2.441c.187.318.301.672.336 1.039a13.4 13.4 0 00-2.4-3.156 3.949 3.949 0 00-1.616-1 .647.647 0 00-.718.257 1.13 1.13 0 000 .923 4.418 4.418 0 003.985 2.588 3.71 3.71 0 003.592-2.873 1.37 1.37 0 00-.179-.948.668.668 0 00-.733-.235 3.117 3.117 0 00-1.425 1.192 11.078 11.078 0 00-1.674 3.578z" fill="#1C2E5C"/><path d="M187.169 451.611l.021 1.3s22.144 8.585 22.429 12.764l-43.762.3.5-14.566c6.522 2.971 13.334 3.263 20.812.202z" fill="#FDBC5A"/><path opacity=".6" d="M170.815 456.037a1.788 1.788 0 00-1.221 2.048 1.718 1.718 0 002.019 1.228 1.885 1.885 0 001.282-2.175 1.781 1.781 0 00-2.242-1.045M165.857 465.978l.119-3.5 41.9.992s1.954.834 1.743 2.208l-43.762.3z" fill="#fff"/><path d="M187.344 453.032c-.006.214-1.073.318-2.12 1.013-1.065.667-1.6 1.6-1.8 1.513-.2-.04.113-1.32 1.4-2.138 1.287-.818 2.565-.584 2.52-.388zM191.947 454.9c.051.207-.872.577-1.592 1.486-.746.887-.923 1.866-1.135 1.858-.2.035-.358-1.216.559-2.329.917-1.113 2.162-1.215 2.168-1.015zM194.592 460.374c-.194.048-.5-1.018.042-2.192.542-1.174 1.537-1.647 1.629-1.47.121.175-.523.808-.952 1.778-.452.961-.511 1.862-.719 1.884zM135.364 174.3l-1.783-33.645a31.718 31.718 0 00-1.138-8.111 10.675 10.675 0 00-4.9-6.333c-2.429-1.262-5.718-1.043-7.588.958l1.321 1.817a1023.523 1023.523 0 00-1.385 61.846 7.564 7.564 0 00.966 4.447c1.52 2.1 4.6 2.079 7.184 1.844 2.211-.2 4.721-.571 5.957-2.415a6.83 6.83 0 00.893-2.586c1.1-5.855.789-11.872.473-17.822z" fill="#1C2E5C"/><path d="M124.688 130.951a6.241 6.241 0 00-3.514-3.468 3.61 3.61 0 00-4.343 1.64l3.8 4.285c.372.636.922 1.15 1.582 1.478a2.188 2.188 0 002.1-.114 2.262 2.262 0 00.881-1.811 4.64 4.64 0 00-.506-2.01z" fill="#FDBC5A"/><path d="M131.081 148.843c-.654-7.262-4.493-14.325-10.642-18.243-6.149-3.918-14.563-4.312-20.718-.4a21.629 21.629 0 00-8.345 10.82c-1.619 4.343-.916 7.943-.879 12.578.02 2.4.325 8.859 2.4 10.072l32.35 5.8a31.805 31.805 0 005.834-20.627z" fill="#1C2E5C"/><path d="M129.94 143.274c-.726-4.317-4.942-8.51-8.228-11.4-3.75-3.3-4.278-3.152-9.273-3.279-5.266-.133-11.021-.111-15.13 3.185a18.502 18.502 0 00-4.943 7.128c-2.743 6.163-2.32 13.2-1.482 19.893.838 6.693 2.258 13.011 7.736 16.947l23.028-3.567c5.079-1.882 6.774-7.686 8.211-12.909 1.437-5.223.979-10.656.081-15.998z" fill="#1C2E5C"/><path d="M91.674 147.57c.323-6.333 7.065-12.735 13.379-12.144l20.5 3.643-.026 3.406.233 42.531a178.52 178.52 0 01-23.62 3.746l-.182-8.531s-8.1-1.245-9.9-11.774c-.902-5.236-.742-13.841-.384-20.877z" fill="#FFBE9D"/><path d="M95.515 155.951a1.35 1.35 0 001.321 1.349 1.29 1.29 0 001.38-1.236 1.353 1.353 0 00-1.32-1.35 1.308 1.308 0 00-.95.329 1.297 1.297 0 00-.43.908zM93.959 152.024c.17.175 1.186-.6 2.642-.61 1.454-.034 2.531.7 2.687.521.077-.079-.1-.4-.567-.729a3.71 3.71 0 00-2.154-.635 3.565 3.565 0 00-2.1.705c-.444.349-.592.67-.508.748zM108.469 155.951a1.351 1.351 0 001.321 1.349 1.289 1.289 0 001.379-1.236 1.352 1.352 0 00-1.319-1.35 1.309 1.309 0 00-.95.329 1.304 1.304 0 00-.431.908zM108.272 152.123c.17.175 1.187-.6 2.642-.61 1.454-.034 2.531.7 2.688.521.076-.079-.1-.4-.568-.729a3.709 3.709 0 00-2.154-.635 3.568 3.568 0 00-2.1.706c-.442.349-.591.669-.508.747zM103.119 162.983a9.623 9.623 0 00-2.37-.4c-.372-.034-.724-.1-.79-.356a1.891 1.891 0 01.235-1.105l1.065-2.844c1.478-4.049 2.543-7.376 2.38-7.434-.163-.058-1.5 3.176-2.973 7.225-.355 1-.694 1.953-1.018 2.86-.228.452-.29.969-.176 1.462a.939.939 0 00.618.536c.207.053.419.08.632.08a9.427 9.427 0 002.397-.024z" fill="#1C2E5C"/><path d="M101.961 180.248a27.93 27.93 0 0014.442-3.964s-3.474 7.429-14.4 6.594l-.042-2.63zM103.777 166.484a2.623 2.623 0 012.34-1 2.393 2.393 0 011.664.867 1.52 1.52 0 01.137 1.734 1.763 1.763 0 01-1.9.505 5.521 5.521 0 01-1.874-1.088 1.606 1.606 0 01-.421-.425.485.485 0 010-.542" fill="#EB996E"/><path d="M107.416 163.939c-.237-.011-.221 1.569-1.56 2.707s-3.024.984-3.033 1.206c-.021.1.379.3 1.09.312a3.934 3.934 0 002.533-.916 3.431 3.431 0 001.206-2.269c.053-.662-.128-1.051-.236-1.04zM107.9 148.016c.149.394 1.6.189 3.31.374 1.714.151 3.1.634 3.32.277.1-.172-.145-.541-.707-.918a5.797 5.797 0 00-5.051-.495c-.628.26-.94.575-.872.762zM93.943 147.031c.26.327 1.26-.028 2.465-.059 1.2-.073 2.23.2 2.46-.153.1-.169-.063-.5-.514-.806a3.57 3.57 0 00-3.968.17c-.422.345-.558.688-.443.848zM98.76 132.487a20.6 20.6 0 00-7.876 11.713l.641 3.9c.91-1.889 1.023-3.913 2.886-5.851a13.423 13.423 0 016.024-3.152c7.028-1.789 9.4-4.341 12.5-8.932a18.678 18.678 0 00-14.175 2.322z" fill="#1C2E5C"/><path d="M129.1 142.8a19.327 19.327 0 00-15.6-13.64l-.573 1.012-5.337 6.24a3.686 3.686 0 00-1.006 1.752 2.716 2.716 0 001.135 2.362c1.693 1.386 4.065 1.472 6.252 1.531 2.187.059 4.578.237 6.171 1.736 1.985 1.866 1.941 5.035 1.274 7.676a32.986 32.986 0 00-.655 9.608c.245 2.429 3.454-3.471 5.566-2.246.589.342-1 9.872-.384 9.579.616-.293.547-3.72.747-4.356a75.652 75.652 0 002.745-10.491 25.23 25.23 0 00-.335-10.763z" fill="#1C2E5C"/><path d="M123.115 161.12a3.152 3.152 0 013.142-2.971c.532 0 1.056.135 1.522.392 1.079.655 1.888 1.943 1.735 4.378-.407 6.5-6.844 4.747-6.844 4.56.001-.116.253-3.673.445-6.359z" fill="#FFBE9D"/><path d="M124.8 165.138c.03-.019.108.087.293.187.262.133.565.159.845.074a2.802 2.802 0 001.462-2.426 3.734 3.734 0 00-.209-1.64 1.308 1.308 0 00-.793-.925.58.58 0 00-.688.265c-.1.176-.067.309-.1.317-.019.016-.132-.118-.062-.382a.723.723 0 01.283-.39c.188-.124.416-.168.636-.124a1.588 1.588 0 011.115 1.085c.239.581.332 1.211.272 1.836a2.94 2.94 0 01-1.837 2.7 1.21 1.21 0 01-1.023-.241c-.194-.179-.217-.326-.194-.336z" fill="#EB996E"/><path d="M124.759 134.271a21.259 21.259 0 012.313 3.276 27.045 27.045 0 011.9 3.921 27.927 27.927 0 011.448 5.136 25.049 25.049 0 01-.105 9.65c-.05.291-.117.578-.2.861l-.209.762c-.11.407-.243.808-.4 1.2l-.282.747a1.402 1.402 0 01-.11.255c.016-.092.04-.182.073-.269l.246-.758c.142-.395.263-.797.362-1.205l.193-.762c.081-.282.144-.569.191-.859.616-3.165.632-6.417.047-9.587a28.804 28.804 0 00-1.423-5.106 28.308 28.308 0 00-1.855-3.916l-.437-.765-.429-.659-.371-.574c-.116-.176-.236-.327-.336-.468l-.466-.646a1.55 1.55 0 01-.15-.234z" fill="#0FA6AF"/><path d="M125.385 136.245a.856.856 0 01-.035.2 1.728 1.728 0 01-.259.523 3.57 3.57 0 01-1.78 1.149c-.858.282-1.891.535-3.05.792-1.258.274-2.534.46-3.818.557a18.67 18.67 0 01-3.861-.112 14.743 14.743 0 01-3.061-.76 11.8 11.8 0 01-1.921-.911 6.799 6.799 0 01-.486-.312.77.77 0 01-.16-.124c.01-.016.243.135.684.369.62.331 1.266.614 1.93.846.986.339 2.005.577 3.039.711 1.268.16 2.548.193 3.822.1a34.774 34.774 0 006.837-1.283 3.61 3.61 0 001.763-1.064c.154-.207.274-.437.356-.681z" fill="#0FA6AF"/><path d="M124.215 134.005a.707.707 0 01-.107.131 4.44 4.44 0 01-.341.345 7.81 7.81 0 01-1.442 1.054 11.604 11.604 0 01-5.668 1.426 23.66 23.66 0 01-5.815-.815 49.437 49.437 0 01-1.718-.462 4.122 4.122 0 01-.621-.2c.217.025.432.067.641.127l1.73.4c1.893.468 3.832.721 5.781.753a11.963 11.963 0 005.6-1.35 11.83 11.83 0 001.96-1.409zM122.885 133.286c-.146.07-.3.124-.459.16-.3.093-.739.2-1.287.319a20.994 20.994 0 01-8.7-.05 15.402 15.402 0 01-1.283-.334 2.341 2.341 0 01-.458-.165c.162.013.322.043.478.09.3.074.744.168 1.291.272a23.85 23.85 0 008.644.05c.548-.1.991-.187 1.295-.257.157-.045.317-.074.479-.085z" fill="#0FA6AF"/><path d="M114.218 127.749a2.3 2.3 0 01-.158.463c-.162.414-.345.819-.548 1.215a18.11 18.11 0 01-5.707 6.6c-.462.322-.847.566-1.123.718a2.377 2.377 0 01-.435.222c.121-.11.253-.206.394-.288a21.9 21.9 0 001.081-.765 20.115 20.115 0 005.666-6.55c.266-.491.47-.9.6-1.18a2.29 2.29 0 01.23-.435z" fill="#0FA6AF"/><path d="M91.14 141.7a.735.735 0 01.112-.168c.08-.106.195-.263.354-.457.445-.552.918-1.08 1.417-1.583a16.857 16.857 0 012.411-2.037 14.79 14.79 0 011.607-.955c.6-.299 1.22-.553 1.857-.761a17.305 17.305 0 016.944-.758c.707.065 1.409.179 2.1.341.245.053.431.112.559.146.066.013.13.036.19.066a7.084 7.084 0 01-.765-.137 19 19 0 00-2.1-.276 17.952 17.952 0 00-6.87.807 14.99 14.99 0 00-5.838 3.663c-.64.623-1.126 1.16-1.457 1.534l-.382.432a.829.829 0 01-.139.143zM96.016 134.717c.157-.124.324-.234.5-.328.196-.125.399-.241.607-.345.243-.123.514-.277.831-.408.317-.131.657-.293 1.038-.426.376-.15.791-.268 1.225-.4a16.617 16.617 0 015.853-.574c.452.046.883.082 1.28.156.4.057.767.138 1.1.216.333.078.632.166.894.24.225.061.446.134.663.219.189.06.373.135.55.226a3.468 3.468 0 01-.574-.152 8.325 8.325 0 00-.669-.187c-.264-.061-.558-.151-.894-.209-.336-.058-.7-.142-1.1-.19-.395-.067-.822-.1-1.269-.137a17.483 17.483 0 00-5.791.567c-.43.127-.844.239-1.218.381-.38.125-.724.267-1.038.4-.314.133-.59.266-.836.379a9.733 9.733 0 00-.62.313c-.17.102-.347.188-.532.259z" fill="#0FA6AF"/><path d="M128.257 166.77c.118-.063.311.006.531.238.304.344.507.766.585 1.219.066.336.07.68.014 1.018a2.729 2.729 0 01-.488 1.167c-.286.394-.668.71-1.11.916-.526.245-1.122.3-1.685.154a2.58 2.58 0 01-1.374-.936 2.944 2.944 0 01-.559-1.311 2.874 2.874 0 01.545-2.152 2.55 2.55 0 011.04-.851c.3-.118.5-.1.581 0 .181.219-.179.754-.384 1.5-.11.363-.11.751 0 1.114.049.162.133.31.248.434.114.125.255.221.412.283a.7.7 0 00.41-.024c.171-.063.328-.159.46-.284a1.75 1.75 0 00.49-.975c.141-.749.027-1.38.284-1.51zM86.521 217.983l4.869 21.78-2.3 14.618h53.51l-3.5-68.24-13.342-1.135-32.6 5.5-6.637 27.477z" fill="#FDBC5A"/><path d="M100.134 190.116s-13.94-1.278-20.579 8.205c-4.062 5.8-9.767 19.131-9.767 19.131l18.555 3.2 11.791-30.536z" fill="#FDBC5A"/><path opacity=".3" d="M118.791 210.726c3.915 4.839 5.754 10.973 8.315 16.646 3.3 7.309 7.869 13.961 12.413 20.568.34.495.805 1.05 1.4.979.62-.075.937-.773 1.1-1.378.877-3.783.6-7.742-.794-11.366-1.394-3.601-3.26-7-5.549-10.109a117.277 117.277 0 00-11.512-14.1 6.561 6.561 0 00-2.6-1.927 2.344 2.344 0 00-2.828.982M91.2 235.98l2.714-10.685a6.002 6.002 0 012.626-4.07 8.558 8.558 0 012.872-1.818 16.72 16.72 0 002.7-.667 5.27 5.27 0 002.219-3 3.185 3.185 0 00.14-2.812 2.906 2.906 0 00-2.471-1.035 11.3 11.3 0 00-10.316 6.346c-1.394 2.974-1.393 6.386-1.366 9.671l.073 8.784" fill="#000"/><path d="M108.323 236.4c-.011-.053-.731.072-1.9.162a21.928 21.928 0 01-9.013-1.176c-1.108-.387-1.772-.693-1.8-.644.131.114.28.206.44.274.413.219.839.415 1.274.587a18.601 18.601 0 009.118 1.189c.466-.054.928-.134 1.384-.24.173-.023.341-.075.497-.152zM131.668 237.354c-.025-.087-7.6 2.071-16.911 4.818-9.311 2.747-16.846 5.046-16.82 5.133.026.087 7.6-2.071 16.913-4.819 9.313-2.748 16.844-5.046 16.818-5.132z" fill="#1C2E5C"/><path opacity=".3" d="M96.4 235.1a6.502 6.502 0 005.4 4.153 6.712 6.712 0 006.281-2.919 23.459 23.459 0 01-11.68-1.234zM99.974 246.639l.2.076c4.777.855 9.254-.028 13.835-1.629a82.893 82.893 0 0013.076-6.354l-27.11 7.907z" fill="#000"/><path d="M128.426 246.108c.094.457.085.93-.025 1.384a8.137 8.137 0 01-3.605 5.465c-.374.28-.805.473-1.263.567.347-.293.715-.56 1.1-.8a9.416 9.416 0 003.489-5.289c.07-.449.171-.893.304-1.327zM131.189 249.407a2.67 2.67 0 01-.59 1.1 7.463 7.463 0 01-2.265 1.979 7.46 7.46 0 01-2.864.921 2.69 2.69 0 01-1.242-.06 9.638 9.638 0 006.961-3.93v-.01z" fill="#1C2E5C"/><path d="M159.037 311.292c-.985-4.047-8.127-30.167-9.5-34.1l-6.424-18.413-.434-6.085-54.527 1.686s-7.762 9.556-10.644 20.4c-2.471 9.294-3.719 23.389 2.132 60.055 3.851 20.342 16.742 109.142 16.742 109.142h32.661l-12.8-142.042 12.121 41.938 28.515 98.31 34.943-.187-32.785-130.704z" fill="#0FA6AF"/><path d="M121.741 253.723c.036.146.053.297.052.448l.072 1.285c.05 1.116.1 2.733.123 4.732.052 4-.047 9.523-.474 15.609a192.66 192.66 0 01-1.985 17.2l-.017.1h-.1l-3.519.078h-.934c-.108.007-.217 0-.323-.022.104-.031.212-.047.32-.047l.932-.068 3.515-.193-.118.105c.546-3.928 1.343-10.155 1.829-17.185.426-6.075.571-11.589.592-15.581v-6.015c-.005-.15.006-.3.035-.446zM115.291 256.1c.024.03-.109.135-.268.379a2.145 2.145 0 00-.33 1.15 2.049 2.049 0 00.665 1.558 1.93 1.93 0 001.97.141 1.934 1.934 0 001.058-1.667 2.052 2.052 0 00-.857-1.462 2.136 2.136 0 00-1.12-.418c-.291-.018-.455.027-.465-.01-.006-.016.145-.114.462-.147.453-.029.904.09 1.283.34a2.307 2.307 0 011.066 1.668 2.27 2.27 0 01-2.475 2.288 2.271 2.271 0 01-1.165-.454 2.3 2.3 0 01-.706-1.848c.024-.454.196-.887.49-1.234.214-.236.384-.3.392-.284zM104.383 255.77c.007.301-.026.602-.1.894-.149.805-.37 1.595-.659 2.362a15.625 15.625 0 01-11.942 9.958 13.9 13.9 0 01-2.443.223 3.398 3.398 0 01-.9-.065c0-.079 1.284-.016 3.285-.437a16.152 16.152 0 0011.733-9.782c.78-1.893.949-3.17 1.026-3.153zM147 270.324a3.428 3.428 0 01-.812-.33 14.624 14.624 0 01-2.035-1.249 31.877 31.877 0 01-5.563-5.54 55.828 55.828 0 01-4.744-6.252 18.795 18.795 0 01-1.134-2.1 3.292 3.292 0 01-.31-.818c.064-.03.572 1.1 1.683 2.763a73.769 73.769 0 004.813 6.148 36.644 36.644 0 005.426 5.57c1.576 1.23 2.712 1.741 2.676 1.808zM114.429 355.746a2.807 2.807 0 01-.771.046 19.654 19.654 0 01-2.1-.11 28.029 28.029 0 01-12.935-4.716 19.87 19.87 0 01-1.678-1.268c-.378-.322-.578-.51-.56-.532.042-.053.9.622 2.394 1.562a32.046 32.046 0 0012.813 4.672c1.744.239 2.839.277 2.837.346zM158.565 350.546a12.924 12.924 0 01-1.15 2.164c-.771 1.3-1.9 3.063-3.261 4.933a65.99 65.99 0 01-3.685 4.626 12.82 12.82 0 01-1.7 1.763c.449-.682.946-1.332 1.485-1.945a130.566 130.566 0 003.578-4.68 128.397 128.397 0 003.345-4.848 17.46 17.46 0 011.388-2.013zM130.377 201.661c-.235-2.838 3.01-6.17 3.935-8.863 1.869-5.435 1.676-7.792 1.052-18.5l-9.484-2.022c-.29 3.572.222 2.175-.116 6.037a24.615 24.615 0 01-3.385 11.015c-1.478 2.346-3.551 4.52-3.83 7.279-.405 3.988 3.1 7.428 3.321 11.431.308 5.558-5.7 10.139-4.973 15.657a3.917 3.917 0 001.826 3.042 5.421 5.421 0 002.6.4l5.846-.079a2.51 2.51 0 001.767-.481c.726-.71.344-1.9.193-2.909-.655-4.338 3.99-7.9 4.1-12.283.091-3.402-2.571-6.333-2.852-9.724z" fill="#1C2E5C"/><path d="M124.266 215.151s16.348 36.394 25.845 37.508c4.789.562 7.706-2.055 8.734-7.021 1.028-4.966-2.4-37.505-2.4-37.505l-16.44 4.569 1.244 6.3-9.842-9.807-7.141 5.956z" fill="#FFBE9D"/><path d="M139.1 186.141s9.2.885 12.626 8.42S159.9 210.6 159.9 210.6l-20.232 4.555s-2.83-15.219-3.046-20.59c-.24-5.887-.851-8.593 2.478-8.424z" fill="#FDBC5A"/><path d="M155.267 232.847a1.294 1.294 0 00-.229-.255c-.186-.183-.416-.41-.7-.686l-2.58-2.51a1242.07 1242.07 0 01-8.467-8.326l-8.393-8.4-2.534-2.556-.7-.687a1.386 1.386 0 00-.259-.225c.059.098.13.189.211.27l.654.73c.571.63 1.412 1.527 2.46 2.629 2.1 2.2 5.034 5.207 8.329 8.475a438.436 438.436 0 008.537 8.261 156.206 156.206 0 002.653 2.436l.741.641c.083.079.176.148.277.203z" fill="#EB996E"/><path d="M109.819 186.888l6.4 2.491s3.515.035 3.968 1.169l.907 2.267s2.155.544 2.608 1.746c.453 1.202 4.195 9.365 4.195 9.365l3.515 5.272-7.143 5.953a16.26 16.26 0 00-2.948-2.948c-1.474-1.021-7.6-6.155-7.71-7.556-.11-1.401-3.423-9.251-3.459-10.086-.036-.835-.122-2.653.7-2.2.822.453 1.961 2.721 1.961 2.721l-.794-3.061a4.947 4.947 0 01-1.167-1.134 4.733 4.733 0 01-.96-2.264l-.073-1.735z" fill="#FFBE9D"/><path d="M123.253 205.355a6.707 6.707 0 00-.658-.939l-1.882-2.447-.036-.047h-.063l-2.437-.022h-.089l-.045.086c-.24.515-.644.937-1.148 1.2a2.645 2.645 0 01-.889.113c-.32.011-.64.001-.959-.03l.123.234.436-.872 1.557-3.13-.14.086 4.307-.037-.052-.012 2.386 1.113c.289.149.59.272.9.367a5.293 5.293 0 00-.838-.485l-2.339-1.208-.024-.012h-.029l-4.307-.036h-.1l-.044.087-1.57 3.122-.436.873-.1.209.227.025c.338.034.677.044 1.015.03l.489-.027a1.57 1.57 0 00.511-.116 2.842 2.842 0 001.295-1.369l-.134.085 2.437-.021-.1-.048 1.968 2.378c.232.304.489.588.768.85zM121.091 195.586a6.009 6.009 0 00-1.055-.069l-2.859-.054-.494-.009.439.242a8.552 8.552 0 011.866 1.25c.14.14.241.3.182.4a.987.987 0 01-.41.366 6.124 6.124 0 01-1.233.495l.043-.006a5.888 5.888 0 01-2.411-.8 2.393 2.393 0 01-.922-1.931 9.188 9.188 0 01.088-2.16l-.137.122 4.98-.394 1.419-.138c.17-.007.338-.035.5-.083a2.072 2.072 0 00-.51-.014l-1.425.054-4.988.276-.118.007-.019.116a9.208 9.208 0 00-.112 2.243c.03.406.117.806.259 1.188.148.419.438.773.82 1a6.053 6.053 0 002.572.833h.02l.024-.007c.452-.13.889-.31 1.3-.537.227-.113.413-.294.532-.517a.487.487 0 00-.032-.432 1.343 1.343 0 00-.218-.28 8.478 8.478 0 00-1.965-1.268l-.055.233 2.859-.055c.355.007.71-.017 1.06-.071z" fill="#EB996E"/><path d="M131.409 209.2a.372.372 0 00-.049-.1l-.166-.27-.665-1.04-2.559-3.916.007.013-2.407-5.447a3577.4 3577.4 0 00-1.456-3.282c-.135-.295-.242-.562-.4-.891a2.476 2.476 0 00-.712-.74 6.126 6.126 0 00-1.871-.854l.1.087-.591-1.49c-.1-.252-.2-.507-.305-.765a1.393 1.393 0 00-.658-.646 5.695 5.695 0 00-1.685-.485 13.769 13.769 0 00-1.768-.153l.055.01-6.4-2.5-.234-.091.013.249c.029.6.042 1.194.087 1.841.105.646.335 1.266.679 1.824a5.82 5.82 0 001.516 1.6l-.076-.1.795 3.06.3-.112a15.63 15.63 0 00-.848-1.469 4.535 4.535 0 00-1.128-1.285.579.579 0 00-.522-.092.632.632 0 00-.341.4 2.97 2.97 0 00-.14.843c-.013.274-.009.545 0 .813.007.136 0 .261.023.4.021.14.054.279.1.414.657 2.02 1.43 3.876 2.089 5.676.335.9.658 1.769.939 2.624.143.411.256.833.337 1.261.106.442.32.852.621 1.194a29.725 29.725 0 003.317 3.331 61.105 61.105 0 002.953 2.463c.44.349.881.651 1.261.932.344.267.673.553.986.856.565.546.97 1 1.243 1.311.127.144.228.261.308.353.033.042.07.081.111.116a.599.599 0 00-.087-.135c-.074-.1-.169-.22-.286-.373a17.649 17.649 0 00-1.207-1.356 11.56 11.56 0 00-.98-.885c-.389-.3-.808-.594-1.245-.952a65.39 65.39 0 01-2.914-2.49 30.373 30.373 0 01-3.259-3.326 2.598 2.598 0 01-.56-1.068 8.88 8.88 0 00-.341-1.315c-.278-.865-.6-1.741-.928-2.641-.65-1.8-1.422-3.68-2.061-5.661a2.292 2.292 0 01-.085-.355c-.018-.118-.015-.26-.022-.388-.008-.263-.01-.527 0-.787.023-.476.128-1.219.524-.891.411.331.758.734 1.025 1.19.3.464.576.944.827 1.437l.67 1.313-.369-1.426-.792-3.061-.015-.058-.061-.042a5.595 5.595 0 01-1.4-1.494 4.663 4.663 0 01-.634-1.7c-.04-.593-.057-1.221-.086-1.807l-.221.159 6.4 2.485.025.01h.031a8.711 8.711 0 013.314.593c.224.101.407.273.523.49.1.256.205.511.307.763.2.504.4 1 .6 1.487l.027.066.072.02a5.889 5.889 0 011.78.8c.256.171.473.393.638.653.125.247.261.57.389.847l1.483 3.279 2.465 5.43V203.967l2.63 3.868.7 1.014.186.257c.051.067.069.094.078.094z" fill="#EB996E"/><path d="M141.051 218.818a39.043 39.043 0 00-.652-5.006 38.797 38.797 0 00-.975-4.954c.11 1.681.327 3.354.652 5.007.218 1.67.544 3.325.975 4.953zM95.256 186.363l1.993 25.169a1.645 1.645 0 001.745 1.51l14.029-.911a1.641 1.641 0 001.53-1.789l-2.293-25.15a1.64 1.64 0 00-1.743-1.491l-13.729.892a1.64 1.64 0 00-1.532 1.77z" fill="#1C2E5C"/><path d="M75.18 218.4s-4.192 28.317-4.027 32.121c.165 3.804 4.466 12.241 10.256 13.068s11.25-4.466 11.414-11.414c.165-6.948 1.023-28.921 1.023-28.921l-4.32-2.38-14.347-2.474z" fill="#FFBE9D"/><path d="M85.491 220.075a1.205 1.205 0 00-.15.29l-.37.852c-.311.744-.781 1.811-1.382 3.121-1.187 2.626-2.973 6.188-4.816 10.19a71.997 71.997 0 00-4.011 10.546c-.212.691-.342 1.334-.481 1.891a20.3 20.3 0 00-.3 1.442l-.156.917a1.152 1.152 0 00-.032.323c.047-.099.08-.204.1-.311.057-.243.129-.541.215-.9.087-.394.194-.874.352-1.425.158-.551.3-1.185.525-1.869a81.638 81.638 0 014.086-10.475c1.839-3.994 3.594-7.576 4.731-10.232a59.565 59.565 0 001.288-3.168l.313-.876c.043-.101.072-.208.088-.316z" fill="#EB996E"/><path d="M99.038 195.006s-4.34 2.67-5.621 3.366c-1.281.696-1.117 5.868-1.117 5.868L85 221.209l8.8 3.153s3.132-5.937 4.033-6.687a6.012 6.012 0 012.1-1.051s.451 1.651 1.8.9a13.152 13.152 0 002.852-2.552s1.2.75 1.652-.15c.452-.9 1.2-2.853 1.2-2.853s-2.553-3.3-3.6-3.3c-1.047 0-6.456.3-6.456.3a4.168 4.168 0 011.8-1.051c1.5-.6 10.441-3.23 10.861-3.393.627-.243 1.338-1.886-.613-2.036-1.951-.15-12.941 1.811-12.941 1.811s-.6-2.84-.152-3.441c.448-.601 4.353-3.15 2.702-5.853z" fill="#FFBE9D"/><path d="M104.6 214.838c.079-.41.067-.831-.036-1.235a2.206 2.206 0 00-.662-1.215 2.555 2.555 0 00-1.613-.49 14.702 14.702 0 00-2.958.109 3.675 3.675 0 00-1.195.278c.014.1 1.858-.208 4.133-.06a2.373 2.373 0 011.438.392c.309.277.529.64.633 1.042.188.705.205 1.186.26 1.179zM102.863 215.38c-.577.233-1.14.499-1.688.795-.589.2-1.167.434-1.73.7a4.753 4.753 0 003.418-1.491v-.004zM96.99 204.24a2.849 2.849 0 00-2.372 2.295c.09.035.39-.665 1.047-1.291.657-.626 1.356-.912 1.325-1.004z" fill="#EB996E"/><path d="M471.562 167.417l-59.106.78a10.471 10.471 0 00-7.357 3.162 10.472 10.472 0 00-2.966 7.438l.209 15.81a10.467 10.467 0 003.162 7.357 10.472 10.472 0 007.438 2.966l.1 7.771 7.273-7.869 51.73-.682a10.467 10.467 0 007.357-3.162 10.456 10.456 0 002.966-7.438l-.208-15.81a10.462 10.462 0 00-10.598-10.323z" fill="#FAFAFA"/><path d="M471.562 167.417s.17-.01.506-.006c.498 0 .994.042 1.485.125a10.329 10.329 0 015.144 2.454 10.566 10.566 0 012.53 3.313 10.691 10.691 0 011.076 4.848c.058 3.564.124 7.627.2 12.13l.044 3.464a10.297 10.297 0 01-.644 3.61 10.647 10.647 0 01-8.993 6.952c-1.409.107-2.79.065-4.22.1l-8.8.128-39.567.55.187-.083-7.271 7.87-.443.48-.009-.653-.029-2.211-.039-2.925-.019-1.457-.009-.726-.005-.362v-.046c.118.1-.263-.286.263.212h-.093l-.185-.006a11.263 11.263 0 01-2.919-.432 11.47 11.47 0 01-2.665-1.219 10.702 10.702 0 01-3.85-4.256 10.41 10.41 0 01-.933-2.705c-.165-.928-.24-1.87-.223-2.812l-.137-10.862-.033-2.648c-.015-.873-.034-1.751.038-2.644a10.675 10.675 0 0110.3-9.62l9.348-.121 16.773-.189 24.286-.238 6.6-.038h1.717c.387 0 .586.019.586.019s-.2.02-.585.034l-1.717.049-6.6.136-24.285.4-16.771.253-9.34.146a10.21 10.21 0 00-9.831 9.211c-.067.838-.049 1.708-.032 2.59.017.882.025 1.76.037 2.647l.15 10.862c-.016.911.056 1.822.215 2.719.177.895.477 1.761.891 2.574a10.193 10.193 0 003.667 4.049 10.91 10.91 0 002.536 1.159c.904.258 1.837.395 2.777.41l.177.006h.088c.527.527.147.172.265.3v.046l.005.362.01.727.019 1.456.039 2.925.029 2.211-.452-.173 7.274-7.868.075-.082h.112l39.567-.494 8.8-.1c1.416-.035 2.845.009 4.187-.09a10.19 10.19 0 003.8-1.119 10.31 10.31 0 004.877-5.542c.918-2.277.574-4.692.609-6.938l-.123-12.13a10.455 10.455 0 00-9.963-10.695 6.177 6.177 0 01-.504-.037z" fill="#1C2E5C"/><path d="M422.642 194.374a8.518 8.518 0 01-8.358-10.144 8.519 8.519 0 0116.883 1.51 8.53 8.53 0 01-8.409 8.633l-.116.001zm.006-16.042h-.1a7.525 7.525 0 00-7.257 9.086 7.515 7.515 0 002.109 3.823 7.387 7.387 0 005.347 2.132 7.529 7.529 0 007.422-7.62 7.52 7.52 0 00-7.519-7.422l-.002.001z" fill="#FDBC5A"/><path d="M422.826 189.837a.5.5 0 01-.315-.111l-3.272-2.641a.517.517 0 01-.19-.338.5.5 0 01.818-.44l2.445 1.973-.075-5.675a.495.495 0 01.142-.355.496.496 0 01.351-.151h.007a.5.5 0 01.5.494l.089 6.737a.49.49 0 01-.144.358.504.504 0 01-.356.149z" fill="#FDBC5A"/><path d="M422.826 189.837a.496.496 0 01-.462-.307.502.502 0 01.105-.544l2.894-2.939a.505.505 0 01.833.144.512.512 0 01-.004.392.515.515 0 01-.116.164l-2.894 2.939a.507.507 0 01-.356.151z" fill="#FDBC5A"/><path d="M438.564 185.016l-1.054-1.469a1.48 1.48 0 01-.2.01l-1.143.016.02 1.475-.94.012-.063-5.06 2.083-.027c1.331-.017 2.164.651 2.18 1.773a1.619 1.619 0 01-1.057 1.612l1.187 1.642-1.013.016zm-1.329-4.25l-1.1.015.027 2.018 1.1-.015c.825-.011 1.246-.393 1.239-1.029-.007-.636-.442-.999-1.266-.989zM444.041 183.3l-3.031.04a1.174 1.174 0 001.264.909 1.383 1.383 0 001.043-.434l.493.551a2.168 2.168 0 01-3.252-.177 2.17 2.17 0 01-.455-1.123 1.93 1.93 0 01.551-1.428 1.931 1.931 0 011.42-.572 1.876 1.876 0 011.426.546 1.872 1.872 0 01.552 1.424c.001.071-.005.18-.011.264zm-3.041-.558l2.191-.029a1.05 1.05 0 00-1.1-.926 1.07 1.07 0 00-1.091.955zM444.6 183.006a1.957 1.957 0 012.064-2 1.736 1.736 0 011.66.876l-.69.413a1.095 1.095 0 00-.968-.522 1.21 1.21 0 00.032 2.416 1.1 1.1 0 00.955-.548l.7.4a1.753 1.753 0 01-1.637.925 1.966 1.966 0 01-1.488-.516 1.958 1.958 0 01-.628-1.444zM452.675 183.189l-3.03.039a1.172 1.172 0 001.265.91 1.378 1.378 0 001.042-.434l.493.551a2.175 2.175 0 01-2.266.527 2.17 2.17 0 01-1.441-1.827 1.92 1.92 0 011.971-2 1.878 1.878 0 011.853 1.199c.095.246.137.508.125.771.001.068-.005.175-.012.264zm-3.045-.561l2.192-.029a1.052 1.052 0 00-1.1-.925 1.07 1.07 0 00-1.092.954zM453.386 179.779a.553.553 0 01.572-.55.539.539 0 01.585.513.574.574 0 01-.162.404.576.576 0 01-.995-.367zm.138 1.177l.9-.012.052 3.862-.9.012-.052-3.862zM459.228 180.881l-1.6 3.884-.932.012-1.708-3.84.94-.012 1.238 2.848 1.2-2.881.862-.011zM463.326 183.048l-3.031.04a1.171 1.171 0 001.264.909 1.363 1.363 0 001.043-.434l.493.551a2.165 2.165 0 01-2.266.529 2.175 2.175 0 01-1.441-1.829 1.934 1.934 0 01.552-1.428 1.924 1.924 0 011.419-.572 1.876 1.876 0 011.427.547 1.88 1.88 0 01.551 1.424c.001.067-.004.176-.011.263zm-3.045-.56l2.191-.029a1.051 1.051 0 00-1.1-.926 1.07 1.07 0 00-1.091.955zM467.938 179.262l.071 5.366-.868.011-.007-.5a1.589 1.589 0 01-1.273.567 1.979 1.979 0 01-.052-3.956 1.575 1.575 0 011.251.5l-.026-1.982.904-.006zm-.844 3.447a1.155 1.155 0 00-1.993-.711 1.153 1.153 0 00.859 1.934 1.14 1.14 0 00.837-.362 1.122 1.122 0 00.297-.861zM436.491 193.326l.008.62h-.27l-.008-.615a2.023 2.023 0 01-1.294-.473l.153-.309c.318.271.719.425 1.136.437l-.018-1.416c-.594-.138-1.2-.313-1.209-1.024-.007-.516.359-.969 1.181-1.044l-.007-.619h.269l.008.614c.389.003.77.114 1.1.32l-.13.32a2.007 2.007 0 00-.964-.3l.019 1.427c.612.138 1.254.3 1.264 1.023.005.522-.383.979-1.238 1.039zm-.3-2.129l-.018-1.346c-.554.056-.8.344-.793.683.007.409.37.556.813.666l-.002-.003zm1.141 1.116c-.006-.425-.4-.566-.866-.673l.018 1.347c.594-.051.854-.329.85-.674h-.002zM440.674 189.474l.05 3.77h-.387l-.045-3.425-.889.012-.005-.345 1.276-.012zM441.6 191.347c-.016-1.2.605-1.926 1.478-1.937.873-.011 1.516.7 1.533 1.9.017 1.2-.61 1.926-1.482 1.937-.872.011-1.516-.699-1.529-1.9zm2.613-.035c-.014-1.007-.473-1.556-1.13-1.547-.657.009-1.1.569-1.09 1.576.01 1.007.473 1.556 1.131 1.548.658-.008 1.098-.57 1.086-1.577h.003zM445.159 191.3c-.017-1.2.6-1.926 1.476-1.937.876-.011 1.517.7 1.534 1.9.017 1.2-.611 1.925-1.483 1.937-.872.012-1.512-.7-1.527-1.9zm2.611-.035c-.014-1.007-.473-1.556-1.13-1.547-.657.009-1.1.569-1.089 1.576.011 1.007.473 1.556 1.13 1.548.657-.008 1.102-.57 1.089-1.577z" fill="#1C2E5C"/><path d="M85 180.282l-5.734-10.106a27.074 27.074 0 10-6.485 7.214l-.009.012L85 180.282z" fill="#fff"/><path d="M85 180.282L72.751 177.5a.097.097 0 01-.063-.045.098.098 0 01-.013-.076.088.088 0 01.02-.04l.008-.012.143.143a27.025 27.025 0 01-12.982 5.481 24.27 24.27 0 01-4.285.218c-.738-.041-1.488-.059-2.245-.122l-2.287-.345a27.313 27.313 0 01-16.92-10.856 26.984 26.984 0 01-4.578-10.459 27.6 27.6 0 01.32-12.045 26.703 26.703 0 015.8-11.137 27.188 27.188 0 0110.431-7.447 27.626 27.626 0 0112.137-1.864 26.7 26.7 0 0111.14 3.294A27.457 27.457 0 0182.226 148a29.263 29.263 0 011.173 8.8 26.953 26.953 0 01-4.047 13.421v-.1L85 180.282l-5.82-10.057a.1.1 0 010-.1 26.859 26.859 0 003.936-13.325 29.021 29.021 0 00-1.195-8.7 27.172 27.172 0 00-12.72-15.583 26.36 26.36 0 00-10.987-3.229 27.25 27.25 0 00-11.957 1.847 26.816 26.816 0 00-10.275 7.34 26.32 26.32 0 00-5.719 10.967 27.226 27.226 0 00-.325 11.868 26.65 26.65 0 004.5 10.317 27.024 27.024 0 0016.675 10.759l2.26.349c.747.065 1.49.085 2.218.129a24.14 24.14 0 004.24-.2 26.932 26.932 0 0012.9-5.357.098.098 0 01.076-.022.103.103 0 01.068.165l-.009.012-.066-.162 12.2 2.982z" fill="#1C2E5C"/><path d="M41.771 156.575l3.884-3.884 7.49 6.658 14.7-14.148 3.606 3.884L52.59 166.84l-10.819-10.265z" fill="#FDBC5A"/></svg>