<svg width="750" height="500" fill="none" xmlns="http://www.w3.org/2000/svg"><path d="M107.058 399.754c4.183-2.158 9.108-2.438 13.751-1.671 2.5.413 5.1 1.159 6.793 3.033 1.693 1.874 2.019 5.171.07 6.781a6.507 6.507 0 01-4.283 1.087c-3.635-.043-7.668-.683-10.572 1.5-1.657 1.248-2.76 3.323-4.741 3.936a4.684 4.684 0 01-5.153-2.292 8.01 8.01 0 01-.583-5.907 9.029 9.029 0 011.602-3.786 9.033 9.033 0 013.116-2.681zM97.476 381.256c2.557 3.653 7.528 2.443 9.833.214 2.305-2.229 3.279-5.461 4.165-8.543 2.027-7.04 4.069-14.427 2.563-21.6a11.993 11.993 0 00-2.759-5.871 6.272 6.272 0 00-5.94-1.977c-2.506.662-4.064 3.117-5.19 5.452a51.49 51.49 0 00-5.087 22.093c-.012 3.559.407 7.291 2.415 10.229M90.453 386.5c2.776-3.3 3.3-8.1 2.068-12.231a23.576 23.576 0 00-7.245-10.508A39 39 0 0072.3 356.1a13.811 13.811 0 00-5.834-.991 6.125 6.125 0 00-4.9 2.962c-1.365 2.6-.056 5.762 1.36 8.338a98.746 98.746 0 008.52 12.975c2.554 3.293 5.48 6.54 9.371 8.028 3.892 1.488 7.935 1.313 10-1.386" fill="#EBEBEB"/><path d="M97.3 436.357c.135-.544.212-1.1.231-1.659l.441-4.53a65.249 65.249 0 011.02-6.644 51.307 51.307 0 012.414-7.842 28.888 28.888 0 014-7.1 14.958 14.958 0 015.063-4.208 14.161 14.161 0 014.263-1.328 8.02 8.02 0 001.653-.239 7.69 7.69 0 00-1.682-.026 12.926 12.926 0 00-4.446 1.157 14.934 14.934 0 00-5.34 4.245 28.264 28.264 0 00-4.151 7.238 47.91 47.91 0 00-2.4 7.971 56.156 56.156 0 00-.884 6.728 86.928 86.928 0 00-.224 4.557 7.743 7.743 0 00.042 1.68z" fill="#E0E0E0"/><path d="M97.615 432.872c.044-.254.06-.513.044-.77v-2.2c-.006-1.911 0-4.677.1-8.092.169-6.831.757-14.183 1.893-24.548 1.076-9.746 2.52-21.089 4.043-28.463.327-1.677.656-3.187.966-4.508.31-1.321.548-2.466.791-3.39l.515-2.141c.075-.247.12-.502.134-.76a3.263 3.263 0 00-.267.722l-.639 2.11c-.284.916-.575 2.051-.907 3.37a123.679 123.679 0 00-1.066 4.5 249.757 249.757 0 00-4.251 26.411c-1.139 10.386-1.651 19.843-1.7 26.691-.04 3.424.033 6.2.12 8.109.055.894.1 1.623.134 2.2 0 .256.03.51.09.759z" fill="#E0E0E0"/><path d="M97.66 414.632c.056-.766.05-1.535-.016-2.3-.084-1.478-.288-3.615-.7-6.233a82.344 82.344 0 00-2.027-9.081 74.41 74.41 0 00-3.8-10.746A57.261 57.261 0 0079.963 368.9a28.219 28.219 0 00-2.624-2.438c-.4-.341-.758-.68-1.12-.949l-1.018-.7a15.02 15.02 0 00-1.937-1.24 68.996 68.996 0 016.348 5.664 60.3 60.3 0 0110.874 17.3 84.739 84.739 0 013.82 10.647c1 3.337 1.657 6.406 2.157 8.991.475 2.591.75 4.707.916 6.172.034.768.128 1.532.281 2.285zM80.03 446.807l1.828 25.04h32.168l1.828-25.04H80.03z" fill="#E0E0E0"/><path d="M119.692 436.938h-42.77v9.87h42.77v-9.87z" fill="#E0E0E0"/><path d="M76.923 470.889v2.736h42.062v-2.736H76.923z" fill="#EBEBEB"/><path d="M80.9 478.44l-1.97-4.815h38.52l-2.3 4.815H80.9z" fill="#E0E0E0"/><path d="M115.256 454.991a.92.92 0 01-.15.23l-.48.638c-.457.584-1.085 1.387-1.874 2.4l-.083.106-.081-.111-4.6-6.368h.265l-4.533 6.418-.142.2-.159-.19-5.375-6.395h.31l-.3.371-4.807 6.026-.16.2-.148-.209-4.539-6.42.264.013-5.585 6.363-.1.113-.076-.127-1.749-2.938-.448-.782a1.21 1.21 0 01-.137-.279c.073.075.135.158.187.248l.5.753 1.835 2.884-.174-.014 5.5-6.441.14-.162.124.175 4.575 6.387-.308-.008 4.8-6.035.3-.372.153-.191.157.188 5.361 6.408-.3.012 4.578-6.386.134-.187.131.187 4.507 6.436h-.164l1.949-2.337c.212-.245.384-.443.522-.6a1.13 1.13 0 01.18-.204zM116.3 446.642c0 .111-8.06.2-18 .2s-18-.089-18-.2c0-.111 8.06-.2 18-.2 9.941 0 18 .09 18 .2zM117.927 473.895c0 .11-8.76.2-19.564.2s-19.565-.09-19.565-.2c0-.11 8.758-.2 19.565-.2 10.807 0 19.564.089 19.564.2z" fill="#F5F5F5"/><path d="M245.04 99.21H31.911v80.769H245.04V99.21z" fill="#FAFAFA"/><path d="M227.063 118.314c0 .144-36.22.261-80.889.261-44.685 0-80.9-.117-80.9-.261 0-.144 36.212-.26 80.9-.26 44.669 0 80.889.117 80.889.26zM227.063 127.871c0 .144-36.22.261-80.889.261-44.685 0-80.9-.117-80.9-.261 0-.144 36.212-.26 80.9-.26 44.669 0 80.889.116 80.889.26zM227.063 137.428c0 .144-36.22.261-80.889.261-44.685 0-80.9-.117-80.9-.261 0-.144 36.212-.26 80.9-.26 44.669 0 80.889.117 80.889.26zM227.063 146.985c0 .144-36.22.261-80.889.261-44.685 0-80.9-.117-80.9-.261 0-.144 36.212-.26 80.9-.26 44.669 0 80.889.116 80.889.26zM227.063 156.542c0 .144-36.22.261-80.889.261-44.685 0-80.9-.117-80.9-.261 0-.144 36.212-.26 80.9-.26 44.669 0 80.889.118 80.889.26z" fill="#EBEBEB"/><path d="M212.975 145.411s-.111.148-.352.421a4.229 4.229 0 01-1.36.863 6.434 6.434 0 01-5.9-1.085 10.843 10.843 0 01-2.779-3.5c-.776-1.449-1.39-3.122-2.118-4.872a15.332 15.332 0 00-3.166-5.084 7.034 7.034 0 00-2.748-1.677 7.268 7.268 0 00-3.383-.187 12.93 12.93 0 00-6.455 3.422c-1.927 1.739-3.621 3.882-5.694 5.823a13.056 13.056 0 01-7.814 3.842 7.182 7.182 0 01-4.474-1.193 10.693 10.693 0 01-3.116-3.592c-1.609-2.776-2.423-6.006-4.514-8.54a7.334 7.334 0 00-3.918-2.71 5.444 5.444 0 00-4.6 1.1 10.394 10.394 0 00-3.024 4.024 25.43 25.43 0 00-1.432 5.033 31.177 31.177 0 01-1.419 5.224c-.343.86-.781 1.679-1.306 2.442a11.266 11.266 0 01-1.911 2.034 12.083 12.083 0 01-4.935 2.464 11.73 11.73 0 01-5.444.079 12.281 12.281 0 01-4.808-2.373c-1.42-1.057-2.707-2.232-4.055-3.284a12.057 12.057 0 00-4.371-2.38 6.32 6.32 0 00-4.681.607 11.047 11.047 0 00-3.492 3.25 30.862 30.862 0 00-2.36 4.138 32.353 32.353 0 01-2.346 4.1 10.96 10.96 0 01-3.356 3.185 6.84 6.84 0 01-4.38 1.025 6.305 6.305 0 01-3.8-2.123 10.725 10.725 0 01-2.1-3.647 27.389 27.389 0 01-.958-3.91c-.468-2.564-.924-5.058-2.25-7.042a7.892 7.892 0 00-5.2-3.867 5.783 5.783 0 00-3 .372 7.973 7.973 0 00-2.4 1.584c-2.73 2.616-4.045 5.775-6.07 7.6-1.919 1.9-3.99 2.776-5.43 2.73a4.548 4.548 0 01-1.583-.281 8.243 8.243 0 01-.5-.227 5.556 5.556 0 002.081.4 8.143 8.143 0 005.29-2.769c1.973-1.815 3.242-4.969 6.013-7.673a8.246 8.246 0 012.486-1.659 6.087 6.087 0 013.162-.412 8.22 8.22 0 015.462 4 12.415 12.415 0 011.51 3.4c.346 1.218.577 2.486.824 3.768.224 1.304.543 2.59.956 3.847a10.303 10.303 0 002.024 3.494 5.868 5.868 0 003.543 1.973 6.395 6.395 0 004.088-.978 10.506 10.506 0 003.207-3.062 32.112 32.112 0 002.292-4.046 31.288 31.288 0 012.391-4.208 11.499 11.499 0 013.651-3.4 6.822 6.822 0 015.039-.661 12.529 12.529 0 014.564 2.467c1.369 1.067 2.656 2.239 4.05 3.274a11.785 11.785 0 004.614 2.281c1.718.382 3.502.354 5.207-.079a11.577 11.577 0 004.725-2.36 10.669 10.669 0 001.82-1.936c.501-.73.92-1.513 1.248-2.334a30.973 30.973 0 001.4-5.137 25.877 25.877 0 011.468-5.135 10.902 10.902 0 013.184-4.22 5.947 5.947 0 015.023-1.191 7.813 7.813 0 014.191 2.89c2.167 2.649 2.981 5.92 4.544 8.614a10.249 10.249 0 002.963 3.442 6.725 6.725 0 004.184 1.124 12.628 12.628 0 007.547-3.7c2.047-1.9 3.754-4.044 5.719-5.805a13.298 13.298 0 016.665-3.487 7.626 7.626 0 013.548.217 7.38 7.38 0 012.873 1.773 15.58 15.58 0 013.2 5.21c.72 1.767 1.316 3.432 2.068 4.868a10.695 10.695 0 002.683 3.459 6.348 6.348 0 005.746 1.148 4.432 4.432 0 001.749-1.185z" fill="#E0E0E0"/><path d="M223.21 143.181s-.188.022-.561.039c-.186-.007-.414-.056-.688-.094a6.12 6.12 0 01-.9-.326 15.308 15.308 0 01-4.816-4.058 43.21 43.21 0 01-1.379-1.683 19.01 19.01 0 00-1.494-1.844 7.927 7.927 0 00-4.762-2.169 6.695 6.695 0 00-2.906.366 7.483 7.483 0 00-2.59 1.747 61.196 61.196 0 00-4.26 5.51 12.624 12.624 0 01-2.727 2.65 8.433 8.433 0 01-3.731 1.4 16.696 16.696 0 01-8.212-1.537c-2.684-1.115-5.25-2.652-8.138-3.635a15.057 15.057 0 00-4.491-.9 9.787 9.787 0 00-4.534.991c-2.891 1.384-5.15 3.908-7.871 5.969a16.083 16.083 0 01-4.556 2.5 17.112 17.112 0 01-5.221.9 19.246 19.246 0 01-10.364-2.873 25.147 25.147 0 01-7.864-7.832c-2.109-3.157-3.264-6.742-4.786-10.013a20.395 20.395 0 00-2.783-4.555 12.103 12.103 0 00-4.1-3.167 7.323 7.323 0 00-4.942-.522 8.25 8.25 0 00-4.1 2.7 13.883 13.883 0 00-2.465 4.255 34.107 34.107 0 00-1.269 4.713c-.338 1.581-.641 3.159-1.074 4.692a20.507 20.507 0 01-1.76 4.371 19.81 19.81 0 01-5.938 6.7 17.448 17.448 0 01-7.747 3.135 16.291 16.291 0 01-7.66-.887 15.074 15.074 0 01-9.235-9.06c-.638-1.859-.96-3.649-1.42-5.244a12.077 12.077 0 00-1.844-4.1 6.56 6.56 0 00-5.34-2.739 4.141 4.141 0 00-2.028.736 3.41 3.41 0 012.018-.841 6.635 6.635 0 015.51 2.719 12.227 12.227 0 011.922 4.153c.478 1.605.815 3.393 1.457 5.216a14.77 14.77 0 009.086 8.811 15.93 15.93 0 007.48.835 17.06 17.06 0 007.55-3.088 19.417 19.417 0 005.787-6.571c1.5-2.659 2.126-5.77 2.766-8.944a34.48 34.48 0 011.281-4.782 14.34 14.34 0 012.539-4.418 8.743 8.743 0 014.354-2.86 7.827 7.827 0 015.278.544 12.594 12.594 0 014.283 3.3 20.84 20.84 0 012.86 4.669c1.546 3.322 2.684 6.856 4.754 9.95a24.66 24.66 0 007.7 7.673 18.748 18.748 0 0010.085 2.8 16.563 16.563 0 005.065-.871 15.526 15.526 0 004.421-2.417c2.677-2.014 4.954-4.564 7.964-6.005a10.242 10.242 0 014.752-1.027c1.582.074 3.144.39 4.63.937 2.936 1.01 5.52 2.568 8.154 3.67a16.352 16.352 0 008 1.537 8.043 8.043 0 003.558-1.307 12.291 12.291 0 002.656-2.561 60.141 60.141 0 014.315-5.516 7.788 7.788 0 012.714-1.8 6.986 6.986 0 013.041-.364 8.175 8.175 0 014.909 2.283c.54.595 1.041 1.224 1.5 1.883.461.6.912 1.163 1.354 1.688a15.552 15.552 0 004.706 4.1c.649.339 1.376.5 2.107.468zM54.171 118.789a4.614 4.614 0 01-2.14.261 4.623 4.623 0 01-2.139-.261 4.622 4.622 0 012.14-.26 4.627 4.627 0 012.14.26zM54.171 127.871a4.614 4.614 0 01-2.14.261 4.61 4.61 0 01-2.139-.261 4.622 4.622 0 012.14-.26 4.627 4.627 0 012.14.26zM54.171 136.953a4.614 4.614 0 01-2.14.261 4.61 4.61 0 01-2.139-.261 4.636 4.636 0 012.14-.26 4.627 4.627 0 012.14.26zM54.171 146.035a4.614 4.614 0 01-2.14.261 4.61 4.61 0 01-2.139-.261 4.636 4.636 0 012.14-.26 4.627 4.627 0 012.14.26zM54.171 155.118a4.64 4.64 0 01-2.14.26 4.65 4.65 0 01-2.139-.26 4.61 4.61 0 012.14-.261 4.614 4.614 0 012.14.261zM73.835 166.791c-1.41.259-2.847.347-4.279.261a17.788 17.788 0 01-4.279-.261 17.788 17.788 0 014.28-.26 17.788 17.788 0 014.278.26zM111.558 166.791a17.788 17.788 0 01-4.279.261 17.788 17.788 0 01-4.279-.261 17.788 17.788 0 014.279-.26 17.788 17.788 0 014.279.26zM149.28 166.791a17.78 17.78 0 01-4.278.261 17.788 17.788 0 01-4.279-.261 17.791 17.791 0 014.279-.26 17.78 17.78 0 014.278.26zM187 166.791c-1.41.259-2.846.347-4.278.261a17.792 17.792 0 01-4.279-.261 17.791 17.791 0 014.279-.26 17.777 17.777 0 014.278.26zM224.726 166.791a35.199 35.199 0 01-8.557 0 35.3 35.3 0 018.557 0z" fill="#E0E0E0"/><path d="M516.028 307.306H342.523v107.386h173.505V307.306z" fill="#FAFAFA"/><path d="M474.139 384.949c-12.031-4.562-25.87 8.053-37.664 2.909-6.863-2.994-9.975-10.756-13.337-17.446-3.362-6.69-9.156-13.747-16.6-12.97-7.512.783-13.585 9.48-20.841 7.384-4.573-1.321-6.856-6.393-8-11.013-1.144-4.62-1.941-9.726-5.428-12.966-3.487-3.24-10.752-2.373-11.3 2.355v56.929h135.677s-18.346-13.603-22.507-15.182z" fill="#EBEBEB"/><path d="M500.269 400.131c0 .122-32.887.221-73.447.221s-73.454-.1-73.454-.221 32.881-.221 73.454-.221c40.573 0 73.447.099 73.447.221zM500.269 375.265c0 .122-32.887.221-73.447.221s-73.454-.1-73.454-.221 32.881-.22 73.454-.22c40.573 0 73.447.099 73.447.22zM500.269 350.4c0 .122-32.887.221-73.447.221s-73.454-.1-73.454-.221 32.881-.221 73.454-.221c40.573 0 73.447.099 73.447.221zM500.269 326.769c0 .122-32.887.22-73.447.22s-73.454-.1-73.454-.22 32.881-.221 73.454-.221c40.573 0 73.447.099 73.447.221z" fill="#E0E0E0"/><path d="M656.356 51.006H527.212v115.54h129.144V51.006z" fill="#FAFAFA"/><path d="M656.356 166.546s-.022-.741-.033-2.145c-.011-1.404-.019-3.491-.034-6.191l-.076-23.453-.15-83.75.292.292-129.132.052h-.011l.345-.345-.041 115.539-.3-.3 93.406.153 26.345.08 6.974.036 1.8.017c.4.006.62.018.62.018s-.192.011-.586.017l-1.765.017-6.915.036-26.277.08-93.6.153h-.3v-.305l-.041-115.539v-.345h.356l129.132.052h.294v.293l-.15 83.937-.076 23.387-.034 6.135c-.022 1.381-.043 2.079-.043 2.079z" fill="#E0E0E0"/><path d="M576.73 71.535c0 .19-6.8.345-15.18.345-8.38 0-15.183-.154-15.183-.345 0-.191 6.8-.345 15.183-.345s15.18.155 15.18.345zM631.45 80.21c0 .191-18.674.345-41.705.345s-41.71-.154-41.71-.345c0-.19 18.671-.345 41.71-.345s41.705.155 41.705.345zM552.03 94.905h-5.441v5.441h5.441v-5.44zM565.423 94.905h-5.441v5.441h5.441v-5.44zM579.063 94.658h-5.441v5.441h5.441v-5.44zM592.209 94.905h-5.441v5.441h5.441v-5.44zM605.602 94.905h-5.441v5.441h5.441v-5.44zM618.994 94.905h-5.441v5.441h5.441v-5.44z" fill="#E0E0E0"/><path d="M632.387 94.905h-5.441v5.441h5.441v-5.44zM552.03 106.472h-5.441v5.441h5.441v-5.441z" fill="#EBEBEB"/><path d="M565.423 106.472h-5.441v5.441h5.441v-5.441z" fill="#E0E0E0"/><path d="M578.816 106.472h-5.441v5.441h5.441v-5.441z" fill="#EBEBEB"/><path d="M592.209 106.472h-5.441v5.441h5.441v-5.441zM605.602 106.472h-5.441v5.441h5.441v-5.441zM619.241 106.225H613.8v5.441h5.441v-5.441zM632.387 106.472h-5.441v5.441h5.441v-5.441zM552.03 118.039h-5.441v5.441h5.441v-5.441zM565.67 117.792h-5.441v5.441h5.441v-5.441zM578.816 118.039h-5.441v5.441h5.441v-5.441z" fill="#E0E0E0"/><path d="M592.209 118.039h-5.441v5.441h5.441v-5.441z" fill="#EBEBEB"/><path d="M605.602 118.039h-5.441v5.441h5.441v-5.441zM618.994 118.039h-5.441v5.441h5.441v-5.441zM632.387 118.039h-5.441v5.441h5.441v-5.441zM552.03 129.606h-5.441v5.441h5.441v-5.441zM565.423 129.606h-5.441v5.441h5.441v-5.441zM578.816 129.606h-5.441v5.441h5.441v-5.441zM592.456 129.359h-5.441v5.441h5.441v-5.441zM605.602 129.606h-5.441v5.441h5.441v-5.441z" fill="#E0E0E0"/><path d="M618.994 129.606h-5.441v5.441h5.441v-5.441z" fill="#EBEBEB"/><path d="M632.387 129.606h-5.441v5.441h5.441v-5.441zM552.03 141.173h-5.441v5.441h5.441v-5.441z" fill="#E0E0E0"/><path d="M565.423 141.173h-5.441v5.441h5.441v-5.441z" fill="#EBEBEB"/><path d="M578.816 141.173h-5.441v5.441h5.441v-5.441zM592.209 141.173h-5.441v5.441h5.441v-5.441zM605.602 141.173h-5.441v5.441h5.441v-5.441zM619.241 140.926H613.8v5.441h5.441v-5.441zM632.387 141.173h-5.441v5.441h5.441v-5.441z" fill="#E0E0E0"/><path d="M726.909 478.44c0 .144-153.109.26-341.935.26-188.891 0-341.967-.116-341.967-.26 0-.144 153.076-.261 341.967-.261 188.826 0 341.935.121 341.935.261z" fill="#263238"/><path d="M476.172 61.46s15.291.215 8.748 30.486c-6.543 30.272-5.7 36-5.7 47.973a20.876 20.876 0 0011.308 19.057h-20.735l-15.252-70.66V61.459h21.631z" fill="#E0E0E0"/><path d="M480.668 299.794H271.282l1.865-204.853 197.218-10.307 10.303 215.16z" fill="#E0E0E0"/><path d="M473.48 294.505H264.094l1.866-204.852 203.306-3.97 4.214 208.822z" fill="#EBEBEB"/><path d="M469.139 288.794H260.177V83.941l209.089-.49-.127 205.343z" fill="#FAFAFA"/><path d="M469.139 288.794c0-1.914-.039-82.176-.1-205.342l.225.225-208.759.523h-.328l.26-.26-.035 204.853-.225-.225 208.962.226-208.962.226h-.226v-.227l-.035-204.853v-.26h.588l208.761-.452h.226v.226l-.352 205.34z" fill="#263238"/><path d="M469.266 82.9C458.472 70.33 471 61.026 475.22 60.83l-198.97-.113a16.753 16.753 0 00-12.831 5.962 16.761 16.761 0 00-3.695 13.657c.196 1.056.466 2.097.807 3.115" fill="#F5F5F5"/><path d="M474.543 158.976c.09-.017.182-.024.273-.022l.8-.022 3.125-.041 11.785-.073-.047.31a12.626 12.626 0 01-4.807-2.753 15.654 15.654 0 01-3.588-5.113 34.214 34.214 0 01-2.145-6.542 75.314 75.314 0 01-.734-3.584c-.108-.611-.234-1.222-.289-1.863a15.45 15.45 0 01-.144-1.922c-.059-2.657.03-5.315.268-7.962.2-2.723.5-5.511.833-8.359a396.678 396.678 0 012.548-17.7c.414-2.6.94-5.159 1.369-7.67.411-2.523.748-5.024 1.065-7.482l.871-7.248c.127-1.188.291-2.357.318-3.5a21.043 21.043 0 00-.191-3.412 20.467 20.467 0 00-1.886-6.28 12.529 12.529 0 00-3.82-4.765 7.515 7.515 0 00-5.439-1.215 9.981 9.981 0 00-4.843 2.012 11.951 11.951 0 00-3.024 3.742 16.136 16.136 0 00-1.468 4.074 10.638 10.638 0 00.795 6.774 22.508 22.508 0 002.2 3.827l.672.938c.083.103.156.212.22.327a2.147 2.147 0 01-.262-.295c-.169-.2-.407-.5-.715-.908a21.017 21.017 0 01-2.3-3.806 10.8 10.8 0 01-.895-6.917c.295-1.449.787-2.85 1.46-4.167a12.232 12.232 0 013.087-3.877 10.348 10.348 0 015.017-2.122 7.92 7.92 0 015.74 1.258 12.926 12.926 0 013.985 4.917 20.868 20.868 0 011.951 6.417c.162 1.156.231 2.323.205 3.49-.026 1.188-.189 2.363-.313 3.547a636.005 636.005 0 01-.859 7.257 224.274 224.274 0 01-1.059 7.5c-.433 2.54-.953 5.072-1.367 7.672a409.602 409.602 0 00-2.559 17.671c-.334 2.842-.642 5.624-.849 8.337a71.21 71.21 0 00-.29 7.906c.005.629.049 1.258.134 1.881.049.617.173 1.233.278 1.842.217 1.217.451 2.408.715 3.566a33.948 33.948 0 002.084 6.472 15.353 15.353 0 003.47 5.016 12.335 12.335 0 004.654 2.715l.979.316-1.025-.006-11.785-.074-3.125-.041-.8-.022a1.252 1.252 0 01-.273-.021zM345.667 67.092c.081.057-.514.853-1.107 2.306-.341.85-.593 1.735-.75 2.637a13.55 13.55 0 00.508 6.63c.294.868.678 1.703 1.145 2.491.807 1.345 1.517 2.041 1.445 2.11-.025.025-.216-.132-.543-.443a8.515 8.515 0 01-1.213-1.47 11.716 11.716 0 01-1.287-2.53c-.798-2.201-.98-4.579-.527-6.876.184-.932.481-1.839.885-2.7.263-.58.59-1.13.975-1.639.276-.353.441-.537.469-.516z" fill="#263238"/><path d="M340.7 60.01a21.347 21.347 0 00-2.643 3.228 13.221 13.221 0 003.33 17.862 21.426 21.426 0 003.628 2.058 3.957 3.957 0 01-1.1-.3 11.984 11.984 0 01-2.748-1.46 13.188 13.188 0 01-5.515-8.469 13.197 13.197 0 012.092-9.888c.573-.87 1.257-1.66 2.036-2.353.272-.27.582-.499.92-.679zM453.161 219.919s-.222.018-.655.027l-1.92.026-7.386.049-27.162.083-89.612.076-38.646-.013h-.249v-.248l.093-63.26.072-18.278.04-4.878.021-1.258c.007-.282.022-.426.022-.426s.014.144.021.426l.021 1.258.041 4.878.072 18.278.093 63.26-.248-.247 38.646-.013 89.612.076 27.162.083 7.386.049 1.92.026c.434.007.656.026.656.026z" fill="#263238"/><path d="M317.927 198.154h-16.706v16.706h16.706v-16.706zM342.418 186.211h-16.706v28.649h16.706v-28.649zM367.007 172.644h-16.706v42.216h16.706v-42.216zM390.844 157.543h-16.706v57.317h16.706v-57.317zM415.237 138.206h-16.706v76.654h16.706v-76.654zM439.446 123.459H422.74v90.608h16.706v-90.608z" fill="#1C2E5C"/><path d="M301.221 181.026c.065-.062.136-.117.213-.165l.651-.448 2.545-1.7 9.57-6.313 33.152-21.667.383-.251v.46c0 2.366 0 4.9.006 7.477l-.4-.212 13.064-8.76 46.1-30.8 14-9.284 3.822-2.5 1-.64c.111-.077.228-.144.351-.2-.1.092-.207.174-.321.247l-.973.683-3.767 2.583-13.911 9.422-46.006 30.921-13.07 8.751-.4.267v-.479c0-2.579 0-5.111.007-7.477l.384.208-33.248 21.511-9.652 6.19-2.59 1.635-.674.413a1.253 1.253 0 01-.236.128z" fill="#263238"/><path d="M425.69 113.087a8.684 8.684 0 01-.177-2.06 159.821 159.821 0 01-.082-5.049l.259.259h-.638c-2.14 0-4.077-.029-5.479-.076a9.872 9.872 0 01-2.269-.184 9.928 9.928 0 012.269-.184c1.4-.047 3.339-.076 5.479-.076h.9v.259c-.006 1.993-.037 3.77-.083 5.049a8.65 8.65 0 01-.179 2.062zM337.412 233.393c0 .143-5.164.26-11.532.26s-11.533-.117-11.533-.26c0-.143 5.163-.261 11.533-.261 6.37 0 11.532.117 11.532.261zM325.568 241.289a14.096 14.096 0 010-5.4 14.176 14.176 0 010 5.4zM353.827 243.99c0 .144-13.863.26-30.959.26s-30.962-.116-30.962-.26c0-.144 13.86-.26 30.962-.26s30.959.116 30.959.26zM292.322 251.678a26.927 26.927 0 010-7.48 27.004 27.004 0 010 7.48zM314.347 250.847a20.056 20.056 0 010-6.441 20 20 0 010 6.441z" fill="#263238"/><path d="M337 251.263a24.173 24.173 0 010-7.065 24.036 24.036 0 010 7.065zM354.243 251.263a25.464 25.464 0 010-7.273 25.537 25.537 0 010 7.273zM300.01 253.756c-2.484.26-4.984.347-7.48.26-2.497.087-4.997 0-7.481-.26a54.165 54.165 0 017.481-.26 54.156 54.156 0 017.48.26zM319.126 253.756a62.858 62.858 0 01-11.428 0 62.858 62.858 0 0111.428 0zM343.438 254.379a72.117 72.117 0 01-12.26 0 72.324 72.324 0 0112.26 0zM363.178 253.34a82.206 82.206 0 01-13.091 0 82.442 82.442 0 0113.091 0zM292.529 261.03a9.277 9.277 0 010-4.364 9.251 9.251 0 010 4.364z" fill="#263238"/><path d="M306.752 261.03c0 .143-6.048.26-13.506.26s-13.507-.117-13.507-.26c0-.143 6.046-.261 13.507-.261 7.461 0 13.506.117 13.506.261z" fill="#263238"/><path d="M306.752 267.262a18.737 18.737 0 010-6.233 18.79 18.79 0 010 6.233zM279.739 267.678a21.364 21.364 0 010-6.649 21.364 21.364 0 010 6.649zM337.55 261.03a9.251 9.251 0 010-4.364 9.277 9.277 0 010 4.364z" fill="#263238"/><path d="M370.386 261.03c0 .143-10.215.26-22.812.26-12.597 0-22.815-.117-22.815-.26 0-.143 10.213-.261 22.815-.261 12.602 0 22.812.117 22.812.261z" fill="#263238"/><path d="M351.772 267.262a18.737 18.737 0 010-6.233 18.79 18.79 0 010 6.233zM371.318 267.262a18.79 18.79 0 010-6.233 18.79 18.79 0 010 6.233zM324.759 267.678a21.364 21.364 0 010-6.649 21.303 21.303 0 010 6.649zM285.063 271.51a54.744 54.744 0 01-10.648 0 54.587 54.587 0 0110.648 0zM311.516 270.747a63.717 63.717 0 01-11.506 0 63.535 63.535 0 0111.506 0zM330.634 270.747a49.447 49.447 0 01-10.133 0 49.306 49.306 0 0110.133 0zM356.4 270.747a58.152 58.152 0 01-10.991 0 57.986 57.986 0 0110.991 0zM377.009 270.059a59.81 59.81 0 01-11.163 0 60.155 60.155 0 0111.163 0zM453.011 274.113h-70.546v-43.682h70.546v43.682zm-70.495-.051h70.445v-43.581h-70.445v43.581z" fill="#263238"/><path d="M435.967 262c-4.889-1.853-10.511 3.272-15.3 1.182-2.788-1.216-4.053-4.37-5.419-7.088-1.366-2.718-3.72-5.585-6.746-5.27-3.052.319-5.519 3.852-8.467 3-1.858-.536-2.786-2.6-3.252-4.474-.466-1.874-.789-3.952-2.2-5.268-1.411-1.316-4.369-.964-4.591.957v23.13h55.127s-7.461-5.525-9.152-6.169z" fill="#1C2E5C"/><path d="M446.583 268.171c0 .049-13.362.089-29.841.089s-29.844-.04-29.844-.089c0-.049 13.359-.09 29.844-.09s29.841.04 29.841.09z" fill="#E0E0E0"/><path d="M446.583 258.068c0 .05-13.362.09-29.841.09s-29.844-.04-29.844-.09c0-.05 13.359-.09 29.844-.09s29.841.041 29.841.09zM446.583 247.965c0 .05-13.362.09-29.841.09s-29.844-.04-29.844-.09c0-.05 13.359-.089 29.844-.089s29.841.04 29.841.089zM446.583 238.364c0 .049-13.362.09-29.841.09s-29.844-.041-29.844-.09c0-.049 13.359-.09 29.844-.09s29.841.04 29.841.09zM287.788 98.285a.398.398 0 01.1-.006h.286a6.03 6.03 0 012.761.668 5.508 5.508 0 011.771 1.521 6.36 6.36 0 011.166 2.6 6.147 6.147 0 01-.41 3.256 9.677 9.677 0 01-.808 1.6 17.108 17.108 0 00-.913 1.615 14.141 14.141 0 00-1.221 3.709l-.015.087h-.085l-2.613-.063-2.74-.068h-.1v-.1a7.824 7.824 0 00-1.124-3.665c-.3-.555-.622-1.076-.927-1.6-.319-.5-.608-1.019-.867-1.553a5.1 5.1 0 01-.285-3.237 6.89 6.89 0 011.126-2.594 5.11 5.11 0 011.784-1.48 6.469 6.469 0 011.649-.562 6.97 6.97 0 011.087-.132h.284c.034 0 .067.003.1.01a.399.399 0 01-.1.01l-.282.017c-.361.031-.72.086-1.074.166a6.516 6.516 0 00-1.616.584c-.68.351-1.27.853-1.726 1.467a6.778 6.778 0 00-1.079 2.546 4.957 4.957 0 00.293 3.134c.259.527.548 1.039.866 1.532.3.519.634 1.046.934 1.605a7.973 7.973 0 011.155 3.76l-.1-.1 2.74.066 2.613.064-.1.086a14.258 14.258 0 011.246-3.766c.28-.559.589-1.102.927-1.628a9.554 9.554 0 00.8-1.571 6.016 6.016 0 00.419-3.165 6.264 6.264 0 00-1.117-2.544 5.454 5.454 0 00-1.715-1.509 6.113 6.113 0 00-1.625-.588 7.488 7.488 0 00-1.086-.133l-.284-.019a.322.322 0 01-.095-.02z" fill="#263238"/><path d="M288.552 113.027s-.006-.028-.013-.083l-.03-.247-.106-.95c-.086-.825-.214-2.02-.273-3.5-.013-.371-.023-.76-.022-1.166.001-.406 0-.827.044-1.264.031-.455.15-.9.351-1.311.219-.44.593-.785 1.05-.969a1.358 1.358 0 011.428.332 1.012 1.012 0 01.279.737 1.287 1.287 0 01-.3.746 1.711 1.711 0 01-.657.488c-.256.11-.525.187-.8.229a9.414 9.414 0 01-1.676.128 9.806 9.806 0 01-1.676-.149 3.126 3.126 0 01-.787-.262 2.065 2.065 0 01-.647-.5 1.529 1.529 0 01-.355-.723 1.192 1.192 0 01.126-.779c.12-.237.325-.421.574-.516a.97.97 0 01.751.065c.221.117.408.289.543.5.125.206.211.433.254.67.065.449.091.902.079 1.354l.029 2.427.035 3.514c0 .412 0 .733.006.955v.334s0-.029-.005-.085l-.008-.248-.021-.956-.061-3.513-.039-2.426a7.92 7.92 0 00-.082-1.341 1.89 1.89 0 00-.246-.644 1.351 1.351 0 00-.514-.473.882.882 0 00-.691-.06.984.984 0 00-.531.48c-.12.223-.162.48-.117.728.05.255.167.491.338.685.367.395.856.653 1.389.734a9.62 9.62 0 001.66.147 9.349 9.349 0 001.662-.125c.267-.042.528-.116.777-.223.243-.102.459-.261.628-.465.167-.197.266-.442.284-.7a.937.937 0 00-.257-.679 1.28 1.28 0 00-1.346-.314 1.94 1.94 0 00-1.011.931 3.485 3.485 0 00-.347 1.284c-.042.432-.043.853-.048 1.258-.005.405.005.792.016 1.163.051 1.481.171 2.677.246 3.5l.091.951.022.248c.004.056.004.083.004.083z" fill="#263238"/><path d="M285.065 113.026c.013.013.022.33.033.882l.026 2.3-.019-.056 1.7 2.123-.09-.043 2.062-.033-.088.04 1.075-1.21.539-.605-.03.079.058-3.392.108.111-3.846-.113-1.111-.046a3.013 3.013 0 01-.414-.032c.122-.018.245-.025.368-.02l1.087-.013h4.029v.112a5380.69 5380.69 0 00-.035 3.393v.045l-.031.034c-.177.2-.357.4-.538.606l-1.078 1.207-.036.04h-.053l-2.062.017h-.057l-.034-.044-1.662-2.15-.02-.027v-.03l.072-2.35c0-.276.015-.551.047-.825z" fill="#263238"/><path d="M290.257 116.219a1.124 1.124 0 01-.192-.091 6.21 6.21 0 00-.526-.233 5.212 5.212 0 00-3.7-.036c-.181.066-.357.14-.53.223a1.082 1.082 0 01-.194.086c.055-.044.115-.083.179-.115.169-.094.344-.177.524-.248a4.947 4.947 0 013.744.036c.178.075.352.162.519.259a.955.955 0 01.176.119zM290.289 115.395a1.12 1.12 0 01-.192-.09 6.164 6.164 0 00-.525-.233 5.218 5.218 0 00-3.7-.037 6.257 6.257 0 00-.53.223 1.152 1.152 0 01-.193.087.866.866 0 01.179-.115c.169-.095.344-.178.524-.249a4.95 4.95 0 013.743.037c.179.074.352.161.519.259a.977.977 0 01.175.118z" fill="#263238"/><path d="M290.272 114.61a1.12 1.12 0 01-.192-.09 6.164 6.164 0 00-.525-.233 5.212 5.212 0 00-3.7-.036 5.988 5.988 0 00-.53.222 1.239 1.239 0 01-.193.087.91.91 0 01.179-.115c.169-.095.344-.178.524-.249a4.95 4.95 0 013.743.037c.178.075.352.161.519.259a.977.977 0 01.175.118z" fill="#263238"/><path d="M309.369 136.144s-2.018 18.446.576 28.546l24.647-1.078s-5.282-18.2-2.039-26.257l-23.184-1.211z" fill="#EBEBEB"/><path d="M309.467 135.551s.169 19.915 1.181 25.991l24.979-1.181s-2.194-19.578-1.35-24.81h-24.81z" fill="#1C2E5C"/><path d="M330.512 143.917c.006.092-3.743.392-8.37.671-4.627.279-8.386.429-8.392.337-.006-.092 3.742-.392 8.371-.67 4.629-.278 8.385-.43 8.391-.338zM330.519 148.134c0 .092-3.743.392-8.371.671s-8.386.43-8.391.338c-.005-.092 3.742-.392 8.371-.671 4.629-.279 8.385-.429 8.391-.338zM326.273 152.276c-.455.122-.922.19-1.392.2-.862.082-2.054.173-3.373.252-1.319.079-2.514.132-3.379.154a5.904 5.904 0 01-1.406-.033 5.89 5.89 0 011.391-.2c.863-.082 2.055-.173 3.374-.252a101.17 101.17 0 013.379-.154 5.96 5.96 0 011.406.033z" fill="#fff"/><path d="M366.423 103.214c0 .144-14.61.26-32.629.26s-32.631-.116-32.631-.26c0-.144 14.607-.261 32.631-.261s32.629.117 32.629.261zM325.126 109.162c0 .144-5.479.26-12.236.26-6.757 0-12.237-.116-12.237-.26 0-.144 5.478-.261 12.237-.261s12.236.117 12.236.261zM338.127 109.162a42.869 42.869 0 01-9.433 0 42.746 42.746 0 019.433 0zM474.544 171.9a.758.758 0 01-.041-.226l-.066-.669-.2-2.574-.648-9.472-1.942-31.264c-.7-12.2-1.33-23.234-1.79-31.279-.2-3.968-.367-7.195-.483-9.482l-.105-2.58-.014-.67a.74.74 0 01.013-.23c.025.072.038.149.04.226l.066.67.2 2.572.648 9.472 1.943 31.269c.7 12.191 1.329 23.227 1.789 31.273.2 3.968.367 7.195.483 9.483.044 1.084.078 1.944.1 2.58l.014.671a.771.771 0 01-.007.23zM469.266 60.826s-.2.018-.58.026l-1.7.022-6.54.034-24.054.03-79.356-.1-82.154-.264.042-.005a19.771 19.771 0 00-10.445 6.511 19.287 19.287 0 00-4.06 8.378 20.131 20.131 0 00-.205 7.411c.058.341.067.52.067.52a14.005 14.005 0 01-.348-2.035 19.726 19.726 0 014.331-14.454 20.024 20.024 0 0110.575-6.677l.021-.005h.022l82.154.1 79.356.25 24.053.136 6.54.063 1.7.03c.384.011.581.03.581.03z" fill="#263238"/><path d="M629.871 374.413a54.766 54.766 0 0152.229-14.334 95.128 95.128 0 01-52.846 16.511M647.586 311.682c-2.176-15.39 3.8-32.7 15.328-43.89.381 15.252-6.059 32.417-15.328 43.89zM638.371 340.756a82.19 82.19 0 0137.744-36.071 51.867 51.867 0 01-37.885 36.234M636.463 346.365c9.3.261 18.7-.066 27.693-2.445 8.993-2.379 17.6-6.951 23.582-14.071A92.54 92.54 0 00636.6 345.46M641.182 327.887c-4.719-17.684-12.5-29.917-26.4-39.827a36.781 36.781 0 0026.4 39.827M606.093 358.385A26.185 26.185 0 01622 334.14c-.773 9.132-7.946 19.7-15.9 24.245M601.652 343.475A39.004 39.004 0 00576.1 310.2c3.211 14.778 11.756 27.08 25.553 33.272M608.344 369.935c-3.278-4.689-8.627-7.606-14.162-9.054-5.535-1.448-11.319-1.576-17.039-1.7A39.836 39.836 0 00607.909 372M614.989 407.63a43.65 43.65 0 00-53.3 25.248c19.361-3.675 38.466-12.273 53.3-25.248zM636.238 394.529c-3.217 9.508-2.6 21 4.55 29.192a34.87 34.87 0 00-4.55-29.192M648.8 389.248a35.77 35.77 0 0019.75 29.022 2.216 2.216 0 001.746.287c.872-.355.951-1.544.844-2.479-1.4-12.18-10.425-23.959-22.344-26.83M657 388.013a29.337 29.337 0 0021.376 9.408 29.32 29.32 0 0021.471-9.189c-13.62-1.49-29.334-2.484-42.847-.219z" fill="#1C2E5C"/><path d="M659.039 279.134a2.47 2.47 0 01-.125.4c-.1.283-.24.665-.415 1.152l-1.643 4.41c-.733 1.908-1.579 4.261-2.558 6.993l-1.578 4.373-1.7 4.926c-2.413 6.9-5.092 15.175-7.984 24.391a988.354 988.354 0 00-8.758 30.18 917.954 917.954 0 00-7.646 30.488c-2.122 9.424-3.948 17.932-5.266 25.118l-.967 5.121-.778 4.582c-.494 2.86-.916 5.324-1.2 7.347l-.714 4.651-.2 1.208a.208.208 0 01.151.243.208.208 0 01-.233.166.207.207 0 01-.18-.222.206.206 0 01.21-.194l.147-1.215.618-4.667c.253-2.028.646-4.5 1.113-7.364l.739-4.592.928-5.129c1.273-7.2 3.062-15.722 5.16-25.158a851.246 851.246 0 017.612-30.517 914.286 914.286 0 018.8-30.187c2.919-9.214 5.636-17.485 8.095-24.369l1.736-4.917 1.616-4.361c1.007-2.724 1.88-5.068 2.642-6.965l1.735-4.376c.2-.48.35-.855.463-1.133.048-.133.109-.261.18-.383z" fill="#263238"/><path d="M584.229 318.092c.086.065.165.139.235.222l.651.684a84.555 84.555 0 012.422 2.71 95.374 95.374 0 018.018 10.692 71.788 71.788 0 018.385 17.938c2.247 7.141 3.641 15.257 5.029 23.741 2.77 16.982 6.168 32.192 8.627 43.194l2.95 13.024.785 3.546.192.925c.028.104.044.211.048.319a1.53 1.53 0 01-.1-.307l-.242-.913c-.209-.839-.5-2.02-.88-3.523-.743-3.1-1.8-7.53-3.111-12.988-2.552-10.983-6.01-26.193-8.782-43.192-1.389-8.485-2.765-16.576-4.974-23.684a72.588 72.588 0 00-8.237-17.883 103.118 103.118 0 00-7.863-10.759c-1-1.215-1.8-2.142-2.345-2.769l-.612-.719a1.487 1.487 0 01-.196-.258zM661.069 387.435a1.866 1.866 0 01-.491.09l-1.41.156-1.019.1-1.2.181c-.864.128-1.85.254-2.924.493l-1.691.336-1.811.459c-1.26.284-2.563.746-3.951 1.165a58.096 58.096 0 00-8.624 3.8 48.657 48.657 0 00-7.732 5.371 38.535 38.535 0 00-2.967 2.848 30.689 30.689 0 00-2.347 2.708 28.136 28.136 0 00-1.738 2.395 17.605 17.605 0 00-1.191 1.894l-.722 1.22a1.842 1.842 0 01-.284.41 1.77 1.77 0 01.191-.458l.639-1.271c.326-.677.701-1.33 1.122-1.953a26.361 26.361 0 011.691-2.462 29.368 29.368 0 012.324-2.778c.934-1.026 1.924-2 2.967-2.915a46.952 46.952 0 017.8-5.464 55.426 55.426 0 018.723-3.8c1.405-.411 2.724-.86 4-1.129l1.832-.433 1.71-.305c1.085-.217 2.081-.319 2.953-.42l1.216-.139 1.027-.055 1.421-.059c.162-.018.325-.013.486.015zM664.947 318.418a6.7 6.7 0 01-.981.946l-2.8 2.431a904.403 904.403 0 01-9.376 7.873 832.252 832.252 0 01-9.474 7.757l-2.909 2.3a6.852 6.852 0 01-1.11.789 6.78 6.78 0 01.984-.947l2.8-2.432a862.004 862.004 0 019.374-7.871 856.154 856.154 0 019.47-7.752l2.909-2.305a7.003 7.003 0 011.113-.789zM668.3 336.435c.041.138-7.111 2.372-15.971 4.99-8.86 2.618-16.079 4.629-16.12 4.491-.041-.138 7.109-2.372 15.973-4.99 8.864-2.618 16.073-4.626 16.118-4.491zM641.89 329.262a5.874 5.874 0 01-.738-1.027c-.5-.766-1.135-1.728-1.885-2.872a169.084 169.084 0 00-6.553-9.233 175.606 175.606 0 00-7.18-8.757l-2.264-2.584a5.966 5.966 0 01-.791-.987c.342.248.657.532.938.848.582.568 1.4 1.413 2.391 2.477a121.138 121.138 0 017.32 8.687 114.515 114.515 0 016.449 9.351 71.937 71.937 0 011.748 2.965c.229.356.418.735.565 1.132zM617.055 339.262a23.56 23.56 0 01-1.677 2.759 159.472 159.472 0 00-4.02 6.651 156.127 156.127 0 00-3.664 6.855 23.79 23.79 0 01-1.515 2.852 17.133 17.133 0 011.182-3.01 83.901 83.901 0 013.544-6.954 82.902 82.902 0 014.166-6.6 17.253 17.253 0 011.984-2.553z" fill="#263238"/><path d="M608.558 370.428c-.037.07-1.4-.6-3.634-1.6s-5.35-2.319-8.873-3.554a111.43 111.43 0 00-9.155-2.756c-2.373-.606-3.854-.936-3.838-1.015.358-.008.715.029 1.064.111.68.1 1.658.286 2.859.546a79.763 79.763 0 0118.1 6.335c1.1.546 1.981 1.012 2.576 1.357.324.152.626.346.901.576zM615.248 407.687a1.606 1.606 0 01-.441.149l-1.288.328-4.756 1.1a156.707 156.707 0 00-15.534 4.1 68.943 68.943 0 00-14.494 6.809 54.036 54.036 0 00-3.993 2.78c-.457.385-.938.74-1.44 1.064-.011-.014.1-.129.32-.338.22-.209.546-.519.994-.885a41.866 41.866 0 013.919-2.93 63.564 63.564 0 0114.524-6.993 129.94 129.94 0 0115.627-3.967l4.791-.936a11.893 11.893 0 011.771-.281zM639.437 416.87c-.142.021-.994-4.995-1.9-11.2-.906-6.205-1.529-11.258-1.386-11.279.143-.021.993 4.994 1.9 11.2.907 6.206 1.528 11.258 1.386 11.279zM664.621 407.726a26.703 26.703 0 01-2.269-2.7 363.326 363.326 0 00-5.379-6.567 366.15 366.15 0 00-5.543-6.43 26.524 26.524 0 01-2.264-2.7c.269.17.512.378.722.617a62.148 62.148 0 011.814 1.833c1.506 1.572 3.531 3.8 5.67 6.344a134.052 134.052 0 015.272 6.677c.645.877 1.154 1.6 1.493 2.1.2.251.363.529.484.826z" fill="#263238"/><path d="M597.974 431.083v12.444h3.111l11.061 34.913h24.529l10.716-34.567 4.148-.346v-12.444h-53.565z" fill="#455A64"/><path d="M649.465 443.873c0 .144-10.831.26-24.189.26s-24.191-.116-24.191-.26c0-.144 10.829-.26 24.191-.26 13.362 0 24.189.116 24.189.26zM667.108 363.828a9.607 9.607 0 01-1.572.425l-4.306 1.038a184.06 184.06 0 00-14.017 4.078 180.548 180.548 0 00-13.634 5.222l-4.058 1.775c-.485.246-.99.45-1.509.611a9.742 9.742 0 011.422-.794 93.701 93.701 0 013.995-1.929 141.45 141.45 0 0127.716-9.321c1.829-.406 3.316-.7 4.35-.878a9.743 9.743 0 011.613-.227z" fill="#263238"/><path d="M641.322 463.26c0 .144-7.6.261-16.971.261s-16.973-.117-16.973-.261c0-.144 7.6-.26 16.973-.26s16.971.117 16.971.26zM642.276 460.374c0 .144-8.053.261-17.985.261-9.932 0-17.987-.117-17.987-.261 0-.144 8.051-.26 17.987-.26 9.936 0 17.985.116 17.985.26z" fill="#FAFAFA"/><path d="M492.286 446.691l-1.623 20.529s-20.285 6.518-20.4 10.319l39.681.521 1.173-31.411-18.831.042z" fill="#1C2E5C"/><path d="M502.891 465.13a1.623 1.623 0 011.177 1.817 1.558 1.558 0 01-1.791 1.183 1.71 1.71 0 01-1.236-1.931 1.62 1.62 0 012-1.023M509.941 478.06l-.08-3.183-37.578.23s-2.155 1.283-2.1 2.522l39.758.431z" fill="#EBEBEB"/><path d="M490.013 467.038c.012.194.985.252 1.957.847.989.57 1.506 1.395 1.682 1.313.178-.043-.146-1.194-1.337-1.894s-2.349-.443-2.302-.266zM485.9 468.886c-.039.189.811.494 1.494 1.294.707.78.9 1.662 1.093 1.648.183.025.283-1.115-.586-2.094-.869-.979-2.001-1.034-2.001-.848zM483.684 473.942c.178.036.418-.941-.111-1.988-.529-1.047-1.45-1.442-1.527-1.278-.1.163.5.715.923 1.581.442.856.522 1.672.715 1.685zM490.222 462.347c.087.175.968-.12 2.067-.078 1.1.019 1.963.361 2.059.192.108-.144-.747-.837-2.041-.867-1.294-.03-2.185.606-2.085.753zM490.026 458.22a3.73 3.73 0 001.988-.07 8.88 8.88 0 002.062-.7 9.3 9.3 0 001.124-.64c.22-.13.418-.294.586-.486a.841.841 0 00.058-1.034 1.064 1.064 0 00-.863-.418 2.612 2.612 0 00-.743.125 7.02 7.02 0 00-3.023 1.721c-.9.881-1.188 1.615-1.121 1.65.09.061.52-.559 1.436-1.292a7.976 7.976 0 011.744-1.052 7.432 7.432 0 011.131-.387c.418-.123.775-.137.889.047.041.071.047.1-.037.224a1.967 1.967 0 01-.432.355c-.331.231-.676.442-1.032.632-.607.324-1.243.59-1.9.795-.634.132-1.258.309-1.867.53z" fill="#263238"/><path d="M490.287 458.49a3.17 3.17 0 00.466-1.936 6.473 6.473 0 00-.879-3.362 1.652 1.652 0 00-1.3-.966.926.926 0 00-.814.58 2.703 2.703 0 00-.182.735 4.572 4.572 0 00.95 3.369c.807 1.005 1.623 1.213 1.637 1.147.062-.1-.625-.454-1.249-1.425a4.574 4.574 0 01-.685-1.85 4.102 4.102 0 010-1.15c.049-.424.2-.769.357-.731.2-.009.542.3.715.631.207.338.382.694.525 1.063a7.15 7.15 0 01.445 1.973c.093 1.164-.093 1.896.014 1.922z" fill="#263238"/><path d="M578.087 443.274l4.586 23.975 9.1 17.918a2.501 2.501 0 01-1.252 3.434 2.487 2.487 0 01-2.283-.169c-4.394-2.709-20.5-12.756-20.742-14.53-.275-2.053-6.517-24.969-6.517-24.969l17.108-5.659z" fill="#1C2E5C"/><path d="M590.517 488.6l-23.372-16.309.218 1.011a3.755 3.755 0 001.386 2.2c1.9 1.455 7.228 5.357 19.413 12.947a2.492 2.492 0 002.355.152v-.001zM570.401 465.255a1.513 1.513 0 01.82 1.845 1.457 1.457 0 01-1.821.83 1.596 1.596 0 01-.859-1.959 1.508 1.508 0 011.99-.652" fill="#EBEBEB"/><path d="M582.819 479.347a5.396 5.396 0 014.328-3.422c.008-.063-.334-.184-.909-.143a3.989 3.989 0 00-3.347 2.648c-.173.55-.135.911-.072.917zM585.206 482.177c.136.079.735-.861 1.893-1.48a20.443 20.443 0 012.266-.8 2.771 2.771 0 00-2.524.332c-1.317.711-1.773 1.911-1.635 1.948zM578.773 475.932a12.85 12.85 0 016.13-4.069 6.843 6.843 0 00-6.13 4.069zM576.771 468.76c.095.13 1.294-.705 3-1.136 1.7-.454 3.149-.311 3.169-.47a6.201 6.201 0 00-6.167 1.606h-.002zM575.246 461.756a7.934 7.934 0 013.088-1.265 7.931 7.931 0 013.335.114c.028-.058-.3-.3-.915-.5a5.457 5.457 0 00-4.824.865c-.511.4-.73.741-.684.786zM578.005 459.166a2.1 2.1 0 00-.162-.909 6.396 6.396 0 00-1.226-2.21 2.84 2.84 0 00-1.478-1.071.998.998 0 00-1.061.457 1.634 1.634 0 00-.145 1.158 3.537 3.537 0 003.716 2.547 4.1 4.1 0 003.487-2.944 1.422 1.422 0 00-.183-1.171.988.988 0 00-1.119-.294 3.505 3.505 0 00-1.4 1.156 7.19 7.19 0 00-1.23 2.2c-.126.283-.19.59-.189.9a11.433 11.433 0 011.707-2.862 3.276 3.276 0 011.242-.977.532.532 0 01.611.156.97.97 0 01.075.777 3.657 3.657 0 01-3.05 2.521 3.072 3.072 0 01-3.187-2.116 1.2 1.2 0 01.068-.813.554.554 0 01.249-.225.552.552 0 01.333-.036c.504.158.946.466 1.268.884a9.501 9.501 0 011.674 2.872z" fill="#263238"/><path d="M492.015 258.031c-.253-.008-3.294 201.148-3.294 201.148l24.306-.839 8.413-98.895 2.022-72.6L540 353.991l20.629 105.39 24.273-6.093-30.892-196.566-29.085-5.622-32.91 6.931z" fill="#FDBC5A"/><path d="M544.848 133.752c2.908-5.746 3.827-16.059.489-21.773-3.338-5.714-10.085-9.835-16.43-11.714a5.474 5.474 0 00-3.258-.208 2.184 2.184 0 00-1.542 2.552 13.87 13.87 0 00-3.961-2.288 4.694 4.694 0 00-4.365.616 2.9 2.9 0 00-1.052 1.945 2.88 2.88 0 00.634 2.119 4.958 4.958 0 00-6.747 6.11 15.765 15.765 0 003.237 5.086 4.447 4.447 0 011.02 4.45" fill="#263238"/><path d="M520.884 181.057c.176-2.755.622-27.7.618-27.81 0 0-9.258-1.146-9.659-10.355-.193-4.448.155-13.641.565-21.956a17.172 17.172 0 0116.62-16.313l.889-.027c9.6.261 14.743 8.562 14.216 18.153l-1.314 53.37" fill="#FFBE9D"/><path d="M521.5 153.247a22.256 22.256 0 0011.884-3.919s-2.765 5.762-11.983 5.219l.099-1.3z" fill="#EB996E"/><path d="M513.954 127.158a1.314 1.314 0 001.309 1.288 1.252 1.252 0 00.919-.336 1.27 1.27 0 00.4-.893 1.317 1.317 0 00-1.308-1.289 1.26 1.26 0 00-1.32 1.23zM514.529 125.386c.168.166 1.142-.6 2.558-.643 1.413-.06 2.475.636 2.623.457.073-.079-.1-.383-.565-.7a3.61 3.61 0 00-2.107-.579 3.475 3.475 0 00-2.029.726c-.425.353-.563.664-.48.739zM528.142 127.363a1.317 1.317 0 001.31 1.287 1.252 1.252 0 00.919-.335 1.27 1.27 0 00.4-.893 1.317 1.317 0 00-1.308-1.289 1.26 1.26 0 00-1.321 1.23zM528.452 125.217c.169.166 1.144-.6 2.559-.642 1.413-.061 2.475.635 2.623.457.073-.079-.1-.384-.566-.7a3.623 3.623 0 00-2.106-.579 3.48 3.48 0 00-2.03.726c-.424.349-.562.664-.48.738zM523.641 135.876a9.368 9.368 0 00-2.312-.344c-.363-.026-.707-.087-.776-.332a1.847 1.847 0 01.208-1.079l.984-2.786c1.362-3.965 2.337-7.221 2.177-7.275-.16-.054-1.4 3.117-2.758 7.083l-.938 2.8a2.097 2.097 0 00-.143 1.424.908.908 0 00.611.51c.202.049.409.071.616.067.777.075 1.56.053 2.331-.068zM527.838 136.725c-.231-.006-.186 1.531-1.467 2.662-1.281 1.131-2.923 1.014-2.928 1.229-.018.1.374.287 1.066.284a3.826 3.826 0 002.447-.938 3.333 3.333 0 001.131-2.229c.039-.645-.144-1.02-.249-1.008zM527.914 119.68c.152.381 1.56.154 3.226.3 1.671.115 3.025.56 3.235.208.093-.169-.152-.523-.705-.879a5.645 5.645 0 00-2.416-.763 5.641 5.641 0 00-2.506.374c-.602.268-.9.58-.834.76zM514.922 121.272c.259.314 1.223-.05 2.4-.1 1.17-.093 2.172.149 2.39-.195.095-.166-.071-.484-.514-.775a3.474 3.474 0 00-3.857.24c-.408.342-.534.677-.419.83z" fill="#263238"/><path d="M543.594 129.594c.155-.073 6.271-2.069 6.266 4.235-.005 6.304-6.333 5-6.344 4.818-.011-.182.078-9.053.078-9.053z" fill="#FFBE9D"/><path d="M545.443 136.26c.027-.02.109.077.295.162.261.111.556.118.821.018a2.72 2.72 0 001.259-2.44 3.605 3.605 0 00-.306-1.573 1.257 1.257 0 00-.825-.843.558.558 0 00-.649.3c-.084.176-.044.3-.078.313-.017.016-.135-.106-.084-.366a.7.7 0 01.248-.4.829.829 0 01.608-.16 1.541 1.541 0 011.146.978c.268.546.399 1.15.38 1.758a2.848 2.848 0 01-1.6 2.721 1.182 1.182 0 01-1-.168c-.204-.148-.237-.288-.215-.3z" fill="#EB996E"/><path d="M508.388 109.028c-.737 8.174 9.33 11.586 13.748 7.016 2.043-2.114 3.825-4.755 6.607-5.707a7.47 7.47 0 015.746.605l.053.027c2.6 1.35 4.131 4.358 4.533 7.256.561 4.042-.085 7.606.964 11.317.093.55.367 1.053.779 1.43a2 2 0 002.492-.632 7.78 7.78 0 001.58-4.16 25.917 25.917 0 00-.377-10.214 17.653 17.653 0 00-5.125-8.752 16.72 16.72 0 00-11.859-4.065 20.528 20.528 0 00-11.769 4.626 12.04 12.04 0 00-3.729 4.575" fill="#263238"/><path d="M515.063 104.533a1.839 1.839 0 00-.872.036 4.334 4.334 0 00-2.083 1.16 5.358 5.358 0 00-1.564 3.175 6.053 6.053 0 001.2 4.154 7.927 7.927 0 003.412 2.66c1.097.442 2.258.7 3.438.763.788.046 1.577.023 2.36-.071.291-.011.578-.07.849-.175-.007-.089-1.232.089-3.181-.1a11.219 11.219 0 01-3.291-.833 7.728 7.728 0 01-3.194-2.533 5.731 5.731 0 01-1.154-3.824 5.15 5.15 0 011.364-2.981 4.523 4.523 0 011.888-1.217 8.11 8.11 0 00.828-.214zM519.283 101.646c0-.025-.231-.071-.6.106a1.983 1.983 0 00-.983 1.345 3.675 3.675 0 00.48 2.414 10.54 10.54 0 001.727 2.412 10.898 10.898 0 004.508 2.857 5.187 5.187 0 002.179.371c.015-.086-.823-.195-2.063-.693a11.958 11.958 0 01-4.273-2.869 11.133 11.133 0 01-1.683-2.287 3.482 3.482 0 01-.539-2.14c.074-.497.341-.946.743-1.248.294-.203.511-.228.504-.268z" fill="#455A64"/><path d="M464.387 183.292l-43.354-4.114-6.864-1.648s-15.679-2.8-17.151-3.265c-1.7-.533-2.367.159-2.52.8-.24 1 .748 2.066 2.194 2.568.5.174 8.492 2.6 8.492 2.6a19.73 19.73 0 00-2.634.874c-1.86.714-3.575 3.216-4.37 6.086-.795 2.87-.763 3.744.337 4.1a1.47 1.47 0 001.247-.223 2.919 2.919 0 001.23-1.672c1.335-4.578 4.15-5.045 4.15-5.045l.9.215s-2.839 2.152-2.691 4.614c.021.364.112.72.268 1.048a3.726 3.726 0 00.818 3.618 3.734 3.734 0 003.533 1.125c.616-.132 1.274-.526 1.338-1.153a1.963 1.963 0 00-.238-.957 3.11 3.11 0 01-.173-.5l2.6.252s5.871.253 8.414.652l40.865 10.577a10.46 10.46 0 0012.8-7.689 10.474 10.474 0 00-4.954-11.514 10.467 10.467 0 00-4.237-1.349z" fill="#FFBE9D"/><path d="M420.076 180.317a2.173 2.173 0 01-1.791 1.793c-.88.221-1.809.136-2.7.293-2.672.468-4.666 2.994-7.358 3.333-.375.047-.853-.012-.979-.369-.117-.33.16-.659.413-.9l6.5-6.212" fill="#FFBE9D"/><path d="M414.154 178.254a3.686 3.686 0 00-.772.6 101.27 101.27 0 00-1.972 1.773l-2.878 2.677-.827.779c-.244.267-.68.507-.738 1.128a.764.764 0 00.49.7c.233.089.483.12.73.09.44-.053.872-.156 1.288-.308a34.136 34.136 0 004.229-2.358 6.806 6.806 0 011.9-.713c.621-.12 1.235-.124 1.8-.187a3.16 3.16 0 002.415-1.158c.378-.562.277-.97.26-.955a2.6 2.6 0 01-.418.833 3.05 3.05 0 01-2.288.919c-.548.039-1.166.02-1.845.129-.712.131-1.4.371-2.038.713a40.01 40.01 0 01-4.183 2.294 5.42 5.42 0 01-1.164.283c-.371.041-.7-.081-.67-.28-.006-.222.292-.508.573-.771l.815-.792 2.8-2.756a98.663 98.663 0 001.859-1.891c.245-.219.458-.471.634-.749zM406.117 184.472a3.7 3.7 0 00-1.7.045 2.87 2.87 0 00-1.438 1.072 7.39 7.39 0 00-.982 2.057 11.6 11.6 0 01-.9 2.189 3.749 3.749 0 01-1.357 1.413 1.46 1.46 0 01-1.319.082c-.287-.139-.4-.277-.39-.286.017-.027.158.074.436.166a1.376 1.376 0 001.158-.166 3.723 3.723 0 001.208-1.361 12.73 12.73 0 00.849-2.145 7.143 7.143 0 011.053-2.134 3.008 3.008 0 011.615-1.112 2.67 2.67 0 011.32-.011c.307.079.454.174.447.191zM396.137 177.43a9.306 9.306 0 011.593.471l3.8 1.23 3.821 1.174a9.387 9.387 0 011.574.527 7.395 7.395 0 01-1.635-.3c-1-.238-2.366-.614-3.859-1.084a57.925 57.925 0 01-3.782-1.326 7.458 7.458 0 01-1.512-.692zM407.352 186.831c.018.018-.11.155-.324.407a1.555 1.555 0 00-.44 1.206.83.83 0 00.534.619c.34.126.694.209 1.053.247a1.86 1.86 0 011.189.578 1.587 1.587 0 01.252 1.411 1.798 1.798 0 01-.929 1.078 2.234 2.234 0 01-1.292.244 7.322 7.322 0 01-2.03-.668 4.31 4.31 0 01-1.186-.814c-.235-.253-.3-.439-.286-.445.014-.006.126.14.374.351.367.287.77.523 1.2.7a7.817 7.817 0 001.966.577c.391.047.786-.037 1.124-.237.337-.201.599-.509.744-.874a1.28 1.28 0 00-.187-1.117 1.59 1.59 0 00-.992-.481 4.38 4.38 0 01-1.116-.3 1.066 1.066 0 01-.646-.831 1.616 1.616 0 01.577-1.33c.246-.234.401-.336.415-.321z" fill="#EB996E"/><path d="M408.486 192.171c0-.016.185-.006.436.185a1.436 1.436 0 01.53 1.18 1.92 1.92 0 01-1.083 1.577 3.149 3.149 0 01-2.34.125 3.806 3.806 0 01-1.916-1.345 3.638 3.638 0 01-.7-1.777 3.464 3.464 0 01.09-1.278c.081-.291.164-.437.182-.431a6.072 6.072 0 00-.04 1.676c.096.593.34 1.151.707 1.625a3.631 3.631 0 001.772 1.214 2.921 2.921 0 002.1-.081 1.708 1.708 0 00.987-1.321 1.37 1.37 0 00-.382-1.068c-.192-.201-.354-.252-.343-.281zM415.525 188.344c-.03-.007 0-.311.248-.758a3.136 3.136 0 011.521-1.346l-.005.292a9.312 9.312 0 01-1.008-.507 7.132 7.132 0 01-2.814-2.68 18.116 18.116 0 002.981 2.394c.33.192.659.361.969.5l.342.158-.348.134a3.285 3.285 0 00-1.47 1.159c-.276.392-.375.668-.416.654zM401.913 184.265c.06-.064.536.422.617 1.216.081.794-.273 1.368-.346 1.319-.089-.038.1-.594.017-1.284-.083-.69-.367-1.196-.288-1.251z" fill="#EB996E"/><path d="M465.164 204.486l28.276-6.527s-1.463 51.84-1.458 52.331c.005.491-2.334 1.3-2.134 5.066l2.032 4.475 62 .832 1.673-50.347 5.658-39.039-13.007-8.048-4.578-6.212-17.884 18.865-4.448-16.1.128-4.791-4.421 4.8-23.846 6.877-31.505 14.689-21.3-1.627-5.531 18.638 30.345 6.118z" fill="#1C2E5C"/><path d="M523.277 170.085a2.88 2.88 0 00-1.28 1.427 5.77 5.77 0 00-.389 2.178 8.18 8.18 0 01-.422 2.966l-.214.517-.222-.516a28.14 28.14 0 01-1.401-4.587c-.754-3.239-1.235-6.205-1.557-8.355a20.667 20.667 0 01-.375-3.5c.32 1.129.566 2.278.737 3.439.414 2.129.953 5.08 1.7 8.3.33 1.535.773 3.042 1.328 4.51h-.437a8.25 8.25 0 00.459-2.794 5.742 5.742 0 01.526-2.279 2.605 2.605 0 011.023-1.141c.322-.172.52-.184.524-.165zM546.23 162.177a4.116 4.116 0 01-.6.869c-.415.537-1.029 1.3-1.8 2.244a511.505 511.505 0 01-6.08 7.275l-3.817 4.454-.3.345-.109-.438a288.217 288.217 0 01-1.278-5.3c-.12-.646-.482-1.016-.83-1.023a.755.755 0 00-.48.138c-.026.008.069-.264.485-.286a.888.888 0 01.356.068.892.892 0 01.301.202c.211.236.361.519.437.826.376 1.278.878 3.093 1.462 5.256l-.405-.093 3.777-4.488a506.31 506.31 0 016.2-7.177c.8-.909 1.461-1.64 1.924-2.137a4.15 4.15 0 01.757-.735zM519.855 244.979a3.277 3.277 0 01-.05-.671l-.044-1.924a259.844 259.844 0 010-7.077c.069-5.976.353-14.231 1.03-23.326a378.595 378.595 0 012.451-23.225c.409-2.96.77-5.351 1.049-7l.329-1.9c.028-.223.078-.443.149-.656.009.225-.007.45-.046.672l-.232 1.909-.884 7.017a511.118 511.118 0 00-2.3 23.215 493.78 493.78 0 00-1.181 23.3l-.169 7.07-.054 1.923c.007.226-.009.451-.048.673zM514.807 257.128a11.644 11.644 0 01-.462-4.449c-.036-1.496.137-2.99.515-4.439.139 1.481.141 2.971.005 4.451-.078 2.442.084 4.414-.058 4.437z" fill="#263238"/><path d="M540.211 242.577c-.516.242-1.051.443-1.6.6-1.037.36-2.552.836-4.436 1.385a146.157 146.157 0 01-30.155 5.357c-1.957.135-3.544.21-4.641.229-.568.041-1.138.036-1.706-.015a10.68 10.68 0 011.7-.187l4.622-.394c3.9-.358 9.275-.991 15.158-2.033a183.98 183.98 0 0014.928-3.312l4.476-1.223c.54-.18 1.093-.316 1.654-.407zM493.132 208.893c-.144 0-.234-7.357-.2-16.429s.174-16.429.318-16.428c.144.001.235 7.355.2 16.43-.035 9.075-.174 16.427-.318 16.427z" fill="#263238"/><path d="M560.06 170.562s7.814 6.7 8.326 10.5c.4 2.935 8.081 30.485 11.543 42.818a17.993 17.993 0 01-.654 11.632l-9.983 24.7-16.154-9.556 8.077-23.168-6.688-19.657 5.533-37.269z" fill="#1C2E5C"/><path d="M569.292 260.209a1.51 1.51 0 01-.3-.145l-.862-.476-3.266-1.87-11.824-6.892-.141-.083.054-.156 8.023-23.186v.174l-2.945-7.9-6.677-17.994.008.019c-2.048-4.3-3.82-8.449-4.313-12.427a17.437 17.437 0 01.166-5.583c.32-1.568.866-3.082 1.622-4.492a18.661 18.661 0 014.172-5.266c.444-.398.912-.77 1.4-1.112.163-.127.336-.239.518-.335-.145.146-.302.28-.47.4-.317.25-.781.631-1.345 1.165a19.276 19.276 0 00-4.016 5.286 16.322 16.322 0 00-1.536 4.423 17.2 17.2 0 00-.111 5.462c.514 3.9 2.283 7.986 4.347 12.272V201.513l6.712 17.981 2.939 7.908.032.087-.03.087c-3.057 8.7-5.84 16.629-8.13 23.149l-.087-.239 11.734 7.044 3.211 1.963.832.525c.102.052.197.116.283.191z" fill="#263238"/><path opacity=".3" d="M527.658 174.181a2.403 2.403 0 012.4 1.758c.2 1.077.05 2.206.331 3.265.281 1.059 1.245 2.091 2.318 1.869a2.853 2.853 0 001.533-1.207 37.5 37.5 0 005.039-9.29c-.03.078-5.538 6.359-5.538 6.359a18.421 18.421 0 00-1.243-4.626c-.186-.478-.4-1.294-.863-1.507-.752-.344-1.746.756-2.244 1.416a13.045 13.045 0 01-1.735 1.866M518.629 168.478c.11 3.514.791 6.988 2.017 10.283.109.338.293.645.54.9a.834.834 0 00.972.141 11.6 11.6 0 00.992-2.128c.512-1.428 2.585-1.56 2.585-1.56a37.094 37.094 0 00-1.354-4.76 1.319 1.319 0 00-1.289-.83 2.144 2.144 0 00-1.42 1.629c-.313 2.567-.275 3.744-.652 4.638-.972-2.73-1.759-6.02-2.4-8.4M533.968 244.231c.236-.169.437-.384.59-.631a2.183 2.183 0 00-.112-2.454 3.341 3.341 0 00-3.122-1.187 7.032 7.032 0 00-3.163 1.426c-.948.684-1.824 1.47-2.82 2.082-2.45 1.507-5.435 1.849-8.311 1.9a49.338 49.338 0 00-8.608.385c-2.824.548-5.645 2-7.007 4.537 0-.005 24.581-1.789 32.553-6.058z" fill="#000"/><path d="M550.04 280.347a20.322 20.322 0 01-6.44-6.637.257.257 0 00.008-.217.355.355 0 00-.245-.148 34.931 34.931 0 01-1.885-3.3c2.007-1.3 4.629-3.28 1.777-3.686-3.51-.5-6.019-2.206-6.377-3.139-.358-.933.812-1.773 1.737-1.176 1.067.543 2.204.936 3.379 1.166a8.422 8.422 0 002.861.182c.594-.066 2.687-1.5 4.924-2.552a1.751 1.751 0 011.019-.135l.855-.059a2.65 2.65 0 002.172-1.423l3.243-6.242 9.8 5.8-7.756 10.766a129.674 129.674 0 01-9.072 10.8z" fill="#FFBE9D"/><path d="M552.063 281.475a8.005 8.005 0 01-2.26-1.067 20.467 20.467 0 01-7.961-8.9 7.983 7.983 0 01-.807-2.364 26.145 26.145 0 0011.028 12.334v-.003zM521.186 287.782c-.007.016-.1-.013-.274-.086a3.293 3.293 0 01-.7-.442 5.887 5.887 0 01-1.6-2.542 41.589 41.589 0 01-1.087-4.284c-.359-1.618-.734-3.4-1.1-5.277-.737-3.754-1.3-7.172-1.658-9.652a93.22 93.22 0 01-.384-2.943 4.378 4.378 0 01-.064-1.09c.132.341.22.696.264 1.059l.547 2.915c.452 2.462 1.07 5.863 1.806 9.611l1.06 5.277c.346 1.617.595 3.093.967 4.265a6.148 6.148 0 001.388 2.511c.495.475.858.634.835.678zM520.352 265.326c0-.03.165-.061.443.032.394.147.72.436.912.81a1.715 1.715 0 01-.092 1.831 2.019 2.019 0 01-2.1.8 2.083 2.083 0 01-1.468-1.7 1.912 1.912 0 01.097-.939c.109-.3.292-.568.532-.78.829-.714 1.577-.5 1.538-.456-.477.134-.916.38-1.278.717a1.576 1.576 0 00-.416 1.379 1.645 1.645 0 001.128 1.275 1.575 1.575 0 001.58-.578 1.342 1.342 0 00.15-1.387c-.37-.835-1.063-.93-1.026-1.004zM499.088 261.311c.241.741.33 1.524.262 2.3a12.397 12.397 0 01-5.169 9.608 5.818 5.818 0 01-2.066 1.05c-.042-.083.75-.474 1.845-1.345a13.571 13.571 0 005.022-9.335c.123-1.389.013-2.267.106-2.278z" fill="#455A64"/><path d="M460.282 191.146a33.52 33.52 0 01.5-4.968c.119-1.663.363-3.314.728-4.94.151 1.668.08 3.35-.211 5a18.935 18.935 0 01-1.017 4.908z" fill="#263238"/><path d="M440.354 179.729c-.008.12-.031.238-.068.352l-.264 1.006-1.063 3.8-3.921 13.542-.161-.281c5.654 1.4 12.467 2.545 19.733 3.884 3.621.673 7.114 1.409 10.333 2.21h-.117l20.286-4.588 5.907-1.289 1.585-.323c.181-.047.367-.074.555-.083a2.726 2.726 0 01-.535.169l-1.567.4-5.874 1.431-20.244 4.768-.057.013-.06-.014c-3.209-.786-6.692-1.513-10.308-2.185-7.254-1.337-14.081-2.508-19.745-3.961l-.228-.059.068-.222c1.686-5.549 3.1-10.185 4.1-13.489.5-1.585.893-2.848 1.182-3.766l.327-.987c.03-.115.076-.225.136-.328z" fill="#263238"/><path d="M160.62 410.728l-2.887 53.514 19.384 4.683 3.86-52.276-20.357-5.921z" fill="#AA6550"/><path d="M157.157 463.786l-3.3 14.522h22.307l.955-9.454-19.962-5.068z" fill="#1C2E5C"/><path d="M176.618 476.201a15.716 15.716 0 01-3.25.186c-2.008.022-4.781-.032-7.839-.144l-7.827-.333a18.335 18.335 0 01-3.241-.261 15.718 15.718 0 013.25-.176c2.008-.017 4.781.039 7.84.152l7.825.325a18.432 18.432 0 013.242.251z" fill="#263238"/><path d="M167.169 466.617c.17.011.167 2.117-.007 4.7-.174 2.583-.454 4.672-.624 4.661-.17-.011-.168-2.117.007-4.7.175-2.583.456-4.677.624-4.661z" fill="#263238"/><path opacity=".6" d="M153.856 478.307h22.307l.213-2.109-22.117-.551-.4 2.409" fill="#fff"/><path d="M234.221 436.746l4.7 35.457 17.158-1.193-3.602-32.509-18.256-1.755z" fill="#AA6550"/><path d="M256.263 467.161s19.276 6.514 19.6 10.029L239 478.265l-.33-9.638 1.364.271a27.401 27.401 0 0016.229-1.737z" fill="#1C2E5C"/><path opacity=".6" d="M242.979 470.308a1.504 1.504 0 00-.99 1.748 1.448 1.448 0 001.724 1 1.59 1.59 0 001.04-1.857 1.5 1.5 0 00-1.909-.839M238.996 478.265l.015-2.99 35.337.087s1.662.666 1.511 1.828l-36.863 1.075z" fill="#fff"/><path d="M256.855 466.956c0 .181-.9.288-1.768.893-.884.582-1.318 1.375-1.486 1.309-.166-.031.07-1.115 1.135-1.828 1.065-.713 2.153-.54 2.119-.374zM260.768 468.443c.046.173-.725.5-1.314 1.281-.612.762-.742 1.589-.922 1.587-.168.033-.323-1.018.428-1.972s1.799-1.068 1.808-.896zM263.101 473.006c-.163.043-.44-.849-.006-1.848.434-.999 1.264-1.416 1.344-1.268.106.144-.425.689-.768 1.515-.364.818-.393 1.578-.57 1.601z" fill="#263238"/><path d="M256.451 466.864c-.6.181-1.238.196-1.846.044a8.302 8.302 0 01-1.949-.537c-.37-.152-.73-.33-1.077-.531a2.365 2.365 0 01-.57-.418.79.79 0 01-.11-.955.981.981 0 01.776-.435c.236-.01.472.016.7.076a6.504 6.504 0 012.894 1.427c.878.768 1.19 1.432 1.129 1.468-.08.062-.512-.489-1.4-1.118a7.282 7.282 0 00-1.673-.879 6.584 6.584 0 00-1.07-.3c-.393-.092-.725-.085-.82.092-.035.067-.039.094.046.205.125.121.266.223.419.306.321.195.652.371.992.529.579.266 1.182.477 1.8.632.595.088 1.183.22 1.759.394z" fill="#263238"/><path d="M256.224 467.128a2.954 2.954 0 01-.539-1.768 5.981 5.981 0 01.631-3.163 1.518 1.518 0 011.15-.966.856.856 0 01.786.491c.101.213.172.439.21.672.076.41.088.829.037 1.242a4.228 4.228 0 01-.733 1.931c-.692.976-1.437 1.213-1.454 1.152-.063-.088.555-.454 1.079-1.388a4.242 4.242 0 00.533-1.751c.03-.357.008-.716-.065-1.066-.069-.39-.225-.701-.371-.658-.183 0-.486.307-.628.624a6.276 6.276 0 00-.428 1.014 6.729 6.729 0 00-.3 1.853c-.023 1.083.189 1.753.092 1.781z" fill="#263238"/><path d="M174.956 257.26s-13.6 22.73-13.6 36.327L158 459.193l21.5 5.124 16.4-161.836s39.722 162.256 41 162.256c1.278 0 20.834-3.507 20.834-3.507l-29.666-203.241-53.112-.729z" fill="#FDBC5A"/><path d="M183.424 298.032a2.244 2.244 0 01-.041.418c-.044.3-.1.706-.178 1.217l-.74 4.669a1380.35 1380.35 0 00-2.681 17.176 1231.395 1231.395 0 00-7.2 56.888 1233.188 1233.188 0 00-4.475 57.177c-.4 7.328-.686 13.261-.856 17.362l-.221 4.722-.072 1.227a2.247 2.247 0 01-.045.418 2.185 2.185 0 01-.016-.42c0-.307.008-.713.014-1.229l.11-4.726c.1-4.105.32-10.042.668-17.375.688-14.667 2.028-34.918 4.3-57.216 2.272-22.298 5.08-42.39 7.378-56.892 1.146-7.252 2.132-13.111 2.867-17.151l.851-4.651c.1-.506.177-.906.235-1.207.021-.138.055-.275.102-.407zM217.454 300.772c.161-.028 6.72 36.316 14.647 81.168 7.931 44.867 14.227 81.25 14.066 81.279-.161.029-6.718-36.309-14.649-81.176-7.928-44.852-14.225-81.243-14.064-81.271zM195.136 302.2a1.629 1.629 0 01-.224-.412c-.13-.278-.321-.688-.549-1.225a43.382 43.382 0 01-1.6-4.672 47.47 47.47 0 01-1.536-16.166c.107-1.592.324-3.134.57-4.618.271-1.489.649-2.887 1.026-4.212.755-2.651 1.543-5 2.22-6.967a140.087 140.087 0 011.681-4.63l.5-1.244c.049-.15.119-.292.209-.421-.014.157-.051.31-.11.456l-.4 1.276-1.523 4.679c-.631 1.978-1.381 4.336-2.107 6.979-.362 1.321-.728 2.716-.985 4.172-.236 1.466-.448 2.995-.554 4.569a50.148 50.148 0 001.373 16.033c.5 2.01 1.059 3.594 1.429 4.694.235.555.429 1.126.58 1.709zM201.226 274.386c.02.105.03.211.032.318l.048.876.14 3.27c.1 2.841.239 6.795.4 11.521l-.138-.2 8.275 3.372-.228.017 6.72-4.091.437-.265-.124.2 1.394-15.036.227.249-12.373-.116-3.526-.06-.947-.027a1.863 1.863 0 01-.342-.026c.396-.04.794-.058 1.192-.052l3.474-.06 12.522-.116h.25l-.022.252-1.33 15.042-.012.13-.112.069-.437.265-6.728 4.078-.11.067-.118-.049-8.252-3.426-.136-.057v-.144l-.179-11.671-.023-3.222a8.912 8.912 0 01.026-1.108zM170.106 270.014c-.028.374-.076.745-.142 1.114l-.464 3.029-1.723 10.648-.087-.217 6.251 4.636-.218-.041 7.6-2.115.388-.107-.181.178c1.454-4.954 2.819-9.608 4-13.625l.169.286-11.227-2.678-3.2-.789c-.745-.189-1.151-.3-1.165-.319.368.044.733.111 1.093.2l3.172.662 11.426 2.482.237.052-.068.235-3.937 13.643-.04.14-.14.039-.388.107-7.6 2.1-.12.033-.1-.074-6.217-4.681-.111-.083.024-.134 1.976-10.753.57-2.958c.052-.341.126-.678.222-1.01zM213.532 298.986a85.279 85.279 0 01-9.146 2.253 85.35 85.35 0 01-9.259 1.744 85.255 85.255 0 019.148-2.253 86.045 86.045 0 019.257-1.744z" fill="#455A64"/><path d="M186.8 299.7a8.313 8.313 0 01-2.347 0 38.82 38.82 0 01-5.591-.877 37.867 37.867 0 01-5.414-1.653 8.414 8.414 0 01-2.11-1.026c.763.163 1.51.391 2.235.68a63.852 63.852 0 005.406 1.491c2.137.486 4.091.821 5.514 1.019a14.28 14.28 0 012.307.366z" fill="#455A64"/><path d="M184.416 127.187c.742 2.141-1.795 3.965-4 4.471-2.205.506-4.885.824-5.9 2.852-.877 1.758.012 3.992-.786 5.787-1.52 3.417-7.657 2.7-8.86 6.244-.826 2.429 1.456 4.935 1.17 7.485-.246 2.2-2.258 3.692-4.023 5.022-1.765 1.33-3.621 3.165-3.343 5.358.322 2.533 3.413 4.286 3.13 6.824-.279 2.5-3.647 3.662-4.132 6.127-.575 2.925 3.088 4.806 4.265 7.545.9 2.093.344 4.788 1.863 6.485 1.557 1.739 4.319 1.4 6.6.914l22.764-4.826c-1.539-3.6-.091-7.809 2.1-11.05 2.191-3.241 5.116-5.977 7-9.406 1.884-3.429 2.5-8.019.036-11.056M224.449 145.389a23.524 23.524 0 00-.745-3.6 3.626 3.626 0 00-.911-1.477c-.449-.427-1.034-.157-1.4.458a11.116 11.116 0 000 9.228c.371.614.956.884 1.4.457.419-.411.732-.918.911-1.477a23.4 23.4 0 00.745-3.594c.087.326.114.665.078 1a9.622 9.622 0 01-.428 2.727 3.893 3.893 0 01-.992 1.717 1.228 1.228 0 01-1.21.283 1.986 1.986 0 01-.962-.815 11.16 11.16 0 010-9.835c.224-.368.562-.654.962-.815a1.22 1.22 0 011.21.283c.473.478.815 1.069.992 1.717.273.884.417 1.803.428 2.727a2.76 2.76 0 01-.078 1.016z" fill="#263238"/><path d="M187.311 166.353c-4.118-6.959-5.3-16.228-6.339-24.247-.49-3.774-1.352-9.147 1.3-11.508 2.843-2.529 3.116-6.428 6.383-8.379 3.267-1.951 7.7-2.113 10.778.12" fill="#263238"/><path d="M198.721 191.001a11.165 11.165 0 0012.043-10.672c.252-6.077.473-12.221.473-12.221s9.213-.836 9.908-9.95c.695-9.114.455-30.157.455-30.157a31.76 31.76 0 00-32.107 1.97l.475 32.083-.051 17.26c.04 5.787 3.033 11.229 8.804 11.687z" fill="#AA6550"/><path d="M212.092 147c-1.566-1.953-4.121-2.736-6.224-1.378a5.303 5.303 0 00-1.785 6.62 6.975 6.975 0 004.462 3.394 3.503 3.503 0 012.73 3.777c-.269 2.287-4.078 3.136-5.8 5.024-2.68 2.938-8.548 4.168-12.5 4.623-3.884.448-3.415.487-5.664-2.711a12.235 12.235 0 01-2.2-7.407l-.358-20.164a28.864 28.864 0 01.48-7.233 9.717 9.717 0 013.833-5.972c2.222-1.452 5.031-1.569 7.559-2.378 3.16-1.012 5.847-3.1 8.805-4.6 2.958-1.5 6.582-2.395 9.543-.9 2.126 1.074 3.547 3.2 5.613 4.386 2.942 1.685 6.955 1.316 8.374 5.654a7.342 7.342 0 01-.063 4.635c-2.015 5.891-9.326 8.247-14.579 5.683-.107 1 .87 3.224-.191 6.377-.339 1.007-.463 2.544-2.039 2.568" fill="#263238"/><path d="M210.445 152.69c.037.014.036.172-.127.393a1.36 1.36 0 01-1.018.505 2.507 2.507 0 01-2.355-2.523 2.64 2.64 0 01.675-1.926c.381-.413.88-.699 1.43-.818.939-.194 1.479.154 1.44.213-.023.1-.561-.044-1.314.23a2.286 2.286 0 00-1.58 2.272 2.124 2.124 0 001.709 2.092c.763.047 1.073-.496 1.14-.438z" fill="#995037"/><path d="M224.472 144.952a33.356 33.356 0 01-6.133 1.3 33.28 33.28 0 01-6.229.719 33.374 33.374 0 016.133-1.3 33.382 33.382 0 016.229-.719zM188.043 175.247a2.65 2.65 0 003.168 1.271 7.563 7.563 0 003.062-2.077 8.038 8.038 0 013.036-2.122c2.432-.739 5.408.884 7.453-.625 1.862-1.374 1.619-4.483 3.447-5.9.97-.753 2.324-.85 3.312-1.58 1.847-1.365 1.542-4.415-.01-6.109s-3.889-2.38-6.1-2.993l-19.591 8.348 2.223 11.787z" fill="#263238"/><path d="M211.314 139.85c.005.009-.05.049-.163.12-.167.106-.34.203-.518.289-.684.336-1.404.596-2.145.775a24.88 24.88 0 01-3.558.565 35.751 35.751 0 00-4.675.646 8.798 8.798 0 00-4.837 2.642c-1.323 1.533-1.816 3.739-2.838 5.87a7.604 7.604 0 01-2.28 2.871 11.946 11.946 0 01-3.411 1.681c-2.407.806-5.056 1.291-7.061 2.991a5.059 5.059 0 00-1.808 3.2 22.12 22.12 0 000 3.8 6.232 6.232 0 01-3.372 6.305c-2.049 1.206-4.2 1.845-5.91 2.938a6.91 6.91 0 00-2.108 1.945 5.128 5.128 0 00-.8 2.495c.004 1.565.218 3.124.637 4.633a12.08 12.08 0 01.327 3.6 5.094 5.094 0 01-.653 2.19 2.575 2.575 0 01-.495.625c.564-.84.882-1.821.918-2.831a12.363 12.363 0 00-.42-3.509 17.293 17.293 0 01-.732-4.732c.037-.963.324-1.9.833-2.717a7.348 7.348 0 012.23-2.113c1.78-1.154 3.934-1.815 5.89-2.99a5.697 5.697 0 003.075-5.823 22.37 22.37 0 010-3.908c.2-1.398.916-2.67 2.006-3.566 2.172-1.83 4.916-2.3 7.261-3.091a11.452 11.452 0 003.255-1.583 7.079 7.079 0 002.132-2.661c1-2.034 1.517-4.3 2.953-5.947a9.195 9.195 0 015.118-2.732 34.303 34.303 0 014.738-.567 26.955 26.955 0 003.536-.46 15.986 15.986 0 002.875-.951z" fill="#455A64"/><path d="M206.036 143.116c0 .064-.7 0-1.907.274a8.671 8.671 0 00-4.393 2.625 7.938 7.938 0 00-1.749 3.061 13.769 13.769 0 00-.358 4.091 10.69 10.69 0 01-.677 4.678 4.756 4.756 0 01-1.71 1.924c-.727.449-1.481.853-2.259 1.208-.737.324-1.4.795-1.948 1.384a3.51 3.51 0 00-.765 2.1c-.107 1.52.225 3.215-.524 4.67a7.68 7.68 0 01-3.047 3.021c-1.15.684-2.265 1.188-3.211 1.759a7.955 7.955 0 00-2.259 1.871 5.136 5.136 0 00-.973 1.972 4.59 4.59 0 00.034 1.889 1.148 1.148 0 01-.2-.468 3.437 3.437 0 01-.06-1.466c.147-.77.467-1.498.935-2.127a8.073 8.073 0 012.3-2.028c.957-.608 2.072-1.14 3.172-1.82a7.277 7.277 0 002.813-2.839c.65-1.262.345-2.821.437-4.477a4.08 4.08 0 01.891-2.431 6.425 6.425 0 012.133-1.537c1.539-.744 3.082-1.433 3.716-2.859.537-1.409.76-2.918.653-4.422a13.961 13.961 0 01.433-4.235 8.283 8.283 0 011.912-3.2 8.579 8.579 0 014.653-2.566 6.092 6.092 0 011.451-.109c.171-.008.342.011.507.057z" fill="#455A64"/><path d="M213.473 176.624l-2.37-4.878-20.593-.777-3.232 6.334h25.86" fill="#1C2E5C"/><path d="M284.246 220.665c-.148-.74 5.448-29.815 6.99-37.8a1.682 1.682 0 00-.356-1.396 1.698 1.698 0 00-1.304-.614h-41.229a1.689 1.689 0 00-1.645 1.3l-8.443 35.592-20.808 1.553.731 1.365h66.064z" fill="#455A64"/><path d="M282.442 218.085l6.671-35.25-40.529.245-8.9 35.055 42.758-.05z" fill="#EBEBEB"/><path d="M239.649 218.161l.007-.031 8.907-35.073h.019l40.56-.246-.006.031-6.674 35.269h-.021l-42.792.05zm8.951-35.06l-8.889 35.006 42.707-.051 6.662-35.2-40.48.245z" fill="#263238"/><path d="M282.4 218.33c0 .144-11.86.26-26.486.26-14.626 0-26.488-.116-26.488-.26 0-.144 11.857-.26 26.488-.26s26.486.116 26.486.26z" fill="#263238"/><path d="M279.605 209.43a2.006 2.006 0 01-.53.053l-1.518.049-5.586.082c-4.717.048-11.232.077-18.429.077l-5.914-.007h-.328l.081-.316 3.606-13.952c.455-1.679.825-3.048 1.1-4.071.115-.496.268-.983.457-1.456a9.925 9.925 0 01-.287 1.5l-.957 4.108-3.43 14-.246-.315 5.914-.007c7.2 0 13.712.029 18.429.076l5.586.083 1.518.049c.18-.007.359.008.534.047z" fill="#455A64"/><path d="M250.247 208.092l.758-3.4h5.216l-.667 3.4h-5.307zM257.34 208.092l1.575-6.691h5.216l-1.484 6.691h-5.307zM264.432 208.092l.758-3.4h5.216l-.667 3.4h-5.307zM271.525 208.092l2.987-13h5.216l-2.9 13h-5.303z" fill="#1C2E5C"/><path d="M254.338 211.892a8.644 8.644 0 01-4.21-.04 8.62 8.62 0 014.21.04zM261.214 211.881a8.66 8.66 0 01-4.211-.04 8.648 8.648 0 014.211.04zM268.09 211.87a8.648 8.648 0 01-4.211-.04 8.66 8.66 0 014.211.04zM274.965 211.859a8.644 8.644 0 01-4.21-.04 8.643 8.643 0 014.21.04zM264.855 188.359c-1.934.26-3.887.348-5.837.261a32.829 32.829 0 01-5.837-.261 33.017 33.017 0 015.837-.26c1.95-.086 3.903.001 5.837.26zM258.717 186.915a12.956 12.956 0 01-5.175 0 13.03 13.03 0 015.175 0z" fill="#455A64"/><path d="M247.536 242.101l23.86-17.271-.887-1.444a11.51 11.51 0 00-5.577-4.679l-3.731.67-22.121 3.37 8.456 19.354zM162.714 238.132l19.822-7.877-4.425-16.419-16.156 5.492.759 18.804z" fill="#1C2E5C"/><path d="M246.711 242.565c4.94-2.454 6.209-8.347 3.8-13.307l-20.54-43.9a7.91 7.91 0 00-2.066-2.833 23.228 23.228 0 00-16.99-5.818l-21.422-.562s-16.826 0-23.14 13.263c-.462.97-10.243 20.37-16.691 33.153a11.056 11.056 0 006.064 15.361 11.059 11.059 0 0013.9-5.855l7.006-15.619 4.411 22.373-6.35 18.437 53.112.729-4.084-24.664-1.289-17.586 10.768 22.215a10.035 10.035 0 009.702 5.64 10.04 10.04 0 003.807-1.027h.002z" fill="#1C2E5C"/><path opacity=".2" d="M182.834 238.395c4.021 3.01 9.943 2.007 14.9 1.183a21.512 21.512 0 0012.975-7.028 8.723 8.723 0 002.409-6.133c-.2-2.247-2.183-4.415-4.422-4.146-2.566.309-3.8 3.186-5.039 5.456a19.897 19.897 0 01-20.736 9.738s-.803.395-.087.93zM215.629 203.831c1.252 10.1.692 9.335 2.8 19.3 1.037 4.9 2.3 10.012 5.675 13.707l-1.673-21.094-6.802-11.913z" fill="#000"/><path d="M174.691 257.26l-1.522-4.434 3.957-2.636 48.72-4.018 3.436 6.454-1.479 5.362-53.112-.728z" fill="#1C2E5C"/><path d="M184.751 173.668a7.27 7.27 0 00-3.385 10.847c.517.554.843 1.259.929 2.012-.094 1.8-3 1.848-3.918 3.4a2.793 2.793 0 00.779 3.255 22.136 22.136 0 003 2 3.651 3.651 0 011.84 2.929c1.017-.028 1.617-1.259 1.462-2.264a9.88 9.88 0 00-1.249-2.765 2.896 2.896 0 01-.126-2.9c.665-.946 2.019-.985 3.1-1.4a4.32 4.32 0 002.288-5.561c-.653-1.462-2.175-2.94-1.434-4.36.413-.791 1.362-1.095 2.143-1.527a5.572 5.572 0 002.404-7.136 5.588 5.588 0 00-1.68-2.15M176.5 218.591a13.003 13.003 0 01-1.08 2.494 87.986 87.986 0 01-3.124 5.761 85.282 85.282 0 01-3.551 5.51 13.084 13.084 0 01-1.668 2.147c.383-.822.838-1.609 1.361-2.35.884-1.42 2.11-3.378 3.41-5.572 1.3-2.194 2.426-4.209 3.246-5.668.399-.814.869-1.591 1.406-2.322z" fill="#263238"/><path d="M171.825 227.018a8.505 8.505 0 01-2.2 6.862c-.128-.089.77-1.455 1.365-3.346.616-1.884.679-3.518.835-3.516zM249.639 227.678c-.13.061-4.285-8.634-9.278-19.417-4.993-10.783-8.938-19.579-8.807-19.639.131-.06 4.284 8.633 9.279 19.42 4.995 10.787 8.937 19.576 8.806 19.636zM224.337 182.836c.031.082-.9.41-2.219 1.234a13.812 13.812 0 00-6.439 9.809c-.23 1.542-.162 2.522-.25 2.527a6.569 6.569 0 01-.115-2.571 12.874 12.874 0 016.618-10.082 6.547 6.547 0 012.405-.917zM180.978 239.041c-.141.032-2.53-10.145-5.336-22.728-2.806-12.583-4.967-22.812-4.827-22.843.14-.031 2.529 10.143 5.336 22.73 2.807 12.587 4.967 22.81 4.827 22.841z" fill="#263238"/><path d="M271.4 224.832l9.684-4.166h-12.9l2.816 3.652" fill="#AA6550"/><path d="M251.5 225.908a16.752 16.752 0 01-2.349-2.208 16.99 16.99 0 01-2.276-2.283 11.333 11.333 0 014.625 4.491zM233.645 238.768a9.307 9.307 0 01-.815-1.346c-.5-.882-1.189-2.172-2.029-3.774-1.682-3.2-3.917-7.676-6.364-12.621s-4.69-9.406-6.353-12.616l-1.969-3.8a9.161 9.161 0 01-.674-1.423c.321.416.606.859.851 1.324.521.868 1.244 2.142 2.117 3.727 1.748 3.169 4.046 7.611 6.5 12.559l6.225 12.684 1.881 3.847c.251.46.462.942.63 1.439zM214.5 225.185c.017 0 .012.122-.015.349-.034.331-.09.66-.167.985-.274 1.2-.72 2.356-1.323 3.43a19.434 19.434 0 01-8.966 7.958 39.125 39.125 0 01-11.709 2.923 79.844 79.844 0 01-3.639.33 6.763 6.763 0 01-1.342.035 6.526 6.526 0 011.321-.236l3.613-.495a42.611 42.611 0 0011.539-3.03 19.874 19.874 0 008.863-7.667 19.214 19.214 0 001.825-4.582zM203.817 250.947c.01.144-6.579.722-14.714 1.293-8.135.571-14.742.917-14.752.773-.01-.144 6.577-.722 14.715-1.293s14.741-.92 14.751-.773zM212.312 247a24.082 24.082 0 011.062 10.086c-.151 0-.215-2.27-.512-5.045-.297-2.775-.697-5.01-.55-5.041zM215.728 243.818c.252.644.402 1.323.442 2.012a25.486 25.486 0 01-.691 9.872 6.53 6.53 0 01-.718 1.931c-.157-.045.774-3.043 1.028-6.87.282-3.823-.223-6.922-.061-6.945zM213.526 176.972c-.008.144-4.766-.006-10.625-.336s-10.6-.713-10.6-.856c0-.143 4.765.007 10.626.336s10.607.713 10.599.856z" fill="#263238"/><path d="M678.635 195.1l-4.235-7.223-4.021 7.223h-57.014v29.808h88.781V195.1h-23.511z" fill="#1C2E5C"/><path d="M629.332 210.264a4.377 4.377 0 002.64-4.023 4.118 4.118 0 00-1.055-3.101 4.1 4.1 0 00-2.987-1.344 4.102 4.102 0 00-3.908 2.683 4.104 4.104 0 00-.25 1.654 4.363 4.363 0 002.578 4.106c-6.319.9-6.091 7.759-6.091 7.759l14.924.2s.397-6.936-5.851-7.934zM692.016 203.935c0 .084-11.331.152-25.306.152-13.975 0-25.309-.068-25.309-.152 0-.084 11.329-.153 25.309-.153s25.306.068 25.306.153zM692.016 208.479c0 .085-11.331.153-25.306.153-13.975 0-25.309-.068-25.309-.153 0-.085 11.329-.152 25.309-.152s25.306.073 25.306.152zM692.016 213.024c0 .085-11.331.153-25.306.153-13.975 0-25.309-.068-25.309-.153 0-.085 11.329-.152 25.309-.152s25.306.068 25.306.152zM666.709 217.523c0 .084-5.666.153-12.653.153s-12.655-.069-12.655-.153c0-.084 5.665-.153 12.655-.153 6.99 0 12.653.069 12.653.153z" fill="#FAFAFA"/><path d="M120.8 194.81c1.389.175 2.748.533 4.042 1.067l2.971-2.489 5.1 3.884-1.608 3.527a15.692 15.692 0 012.106 3.611l3.86.341.862 6.354-3.629 1.357a15.677 15.677 0 01-1.068 4.042l2.489 2.972-3.883 5.1-3.527-1.607a15.752 15.752 0 01-3.612 2.105l-.34 3.86-6.355.863-1.357-3.63a15.718 15.718 0 01-4.042-1.068l-2.971 2.49-5.1-3.884 1.608-3.527a15.792 15.792 0 01-2.106-3.612l-3.859-.34-.863-6.355 3.63-1.356a15.645 15.645 0 011.068-4.043l-2.49-2.971 3.883-5.1 3.528 1.608a15.756 15.756 0 013.612-2.106l.339-3.859 6.355-.862 1.357 3.629v-.001zm-2.609 8.823a6.88 6.88 0 101.856 13.634 6.88 6.88 0 00-1.858-13.634h.002z" fill="#1C2E5C"/><path d="M118.189 203.633c.138-.055.284-.087.433-.093.421-.06.848-.069 1.272-.027a6.843 6.843 0 014.218 1.939 7.088 7.088 0 011.555 7.824 7.083 7.083 0 01-1.59 2.313 7.099 7.099 0 01-8.377 1.137 7.093 7.093 0 01-3.427-4.305 7.071 7.071 0 01.692-5.458 6.84 6.84 0 013.548-2.991 5.352 5.352 0 011.233-.313c.145-.033.295-.042.443-.026.011.059-.6.119-1.6.54a6.858 6.858 0 00-3.288 2.984 6.697 6.697 0 00-.053 6.365 6.562 6.562 0 002.707 2.726 6.592 6.592 0 007.739-1.05 6.558 6.558 0 001.882-3.348 6.694 6.694 0 00-1.747-6.121 6.86 6.86 0 00-3.964-2c-1.065-.142-1.671-.036-1.676-.096z" fill="#1C2E5C"/><path d="M120.8 194.81a1.009 1.009 0 01-.1-.216l-.277-.678-1.061-2.7.1.057-6.348.913.122-.127c-.1 1.172-.2 2.471-.318 3.862l-.008.1-.092.039a15.612 15.612 0 00-3.562 2.1l-.087.068-.1-.046-3.534-1.593.239-.061-3.866 5.115-.007-.272 2.5 2.964.09.106-.053.129a15.525 15.525 0 00-1.043 3.984l-.017.144-.137.051L99.6 210.1l.159-.265.873 6.353-.233-.223 3.859.335.159.014.062.148a15.596 15.596 0 002.074 3.548l.1.128-.067.148-1.606 3.529-.082-.329 5.1 3.88-.344.009 2.97-2.491.129-.108.155.064c1.27.524 2.604.876 3.967 1.048l.227.179v.008l.005.014.011.028.021.057.043.115.085.228.17.457.341.91.675 1.809-.3-.177 6.356-.86-.237.248.342-3.86.015-.164.152-.063a15.464 15.464 0 003.552-2.067l.129-.1.147.068 3.526 1.611-.321.081 3.891-5.1.007.319-2.484-2.976-.1-.116.058-.139c.528-1.273.884-2.61 1.059-3.977l.019-.145.136-.05 3.632-1.348-.148.247c-.3-2.236-.577-4.347-.843-6.357l.191.183-3.858-.353-.121-.011-.046-.111a15.544 15.544 0 00-2.066-3.576l-.068-.089.046-.1 1.624-3.519.05.2-5.079-3.915h.156l-2.994 2.463-.042.035-.049-.021a16.612 16.612 0 00-2.993-.942l-.763-.151a1.083 1.083 0 01-.252-.057c.086-.004.173 0 .259.011.171.018.43.048.773.107 1.042.181 2.063.471 3.044.867l-.091.014 2.948-2.517.075-.064.08.061 5.127 3.852.1.078-.054.121-1.591 3.534-.022-.187a15.847 15.847 0 012.146 3.647l-.166-.122 3.861.327.169.014.023.169.88 6.352.025.183-.173.065-3.626 1.365.154-.195a15.95 15.95 0 01-1.076 4.107l-.039-.254 2.494 2.966.132.156-.124.163-3.876 5.108-.128.169-.193-.088-3.529-1.6.277-.032a15.996 15.996 0 01-3.673 2.145l.167-.228-.337 3.86-.019.219-.218.03-6.355.864-.219.03-.078-.207-.676-1.81-.341-.91-.17-.456-.086-.229-.042-.114-.022-.057-.01-.029-.006-.014v-.007l.225.178a16.014 16.014 0 01-4.109-1.086l.283-.044-2.972 2.489-.169.141-.175-.133-5.1-3.887-.173-.132.09-.2 1.612-3.525.032.276A16.09 16.09 0 01104 216.67l.22.161-3.859-.345-.206-.019-.027-.2c-.3-2.207-.584-4.36-.852-6.357l-.026-.2.185-.069 3.632-1.348-.154.194c.18-1.409.548-2.788 1.094-4.1l.036.235-2.482-2.978-.112-.135.106-.138 3.9-5.09.1-.127.143.066 3.521 1.622-.187.022a15.893 15.893 0 013.661-2.112l-.1.136.362-3.857.011-.113.111-.015 6.361-.81.072-.009.023.066.961 2.7.241.706c.029.082.051.168.065.254z" fill="#1C2E5C"/><path d="M107.361 243.232a.849.849 0 01.272-.058c.265-.038.533-.044.8-.017a4.3 4.3 0 012.649 1.217 4.446 4.446 0 01-.022 6.367 4.456 4.456 0 01-5.261.714 4.454 4.454 0 01-2.153-2.703 4.44 4.44 0 01.435-3.428 4.299 4.299 0 012.229-1.879 3.29 3.29 0 01.774-.2.838.838 0 01.278-.017c.007.037-.378.075-1 .339a4.296 4.296 0 00-2.064 1.875 4.197 4.197 0 00-.034 4 4.12 4.12 0 001.7 1.712 4.141 4.141 0 004.861-.66 4.127 4.127 0 001.182-2.1 4.206 4.206 0 00-1.1-3.843 4.3 4.3 0 00-2.489-1.257c-.672-.094-1.054-.024-1.057-.062z" fill="#263238"/><path d="M109 237.691a.63.63 0 01-.065-.136l-.173-.425c-.159-.4-.382-.967-.667-1.7l.06.036-3.987.574.077-.08-.2 2.425v.061l-.058.025a9.777 9.777 0 00-2.237 1.318l-.054.043-.064-.029-2.219-1 .15-.038-2.428 3.212v-.171l1.569 1.862.056.066-.034.082a9.725 9.725 0 00-.654 2.5l-.011.09-.086.032-2.277.857.1-.167.549 3.99-.147-.14 2.424.211.1.008.038.093c.333.797.77 1.546 1.3 2.228l.063.081-.042.093-1.008 2.216-.052-.207 3.206 2.437h-.216l1.865-1.564.081-.068.1.041c.797.329 1.635.55 2.491.658l.142.112V257.331l.007.018.013.036.027.072.053.143.107.287.214.571.424 1.137-.186-.112 3.991-.54-.148.156.214-2.424.01-.1.1-.039a9.692 9.692 0 002.231-1.3l.081-.063.093.043 2.214 1.012-.2.05 2.444-3.2v.2l-1.56-1.869-.061-.073.036-.087c.332-.8.556-1.641.666-2.5l.011-.091.086-.032 2.281-.846-.093.155-.53-3.992.121.115-2.423-.222-.076-.007-.029-.07a9.81 9.81 0 00-1.3-2.246l-.042-.055.028-.063c.371-.8.7-1.526 1.021-2.21l.031.125-3.19-2.459h.1l-1.88 1.546-.027.022-.031-.013a10.377 10.377 0 00-1.879-.591l-.479-.1a.614.614 0 01-.158-.036.88.88 0 01.162.007c.108.011.27.03.486.067a9.41 9.41 0 011.911.544l-.057.009 1.851-1.58.048-.04.05.038 3.22 2.419.065.049-.034.076-1 2.219-.014-.117a9.99 9.99 0 011.348 2.29l-.1-.076 2.424.205.106.009.015.106.553 3.989.015.115-.108.041-2.278.857.1-.122a9.973 9.973 0 01-.676 2.579l-.024-.16 1.567 1.863.082.1-.078.1-2.434 3.208-.08.105-.121-.055-2.216-1.007.173-.02a10.09 10.09 0 01-2.306 1.347l.1-.143c-.067.8-.137 1.608-.211 2.424l-.012.137-.137.019-3.991.543-.138.019-.049-.13-.425-1.137-.213-.571-.107-.287-.054-.144-.027-.071-.013-.036-.007-.018v-.009l.141.112a10.069 10.069 0 01-2.581-.682l.178-.028-1.867 1.563-.106.089-.11-.084-3.2-2.441-.109-.083.056-.124 1.013-2.214.02.173c-.548-.706-1-1.482-1.342-2.308l.138.1-2.423-.217-.13-.012-.017-.128-.535-3.992-.016-.124.116-.043 2.281-.847-.1.123c.113-.886.344-1.752.687-2.576l.023.148-1.559-1.87-.07-.085.066-.087 2.449-3.2.061-.08.09.042 2.211 1.018-.118.014a9.94 9.94 0 012.3-1.326l-.063.085.227-2.422.007-.072.07-.009 4-.508.045-.006.014.041.6 1.7.151.443a.958.958 0 01.032.168z" fill="#263238"/><path d="M226.389 86.995c11.509-3.427 18.061-15.535 14.635-27.044-3.427-11.509-15.535-18.061-27.044-14.635-11.509 3.427-18.061 15.535-14.634 27.044 3.426 11.509 15.534 18.061 27.043 14.635z" fill="#F5F5F5"/><path d="M198.488 64.731c.019.117.026.236.021.354 0 .26.005.6.01 1.034v.76c.013.28.055.583.084.913.05.761.155 1.517.314 2.263a20.767 20.767 0 002.038 5.892 21.544 21.544 0 0025.217 10.845 19.772 19.772 0 005.619-2.567 19.681 19.681 0 004.832-4.259 20.796 20.796 0 003.452-5.707 21.29 21.29 0 00.89-13.532 20.796 20.796 0 00-2.676-6.112 19.666 19.666 0 00-4.234-4.855 19.773 19.773 0 00-5.236-3.28 21.6 21.6 0 00-26.42 7.455 20.763 20.763 0 00-2.79 5.574 15.811 15.811 0 00-.607 2.2c-.072.324-.153.62-.2.9-.047.28-.07.526-.1.754l-.145 1.023a1.792 1.792 0 01-.067.348 1.727 1.727 0 01.015-.352c.024-.259.055-.6.1-1.032l.076-.762c.041-.278.115-.577.179-.9.133-.757.323-1.503.567-2.232a20.606 20.606 0 012.744-5.675 21.907 21.907 0 0115.389-9.4c3.9-.474 7.855.106 11.455 1.678a20.15 20.15 0 015.362 3.34 20.088 20.088 0 014.341 4.958 21.225 21.225 0 012.746 6.252 21.76 21.76 0 01-.911 13.853 21.264 21.264 0 01-3.54 5.838 20.119 20.119 0 01-4.951 4.347 20.263 20.263 0 01-5.752 2.61 21.988 21.988 0 01-11.574.164A21.895 21.895 0 01200.7 76.077a20.608 20.608 0 01-1.979-5.986 15.42 15.42 0 01-.27-2.287c-.021-.333-.054-.64-.059-.92l.024-.766.041-1.036a1.797 1.797 0 01.031-.35z" fill="#263238"/><path d="M230.057 66.825a4.425 4.425 0 01-.768.05l-2.113.043c-1.794.025-4.292.042-7.112.046h-.14v-.139-1.41c0-3.15.016-6 .041-8.065l.045-2.444a5.53 5.53 0 01.055-.9c.043.298.061.6.054.9l.045 2.444c.025 2.064.041 4.915.041 8.065v1.41l-.139-.14c2.82 0 5.318.021 7.112.046l2.113.043c.257-.006.513.011.766.051zM220.13 47.984c.14.598.187 1.214.141 1.826a6.035 6.035 0 01-.141 1.827 6.1 6.1 0 01-.14-1.827 6.092 6.092 0 01.14-1.826zM230.037 50.917a5.86 5.86 0 01-1.173 1.373c-.394.46-.857.855-1.373 1.173a5.927 5.927 0 011.174-1.372c.395-.46.857-.855 1.372-1.174zM235.83 57.245a7.539 7.539 0 01-1.5 1 7.589 7.589 0 01-1.578.87 8.016 8.016 0 013.076-1.87h.002zM239.225 66.636a22.218 22.218 0 01-4.981 0 22.066 22.066 0 014.981 0zM204.689 66.3a19.832 19.832 0 01-4.705 0 19.706 19.706 0 014.705 0zM207.131 73.295a10.255 10.255 0 01-1.777 1.612A10.343 10.343 0 01203.4 76.3a20.376 20.376 0 013.731-3.006v.001zM213.157 78.7c-.35.73-.754 1.432-1.21 2.1a15.948 15.948 0 01-1.284 2.052 12.427 12.427 0 012.494-4.149V78.7zM220.13 85.675a11.223 11.223 0 01-.14-2.49c-.046-.833.001-1.668.14-2.49.141.822.188 1.657.141 2.49.047.833 0 1.668-.141 2.49zM230.866 82.357a10.741 10.741 0 01-3.727-3.249c.649.51 1.27 1.054 1.861 1.63a22.824 22.824 0 011.866 1.62zM235.9 76.93a8.656 8.656 0 01-1.649-1.45 8.691 8.691 0 01-1.45-1.649 17.114 17.114 0 013.1 3.1h-.001zM206.9 59.607a6.678 6.678 0 01-1.455-1.257 6.662 6.662 0 01-1.255-1.45 6.637 6.637 0 011.456 1.256c.486.42.908.91 1.254 1.451zM213.12 53.057a6.435 6.435 0 01-1.43-1.226 6.375 6.375 0 01-1.232-1.425 6.4 6.4 0 011.43 1.226c.479.412.894.892 1.232 1.425zM310.415 348.863a4.827 4.827 0 01-.849.056l-2.434.053-8.953.088-29.536.082h-2.385v-.278l.086-28.13.087-8.452.051-2.291a4.382 4.382 0 01.055-.8c.041.265.059.533.054.8l.051 2.291.087 8.452.086 28.13-.278-.278h2.105l29.536.082 8.953.089 2.434.052c.284-.006.569.012.85.054z" fill="#263238"/><path d="M305.54 318.818c-.402.451-.84.869-1.309 1.25l-3.7 3.252a1407.05 1407.05 0 01-12.357 10.569l-.734.621-.189.159-.18-.167-5.5-5.108.343.008-8.072 6.658-2.342 1.873a5.09 5.09 0 01-.875.626 5.11 5.11 0 01.766-.755l2.247-1.986 7.942-6.812.173-.148.17.156 5.522 5.079-.369-.008.734-.622c4.846-4.1 9.254-7.793 12.463-10.444l3.818-3.117c.453-.4.937-.762 1.449-1.084z" fill="#263238"/><path d="M305.54 328.01a13.797 13.797 0 01-.193-2.738c-.05-1.7-.082-4.048-.085-6.67l.278.279h-.474c-2.73 0-5.2-.031-6.989-.082a14.842 14.842 0 01-2.894-.2 15.16 15.16 0 012.894-.2c1.789-.05 4.259-.081 6.989-.081h.753v.278c0 2.622-.035 4.974-.086 6.67.027.919-.038 1.838-.193 2.744z" fill="#263238"/></svg>