<svg width="701" height="433" fill="none" xmlns="http://www.w3.org/2000/svg"><path d="M179.903 46.602h-46.076V.528h46.076v46.074zm-45.076-1h44.076V1.528h-44.076v44.074z" fill="#E0E0E0"/><path d="M179.403 1.028c.1.1-9.908 10.275-22.353 22.72-12.445 12.445-22.621 22.457-22.723 22.355-.102-.102 9.9-10.273 22.355-22.723S179.301.928 179.403 1.028z" fill="#E0E0E0"/><path d="M177.068 46.391a2.84 2.84 0 01-.4-.47c-.279-.368-.636-.834-1.075-1.41-.919-1.234-2.267-3-3.957-5.174a261.994 261.994 0 00-13.883-16.384 256.814 256.814 0 00-15.224-15.152 314.902 314.902 0 00-4.842-4.357l-1.318-1.184a2.768 2.768 0 01-.437-.44c.18.1.347.221.5.36l1.382 1.11c1.2.967 2.894 2.413 4.956 4.238 4.127 3.647 9.653 8.894 15.361 15.071s10.487 12.11 13.793 16.514c1.654 2.2 2.959 4.008 3.828 5.28l1 1.466c.125.165.231.343.316.532zM682.148 170.828h-46.08v-46.075h46.08v46.075zm-45.08-1h44.08v-44.075h-44.08v44.075z" fill="#E0E0E0"/><path d="M681.648 125.253c.1.1-9.907 10.276-22.352 22.721s-22.622 22.454-22.723 22.354c-.101-.1 9.9-10.274 22.354-22.723 12.454-12.449 22.619-22.453 22.721-22.352z" fill="#E0E0E0"/><path d="M679.309 170.617a2.763 2.763 0 01-.4-.471l-1.075-1.409a322.35 322.35 0 00-3.957-5.174 262.291 262.291 0 00-13.884-16.384 257.017 257.017 0 00-15.225-15.151 322.261 322.261 0 00-4.841-4.358l-1.319-1.184a2.841 2.841 0 01-.437-.44c.181.101.35.221.505.36l1.382 1.11c1.2.968 2.9 2.413 4.957 4.238 4.126 3.647 9.652 8.894 15.36 15.072 5.708 6.178 10.488 12.108 13.793 16.513 1.655 2.2 2.96 4.008 3.829 5.28l1 1.467c.124.165.228.343.312.531zM52.813 241.557H6.738v-46.074h46.075v46.074zm-45.075-1h44.075v-44.074H7.738v44.074z" fill="#E0E0E0"/><path d="M52.313 195.983c.1.1-9.907 10.275-22.352 22.72C17.516 231.148 7.34 241.16 7.238 241.058c-.1-.102 9.905-10.273 22.354-22.723 12.45-12.45 22.62-22.454 22.721-22.352z" fill="#E0E0E0"/><path d="M49.975 241.347c-.15-.142-.285-.3-.4-.471l-1.075-1.409a321.587 321.587 0 00-3.957-5.175 262.021 262.021 0 00-13.884-16.383 256.704 256.704 0 00-15.228-15.152 315.72 315.72 0 00-4.84-4.357l-1.323-1.184a2.894 2.894 0 01-.437-.441c.181.101.35.222.505.36l1.382 1.11c1.2.968 2.9 2.414 4.957 4.239 4.126 3.647 9.652 8.894 15.36 15.071s10.488 12.108 13.793 16.513c1.655 2.2 2.96 4.009 3.83 5.28l1 1.467c.124.165.23.343.317.532zM609.218 332.064a34.24 34.24 0 00-14.654-5.044c-2.394-.246-5.01-.176-6.931 1.274a1.417 1.417 0 00-.713 1.266c.112.362.353.67.677.866 5.962 4.548 14.981 5.122 21.621 1.638zM608.842 331.649a71.476 71.476 0 01-9.464-8.327 23.928 23.928 0 01-5.934-10.974 4.421 4.421 0 01.469-3.672c7.544 5.892 13.47 13.513 14.929 22.973z" fill="#E0E0E0"/><path d="M609.14 332.007a34.194 34.194 0 01.175-12.426 16.8 16.8 0 016.619-10.254c1.3 3.047.743 6.558-.175 9.742a47.378 47.378 0 01-6.563 13.818M616.535 345.258c-4.489.546-8.4 2.912-11.751 5.948a22.227 22.227 0 00-6.722 11.539c4.4-.272 8.139-3.378 10.849-6.86 2.71-3.482 4.586-7.3 7.563-10.559M618.141 347.378a28.98 28.98 0 013.347-27.416c2.558 9.1 1.618 19.374-3.347 27.416zM627.913 359.013a20.956 20.956 0 00-20.039 11.535c-.249.5-.468 1.127-.135 1.571a1.483 1.483 0 001.328.391c3.95-.256 7.45-2.632 10.338-5.338 2.888-2.706 5.405-5.831 8.6-8.171M627.601 358.379a37.325 37.325 0 01-.373-20.848c.735-2.684 1.968-5.509 4.45-6.767a.882.882 0 01.68-.12.898.898 0 01.43.5 12.554 12.554 0 011.049 5.981 37.3 37.3 0 01-.937 6.055c-.781 3.7-1.2 7.678-3.227 10.869a22.317 22.317 0 00-1.29 2.387c-.384.812-.387 1.1-.739 1.742M653.468 362.233c-1.917-7.289.117-16.126 4.711-22.1.338-.44.786-.912 1.339-.861.846.079 1.065 1.206 1.027 2.055a39.94 39.94 0 01-7.077 20.908M655.799 363.828a32.148 32.148 0 0026.381-5.366 21.36 21.36 0 00-14.281-1.752c-4.771 1.091-9.131 3.228-12.1 7.118zM657.768 358.974c4.96-8.087 14.469-13.365 23.944-13.845-1.092 3.853-4.259 6.848-7.832 8.658-3.573 1.81-7.561 2.6-11.493 3.361-1.529.3-3.627.624-4.619 1.826zM653.96 335.422a69.629 69.629 0 003.062-14.022c.368-4.779-.313-9.769-2.793-13.871-4.633 8.966-5.1 19.44-.409 28.374M669.558 327.538c5.418-9.847 16.472-17.712 27.657-18.815-4.315 10.744-16.082 19.046-27.657 18.815zM666.149 329.468c8.08 1.231 14.965 6.392 22.516 9.52a10.082 10.082 0 005.09.975 3.984 3.984 0 002.495-7.049 10.906 10.906 0 00-3.7-2.243c-8.224-3.424-17.044-3.509-25.707-1.433" fill="#E0E0E0"/><path d="M661.473 335.135c1.83.524 2.455 1.471 3.9 2.7a42.105 42.105 0 0017.074 8.771c.652.162 1.508.227 1.831-.363.283-.515-.075-1.138-.441-1.6a23.507 23.507 0 00-10.309-7c-3.941-1.467-7.355-3.236-12.058-2.856M656.197 300.907a32.301 32.301 0 0024.773 8.428c.412.008.813-.134 1.127-.4.624-.678-.124-1.725-.851-2.291-7.283-5.679-16.1-8.033-25.049-5.732" fill="#E0E0E0"/><path d="M662.453 298.617a34.53 34.53 0 0130.912-5.1 24.548 24.548 0 01-14.73 6.467 46.608 46.608 0 01-16.182-1.367zM659.968 282.888c-.715-7.269-.251-13.008-.755-20.312-.041-.583-.166-1.285-.712-1.495-.76-.293-1.394.641-1.643 1.417a23.292 23.292 0 003.1 20.23" fill="#E0E0E0"/><path d="M659.443 283.692a42.763 42.763 0 0012.043-11.7c2.378-3.255 4.383-7.154 3.843-11.148a11.511 11.511 0 00-8.687 4.313 24.246 24.246 0 00-4.428 8.91c-.964 3.2-1.639 6.485-2.771 9.629M671.275 280.405a97.096 97.096 0 0029.635-17.477c-3.54-1.426-7.593-.573-11.132.856a35.101 35.101 0 00-18.658 16.54M662.768 287.669c5.471.6 11.028.987 16.456.08 5.335-.892 10.377-3.006 15.362-5.105a1.797 1.797 0 001.044-.792 1.2 1.2 0 00-.374-1.315 3.199 3.199 0 00-1.31-.614c-5.42-1.515-11.269-.806-16.6.992a77.028 77.028 0 00-14.576 6.754M631.531 301.155c-3.732-7.534-3.49-16.326-.265-24.091 2.269 3.458 2.547 7.862 2.132 11.978-.415 4.116-1.668 8.352-1.75 12.488M616.621 293.635a33.604 33.604 0 00-24.969 10.636 23.325 23.325 0 0013.672-2.534 69.61 69.61 0 0011.717-7.842M606.596 290.282c-4.559-.369-8.946-.934-13.329.409a15.986 15.986 0 00-10.159 8.614c4.303.348 8.62-.466 12.5-2.359a71.846 71.846 0 0010.992-6.664M621.439 290.436c-4.1-2.688-8.313-5.424-13.088-6.537-4.775-1.113-10.309-.291-13.639 3.308 3.865 2.269 8.555 2.537 13.037 2.533 4.482-.004 9.977-.054 14.2 1.441" fill="#E0E0E0"/><path d="M621.468 290.652c-7.011-6.885-9.669-19.253-6.848-28.666a43.68 43.68 0 016.848 28.666zM640.743 271.145c1.322-3.074 2.252-6.3 3.438-9.43a27.118 27.118 0 014.9-8.693 12.904 12.904 0 018.684-4.5 34.974 34.974 0 01-16.854 22.672M637.254 275.209c-2.188-3.011-4.717-7.1-7.684-9.348-2.967-2.248-6.832-3.609-10.453-2.745a24.35 24.35 0 0018.137 12.093zM637.952 271.395a51.955 51.955 0 01-3.459-11.2c-.72-3.885-.102-7.9 1.753-11.39 3.849 7.276 5.089 15.085 1.9 22.674M640.778 248.804c2.18-7.212 8.784-12.522 15.914-14.959a5.942 5.942 0 012.79-.418 2.418 2.418 0 012.056 1.716c.261 1.227-.753 2.326-1.706 3.141a54.153 54.153 0 01-19.054 10.52zM640.857 242.906c.277-4.65.567-9.368 2.08-13.774 1.513-4.406 4.427-8.539 8.668-10.467.721 4.7-1.351 9.369-3.85 13.41s-5.511 7.856-7.012 12.365M640.743 246.107c-1.8-5.256-1.988-11.933-5.136-16.512-2.2-3.2-5.723-5.381-7.619-8.771a13.344 13.344 0 00.443 9.957 28.845 28.845 0 005.823 8.336c2.329 2.487 4.323 4.359 6.489 6.99z" fill="#E0E0E0"/><path d="M640.778 400.896c-.14 0-.261-35.063-.271-78.306-.01-43.243.1-78.315.236-78.315.136 0 .261 35.056.271 78.315.01 43.243-.096 78.306-.236 78.306z" fill="#E0E0E0"/><path d="M671.419 295.864a7.386 7.386 0 01-1.318.5l-3.628 1.224a211.557 211.557 0 00-11.823 4.421c-4.516 1.937-8.775 3.51-11.2 5.612a8.236 8.236 0 00-2.251 2.977c-.348.823-.41 1.327-.456 1.318-.018 0-.012-.128.015-.368.054-.348.14-.69.257-1.022a7.915 7.915 0 012.2-3.173 19.707 19.707 0 014.853-3.025c1.944-.908 4.1-1.854 6.386-2.794a146.457 146.457 0 0111.9-4.292 95.99 95.99 0 013.682-1.073 7.711 7.711 0 011.383-.305z" fill="#E0E0E0"/><path d="M681.468 271.194c-.106.146-.23.278-.369.394l-1.125 1.057-4.2 3.816-13.98 12.448c-5.458 4.858-10.174 9.5-13.442 12.994a145.62 145.62 0 00-3.8 4.2l-1.016 1.161c-.11.143-.237.273-.379.385.081-.162.182-.313.3-.45.212-.281.521-.7.944-1.222a93.89 93.89 0 013.692-4.317 177.39 177.39 0 0113.357-13.132c5.476-4.847 10.46-9.2 14.081-12.339l4.307-3.695 1.188-.985a2.18 2.18 0 01.442-.315z" fill="#E0E0E0"/><path d="M655.896 293.848c-.143-.063 1-2.7 2.133-6.025s1.686-6.137 1.832-6.114a20.578 20.578 0 01-1.352 6.277 40.94 40.94 0 01-1.7 4.214 6.527 6.527 0 01-.913 1.648zM640.81 315.071a6.306 6.306 0 01-.841-.976l-2.154-2.762a903.262 903.262 0 00-7.116-9.1c-2.804-3.532-5.383-6.7-7.25-9l-2.2-2.725a6.295 6.295 0 01-.759-1.04c.334.272.639.578.91.912.561.609 1.356 1.5 2.325 2.623a274.15 274.15 0 017.373 8.912 277.34 277.34 0 017.005 9.2c.869 1.2 1.561 2.175 2.027 2.86.264.341.492.708.68 1.096z" fill="#E0E0E0"/><path d="M634.091 306.446a12.356 12.356 0 01-2.814-5.269 15.02 15.02 0 01-.638-5.313l.223.019c-.1.406-.173.62-.213.613-.04-.007-.042-.233-.009-.65l.224.019c.112 1.75.414 3.483.9 5.168a39.31 39.31 0 002.327 5.413zM625.418 295.535a9.092 9.092 0 00-1.965-1.141 13.139 13.139 0 00-5.456-.434c-1.853.143-3.691.44-5.495.887-.74.233-1.495.414-2.26.542a7.894 7.894 0 012.164-.888 25.168 25.168 0 015.553-1.046 11.879 11.879 0 015.628.607c.762.264 1.41.785 1.831 1.473zM623.362 292.891c-.039.079-1.145-.459-3.011-1.1a30.312 30.312 0 00-15.172-1.157c-1.941.347-3.116.711-3.142.627.248-.153.518-.268.8-.34.744-.26 1.503-.474 2.274-.638a26.769 26.769 0 0115.365 1.171c.736.28 1.455.606 2.15.976.267.115.516.271.736.461zM640.743 281.709a62.13 62.13 0 01-2.2-7.626 62.181 62.181 0 01-1.7-7.752 62.709 62.709 0 012.195 7.627 62.584 62.584 0 011.705 7.751z" fill="#E0E0E0"/><path d="M640.882 281.709a36.508 36.508 0 00-2.433-4.566 20.052 20.052 0 00-3.582-3.7c.511.125.985.369 1.383.713a11.14 11.14 0 012.614 2.692 10.115 10.115 0 012.018 4.861zM640.778 382.205c-.055.008-.158-.843-.553-2.332a33.184 33.184 0 00-2.343-6.071c-2.423-4.95-6.831-11.227-12.432-17.514-2.775-3.171-5.468-6.163-7.754-9.027a63.336 63.336 0 01-5.544-8 38.31 38.31 0 01-2.8-5.934c-.258-.731-.446-1.3-.55-1.7a2.86 2.86 0 01-.144-.606c.045-.014.3.8.878 2.232a43.364 43.364 0 002.924 5.824 67.087 67.087 0 005.6 7.885c2.294 2.835 4.991 5.81 7.772 8.986 5.616 6.3 10.014 12.66 12.373 17.692a30.267 30.267 0 012.211 6.179c.134.581.238 1.168.311 1.759.04.207.057.417.051.627z" fill="#E0E0E0"/><path d="M668.468 350.928c-.466.303-.95.575-1.451.815a31.5 31.5 0 00-3.765 2.488 43.17 43.17 0 00-4.943 4.509c-1.735 1.833-3.522 3.961-5.346 6.242-3.647 4.576-7.058 8.625-9.1 11.857a48.634 48.634 0 00-2.285 3.9c-.234.504-.501.992-.8 1.461.023-.144.068-.283.134-.412.109-.261.255-.653.488-1.137a37.045 37.045 0 012.159-4.007c1.983-3.31 5.367-7.414 9.008-11.982 1.827-2.285 3.636-4.418 5.4-6.248a40.159 40.159 0 015.066-4.473 26.311 26.311 0 013.887-2.376c.481-.241.873-.389 1.133-.5.13-.068.27-.114.415-.137z" fill="#E0E0E0"/><path d="M669.009 361.076c-1.01.224-2.036.373-3.068.446a40.577 40.577 0 00-7.274 1.432 21.869 21.869 0 00-6.513 3.419c-1.5 1.16-2.209 2.12-2.279 2.063.107-.26.261-.499.454-.705a11.563 11.563 0 011.6-1.636 19.734 19.734 0 016.584-3.623 32.912 32.912 0 017.4-1.307 16.946 16.946 0 013.096-.089z" fill="#E0E0E0"/><path d="M650.768 367.322c-.16-.091 1.222-2.2 2.294-5.042 1.007-2.866 1.242-5.379 1.423-5.35a4.892 4.892 0 01-.051 1.646 17.672 17.672 0 01-.895 3.877 18.758 18.758 0 01-1.779 3.556c-.255.49-.591.933-.992 1.313zM677.434 323.692a2.335 2.335 0 01-.491.261l-1.441.655c-.632.271-1.4.614-2.261 1.07-.861.456-1.878.907-2.931 1.539l-1.673.952c-.58.334-1.155.73-1.765 1.112-1.234.748-2.469 1.67-3.789 2.611a64.977 64.977 0 00-14.589 15.1c-.9 1.351-1.775 2.617-2.48 3.876-.361.623-.738 1.21-1.051 1.8-.313.59-.609 1.16-.894 1.705-.6 1.073-1.022 2.1-1.439 2.981a34.315 34.315 0 00-.991 2.3l-.606 1.463c-.06.176-.142.344-.244.5.028-.183.078-.362.148-.533l.518-1.5c.221-.653.513-1.445.915-2.338s.8-1.939 1.379-3.029l.87-1.731c.306-.6.676-1.2 1.032-1.828.7-1.276 1.567-2.56 2.458-3.928a62.575 62.575 0 0114.7-15.207c1.337-.938 2.59-1.853 3.842-2.591.62-.377 1.2-.767 1.791-1.094l1.7-.929c1.07-.616 2.1-1.056 2.98-1.481a28.57 28.57 0 012.306-.995l1.482-.569c.167-.078.343-.136.524-.172z" fill="#E0E0E0"/><path d="M655.52 338.375a3.535 3.535 0 011.2-1.8 7.61 7.61 0 014.855-1.863 13.245 13.245 0 015.109 1 7.247 7.247 0 011.932.938c-.7-.138-1.386-.338-2.049-.6a15.43 15.43 0 00-4.976-.83 7.9 7.9 0 00-4.637 1.628c-.515.473-.994.983-1.434 1.527zM652.245 341.754a12.959 12.959 0 001.069-9.167c.294.382.489.831.57 1.306a9.269 9.269 0 01-.784 6.721c-.432.775-.806 1.175-.855 1.14zM616.561 387.228c.755 13.4 4.793 27.028 11 40.806h27.009c5.923-13.642 9.682-27.248 10.351-40.806h-48.36z" fill="#E0E0E0"/><path d="M660.547 408.912c0 .14-8.892.254-19.86.254s-19.861-.114-19.861-.254 8.89-.253 19.861-.253 19.86.113 19.86.253zM659.944 413.767c0 .14-8.337.253-18.618.253-10.281 0-18.62-.113-18.62-.253s8.335-.254 18.62-.254 18.618.115 18.618.254zM628.001 396.028c.339 4.14.339 8.301 0 12.442a76.686 76.686 0 010-12.442z" fill="#FAFAFA"/><path d="M642.468 396.028a81.751 81.751 0 010 12.885 82.235 82.235 0 010-12.885zM656.057 395.918a85.04 85.04 0 010 13.142 85.543 85.543 0 010-13.142z" fill="#FAFAFA"/><path d="M664.068 396.028c0 .14-10.43.253-23.293.253s-23.3-.113-23.3-.253 10.428-.253 23.3-.253 23.293.112 23.293.253z" fill="#FAFAFA"/><path d="M646.21 73.272h-7.375v-1.475h7.375v1.475zm-14.751 0h-7.375v-1.475h7.375v1.475zm-14.75 0h-7.375v-1.475h7.375v1.475zm-14.751 0h-7.375v-1.475h7.375v1.475zm44.99-1.624h-1.475v-7.375h1.475v7.375zm-57.381-.736h-1.475v-7.375h1.476l-.001 7.375zm57.381-14.014h-1.475v-7.376h1.475v7.376zm-57.38-.736h-1.475v-7.376h1.475v7.376zm57.38-14.015h-1.475v-7.375h1.475v7.375zm-57.38-.736h-1.475v-7.375h1.475v7.375zm57.38-14.014h-1.475v-7.376h1.475v7.376zm-57.38-.737h-1.475v-7.375h1.475v7.375zm54.135-10.768h-7.375v-1.475h7.375v1.475zm-14.75 0h-7.376v-1.475h7.376v1.475zm-14.753 0h-7.373v-1.475h7.373v1.475zm-14.749 0h-7.375v-1.475h7.375v1.475z" fill="#E0E0E0"/><path d="M589.324 21.313A5.425 5.425 0 01584 14.828a5.424 5.424 0 014.264-4.265 5.429 5.429 0 016.486 5.323 5.435 5.435 0 01-5.426 5.427zm0-9.378a3.952 3.952 0 103.951 3.951 3.953 3.953 0 00-3.951-3.951zM645.913 21.313a5.424 5.424 0 01-5.014-3.35 5.428 5.428 0 017.091-7.09 5.427 5.427 0 01-2.077 10.44zm0-9.378a3.952 3.952 0 10.002 7.903 3.952 3.952 0 00-.002-7.903zM589.324 79.505a5.43 5.43 0 01-5.013-3.35 5.427 5.427 0 1110.439-2.076 5.43 5.43 0 01-5.426 5.426zm0-9.378a3.953 3.953 0 00-3.875 4.721 3.944 3.944 0 003.104 3.105 3.949 3.949 0 003.563-6.666 3.958 3.958 0 00-2.792-1.16zM645.913 79.505a5.425 5.425 0 115.427-5.426 5.431 5.431 0 01-5.427 5.426zm0-9.378a3.952 3.952 0 103.952 3.952 3.96 3.96 0 00-3.952-3.951v-.001zM616.329 33.365h-10.617v-5.037h27.181v5.035h-10.617v27h-5.947V33.365zM26.91 92.128H11.492l-1.835 4.249a9.434 9.434 0 00-.9 3.509 2.914 2.914 0 001.481 2.7c1.37.506 2.82.767 4.281.772v1.191H0v-1.191a6.49 6.49 0 003.862-1.947c1.56-2 2.818-4.218 3.734-6.583l15.612-34.826h.612l15.741 35.795c1.501 3.39 2.735 5.523 3.7 6.4a5.06 5.06 0 003.091 1.159v1.191H25.237v-1.191h.869a6.618 6.618 0 003.572-.708 1.716 1.716 0 00.708-1.481 3.966 3.966 0 00-.192-1.191c-.044-.193-.366-.998-.967-2.414l-2.317-5.434zm-1.094-2.382l-6.5-15.033-6.7 15.033h13.2z" fill="#E0E0E0"/><path d="M55.18 352.095c4.152-2.141 9.04-2.42 13.648-1.658 2.476.409 5.057 1.15 6.742 3.01 1.685 1.86 2 5.132.07 6.73a6.466 6.466 0 01-4.252 1.079c-3.607-.042-7.61-.678-10.492 1.493-1.645 1.238-2.74 3.3-4.705 3.906a4.65 4.65 0 01-5.114-2.275 7.944 7.944 0 01-.58-5.862 8.959 8.959 0 014.684-6.423zM45.668 333.736c2.538 3.625 7.472 2.425 9.759.212 2.287-2.213 3.255-5.42 4.135-8.478 2.01-6.988 4.038-14.319 2.543-21.435a11.909 11.909 0 00-2.737-5.827 6.227 6.227 0 00-5.9-1.963c-2.487.658-4.033 3.094-5.15 5.412a51.07 51.07 0 00-5.05 21.927c-.012 3.532.4 7.236 2.4 10.152M38.699 338.938c2.757-3.271 3.28-8.042 2.053-12.139a23.391 23.391 0 00-7.19-10.43 38.69 38.69 0 00-12.875-7.6 13.717 13.717 0 00-5.79-.984 6.08 6.08 0 00-4.859 2.943c-1.355 2.584-.056 5.718 1.349 8.276a98.141 98.141 0 008.456 12.877c2.535 3.268 5.438 6.491 9.3 7.968 3.862 1.477 7.876 1.3 9.923-1.376" fill="#EBEBEB"/><path d="M45.498 388.428a7.848 7.848 0 00.23-1.647l.437-4.5a64.999 64.999 0 011.012-6.6 50.805 50.805 0 012.4-7.783 28.723 28.723 0 013.975-7.042 14.82 14.82 0 015.024-4.177 14.046 14.046 0 014.232-1.318 7.965 7.965 0 001.64-.237 7.697 7.697 0 00-1.67-.026 12.825 12.825 0 00-4.411 1.148 14.823 14.823 0 00-5.3 4.214 28.016 28.016 0 00-4.12 7.184 47.543 47.543 0 00-2.38 7.91 55.83 55.83 0 00-.876 6.678 85.246 85.246 0 00-.222 4.523 7.78 7.78 0 00.029 1.673z" fill="#E0E0E0"/><path d="M45.808 384.965c.044-.253.06-.509.044-.765 0-.574 0-1.3-.006-2.186 0-1.9 0-4.642.1-8.032.168-6.78.751-14.076 1.879-24.363 1.067-9.673 2.5-20.93 4.013-28.249.324-1.665.651-3.163.958-4.475.307-1.312.544-2.448.786-3.365l.51-2.124a3.28 3.28 0 00.134-.754 3.19 3.19 0 00-.266.716l-.634 2.095c-.282.908-.57 2.035-.9 3.344-.344 1.306-.7 2.8-1.059 4.462a247.782 247.782 0 00-4.219 26.213c-1.13 10.308-1.639 19.694-1.684 26.491-.04 3.4.032 6.15.119 8.048.054.888.1 1.61.133 2.184 0 .256.032.511.092.76z" fill="#E0E0E0"/><path d="M45.853 366.861c.054-.76.05-1.524-.016-2.283-.084-1.467-.285-3.588-.7-6.186-.5-3.04-1.172-6.05-2.012-9.014a73.942 73.942 0 00-3.769-10.665 56.817 56.817 0 00-11.068-17.235 27.96 27.96 0 00-2.6-2.42c-.4-.338-.753-.675-1.113-.942l-1.01-.7c-.608-.46-1.25-.871-1.922-1.231a68.257 68.257 0 016.3 5.621 59.892 59.892 0 0110.792 17.173 84.468 84.468 0 013.791 10.568 91.792 91.792 0 012.14 8.923c.472 2.572.745 4.671.91 6.126.034.761.127 1.518.277 2.265zM28.356 398.795l1.812 24.852h31.928l1.814-24.852H28.356z" fill="#E0E0E0"/><path d="M67.72 389H25.272v9.796H67.72V389z" fill="#E0E0E0"/><path d="M25.268 422.696v2.715h41.75v-2.715h-41.75z" fill="#EBEBEB"/><path d="M29.221 430.19l-1.953-4.778h38.23l-2.282 4.779-33.995-.001z" fill="#E0E0E0"/><path d="M63.317 406.918c-.04.082-.09.159-.149.228l-.477.633-1.859 2.38-.083.105-.08-.11-4.57-6.32h.263l-4.5 6.37-.14.2-.159-.188-5.335-6.348h.307l-.293.369-4.774 5.977-.159.2-.147-.207-4.5-6.369.261.013-5.543 6.315-.1.112-.075-.126-1.736-2.916-.445-.776a1.228 1.228 0 01-.136-.277c.072.074.134.157.186.246l.492.747 1.822 2.863-.173-.014 5.454-6.392.138-.162.124.174 4.541 6.339-.305-.008 4.76-5.989.293-.369.151-.191.156.187 5.321 6.36-.3.012 4.543-6.338.134-.186.13.186 4.472 6.388-.162-.005 1.934-2.319.52-.6c.126-.134.191-.2.198-.194zM64.354 398.628c0 .11-8 .2-17.865.2-9.865 0-17.868-.089-17.868-.2 0-.111 8-.2 17.868-.2 9.868 0 17.865.094 17.865.2zM65.968 425.679c0 .11-8.694.2-19.416.2s-19.418-.089-19.418-.2c0-.111 8.692-.2 19.418-.2 10.726 0 19.416.091 19.416.2z" fill="#F5F5F5"/><path d="M687.268 430.111c0 .144-152.324.26-340.183.26-187.923 0-340.215-.116-340.215-.26 0-.144 152.292-.261 340.215-.261 187.858 0 340.183.117 340.183.261z" fill="#263238"/><path d="M514.413.261H210.468v283.637h135.33v25.058l22.16-25.058h146.455V.261z" fill="#fff"/><path d="M514.896.261H209.982V20.82h304.914V.261z" fill="#E0E0E0"/><path d="M226.393 11.214a4.474 4.474 0 01-5.344 4.386 4.477 4.477 0 01-3.514-3.513 4.48 4.48 0 01.254-2.584 4.479 4.479 0 014.131-2.761 4.475 4.475 0 014.473 4.472zM239.26 11.214a4.467 4.467 0 01-2.76 4.131 4.474 4.474 0 01-6.098-3.258 4.472 4.472 0 118.858-.873zM252.127 11.214a4.474 4.474 0 01-5.344 4.386 4.477 4.477 0 01-3.514-3.513 4.472 4.472 0 118.858-.873z" fill="#fff"/><path d="M514.413 284.143c0-1.855-.088-112.845-.22-283.882l.22.22-303.948.04.26-.26v17.784l-.026 266.1-.234-.234 135.33.04h.194v.194c0 8.816-.007 16.932-.01 24.813l-.321-.124 22.16-24.4.051-.055h.074l146.47-.233-146.469.571.124-.056-22.137 24.422-.32.353v-.477c0-7.881-.007-16-.011-24.813l.195.194-135.33.04h-.234v-.234l-.026-266.1V0h.26l303.948.04h.22v.221l-.22 283.882z" fill="#263238"/><path d="M273.697 61.922H226.99v6.559h46.707v-6.56z" fill="#E0E0E0"/><path d="M320.24 85.196c0 .143-20.84.26-46.541.26-25.701 0-46.545-.117-46.545-.26 0-.143 20.835-.26 46.545-.26s46.541.116 46.541.26zM292.368 112.773c0 .144-14.6.26-32.605.26-18.005 0-32.608-.116-32.608-.26 0-.144 14.6-.26 32.608-.26 18.008 0 32.605.115 32.605.26zM320.24 97.883c0 .144-20.84.26-46.541.26-25.701 0-46.545-.116-46.545-.26 0-.144 20.835-.26 46.545-.26s46.541.116 46.541.26z" fill="#263238"/><path d="M354.498 246.085H316.95v-37.548h37.548v37.548zm-36.548-1h35.548v-35.548H317.95v35.548zM283.868 246.085h-37.543v-37.548h37.543v37.548zm-36.548-1h35.548v-35.548h-35.543l-.005 35.548z" fill="#FDBC5A"/><path d="M285.433 254.4c0 .144-9.1.26-20.333.26-11.233 0-20.335-.116-20.335-.26 0-.144 9.1-.26 20.335-.26 11.235 0 20.333.116 20.333.26zM281.928 262.728c0 .144-7.895.261-17.632.261-9.737 0-17.634-.117-17.634-.261 0-.144 7.893-.26 17.634-.26s17.632.119 17.632.26zM357.076 254.4c0 .144-9.1.26-20.333.26-11.233 0-20.335-.116-20.335-.26 0-.144 9.1-.26 20.335-.26 11.235 0 20.333.116 20.333.26zM353.568 262.728c0 .144-7.895.261-17.632.261-9.737 0-17.634-.117-17.634-.261 0-.144 7.893-.26 17.634-.26s17.632.119 17.632.26z" fill="#263238"/><path d="M353.999 209.037c.1.1-8 8.366-18.09 18.457-10.09 10.091-18.357 18.193-18.459 18.091-.102-.102 8-8.365 18.091-18.459 10.091-10.094 18.356-18.191 18.458-18.089z" fill="#FDBC5A"/><path d="M352.103 245.819c-.015.011-.13-.119-.336-.376l-.879-1.137c-.75-1-1.847-2.43-3.22-4.186a217.697 217.697 0 00-11.266-13.272c-4.609-5-9.048-9.277-12.332-12.293a287.634 287.634 0 00-3.914-3.544l-1.063-.967c-.239-.226-.36-.351-.348-.365.15.076.29.172.415.285l1.127.893c.975.78 2.355 1.948 4.03 3.425a173.662 173.662 0 0123.643 25.614c1.338 1.789 2.392 3.257 3.092 4.291l.8 1.195a1.9 1.9 0 01.251.437zM282.601 211.258c.1.1-7.918 7.833-17.9 17.26-9.982 9.427-18.165 16.988-18.264 16.884-.099-.104 7.917-7.832 17.906-17.262 9.989-9.43 18.16-16.987 18.258-16.882z" fill="#FDBC5A"/><path d="M282.194 245.414c-.015.011-.135-.117-.35-.37l-.921-1.122c-.787-.983-1.938-2.4-3.378-4.127a211.575 211.575 0 00-11.8-13.035 210.295 210.295 0 00-12.87-11.98 285.805 285.805 0 00-4.079-3.435l-1.109-.937c-.25-.219-.376-.34-.365-.355.155.071.3.162.43.272l1.169.861c1.013.752 2.447 1.881 4.19 3.312a171.185 171.185 0 0124.715 25.064c1.407 1.764 2.516 3.214 3.253 4.237l.845 1.182c.109.131.2.277.27.433zM486.656 245.528h-37.548v-37.551h37.548v37.551zm-36.548-1h35.548v-35.551h-35.548v35.551zM421.042 245.528h-37.549v-37.551h37.549v37.551zm-36.549-1h35.549v-35.551h-35.549v35.551z" fill="#FDBC5A"/><path d="M422.601 253.841c0 .143-9.1.26-20.332.26-11.232 0-20.335-.117-20.335-.26 0-.143 9.1-.261 20.335-.261 11.235 0 20.332.117 20.332.261zM419.097 262.171c0 .144-7.9.261-17.633.261-9.733 0-17.634-.117-17.634-.261 0-.144 7.894-.26 17.634-.26s17.633.117 17.633.26zM489.233 253.841c0 .143-9.1.26-20.333.26-11.233 0-20.335-.117-20.335-.26 0-.143 9.1-.261 20.335-.261 11.235 0 20.333.117 20.333.261zM485.728 262.171c0 .144-7.895.261-17.632.261-9.737 0-17.634-.117-17.634-.261 0-.144 7.894-.26 17.634-.26s17.632.117 17.632.26z" fill="#263238"/><path d="M486.156 208.477c.1.1-8 8.367-18.089 18.458-10.089 10.091-18.358 18.193-18.459 18.093-.101-.1 8-8.365 18.091-18.459 10.091-10.094 18.355-18.193 18.457-18.092z" fill="#FDBC5A"/><path d="M484.26 245.26a1.822 1.822 0 01-.336-.376l-.879-1.137c-.749-1-1.847-2.43-3.22-4.186a216.37 216.37 0 00-11.266-13.272 213.746 213.746 0 00-12.331-12.293 292.756 292.756 0 00-3.915-3.544l-1.063-.967a1.853 1.853 0 01-.348-.365c.151.075.291.171.416.284.3.242.676.537 1.127.893.975.781 2.354 1.949 4.029 3.426a173.454 173.454 0 0123.643 25.614c1.338 1.788 2.392 3.257 3.092 4.291l.8 1.2c.103.132.187.277.251.432zM419.768 210.698c.1.1-7.919 7.834-17.9 17.261-9.981 9.427-18.165 16.988-18.264 16.883-.099-.105 7.917-7.831 17.907-17.262 9.99-9.431 18.157-16.986 18.257-16.882z" fill="#FDBC5A"/><path d="M419.362 244.855a1.856 1.856 0 01-.349-.37l-.922-1.122c-.786-.984-1.937-2.4-3.377-4.127a211.901 211.901 0 00-11.8-13.035 209.71 209.71 0 00-12.87-11.98 280.263 280.263 0 00-4.079-3.435l-1.108-.937c-.25-.219-.376-.341-.365-.355.154.071.299.163.429.272l1.17.861c1.013.752 2.447 1.881 4.19 3.312a171.335 171.335 0 0124.715 25.064c1.406 1.764 2.515 3.213 3.253 4.237l.844 1.181c.11.131.2.278.269.434zM484.726 167.047H357.463V39.785h127.263v127.262zm-126.263-1h125.263V40.785H358.463v125.262z" fill="#FDBC5A"/><path d="M478.839 161.161H363.068V45.389h115.771v115.772zm-114.771-1h113.771V46.389H364.068v113.772z" fill="#FDBC5A"/><path d="M365.668 159.589l-.8-.6 34.054-45.3 23.6 13.1 29.821-45.25.836.55-30.333 46.024-23.648-13.132-33.53 44.608zM417.068 94.508a15.256 15.256 0 01-14.961-18.23 15.252 15.252 0 0120.798-11.117 15.25 15.25 0 019.417 14.093 15.272 15.272 0 01-15.254 15.254zm0-29.508a14.254 14.254 0 1014.254 14.254A14.269 14.269 0 00417.068 65z" fill="#FDBC5A"/><path d="M399.998 113.393h-1.885v1.885h1.885v-1.885zM423.501 126.397h-1.885v1.885h1.885v-1.885zM453.7 81.14h-1.885v1.884h1.885V81.14zM418.015 93.066h-1.885v1.885h1.885v-1.885zM418.015 63.45h-1.885v1.884h1.885V63.45zM430.938 78.31v1.886h1.885V78.31h-1.885zM401.322 78.31v1.886h1.885V78.31h-1.885zM366.206 158.346h-1.885v1.885h1.885v-1.885z" fill="#FDBC5A"/><path d="M452.757 102.328c-.144 0-.26-8.643-.26-19.3s.116-19.305.26-19.305c.144 0 .261 8.641.261 19.305s-.117 19.3-.261 19.3z" fill="#FDBC5A"/><path d="M453.454 63.72a.7.7 0 11-1.398 0 .7.7 0 011.398 0zM452.757 103.436a.697.697 0 10-.001-1.393.697.697 0 00.001 1.393z" fill="#FDBC5A"/><path d="M501.776 190.023c0 .144-51.98.261-116.086.261-64.128 0-116.1-.117-116.1-.261 0-.144 51.969-.26 116.1-.26 64.106 0 116.086.116 116.086.26z" fill="#E0E0E0"/><path d="M537.51 340.006l1.654 75.706-82.274 1.157-1.654-75.706 82.274-1.157z" fill="#FAFAFA"/><path d="M537.51 340.006s-.138.011-.4.019l-1.154.031-4.469.092-16.842.3-59.4.959.208-.249 1.678 75.7v.008l-.245-.271 82.275-1.111-.194.231c-.455-22.8-.833-41.693-1.1-54.909l-.285-15.347-.065-4.049c-.015-.931-.009-1.4-.009-1.4s.024.452.051 1.355l.11 4.005.385 15.294 1.306 55.049.005.228h-.2l-82.272 1.2h-.238l-.006-.275v-.008l-1.628-75.7-.006-.246h.214l59.547-.714 16.8-.171 4.429-.033h1.131c.251.004.374.012.374.012z" fill="#263238"/><path d="M459.623 413.098l76.493-1.076-1.448-66.174-76.491 1.08 1.446 66.17z" fill="#FDBC5A"/><path opacity=".3" d="M459.623 413.098l25.818-41.509 17.112 25.5 10.924-13.916 22.638 28.847-76.492 1.078zM508.906 366.679c.084 3.829-2.545 6.97-5.871 7.017-3.326.047-6.091-3.019-6.175-6.847-.084-3.828 2.545-6.971 5.872-7.017 3.327-.046 6.09 3.018 6.174 6.847z" fill="#000"/><path d="M516.932 332.954l1.654 75.706-82.274 1.157-1.654-75.706 82.274-1.157z" fill="#FAFAFA"/><path d="M516.932 332.954s-.138.012-.4.02-.654.018-1.154.03l-4.469.093-16.842.3-59.4.958.208-.248 1.678 75.7v.008l-.245-.271 82.274-1.111-.193.231c-.455-22.8-.833-41.693-1.1-54.908l-.285-15.347-.065-4.049c-.015-.931-.009-1.4-.009-1.4s.024.453.051 1.355l.11 4.006.385 15.293 1.306 55.05.005.228h-.2l-82.272 1.2h-.238l-.006-.275v-.008l-1.628-75.7-.006-.247h.214l59.547-.715 16.8-.171 4.429-.033h1.131c.251.004.374.011.374.011z" fill="#263238"/><path d="M439.044 405.012l76.493-1.076-1.446-66.175-76.493 1.076 1.446 66.175z" fill="#1C2E5C"/><path d="M439.044 405.012l25.819-41.509 17.112 25.5 10.924-13.915 22.638 28.847-76.493 1.077zM488.328 358.128c.084 3.829-2.545 6.971-5.871 7.018-3.326.047-6.091-3.019-6.175-6.848-.084-3.829 2.545-6.97 5.872-7.017 3.327-.047 6.09 3.023 6.174 6.847z" fill="#1C2E5C"/><path opacity=".3" d="M439.044 405.012l25.819-41.509 17.112 25.5 10.924-13.915 22.638 28.847-76.493 1.077zM488.328 358.128c.084 3.829-2.545 6.971-5.871 7.018-3.326.047-6.091-3.019-6.175-6.848-.084-3.829 2.545-6.97 5.872-7.017 3.327-.047 6.09 3.023 6.174 6.847z" fill="#000"/><path d="M508.008 323.333l1.654 75.706-82.274 1.157-1.654-75.706 82.274-1.157z" fill="#FAFAFA"/><path d="M508.008 323.333s-.138.012-.4.02l-1.154.03-4.469.093-16.842.3-59.4.958.208-.248 1.678 75.7v.007l-.245-.271 82.274-1.11-.193.23c-.455-22.8-.833-41.693-1.1-54.908l-.285-15.347-.065-4.049c-.015-.931-.009-1.4-.009-1.4s.024.453.051 1.355l.11 4.006.385 15.293 1.306 55.05.005.228h-.2l-82.272 1.2h-.238l-.006-.275v-.008l-1.628-75.7-.006-.246h.214l59.547-.715 16.8-.171 4.429-.033h1.131c.251.006.374.011.374.011z" fill="#263238"/><path d="M430.12 396.428l76.493-1.076-1.445-66.176-76.493 1.076 1.445 66.176z" fill="#FDBC5A"/><path opacity=".3" d="M430.12 396.428l25.818-41.509 17.112 25.5 10.924-13.915 22.638 28.847-76.492 1.077zM479.404 350.007c.084 3.828-2.545 6.97-5.871 7.017-3.326.047-6.091-3.019-6.175-6.848-.084-3.829 2.545-6.97 5.872-7.017 3.327-.047 6.09 3.019 6.174 6.848z" fill="#000"/><path d="M498.436 333.089l1.787 75.706-88.927 1.157-1.787-75.706 88.927-1.157z" fill="#FAFAFA"/><path d="M498.436 333.089s-.149.011-.431.02l-1.247.03-4.83.092-18.2.3-64.207.959.224-.249 1.815 75.7v.008l-.264-.271 88.927-1.111-.209.231c-.491-22.8-.9-41.693-1.185-54.909l-.307-15.346-.071-4.049c-.016-.931-.01-1.4-.01-1.4s.027.452.056 1.355l.119 4.005c.1 3.539.237 8.707.416 15.294l1.411 55.05.006.228h-.215l-88.925 1.2h-.258l-.007-.275v-.008l-1.76-75.7-.006-.246h.231l64.363-.715 18.155-.171 4.787-.033h1.222c.268.003.4.011.4.011z" fill="#263238"/><path d="M414.251 405.147l82.679-1.076-1.562-66.175-82.679 1.076 1.562 66.175z" fill="#FDBC5A"/><path opacity=".3" d="M414.251 405.147l27.906-41.509 18.5 25.5 11.804-13.91 24.469 28.847-82.679 1.072zM467.52 358.267a6.644 6.644 0 01-6.347 7.017 6.817 6.817 0 01-6.673-6.847 6.644 6.644 0 016.346-7.017 6.82 6.82 0 016.674 6.847z" fill="#000"/><path d="M540.423 378.438h-83.77v51.345h83.77v-51.345z" fill="#6A819F"/><path d="M497.302 378.438h-91.827v51.345h91.827v-51.345zM118.579 109.64h41.8l-.717 26.519-33.589 7.652-7.494-34.171z" fill="#1C2E5C"/><path d="M110.877 394.165l-7.8 18.919s16.609 14.285 15.508 17.921l-37.226-13.812 10.949-29.976 18.569 6.948z" fill="#FDBC5A"/><path opacity=".3" d="M110.877 394.165l-7.8 18.919s16.609 14.285 15.508 17.921l-37.226-13.812 10.949-29.976 18.569 6.948z" fill="#000"/><path d="M92.162 407.2a1.62 1.62 0 00-1.695 1.345 1.557 1.557 0 001.318 1.691 1.712 1.712 0 001.788-1.433c.014-.8-.778-1.716-1.567-1.608" fill="#E0E0E0"/><path d="M81.356 417.193l1.222-2.978 35.235 14.357s1.389 1.336.769 2.433l-37.226-13.812zM103.748 413.118c-.074.18-1.013-.075-2.124.178-1.118.223-1.872.839-2.012.705-.154-.1.52-1.083 1.871-1.365 1.351-.282 2.366.33 2.265.482zM107.053 416.182c-.024.191-.926.208-1.828.748-.919.513-1.383 1.287-1.561 1.212-.181-.035.088-1.146 1.223-1.8 1.135-.654 2.226-.335 2.166-.16zM107.537 421.678c-.18-.023-.1-1.025.74-1.847.84-.822 1.834-.9 1.854-.724.048.188-.7.518-1.379 1.2-.691.672-1.028 1.421-1.215 1.371zM105.048 408.609c-.138.138-.879-.423-1.932-.734-1.047-.333-1.975-.285-2.012-.476-.056-.17.974-.553 2.21-.169s1.876 1.27 1.734 1.379z" fill="#263238"/><path d="M92.007 397.387l-.616 21.564s21.711 7.868 21.986 11.864l-41.854.308-.419-33.638 20.903-.098z" fill="#FDBC5A"/><path d="M78.436 417.233a1.709 1.709 0 00-1.168 1.959 1.64 1.64 0 001.932 1.174 1.798 1.798 0 001.226-2.081 1.707 1.707 0 00-2.145-1" fill="#E0E0E0"/><path d="M71.5 432.004l-.044-3.259 40.252-.041s1.87.8 1.669 2.111L71.5 432.004zM92.068 418.733c0 .2-1.027.3-2.027.969-1.02.639-1.53 1.528-1.72 1.448-.188-.038.108-1.262 1.334-2.045 1.226-.783 2.456-.56 2.413-.372zM96.468 420.516c.048.2-.834.552-1.522 1.422-.713.849-.882 1.785-1.085 1.778-.192.033-.342-1.163.534-2.228.876-1.065 2.073-1.166 2.073-.972zM99.003 425.752c-.185.045-.478-.974.039-2.1.517-1.126 1.469-1.576 1.557-1.406.117.167-.5.772-.91 1.7-.431.922-.483 1.782-.686 1.806zM91.668 413.803c-.084.187-1.024-.088-2.179 0-1.156.064-2.052.458-2.16.283-.119-.146.753-.91 2.114-.993 1.361-.083 2.32.549 2.225.71zM130.504 206.288s17.078 68.932 19.887 91.052c1.957 15.4-1.907 25.535-2.364 28.618a8.567 8.567 0 01-1.013 2.95l-36.881 71.542-25.486-8.842s19.1-57.687 23.28-66.97l4.7-8.354-37.183-94.171 55.06-15.825z" fill="#263238"/><path d="M112.398 221.158c.472 1.891-21.93 112.728-21.93 112.728l2.879 79.4-23.561.638s-12.055-43.264-12.527-68.786c-.472-25.522 2.408-29.882.322-45.823-2.2-16.8-15.68-51.413-9.569-74.889 5.11-19.632 18.282-29.077 18.282-29.077l46.104 25.809z" fill="#263238"/><path d="M93.368 413.956c.02-.135.025-.272.016-.408 0-.3-.007-.7-.012-1.2l-.106-4.611c-.12-4.046-.29-9.854-.5-17.058l-1.906-57.174-.006.072c.54-2.711 1.116-5.591 1.7-8.505l12.156-61.871 3.613-18.763.951-5.107c.1-.56.174-1 .232-1.332.033-.15.052-.303.058-.457a2.362 2.362 0 00-.121.445l-.293 1.319c-.252 1.2-.61 2.9-1.067 5.085l-3.81 18.724-12.337 61.834c-.58 2.913-1.153 5.793-1.694 8.5l-.007.037v.037l2.109 57.167.695 17.051.217 4.607.072 1.194c0 .139.013.278.04.414zM112.417 314.752c-.143.064.981 2.225 3.331 4 2.336 1.791 4.719 2.295 4.742 2.139.063-.181-2.135-.929-4.361-2.64-2.244-1.691-3.554-3.608-3.712-3.499z" fill="#1C2E5C"/><path d="M65.89 44.98a9.358 9.358 0 00-10.22-.8 13.518 13.518 0 00-6.361 8.462 11.24 11.24 0 00-.26 5.564 6.62 6.62 0 003.244 4.387c.792.254 1.503.71 2.064 1.325.86 1.343-.51 3.14-.077 4.677a2.769 2.769 0 003.207 1.657 6.667 6.667 0 003.3-2.087c4-4.07 6.515-9.366 7.142-15.037a7.45 7.45 0 00-2.04-8.147z" fill="#263238"/><path d="M220.932 394.434l-70.286-2.559a14.193 14.193 0 01-9.969-4.451 14.202 14.202 0 01-3.864-10.211l11.319-266.577a14.401 14.401 0 0115.036-13.608l70.286 2.56c1.873.046 3.719.463 5.43 1.227a14.179 14.179 0 017.493 7.942c.663 1.752.972 3.619.91 5.492l-11.319 266.579a14.402 14.402 0 01-15.036 13.606z" fill="#FAFAFA"/><path d="M220.932 394.434s.17-.017.505-.028c.499-.001.997-.031 1.492-.092a14.507 14.507 0 0011.759-8.565 15.02 15.02 0 001.169-5.78l.269-6.8 3.323-81.4 5.036-120.729 1.467-34.894.76-18.022c.087-3.042.517-6.1-.6-8.912a13.94 13.94 0 00-9.68-8.78 21.17 21.17 0 00-4.636-.5l-9.588-.347-19.4-.7-39.64-1.448a14.514 14.514 0 00-9.1 2.836 13.952 13.952 0 00-5.151 7.811 23.77 23.77 0 00-.458 4.746c-.067 1.614-.135 3.224-.205 4.832l-.409 9.612-1.608 37.718-3.052 71.3-5.217 120.732-.548 12.575-.265 6.05a16.353 16.353 0 00.4 5.767 13.961 13.961 0 006.776 8.477 14.4 14.4 0 005.1 1.635c1.751.188 3.56.169 5.291.262l35.747 1.371 22.59.9 5.874.255c1.323.062 2 .115 2 .115s-.679 0-2-.031l-5.877-.173-22.6-.745-35.754-1.232c-1.749-.089-3.5-.059-5.333-.249a14.854 14.854 0 01-5.28-1.677 14.464 14.464 0 01-7.047-8.769 16.9 16.9 0 01-.436-5.926l.249-6.05.52-12.577 5.036-120.738c.957-22.723 1.962-46.576 3-71.305.523-12.364 1.056-24.937 1.6-37.718.133-3.194.269-6.398.407-9.613.067-1.607.135-3.217.205-4.831a24.425 24.425 0 01.479-4.9 14.778 14.778 0 015.459-8.281 15.37 15.37 0 019.643-3.006l39.643 1.445 19.4.709 9.587.35a21.95 21.95 0 014.813.524 14.75 14.75 0 0110.244 9.3c.533 1.483.801 3.049.794 4.625 0 1.562-.111 3.055-.16 4.58l-.771 18.022c-.51 11.892-1.01 23.523-1.5 34.893l-5.216 120.723-3.59 81.395-.307 6.8a15.247 15.247 0 01-1.228 5.865 14.364 14.364 0 01-6.37 6.867 14.008 14.008 0 01-5.611 1.687 10.58 10.58 0 01-1.5.05c-.331.001-.5-.011-.5-.011z" fill="#263238"/><path d="M241.154 164.744l-91.192-3.32 1.943-45.762 91.192 3.32-1.943 45.762zM238.401 229.564l-91.191-3.32 1.943-45.762 91.192 3.32-1.944 45.762zM235.649 294.384l-91.191-3.32 1.943-45.762 91.192 3.32-1.944 45.762zM232.897 359.205l-91.191-3.32 1.943-45.762 91.191 3.32-1.943 45.762z" fill="#FDBC5A"/><path opacity=".1" d="M241.154 164.744l-91.192-3.32 1.943-45.762 91.192 3.32-1.943 45.762z" fill="#000"/><path opacity=".2" d="M238.401 229.564l-91.191-3.32 1.943-45.762 91.192 3.32-1.944 45.762z" fill="#000"/><path opacity=".3" d="M235.649 294.384l-91.191-3.32 1.943-45.762 91.192 3.32-1.944 45.762z" fill="#000"/><path opacity=".4" d="M232.897 359.205l-91.191-3.32 1.943-45.762 91.191 3.32-1.943 45.762z" fill="#000"/><path d="M219.591 395.215l-68.182.71c-7.3.076-13.283-6.117-13.355-13.832l-2.572-275.523c-.072-7.715 5.791-14.03 13.1-14.107l68.182-.71c7.3-.076 13.284 6.117 13.356 13.832l2.571 275.523c.067 7.72-5.796 14.03-13.1 14.107z" fill="#FAFAFA"/><path d="M219.591 395.215c0-.041.653-.012 1.9-.224a12.654 12.654 0 005.163-2.135 13.8 13.8 0 005.325-7.509c.523-1.972.711-4.019.554-6.053l-.083-7.009-.911-83.882-1.247-124.41-.349-35.958-.179-18.572c-.032-1.552.009-3.156-.083-4.675a14.368 14.368 0 00-1-4.436 13.59 13.59 0 00-5.834-6.637 12.263 12.263 0 00-4.168-1.4c-1.491-.15-2.99-.19-4.487-.119l-9.162.1-18.543.2-37.884.4a12.54 12.54 0 00-8.454 3.48 13.656 13.656 0 00-4.159 8.448c-.165 1.588-.071 3.278-.074 4.937l.042 4.967.092 9.906c.121 13.161.241 26.118.357 38.87l.662 73.48c.4 46.829.769 89 1.075 124.42a25069.346 25069.346 0 01.158 19.195c-.102 1.992.15 3.987.747 5.89a13.549 13.549 0 007.162 8.089c3.233 1.575 6.784.977 10.094 1.056l34.166-.284 21.591-.145 5.616-.017c1.265 0 1.913.024 1.913.024s-.648.036-1.913.063l-5.614.1-21.59.3-34.164.427-5.084.052c-1.792 0-3.565-.38-5.2-1.115a14.027 14.027 0 01-4.6-3.412 14.024 14.024 0 01-2.855-4.965 17.363 17.363 0 01-.791-6.062 223950.254 223950.254 0 01-.2-19.195l-1.247-124.419-.709-73.479-.369-38.869-.094-9.906-.046-4.979a49.966 49.966 0 01.078-5.046 14.521 14.521 0 014.418-8.978 13.326 13.326 0 018.983-3.7l37.884-.392 18.543-.19 9.162-.094a30.574 30.574 0 014.6.129c1.553.225 3.053.73 4.426 1.488a14.398 14.398 0 016.185 7.045 15.21 15.21 0 011.062 4.713c.1 1.615.051 3.15.083 4.723.058 6.252.114 12.443.168 18.572l.322 35.959c.4 46.822.769 88.99 1.075 124.411l.656 83.885.047 7.009c.016 1.1.017 2.159-.045 3.2-.071.512-.141 1.015-.208 1.509-.119.483-.216.964-.349 1.423a13.926 13.926 0 01-5.465 7.578 12.464 12.464 0 01-5.239 2.077 8.994 8.994 0 01-1.428.13c-.32.015-.482.011-.482.011z" fill="#263238"/><path d="M226.808 158.328l-87.035.906-.439-47.1 87.034-.906.44 47.1zM227.43 225.04l-87.035.906-.44-47.1 87.035-.906.44 47.1zM228.053 291.753l-87.035.906-.44-47.1 87.035-.906.44 47.1zM228.676 358.467l-87.035.906-.44-47.1 87.035-.906.44 47.1z" fill="#FDBC5A"/><path opacity=".2" d="M227.43 225.04l-87.035.906-.44-47.1 87.035-.906.44 47.1z" fill="#fff"/><path opacity=".3" d="M228.053 291.753l-87.035.906-.44-47.1 87.035-.906.44 47.1z" fill="#fff"/><path opacity=".4" d="M228.676 358.467l-87.035.906-.44-47.1 87.035-.906.44 47.1z" fill="#fff"/><path d="M221.732 381.756a11.064 11.064 0 01-15.257 7.729 11.066 11.066 0 01-6.602-10.369 11.066 11.066 0 017.055-10.067 11.063 11.063 0 0114.804 12.707z" fill="#1C2E5C"/><path d="M221.732 381.756c-.092-.015.161-.974.082-2.707a11.043 11.043 0 00-2.673-6.63 10.774 10.774 0 00-9.588-3.629 10.561 10.561 0 00-5.629 2.572 10.622 10.622 0 00-2.725 12.286 10.569 10.569 0 004.015 4.712 10.779 10.779 0 0010.224.763 11.039 11.039 0 005.224-4.879c.8-1.537.98-2.513 1.07-2.488.002.237-.034.474-.106.7a8.636 8.636 0 01-.669 1.932 11.008 11.008 0 01-5.268 5.274 11.205 11.205 0 01-5.127 1.1 11.403 11.403 0 01-5.767-1.744 11.298 11.298 0 01-4.356-5.036 11.383 11.383 0 012.938-13.246 11.325 11.325 0 018.386-2.783 11.335 11.335 0 017.835 4.083 11 11 0 012.545 7.007 8.636 8.636 0 01-.209 2.033 2.25 2.25 0 01-.202.68z" fill="#263238"/><path d="M159.293 163.882l-1 .843a.603.603 0 01-.376.185c-.181-.005-.314-.171-.4-.333a2.325 2.325 0 01-.049-1.849 3.863 3.863 0 011.1-1.523c.201-.217.478-.347.773-.362.288.052.546.208.726.439.274.283.533.579.776.889a.656.656 0 01.2.515.67.67 0 01-.266.338c-.431.351-1.052.5-1.483.854" fill="#8E4842"/><path d="M151.983 147.106c1.415-.054 7.8-.713 7.8-.713l10.678 2.569a3.718 3.718 0 01-3.061 1.9c-2.843-.061-6.829-.363-6.829-.363l-1.263.751s4.842 3.262 4.892 3.908c0 .47-.116.932-.34 1.345a5.036 5.036 0 01.135 3.539l-.158 4.552-4.594 3.163a3.656 3.656 0 01-.37-2.46c.318-1.283 2.078-2.024 2.078-2.024l-1.061-1.9-1.611-.574s-10.545 2.945-13 2.77l-8.424 4.189-1.172-12.33s14.885-8.268 16.3-8.322z" fill="#B2655F"/><path d="M158.346 156.681c-.045.124 1.3.677 2.8 1.608 1.5.931 2.613 1.866 2.7 1.77a9.836 9.836 0 00-5.506-3.378h.006zM157.519 153.114c.982.64 2.002 1.222 3.053 1.74.976.65 1.991 1.24 3.038 1.767a13.502 13.502 0 00-6.091-3.507zM154.242 147.951a19.772 19.772 0 002.505 1.892 8.533 8.533 0 002.741 1.563 16.265 16.265 0 00-2.481-1.931 7.813 7.813 0 00-2.765-1.524z" fill="#8E4842"/><path d="M188.358 92.115a14.201 14.201 0 00-2.059-3.271 2.733 2.733 0 00-2.72-.508l-.649.384s-2.613-1.859-4.19-1.143c0 0-2.472-1.833-4.071-.615 0 0-1.831-1.786-2.959-.769a4.98 4.98 0 00-1.213 4.176c.223 1.124.326 4.824.941 5.011 0 0 1.641.512 2.046-.35.405-.862.586-1.28.586-1.28s0 3.335.743 3.647c.743.312 2.23.52 2.561-.877 0 0 .5 1.206 1.265 1.035.765-.171 1.728-.511 1.824-1.4.096-.889.259-1.758.259-1.758s.131 1.345.819 1.195c.688-.15 1.313.037 1.883-.968.57-1.005 1.9-2.945 1.9-2.945l3.034.436z" fill="#B2655F"/><path d="M180.788 94.342c.043-.013-.058-.373-.094-.96a5.077 5.077 0 011.639-4.108c.431-.4.752-.593.729-.633a2.045 2.045 0 00-.86.481 4.641 4.641 0 00-1.707 4.28c.019.332.119.655.293.94zM178.559 87.56a4.493 4.493 0 00-.619 1.19 12.754 12.754 0 00-.828 6.373c.033.449.132.89.294 1.31a23.137 23.137 0 01-.007-4.513 23.06 23.06 0 011.16-4.36zM174.594 86.99a13.754 13.754 0 00-.563 6.84c.085-.007-.03-1.546.13-3.433.16-1.887.516-3.386.433-3.407z" fill="#8E4842"/><path d="M127.302 135.54l-.09-.675.09.675zM127.212 134.865l-.006-.049.006.049zM127.323 135.701l-.021-.161.021.161zM127.435 177.407a134.604 134.604 0 0014.388-8.43l-4.6-15.359-6.493 1.038c-.583-6.681-2.64-13.148-3.408-18.955l-7.878-26.061-17.17-1.566-20.868-1.528-13.285 1.92c-7.305 1.056-15.8 5.063-19.314 11.554-1.253 2.315-2.08 7.5-2.372 10.469-1.093 11.112 3.035 44.987 14.618 57.052l-5.866 17.487c-8.388 26.153 77.876 15.152 77.122 5.028-1.016-4.805-5.667-25.309-5.667-25.309l.793-7.34z" fill="#1C2E5C"/><path d="M127.206 134.816c-.005-.037-.005-.034 0 0z" fill="#1C2E5C"/><path d="M83.192 162.249c.107.153-2.37 1.584-4.324 4.4-1.994 2.791-2.5 5.606-2.683 5.557a12.46 12.46 0 017.007-9.959v.002z" fill="#263238"/><path opacity=".3" d="M61.419 187.6c1.706 3.632 5.392 6.045 9.276 7.053 3.934.843 7.99.95 11.962.316 15.952-1.869 42.891-17.675 42.441-17.371-20.184 11.379-55.744 15.786-63.68 10.002z" fill="#000"/><path d="M141.823 168.977a.852.852 0 01-.184.138l-.567.361c-.5.31-1.24.774-2.209 1.34a177.447 177.447 0 01-8.308 4.615 157.829 157.829 0 01-29.043 11.749 68.91 68.91 0 01-8.8 1.7c-2.864.395-5.64.664-8.284.884-2.645.22-5.158.384-7.522.485-2.194.092-4.391.042-6.578-.149a20.604 20.604 0 01-9.087-2.688 10.58 10.58 0 01-2-1.65l-.44-.512c-.1-.117-.142-.18-.135-.185a15.1 15.1 0 002.682 2.174 20.987 20.987 0 009.014 2.494c2.172.165 4.352.193 6.527.084 2.347-.118 4.863-.308 7.5-.531 2.637-.223 5.4-.511 8.255-.911a69.63 69.63 0 008.728-1.7 166.742 166.742 0 0029.014-11.575 246.389 246.389 0 008.375-4.462l2.257-1.255.593-.317a.707.707 0 01.212-.089zM137.224 153.618a.828.828 0 01-.23.064l-.681.135-2.628.469-9.681 1.63-31.969 5.184-8.8 1.4-.2.032-.077-.185-10.116-24.316-2.93-7.176c-.323-.812-.578-1.458-.768-1.938a4.306 4.306 0 01-.237-.684c.126.206.234.423.322.648.211.473.492 1.106.848 1.9l3.072 7.116 10.28 24.247-.275-.153 8.8-1.411 31.993-5.033 9.707-1.467 2.644-.373.689-.084a.819.819 0 01.237-.005zM122.288 121.696a23.237 23.237 0 001.172 3.192 111.013 111.013 0 012.688 7.716 109.491 109.491 0 012.075 7.9 23.26 23.26 0 00.809 3.3 15.493 15.493 0 00-.38-3.387 67.03 67.03 0 00-4.789-15.705 15.508 15.508 0 00-1.575-3.016zM120.086 102.838a3.365 3.365 0 01-1.283 1.823 2.938 2.938 0 01-2.477.481 3.077 3.077 0 01-2.1-2.474 2.825 2.825 0 01.4-1.887 5.874 5.874 0 011.489-1.6c1.189-.935 2.839-1.709 3.785-3.34a6.878 6.878 0 00.646-5.53 8.054 8.054 0 00-1.4-2.657 11.826 11.826 0 00-2.258-2.077 15.85 15.85 0 01-2.258-1.92 3.914 3.914 0 01-1.086-2.473c.003-.903.26-1.786.741-2.55a9.638 9.638 0 011.668-2.044 19.9 19.9 0 003.45-3.683 7.56 7.56 0 001.085-4.278 9.745 9.745 0 00-.965-3.506 18.484 18.484 0 01-.966-2.522 5.736 5.736 0 01-.138-2.27c-.008 0-.026.048-.054.144-.047.144-.08.291-.1.441a4.569 4.569 0 00.1 1.731c.23.884.531 1.747.9 2.582a9.65 9.65 0 01.871 3.414 7.246 7.246 0 01-1.084 4.047 19.99 19.99 0 01-3.418 3.571 10.092 10.092 0 00-1.759 2.132 5.284 5.284 0 00-.819 2.807 4.4 4.4 0 001.2 2.785c.711.735 1.49 1.4 2.326 1.988a11.402 11.402 0 012.172 1.988 7.613 7.613 0 011.322 2.49 6.44 6.44 0 01-.573 5.155c-.848 1.5-2.4 2.264-3.647 3.251a6.244 6.244 0 00-1.566 1.728 3.187 3.187 0 00-.419 2.133 3.367 3.367 0 002.371 2.687 3.25 3.25 0 003.726-1.977c.073-.188.113-.388.118-.59z" fill="#263238"/><path d="M69.656 52.183c.498.635.73 1.437.651 2.24a16.509 16.509 0 01-1.092 5.484 3.13 3.13 0 01-1.458 1.821c-.676.282-1.58-.037-2.3-1.06a5.16 5.16 0 01-.795-1.957 6.771 6.771 0 01.98-4.923 5.164 5.164 0 011.483-1.5c1.057-.675 2.015-.624 2.531-.105z" fill="#FDBC5A"/><path d="M61.51 79.539c-.954-2.72-.081-5.75 1.216-8.324 1.297-2.575 3.019-4.957 3.91-7.7.965-2.967.907-6.218 2.09-9.105a11.417 11.417 0 016.868-6.411c1.856-.616 3.918-.77 5.522-1.89 1.656-1.154 2.512-3.12 3.766-4.7 2.038-2.57 3.988-4.776 7.016-6.04 3.45-1.441 8.5-1.972 11.96-.561a9.981 9.981 0 014.916 4.806 20.936 20.936 0 011.888 6.729c3.54.68 5.587 4.305 7.158 7.549a14.64 14.64 0 011.854 5.744c.076 2.26-1.865 10.01-2.959 11.989-5.652 10.216-14.059 12.366-24.275 18.017-3.945 2.183-6.384 7.2-10.89 7.023-5.247-.2-10.354-.406-13.4-4.685-3.044-4.28-6.477-8.32-6.927-13.551" fill="#263238"/><path d="M115.545 63.38c-.288-7.318-4.915-16.4-12.213-15.8l-22.87 5.207a4.284 4.284 0 00-3.935 4.253l1.13 54.875-.157.03s4.777 15.594 19.922 11.261c3-.859 4.447-4.082 5.125-7.418l.153.023.046-1.148c.358-2.491.454-5.013.285-7.524.157-4.424.2-6.239.2-6.2 0 0 9.371-1.328 11.594-13.46 1.107-6.032 1.038-15.97.72-24.099z" fill="#B2655F"/><path d="M96.985 72.534a1.561 1.561 0 01-1.543 1.54 1.496 1.496 0 01-1.574-1.446 1.563 1.563 0 011.542-1.541 1.499 1.499 0 011.575 1.447zM113.061 72.534a1.565 1.565 0 01-1.544 1.54 1.497 1.497 0 01-1.577-1.446 1.564 1.564 0 011.542-1.54 1.501 1.501 0 011.579 1.446zM113.899 68.718c-.2.267-1.547-.791-3.379-.71-1.831.051-3.115 1.2-3.328.95-.1-.112.086-.587.644-1.107a4.184 4.184 0 012.647-1.079 4.141 4.141 0 012.707.887c.591.479.807.939.709 1.059zM96.952 68.962c-.24.24-1.555-.933-3.505-1.045-1.947-.143-3.437.845-3.635.576-.1-.12.154-.563.806-1.011a4.73 4.73 0 012.927-.776 4.612 4.612 0 012.772 1.149c.571.53.751 1 .635 1.107zM102.543 81.028a11.15 11.15 0 012.742-.428c.43-.034.838-.109.917-.4a2.177 2.177 0 00-.256-1.278l-1.192-3.3c-1.651-4.694-2.837-8.55-2.647-8.615.19-.064 1.683 3.687 3.335 8.382.4 1.158.777 2.261 1.138 3.317.258.524.322 1.122.182 1.69a1.08 1.08 0 01-.72.61c-.24.059-.486.087-.732.084a10.93 10.93 0 01-2.767-.062z" fill="#263238"/><path d="M103.232 100.941a30.987 30.987 0 01-16.207-4.737s3.894 8.729 16.11 7.879l.097-3.142zM101.736 85.059a3.027 3.027 0 00-2.688-1.19 2.764 2.764 0 00-1.934.98 1.751 1.751 0 00-.18 2 2.033 2.033 0 002.19.609 6.38 6.38 0 002.178-1.231c.193-.13.36-.295.492-.486a.558.558 0 00.012-.625" fill="#8E4842"/><path d="M97.568 82.07c.274-.009.234 1.815 1.765 3.147 1.531 1.332 3.478 1.178 3.486 1.433.022.115-.442.344-1.263.347a4.54 4.54 0 01-2.912-1.093 3.956 3.956 0 01-1.363-2.636c-.05-.764.164-1.21.287-1.198zM97.368 63.263c-.177.453-1.85.2-3.827.388-1.982.151-3.585.69-3.837.274-.113-.2.175-.622.828-1.049a6.69 6.69 0 015.84-.505c.713.31 1.07.677.996.892zM112.759 63.615c-.347.374-1.661-.053-3.251-.11-1.589-.105-2.945.187-3.246-.22-.131-.2.09-.574.687-.922a4.993 4.993 0 012.66-.562c.919.03 1.811.317 2.575.828.553.406.728.804.575.986z" fill="#263238"/><path d="M75.396 54.028c1.289-1.605 3.383-2.286 5.368-2.831a111.919 111.919 0 0126.277-3.943c.91 1.908-.346 4.253-2.123 5.4-1.777 1.147-3.945 1.447-5.989 1.985s-4.178 1.47-5.185 3.328c-1.07 1.976-.588 4.493-1.558 6.52-1.67 3.49-6.84 4.148-8.489 7.646-1.247 2.646-.433 2.04-.326 4.963.12 3.313-1.917 3.814-4.537 5.845-2.066 1.6-6.046 3.439-8.648 3.227.448-10.45 3.154-15.473 3.6-25.922.095-2.177.246-4.518 1.61-6.218z" fill="#263238"/><path d="M90.002 37.416a.991.991 0 01.216-.159c.212-.146.432-.28.659-.4.835-.45 1.727-.785 2.653-.995 1.377-.32 2.8-.384 4.2-.19a10.74 10.74 0 018.209 5.68 11.565 11.565 0 011.3 4c.13.94.13 1.893 0 2.833-.033.255-.08.508-.142.757a.965.965 0 01-.073.258c.186-1.266.194-2.552.021-3.82a11.712 11.712 0 00-1.33-3.9 10.659 10.659 0 00-8.025-5.553c-1.37-.2-2.766-.156-4.122.13-1.247.283-2.447.741-3.566 1.36z" fill="#1C2E5C"/><path d="M78.294 47.285c.117-.016.235-.02.353-.011.333.005.666-.026.993-.093a6.002 6.002 0 001.484-.53c.62-.327 1.21-.706 1.766-1.132.626-.466 1.284-1.017 2.014-1.584a13.287 13.287 0 012.493-1.6 13.724 13.724 0 016.613-1.292c2.28.11 4.494.802 6.431 2.01a13.726 13.726 0 013.976 3.82 13.11 13.11 0 011.674 3.325c.11.32.201.644.275.974.034.113.056.23.065.347-.031.008-.131-.47-.439-1.286a14.05 14.05 0 00-5.683-6.97 13.286 13.286 0 00-6.313-1.95 13.65 13.65 0 00-6.492 1.247c-.875.425-1.701.946-2.463 1.552-.732.555-1.4 1.1-2.038 1.559-.57.423-1.177.796-1.813 1.114-.485.237-1 .405-1.531.5a3.973 3.973 0 01-1.014.045 1.752 1.752 0 01-.351-.045zM68.036 60.305c.144 1.008.358 2.004.64 2.982a13.483 13.483 0 0010.412 9.3c1.004.17 2.018.27 3.035.3a.606.606 0 01-.212.033c-.139.01-.345.035-.61.033a12.1 12.1 0 01-2.247-.177 13.22 13.22 0 01-10.562-9.432 12.018 12.018 0 01-.424-2.216c-.032-.264-.029-.472-.037-.61a.659.659 0 01.005-.213z" fill="#1C2E5C"/><path d="M79.594 78.387a4.594 4.594 0 01-.825-.13 22.873 22.873 0 01-2.206-.569 16.738 16.738 0 01-6.537-3.646 10.89 10.89 0 01-3.378-6.614 7.845 7.845 0 01.082-2.283c.036-.203.085-.403.147-.6a.659.659 0 01.073-.2 10.789 10.789 0 00-.112 3.068 11.031 11.031 0 003.374 6.442 17.427 17.427 0 006.411 3.66c.9.305 1.652.512 2.17.648.273.054.54.129.801.224z" fill="#1C2E5C"/><path d="M117.807 45.34a11.75 11.75 0 00-7.725 1.473c.283-.284.613-.517.974-.69a9.169 9.169 0 015.592-1.066c.4.029.791.124 1.159.283z" fill="#263238"/><path d="M112.936 39.033c.096.419.127.85.091 1.278a11.025 11.025 0 01-1.885 5.831c-.222.369-.498.7-.821.984a18.395 18.395 0 001.919-3.849c.398-1.382.631-2.807.696-4.244z" fill="#263238"/><path d="M79.704 73.556c-.188-.09-7.616-2.6-7.688 5.082-.072 7.682 7.655 6.17 7.67 5.95.015-.22.018-11.032.018-11.032z" fill="#B2655F"/><path d="M77.368 81.655c-.034-.025-.135.092-.362.194-.32.133-.678.137-1 .011-.809-.306-1.48-1.6-1.5-2.985a4.4 4.4 0 01.392-1.912 1.547 1.547 0 011.016-1.018.681.681 0 01.786.374c.1.216.051.37.092.382.021.02.166-.127.107-.445a.857.857 0 00-.3-.484 1.008 1.008 0 00-.738-.2 1.879 1.879 0 00-1.409 1.178 4.553 4.553 0 00-.484 2.136c.035 1.548.814 3 1.921 3.336a1.435 1.435 0 001.226-.192c.236-.19.28-.36.253-.375z" fill="#8E4842"/><path d="M73.247 82.918a2.33 2.33 0 01-.353.22c-.23.143-.595.322-1.027.6a7.3 7.3 0 00-2.708 3.306 7.228 7.228 0 00.326 6.184 7.164 7.164 0 006.4 3.777 7.044 7.044 0 002.022-.313 6.733 6.733 0 001.8-.833 7.211 7.211 0 003.048-7.982 7.254 7.254 0 00-3.122-4.219c-.457-.276-.93-.523-1.418-.739a5.37 5.37 0 011.474.649 7.29 7.29 0 012.9 3.26 7.413 7.413 0 01-2.736 9.254 6.97 6.97 0 01-1.869.868 7.242 7.242 0 01-2.1.326 7.39 7.39 0 01-6.626-3.93 7.355 7.355 0 012.545-9.7c.447-.266.816-.429 1.057-.556.124-.069.253-.126.387-.172z" fill="#fff"/><path d="M67.42 59.486c.01.125.007.25-.007.375-.01.36-.046.718-.105 1.073a15.14 15.14 0 01-1.13 3.794c-.651 1.544-1.62 3.288-2.634 5.242a31.924 31.924 0 00-1.44 3.13 14.77 14.77 0 00-.942 3.55 13.088 13.088 0 001.041 6.942 14.1 14.1 0 001.583 2.667 71.2 71.2 0 001.663 2.158 92.128 92.128 0 002.536 3.026l.706.809c.088.09.167.188.236.293a1.962 1.962 0 01-.276-.256 36.353 36.353 0 01-.744-.775 63.756 63.756 0 01-2.606-2.976 65.63 65.63 0 01-1.7-2.146 14.14 14.14 0 01-1.63-2.7 13.226 13.226 0 01-1.082-7.078c.168-1.24.491-2.454.963-3.613a31.51 31.51 0 011.466-3.15c1.03-1.954 2.012-3.68 2.681-5.2.55-1.191.953-2.446 1.2-3.735.07-.35.12-.704.154-1.06.01-.125.033-.249.067-.37z" fill="#1C2E5C"/><path d="M564.445 209.837l-1.161-.351c-5.426 2.243-9.012 7.6-10.883 13.161-1.871 5.561-2.332 11.49-3.426 17.259-1.094 5.769-2.962 11.648-7.042 15.87a65.187 65.187 0 008.435 6.152 6.727 6.727 0 003.144 1.223c1.807.07 3.361-1.226 4.6-2.546 6.1-6.522 6.853-18.268 7.5-27.175.647-8.907 1.327-15.018-1.167-23.593z" fill="#FDBC5A"/><path opacity=".2" d="M560.087 213.2s-13.272 46.4-12.415 46.98c.857.58 3.482 2.21 3.482 2.21l12.1-48.551-3.167-.639z" fill="#000"/><path d="M568.785 201.815a3.993 3.993 0 00-3.575-3.54 5.7 5.7 0 00-2.667.479 5.699 5.699 0 00-2.146 1.654 10.265 10.265 0 00-2.09 5c-.42 2.525-.077 5.516 2.018 6.988a5.085 5.085 0 005.539-.073 7.478 7.478 0 003.079-4.824 14.5 14.5 0 00-.189-5.834" fill="#FDBC5A"/><path d="M564.379 209.495a3.87 3.87 0 01-.653-1.61 10 10 0 011.582-8.061c.641-.873 1.175-1.285 1.214-1.244-.266.504-.568.988-.906 1.447a11.548 11.548 0 00-1.529 7.786c.14.552.237 1.115.292 1.682zM562.433 213.784c.017.063-.252.213-.739.232a2.693 2.693 0 01-2.714-2.239c-.074-.481.023-.774.087-.77.143-.019.188 1.169 1.185 1.992a5.14 5.14 0 002.181.785z" fill="#263238"/><path d="M632.075 149.828l9.951 21.493-22.151-12.743 12.2-8.75z" fill="#FFBE9D"/><path d="M452.402 81.517l29.977 39.455 12.928-3.43 6.506 3.693 11.255-20.696-6.771-3.554-5.008-12.7-48.887-2.768z" fill="#FAFAFA"/><path d="M452.402 81.517l48.9 2.618.1.005.036.09 5.017 12.694-.075-.083 6.773 3.552.147.077-.08.147a57549.692 57549.692 0 01-11.256 20.696l-.082.152-.149-.085-6.505-3.7.124.016-12.93 3.421-.1.027-.062-.082-29.853-39.549 30.1 39.361-.163-.055 12.926-3.438.066-.017.058.033 6.507 3.691-.232.067 5.509-10.133c1.969-3.618 3.9-7.175 5.747-10.564l.067.224-6.769-3.557-.053-.028-.022-.055-5-12.7.133.1-48.879-2.925z" fill="#263238"/><path d="M488.38 93.003a7.065 7.065 0 013.74 7.004 7.07 7.07 0 01-.84 2.662 7.317 7.317 0 01-9.789 3.006 7.059 7.059 0 01-2.9-9.666 7.317 7.317 0 019.789-3.006z" fill="#263238"/><path d="M452.402 81.517c.043-.082 7.385 3.527 16.395 8.061s16.284 8.278 16.241 8.361c-.043.083-7.383-3.526-16.4-8.062s-16.279-8.277-16.236-8.36z" fill="#263238"/><path d="M686.688 202.339a11.664 11.664 0 01-15.547 4.821l-163.052-83.251 10.985-20.2 162.938 83.192a11.253 11.253 0 014.676 15.438z" fill="#FDBC5A"/><path d="M521.055 102.599l-12.918 23.753-8.263-4.337 12.918-23.753 8.263 4.337z" fill="#FDBC5A"/><path opacity=".3" d="M509.015 124.737l10.985-20.2 3.081 1.595-12.967 19.172-1.099-.567z" fill="#000"/><path opacity=".5" d="M503.414 115.505l11.944-2.957 1.928-3.019-12.275 3.039-1.597 2.937z" fill="#fff"/><path opacity=".2" d="M620.72 156.363a24.218 24.218 0 01.6 25.621l-.6-25.621z" fill="#000"/><path d="M590.551 411.212c.094.194 1.072-.123 2.287-.066 1.216.032 2.168.419 2.276.233.121-.158-.817-.933-2.249-.98-1.432-.047-2.424.646-2.314.813zM587.868 394.618c.177.122.869-.639 1.952-1.193 1.071-.577 2.09-.714 2.091-.929.027-.2-1.173-.4-2.439.267s-1.785 1.765-1.604 1.855z" fill="#263238"/><path d="M589.7 393.988l1.289 22.62s-22.559 8.907-22.728 13.111l43.949-.925-.562-35.327-21.948.521z" fill="#FDBC5A"/><path d="M604.539 414.418a1.8 1.8 0 011.284 2.022 1.727 1.727 0 01-1.993 1.29 1.89 1.89 0 01-1.349-2.148 1.792 1.792 0 012.222-1.112" fill="#E0E0E0"/><path d="M612.273 429.928v-4.709l-42.323 2.231s-1.939.892-1.689 2.266l44.012.212zM590.268 416.399c.012.215 1.087.29 2.157.958 1.088.639 1.652 1.558 1.848 1.468.2-.046-.15-1.322-1.46-2.108s-2.591-.513-2.545-.318zM585.703 418.403c-.045.209.892.554 1.64 1.447.774.87.979 1.848 1.192 1.834.2.029.325-1.231-.626-2.323-.951-1.092-2.206-1.163-2.206-.958zM583.201 423.975c.2.042.472-1.037-.1-2.2-.572-1.163-1.589-1.61-1.676-1.429-.118.179.547.8 1 1.758.482.951.562 1.854.776 1.871zM619.843 193.745s10.039 17.258 11.418 32.7c1.249 13.977-7.584 29.979-7.584 29.979l-15.262 57.461 4.5 98.257-24.405 1.252-14.08-112.642 4.259-104.851 41.154-2.156z" fill="#263238"/><path d="M578.568 380.092l12.356 18.991s-15.154 18.937-13.212 22.669l37.683-22.634-18.038-30.381-18.789 11.355z" fill="#FDBC5A"/><path d="M601.598 390.452a1.792 1.792 0 012.119 1.117 1.729 1.729 0 01-1.089 2.11 1.895 1.895 0 01-2.238-1.195 1.793 1.793 0 011.376-2.069" fill="#E0E0E0"/><path d="M615.397 399.118l-1.938-2.991-35.4 22.82s-1.239 1.738-.34 2.8l37.678-22.629zM590.2 399.259c.117.18 1.087-.289 2.348-.241 1.262.014 2.207.531 2.333.357.148-.138-.787-1.073-2.315-1.1-1.528-.027-2.507.839-2.366.984zM587.23 403.267c.065.2 1.05.038 2.142.441 1.1.371 1.767 1.117 1.946 1 .19-.074-.33-1.229-1.7-1.7-1.37-.471-2.489.082-2.388.259zM587.826 409.346c.191-.061-.1-1.134-1.183-1.858-1.083-.724-2.179-.608-2.165-.408-.013.214.871.419 1.746 1.027.89.587 1.409 1.331 1.602 1.239zM566.79 200.636s-29.699 106.828-23.322 118.792c6.377 11.964 39.14 78.543 39.14 78.543l27.516-15.154-31.439-73.445 23.9-52.572s11.45-9.97 15.876-23.928-3.212-36.971-3.212-36.971h-47.791l-.668 4.735z" fill="#263238"/><path d="M619.843 218.085s.082.278.188.827c.106.549.254 1.366.4 2.441.441 3.113.636 6.256.586 9.4a37.803 37.803 0 01-.744 6.716 21.043 21.043 0 01-1.112 3.692 24.636 24.636 0 01-1.923 3.678 30.726 30.726 0 01-14.57 12.189l.143-.129-23.852 52.593v-.237c.433 1.011.9 2.1 1.368 3.2l29.991 70.283.074.174-.164.09-20.183 11.006-5.5 2.965-1.437.757c-.325.168-.5.241-.5.241s.155-.108.471-.293l1.408-.809 5.445-3.061 20.093-11.172-.091.263-30.15-70.216c-.468-1.1-.935-2.185-1.368-3.2l-.051-.119.054-.118c8.888-19.5 17.117-37.562 23.946-52.55l.041-.089.1-.04a30.418 30.418 0 0014.4-11.939 24.285 24.285 0 001.916-3.608 20.812 20.812 0 001.122-3.626c.46-2.189.726-4.415.795-6.651a64.268 64.268 0 00-.453-9.375c-.123-1.076-.249-1.9-.328-2.448-.079-.548-.115-.835-.115-.835z" fill="#1C2E5C"/><path d="M578.689 219.854c.183-.034.368-.054.554-.061l1.673-.125 6.4-.428 22.862-1.415.275-.017v.277l.032 22.307v.134l-.1.088-3.439 2.942-11.722 10.012-.143.122-.168-.084-15.235-7.612-.131-.065-.005-.143-.674-18.906-.158-5.221-.029-1.357a2.58 2.58 0 01.008-.448c.027.165.043.333.048.5l.088 1.4.286 5.27.919 18.743-.135-.208 15.27 7.542-.31.038 11.708-10.027 3.44-2.941-.1.223.032-22.307.275.261-22.71 1.144-6.466.294-1.728.066a5.081 5.081 0 01-.617.002z" fill="#1C2E5C"/><path d="M610.099 222.264c-.394.134-.802.22-1.217.256-.789.128-1.934.285-3.351.457-2.835.345-6.763.729-11.113 1s-8.3.373-11.153.381c-1.427 0-2.583-.01-3.381-.04a5.11 5.11 0 01-1.24-.1 5.048 5.048 0 011.237-.126l3.375-.147c2.849-.113 6.784-.283 11.126-.551 4.342-.268 8.265-.588 11.106-.827l3.367-.272c.412-.061.83-.072 1.244-.031zM567.519 146.254a39.747 39.747 0 00-3.113 19.108c.448 4.187 2.915 14.858 2.915 14.858l-.336 20.416s54.159-4.057 54.115-4.167c-.044-.11.588-25.71.1-43.712-.488-18.002-8.4-36.524-8.4-36.524s-7.205-4.162-12.612-3.709c-5.407.453-28.066 2.991-28.066 2.991l-4.603 30.739z" fill="#1C2E5C"/><path d="M571.239 116.201s-9.043 1.308-17.435 14.48c-8.667 13.6-12.639 19.232-12.639 19.232l24.7 16.134s13.612-20.52 15.314-24.923c1.702-4.403 3.599-25.335-9.94-24.923zM607.444 114.819s7.817 3.091 11.046 8.065c2.1 3.237 15.031 25.94 15.031 25.94l-14.859 10.347-11.218-31.515v-12.837z" fill="#1C2E5C"/><path opacity=".2" d="M563.952 168.928l2.86 1.29s13.5-17.9 14.036-27.99l-14.831 22.979-2.492-1.318.427 5.039z" fill="#000"/><path d="M619.152 130.681c.06.161.098.329.113.5l.222 1.461c.181 1.269.418 3.11.667 5.39.509 4.558 1.058 10.874 1.414 17.863.356 6.989.483 13.328.516 17.913a252.51 252.51 0 01-.017 5.43l-.037 1.477c.006.173-.01.346-.049.515a1.897 1.897 0 01-.056-.515l-.061-1.475-.148-5.426c-.127-4.581-.3-10.909-.668-17.892a488.569 488.569 0 00-1.26-17.853c-.207-2.223-.376-4.05-.5-5.4l-.125-1.471a1.989 1.989 0 01-.011-.517zM615.21 89.714c-1.134-5.766-3.509-11.2-5.321-16.79-2.11-6.508-3.749-13.721-9-18.108-3.465-2.9-8.015-4.092-12.44-4.99-4.009-.814-8.164-1.45-12.169-.617-2 .416-3.911 1.189-5.9 1.67-2.3.558-4.731.73-6.885 1.72-4.451 2.047-6.723 7.129-7.39 11.982-.667 4.853-.118 9.814-.812 14.663a67.734 67.734 0 01-1.521 6.884c-2.052 4.432-4.3 8.86-3.979 13.6.232 3.431 1.808 6.615 2.566 9.969.758 3.354.449 7.384-2.262 9.5a5.14 5.14 0 006.31.334 5.089 5.089 0 001.974-3.606 3.53 3.53 0 001.36 1.126 8.677 8.677 0 004.427.35c4.311-.413 8.788-.918 12.541-3l21.11-1.8c5.447 2.2 12.02-.853 15.152-5.826 3.132-4.973 3.373-11.296 2.239-17.061z" fill="#263238"/><path d="M572.401 53.71c-2.044.41-4.2.107-6.206.672-2.905.819-5.063 3.378-6.173 6.185a29.596 29.596 0 00-1.545 8.886c-.19 2.7-.38 5.4-.568 8.1a25.281 25.281 0 01-.722 5.157c-.532 1.866-1.982 6.829-2.076 9.255a26.136 26.136 0 006.033 18.295c1.862 2.109 10.534 2.162 13.291 2.719 1.216-1.062 4.253-1.052 5.468-2.115.208-.181-8.821-7.085-8.715-7.339a1.877 1.877 0 00-.12-1.308 64.544 64.544 0 012.723-48.064" fill="#263238"/><path d="M596.832 115.506l3.157-49.613a4.152 4.152 0 00-3.708-4.222l-22.035-5.621c-7.059-.763-11.773 7.92-12.235 15.006-.514 7.87-.83 17.5.09 23.378 1.849 11.816 10.9 13.339 10.9 13.339 0-.06.746 7.929.746 7.929s5.729-1.012 9.964-1.467c9.391-1.007 13.121 1.271 13.121 1.271z" fill="#FFBE9D"/><path d="M564.743 79.876a1.514 1.514 0 001.458 1.532 1.45 1.45 0 001.564-1.363 1.513 1.513 0 00-1.455-1.532 1.45 1.45 0 00-1.567 1.363zM564.768 76.41c.187.2 1.337-.648 2.967-.64 1.629-.016 2.823.825 3 .626.087-.088-.1-.445-.623-.825a4.156 4.156 0 00-2.4-.746 4 4 0 00-2.363.756c-.505.384-.675.741-.581.83zM579.715 80.075a1.514 1.514 0 001.457 1.532 1.445 1.445 0 001.419-.807c.086-.174.135-.363.146-.556a1.514 1.514 0 00-1.456-1.532 1.45 1.45 0 00-1.566 1.363zM580.788 76.41c.188.2 1.339-.648 2.968-.64 1.628-.016 2.823.825 3 .626.087-.088-.1-.445-.624-.825a4.16 4.16 0 00-2.4-.747 3.998 3.998 0 00-2.362.757c-.502.384-.673.74-.582.829zM574.846 88.486a10.78 10.78 0 00-2.647-.484c-.416-.044-.81-.127-.879-.41-.034-.43.063-.86.28-1.234l1.238-3.167c1.72-4.509 2.966-8.217 2.783-8.285-.183-.068-1.724 3.532-3.443 8.041l-1.186 3.186a2.408 2.408 0 00-.22 1.633 1.04 1.04 0 00.684.611c.23.064.467.097.706.1.891.117 1.793.12 2.684.01z" fill="#263238"/><path d="M573 107.773a31.859 31.859 0 0016.505-4.185s-4.337 8.986-16.156 7.855l-.349-3.67zM580.343 91.928a3.099 3.099 0 00-2.137-1.152 3.391 3.391 0 00-3.043 1.253l-.081.062a.632.632 0 000 .7c.142.218.325.407.537.558a7.137 7.137 0 002.4 1.442 2.277 2.277 0 002.47-.62 1.96 1.96 0 00-.146-2.243z" fill="#EB996E"/><path d="M579.641 89.628c-.266-.016-.273 1.754-1.79 3.006-1.517 1.252-3.4 1.054-3.415 1.3-.025.111.42.345 1.215.368a4.407 4.407 0 002.851-.986 3.84 3.84 0 001.387-2.52c.069-.743-.127-1.182-.248-1.168zM579.792 70.585c.159.444 1.787.237 3.7.472 1.917.2 3.458.759 3.713.362.113-.19-.155-.607-.777-1.037a6.478 6.478 0 00-5.647-.636c-.704.282-1.058.629-.989.839zM564.742 71.228c.286.371 1.41-.01 2.76-.026 1.35-.062 2.494.255 2.758-.132.115-.188-.064-.559-.563-.91a4.002 4.002 0 00-4.445.127c-.478.376-.636.756-.51.941z" fill="#263238"/><path d="M554.768 118.083a3.517 3.517 0 01-.236-.7 24.696 24.696 0 01-.5-2.047 37.478 37.478 0 01-.79-7.711c.013-3.851.57-7.68 1.654-11.376 1.124-4.177 2.822-8.638 3.591-13.528.731-4.9.536-9.678 1.142-13.987a21.61 21.61 0 014.017-10.73 12.585 12.585 0 016.353-4.368 7.12 7.12 0 012.828-.293 14.59 14.59 0 00-2.763.513 12.667 12.667 0 00-6.092 4.4 21.496 21.496 0 00-3.806 10.544c-.571 4.254-.358 9.03-1.1 14.006-.785 4.976-2.507 9.443-3.651 13.585a41.81 41.81 0 00-1.76 11.233 41.45 41.45 0 00.6 7.666c.15.9.3 1.591.394 2.061.066.239.106.485.119.732z" fill="#1C2E5C"/><path d="M570.929 55.259a2.816 2.816 0 011.208-1.653 16.82 16.82 0 0112.825-2.931 29.947 29.947 0 0112.3 5.338c3.228 2.236 6.272 4.967 7.908 8.537a28.323 28.323 0 011.918 8.059c.929 6.808 2.756 13.63 2.69 20.5-.026 2.676.459 7.179 0 10.478-.488 3.524-3.907 7.822-7.377 8.609l-7.822.78s4.234-14.6 3.907-19.867c-.287-4.613-.246-9.671-.766-14.263a1.879 1.879 0 00-1.347-1.858l-4.885-2.5a47.48 47.48 0 01-4.6-2.568 42.866 42.866 0 01-4.616-3.181c-2.113-1.808-4.05-3.251-6.163-5.059a24.546 24.546 0 01-3.842-4.586 6.297 6.297 0 01-1.05-4.958" fill="#263238"/><path d="M597.168 82.07a3.443 3.443 0 015.041-2.932c1.2.691 2.111 2.081 2 4.75-.293 7.114-7.375 5.352-7.379 5.148-.001-.127.192-4.024.338-6.967z" fill="#FFBE9D"/><path d="M599.116 86.428c.032-.022.121.091.326.2.289.138.621.159.926.057a3.076 3.076 0 001.532-2.693c.043-.61-.05-1.22-.274-1.789a1.435 1.435 0 00-.893-.99.632.632 0 00-.745.31c-.1.195-.065.34-.1.35-.021.017-.148-.126-.078-.417a.788.788 0 01.3-.435.937.937 0 01.693-.153 1.749 1.749 0 011.249 1.157c.278.628.397 1.315.348 2-.1 1.431-.894 2.743-1.934 3a1.328 1.328 0 01-1.126-.235c-.218-.188-.249-.349-.224-.362z" fill="#EB996E"/><path d="M608.968 70.868a24.962 24.962 0 00-4.931-3.023 38.136 38.136 0 00-5.965-1.991c-2.3-.615-4.865-1.165-7.511-1.987a38.507 38.507 0 01-12.49-6.566 33.243 33.243 0 01-3.194-2.861 7.1 7.1 0 01-1.034-1.185c.425.306.824.647 1.192 1.02a47.218 47.218 0 003.289 2.7 41.094 41.094 0 0012.412 6.336c2.612.81 5.174 1.377 7.477 2.025a35.127 35.127 0 016 2.136 17.06 17.06 0 013.637 2.29c.301.25.586.517.855.8.189.185.28.292.263.306z" fill="#1C2E5C"/><path d="M605.938 61.669c2.722 8.795 7.164 16.84 9.893 23.19 1.264 2.94 3.087 6.413 3.67 9.559.641 3.459-.841 6.9-1.661 10.325-.82 3.425-.7 7.635 2.142 9.7a22.753 22.753 0 01-13.433 4.847 4.196 4.196 0 01-2.622-.571 1.665 1.665 0 01-.713-1.099 1.652 1.652 0 01.313-1.272 11.676 11.676 0 01-7.124 3.43 11.674 11.674 0 01-7.676-1.9c-.321-3.8-.565-7.916 1.526-11.1 1.708-2.6 4.8-4.24 5.92-7.142.671-1.731-.215-3.906.079-5.74.294-1.832 1.509-4.275 2.054-4.524a9.03 9.03 0 009.618-6.644l.152-.568-2.138-20.491z" fill="#263238"/><path d="M604.205 112.608c.1-.251.224-.491.371-.718l1.119-2.02a51.374 51.374 0 003.446-7.73 31.475 31.475 0 001.786-12.3 21.9 21.9 0 00-5.747-13.782c-3.773-3.927-8.568-6.23-12.839-8.208a95.903 95.903 0 01-11.313-5.612 26.573 26.573 0 01-6.529-5.467 15.591 15.591 0 01-1.371-1.872 4.107 4.107 0 01-.4-.7c.055-.037.618.93 1.943 2.425a27.868 27.868 0 006.573 5.262 101.715 101.715 0 0011.32 5.474c4.294 1.96 9.162 4.264 13.041 8.3a22.28 22.28 0 015.861 14.152 31.293 31.293 0 01-1.934 12.472 46.493 46.493 0 01-3.639 7.7 41.204 41.204 0 01-1.217 1.97 4.223 4.223 0 01-.471.654z" fill="#1C2E5C"/><path d="M582.234 139.693c-.09-.042.6-1.268 1.125-3.435a16.098 16.098 0 00-4.793-15.786c-1.639-1.511-2.9-2.144-2.845-2.229.318.089.62.227.895.409.782.441 1.519.959 2.2 1.545a15.614 15.614 0 014.905 16.153 13.715 13.715 0 01-.965 2.506 3.145 3.145 0 01-.522.837z" fill="#263238"/><path d="M563.343 209.397l23.246.508a1.975 1.975 0 011.929 2.052c-.475 11.52-2.592 68.7 2.152 69.6 5.277.992 10.869-9.073 18.624-5.574 7.755 3.499 16.952 7.441 21.282 3.064 4.33-4.377 7.8-55.087-9.477-82.826l-54.962 3.156-2.794 10.02z" fill="#FDBC5A"/><path d="M591.977 203.086a4.849 4.849 0 01-1.142.027l-3.1-.065a122.181 122.181 0 00-10.212.262c-3.98.274-7.566.749-10.152 1.153l-3.061.494a4.876 4.876 0 01-1.135.132c.35-.154.717-.265 1.094-.331.712-.183 1.75-.409 3.04-.658a87.697 87.697 0 0120.438-1.42c1.311.067 2.371.148 3.1.231a4.81 4.81 0 011.13.175zM603.677 209.534a9.718 9.718 0 01-1.609-.249c-1.028-.2-2.517-.473-4.36-.791-3.684-.638-8.8-1.374-14.486-1.822a157.973 157.973 0 00-14.6-.45c-1.87.028-3.383.067-4.429.1a9.632 9.632 0 01-1.629 0 9.658 9.658 0 011.617-.2c1.044-.1 2.558-.194 4.431-.269 9.775-.363 19.559.401 29.159 2.278 1.839.365 3.32.694 4.336.955a9.73 9.73 0 011.57.448zM612.823 229.937c.041.496.036.994-.013 1.489-.045 1.052-.1 2.412-.171 4.046a196.342 196.342 0 00-.048 13.347c.164 5.21.556 9.919.9 13.319l.429 4.027c.082.491.118.988.109 1.485a8.056 8.056 0 01-.309-1.457 93.765 93.765 0 01-.6-4.013c-.443-3.4-.888-8.115-1.058-13.344-.17-5.229-.024-9.964.2-13.382.111-1.71.228-3.091.337-4.043.029-.497.104-.991.224-1.474zM620.344 265.035c-.143.012-1.1-10.239-2.139-22.893-1.039-12.654-1.763-22.927-1.619-22.939.144-.012 1.1 10.237 2.139 22.9 1.039 12.663 1.762 22.925 1.619 22.932z" fill="#263238"/><path d="M543.894 151.648l-2.006 2.667-.723-13.576-13.686-4.6s-3.218 34.124-2.728 39.417c.535 5.782.652 6.069 2.119 8.706 1.877 3.374 8.408 5.729 12.141 4.741 3.8-1.007 7.734-6.073 10.719-9.11 5.426-5.519 13.795-16.007 13.795-16.007l-19.631-12.238z" fill="#FFBE9D"/><path d="M543.894 151.648c-.437.8-.939 1.562-1.5 2.28-.957 1.38-2.256 3.3-3.6 5.477a130.846 130.846 0 00-3.293 5.67 16.786 16.786 0 01-1.372 2.356c.253-.877.604-1.724 1.044-2.524a64.507 64.507 0 016.928-11.2 12.34 12.34 0 011.793-2.059z" fill="#EB996E"/><path d="M527.394 137.878l-5.332-3.006c-2.146-1.7-4.111-3.375-4.628-6.064 0 0 15.555 6.95 16.8 7.589 1.245.639 7.106 3 6.931 5.43l-13.771-3.949z" fill="#FFBE9D"/><path opacity=".2" d="M583.118 202.023c5.752-.137 11.51-.1 17.253.26 1.159.074 2.678.531 2.632 1.691a1.55 1.55 0 01-1.148 1.3 4.554 4.554 0 01-1.838.061l-15.327-1.578a45.949 45.949 0 00-20.627 1.509l-.2-1.26s16.005-1.906 19.255-1.983z" fill="#000"/><path d="M323.503 357.411l17.512-17.315-31.232-53.484a30.15 30.15 0 00-11.986-8.337l-11-4.181-27.343-5.016-19.413 7.645a11.606 11.606 0 00-7.273 12.17l5.078 42.747 2.991 55.661 70.544-12.236-7.1-20.587.239-32.1 18.983 35.033z" fill="#FDBC5A"/><path d="M304.931 353.112c.165 0 .207-11.121.1-24.833-.107-13.712-.337-24.832-.5-24.831-.163.001-.207 11.119-.1 24.836.107 13.717.337 24.829.5 24.828z" fill="#263238"/><path d="M302.347 361.27l-42.626-17.159a9.738 9.738 0 01-6.074-8.294l-3.119-40.867s.369-17.381-10.487-18.227l-6.176 2.433c-7.982 4.239-9.96 15.86-8.873 24.833 1.543 12.749 2.187 30.792 3.915 41.857 1.413 9.051 6.848 16.211 15.457 19.345l52.5 11.365 5.483-15.286z" fill="#FDBC5A"/><path d="M251.139 301.184c.07.308.115.621.134.936.067.667.158 1.564.274 2.693.218 2.4.525 5.767.9 9.911l1.264 14.7.357 4.25c.081 1.469.263 2.93.545 4.373a7.265 7.265 0 002.118 3.83 14.423 14.423 0 003.937 2.451c11.754 5.086 22.586 9.285 30.45 12.23l9.335 3.439 2.539.936c.3.098.592.219.873.362a5.749 5.749 0 01-.911-.253l-2.574-.835a403.46 403.46 0 01-9.4-3.27 536.76 536.76 0 01-30.548-12.091 14.887 14.887 0 01-4.086-2.554 7.815 7.815 0 01-2.278-4.115 32.012 32.012 0 01-.543-4.451l-.338-4.253-1.143-14.717-.72-9.926-.167-2.7a5.976 5.976 0 01-.018-.946zM226.717 323.401c.052.178.081.362.085.548l.141 1.578c.127 1.456.3 3.416.505 5.8.234 2.446.531 5.356.955 8.574a81.936 81.936 0 001.925 10.352 15.447 15.447 0 002.08 4.936 28.33 28.33 0 003.185 3.912 27.225 27.225 0 006.82 5.117 25.617 25.617 0 007.487 2.451 2.016 2.016 0 01-.554-.013 11.762 11.762 0 01-1.577-.2 20.866 20.866 0 01-5.539-1.875 26.75 26.75 0 01-7.012-5.108 28.143 28.143 0 01-3.272-3.968 15.878 15.878 0 01-2.168-5.1 77.176 77.176 0 01-1.9-10.437c-.4-3.232-.653-6.153-.835-8.607a157.531 157.531 0 01-.326-5.82l-.034-1.585a1.986 1.986 0 01.034-.555z" fill="#263238"/><path d="M244.945 351.998c.109-.8.373-1.572.776-2.272a14.671 14.671 0 013.578-4.566 14.674 14.674 0 015.07-2.82 6.279 6.279 0 012.365-.411c.017.1-.878.273-2.233.792a16.586 16.586 0 00-8.425 7.2c-.724 1.253-1.04 2.107-1.131 2.077z" fill="#263238"/><path opacity=".3" d="M290.097 356.399c-4.557-2.574-9.017-4.552-13.783-6.718-4.766-2.166-9.433-4.946-12.552-9.15-5.883-7.929-5.213-19.372-11.234-27.2l1.179 15.783c.361 4.822-.378 9.59 2.728 12.867 2.616 2.761 7.718 4.878 11.33 6.069 7.258 2.4 15.074 5.951 22.332 8.345M304.531 306.458l3.687 22.744-3.491-6.442-.196-16.302z" fill="#000"/><path d="M251.268 296.085c-.088.015-.221-1.444-1.016-3.631a18.3 18.3 0 00-12.922-11.61c-2.259-.558-3.723-.535-3.718-.624a3.845 3.845 0 011.022-.039c.931.034 1.858.151 2.769.351a17.7 17.7 0 0113.151 11.817c.294.884.51 1.793.644 2.715.069.336.092.679.07 1.021zM302.053 284.49a72.716 72.716 0 011.5 7.95 72.68 72.68 0 011.054 8.023 72.218 72.218 0 01-1.5-7.951c-.5-2.652-.852-5.33-1.054-8.022z" fill="#263238"/><path d="M349.561 412.648s32.763 9.068 34.077 9.531c1.974.7 1.643 7.926-1.429 7.813-1.453-.053-25.165.883-28.161.7-2.996-.183-12.035-3.749-12.035-3.749l7.548-14.295z" fill="#FDBC5A"/><path d="M363.209 425.15a14.359 14.359 0 013.761-6.534 7.284 7.284 0 00-3.761 6.534zM359.793 423.601c.161.028.493-1.521 1.365-3.233.856-1.72 1.9-2.909 1.784-3.021a8.215 8.215 0 00-3.149 6.254zM356.589 422.742a11.51 11.51 0 012.551-6.525 6.157 6.157 0 00-2.551 6.525z" fill="#263238"/><path d="M357.168 418.511a5.8 5.8 0 00.351-2.438 11.543 11.543 0 00-.819-4.193 1.83 1.83 0 00-.525-.8.875.875 0 00-1.125.055 1.454 1.454 0 00-.437.927 7.248 7.248 0 00.158 2.465 9.723 9.723 0 001.008 2.5 6.603 6.603 0 001.472 1.973c.075-.052-.474-.816-1.128-2.152a10.725 10.725 0 01-.859-2.436 7.203 7.203 0 01-.158-1.5c.014-.5.007-1.132.3-1.374a.319.319 0 01.433-.037c.165.158.289.355.359.573.197.471.364.953.5 1.445.229.837.374 1.694.434 2.559.099 1.492-.051 2.42.036 2.433z" fill="#263238"/><path d="M357.13 418.177a4.605 4.605 0 00-2.113-.341 9.537 9.537 0 00-2.325.285 5.193 5.193 0 00-1.339.493 1.38 1.38 0 00-.74 1.5 1.63 1.63 0 001.18 1.17c.482.122.988.122 1.47 0a5.628 5.628 0 002.128-1.046 5.767 5.767 0 001.524-1.5c-.61.351-1.193.746-1.745 1.182a5.81 5.81 0 01-2.01.87 2.586 2.586 0 01-1.215-.017 1.117 1.117 0 01-.8-.779.843.843 0 01.487-.914 4.986 4.986 0 011.188-.464 11.028 11.028 0 012.208-.385c1.284-.097 2.088.034 2.102-.054zM368.244 425.5a8.844 8.844 0 012.25-5.519 4.7 4.7 0 00-2.25 5.519zM345.383 427.013a6.8 6.8 0 001.267.6c1.188.459 2.406.836 3.646 1.13a52.003 52.003 0 0012.508 1.185c4.91-.054 9.334-.277 12.543-.406l3.8-.2a6.827 6.827 0 001.389-.148 6.904 6.904 0 00-1.4-.065l-3.8.027-12.533.245a58.588 58.588 0 01-12.42-1.015c-3.133-.649-4.962-1.455-5-1.353z" fill="#263238"/><path d="M344.414 427.759c.044.076.941-.448 2.455-1.111a11.4 11.4 0 016.2-1.031 9.816 9.816 0 015.359 3.188c.584.686 1.215 1.33 1.888 1.928a10.134 10.134 0 00-1.6-2.191 12.994 12.994 0 00-2.173-2.032 7.776 7.776 0 00-3.384-1.435 10.835 10.835 0 00-6.45 1.221 8.729 8.729 0 00-2.295 1.463z" fill="#263238"/><path d="M310.785 405.043s-31 20.3-32.114 21.138c-1.67 1.262.245 7.269 3.137 6.229 1.368-.492 27.384-7.729 30.181-8.817 2.797-1.088 10.328-7.228 10.328-7.228l-11.532-11.322z" fill="#FDBC5A"/><path d="M301.578 421.099a7.277 7.277 0 00-5.567-5.083 30.668 30.668 0 013.123 2.169 30.77 30.77 0 012.444 2.914zM304.362 418.585a8.212 8.212 0 00-4.9-5c-.078.143 1.28.958 2.617 2.337 1.337 1.379 2.139 2.739 2.283 2.663zM307.155 416.794a6.15 6.15 0 00-4.412-5.442 11.508 11.508 0 014.412 5.442z" fill="#263238"/><path d="M305.315 412.939c.082-.039-.342-.878-.7-2.32a13.18 13.18 0 01-.365-2.569c-.021-.51-.009-1.02.034-1.528.001-.229.059-.454.169-.655a.322.322 0 01.192-.134.321.321 0 01.231.034c.354.141.539.743.706 1.219.151.479.251.973.3 1.474.077.86.051 1.727-.079 2.581-.218 1.472-.509 2.366-.421 2.393.41-.719.681-1.508.8-2.326a9.745 9.745 0 00.2-2.693 7.225 7.225 0 00-.3-1.589 6.176 6.176 0 00-.3-.812 1.448 1.448 0 00-.7-.75.876.876 0 00-1.089.289c-.166.28-.254.599-.256.924a11.242 11.242 0 000 1.6c.061.898.227 1.786.495 2.646a5.835 5.835 0 001.083 2.216z" fill="#263238"/><path d="M305.253 412.609c.04.08.766-.289 2.015-.593a11.01 11.01 0 012.22-.3 4.996 4.996 0 011.274.08.843.843 0 01.741.723 1.113 1.113 0 01-.524.985c-.348.218-.743.35-1.152.385a5.815 5.815 0 01-2.179-.219 14.354 14.354 0 00-2.022-.6 5.73 5.73 0 001.907.967c.748.281 1.548.4 2.346.35a3 3 0 001.4-.442c.248-.154.45-.372.585-.632.136-.259.199-.549.184-.841a1.385 1.385 0 00-1.159-1.2 5.088 5.088 0 00-1.426-.063 9.433 9.433 0 00-2.3.435 4.602 4.602 0 00-1.91.965zM285.759 431.278c.035.048.521-.314.758-1.2a4.575 4.575 0 00-.58-3.364 12.304 12.304 0 00-1.039-1.548 5.642 5.642 0 00-1.053-1.129 1.83 1.83 0 00-.99-.415c-.26-.011-.392.052-.388.084.418.122.803.336 1.128.627.336.345.635.724.894 1.13.348.488.671.993.967 1.514a4.79 4.79 0 01.681 3.023c-.113.801-.451 1.228-.378 1.278zM296.888 422.962a4.7 4.7 0 00-3.82-4.576 8.828 8.828 0 013.82 4.576z" fill="#263238"/><path d="M319.129 417.46c-.477.276-.933.589-1.363.935a38.89 38.89 0 01-3.822 2.342 50.253 50.253 0 01-6.072 2.7c-2.348.875-4.98 1.7-7.765 2.508-5.578 1.606-10.627 3.074-14.27 4.17l-4.308 1.323a9.489 9.489 0 00-1.559.557 9.703 9.703 0 001.618-.352l4.355-1.155c3.672-1 8.734-2.409 14.317-4.017 2.79-.809 5.435-1.653 7.791-2.562a45.624 45.624 0 006.08-2.835 30.472 30.472 0 003.762-2.511 8.52 8.52 0 001.236-1.103z" fill="#263238"/><path d="M320.278 417.877a8.676 8.676 0 00-2.627-.7 10.837 10.837 0 00-6.515.8 7.803 7.803 0 00-2.79 2.395 13.07 13.07 0 00-1.453 2.6 10.137 10.137 0 00-.861 2.575c.46-.774.866-1.58 1.213-2.411a9.82 9.82 0 014.137-4.664 11.416 11.416 0 016.22-.9c1.644.163 2.657.391 2.676.305zM375.234 354.278s9.3 3.321 9.34 13.75c.075 19.976-40.362 42-40.362 42L290.4 374.373l-3.373-1.365s72.641-27.291 88.207-18.73z" fill="#263238"/><path d="M317.658 392.377a9.764 9.764 0 001.4-.95 158.07 158.07 0 003.68-2.779 306.108 306.108 0 0011.783-9.627c4.51-3.87 8.48-7.507 11.3-10.193a149.827 149.827 0 003.3-3.217 9.955 9.955 0 001.152-1.242 10.08 10.08 0 00-1.3 1.087l-3.42 3.088a598.383 598.383 0 01-11.393 10.061 579.176 579.176 0 01-11.667 9.739l-3.57 2.915c-.452.337-.875.711-1.265 1.118zM360.043 361.745a13.339 13.339 0 00-9.8 2.891c.09.143 2.051-1.107 4.766-1.894 2.71-.814 5.037-.829 5.034-.997z" fill="#1C2E5C"/><path d="M355.408 358.597a8.182 8.182 0 00-4.865 6.023c.157.055.745-1.621 2.1-3.279 1.336-1.674 2.851-2.603 2.765-2.744z" fill="#1C2E5C"/><path d="M378.193 421.848c.029-.062-.642-.192-1.387.421a5.036 5.036 0 00-1.555 3.124 6.137 6.137 0 00.491 3.443c.38.818.8 1.2.846 1.163.074-.051-.221-.505-.487-1.307a6.992 6.992 0 01-.307-3.222 5.404 5.404 0 011.274-2.913c.569-.598 1.137-.621 1.125-.709z" fill="#263238"/><path d="M371.387 325.904l-15.309 41.24a5.943 5.943 0 01-5.65 3.874l-84.269-1.109v-6.4l31.27 1.142 13.276-41.165a3.368 3.368 0 011.224-1.688 3.367 3.367 0 011.984-.641l54.359.158a3.36 3.36 0 013.115 4.589z" fill="#E0E0E0"/><path d="M371.387 325.904s.01-.044.036-.13a3.382 3.382 0 00.071-1.932 3.369 3.369 0 00-1.48-1.993 3.283 3.283 0 00-1.53-.483c-.581-.027-1.21-.007-1.871-.014l-22.679-.026-15.889-.03-8.927-.019-4.69-.01a3.691 3.691 0 00-2.243.493 3.277 3.277 0 00-1.4 1.834l-13.23 41.094-.031.1h-.1l-31.27-1.138.141-.135v6.4l-.134-.136 52.993.71 23.035.316 5.309.074 2.582.036a6.155 6.155 0 002.45-.358 5.84 5.84 0 003.376-3.251l1.645-4.395 10.107-27.1 2.753-7.346c.632-1.677.976-2.552.976-2.552s-.31.888-.926 2.571c-.616 1.683-1.533 4.172-2.706 7.363l-10.027 27.132a4386.62 4386.62 0 01-1.639 4.4 6.026 6.026 0 01-3.488 3.369 6.36 6.36 0 01-2.524.375l-2.582-.032-5.309-.066-23.036-.297-52.993-.685h-.134v-6.678l.141.005 31.27 1.145-.131.092 13.269-41.083a3.509 3.509 0 011.496-1.956 3.925 3.925 0 012.363-.524l4.69.017 8.928.033 15.889.062 22.678.1c.664.01 1.286-.006 1.876.024.554.037 1.091.21 1.562.505a3.405 3.405 0 011.489 2.041 3.274 3.274 0 01-.156 2.078z" fill="#263238"/><path d="M334.019 341.498a3.792 3.792 0 014.1.438 3.317 3.317 0 01.8 3.629 3.59 3.59 0 01-3.078 2.149 3.233 3.233 0 01-3.253-2.148c-.391-1.347.043-3.358 1.432-4.068" fill="#fff"/><path d="M353.285 412.27s-75.945-48.646-79.3-50.554c-2.852-1.624-10.482-6.322-18.006-4.246-7.524 2.076-14.269 8.821-17.641 18.679-1.927 5.632-2.838 15.242-3.265 22.448a33.305 33.305 0 007.794 23.746 21.247 21.247 0 009.48 6.73c.792.247 1.613.46 2.457.643 14.375 3.116 29.147-3.337 37.224-15.63l1.774-2.7s49.736 18.272 50.514 18.013l8.969-17.129z" fill="#263238"/><path d="M277.908 364.41a.826.826 0 01-.19-.112l-.532-.363c-.465-.321-1.149-.8-2.052-1.375a40.03 40.03 0 00-8.065-4.1 21.676 21.676 0 00-6.075-1.281 17.463 17.463 0 00-6.987 1.14 22.546 22.546 0 00-6.713 4.073 30.735 30.735 0 00-2.981 2.927 21.79 21.79 0 00-2.467 3.509 35.986 35.986 0 00-3.276 7.824c-.715 2.649-1.289 5.267-1.834 7.739a70.626 70.626 0 00-1.748 13.324c-.054 3.026.177 6.05.691 9.032.166 1.06.355 1.871.468 2.424l.125.632a.894.894 0 01.027.219.778.778 0 01-.072-.208l-.168-.621c-.143-.548-.36-1.355-.554-2.414a45.178 45.178 0 01-.837-9.069 68.915 68.915 0 011.66-13.406c.538-2.49 1.1-5.086 1.816-7.775a36.042 36.042 0 013.31-7.927 22.082 22.082 0 012.52-3.579 30.793 30.793 0 013.032-2.969 22.828 22.828 0 016.855-4.126 17.76 17.76 0 017.152-1.124c2.109.149 4.186.606 6.164 1.355a38.057 38.057 0 018.054 4.252c.891.6 1.561 1.1 2.009 1.449l.505.4c.113.093.168.144.163.15z" fill="#1C2E5C"/><path d="M259.224 398.543s.138.07.417.184l1.244.494 4.821 1.856 17.913 6.748a3560.935 3560.935 0 0026.949 9.936c10.226 3.722 21.561 7.8 33.664 11.9l.22.074.108-.206 5.94-11.344 3.028-5.784.116-.224-.21-.133-58-36.816-17.42-10.988-4.732-2.953-1.235-.755c-.28-.168-.43-.242-.43-.242s.131.1.4.287l1.208.8 4.678 3.037 17.329 11.132 57.9 36.957-.094-.356-3.029 5.784-5.936 11.346.327-.132c-12.1-4.087-23.436-8.148-33.672-11.836l-26.988-9.822-17.97-6.592-4.854-1.766-1.262-.446c-.28-.103-.43-.14-.43-.14z" fill="#1C2E5C"/><path d="M263.155 237.162a39.178 39.178 0 01-3.374-8.074 13.156 13.156 0 01.45-8.592c.707-1.557 1.818-2.921 2.373-4.538.764-2.224.452-4.849 1.829-6.756 2.153-2.98 6.76-2.285 10.089-3.846 2.592-1.216 4.4-3.837 7.13-4.712 2.382-.764 4.979-.031 7.279.953s4.542 2.239 7.022 2.564c1.78.102 3.564.106 5.345.014a7.05 7.05 0 014.931 1.7c1.255 1.267 1.519 3.606.16 4.76 3.119-.529 6.058 2.585 6.017 5.748-.041 3.163-2.424 5.949-5.3 7.264a18.841 18.841 0 01-9.316 1.156c-8.93-.7-17.9-4.09-23.982-10.668" fill="#263238"/><path d="M265.08 225.988l-6.084 44.215a13.274 13.274 0 0021.438 12.18 13.284 13.284 0 004.87-8.581c.454-3.329.84-6.1.91-6.443 0 0 11.4.49 13.747-10.539 1.133-5.329 2.574-16.5 3.76-26.614a21 21 0 00-16.752-23.03l-1.066-.213c-11.635-1.626-19.519 7.348-20.823 19.025z" fill="#FFBE9D"/><path d="M286.268 267.203a26.221 26.221 0 01-13.6-6.976s1.817 8.637 13.048 9.846l.552-2.87z" fill="#EB996E"/><path d="M298.768 239.605a1.61 1.61 0 01-1.84 1.289 1.549 1.549 0 01-1.04-.591 1.55 1.55 0 01-.303-1.158 1.613 1.613 0 011.839-1.29 1.54 1.54 0 011.344 1.75zM300.262 235.157c-.237.167-1.256-.958-2.956-1.292-1.693-.359-3.115.265-3.257.021-.072-.111.2-.442.823-.729a4.419 4.419 0 012.659-.272 4.244 4.244 0 012.3 1.286c.443.505.546.913.431.986zM282.918 236.869a1.608 1.608 0 01-1.841 1.289 1.549 1.549 0 01-1.04-.591 1.55 1.55 0 01-.303-1.158 1.612 1.612 0 011.84-1.29c.204.024.402.089.58.191a1.529 1.529 0 01.73.949c.052.199.063.407.034.61zM283.499 232.137c-.238.167-1.258-.958-2.957-1.292-1.693-.359-3.115.266-3.257.021-.072-.11.2-.442.823-.729a4.419 4.419 0 012.659-.272 4.244 4.244 0 012.3 1.286c.442.505.546.913.432.986zM287.147 245.969a11.447 11.447 0 012.859.053c.443.042.87.038 1-.243a2.25 2.25 0 00-.033-1.344c-.2-1.133-.408-2.32-.623-3.56-.842-5.06-1.359-9.185-1.155-9.217.204-.032 1.053 4.043 1.894 9.1.2 1.246.387 2.433.565 3.569a2.56 2.56 0 01-.115 1.748 1.113 1.113 0 01-.84.492 3.001 3.001 0 01-.757-.045 11.3 11.3 0 01-2.795-.553zM281.912 246.145c.28.039-.085 1.884 1.232 3.508s3.32 1.814 3.283 2.075c0 .121-.509.271-1.344.127a4.684 4.684 0 01-2.761-1.627 4.079 4.079 0 01-.915-2.918c.084-.782.381-1.201.505-1.165zM285.268 225.566c-.26.429-1.913-.129-3.954-.287-2.038-.2-3.762.063-3.944-.4-.078-.222.289-.6 1.028-.917a6.893 6.893 0 016.017.526c.673.44.969.874.853 1.078zM300.62 230.115c-.376.326-1.466-.308-2.87-.608-1.393-.349-2.651-.26-2.845-.719-.081-.219.184-.569.778-.83a4.243 4.243 0 014.605 1.069c.418.501.501.926.332 1.088z" fill="#263238"/><path d="M264.347 234.355c-.172-.119-7.147-3.765-8.416 3.842-1.269 7.607 6.63 7.311 6.679 7.1.049-.211 1.737-10.942 1.737-10.942z" fill="#FFBE9D"/><path d="M260.768 242.028c-.029-.03-.148.071-.389.136-.337.082-.694.03-.994-.145-.754-.429-1.218-1.817-1.026-3.2.09-.655.324-1.282.687-1.835a1.553 1.553 0 011.167-.851.68.68 0 01.721.494c.066.23-.007.373.031.393.018.023.185-.1.176-.425a.858.858 0 00-.22-.526 1.016 1.016 0 00-.7-.316 1.893 1.893 0 00-1.581.948 4.582 4.582 0 00-.813 2.044c-.206 1.541.339 3.106 1.386 3.607a1.442 1.442 0 001.245 0c.265-.147.333-.311.31-.324z" fill="#EB996E"/><path d="M305.912 219.936c-1.306 2.812-8.018 3.9-12.938 2.412-4.535-1.369-6.18-4.248-9.066-6.758-1.827-1.588-1.827-1.588-4.8-1.9-2.408-.248-4.341 2.15-6.162 3.745 1.013 6.045-1.675 12.03-4.295 17.572a3.067 3.067 0 01-1.228 1.568c-1.032.509-2.263-.3-2.879-1.267a9.522 9.522 0 01-1.066-5.338 31.715 31.715 0 012.517-12.242 21.59 21.59 0 017.952-9.522 20.448 20.448 0 0115.129-2.5 25.112 25.112 0 0113.262 7.961 14.714 14.714 0 013.574 6.274M290.437 238.328c.065 0 .042-.655.346-1.768a7.335 7.335 0 012.692-3.909 7.148 7.148 0 016.732-.969 7.002 7.002 0 013.274 2.474 7.048 7.048 0 010 8.344 7.019 7.019 0 01-3.275 2.475 7.163 7.163 0 01-6.732-.969 7.337 7.337 0 01-2.692-3.91c-.3-1.112-.281-1.771-.346-1.768a1.346 1.346 0 00-.039.473c-.003.455.048.91.153 1.353a7.327 7.327 0 002.66 4.2 7.568 7.568 0 002.693 1.336 7.576 7.576 0 008.063-2.83 7.601 7.601 0 000-9.058 7.579 7.579 0 00-10.754-1.494 7.317 7.317 0 00-2.661 4.2 5.702 5.702 0 00-.153 1.353 1.36 1.36 0 00.039.467z" fill="#263238"/><path d="M272.394 235.174c.065 0 .042-.656.346-1.768a7.344 7.344 0 012.693-3.91 7.157 7.157 0 016.732-.969 7.01 7.01 0 013.274 2.475 7.042 7.042 0 010 8.343 6.993 6.993 0 01-3.274 2.475 7.156 7.156 0 01-6.733-.969 7.344 7.344 0 01-2.692-3.91c-.3-1.112-.281-1.771-.346-1.767a1.37 1.37 0 00-.038.473c-.004.456.047.91.152 1.353a7.333 7.333 0 002.661 4.2 7.57 7.57 0 005.693 1.522 7.596 7.596 0 002.837-.996 7.608 7.608 0 002.226-2.021 7.598 7.598 0 000-9.057 7.591 7.591 0 00-5.062-3.016 7.59 7.59 0 00-5.693 1.522 7.333 7.333 0 00-2.661 4.2 5.655 5.655 0 00-.152 1.353c-.014.157-.002.315.037.467z" fill="#263238"/><path d="M287.258 235.428c.076.153 1.044-.3 2.169.045s1.685 1.244 1.834 1.158c.071-.033.036-.322-.219-.7a2.703 2.703 0 00-3.212-.967c-.424.177-.613.398-.572.464zM262.168 233.228c0 .17 2.428.274 5.417.231 2.989-.043 5.412-.213 5.409-.383-.003-.17-2.427-.274-5.418-.232-2.991.042-5.408.211-5.408.384z" fill="#263238"/></svg>