<svg width="92" height="92" viewBox="0 0 92 92" fill="none" xmlns="http://www.w3.org/2000/svg">
<path d="M85.8741 78.555L82.5657 75.2466C83.4517 72.4218 82.7283 69.269 80.5643 67.105C68.4188 54.9617 68.3878 54.9338 68.3409 54.8914C66.3562 53.1044 63.3035 53.1208 61.3902 54.9293C60.7516 55.5338 60.3023 56.2639 60.0463 57.0444C59.6907 56.9664 59.325 56.9262 58.9552 56.9257C58.3641 56.9264 57.7885 57.027 57.2478 57.2193V4.8336C57.2478 2.16829 55.0794 0 52.4141 0H10.4336C7.76827 0 5.59979 2.16829 5.59979 4.8336V82.3229C5.59979 84.9882 7.76827 87.1565 10.4336 87.1565H47.6245C47.9253 88.3847 48.5563 89.5113 49.4733 90.4281C50.3388 91.2937 51.4872 91.7702 52.7053 91.7702H52.7123C53.9358 91.7702 55.0856 91.2942 55.9503 90.4295L58.1481 88.2316C58.8417 87.538 59.1241 87.5351 60.1748 87.524C60.4632 87.5209 60.7843 87.5177 61.1415 87.4963L65.9325 88.1173C67.0942 88.2677 68.2652 88.1948 69.3884 87.9069L72.9552 91.4737C73.3062 91.8244 73.766 92 74.2258 92C74.6856 92 75.1456 91.8244 75.4964 91.4737L85.8741 81.096C86.5758 80.3945 86.5758 79.2567 85.8741 78.555ZM9.19355 4.8336C9.19355 4.14989 9.74986 3.59376 10.4336 3.59376H52.4141C53.0978 3.59376 53.6541 4.15007 53.6541 4.8336V13.4006H9.19355V4.8336ZM9.19355 16.9943H53.6541V61.6326C52.5688 61.7699 51.5219 62.253 50.6993 63.0756C50.3259 63.4489 50.0224 63.8683 49.7894 64.3164C48.42 62.9474 47.3168 61.8446 46.4277 60.9561V55.9043C46.4277 54.9121 45.6233 54.1074 44.6309 54.1074H18.2168C17.2243 54.1074 16.4199 54.9121 16.4199 55.9043V67.1244C16.4199 68.1168 17.2243 68.9213 18.2168 68.9213H40.007L42.4453 71.3558H9.19355V16.9943ZM35.4774 64.3913C35.5047 64.4231 35.5333 64.4542 35.5635 64.4848C35.568 64.4894 35.5726 64.4941 35.5773 64.4988L36.4076 65.3277H20.0136V57.7014H35.3529C33.7382 59.6228 33.7583 62.499 35.4774 64.3913ZM49.4735 80.5289C48.616 81.3864 48.0085 82.4271 47.6874 83.5629H10.4336C9.74986 83.5629 9.19355 83.0066 9.19355 82.3231V74.9496H46.045L50.5525 79.4499L49.4735 80.5289ZM69.4754 84.0752C68.5117 84.5246 67.4466 84.6898 66.3945 84.5536L61.4279 83.9099C61.3064 83.8941 60.4346 83.9277 60.1367 83.9306C58.8246 83.9444 57.3373 83.9602 55.6067 85.6906L53.4088 87.8884C53.223 88.0742 52.9756 88.1766 52.7095 88.1766H52.708C52.4473 88.1766 52.2009 88.074 52.0144 87.8873C51.3711 87.244 51.0168 86.3887 51.0168 85.479C51.0168 85.4549 51.0172 85.4308 51.0175 85.4067C51.0175 85.4062 51.0175 85.4056 51.0175 85.4051C51.0362 84.5228 51.3884 83.6963 52.0144 83.0704L54.3651 80.7197C55.0961 79.9888 55.1618 78.9753 54.364 78.1775L38.1573 61.9968C38.1549 61.9941 38.1524 61.9916 38.1501 61.9889C37.595 61.3927 37.6277 60.4501 38.2232 59.8874C38.777 59.364 39.6706 59.366 40.2713 59.8862C40.7699 60.3818 52.5754 72.1838 52.5754 72.1838C52.9263 72.5346 53.3862 72.7102 53.846 72.7102C54.3058 72.7102 54.7658 72.5346 55.1166 72.1838C55.8182 71.4822 55.8184 70.3444 55.1166 69.6425L53.292 67.8178C53.2525 67.7592 53.209 67.7022 53.1617 67.6474C52.6546 67.06 52.6892 66.1683 53.2404 65.617C53.7813 65.0759 54.6512 65.0337 55.2387 65.5133L57.2423 67.5168C57.5932 67.8676 58.053 68.0431 58.5128 68.0431C58.9727 68.0431 59.4327 67.8676 59.7834 67.5168C60.4851 66.8151 60.4851 65.6773 59.7834 64.9755C59.7834 64.9755 57.8527 63.0262 57.8205 62.9889C57.3132 62.4013 57.3477 61.5095 57.8988 60.9582C58.1815 60.6756 58.5583 60.5198 58.9552 60.5192C59.3002 60.5198 59.6327 60.6373 59.8961 60.8517L61.912 62.866C62.2629 63.2167 62.7227 63.3923 63.1826 63.3923C63.6424 63.3923 64.1024 63.2169 64.4531 62.866C65.1548 62.1643 65.1548 61.0265 64.4531 60.3246C64.4531 60.3246 63.7816 59.6355 63.7504 59.5994C63.2291 58.9962 63.2776 58.0911 63.86 57.5398C64.4132 57.0169 65.3076 57.0187 65.9106 57.5393C66.4667 58.0922 74.0158 65.6391 78.0233 69.6459C79.4202 71.0428 79.7379 73.1802 78.8285 74.9124L69.7737 83.9671C69.6725 83.9938 69.5726 84.0298 69.4754 84.0752ZM74.2258 87.662L72.6936 86.1298L80.5302 78.2932L82.0624 79.8254L74.2258 87.662Z" fill="#1FBEC8"/>
<path d="M35.4018 77.4595H27.4457C26.4533 77.4595 25.6488 78.2641 25.6488 79.2564C25.6488 80.2486 26.4533 81.0532 27.4457 81.0532H35.4018C36.3942 81.0532 37.1986 80.2488 37.1986 79.2564C37.1986 78.2641 36.3942 77.4595 35.4018 77.4595Z" fill="#1FBEC8"/>
<path d="M46.9165 8.14542C46.895 8.03221 46.859 7.91883 46.8141 7.8094C46.7692 7.70141 46.7135 7.59737 46.6488 7.50034C46.5841 7.40133 46.5086 7.30969 46.426 7.22703C46.3433 7.14437 46.2517 7.06891 46.1529 7.00242C46.056 6.93773 45.9516 6.88203 45.842 6.83711C45.7342 6.79219 45.621 6.75805 45.506 6.73469C44.922 6.61789 44.3021 6.81015 43.8852 7.22703C43.8025 7.30969 43.7271 7.40133 43.6624 7.50034C43.5977 7.59737 43.542 7.70141 43.4971 7.8094C43.4521 7.91883 43.418 8.03221 43.3946 8.14542C43.3713 8.26203 43.3587 8.38081 43.3587 8.4976C43.3587 8.61422 43.3713 8.73282 43.3946 8.848C43.418 8.963 43.4521 9.07602 43.4971 9.18383C43.542 9.29344 43.5977 9.39766 43.6624 9.49469C43.7271 9.59352 43.8025 9.68516 43.8852 9.76782C43.9678 9.85047 44.0595 9.92612 44.1583 9.99063C44.2553 10.0553 44.3596 10.111 44.4692 10.1559C44.577 10.2009 44.6902 10.235 44.8052 10.2584C44.9202 10.2817 45.0388 10.2943 45.1556 10.2943C45.2724 10.2943 45.391 10.2817 45.506 10.2584C45.621 10.235 45.7342 10.2009 45.842 10.1559C45.9516 10.111 46.056 10.0553 46.1529 9.99063C46.2517 9.92612 46.3433 9.85047 46.426 9.76782C46.7602 9.43378 46.9525 8.97018 46.9525 8.4976C46.9525 8.38063 46.9399 8.26203 46.9165 8.14542Z" fill="#1FBEC8"/>
<path d="M38.4805 6.70038H17.6921C16.6997 6.70038 15.8952 7.50502 15.8952 8.49726C15.8952 9.48949 16.6997 10.2941 17.6921 10.2941H38.4803C39.4728 10.2941 40.2772 9.48967 40.2774 8.49726C40.2774 7.50502 39.4729 6.70038 38.4805 6.70038Z" fill="#1FBEC8"/>
<path d="M42.6264 24.5159C39.7 21.5897 35.8281 19.9362 31.7241 19.86C27.3686 19.7748 23.2827 21.4281 20.208 24.503C17.1334 27.5776 15.4844 31.6675 15.5651 36.0192C15.6413 40.1232 17.2948 43.9951 20.2212 46.9215C23.1476 49.8478 27.0195 51.5012 31.1235 51.5773C31.2252 51.5792 31.3266 51.5801 31.4281 51.5801C35.6655 51.5801 39.6366 49.9372 42.6396 46.9343C45.7144 43.8597 47.363 39.7698 47.2823 35.4183C47.2063 31.314 45.5528 27.4421 42.6264 24.5159ZM40.0984 44.3933C37.7202 46.7713 34.5574 48.0412 31.1902 47.9842C24.6767 47.8635 19.2791 42.4662 19.1583 35.9525C19.0958 32.586 20.3712 29.4221 22.7492 27.0441C25.0718 24.7215 28.1432 23.4511 31.4216 23.4511C31.5 23.4511 31.579 23.4518 31.6576 23.4532C38.1713 23.5742 43.5685 28.9716 43.6893 35.4851C43.7516 38.8516 42.4764 42.0153 40.0984 44.3933Z" fill="#1FBEC8"/>
<path d="M32.3625 34.0744V31.0732C33.6462 31.176 34.0216 31.8337 34.6735 31.8337C35.5426 31.8337 35.8982 30.7033 35.8982 30.1482C35.8982 28.7299 33.5871 28.4011 32.3625 28.3599V27.846C32.3625 27.5582 31.9871 27.291 31.6118 27.291C31.1773 27.291 30.8612 27.5582 30.8612 27.846V28.4216C28.7677 28.7299 26.911 29.984 26.911 32.5945C26.911 35.2255 29.044 36.1093 30.8612 36.8286V40.1586C29.3996 39.8914 28.728 38.6787 27.8985 38.6787C27.1478 38.6787 26.5552 39.7063 26.5552 40.4053C26.5552 41.7208 28.4911 42.9953 30.8612 43.0775V43.5914C30.8612 43.8792 31.1773 44.1464 31.6118 44.1464C31.9871 44.1464 32.3625 43.8792 32.3625 43.5914V42.9953C34.6735 42.6049 36.2536 41.063 36.2536 38.5143C36.2536 35.7394 34.1599 34.7732 32.3625 34.0744ZM31.0589 33.581C30.3081 33.2519 29.7948 32.882 29.7948 32.2859C29.7948 31.7927 30.17 31.3199 31.0589 31.135V33.581ZM32.1649 40.1381V37.3837C32.8759 37.7332 33.3698 38.1648 33.3698 38.8431C33.3698 39.5831 32.8363 39.9737 32.1649 40.1381Z" fill="#1FBEC8"/>
</svg>
