<svg width="894" height="373" fill="none" xmlns="http://www.w3.org/2000/svg"><rect x="748" y="162" width="198" height="75" rx="5" fill="#3FA037"/><rect x="748" y="263" width="198" height="75" rx="5" fill="#3FA037"/><path d="M38 290h-1v1h1v-1zm706.707.707a.999.999 0 000-1.414l-6.364-6.364a.999.999 0 10-1.414 1.414l5.657 5.657-5.657 5.657a.999.999 0 101.414 1.414l6.364-6.364zM37 219v71h2v-71h-2zm1 72h706v-2H38v2z" fill="#3FA037"/><rect x="172" y="249" width="85" height="91" rx="5" fill="#E8505B"/><path d="M179.346 260.206c1.386 0 2.124-.729 2.124-2.214v-4.176h-3.411v.981h2.241v3.258c0 .774-.333 1.161-.981 1.161-.495 0-.909-.252-1.251-.72l-.666.801c.432.585 1.152.909 1.944.909zm8.175-2.466c0-1.503-1.026-2.484-2.43-2.484-1.431 0-2.484 1.026-2.484 2.457 0 1.431 1.044 2.466 2.655 2.466.828 0 1.503-.27 1.935-.783l-.603-.693c-.342.351-.765.522-1.305.522-.837 0-1.422-.45-1.557-1.152h3.771c.009-.108.018-.243.018-.333zm-2.43-1.584c.738 0 1.269.477 1.359 1.17h-2.727c.108-.702.639-1.17 1.368-1.17zm6.084 2.898a1.012 1.012 0 01-.63.198c-.432 0-.666-.252-.666-.72v-2.286h1.287v-.9h-1.287v-1.098h-1.125v1.098h-.792v.9h.792v2.313c0 1.062.603 1.62 1.656 1.62.405 0 .81-.108 1.08-.324l-.315-.801zm3.243 1.125c1.494 0 2.565-1.026 2.565-2.466 0-1.44-1.071-2.457-2.565-2.457-1.476 0-2.556 1.017-2.556 2.457s1.08 2.466 2.556 2.466zm0-.963c-.81 0-1.422-.585-1.422-1.503 0-.918.612-1.503 1.422-1.503.819 0 1.431.585 1.431 1.503 0 .918-.612 1.503-1.431 1.503zm6.367-3.96c-.702 0-1.287.234-1.656.675v-.621h-1.071v4.806h1.125v-2.43c0-.963.54-1.449 1.341-1.449.72 0 1.143.414 1.143 1.269v2.61h1.125v-2.754c0-1.449-.855-2.106-2.007-2.106zM206.003 287.6v5.688l-4.632-5.688h-1.284v8.4h1.548v-5.688l4.632 5.688h1.284v-8.4h-1.548zm6.535 8.484c1.992 0 3.42-1.368 3.42-3.288 0-1.92-1.428-3.276-3.42-3.276-1.968 0-3.408 1.356-3.408 3.276 0 1.92 1.44 3.288 3.408 3.288zm0-1.284c-1.08 0-1.896-.78-1.896-2.004s.816-2.004 1.896-2.004c1.092 0 1.908.78 1.908 2.004s-.816 2.004-1.908 2.004zm12.942-5.28c-1.02 0-1.884.408-2.4 1.068-.444-.72-1.224-1.068-2.16-1.068-.876 0-1.62.312-2.1.888v-.816h-1.428V296h1.5v-3.252c0-1.272.672-1.92 1.668-1.92.912 0 1.44.552 1.44 1.692V296h1.5v-3.252c0-1.272.684-1.92 1.668-1.92.912 0 1.44.552 1.44 1.692V296h1.5v-3.672c0-1.932-1.08-2.808-2.628-2.808zM208.581 311l-1.932-2.76c1.14-.444 1.788-1.38 1.788-2.652 0-1.86-1.368-2.988-3.576-2.988h-3.456v8.4h1.56v-2.448h1.896c.108 0 .216 0 .324-.012l1.716 2.46h1.68zm-1.716-5.412c0 1.056-.708 1.68-2.076 1.68h-1.824v-3.348h1.824c1.368 0 2.076.612 2.076 1.668zm6.042-2.76l1.056.888h1.236l-1.608-1.644h-1.368l-1.608 1.644h1.236l1.056-.888zm.012 1.692c-1.968 0-3.408 1.356-3.408 3.276 0 1.92 1.44 3.288 3.408 3.288 1.992 0 3.42-1.368 3.42-3.288 0-1.92-1.428-3.276-3.42-3.276zm0 5.28c-1.08 0-1.896-.78-1.896-2.004s.816-2.004 1.896-2.004c1.092 0 1.908.78 1.908 2.004s-.816 2.004-1.908 2.004zm4.854 1.2h1.5v-8.904h-1.5V311zm9.493-3.168c0-2.004-1.368-3.312-3.24-3.312-1.908 0-3.312 1.368-3.312 3.276 0 1.908 1.392 3.288 3.54 3.288 1.104 0 2.004-.36 2.58-1.044l-.804-.924c-.456.468-1.02.696-1.74.696-1.116 0-1.896-.6-2.076-1.536h5.028c.012-.144.024-.324.024-.444zm-3.24-2.112c.984 0 1.692.636 1.812 1.56h-3.636c.144-.936.852-1.56 1.824-1.56zm-36.54 20.4c2.304 0 3.396-1.152 3.396-2.496 0-3.084-4.98-1.92-4.98-3.708 0-.636.528-1.14 1.824-1.14.732 0 1.56.216 2.316.66l.492-1.212c-.732-.48-1.788-.744-2.796-.744-2.304 0-3.384 1.152-3.384 2.508 0 3.12 4.992 1.932 4.992 3.744 0 .624-.552 1.092-1.86 1.092-1.032 0-2.1-.384-2.772-.924l-.54 1.212c.696.6 2.004 1.008 3.312 1.008zm5.555-7.584c.564 0 .96-.408.96-.936 0-.492-.408-.864-.96-.864s-.96.396-.96.9.408.9.96.9zm-.756 7.464h1.5v-6.408h-1.5V326zm8.401-6.408v.852c-.528-.636-1.32-.924-2.22-.924-1.836 0-3.24 1.224-3.24 3.084s1.404 3.108 3.24 3.108c.864 0 1.62-.276 2.148-.852v.336c0 1.296-.624 1.944-2.04 1.944-.888 0-1.8-.3-2.364-.768l-.672 1.128c.732.6 1.92.912 3.12.912 2.244 0 3.456-1.056 3.456-3.384v-5.436h-1.428zm-1.992 4.848c-1.14 0-1.956-.744-1.956-1.836 0-1.08.816-1.812 1.956-1.812 1.128 0 1.944.732 1.944 1.812 0 1.092-.816 1.836-1.944 1.836zm9.028-4.92c-.936 0-1.716.312-2.208.9v-.828h-1.428V326h1.5v-3.24c0-1.284.72-1.932 1.788-1.932.96 0 1.524.552 1.524 1.692V326h1.5v-3.672c0-1.932-1.14-2.808-2.676-2.808zm7.026 0c-1.032 0-2.028.264-2.712.792l.588 1.092c.48-.396 1.224-.636 1.944-.636 1.068 0 1.596.516 1.596 1.392v.096h-1.656c-1.944 0-2.664.84-2.664 1.908 0 1.116.924 1.92 2.388 1.92.96 0 1.656-.312 2.016-.864v.78h1.416v-3.756c0-1.848-1.068-2.724-2.916-2.724zm-.204 5.472c-.768 0-1.224-.348-1.224-.888 0-.468.276-.852 1.296-.852h1.548v.744c-.252.66-.888.996-1.62.996zm8.477-.408c-.228.18-.528.264-.84.264-.576 0-.888-.336-.888-.96v-3.048h1.716v-1.2h-1.716v-1.464h-1.5v1.464h-1.056v1.2h1.056v3.084c0 1.416.804 2.16 2.208 2.16.54 0 1.08-.144 1.44-.432l-.42-1.068zm6.358-4.992v3.24c0 1.284-.708 1.932-1.752 1.932-.948 0-1.5-.552-1.5-1.716v-3.456h-1.5v3.66c0 1.932 1.116 2.832 2.76 2.832.828 0 1.584-.312 2.064-.9V326h1.428v-6.408h-1.5zm4.892.936v-.936h-1.428V326h1.5v-3.108c0-1.308.72-1.98 1.86-1.98.108 0 .216.012.348.036v-1.428c-1.068 0-1.848.336-2.28 1.008zm9.518 2.304c0-2.004-1.368-3.312-3.24-3.312-1.908 0-3.312 1.368-3.312 3.276 0 1.908 1.392 3.288 3.54 3.288 1.104 0 2.004-.36 2.58-1.044l-.804-.924c-.456.468-1.02.696-1.74.696-1.116 0-1.896-.6-2.076-1.536h5.028c.012-.144.024-.324.024-.444zm-3.24-2.112c.984 0 1.692.636 1.812 1.56h-3.636c.144-.936.852-1.56 1.824-1.56z" fill="#fff"/><g clip-path="url(#clip0)"><path d="M207.608 254.63a3.332 3.332 0 014.708-.002 3.33 3.33 0 01.813 3.379l3.75 3.748a.3.3 0 01.089.214l.001 1.712a.303.303 0 01-.303.303h-1.712a.306.306 0 01-.214-.088l-.428-.428a.307.307 0 01-.087-.249l.053-.46-.637-.06a.303.303 0 01-.273-.273l-.06-.637-.46.054a.298.298 0 01-.236-.075.3.3 0 01-.102-.226v-.563h-.553a.301.301 0 01-.214-.089l-.777-.765c-1.185.385-2.469.1-3.356-.787a3.332 3.332 0 01-.002-4.708zm.857 2.14a.908.908 0 101.283-1.285.908.908 0 00-1.283 1.285z" fill="#fff"/></g><g clip-path="url(#clip1)"><path d="M208.468 254.22a3.333 3.333 0 013.392 3.265 3.33 3.33 0 01-1.76 2.997l.101 5.301a.304.304 0 01-.085.216l-1.187 1.234a.303.303 0 01-.428.008l-1.234-1.188a.305.305 0 01-.093-.212l-.011-.606a.303.303 0 01.11-.239l.358-.294-.418-.485a.302.302 0 01-.007-.386l.399-.501-.369-.28a.301.301 0 01-.034-.451l.391-.406-.399-.384a.303.303 0 01-.093-.212l-.028-1.09c-1.12-.545-1.847-1.641-1.871-2.895a3.333 3.333 0 013.266-3.392zm-.868 2.136a.909.909 0 101.817-.037.909.909 0 00-1.817.037z" fill="#fff"/></g><g clip-path="url(#clip2)"><path d="M818.627 66.97v8.745c-.009 2.2-2.074 4.399-6.2 6.079-8.305 3.38-21.815 3.38-30.174 0-4.207-1.702-6.308-3.935-6.299-6.165v-8.745c-.009 2.23 2.092 4.463 6.299 6.165 8.359 3.38 21.869 3.38 30.174 0 4.126-1.68 6.191-3.878 6.2-6.08z" fill="#15B2BC"/><path d="M818.627 66.96c.008-4.781-9.539-8.673-21.323-8.691-11.784-.019-21.342 3.842-21.35 8.624-.008 4.782 9.539 8.673 21.323 8.692 11.784.018 21.343-3.843 21.35-8.625z" fill="#00C2CB"/><path d="M818.097 65.065c.512 2.4-1.473 4.868-5.983 6.705-8.133 3.31-21.364 3.311-29.55 0-4.564-1.846-6.59-4.331-6.087-6.743-1.522 2.798.392 5.845 5.776 8.022 8.359 3.381 21.869 3.38 30.174 0 5.324-2.167 7.198-5.197 5.67-7.984z" fill="#04666C"/><path d="M816.957 55.334v8.06c-.008 2.03-1.912 4.056-5.715 5.604-7.654 3.117-20.108 3.117-27.812 0-3.878-1.568-5.814-3.627-5.806-5.682v-8.06c-.008 2.055 1.928 4.114 5.806 5.682 7.704 3.116 20.158 3.116 27.812 0 3.803-1.549 5.707-3.575 5.715-5.604z" fill="#FDBC5A"/><path d="M818.627 49.961v8.745c-.009 2.202-2.074 4.4-6.2 6.08-8.305 3.38-21.816 3.38-30.174 0-4.207-1.702-6.308-3.935-6.299-6.165v-8.745c-.009 2.23 2.092 4.463 6.299 6.165 8.358 3.38 21.869 3.38 30.174 0 4.126-1.68 6.191-3.878 6.2-6.08z" fill="#15B2BC"/><path d="M818.627 49.952c.008-4.782-9.539-8.673-21.323-8.691-11.784-.02-21.343 3.842-21.35 8.624-.008 4.781 9.539 8.673 21.323 8.691 11.784.019 21.342-3.842 21.35-8.624z" fill="#00C2CB"/><path d="M818.096 48.057c.513 2.4-1.472 4.868-5.982 6.704-8.133 3.311-21.364 3.312-29.55 0-4.565-1.846-6.59-4.33-6.087-6.742-1.522 2.797.392 5.845 5.775 8.022 8.359 3.381 21.87 3.38 30.175 0 5.324-2.168 7.198-5.197 5.669-7.984z" fill="#04666C"/><path d="M816.957 38.326v8.06c-.008 2.03-1.912 4.055-5.715 5.603-7.654 3.117-20.108 3.117-27.812 0-3.878-1.568-5.814-3.626-5.806-5.682v-8.06c-.008 2.055 1.928 4.114 5.806 5.682 7.704 3.116 20.158 3.116 27.812 0 3.803-1.548 5.707-3.574 5.715-5.603z" fill="#FDBC5A"/><path d="M818.627 32.953v8.745c-.009 2.201-2.074 4.4-6.2 6.079-8.305 3.38-21.816 3.38-30.174 0-4.207-1.701-6.308-3.935-6.299-6.165v-8.745c-.009 2.23 2.092 4.464 6.299 6.165 8.358 3.381 21.869 3.38 30.174 0 4.126-1.68 6.191-3.878 6.2-6.08z" fill="#15B2BC"/><path d="M818.627 32.944c.008-4.782-9.539-8.674-21.323-8.692-11.784-.019-21.343 3.843-21.35 8.624-.008 4.782 9.539 8.673 21.323 8.692 11.784.018 21.342-3.843 21.35-8.624z" fill="#00C2CB"/><path d="M818.096 31.048c.513 2.4-1.472 4.869-5.982 6.705-8.133 3.31-21.364 3.311-29.55 0-4.565-1.846-6.59-4.33-6.087-6.743-1.522 2.798.392 5.845 5.775 8.022 8.359 3.381 21.87 3.38 30.175 0 5.324-2.167 7.198-5.197 5.669-7.984z" fill="#04666C"/><g clip-path="url(#clip3)"><path d="M821.729 57c-1.019.008-2.033.17-3.012.481l-.069.024a10.978 10.978 0 00-1.87-.197c-1.288-.024-2.395.318-3.287.887-.879-.334-2.703-.908-4.626-.794-1.338.08-2.799.525-3.881 1.773-1.08 1.248-1.65 3.18-1.53 5.808.033.725.222 1.908.536 3.44.313 1.53.754 3.324 1.304 4.96.55 1.636 1.153 3.105 2.094 4.104.47.5 1.118.92 1.881.886.536-.024 1.02-.28 1.438-.66.203.293.421.421.619.54.249.149.492.25.743.317.452.123 1.225.288 2.131.12.308-.057.633-.166.956-.323.012.394.027.78.041 1.17.045 1.238.073 2.381.413 3.384.055.163.205 1.007.795 1.75.591.746 1.747 1.211 3.065.903.93-.218 2.112-.61 2.897-1.83.776-1.207 1.126-2.938 1.195-5.745.017-.152.038-.28.06-.401l.185.018h.022c.992.049 2.068-.105 2.966-.562.796-.402 1.399-.81 1.837-1.532.11-.18.23-.396.263-.769.033-.372-.163-.955-.488-1.224-.65-.54-1.059-.335-1.498-.235a6.307 6.307 0 01-1.314.174 28.96 28.96 0 002.688-6.982c.306-1.29.477-2.48.492-3.52.014-1.041-.064-1.962-.635-2.759-1.783-2.49-4.29-3.177-6.23-3.201-.06-.001-.121-.003-.181-.001V57zm-.051.764c1.835-.019 4.179.544 5.862 2.894.378.528.491 1.3.478 2.25-.014.95-.175 2.087-.469 3.333a28.079 28.079 0 01-3.168 7.75.822.822 0 00.173.103c.317.144 1.04.267 2.482-.057.363-.084.629-.14.904.09.067.062.12.14.155.228s.05.183.045.28a.873.873 0 01-.142.4c-.279.458-.829.892-1.534 1.249-.624.318-1.52.484-2.314.493-.398.005-.765-.028-1.077-.135l-.02-.008c-.12 1.266-.396 3.766-.577 4.907-.144.92-.397 1.651-.879 2.198-.481.547-1.162.877-2.079 1.092-1.135.266-1.963-.02-2.496-.511-.533-.49-.777-1.14-.923-1.538-.101-.275-.153-.63-.204-1.106a26.598 26.598 0 01-.112-1.713 65.834 65.834 0 01-.033-3.014 3.243 3.243 0 01-1.697.908c-.753.14-1.426.002-1.827-.107a2.37 2.37 0 01-.569-.24c-.186-.11-.363-.232-.481-.475a.727.727 0 01-.062-.455.74.74 0 01.238-.395c.217-.193.503-.3.935-.398.786-.177 1.061-.297 1.228-.442.142-.124.303-.375.587-.743l-.003-.05a3.025 3.025 0 01-1.454-.427 51.003 51.003 0 00-2.023 2.5c-.43.56-.905.883-1.406.906-.5.024-.953-.252-1.338-.66-.769-.815-1.382-2.219-1.917-3.805-.533-1.587-.968-3.353-1.276-4.859-.309-1.505-.492-2.718-.518-3.304-.115-2.487.417-4.163 1.331-5.22.914-1.057 2.167-1.457 3.388-1.534 2.193-.137 4.275.698 4.696.877.811-.602 1.856-.977 3.162-.953.62.01 1.237.097 1.838.26l.022-.01c.265-.102.535-.188.808-.256a9.686 9.686 0 012.265-.3l.001-.003zm.166.8h-.16c-.626.01-1.25.087-1.863.23 1.363.66 2.392 1.675 3.117 2.688.503.701.919 1.473 1.237 2.294.121.315.202.581.248.788.022.104.038.191.043.282.002.045.005.092-.013.172 0 .004-.005.012-.006.015.032 1.047-.205 1.757-.233 2.755-.022.724.147 1.575.189 2.503.039.872-.057 1.83-.575 2.77.043.057.083.115.124.172 1.372-2.36 2.36-4.97 2.887-7.195.282-1.198.432-2.284.445-3.144.011-.86-.135-1.484-.322-1.744-1.468-2.05-3.454-2.572-5.118-2.586zm-5.238.307c-1.292.003-2.22.43-2.923 1.069-.725.66-1.211 1.565-1.531 2.49-.379 1.1-.509 2.163-.56 2.884l.014-.01c.39-.238.903-.477 1.452-.616.549-.137 1.14-.18 1.676.047.536.227.979.76 1.14 1.57.769 3.891-.24 5.338-.612 6.43-.141.395-.262.8-.362 1.21.047-.012.094-.026.141-.031.263-.024.468.072.591.129.374.17.631.525.77.932.036.106.062.22.077.339a.41.41 0 01.022.152 72.26 72.26 0 00.015 4.465c.025.642.062 1.209.109 1.656.047.445.114.784.156.899.14.382.345.883.714 1.223.37.34.9.566 1.869.34.84-.198 1.358-.471 1.705-.864.345-.393.552-.94.684-1.778.198-1.254.596-4.891.644-5.576-.021-.516.048-.913.199-1.215.156-.31.396-.5.604-.603.104-.051.201-.086.281-.111a6.586 6.586 0 00-.266-.388 5.44 5.44 0 01-.728-1.313 10.706 10.706 0 00-.281-.577c-.145-.287-.329-.645-.522-1.048-.384-.806-.803-1.783-1.021-2.735-.216-.951-.248-1.935.307-2.63.492-.616 1.356-.872 2.653-.728-.038-.126-.061-.23-.126-.397a9.573 9.573 0 00-1.138-2.107c-1.099-1.535-2.878-3.057-5.627-3.106h-.126v-.002zm-7.263.062c-.139 0-.277.005-.415.013-1.105.07-2.149.42-2.896 1.284-.748.865-1.24 2.283-1.133 4.63.021.445.198 1.69.502 3.168.303 1.48.733 3.22 1.249 4.757.517 1.537 1.144 2.875 1.739 3.508.299.317.56.445.796.434.237-.012.522-.161.871-.619a50.62 50.62 0 011.979-2.446 4.21 4.21 0 01-1.078-1.703 4.548 4.548 0 01-.198-2.06 16.17 16.17 0 00.115-2.36c-.013-.636-.054-1.059-.054-1.323a.086.086 0 010-.023v-.006l-.002-.007v-.001c0-1.375.219-2.74.648-4.033.306-.889.762-1.792 1.445-2.523-.671-.241-1.863-.609-3.153-.678a7.601 7.601 0 00-.416-.012h.001zm13.557 6.31c-.742.01-1.159.22-1.377.493-.31.388-.339 1.069-.147 1.908.191.84.587 1.778.959 2.558.186.39.366.742.512 1.028.146.286.253.49.319.663.06.16.127.3.195.432.287-.663.339-1.314.309-1.993-.038-.84-.216-1.698-.19-2.568.029-1.016.213-1.678.23-2.464a5.83 5.83 0 00-.81-.057zm-9.003.137a2.835 2.835 0 00-.674.088c-.44.117-.864.297-1.261.537-.134.078-.262.17-.381.272l-.024.024c.006.174.038.597.051 1.22.013.68-.002 1.549-.123 2.489-.261 2.043 1.096 3.734 2.69 3.737.093-.42.246-.845.4-1.293.444-1.307 1.317-2.26.581-5.98-.12-.61-.358-.855-.686-.994a1.49 1.49 0 00-.573-.1zm8.657.244h.054c.073.002.139.01.197.026.059.014.11.036.151.066a.192.192 0 01.082.13l-.001.01h.001-.001a.31.31 0 01-.038.162.811.811 0 01-.12.179.727.727 0 01-.423.253.603.603 0 01-.448-.123.702.702 0 01-.142-.14.33.33 0 01-.069-.153.225.225 0 01.046-.152.422.422 0 01.128-.108 1.285 1.285 0 01.583-.154v.004zm-8.551.2c.058 0 .119.006.181.016.167.025.316.074.43.145a.494.494 0 01.145.127.274.274 0 01.059.203.37.37 0 01-.082.184.718.718 0 01-.156.156.656.656 0 01-.49.135.78.78 0 01-.459-.273.854.854 0 01-.129-.196.36.36 0 01-.045-.211c.016-.13.114-.196.209-.233a.873.873 0 01.336-.048l.001-.005zm9.907 8.772l-.004.001c-.16.063-.293.09-.404.144a.514.514 0 00-.262.255c-.068.138-.127.381-.11.796a.531.531 0 00.162.083c.187.062.501.103.851.097.697-.008 1.556-.186 2.012-.418.374-.19.721-.437 1.031-.735h-.001c-1.524.344-2.384.252-2.912.015a1.415 1.415 0 01-.363-.24v.002zm-8.782.112h-.023c-.058.006-.142.028-.305.225-.381.466-.514.758-.828 1.032-.314.272-.722.418-1.536.6-.258.058-.406.121-.504.173.031.028.028.036.076.063.119.072.272.135.396.17.35.095.925.206 1.525.095.601-.112 1.225-.426 1.758-1.242.091-.141.101-.349.026-.572-.077-.224-.244-.416-.362-.47a.669.669 0 00-.223-.071v-.003z" fill="#1C2E5C"/></g></g><rect x="290" y="24" width="136" height="76" rx="5" fill="#1FBEC8"/><rect x="290" y="227" width="136" height="113" rx="5" fill="#00AFF0"/><path d="M312.432 56.04c-.63.364-1.316.504-2.016.504-2.072 0-3.542-1.456-3.542-3.444 0-2.03 1.47-3.444 3.556-3.444 1.05 0 1.932.35 2.702 1.12l1.148-1.12c-.924-1.05-2.296-1.596-3.934-1.596-3.066 0-5.306 2.114-5.306 5.04s2.24 5.04 5.278 5.04c1.386 0 2.814-.42 3.836-1.246v-3.906h-1.722v3.052zm9.932-8.456h-2.058l-1.89 1.918h1.512l2.436-1.918zm1.05 6.72c0-2.338-1.596-3.864-3.78-3.864-2.226 0-3.864 1.596-3.864 3.822s1.624 3.836 4.13 3.836c1.288 0 2.338-.42 3.01-1.218l-.938-1.078c-.532.546-1.19.812-2.03.812-1.302 0-2.212-.7-2.422-1.792h5.866c.014-.168.028-.378.028-.518zm-3.78-2.464c1.148 0 1.974.742 2.114 1.82h-4.242c.168-1.092.994-1.82 2.128-1.82zm9.703-1.4c-1.092 0-2.002.364-2.576 1.05v-.966h-1.666V58h1.75v-3.78c0-1.498.84-2.254 2.086-2.254 1.12 0 1.778.644 1.778 1.974V58h1.75v-4.284c0-2.254-1.33-3.276-3.122-3.276zm11.389-2.856h-2.058l-1.89 1.918h1.512l2.436-1.918zm1.05 6.72c0-2.338-1.596-3.864-3.78-3.864-2.226 0-3.864 1.596-3.864 3.822s1.624 3.836 4.13 3.836c1.288 0 2.338-.42 3.01-1.218l-.938-1.078c-.532.546-1.19.812-2.03.812-1.302 0-2.212-.7-2.422-1.792h5.866c.014-.168.028-.378.028-.518zm-3.78-2.464c1.148 0 1.974.742 2.114 1.82h-4.242c.168-1.092.994-1.82 2.128-1.82zm7.127-.224v-1.092h-1.666V58h1.75v-3.626c0-1.526.84-2.31 2.17-2.31.126 0 .252.014.406.042V50.44c-1.246 0-2.156.392-2.66 1.176zm6.959-1.176c-1.204 0-2.366.308-3.164.924l.686 1.274c.56-.462 1.428-.742 2.268-.742 1.246 0 1.862.602 1.862 1.624v.112h-1.932c-2.268 0-3.108.98-3.108 2.226 0 1.302 1.078 2.24 2.786 2.24 1.12 0 1.932-.364 2.352-1.008V58h1.652v-4.382c0-2.156-1.246-3.178-3.402-3.178zm-.238 6.384c-.896 0-1.428-.406-1.428-1.036 0-.546.322-.994 1.512-.994h1.806v.868c-.294.77-1.036 1.162-1.89 1.162zm9.89-.476c-.266.21-.616.308-.98.308-.672 0-1.036-.392-1.036-1.12V51.98h2.002v-1.4h-2.002v-1.708h-1.75v1.708h-1.232v1.4h1.232v3.598c0 1.652.938 2.52 2.576 2.52.63 0 1.26-.168 1.68-.504l-.49-1.246zm8.712-2.044c0-2.338-1.596-3.864-3.78-3.864-2.226 0-3.864 1.596-3.864 3.822s1.624 3.836 4.13 3.836c1.288 0 2.338-.42 3.01-1.218l-.938-1.078c-.532.546-1.19.812-2.03.812-1.302 0-2.212-.7-2.422-1.792h5.866c.014-.168.028-.378.028-.518zm-3.78-2.464c1.148 0 1.974.742 2.114 1.82h-4.242c.168-1.092.994-1.82 2.128-1.82zm10.949-1.316v3.78c0 1.498-.826 2.254-2.044 2.254-1.106 0-1.75-.644-1.75-2.002v-4.032h-1.75v4.27c0 2.254 1.302 3.304 3.22 3.304.966 0 1.848-.364 2.408-1.05V58h1.666v-7.476h-1.75zm5.707 1.092v-1.092h-1.666V58h1.75v-3.626c0-1.526.84-2.31 2.17-2.31.126 0 .252.014.406.042V50.44c-1.246 0-2.156.392-2.66 1.176zm13.654-4.004v3.836c-.588-.686-1.442-1.008-2.408-1.008-2.17 0-3.78 1.498-3.78 3.822s1.61 3.836 3.78 3.836c1.022 0 1.89-.35 2.478-1.064V58h1.68V47.612h-1.75zm-2.198 8.988c-1.26 0-2.226-.91-2.226-2.338s.966-2.338 2.226-2.338 2.226.91 2.226 2.338-.966 2.338-2.226 2.338zm13.265-2.296c0-2.338-1.596-3.864-3.78-3.864-2.226 0-3.864 1.596-3.864 3.822s1.624 3.836 4.13 3.836c1.288 0 2.338-.42 3.01-1.218l-.938-1.078c-.532.546-1.19.812-2.03.812-1.302 0-2.212-.7-2.422-1.792h5.866c.014-.168.028-.378.028-.518zm-3.78-2.464c1.148 0 1.974.742 2.114 1.82h-4.242c.168-1.092.994-1.82 2.128-1.82zm-67.832 14.452c.658 0 1.12-.476 1.12-1.092 0-.574-.476-1.008-1.12-1.008-.644 0-1.12.462-1.12 1.05 0 .588.476 1.05 1.12 1.05zm-1.722 11.522c1.666 0 2.604-1.036 2.604-2.674v-7.616h-1.75v7.658c0 .798-.364 1.19-1.008 1.19-.392 0-.756-.098-1.022-.294l-.504 1.302c.406.308 1.036.434 1.68.434zm11.927-6.51c0-2.338-1.596-3.864-3.78-3.864-2.226 0-3.864 1.596-3.864 3.822s1.624 3.836 4.13 3.836c1.288 0 2.338-.42 3.01-1.218l-.938-1.078c-.532.546-1.19.812-2.03.812-1.302 0-2.212-.7-2.422-1.792h5.866c.014-.168.028-.378.028-.518zm-3.78-2.464c1.148 0 1.974.742 2.114 1.82h-4.242c.168-1.092.994-1.82 2.128-1.82zm9.465 4.508c-.266.21-.616.308-.98.308-.672 0-1.036-.392-1.036-1.12V68.98h2.002v-1.4h-2.002v-1.708h-1.75v1.708h-1.232v1.4h1.232v3.598c0 1.652.938 2.52 2.576 2.52.63 0 1.26-.168 1.68-.504l-.49-1.246zm5.043 1.75c2.324 0 3.99-1.596 3.99-3.836 0-2.24-1.666-3.822-3.99-3.822-2.296 0-3.976 1.582-3.976 3.822s1.68 3.836 3.976 3.836zm0-1.498c-1.26 0-2.212-.91-2.212-2.338s.952-2.338 2.212-2.338c1.274 0 2.226.91 2.226 2.338s-.952 2.338-2.226 2.338zm9.906-6.16c-1.092 0-2.002.364-2.576 1.05v-.966h-1.666V75h1.75v-3.78c0-1.498.84-2.254 2.086-2.254 1.12 0 1.778.644 1.778 1.974V75h1.75v-4.284c0-2.254-1.33-3.276-3.122-3.276zm7.652 7.658c2.1 0 3.388-.91 3.388-2.31 0-2.926-4.62-1.582-4.62-3.094 0-.49.504-.84 1.568-.84.714 0 1.428.14 2.142.56l.672-1.33c-.672-.406-1.806-.644-2.8-.644-2.016 0-3.29.924-3.29 2.338 0 2.982 4.62 1.638 4.62 3.066 0 .518-.462.826-1.568.826-.938 0-1.946-.308-2.604-.742l-.672 1.33c.672.476 1.918.84 3.164.84zM314.951 239.2l-3.29 7.56-3.262-7.56h-1.974l4.284 9.8h1.792l4.27-9.8h-1.82zm4.982 2.24c-1.204 0-2.366.308-3.164.924l.686 1.274c.56-.462 1.428-.742 2.268-.742 1.246 0 1.862.602 1.862 1.624v.112h-1.932c-2.268 0-3.108.98-3.108 2.226 0 1.302 1.078 2.24 2.786 2.24 1.12 0 1.932-.364 2.352-1.008v.91h1.652v-4.382c0-2.156-1.246-3.178-3.402-3.178zm-.238 6.384c-.896 0-1.428-.406-1.428-1.036 0-.546.322-.994 1.512-.994h1.806v.868c-.294.77-1.036 1.162-1.89 1.162zm5.886 1.176h1.75v-10.388h-1.75V249zm4.928-8.708c.658 0 1.12-.476 1.12-1.092 0-.574-.476-1.008-1.12-1.008-.644 0-1.12.462-1.12 1.05 0 .588.476 1.05 1.12 1.05zm-.882 8.708h1.75v-7.476h-1.75V249zm9.619-10.388v3.836c-.588-.686-1.442-1.008-2.408-1.008-2.17 0-3.78 1.498-3.78 3.822s1.61 3.836 3.78 3.836c1.022 0 1.89-.35 2.478-1.064V249h1.68v-10.388h-1.75zm-2.198 8.988c-1.26 0-2.226-.91-2.226-2.338s.966-2.338 2.226-2.338 2.226.91 2.226 2.338-.966 2.338-2.226 2.338zm9.094-6.16c-1.204 0-2.366.308-3.164.924l.686 1.274c.56-.462 1.428-.742 2.268-.742 1.246 0 1.862.602 1.862 1.624v.112h-1.932c-2.268 0-3.108.98-3.108 2.226 0 1.302 1.078 2.24 2.786 2.24 1.12 0 1.932-.364 2.352-1.008v.91h1.652v-4.382c0-2.156-1.246-3.178-3.402-3.178zm-.238 6.384c-.896 0-1.428-.406-1.428-1.036 0-.546.322-.994 1.512-.994h1.806v.868c-.294.77-1.036 1.162-1.89 1.162zm9.89-.476c-.266.21-.616.308-.98.308-.672 0-1.036-.392-1.036-1.12v-3.556h2.002v-1.4h-2.002v-1.708h-1.75v1.708h-1.232v1.4h1.232v3.598c0 1.652.938 2.52 2.576 2.52.63 0 1.26-.168 1.68-.504l-.49-1.246zm8.711-2.044c0-2.338-1.596-3.864-3.78-3.864-2.226 0-3.864 1.596-3.864 3.822s1.624 3.836 4.13 3.836c1.288 0 2.338-.42 3.01-1.218l-.938-1.078c-.532.546-1.19.812-2.03.812-1.302 0-2.212-.7-2.422-1.792h5.866c.014-.168.028-.378.028-.518zm-3.78-2.464c1.148 0 1.974.742 2.114 1.82h-4.242c.168-1.092.994-1.82 2.128-1.82zm10.949-1.316v3.78c0 1.498-.826 2.254-2.044 2.254-1.106 0-1.75-.644-1.75-2.002v-4.032h-1.75v4.27c0 2.254 1.302 3.304 3.22 3.304.966 0 1.848-.364 2.408-1.05V249h1.666v-7.476h-1.75zm5.707 1.092v-1.092h-1.666V249h1.75v-3.626c0-1.526.84-2.31 2.17-2.31.126 0 .252.014.406.042v-1.666c-1.246 0-2.156.392-2.66 1.176zm13.654-4.004v3.836c-.588-.686-1.442-1.008-2.408-1.008-2.17 0-3.78 1.498-3.78 3.822s1.61 3.836 3.78 3.836c1.022 0 1.89-.35 2.478-1.064V249h1.68v-10.388h-1.75zm-2.198 8.988c-1.26 0-2.226-.91-2.226-2.338s.966-2.338 2.226-2.338 2.226.91 2.226 2.338-.966 2.338-2.226 2.338zm13.266-2.296c0-2.338-1.596-3.864-3.78-3.864-2.226 0-3.864 1.596-3.864 3.822s1.624 3.836 4.13 3.836c1.288 0 2.338-.42 3.01-1.218l-.938-1.078c-.532.546-1.19.812-2.03.812-1.302 0-2.212-.7-2.422-1.792h5.866c.014-.168.028-.378.028-.518zm-3.78-2.464c1.148 0 1.974.742 2.114 1.82h-4.242c.168-1.092.994-1.82 2.128-1.82zm-61.892 14.452c.658 0 1.12-.476 1.12-1.092 0-.574-.476-1.008-1.12-1.008-.644 0-1.12.462-1.12 1.05 0 .588.476 1.05 1.12 1.05zm-1.722 11.522c1.666 0 2.604-1.036 2.604-2.674v-7.616h-1.75v7.658c0 .798-.364 1.19-1.008 1.19-.392 0-.756-.098-1.022-.294l-.504 1.302c.406.308 1.036.434 1.68.434zm11.927-6.51c0-2.338-1.596-3.864-3.78-3.864-2.226 0-3.864 1.596-3.864 3.822s1.624 3.836 4.13 3.836c1.288 0 2.338-.42 3.01-1.218l-.938-1.078c-.532.546-1.19.812-2.03.812-1.302 0-2.212-.7-2.422-1.792h5.866c.014-.168.028-.378.028-.518zm-3.78-2.464c1.148 0 1.974.742 2.114 1.82h-4.242c.168-1.092.994-1.82 2.128-1.82zm9.465 4.508c-.266.21-.616.308-.98.308-.672 0-1.036-.392-1.036-1.12v-3.556h2.002v-1.4h-2.002v-1.708h-1.75v1.708h-1.232v1.4h1.232v3.598c0 1.652.938 2.52 2.576 2.52.63 0 1.26-.168 1.68-.504l-.49-1.246zm5.043 1.75c2.324 0 3.99-1.596 3.99-3.836 0-2.24-1.666-3.822-3.99-3.822-2.296 0-3.976 1.582-3.976 3.822s1.68 3.836 3.976 3.836zm0-1.498c-1.26 0-2.212-.91-2.212-2.338s.952-2.338 2.212-2.338c1.274 0 2.226.91 2.226 2.338s-.952 2.338-2.226 2.338zm9.906-6.16c-1.092 0-2.002.364-2.576 1.05v-.966h-1.666V266h1.75v-3.78c0-1.498.84-2.254 2.086-2.254 1.12 0 1.778.644 1.778 1.974V266h1.75v-4.284c0-2.254-1.33-3.276-3.122-3.276zm7.652 7.658c2.1 0 3.388-.91 3.388-2.31 0-2.926-4.62-1.582-4.62-3.094 0-.49.504-.84 1.568-.84.714 0 1.428.14 2.142.56l.672-1.33c-.672-.406-1.806-.644-2.8-.644-2.016 0-3.29.924-3.29 2.338 0 2.982 4.62 1.638 4.62 3.066 0 .518-.462.826-1.568.826-.938 0-1.946-.308-2.604-.742l-.672 1.33c.672.476 1.918.84 3.164.84zM310.496 328.288h3.3v-1.248h-3.3v1.248zm9.962 1.404v-2.316h4.056v-1.284h-4.056v-2.184h4.572V322.6h-6.132v8.4h6.3v-1.308h-4.74zM332.447 331l-2.508-3.276 2.4-3.132h-1.62l-1.572 2.1-1.572-2.1h-1.668l2.388 3.156-2.496 3.252h1.656l1.656-2.22 1.644 2.22h1.692zm4.659-6.48c-.876 0-1.62.3-2.124.912v-.84h-1.428v8.736h1.5v-3.108c.516.588 1.236.864 2.052.864 1.872 0 3.252-1.296 3.252-3.288 0-1.98-1.38-3.276-3.252-3.276zm-.168 5.28c-1.08 0-1.908-.78-1.908-2.004s.828-2.004 1.908-2.004 1.896.78 1.896 2.004-.816 2.004-1.896 2.004zm5.599-6.264c.564 0 .96-.408.96-.936 0-.492-.408-.864-.96-.864s-.96.396-.96.9.408.9.96.9zm-.756 7.464h1.5v-6.408h-1.5V331zm4.897-5.472v-.936h-1.428V331h1.5v-3.108c0-1.308.72-1.98 1.86-1.98.108 0 .216.012.348.036v-1.428c-1.068 0-1.848.336-2.28 1.008zm5.965-1.008c-1.032 0-2.028.264-2.712.792l.588 1.092c.48-.396 1.224-.636 1.944-.636 1.068 0 1.596.516 1.596 1.392v.096h-1.656c-1.944 0-2.664.84-2.664 1.908 0 1.116.924 1.92 2.388 1.92.96 0 1.656-.312 2.016-.864v.78h1.416v-3.756c0-1.848-1.068-2.724-2.916-2.724zm-.204 5.472c-.768 0-1.224-.348-1.224-.888 0-.468.276-.852 1.296-.852h1.548v.744c-.252.66-.888.996-1.62.996zm8.477-.408c-.228.18-.528.264-.84.264-.576 0-.888-.336-.888-.96v-3.048h1.716v-1.2h-1.716v-1.464h-1.5v1.464h-1.056v1.2h1.056v3.084c0 1.416.804 2.16 2.208 2.16.54 0 1.08-.144 1.44-.432l-.42-1.068zm2.41-6.048c.564 0 .96-.408.96-.936 0-.492-.408-.864-.96-.864s-.96.396-.96.9.408.9.96.9zM362.57 331h1.5v-6.408h-1.5V331zm6.349.084c1.992 0 3.42-1.368 3.42-3.288 0-1.92-1.428-3.276-3.42-3.276-1.968 0-3.408 1.356-3.408 3.276 0 1.92 1.44 3.288 3.408 3.288zm0-1.284c-1.08 0-1.896-.78-1.896-2.004s.816-2.004 1.896-2.004c1.092 0 1.908.78 1.908 2.004s-.816 2.004-1.908 2.004zm8.49-5.28c-.936 0-1.716.312-2.208.9v-.828h-1.428V331h1.5v-3.24c0-1.284.72-1.932 1.788-1.932.96 0 1.524.552 1.524 1.692V331h1.5v-3.672c0-1.932-1.14-2.808-2.676-2.808zm11.963 6.6c2.604 0 4.524-1.824 4.524-4.32 0-2.496-1.92-4.32-4.524-4.32s-4.524 1.836-4.524 4.32 1.92 4.32 4.524 4.32zm0-1.368c-1.692 0-2.952-1.236-2.952-2.952s1.26-2.952 2.952-2.952 2.952 1.236 2.952 2.952-1.26 2.952-2.952 2.952zM401.406 331h1.824l-3.744-4.644 3.528-3.756h-1.752l-4.152 4.308V322.6h-1.56v8.4h1.56v-2.148l1.332-1.368 2.964 3.516zM315.359 310.288h3.3v-1.248h-3.3v1.248zm8.402 2.712h1.56v-8.4h-1.56v8.4zm7.324-6.48c-.936 0-1.716.312-2.208.9v-.828h-1.428V313h1.5v-3.24c0-1.284.72-1.932 1.788-1.932.96 0 1.524.552 1.524 1.692V313h1.5v-3.672c0-1.932-1.14-2.808-2.676-2.808zm8.011 5.064c-.228.18-.528.264-.84.264-.576 0-.888-.336-.888-.96v-3.048h1.716v-1.2h-1.716v-1.464h-1.5v1.464h-1.056v1.2h1.056v3.084c0 1.416.804 2.16 2.208 2.16.54 0 1.08-.144 1.44-.432l-.42-1.068zm6.567-7.512h-1.764l-1.62 1.644h1.296l2.088-1.644zm.9 5.76c0-2.004-1.368-3.312-3.24-3.312-1.908 0-3.312 1.368-3.312 3.276 0 1.908 1.392 3.288 3.54 3.288 1.104 0 2.004-.36 2.58-1.044l-.804-.924c-.456.468-1.02.696-1.74.696-1.116 0-1.896-.6-2.076-1.536h5.028c.012-.144.024-.324.024-.444zm-3.24-2.112c.984 0 1.692.636 1.812 1.56h-3.636c.144-.936.852-1.56 1.824-1.56zm9.613-1.128v.852c-.528-.636-1.32-.924-2.22-.924-1.836 0-3.24 1.224-3.24 3.084s1.404 3.108 3.24 3.108c.864 0 1.62-.276 2.148-.852v.336c0 1.296-.624 1.944-2.04 1.944-.888 0-1.8-.3-2.364-.768l-.672 1.128c.732.6 1.92.912 3.12.912 2.244 0 3.456-1.056 3.456-3.384v-5.436h-1.428zm-1.992 4.848c-1.14 0-1.956-.744-1.956-1.836 0-1.08.816-1.812 1.956-1.812 1.128 0 1.944.732 1.944 1.812 0 1.092-.816 1.836-1.944 1.836zm6.82-3.912v-.936h-1.428V313h1.5v-3.108c0-1.308.72-1.98 1.86-1.98.108 0 .216.012.348.036v-1.428c-1.068 0-1.848.336-2.28 1.008zm4.308-1.992c.564 0 .96-.408.96-.936 0-.492-.408-.864-.96-.864s-.96.396-.96.9.408.9.96.9zm-.756 7.464h1.5v-6.408h-1.5V313zm6.901-1.416c-.228.18-.528.264-.84.264-.576 0-.888-.336-.888-.96v-3.048h1.716v-1.2h-1.716v-1.464h-1.5v1.464h-1.056v1.2h1.056v3.084c0 1.416.804 2.16 2.208 2.16.54 0 1.08-.144 1.44-.432l-.42-1.068zm6.567-7.512h-1.764l-1.62 1.644h1.296l2.088-1.644zm.9 5.76c0-2.004-1.368-3.312-3.24-3.312-1.908 0-3.312 1.368-3.312 3.276 0 1.908 1.392 3.288 3.54 3.288 1.104 0 2.004-.36 2.58-1.044l-.804-.924c-.456.468-1.02.696-1.74.696-1.116 0-1.896-.6-2.076-1.536h5.028c.012-.144.024-.324.024-.444zm-3.24-2.112c.984 0 1.692.636 1.812 1.56h-3.636c.144-.936.852-1.56 1.824-1.56zm12.065 5.4c2.604 0 4.524-1.824 4.524-4.32 0-2.496-1.92-4.32-4.524-4.32s-4.524 1.836-4.524 4.32 1.92 4.32 4.524 4.32zm0-1.368c-1.692 0-2.952-1.236-2.952-2.952s1.26-2.952 2.952-2.952 2.952 1.236 2.952 2.952-1.26 2.952-2.952 2.952zM396.543 313h1.824l-3.744-4.644 3.528-3.756h-1.752l-4.152 4.308V304.6h-1.56v8.4h1.56v-2.148l1.332-1.368 2.964 3.516z" fill="#fff"/><path d="M126.754.34c-.836-.532-1.994-.457-3.271.348L4.593 75.674C2.046 77.281-.008 81.167 0 84.352L.247 187.41c.004 1.581.515 2.694 1.34 3.218l6.025 3.825c-.825-.524-1.336-1.637-1.34-3.218l-.247-103.06c-.008-3.184 2.046-7.07 4.593-8.677l118.89-74.986c1.277-.805 2.435-.88 3.271-.349L126.754.34z" fill="#A0DAE1"/><path d="M129.508 4.513c2.537-1.6 4.604-.313 4.613 2.871l.246 103.06c.009 3.184-2.045 7.071-4.582 8.671l-118.89 74.986c-2.548 1.607-4.615.32-4.623-2.865l-.247-103.06c-.008-3.184 2.046-7.07 4.593-8.677l118.89-74.986z" fill="#1FBEC8"/><path d="M128.413 23.322l.204 89.304-116.592 73.536-.204-89.303 116.592-73.537z" fill="#fff"/><path d="M110.915 23.237c1.303-.821 2.364-.161 2.368 1.474.005 1.636-1.049 3.621-2.352 4.443-1.296.818-2.357.166-2.361-1.47-.005-1.635 1.049-3.63 2.345-4.447zM126.045 13.697c1.303-.822 2.364-.162 2.368 1.474.004 1.635-1.049 3.62-2.352 4.443-1.296.817-2.357.165-2.361-1.47-.005-1.636 1.049-3.63 2.345-4.447zM118.48 18.466c1.303-.822 2.364-.161 2.368 1.474.004 1.636-1.05 3.621-2.352 4.443-1.303.822-2.357.166-2.361-1.47-.005-1.635 1.042-3.625 2.345-4.447zM82.622 107.741l33.985-21.435c1.267-.8 2.417-.873 3.247-.346l4.544 2.884c-.831-.527-1.98-.453-3.248.346l-33.984 21.435c-2.521 1.59-4.562 5.452-4.554 8.629l.11 42.648c.005 1.58.515 2.691 1.337 3.213l-4.543-2.885c-.822-.521-1.332-1.632-1.337-3.212l-.11-42.648c-.008-3.177 2.032-7.039 4.553-8.629z" fill="#CEEBF0"/><path d="M87.165 110.625c-2.52 1.59-4.561 5.452-4.553 8.629l.11 42.648c.009 3.178 2.063 4.457 4.584 2.867l33.985-21.435c2.521-1.59 4.561-5.452 4.553-8.629l-.111-42.648c-.008-3.178-2.062-4.456-4.583-2.866l-33.985 21.434z" fill="#A0DAE1"/><path d="M121.63 99.473l.278-.175.086 33.013-.278.175c-2.366 1.493-4.284 5.121-4.276 8.092v.362l-26.298 16.587-.001-.362c-.008-2.97-1.938-4.172-4.305-2.679l-.288.181-.086-33.013.288-.181c2.367-1.493 4.285-5.122 4.277-8.092v-.362l26.298-16.587.001.361c.008 2.97 1.938 4.173 4.304 2.68zm-.204 32.497l-.082-31.605c-2.449 1.364-4.431.13-4.583-2.853l-25.177 15.88c-.136 3.165-2.095 6.884-4.544 8.609l.082 31.605c2.45-1.376 4.421-.136 4.573 2.847l25.178-15.88c.136-3.164 2.105-6.89 4.553-8.603z" fill="#15B2BC"/><path d="M106.963 131.446l.005 1.681-16.586 10.461-.005-1.681 16.586-10.461zM118.091 114.853l.006 1.682-27.74 17.496-.005-1.682 27.739-17.496zM118.103 119.632l.006 1.682-27.74 17.496-.005-1.682 27.739-17.496z" fill="#15B2BC"/><path d="M117.519 104.441l.009 3.526-26.66 16.814-.008-3.526 26.659-16.814zM106.023 164.16l1.015 2.989.957.607-1.015-2.989-.957-.607zM110.756 155.714l-.957-.607 2.804 8.532.956.608-2.803-8.533z" fill="#04666C"/><path d="M112.263 147.788l-4.967 3.132-4.025 16.621.957.607 4.025-16.62 4.966-3.133-.956-.607z" fill="#04666C"/><path d="M113.219 148.395l4.079 11.51-2.751.09-.988 4.252-2.804-8.533-2.76 12.042-1.015-2.989-2.752 3.381 4.025-16.62 4.966-3.133z" fill="#04666C"/><path d="M101.773 151.494c0 2.405.777 4.102 2.037 4.9l1.66 1.054c-1.26-.797-2.037-2.495-2.037-4.9-.012-4.861 3.108-10.777 6.981-13.221 1.943-1.222 3.709-1.337 4.98-.527l-1.66-1.055c-1.271-.81-3.037-.694-4.979.528-3.874 2.443-6.994 8.359-6.982 13.221z" fill="#A0DAE1"/><path d="M115.38 151.263c2.74-5.151 2.747-10.733.016-12.467-2.731-1.733-7.167 1.037-9.907 6.188s-2.748 10.733-.016 12.467c2.731 1.734 7.167-1.037 9.907-6.188z" fill="#1FBEC8"/><path d="M110.756 142.981l1.201 2.276 2.665-1.198-2.04 3.799 1.14 2.836-2.729-.365-2.593 3.355.449-3.616-1.935-1.147 2.663-2.163 1.179-3.777z" fill="#fff"/><path d="M114.466 49.134c-.006-2.295-1.503-3.257-3.355-2.088l-87.9 55.44c-1.828 1.153-3.339 4.011-3.333 6.306l.024 13.327c.006 2.294 1.526 3.241 3.354 2.088l87.901-55.44c1.852-1.168 3.339-4.012 3.333-6.307l-.024-13.326zm-91.214 73.382c-1.107.698-2 .142-2.003-1.247l-.024-13.326c-.004-1.389.883-3.068 1.99-3.766l73.418-46.306.037 18.339-73.418 46.306z" fill="#04666C"/><path d="M108.569 61.224l3.378 2.097-1.575 2.98-3.374-2.105c-.643.866-1.363 1.55-2.083 2.004-1.077.68-2.154.845-2.976.333-1.645-1.024-1.654-4.38-.019-7.473.817-1.547 1.894-2.742 2.972-3.422 1.079-.68 2.158-.845 2.981-.333 1.375.851 1.603 3.325.696 5.92zm-1.584.99c1.138-2.154 1.132-4.485-.014-5.198-.572-.357-1.323-.242-2.072.23-.75.474-1.499 1.305-2.068 2.381-1.138 2.154-1.132 4.485.014 5.198.572.356 1.323.242 2.073-.231.749-.473 1.498-1.304 2.067-2.38z" fill="#fff"/><path d="M40.851 154.408l-.035-13.49-17.636 11.123.035 13.491 17.636-11.124z" fill="#FDBC5A"/><path d="M65.073 139.131l-.035-13.491-17.635 11.123.035 13.491 17.635-11.123z" fill="#04666C"/><path d="M57.393 174.677c-3.216 2.935-7.434 4.734-12.051 4.734-4.575 0-8.879-1.764-12.085-4.655-.027.018-.3.046-.332.061-5.284 2.585-8.701 7.051-8.701 12.578v11.212h41.644v-11.214c0-5.506-3.096-10.132-8.475-12.716z" fill="#FDBC5A"/><path d="M62.48 162.728c0 9.475-7.63 17.155-17.046 17.155-9.412 0-17.042-7.68-17.042-17.155 0-9.473 7.63-17.158 17.042-17.158 9.416 0 17.046 7.685 17.046 17.158z" fill="#FFF3DF"/><path d="M45.434 181.454c-10.263 0-18.611-8.4-18.611-18.726 0-10.327 8.348-18.728 18.61-18.728 10.266 0 18.617 8.401 18.617 18.728 0 10.326-8.351 18.726-18.616 18.726zm0-34.313c-8.531 0-15.471 6.992-15.471 15.587 0 8.594 6.94 15.585 15.47 15.585 8.534 0 15.477-6.991 15.477-15.585 0-8.595-6.943-15.587-15.476-15.587z" fill="#1C2E5C"/><path d="M66.573 200.177a1.57 1.57 0 01-1.571-1.571v-13.517c0-4.498-2.394-7.642-7.32-9.611a1.571 1.571 0 011.166-2.916c6.08 2.431 9.295 6.763 9.295 12.527v13.518a1.57 1.57 0 01-1.57 1.57zM24.57 200.177a1.57 1.57 0 01-1.57-1.571v-13.515c0-5.672 3.141-9.97 9.086-12.43a1.57 1.57 0 011.2 2.901c-4.808 1.99-7.146 5.107-7.146 9.529v13.515a1.57 1.57 0 01-1.57 1.571zM45.435 173.836c-3.813 0-7.214-2.453-8.46-6.104a1.57 1.57 0 112.972-1.014c.812 2.379 3.017 3.977 5.488 3.977 2.467 0 4.673-1.599 5.491-3.98a1.568 1.568 0 011.994-.975 1.569 1.569 0 01.976 1.994c-1.252 3.65-4.652 6.102-8.46 6.102zM40.61 162.357h-2.12a1.57 1.57 0 110-3.141h2.12a1.57 1.57 0 110 3.141zM52.651 162.357H50.53a1.57 1.57 0 010-3.141h2.121a1.57 1.57 0 110 3.141z" fill="#1C2E5C"/><path d="M275.707 52.707a1 1 0 000-1.414l-6.364-6.364a1 1 0 10-1.414 1.414L273.586 52l-5.657 5.657a1 1 0 101.414 1.414l6.364-6.364zM158 53h117v-2H158v2z" fill="#FDBC5A"/><path d="M175.357 43h1.82v-9.8h-1.82V43zm9.875-10.388v3.836c-.588-.686-1.442-1.008-2.408-1.008-2.17 0-3.78 1.498-3.78 3.822s1.61 3.836 3.78 3.836c1.022 0 1.89-.35 2.478-1.064V43h1.68V32.612h-1.75zm-2.198 8.988c-1.26 0-2.226-.91-2.226-2.338s.966-2.338 2.226-2.338 2.226.91 2.226 2.338-.966 2.338-2.226 2.338zm13.265-2.296c0-2.338-1.596-3.864-3.78-3.864-2.226 0-3.864 1.596-3.864 3.822s1.624 3.836 4.13 3.836c1.288 0 2.338-.42 3.01-1.218l-.938-1.078c-.532.546-1.19.812-2.03.812-1.302 0-2.212-.7-2.422-1.792h5.866c.014-.168.028-.378.028-.518zm-3.78-2.464c1.148 0 1.974.742 2.114 1.82h-4.242c.168-1.092.994-1.82 2.128-1.82zm9.703-1.4c-1.092 0-2.002.364-2.576 1.05v-.966h-1.666V43h1.75v-3.78c0-1.498.84-2.254 2.086-2.254 1.12 0 1.778.644 1.778 1.974V43h1.75v-4.284c0-2.254-1.33-3.276-3.122-3.276zm9.346 5.908c-.266.21-.616.308-.98.308-.672 0-1.036-.392-1.036-1.12V36.98h2.002v-1.4h-2.002v-1.708h-1.75v1.708h-1.232v1.4h1.232v3.598c0 1.652.938 2.52 2.576 2.52.63 0 1.26-.168 1.68-.504l-.49-1.246zm2.812-7.056c.658 0 1.12-.476 1.12-1.092 0-.574-.476-1.008-1.12-1.008-.644 0-1.12.462-1.12 1.05 0 .588.476 1.05 1.12 1.05zM213.498 43h1.75v-7.476h-1.75V43zm11.214-8.708c.658 0 1.12-.476 1.12-1.092 0-.574-.476-1.008-1.12-1.008-.644 0-1.12.462-1.12 1.05 0 .588.476 1.05 1.12 1.05zm-6.93.812v.476h-1.232v1.4h1.232V43h1.75v-6.02h2.002v-1.4h-2.058v-.448c0-.798.378-1.204 1.106-1.204.364 0 .7.126.966.308l.49-1.316c-.392-.28-.98-.406-1.582-.406-1.736 0-2.674 1.022-2.674 2.59zM223.83 43h1.75v-7.476h-1.75V43zm6.906-7.56c-1.204 0-2.366.308-3.164.924l.686 1.274c.56-.462 1.428-.742 2.268-.742 1.246 0 1.862.602 1.862 1.624v.112h-1.932c-2.268 0-3.108.98-3.108 2.226 0 1.302 1.078 2.24 2.786 2.24 1.12 0 1.932-.364 2.352-1.008V43h1.652v-4.382c0-2.156-1.246-3.178-3.402-3.178zm-.238 6.384c-.896 0-1.428-.406-1.428-1.036 0-.546.322-.994 1.512-.994h1.806v.868c-.294.77-1.036 1.162-1.89 1.162zm10.128-6.384c-1.092 0-2.002.364-2.576 1.05v-.966h-1.666V43h1.75v-3.78c0-1.498.84-2.254 2.086-2.254 1.12 0 1.778.644 1.778 1.974V43h1.75v-4.284c0-2.254-1.33-3.276-3.122-3.276zm9.346 5.908c-.266.21-.616.308-.98.308-.672 0-1.036-.392-1.036-1.12V36.98h2.002v-1.4h-2.002v-1.708h-1.75v1.708h-1.232v1.4h1.232v3.598c0 1.652.938 2.52 2.576 2.52.63 0 1.26-.168 1.68-.504l-.49-1.246zm4.24 1.75c2.1 0 3.388-.91 3.388-2.31 0-2.926-4.62-1.582-4.62-3.094 0-.49.504-.84 1.568-.84.714 0 1.428.14 2.142.56l.672-1.33c-.672-.406-1.806-.644-2.8-.644-2.016 0-3.29.924-3.29 2.338 0 2.982 4.62 1.638 4.62 3.066 0 .518-.462.826-1.568.826-.938 0-1.946-.308-2.604-.742l-.672 1.33c.672.476 1.918.84 3.164.84zM63.183 274l-1.61-2.3c.95-.37 1.49-1.15 1.49-2.21 0-1.55-1.14-2.49-2.98-2.49h-2.88v7h1.3v-2.04h1.58c.09 0 .18 0 .27-.01l1.43 2.05h1.4zm-1.43-4.51c0 .88-.59 1.4-1.73 1.4h-1.52v-2.79h1.52c1.14 0 1.73.51 1.73 1.39zm7.664 1.87c0-1.67-1.14-2.76-2.7-2.76-1.59 0-2.76 1.14-2.76 2.73s1.16 2.74 2.95 2.74c.92 0 1.67-.3 2.15-.87l-.67-.77c-.38.39-.85.58-1.45.58-.93 0-1.58-.5-1.73-1.28h4.19c.01-.12.02-.27.02-.37zm-2.7-1.76c.82 0 1.41.53 1.51 1.3h-3.03c.12-.78.71-1.3 1.52-1.3zm7.93-.94v.7c-.42-.51-1.04-.76-1.77-.76-1.56 0-2.7 1.08-2.7 2.73 0 1.66 1.14 2.74 2.7 2.74.68 0 1.28-.23 1.71-.72v2.59h1.25v-7.28h-1.19zm-1.63 4.34c-.9 0-1.58-.65-1.58-1.67s.68-1.67 1.58-1.67c.91 0 1.59.65 1.59 1.67s-.68 1.67-1.59 1.67zm8.376-4.34v2.7c0 1.07-.59 1.61-1.46 1.61-.79 0-1.25-.46-1.25-1.43v-2.88h-1.25v3.05c0 1.61.93 2.36 2.3 2.36.69 0 1.32-.26 1.72-.75v.68h1.19v-5.34h-1.25zm5.177-1.47l.88.74h1.03l-1.34-1.37H86l-1.34 1.37h1.03l.88-.74zm2.73 4.17c0-1.67-1.14-2.76-2.7-2.76-1.59 0-2.76 1.14-2.76 2.73s1.16 2.74 2.95 2.74c.92 0 1.67-.3 2.15-.87l-.67-.77c-.38.39-.85.58-1.45.58-.93 0-1.58-.5-1.73-1.28h4.19c.01-.12.02-.27.02-.37zm-2.7-1.76c.82 0 1.41.53 1.51 1.3h-3.03c.12-.78.71-1.3 1.52-1.3zm6.76 3.22c-.19.15-.44.22-.7.22-.48 0-.74-.28-.74-.8v-2.54h1.43v-1h-1.43v-1.22h-1.25v1.22h-.88v1h.88v2.57c0 1.18.67 1.8 1.84 1.8.45 0 .9-.12 1.2-.36l-.35-.89zm6.223-1.46c0-1.67-1.14-2.76-2.7-2.76-1.59 0-2.76 1.14-2.76 2.73s1.16 2.74 2.95 2.74c.92 0 1.67-.3 2.15-.87l-.67-.77c-.38.39-.85.58-1.45.58-.93 0-1.58-.5-1.73-1.28h4.19c.01-.12.02-.27.02-.37zm-2.7-1.76c.82 0 1.41.53 1.51 1.3h-3.03c.12-.78.71-1.3 1.52-1.3zm8.315 4.47c1.5 0 2.42-.65 2.42-1.65 0-2.09-3.3-1.13-3.3-2.21 0-.35.36-.6 1.12-.6.51 0 1.02.1 1.53.4l.48-.95c-.48-.29-1.29-.46-2-.46-1.44 0-2.35.66-2.35 1.67 0 2.13 3.3 1.17 3.3 2.19 0 .37-.33.59-1.12.59-.67 0-1.39-.22-1.86-.53l-.48.95c.48.34 1.37.6 2.26.6zm7.416-5.41v2.7c0 1.07-.59 1.61-1.46 1.61-.79 0-1.25-.46-1.25-1.43v-2.88h-1.25v3.05c0 1.61.93 2.36 2.3 2.36.69 0 1.32-.26 1.72-.75v.68h1.19v-5.34h-1.25zm4.077.78v-.78h-1.19V274h1.25v-2.59c0-1.09.6-1.65 1.55-1.65.09 0 .18.01.29.03v-1.19c-.89 0-1.54.28-1.9.84zm9.693-.78v2.7c0 1.07-.59 1.61-1.46 1.61-.79 0-1.25-.46-1.25-1.43v-2.88h-1.25v3.05c0 1.61.93 2.36 2.3 2.36.69 0 1.32-.26 1.72-.75v.68h1.19v-5.34h-1.25zm5.916-.06c-.78 0-1.43.26-1.84.75v-.69h-1.19V274h1.25v-2.7c0-1.07.6-1.61 1.49-1.61.8 0 1.27.46 1.27 1.41v2.9h1.25v-3.06c0-1.61-.95-2.34-2.23-2.34zm4.216 1.66c.45 0 .82-.35.82-.83 0-.5-.37-.83-.82-.83-.45 0-.82.33-.82.83 0 .48.37.83.82.83zm0 3.81c.45 0 .82-.35.82-.83 0-.5-.37-.83-.82-.83-.45 0-.82.33-.82.83 0 .48.37.83.82.83z" fill="#1C2E5C"/><path d="M78.785 286h3.06c2.27 0 3.82-1.4 3.82-3.5s-1.55-3.5-3.82-3.5h-3.06v7zm1.3-1.1v-4.8h1.7c1.56 0 2.57.95 2.57 2.4s-1.01 2.4-2.57 2.4h-1.7zm9.241 1.17c1.66 0 2.85-1.14 2.85-2.74 0-1.6-1.19-2.73-2.85-2.73-1.64 0-2.84 1.13-2.84 2.73s1.2 2.74 2.84 2.74zm0-1.07c-.9 0-1.58-.65-1.58-1.67s.68-1.67 1.58-1.67c.91 0 1.59.65 1.59 1.67s-.68 1.67-1.59 1.67zm5.696 1.07c1.5 0 2.42-.65 2.42-1.65 0-2.09-3.3-1.13-3.3-2.21 0-.35.36-.6 1.12-.6.51 0 1.02.1 1.53.4l.48-.95c-.48-.29-1.29-.46-2-.46-1.44 0-2.35.66-2.35 1.67 0 2.13 3.3 1.17 3.3 2.19 0 .37-.33.59-1.12.59-.67 0-1.39-.22-1.86-.53l-.48.95c.48.34 1.37.6 2.26.6zm5.146 0c1.5 0 2.42-.65 2.42-1.65 0-2.09-3.3-1.13-3.3-2.21 0-.35.36-.6 1.12-.6.51 0 1.02.1 1.53.4l.48-.95c-.48-.29-1.29-.46-2-.46-1.44 0-2.35.66-2.35 1.67 0 2.13 3.3 1.17 3.3 2.19 0 .37-.33.59-1.12.59-.67 0-1.39-.22-1.86-.53l-.48.95c.48.34 1.37.6 2.26.6zm4.127-6.29c.47 0 .8-.34.8-.78 0-.41-.34-.72-.8-.72s-.8.33-.8.75.34.75.8.75zm-.63 6.22h1.25v-5.34h-1.25V286zm7.91-2.64c0-1.67-1.14-2.76-2.7-2.76-1.59 0-2.76 1.14-2.76 2.73s1.16 2.74 2.95 2.74c.92 0 1.67-.3 2.15-.87l-.67-.77c-.38.39-.85.58-1.45.58-.93 0-1.58-.5-1.73-1.28h4.19c.01-.12.02-.27.02-.37zm-2.7-1.76c.82 0 1.41.53 1.51 1.3h-3.03c.12-.78.71-1.3 1.52-1.3zm5.091-.16v-.78h-1.19V286h1.25v-2.59c0-1.09.6-1.65 1.55-1.65.09 0 .18.01.29.03v-1.19c-.89 0-1.54.28-1.9.84zM684.707 57.707a1 1 0 000-1.414l-6.364-6.364a1 1 0 10-1.414 1.414L682.586 57l-5.657 5.657a1 1 0 101.414 1.414l6.364-6.364zM567 58h117v-2H567v2zM566.293 68.293a1 1 0 000 1.414l6.364 6.364a1 1 0 101.414-1.414L568.414 69l5.657-5.657a1 1 0 10-1.414-1.414l-6.364 6.364zM684 68H567v2h117v-2z" fill="#FDBC5A"/><path d="M584.357 48h1.82v-9.8h-1.82V48zm9.875-10.388v3.836c-.588-.686-1.442-1.008-2.408-1.008-2.17 0-3.78 1.498-3.78 3.822s1.61 3.836 3.78 3.836c1.022 0 1.89-.35 2.478-1.064V48h1.68V37.612h-1.75zm-2.198 8.988c-1.26 0-2.226-.91-2.226-2.338s.966-2.338 2.226-2.338 2.226.91 2.226 2.338-.966 2.338-2.226 2.338zm13.265-2.296c0-2.338-1.596-3.864-3.78-3.864-2.226 0-3.864 1.596-3.864 3.822s1.624 3.836 4.13 3.836c1.288 0 2.338-.42 3.01-1.218l-.938-1.078c-.532.546-1.19.812-2.03.812-1.302 0-2.212-.7-2.422-1.792h5.866c.014-.168.028-.378.028-.518zm-3.78-2.464c1.148 0 1.974.742 2.114 1.82h-4.242c.168-1.092.994-1.82 2.128-1.82zm9.703-1.4c-1.092 0-2.002.364-2.576 1.05v-.966h-1.666V48h1.75v-3.78c0-1.498.84-2.254 2.086-2.254 1.12 0 1.778.644 1.778 1.974V48h1.75v-4.284c0-2.254-1.33-3.276-3.122-3.276zm9.346 5.908c-.266.21-.616.308-.98.308-.672 0-1.036-.392-1.036-1.12V41.98h2.002v-1.4h-2.002v-1.708h-1.75v1.708h-1.232v1.4h1.232v3.598c0 1.652.938 2.52 2.576 2.52.63 0 1.26-.168 1.68-.504l-.49-1.246zm2.812-7.056c.658 0 1.12-.476 1.12-1.092 0-.574-.476-1.008-1.12-1.008-.644 0-1.12.462-1.12 1.05 0 .588.476 1.05 1.12 1.05zM622.498 48h1.75v-7.476h-1.75V48zm11.214-8.708c.658 0 1.12-.476 1.12-1.092 0-.574-.476-1.008-1.12-1.008-.644 0-1.12.462-1.12 1.05 0 .588.476 1.05 1.12 1.05zm-6.93.812v.476h-1.232v1.4h1.232V48h1.75v-6.02h2.002v-1.4h-2.058v-.448c0-.798.378-1.204 1.106-1.204.364 0 .7.126.966.308l.49-1.316c-.392-.28-.98-.406-1.582-.406-1.736 0-2.674 1.022-2.674 2.59zM632.83 48h1.75v-7.476h-1.75V48zm6.906-7.56c-1.204 0-2.366.308-3.164.924l.686 1.274c.56-.462 1.428-.742 2.268-.742 1.246 0 1.862.602 1.862 1.624v.112h-1.932c-2.268 0-3.108.98-3.108 2.226 0 1.302 1.078 2.24 2.786 2.24 1.12 0 1.932-.364 2.352-1.008V48h1.652v-4.382c0-2.156-1.246-3.178-3.402-3.178zm-.238 6.384c-.896 0-1.428-.406-1.428-1.036 0-.546.322-.994 1.512-.994h1.806v.868c-.294.77-1.036 1.162-1.89 1.162zm10.128-6.384c-1.092 0-2.002.364-2.576 1.05v-.966h-1.666V48h1.75v-3.78c0-1.498.84-2.254 2.086-2.254 1.12 0 1.778.644 1.778 1.974V48h1.75v-4.284c0-2.254-1.33-3.276-3.122-3.276zm9.346 5.908c-.266.21-.616.308-.98.308-.672 0-1.036-.392-1.036-1.12V41.98h2.002v-1.4h-2.002v-1.708h-1.75v1.708h-1.232v1.4h1.232v3.598c0 1.652.938 2.52 2.576 2.52.63 0 1.26-.168 1.68-.504l-.49-1.246zm4.24 1.75c2.1 0 3.388-.91 3.388-2.31 0-2.926-4.62-1.582-4.62-3.094 0-.49.504-.84 1.568-.84.714 0 1.428.14 2.142.56l.672-1.33c-.672-.406-1.806-.644-2.8-.644-2.016 0-3.29.924-3.29 2.338 0 2.982 4.62 1.638 4.62 3.066 0 .518-.462.826-1.568.826-.938 0-1.946-.308-2.604-.742l-.672 1.33c.672.476 1.918.84 3.164.84zM619.902 89.14c3.038 0 5.278-2.128 5.278-5.04s-2.24-5.04-5.278-5.04c-3.038 0-5.278 2.142-5.278 5.04s2.24 5.04 5.278 5.04zm0-1.596c-1.974 0-3.444-1.442-3.444-3.444s1.47-3.444 3.444-3.444 3.444 1.442 3.444 3.444-1.47 3.444-3.444 3.444zM633.941 89h2.128l-4.368-5.418 4.116-4.382h-2.044l-4.844 5.026V79.2h-1.82V89h1.82v-2.506l1.554-1.596L633.941 89z" fill="#1C2E5C"/><path d="M353.5 151v1h1v-1h-1zm-197.207-.707a.999.999 0 000 1.414l6.364 6.364a.999.999 0 101.414-1.414L158.414 151l5.657-5.657a.999.999 0 10-1.414-1.414l-6.364 6.364zM352.5 110.5V151h2v-40.5h-2zm1 39.5H157v2h196.5v-2z" fill="#FDBC5A"/><rect x="174" y="130" width="85" height="91" rx="5" fill="#E8505B"/><path d="M181.346 141.206c1.386 0 2.124-.729 2.124-2.214v-4.176h-3.411v.981h2.241v3.258c0 .774-.333 1.161-.981 1.161-.495 0-.909-.252-1.251-.72l-.666.801c.432.585 1.152.909 1.944.909zm8.175-2.466c0-1.503-1.026-2.484-2.43-2.484-1.431 0-2.484 1.026-2.484 2.457 0 1.431 1.044 2.466 2.655 2.466.828 0 1.503-.27 1.935-.783l-.603-.693c-.342.351-.765.522-1.305.522-.837 0-1.422-.45-1.557-1.152h3.771c.009-.108.018-.243.018-.333zm-2.43-1.584c.738 0 1.269.477 1.359 1.17h-2.727c.108-.702.639-1.17 1.368-1.17zm6.084 2.898a1.012 1.012 0 01-.63.198c-.432 0-.666-.252-.666-.72v-2.286h1.287v-.9h-1.287v-1.098h-1.125v1.098h-.792v.9h.792v2.313c0 1.062.603 1.62 1.656 1.62.405 0 .81-.108 1.08-.324l-.315-.801zm3.243 1.125c1.494 0 2.565-1.026 2.565-2.466 0-1.44-1.071-2.457-2.565-2.457-1.476 0-2.556 1.017-2.556 2.457s1.08 2.466 2.556 2.466zm0-.963c-.81 0-1.422-.585-1.422-1.503 0-.918.612-1.503 1.422-1.503.819 0 1.431.585 1.431 1.503 0 .918-.612 1.503-1.431 1.503zm6.367-3.96c-.702 0-1.287.234-1.656.675v-.621h-1.071v4.806h1.125v-2.43c0-.963.54-1.449 1.341-1.449.72 0 1.143.414 1.143 1.269v2.61h1.125v-2.754c0-1.449-.855-2.106-2.007-2.106zM208.003 168.6v5.688l-4.632-5.688h-1.284v8.4h1.548v-5.688l4.632 5.688h1.284v-8.4h-1.548zm6.535 8.484c1.992 0 3.42-1.368 3.42-3.288 0-1.92-1.428-3.276-3.42-3.276-1.968 0-3.408 1.356-3.408 3.276 0 1.92 1.44 3.288 3.408 3.288zm0-1.284c-1.08 0-1.896-.78-1.896-2.004s.816-2.004 1.896-2.004c1.092 0 1.908.78 1.908 2.004s-.816 2.004-1.908 2.004zm12.942-5.28c-1.02 0-1.884.408-2.4 1.068-.444-.72-1.224-1.068-2.16-1.068-.876 0-1.62.312-2.1.888v-.816h-1.428V177h1.5v-3.252c0-1.272.672-1.92 1.668-1.92.912 0 1.44.552 1.44 1.692V177h1.5v-3.252c0-1.272.684-1.92 1.668-1.92.912 0 1.44.552 1.44 1.692V177h1.5v-3.672c0-1.932-1.08-2.808-2.628-2.808zM210.581 192l-1.932-2.76c1.14-.444 1.788-1.38 1.788-2.652 0-1.86-1.368-2.988-3.576-2.988h-3.456v8.4h1.56v-2.448h1.896c.108 0 .216 0 .324-.012l1.716 2.46h1.68zm-1.716-5.412c0 1.056-.708 1.68-2.076 1.68h-1.824v-3.348h1.824c1.368 0 2.076.612 2.076 1.668zm6.042-2.76l1.056.888h1.236l-1.608-1.644h-1.368l-1.608 1.644h1.236l1.056-.888zm.012 1.692c-1.968 0-3.408 1.356-3.408 3.276 0 1.92 1.44 3.288 3.408 3.288 1.992 0 3.42-1.368 3.42-3.288 0-1.92-1.428-3.276-3.42-3.276zm0 5.28c-1.08 0-1.896-.78-1.896-2.004s.816-2.004 1.896-2.004c1.092 0 1.908.78 1.908 2.004s-.816 2.004-1.908 2.004zm4.854 1.2h1.5v-8.904h-1.5V192zm9.493-3.168c0-2.004-1.368-3.312-3.24-3.312-1.908 0-3.312 1.368-3.312 3.276 0 1.908 1.392 3.288 3.54 3.288 1.104 0 2.004-.36 2.58-1.044l-.804-.924c-.456.468-1.02.696-1.74.696-1.116 0-1.896-.6-2.076-1.536h5.028c.012-.144.024-.324.024-.444zm-3.24-2.112c.984 0 1.692.636 1.812 1.56h-3.636c.144-.936.852-1.56 1.824-1.56zm-36.54 20.4c2.304 0 3.396-1.152 3.396-2.496 0-3.084-4.98-1.92-4.98-3.708 0-.636.528-1.14 1.824-1.14.732 0 1.56.216 2.316.66l.492-1.212c-.732-.48-1.788-.744-2.796-.744-2.304 0-3.384 1.152-3.384 2.508 0 3.12 4.992 1.932 4.992 3.744 0 .624-.552 1.092-1.86 1.092-1.032 0-2.1-.384-2.772-.924l-.54 1.212c.696.6 2.004 1.008 3.312 1.008zm5.555-7.584c.564 0 .96-.408.96-.936 0-.492-.408-.864-.96-.864s-.96.396-.96.9.408.9.96.9zm-.756 7.464h1.5v-6.408h-1.5V207zm8.401-6.408v.852c-.528-.636-1.32-.924-2.22-.924-1.836 0-3.24 1.224-3.24 3.084s1.404 3.108 3.24 3.108c.864 0 1.62-.276 2.148-.852v.336c0 1.296-.624 1.944-2.04 1.944-.888 0-1.8-.3-2.364-.768l-.672 1.128c.732.6 1.92.912 3.12.912 2.244 0 3.456-1.056 3.456-3.384v-5.436h-1.428zm-1.992 4.848c-1.14 0-1.956-.744-1.956-1.836 0-1.08.816-1.812 1.956-1.812 1.128 0 1.944.732 1.944 1.812 0 1.092-.816 1.836-1.944 1.836zm9.028-4.92c-.936 0-1.716.312-2.208.9v-.828h-1.428V207h1.5v-3.24c0-1.284.72-1.932 1.788-1.932.96 0 1.524.552 1.524 1.692V207h1.5v-3.672c0-1.932-1.14-2.808-2.676-2.808zm7.026 0c-1.032 0-2.028.264-2.712.792l.588 1.092c.48-.396 1.224-.636 1.944-.636 1.068 0 1.596.516 1.596 1.392v.096h-1.656c-1.944 0-2.664.84-2.664 1.908 0 1.116.924 1.92 2.388 1.92.96 0 1.656-.312 2.016-.864v.78h1.416v-3.756c0-1.848-1.068-2.724-2.916-2.724zm-.204 5.472c-.768 0-1.224-.348-1.224-.888 0-.468.276-.852 1.296-.852h1.548v.744c-.252.66-.888.996-1.62.996zm8.477-.408c-.228.18-.528.264-.84.264-.576 0-.888-.336-.888-.96v-3.048h1.716v-1.2h-1.716v-1.464h-1.5v1.464h-1.056v1.2h1.056v3.084c0 1.416.804 2.16 2.208 2.16.54 0 1.08-.144 1.44-.432l-.42-1.068zm6.358-4.992v3.24c0 1.284-.708 1.932-1.752 1.932-.948 0-1.5-.552-1.5-1.716v-3.456h-1.5v3.66c0 1.932 1.116 2.832 2.76 2.832.828 0 1.584-.312 2.064-.9V207h1.428v-6.408h-1.5zm4.892.936v-.936h-1.428V207h1.5v-3.108c0-1.308.72-1.98 1.86-1.98.108 0 .216.012.348.036v-1.428c-1.068 0-1.848.336-2.28 1.008zm9.518 2.304c0-2.004-1.368-3.312-3.24-3.312-1.908 0-3.312 1.368-3.312 3.276 0 1.908 1.392 3.288 3.54 3.288 1.104 0 2.004-.36 2.58-1.044l-.804-.924c-.456.468-1.02.696-1.74.696-1.116 0-1.896-.6-2.076-1.536h5.028c.012-.144.024-.324.024-.444zm-3.24-2.112c.984 0 1.692.636 1.812 1.56h-3.636c.144-.936.852-1.56 1.824-1.56z" fill="#fff"/><g clip-path="url(#clip4)"><path d="M209.608 135.63a3.332 3.332 0 014.708-.002 3.33 3.33 0 01.813 3.379l3.75 3.748a.3.3 0 01.089.214l.001 1.712a.303.303 0 01-.303.303h-1.712a.306.306 0 01-.214-.088l-.428-.428a.307.307 0 01-.087-.249l.053-.46-.637-.06a.303.303 0 01-.273-.273l-.06-.637-.46.054a.298.298 0 01-.236-.075.3.3 0 01-.102-.226v-.563h-.553a.301.301 0 01-.214-.089l-.777-.765c-1.185.385-2.469.1-3.356-.787a3.332 3.332 0 01-.002-4.708zm.857 2.14a.908.908 0 101.283-1.285.908.908 0 00-1.283 1.285z" fill="#fff"/></g><g clip-path="url(#clip5)"><path d="M210.468 135.22a3.333 3.333 0 013.392 3.265 3.33 3.33 0 01-1.76 2.997l.101 5.301a.304.304 0 01-.085.216l-1.187 1.234a.303.303 0 01-.428.008l-1.234-1.188a.305.305 0 01-.093-.212l-.011-.606a.303.303 0 01.11-.239l.358-.294-.418-.485a.302.302 0 01-.007-.386l.399-.501-.369-.28a.301.301 0 01-.034-.451l.391-.406-.399-.384a.303.303 0 01-.093-.212l-.028-1.09c-1.12-.545-1.847-1.641-1.871-2.895a3.333 3.333 0 013.266-3.392zm-.868 2.136a.909.909 0 101.817-.037.909.909 0 00-1.817.037z" fill="#fff"/></g><path d="M159.235 275.4h-2.478v-2.45h-1.498v2.45h-2.478v1.4h2.478v2.45h1.498v-2.45h2.478v-1.4z" fill="#000"/><rect x="448" y="102" width="268" height="237" rx="4" stroke="#1FBEC8" stroke-width="2" stroke-dasharray="3 5"/><rect x="738" y="102" width="268" height="237" rx="4" stroke="#1FBEC8" stroke-width="2" stroke-dasharray="3 5"/><path d="M475.736 119l-1.932-2.76c1.14-.444 1.788-1.38 1.788-2.652 0-1.86-1.368-2.988-3.576-2.988h-3.456v8.4h1.56v-2.448h1.896c.108 0 .216 0 .324-.012l1.716 2.46h1.68zm-1.716-5.412c0 1.056-.708 1.68-2.076 1.68h-1.824v-3.348h1.824c1.368 0 2.076.612 2.076 1.668zm8.297-3.516h-1.764l-1.62 1.644h1.296l2.088-1.644zm.9 5.76c0-2.004-1.368-3.312-3.24-3.312-1.908 0-3.312 1.368-3.312 3.276 0 1.908 1.392 3.288 3.54 3.288 1.104 0 2.004-.36 2.58-1.044l-.804-.924c-.456.468-1.02.696-1.74.696-1.116 0-1.896-.6-2.076-1.536h5.028c.012-.144.024-.324.024-.444zm-3.24-2.112c.984 0 1.692.636 1.812 1.56h-3.636c.144-.936.852-1.56 1.824-1.56zm6.661 5.364c1.8 0 2.904-.78 2.904-1.98 0-2.508-3.96-1.356-3.96-2.652 0-.42.432-.72 1.344-.72.612 0 1.224.12 1.836.48l.576-1.14c-.576-.348-1.548-.552-2.4-.552-1.728 0-2.82.792-2.82 2.004 0 2.556 3.96 1.404 3.96 2.628 0 .444-.396.708-1.344.708-.804 0-1.668-.264-2.232-.636l-.576 1.14c.576.408 1.644.72 2.712.72zm7.076 0c1.992 0 3.42-1.368 3.42-3.288 0-1.92-1.428-3.276-3.42-3.276-1.968 0-3.408 1.356-3.408 3.276 0 1.92 1.44 3.288 3.408 3.288zm0-1.284c-1.08 0-1.896-.78-1.896-2.004s.816-2.004 1.896-2.004c1.092 0 1.908.78 1.908 2.004s-.816 2.004-1.908 2.004zm4.854 1.2h1.5v-8.904h-1.5V119zm8.029-6.408l-2.052 4.752-1.992-4.752h-1.56l2.748 6.408h1.548l2.748-6.408h-1.44zm8.225 3.24c0-2.004-1.368-3.312-3.24-3.312-1.908 0-3.312 1.368-3.312 3.276 0 1.908 1.392 3.288 3.54 3.288 1.104 0 2.004-.36 2.58-1.044l-.804-.924c-.456.468-1.02.696-1.74.696-1.116 0-1.896-.6-2.076-1.536h5.028c.012-.144.024-.324.024-.444zm-3.24-2.112c.984 0 1.692.636 1.812 1.56h-3.636c.144-.936.852-1.56 1.824-1.56zm9.385-1.128v3.24c0 1.284-.708 1.932-1.752 1.932-.948 0-1.5-.552-1.5-1.716v-3.456h-1.5v3.66c0 1.932 1.116 2.832 2.76 2.832.828 0 1.584-.312 2.064-.9V119h1.428v-6.408h-1.5zm4.892.936v-.936h-1.428V119h1.5v-3.108c0-1.308.72-1.98 1.86-1.98.108 0 .216.012.348.036v-1.428c-1.068 0-1.848.336-2.28 1.008zm5.556 5.556c1.8 0 2.904-.78 2.904-1.98 0-2.508-3.96-1.356-3.96-2.652 0-.42.432-.72 1.344-.72.612 0 1.224.12 1.836.48l.576-1.14c-.576-.348-1.548-.552-2.4-.552-1.728 0-2.82.792-2.82 2.004 0 2.556 3.96 1.404 3.96 2.628 0 .444-.396.708-1.344.708-.804 0-1.668-.264-2.232-.636l-.576 1.14c.576.408 1.644.72 2.712.72zm13.392-1.764c-.54.312-1.128.432-1.728.432-1.776 0-3.036-1.248-3.036-2.952 0-1.74 1.26-2.952 3.048-2.952.9 0 1.656.3 2.316.96l.984-.96c-.792-.9-1.968-1.368-3.372-1.368-2.628 0-4.548 1.812-4.548 4.32s1.92 4.32 4.524 4.32c1.188 0 2.412-.36 3.288-1.068v-3.348h-1.476v2.616zm10.71 1.68l-1.932-2.76c1.14-.444 1.788-1.38 1.788-2.652 0-1.86-1.368-2.988-3.576-2.988h-3.456v8.4h1.56v-2.448h1.896c.108 0 .216 0 .324-.012l1.716 2.46h1.68zm-1.716-5.412c0 1.056-.708 1.68-2.076 1.68h-1.824v-3.348h1.824c1.368 0 2.076.612 2.076 1.668zm9.605 5.412h1.632l-3.792-8.4h-1.536l-3.78 8.4h1.608l.828-1.944h4.2l.84 1.944zm-4.512-3.168l1.572-3.672 1.584 3.672h-3.156zm10.669-5.232h-3.456v8.4h1.56v-2.424h1.896c2.208 0 3.576-1.14 3.576-2.988 0-1.86-1.368-2.988-3.576-2.988zm-.072 4.656h-1.824v-3.336h1.824c1.368 0 2.076.612 2.076 1.668s-.708 1.668-2.076 1.668zM580.6 110.6v3.468h-4.344V110.6h-1.56v8.4h1.56v-3.6h4.344v3.6h1.56v-8.4h-1.56zm11.959 8.376c-.408.444-.888.672-1.44.672-.492 0-.924-.192-1.404-.708 1.872-.528 3.144-2.112 3.144-4.14 0-2.496-1.92-4.32-4.524-4.32s-4.524 1.836-4.524 4.32c0 2.328 1.692 4.092 4.044 4.296 1.236 1.296 2.088 1.74 3.228 1.74.888 0 1.644-.348 2.196-.996l-.72-.864zm-7.176-4.176c0-1.716 1.26-2.952 2.952-2.952s2.952 1.236 2.952 2.952-1.26 2.952-2.952 2.952-2.952-1.236-2.952-2.952zm9.13 4.2h5.952v-1.32h-4.392v-7.08h-1.56v8.4z" fill="#000"/><path d="M750.39 119.12c2.304 0 3.396-1.152 3.396-2.496 0-3.084-4.98-1.92-4.98-3.708 0-.636.528-1.14 1.824-1.14.732 0 1.56.216 2.316.66l.492-1.212c-.732-.48-1.788-.744-2.796-.744-2.304 0-3.384 1.152-3.384 2.508 0 3.12 4.992 1.932 4.992 3.744 0 .624-.552 1.092-1.86 1.092-1.032 0-2.1-.384-2.772-.924l-.54 1.212c.696.6 2.004 1.008 3.312 1.008zm10.823-3.288c0-2.004-1.368-3.312-3.24-3.312-1.908 0-3.312 1.368-3.312 3.276 0 1.908 1.392 3.288 3.54 3.288 1.104 0 2.004-.36 2.58-1.044l-.804-.924c-.456.468-1.02.696-1.74.696-1.116 0-1.896-.6-2.076-1.536h5.028c.012-.144.024-.324.024-.444zm-3.24-2.112c.984 0 1.692.636 1.812 1.56h-3.636c.144-.936.852-1.56 1.824-1.56zm6.109-.192v-.936h-1.428V119h1.5v-3.108c0-1.308.72-1.98 1.86-1.98.108 0 .216.012.348.036v-1.428c-1.068 0-1.848.336-2.28 1.008zm8.347-.936l-2.052 4.752-1.992-4.752h-1.56l2.748 6.408h1.548l2.748-6.408h-1.44zm3.133-1.056c.564 0 .96-.408.96-.936 0-.492-.408-.864-.96-.864s-.96.396-.96.9.408.9.96.9zm-.756 7.464h1.5v-6.408h-1.5V119zm6.409.084c1.248 0 2.244-.54 2.736-1.5l-1.152-.672c-.384.612-.96.888-1.596.888-1.104 0-1.944-.756-1.944-2.004 0-1.236.84-2.004 1.944-2.004.636 0 1.212.276 1.596.888l1.152-.672c-.492-.972-1.488-1.488-2.736-1.488-2.028 0-3.468 1.356-3.468 3.276 0 1.92 1.44 3.288 3.468 3.288zm9.963-3.252c0-2.004-1.368-3.312-3.24-3.312-1.908 0-3.312 1.368-3.312 3.276 0 1.908 1.392 3.288 3.54 3.288 1.104 0 2.004-.36 2.58-1.044l-.804-.924c-.456.468-1.02.696-1.74.696-1.116 0-1.896-.6-2.076-1.536h5.028c.012-.144.024-.324.024-.444zm-3.24-2.112c.984 0 1.692.636 1.812 1.56h-3.636c.144-.936.852-1.56 1.824-1.56zm6.661 5.364c1.8 0 2.904-.78 2.904-1.98 0-2.508-3.96-1.356-3.96-2.652 0-.42.432-.72 1.344-.72.612 0 1.224.12 1.836.48l.576-1.14c-.576-.348-1.548-.552-2.4-.552-1.728 0-2.82.792-2.82 2.004 0 2.556 3.96 1.404 3.96 2.628 0 .444-.396.708-1.344.708-.804 0-1.668-.264-2.232-.636l-.576 1.14c.576.408 1.644.72 2.712.72zm15.6-6.564c-1.02 0-1.884.408-2.4 1.068-.444-.72-1.224-1.068-2.16-1.068-.876 0-1.62.312-2.1.888v-.816h-1.428V119h1.5v-3.252c0-1.272.672-1.92 1.668-1.92.912 0 1.44.552 1.44 1.692V119h1.5v-3.252c0-1.272.684-1.92 1.668-1.92.912 0 1.44.552 1.44 1.692V119h1.5v-3.672c0-1.932-1.08-2.808-2.628-2.808zm9.727-2.448h-1.764l-1.62 1.644h1.296l2.088-1.644zm.9 5.76c0-2.004-1.368-3.312-3.24-3.312-1.908 0-3.312 1.368-3.312 3.276 0 1.908 1.392 3.288 3.54 3.288 1.104 0 2.004-.36 2.58-1.044l-.804-.924c-.456.468-1.02.696-1.74.696-1.116 0-1.896-.6-2.076-1.536h5.028c.012-.144.024-.324.024-.444zm-3.24-2.112c.984 0 1.692.636 1.812 1.56h-3.636c.144-.936.852-1.56 1.824-1.56zm8.113 3.864c-.228.18-.528.264-.84.264-.576 0-.888-.336-.888-.96v-3.048h1.716v-1.2h-1.716v-1.464h-1.5v1.464h-1.056v1.2h1.056v3.084c0 1.416.804 2.16 2.208 2.16.54 0 1.08-.144 1.44-.432l-.42-1.068zm2.41-6.048c.564 0 .96-.408.96-.936 0-.492-.408-.864-.96-.864s-.96.396-.96.9.408.9.96.9zm-.756 7.464h1.5v-6.408h-1.5V119zm9.493-3.168c0-2.004-1.368-3.312-3.24-3.312-1.908 0-3.312 1.368-3.312 3.276 0 1.908 1.392 3.288 3.54 3.288 1.104 0 2.004-.36 2.58-1.044l-.804-.924c-.456.468-1.02.696-1.74.696-1.116 0-1.896-.6-2.076-1.536h5.028c.012-.144.024-.324.024-.444zm-3.24-2.112c.984 0 1.692.636 1.812 1.56h-3.636c.144-.936.852-1.56 1.824-1.56zm6.109-.192v-.936h-1.428V119h1.5v-3.108c0-1.308.72-1.98 1.86-1.98.108 0 .216.012.348.036v-1.428c-1.068 0-1.848.336-2.28 1.008z" fill="#1C2E5C"/><path d="M761.591 228h1.56v-8.4h-1.56v8.4zm7.324-6.48c-.936 0-1.716.312-2.208.9v-.828h-1.428V228h1.5v-3.24c0-1.284.72-1.932 1.788-1.932.96 0 1.524.552 1.524 1.692V228h1.5v-3.672c0-1.932-1.14-2.808-2.676-2.808zm6.559 6.564c1.8 0 2.904-.78 2.904-1.98 0-2.508-3.96-1.356-3.96-2.652 0-.42.432-.72 1.344-.72.612 0 1.224.12 1.836.48l.576-1.14c-.576-.348-1.548-.552-2.4-.552-1.728 0-2.82.792-2.82 2.004 0 2.556 3.96 1.404 3.96 2.628 0 .444-.396.708-1.344.708-.804 0-1.668-.264-2.232-.636l-.576 1.14c.576.408 1.644.72 2.712.72zm7.628-1.5c-.228.18-.528.264-.84.264-.576 0-.888-.336-.888-.96v-3.048h1.716v-1.2h-1.716v-1.464h-1.5v1.464h-1.056v1.2h1.056v3.084c0 1.416.804 2.16 2.208 2.16.54 0 1.08-.144 1.44-.432l-.42-1.068zm3.081-4.056v-.936h-1.428V228h1.5v-3.108c0-1.308.72-1.98 1.86-1.98.108 0 .216.012.348.036v-1.428c-1.068 0-1.848.336-2.28 1.008zm8.316-.936v3.24c0 1.284-.708 1.932-1.752 1.932-.948 0-1.5-.552-1.5-1.716v-3.456h-1.5v3.66c0 1.932 1.116 2.832 2.76 2.832.828 0 1.584-.312 2.064-.9V228h1.428v-6.408h-1.5zm6.404 6.492c1.248 0 2.244-.54 2.736-1.5l-1.152-.672c-.384.612-.96.888-1.596.888-1.104 0-1.944-.756-1.944-2.004 0-1.236.84-2.004 1.944-2.004.636 0 1.212.276 1.596.888l1.152-.672c-.492-.972-1.488-1.488-2.736-1.488-2.028 0-3.468 1.356-3.468 3.276 0 1.92 1.44 3.288 3.468 3.288zm7.546-1.5c-.228.18-.528.264-.84.264-.576 0-.888-.336-.888-.96v-3.048h1.716v-1.2h-1.716v-1.464h-1.5v1.464h-1.056v1.2h1.056v3.084c0 1.416.804 2.16 2.208 2.16.54 0 1.08-.144 1.44-.432l-.42-1.068zm2.41-6.048c.564 0 .96-.408.96-.936 0-.492-.408-.864-.96-.864s-.96.396-.96.9.408.9.96.9zm-.756 7.464h1.5v-6.408h-1.5V228zm6.349.084c1.992 0 3.42-1.368 3.42-3.288 0-1.92-1.428-3.276-3.42-3.276-1.968 0-3.408 1.356-3.408 3.276 0 1.92 1.44 3.288 3.408 3.288zm0-1.284c-1.08 0-1.896-.78-1.896-2.004s.816-2.004 1.896-2.004c1.092 0 1.908.78 1.908 2.004s-.816 2.004-1.908 2.004zm8.49-5.28c-.936 0-1.716.312-2.208.9v-.828h-1.428V228h1.5v-3.24c0-1.284.72-1.932 1.788-1.932.96 0 1.524.552 1.524 1.692V228h1.5v-3.672c0-1.932-1.14-2.808-2.676-2.808zM764.642 328h3.672c2.724 0 4.584-1.68 4.584-4.2 0-2.52-1.86-4.2-4.584-4.2h-3.672v8.4zm1.56-1.32v-5.76h2.04c1.872 0 3.084 1.14 3.084 2.88s-1.212 2.88-3.084 2.88h-2.04zm11.09 1.404c1.992 0 3.42-1.368 3.42-3.288 0-1.92-1.428-3.276-3.42-3.276-1.968 0-3.408 1.356-3.408 3.276 0 1.92 1.44 3.288 3.408 3.288zm0-1.284c-1.08 0-1.896-.78-1.896-2.004s.816-2.004 1.896-2.004c1.092 0 1.908.78 1.908 2.004s-.816 2.004-1.908 2.004zm6.834 1.284c1.8 0 2.904-.78 2.904-1.98 0-2.508-3.96-1.356-3.96-2.652 0-.42.432-.72 1.344-.72.612 0 1.224.12 1.836.48l.576-1.14c-.576-.348-1.548-.552-2.4-.552-1.728 0-2.82.792-2.82 2.004 0 2.556 3.96 1.404 3.96 2.628 0 .444-.396.708-1.344.708-.804 0-1.668-.264-2.232-.636l-.576 1.14c.576.408 1.644.72 2.712.72zm6.176 0c1.8 0 2.904-.78 2.904-1.98 0-2.508-3.96-1.356-3.96-2.652 0-.42.432-.72 1.344-.72.612 0 1.224.12 1.836.48l.576-1.14c-.576-.348-1.548-.552-2.4-.552-1.728 0-2.82.792-2.82 2.004 0 2.556 3.96 1.404 3.96 2.628 0 .444-.396.708-1.344.708-.804 0-1.668-.264-2.232-.636l-.576 1.14c.576.408 1.644.72 2.712.72zm4.952-7.548c.564 0 .96-.408.96-.936 0-.492-.408-.864-.96-.864s-.96.396-.96.9.408.9.96.9zm-.756 7.464h1.5v-6.408h-1.5V328zm9.492-3.168c0-2.004-1.368-3.312-3.24-3.312-1.908 0-3.312 1.368-3.312 3.276 0 1.908 1.392 3.288 3.54 3.288 1.104 0 2.004-.36 2.58-1.044l-.804-.924c-.456.468-1.02.696-1.74.696-1.116 0-1.896-.6-2.076-1.536h5.028c.012-.144.024-.324.024-.444zm-3.24-2.112c.984 0 1.692.636 1.812 1.56h-3.636c.144-.936.852-1.56 1.824-1.56zm6.109-.192v-.936h-1.428V328h1.5v-3.108c0-1.308.72-1.98 1.86-1.98.108 0 .216.012.348.036v-1.428c-1.068 0-1.848.336-2.28 1.008z" fill="#fff"/><rect x="463" y="162" width="105" height="178" rx="5" fill="#FF4F81"/><rect x="584" y="162" width="105" height="178" rx="5" fill="#FF4F81"/><path d="M486.277 208.6l-2.82 6.48-2.796-6.48h-1.692l3.672 8.4h1.536l3.66-8.4h-1.56zm6.946-.528h-1.764l-1.62 1.644h1.296l2.088-1.644zm.9 5.76c0-2.004-1.368-3.312-3.24-3.312-1.908 0-3.312 1.368-3.312 3.276 0 1.908 1.392 3.288 3.54 3.288 1.104 0 2.004-.36 2.58-1.044l-.804-.924c-.456.468-1.02.696-1.74.696-1.116 0-1.896-.6-2.076-1.536h5.028c.012-.144.024-.324.024-.444zm-3.24-2.112c.984 0 1.692.636 1.812 1.56h-3.636c.144-.936.852-1.56 1.824-1.56zm6.109-.192v-.936h-1.428V217h1.5v-3.108c0-1.308.72-1.98 1.86-1.98.108 0 .216.012.348.036v-1.428c-1.068 0-1.848.336-2.28 1.008zm4.309-1.992c.564 0 .96-.408.96-.936 0-.492-.408-.864-.96-.864s-.96.396-.96.9.408.9.96.9zm-.756 7.464h1.5v-6.408h-1.5V217zm9.612-7.464c.564 0 .96-.408.96-.936 0-.492-.408-.864-.96-.864s-.96.396-.96.9.408.9.96.9zm-5.94.696v.408h-1.056v1.2h1.056V217h1.5v-5.16h1.716v-1.2h-1.764v-.384c0-.684.324-1.032.948-1.032.312 0 .6.108.828.264l.42-1.128c-.336-.24-.84-.348-1.356-.348-1.488 0-2.292.876-2.292 2.22zm5.184 6.768h1.5v-6.408h-1.5V217zm6.412.084c1.248 0 2.244-.54 2.736-1.5l-1.152-.672c-.384.612-.96.888-1.596.888-1.104 0-1.944-.756-1.944-2.004 0-1.236.84-2.004 1.944-2.004.636 0 1.212.276 1.596.888l1.152-.672c-.492-.972-1.488-1.488-2.736-1.488-2.028 0-3.468 1.356-3.468 3.276 0 1.92 1.44 3.288 3.468 3.288zm6.48-6.564c-1.032 0-2.028.264-2.712.792l.588 1.092c.48-.396 1.224-.636 1.944-.636 1.068 0 1.596.516 1.596 1.392v.096h-1.656c-1.944 0-2.664.84-2.664 1.908 0 1.116.924 1.92 2.388 1.92.96 0 1.656-.312 2.016-.864v.78h1.416v-3.756c0-1.848-1.068-2.724-2.916-2.724zm-.204 5.472c-.768 0-1.224-.348-1.224-.888 0-.468.276-.852 1.296-.852h1.548v.744c-.252.66-.888.996-1.62.996zm8.477-.408c-.228.18-.528.264-.84.264-.576 0-.888-.336-.888-.96v-3.048h1.716v-1.2h-1.716v-1.464h-1.5v1.464h-1.056v1.2h1.056v3.084c0 1.416.804 2.16 2.208 2.16.54 0 1.08-.144 1.44-.432l-.42-1.068zm2.41-6.048c.564 0 .96-.408.96-.936 0-.492-.408-.864-.96-.864s-.96.396-.96.9.408.9.96.9zM532.22 217h1.5v-6.408h-1.5V217zm6.349.084c1.992 0 3.42-1.368 3.42-3.288 0-1.92-1.428-3.276-3.42-3.276-1.968 0-3.408 1.356-3.408 3.276 0 1.92 1.44 3.288 3.408 3.288zm0-1.284c-1.08 0-1.896-.78-1.896-2.004s.816-2.004 1.896-2.004c1.092 0 1.908.78 1.908 2.004s-.816 2.004-1.908 2.004zm8.49-5.28c-.936 0-1.716.312-2.208.9v-.828h-1.428V217h1.5v-3.24c0-1.284.72-1.932 1.788-1.932.96 0 1.524.552 1.524 1.692V217h1.5v-3.672c0-1.932-1.14-2.808-2.676-2.808zm-37.397 12.576v3.288c-.504-.588-1.236-.864-2.064-.864-1.86 0-3.24 1.284-3.24 3.276 0 1.992 1.38 3.288 3.24 3.288.876 0 1.62-.3 2.124-.912V232h1.44v-8.904h-1.5zm-1.884 7.704c-1.08 0-1.908-.78-1.908-2.004s.828-2.004 1.908-2.004 1.908.78 1.908 2.004-.828 2.004-1.908 2.004zm11.371-1.968c0-2.004-1.368-3.312-3.24-3.312-1.908 0-3.312 1.368-3.312 3.276 0 1.908 1.392 3.288 3.54 3.288 1.104 0 2.004-.36 2.58-1.044l-.804-.924c-.456.468-1.02.696-1.74.696-1.116 0-1.896-.6-2.076-1.536h5.028c.012-.144.024-.324.024-.444zm-3.24-2.112c.984 0 1.692.636 1.812 1.56h-3.636c.144-.936.852-1.56 1.824-1.56zm6.66 5.364c1.8 0 2.904-.78 2.904-1.98 0-2.508-3.96-1.356-3.96-2.652 0-.42.432-.72 1.344-.72.612 0 1.224.12 1.836.48l.576-1.14c-.576-.348-1.548-.552-2.4-.552-1.728 0-2.82.792-2.82 2.004 0 2.556 3.96 1.404 3.96 2.628 0 .444-.396.708-1.344.708-.804 0-1.668-.264-2.232-.636l-.576 1.14c.576.408 1.644.72 2.712.72zm-38.892 8.436c-.876 0-1.62.3-2.124.912v-.84h-1.428v8.736h1.5v-3.108c.516.588 1.236.864 2.052.864 1.872 0 3.252-1.296 3.252-3.288 0-1.98-1.38-3.276-3.252-3.276zm-.168 5.28c-1.08 0-1.908-.78-1.908-2.004s.828-2.004 1.908-2.004 1.896.78 1.896 2.004-.816 2.004-1.896 2.004zm10.866-1.968c0-2.004-1.368-3.312-3.24-3.312-1.908 0-3.312 1.368-3.312 3.276 0 1.908 1.392 3.288 3.54 3.288 1.104 0 2.004-.36 2.58-1.044l-.804-.924c-.456.468-1.02.696-1.74.696-1.116 0-1.896-.6-2.076-1.536h5.028c.012-.144.024-.324.024-.444zm-3.24-2.112c.984 0 1.692.636 1.812 1.56h-3.636c.144-.936.852-1.56 1.824-1.56zm6.109-.192v-.936h-1.428V247h1.5v-3.108c0-1.308.72-1.98 1.86-1.98.108 0 .216.012.348.036v-1.428c-1.068 0-1.848.336-2.28 1.008zm11.641-1.008c-1.02 0-1.884.408-2.4 1.068-.444-.72-1.224-1.068-2.16-1.068-.876 0-1.62.312-2.1.888v-.816h-1.428V247h1.5v-3.252c0-1.272.672-1.92 1.668-1.92.912 0 1.44.552 1.44 1.692V247h1.5v-3.252c0-1.272.684-1.92 1.668-1.92.912 0 1.44.552 1.44 1.692V247h1.5v-3.672c0-1.932-1.08-2.808-2.628-2.808zm5.3-.984c.564 0 .96-.408.96-.936 0-.492-.408-.864-.96-.864s-.96.396-.96.9.408.9.96.9zm-.756 7.464h1.5v-6.408h-1.5V247zm5.449.084c1.8 0 2.904-.78 2.904-1.98 0-2.508-3.96-1.356-3.96-2.652 0-.42.432-.72 1.344-.72.612 0 1.224.12 1.836.48l.576-1.14c-.576-.348-1.548-.552-2.4-.552-1.728 0-2.82.792-2.82 2.004 0 2.556 3.96 1.404 3.96 2.628 0 .444-.396.708-1.344.708-.804 0-1.668-.264-2.232-.636l-.576 1.14c.576.408 1.644.72 2.712.72zm6.176 0c1.8 0 2.904-.78 2.904-1.98 0-2.508-3.96-1.356-3.96-2.652 0-.42.432-.72 1.344-.72.612 0 1.224.12 1.836.48l.576-1.14c-.576-.348-1.548-.552-2.4-.552-1.728 0-2.82.792-2.82 2.004 0 2.556 3.96 1.404 3.96 2.628 0 .444-.396.708-1.344.708-.804 0-1.668-.264-2.232-.636l-.576 1.14c.576.408 1.644.72 2.712.72zm4.952-7.548c.564 0 .96-.408.96-.936 0-.492-.408-.864-.96-.864s-.96.396-.96.9.408.9.96.9zM529.25 247h1.5v-6.408h-1.5V247zm6.348.084c1.992 0 3.42-1.368 3.42-3.288 0-1.92-1.428-3.276-3.42-3.276-1.968 0-3.408 1.356-3.408 3.276 0 1.92 1.44 3.288 3.408 3.288zm0-1.284c-1.08 0-1.896-.78-1.896-2.004s.816-2.004 1.896-2.004c1.092 0 1.908.78 1.908 2.004s-.816 2.004-1.908 2.004zm8.491-5.28c-.936 0-1.716.312-2.208.9v-.828h-1.428V247h1.5v-3.24c0-1.284.72-1.932 1.788-1.932.96 0 1.524.552 1.524 1.692V247h1.5v-3.672c0-1.932-1.14-2.808-2.676-2.808zm6.559 6.564c1.8 0 2.904-.78 2.904-1.98 0-2.508-3.96-1.356-3.96-2.652 0-.42.432-.72 1.344-.72.612 0 1.224.12 1.836.48l.576-1.14c-.576-.348-1.548-.552-2.4-.552-1.728 0-2.82.792-2.82 2.004 0 2.556 3.96 1.404 3.96 2.628 0 .444-.396.708-1.344.708-.804 0-1.668-.264-2.232-.636l-.576 1.14c.576.408 1.644.72 2.712.72zM603.152 198h1.632l-3.792-8.4h-1.536l-3.78 8.4h1.608l.828-1.944h4.2l.84 1.944zm-4.512-3.168l1.572-3.672 1.584 3.672h-3.156zm7.825-4.296c.564 0 .96-.408.96-.936 0-.492-.408-.864-.96-.864s-.96.396-.96.9.408.9.96.9zm-.756 7.464h1.5v-6.408h-1.5V198zm8.4-6.408v.852c-.528-.636-1.32-.924-2.22-.924-1.836 0-3.24 1.224-3.24 3.084s1.404 3.108 3.24 3.108c.864 0 1.62-.276 2.148-.852v.336c0 1.296-.624 1.944-2.04 1.944-.888 0-1.8-.3-2.364-.768l-.672 1.128c.732.6 1.92.912 3.12.912 2.244 0 3.456-1.056 3.456-3.384v-5.436h-1.428zm-1.992 4.848c-1.14 0-1.956-.744-1.956-1.836 0-1.08.816-1.812 1.956-1.812 1.128 0 1.944.732 1.944 1.812 0 1.092-.816 1.836-1.944 1.836zm10.096-4.848v3.24c0 1.284-.708 1.932-1.752 1.932-.948 0-1.5-.552-1.5-1.716v-3.456h-1.5v3.66c0 1.932 1.116 2.832 2.76 2.832.828 0 1.584-.312 2.064-.9V198h1.428v-6.408h-1.5zm4.22-1.056c.564 0 .96-.408.96-.936 0-.492-.408-.864-.96-.864s-.96.396-.96.9.408.9.96.9zm-.756 7.464h1.5v-6.408h-1.5V198zm3.469 0h1.5v-8.904h-1.5V198zm3.469 0h1.5v-8.904h-1.5V198zm5.917-6.48c-1.032 0-2.028.264-2.712.792l.588 1.092c.48-.396 1.224-.636 1.944-.636 1.068 0 1.596.516 1.596 1.392v.096h-1.656c-1.944 0-2.664.84-2.664 1.908 0 1.116.924 1.92 2.388 1.92.96 0 1.656-.312 2.016-.864v.78h1.416v-3.756c0-1.848-1.068-2.724-2.916-2.724zm-.204 5.472c-.768 0-1.224-.348-1.224-.888 0-.468.276-.852 1.296-.852h1.548v.744c-.252.66-.888.996-1.62.996zm10.035-5.4v.852c-.528-.636-1.32-.924-2.22-.924-1.836 0-3.24 1.224-3.24 3.084s1.404 3.108 3.24 3.108c.864 0 1.62-.276 2.148-.852v.336c0 1.296-.624 1.944-2.04 1.944-.888 0-1.8-.3-2.364-.768l-.672 1.128c.732.6 1.92.912 3.12.912 2.244 0 3.456-1.056 3.456-3.384v-5.436h-1.428zm-1.992 4.848c-1.14 0-1.956-.744-1.956-1.836 0-1.08.816-1.812 1.956-1.812 1.128 0 1.944.732 1.944 1.812 0 1.092-.816 1.836-1.944 1.836zm11.416-1.608c0-2.004-1.368-3.312-3.24-3.312-1.908 0-3.312 1.368-3.312 3.276 0 1.908 1.392 3.288 3.54 3.288 1.104 0 2.004-.36 2.58-1.044l-.804-.924c-.456.468-1.02.696-1.74.696-1.116 0-1.896-.6-2.076-1.536h5.028c.012-.144.024-.324.024-.444zm-3.24-2.112c.984 0 1.692.636 1.812 1.56h-3.636c.144-.936.852-1.56 1.824-1.56zm12.774-3.624v3.288c-.504-.588-1.236-.864-2.064-.864-1.86 0-3.24 1.284-3.24 3.276 0 1.992 1.38 3.288 3.24 3.288.876 0 1.62-.3 2.124-.912V198h1.44v-8.904h-1.5zm-1.884 7.704c-1.08 0-1.908-.78-1.908-2.004s.828-2.004 1.908-2.004 1.908.78 1.908 2.004-.828 2.004-1.908 2.004zm11.37-1.968c0-2.004-1.368-3.312-3.24-3.312-1.908 0-3.312 1.368-3.312 3.276 0 1.908 1.392 3.288 3.54 3.288 1.104 0 2.004-.36 2.58-1.044l-.804-.924c-.456.468-1.02.696-1.74.696-1.116 0-1.896-.6-2.076-1.536h5.028c.012-.144.024-.324.024-.444zm-3.24-2.112c.984 0 1.692.636 1.812 1.56h-3.636c.144-.936.852-1.56 1.824-1.56zm-62.036 14.808v-.936h-1.428V213h1.5v-3.108c0-1.308.72-1.98 1.86-1.98.108 0 .216.012.348.036v-1.428c-1.068 0-1.848.336-2.28 1.008zm9.518 2.304c0-2.004-1.368-3.312-3.24-3.312-1.908 0-3.312 1.368-3.312 3.276 0 1.908 1.392 3.288 3.54 3.288 1.104 0 2.004-.36 2.58-1.044l-.804-.924c-.456.468-1.02.696-1.74.696-1.116 0-1.896-.6-2.076-1.536h5.028c.012-.144.024-.324.024-.444zm-3.24-2.112c.984 0 1.692.636 1.812 1.56h-3.636c.144-.936.852-1.56 1.824-1.56zm9.517-1.128v.84c-.504-.612-1.248-.912-2.124-.912-1.872 0-3.24 1.296-3.24 3.276 0 1.992 1.368 3.288 3.24 3.288.816 0 1.536-.276 2.052-.864v3.108h1.5v-8.736h-1.428zm-1.956 5.208c-1.08 0-1.896-.78-1.896-2.004s.816-2.004 1.896-2.004c1.092 0 1.908.78 1.908 2.004s-.816 2.004-1.908 2.004zm10.05-5.208v3.24c0 1.284-.708 1.932-1.752 1.932-.948 0-1.5-.552-1.5-1.716v-3.456h-1.5v3.66c0 1.932 1.116 2.832 2.76 2.832.828 0 1.584-.312 2.064-.9V213h1.428v-6.408h-1.5zm6.212-1.764l1.056.888h1.236l-1.608-1.644h-1.368l-1.608 1.644h1.236l1.056-.888zm3.276 5.004c0-2.004-1.368-3.312-3.24-3.312-1.908 0-3.312 1.368-3.312 3.276 0 1.908 1.392 3.288 3.54 3.288 1.104 0 2.004-.36 2.58-1.044l-.804-.924c-.456.468-1.02.696-1.74.696-1.116 0-1.896-.6-2.076-1.536h5.028c.012-.144.024-.324.024-.444zm-3.24-2.112c.984 0 1.692.636 1.812 1.56h-3.636c.144-.936.852-1.56 1.824-1.56zm8.113 3.864c-.228.18-.528.264-.84.264-.576 0-.888-.336-.888-.96v-3.048h1.716v-1.2h-1.716v-1.464h-1.5v1.464h-1.056v1.2h1.056v3.084c0 1.416.804 2.16 2.208 2.16.54 0 1.08-.144 1.44-.432l-.42-1.068zm7.467-1.752c0-2.004-1.368-3.312-3.24-3.312-1.908 0-3.312 1.368-3.312 3.276 0 1.908 1.392 3.288 3.54 3.288 1.104 0 2.004-.36 2.58-1.044l-.804-.924c-.456.468-1.02.696-1.74.696-1.116 0-1.896-.6-2.076-1.536h5.028c.012-.144.024-.324.024-.444zm-3.24-2.112c.984 0 1.692.636 1.812 1.56h-3.636c.144-.936.852-1.56 1.824-1.56zm6.661 5.364c1.8 0 2.904-.78 2.904-1.98 0-2.508-3.96-1.356-3.96-2.652 0-.42.432-.72 1.344-.72.612 0 1.224.12 1.836.48l.576-1.14c-.576-.348-1.548-.552-2.4-.552-1.728 0-2.82.792-2.82 2.004 0 2.556 3.96 1.404 3.96 2.628 0 .444-.396.708-1.344.708-.804 0-1.668-.264-2.232-.636l-.576 1.14c.576.408 1.644.72 2.712.72zm-36.795 8.508l-2.052 4.752-1.992-4.752h-1.56l2.748 6.408h1.548l2.748-6.408h-1.44zm8.226 3.24c0-2.004-1.368-3.312-3.24-3.312-1.908 0-3.312 1.368-3.312 3.276 0 1.908 1.392 3.288 3.54 3.288 1.104 0 2.004-.36 2.58-1.044l-.804-.924c-.456.468-1.02.696-1.74.696-1.116 0-1.896-.6-2.076-1.536h5.028c.012-.144.024-.324.024-.444zm-3.24-2.112c.984 0 1.692.636 1.812 1.56h-3.636c.144-.936.852-1.56 1.824-1.56zm6.109-.192v-.936h-1.428V228h1.5v-3.108c0-1.308.72-1.98 1.86-1.98.108 0 .216.012.348.036v-1.428c-1.068 0-1.848.336-2.28 1.008zm5.556 5.556c1.8 0 2.904-.78 2.904-1.98 0-2.508-3.96-1.356-3.96-2.652 0-.42.432-.72 1.344-.72.612 0 1.224.12 1.836.48l.576-1.14c-.576-.348-1.548-.552-2.4-.552-1.728 0-2.82.792-2.82 2.004 0 2.556 3.96 1.404 3.96 2.628 0 .444-.396.708-1.344.708-.804 0-1.668-.264-2.232-.636l-.576 1.14c.576.408 1.644.72 2.712.72zm7.512-.084h1.5v-8.904h-1.5V228zm9.492-3.168c0-2.004-1.368-3.312-3.24-3.312-1.908 0-3.312 1.368-3.312 3.276 0 1.908 1.392 3.288 3.54 3.288 1.104 0 2.004-.36 2.58-1.044l-.804-.924c-.456.468-1.02.696-1.74.696-1.116 0-1.896-.6-2.076-1.536h5.028c.012-.144.024-.324.024-.444zm-3.24-2.112c.984 0 1.692.636 1.812 1.56h-3.636c.144-.936.852-1.56 1.824-1.56zm-34.97 20.364c1.8 0 2.904-.78 2.904-1.98 0-2.508-3.96-1.356-3.96-2.652 0-.42.432-.72 1.344-.72.612 0 1.224.12 1.836.48l.576-1.14c-.576-.348-1.548-.552-2.4-.552-1.728 0-2.82.792-2.82 2.004 0 2.556 3.96 1.404 3.96 2.628 0 .444-.396.708-1.344.708-.804 0-1.668-.264-2.232-.636l-.576 1.14c.576.408 1.644.72 2.712.72zm10.22-3.252c0-2.004-1.368-3.312-3.24-3.312-1.908 0-3.312 1.368-3.312 3.276 0 1.908 1.392 3.288 3.54 3.288 1.104 0 2.004-.36 2.58-1.044l-.804-.924c-.456.468-1.02.696-1.74.696-1.116 0-1.896-.6-2.076-1.536h5.028c.012-.144.024-.324.024-.444zm-3.24-2.112c.984 0 1.692.636 1.812 1.56h-3.636c.144-.936.852-1.56 1.824-1.56zm6.109-.192v-.936h-1.428V243h1.5v-3.108c0-1.308.72-1.98 1.86-1.98.108 0 .216.012.348.036v-1.428c-1.068 0-1.848.336-2.28 1.008zm8.347-.936l-2.052 4.752-1.992-4.752h-1.56l2.748 6.408h1.548l2.748-6.408h-1.44zm3.133-1.056c.564 0 .96-.408.96-.936 0-.492-.408-.864-.96-.864s-.96.396-.96.9.408.9.96.9zm-.756 7.464h1.5v-6.408h-1.5V243zm6.409.084c1.248 0 2.244-.54 2.736-1.5l-1.152-.672c-.384.612-.96.888-1.596.888-1.104 0-1.944-.756-1.944-2.004 0-1.236.84-2.004 1.944-2.004.636 0 1.212.276 1.596.888l1.152-.672c-.492-.972-1.488-1.488-2.736-1.488-2.028 0-3.468 1.356-3.468 3.276 0 1.92 1.44 3.288 3.468 3.288zm9.963-3.252c0-2.004-1.368-3.312-3.24-3.312-1.908 0-3.312 1.368-3.312 3.276 0 1.908 1.392 3.288 3.54 3.288 1.104 0 2.004-.36 2.58-1.044l-.804-.924c-.456.468-1.02.696-1.74.696-1.116 0-1.896-.6-2.076-1.536h5.028c.012-.144.024-.324.024-.444zm-3.24-2.112c.984 0 1.692.636 1.812 1.56h-3.636c.144-.936.852-1.56 1.824-1.56zm-31.299 13.8c-1.02 0-1.884.408-2.4 1.068-.444-.72-1.224-1.068-2.16-1.068-.876 0-1.62.312-2.1.888v-.816h-1.428V258h1.5v-3.252c0-1.272.672-1.92 1.668-1.92.912 0 1.44.552 1.44 1.692V258h1.5v-3.252c0-1.272.684-1.92 1.668-1.92.912 0 1.44.552 1.44 1.692V258h1.5v-3.672c0-1.932-1.08-2.808-2.628-2.808zm9.727-2.448h-1.764l-1.62 1.644h1.296l2.088-1.644zm.9 5.76c0-2.004-1.368-3.312-3.24-3.312-1.908 0-3.312 1.368-3.312 3.276 0 1.908 1.392 3.288 3.54 3.288 1.104 0 2.004-.36 2.58-1.044l-.804-.924c-.456.468-1.02.696-1.74.696-1.116 0-1.896-.6-2.076-1.536h5.028c.012-.144.024-.324.024-.444zm-3.24-2.112c.984 0 1.692.636 1.812 1.56h-3.636c.144-.936.852-1.56 1.824-1.56zm8.113 3.864c-.228.18-.528.264-.84.264-.576 0-.888-.336-.888-.96v-3.048h1.716v-1.2h-1.716v-1.464h-1.5v1.464h-1.056v1.2h1.056v3.084c0 1.416.804 2.16 2.208 2.16.54 0 1.08-.144 1.44-.432l-.42-1.068zm2.41-6.048c.564 0 .96-.408.96-.936 0-.492-.408-.864-.96-.864s-.96.396-.96.9.408.9.96.9zm-.756 7.464h1.5v-6.408h-1.5V258zm9.493-3.168c0-2.004-1.368-3.312-3.24-3.312-1.908 0-3.312 1.368-3.312 3.276 0 1.908 1.392 3.288 3.54 3.288 1.104 0 2.004-.36 2.58-1.044l-.804-.924c-.456.468-1.02.696-1.74.696-1.116 0-1.896-.6-2.076-1.536h5.028c.012-.144.024-.324.024-.444zm-3.24-2.112c.984 0 1.692.636 1.812 1.56h-3.636c.144-.936.852-1.56 1.824-1.56zm6.108-.192v-.936h-1.428V258h1.5v-3.108c0-1.308.72-1.98 1.86-1.98.108 0 .216.012.348.036v-1.428c-1.068 0-1.848.336-2.28 1.008z" fill="#fff"/><circle cx="219.5" cy="89.5" r="15.5" fill="#FDBC5A"/><path d="M216.946 85.175v1.526h2.072v8.274h1.82v-9.8h-3.892z" fill="#fff"/><circle cx="101.5" cy="241.5" r="15.5" fill="#3FA037"/><path d="M100.52 245.435l2.618-2.492c1.358-1.274 1.624-2.142 1.624-3.094 0-1.736-1.372-2.814-3.5-2.814-1.61 0-2.968.602-3.724 1.624l1.274.98c.546-.7 1.344-1.022 2.296-1.022 1.204 0 1.82.518 1.82 1.414 0 .546-.168 1.12-1.12 2.03l-3.892 3.696v1.218h7.224v-1.54h-4.62z" fill="#fff"/><defs><clipPath id="clip0"><path fill="#fff" transform="matrix(-1 .0004 .0004 1 216.966 253.653)" d="M0 0h10.331v10.331H0z"/></clipPath><clipPath id="clip1"><path fill="#fff" transform="scale(-1 1) rotate(-43.914 214.53 397.75)" d="M0 0h10.331v10.331H0z"/></clipPath><clipPath id="clip2"><path fill="#fff" transform="translate(766 23)" d="M0 0h62.581v62.581H0z"/></clipPath><clipPath id="clip3"><path fill="#fff" transform="translate(803 57)" d="M0 0h26.244v28.669H0z"/></clipPath><clipPath id="clip4"><path fill="#fff" transform="matrix(-1 .0004 .0004 1 218.966 134.653)" d="M0 0h10.331v10.331H0z"/></clipPath><clipPath id="clip5"><path fill="#fff" transform="scale(-1 1) rotate(-43.914 65.943 340.731)" d="M0 0h10.331v10.331H0z"/></clipPath></defs></svg>