<svg width="94" height="94" viewBox="0 0 94 94" fill="none" xmlns="http://www.w3.org/2000/svg">
<path d="M23.9726 75.6816H67.745V18.4841H23.9726V75.6816ZM45.8602 33.9383C53.3986 33.9383 59.5316 40.0712 59.5316 47.6098C59.5316 55.1498 53.3986 61.2838 45.8602 61.2838C38.3202 61.2838 32.1862 55.1498 32.1862 47.6098C32.1862 40.0714 38.3202 33.9383 45.8602 33.9383Z" fill="#1FBEC8"/>
<path d="M45.8602 59.8152C52.5888 59.8152 58.0628 54.3399 58.0628 47.6099C58.0628 40.8814 52.589 35.4072 45.8602 35.4072C39.1303 35.4072 33.6549 40.8812 33.6549 47.6099C33.6549 54.3399 39.1303 59.8152 45.8602 59.8152ZM42.2736 51.4285C42.4573 51.067 42.8992 50.9229 43.2609 51.1066C45.003 51.9923 46.5542 51.6383 47.3534 51.0659C47.842 50.7156 48.0983 50.2588 48.0382 49.8435C47.9497 49.2283 47.2159 48.6373 46.0247 48.222C42.8289 47.0922 42.17 45.2575 42.5759 44.0295C42.8717 43.1344 43.7673 42.417 45.1257 42.1856V40.2878C45.1257 39.8823 45.4545 39.5534 45.8601 39.5534C46.2656 39.5534 46.5944 39.8823 46.5944 40.2878V42.1249C47.2064 42.1686 47.8756 42.2934 48.5962 42.5154C48.9837 42.6347 49.2015 43.0456 49.0819 43.4333C48.9626 43.8211 48.5512 44.0386 48.164 43.9191C45.6844 43.1559 44.1958 43.8088 43.9703 44.4905C43.7574 45.1345 44.5619 46.1472 46.5111 46.8362C48.8721 47.6598 49.392 48.943 49.4917 49.6342C49.6313 50.6027 49.1513 51.5842 48.2084 52.2598C47.7931 52.5574 47.2411 52.8168 46.5943 52.9679V54.9347C46.5943 55.3403 46.2654 55.6691 45.8599 55.6691C45.4543 55.6691 45.1255 55.3403 45.1255 54.9347V53.1027C44.3383 53.0687 43.4796 52.8658 42.5948 52.416C42.2337 52.2321 42.0896 51.79 42.2736 51.4285Z" fill="#1FBEC8"/>
<path d="M45.8603 79.4263C45.165 79.4263 44.6407 79.9505 44.6407 80.6459C44.6407 81.2736 45.1878 81.7844 45.8603 81.7844C46.5311 81.7844 47.0769 81.2736 47.0769 80.6459C47.0769 79.9507 46.5539 79.4263 45.8603 79.4263Z" fill="#1FBEC8"/>
<path d="M23.9726 15.6303V17.0153H67.745V15.6303C67.745 13.0302 65.6287 10.915 63.0272 10.915H28.6904C26.089 10.915 23.9726 13.0302 23.9726 15.6303ZM43.7438 13.1077H47.9738C48.3793 13.1077 48.7081 13.4365 48.7081 13.8421C48.7081 14.2476 48.3793 14.5764 47.9738 14.5764H43.7438C43.3382 14.5764 43.0094 14.2476 43.0094 13.8421C43.0094 13.4365 43.3382 13.1077 43.7438 13.1077Z" fill="#1FBEC8"/>
<path d="M67.745 79.589V77.1503H23.9726V79.589C23.9726 82.1905 26.089 84.307 28.6906 84.307H63.0272C65.6287 84.307 67.745 82.1905 67.745 79.589ZM45.8602 83.2532C44.3779 83.2532 43.1719 82.0835 43.1719 80.646C43.1719 79.1385 44.3528 77.9576 45.8602 77.9576C47.3661 77.9576 48.5457 79.1385 48.5457 80.646C48.5457 82.0835 47.3409 83.2532 45.8602 83.2532Z" fill="#1FBEC8"/>
<path d="M78.6828 49.6138L75.6327 46.4837C75.4945 46.3418 75.3048 46.2619 75.1067 46.2619C74.9086 46.2619 74.719 46.342 74.5809 46.4837L71.4886 49.6568C71.2826 49.8681 71.2233 50.1824 71.3381 50.4547C71.4528 50.7269 71.7194 50.9035 72.0148 50.9035H74.3725V88.4925H43.1271C42.7215 88.4925 42.3927 88.8214 42.3927 89.2269C42.3927 89.6325 42.7215 89.9613 43.1271 89.9613H75.1067C75.5123 89.9613 75.8411 89.6325 75.8411 89.2269V50.9035H78.1986C78.1999 50.9035 78.2014 50.9037 78.2023 50.9035C78.608 50.9035 78.9367 50.5747 78.9367 50.1692C78.9365 49.9474 78.8383 49.7486 78.6828 49.6138Z" fill="#1FBEC8"/>
<path d="M21.9817 43.099H19.6243V5.50745H50.8694C51.275 5.50745 51.6038 5.17863 51.6038 4.77307C51.6038 4.36751 51.275 4.0387 50.8694 4.0387H18.89C18.4844 4.0387 18.1556 4.36751 18.1556 4.77307V43.099H15.7979C15.5008 43.099 15.233 43.278 15.1193 43.5525C15.0057 43.827 15.0686 44.1429 15.2789 44.3528L18.3708 47.4425C18.5141 47.5855 18.702 47.6573 18.8898 47.6573C19.0776 47.6573 19.2654 47.5855 19.4088 47.4425L22.5007 44.3528C22.7109 44.1427 22.7739 43.8268 22.6602 43.5523C22.5466 43.278 22.2789 43.099 21.9817 43.099Z" fill="#1FBEC8"/>
</svg>
