<svg width="50" height="52" viewBox="0 0 50 52" fill="none" xmlns="http://www.w3.org/2000/svg">
<path d="M46.912 8.90423C47.907 11.3789 48.3595 14.5134 46.1257 16.4942C44.1493 18.2468 40.9386 17.3241 39.1692 15.6532C37.7363 14.3 38.0284 11.3982 38.1756 9.5247C38.5153 5.20181 45.3531 6.30481 47.2542 8.77575C48.1249 9.90746 50.0803 8.78819 49.197 7.64013C46.8148 4.54389 41.2341 3.06547 37.8009 5.42854C36.2979 6.46305 35.9813 8.17066 35.9177 9.87851C35.845 11.8314 35.559 14.2255 36.5631 16.0023C38.204 18.906 42.9817 20.5864 45.9964 19.2215C50.2768 17.2836 50.637 12.1744 49.0816 8.30609C48.5482 6.97943 46.371 7.55874 46.912 8.90423Z" fill="#0FA6AF"/>
<path d="M44.2395 10.6756C44.4483 8.74181 41.2119 8.53359 41.0938 10.5909C41.0274 11.7475 41.4966 11.9427 42.5219 12.1228C42.7852 12.169 43.2864 12.1565 43.5231 12.2986C44.0623 12.6225 44.0886 13.7635 43.7097 14.2303C43.4518 14.5481 42.5979 14.5189 42.2325 14.3988C41.5754 14.1827 41.6635 13.6431 41.6787 13.0841C41.6917 12.6013 40.9417 12.6016 40.9286 13.0841C40.905 13.9559 40.7455 14.9014 41.7624 15.104C42.786 15.3079 44.0043 15.3808 44.5452 14.319C44.9067 13.6094 44.8087 12.3616 44.1875 11.8043C43.8485 11.5001 43.3162 11.5041 42.8881 11.4289C42.516 11.3636 42.1633 11.4018 41.951 11.0896C41.2313 10.0308 43.6552 9.14128 43.4895 10.6756C43.4378 11.1549 44.1882 11.1512 44.2395 10.6756Z" fill="#0FA6AF"/>
<path d="M42.2372 15.0218C42.2372 15.3447 42.2372 15.6676 42.2372 15.9905C42.2372 16.4731 42.9872 16.4739 42.9872 15.9905C42.9872 15.6676 42.9872 15.3447 42.9872 15.0218C42.9872 14.5392 42.2372 14.5384 42.2372 15.0218Z" fill="#0FA6AF"/>
<path d="M42.1747 8.02176C42.1747 8.48009 42.1747 8.93843 42.1747 9.39676C42.1747 9.87935 42.9247 9.88015 42.9247 9.39676C42.9247 8.93843 42.9247 8.48009 42.9247 8.02176C42.9247 7.53917 42.1747 7.53837 42.1747 8.02176Z" fill="#0FA6AF"/>
<path d="M35.0765 24.5663C36.7618 28.052 33.6907 33.551 29.7489 33.8117C26.5117 34.0257 22.5171 31.319 21.557 28.2359C20.5269 24.9282 23.2363 21.0059 26.3593 19.8308C29.6841 18.5798 34.0358 21.5652 35.6201 24.4983C36.3085 25.7727 38.2518 24.638 37.5629 23.3626C35.4209 19.397 29.8149 15.5895 25.3258 17.7533C21.1464 19.7677 17.2884 25.2535 19.7099 29.8893C21.7051 33.709 27.4369 37.449 31.8305 35.6879C36.383 33.8632 39.1828 27.9055 37.0193 23.4307C36.3892 22.1275 34.4483 23.2671 35.0765 24.5663Z" fill="#0FA6AF"/>
<path d="M31.6192 24.8291C31.5485 23.3284 30.9983 22.0264 29.3485 21.8367C27.7033 21.6475 26.5674 22.3568 25.7456 23.7721C25.0877 24.905 25.4939 26.1648 26.6732 26.7004C27.3902 27.026 28.2379 26.9997 28.9347 27.3851C30.5813 28.2958 27.5863 28.8328 27.7709 27.9012C28.051 26.487 25.8828 25.8816 25.6012 27.303C24.9488 30.5963 30.3648 32.1752 31.4498 29.0769C31.8848 27.8348 31.614 26.3401 30.4622 25.6388C29.8809 25.2849 28.5343 24.6405 27.8389 24.7256C27.5336 24.5637 27.4577 24.5798 27.6113 24.7741C27.7337 25.0825 27.8901 24.9663 28.0805 24.4257C28.619 23.9359 29.3273 23.9407 29.3692 24.8291C29.4371 26.2707 31.6875 26.279 31.6192 24.8291Z" fill="#0FA6AF"/>
<path d="M27.141 30.6908C27.1669 30.8202 27.1498 30.9527 27.1379 31.0835C27.0829 31.6894 27.6944 32.2085 28.2629 32.2085C28.9173 32.2085 29.3327 31.6911 29.3879 31.0835C29.4185 30.7471 29.3769 30.4232 29.3106 30.0927C29.1911 29.4967 28.4828 29.1541 27.9267 29.3069C27.3059 29.4776 27.0211 30.0931 27.141 30.6908Z" fill="#0FA6AF"/>
<path d="M27.1777 21.082C27.2159 21.7078 27.2235 22.3324 27.2005 22.959C27.1474 24.4071 29.3975 24.405 29.4505 22.959C29.4735 22.3324 29.4659 21.7078 29.4277 21.082C29.3906 20.4754 28.9371 19.957 28.3027 19.957C27.7223 19.957 27.1404 20.4724 27.1777 21.082Z" fill="#0FA6AF"/>
<path d="M31.0387 34.6666C31.0393 37.9454 32.6985 47.5468 29.297 49.1991C27.6709 49.9889 23.4808 49.2027 21.6376 49.2039C19.0844 49.2055 16.5312 49.2071 13.9781 49.2087C11.8708 49.21 8.29033 49.9005 6.31861 49.2135C1.89619 47.6728 2.77416 44.3645 2.76585 40.9559C2.75336 35.8381 2.79769 30.7195 2.81532 25.6018C2.83296 20.4837 2.85174 15.3657 2.87166 10.2476C2.87664 8.96813 2.88169 7.68862 2.88682 6.40911C3.15989 3.62995 4.41531 2.49037 6.65306 2.99038C8.83749 2.42951 11.8952 2.91361 14.1574 2.89416C16.659 2.87265 19.1607 2.8617 21.6624 2.86131C23.5481 2.86102 27.4695 2.13081 29.1673 2.89183C33.6443 4.8985 31.8556 15.3572 31.7562 19.335C31.72 20.7835 33.97 20.7827 34.0062 19.335C34.1212 14.7335 34.1277 10.124 33.8628 5.52661C33.778 4.055 33.9555 2.25415 32.7588 1.15709C31.3857 -0.101777 27.9371 0.63157 26.353 0.623455C22.2878 0.602631 18.2225 0.608783 14.1574 0.644161C10.7505 0.673811 3.10894 -1.01455 0.986504 2.58844C-0.370343 4.89179 0.624267 9.55576 0.614242 12.1669C0.598275 16.3253 0.583099 20.4837 0.568654 24.6421C0.542908 32.0537 -0.655297 40.5609 0.778434 47.8535C1.82529 53.1782 7.79108 51.4626 12.0632 51.4599C15.893 51.4575 19.7227 51.4551 23.5524 51.4527C25.8139 51.4512 30.0847 52.3802 32.1086 50.7064C33.2285 49.7802 33.1018 48.6898 33.2911 47.4253C33.8941 43.3965 33.2895 38.7294 33.2887 34.6666C33.2885 33.2189 31.0385 33.2165 31.0387 34.6666Z" fill="#0FA6AF"/>
<path d="M1.99675 12.146C12.5523 12.0114 23.1079 11.9855 33.664 12.0681C35.1122 12.0795 35.1136 9.8295 33.664 9.81815C23.1079 9.73546 12.5523 9.76142 1.99675 9.89602C0.55001 9.91447 0.546019 12.1645 1.99675 12.146Z" fill="#0FA6AF"/>
<path d="M15.5809 8.37593C16.5809 8.37593 17.5809 8.37593 18.5809 8.37593C20.0287 8.37593 20.0311 6.12592 18.5809 6.12592C17.5809 6.12592 16.5809 6.12592 15.5809 6.12592C14.1332 6.12592 14.1308 8.37593 15.5809 8.37593Z" fill="#0FA6AF"/>
<path d="M1.74751 42.3372C11.692 42.316 21.6364 42.2948 31.5809 42.2735C33.0285 42.2705 33.0312 40.0205 31.5809 40.0235C21.6364 40.0448 11.692 40.066 1.74751 40.0872C0.299887 40.0903 0.297222 42.3403 1.74751 42.3372Z" fill="#0FA6AF"/>
<path d="M16.9143 46.9593C18.362 46.9593 18.3644 44.7093 16.9143 44.7093C15.4665 44.7093 15.4641 46.9593 16.9143 46.9593Z" fill="#0FA6AF"/>
</svg>
