<svg width="59" height="59" viewBox="0 0 59 59" fill="none" xmlns="http://www.w3.org/2000/svg">
<path d="M42.2342 23.3984C39.1293 9.73008 31.8059 5.23871 31.0193 3.52033C30.1539 2.30838 29.2173 0 29.2173 0C29.2124 0.0467083 29.2075 0.0762083 29.205 0.120458V0.152417H29.2025C29.1976 0.189292 29.1952 0.213875 29.1927 0.248292V0.285167H29.1878C29.1878 0.30975 29.1829 0.329417 29.1829 0.349083V0.413H29.1755C29.173 0.432667 29.173 0.45725 29.1681 0.474458V0.526083H29.1632C29.1632 0.543292 29.1632 0.562958 29.1583 0.577708V0.626875H29.1534C29.1534 0.651458 29.1509 0.680958 29.1485 0.705542V0.710458C29.1411 0.75225 29.1337 0.794042 29.1263 0.833375V0.853042H29.1214C29.119 0.862875 29.114 0.872708 29.114 0.882542V0.924333H29.1067V0.978417H29.0944V1.02267H29.0821V1.07429H29.0723V1.121H29.0624V1.16279H29.0477V1.19721H29.0378V1.24146H29.028V1.27587H29.0157V1.30783H29.0083V1.34471H28.9985C28.996 1.34717 28.996 1.35208 28.996 1.35454V1.37912H28.9887C28.9862 1.38404 28.9862 1.38896 28.9862 1.39387V1.40862H28.9813C28.9788 1.416 28.9764 1.42829 28.9764 1.43321C28.969 1.45042 28.9592 1.46762 28.9518 1.48483V1.48975C28.9469 1.49467 28.942 1.50204 28.9395 1.50696V1.52662H28.9297V1.54629H28.9174V1.56596H28.91V1.59054H28.8952V1.62496H28.8854V1.63479H28.8756V1.65446H28.8657V1.6815H28.8559V1.70117H28.8412V1.72821H28.8313V1.74788H28.819V1.76754H28.8117V1.79212H28.7994V1.81179H28.7895V1.82654H28.7797V1.84621H28.765V1.86833H28.7551V1.88308H28.7428V1.90275H28.733V1.92979H28.7207V1.93962H28.7133V1.95929H28.6986V1.96912H28.6888V1.99371H28.6789V2.00354H28.6691V2.02321H28.6568V2.03796H28.6494L28.6445 2.04779V2.05762H28.6396C28.6371 2.06254 28.6347 2.06254 28.6347 2.06746V2.06992H28.6322C28.6298 2.07729 28.6273 2.08221 28.6224 2.08712V2.0945H28.6199C28.6076 2.10925 28.6003 2.124 28.5904 2.13875V2.14121C28.5855 2.14612 28.5732 2.15596 28.5683 2.16579V2.17071H28.5658C28.5634 2.17317 28.5585 2.17562 28.5585 2.17808V2.18546H28.5535L28.5462 2.19283V2.19529H28.5437C28.5437 2.19775 28.5388 2.20021 28.5363 2.20512V2.21496H28.529L28.524 2.21987V2.22479H28.5191C28.5191 2.22971 28.5142 2.22971 28.5142 2.23217V2.23954H28.5044C28.5044 2.242 28.5019 2.24446 28.4995 2.24692V2.26167H28.4921V2.2715H28.4823V2.28625H28.4724V2.30592H28.4601V2.28625H28.4478V2.29608H28.438V2.31083H28.4257V2.3305H28.4134V2.34033H28.4036V2.35508H28.3938V2.36492H28.3839V2.38458H28.3692V2.39442H28.3593V2.40917H28.347V2.419H28.3372V2.43129H28.3249V2.45587H28.32V2.46571H28.3053V2.478H28.2954V2.48292H28.2856V2.49275H28.2733V2.51733H28.2635V2.52717H28.2512V2.537H28.2413V2.55175H28.229V2.56158H28.2167V2.57142H28.2069V2.58125H28.1971V2.60583H28.1872V2.61813H28.1725V2.62796H28.1627V2.63779H28.1504V2.65254H28.1405V2.66237H28.1283V2.67958H28.1184V2.68942H28.1037V2.70417H28.0988V2.714H28.0889V2.72383H28.0766V2.73367H28.0668V2.74842H28.0545V2.75825H28.0471C28.0447 2.76071 28.0447 2.76317 28.0447 2.76317V2.76808H28.0398L28.0299 2.77792C28.0299 2.77792 28.025 2.78283 28.0201 2.78529V2.80004H28.0103V2.81233H28.0004V2.82217H27.9906V2.832H27.9832L27.9758 2.83937V2.84675H27.9709L27.966 2.85167V2.85904H27.9611C27.9488 2.87379 27.9439 2.88362 27.9267 2.89837C27.9217 2.90329 27.907 2.91558 27.8972 2.92296C27.8677 2.94262 27.8308 2.97458 27.8013 3.00162C27.7816 3.01392 27.762 3.03112 27.7472 3.04342V3.04587H27.7448C27.7054 3.07783 27.6685 3.10733 27.6243 3.14175V3.14421C27.5653 3.19338 27.5088 3.24008 27.4424 3.29662V3.29417H27.4375C27.2973 3.40971 27.1498 3.54 26.9802 3.68504V3.6875H26.9778C26.5623 4.05133 26.0682 4.51842 25.515 5.08383L25.4782 5.12071L25.4683 5.13054C22.125 8.58942 16.8568 15.7972 16.3012 27.4448C16.252 28.4085 16.2619 29.3451 16.316 30.2572V30.2793C16.5839 34.869 18.0245 38.7876 19.8265 41.9711V41.9736C20.5443 43.2421 21.3187 44.395 22.1029 45.4275V45.43C24.812 49.0069 27.5776 51.126 28.2831 51.6397C29.3673 54.1546 29.2665 58.4715 29.2665 58.4715L30.8496 59C30.8496 59 30.5276 54.8184 30.9799 52.8001C31.12 52.1683 31.4519 51.6299 31.8379 51.1727C32.0985 50.9883 32.8704 50.4327 33.7972 49.587C33.8414 49.5403 33.866 49.4985 33.9053 49.4543C37.6445 45.9684 44.6286 37.3839 42.2342 23.3984V23.3984Z" fill="#3FA037"/>
</svg>
