<svg width="105" height="55" viewBox="0 0 105 55" fill="none" xmlns="http://www.w3.org/2000/svg">
<path d="M0.988372 49.2288H4.36046V35.9549L9.65116 47.4974C10.2326 48.8825 11.1047 49.4019 12.7907 49.4019C14.4767 49.4019 15.2326 48.8825 15.8721 47.4974L21.1046 35.9549V49.2288H24.4767V35.9549C24.4767 34.6852 23.9535 34.0504 22.8488 33.7041C20.2907 32.9538 18.5465 33.5887 17.7907 35.32L12.6744 46.7471L7.67442 35.32C6.9186 33.5887 5.17442 32.9538 2.61628 33.7041C1.51163 34.0504 0.988372 34.6275 0.988372 35.9549V49.2288Z" fill="#00678F"/>
<path d="M27.2674 38.4365H30.6395V45.7083C30.6395 46.1123 30.7558 47.0357 32.6163 47.0934C33.6046 47.0934 39.9419 47.0934 40 47.0934V38.3788H43.3721C43.3721 38.3788 43.3721 50.2676 43.3721 50.3253C43.3721 53.2686 39.7093 53.9034 38.0233 53.9034H27.3837V51.6527H38.0814C40.2326 51.4218 40 50.3253 40 49.979V49.1133H32.7907C29.4186 49.1133 27.2674 47.6128 27.2674 45.9391C27.2674 45.766 27.3837 38.4942 27.2674 38.4365Z" fill="#00678F"/>
<path d="M100.174 29.9528C98.0814 29.8951 96.5116 30.1259 95.1163 30.6453C94.7093 30.8185 94.1279 30.8185 94.0698 31.2802C94.3023 31.511 94.3023 31.7996 94.4767 32.0881C94.7674 32.6075 95.3488 33.3001 95.814 33.6464C96.3372 34.0504 96.9186 34.4543 97.5 34.8583C98.4884 35.4932 99.6512 35.8395 100.64 36.4743C101.221 36.8206 101.802 37.2823 102.326 37.6862C102.616 37.9171 102.791 38.2057 103.14 38.3788V38.3211C102.965 38.0902 102.907 37.744 102.733 37.5131C102.5 37.2823 102.209 37.0514 101.977 36.7628C101.221 35.7817 100.291 34.8583 99.3023 34.1658C98.4884 33.5887 96.6279 32.8384 96.3372 31.8573C96.3372 31.8573 96.3372 31.8573 96.2791 31.7996C96.8605 31.7419 97.5 31.5687 98.0814 31.3956C98.9535 31.1647 99.7674 31.2225 100.698 30.9916C101.105 30.8762 101.512 30.7607 101.919 30.6453C101.919 30.5876 101.919 30.4722 101.919 30.4145C101.453 29.9528 101.105 29.3179 100.64 28.9139C99.3023 27.7597 97.8488 26.6632 96.3372 25.7398C95.5233 25.2204 94.4767 24.8741 93.6628 24.4701C93.3721 24.297 92.8488 24.2392 92.6744 24.0084C92.2093 23.4313 91.9186 22.681 91.6279 22.0462C90.8721 20.6034 90.1744 19.0451 89.4767 17.5446C89.0116 16.5635 88.7209 15.5247 88.1395 14.6013C85.4651 10.2151 82.5581 7.56033 78.0814 4.96327C77.093 4.44386 75.9884 4.21301 74.7674 3.92445C74.1279 3.92445 73.4884 3.86673 72.8488 3.80902C72.4419 3.63588 72.0349 3.11647 71.6279 2.88562C70.1744 1.96222 66.3372 -0.0577153 65.2326 2.59706C64.5349 4.27072 66.2791 5.94438 66.8605 6.75236C67.3256 7.32948 67.8488 8.02203 68.1977 8.65687C68.3721 9.11857 68.4302 9.58027 68.6046 10.042C69.0116 11.1962 69.4186 12.4082 69.9419 13.5047C70.2326 14.0241 70.5233 14.6013 70.9302 15.1207C71.1628 15.4092 71.5116 15.5247 71.5698 15.9864C71.2209 16.5058 71.1628 17.256 70.9884 17.8909C70.0581 20.7765 70.407 24.4124 71.7442 26.5477C72.1512 27.1826 73.1395 28.6254 74.4767 28.0483C75.6395 27.5866 75.407 26.1438 75.6977 24.8164C75.7558 24.5278 75.6977 24.297 75.8721 24.1238V24.1815C76.2209 24.8741 76.5698 25.6243 76.9186 26.3169C77.7326 27.5866 79.1279 28.9139 80.2907 29.7796C80.9302 30.2413 81.3953 31.0493 82.2093 31.3379V31.2802C82.2093 31.2802 82.2093 31.2802 82.1512 31.2802C81.9767 31.0493 81.7442 30.9339 81.5698 30.7607C81.1047 30.299 80.5814 29.7219 80.2326 29.2025C79.1279 27.7597 78.1977 26.1438 77.3256 24.5278C76.9186 23.7198 76.5698 22.8541 76.2209 22.0462C76.0465 21.7576 76.0465 21.2959 75.8139 21.1228C75.407 21.6999 74.8256 22.1616 74.593 22.8541C74.1279 23.9507 74.0698 25.3358 73.8953 26.7209C73.7791 26.7209 73.8372 26.7209 73.7791 26.7786C72.9651 26.5477 72.6744 25.7398 72.3256 24.9895C71.5698 23.1427 71.3953 20.1994 72.093 18.1217C72.2674 17.6023 73.0814 15.8709 72.7326 15.3515C72.5581 14.8898 72.0349 14.6013 71.7442 14.1973C71.3953 13.7356 71.0465 13.1007 70.814 12.5236C70.1744 11.0808 69.8837 9.46484 69.186 8.02203C68.8953 7.32948 68.314 6.63693 67.907 6.05981C67.4419 5.36726 66.8605 4.84785 66.4535 4.03987C66.3372 3.75131 66.1628 3.28961 66.3372 3.00105C66.3953 2.7702 66.5116 2.71248 66.686 2.65477C67.0349 2.36621 67.9651 2.71248 68.314 2.88562C69.3023 3.28961 70.0581 3.63588 70.8721 4.1553C71.2209 4.38615 71.6279 4.90556 72.093 5.02098C72.2674 5.02098 72.4419 5.02098 72.6163 5.02098C73.4302 5.19412 74.3605 5.0787 75.1744 5.30955C76.5698 5.77125 77.7907 6.40608 78.8953 7.09863C82.2674 9.23399 85.1163 12.2928 86.9767 15.9286C87.2674 16.5058 87.4419 17.0829 87.6744 17.66C88.1977 18.9297 88.8953 20.1994 89.4186 21.469C89.9419 22.681 90.4651 23.893 91.2791 24.9318C91.686 25.4512 93.1977 25.7398 93.9535 26.0283C94.4767 26.2592 95.2907 26.49 95.7558 26.7209C96.6279 27.2403 97.5 27.8751 98.3721 28.4522C98.7791 28.7985 100.116 29.4334 100.174 29.9528Z" fill="#00678F"/>
<path d="M73.7209 7.61804C73.2558 7.61804 72.9651 7.67575 72.6744 7.73347C72.6744 7.73347 72.6744 7.73347 72.6744 7.79118C72.6744 7.79118 72.6744 7.79118 72.7326 7.79118C72.9651 8.19517 73.314 8.48373 73.5465 8.83C73.7791 9.23399 73.9535 9.63798 74.1279 10.042L74.186 9.98425C74.5349 9.7534 74.7093 9.2917 74.7093 8.71458C74.5349 8.54144 74.5349 8.3683 74.4186 8.19517C74.2442 7.9066 73.8954 7.79118 73.7209 7.61804Z" fill="#00678F"/>
<path d="M45.9884 49.2287H55.7558C56.9186 49.2287 57.9651 48.9979 58.8953 48.5939C60.3488 47.9013 61.0465 47.0357 61.0465 45.8237V43.3421C61.0465 42.3609 60.2326 41.4953 58.6628 40.8604C57.8488 40.5719 56.8023 40.3987 55.7558 40.3987H51.686C50.2907 40.3987 49.6512 39.9947 49.4767 39.0713C49.4767 38.9559 49.4767 38.8405 49.4767 38.7828V37.2822C49.4767 37.2245 49.4767 37.1091 49.4767 36.9937C49.6512 36.3011 50 36.128 51.2209 36.0126C51.3372 36.0126 51.4535 36.0126 51.5116 36.0126H61.1628V33.7618H51.686C50.2907 33.7618 49.593 33.8195 48.9535 34.0503C46.9767 34.6852 46.0465 35.6663 46.0465 37.3977V39.2445C46.0465 40.745 47.7326 42.0724 50.6395 42.3609C50.9302 42.3609 51.2791 42.3609 51.6279 42.3609H55.1163C55.2326 42.3609 55.3488 42.3609 55.4651 42.3609C56.5116 42.4764 56.9767 42.6495 57.3256 43.0535C57.5581 43.2843 57.5581 43.4575 57.5581 43.6883V45.6505C57.5581 45.8814 57.3837 46.17 57.093 46.4585C56.8023 46.7471 56.2791 46.9202 55.6395 46.9202C55.5233 46.9202 55.407 46.9202 55.2907 46.9202H45.9884V49.2287Z" fill="#E38D1A"/>
<path d="M82.1512 45.3043C82.1512 47.6128 83.8953 48.8825 87.3837 49.1133C87.7326 49.1133 88.0233 49.171 88.3721 49.171H97.2093V46.9203H88.3139C86.3372 46.9203 85.5814 46.4586 85.5814 45.2466V33.7041H82.2093L82.1512 45.3043Z" fill="#E38D1A"/>
<path d="M63.1977 45.4197V37.4554C63.1977 35.4354 64.6512 34.1658 67.5 33.8195C67.7907 33.8195 68.1395 33.7618 68.4302 33.7618H74.8837C75.2326 33.7618 75.5233 33.7618 75.8721 33.8195C78.7209 34.2235 80.1163 35.4354 80.1163 37.4554V45.4197C80.1163 47.0934 79.5349 47.959 78.1395 48.5362L81.4535 51.5372H77.5581L74.8837 49.1133L72.1512 49.2864H68.5465C67.9651 49.2864 67.2674 49.2287 66.5698 49.0556C64.2442 48.4207 63.1977 47.2665 63.1977 45.4197ZM66.8605 45.2466C66.8605 45.362 66.9186 45.4774 66.9186 45.5928C67.093 46.5162 67.9651 47.0356 69.3023 47.0356H72.3837L69.593 44.4963H73.4884L75.9302 46.6894C76.3954 46.4585 76.686 46.0545 76.8023 45.5928C76.8023 45.4774 76.8023 45.362 76.8023 45.2466V37.6285C76.8023 37.5131 76.8023 37.3977 76.8023 37.34C76.6279 36.4743 75.7558 35.9549 74.4186 35.9549H69.3023C67.7907 35.9549 66.8023 36.5897 66.8023 37.6285L66.8605 45.2466Z" fill="#E38D1A"/>
<path d="M98.7209 49.2288H99.186V47.3243H99.8256V46.9203H98.0233V47.3243H98.7209V49.2288ZM102.5 49.2288H102.965V46.978H102.267L101.686 48.5362L101.047 46.978H100.349V49.2288H100.814V47.4974L101.453 49.2288H101.802L102.442 47.4974L102.5 49.2288Z" fill="#E38D1A"/>
</svg>
