<svg width="200" height="40" viewBox="0 0 200 40" fill="none" xmlns="http://www.w3.org/2000/svg">
<path fill-rule="evenodd" clip-rule="evenodd" d="M26.6567 25.1248C25.0849 25.0852 23.8557 25.2565 22.8275 25.744C22.532 25.8758 22.0593 25.8758 22.0238 26.2974C22.1775 26.4687 22.2011 26.7585 22.3429 26.9957C22.6135 27.5065 22.9614 27.9612 23.3712 28.3396L24.6358 29.3541C25.404 29.8811 26.2667 30.1842 27.0231 30.7112C27.4604 31.0142 27.8859 31.4095 28.205 31.7389C28.4177 31.9102 28.5595 32.2 28.8314 32.3055V32.2396C28.6895 32.0419 28.6541 31.7521 28.5122 31.5413L27.9213 30.9088C27.3454 30.0587 26.6558 29.3122 25.8767 28.6953C25.2503 28.2078 23.8675 27.5491 23.6075 26.7454L23.5721 26.7058C24.0094 26.6663 24.5176 26.4818 24.9312 26.3501C25.6049 26.1525 26.2076 26.192 26.9049 25.9943L27.8504 25.6913V25.4937C27.4958 25.0984 27.2358 24.5714 26.8695 24.2025C25.8649 23.2406 24.7658 22.292 23.6194 21.5015C23.0048 21.0667 22.2248 20.7768 21.5747 20.4079C21.3384 20.2761 20.9484 20.2103 20.8065 19.9863C20.452 19.4988 20.2511 18.8663 20.0029 18.2998L18.3837 14.4789C18.0292 13.6225 17.8164 12.766 17.3791 11.9755C15.5539 8.51507 12.9189 5.67315 9.75615 3.75394C9.02339 3.29279 8.16064 3.09516 7.23879 2.858L5.76146 2.76577C5.44236 2.60766 5.13508 2.19922 4.85143 2.00158C3.72866 1.21105 0.833109 -0.501778 0.123994 1.76442C-0.407843 3.18739 0.915839 4.59718 1.36495 5.32183C1.69587 5.82251 2.13315 6.40223 2.36953 6.96878C2.51135 7.3377 2.54681 7.73297 2.68863 8.12824L3.71685 11.0664C3.93022 11.5386 4.17516 11.9922 4.4496 12.4235C4.60324 12.6606 4.88689 12.7792 4.94598 13.1745C4.67415 13.6093 4.65051 14.2681 4.49687 14.8214C3.78776 17.2985 4.05959 20.3815 5.06417 22.1998C5.38327 22.7531 6.24602 23.9521 7.13242 23.491C8.01881 23.0957 7.8179 21.844 8.07791 20.7505C8.137 20.4869 8.10154 20.3157 8.21973 20.1312V20.1707L9.02339 21.989C9.63796 23.0694 10.7016 24.1893 11.588 24.9271C12.0608 25.3224 12.439 26.0075 13.0299 26.2447V26.1788H12.9472C12.829 25.9812 12.6517 25.8889 12.4981 25.744C12.1236 25.3369 11.7797 24.8962 11.4698 24.4264C10.6354 23.1661 9.89618 21.8308 9.25976 20.4342C8.94066 19.7491 8.66884 19.0113 8.40883 18.3261C8.29064 18.0626 8.29064 17.6674 8.08972 17.5356C7.79426 18.0231 7.35697 18.4316 7.14424 19.0245C6.76604 19.9731 6.73059 21.1325 6.58876 22.3447C5.87965 22.2129 5.66691 21.4883 5.43054 20.869C4.83961 19.3143 4.74506 16.7846 5.25326 15.0059C5.39509 14.5448 5.98602 13.0954 5.74964 12.6606C5.63146 12.239 5.24144 12.0019 5.01689 11.6725C4.75688 11.2509 4.48505 10.7238 4.30778 10.2627C3.96504 9.02418 3.61048 7.65391 3.10228 6.42858C2.86591 5.86203 2.45226 5.28231 2.10952 4.75528C1.74314 4.14921 1.32949 3.72759 1.03402 3.04246C0.927658 2.77894 0.797653 2.38368 0.951295 2.12016C0.986751 1.94888 1.06948 1.883 1.22312 1.8303C1.48313 1.59314 2.20407 1.89618 2.46407 2.02794C3.19683 2.35733 3.79958 2.66036 4.41414 3.12151C4.68597 3.34549 4.98144 3.75394 5.33599 3.87252H5.74964C6.37603 4.03063 7.08514 3.91205 7.67607 4.10968C8.71611 4.4786 9.6616 5.03197 10.5125 5.62487C13.1207 7.47844 15.2413 10.0699 16.6582 13.135C16.8946 13.6356 16.9891 14.0968 17.2137 14.6238L18.5492 17.8518C18.9628 18.8795 19.3528 19.9336 19.9438 20.79C20.2392 21.2511 21.4211 21.4883 21.9529 21.7386C22.3429 21.9363 22.9575 22.1075 23.3121 22.3579L25.2858 23.8467C25.6049 24.1102 26.4676 24.6636 26.6449 25.0984L26.6567 25.1248Z" fill="#00678C"/>
<path fill-rule="evenodd" clip-rule="evenodd" d="M6.56514 6.03337C6.23422 6.03337 5.99785 6.0729 5.76147 6.13878V6.1783H5.79693C5.95057 6.53404 6.23422 6.7712 6.42332 7.07424L6.87242 8.12829L6.90788 8.08876C7.17971 7.86478 7.32153 7.52221 7.32153 6.99519C7.20334 6.83708 7.17971 6.69215 7.08516 6.53404C6.96697 6.31006 6.70696 6.20465 6.55332 6.03337H6.56514Z" fill="#00678C"/>
<path fill-rule="evenodd" clip-rule="evenodd" d="M111.089 30.8429H128.037C130.022 30.8429 131.913 30.3949 133.45 29.5912C136.014 28.2737 137.232 26.5213 137.232 24.2156V19.3933C137.232 17.5487 135.837 15.77 133.048 14.5711C131.443 13.936 129.752 13.615 128.049 13.6224H120.934C118.546 13.6224 117.424 12.8319 117.105 11.0663C117.057 10.8687 117.057 10.6711 117.057 10.4603V7.49576C117.057 7.33765 117.057 7.14002 117.105 6.94239C117.424 5.5853 118.05 5.22956 120.13 4.96605H137.48V0.591751H120.969C118.582 0.591751 117.305 0.749857 116.195 1.14513C112.72 2.33093 111.195 4.25457 111.195 7.62752V11.4484C111.195 14.4129 114.174 16.9295 119.232 17.5092C119.776 17.5619 120.355 17.5619 120.946 17.5619H127.032C127.269 17.5619 127.481 17.5619 127.659 17.6146C129.502 17.8123 130.318 18.168 130.85 18.9322C131.204 19.3274 131.299 19.6832 131.299 20.1443V23.9653C131.299 24.4132 131.027 25.0193 130.471 25.52C129.916 26.0206 129.077 26.3764 127.942 26.4423C127.706 26.4423 127.588 26.495 127.351 26.495H111.089V30.8429ZM173.905 23.2538C173.905 27.7335 176.93 30.2368 182.97 30.7375L184.683 30.8429H200V26.495H184.553C181.008 26.495 179.826 25.5463 179.826 23.2274V0.604926H173.917V23.2669L173.905 23.2538ZM140.966 23.4514V7.89103C140.966 3.93835 143.484 1.51404 148.412 0.776209L149.984 0.670804H161.164C161.755 0.670804 162.252 0.723506 162.819 0.776209C167.735 1.52722 170.205 3.93835 170.205 7.89103V23.4646C170.205 26.6794 169.165 28.3923 166.731 29.5254L172.498 35.349H165.691L160.999 30.6321L156.271 30.9351H149.96C148.92 30.9351 147.75 30.8034 146.415 30.4345C142.68 29.275 140.824 27.0615 140.824 23.4514H140.966ZM147.325 23.1088C147.325 23.3065 147.419 23.5041 147.466 23.7676C147.786 25.5727 149.31 26.574 151.65 26.574H156.969L152.099 21.6463H158.907L163.185 25.9679C164.013 25.4673 164.485 24.7558 164.674 23.8598C164.722 23.6622 164.722 23.4119 164.722 23.2011V8.31265C164.722 8.11502 164.722 7.91738 164.674 7.70657C164.355 5.99374 162.831 5.0451 160.538 5.0451H151.674C149.074 5.0451 147.348 6.29678 147.348 8.31265L147.325 23.1088Z" fill="#CE8B2C"/>
<path fill-rule="evenodd" clip-rule="evenodd" d="M32.8616 30.8693H38.7236V4.99245L47.8712 27.5491C48.9112 30.2632 50.4004 31.2646 53.2841 31.2646C56.1678 31.2646 57.5624 30.2632 58.6497 27.5491L67.75 4.99245V30.8693H73.6593V4.99245C73.6593 2.48908 72.7611 1.27693 70.8702 0.618148C66.4145 -0.883869 63.4244 0.420515 62.0771 3.78029L53.095 26.0866L44.4438 3.78029C43.1437 0.420515 40.1182 -0.883869 35.6153 0.618148C33.7716 1.27693 32.8616 2.46273 32.8616 4.99245V30.8693ZM78.5168 9.81471H84.4261V24.0444C84.3788 24.8349 84.6625 26.6531 87.9717 26.7058H100.641V9.70931H106.55V32.9642C106.55 38.6956 100.192 39.9473 97.2138 40H78.6586V35.6257H97.2729C101.055 35.1777 100.606 33.0696 100.606 32.3582V30.6453H88.1135C82.2987 30.5926 78.5641 27.7467 78.5168 24.4528V9.81471Z" fill="#00678C"/>
</svg>
