<svg xmlns="http://www.w3.org/2000/svg" width="124" height="124"><g transform="translate(-480 -1506)"><g transform="translate(480 1506)" fill="#fff" stroke="#feab45"><circle cx="62" cy="62" r="62" stroke="none"/><circle cx="62" cy="62" r="61.5" fill="none"/></g><circle cx="53" cy="53" r="53" transform="translate(489 1515)" fill="#feab45"/><g transform="translate(509 1541.266)" fill="#fff"><path d="M62.33 0H21.851a.966.966 0 000 1.931H62.33a1.636 1.636 0 011.635 1.635v7.1H1.931V3.565A1.636 1.636 0 013.566 1.93h13.78a.966.966 0 000-1.931H3.565A3.569 3.569 0 000 3.565v50.7a3.57 3.57 0 003.565 3.565H62.33a3.57 3.57 0 003.57-3.561v-50.7A3.569 3.569 0 0062.335.004zM18.345 53.674h1.082a.966.966 0 100-1.931h-1.083a14.527 14.527 0 011.475-5.5l.936.54a.965.965 0 00.965-1.672l-.934-.539a14.754 14.754 0 014.025-4.025l.539.934a.965.965 0 101.672-.965l-.54-.936a14.527 14.527 0 015.5-1.475v1.078a.966.966 0 101.931 0v-1.078a14.527 14.527 0 015.5 1.475l-.54.936a.965.965 0 101.672.965l.539-.934a14.754 14.754 0 014.025 4.025l-.934.539a.965.965 0 10.965 1.672l.936-.54a14.527 14.527 0 011.475 5.5h-1.083a.966.966 0 100 1.931h1.082a14.659 14.659 0 01-.318 2.229H33.913v-.307a3.044 3.044 0 000-5.775v-6.473a.966.966 0 00-1.931 0v6.473a3.044 3.044 0 000 5.775v.307h-13.32a14.657 14.657 0 01-.318-2.229zm14.6-2.08a1.115 1.115 0 11-1.115 1.115 1.116 1.116 0 011.118-1.115zm31.017 2.675a1.637 1.637 0 01-1.632 1.634h-2.676v-5.986a2.264 2.264 0 00-1.354-2.074l-5.21-2.294a21.445 21.445 0 00-.84-2.018l2.065-5.311a2.266 2.266 0 00-.509-2.422l-3.949-3.949a2.265 2.265 0 00-2.422-.509l-5.311 2.065a21.389 21.389 0 00-2.019-.84l-2.292-5.21a2.265 2.265 0 00-2.074-1.354h-5.583a2.264 2.264 0 00-2.074 1.353l-2.292 5.211a21.391 21.391 0 00-2.019.84l-.82-.319a.966.966 0 10-.7 1.8l1.215.472a.966.966 0 00.784-.037 19.419 19.419 0 012.561-1.065.965.965 0 00.578-.527l2.462-5.6a.334.334 0 01.307-.2h5.583a.334.334 0 01.307.2l2.462 5.6a.965.965 0 00.578.527 19.413 19.413 0 012.561 1.065.966.966 0 00.784.037l5.705-2.219a.334.334 0 01.358.075l3.949 3.949a.334.334 0 01.075.358l-2.22 5.705a.965.965 0 00.037.784 19.451 19.451 0 011.065 2.56.966.966 0 00.527.577l5.6 2.464a.334.334 0 01.2.307v5.985H49.2a16.566 16.566 0 10-32.511 0H8.171v-5.986a.334.334 0 01.2-.307l5.6-2.463a.965.965 0 00.527-.577 19.467 19.467 0 011.065-2.56.965.965 0 00.037-.784l-2.219-5.705a.334.334 0 01.075-.358l3.944-3.949a.335.335 0 01.358-.075l.292.113a.966.966 0 00.7-1.8l-.292-.113a2.266 2.266 0 00-2.422.509l-3.949 3.949a2.266 2.266 0 00-.509 2.422l2.065 5.311a21.446 21.446 0 00-.84 2.018l-5.209 2.294a2.265 2.265 0 00-1.354 2.074v5.987H3.565a1.637 1.637 0 01-1.635-1.635V12.591h62.035z"/><path d="M10.436 23.745h28.873a1.171 1.171 0 000-2.282H11.345v-4.788h34.641v4.788h-2.438a1.171 1.171 0 000 2.282h11.91a1.045 1.045 0 00.908-1.141v-7.069a1.045 1.045 0 00-.908-1.141H10.436a1.045 1.045 0 00-.908 1.141v7.07a1.045 1.045 0 00.908 1.14zm44.113-2.282h-6.751v-4.787h6.747z"/><circle cx="1.844" cy="1.844" r="1.844" transform="translate(52.92 5.597)"/><circle cx="1.844" cy="1.844" r="1.844" transform="translate(49.14 5.597)"/><circle cx="1.844" cy="1.844" r="1.844" transform="translate(43.858 5.597)"/></g></g></svg>