<svg xmlns="http://www.w3.org/2000/svg" width="124" height="124" viewBox="0 0 124 124"><g transform="translate(-480 -1506)"><g transform="translate(480 1506)" fill="#fff" stroke="#feab45" stroke-width="1"><circle cx="62" cy="62" r="62" stroke="none"/><circle cx="62" cy="62" r="61.5" fill="none"/></g><circle cx="53" cy="53" r="53" transform="translate(489 1515)" fill="#feab45"/><g transform="translate(509 1509.949)"><g transform="translate(0 31.317)"><path d="M62.33,31.317H21.851a.965.965,0,0,0,0,1.931H62.33a1.636,1.636,0,0,1,1.635,1.635v7.1H1.931V34.882a1.636,1.636,0,0,1,1.635-1.635H17.346a.965.965,0,0,0,0-1.931H3.565A3.569,3.569,0,0,0,0,34.882v50.7a3.57,3.57,0,0,0,3.565,3.565H62.33A3.57,3.57,0,0,0,65.9,85.586v-50.7a3.569,3.569,0,0,0-3.565-3.565ZM18.345,84.991h1.082a.965.965,0,1,0,0-1.931H18.344a14.527,14.527,0,0,1,1.475-5.5l.936.54a.965.965,0,0,0,.965-1.672l-.934-.539a14.754,14.754,0,0,1,4.025-4.025l.539.934a.965.965,0,1,0,1.672-.965l-.54-.936a14.527,14.527,0,0,1,5.5-1.475V70.5a.965.965,0,1,0,1.931,0V69.422a14.527,14.527,0,0,1,5.5,1.475l-.54.936a.965.965,0,1,0,1.672.965l.539-.934a14.754,14.754,0,0,1,4.025,4.025l-.934.539a.965.965,0,1,0,.965,1.672l.936-.54a14.527,14.527,0,0,1,1.475,5.5H46.468a.965.965,0,1,0,0,1.931H47.55a14.659,14.659,0,0,1-.318,2.229H33.913v-.307a3.044,3.044,0,0,0,0-5.775V74.665a.965.965,0,0,0-1.931,0v6.473a3.044,3.044,0,0,0,0,5.775v.307H18.662a14.657,14.657,0,0,1-.318-2.229Zm14.6-2.08a1.115,1.115,0,1,1-1.115,1.115A1.116,1.116,0,0,1,32.948,82.911Zm31.017,2.675A1.637,1.637,0,0,1,62.33,87.22H59.654V81.234A2.264,2.264,0,0,0,58.3,79.16L53.09,76.866a21.445,21.445,0,0,0-.84-2.018l2.065-5.311a2.266,2.266,0,0,0-.509-2.422l-3.949-3.949a2.265,2.265,0,0,0-2.422-.509l-5.311,2.065a21.389,21.389,0,0,0-2.019-.84l-2.292-5.21a2.265,2.265,0,0,0-2.074-1.354H30.156a2.264,2.264,0,0,0-2.074,1.353L25.79,63.882a21.391,21.391,0,0,0-2.019.84l-.82-.319a.965.965,0,1,0-.7,1.8l1.215.472a.966.966,0,0,0,.784-.037,19.419,19.419,0,0,1,2.561-1.065.965.965,0,0,0,.578-.527l2.462-5.6a.334.334,0,0,1,.307-.2h5.583a.334.334,0,0,1,.307.2l2.462,5.6a.965.965,0,0,0,.578.527,19.413,19.413,0,0,1,2.561,1.065.966.966,0,0,0,.784.037l5.705-2.219a.334.334,0,0,1,.358.075l3.949,3.949a.334.334,0,0,1,.075.358L50.3,74.543a.965.965,0,0,0,.037.784,19.451,19.451,0,0,1,1.065,2.56.966.966,0,0,0,.527.577l5.6,2.464a.334.334,0,0,1,.2.307V87.22H49.2a16.566,16.566,0,1,0-32.511,0H8.171V81.234a.334.334,0,0,1,.2-.307l5.6-2.463a.965.965,0,0,0,.527-.577,19.467,19.467,0,0,1,1.065-2.56.965.965,0,0,0,.037-.784l-2.219-5.705a.334.334,0,0,1,.075-.358L17.4,64.531a.335.335,0,0,1,.358-.075l.292.113a.965.965,0,0,0,.7-1.8l-.292-.113a2.266,2.266,0,0,0-2.422.509l-3.949,3.949a2.266,2.266,0,0,0-.509,2.422l2.065,5.311a21.446,21.446,0,0,0-.84,2.018L7.594,79.159a2.265,2.265,0,0,0-1.354,2.074V87.22H3.565a1.637,1.637,0,0,1-1.635-1.635V43.908H63.965Z" transform="translate(0 -31.317)" fill="#fff"/><path d="M63.538,155.821H92.411a1.171,1.171,0,0,0,0-2.282H64.447v-4.788H99.088v4.788H96.65a1.171,1.171,0,0,0,0,2.282h11.91a1.045,1.045,0,0,0,.908-1.141v-7.069a1.045,1.045,0,0,0-.908-1.141H63.538a1.045,1.045,0,0,0-.908,1.141v7.07A1.045,1.045,0,0,0,63.538,155.821Zm44.113-2.282H100.9v-4.787h6.747Z" transform="translate(-53.102 -132.076)" fill="#fff"/><circle cx="1.844" cy="1.844" r="1.844" transform="translate(52.92 5.597)" fill="#fff"/><circle cx="1.844" cy="1.844" r="1.844" transform="translate(49.14 5.597)" fill="#fff"/><circle cx="1.844" cy="1.844" r="1.844" transform="translate(43.858 5.597)" fill="#fff"/></g></g></g></svg>