<?xml version="1.0" encoding="utf-8"?>
<!-- Generator: Adobe Illustrator 24.1.3, SVG Export Plug-In . SVG Version: 6.00 Build 0)  -->
<svg version="1.1" xmlns="http://www.w3.org/2000/svg" xmlns:xlink="http://www.w3.org/1999/xlink" x="0px" y="0px"
	 viewBox="0 0 750 500" style="enable-background:new 0 0 750 500;" xml:space="preserve">
<g id="Background_Complete">
	<g>
		<g>
			<g>
				<g>
					<path style="fill:#EBEBEB;" d="M108.55,252.37c0,0-7.92-0.57-7.19,17.19c0.73,17.76,2.54,27.23,2.54,27.23
						s-0.23,3.94-3.28,3.17c-3.05-0.77-8.79-4.61-11.62-1.74c-2.94,2.97-1.89,7.53,2,12.9c3.9,5.37,12.01,17.44,12.74,18.54
						c0.72,1.07,1,3.09-1.16,2.9c-2.16-0.19-16.76-5.14-18.69,1.93c-1.93,7.07,11.39,20.24,12.81,21.71
						c1.43,1.47,1.51,2.39,0.93,3.28c-0.58,0.89-5.33-1.24-9.54-2.47c-4.21-1.24-9.31-1.93-10.08,2.24
						c-0.77,4.17,5.09,16.38,27.06,29.2l10.57,5.28l10-6.38c20.58-14.96,25.19-27.69,24.01-31.76c-1.19-4.07-6.19-2.87-10.25-1.22
						c-4.06,1.65-8.58,4.24-9.24,3.42c-0.67-0.83-0.68-1.76,0.59-3.36c1.27-1.6,13.21-16.04,10.58-22.88
						c-2.63-6.84-16.66-0.46-18.79-0.05c-2.13,0.41-2.05-1.62-1.44-2.77c0.62-1.16,7.48-13.99,10.82-19.72
						c3.34-5.73,3.93-10.37,0.7-13.03c-3.11-2.57-8.43,1.82-11.39,2.89s-3.58-2.82-3.58-2.82s0.86-9.6-0.19-27.34
						c-1.05-17.75-9.06-16.32-9.06-16.32"/>
				</g>
			</g>
			<g>
				<g>
					<g>
						<path style="fill:#E0E0E0;" d="M109.18,268.28c0,0,0.02,0.13,0.04,0.37c0.02,0.26,0.05,0.62,0.08,1.09
							c0.07,0.98,0.16,2.39,0.28,4.2c0.24,3.64,0.55,8.92,0.91,15.44c0.72,13.04,1.57,31.05,2.44,50.96
							c0.87,19.91,1.67,37.93,2.32,50.97c0.33,6.51,0.6,11.78,0.79,15.44c0.09,1.81,0.16,3.22,0.21,4.2
							c0.02,0.47,0.03,0.83,0.04,1.09c0.01,0.25,0,0.37,0,0.37s-0.02-0.13-0.04-0.37c-0.02-0.26-0.05-0.62-0.08-1.09
							c-0.07-0.98-0.16-2.39-0.28-4.19c-0.24-3.64-0.55-8.92-0.91-15.44c-0.72-13.04-1.57-31.06-2.44-50.97
							c-0.87-19.9-1.67-37.92-2.32-50.96c-0.33-6.51-0.6-11.78-0.79-15.44c-0.09-1.81-0.16-3.22-0.21-4.2
							c-0.02-0.47-0.03-0.83-0.04-1.09C109.17,268.41,109.18,268.28,109.18,268.28z"/>
					</g>
				</g>
			</g>
			<g>
				<g>
					<g>
						<path style="fill:#E0E0E0;" d="M96.81,303.9c0.02-0.02,0.25,0.18,0.66,0.55c0.41,0.37,0.98,0.92,1.68,1.61
							c1.39,1.38,3.27,3.34,5.3,5.54c1.99,2.17,3.78,4.14,5.17,5.66c0.62,0.67,1.14,1.24,1.57,1.71c0.37,0.4,0.57,0.63,0.55,0.65
							c-0.02,0.02-0.25-0.17-0.66-0.54c-0.41-0.37-0.98-0.92-1.67-1.62c-1.38-1.4-3.23-3.38-5.26-5.58c-2-2.16-3.81-4.11-5.21-5.62
							c-0.62-0.67-1.15-1.23-1.58-1.7C96.99,304.16,96.79,303.92,96.81,303.9z"/>
					</g>
				</g>
			</g>
			<g>
				<g>
					<g>
						<path style="fill:#E0E0E0;" d="M112.79,319.27c-0.08-0.08,3.79-4.13,8.63-9.04c4.85-4.92,8.84-8.83,8.92-8.76
							c0.08,0.08-3.78,4.13-8.63,9.04C116.86,315.43,112.86,319.35,112.79,319.27z"/>
					</g>
				</g>
			</g>
			<g>
				<g>
					<g>
						<path style="fill:#E0E0E0;" d="M112.74,349.9c-0.01-0.02,0.25-0.19,0.74-0.47c0.56-0.32,1.25-0.7,2.07-1.16
							c1.74-0.98,4.15-2.34,6.75-3.94c2.6-1.59,4.91-3.11,6.57-4.23c0.78-0.52,1.43-0.96,1.97-1.32c0.47-0.31,0.74-0.47,0.75-0.44
							c0.02,0.02-0.22,0.23-0.66,0.57c-0.44,0.35-1.09,0.84-1.9,1.42c-1.62,1.18-3.91,2.74-6.53,4.34c-2.61,1.6-5.04,2.93-6.82,3.85
							c-0.89,0.46-1.62,0.81-2.13,1.05C113.04,349.8,112.75,349.92,112.74,349.9z"/>
					</g>
				</g>
			</g>
			<g>
				<g>
					<g>
						<path style="fill:#E0E0E0;" d="M95.23,339.18c0.01-0.02,0.27,0.1,0.73,0.34c0.46,0.24,1.11,0.61,1.92,1.06
							c1.61,0.91,3.82,2.2,6.24,3.64c2.43,1.44,4.61,2.77,6.18,3.75c0.79,0.49,1.42,0.89,1.85,1.18c0.43,0.29,0.66,0.45,0.65,0.48
							c-0.01,0.02-0.27-0.1-0.73-0.34c-0.46-0.24-1.11-0.61-1.92-1.06c-1.61-0.91-3.82-2.2-6.24-3.64
							c-2.43-1.44-4.61-2.77-6.18-3.75c-0.79-0.49-1.42-0.89-1.85-1.18C95.45,339.37,95.22,339.2,95.23,339.18z"/>
					</g>
				</g>
			</g>
			<g>
				<g>
					<g>
						<path style="fill:#E0E0E0;" d="M91.76,366.21c0.01-0.02,0.34,0.14,0.93,0.45c0.65,0.36,1.48,0.81,2.46,1.36
							c2.07,1.16,4.91,2.79,8.04,4.61c3.13,1.82,5.95,3.49,7.98,4.71c0.96,0.59,1.76,1.08,2.4,1.47c0.56,0.35,0.86,0.56,0.85,0.59
							c-0.01,0.02-0.34-0.14-0.93-0.45c-0.65-0.36-1.48-0.81-2.46-1.36c-2.07-1.16-4.91-2.79-8.04-4.61
							c-3.13-1.82-5.95-3.49-7.98-4.71c-0.96-0.59-1.76-1.08-2.4-1.47C92.05,366.45,91.74,366.24,91.76,366.21z"/>
					</g>
				</g>
			</g>
			<g>
				<g>
					<g>
						<path style="fill:#E0E0E0;" d="M113.96,378.93c-0.01-0.02,0.31-0.24,0.92-0.62c0.67-0.41,1.54-0.93,2.57-1.56
							c2.17-1.32,5.16-3.16,8.4-5.27c3.25-2.11,6.14-4.1,8.22-5.55c0.99-0.69,1.82-1.27,2.47-1.72c0.59-0.4,0.92-0.61,0.93-0.59
							c0.02,0.02-0.28,0.28-0.84,0.72c-0.56,0.44-1.37,1.07-2.4,1.82c-2.04,1.51-4.91,3.54-8.17,5.66
							c-3.25,2.12-6.27,3.92-8.48,5.18c-1.11,0.63-2.01,1.13-2.64,1.45C114.33,378.78,113.97,378.95,113.96,378.93z"/>
					</g>
				</g>
			</g>
		</g>
		<g>
			<g>
				<g>
					<g>
						<polygon style="fill:#E0E0E0;" points="129.84,397.17 100.6,397.17 110.15,469.41 120.3,469.41 						"/>
					</g>
				</g>
			</g>
			<g>
				<g>
					<g>
						<g>
							<path style="fill:#F5F5F5;" d="M102.12,406.05c-0.01,0.01,0.03,0.1,0.16,0.26c0.12,0.15,0.35,0.35,0.71,0.5
								c0.69,0.3,1.91,0.33,3.09-0.38c1.18-0.65,2.21-1.93,3.79-2.5c1.57-0.6,3.51-0.49,5.38,0.11c1.89,0.58,3.52,1.54,5.01,2.43
								c1.49,0.88,2.85,1.67,4.07,2.18c1.21,0.53,2.27,0.77,3,0.87c0.37,0.05,0.65,0.06,0.85,0.06c0.19,0,0.3-0.01,0.3-0.02
								c0.02-0.1-1.65-0.08-4.01-1.21c-1.18-0.54-2.51-1.35-3.98-2.25c-1.47-0.91-3.15-1.9-5.09-2.5c-1.92-0.62-3.99-0.73-5.68-0.06
								c-0.84,0.32-1.55,0.82-2.14,1.32c-0.6,0.49-1.13,0.96-1.67,1.3c-1.07,0.69-2.19,0.72-2.85,0.49
								C102.38,406.4,102.16,406.01,102.12,406.05z"/>
						</g>
					</g>
				</g>
			</g>
			<g>
				<g>
					<g>
						<g>
							<path style="fill:#F5F5F5;" d="M103.19,419.35c0.04,0.02,0.23-0.3,0.69-0.78c0.47-0.46,1.23-1.07,2.34-1.48
								c1.1-0.42,2.51-0.67,4.07-0.61c1.57,0.05,3.27,0.4,5.09,0.69c1.81,0.3,3.61,0.44,5.21,0.22c1.6-0.21,2.99-0.67,4.1-1.17
								c1.11-0.51,1.93-1.06,2.46-1.47c0.54-0.41,0.8-0.68,0.78-0.7c-0.05-0.08-1.18,0.93-3.38,1.86c-1.1,0.45-2.46,0.87-4.02,1.04
								c-1.56,0.19-3.28,0.05-5.08-0.25c-1.8-0.29-3.53-0.63-5.15-0.66c-1.62-0.04-3.08,0.26-4.21,0.74
								c-1.14,0.47-1.91,1.15-2.35,1.67c-0.21,0.27-0.36,0.49-0.44,0.65C103.21,419.26,103.18,419.34,103.19,419.35z"/>
						</g>
					</g>
				</g>
			</g>
			<g>
				<g>
					<g>
						<g>
							<path style="fill:#F5F5F5;" d="M126.53,426.48c0.01-0.02-0.26-0.2-0.81-0.42c-0.54-0.22-1.37-0.44-2.42-0.52
								c-1.05-0.08-2.3-0.02-3.66,0.21c-1.36,0.22-2.83,0.6-4.36,0.92c-1.53,0.32-3.01,0.54-4.35,0.49
								c-1.34-0.05-2.53-0.34-3.46-0.75c-1.88-0.83-2.55-2.03-2.62-1.95c-0.02,0.01,0.11,0.31,0.49,0.76
								c0.38,0.45,1.03,1.03,1.99,1.49c0.95,0.47,2.18,0.81,3.58,0.88c1.4,0.08,2.92-0.14,4.47-0.46c1.55-0.33,3-0.72,4.34-0.96
								c1.33-0.24,2.55-0.34,3.57-0.31C125.34,425.94,126.5,426.56,126.53,426.48z"/>
						</g>
					</g>
				</g>
			</g>
			<g>
				<g>
					<g>
						<g>
							<path style="fill:#F5F5F5;" d="M105.77,436.5c0.01,0.08,1.04-0.65,2.84-0.29c0.88,0.16,1.86,0.6,2.97,1.11
								c1.1,0.51,2.43,0.95,3.86,1.06c2.87,0.28,5.43-0.65,6.99-1.62c0.8-0.48,1.36-0.99,1.74-1.34c0.36-0.38,0.54-0.6,0.51-0.62
								c-0.06-0.07-0.83,0.79-2.42,1.67c-1.57,0.87-4.03,1.7-6.78,1.44c-2.77-0.16-4.89-1.81-6.81-2.03
								c-0.94-0.14-1.72-0.01-2.21,0.19C105.97,436.26,105.76,436.48,105.77,436.5z"/>
						</g>
					</g>
				</g>
			</g>
			<g>
				<g>
					<g>
						<g>
							<path style="fill:#F5F5F5;" d="M107.4,450.36c0,0.05,0.98,0.05,2.44-0.48c1.47-0.49,3.29-1.62,5.41-2.46
								c1.07-0.41,2.13-0.66,3.11-0.65c0.97,0,1.84,0.24,2.5,0.57c1.34,0.67,1.73,1.62,1.81,1.56c0.02-0.01-0.04-0.25-0.28-0.62
								c-0.24-0.37-0.68-0.85-1.37-1.24c-0.68-0.39-1.6-0.68-2.65-0.71c-1.05-0.03-2.18,0.22-3.28,0.64
								c-2.2,0.88-3.96,2.04-5.37,2.59C108.33,450.16,107.39,450.28,107.4,450.36z"/>
						</g>
					</g>
				</g>
			</g>
			<g>
				<g>
					<g>
						<g>
							<path style="fill:#F5F5F5;" d="M108.84,456.81c-0.02,0.06,0.68,0.31,1.85,0.6c1.17,0.29,2.8,0.6,4.63,0.78
								c1.83,0.18,3.49,0.19,4.69,0.14c1.2-0.06,1.94-0.17,1.93-0.23c-0.01-0.14-2.96-0.02-6.58-0.38
								C111.75,457.37,108.87,456.67,108.84,456.81z"/>
						</g>
					</g>
				</g>
			</g>
		</g>
	</g>
	<g>
		<g>
			<g>
				<g>
					<g>
						<g>
							<g>
								
									<rect x="640.4" y="55.78" transform="matrix(1 -5.353963e-03 5.353963e-03 1 -0.422 3.4565)" style="fill:#E0E0E0;" width="9.96" height="49.54"/>
							</g>
						</g>
					</g>
				</g>
			</g>
		</g>
		<g>
			<g>
				<g>
					<g>
						<g>
							<g>
								<g>
									
										<rect x="554.1" y="55.96" transform="matrix(1 -5.349032e-03 5.349032e-03 1 -0.3643 3.0338)" style="fill:#EBEBEB;" width="25.78" height="27.35"/>
								</g>
							</g>
						</g>
					</g>
				</g>
			</g>
			<g>
				<g>
					<g>
						<g>
							<g>
								<g>
									
										<rect x="579.76" y="55.82" transform="matrix(1 -5.352890e-03 5.352890e-03 1 -0.3635 3.1734)" style="fill:#F5F5F5;" width="25.78" height="27.35"/>
								</g>
							</g>
						</g>
					</g>
				</g>
			</g>
			<g>
				<g>
					<g>
						<g>
							<g>
								<g>
									<g>
										<path style="fill:#E0E0E0;" d="M554.07,63.58c17.13,0.14,34.31,0.04,51.44-0.24c0.35-0.01,0.35-0.55,0-0.55
											c-17.13-0.09-34.31-0.01-51.44,0.31C553.76,63.11,553.77,63.58,554.07,63.58L554.07,63.58z"/>
									</g>
								</g>
							</g>
						</g>
					</g>
				</g>
			</g>
		</g>
		<g>
			<g>
				<g>
					<g>
						<g>
							<g>
								<g>
									
										<rect x="538.01" y="82.9" transform="matrix(1 -5.356674e-03 5.356674e-03 1 -0.4957 3.0088)" style="fill:#EBEBEB;" width="46.84" height="22.29"/>
								</g>
							</g>
						</g>
					</g>
				</g>
			</g>
			<g>
				<g>
					<g>
						<g>
							<g>
								<g>
									
										<rect x="584.63" y="82.65" transform="matrix(1 -5.356661e-03 5.356661e-03 1 -0.4937 3.2585)" style="fill:#F5F5F5;" width="46.84" height="22.29"/>
								</g>
							</g>
						</g>
					</g>
				</g>
			</g>
			<g>
				<g>
					<g>
						<g>
							<g>
								<g>
									<g>
										<path style="fill:#E0E0E0;" d="M537.99,89.23c31.12,0.35,62.34,0.04,93.45-0.46c0.35-0.01,0.35-0.55,0-0.55
											c-31.12-0.16-62.34-0.15-93.45,0.54C537.68,88.76,537.68,89.22,537.99,89.23L537.99,89.23z"/>
									</g>
								</g>
							</g>
						</g>
					</g>
				</g>
			</g>
		</g>
		<g>
			<g>
				<g>
					<g>
						<g>
							<g>
								<rect x="520.47" y="105.32" style="fill:#E0E0E0;" width="181.47" height="7.98"/>
							</g>
						</g>
					</g>
				</g>
			</g>
			<g>
				<g>
					<g>
						<g>
							<g>
								<rect x="550.18" y="109.15" style="fill:#E0E0E0;" width="7.37" height="27.24"/>
							</g>
						</g>
					</g>
				</g>
			</g>
			<g>
				<g>
					<g>
						<g>
							<g>
								<rect x="660.15" y="109.15" style="fill:#E0E0E0;" width="7.37" height="27.24"/>
							</g>
						</g>
					</g>
				</g>
			</g>
		</g>
		<g>
			<g>
				<g>
					<g>
						<g>
							<g>
								
									<rect x="650.17" y="37.31" transform="matrix(1 -5.353855e-03 5.353855e-03 1 -0.3728 3.5086)" style="fill:#EBEBEB;" width="9.96" height="68.13"/>
							</g>
						</g>
					</g>
				</g>
			</g>
		</g>
		<g>
			<g>
				<g>
					<g>
						<g>
							<g>
								<g>
									
										<rect x="660.18" y="50.01" transform="matrix(1 -5.372026e-03 5.372026e-03 1 -0.4073 3.5892)" style="fill:#F5F5F5;" width="15.47" height="55.21"/>
								</g>
							</g>
						</g>
					</g>
				</g>
			</g>
			<g>
				<g>
					<g>
						<g>
							<g>
								<g>
									<path style="fill:#E0E0E0;" d="M675.39,60.61c0,0.15-3.46,0.27-7.73,0.27c-4.27,0-7.73-0.12-7.73-0.27
										c0-0.15,3.46-0.27,7.73-0.27C671.93,60.34,675.39,60.46,675.39,60.61z"/>
								</g>
							</g>
						</g>
					</g>
				</g>
			</g>
			<g>
				<g>
					<g>
						<g>
							<g>
								<g>
									<path style="fill:#E0E0E0;" d="M675.39,58.29c0,0.15-3.46,0.27-7.73,0.27c-4.27,0-7.73-0.12-7.73-0.27
										c0-0.15,3.46-0.27,7.73-0.27C671.93,58.02,675.39,58.14,675.39,58.29z"/>
								</g>
							</g>
						</g>
					</g>
				</g>
			</g>
			<g>
				<g>
					<g>
						<g>
							<g>
								<g>
									<path style="fill:#E0E0E0;" d="M675.39,96.87c0,0.15-3.46,0.27-7.73,0.27c-4.27,0-7.73-0.12-7.73-0.27
										c0-0.15,3.46-0.27,7.73-0.27C671.93,96.6,675.39,96.72,675.39,96.87z"/>
								</g>
							</g>
						</g>
					</g>
				</g>
			</g>
			<g>
				<g>
					<g>
						<g>
							<g>
								<g>
									<path style="fill:#E0E0E0;" d="M675.39,94.55c0,0.15-3.46,0.27-7.73,0.27c-4.27,0-7.73-0.12-7.73-0.27
										c0-0.15,3.46-0.27,7.73-0.27C671.93,94.29,675.39,94.41,675.39,94.55z"/>
								</g>
							</g>
						</g>
					</g>
				</g>
			</g>
			<g>
				<g>
					<g>
						<g>
							<g>
								<g>
									<path style="fill:#E0E0E0;" d="M667.91,89.49c-0.15,0-0.27-5.57-0.27-12.44c0-6.87,0.12-12.44,0.27-12.44
										c0.15,0,0.27,5.57,0.27,12.44C668.18,83.92,668.06,89.49,667.91,89.49z"/>
								</g>
							</g>
						</g>
					</g>
				</g>
			</g>
		</g>
		<g>
			<g>
				<g>
					<g>
						<g>
							<g>
								<rect x="675.56" y="63.53" style="fill:#EBEBEB;" width="16.84" height="41.67"/>
							</g>
						</g>
					</g>
				</g>
			</g>
		</g>
		<g>
			<g>
				<g>
					<g>
						<g>
							<path style="fill:#E0E0E0;" d="M657.68,48.92c0,1.58-1.28,2.86-2.86,2.86c-1.58,0-2.86-1.28-2.86-2.86
								c0-1.58,1.28-2.86,2.86-2.86C656.4,46.06,657.68,47.34,657.68,48.92z"/>
						</g>
					</g>
				</g>
			</g>
		</g>
		<g>
			<g>
				<g>
					<g>
						<g>
							<rect x="653.93" y="56.79" style="fill:#E0E0E0;" width="1.77" height="40.53"/>
						</g>
					</g>
				</g>
			</g>
		</g>
	</g>
	<g>
		<g>
			<g>
				<rect x="80.22" y="38.79" style="fill:#E0E0E0;" width="105.56" height="153"/>
			</g>
		</g>
		<g>
			<g>
				<rect x="74.93" y="38.79" style="fill:#F5F5F5;" width="105.56" height="153"/>
			</g>
		</g>
		<g>
			<g>
				<g>
					<rect x="88.04" y="55.36" style="fill:#FFFFFF;" width="79.33" height="119.86"/>
				</g>
			</g>
			<g>
				<g>
					<g>
						<path style="fill:#E0E0E0;" d="M167.37,175.22c0,0-0.01-0.2-0.02-0.59c0-0.4-0.01-0.96-0.02-1.7
							c-0.01-1.51-0.02-3.71-0.03-6.57c-0.02-5.74-0.04-14.12-0.07-24.69c-0.03-21.13-0.08-51.06-0.13-86.31l0.26,0.26
							c-24.24,0.01-51.09,0.02-79.32,0.02h-0.01l0.29-0.29c-0.02,45.21-0.04,86.9-0.06,119.86l-0.23-0.23
							c24.16,0.05,43.96,0.09,57.74,0.12c6.89,0.03,12.28,0.04,15.95,0.06c1.83,0.01,3.23,0.02,4.19,0.03
							C166.87,175.2,167.37,175.22,167.37,175.22s-0.47,0.02-1.4,0.02c-0.95,0.01-2.34,0.01-4.14,0.03
							c-3.66,0.01-9.03,0.03-15.9,0.06c-13.81,0.03-33.66,0.07-57.88,0.12l-0.23,0l0-0.23c-0.02-32.95-0.04-74.64-0.06-119.86
							l0-0.29h0.29h0.01c28.23,0.01,55.08,0.02,79.32,0.02l0.26,0l0,0.26c-0.05,35.31-0.1,65.3-0.13,86.48
							c-0.03,10.55-0.05,18.9-0.07,24.63c-0.01,2.84-0.02,5.03-0.03,6.52c-0.01,0.73-0.01,1.28-0.02,1.67
							C167.38,175.04,167.37,175.22,167.37,175.22z"/>
					</g>
				</g>
			</g>
		</g>
		<g>
			<g>
				<g>
					<path style="fill:#E0E0E0;" d="M180.78,38.79c0.06,0.05-0.66,1.09-1.88,2.73c-1.23,1.64-2.97,3.87-4.95,6.28
						c-1.99,2.41-3.84,4.55-5.22,6.07c-1.37,1.52-2.26,2.42-2.32,2.37c-0.06-0.05,0.72-1.05,2.01-2.63
						c1.42-1.72,3.16-3.83,5.08-6.17c1.92-2.34,3.66-4.45,5.08-6.17C179.89,39.7,180.72,38.74,180.78,38.79z"/>
				</g>
			</g>
		</g>
		<g>
			<g>
				<g>
					<path style="fill:#FFFFFF;" d="M167.77,174.83c3.94,6.26,8.59,12.08,13.84,17.3"/>
				</g>
			</g>
			<g>
				<g>
					<g>
						<path style="fill:#E0E0E0;" d="M181.61,192.14c-0.05,0.05-0.99-0.76-2.41-2.19c-1.42-1.43-3.3-3.49-5.22-5.89
							c-1.92-2.4-3.51-4.69-4.59-6.39c-1.08-1.7-1.67-2.8-1.61-2.84c0.07-0.04,0.78,0.98,1.95,2.61c1.16,1.63,2.8,3.87,4.71,6.26
							c1.91,2.39,3.73,4.47,5.07,5.97C180.83,191.16,181.67,192.08,181.61,192.14z"/>
					</g>
				</g>
			</g>
		</g>
		<g>
			<g>
				<g>
					<path style="fill:#FFFFFF;" d="M74.91,191.67c4.61-5.69,9.22-11.37,13.83-17.06"/>
				</g>
			</g>
			<g>
				<g>
					<g>
						<path style="fill:#E0E0E0;" d="M88.74,174.61c0.12,0.1-2.87,4-6.69,8.71c-3.82,4.71-7.01,8.45-7.14,8.35
							c-0.12-0.1,2.87-4,6.69-8.71C85.42,178.25,88.62,174.51,88.74,174.61z"/>
					</g>
				</g>
			</g>
		</g>
		<g>
			<g>
				<g>
					<path style="fill:#E0E0E0;" d="M74.93,38.79c0.12-0.1,3.13,3.49,6.71,8.02c3.58,4.53,6.39,8.28,6.26,8.38
						c-0.12,0.1-3.13-3.49-6.71-8.02C77.61,42.64,74.8,38.89,74.93,38.79z"/>
				</g>
			</g>
		</g>
		<g>
			<g>
				<rect x="116.09" y="79.7" style="fill:#E0E0E0;" width="26.56" height="75.42"/>
			</g>
		</g>
	</g>
	<g>
		<g>
			<g>
				<g>
					<g>
						<g>
							<g>
								<g>
									<g>
										<rect x="450.66" y="333.69" style="fill:#F5F5F5;" width="184.45" height="85.07"/>
									</g>
								</g>
							</g>
						</g>
					</g>
				</g>
				<g>
					<g>
						<g>
							<g>
								<g>
									<g>
										<path style="fill:#E0E0E0;" d="M630.72,414.75H454.88v-76.58h175.84V414.75z M456.03,413.6h173.54v-74.29H456.03V413.6z"
											/>
									</g>
								</g>
							</g>
						</g>
					</g>
				</g>
				<g>
					<g>
						<g>
							<g>
								<g>
									<g>
										<rect x="635.11" y="333.69" style="fill:#E0E0E0;" width="45.06" height="85.07"/>
									</g>
								</g>
							</g>
						</g>
					</g>
				</g>
				<g>
					<g>
						<g>
							<g>
								<g>
									<g>
										<g>
											<path style="fill:#E0E0E0;" d="M455.45,361.87c19.76,0,39.52,0,59.28,0c31.22,0,62.44,0,93.66,0c7.25,0,14.5,0,21.75,0
												c0.3,0,0.3-0.46,0-0.46c-19.76,0-39.52,0-59.28,0c-31.22,0-62.44,0-93.66,0c-7.25,0-14.5,0-21.75,0
												C455.15,361.4,455.15,361.87,455.45,361.87L455.45,361.87z"/>
										</g>
									</g>
								</g>
							</g>
						</g>
					</g>
				</g>
				<g>
					<g>
						<g>
							<g>
								<g>
									<g>
										<g>
											<path style="fill:#E0E0E0;" d="M543.37,361.64c0.52-7.55,0.47-15.55,0.06-23.11c-0.02-0.3-0.45-0.3-0.47,0
												c-0.41,7.56-0.46,15.56,0.06,23.11C543.03,361.86,543.35,361.86,543.37,361.64L543.37,361.64z"/>
										</g>
									</g>
								</g>
							</g>
						</g>
					</g>
				</g>
				<g>
					<g>
						<g>
							<g>
								<g>
									<g>
										<path style="fill:#E0E0E0;" d="M590.39,350.08c0,1.31-1.07,2.38-2.38,2.38c-1.31,0-2.38-1.07-2.38-2.38
											c0-1.31,1.07-2.38,2.38-2.38C589.32,347.7,590.39,348.77,590.39,350.08z"/>
									</g>
								</g>
							</g>
						</g>
					</g>
				</g>
				<g>
					<g>
						<g>
							<g>
								<g>
									<g>
										<path style="fill:#E0E0E0;" d="M498.71,350.08c0,1.31-1.07,2.38-2.38,2.38c-1.31,0-2.38-1.07-2.38-2.38
											c0-1.31,1.07-2.38,2.38-2.38C497.65,347.7,498.71,348.77,498.71,350.08z"/>
									</g>
								</g>
							</g>
						</g>
					</g>
				</g>
				<g>
					<g>
						<g>
							<g>
								<g>
									<g>
										<path style="fill:#E0E0E0;" d="M545.18,376.46c0,1.31-1.07,2.38-2.38,2.38c-1.31,0-2.38-1.07-2.38-2.38
											c0-1.31,1.07-2.38,2.38-2.38C544.11,374.08,545.18,375.14,545.18,376.46z"/>
									</g>
								</g>
							</g>
						</g>
					</g>
				</g>
				<g>
					<g>
						<g>
							<g>
								<g>
									<g>
										<polygon style="fill:#E0E0E0;" points="472.71,418.76 463.21,472.16 468.55,472.16 486.06,418.76 										"/>
									</g>
								</g>
							</g>
						</g>
					</g>
				</g>
				<g>
					<g>
						<g>
							<g>
								<g>
									<g>
										<polygon style="fill:#E0E0E0;" points="622.06,418.76 630,472.26 624.66,472.26 608.7,418.76 										"/>
									</g>
								</g>
							</g>
						</g>
					</g>
				</g>
				<g>
					<g>
						<g>
							<g>
								<g>
									<g>
										<polygon style="fill:#E0E0E0;" points="657.72,418.76 666.71,472.26 661.37,472.26 644.36,418.76 										"/>
									</g>
								</g>
							</g>
						</g>
					</g>
				</g>
				<g>
					<g>
						<g>
							<g>
								<g>
									<g>
										<path style="fill:#E0E0E0;" d="M545.02,400.53c0,1.31-1.07,2.38-2.38,2.38c-1.31,0-2.38-1.07-2.38-2.38
											c0-1.31,1.07-2.38,2.38-2.38C543.95,398.15,545.02,399.22,545.02,400.53z"/>
									</g>
								</g>
							</g>
						</g>
					</g>
				</g>
				<g>
					<g>
						<g>
							<g>
								<g>
									<g>
										<g>
											<path style="fill:#E0E0E0;" d="M455.45,388.21c19.76,0,39.52,0,59.28,0c31.22,0,62.44,0,93.66,0c7.25,0,14.5,0,21.75,0
												c0.3,0,0.3-0.46,0-0.46c-19.76,0-39.52,0-59.28,0c-31.22,0-62.44,0-93.66,0c-7.25,0-14.5,0-21.75,0
												C455.15,387.75,455.15,388.21,455.45,388.21L455.45,388.21z"/>
										</g>
									</g>
								</g>
							</g>
						</g>
					</g>
				</g>
			</g>
		</g>
	</g>
	<g>
		<g>
			<g>
				<g>
					<g>
						<g>
							<g>
								<g>
									<polygon style="fill:#F5F5F5;" points="296.31,439.47 296.31,471.81 343.6,471.81 395.76,471.81 395.76,439.47 									
										"/>
								</g>
							</g>
						</g>
					</g>
				</g>
			</g>
			<g>
				<g>
					<g>
						<g>
							<g>
								<g>
									<polygon style="fill:#E0E0E0;" points="292.14,430.43 292.14,439.47 399.24,439.47 399.24,430.43 343.6,430.43 									
										"/>
								</g>
							</g>
						</g>
					</g>
				</g>
			</g>
			<g>
				<g>
					<g>
						<g>
							<g>
								<g>
									<polygon style="fill:#E0E0E0;" points="345.69,471.81 395.76,471.81 395.76,439.47 399.24,439.47 399.24,430.43 
										343.6,430.43 343.6,438.64 									"/>
								</g>
							</g>
						</g>
					</g>
				</g>
			</g>
			<g>
				<g>
					<g>
						<g>
							<g>
								<g>
									<rect x="310.22" y="444.69" style="fill:#E0E0E0;" width="20.17" height="4.87"/>
								</g>
							</g>
						</g>
					</g>
				</g>
			</g>
			<g>
				<g>
					<g>
						<g>
							<g>
								<g>
									<rect x="307.63" y="455.64" style="fill:#FFFFFF;" width="25.9" height="10.28"/>
								</g>
							</g>
						</g>
					</g>
				</g>
			</g>
		</g>
	</g>
	<g>
		<g>
			<g>
				<g>
					<g>
						<g>
							<g>
								<g>
									<polygon style="fill:#F5F5F5;" points="311.61,398.14 311.61,430.48 358.9,430.48 411.06,430.48 411.06,398.14 									
										"/>
								</g>
							</g>
						</g>
					</g>
				</g>
			</g>
			<g>
				<g>
					<g>
						<g>
							<g>
								<g>
									<polygon style="fill:#E0E0E0;" points="307.44,389.1 307.44,398.14 414.54,398.14 414.54,389.1 358.9,389.1 									"/>
								</g>
							</g>
						</g>
					</g>
				</g>
			</g>
			<g>
				<g>
					<g>
						<g>
							<g>
								<g>
									<polygon style="fill:#E0E0E0;" points="360.99,430.48 411.06,430.48 411.06,398.14 414.54,398.14 414.54,389.1 
										358.9,389.1 358.9,397.3 									"/>
								</g>
							</g>
						</g>
					</g>
				</g>
			</g>
			<g>
				<g>
					<g>
						<g>
							<g>
								<g>
									<rect x="325.52" y="403.35" style="fill:#E0E0E0;" width="20.17" height="4.87"/>
								</g>
							</g>
						</g>
					</g>
				</g>
			</g>
			<g>
				<g>
					<g>
						<g>
							<g>
								<g>
									<rect x="322.93" y="414.31" style="fill:#FFFFFF;" width="25.9" height="10.28"/>
								</g>
							</g>
						</g>
					</g>
				</g>
			</g>
		</g>
	</g>
	<g>
		<g>
			<path style="fill:#EBEBEB;" d="M612.06,271.23c1.81-1.09,3.73-1.92,5.72-2.48l1.18-5.66l9.56-0.17l1.38,5.61
				c2,0.49,3.96,1.25,5.8,2.28l4.83-3.17l6.88,6.64l-3,4.94c1.09,1.81,1.92,3.73,2.48,5.72l5.66,1.18l0.17,9.56l-5.61,1.38
				c-0.49,2-1.25,3.96-2.28,5.8l3.17,4.83l-6.64,6.88l-4.94-3c-1.81,1.09-3.73,1.92-5.72,2.48l-1.18,5.66l-9.56,0.17l-1.38-5.61
				c-2-0.49-3.96-1.25-5.8-2.28l-4.83,3.17l-6.88-6.64l3-4.94c-1.09-1.81-1.92-3.73-2.48-5.72l-5.66-1.18l-0.17-9.56l5.61-1.38
				c0.49-2,1.25-3.96,2.28-5.8l-3.17-4.83l6.64-6.88L612.06,271.23L612.06,271.23z M617.16,283.97c-3.94,4.08-3.82,10.57,0.26,14.51
				c4.08,3.94,10.57,3.82,14.51-0.26c3.93-4.08,3.82-10.57-0.26-14.51C627.59,279.78,621.09,279.9,617.16,283.97z"/>
		</g>
	</g>
	<g>
		<g>
			<g>
				<path style="fill:#EBEBEB;" d="M309.15,274.67c3.15-1.9,6.51-3.35,9.97-4.33l2.05-9.87l16.67-0.29l2.4,9.79
					c3.49,0.86,6.9,2.19,10.11,3.98l8.42-5.52L370.76,280l-5.22,8.61c1.91,3.15,3.35,6.51,4.33,9.97l9.86,2.05l0.29,16.67l-9.79,2.4
					c-0.86,3.49-2.19,6.9-3.98,10.11l5.52,8.42l-11.58,11.99l-8.61-5.22c-3.15,1.9-6.51,3.35-9.97,4.33l-2.05,9.87l-16.67,0.29
					l-2.4-9.79c-3.49-0.86-6.9-2.19-10.11-3.98l-8.42,5.52l-11.99-11.58l5.22-8.61c-1.9-3.15-3.35-6.51-4.33-9.97l-9.86-2.05
					l-0.29-16.67l9.79-2.4c0.86-3.49,2.19-6.9,3.98-10.11l-5.52-8.42l11.58-11.99L309.15,274.67L309.15,274.67z M318.03,296.87
					c-6.86,7.11-6.66,18.43,0.44,25.29c7.11,6.86,18.43,6.66,25.29-0.44c6.86-7.11,6.66-18.43-0.44-25.29
					C336.21,289.57,324.89,289.77,318.03,296.87z"/>
			</g>
		</g>
	</g>
	<g>
		<g>
			<path style="fill:#F5F5F5;" d="M414.1,176.81c1.53-0.93,3.17-1.63,4.85-2.11l1-4.8l8.11-0.14l1.17,4.76
				c1.7,0.42,3.36,1.06,4.92,1.94l4.1-2.69l5.84,5.63l-2.54,4.19c0.93,1.53,1.63,3.17,2.11,4.85l4.8,1l0.14,8.11l-4.76,1.17
				c-0.42,1.7-1.06,3.36-1.94,4.92l2.69,4.1l-5.63,5.84l-4.19-2.54c-1.53,0.93-3.17,1.63-4.85,2.11l-1,4.8l-8.11,0.14l-1.17-4.76
				c-1.7-0.42-3.36-1.06-4.92-1.94l-4.1,2.69l-5.84-5.63l2.54-4.19c-0.93-1.53-1.63-3.17-2.11-4.85l-4.8-1l-0.14-8.11l4.76-1.17
				c0.42-1.7,1.06-3.36,1.94-4.92l-2.69-4.1l5.63-5.84L414.1,176.81L414.1,176.81z M418.42,187.62c-3.34,3.46-3.24,8.97,0.22,12.3
				c3.46,3.34,8.97,3.24,12.3-0.22c3.34-3.46,3.24-8.97-0.22-12.3C427.27,184.06,421.76,184.16,418.42,187.62z"/>
		</g>
	</g>
	<g>
		<g>
			<path style="fill:#EBEBEB;" d="M463.95,199.52c2.69-1.62,5.55-2.86,8.5-3.69l1.75-8.42l14.22-0.25l2.05,8.35
				c2.98,0.73,5.88,1.86,8.63,3.39l7.19-4.71l10.23,9.88l-4.45,7.35c1.63,2.69,2.86,5.55,3.69,8.5l8.41,1.75l0.25,14.22l-8.35,2.05
				c-0.73,2.98-1.86,5.88-3.39,8.63l4.71,7.19l-9.88,10.23l-7.35-4.45c-2.69,1.62-5.55,2.86-8.5,3.69l-1.75,8.42l-14.22,0.25
				l-2.05-8.35c-2.98-0.73-5.88-1.87-8.63-3.39l-7.19,4.71l-10.23-9.88l4.45-7.35c-1.62-2.69-2.86-5.55-3.7-8.5l-8.42-1.75
				l-0.25-14.22l8.35-2.05c0.73-2.98,1.87-5.88,3.39-8.63l-4.71-7.19l9.88-10.23L463.95,199.52L463.95,199.52z M471.53,218.47
				c-5.85,6.06-5.68,15.72,0.38,21.57c6.06,5.85,15.72,5.68,21.57-0.38c5.85-6.06,5.68-15.72-0.38-21.57
				C487.04,212.23,477.38,212.4,471.53,218.47z"/>
		</g>
	</g>
	<g>
		<g>
			<path style="fill:#EBEBEB;" d="M470.88,126.75c1.34-0.81,2.78-1.43,4.25-1.85l0.88-4.21l7.11-0.12l1.02,4.17
				c1.49,0.37,2.94,0.93,4.31,1.7l3.59-2.36l5.12,4.94l-2.23,3.67c0.81,1.34,1.43,2.78,1.85,4.25l4.21,0.88l0.12,7.11l-4.17,1.02
				c-0.37,1.49-0.93,2.94-1.7,4.31l2.35,3.59l-4.94,5.12l-3.67-2.23c-1.34,0.81-2.78,1.43-4.25,1.85l-0.88,4.21l-7.11,0.12
				l-1.02-4.17c-1.49-0.37-2.94-0.93-4.31-1.7l-3.59,2.36l-5.12-4.94l2.23-3.67c-0.81-1.34-1.43-2.78-1.85-4.25l-4.21-0.88
				l-0.12-7.11l4.17-1.02c0.37-1.49,0.93-2.94,1.7-4.31l-2.36-3.59l4.94-5.12L470.88,126.75L470.88,126.75z M474.67,136.22
				c-2.93,3.03-2.84,7.86,0.19,10.79c3.03,2.93,7.86,2.84,10.79-0.19c2.93-3.03,2.84-7.86-0.19-10.79
				C482.42,133.11,477.59,133.19,474.67,136.22z"/>
		</g>
	</g>
</g>
<g id="Background_Simple" style="display:none;">
	<g style="display:inline;">
		<path style="fill:#EBEBEB;" d="M44.74,192.32l1.42,1.61c11.95,13.56,30.27,19.74,47.66,15.48c2.24-0.55,4.43-1.26,6.57-2.13
			c15.38-6.28,27.13-20.87,30.13-37.39c1.76-9.72,0.83-20.37,5.98-28.75c6.69-10.91,20.87-13.75,33.44-15.59
			c12.57-1.85,26.75-4.72,33.4-15.66c4.16-6.85,4.32-15.56,2.48-23.41c-4.87-20.78-22.84-36.92-43.1-42.92s-42.29-2.92-61.91,4.82
			c-27.47,10.84-51.76,31.47-63.69,58.75S27,168.35,44.74,192.32z"/>
	</g>
	<g style="display:inline;">
		<path style="fill:#EBEBEB;" d="M705.73,343.03l-0.86-1.41c-7.23-11.91-20.3-19.1-34.08-18.22c-1.77,0.11-3.54,0.35-5.28,0.72
			c-12.53,2.68-23.43,12.16-27.95,24.29c-2.66,7.14-3.4,15.35-8.44,21.02c-6.56,7.37-17.71,7.6-27.51,7.3
			c-9.8-0.31-20.95-0.04-27.48,7.36c-4.09,4.64-5.39,11.23-5.06,17.44c0.87,16.44,12.33,31.13,26.89,38.44
			c14.57,7.3,31.72,7.96,47.66,4.75c22.33-4.5,43.57-16.86,56.33-35.96C712.71,389.66,715.94,363.64,705.73,343.03z"/>
	</g>
	<g style="display:inline;">
		<path style="fill:#EBEBEB;" d="M568.5,56.3l-0.64,1.22c-5.4,10.27-4.91,22.67,1.62,32.13c0.84,1.22,1.77,2.37,2.78,3.45
			c7.29,7.79,18.72,11.5,29.32,9.51c6.23-1.17,12.41-4.16,18.61-3c8.07,1.52,13.02,9.37,17.01,16.49
			c3.99,7.12,8.96,14.96,17.04,16.44c5.06,0.93,10.32-0.97,14.61-3.87C680.2,121,685.77,106.53,684.73,93
			c-1.04-13.52-7.93-26.03-17.06-36.03c-12.79-14-30.72-23.84-49.81-24.75C598.76,31.31,578.82,40.17,568.5,56.3z"/>
	</g>
	<g style="display:inline;">
		
			<ellipse transform="matrix(0.9087 -0.4173 0.4173 0.9087 -109.8997 56.9818)" style="fill:#EBEBEB;" cx="75.36" cy="279.81" rx="28.19" ry="28.19"/>
	</g>
	<g style="display:inline;">
		
			<ellipse transform="matrix(0.5847 -0.8112 0.8112 0.5847 139.7651 634.5875)" style="fill:#EBEBEB;" cx="689.69" cy="180.78" rx="28.19" ry="28.19"/>
	</g>
	<g style="display:inline;">
		<circle style="fill:#EBEBEB;" cx="275.9" cy="442.73" r="16.42"/>
	</g>
</g>
<g id="Gears">
	<g>
		<g>
			<g>
				<g>
					<path style="fill:#E9A84E;" d="M385.9,231.55c3.47-2.1,7.16-3.68,10.97-4.77l2.26-10.86l18.34-0.32l2.64,10.77
						c3.84,0.95,7.59,2.41,11.13,4.38l9.27-6.08l13.2,12.74l-5.75,9.48c2.1,3.47,3.68,7.16,4.77,10.97l10.85,2.26l0.32,18.34
						l-10.77,2.64c-0.95,3.84-2.41,7.59-4.38,11.13l6.07,9.27l-12.74,13.2l-9.48-5.75c-3.47,2.1-7.16,3.68-10.97,4.77l-2.26,10.86
						l-18.34,0.32l-2.64-10.77c-3.84-0.95-7.59-2.41-11.13-4.38l-9.27,6.08l-13.2-12.74l5.75-9.48c-2.1-3.47-3.69-7.16-4.77-10.97
						l-10.85-2.26l-0.32-18.34l10.77-2.64c0.95-3.84,2.41-7.59,4.38-11.13l-6.08-9.27l12.74-13.2L385.9,231.55L385.9,231.55z"/>
				</g>
			</g>
		</g>
		<g>
			<g>
				<rect x="387.65" y="252.83" style="fill:#FFFFFF;" width="10.08" height="31.47"/>
			</g>
			<g>
				<rect x="402.7" y="260.02" style="fill:#FFFFFF;" width="10.08" height="24.28"/>
			</g>
			<g>
				<rect x="416.62" y="269.88" style="fill:#FFFFFF;" width="10.08" height="14.42"/>
			</g>
		</g>
	</g>
	<g>
		<g>
			<g>
				<g>
					<path style="fill:#E9A84E;" d="M234.86,229.32c3.47-2.1,7.16-3.68,10.97-4.77l2.26-10.86l18.34-0.32l2.64,10.77
						c3.84,0.95,7.59,2.41,11.13,4.38l9.27-6.08l13.2,12.74l-5.75,9.48c2.1,3.47,3.68,7.16,4.77,10.97l10.85,2.26l0.32,18.34
						l-10.77,2.64c-0.95,3.84-2.41,7.59-4.38,11.13l6.07,9.27l-12.74,13.2l-9.48-5.75c-3.47,2.1-7.16,3.68-10.97,4.77l-2.26,10.86
						L250,322.67l-2.64-10.77c-3.84-0.95-7.59-2.41-11.13-4.38l-9.27,6.08l-13.2-12.74l5.75-9.48c-2.1-3.47-3.69-7.16-4.77-10.97
						l-10.85-2.26l-0.32-18.34l10.77-2.64c0.95-3.84,2.41-7.59,4.38-11.13l-6.08-9.27l12.74-13.2L234.86,229.32L234.86,229.32z"/>
				</g>
			</g>
		</g>
		<g>
			<g>
				<g>
					<g>
						<path style="fill:#FFFFFF;" d="M261.13,298.76c-13.68,0-25.97-9.15-29.87-22.25c-0.08-0.26,0.07-0.54,0.34-0.62
							c0.26-0.08,0.54,0.07,0.62,0.34c3.78,12.68,15.67,21.53,28.91,21.53c16.64,0,30.17-13.53,30.17-30.17
							c0-16.64-13.53-30.17-30.17-30.17c-13.9,0-25.95,9.41-29.29,22.89c-0.07,0.27-0.34,0.43-0.61,0.37
							c-0.27-0.07-0.43-0.34-0.37-0.61c3.45-13.92,15.89-23.65,30.26-23.65c17.19,0,31.17,13.98,31.17,31.17
							C292.3,284.77,278.31,298.76,261.13,298.76z"/>
					</g>
				</g>
				<g>
					<g>
						<path style="fill:#FFFFFF;" d="M260.96,289.24c-9.67,0-18.25-6.51-20.86-15.82c-0.07-0.27,0.08-0.54,0.35-0.62
							c0.26-0.07,0.54,0.08,0.62,0.35c2.49,8.88,10.67,15.09,19.9,15.09c11.39,0,20.66-9.27,20.66-20.66
							c0-11.39-9.27-20.66-20.66-20.66c-9.22,0-17.4,6.2-19.89,15.08c-0.07,0.27-0.35,0.42-0.62,0.35
							c-0.27-0.07-0.42-0.35-0.35-0.62c2.61-9.31,11.19-15.82,20.86-15.82c11.94,0,21.66,9.72,21.66,21.66
							C282.61,279.53,272.9,289.24,260.96,289.24z"/>
					</g>
				</g>
				<g>
					<g>
						<path style="fill:#FFFFFF;" d="M260.96,272.44c-1.11,0-2.18-0.33-3.09-0.95c-0.23-0.15-0.29-0.46-0.13-0.69
							c0.15-0.23,0.47-0.29,0.69-0.13c0.75,0.51,1.63,0.77,2.53,0.77c2.5,0,4.53-2.03,4.53-4.53c0-2.5-2.03-4.53-4.53-4.53
							c-0.75,0-1.49,0.19-2.14,0.54c-0.24,0.13-0.55,0.04-0.68-0.2c-0.13-0.24-0.04-0.55,0.2-0.68c0.8-0.43,1.7-0.66,2.62-0.66
							c3.05,0,5.53,2.48,5.53,5.53C266.49,269.96,264.01,272.44,260.96,272.44z"/>
					</g>
				</g>
				<g>
					<g>
						<g>
							<polygon style="fill:#FFFFFF;" points="261.13,266.72 253.05,262.79 253.2,266.29 231.73,266.8 231.97,268.37 253.47,268.02 
								253.53,271.58 							"/>
						</g>
					</g>
					<g>
						<g>
							<path style="fill:#FFFFFF;" d="M237.64,267.32l-0.12-0.23c-0.57-1.11-1.7-1.83-2.96-1.88l-7.1-0.27l3.08,2.79l-2.73,3.37
								l6.8-0.14c1.53-0.03,2.86-1.07,3.28-2.54l0,0L237.64,267.32z"/>
						</g>
					</g>
				</g>
			</g>
			<g>
				<path style="fill:#FFFFFF;" d="M261.13,280.66c-5.77,0-10.93-3.87-12.55-9.41c-0.08-0.26,0.07-0.54,0.34-0.62
					c0.27-0.08,0.54,0.07,0.62,0.34c1.49,5.12,6.26,8.69,11.59,8.69c6.66,0,12.07-5.42,12.07-12.07c0-6.66-5.42-12.07-12.07-12.07
					c-5.28,0-10.03,3.53-11.56,8.59c-0.08,0.26-0.36,0.42-0.62,0.33c-0.26-0.08-0.41-0.36-0.33-0.62c1.65-5.47,6.8-9.3,12.52-9.3
					c7.21,0,13.07,5.86,13.07,13.07C274.2,274.79,268.33,280.66,261.13,280.66z"/>
			</g>
		</g>
	</g>
	<g>
		<g>
			<g>
				<g>
					<path style="fill:#E9A84E;" d="M535.33,228.48c3.47-2.1,7.16-3.68,10.97-4.77l2.26-10.86l18.34-0.32l2.64,10.77
						c3.84,0.95,7.59,2.41,11.13,4.38l9.27-6.08l13.2,12.74l-5.75,9.48c2.1,3.47,3.68,7.16,4.77,10.97l10.85,2.26l0.32,18.34
						l-10.77,2.64c-0.95,3.84-2.41,7.59-4.38,11.13l6.07,9.27l-12.74,13.2l-9.48-5.75c-3.47,2.1-7.16,3.68-10.97,4.77l-2.26,10.86
						l-18.34,0.32l-2.64-10.77c-3.84-0.95-7.59-2.41-11.13-4.38l-9.27,6.08l-13.2-12.74l5.75-9.48c-2.1-3.47-3.69-7.16-4.77-10.97
						l-10.85-2.26l-0.32-18.34l10.77-2.64c0.95-3.84,2.41-7.59,4.38-11.13l-6.08-9.27l12.74-13.2L535.33,228.48L535.33,228.48z"/>
				</g>
			</g>
		</g>
		<g>
			<g>
				<g>
					<g>
						<g>
							<polygon style="fill:#FFFFFF;" points="531.82,268.76 538.85,261.73 552.4,273.78 579.01,248.18 585.54,255.21 551.4,287.34 
															"/>
						</g>
					</g>
				</g>
			</g>
		</g>
	</g>
	<g>
		<g>
			<path style="fill:#263238;" d="M350.17,234.2c-0.01,0,0.03-0.11,0.12-0.31c0.1-0.23,0.23-0.53,0.4-0.9
				c0.18-0.41,0.4-0.89,0.66-1.46c0.25-0.58,0.56-1.25,0.98-1.96c0.4-0.72,0.84-1.53,1.33-2.4c0.51-0.86,1.13-1.76,1.77-2.74
				c0.61-1,1.42-1.97,2.21-3.03c0.77-1.08,1.73-2.11,2.7-3.23c0.94-1.14,2.1-2.17,3.22-3.33c0.55-0.59,1.2-1.1,1.83-1.65
				c0.64-0.54,1.27-1.12,1.94-1.67c0.69-0.53,1.39-1.06,2.11-1.6c0.36-0.27,0.71-0.55,1.09-0.81c0.38-0.25,0.76-0.5,1.15-0.76
				c0.78-0.5,1.55-1.04,2.36-1.54c0.83-0.47,1.67-0.95,2.51-1.43c0.84-0.51,1.74-0.9,2.64-1.35c0.9-0.43,1.8-0.91,2.76-1.26
				c0.95-0.38,1.91-0.77,2.88-1.16c0.99-0.32,2-0.65,3.01-0.97c4.07-1.21,8.42-2.05,12.92-2.35c4.51-0.23,8.93,0.09,13.12,0.81
				c1.04,0.21,2.08,0.41,3.1,0.61c1.01,0.27,2.01,0.54,2.99,0.81c1,0.24,1.94,0.61,2.89,0.92c0.94,0.33,1.89,0.62,2.78,1.02
				c0.9,0.38,1.79,0.75,2.67,1.12c0.86,0.4,1.69,0.84,2.52,1.25c0.41,0.21,0.82,0.41,1.23,0.62c0.4,0.21,0.79,0.45,1.17,0.68
				c0.77,0.45,1.54,0.9,2.28,1.34c0.73,0.46,1.43,0.96,2.12,1.43c0.69,0.48,1.39,0.91,2.01,1.43c1.25,1.01,2.53,1.9,3.59,2.92
				c1.09,0.99,2.17,1.9,3.06,2.89c0.91,0.97,1.83,1.83,2.55,2.75c0.75,0.9,1.47,1.72,2.08,2.52c0.58,0.81,1.12,1.56,1.6,2.23
				c0.5,0.66,0.88,1.28,1.2,1.83c0.32,0.54,0.6,0.99,0.83,1.37c0.21,0.35,0.37,0.63,0.5,0.85c0.11,0.19,0.16,0.29,0.15,0.3
				c-0.01,0-0.08-0.09-0.2-0.27c-0.14-0.21-0.32-0.48-0.54-0.82c-0.24-0.37-0.53-0.82-0.87-1.34c-0.33-0.54-0.73-1.15-1.24-1.8
				c-0.49-0.66-1.04-1.39-1.63-2.19c-0.62-0.78-1.35-1.59-2.1-2.48c-0.73-0.91-1.65-1.76-2.57-2.71c-0.9-0.97-1.98-1.87-3.07-2.84
				c-1.07-1.01-2.34-1.88-3.59-2.88c-0.62-0.51-1.32-0.93-2.01-1.4c-0.69-0.46-1.39-0.95-2.12-1.4c-0.75-0.43-1.5-0.87-2.27-1.32
				c-0.39-0.22-0.77-0.46-1.17-0.67c-0.41-0.2-0.81-0.4-1.23-0.61c-0.83-0.4-1.65-0.84-2.51-1.23c-0.87-0.36-1.76-0.73-2.65-1.1
				c-0.88-0.4-1.83-0.68-2.76-1.01c-0.94-0.31-1.88-0.68-2.87-0.91c-0.98-0.26-1.97-0.53-2.97-0.79c-1.02-0.2-2.04-0.4-3.08-0.6
				c-4.15-0.71-8.53-1.02-13-0.79c-4.46,0.3-8.77,1.13-12.81,2.32c-1,0.32-2,0.64-2.98,0.96c-0.96,0.38-1.91,0.76-2.85,1.14
				c-0.95,0.35-1.84,0.82-2.74,1.24c-0.89,0.44-1.79,0.82-2.62,1.33c-0.84,0.48-1.68,0.95-2.5,1.41c-0.81,0.49-1.57,1.02-2.35,1.51
				c-0.38,0.25-0.77,0.5-1.14,0.75c-0.37,0.26-0.72,0.54-1.08,0.8c-0.71,0.54-1.41,1.06-2.1,1.58c-0.67,0.54-1.3,1.11-1.94,1.65
				c-0.62,0.55-1.27,1.05-1.83,1.63c-1.12,1.14-2.28,2.15-3.22,3.28c-0.97,1.1-1.93,2.12-2.71,3.19c-0.8,1.05-1.61,2-2.23,2.99
				c-0.64,0.97-1.27,1.86-1.8,2.71c-0.5,0.86-0.95,1.66-1.36,2.37c-0.43,0.7-0.75,1.36-1.02,1.93c-0.27,0.56-0.51,1.04-0.7,1.44
				c-0.18,0.37-0.33,0.66-0.44,0.88C350.24,234.1,350.18,234.2,350.17,234.2z"/>
		</g>
	</g>
	<g>
		<g>
			<path style="fill:#263238;" d="M370.87,201.13c-0.02-0.03,0.39-0.31,1.14-0.79c0.75-0.49,1.87-1.12,3.28-1.85
				c2.83-1.45,6.93-3.13,11.67-4.24c4.74-1.1,9.16-1.41,12.34-1.36c1.59,0.02,2.88,0.1,3.76,0.2c0.88,0.1,1.37,0.17,1.37,0.2
				c0,0.04-0.5,0.03-1.38,0c-0.88-0.04-2.17-0.06-3.74-0.04c-3.16,0.04-7.53,0.41-12.22,1.5c-4.69,1.1-8.77,2.7-11.62,4.06
				c-1.43,0.68-2.57,1.26-3.34,1.69C371.33,200.94,370.89,201.16,370.87,201.13z"/>
		</g>
	</g>
	<g>
		<g>
			<path style="fill:#263238;" d="M611.2,302.81c0.01,0-0.03,0.11-0.12,0.31c-0.1,0.23-0.23,0.53-0.4,0.9
				c-0.18,0.41-0.4,0.89-0.66,1.46c-0.25,0.58-0.56,1.25-0.98,1.96c-0.4,0.72-0.84,1.53-1.33,2.4c-0.51,0.86-1.13,1.76-1.77,2.74
				c-0.61,1-1.42,1.97-2.21,3.03c-0.77,1.08-1.73,2.11-2.7,3.23c-0.94,1.14-2.1,2.17-3.22,3.33c-0.55,0.59-1.2,1.1-1.83,1.65
				c-0.64,0.54-1.27,1.12-1.94,1.67c-0.69,0.53-1.39,1.06-2.11,1.6c-0.36,0.27-0.71,0.55-1.09,0.81c-0.38,0.25-0.76,0.5-1.15,0.76
				c-0.78,0.5-1.55,1.04-2.36,1.54c-0.83,0.47-1.67,0.95-2.51,1.43c-0.84,0.51-1.74,0.9-2.64,1.35c-0.9,0.43-1.8,0.91-2.76,1.26
				c-0.95,0.38-1.91,0.77-2.88,1.16c-0.99,0.32-2,0.65-3.01,0.97c-4.07,1.21-8.42,2.05-12.92,2.35c-4.51,0.23-8.93-0.09-13.12-0.81
				c-1.04-0.21-2.08-0.41-3.1-0.61c-1.01-0.27-2.01-0.54-2.99-0.81c-1-0.24-1.94-0.61-2.89-0.92c-0.94-0.33-1.89-0.62-2.78-1.02
				c-0.9-0.38-1.79-0.75-2.67-1.12c-0.86-0.4-1.69-0.84-2.52-1.25c-0.41-0.21-0.82-0.41-1.23-0.62c-0.4-0.21-0.79-0.45-1.17-0.68
				c-0.77-0.45-1.54-0.9-2.28-1.34c-0.73-0.46-1.43-0.96-2.12-1.43c-0.69-0.48-1.39-0.91-2.01-1.43c-1.25-1.01-2.53-1.9-3.59-2.92
				c-1.09-0.99-2.17-1.9-3.06-2.89c-0.91-0.97-1.83-1.83-2.55-2.75c-0.75-0.9-1.47-1.72-2.08-2.52c-0.58-0.81-1.12-1.56-1.6-2.23
				c-0.5-0.66-0.88-1.28-1.2-1.83c-0.32-0.54-0.6-0.99-0.83-1.37c-0.21-0.35-0.37-0.63-0.5-0.85c-0.11-0.19-0.16-0.29-0.15-0.3
				c0.01,0,0.08,0.09,0.2,0.27c0.14,0.21,0.32,0.48,0.54,0.82c0.24,0.37,0.53,0.82,0.87,1.34c0.33,0.54,0.73,1.15,1.24,1.8
				c0.49,0.66,1.04,1.39,1.63,2.19c0.62,0.78,1.35,1.59,2.1,2.48c0.73,0.91,1.65,1.76,2.57,2.71c0.9,0.97,1.98,1.87,3.07,2.84
				c1.07,1.01,2.34,1.88,3.59,2.88c0.62,0.51,1.32,0.93,2.01,1.4c0.69,0.46,1.39,0.95,2.12,1.4c0.75,0.43,1.5,0.87,2.27,1.32
				c0.39,0.22,0.77,0.46,1.17,0.67c0.41,0.2,0.81,0.4,1.23,0.61c0.83,0.4,1.65,0.84,2.51,1.23c0.87,0.36,1.76,0.73,2.65,1.1
				c0.88,0.4,1.83,0.68,2.76,1.01c0.94,0.31,1.88,0.68,2.87,0.91c0.98,0.26,1.97,0.53,2.97,0.79c1.02,0.2,2.04,0.4,3.08,0.6
				c4.15,0.71,8.53,1.02,13,0.79c4.46-0.3,8.77-1.13,12.81-2.32c1-0.32,2-0.64,2.98-0.96c0.96-0.38,1.91-0.76,2.85-1.14
				c0.95-0.35,1.84-0.82,2.74-1.24c0.89-0.44,1.79-0.82,2.62-1.33c0.84-0.48,1.68-0.95,2.5-1.41c0.81-0.49,1.57-1.02,2.35-1.51
				c0.38-0.25,0.77-0.5,1.14-0.75c0.37-0.26,0.72-0.54,1.08-0.8c0.71-0.54,1.41-1.06,2.1-1.58c0.67-0.54,1.3-1.11,1.94-1.65
				c0.62-0.55,1.27-1.05,1.83-1.63c1.12-1.14,2.28-2.15,3.22-3.28c0.97-1.1,1.93-2.11,2.71-3.19c0.8-1.05,1.61-2,2.23-2.99
				c0.64-0.97,1.27-1.86,1.8-2.71c0.5-0.86,0.95-1.66,1.36-2.37c0.43-0.7,0.75-1.36,1.02-1.93c0.27-0.56,0.51-1.04,0.7-1.44
				c0.18-0.37,0.33-0.66,0.44-0.88C611.14,302.91,611.2,302.81,611.2,302.81z"/>
		</g>
	</g>
	<g>
		<g>
			<path style="fill:#263238;" d="M590.91,338.92c0.02,0.03-0.39,0.31-1.14,0.79c-0.75,0.49-1.87,1.12-3.28,1.85
				c-2.83,1.45-6.93,3.13-11.67,4.24c-4.74,1.1-9.16,1.41-12.34,1.36c-1.59-0.02-2.88-0.1-3.76-0.2c-0.88-0.1-1.37-0.17-1.37-0.2
				s0.5-0.03,1.38,0c0.88,0.04,2.17,0.06,3.74,0.04c3.16-0.04,7.53-0.41,12.22-1.5c4.69-1.1,8.77-2.7,11.62-4.06
				c1.43-0.68,2.57-1.26,3.34-1.69C590.45,339.11,590.89,338.89,590.91,338.92z"/>
		</g>
	</g>
	<g>
		<g>
			<path style="fill:#263238;" d="M311.98,300.59c0.01,0-0.03,0.11-0.12,0.31c-0.1,0.23-0.23,0.53-0.4,0.9
				c-0.18,0.41-0.4,0.89-0.66,1.46c-0.25,0.58-0.56,1.25-0.98,1.96c-0.4,0.72-0.84,1.53-1.33,2.4c-0.51,0.86-1.13,1.76-1.77,2.74
				c-0.61,1-1.42,1.97-2.21,3.03c-0.77,1.08-1.73,2.11-2.7,3.23c-0.94,1.14-2.1,2.17-3.22,3.33c-0.55,0.59-1.2,1.1-1.83,1.65
				c-0.64,0.54-1.27,1.12-1.94,1.67c-0.69,0.53-1.39,1.06-2.11,1.6c-0.36,0.27-0.71,0.55-1.09,0.81c-0.38,0.25-0.76,0.5-1.15,0.76
				c-0.78,0.5-1.55,1.04-2.36,1.54c-0.83,0.47-1.67,0.95-2.51,1.43c-0.84,0.51-1.74,0.9-2.64,1.35c-0.9,0.43-1.8,0.91-2.76,1.26
				c-0.95,0.38-1.91,0.77-2.88,1.16c-0.99,0.32-2,0.65-3.01,0.97c-4.07,1.21-8.42,2.05-12.92,2.35c-4.51,0.23-8.93-0.09-13.12-0.81
				c-1.04-0.21-2.08-0.41-3.1-0.61c-1.01-0.27-2.01-0.54-2.99-0.81c-1-0.24-1.94-0.61-2.89-0.92c-0.94-0.33-1.89-0.62-2.78-1.02
				c-0.9-0.38-1.79-0.75-2.67-1.12c-0.86-0.4-1.69-0.84-2.52-1.25c-0.41-0.21-0.82-0.41-1.23-0.62c-0.4-0.21-0.79-0.45-1.17-0.68
				c-0.77-0.45-1.54-0.9-2.28-1.34c-0.73-0.46-1.43-0.96-2.12-1.43c-0.69-0.48-1.39-0.91-2.01-1.43c-1.25-1.01-2.53-1.9-3.59-2.92
				c-1.09-0.99-2.17-1.9-3.06-2.89c-0.91-0.97-1.83-1.83-2.55-2.75c-0.75-0.9-1.47-1.72-2.08-2.52c-0.58-0.81-1.12-1.56-1.6-2.23
				c-0.5-0.66-0.88-1.28-1.2-1.83c-0.32-0.54-0.6-0.99-0.83-1.37c-0.21-0.35-0.37-0.63-0.5-0.85c-0.11-0.19-0.16-0.29-0.15-0.3
				c0.01,0,0.08,0.09,0.2,0.27c0.14,0.21,0.32,0.48,0.54,0.82c0.24,0.37,0.53,0.82,0.87,1.34c0.33,0.54,0.73,1.15,1.24,1.8
				c0.49,0.66,1.04,1.39,1.63,2.19c0.62,0.78,1.35,1.59,2.1,2.48c0.73,0.91,1.65,1.76,2.57,2.71c0.9,0.97,1.98,1.87,3.07,2.84
				c1.07,1.01,2.34,1.88,3.59,2.88c0.62,0.51,1.32,0.93,2.01,1.4c0.69,0.46,1.39,0.95,2.12,1.4c0.75,0.43,1.5,0.87,2.27,1.32
				c0.39,0.22,0.77,0.46,1.17,0.67c0.41,0.2,0.81,0.4,1.23,0.61c0.83,0.4,1.65,0.84,2.51,1.23c0.87,0.36,1.76,0.73,2.65,1.1
				c0.88,0.4,1.83,0.68,2.76,1.01c0.94,0.31,1.88,0.68,2.87,0.91c0.98,0.26,1.97,0.53,2.97,0.79c1.02,0.2,2.04,0.4,3.08,0.6
				c4.15,0.71,8.53,1.02,13,0.79c4.46-0.3,8.77-1.13,12.81-2.32c1-0.32,2-0.64,2.98-0.96c0.96-0.38,1.91-0.76,2.85-1.14
				c0.95-0.35,1.84-0.82,2.74-1.24c0.89-0.44,1.79-0.82,2.62-1.33c0.84-0.48,1.68-0.95,2.5-1.41c0.81-0.49,1.57-1.02,2.35-1.51
				c0.38-0.25,0.77-0.5,1.14-0.75c0.37-0.26,0.72-0.54,1.08-0.8c0.71-0.53,1.41-1.06,2.1-1.58c0.67-0.54,1.3-1.11,1.94-1.65
				c0.62-0.55,1.27-1.05,1.83-1.63c1.12-1.14,2.28-2.15,3.22-3.28c0.97-1.1,1.93-2.12,2.71-3.19c0.8-1.05,1.61-2,2.23-2.99
				c0.64-0.97,1.27-1.86,1.8-2.71c0.5-0.86,0.95-1.66,1.36-2.37c0.43-0.7,0.75-1.36,1.02-1.93c0.27-0.56,0.51-1.04,0.7-1.44
				c0.18-0.37,0.33-0.66,0.44-0.88C311.91,300.68,311.97,300.58,311.98,300.59z"/>
		</g>
	</g>
	<g>
		<g>
			<path style="fill:#263238;" d="M291.68,336.7c0.02,0.03-0.39,0.31-1.14,0.79c-0.75,0.49-1.87,1.12-3.28,1.85
				c-2.83,1.45-6.93,3.13-11.67,4.24c-4.74,1.1-9.16,1.41-12.34,1.36c-1.59-0.02-2.88-0.1-3.76-0.2c-0.88-0.1-1.37-0.17-1.37-0.2
				c0-0.04,0.5-0.03,1.38,0c0.88,0.04,2.17,0.06,3.74,0.04c3.16-0.04,7.53-0.41,12.22-1.5c4.69-1.1,8.77-2.7,11.62-4.06
				c1.43-0.68,2.57-1.26,3.34-1.69C291.22,336.88,291.67,336.67,291.68,336.7z"/>
		</g>
	</g>
</g>
<g id="Process">
	<g>
		<g>
			<g>
				<path style="fill:#FAFAFA;" d="M525.01,178.69H323.32c-9.42,0-17.06-7.64-17.06-17.06l0,0c0-9.42,7.64-17.06,17.06-17.06h201.69
					c9.42,0,17.06,7.64,17.06,17.06l0,0C542.07,171.06,534.43,178.69,525.01,178.69z"/>
			</g>
			<g>
				<g>
					<path style="fill:#263238;" d="M525.01,178.69c0,0,0.45-0.04,1.31-0.09c0.87-0.06,2.15-0.26,3.78-0.74
						c1.61-0.53,3.55-1.41,5.49-2.96c1.95-1.52,3.81-3.8,5.08-6.75c0.6-1.49,1.02-3.14,1.21-4.91c0.16-1.77,0.03-3.66-0.41-5.56
						c-0.88-3.78-3.29-7.64-7.11-10.14c-1.9-1.25-4.12-2.16-6.52-2.56c-2.39-0.39-4.94-0.2-7.54-0.25
						c-5.2,0.01-10.7,0.01-16.48,0.02c-46.2,0.02-110.01,0.05-180.49,0.08c-4.35-0.01-8.63,1.74-11.7,4.74
						c-3.09,2.97-4.94,7.14-5.08,11.37c-0.19,4.23,1.29,8.46,4.01,11.61c2.7,3.17,6.58,5.27,10.65,5.74
						c2.02,0.23,4.11,0.12,6.17,0.15c2.06,0,4.11,0,6.15,0c4.08,0,8.12,0,12.11,0c7.99,0,15.82,0.01,23.46,0.01
						c30.54,0.02,58.04,0.04,81.14,0.06c23.09,0.03,41.78,0.06,54.7,0.08c6.45,0.02,11.46,0.04,14.87,0.05
						c1.69,0.01,2.99,0.02,3.87,0.03C524.56,178.68,525.01,178.69,525.01,178.69s-0.45,0.02-1.32,0.03
						c-0.88,0.01-2.17,0.01-3.87,0.03c-3.41,0.01-8.42,0.03-14.87,0.05c-12.93,0.02-31.61,0.05-54.7,0.08
						c-23.1,0.02-50.6,0.03-81.14,0.06c-7.64,0-15.46,0.01-23.46,0.01c-4,0-8.04,0-12.11,0c-2.04,0-4.09,0-6.15,0
						c-2.06-0.03-4.12,0.08-6.23-0.15c-4.2-0.48-8.2-2.64-10.98-5.91c-2.81-3.25-4.33-7.61-4.14-11.97
						c0.15-4.36,2.05-8.66,5.24-11.72c3.16-3.09,7.58-4.9,12.06-4.89c70.48,0.03,134.29,0.06,180.49,0.08
						c5.77,0.01,11.27,0.01,16.48,0.02c2.6,0.05,5.14-0.14,7.59,0.27c2.44,0.41,4.7,1.34,6.63,2.62c3.88,2.56,6.31,6.49,7.19,10.33
						c0.45,1.93,0.56,3.84,0.4,5.64c-0.2,1.79-0.63,3.47-1.25,4.97c-1.3,2.98-3.19,5.27-5.17,6.8c-1.97,1.55-3.93,2.42-5.55,2.94
						c-1.64,0.46-2.94,0.65-3.81,0.69C525.46,178.69,525.01,178.69,525.01,178.69z"/>
				</g>
			</g>
		</g>
		<g>
			<path style="fill:#E9A84E;" d="M436.05,174.64H323.42c-7.18,0-13.01-5.82-13.01-13.01l0,0c0-7.18,5.82-13.01,13.01-13.01h112.63
				c7.18,0,13.01,5.82,13.01,13.01l0,0C449.05,168.82,443.23,174.64,436.05,174.64z"/>
		</g>
		<g style="opacity:0.4;">
			<polygon style="fill:#FFFFFF;" points="327.18,174.64 343.34,148.63 360.66,148.63 344.83,174.64 			"/>
		</g>
		<g style="opacity:0.4;">
			<polygon style="fill:#FFFFFF;" points="361.9,174.64 378.07,148.63 395.38,148.63 379.55,174.64 			"/>
		</g>
		<g style="opacity:0.4;">
			<polygon style="fill:#FFFFFF;" points="399.18,174.64 415.34,148.63 432.66,148.63 416.82,174.64 			"/>
		</g>
		<g>
			<path style="fill:#263238;" d="M397.68,133.68c0,1.97-1.48,3.2-3.85,3.2h-1.78v2.44H390v-8.85h3.83
				C396.2,130.47,397.68,131.7,397.68,133.68z M395.6,133.68c0-0.97-0.63-1.54-1.88-1.54h-1.67v3.07h1.67
				C394.97,135.21,395.6,134.65,395.6,133.68z"/>
			<path style="fill:#263238;" d="M404.77,139.33l-1.71-2.47h-0.1h-1.78v2.47h-2.05v-8.85h3.83c2.37,0,3.85,1.23,3.85,3.21
				c0,1.33-0.67,2.3-1.82,2.8l1.99,2.85H404.77z M402.85,132.14h-1.67v3.09h1.67c1.25,0,1.88-0.58,1.88-1.54
				C404.73,132.71,404.1,132.14,402.85,132.14z"/>
			<path style="fill:#263238;" d="M407.87,134.9c0-2.63,2.05-4.58,4.84-4.58c2.78,0,4.84,1.93,4.84,4.58c0,2.64-2.06,4.58-4.84,4.58
				C409.92,139.48,407.87,137.53,407.87,134.9z M415.48,134.9c0-1.68-1.19-2.83-2.77-2.83c-1.58,0-2.77,1.15-2.77,2.83
				c0,1.68,1.19,2.83,2.77,2.83C414.3,137.73,415.48,136.58,415.48,134.9z"/>
			<path style="fill:#263238;" d="M418.54,134.9c0-2.67,2.05-4.58,4.81-4.58c1.53,0,2.81,0.56,3.64,1.57l-1.32,1.21
				c-0.59-0.68-1.34-1.04-2.23-1.04c-1.66,0-2.83,1.16-2.83,2.83c0,1.67,1.18,2.83,2.83,2.83c0.89,0,1.63-0.35,2.23-1.05l1.32,1.21
				c-0.84,1.02-2.11,1.58-3.66,1.58C420.59,139.48,418.54,137.57,418.54,134.9z"/>
			<path style="fill:#263238;" d="M435.23,137.68v1.64h-6.86v-8.85h6.69v1.64h-4.65v1.92h4.11v1.59h-4.11v2.05H435.23z"/>
			<path style="fill:#263238;" d="M436.16,138.45l0.7-1.54c0.75,0.54,1.86,0.92,2.92,0.92c1.21,0,1.71-0.4,1.71-0.95
				c0-1.66-5.15-0.52-5.15-3.81c0-1.51,1.21-2.76,3.73-2.76c1.11,0,2.25,0.27,3.07,0.78l-0.63,1.56c-0.82-0.47-1.67-0.7-2.45-0.7
				c-1.21,0-1.68,0.46-1.68,1.01c0,1.63,5.15,0.51,5.15,3.76c0,1.48-1.23,2.75-3.76,2.75C438.36,139.48,436.95,139.06,436.16,138.45
				z"/>
			<path style="fill:#263238;" d="M444.23,138.45l0.7-1.54c0.75,0.54,1.86,0.92,2.92,0.92c1.21,0,1.71-0.4,1.71-0.95
				c0-1.66-5.15-0.52-5.15-3.81c0-1.51,1.21-2.76,3.73-2.76c1.11,0,2.25,0.27,3.07,0.78l-0.63,1.56c-0.82-0.47-1.67-0.7-2.45-0.7
				c-1.21,0-1.68,0.46-1.68,1.01c0,1.63,5.15,0.51,5.15,3.76c0,1.48-1.23,2.75-3.76,2.75C446.43,139.48,445.01,139.06,444.23,138.45
				z"/>
		</g>
	</g>
</g>
<g id="Floor">
	<g>
		<g>
			<path style="fill:#263238;" d="M689.69,471.81c0,0.14-140.9,0.26-314.68,0.26c-173.83,0-314.71-0.12-314.71-0.26
				c0-0.14,140.87-0.26,314.71-0.26C548.79,471.55,689.69,471.67,689.69,471.81z"/>
		</g>
	</g>
</g>
<g id="Character">
	<g>
		<g>
			<g>
				<path style="fill:#FFBE9D;" d="M75.36,447.28l9.8-20.98l22.89,13.12l-11.89,19.22c0,0-9.25,1.64-13.36-0.89
					C78.67,455.22,75.36,447.28,75.36,447.28z"/>
			</g>
		</g>
		<g>
			<g>
				<g>
					<path style="fill:#E9A84E;" d="M94.98,460.59l1.17-1.95c-8.34-1.53-15.26-5.35-20.8-11.36l-7.83,14.4l43.25,23.78
						C112.8,481.19,94.98,460.59,94.98,460.59z"/>
				</g>
			</g>
			<g>
				<g>
					<g>
						<g>
							<g>
								<g>
									<g>
										<g>
											<g>
												<g>
													<g>
														<g>
															<g>
																<path style="fill:#263238;" d="M67.53,461.68l1.91-3.52l40.83,24.17c0,0,1.46,1.9,0.5,3.13L67.53,461.68z"/>
															</g>
														</g>
													</g>
												</g>
											</g>
										</g>
									</g>
								</g>
							</g>
						</g>
					</g>
				</g>
			</g>
			<g>
				<g>
					<g>
						<g>
							<g>
								<g>
									<g>
										<g>
											<g>
												<g>
													<g>
														<g>
															<g>
																<g>
																	<path style="fill:#263238;" d="M95.81,460.76c-0.12,0.21-1.23-0.28-2.64-0.17c-1.42,0.07-2.45,0.69-2.6,0.5
																		c-0.17-0.15,0.84-1.24,2.55-1.34C94.82,459.64,95.96,460.59,95.81,460.76z"/>
																</g>
															</g>
														</g>
													</g>
												</g>
											</g>
										</g>
									</g>
								</g>
							</g>
						</g>
					</g>
				</g>
			</g>
			<g>
				<g>
					<g>
						<g>
							<g>
								<g>
									<g>
										<g>
											<g>
												<g>
													<g>
														<g>
															<g>
																<g>
																	<path style="fill:#263238;" d="M99.31,465.13c-0.06,0.23-1.18,0.09-2.38,0.59c-1.22,0.46-1.94,1.33-2.14,1.2
																		c-0.22-0.08,0.32-1.39,1.83-1.98C98.13,464.33,99.42,464.92,99.31,465.13z"/>
																</g>
															</g>
														</g>
													</g>
												</g>
											</g>
										</g>
									</g>
								</g>
							</g>
						</g>
					</g>
				</g>
			</g>
			<g>
				<g>
					<g>
						<g>
							<g>
								<g>
									<g>
										<g>
											<g>
												<g>
													<g>
														<g>
															<g>
																<g>
																	<path style="fill:#263238;" d="M98.9,471.97c-0.22-0.06,0.07-1.28,1.25-2.14c1.17-0.87,2.42-0.78,2.41-0.55
																		c0.02,0.24-0.96,0.51-1.92,1.23C99.67,471.21,99.12,472.07,98.9,471.97z"/>
																</g>
															</g>
														</g>
													</g>
												</g>
											</g>
										</g>
									</g>
								</g>
							</g>
						</g>
					</g>
				</g>
			</g>
		</g>
		<g>
			<g>
				<path style="fill:#263238;" d="M77.78,457.79c-0.36,0.62-1.15,0.84-1.77,0.48c-0.62-0.36-0.84-1.15-0.48-1.77
					c0.36-0.62,1.15-0.84,1.77-0.48C77.92,456.38,78.13,457.17,77.78,457.79z"/>
			</g>
		</g>
	</g>
	<g>
		<g>
			<g>
				<path style="fill:#FFBE9D;" d="M178.47,455.85l11.34-23.93l23.1,0.37l-11.84,23.29c0,0-7.64,5.92-12.59,5.59
					C183.52,460.83,178.47,455.85,178.47,455.85z"/>
			</g>
		</g>
		<g>
			<g>
				<g>
					<path style="fill:#E9A84E;" d="M200.94,457.91l0.13-2.34c-8.33,2.6-15.19,2.45-23.11-0.38l0,0c-0.85,1.46-1.3,3.11-1.33,4.79
						l-0.17,12.04l50.75,0.96C227.01,468.14,200.94,457.91,200.94,457.91z"/>
				</g>
			</g>
			<g>
				<g>
					<g>
						<g>
							<g>
								<g>
									<g>
										<g>
											<g>
												<g>
													<g>
														<g>
															<g>
																<path style="fill:#263238;" d="M176.47,472.04l0.06-4.12l48.74,2.46c0,0,2.24,1.03,1.96,2.61L176.47,472.04z"/>
															</g>
														</g>
													</g>
												</g>
											</g>
										</g>
									</g>
								</g>
							</g>
						</g>
					</g>
				</g>
			</g>
			<g>
				<g>
					<g>
						<g>
							<g>
								<g>
									<g>
										<g>
											<g>
												<g>
													<g>
														<g>
															<g>
																<g>
																	<path style="fill:#263238;" d="M201.77,457.67c-0.01,0.25-1.25,0.34-2.49,1.11c-1.25,0.74-1.9,1.8-2.13,1.7
																		c-0.23-0.05,0.17-1.53,1.68-2.44C200.33,457.12,201.83,457.44,201.77,457.67z"/>
																</g>
															</g>
														</g>
													</g>
												</g>
											</g>
										</g>
									</g>
								</g>
							</g>
						</g>
					</g>
				</g>
			</g>
			<g>
				<g>
					<g>
						<g>
							<g>
								<g>
									<g>
										<g>
											<g>
												<g>
													<g>
														<g>
															<g>
																<g>
																	<path style="fill:#263238;" d="M207.05,459.97c0.05,0.24-1.03,0.64-1.89,1.67c-0.89,1.01-1.13,2.14-1.37,2.12
																		c-0.23,0.03-0.38-1.42,0.72-2.68C205.59,459.81,207.05,459.74,207.05,459.97z"/>
																</g>
															</g>
														</g>
													</g>
												</g>
											</g>
										</g>
									</g>
								</g>
							</g>
						</g>
					</g>
				</g>
			</g>
			<g>
				<g>
					<g>
						<g>
							<g>
								<g>
									<g>
										<g>
											<g>
												<g>
													<g>
														<g>
															<g>
																<g>
																	<path style="fill:#263238;" d="M209.95,466.4c-0.23,0.05-0.55-1.2,0.11-2.54c0.65-1.35,1.83-1.86,1.93-1.66
																		c0.14,0.21-0.63,0.92-1.16,2.03C210.29,465.34,210.2,466.38,209.95,466.4z"/>
																</g>
															</g>
														</g>
													</g>
												</g>
											</g>
										</g>
									</g>
								</g>
							</g>
						</g>
					</g>
				</g>
			</g>
		</g>
		<g>
			<g>
				<path style="fill:#263238;" d="M183.94,463.59c-0.03,0.74-0.65,1.31-1.38,1.28c-0.74-0.03-1.31-0.64-1.28-1.38
					c0.03-0.74,0.65-1.31,1.38-1.28C183.39,462.24,183.96,462.86,183.94,463.59z"/>
			</g>
		</g>
	</g>
	<g>
		<g>
			<g>
				<g>
					<g>
						<path style="fill:#263238;" d="M311.25,138.01c3.96-0.66,7.41-3.83,8.38-7.74c0.11-0.44,0.22-0.93,0.58-1.19
							c0.31-0.23,0.73-0.23,1.12-0.24c2.12-0.08,4.25-0.96,5.64-2.58c1.39-1.62,1.94-3.98,1.2-5.97c3.26,0.39,6.29-2.78,6.29-6.07
							c0.01-3.29-2.51-6.25-5.6-7.35c1.75-0.99,2.37-3.35,1.83-5.28c-0.54-1.93-2-3.47-3.6-4.67c-2.16-1.61-5.14-2.75-7.49-1.42
							c0.6-1.54-0.38-3.27-1.64-4.34c-3.37-2.86-8.99-2.51-12.01,0.75c-0.78-1.51-1.81-2.97-3.32-3.73
							c-1.51-0.77-3.58-0.63-4.65,0.69c0.03-1.67-1.32-3.04-2.74-3.92c-1.03-0.63-2.19-1.13-3.4-1.06c-1.2,0.07-2.43,0.83-2.74,2
							c-1.58-1.71-4.5-1.94-6.34-0.51c-1.84,1.44-2.33,4.34-1.06,6.29c-2.03,0.1-3.98,1.32-4.96,3.11
							c-0.98,1.79-0.97,4.09,0.04,5.86c-0.94-0.37-2,0.63-2,1.64c0,1.02,0.74,1.89,1.57,2.47c-1.91,2.94-3.82,5.89-5.72,8.84
							c-1.23,1.9-2.48,3.84-3.06,6.03c-0.58,2.19-0.39,4.7,1.05,6.44"/>
					</g>
				</g>
			</g>
		</g>
		<g>
			<g>
				<g>
					<g>
						<g>
							<g>
								<g>
									<g>
										<g>
											<g>
												<g>
													<g>
														<g>
															<g>
																<g>
																	<g>
																		<path style="fill:#FFBE9D;" d="M316.7,129.48c4.24-7.37,1.33-19.47-6.18-23.37L284.9,95.36l-2.44,3.86
																			l-31.83,49.59l17.56,26.24l13.27-16.22c0,0,9.99,4.47,19.66-6.09C305.92,147.47,311.99,137.66,316.7,129.48z"/>
																	</g>
																</g>
															</g>
														</g>
													</g>
												</g>
												<g>
													<g>
														<g>
															<g>
																<g>
																	<g>
																		<g>
																			<g>
																				<g>
																					<g>
																						<g>
																							<g>
																								<g>
																									<g>
																										<g>
																											<path style="fill:#263238;" d="M308.78,135.9c-0.5,0.82-1.6,1.07-2.46,0.56
																												c-0.86-0.5-1.15-1.58-0.65-2.39c0.5-0.82,1.6-1.07,2.46-0.57C308.99,134.01,309.28,135.08,308.78,135.9z
																												"/>
																										</g>
																									</g>
																								</g>
																							</g>
																						</g>
																					</g>
																				</g>
																			</g>
																		</g>
																	</g>
																</g>
															</g>
														</g>
													</g>
													<g>
														<g>
															<g>
																<g>
																	<g>
																		<g>
																			<g>
																				<g>
																					<g>
																						<g>
																							<g>
																								<g>
																									<g>
																										<g>
																											<g>
																												<path style="fill:#263238;" d="M311.32,133.1c-0.32,0.07-0.9-1.53-2.52-2.6
																													c-1.6-1.09-3.35-1.04-3.39-1.36c-0.03-0.15,0.4-0.38,1.17-0.41c0.76-0.04,1.87,0.17,2.88,0.84
																													c1,0.67,1.61,1.61,1.84,2.32C311.53,132.6,311.47,133.07,311.32,133.1z"/>
																											</g>
																										</g>
																									</g>
																								</g>
																							</g>
																						</g>
																					</g>
																				</g>
																			</g>
																		</g>
																	</g>
																</g>
															</g>
														</g>
													</g>
												</g>
												<g>
													<g>
														<g>
															<g>
																<g>
																	<g>
																		<g>
																			<g>
																				<g>
																					<g>
																						<g>
																							<g>
																								<g>
																									<g>
																										<g>
																											<path style="fill:#263238;" d="M293.64,127.07c-0.5,0.82-1.6,1.07-2.46,0.56
																												c-0.86-0.5-1.15-1.58-0.65-2.39c0.5-0.82,1.6-1.07,2.46-0.57C293.85,125.18,294.14,126.25,293.64,127.07
																												z"/>
																										</g>
																									</g>
																								</g>
																							</g>
																						</g>
																					</g>
																				</g>
																			</g>
																		</g>
																	</g>
																</g>
															</g>
														</g>
													</g>
													<g>
														<g>
															<g>
																<g>
																	<g>
																		<g>
																			<g>
																				<g>
																					<g>
																						<g>
																							<g>
																								<g>
																									<g>
																										<g>
																											<g>
																												<path style="fill:#263238;" d="M295.01,123.22c-0.32,0.07-0.9-1.53-2.52-2.6
																													c-1.6-1.09-3.35-1.04-3.39-1.36c-0.03-0.15,0.4-0.38,1.17-0.41c0.76-0.04,1.87,0.17,2.88,0.84
																													c1.01,0.67,1.61,1.61,1.84,2.32C295.23,122.73,295.16,123.19,295.01,123.22z"/>
																											</g>
																										</g>
																									</g>
																								</g>
																							</g>
																						</g>
																					</g>
																				</g>
																			</g>
																		</g>
																	</g>
																</g>
															</g>
														</g>
													</g>
												</g>
												<g>
													<g>
														<g>
															<g>
																<g>
																	<g>
																		<g>
																			<g>
																				<g>
																					<g>
																						<g>
																							<g>
																								<g>
																									<g>
																										<g>
																											<g>
																												<path style="fill:#263238;" d="M293.09,138.81c0.05-0.1,1.18,0.4,2.95,1.27
																													c0.44,0.23,0.89,0.41,1.15,0.17c0.3-0.24,0.42-0.8,0.54-1.41c0.28-1.26,0.57-2.59,0.87-3.98
																													c1.28-5.63,2.51-10.15,2.73-10.1c0.23,0.05-0.63,4.66-1.92,10.29c-0.33,1.38-0.64,2.7-0.94,3.96
																													c-0.16,0.58-0.24,1.29-0.86,1.77c-0.32,0.24-0.77,0.26-1.08,0.16c-0.32-0.09-0.55-0.24-0.77-0.37
																													C294.05,139.58,293.03,138.91,293.09,138.81z"/>
																											</g>
																										</g>
																									</g>
																								</g>
																							</g>
																						</g>
																					</g>
																				</g>
																			</g>
																		</g>
																	</g>
																</g>
															</g>
														</g>
													</g>
												</g>
												<g>
													<g>
														<g>
															<g>
																<g>
																	<g>
																		<g>
																			<g>
																				<g>
																					<g>
																						<g>
																							<g>
																								<g>
																									<g>
																										<g>
																											<path style="fill:#EB996E;" d="M281.46,158.81c0,0-8.23-4.73-12.92-14.64c0,0-1.85,10.77,10.62,17.46
																												L281.46,158.81z"/>
																										</g>
																									</g>
																								</g>
																							</g>
																						</g>
																					</g>
																				</g>
																			</g>
																		</g>
																	</g>
																</g>
															</g>
														</g>
													</g>
												</g>
												<g>
													<g>
														<g>
															<g>
																<g>
																	<g>
																		<g>
																			<g>
																				<g>
																					<g>
																						<g>
																							<g>
																								<g>
																									<g>
																										<g>
																											<path style="fill:#EB996E;" d="M289.81,142.28c-0.07-1.16-0.81-2.26-1.89-2.82
																												c-0.75-0.39-1.69-0.52-2.5-0.23c-0.81,0.29-1.44,1.05-1.41,1.85c0.03,0.91,0.85,1.66,1.77,1.95
																												c0.92,0.29,1.92,0.22,2.89,0.13c0.27-0.03,0.54-0.05,0.78-0.17c0.24-0.12,0.43-0.36,0.4-0.61"/>
																										</g>
																									</g>
																								</g>
																							</g>
																						</g>
																					</g>
																				</g>
																			</g>
																		</g>
																	</g>
																</g>
															</g>
														</g>
													</g>
												</g>
												<g>
													<g>
														<g>
															<g>
																<g>
																	<g>
																		<g>
																			<g>
																				<g>
																					<g>
																						<g>
																							<g>
																								<g>
																									<g>
																										<g>
																											<g>
																												<path style="fill:#263238;" d="M287.58,136.78c0.27,0.16-0.89,1.93-0.22,4.18
																													c0.67,2.25,2.67,3.3,2.52,3.56c-0.05,0.13-0.64,0.07-1.45-0.44c-0.79-0.49-1.76-1.49-2.17-2.87
																													c-0.41-1.38-0.12-2.67,0.3-3.43C286.98,136.99,287.46,136.69,287.58,136.78z"/>
																											</g>
																										</g>
																									</g>
																								</g>
																							</g>
																						</g>
																					</g>
																				</g>
																			</g>
																		</g>
																	</g>
																</g>
															</g>
														</g>
													</g>
												</g>
											</g>
										</g>
									</g>
									<g>
										<g>
											<g>
												<g>
													<g>
														<g>
															<g>
																<g>
																	<g>
																		<g>
																			<g>
																				<g>
																					<g>
																						<g>
																							<g>
																								<g>
																									<path style="fill:#263238;" d="M299.35,117.73c-0.45,0.34-1.93-0.95-3.98-1.98
																										c-2.03-1.07-3.93-1.53-3.92-2.09c0.01-0.26,0.56-0.5,1.46-0.52c0.9-0.02,2.15,0.22,3.37,0.85
																										c1.22,0.63,2.15,1.51,2.65,2.25C299.43,116.99,299.56,117.57,299.35,117.73z"/>
																								</g>
																							</g>
																						</g>
																					</g>
																				</g>
																			</g>
																		</g>
																	</g>
																</g>
															</g>
														</g>
													</g>
												</g>
											</g>
										</g>
									</g>
									<g>
										<g>
											<g>
												<g>
													<g>
														<g>
															<g>
																<g>
																	<g>
																		<g>
																			<g>
																				<g>
																					<g>
																						<g>
																							<g>
																								<g>
																									<path style="fill:#263238;" d="M313.84,128c-0.53,0.18-1.39-0.94-2.72-1.85c-1.3-0.95-2.64-1.4-2.65-1.96
																										c0.01-0.26,0.43-0.52,1.16-0.54c0.72-0.02,1.73,0.23,2.63,0.87c0.9,0.64,1.48,1.51,1.7,2.19
																										C314.18,127.41,314.08,127.9,313.84,128z"/>
																								</g>
																							</g>
																						</g>
																					</g>
																				</g>
																			</g>
																		</g>
																	</g>
																</g>
															</g>
														</g>
													</g>
												</g>
											</g>
										</g>
									</g>
								</g>
							</g>
						</g>
					</g>
				</g>
			</g>
		</g>
		<g>
			<g>
				<g>
					<g>
						<g>
							<g>
								<path style="fill:#263238;" d="M320.86,112.68c-0.66,2.65-3.04,4.78-5.74,5.15c-2.7,0.37-5.55-1.06-6.87-3.43
									c0.28,1.27-0.76,2.56-2.01,2.9c-1.25,0.34-2.59-0.07-3.71-0.72c-2.35-1.36-4.06-3.8-4.53-6.48
									c-1.43,1.65-3.66,2.57-5.83,2.39c-2.17-0.18-4.22-1.45-5.34-3.32c0.58,2.56-0.61,5.44-2.84,6.84
									c-2.23,1.4-5.33,1.21-7.36-0.44c-2.03-1.65-2.86-4.65-1.95-7.12c-1.2-1.82-1.49-4.2-0.77-6.27s2.44-3.75,4.51-4.43
									c-0.94-1.15-1-2.85-0.45-4.24s1.64-2.5,2.81-3.42c2.86-2.27,6.56-3.65,10.16-3.12c3.6,0.52,6.95,3.22,7.66,6.79
									c0.08,0.4,0.14,0.85,0.44,1.13c0.41,0.38,1.06,0.28,1.61,0.16c2.43-0.57,5-1.21,7.36-0.44c2.86,0.93,4.81,4.07,4.4,7.06
									c2.99-1.49,7.01-1.04,9.18,1.5c2.17,2.54,1.72,7.06-1.19,8.72"/>
							</g>
						</g>
					</g>
				</g>
			</g>
		</g>
		<g>
			<g>
				<g>
					<g>
						<g>
							<g>
								<path style="fill:#263238;" d="M278.98,114.57c-1.7,2.31-3.74,4.38-6.02,6.13c-0.97,0.74-2.2,1.45-3.34,1.02
									c-1.03-0.39-1.54-1.64-1.41-2.74c0.12-1.1,0.73-2.09,1.36-3c2.23-3.26,4.87-6.2,7.51-9.14"/>
							</g>
						</g>
					</g>
				</g>
			</g>
		</g>
		<g>
			<g>
				<g>
					<g>
						<g>
							<g>
								<g>
									<g>
										<g>
											<g>
												<g>
													<g>
														<g>
															<g>
																<g>
																	<g>
																		<g>
																			<g>
																				<g>
																					<g>
																						<g>
																							<path style="fill:#FFBE9D;" d="M275.18,114.73c-0.1-0.17-4.55-6.01-8.63-0.05
																								c-4.08,5.95,2.71,8.81,2.83,8.65C269.52,123.17,275.18,114.73,275.18,114.73z"/>
																						</g>
																					</g>
																				</g>
																			</g>
																		</g>
																	</g>
																</g>
															</g>
														</g>
													</g>
												</g>
											</g>
										</g>
									</g>
								</g>
							</g>
						</g>
					</g>
				</g>
			</g>
			<g>
				<g>
					<g>
						<g>
							<g>
								<g>
									<g>
										<g>
											<g>
												<g>
													<g>
														<g>
															<g>
																<g>
																	<g>
																		<g>
																			<g>
																				<g>
																					<g>
																						<g>
																							<g>
																								<path style="fill:#EB996E;" d="M269.13,119.83c-0.01-0.04-0.15,0-0.38-0.04c-0.22-0.04-0.55-0.19-0.78-0.51
																									c-0.47-0.66-0.31-2.02,0.4-3.11c0.36-0.55,0.82-0.99,1.31-1.29c0.48-0.31,0.97-0.42,1.32-0.26
																									c0.36,0.14,0.46,0.49,0.41,0.7c-0.03,0.22-0.15,0.31-0.13,0.35c0.01,0.03,0.2-0.01,0.32-0.29
																									c0.06-0.13,0.08-0.32,0.02-0.53c-0.06-0.21-0.23-0.42-0.47-0.54c-0.48-0.28-1.18-0.14-1.71,0.18
																									c-0.56,0.31-1.1,0.79-1.49,1.41c-0.78,1.23-0.94,2.77-0.26,3.61c0.34,0.4,0.78,0.51,1.05,0.49
																									C269.02,119.97,269.14,119.86,269.13,119.83z"/>
																							</g>
																						</g>
																					</g>
																				</g>
																			</g>
																		</g>
																	</g>
																</g>
															</g>
														</g>
													</g>
												</g>
											</g>
										</g>
									</g>
								</g>
							</g>
						</g>
					</g>
				</g>
			</g>
		</g>
		<g>
			<g>
				<g>
					<g>
						<g>
							<g>
								<g>
									<path style="fill:#FFFFFF;" d="M298.5,108.7c-0.01,0.01,0.05,0.06,0.15,0.17c0.11,0.11,0.27,0.26,0.5,0.45
										c0.45,0.38,1.13,0.92,2.13,1.4c0.5,0.24,1.08,0.46,1.74,0.58c0.66,0.13,1.4,0.17,2.17-0.01c0.76-0.17,1.54-0.53,2.22-1.1
										c0.66-0.58,1.22-1.41,1.33-2.4l-0.3,0.04c0.66,1.76,1.97,3.47,3.82,4.62c0.92,0.58,1.97,1.01,3.09,1.25
										c0.56,0.11,1.15,0.17,1.75,0.1c0.59-0.06,1.2-0.28,1.68-0.66c0.58-0.44,0.99-1.04,1.3-1.65c0.32-0.61,0.54-1.25,0.76-1.87
										c0.21-0.63,0.37-1.28,0.39-1.94c0.02-0.65-0.18-1.37-0.69-1.81l-0.25,0.24c0.83,1.02,1.99,1.66,3.16,1.92
										c1.17,0.27,2.35,0.18,3.38-0.17c1.02-0.37,1.88-1,2.44-1.77c0.57-0.76,0.9-1.59,1.06-2.36c0.32-1.56-0.01-2.83-0.35-3.6
										c-0.36-0.78-0.7-1.1-0.7-1.1c-0.03,0.02,0.27,0.37,0.59,1.15c0.3,0.76,0.59,2.01,0.25,3.51c-0.17,0.74-0.5,1.53-1.06,2.25
										c-0.54,0.72-1.36,1.31-2.33,1.65c-0.97,0.33-2.1,0.4-3.21,0.13c-1.11-0.25-2.19-0.87-2.97-1.82l-0.25,0.24
										c0.42,0.36,0.59,0.95,0.57,1.55c-0.01,0.6-0.17,1.22-0.37,1.83c-0.42,1.21-0.9,2.53-1.93,3.34
										c-0.88,0.7-2.08,0.71-3.14,0.49c-1.08-0.22-2.09-0.63-2.97-1.19c-1.78-1.11-3.06-2.75-3.71-4.44l-0.23-0.6l-0.07,0.64
										c-0.1,0.9-0.6,1.67-1.21,2.22c-0.63,0.55-1.36,0.9-2.08,1.07c-0.72,0.18-1.43,0.15-2.07,0.04
										c-0.64-0.11-1.21-0.31-1.7-0.53c-0.99-0.45-1.68-0.96-2.15-1.31C298.75,108.89,298.51,108.69,298.5,108.7z"/>
								</g>
							</g>
						</g>
					</g>
				</g>
			</g>
		</g>
		<g>
			<g>
				<g>
					<g>
						<g>
							<g>
								<g>
									<path style="fill:#FFFFFF;" d="M318.75,118.34c-0.02,0.01,0.06,0.19,0.28,0.46c0.21,0.27,0.58,0.63,1.12,0.93
										c0.54,0.29,1.27,0.56,2.13,0.47c0.42-0.05,0.89-0.23,1.2-0.63c0.3-0.37,0.47-0.96,0.19-1.47l-0.3,0.2
										c0.03,0.03,0.06,0.06,0.08,0.1c1.28,1.52,3.14,2,4.38,1.96c0.63-0.01,1.13-0.13,1.46-0.24c0.33-0.12,0.5-0.21,0.49-0.23
										c-0.02-0.07-0.74,0.25-1.95,0.22c-1.18-0.02-2.92-0.53-4.1-1.94c-0.03-0.03-0.05-0.06-0.08-0.09l-1.17-1.34l0.87,1.54
										c0.18,0.33,0.08,0.77-0.15,1.07c-0.23,0.3-0.61,0.46-0.97,0.52c-0.75,0.1-1.45-0.11-1.97-0.36
										C319.2,118.97,318.8,118.29,318.75,118.34z"/>
								</g>
							</g>
						</g>
					</g>
				</g>
			</g>
		</g>
		<g>
			<g>
				<g>
					<g>
						<g>
							<g>
								<g>
									<path style="fill:#EB996E;" d="M304.86,128.49c0.01,0.06,0.53-0.03,1.37,0.01c0.83,0.04,1.99,0.28,3.09,0.92
										c1.1,0.64,1.87,1.54,2.32,2.25c0.45,0.71,0.63,1.21,0.69,1.19c0.04-0.01-0.05-0.55-0.46-1.32
										c-0.41-0.77-1.19-1.75-2.35-2.43c-1.16-0.68-2.4-0.88-3.27-0.86C305.37,128.26,304.85,128.45,304.86,128.49z"/>
								</g>
							</g>
						</g>
					</g>
				</g>
			</g>
		</g>
		<g>
			<g>
				<g>
					<g>
						<g>
							<g>
								<g>
									<path style="fill:#EB996E;" d="M289.01,117.92c0.01,0.06,0.44-0.01,1.11,0.04c0.67,0.04,1.6,0.23,2.49,0.75
										c0.88,0.52,1.51,1.23,1.88,1.79c0.37,0.56,0.53,0.97,0.58,0.95c0.04-0.01-0.03-0.45-0.36-1.08
										c-0.33-0.62-0.97-1.42-1.92-1.98c-0.95-0.55-1.96-0.71-2.66-0.69C289.41,117.72,289,117.88,289.01,117.92z"/>
								</g>
							</g>
						</g>
					</g>
				</g>
			</g>
		</g>
		<g>
			<g>
				<g>
					<g>
						<g>
							<g>
								<g>
									<path style="fill:#EB996E;" d="M285.74,136.44c0.03,0.04,0.18-0.04,0.42-0.08c0.24-0.05,0.58-0.06,0.94,0.04
										c0.72,0.21,1.3,0.58,1.36,0.48c0.04-0.06-0.42-0.57-1.27-0.83c-0.43-0.11-0.85-0.06-1.12,0.07
										C285.8,136.24,285.71,136.41,285.74,136.44z"/>
								</g>
							</g>
						</g>
					</g>
				</g>
			</g>
		</g>
		<g>
			<g>
				<g>
					<g>
						<g>
							<g>
								<g>
									<path style="fill:#EB996E;" d="M284.02,136.56c0.08,0.07,0.5-0.3,1.08-0.66c0.57-0.37,1.08-0.6,1.05-0.7
										c-0.02-0.09-0.63-0.01-1.25,0.39C284.28,135.99,283.95,136.5,284.02,136.56z"/>
								</g>
							</g>
						</g>
					</g>
				</g>
			</g>
		</g>
		<g>
			<g>
				<path style="fill:#455A64;" d="M264.14,119.01c0-0.04-0.51-0.1-1.43,0.06c-0.9,0.16-2.24,0.57-3.53,1.67
					c-1.28,1.07-2.38,3.01-2.29,5.3c0.03,2.27,1.58,4.71,4.04,5.7c1.22,0.51,2.58,0.54,3.77,0.23c1.2-0.3,2.24-0.9,3.09-1.63
					c1.71-1.47,2.53-3.53,2.44-5.23c-0.06-1.71-0.79-2.96-1.4-3.65c-0.62-0.71-1.1-0.92-1.12-0.9c-0.04,0.05,0.38,0.35,0.9,1.07
					c0.51,0.71,1.11,1.91,1.11,3.48c0.02,1.55-0.78,3.4-2.36,4.72c-1.54,1.3-3.97,2.16-6.16,1.24c-2.19-0.88-3.59-3.03-3.65-5.06
					c-0.11-2.06,0.82-3.85,1.97-4.89c1.16-1.07,2.41-1.53,3.26-1.77C263.64,119.11,264.14,119.08,264.14,119.01z"/>
			</g>
		</g>
	</g>
	<g>
		<g>
			<path style="fill:#1C2F5C;" d="M159.28,239.3c-18.17,14.11-20.94,36.49-22.18,49.33c-1.24,12.84-11.18,64.18-11.18,64.18
				s-20.77,32.25-28.22,45.92c-7.45,13.66-22.34,42.21-22.34,42.21l24.89,15.39c0,0,44.72-60.86,52.58-72.87
				c7.87-12.01,47.99-113.12,47.99-113.12L159.28,239.3z"/>
		</g>
		<g>
			<path style="fill:#1C2F5C;" d="M218.44,272.57c1.25,2.4,34.25,83.84,33.39,91.98c-0.86,8.14-42.01,91.76-42.01,91.76
				l-30.43-12.89l31.29-69.44l0.86-9.54l-29.15-55.18l9.43-40.72L218.44,272.57z"/>
		</g>
		<g>
			<g>
				<path style="fill:#455A64;" d="M196.76,283.26c0.13,0.06-3.31,8.25-7.69,18.29c-4.38,10.05-8.04,18.15-8.17,18.09
					c-0.13-0.06,3.31-8.25,7.69-18.3C192.97,291.3,196.63,283.2,196.76,283.26z"/>
			</g>
		</g>
		<g>
			<g>
				<path style="fill:#455A64;" d="M222.94,367.25c0.05,0.12-2.59,0.75-5.75-0.04c-3.17-0.75-5.23-2.51-5.14-2.59
					c0.09-0.14,2.21,1.37,5.26,2.09C220.35,367.46,222.93,367.08,222.94,367.25z"/>
			</g>
		</g>
		<g>
			<g>
				<path style="fill:#455A64;" d="M221.63,375.26c-0.06,0.15-2.25-0.66-5.08-1.16c-2.82-0.52-5.16-0.53-5.16-0.68
					c-0.01-0.13,2.37-0.36,5.26,0.17C219.54,374.09,221.69,375.14,221.63,375.26z"/>
			</g>
		</g>
		<g>
			<g>
				<path style="fill:#455A64;" d="M167.31,254.56c0.02,0.03-0.19,0.21-0.59,0.52c-0.4,0.31-1.01,0.73-1.78,1.2
					c-1.54,0.94-3.81,2.06-6.47,2.86c-2.66,0.79-5.17,1.11-6.98,1.17c-0.91,0.03-1.64,0.02-2.14-0.02
					c-0.51-0.04-0.78-0.07-0.78-0.11c0-0.09,1.12-0.08,2.9-0.24c1.78-0.15,4.24-0.53,6.85-1.31c2.61-0.79,4.86-1.82,6.44-2.68
					C166.33,255.1,167.26,254.49,167.31,254.56z"/>
			</g>
		</g>
	</g>
	<g>
		<g>
			<g>
				<polygon style="fill:#455A64;" points="274.14,171.54 300.77,205.92 356.63,228.8 350.68,240.72 279.28,216.34 255.9,168.41 
									"/>
			</g>
			<g style="opacity:0.2;">
				<polygon style="fill:#5FA3AC;" points="274.14,171.54 300.77,205.92 356.63,228.8 350.68,240.72 279.28,216.34 255.9,168.41 
									"/>
			</g>
		</g>
		<g>
			<path style="fill:#5FA3AC;" d="M248.23,151.18c-1.14-1.15-1.19-2.99-0.11-4.2l3.64-4.07c0.49-0.65,1.4-0.79,2.06-0.32
				c5.07,3.67,24.26,18.24,24.22,22.41c-0.05,4.73-8.18,9.48-8.18,9.48L248.23,151.18z"/>
		</g>
		<g>
			<path style="fill:#5FA3AC;" d="M235.53,176.62c0,0,35.66,49.28,44.96,54.97c9.3,5.69,67.7,13.71,67.7,13.71l2.27-17.27
				l-56.33-18.06c0,0-36.75-54.16-37.69-55.72c-0.94-1.56-8.19-7.41-16.19-6.39c-8,1.02-12.06,13.65-9.3,19.9
				C232,170.13,235.53,176.62,235.53,176.62z"/>
		</g>
		<g>
			<path style="fill:#5FA3AC;" d="M248.46,147.91c0,0-10.26-4.42-20.11,4.77c-5.27,4.92-53.51,72.51-56.91,77.04l-13.86,9.57
				c23.18,21.34,41.14,39.19,65.87,45.39l12.88-41.77l39.57-36.02L248.46,147.91z"/>
		</g>
		<g>
			<g>
				<path style="fill:#263238;" d="M231.68,171.54c0.02-0.01,0.14,0.15,0.36,0.46c0.25,0.36,0.56,0.82,0.94,1.38
					c0.8,1.2,1.99,2.93,3.48,5.04c2.97,4.23,7.27,9.94,12.26,16.05c4.99,6.11,9.66,11.52,13.04,15.45c1.65,1.93,3,3.5,3.98,4.66
					c0.43,0.52,0.79,0.94,1.07,1.28c0.24,0.3,0.36,0.46,0.34,0.47c-0.01,0.01-0.16-0.13-0.42-0.4c-0.3-0.32-0.68-0.72-1.14-1.22
					c-1.02-1.13-2.41-2.67-4.11-4.55c-3.44-3.86-8.16-9.24-13.16-15.36c-4.99-6.12-9.26-11.88-12.16-16.17
					c-1.45-2.14-2.59-3.9-3.34-5.14c-0.35-0.58-0.63-1.05-0.86-1.43C231.76,171.72,231.66,171.55,231.68,171.54z"/>
			</g>
		</g>
		<g>
			<g>
				<path style="fill:#263238;" d="M350.45,228.02c0,0.01-0.1-0.02-0.28-0.07c-0.21-0.06-0.48-0.15-0.82-0.25
					c-0.74-0.24-1.8-0.59-3.16-1.03c-2.77-0.92-6.77-2.25-11.77-3.91c-10.05-3.38-24.13-8.12-40.38-13.59l-0.08-0.03l-0.05-0.07
					c-3.65-5.39-7.56-11.16-11.59-17.12c-6.2-9.17-12.1-17.91-17.47-25.86c-2.68-3.98-5.23-7.75-7.61-11.29
					c-0.61-0.88-1.14-1.79-1.81-2.53c-0.32-0.39-0.71-0.71-1.09-1.03c-0.38-0.31-0.73-0.67-1.14-0.94c-1.6-1.13-3.38-1.8-5.12-2.17
					c-3.54-0.56-6.88,0.22-9.33,1.67c-2.48,1.43-4.12,3.37-5.14,5.1c-0.4,0.92-0.87,1.7-1.04,2.46c-0.22,0.74-0.43,1.37-0.46,1.91
					c-0.13,0.89-0.19,1.32-0.24,1.61c-0.03,0,0.02-0.56,0.13-1.63c0.02-0.54,0.21-1.18,0.42-1.93c0.15-0.78,0.61-1.57,1.01-2.51
					c1-1.77,2.65-3.77,5.17-5.25c2.48-1.5,5.9-2.33,9.54-1.78c1.8,0.37,3.63,1.05,5.29,2.21c0.42,0.27,0.78,0.64,1.18,0.96
					c0.39,0.33,0.79,0.66,1.13,1.07c0.71,0.79,1.24,1.7,1.85,2.57c2.4,3.53,4.96,7.3,7.65,11.27c5.38,7.94,11.29,16.67,17.5,25.84
					c4.03,5.96,7.93,11.74,11.58,17.13l-0.13-0.1c16.22,5.54,30.28,10.34,40.32,13.77c4.98,1.72,8.96,3.1,11.72,4.05
					c1.35,0.48,2.39,0.85,3.13,1.11c0.34,0.12,0.6,0.22,0.8,0.3C350.37,227.97,350.46,228.01,350.45,228.02z"/>
			</g>
		</g>
		<g>
			<g>
				<path style="fill:#263238;" d="M255.9,205.92c0.03,0.02-0.16,0.26-0.52,0.68c-0.35,0.42-0.91,0.99-1.62,1.66
					c-1.43,1.35-3.57,3.04-6.19,4.52c-2.62,1.47-5.18,2.42-7.07,2.94c-0.95,0.26-1.72,0.44-2.26,0.52
					c-0.54,0.09-0.84,0.13-0.85,0.09c-0.02-0.08,1.16-0.36,3-0.97c1.84-0.6,4.34-1.6,6.93-3.05c2.58-1.45,4.72-3.08,6.2-4.34
					C254.99,206.72,255.83,205.86,255.9,205.92z"/>
			</g>
		</g>
		<g>
			<g>
				<path style="fill:#263238;" d="M232.92,235.71c0,0.04-0.61,0.12-1.74,0.23c-1.12,0.13-2.75,0.23-4.77,0.3
					c-4.03,0.13-9.63-0.06-15.73-1.02c-6.09-0.97-11.48-2.53-15.27-3.91c-1.9-0.69-3.41-1.29-4.44-1.76
					c-1.03-0.46-1.59-0.73-1.58-0.76c0.01-0.03,0.6,0.17,1.66,0.57c1.05,0.41,2.58,0.96,4.49,1.6c3.81,1.28,9.17,2.77,15.23,3.74
					c6.06,0.96,11.62,1.2,15.64,1.16c2.01-0.02,3.64-0.07,4.76-0.13C232.29,235.69,232.91,235.68,232.92,235.71z"/>
			</g>
		</g>
		<g>
			<g>
				<path style="fill:#263238;" d="M234.29,229.66c0.01,0.06-1.04,0.39-2.79,0.69c-1.75,0.3-4.21,0.54-6.92,0.43
					c-2.72-0.11-5.15-0.54-6.87-0.98c-1.72-0.44-2.74-0.85-2.72-0.91c0.02-0.08,1.08,0.21,2.81,0.55c1.72,0.35,4.13,0.71,6.81,0.82
					c2.68,0.1,5.1-0.07,6.85-0.28C233.19,229.78,234.27,229.58,234.29,229.66z"/>
			</g>
		</g>
		<g style="opacity:0.2;">
			<path d="M237.89,180.78l15.99,27.13c0,0-8.99,6.41-12.74,7.42c0,0,8.24-2.29,14.76-5.53l8.43,3.82L237.89,180.78z"/>
		</g>
		<g style="opacity:0.2;">
			<g>
				<path d="M228.21,235.89c-5.29,2.86-11.98,3.99-18.25,3.11c-6.28-0.89-12.08-3.78-15.85-7.92c0,0,13.05,3.55,18.06,4.11
					C217.18,235.75,228.21,235.89,228.21,235.89z"/>
			</g>
		</g>
		<g>
			<g>
				<path style="fill:#263238;" d="M175.06,241.98c0.04,0.16-2.5,0.51-5.04,2.21c-1.77,1.14-2.97,2.55-3.56,3.25l-0.2-0.14
					c0.29-0.33,0.47-0.5,0.51-0.47c0.04,0.03-0.07,0.24-0.31,0.62l-0.2-0.14c0.46-0.8,1.63-2.36,3.47-3.54
					C172.4,241.99,175.08,241.86,175.06,241.98z"/>
			</g>
		</g>
		<g>
			<g>
				<path style="fill:#263238;" d="M188.24,252.69c0.11,0.07-1.16,2.08-3.29,4.06c-2.13,1.99-4.22,3.11-4.29,2.99
					c-0.08-0.13,1.85-1.43,3.93-3.37C186.68,254.43,188.11,252.59,188.24,252.69z"/>
			</g>
		</g>
		<g>
			<g>
				<path style="fill:#263238;" d="M202.16,264.4c0.12,0.06-0.96,2.28-2.96,4.54c-1.98,2.28-4.04,3.64-4.11,3.53
					c-0.1-0.12,1.78-1.64,3.72-3.87C200.76,266.38,202.02,264.32,202.16,264.4z"/>
			</g>
		</g>
		<g>
			<g>
				<path style="fill:#263238;" d="M216.79,270.25c0.13,0-0.07,2.45-1.31,5.17c-1.23,2.73-2.94,4.48-3.03,4.39
					c-0.13-0.1,1.37-1.96,2.56-4.6C216.21,272.57,216.63,270.22,216.79,270.25z"/>
			</g>
		</g>
		<g>
			<g>
				<path style="fill:#263238;" d="M251.95,149.25c-0.06-0.03,0.05-0.42,0.37-1c0.32-0.57,0.92-1.31,1.78-1.87
					c0.86-0.56,1.73-0.83,2.36-0.99c0.63-0.15,1.03-0.18,1.05-0.11c0.06,0.17-1.53,0.54-3.13,1.54
					C252.8,147.85,252.11,149.34,251.95,149.25z"/>
			</g>
		</g>
		<g>
			<g>
				<path style="fill:#263238;" d="M258.94,156.12c-0.12-0.05,0.54-1.63,2.12-2.98c1.57-1.36,3.24-1.78,3.26-1.65
					c0.06,0.15-1.45,0.76-2.92,2.05C259.91,154.8,259.08,156.19,258.94,156.12z"/>
			</g>
		</g>
		<g>
			<g>
				<path style="fill:#263238;" d="M272.69,159.01c0.12,0.05-0.88,2.17-2.91,4.18c-2.02,2.02-4.14,3.01-4.19,2.89
					c-0.08-0.14,1.87-1.3,3.82-3.26C271.38,160.87,272.55,158.93,272.69,159.01z"/>
			</g>
		</g>
	</g>
	<g>
		<g>
			<path style="fill:#FFBE9D;" d="M349.69,228.78l8.08-11.08l5.98-1.31l12.93-2.63c0,0,1.51,0.9-0.32,3.16l-1.04,0.85l5.01-0.13
				c0,0,0.29,2.37-2.29,3.7l-8.44,2.45l-3.18,0.96c0,0,6.66,0.46,8.97-0.37c2.32-0.83,4.38-0.73,4.38-0.73s1.39,1.42-0.33,3.26
				c-1.72,1.85-6.78,2.4-7.98,2.7c-1.2,0.3-5.47,0.4-5.47,0.4s1.69,1.13,4.57,1.1c2.88-0.03,5.85,0.06,5.85,0.06
				s0.15,2.74-1.61,3.28c-1.76,0.53-9.51,0.39-9.51,0.39l-2.14,1.17c0,0-5.71,6.02-7.72,6.88c-2,0.86-7.25,2.41-7.25,2.41
				L349.69,228.78z"/>
		</g>
		<g>
			<g>
				<path style="fill:#EB996E;" d="M375.99,217.92c0.02,0.06-0.7,0.44-1.94,0.89c-1.24,0.45-3,0.95-4.99,1.27
					c-1.99,0.31-3.83,0.37-5.14,0.32c-1.32-0.05-2.13-0.19-2.12-0.25c0.01-0.16,3.25,0.05,7.18-0.58
					C372.9,218.96,375.93,217.77,375.99,217.92z"/>
			</g>
		</g>
	</g>
</g>
<g id="Plant">
	<g>
		<g>
			<g>
				<path style="fill:#455A64;" d="M479.81,431.4c0,0-21.28-24.49-29.31-48.99c-8.03-24.49-4.22-21.68-4.22-21.68
					s10.84,23.79,19.07,35.28c8.23,11.49,22.89,28.36,22.89,28.36L479.81,431.4z"/>
			</g>
			<g>
				<path style="fill:#455A64;" d="M484.05,364.55c-0.69-1.2-2.51-0.57-2.31,0.79c1.3,8.6,4.1,28.79,3.99,41.89
					c-0.14,17.01,0.01,23.59,0.01,23.59h8.86c0,0-1.57-35.16-3.57-45.89C489.62,377.4,486.64,369.06,484.05,364.55z"/>
			</g>
			<g>
				<path style="fill:#455A64;" d="M488.88,427.95c0,0,5.57-11.72,7.29-26.45c0.73-6.26-0.57-14.72-2.51-26.02
					c-0.94-5.47-1.15-9.63-1.12-12.52c0.02-2.18,2.9-2.89,3.97-0.99c1.07,1.91,4.16,8.42,4.95,12.51
					c2.14,11.15,4.57,16.72,2.72,27.3s-8.72,26.87-8.72,26.87L488.88,427.95z"/>
			</g>
			<g>
				<path style="fill:#455A64;" d="M496.85,428.66c0,0,23.37-50.21,24.98-57.66c1.62-7.45,7.13-24.62,7.77-23.64
					c0.65,0.97,1.62,10.04-2.59,20.4c-4.21,10.36-22.19,62.43-22.19,62.43h-7.98"/>
			</g>
			<g>
				<g>
					<path style="fill:#263238;" d="M486.32,426.42c-0.01,0.01-0.24-0.14-0.65-0.45c-0.41-0.31-1.04-0.76-1.81-1.38
						c-1.56-1.22-3.74-3.08-6.28-5.54c-5.1-4.9-11.45-12.45-16.95-21.76c-5.51-9.3-9.22-18.4-11.57-25.06
						c-1.18-3.33-2.03-6.06-2.59-7.96c-0.29-0.95-0.48-1.69-0.62-2.19c-0.13-0.5-0.2-0.77-0.18-0.77c0.02,0,0.11,0.25,0.28,0.74
						c0.18,0.54,0.41,1.26,0.71,2.16c0.61,1.88,1.52,4.59,2.74,7.9c2.43,6.62,6.18,15.66,11.67,24.93
						c5.48,9.27,11.75,16.82,16.77,21.76c2.5,2.49,4.64,4.38,6.15,5.64c0.75,0.65,1.35,1.11,1.75,1.45
						C486.12,426.22,486.33,426.4,486.32,426.42z"/>
				</g>
			</g>
			<g>
				<g>
					<path style="fill:#263238;" d="M488.87,402.33c-0.03,0-0.11-0.52-0.21-1.47c-0.11-1.04-0.26-2.39-0.43-4.03
						c-0.37-3.4-0.95-8.08-1.77-13.23c-0.83-5.15-1.75-9.78-2.46-13.12c-0.35-1.6-0.63-2.93-0.85-3.96c-0.2-0.93-0.3-1.46-0.26-1.46
						c0.03-0.01,0.19,0.5,0.45,1.42c0.26,0.92,0.61,2.26,1.01,3.93c0.8,3.33,1.78,7.96,2.61,13.12c0.83,5.16,1.35,9.86,1.63,13.27
						c0.14,1.71,0.23,3.09,0.27,4.04C488.9,401.8,488.91,402.33,488.87,402.33z"/>
				</g>
			</g>
			<g>
				<g>
					<path style="fill:#263238;" d="M494.35,361.58c0.02-0.01,0.11,0.21,0.28,0.64c0.18,0.47,0.41,1.09,0.7,1.87
						c0.31,0.81,0.66,1.81,1,2.99c0.35,1.18,0.8,2.51,1.14,4.02c0.18,0.75,0.38,1.54,0.58,2.36c0.2,0.82,0.34,1.69,0.51,2.58
						c0.38,1.78,0.62,3.72,0.9,5.74c0.46,4.07,0.71,8.58,0.56,13.31c-0.19,4.73-0.76,9.21-1.51,13.24c-0.43,2-0.8,3.92-1.31,5.67
						c-0.24,0.88-0.44,1.74-0.7,2.54c-0.26,0.8-0.51,1.58-0.75,2.31c-0.45,1.48-0.99,2.78-1.42,3.93c-0.42,1.16-0.85,2.13-1.21,2.91
						c-0.34,0.75-0.62,1.35-0.83,1.81c-0.2,0.41-0.31,0.62-0.32,0.62c-0.02-0.01,0.06-0.23,0.23-0.66c0.19-0.47,0.44-1.08,0.74-1.84
						c0.34-0.79,0.74-1.77,1.13-2.93c0.4-1.16,0.92-2.45,1.35-3.94c0.23-0.74,0.46-1.51,0.71-2.31c0.24-0.81,0.43-1.66,0.67-2.54
						c0.49-1.75,0.85-3.65,1.26-5.65c0.72-4.01,1.27-8.47,1.46-13.17c0.15-4.7-0.09-9.18-0.52-13.24c-0.27-2.02-0.49-3.95-0.85-5.72
						c-0.17-0.89-0.3-1.76-0.48-2.58c-0.19-0.82-0.37-1.61-0.54-2.36c-0.31-1.51-0.74-2.84-1.06-4.02
						c-0.31-1.19-0.64-2.19-0.92-3.01c-0.25-0.78-0.46-1.41-0.61-1.89C494.39,361.82,494.33,361.59,494.35,361.58z"/>
				</g>
			</g>
			<g>
				<g>
					<path style="fill:#263238;" d="M529.34,348.37c0.01,0,0,0.08-0.02,0.23c-0.03,0.18-0.06,0.39-0.1,0.65
						c-0.1,0.57-0.23,1.42-0.46,2.5c-0.45,2.16-1.2,5.27-2.37,9.04c-1.16,3.77-2.76,8.2-4.65,13.05c-1.89,4.86-4.08,10.16-6.15,15.8
						c-2.11,5.63-3.73,11.12-5.25,16.11c-1.51,4.99-2.94,9.47-4.33,13.16c-1.37,3.7-2.69,6.62-3.69,8.59
						c-0.48,0.99-0.91,1.74-1.19,2.25c-0.13,0.23-0.24,0.42-0.33,0.57c-0.08,0.13-0.12,0.19-0.13,0.19c-0.01,0,0.02-0.08,0.08-0.21
						c0.08-0.16,0.17-0.36,0.28-0.6c0.25-0.52,0.65-1.28,1.1-2.28c0.94-1.99,2.21-4.92,3.53-8.62c1.34-3.7,2.73-8.18,4.22-13.18
						c1.5-4.99,3.11-10.5,5.23-16.15c2.08-5.65,4.28-10.94,6.19-15.79c1.91-4.84,3.54-9.24,4.74-12.99
						c1.21-3.75,2.01-6.83,2.52-8.98c0.26-1.07,0.42-1.91,0.55-2.48c0.06-0.26,0.11-0.47,0.15-0.64
						C529.31,348.44,529.34,348.37,529.34,348.37z"/>
				</g>
			</g>
			<g>
				<g>
					<path style="fill:#455A64;" d="M457.3,337.28c-1.47-1.46-3.92,0.07-3.31,2.05c0.62,2.01,1.55,4.61,2.94,7.55
						c3.21,6.83,12.65,31.32,17.06,44.77c4.42,13.45,10.64,38.55,10.64,38.55l9.43-1.53c0,0-8.63-41.23-17.06-56.09
						C470.22,360.64,463.45,343.39,457.3,337.28z"/>
				</g>
				<g>
					<g>
						<path style="fill:#263238;" d="M476.57,400.06c0.03-0.01,0.2,0.39,0.49,1.13c0.28,0.74,0.66,1.82,1.09,3.17
							c0.87,2.69,1.93,6.45,3,10.62c1.07,4.18,1.96,7.98,2.58,10.73c0.28,1.3,0.52,2.4,0.71,3.27c0.16,0.77,0.23,1.21,0.2,1.21
							c-0.03,0.01-0.17-0.41-0.38-1.17c-0.23-0.86-0.52-1.94-0.86-3.23c-0.72-2.84-1.67-6.57-2.72-10.69
							c-1.07-4.17-2.08-7.93-2.86-10.64c-0.37-1.28-0.69-2.35-0.93-3.21C476.64,400.5,476.53,400.07,476.57,400.06z"/>
					</g>
				</g>
				<g>
					<g>
						<path style="fill:#263238;" d="M489.36,429.43c-0.01,0-0.03-0.08-0.05-0.25c-0.03-0.2-0.06-0.44-0.11-0.74
							c-0.1-0.65-0.19-1.62-0.39-2.86c-0.35-2.48-0.96-6.05-1.98-10.4c-1.01-4.36-2.48-9.48-4.41-15.07
							c-1.93-5.59-4.36-11.63-7.11-17.87c-5.55-12.48-11.09-23.55-14.73-31.74c-1.84-4.08-3.27-7.42-4.21-9.74
							c-0.48-1.16-0.82-2.07-1.06-2.68c-0.11-0.29-0.19-0.52-0.26-0.7c-0.06-0.16-0.08-0.24-0.07-0.25c0.01,0,0.05,0.07,0.12,0.23
							c0.08,0.18,0.18,0.41,0.31,0.68c0.28,0.64,0.66,1.52,1.15,2.65c0.99,2.3,2.47,5.61,4.35,9.67
							c3.72,8.14,9.31,19.18,14.87,31.69c2.75,6.26,5.17,12.31,7.09,17.93c1.92,5.61,3.36,10.76,4.32,15.14
							c0.97,4.38,1.54,7.97,1.83,10.46c0.17,1.24,0.23,2.22,0.29,2.87c0.02,0.3,0.04,0.55,0.06,0.75
							C489.37,429.34,489.37,429.43,489.36,429.43z"/>
					</g>
				</g>
				<g>
					<g>
						<path style="fill:#263238;" d="M494.06,428.66c-0.03,0-0.15-0.56-0.32-1.58c-0.19-1.11-0.43-2.57-0.73-4.34
							c-0.65-3.65-1.64-8.69-3.07-14.17c-1.41-5.48-3-10.36-4.23-13.87c-0.6-1.69-1.1-3.08-1.48-4.14c-0.35-0.98-0.53-1.52-0.5-1.54
							c0.03-0.01,0.27,0.51,0.68,1.47c0.41,0.96,0.97,2.35,1.63,4.09c1.31,3.48,2.96,8.36,4.38,13.86
							c1.43,5.5,2.37,10.56,2.93,14.23c0.27,1.84,0.47,3.33,0.58,4.37C494.04,428.09,494.09,428.66,494.06,428.66z"/>
					</g>
				</g>
			</g>
		</g>
		<g>
			<g>
				<rect x="476.6" y="427.31" style="fill:#E9A84E;" width="36.81" height="44.85"/>
			</g>
			<g style="opacity:0.3;">
				<rect x="476.6" y="427.31" width="36.81" height="44.85"/>
			</g>
			<g>
				<rect x="469.01" y="427.31" style="fill:#E9A84E;" width="32.66" height="44.85"/>
			</g>
		</g>
	</g>
</g>
</svg>
