<?xml version="1.0" encoding="utf-8"?>
<!-- Generator: Adobe Illustrator 24.1.3, SVG Export Plug-In . SVG Version: 6.00 Build 0)  -->
<svg version="1.1" xmlns="http://www.w3.org/2000/svg" xmlns:xlink="http://www.w3.org/1999/xlink" x="0px" y="0px"
	 viewBox="0 0 500 500" style="enable-background:new 0 0 500 500;" xml:space="preserve">
<g id="Background_Complete">
	<g>
		<g>
			<path style="fill:#FAFAFA;" d="M60.29,120.18l-14.61,70.51c6.5,6.59,13.39,12.83,24.51,15.18l53.5,9.4l12.56-82.88L60.29,120.18z
				"/>
			<polygon style="fill:#F5F5F5;" points="57.24,115.83 42.63,186.33 67.14,201.51 120.64,210.91 136.44,131.36 			"/>
			<path style="fill:#E0E0E0;" d="M52.6,182.57l-9.97,3.76c0,0,3.6,5.87,8.85,9.05c5.25,3.18,10.31,5.19,15.66,6.13
				C67.14,201.51,55.46,195.7,52.6,182.57z"/>
		</g>
		<polygon style="fill:#EBEBEB;" points="49.11,130.96 85.67,119.62 83.34,111.92 46.17,122.73 		"/>
		<polygon style="fill:#EBEBEB;" points="142.77,150.38 119.07,120.31 112.72,125.25 136.13,156.07 		"/>
		<g>
			<path style="fill:#E0E0E0;" d="M122.68,154.78c-0.03,0.14-13.53-2.38-30.16-5.63c-16.63-3.25-30.09-6-30.06-6.14
				c0.03-0.14,13.53,2.38,30.16,5.63C109.25,151.89,122.71,154.64,122.68,154.78z"/>
		</g>
		<g>
			<path style="fill:#E0E0E0;" d="M120.29,165.59c-0.03,0.14-13.53-2.38-30.16-5.63c-16.63-3.25-30.09-6-30.06-6.14
				c0.03-0.14,13.53,2.38,30.16,5.63C106.86,162.69,120.32,165.45,120.29,165.59z"/>
		</g>
		<g>
			<path style="fill:#E0E0E0;" d="M118.74,175.28c-0.03,0.14-13.53-2.38-30.16-5.63c-16.63-3.25-30.09-6-30.06-6.14
				c0.03-0.14,13.53,2.38,30.16,5.63C105.31,172.39,118.77,175.14,118.74,175.28z"/>
		</g>
		<g>
			<path style="fill:#E0E0E0;" d="M116.87,184.54c-0.03,0.14-13.53-2.38-30.16-5.63c-16.63-3.25-30.09-6-30.06-6.14
				c0.03-0.14,13.53,2.38,30.16,5.63C103.44,181.65,116.89,184.4,116.87,184.54z"/>
		</g>
	</g>
	<g>
		<g>
			<path style="fill:#FAFAFA;" d="M402.63,87.76l-18.91,46.1c-6.28,1.27-12.64,2.18-19.93-0.78l-34.33-15.31l24.86-52.4
				L402.63,87.76z"/>
			<polygon style="fill:#F5F5F5;" points="406.06,86.44 387.16,132.54 367.22,131.76 332.89,116.45 354.62,64.7 			"/>
			<path style="fill:#E0E0E0;" d="M382.89,126.52l4.26,6.02c0,0-4.34,1.97-8.58,1.77c-4.24-0.21-7.92-1.01-11.35-2.54
				C367.22,131.76,376.17,132.95,382.89,126.52z"/>
		</g>
		<polygon style="fill:#EBEBEB;" points="404.87,98.27 388.28,77.62 392.6,74.1 409.74,94.68 		"/>
		<polygon style="fill:#EBEBEB;" points="343.63,73.17 368.86,65.09 370.59,70.38 345.23,79 		"/>
		<g>
			<path style="fill:#E0E0E0;" d="M353.45,83.46c0.06-0.13,8.86,3.46,19.65,8.03c10.8,4.57,19.51,8.38,19.45,8.51
				c-0.06,0.13-8.85-3.46-19.65-8.03C362.1,87.41,353.39,83.59,353.45,83.46z"/>
		</g>
		<g>
			<path style="fill:#E0E0E0;" d="M350.64,90.59c0.06-0.13,8.86,3.46,19.65,8.03c10.8,4.57,19.51,8.38,19.45,8.51
				c-0.06,0.13-8.85-3.46-19.65-8.03C359.29,94.53,350.58,90.72,350.64,90.59z"/>
		</g>
		<g>
			<path style="fill:#E0E0E0;" d="M347.77,96.75c0.06-0.13,8.86,3.46,19.65,8.03c10.8,4.57,19.51,8.38,19.45,8.51
				c-0.06,0.13-8.85-3.46-19.65-8.03C356.42,100.69,347.72,96.88,347.77,96.75z"/>
		</g>
		<g>
			<path style="fill:#E0E0E0;" d="M345.27,102.78c0.06-0.13,8.86,3.46,19.65,8.03c10.8,4.57,19.51,8.38,19.45,8.51
				c-0.06,0.13-8.85-3.46-19.65-8.03C353.92,106.73,345.21,102.91,345.27,102.78z"/>
		</g>
	</g>
	<g>
		<g>
			<g>
				<g>
					<path style="fill:#F5F5F5;" d="M382.07,284.19c-15.32-12.48-17.43-33.7-15.39-52.48c0.34-3.13,0.24-6.47,1.94-9.12
						c1.7-2.65,5.33-4.27,8.04-2.74c2.25,1.27,3.07,4.06,4.21,6.4c1.52,3.12,3.92,5.78,6.85,7.59c1.92,1.19,4.35,2.01,6.41,1.06
						c2.82-1.29,3.42-5.02,3.63-8.14c0.4-5.83,0.79-11.66,1.19-17.49c0.21-3.13,0.44-6.32,1.63-9.21c1.19-2.89,3.54-5.49,6.58-6.1
						c3.04-0.61,6.59,1.37,6.99,4.48c0.17,1.29-0.19,2.6-0.2,3.9c-0.01,1.3,0.49,2.78,1.69,3.24c1.22,0.46,2.54-0.33,3.54-1.18
						c3.46-2.92,5.95-6.82,8.3-10.71c2.35-3.89,4.64-7.88,7.82-11.11c3.18-3.23,7.43-5.65,11.93-5.58c4.5,0.08,9.06,3.2,9.87,7.67
						c0.81,4.49-2.09,8.77-5.16,12.13c-4.54,4.99-9.8,9.3-15.55,12.77c-1.04,0.63-2.16,1.3-2.62,2.43
						c-0.83,2.03,0.99,4.25,2.99,5.09c2.27,0.95,4.82,0.89,7.23,1.36c2.42,0.47,4.98,1.74,5.73,4.11c1.04,3.29-1.88,6.44-4.67,8.44
						c-5.59,4-11.86,7.03-18.45,8.9c-2.36,0.67-4.84,1.23-6.81,2.71c-1.97,1.48-3.3,4.2-2.34,6.49c0.96,2.29,3.78,3.21,6.22,2.94
						c2.44-0.27,4.69-1.42,7.05-2.11c4.42-1.3,9.94-0.6,12.42,3.32c1.63,2.57,1.53,5.98,0.4,8.83c-1.13,2.84-3.17,5.21-5.31,7.37
						c-7.48,7.57-16.78,13.42-27,16.13C401.01,288.3,391.71,288.55,382.07,284.19"/>
				</g>
			</g>
		</g>
		<g>
			<g>
				<g>
					<g>
						<path style="fill:#E0E0E0;" d="M380.79,298.13c1.24-7.41,3.52-16.1,7.02-25.38c3.48-9.3,8.13-19.17,13.35-29.33
							c1.32-2.53,2.61-5.04,3.9-7.51c1.28-2.46,2.56-4.9,3.95-7.21c2.77-4.63,5.78-8.88,8.77-12.82c2.99-3.94,5.96-7.58,8.77-10.95
							c2.82-3.37,5.5-6.46,8.07-9.18c5.12-5.45,9.76-9.35,13.05-11.9c1.65-1.28,2.95-2.23,3.85-2.86c0.43-0.3,0.77-0.54,1.02-0.71
							c0.23-0.16,0.35-0.23,0.36-0.23c0.01,0.01-0.1,0.1-0.33,0.27c-0.25,0.19-0.57,0.44-0.99,0.76c-0.87,0.66-2.16,1.64-3.78,2.95
							c-3.25,2.6-7.83,6.53-12.9,12c-2.54,2.72-5.2,5.83-8,9.21c-2.79,3.39-5.75,7.03-8.72,10.97c-2.97,3.94-5.96,8.18-8.7,12.79
							c-1.38,2.3-2.64,4.72-3.93,7.19c-1.28,2.47-2.58,4.97-3.89,7.51c-5.22,10.15-9.88,20-13.37,29.26
							c-3.51,9.25-5.83,17.89-7.11,25.26"/>
					</g>
				</g>
			</g>
		</g>
		<g>
			<g>
				<g>
					<g>
						<path style="fill:#E0E0E0;" d="M409.17,228.68c-0.04,0-0.11-0.48-0.21-1.36c-0.1-0.88-0.2-2.15-0.31-3.72
							c-0.21-3.15-0.35-7.5-0.49-12.3c-0.14-4.8-0.34-9.14-0.6-12.27c-0.13-1.57-0.24-2.83-0.33-3.71
							c-0.08-0.88-0.11-1.36-0.07-1.37c0.04-0.01,0.14,0.47,0.3,1.34c0.16,0.87,0.33,2.13,0.51,3.7c0.36,3.13,0.63,7.49,0.77,12.3
							c0.13,4.74,0.24,9.02,0.33,12.3c0.05,1.48,0.09,2.73,0.12,3.73C409.22,228.19,409.21,228.68,409.17,228.68z"/>
					</g>
				</g>
			</g>
		</g>
		<g>
			<g>
				<g>
					<g>
						<path style="fill:#E0E0E0;" d="M449.92,224.15c0,0.04-0.58,0.06-1.62,0.07c-1.04,0.02-2.54,0.03-4.4,0.11
							c-3.71,0.12-8.83,0.48-14.46,1.11c-5.63,0.65-10.7,1.45-14.36,2.13c-1.83,0.33-3.3,0.64-4.32,0.84
							c-1.02,0.21-1.59,0.31-1.6,0.27c-0.01-0.04,0.54-0.21,1.55-0.49c1.01-0.27,2.47-0.64,4.29-1.03
							c3.64-0.79,8.72-1.66,14.37-2.31c5.65-0.64,10.79-0.92,14.52-0.94c1.86-0.02,3.37,0.02,4.41,0.08
							C449.35,224.06,449.92,224.11,449.92,224.15z"/>
					</g>
				</g>
			</g>
		</g>
		<g>
			<g>
				<g>
					<g>
						<path style="fill:#E0E0E0;" d="M388.35,272.05c-0.02,0.01-0.1-0.17-0.24-0.51c-0.16-0.41-0.35-0.9-0.58-1.51
							c-0.5-1.31-1.17-3.22-1.96-5.6c-1.6-4.75-3.6-11.38-5.71-18.72c-2.11-7.35-4.05-13.98-5.54-18.76
							c-0.73-2.32-1.34-4.23-1.79-5.65c-0.19-0.62-0.35-1.12-0.48-1.54c-0.1-0.35-0.15-0.54-0.13-0.55c0.02-0.01,0.1,0.17,0.24,0.51
							c0.16,0.41,0.35,0.9,0.58,1.5c0.5,1.31,1.17,3.22,1.97,5.6c1.6,4.75,3.6,11.38,5.71,18.72c2.11,7.34,4.05,13.98,5.54,18.76
							c0.74,2.32,1.34,4.23,1.79,5.65c0.19,0.62,0.35,1.12,0.48,1.54C388.33,271.85,388.37,272.04,388.35,272.05z"/>
					</g>
				</g>
			</g>
		</g>
		<g>
			<g>
				<g>
					<g>
						<path style="fill:#E0E0E0;" d="M443.04,258.79c0,0.02-0.18,0.08-0.55,0.18c-0.43,0.11-0.95,0.24-1.59,0.4
							c-1.47,0.36-3.45,0.84-5.86,1.43c-4.94,1.21-11.76,2.95-19.28,4.9c-7.52,1.94-14.36,3.63-19.33,4.73
							c-2.49,0.55-4.5,0.98-5.9,1.25c-0.65,0.12-1.18,0.22-1.61,0.3c-0.37,0.06-0.57,0.08-0.57,0.06c0-0.02,0.18-0.08,0.55-0.18
							c0.43-0.11,0.95-0.24,1.59-0.4c1.47-0.36,3.45-0.84,5.86-1.43c4.94-1.21,11.76-2.95,19.28-4.9
							c7.52-1.94,14.36-3.63,19.33-4.73c2.49-0.55,4.5-0.98,5.9-1.25c0.65-0.12,1.18-0.22,1.61-0.3
							C442.84,258.8,443.03,258.77,443.04,258.79z"/>
					</g>
				</g>
			</g>
		</g>
	</g>
</g>
<g id="Background_Simple" style="display:none;">
	<g style="display:inline;">
		<path style="fill:#EBEBEB;" d="M85.73,347.8L85.73,347.8C70.4,325.26,65.55,297,73.31,270.87c3.02-10.15,7.69-19.8,13.95-28.37
			c18.66-25.55,50.78-40.64,82.36-38.69c18.57,1.15,37.61,7.69,55.32,1.99c23.05-7.42,34.85-32.29,44.1-54.68
			c9.24-22.38,27.35-45.74,49.88-54.63c20.96-8.27,54.11-8.3,68.24-2.78c53.85,21.03,58.45,92.22,47.42,130.97
			c-10.99,38.62-25.91,64.22-49.2,96.93c-32.63,45.81-89.28,73.43-144.69,83.1c-52.79,9.21-110.79-7.36-146.87-46.67
			C90.87,354.84,88.18,351.4,85.73,347.8z"/>
	</g>
</g>
<g id="Floor">
	<g>
		<path style="fill:#263238;" d="M465.75,458.85c0,0.14-94.61,0.26-211.3,0.26c-116.73,0-211.32-0.12-211.32-0.26
			c0-0.14,94.59-0.26,211.32-0.26C371.13,458.59,465.75,458.71,465.75,458.85z"/>
	</g>
</g>
<g id="Note">
	<g>
		<g>
			<path style="fill:#E0E0E0;" d="M170.77,77.79l24.12,73.55c9.59,2.67,19.35,4.79,30.97,1.03l54.92-19.87l-32.65-83.99
				L170.77,77.79z"/>
			<polygon style="fill:#FBA745;" points="165.6,75.37 189.73,148.92 220.7,149.96 275.62,130.08 247.76,47.45 			"/>
			<path style="fill:#FBA745;" d="M197.01,140.08l-7.28,8.85c0,0,6.5,3.55,13.1,3.7c6.59,0.16,12.39-0.68,17.88-2.67
				C220.7,149.96,206.7,150.79,197.01,140.08z"/>
			<path style="opacity:0.3;" d="M197.01,140.08c-2.21,4.48-4.45,9.72-7.28,8.85c0,0,6.5,3.55,13.1,3.7
				c6.59,0.16,12.39-0.68,17.88-2.67C220.7,149.96,206.7,150.79,197.01,140.08z"/>
		</g>
		<polygon style="fill:#E0E0E0;" points="166.12,93.83 194.14,63.69 187.85,57.76 158.98,87.73 		"/>
		<polygon style="fill:#E0E0E0;" points="263.84,61.8 225.65,46.46 222.37,54.46 260.7,70.66 		"/>
		<g>
			<path style="fill:#263238;" d="M247.47,76.66c0.05,0.14-13.9,5-31.14,10.87c-17.25,5.87-31.26,10.52-31.31,10.38
				c-0.05-0.14,13.89-5,31.14-10.87C233.4,81.17,247.42,76.52,247.47,76.66z"/>
		</g>
		<g>
			<path style="fill:#263238;" d="M251.03,88.01c0.05,0.14-13.9,5-31.14,10.87c-17.25,5.87-31.26,10.52-31.31,10.38
				c-0.05-0.14,13.89-5,31.14-10.87C236.96,92.52,250.98,87.88,251.03,88.01z"/>
		</g>
		<g>
			<path style="fill:#263238;" d="M254.77,97.88c0.05,0.14-13.9,5-31.14,10.87c-17.25,5.87-31.26,10.52-31.31,10.38
				c-0.05-0.14,13.89-5,31.14-10.87C240.71,102.39,254.73,97.74,254.77,97.88z"/>
		</g>
		<g>
			<path style="fill:#263238;" d="M257.98,107.51c0.05,0.14-13.9,5-31.14,10.87c-17.25,5.87-31.26,10.52-31.31,10.38
				c-0.05-0.14,13.89-5,31.14-10.87C243.91,112.02,257.93,107.38,257.98,107.51z"/>
		</g>
	</g>
</g>
<g id="Character_2">
	<g>
		<path style="fill:#FBA745;" d="M295.02,318.19l-4.84,45.05c0,0-9.43-14.25-15.81-7.9c-6.08,6.05-16.81,50.25-16.81,50.25
			s-0.15,14.41,7.52,18.22c24.55,12.19,51.89-10.79,51.89-10.79l-3.88-128.81h0C302.91,292.78,296.44,304.95,295.02,318.19z"/>
		<g>
			<g>
				<g>
					<g>
						<g>
							<g>
								<g>
									<g>
										<g>
											<g>
												<g>
													<path style="fill:#B78876;" d="M377.89,286.91l-42.51-3.4c-0.26-4.96,0.09-24.17,0.09-24.17s-17.69-2.75-17.91-20.44
														s2.85-58.3,2.85-58.3l0,0c20.47-8.8,44.1-5.83,61.76,7.76l2.62,2.02L377.89,286.91z"/>
												</g>
											</g>
										</g>
										<g>
											<g>
												<g>
													<path style="fill:#AA6550;" d="M335.44,259.1c0,0,11.18,0.91,23.06-6.55c0,0-5.45,12.73-23.1,11.13L335.44,259.1z"/>
												</g>
											</g>
										</g>
									</g>
								</g>
							</g>
							<g>
								<g>
									<g>
										<g>
											<path style="fill:#B78876;" d="M382.62,208.72c0.3-0.13,12.15-3.59,11.77,8.5c-0.39,12.09-12.45,9.21-12.46,8.86
												C381.92,225.73,382.62,208.72,382.62,208.72z"/>
										</g>
									</g>
								</g>
								<g>
									<g>
										<g>
											<g>
												<path style="fill:#AA6550;" d="M385.76,221.62c0.05-0.04,0.21,0.15,0.56,0.33c0.34,0.17,0.94,0.3,1.57,0.08
													c1.29-0.43,2.43-2.42,2.56-4.6c0.07-1.1-0.13-2.15-0.49-3.03c-0.34-0.9-0.89-1.53-1.53-1.67
													c-0.64-0.17-1.1,0.2-1.26,0.54c-0.17,0.33-0.1,0.58-0.17,0.6c-0.03,0.03-0.25-0.21-0.14-0.71
													c0.06-0.24,0.21-0.52,0.5-0.74c0.3-0.23,0.73-0.33,1.17-0.27c0.93,0.09,1.74,0.98,2.14,1.94
													c0.45,0.97,0.7,2.16,0.62,3.39c-0.16,2.43-1.48,4.67-3.24,5.12c-0.86,0.19-1.56-0.08-1.92-0.38
													C385.78,221.91,385.72,221.64,385.76,221.62z"/>
											</g>
										</g>
									</g>
								</g>
							</g>
							<g>
								<g>
									<g>
										<g>
											<g>
												<g>
													<g>
														<g>
															<g>
																<path style="fill:#263238;" d="M324.31,208.03c-0.05,1.33,1.04,2.47,2.44,2.55c1.39,0.07,2.56-0.94,2.6-2.28
																	c0.05-1.33-1.04-2.48-2.43-2.55C325.53,205.68,324.36,206.7,324.31,208.03z"/>
															</g>
														</g>
													</g>
													<g>
														<g>
															<g>
																<g>
																	<path style="fill:#263238;" d="M323.76,205.5c0.31,0.33,2.23-1.09,4.94-1.08c2.71-0.03,4.71,1.37,5,1.03
																		c0.14-0.15-0.17-0.74-1.04-1.37c-0.85-0.63-2.31-1.24-4.01-1.23c-1.69,0.01-3.12,0.63-3.94,1.27
																		C323.89,204.76,323.61,205.35,323.76,205.5z"/>
																</g>
															</g>
														</g>
													</g>
												</g>
												<g>
													<g>
														<g>
															<g>
																<path style="fill:#263238;" d="M350.93,208.98c-0.05,1.33,1.04,2.47,2.44,2.55c1.39,0.07,2.56-0.94,2.6-2.28
																	c0.05-1.33-1.04-2.47-2.43-2.55C352.14,206.63,350.97,207.65,350.93,208.98z"/>
															</g>
														</g>
													</g>
													<g>
														<g>
															<g>
																<g>
																	<path style="fill:#263238;" d="M350.47,206.01c0.31,0.33,2.23-1.09,4.95-1.08c2.71-0.03,4.71,1.37,5,1.03
																		c0.14-0.15-0.17-0.74-1.04-1.37c-0.85-0.63-2.31-1.24-4.01-1.24c-1.69,0.01-3.12,0.63-3.94,1.27
																		C350.61,205.27,350.32,205.86,350.47,206.01z"/>
																</g>
															</g>
														</g>
													</g>
												</g>
												<g>
													<g>
														<g>
															<g>
																<path style="fill:#263238;" d="M340.61,226.16c0.01-0.15-1.68-0.45-4.41-0.8c-0.69-0.07-1.35-0.21-1.47-0.68
																	c-0.16-0.5,0.13-1.25,0.46-2.06c0.65-1.68,1.34-3.44,2.05-5.28c2.85-7.52,4.91-13.71,4.61-13.82
																	c-0.3-0.11-2.86,5.9-5.71,13.42c-0.69,1.86-1.34,3.62-1.97,5.32c-0.26,0.79-0.71,1.68-0.36,2.72
																	c0.19,0.52,0.7,0.9,1.14,1.01c0.44,0.14,0.84,0.14,1.18,0.16C338.89,226.31,340.6,226.32,340.61,226.16z"/>
															</g>
														</g>
													</g>
												</g>
											</g>
										</g>
									</g>
									<g>
										<g>
											<g>
												<path style="fill:#263238;" d="M349.77,195.36c0.27,0.74,2.98,0.39,6.17,0.77c3.2,0.32,5.77,1.25,6.19,0.59
													c0.19-0.32-0.26-1.01-1.3-1.73c-1.03-0.71-2.67-1.39-4.59-1.61c-1.91-0.21-3.67,0.09-4.83,0.57
													C350.25,194.43,349.66,195.01,349.77,195.36z"/>
											</g>
										</g>
									</g>
									<g>
										<g>
											<g>
												<path style="fill:#263238;" d="M324.76,197.64c0.48,0.62,2.35-0.02,4.6-0.05c2.25-0.11,4.16,0.41,4.6-0.23
													c0.19-0.31-0.11-0.93-0.94-1.52c-0.82-0.58-2.19-1.06-3.74-1.01c-1.55,0.05-2.89,0.61-3.67,1.24
													C324.81,196.7,324.55,197.33,324.76,197.64z"/>
											</g>
										</g>
									</g>
								</g>
							</g>
						</g>
						<g>
							<path style="fill:#263238;" d="M311.8,169.46c-0.19-2.19,0.63-4.54,2.41-5.83c1.78-1.29,4.55-1.21,6,0.45
								c-0.83-2.95,1.58-6.36,4.65-6.55c2.88-0.18,5.34,2,8.13,2.76c2.72,0.75,5.64,0.1,8.26-0.95c2.62-1.05,5.06-2.51,7.71-3.48
								c5.53-2.02,11.85-1.77,17.19,0.69c5.35,2.46,9.66,7.08,11.73,12.59c3.87-1.21,8.26,0.76,10.65,4.03
								c2.38,3.28,3,7.58,2.52,11.6c-0.32,2.72-1.11,5.35-2.02,7.94c0,0.23,0.02,0.45,0.02,0.68c-0.18,9.72-1.28,21.15-5.43,21.21
								c-7.23,0.11-5.51-13.51-5.51-13.51c-8.87-3.43-5.57-16.73-7.79-18.74c-2.22-2.02-6.86-6.7-25.44,2.79
								c-7.21,3.69-16.81,3.57-22.04,2.38c-0.15-0.03-0.31-0.06-0.46-0.09c-0.03-0.01-0.08-0.01-0.11-0.02
								c-0.06-0.01-0.1-0.05-0.15-0.06c-1.67-0.43-3.28-1.08-4.77-2.02c-1.68-1.07-3.21-2.51-3.93-4.37
								c-0.71-1.86-0.45-4.18,1.01-5.54C313.06,173.69,311.99,171.65,311.8,169.46z"/>
						</g>
					</g>
					<g>
						<g>
							<g>
								<path style="fill:#FBA745;" d="M412.67,397.89l1.34,25.1l2.99,36.05H303.37l4.93-53.26l-9.68-84.15
									c0.84-29.74,12.26-42.1,35.62-44.94c0.19-0.02-2.04,0.25-1.84,0.23c3.22-0.38,0,0,1.84-0.23
									c15.11,4.65,30.22,4.64,45.33-0.03v0c7.01,0.3,12.81,2.45,18.77,3.6c18.77,3.6,34.22,18.1,37.97,30.72
									c3.09,10.39,25.44,100.52,25.44,100.52H417.3L412.67,397.89z"/>
							</g>
						</g>
					</g>
				</g>
			</g>
		</g>
		<path style="fill:#AA6550;" d="M338.3,234.52c0.43,1.08,0.86,2.17,1.58,3.09c0.71,0.91,1.76,1.64,2.92,1.69
			c1.23,0.06,2.43-0.67,3.11-1.7c0.69-1.03,0.92-2.31,0.87-3.54c-0.05-1.12-0.56-2.45-1.67-2.58c-0.46-0.05-0.92,0.12-1.35,0.3
			c-1.94,0.79-3.89,1.58-5.83,2.37"/>
		<g>
			<path style="fill:#263238;" d="M340.63,239.32c0.03-0.18,1.31,0.34,3.11-0.38c0.87-0.35,1.83-1.05,2.35-2.14
				c0.53-1.08,0.63-2.54,0.08-3.82c-0.13-0.32-0.32-0.61-0.51-0.87c-0.23-0.24-0.19-0.23-0.44-0.19c-0.24,0.06-0.62,0.24-0.93,0.37
				c-0.33,0.13-0.64,0.26-0.96,0.39c-1.25,0.5-2.38,0.95-3.33,1.3c-1.91,0.71-3.12,1.09-3.18,0.96c-0.06-0.13,1.05-0.75,2.89-1.63
				c0.92-0.44,2.02-0.96,3.25-1.51c0.31-0.14,0.62-0.28,0.94-0.42c0.34-0.14,0.6-0.29,1.07-0.44c0.23-0.06,0.55-0.1,0.87,0.03
				c0.31,0.13,0.5,0.33,0.64,0.51c0.26,0.35,0.49,0.7,0.66,1.11c0.69,1.59,0.52,3.36-0.18,4.67c-0.71,1.34-1.93,2.09-2.96,2.39
				c-1.05,0.32-1.95,0.25-2.53,0.1C340.88,239.58,340.61,239.38,340.63,239.32z"/>
		</g>
		<g>
			<g>
				<g>
					<g>
						<g>
							<g>
								<path style="fill:#B78876;" d="M298.44,392.87l-26.76-82.16l-2.42-13.8c0,0-7.28-30.75-7.6-33.8
									c-0.37-3.52-2.16-4.18-3.45-3.96c-2.01,0.35-3.17,2.99-2.94,6.02c0.08,1.05,1.98,17.51,1.98,17.51s-0.9-1.28-3.67-4.1
									c-2.77-2.82-8.68-3.97-14.53-3.15c-5.85,0.82-7.42,1.57-7.2,3.86c0.09,0.92,0.68,1.6,1.39,2.09
									c1.16,0.81,2.61,1.1,4.02,0.92c9.39-1.19,12.46,3.57,12.46,3.57l0.32,1.8c0,0-6.16-3.47-10.52-1.25
									c-0.71,0.36-1.26,0.82-1.7,1.32c-2.5,0.29-4.8,1.92-5.87,4.2c-1.11,2.37-0.84,5.33,0.68,7.46c0.73,1.02,1.96,1.9,3.15,1.53
									c0.63-0.2,1.1-0.71,1.55-1.19c0.24-0.25,0.49-0.5,0.77-0.71l1.6,4.93c0,0,4.18,10.89,5.46,15.83l13.03,82.73
									c1.81,11.47,12.67,19.23,24.11,17.22h0C294.73,417.57,302.35,404.88,298.44,392.87z"/>
							</g>
						</g>
					</g>
				</g>
				<g>
					<g>
						<g>
							<g>
								<g>
									<path style="fill:#B78876;" d="M268.85,309.87c-1.68,0.66-3.58-0.42-4.68-1.84c-1.1-1.43-1.68-3.19-2.67-4.69
										c-2.96-4.49-9.13-6.13-11.88-10.76c-0.38-0.65-0.65-1.56-0.1-2.07c0.51-0.47,1.33-0.23,1.97,0.04
										c5.48,2.31,10.96,4.61,16.44,6.92"/>
								</g>
							</g>
						</g>
					</g>
					<g>
						<g>
							<g>
								<g>
									<g>
										<path style="fill:#AA6550;" d="M267.93,297.46c0.03-0.06-0.58-0.39-1.7-0.93c-1.12-0.54-2.76-1.29-4.78-2.19
											c-2.12-0.93-4.52-1.98-7.15-3.13c-0.68-0.29-1.37-0.59-2.07-0.89c-0.68-0.23-1.46-0.84-2.63-0.45
											c-0.58,0.22-0.92,0.91-0.88,1.44c0.01,0.54,0.19,0.99,0.41,1.4c0.46,0.76,0.97,1.46,1.58,2.1
											c2.45,2.56,5.41,4.01,7.63,5.83c1.13,0.89,2.09,1.85,2.8,2.89c0.71,1.03,1.2,2.15,1.76,3.13
											c1.04,2.03,2.72,3.27,4.02,3.48c1.32,0.24,1.98-0.26,1.94-0.28c-0.02-0.1-0.7,0.24-1.85-0.1
											c-1.15-0.32-2.56-1.46-3.48-3.44c-0.5-0.97-0.96-2.11-1.69-3.25c-0.73-1.15-1.75-2.2-2.91-3.15
											c-2.29-1.93-5.23-3.43-7.48-5.8c-0.57-0.58-1.04-1.25-1.44-1.89c-0.37-0.64-0.4-1.33-0.02-1.44
											c0.4-0.18,1.15,0.13,1.86,0.43c0.71,0.29,1.4,0.58,2.08,0.86c2.66,1.07,5.09,2.06,7.23,2.92
											c2.06,0.82,3.74,1.47,4.91,1.89C267.24,297.32,267.9,297.53,267.93,297.46z"/>
									</g>
								</g>
							</g>
						</g>
					</g>
				</g>
				<g>
					<g>
						<g>
							<g>
								<g>
									<path style="fill:#AA6550;" d="M250.26,287.74c-0.13,0.04-0.06-1.44-1.42-3.05c-0.67-0.79-1.74-1.47-3.09-1.77
										c-1.34-0.32-2.89-0.3-4.52-0.16c-1.63,0.13-3.23,0.28-4.69,0.09c-1.45-0.19-2.74-0.64-3.65-1.35
										c-0.93-0.71-1.22-1.72-1.19-2.33c0.03-0.63,0.19-0.94,0.21-0.94c0.06,0.01-0.01,0.35,0.04,0.93
										c0.05,0.57,0.37,1.39,1.22,1.98c0.83,0.59,2.06,0.98,3.43,1.12c1.38,0.15,2.93-0.01,4.57-0.15
										c1.65-0.14,3.28-0.15,4.72,0.23c1.44,0.35,2.62,1.16,3.3,2.06c0.7,0.89,0.96,1.79,1.06,2.39
										C250.35,287.4,250.3,287.74,250.26,287.74z"/>
								</g>
							</g>
						</g>
					</g>
				</g>
				<g>
					<g>
						<g>
							<g>
								<g>
									<path style="fill:#AA6550;" d="M255.2,264.02c0.09,0,0.21,1.25,0.4,3.27c0.22,2.25,0.48,4.93,0.76,7.89
										c0.33,2.96,0.63,5.64,0.88,7.88c0.23,2.02,0.38,3.27,0.28,3.28c-0.09,0.02-0.39-1.21-0.74-3.21
										c-0.36-2-0.75-4.79-1.08-7.88c-0.32-3.09-0.51-5.9-0.57-7.93C255.07,265.28,255.11,264.02,255.2,264.02z"/>
								</g>
							</g>
						</g>
					</g>
				</g>
				<g>
					<g>
						<g>
							<g>
								<g>
									<path style="fill:#AA6550;" d="M246.94,291.86c-0.02,0.05-0.37-0.08-1-0.27c-0.6-0.17-1.62-0.43-2.54,0.15
										c-0.45,0.28-0.71,0.81-0.7,1.46c-0.01,0.64,0.2,1.34,0.38,2.11c0.18,0.76,0.35,1.72-0.11,2.62
										c-0.46,0.87-1.38,1.44-2.37,1.57c-1.02,0.14-1.99-0.26-2.7-0.84c-0.71-0.59-1.22-1.33-1.46-2.16
										c-0.41-1.59-0.43-3.02-0.39-4.22c0.06-1.2,0.27-2.17,0.54-2.8c0.27-0.63,0.56-0.89,0.58-0.87
										c0.05,0.04-0.16,0.34-0.34,0.96c-0.19,0.62-0.32,1.56-0.32,2.73c0.01,1.16,0.1,2.59,0.5,4.04c0.42,1.33,1.86,2.72,3.5,2.52
										c0.8-0.1,1.54-0.58,1.89-1.22c0.35-0.65,0.26-1.44,0.09-2.19c-0.16-0.75-0.38-1.51-0.34-2.27c0-0.75,0.4-1.52,1-1.83
										c1.2-0.66,2.29-0.23,2.88,0C246.65,291.62,246.96,291.82,246.94,291.86z"/>
								</g>
							</g>
						</g>
					</g>
				</g>
				<g>
					<g>
						<g>
							<g>
								<g>
									<path style="fill:#AA6550;" d="M238.12,298.14c0.03-0.01,0.16,0.33,0.01,0.94c-0.15,0.58-0.65,1.46-1.73,1.9
										c-1.06,0.42-2.57,0.23-3.73-0.73c-1.16-0.95-1.89-2.5-2.08-4.16c-0.18-1.67,0.21-3.29,0.93-4.55
										c0.72-1.27,1.75-2.14,2.68-2.67c0.94-0.54,1.8-0.76,2.4-0.85c0.6-0.08,0.93-0.05,0.93-0.01c0.03,0.13-1.35,0.14-3.08,1.25
										c-0.85,0.55-1.77,1.4-2.4,2.57c-0.64,1.16-0.98,2.66-0.81,4.18c0.16,1.52,0.82,2.93,1.81,3.77
										c0.98,0.85,2.27,1.06,3.18,0.75c0.93-0.31,1.44-1.03,1.64-1.54C238.09,298.48,238.06,298.14,238.12,298.14z"/>
								</g>
							</g>
						</g>
					</g>
				</g>
				<g>
					<g>
						<g>
							<g>
								<g>
									<path style="fill:#AA6550;" d="M250.65,307.93c-0.01-0.06,0.57-0.24,1.58-0.15c0.99,0.09,2.43,0.53,3.65,1.71l-0.54,0.22
										c0-0.7,0.04-1.46,0.13-2.23c0.5-4.34,2.53-7.35,2.65-7.24c0.18,0.08-1.53,3.14-2,7.32c-0.09,0.75-0.14,1.48-0.15,2.16
										l-0.02,0.75l-0.52-0.53c-1.07-1.08-2.35-1.57-3.27-1.76C251.23,307.97,250.65,308.01,250.65,307.93z"/>
								</g>
							</g>
						</g>
					</g>
				</g>
				<g>
					<g>
						<g>
							<g>
								<g>
									<path style="fill:#AA6550;" d="M247.32,279.93c0.16,0.06-0.35,1.31-1.73,2.08c-1.37,0.79-2.71,0.58-2.67,0.41
										c0-0.19,1.16-0.29,2.35-0.98C246.47,280.77,247.15,279.83,247.32,279.93z"/>
								</g>
							</g>
						</g>
					</g>
				</g>
			</g>
		</g>
		<g>
			<path style="fill:#FAFAFA;" d="M319.64,279.92c0.03,0.03-0.37,0.4-1.04,1.17c-0.64,0.78-1.68,1.94-2.32,3.72
				c-0.16,0.45-0.24,0.93-0.26,1.44c0.01,0.51,0.13,1.03,0.38,1.51c0.54,0.96,1.63,1.68,2.88,2.14c2.54,0.95,5.7,1.23,9.15,1.29
				c1.73,0.03,3.58,0.1,5.48,0.21c0.95,0.11,1.92,0.23,2.91,0.34c0.99,0.11,1.98,0.37,2.99,0.56c4.01,0.91,8.29,2.45,12.02,5.34
				c1.86,1.42,3.58,3.15,4.97,5.21c0.33,0.52,0.66,1.06,0.94,1.62c0.29,0.58,0.49,1.16,0.74,1.73c0.44,1.17,0.81,2.4,1.04,3.66
				c1,5.02,0.23,10.58-2.35,15.37c-2.61,4.81-7.04,8.3-11.82,10.09c-2.4,0.9-4.9,1.37-7.36,1.46c-2.47,0.08-4.87-0.36-7.12-0.87
				c-2.25-0.5-4.42-1.02-6.54-1.17c-2.12-0.15-4.18,0.15-5.94,1.05c-1.76,0.88-3.2,2.22-4.45,3.61c-1.25,1.4-2.31,2.87-3.36,4.27
				c-2.08,2.79-4.27,5.24-6.84,6.53c-1.26,0.64-2.59,1.01-3.81,1c-1.22,0.01-2.32-0.23-3.25-0.61c-0.93-0.37-1.67-0.88-2.23-1.41
				c-0.55-0.54-0.9-1.1-1.12-1.58c-0.41-0.97-0.35-1.54-0.35-1.54c0.07-0.01,0.09,0.55,0.54,1.44c0.24,0.44,0.6,0.95,1.14,1.44
				c0.55,0.48,1.27,0.93,2.16,1.26c1.76,0.65,4.27,0.82,6.64-0.53c2.4-1.27,4.49-3.66,6.51-6.46c1.02-1.4,2.08-2.9,3.34-4.36
				c1.27-1.44,2.76-2.87,4.66-3.85c1.9-0.99,4.16-1.33,6.39-1.19c2.24,0.14,4.45,0.66,6.69,1.14c2.24,0.49,4.53,0.89,6.88,0.81
				c2.35-0.1,4.74-0.55,7.03-1.42c4.57-1.73,8.79-5.06,11.26-9.64c2.46-4.56,3.21-9.88,2.27-14.68c-0.22-1.2-0.56-2.37-0.98-3.5
				c-0.23-0.56-0.44-1.14-0.69-1.64c-0.26-0.52-0.56-1.03-0.88-1.52c-1.3-1.95-2.94-3.62-4.72-4.99c-3.56-2.8-7.71-4.33-11.63-5.26
				c-0.99-0.19-1.96-0.46-2.93-0.58c-0.97-0.12-1.92-0.25-2.86-0.37c-1.88-0.13-3.68-0.22-5.43-0.27c-3.49-0.12-6.7-0.44-9.34-1.49
				c-1.31-0.51-2.5-1.31-3.11-2.45c-0.29-0.57-0.41-1.18-0.4-1.76c0.04-0.57,0.15-1.1,0.33-1.57c0.75-1.87,1.85-2.99,2.55-3.73
				C319.17,280.22,319.61,279.9,319.64,279.92z"/>
		</g>
		<g>
			<path style="fill:#FAFAFA;" d="M395.71,346.6c-0.05,0.01-0.3-0.77-0.48-2.25c-0.19-1.47-0.17-3.66,0.42-6.27
				c0.57-2.61,1.85-5.59,3.88-8.48c2.04-2.88,4.88-5.65,8.4-7.75c3.53-2.06,7.24-3.33,10.68-4.03c3.44-0.72,6.6-0.94,9.25-0.95
				c2.64-0.01,4.78,0.14,6.24,0.32c1.46,0.17,2.27,0.33,2.26,0.39c-0.01,0.18-3.26-0.17-8.48,0.03c-2.61,0.11-5.71,0.4-9.06,1.15
				c-3.35,0.74-6.94,2-10.35,3.99c-3.38,2.02-6.14,4.66-8.15,7.41c-2,2.76-3.31,5.6-3.95,8.1c-0.65,2.5-0.79,4.62-0.73,6.06
				C395.68,345.77,395.8,346.58,395.71,346.6z"/>
		</g>
		<g>
			<path style="fill:#FAFAFA;" d="M450.35,363.98c0.05,0.04-0.34,0.68-1.18,1.76c-0.83,1.08-2.17,2.54-4.03,4.13
				c-1.85,1.59-4.28,3.25-7.21,4.64c-2.92,1.4-6.37,2.48-10.09,2.94c-3.73,0.43-7.33,0.2-10.51-0.46c-3.18-0.66-5.93-1.69-8.11-2.79
				c-2.18-1.1-3.83-2.21-4.89-3.06c-1.07-0.84-1.6-1.38-1.56-1.43c0.12-0.17,2.41,1.83,6.77,3.82c4.31,2,10.92,3.75,18.17,2.88
				c7.25-0.88,13.25-4.16,16.96-7.12C448.45,366.33,450.19,363.85,450.35,363.98z"/>
		</g>
		<g>
			<path style="fill:#FAFAFA;" d="M400.12,360.78c0.01,0.04-0.32,0.14-0.91,0.37c-0.59,0.23-1.44,0.68-2.29,1.52
				c-0.85,0.85-1.66,2.1-2.3,3.69c-0.64,1.6-1.16,3.51-1.61,5.64c-0.46,2.14-0.81,4.54-1.63,7.05c-0.42,1.25-0.96,2.53-1.73,3.73
				c-0.78,1.19-1.76,2.31-2.92,3.26c-2.3,1.93-5.19,3.27-8.26,4.18c-3.08,0.91-6.34,1.41-9.62,2.06c-6.54,1.21-12.53,3.63-17.1,7.12
				c-2.29,1.72-4.2,3.7-5.7,5.74c-1.47,2.07-2.54,4.21-3.25,6.26c-1.41,4.11-1.42,7.73-1.06,10.12c0.36,2.41,0.91,3.68,0.8,3.71
				c-0.03,0.01-0.18-0.29-0.42-0.9c-0.13-0.3-0.25-0.68-0.39-1.14c-0.15-0.45-0.27-0.99-0.39-1.6c-0.49-2.42-0.61-6.15,0.76-10.42
				c0.69-2.12,1.75-4.35,3.25-6.52c1.53-2.15,3.48-4.2,5.82-6c4.67-3.64,10.83-6.15,17.48-7.38c3.31-0.65,6.54-1.14,9.53-2.01
				c2.98-0.86,5.75-2.14,7.94-3.94c1.1-0.88,2.02-1.92,2.76-3.02c0.73-1.11,1.26-2.31,1.68-3.5c0.82-2.4,1.22-4.78,1.73-6.93
				c0.5-2.16,1.08-4.08,1.79-5.71c0.72-1.63,1.62-2.91,2.56-3.76c0.95-0.84,1.87-1.25,2.5-1.43
				C399.77,360.78,400.12,360.76,400.12,360.78z"/>
		</g>
		<g>
			<path style="fill:#FAFAFA;" d="M373.33,356.61c0.04-0.02,0.41,0.67,0.52,2.05c0.11,1.36-0.18,3.46-1.6,5.53
				c-0.71,1.02-1.69,2.04-3.01,2.73c-0.65,0.37-1.39,0.61-2.17,0.79c-0.78,0.13-1.61,0.2-2.44,0.1c-1.67-0.17-3.36-0.83-4.8-1.94
				c-1.43-1.11-2.62-2.72-3.1-4.64c-0.3-1.22-0.32-2.49-0.05-3.68c0.26-1.21,0.93-2.27,1.59-3.14c0.68-0.89,1.4-1.69,2.19-2.4
				c0.4-0.35,0.81-0.68,1.27-0.95c0.46-0.27,0.95-0.52,1.57-0.55l0.13,0.89c-0.17,0.04-0.33,0.08-0.49,0.12l-0.25-0.86
				c2.01-0.58,3.99-0.32,5.51,0.3c1.55,0.59,2.69,1.54,3.48,2.4c0.78,0.88,1.2,1.72,1.42,2.3
				C373.32,356.27,373.37,356.6,373.33,356.61c-0.13,0.06-0.43-1.29-2.02-2.87c-0.79-0.77-1.9-1.59-3.35-2.08
				c-1.43-0.52-3.23-0.68-4.99-0.13l-0.25-0.86c0.16-0.04,0.32-0.09,0.49-0.13l0.13,0.89c-0.7,0.07-1.53,0.66-2.23,1.31
				c-0.72,0.66-1.4,1.44-2.03,2.28c-0.64,0.85-1.17,1.73-1.39,2.76c-0.23,1.02-0.21,2.13,0.05,3.2c0.41,1.66,1.44,3.08,2.71,4.08
				c1.28,1,2.8,1.62,4.28,1.79c0.74,0.1,1.47,0.05,2.17-0.05c0.69-0.15,1.35-0.34,1.94-0.65c1.2-0.58,2.12-1.49,2.81-2.4
				c1.38-1.86,1.78-3.8,1.79-5.09C373.46,357.36,373.23,356.64,373.33,356.61z"/>
		</g>
		<g>
			<path style="fill:#263238;" d="M308.8,323.95c0.01,0,0.01,0.09,0.01,0.27c-0.01,0.21-0.01,0.47-0.03,0.79
				c-0.04,0.73-0.09,1.74-0.15,3.02c-0.16,2.62-0.31,6.41-0.52,11.09c-0.39,9.37-0.77,22.31-1.08,36.62
				c-0.31,14.31-0.49,27.26-0.63,36.64c-0.07,4.66-0.13,8.44-0.17,11.1c-0.03,1.28-0.05,2.29-0.06,3.02
				c-0.01,0.32-0.02,0.58-0.03,0.78c-0.01,0.18-0.02,0.27-0.03,0.27c-0.01,0-0.02-0.09-0.03-0.27c-0.01-0.21-0.01-0.47-0.02-0.79
				c-0.01-0.73-0.02-1.74-0.03-3.02c0-2.66,0-6.45,0-11.11c0.04-9.38,0.17-22.33,0.48-36.64c0.3-14.31,0.74-27.26,1.23-36.62
				c0.26-4.68,0.47-8.47,0.69-11.09c0.1-1.28,0.19-2.28,0.25-3.01c0.03-0.32,0.06-0.58,0.08-0.78
				C308.78,324.04,308.8,323.95,308.8,323.95z"/>
		</g>
		<g style="opacity:0.2;">
			<path d="M289.69,416.93c5.58,2.67,12.87-2.46,15.72-7.95c0,0,1.49-12.1,1.28-18.28c-0.38-11.44,0.45-22.77,0.07-34.21
				c-0.86,6.81-3.74,13.34-8.16,18.58c-1.22,1.45-2.61,2.88-3.07,4.73c-0.82,3.3,1.7,9.23,3.32,12.22c4.96,9.14-5.9,24.96-8.8,24.67
				"/>
		</g>
		<g style="opacity:0.2;">
			<path d="M394.12,342.28c1.83,22.8,3.65,45.6,5.48,68.4c0.17,2.15,0.36,4.35,1.2,6.34c0.85,1.99,2.49,3.77,4.6,4.2
				c3.24,0.66,6.38-2.13,7.3-5.31c0.92-3.18,0.18-6.57-0.61-9.79c-1.36-5.47-2.89-10.89-4.43-16.31
				c-4.46-15.73-8.92-31.46-13.39-47.18"/>
		</g>
		<g>
			<path style="fill:#FAFAFA;" d="M331.44,459.07c-0.11-0.06,0.95-1.14,1.52-3.63c0.57-2.47,0.21-6.29-1.7-10.42
				c-0.94-2.07-2.27-4.21-3.61-6.58c-1.33-2.36-2.73-5-3.39-8.08c-0.67-3.09-0.29-6.47,0.71-9.68c0.98-3.22,2.44-6.35,3.62-9.63
				c2.5-6.5,2.37-13.43,0.5-19.13c-0.92-2.86-2.25-5.41-3.79-7.59c-1.56-2.17-3.31-3.97-5.06-5.42c-3.53-2.9-6.98-4.42-9.39-5.24
				c-2.43-0.81-3.85-1.03-3.83-1.13c0.01-0.04,0.36,0,1.04,0.09c0.67,0.1,1.67,0.29,2.91,0.65c2.49,0.71,6.05,2.16,9.73,5.05
				c1.82,1.46,3.66,3.27,5.29,5.49c1.62,2.23,3.02,4.85,4,7.8c0.97,2.94,1.54,6.19,1.5,9.57c0.01,3.38-0.7,6.88-1.93,10.21
				c-1.2,3.34-2.66,6.45-3.62,9.58c-0.98,3.11-1.35,6.28-0.74,9.19c0.59,2.91,1.92,5.49,3.2,7.85c1.3,2.37,2.6,4.55,3.53,6.7
				c1.88,4.29,2.14,8.28,1.42,10.82c-0.34,1.28-0.87,2.17-1.23,2.74C331.71,458.83,331.47,459.09,331.44,459.07z"/>
		</g>
		<g>
			<path style="fill:#FAFAFA;" d="M425.32,294.56c0.05,0.02-0.19,0.78-0.97,1.99c-0.77,1.2-2.17,2.81-4.34,4.21
				c-2.15,1.41-5.12,2.54-8.53,2.82c-3.4,0.3-7.17-0.2-10.89-1.39c-3.72-1.18-7.11-3.03-9.51-5.52c-1.19-1.23-2.15-2.6-2.77-4
				c-0.62-1.4-0.96-2.81-1.08-4.1c-0.24-2.6,0.41-4.7,1.11-5.95c0.16-0.32,0.34-0.59,0.51-0.81c0.15-0.23,0.3-0.41,0.44-0.55
				c0.26-0.28,0.4-0.41,0.43-0.39c0.08,0.06-0.44,0.66-1.01,1.92c-0.56,1.25-1.06,3.25-0.74,5.69c0.16,1.21,0.51,2.52,1.13,3.82
				c0.61,1.29,1.53,2.55,2.67,3.69c2.29,2.3,5.53,4.06,9.14,5.2c3.61,1.15,7.24,1.66,10.5,1.43c3.26-0.22,6.1-1.21,8.21-2.49
				c2.13-1.27,3.55-2.73,4.4-3.82C424.87,295.22,425.24,294.52,425.32,294.56z"/>
		</g>
		<g>
			<path style="fill:#263238;" d="M411.63,402.13c-0.01,0-0.04-0.09-0.11-0.28c-0.07-0.22-0.15-0.49-0.26-0.84
				c-0.23-0.78-0.55-1.86-0.95-3.24c-0.81-2.85-1.97-6.92-3.4-11.93c-2.83-10.11-6.73-24.03-11.04-39.4
				c-2.13-7.7-4.17-15.03-6.02-21.71c-0.92-3.34-1.72-6.55-2.13-9.62c-0.42-3.07-0.44-5.98-0.03-8.59
				c0.87-5.25,3.44-8.97,5.66-10.88c1.11-0.98,2.13-1.53,2.81-1.89c0.33-0.14,0.6-0.25,0.81-0.34c0.18-0.07,0.28-0.11,0.28-0.1
				c0.05,0.08-1.58,0.53-3.77,2.48c-2.14,1.93-4.62,5.62-5.43,10.79c-0.39,2.57-0.34,5.45,0.09,8.47c0.43,3.04,1.24,6.22,2.16,9.55
				c1.86,6.67,3.91,14,6.06,21.7c4.25,15.39,8.1,29.32,10.89,39.44c1.36,5.03,2.47,9.11,3.24,11.97c0.36,1.39,0.65,2.48,0.86,3.26
				c0.09,0.35,0.16,0.63,0.21,0.85C411.62,402.03,411.64,402.13,411.63,402.13z"/>
		</g>
		<g>
			<path style="fill:#455A64;" d="M370.9,180.68c-0.07-0.01,0.18-0.77,0.01-2.14c-0.17-1.35-0.93-3.32-2.76-4.97
				c-1.78-1.7-4.71-2.71-7.96-2.63c-3.27,0.03-6.75,1.1-10.35,2.31c-1.81,0.6-3.59,1.16-5.35,1.55c-1.77,0.38-3.51,0.59-5.17,0.63
				c-3.33,0.1-6.31-0.44-8.71-1.15c-2.4-0.73-4.24-1.62-5.45-2.31c-0.61-0.34-1.07-0.64-1.37-0.85c-0.3-0.21-0.46-0.32-0.45-0.34
				c0.03-0.05,0.68,0.38,1.92,1c1.24,0.63,3.07,1.46,5.46,2.14c2.39,0.65,5.32,1.14,8.6,1.02c1.63-0.05,3.34-0.27,5.08-0.65
				c1.74-0.39,3.5-0.96,5.3-1.55c3.59-1.21,7.14-2.3,10.5-2.3c3.34-0.06,6.4,1.03,8.22,2.84c1.87,1.75,2.6,3.82,2.72,5.21
				C371.23,179.94,370.9,180.68,370.9,180.68z"/>
		</g>
		<g>
			<path style="fill:#455A64;" d="M384.66,210.57c-0.02,0.01-0.1-0.12-0.23-0.37c-0.14-0.25-0.33-0.63-0.55-1.13
				c-0.44-0.99-0.99-2.48-1.41-4.4c-0.4-1.91-0.66-4.25-0.46-6.84c0.16-2.6,0.97-5.34,1.58-8.22c0.63-2.86,0.78-5.72,0.02-8.13
				c-0.36-1.2-0.96-2.25-1.69-3.08c-0.74-0.81-1.65-1.36-2.54-1.67c-1.8-0.63-3.42-0.35-4.36,0.11c-0.95,0.48-1.31,1-1.36,0.95
				c0,0,0.3-0.57,1.26-1.13c0.96-0.54,2.66-0.9,4.58-0.28c0.95,0.3,1.93,0.86,2.74,1.72c0.8,0.86,1.44,1.97,1.83,3.23
				c0.82,2.51,0.67,5.48,0.04,8.38c-0.62,2.91-1.43,5.61-1.61,8.15c-0.22,2.53-0.01,4.83,0.34,6.73c0.36,1.89,0.85,3.38,1.24,4.39
				C384.44,210.01,384.7,210.55,384.66,210.57z"/>
		</g>
		<g>
			<path style="fill:#455A64;" d="M372.6,179.25c-0.02,0-0.01-0.25,0.01-0.71c0.02-0.52,0.04-1.19,0.08-2.03
				c0.02-1.75,0.07-4.34-0.82-7.34c-0.46-1.48-1.2-3.05-2.36-4.46c-1.15-1.4-2.76-2.63-4.74-3.13c-1.97-0.54-4.18-0.35-6.33,0.26
				c-2.16,0.61-4.24,1.69-6.33,2.87c-2.09,1.18-4.14,2.38-6.28,3.23c-2.15,0.83-4.36,1.26-6.47,1.3c-2.11,0.05-4.12-0.22-5.92-0.73
				c-1.8-0.51-3.41-1.21-4.81-1.98c-2.77-1.59-4.6-3.47-5.69-4.86c-0.56-0.69-0.92-1.28-1.15-1.68c-0.24-0.4-0.36-0.61-0.34-0.62
				c0.02-0.01,0.16,0.19,0.43,0.57c0.26,0.38,0.64,0.95,1.22,1.61c1.12,1.34,2.97,3.14,5.71,4.66c1.38,0.74,2.97,1.4,4.74,1.88
				c1.77,0.48,3.74,0.72,5.8,0.66c2.06-0.05,4.2-0.48,6.29-1.29c2.09-0.83,4.11-2.02,6.21-3.21c2.09-1.19,4.22-2.29,6.45-2.91
				c2.21-0.62,4.52-0.81,6.59-0.23c2.09,0.55,3.78,1.86,4.95,3.32c1.19,1.47,1.94,3.1,2.38,4.63c0.86,3.09,0.74,5.7,0.67,7.46
				c-0.05,0.88-0.12,1.57-0.17,2.03C372.66,179.01,372.62,179.26,372.6,179.25z"/>
		</g>
		<g>
			<g>
				<g>
					<path style="fill:#B78876;" d="M346.19,429.3l74.78-11.15l-1.21-6.65h40.25l1.18,10.23c3.65,18.96-10.77,36.59-30.07,36.78
						l-87.22-0.97L346.19,429.3z"/>
					<g>
						<path style="fill:#B78876;" d="M351.59,430.58c-0.4,0.13-5.44-2.13-9.95-4.21c-4.79-2.22-10.05-3.24-15.32-2.97l-20.79,1.06
							c0,0,1.28,3.43,3.49,4.65c2.2,1.22,15.13,1.48,15.13,1.48l-0.66,0.68c-2.72,2.8-6.44,4.43-10.35,4.53l-1.99,0.05
							c-1.47-0.12-2.93-0.4-4.34-0.85l-5.13-2.07c-1.55-0.7-3.19-0.59-3.87,0.98c-0.61,1.41-0.16,3.36,4.07,5.49
							c2.37,1.19,11.14,4.23,11.14,4.23s0.13,2.43,0.51,3.7c0.38,1.28,3.83,2.55,3.83,2.55s2.17,4.47,3.06,5.49
							c0.4,0.46,3.52,1.43,6.85,2.36c5.36,1.51,11.04,1.47,16.38-0.12l7.92-2.37v-24.14"/>
					</g>
				</g>
				<g>
					<path style="fill:#AA6550;" d="M323.14,446.35c-0.01,0.13-2.48,0.01-5.41-0.77c-2.93-0.77-5.14-1.87-5.09-1.99
						c0.06-0.14,2.33,0.73,5.22,1.49C320.76,445.85,323.16,446.2,323.14,446.35z"/>
				</g>
				<g>
					<path style="fill:#AA6550;" d="M322.41,451.22c0,0.14-1.34,0.22-2.92-0.21c-1.59-0.43-2.7-1.18-2.63-1.3
						c0.07-0.13,1.25,0.39,2.77,0.79C321.14,450.93,322.42,451.07,322.41,451.22z"/>
				</g>
				<g>
					<path style="fill:#AA6550;" d="M440.73,435.59c-0.1,0.04-0.59-1.45-1.79-3.64c-0.59-1.1-1.4-2.35-2.39-3.66
						c-1.02-1.3-2.23-2.65-3.63-3.93c-1.42-1.26-2.9-2.32-4.29-3.19c-1.41-0.85-2.74-1.52-3.9-1.99c-2.31-0.96-3.83-1.29-3.81-1.39
						c0.01-0.04,0.39,0.03,1.08,0.18c0.35,0.07,0.77,0.17,1.24,0.33c0.48,0.15,1.03,0.3,1.62,0.54c1.19,0.43,2.56,1.08,4.01,1.92
						c1.44,0.86,2.95,1.93,4.4,3.22c1.43,1.3,2.66,2.69,3.67,4.02c0.99,1.35,1.78,2.64,2.34,3.78c0.31,0.55,0.51,1.09,0.71,1.55
						c0.21,0.46,0.35,0.87,0.46,1.2C440.66,435.2,440.76,435.58,440.73,435.59z"/>
				</g>
			</g>
			<g>
				<path style="fill:#AA6550;" d="M326.21,428.72c0.05,0.05-0.55,0.72-1.61,1.72c-1.06,0.99-2.6,2.3-4.53,3.43
					c-1.93,1.13-3.88,1.76-5.31,2.05c-1.43,0.29-2.33,0.31-2.34,0.25c-0.05-0.19,3.6-0.52,7.39-2.75c1.88-1.1,3.43-2.35,4.55-3.26
					C325.47,429.24,326.16,428.66,326.21,428.72z"/>
			</g>
		</g>
	</g>
</g>
<g id="Character_1_1_">
	<g>
		<path style="fill:#FBA745;" d="M111.08,404.97c1.78,0-13.62,41.38-17.58,51.95c-0.44,1.17-0.75,2.2-0.75,2.2l107.82,0.19
			l-1.27-100.32c0-0.07-0.01-0.13-0.01-0.2l-9.02-71.76c-0.09-0.71-0.6-1.3-1.29-1.49c-4.27-1.16-19.65-5.13-31.42-5.56
			c-13.8-0.51-33.75,2.23-33.75,2.23s-17.9,1.85-27.76,5.4c-0.79,0.29-1.27,1.08-1.16,1.91L111.08,404.97z"/>
		<g>
			<path style="fill:#263238;" d="M160.87,360.5c0.03,0.01-0.16,0.48-0.54,1.3c-0.18,0.42-0.42,0.92-0.76,1.47
				c-0.33,0.56-0.66,1.21-1.14,1.87c-0.45,0.68-0.96,1.41-1.57,2.15c-0.58,0.77-1.29,1.5-2.02,2.29c-1.52,1.52-3.33,3.07-5.41,4.45
				c-2.09,1.35-4.23,2.39-6.24,3.18c-1.02,0.35-1.98,0.71-2.91,0.94c-0.92,0.27-1.8,0.44-2.6,0.59c-0.8,0.18-1.53,0.22-2.17,0.3
				c-0.64,0.08-1.2,0.11-1.65,0.11c-0.91,0.02-1.41,0.01-1.41-0.03c-0.01-0.11,2.01-0.1,5.17-0.74c0.79-0.16,1.65-0.35,2.55-0.64
				c0.92-0.24,1.86-0.61,2.86-0.97c1.97-0.8,4.07-1.84,6.13-3.17c2.04-1.36,3.83-2.87,5.35-4.35c0.73-0.77,1.45-1.48,2.03-2.23
				c0.62-0.71,1.14-1.43,1.61-2.08C159.97,362.31,160.77,360.45,160.87,360.5z"/>
		</g>
		<g style="opacity:0.2;">
			<path d="M96.41,449.1c10.2,4.33,21.96,2.64,30.93-3.87c3.89-2.82,7.15-6.51,11.35-8.85c5.82-3.25,12.75-3.55,19.4-4.03
				c8.9-0.63,17.86-1.73,26.22-4.82c1.69-0.63,3.43-1.38,4.59-2.77c1.16-1.39,1.55-3.58,0.42-4.99c-1.15-1.44-3.28-1.52-5.13-1.47
				c-27.88,0.82-53.36,3.06-80.5,9.51"/>
		</g>
		<path style="fill:#263238;" d="M126.46,176.76c8.62-8.77,22.22-13.95,33.49-9.02c7.58,3.31,12.71,10.42,19.36,15.34
			c4.84,3.58,10.83,6.35,13.36,11.81c2.24,4.81,1.16,10.42,0.62,15.7c-0.54,5.28-0.16,11.37,3.93,14.76
			c2.15,1.78,4.97,2.48,7.39,3.87c4.87,2.79,7.76,8.22,8.8,13.73c1.04,5.51,0.48,11.19-0.09,16.77l-23.21,4.42l-3.81-6.41
			l-1.33,10.08l-29.62,2.67L126.46,176.76z"/>
		<g>
			<g>
				<g>
					<g>
						<g>
							<g>
								<g>
									<g>
										<g>
											<g>
												<g>
													<path style="fill:#FFBE9D;" d="M122.63,186.34l-0.05,6.46l-1.83,96.8c-0.16,11.22,10.58,20.77,22.59,20.85l0,0
														c12.14,0.08,17.09-9.04,17.43-20.37c0.36-11.89,0.97-24.41,0.97-24.41s15.39-2.12,19.12-22.03
														c1.85-9.9,1.8-26.22,1.33-39.57c-0.42-12.02-10.76-21.26-22.74-20.33L122.63,186.34z"/>
												</g>
											</g>
										</g>
									</g>
								</g>
								<g>
									<g>
										<g>
											<g>
												<g>
													<g>
														<path style="fill:#263238;" d="M176.92,216.94c0.01,1.36-1.13,2.48-2.54,2.52c-1.41,0.04-2.57-1.03-2.58-2.38
															c-0.01-1.36,1.13-2.48,2.54-2.52C175.76,214.51,176.91,215.58,176.92,216.94z"/>
													</g>
												</g>
											</g>
										</g>
									</g>
									<g>
										<g>
											<g>
												<g>
													<g>
														<g>
															<path style="fill:#263238;" d="M178.43,212.46c-0.33,0.33-2.23-1.17-4.99-1.23c-2.76-0.11-4.82,1.26-5.11,0.91
																c-0.14-0.15,0.2-0.75,1.1-1.37c0.89-0.62,2.38-1.2,4.1-1.14c1.72,0.06,3.15,0.73,3.96,1.4
																C178.32,211.7,178.59,212.31,178.43,212.46z"/>
														</g>
													</g>
												</g>
											</g>
										</g>
									</g>
								</g>
								<g>
									<g>
										<g>
											<g>
												<g>
													<g>
														<path style="fill:#263238;" d="M149.74,216.94c0.01,1.36-1.13,2.48-2.54,2.52c-1.41,0.04-2.57-1.03-2.58-2.38
															c-0.01-1.36,1.13-2.48,2.54-2.52C148.58,214.51,149.73,215.58,149.74,216.94z"/>
													</g>
												</g>
											</g>
										</g>
									</g>
									<g>
										<g>
											<g>
												<g>
													<g>
														<g>
															<path style="fill:#263238;" d="M151.29,212.23c-0.33,0.33-2.23-1.17-4.99-1.23c-2.76-0.11-4.82,1.26-5.11,0.91
																c-0.14-0.15,0.2-0.75,1.1-1.37c0.89-0.62,2.38-1.2,4.1-1.14c1.72,0.06,3.15,0.73,3.96,1.4
																C151.18,211.47,151.45,212.08,151.29,212.23z"/>
														</g>
													</g>
												</g>
											</g>
										</g>
									</g>
								</g>
								<g>
									<g>
										<g>
											<g>
												<g>
													<g>
														<path style="fill:#263238;" d="M160.74,232.97c-0.01-0.16,1.72-0.41,4.5-0.68c0.71-0.05,1.38-0.18,1.51-0.65
															c0.18-0.5-0.09-1.27-0.41-2.1c-0.62-1.72-1.26-3.53-1.94-5.42c-2.68-7.72-4.6-14.06-4.29-14.16
															c0.31-0.11,2.74,6.07,5.42,13.78c0.64,1.9,1.26,3.72,1.85,5.45c0.24,0.81,0.68,1.73,0.29,2.78
															c-0.2,0.52-0.73,0.89-1.19,1c-0.46,0.13-0.85,0.12-1.2,0.13C162.48,233.16,160.75,233.12,160.74,232.97z"/>
													</g>
												</g>
											</g>
										</g>
									</g>
								</g>
								<g>
									<g>
										<g>
											<g>
												<g>
													<path style="fill:#EB996E;" d="M161.75,265.67c0,0-13.48,0.5-26.58-7.88c0,0,6.12,13.91,26.18,12.59L161.75,265.67z"/>
												</g>
											</g>
										</g>
									</g>
								</g>
								<g>
									<g>
										<g>
											<g>
												<g>
													<path style="fill:#EB996E;" d="M159.39,239.58c-0.96-1.34-2.67-2.11-4.41-1.97c-1.2,0.1-2.43,0.64-3.18,1.59
														c-0.75,0.95-0.94,2.34-0.31,3.28c0.72,1.07,2.26,1.35,3.59,1.01c1.33-0.34,2.48-1.17,3.58-2.01
														c0.3-0.23,0.62-0.47,0.81-0.79c0.19-0.32,0.25-0.75,0.02-1.03"/>
												</g>
											</g>
										</g>
									</g>
								</g>
								<g>
									<g>
										<g>
											<g>
												<g>
													<g>
														<path style="fill:#263238;" d="M152.57,234.65c0.45-0.01,0.37,2.98,2.88,5.18c2.5,2.2,5.7,1.96,5.71,2.37
															c0.04,0.19-0.73,0.56-2.08,0.56c-1.32,0.01-3.24-0.47-4.77-1.81c-1.53-1.35-2.15-3.1-2.22-4.34
															C152.01,235.36,152.36,234.63,152.57,234.65z"/>
													</g>
												</g>
											</g>
										</g>
									</g>
								</g>
							</g>
						</g>
					</g>
					<g>
						<g>
							<g>
								<g>
									<g>
										<path style="fill:#263238;" d="M152.17,204.2c-0.29,0.74-3.04,0.31-6.29,0.61c-3.25,0.24-5.89,1.11-6.3,0.43
											c-0.18-0.33,0.29-1.02,1.37-1.72c1.07-0.7,2.75-1.34,4.7-1.5c1.95-0.16,3.72,0.2,4.89,0.71
											C151.71,203.24,152.29,203.85,152.17,204.2z"/>
									</g>
								</g>
							</g>
						</g>
					</g>
					<g>
						<g>
							<g>
								<g>
									<g>
										<path style="fill:#263238;" d="M178.53,206.89c-0.61,0.61-2.9-0.1-5.69-0.21c-2.78-0.19-5.15,0.28-5.67-0.39
											c-0.23-0.32,0.16-0.94,1.21-1.51c1.03-0.56,2.74-1,4.65-0.9c1.91,0.1,3.55,0.72,4.5,1.38
											C178.49,205.93,178.8,206.59,178.53,206.89z"/>
									</g>
								</g>
							</g>
						</g>
					</g>
				</g>
			</g>
		</g>
		<path style="fill:#FBA745;" d="M102,285.77c0,0-32.16,7.55-38.4,38.04c-2.87,14.01-6.88,94.47,11.86,106.97
			c24.19,16.13,54.95,1.45,54.95,1.45l-3.95-38.92h-19.97l-2.69-42.64C104.55,353.95,102,285.77,102,285.77z"/>
		<path style="fill:#FBA745;" d="M216.4,419.71c6.23-0.64,12.18-3.74,16.28-8.48c4.1-4.74,6.3-11.08,6.03-17.34l-13.13-55.82
			c0,0-8.52-47.91-35.45-52.22l9.18,73.03l-0.88,15.39c0,0,0.42,10.18,1.45,29.26L216.4,419.71z"/>
		<g>
			<path style="fill:#263238;" d="M219.88,384.78c0,0.11-1.9-0.09-4.85,0.53c-2.92,0.6-6.92,2.24-10.14,5.52
				c-3.22,3.29-4.77,7.32-5.31,10.26c-0.56,2.96-0.32,4.86-0.43,4.86c-0.03,0-0.11-0.46-0.15-1.32c-0.05-0.85-0.02-2.09,0.22-3.61
				c0.45-3,1.99-7.17,5.3-10.56c3.31-3.38,7.45-5,10.44-5.51c1.51-0.27,2.75-0.33,3.6-0.3
				C219.42,384.68,219.89,384.75,219.88,384.78z"/>
		</g>
		<path style="fill:#263238;" d="M136.91,174.53c3.62,4.86,5.34,8.6,7.51,17.24c1.06,4.23-2.38,7.23-5.8,9.81
			c-1.6,1.21-3.92,0.37-4.36-1.6l0,0c0,0,1.19,13.25-3.6,19.19c-2.25,2.78-2.34,6.36-1.81,9.37c0.54,3.07,2.13,5.84,4.28,8.1
			c5.55,5.84,7.1,15.37,3.27,22.53c-0.98,1.83-2.26,3.51-3.04,5.44c-0.45,1.1-0.71,2.34-0.64,3.52c0.09,1.46-0.92,2.75-2.36,2.96
			c-16.44,2.39-33.15,2.89-49.7,1.49c-1.17-0.1-2.16-0.92-2.43-2.06c-1.3-5.49,0.87-11.48,3.64-16.53
			c3.1-5.65,7.04-11.06,8.11-17.41c1-5.98-0.63-12.42,1.77-17.99c2.95-6.83,10.96-10.06,14.97-16.32
			c3.78-5.91,3.48-13.66,6.87-19.81C117.94,174.56,128.65,170.92,136.91,174.53"/>
		<path style="fill:#263238;" d="M137.83,181.86c6.29,3.23,9.19,10.92,15.3,14.49c5.56,3.24,12.51,2.39,18.88,1.43
			c-0.24-1.41-0.47-2.83-0.71-4.24c0.64,1.24,1.31,2.51,2.36,3.43c1.05,0.92,2.58,1.44,3.87,0.92c2.14-0.86,2.42-3.8,1.87-6.04
			c-0.88-3.58-2.97-6.79-5.56-9.42c-4.7-4.78-11.16-7.79-17.84-8.32c-6.68-0.53-13.54,1.41-18.94,5.38"/>
		<g>
			<path style="fill:#263238;" d="M196.8,324.21c0.02,0,0.04,0.27,0.06,0.79c0.02,0.56,0.04,1.31,0.07,2.25
				c0.04,1.96,0.14,4.79,0.29,8.28c0.29,6.99,0.94,16.63,1.73,27.28c0.79,10.65,1.38,20.31,1.58,27.31c0.1,3.5,0.14,6.33,0.12,8.29
				c-0.01,0.94-0.02,1.69-0.03,2.25c-0.01,0.52-0.03,0.79-0.05,0.79c-0.02,0-0.04-0.27-0.06-0.79c-0.02-0.56-0.04-1.31-0.07-2.25
				c-0.04-1.96-0.14-4.79-0.29-8.28c-0.29-6.99-0.94-16.63-1.73-27.29c-0.79-10.65-1.38-20.31-1.58-27.31
				c-0.1-3.5-0.14-6.33-0.12-8.29c0.01-0.94,0.02-1.69,0.03-2.25C196.77,324.48,196.79,324.21,196.8,324.21z"/>
		</g>
		<g>
			<path style="fill:#263238;" d="M106.49,393.32c-0.02,0-0.04-0.19-0.07-0.56c-0.03-0.42-0.06-0.96-0.1-1.61
				c-0.08-1.47-0.19-3.47-0.33-5.9c-0.28-4.99-0.72-11.87-1.24-19.47c-0.53-7.57-1-14.42-1.35-19.47c-0.16-2.44-0.29-4.44-0.39-5.9
				c-0.03-0.65-0.06-1.18-0.08-1.61c-0.01-0.37-0.01-0.56,0.01-0.56c0.02,0,0.05,0.19,0.1,0.55c0.05,0.42,0.11,0.95,0.18,1.6
				c0.14,1.46,0.32,3.46,0.55,5.89c0.44,4.98,0.99,11.86,1.51,19.46c0.52,7.6,0.9,14.5,1.09,19.49c0.09,2.5,0.15,4.52,0.16,5.92
				c0,0.65,0,1.18,0.01,1.61C106.52,393.12,106.51,393.32,106.49,393.32z"/>
		</g>
		<g>
			<path style="fill:#263238;" d="M106.49,393.32c0.01,0.09-1.04,0.14-2.62,0.67c-1.56,0.52-3.65,1.63-5.28,3.56
				c-1.63,1.93-2.37,4.18-2.61,5.8c-0.26,1.64-0.12,2.69-0.22,2.69c-0.03,0-0.1-0.25-0.15-0.72c-0.06-0.47-0.08-1.17,0.01-2.02
				c0.16-1.69,0.88-4.06,2.58-6.09c1.71-2.02,3.93-3.14,5.56-3.58c0.82-0.23,1.51-0.32,1.99-0.35
				C106.23,393.26,106.49,393.28,106.49,393.32z"/>
		</g>
		<g>
			<path style="fill:#263238;" d="M130.41,432.24c-0.02,0-0.06-0.21-0.12-0.62c-0.06-0.46-0.14-1.05-0.23-1.78
				c-0.18-1.61-0.44-3.83-0.75-6.54c-0.59-5.59-1.39-13.19-2.27-21.6c-0.29-2.92-0.58-5.74-0.84-8.37l0.25,0.23
				c-6.41-0.04-11.96-0.07-15.99-0.09c-1.93-0.03-3.49-0.06-4.64-0.07c-0.5-0.02-0.91-0.03-1.24-0.04
				c-0.28-0.01-0.43-0.03-0.43-0.04c0-0.01,0.15-0.03,0.43-0.04c0.33-0.01,0.74-0.02,1.24-0.04c1.15-0.02,2.71-0.04,4.64-0.07
				c4.03-0.02,9.58-0.06,15.99-0.09l0.23,0l0.02,0.23c0.27,2.62,0.56,5.44,0.86,8.36c0.82,8.41,1.57,16.02,2.12,21.61
				c0.24,2.72,0.44,4.94,0.58,6.56c0.05,0.73,0.1,1.32,0.13,1.79C130.42,432.02,130.43,432.23,130.41,432.24z"/>
		</g>
		<g>
			<path style="fill:#263238;" d="M130.41,432.24c0.01,0.02-0.25,0.11-0.75,0.28c-0.55,0.17-1.28,0.41-2.19,0.7
				c-1.91,0.59-4.68,1.44-8.14,2.36c-3.46,0.92-7.62,1.91-12.32,2.56c-4.7,0.73-10.02,0.44-15.37-0.73
				c-2.68-0.58-5.25-1.32-7.69-2.17c-1.22-0.43-2.4-0.88-3.55-1.36c-0.57-0.24-1.14-0.46-1.69-0.76l-0.82-0.41l-0.76-0.49
				c-2.01-1.32-3.58-3.02-4.82-4.73c-1.25-1.72-2.19-3.46-2.97-5.07c-1.53-3.25-2.43-6.02-3.02-7.93c-0.29-0.96-0.51-1.7-0.65-2.21
				c-0.14-0.51-0.2-0.78-0.18-0.78c0.02-0.01,0.11,0.25,0.29,0.75c0.18,0.54,0.43,1.27,0.74,2.18c0.65,1.89,1.6,4.62,3.16,7.83
				c0.79,1.59,1.75,3.3,2.99,4.98c1.24,1.67,2.78,3.32,4.74,4.58l0.74,0.47l0.79,0.4c0.52,0.28,1.1,0.5,1.66,0.74
				c1.14,0.47,2.32,0.91,3.53,1.34c2.42,0.84,4.98,1.57,7.63,2.14c5.31,1.16,10.54,1.45,15.19,0.76c4.67-0.62,8.83-1.57,12.29-2.44
				c3.46-0.88,6.25-1.67,8.17-2.2c0.93-0.25,1.67-0.45,2.22-0.61C130.13,432.28,130.4,432.22,130.41,432.24z"/>
		</g>
		<path style="fill:#263238;" d="M113.44,198.22c2.06-4.64,0.73-10.47-2.92-13.99c-3.66-3.52-9.34-4.64-14.16-3.07
			c-2.16,0.7-4.2,1.94-5.53,3.78c-2.45,3.39-1.97,8.37,0.56,11.69c2.54,3.32,6.76,5.08,10.93,5.31c4.17,0.23,8.32-0.91,12.18-2.52"
			/>
		<g>
			<g>
				<path style="fill:#455A64;" d="M146.69,356.82c6.99,5.77,23.45,19.43,23.45,19.43l9.22-1.64l-27.92-23.49
					c-1.5-1.26-3.72-1.14-5.07,0.28h0C144.88,352.96,145.03,355.45,146.69,356.82z"/>
				<path style="fill:#455A64;" d="M145.95,353.82l-3.63-3.27c-0.71-0.64-0.78-1.73-0.17-2.46l0,0c0.65-0.77,1.81-0.84,2.55-0.16
					l3.49,3.19L145.95,353.82z"/>
				<g>
					<path style="fill:#263238;" d="M156.74,355.58c0.1,0.1-0.9,1.33-2.25,2.75c-1.35,1.42-2.52,2.49-2.62,2.39
						c-0.1-0.1,0.9-1.33,2.25-2.75C155.46,356.55,156.64,355.48,156.74,355.58z"/>
				</g>
				<g>
					<path style="fill:#263238;" d="M157.02,367.08c-0.04,0.06-1.12-0.62-2.79-1.82c-1.67-1.2-3.92-2.94-6.28-5
						c-1.17-1.01-2.36-2.06-2.94-3.38c-0.58-1.32-0.48-2.69-0.09-3.67c0.39-1,1.02-1.63,1.48-1.99c0.47-0.35,0.78-0.46,0.79-0.43
						c0.02,0.04-0.25,0.2-0.66,0.59c-0.4,0.39-0.95,1.02-1.26,1.96c-0.32,0.92-0.36,2.18,0.18,3.35c0.54,1.19,1.66,2.17,2.84,3.19
						c2.35,2.05,4.56,3.83,6.16,5.1C156.06,366.24,157.06,367.02,157.02,367.08z"/>
				</g>
			</g>
			<g>
				<path style="fill:#FFBE9D;" d="M126.77,396.43c6.63-2.23,13.68-0.73,20.31-2.96c2.22-0.75,4.51-1.53,6.27-3.09
					c2.11-1.87,3.18-4.62,4.86-6.88c5.02-6.76,14.4-8.16,22.77-9.02c1.96-0.2,3.96-0.4,5.86,0.08c1.91,0.48,3.73,1.79,4.26,3.68
					c0.54,1.89-0.69,4.25-2.64,4.45c1.84,0.08,3.12,1.94,3.46,3.75c0.34,1.81,0.04,3.68,0.28,5.5c0.34,2.56,1.74,4.95,1.66,7.53
					c-0.11,3.53-3.04,6.44-6.3,7.8c-3.26,1.36-6.87,1.54-10.36,2.03c-17.17,2.42-30.23,12.17-46.79,19.53"/>
				<path style="fill:#FFBE9D;" d="M192.08,388.82c0.57,1.18,2.31,1.44,3.38,0.7c1.07-0.75,1.49-2.2,1.3-3.49
					c-0.19-1.3-0.88-2.46-1.66-3.52c-1.41-1.93-3.11-3.62-4.81-5.31l-5.32,4.45L192.08,388.82z"/>
				<g>
					<path style="fill:#EB996E;" d="M190.12,383c-0.01,0.16-3.26-0.1-7.19,0.51c-3.94,0.58-6.96,1.79-7.02,1.64
						c-0.02-0.06,0.7-0.44,1.94-0.9c1.24-0.46,3.01-0.96,5-1.26c2-0.3,3.83-0.34,5.15-0.27C189.32,382.79,190.13,382.94,190.12,383z
						"/>
				</g>
				<g>
					<path style="fill:#EB996E;" d="M192.46,393.42c-0.03,0.16-2.74-0.4-6.1-0.3c-3.37,0.07-6.04,0.76-6.08,0.6
						c-0.05-0.12,2.62-1.05,6.07-1.12C189.79,392.5,192.5,393.3,192.46,393.42z"/>
				</g>
				<g>
					<path style="fill:#EB996E;" d="M191.9,390.34c-0.08-0.01,0-0.78-0.15-2c-0.15-1.21-0.59-2.89-1.61-4.44
						c-0.21-0.33-0.45-0.64-0.68-0.93l-0.15-0.19l0.17-0.16c1.11-1.09,1.42-2.55,1.38-3.52c-0.02-0.99-0.3-1.57-0.22-1.6
						c0.04-0.03,0.43,0.51,0.56,1.57c0.13,1.03-0.13,2.66-1.36,3.91l0.02-0.35c0.25,0.3,0.5,0.62,0.73,0.97
						c1.08,1.64,1.49,3.43,1.54,4.7C192.17,389.58,191.95,390.35,191.9,390.34z"/>
				</g>
			</g>
		</g>
		<path style="fill:#455A64;" d="M192.09,388.25l8.72,8.19l1.12,4.86l-8.07-1.82C192.7,395.37,191.85,391.46,192.09,388.25z"/>
		<path style="fill:#F5F5F5;" d="M180.28,398.67c-0.18,0.32-47.07,23.44-47.07,23.44v4.97l47.85-24.89l59.38-2.24v-3.52
			L180.28,398.67z"/>
		<path style="fill:#263238;" d="M133.2,427.8c0.33-0.22,51.77-4.86,51.77-4.86l55.46-22.99l-59.38,2.24l-47.85,24.89V427.8z"/>
		<g>
			<path style="fill:#FFBE9D;" d="M182.46,415.49c-0.42-2.69,2.16-5,4.79-5.72s5.44-0.43,8.1-1.04c1.71-0.39,3.31-1.13,4.94-1.76
				c8.2-3.15,17.2-3.31,25.98-3.43c1.09,2.34,0.19,5.43-1.99,6.82c0.8,2.1,0.56,4.5-0.27,6.59c-0.83,2.09-2.2,3.92-3.66,5.63
				c-1.24,1.45-2.6,2.87-4.34,3.63c-1.73,0.76-3.67,0.81-5.56,0.85c-5.89,0.12-12.21,0.13-17.09-3.18c-3.79-2.57-6.41-6.99-10.8-8.3
				c0.35,0.01,0.69,0.03,1.04,0.04"/>
			<g>
				<path style="fill:#EB996E;" d="M221.76,412.22c0,0.04-0.4,0.07-1.13,0.11c-0.84,0.03-1.87,0.06-3.08,0.1
					c-2.6,0.06-6.19,0.11-10.15,0.13c-1.98,0-3.86,0-5.59,0c-0.87-0.02-1.72-0.1-2.47-0.38c-0.75-0.28-1.38-0.74-1.79-1.3
					c-0.41-0.56-0.57-1.23-0.47-1.77c0.09-0.55,0.35-0.96,0.62-1.23c0.58-0.54,1.08-0.45,1.05-0.44c0.02,0.05-0.44,0.05-0.91,0.58
					c-0.46,0.49-0.81,1.66-0.01,2.64c0.37,0.48,0.95,0.88,1.63,1.11c0.69,0.23,1.49,0.3,2.34,0.31c1.73-0.01,3.61-0.03,5.58-0.04
					c3.96-0.02,7.55-0.01,10.15,0.03c1.21,0.03,2.24,0.05,3.08,0.07C221.36,412.15,221.76,412.18,221.76,412.22z"/>
			</g>
			<g>
				<path style="fill:#EB996E;" d="M218.74,417.16c0,0.04-0.5,0.13-1.42,0.28c-0.92,0.14-2.25,0.33-3.9,0.49
					c-1.65,0.15-3.64,0.27-5.85,0.14c-2.21-0.12-4.6-0.63-7.06-1.19c-4.91-1.2-9.47-1.57-12.77-1.57c-1.65-0.01-2.99,0.06-3.91,0.11
					c-0.92,0.05-1.44,0.08-1.44,0.04c0-0.03,0.5-0.13,1.42-0.25c0.92-0.11,2.26-0.24,3.93-0.27c3.32-0.1,7.96,0.22,12.89,1.43
					c2.46,0.56,4.81,1.08,6.98,1.22c2.17,0.16,4.14,0.08,5.78-0.03c1.65-0.11,2.98-0.25,3.91-0.32
					C218.23,417.15,218.74,417.12,218.74,417.16z"/>
			</g>
			<g>
				<path style="fill:#EB996E;" d="M213.85,422.44c0,0.04-0.39,0.11-1.1,0.21c-0.71,0.09-1.75,0.22-3.03,0.33
					c-2.56,0.21-6.17,0.43-10.08-0.33c-3.95-0.75-7.02-2.76-9.37-3.7c-2.35-1.01-3.96-1.12-3.95-1.21c0-0.02,0.41-0.05,1.12,0.06
					c0.72,0.1,1.75,0.35,2.96,0.81c2.44,0.88,5.5,2.81,9.34,3.53c3.82,0.74,7.4,0.58,9.95,0.47c1.2-0.07,2.21-0.12,3.04-0.17
					C213.44,422.41,213.84,422.4,213.85,422.44z"/>
			</g>
		</g>
		<g style="opacity:0.2;">
			<path d="M200.55,395.59c0.5-3.64,1.28-7.28,2.92-10.57c1.64-3.29,4.21-6.21,7.55-7.73c3.34-1.52,7.5-1.46,10.51,0.64
				c0.91,0.63,1.72,1.46,2.1,2.5c0.38,1.04,0.25,2.3-0.5,3.11c-1.11,1.17-2.97,0.99-4.58,0.92c-7.34-0.32-14.68,4.1-17.83,10.74"/>
		</g>
		<g style="opacity:0.2;">
			<path d="M113.71,392.55c3.97-7.17,2.56-16.16-0.48-23.76c-3.05-7.61-7.6-14.6-9.93-22.46c-0.44,15.89,1.89,31.86,6.85,46.96"/>
		</g>
		<path style="fill:#FBA745;" d="M120.75,282.88c0,0,4.85,11.43,22.35,10.7c17.5-0.73,18.06-14.3,18.06-14.3l11.71,12.45
			l-11.12,22.92l-14.94,11.15l-20.35-8.36l-16.77-13.01L120.75,282.88z"/>
		<g style="opacity:0.5;">
			<path style="fill:#FAFAFA;" d="M79.77,331.74c0.18,0.22-2.11,2.36-5.11,4.77c-3,2.41-5.58,4.18-5.76,3.96
				c-0.18-0.22,2.11-2.36,5.11-4.77C77.01,333.29,79.59,331.51,79.77,331.74z"/>
		</g>
		<g>
			<path style="fill:#FAFAFA;" d="M87.97,319.41c-0.09,0.26-2.85-0.52-5.84-2.36c-3-1.83-4.94-3.94-4.75-4.14
				c0.2-0.22,2.4,1.48,5.3,3.25C85.57,317.94,88.08,319.13,87.97,319.41z"/>
		</g>
		<g>
			<path style="fill:#FAFAFA;" d="M103,320.75c0.24,0.18-1.97,3.4-4.49,7.47c-2.53,4.07-4.42,7.48-4.69,7.35
				c-0.25-0.12,1.24-3.77,3.8-7.9C100.18,323.54,102.79,320.57,103,320.75z"/>
		</g>
		<g>
			<path style="fill:#FAFAFA;" d="M90.16,355.5c-0.2,0.18-2.51-2.17-4.53-5.67c-2.04-3.49-2.93-6.66-2.67-6.75
				c0.28-0.11,1.59,2.83,3.58,6.23C88.49,352.71,90.39,355.3,90.16,355.5z"/>
		</g>
		<g>
			<path style="fill:#FAFAFA;" d="M76.74,372.31c-0.29,0.04-0.87-2.51-1.3-5.68c-0.43-3.18-0.55-5.79-0.27-5.82
				c0.28-0.04,0.87,2.51,1.3,5.68C76.91,369.66,77.03,372.27,76.74,372.31z"/>
		</g>
		<g style="opacity:0.5;">
			<path style="fill:#FAFAFA;" d="M89.38,376.89c-0.25-0.14,1.04-2.82,2.87-5.98c1.83-3.16,3.52-5.61,3.77-5.46
				c0.25,0.14-1.04,2.82-2.87,5.99C91.32,374.59,89.63,377.04,89.38,376.89z"/>
		</g>
		<g>
			<path style="fill:#FAFAFA;" d="M74.7,394.3c-0.21,0.19-2.44-2-4.6-5.16c-2.17-3.16-3.41-6.03-3.16-6.15
				c0.26-0.14,1.89,2.46,4.02,5.56C73.08,391.66,74.92,394.11,74.7,394.3z"/>
		</g>
		<g>
			<path style="fill:#FAFAFA;" d="M94.65,391.43c0.2,0.2-2.09,2.85-5.13,5.91c-3.04,3.06-5.66,5.38-5.87,5.18
				c-0.2-0.2,2.09-2.85,5.13-5.91C91.81,393.55,94.44,391.23,94.65,391.43z"/>
		</g>
		<g style="opacity:0.5;">
			<path style="fill:#FAFAFA;" d="M83.31,427.36c-0.19,0.2-2.4-1.65-4.42-4.54c-2.03-2.89-3.01-5.6-2.76-5.71
				c0.27-0.13,1.64,2.31,3.61,5.11C81.69,425.03,83.52,427.15,83.31,427.36z"/>
		</g>
		<g>
			<path style="fill:#FAFAFA;" d="M109.05,420.09c0.14,0.25-2.32,1.92-5.49,3.73c-3.18,1.81-5.86,3.08-6.01,2.83
				c-0.14-0.25,2.32-1.92,5.49-3.73C106.22,421.11,108.91,419.84,109.05,420.09z"/>
		</g>
		<g>
			<path style="fill:#FAFAFA;" d="M119.08,411.81c-0.18,0.21-2.52-1.57-4.63-4.48c-2.13-2.9-3.11-5.67-2.86-5.77
				c0.27-0.13,1.64,2.36,3.7,5.16C117.33,409.52,119.29,411.59,119.08,411.81z"/>
		</g>
		<g>
			<path style="fill:#FAFAFA;" d="M136.77,354.22c0.17,0.23-2.48,2.5-5.91,5.08c-3.44,2.57-6.37,4.47-6.54,4.24
				c-0.17-0.23,2.47-2.5,5.91-5.08C133.67,355.89,136.6,353.99,136.77,354.22z"/>
		</g>
		<g>
			<path style="fill:#FAFAFA;" d="M118.13,353.02c-0.29-0.03-0.24-2.77,0.1-6.12c0.34-3.35,0.85-6.04,1.14-6.01
				c0.29,0.03,0.24,2.77-0.1,6.12C118.92,350.36,118.41,353.05,118.13,353.02z"/>
		</g>
		<g style="opacity:0.5;">
			<path style="fill:#FAFAFA;" d="M135.32,329.59c-0.16,0.23-3.26-1.68-6.66-4.59c-3.41-2.9-5.78-5.66-5.58-5.85
				c0.21-0.21,2.89,2.2,6.26,5.06C132.7,327.09,135.49,329.35,135.32,329.59z"/>
		</g>
		<g>
			<path style="fill:#FAFAFA;" d="M122.41,300.37c0.22,0.19-1.97,3.13-4.88,6.56c-2.92,3.44-5.46,6.08-5.68,5.89
				c-0.22-0.19,1.97-3.12,4.89-6.56C119.65,302.83,122.19,300.19,122.41,300.37z"/>
		</g>
		<g style="opacity:0.5;">
			<path style="fill:#FAFAFA;" d="M107.62,297.24c-0.16,0.26-2.39-0.89-5.3-1.87c-2.9-0.99-5.37-1.44-5.34-1.74
				c0.01-0.27,2.64-0.28,5.67,0.75C105.69,295.41,107.77,297.02,107.62,297.24z"/>
		</g>
		<g>
			<path style="fill:#FAFAFA;" d="M145.21,310.71c-0.28-0.08,0.2-2.51,1.06-5.44c0.86-2.92,1.78-5.22,2.05-5.14
				c0.28,0.08-0.2,2.51-1.06,5.44C146.41,308.49,145.49,310.8,145.21,310.71z"/>
		</g>
		<g>
			<path style="fill:#FAFAFA;" d="M154.2,333.73c-0.29-0.02-0.38-2.4-0.22-5.32c0.17-2.92,0.54-5.28,0.82-5.26
				c0.29,0.02,0.38,2.4,0.22,5.32C154.85,331.39,154.48,333.75,154.2,333.73z"/>
		</g>
		<g>
			<path style="fill:#FAFAFA;" d="M168.97,351c-0.18,0.22-2.37-1.24-4.89-3.26c-2.52-2.03-4.42-3.85-4.24-4.07
				c0.18-0.22,2.37,1.24,4.89,3.26C167.25,348.95,169.15,350.78,168.97,351z"/>
		</g>
		<g>
			<path style="fill:#FAFAFA;" d="M184.71,326.89c0.19,0.22-1.76,2.25-4.36,4.54c-2.6,2.29-4.86,3.98-5.05,3.76
				c-0.19-0.22,1.76-2.25,4.36-4.54C182.26,328.35,184.52,326.67,184.71,326.89z"/>
		</g>
		<g style="opacity:0.5;">
			<path style="fill:#FAFAFA;" d="M177.48,315.5c-0.15,0.23-2.63-1.12-5.29-3.33c-2.67-2.21-4.46-4.39-4.26-4.58
				c0.21-0.21,2.3,1.61,4.92,3.78C175.47,313.54,177.64,315.26,177.48,315.5z"/>
		</g>
		<g>
			<path style="fill:#FAFAFA;" d="M195.66,295.2c0.23,0.16-0.98,2.23-3.12,4.23c-2.13,2.01-4.27,3.09-4.42,2.86
				c-0.16-0.25,1.65-1.68,3.7-3.62C193.88,296.75,195.42,295.03,195.66,295.2z"/>
		</g>
		<g style="opacity:0.5;">
			<path style="fill:#FAFAFA;" d="M183.16,293.3c-0.04,0.28-3.23,0.05-7.04-0.92c-3.82-0.96-6.73-2.28-6.63-2.54
				c0.1-0.28,3.13,0.58,6.89,1.53C180.12,292.33,183.2,293.01,183.16,293.3z"/>
		</g>
		<g style="opacity:0.5;">
			<path style="fill:#FAFAFA;" d="M206.38,325.62c-0.27-0.06,0.35-3.97,1.78-8.62c1.42-4.66,3.08-8.25,3.34-8.14
				c0.27,0.11-0.94,3.83-2.35,8.45C207.74,321.91,206.67,325.68,206.38,325.62z"/>
		</g>
		<g>
			<path style="fill:#FAFAFA;" d="M211.53,347.68c-0.21,0.2-2.68-2.08-5.51-5.08c-2.84-3.01-4.97-5.6-4.76-5.8
				c0.21-0.2,2.68,2.08,5.51,5.08C209.61,344.88,211.74,347.48,211.53,347.68z"/>
		</g>
		<g style="opacity:0.5;">
			<path style="fill:#FAFAFA;" d="M219.5,360.17c-0.29-0.01-0.46-3.28-0.4-7.32c0.07-4.04,0.36-7.31,0.65-7.3
				c0.29,0,0.46,3.28,0.4,7.32C220.07,356.91,219.78,360.18,219.5,360.17z"/>
		</g>
		<g>
			<path style="fill:#FAFAFA;" d="M211.41,380.75c-0.22,0.16-2.37-2.46-4.35-6.12c-1.99-3.66-3.01-6.89-2.75-6.99
				c0.28-0.11,1.71,2.89,3.67,6.49C209.92,377.73,211.65,380.58,211.41,380.75z"/>
		</g>
		<g>
			<path style="fill:#FAFAFA;" d="M232.06,384.51c0.2,0.21-1.19,1.89-3.1,3.75c-1.91,1.87-3.63,3.21-3.83,3.01
				c-0.2-0.21,1.19-1.89,3.1-3.75C230.15,385.65,231.86,384.3,232.06,384.51z"/>
		</g>
		<g style="opacity:0.5;">
			<path style="fill:#FAFAFA;" d="M181.78,361.05c-0.26-0.08,0.66-3.36,3.03-6.77c2.35-3.43,5.09-5.45,5.26-5.24
				c0.21,0.23-2.14,2.53-4.4,5.83C183.38,358.16,182.06,361.17,181.78,361.05z"/>
		</g>
		<g>
			<path style="fill:#FAFAFA;" d="M123.47,388.49c-0.28-0.07,0.21-3.04,1.1-6.64c0.89-3.6,1.83-6.47,2.11-6.4
				c0.28,0.07-0.21,3.04-1.1,6.65C124.69,385.7,123.74,388.56,123.47,388.49z"/>
		</g>
		<g>
			<path style="fill:#FAFAFA;" d="M148.03,390.94c-0.16,0.24-2.65-1.1-5.56-3c-2.91-1.9-5.15-3.64-4.99-3.88
				c0.16-0.24,2.65,1.1,5.56,3C145.95,388.96,148.19,390.7,148.03,390.94z"/>
		</g>
		<g>
			<path style="fill:#FAFAFA;" d="M146.8,373.22c-0.24,0.16-1.41-1.17-2.61-2.97c-1.2-1.8-1.99-3.39-1.75-3.55
				c0.24-0.16,1.41,1.17,2.61,2.97C146.25,371.47,147.04,373.06,146.8,373.22z"/>
		</g>
		<g>
			<path style="fill:#FAFAFA;" d="M157.63,377.26c0.17,0.24-0.89,1.26-2.35,2.29c-1.46,1.03-2.78,1.67-2.95,1.43
				c-0.17-0.24,0.89-1.26,2.35-2.29C156.14,377.66,157.46,377.02,157.63,377.26z"/>
		</g>
		<g style="opacity:0.5;">
			<path style="fill:#FAFAFA;" d="M129.35,449.15c-0.28-0.09,0.18-2.36,0.59-5.16c0.42-2.8,0.64-5.11,0.94-5.11
				c0.28-0.01,0.53,2.37,0.09,5.26C130.54,447.03,129.61,449.24,129.35,449.15z"/>
		</g>
		<g style="opacity:0.5;">
			<path style="fill:#FAFAFA;" d="M154.27,441.04c-0.25,0.14-2.15-2.72-4.24-6.4c-2.09-3.68-3.59-6.77-3.34-6.91
				c0.25-0.14,2.15,2.72,4.24,6.4C153.02,437.8,154.52,440.89,154.27,441.04z"/>
		</g>
		<g style="opacity:0.5;">
			<path style="fill:#FAFAFA;" d="M180.7,429.89c0.23,0.17-2.28,3.83-5.6,8.17c-3.32,4.34-6.2,7.72-6.42,7.54
				c-0.23-0.17,2.28-3.83,5.6-8.17C177.6,433.09,180.48,429.71,180.7,429.89z"/>
		</g>
		<g style="opacity:0.5;">
			<path style="fill:#FAFAFA;" d="M188.15,451.12c0.04,0.28-3.27,1-7.39,1.6c-4.13,0.6-7.5,0.85-7.54,0.56
				c-0.04-0.28,3.27-1,7.39-1.6C184.73,451.09,188.11,450.83,188.15,451.12z"/>
		</g>
		<g>
			<path style="fill:#FAFAFA;" d="M189.3,440.42c-0.29-0.07-0.03-2.2,0.08-4.82c0.12-2.62,0.05-4.77,0.34-4.81
				c0.27-0.04,0.82,2.12,0.7,4.85C190.3,438.37,189.57,440.49,189.3,440.42z"/>
		</g>
		<g>
			<path style="fill:#FAFAFA;" d="M153.61,452.88c-0.1,0.25-2.8-0.64-5.62-2.68c-2.83-2.02-4.54-4.3-4.33-4.47
				c0.22-0.2,2.21,1.68,4.94,3.63C151.31,451.32,153.73,452.6,153.61,452.88z"/>
		</g>
		<g>
			<path style="fill:#FAFAFA;" d="M111.2,451.3c-0.28-0.07,0.06-2.35,0.75-5.1c0.69-2.75,1.48-4.92,1.76-4.85
				c0.28,0.07-0.06,2.35-0.75,5.1C112.26,449.2,111.48,451.37,111.2,451.3z"/>
		</g>
		<g>
			<path style="fill:#455A64;" d="M106.59,198.36c0.06-0.08,1.2,0.9,3.29,2.04c1.04,0.58,2.34,1.16,3.83,1.67
				c1.5,0.48,3.18,0.89,4.99,1.11c1.81,0.2,3.54,0.18,5.11,0.05c1.57-0.16,2.97-0.43,4.11-0.76c2.3-0.64,3.63-1.34,3.67-1.24
				c0.02,0.03-0.31,0.22-0.91,0.53c-0.3,0.16-0.67,0.34-1.12,0.51c-0.45,0.17-0.95,0.4-1.54,0.56c-1.15,0.38-2.57,0.69-4.17,0.88
				c-1.6,0.16-3.37,0.19-5.22-0.01c-1.84-0.22-3.57-0.66-5.08-1.18c-1.51-0.55-2.82-1.17-3.86-1.81c-0.53-0.29-0.97-0.62-1.37-0.89
				c-0.4-0.27-0.72-0.53-0.98-0.75C106.84,198.64,106.56,198.39,106.59,198.36z"/>
		</g>
		<g>
			<path style="fill:#455A64;" d="M132.42,209.87c0.01,0.03-0.38,0.16-1.09,0.34c-0.71,0.18-1.75,0.41-3.04,0.64
				c-2.57,0.44-6.26,0.87-10.24,0.06c-3.99-0.83-7.17-3-8.85-5.05c-0.85-1.02-1.39-1.96-1.68-2.64c-0.29-0.68-0.39-1.08-0.37-1.08
				c0.11-0.06,0.58,1.55,2.32,3.48c1.7,1.93,4.81,3.98,8.68,4.78c3.88,0.79,7.51,0.43,10.08,0.09c1.29-0.18,2.33-0.36,3.05-0.47
				C132.01,209.89,132.41,209.83,132.42,209.87z"/>
		</g>
		<g>
			<path style="fill:#455A64;" d="M96.81,271.07c-0.01,0.01-0.05-0.04-0.13-0.14c-0.08-0.1-0.21-0.24-0.34-0.45
				c-0.27-0.41-0.61-1.07-0.8-2c-0.39-1.82,0.02-4.8,2.2-7.43c1.08-1.3,2.54-2.46,4.18-3.53c1.64-1.08,3.48-2.08,5.29-3.29
				c1.79-1.22,3.59-2.71,4.82-4.7c0.61-0.99,1.04-2.12,1.2-3.3c0.17-1.19,0.07-2.42-0.19-3.64c-0.55-2.44-1.64-4.67-2.53-6.9
				c-0.92-2.21-1.64-4.49-1.69-6.73c-0.18-4.5,1.49-8.38,3.43-11.08c1.96-2.75,4.25-4.35,5.9-5.2c0.41-0.2,0.79-0.38,1.12-0.54
				c0.33-0.11,0.61-0.21,0.86-0.3c0.47-0.16,0.71-0.23,0.72-0.21c0.01,0.02-0.23,0.12-0.68,0.31c-0.24,0.1-0.52,0.21-0.83,0.34
				c-0.32,0.17-0.68,0.36-1.09,0.57c-1.6,0.9-3.81,2.51-5.69,5.23c-1.86,2.67-3.46,6.49-3.25,10.85c0.07,2.17,0.76,4.37,1.68,6.56
				c0.89,2.2,2,4.45,2.57,6.98c0.28,1.26,0.38,2.56,0.2,3.82c-0.17,1.26-0.63,2.46-1.27,3.5c-1.3,2.1-3.16,3.6-4.99,4.84
				c-1.85,1.23-3.69,2.2-5.32,3.26c-1.64,1.04-3.07,2.16-4.14,3.41c-2.14,2.51-2.6,5.38-2.28,7.15
				C96.07,270.27,96.89,271.03,96.81,271.07z"/>
		</g>
		<g>
			<path style="fill:#455A64;" d="M123.45,271.43c-0.01,0.02-0.21-0.1-0.58-0.33c-0.34-0.26-0.86-0.68-1.29-1.4
				c-0.44-0.71-0.79-1.7-0.9-2.88c-0.11-1.18,0.02-2.54,0.44-3.98c0.81-2.94,3.27-5.61,5.11-8.96c0.92-1.68,1.57-3.62,1.5-5.7
				c-0.04-2.07-0.66-4.18-1.61-6.17c-1.9-4.02-4.82-7.22-6.84-10.56c-1.02-1.66-1.86-3.35-2.36-5.03c-0.53-1.68-0.63-3.34-0.49-4.82
				c0.28-2.99,1.66-5.17,2.91-6.25c0.64-0.53,1.2-0.86,1.6-1.03c0.4-0.16,0.62-0.24,0.62-0.22c0.04,0.07-0.89,0.31-2.09,1.4
				c-1.17,1.09-2.45,3.23-2.68,6.14c-0.11,1.44,0,3.04,0.54,4.66c0.51,1.63,1.34,3.27,2.35,4.9c1.02,1.64,2.23,3.27,3.47,4.99
				c1.24,1.71,2.47,3.56,3.43,5.61c0.96,2.04,1.61,4.22,1.65,6.39c0.06,2.17-0.64,4.23-1.59,5.93c-1.91,3.41-4.36,6.03-5.18,8.84
				c-0.42,1.38-0.58,2.7-0.5,3.85c0.08,1.14,0.39,2.1,0.78,2.8C122.56,271.02,123.52,271.36,123.45,271.43z"/>
		</g>
		<g>
			<path style="fill:#455A64;" d="M162.91,196.36c-0.01,0.02-0.14-0.04-0.38-0.16c-0.24-0.12-0.58-0.33-0.99-0.63
				c-0.82-0.61-1.89-1.66-2.88-3.21c-1.01-1.53-1.86-3.54-2.77-5.74c-0.46-1.1-0.95-2.25-1.56-3.38c-0.63-1.12-1.33-2.26-2.21-3.3
				c-3.46-4.27-8.12-6.56-11.56-7.45c-3.48-0.91-5.76-0.7-5.75-0.82c0-0.03,0.56-0.07,1.57-0.09c1.01,0.04,2.49,0.12,4.27,0.56
				c1.77,0.43,3.84,1.16,5.92,2.4c2.07,1.23,4.2,2.89,5.95,5.08c0.9,1.07,1.62,2.24,2.25,3.39c0.61,1.16,1.1,2.33,1.55,3.44
				c0.89,2.22,1.69,4.21,2.64,5.73c0.92,1.54,1.92,2.6,2.69,3.24C162.44,196.06,162.94,196.32,162.91,196.36z"/>
		</g>
		<g>
			<path style="fill:#455A64;" d="M176.86,196.28c0,0.02-0.19,0-0.54-0.06c-0.35-0.05-0.86-0.17-1.5-0.39
				c-1.28-0.43-3.04-1.39-4.77-3.1c-1.74-1.68-3.42-4.05-4.95-6.84c-1.57-2.75-3.09-5.91-5.44-8.66c-2.33-2.78-5.49-4.44-8.49-5.29
				c-3.02-0.86-5.88-1.03-8.26-1.1c-2.39-0.05-4.32,0.05-5.66,0.1c-0.62,0.02-1.13,0.04-1.54,0.06c-0.35,0.01-0.54,0.01-0.54-0.01
				c0-0.02,0.18-0.05,0.53-0.09c0.35-0.04,0.87-0.1,1.54-0.16c1.33-0.11,3.27-0.27,5.67-0.27c2.4,0.02,5.29,0.16,8.38,1.01
				c3.07,0.84,6.35,2.55,8.75,5.41c2.41,2.83,3.92,6.02,5.46,8.77c1.49,2.78,3.11,5.13,4.79,6.81c1.66,1.7,3.35,2.68,4.58,3.17
				C176.13,196.13,176.87,196.22,176.86,196.28z"/>
		</g>
		<g>
			<path style="fill:#455A64;" d="M200.47,261.18c-0.06-0.02,0.26-0.71,0.59-2.02c0.33-1.3,0.71-3.24,0.6-5.65
				c-0.09-2.39-0.66-5.27-2.13-8.08c-0.73-1.41-1.7-2.76-2.86-4.05c-1.16-1.29-2.48-2.51-3.82-3.79c-1.34-1.28-2.64-2.57-3.71-3.98
				c-1.08-1.4-1.96-2.86-2.67-4.32c-0.71-1.45-1.24-2.91-1.61-4.3c-0.39-1.39-0.63-2.71-0.75-3.92c-0.27-2.43-0.13-4.42,0.06-5.76
				c0.08-0.68,0.2-1.19,0.28-1.54c0.08-0.35,0.13-0.53,0.14-0.53c0.05,0.01-0.1,0.75-0.22,2.09c-0.12,1.34-0.2,3.31,0.11,5.7
				c0.15,1.19,0.41,2.49,0.8,3.85c0.38,1.36,0.92,2.78,1.63,4.2c0.7,1.42,1.58,2.85,2.64,4.21c1.05,1.37,2.33,2.64,3.66,3.91
				c1.34,1.28,2.67,2.51,3.84,3.82c1.18,1.31,2.17,2.72,2.91,4.17c1.49,2.9,2.03,5.85,2.07,8.29c0.06,2.45-0.38,4.41-0.77,5.71
				c-0.2,0.65-0.39,1.15-0.54,1.47C200.57,261.02,200.49,261.19,200.47,261.18z"/>
		</g>
		<g>
			<path style="fill:#455A64;" d="M90.92,195.49c-0.03,0-0.01-0.36,0.13-0.98c0.13-0.62,0.43-1.51,0.98-2.52
				c1.06-1.99,3.45-4.5,6.93-5.35c3.49-0.82,6.76,0.33,8.6,1.63c0.95,0.65,1.61,1.3,2.01,1.8c0.4,0.49,0.58,0.8,0.56,0.82
				c-0.08,0.08-0.88-1.12-2.77-2.31c-1.84-1.18-4.97-2.21-8.28-1.43c-3.3,0.81-5.63,3.14-6.74,5.03
				C91.2,194.09,91.03,195.52,90.92,195.49z"/>
		</g>
		<g>
			<path style="fill:#455A64;" d="M100.61,199.7c-0.06-0.01,0-0.88,0.28-2.27c0.29-1.36,0.8-3.38,2.36-5.01
				c1.63-1.64,3.94-1.84,5.3-1.34c0.69,0.25,1.18,0.64,1.42,0.97c0.25,0.32,0.33,0.53,0.3,0.55c-0.08,0.08-0.52-0.79-1.83-1.17
				c-1.26-0.37-3.36-0.11-4.82,1.36c-1.44,1.5-2,3.41-2.38,4.74C100.89,198.86,100.69,199.71,100.61,199.7z"/>
		</g>
		<g>
			<path style="fill:#E8505B;" d="M113.32,185.05c0.14,0.09-1.53,2.29-2.63,5.45c-1.12,3.15-1.19,5.9-1.36,5.89
				c-0.12,0.02-0.29-2.82,0.87-6.07C111.33,187.07,113.23,184.96,113.32,185.05z"/>
		</g>
	</g>
</g>
<g id="Speech_Bubble">
	<g>
		<g>
			<g>
				<g>
					<path style="fill:#455A64;" d="M273.3,209.43c0,1.72,1.39,3.11,3.11,3.11c1.72,0,3.11-1.39,3.11-3.11
						c0-1.72-1.39-3.11-3.11-3.11C274.69,206.32,273.3,207.71,273.3,209.43z"/>
				</g>
			</g>
			<g>
				<g>
					<circle style="fill:#455A64;" cx="263.95" cy="209.43" r="3.11"/>
				</g>
			</g>
			<g>
				<g>
					<path style="fill:#455A64;" d="M248.42,207.87c-0.86,1.49-0.35,3.39,1.14,4.25c1.49,0.86,3.39,0.35,4.25-1.14
						c0.86-1.49,0.35-3.39-1.14-4.25C251.18,205.87,249.28,206.38,248.42,207.87z"/>
				</g>
			</g>
		</g>
		<g>
			<g>
				<g>
					<path style="fill:#455A64;" d="M263.76,173.08c0-0.01-0.21-0.02-0.63-0.01c-0.46,0.01-1.07,0.03-1.85,0.05
						c-0.41,0.02-0.86,0.02-1.36,0.06c-0.5,0.07-1.04,0.15-1.63,0.23c-0.59,0.09-1.23,0.18-1.9,0.27c-0.67,0.17-1.38,0.34-2.13,0.53
						c-2.99,0.77-6.61,2.08-10.31,4.49c-3.7,2.37-7.54,5.77-10.66,10.38c-3.06,4.62-5.42,10.43-6.05,16.96
						c-0.06,1.63-0.26,3.3-0.1,4.98c0.06,0.84,0.04,1.7,0.17,2.55c0.13,0.85,0.26,1.71,0.39,2.57c0.7,3.41,1.71,6.9,3.46,10.14
						c1.71,3.26,3.93,6.36,6.63,9.12c2.75,2.7,5.97,5.05,9.55,6.86c3.57,1.82,7.52,3.08,11.64,3.57c1.02,0.2,2.06,0.2,3.1,0.26
						c1.04,0.07,2.09,0.11,3.14,0.06c2.1-0.09,4.2-0.35,6.28-0.79c4.52-0.96,8.77-2.8,12.51-5.26l-0.38,0.04
						c4.34,1.74,8.59,3.45,12.74,5.11l0.75,0.3l-0.22-0.78c-1.29-4.68-2.54-9.22-3.75-13.62l-0.06,0.34
						c3.58-4.75,5.86-10.18,6.8-15.57c0.47-2.69,0.67-5.38,0.5-7.98c-0.06-1.3-0.12-2.58-0.36-3.83c-0.1-0.63-0.19-1.25-0.29-1.86
						c-0.11-0.61-0.3-1.21-0.45-1.8c-2.46-9.59-8.37-16.67-14.22-20.73c-2.93-2.06-5.82-3.54-8.46-4.46
						c-0.66-0.24-1.29-0.46-1.91-0.68c-0.63-0.16-1.23-0.31-1.81-0.46c-0.58-0.14-1.13-0.28-1.66-0.41
						c-0.53-0.1-1.04-0.16-1.52-0.23c-0.96-0.12-1.81-0.29-2.55-0.33c-0.73-0.02-1.35-0.05-1.87-0.06
						c-0.47-0.01-0.85-0.02-1.14-0.03C263.89,173.06,263.76,173.06,263.76,173.08c0,0.01,0.13,0.03,0.39,0.05
						c0.29,0.02,0.67,0.05,1.14,0.09c0.52,0.03,1.14,0.08,1.86,0.13c0.74,0.06,1.57,0.24,2.53,0.38c3.75,0.69,9.37,2.18,15.12,6.38
						c5.74,4.06,11.49,11.07,13.86,20.5c0.14,0.59,0.32,1.17,0.43,1.77c0.09,0.61,0.18,1.22,0.27,1.83
						c0.23,1.22,0.29,2.48,0.34,3.76c0.17,2.55-0.04,5.18-0.52,7.82c-0.94,5.28-3.19,10.58-6.71,15.23l-0.11,0.15l0.05,0.18
						c1.2,4.4,2.44,8.95,3.72,13.63l0.54-0.48c-4.15-1.67-8.4-3.38-12.74-5.13l-0.2-0.08l-0.18,0.12c-3.66,2.4-7.81,4.2-12.23,5.14
						c-2.03,0.44-4.09,0.69-6.14,0.78c-1.03,0.05-2.05,0.01-3.07-0.06c-1.02-0.06-2.04-0.06-3.03-0.26
						c-4.02-0.48-7.89-1.7-11.38-3.48c-3.5-1.76-6.65-4.05-9.35-6.69c-2.65-2.7-4.82-5.73-6.51-8.91c-1.73-3.18-2.73-6.59-3.43-9.93
						c-0.13-0.84-0.26-1.68-0.39-2.52c-0.12-0.83-0.11-1.67-0.17-2.5c-0.16-1.66,0.03-3.29,0.08-4.89
						c0.58-6.41,2.87-12.13,5.85-16.7c3.04-4.56,6.8-7.94,10.43-10.32c3.63-2.42,7.19-3.76,10.14-4.57c0.74-0.2,1.44-0.38,2.1-0.56
						c0.67-0.11,1.3-0.21,1.88-0.31c0.58-0.1,1.12-0.18,1.62-0.27c0.5-0.05,0.95-0.07,1.35-0.1c0.78-0.06,1.39-0.1,1.84-0.13
						C263.55,173.12,263.76,173.09,263.76,173.08z"/>
				</g>
			</g>
		</g>
	</g>
</g>
</svg>
