<svg xmlns="http://www.w3.org/2000/svg" viewBox="0 0 500 500"><path d="M292.29 459.71c-1.23-1.05-3.97-4.39-1.85-8.27.77-1.42 2.42-2.13 3.91-2.75 1.49-.63 3.05-1.17 4.28-2.22 2.32-1.98 2.96-5.26 4.5-7.89 1.77-3.03 5.07-5.29 8.56-5.13 4 .18 7.33 3.45 8.84 7.17 1.51 3.72 1.56 7.85 1.59 11.87.02 2.22-.08 4.73-1.71 6.23-1.5 1.38-3.77 1.4-5.81 1.34-7.28-.22-14.56-.45-21.84-.67" fill="#f5f5f5"/><path d="M334.06 399.65h-57.43l10.35 61.69c.45 2.69 2.4 4.77 4.9 5.49.07.02.13.04.2.05.17.04.34.1.51.13.38.08.77.12 1.17.13 0 .02.01.04.01.06l.28-.04h25.6c.48 0 .95-.05 1.41-.14a6.92 6.92 0 005.81-6.03l4.99-42.51.22-1.69h-.03l1.98-16.83.03-.31zM323.23 439h-5.89l.59-17.9h6.83l-1.53 17.9zm2.1-17.9h5.64l-2.1 17.9h-5.07l1.53-17.9zm-16.84 37.75l-.36-15.55h8.49l-.52 15.55h-7.61zm-9.18-15.55h8.25l.36 15.55h-7.4l-1.21-15.55zm.64 15.55h-6.91c-.66-4.2-1.51-9.66-2.44-15.55h8.14l1.21 15.55zm-.97-19.85l-1.39-17.9h9.46l.41 17.9h-8.48zm9.05 0l-.41-17.9h9.74l-.59 17.9h-8.74zm-.51-22.2l-.38-16.58h10.91l-.55 16.58h-9.98zm-.57 0h-9.7l-1.29-16.58h10.6l.39 16.58zm-10.27 0h-10.26c-.36-2.29-.71-4.46-1.02-6.41-1.07-6.7-1.47-9.22-1.7-10.17h11.68l1.3 16.58zm.34 4.3l1.39 17.9h-8.48c-.29-1.82-.57-3.65-.86-5.49-.66-4.23-1.33-8.45-1.96-12.41h9.91zm-7.67 17.9h-5.54l-3-17.9h5.72c.87 5.53 1.84 11.69 2.82 17.9zm.67 4.3c.84 5.38 1.68 10.69 2.44 15.55h-5.33l-2.61-15.55h5.5zm26.65 15.55l.52-15.55h5.67l-1.33 15.55h-4.86zm1.4-42.05l.55-16.58h7.92l-1.42 16.58h-7.05zm-34.9-16.58c.23 1.2 1.28 7.72 2.68 16.58h-5.76l-2.78-16.58h5.86zm43.37 58.63h-4.44l1.33-15.55h4.93l-1.82 15.55zm4.93-42.05h-5.78l1.42-16.58h6.31l-1.95 16.58z" fill="#e0e0e0"/><path d="M217.88 125.95c.27 3.01.14 6-.38 8.91l6.54 5.05-5.76 12.41-8.08-1.74a33.693 33.693 0 01-6.56 6.04l1.05 8.2-12.85 4.7-4.48-6.94c-3.01.28-6 .14-8.91-.38l-5.05 6.54-12.4-5.76 1.74-8.08c-2.27-1.89-4.3-4.09-6.04-6.56l-8.2 1.06-4.7-12.85 6.94-4.48c-.28-3.01-.14-6 .38-8.91l-6.54-5.05 5.76-12.41 8.08 1.74c1.89-2.27 4.09-4.3 6.56-6.04l-1.05-8.2 12.85-4.7 4.48 6.94c3.01-.28 6-.14 8.91.38l5.05-6.54 12.41 5.76-1.74 8.08c2.27 1.89 4.31 4.09 6.04 6.56l8.2-1.05 4.7 12.85-6.95 4.47zm-19.58-1.41c-2.78-7.61-11.21-11.52-18.82-8.74-7.61 2.78-11.52 11.21-8.74 18.82 2.78 7.61 11.21 11.52 18.82 8.74 7.62-2.78 11.53-11.2 8.74-18.82z" fill-rule="evenodd" clip-rule="evenodd" fill="#e0e0e0"/><path d="M212.9 51.27c.18 1.99.09 3.97-.25 5.89l4.33 3.34-3.81 8.2-5.34-1.15a22 22 0 01-4.34 3.99l.7 5.42-8.49 3.11-2.96-4.59c-1.99.18-3.97.09-5.89-.25l-3.34 4.33-8.2-3.81 1.15-5.34a22 22 0 01-3.99-4.34l-5.42.7-3.11-8.49 4.59-2.96c-.18-1.99-.09-3.97.25-5.89l-4.33-3.34 3.81-8.2 5.34 1.15a22 22 0 014.34-3.99l-.7-5.42 8.49-3.11 2.96 4.59c1.99-.18 3.97-.09 5.89.25l3.34-4.33 8.2 3.81-1.15 5.34a22 22 0 013.99 4.34l5.42-.7 3.11 8.49-4.59 2.96zm-12.94-.93c-1.84-5.03-7.41-7.62-12.44-5.78-5.03 1.84-7.62 7.41-5.78 12.44 1.84 5.03 7.41 7.62 12.44 5.78 5.03-1.84 7.62-7.41 5.78-12.44zM271.35 149.83c.14 1.57.07 3.13-.2 4.64l3.41 2.63-3 6.46-4.21-.91c-.98 1.18-2.13 2.24-3.42 3.15l.55 4.27-6.69 2.45-2.34-3.62c-1.57.14-3.13.07-4.64-.2l-2.63 3.41-6.46-3 .91-4.21c-1.18-.98-2.24-2.13-3.15-3.42l-4.27.55-2.45-6.69 3.62-2.34c-.14-1.57-.07-3.13.2-4.64l-3.41-2.63 3-6.46 4.21.91c.98-1.18 2.13-2.24 3.42-3.15l-.55-4.27 6.69-2.45 2.34 3.62c1.57-.14 3.13-.07 4.64.2l2.63-3.41 6.46 3-.91 4.21c1.18.98 2.24 2.13 3.15 3.42l4.27-.55 2.45 6.69-3.62 2.34zm-10.2-.74a7.634 7.634 0 00-9.81-4.55c-3.97 1.45-6 5.84-4.55 9.81a7.634 7.634 0 009.81 4.55c3.96-1.45 6-5.84 4.55-9.81z" fill-rule="evenodd" clip-rule="evenodd" fill="#f5f5f5"/><path d="M265.01 95.91c.16 1.8.08 3.58-.23 5.32l3.91 3.02-3.44 7.41-4.83-1.04a20.438 20.438 0 01-3.92 3.61l.63 4.89-7.67 2.8-2.68-4.14c-1.8.16-3.58.08-5.32-.23l-3.02 3.91-7.41-3.44 1.04-4.83a20.074 20.074 0 01-3.6-3.92l-4.89.63-2.81-7.67 4.15-2.68c-.16-1.8-.08-3.58.23-5.32l-3.91-3.02 3.44-7.41 4.83 1.04c1.13-1.35 2.44-2.57 3.92-3.6l-.63-4.89 7.67-2.81 2.68 4.14c1.8-.16 3.58-.08 5.32.23l3.02-3.91 7.41 3.44-1.04 4.83c1.35 1.13 2.57 2.44 3.6 3.92l4.89-.63 2.81 7.67-4.15 2.68zm-11.69-.84c-1.66-4.54-6.69-6.88-11.24-5.22-4.54 1.66-6.88 6.69-5.22 11.24 1.66 4.54 6.69 6.88 11.24 5.22 4.55-1.67 6.88-6.7 5.22-11.24zM83.46 225.05c.16 1.8.08 3.58-.23 5.32l3.91 3.02-3.44 7.41-4.83-1.04a20.438 20.438 0 01-3.92 3.61l.63 4.89-7.67 2.8-2.68-4.14c-1.8.16-3.58.08-5.32-.23l-3.02 3.91-7.41-3.44 1.04-4.83a20.074 20.074 0 01-3.6-3.92l-4.89.63-2.81-7.67 4.15-2.68c-.16-1.8-.08-3.58.23-5.32l-3.91-3.02 3.44-7.41 4.83 1.04c1.13-1.35 2.44-2.57 3.92-3.6l-.63-4.89 7.67-2.81 2.68 4.15c1.8-.16 3.58-.08 5.32.23l3.02-3.91 7.41 3.44-1.04 4.83c1.35 1.13 2.57 2.44 3.6 3.92l4.89-.63 2.81 7.67-4.15 2.67zm-11.69-.83c-1.66-4.54-6.69-6.88-11.24-5.22-4.54 1.66-6.88 6.69-5.22 11.24 1.66 4.54 6.69 6.88 11.24 5.22 4.55-1.67 6.88-6.7 5.22-11.24z" fill-rule="evenodd" clip-rule="evenodd" fill="#ebebeb"/><g><path fill="#ebebeb" d="M418.4 84.87l7.7 24.36h-5.57l-2.46-8.4z"/><path fill="#ebebeb" d="M318.98 109.21h114.97v6.87H318.98z"/><path fill="#ebebeb" d="M335.01 114.57h5.56v10.55h-5.56zM406.79 114.57h5.56v10.55h-5.56zM322.89 77.35s-5.16 3.93-.22 9.12c.08.09.2.14.33.14l45.08-.26s3.85-4.32.66-9.29l-45.85.29z"/><path d="M358.12 81.45c0 .05-5.61.09-12.54.09-6.93 0-12.54-.04-12.54-.09s5.61-.09 12.54-.09c6.92 0 12.54.04 12.54.09zM351.11 83.08c0 .05-2.64.09-5.89.09-3.26 0-5.89-.04-5.89-.09 0-.05 2.64-.09 5.89-.09 3.25 0 5.89.04 5.89.09zM362.73 86.2c-.03-.01.1-.52.24-1.35.14-.83.27-2 .26-3.29-.01-1.29-.17-2.45-.32-3.28-.16-.83-.29-1.34-.26-1.35.01 0 .06.12.13.35.08.23.17.56.26.98.19.83.36 2 .38 3.31.01 1.3-.14 2.48-.32 3.31-.09.42-.17.75-.24.98-.08.22-.12.35-.13.34zM366.09 77c.01-.01.08.11.2.33.06.11.13.24.2.4.07.16.16.34.23.55.16.41.31.92.43 1.5.11.58.19 1.22.2 1.9 0 .68-.06 1.32-.17 1.9-.11.58-.25 1.09-.4 1.5-.07.21-.15.39-.22.56-.07.16-.13.3-.19.41-.12.22-.18.34-.2.33-.03-.02.22-.5.49-1.33.14-.42.26-.92.36-1.49.09-.57.15-1.2.15-1.87-.01-.67-.08-1.3-.18-1.87-.11-.57-.24-1.07-.39-1.48-.28-.84-.54-1.33-.51-1.34zM330 86.26c-.01.01-.08-.1-.21-.3-.06-.1-.14-.22-.21-.38-.07-.15-.17-.32-.24-.52-.17-.39-.32-.87-.44-1.42-.11-.55-.18-1.17-.17-1.82.01-.65.1-1.26.22-1.81.13-.55.3-1.03.48-1.41.08-.2.18-.36.25-.51.08-.15.15-.27.22-.37.13-.2.21-.3.22-.3.03.02-.26.45-.57 1.23-.16.39-.31.86-.43 1.4-.11.54-.19 1.14-.2 1.78 0 .64.06 1.24.16 1.78.11.54.24 1.02.39 1.41.29.78.56 1.23.53 1.24zM325.13 87.36c-.01.01-.09-.12-.23-.34-.07-.11-.15-.25-.24-.42-.08-.17-.19-.36-.27-.58-.19-.44-.37-.98-.52-1.59-.14-.62-.23-1.31-.25-2.03-.01-.73.06-1.42.16-2.04.12-.62.27-1.17.45-1.61.07-.23.17-.42.25-.59.07-.17.15-.32.22-.43.13-.23.21-.36.22-.35.03.02-.26.53-.56 1.42-.15.44-.29.99-.4 1.6-.1.61-.16 1.29-.15 2.01.02.72.11 1.39.24 2 .14.61.3 1.14.47 1.58.34.86.65 1.36.61 1.37z" fill="#e0e0e0"/><g><path d="M366.43 100.08v8.63h-16.69v-8.63h16.69z" fill="#ebebeb"/><path d="M312.51 104.47c0 .08.01.15.01.23.14 2.61 2.35 4.63 4.97 4.63h49.71v-.62h-11.8a4.31 4.31 0 010-8.62h11.8v-.92l-49.73.17c-2.8 0-5.06 2.33-4.96 5.13z" fill="#e0e0e0"/><path d="M366.43 104.51c0 .05-3.43.09-7.67.09-4.23 0-7.67-.04-7.67-.09s3.43-.09 7.67-.09c4.23-.01 7.67.04 7.67.09zM366.19 106.45c0 .05-3.25.09-7.25.09-4.01 0-7.25-.04-7.25-.09 0-.05 3.25-.09 7.25-.09s7.25.04 7.25.09zM366.43 108.23c0 .05-2.92.09-6.52.09-3.6 0-6.52-.04-6.52-.09s2.92-.09 6.52-.09c3.6 0 6.52.04 6.52.09zM366.43 102.76c0 .05-3.36.09-7.51.09s-7.51-.04-7.51-.09 3.36-.09 7.51-.09 7.51.04 7.51.09zM366.19 101.01c0 .05-2.99.09-6.68.09-3.69 0-6.68-.04-6.68-.09 0-.05 2.99-.09 6.68-.09 3.68 0 6.68.04 6.68.09z" fill="#e0e0e0"/><g><path d="M318.54 99.47c.03.03-.49.42-1.06 1.26-.57.82-1.15 2.16-1.13 3.71.02 1.55.63 2.87 1.22 3.68.59.83 1.11 1.2 1.09 1.23-.01.01-.14-.08-.36-.26-.22-.18-.52-.48-.83-.89a6.413 6.413 0 01-1.3-3.76c-.02-1.6.6-2.96 1.21-3.79.3-.42.59-.72.81-.91.21-.18.34-.27.35-.27z" fill="#f5f5f5"/></g><g><path d="M316.86 99.29c.03.03-.49.42-1.06 1.26-.57.82-1.15 2.16-1.13 3.71.02 1.55.63 2.87 1.22 3.68.59.83 1.11 1.2 1.09 1.23-.01.01-.14-.08-.36-.26-.22-.18-.52-.48-.83-.89a6.413 6.413 0 01-1.3-3.76c-.02-1.6.6-2.96 1.21-3.79.3-.42.59-.72.81-.91.21-.19.34-.28.35-.27z" fill="#f5f5f5"/></g><g><path d="M350.64 99.47c.03.03-.49.42-1.06 1.26-.57.82-1.15 2.16-1.13 3.71.02 1.55.63 2.87 1.22 3.68.59.83 1.11 1.2 1.09 1.23-.01.01-.14-.08-.36-.26-.22-.18-.52-.48-.83-.89a6.413 6.413 0 01-1.3-3.76c-.02-1.6.6-2.96 1.21-3.79.3-.42.59-.72.81-.91.21-.18.34-.27.35-.27z" fill="#f5f5f5"/></g><g><path d="M348.96 99.29c.03.03-.49.42-1.06 1.26-.57.82-1.15 2.16-1.13 3.71.02 1.55.63 2.87 1.22 3.68.59.83 1.11 1.2 1.09 1.23-.01.01-.14-.08-.36-.26-.22-.18-.52-.48-.83-.89a6.413 6.413 0 01-1.3-3.76c-.02-1.6.6-2.96 1.21-3.79.3-.42.59-.72.81-.91.21-.19.34-.28.35-.27z" fill="#f5f5f5"/></g><g><path d="M324.2 105.68c-.02-1.17-.03-2.34-.05-3.51 0-.31-.01-.62-.12-.9s-.36-.54-.67-.56c-.44-.19-1.12.17-1.43.68-.31.51-.34 1.13-.34 1.72-.01.93.04 1.85.13 2.77.05.44.11.89.33 1.27.22.38.63.68 1.07.64.43-.04.78-.41.94-.81.15-.41.14-.86.14-1.3z" fill="#f5f5f5"/></g><g><path d="M343.5 104.67c0 .05-3.59.09-8.03.09-4.43 0-8.03-.04-8.03-.09s3.59-.09 8.03-.09c4.44 0 8.03.04 8.03.09z" fill="#f5f5f5"/></g></g><g><path fill="#f5f5f5" d="M320.87 99.13l-.1-8.18h4.45l.16 8.18z"/><path d="M324.96 92.41c0 .05-.93.09-2.07.09-1.14 0-2.07-.04-2.07-.09 0-.05.93-.09 2.07-.09 1.15-.01 2.07.04 2.07.09zM324.96 93.67c0 .05-.93.09-2.07.09-1.14 0-2.07-.04-2.07-.09 0-.05.93-.09 2.07-.09 1.15 0 2.07.04 2.07.09zM324.96 94.93c0 .05-.93.09-2.07.09-1.14 0-2.07-.04-2.07-.09s.93-.09 2.07-.09c1.15 0 2.07.04 2.07.09zM324.96 96.19c0 .05-.93.09-2.07.09-1.14 0-2.07-.04-2.07-.09s.93-.09 2.07-.09c1.15 0 2.07.04 2.07.09zM324.96 97.45c0 .05-.93.09-2.07.09-1.14 0-2.07-.04-2.07-.09s.93-.09 2.07-.09c1.15 0 2.07.04 2.07.09z" fill="#e0e0e0"/><path d="M320.54 90.73h49.33c.61 2.71.52 5.69 0 8.84h-49.12v-.6h3c.78 0 1.42-.63 1.42-1.42v-4.89c0-.78-.63-1.42-1.42-1.42h-3.21v-.51z" fill="#ebebeb"/><g><path d="M332.2 95.16h.82c.03 0 .06.01.09.02.06.03.09.09.09.16 0 .02 0 .04-.01.05-.02.07-.03.14-.06.21-.11.38-.29.69-.52.93-.23.24-.46.36-.7.36-.03 0-.07 0-.1-.01-.22-.03-.41-.17-.56-.41-.16-.26-.25-.59-.25-.99 0-.23.03-.47.1-.71.1-.38.27-.7.49-.95.23-.26.48-.39.74-.39.11 0 .21.02.31.07.21.1.37.3.48.6.01.03.02.05.02.08s-.01.06-.02.09c-.04.06-.09.09-.15.09-.02 0-.04 0-.06-.01-.06-.02-.1-.06-.11-.11l-.01-.02c-.03-.07-.06-.14-.1-.19-.11-.16-.24-.23-.39-.23-.09 0-.18.03-.27.1-.17.12-.32.34-.45.65-.13.32-.19.62-.19.93 0 .29.05.53.14.73.1.22.25.32.43.32.12 0 .26-.08.4-.24.18-.2.32-.45.42-.76-.38 0-.58 0-.59-.01-.13-.02-.19-.09-.2-.2 0-.02.01-.04.02-.06.04-.07.1-.1.19-.1zM335 93.55c.01.02.01.04.02.06.03.12.23 1.14.58 3.06.01.01.01.03.01.04 0 .03-.01.06-.02.09-.04.06-.08.09-.15.09h-.03a.16.16 0 01-.14-.12l-.2-1.02h-1.01l-.49 1.02c0 .01-.01.02-.02.03-.05.06-.1.09-.15.09-.03 0-.07-.01-.1-.03a.19.19 0 01-.08-.15c0-.02 0-.04.01-.05a158.208 158.208 0 011.42-3.07c.04-.08.1-.12.17-.12.09 0 .14.03.18.08zm-.22.69l-.55 1.15h.77l-.22-1.15zM337.75 96.89h-1.49c-.03 0-.07-.01-.1-.03-.04-.03-.07-.09-.08-.19 0-.06.14-1.08.41-3.04 0-.02 0-.04.01-.07.03-.07.08-.11.16-.11.03 0 .06.01.08.02.06.03.09.08.09.16-.01.13-.05.41-.1.83l-.27 2.06h1.26c.03 0 .07.01.1.02.08.03.11.09.11.17 0 .02 0 .04-.01.06-.01.07-.07.11-.17.12zM339.79 93.55c.01.02.01.04.02.06.03.12.23 1.14.58 3.06.01.01.01.03.01.04 0 .03-.01.06-.02.09-.04.06-.08.09-.15.09h-.03a.16.16 0 01-.14-.12l-.2-1.02h-1.01l-.49 1.02c0 .01-.01.02-.02.03-.05.06-.1.09-.15.09-.03 0-.07-.01-.1-.03a.19.19 0 01-.08-.15c0-.02 0-.04.01-.05a158.208 158.208 0 011.42-3.07c.04-.08.1-.12.17-.12.08 0 .14.03.18.08zm-.23.69l-.55 1.15h.77l-.22-1.15zM342.15 95.31c.12.32.21.57.27.75.15.42.23.65.23.67 0 .03-.01.06-.03.09-.04.05-.08.08-.15.08-.07 0-.11-.04-.15-.12a27.119 27.119 0 01-.43-1.13l-.84 1.15c-.05.06-.1.09-.16.09-.03 0-.06-.01-.09-.02-.06-.03-.08-.08-.08-.15v-.04c0-.03.03-.07.09-.14.28-.36.59-.8.93-1.3-.04-.1-.07-.19-.1-.28-.32-.85-.47-1.29-.47-1.31 0-.03.01-.06.02-.09a.15.15 0 01.14-.09c.08 0 .13.03.17.1l.5 1.34.99-1.35c.04-.05.1-.08.16-.08.03 0 .06.01.08.02.06.03.09.08.09.16 0 .02-.01.05-.02.08l-1.15 1.57zM345.83 93.48c.03 0 .06.01.08.02.06.03.09.08.1.15-.24 1.92-.38 2.96-.4 3.12-.06.33-.16.6-.32.81-.24.32-.57.48-.99.48-.14 0-.29-.04-.48-.13-.25-.12-.43-.27-.52-.46a.292.292 0 01-.02-.09c0-.03.01-.06.02-.09.04-.06.09-.09.15-.09.05 0 .1.03.14.07.22.29.47.43.76.43.23 0 .43-.1.59-.3.19-.23.3-.54.33-.93-.06.09-.13.17-.22.23a.86.86 0 01-.53.17c-.03 0-.07 0-.1-.01-.23-.03-.42-.17-.56-.41-.17-.26-.25-.59-.25-.99 0-.18.01-.37.02-.56.03-.3.09-.73.2-1.28 0-.02.01-.03.02-.05.03-.08.08-.12.16-.12.03 0 .06.01.09.02.06.03.09.08.09.14 0 .09-.03.32-.08.68-.08.53-.12.88-.12 1.04 0 .33.04.6.13.81.1.24.25.36.44.36.02 0 .04 0 .06-.01.14-.03.29-.15.44-.36.17-.24.3-.51.37-.82l.23-1.7c0-.03.01-.05.02-.08.03-.02.08-.05.15-.05z" fill="#fafafa"/></g><g><path d="M368.02 99.69c-.05 0-.09-2.03-.09-4.53 0-2.5.04-4.53.09-4.53s.09 2.03.09 4.53c0 2.5-.04 4.53-.09 4.53z" fill="#f5f5f5"/></g><g><path d="M327.65 99.69c-.05 0-.09-2.03-.09-4.53 0-2.5.04-4.53.09-4.53.05 0 .09 2.03.09 4.53 0 2.5-.04 4.53-.09 4.53z" fill="#e0e0e0"/></g><g><path d="M368.88 99.69c-.05 0-.09-2.03-.09-4.53 0-2.5.04-4.53.09-4.53.05 0 .09 2.03.09 4.53 0 2.5-.04 4.53-.09 4.53z" fill="#f5f5f5"/></g><g><path d="M326.84 99.69c-.05 0-.09-2.03-.09-4.53 0-2.5.04-4.53.09-4.53.05 0 .09 2.03.09 4.53 0 2.5-.04 4.53-.09 4.53z" fill="#e0e0e0"/></g><g><path d="M356.06 92.11l-.01-.02c1.35 1.09 3.18 2.56 5.21 4.21l.05.04-.06.02c-.22.06-.46.12-.69.18-1.58.42-3.08.81-4.4 1.16h-.02c-1.64-.69-3.02-1.28-3.99-1.69-.48-.21-.87-.37-1.13-.48-.13-.06-.23-.1-.3-.13-.03-.01-.06-.03-.08-.03-.02-.01-.03-.01-.03-.01s.01 0 .03.01c.02.01.05.02.08.03.07.03.17.07.3.12.27.11.65.27 1.14.47.98.41 2.36.99 4 1.67h-.02c1.32-.35 2.82-.74 4.4-1.16.24-.06.47-.12.69-.18l-.01.05c-2.03-1.65-3.86-3.13-5.2-4.22l-.01-.01v-.01" fill="#e0e0e0"/><path fill="#e0e0e0" d="M360.79 95.65l.29.27.38-.09-.17.36.2.34-.39-.05-.26.29-.07-.39-.36-.15.34-.19zM355.79 97.31l.19.16.25-.07-.1.24.14.21-.25-.02-.16.2-.06-.25-.23-.09.21-.13zM350.26 95.04l.31.02.2-.24.07.3.29.1-.26.17-.01.31-.24-.2-.3.09.12-.29zM363.13 92.18l.31.02.19-.24.08.3.29.1-.26.17-.02.31-.23-.2-.3.09.11-.29zM355.8 91.98l.2.01.12-.16.05.19.19.07-.17.11-.01.2-.15-.13-.19.05.07-.18z"/><path d="M363.56 92.4c0 .02-1.69-.04-3.77-.12-2.08-.09-3.77-.18-3.76-.2 0-.02 1.69.04 3.77.12 2.08.09 3.76.18 3.76.2z" fill="#e0e0e0"/></g></g><g><path d="M365.46 90.66h-50.03c-.66-1.49-.82-2.9 0-4.17h50.03c.65 1.52.6 2.9 0 4.17z" fill="#e0e0e0"/><path fill="#ebebeb" d="M325.78 87.68h27.11v1.52h-27.11z"/><path d="M317.34 90.68c-.02.01-.19-.16-.4-.5-.2-.34-.4-.87-.46-1.48-.05-.61.05-1.16.19-1.54.14-.37.28-.57.3-.56.03.01-.08.23-.18.6-.1.37-.18.9-.13 1.48.05.58.22 1.09.39 1.43.18.35.32.55.29.57zM318.43 90.68c-.02.01-.19-.16-.4-.5-.2-.34-.4-.87-.46-1.48-.05-.61.05-1.16.19-1.54.14-.37.28-.57.3-.56.03.01-.08.23-.18.6-.1.37-.18.9-.13 1.48.05.58.22 1.09.39 1.43.17.35.31.55.29.57z" fill="#e0e0e0"/><path d="M363.43 90.58c-.06-.02.35-.89.35-2.04.01-1.15-.38-2.02-.33-2.04.03-.03.52.84.51 2.04.01 1.21-.49 2.07-.53 2.04zM362.5 90.57c-.05-.01.16-.89.15-1.99 0-1.1-.21-1.98-.16-1.99.04-.02.34.86.34 1.99.01 1.13-.29 2.01-.33 1.99z" fill="#f5f5f5"/></g><g><path fill="#e0e0e0" d="M384.07 64.85h34.33v44.81h-34.1z"/><path fill="#fff" d="M415.716 109.426h-34.14v-44.35h34.14z"/><path d="M415.88 64.9v44.69H381.4V64.9h34.48zm-.34 44.35V65.24h-33.8v44.01h33.8z" fill="#e0e0e0"/><path fill="#fff" d="M385.13 69.88h26.14v34.74h-26.14z"/><path d="M385.08 69.88v.66c0 .43.01 1.07.01 1.89 0 1.65.01 4.07.02 7.13.01 6.11.02 14.78.04 25.07l-.08-.08c7.84 0 16.74-.01 26.13-.01l-.09.09c.01-12.94.01-24.93.02-34.74l.07.07c-7.9-.02-14.42-.03-18.98-.04-2.28-.01-4.06-.01-5.28-.02-.61 0-1.07-.01-1.39-.01-.3-.01-.47-.01-.47-.01s.16-.01.47-.01c.32 0 .78 0 1.38-.01 1.22 0 3-.01 5.27-.02 4.57-.01 11.11-.02 19.02-.04h.07v.07c0 9.81.01 21.81.02 34.74v.09h-.09c-9.39 0-18.29-.01-26.13-.01H385v-.08c.02-10.3.03-19 .04-25.12.01-3.05.02-5.46.02-7.11 0-.82.01-1.45.01-1.88v-.48c.01-.09.01-.14.01-.14z" fill="#e0e0e0"/><path d="M381.49 109.42c-.02-.01.16-.3.46-.75.3-.45.73-1.07 1.22-1.73.49-.67.96-1.26 1.31-1.67.35-.42.58-.66.6-.65.02.02-.18.29-.5.73-.36.49-.79 1.06-1.26 1.7-.47.64-.9 1.21-1.26 1.7-.33.43-.55.69-.57.67zM381.57 65.07c.04-.03.86 1.02 1.83 2.35.97 1.33 1.72 2.43 1.68 2.45-.04.03-.86-1.02-1.83-2.35-.96-1.32-1.72-2.42-1.68-2.45z" fill="#e0e0e0"/><g><path fill="#fff" d="M415.71 65.07l-4.49 4.98"/><path d="M411.22 70.05c-.04-.03.94-1.17 2.18-2.55 1.24-1.38 2.28-2.46 2.31-2.43.04.03-.94 1.17-2.18 2.55-1.24 1.38-2.28 2.47-2.31 2.43z" fill="#e0e0e0"/></g><g><path d="M415.71 109.42c-.04.03-1.03-1.01-2.21-2.32-1.19-1.31-2.12-2.4-2.08-2.44.04-.03 1.03 1 2.21 2.32 1.19 1.32 2.12 2.41 2.08 2.44z" fill="#e0e0e0"/></g><g><path d="M386.33 104.62s2.81-8.71 4.48-9.64c1.8-1 4.49-1.96 7.34-1.99 3.87-.03 5.71.25 7.98 1.81 2.62 1.8 4.39 9.72 4.39 9.72" fill="#e0e0e0"/></g><g><path d="M394.13 78.68c-2.4.11-2.99 3.33-2.83 5.18.08.87.34 1.82-.1 2.58-.31.54-.93.86-1.19 1.42-.32.69-.01 1.48.22 2.2.23.72.33 1.63-.25 2.12 1.36.35 2.74.71 4.15.78 1.41.07 2.87-.16 4.06-.91" fill="#e0e0e0"/><path d="M392.41 85.12c-1.58-3.63.57-5.85 1.97-6.65.84-.48 1.83-.58 2.79-.6.95-.03 1.91.01 2.83.25.92.24 1.8.68 2.45 1.37 1.15 1.23 1.42 3.05 1.32 4.73-.12 1.98-.68 3.94-1.66 5.66-.13.22-.27.45-.49.57-.22.12-.55.1-.68-.12" fill="#e0e0e0"/><path d="M397.77 97.59c1.63.11 3.06-1.29 3.23-3.8l.87-12.79-.06.88c.01-.53-.39-.98-.92-1.04l-5.06-.52a3.074 3.074 0 00-3.39 2.88c-.12 1.95-.18 4.33.05 5.78.47 2.92 2.71 3.28 2.71 3.28l-.17 2.12a2.956 2.956 0 002.74 3.21z" fill="#f5f5f5"/><path d="M393.4 84.86c-.01.2.16.37.36.38.21.01.38-.14.38-.34.01-.2-.16-.37-.36-.38a.36.36 0 00-.38.34zM392.95 84.45c.05.05.33-.16.73-.16.4-.01.7.2.74.15.02-.02-.03-.11-.16-.2-.13-.09-.34-.18-.59-.18-.25 0-.46.1-.58.19-.12.09-.16.17-.14.2zM397.27 84.86c-.01.2.16.37.36.38.21.01.38-.14.38-.34.01-.2-.16-.37-.36-.38a.36.36 0 00-.38.34z" fill="#e0e0e0"/><path d="M396.91 84.51c.05.05.33-.16.73-.16.4-.01.7.2.74.15.02-.02-.03-.11-.16-.2-.13-.09-.34-.18-.59-.18-.25 0-.46.1-.58.19-.12.09-.17.18-.14.2zM395.45 87.5c0-.02-.25-.07-.65-.12-.1-.01-.2-.03-.22-.1-.02-.07.02-.19.07-.31.1-.25.2-.51.3-.78.42-1.12.72-2.03.68-2.05-.05-.02-.42.87-.84 1.99-.1.28-.2.54-.29.79-.04.12-.11.25-.05.4.03.08.1.13.17.15.07.02.12.02.17.02.41.03.66.03.66.01z" fill="#e0e0e0"/><path d="M395.19 92.27s1.96.12 3.91-1.05c0 0-1.04 2.02-3.96 1.76l.05-.71z" fill="#ebebeb"/><g><path d="M395.63 88.47c.14-.19.4-.3.65-.27.17.02.35.1.46.24s.13.34.03.48c-.11.15-.34.19-.53.14-.19-.05-.36-.18-.52-.31a.456.456 0 01-.12-.12c-.03-.05-.03-.11 0-.15" fill="#e0e0e0"/></g><g><path d="M396.64 87.78c-.07 0-.07.43-.44.75-.37.31-.84.26-.84.33-.01.03.1.08.3.09.19.01.47-.06.7-.25a.93.93 0 00.34-.62c.02-.2-.03-.31-.06-.3z" fill="#e0e0e0"/></g><g><path d="M396.72 83.8c.04.11.44.06.91.11.47.05.86.18.92.08.03-.05-.04-.15-.19-.26-.15-.11-.4-.21-.68-.24s-.54.02-.72.09c-.17.09-.25.17-.24.22z" fill="#e0e0e0"/></g><g><path d="M393.09 83.28c.07.09.35 0 .68-.01.33-.02.62.06.68-.04.03-.05-.02-.14-.14-.22a.898.898 0 00-.55-.15c-.23.01-.43.09-.54.19-.12.09-.16.18-.13.23z" fill="#e0e0e0"/></g><g><path d="M394.71 78.29c2.83-1.59 5.86-.48 8.15 1.82.5.51.96 1.1 1.62 1.38.71.3 1.66.26 2.08.9.49.76-.17 1.82.19 2.65.33.76 1.38.98 1.77 1.72.31.58.11 1.28-.03 1.91-.14.64-.2 1.4.28 1.85l-6.08 2.31c-.27.1-.57.15-.86.09-.86-.17-.93-.97-.85-1.63.06-.49.17-1.02-.04-1.47-.25-.53-.88-.82-1.1-1.37-.39-.96.7-1.97.57-3-.08-.65-.64-1.14-1.24-1.4s-1.26-.35-1.88-.54c-1.43-.46-2.62-1.77-3.23-3.24-.32-.73-.04-1.58.65-1.98z" fill="#e0e0e0"/></g></g></g></g><g><path d="M397.01 377.11a31.984 31.984 0 00-13.67-4.71c-2.23-.23-4.68-.16-6.47 1.19-.38.29-.75.71-.67 1.18.06.34.35.6.63.81 5.56 4.25 13.98 4.79 20.18 1.53M396.65 376.73c-3.1-2.42-6.21-4.85-8.83-7.77s-4.75-6.39-5.54-10.24c-.24-1.17-.31-2.5.44-3.43 7.04 5.5 12.57 12.61 13.93 21.44" fill="#e0e0e0"/><path d="M396.93 377.06c-.53-3.85-.72-7.81.16-11.6s2.94-7.41 6.18-9.57c1.22 2.84.69 6.12-.16 9.09a44.02 44.02 0 01-6.12 12.89M403.83 389.43c-4.19.51-7.84 2.72-10.97 5.55a20.71 20.71 0 00-6.27 10.77c4.11-.25 7.6-3.15 10.12-6.4 2.53-3.25 4.28-6.81 7.06-9.85M405.33 391.4c-3.37-8.31-2.15-18.33 3.12-25.58 2.39 8.49 1.52 18.08-3.12 25.58M414.45 402.26c-3.8-.24-7.67.67-10.97 2.57-3.3 1.9-6.03 4.79-7.73 8.19-.23.46-.44 1.05-.13 1.47.27.36.79.39 1.24.36 3.69-.24 6.95-2.46 9.65-4.98 2.7-2.52 5.04-5.44 8.02-7.63M414.16 401.67a34.872 34.872 0 01-.35-19.45c.69-2.5 1.84-5.14 4.15-6.31.2-.1.43-.19.64-.11.2.07.31.28.4.47.82 1.72 1.06 3.68.98 5.58-.08 1.91-.48 3.78-.87 5.65-.73 3.45-1.12 7.16-3.01 10.14-.45.71-.85 1.47-1.2 2.23-.36.76-.36 1.02-.69 1.63M438.3 405.27c-1.79-6.8.11-15.05 4.4-20.62.32-.41.73-.85 1.25-.8.79.07.99 1.12.96 1.92a37.411 37.411 0 01-6.61 19.5M440.47 406.75c8.26 2.15 17.74.06 24.62-5.01-4.07-2.06-8.88-2.65-13.33-1.64-4.45 1.03-8.52 3.02-11.29 6.65M442.31 402.23c4.63-7.55 13.5-12.47 22.34-12.92-1.02 3.6-3.97 6.39-7.31 8.08-3.33 1.69-7.06 2.42-10.73 3.14-1.42.27-3.38.57-4.3 1.7M438.76 380.25c1.25-4.29 2.51-8.63 2.86-13.09.34-4.46-.29-9.12-2.61-12.94-4.32 8.37-4.76 18.14-.38 26.48M453.31 372.89c5.06-9.19 15.37-16.53 25.81-17.56-4.03 10.03-15.01 17.78-25.81 17.56M450.13 374.69c7.54 1.15 13.96 5.96 21.01 8.88 1.51.62 3.13 1.12 4.75.91 1.62-.21 3.21-1.3 3.58-2.89.3-1.32-.3-2.72-1.25-3.69-.95-.97-2.2-1.57-3.45-2.09-7.67-3.2-15.91-3.27-23.99-1.34" fill="#e0e0e0"/><path d="M445.77 379.98c1.71.49 2.29 1.37 3.64 2.52a39.256 39.256 0 0015.93 8.18c.61.15 1.41.21 1.71-.34.26-.48-.07-1.06-.41-1.49-2.45-3.06-5.94-5.16-9.62-6.53-3.68-1.37-6.86-3.02-11.25-2.67M440.84 348.04c6.13 5.72 14.77 8.66 23.12 7.86.38-.04.79-.1 1.05-.38.58-.63-.12-1.61-.79-2.14-6.8-5.29-15.03-7.49-23.38-5.34" fill="#e0e0e0"/><path d="M446.68 345.9c8.1-6.08 19.22-7.91 28.85-4.76-3.63 3.58-8.67 5.51-13.75 6.03-5.07.54-10.15-.03-15.1-1.27M444.36 331.23c-.67-6.78-.23-12.14-.71-18.95-.04-.54-.15-1.2-.66-1.4-.71-.27-1.3.6-1.53 1.32-2.02 6.28-.92 13.49 2.89 18.88" fill="#e0e0e0"/><path d="M443.87 331.98c4.6-2.84 8.05-6.56 11.24-10.92 2.22-3.04 4.09-6.67 3.59-10.4-3.12-.06-6.08 1.66-8.11 4.03-2.03 2.37-3.23 5.33-4.13 8.31-.9 2.98-1.53 6.04-2.59 8.98M454.91 328.91a90.337 90.337 0 0027.65-16.31c-3.3-1.33-7.09-.53-10.39.8-7.55 3.05-13.71 8.19-17.41 15.43M446.98 335.69c5.11.56 10.29.92 15.36.07 4.98-.83 9.68-2.81 14.34-4.76.39-.16.81-.36.97-.74.18-.42-.01-.92-.35-1.23-.34-.3-.78-.45-1.22-.57-5.06-1.41-10.52-.75-15.49.93-4.99 1.67-9.07 3.67-13.61 6.3M417.83 348.27c-3.48-7.03-3.26-15.23-.25-22.48 2.12 3.23 2.38 7.34 1.99 11.18-.39 3.84-1.56 7.79-1.63 11.65M403.91 341.25c-8.7-.17-17.39 3.54-23.3 9.93 4.34.68 8.81-.44 12.76-2.37 3.95-1.93 7.46-4.63 10.93-7.32M394.56 338.13c-4.25-.34-8.35-.87-12.44.38s-7.81 4.1-9.48 8.04c3.98.45 8.01-.55 11.66-2.2 3.65-1.66 6.96-3.95 10.26-6.22M408.41 338.27c-3.83-2.51-7.76-5.06-12.21-6.1-4.46-1.04-9.62-.27-12.73 3.09 3.61 2.12 7.98 2.37 12.17 2.36 4.18 0 9.31-.05 13.25 1.34" fill="#e0e0e0"/><path d="M408.43 338.47c-6.54-6.42-9.02-17.97-6.39-26.75 5.14 7.82 7.45 17.46 6.39 26.75M426.42 320.27c1.23-2.87 2.1-5.88 3.21-8.8 1.11-2.92 2.48-5.79 4.57-8.11 2.09-2.32 4.98-4.04 8.1-4.2-1.95 8.84-7.82 16.74-15.73 21.16M423.17 324.06c-2.04-2.81-4.4-6.63-7.17-8.72-2.77-2.1-6.37-3.37-9.75-2.56 3.43 6.14 9.92 10.47 16.92 11.28M423.82 320.5c-1.34-3.4-2.69-6.84-3.23-10.45-.54-3.61-.21-7.48 1.64-10.63 3.59 6.79 4.75 14.08 1.77 21.16M426.46 299.42c2.03-6.73 8.2-11.69 14.85-13.96.84-.29 1.73-.53 2.6-.39.88.14 1.74.73 1.92 1.6.24 1.14-.7 2.17-1.59 2.93a50.476 50.476 0 01-17.78 9.82M426.53 293.92c.26-4.34.53-8.74 1.94-12.85 1.41-4.11 4.13-7.97 8.09-9.77.67 4.38-1.26 8.74-3.59 12.51-2.33 3.77-5.14 7.33-6.54 11.54M426.42 296.9c-1.68-4.9-1.86-11.13-4.79-15.41-2.05-2.99-5.34-5.02-7.11-8.19-1.18 2.95-.82 6.36.41 9.29 1.23 2.93 3.26 5.46 5.43 7.78 2.18 2.33 4.04 4.08 6.06 6.53" fill="#e0e0e0"/><path d="M426.46 441.35c-.13 0-.24-32.72-.25-73.07-.01-40.37.09-73.08.22-73.08s.24 32.71.25 73.08c.01 40.35-.09 73.07-.22 73.07z" fill="#e0e0e0"/><path d="M455.05 343.33c.01.03-.43.19-1.23.46-.88.3-2.02.68-3.39 1.14-2.85.97-6.78 2.38-11.03 4.12-4.21 1.81-8.19 3.28-10.45 5.24-1.13.97-1.78 2.02-2.1 2.78-.32.77-.38 1.24-.43 1.23-.02 0-.01-.12.01-.34.04-.22.09-.55.24-.95.28-.81.91-1.93 2.05-2.96 1.14-1.04 2.72-1.97 4.54-2.82 1.81-.85 3.82-1.73 5.96-2.61 4.27-1.75 8.22-3.11 11.11-4.01 1.44-.45 2.62-.78 3.44-1 .81-.2 1.27-.31 1.28-.28z" fill="#e0e0e0"/><path d="M464.42 320.31c.01.01-.11.14-.34.37-.28.26-.63.59-1.05.99l-3.92 3.56c-3.38 3.01-7.97 7.1-13.05 11.62-5.09 4.53-9.49 8.86-12.54 12.13-1.53 1.63-2.73 2.98-3.55 3.92-.38.44-.7.8-.95 1.08-.22.25-.34.37-.35.36-.01-.01.08-.15.28-.42.2-.26.49-.65.88-1.14.78-.98 1.95-2.37 3.45-4.03 2.99-3.33 7.37-7.71 12.47-12.25 5.11-4.52 9.76-8.58 13.14-11.51 1.66-1.42 3.02-2.59 4.02-3.45.45-.37.81-.68 1.11-.92.25-.22.39-.32.4-.31z" fill="#e0e0e0"/><path d="M440.56 341.45c-.13-.06.93-2.52 1.99-5.62 1.07-3.11 1.57-5.73 1.71-5.71.12.01-.18 2.71-1.26 5.86-.53 1.57-1.12 2.95-1.58 3.93-.47.99-.8 1.57-.86 1.54zM426.49 361.26c-.03.02-.3-.31-.78-.91-.53-.68-1.21-1.55-2.01-2.58-1.69-2.18-4.02-5.2-6.64-8.49-2.62-3.3-5.02-6.26-6.77-8.4-.82-1.02-1.51-1.87-2.05-2.54-.48-.6-.73-.95-.71-.97.02-.02.33.28.85.85s1.27 1.4 2.17 2.45c1.81 2.09 4.26 5.01 6.88 8.32 2.62 3.3 4.92 6.35 6.54 8.59.81 1.12 1.46 2.03 1.89 2.67.42.63.65.99.63 1.01z" fill="#e0e0e0"/><path d="M420.22 353.21c-.08.08-1.75-1.9-2.63-4.92-.65-2.12-.68-4.07-.6-4.96l.21.02c-.09.38-.16.58-.2.57-.04-.01-.04-.22-.01-.61l.21.02c.08.88.21 2.76.84 4.82.85 2.93 2.3 4.98 2.18 5.06zM412.12 343.03c-.06.07-.6-.61-1.83-1.07-1.23-.47-3.07-.58-5.09-.4-2.02.15-3.83.51-5.13.83-1.29.32-2.09.57-2.11.51-.02-.06.73-.42 2.02-.83 1.29-.4 3.12-.83 5.18-.98 2.05-.18 3.99-.02 5.25.57 1.29.56 1.75 1.36 1.71 1.37zM410.2 340.56c-.04.07-1.07-.43-2.81-1.02a28.5 28.5 0 00-7.01-1.44c-2.8-.21-5.34.04-7.15.36-1.81.32-2.91.66-2.93.59-.01-.03.25-.14.74-.32s1.21-.39 2.12-.6c1.81-.42 4.4-.72 7.25-.51 2.85.22 5.36.91 7.09 1.6.87.34 1.55.66 2.01.91.46.25.71.4.69.43zM426.42 330.13c-.13.03-1.04-3.15-2.05-7.12-1.01-3.96-1.72-7.2-1.59-7.23.13-.03 1.04 3.15 2.05 7.12 1.01 3.95 1.72 7.19 1.59 7.23z" fill="#e0e0e0"/><path d="M426.55 330.13c-.14.05-.73-2.08-2.27-4.26-1.5-2.22-3.41-3.34-3.34-3.45.02-.05.55.14 1.29.67.74.51 1.65 1.39 2.44 2.51 1.6 2.26 2 4.52 1.88 4.53zM426.46 423.9c-.05.01-.15-.79-.52-2.18-.36-1.39-1.05-3.36-2.19-5.66-2.26-4.62-6.37-10.48-11.6-16.34-2.59-2.96-5.1-5.75-7.24-8.42-2.14-2.67-3.89-5.21-5.17-7.46-1.29-2.25-2.12-4.18-2.61-5.54-.24-.68-.42-1.22-.51-1.58-.1-.37-.15-.56-.13-.57.04-.01.28.75.82 2.08.54 1.33 1.42 3.23 2.73 5.44 1.31 2.21 3.08 4.72 5.22 7.36 2.14 2.64 4.66 5.42 7.25 8.39 5.24 5.88 9.34 11.81 11.55 16.51 1.11 2.34 1.75 4.35 2.06 5.77.15.71.25 1.26.29 1.64.05.36.06.56.05.56z" fill="#e0e0e0"/><path d="M452.29 394.72c.02.03-.48.29-1.35.76-.87.49-2.1 1.24-3.51 2.32-1.41 1.08-2.99 2.5-4.61 4.21s-3.29 3.7-4.99 5.82c-3.4 4.27-6.59 8.05-8.49 11.06-.97 1.5-1.67 2.76-2.13 3.64-.46.88-.71 1.38-.75 1.36-.01-.01.03-.14.13-.38s.24-.61.45-1.06c.41-.91 1.08-2.21 2.01-3.74 1.85-3.09 5.01-6.92 8.41-11.18 1.71-2.13 3.39-4.12 5.04-5.83 1.65-1.7 3.27-3.11 4.73-4.17 1.45-1.06 2.73-1.78 3.63-2.22.45-.23.81-.36 1.06-.47.24-.09.37-.14.37-.12z" fill="#e0e0e0"/><path d="M452.8 404.19c.01.07-1.09.2-2.86.42-1.76.23-4.22.52-6.79 1.34-2.56.83-4.69 2.11-6.08 3.19-1.4 1.08-2.06 1.98-2.13 1.93-.02-.02.11-.26.42-.66s.81-.94 1.49-1.53c1.36-1.18 3.51-2.52 6.14-3.38 2.63-.83 5.12-1.08 6.9-1.22 1.8-.14 2.9-.15 2.91-.09z" fill="#e0e0e0"/><path d="M435.78 410.02c-.15-.08 1.14-2.05 2.14-4.7.94-2.67 1.16-5.02 1.33-4.99.06.01.06.59-.05 1.54-.11.94-.34 2.24-.83 3.62-.5 1.37-1.16 2.52-1.66 3.32-.51.78-.88 1.24-.93 1.21zM460.66 369.3c.01.02-.15.1-.46.24-.36.16-.8.36-1.35.61-.59.25-1.3.57-2.11 1-.81.42-1.75.85-2.73 1.44-.5.28-1.02.58-1.56.89-.54.31-1.08.68-1.65 1.04-1.15.7-2.3 1.56-3.54 2.44a66.62 66.62 0 00-7.38 6.49 67.389 67.389 0 00-6.24 7.6c-.84 1.26-1.66 2.44-2.31 3.62-.34.58-.69 1.13-.98 1.68-.29.55-.57 1.08-.83 1.59-.56 1-.95 1.96-1.34 2.78-.4.82-.69 1.55-.93 2.14-.23.55-.42 1-.56 1.37-.13.31-.21.47-.23.47-.02-.01.03-.18.14-.5.13-.37.29-.83.48-1.4.21-.61.48-1.35.85-2.18.37-.84.75-1.81 1.29-2.83.26-.52.53-1.05.81-1.61.29-.56.63-1.12.96-1.71.65-1.19 1.46-2.39 2.29-3.67 1.74-2.5 3.82-5.14 6.25-7.68 2.46-2.52 5.02-4.69 7.46-6.51 1.25-.87 2.42-1.73 3.58-2.42.58-.35 1.12-.72 1.67-1.02l1.59-.87c1-.57 1.96-.99 2.78-1.38.82-.4 1.55-.7 2.15-.93.56-.22 1.02-.39 1.38-.53.35-.12.52-.17.52-.16z" fill="#e0e0e0"/><path d="M440.21 383c-.04-.01.19-.8 1.12-1.67.92-.87 2.59-1.68 4.53-1.74 1.94-.05 3.62.49 4.77.93 1.15.45 1.83.82 1.8.88-.03.07-.75-.19-1.91-.56-1.16-.36-2.81-.82-4.64-.77-1.83.06-3.41.76-4.33 1.52-.93.75-1.26 1.46-1.34 1.41zM437.16 386.16c-.13-.07 1.02-1.76 1.29-4.19.3-2.42-.43-4.33-.29-4.37.05-.02.31.42.53 1.22.22.79.37 1.95.23 3.21-.15 1.26-.56 2.35-.96 3.07-.41.72-.76 1.09-.8 1.06z" fill="#e0e0e0"/><g><path d="M403.86 428.59c.71 12.5 4.47 25.22 10.27 38.08h25.2c5.53-12.73 9.04-25.43 9.66-38.08h-45.13z" fill="#e0e0e0"/></g><g><path d="M444.9 448.83c0 .13-8.3.24-18.53.24-10.24 0-18.53-.11-18.53-.24s8.3-.24 18.53-.24c10.24 0 18.53.11 18.53.24z" fill="#fafafa"/></g><g><path d="M444.34 453.36c0 .13-7.78.24-17.37.24-9.6 0-17.38-.11-17.38-.24s7.78-.24 17.38-.24c9.59 0 17.37.11 17.37.24z" fill="#fafafa"/></g><g><path d="M414.53 436.8c.13 0 .24 2.6.24 5.8 0 3.21-.11 5.81-.24 5.81s-.24-2.6-.24-5.81c.01-3.2.11-5.8.24-5.8z" fill="#fafafa"/></g><g><path d="M428.04 436.8c.13 0 .24 2.69.24 6.01s-.11 6.01-.24 6.01-.24-2.69-.24-6.01.11-6.01.24-6.01z" fill="#fafafa"/></g><g><path d="M440.71 436.7c.13 0 .24 2.75.24 6.13 0 3.39-.11 6.13-.24 6.13s-.24-2.74-.24-6.13c.01-3.38.11-6.13.24-6.13z" fill="#fafafa"/></g><g><path d="M448.19 436.8c0 .13-9.73.24-21.74.24-12.01 0-21.74-.11-21.74-.24s9.73-.24 21.74-.24c12.01.01 21.74.11 21.74.24z" fill="#fafafa"/></g></g><g><path d="M75.12 389.74c4.09-2.11 8.91-2.39 13.45-1.63 2.44.4 4.98 1.13 6.64 2.97 1.66 1.83 1.97 5.06.07 6.63-1.13.94-2.72 1.08-4.19 1.06-3.56-.04-7.5-.67-10.34 1.47-1.62 1.22-2.7 3.25-4.64 3.85-1.9.59-4.03-.53-5.04-2.24-1.01-1.71-1.04-3.85-.57-5.78.01 0 .5-4.2 4.62-6.33zM65.75 371.65c2.5 3.57 7.36 2.39 9.62.21 2.25-2.18 3.21-5.34 4.07-8.36 1.98-6.89 3.98-14.11 2.51-21.13-.44-2.1-1.22-4.19-2.7-5.74-1.47-1.56-3.74-2.48-5.81-1.93-2.45.65-3.98 3.05-5.08 5.33a50.381 50.381 0 00-4.98 21.61c-.01 3.48.4 7.13 2.37 10.01M58.88 376.77c2.72-3.22 3.23-7.93 2.02-11.96-1.21-4.04-3.94-7.47-7.09-10.28a38.174 38.174 0 00-12.69-7.49c-1.83-.65-3.77-1.15-5.71-.97-1.94.18-3.89 1.17-4.79 2.9-1.34 2.55-.06 5.64 1.33 8.16 2.44 4.44 5.23 8.69 8.33 12.69 2.5 3.22 5.36 6.4 9.17 7.85 3.81 1.46 7.76 1.28 9.78-1.36" fill="#5ea0a8"/><path d="M65.58 425.55c.05 0 .12-.58.23-1.62.12-1.18.26-2.67.43-4.43.21-1.86.48-4.08 1-6.5.52-2.41 1.32-5.02 2.36-7.67 1.07-2.63 2.39-5.03 3.92-6.94 1.52-1.92 3.29-3.31 4.95-4.12 1.66-.82 3.14-1.15 4.17-1.3 1.04-.11 1.62-.19 1.62-.23 0-.05-.58-.05-1.65-.03-1.05.07-2.6.34-4.35 1.13-1.75.78-3.63 2.19-5.22 4.15-1.61 1.95-2.97 4.4-4.06 7.08-1.06 2.7-1.85 5.33-2.35 7.8-.49 2.46-.72 4.7-.86 6.58s-.19 3.41-.22 4.46c-.03 1.05-.02 1.63.03 1.64z" fill="#263238"/><path d="M65.88 422.14c.02 0 .04-.26.04-.75 0-.57 0-1.28-.01-2.15-.01-1.87 0-4.58.1-7.92.17-6.68.74-13.87 1.85-24.01 1.05-9.53 2.46-20.63 3.96-27.84.32-1.64.64-3.12.94-4.41.29-1.3.54-2.41.77-3.32.2-.85.37-1.54.5-2.09.11-.48.15-.74.13-.74-.02-.01-.11.24-.26.71-.16.54-.37 1.23-.63 2.06-.28.9-.56 2.01-.89 3.3-.34 1.29-.69 2.76-1.04 4.4-1.47 6.54-3.04 15.67-4.16 25.83-1.11 10.16-1.62 19.41-1.66 26.11-.04 3.35.03 6.06.12 7.93.05.88.1 1.59.13 2.15.06.48.09.74.11.74z" fill="#263238"/><path d="M65.93 404.29c.05 0 .04-.8-.02-2.25-.08-1.45-.28-3.54-.69-6.1-.43-2.55-1.04-5.59-1.98-8.88-.41-1.51-1.38-5.12-3.71-10.51-3.08-7.31-7.27-13.29-10.91-16.99-.85-.98-1.81-1.69-2.57-2.39-.39-.33-.74-.66-1.1-.93-.36-.25-.69-.47-1-.69-1.2-.82-1.87-1.25-1.89-1.21-.11.15 2.68 1.79 6.21 5.54 3.51 3.74 7.58 9.68 10.64 16.93a85.33 85.33 0 013.74 10.41c.97 3.26 1.62 6.27 2.11 8.8.46 2.53.73 4.6.9 6.04.13 1.44.22 2.24.27 2.23zM48.68 435.77l1.79 24.49h31.47l1.79-24.49zM45.64 426.11h41.84v9.65H45.64z" fill="#263238"/><g><path fill="#455a64" d="M45.64 459.32V462h41.15v-2.68z"/></g><g><path fill="#455a64" d="M49.54 466.71L47.61 462h37.68l-2.25 4.71z"/></g><g><path d="M83.14 443.77c.01.01-.04.08-.15.22-.12.17-.28.37-.47.62-.45.57-1.06 1.36-1.83 2.35l-.08.1-.08-.11c-1.15-1.59-2.69-3.72-4.5-6.23h.26c-1.34 1.9-2.83 4.01-4.43 6.28l-.14.2-.16-.19c-1.64-1.95-3.41-4.06-5.26-6.26h.3c-.09.11-.19.24-.29.36-1.63 2.04-3.21 4.02-4.7 5.89l-.16.2-.14-.2c-1.6-2.26-3.09-4.37-4.44-6.28l.26.01c-2.19 2.49-4.04 4.6-5.46 6.22l-.1.11-.07-.12c-.72-1.21-1.29-2.17-1.71-2.87-.18-.31-.32-.56-.44-.77-.1-.17-.14-.27-.13-.27.01-.01.07.08.18.24.13.19.29.44.49.74l1.8 2.82-.17-.01c1.4-1.64 3.22-3.78 5.38-6.3l.14-.16.12.17c1.36 1.9 2.87 4 4.48 6.25l-.3-.01c1.49-1.87 3.06-3.86 4.69-5.9.1-.12.2-.25.29-.36l.15-.19.15.18c1.84 2.2 3.61 4.32 5.24 6.27l-.29.01c1.62-2.26 3.13-4.36 4.48-6.25l.13-.18.13.18c1.77 2.53 3.28 4.69 4.41 6.3h-.16c.8-.96 1.44-1.73 1.91-2.29.21-.24.38-.43.51-.59.09-.12.15-.18.16-.18z" fill="#e0e0e0"/></g><g><path d="M84.16 435.61c0 .11-7.88.2-17.61.2s-17.61-.09-17.61-.2c0-.11 7.88-.2 17.61-.2s17.61.09 17.61.2z" fill="#455a64"/></g><g><path d="M85.75 462.26c0 .11-8.57.2-19.14.2s-19.14-.09-19.14-.2c0-.11 8.57-.2 19.14-.2 10.57.01 19.14.1 19.14.2z" fill="#263238"/></g></g><g><path d="M166.2 62.07l-17.73.15c-2.38.02-4.29 2.05-4.27 4.54l.03 3.22c.02 2.49-1.89 4.52-4.27 4.54l-34.55.28c-2.38.02-4.32-1.98-4.34-4.46l-.03-3.22c-.02-2.49-1.97-4.48-4.34-4.46l-6.23.05-15.52.13c-7.71.06-13.9 6.36-13.83 14.07l1.93 223.74c.07 7.7 6.36 13.89 14.06 13.83l91.25-.75c7.71-.06 13.9-6.36 13.83-14.07L180.26 75.9c-.07-7.7-6.36-13.89-14.06-13.83z" fill="#fff"/><path d="M166.2 62.07s.16 0 .48.01c.32.03.8-.01 1.41.1 1.24.13 3.12.52 5.25 1.76 1.07.59 2.17 1.45 3.21 2.55 1.03 1.1 2 2.48 2.69 4.14.71 1.65 1.1 3.59 1.09 5.65.02 2.06.04 4.25.07 6.58.18 18.59.43 45.48.74 78.7.3 33.23.65 72.79 1.05 116.72l.15 16.68c.01 1.41.02 2.82.04 4.23 0 1.42-.08 2.88-.5 4.26-.39 1.38-.95 2.73-1.75 3.95-.79 1.21-1.76 2.31-2.88 3.25-2.25 1.84-5.08 3.03-8.03 3.2-2.92.11-5.83.07-8.77.12a124495.913 124495.913 0 01-72.87.6c-3.13.03-6.27.05-9.42.08-3.16.19-6.45-.62-9.11-2.43-2.67-1.8-4.66-4.54-5.6-7.59-.51-1.52-.61-3.15-.62-4.71-.01-1.57-.03-3.14-.04-4.7-.05-6.26-.11-12.48-.16-18.65-.11-12.35-.21-24.51-.31-36.47-.2-23.91-.4-46.97-.58-68.94-.18-21.97-.36-42.85-.52-62.38-.08-9.77-.16-19.2-.23-28.27l-.03-3.38c0-.56.04-1.13.06-1.69.09-.56.13-1.12.27-1.66a14.26 14.26 0 012.88-5.94c1.41-1.69 3.18-3.03 5.14-3.91 1.96-.9 4.11-1.23 6.19-1.23l12.16-.09c1.98-.01 3.93-.03 5.85-.04.96-.01 1.92-.01 2.87-.02.96-.06 1.96.2 2.75.74s1.41 1.33 1.73 2.23c.37.89.29 1.86.31 2.75 0 .45.01.91.01 1.36.01.45-.01.9.06 1.33.12.86.49 1.69 1.06 2.33.56.65 1.32 1.11 2.14 1.3.41.1.82.13 1.26.11.43 0 .86-.01 1.29-.01 1.71-.01 3.38-.03 5.03-.04 6.6-.05 12.74-.09 18.39-.14l8.11-.06c.64-.02 1.29.02 1.9-.04.61-.08 1.2-.29 1.7-.62 1.02-.65 1.7-1.71 1.93-2.83.12-.56.1-1.13.09-1.69 0-.56-.01-1.12-.01-1.67 0-.54-.04-1.09.06-1.63.09-.53.26-1.04.51-1.5.49-.92 1.31-1.62 2.21-1.99.91-.41 1.89-.29 2.77-.32 3.58-.02 6.6-.04 9.05-.06 2.44-.01 4.31-.02 5.56-.03 1.26-.01 1.91 0 1.91 0s-.64.02-1.9.04c-1.26.01-3.12.04-5.56.07-2.45.03-5.47.06-9.05.09-.89.03-1.84-.08-2.72.32-.88.36-1.66 1.04-2.14 1.94-.24.45-.41.94-.49 1.46-.09.51-.05 1.05-.05 1.6.01.55.01 1.1.02 1.67 0 .56.03 1.15-.09 1.73a4.563 4.563 0 01-1.99 2.93c-.52.34-1.13.56-1.77.64-.65.06-1.27.03-1.92.05-2.58.02-5.28.05-8.11.08-5.65.05-11.79.11-18.39.17-1.65.01-3.33.03-5.03.05-.43 0-.86.01-1.29.01-.43.01-.88-.01-1.31-.12a4.36 4.36 0 01-2.27-1.37c-.6-.67-1-1.54-1.12-2.45-.07-.46-.05-.91-.06-1.36 0-.45-.01-.9-.01-1.36-.02-.91.05-1.83-.3-2.67-.3-.85-.89-1.59-1.64-2.1-.76-.51-1.67-.75-2.61-.7l-2.87.03c-1.92.02-3.87.03-5.85.05-3.95.03-8.01.07-12.16.11-2.06 0-4.16.32-6.08 1.21-1.92.87-3.65 2.19-5.03 3.84a13.95 13.95 0 00-2.82 5.81c-.14.53-.17 1.09-.26 1.63-.02.55-.06 1.1-.06 1.66l.03 3.38c.08 9.07.17 18.5.25 28.27.17 19.54.36 40.41.56 62.38.19 21.97.4 45.03.61 68.94.1 11.95.21 24.12.32 36.47.05 6.17.11 12.39.16 18.65.01 1.57.03 3.13.04 4.7.01 1.56.12 3.12.61 4.6.92 2.96 2.84 5.63 5.44 7.38 2.6 1.76 5.75 2.54 8.88 2.36 3.15-.03 6.29-.05 9.42-.08a160183.558 160183.558 0 0055.11-.45c5.98-.05 11.9-.1 17.76-.14 2.93-.04 5.87 0 8.74-.11 2.87-.17 5.62-1.32 7.81-3.11 1.08-.92 2.03-1.98 2.8-3.16.78-1.18 1.32-2.49 1.7-3.84.41-1.35.48-2.76.49-4.16-.01-1.41-.02-2.82-.04-4.23-.05-5.62-.09-11.18-.14-16.68-.36-43.93-.69-83.49-.96-116.72-.26-33.23-.47-60.11-.62-78.7-.02-2.32-.03-4.52-.05-6.58.01-2.05-.37-3.97-1.07-5.61-.68-1.65-1.63-3.02-2.66-4.12-1.03-1.1-2.11-1.95-3.17-2.55-2.11-1.25-3.98-1.64-5.21-1.79-.62-.12-1.1-.08-1.41-.12-.31-.03-.47-.04-.47-.04z" fill="#263238"/><path d="M169.09 84.64c0 .06-2.3.15-5.15.2-2.84.05-5.15.04-5.15-.02s2.3-.15 5.15-.2c2.84-.05 5.15-.04 5.15.02zM169.14 87.27c0 .06-2.3.15-5.15.2-2.84.05-5.15.04-5.15-.02s2.3-.15 5.15-.2c2.84-.05 5.15-.04 5.15.02zM169.18 89.91c0 .06-2.3.15-5.15.2-2.84.05-5.15.04-5.15-.02s2.3-.15 5.15-.2c2.84-.05 5.15-.04 5.15.02zM75.5 93.74s.08-.01.21-.02c.17-.01.36-.02.6-.03.56-.02 1.3-.04 2.2-.07l-.06.06c-.01-.49-.03-1.02-.04-1.59 0-.3-.03-.58 0-.92.06-.34.36-.65.73-.68.35-.01.67-.03 1.05-.01.4.04.74.42.73.84.01.74.03 1.52.05 2.33l-.1-.1c.89-.02 1.82-.03 2.77-.05l-.1.11-.06-3.46c-.01-.3-.01-.59-.02-.88 0-.27-.17-.45-.4-.65-.41-.4-.82-.8-1.22-1.18-.4-.39-.79-.77-1.18-1.14-.19-.19-.38-.37-.57-.56-.2-.19-.35-.38-.58-.42a.735.735 0 00-.64.13c-.17.14-.34.35-.51.51-.34.35-.67.69-.99 1.01-.62.66-1.27 1.26-1.74 1.82-.2.31-.12.69-.13 1.04 0 .34 0 .67.01.98v2.58c-.01.22-.01.35-.01.35-.01.01-.01-.11-.02-.33-.01-.27-.02-.6-.04-.99-.01-.45-.03-.98-.05-1.59l-.03-1c0-.18-.01-.36-.01-.55 0-.2.05-.4.15-.58.51-.63 1.12-1.2 1.74-1.87.32-.33.64-.67.98-1.02.18-.18.32-.35.53-.54.22-.17.52-.24.8-.17.3.06.49.3.67.47.19.18.38.37.57.55.39.37.78.75 1.18 1.14.4.39.81.78 1.23 1.18.1.1.22.19.31.33s.14.3.15.47c.01.29.01.59.02.88l.06 3.46v.11h-.11c-.96.01-1.88.03-2.77.04h-.1v-.1l-.03-2.33a.662.662 0 00-.57-.67c-.32-.01-.7 0-1.01.01-.3.03-.54.27-.59.54-.02.28 0 .6 0 .89.01.57.01 1.11.01 1.59v.06H75.69c-.13.03-.2.03-.19.02z" fill="#263238"/><path d="M161.44 124.61l-82.35.73a7.46 7.46 0 01-7.53-7.39l-.02-2.77a7.46 7.46 0 017.39-7.53l82.35-.73a7.46 7.46 0 017.53 7.39l.02 2.77a7.46 7.46 0 01-7.39 7.53z" fill="#f5f5f5"/><path d="M161.44 124.61s.19-.02.56-.05c.37-.03.91-.12 1.6-.33.68-.23 1.5-.6 2.33-1.25.83-.64 1.64-1.58 2.19-2.83.27-.62.49-1.31.57-2.07.09-.75.05-1.55.05-2.38-.02-.84.03-1.71-.14-2.59-.16-.88-.48-1.77-.99-2.58-1-1.63-2.78-2.99-4.94-3.37-1.07-.19-2.21-.09-3.38-.1-1.17.01-2.37.02-3.59.04-19.65.19-46.78.44-76.75.73-1.83.01-3.63.75-4.94 1.99a7.302 7.302 0 00-2.26 4.74c-.05.88 0 1.81-.01 2.71-.01.91.04 1.78.3 2.63.49 1.69 1.6 3.16 3.05 4.1.72.47 1.53.8 2.36.98.84.19 1.69.18 2.56.17 1.73-.01 3.45-.03 5.15-.04 3.4-.03 6.73-.06 9.97-.08 12.99-.1 24.68-.19 34.51-.27 9.82-.06 17.76-.11 23.26-.15 2.74-.01 4.87-.02 6.32-.02h1.64c.39 0 .58.02.58.02s-.19.01-.56.02c-.38.01-.93.02-1.64.03-1.46.02-3.59.05-6.32.09-5.5.06-13.45.15-23.26.26-9.82.1-21.52.21-34.5.34l-9.97.09c-1.7.02-3.42.03-5.15.05-.86.01-1.76.02-2.64-.18a7.5 7.5 0 01-2.48-1.03 7.688 7.688 0 01-3.2-4.29c-.27-.88-.33-1.83-.31-2.73.01-.91-.05-1.8.01-2.74.13-1.86.99-3.68 2.37-4.98a7.633 7.633 0 015.18-2.09 577330.486 577330.486 0 0080.34-.65c1.16.01 2.31-.09 3.43.12 2.23.4 4.05 1.81 5.07 3.49.52.84.85 1.76 1 2.66.16.91.11 1.79.13 2.62 0 .83.04 1.64-.06 2.4-.08.77-.32 1.47-.59 2.1a7.341 7.341 0 01-2.26 2.86 7.65 7.65 0 01-2.37 1.24c-.7.2-1.25.27-1.62.29-.41.03-.6.03-.6.03z" fill="#263238"/><path d="M162.86 115.32c-.03 0-.03-.29-.18-.76-.14-.47-.47-1.15-1.19-1.67-.69-.52-1.82-.8-2.9-.38-1.07.38-1.99 1.54-1.96 2.87 0 1.33.94 2.47 2.01 2.84 1.09.4 2.21.1 2.89-.43.71-.53 1.03-1.22 1.16-1.69.14-.49.14-.78.17-.78.01 0 .02.07.03.21.01.14 0 .34-.05.59-.09.5-.4 1.26-1.14 1.86-.72.6-1.95.97-3.16.55-1.2-.38-2.27-1.65-2.27-3.15-.03-1.5 1.01-2.78 2.21-3.19 1.21-.44 2.44-.1 3.17.49.75.59 1.07 1.34 1.17 1.84.06.25.07.46.06.59 0 .14 0 .21-.02.21z" fill="#263238"/><path d="M164.68 120.83c-.07.07-.78-.57-1.58-1.42s-1.39-1.6-1.32-1.67c.07-.07.78.57 1.58 1.42.8.86 1.39 1.61 1.32 1.67z" fill="#263238"/><path d="M84.67 114.67l-1.74.02v-.45l3.99-.04v.45l-1.74.02.04 4.49h-.52l-.03-4.49zM90.52 117.4l-3.1.03c.06.78.66 1.29 1.47 1.28.45 0 .85-.17 1.13-.5l.28.32c-.33.4-.84.61-1.43.62-1.16.01-1.95-.77-1.96-1.87-.01-1.1.75-1.89 1.8-1.9 1.04-.01 1.81.75 1.82 1.87 0 .04-.01.09-.01.15zm-3.1-.35l2.63-.02c-.07-.73-.6-1.23-1.33-1.22-.72 0-1.25.52-1.3 1.24zM93.83 119.07l-1.19-1.54-1.17 1.56-.56.01 1.45-1.92-1.41-1.79.56-.01 1.13 1.44 1.1-1.46h.55l-1.38 1.82 1.5 1.89h-.58zM97.18 118.82c-.2.18-.49.27-.78.27-.7.01-1.09-.39-1.1-1.07l-.02-2.24-.66.01v-.42l.66-.01-.01-.81h.5l.01.81 1.13-.01v.42l-1.13.01.02 2.21c0 .44.23.68.65.67.2 0 .41-.07.55-.2l.18.36z" fill="#e0e0e0"/><path fill="#e5a44e" d="M75.87 140.07l21.29-.188.187 21.29-21.29.188z"/><g><path d="M138.13 141.66c0 .1-7.12.24-15.9.32-8.78.08-15.9.06-15.9-.04s7.12-.24 15.9-.32c8.78-.08 15.9-.06 15.9.04z" fill="#e5a44e"/><path d="M163.55 147.96c0 .1-12.79.29-28.57.43-15.79.14-28.58.17-28.58.07s12.79-.29 28.58-.43c15.77-.13 28.57-.17 28.57-.07zM162.92 152.63c0 .1-12.64.29-28.24.43-15.6.14-28.24.17-28.24.07s12.64-.29 28.24-.43c15.59-.14 28.24-.17 28.24-.07zM139.82 157.28c0 .1-7.46.25-16.67.33-9.21.08-16.68.07-16.68-.03s7.46-.25 16.67-.33c9.21-.08 16.68-.07 16.68.03z" fill="#263238"/></g><g><path fill="#e5a44e" d="M76.18 175.401l21.29-.188.187 21.29-21.29.188z"/></g><g><path d="M138.45 177.13c0 .1-7.12.24-15.9.32-8.78.08-15.9.06-15.9-.04s7.12-.24 15.9-.32c8.78-.08 15.9-.06 15.9.04z" fill="#e8505b"/><path d="M163.86 183.43c0 .1-12.79.29-28.57.43-15.79.14-28.58.17-28.58.07s12.79-.29 28.58-.43c15.77-.13 28.57-.17 28.57-.07zM163.23 188.1c0 .1-12.64.29-28.24.43-15.6.14-28.24.17-28.24.07s12.64-.29 28.24-.43c15.59-.14 28.24-.17 28.24-.07zM140.13 192.75c0 .1-7.46.25-16.67.33-9.21.08-16.68.07-16.68-.03s7.46-.25 16.67-.33c9.22-.08 16.68-.07 16.68.03z" fill="#263238"/></g><g><path fill="#5ea0a8" d="M76.5 210.872l21.29-.187.187 21.29-21.29.187z"/></g><g><path d="M138.76 212.6c0 .1-7.12.24-15.9.32-8.78.08-15.9.06-15.9-.04s7.12-.24 15.9-.32c8.78-.08 15.9-.06 15.9.04z" fill="#e8505b"/><path d="M164.17 218.91c0 .1-12.79.29-28.57.43-15.79.14-28.58.17-28.58.07s12.79-.29 28.58-.43c15.78-.14 28.57-.17 28.57-.07zM163.54 223.57c0 .1-12.64.29-28.24.43-15.6.14-28.24.17-28.24.07s12.64-.29 28.24-.43c15.6-.14 28.24-.17 28.24-.07zM140.45 228.22c0 .1-7.46.25-16.67.33-9.21.08-16.68.07-16.68-.03s7.46-.25 16.67-.33c9.21-.08 16.68-.07 16.68.03z" fill="#263238"/></g><g><path fill="#e5a44e" d="M76.81 246.344l21.29-.188.187 21.29-21.29.188z"/></g><g><path d="M139.07 248.07c0 .1-7.12.24-15.9.32-8.78.08-15.9.06-15.9-.04s7.12-.24 15.9-.32c8.78-.07 15.9-.06 15.9.04z" fill="#455a64"/><path d="M164.49 254.38c0 .1-12.79.29-28.57.43-15.79.14-28.58.17-28.58.07s12.79-.29 28.58-.43c15.77-.14 28.57-.17 28.57-.07zM163.85 259.04c0 .1-12.64.29-28.24.43-15.6.14-28.24.17-28.24.07s12.64-.29 28.24-.43c15.6-.14 28.24-.17 28.24-.07zM140.76 263.69c0 .1-7.46.25-16.67.33-9.21.08-16.68.07-16.68-.03s7.46-.25 16.67-.33c9.21-.08 16.68-.07 16.68.03z" fill="#263238"/></g><g><path fill="#e0e0e0" d="M77.12 281.815l21.29-.188.187 21.29-21.29.188z"/></g><g><path d="M139.39 283.54c0 .1-7.12.24-15.9.32-8.78.08-15.9.06-15.9-.04s7.12-.24 15.9-.32c8.77-.07 15.89-.06 15.9.04z" fill="#e0e0e0"/><path d="M164.8 289.85c0 .1-12.79.29-28.57.43-15.79.14-28.58.17-28.58.07s12.79-.29 28.58-.43c15.77-.14 28.57-.17 28.57-.07zM164.17 294.51c0 .1-12.64.29-28.24.43-15.6.14-28.24.17-28.24.07s12.64-.29 28.24-.43c15.59-.14 28.24-.17 28.24-.07zM141.07 299.16c0 .1-7.46.25-16.67.33-9.21.08-16.68.07-16.68-.03s7.46-.25 16.67-.33c9.22-.08 16.68-.07 16.68.03z" fill="#ebebeb"/></g><g opacity=".3"><path d="M76.81 246.344l21.29-.188.187 21.29-21.29.188z"/></g><g><path d="M415.37 305.35l-11.83-.08c-1.59-.01-2.88 1.32-2.89 2.98l-.01 2.14c-.01 1.65-1.31 2.99-2.89 2.98l-23.07-.16c-1.59-.01-2.86-1.36-2.85-3.02l.02-2.14c.01-1.65-1.27-3-2.85-3.02l-4.16-.03-10.36-.07c-5.14-.04-9.34 4.09-9.38 9.22l-.86 95.98c-.03 5.13 4.11 9.31 9.25 9.35l60.91.43c5.14.04 9.34-4.09 9.38-9.22l.86-95.98c0-5.14-4.13-9.32-9.27-9.36z" fill="#fff"/><path d="M415.37 305.35c.15.01.42.02.99.05.65.09 1.62.24 2.8.76 1.15.53 2.54 1.42 3.65 2.94 1.15 1.48 1.94 3.63 1.85 6.07-.08 9.71-.19 23.75-.34 41.08-.07 8.67-.15 18.17-.24 28.37-.04 5.1-.09 10.37-.14 15.81-.02 2.72-.05 5.47-.07 8.27-.03 1.39.07 2.82-.31 4.22a9.458 9.458 0 01-1.96 3.8 9.797 9.797 0 01-3.5 2.56c-1.35.58-2.85.77-4.32.73l-8.91-.06c-6-.04-12.13-.08-18.37-.13-6.24-.04-12.59-.09-19.03-.13-3.22-.02-6.47-.05-9.73-.07-1.64-.03-3.27.01-4.92-.07-1.66-.1-3.28-.72-4.66-1.65-1.37-.97-2.49-2.28-3.17-3.79-.74-1.5-.91-3.21-.85-4.84l.09-9.74c.06-6.45.12-12.8.17-19.04.11-12.48.22-24.52.33-35.99.05-5.73.1-11.33.15-16.76.03-2.72.05-5.39.07-8.03.01-1.32.02-2.62.04-3.92.02-1.29-.03-2.6.31-3.85.62-2.5 2.31-4.65 4.47-5.86 1.08-.61 2.27-1 3.48-1.15 1.22-.13 2.41-.05 3.59-.06 2.37.02 4.69.03 6.96.05l3.37.03c.55 0 1.11.01 1.66.01.55-.02 1.13.12 1.6.4.97.56 1.53 1.68 1.49 2.76 0 .53-.01 1.05-.01 1.58-.01.53-.01 1.04.17 1.51.32.96 1.17 1.71 2.14 1.88.97.1 1.99.04 2.96.07 3.91.03 7.59.06 11.04.09 3.44.03 6.65.05 9.6.07 1.5.01 2.66-1.29 2.78-2.61.04-.66.02-1.33.03-1.96-.02-.63.03-1.29.32-1.84.53-1.13 1.74-1.76 2.82-1.66l3.01.03c1.86.02 3.44.03 4.72.04 2.41.01 3.53.03 3.87.03-.34 0-1.46 0-3.89-.01-1.28-.01-2.86-.01-4.72-.02-.93-.01-1.94-.01-3.01-.02-1.07-.09-2.23.53-2.75 1.63-.28.54-.33 1.16-.31 1.8-.01.64.01 1.29-.03 1.97-.11 1.35-1.31 2.7-2.86 2.7-2.95-.02-6.16-.04-9.6-.06-3.45-.02-7.13-.04-11.04-.07-.98-.03-1.96.03-2.98-.07-1.02-.18-1.91-.96-2.24-1.96-.19-.5-.19-1.05-.18-1.56 0-.52.01-1.05.01-1.58.03-1.03-.5-2.1-1.42-2.63-.46-.27-.99-.4-1.53-.38-.55 0-1.1-.01-1.65-.01-1.11-.01-2.23-.01-3.37-.02-2.27-.01-4.59-.03-6.96-.05-1.18.01-2.39-.07-3.57.06-1.19.14-2.36.53-3.42 1.13-2.12 1.2-3.78 3.3-4.39 5.76-.33 1.23-.28 2.52-.3 3.81l-.03 3.92c-.02 2.64-.05 5.31-.07 8.03-.05 5.43-.1 11.02-.15 16.76-.1 11.47-.21 23.51-.32 35.99-.06 6.24-.11 12.59-.17 19.04l-.09 9.74c-.05 1.63.11 3.27.83 4.75.67 1.49 1.76 2.77 3.1 3.71 1.35.92 2.93 1.52 4.55 1.62 1.63.08 3.28.04 4.91.07 3.27.02 6.51.05 9.73.07 6.44.05 12.79.09 19.03.13 6.24.04 12.37.09 18.37.13l8.91.06c1.46.04 2.92-.15 4.24-.71 1.32-.57 2.5-1.43 3.43-2.5a9.072 9.072 0 001.92-3.72c.37-1.36.27-2.77.31-4.17.03-2.79.05-5.55.08-8.27.05-5.43.1-10.71.15-15.81.1-10.2.19-19.7.27-28.37.17-17.34.31-31.37.4-41.08.1-2.43-.68-4.56-1.81-6.03-1.1-1.51-2.48-2.4-3.62-2.93-1.16-.53-2.14-.68-2.78-.78l-.98-.07z" fill="#263238"/><path fill="#e5a44e" d="M352.305 332.644l64.36.154-.107 44.69-64.36-.154z"/><circle transform="rotate(-11.333 384.48 355.094)" cx="384.43" cy="354.98" fill="#fff" r="9.34"/><path fill="#e5a44e" d="M382.13 354.98l.01-4.21 3.64 2.11 3.64 2.11-3.65 2.1-3.65 2.09z"/><path d="M359.15 384.04v-.72c0-.06.07-.1.13-.07l.62.36.62.36c.06.03.06.11 0 .14l-.62.36-.62.36c-.06.03-.13-.01-.13-.07v-.72zM364.99 383.49h-.54c-.05 0-.08.04-.08.08v.96c0 .05.04.08.08.08h.54l.83.84v-2.8l-.83.84zM361.02 384.9c-.08 0-.14-.06-.14-.14v-1.44c0-.08.06-.14.14-.14.08 0 .14.06.14.14v1.44c.01.08-.06.14-.14.14zM366.17 383.18v1.74c.35-.13.6-.47.6-.87s-.25-.74-.6-.87z" fill="#263238"/><path d="M366.17 382.51v.36c.51.15.89.62.89 1.18 0 .56-.38 1.03-.89 1.17v.36c.71-.15 1.24-.78 1.25-1.54s-.54-1.37-1.25-1.53zM370.68 383.49v1.7h-.24v-1.49h-.38v-.21h.62zM371.04 384.05c0-.1.08-.16.17-.16.09 0 .16.07.16.17s-.07.17-.16.17c-.09-.01-.17-.08-.17-.18zm0 .98c0-.1.08-.16.17-.16.09 0 .16.07.16.17s-.07.17-.16.17c-.09-.01-.17-.08-.17-.18zM371.6 384.34c0-.55.3-.87.69-.87.4 0 .69.32.69.87s-.3.87-.69.87c-.4-.01-.69-.32-.69-.87zm1.14 0c0-.43-.18-.65-.45-.65s-.45.22-.45.65c0 .43.18.65.45.65.26 0 .45-.22.45-.65zM373.73 383.49v1.7h-.24v-1.49h-.38v-.21h.62zM375.37 383.15h.21l-.8 2.28h-.21l.8-2.28zM377.59 384.72c0 .31-.26.5-.68.5-.41 0-.67-.19-.67-.5 0-.19.11-.34.3-.41a.393.393 0 01-.24-.37c0-.28.25-.46.61-.46.37 0 .61.18.61.46 0 .17-.09.29-.24.37.21.07.31.22.31.41zm-.24-.01c0-.19-.16-.3-.43-.3s-.43.12-.43.3c0 .19.16.31.43.31.26 0 .43-.12.43-.31zm-.8-.76c0 .17.14.27.37.27.23 0 .38-.1.38-.27s-.15-.27-.38-.27-.37.1-.37.27zM377.81 384.07c0-.1.08-.16.17-.16.09 0 .16.07.16.17s-.07.17-.16.17a.184.184 0 01-.17-.18zm0 .98c0-.1.08-.16.17-.16.09 0 .16.07.16.17s-.07.17-.16.17c-.1-.02-.17-.09-.17-.18zM378.36 384.35c0-.55.3-.87.69-.87.4 0 .69.32.69.87s-.3.87-.69.87c-.39 0-.69-.32-.69-.87zm1.14.01c0-.43-.18-.65-.45-.65s-.45.22-.45.65c0 .43.18.65.45.65s.45-.22.45-.65zM379.98 384.36c0-.55.3-.87.69-.87.39 0 .69.32.69.87s-.3.87-.69.87c-.4-.01-.69-.32-.69-.87zm1.14 0c0-.43-.18-.65-.45-.65s-.45.22-.45.65c0 .43.18.65.45.65.26 0 .45-.22.45-.65zM352.96 384.89a.29.29 0 01-.29-.29v-1.49a.29.29 0 01.58 0v1.49c0 .17-.13.3-.29.29zM354.26 384.9a.29.29 0 01-.29-.29v-1.49a.29.29 0 01.58 0v1.49c0 .16-.13.29-.29.29z" fill="#263238"/><g><path d="M416.24 381.46l-63.45-.15c-.34 0-.61-.27-.61-.61 0-.34.27-.61.61-.61l63.45.15c.34 0 .61.27.61.61a.6.6 0 01-.61.61z" fill="#e0e0e0"/></g><g><path d="M376.12 381.36l-23.32-.06c-.34 0-.61-.27-.61-.61 0-.34.27-.61.61-.61l23.32.06c.29 0 .53.24.53.53v.16c0 .3-.24.53-.53.53z" fill="#e5a44e"/></g><g><path d="M377.27 380.76c0 .64-.52 1.16-1.17 1.16-.64 0-1.16-.52-1.16-1.17 0-.64.52-1.16 1.17-1.16.64 0 1.16.52 1.16 1.17z" fill="#e5a44e"/></g><g><path d="M416.35 392.7c0 .14-14.18.23-31.66.18-17.49-.04-31.67-.19-31.67-.34 0-.14 14.18-.23 31.67-.18 17.49.05 31.66.2 31.66.34z" fill="#263238"/></g><g><path d="M416.34 398.96c0 .14-14.18.23-31.66.18-17.49-.04-31.67-.19-31.67-.34 0-.14 14.18-.23 31.67-.18 17.48.05 31.66.2 31.66.34z" fill="#263238"/></g><g><path d="M416.32 405.22c0 .14-14.18.23-31.66.18-17.49-.04-31.67-.19-31.67-.34 0-.14 14.18-.23 31.67-.18 17.49.05 31.66.2 31.66.34z" fill="#263238"/></g><g><path d="M415.77 132.56l-11.83-.05c-1.59-.01-2.88 1.33-2.89 2.98l-.01 2.14c-.01 1.65-1.3 2.99-2.89 2.98l-23.07-.11c-1.59-.01-2.87-1.35-2.86-3.01l.01-2.14c.01-1.65-1.27-3-2.86-3.01l-4.16-.02-10.36-.05c-5.14-.02-9.33 4.12-9.35 9.25l-.63 148.93c-.02 5.13 4.13 9.3 9.27 9.32l60.91.28c5.14.02 9.33-4.12 9.35-9.25l.63-148.93c.03-5.11-4.12-9.29-9.26-9.31z" fill="#fff"/><path d="M415.77 132.56c.07 0 .15.01.32.01.21.02.53 0 .94.08.82.1 2.07.37 3.48 1.21 1.4.82 2.96 2.27 3.88 4.5.46 1.11.7 2.4.68 3.77 0 1.37-.01 2.83-.01 4.38-.04 12.39-.11 30.3-.19 52.43-.09 22.14-.19 48.5-.31 77.76-.01 3.66-.03 7.36-.05 11.11-.06 1.86.17 3.79-.41 5.64-.28.91-.7 1.79-1.23 2.59a9.86 9.86 0 01-1.98 2.1c-1.52 1.19-3.43 1.93-5.39 1.99-1.94.04-3.88 0-5.84 0-3.91-.02-7.85-.04-11.84-.05-7.96-.04-16.07-.07-24.29-.11l-12.42-.06-6.27-.03c-2.1.1-4.28-.46-6.03-1.68-1.76-1.21-3.06-3.04-3.67-5.08-.32-1.01-.38-2.09-.38-3.14 0-1.05.01-2.09.01-3.13.02-4.17.04-8.31.05-12.43.04-8.23.07-16.33.1-24.3.07-15.93.14-31.29.2-45.93.07-14.64.13-28.54.19-41.56.03-6.51.06-12.79.09-18.84.04-1.5-.1-3.02.29-4.48.36-1.44 1.05-2.8 2.02-3.89a9.61 9.61 0 013.48-2.52c1.32-.55 2.75-.75 4.14-.72 2.77.01 5.47.03 8.1.04 1.32.01 2.62.01 3.9.02.64 0 1.28.01 1.91.01.64-.02 1.29.18 1.81.56.51.38.9.92 1.09 1.51.21.6.15 1.24.16 1.83.01.6-.04 1.22.03 1.79.08.58.35 1.12.73 1.55.38.43.9.73 1.45.86.55.11 1.14.05 1.7.07 1.14.01 2.26.01 3.35.02 4.4.02 8.49.05 12.25.07l5.4.03c.43-.01.86.02 1.27-.02.41-.05.8-.19 1.14-.41.68-.43 1.15-1.14 1.3-1.88.13-.75.05-1.52.08-2.24-.03-.72.05-1.47.42-2.07.34-.6.89-1.06 1.5-1.29.61-.25 1.26-.17 1.84-.18 2.38.01 4.4.03 6.03.04 3.17.05 4.63.06 4.98.07h-4.97c-1.63 0-3.65-.01-6.03-.02-.59.01-1.23-.07-1.82.18-.59.22-1.13.67-1.46 1.26-.36.59-.44 1.3-.41 2.03-.03.73.05 1.48-.08 2.26-.16.77-.63 1.5-1.34 1.94-.35.22-.75.37-1.18.42-.43.04-.85.01-1.28.02-1.72-.01-3.52-.01-5.4-.02-3.77-.01-7.86-.03-12.25-.05-1.1 0-2.22-.01-3.35-.01-.57-.02-1.14.04-1.73-.07-.58-.13-1.11-.45-1.51-.89-.4-.44-.68-1.01-.76-1.61-.08-.61-.02-1.2-.03-1.81-.01-.61.05-1.22-.15-1.79-.18-.57-.56-1.09-1.05-1.45-1.01-.79-2.38-.46-3.64-.54-1.28-.01-2.58-.01-3.9-.02l-8.1-.03c-1.38-.03-2.78.16-4.08.71a9.58 9.58 0 00-3.42 2.48c-.96 1.07-1.62 2.41-1.98 3.83-.39 1.42-.25 2.94-.28 4.44-.02 6.04-.05 12.33-.07 18.84-.05 13.02-.11 26.93-.17 41.56-.06 14.64-.12 30-.19 45.93-.03 7.96-.07 16.07-.1 24.3-.02 4.11-.03 8.26-.05 12.43 0 1.04-.01 2.09-.01 3.13s.06 2.08.37 3.08a9.249 9.249 0 003.59 4.96c1.72 1.19 3.83 1.74 5.92 1.64a136943.854 136943.854 0 0118.69.09c8.22.04 16.33.08 24.29.11l11.84.06c1.95 0 3.9.04 5.83 0 1.92-.06 3.78-.78 5.27-1.94.74-.59 1.39-1.28 1.94-2.06.52-.78.93-1.64 1.2-2.54.56-1.8.35-3.72.4-5.59.02-3.75.03-7.45.05-11.11.13-29.27.25-55.62.35-77.76.11-22.13.19-40.04.26-52.43-.07-3.07.35-5.91-.65-8.13-.91-2.21-2.46-3.67-3.84-4.48a8.967 8.967 0 00-3.46-1.23c-.41-.08-.73-.06-.94-.09a3.33 3.33 0 00-.32-.03z" fill="#263238"/><g><path d="M414.62 154.14c0 .15-12.86.26-28.73.26-15.87 0-28.73-.12-28.73-.26 0-.15 12.86-.26 28.73-.26 15.87 0 28.73.11 28.73.26z" fill="#263238"/></g></g><path fill="#e5a44e" d="M359.83 250.03h52.22v36.26h-52.22z"/><g><path d="M307.2 168.98l-17.73-.01c-2.38 0-4.31 2.01-4.31 4.5v3.22c0 2.49-1.93 4.5-4.3 4.5l-34.56-.02c-2.38 0-4.3-2.02-4.3-4.5v-3.22c0-2.49-1.93-4.5-4.3-4.5h-6.23l-15.52-.01c-7.71 0-13.96 6.24-13.96 13.95l-.04 223.74c0 7.7 6.24 13.95 13.94 13.95l91.25.05c7.71 0 13.95-6.24 13.96-13.95l.04-223.74c0-7.71-6.24-13.95-13.94-13.96z" fill="#fff"/><path d="M307.2 168.98s.16 0 .48.01c.32.03.8-.01 1.41.11 1.24.15 3.12.55 5.23 1.81 1.07.6 2.15 1.47 3.18 2.58a14.03 14.03 0 012.66 4.16c.69 1.66 1.06 3.6 1.04 5.66 0 2.06.01 4.25.01 6.58.01 18.59.03 45.48.05 78.7.01 33.23.01 72.79.02 116.73v20.91c-.02 1.42-.11 2.88-.53 4.26-.4 1.38-.97 2.73-1.78 3.93-.81 1.2-1.78 2.29-2.91 3.22-2.27 1.82-5.11 2.98-8.06 3.13-2.93.09-5.83.02-8.77.04-5.87 0-11.79-.01-17.77-.01-11.95-.01-24.12-.01-36.46-.02-6.17 0-12.39-.01-18.65-.01-3.13 0-6.27 0-9.42-.01-3.16.16-6.44-.67-9.08-2.51-2.66-1.82-4.62-4.58-5.53-7.64-.49-1.52-.58-3.15-.58-4.72v-4.7-18.65c0-12.35.01-24.51.01-36.47.01-23.91.02-46.97.02-68.94l.03-62.38c.01-9.77.01-19.2.02-28.27v-3.38c.01-.56.05-1.13.08-1.69.1-.56.14-1.12.29-1.66.51-2.18 1.52-4.23 2.93-5.91a14.6 14.6 0 015.17-3.87c1.96-.89 4.12-1.2 6.2-1.17 4.15 0 8.21.01 12.16.01 1.98 0 3.93 0 5.85.01h2.87c.96-.05 1.96.22 2.75.77s1.4 1.35 1.71 2.24c.36.9.27 1.86.28 2.76v1.36c0 .45-.02.9.04 1.33.11.86.48 1.69 1.04 2.33.55.65 1.31 1.12 2.13 1.32.41.1.82.13 1.26.12h1.29c1.71 0 3.38 0 5.03.01l18.39.03c2.83 0 5.53.01 8.11.01.64-.01 1.29.03 1.9-.02.61-.07 1.2-.28 1.71-.6a4.45 4.45 0 001.96-2.81c.13-.56.11-1.13.11-1.69v-1.67c.01-.54-.03-1.09.07-1.63.09-.53.27-1.04.53-1.49.5-.92 1.32-1.61 2.23-1.97.92-.4 1.89-.28 2.77-.3 3.58.01 6.6.02 9.05.02 2.44.01 4.31.02 5.56.02 1.26.01 1.91.02 1.91.02s-.64.01-1.9.02c-1.26 0-3.12.01-5.56.02-2.45 0-5.47.01-9.05.01-.89.02-1.84-.09-2.72.3-.88.35-1.67 1.02-2.16 1.92-.25.44-.42.94-.51 1.45-.1.51-.06 1.05-.07 1.6v1.67c0 .56.02 1.15-.11 1.73a4.612 4.612 0 01-2.02 2.92c-.53.33-1.14.55-1.77.63-.65.06-1.27.02-1.92.03h-8.11c-5.65 0-11.79 0-18.39.01h-6.32c-.43.01-.88-.02-1.31-.13-.86-.21-1.67-.71-2.25-1.39-.6-.68-.98-1.55-1.1-2.46-.06-.46-.05-.91-.05-1.36v-1.36c-.01-.91.07-1.83-.27-2.67-.3-.85-.87-1.6-1.62-2.12-.75-.52-1.66-.76-2.6-.72h-20.88c-2.06-.02-4.16.29-6.09 1.16-1.92.85-3.67 2.15-5.06 3.79a14.025 14.025 0 00-2.87 5.79c-.14.53-.18 1.08-.28 1.63-.03.55-.07 1.1-.08 1.66v3.38c0 9.07 0 18.5.01 28.27 0 19.54 0 40.42.01 62.38V405.9c0 1.56.09 3.12.57 4.61.89 2.97 2.79 5.65 5.38 7.42 2.58 1.78 5.73 2.6 8.86 2.44 3.15 0 6.29 0 9.42.01 6.26 0 12.48.01 18.65.01 12.34.01 24.51.02 36.46.02 5.98 0 11.9.01 17.77.01 2.93-.02 5.86.05 8.74-.04 2.87-.14 5.63-1.27 7.84-3.04 1.09-.91 2.05-1.97 2.83-3.14.79-1.17 1.34-2.48 1.74-3.83.42-1.35.51-2.75.52-4.15v-4.23c0-5.62 0-11.18.01-16.68.02-43.93.05-83.5.07-116.73.03-33.23.06-60.12.08-78.7 0-2.32.01-4.52.01-6.58.02-2.05-.34-3.97-1.02-5.62-.67-1.65-1.61-3.03-2.62-4.14-1.02-1.11-2.09-1.97-3.15-2.58-2.1-1.26-3.97-1.68-5.2-1.84-.62-.12-1.09-.09-1.41-.13-.34.01-.5-.01-.5-.01z" fill="#263238"/><path d="M310.03 193.07c0 .06-2.3.13-5.15.15-2.84.02-5.15-.01-5.15-.07 0-.06 2.3-.13 5.15-.15 2.85-.02 5.15.01 5.15.07zM310.06 195.7c0 .06-2.3.13-5.15.15-2.84.02-5.15-.01-5.15-.07 0-.06 2.3-.13 5.15-.15 2.84-.01 5.14.01 5.15.07zM310.08 198.34c0 .06-2.3.13-5.15.15-2.84.02-5.15-.01-5.15-.07 0-.06 2.3-.13 5.15-.15 2.84-.02 5.15.01 5.15.07z" fill="#263238"/><g><path d="M212.04 200.03s.08-.01.21-.01c.17-.01.36-.01.6-.02.56-.01 1.3-.03 2.2-.05l-.06.06-.03-1.59c0-.3-.03-.58 0-.92.06-.34.36-.64.74-.68.35-.01.67-.02 1.05-.01.4.05.73.43.72.85l.03 2.33-.1-.1 2.77-.03-.11.11-.03-3.46c0-.3-.01-.59-.01-.88 0-.27-.17-.45-.39-.66-.41-.4-.82-.8-1.21-1.2-.4-.39-.79-.78-1.17-1.15-.19-.19-.38-.38-.57-.56-.19-.19-.35-.38-.57-.43a.764.764 0 00-.64.12c-.17.14-.35.34-.52.51-.34.34-.67.68-1 1-.63.65-1.28 1.24-1.75 1.81-.2.31-.13.69-.14 1.04v.98c0 .6-.01 1.12-.01 1.57 0 .4-.01.73-.01 1.01.01.23.01.35 0 .36-.01.01-.01-.11-.02-.33-.01-.27-.02-.6-.03-.99-.01-.45-.02-.98-.04-1.59-.01-.31-.01-.65-.02-1 0-.18-.01-.36-.01-.55 0-.2.05-.4.15-.58.51-.63 1.13-1.19 1.76-1.85.32-.33.65-.66.99-1.01.18-.17.32-.35.54-.53.22-.17.53-.23.8-.16.3.07.49.31.67.48.19.18.38.37.57.56.38.38.78.76 1.17 1.15.4.39.8.79 1.22 1.19.1.1.21.19.31.34.09.14.14.3.15.47 0 .29.01.59.01.88l.03 3.46v.11h-.11c-.96.01-1.88.01-2.77.02h-.1v-.1c0-.81-.01-1.58-.01-2.33a.662.662 0 00-.56-.67c-.32-.02-.7-.01-1.01 0a.67.67 0 00-.6.54c-.03.28-.01.6-.01.89V200.08h-.06c-.92-.01-1.66-.01-2.24-.02-.23 0-.42-.01-.58-.01-.13-.01-.2-.02-.2-.02z" fill="#263238"/></g></g><g><path fill="#e5a44e" d="M217.74 342.81h21.29v21.29h-21.29zM279.99 345.11c0 .1-7.12.18-15.9.18-8.78 0-15.9-.08-15.9-.18 0-.1 7.12-.18 15.9-.18 8.78-.01 15.9.08 15.9.18z"/><path d="M305.34 351.63c0 .1-12.8.18-28.58.18-15.79 0-28.58-.08-28.58-.18 0-.1 12.79-.18 28.58-.18s28.58.08 28.58.18zM304.67 356.29c0 .1-12.65.18-28.24.18-15.6 0-28.24-.08-28.24-.18 0-.1 12.64-.18 28.24-.18 15.6 0 28.24.08 28.24.18zM281.54 360.74c0 .1-7.47.18-16.67.18-9.21 0-16.68-.08-16.68-.18 0-.1 7.46-.18 16.68-.18 9.2 0 16.67.08 16.67.18z" fill="#263238"/><g opacity=".3"><path d="M217.74 342.81h21.29v21.29h-21.29z"/></g></g><g><path fill="#e5a44e" d="M217.74 377.47h21.29v21.29h-21.29zM279.99 379.76c0 .1-7.12.18-15.9.18-8.78 0-15.9-.08-15.9-.18 0-.1 7.12-.18 15.9-.18 8.78 0 15.9.08 15.9.18z"/><path d="M305.34 386.28c0 .1-12.8.18-28.58.18-15.79 0-28.58-.08-28.58-.18 0-.1 12.79-.18 28.58-.18s28.58.08 28.58.18zM304.67 390.95c0 .1-12.65.18-28.24.18-15.6 0-28.24-.08-28.24-.18 0-.1 12.64-.18 28.24-.18 15.6-.01 28.24.08 28.24.18zM281.54 395.39c0 .1-7.47.18-16.67.18-9.21 0-16.68-.08-16.68-.18 0-.1 7.46-.18 16.68-.18 9.2 0 16.67.08 16.67.18z" fill="#263238"/><g opacity=".3"><path d="M217.74 377.47h21.29v21.29h-21.29z"/></g></g><g><path fill="#e5a44e" d="M229.435 279.506l.274-49.29 65.58.366-.274 49.29z"/><path fill="#e5a44e" d="M228.58 279.51l23.08-30.52 14.08 19.25 9.68-10.19 18.75 21.82zM271.89 245.35a5.16 5.16 0 01-5.19 5.13 5.16 5.16 0 01-5.13-5.19 5.16 5.16 0 015.19-5.13 5.16 5.16 0 015.13 5.19z"/><path d="M228.58 279.51l23.08-30.52 14.08 19.25 9.68-10.19 18.75 21.82zM271.89 245.35a5.16 5.16 0 01-5.19 5.13 5.16 5.16 0 01-5.13-5.19 5.16 5.16 0 015.19-5.13 5.16 5.16 0 015.13 5.19z" opacity=".2"/><g><path d="M304.05 289.24c0 .14-19.05.26-42.54.26-23.5 0-42.54-.12-42.54-.26s19.04-.26 42.54-.26c23.49 0 42.54.12 42.54.26z" fill="#263238"/></g><g><path d="M304.05 294.78c0 .14-19.05.26-42.54.26-23.5 0-42.54-.12-42.54-.26s19.04-.26 42.54-.26c23.49 0 42.54.11 42.54.26z" fill="#263238"/></g></g><path d="M275.38 321.32h-27.74a7.27 7.27 0 010-14.54h27.74a7.27 7.27 0 017.27 7.27c0 4.02-3.25 7.27-7.27 7.27z" fill="#e5a44e"/><g><path d="M319.94 328.55c0 .14-26.22.26-58.56.26-32.35 0-58.57-.12-58.57-.26s26.22-.26 58.57-.26c32.34 0 58.56.11 58.56.26z" fill="#e0e0e0"/></g><g><path d="M285.65 218.21c0 .14-10.81.26-24.13.26-13.33 0-24.14-.12-24.14-.26s10.8-.26 24.14-.26c13.32 0 24.13.12 24.13.26z" fill="#e5a44e"/></g><path d="M290.48 314.05c0 .87-.71 1.58-1.58 1.58-.87 0-1.58-.71-1.58-1.58 0-.87.71-1.58 1.58-1.58.87 0 1.58.71 1.58 1.58z" fill="#e5a44e"/><g><path d="M354.47 209.81c0 .01-.13.02-.39.03-.28.01-.65.01-1.14.02-1.03.01-2.5.03-4.39.05-3.85.02-9.42.05-16.36.08l.18-.17c-.01 15.32-.02 37.68-.04 62.53-.04 15.24-.08 29.55-.12 41.71v.23h-.23c-12.89-.04-23.66-.07-31.23-.09-3.75-.03-6.71-.05-8.76-.06-.99-.01-1.76-.03-2.31-.03-.25-.01-.44-.01-.59-.02-.13-.01-.2-.01-.2-.02s.07-.01.2-.02c.15 0 .35-.01.59-.02a305 305 0 012.31-.03c2.05-.01 5.01-.04 8.76-.06 7.57-.02 18.34-.05 31.23-.09l-.23.23c.01-12.17.03-26.47.05-41.71.08-24.85.16-47.21.21-62.53v-.18h.17c6.94.03 12.5.06 16.36.08 1.89.02 3.37.04 4.39.05.48.01.86.02 1.14.02.27-.02.4-.01.4 0z" fill="#e5a44e"/></g><g><circle cx="385.94" cy="268.09" r="7.58" fill="#fff"/><path fill="#e5a44e" d="M384.08 268.09v-3.41l2.95 1.7 2.96 1.71-2.96 1.71-2.95 1.71z"/></g><g><path fill="#5ea0a8" d="M359.063 201.55l.217-38.91 51.77.288-.217 38.91z"/><path d="M358.39 201.55l18.22-24.08 11.12 15.19 7.64-8.05 14.8 17.23zM392.59 174.59a4.07 4.07 0 01-4.1 4.05 4.07 4.07 0 01-4.05-4.1 4.07 4.07 0 014.1-4.05c2.24.02 4.06 1.85 4.05 4.1z" opacity=".2"/></g><g><path fill="#455a64" d="M365.1 209.27h40.08v2.68H365.1z"/></g><g><path d="M413.88 219.65c0 .15-12.87.26-28.73.26-15.87 0-28.73-.12-28.73-.26 0-.15 12.86-.26 28.73-.26 15.86 0 28.73.12 28.73.26z" fill="#263238"/></g><g><path d="M413.88 226.99c0 .15-12.87.26-28.73.26-15.87 0-28.73-.12-28.73-.26 0-.15 12.86-.26 28.73-.26 15.86 0 28.73.12 28.73.26z" fill="#263238"/></g><g><path d="M413.88 234.33c0 .15-12.87.26-28.73.26-15.87 0-28.73-.12-28.73-.26 0-.15 12.86-.26 28.73-.26 15.86 0 28.73.12 28.73.26z" fill="#263238"/></g><g><path d="M413.88 241.67c0 .15-12.87.26-28.73.26-15.87 0-28.73-.12-28.73-.26 0-.15 12.86-.26 28.73-.26 15.86 0 28.73.12 28.73.26z" fill="#263238"/></g><path d="M356.05 209.81c0 .87-.71 1.58-1.58 1.58-.87 0-1.58-.71-1.58-1.58 0-.87.71-1.58 1.58-1.58.87 0 1.58.71 1.58 1.58z" fill="#e5a44e"/><g><path d="M387.47 291.22c0 .75-.68 1.35-1.53 1.35-.84 0-1.53-.6-1.53-1.35 0-.75.68-1.35 1.53-1.35.84 0 1.53.6 1.53 1.35zM387.47 326.88c0 .75-.68 1.35-1.53 1.35-.84 0-1.53-.6-1.53-1.35 0-.75.68-1.35 1.53-1.35.84-.01 1.53.6 1.53 1.35z" fill="#e5a44e"/><path d="M385.94 326.88c-.14 0-.26-7.98-.26-17.83 0-9.85.12-17.83.26-17.83s.26 7.98.26 17.83c0 9.84-.12 17.83-.26 17.83z" fill="#e5a44e"/></g></g><g><path d="M261.37 205.69c-.01 0-.02-.09-.02-.27-.01-.2-.01-.47-.02-.8-.01-.73-.02-1.76-.04-3.08-.02-2.72-.04-6.62-.07-11.5-.02-9.83-.05-23.57-.09-39.38l.25.25c-5.53 0-11.4.01-17.45.01-20-.03-38.11-.06-51.25-.08-6.54-.03-11.83-.06-15.53-.08-1.81-.02-3.23-.04-4.22-.05-.46-.01-.82-.02-1.1-.03-.25-.01-.37-.02-.37-.03 0-.01.13-.02.37-.03.27-.01.64-.01 1.1-.03 1-.01 2.41-.03 4.22-.05 3.7-.02 9-.05 15.53-.08 13.14-.02 31.25-.05 51.25-.08 6.05 0 11.92.01 17.45.01h.25v.25c-.04 15.8-.07 29.55-.09 39.38-.03 4.88-.06 8.78-.07 11.5-.02 1.32-.03 2.35-.04 3.08-.01.33-.02.59-.02.8-.02.19-.03.29-.04.29z" fill="#e5a44e"/></g><path d="M262.96 205.69c0 .87-.71 1.58-1.58 1.58-.87 0-1.58-.71-1.58-1.58 0-.87.71-1.58 1.58-1.58.87-.01 1.58.7 1.58 1.58zM173.03 150.66c0 .87-.71 1.58-1.58 1.58-.87 0-1.58-.71-1.58-1.58 0-.87.71-1.58 1.58-1.58.87 0 1.58.71 1.58 1.58z" fill="#e5a44e"/></g><g><path d="M142.07 153.28l4.99 6.49s2.42 3.73.53 4.53c-1.66.7-2.74-1.39-2.74-1.39s-1.05-4.76-3.12-3.6c-.29.16.22 3.54.49 5.26.1.63.44 1.19.94 1.58l5.49 4.2c1.02.78 2.23 1.27 3.5 1.42l1.95.23 1.6 3.21 8.86-3.61-7.05-9.13-3.79-5.79c-.57-.5-1.34-.69-2.07-.5l-.88.23-.65-.66c-.39-.39-.96-.54-1.49-.39l-.54.15-1.48-1.47c-.49-.49-3.87-3.63-4.5-3.36.01 0-1.27 1-.04 2.6z" fill="#ffbe9d"/><path d="M152.12 159.44c-.03.01-.14-.32-.51-.73-.36-.43-.98-.83-1.85-1.02-.68-.58-1.13-1.18-1.47-1.63-.32-.46-.46-.78-.44-.79.02-.01.19.29.53.72.34.42.86 1.04 1.46 1.56.18.06.38.1.58.17a2.9 2.9 0 011.27.92c.18.22.29.42.35.57.07.14.08.22.08.23zM153.14 158.13c-.02 0-.07-.17-.3-.35-.22-.18-.62-.32-1.04-.18l-.05.01-.03-.04c-.04-.04-.07-.08-.11-.12-.68-.73-1.21-1.35-1.18-1.38.03-.03.61.54 1.3 1.27.04.04.07.08.11.12l-.08-.02c.48-.15.95.03 1.16.25.22.22.25.44.22.44z" fill="#eb996e"/><path fill="#e5a44e" d="M143 436.09l-3.13 28.68 15.44 2 3.2-28.72z"/><path d="M147.61 464.68c.13.01.84-6.26 1.59-14.02.75-7.76 1.25-14.05 1.12-14.06-.13-.01-.84 6.26-1.59 14.02-.74 7.75-1.25 14.05-1.12 14.06z" fill="#263238"/><path fill="#263238" d="M140.09 462.8l15.44 1.95-.22 2.02-15.44-2zM156.33 457.59c.03-.02-.08-.26-.33-.67-.25-.41-.65-.98-1.22-1.62-.58-.64-1.34-1.34-2.32-1.94-.97-.6-2.18-1.09-3.52-1.21-2.68-.28-5.07.8-6.31 1.99-.64.58-1.06 1.15-1.31 1.56-.24.41-.35.66-.32.67.08.06.56-.92 1.85-1.99 1.25-1.08 3.51-2.03 6.05-1.77 2.53.25 4.49 1.75 5.65 2.92 1.17 1.2 1.71 2.11 1.78 2.06z"/><path d="M157.6 446.22l-.35 3.16-15.47-2.07.26-2.38z" opacity=".3"/><path fill="#e5a44e" d="M120.78 437.99l1.22 28.83 15.56-.35-1.16-28.89z"/><path d="M129.64 465.56c.13-.01-.11-6.32-.54-14.1-.43-7.78-.88-14.08-1.01-14.07-.13.01.11 6.32.54 14.1.43 7.77.88 14.07 1.01 14.07z" fill="#263238"/><path fill="#263238" d="M121.92 464.83l15.56-.4.08 2.04-15.56.35zM137.19 457.24c.02-.02-.12-.24-.43-.61s-.79-.87-1.46-1.42c-.67-.54-1.53-1.13-2.59-1.57-1.05-.45-2.32-.75-3.66-.67-2.69.13-4.89 1.55-5.94 2.92-.55.67-.88 1.3-1.06 1.74-.18.45-.24.71-.21.72.09.04.41-.99 1.53-2.24 1.07-1.25 3.16-2.54 5.72-2.66 2.54-.13 4.7 1.05 6.02 2.03 1.35.99 2.02 1.81 2.08 1.76z"/><path d="M136.73 445.81l.13 3.17-15.61.28-.1-2.39z" opacity=".3"/><path d="M138.21 374.6l-.61-78.9h-30.66s-2.42 19.58-1.27 27.48c1.15 7.89 9.32 51.54 9.32 51.54s2.65 57.93 3.95 72.82l19.14-1.73.13-71.21z" fill="#1c2f5c"/><path d="M156.98 279.06s9.55 8.14 11.68 21.88c2.13 13.73-4.31 68.69-4.31 68.69l-5.43 76.18h-18.93l.61-73.35-3.27-54.64-2.13-17.28 21.78-21.48z" fill="#1c2f5c"/><path d="M140.18 368.51c-.02 0-.05-.16-.08-.47-.03-.37-.08-.82-.13-1.36-.09-1.27-.21-2.96-.36-5.02-.28-4.24-.62-10.1-.92-16.57-.3-6.48-.5-12.34-.57-16.59-.03-2.12-.04-3.84-.02-5.03.01-.54.03-.99.04-1.37.01-.31.03-.48.05-.48.02 0 .04.16.06.48.02.37.04.82.06 1.37.05 1.27.11 2.97.19 5.02.19 4.32.44 10.14.72 16.58.3 6.43.57 12.26.76 16.58.08 2.06.15 3.76.2 5.03.01.54.02.99.03 1.37 0 .3-.01.46-.03.46zM163.32 372.97c-.01.08-1.07-.06-2.77-.18s-4.06-.16-6.65.08c-2.59.24-4.9.73-6.55 1.16-1.65.43-2.66.76-2.69.69-.02-.06.94-.52 2.59-1.04 1.64-.53 3.98-1.07 6.61-1.32 2.63-.24 5.02-.14 6.74.08 1.7.2 2.74.47 2.72.53zM133 373.7c-.03.08-.92-.2-2.39-.42-1.47-.22-3.53-.32-5.76.05-2.23.38-4.15 1.15-5.46 1.84-1.32.69-2.06 1.25-2.12 1.18-.04-.04.64-.71 1.94-1.5 1.29-.79 3.26-1.64 5.56-2.03 2.3-.38 4.43-.23 5.91.1 1.48.33 2.34.73 2.32.78zM133.19 374.7c.06.12-2.4 1.29-5.64 2.09-3.24.81-5.95.93-5.96.8-.02-.15 2.64-.5 5.84-1.3 3.2-.79 5.71-1.74 5.76-1.59z" fill="#455a64"/><path d="M139.18 320.88c.02.02-.23.3-.7.79-.23.25-.54.54-.9.86-.36.33-.78.69-1.26 1.07-.96.76-2.16 1.63-3.61 2.41-1.45.77-3.1 1.55-5.05 1.88l.04-.01c-.29.07-.61.14-.92.22-3.97.87-7.71.55-10.28-.04-1.29-.29-2.31-.63-2.99-.9-.68-.27-1.05-.46-1.04-.49.03-.09 1.54.54 4.1 1.03 2.55.49 6.21.75 10.09-.11.31-.07.62-.15.9-.21h.04c1.8-.3 3.47-1.05 4.89-1.77 1.43-.74 2.63-1.56 3.61-2.28 1.95-1.47 3.02-2.52 3.08-2.45zM145.64 301.42c.02.01.08.31.2.87.12.61.27 1.4.46 2.37.39 2.09.92 4.96 1.56 8.41l-.13-.16c2.46.93 5.24 1.99 8.23 3.12l-.29.08 4.15-5.39c.34-.43.67-.87 1-1.29l-.05.19c-.46-4.08-.9-7.91-1.28-11.26l.34.17c-1.98 1.04-3.95 1.44-5.68 1.82-1.73.35-3.26.58-4.52.74-1.26.16-2.26.25-2.94.31-.69.04-1.03.04-1.05.02-.02-.02.37-.08 1.03-.18.74-.11 1.71-.25 2.92-.43 1.25-.2 2.77-.46 4.48-.84 1.7-.4 3.67-.85 5.52-1.85l.3-.16.04.34c.4 3.36.85 7.18 1.34 11.26l.01.1-.07.08c-.33.43-.66.86-1 1.29-1.45 1.87-2.85 3.68-4.16 5.38l-.12.15-.17-.07-8.2-3.19-.12-.04-.02-.12c-.56-3.52-1.02-6.45-1.36-8.58-.14-.96-.26-1.74-.35-2.34-.06-.54-.09-.81-.07-.8zM128.79 304.16c.02-.02.01.26 0 .8-.02.61-.05 1.39-.09 2.36-.1 2.15-.24 5.12-.41 8.68l-.01.12-.11.06c-2.33 1.21-4.97 2.59-7.81 4.07l-.17.09-.13-.14c-1.49-1.54-3.09-3.19-4.73-4.89-.38-.4-.76-.79-1.14-1.18l-.07-.08v-.11c.03-4.1.07-7.96.1-11.34v-.34l.32.13c1.95.8 3.96 1.02 5.69 1.23 1.75.19 3.28.28 4.55.34 1.21.05 2.2.08 2.95.11.69.05 1.07.07 1.06.09-.01.02-.36.06-1.05.08-.68.02-1.68.04-2.96.02-1.27-.02-2.81-.08-4.58-.24-1.76-.19-3.76-.37-5.84-1.19l.32-.21c-.01 3.38-.02 7.23-.03 11.34l-.07-.18c.38.39.75.78 1.14 1.18 1.64 1.7 3.22 3.35 4.71 4.9l-.3-.05c2.85-1.46 5.5-2.81 7.84-4l-.12.18c.26-3.5.47-6.41.63-8.53.08-.99.15-1.79.2-2.41.06-.57.09-.87.11-.89zM137.7 317.61c-.07.01-.32-.82-.59-2.21-.28-1.39-.55-3.32-.68-5.48-.13-2.16-.07-4.11.04-5.52.11-1.41.26-2.27.33-2.26.16.01-.11 3.48.15 7.76.24 4.26.9 7.67.75 7.71zM163.32 322.35c.01.03-.26.16-.76.37s-1.24.47-2.17.74c-1.86.54-4.53 1.02-7.5 1.02-2.97-.01-5.64-.49-7.5-1.03-.93-.27-1.68-.52-2.17-.74-.5-.21-.77-.34-.76-.37.03-.08 1.16.32 3.02.75 1.86.44 4.49.86 7.41.86s5.54-.42 7.41-.86c1.86-.43 2.99-.83 3.02-.74z" fill="#455a64"/><path d="M115.57 197.41s-13.79 7.54-17.84 9.31l5.51 26.37 8.68 31.63-5.82 33.36s20.46 3.61 30.49 2.31c13.73-1.78 31.23-6.83 31.23-6.83l-13.62-40.67 3.48-28.08-5.85-23.67-14.25-1.69-22.01-2.04z" fill="#e5a44e"/><g opacity=".3"><path d="M109.09 223.78c.93 1.85 3.06 2.74 5.06 3.29 2 .55 4.15.95 5.71 2.31 2.78 2.42 2.71 6.96 5.27 9.61 1.64 1.7 4.3 2.34 6.54 1.58 1.41-.48 2.67-1.48 4.15-1.62 1.03-.1 2.07.23 3.1.15 2.92-.21 4.62-3.29 5.78-5.97 1.21-2.78 2.44-5.71 2.14-8.72-.44-4.51-4.19-8.15-4.77-12.64-.21-1.66.03-3.36-.15-5.03-.18-1.67-.92-3.44-2.45-4.14"/></g><path d="M164.07 194.2l-10.68-21.37 8.58-5.5s10.72 11.06 12.76 13.21c0 0 12.34 11.38 9.12 16.87-2.74 4.67-7.08 8.28-7.08 8.28l-12.7-11.49zM97.73 206.72c-.19.56-28.72 40.02-30.24 44.21-.08.23-.17.47-.24.72-1.7 5.46-.24 11.42 3.58 15.68l23.52 26.24 10.28-11.89-16.36-28.83 15.62-17.26-6.16-28.87z" fill="#e5a44e"/><path d="M115.61 283.44c-.95.06-2.69 1.38-3.47 2-.26.21-.58.31-.9.28-.54-.04-1-.41-1.16-.93l-1.02-3.43a3.21 3.21 0 00-2.48 1.56l-1.13 1.94-1.95-1.88-9.15 10.45s3.6 3.89 5.89 3.95c2.29.06 13.02-8.76 13.02-8.76l2.85-2.51c0 .01 2.3-2.84-.5-2.67z" fill="#ffbe9d"/><path d="M145.26 200.37l8.09.36 11.53-8.82 16.32 8.95s-7.34 7.86-14.26 15.91c-5.6 6.51-9.58 10.58-9.58 10.58l-12.1-26.98z" fill="#e5a44e"/><g><path d="M152.86 269.85c.02.03-.39.46-1.16 1.23-.76.77-1.92 1.84-3.39 3.12-2.93 2.55-7.21 5.84-12.32 8.89-5.11 3.04-10.03 5.26-13.67 6.63-1.82.69-3.31 1.2-4.35 1.5-1.04.31-1.62.47-1.63.44-.01-.03.55-.26 1.57-.63 1.02-.36 2.49-.92 4.28-1.65 3.59-1.45 8.46-3.7 13.54-6.73 5.07-3.04 9.36-6.25 12.34-8.72 1.49-1.23 2.68-2.26 3.49-2.99.81-.73 1.27-1.12 1.3-1.09z" fill="#263238"/></g><g><path d="M124.53 265.19c.12.08-2.75 4.74-6.42 10.41s-6.74 10.21-6.86 10.13c-.12-.08 2.75-4.74 6.42-10.41 3.66-5.68 6.74-10.21 6.86-10.13z" fill="#263238"/></g><g><path d="M156.39 225.18c-.08-.01-.06-1.16-.13-3.03-.07-1.87-.22-4.45-.48-7.28-.27-2.84-.6-5.4-.95-7.23-.33-1.84-.72-2.92-.64-2.95.06-.03.58 1.04 1 2.88.45 1.83.83 4.4 1.11 7.26.26 2.85.36 5.45.33 7.33-.02 1.87-.17 3.03-.24 3.02z" fill="#263238"/></g><g><path d="M176.04 192.73c-.04.07-.73-.31-1.88-.77s-2.81-.99-4.69-1.03c-1.89-.06-3.55.43-4.6 1.07-1.06.63-1.57 1.23-1.64 1.17-.04-.03.38-.73 1.44-1.48 1.05-.76 2.84-1.35 4.81-1.28 1.98.04 3.69.66 4.83 1.21 1.15.57 1.77 1.06 1.73 1.11z" fill="#263238"/></g><g><path d="M170.83 188.17c.03.19-2.28-.06-4.49 1.37-2.19 1.45-2.95 3.63-3.11 3.52-.06-.02.07-.56.48-1.36.41-.79 1.18-1.83 2.35-2.6a6.865 6.865 0 013.33-1.08c.9-.03 1.45.09 1.44.15z" fill="#263238"/></g><g opacity=".3"><path d="M125.43 260.39c-.15-.93-.76-1.94-1.7-1.98-1.08-.05-1.76 1.12-2.18 2.12-3.32 7.89-6.63 15.78-9.95 23.67l-.35 1.54c4.02-6.37 8-12.48 12.02-18.85 1.24-1.99 2.53-4.2 2.16-6.5z"/></g><g opacity=".3"><path d="M163.24 192.77c1.24-1.81 2.3-3.87 4.45-4.32 2.15-.45 4.46-.04 6.32 1.13.41.26.85.69.7 1.15-.11.34-.5.5-.85.59-1.89.46-3.85-.08-5.78-.34-1.93-.25-3.42.58-4.7 2.04"/></g><g><path d="M102.22 231.39c-.06.02-.54-1.01-1.19-2.74a62.549 62.549 0 01-3.35-14.01c-.21-1.83-.25-2.98-.18-2.98.08-.01.24 1.12.55 2.93.3 1.81.76 4.31 1.41 7.03.65 2.72 1.37 5.16 1.92 6.91.56 1.75.92 2.83.84 2.86z" fill="#263238"/></g><g><path d="M117.17 205.39l20.24.29-1.89-18.3s1.5.75 1.79-6.74c.3-7.49.99-20.22.99-20.22a26.049 26.049 0 00-26.27 2.58l-1.13.82 6.27 41.57z" fill="#ffbe9d"/><path d="M113 173.11c-.13-.06-5.11-1.66-5.08 3.47.02 5.13 5.17 4.05 5.18 3.9 0-.15-.1-7.37-.1-7.37zM137.1 172.69c.13-.05 4.73-1.16 4.43 3.96-.3 5.12-5.38 3.76-5.38 3.61-.01-.14.95-7.57.95-7.57z" fill="#ffbe9d"/><path d="M125.07 151.44s-6.99-.25-9.49 1.02c-4.15 2.12-7.37 8.03-7.44 15.34-.07 7.3 3.25 17.22 8.61 22.11 5.36 4.89 9.6 5.8 9.6 5.8s11.35-6.2 12.62-15.25c1.27-9.05 2.13-17.78-1.41-22.18-3.54-4.4-9.92-6.73-12.49-6.84z" fill="#263238"/><path d="M109.09 172.51c-.41-4.64-.8-9.44.66-13.86 1.46-4.43 5.26-8.43 9.92-8.6 1.49-.06 3 .28 4.47.02 1.27-.22 2.42-.86 3.62-1.33 2.05-.81 4.38-1.13 6.47-.4 2.08.72 3.83 2.65 3.9 4.85.03.9-.2 1.85.11 2.69.33.87 1.15 1.44 1.73 2.16.91 1.15 1.17 2.71 1.03 4.17-.15 1.46-.67 2.85-1.18 4.23l-3.81 10.2" fill="#263238"/><path d="M120.79 175.11c2.65-1.3 5.93-1.21 8.51.21 2.58 1.43 4.4 4.16 4.71 7.09.33 3.03.33 3.52 2.29 5.86 1.21 1.44 2.38 1.36 3.8 2.59 1.84 1.6 2.4 4.49 1.3 6.66 3.67-.17 7.1-.41 8.36 3.04-5.48-1.13-10.97 3.99-16.45 2.86-1.73-.36-3.53-.74-4.94-1.81-1.62-1.22-2.5-3.17-3.32-5.02-1.47-3.34-2.94-6.68-4.41-10.03-.99-2.25-2-4.59-1.95-7.05.05-2.46 1.46-5.07 3.84-5.69" fill="#263238"/><path d="M118.58 178.46c-1.01-3.16.11-6.76 2.66-8.54 2.55-1.79 6.33-1.64 8.99.35 1.97 1.48 3.29 3.97 3.07 6.35-.22 2.38-2.16 4.46-4.52 4.51" fill="#e8505b"/><path d="M130.6 173.49c-3.23-2.64-8.04-2.09-10.66.53-2.62 2.62-2.88 8.01-2.09 11.63.85 3.89 3.23 7.66 2.44 11.56-.48 2.38-2.11 4.79-1.17 7.03.76 1.81 2.91 2.6 4.07 4.18 1.71 2.33.86 5.6-.28 8.25-1.14 2.65-2.56 5.51-1.76 8.28.62 2.15 2.43 3.7 3.88 5.41 1.45 1.71 2.61 4.11 1.64 6.13 1.85 1.38 4.56 1.48 6.5.24 1.94-1.24 3-3.74 2.52-6a6.84 6.84 0 011.92 4.39c3.14-.28 6.06-2.28 7.46-5.1 1.39-2.82 1.2-6.37-.49-9.02-1.24-1.94-3.24-3.51-3.66-5.78-.5-2.7 1.45-5.34 1.2-8.07-.23-2.45-2.16-4.38-4.14-5.84-1.98-1.46-4.19-2.78-5.47-4.88-2.07-3.4-1.11-7.73-.31-11.63.81-3.88 1.2-8.48-1.6-11.31" fill="#263238"/><path d="M118.78 175.87c-2.77 1.87-2.95 5.84-2.57 9.16.38 3.32.92 7.05-1.12 9.69-1.38 1.78-3.78 2.82-4.49 4.96-.86 2.61 1.29 5.22 1.53 7.96.18 1.98-.65 3.9-1.61 5.64-.95 1.74-2.06 3.44-2.53 5.37-.46 1.93-.13 4.21 1.41 5.46.97.79 2.25 1.06 3.48 1.25a43 43 0 0013.35-.04c1.32-5.43 2.64-10.92 2.64-16.5-.01-11.09-5.25-21.67-5.39-32.76" fill="#263238"/><path d="M126.55 232.77c-.01.01-.17-.16-.45-.5-.32-.38-.73-.88-1.24-1.49-1.06-1.3-2.68-3.12-4.36-5.65-.83-1.26-1.64-2.74-2.15-4.47-.53-1.7-.6-3.77.11-5.68.66-1.92 1.79-3.71 2.82-5.59 1-1.87 2.02-3.96 1.76-6.18-.2-2.22-1.69-4.06-2.36-6.17a7.06 7.06 0 01-.3-1.65c0-.56.08-1.12.26-1.64.38-1.04 1.08-1.85 1.74-2.6.66-.74 1.32-1.44 1.78-2.23.47-.77.68-1.64.72-2.5.06-1.73-.45-3.31-.88-4.74-.44-1.43-.81-2.77-.85-3.99-.05-1.22.24-2.27.62-3.03.39-.77.89-1.24 1.26-1.49s.61-.31.61-.31c.06.05-.96.37-1.68 1.89-.35.74-.59 1.75-.52 2.92.07 1.18.44 2.47.91 3.9.45 1.42 1.01 3.03.96 4.87-.03.91-.25 1.87-.76 2.71-.49.85-1.17 1.57-1.81 2.32-.64.74-1.3 1.52-1.63 2.45-.16.46-.23.96-.23 1.46.02.5.13 1.01.28 1.51.62 2 2.15 3.85 2.39 6.27.13 1.18-.06 2.37-.43 3.45-.38 1.08-.87 2.08-1.39 3.03-1.05 1.9-2.17 3.66-2.82 5.51-.69 1.83-.64 3.74-.15 5.4.47 1.67 1.24 3.13 2.04 4.39 1.61 2.51 3.2 4.38 4.2 5.72.51.67.91 1.19 1.16 1.55.28.35.41.55.39.56z" fill="#455a64"/><path d="M115.65 194.2c-.09-.04.75-1.34 1.07-3.74.17-1.19.21-2.63.17-4.23-.04-1.6-.16-3.38-.06-5.26.11-1.87.49-3.68 1.29-5.15.81-1.45 1.94-2.5 3.04-3.1 1.1-.6 2.15-.76 2.84-.71.35.03.61.07.79.13.18.05.26.08.26.1-.01.05-.38-.04-1.05-.03-.66.01-1.63.22-2.65.82s-2.07 1.62-2.8 3-1.08 3.12-1.19 4.95c-.1 1.83 0 3.6.02 5.22.02 1.62-.06 3.09-.28 4.3-.22 1.21-.56 2.16-.87 2.78-.32.63-.55.93-.58.92zM145.08 230.04c-.02-.01.03-.22.07-.64.05-.42.05-1.04-.01-1.83-.15-1.57-.52-3.9-1.58-6.52-.57-1.27-1.47-2.6-2.15-4.16-.34-.78-.64-1.63-.78-2.54-.16-.91-.1-1.88.04-2.83.14-.95.36-1.9.48-2.86.13-.96.11-1.95-.06-2.94-.35-1.97-1.34-3.92-2.89-5.38-1.53-1.49-3.65-2.16-5.22-3.64-1.57-1.47-2.36-3.47-2.72-5.35-.37-1.9-.31-3.74-.18-5.42.13-1.69.33-3.24.43-4.66.09-1.42.11-2.72-.05-3.82-.16-1.11-.55-2.01-1.06-2.61-1.04-1.22-2.09-1.18-2.05-1.24 0 0 .23-.03.64.08.41.12 1.01.41 1.56 1.02.56.6 1.01 1.55 1.2 2.69.19 1.14.19 2.45.13 3.89-.07 1.44-.25 3-.36 4.67-.11 1.67-.15 3.47.22 5.3.35 1.81 1.12 3.7 2.59 5.07 1.45 1.38 3.58 2.06 5.23 3.63 1.63 1.55 2.67 3.59 3.04 5.67.18 1.04.2 2.1.05 3.1-.13 1-.36 1.95-.5 2.87-.15.92-.2 1.82-.07 2.68.13.86.4 1.68.72 2.44.64 1.54 1.51 2.84 2.09 4.19 1.05 2.71 1.35 5.05 1.44 6.65.03.81 0 1.44-.08 1.85-.02.21-.09.37-.11.47-.03.12-.05.17-.06.17z" fill="#455a64"/><path d="M141.11 201.77c-.04-.03.25-.42.44-1.24.18-.81.26-2.09-.21-3.51-.49-1.39-1.67-2.9-3.44-3.77-.88-.39-1.98-.88-2.72-1.78-.76-.91-1.18-1.97-1.71-3.04-.93-2.27-.81-4.61-.81-6.62.02-2.02-.1-3.85-.64-5.26-.52-1.42-1.35-2.37-2.01-2.88-.67-.52-1.14-.65-1.12-.7.01-.02.12.01.34.08.21.08.53.21.89.46.73.48 1.65 1.44 2.24 2.91.61 1.46.77 3.36.77 5.39.03 2.02-.06 4.3.81 6.42.5 1.02.95 2.12 1.62 2.92.34.4.74.73 1.18.99.43.27.9.45 1.38.69 1.88.97 3.09 2.58 3.57 4.09.45 1.53.3 2.84.05 3.68-.12.42-.29.72-.41.92-.13.17-.21.26-.22.25zM117.17 174.7c-.02.05-.88-.31-2.06-1.23-1.17-.91-2.61-2.46-3.65-4.5s-1.45-4.11-1.49-5.6c-.05-1.49.16-2.4.21-2.39.09.01.01.92.15 2.36.14 1.44.59 3.42 1.59 5.39 1.01 1.97 2.34 3.5 3.42 4.46 1.1.96 1.88 1.43 1.83 1.51zM116.24 176.06c-.06.12-1.71-.57-3.52-1.83-1.81-1.25-3.04-2.56-2.94-2.66.1-.11 1.46 1.01 3.24 2.23 1.77 1.25 3.29 2.13 3.22 2.26zM138.14 162.93c.12-.01-.1 2.87-1.8 5.92-1.67 3.06-3.99 4.79-4.05 4.68-.12-.12 1.97-1.96 3.59-4.93 1.65-2.95 2.1-5.7 2.26-5.67z" fill="#455a64"/><g><path d="M139.77 166.91c.13.03-.34 2.27-1.53 4.82-1.18 2.55-2.59 4.36-2.7 4.28-.13-.09 1.07-1.99 2.23-4.5 1.17-2.5 1.85-4.64 2-4.6z" fill="#455a64"/></g><g><path d="M137.41 153.95c-.08.03-.37-.75-.96-1.9-.31-.57-.73-1.22-1.35-1.77-.62-.56-1.47-.94-2.43-.92-1.95.03-3.44 1.27-4.36 2.15-.94.91-1.49 1.53-1.55 1.47-.05-.04.4-.73 1.29-1.73.45-.49 1.03-1.06 1.8-1.54s1.74-.86 2.81-.87c1.08-.03 2.1.44 2.75 1.08.68.63 1.08 1.35 1.36 1.96.54 1.24.7 2.05.64 2.07z" fill="#455a64"/></g><g><path d="M135.4 232.1c-.01.01-.18-.13-.48-.41-.3-.28-.73-.71-1.26-1.29-.52-.58-1.15-1.32-1.75-2.27-.58-.95-1.16-2.15-1.26-3.59-.04-.72.05-1.48.29-2.23.25-.74.62-1.46 1.03-2.18.81-1.42 1.82-2.91 1.87-4.71.09-1.79-.58-3.64-1.57-5.34-1-1.71-2.35-3.29-3.55-5.08-1.22-1.77-2.08-3.78-2.38-5.8-.33-2.02-.27-3.99-.1-5.83.37-3.69 1.1-6.94 1.21-9.71.18-2.77-.16-5.01-.63-6.49-.47-1.48-.94-2.21-.89-2.24.02-.01.13.17.34.53.21.36.47.91.74 1.65.53 1.48.94 3.76.81 6.57-.07 2.81-.76 6.09-1.1 9.74-.16 1.82-.2 3.76.12 5.71.3 1.96 1.11 3.86 2.31 5.6 1.17 1.75 2.53 3.34 3.56 5.11 1.01 1.75 1.71 3.7 1.61 5.62-.07 1.96-1.16 3.52-1.97 4.9-.42.7-.78 1.39-1.03 2.09-.24.7-.33 1.41-.31 2.08.07 1.36.59 2.52 1.14 3.46.56.94 1.15 1.69 1.65 2.28.5.6.91 1.04 1.18 1.35.29.3.43.46.42.48z" fill="#455a64"/></g></g></g><g><path d="M475.08 466.77c0 .14-100.78.26-225.07.26-124.33 0-225.09-.12-225.09-.26s100.76-.26 225.09-.26c124.29 0 225.07.12 225.07.26z" fill="#263238"/></g></svg>