<svg xmlns="http://www.w3.org/2000/svg" viewBox="0 0 500 500"><path d="M332.18 92.08h65.75s-5.81-10.58-22.74-9.04c-16.16 1.47-16.99-5.21-25.2-6.03-8.22-.82-15.07 5.48-17.81 15.07z" fill="#e0e0e0"/><path d="M160.32 265.9s-6.59 3.56 3 17.32 15.83 20.36 15.83 20.36 1.81 3.25-1.01 4.18c-2.82.93-9.33.79-10.13 4.51-.83 3.85 2.31 6.95 8.14 9.24 5.82 2.29 18.4 7.78 19.53 8.28 1.11.49 2.36 1.95.55 2.89s-15.93 4.41-13.89 11.01c2.05 6.6 19.32 10.32 21.2 10.76 1.88.44 2.41 1.14 2.4 2.14-.01 1-4.87 1.72-8.84 2.87-3.97 1.15-8.38 3.18-6.88 6.89 1.5 3.71 12.36 10.44 36.33 9.5l11.08-1.16 4.72-10.15c8.78-22.33 5.99-34.8 2.98-37.44-3.01-2.64-6.38.86-8.77 4.23-2.39 3.37-4.67 7.72-5.62 7.4-.95-.32-1.43-1.05-1.23-2.97.2-1.92 2.37-19.46-3.19-23.56-5.56-4.1-13.48 8.09-14.97 9.49-1.49 1.41-2.45-.25-2.55-1.47-.1-1.24-1.15-14.92-1.4-21.17-.25-6.25-2.14-10.24-6.05-10.72-3.77-.47-5.78 5.72-7.59 8.08-1.81 2.35-4.28-.43-4.28-.43s-4.19-8.07-14.02-21.65c-9.84-13.58-15.48-8.38-15.48-8.38" fill="#ebebeb"/><path d="M238.58 377.22c-7.19-10-19.66-27.99-30.45-43.39-10.79-15.39-20.56-29.31-27.7-39.35-3.57-5.01-6.46-9.06-8.46-11.88-.99-1.39-1.76-2.48-2.3-3.23-.25-.36-.45-.64-.59-.85-.13-.19-.19-.3-.19-.3s.08.09.22.27l.62.83c.55.74 1.34 1.82 2.35 3.19 2.04 2.78 4.96 6.81 8.55 11.82 7.19 10 17 23.9 27.78 39.29 10.79 15.39 23.23 33.4 30.36 43.44" fill="#e0e0e0"/><path d="M177.12 312.83c.01-.02.29.02.8.11s1.24.24 2.15.44c1.81.39 4.29 1 7.02 1.72 2.69.72 5.12 1.37 6.98 1.87.84.22 1.55.4 2.12.55.5.13.78.21.77.23 0 .02-.29-.01-.8-.1-.51-.09-1.24-.24-2.15-.45-1.81-.41-4.28-1.05-7.01-1.77-2.69-.7-5.13-1.33-6.99-1.82-.84-.22-1.55-.4-2.12-.54-.5-.13-.78-.21-.77-.24zM197.62 316.95c-.09-.02.94-5.2 2.3-11.56 1.36-6.37 2.54-11.51 2.64-11.49.09.02-.93 5.2-2.3 11.56-1.37 6.37-2.55 11.51-2.64 11.49zM213.12 341.33c-.02-.01.11-.28.35-.74.28-.53.64-1.19 1.06-1.97.89-1.66 2.12-3.96 3.37-6.55 1.26-2.59 2.32-4.97 3.08-6.7.36-.81.66-1.5.9-2.05.21-.48.34-.75.37-.74.02.01-.06.29-.24.79s-.44 1.22-.8 2.09c-.7 1.76-1.73 4.16-2.99 6.76-1.26 2.6-2.52 4.89-3.47 6.52-.48.82-.87 1.47-1.16 1.92-.29.44-.45.68-.47.67zM193.76 341.69c0-.02.27-.05.76-.09.56-.03 1.25-.07 2.06-.12 1.74-.09 4.15-.18 6.81-.26 2.66-.08 5.07-.14 6.82-.16.81 0 1.51-.01 2.07-.01.49.01.76.02.76.04s-.27.06-.76.09c-.56.03-1.25.07-2.06.12-1.74.09-4.15.18-6.82.26-2.66.08-5.07.14-6.82.16-.81 0-1.51.01-2.07.01-.48 0-.75-.02-.75-.04zM204.71 364.95c0-.02.34-.06.97-.11.69-.04 1.58-.1 2.64-.16 2.23-.12 5.32-.27 8.73-.41 3.41-.14 6.5-.25 8.74-.31 1.07-.02 1.96-.04 2.65-.05.63 0 .97 0 .97.03 0 .02-.34.06-.97.11-.69.04-1.58.1-2.64.16-2.23.12-5.32.27-8.73.41-3.41.14-6.5.25-8.73.31-1.07.02-1.96.04-2.65.05-.64 0-.98-.01-.98-.03zM228.81 363.8c-.02-.01.13-.35.42-.95.32-.66.75-1.51 1.25-2.54 1.06-2.15 2.51-5.12 4.01-8.45 1.51-3.33 2.8-6.37 3.72-8.59.44-1.06.81-1.94 1.09-2.62.26-.62.41-.96.44-.95.02.01-.09.36-.31 1-.22.63-.56 1.54-.99 2.66-.86 2.24-2.12 5.31-3.63 8.64-1.51 3.33-2.99 6.3-4.11 8.42-.56 1.06-1.02 1.91-1.35 2.5-.33.57-.52.89-.54.88z" fill="#e0e0e0"/><g><path d="M321.8 216.22c-11.91-13.35-10.76-32.62-6.26-49.11.75-2.75 1.14-5.75 3.04-7.88 1.9-2.12 5.37-3.06 7.58-1.3 1.83 1.46 2.16 4.07 2.85 6.33.91 3 2.68 5.73 5.04 7.76 1.55 1.34 3.6 2.41 5.58 1.87 2.71-.75 3.77-4 4.41-6.76 1.19-5.15 2.37-10.31 3.56-15.46.64-2.76 1.3-5.59 2.78-8 1.48-2.42 3.95-4.4 6.75-4.52 2.8-.11 5.69 2.17 5.6 5-.04 1.18-.54 2.29-.74 3.46-.19 1.16.04 2.56 1.05 3.14 1.03.58 2.32.06 3.33-.55 3.51-2.11 6.29-5.25 8.95-8.39 2.65-3.14 5.27-6.38 8.58-8.81 3.31-2.43 7.45-3.99 11.46-3.28 4.01.71 7.64 4.15 7.72 8.27.08 4.13-3.13 7.54-6.34 10.11a63.19 63.19 0 01-15.73 9.19c-1.02.41-2.12.86-2.69 1.8-1.04 1.7.28 3.94 1.95 4.98 1.9 1.17 4.18 1.49 6.27 2.25s4.2 2.27 4.53 4.49c.46 3.09-2.6 5.49-5.38 6.88a54.184 54.184 0 01-17.76 5.32c-2.21.26-4.5.41-6.47 1.45-1.98 1.04-3.55 3.29-3.02 5.47.53 2.18 2.92 3.41 5.14 3.51 2.22.11 4.4-.59 6.61-.88 4.13-.53 8.97.89 10.63 4.74 1.09 2.53.52 5.57-.9 7.95s-3.58 4.2-5.8 5.83c-7.77 5.69-16.92 9.59-26.44 10.56-9.53.96-17.89-.15-25.88-5.42" fill="#f5f5f5"/><path d="M324.22 217.82c2.16-6.45-.1-3.21 4.35-11.01 4.44-7.81 10.01-15.97 16.13-24.31 1.54-2.08 3.06-4.13 4.56-6.16 1.5-2.02 2.99-4.02 4.56-5.88 3.14-3.75 6.44-7.11 9.67-10.21 3.23-3.1 6.41-5.92 9.4-8.54 3-2.61 5.84-4.99 8.52-7.05 5.35-4.14 10.06-6.96 13.37-8.77 1.65-.91 2.96-1.57 3.85-2.01.43-.21.76-.37 1.02-.49.23-.11.35-.16.35-.15 0 .01-.11.08-.33.2-.25.13-.58.31-.99.54-.87.47-2.16 1.16-3.8 2.09-3.27 1.86-7.93 4.72-13.24 8.88-2.66 2.07-5.48 4.46-8.46 7.09-2.98 2.63-6.14 5.46-9.36 8.56-3.21 3.1-6.49 6.46-9.61 10.19-1.56 1.86-3.04 3.84-4.54 5.87-1.5 2.02-3.01 4.08-4.55 6.15-6.12 8.33-11.69 16.46-16.13 24.24-4.46 7.77-2.22 4.48-4.42 10.89" fill="#e0e0e0"/><path d="M353.96 170.48c-.04 0-.03-.44.01-1.24s.13-1.95.26-3.37c.26-2.84.75-6.75 1.32-11.06.56-4.31 1-8.22 1.22-11.06.11-1.42.19-2.57.24-3.36.05-.8.09-1.24.13-1.24.04 0 .06.44.07 1.24.02.8-.01 1.95-.07 3.38-.12 2.85-.5 6.78-1.07 11.1-.56 4.25-1.08 8.1-1.47 11.04-.17 1.33-.31 2.45-.42 3.35-.11.78-.18 1.22-.22 1.22z" fill="#e0e0e0"/><path d="M391.03 172.25c-.01.04-.53-.03-1.46-.17-.93-.13-2.27-.34-3.94-.53-3.33-.42-7.96-.84-13.09-1.07-5.13-.23-9.77-.24-13.14-.15-1.68.03-3.04.1-3.98.13-.94.04-1.46.05-1.47.01 0-.04.51-.11 1.45-.22.94-.1 2.3-.22 3.98-.3 3.37-.19 8.03-.24 13.17-.01 5.14.24 9.78.72 13.11 1.23 1.67.24 3.01.5 3.93.7.95.22 1.45.34 1.44.38zM329.16 206.26c-.02 0-.07-.16-.14-.49-.08-.39-.18-.86-.3-1.43-.26-1.24-.58-3.05-.96-5.28-.75-4.47-1.59-10.68-2.43-17.55-.84-6.87-1.62-13.08-2.27-17.56-.32-2.18-.59-3.97-.79-5.31-.08-.58-.15-1.05-.21-1.45-.04-.33-.06-.51-.04-.51.02 0 .07.17.14.49.08.39.18.86.3 1.43.26 1.24.58 3.05.96 5.28.75 4.47 1.59 10.68 2.43 17.55.84 6.87 1.62 13.07 2.27 17.56.33 2.18.59 3.97.79 5.31.08.58.15 1.06.21 1.45.04.33.06.51.04.51zM379.93 202.23c0 .02-.18.05-.51.08-.4.04-.89.08-1.48.13-1.36.11-3.2.26-5.44.44-4.59.37-10.93.96-17.93 1.62-7 .66-13.35 1.19-17.95 1.47-2.3.14-4.16.23-5.45.27-.59.01-1.09.03-1.48.04-.34 0-.52-.01-.52-.02 0-.02.18-.05.51-.08.4-.04.89-.08 1.48-.13 1.36-.11 3.2-.26 5.44-.44 4.59-.37 10.93-.96 17.93-1.62 7-.66 13.35-1.19 17.95-1.47 2.3-.14 4.16-.23 5.45-.27.6-.01 1.08-.03 1.48-.04.34 0 .52 0 .52.02z" fill="#e0e0e0"/></g><g><path d="M419.31 304c.01 0-.05.16-.17.47-.14.33-.32.77-.55 1.33-.51 1.2-1.23 2.89-2.13 5.03-1.88 4.35-4.53 10.49-7.71 17.83l-.05.11-.12.02c-7.11 1.17-15.4 2.54-24.22 4-2.76.45-5.48.9-8.12 1.33l-.37.06.09-.36c1.97-7.79 3.79-14.96 5.34-21.05l.11.23c-5.91-2.64-10.79-4.82-14.23-6.36-1.67-.76-2.99-1.36-3.93-1.79-.43-.2-.76-.36-1.02-.48-.23-.11-.35-.17-.34-.18 0-.01.13.03.37.13l1.05.43c.95.4 2.28.97 3.97 1.69 3.46 1.5 8.36 3.63 14.3 6.2l.16.07-.04.17c-1.52 6.1-3.31 13.28-5.25 21.08l-.28-.3c2.64-.43 5.35-.88 8.12-1.33 8.82-1.43 17.12-2.78 24.23-3.94l-.16.13c3.24-7.31 5.95-13.42 7.87-17.76.95-2.12 1.71-3.79 2.25-4.98.25-.55.46-.98.61-1.31.13-.32.21-.47.22-.47z" fill="#e0e0e0"/><path fill="#e0e0e0" d="M379.1 331.25l-.67 1.74 1.06 1.54-1.86-.09-1.13 1.48-.49-1.8-1.76-.62 1.56-1.02.05-1.86 1.45 1.17zM362.47 303l-.33.87.52.76-.92-.05-.56.74-.25-.89-.87-.31.77-.51.02-.93.73.58zM409.44 327.57l-.33.86.52.77-.92-.05-.56.74-.25-.9-.87-.3.77-.51.03-.93.72.58zM382.33 311.97l-.33.86.53.77-.93-.05-.56.74-.24-.9-.88-.3.78-.51.02-.93.72.58zM420.44 303.14l-.33.86.53.76-.93-.04-.56.74-.24-.9-.88-.3.78-.51.02-.93.72.58z"/></g><g><path d="M117.34 375.91h52.35s-4.63-8.42-18.1-7.2c-12.87 1.17-13.52-4.14-20.07-4.8-6.54-.66-11.99 4.36-14.18 12z" fill="#e0e0e0"/></g><g><path d="M127.74 169.79h52.35s-4.63-8.42-18.1-7.2c-12.87 1.17-13.52-4.14-20.07-4.8-6.55-.65-12 4.37-14.18 12z" fill="#f5f5f5"/></g><g><path d="M393.62 206.2h43.01s-3.8-6.92-14.88-5.91c-10.57.96-11.11-3.41-16.49-3.94-5.37-.55-9.85 3.58-11.64 9.85z" fill="#f5f5f5"/></g><g><path d="M307.73 291.09c2.14-16.12-9.2-29.42-23.36-37.41-14.16-7.99-30.59-10.67-46.23-15.11-14.75-4.19-29.42-10.31-40.35-21.07s-17.48-26.93-13.55-41.76c.99-3.72 2.75-7.46 5.94-9.61 3.2-2.15 8.08-2.09 10.46.93 5.08 6.44-4.82 17.97 1.38 23.34 1.42 1.23 3.38 1.69 4.85 2.86 3.92 3.12 2.65 9.2 3.2 14.18 1.09 9.85 10.33 16.69 19.4 20.68 12.15 5.34 25.31 7.86 38.2 11.03 12.89 3.17 25.88 7.16 36.62 14.96 10.74 7.8 20.05 20.01 19.98 33.28-.02 3.71-.49 8.27-2.82 11.16-2.33 2.89-5.29 3.49-8.65 1.91-3.34-1.57-5.69-4.01-5.07-9.37" fill="#f5a046"/><path d="M307.73 291.09c2.14-16.12-9.2-29.42-23.36-37.41-14.16-7.99-30.59-10.67-46.23-15.11-14.75-4.19-29.42-10.31-40.35-21.07s-17.48-26.93-13.55-41.76c.99-3.72 2.75-7.46 5.94-9.61 3.2-2.15 8.08-2.09 10.46.93 5.08 6.44-4.82 17.97 1.38 23.34 1.42 1.23 3.38 1.69 4.85 2.86 3.92 3.12 2.65 9.2 3.2 14.18 1.09 9.85 10.33 16.69 19.4 20.68 12.15 5.34 25.31 7.86 38.2 11.03 12.89 3.17 25.88 7.16 36.62 14.96 10.74 7.8 20.05 20.01 19.98 33.28-.02 3.71-.49 8.27-2.82 11.16-2.33 2.89-5.29 3.49-8.65 1.91-3.34-1.57-5.69-4.01-5.07-9.37" fill="#fff" opacity=".8"/><path d="M239.23 162.97c-.51-5.97 3.94-11.17 9-13.96 5.06-2.79 10.85-3.92 16.07-6.39 12.95-6.14 21.18-20.58 21.79-35.4.61-14.82-5.81-29.62-15.86-40.51-4.08-4.42-9.11-9.05-9.17-15.09-.06-6.3 6.04-11.26 12.14-11.18 6.1.08 11.72 4.16 15.37 9.3S294.24 61 296.21 67c-1.4-2.51 1.48-5.62 4.25-5.36 2.77.27 4.96 2.58 6.67 4.88 7.35 9.89 10.98 22.6 9.97 34.84-1.01 12.24-6.67 23.89-15.5 31.95-9.87 8.99-22.92 13.21-35.57 17.2-8.81 2.78-17.61 5.56-26.42 8.34" fill="#f5a046"/><path d="M239.23 162.97c-.51-5.97 3.94-11.17 9-13.96 5.06-2.79 10.85-3.92 16.07-6.39 12.95-6.14 21.18-20.58 21.79-35.4.61-14.82-5.81-29.62-15.86-40.51-4.08-4.42-9.11-9.05-9.17-15.09-.06-6.3 6.04-11.26 12.14-11.18 6.1.08 11.72 4.16 15.37 9.3S294.24 61 296.21 67c-1.4-2.51 1.48-5.62 4.25-5.36 2.77.27 4.96 2.58 6.67 4.88 7.35 9.89 10.98 22.6 9.97 34.84-1.01 12.24-6.67 23.89-15.5 31.95-9.87 8.99-22.92 13.21-35.57 17.2-8.81 2.78-17.61 5.56-26.42 8.34" fill="#fff" opacity=".8"/><g><path d="M231.88 37.52c-2.62 1.1-4.06 4.43-3.07 7.1.99 2.67 4.25 4.25 6.96 3.38 2.71-.87 4.43-4.06 3.68-6.81-.75-2.75-3.86-4.6-6.64-3.97" fill="#f5a046"/><path d="M231.88 37.52c-2.62 1.1-4.06 4.43-3.07 7.1.99 2.67 4.25 4.25 6.96 3.38 2.71-.87 4.43-4.06 3.68-6.81-.75-2.75-3.86-4.6-6.64-3.97" fill="#fff" opacity=".8"/></g><g><path d="M264.45 422.84c-3.24-6.71-.42-15.08 4.74-20.46 5.16-5.38 12.2-8.45 19.03-11.45 15.05-6.63 30.99-14.53 38.65-29.09 2.58-4.91 4.05-10.31 5.5-15.67 2.81-10.36 5.44-22.13-.21-31.26-1.63-2.63-4.07-4.96-7.11-5.5-3.46-.61-7.02 1.29-9.16 4.09-2.13 2.79-3.05 6.34-3.49 9.82-.84 6.64-.14 13.39-.84 20.04-.7 6.65-3.13 13.61-8.62 17.44-6.66 4.65-16.17 3.6-22.65 8.51-5.23 3.96-7.22 10.84-11.3 15.97-3.44 4.31-8.24 7.26-12.65 10.57-4.4 3.32-8.66 7.36-10.16 12.67-1.55 5.51.39 11.85 4.77 15.54 4.38 3.69 10.95 4.54 16.12 2.08" fill="#f5a046"/><path d="M264.45 422.84c-3.24-6.71-.42-15.08 4.74-20.46 5.16-5.38 12.2-8.45 19.03-11.45 15.05-6.63 30.99-14.53 38.65-29.09 2.58-4.91 4.05-10.31 5.5-15.67 2.81-10.36 5.44-22.13-.21-31.26-1.63-2.63-4.07-4.96-7.11-5.5-3.46-.61-7.02 1.29-9.16 4.09-2.13 2.79-3.05 6.34-3.49 9.82-.84 6.64-.14 13.39-.84 20.04-.7 6.65-3.13 13.61-8.62 17.44-6.66 4.65-16.17 3.6-22.65 8.51-5.23 3.96-7.22 10.84-11.3 15.97-3.44 4.31-8.24 7.26-12.65 10.57-4.4 3.32-8.66 7.36-10.16 12.67-1.55 5.51.39 11.85 4.77 15.54 4.38 3.69 10.95 4.54 16.12 2.08" fill="#fff" opacity=".8"/></g><g><path d="M164.33 83.86c-5.3-3.93-8.54-10.51-8.42-17.11.12-6.6 3.59-13.05 9.02-16.8 3.07-2.12 6.72-3.41 9.45-5.95 2.43-2.26 4.01-5.39 6.73-7.29 3.38-2.36 8.28-2.26 11.56.25 3.28 2.5 4.67 7.2 3.28 11.09-1.25 3.51-4.4 6.07-5.72 9.56-1.42 3.75-.5 7.96-1.03 11.93-.65 4.89-3.62 9.42-7.84 11.96-4.22 2.54-9.61 3.05-14.24 1.33" fill="#f5a046"/><path d="M164.33 83.86c-5.3-3.93-8.54-10.51-8.42-17.11.12-6.6 3.59-13.05 9.02-16.8 3.07-2.12 6.72-3.41 9.45-5.95 2.43-2.26 4.01-5.39 6.73-7.29 3.38-2.36 8.28-2.26 11.56.25 3.28 2.5 4.67 7.2 3.28 11.09-1.25 3.51-4.4 6.07-5.72 9.56-1.42 3.75-.5 7.96-1.03 11.93-.65 4.89-3.62 9.42-7.84 11.96-4.22 2.54-9.61 3.05-14.24 1.33" fill="#fff" opacity=".8"/><path d="M171.59 93.16h-1.46c-2.99 0-5.41-2.42-5.41-5.41V62.42H177v25.34c0 2.98-2.42 5.4-5.41 5.4z" fill="#f5a046"/><path fill="#ffbe9d" d="M164.71 62.42l6.15-11.27L177 62.42z"/><path d="M168.42 55.61s1.87 2.81 4.87 0l-2.43-4.46-2.44 4.46z" fill="#f5a046"/><path d="M177.17 86.52c0 .14-2.8.25-6.25.25s-6.25-.11-6.25-.25 2.8-.25 6.25-.25 6.25.11 6.25.25z" fill="#263238"/><g><path d="M177.04 84.63c0 .14-2.74.25-6.12.25s-6.12-.11-6.12-.25 2.74-.25 6.12-.25c3.38.01 6.12.12 6.12.25z" fill="#263238"/></g><g><path d="M168.32 62.6c.14 0 .25 4.91.25 10.96 0 6.05-.11 10.96-.25 10.96s-.25-4.9-.25-10.96c0-6.06.11-10.96.25-10.96z" fill="#fafafa"/></g><g><path d="M173.29 62.6c.14 0 .25 4.91.25 10.96 0 6.05-.11 10.96-.25 10.96s-.25-4.9-.25-10.96c0-6.06.11-10.96.25-10.96z" fill="#fafafa"/></g></g></g><g><path fill="#263238" d="M271.48 408.72l55.84 2.39 1.35 3.25-36.6 59.4-66.06-1.93z"/><path fill="#e0e0e0" d="M223.51 466.04l66.46 3.8 34.71-53.87-24.38 1.98-61.69 21.72z"/><path d="M214.17 462.05l61.03.96c-2.54-7.81 3.44-18.8 11.65-22.5 5.44-2.45 15.67-5.63 20.95-8.34 10.03-5.15 19.1-14.89 18.31-23.26l-25.07-.8-31.99-1.24c-2.67 7.94-8.4 13.13-17.1 16.26-7.78 2.8-16.64 2.79-24.24 5.97-12.22 5.13-18.09 21.72-13.54 32.95" fill="#ebebeb"/><path d="M214.17 462.05s-.06-.13-.15-.39c-.1-.28-.24-.67-.42-1.18-.21-.51-.34-1.19-.52-1.98-.22-.79-.29-1.72-.42-2.78-.15-2.11-.13-4.75.48-7.76.62-2.99 1.8-6.37 3.91-9.69.55-.81 1.07-1.68 1.76-2.45.33-.4.64-.82 1-1.21.37-.38.75-.76 1.13-1.14.37-.4.79-.75 1.22-1.1.43-.35.85-.72 1.31-1.05.96-.6 1.88-1.3 2.97-1.77 4.23-2.13 9.28-3.03 14.54-3.98 2.64-.48 5.35-.98 8.08-1.73 2.72-.77 5.45-1.8 8.04-3.24 1.3-.71 2.56-1.53 3.76-2.46 1.2-.92 2.32-1.97 3.33-3.15 2.05-2.32 3.6-5.14 4.64-8.18l.06-.16.17.01c8.5.32 17.41.66 26.66 1.02 9.24.36 18.81.61 28.61.94l1.79.06.22.01.02.22c.17 1.93-.18 3.86-.81 5.64-.28.91-.72 1.75-1.12 2.6-.47.81-.91 1.64-1.46 2.4-2.08 3.11-4.75 5.71-7.56 7.99a45.104 45.104 0 01-9.12 5.64c-3.22 1.45-6.48 2.63-9.67 3.81-3.19 1.18-6.35 2.3-9.35 3.6-1.47.68-2.88 1.47-4.11 2.49-.65.46-1.19 1.05-1.78 1.57-.52.59-1.1 1.12-1.57 1.75-1.97 2.42-3.45 5.16-4.27 8.02-.86 2.84-.96 5.85-.15 8.54l.08.27h-.28l-44.38-.79c-5.31-.11-9.46-.19-12.31-.25-1.41-.04-2.48-.06-3.23-.08l-1.1-.06s.38-.01 1.11-.01c.74 0 1.82.01 3.23.02 2.85.03 7 .08 12.31.14 10.65.15 25.9.36 44.39.61l-.2.27c-.85-2.78-.75-5.88.13-8.78.83-2.93 2.33-5.72 4.33-8.18.47-.64 1.06-1.19 1.59-1.79.6-.53 1.15-1.13 1.82-1.6 1.25-1.05 2.7-1.86 4.2-2.56 3.02-1.32 6.18-2.44 9.37-3.63 3.19-1.18 6.44-2.37 9.63-3.8 3.17-1.47 6.21-3.34 9.02-5.58 2.78-2.26 5.41-4.83 7.46-7.89.54-.74.97-1.56 1.43-2.35.39-.83.81-1.65 1.09-2.53.6-1.73.94-3.59.78-5.43l.24.22-1.79-.06c-9.8-.33-19.37-.58-28.61-.95-9.24-.36-18.16-.71-26.66-1.04l.23-.16c-1.06 3.09-2.64 5.97-4.74 8.33a23.328 23.328 0 01-3.4 3.2c-1.21.95-2.49 1.78-3.82 2.49-2.63 1.45-5.4 2.48-8.14 3.26-2.75.75-5.48 1.25-8.12 1.72-5.26.94-10.29 1.82-14.46 3.91-1.07.46-1.99 1.15-2.93 1.73-.45.33-.87.69-1.29 1.03-.43.34-.85.68-1.21 1.08l-1.12 1.12c-.36.38-.66.8-.99 1.19-.68.77-1.2 1.62-1.75 2.42-2.11 3.27-3.3 6.61-3.94 9.58-.63 2.98-.68 5.6-.55 7.7.12 1.05.18 1.98.38 2.77.17.79.28 1.46.48 1.98.16.51.29.91.38 1.19.09.24.12.38.12.38z" fill="#263238"/><path d="M286.19 407.87c-.04-.01.08-.39.14-1.09.05-.69.01-1.73-.48-2.88-.47-1.13-1.41-2.39-2.88-3.09-1.46-.7-3.38-.85-5.14-.18-1.77.65-3.05 2.09-3.72 3.58a7.394 7.394 0 00-.59 4.25c.2 1.23.67 2.16 1.04 2.75.38.59.66.87.63.9-.02.02-.35-.22-.79-.79-.44-.57-.97-1.51-1.23-2.8-.25-1.27-.2-2.91.52-4.5.68-1.58 2.04-3.15 3.96-3.85 1.89-.71 3.96-.54 5.52.24 1.59.78 2.56 2.16 3.01 3.37.47 1.23.46 2.32.35 3.03-.06.36-.13.63-.2.81-.08.17-.12.25-.14.25z" fill="#263238"/><path d="M295.76 407.87c-.04-.01.08-.39.14-1.09.05-.69.01-1.73-.48-2.88-.47-1.13-1.41-2.39-2.89-3.09-1.46-.7-3.38-.85-5.14-.18-1.77.65-3.05 2.09-3.71 3.58a7.394 7.394 0 00-.59 4.25c.2 1.23.67 2.16 1.04 2.75.38.59.66.87.63.9-.02.02-.35-.22-.79-.79-.44-.57-.97-1.51-1.23-2.8-.25-1.27-.2-2.91.52-4.5.68-1.58 2.04-3.15 3.96-3.85 1.89-.71 3.96-.54 5.52.24 1.59.78 2.56 2.16 3.01 3.37.47 1.23.46 2.32.35 3.03-.06.36-.13.63-.2.81-.08.17-.13.25-.14.25z" fill="#263238"/><path d="M303.02 408.37c-.05-.01.06-.4.08-1.1.01-.7-.09-1.73-.64-2.85-.53-1.11-1.54-2.31-3.06-2.92-1.49-.62-3.43-.66-5.14.11-1.73.75-2.93 2.26-3.51 3.78a7.434 7.434 0 00-.35 4.28c.27 1.22.79 2.12 1.2 2.68.41.57.71.84.68.87-.02.02-.36-.2-.83-.75a6.826 6.826 0 01-1.39-2.72c-.33-1.26-.36-2.89.26-4.52.59-1.62 1.86-3.26 3.73-4.07 1.85-.82 3.92-.77 5.52-.07 1.63.69 2.68 2.01 3.2 3.2.54 1.2.59 2.29.52 3.01-.04.36-.1.64-.16.82-.05.16-.09.25-.11.25z" fill="#263238"/><path d="M310.81 408.81c-.05-.01.04-.4.02-1.1-.02-.7-.18-1.72-.79-2.81-.59-1.08-1.66-2.23-3.21-2.76-1.52-.54-3.45-.47-5.13.38-1.69.84-2.8 2.42-3.3 3.96-.53 1.56-.45 3.1-.12 4.29.33 1.2.9 2.07 1.34 2.62.44.55.75.8.72.83-.01.02-.37-.18-.87-.7s-1.13-1.39-1.53-2.64c-.39-1.24-.51-2.87.02-4.53.5-1.64 1.68-3.35 3.51-4.26 1.81-.92 3.87-.97 5.51-.37 1.67.6 2.78 1.87 3.36 3.02.6 1.17.71 2.26.68 2.98-.02.36-.06.64-.11.82-.05.18-.08.27-.1.27z" fill="#263238"/><path d="M318.61 408.63c-.05-.01.03-.4-.01-1.1-.04-.69-.23-1.72-.87-2.79-.62-1.06-1.72-2.18-3.28-2.67-1.54-.5-3.47-.38-5.12.52-1.67.89-2.73 2.49-3.19 4.05a7.428 7.428 0 000 4.29c.37 1.19.96 2.05 1.41 2.58.46.54.77.78.75.81-.01.02-.37-.17-.89-.68a6.84 6.84 0 01-1.6-2.6 7.571 7.571 0 01-.11-4.53c.46-1.66 1.59-3.4 3.39-4.36 1.78-.97 3.85-1.08 5.5-.52 1.68.55 2.83 1.79 3.44 2.93.63 1.15.78 2.24.76 2.96-.01.36-.04.64-.09.83-.04.18-.07.28-.09.28z" fill="#263238"/><g><path d="M325.19 409.5c-.05-.01.04-.4.03-1.1-.01-.7-.16-1.73-.76-2.82-.58-1.08-1.63-2.24-3.17-2.79-1.52-.56-3.45-.51-5.14.32-1.7.82-2.83 2.38-3.35 3.92a7.395 7.395 0 00-.17 4.29c.32 1.21.87 2.08 1.31 2.63.43.55.74.81.71.84-.01.02-.37-.18-.86-.71a6.867 6.867 0 01-1.5-2.66c-.38-1.24-.48-2.87.07-4.53.52-1.64 1.72-3.33 3.56-4.22 1.82-.9 3.89-.93 5.52-.3 1.66.62 2.76 1.9 3.33 3.06.59 1.18.69 2.27.64 2.99-.02.36-.07.64-.12.82-.05.17-.08.27-.1.26z" fill="#263238"/></g></g><g><path d="M353.95 204.65c-2.63-.07-5.41.02-8.27.37-17.23 2.14-30.07 16.94-30.04 34.3.01 5.06.55 10.71 2.14 16.35 4.81 17.06 6.29 32.09 5.74 39.41l16.1 8.65s7.45-10.71 14.65-15.32c7.2-4.62 31.16-16.96 40.65-29.66 6.12-8.18 7.29-24.97-7.29-39.66-8.91-8.96-21.04-14.08-33.68-14.44z" fill="#f5a046"/><path fill="#455a64" d="M315.9 313.71l14.54 7.86-9.46 12.02-9.7-4.4z"/><path d="M316.61 314.2c-.13-.05 1.31-4.36 3.22-9.64 1.91-5.28 3.56-9.52 3.69-9.47.13.05-1.31 4.36-3.22 9.64-1.91 5.27-3.56 9.51-3.69 9.47zM329.53 320.98c-.12-.07 2.16-4.15 5.09-9.11 2.93-4.96 5.4-8.92 5.52-8.85.12.07-2.16 4.15-5.09 9.11-2.94 4.96-5.41 8.92-5.52 8.85z" fill="#263238"/><path d="M358.8 205.11c-.65.04-8.65 9.4-12.19 15.74-11.91 21.33-12.44 42.08-15.75 66.28-.47 3.46-2.19 10.91-2.16 10.74 1.76 1.38 7.68 4.13 7.68 4.13s5.58-6.74 7.8-10.13c8.89-13.58 18.53-24.16 26.14-38.49 7.61-14.33 14.93-27.04 7.89-41.66.01 0-12.19-7.02-19.41-6.61z" opacity=".4"/><path d="M394.98 260.9c-.01 0-.08-.15-.21-.46-.13-.3-.29-.77-.56-1.35-.52-1.16-1.38-2.84-2.81-4.73-1.43-1.87-3.43-3.99-6.18-5.76-2.7-1.82-6.19-3.26-10.13-3.75l-.1-.01-.06-.08c-1.85-2.49-3.97-5.07-6.5-7.46-2.52-2.38-5.47-4.57-8.87-6.11-3.39-1.51-7.04-2.18-10.48-2-3.44.17-6.67 1.27-9.17 3.06l-.14.1-.13-.12a18.009 18.009 0 00-9.8-4.35c-3.25-.37-6.13.22-8.33 1.06-2.21.84-3.78 1.92-4.78 2.69-.5.39-.88.71-1.12.94-.25.22-.38.33-.39.32-.01-.01.11-.14.34-.38.23-.24.59-.58 1.08-1 .99-.82 2.54-1.94 4.78-2.83 2.22-.89 5.15-1.53 8.47-1.18 3.3.34 6.97 1.7 10.05 4.39l-.28-.01c2.56-1.85 5.88-2.99 9.41-3.18 3.52-.2 7.25.48 10.71 2.03 3.46 1.56 6.45 3.79 9 6.21s4.68 5.03 6.52 7.54l-.15-.09c4.03.52 7.56 2.02 10.28 3.89 2.77 1.83 4.77 4 6.19 5.91a23.06 23.06 0 012.73 4.83c.25.59.38 1.07.49 1.38.1.34.15.5.14.5zM365.06 282.15c-.1.03-.08-1.45-1.39-3.5-.66-.99-1.65-2.12-3.09-2.97-1.41-.87-3.29-1.46-5.33-1.26l-.2.02-.03-.2c-.32-2.07-1.18-4.27-2.64-6.22-1.45-1.94-3.49-3.67-5.97-4.64-2.04-.81-4.21-1.1-6.24-.96-2.04.15-3.95.73-5.56 1.57l-.15.08-.12-.13c-1.61-1.72-3.69-2.69-5.59-3.03-1.91-.39-3.65-.19-5.01.16-2.75.75-3.92 2.08-3.98 1.97-.01-.01.06-.08.21-.22.15-.13.36-.34.68-.57.63-.45 1.62-1.04 3.01-1.45 1.38-.4 3.17-.63 5.15-.26 1.97.32 4.15 1.29 5.85 3.09l-.27-.05c1.66-.89 3.63-1.5 5.74-1.66 2.1-.15 4.35.14 6.46.98 2.58 1 4.68 2.8 6.17 4.81 1.5 2.02 2.37 4.3 2.68 6.44l-.23-.18c2.15-.19 4.11.46 5.55 1.39 1.48.91 2.47 2.09 3.12 3.13.64 1.05.93 1.99 1.07 2.63.07.32.08.57.1.74.01.21.02.29.01.29zM327.63 325.36c-.04.03-.16-.2-.53-.35-.37-.16-.98-.18-1.7.05-.37.1-.79.23-1.29.24-.5.01-1.05-.23-1.44-.63-.77-.8-1.07-1.97-1.79-2.77-.36-.39-.84-.6-1.34-.56-.5.02-1.01.19-1.52.3-.5.12-1.03.2-1.52.08-.49-.1-.88-.34-1.19-.61-.62-.54-.89-1.18-.96-1.62-.08-.44 0-.69.02-.69.04 0 .04.24.17.64.12.39.42.94.99 1.39.29.22.64.41 1.05.48.4.08.85.01 1.33-.12.48-.12 1-.31 1.61-.35.61-.05 1.29.23 1.72.71.85.96 1.11 2.11 1.76 2.79.32.34.71.53 1.12.54.41.02.81-.09 1.19-.16.76-.2 1.47-.13 1.87.12.41.23.47.52.45.52zM329.3 323.02c-.06.12-3.24-1.45-7.09-3.5-3.85-2.06-6.93-3.82-6.86-3.94.06-.12 3.24 1.45 7.09 3.5 3.85 2.06 6.92 3.82 6.86 3.94z" fill="#263238"/><path d="M326.41 326.69c.01.04-.2.1-.55.26-.18.08-.38.2-.66.31-.28.12-.64.16-1 .13-.73-.05-1.62-.28-2.4-.92a3.25 3.25 0 01-.91-1.26c-.21-.47-.38-.96-.7-1.31-.66-.71-1.74-.79-2.63-.76-.92.03-1.82.06-2.53-.24-.7-.29-1.12-.79-1.28-1.17-.16-.39-.11-.63-.08-.63.04-.01.06.22.25.54.19.32.6.71 1.23.93.63.22 1.45.17 2.39.11.91-.05 2.14-.03 3.02.88.41.46.58 1 .78 1.45.19.46.44.82.77 1.11.66.58 1.46.83 2.13.92.67.12 1.16-.16 1.56-.27.38-.11.61-.11.61-.08z" fill="#263238"/></g><g><path d="M216.62 233.3l25.15-3.73-12.02-17.03-6.45.38c-4.34.26-8.16 2.94-9.88 6.93a11.51 11.51 0 00-.73 6.73l3.93 6.72z" fill="#f5a046"/><path d="M216.62 233.3l25.15-3.73-12.02-17.03-6.45.38c-4.34.26-8.16 2.94-9.88 6.93a11.51 11.51 0 00-.73 6.73l3.93 6.72z" opacity=".4"/><g><path d="M324.64 261.16c.26.72.54 1.57.83 2.59.25.88.33 1.79.27 2.69-.07 1.1-.23 2.56-.57 3.33-.41.95.55 1.91 1.36 1.44.81-.48 2.02-3.08 1.94-6.42-.07-3.35 3.34.66 4.61 2.1 1.27 1.44 5.41 5.71 6.16 5.67 1.1-.06 1.24-1.25-.06-2.66-1.32-1.43-4.91-5.91-4.12-6.54.78-.62 7.15 6.79 7.15 6.79s1.1 1.81 2.04 1.1c1.7-1.27-5.65-8.65-6.37-9.34-.5-.48.34-1.2.85-.66.52.56 6.18 7.55 7.92 6.27 1.33-.98-5.99-6.13-6.36-8.23-.37-2.1 5.16 4.47 6.39 3.49.46-.37.75-.7-2.96-4.02-1.8-1.61-8.66-6.41-8.66-6.41l-20.64-59.1-15.94 9.13 26.16 58.78zM201.77 149.4l-23.06-27.52c-.3-.95-.66-1.87-1.13-2.74-1.15-2.15-3.06-4.02-5.44-4.54-1.46-.32-3.14-.17-4.28-1.13-.51-.43-.86-1.04-1.39-1.44-.54-.4-1.43-.48-1.78.1-.24.41-.09.93.1 1.37.86 2.03 2.25 3.83 4 5.17-2.16.66-5.25 1.65-5.25 1.65s-4.88-5.29-7.37-5.27c-2.5.02 2.02 4.72 2.02 4.72s-4-3.7-5.24-2.65c-1.24 1.04 1.94 3.78 1.94 3.78-1.01-.54-2.11-1.1-3.24-.91-1.13.19-2.1 1.52-1.49 2.49.23.37.63.6 1.02.81 2.05 1.14 4.09 2.28 6.14 3.42 1.03.57 2.11 1.16 3.28 1.2 3.11.1 5.48-1.83 8.6-1.75 0 0 17.39 36.61 19.15 38.5 1.76 1.89 39.97 4.46 39.97 4.46l22.11-19.05-48.66-.67z" fill="#ffbe9d"/><path d="M271.05 348.83l23.55 10.26-12.61 29.37c-2.73-1.38-1.84-18.99-1.84-18.99l-15.36-5.95 6.26-14.69z" fill="#f5a046"/><path d="M282.77 359.84c.4-.5 1.21-.62 1.72-.24.52.38.65 1.2.25 1.71-.39.51-1.36.68-1.83.25-.47-.43-.57-1.41-.07-1.81M294.6 359.08l-2.41-.94L281 386.65s.01 1.55.99 1.8l12.61-29.37z" fill="#fff" opacity=".6"/><path d="M279.79 369.88c.15.06.52-.63 1.28-1.14.75-.53 1.53-.62 1.53-.78.03-.14-.92-.3-1.83.33-.92.62-1.12 1.56-.98 1.59zM279.74 373.5c.12.09.64-.42 1.45-.65.81-.25 1.52-.09 1.57-.24.08-.13-.72-.59-1.73-.28-1 .29-1.42 1.11-1.29 1.17zM282.68 376.84c.09-.12-.54-.62-1.49-.59-.94.02-1.54.57-1.45.68.08.13.69-.12 1.47-.14.77-.04 1.39.18 1.47.05zM276.44 368.13c.16 0 .24-.75.64-1.53.39-.8.93-1.31.84-1.44-.07-.13-.86.26-1.33 1.19-.46.93-.29 1.8-.15 1.78zM273.26 365.93c.06.03.39-.5.62-1.47.12-.48.2-1.08.19-1.74 0-.33-.03-.68-.09-1.04-.03-.17-.05-.37-.16-.59-.08-.22-.42-.48-.73-.39-.29.05-.5.28-.6.49-.1.21-.13.41-.16.58-.06.36-.08.71-.08 1.05.01.67.14 1.27.31 1.74.34.95.77 1.42.82 1.38.08-.04-.23-.57-.45-1.49-.11-.46-.19-1.01-.18-1.63.01-.31.04-.63.1-.96.05-.35.16-.61.34-.63.07-.01.09 0 .15.1s.08.26.11.43a8.477 8.477 0 01.04 2.63c-.11.94-.31 1.51-.23 1.54z" fill="#263238"/><path d="M273.54 365.84c.04-.04-.35-.55-1.25-1-.45-.22-1.03-.41-1.7-.49a5.24 5.24 0 00-1.05-.01c-.36.05-.84.09-1.15.62-.14.29-.01.62.15.79.16.18.32.27.47.38a3.622 3.622 0 002.78.45c1.01-.25 1.44-.77 1.39-.8-.05-.08-.54.3-1.46.43-.45.06-1.01.05-1.58-.13-.28-.09-.57-.22-.84-.39-.29-.18-.49-.41-.41-.51.06-.15.4-.29.7-.31a5.413 5.413 0 012.54.33c.89.32 1.36.7 1.41.64z" fill="#263238"/><g><path d="M252.91 389.17l9.74 20.41 3.05 18.36a2.314 2.314 0 002.82 1.87c.73-.17 1.33-.68 1.61-1.38 1.79-4.43 8.3-20.78 7.5-22.23-.92-1.68-8.85-22.21-8.85-22.21l-15.87 5.18z" fill="#f5a046"/><path d="M268.52 429.82l8.49-25 .39.87c.34.76.4 1.61.17 2.4-.62 2.13-2.45 7.97-7.38 20.32-.28.72-.91 1.25-1.67 1.41zM269.78 400.07c-.36.59-.17 1.45.4 1.83.57.38 1.45.2 1.81-.38.37-.58.18-1.62-.43-1.93-.61-.31-1.63-.05-1.84.61" opacity=".6" fill="#fff"/><path d="M269.18 418.69c-.09.11-1.04-.76-2.53-.79-1.49-.07-2.5.73-2.58.61-.04-.04.15-.32.6-.61.45-.29 1.17-.53 2-.5.82.03 1.53.33 1.96.64.43.32.59.61.55.65zM268.95 422.11c-.06.13-1.02-.24-2.23-.07-1.21.15-2.04.76-2.13.65-.11-.08.69-.96 2.07-1.14 1.38-.19 2.38.46 2.29.56zM270.32 413.92c-.05.14-1.53-.44-3.43-.33-1.9.08-3.31.8-3.38.66-.08-.1 1.32-1.07 3.36-1.16 2.04-.11 3.53.73 3.45.83zM267.88 407.47c0 .15-1.35.18-2.86.8-1.52.59-2.52 1.5-2.62 1.39-.1-.08.81-1.21 2.44-1.85 1.62-.66 3.06-.47 3.04-.34zM265.17 401.4c-.01.15-1.46-.02-3 .75-1.55.74-2.3 2-2.43 1.92-.05-.03.06-.39.41-.88s.97-1.08 1.8-1.49c.83-.41 1.68-.54 2.27-.52.61.03.96.17.95.22zM261.69 400.99c-.03.01-.2-.24-.38-.77-.18-.52-.36-1.32-.3-2.32.05-.48.06-1.08.51-1.61.22-.27.68-.4 1.04-.24.36.16.59.46.74.78.57 1.32.01 3.09-1.38 3.94-1.41.83-3.12.58-4.22-.28-.26-.24-.51-.55-.51-.97 0-.42.36-.75.67-.83.65-.18 1.2 0 1.68.1.97.25 1.68.65 2.13.97.45.32.66.55.64.57-.05.09-.98-.78-2.85-1.2-.46-.08-1-.2-1.46-.05-.22.08-.37.24-.37.45 0 .2.16.44.37.62.91.7 2.48.92 3.66.2 1.18-.7 1.66-2.26 1.22-3.33-.11-.26-.29-.48-.5-.57a.51.51 0 00-.58.12c-.33.34-.4.9-.46 1.36-.16 1.9.45 3.04.35 3.06z" fill="#263238"/></g><g><path d="M285.73 351.32l-26.71-17.98 8.84-86.79-25.3-14.77-23.13-5.36s-9.66 20.1-13.96 32.97c-9.14 27.37-15.55 37.17-14.09 57.01.46 6.28 23.65 21.98 38.29 30.71.2 2 .46 3.75.78 5.2 5 22.62 20.27 52.69 20.27 52.69l23.21-10.79-7.49-25.65 7.8 4.55 11.49-21.79zm-57.41-55.97l3.12-13.91c-.66 8.85-1.26 18.07-1.69 26.92-1.5-4.08-2.01-8.63-1.43-13.01z" fill="#042b5d"/><path d="M250.73 404.99c-.01 0-.07-.12-.18-.37-.12-.27-.28-.63-.48-1.09l-1.79-4.23c-1.54-3.68-3.75-9.02-6.4-15.65-2.64-6.63-5.79-14.53-8.95-23.43-.79-2.23-1.56-4.52-2.29-6.89-.32-1.2-.73-2.38-.94-3.65-.06-.31-.13-.63-.18-.94l-.11-.95-.21-1.91c-.27-2.56-.5-5.16-.66-7.81-.08-1.32-.16-2.66-.21-4.01-.05-1.34-.11-2.71-.03-4.07.39-10.91 1.31-21.24 2.06-30.65.79-9.4 1.49-17.87 2.09-24.99.58-7.11.98-12.87 1.21-16.86.12-1.99.19-3.54.24-4.59.03-.51.05-.9.06-1.19.02-.27.03-.41.04-.41.01 0 .01.14.01.41 0 .29-.01.69-.02 1.2-.01 1.05-.05 2.6-.15 4.6-.17 3.99-.52 9.76-1.05 16.88-.57 7.12-1.24 15.59-1.98 25-.73 9.41-1.63 19.76-2.02 30.63-.08 1.36-.02 2.7.03 4.04.05 1.34.12 2.67.21 3.99.17 2.64.39 5.24.65 7.79l.21 1.9.11.94c.05.31.12.61.18.92.2 1.22.6 2.41.92 3.6.72 2.36 1.48 4.65 2.27 6.87 3.14 8.89 6.25 16.8 8.85 23.45 2.63 6.61 4.77 11.97 6.26 15.7.73 1.83 1.31 3.27 1.71 4.27.18.47.33.84.44 1.11.06.26.1.39.1.39zM232.87 248.37c-.02.03-.23-.15-.61-.49-.35-.37-.77-.98-1.13-1.81-.72-1.67-1.08-4.17-1.14-6.89-.05-2.73.15-5.19.33-6.95.18-1.77.33-2.86.4-2.85.07 0 .04 1.11-.05 2.88-.09 1.77-.23 4.22-.18 6.92.05 2.69.36 5.13.97 6.77.3.82.66 1.43.95 1.82.32.35.49.58.46.6zM222.89 227.72c.05-.01.29.91.2 2.43-.08 1.5-.6 3.62-1.91 5.56-1.32 1.94-3.1 3.19-4.47 3.82-1.38.64-2.32.75-2.33.7-.02-.08.88-.32 2.17-1.02 1.29-.69 2.96-1.93 4.22-3.78 1.26-1.85 1.81-3.86 1.98-5.31.16-1.47.05-2.4.14-2.4zM264.39 278.18c.01 0 .01.09-.01.26-.02.2-.04.46-.06.77-.07.71-.17 1.71-.3 2.96-.28 2.61-.69 6.32-1.19 10.89-1.04 9.22-2.48 21.9-4.07 35.9-.61 7.01 0 13.76 1.32 19.7.65 2.98 1.51 5.75 2.42 8.31.9 2.56 1.74 4.95 2.5 7.14 1.51 4.34 2.73 7.87 3.59 10.35.4 1.2.72 2.14.95 2.82.1.3.17.54.24.74.05.17.07.25.06.26-.01 0-.05-.08-.11-.24-.07-.19-.17-.43-.28-.72l-1.04-2.79c-.9-2.47-2.17-5.98-3.74-10.3-.78-2.18-1.64-4.56-2.56-7.12-.93-2.56-1.81-5.35-2.48-8.34-1.35-5.98-1.98-12.78-1.36-19.85 1.56-14.04 3.11-26.71 4.21-35.9.56-4.56 1.02-8.27 1.34-10.87.17-1.25.3-2.24.39-2.95.05-.31.08-.57.11-.77.04-.17.06-.25.07-.25z" fill="#455a64"/></g><g><path fill="#ffbe9d" d="M219.43 226.25l4.1-10.47 9.34 13.94-12.46-3.11"/><path d="M317.25 194.78l-11.09-24.87c-1.33-4-3.81-4.62-5.9-6.94l-27.79-15.67c-20.25-8.3-31.28 19.53-31.28 19.53l-18.41 41.99c-21.65 7.18-6.32 23.8-6.32 23.8s-5.89-10.24-.1-13.93c6.06-3.87 12.79 6.32 19.25 16 7.63 11.42 32.41 18.84 32.41 18.84 2.9-3.06 2.09-13.75 4.36-19.49.72-1.82 17.88-41.57 17.88-41.57l6.65 16.12s8.53-10 12.66-11.59c4.12-1.58 7.68-2.22 7.68-2.22z" fill="#f5a046"/><path d="M268.01 212.46c.02.03-.28.25-.84.59-.57.34-1.42.78-2.53 1.2-2.2.85-5.53 1.5-9.13.95-3.61-.56-6.58-2.19-8.42-3.66-.93-.73-1.61-1.41-2.05-1.9-.44-.5-.65-.79-.62-.81.07-.07 1 1.07 2.89 2.44 1.86 1.37 4.78 2.91 8.29 3.45 3.51.54 6.75-.04 8.94-.79 2.19-.76 3.42-1.55 3.47-1.47z" fill="#263238"/><path d="M221.95 173.02l17.15 1.62 27.44-29-16.14-.55-28.74 2.84c.01-.01 2.55 11.97.29 25.09z" fill="#f5a046"/><path d="M245.77 157.74c.02.01-.06.19-.21.53-.18.39-.41.88-.69 1.48-.63 1.34-1.49 3.18-2.55 5.43-2.13 4.6-4.96 11-8.03 18.1-3.07 7.1-5.86 13.53-7.97 18.14-1.05 2.31-1.92 4.17-2.55 5.44l-.73 1.46c-.17.33-.27.5-.28.5-.02-.01.05-.19.19-.54.17-.39.38-.89.64-1.5.59-1.36 1.41-3.22 2.4-5.5 2.03-4.71 4.79-11.11 7.83-18.19 3.07-7.1 5.95-13.49 8.17-18.05 1.1-2.28 2.02-4.12 2.69-5.37.31-.59.57-1.06.77-1.44.2-.33.31-.5.32-.49zM298.12 166.17c.05.08-1.02.64-2.47 1.87-.73.61-1.52 1.43-2.32 2.4-.77.99-1.53 2.15-2.18 3.45-.62 1.31-1.06 2.62-1.36 3.84-.27 1.23-.42 2.35-.45 3.3-.07 1.9.15 3.08.06 3.1-.03.01-.11-.28-.21-.82-.06-.27-.11-.59-.13-.98-.03-.38-.09-.82-.07-1.31-.02-.97.1-2.13.35-3.4.28-1.26.72-2.61 1.36-3.96.66-1.34 1.45-2.52 2.27-3.52.84-.98 1.67-1.79 2.45-2.38.37-.32.75-.54 1.07-.76.32-.22.61-.38.85-.5.49-.24.76-.36.78-.33z" fill="#263238"/></g><g><path d="M302.91 126.34l-16.09 30.08c-2.63 4.91-8.6 6.95-13.69 4.68-5.6-2.5-7.91-9.22-5.05-14.64 1.52-2.87 2.78-5.21 2.78-5.21s-7-4.53-3.72-12.09c2.92-6.74 13.64-25.78 15.91-29.8l13.56 6.07c7.62 3.94 10.47 13.41 6.3 20.91z" fill="#ffbe9d"/><path d="M270.9 141.13s4.58 2.51 11.05 1.6c0 0-4.74 4.37-11.94.34l.89-1.94z" fill="#eb996e"/><path d="M276.07 117.08c-.27.56-.03 1.25.55 1.55.58.3 1.27.09 1.54-.47.27-.56.03-1.25-.55-1.55-.58-.3-1.27-.08-1.54.47z" fill="#263238"/><path d="M276.13 116.13c.07.2 1.15-.04 2.31.48 1.16.5 1.74 1.48 1.93 1.39.09-.03.07-.35-.18-.78-.24-.43-.75-.97-1.47-1.29-.72-.32-1.45-.32-1.91-.21-.48.11-.72.31-.68.41zM286.88 122.4c-.27.56-.03 1.25.55 1.55.58.3 1.27.09 1.54-.47.27-.56.03-1.25-.55-1.55-.58-.3-1.27-.09-1.54.47z" fill="#263238"/><path d="M287.39 121.42c.07.2 1.15-.04 2.31.48 1.16.5 1.74 1.48 1.93 1.39.09-.04.07-.35-.18-.78-.24-.43-.75-.97-1.47-1.29-.72-.32-1.45-.32-1.91-.21-.48.12-.72.32-.68.41z" fill="#263238"/><g><path d="M279.36 128.11c.03-.06-.63-.51-1.72-1.18-.28-.16-.53-.35-.49-.57.03-.24.29-.51.59-.79.6-.59 1.22-1.21 1.88-1.86 2.64-2.66 4.7-4.89 4.59-5-.11-.11-2.34 1.96-4.98 4.62-.64.66-1.26 1.29-1.85 1.89-.26.29-.62.58-.67 1.09-.02.26.13.51.29.65.16.14.33.22.47.29 1.13.6 1.86.93 1.89.86z" fill="#263238"/></g><g><path d="M282.4 130.43c-.18-.1-.75 1.16-2.22 1.57-1.47.41-2.74-.33-2.83-.15-.05.07.19.38.75.64.54.27 1.43.45 2.33.2.9-.25 1.51-.86 1.78-1.35.28-.5.28-.87.19-.91z" fill="#263238"/></g><g><path d="M289.12 116.76c-.03.37 1.19.73 2.48 1.5 1.3.74 2.21 1.63 2.52 1.43.14-.1.08-.48-.22-.98s-.87-1.1-1.64-1.56c-.77-.45-1.58-.66-2.16-.68-.6-.01-.97.12-.98.29z" fill="#263238"/></g><g><path d="M278.05 112.97c.09.35 1 .44 1.97.85.98.38 1.69.97 2 .78.14-.1.13-.42-.11-.82-.24-.4-.73-.87-1.4-1.14-.67-.27-1.34-.29-1.8-.17-.46.11-.69.33-.66.5z" fill="#263238"/></g><g><path d="M297.85 130.85c.15 0 5.85.78 3.38 5.85-2.46 5.07-7.04 1.55-6.98 1.4.07-.15 3.6-7.25 3.6-7.25z" fill="#ffbe9d"/><path d="M296.74 136.93c.03-.01.06.1.17.25.11.14.34.3.65.33.63.06 1.49-.57 1.96-1.47.24-.45.35-.94.37-1.38.03-.45-.09-.82-.33-1a.507.507 0 00-.64-.01c-.14.11-.15.23-.18.22-.02.01-.07-.14.07-.33.07-.09.19-.18.35-.22.17-.04.37 0 .55.11.38.22.55.75.54 1.23.01.5-.11 1.05-.38 1.56-.53 1.01-1.52 1.71-2.35 1.56-.4-.08-.65-.33-.74-.53-.09-.19-.06-.32-.04-.32z" fill="#eb996e"/></g><g><path d="M300.79 131.95c-.7-.54-2.38-.42-3.04.16-.66.58-1.11 1.38-1.77 1.97-.66.59-1.71.91-2.41.38-.48-.37-.64-1.05-.55-1.65.1-.6.41-1.14.73-1.66 1.38-2.26 2.95-4.42 4.12-6.79 1.18-2.37 1.96-5.04 1.61-7.67-.35-2.63-2-5.19-4.5-6.07-1.65-.59-3.49-.41-5.18-.9-2-.58-3.69-2.13-4.44-4.08-.1-.25-.66-1.14-.66-1.14.06-.12.65-1.15 1.25-1.35 4.45-1.5 10.49.22 14.18 3.13s6.27 7.59 6.32 12.29c.05 4.7-2.91 9.88-5.66 13.38" fill="#263238"/></g><g><path d="M300.84 131.45c1.41-2.39 3.69-4.13 5.43-6.29 1.74-2.16 2.94-5.21 1.7-7.69-.42-.85-1.1-1.56-1.46-2.44-.36-.88-.36-1.86-.49-2.81-.42-2.92-2.27-5.59-4.84-7.03-1.78-.99-3.83-1.4-5.64-2.35-2.86-1.5-4.95-4.29-7.95-5.47-1-.39-2.16-.58-3.11-.09-.95.49-1.46 1.87-.77 2.69-.12-.96-1.37-1.48-2.25-1.09-.88.4-1.33 1.45-1.27 2.41.06.96.54 1.85 1.09 2.65 1.82 2.61 4.61 4.53 7.7 5.3l6.9-.54 5.66 4.19 4.19 6.67-7.6 9.87 2.71 2.02z" fill="#263238"/></g></g></g></g><g><path d="M257.65 92.1c-.87-13.44-12.46-23.62-25.9-22.76-13.44.87-23.62 12.46-22.76 25.9.63 9.73 6.88 17.75 15.38 21.11.19 2.88.4 6.14.4 6.14l21.32-1.38s-.09-3.45-.24-6.53c7.58-4.55 12.41-13.06 11.8-22.48z" fill="#f5a046"/><path d="M238.38 121.51v-.3c.01-.21.02-.5.04-.88.04-.78.11-1.92.23-3.4.12-1.47.29-3.28.63-5.35s.84-4.43 1.77-6.91c.47-1.24 1.02-2.52 1.77-3.77.39-.61.88-1.22 1.57-1.6.69-.38 1.57-.44 2.31-.07.37.18.69.51.83.91.16.4.14.86-.02 1.26-.33.79-1.01 1.38-1.77 1.74-1.57.67-3.43.64-5.08-.03-1.66-.67-3.03-2.09-3.7-3.84-.32-.87-.53-1.83-.33-2.8.17-.96 1.03-1.86 2.1-1.83.53 0 1.03.33 1.29.78.27.44.37.98.29 1.49-.17 1.03-.85 1.84-1.55 2.53-1.45 1.37-3.49 2.21-5.56 2.01-2.06-.19-3.97-1.42-4.93-3.2-.5-.87-.68-1.96-.35-2.94.16-.48.5-.94 1-1.14.48-.22 1.05-.17 1.51.04.46.21.85.57 1.1 1 .25.43.39.9.46 1.38.13.95.06 1.9-.19 2.8-.48 1.8-1.64 3.37-3.17 4.3a7.396 7.396 0 01-4.99 1.02c-.82-.13-1.67-.4-2.27-1.02-.58-.61-.8-1.62-.29-2.33.25-.35.66-.55 1.06-.61.4-.05.81 0 1.18.15.75.31 1.23.95 1.6 1.57.7 1.28 1.27 2.53 1.85 3.72 2.26 4.78 3.9 8.73 5.01 11.47.55 1.37.96 2.44 1.24 3.17.13.36.23.63.31.83.07.19.1.29.1.29s-.05-.09-.12-.28c-.08-.2-.19-.47-.34-.82-.3-.73-.74-1.79-1.29-3.15-1.14-2.72-2.81-6.66-5.09-11.42-.58-1.18-1.17-2.45-1.85-3.7-.36-.6-.83-1.2-1.49-1.47-.64-.27-1.51-.21-1.94.38-.42.58-.24 1.48.27 2.01.53.56 1.32.82 2.12.94 1.6.25 3.35-.08 4.8-.99 1.46-.9 2.58-2.41 3.03-4.14.24-.86.3-1.79.18-2.69-.12-.88-.55-1.79-1.39-2.15-.4-.18-.87-.22-1.27-.04-.4.17-.69.54-.84.97-.29.87-.14 1.88.34 2.7.91 1.69 2.74 2.86 4.7 3.05 1.97.19 3.94-.62 5.33-1.93.68-.66 1.32-1.44 1.47-2.36.07-.44-.02-.91-.25-1.29s-.62-.63-1.05-.64c-.43-.01-.86.17-1.18.47-.33.29-.53.7-.62 1.13-.19.87 0 1.8.31 2.63.63 1.68 1.95 3.04 3.54 3.68 1.57.65 3.38.67 4.86.05.72-.34 1.36-.89 1.65-1.59.31-.7-.02-1.54-.69-1.85-.65-.33-1.47-.28-2.09.06-.64.35-1.11.92-1.49 1.51-.74 1.22-1.3 2.5-1.76 3.72-.94 2.46-1.45 4.8-1.8 6.87-.35 2.07-.54 3.86-.67 5.33-.12 1.46-.22 2.6-.28 3.39-.03.38-.06.67-.07.88-.06.2-.08.3-.08.3zM244.71 125.16l-18.31 1.18c-.76.05-1.41-.53-1.46-1.29-.05-.76.53-1.41 1.29-1.46l18.31-1.18c.76-.05 1.41.53 1.46 1.29.05.76-.53 1.41-1.29 1.46zM244.79 126.36l-18.31 1.18c-.76.05-1.33.7-1.29 1.46.05.76.7 1.33 1.46 1.29l2.01-.13 2.99 4.9c.34.56.97.89 1.62.84l6.54-.42c.66-.04 1.24-.45 1.51-1.06l2.26-5.23 1.37-.09c.76-.05 1.33-.7 1.29-1.46a1.36 1.36 0 00-1.45-1.28z" fill="#263238"/><path d="M216.69 79.18c1.54-1.62 3.18-2.79 4.66-3.55 1.48-.77 2.77-1.18 3.68-1.33.91-.16 1.44-.1 1.5.09.13.43-1.67 1.21-4.05 3.03-2.37 1.78-5.29 4.83-6.9 8.96-1.6 4.14-1.5 8.36-.95 11.27.53 2.95 1.34 4.73.94 4.96-.17.1-.6-.21-1.17-.94s-1.25-1.9-1.82-3.46c-.58-1.56-1-3.54-1.05-5.77-.05-2.23.32-4.71 1.25-7.14M232.45 75.06c-1.54.09-2.93-.25-3.14-1.05-.09-.4.16-.85.7-1.22.53-.37 1.34-.66 2.27-.71.92-.05 1.76.13 2.33.44.58.31.88.72.84 1.13" fill="#fff" opacity=".2"/><g><path d="M241.03 134.88c-.02.05-.49-.13-1.28-.31-.79-.17-1.91-.3-3.13-.19-1.23.12-2.3.45-3.04.77-.74.32-1.18.58-1.2.54-.02-.03.38-.36 1.12-.73.74-.37 1.84-.75 3.1-.87s2.42.05 3.21.28c.78.23 1.23.48 1.22.51z" fill="#455a64"/></g><g><path d="M243.65 129.26c.01.08-3.3.36-7.38.63-4.08.26-7.4.41-7.4.33-.01-.08 3.3-.36 7.38-.63s7.39-.41 7.4-.33z" fill="#455a64"/></g><g><path d="M242.64 131.51c0 .04-.68.16-1.79.3-1.11.14-2.65.31-4.36.44-1.71.13-3.25.21-4.37.25-1.12.03-1.81.02-1.82-.02 0-.04.69-.11 1.8-.2 1.21-.09 2.7-.21 4.36-.33 1.66-.13 3.15-.26 4.36-.35 1.12-.09 1.82-.14 1.82-.09z" fill="#455a64"/></g></g><g><path d="M110.8 253.98l3.98 6.37s16.96-15.61 33.79-11.2c-.01 0-15.13-12.82-37.77 4.83z" fill="#f5a046"/><path d="M148.56 249.15s12.45-13.52 30.71-10.44l4.98.75-1.59-2.88c0 .01-31.76-10.87-34.1 12.57z" fill="#f5a046"/><path d="M122.28 203.56s-24.94-4.29-41.3 4.56l25.97 48.9s21.26-20.49 41.6-7.87l-26.27-45.59z" fill="#f5f5f5"/><path d="M122.28 203.56s.05.06.13.2c.09.15.22.36.37.62.34.57.82 1.38 1.44 2.43 1.26 2.16 3.09 5.29 5.41 9.26 4.65 8.01 11.25 19.4 19.12 32.97.06.11.02.24-.08.3-.07.04-.16.04-.23 0-2.82-1.73-6.06-3.05-9.56-3.67a29.13 29.13 0 00-5.39-.37c-1.83.07-3.68.31-5.52.69-7.37 1.63-14.52 5.63-20.63 11.01l-.21.2c-.1.1-.26.09-.35-.01-.02-.02-.03-.04-.04-.06-9.65-18.2-18.59-35.07-25.93-48.92-.05-.1-.02-.22.08-.27h.01c5.72-2.96 11.52-4.24 16.62-4.92 5.12-.66 9.62-.68 13.3-.58 3.68.12 6.55.42 8.5.66.97.12 1.72.23 2.22.31.24.04.42.08.57.1.11.03.18.05.17.05 0 0-.07 0-.2-.02-.14-.02-.33-.04-.57-.07-.5-.06-1.25-.16-2.22-.25-1.95-.2-4.82-.46-8.49-.55-3.67-.07-8.16-.02-13.25.67-5.07.71-10.83 2.01-16.47 4.95l.08-.28c7.36 13.84 16.33 30.69 26.01 48.88l-.39-.06.22-.21c3.08-2.76 6.44-5.07 9.94-6.98 3.51-1.89 7.18-3.34 10.92-4.14 1.87-.39 3.75-.62 5.61-.7 1.86-.03 3.7.09 5.48.39 3.56.64 6.86 1.99 9.71 3.75l-.31.3c-7.79-13.59-14.32-24.98-18.91-33-2.28-4-4.08-7.16-5.31-9.34-.6-1.07-1.07-1.9-1.4-2.48-.15-.27-.27-.48-.35-.64-.06-.13-.1-.21-.1-.22z" fill="#263238"/><path d="M161.48 193.53s-18.86-12.02-38.88 10.03l26.28 45.59s5.36-18.5 36.74-12.07l-24.14-43.55z" fill="#f5f5f5"/><path d="M161.48 193.53s.05.06.13.19c.09.15.2.34.35.59.31.54.75 1.32 1.32 2.32 1.16 2.06 2.84 5.05 4.97 8.84 4.26 7.65 10.33 18.52 17.56 31.51.06.11.02.24-.08.3-.04.02-.09.03-.14.02h-.01c-1.53-.25-3.09-.51-4.67-.77-.79-.16-1.6-.2-2.41-.27-.81-.06-1.63-.13-2.46-.2-.83-.1-1.66-.08-2.5-.06l-2.54.03c-.85.02-1.7.17-2.56.25-.86.11-1.73.15-2.58.39-.85.19-1.71.39-2.58.58-.84.29-1.68.59-2.52.88-.85.29-1.62.76-2.45 1.13-.42.18-.8.42-1.18.67l-1.15.74c-.76.51-1.44 1.13-2.15 1.71-.63.67-1.34 1.27-1.89 2.02-1.18 1.42-2.19 3.06-2.8 4.8v.01a.248.248 0 01-.45.04c-.33-.58-.7-1.21-1.06-1.84-9.29-16.15-17.95-31.19-25.19-43.77-.05-.08-.03-.18.03-.25 4.44-4.85 9.35-8.54 14.24-10.7 4.88-2.21 9.63-2.76 13.43-2.52 3.82.24 6.71 1.17 8.59 1.92.94.38 1.64.74 2.1.99.22.13.38.22.51.3.09.11.15.15.14.15 0 0-.07-.03-.18-.09-.13-.07-.31-.16-.53-.27-.47-.23-1.17-.57-2.12-.93a27.88 27.88 0 00-8.56-1.8c-3.76-.21-8.46.37-13.28 2.59-4.82 2.16-9.67 5.85-14.06 10.67l.03-.24c7.25 12.56 15.94 27.6 25.25 43.73.36.63.72 1.26 1.06 1.84l-.45.05c.65-1.87 1.68-3.51 2.89-4.98.57-.77 1.29-1.39 1.94-2.07.73-.59 1.43-1.23 2.21-1.74l1.18-.75c.39-.26.78-.5 1.2-.69.84-.38 1.63-.85 2.5-1.15.86-.3 1.72-.6 2.57-.89.88-.2 1.75-.39 2.62-.59.86-.24 1.75-.28 2.61-.39.87-.08 1.73-.23 2.6-.25l2.57-.03c.85-.02 1.7-.03 2.53.07.83.07 1.66.14 2.48.2.82.07 1.64.11 2.43.28 1.59.27 3.16.53 4.7.79l-.24.32c-7.16-13-13.16-23.89-17.38-31.55-2.09-3.82-3.73-6.83-4.87-8.91-.55-1.02-.97-1.81-1.27-2.36-.14-.26-.24-.46-.32-.61-.08-.17-.11-.25-.11-.25z" fill="#263238"/><g><path d="M88.01 184.62l28.12 54.15s22.86-1 32.53 10.14l-26.06-45.34c0-.01-15.28-18.95-34.59-18.95z" fill="#f5f5f5"/><path d="M88.01 184.62s.23 0 .71.02c.51.02 1.23.05 2.17.09.24.01.5.02.76.04.26.04.53.09.82.14.58.1 1.2.2 1.88.31.69.08 1.39.31 2.15.51.75.23 1.59.38 2.41.71 6.72 2.24 15.74 7.66 23.84 16.99l.01.02v.01c7.42 12.88 16.4 28.48 26.1 45.32.07.12.03.27-.09.34-.1.06-.22.04-.3-.04l-.01-.01c-.35-.35-.73-.72-1.1-1.1-2.09-2.03-4.57-3.63-7.2-4.76a41.782 41.782 0 00-8.04-2.64c-5.44-1.22-10.86-1.68-15.99-1.58h-.01c-.09 0-.17-.05-.21-.13-8.2-15.9-15.2-29.48-20.17-39.11-2.45-4.77-4.39-8.56-5.74-11.18-.65-1.28-1.16-2.27-1.51-2.96-.16-.32-.29-.57-.38-.76-.06-.15-.1-.24-.1-.23.01 0 .06.09.15.27.1.19.24.45.42.78.37.7.9 1.7 1.58 2.99 1.38 2.62 3.37 6.41 5.88 11.19 5 9.56 12.05 23.04 20.31 38.82l-.22-.12c5.18-.11 10.62.34 16.11 1.57 2.75.59 5.48 1.49 8.14 2.66 2.67 1.15 5.2 2.77 7.34 4.85l1.13 1.13-.4.29c-9.67-16.86-18.63-32.47-26.03-45.37l.02.03c-3.96-4.65-8.28-8.3-12.31-11.14-4.07-2.8-7.95-4.75-11.29-5.88-.82-.34-1.64-.5-2.39-.73-.76-.21-1.46-.45-2.14-.54-.67-.12-1.29-.23-1.87-.34-.28-.05-.56-.1-.82-.15-.26-.03-.5-.04-.73-.06-1.7-.16-2.5-.22-2.88-.25z" fill="#263238"/></g></g><g><path d="M175.8 338.2l.6 1a6.9 6.9 0 002.84 2.62l1.05.52-1 .6a6.9 6.9 0 00-2.62 2.84l-.52 1.05-.6-1a6.9 6.9 0 00-2.84-2.62l-1.05-.52 1-.6a6.9 6.9 0 002.62-2.84l.52-1.05zM120.36 131.93l.6 1a6.9 6.9 0 002.84 2.62l1.05.52-1 .6a6.9 6.9 0 00-2.62 2.84l-.52 1.05-.6-1a6.9 6.9 0 00-2.84-2.62l-1.05-.52 1-.6a6.9 6.9 0 002.62-2.84l.52-1.05zM376.94 167.52l.6 1a6.9 6.9 0 002.84 2.62l1.05.52-1 .6a6.9 6.9 0 00-2.62 2.84l-.52 1.05-.6-1a6.9 6.9 0 00-2.84-2.62l-1.05-.52 1-.6a6.9 6.9 0 002.62-2.84l.52-1.05zM346.64 351.15l.6 1a6.9 6.9 0 002.84 2.62l1.05.52-1 .6a6.9 6.9 0 00-2.62 2.84l-.52 1.05-.6-1a6.9 6.9 0 00-2.84-2.62l-1.05-.52 1-.6a6.9 6.9 0 002.62-2.84l.52-1.05zM352.41 389.74l.29.12c.32.13.68.17 1.02.1l.31-.06-.12.29c-.13.32-.17.68-.1 1.02l.06.31-.29-.12a1.78 1.78 0 00-1.02-.1l-.31.06.12-.29c.13-.32.17-.68.1-1.02l-.06-.31zM369.86 128.81l.29.12c.32.13.68.17 1.02.1l.31-.06-.12.29c-.13.32-.17.68-.1 1.02l.06.31-.29-.12a1.78 1.78 0 00-1.02-.1l-.31.06.12-.29c.13-.32.17-.68.1-1.02l-.06-.31zM131.63 104.99l.29.12c.32.13.68.17 1.02.1l.31-.06-.12.29c-.13.32-.17.68-.1 1.02l.06.31-.29-.12a1.78 1.78 0 00-1.02-.1l-.31.06.12-.29c.13-.32.17-.68.1-1.02l-.06-.31zM161.03 308.16l.29.12c.32.13.68.17 1.02.1l.31-.06-.12.29c-.13.32-.17.68-.1 1.02l.06.31-.29-.12a1.78 1.78 0 00-1.02-.1l-.31.06.12-.29c.13-.32.17-.68.1-1.02l-.06-.31zM192.91 386.69s-.09.1-.27.29c-.2.2-.48.47-.83.83-.75.73-1.84 1.79-3.23 3.15-2.84 2.74-6.92 6.68-11.99 11.56l.05-.12c.57 12.55 1.34 29.6 2.21 48.57l.02.43-.36-.24c-1.37-.92-2.85-1.9-4.33-2.89-9.87-6.61-19.22-12.87-27.45-18.37l-.06-.04-.02-.06c-4.09-12.23-7.55-22.54-9.99-29.82-1.2-3.62-2.14-6.48-2.8-8.46-.31-.97-.56-1.72-.73-2.25-.08-.24-.13-.43-.18-.58-.04-.13-.06-.2-.05-.2.01 0 .03.06.08.19.05.14.12.33.21.57.18.52.45 1.27.78 2.23.68 1.97 1.66 4.82 2.9 8.43 2.47 7.27 5.98 17.56 10.14 29.77l-.08-.1c8.23 5.5 17.59 11.74 27.47 18.34 1.48.99 2.95 1.97 4.33 2.89l-.34.19c-.81-18.97-1.54-36.02-2.08-48.57v-.07l.05-.05c5.1-4.84 9.22-8.75 12.08-11.46 1.42-1.33 2.52-2.37 3.29-3.09.37-.34.65-.6.86-.79.21-.2.32-.28.32-.28z" fill="#f5a046"/><path fill="#f5a046" d="M180.13 445.25l-.09 2.84 2.29 1.67-2.72.79-.89 2.69-1.6-2.34-2.83-.01 1.74-2.24-.87-2.7 2.67.96zM147.07 426.04l.06 1.83 1.54 1-1.73.61-.47 1.78-1.12-1.45-1.83.1 1.03-1.52-.66-1.71 1.76.52zM132.83 385.11l1.38 1.78 2.25-.13-1.26 1.86.82 2.09-2.16-.62-1.74 1.43-.08-2.25-1.89-1.21 2.11-.77zM191.52 383.34l1.39 1.77 2.24-.13-1.26 1.86.82 2.1-2.16-.62-1.74 1.42-.07-2.25-1.9-1.21 2.12-.77zM176.12 400.48l.88 1.14 1.43-.09-.8 1.19.52 1.34-1.38-.4-1.11.91-.05-1.43-1.21-.78 1.35-.49z"/></g><g><circle cx="123.19" cy="304.91" r="19.94" fill="#f5a046"/><path d="M120.6 311.13c0 1.8-1.46 3.25-3.25 3.25s-3.25-1.46-3.25-3.25c0-1.8 1.46-3.25 3.25-3.25s3.25 1.46 3.25 3.25zM115.99 301.75c0 1.05-.85 1.89-1.89 1.89-1.05 0-1.89-.85-1.89-1.89 0-1.05.85-1.89 1.89-1.89s1.89.84 1.89 1.89z" fill="#fff" opacity=".3"/><path d="M103.84 309.76c.09.35-17.07 16.81-12.65 20.32 4.42 3.51 23.03-5.49 38.89-18.3s30.35-28.37 26.38-32.49c-3.97-4.12-23.79 8.07-23.79 8.07l2.37 1.51s11.98-7.69 15.78-4.7c3.79 2.98-7.02 14.64-22.27 25.77-15.25 11.13-29.99 18.95-32.28 15.9-2.29-3.05 8.51-13.22 8.51-13.22l-.94-2.86z" fill="#f5a046"/><g opacity=".3"><path d="M103.84 309.76c.09.35-17.07 16.81-12.65 20.32 4.42 3.51 23.03-5.49 38.89-18.3s30.35-28.37 26.38-32.49c-3.97-4.12-23.79 8.07-23.79 8.07l2.37 1.51s11.98-7.69 15.78-4.7c3.79 2.98-7.02 14.64-22.27 25.77-15.25 11.13-29.99 18.95-32.28 15.9-2.29-3.05 8.51-13.22 8.51-13.22l-.94-2.86z"/></g><g opacity=".3"><path d="M112.2 290.86c.16.19-1.19 1.34-2.72 3.64-1.53 2.27-3.13 5.86-3.22 10.02-.08 4.17 1.38 7.82 2.82 10.15 1.44 2.36 2.74 3.56 2.57 3.75-.1.14-1.7-.79-3.48-3.14-.88-1.17-1.76-2.7-2.42-4.54-.66-1.83-1.07-3.98-1.03-6.25.06-2.27.55-4.4 1.28-6.2.73-1.81 1.67-3.31 2.6-4.44 1.87-2.27 3.51-3.13 3.6-2.99z" fill="#fff"/></g><g><circle transform="rotate(-43.78 342.954 118.097)" cx="342.97" cy="118.1" fill="#f5a046" r="16.45"/><path d="M348.33 111.8a2.69 2.69 0 012.75-2.62 2.69 2.69 0 012.62 2.75 2.69 2.69 0 01-2.75 2.62 2.69 2.69 0 01-2.62-2.75zM353.69 118.06c.02-.86.74-1.54 1.6-1.52.86.02 1.54.74 1.52 1.6-.02.86-.74 1.54-1.6 1.52a1.57 1.57 0 01-1.52-1.6zM351.6 122.86c.32.01.57.27.56.59-.01.32-.27.57-.59.56a.572.572 0 01-.56-.59c.01-.32.27-.57.59-.56z" opacity=".4"/></g></g></svg>