<?xml version="1.0" encoding="utf-8"?>
<!-- Generator: Adobe Illustrator 25.0.1, SVG Export Plug-In . SVG Version: 6.00 Build 0)  -->
<svg version="1.1" xmlns="http://www.w3.org/2000/svg" xmlns:xlink="http://www.w3.org/1999/xlink" x="0px" y="0px"
	 viewBox="0 0 500 500" style="enable-background:new 0 0 500 500;" xml:space="preserve">
<g id="Background_Complete">
	<g>
		<g>
			<g>
				<g>
					<g>
						<g>
							<g>
								<polygon style="fill:#E0E0E0;" points="451.22,87.06 451.22,152.74 356.88,152.74 353.48,87.51 								"/>
							</g>
						</g>
					</g>
				</g>
			</g>
		</g>
		<g>
			<g>
				<g>
					<g>
						<g>
							<g>
								
									<rect x="368.11" y="72.89" transform="matrix(6.123234e-17 -1 1 6.123234e-17 280.5925 520.7128)" style="fill:#FFFFFF;" width="65.09" height="94.35"/>
							</g>
						</g>
					</g>
				</g>
			</g>
			<g>
				<g>
					<g>
						<g>
							<g>
								<path style="fill:#E0E0E0;" d="M448.27,153.05h-95.24V87.07h95.24V153.05z M353.93,152.16h93.45v-64.2h-93.45V152.16z"/>
							</g>
						</g>
					</g>
				</g>
			</g>
		</g>
		<g>
			<g>
				<g>
					<g>
						<g>
							<g>
								<g>
									<rect x="363.7" y="95.6" style="fill:#FFFFFF;" width="73.91" height="48.92"/>
								</g>
							</g>
						</g>
					</g>
				</g>
			</g>
			<g>
				<g>
					<g>
						<g>
							<g>
								<g>
									<g>
										<path style="fill:#E0E0E0;" d="M437.61,95.6c0,0-0.13,0.01-0.36,0.01c-0.25,0-0.6,0.01-1.05,0.01
											c-0.94,0.01-2.3,0.01-4.06,0.03c-3.55,0.01-8.71,0.03-15.23,0.06c-13.03,0.03-31.48,0.06-53.2,0.11l0.21-0.21
											c0.01,14.95,0.01,31.51,0.02,48.91v0.01l-0.23-0.23c27.88,0.02,53.59,0.03,73.91,0.05l-0.19,0.19
											c0.04-14.89,0.07-27.09,0.1-35.59c0.02-4.25,0.04-7.57,0.05-9.84c0.01-1.12,0.02-1.99,0.02-2.59
											C437.59,95.91,437.61,95.6,437.61,95.6s0.01,0.28,0.02,0.86c0,0.59,0.01,1.44,0.02,2.55c0.01,2.27,0.03,5.57,0.05,9.8
											c0.02,8.53,0.06,20.77,0.1,35.71l0,0.19l-0.19,0c-20.32,0.01-46.03,0.03-73.91,0.05l-0.23,0v-0.23v-0.01
											c0.01-17.41,0.01-33.96,0.02-48.91l0-0.21l0.21,0c21.78,0.04,40.28,0.08,53.34,0.11c6.5,0.02,11.64,0.04,15.18,0.06
											c1.74,0.01,3.09,0.02,4.02,0.03c0.44,0.01,0.78,0.01,1.03,0.01C437.5,95.59,437.61,95.6,437.61,95.6z"/>
									</g>
								</g>
							</g>
						</g>
					</g>
				</g>
			</g>
		</g>
		<g>
			<g>
				<g>
					<g>
						<g>
							<g>
								<g>
									<path style="fill:#E0E0E0;" d="M353.48,87.33c0.04-0.05,0.66,0.35,1.62,1.05c0.96,0.7,2.28,1.69,3.7,2.82
										c1.42,1.14,2.67,2.21,3.55,3.02c0.88,0.81,1.39,1.34,1.35,1.38c-0.09,0.1-2.36-1.77-5.19-4.03
										C355.67,89.31,353.4,87.44,353.48,87.33z"/>
								</g>
							</g>
						</g>
					</g>
				</g>
			</g>
		</g>
		<g>
			<g>
				<g>
					<g>
						<g>
							<g>
								<g>
									<path style="fill:#E0E0E0;" d="M447.83,87.51c0.08,0.1-2.14,1.99-4.96,4.23c-2.82,2.23-5.17,3.96-5.25,3.86
										c-0.08-0.1,2.14-1.99,4.96-4.23C445.39,89.14,447.75,87.41,447.83,87.51z"/>
								</g>
							</g>
						</g>
					</g>
				</g>
			</g>
		</g>
		<g>
			<g>
				<g>
					<g>
						<g>
							<g>
								<g>
									<path style="fill:#FFFFFF;" d="M447.75,152.61c-3.51-2.84-7.01-5.68-10.52-8.53"/>
								</g>
							</g>
						</g>
					</g>
				</g>
			</g>
			<g>
				<g>
					<g>
						<g>
							<g>
								<g>
									<g>
										<path style="fill:#E0E0E0;" d="M437.23,144.09c0.08-0.1,2.5,1.73,5.41,4.08c2.91,2.35,5.19,4.34,5.11,4.44
											c-0.08,0.1-2.5-1.73-5.41-4.08C439.44,146.18,437.15,144.19,437.23,144.09z"/>
									</g>
								</g>
							</g>
						</g>
					</g>
				</g>
			</g>
		</g>
		<g>
			<g>
				<g>
					<g>
						<g>
							<g>
								<g>
									<path style="fill:#E0E0E0;" d="M353.48,152.61c-0.08-0.1,2.12-1.97,4.91-4.18c2.79-2.21,5.12-3.92,5.2-3.82
										c0.08,0.1-2.12,1.97-4.91,4.18C355.89,151,353.56,152.71,353.48,152.61z"/>
								</g>
							</g>
						</g>
					</g>
				</g>
			</g>
		</g>
		<g>
			<g>
				<g>
					<g>
						<g>
							<g>
								
									<rect x="393.77" y="95.78" transform="matrix(6.123234e-17 -1 1 6.123234e-17 282.9253 520.9889)" style="fill:#E0E0E0;" width="16.38" height="46.5"/>
							</g>
						</g>
					</g>
				</g>
			</g>
		</g>
	</g>
	<g>
		<g>
			<g>
				<g>
					<path style="fill:#E0E0E0;" d="M190.41,50.24c0,0.01-0.08-0.02-0.23-0.07c-0.18-0.07-0.4-0.16-0.66-0.26
						c-0.62-0.26-1.46-0.61-2.52-1.05c-2.23-0.95-5.37-2.3-9.24-3.96c-7.82-3.41-18.55-8.08-30.41-13.25
						c-0.36-0.16-0.72-0.32-1.05-0.46l0.22,0c-11.65,4.98-22.15,9.47-29.79,12.74c-3.78,1.59-6.84,2.87-9.02,3.79
						c-1.03,0.42-1.85,0.76-2.46,1c-0.56,0.22-0.86,0.33-0.87,0.32c-0.01-0.02,0.28-0.16,0.83-0.42c0.6-0.27,1.4-0.64,2.42-1.1
						c2.16-0.95,5.2-2.29,8.95-3.95c7.62-3.31,18.1-7.85,29.73-12.89l0.11-0.05l0.11,0.05c0.33,0.15,0.69,0.3,1.05,0.46
						c11.83,5.22,22.54,9.95,30.34,13.39c3.84,1.72,6.96,3.12,9.17,4.12c1.04,0.48,1.87,0.86,2.48,1.15
						c0.26,0.12,0.47,0.23,0.64,0.31C190.34,50.19,190.41,50.24,190.41,50.24z"/>
				</g>
			</g>
		</g>
		<g>
			<g>
				<rect x="42.55" y="45.88" style="fill:#E0E0E0;" width="195.29" height="146.23"/>
			</g>
		</g>
		<g>
			<g>
				<rect x="49.38" y="52.68" style="fill:#FAFAFA;" width="182.37" height="133.42"/>
			</g>
		</g>
		<g>
			<g>
				<g>
					<path style="fill:#E0E0E0;" d="M89.66,110.97c0,0,0.19,22.4,1.33,29.23l28.09-1.33c0,0-2.47-22.02-1.52-27.9H89.66z"/>
				</g>
			</g>
			<g>
				<g>
					<g>
						<g>
							<g>
								<path style="fill:#FFFFFF;" d="M103.49,114.14c0,0,0.03-0.01,0.1-0.01c0.08,0,0.18-0.01,0.3-0.01
									c0.27-0.02,0.66,0,1.17,0.06c0.5,0.08,1.12,0.22,1.79,0.53c0.66,0.31,1.35,0.83,1.94,1.54c0.58,0.72,1.1,1.62,1.35,2.71
									c0.23,1.08,0.11,2.3-0.29,3.47c-0.2,0.59-0.47,1.17-0.79,1.73c-0.32,0.57-0.63,1.13-0.9,1.75
									c-0.53,1.23-0.95,2.58-1.14,3.99l-0.01,0.09l-0.09,0c-0.89,0.01-1.82,0.03-2.77,0.04c-1,0.02-1.98,0.03-2.91,0.05l-0.1,0
									l0-0.1c-0.05-1.41-0.68-2.7-1.35-3.84c-0.34-0.58-0.71-1.11-1.05-1.66c-0.34-0.54-0.72-1.05-0.99-1.61
									c-0.55-1.12-0.65-2.36-0.44-3.42c0.2-1.07,0.56-2.04,1.08-2.8c0.53-0.76,1.2-1.29,1.83-1.65c0.64-0.35,1.23-0.55,1.73-0.67
									c0.49-0.12,0.88-0.17,1.15-0.19c0.13-0.01,0.23-0.01,0.3-0.01C103.46,114.13,103.49,114.13,103.49,114.14
									c0,0-0.03,0.01-0.1,0.01c-0.08,0.01-0.18,0.02-0.3,0.03c-0.26,0.03-0.65,0.09-1.13,0.22c-0.48,0.13-1.07,0.33-1.69,0.69
									c-0.62,0.36-1.26,0.88-1.77,1.63c-0.5,0.74-0.85,1.7-1.04,2.75c-0.2,1.04-0.1,2.23,0.44,3.31c0.26,0.54,0.64,1.04,0.98,1.59
									c0.34,0.54,0.72,1.08,1.06,1.66c0.68,1.15,1.33,2.46,1.39,3.94l-0.11-0.1c0.93-0.02,1.91-0.03,2.91-0.05
									c0.95-0.01,1.89-0.03,2.77-0.04l-0.1,0.09c0.19-1.45,0.62-2.8,1.16-4.05c0.27-0.62,0.6-1.21,0.91-1.77
									c0.32-0.56,0.58-1.12,0.78-1.7c0.41-1.15,0.53-2.33,0.31-3.38c-0.23-1.04-0.74-1.94-1.29-2.65
									c-0.58-0.7-1.24-1.21-1.88-1.53c-0.65-0.32-1.25-0.46-1.75-0.55c-0.5-0.07-0.89-0.1-1.16-0.09c-0.12,0-0.22-0.01-0.3-0.01
									C103.53,114.14,103.49,114.14,103.49,114.14z"/>
							</g>
						</g>
					</g>
					<g>
						<g>
							<g>
								<path style="fill:#FFFFFF;" d="M104.94,129.74c0,0-0.01-0.03-0.02-0.09c-0.01-0.06-0.02-0.15-0.04-0.26
									c-0.04-0.23-0.09-0.57-0.15-1c-0.13-0.87-0.31-2.13-0.44-3.71c-0.03-0.39-0.06-0.81-0.07-1.24
									c-0.01-0.43-0.03-0.88-0.01-1.34c0.03-0.46,0.1-0.95,0.32-1.41c0.21-0.45,0.57-0.87,1.07-1.07c0.49-0.21,1.12-0.1,1.53,0.29
									c0.2,0.2,0.33,0.48,0.33,0.77c0,0.29-0.11,0.57-0.29,0.8c-0.17,0.24-0.41,0.42-0.68,0.55c-0.26,0.13-0.55,0.21-0.83,0.28
									c-0.58,0.12-1.17,0.19-1.77,0.21c-0.6,0.01-1.2,0-1.78-0.09c-0.29-0.05-0.58-0.12-0.85-0.24c-0.27-0.12-0.51-0.29-0.71-0.5
									c-0.2-0.21-0.35-0.47-0.41-0.75c-0.07-0.28-0.02-0.58,0.1-0.83c0.12-0.25,0.33-0.47,0.59-0.57c0.26-0.11,0.56-0.08,0.8,0.04
									c0.24,0.11,0.45,0.3,0.6,0.51c0.15,0.21,0.24,0.46,0.3,0.7c0.12,0.49,0.11,0.97,0.14,1.43c0.05,0.92,0.09,1.79,0.13,2.57
									c0.08,1.57,0.14,2.84,0.19,3.73c0.02,0.44,0.04,0.78,0.05,1.01c0,0.11,0.01,0.2,0.01,0.26c0,0.06,0,0.09,0,0.09
									s0-0.03-0.01-0.09c0-0.06-0.01-0.15-0.02-0.26c-0.01-0.24-0.04-0.58-0.06-1.01c-0.05-0.88-0.12-2.15-0.22-3.72
									c-0.04-0.79-0.09-1.65-0.14-2.57c-0.03-0.46-0.03-0.94-0.14-1.42c-0.06-0.24-0.15-0.47-0.29-0.67
									c-0.14-0.2-0.34-0.37-0.57-0.48c-0.23-0.11-0.5-0.13-0.74-0.03c-0.24,0.09-0.43,0.29-0.54,0.53
									c-0.11,0.24-0.15,0.51-0.09,0.78c0.06,0.26,0.2,0.51,0.39,0.71c0.38,0.41,0.94,0.63,1.5,0.72c0.57,0.09,1.17,0.1,1.77,0.08
									c0.6-0.02,1.19-0.08,1.76-0.2c0.28-0.06,0.56-0.14,0.81-0.27c0.25-0.12,0.48-0.3,0.65-0.52c0.17-0.22,0.27-0.49,0.27-0.75
									c0.01-0.27-0.12-0.52-0.3-0.71c-0.38-0.37-0.97-0.48-1.44-0.28c-0.47,0.19-0.82,0.6-1.03,1.03
									c-0.21,0.44-0.29,0.92-0.31,1.38c-0.03,0.46-0.01,0.91,0,1.34c0.01,0.43,0.04,0.84,0.07,1.23c0.12,1.57,0.3,2.83,0.41,3.71
									c0.06,0.43,0.11,0.77,0.14,1.01c0.01,0.11,0.03,0.2,0.03,0.26C104.93,129.71,104.94,129.74,104.94,129.74z"/>
							</g>
						</g>
					</g>
					<g>
						<g>
							<g>
								<path style="fill:#FFFFFF;" d="M101.24,129.89c0.01,0.01,0.04,0.35,0.07,0.93c0.03,0.68,0.08,1.49,0.13,2.43l-0.02-0.06
									c0.56,0.65,1.2,1.39,1.89,2.18l-0.1-0.04c0.69-0.04,1.42-0.08,2.19-0.12l-0.09,0.05c0.35-0.43,0.72-0.87,1.09-1.33
									c0.18-0.22,0.37-0.45,0.55-0.66l-0.03,0.09c-0.03-1.28-0.06-2.49-0.08-3.6l0.12,0.11c-1.59,0.02-2.97,0.03-4.08,0.05
									c-0.44,0-0.83,0-1.18,0C101.4,129.9,101.25,129.9,101.24,129.89c-0.01-0.01,0.13-0.02,0.39-0.04
									c0.34-0.02,0.72-0.04,1.15-0.06c1.13-0.04,2.54-0.1,4.16-0.16l0.12,0l0,0.12c0.03,1.11,0.07,2.32,0.11,3.6l0,0.05
									l-0.03,0.04c-0.18,0.22-0.36,0.44-0.55,0.67c-0.37,0.45-0.74,0.9-1.09,1.33l-0.04,0.04l-0.06,0
									c-0.76,0.04-1.5,0.07-2.19,0.11l-0.06,0l-0.04-0.04c-0.68-0.8-1.3-1.55-1.86-2.21l-0.02-0.03l0-0.03
									c-0.01-0.97-0.02-1.8-0.02-2.5C101.22,130.18,101.22,129.87,101.24,129.89z"/>
							</g>
						</g>
					</g>
					<g>
						<g>
							<g>
								<path style="fill:#FFFFFF;" d="M106.88,133.05c0,0.01-0.08-0.03-0.21-0.09c-0.13-0.06-0.32-0.14-0.57-0.22
									c-0.48-0.17-1.19-0.33-1.97-0.3c-0.79,0.02-1.48,0.22-1.95,0.42c-0.24,0.1-0.43,0.19-0.55,0.26c-0.13,0.07-0.2,0.11-0.2,0.1
									c0,0,0.06-0.05,0.18-0.13c0.12-0.08,0.31-0.18,0.55-0.29c0.47-0.21,1.18-0.43,1.97-0.45c0.8-0.02,1.51,0.14,2,0.33
									c0.24,0.09,0.43,0.18,0.56,0.25C106.82,133,106.88,133.05,106.88,133.05z"/>
							</g>
						</g>
					</g>
					<g>
						<g>
							<g>
								<path style="fill:#FFFFFF;" d="M106.88,132.18c0,0.01-0.08-0.03-0.21-0.09s-0.32-0.14-0.57-0.22
									c-0.48-0.17-1.19-0.32-1.97-0.3c-0.79,0.02-1.48,0.22-1.95,0.42c-0.24,0.1-0.43,0.19-0.55,0.26c-0.13,0.07-0.2,0.11-0.2,0.1
									c0,0,0.06-0.05,0.18-0.13c0.12-0.08,0.31-0.18,0.55-0.29c0.47-0.21,1.18-0.43,1.97-0.45c0.8-0.02,1.51,0.14,2,0.33
									c0.24,0.09,0.43,0.18,0.56,0.25C106.81,132.13,106.88,132.17,106.88,132.18z"/>
							</g>
						</g>
					</g>
					<g>
						<g>
							<g>
								<path style="fill:#FFFFFF;" d="M106.83,131.34c0,0.01-0.08-0.03-0.21-0.09c-0.13-0.06-0.32-0.14-0.57-0.22
									c-0.48-0.17-1.19-0.33-1.97-0.3c-0.79,0.02-1.48,0.22-1.95,0.42c-0.24,0.1-0.43,0.19-0.55,0.26c-0.13,0.07-0.2,0.11-0.2,0.1
									c0,0,0.06-0.05,0.18-0.13c0.12-0.08,0.31-0.18,0.55-0.29c0.47-0.21,1.18-0.43,1.97-0.45c0.8-0.02,1.51,0.14,2,0.33
									c0.24,0.09,0.43,0.18,0.56,0.25C106.76,131.3,106.83,131.34,106.83,131.34z"/>
							</g>
						</g>
					</g>
				</g>
			</g>
		</g>
		<g>
			<g>
				<g>
					<g>
						<path style="fill:#EBEBEB;" d="M58.37,74.35c0,0,0.19,22.4,1.33,29.23l28.09-1.33c0,0-2.47-22.02-1.52-27.9H58.37z"/>
					</g>
				</g>
				<g>
					<g>
						<g>
							<path style="fill:#FFFFFF;" d="M82.04,83.76c0.01,0.15-4.2,0.53-9.41,0.84c-5.21,0.31-9.43,0.44-9.44,0.29
								c-0.01-0.15,4.2-0.53,9.41-0.84C77.8,83.74,82.03,83.61,82.04,83.76z"/>
						</g>
					</g>
				</g>
				<g>
					<g>
						<g>
							<path style="fill:#FFFFFF;" d="M82.05,88.51c0.01,0.15-4.2,0.53-9.41,0.84c-5.21,0.31-9.43,0.44-9.44,0.29
								c-0.01-0.15,4.2-0.53,9.41-0.84C77.81,88.49,82.04,88.35,82.05,88.51z"/>
						</g>
					</g>
				</g>
				<g>
					<g>
						<g>
							<path style="fill:#FFFFFF;" d="M77.27,93.16c0.01,0.15-2.39,0.42-5.35,0.6c-2.97,0.18-5.38,0.2-5.39,0.05
								c-0.01-0.15,2.39-0.42,5.35-0.6C74.85,93.03,77.26,93.01,77.27,93.16z"/>
						</g>
					</g>
				</g>
			</g>
		</g>
		<g>
			<g>
				<g>
					<g>
						<path style="fill:#EBEBEB;" d="M57.04,140.25c0,0,0.19,22.4,1.33,29.23l28.09-1.33c0,0-2.47-22.02-1.52-27.9H57.04z"/>
					</g>
				</g>
				<g>
					<g>
						<g>
							<path style="fill:#FFFFFF;" d="M80.71,149.66c0.01,0.15-4.2,0.53-9.41,0.84c-5.21,0.31-9.43,0.44-9.44,0.29
								c-0.01-0.15,4.2-0.53,9.41-0.84C76.47,149.63,80.7,149.5,80.71,149.66z"/>
						</g>
					</g>
				</g>
				<g>
					<g>
						<g>
							<path style="fill:#FFFFFF;" d="M80.72,154.4c0.01,0.15-4.2,0.53-9.41,0.84c-5.21,0.31-9.43,0.44-9.44,0.29
								c-0.01-0.15,4.2-0.53,9.41-0.84C76.48,154.38,80.71,154.25,80.72,154.4z"/>
						</g>
					</g>
				</g>
				<g>
					<g>
						<g>
							<path style="fill:#FFFFFF;" d="M75.94,159.06c0.01,0.15-2.39,0.42-5.35,0.6c-2.97,0.18-5.38,0.2-5.39,0.05
								c-0.01-0.15,2.39-0.42,5.35-0.6C73.52,158.93,75.93,158.91,75.94,159.06z"/>
						</g>
					</g>
				</g>
			</g>
		</g>
		<g>
			<g>
				<g>
					<polygon style="fill:#EBEBEB;" points="133.81,80.29 136.59,144.89 217.24,145.86 213.62,81.14 					"/>
				</g>
			</g>
			<g>
				<g>
					<g>
						<g>
							<rect x="132.88" y="79.83" style="fill:#F5F5F5;" width="80.11" height="60.49"/>
						</g>
					</g>
					<g>
						<g>
							<g>
								<path style="fill:#E0E0E0;" d="M212.98,140.32c0,0-0.02-0.39-0.02-1.12c-0.01-0.75-0.01-1.83-0.03-3.23
									c-0.01-2.84-0.03-6.97-0.06-12.24c-0.03-10.55-0.07-25.64-0.12-43.9l0.23,0.23c-22.65,0.01-50.29,0.03-80.1,0.05h-0.01
									l0.28-0.28c-0.01,21.75-0.02,42.35-0.03,60.49l-0.25-0.25c23.7,0.05,43.7,0.09,57.78,0.12c7.04,0.03,12.61,0.05,16.43,0.07
									c1.9,0.01,3.36,0.02,4.37,0.03c0.49,0.01,0.86,0.01,1.13,0.01C212.85,140.31,212.98,140.32,212.98,140.32
									s-0.12,0.01-0.36,0.01c-0.26,0-0.63,0.01-1.1,0.01c-1,0.01-2.44,0.02-4.32,0.03c-3.81,0.02-9.36,0.04-16.38,0.07
									c-14.13,0.03-34.18,0.07-57.94,0.12l-0.25,0l0-0.25c-0.01-18.14-0.02-38.73-0.03-60.49l0-0.28h0.28h0.01
									c29.81,0.02,57.45,0.04,80.1,0.05l0.23,0l0,0.23c-0.05,18.32-0.09,33.46-0.12,44.04c-0.02,5.25-0.04,9.36-0.06,12.19
									c-0.01,1.38-0.02,2.45-0.03,3.18C213,139.96,212.98,140.32,212.98,140.32z"/>
							</g>
						</g>
					</g>
				</g>
				<g>
					<g>
						<g>
							<rect x="142.54" y="92.64" style="fill:#F5F5F5;" width="32.47" height="40.87"/>
						</g>
					</g>
					<g>
						<g>
							<g>
								<path style="fill:#E0E0E0;" d="M175.01,133.51c0,0-0.01-0.07-0.01-0.21c0-0.15-0.01-0.34-0.01-0.58
									c-0.01-0.54-0.02-1.28-0.03-2.23c-0.02-1.97-0.04-4.81-0.07-8.38c-0.03-7.19-0.07-17.37-0.12-29.46l0.25,0.25
									c-9.68,0.01-20.75,0.02-32.47,0.03c-0.07,0.06,0.52-0.52,0.27-0.27v0.01v0.02v0.04v0.09v0.18v0.35l0,0.71l0,1.41
									c0,0.94,0,1.87,0,2.8c0,1.86,0,3.69,0,5.51c0,3.63-0.01,7.17-0.01,10.6c-0.01,6.86-0.02,13.3-0.03,19.14l-0.23-0.23
									c9.74,0.05,17.83,0.09,23.51,0.12c2.82,0.03,5.04,0.05,6.6,0.06c0.74,0.01,1.32,0.02,1.75,0.03
									C174.8,133.49,175.01,133.51,175.01,133.51c0.01,0.01-0.18,0.02-0.57,0.03c-0.42,0.01-0.98,0.02-1.71,0.03
									c-1.54,0.01-3.75,0.03-6.55,0.06c-5.72,0.03-13.85,0.07-23.66,0.12l-0.23,0l0-0.23c-0.01-5.84-0.02-12.27-0.03-19.14
									c0-3.43-0.01-6.98-0.01-10.6c0-1.81,0-3.65,0-5.51c0-0.93,0-1.86,0-2.8l0-1.41l0-0.71v-0.35v-0.18v-0.09v-0.04v-0.02v-0.01
									c-0.25,0.24,0.33-0.34,0.28-0.28c11.72,0.01,22.79,0.02,32.47,0.03l0.25,0l0,0.25c-0.05,12.15-0.09,22.39-0.12,29.62
									c-0.03,3.55-0.05,6.37-0.07,8.33c-0.01,0.93-0.02,1.66-0.03,2.19c-0.01,0.23-0.01,0.41-0.01,0.55
									C175.02,133.46,175.02,133.52,175.01,133.51z"/>
							</g>
						</g>
					</g>
				</g>
				<g>
					<g>
						<g>
							<rect x="143.78" y="83.29" style="fill:#F5F5F5;" width="62.23" height="5.89"/>
						</g>
					</g>
					<g>
						<g>
							<g>
								<path style="fill:#E0E0E0;" d="M206.02,89.18c-0.01-0.01-0.01-0.14-0.02-0.4c-0.01-0.29-0.02-0.66-0.03-1.14
									c-0.01-1.02-0.04-2.48-0.06-4.34l0.11,0.11c-10.5,0.1-34.42,0.16-62.23,0.16h0c0.55-0.55,0.15-0.15,0.28-0.27v0v0.01v0.01
									v0.02v0.05v0.09v0.19v0.38l0,0.75c0,0.5,0,1,0,1.49c0,0.99,0,1.95,0,2.89l-0.27-0.27c17.4,0.05,32.91,0.09,44.11,0.12
									c5.58,0.03,10.09,0.06,13.24,0.08c1.54,0.02,2.74,0.03,3.6,0.04c0.39,0.01,0.7,0.01,0.94,0.02
									C205.9,89.17,206.01,89.17,206.02,89.18c0.01,0.01-0.09,0.01-0.3,0.02c-0.23,0-0.53,0.01-0.91,0.02
									c-0.84,0.01-2.03,0.02-3.54,0.04c-3.13,0.02-7.62,0.05-13.18,0.08c-11.25,0.03-26.83,0.07-44.31,0.12l-0.27,0l0-0.28
									c0-0.94,0-1.91,0-2.89c0-0.49,0-0.99,0-1.49l0-0.75v-0.38v-0.19v-0.09v-0.05v-0.02V83.3v-0.01v0
									c0.12-0.12-0.28,0.27,0.28-0.28h0c27.81,0,51.74,0.07,62.23,0.16l0.11,0l0,0.11c-0.03,1.89-0.05,3.37-0.06,4.41
									c-0.01,0.47-0.02,0.84-0.03,1.12C206.03,89.06,206.02,89.19,206.02,89.18z"/>
							</g>
						</g>
					</g>
				</g>
				<g>
					<g>
						<g>
							<rect x="178.99" y="92.64" style="fill:#F5F5F5;" width="27.03" height="24.63"/>
						</g>
					</g>
					<g>
						<g>
							<g>
								<path style="fill:#E0E0E0;" d="M206.02,117.27c-0.01-0.01-0.02-0.17-0.03-0.48c-0.01-0.34-0.02-0.78-0.03-1.34
									c-0.01-1.2-0.04-2.89-0.06-5.02c-0.03-4.33-0.07-10.45-0.12-17.8l0.23,0.23c-7.81,0.01-17.09,0.03-27.03,0.04
									c-0.06,0.06,0.52-0.52,0.27-0.27v0.01v0.01v0.03v0.05v0.11v0.21v0.42l0,0.84c0,0.56,0,1.11,0,1.66c0,1.1,0,2.2,0,3.28
									c0,2.17,0,4.29-0.01,6.35c-0.01,4.13-0.02,8.05-0.02,11.66l-0.24-0.24c8.02,0.05,14.73,0.09,19.5,0.12
									c2.34,0.03,4.21,0.05,5.53,0.06c0.61,0.01,1.1,0.02,1.48,0.03C205.83,117.26,206.01,117.26,206.02,117.27
									c0.01,0.01-0.15,0.02-0.47,0.03c-0.36,0.01-0.83,0.02-1.43,0.03c-1.31,0.02-3.15,0.04-5.48,0.06
									c-4.8,0.03-11.57,0.07-19.65,0.12l-0.24,0l0-0.24c-0.01-3.61-0.02-7.53-0.02-11.66c0-2.07,0-4.19-0.01-6.35
									c0-1.08,0-2.18,0-3.28c0-0.55,0-1.11,0-1.66l0-0.84v-0.42v-0.21v-0.11v-0.05v-0.03v-0.01v-0.01
									c-0.25,0.24,0.33-0.34,0.28-0.28c9.94,0.01,19.22,0.03,27.03,0.04l0.24,0l0,0.23c-0.05,7.41-0.09,13.58-0.12,17.95
									c-0.03,2.11-0.05,3.78-0.06,4.97c-0.01,0.54-0.02,0.96-0.03,1.29C206.04,117.14,206.03,117.28,206.02,117.27z"/>
							</g>
						</g>
					</g>
				</g>
				<g>
					<g>
						<g>
							<rect x="178.99" y="121.13" style="fill:#F5F5F5;" width="27.03" height="12.38"/>
						</g>
					</g>
					<g>
						<g>
							<g>
								<path style="fill:#E0E0E0;" d="M206.02,133.51c-0.01-0.01-0.03-0.32-0.04-0.9c-0.01-0.62-0.03-1.45-0.05-2.49
									c-0.03-2.18-0.06-5.24-0.11-8.99l0.2,0.2c-7.05,0.02-16.56,0.05-27.03,0.08c-0.25,0.25,0.33-0.34,0.27-0.27v0v0.01v0.01
									v0.03v0.05v0.1v0.2l0,0.41l0,0.81c0,0.54,0,1.07,0,1.61c0,1.06,0,2.12,0,3.15c0,2.07-0.01,4.08-0.01,6l-0.26-0.26
									c7.8,0.05,14.5,0.09,19.33,0.12c2.36,0.03,4.26,0.05,5.63,0.07c0.62,0.01,1.13,0.02,1.52,0.03
									C205.82,133.49,206.01,133.5,206.02,133.51c0.01,0.01-0.16,0.02-0.48,0.03c-0.38,0.01-0.87,0.02-1.47,0.03
									c-1.36,0.02-3.24,0.04-5.57,0.07c-4.87,0.03-11.64,0.07-19.5,0.12l-0.26,0l0-0.26c0-1.92-0.01-3.93-0.01-6
									c0-1.04,0-2.09,0-3.15c0-0.53,0-1.07,0-1.61l0-0.81l0-0.41v-0.2v-0.1v-0.05v-0.03v-0.01v-0.01v0
									c-0.06,0.06,0.52-0.52,0.28-0.28c10.47,0.03,19.98,0.06,27.03,0.08l0.2,0l0,0.2c-0.04,3.8-0.08,6.9-0.11,9.12
									c-0.02,1.02-0.04,1.83-0.05,2.44C206.05,133.24,206.03,133.52,206.02,133.51z"/>
							</g>
						</g>
					</g>
				</g>
				<g>
					<g>
						<g>
							<path style="fill:#FFFFFF;" d="M174.21,92.71c-10.05,13.89-21.62,26.91-31.67,40.8"/>
						</g>
					</g>
					<g>
						<g>
							<g>
								<path style="fill:#E0E0E0;" d="M142.54,133.51c-0.02-0.01,0.08-0.17,0.27-0.46c0.23-0.34,0.51-0.75,0.85-1.24
									c0.74-1.08,1.85-2.61,3.25-4.48c2.79-3.75,6.78-8.83,11.25-14.39c4.47-5.56,8.51-10.59,11.38-14.28
									c1.39-1.8,2.54-3.27,3.39-4.37c0.37-0.47,0.68-0.86,0.93-1.18c0.22-0.27,0.34-0.4,0.36-0.39c0.02,0.01-0.08,0.17-0.27,0.46
									c-0.23,0.34-0.51,0.75-0.85,1.24c-0.74,1.08-1.85,2.61-3.25,4.48c-2.79,3.75-6.78,8.83-11.26,14.39
									c-4.47,5.55-8.51,10.59-11.37,14.28c-1.39,1.8-2.54,3.27-3.39,4.37c-0.37,0.47-0.68,0.86-0.93,1.18
									C142.68,133.39,142.56,133.52,142.54,133.51z"/>
							</g>
						</g>
					</g>
				</g>
				<g>
					<g>
						<g>
							<line style="fill:#FFFFFF;" x1="142.54" y1="92.64" x2="175.01" y2="133.51"/>
						</g>
					</g>
					<g>
						<g>
							<g>
								<path style="fill:#E0E0E0;" d="M175.01,133.51c-0.12,0.09-7.49-8.98-16.45-20.26c-8.97-11.29-16.14-20.51-16.02-20.61
									c0.12-0.09,7.48,8.98,16.45,20.26C167.96,124.19,175.13,133.42,175.01,133.51z"/>
							</g>
						</g>
					</g>
				</g>
			</g>
			<g>
				<g>
					<path style="fill:#E0E0E0;" d="M136.59,92.73c0,2.81-2.27,5.08-5.08,5.08c-2.81,0-5.08-2.27-5.08-5.08
						c0-2.81,2.27-5.08,5.08-5.08C134.32,87.65,136.59,89.92,136.59,92.73z"/>
				</g>
			</g>
			<g>
				<g>
					<path style="fill:#E0E0E0;" d="M219.68,80.4c0,2.81-2.27,5.08-5.08,5.08c-2.81,0-5.08-2.27-5.08-5.08
						c0-2.81,2.27-5.08,5.08-5.08C217.41,75.32,219.68,77.59,219.68,80.4z"/>
				</g>
			</g>
		</g>
	</g>
	<g>
		<g>
			<g>
				<g>
					<g>
						<path style="fill:#F5F5F5;" d="M367.1,432.66c0,0.41,0,22.77,0,22.77h-3.8v2.47h3.8v15.24h71.07v-13.87h-5.26v-3.02h5.26
							v-4.53h2.34v-2.06h-2.78v-17.01H367.1z"/>
					</g>
				</g>
			</g>
			<g>
				<g>
					<g>
						<polygon style="fill:#E0E0E0;" points="419.3,432.73 419.3,472.89 438.17,472.89 438.17,459.03 432.91,459.03 432.91,456.26 
							438.17,456.35 438.17,451.82 440.56,451.82 440.51,449.48 437.73,449.41 437.73,432.66 						"/>
					</g>
				</g>
			</g>
			<g>
				<g>
					<g>
						<g>
							<path style="fill:#E0E0E0;" d="M420.64,457.58c0,0.14-12.86,0.25-28.72,0.25c-15.87,0-28.72-0.11-28.72-0.25
								c0-0.14,12.86-0.25,28.72-0.25C407.78,457.33,420.64,457.44,420.64,457.58z"/>
						</g>
					</g>
				</g>
			</g>
			<g>
				<g>
					<g>
						<g>
							<path style="fill:#E0E0E0;" d="M420.64,455.27c0,0.14-12.86,0.25-28.72,0.25c-15.87,0-28.72-0.11-28.72-0.25
								c0-0.14,12.86-0.25,28.72-0.25C407.78,455.01,420.64,455.13,420.64,455.27z"/>
						</g>
					</g>
				</g>
			</g>
			<g>
				<g>
					<g>
						<g>
							<path style="fill:#E0E0E0;" d="M424.33,449.04c0,0.14-12.86,0.25-28.72,0.25c-15.87,0-28.72-0.11-28.72-0.25
								c0-0.14,12.86-0.25,28.72-0.25C411.47,448.79,424.33,448.9,424.33,449.04z"/>
						</g>
					</g>
				</g>
			</g>
			<g>
				<g>
					<g>
						<g>
							<path style="fill:#E0E0E0;" d="M424.69,466c0,0.14-12.86,0.25-28.72,0.25c-15.87,0-28.72-0.11-28.72-0.25
								c0-0.14,12.86-0.25,28.72-0.25C411.83,465.75,424.69,465.87,424.69,466z"/>
						</g>
					</g>
				</g>
			</g>
		</g>
	</g>
	<g>
		<g>
			<g>
				<g>
					<g>
						<path style="fill:#EBEBEB;" d="M152.52,360.41h54.22c3.82,0,6.91-3.09,6.91-6.91v-16.7c0-6.43-5.21-11.64-11.64-11.64h-49.89
							L152.52,360.41z"/>
					</g>
				</g>
			</g>
			<g>
				<g>
					<g>
						<g>
							<g>
								<path style="fill:#EBEBEB;" d="M205.83,370.92H99.22c-2.9,0-5.25-2.35-5.25-5.25l0,0c0-2.9,2.35-5.25,5.25-5.25h106.61
									c2.9,0,5.25,2.35,5.25,5.25l0,0C211.08,368.57,208.73,370.92,205.83,370.92z"/>
							</g>
						</g>
					</g>
					<g>
						<g>
							<g>
								<path style="fill:#E0E0E0;" d="M77.49,220.44l58.65-1.04l37.23,140.7l-79.41,0.8L64.04,237.56
									C61.92,228.84,68.52,220.44,77.49,220.44z"/>
							</g>
						</g>
					</g>
					<g>
						<g>
							<g>
								<polygon style="fill:#EBEBEB;" points="106.71,370.92 89.16,472.9 93.96,472.9 117.04,370.92 								"/>
							</g>
						</g>
					</g>
					<g>
						<g>
							<g>
								<polygon style="fill:#E0E0E0;" points="148.08,370.92 129.43,472.9 134.24,472.9 158.41,370.92 								"/>
							</g>
						</g>
					</g>
					<g>
						<g>
							<g>
								<polygon style="fill:#EBEBEB;" points="193.84,370.92 214.64,472.9 209.83,472.9 183.5,370.92 								"/>
							</g>
						</g>
					</g>
				</g>
			</g>
			<g>
				<g>
					<g>
						<path style="fill:#EBEBEB;" d="M129.43,219.4l29.02,140.85h22.26L157.44,235.8c-1.76-9.5-10.05-16.39-19.71-16.39H129.43z"/>
					</g>
				</g>
			</g>
		</g>
	</g>
</g>
<g id="Background_Simple" style="display:none;">
	<g style="display:inline;">
		<path style="fill:#EBEBEB;" d="M430.18,173.01c-10.88-16.76-29.06-29.34-49-30.67c-16.64-1.11-32.7,5.37-48.69,10.11
			c-15.99,4.74-33.97,7.64-48.77-0.04c-20.8-10.8-26.73-37.14-39.39-56.87c-23.46-36.57-75.12-49.9-115.39-33.57
			c-40.27,16.33-73.12,59.67-76.77,102.97c-3.65,43.3,6.25,87.99,35.34,120.28c32.54,41.61,69.11,59.96,119.94,70.43
			c51.73,10.66,113.45,11.24,170.52-15.64c47.78-22.5,65.97-56.96,66.88-109.77C445.19,210.24,441.05,189.77,430.18,173.01z"/>
	</g>
</g>
<g id="Floor">
	<g>
		<g>
			<path style="fill:#263238;" d="M456.62,473.46c0,0.14-92.51,0.26-206.61,0.26c-114.13,0-206.63-0.12-206.63-0.26
				c0-0.14,92.49-0.26,206.63-0.26C364.11,473.2,456.62,473.31,456.62,473.46z"/>
		</g>
	</g>
</g>
<g id="Briefcase">
	<g>
		<g>
			<polygon style="fill:#F5A046;" points="194.53,473.74 118.07,473.74 123.85,418.09 194.53,417.63 			"/>
		</g>
		<g style="opacity:0.4;">
			<polygon points="194.53,473.74 118.07,473.74 123.85,418.09 194.53,417.63 			"/>
		</g>
		<g>
			<rect x="129.22" y="417.63" style="fill:#F5A046;" width="76.46" height="56.11"/>
		</g>
		<g style="opacity:0.2;">
			<rect x="129.22" y="417.63" width="76.46" height="56.11"/>
		</g>
		<g>
			<g>
				<path style="fill:#263238;" d="M206.32,444.8c0,0.14-17.2,0.26-38.42,0.26c-21.22,0-38.42-0.12-38.42-0.26
					c0-0.14,17.2-0.26,38.42-0.26C189.12,444.54,206.32,444.65,206.32,444.8z"/>
			</g>
		</g>
		<g>
			<g>
				<path style="fill:#263238;" d="M142.84,450.2c-0.14,0-0.26-1.88-0.26-4.2c0-2.32,0.12-4.2,0.26-4.2c0.14,0,0.26,1.88,0.26,4.2
					C143.1,448.32,142.98,450.2,142.84,450.2z"/>
			</g>
		</g>
		<g>
			<g>
				<path style="fill:#263238;" d="M195.97,449.9c-0.14,0-0.26-1.68-0.26-3.75c0-2.07,0.12-3.75,0.26-3.75
					c0.14,0,0.26,1.68,0.26,3.75C196.23,448.22,196.11,449.9,195.97,449.9z"/>
			</g>
		</g>
		<g>
			<g>
				<path style="fill:#263238;" d="M179.16,417.92c-0.05,0-0.01-0.6-0.19-1.66c-0.17-1.05-0.62-2.57-1.69-4.15
					c-1.06-1.58-2.76-3.19-5.05-4.24c-2.28-1.06-5.08-1.59-7.99-1.51c-2.92,0.07-5.68,0.69-7.95,1.79c-2.28,1.09-4.01,2.65-5.1,4.21
					c-1.11,1.55-1.65,3.04-1.87,4.08c-0.24,1.05-0.25,1.65-0.3,1.65c-0.02,0-0.03-0.15-0.03-0.44c0-0.29,0.03-0.71,0.12-1.25
					c0.17-1.07,0.67-2.62,1.77-4.25c1.09-1.63,2.86-3.29,5.19-4.43c2.33-1.16,5.17-1.81,8.15-1.88c2.98-0.08,5.86,0.47,8.21,1.6
					c2.36,1.11,4.11,2.81,5.16,4.47c1.07,1.66,1.47,3.24,1.59,4.32c0.06,0.54,0.06,0.97,0.04,1.26
					C179.2,417.77,179.18,417.92,179.16,417.92z"/>
			</g>
		</g>
	</g>
</g>
<g id="Plant">
	<g>
		<g>
			<g>
				<g>
					<g>
						<path style="fill:#1F9CA5;" d="M150.48,201.2c3.56-1.84,7.76-2.08,11.72-1.42c2.13,0.35,4.34,0.99,5.79,2.58
							c1.45,1.6,1.72,4.41,0.06,5.78c-0.99,0.82-2.37,0.94-3.65,0.93c-3.1-0.04-6.54-0.58-9.01,1.28c-1.41,1.06-2.35,2.83-4.04,3.35
							c-1.65,0.51-3.52-0.46-4.39-1.95c-0.88-1.49-0.91-3.35-0.5-5.03C146.46,206.72,146.89,203.05,150.48,201.2z"/>
					</g>
				</g>
			</g>
			<g>
				<g>
					<g>
						<path style="fill:#1F9CA5;" d="M142.32,185.43c2.18,3.11,6.42,2.08,8.38,0.18c1.96-1.9,2.79-4.65,3.55-7.28
							c1.73-6,3.47-12.3,2.18-18.41c-0.38-1.83-1.07-3.65-2.35-5c-1.28-1.36-3.26-2.16-5.06-1.68c-2.14,0.56-3.46,2.66-4.42,4.65
							c-2.82,5.85-4.31,12.34-4.34,18.83C140.25,179.75,140.6,182.93,142.32,185.43"/>
					</g>
				</g>
			</g>
			<g>
				<g>
					<g>
						<path style="fill:#1F9CA5;" d="M136.33,189.9c2.37-2.81,2.82-6.91,1.76-10.42c-1.05-3.52-3.43-6.51-6.17-8.96
							c-3.22-2.87-6.99-5.1-11.06-6.52c-1.6-0.56-3.29-1.01-4.97-0.84c-1.69,0.16-3.39,1.02-4.17,2.52
							c-1.16,2.22-0.05,4.91,1.16,7.11c2.13,3.87,4.56,7.57,7.26,11.06c2.18,2.81,4.67,5.57,7.99,6.84
							c3.32,1.27,6.76,1.12,8.52-1.18"/>
					</g>
				</g>
			</g>
			<g>
				<g>
					<g>
						<g>
							<path style="fill:#263238;" d="M142.17,232.4c0.04,0,0.11-0.5,0.2-1.41c0.1-1.03,0.23-2.32,0.38-3.86
								c0.18-1.62,0.42-3.56,0.87-5.66c0.45-2.1,1.15-4.38,2.06-6.68c0.94-2.29,2.08-4.38,3.41-6.05c1.32-1.68,2.87-2.89,4.31-3.59
								c1.44-0.71,2.74-1,3.63-1.13c0.9-0.09,1.41-0.16,1.41-0.2c0-0.04-0.51-0.05-1.43-0.02c-0.92,0.06-2.27,0.29-3.79,0.99
								c-1.53,0.68-3.16,1.91-4.55,3.62c-1.4,1.7-2.58,3.83-3.54,6.17c-0.92,2.35-1.61,4.65-2.04,6.79
								c-0.43,2.14-0.62,4.1-0.75,5.73c-0.12,1.64-0.17,2.97-0.19,3.88C142.12,231.89,142.13,232.4,142.17,232.4z"/>
						</g>
					</g>
				</g>
			</g>
			<g>
				<g>
					<g>
						<g>
							<path style="fill:#263238;" d="M142.43,229.43c0.02,0,0.03-0.23,0.04-0.66c0-0.49,0-1.11-0.01-1.88c0-1.63,0-3.99,0.08-6.9
								c0.14-5.82,0.65-12.09,1.61-20.92c0.92-8.31,2.15-17.97,3.45-24.26c0.28-1.43,0.56-2.72,0.82-3.84
								c0.25-1.13,0.47-2.1,0.67-2.89c0.18-0.74,0.32-1.35,0.44-1.82c0.09-0.42,0.13-0.64,0.11-0.65c-0.02-0.01-0.1,0.21-0.23,0.62
								c-0.14,0.47-0.32,1.07-0.54,1.8c-0.24,0.78-0.49,1.75-0.77,2.87c-0.29,1.12-0.6,2.41-0.91,3.83
								c-1.29,5.7-2.65,13.66-3.62,22.51c-0.97,8.85-1.41,16.91-1.45,22.75c-0.03,2.92,0.03,5.28,0.1,6.91
								c0.05,0.76,0.08,1.38,0.11,1.88C142.39,229.2,142.41,229.43,142.43,229.43z"/>
						</g>
					</g>
				</g>
			</g>
			<g>
				<g>
					<g>
						<g>
							<path style="fill:#263238;" d="M142.47,213.88c0.04,0,0.03-0.7-0.01-1.96c-0.07-1.26-0.25-3.08-0.6-5.31
								c-0.38-2.23-0.9-4.87-1.73-7.74c-0.36-1.31-1.2-4.46-3.24-9.16c-2.68-6.37-6.33-11.58-9.51-14.8
								c-0.74-0.86-1.57-1.47-2.24-2.08c-0.34-0.29-0.65-0.58-0.96-0.81c-0.31-0.21-0.6-0.41-0.87-0.6
								c-1.04-0.71-1.63-1.09-1.65-1.06c-0.09,0.13,2.34,1.56,5.41,4.83c3.06,3.26,6.61,8.43,9.27,14.75
								c1.49,3.43,2.52,6.48,3.26,9.07c0.85,2.84,1.41,5.46,1.84,7.66c0.4,2.21,0.64,4.01,0.78,5.26
								C142.35,213.19,142.43,213.88,142.47,213.88z"/>
						</g>
					</g>
				</g>
			</g>
		</g>
		<g>
			<g>
				<g>
					<polygon style="fill:#263238;" points="127.45,241.31 129,262.65 156.42,262.65 157.98,241.31 					"/>
				</g>
			</g>
		</g>
		<g>
			<g>
				<g>
					<rect x="124.8" y="232.89" style="fill:#263238;" width="36.45" height="8.41"/>
				</g>
			</g>
		</g>
		<g>
			<g>
				<g>
					<polygon style="fill:#455A64;" points="124.8,261.83 124.8,264.16 126.51,264.16 160.65,264.16 160.65,261.83 					"/>
				</g>
			</g>
		</g>
		<g>
			<g>
				<g>
					<polygon style="fill:#455A64;" points="128.19,268.27 126.51,264.16 159.34,264.16 157.38,268.27 					"/>
				</g>
			</g>
		</g>
		<g>
			<g>
				<g>
					<g>
						<path style="fill:#E0E0E0;" d="M157.47,248.28c0.01,0.01-0.04,0.07-0.13,0.2c-0.11,0.14-0.24,0.32-0.41,0.54
							c-0.39,0.5-0.92,1.18-1.6,2.04l-0.07,0.09l-0.07-0.1c-1-1.39-2.35-3.24-3.92-5.43h0.23c-1.17,1.65-2.47,3.49-3.86,5.47
							l-0.12,0.17l-0.14-0.16c-1.43-1.7-2.97-3.54-4.58-5.45l0.26,0c-0.08,0.1-0.17,0.21-0.25,0.32c-1.42,1.78-2.8,3.51-4.1,5.14
							l-0.14,0.17l-0.13-0.18c-1.39-1.97-2.69-3.81-3.87-5.47l0.22,0.01c-1.9,2.17-3.52,4.01-4.76,5.42l-0.08,0.1l-0.06-0.11
							c-0.63-1.05-1.13-1.89-1.49-2.5c-0.16-0.27-0.28-0.49-0.38-0.67c-0.08-0.15-0.12-0.23-0.12-0.24c0.01,0,0.06,0.07,0.16,0.21
							c0.11,0.17,0.25,0.38,0.42,0.64c0.38,0.6,0.91,1.42,1.56,2.46l-0.15-0.01c1.22-1.43,2.81-3.29,4.68-5.49l0.12-0.14l0.11,0.15
							c1.19,1.65,2.5,3.49,3.9,5.44l-0.26-0.01c1.3-1.63,2.67-3.36,4.09-5.14c0.09-0.11,0.17-0.22,0.25-0.32l0.13-0.16l0.13,0.16
							c1.6,1.92,3.15,3.76,4.57,5.46l-0.26,0.01c1.41-1.97,2.72-3.8,3.9-5.44l0.11-0.16l0.11,0.16c1.55,2.21,2.86,4.08,3.84,5.49
							l-0.14,0c0.7-0.84,1.26-1.51,1.66-1.99c0.18-0.21,0.33-0.38,0.44-0.51C157.41,248.33,157.46,248.28,157.47,248.28z"/>
					</g>
				</g>
			</g>
		</g>
		<g>
			<g>
				<g>
					<g>
						<path style="fill:#455A64;" d="M158.36,241.17c0,0.09-6.87,0.17-15.34,0.17c-8.48,0-15.34-0.08-15.34-0.17
							c0-0.09,6.87-0.17,15.34-0.17C151.49,240.99,158.36,241.07,158.36,241.17z"/>
					</g>
				</g>
			</g>
		</g>
		<g>
			<g>
				<g>
					<g>
						<path style="fill:#263238;" d="M159.75,264.39c0,0.09-7.47,0.17-16.67,0.17c-9.21,0-16.68-0.08-16.68-0.17
							c0-0.09,7.46-0.17,16.68-0.17C152.28,264.22,159.75,264.3,159.75,264.39z"/>
					</g>
				</g>
			</g>
		</g>
	</g>
</g>
<g id="Desk">
	<g>
		<g>
			<g>
				<g>
					<g>
						<g>
							
								<rect x="301.6" y="264.84" transform="matrix(-1 -1.224647e-16 1.224647e-16 -1 683.4789 533.583)" style="fill:#263238;" width="80.28" height="3.9"/>
						</g>
					</g>
				</g>
				<g>
					<g>
						<g>
							<polygon style="fill:#263238;" points="394.32,268.74 409.38,212.32 346.7,212.32 333.06,268.74 							"/>
						</g>
					</g>
				</g>
			</g>
			<g>
				<g>
					<g>
						<polygon style="fill:#455A64;" points="336.82,264.47 392.81,264.47 405.85,214.92 349.56,214.92 						"/>
						<path style="fill:#263238;" d="M393.2,264.97h-57.03l13-50.55h57.32L393.2,264.97z M337.46,263.97h54.97l12.77-48.55h-55.25
							L337.46,263.97z"/>
					</g>
				</g>
			</g>
		</g>
		<g>
			<g>
				<g>
					<g>
						<g>
							<rect x="136.15" y="279.7" style="fill:#455A64;" width="4.05" height="193.56"/>
						</g>
					</g>
				</g>
				<g>
					<g>
						<g>
							<rect x="140.21" y="280.25" style="fill:#263238;" width="4.05" height="193"/>
						</g>
					</g>
				</g>
			</g>
			<g>
				<g>
					<g>
						<g>
							<rect x="385.92" y="279.7" style="fill:#455A64;" width="4.05" height="193.56"/>
						</g>
					</g>
				</g>
				<g>
					<g>
						<g>
							<rect x="389.97" y="280.25" style="fill:#263238;" width="4.05" height="193"/>
						</g>
					</g>
				</g>
			</g>
			<g>
				<g>
					<g>
						<rect x="89.16" y="268.45" style="fill:#455A64;" width="361.43" height="15.88"/>
					</g>
				</g>
			</g>
			<g>
				<g>
					<g>
						<rect x="252.38" y="284.33" style="fill:#455A64;" width="135.57" height="26.28"/>
					</g>
				</g>
			</g>
			<g>
				<g>
					<g>
						<path style="fill:#263238;" d="M326.21,295.65c0,1.67-1.35,3.02-3.02,3.02c-1.67,0-3.02-1.35-3.02-3.02
							c0-1.67,1.35-3.02,3.02-3.02C324.85,292.63,326.21,293.98,326.21,295.65z"/>
					</g>
				</g>
			</g>
		</g>
		<g>
			<g>
				<path style="fill:#263238;" d="M417.48,284.33c0,0.14-46.97,0.26-104.9,0.26c-57.95,0-104.91-0.12-104.91-0.26
					c0-0.14,46.96-0.26,104.91-0.26C370.51,284.07,417.48,284.19,417.48,284.33z"/>
			</g>
		</g>
	</g>
</g>
<g id="Character">
	<g>
		<g>
			<g>
				<g>
					<path style="fill:#EB996E;" d="M292.38,97.52c0.54,0,7.85,1.22,7.85,1.22l9.88,12.46l1.49,2.36l-13.34,8.52l-5.89-8.72
						l-5.01-3.25c0,0,2.17-1.9,5.28-0.54c3.11,1.35,6.23,1.22,6.23,1.22l-1.76-5.01l-5.42-1.08L292.38,97.52z"/>
				</g>
				<g>
					<path style="fill:#263238;" d="M293.02,88.8c0.88-0.22,1.76,0.35,1.91,1.25c0.81,5.11,3.26,20.49,4.03,25.03
						c0.13,0.74-0.33,1.45-1.06,1.66L286.07,120c-0.86,0.24-1.74-0.34-1.85-1.23l-3.18-25.53c-0.1-0.77,0.4-1.5,1.15-1.69
						L293.02,88.8z"/>
				</g>
				<g>
					<path style="fill:#EBEBEB;" d="M285.1,116.85l11.99-3.34l-3.18-21.24c-0.18-1.21-1.38-2-2.56-1.68l-9.61,2.55L285.1,116.85z"/>
				</g>
				<g>
					<g>
						<path style="fill:#EB996E;" d="M296.85,101.31l-5.4,4.05c0,0,0.45,1.42,1.27,1.52s5.17-1.1,5.17-1.1L296.85,101.31z"/>
					</g>
					<g>
						<path style="fill:#EB996E;" d="M296.2,98.08l-5.65,2.47c0,0-0.37,1.84,1.75,1.59l-1.9,1.36c0,0,0.47,0.82,2.83,0.92
							c2.36,0.1,4.65-3.18,4.65-3.18L296.2,98.08z"/>
					</g>
				</g>
			</g>
			<g>
				<g>
					<path style="fill:#D1734A;" d="M301.81,104.37c-0.01,0.08-0.69-0.06-1.44-0.75c-0.38-0.33-0.78-0.76-1.3-1.09
						c-0.51-0.34-1.14-0.5-1.79-0.23c-2.62,1.33-4.84,2.47-4.9,2.32c-0.05-0.12,1.97-1.42,4.72-2.81c0.38-0.15,0.81-0.21,1.21-0.13
						c0.4,0.07,0.74,0.26,1.02,0.45c0.57,0.4,0.95,0.87,1.28,1.22C301.27,104.07,301.83,104.3,301.81,104.37z"/>
				</g>
			</g>
			<g>
				<g>
					<path style="fill:#D1734A;" d="M300.7,118.45c-0.08,0.1-1.47-1.56-1.73-4.11c-0.29-2.55,0.72-4.46,0.83-4.38
						c0.15,0.05-0.58,1.93-0.31,4.33C299.72,116.68,300.84,118.37,300.7,118.45z"/>
				</g>
			</g>
			<g>
				<g>
					<path style="fill:#D1734A;" d="M299.95,100.57c-0.07,0.05-0.37-0.37-1.09-0.6c-0.72-0.26-1.8-0.2-2.86,0.33
						c-1.07,0.51-2,1.16-2.76,1.47c-0.75,0.34-1.28,0.38-1.29,0.32c-0.02-0.07,0.45-0.24,1.12-0.64c0.69-0.38,1.56-1.07,2.71-1.62
						c0.58-0.27,1.18-0.44,1.75-0.47c0.57-0.03,1.08,0.09,1.47,0.27C299.79,100,300.01,100.55,299.95,100.57z"/>
				</g>
			</g>
		</g>
		<g>
			<path style="fill:#F5A046;" d="M299.53,135.97l29.39,18.87l-7.79,22.28c0,0-20.11-6.21-19.74-6.86
				C301.77,169.61,299.53,135.97,299.53,135.97z"/>
		</g>
		<g>
			<g>
				<g>
					<g>
						<g>
							<g>
								<path style="fill:#263238;" d="M291.93,437.58l-4.62,21.29c0,0,20.09,11.85,19.62,15.87l-41.6-7.48l5.84-33.47
									L291.93,437.58z"/>
							</g>
						</g>
					</g>
				</g>
				<g>
					<g>
						<g>
							<g>
								<path style="fill:#455A64;" d="M265.32,467.25l0.72-3.35l39.62,8.42c0,0,1.71,1.14,1.26,2.41L265.32,467.25z"/>
							</g>
						</g>
					</g>
				</g>
			</g>
		</g>
		<g>
			<g>
				<g>
					<g>
						<g>
							<g>
								<path style="fill:#263238;" d="M244.61,439.92l-0.69,21.78c0,0,21.9,8.01,22.17,12.05l-42.27,0.18l-0.32-33.97
									L244.61,439.92z"/>
							</g>
						</g>
					</g>
				</g>
				<g style="opacity:0.6;">
					<g>
						<g>
							<g>
								<path style="fill:#455A64;" d="M223.82,473.93l0.1-3.43l40.49,1.1c0,0,1.89,0.81,1.68,2.14L223.82,473.93z"/>
							</g>
						</g>
					</g>
				</g>
			</g>
		</g>
		<g>
			<g>
				<g>
					<g>
						<g>
							<g>
								<g>
									<g>
										<g>
											<g>
												<g>
													<g>
														<g>
															<g>
																<path style="fill:#EB996E;" d="M250.74,82.86l4.31,49.95l25.02-2c0.16-2.92-0.05-14.22-0.05-14.22
																	s10.41-1.62,10.54-12.03c0.06-5.05-0.66-15.5-1.42-24.91c-0.84-10.44-9.87-18.29-20.32-17.68h0
																	C257.98,62.61,249.81,72.05,250.74,82.86z"/>
															</g>
														</g>
													</g>
												</g>
											</g>
										</g>
									</g>
								</g>
							</g>
						</g>
						<g>
							<g>
								<g>
									<g>
										<g>
											<g>
												<g>
													<g>
														<g>
															<g>
																<path style="fill:#D1734A;" d="M280.03,116.44c0,0-6.58,0.54-13.57-3.86c0,0,3.21,7.49,13.59,6.55L280.03,116.44z"
																	/>
															</g>
														</g>
													</g>
												</g>
											</g>
										</g>
									</g>
								</g>
							</g>
						</g>
					</g>
				</g>
			</g>
			<g>
				<g>
					<g>
						<g>
							<g>
								<g>
									<g>
										<g>
											<g>
												<g>
													<g>
														<g>
															<g>
																<g>
																	<g>
																		<g>
																			<path style="fill:#263238;" d="M285.1,86.95c0.03,0.78-0.61,1.46-1.43,1.5c-0.82,0.04-1.5-0.56-1.53-1.34
																				c-0.03-0.78,0.61-1.46,1.43-1.5C284.38,85.57,285.07,86.17,285.1,86.95z"/>
																		</g>
																	</g>
																</g>
															</g>
														</g>
													</g>
												</g>
											</g>
										</g>
									</g>
									<g>
										<g>
											<g>
												<g>
													<g>
														<g>
															<g>
																<g>
																	<g>
																		<g>
																			<g>
																				<path style="fill:#263238;" d="M286.9,84.9c-0.18,0.19-1.31-0.64-2.91-0.64c-1.6-0.02-2.77,0.8-2.94,0.61
																					c-0.09-0.09,0.1-0.44,0.61-0.81c0.5-0.37,1.36-0.73,2.36-0.73c1,0.01,1.83,0.37,2.32,0.75
																					C286.83,84.46,287,84.82,286.9,84.9z"/>
																			</g>
																		</g>
																	</g>
																</g>
															</g>
														</g>
													</g>
												</g>
											</g>
										</g>
									</g>
								</g>
								<g>
									<g>
										<g>
											<g>
												<g>
													<g>
														<g>
															<g>
																<g>
																	<g>
																		<g>
																			<path style="fill:#263238;" d="M269.74,86.95c0.03,0.78-0.61,1.46-1.43,1.5c-0.82,0.04-1.5-0.56-1.53-1.34
																				s0.61-1.46,1.43-1.5C269.03,85.57,269.71,86.17,269.74,86.95z"/>
																		</g>
																	</g>
																</g>
															</g>
														</g>
													</g>
												</g>
											</g>
										</g>
									</g>
									<g>
										<g>
											<g>
												<g>
													<g>
														<g>
															<g>
																<g>
																	<g>
																		<g>
																			<g>
																				<path style="fill:#263238;" d="M271.18,85.2c-0.18,0.19-1.31-0.64-2.91-0.64c-1.6-0.02-2.77,0.8-2.95,0.61
																					c-0.09-0.09,0.1-0.44,0.61-0.81c0.5-0.37,1.36-0.73,2.36-0.73c1,0.01,1.83,0.37,2.32,0.75
																					C271.11,84.76,271.27,85.11,271.18,85.2z"/>
																			</g>
																		</g>
																	</g>
																</g>
															</g>
														</g>
													</g>
												</g>
											</g>
										</g>
									</g>
								</g>
								<g>
									<g>
										<g>
											<g>
												<g>
													<g>
														<g>
															<g>
																<g>
																	<g>
																		<g>
																			<path style="fill:#263238;" d="M276.99,97.06c-0.01-0.09,0.99-0.26,2.6-0.47c0.41-0.04,0.79-0.12,0.86-0.4
																				c0.1-0.29-0.07-0.74-0.27-1.21c-0.38-0.99-0.79-2.02-1.21-3.11c-1.68-4.43-2.89-8.07-2.71-8.14
																				c0.18-0.07,1.68,3.47,3.36,7.9c0.4,1.09,0.79,2.13,1.16,3.13c0.15,0.46,0.42,0.99,0.21,1.6
																				c-0.11,0.31-0.41,0.53-0.67,0.6c-0.26,0.08-0.49,0.08-0.69,0.1C278,97.15,276.99,97.15,276.99,97.06z"/>
																		</g>
																	</g>
																</g>
															</g>
														</g>
													</g>
												</g>
											</g>
										</g>
									</g>
								</g>
								<g>
									<g>
										<g>
											<g>
												<g>
													<g>
														<g>
															<g>
																<g>
																	<g>
																		<g>
																			<path style="fill:#263238;" d="M272.28,98.17c0.26-0.02,0.26,1.72,1.75,2.95c1.48,1.24,3.33,1.04,3.35,1.28
																				c0.02,0.11-0.41,0.34-1.19,0.36c-0.77,0.03-1.89-0.22-2.79-0.97c-0.91-0.76-1.3-1.76-1.36-2.48
																				C271.97,98.59,272.16,98.16,272.28,98.17z"/>
																		</g>
																	</g>
																</g>
															</g>
														</g>
													</g>
												</g>
											</g>
										</g>
									</g>
								</g>
							</g>
						</g>
					</g>
					<g>
						<g>
							<g>
								<g>
									<g>
										<g>
											<g>
												<g>
													<g>
														<g>
															<path style="fill:#263238;" d="M271.6,78.93c-0.16,0.43-1.75,0.23-3.63,0.45c-1.88,0.19-3.39,0.74-3.64,0.35
																c-0.11-0.19,0.15-0.6,0.76-1.02c0.61-0.42,1.57-0.82,2.7-0.95c1.13-0.12,2.16,0.06,2.84,0.33
																C271.32,78.38,271.66,78.73,271.6,78.93z"/>
														</g>
													</g>
												</g>
											</g>
										</g>
									</g>
								</g>
							</g>
						</g>
					</g>
					<g>
						<g>
							<g>
								<g>
									<g>
										<g>
											<g>
												<g>
													<g>
														<g>
															<path style="fill:#263238;" d="M286.32,80.27c-0.28,0.36-1.38-0.01-2.71-0.03c-1.32-0.06-2.45,0.24-2.7-0.14
																c-0.11-0.18,0.06-0.55,0.55-0.89c0.48-0.34,1.29-0.62,2.2-0.6c0.91,0.03,1.7,0.36,2.16,0.73
																C286.29,79.72,286.44,80.1,286.32,80.27z"/>
														</g>
													</g>
												</g>
											</g>
										</g>
									</g>
								</g>
							</g>
						</g>
					</g>
				</g>
			</g>
			<g>
				<g>
					<g>
						<g>
							<path style="fill:#263238;" d="M262.04,71.45c-0.02,0.02-0.04,0.03-0.06,0.05c-1.66,1.31-2.75,3.2-3.04,5.29
								c-0.01,0.07-0.02,0.14-0.03,0.21c-0.41,2.97-0.33,5.99-0.77,8.95c-0.44,2.96-1.46,5.98-3.65,8.02
								c-0.9,0.84-2.5,1.42-3.24,0.43c-0.29-0.38-0.33-0.89-0.37-1.36c-0.55-7.17-2.51-13.53-2.5-21.02c0-2.04,0.96-3.95,2.62-5.14
								c1.57-1.12,3.49-2.29,5.23-1.47c1.75,0.83,4,4.09,5.36,5.47"/>
						</g>
					</g>
				</g>
			</g>
			<g>
				<g>
					<g>
						<g>
							<g>
								<g>
									<g>
										<g>
											<g>
												<g>
													<g>
														<path style="fill:#EB996E;" d="M254.25,87.57c-0.18-0.08-7.15-2.12-6.92,5c0.23,7.12,7.32,5.42,7.33,5.22
															C254.66,97.58,254.25,87.57,254.25,87.57z"/>
													</g>
												</g>
											</g>
										</g>
									</g>
								</g>
							</g>
						</g>
					</g>
				</g>
				<g>
					<g>
						<g>
							<g>
								<g>
									<g>
										<g>
											<g>
												<g>
													<g>
														<g>
															<path style="fill:#D1734A;" d="M252.39,95.16c-0.03-0.02-0.12,0.09-0.33,0.19c-0.2,0.1-0.55,0.18-0.93,0.05
																c-0.76-0.25-1.43-1.43-1.51-2.71c-0.04-0.65,0.08-1.27,0.29-1.79c0.2-0.53,0.53-0.9,0.9-0.98
																c0.37-0.1,0.65,0.12,0.74,0.32c0.1,0.2,0.06,0.34,0.1,0.35c0.02,0.02,0.15-0.12,0.08-0.42
																c-0.03-0.14-0.12-0.31-0.29-0.44c-0.18-0.13-0.43-0.2-0.69-0.16c-0.55,0.06-1.03,0.58-1.26,1.14
																c-0.26,0.57-0.41,1.27-0.37,2c0.09,1.43,0.87,2.75,1.91,3.01c0.5,0.11,0.92-0.05,1.13-0.22
																C252.39,95.33,252.42,95.17,252.39,95.16z"/>
														</g>
													</g>
												</g>
											</g>
										</g>
									</g>
								</g>
							</g>
						</g>
					</g>
				</g>
			</g>
			<g>
				<g>
					<g>
						<g>
							<path style="fill:#263238;" d="M255.99,66.52c-1.75-2.85,3.05-6.93,6.56-8.04c3.51-1.11,8.14,0.6,11.63,1.76
								c2.21,0.73,4.4,1.75,6.72,1.66c1.56-0.06,3.04-0.63,4.51-1.15c1.47-0.52,3-1,4.55-0.9c1.55,0.11,3.15,0.93,3.74,2.37
								c0.59,1.44-0.26,3.42-1.8,3.63c1.97-1.08,4.82,0.34,5.14,2.56c0.32,2.22-2.01,4.39-4.21,3.91c1.01-0.77,2.56,0.5,2.44,1.76
								c-0.12,1.26-1.27,2.18-2.43,2.69c-2.97,1.3-6.43,0.89-9.5-0.15c-3.07-1.03-5.92-2.64-8.96-3.75
								c-3.04-1.11-8.14-3.1-11.2-2.02c-2.25,0.79-3.82,3.5-5.09,2.91c-1.23-0.58-2.01-1.86-2.25-3.2
								C255.6,69.23,255.8,67.86,255.99,66.52"/>
						</g>
					</g>
				</g>
			</g>
			<g>
				<g>
					<g>
						<g>
							<g>
								<path style="fill:#455A64;" d="M292.77,65.66c-0.06-0.04-0.37,0.53-1.13,1.36c-0.77,0.82-2.06,1.89-3.95,2.54
									c-1.86,0.65-4.4,0.86-6.79-0.27c-2.42-1.08-4.49-3.25-6.88-5.3c-2.38-2.06-5.19-3.59-8-3.84c-2.8-0.27-5.38,0.76-6.8,2.36
									c-1.44,1.61-1.72,3.45-1.61,4.6c0.05,0.59,0.2,1.02,0.31,1.31c0.13,0.28,0.21,0.42,0.23,0.41c0.07-0.02-0.23-0.61-0.26-1.73
									c-0.02-1.09,0.33-2.8,1.7-4.25c1.35-1.43,3.77-2.33,6.38-2.05c2.62,0.27,5.29,1.72,7.61,3.73c2.34,2,4.47,4.23,7.06,5.35
									c2.58,1.18,5.29,0.9,7.22,0.15c1.97-0.75,3.27-1.94,3.99-2.83c0.36-0.46,0.61-0.83,0.74-1.11
									C292.73,65.82,292.79,65.67,292.77,65.66z"/>
							</g>
						</g>
					</g>
				</g>
			</g>
			<g>
				<g>
					<g>
						<g>
							<g>
								<path style="fill:#455A64;" d="M252.43,87.26c0.03,0.02,0.31-0.2,0.58-0.76c0.27-0.56,0.48-1.47,0.35-2.58
									c-0.16-2.29-2.18-4.75-2.44-7.92c-0.16-1.56,0.12-3.09,0.79-4.25c0.66-1.15,1.71-1.91,2.64-2.28
									c0.95-0.39,1.81-0.4,2.38-0.32c0.57,0.09,0.88,0.22,0.91,0.17c0.02-0.03-0.25-0.25-0.85-0.44c-0.59-0.17-1.54-0.25-2.6,0.12
									c-1.05,0.36-2.24,1.13-3.03,2.42c-0.79,1.28-1.1,2.96-0.93,4.64c0.14,1.69,0.76,3.22,1.37,4.48
									c0.61,1.28,1.12,2.42,1.28,3.44C253.25,86.07,252.33,87.23,252.43,87.26z"/>
							</g>
						</g>
					</g>
				</g>
			</g>
		</g>
		<g>
			<path style="fill:#042B5D;" d="M294.2,455.84c0,0,21.67-106.29,21.69-108.42l-38.71-20.46L262.19,451.7L294.2,455.84z"/>
		</g>
		<g>
			<path style="fill:#042B5D;" d="M245.46,459.4l29.93-184.23v-39.74l-43.35,3.1c-0.52,1.55-11.44,221.11-11.44,221.11l4.22-0.24
				H245.46"/>
		</g>
		<g>
			<polygon style="fill:#042B5D;" points="298.92,232.62 315.89,347.42 277.96,338.22 262.49,236.36 			"/>
		</g>
		<g>
			<line style="fill:#E8505B;" x1="307.39" y1="278.43" x2="305.46" y2="262.8"/>
		</g>
		<g>
			<path style="fill:#F5A046;" d="M305.46,282.07c0,0,6.59-5.66,7.25-9.94c0.66-4.28-7.92-73.02-7.92-73.02l-4.37-56.82
				c0,1,0.12-7.16-1.2-7.65c-4.04-1.51-12.22-4.25-12.22-4.25l-4.69-4.22c0,0,8.44,36.08,10.08,45.94L305.46,282.07z"/>
		</g>
		<g>
			<path style="fill:#F5A046;" d="M251.27,122.27l-7.1,4.72l-26.63,10.48l11.82,44.61l-1.58,25.87l-1.52,16.45
				c0,0-7.92,40.73-14.92,65.48c0,0,7.81,14.8,14.23,16.87l2.67,1.59l9.52-69.71l8.17-11.03c0.78-1.06,1.52-2.14,2.21-3.27
				c2.01-3.27,6.58-10.7,10.23-16.43c4.82-7.57,11.01-24.77,9.17-32.11C265.71,168.44,251.27,122.27,251.27,122.27z"/>
		</g>
		<g>
			<path style="fill:#263238;" d="M233.18,276.06c6.22-5.02,11.43-11.29,15.24-18.32"/>
		</g>
		<g>
			<path style="fill:#EBEBEB;" d="M251.27,122.27l6.41,41.12c-0.08,4.17-0.88,9.96-2.6,15.51l-11.44,36.97
				c0,0-8.99,20.17-5.89,22.75c3.1,2.58,27.3,0,27.3,0l32.74-4.75c1.52-0.22,2.6-1.59,2.45-3.12l-4.86-50.22
				c-1.64-3.47-2.31-10.56-2.99-13.09l-10.08-41.26l-2.06-0.27l-4.48,3.08l-2.36,0.19l-19.82-9.58L251.27,122.27z"/>
		</g>
		<g>
			<path style="fill:#E0E0E0;" d="M245.3,210.53c5.29-16.49,12.14-43.29,12.14-43.29c2.13,14.02-0.2,28.35-5.41,41.54
				c-4.25,10.77-9.41,18.91-12.95,29.93l-0.11,0.46c0,0-2,0.1-1.86-2.84c0.14-2.95,2.97-11.72,4.91-16.59S245.3,210.53,245.3,210.53
				z"/>
		</g>
		<g>
			<polygon style="fill:#1F9CA5;" points="276.91,132.49 272.46,132.49 271.13,138.58 275.02,143.29 278.94,142.9 280.22,138.53 
				279.17,136.09 			"/>
		</g>
		<g>
			<path style="fill:#F5A046;" d="M302.86,168.05c1.41,0.28,16.87,10.68,22.49,9.56c5.62-1.12,10.17-6.42,10.77-7.13
				c3.19-3.78,1.19-11.63,0.27-14.59c-0.23-0.73-0.53-1.42-0.92-2.07L311.6,112.8l-14.07,8.55l14.6,26.65L302.86,168.05z"/>
		</g>
		<g>
			<path style="fill:#F5A046;" d="M187.73,217.62c-1.94-4.86-1.5-10.36,0.87-15.03c3.24-6.41,8.37-16.77,9.45-20.16
				c1.61-5.05,16.56-43.8,19.5-44.95l13.03,43.88l-15.1,31.81l17.7,33.34l-14.79,15.9c0,0-27.91-38.92-30.21-43.74
				C188.02,218.32,187.87,217.97,187.73,217.62z"/>
		</g>
		<g>
			<path style="fill:#EB996E;" d="M233.84,272.52c3.23-3.04,5.64-6.06,7.39-8.72c-0.04-0.11-0.05-0.2-0.01-0.27
				c0.06-0.1,0.17-0.15,0.3-0.18c0.97-1.51,1.74-2.89,2.32-4.07c-2.47-1.61-5.7-4.04-2.19-4.54c4.32-0.62,7.41-2.72,7.85-3.87
				c0.44-1.15-1-2.18-2.14-1.45c-0.92,0.59-2.76,1.11-4.16,1.44c-1.15,0.27-2.35,0.35-3.52,0.22c-1.37-0.15-7-2.59-7.98-2.77
				l-10.53,11.08C221.17,259.39,229.25,267.96,233.84,272.52z"/>
		</g>
		<g>
			<g>
				<path style="fill:#263238;" d="M302.76,169.27c-0.04,0.01-0.16-0.43-0.37-1.23c-0.21-0.8-0.47-1.97-0.76-3.42
					c-0.58-2.9-1.23-6.95-1.63-11.45c-0.4-4.5-0.48-8.6-0.42-11.56c0.03-1.48,0.08-2.68,0.14-3.5c0.06-0.83,0.11-1.28,0.14-1.28
					c0.04,0,0.06,0.46,0.06,1.29c0.01,0.93,0.02,2.1,0.03,3.5c0.04,2.95,0.18,7.03,0.57,11.51c0.4,4.48,0.99,8.52,1.47,11.43
					c0.24,1.37,0.44,2.53,0.59,3.45C302.73,168.81,302.79,169.26,302.76,169.27z"/>
			</g>
		</g>
		<g>
			<g>
				<path style="fill:#263238;" d="M315.04,171.64c-0.01,0.02-0.12-0.01-0.33-0.08c-0.21-0.07-0.52-0.21-0.89-0.42
					c-0.74-0.43-1.72-1.26-2.54-2.58c-0.86-1.3-1.35-3.1-1.82-5.04c-0.46-1.96-0.91-4.12-1.2-6.43c-0.42-4.62-0.77-8.77-1-11.8
					c-0.1-1.43-0.18-2.63-0.24-3.58c-0.05-0.85-0.05-1.32-0.02-1.32c0.04,0,0.11,0.46,0.22,1.3c0.11,0.94,0.24,2.14,0.41,3.56
					c0.32,3.01,0.73,7.19,1.15,11.77c0.28,2.27,0.72,4.43,1.15,6.38c0.44,1.95,0.88,3.69,1.66,4.96c0.75,1.29,1.65,2.12,2.33,2.6
					C314.61,171.44,315.05,171.6,315.04,171.64z"/>
			</g>
		</g>
		<g style="opacity:0.3;">
			<g>
				<path d="M306.94,140.48c-1.22,4.61-2.06,9.31-2.52,14.05c-0.28,2.84-0.41,5.76,0.45,8.49c0.85,2.72,2.87,5.23,5.63,5.96
					c-1.26-9.28-2.37-18.57-3.33-27.88"/>
			</g>
		</g>
		<g style="opacity:0.3;">
			<g>
				<path d="M225.06,230.39c0,0,4.68,9.59,7.27,14.61c5.4-22.31-1.45-45.79,0.78-68.64l-3.9,7.87l-1.1,18.21l-0.84,10.68
					C227.27,213.13,226.47,224.62,225.06,230.39z"/>
			</g>
		</g>
		<g>
			<g>
				<path style="fill:#263238;" d="M228.84,137.88c0.03-0.02,0.31,0.43,0.79,1.25c0.25,0.41,0.53,0.91,0.83,1.52
					c0.3,0.6,0.67,1.28,1,2.07c0.71,1.55,1.43,3.45,2.11,5.6c0.64,2.16,1.22,4.58,1.61,7.15c0.37,2.58,0.51,5.06,0.52,7.31
					c-0.02,2.25-0.17,4.28-0.41,5.97c-0.09,0.85-0.25,1.6-0.36,2.27c-0.11,0.67-0.24,1.23-0.36,1.7c-0.23,0.92-0.37,1.43-0.4,1.42
					c-0.03-0.01,0.04-0.53,0.2-1.46c0.09-0.47,0.19-1.04,0.27-1.7c0.09-0.67,0.22-1.42,0.28-2.26c0.19-1.68,0.29-3.69,0.29-5.92
					c-0.03-2.23-0.19-4.69-0.55-7.24c-0.39-2.55-0.94-4.94-1.55-7.09c-0.64-2.14-1.32-4.04-1.98-5.59c-0.3-0.79-0.65-1.47-0.92-2.09
					c-0.27-0.62-0.53-1.13-0.75-1.55C229.03,138.37,228.8,137.9,228.84,137.88z"/>
			</g>
		</g>
		<g>
			<g>
				<path style="fill:#263238;" d="M215.3,213.42c-0.07,0.05-0.73-1.06-2.04-2.65c-1.3-1.58-3.29-3.69-5.91-5.36
					c-1.31-0.81-2.77-1.2-4.08-0.98c-1.3,0.2-2.39,0.81-3.23,1.37c-1.69,1.16-2.61,2.07-2.68,2c-0.02-0.03,0.18-0.27,0.6-0.68
					c0.41-0.41,1.02-1,1.87-1.62c0.84-0.62,1.95-1.3,3.37-1.54c1.42-0.28,3.05,0.16,4.42,1.01c2.73,1.74,4.68,3.91,5.94,5.58
					c0.63,0.84,1.07,1.55,1.36,2.06C215.2,213.11,215.33,213.41,215.3,213.42z"/>
			</g>
		</g>
		<g>
			<g>
				<path style="fill:#263238;" d="M212.03,202.91c0.11-0.07,1.41,2,2.33,4.85c0.93,2.85,1.1,5.29,0.97,5.3
					c-0.15,0.02-0.55-2.34-1.46-5.14C212.96,205.13,211.89,202.99,212.03,202.91z"/>
			</g>
		</g>
		<g>
			<g>
				<path style="fill:#263238;" d="M224.75,229.77c0.03-0.02,0.3,0.44,0.75,1.28c0.49,0.92,1.13,2.13,1.9,3.59
					c1.59,3.05,3.76,7.3,6.17,12.07l0.08,0.16l-0.13,0.13c-0.32,0.33-0.65,0.68-1,1.04c-3.93,4.09-7.5,7.78-10.11,10.43
					c-1.26,1.27-2.31,2.32-3.11,3.12c-0.74,0.73-1.16,1.12-1.19,1.09c-0.03-0.02,0.35-0.46,1.04-1.23c0.77-0.83,1.77-1.92,2.99-3.23
					c2.54-2.71,6.07-6.44,10-10.53c0.34-0.36,0.68-0.71,1-1.04l-0.04,0.3c-2.4-4.77-4.52-9.05-6.03-12.14
					c-0.71-1.49-1.3-2.72-1.76-3.66C224.92,230.27,224.72,229.79,224.75,229.77z"/>
			</g>
		</g>
		<g>
			<g>
				<path style="fill:#263238;" d="M244.23,209.65c-0.02,0-0.03-0.3-0.03-0.86c0.01-0.61,0.02-1.43,0.03-2.47
					c0.05-2.2,0.12-5.29,0.21-9.09c0.11-3.84,0.2-8.4,0.41-13.48c0.24-5.06,0.65-10.69,2.24-16.37c0.79-2.81,1.83-5.49,3.16-7.91
					l0.19,0.37c-1.28-0.19-2.39-0.91-3.19-1.81c-0.81-0.9-1.36-2-1.67-3.11c-0.62-2.24-0.5-4.44-0.52-6.48
					c0-4.08,0.01-7.71,0.01-10.76c0.02-2.99,0.03-5.41,0.04-7.13c0.01-0.8,0.03-1.43,0.03-1.92c0.01-0.44,0.03-0.66,0.04-0.66
					c0.02,0,0.03,0.23,0.05,0.66c0.01,0.48,0.03,1.12,0.05,1.92c0.03,1.72,0.06,4.13,0.11,7.13c0.03,3.05,0.07,6.68,0.11,10.76
					c0.03,2.04-0.06,4.22,0.54,6.34c0.3,1.06,0.82,2.07,1.57,2.91c0.75,0.84,1.76,1.48,2.89,1.64l0.36,0.05l-0.17,0.32
					c-1.3,2.39-2.33,5.03-3.1,7.8c-1.57,5.62-1.99,11.21-2.26,16.26c-0.24,5.06-0.36,9.63-0.52,13.47c-0.16,3.8-0.28,6.89-0.37,9.08
					c-0.05,1.04-0.1,1.86-0.13,2.47C244.27,209.35,244.24,209.65,244.23,209.65z"/>
			</g>
		</g>
		<g>
			<g>
				<path style="fill:#263238;" d="M287.08,131.02c0.02-0.01,0.09,0.18,0.23,0.55c0.15,0.41,0.34,0.95,0.58,1.61
					c0.5,1.46,1.2,3.5,2.06,6c0.87,2.57,1.89,5.62,3.04,9.03c0.55,1.73,1.23,3.48,1.74,5.44c0.23,0.98,0.36,2.05,0.13,3.11
					c-0.22,1.04-0.78,2.11-1.78,2.72l0.08-0.36c0.85,1.25,1.73,2.58,2.57,3.97c1.23,2.07,2.26,4.24,2.8,6.48
					c0.55,2.24,0.55,4.48,0.45,6.56c-0.24,4.16-0.52,7.89-0.73,11.03c-0.23,3.09-0.42,5.61-0.55,7.43c-0.07,0.83-0.13,1.5-0.18,2.02
					c-0.05,0.46-0.08,0.7-0.1,0.7c-0.02,0-0.02-0.24-0.01-0.71c0.02-0.51,0.05-1.19,0.08-2.02c0.09-1.82,0.22-4.34,0.38-7.44
					c0.18-3.16,0.39-6.89,0.62-11.02c0.08-2.06,0.07-4.25-0.47-6.41c-0.53-2.17-1.54-4.28-2.75-6.33c-0.82-1.38-1.7-2.7-2.55-3.95
					l-0.15-0.22l0.23-0.14c0.84-0.51,1.35-1.44,1.55-2.39c0.21-0.96,0.1-1.95-0.11-2.89c-0.48-1.88-1.16-3.69-1.7-5.41
					c-1.11-3.42-2.1-6.49-2.93-9.07c-0.8-2.52-1.45-4.57-1.91-6.05c-0.2-0.67-0.37-1.22-0.49-1.64
					C287.12,131.23,287.07,131.03,287.08,131.02z"/>
			</g>
		</g>
		<g>
			<g>
				<path style="fill:#455A64;" d="M248.16,255.26c0.03,0.02-0.13,0.31-0.46,0.82c-0.32,0.51-0.8,1.23-1.42,2.11
					c-1.22,1.76-2.97,4.15-5,6.73c-2.03,2.57-3.94,4.84-5.36,6.44c-0.71,0.8-1.3,1.44-1.72,1.87c-0.42,0.43-0.66,0.66-0.69,0.64
					c-0.06-0.05,0.77-1.08,2.12-2.75c1.35-1.66,3.21-3.96,5.23-6.53c2.02-2.57,3.81-4.92,5.11-6.62
					C247.29,256.27,248.1,255.22,248.16,255.26z"/>
			</g>
		</g>
		<g>
			<g>
				<path style="fill:#455A64;" d="M263.83,242.36c0,0-0.01,0.19-0.04,0.56c-0.04,0.39-0.1,0.94-0.17,1.65
					c-0.17,1.47-0.41,3.6-0.72,6.33c-0.65,5.49-1.62,13.43-2.9,23.24c-2.53,19.61-6.37,46.66-10.5,76.54
					c-2.06,14.95-3.95,29.2-5.56,42.17c-0.42,3.24-0.75,6.41-1.21,9.48c-0.47,3.06-0.93,6.03-1.37,8.9
					c-0.87,5.75-1.68,11.1-2.42,15.99c-1.47,9.78-2.63,17.69-3.39,23.17c-0.38,2.74-0.66,4.87-0.83,6.31
					c-0.08,0.72-0.14,1.27-0.16,1.65c-0.01,0.19-0.02,0.33-0.01,0.42c0.01,0.12,0.07-0.01,0.06,0.02c0,0,0,0.01-0.01,0.03
					c-0.01,0.04-0.08,0.01-0.08-0.04c-0.02-0.1-0.02-0.24-0.02-0.42c0.01-0.37,0.05-0.93,0.11-1.65c0.13-1.45,0.38-3.58,0.73-6.33
					c0.7-5.49,1.8-13.41,3.23-23.19c0.72-4.89,1.51-10.25,2.36-16c0.43-2.87,0.88-5.85,1.34-8.91c0.45-3.06,0.77-6.23,1.18-9.47
					c1.59-12.98,3.46-27.23,5.52-42.18c4.13-29.89,8.03-56.92,10.65-76.52c1.29-9.79,2.34-17.71,3.06-23.21
					c0.35-2.73,0.63-4.85,0.82-6.31c0.1-0.71,0.17-1.25,0.23-1.64C263.79,242.54,263.83,242.36,263.83,242.36z"/>
			</g>
		</g>
		<g>
			<g>
				<path style="fill:#455A64;" d="M286.65,454.85c0,0,0.02-0.19,0.07-0.55c0.06-0.38,0.15-0.91,0.26-1.59
					c0.24-1.42,0.59-3.48,1.05-6.11c0.93-5.33,2.28-13,3.94-22.47c3.38-18.98,8.04-45.17,13.19-74.1c0.38-1.78,0.51-3.59,0.32-5.37
					c-0.23-1.78-0.52-3.57-0.79-5.34c-0.55-3.54-1.09-7.02-1.62-10.45c-1.08-6.85-2.14-13.44-3.19-19.72
					c-2.09-12.56-4.1-23.85-5.91-33.31c-1.8-9.46-3.39-17.09-4.59-22.34c-0.57-2.63-1.08-4.66-1.4-6.04
					c-0.16-0.68-0.28-1.2-0.36-1.57c-0.08-0.35-0.11-0.54-0.11-0.54s0.06,0.18,0.16,0.53c0.1,0.37,0.24,0.89,0.41,1.56
					c0.35,1.37,0.9,3.39,1.5,6.02c1.27,5.24,2.9,12.86,4.76,22.31c1.85,9.45,3.9,20.74,6.02,33.3c1.06,6.28,2.14,12.88,3.22,19.72
					c0.53,3.42,1.07,6.91,1.62,10.45c0.26,1.78,0.56,3.54,0.79,5.36c0.2,1.83,0.06,3.71-0.33,5.53
					c-5.21,28.91-9.92,55.09-13.34,74.07c-1.73,9.46-3.13,17.12-4.1,22.44c-0.49,2.63-0.88,4.68-1.14,6.1
					c-0.13,0.68-0.24,1.21-0.31,1.58C286.7,454.67,286.65,454.85,286.65,454.85z"/>
			</g>
		</g>
		<g>
			<g>
				<path style="fill:#455A64;" d="M275.39,273.87c0.14,0.02-1.63,11.92-3.95,26.58c-2.32,14.66-4.32,26.52-4.46,26.5
					c-0.14-0.02,1.63-11.92,3.95-26.58C273.25,285.71,275.25,273.85,275.39,273.87z"/>
			</g>
		</g>
		<g>
			<g>
				<path style="fill:#455A64;" d="M245.82,459.07c0,0.04-0.35,0.09-0.98,0.17c-0.63,0.08-1.55,0.16-2.69,0.25
					c-2.27,0.18-5.42,0.35-8.9,0.4c-3.48,0.06-6.63-0.01-8.91-0.11c-1.14-0.05-2.06-0.11-2.7-0.16c-0.64-0.05-0.99-0.1-0.99-0.14
					c0-0.07,1.41-0.08,3.69-0.07c2.28,0.01,5.42,0.01,8.9-0.04c3.47-0.06,6.62-0.17,8.89-0.25
					C244.41,459.04,245.82,458.99,245.82,459.07z"/>
			</g>
		</g>
		<g>
			<g>
				<path style="fill:#455A64;" d="M294.2,455.84c0,0.04-0.46,0.01-1.27-0.06c-0.92-0.1-2.07-0.22-3.44-0.37
					c-2.9-0.33-6.91-0.82-11.32-1.4c-4.42-0.57-8.42-1.12-11.31-1.54c-1.36-0.21-2.51-0.38-3.42-0.52
					c-0.81-0.13-1.25-0.22-1.25-0.25c0-0.04,0.46-0.02,1.27,0.05c0.81,0.07,1.99,0.19,3.44,0.36c2.9,0.33,6.91,0.82,11.33,1.39
					c4.42,0.57,8.42,1.12,11.31,1.55c1.36,0.21,2.51,0.39,3.42,0.53C293.77,455.71,294.21,455.8,294.2,455.84z"/>
			</g>
		</g>
		<g>
			<g>
				<path style="fill:#263238;" d="M251.99,128.92c0.02-0.03,0.42,0.23,1.11,0.71c0.78,0.54,1.77,1.22,2.94,2.04
					c2.49,1.71,5.98,3.99,9.98,6.28c1.5,0.86,2.96,1.66,4.32,2.38l-0.36,0.16c0.84-3.31,1.58-6.16,2.12-8.18
					c0.26-0.93,0.48-1.72,0.66-2.36c0.16-0.55,0.26-0.84,0.29-0.83c0.03,0.01-0.02,0.31-0.13,0.87c-0.14,0.65-0.31,1.44-0.52,2.39
					c-0.46,2.04-1.14,4.9-1.94,8.23l-0.07,0.31l-0.28-0.15c-1.37-0.71-2.84-1.5-4.35-2.37c-4.02-2.29-7.49-4.64-9.94-6.43
					c-1.22-0.89-2.19-1.65-2.85-2.18C252.32,129.26,251.96,128.95,251.99,128.92z"/>
			</g>
		</g>
		<g>
			<g>
				<path style="fill:#263238;" d="M285.03,136.28c0.06,0.09-1.78,1.33-4.42,2.99l-0.22,0.14l-0.12-0.24
					c-0.43-0.83-0.88-1.71-1.35-2.63c-1.03-2.04-1.95-3.9-2.58-5.26c-0.64-1.36-1-2.21-0.93-2.25s0.54,0.76,1.26,2.08
					c0.72,1.32,1.68,3.15,2.72,5.19c0.46,0.93,0.91,1.81,1.32,2.64l-0.34-0.1C283.04,137.26,284.97,136.19,285.03,136.28z"/>
			</g>
		</g>
		<g>
			<g>
				<path style="fill:#263238;" d="M278.48,135.3c0.02,0.02-0.32,0.28-0.88,0.69c-0.56,0.4-1.34,0.95-2.2,1.55
					c-0.87,0.59-1.66,1.12-2.24,1.5c-0.58,0.37-0.94,0.59-0.96,0.57c-0.02-0.02,0.32-0.29,0.88-0.69c0.56-0.4,1.34-0.95,2.2-1.54
					c0.87-0.59,1.66-1.12,2.24-1.49C278.1,135.5,278.46,135.28,278.48,135.3z"/>
			</g>
		</g>
		<g>
			<g>
				<path style="fill:#263238;" d="M275.48,137.37c-0.04,0.04-0.91-0.78-1.94-1.84c-1.04-1.06-1.84-1.95-1.8-1.99
					s0.91,0.79,1.94,1.84C274.71,136.44,275.52,137.33,275.48,137.37z"/>
			</g>
		</g>
		<g>
			<g>
				<path style="fill:#263238;" d="M256.64,226.08c0.17-0.03,0.12,3.49,2.07,7.21c1.89,3.75,4.79,5.75,4.66,5.87
					c-0.03,0.05-0.79-0.37-1.83-1.31c-1.04-0.93-2.31-2.42-3.29-4.33c-0.98-1.91-1.45-3.81-1.6-5.2
					C256.49,226.94,256.58,226.08,256.64,226.08z"/>
			</g>
		</g>
		<g>
			<g>
				<path style="fill:#263238;" d="M262.46,239.26c-0.01,0.13-2.27-0.1-4.76-1.28c-2.5-1.17-4.12-2.76-4.03-2.85
					c0.1-0.12,1.82,1.25,4.25,2.38C260.33,238.66,262.49,239.1,262.46,239.26z"/>
			</g>
		</g>
		<g>
			<g>
				<path style="fill:#263238;" d="M282,207.25c0.03-0.01,0.16,0.37,0.37,1.07c0.21,0.7,0.48,1.72,0.78,2.98
					c0.61,2.53,1.34,6.06,1.93,9.99c0.58,3.94,0.91,7.52,1.06,10.12c0.07,1.3,0.11,2.35,0.12,3.08c0.01,0.73-0.01,1.13-0.04,1.13
					c-0.04,0-0.09-0.4-0.16-1.12c-0.08-0.84-0.17-1.86-0.28-3.07c-0.24-2.59-0.62-6.16-1.2-10.08c-0.58-3.92-1.25-7.44-1.77-9.99
					c-0.24-1.19-0.45-2.19-0.62-3.02C282.03,207.66,281.97,207.26,282,207.25z"/>
			</g>
		</g>
		<g>
			<path style="fill:#E0E0E0;" d="M275.34,144.31c-1.3,10.39-2.26,33.02-2.62,43.49c-0.3,8.76-0.27,17.53-0.24,26.3
				c0.01,2.82,0.04,5.75,1.2,8.32c2.09,4.63,7.2,6.95,11.9,8.88L275.34,144.31z"/>
		</g>
		<g>
			<g>
				<path style="fill:#1F9CA5;" d="M287.02,229.8l5.37-13.16l-13.45-73.74l-3.92,0.39c0,0,0.55,76.64,0.37,77.33L287.02,229.8z"/>
			</g>
			<g>
				<g>
					<path style="fill:#263238;" d="M278.8,142.9c0.01,0.06-0.82,0.23-1.86,0.3c-1.04,0.08-1.89,0.03-1.89-0.03
						c0-0.06,0.84-0.1,1.87-0.18C277.95,142.93,278.79,142.85,278.8,142.9z"/>
				</g>
			</g>
		</g>
	</g>
</g>
</svg>
