<svg xmlns="http://www.w3.org/2000/svg" viewBox="0 0 750 500"><path d="M108.55 252.37s-7.92-.57-7.19 17.19c.73 17.76 2.54 27.23 2.54 27.23s-.23 3.94-3.28 3.17-8.79-4.61-11.62-1.74c-2.94 2.97-1.89 7.53 2 12.9 3.9 5.37 12.01 17.44 12.74 18.54.72 1.07 1 3.09-1.16 2.9-2.16-.19-16.76-5.14-18.69 1.93-1.93 7.07 11.39 20.24 12.81 21.71 1.43 1.47 1.51 2.39.93 3.28-.58.89-5.33-1.24-9.54-2.47-4.21-1.24-9.31-1.93-10.08 2.24-.77 4.17 5.09 16.38 27.06 29.2l10.57 5.28 10-6.38c20.58-14.96 25.19-27.69 24.01-31.76-1.19-4.07-6.19-2.87-10.25-1.22-4.06 1.65-8.58 4.24-9.24 3.42-.67-.83-.68-1.76.59-3.36 1.27-1.6 13.21-16.04 10.58-22.88-2.63-6.84-16.66-.46-18.79-.05-2.13.41-2.05-1.62-1.44-2.77.62-1.16 7.48-13.99 10.82-19.72 3.34-5.73 3.93-10.37.7-13.03-3.11-2.57-8.43 1.82-11.39 2.89s-3.58-2.82-3.58-2.82.86-9.6-.19-27.34c-1.05-17.75-9.06-16.32-9.06-16.32" fill="#ebebeb"/><path d="M109.18 268.28s.02.13.04.37c.02.26.05.62.08 1.09.07.98.16 2.39.28 4.2.24 3.64.55 8.92.91 15.44.72 13.04 1.57 31.05 2.44 50.96.87 19.91 1.67 37.93 2.32 50.97.33 6.51.6 11.78.79 15.44l.21 4.2c.02.47.03.83.04 1.09.01.25 0 .37 0 .37s-.02-.13-.04-.37c-.02-.26-.05-.62-.08-1.09-.07-.98-.16-2.39-.28-4.19-.24-3.64-.55-8.92-.91-15.44-.72-13.04-1.57-31.06-2.44-50.97-.87-19.9-1.67-37.92-2.32-50.96-.33-6.51-.6-11.78-.79-15.44l-.21-4.2c-.02-.47-.03-.83-.04-1.09-.01-.25 0-.38 0-.38z" fill="#e0e0e0"/><path d="M96.81 303.9c.02-.02.25.18.66.55.41.37.98.92 1.68 1.61 1.39 1.38 3.27 3.34 5.3 5.54 1.99 2.17 3.78 4.14 5.17 5.66.62.67 1.14 1.24 1.57 1.71.37.4.57.63.55.65-.02.02-.25-.17-.66-.54-.41-.37-.98-.92-1.67-1.62-1.38-1.4-3.23-3.38-5.26-5.58-2-2.16-3.81-4.11-5.21-5.62-.62-.67-1.15-1.23-1.58-1.7-.37-.4-.57-.64-.55-.66zM112.79 319.27c-.08-.08 3.79-4.13 8.63-9.04 4.85-4.92 8.84-8.83 8.92-8.76.08.08-3.78 4.13-8.63 9.04-4.85 4.92-8.85 8.84-8.92 8.76zM112.74 349.9c-.01-.02.25-.19.74-.47.56-.32 1.25-.7 2.07-1.16 1.74-.98 4.15-2.34 6.75-3.94 2.6-1.59 4.91-3.11 6.57-4.23.78-.52 1.43-.96 1.97-1.32.47-.31.74-.47.75-.44.02.02-.22.23-.66.57-.44.35-1.09.84-1.9 1.42a99.578 99.578 0 01-6.53 4.34c-2.61 1.6-5.04 2.93-6.82 3.85-.89.46-1.62.81-2.13 1.05-.51.23-.8.35-.81.33zM95.23 339.18c.01-.02.27.1.73.34.46.24 1.11.61 1.92 1.06 1.61.91 3.82 2.2 6.24 3.64 2.43 1.44 4.61 2.77 6.18 3.75.79.49 1.42.89 1.85 1.18.43.29.66.45.65.48-.01.02-.27-.1-.73-.34-.46-.24-1.11-.61-1.92-1.06-1.61-.91-3.82-2.2-6.24-3.64-2.43-1.44-4.61-2.77-6.18-3.75-.79-.49-1.42-.89-1.85-1.18-.43-.29-.66-.46-.65-.48zM91.76 366.21c.01-.02.34.14.93.45.65.36 1.48.81 2.46 1.36 2.07 1.16 4.91 2.79 8.04 4.61 3.13 1.82 5.95 3.49 7.98 4.71.96.59 1.76 1.08 2.4 1.47.56.35.86.56.85.59-.01.02-.34-.14-.93-.45-.65-.36-1.48-.81-2.46-1.36-2.07-1.16-4.91-2.79-8.04-4.61-3.13-1.82-5.95-3.49-7.98-4.71-.96-.59-1.76-1.08-2.4-1.47-.56-.35-.87-.56-.85-.59zM113.96 378.93c-.01-.02.31-.24.92-.62.67-.41 1.54-.93 2.57-1.56 2.17-1.32 5.16-3.16 8.4-5.27 3.25-2.11 6.14-4.1 8.22-5.55.99-.69 1.82-1.27 2.47-1.72.59-.4.92-.61.93-.59.02.02-.28.28-.84.72-.56.44-1.37 1.07-2.4 1.82-2.04 1.51-4.91 3.54-8.17 5.66-3.25 2.12-6.27 3.92-8.48 5.18-1.11.63-2.01 1.13-2.64 1.45-.61.33-.97.5-.98.48zM129.84 397.17H100.6l9.55 72.24h10.15z" fill="#e0e0e0"/><path d="M102.12 406.05c-.01.01.03.1.16.26.12.15.35.35.71.5.69.3 1.91.33 3.09-.38 1.18-.65 2.21-1.93 3.79-2.5 1.57-.6 3.51-.49 5.38.11 1.89.58 3.52 1.54 5.01 2.43 1.49.88 2.85 1.67 4.07 2.18 1.21.53 2.27.77 3 .87.37.05.65.06.85.06.19 0 .3-.01.3-.02.02-.1-1.65-.08-4.01-1.21-1.18-.54-2.51-1.35-3.98-2.25-1.47-.91-3.15-1.9-5.09-2.5-1.92-.62-3.99-.73-5.68-.06-.84.32-1.55.82-2.14 1.32-.6.49-1.13.96-1.67 1.3-1.07.69-2.19.72-2.85.49-.68-.25-.9-.64-.94-.6zM103.19 419.35c.04.02.23-.3.69-.78.47-.46 1.23-1.07 2.34-1.48 1.1-.42 2.51-.67 4.07-.61 1.57.05 3.27.4 5.09.69 1.81.3 3.61.44 5.21.22 1.6-.21 2.99-.67 4.1-1.17 1.11-.51 1.93-1.06 2.46-1.47.54-.41.8-.68.78-.7-.05-.08-1.18.93-3.38 1.86-1.1.45-2.46.87-4.02 1.04-1.56.19-3.28.05-5.08-.25-1.8-.29-3.53-.63-5.15-.66-1.62-.04-3.08.26-4.21.74-1.14.47-1.91 1.15-2.35 1.67-.21.27-.36.49-.44.65-.09.16-.12.24-.11.25zM126.53 426.48c.01-.02-.26-.2-.81-.42-.54-.22-1.37-.44-2.42-.52-1.05-.08-2.3-.02-3.66.21-1.36.22-2.83.6-4.36.92-1.53.32-3.01.54-4.35.49-1.34-.05-2.53-.34-3.46-.75-1.88-.83-2.55-2.03-2.62-1.95-.02.01.11.31.49.76s1.03 1.03 1.99 1.49c.95.47 2.18.81 3.58.88 1.4.08 2.92-.14 4.47-.46 1.55-.33 3-.72 4.34-.96 1.33-.24 2.55-.34 3.57-.31 2.05.08 3.21.7 3.24.62zM105.77 436.5c.01.08 1.04-.65 2.84-.29.88.16 1.86.6 2.97 1.11 1.1.51 2.43.95 3.86 1.06 2.87.28 5.43-.65 6.99-1.62.8-.48 1.36-.99 1.74-1.34.36-.38.54-.6.51-.62-.06-.07-.83.79-2.42 1.67-1.57.87-4.03 1.7-6.78 1.44-2.77-.16-4.89-1.81-6.81-2.03-.94-.14-1.72-.01-2.21.19-.49.19-.7.41-.69.43zM107.4 450.36c0 .05.98.05 2.44-.48 1.47-.49 3.29-1.62 5.41-2.46 1.07-.41 2.13-.66 3.11-.65.97 0 1.84.24 2.5.57 1.34.67 1.73 1.62 1.81 1.56.02-.01-.04-.25-.28-.62-.24-.37-.68-.85-1.37-1.24-.68-.39-1.6-.68-2.65-.71-1.05-.03-2.18.22-3.28.64-2.2.88-3.96 2.04-5.37 2.59-1.39.6-2.33.72-2.32.8zM108.84 456.81c-.02.06.68.31 1.85.6s2.8.6 4.63.78c1.83.18 3.49.19 4.69.14 1.2-.06 1.94-.17 1.93-.23-.01-.14-2.96-.02-6.58-.38-3.61-.35-6.49-1.05-6.52-.91z" fill="#f5f5f5"/><g><path fill="#e0e0e0" d="M640.277 55.808l9.96-.054.265 49.54-9.96.054z"/><path fill="#ebebeb" d="M554.035 56.03l25.78-.138.146 27.35-25.78.138z"/><path fill="#f5f5f5" d="M579.695 55.89l25.78-.138.147 27.35-25.78.138z"/><path d="M554.07 63.58c17.13.14 34.31.04 51.44-.24.35-.01.35-.55 0-.55-17.13-.09-34.31-.01-51.44.31-.31.01-.3.48 0 .48z" fill="#e0e0e0"/><path fill="#ebebeb" d="M537.958 83.027l46.84-.251.12 22.29-46.84.25z"/><path fill="#f5f5f5" d="M584.579 82.777l46.84-.251.12 22.29-46.84.25z"/><path d="M537.99 89.23c31.12.35 62.34.04 93.45-.46.35-.01.35-.55 0-.55-31.12-.16-62.34-.15-93.45.54-.31 0-.31.46 0 .47zM520.47 105.32h181.47v7.98H520.47z" fill="#e0e0e0"/><path fill="#e0e0e0" d="M550.18 109.15h7.37v27.24h-7.37zM660.15 109.15h7.37v27.24h-7.37z"/><g><path fill="#ebebeb" d="M649.997 37.338l9.96-.054.365 68.13-9.96.054z"/></g><g><path fill="#f5f5f5" d="M660.041 50.053l15.47-.083.297 55.21-15.47.083z"/><path d="M675.39 60.61c0 .15-3.46.27-7.73.27-4.27 0-7.73-.12-7.73-.27 0-.15 3.46-.27 7.73-.27 4.27 0 7.73.12 7.73.27zM675.39 58.29c0 .15-3.46.27-7.73.27-4.27 0-7.73-.12-7.73-.27 0-.15 3.46-.27 7.73-.27 4.27 0 7.73.12 7.73.27zM675.39 96.87c0 .15-3.46.27-7.73.27-4.27 0-7.73-.12-7.73-.27 0-.15 3.46-.27 7.73-.27 4.27 0 7.73.12 7.73.27zM675.39 94.55c0 .15-3.46.27-7.73.27-4.27 0-7.73-.12-7.73-.27 0-.15 3.46-.27 7.73-.27 4.27.01 7.73.13 7.73.27zM667.91 89.49c-.15 0-.27-5.57-.27-12.44 0-6.87.12-12.44.27-12.44.15 0 .27 5.57.27 12.44 0 6.87-.12 12.44-.27 12.44z" fill="#e0e0e0"/></g><g><path fill="#ebebeb" d="M675.56 63.53h16.84v41.67h-16.84z"/></g><g><path d="M657.68 48.92a2.86 2.86 0 11-5.719.001 2.86 2.86 0 015.719-.001z" fill="#e0e0e0"/></g><g><path fill="#e0e0e0" d="M653.93 56.79h1.77v40.53h-1.77z"/></g></g><g><path fill="#e0e0e0" d="M80.22 38.79h105.56v153H80.22z"/><path fill="#f5f5f5" d="M74.93 38.79h105.56v153H74.93z"/><path fill="#fff" d="M88.04 55.36h79.33v119.86H88.04z"/><path d="M167.37 175.22s-.01-.2-.02-.59c0-.4-.01-.96-.02-1.7-.01-1.51-.02-3.71-.03-6.57-.02-5.74-.04-14.12-.07-24.69-.03-21.13-.08-51.06-.13-86.31l.26.26c-24.24.01-51.09.02-79.32.02h-.01l.29-.29c-.02 45.21-.04 86.9-.06 119.86l-.23-.23c24.16.05 43.96.09 57.74.12 6.89.03 12.28.04 15.95.06 1.83.01 3.23.02 4.19.03.96.01 1.46.03 1.46.03s-.47.02-1.4.02c-.95.01-2.34.01-4.14.03-3.66.01-9.03.03-15.9.06-13.81.03-33.66.07-57.88.12h-.23v-.23c-.02-32.95-.04-74.64-.06-119.86v-.29h.3c28.23.01 55.08.02 79.32.02h.26v.26c-.05 35.31-.1 65.3-.13 86.48-.03 10.55-.05 18.9-.07 24.63-.01 2.84-.02 5.03-.03 6.52-.01.73-.01 1.28-.02 1.67-.01.39-.02.57-.02.57z" fill="#e0e0e0"/><path d="M180.78 38.79c.06.05-.66 1.09-1.88 2.73-1.23 1.64-2.97 3.87-4.95 6.28-1.99 2.41-3.84 4.55-5.22 6.07-1.37 1.52-2.26 2.42-2.32 2.37-.06-.05.72-1.05 2.01-2.63 1.42-1.72 3.16-3.83 5.08-6.17s3.66-4.45 5.08-6.17c1.31-1.57 2.14-2.53 2.2-2.48z" fill="#e0e0e0"/><path d="M167.77 174.83a98.131 98.131 0 0013.84 17.3" fill="#fff"/><path d="M181.61 192.14c-.05.05-.99-.76-2.41-2.19-1.42-1.43-3.3-3.49-5.22-5.89a74.63 74.63 0 01-4.59-6.39c-1.08-1.7-1.67-2.8-1.61-2.84.07-.04.78.98 1.95 2.61 1.16 1.63 2.8 3.87 4.71 6.26 1.91 2.39 3.73 4.47 5.07 5.97 1.32 1.49 2.16 2.41 2.1 2.47z" fill="#e0e0e0"/><path d="M74.91 191.67c4.61-5.69 9.22-11.37 13.83-17.06" fill="#fff"/><path d="M88.74 174.61c.12.1-2.87 4-6.69 8.71-3.82 4.71-7.01 8.45-7.14 8.35-.12-.1 2.87-4 6.69-8.71 3.82-4.71 7.02-8.45 7.14-8.35z" fill="#e0e0e0"/><g><path d="M74.93 38.79c.12-.1 3.13 3.49 6.71 8.02 3.58 4.53 6.39 8.28 6.26 8.38-.12.1-3.13-3.49-6.71-8.02-3.58-4.53-6.39-8.28-6.26-8.38z" fill="#e0e0e0"/></g><g><path fill="#e0e0e0" d="M116.09 79.7h26.56v75.42h-26.56z"/></g></g><g><path fill="#f5f5f5" d="M450.66 333.69h184.45v85.07H450.66z"/><path d="M630.72 414.75H454.88v-76.58h175.84v76.58zm-174.69-1.15h173.54v-74.29H456.03v74.29zM635.11 333.69h45.06v85.07h-45.06z" fill="#e0e0e0"/><path d="M455.45 361.87h174.69c.3 0 .3-.46 0-.46H455.45c-.3-.01-.3.46 0 .46z" fill="#e0e0e0"/><path d="M543.37 361.64c.52-7.55.47-15.55.06-23.11-.02-.3-.45-.3-.47 0-.41 7.56-.46 15.56.06 23.11.01.22.33.22.35 0zM590.39 350.08c0 1.31-1.07 2.38-2.38 2.38-1.31 0-2.38-1.07-2.38-2.38 0-1.31 1.07-2.38 2.38-2.38 1.31 0 2.38 1.07 2.38 2.38zM498.71 350.08c0 1.31-1.07 2.38-2.38 2.38-1.31 0-2.38-1.07-2.38-2.38a2.38 2.38 0 114.76 0zM545.18 376.46c0 1.31-1.07 2.38-2.38 2.38-1.31 0-2.38-1.07-2.38-2.38a2.38 2.38 0 114.76 0zM472.71 418.76l-9.5 53.4h5.34l17.51-53.4zM622.06 418.76l7.94 53.5h-5.34l-15.96-53.5zM657.72 418.76l8.99 53.5h-5.34l-17.01-53.5zM545.02 400.53c0 1.31-1.07 2.38-2.38 2.38-1.31 0-2.38-1.07-2.38-2.38 0-1.31 1.07-2.38 2.38-2.38 1.31 0 2.38 1.07 2.38 2.38zM455.45 388.21h174.69c.3 0 .3-.46 0-.46H455.45c-.3 0-.3.46 0 .46z" fill="#e0e0e0"/></g><g><path fill="#f5f5f5" d="M296.31 439.47v32.34H395.76v-32.34z"/><path fill="#e0e0e0" d="M292.14 430.43v9.04h107.1v-9.04H343.6z"/><path fill="#e0e0e0" d="M345.69 471.81h50.07v-32.34h3.48v-9.04H343.6v8.21zM310.22 444.69h20.17v4.87h-20.17z"/><path fill="#fff" d="M307.63 455.64h25.9v10.28h-25.9z"/></g><g><path fill="#f5f5f5" d="M311.61 398.14v32.34H411.06v-32.34z"/><path fill="#e0e0e0" d="M307.44 389.1v9.04h107.1v-9.04H358.9z"/><path fill="#e0e0e0" d="M360.99 430.48h50.07v-32.34h3.48v-9.04H358.9v8.2zM325.52 403.35h20.17v4.87h-20.17z"/><path fill="#fff" d="M322.93 414.31h25.9v10.28h-25.9z"/></g><g><path d="M612.06 271.23c1.81-1.09 3.73-1.92 5.72-2.48l1.18-5.66 9.56-.17 1.38 5.61c2 .49 3.96 1.25 5.8 2.28l4.83-3.17 6.88 6.64-3 4.94c1.09 1.81 1.92 3.73 2.48 5.72l5.66 1.18.17 9.56-5.61 1.38c-.49 2-1.25 3.96-2.28 5.8l3.17 4.83-6.64 6.88-4.94-3a23.329 23.329 0 01-5.72 2.48l-1.18 5.66-9.56.17-1.38-5.61c-2-.49-3.96-1.25-5.8-2.28l-4.83 3.17-6.88-6.64 3-4.94a23.329 23.329 0 01-2.48-5.72l-5.66-1.18-.17-9.56 5.61-1.38c.49-2 1.25-3.96 2.28-5.8l-3.17-4.83 6.64-6.88 4.94 3zm5.1 12.74c-3.94 4.08-3.82 10.57.26 14.51 4.08 3.94 10.57 3.82 14.51-.26 3.93-4.08 3.82-10.57-.26-14.51-4.08-3.93-10.58-3.81-14.51.26z" fill="#ebebeb"/></g><g><path d="M309.15 274.67c3.15-1.9 6.51-3.35 9.97-4.33l2.05-9.87 16.67-.29 2.4 9.79c3.49.86 6.9 2.19 10.11 3.98l8.42-5.52L370.76 280l-5.22 8.61c1.91 3.15 3.35 6.51 4.33 9.97l9.86 2.05.29 16.67-9.79 2.4c-.86 3.49-2.19 6.9-3.98 10.11l5.52 8.42-11.58 11.99-8.61-5.22c-3.15 1.9-6.51 3.35-9.97 4.33l-2.05 9.87-16.67.29-2.4-9.79c-3.49-.86-6.9-2.19-10.11-3.98l-8.42 5.52-11.99-11.58 5.22-8.61c-1.9-3.15-3.35-6.51-4.33-9.97l-9.86-2.05-.29-16.67 9.79-2.4c.86-3.49 2.19-6.9 3.98-10.11l-5.52-8.42 11.58-11.99 8.61 5.23zm8.88 22.2c-6.86 7.11-6.66 18.43.44 25.29 7.11 6.86 18.43 6.66 25.29-.44 6.86-7.11 6.66-18.43-.44-25.29-7.11-6.86-18.43-6.66-25.29.44z" fill="#ebebeb"/></g><g><path d="M414.1 176.81c1.53-.93 3.17-1.63 4.85-2.11l1-4.8 8.11-.14 1.17 4.76c1.7.42 3.36 1.06 4.92 1.94l4.1-2.69 5.84 5.63-2.54 4.19c.93 1.53 1.63 3.17 2.11 4.85l4.8 1 .14 8.11-4.76 1.17c-.42 1.7-1.06 3.36-1.94 4.92l2.69 4.1-5.63 5.84-4.19-2.54c-1.53.93-3.17 1.63-4.85 2.11l-1 4.8-8.11.14-1.17-4.76c-1.7-.42-3.36-1.06-4.92-1.94l-4.1 2.69-5.84-5.63 2.54-4.19c-.93-1.53-1.63-3.17-2.11-4.85l-4.8-1-.14-8.11 4.76-1.17c.42-1.7 1.06-3.36 1.94-4.92l-2.69-4.1 5.63-5.84 4.19 2.54zm4.32 10.81c-3.34 3.46-3.24 8.97.22 12.3 3.46 3.34 8.97 3.24 12.3-.22 3.34-3.46 3.24-8.97-.22-12.3-3.45-3.34-8.96-3.24-12.3.22z" fill="#f5f5f5"/></g><g><path d="M463.95 199.52c2.69-1.62 5.55-2.86 8.5-3.69l1.75-8.42 14.22-.25 2.05 8.35c2.98.73 5.88 1.86 8.63 3.39l7.19-4.71 10.23 9.88-4.45 7.35c1.63 2.69 2.86 5.55 3.69 8.5l8.41 1.75.25 14.22-8.35 2.05c-.73 2.98-1.86 5.88-3.39 8.63l4.71 7.19-9.88 10.23-7.35-4.45a34.713 34.713 0 01-8.5 3.69l-1.75 8.42-14.22.25-2.05-8.35c-2.98-.73-5.88-1.87-8.63-3.39l-7.19 4.71-10.23-9.88 4.45-7.35a35.132 35.132 0 01-3.7-8.5l-8.42-1.75-.25-14.22 8.35-2.05c.73-2.98 1.87-5.88 3.39-8.63l-4.71-7.19 9.88-10.23 7.37 4.45zm7.58 18.95c-5.85 6.06-5.68 15.72.38 21.57s15.72 5.68 21.57-.38 5.68-15.72-.38-21.57c-6.06-5.86-15.72-5.69-21.57.38z" fill="#ebebeb"/></g><g><path d="M470.88 126.75c1.34-.81 2.78-1.43 4.25-1.85l.88-4.21 7.11-.12 1.02 4.17c1.49.37 2.94.93 4.31 1.7l3.59-2.36 5.12 4.94-2.23 3.67c.81 1.34 1.43 2.78 1.85 4.25l4.21.88.12 7.11-4.17 1.02c-.37 1.49-.93 2.94-1.7 4.31l2.35 3.59-4.94 5.12-3.67-2.23c-1.34.81-2.78 1.43-4.25 1.85l-.88 4.21-7.11.12-1.02-4.17c-1.49-.37-2.94-.93-4.31-1.7l-3.59 2.36-5.12-4.94 2.23-3.67c-.81-1.34-1.43-2.78-1.85-4.25l-4.21-.88-.12-7.11 4.17-1.02c.37-1.49.93-2.94 1.7-4.31l-2.36-3.59 4.94-5.12 3.68 2.23zm3.79 9.47c-2.93 3.03-2.84 7.86.19 10.79 3.03 2.93 7.86 2.84 10.79-.19 2.93-3.03 2.84-7.86-.19-10.79-3.04-2.92-7.87-2.84-10.79.19z" fill="#ebebeb"/></g><g><path d="M385.9 231.55a45.12 45.12 0 0110.97-4.77l2.26-10.86 18.34-.32 2.64 10.77c3.84.95 7.59 2.41 11.13 4.38l9.27-6.08 13.2 12.74-5.75 9.48a45.12 45.12 0 014.77 10.97l10.85 2.26.32 18.34-10.77 2.64c-.95 3.84-2.41 7.59-4.38 11.13l6.07 9.27-12.74 13.2-9.48-5.75a45.12 45.12 0 01-10.97 4.77l-2.26 10.86-18.34.32-2.64-10.77c-3.84-.95-7.59-2.41-11.13-4.38l-9.27 6.08-13.2-12.74 5.75-9.48c-2.1-3.47-3.69-7.16-4.77-10.97l-10.85-2.26-.32-18.34 10.77-2.64c.95-3.84 2.41-7.59 4.38-11.13l-6.08-9.27 12.74-13.2 9.49 5.75z" fill="#e9a84e"/><path fill="#fff" d="M387.65 252.83h10.08v31.47h-10.08zM402.7 260.02h10.08v24.28H402.7zM416.62 269.88h10.08v14.42h-10.08z"/><path d="M234.86 229.32a45.12 45.12 0 0110.97-4.77l2.26-10.86 18.34-.32 2.64 10.77c3.84.95 7.59 2.41 11.13 4.38l9.27-6.08 13.2 12.74-5.75 9.48a45.12 45.12 0 014.77 10.97l10.85 2.26.32 18.34-10.77 2.64c-.95 3.84-2.41 7.59-4.38 11.13l6.07 9.27-12.74 13.2-9.48-5.75a45.12 45.12 0 01-10.97 4.77l-2.26 10.86-18.33.32-2.64-10.77c-3.84-.95-7.59-2.41-11.13-4.38l-9.27 6.08-13.2-12.74 5.75-9.48c-2.1-3.47-3.69-7.16-4.77-10.97l-10.85-2.26-.32-18.34 10.77-2.64c.95-3.84 2.41-7.59 4.38-11.13l-6.08-9.27 12.74-13.2 9.48 5.75z" fill="#e9a84e"/><path d="M261.13 298.76c-13.68 0-25.97-9.15-29.87-22.25-.08-.26.07-.54.34-.62.26-.08.54.07.62.34 3.78 12.68 15.67 21.53 28.91 21.53 16.64 0 30.17-13.53 30.17-30.17s-13.53-30.17-30.17-30.17c-13.9 0-25.95 9.41-29.29 22.89-.07.27-.34.43-.61.37a.512.512 0 01-.37-.61 31.107 31.107 0 0130.26-23.65c17.19 0 31.17 13.98 31.17 31.17.01 17.18-13.98 31.17-31.16 31.17z" fill="#fff"/><path d="M260.96 289.24c-9.67 0-18.25-6.51-20.86-15.82-.07-.27.08-.54.35-.62.26-.07.54.08.62.35 2.49 8.88 10.67 15.09 19.9 15.09 11.39 0 20.66-9.27 20.66-20.66s-9.27-20.66-20.66-20.66c-9.22 0-17.4 6.2-19.89 15.08-.07.27-.35.42-.62.35a.502.502 0 01-.35-.62c2.61-9.31 11.19-15.82 20.86-15.82 11.94 0 21.66 9.72 21.66 21.66-.02 11.96-9.73 21.67-21.67 21.67z" fill="#fff"/><path d="M260.96 272.44a5.47 5.47 0 01-3.09-.95.487.487 0 01-.13-.69c.15-.23.47-.29.69-.13.75.51 1.63.77 2.53.77 2.5 0 4.53-2.03 4.53-4.53 0-2.5-2.03-4.53-4.53-4.53-.75 0-1.49.19-2.14.54-.24.13-.55.04-.68-.2a.506.506 0 01.2-.68c.8-.43 1.7-.66 2.62-.66 3.05 0 5.53 2.48 5.53 5.53 0 3.05-2.48 5.53-5.53 5.53z" fill="#fff"/><path fill="#fff" d="M261.13 266.72l-8.08-3.93.15 3.5-21.47.51.24 1.57 21.5-.35.06 3.56z"/><path d="M237.64 267.32l-.12-.23a3.478 3.478 0 00-2.96-1.88l-7.1-.27 3.08 2.79-2.73 3.37 6.8-.14a3.496 3.496 0 003.28-2.54l-.25-1.1z" fill="#fff"/><g><path d="M261.13 280.66c-5.77 0-10.93-3.87-12.55-9.41-.08-.26.07-.54.34-.62.27-.08.54.07.62.34 1.49 5.12 6.26 8.69 11.59 8.69 6.66 0 12.07-5.42 12.07-12.07 0-6.66-5.42-12.07-12.07-12.07-5.28 0-10.03 3.53-11.56 8.59-.08.26-.36.42-.62.33a.5.5 0 01-.33-.62c1.65-5.47 6.8-9.3 12.52-9.3 7.21 0 13.07 5.86 13.07 13.07-.01 7.2-5.88 13.07-13.08 13.07z" fill="#fff"/></g><g><path d="M535.33 228.48a45.12 45.12 0 0110.97-4.77l2.26-10.86 18.34-.32 2.64 10.77c3.84.95 7.59 2.41 11.13 4.38l9.27-6.08 13.2 12.74-5.75 9.48a45.12 45.12 0 014.77 10.97l10.85 2.26.32 18.34-10.77 2.64c-.95 3.84-2.41 7.59-4.38 11.13l6.07 9.27-12.74 13.2-9.48-5.75a45.12 45.12 0 01-10.97 4.77l-2.26 10.86-18.34.32-2.64-10.77c-3.84-.95-7.59-2.41-11.13-4.38l-9.27 6.08-13.2-12.74 5.75-9.48c-2.1-3.47-3.69-7.16-4.77-10.97l-10.85-2.26-.32-18.34 10.77-2.64c.95-3.84 2.41-7.59 4.38-11.13l-6.08-9.27 12.74-13.2 9.49 5.75z" fill="#e9a84e"/><path fill="#fff" d="M531.82 268.76l7.03-7.03 13.55 12.05 26.61-25.6 6.53 7.03-34.14 32.13z"/></g><g><path d="M350.17 234.2c-.01 0 .03-.11.12-.31.1-.23.23-.53.4-.9.18-.41.4-.89.66-1.46.25-.58.56-1.25.98-1.96.4-.72.84-1.53 1.33-2.4.51-.86 1.13-1.76 1.77-2.74.61-1 1.42-1.97 2.21-3.03.77-1.08 1.73-2.11 2.7-3.23.94-1.14 2.1-2.17 3.22-3.33.55-.59 1.2-1.1 1.83-1.65.64-.54 1.27-1.12 1.94-1.67.69-.53 1.39-1.06 2.11-1.6.36-.27.71-.55 1.09-.81.38-.25.76-.5 1.15-.76.78-.5 1.55-1.04 2.36-1.54.83-.47 1.67-.95 2.51-1.43.84-.51 1.74-.9 2.64-1.35.9-.43 1.8-.91 2.76-1.26.95-.38 1.91-.77 2.88-1.16.99-.32 2-.65 3.01-.97 4.07-1.21 8.42-2.05 12.92-2.35 4.51-.23 8.93.09 13.12.81 1.04.21 2.08.41 3.1.61 1.01.27 2.01.54 2.99.81 1 .24 1.94.61 2.89.92.94.33 1.89.62 2.78 1.02.9.38 1.79.75 2.67 1.12.86.4 1.69.84 2.52 1.25.41.21.82.41 1.23.62.4.21.79.45 1.17.68.77.45 1.54.9 2.28 1.34.73.46 1.43.96 2.12 1.43.69.48 1.39.91 2.01 1.43 1.25 1.01 2.53 1.9 3.59 2.92 1.09.99 2.17 1.9 3.06 2.89.91.97 1.83 1.83 2.55 2.75.75.9 1.47 1.72 2.08 2.52l1.6 2.23c.5.66.88 1.28 1.2 1.83.32.54.6.99.83 1.37.21.35.37.63.5.85.11.19.16.29.15.3-.01 0-.08-.09-.2-.27-.14-.21-.32-.48-.54-.82-.24-.37-.53-.82-.87-1.34-.33-.54-.73-1.15-1.24-1.8-.49-.66-1.04-1.39-1.63-2.19-.62-.78-1.35-1.59-2.1-2.48-.73-.91-1.65-1.76-2.57-2.71-.9-.97-1.98-1.87-3.07-2.84-1.07-1.01-2.34-1.88-3.59-2.88-.62-.51-1.32-.93-2.01-1.4-.69-.46-1.39-.95-2.12-1.4-.75-.43-1.5-.87-2.27-1.32-.39-.22-.77-.46-1.17-.67-.41-.2-.81-.4-1.23-.61-.83-.4-1.65-.84-2.51-1.23-.87-.36-1.76-.73-2.65-1.1-.88-.4-1.83-.68-2.76-1.01-.94-.31-1.88-.68-2.87-.91-.98-.26-1.97-.53-2.97-.79-1.02-.2-2.04-.4-3.08-.6-4.15-.71-8.53-1.02-13-.79-4.46.3-8.77 1.13-12.81 2.32-1 .32-2 .64-2.98.96-.96.38-1.91.76-2.85 1.14-.95.35-1.84.82-2.74 1.24-.89.44-1.79.82-2.62 1.33-.84.48-1.68.95-2.5 1.41-.81.49-1.57 1.02-2.35 1.51-.38.25-.77.5-1.14.75-.37.26-.72.54-1.08.8-.71.54-1.41 1.06-2.1 1.58-.67.54-1.3 1.11-1.94 1.65-.62.55-1.27 1.05-1.83 1.63-1.12 1.14-2.28 2.15-3.22 3.28-.97 1.1-1.93 2.12-2.71 3.19-.8 1.05-1.61 2-2.23 2.99-.64.97-1.27 1.86-1.8 2.71-.5.86-.95 1.66-1.36 2.37-.43.7-.75 1.36-1.02 1.93-.27.56-.51 1.04-.7 1.44-.18.37-.33.66-.44.88-.09.16-.15.26-.16.26z" fill="#263238"/></g><g><path d="M370.87 201.13c-.02-.03.39-.31 1.14-.79.75-.49 1.87-1.12 3.28-1.85 2.83-1.45 6.93-3.13 11.67-4.24 4.74-1.1 9.16-1.41 12.34-1.36 1.59.02 2.88.1 3.76.2.88.1 1.37.17 1.37.2 0 .04-.5.03-1.38 0-.88-.04-2.17-.06-3.74-.04-3.16.04-7.53.41-12.22 1.5-4.69 1.1-8.77 2.7-11.62 4.06-1.43.68-2.57 1.26-3.34 1.69-.8.44-1.24.66-1.26.63z" fill="#263238"/></g><g><path d="M611.2 302.81c.01 0-.03.11-.12.31-.1.23-.23.53-.4.9-.18.41-.4.89-.66 1.46-.25.58-.56 1.25-.98 1.96-.4.72-.84 1.53-1.33 2.4-.51.86-1.13 1.76-1.77 2.74-.61 1-1.42 1.97-2.21 3.03-.77 1.08-1.73 2.11-2.7 3.23-.94 1.14-2.1 2.17-3.22 3.33-.55.59-1.2 1.1-1.83 1.65-.64.54-1.27 1.12-1.94 1.67-.69.53-1.39 1.06-2.11 1.6-.36.27-.71.55-1.09.81-.38.25-.76.5-1.15.76-.78.5-1.55 1.04-2.36 1.54-.83.47-1.67.95-2.51 1.43-.84.51-1.74.9-2.64 1.35-.9.43-1.8.91-2.76 1.26-.95.38-1.91.77-2.88 1.16-.99.32-2 .65-3.01.97-4.07 1.21-8.42 2.05-12.92 2.35-4.51.23-8.93-.09-13.12-.81-1.04-.21-2.08-.41-3.1-.61-1.01-.27-2.01-.54-2.99-.81-1-.24-1.94-.61-2.89-.92-.94-.33-1.89-.62-2.78-1.02-.9-.38-1.79-.75-2.67-1.12-.86-.4-1.69-.84-2.52-1.25-.41-.21-.82-.41-1.23-.62-.4-.21-.79-.45-1.17-.68-.77-.45-1.54-.9-2.28-1.34-.73-.46-1.43-.96-2.12-1.43-.69-.48-1.39-.91-2.01-1.43-1.25-1.01-2.53-1.9-3.59-2.92-1.09-.99-2.17-1.9-3.06-2.89-.91-.97-1.83-1.83-2.55-2.75-.75-.9-1.47-1.72-2.08-2.52l-1.6-2.23c-.5-.66-.88-1.28-1.2-1.83-.32-.54-.6-.99-.83-1.37-.21-.35-.37-.63-.5-.85-.11-.19-.16-.29-.15-.3.01 0 .08.09.2.27.14.21.32.48.54.82.24.37.53.82.87 1.34.33.54.73 1.15 1.24 1.8.49.66 1.04 1.39 1.63 2.19.62.78 1.35 1.59 2.1 2.48.73.91 1.65 1.76 2.57 2.71.9.97 1.98 1.87 3.07 2.84 1.07 1.01 2.34 1.88 3.59 2.88.62.51 1.32.93 2.01 1.4.69.46 1.39.95 2.12 1.4.75.43 1.5.87 2.27 1.32.39.22.77.46 1.17.67.41.2.81.4 1.23.61.83.4 1.65.84 2.51 1.23.87.36 1.76.73 2.65 1.1.88.4 1.83.68 2.76 1.01.94.31 1.88.68 2.87.91.98.26 1.97.53 2.97.79 1.02.2 2.04.4 3.08.6 4.15.71 8.53 1.02 13 .79 4.46-.3 8.77-1.13 12.81-2.32 1-.32 2-.64 2.98-.96.96-.38 1.91-.76 2.85-1.14.95-.35 1.84-.82 2.74-1.24.89-.44 1.79-.82 2.62-1.33.84-.48 1.68-.95 2.5-1.41.81-.49 1.57-1.02 2.35-1.51.38-.25.77-.5 1.14-.75.37-.26.72-.54 1.08-.8.71-.54 1.41-1.06 2.1-1.58.67-.54 1.3-1.11 1.94-1.65.62-.55 1.27-1.05 1.83-1.63 1.12-1.14 2.28-2.15 3.22-3.28.97-1.1 1.93-2.11 2.71-3.19.8-1.05 1.61-2 2.23-2.99.64-.97 1.27-1.86 1.8-2.71.5-.86.95-1.66 1.36-2.37.43-.7.75-1.36 1.02-1.93.27-.56.51-1.04.7-1.44.18-.37.33-.66.44-.88.1-.16.16-.26.16-.26z" fill="#263238"/></g><g><path d="M590.91 338.92c.02.03-.39.31-1.14.79-.75.49-1.87 1.12-3.28 1.85-2.83 1.45-6.93 3.13-11.67 4.24-4.74 1.1-9.16 1.41-12.34 1.36-1.59-.02-2.88-.1-3.76-.2-.88-.1-1.37-.17-1.37-.2s.5-.03 1.38 0c.88.04 2.17.06 3.74.04 3.16-.04 7.53-.41 12.22-1.5 4.69-1.1 8.77-2.7 11.62-4.06 1.43-.68 2.57-1.26 3.34-1.69.8-.44 1.24-.66 1.26-.63z" fill="#263238"/></g><g><path d="M311.98 300.59c.01 0-.03.11-.12.31-.1.23-.23.53-.4.9-.18.41-.4.89-.66 1.46-.25.58-.56 1.25-.98 1.96-.4.72-.84 1.53-1.33 2.4-.51.86-1.13 1.76-1.77 2.74-.61 1-1.42 1.97-2.21 3.03-.77 1.08-1.73 2.11-2.7 3.23-.94 1.14-2.1 2.17-3.22 3.33-.55.59-1.2 1.1-1.83 1.65-.64.54-1.27 1.12-1.94 1.67-.69.53-1.39 1.06-2.11 1.6-.36.27-.71.55-1.09.81-.38.25-.76.5-1.15.76-.78.5-1.55 1.04-2.36 1.54-.83.47-1.67.95-2.51 1.43-.84.51-1.74.9-2.64 1.35-.9.43-1.8.91-2.76 1.26-.95.38-1.91.77-2.88 1.16-.99.32-2 .65-3.01.97-4.07 1.21-8.42 2.05-12.92 2.35-4.51.23-8.93-.09-13.12-.81-1.04-.21-2.08-.41-3.1-.61-1.01-.27-2.01-.54-2.99-.81-1-.24-1.94-.61-2.89-.92-.94-.33-1.89-.62-2.78-1.02-.9-.38-1.79-.75-2.67-1.12-.86-.4-1.69-.84-2.52-1.25-.41-.21-.82-.41-1.23-.62-.4-.21-.79-.45-1.17-.68-.77-.45-1.54-.9-2.28-1.34-.73-.46-1.43-.96-2.12-1.43-.69-.48-1.39-.91-2.01-1.43-1.25-1.01-2.53-1.9-3.59-2.92-1.09-.99-2.17-1.9-3.06-2.89-.91-.97-1.83-1.83-2.55-2.75-.75-.9-1.47-1.72-2.08-2.52l-1.6-2.23c-.5-.66-.88-1.28-1.2-1.83-.32-.54-.6-.99-.83-1.37-.21-.35-.37-.63-.5-.85-.11-.19-.16-.29-.15-.3.01 0 .08.09.2.27.14.21.32.48.54.82.24.37.53.82.87 1.34.33.54.73 1.15 1.24 1.8.49.66 1.04 1.39 1.63 2.19.62.78 1.35 1.59 2.1 2.48.73.91 1.65 1.76 2.57 2.71.9.97 1.98 1.87 3.07 2.84 1.07 1.01 2.34 1.88 3.59 2.88.62.51 1.32.93 2.01 1.4.69.46 1.39.95 2.12 1.4.75.43 1.5.87 2.27 1.32.39.22.77.46 1.17.67.41.2.81.4 1.23.61.83.4 1.65.84 2.51 1.23.87.36 1.76.73 2.65 1.1.88.4 1.83.68 2.76 1.01.94.31 1.88.68 2.87.91.98.26 1.97.53 2.97.79 1.02.2 2.04.4 3.08.6 4.15.71 8.53 1.02 13 .79 4.46-.3 8.77-1.13 12.81-2.32 1-.32 2-.64 2.98-.96.96-.38 1.91-.76 2.85-1.14.95-.35 1.84-.82 2.74-1.24.89-.44 1.79-.82 2.62-1.33.84-.48 1.68-.95 2.5-1.41.81-.49 1.57-1.02 2.35-1.51.38-.25.77-.5 1.14-.75.37-.26.72-.54 1.08-.8.71-.53 1.41-1.06 2.1-1.58.67-.54 1.3-1.11 1.94-1.65.62-.55 1.27-1.05 1.83-1.63 1.12-1.14 2.28-2.15 3.22-3.28.97-1.1 1.93-2.12 2.71-3.19.8-1.05 1.61-2 2.23-2.99.64-.97 1.27-1.86 1.8-2.71.5-.86.95-1.66 1.36-2.37.43-.7.75-1.36 1.02-1.93.27-.56.51-1.04.7-1.44.18-.37.33-.66.44-.88.09-.17.15-.27.16-.26z" fill="#263238"/></g><g><path d="M291.68 336.7c.02.03-.39.31-1.14.79-.75.49-1.87 1.12-3.28 1.85-2.83 1.45-6.93 3.13-11.67 4.24-4.74 1.1-9.16 1.41-12.34 1.36-1.59-.02-2.88-.1-3.76-.2-.88-.1-1.37-.17-1.37-.2 0-.04.5-.03 1.38 0 .88.04 2.17.06 3.74.04 3.16-.04 7.53-.41 12.22-1.5 4.69-1.1 8.77-2.7 11.62-4.06 1.43-.68 2.57-1.26 3.34-1.69.8-.45 1.25-.66 1.26-.63z" fill="#263238"/></g></g><g><path d="M525.01 178.69H323.32c-9.42 0-17.06-7.64-17.06-17.06 0-9.42 7.64-17.06 17.06-17.06h201.69c9.42 0 17.06 7.64 17.06 17.06 0 9.43-7.64 17.06-17.06 17.06z" fill="#fafafa"/><path d="M525.01 178.69s.45-.04 1.31-.09c.87-.06 2.15-.26 3.78-.74 1.61-.53 3.55-1.41 5.49-2.96 1.95-1.52 3.81-3.8 5.08-6.75.6-1.49 1.02-3.14 1.21-4.91.16-1.77.03-3.66-.41-5.56-.88-3.78-3.29-7.64-7.11-10.14a16.97 16.97 0 00-6.52-2.56c-2.39-.39-4.94-.2-7.54-.25-5.2.01-10.7.01-16.48.02-46.2.02-110.01.05-180.49.08-4.35-.01-8.63 1.74-11.7 4.74-3.09 2.97-4.94 7.14-5.08 11.37-.19 4.23 1.29 8.46 4.01 11.61 2.7 3.17 6.58 5.27 10.65 5.74 2.02.23 4.11.12 6.17.15H345.64c7.99 0 15.82.01 23.46.01 30.54.02 58.04.04 81.14.06 23.09.03 41.78.06 54.7.08 6.45.02 11.46.04 14.87.05 1.69.01 2.99.02 3.87.03.88.01 1.33.02 1.33.02s-.45.02-1.32.03c-.88.01-2.17.01-3.87.03-3.41.01-8.42.03-14.87.05-12.93.02-31.61.05-54.7.08-23.1.02-50.6.03-81.14.06-7.64 0-15.46.01-23.46.01H327.39c-2.06-.03-4.12.08-6.23-.15-4.2-.48-8.2-2.64-10.98-5.91-2.81-3.25-4.33-7.61-4.14-11.97.15-4.36 2.05-8.66 5.24-11.72 3.16-3.09 7.58-4.9 12.06-4.89 70.48.03 134.29.06 180.49.08 5.77.01 11.27.01 16.48.02 2.6.05 5.14-.14 7.59.27 2.44.41 4.7 1.34 6.63 2.62 3.88 2.56 6.31 6.49 7.19 10.33.45 1.93.56 3.84.4 5.64-.2 1.79-.63 3.47-1.25 4.97-1.3 2.98-3.19 5.27-5.17 6.8a17.603 17.603 0 01-5.55 2.94c-1.64.46-2.94.65-3.81.69-.88.02-1.33.02-1.33.02z" fill="#263238"/><path d="M436.05 174.64H323.42c-7.18 0-13.01-5.82-13.01-13.01 0-7.18 5.82-13.01 13.01-13.01h112.63c7.18 0 13.01 5.82 13.01 13.01-.01 7.19-5.83 13.01-13.01 13.01z" fill="#e9a84e"/><path fill="#fff" d="M327.18 174.64l16.16-26.01h17.32l-15.83 26.01zM361.9 174.64l16.17-26.01h17.31l-15.83 26.01zM399.18 174.64l16.16-26.01h17.32l-15.84 26.01z" opacity=".4"/><g fill="#263238"><path d="M397.68 133.68c0 1.97-1.48 3.2-3.85 3.2h-1.78v2.44H390v-8.85h3.83c2.37 0 3.85 1.23 3.85 3.21zm-2.08 0c0-.97-.63-1.54-1.88-1.54h-1.67v3.07h1.67c1.25 0 1.88-.56 1.88-1.53zM404.77 139.33l-1.71-2.47H401.18v2.47h-2.05v-8.85h3.83c2.37 0 3.85 1.23 3.85 3.21 0 1.33-.67 2.3-1.82 2.8l1.99 2.85h-2.21zm-1.92-7.19h-1.67v3.09h1.67c1.25 0 1.88-.58 1.88-1.54 0-.98-.63-1.55-1.88-1.55zM407.87 134.9c0-2.63 2.05-4.58 4.84-4.58 2.78 0 4.84 1.93 4.84 4.58 0 2.64-2.06 4.58-4.84 4.58-2.79 0-4.84-1.95-4.84-4.58zm7.61 0c0-1.68-1.19-2.83-2.77-2.83s-2.77 1.15-2.77 2.83c0 1.68 1.19 2.83 2.77 2.83 1.59 0 2.77-1.15 2.77-2.83zM418.54 134.9c0-2.67 2.05-4.58 4.81-4.58 1.53 0 2.81.56 3.64 1.57l-1.32 1.21c-.59-.68-1.34-1.04-2.23-1.04-1.66 0-2.83 1.16-2.83 2.83 0 1.67 1.18 2.83 2.83 2.83.89 0 1.63-.35 2.23-1.05l1.32 1.21c-.84 1.02-2.11 1.58-3.66 1.58-2.74.02-4.79-1.89-4.79-4.56zM435.23 137.68v1.64h-6.86v-8.85h6.69v1.64h-4.65v1.92h4.11v1.59h-4.11v2.05h4.82zM436.16 138.45l.7-1.54c.75.54 1.86.92 2.92.92 1.21 0 1.71-.4 1.71-.95 0-1.66-5.15-.52-5.15-3.81 0-1.51 1.21-2.76 3.73-2.76 1.11 0 2.25.27 3.07.78l-.63 1.56c-.82-.47-1.67-.7-2.45-.7-1.21 0-1.68.46-1.68 1.01 0 1.63 5.15.51 5.15 3.76 0 1.48-1.23 2.75-3.76 2.75-1.41.01-2.82-.41-3.61-1.02zM444.23 138.45l.7-1.54c.75.54 1.86.92 2.92.92 1.21 0 1.71-.4 1.71-.95 0-1.66-5.15-.52-5.15-3.81 0-1.51 1.21-2.76 3.73-2.76 1.11 0 2.25.27 3.07.78l-.63 1.56c-.82-.47-1.67-.7-2.45-.7-1.21 0-1.68.46-1.68 1.01 0 1.63 5.15.51 5.15 3.76 0 1.48-1.23 2.75-3.76 2.75-1.41.01-2.83-.41-3.61-1.02z"/></g></g><g><path d="M689.69 471.81c0 .14-140.9.26-314.68.26-173.83 0-314.71-.12-314.71-.26s140.87-.26 314.71-.26c173.78 0 314.68.12 314.68.26z" fill="#263238"/></g><g><path d="M75.36 447.28l9.8-20.98 22.89 13.12-11.89 19.22s-9.25 1.64-13.36-.89c-4.13-2.53-7.44-10.47-7.44-10.47z" fill="#ffbe9d"/><path d="M94.98 460.59l1.17-1.95c-8.34-1.53-15.26-5.35-20.8-11.36l-7.83 14.4 43.25 23.78c2.03-4.27-15.79-24.87-15.79-24.87z" fill="#e9a84e"/><path d="M67.53 461.68l1.91-3.52 40.83 24.17s1.46 1.9.5 3.13l-43.24-23.78zM95.81 460.76c-.12.21-1.23-.28-2.64-.17-1.42.07-2.45.69-2.6.5-.17-.15.84-1.24 2.55-1.34 1.7-.11 2.84.84 2.69 1.01zM99.31 465.13c-.06.23-1.18.09-2.38.59-1.22.46-1.94 1.33-2.14 1.2-.22-.08.32-1.39 1.83-1.98 1.51-.61 2.8-.02 2.69.19zM98.9 471.97c-.22-.06.07-1.28 1.25-2.14 1.17-.87 2.42-.78 2.41-.55.02.24-.96.51-1.92 1.23-.97.7-1.52 1.56-1.74 1.46z" fill="#263238"/><g><path d="M77.78 457.79a1.296 1.296 0 11-2.25-1.29 1.296 1.296 0 112.25 1.29z" fill="#263238"/></g><g><path d="M178.47 455.85l11.34-23.93 23.1.37-11.84 23.29s-7.64 5.92-12.59 5.59c-4.96-.34-10.01-5.32-10.01-5.32z" fill="#ffbe9d"/><path d="M200.94 457.91l.13-2.34c-8.33 2.6-15.19 2.45-23.11-.38a9.862 9.862 0 00-1.33 4.79l-.17 12.04 50.75.96c-.2-4.84-26.27-15.07-26.27-15.07z" fill="#e9a84e"/><path d="M176.47 472.04l.06-4.12 48.74 2.46s2.24 1.03 1.96 2.61l-50.76-.95zM201.77 457.67c-.01.25-1.25.34-2.49 1.11-1.25.74-1.9 1.8-2.13 1.7-.23-.05.17-1.53 1.68-2.44 1.5-.92 3-.6 2.94-.37zM207.05 459.97c.05.24-1.03.64-1.89 1.67-.89 1.01-1.13 2.14-1.37 2.12-.23.03-.38-1.42.72-2.68 1.08-1.27 2.54-1.34 2.54-1.11zM209.95 466.4c-.23.05-.55-1.2.11-2.54.65-1.35 1.83-1.86 1.93-1.66.14.21-.63.92-1.16 2.03-.54 1.11-.63 2.15-.88 2.17z" fill="#263238"/><g><path d="M183.94 463.59a1.33 1.33 0 01-1.38 1.28c-.74-.03-1.31-.64-1.28-1.38.03-.74.65-1.31 1.38-1.28.73.03 1.3.65 1.28 1.38z" fill="#263238"/></g></g><g><path d="M311.25 138.01c3.96-.66 7.41-3.83 8.38-7.74.11-.44.22-.93.58-1.19.31-.23.73-.23 1.12-.24 2.12-.08 4.25-.96 5.64-2.58 1.39-1.62 1.94-3.98 1.2-5.97 3.26.39 6.29-2.78 6.29-6.07.01-3.29-2.51-6.25-5.6-7.35 1.75-.99 2.37-3.35 1.83-5.28-.54-1.93-2-3.47-3.6-4.67-2.16-1.61-5.14-2.75-7.49-1.42.6-1.54-.38-3.27-1.64-4.34-3.37-2.86-8.99-2.51-12.01.75-.78-1.51-1.81-2.97-3.32-3.73-1.51-.77-3.58-.63-4.65.69.03-1.67-1.32-3.04-2.74-3.92-1.03-.63-2.19-1.13-3.4-1.06-1.2.07-2.43.83-2.74 2-1.58-1.71-4.5-1.94-6.34-.51-1.84 1.44-2.33 4.34-1.06 6.29-2.03.1-3.98 1.32-4.96 3.11-.98 1.79-.97 4.09.04 5.86-.94-.37-2 .63-2 1.64 0 1.02.74 1.89 1.57 2.47-1.91 2.94-3.82 5.89-5.72 8.84-1.23 1.9-2.48 3.84-3.06 6.03-.58 2.19-.39 4.7 1.05 6.44" fill="#263238"/><path d="M316.7 129.48c4.24-7.37 1.33-19.47-6.18-23.37L284.9 95.36l-2.44 3.86-31.83 49.59 17.56 26.24 13.27-16.22s9.99 4.47 19.66-6.09c4.8-5.27 10.87-15.08 15.58-23.26z" fill="#ffbe9d"/><path d="M308.78 135.9c-.5.82-1.6 1.07-2.46.56-.86-.5-1.15-1.58-.65-2.39.5-.82 1.6-1.07 2.46-.57.86.51 1.15 1.58.65 2.4zM311.32 133.1c-.32.07-.9-1.53-2.52-2.6-1.6-1.09-3.35-1.04-3.39-1.36-.03-.15.4-.38 1.17-.41.76-.04 1.87.17 2.88.84 1 .67 1.61 1.61 1.84 2.32.23.71.17 1.18.02 1.21zM293.64 127.07c-.5.82-1.6 1.07-2.46.56-.86-.5-1.15-1.58-.65-2.39.5-.82 1.6-1.07 2.46-.57.86.51 1.15 1.58.65 2.4zM295.01 123.22c-.32.07-.9-1.53-2.52-2.6-1.6-1.09-3.35-1.04-3.39-1.36-.03-.15.4-.38 1.17-.41.76-.04 1.87.17 2.88.84 1.01.67 1.61 1.61 1.84 2.32.24.72.17 1.18.02 1.21zM293.09 138.81c.05-.1 1.18.4 2.95 1.27.44.23.89.41 1.15.17.3-.24.42-.8.54-1.41.28-1.26.57-2.59.87-3.98 1.28-5.63 2.51-10.15 2.73-10.1.23.05-.63 4.66-1.92 10.29-.33 1.38-.64 2.7-.94 3.96-.16.58-.24 1.29-.86 1.77-.32.24-.77.26-1.08.16-.32-.09-.55-.24-.77-.37-1.71-.99-2.73-1.66-2.67-1.76z" fill="#263238"/><path d="M281.46 158.81s-8.23-4.73-12.92-14.64c0 0-1.85 10.77 10.62 17.46l2.3-2.82zM289.81 142.28c-.07-1.16-.81-2.26-1.89-2.82-.75-.39-1.69-.52-2.5-.23-.81.29-1.44 1.05-1.41 1.85.03.91.85 1.66 1.77 1.95.92.29 1.92.22 2.89.13.27-.03.54-.05.78-.17.24-.12.43-.36.4-.61" fill="#eb996e"/><path d="M287.58 136.78c.27.16-.89 1.93-.22 4.18s2.67 3.3 2.52 3.56c-.05.13-.64.07-1.45-.44a5.247 5.247 0 01-2.17-2.87c-.41-1.38-.12-2.67.3-3.43.42-.79.9-1.09 1.02-1zM299.35 117.73c-.45.34-1.93-.95-3.98-1.98-2.03-1.07-3.93-1.53-3.92-2.09.01-.26.56-.5 1.46-.52.9-.02 2.15.22 3.37.85 1.22.63 2.15 1.51 2.65 2.25.5.75.63 1.33.42 1.49zM313.84 128c-.53.18-1.39-.94-2.72-1.85-1.3-.95-2.64-1.4-2.65-1.96.01-.26.43-.52 1.16-.54.72-.02 1.73.23 2.63.87.9.64 1.48 1.51 1.7 2.19.22.7.12 1.19-.12 1.29z" fill="#263238"/><g><path d="M320.86 112.68c-.66 2.65-3.04 4.78-5.74 5.15-2.7.37-5.55-1.06-6.87-3.43.28 1.27-.76 2.56-2.01 2.9-1.25.34-2.59-.07-3.71-.72-2.35-1.36-4.06-3.8-4.53-6.48-1.43 1.65-3.66 2.57-5.83 2.39-2.17-.18-4.22-1.45-5.34-3.32.58 2.56-.61 5.44-2.84 6.84-2.23 1.4-5.33 1.21-7.36-.44-2.03-1.65-2.86-4.65-1.95-7.12-1.2-1.82-1.49-4.2-.77-6.27s2.44-3.75 4.51-4.43c-.94-1.15-1-2.85-.45-4.24s1.64-2.5 2.81-3.42c2.86-2.27 6.56-3.65 10.16-3.12 3.6.52 6.95 3.22 7.66 6.79.08.4.14.85.44 1.13.41.38 1.06.28 1.61.16 2.43-.57 5-1.21 7.36-.44 2.86.93 4.81 4.07 4.4 7.06 2.99-1.49 7.01-1.04 9.18 1.5s1.72 7.06-1.19 8.72" fill="#263238"/></g><g><path d="M278.98 114.57c-1.7 2.31-3.74 4.38-6.02 6.13-.97.74-2.2 1.45-3.34 1.02-1.03-.39-1.54-1.64-1.41-2.74.12-1.1.73-2.09 1.36-3 2.23-3.26 4.87-6.2 7.51-9.14" fill="#263238"/></g><g><path d="M275.18 114.73c-.1-.17-4.55-6.01-8.63-.05-4.08 5.95 2.71 8.81 2.83 8.65.14-.16 5.8-8.6 5.8-8.6z" fill="#ffbe9d"/><path d="M269.13 119.83c-.01-.04-.15 0-.38-.04-.22-.04-.55-.19-.78-.51-.47-.66-.31-2.02.4-3.11.36-.55.82-.99 1.31-1.29.48-.31.97-.42 1.32-.26.36.14.46.49.41.7-.03.22-.15.31-.13.35.01.03.2-.01.32-.29.06-.13.08-.32.02-.53a.911.911 0 00-.47-.54c-.48-.28-1.18-.14-1.71.18-.56.31-1.1.79-1.49 1.41-.78 1.23-.94 2.77-.26 3.61.34.4.78.51 1.05.49.28-.03.4-.14.39-.17z" fill="#eb996e"/></g><g><path d="M298.5 108.7c-.01.01.05.06.15.17.11.11.27.26.5.45.45.38 1.13.92 2.13 1.4.5.24 1.08.46 1.74.58.66.13 1.4.17 2.17-.01.76-.17 1.54-.53 2.22-1.1.66-.58 1.22-1.41 1.33-2.4l-.3.04c.66 1.76 1.97 3.47 3.82 4.62.92.58 1.97 1.01 3.09 1.25.56.11 1.15.17 1.75.1.59-.06 1.2-.28 1.68-.66.58-.44.99-1.04 1.3-1.65.32-.61.54-1.25.76-1.87.21-.63.37-1.28.39-1.94.02-.65-.18-1.37-.69-1.81l-.25.24c.83 1.02 1.99 1.66 3.16 1.92 1.17.27 2.35.18 3.38-.17 1.02-.37 1.88-1 2.44-1.77.57-.76.9-1.59 1.06-2.36.32-1.56-.01-2.83-.35-3.6-.36-.78-.7-1.1-.7-1.1-.03.02.27.37.59 1.15.3.76.59 2.01.25 3.51-.17.74-.5 1.53-1.06 2.25-.54.72-1.36 1.31-2.33 1.65-.97.33-2.1.4-3.21.13a5.4 5.4 0 01-2.97-1.82l-.25.24c.42.36.59.95.57 1.55-.01.6-.17 1.22-.37 1.83-.42 1.21-.9 2.53-1.93 3.34-.88.7-2.08.71-3.14.49a8.821 8.821 0 01-2.97-1.19c-1.78-1.11-3.06-2.75-3.71-4.44l-.23-.6-.07.64c-.1.9-.6 1.67-1.21 2.22-.63.55-1.36.9-2.08 1.07-.72.18-1.43.15-2.07.04-.64-.11-1.21-.31-1.7-.53-.99-.45-1.68-.96-2.15-1.31-.49-.36-.73-.56-.74-.55z" fill="#fff"/></g><g><path d="M318.75 118.34c-.02.01.06.19.28.46.21.27.58.63 1.12.93.54.29 1.27.56 2.13.47.42-.05.89-.23 1.2-.63.3-.37.47-.96.19-1.47l-.3.2c.03.03.06.06.08.1 1.28 1.52 3.14 2 4.38 1.96.63-.01 1.13-.13 1.46-.24.33-.12.5-.21.49-.23-.02-.07-.74.25-1.95.22-1.18-.02-2.92-.53-4.1-1.94-.03-.03-.05-.06-.08-.09l-1.17-1.34.87 1.54c.18.33.08.77-.15 1.07-.23.3-.61.46-.97.52-.75.1-1.45-.11-1.97-.36-1.06-.54-1.46-1.22-1.51-1.17z" fill="#fff"/></g><g><path d="M304.86 128.49c.01.06.53-.03 1.37.01.83.04 1.99.28 3.09.92 1.1.64 1.87 1.54 2.32 2.25.45.71.63 1.21.69 1.19.04-.01-.05-.55-.46-1.32a6.38 6.38 0 00-2.35-2.43c-1.16-.68-2.4-.88-3.27-.86-.88.01-1.4.2-1.39.24z" fill="#eb996e"/></g><g><path d="M289.01 117.92c.01.06.44-.01 1.11.04.67.04 1.6.23 2.49.75.88.52 1.51 1.23 1.88 1.79.37.56.53.97.58.95.04-.01-.03-.45-.36-1.08-.33-.62-.97-1.42-1.92-1.98-.95-.55-1.96-.71-2.66-.69-.72.02-1.13.18-1.12.22z" fill="#eb996e"/></g><g><path d="M285.74 136.44c.03.04.18-.04.42-.08.24-.05.58-.06.94.04.72.21 1.3.58 1.36.48.04-.06-.42-.57-1.27-.83-.43-.11-.85-.06-1.12.07-.27.12-.36.29-.33.32z" fill="#eb996e"/></g><g><path d="M284.02 136.56c.08.07.5-.3 1.08-.66.57-.37 1.08-.6 1.05-.7-.02-.09-.63-.01-1.25.39s-.95.91-.88.97z" fill="#eb996e"/></g><g><path d="M264.14 119.01c0-.04-.51-.1-1.43.06-.9.16-2.24.57-3.53 1.67-1.28 1.07-2.38 3.01-2.29 5.3.03 2.27 1.58 4.71 4.04 5.7 1.22.51 2.58.54 3.77.23 1.2-.3 2.24-.9 3.09-1.63 1.71-1.47 2.53-3.53 2.44-5.23-.06-1.71-.79-2.96-1.4-3.65-.62-.71-1.1-.92-1.12-.9-.04.05.38.35.9 1.07.51.71 1.11 1.91 1.11 3.48.02 1.55-.78 3.4-2.36 4.72-1.54 1.3-3.97 2.16-6.16 1.24-2.19-.88-3.59-3.03-3.65-5.06-.11-2.06.82-3.85 1.97-4.89 1.16-1.07 2.41-1.53 3.26-1.77.86-.24 1.36-.27 1.36-.34z" fill="#455a64"/></g></g><g><path d="M159.28 239.3c-18.17 14.11-20.94 36.49-22.18 49.33-1.24 12.84-11.18 64.18-11.18 64.18s-20.77 32.25-28.22 45.92c-7.45 13.66-22.34 42.21-22.34 42.21l24.89 15.39s44.72-60.86 52.58-72.87c7.87-12.01 47.99-113.12 47.99-113.12l-41.54-31.04z" fill="#1c2f5c"/><path d="M218.44 272.57c1.25 2.4 34.25 83.84 33.39 91.98-.86 8.14-42.01 91.76-42.01 91.76l-30.43-12.89 31.29-69.44.86-9.54-29.15-55.18 9.43-40.72 26.62 4.03z" fill="#1c2f5c"/><path d="M196.76 283.26c.13.06-3.31 8.25-7.69 18.29-4.38 10.05-8.04 18.15-8.17 18.09-.13-.06 3.31-8.25 7.69-18.3 4.38-10.04 8.04-18.14 8.17-18.08zM222.94 367.25c.05.12-2.59.75-5.75-.04-3.17-.75-5.23-2.51-5.14-2.59.09-.14 2.21 1.37 5.26 2.09 3.04.75 5.62.37 5.63.54zM221.63 375.26c-.06.15-2.25-.66-5.08-1.16-2.82-.52-5.16-.53-5.16-.68-.01-.13 2.37-.36 5.26.17 2.89.5 5.04 1.55 4.98 1.67zM167.31 254.56c.02.03-.19.21-.59.52-.4.31-1.01.73-1.78 1.2-1.54.94-3.81 2.06-6.47 2.86-2.66.79-5.17 1.11-6.98 1.17-.91.03-1.64.02-2.14-.02-.51-.04-.78-.07-.78-.11 0-.09 1.12-.08 2.9-.24 1.78-.15 4.24-.53 6.85-1.31a34.97 34.97 0 006.44-2.68c1.57-.85 2.5-1.46 2.55-1.39z" fill="#455a64"/></g><g><path fill="#455a64" d="M274.14 171.54l26.63 34.38 55.86 22.88-5.95 11.92-71.4-24.38-23.38-47.93z"/><path fill="#5fa3ac" d="M274.14 171.54l26.63 34.38 55.86 22.88-5.95 11.92-71.4-24.38-23.38-47.93z" opacity=".2"/><path d="M248.23 151.18a3.066 3.066 0 01-.11-4.2l3.64-4.07c.49-.65 1.4-.79 2.06-.32 5.07 3.67 24.26 18.24 24.22 22.41-.05 4.73-8.18 9.48-8.18 9.48l-21.63-23.3z" fill="#5fa3ac"/><path d="M235.53 176.62s35.66 49.28 44.96 54.97c9.3 5.69 67.7 13.71 67.7 13.71l2.27-17.27-56.33-18.06s-36.75-54.16-37.69-55.72c-.94-1.56-8.19-7.41-16.19-6.39-8 1.02-12.06 13.65-9.3 19.9 1.05 2.37 4.58 8.86 4.58 8.86z" fill="#5fa3ac"/><path d="M248.46 147.91s-10.26-4.42-20.11 4.77c-5.27 4.92-53.51 72.51-56.91 77.04l-13.86 9.57c23.18 21.34 41.14 39.19 65.87 45.39l12.88-41.77 39.57-36.02-27.44-58.98z" fill="#5fa3ac"/><path d="M231.68 171.54c.02-.01.14.15.36.46.25.36.56.82.94 1.38.8 1.2 1.99 2.93 3.48 5.04 2.97 4.23 7.27 9.94 12.26 16.05 4.99 6.11 9.66 11.52 13.04 15.45 1.65 1.93 3 3.5 3.98 4.66.43.52.79.94 1.07 1.28.24.3.36.46.34.47-.01.01-.16-.13-.42-.4-.3-.32-.68-.72-1.14-1.22-1.02-1.13-2.41-2.67-4.11-4.55-3.44-3.86-8.16-9.24-13.16-15.36-4.99-6.12-9.26-11.88-12.16-16.17-1.45-2.14-2.59-3.9-3.34-5.14-.35-.58-.63-1.05-.86-1.43-.2-.34-.3-.51-.28-.52zM350.45 228.02c0 .01-.1-.02-.28-.07-.21-.06-.48-.15-.82-.25-.74-.24-1.8-.59-3.16-1.03l-11.77-3.91c-10.05-3.38-24.13-8.12-40.38-13.59l-.08-.03-.05-.07c-3.65-5.39-7.56-11.16-11.59-17.12-6.2-9.17-12.1-17.91-17.47-25.86-2.68-3.98-5.23-7.75-7.61-11.29-.61-.88-1.14-1.79-1.81-2.53-.32-.39-.71-.71-1.09-1.03-.38-.31-.73-.67-1.14-.94-1.6-1.13-3.38-1.8-5.12-2.17-3.54-.56-6.88.22-9.33 1.67a14.213 14.213 0 00-5.14 5.1c-.4.92-.87 1.7-1.04 2.46-.22.74-.43 1.37-.46 1.91-.13.89-.19 1.32-.24 1.61-.03 0 .02-.56.13-1.63.02-.54.21-1.18.42-1.93.15-.78.61-1.57 1.01-2.51 1-1.77 2.65-3.77 5.17-5.25 2.48-1.5 5.9-2.33 9.54-1.78 1.8.37 3.63 1.05 5.29 2.21.42.27.78.64 1.18.96.39.33.79.66 1.13 1.07.71.79 1.24 1.7 1.85 2.57 2.4 3.53 4.96 7.3 7.65 11.27 5.38 7.94 11.29 16.67 17.5 25.84 4.03 5.96 7.93 11.74 11.58 17.13l-.13-.1c16.22 5.54 30.28 10.34 40.32 13.77 4.98 1.72 8.96 3.1 11.72 4.05 1.35.48 2.39.85 3.13 1.11.34.12.6.22.8.3.21.01.3.05.29.06zM255.9 205.92c.03.02-.16.26-.52.68-.35.42-.91.99-1.62 1.66-1.43 1.35-3.57 3.04-6.19 4.52-2.62 1.47-5.18 2.42-7.07 2.94-.95.26-1.72.44-2.26.52-.54.09-.84.13-.85.09-.02-.08 1.16-.36 3-.97 1.84-.6 4.34-1.6 6.93-3.05 2.58-1.45 4.72-3.08 6.2-4.34 1.47-1.25 2.31-2.11 2.38-2.05zM232.92 235.71c0 .04-.61.12-1.74.23-1.12.13-2.75.23-4.77.3-4.03.13-9.63-.06-15.73-1.02-6.09-.97-11.48-2.53-15.27-3.91-1.9-.69-3.41-1.29-4.44-1.76-1.03-.46-1.59-.73-1.58-.76.01-.03.6.17 1.66.57 1.05.41 2.58.96 4.49 1.6 3.81 1.28 9.17 2.77 15.23 3.74 6.06.96 11.62 1.2 15.64 1.16 2.01-.02 3.64-.07 4.76-.13 1.12-.04 1.74-.05 1.75-.02zM234.29 229.66c.01.06-1.04.39-2.79.69-1.75.3-4.21.54-6.92.43-2.72-.11-5.15-.54-6.87-.98-1.72-.44-2.74-.85-2.72-.91.02-.08 1.08.21 2.81.55 1.72.35 4.13.71 6.81.82 2.68.1 5.1-.07 6.85-.28 1.73-.2 2.81-.4 2.83-.32z" fill="#263238"/><path d="M237.89 180.78l15.99 27.13s-8.99 6.41-12.74 7.42c0 0 8.24-2.29 14.76-5.53l8.43 3.82-26.44-32.84zM228.21 235.89c-5.29 2.86-11.98 3.99-18.25 3.11-6.28-.89-12.08-3.78-15.85-7.92 0 0 13.05 3.55 18.06 4.11 5.01.56 16.04.7 16.04.7z" opacity=".2"/><path d="M175.06 241.98c.04.16-2.5.51-5.04 2.21-1.77 1.14-2.97 2.55-3.56 3.25l-.2-.14c.29-.33.47-.5.51-.47.04.03-.07.24-.31.62l-.2-.14c.46-.8 1.63-2.36 3.47-3.54 2.67-1.78 5.35-1.91 5.33-1.79zM188.24 252.69c.11.07-1.16 2.08-3.29 4.06-2.13 1.99-4.22 3.11-4.29 2.99-.08-.13 1.85-1.43 3.93-3.37 2.09-1.94 3.52-3.78 3.65-3.68zM202.16 264.4c.12.06-.96 2.28-2.96 4.54-1.98 2.28-4.04 3.64-4.11 3.53-.1-.12 1.78-1.64 3.72-3.87 1.95-2.22 3.21-4.28 3.35-4.2zM216.79 270.25c.13 0-.07 2.45-1.31 5.17-1.23 2.73-2.94 4.48-3.03 4.39-.13-.1 1.37-1.96 2.56-4.6 1.2-2.64 1.62-4.99 1.78-4.96zM251.95 149.25c-.06-.03.05-.42.37-1 .32-.57.92-1.31 1.78-1.87s1.73-.83 2.36-.99c.63-.15 1.03-.18 1.05-.11.06.17-1.53.54-3.13 1.54-1.58 1.03-2.27 2.52-2.43 2.43zM258.94 156.12c-.12-.05.54-1.63 2.12-2.98 1.57-1.36 3.24-1.78 3.26-1.65.06.15-1.45.76-2.92 2.05-1.49 1.26-2.32 2.65-2.46 2.58z" fill="#263238"/><g><path d="M272.69 159.01c.12.05-.88 2.17-2.91 4.18-2.02 2.02-4.14 3.01-4.19 2.89-.08-.14 1.87-1.3 3.82-3.26 1.97-1.95 3.14-3.89 3.28-3.81z" fill="#263238"/></g></g><g><path d="M349.69 228.78l8.08-11.08 5.98-1.31 12.93-2.63s1.51.9-.32 3.16l-1.04.85 5.01-.13s.29 2.37-2.29 3.7l-8.44 2.45-3.18.96s6.66.46 8.97-.37c2.32-.83 4.38-.73 4.38-.73s1.39 1.42-.33 3.26c-1.72 1.85-6.78 2.4-7.98 2.7-1.2.3-5.47.4-5.47.4s1.69 1.13 4.57 1.1c2.88-.03 5.85.06 5.85.06s.15 2.74-1.61 3.28c-1.76.53-9.51.39-9.51.39l-2.14 1.17s-5.71 6.02-7.72 6.88c-2 .86-7.25 2.41-7.25 2.41l1.51-16.52z" fill="#ffbe9d"/><path d="M375.99 217.92c.02.06-.7.44-1.94.89s-3 .95-4.99 1.27c-1.99.31-3.83.37-5.14.32-1.32-.05-2.13-.19-2.12-.25.01-.16 3.25.05 7.18-.58 3.92-.61 6.95-1.8 7.01-1.65z" fill="#eb996e"/></g></g><g><path d="M479.81 431.4s-21.28-24.49-29.31-48.99c-8.03-24.49-4.22-21.68-4.22-21.68s10.84 23.79 19.07 35.28c8.23 11.49 22.89 28.36 22.89 28.36l-8.43 7.03z" fill="#455a64"/><path d="M484.05 364.55c-.69-1.2-2.51-.57-2.31.79 1.3 8.6 4.1 28.79 3.99 41.89-.14 17.01.01 23.59.01 23.59h8.86s-1.57-35.16-3.57-45.89c-1.41-7.53-4.39-15.87-6.98-20.38z" fill="#455a64"/><path d="M488.88 427.95s5.57-11.72 7.29-26.45c.73-6.26-.57-14.72-2.51-26.02-.94-5.47-1.15-9.63-1.12-12.52.02-2.18 2.9-2.89 3.97-.99 1.07 1.91 4.16 8.42 4.95 12.51 2.14 11.15 4.57 16.72 2.72 27.3s-8.72 26.87-8.72 26.87l-6.58-.7zM496.85 428.66s23.37-50.21 24.98-57.66c1.62-7.45 7.13-24.62 7.77-23.64.65.97 1.62 10.04-2.59 20.4s-22.19 62.43-22.19 62.43h-7.98" fill="#455a64"/><path d="M486.32 426.42c-.01.01-.24-.14-.65-.45-.41-.31-1.04-.76-1.81-1.38-1.56-1.22-3.74-3.08-6.28-5.54-5.1-4.9-11.45-12.45-16.95-21.76-5.51-9.3-9.22-18.4-11.57-25.06a155.72 155.72 0 01-2.59-7.96c-.29-.95-.48-1.69-.62-2.19-.13-.5-.2-.77-.18-.77.02 0 .11.25.28.74.18.54.41 1.26.71 2.16.61 1.88 1.52 4.59 2.74 7.9 2.43 6.62 6.18 15.66 11.67 24.93 5.48 9.27 11.75 16.82 16.77 21.76 2.5 2.49 4.64 4.38 6.15 5.64.75.65 1.35 1.11 1.75 1.45.38.33.59.51.58.53zM488.87 402.33c-.03 0-.11-.52-.21-1.47-.11-1.04-.26-2.39-.43-4.03-.37-3.4-.95-8.08-1.77-13.23-.83-5.15-1.75-9.78-2.46-13.12-.35-1.6-.63-2.93-.85-3.96-.2-.93-.3-1.46-.26-1.46.03-.01.19.5.45 1.42.26.92.61 2.26 1.01 3.93.8 3.33 1.78 7.96 2.61 13.12.83 5.16 1.35 9.86 1.63 13.27.14 1.71.23 3.09.27 4.04.04.96.05 1.49.01 1.49zM494.35 361.58c.02-.01.11.21.28.64.18.47.41 1.09.7 1.87.31.81.66 1.81 1 2.99.35 1.18.8 2.51 1.14 4.02.18.75.38 1.54.58 2.36.2.82.34 1.69.51 2.58.38 1.78.62 3.72.9 5.74.46 4.07.71 8.58.56 13.31-.19 4.73-.76 9.21-1.51 13.24-.43 2-.8 3.92-1.31 5.67-.24.88-.44 1.74-.7 2.54-.26.8-.51 1.58-.75 2.31-.45 1.48-.99 2.78-1.42 3.93-.42 1.16-.85 2.13-1.21 2.91-.34.75-.62 1.35-.83 1.81-.2.41-.31.62-.32.62-.02-.01.06-.23.23-.66.19-.47.44-1.08.74-1.84.34-.79.74-1.77 1.13-2.93.4-1.16.92-2.45 1.35-3.94.23-.74.46-1.51.71-2.31.24-.81.43-1.66.67-2.54.49-1.75.85-3.65 1.26-5.65.72-4.01 1.27-8.47 1.46-13.17.15-4.7-.09-9.18-.52-13.24-.27-2.02-.49-3.95-.85-5.72-.17-.89-.3-1.76-.48-2.58-.19-.82-.37-1.61-.54-2.36-.31-1.51-.74-2.84-1.06-4.02-.31-1.19-.64-2.19-.92-3.01-.25-.78-.46-1.41-.61-1.89-.15-.44-.21-.67-.19-.68zM529.34 348.37c.01 0 0 .08-.02.23-.03.18-.06.39-.1.65-.1.57-.23 1.42-.46 2.5-.45 2.16-1.2 5.27-2.37 9.04-1.16 3.77-2.76 8.2-4.65 13.05-1.89 4.86-4.08 10.16-6.15 15.8-2.11 5.63-3.73 11.12-5.25 16.11-1.51 4.99-2.94 9.47-4.33 13.16-1.37 3.7-2.69 6.62-3.69 8.59-.48.99-.91 1.74-1.19 2.25-.13.23-.24.42-.33.57-.08.13-.12.19-.13.19-.01 0 .02-.08.08-.21.08-.16.17-.36.28-.6.25-.52.65-1.28 1.1-2.28.94-1.99 2.21-4.92 3.53-8.62 1.34-3.7 2.73-8.18 4.22-13.18 1.5-4.99 3.11-10.5 5.23-16.15 2.08-5.65 4.28-10.94 6.19-15.79 1.91-4.84 3.54-9.24 4.74-12.99 1.21-3.75 2.01-6.83 2.52-8.98.26-1.07.42-1.91.55-2.48l.15-.64c.05-.15.08-.22.08-.22z" fill="#263238"/><path d="M457.3 337.28c-1.47-1.46-3.92.07-3.31 2.05a57 57 0 002.94 7.55c3.21 6.83 12.65 31.32 17.06 44.77 4.42 13.45 10.64 38.55 10.64 38.55l9.43-1.53s-8.63-41.23-17.06-56.09c-6.78-11.94-13.55-29.19-19.7-35.3z" fill="#455a64"/><path d="M476.57 400.06c.03-.01.2.39.49 1.13.28.74.66 1.82 1.09 3.17.87 2.69 1.93 6.45 3 10.62 1.07 4.18 1.96 7.98 2.58 10.73.28 1.3.52 2.4.71 3.27.16.77.23 1.21.2 1.21-.03.01-.17-.41-.38-1.17-.23-.86-.52-1.94-.86-3.23-.72-2.84-1.67-6.57-2.72-10.69-1.07-4.17-2.08-7.93-2.86-10.64-.37-1.28-.69-2.35-.93-3.21-.25-.75-.36-1.18-.32-1.19zM489.36 429.43c-.01 0-.03-.08-.05-.25-.03-.2-.06-.44-.11-.74-.1-.65-.19-1.62-.39-2.86-.35-2.48-.96-6.05-1.98-10.4-1.01-4.36-2.48-9.48-4.41-15.07-1.93-5.59-4.36-11.63-7.11-17.87-5.55-12.48-11.09-23.55-14.73-31.74-1.84-4.08-3.27-7.42-4.21-9.74-.48-1.16-.82-2.07-1.06-2.68-.11-.29-.19-.52-.26-.7-.06-.16-.08-.24-.07-.25.01 0 .05.07.12.23.08.18.18.41.31.68.28.64.66 1.52 1.15 2.65.99 2.3 2.47 5.61 4.35 9.67 3.72 8.14 9.31 19.18 14.87 31.69 2.75 6.26 5.17 12.31 7.09 17.93 1.92 5.61 3.36 10.76 4.32 15.14.97 4.38 1.54 7.97 1.83 10.46.17 1.24.23 2.22.29 2.87.02.3.04.55.06.75 0 .14 0 .23-.01.23zM494.06 428.66c-.03 0-.15-.56-.32-1.58-.19-1.11-.43-2.57-.73-4.34-.65-3.65-1.64-8.69-3.07-14.17-1.41-5.48-3-10.36-4.23-13.87-.6-1.69-1.1-3.08-1.48-4.14-.35-.98-.53-1.52-.5-1.54.03-.01.27.51.68 1.47.41.96.97 2.35 1.63 4.09 1.31 3.48 2.96 8.36 4.38 13.86 1.43 5.5 2.37 10.56 2.93 14.23.27 1.84.47 3.33.58 4.37.11 1.05.16 1.62.13 1.62z" fill="#263238"/><g><path fill="#e9a84e" d="M476.6 427.31h36.81v44.85H476.6z"/><path d="M476.6 427.31h36.81v44.85H476.6z" opacity=".3"/><path fill="#e9a84e" d="M469.01 427.31h32.66v44.85h-32.66z"/></g></g></svg>