<?xml version="1.0" encoding="utf-8"?>
<!-- Generator: Adobe Illustrator 24.1.3, SVG Export Plug-In . SVG Version: 6.00 Build 0)  -->
<svg version="1.1" xmlns="http://www.w3.org/2000/svg" xmlns:xlink="http://www.w3.org/1999/xlink" x="0px" y="0px"
	 viewBox="0 0 500 500" style="enable-background:new 0 0 500 500;" xml:space="preserve">
<g id="Background_Complete">
	<g>
		<g>
			<g>
				<g>
					<g>
						<path style="fill:#E0E0E0;" d="M38.47,385.9c-4.31-2.71-9.25-4.41-14.32-4.93c-2.34-0.24-4.9-0.17-6.77,1.25
							c-0.4,0.3-0.79,0.75-0.7,1.24c0.07,0.36,0.37,0.62,0.66,0.85C23.17,388.75,31.98,389.31,38.47,385.9"/>
					</g>
				</g>
			</g>
			<g>
				<g>
					<g>
						<path style="fill:#E0E0E0;" d="M38.1,385.5c-3.24-2.53-6.5-5.08-9.25-8.14c-2.75-3.06-4.98-6.69-5.8-10.72
							c-0.25-1.22-0.33-2.62,0.46-3.59C30.88,368.81,36.67,376.26,38.1,385.5"/>
					</g>
				</g>
			</g>
			<g>
				<g>
					<g>
						<path style="fill:#E0E0E0;" d="M38.39,385.85c-0.56-4.03-0.75-8.18,0.17-12.14c0.93-3.96,3.08-7.76,6.47-10.02
							c1.27,2.98,0.73,6.41-0.17,9.52c-1.39,4.81-3.56,9.39-6.41,13.5"/>
					</g>
				</g>
			</g>
			<g>
				<g>
					<g>
						<path style="fill:#E0E0E0;" d="M45.62,398.8c-4.39,0.53-8.21,2.85-11.48,5.81c-3.28,2.97-5.6,6.96-6.57,11.28
							c4.3-0.27,7.95-3.3,10.6-6.7c2.65-3.4,4.48-7.14,7.39-10.32"/>
					</g>
				</g>
			</g>
			<g>
				<g>
					<g>
						<path style="fill:#E0E0E0;" d="M47.19,400.87c-3.53-8.7-2.25-19.19,3.27-26.79C52.96,382.97,52.04,393.01,47.19,400.87"/>
					</g>
				</g>
			</g>
			<g>
				<g>
					<g>
						<path style="fill:#E0E0E0;" d="M56.74,412.24c-3.98-0.25-8.03,0.7-11.49,2.69c-3.46,1.99-6.31,5.01-8.1,8.58
							c-0.24,0.49-0.46,1.1-0.13,1.54c0.28,0.38,0.83,0.41,1.3,0.38c3.86-0.25,7.28-2.57,10.1-5.22c2.82-2.64,5.28-5.7,8.4-7.99"/>
					</g>
				</g>
			</g>
			<g>
				<g>
					<g>
						<path style="fill:#E0E0E0;" d="M56.43,411.62c-2.05-6.57-2.18-13.73-0.36-20.37c0.72-2.62,1.92-5.38,4.35-6.61
							c0.21-0.11,0.45-0.2,0.67-0.12c0.21,0.08,0.33,0.29,0.42,0.49c0.86,1.8,1.11,3.85,1.03,5.84c-0.09,2-0.5,3.96-0.92,5.92
							c-0.76,3.62-1.17,7.5-3.15,10.62c-0.47,0.74-0.89,1.54-1.26,2.33c-0.38,0.79-0.38,1.07-0.72,1.7"/>
					</g>
				</g>
			</g>
			<g>
				<g>
					<g>
						<path style="fill:#E0E0E0;" d="M81.71,415.39c-1.87-7.12,0.12-15.76,4.6-21.6c0.33-0.43,0.77-0.89,1.31-0.84
							c0.83,0.08,1.04,1.18,1,2.01C88.3,402.23,85.87,409.41,81.71,415.39"/>
					</g>
				</g>
			</g>
			<g>
				<g>
					<g>
						<path style="fill:#E0E0E0;" d="M83.99,416.94c8.65,2.25,18.58,0.06,25.78-5.24c-4.27-2.16-9.29-2.78-13.96-1.71
							C91.15,411.05,86.89,413.14,83.99,416.94"/>
					</g>
				</g>
			</g>
			<g>
				<g>
					<g>
						<path style="fill:#E0E0E0;" d="M85.91,412.2c4.85-7.9,14.14-13.06,23.4-13.53c-1.07,3.77-4.16,6.69-7.65,8.46
							s-7.39,2.54-11.23,3.28C88.93,410.71,86.88,411.03,85.91,412.2"/>
					</g>
				</g>
			</g>
			<g>
				<g>
					<g>
						<path style="fill:#E0E0E0;" d="M82.19,389.19c1.31-4.5,2.63-9.03,2.99-13.7c0.36-4.67-0.31-9.55-2.73-13.55
							c-4.53,8.76-4.99,19-0.4,27.73"/>
					</g>
				</g>
			</g>
			<g>
				<g>
					<g>
						<path style="fill:#E0E0E0;" d="M97.43,381.48c5.29-9.62,16.1-17.31,27.03-18.39C120.24,373.6,108.74,381.71,97.43,381.48"/>
					</g>
				</g>
			</g>
			<g>
				<g>
					<g>
						<path style="fill:#E0E0E0;" d="M94.1,383.37c7.9,1.2,14.62,6.25,22,9.3c1.58,0.65,3.28,1.17,4.97,0.95
							c1.69-0.22,3.36-1.36,3.74-3.02c0.32-1.38-0.31-2.85-1.31-3.86c-0.99-1.01-2.3-1.65-3.61-2.19
							c-8.04-3.35-16.66-3.43-25.12-1.4"/>
					</g>
				</g>
			</g>
			<g>
				<g>
					<g>
						<path style="fill:#E0E0E0;" d="M89.53,388.91c1.79,0.51,2.4,1.44,3.81,2.64c4.8,4.09,10.56,7.05,16.68,8.57
							c0.64,0.16,1.47,0.22,1.79-0.35c0.28-0.5-0.07-1.11-0.43-1.56c-2.57-3.21-6.22-5.4-10.07-6.84
							c-3.85-1.43-7.19-3.16-11.78-2.79"/>
					</g>
				</g>
			</g>
			<g>
				<g>
					<g>
						<path style="fill:#E0E0E0;" d="M84.38,355.46c6.42,5.99,15.46,9.07,24.21,8.24c0.4-0.04,0.83-0.1,1.1-0.4
							c0.61-0.66-0.12-1.69-0.83-2.24C101.74,355.51,93.12,353.21,84.38,355.46"/>
					</g>
				</g>
			</g>
			<g>
				<g>
					<g>
						<path style="fill:#E0E0E0;" d="M90.49,353.22c8.49-6.36,20.13-8.28,30.21-4.98c-3.8,3.75-9.08,5.77-14.39,6.32
							C100.99,355.11,95.67,354.52,90.49,353.22"/>
					</g>
				</g>
			</g>
			<g>
				<g>
					<g>
						<path style="fill:#E0E0E0;" d="M88.06,337.85c-0.7-7.1-0.25-12.71-0.74-19.85c-0.04-0.57-0.16-1.26-0.7-1.46
							c-0.74-0.29-1.36,0.63-1.61,1.38c-2.12,6.58-0.96,14.13,3.03,19.77"/>
					</g>
				</g>
			</g>
			<g>
				<g>
					<g>
						<path style="fill:#E0E0E0;" d="M87.55,338.64c4.81-2.98,8.43-6.87,11.77-11.44c2.32-3.18,4.28-6.99,3.76-10.89
							c-3.26-0.07-6.37,1.73-8.49,4.22c-2.12,2.48-3.39,5.58-4.33,8.71C89.31,332.35,88.65,335.56,87.55,338.64"/>
					</g>
				</g>
			</g>
			<g>
				<g>
					<g>
						<path style="fill:#E0E0E0;" d="M99.11,335.42c10.57-3.91,20.43-9.72,28.96-17.08c-3.46-1.39-7.42-0.56-10.88,0.84
							c-7.9,3.19-14.36,8.57-18.23,16.16"/>
					</g>
				</g>
			</g>
			<g>
				<g>
					<g>
						<path style="fill:#E0E0E0;" d="M90.8,342.52c5.35,0.58,10.78,0.96,16.08,0.08c5.21-0.87,10.14-2.94,15.01-4.99
							c0.4-0.17,0.84-0.37,1.02-0.77c0.19-0.44-0.01-0.97-0.37-1.28c-0.35-0.32-0.82-0.47-1.28-0.6c-5.3-1.48-11.01-0.79-16.22,0.97
							C99.83,337.68,95.56,339.77,90.8,342.52"/>
					</g>
				</g>
			</g>
			<g>
				<g>
					<g>
						<path style="fill:#E0E0E0;" d="M60.27,355.7c-3.65-7.36-3.41-15.95-0.26-23.54c2.22,3.38,2.49,7.68,2.08,11.71
							c-0.41,4.02-1.63,8.16-1.71,12.2"/>
					</g>
				</g>
			</g>
			<g>
				<g>
					<g>
						<path style="fill:#E0E0E0;" d="M45.7,348.35c-9.11-0.17-18.22,3.71-24.4,10.39c4.55,0.71,9.23-0.46,13.36-2.48
							c4.13-2.02,7.81-4.85,11.45-7.66"/>
					</g>
				</g>
			</g>
			<g>
				<g>
					<g>
						<path style="fill:#E0E0E0;" d="M35.91,345.08c-4.45-0.36-8.74-0.91-13.02,0.4c-4.28,1.31-8.18,4.29-9.93,8.42
							c4.17,0.47,8.39-0.58,12.21-2.31C28.98,349.86,32.46,347.46,35.91,345.08"/>
					</g>
				</g>
			</g>
			<g>
				<g>
					<g>
						<path style="fill:#E0E0E0;" d="M50.41,345.23c-4.01-2.63-8.12-5.3-12.79-6.39c-4.67-1.09-10.07-0.28-13.33,3.23
							c3.78,2.22,8.36,2.48,12.74,2.48s9.75-0.05,13.88,1.41"/>
					</g>
				</g>
			</g>
			<g>
				<g>
					<g>
						<path style="fill:#E0E0E0;" d="M50.43,345.44c-6.85-6.73-9.45-18.81-6.69-28.01C49.13,325.61,51.54,335.7,50.43,345.44"/>
					</g>
				</g>
			</g>
			<g>
				<g>
					<g>
						<path style="fill:#E0E0E0;" d="M69.27,326.38c1.29-3,2.2-6.16,3.36-9.21c1.16-3.06,2.6-6.07,4.79-8.49
							c2.19-2.43,5.22-4.24,8.49-4.4c-2.04,9.26-8.19,17.53-16.47,22.16"/>
					</g>
				</g>
			</g>
			<g>
				<g>
					<g>
						<path style="fill:#E0E0E0;" d="M65.86,330.35c-2.14-2.94-4.61-6.94-7.51-9.14c-2.9-2.2-6.68-3.53-10.21-2.68
							C51.74,324.96,58.54,329.5,65.86,330.35"/>
					</g>
				</g>
			</g>
			<g>
				<g>
					<g>
						<path style="fill:#E0E0E0;" d="M66.55,326.62c-1.4-3.56-2.81-7.16-3.38-10.95c-0.57-3.79-0.22-7.83,1.71-11.13
							c3.76,7.11,4.97,14.74,1.86,22.16"/>
					</g>
				</g>
			</g>
			<g>
				<g>
					<g>
						<path style="fill:#E0E0E0;" d="M69.31,304.54c2.13-7.05,8.58-12.24,15.55-14.62c0.88-0.3,1.81-0.55,2.73-0.41
							c0.92,0.14,1.82,0.77,2.01,1.68c0.25,1.2-0.74,2.27-1.67,3.07C82.5,298.9,76.13,302.42,69.31,304.54"/>
					</g>
				</g>
			</g>
			<g>
				<g>
					<g>
						<path style="fill:#E0E0E0;" d="M69.39,298.78c0.27-4.54,0.55-9.15,2.03-13.46c1.48-4.31,4.33-8.34,8.47-10.23
							c0.71,4.59-1.32,9.16-3.76,13.1c-2.44,3.95-5.39,7.68-6.85,12.08"/>
					</g>
				</g>
			</g>
			<g>
				<g>
					<g>
						<path style="fill:#E0E0E0;" d="M69.27,301.91c-1.76-5.14-1.94-11.66-5.02-16.14c-2.15-3.13-5.59-5.26-7.45-8.57
							c-1.23,3.09-0.85,6.66,0.43,9.73c1.29,3.07,3.41,5.71,5.69,8.15C65.21,297.51,67.16,299.34,69.27,301.91"/>
					</g>
				</g>
			</g>
			<g>
				<g>
					<g>
						<g>
							<path style="fill:#E0E0E0;" d="M69.31,453.17c-0.14,0-0.26-34.26-0.26-76.52c-0.01-42.27,0.09-76.53,0.23-76.53
								c0.14,0,0.26,34.26,0.26,76.53C69.55,418.9,69.45,453.17,69.31,453.17z"/>
						</g>
					</g>
				</g>
			</g>
			<g>
				<g>
					<g>
						<g>
							<path style="fill:#E0E0E0;" d="M99.25,350.53c0.01,0.03-0.45,0.2-1.29,0.48c-0.93,0.31-2.12,0.71-3.55,1.2
								c-2.99,1.02-7.1,2.49-11.55,4.32c-4.41,1.89-8.58,3.43-10.95,5.48c-1.18,1.01-1.86,2.11-2.2,2.91
								c-0.34,0.8-0.4,1.3-0.45,1.29c-0.02,0-0.01-0.13,0.01-0.36c0.04-0.23,0.1-0.58,0.25-1c0.29-0.85,0.95-2.02,2.15-3.1
								c1.19-1.09,2.85-2.06,4.75-2.95c1.9-0.89,4.01-1.81,6.24-2.73c4.47-1.83,8.61-3.26,11.63-4.19c1.51-0.47,2.74-0.82,3.6-1.05
								C98.76,350.61,99.24,350.5,99.25,350.53z"/>
						</g>
					</g>
				</g>
			</g>
			<g>
				<g>
					<g>
						<g>
							<path style="fill:#E0E0E0;" d="M109.07,326.42c0.01,0.01-0.11,0.15-0.36,0.39c-0.29,0.27-0.66,0.62-1.1,1.03
								c-1.02,0.93-2.41,2.19-4.1,3.73c-3.54,3.16-8.35,7.44-13.66,12.16c-5.33,4.75-9.94,9.28-13.14,12.7
								c-1.6,1.71-2.86,3.12-3.72,4.1c-0.4,0.46-0.73,0.83-0.99,1.13c-0.23,0.26-0.36,0.39-0.37,0.38
								c-0.01-0.01,0.09-0.16,0.29-0.44c0.21-0.28,0.51-0.69,0.92-1.19c0.82-1.03,2.04-2.48,3.61-4.22
								c3.14-3.48,7.72-8.07,13.06-12.83c5.35-4.74,10.22-8.99,13.76-12.06c1.74-1.49,3.16-2.71,4.21-3.61
								c0.47-0.39,0.85-0.71,1.16-0.96C108.91,326.52,109.05,326.41,109.07,326.42z"/>
						</g>
					</g>
				</g>
			</g>
			<g>
				<g>
					<g>
						<g>
							<path style="fill:#E0E0E0;" d="M84.08,348.56c-0.14-0.06,0.97-2.63,2.08-5.89c1.12-3.25,1.65-6,1.79-5.97
								c0.13,0.01-0.19,2.84-1.32,6.13c-0.56,1.64-1.17,3.09-1.66,4.12C84.49,347.98,84.14,348.59,84.08,348.56z"/>
						</g>
					</g>
				</g>
			</g>
			<g>
				<g>
					<g>
						<g>
							<path style="fill:#E0E0E0;" d="M69.34,369.3c-0.03,0.02-0.32-0.32-0.82-0.95c-0.56-0.71-1.26-1.62-2.11-2.7
								c-1.77-2.29-4.21-5.44-6.95-8.89c-2.74-3.45-5.26-6.55-7.08-8.79c-0.86-1.07-1.58-1.96-2.15-2.66
								c-0.5-0.63-0.77-0.99-0.74-1.02c0.03-0.02,0.34,0.3,0.89,0.89c0.55,0.59,1.33,1.47,2.27,2.56c1.9,2.19,4.46,5.25,7.2,8.71
								c2.74,3.46,5.15,6.65,6.85,8.99c0.85,1.17,1.53,2.13,1.98,2.8C69.13,368.9,69.37,369.28,69.34,369.3z"/>
						</g>
					</g>
				</g>
			</g>
			<g>
				<g>
					<g>
						<g>
							<path style="fill:#E0E0E0;" d="M62.77,360.87c-0.08,0.09-1.83-1.99-2.75-5.15c-0.68-2.23-0.71-4.26-0.62-5.19l0.22,0.02
								c-0.1,0.4-0.17,0.61-0.21,0.6c-0.04-0.01-0.04-0.23-0.01-0.63l0.22,0.02c0.08,0.92,0.22,2.89,0.88,5.05
								C61.38,358.64,62.91,360.79,62.77,360.87z"/>
						</g>
					</g>
				</g>
			</g>
			<g>
				<g>
					<g>
						<g>
							<path style="fill:#E0E0E0;" d="M54.3,350.21c-0.06,0.07-0.63-0.64-1.92-1.12c-1.28-0.5-3.21-0.61-5.33-0.42
								c-2.12,0.16-4.01,0.53-5.37,0.87c-1.36,0.34-2.18,0.6-2.21,0.53c-0.02-0.06,0.77-0.44,2.12-0.87
								c1.35-0.42,3.27-0.86,5.43-1.02c2.14-0.19,4.17-0.02,5.5,0.59C53.85,349.36,54.34,350.2,54.3,350.21z"/>
						</g>
					</g>
				</g>
			</g>
			<g>
				<g>
					<g>
						<g>
							<path style="fill:#E0E0E0;" d="M52.29,347.63c-0.04,0.08-1.12-0.45-2.94-1.07c-1.82-0.63-4.41-1.28-7.34-1.51
								c-2.93-0.22-5.59,0.04-7.49,0.38c-1.9,0.34-3.04,0.69-3.07,0.61c-0.01-0.03,0.27-0.15,0.78-0.33
								c0.51-0.19,1.27-0.41,2.22-0.62c1.9-0.44,4.61-0.75,7.59-0.53c2.98,0.23,5.61,0.96,7.42,1.68c0.91,0.36,1.63,0.69,2.1,0.95
								C52.05,347.44,52.3,347.6,52.29,347.63z"/>
						</g>
					</g>
				</g>
			</g>
			<g>
				<g>
					<g>
						<g>
							<path style="fill:#E0E0E0;" d="M69.27,336.7c-0.13,0.03-1.09-3.3-2.15-7.45c-1.05-4.15-1.8-7.54-1.67-7.58
								c0.13-0.03,1.09,3.3,2.15,7.45C68.66,333.27,69.41,336.67,69.27,336.7z"/>
						</g>
					</g>
				</g>
			</g>
			<g>
				<g>
					<g>
						<g>
							<path style="fill:#E0E0E0;" d="M69.41,336.7c-0.15,0.05-0.77-2.18-2.38-4.46c-1.57-2.33-3.57-3.5-3.5-3.61
								c0.03-0.05,0.58,0.15,1.35,0.7c0.77,0.54,1.73,1.45,2.55,2.63C69.11,334.33,69.53,336.69,69.41,336.7z"/>
						</g>
					</g>
				</g>
			</g>
			<g>
				<g>
					<g>
						<g>
							<path style="fill:#E0E0E0;" d="M69.31,434.9c-0.05,0.01-0.15-0.82-0.54-2.28c-0.38-1.45-1.1-3.52-2.29-5.93
								c-2.37-4.84-6.67-10.97-12.15-17.12c-2.71-3.1-5.34-6.02-7.58-8.82c-2.24-2.79-4.08-5.46-5.42-7.81
								c-1.35-2.35-2.22-4.37-2.74-5.8c-0.25-0.71-0.44-1.27-0.54-1.66c-0.11-0.38-0.16-0.59-0.14-0.59
								c0.04-0.01,0.29,0.78,0.86,2.18c0.56,1.4,1.48,3.38,2.86,5.69c1.37,2.32,3.23,4.94,5.47,7.7c2.24,2.77,4.88,5.68,7.59,8.78
								c5.49,6.16,9.79,12.37,12.09,17.29c1.16,2.45,1.83,4.56,2.16,6.04c0.16,0.74,0.27,1.32,0.3,1.72
								C69.31,434.69,69.33,434.9,69.31,434.9z"/>
						</g>
					</g>
				</g>
			</g>
			<g>
				<g>
					<g>
						<g>
							<path style="fill:#E0E0E0;" d="M96.37,404.34c0.02,0.04-0.5,0.3-1.42,0.8c-0.91,0.51-2.2,1.3-3.68,2.43
								c-1.48,1.13-3.13,2.62-4.83,4.41c-1.7,1.79-3.44,3.87-5.22,6.1c-3.56,4.47-6.9,8.43-8.89,11.59
								c-1.01,1.57-1.75,2.89-2.23,3.81c-0.49,0.92-0.74,1.44-0.78,1.43c-0.02-0.01,0.03-0.15,0.13-0.4
								c0.11-0.25,0.25-0.64,0.48-1.11c0.43-0.96,1.13-2.31,2.11-3.92c1.94-3.23,5.25-7.25,8.8-11.71c1.79-2.23,3.55-4.32,5.28-6.11
								c1.73-1.79,3.43-3.26,4.95-4.37c1.52-1.11,2.85-1.86,3.8-2.32c0.47-0.24,0.85-0.38,1.11-0.49
								C96.22,404.37,96.36,404.33,96.37,404.34z"/>
						</g>
					</g>
				</g>
			</g>
			<g>
				<g>
					<g>
						<g>
							<path style="fill:#E0E0E0;" d="M96.9,414.26c0.01,0.07-1.14,0.21-3,0.44c-1.85,0.24-4.42,0.55-7.11,1.4
								c-2.68,0.87-4.91,2.2-6.36,3.34c-1.47,1.13-2.16,2.07-2.23,2.02c-0.02-0.02,0.12-0.27,0.44-0.69
								c0.32-0.42,0.85-0.98,1.56-1.6c1.43-1.23,3.68-2.64,6.43-3.54c2.76-0.87,5.36-1.13,7.23-1.28
								C95.73,414.21,96.89,414.19,96.9,414.26z"/>
						</g>
					</g>
				</g>
			</g>
			<g>
				<g>
					<g>
						<g>
							<path style="fill:#E0E0E0;" d="M79.07,420.36c-0.16-0.09,1.19-2.15,2.24-4.93c0.98-2.8,1.21-5.26,1.39-5.23
								c0.06,0.01,0.06,0.62-0.05,1.61c-0.12,0.98-0.35,2.35-0.87,3.79c-0.52,1.44-1.21,2.64-1.74,3.47
								C79.51,419.91,79.13,420.39,79.07,420.36z"/>
						</g>
					</g>
				</g>
			</g>
			<g>
				<g>
					<g>
						<g>
							<path style="fill:#E0E0E0;" d="M105.13,377.72c0.01,0.02-0.16,0.1-0.48,0.25c-0.37,0.17-0.84,0.38-1.41,0.64
								c-0.62,0.26-1.37,0.6-2.21,1.05c-0.85,0.44-1.83,0.89-2.86,1.5c-0.52,0.3-1.07,0.61-1.64,0.93
								c-0.57,0.33-1.13,0.71-1.72,1.09c-1.21,0.73-2.41,1.63-3.7,2.55c-2.52,1.91-5.17,4.18-7.73,6.8
								c-2.53,2.64-4.7,5.37-6.53,7.96c-0.87,1.32-1.73,2.56-2.42,3.79c-0.35,0.61-0.72,1.18-1.03,1.76
								c-0.3,0.58-0.59,1.13-0.87,1.67c-0.58,1.05-1,2.05-1.41,2.91c-0.42,0.86-0.73,1.62-0.97,2.24c-0.24,0.58-0.44,1.05-0.59,1.43
								c-0.14,0.33-0.22,0.49-0.24,0.49c-0.02-0.01,0.03-0.18,0.14-0.52c0.13-0.39,0.3-0.87,0.51-1.47c0.22-0.64,0.5-1.41,0.89-2.28
								c0.39-0.88,0.78-1.89,1.35-2.96c0.27-0.54,0.56-1.1,0.85-1.69c0.3-0.59,0.66-1.17,1.01-1.79c0.68-1.25,1.53-2.5,2.4-3.84
								c1.82-2.62,4-5.38,6.55-8.04c2.57-2.64,5.26-4.91,7.81-6.82c1.31-0.92,2.53-1.81,3.75-2.53c0.61-0.37,1.18-0.75,1.75-1.07
								c0.58-0.31,1.13-0.62,1.66-0.91c1.05-0.6,2.05-1.03,2.91-1.45c0.86-0.42,1.62-0.73,2.25-0.97c0.59-0.23,1.07-0.41,1.45-0.56
								C104.95,377.76,105.12,377.71,105.13,377.72z"/>
						</g>
					</g>
				</g>
			</g>
			<g>
				<g>
					<g>
						<g>
							<path style="fill:#E0E0E0;" d="M83.71,392.07c-0.04-0.01,0.19-0.84,1.18-1.75c0.96-0.91,2.71-1.76,4.74-1.82
								c2.03-0.05,3.79,0.51,4.99,0.98c1.21,0.47,1.91,0.86,1.89,0.92c-0.03,0.07-0.78-0.2-2-0.59c-1.22-0.37-2.94-0.86-4.86-0.81
								c-1.92,0.06-3.57,0.8-4.53,1.59C84.14,391.37,83.79,392.12,83.71,392.07z"/>
						</g>
					</g>
				</g>
			</g>
			<g>
				<g>
					<g>
						<g>
							<path style="fill:#E0E0E0;" d="M80.51,395.37c-0.14-0.08,1.07-1.85,1.35-4.38c0.32-2.53-0.45-4.53-0.3-4.58
								c0.05-0.02,0.32,0.44,0.56,1.28c0.23,0.83,0.39,2.04,0.24,3.36c-0.16,1.32-0.58,2.46-1,3.21
								C80.93,395.02,80.56,395.41,80.51,395.37z"/>
						</g>
					</g>
				</g>
			</g>
		</g>
		<g>
			<g>
				<g>
					<path style="fill:#E0E0E0;" d="M45.64,439.81c0.74,13.09,4.68,26.41,10.75,39.88h26.39c5.79-13.33,9.46-26.63,10.11-39.88
						H45.64z"/>
				</g>
			</g>
		</g>
		<g>
			<g>
				<g>
					<g>
						<path style="fill:#FAFAFA;" d="M88.63,461c0,0.14-8.69,0.25-19.41,0.25c-10.72,0-19.41-0.11-19.41-0.25
							c0-0.14,8.69-0.25,19.41-0.25C79.94,460.75,88.63,460.86,88.63,461z"/>
					</g>
				</g>
			</g>
		</g>
		<g>
			<g>
				<g>
					<g>
						<path style="fill:#FAFAFA;" d="M88.04,465.75c0,0.14-8.15,0.25-18.19,0.25c-10.05,0-18.2-0.11-18.2-0.25
							c0-0.14,8.14-0.25,18.2-0.25C79.89,465.5,88.04,465.61,88.04,465.75z"/>
					</g>
				</g>
			</g>
		</g>
		<g>
			<g>
				<g>
					<g>
						<path style="fill:#FAFAFA;" d="M56.82,448.41c0.14,0,0.25,2.72,0.25,6.08c0,3.36-0.11,6.08-0.25,6.08
							c-0.14,0-0.25-2.72-0.25-6.08C56.58,451.13,56.69,448.41,56.82,448.41z"/>
					</g>
				</g>
			</g>
		</g>
		<g>
			<g>
				<g>
					<g>
						<path style="fill:#FAFAFA;" d="M70.96,448.41c0.14,0,0.25,2.82,0.25,6.3c0,3.48-0.11,6.3-0.25,6.3c-0.14,0-0.25-2.82-0.25-6.3
							C70.72,451.23,70.83,448.41,70.96,448.41z"/>
					</g>
				</g>
			</g>
		</g>
		<g>
			<g>
				<g>
					<g>
						<path style="fill:#FAFAFA;" d="M84.24,448.3c0.14,0,0.25,2.88,0.25,6.42c0,3.55-0.11,6.42-0.25,6.42
							c-0.14,0-0.25-2.87-0.25-6.42C83.99,451.18,84.1,448.3,84.24,448.3z"/>
					</g>
				</g>
			</g>
		</g>
		<g>
			<g>
				<g>
					<g>
						<path style="fill:#FAFAFA;" d="M92.07,448.41c0,0.14-10.19,0.25-22.76,0.25c-12.57,0-22.76-0.11-22.76-0.25
							c0-0.14,10.19-0.25,22.76-0.25C81.87,448.16,92.07,448.27,92.07,448.41z"/>
					</g>
				</g>
			</g>
		</g>
	</g>
	<g>
		<g>
			<g>
				<g>
					<g>
						<g>
							<g>
								<rect x="53.23" y="122.97" style="fill:#E0E0E0;" width="73.65" height="76.77"/>
							</g>
						</g>
					</g>
				</g>
			</g>
		</g>
		<g>
			<g>
				<g>
					<g>
						<g>
							<g>
								<rect x="48.24" y="122.97" style="fill:#FAFAFA;" width="73.65" height="76.77"/>
							</g>
						</g>
					</g>
				</g>
			</g>
			<g>
				<g>
					<g>
						<g>
							<g>
								<path style="fill:#E0E0E0;" d="M121.91,199.77h-73.7v-76.82h73.7V199.77z M48.26,199.72h73.6v-76.73h-73.6V199.72z"/>
							</g>
						</g>
					</g>
				</g>
			</g>
		</g>
		<g>
			<g>
				<g>
					<g>
						<g>
							<g>
								<rect x="58.14" y="133.29" style="fill:#FAFAFA;" width="53.85" height="56.13"/>
							</g>
						</g>
					</g>
				</g>
			</g>
		</g>
		<g>
			<g>
				<g>
					<g>
						<g>
							<g>
								<g>
									<path style="fill:#E0E0E0;" d="M58.14,189.8c0.04,0.05-0.47,0.64-1.33,1.55c-0.86,0.91-2.07,2.14-3.42,3.47
										c-1.35,1.33-2.6,2.52-3.52,3.37c-0.92,0.84-1.51,1.34-1.56,1.3c-0.05-0.05,0.46-0.63,1.32-1.54
										c0.86-0.91,2.07-2.14,3.43-3.48c1.36-1.34,2.61-2.53,3.52-3.37C57.51,190.24,58.1,189.74,58.14,189.8z"/>
								</g>
							</g>
						</g>
					</g>
				</g>
			</g>
		</g>
		<g>
			<g>
				<g>
					<g>
						<g>
							<g>
								<g>
									<path style="fill:#E0E0E0;" d="M111.99,189.66c0.05-0.04,0.64,0.47,1.54,1.33c0.91,0.86,2.14,2.07,3.47,3.42
										c1.33,1.35,2.52,2.6,3.37,3.52c0.84,0.92,1.34,1.51,1.3,1.56c-0.05,0.05-0.63-0.46-1.54-1.32
										c-0.91-0.86-2.14-2.07-3.48-3.43c-1.34-1.36-2.53-2.61-3.37-3.52C112.44,190.29,111.94,189.7,111.99,189.66z"/>
								</g>
							</g>
						</g>
					</g>
				</g>
			</g>
		</g>
		<g>
			<g>
				<g>
					<g>
						<g>
							<g>
								<g>
									<path style="fill:#E0E0E0;" d="M111.84,133.44c-0.04-0.05,0.47-0.64,1.33-1.54c0.86-0.91,2.07-2.14,3.42-3.47
										c1.36-1.33,2.6-2.52,3.52-3.37c0.92-0.84,1.51-1.34,1.56-1.3c0.05,0.05-0.46,0.63-1.32,1.54
										c-0.86,0.91-2.07,2.14-3.43,3.48c-1.36,1.34-2.61,2.53-3.52,3.37C112.47,132.99,111.89,133.49,111.84,133.44z"/>
								</g>
							</g>
						</g>
					</g>
				</g>
			</g>
		</g>
		<g>
			<g>
				<g>
					<g>
						<g>
							<g>
								<g>
									<path style="fill:#E0E0E0;" d="M57.99,133.58c-0.05,0.04-0.64-0.47-1.54-1.33c-0.91-0.86-2.14-2.07-3.47-3.42
										c-1.33-1.35-2.52-2.6-3.37-3.52c-0.84-0.92-1.34-1.51-1.3-1.56c0.05-0.05,0.63,0.46,1.54,1.32
										c0.91,0.86,2.14,2.07,3.48,3.43c1.34,1.36,2.53,2.61,3.37,3.52C57.55,132.95,58.04,133.53,57.99,133.58z"/>
								</g>
							</g>
						</g>
					</g>
				</g>
			</g>
		</g>
		<g>
			<g>
				<g>
					<g>
						<g>
							<g>
								<g>
									<path style="fill:#E0E0E0;" d="M111.84,189.42c0,0-0.01-0.1-0.01-0.27c0-0.19-0.01-0.45-0.01-0.78
										c-0.01-0.7-0.01-1.72-0.02-3.03c-0.01-2.66-0.03-6.53-0.05-11.44c-0.03-9.83-0.06-23.84-0.11-40.61l0.21,0.21
										c-15.68,0.01-34.09,0.02-53.7,0.03h-0.01l0.24-0.24c-0.01,20.6-0.02,39.88-0.03,56.13l-0.2-0.2
										c16.09,0.04,29.49,0.08,38.88,0.1c4.69,0.02,8.38,0.04,10.92,0.05c1.25,0.01,2.22,0.02,2.89,0.02
										c0.32,0,0.56,0.01,0.75,0.01C111.75,189.41,111.84,189.42,111.84,189.42c0,0-0.08,0.01-0.24,0.01
										c-0.18,0-0.42,0.01-0.72,0.01c-0.66,0.01-1.61,0.01-2.85,0.02c-2.53,0.01-6.2,0.03-10.88,0.05
										c-9.42,0.03-22.87,0.06-39.01,0.1l-0.2,0l0-0.21c-0.01-16.26-0.02-35.53-0.03-56.13l0-0.24h0.24h0.01
										c19.61,0.01,38.02,0.02,53.7,0.03l0.21,0l0,0.21c-0.04,16.82-0.08,30.88-0.11,40.74c-0.02,4.89-0.04,8.75-0.05,11.39
										c-0.01,1.3-0.02,2.3-0.02,2.99c0,0.32-0.01,0.57-0.01,0.76C111.85,189.34,111.85,189.43,111.84,189.42z"/>
								</g>
							</g>
						</g>
					</g>
				</g>
			</g>
		</g>
		<g>
			<g>
				<g>
					<g>
						<g>
							<g>
								<rect x="76.08" y="152.37" style="fill:#EBEBEB;" width="17.97" height="17.97"/>
							</g>
						</g>
					</g>
				</g>
			</g>
		</g>
	</g>
	<g>
		<g>
			<g>
				<g>
					<g>
						<g>
							<g>
								<rect x="132.98" y="49.57" style="fill:#E0E0E0;" width="61.37" height="63.98"/>
							</g>
						</g>
					</g>
				</g>
			</g>
		</g>
		<g>
			<g>
				<g>
					<g>
						<g>
							<g>
								<rect x="128.83" y="49.57" style="fill:#FAFAFA;" width="61.37" height="63.98"/>
							</g>
						</g>
					</g>
				</g>
			</g>
			<g>
				<g>
					<g>
						<g>
							<g>
								<path style="fill:#E0E0E0;" d="M190.22,113.57h-61.41V49.55h61.41V113.57z M128.84,113.53h61.34V49.59h-61.34V113.53z"/>
							</g>
						</g>
					</g>
				</g>
			</g>
		</g>
		<g>
			<g>
				<g>
					<g>
						<g>
							<g>
								<rect x="137.08" y="58.17" style="fill:#FAFAFA;" width="44.87" height="46.78"/>
							</g>
						</g>
					</g>
				</g>
			</g>
		</g>
		<g>
			<g>
				<g>
					<g>
						<g>
							<g>
								<g>
									<path style="fill:#E0E0E0;" d="M137.08,105.26c0.04,0.04-0.39,0.53-1.11,1.29c-0.72,0.76-1.72,1.78-2.85,2.89
										c-1.13,1.11-2.17,2.1-2.93,2.81c-0.77,0.7-1.26,1.12-1.3,1.08c-0.04-0.04,0.38-0.53,1.1-1.28c0.72-0.76,1.73-1.78,2.86-2.9
										c1.13-1.11,2.17-2.11,2.94-2.81C136.55,105.63,137.04,105.22,137.08,105.26z"/>
								</g>
							</g>
						</g>
					</g>
				</g>
			</g>
		</g>
		<g>
			<g>
				<g>
					<g>
						<g>
							<g>
								<g>
									<path style="fill:#E0E0E0;" d="M181.95,105.14c0.04-0.04,0.53,0.39,1.29,1.11c0.76,0.72,1.78,1.72,2.89,2.85
										c1.11,1.13,2.1,2.17,2.81,2.93c0.7,0.77,1.12,1.26,1.08,1.3c-0.04,0.04-0.53-0.38-1.28-1.1c-0.76-0.72-1.78-1.73-2.9-2.86
										c-1.11-1.13-2.11-2.17-2.81-2.94C182.32,105.67,181.91,105.18,181.95,105.14z"/>
								</g>
							</g>
						</g>
					</g>
				</g>
			</g>
		</g>
		<g>
			<g>
				<g>
					<g>
						<g>
							<g>
								<g>
									<path style="fill:#E0E0E0;" d="M181.83,58.3c-0.04-0.04,0.39-0.53,1.11-1.29c0.72-0.76,1.72-1.78,2.85-2.89
										c1.13-1.11,2.17-2.1,2.93-2.81c0.77-0.7,1.26-1.12,1.3-1.08c0.04,0.04-0.38,0.53-1.1,1.28c-0.72,0.76-1.73,1.78-2.86,2.9
										c-1.13,1.12-2.17,2.11-2.94,2.81C182.35,57.92,181.86,58.34,181.83,58.3z"/>
								</g>
							</g>
						</g>
					</g>
				</g>
			</g>
		</g>
		<g>
			<g>
				<g>
					<g>
						<g>
							<g>
								<g>
									<path style="fill:#E0E0E0;" d="M136.95,58.41c-0.04,0.04-0.53-0.39-1.29-1.11c-0.76-0.72-1.78-1.72-2.89-2.85
										c-1.11-1.13-2.1-2.17-2.81-2.93c-0.7-0.77-1.12-1.26-1.08-1.3c0.04-0.04,0.53,0.38,1.28,1.1c0.76,0.72,1.78,1.73,2.9,2.86
										c1.12,1.13,2.11,2.17,2.81,2.94C136.58,57.88,136.99,58.38,136.95,58.41z"/>
								</g>
							</g>
						</g>
					</g>
				</g>
			</g>
		</g>
		<g>
			<g>
				<g>
					<g>
						<g>
							<g>
								<g>
									<path style="fill:#E0E0E0;" d="M181.83,104.95c0,0-0.01-0.08-0.01-0.23c0-0.16-0.01-0.37-0.01-0.65
										c0-0.59-0.01-1.43-0.02-2.53c-0.01-2.22-0.03-5.44-0.05-9.53c-0.02-8.19-0.05-19.86-0.09-33.84l0.17,0.17
										c-13.06,0.01-28.4,0.02-44.75,0.03h0l0.2-0.2c-0.01,17.17-0.02,33.23-0.03,46.78l-0.17-0.17
										c13.41,0.04,24.57,0.07,32.4,0.09c3.91,0.02,6.99,0.03,9.1,0.04c1.04,0.01,1.85,0.02,2.41,0.02c0.26,0,0.47,0.01,0.62,0.01
										C181.75,104.94,181.82,104.94,181.83,104.95c0,0-0.06,0.01-0.2,0.01c-0.15,0-0.35,0.01-0.6,0.01
										c-0.55,0-1.35,0.01-2.38,0.02c-2.11,0.01-5.17,0.03-9.06,0.04c-7.85,0.02-19.06,0.05-32.51,0.09l-0.17,0l0-0.17
										c-0.01-13.55-0.02-29.61-0.03-46.78l0-0.2h0.2h0c16.34,0.01,31.68,0.02,44.75,0.03l0.17,0l0,0.17
										c-0.04,14.02-0.07,25.73-0.09,33.95c-0.02,4.08-0.03,7.29-0.05,9.49c-0.01,1.08-0.02,1.91-0.02,2.49
										c0,0.27-0.01,0.48-0.01,0.63C181.83,104.88,181.83,104.95,181.83,104.95z"/>
								</g>
							</g>
						</g>
					</g>
				</g>
			</g>
		</g>
		<g>
			<g>
				<g>
					<g>
						<g>
							<g>
								<rect x="152.03" y="74.07" style="fill:#EBEBEB;" width="14.97" height="14.97"/>
							</g>
						</g>
					</g>
				</g>
			</g>
		</g>
	</g>
	<g>
		<g>
			<g>
				<circle style="fill:#E0E0E0;" cx="443.42" cy="279.38" r="8.72"/>
			</g>
		</g>
		<g>
			<g>
				<circle style="fill:#E0E0E0;" cx="417.53" cy="279.38" r="9.29"/>
			</g>
		</g>
		<g>
			<g>
				
					<ellipse transform="matrix(0.2288 -0.9735 0.9735 0.2288 50.6844 589.8719)" style="fill:#E0E0E0;" cx="397.63" cy="262.95" rx="9.86" ry="9.86"/>
			</g>
		</g>
		<g>
			<g>
				<circle style="fill:#E0E0E0;" cx="393.59" cy="237.69" r="10.3"/>
			</g>
		</g>
		<g>
			<g>
				
					<ellipse transform="matrix(0.1447 -0.9895 0.9895 0.1447 134.132 586.3101)" style="fill:#E0E0E0;" cx="406.2" cy="215.57" rx="10.64" ry="10.64"/>
			</g>
		</g>
		<g>
			<g>
				<path style="fill:#E0E0E0;" d="M442.03,206.83c0,6.4-5.19,11.6-11.6,11.6c-6.4,0-11.6-5.19-11.6-11.6c0-6.4,5.19-11.6,11.6-11.6
					C436.84,195.24,442.03,200.43,442.03,206.83z"/>
			</g>
		</g>
		<g>
			<g>
				
					<ellipse transform="matrix(0.2289 -0.9734 0.9734 0.2289 100.9718 652.9576)" style="fill:#E0E0E0;" cx="462.65" cy="262.74" rx="8.42" ry="8.42"/>
			</g>
		</g>
		<g>
			<g>
				<circle style="fill:#E0E0E0;" cx="467.16" cy="237.4" r="7.82"/>
			</g>
		</g>
		<g>
			<g>
				<path style="fill:#E0E0E0;" d="M461.3,215.28c0,3.94-3.2,7.14-7.14,7.14c-3.94,0-7.14-3.2-7.14-7.14c0-3.94,3.2-7.14,7.14-7.14
					C458.1,208.14,461.3,211.33,461.3,215.28z"/>
			</g>
		</g>
	</g>
</g>
<g id="Background_Simple" style="display:none;">
	<path style="display:inline;fill:#EBEBEB;" d="M410.87,129.77l-2.14-3.48c-18.05-29.37-50.68-47.07-85.08-44.92
		c-4.42,0.28-8.83,0.87-13.17,1.79c-31.28,6.61-58.5,29.97-69.78,59.88c-6.63,17.59-8.49,37.85-21.08,51.81
		c-16.39,18.17-44.21,18.74-68.67,17.99c-24.46-0.75-52.3-0.11-68.6,18.14c-10.21,11.43-13.46,27.68-12.63,42.98
		c2.18,40.52,30.77,76.74,67.13,94.75c36.36,18.01,79.17,19.62,118.96,11.7c55.75-11.1,108.76-41.57,140.63-88.64
		C428.3,244.7,436.36,180.57,410.87,129.77z"/>
</g>
<g id="Plant">
	<g>
		<g>
			<g>
				<g>
					<path style="fill:#263238;" d="M384.97,133.69c0,0,0.01-0.12,0.06-0.35c0.05-0.25,0.12-0.58,0.22-1.02
						c0.2-0.91,0.49-2.23,0.87-3.91c0.77-3.41,1.88-8.33,3.26-14.39c2.79-12.17,6.65-28.97,10.92-47.58l0.19-0.84l0.19,0.84
						c0.08,0.33,0.16,0.7,0.24,1.06c4.25,18.87,8.1,35.96,10.88,48.34c1.37,6.18,2.48,11.18,3.25,14.66
						c0.37,1.72,0.66,3.06,0.87,3.99c0.09,0.44,0.16,0.79,0.22,1.04c0.05,0.23,0.06,0.36,0.06,0.36s-0.04-0.12-0.1-0.35
						c-0.06-0.25-0.15-0.59-0.25-1.03c-0.22-0.93-0.53-2.26-0.94-3.97c-0.8-3.47-1.95-8.47-3.38-14.63
						c-2.82-12.38-6.7-29.45-11-48.32c-0.08-0.36-0.16-0.72-0.24-1.06l0.38,0c-4.32,18.6-8.21,35.4-11.04,47.56
						c-1.42,6.06-2.58,10.96-3.38,14.37c-0.4,1.68-0.72,2.99-0.94,3.9c-0.11,0.43-0.19,0.77-0.25,1.01
						C385.01,133.57,384.97,133.69,384.97,133.69z"/>
				</g>
			</g>
		</g>
		<g>
			<g>
				<path style="fill:#455A64;" d="M384.96,147.82v-11.95h31.87v11.95c0,7.68-6.23,13.91-13.91,13.91h-4.06
					C391.19,161.73,384.96,155.5,384.96,147.82z"/>
			</g>
		</g>
		<g>
			<g>
				<g>
					<path style="fill:#263238;" d="M384.96,135.88c0.01-0.01,0.14,0.17,0.36,0.5c0.24,0.37,0.57,0.86,0.97,1.48
						c0.85,1.33,2.05,3.19,3.51,5.48c2.95,4.68,7,11.08,11.46,18.16c0.03,0.04,0.06,0.09,0.08,0.13l-0.33,0
						c4.34-7.12,8.26-13.56,11.12-18.26c1.42-2.3,2.58-4.17,3.4-5.5c0.39-0.62,0.71-1.12,0.94-1.49c0.22-0.34,0.34-0.51,0.35-0.5
						c0.01,0.01-0.09,0.19-0.28,0.54c-0.22,0.38-0.51,0.89-0.88,1.52c-0.8,1.35-1.92,3.24-3.3,5.57
						c-2.84,4.71-6.72,11.17-11.02,18.32l-0.16,0.27l-0.17-0.27c-0.03-0.04-0.05-0.08-0.08-0.13c-4.43-7.1-8.44-13.53-11.37-18.22
						c-1.42-2.32-2.58-4.2-3.41-5.55c-0.38-0.63-0.68-1.14-0.91-1.52C385.05,136.07,384.95,135.88,384.96,135.88z"/>
				</g>
			</g>
		</g>
		<g>
			<g>
				<path style="fill:#263238;" d="M404.06,66.32c0,1.92-1.56,3.48-3.48,3.48c-1.92,0-3.48-1.56-3.48-3.48
					c0-1.92,1.56-3.48,3.48-3.48C402.5,62.84,404.06,64.4,404.06,66.32z"/>
			</g>
		</g>
		<g>
			<g>
				<g>
					<path style="fill:#263238;" d="M400.58,7.08c0.11,0,0.2,13.41,0.2,29.94c0,16.54-0.09,29.95-0.2,29.95
						c-0.11,0-0.2-13.4-0.2-29.95C400.39,20.49,400.47,7.08,400.58,7.08z"/>
				</g>
			</g>
		</g>
		<g>
			<g>
				<path style="fill:#263238;" d="M402.39,163.03c0,0.82-0.67,1.49-1.49,1.49c-0.82,0-1.49-0.67-1.49-1.49
					c0-0.82,0.67-1.49,1.49-1.49C401.72,161.54,402.39,162.2,402.39,163.03z"/>
			</g>
		</g>
		<g>
			<g>
				<path style="fill:#263238;" d="M400.24,163.58c0.08-0.04,0.16-0.08,0.24-0.12c-0.87,0.49-1.37,1.48-1.51,2.46
					c-0.13,0.99,0.05,1.99,0.25,2.97c0.07,0.31,0.23,0.7,0.55,0.68c0.29-0.02,0.42-0.36,0.47-0.64c0.1-0.59,0.12-1.19,0.05-1.79
					c-0.04,0.76,0.21,1.52,0.69,2.11c0.09,0.11,0.23,0.23,0.37,0.19c0.14-0.04,0.2-0.19,0.23-0.33c0.13-0.5,0.21-1.01,0.22-1.53
					c0.08,0.44,0.17,0.91,0.47,1.24c0.31,0.33,0.91,0.43,1.19,0.08c0.19-0.24,0.17-0.57,0.13-0.87c-0.25-1.78-0.98-3.48-2.08-4.89"
					/>
			</g>
		</g>
		<g>
			<g>
				<g>
					<path style="fill:#5D9EA6;" d="M386.97,135.88c0,0-14.32-16.51-12.73-17.1c1.59-0.6,14.32,8.55,14.32,8.55
						s-10.94-24.46-8.75-26.25c2.19-1.79,13.72,21.68,13.72,21.68s-1.79-34.21,0-34.6c1.79-0.4,8.35,34.21,8.35,34.21
						s9.74-31.62,12.53-31.62c2.78,0-2.98,30.43-2.98,30.43s11.53-19.49,13.32-16.9c1.79,2.59-8.15,23.67-8.15,23.67
						s14.52-12.13,15.11-10.54c0.6,1.59-15.71,18.49-15.71,18.49H386.97z"/>
				</g>
			</g>
			<g>
				<g>
					<g>
						<path style="fill:#263238;" d="M384.97,111.02c0.1-0.04,2.64,5.4,5.67,12.16c3.03,6.76,5.41,12.28,5.31,12.32
							c-0.1,0.04-2.64-5.4-5.67-12.16C387.25,116.58,384.87,111.06,384.97,111.02z"/>
					</g>
				</g>
			</g>
			<g>
				<g>
					<g>
						<path style="fill:#263238;" d="M396.54,114.06c0.11-0.01,0.53,4.79,0.94,10.72c0.41,5.93,0.66,10.74,0.55,10.75
							c-0.11,0.01-0.53-4.79-0.94-10.72C396.68,118.88,396.43,114.07,396.54,114.06z"/>
					</g>
				</g>
			</g>
			<g>
				<g>
					<g>
						<path style="fill:#263238;" d="M412.49,98.74c0.01,0-0.02,0.14-0.08,0.39c-0.08,0.29-0.19,0.65-0.31,1.09
							c-0.3,1-0.7,2.34-1.2,3.98c-1.01,3.36-2.37,8.02-3.75,13.2c-1.38,5.18-2.53,9.9-3.33,13.32c-0.39,1.67-0.71,3.04-0.95,4.05
							c-0.11,0.44-0.2,0.8-0.27,1.1c-0.07,0.25-0.11,0.38-0.12,0.38c-0.01,0,0-0.14,0.04-0.39c0.05-0.3,0.12-0.67,0.2-1.11
							c0.18-0.97,0.46-2.36,0.83-4.08c0.73-3.44,1.83-8.17,3.22-13.36c1.38-5.18,2.79-9.84,3.86-13.18
							c0.54-1.67,0.99-3.02,1.32-3.95c0.15-0.43,0.28-0.78,0.38-1.07C412.43,98.86,412.48,98.74,412.49,98.74z"/>
					</g>
				</g>
			</g>
			<g>
				<g>
					<g>
						<path style="fill:#263238;" d="M419.39,116.37c0.09,0.06-2.71,4.23-6.24,9.31c-3.54,5.08-6.48,9.15-6.57,9.08
							c-0.09-0.06,2.71-4.23,6.24-9.31C416.36,120.38,419.3,116.31,419.39,116.37z"/>
					</g>
				</g>
			</g>
			<g>
				<g>
					<g>
						<path style="fill:#263238;" d="M391.8,135.53c-0.03,0.04-0.52-0.29-1.25-0.89c-0.73-0.6-1.71-1.48-2.72-2.52
							c-1.01-1.04-1.86-2.04-2.45-2.79c-0.58-0.75-0.9-1.24-0.86-1.28c0.09-0.07,1.58,1.73,3.59,3.79
							C390.11,133.9,391.87,135.44,391.8,135.53z"/>
					</g>
				</g>
			</g>
			<g>
				<g>
					<g>
						<path style="fill:#263238;" d="M400.5,128.97c0.11-0.01,0.34,1.51,0.51,3.4c0.17,1.89,0.22,3.43,0.12,3.44
							s-0.34-1.51-0.51-3.4C400.44,130.52,400.39,128.98,400.5,128.97z"/>
					</g>
				</g>
			</g>
		</g>
		<g>
			<g>
				<g>
					<path style="fill:#FFFFFF;" d="M416.83,143.32c0,0.03-0.43,0.12-1.23,0.26c-0.8,0.14-1.95,0.32-3.39,0.52
						c-2.87,0.4-6.84,0.85-11.26,1c-4.42,0.15-8.43-0.09-11.3-0.47c-1.44-0.19-2.59-0.37-3.39-0.54c-0.79-0.16-1.23-0.26-1.22-0.29
						c0.01-0.03,0.45,0.02,1.25,0.14c0.8,0.12,1.96,0.27,3.39,0.42c2.87,0.31,6.86,0.5,11.26,0.36c4.4-0.15,8.37-0.56,11.24-0.88
						c1.38-0.16,2.53-0.29,3.4-0.4C416.38,143.33,416.83,143.29,416.83,143.32z"/>
				</g>
			</g>
		</g>
		<g>
			<g>
				<g>
					<path style="fill:#FFFFFF;" d="M416.83,146.88c0,0.03-0.43,0.12-1.23,0.26c-0.8,0.14-1.95,0.32-3.39,0.52
						c-2.87,0.4-6.84,0.85-11.26,1c-4.42,0.15-8.43-0.09-11.3-0.47c-1.44-0.19-2.59-0.37-3.39-0.54c-0.79-0.16-1.23-0.26-1.22-0.29
						c0.01-0.03,0.45,0.02,1.25,0.14c0.8,0.12,1.96,0.27,3.39,0.42c2.87,0.31,6.86,0.5,11.26,0.36c4.4-0.15,8.37-0.56,11.24-0.88
						c1.38-0.16,2.53-0.29,3.4-0.39C416.38,146.89,416.83,146.85,416.83,146.88z"/>
				</g>
			</g>
		</g>
	</g>
</g>
<g id="Character">
	<g>
		<g>
			<g>
				<g>
					<g>
						<path style="fill:#FFBE9D;" d="M182.47,178.34l-3.53,8.35c0,0,1.65,3.97,1.82,5.91c0.17,1.94-1.4,10.15-1.4,10.15
							s-1.72,0.11-2.13-1.57c-0.18-0.75,0.32-4.81,0.32-4.81l0,0c-0.93-1.21-2.81-1.02-3.48,0.35c-0.98,2.02-2.14,4.36-2.34,4.63
							c-0.22,0.3,0.15,3.32,0.46,5.56c0.19,1.34-1.57,2.2-2.39,1.12c-0.08-0.11-0.14-0.23-0.15-0.35c0,0-1.31,1.92-2.6-1.6
							c0,0-2.61-1.33-2.66-3.48c0,0-2.37-2.66-2.69-4.26c-0.32-1.59,5.11-11.2,5.11-11.2l6.68-13.8L182.47,178.34z"/>
					</g>
				</g>
			</g>
			<g>
				<g>
					<g>
						<g>
							<path style="fill:#EB996E;" d="M170.84,195.53c-0.05-0.03-0.52,0.53-1.17,1.51c-0.63,0.98-1.51,2.45-1.72,4.32
								c-0.17,1.88,0.45,3.49,0.91,4.56c0.48,1.08,0.85,1.71,0.91,1.68c0.07-0.03-0.19-0.71-0.58-1.81
								c-0.37-1.09-0.91-2.65-0.74-4.38c0.19-1.73,0.98-3.17,1.52-4.19C170.53,196.2,170.9,195.57,170.84,195.53z"/>
						</g>
					</g>
				</g>
			</g>
			<g>
				<g>
					<g>
						<g>
							<path style="fill:#EB996E;" d="M168.19,194.94c-0.04-0.05-0.57,0.41-1.15,1.32c-0.29,0.46-0.61,1.02-0.9,1.68
								c-0.27,0.66-0.59,1.42-0.58,2.31c0.02,0.86,0.21,1.63,0.38,2.32c0.17,0.63,0.33,1.23,0.48,1.82
								c0.28,1.03,0.49,1.66,0.56,1.65c0.07-0.02-0.02-0.67-0.22-1.73c-0.1-0.52-0.22-1.15-0.38-1.84
								c-0.15-0.69-0.32-1.44-0.33-2.22c-0.01-0.75,0.27-1.49,0.51-2.13c0.26-0.64,0.53-1.21,0.78-1.68
								C167.83,195.51,168.24,194.99,168.19,194.94z"/>
						</g>
					</g>
				</g>
			</g>
			<g>
				<g>
					<g>
						<g>
							<path style="fill:#EB996E;" d="M165.08,194.52c-0.18-0.09-0.99,1.69-1.82,3.88c-0.16,0.35-0.1,0.68-0.09,0.96
								c0.03,0.29,0.07,0.56,0.13,0.82c0.11,0.51,0.26,0.96,0.41,1.33c0.3,0.74,0.63,1.12,0.68,1.08c0.06-0.04-0.14-0.47-0.35-1.2
								c-0.1-0.37-0.21-0.81-0.29-1.3c-0.04-0.25-0.08-0.51-0.1-0.77c-0.01-0.26-0.04-0.54,0.06-0.74c0.43-1.11,0.77-2.12,1.02-2.85
								C164.98,194.99,165.12,194.55,165.08,194.52z"/>
						</g>
					</g>
				</g>
			</g>
		</g>
		<g>
			<path style="fill:#FFBE9D;" d="M322.84,157.89c1.16-1.19,2.32-2.37,3.49-3.56c0.26-0.27,0.55-0.55,0.93-0.61
				c0.65-0.11,1.23,0.57,1.25,1.23c0.03,0.66-0.32,1.27-0.69,1.83c-0.37,0.55-0.77,1.11-0.87,1.76"/>
		</g>
		<g>
			<path style="fill:#263238;" d="M356.73,128.13l-18.43,31.98l-34.47,0.25l0,0c-0.08-1.65,1.16-3.07,2.8-3.21l30.16-0.61
				l15.68-26.87C353.56,127.77,354.68,127.37,356.73,128.13L356.73,128.13z"/>
		</g>
		<g>
			<path style="fill:#FFBE9D;" d="M325.81,160.19c0.17-0.04-10.89,0-10.27,0.17c0.05,0.12,0.11,0.24,0.16,0.36l1.44,6.32
				c2.49-0.02,9.66-1.89,9.66-1.89s2.41-1.43,3.47-2.7l0-2.28L325.81,160.19z"/>
		</g>
		<g>
			<path style="fill:#E3A24E;" d="M316.06,160.22l-26.22-1.09l-12.12-28.59l-12.89,18.43l10.37,18.65c2.45,4.4,7.17,7.04,12.2,6.81
				l30.56-3.5L316.06,160.22z"/>
		</g>
		<g>
			<g>
				<g>
					<g>
						<g>
							<g>
								<path style="fill:#E3A24E;" d="M320.08,293.7l2.02,18.45c0,0,19.22,2.81,19.93,6.18l-35.42,6.54l-4.33-28.62L320.08,293.7z"
									/>
							</g>
						</g>
					</g>
				</g>
				<g style="opacity:0.6;">
					<g>
						<g>
							<g>
								<g>
									<path style="fill:#FFFFFF;" d="M310.86,312.22c-0.66,0.29-1.03,1.13-0.76,1.81c0.26,0.67,1.12,1.05,1.79,0.77
										c0.67-0.28,1.13-1.28,0.8-1.92c-0.34-0.64-1.36-1.03-1.95-0.6"/>
								</g>
							</g>
						</g>
					</g>
				</g>
				<g style="opacity:0.6;">
					<g>
						<g>
							<g>
								<path style="fill:#FFFFFF;" d="M306.61,324.87l-0.44-2.89l34.42-5.12c0,0,1.23,0.29,1.66,1.69L306.61,324.87z"/>
							</g>
						</g>
					</g>
				</g>
				<g>
					<g>
						<g>
							<g>
								<g>
									<path style="fill:#263238;" d="M322.66,311.89c0.02,0.17-0.84,0.38-1.61,1.07c-0.79,0.66-1.12,1.48-1.29,1.44
										c-0.17-0.01-0.06-1.09,0.89-1.9C321.59,311.67,322.67,311.72,322.66,311.89z"/>
								</g>
							</g>
						</g>
					</g>
				</g>
				<g>
					<g>
						<g>
							<g>
								<g>
									<path style="fill:#263238;" d="M326.62,312.89c0.06,0.16-0.65,0.57-1.13,1.39c-0.51,0.81-0.54,1.63-0.71,1.64
										c-0.16,0.05-0.43-0.95,0.19-1.96C325.58,312.94,326.59,312.72,326.62,312.89z"/>
								</g>
							</g>
						</g>
					</g>
				</g>
				<g>
					<g>
						<g>
							<g>
								<g>
									<path style="fill:#263238;" d="M329.4,317.05c-0.15,0.06-0.52-0.77-0.21-1.79c0.3-1.02,1.07-1.52,1.16-1.38
										c0.12,0.13-0.33,0.72-0.57,1.56C329.51,316.27,329.57,317.01,329.4,317.05z"/>
								</g>
							</g>
						</g>
					</g>
				</g>
				<g>
					<g>
						<g>
							<g>
								<g>
									<path style="fill:#263238;" d="M321.73,307.73c-0.05,0.17-0.88,0.05-1.86,0.26c-0.98,0.19-1.7,0.63-1.81,0.5
										c-0.12-0.11,0.53-0.86,1.68-1.1C320.9,307.15,321.79,307.58,321.73,307.73z"/>
								</g>
							</g>
						</g>
					</g>
				</g>
			</g>
			<g style="opacity:0.3;">
				<g>
					<g>
						<g>
							<polygon points="320.48,297.35 320.84,300.64 303.3,303.04 302.78,299.59 							"/>
						</g>
					</g>
				</g>
			</g>
			<g>
				<g>
					<g>
						<g>
							<g>
								<path style="fill:#263238;" d="M321.25,304.02c0.01,0.07-0.66,0.28-1.79,0.25c-0.56-0.01-1.23-0.1-1.95-0.3
									c-0.36-0.1-0.73-0.23-1.1-0.39c-0.18-0.08-0.39-0.16-0.6-0.34c-0.22-0.15-0.4-0.6-0.21-0.91c0.14-0.3,0.45-0.47,0.7-0.51
									c0.26-0.05,0.48-0.02,0.68-0.01c0.41,0.04,0.8,0.12,1.17,0.22c0.73,0.21,1.34,0.52,1.8,0.84c0.94,0.64,1.32,1.25,1.26,1.3
									c-0.07,0.07-0.55-0.42-1.49-0.93c-0.47-0.25-1.05-0.5-1.72-0.66c-0.34-0.08-0.7-0.14-1.07-0.17c-0.39-0.04-0.71,0-0.79,0.18
									c-0.03,0.07-0.03,0.1,0.07,0.19c0.1,0.09,0.26,0.17,0.44,0.25c0.35,0.16,0.69,0.29,1.02,0.4c0.67,0.22,1.29,0.34,1.82,0.41
									C320.56,303.97,321.24,303.92,321.25,304.02z"/>
							</g>
						</g>
					</g>
				</g>
			</g>
			<g>
				<g>
					<g>
						<g>
							<g>
								<path style="fill:#263238;" d="M321.06,304.3c-0.06,0.04-0.49-0.54-0.72-1.66c-0.11-0.55-0.15-1.24-0.04-1.99
									c0.06-0.37,0.15-0.76,0.3-1.15c0.16-0.38,0.34-0.89,1.01-1.07c0.35-0.06,0.68,0.17,0.82,0.39c0.15,0.22,0.21,0.43,0.28,0.63
									c0.13,0.41,0.18,0.82,0.18,1.2c0,0.77-0.22,1.45-0.49,1.95c-0.56,1.03-1.26,1.34-1.28,1.28c-0.07-0.08,0.49-0.5,0.89-1.47
									c0.2-0.48,0.35-1.09,0.32-1.76c-0.01-0.34-0.07-0.68-0.18-1.03c-0.11-0.37-0.3-0.66-0.43-0.6
									c-0.18,0.02-0.44,0.35-0.54,0.68c-0.14,0.35-0.23,0.69-0.3,1.03c-0.13,0.68-0.14,1.31-0.09,1.83
									C320.87,303.64,321.15,304.26,321.06,304.3z"/>
							</g>
						</g>
					</g>
				</g>
			</g>
		</g>
		<g>
			<g>
				<g>
					<g>
						<g>
							<g>
								<path style="fill:#E3A24E;" d="M172.67,304l-17.24,6.89c0,0,2.44,19.27-0.62,20.85l-15.79-32.38l26.42-11.84L172.67,304z"/>
							</g>
						</g>
					</g>
				</g>
				<g style="opacity:0.6;">
					<g>
						<g>
							<g>
								<g>
									<path style="fill:#FFFFFF;" d="M152.36,300.07c-0.46-0.56-1.37-0.68-1.95-0.25c-0.58,0.43-0.71,1.36-0.27,1.93
										c0.45,0.57,1.54,0.75,2.06,0.26c0.53-0.49,0.62-1.59,0.05-2.04"/>
								</g>
							</g>
						</g>
					</g>
				</g>
				<g style="opacity:0.6;">
					<g>
						<g>
							<g>
								<path style="fill:#FFFFFF;" d="M139.03,299.37l2.66-1.19l14.16,31.79c0,0,0.05,1.26-1.19,2.05L139.03,299.37z"/>
							</g>
						</g>
					</g>
				</g>
				<g>
					<g>
						<g>
							<g>
								<g>
									<path style="fill:#263238;" d="M155.84,311.35c-0.16,0.07-0.59-0.71-1.46-1.27c-0.85-0.59-1.73-0.69-1.73-0.86
										c-0.03-0.16,1.03-0.35,2.07,0.35C155.76,310.26,156,311.32,155.84,311.35z"/>
								</g>
							</g>
						</g>
					</g>
				</g>
				<g>
					<g>
						<g>
							<g>
								<g>
									<path style="fill:#263238;" d="M155.94,315.44c-0.14,0.11-0.72-0.47-1.64-0.72c-0.91-0.27-1.71-0.09-1.77-0.25
										c-0.09-0.14,0.8-0.67,1.94-0.34C155.6,314.45,156.09,315.37,155.94,315.44z"/>
								</g>
							</g>
						</g>
					</g>
				</g>
				<g>
					<g>
						<g>
							<g>
								<g>
									<path style="fill:#263238;" d="M152.67,319.23c-0.1-0.13,0.61-0.71,1.67-0.69c1.06,0.02,1.75,0.62,1.64,0.75
										c-0.09,0.15-0.78-0.13-1.65-0.14C153.45,319.13,152.75,319.38,152.67,319.23z"/>
								</g>
							</g>
						</g>
					</g>
				</g>
				<g>
					<g>
						<g>
							<g>
								<g>
									<path style="fill:#263238;" d="M159.59,309.34c-0.18,0-0.28-0.84-0.74-1.72c-0.45-0.89-1.06-1.46-0.96-1.61
										c0.08-0.14,0.98,0.28,1.51,1.33C159.93,308.39,159.75,309.37,159.59,309.34z"/>
								</g>
							</g>
						</g>
					</g>
				</g>
			</g>
			<g style="opacity:0.3;">
				<g>
					<g>
						<g>
							<polygon points="169.25,305.36 166.18,306.59 159.17,290.34 161.89,289.11 							"/>
						</g>
					</g>
				</g>
			</g>
			<g>
				<g>
					<g>
						<g>
							<g>
								<path style="fill:#263238;" d="M163.04,307.89c-0.07,0.03-0.45-0.56-0.72-1.65c-0.14-0.54-0.23-1.21-0.23-1.96
									c0-0.37,0.03-0.77,0.08-1.17c0.03-0.2,0.05-0.42,0.17-0.67c0.09-0.25,0.47-0.54,0.82-0.45c0.33,0.06,0.57,0.31,0.68,0.54
									c0.12,0.24,0.15,0.46,0.19,0.66c0.07,0.41,0.1,0.8,0.1,1.18c-0.01,0.76-0.14,1.43-0.33,1.96c-0.37,1.08-0.86,1.6-0.91,1.56
									c-0.09-0.05,0.25-0.64,0.49-1.68c0.12-0.52,0.2-1.14,0.18-1.84c-0.01-0.35-0.05-0.71-0.13-1.08
									c-0.06-0.39-0.19-0.69-0.39-0.71c-0.07-0.01-0.1,0-0.17,0.12c-0.06,0.12-0.09,0.3-0.12,0.49c-0.06,0.38-0.1,0.74-0.11,1.09
									c-0.03,0.7,0.02,1.34,0.09,1.86C162.9,307.21,163.13,307.85,163.04,307.89z"/>
							</g>
						</g>
					</g>
				</g>
			</g>
			<g>
				<g>
					<g>
						<g>
							<g>
								<path style="fill:#263238;" d="M162.72,307.78c-0.05-0.05,0.39-0.62,1.4-1.14c0.5-0.26,1.15-0.48,1.91-0.57
									c0.38-0.05,0.78-0.06,1.19-0.02c0.41,0.05,0.95,0.09,1.3,0.68c0.16,0.32,0.02,0.7-0.16,0.89c-0.17,0.21-0.36,0.31-0.53,0.44
									c-0.36,0.23-0.74,0.39-1.11,0.49c-0.75,0.21-1.46,0.18-2.02,0.05c-1.14-0.27-1.63-0.85-1.58-0.89
									c0.06-0.09,0.62,0.33,1.65,0.46c0.51,0.06,1.14,0.04,1.78-0.16c0.32-0.1,0.64-0.25,0.94-0.45c0.33-0.21,0.55-0.46,0.46-0.58
									c-0.07-0.17-0.46-0.33-0.8-0.34c-0.37-0.04-0.73-0.04-1.07-0.01c-0.69,0.06-1.3,0.22-1.79,0.41
									C163.31,307.42,162.78,307.86,162.72,307.78z"/>
							</g>
						</g>
					</g>
				</g>
			</g>
		</g>
		<g>
			<g>
				<g>
					<g>
						<g>
							<g>
								<path style="fill:#263238;" d="M290.51,69.16c-2.7-1.67-6.46,0.15-9.32-1.23c-1.74-0.84-2.74-2.67-4.13-4.01
									c-2.08-2-5.47-3.13-8.29-2.52c-2.82,0.61-4.78,1.54-5.85,4.22c-1.92-1.9-6.45-0.04-8.46,2.38
									c-2.01,2.41-2.44,5.34-2.48,8.48c-0.08,5.41,0.92,10.83,2.92,15.86c0.18,0.45,0.51,0.97,0.98,0.89
									c0.33-0.06,0.52-0.4,0.65-0.7c1.14-2.58,1.52-5.43,2.01-8.21c0.48-2.78,1.1-5.62,2.65-7.99c1.54-2.37,4.19-4.2,7.01-4.02
									c2.08,0.13,3.97,1.31,5.47,2.76c1.5,1.45,2.7,3.18,4.08,4.74c1.38,1.56,3.01,3.01,5,3.62c1.99,0.62,4.4,0.24,5.74-1.36
									s1.06-4.45-0.81-5.38c1.86,0.31,3.85-0.84,4.51-2.6C292.86,72.33,292.11,70.15,290.51,69.16z"/>
							</g>
						</g>
					</g>
				</g>
				<g>
					<g>
						<g>
							<g>
								<g>
									<g>
										<g>
											<g>
												<g>
													<g>
														<g>
															<g>
																<g>
																	<g>
																		<g>
																			<g>
																				<g>
																					<g>
																						<path style="fill:#FFBE9D;" d="M269.02,114.06l1.25-5.91c0,0,8.08,0.55,9.94-7.23
																							c0.9-3.76,2.11-11.65,3.13-18.8c1.1-7.69-3.9-14.94-11.48-16.65l-0.75-0.17
																							c-8.23-1.36-13.98,4.87-15.11,13.13l-6.34,31.65c-1.07,5.33,2.37,10.51,7.69,11.62l-0.22,2.99
																							C262.46,125.78,267.89,119.39,269.02,114.06z"/>
																					</g>
																				</g>
																			</g>
																		</g>
																	</g>
																</g>
															</g>
														</g>
													</g>
												</g>
											</g>
										</g>
										<g>
											<g>
												<g>
													<g>
														<g>
															<g>
																<g>
																	<g>
																		<g>
																			<g>
																				<g>
																					<g>
																						<path style="fill:#EB996E;" d="M270.28,108.15c0,0-5.02-0.71-9.52-5.19c0,0,1.14,6.16,9.08,7.21
																							L270.28,108.15z"/>
																					</g>
																				</g>
																			</g>
																		</g>
																	</g>
																</g>
															</g>
														</g>
													</g>
												</g>
											</g>
										</g>
									</g>
								</g>
							</g>
							<g>
								<g>
									<g>
										<g>
											<g>
												<g>
													<g>
														<g>
															<g>
																<g>
																	<g>
																		<g>
																			<g>
																				<g>
																					<g>
																						<g>
																							<g>
																								<g>
																									<path style="fill:#263238;" d="M280.46,87.67c-0.11,0.59-0.71,0.99-1.33,0.88
																										c-0.62-0.11-1.03-0.67-0.92-1.26c0.11-0.59,0.71-0.99,1.33-0.88C280.16,86.51,280.57,87.07,280.46,87.67z"
																										/>
																								</g>
																							</g>
																						</g>
																					</g>
																				</g>
																			</g>
																		</g>
																	</g>
																</g>
															</g>
														</g>
													</g>
													<g>
														<g>
															<g>
																<g>
																	<g>
																		<g>
																			<g>
																				<g>
																					<g>
																						<g>
																							<g>
																								<g>
																									<g>
																										<path style="fill:#263238;" d="M280.8,85.55c-0.17,0.11-0.87-0.7-2.07-0.97
																											c-1.19-0.28-2.21,0.13-2.31-0.04c-0.05-0.08,0.15-0.31,0.6-0.5c0.44-0.19,1.14-0.32,1.89-0.15
																											c0.75,0.17,1.31,0.59,1.61,0.95C280.82,85.21,280.88,85.5,280.8,85.55z"/>
																									</g>
																								</g>
																							</g>
																						</g>
																					</g>
																				</g>
																			</g>
																		</g>
																	</g>
																</g>
															</g>
														</g>
													</g>
												</g>
												<g>
													<g>
														<g>
															<g>
																<g>
																	<g>
																		<g>
																			<g>
																				<g>
																					<g>
																						<g>
																							<g>
																								<g>
																									<path style="fill:#263238;" d="M268.88,85.26c-0.11,0.59-0.71,0.99-1.33,0.88
																										c-0.62-0.11-1.03-0.67-0.92-1.26c0.11-0.59,0.71-0.99,1.33-0.88C268.58,84.1,269,84.67,268.88,85.26z"/>
																								</g>
																							</g>
																						</g>
																					</g>
																				</g>
																			</g>
																		</g>
																	</g>
																</g>
															</g>
														</g>
													</g>
													<g>
														<g>
															<g>
																<g>
																	<g>
																		<g>
																			<g>
																				<g>
																					<g>
																						<g>
																							<g>
																								<g>
																									<g>
																										<path style="fill:#263238;" d="M268.96,83.12c-0.17,0.11-0.88-0.7-2.07-0.97
																											c-1.19-0.28-2.21,0.13-2.31-0.04c-0.05-0.08,0.15-0.31,0.6-0.5c0.44-0.19,1.14-0.32,1.89-0.15
																											c0.75,0.17,1.31,0.59,1.61,0.95C268.98,82.78,269.04,83.07,268.96,83.12z"/>
																									</g>
																								</g>
																							</g>
																						</g>
																					</g>
																				</g>
																			</g>
																		</g>
																	</g>
																</g>
															</g>
														</g>
													</g>
												</g>
												<g>
													<g>
														<g>
															<g>
																<g>
																	<g>
																		<g>
																			<g>
																				<g>
																					<g>
																						<g>
																							<g>
																								<g>
																									<path style="fill:#263238;" d="M271.3,92.99c0.01-0.07,0.78-0.03,2.03,0.09c0.31,0.04,0.62,0.04,0.72-0.16
																										c0.12-0.21,0.07-0.56,0-0.95c-0.12-0.81-0.25-1.65-0.38-2.54c-0.51-3.6-0.8-6.54-0.66-6.56
																										c0.15-0.02,0.68,2.89,1.18,6.49c0.12,0.89,0.23,1.73,0.34,2.54c0.04,0.37,0.15,0.81-0.11,1.24
																										c-0.13,0.21-0.4,0.33-0.6,0.33c-0.21,0.02-0.38-0.02-0.54-0.05C272.05,93.23,271.29,93.06,271.3,92.99z"/>
																								</g>
																							</g>
																						</g>
																					</g>
																				</g>
																			</g>
																		</g>
																	</g>
																</g>
															</g>
														</g>
													</g>
												</g>
												<g>
													<g>
														<g>
															<g>
																<g>
																	<g>
																		<g>
																			<g>
																				<g>
																					<g>
																						<g>
																							<g>
																								<g>
																									<path style="fill:#263238;" d="M267.59,93.03c0.2,0.03-0.09,1.34,0.81,2.51c0.9,1.18,2.32,1.35,2.29,1.53
																										c0,0.09-0.37,0.18-0.96,0.07c-0.58-0.11-1.38-0.48-1.93-1.2c-0.55-0.72-0.67-1.54-0.6-2.09
																										C267.28,93.29,267.5,93,267.59,93.03z"/>
																								</g>
																							</g>
																						</g>
																					</g>
																				</g>
																			</g>
																		</g>
																	</g>
																</g>
															</g>
														</g>
													</g>
												</g>
											</g>
										</g>
									</g>
									<g>
										<g>
											<g>
												<g>
													<g>
														<g>
															<g>
																<g>
																	<g>
																		<g>
																			<g>
																				<g>
																					<path style="fill:#263238;" d="M270.47,77c-0.19,0.3-1.35-0.13-2.8-0.27c-1.44-0.18-2.67-0.02-2.79-0.36
																						c-0.05-0.16,0.22-0.42,0.75-0.63c0.53-0.21,1.32-0.35,2.18-0.25c0.87,0.1,1.61,0.41,2.07,0.73
																						C270.35,76.54,270.55,76.86,270.47,77z"/>
																				</g>
																			</g>
																		</g>
																	</g>
																</g>
															</g>
														</g>
													</g>
												</g>
											</g>
										</g>
									</g>
									<g>
										<g>
											<g>
												<g>
													<g>
														<g>
															<g>
																<g>
																	<g>
																		<g>
																			<g>
																				<g>
																					<path style="fill:#263238;" d="M281.14,81.98c-0.27,0.22-1.03-0.24-2.03-0.48c-0.98-0.27-1.88-0.23-2.01-0.56
																						c-0.05-0.16,0.14-0.4,0.57-0.58c0.42-0.18,1.07-0.25,1.75-0.07c0.68,0.18,1.21,0.56,1.5,0.91
																						C281.21,81.57,281.26,81.87,281.14,81.98z"/>
																				</g>
																			</g>
																		</g>
																	</g>
																</g>
															</g>
														</g>
													</g>
												</g>
											</g>
										</g>
									</g>
								</g>
							</g>
						</g>
					</g>
				</g>
				<g>
					<g>
						<g>
							<g>
								<g>
									<g>
										<g>
											<g>
												<g>
													<g>
														<g>
															<g>
																<g>
																	<path style="fill:#FFBE9D;" d="M255.34,84.35c-0.12-0.09-5-2.8-6.04,2.58c-1.03,5.37,4.57,5.3,4.61,5.15
																		C253.95,91.93,255.34,84.35,255.34,84.35z"/>
																</g>
															</g>
														</g>
													</g>
												</g>
											</g>
										</g>
									</g>
								</g>
							</g>
						</g>
					</g>
					<g>
						<g>
							<g>
								<g>
									<g>
										<g>
											<g>
												<g>
													<g>
														<g>
															<g>
																<g>
																	<g>
																		<path style="fill:#EB996E;" d="M252.66,89.73c-0.02-0.02-0.11,0.05-0.28,0.09c-0.17,0.04-0.44,0.04-0.7-0.12
																			c-0.53-0.32-0.83-1.31-0.67-2.28c0.08-0.49,0.27-0.94,0.52-1.29c0.24-0.36,0.55-0.59,0.84-0.58
																			c0.3-0.01,0.47,0.2,0.5,0.36c0.04,0.16-0.01,0.26,0.02,0.28c0.01,0.02,0.13-0.07,0.13-0.3
																			c0-0.11-0.04-0.25-0.15-0.38c-0.11-0.13-0.29-0.22-0.49-0.24c-0.42-0.05-0.87,0.26-1.14,0.64
																			c-0.3,0.38-0.52,0.88-0.61,1.44c-0.17,1.09,0.19,2.21,0.92,2.58c0.36,0.17,0.7,0.12,0.88,0.02
																			C252.63,89.86,252.68,89.74,252.66,89.73z"/>
																	</g>
																</g>
															</g>
														</g>
													</g>
												</g>
											</g>
										</g>
									</g>
								</g>
							</g>
						</g>
					</g>
				</g>
				<g>
					<g>
						<g>
							<g>
								<g>
									<path style="fill:#263238;" d="M285.36,80.85c-3.64,0.14-7.31-1.6-9.5-4.52c-1.54-2.04-2.48-4.68-4.69-5.95
										c-1.49-0.85-3.35-0.91-5-0.43c-1.65,0.48-3.12,1.45-4.44,2.55c0.61,4.31-1.4,8.5-3.36,12.39c-0.22,0.43-0.46,0.89-0.9,1.09
										c-0.74,0.34-1.6-0.25-2.02-0.95c-0.67-1.12-0.72-2.5-0.66-3.81c0.13-2.97,0.73-5.95,2-8.64c1.28-2.69,3.26-5.08,5.81-6.62
										c3.19-1.92,7.16-2.39,10.78-1.51c3.62,0.87,6.87,3.04,9.27,5.88c1.11,1.32,2.08,2.82,2.42,4.51"/>
								</g>
							</g>
						</g>
					</g>
				</g>
			</g>
			<g>
				<g>
					<g>
						<g>
							<g>
								<path style="fill:#455A64;" d="M292.33,71.55c0,0-0.01,0.17-0.15,0.45c-0.14,0.28-0.45,0.66-0.99,0.93
									c-0.54,0.27-1.31,0.37-2.14,0.22c-0.42-0.07-0.86-0.19-1.31-0.38c-0.44-0.2-0.89-0.48-1.22-0.94
									c-0.31-0.44-0.51-1.06-0.33-1.66c0.18-0.61,0.8-1.02,1.44-1.11c0.32-0.04,0.66-0.02,0.99,0.09
									c0.32,0.11,0.62,0.34,0.82,0.62c0.43,0.56,0.53,1.34,0.37,2.04c-0.16,0.72-0.64,1.36-1.28,1.77
									c-0.64,0.41-1.4,0.63-2.18,0.66c-1.57,0.07-3.14-0.57-4.45-1.52c-1.33-0.95-2.41-2.13-3.41-3.27
									c-1.01-1.14-1.98-2.23-3.06-3.09c-1.07-0.87-2.26-1.48-3.46-1.72c-1.2-0.24-2.37-0.15-3.38,0.1
									c-2.04,0.52-3.42,1.63-4.27,2.42c-0.43,0.4-0.73,0.75-0.93,0.98c-0.2,0.23-0.31,0.36-0.31,0.35c0,0,0.02-0.04,0.06-0.1
									c0.05-0.07,0.11-0.16,0.21-0.29c0.19-0.25,0.48-0.6,0.9-1.02c0.83-0.82,2.21-1.97,4.29-2.53c1.03-0.27,2.23-0.37,3.47-0.13
									c1.24,0.24,2.48,0.86,3.58,1.74c1.11,0.88,2.1,1.98,3.11,3.11c1.01,1.13,2.07,2.3,3.37,3.22c1.28,0.93,2.78,1.55,4.28,1.48
									c0.74-0.03,1.46-0.23,2.05-0.61c0.59-0.38,1.03-0.95,1.18-1.61c0.15-0.64,0.06-1.35-0.32-1.84
									c-0.36-0.52-1.01-0.72-1.59-0.63c-0.58,0.07-1.11,0.43-1.27,0.95c-0.16,0.52,0,1.07,0.28,1.48c0.29,0.42,0.71,0.7,1.13,0.89
									c0.42,0.19,0.86,0.31,1.26,0.39c0.81,0.16,1.55,0.09,2.07-0.16c0.53-0.24,0.84-0.6,0.99-0.86
									C292.29,71.71,292.31,71.54,292.33,71.55z"/>
							</g>
						</g>
					</g>
				</g>
			</g>
			<g>
				<g>
					<g>
						<g>
							<g>
								<path style="fill:#455A64;" d="M252.47,72.38c0.03-0.05,0.53,0.44,1.53,0.79c0.5,0.17,1.13,0.27,1.83,0.22
									c0.7-0.04,1.46-0.23,2.22-0.51c1.52-0.59,2.56-1.74,3.09-2.64c0.55-0.92,0.68-1.59,0.73-1.57c0.02,0,0,0.17-0.08,0.47
									c-0.08,0.3-0.22,0.72-0.48,1.2c-0.51,0.96-1.57,2.18-3.16,2.8c-0.79,0.29-1.57,0.48-2.3,0.51
									c-0.73,0.04-1.39-0.09-1.91-0.29c-0.52-0.2-0.89-0.45-1.13-0.64C252.58,72.52,252.46,72.4,252.47,72.38z"/>
							</g>
						</g>
					</g>
				</g>
			</g>
			<g>
				<g>
					<g>
						<g>
							<g>
								<path style="fill:#455A64;" d="M251.84,76.3c0.02-0.05,0.61,0.23,1.63,0.4c1.01,0.17,2.48,0.18,3.95-0.37
									c1.47-0.56,2.57-1.54,3.21-2.34c0.65-0.8,0.91-1.4,0.95-1.38c0.02,0.01-0.03,0.16-0.16,0.43c-0.12,0.27-0.33,0.64-0.64,1.07
									c-0.62,0.85-1.73,1.89-3.26,2.47c-1.53,0.58-3.06,0.54-4.08,0.31c-0.52-0.11-0.92-0.25-1.19-0.37
									C251.97,76.4,251.83,76.31,251.84,76.3z"/>
							</g>
						</g>
					</g>
				</g>
			</g>
			<g>
				<g>
					<g>
						<g>
							<g>
								<path style="fill:#EB996E;" d="M263.82,87.32c-0.07,0-0.13-0.07-0.13-0.15c0-0.08,0.06-0.15,0.14-0.14
									c0.07,0,0.13,0.07,0.13,0.15C263.96,87.25,263.9,87.32,263.82,87.32z"/>
							</g>
						</g>
					</g>
				</g>
			</g>
			<g>
				<g>
					<g>
						<g>
							<g>
								<path style="fill:#EB996E;" d="M266.23,87.31c-0.07,0-0.13-0.08-0.13-0.17c0-0.09,0.06-0.17,0.14-0.17
									c0.07,0,0.13,0.08,0.13,0.17C266.37,87.24,266.31,87.32,266.23,87.31z"/>
							</g>
						</g>
					</g>
				</g>
			</g>
			<g>
				<g>
					<g>
						<g>
							<g>
								<path style="fill:#EB996E;" d="M267.78,87.62c-0.07-0.01-0.13-0.11-0.11-0.23c0.01-0.12,0.08-0.21,0.16-0.21
									c0.07,0.01,0.13,0.11,0.11,0.23C267.93,87.54,267.86,87.63,267.78,87.62z"/>
							</g>
						</g>
					</g>
				</g>
			</g>
			<g>
				<g>
					<g>
						<g>
							<g>
								<path style="fill:#EB996E;" d="M264.63,89.01c-0.07-0.02-0.12-0.07-0.11-0.11c0.01-0.05,0.08-0.07,0.15-0.05
									c0.07,0.02,0.12,0.07,0.11,0.11C264.77,89,264.7,89.03,264.63,89.01z"/>
							</g>
						</g>
					</g>
				</g>
			</g>
			<g>
				<g>
					<g>
						<g>
							<g>
								<path style="fill:#EB996E;" d="M266.84,89c-0.07-0.01-0.13-0.09-0.11-0.17c0.01-0.08,0.08-0.14,0.16-0.13
									c0.07,0.01,0.13,0.09,0.11,0.17C266.98,88.95,266.91,89.01,266.84,89z"/>
							</g>
						</g>
					</g>
				</g>
			</g>
			<g>
				<g>
					<g>
						<g>
							<g>
								<path style="fill:#EB996E;" d="M278.07,90.16c-0.07,0-0.13-0.07-0.13-0.16c0-0.08,0.06-0.15,0.14-0.15
									c0.07,0,0.13,0.07,0.13,0.16C278.21,90.09,278.14,90.16,278.07,90.16z"/>
							</g>
						</g>
					</g>
				</g>
			</g>
			<g>
				<g>
					<g>
						<g>
							<g>
								<path style="fill:#EB996E;" d="M279.66,90.37c-0.07-0.01-0.13-0.09-0.11-0.19c0.01-0.09,0.08-0.16,0.16-0.15
									c0.07,0.01,0.13,0.09,0.11,0.19C279.81,90.31,279.74,90.38,279.66,90.37z"/>
							</g>
						</g>
					</g>
				</g>
			</g>
			<g>
				<g>
					<g>
						<g>
							<g>
								<path style="fill:#EB996E;" d="M276.68,89.89c-0.07,0-0.13-0.06-0.13-0.12c0-0.07,0.06-0.12,0.14-0.12
									c0.07,0,0.13,0.06,0.13,0.12C276.82,89.84,276.76,89.89,276.68,89.89z"/>
							</g>
						</g>
					</g>
				</g>
			</g>
			<g>
				<g>
					<g>
						<g>
							<g>
								<path style="fill:#EB996E;" d="M277.49,91.71c-0.07,0.01-0.15-0.04-0.16-0.13c-0.02-0.08,0.03-0.17,0.1-0.18
									c0.07-0.01,0.15,0.04,0.16,0.13C277.61,91.61,277.56,91.69,277.49,91.71z"/>
							</g>
						</g>
					</g>
				</g>
			</g>
			<g>
				<g>
					<g>
						<g>
							<g>
								<path style="fill:#EB996E;" d="M278.88,91.74c-0.07-0.04-0.1-0.11-0.07-0.16c0.03-0.06,0.11-0.07,0.17-0.04
									c0.07,0.04,0.1,0.11,0.07,0.16C279.02,91.76,278.95,91.78,278.88,91.74z"/>
							</g>
						</g>
					</g>
				</g>
			</g>
		</g>
		<g>
			<polygon style="fill:#1C2F5C;" points="220.73,216.27 205.8,265.4 161.58,287.53 171.12,309.74 233.46,286.41 252.92,226.6 			
				"/>
		</g>
		<g>
			<path style="fill:#E3A24E;" d="M226.52,109.47l-40.45,25.68c-1.97,1.25-3.45,3.15-4.17,5.38l-12.69,39.16l13.95,4.92l14.72-36.62
				l36.43-15.08L226.52,109.47z"/>
		</g>
		<g>
			<path style="fill:#E3A24E;" d="M270.02,121.49l1.15-1.6l-2.1-6.09l-5.72,8.66l-1.53-4.73l-11.48-13.67l-4.99,3.65l-18.83,1.75
				l0.12,0.51l-3.6,27.79l-2.19,29.85l-4.39,14.62l-1.85,1.97c-1.12,1.19-1.56,2.88-1.18,4.47l0.13,0.52l46.22,15l3.58-5.59
				l14.38-68.07L270.02,121.49z"/>
		</g>
		<g>
			<path style="fill:#1C2F5C;" d="M315.62,236.09c-0.97-9.07-7.23-16.71-15.94-19.43l-39.67-12.5l-46.46-14.92
				c-3.27,7.05-3.72,14.52-3.45,18.87c0.55,9.21,10.62,18.04,20.68,20.58l57.7,14.56l10.88,56.95l22.91-1.82L315.62,236.09z"/>
		</g>
		<g>
			<g>
				<path style="fill:#455A64;" d="M288.74,243.57c0,0.02-0.26-0.03-0.74-0.13c-0.53-0.12-1.23-0.27-2.11-0.46
					c-1.83-0.42-4.47-1.07-7.72-1.91c-6.5-1.67-15.41-4.21-25.38-6.55c-9.96-2.43-18.8-5.31-25.07-7.72
					c-3.14-1.2-5.64-2.25-7.36-3.01c-0.86-0.38-1.52-0.69-1.97-0.9c-0.45-0.21-0.68-0.33-0.67-0.35c0.01-0.02,0.25,0.07,0.71,0.25
					c0.5,0.2,1.17,0.47,2,0.81c1.74,0.7,4.26,1.7,7.41,2.85c6.29,2.31,15.12,5.13,25.06,7.56c9.97,2.33,18.88,4.93,25.35,6.7
					c3.2,0.86,5.8,1.57,7.67,2.07c0.87,0.23,1.56,0.42,2.09,0.56C288.49,243.48,288.74,243.55,288.74,243.57z"/>
			</g>
		</g>
		<g>
			<g>
				<path style="fill:#455A64;" d="M294.37,236.73c0.12,0.05-0.67,1.97-2.38,3.85c-1.7,1.89-3.53,2.86-3.59,2.75
					c-0.09-0.13,1.57-1.27,3.21-3.1C293.26,238.42,294.23,236.66,294.37,236.73z"/>
			</g>
		</g>
		<g>
			<g>
				<path style="fill:#455A64;" d="M297.8,241.95c0.06,0.12-1.92,1.06-4.57,1.43c-2.65,0.39-4.81,0.05-4.79-0.08
					c0.01-0.16,2.14-0.05,4.72-0.43C295.73,242.5,297.75,241.8,297.8,241.95z"/>
			</g>
		</g>
		<g>
			<g>
				<path style="fill:#455A64;" d="M233.42,195.77c0.04-0.14,13.96,4.13,31.08,9.52c17.12,5.4,30.97,9.88,30.92,10.02
					c-0.04,0.14-13.96-4.13-31.08-9.53C247.22,200.4,233.38,195.91,233.42,195.77z"/>
			</g>
		</g>
		<g>
			<g>
				<path style="fill:#263238;" d="M234.3,130.07c-0.08-0.06,0.96-1.09,1.65-3.26c0.35-1.07,0.64-2.4,0.76-3.89
					c0.12-1.49,0.09-3.15-0.29-4.82c-0.4-1.66-1.18-3.14-2.09-4.3c-0.93-1.16-1.98-2.01-2.95-2.59c-1.95-1.16-3.39-1.4-3.35-1.5
					c0.01-0.03,0.36,0.01,0.99,0.17c0.63,0.16,1.52,0.46,2.55,1.02c1.02,0.55,2.15,1.41,3.14,2.61c0.97,1.2,1.81,2.73,2.23,4.48
					c0.4,1.75,0.41,3.46,0.26,4.98c-0.15,1.53-0.48,2.88-0.89,3.97c-0.41,1.09-0.88,1.92-1.29,2.42
					C234.61,129.87,234.32,130.09,234.3,130.07z"/>
			</g>
		</g>
		<g style="opacity:0.3;">
			<g>
				<path d="M223.03,137.78c2.65-0.69,8.11-3.65,8.11-3.65c-3.29,8.65-6.82,18.99-9.92,27.71
					C222.13,153.79,222.13,145.84,223.03,137.78"/>
			</g>
		</g>
		<g>
			<g>
				<path style="fill:#263238;" d="M192.61,143.12c0.07-0.12,1.61,0.71,3.1,2.25c1.5,1.53,2.29,3.1,2.17,3.16
					c-0.13,0.08-1.09-1.32-2.54-2.8C193.9,144.25,192.52,143.25,192.61,143.12z"/>
			</g>
		</g>
		<g>
			<g>
				<path style="fill:#263238;" d="M195.87,137.7c0.1-0.08,1.57,1.98,2.24,4.99c0.7,3,0.26,5.5,0.14,5.47
					c-0.16-0.01,0.03-2.45-0.64-5.35C196.96,139.9,195.73,137.78,195.87,137.7z"/>
			</g>
		</g>
		<g>
			<g>
				<path style="fill:#263238;" d="M216.1,161.55c0,0.14-0.04,0.26-0.1,0.26c-0.05,0-0.1-0.12-0.1-0.26s0.04-0.26,0.1-0.26
					C216.06,161.29,216.1,161.41,216.1,161.55z"/>
			</g>
		</g>
		<g>
			<g>
				<path style="fill:#263238;" d="M263.35,198.62c-0.02,0,0.01-0.21,0.08-0.6c0.09-0.44,0.2-1.01,0.34-1.7
					c0.32-1.54,0.77-3.65,1.31-6.23c1.12-5.32,2.64-12.56,4.33-20.55c1.68-8,3.21-15.24,4.33-20.56c0.56-2.58,1.02-4.69,1.35-6.22
					c0.16-0.69,0.29-1.25,0.39-1.69c0.09-0.38,0.15-0.58,0.17-0.58c0.02,0-0.01,0.21-0.07,0.6c-0.08,0.45-0.17,1.01-0.3,1.71
					c-0.29,1.54-0.7,3.66-1.19,6.26c-1.03,5.28-2.5,12.56-4.18,20.59c-1.68,8.03-3.27,15.29-4.48,20.53
					c-0.61,2.62-1.11,4.74-1.48,6.19c-0.18,0.68-0.32,1.24-0.43,1.68C263.43,198.43,263.37,198.62,263.35,198.62z"/>
			</g>
		</g>
		<g>
			<g>
				<path style="fill:#263238;" d="M286.13,166.75c-0.13,0-0.07-2.05,1.05-4.27c1.1-2.23,2.71-3.51,2.78-3.4
					c0.11,0.11-1.27,1.5-2.32,3.63C286.57,164.84,286.29,166.78,286.13,166.75z"/>
			</g>
		</g>
		<g>
			<g>
				<path style="fill:#263238;" d="M288.47,169.18c-0.12,0.04-0.73-2.32-0.29-5.25c0.42-2.93,1.68-5.02,1.78-4.95
					c0.15,0.07-0.87,2.19-1.27,5.02C288.26,166.83,288.63,169.16,288.47,169.18z"/>
			</g>
		</g>
		<g>
			<polygon style="fill:#FFBE9D;" points="336.79,160.11 329.16,160.18 330.11,162.6 336.72,161.04 			"/>
		</g>
		<g style="opacity:0.3;">
			<g>
				<path d="M271.51,160.91c0,0,5.08,8.88,5.01,8.64c0.34-8.48,0.31-16.56-1.64-24.82"/>
			</g>
		</g>
		<g>
			<g>
				<path style="fill:#263238;" d="M261.82,117.96c0.04,0.05-0.68,0.67-1.85,1.8c-1.18,1.11-2.75,2.79-4.84,4.52l-0.23,0.19
					l-0.14-0.27c-0.71-1.32-1.49-2.76-2.3-4.26c-1.87-3.39-3.63-6.41-4.93-8.59c-0.6-1.02-1.11-1.88-1.53-2.59
					c-0.36-0.61-0.54-0.96-0.51-0.98c0.03-0.02,0.27,0.29,0.68,0.87c0.41,0.58,0.98,1.44,1.67,2.5c1.38,2.14,3.2,5.14,5.07,8.54
					c0.83,1.5,1.59,2.95,2.28,4.28l-0.37-0.08c2.07-1.67,3.7-3.3,4.94-4.36C261,118.46,261.79,117.92,261.82,117.96z"/>
			</g>
		</g>
		<g>
			<g>
				<path style="fill:#263238;" d="M270.91,120.36c0.04,0.03-0.18,0.43-0.63,1.05c-0.44,0.63-1.15,1.48-1.89,2.51l-0.28,0.39
					l-0.14-0.44c-0.29-0.91-0.6-1.87-0.92-2.89c-0.21-0.68-0.41-1.33-0.59-1.95l0.44,0.09c-1.97,2.41-3.46,4.1-3.55,4.03
					c-0.09-0.08,1.24-1.9,3.15-4.33l0.29-0.38l0.15,0.46c0.19,0.61,0.4,1.26,0.61,1.93c0.31,1.01,0.59,1.97,0.87,2.88l-0.42-0.05
					c0.8-1.05,1.54-1.83,2.05-2.41C270.57,120.66,270.86,120.33,270.91,120.36z"/>
			</g>
		</g>
		<g>
			<g>
				<path style="fill:#263238;" d="M263.35,122.91c-0.13,0.06-0.7-1.06-1.02-2.52c-0.32-1.45-0.64-2.59-0.51-2.65
					c0.13-0.06,0.7,1.06,1.02,2.52C263.15,121.71,263.48,122.85,263.35,122.91z"/>
			</g>
		</g>
		<g>
			<g>
				<path style="fill:#263238;" d="M255.56,193.75c0.03-0.04,0.56,0.32,0.98,1.23c0.42,0.88,0.65,2.38-0.06,3.79
					c-0.72,1.4-2.07,2.11-3.02,2.28c-0.98,0.2-1.59-0.02-1.57-0.07c0.01-0.09,0.6-0.02,1.48-0.29c0.86-0.25,2.02-0.94,2.65-2.16
					c0.61-1.23,0.48-2.57,0.18-3.41C255.9,194.25,255.49,193.81,255.56,193.75z"/>
			</g>
		</g>
		<g>
			<g>
				<path style="fill:#263238;" d="M264.64,124.25c0.02,0,0.02,0.25,0.01,0.71c-0.02,0.52-0.04,1.2-0.07,2.04
					c-0.07,1.77-0.22,4.33-0.45,7.49c-0.46,6.32-1.35,15.04-2.83,24.6c-1.49,9.56-3.28,18.14-4.76,24.31
					c-0.74,3.08-1.37,5.57-1.84,7.28c-0.23,0.81-0.41,1.47-0.55,1.96c-0.13,0.45-0.21,0.68-0.23,0.68c-0.02,0,0.03-0.25,0.12-0.7
					c0.12-0.51,0.27-1.17,0.46-1.99c0.41-1.72,0.99-4.22,1.68-7.31c1.38-6.18,3.12-14.76,4.6-24.3c1.48-9.55,2.42-18.25,2.98-24.55
					c0.28-3.15,0.49-5.71,0.61-7.47c0.07-0.84,0.13-1.52,0.17-2.03C264.59,124.49,264.62,124.25,264.64,124.25z"/>
			</g>
		</g>
		<g>
			<g>
				<path style="fill:#263238;" d="M259.89,193.29c0.01,0.06-0.91,0.33-2.44,0.52c-1.53,0.2-3.68,0.27-6.03-0.01
					c-2.35-0.29-4.42-0.89-5.85-1.45c-1.44-0.56-2.27-1.04-2.24-1.1c0.06-0.16,3.53,1.48,8.16,2.03
					C256.1,193.88,259.87,193.12,259.89,193.29z"/>
			</g>
		</g>
		<g>
			<g>
				<path style="fill:#263238;" d="M227.39,187.62c-0.04,0.13-2.71-0.58-5.78-2.05c-3.08-1.46-5.31-3.09-5.24-3.2
					c0.08-0.13,2.42,1.29,5.46,2.73C224.86,186.55,227.44,187.48,227.39,187.62z"/>
			</g>
		</g>
		<g>
			<g>
				<path style="fill:#263238;" d="M208.18,174.78c0,0.14-0.05,0.26-0.11,0.26s-0.11-0.12-0.11-0.26s0.05-0.26,0.11-0.26
					S208.18,174.64,208.18,174.78z"/>
			</g>
		</g>
		<g>
			<g>
				<path style="fill:#FFFFFF;" d="M206.27,132.81c-0.14-0.02,0.01-1.72,0.34-3.78c0.33-2.07,0.71-3.72,0.85-3.7
					c0.14,0.02-0.01,1.71-0.34,3.78C206.79,131.18,206.41,132.83,206.27,132.81z"/>
			</g>
		</g>
		<g>
			<g>
				<path style="fill:#FFFFFF;" d="M223.56,129.9c-0.11,0.1-0.99-0.71-2.15-1.59c-1.15-0.89-2.16-1.53-2.09-1.67
					c0.06-0.12,1.21,0.33,2.41,1.25C222.93,128.82,223.66,129.81,223.56,129.9z"/>
			</g>
		</g>
		<g>
			<g>
				<path style="fill:#FFFFFF;" d="M192.12,138.59c-0.07,0.12-1.01-0.29-2.1-0.92c-1.09-0.63-1.91-1.25-1.84-1.37
					c0.07-0.12,1.01,0.29,2.1,0.92C191.37,137.85,192.19,138.46,192.12,138.59z"/>
			</g>
		</g>
		<g>
			<g>
				<path style="fill:#FFFFFF;" d="M189.89,151.25c0.04,0.14-1.51,0.75-3.46,1.36c-1.96,0.62-3.58,1-3.62,0.87
					c-0.04-0.14,1.51-0.75,3.46-1.36C188.22,151.5,189.84,151.12,189.89,151.25z"/>
			</g>
		</g>
		<g>
			<g>
				<path style="fill:#FFFFFF;" d="M181.54,172.77c-0.13,0.04-0.66-1.43-0.93-3.33c-0.28-1.9-0.19-3.46-0.05-3.46
					c0.15,0,0.29,1.52,0.57,3.39C181.39,171.23,181.68,172.73,181.54,172.77z"/>
			</g>
		</g>
		<g>
			<g>
				<path style="fill:#FFFFFF;" d="M216.35,138.26c0.03,0.15-1.62,0.57-3.6,1.23c-1.99,0.65-3.56,1.28-3.63,1.14
					c-0.06-0.12,1.44-0.98,3.47-1.64C214.6,138.33,216.32,138.13,216.35,138.26z"/>
			</g>
		</g>
		<g>
			<g>
				<path style="fill:#FFFFFF;" d="M230.05,117.11c-0.03,0.14-2.07-0.13-4.56-0.6c-2.49-0.47-4.49-0.97-4.46-1.11
					c0.03-0.14,2.07,0.13,4.56,0.6C228.08,116.48,230.08,116.97,230.05,117.11z"/>
			</g>
		</g>
		<g>
			<g>
				<path style="fill:#FFFFFF;" d="M240.73,117.61c-0.14-0.05,0.23-1.51,0.81-3.27c0.58-1.76,1.17-3.15,1.3-3.1
					c0.14,0.05-0.23,1.51-0.81,3.27C241.45,116.27,240.86,117.66,240.73,117.61z"/>
			</g>
		</g>
		<g>
			<g>
				<path style="fill:#FFFFFF;" d="M250.15,129.34c-0.1,0.1-1.3-0.96-2.52-2.5c-1.23-1.54-1.98-2.95-1.86-3.02
					c0.12-0.08,1.07,1.18,2.27,2.7C249.24,128.03,250.26,129.24,250.15,129.34z"/>
			</g>
		</g>
		<g>
			<g>
				<path style="fill:#FFFFFF;" d="M239.95,139.52c-0.14,0.01-0.38-1.5-0.54-3.37c-0.15-1.88-0.16-3.41-0.02-3.42
					c0.14-0.01,0.38,1.5,0.54,3.37C240.09,137.98,240.1,139.51,239.95,139.52z"/>
			</g>
		</g>
		<g>
			<g>
				<path style="fill:#FFFFFF;" d="M229.07,145.18c-0.1,0.11-0.97-0.54-1.94-1.44c-0.98-0.9-1.69-1.71-1.59-1.82
					c0.1-0.11,0.97,0.54,1.94,1.44C228.46,144.26,229.17,145.08,229.07,145.18z"/>
			</g>
		</g>
		<g>
			<g>
				<path style="fill:#FFFFFF;" d="M234.58,152.65c0.06,0.13-1.06,0.74-2.56,1.16c-1.5,0.42-2.77,0.48-2.79,0.34
					c-0.02-0.15,1.19-0.43,2.65-0.84C233.34,152.9,234.52,152.51,234.58,152.65z"/>
			</g>
		</g>
		<g>
			<g>
				<path style="fill:#FFFFFF;" d="M253.83,146.74c-0.13,0.04-0.63-1.38-0.86-3.2c-0.24-1.82-0.13-3.31,0.01-3.31
					c0.15,0,0.27,1.46,0.5,3.24C253.72,145.26,253.97,146.7,253.83,146.74z"/>
			</g>
		</g>
		<g>
			<g>
				<path style="fill:#FFFFFF;" d="M249.7,160.97c-0.13,0.06-0.87-1.15-1.66-2.7c-0.79-1.56-1.33-2.88-1.2-2.94
					c0.13-0.06,0.87,1.15,1.66,2.71C249.29,159.59,249.83,160.91,249.7,160.97z"/>
			</g>
		</g>
		<g>
			<g>
				<path style="fill:#FFFFFF;" d="M234.71,170.64c-0.14-0.05,0.33-1.73,1.04-3.76c0.71-2.03,1.4-3.64,1.53-3.59
					c0.14,0.05-0.33,1.73-1.04,3.76C235.54,169.08,234.85,170.69,234.71,170.64z"/>
			</g>
		</g>
		<g>
			<g>
				<path style="fill:#FFFFFF;" d="M228.43,178.74c-0.14,0.05-0.62-0.96-1.07-2.25c-0.46-1.29-0.72-2.38-0.58-2.43
					c0.14-0.05,0.62,0.96,1.07,2.26C228.31,177.6,228.57,178.69,228.43,178.74z"/>
			</g>
		</g>
		<g>
			<g>
				<path style="fill:#FFFFFF;" d="M250.42,177.27c0.07,0.13-1.34,0.98-3.15,1.91c-1.8,0.93-3.32,1.57-3.38,1.44
					c-0.07-0.13,1.34-0.98,3.15-1.91C248.84,177.79,250.36,177.14,250.42,177.27z"/>
			</g>
		</g>
		<g>
			<g>
				<path style="fill:#FFFFFF;" d="M236.39,189.46c-0.14,0.01-0.35-0.93-0.46-2.1c-0.11-1.17-0.09-2.13,0.06-2.15
					c0.14-0.01,0.35,0.93,0.46,2.1C236.56,188.49,236.54,189.45,236.39,189.46z"/>
			</g>
		</g>
		<g>
			<g>
				<path style="fill:#FFFFFF;" d="M220.17,189.74c-0.11,0.08-0.78-0.78-1.07-2.06c-0.3-1.28-0.08-2.34,0.05-2.32
					c0.15,0.01,0.17,1.02,0.46,2.2C219.88,188.75,220.3,189.66,220.17,189.74z"/>
			</g>
		</g>
		<g>
			<g>
				<path style="fill:#FFFFFF;" d="M248.03,195.67c0.04,0.14-1.09,0.63-2.54,1.1c-1.45,0.47-2.65,0.74-2.7,0.6
					c-0.04-0.14,1.09-0.63,2.54-1.1C246.78,195.81,247.98,195.54,248.03,195.67z"/>
			</g>
		</g>
		<g>
			<g>
				<path style="fill:#FFFFFF;" d="M260.05,199.79c-0.14,0.03-0.41-0.77-0.61-1.79c-0.2-1.02-0.24-1.86-0.1-1.89
					c0.14-0.03,0.41,0.77,0.61,1.79C260.15,198.91,260.2,199.76,260.05,199.79z"/>
			</g>
		</g>
		<g>
			<g>
				<path style="fill:#FFFFFF;" d="M261.6,185.79c-0.13,0.06-0.69-0.9-1.26-2.14c-0.56-1.24-0.91-2.3-0.78-2.36
					c0.13-0.06,0.69,0.9,1.26,2.14C261.38,184.67,261.73,185.73,261.6,185.79z"/>
			</g>
		</g>
		<g>
			<g>
				<path style="fill:#FFFFFF;" d="M266.28,170.51c0.08,0.12-0.85,0.82-2.06,1.57c-1.21,0.74-2.25,1.24-2.33,1.12
					c-0.08-0.12,0.85-0.82,2.06-1.57C265.16,170.89,266.21,170.38,266.28,170.51z"/>
			</g>
		</g>
		<g>
			<g>
				<path style="fill:#FFFFFF;" d="M266.55,161.74c-0.13,0.06-0.7-0.93-1.06-2.29c-0.36-1.36-0.35-2.51-0.21-2.52
					c0.15-0.01,0.36,1.07,0.71,2.39C266.34,160.62,266.69,161.68,266.55,161.74z"/>
			</g>
		</g>
		<g>
			<g>
				<path style="fill:#FFFFFF;" d="M271.34,141.6c0.08,0.12-1.02,1.07-2.46,2.13c-1.44,1.06-2.68,1.82-2.77,1.71
					c-0.08-0.12,1.02-1.07,2.46-2.13C270.01,142.24,271.25,141.48,271.34,141.6z"/>
			</g>
		</g>
		<g>
			<g>
				<path style="fill:#FFFFFF;" d="M272.21,135.29c-0.08,0.11-1.02-0.46-1.83-1.52c-0.81-1.06-1.11-2.12-0.98-2.17
					c0.14-0.06,0.63,0.86,1.4,1.85C271.55,134.46,272.3,135.17,272.21,135.29z"/>
			</g>
		</g>
		<g>
			<g>
				<path style="fill:#FFFFFF;" d="M279.54,149.14c-0.14-0.03-0.01-1.44,0.3-3.16c0.31-1.72,0.68-3.09,0.82-3.07
					c0.14,0.03,0.01,1.44-0.3,3.16C280.05,147.79,279.68,149.16,279.54,149.14z"/>
			</g>
		</g>
		<g>
			<g>
				<path style="fill:#FFFFFF;" d="M284.09,158.5c-0.05,0.13-1.26-0.2-2.71-0.74c-1.45-0.54-2.58-1.09-2.53-1.23
					c0.05-0.13,1.26,0.2,2.71,0.74C283.01,157.82,284.15,158.37,284.09,158.5z"/>
			</g>
		</g>
		<g>
			<g>
				<path style="fill:#FFFFFF;" d="M282.92,172.23c-0.13,0.06-0.73-0.97-1.34-2.31c-0.61-1.34-1-2.47-0.87-2.53
					c0.13-0.06,0.73,0.97,1.34,2.31C282.66,171.04,283.05,172.17,282.92,172.23z"/>
			</g>
		</g>
		<g>
			<g>
				<path style="fill:#FFFFFF;" d="M297.97,164.57c0.1,0.11-1.06,1.24-2.38,2.71c-1.33,1.47-2.33,2.73-2.45,2.65
					c-0.12-0.08,0.71-1.5,2.06-2.99C296.56,165.43,297.89,164.46,297.97,164.57z"/>
			</g>
		</g>
		<g>
			<g>
				<path style="fill:#FFFFFF;" d="M307.29,166.7c-0.11,0.1-1.08-0.8-2.18-2.01c-1.1-1.21-1.9-2.27-1.79-2.36
					c0.11-0.1,1.08,0.8,2.18,2.01C306.59,165.54,307.39,166.6,307.29,166.7z"/>
			</g>
		</g>
		<g>
			<polygon style="fill:#5D9EA6;" points="326.68,141.05 326.68,135.4 323.71,135.4 328.27,129.01 332.83,135.4 329.97,135.4 
				329.97,141.05 			"/>
		</g>
		<g>
			<polygon style="fill:#5D9EA6;" points="320.6,145.87 320.6,141.92 318.52,141.92 321.72,137.45 324.91,141.92 322.91,141.92 
				322.91,145.87 			"/>
		</g>
		<g>
			<g>
				<path style="fill:#263238;" d="M282.43,298.88c0,0-0.17,0.04-0.5,0.08c-0.35,0.04-0.84,0.11-1.47,0.18
					c-0.65,0.07-1.45,0.17-2.39,0.34c-0.94,0.15-2.03,0.32-3.24,0.6c-4.84,1.02-11.86,3.02-19.69,7.42
					c-3.9,2.2-7.97,5.01-11.94,8.52c-3.93,3.55-7.78,7.79-11.06,12.81c-6.63,9.96-11.28,22.98-11.38,37.1l-0.01,0.88l-0.47-0.74
					c-2.43-3.83-5.78-7.34-9.64-10.29c-12.59-9.45-28.43-12.92-41.81-10.64c-0.83,0.17-1.66,0.35-2.48,0.52
					c-0.41,0.07-0.82,0.18-1.21,0.32l-1.19,0.38c-0.78,0.27-1.59,0.46-2.34,0.79c-0.75,0.32-1.5,0.64-2.24,0.96
					c-0.75,0.29-1.45,0.68-2.16,1.05c-0.7,0.37-1.4,0.74-2.09,1.11c-0.66,0.42-1.32,0.84-1.97,1.25c-0.65,0.41-1.3,0.81-1.9,1.28
					c-4.92,3.55-8.85,7.7-11.92,11.84c-3.08,4.15-5.31,8.28-7.02,12c-0.4,0.94-0.79,1.85-1.17,2.73c-0.36,0.88-0.65,1.75-0.95,2.58
					c-0.64,1.64-1.04,3.2-1.48,4.58c-0.76,2.79-1.28,4.97-1.54,6.47c-0.14,0.73-0.26,1.3-0.33,1.7c-0.08,0.38-0.13,0.58-0.13,0.58
					s0.02-0.2,0.08-0.59c0.07-0.4,0.16-0.97,0.28-1.71c0.23-1.51,0.71-3.71,1.45-6.51c0.42-1.39,0.81-2.95,1.44-4.6
					c0.3-0.83,0.59-1.7,0.94-2.6c0.37-0.88,0.76-1.8,1.16-2.75c1.69-3.76,3.91-7.92,6.99-12.1c3.07-4.18,7.01-8.38,11.96-11.97
					c0.6-0.48,1.25-0.88,1.91-1.3c0.66-0.42,1.32-0.84,1.98-1.26c0.7-0.37,1.4-0.75,2.11-1.12c0.71-0.38,1.41-0.77,2.17-1.07
					c0.75-0.32,1.5-0.65,2.26-0.97c0.75-0.34,1.57-0.53,2.36-0.81l1.2-0.39c0.4-0.14,0.81-0.25,1.23-0.33
					c0.83-0.18,1.67-0.35,2.51-0.53c13.54-2.33,29.48,1.15,42.21,10.7c3.9,2.98,7.29,6.54,9.76,10.43l-0.48,0.14
					c0.11-14.23,4.82-27.34,11.51-37.35c3.32-5.05,7.21-9.31,11.17-12.86c4.01-3.52,8.11-6.32,12.05-8.52
					c7.89-4.38,14.96-6.34,19.82-7.3c1.22-0.27,2.31-0.42,3.26-0.56c0.94-0.16,1.75-0.25,2.4-0.3c0.64-0.06,1.12-0.1,1.48-0.14
					C282.26,298.88,282.43,298.88,282.43,298.88z"/>
			</g>
		</g>
	</g>
</g>
<g id="Levels">
	<g>
		<rect x="373.71" y="307.6" style="fill:#E3A24E;" width="68.25" height="172.67"/>
	</g>
	<g style="opacity:0.3;">
		<rect x="373.71" y="307.6" width="68.25" height="172.67"/>
	</g>
	<g>
		<rect x="357.03" y="307.6" style="fill:#E3A24E;" width="68.25" height="172.67"/>
	</g>
	<g style="opacity:0.4;">
		<path style="fill:#FFFFFF;" d="M388.43,376.71v9.55h-1.81l-4.76-5.8v5.8h-2.18v-9.55h1.83l4.75,5.8v-5.8H388.43z"/>
		<path style="fill:#FFFFFF;" d="M389.89,378.28c0-1.31,1.09-2.25,2.59-2.25c1.5,0,2.58,0.94,2.58,2.25c0,1.32-1.08,2.26-2.58,2.26
			C390.98,380.54,389.89,379.6,389.89,378.28z M393.61,378.28c0-0.7-0.48-1.12-1.13-1.12c-0.67,0-1.15,0.42-1.15,1.12
			c0,0.7,0.48,1.13,1.15,1.13C393.13,379.41,393.61,378.97,393.61,378.28z"/>
		<path style="fill:#FFFFFF;" d="M404.49,384.25h-1.56v2h-2.16v-2h-5.14v-1.49l4.5-6.06h2.32l-4.17,5.74h2.56v-1.79h2.09v1.79h1.56
			V384.25z"/>
	</g>
	<g>
		<g>
			<path style="fill:#E3A24E;" d="M441.96,315.52c0.03,0.02-0.17,0.38-0.56,1.02c-0.46,0.72-1.02,1.61-1.69,2.66
				c-1.44,2.23-3.47,5.3-5.74,8.67c-2.27,3.37-4.35,6.4-5.88,8.57c-1.53,2.17-2.52,3.49-2.6,3.43c-0.01-0.01,0.04-0.1,0.14-0.27
				c0.14-0.22,0.28-0.46,0.45-0.73c0.46-0.72,1.03-1.6,1.71-2.65c1.46-2.23,3.49-5.29,5.76-8.65c2.27-3.37,4.34-6.4,5.86-8.58
				c0.72-1.01,1.33-1.87,1.82-2.57C441.67,315.82,441.93,315.5,441.96,315.52z"/>
		</g>
	</g>
	<g>
		<g>
			<path style="fill:#E3A24E;" d="M441.96,346.62c0.03,0.02-0.17,0.38-0.56,1.02c-0.46,0.72-1.02,1.61-1.69,2.66
				c-1.44,2.23-3.47,5.3-5.74,8.67c-2.27,3.37-4.35,6.4-5.88,8.57c-1.53,2.17-2.52,3.49-2.6,3.43c-0.01-0.01,0.04-0.1,0.14-0.27
				c0.14-0.22,0.28-0.46,0.45-0.73c0.46-0.72,1.03-1.6,1.71-2.65c1.46-2.23,3.49-5.29,5.76-8.65c2.27-3.37,4.34-6.4,5.86-8.58
				c0.72-1.01,1.33-1.87,1.82-2.57C441.67,346.92,441.93,346.6,441.96,346.62z"/>
		</g>
	</g>
	<g>
		<g>
			<path style="fill:#E3A24E;" d="M441.96,377.71c0.03,0.02-0.17,0.38-0.56,1.02c-0.46,0.72-1.02,1.61-1.69,2.66
				c-1.44,2.23-3.47,5.3-5.74,8.67c-2.27,3.37-4.35,6.4-5.88,8.57c-1.53,2.17-2.52,3.49-2.6,3.43c-0.01-0.01,0.04-0.1,0.14-0.27
				c0.14-0.22,0.28-0.46,0.45-0.73c0.46-0.72,1.03-1.6,1.71-2.65c1.46-2.23,3.49-5.29,5.76-8.65c2.27-3.37,4.34-6.4,5.86-8.58
				c0.72-1.01,1.33-1.87,1.82-2.57C441.67,378.02,441.93,377.69,441.96,377.71z"/>
		</g>
	</g>
	<g>
		<g>
			<path style="fill:#E3A24E;" d="M441.96,408.81c0.03,0.02-0.17,0.38-0.56,1.02c-0.46,0.72-1.02,1.61-1.69,2.66
				c-1.44,2.23-3.47,5.3-5.74,8.67c-2.27,3.37-4.35,6.4-5.88,8.57c-1.53,2.17-2.52,3.49-2.6,3.43c-0.01-0.01,0.04-0.1,0.14-0.27
				c0.14-0.22,0.28-0.46,0.45-0.73c0.46-0.72,1.03-1.6,1.71-2.65c1.46-2.23,3.49-5.29,5.76-8.65c2.27-3.37,4.34-6.4,5.86-8.58
				c0.72-1.01,1.33-1.87,1.82-2.57C441.67,409.11,441.93,408.79,441.96,408.81z"/>
		</g>
	</g>
	<g>
		<g>
			<path style="fill:#E3A24E;" d="M441.96,439.91c0.03,0.02-0.17,0.38-0.56,1.02c-0.46,0.72-1.02,1.61-1.69,2.66
				c-1.44,2.23-3.47,5.3-5.74,8.67c-2.27,3.37-4.35,6.4-5.88,8.57c-1.53,2.17-2.52,3.49-2.6,3.43c-0.01-0.01,0.04-0.1,0.14-0.27
				c0.14-0.22,0.28-0.46,0.45-0.73c0.46-0.72,1.03-1.6,1.71-2.65c1.46-2.23,3.49-5.29,5.76-8.65c2.27-3.37,4.34-6.4,5.86-8.58
				c0.72-1.01,1.33-1.87,1.82-2.57C441.67,440.21,441.93,439.89,441.96,439.91z"/>
		</g>
	</g>
	<g>
		<g>
			<path style="fill:#E3A24E;" d="M441.96,471.01c0.12,0.08-1.27,2.36-3.11,5.1c-1.84,2.74-3.43,4.89-3.55,4.81
				c-0.12-0.08,1.27-2.36,3.11-5.1C440.25,473.08,441.84,470.93,441.96,471.01z"/>
		</g>
	</g>
	<g>
		<rect x="278.54" y="339.86" style="fill:#E3A24E;" width="68.25" height="140.41"/>
	</g>
	<g style="opacity:0.3;">
		<rect x="278.54" y="339.86" width="68.25" height="140.41"/>
	</g>
	<g>
		<rect x="261.86" y="339.86" style="fill:#E3A24E;" width="68.25" height="140.41"/>
	</g>
	<g style="opacity:0.4;">
		<path style="fill:#FFFFFF;" d="M293.32,395.22v9.62h-1.81l-4.76-5.84v5.84h-2.18v-9.62h1.83l4.75,5.84v-5.84H293.32z"/>
		<path style="fill:#FFFFFF;" d="M294.78,396.8c0-1.32,1.09-2.27,2.59-2.27c1.5,0,2.58,0.95,2.58,2.27c0,1.33-1.08,2.28-2.58,2.28
			C295.87,399.09,294.78,398.14,294.78,396.8z M298.51,396.8c0-0.7-0.48-1.13-1.13-1.13c-0.67,0-1.15,0.43-1.15,1.13
			c0,0.7,0.48,1.14,1.15,1.14C298.03,397.95,298.51,397.51,298.51,396.8z"/>
		<path style="fill:#FFFFFF;" d="M307.85,401.9c0,1.62-1.24,3.11-3.96,3.11c-1.34,0-2.71-0.37-3.64-1.03l0.86-1.71
			c0.72,0.55,1.73,0.87,2.73,0.87c1.1,0,1.79-0.45,1.79-1.24c0-0.73-0.53-1.18-1.79-1.18h-1.01v-1.47l1.96-2.24h-4.07v-1.79h6.68
			v1.44l-2.16,2.47C306.98,399.42,307.85,400.49,307.85,401.9z"/>
	</g>
	<g>
		<g>
			<path style="fill:#E3A24E;" d="M346.79,345.48c0.03,0.02-0.17,0.38-0.56,1.02c-0.46,0.73-1.02,1.62-1.69,2.68
				c-1.44,2.25-3.47,5.34-5.74,8.74c-2.27,3.4-4.35,6.45-5.88,8.64c-1.53,2.19-2.52,3.52-2.6,3.46c-0.01-0.01,0.04-0.1,0.14-0.27
				c0.13-0.22,0.28-0.46,0.45-0.73c0.46-0.72,1.03-1.61,1.71-2.67c1.46-2.24,3.49-5.33,5.76-8.73c2.27-3.39,4.34-6.45,5.86-8.65
				c0.72-1.02,1.33-1.89,1.82-2.59C346.5,345.78,346.76,345.46,346.79,345.48z"/>
		</g>
	</g>
	<g>
		<g>
			<path style="fill:#E3A24E;" d="M346.79,376.84c0.03,0.02-0.17,0.38-0.56,1.02c-0.46,0.73-1.02,1.62-1.69,2.68
				c-1.44,2.25-3.47,5.34-5.74,8.74c-2.27,3.4-4.35,6.45-5.88,8.64c-1.53,2.19-2.52,3.52-2.6,3.46c-0.01-0.01,0.04-0.1,0.14-0.27
				c0.13-0.22,0.28-0.46,0.45-0.73c0.46-0.72,1.03-1.61,1.71-2.67c1.46-2.24,3.49-5.33,5.76-8.73c2.27-3.39,4.34-6.45,5.86-8.65
				c0.72-1.02,1.33-1.89,1.82-2.59C346.5,377.14,346.76,376.82,346.79,376.84z"/>
		</g>
	</g>
	<g>
		<g>
			<path style="fill:#E3A24E;" d="M346.79,408.2c0.03,0.02-0.17,0.38-0.56,1.02c-0.46,0.73-1.02,1.62-1.69,2.68
				c-1.44,2.25-3.47,5.34-5.74,8.74c-2.27,3.4-4.35,6.45-5.88,8.64c-1.53,2.19-2.52,3.52-2.6,3.46c-0.01-0.01,0.04-0.1,0.14-0.27
				c0.13-0.22,0.28-0.46,0.45-0.73c0.46-0.72,1.03-1.61,1.71-2.67c1.46-2.24,3.49-5.33,5.76-8.73c2.27-3.39,4.34-6.45,5.86-8.65
				c0.72-1.02,1.33-1.89,1.82-2.59C346.5,408.51,346.76,408.18,346.79,408.2z"/>
		</g>
	</g>
	<g>
		<g>
			<path style="fill:#E3A24E;" d="M346.79,439.56c0.03,0.02-0.17,0.38-0.56,1.02c-0.46,0.73-1.02,1.62-1.69,2.68
				c-1.44,2.25-3.47,5.34-5.74,8.74c-2.27,3.4-4.35,6.45-5.88,8.64c-1.53,2.19-2.52,3.52-2.6,3.46c-0.01-0.01,0.04-0.1,0.14-0.27
				c0.13-0.22,0.28-0.46,0.45-0.73c0.46-0.72,1.03-1.61,1.71-2.67c1.46-2.24,3.49-5.33,5.76-8.73c2.27-3.39,4.34-6.45,5.86-8.65
				c0.72-1.02,1.33-1.89,1.82-2.59C346.5,439.87,346.76,439.54,346.79,439.56z"/>
		</g>
	</g>
	<g>
		<g>
			<path style="fill:#E3A24E;" d="M346.79,470.92c0.12,0.08-1.27,2.38-3.11,5.14c-1.84,2.76-3.43,4.93-3.55,4.85
				c-0.12-0.08,1.27-2.38,3.11-5.14C345.08,473.02,346.67,470.84,346.79,470.92z"/>
		</g>
	</g>
	<g>
		<rect x="182.87" y="376.84" style="fill:#E3A24E;" width="68.25" height="103.43"/>
	</g>
	<g style="opacity:0.3;">
		<rect x="182.87" y="376.84" width="68.25" height="103.43"/>
	</g>
	<g>
		<rect x="166.19" y="376.84" style="fill:#E3A24E;" width="68.25" height="103.43"/>
	</g>
	<g style="opacity:0.4;">
		<path style="fill:#FFFFFF;" d="M197.65,417.78v9.62h-1.81l-4.76-5.84v5.84h-2.18v-9.62h1.83l4.75,5.84v-5.84H197.65z"/>
		<path style="fill:#FFFFFF;" d="M199.11,419.36c0-1.32,1.09-2.27,2.59-2.27c1.5,0,2.58,0.95,2.58,2.27c0,1.33-1.08,2.28-2.58,2.28
			C200.2,421.64,199.11,420.69,199.11,419.36z M202.83,419.36c0-0.7-0.48-1.13-1.13-1.13c-0.67,0-1.15,0.43-1.15,1.13
			s0.48,1.14,1.15,1.14C202.35,420.5,202.83,420.06,202.83,419.36z"/>
		<path style="fill:#FFFFFF;" d="M212.54,425.59v1.81h-7.22v-1.44l3.68-3.51c0.85-0.81,1-1.31,1-1.77c0-0.76-0.52-1.2-1.53-1.2
			c-0.82,0-1.51,0.32-1.98,0.96l-1.61-1.04c0.74-1.09,2.07-1.79,3.79-1.79c2.13,0,3.55,1.1,3.55,2.85c0,0.93-0.26,1.79-1.6,3.04
			l-2.2,2.09H212.54z"/>
	</g>
	<g>
		<g>
			<path style="fill:#E3A24E;" d="M251.11,376.84c0.03,0.02-0.17,0.38-0.56,1.02c-0.46,0.73-1.02,1.62-1.69,2.68
				c-1.44,2.25-3.47,5.34-5.74,8.74c-2.27,3.4-4.35,6.45-5.88,8.64c-1.53,2.19-2.52,3.52-2.6,3.46c-0.01-0.01,0.04-0.1,0.14-0.27
				c0.13-0.22,0.28-0.46,0.45-0.73c0.46-0.72,1.03-1.61,1.71-2.67c1.46-2.24,3.49-5.33,5.75-8.73c2.27-3.39,4.34-6.45,5.86-8.65
				c0.72-1.02,1.33-1.89,1.82-2.59C250.83,377.14,251.08,376.82,251.11,376.84z"/>
		</g>
	</g>
	<g>
		<g>
			<path style="fill:#E3A24E;" d="M251.11,408.2c0.03,0.02-0.17,0.38-0.56,1.02c-0.46,0.73-1.02,1.62-1.69,2.68
				c-1.44,2.25-3.47,5.34-5.74,8.74c-2.27,3.4-4.35,6.45-5.88,8.64c-1.53,2.19-2.52,3.52-2.6,3.46c-0.01-0.01,0.04-0.1,0.14-0.27
				c0.13-0.22,0.28-0.46,0.45-0.73c0.46-0.72,1.03-1.61,1.71-2.67c1.46-2.24,3.49-5.33,5.75-8.73c2.27-3.39,4.34-6.45,5.86-8.65
				c0.72-1.02,1.33-1.89,1.82-2.59C250.83,408.51,251.08,408.18,251.11,408.2z"/>
		</g>
	</g>
	<g>
		<g>
			<path style="fill:#E3A24E;" d="M251.11,439.56c0.03,0.02-0.17,0.38-0.56,1.02c-0.46,0.73-1.02,1.62-1.69,2.68
				c-1.44,2.25-3.47,5.34-5.74,8.74c-2.27,3.4-4.35,6.45-5.88,8.64c-1.53,2.19-2.52,3.52-2.6,3.46c-0.01-0.01,0.04-0.1,0.14-0.27
				c0.13-0.22,0.28-0.46,0.45-0.73c0.46-0.72,1.03-1.61,1.71-2.67c1.46-2.24,3.49-5.33,5.75-8.73c2.27-3.39,4.34-6.45,5.86-8.65
				c0.72-1.02,1.33-1.89,1.82-2.59C250.83,439.87,251.08,439.54,251.11,439.56z"/>
		</g>
	</g>
	<g>
		<g>
			<path style="fill:#E3A24E;" d="M251.11,470.92c0.12,0.08-1.27,2.38-3.11,5.14c-1.84,2.76-3.43,4.93-3.55,4.85
				c-0.12-0.08,1.27-2.38,3.11-5.14C249.41,473.02,250.99,470.84,251.11,470.92z"/>
		</g>
	</g>
	<g>
		<rect x="87.19" y="408.2" style="fill:#E3A24E;" width="68.25" height="72.07"/>
	</g>
	<g style="opacity:0.3;">
		<rect x="87.19" y="408.2" width="68.25" height="72.07"/>
	</g>
	<g>
		<rect x="70.51" y="408.2" style="fill:#E3A24E;" width="68.25" height="72.07"/>
	</g>
	<g style="opacity:0.4;">
		<path style="fill:#FFFFFF;" d="M101.97,438.74v9.62h-1.81l-4.76-5.84v5.84h-2.18v-9.62h1.83l4.75,5.84v-5.84H101.97z"/>
		<path style="fill:#FFFFFF;" d="M103.43,440.32c0-1.32,1.09-2.27,2.59-2.27c1.5,0,2.58,0.95,2.58,2.27c0,1.33-1.08,2.28-2.58,2.28
			C104.52,442.6,103.43,441.65,103.43,440.32z M107.15,440.32c0-0.7-0.48-1.13-1.13-1.13c-0.67,0-1.15,0.43-1.15,1.13
			s0.48,1.14,1.15,1.14C106.68,441.46,107.15,441.02,107.15,440.32z"/>
		<path style="fill:#FFFFFF;" d="M113.47,438.74v9.62h-2.21v-7.84h-1.91v-1.79H113.47z"/>
	</g>
	<g>
		<g>
			<path style="fill:#E3A24E;" d="M155.44,408.2c0.03,0.02-0.17,0.38-0.56,1.02c-0.46,0.73-1.02,1.62-1.69,2.68
				c-1.44,2.25-3.47,5.34-5.74,8.74c-2.27,3.4-4.35,6.45-5.88,8.64c-1.53,2.19-2.52,3.52-2.6,3.46c-0.01-0.01,0.04-0.1,0.14-0.27
				c0.13-0.22,0.28-0.46,0.45-0.73c0.46-0.72,1.03-1.61,1.71-2.67c1.46-2.24,3.49-5.33,5.76-8.73c2.27-3.39,4.34-6.45,5.86-8.65
				c0.72-1.02,1.33-1.89,1.82-2.59C155.15,408.51,155.41,408.18,155.44,408.2z"/>
		</g>
	</g>
	<g>
		<g>
			<path style="fill:#E3A24E;" d="M155.44,439.56c0.03,0.02-0.17,0.38-0.56,1.02c-0.46,0.73-1.02,1.62-1.69,2.68
				c-1.44,2.25-3.47,5.34-5.74,8.74c-2.27,3.4-4.35,6.45-5.88,8.64c-1.53,2.19-2.52,3.52-2.6,3.46c-0.01-0.01,0.04-0.1,0.14-0.27
				c0.13-0.22,0.28-0.46,0.45-0.73c0.46-0.72,1.03-1.61,1.71-2.67c1.46-2.24,3.49-5.33,5.76-8.73c2.27-3.39,4.34-6.45,5.86-8.65
				c0.72-1.02,1.33-1.89,1.82-2.59C155.15,439.87,155.41,439.54,155.44,439.56z"/>
		</g>
	</g>
	<g>
		<g>
			<path style="fill:#E3A24E;" d="M155.44,470.92c0.12,0.08-1.27,2.38-3.11,5.14c-1.84,2.76-3.43,4.93-3.55,4.85
				c-0.12-0.08,1.27-2.38,3.11-5.14C153.73,473.02,155.32,470.84,155.44,470.92z"/>
		</g>
	</g>
</g>
<g id="Floor">
	<g>
		<g>
			<path style="fill:#263238;" d="M474.12,480.28c0,0.14-100.35,0.26-224.11,0.26c-123.8,0-224.13-0.12-224.13-0.26
				c0-0.14,100.33-0.26,224.13-0.26C373.77,480.02,474.12,480.13,474.12,480.28z"/>
		</g>
	</g>
</g>
</svg>
