<svg xmlns="http://www.w3.org/2000/svg" width="674.954" height="625.702" viewBox="0 0 674.954 625.702"><g transform="translate(-19.855 -23.261)"><g transform="translate(84.149 23.261)"><g transform="translate(500.217 142.476)"><g transform="translate(17.192 16.913)"><path d="M428.116,132.274a7.011,7.011,0,0,1,2.2.688,9.248,9.248,0,0,1,4.379,4.43,9.374,9.374,0,0,1,.893,4.28,9.495,9.495,0,0,1-1.472,4.8,9.519,9.519,0,0,1-4.2,3.612,9.479,9.479,0,0,1-11.02-2.471,9.532,9.532,0,0,1-2.258-5.062,9.518,9.518,0,0,1,.719-4.967,9.354,9.354,0,0,1,2.637-3.488,9.239,9.239,0,0,1,5.851-2.137,7,7,0,0,1,2.279.317c-.01.064-.812-.161-2.274-.11a9.264,9.264,0,0,0-5.613,2.219,9.077,9.077,0,0,0-3.11,8.1,9.064,9.064,0,0,0,2.166,4.78A9,9,0,0,0,429.7,149.6a9.091,9.091,0,0,0,4-3.4,9.076,9.076,0,0,0,.65-8.656,9.26,9.26,0,0,0-4.128-4.4C428.921,132.475,428.1,132.337,428.116,132.274Z" transform="translate(-416.552 -131.957)" fill="#e0e0e0"/></g><g transform="translate(0 0)"><path d="M441.036,127.708a1.844,1.844,0,0,1-.021-.326c-.006-.243-.013-.569-.023-.991-.012-.908-.031-2.217-.054-3.917l.067.084-8.462-1.846.153-.075-2.226,4.736-.04.085-.1,0a21.166,21.166,0,0,0-5.516.978l-.1.032-.076-.075c-1.16-1.148-2.415-2.39-3.72-3.684l.236.026-7.305,4.651.085-.248c.547,1.526,1.15,3.207,1.766,4.928l.045.126-.091.1a21.04,21.04,0,0,0-3.21,4.572l-.065.125h-.139l-5.232.019.23-.186c-.591,2.656-1.23,5.519-1.884,8.454l-.136-.279,4.729,2.241.138.066.007.154a21.113,21.113,0,0,0,.961,5.494l.047.148-.11.111-3.692,3.711.035-.324,4.64,7.316-.314-.109,4.933-1.757.152-.054.117.11a21.015,21.015,0,0,0,4.555,3.208h0c.065.106-.142-.235.145.236v2.625c0,.872,0,1.743.006,2.609l-.208-.26,8.452,1.9-.3.145,2.246-4.726.068-.144L432,167.7a20.943,20.943,0,0,0,5.5-.953l.15-.047.11.11,3.707,3.7-.315-.034,7.32-4.628-.1.289q-.891-2.512-1.749-4.934l-.048-.136.1-.106a20.959,20.959,0,0,0,3.223-4.56l.066-.125h.139c1.793,0,3.532,0,5.232,0l-.216.174c.673-2.972,1.308-5.777,1.914-8.448l.111.229-4.722-2.257-.106-.05,0-.116a21.116,21.116,0,0,0-.944-5.518l-.032-.1.075-.075,3.707-3.7-.022.2c-1.783-2.842-3.3-5.264-4.6-7.336l.141.048-4.943,1.723-.05.018-.037-.035a21.916,21.916,0,0,0-3.361-2.588l-.9-.543a2.27,2.27,0,0,1-.3-.183,2.781,2.781,0,0,1,.318.144c.207.106.519.267.924.506a20.562,20.562,0,0,1,3.431,2.538l-.086-.018c1.343-.487,2.955-1.073,4.92-1.788l.089-.032.053.081,4.667,7.3.068.106-.089.091c-1.138,1.151-2.343,2.368-3.681,3.722l.043-.176a21.452,21.452,0,0,1,.993,5.607l-.108-.166,4.732,2.235.148.069-.037.16c-.594,2.673-1.217,5.48-1.878,8.455l-.038.172h-.179l-5.232.021.2-.125a21.423,21.423,0,0,1-3.282,4.672l.05-.242q.867,2.422,1.763,4.93l.066.185-.166.1q-3.565,2.266-7.311,4.643l-.172.109-.144-.142-3.713-3.691.26.063a21.462,21.462,0,0,1-5.631.982l.226-.148q-1.111,2.34-2.242,4.728l-.091.191-.205-.045q-4.166-.935-8.452-1.893l-.208-.047v-.213l-.006-2.609,0-1.312,0-.658v-.654c.287.472.079.131.142.236h0A21.485,21.485,0,0,1,416.5,162.5l.27.056-4.933,1.754-.2.072-.114-.179c-1.592-2.518-3.164-5-4.632-7.319l-.111-.176.148-.148,3.7-3.707-.063.26a21.606,21.606,0,0,1-.977-5.631l.145.218c-1.638-.779-3.254-1.548-4.725-2.249l-.179-.085.044-.194,1.9-8.449.043-.185h.189c1.821,0,3.61,0,5.232,0l-.2.125a21.411,21.411,0,0,1,3.295-4.66l-.047.223c-.61-1.724-1.205-3.408-1.745-4.936l-.057-.158.142-.089,7.326-4.618.129-.082.107.109,3.7,3.7-.176-.043a21.415,21.415,0,0,1,5.609-.959l-.135.089,2.264-4.717.047-.1.1.025,8.44,1.944.067.015v.067c-.015,1.685-.026,2.981-.035,3.881-.007.428-.015.758-.019,1A2.792,2.792,0,0,1,441.036,127.708Z" transform="translate(-404.828 -120.423)" fill="#e0e0e0"/></g></g><g transform="translate(434.646 483.495)"><path d="M513.126,441.643s-.018-.55-.026-1.6-.015-2.6-.026-4.628c-.015-4.065-.035-10.029-.06-17.684-.031-15.3-.075-37.359-.129-64.438l.242.24-152.691.072h-.012l.312-.312c-.007,31.267-.015,61.143-.022,88.347l-.29-.29,109.828.141,31.542.079,8.41.035c.949.009,1.672.015,2.175.018s.749.018.749.018-.236.012-.714.018l-2.142.018-8.351.035-31.474.079-110.022.141h-.29v-.292c-.006-27.2-.015-57.08-.022-88.347v-.312h.324l152.691.072h.24v.24c-.054,27.141-.1,49.248-.128,64.588-.026,7.631-.047,13.577-.062,17.63-.012,2-.021,3.535-.026,4.582C513.143,441.127,513.126,441.643,513.126,441.643Z" transform="translate(-360.111 -352.984)" fill="#e0e0e0"/><g transform="translate(0.507 10.697)"><path d="M513.022,360.591c0,.173-34.156.312-76.279.312s-76.286-.139-76.286-.312,34.149-.312,76.286-.312S513.022,360.418,513.022,360.591Z" transform="translate(-360.457 -360.279)" fill="#e0e0e0"/></g><g transform="translate(13.54 25.577)"><rect width="47.169" height="47.169" fill="#f5f5f5"/></g><g transform="translate(73.666 33.045)"><path d="M478.624,375.831a2.91,2.91,0,0,1-.694.063l-1.99.059-7.316.1-24.138.091-24.141-.091-7.316-.1-1.988-.059a2.91,2.91,0,0,1-.694-.063,2.906,2.906,0,0,1,.694-.063c.523-.015,1.18-.034,1.988-.059l7.316-.1,24.141-.092,24.138.092,7.316.1c.808.025,1.466.044,1.99.059A2.906,2.906,0,0,1,478.624,375.831Z" transform="translate(-410.348 -375.519)" fill="#e0e0e0"/><g transform="translate(0 10.536)"><path d="M480.143,383.016a3.039,3.039,0,0,1-.71.063l-2.032.059-7.48.1-24.673.091-24.679-.091-7.478-.1-2.034-.059a3.017,3.017,0,0,1-.708-.063,3.127,3.127,0,0,1,.708-.063l2.034-.057,7.478-.1,24.679-.092,24.673.092,7.48.1,2.032.057A3.149,3.149,0,0,1,480.143,383.016Z" transform="translate(-410.348 -382.704)" fill="#e0e0e0"/></g><g transform="translate(0 21.073)"><path d="M480.143,390.2a3.145,3.145,0,0,1-.71.063c-.532.015-1.205.034-2.032.059l-7.48.1-24.673.092-24.679-.092-7.478-.1c-.827-.025-1.5-.044-2.034-.059a3.122,3.122,0,0,1-.708-.063,3.026,3.026,0,0,1,.708-.063l2.034-.059,7.478-.1,24.679-.091,24.673.091,7.48.1,2.032.059A3.047,3.047,0,0,1,480.143,390.2Z" transform="translate(-410.348 -389.89)" fill="#e0e0e0"/></g><g transform="translate(0 31.609)"><path d="M480.143,397.387a3.145,3.145,0,0,1-.71.063l-2.032.059-7.48.1-24.673.092-24.679-.092-7.478-.1-2.034-.059a3.122,3.122,0,0,1-.708-.063,3.026,3.026,0,0,1,.708-.063l2.034-.059,7.478-.1,24.679-.091,24.673.091,7.48.1,2.032.059A3.047,3.047,0,0,1,480.143,397.387Z" transform="translate(-410.348 -397.075)" fill="#e0e0e0"/></g></g></g><g transform="translate(56.356)"><circle cx="63.462" cy="63.462" r="63.462" transform="translate(0 89.749) rotate(-45)" fill="#f5f5f5"/><g transform="translate(88.985 54.299)"><path d="M192.4,97.693a12.773,12.773,0,0,1-2.242.148l-6.168.125c-5.235.072-12.527.122-20.758.135h-.408v-.408c0-1.317,0-2.705,0-4.116,0-9.193.045-17.514.12-23.538.053-2.9.1-5.307.131-7.132a15.809,15.809,0,0,1,.16-2.616,16.02,16.02,0,0,1,.16,2.616c.034,1.826.078,4.229.131,7.132.075,6.024.12,14.345.12,23.538,0,1.411,0,2.8,0,4.116l-.408-.408c8.231.013,15.523.062,20.758.135l6.168.125A12.592,12.592,0,0,1,192.4,97.693Z" transform="translate(-162.817 -60.29)" fill="#e0e0e0"/></g><g transform="translate(89.18 36.711)"><path d="M163.361,48.3c.226,0,.411,2.387.411,5.33s-.185,5.332-.411,5.332-.411-2.387-.411-5.332S163.133,48.3,163.361,48.3Z" transform="translate(-162.95 -48.296)" fill="#e0e0e0"/></g><g transform="translate(111.064 45.261)"><path d="M185.316,54.139c.161.16-1.373,1.953-3.424,4s-3.846,3.587-4.006,3.425,1.372-1.953,3.425-4.006S185.156,53.977,185.316,54.139Z" transform="translate(-177.874 -54.127)" fill="#e0e0e0"/></g><g transform="translate(126.428 63.715)"><path d="M197.337,66.739c.1.207-1.909,1.418-4.373,2.92s-4.469,2.725-4.606,2.537,1.678-1.723,4.179-3.239S197.238,66.541,197.337,66.739Z" transform="translate(-188.351 -66.711)" fill="#e0e0e0"/></g><g transform="translate(130.784 90.739)"><path d="M205.86,85.552c0,.227-3.254.411-7.269.411s-7.269-.183-7.269-.411,3.254-.411,7.269-.411S205.86,85.326,205.86,85.552Z" transform="translate(-191.322 -85.141)" fill="#e0e0e0"/></g><g transform="translate(30.789 89.77)"><path d="M136.861,84.891c0,.227-3.074.411-6.866.411s-6.866-.183-6.866-.411S126.2,84.48,130,84.48,136.861,84.665,136.861,84.891Z" transform="translate(-123.13 -84.48)" fill="#e0e0e0"/></g><g transform="translate(40.753 110.575)"><path d="M140.822,98.68c.148.172-2.175,2.279-5.188,4.706s-5.568,4.248-5.7,4.066,2.186-2.289,5.188-4.706S140.672,98.508,140.822,98.68Z" transform="translate(-129.925 -98.668)" fill="#e0e0e0"/></g><g transform="translate(61.937 126.361)"><path d="M151.672,109.439c.189.139-1.534,2.788-3.531,6.121s-3.537,6.093-3.748,5.992,1.015-3.049,3.044-6.414S151.5,109.308,151.672,109.439Z" transform="translate(-144.372 -109.434)" fill="#e0e0e0"/></g><g transform="translate(89.18 132.182)"><g transform="translate(0 0)"><path d="M163.361,127.942c-.227,0-.411-3.255-.411-7.269s.183-7.27.411-7.27.411,3.254.411,7.27S163.586,127.942,163.361,127.942Z" transform="translate(-162.95 -113.403)" fill="#e0e0e0"/></g></g><g transform="translate(110.037 127.543)"><path d="M188.062,119.73c-.116.183-2.961-1.452-5.995-4.106s-5.05-5.238-4.884-5.377c.177-.157,2.428,2.157,5.424,4.758S188.193,119.534,188.062,119.73Z" transform="translate(-177.173 -110.24)" fill="#e0e0e0"/></g><g transform="translate(126.573 112.142)"><path d="M197.507,108.792c-.161.16-2.317-1.735-4.814-4.233s-4.393-4.653-4.233-4.813,2.315,1.733,4.814,4.232S197.667,108.631,197.507,108.792Z" transform="translate(-188.451 -99.736)" fill="#e0e0e0"/></g><g transform="translate(43.056 62.708)"><path d="M139.422,73.951c-.161.161-2.063-1.481-4.248-3.666s-3.829-4.088-3.667-4.25,2.062,1.482,4.248,3.667S139.582,73.791,139.422,73.951Z" transform="translate(-131.496 -66.025)" fill="#e0e0e0"/></g><g transform="translate(61.348 43.769)"><path d="M151.752,60.857c-.16.16-2.029-1.441-4.175-3.578s-3.757-4-3.6-4.159,2.029,1.44,4.176,3.576S151.912,60.7,151.752,60.857Z" transform="translate(-143.97 -53.109)" fill="#e0e0e0"/></g></g><g transform="translate(420.237 43.138)" opacity="0.8"><path d="M421.336,66.778a42.089,42.089,0,0,1,9.13,6.431l9.754-3.472,9.169,14.472-7.305,7.338a42.007,42.007,0,0,1,1.917,11l9.35,4.442L449.6,123.707l-10.35.023a41.872,41.872,0,0,1-6.433,9.13l3.472,9.756-14.47,9.169-7.339-7.305a41.982,41.982,0,0,1-11,1.914l-4.439,9.351-16.718-3.749-.022-10.351a41.9,41.9,0,0,1-9.131-6.433l-9.756,3.474-9.169-14.472,7.308-7.339a42.1,42.1,0,0,1-1.917-11l-9.348-4.44,3.75-16.718,10.35-.021a41.883,41.883,0,0,1,6.433-9.131L367.345,65.8l14.469-9.168,7.339,7.307a41.934,41.934,0,0,1,11.005-1.915l4.439-9.35,16.715,3.749.025,10.35ZM406.6,86.449a18.378,18.378,0,1,0,13.91,21.954A18.377,18.377,0,0,0,406.6,86.449Z" transform="translate(-350.285 -52.679)" fill="#ebebeb" fill-rule="evenodd"/></g><g transform="translate(0 179.321)"><path d="M63.7,170.527H172.173s-9.593-17.456-37.514-14.914c-26.666,2.425-28.021-8.589-41.58-9.943S68.22,154.707,63.7,170.527Z" transform="translate(-63.701 -145.55)" fill="#f5f5f5"/></g><g transform="translate(234.759 381.295)"><path d="M223.8,303.505h87.8s-7.764-14.13-30.364-12.073c-21.585,1.963-22.682-6.951-33.658-8.049S227.456,290.7,223.8,303.505Z" transform="translate(-223.797 -283.288)" fill="#f5f5f5"/></g></g><g transform="translate(19.855 641.04)"><path d="M694.809,444.941c0,.211-151.106.383-337.461.383-186.421,0-337.493-.172-337.493-.383s151.072-.381,337.493-.381C543.7,444.56,694.809,444.73,694.809,444.941Z" transform="translate(-19.855 -444.56)" fill="#263238"/></g><g transform="translate(55.268 201.577)"><g transform="translate(389.53 0)"><g transform="translate(0.383 0.381)"><rect width="213.038" height="142.642" fill="#fff"/></g><path d="M523.067,287.889s-.021-.892-.032-2.6L523,277.768c-.019-6.6-.044-16.287-.078-28.688-.038-24.782-.094-60.4-.161-103.833l.305.3-213.021.078h-.016l.381-.383c-.012,50.817-.022,99.14-.032,142.642l-.349-.35,153.48.173,43.849.094,11.664.043,3.01.021c.679.007,1.034.021,1.034.021s-.327.013-.993.021l-2.971.021-11.595.043-43.77.094-153.709.172h-.35v-.35c-.009-43.5-.021-91.825-.032-142.642v-.381h.4l213.021.076h.306l0,.3c-.066,43.509-.122,79.2-.16,104.024-.034,12.37-.06,22.032-.078,28.619-.015,3.267-.026,5.767-.034,7.468C523.089,287.04,523.067,287.889,523.067,287.889Z" transform="translate(-309.648 -144.865)" fill="#feab45"/><g transform="translate(0.383 12.73)"><path d="M309.909,153.927c0-.211,47.654-.381,106.426-.381,58.791,0,106.435.17,106.435.381s-47.644.381-106.435.381C357.563,154.309,309.909,154.138,309.909,153.927Z" transform="translate(-309.909 -153.546)" fill="#feab45"/></g><g transform="translate(5.373 4.981)"><g opacity="0.3"><path d="M316.727,149.97a1.708,1.708,0,1,1-1.708-1.708A1.708,1.708,0,0,1,316.727,149.97Z" transform="translate(-313.312 -148.262)" fill="#feab45"/></g><g transform="translate(5.851)" opacity="0.3"><path d="M320.716,149.97a1.707,1.707,0,1,1-1.707-1.708A1.707,1.707,0,0,1,320.716,149.97Z" transform="translate(-317.302 -148.262)" fill="#feab45"/></g><g transform="translate(11.617)" opacity="0.3"><path d="M324.649,149.97a1.708,1.708,0,1,1-1.707-1.708A1.707,1.707,0,0,1,324.649,149.97Z" transform="translate(-321.234 -148.262)" fill="#feab45"/></g></g><g transform="translate(18.697 27.986)" opacity="0.3"><rect width="56.827" height="56.827" fill="#feab45"/></g><g transform="translate(85.206 43.667)"><path d="M466.754,175.025c0,.211-22.163.383-49.5.383s-49.5-.172-49.5-.383,22.158-.381,49.5-.381S466.754,174.816,466.754,175.025Z" transform="translate(-367.755 -174.644)" fill="#feab45"/></g><g transform="translate(85.206 54.228)"><path d="M466.754,182.227c0,.211-22.163.381-49.5.381s-49.5-.17-49.5-.381,22.158-.381,49.5-.381S466.754,182.016,466.754,182.227Z" transform="translate(-367.755 -181.846)" fill="#feab45"/></g><g transform="translate(85.206 64.787)"><path d="M466.754,189.43c0,.21-22.163.381-49.5.381s-49.5-.172-49.5-.381,22.158-.383,49.5-.383S466.754,189.219,466.754,189.43Z" transform="translate(-367.755 -189.047)" fill="#feab45"/></g><g transform="translate(85.206 75.348)"><path d="M426.264,196.63a13.178,13.178,0,0,1-2.3.15l-6.269.12c-5.3.069-12.608.113-20.685.113s-15.4-.044-20.689-.113l-6.27-.12a13.167,13.167,0,0,1-2.3-.15,13.289,13.289,0,0,1,2.3-.148l6.27-.122c5.294-.069,12.608-.111,20.689-.111s15.389.043,20.685.111l6.269.122A13.3,13.3,0,0,1,426.264,196.63Z" transform="translate(-367.755 -196.249)" fill="#feab45"/></g><g transform="translate(22.253 103.973)" opacity="0.3"><rect width="26.706" height="26.706" fill="#e8505b"/></g><g transform="translate(70.686 103.973)" opacity="0.3"><rect width="26.706" height="26.706" fill="#feab45"/></g><g transform="translate(119.119 103.973)" opacity="0.3"><rect width="26.706" height="26.706" fill="#feab45"/></g><g transform="translate(167.551 103.973)" opacity="0.3"><rect width="26.706" height="26.706" fill="#feab45"/></g></g><g transform="translate(0 51.468)"><g transform="translate(0.301 0.301)"><rect width="189.78" height="77.086" fill="#fff"/></g><path d="M234.086,257.35s-.013-.474-.021-1.377-.013-2.249-.023-4c-.012-3.518-.029-8.685-.053-15.341-.026-13.3-.066-32.549-.114-56.369l.211.211-189.767.089h-.013l.3-.3c0,26.994-.009,53.052-.013,77.085l-.287-.287,136.069.136,39.473.079,10.564.037,2.735.018c.617.006.94.018.94.018s-.3.012-.9.019-1.521.009-2.7.018c-2.4.007-5.93.021-10.505.037l-39.407.079-136.264.136h-.287v-.289c0-24.034-.009-50.091-.013-77.085v-.3h.314l189.767.089h.213v.211c-.048,23.872-.087,43.163-.114,56.5-.022,6.637-.04,11.788-.051,15.294-.01,1.733-.018,3.057-.023,3.961S234.086,257.35,234.086,257.35Z" transform="translate(-44.005 -179.964)" fill="#feab45"/><g transform="translate(0.491 10.397)"><path d="M44.34,187.355c0-.167,42.419-.3,94.735-.3,52.333,0,94.745.133,94.745.3s-42.412.3-94.745.3C86.759,187.654,44.34,187.52,44.34,187.355Z" transform="translate(-44.34 -187.054)" fill="#feab45"/></g><g transform="translate(5.681 4.669)"><g opacity="0.3"><path d="M50.634,184.526a1.378,1.378,0,1,1-1.377-1.378A1.378,1.378,0,0,1,50.634,184.526Z" transform="translate(-47.879 -183.148)" fill="#feab45"/></g><g transform="translate(4.72)" opacity="0.3"><path d="M53.852,184.526a1.377,1.377,0,1,1-1.377-1.378A1.377,1.377,0,0,1,53.852,184.526Z" transform="translate(-51.098 -183.148)" fill="#feab45"/></g><g transform="translate(9.372)" opacity="0.3"><path d="M57.025,184.526a1.378,1.378,0,1,1-1.378-1.378A1.378,1.378,0,0,1,57.025,184.526Z" transform="translate(-54.27 -183.148)" fill="#feab45"/></g></g><g transform="translate(16.43 23.226)" opacity="0.3"><rect width="45.839" height="45.839" fill="#feab45"/></g><g transform="translate(71.587 35.209)"><path d="M198.188,204.276c0,.166-23.589.3-52.681.3s-52.684-.135-52.684-.3,23.584-.3,52.684-.3S198.188,204.11,198.188,204.276Z" transform="translate(-92.824 -203.975)" fill="#feab45"/><g transform="translate(0 9.339)"><path d="M198.188,210.645c0,.166-23.589.3-52.681.3s-52.684-.135-52.684-.3,23.584-.3,52.684-.3S198.188,210.477,198.188,210.645Z" transform="translate(-92.824 -210.344)" fill="#feab45"/></g><g transform="translate(0 18.677)"><path d="M160.651,217.013a3,3,0,0,1-.689.06l-1.975.057-7.269.1-23.978.088-23.984-.088-7.267-.1-1.975-.057a3,3,0,0,1-.689-.06,3,3,0,0,1,.689-.06c.516-.016,1.17-.034,1.975-.057l7.267-.1,23.984-.088,23.978.088,7.269.1c.8.023,1.459.041,1.975.057A3,3,0,0,1,160.651,217.013Z" transform="translate(-92.824 -216.712)" fill="#feab45"/></g></g></g></g><g transform="translate(274.925 104.32)"><path d="M288.575,114.456c-3.182-2.12-7.549-.837-10.729,1.285s-5.9,5.03-9.464,6.414c-6.692,2.6-15.466-.481-20.668,4.469-3.3,3.142-3.638,8.3-6.16,12.095-4.25,6.393-14.445,8.8-15.319,16.422-.51,4.449,3.009,8.715,7.31,9.962s9.031-.069,12.76-2.549c4.355-2.895,7.776-7.358,12.74-9.006,5.072-1.683,11.332-.274,15.334-3.815s3.4-10.055,6.273-14.576c1.526-2.406,3.936-4.085,6.093-5.948s4.211-4.167,4.572-6.995-.8-7.65-2.741-7.759" transform="translate(-178.7 -62.297)" fill="#f5f5f5"/><g transform="translate(0 50.026)"><g transform="translate(27.197 313.65)"><path d="M212.4,326.564c.18-.109.774.484,1.327,1.324s.862,1.622.691,1.745-.767-.472-1.329-1.326S212.22,326.674,212.4,326.564Z" transform="translate(-212.349 -326.551)" fill="#17a6af"/></g><g transform="translate(20.917 300.434)"><path d="M208.113,317.541c.2-.068.981,1.387,1.745,3.248s1.229,3.447,1.04,3.54-.971-1.362-1.745-3.249S207.913,317.608,208.113,317.541Z" transform="translate(-208.067 -317.538)" fill="#17a6af"/></g><g transform="translate(17.464 286.18)"><path d="M205.811,307.818c.21-.026.677,1.557,1.046,3.537s.5,3.628.293,3.678-.673-1.532-1.044-3.537S205.6,307.845,205.811,307.818Z" transform="translate(-205.711 -307.818)" fill="#17a6af"/></g><g transform="translate(16.612 271.534)"><path d="M205.567,297.83c.21.015.359,1.66.33,3.673s-.221,3.653-.433,3.663-.359-1.635-.33-3.675S205.357,297.814,205.567,297.83Z" transform="translate(-205.13 -297.83)" fill="#17a6af"/></g><g transform="translate(17.784 257.068)"><path d="M207.565,287.966c.2.056.023,1.7-.4,3.667s-.94,3.538-1.148,3.506-.029-1.675.4-3.667S207.361,287.909,207.565,287.966Z" transform="translate(-205.93 -287.965)" fill="#17a6af"/></g><g transform="translate(21.649 243.4)"><path d="M211.609,278.649c.186.1-.328,1.667-1.153,3.5s-1.651,3.264-1.849,3.191.318-1.642,1.153-3.5S211.423,278.549,211.609,278.649Z" transform="translate(-208.565 -278.644)" fill="#17a6af"/></g><g transform="translate(28.383 231.174)"><path d="M217.547,270.316c.163.133-.679,1.554-1.88,3.172s-2.327,2.829-2.481,2.727c-.2-.13.655-1.543,1.867-3.181S217.384,270.183,217.547,270.316Z" transform="translate(-213.158 -270.306)" fill="#17a6af"/></g><g transform="translate(37.554 220.307)"><path d="M224.489,262.909c.15.148-.859,1.456-2.254,2.92s-2.651,2.535-2.807,2.393.852-1.449,2.252-2.92S224.337,262.761,224.489,262.909Z" transform="translate(-219.412 -262.896)" fill="#17a6af"/></g><g transform="translate(47.789 209.88)"><path d="M231.556,255.8c.153.147-.878,1.436-2.3,2.88s-2.7,2.494-2.848,2.346.881-1.44,2.3-2.881S231.4,255.652,231.556,255.8Z" transform="translate(-226.392 -255.785)" fill="#17a6af"/></g><g transform="translate(57.92 198.828)"><path d="M237.973,248.257c.169.126-.741,1.5-2.031,3.076s-2.465,2.736-2.623,2.6.752-1.518,2.032-3.078S237.8,248.131,237.973,248.257Z" transform="translate(-233.301 -248.248)" fill="#17a6af"/></g><g transform="translate(66.686 186.247)"><path d="M242.669,239.671c.192.079-.29,1.676-1.232,3.491s-1.953,3.137-2.131,3.027.529-1.591,1.452-3.379S242.473,239.589,242.669,239.671Z" transform="translate(-239.279 -239.668)" fill="#17a6af"/></g><g transform="translate(72.367 172.079)"><path d="M244.432,230.006c.207.015.258,1.683-.079,3.7s-.924,3.584-1.125,3.53.045-1.673.371-3.654S244.218,229.991,244.432,230.006Z" transform="translate(-243.153 -230.006)" fill="#17a6af"/></g><g transform="translate(72.478 157.503)"><path d="M243.308,220.067c.2-.051.774,1.518,1.085,3.54s.246,3.692.041,3.7-.485-1.6-.795-3.587S243.1,220.12,243.308,220.067Z" transform="translate(-243.229 -220.066)" fill="#17a6af"/></g><g transform="translate(66.769 144.084)"><path d="M239.361,210.922c.17-.119,1.249,1.16,2.214,2.965s1.441,3.406,1.249,3.484-.974-1.358-1.922-3.123S239.184,211.043,239.361,210.922Z" transform="translate(-239.336 -210.915)" fill="#17a6af"/></g><g transform="translate(56.556 133.661)"><path d="M232.379,203.831c.113-.173,1.6.606,3.167,1.924s2.6,2.635,2.455,2.777-1.4-.909-2.944-2.192S232.258,204.01,232.379,203.831Z" transform="translate(-232.371 -203.807)" fill="#17a6af"/></g><g transform="translate(43.233 127.658)"><path d="M223.286,199.788c.044-.2,1.705,0,3.645.664s3.379,1.518,3.291,1.705-1.639-.336-3.538-.982S223.238,200,223.286,199.788Z" transform="translate(-223.285 -199.713)" fill="#17a6af"/></g><g transform="translate(28.664 126.283)"><path d="M213.35,199.562c-.037-.2,1.578-.658,3.629-.763s3.7.169,3.688.374-1.648.282-3.648.389S213.387,199.775,213.35,199.562Z" transform="translate(-213.35 -198.775)" fill="#17a6af"/></g><g transform="translate(15.13 128.952)"><path d="M204.128,204.1c-.12-.167,1.138-1.277,2.95-2.248s3.434-1.408,3.5-1.216-1.381.937-3.142,1.889S204.252,204.28,204.128,204.1Z" transform="translate(-204.12 -200.596)" fill="#17a6af"/></g><g transform="translate(5.043 137.203)"><path d="M197.268,212.021c-.177-.1.537-1.622,1.8-3.241s2.55-2.691,2.7-2.546-.867,1.43-2.093,3.013S197.451,212.133,197.268,212.021Z" transform="translate(-197.241 -206.222)" fill="#17a6af"/></g><g transform="translate(0 149.581)"><path d="M193.931,221.787c-.205-.019-.2-1.7.284-3.7s1.243-3.5,1.434-3.421-.223,1.656-.692,3.6S194.145,221.809,193.931,221.787Z" transform="translate(-193.802 -214.663)" fill="#17a6af"/></g><g transform="translate(0.015 164.024)"><path d="M195.667,231.629c-.192.075-.949-1.421-1.434-3.42s-.5-3.676-.295-3.7.559,1.573,1.037,3.516S195.869,231.553,195.667,231.629Z" transform="translate(-193.812 -224.513)" fill="#17a6af"/></g><g transform="translate(5.004 177.743)"><path d="M201.516,239.831c-.157.135-1.371-1.007-2.566-2.67s-1.887-3.183-1.707-3.286,1.151,1.213,2.327,2.84S201.679,239.691,201.516,239.831Z" transform="translate(-197.215 -233.869)" fill="#17a6af"/></g><g transform="translate(14.386 188.964)"><path d="M209.331,246.149c-.12.17-1.572-.644-3.16-1.927s-2.688-2.532-2.546-2.685,1.458.828,3.027,2.091S209.454,245.974,209.331,246.149Z" transform="translate(-203.613 -241.521)" fill="#17a6af"/></g><g transform="translate(26.269 197.523)"><path d="M218.262,250.715c-.084.194-1.626-.4-3.443-1.321s-3.2-1.821-3.1-2,1.648.409,3.443,1.321S218.345,250.523,218.262,250.715Z" transform="translate(-211.716 -247.358)" fill="#17a6af"/></g><g transform="translate(39.662 203.443)"><path d="M227.956,253.273c-.037.205-1.7.076-3.675-.433s-3.5-1.191-3.43-1.387,1.67.148,3.62.647S227.994,253.064,227.956,253.273Z" transform="translate(-220.85 -251.395)" fill="#17a6af"/></g><g transform="translate(54.046 205.885)"><path d="M237.986,253.251c.023.205-1.609.556-3.654.592s-3.688-.241-3.673-.447,1.651-.276,3.659-.317S237.963,253.037,237.986,253.251Z" transform="translate(-230.659 -253.06)" fill="#17a6af"/></g><g transform="translate(68.588 202.26)"><path d="M247.475,250.629c.089.186-1.34,1.05-3.269,1.742s-3.579.937-3.629.736,1.484-.773,3.371-1.456S247.384,250.434,247.475,250.629Z" transform="translate(-240.576 -250.589)" fill="#17a6af"/></g><g transform="translate(81.895 194.274)"><path d="M255.475,245.16c.141.152-.972,1.395-2.6,2.638s-3.11,2-3.222,1.824,1.164-1.2,2.757-2.43S255.332,245,255.475,245.16Z" transform="translate(-249.651 -245.142)" fill="#17a6af"/></g><g transform="translate(92.843 183.19)"><path d="M261.54,237.59c.176.111-.572,1.6-1.8,3.233s-2.449,2.77-2.6,2.632.787-1.48,1.993-3.09S261.359,237.474,261.54,237.59Z" transform="translate(-257.117 -237.583)" fill="#17a6af"/></g><g transform="translate(100.835 170.008)"><path d="M265.349,228.6c.2.062-.138,1.694-.906,3.588s-1.653,3.307-1.837,3.214.378-1.634,1.131-3.5S265.145,228.53,265.349,228.6Z" transform="translate(-262.567 -228.594)" fill="#17a6af"/></g><g transform="translate(105.365 155.644)"><path d="M266.747,218.8c.208.015.262,1.678-.015,3.7s-.777,3.61-.981,3.568-.047-1.676.224-3.67S266.534,218.783,266.747,218.8Z" transform="translate(-265.656 -218.798)" fill="#17a6af"/></g><g transform="translate(105.887 140.994)"><path d="M266.2,208.808c.208-.028.506,1.6.663,3.629s.114,3.682-.1,3.686-.509-1.62-.664-3.629S265.994,208.837,266.2,208.808Z" transform="translate(-266.013 -208.808)" fill="#17a6af"/></g><g transform="translate(102.826 126.681)"><path d="M263.992,199.049c.2-.066.795,1.475,1.327,3.443s.8,3.6.591,3.642-.8-1.5-1.327-3.443S263.792,199.113,263.992,199.049Z" transform="translate(-263.925 -199.047)" fill="#17a6af"/></g><g transform="translate(97.244 113.128)"><path d="M260.155,189.808c.183-.1,1.07,1.3,1.952,3.138.823,1.864,1.331,3.439,1.136,3.518s-1.015-1.351-1.829-3.2C260.54,191.451,259.964,189.907,260.155,189.808Z" transform="translate(-260.118 -189.804)" fill="#17a6af"/></g><g transform="translate(90.037 100.351)"><path d="M255.232,181.1c.18-.109,1.158,1.223,2.185,2.972s1.71,3.252,1.526,3.357-1.163-1.226-2.186-2.972S255.05,181.206,255.232,181.1Z" transform="translate(-255.203 -181.091)" fill="#17a6af"/></g><g transform="translate(82.753 87.614)"><path d="M250.268,172.41c.188-.1,1.132,1.258,2.11,3.025s1.625,3.288,1.441,3.395-1.126-1.248-2.11-3.027S250.081,172.506,250.268,172.41Z" transform="translate(-250.236 -172.405)" fill="#17a6af"/></g><g transform="translate(77.006 74.134)"><path d="M246.368,163.214c.2-.062.936,1.417,1.636,3.3s1.114,3.481.921,3.566-.925-1.393-1.636-3.3S246.166,163.274,246.368,163.214Z" transform="translate(-246.317 -163.212)" fill="#17a6af"/></g><g transform="translate(74.338 59.714)"><path d="M244.721,153.378c.214-.006.437,1.619.651,3.618s.336,3.635.126,3.673-.672-1.56-.886-3.593S244.515,153.384,244.721,153.378Z" transform="translate(-244.497 -153.378)" fill="#17a6af"/></g><g transform="translate(74.544 45.123)"><path d="M245.867,143.428c.21.045.025,1.678-.264,3.667s-.582,3.607-.8,3.591-.257-1.679.04-3.7S245.665,143.383,245.867,143.428Z" transform="translate(-244.638 -143.427)" fill="#17a6af"/></g><g transform="translate(77.674 31.283)"><path d="M249.652,133.993c.191.1-.4,1.629-1.169,3.484s-1.455,3.349-1.658,3.282.164-1.691.953-3.575S249.467,133.9,249.652,133.993Z" transform="translate(-246.772 -133.989)" fill="#17a6af"/></g><g transform="translate(84.213 19.135)"><path d="M255.747,125.717c.158.142-.809,1.468-2.038,3.057s-2.274,2.858-2.453,2.739.6-1.592,1.849-3.205S255.593,125.576,255.747,125.717Z" transform="translate(-251.231 -125.705)" fill="#17a6af"/></g><g transform="translate(93.915 9.472)"><path d="M263.668,119.14c.117.177-1.15,1.221-2.741,2.452s-2.925,2.186-3.068,2.028.982-1.387,2.6-2.634S263.554,118.965,263.668,119.14Z" transform="translate(-257.848 -119.115)" fill="#17a6af"/></g><g transform="translate(106.05 2.809)"><path d="M272.861,114.622c.07.2-1.415.9-3.26,1.7s-3.374,1.4-3.472,1.211,1.292-1.1,3.169-1.912S272.793,114.426,272.861,114.622Z" transform="translate(-266.124 -114.571)" fill="#17a6af"/></g><g transform="translate(119.812)"><path d="M279.118,112.826c.031.208-.746.525-1.733.708s-1.827.161-1.874-.044.73-.522,1.735-.708S279.089,112.617,279.118,112.826Z" transform="translate(-275.509 -112.655)" fill="#17a6af"/></g></g><g transform="translate(80.083)"><path d="M298.377,85.56s17.224-12.285,41.058-4.351c0,0,1.959,19.731-17.155,35.423" transform="translate(-225.114 -78.54)" fill="#feab45"/><path d="M261.351,120.847c.733,1.1,19.423,31.149,19.423,31.149L336.9,117.42A19.643,19.643,0,0,0,342.38,89h0a19.643,19.643,0,0,0-26.735-4.616Z" transform="translate(-242.382 -77.369)" fill="#feab45"/><path d="M275,134.533l-1.258,21.142s36.37-17.614,27.293-37.181Z" transform="translate(-236.605 -59.907)" fill="#17a6af"/><path d="M293.381,97.437s-24.657-10.88-44.966,5.077l18.969,12.381Z" transform="translate(-248.415 -71.416)" fill="#17a6af"/><path d="M290.124,108.328l-35.1,21.956s1.205,3.774,2.148,3.461c.79-.264,27.164-15.837,35.716-20.893a2.643,2.643,0,0,0,.691-3.956h0A2.653,2.653,0,0,0,290.124,108.328Z" transform="translate(-245.332 -64.836)" fill="#263238"/><g transform="translate(63.608 13.342)"><circle cx="11.237" cy="11.237" r="11.237" transform="matrix(0.229, -0.973, 0.973, 0.229, 0, 21.877)" fill="#fafafa"/><g transform="translate(1.893 1.958)"><path d="M315.94,100.527c-.088.006-.041-1-.5-2.707a11.208,11.208,0,0,0-4.107-6.009A10.932,10.932,0,0,0,301,90.305a10.76,10.76,0,0,0-5.04,3.8,10.83,10.83,0,0,0,0,12.84,10.774,10.774,0,0,0,5.041,3.8,10.935,10.935,0,0,0,10.344-1.506,11.2,11.2,0,0,0,4.106-6.009c.455-1.707.408-2.713.5-2.708a2.545,2.545,0,0,1,.04.721,8.883,8.883,0,0,1-.248,2.059,11.177,11.177,0,0,1-4.066,6.367,11.367,11.367,0,0,1-4.83,2.2,11.552,11.552,0,0,1-6.081-.465,11.415,11.415,0,0,1-5.4-4.021,11.52,11.52,0,0,1,0-13.727,11.4,11.4,0,0,1,5.4-4.021,11.546,11.546,0,0,1,6.08-.465,11.34,11.34,0,0,1,4.83,2.2,11.181,11.181,0,0,1,4.068,6.367,8.883,8.883,0,0,1,.248,2.059A2.521,2.521,0,0,1,315.94,100.527Z" transform="translate(-293.084 -88.974)" fill="#263238"/></g></g><g transform="translate(81.604 2.695)"><path d="M324.5,112.027c-.145.015-.315-2.182-1.176-5.6a42.587,42.587,0,0,0-1.953-5.854,42.235,42.235,0,0,0-8.154-12.628,42.9,42.9,0,0,0-4.531-4.191c-2.76-2.189-4.691-3.247-4.618-3.373a5.94,5.94,0,0,1,1.4.661,15,15,0,0,1,1.563.924c.589.39,1.286.8,1.984,1.361a37.662,37.662,0,0,1,4.713,4.132,39.611,39.611,0,0,1,8.3,12.847,37.744,37.744,0,0,1,1.829,6c.218.865.311,1.67.424,2.368a15.282,15.282,0,0,1,.2,1.8A5.987,5.987,0,0,1,324.5,112.027Z" transform="translate(-304.066 -80.378)" fill="#263238"/></g><g transform="translate(78.309 3.679)"><path d="M322.52,113.331c-.145.015-.321-2.219-1.2-5.692a43.776,43.776,0,0,0-1.984-5.958A43.38,43.38,0,0,0,311.082,88.8a44.039,44.039,0,0,0-4.587-4.288c-2.793-2.245-4.748-3.336-4.675-3.462a6.114,6.114,0,0,1,1.417.686,15.475,15.475,0,0,1,1.582.952c.6.4,1.3.828,2.008,1.4a38.613,38.613,0,0,1,4.769,4.232,40.664,40.664,0,0,1,8.4,13.092,38.847,38.847,0,0,1,1.856,6.1c.223.88.318,1.7.434,2.409a15.941,15.941,0,0,1,.205,1.834A6.224,6.224,0,0,1,322.52,113.331Z" transform="translate(-301.819 -81.049)" fill="#263238"/></g></g></g><g transform="translate(45.137 406.486)"><g transform="translate(55.07 100.185)"><path d="M85.192,452.7c-1.257-4.986,2.035-9.965,5.716-13.557s8.072-6.8,10-11.567c3.128-7.72-.962-17.762,4.338-24.188,3.117-3.779,8.676-5.018,11.448-9.061,1.453-2.119,1.934-4.732,2.515-7.235a73.643,73.643,0,0,1,18.508-34.166,63.892,63.892,0,0,1-7.373,32.987c-2.154,4.047-4.794,7.989-5.525,12.514-1.189,7.349,2.873,14.95,1.025,22.161-2.113,8.248-11.423,13.724-11.911,22.224-.412,7.185,5.817,13.53,5.31,20.711-.217,3.057-1.653,5.889-3.247,8.506-5.61,9.207-13.812,15.526-26.186,15.249l-15.161.444Z" transform="translate(-74.652 -352.926)" fill="#feab45"/></g><g transform="translate(55.07 100.185)" opacity="0.3"><path d="M85.192,452.7c-1.257-4.986,2.035-9.965,5.716-13.557s8.072-6.8,10-11.567c3.128-7.72-.962-17.762,4.338-24.188,3.117-3.779,8.676-5.018,11.448-9.061,1.453-2.119,1.934-4.732,2.515-7.235a73.643,73.643,0,0,1,18.508-34.166,63.892,63.892,0,0,1-7.373,32.987c-2.154,4.047-4.794,7.989-5.525,12.514-1.189,7.349,2.873,14.95,1.025,22.161-2.113,8.248-11.423,13.724-11.911,22.224-.412,7.185,5.817,13.53,5.31,20.711-.217,3.057-1.653,5.889-3.247,8.506-5.61,9.207-13.812,15.526-26.186,15.249l-15.161.444Z" transform="translate(-74.652 -352.926)"/></g><g transform="translate(0 47.456)"><path d="M89.095,504.873a12.1,12.1,0,0,1-4.173-.113A25.4,25.4,0,0,1,80,503.492a20.861,20.861,0,0,1-6.065-3.367,8.482,8.482,0,0,1-2.483-3.348,15.659,15.659,0,0,1-.688-4.534,44.012,44.012,0,0,0-.326-4.9,13.522,13.522,0,0,0-1.826-4.885c-1.768-3.15-4.719-6.138-5.654-10.407-1.013-4.2-.243-8.732.488-13.285s1.439-9.495-.273-14.241c-1.6-4.75-4.9-9.049-6.531-14.4-1.625-5.406-.82-11.207-1.136-16.935a22.467,22.467,0,0,0-1.928-8.429c-1.211-2.689-2.9-5.231-4.21-8.062-2.659-5.726-3.1-12.2-3.8-18.547q-.51-4.8-1.032-9.693a47.34,47.34,0,0,0-1.629-9.7,85.776,85.776,0,0,0-3.572-9.4,31.162,31.162,0,0,1-1.732-4.909,49.27,49.27,0,0,1-.459-5.216,61.383,61.383,0,0,1,.462-10.49c.433-3.5,1.084-6.959,1.48-10.463.023-.207.048-.415.07-.6l.084-.7.619.314a23.419,23.419,0,0,1,8.121,6.933,37.169,37.169,0,0,1,4.961,9.267c2.5,6.527,3.368,13.357,4.607,19.877,1.208,6.52,2.815,12.936,6.124,18.368,1.647,2.71,3.642,5.185,5.386,7.829a21.411,21.411,0,0,1,3.711,8.66c.861,6.417-2.7,12.029-2,17.711a19.642,19.642,0,0,0,2.72,7.882c1.362,2.43,2.968,4.685,4.49,6.952a44.548,44.548,0,0,1,4.03,7.015,22.171,22.171,0,0,1,1.818,7.61c.342,5.113-.412,9.958-.065,14.539a33.47,33.47,0,0,0,3.67,12.479c1.812,3.739,3.833,7.124,5.522,10.4a52.968,52.968,0,0,1,2.271,4.843,23.728,23.728,0,0,1,1.3,4.8A30.306,30.306,0,0,1,96.6,491.1a21.8,21.8,0,0,1-4.4,11.008,10.406,10.406,0,0,1-1.233,1.321,6.009,6.009,0,0,1-1,.839c-.567.414-.871.6-.871.6a19.076,19.076,0,0,0,2.952-2.886,21.945,21.945,0,0,0,4.178-10.935,30.114,30.114,0,0,0-.145-8.528,23.461,23.461,0,0,0-1.314-4.686c-.636-1.568-1.428-3.159-2.285-4.779-1.7-3.251-3.747-6.622-5.6-10.385a34.01,34.01,0,0,1-3.8-12.7c-.372-4.678.359-9.54,0-14.533a21.4,21.4,0,0,0-1.786-7.354,43.766,43.766,0,0,0-3.983-6.877c-1.522-2.251-3.145-4.513-4.547-6.995a20.506,20.506,0,0,1-2.846-8.206c-.7-6.052,2.843-11.7,1.965-17.667a20.565,20.565,0,0,0-3.587-8.284c-1.716-2.594-3.722-5.074-5.417-7.849-3.414-5.59-5.046-12.128-6.267-18.674-1.251-6.561-2.126-13.319-4.577-19.711a36.22,36.22,0,0,0-4.832-9.024,22.426,22.426,0,0,0-7.778-6.647l.7-.383-.072.61c-.4,3.546-1.054,7.017-1.481,10.471a60.464,60.464,0,0,0-.46,10.331,49.242,49.242,0,0,0,.437,5.059,30.384,30.384,0,0,0,1.675,4.735,86.52,86.52,0,0,1,3.6,9.506,48.2,48.2,0,0,1,1.65,9.864q.517,4.9,1.021,9.7c.688,6.374,1.126,12.744,3.686,18.271,1.264,2.752,2.949,5.3,4.2,8.077a23.338,23.338,0,0,1,1.983,8.74c.3,5.852-.5,11.565,1.056,16.756,1.543,5.166,4.824,9.487,6.468,14.388,1.76,4.953.99,10.067.24,14.595-.758,4.559-1.518,9-.565,13.033.853,4.076,3.719,7.037,5.524,10.278a14.013,14.013,0,0,1,1.852,5.08,44.052,44.052,0,0,1,.29,4.964,15.409,15.409,0,0,0,.622,4.409,8.124,8.124,0,0,0,2.333,3.2,20.818,20.818,0,0,0,5.918,3.381,26.082,26.082,0,0,0,4.849,1.345,19.465,19.465,0,0,0,3.081.317C88.732,504.86,89.095,504.873,89.095,504.873Z" transform="translate(-37.097 -316.967)" fill="#263238"/><g transform="translate(5.112 9.062)"><path d="M40.589,323.147a1.8,1.8,0,0,1,.144.459c.087.364.2.812.327,1.367.29,1.2.636,3,1.2,5.254.582,2.248,1.943,4.8,3.1,7.936,1.205,3.113,2.425,6.72,3.543,10.772,1.133,4.047,2.132,8.543,3.176,13.359,1.078,4.805,2.151,9.961,4.769,14.831,1.229,2.469,2.613,4.97,3.708,7.7a35.829,35.829,0,0,1,2.134,8.71,175.906,175.906,0,0,0,3.163,18.357c2.969,12.439,5.8,24.286,8.371,35.074,2.639,10.751,5.016,20.44,7.021,28.607,1.95,8.093,3.534,14.668,4.651,19.306.515,2.224.921,3.983,1.217,5.261.119.556.214,1.009.292,1.374a1.734,1.734,0,0,1,.067.475,1.79,1.79,0,0,1-.163-.452c-.1-.359-.23-.8-.387-1.351-.339-1.267-.805-3.01-1.395-5.217l-4.95-19.23c-2.063-8.153-4.509-17.825-7.225-28.557-2.6-10.791-5.455-22.641-8.452-35.083a173.654,173.654,0,0,1-3.157-18.432,34.916,34.916,0,0,0-2.053-8.5c-1.056-2.663-2.418-5.15-3.647-7.646-2.639-4.962-3.72-10.273-4.754-15.06-1.01-4.827-1.966-9.309-3.052-13.348S46,341.471,44.847,338.353c-1.1-3.126-2.414-5.706-2.958-8.028-.513-2.311-.792-4.1-1.022-5.314-.094-.562-.17-1.016-.232-1.386A1.805,1.805,0,0,1,40.589,323.147Z" transform="translate(-40.583 -323.147)" fill="#263238"/></g></g><g transform="translate(39.011)"><path d="M74.013,520c-9.867-5.942-12.608-23.821-8.417-34.549s11.476-20.511,12.656-31.968c.906-8.808-1.928-17.869.173-26.469,2.836-11.609,14.235-20.548,14.172-32.5-.035-6.7-3.814-13.033-3.472-19.73.419-8.212,6.763-14.694,10.709-21.909,6.04-11.043,6.508-24.138,8.622-36.546s6.924-25.683,17.966-31.725c1.566,10.553,4.3,17.791,3.348,32.072-.343,5.128-6.358,14.916-7.232,26.154-.523,6.717-.9,13.445-1.346,20.168-.437,6.542-.9,13.2-3.279,19.312-1.824,4.682-4.736,8.929-6.1,13.765-2.563,9.1.68,18.988-1.4,28.208-1.763,7.813-7.215,14.514-8.366,22.44-1.617,11.136,5.53,22.757,1.777,33.366-1.862,5.264-6.225,9.476-7.487,14.914-.98,4.222.037,8.7-.852,12.942-1.433,6.832-14.51,12.07-21.473,11.608" transform="translate(-63.701 -284.604)" fill="#feab45"/><g transform="translate(10.307 10.452)"><path d="M120.357,291.732a2.8,2.8,0,0,1-.047.6c-.06.443-.136,1.013-.233,1.732-.236,1.521-.5,3.755-1.035,6.644-.569,2.9-2.085,6.17-3.305,10.111-1.286,3.927-2.569,8.459-3.708,13.536-1.158,5.074-2.137,10.691-3.163,16.737-1.06,6-2.145,12.631-5.182,18.915-1.408,3.157-2.984,6.316-4.172,9.684a43.659,43.659,0,0,0-2.15,10.687,215.8,215.8,0,0,1-3.034,23.047c-3.122,15.607-6.094,30.473-8.8,44-2.848,13.476-5.414,25.617-7.574,35.838C75.775,493.406,74,501.638,72.767,507.4c-.623,2.8-1.112,4.992-1.459,6.555-.167.7-.3,1.264-.4,1.7a2.8,2.8,0,0,1-.17.573,2.564,2.564,0,0,1,.072-.592c.079-.44.18-1.007.309-1.72.305-1.57.733-3.779,1.279-6.591,1.167-5.78,2.833-14.033,4.886-24.207,2.1-10.232,4.6-22.388,7.368-35.88,2.681-13.527,5.626-28.387,8.719-43.99a218.413,218.413,0,0,0,3.044-22.972,44.321,44.321,0,0,1,2.222-10.9c1.224-3.44,2.823-6.612,4.229-9.743,3.019-6.19,4.1-12.665,5.207-18.687,1.06-6.034,2.079-11.666,3.286-16.75,1.188-5.087,2.522-9.628,3.862-13.555,1.28-3.953,2.843-7.19,3.453-10.02.581-2.836.915-5.093,1.211-6.594.136-.711.245-1.277.328-1.716A2.6,2.6,0,0,1,120.357,291.732Z" transform="translate(-70.729 -291.732)" fill="#263238"/></g></g></g><g transform="translate(580.908 384.483)"><g transform="translate(0 26.629)"><rect width="10.22" height="33.018" fill="#feab45"/></g><g transform="translate(18.812 13.04)"><rect width="10.22" height="46.607" fill="#feab45"/></g><g transform="translate(38.834 6.694)"><rect width="10.22" height="52.953" fill="#feab45"/></g><g transform="translate(58.856)"><rect width="10.22" height="59.647" fill="#feab45"/></g></g><g transform="translate(170.976 370.343)"><g transform="translate(36.652 66.378)"><g transform="translate(17.192 16.912)"><path d="M171.2,317.073a7.023,7.023,0,0,1,2.2.688,9.251,9.251,0,0,1,4.377,4.431,9.37,9.37,0,0,1,.894,4.28,9.532,9.532,0,0,1-1.472,4.8,9.512,9.512,0,0,1-4.2,3.612,9.482,9.482,0,0,1-11.018-2.471,9.519,9.519,0,0,1-2.26-5.062,9.524,9.524,0,0,1,.719-4.968,9.381,9.381,0,0,1,2.637-3.489,9.262,9.262,0,0,1,5.851-2.136,7.073,7.073,0,0,1,2.28.317c-.01.066-.812-.161-2.274-.108a9.26,9.26,0,0,0-5.613,2.217,9.071,9.071,0,0,0-3.11,8.1,9.088,9.088,0,0,0,2.164,4.782,9,9,0,0,0,10.416,2.336,9.082,9.082,0,0,0,4-3.4,9.082,9.082,0,0,0,.651-8.656,9.264,9.264,0,0,0-4.129-4.4C172,317.274,171.178,317.137,171.2,317.073Z" transform="translate(-159.632 -316.756)" fill="#263238"/></g><path d="M184.116,312.508a2.118,2.118,0,0,1-.021-.327c0-.243-.013-.569-.022-.99-.013-.909-.031-2.217-.054-3.917l.066.082-8.462-1.846.153-.073-2.226,4.735-.04.085-.1,0a21.192,21.192,0,0,0-5.516.98l-.1.032-.075-.075c-1.16-1.148-2.415-2.392-3.722-3.684l.236.025-7.3,4.653.085-.248c.546,1.525,1.148,3.205,1.766,4.928l.044.126-.091.1a21.153,21.153,0,0,0-3.21,4.574l-.063.123h-.141c-1.622,0-3.411.012-5.232.018l.232-.185c-.592,2.654-1.23,5.518-1.886,8.454l-.135-.279,4.728,2.241.139.065.006.154a21.112,21.112,0,0,0,.962,5.495l.047.15-.111.111-3.691,3.711.035-.324,4.638,7.314-.312-.107,4.931-1.758.152-.053.119.109a20.955,20.955,0,0,0,4.553,3.208h0c.065.106-.142-.236.145.236v1.312l0,1.311q0,1.311,0,2.61l-.208-.26,8.452,1.9-.3.144,2.246-4.726.069-.142.157-.006a21,21,0,0,0,5.5-.953l.15-.047.111.11,3.707,3.7-.315-.035,7.32-4.628-.1.29q-.891-2.512-1.749-4.934l-.05-.138.1-.106a21.049,21.049,0,0,0,3.223-4.559l.065-.125h.139l5.232,0-.216.173c.673-2.971,1.309-5.776,1.914-8.448l.111.23-4.722-2.257-.1-.05,0-.116a21.116,21.116,0,0,0-.946-5.518l-.031-.1.075-.075c1.346-1.345,2.559-2.554,3.706-3.7l-.022.2-4.6-7.338.141.048-4.942,1.724-.05.018-.038-.035a22.048,22.048,0,0,0-3.361-2.59l-.9-.543a2.428,2.428,0,0,1-.3-.182,2.24,2.24,0,0,1,.318.144c.207.106.519.267.924.506a20.562,20.562,0,0,1,3.433,2.538l-.088-.018,4.921-1.787.089-.032.051.081,4.667,7.3.067.106-.089.089-3.681,3.722.043-.176a21.4,21.4,0,0,1,.994,5.609l-.11-.166,4.733,2.233.147.07-.035.158c-.594,2.673-1.219,5.481-1.88,8.455l-.038.173h-.177c-1.7.007-3.439.015-5.232.021l.2-.123a21.511,21.511,0,0,1-3.282,4.672l.05-.242q.864,2.419,1.761,4.928l.066.185-.166.106L184.5,355.7l-.17.109-.145-.144-3.713-3.689.26.063a21.52,21.52,0,0,1-5.631.982l.226-.15q-1.109,2.343-2.242,4.729l-.089.191-.207-.047-8.452-1.893-.208-.045v-.214l-.006-2.609,0-1.312v-1.311c.287.471.079.131.144.235h0a21.521,21.521,0,0,1-4.669-3.29l.27.056-4.933,1.754-.2.072-.113-.179-4.632-7.319-.111-.177.147-.147,3.7-3.708-.063.26a21.594,21.594,0,0,1-.975-5.629l.144.219c-1.636-.78-3.252-1.55-4.725-2.249l-.179-.087.044-.192c.661-2.934,1.307-5.8,1.906-8.449l.041-.186h.189l5.233,0-.2.123a21.5,21.5,0,0,1,3.295-4.66l-.045.224c-.61-1.726-1.207-3.408-1.746-4.936l-.056-.158.141-.089,7.326-4.619.129-.081.107.107c1.3,1.3,2.547,2.55,3.7,3.7l-.176-.043a21.412,21.412,0,0,1,5.61-.958l-.135.089,2.263-4.717.047-.1.106.023,8.439,1.944.067.016v.067c-.016,1.683-.028,2.981-.037,3.881-.007.427-.013.757-.018,1A2.6,2.6,0,0,1,184.116,312.508Z" transform="translate(-147.908 -305.223)" fill="#263238"/></g><g transform="translate(17.19)"><path d="M174.348,267.838a23.506,23.506,0,0,1,5.1,3.594l5.452-1.941,5.123,8.088-4.082,4.1a23.465,23.465,0,0,1,1.07,6.151l5.226,2.481-2.1,9.342-5.785.013a23.4,23.4,0,0,1-3.6,5.1l1.941,5.453-8.087,5.123-4.1-4.082a23.462,23.462,0,0,1-6.151,1.069l-2.481,5.226-9.344-2.1-.012-5.785a23.389,23.389,0,0,1-5.1-3.6l-5.453,1.941-5.125-8.089,4.085-4.1a23.516,23.516,0,0,1-1.072-6.15l-5.225-2.481,2.1-9.344,5.785-.013a23.426,23.426,0,0,1,3.6-5.1l-1.941-5.452,8.089-5.125,4.1,4.084a23.453,23.453,0,0,1,6.15-1.07l2.481-5.226,9.344,2.1.013,5.786Zm-8.238,10.993a10.272,10.272,0,1,0,7.775,12.272A10.272,10.272,0,0,0,166.11,278.831Z" transform="translate(-134.636 -259.956)" fill="#feab45" fill-rule="evenodd"/><g opacity="0.8"><path d="M174.348,267.838a23.506,23.506,0,0,1,5.1,3.594l5.452-1.941,5.123,8.088-4.082,4.1a23.465,23.465,0,0,1,1.07,6.151l5.226,2.481-2.1,9.342-5.785.013a23.4,23.4,0,0,1-3.6,5.1l1.941,5.453-8.087,5.123-4.1-4.082a23.462,23.462,0,0,1-6.151,1.069l-2.481,5.226-9.344-2.1-.012-5.785a23.389,23.389,0,0,1-5.1-3.6l-5.453,1.941-5.125-8.089,4.085-4.1a23.516,23.516,0,0,1-1.072-6.15l-5.225-2.481,2.1-9.344,5.785-.013a23.426,23.426,0,0,1,3.6-5.1l-1.941-5.452,8.089-5.125,4.1,4.084a23.453,23.453,0,0,1,6.15-1.07l2.481-5.226,9.344,2.1.013,5.786Zm-8.238,10.993a10.272,10.272,0,1,0,7.775,12.272A10.272,10.272,0,0,0,166.11,278.831Z" transform="translate(-134.636 -259.956)" fill="#fff" fill-rule="evenodd"/></g></g><g transform="translate(0 58.334)"><g transform="translate(0)"><path d="M146.03,304.324A13.708,13.708,0,0,1,149,306.416l3.173-1.129L155.157,310l-2.377,2.387a13.665,13.665,0,0,1,.625,3.579l3.041,1.446-1.22,5.439-3.368.007a13.623,13.623,0,0,1-2.092,2.971L150.9,329l-4.708,2.984-2.387-2.377a13.685,13.685,0,0,1-3.581.623l-1.444,3.041-5.44-1.22-.006-3.367a13.626,13.626,0,0,1-2.971-2.094l-3.175,1.131-2.983-4.708,2.377-2.387a13.673,13.673,0,0,1-.623-3.581l-3.041-1.444,1.219-5.439,3.368-.007a13.621,13.621,0,0,1,2.092-2.971l-1.129-3.175,4.707-2.983,2.389,2.377a13.666,13.666,0,0,1,3.579-.623l1.446-3.041,5.437,1.22.009,3.367Zm-4.795,6.4a5.98,5.98,0,1,0,4.525,7.143A5.98,5.98,0,0,0,141.235,310.724Z" transform="translate(-122.913 -299.737)" fill="#feab45" fill-rule="evenodd"/></g><g opacity="0.4"><path d="M146.03,304.324A13.708,13.708,0,0,1,149,306.416l3.173-1.129L155.157,310l-2.377,2.387a13.665,13.665,0,0,1,.625,3.579l3.041,1.446-1.22,5.439-3.368.007a13.623,13.623,0,0,1-2.092,2.971L150.9,329l-4.708,2.984-2.387-2.377a13.685,13.685,0,0,1-3.581.623l-1.444,3.041-5.44-1.22-.006-3.367a13.626,13.626,0,0,1-2.971-2.094l-3.175,1.131-2.983-4.708,2.377-2.387a13.673,13.673,0,0,1-.623-3.581l-3.041-1.444,1.219-5.439,3.368-.007a13.621,13.621,0,0,1,2.092-2.971l-1.129-3.175,4.707-2.983,2.389,2.377a13.666,13.666,0,0,1,3.579-.623l1.446-3.041,5.437,1.22.009,3.367Zm-4.795,6.4a5.98,5.98,0,1,0,4.525,7.143A5.98,5.98,0,0,0,141.235,310.724Z" transform="translate(-122.913 -299.737)" fill="#fff" fill-rule="evenodd"/></g></g></g><g transform="translate(241.791 284.533)"><g transform="translate(162.297)"><path d="M361.8,287.651a14.319,14.319,0,0,0,10.358-14.29c-.179-2.87-1.246-5.662-1.123-8.534.191-4.459,3.15-8.228,5.376-12.095s3.72-8.968,1.125-12.6c-1.683-2.355-4.656-3.417-6.694-5.471-2-2.012-2.943-4.8-4.012-7.423s-2.455-5.332-4.917-6.734-6.238-.779-7.238,1.873" transform="translate(-247.94 -192.883)" fill="#263238"/><path d="M369.107,223.871c4.392-2.789,5.453-9.257,3.072-13.884s-7.432-7.436-12.568-8.264a23.947,23.947,0,0,0-20.632,6.836c-2.835,2.92-5.131,6.728-8.974,8.065-3.38,1.176-7.118.114-10.665.575-4.755.616-8.832,4-11.271,8.127s-3.444,8.943-4.008,13.706c-.518,4.371-.859,9.168-3.892,12.357-2.956,3.112-7.628,3.77-11.306,5.983-6.918,4.164-9.16,14.477-4.6,21.138,1.456,2.123,3.546,4.071,3.714,6.64.154,2.346-1.362,4.434-2.072,6.675-1.829,5.769,2.895,12.624,8.936,12.97,3.05.176,6.319-1.013,9.053.351,2.716,1.355,3.726,4.629,5.464,7.118a13.059,13.059,0,0,0,15.925,4.113c2.244-1.1,4.362-2.917,6.855-2.748s4.447,2.292,6.895,2.766c3.206.62,6.25-1.741,8.154-4.392s3.235-5.773,5.673-7.942c3.194-2.84,7.681-3.543,11.722-4.934A33.066,33.066,0,0,0,383.262,252.8" transform="translate(-281.886 -201.437)" fill="#263238"/><g transform="translate(38.107 18.621)"><path d="M366.636,223.717a7.023,7.023,0,0,1,6.267,7.135h0l-4.189,94.833c-.176,11.2-16.548,17.494-28.538,17.215h0c-12.109-.282-12.5-6.22-12.652-16.876-.252-17.8-.232-24.484-.238-24.383,0,0-15.3-2.575-18.423-22.547-1.554-9.932-1.019-26.21-.151-39.514.78-11.976,8.748-26.654,20.68-25.365Z" transform="translate(-307.873 -214.136)" fill="#ffbe9d"/><g transform="translate(4.31 31.24)"><g transform="translate(0.92 4.822)"><path d="M311.442,241.036a2.56,2.56,0,0,0,2.464,2.59,2.45,2.45,0,0,0,2.644-2.3,2.562,2.562,0,0,0-2.461-2.59A2.45,2.45,0,0,0,311.442,241.036Z" transform="translate(-311.44 -238.728)" fill="#263238"/></g><path d="M310.853,238.121c.317.334,2.26-1.1,5.015-1.084,2.752-.025,4.772,1.4,5.071,1.06.148-.15-.174-.752-1.054-1.4a7.029,7.029,0,0,0-4.057-1.261,6.745,6.745,0,0,0-3.993,1.28C310.985,237.368,310.7,237.971,310.853,238.121Z" transform="translate(-310.813 -235.44)" fill="#263238"/></g><g transform="translate(31.392 31.814)"><g transform="translate(1.302 4.247)"><path d="M330.171,241.036a2.56,2.56,0,0,0,2.464,2.59,2.45,2.45,0,0,0,2.644-2.3,2.561,2.561,0,0,0-2.461-2.59A2.45,2.45,0,0,0,330.171,241.036Z" transform="translate(-330.169 -238.728)" fill="#263238"/></g><path d="M329.321,238.513c.318.334,2.263-1.1,5.016-1.084,2.752-.026,4.772,1.4,5.071,1.059.147-.148-.172-.752-1.054-1.395a7.022,7.022,0,0,0-4.057-1.261,6.745,6.745,0,0,0-3.993,1.279C329.457,237.759,329.167,238.362,329.321,238.513Z" transform="translate(-329.281 -235.832)" fill="#263238"/></g><g transform="translate(14.372 31.951)"><path d="M324.69,258.88c.013-.157-1.7-.456-4.474-.817-.7-.075-1.368-.216-1.487-.7a3.583,3.583,0,0,1,.475-2.084q1-2.551,2.093-5.354c2.906-7.621,5.012-13.888,4.7-14s-2.915,5.971-5.82,13.592c-.7,1.88-1.37,3.67-2.006,5.384a4.084,4.084,0,0,0-.371,2.761,1.772,1.772,0,0,0,1.155,1.031,4.819,4.819,0,0,0,1.194.169C322.947,259.02,324.679,259.036,324.69,258.88Z" transform="translate(-317.674 -235.925)" fill="#263238"/></g><g transform="translate(19.413 80.432)"><path d="M321.112,276.061a50.781,50.781,0,0,0,26.752-7.074s-6.776,14.076-26.752,12.164Z" transform="translate(-321.112 -268.987)" fill="#eb996e"/></g><g transform="translate(22.262 59.683)"><path d="M323.331,256.7a4.966,4.966,0,0,1,4.455-1.834,4.537,4.537,0,0,1,3.126,1.686,2.871,2.871,0,0,1,.211,3.285,3.33,3.33,0,0,1-3.613.9,10.424,10.424,0,0,1-3.518-2.109,3.052,3.052,0,0,1-.785-.817.92.92,0,0,1,.006-1.025" transform="translate(-323.055 -254.838)" fill="#e8505b"/></g><g transform="translate(20.694 56.829)"><path d="M330.783,252.891c-.447-.026-.46,2.964-3.025,5.081s-5.747,1.78-5.77,2.2c-.043.188.708.584,2.053.623a7.448,7.448,0,0,0,4.818-1.667,6.489,6.489,0,0,0,2.345-4.26C331.32,253.615,330.988,252.875,330.783,252.891Z" transform="translate(-321.986 -252.891)" fill="#263238"/></g><g transform="translate(30.19 27.614)"><path d="M328.476,235.021c.27.749,3.021.4,6.253.8,3.241.331,5.845,1.285,6.275.613.192-.321-.261-1.026-1.312-1.754a10.954,10.954,0,0,0-9.545-1.075C328.958,234.078,328.358,234.665,328.476,235.021Z" transform="translate(-328.461 -232.967)" fill="#263238"/></g><g transform="translate(5.311 23.106)"><path d="M311.565,232.736c.482.626,2.383-.019,4.665-.044,2.282-.106,4.214.43,4.662-.224.2-.317-.109-.944-.952-1.538a6.755,6.755,0,0,0-7.514.216C311.618,231.786,311.353,232.43,311.565,232.736Z" transform="translate(-311.495 -229.893)" fill="#263238"/></g></g><path d="M340.315,217.382c4.574-3.078,10.5-4.494,15.825-2.964s9.74,6.329,9.92,11.754c.116,3.527-1.406,7.276.158,10.457,1.49,3.027,5.16,4.258,7.763,6.451a11.915,11.915,0,0,1,2.758,14.406c-2.179,4-6.763,6.936-7.147,11.454-.362,4.251,3.222,7.838,4.093,12.018.963,4.61-1.589,9.38-5.248,12.439s-8.279,4.744-12.8,6.37c-3.524,1.268-7.3,2.556-10.957,1.726a11.217,11.217,0,0,1-8.212-9.364,15.263,15.263,0,0,1,4.157-12.052c2.565-2.823,6.16-5.223,6.776-8.951.96-5.805-5.958-10.577-5.531-16.442.22-3.025,2.354-5.53,4.129-8.017s3.324-5.616,2.235-8.457c-1.417-3.691-6.267-4.653-9.2-7.36a8.964,8.964,0,0,1-2.449-9.08,9.243,9.243,0,0,1,7.238-6.17" transform="translate(-256.55 -195.673)" fill="#263238"/><path d="M359.926,215.022a13.659,13.659,0,0,1-16.115,13.488c-3.05-.557-6.392-2.1-9.033-.474-2.777,1.708-2.892,5.895-5.355,8.033-3.519,3.054-9.115.188-13.583,1.513-3.45,1.023-5.606,4.321-7.9,7.1s-5.726,5.412-9.177,4.389a40.483,40.483,0,0,1,1.37-9.206,13.607,13.607,0,0,1,5.228-7.5,50.751,50.751,0,0,0,4.412-2.568c2.864-2.312,3.528-6.336,5.3-9.565a14.966,14.966,0,0,1,11.4-7.565c3.927-.4,7.974.777,11.8-.189,2.83-.713,5.3-2.55,8.169-3.094,5.582-1.062,10.773,2.944,14.821,6.934" transform="translate(-274.014 -197.814)" fill="#263238"/><g transform="translate(88.384 21.608)"><path d="M376.155,259.5a4.331,4.331,0,0,0,.443-2.3,5.8,5.8,0,0,0-4.019-4.593,29.675,29.675,0,0,0-4.389-1.182,12.845,12.845,0,0,1-4.971-2.049,7,7,0,0,1-2.587-5.341,56.349,56.349,0,0,1,.308-6.286,14.366,14.366,0,0,0-.157-3.072,6.558,6.558,0,0,0-1.177-2.62c-1.2-1.5-3.082-2.161-4.807-2.758a21.641,21.641,0,0,1-4.895-2.11,17.227,17.227,0,0,1-7.134-8.635,11.64,11.64,0,0,1-.512-1.748,1.977,1.977,0,0,1-.089-.629c.069-.019.267.833.877,2.267a17.77,17.77,0,0,0,3.641,5.424,18.018,18.018,0,0,0,8.336,4.764c1.733.589,3.766,1.249,5.165,2.955a7.267,7.267,0,0,1,1.34,2.944,14.935,14.935,0,0,1,.174,3.255,59.38,59.38,0,0,0-.324,6.2,6.3,6.3,0,0,0,2.273,4.836,12.424,12.424,0,0,0,4.685,1.987,28.64,28.64,0,0,1,4.449,1.3,7.014,7.014,0,0,1,3.094,2.323,5.314,5.314,0,0,1,1.015,2.744,3.485,3.485,0,0,1-.361,1.809A1.4,1.4,0,0,1,376.155,259.5Z" transform="translate(-342.16 -216.173)" fill="#455a64"/></g><g transform="translate(3.36 4.155)"><path d="M285.6,277.509a1.265,1.265,0,0,1-.327-.154,2.215,2.215,0,0,1-.749-.755,4.032,4.032,0,0,1,.408-3.943,5.249,5.249,0,0,1,2.138-2.046,27.513,27.513,0,0,1,3.21-1.355,9.9,9.9,0,0,0,3.358-1.9,7.181,7.181,0,0,0,1.918-3.786c.337-1.5.435-3.137.707-4.84a10.626,10.626,0,0,1,1.981-5.033c2.326-3.065,6.135-4.692,8.979-7.565a13.832,13.832,0,0,0,3.119-5.288,36.4,36.4,0,0,0,1.412-6.393c.617-4.386,1.239-9.3,4.192-13.315a9.726,9.726,0,0,1,6.024-3.892,21.133,21.133,0,0,1,6.952.174,25.246,25.246,0,0,0,6.5.38,8.456,8.456,0,0,0,5.308-2.741c2.724-2.939,4.291-6.9,7.64-8.921a12.758,12.758,0,0,1,10.086-1.39,11.182,11.182,0,0,1,6.64,5.16,12.57,12.57,0,0,1,1.724,6.157,10.813,10.813,0,0,1-.638,3.994,6.693,6.693,0,0,1-.589,1.28c-.038-.018.176-.455.443-1.329a11.345,11.345,0,0,0,.487-3.937,12.411,12.411,0,0,0-1.793-5.946,10.757,10.757,0,0,0-6.418-4.86,12.233,12.233,0,0,0-9.6,1.4,14.041,14.041,0,0,0-3.852,3.977,44.465,44.465,0,0,1-3.616,4.895,9.942,9.942,0,0,1-2.55,2,9.45,9.45,0,0,1-3.175.982,25.77,25.77,0,0,1-6.691-.362,20.589,20.589,0,0,0-6.7-.17,8.964,8.964,0,0,0-5.562,3.607,18.469,18.469,0,0,0-2.854,6.258,61.553,61.553,0,0,0-1.21,6.709,36.836,36.836,0,0,1-1.462,6.518,14.511,14.511,0,0,1-3.305,5.543c-3.01,2.983-6.783,4.575-8.977,7.456a10.008,10.008,0,0,0-1.9,4.745c-.283,1.663-.4,3.311-.763,4.864a7.67,7.67,0,0,1-2.11,4.019,10.268,10.268,0,0,1-3.541,1.95,27.938,27.938,0,0,0-3.191,1.276,4.974,4.974,0,0,0-2.054,1.878,3.908,3.908,0,0,0-.526,3.716A3.249,3.249,0,0,0,285.6,277.509Z" transform="translate(-284.177 -204.271)" fill="#455a64"/></g></g><g transform="translate(109.571 109.403)"><path d="M254.443,371.667l35.416-3.247s21.795-57.4,48.661-71.323l17.4,30.4-37.253,70H245.929Z" transform="translate(-245.929 -266.227)" fill="#feab45"/><path d="M254.443,371.667l35.416-3.247s21.795-57.4,48.661-71.323l17.4,30.4-37.253,70H245.929Z" transform="translate(-245.929 -266.227)" opacity="0.3"/><g transform="translate(22.491 110.567)"><path d="M261.283,362.531c-.18-.109,1.155-2.676,2.984-5.736s3.459-5.452,3.641-5.343-1.155,2.675-2.985,5.736S261.464,362.639,261.283,362.531Z" transform="translate(-261.267 -351.448)" fill="#fafafa"/></g><g transform="translate(39.528 110.924)"><path d="M280.956,361.722c-.164.132-2.1-2.006-4.327-4.773s-3.9-5.121-3.732-5.253,2.1,2,4.327,4.774S281.12,361.59,280.956,361.722Z" transform="translate(-272.885 -351.691)" fill="#fafafa"/></g><g transform="translate(51.574 98.506)"><path d="M281.481,352.508c-.211,0-.381-2.079-.381-4.642s.17-4.644.381-4.644.381,2.078.381,4.644S281.692,352.508,281.481,352.508Z" transform="translate(-281.1 -343.222)" fill="#fafafa"/></g><g transform="translate(33.13 124.142)"><path d="M274.883,364.884c-.116.176-1.632-.61-3.386-1.758s-3.084-2.22-2.968-2.4,1.631.61,3.386,1.758S275,364.708,274.883,364.884Z" transform="translate(-268.522 -360.705)" fill="#fafafa"/></g><g transform="translate(54.213 75.552)"><path d="M288.512,327.571c.192.087-.9,2.95-2.446,6.395s-2.952,6.171-3.144,6.084.9-2.949,2.447-6.4S288.32,327.484,288.512,327.571Z" transform="translate(-282.9 -327.569)" fill="#fafafa"/></g><g transform="translate(68.054 52.273)"><path d="M298.464,311.713c.128.169-1.139,1.342-2.827,2.622s-3.161,2.182-3.289,2.013,1.138-1.342,2.827-2.622S298.336,311.546,298.464,311.713Z" transform="translate(-292.339 -311.693)" fill="#fafafa"/></g><path d="M332.641,391.995,350.9,318.226a25.094,25.094,0,0,1,28.81-18.665h0A25.092,25.092,0,0,1,400.06,328.1l-11.182,72.1a36.072,36.072,0,0,1-29.929,29.185l-14.52,2.266Z" transform="translate(-205.489 -265.266)" fill="#feab45"/><g transform="translate(148.391 25.191)"><path d="M383.447,297.563a16.485,16.485,0,0,0-6.515-3.274,17.369,17.369,0,0,0-7.861.054,21.327,21.327,0,0,0-8.546,4.456c-5.354,4.487-8.266,10.317-10.245,14.4-.978,2.075-1.723,3.78-2.255,4.952a10.184,10.184,0,0,1-.892,1.793,9.918,9.918,0,0,1,.617-1.906c.447-1.208,1.117-2.947,2.038-5.063a54.8,54.8,0,0,1,3.755-7.2,32.025,32.025,0,0,1,6.493-7.566,21.494,21.494,0,0,1,8.874-4.555,17.38,17.38,0,0,1,8.15.107,13.875,13.875,0,0,1,4.949,2.39,9.344,9.344,0,0,1,1.109,1C383.353,297.406,383.466,297.544,383.447,297.563Z" transform="translate(-347.125 -293.225)" fill="#263238"/></g><g transform="translate(57.213 46.127)"><path d="M308.969,307.5a3.535,3.535,0,0,1-.51.685l-1.563,1.871c-1.351,1.626-3.28,4-5.48,7.077-4.365,6.107-9.867,15.23-12.47,26.472-2.547,11.248-2.673,21.783-3.106,29.327-.182,3.783-.359,6.845-.522,8.958-.088.988-.158,1.792-.216,2.431a3.625,3.625,0,0,1-.128.845,3.519,3.519,0,0,1-.025-.853c.018-.641.043-1.449.072-2.439.069-2.22.164-5.257.279-8.964.3-7.544.33-18.117,2.9-29.477a72.891,72.891,0,0,1,12.778-26.619c2.267-3.047,4.267-5.382,5.691-6.954.705-.792,1.288-1.377,1.673-1.78A3.6,3.6,0,0,1,308.969,307.5Z" transform="translate(-284.946 -307.502)" fill="#263238"/></g><path d="M426.4,322.014c-2-13.19-9.289-16.357-16.834-20.465-2.468-1.342-14.36-4.395-23.789-6.694-.9-5.714-2.515-15.939-2.87-18.1-.5-3.032-48.032,4.55-48.634,5.688-.4.754-1.494,12.6-2.186,20.494l-11.38,3.978L305.854,325.8l-7.731,10.979a59.166,59.166,0,0,0-9.575,21.076c-1.873,8.41-2.131,16.612-2.131,25.544l-2.3,48.428,99.458,28.123,7.7-49.057,25.659-34.927C419.128,361.842,428.866,338.233,426.4,322.014Z" transform="translate(-228.118 -276.045)" fill="#feab45"/><g transform="translate(110.917 5.56)"><path d="M324.053,302.693a15.388,15.388,0,0,1-.661-3.359c-.311-2.088-.689-4.977-1.06-8.174q-.257-2.373-.493-4.511a31.691,31.691,0,0,1-.262-3.729,4.475,4.475,0,0,1,.708-2.478c.384-.5.713-.633.733-.6.042.05-.213.267-.481.76a4.773,4.773,0,0,0-.421,2.324c.026,1.016.255,2.257.422,3.644.174,1.419.359,2.924.553,4.5.37,3.2.663,6.1.837,8.2A15.294,15.294,0,0,1,324.053,302.693Z" transform="translate(-321.57 -279.837)" fill="#263238"/></g><g transform="translate(123.471 3.552)"><path d="M332.741,300.335a11.494,11.494,0,0,1-1.057-3.075,49.222,49.222,0,0,1-1.439-15.574,11.572,11.572,0,0,1,.477-3.217c.236.019-.2,4.95.38,10.992C331.643,295.5,332.97,300.273,332.741,300.335Z" transform="translate(-330.131 -278.468)" fill="#263238"/></g><g transform="translate(145.972 0.658)"><path d="M349.186,297.825c-.252-.026.8-4.955-.271-10.938-1-6-3.654-10.284-3.425-10.392a9.883,9.883,0,0,1,1.742,2.76,27.775,27.775,0,0,1,2.667,15.384A9.875,9.875,0,0,1,349.186,297.825Z" transform="translate(-345.475 -276.494)" fill="#263238"/></g><g transform="translate(82.133 53.49)"><path d="M301.953,324.156c-.173-.111,1.474-2.94,3.895-6.162s4.67-5.6,4.827-5.465-1.817,2.719-4.216,5.923S302.133,324.274,301.953,324.156Z" transform="translate(-301.94 -312.523)" fill="#fafafa"/></g><g transform="translate(97.232 37.342)"><path d="M319.553,311.07c-.169.129-1.939-1.906-3.955-4.544s-3.515-4.882-3.348-5.009,1.937,1.906,3.955,4.546S319.72,310.943,319.553,311.07Z" transform="translate(-312.237 -301.511)" fill="#fafafa"/></g><g transform="translate(118.42 35.442)"><path d="M336.227,300.225c.138.167-2.059,2.175-4.678,4.732s-4.688,4.7-4.854,4.555,1.667-2.522,4.32-5.1S336.1,300.065,336.227,300.225Z" transform="translate(-326.687 -300.215)" fill="#fafafa"/></g><g transform="translate(114.576 15.324)"><path d="M330.875,292.668c-.142.155-1.779-1.1-3.656-2.8s-3.286-3.205-3.144-3.362,1.779,1.1,3.656,2.8S331.015,292.511,330.875,292.668Z" transform="translate(-324.065 -286.496)" fill="#fafafa"/></g><g transform="translate(131.867 10.491)"><path d="M345.889,283.263c.044.205-2.166.853-4.936,1.447s-5.052.906-5.1.7,2.166-.855,4.936-1.449S345.845,283.056,345.889,283.263Z" transform="translate(-335.857 -283.2)" fill="#fafafa"/></g><g transform="translate(145.282 32.767)"><path d="M345.726,308.654c-.211.01-.5-2.279-.641-5.112s-.089-5.141.122-5.151.5,2.277.641,5.112S345.936,308.644,345.726,308.654Z" transform="translate(-345.005 -298.391)" fill="#fafafa"/></g><g transform="translate(134.074 46.524)"><path d="M341.81,319.9c-.2.072-1.348-2.584-2.568-5.93s-2.05-6.121-1.851-6.194,1.348,2.584,2.568,5.931S342.009,319.827,341.81,319.9Z" transform="translate(-337.362 -307.773)" fill="#fafafa"/></g><g transform="translate(113.248 56.966)"><path d="M328.117,327.587c-.2.076-1.459-2.7-2.821-6.207s-2.307-6.408-2.11-6.484,1.46,2.7,2.823,6.207S328.313,327.511,328.117,327.587Z" transform="translate(-323.159 -314.894)" fill="#fafafa"/></g><g transform="translate(96.477 69.697)"><path d="M314.323,336.018c-.207.042-.944-2.708-1.648-6.144s-1.106-6.255-.9-6.3.944,2.708,1.647,6.144S314.53,335.976,314.323,336.018Z" transform="translate(-311.722 -323.576)" fill="#fafafa"/></g><g transform="translate(70.877 71.432)"><path d="M299.744,335.965c-.189.092-1.565-2.342-3.072-5.434s-2.575-5.676-2.386-5.769,1.566,2.34,3.072,5.434S299.933,335.872,299.744,335.965Z" transform="translate(-294.264 -324.759)" fill="#fafafa"/></g><g transform="translate(63.616 97.185)"><path d="M301.563,342.341c.094.189-2.573,1.7-5.955,3.368s-6.2,2.871-6.294,2.682,2.572-1.7,5.955-3.367S301.469,342.152,301.563,342.341Z" transform="translate(-289.312 -342.322)" fill="#fafafa"/></g><g transform="translate(73.15 109.258)"><path d="M298.814,361.553c-.191.073-1.257-2.274-2.07-5.338s-1.065-5.629-.862-5.66.79,2.442,1.6,5.464S299.018,361.477,298.814,361.553Z" transform="translate(-295.814 -350.555)" fill="#fafafa"/></g><g transform="translate(62.382 128.147)"><path d="M297.539,371.737c-.144.155-2.286-1.573-4.788-3.862s-4.415-4.273-4.273-4.428,2.286,1.575,4.788,3.864S297.681,371.581,297.539,371.737Z" transform="translate(-288.471 -363.436)" fill="#fafafa"/></g><g transform="translate(87.092 125.368)"><path d="M319.619,361.573c.056.219-3.311,1.18-7.241,2.914-3.94,1.714-6.93,3.538-7.053,3.348-.114-.158,2.735-2.3,6.747-4.047C316.074,362.024,319.581,361.381,319.619,361.573Z" transform="translate(-305.322 -361.541)" fill="#fafafa"/></g><g transform="translate(89.011 107.076)"><path d="M310.252,359.361c-.2.07-1.163-2.178-2.153-5.019s-1.631-5.2-1.433-5.273,1.164,2.179,2.154,5.021S310.451,359.292,310.252,359.361Z" transform="translate(-306.631 -349.067)" fill="#fafafa"/></g><g transform="translate(101.708 97.544)"><path d="M323.977,342.569c.177.113-1.619,3.285-4.015,7.086s-4.483,6.791-4.66,6.678,1.619-3.285,4.015-7.086S323.8,342.456,323.977,342.569Z" transform="translate(-315.29 -342.566)" fill="#fafafa"/></g><g transform="translate(121.005 85.353)"><path d="M336.919,348.348c-.16.123-2.527-2.738-4.873-6.659s-3.764-7.352-3.581-7.435c.2-.094,1.9,3.164,4.236,7.042S337.1,348.216,336.919,348.348Z" transform="translate(-328.449 -334.253)" fill="#fafafa"/></g><g transform="translate(129.671 80.542)"><path d="M345.594,331.047c.041.2-2.44.842-5.583.991s-5.673-.232-5.653-.434c.018-.219,2.531-.169,5.616-.329S345.556,330.832,345.594,331.047Z" transform="translate(-334.359 -330.971)" fill="#fafafa"/></g><g transform="translate(153.341 59.146)"><path d="M365.206,316.4c.089.191-3.128,1.914-7.188,3.848s-7.424,3.349-7.515,3.159,3.126-1.914,7.187-3.848S365.115,316.208,365.206,316.4Z" transform="translate(-350.501 -316.38)" fill="#fafafa"/></g><g transform="translate(169.83 33.767)"><path d="M361.766,310.826c-.189-.094.962-2.8,2.571-6.044s3.066-5.8,3.255-5.706-.962,2.8-2.572,6.044S361.956,310.92,361.766,310.826Z" transform="translate(-361.746 -299.073)" fill="#fafafa"/></g><g transform="translate(182.874 42.801)"><path d="M374.867,318.659c-.211.048-1.068-2.978-2.227-6.671s-2.173-6.672-1.972-6.753,1.538,2.793,2.7,6.524S375.068,318.615,374.867,318.659Z" transform="translate(-370.642 -305.234)" fill="#fafafa"/></g><g transform="translate(176.593 70.392)"><path d="M379.566,324.079c.072.189-2.758,1.415-6.434,2.352s-6.744,1.233-6.773,1.032,2.952-.836,6.584-1.773S379.491,323.874,379.566,324.079Z" transform="translate(-366.358 -324.05)" fill="#fafafa"/></g><g transform="translate(160.204 71.624)"><path d="M355.228,341.023c-.221-.044.408-3.613.585-8.056.2-4.442-.123-8.05.1-8.077.192-.034.864,3.59.661,8.109C356.394,337.518,355.417,341.073,355.228,341.023Z" transform="translate(-355.181 -324.89)" fill="#fafafa"/></g><g transform="translate(144.812 94.103)"><path d="M354.228,351.709c-.135.148-2.714-2.041-5.364-5.245s-4.338-6.135-4.167-6.241c.186-.122,2.126,2.6,4.755,5.753S354.382,351.549,354.228,351.709Z" transform="translate(-344.685 -340.219)" fill="#fafafa"/></g><g transform="translate(171.466 101.815)"><path d="M375.388,345.5c.082.194-2.657,1.522-6.115,2.966s-6.329,2.458-6.409,2.264,2.656-1.524,6.115-2.968S375.307,345.308,375.388,345.5Z" transform="translate(-362.862 -345.479)" fill="#fafafa"/></g><g transform="translate(173.064 119.278)"><path d="M364.262,373.518c-.211,0-.346-3.615-.3-8.069s.252-8.064.463-8.061.346,3.613.3,8.069S364.471,373.521,364.262,373.518Z" transform="translate(-363.951 -357.388)" fill="#fafafa"/></g><g transform="translate(150.571 117.268)"><path d="M348.663,372.23c-.2-.026.167-3.785,1.3-8.289s2.575-7.993,2.764-7.923c.207.073-.909,3.642-2.022,8.109S348.882,372.263,348.663,372.23Z" transform="translate(-348.612 -356.017)" fill="#fafafa"/></g><g transform="translate(135.477 142.179)"><path d="M354.512,373.116c.012.22-3.644.57-8.1,1.312s-8.033,1.573-8.093,1.361c-.057-.192,3.461-1.377,7.968-2.115S354.5,372.916,354.512,373.116Z" transform="translate(-338.319 -373.005)" fill="#fafafa"/></g><g transform="translate(126.498 127.063)"><path d="M332.2,372.275c-.151-.147,1.795-2.408,4.348-5.05s4.745-4.667,4.9-4.521-1.795,2.408-4.348,5.052S332.355,372.422,332.2,372.275Z" transform="translate(-332.195 -362.697)" fill="#fafafa"/></g><g transform="translate(106.156 141.043)"><path d="M322.376,383.686c-.217.041-.868-2.6-1.981-5.738s-2.245-5.612-2.05-5.714c.174-.1,1.647,2.249,2.77,5.461S322.574,383.654,322.376,383.686Z" transform="translate(-318.323 -372.231)" fill="#fafafa"/></g><g transform="translate(122.111 155.147)"><path d="M343.608,388.261c-.087.192-3.38-1.082-7.357-2.848s-7.132-3.352-7.046-3.546,3.379,1.082,7.357,2.848S343.693,388.069,343.608,388.261Z" transform="translate(-329.204 -381.849)" fill="#fafafa"/></g><g transform="translate(90.624 148.411)"><path d="M307.768,387.745c-.2-.066.418-2.468,1.38-5.364s1.9-5.191,2.1-5.125-.418,2.469-1.38,5.365S307.967,387.811,307.768,387.745Z" transform="translate(-307.73 -377.255)" fill="#fafafa"/></g><g transform="translate(102.055 162.453)"><path d="M334.344,388.392c-.043.223-4.213-.453-9.4-.719-5.185-.286-9.4-.057-9.42-.283-.023-.194,4.213-.768,9.461-.479C330.235,387.181,334.386,388.2,334.344,388.392Z" transform="translate(-315.526 -386.832)" fill="#fafafa"/></g><g transform="translate(127.11 61.27)"><path d="M332.654,377.333a1.731,1.731,0,0,1-.04-.578,5.439,5.439,0,0,1,.236-1.664,3.682,3.682,0,0,1,1.594-2.182,5.122,5.122,0,0,1,3.579-.591l-.3.174c1.606-5.624,4.169-13.84,6.735-23.045,2.4-8.619,4.024-16.558,5.162-22.314l1.343-6.819a16.473,16.473,0,0,1,.579-2.485,16.141,16.141,0,0,1-.287,2.537c-.23,1.626-.6,3.972-1.1,6.867a229.555,229.555,0,0,1-4.956,22.416c-2.572,9.231-5.228,17.415-6.983,22.993l-.069.217-.232-.042a4.757,4.757,0,0,0-3.26.435,3.431,3.431,0,0,0-1.538,1.928A20.312,20.312,0,0,0,332.654,377.333Z" transform="translate(-332.613 -317.829)" fill="#263238"/></g><g transform="translate(132.051 115.729)"><path d="M363.963,380.408c-.125.057-1.026-1.928-2.892-4.887a50.409,50.409,0,0,0-19.948-18.13c-3.123-1.575-5.187-2.283-5.14-2.414a5.947,5.947,0,0,1,1.485.39,33.033,33.033,0,0,1,3.89,1.537,45.7,45.7,0,0,1,20.174,18.335,33.3,33.3,0,0,1,1.9,3.726A5.926,5.926,0,0,1,363.963,380.408Z" transform="translate(-335.982 -354.967)" fill="#263238"/></g><g transform="translate(132.466 114.659)" opacity="0.2"><path d="M336.676,354.238c5.607.4,10.2.826,15.464,2.8s10.13,5.75,12.065,11.027c.465,1.266.685,2.862-.274,3.81a2.715,2.715,0,0,1-2.779.447,7.353,7.353,0,0,1-2.428-1.67c-3.233-2.99-6.582-5.631-9.92-8.5s-8.185-5.895-12.539-6.561" transform="translate(-336.265 -354.238)"/></g><g transform="translate(82.716 95.023)"><path d="M341.927,351.131a6.791,6.791,0,0,1-1.529.884,26.627,26.627,0,0,1-4.51,1.7,30.125,30.125,0,0,1-29.527-7.668,26.735,26.735,0,0,1-3.113-3.682,6.776,6.776,0,0,1-.906-1.516c.123-.092,1.458,2.06,4.393,4.808a31.07,31.07,0,0,0,29.015,7.536C339.651,352.222,341.865,350.991,341.927,351.131Z" transform="translate(-302.338 -340.847)" fill="#263238"/></g><g transform="translate(83.515 96.158)" opacity="0.2"><path d="M302.883,341.621c2.468,5.37,5.368,10.772,10.05,14.378,2.7,2.078,5.855,3.826,9.262,3.881,4.895.081,9.1-3.258,12.834-6.423-12.1,1.895-25.736-3.594-32.146-11.837" transform="translate(-302.883 -341.621)"/></g><g transform="translate(135.57 2.036)"><path d="M340.542,299.7c-.233-.013.048-5.035-.556-11.18-.573-6.148-1.8-11.026-1.576-11.083a12.053,12.053,0,0,1,1.018,3.145,56.5,56.5,0,0,1,1.516,15.835A12.092,12.092,0,0,1,340.542,299.7Z" transform="translate(-338.382 -277.434)" fill="#263238"/></g></g><g transform="translate(0 329.937)"><path d="M244.57,426.44s-15.938,3.445-30.166,1.311c-13.34-2-43.208.069-43.2,17.651.013,19.608,39.841,14.763,55.382,11.655s31.014-5.924,31.014-5.924Z" transform="translate(-171.206 -426.44)" fill="#feab45"/><g transform="translate(34.445 11.304)"><path d="M197.846,447.965c-.205.047-1.068-3.009-1.925-6.825s-1.386-6.945-1.18-6.992,1.068,3.009,1.925,6.825S198.051,447.92,197.846,447.965Z" transform="translate(-194.696 -434.149)" fill="#263238"/></g><g transform="translate(41.025 11.281)"><path d="M201.189,448.231c-.21.029-.811-3.1-1.345-7s-.8-7.074-.589-7.1.811,3.1,1.345,7S201.4,448.2,201.189,448.231Z" transform="translate(-199.183 -434.133)" fill="#263238"/></g><g transform="translate(46.702 11.009)"><path d="M204.633,446.267c-.21.026-.713-2.711-1.123-6.113s-.573-6.181-.364-6.206.713,2.711,1.123,6.115S204.841,446.242,204.633,446.267Z" transform="translate(-203.055 -433.948)" fill="#263238"/></g><g transform="translate(53.786 10.417)"><path d="M210.624,444.4c-.185.079-1.317-2.207-2.05-5.25s-.786-5.593-.585-5.606c.219-.021.6,2.447,1.327,5.426S210.828,444.317,210.624,444.4Z" transform="translate(-207.885 -433.544)" fill="#263238"/></g><g transform="translate(58.267 1.805)"><path d="M210.966,439.971a6.852,6.852,0,0,1,2.082-.139,17.668,17.668,0,0,1,5.6,1.1,6.228,6.228,0,0,1,1.723.928,2.615,2.615,0,0,1,1.079,1.943,2.947,2.947,0,0,1-3.609,2.622,7.423,7.423,0,0,1-4.16-2.962,12.654,12.654,0,0,1-2.354-4.9,12.449,12.449,0,0,1,1.754-10.153,2.024,2.024,0,0,1,1.183-.713,1.607,1.607,0,0,1,1.326.414,3.564,3.564,0,0,1,1,2.139,10.88,10.88,0,0,1-.21,3.989,11.077,11.077,0,0,1-2.689,5.028,8.678,8.678,0,0,1-1.163,1.032c-.292.2-.45.3-.466.279-.044-.054.556-.5,1.406-1.507a11.453,11.453,0,0,0,2.384-4.951,10.532,10.532,0,0,0,.111-3.776,2.972,2.972,0,0,0-.814-1.727,1.022,1.022,0,0,0-1.538.257A12.436,12.436,0,0,0,214.266,443a6.815,6.815,0,0,0,3.7,2.73,2.3,2.3,0,0,0,2.851-1.915,2.02,2.02,0,0,0-.82-1.5,5.775,5.775,0,0,0-1.544-.88,19.414,19.414,0,0,0-5.418-1.3C211.709,440.008,210.967,440.033,210.966,439.971Z" transform="translate(-210.942 -427.671)" fill="#263238"/></g><g transform="translate(2.506 0.348)"><path d="M255.228,448.427a1.72,1.72,0,0,1-.4.128l-1.2.3-4.621,1.053c-4.021.884-9.851,2.125-17.095,3.524s-15.9,2.978-25.6,4.3a69.141,69.141,0,0,1-15.382.767,33.052,33.052,0,0,1-8.056-1.54,22.123,22.123,0,0,1-3.867-1.719,11.939,11.939,0,0,1-3.4-2.735l.059.065a8.088,8.088,0,0,1-1.386-1.663,10.371,10.371,0,0,1-.811-8.581,13.718,13.718,0,0,1,5.109-6.679,25.966,25.966,0,0,1,7.263-3.6c1.271-.361,2.509-.8,3.769-1.082,1.265-.252,2.5-.588,3.749-.761,9.989-1.576,19.075-.776,26.622-.773,3.785.07,7.2-.032,10.2-.216a68.266,68.266,0,0,0,7.631-.965l2.748-.578,1.98-.565,1.223-.336a1.945,1.945,0,0,1,.425-.091,1.769,1.769,0,0,1-.4.164l-1.2.409q-.823.268-1.968.638l-2.747.648a63.756,63.756,0,0,1-7.657,1.1c-3.008.226-6.443.367-10.234.331-7.565.063-16.645-.673-26.5.927-1.233.174-2.449.512-3.7.763-1.241.286-2.455.72-3.7,1.076a25.281,25.281,0,0,0-7.052,3.51,12.988,12.988,0,0,0-4.832,6.31,9.635,9.635,0,0,0,.733,7.942,7.36,7.36,0,0,0,1.249,1.5l.025.025.034.043a11.432,11.432,0,0,0,3.15,2.512,21.472,21.472,0,0,0,3.727,1.66,32.486,32.486,0,0,0,7.877,1.516,69.054,69.054,0,0,0,15.23-.717c9.684-1.279,18.34-2.812,25.594-4.131s13.1-2.491,17.133-3.288l4.648-.914,1.211-.224A1.852,1.852,0,0,1,255.228,448.427Z" transform="translate(-172.915 -426.677)" fill="#263238"/></g><g transform="translate(22.825 3.947)"><path d="M190.488,456.725a26.363,26.363,0,0,1-.386-4.072c-.18-2.515-.479-5.98-.988-9.786s-1.135-7.231-1.622-9.7a26.15,26.15,0,0,1-.7-4.031,18.576,18.576,0,0,1,1.226,3.912,89.811,89.811,0,0,1,2.623,19.583A18.536,18.536,0,0,1,190.488,456.725Z" transform="translate(-186.772 -429.132)" fill="#263238"/></g><path d="M217.892,427.288l10.1,25.3,7.837-1.451-15.01-24.692Z" transform="translate(-149.433 -426.44)" opacity="0.4"/></g><path d="M371.151,393.116c-1.625.541-105.992-28.706-148.2-40.573a40.091,40.091,0,0,0-32.64,4.94l-.509.328a40.1,40.1,0,0,0-17.265,42.748h0a40.077,40.077,0,0,0,18.1,25.1c27.833,17.051,86.736,52.924,88.538,52.226,2.359-.915,75.921-2.823,75.921-2.823l-88.5-63.646,42.1,27.21,62.45-45.507Z" transform="translate(-171.072 -131.664)" fill="#263238"/><path d="M249.525,361.727l22.186-11.477,21.755,13.639,81.455,2.661,11.79,39.655-117.894-27.33s-21.459,1.9-23.066-2.924S249.525,361.727,249.525,361.727Z" transform="translate(-136.581 -132.036)" fill="#ffbe9d"/><path d="M297.226,410.852l-10.966,36.01,1.364,10.974h0a56.343,56.343,0,0,0,74.315,5.009h0a55.215,55.215,0,0,0,21.589-44.039l-.164-37.626Z" transform="translate(-117.549 -117.611)" fill="#263238"/><g transform="translate(57.969 251.406)"><path d="M267.143,414.955c-.126.17-12.856-9.111-28.428-20.726s-28.1-21.173-27.975-21.341,12.854,9.109,28.431,20.729S267.269,414.786,267.143,414.955Z" transform="translate(-210.738 -372.885)" fill="#455a64"/></g><g transform="translate(111.697 225.385)"><path d="M269.316,355.159c.065.2-4.8,1.937-10.853,3.878s-11.02,3.351-11.084,3.15,4.794-1.937,10.853-3.877S269.252,354.958,269.316,355.159Z" transform="translate(-247.379 -355.14)" fill="#eb996e"/></g><g transform="translate(109.808 232.112)"><path d="M271.575,359.781a23.2,23.2,0,0,1-3.779.71c-2.336.381-5.553.955-9.068,1.761s-6.66,1.7-8.929,2.377a22.982,22.982,0,0,1-3.708,1.01,16.577,16.577,0,0,1,3.54-1.524,79.727,79.727,0,0,1,18.093-4.16A16.584,16.584,0,0,1,271.575,359.781Z" transform="translate(-246.091 -359.728)" fill="#eb996e"/></g><g transform="translate(108.839 238.341)"><path d="M270.025,364c.041.207-5.431,1.466-12.222,2.813s-12.332,2.271-12.373,2.063,5.431-1.465,12.224-2.812S269.984,363.8,270.025,364Z" transform="translate(-245.43 -363.975)" fill="#eb996e"/></g><g transform="translate(1.253 175.11)"><path d="M275.461,322.238l20.465,67.337a1.953,1.953,0,0,0,1.72,1.378l55.767,4.185a1.949,1.949,0,0,1,1.8,1.944v3.481a1.95,1.95,0,0,1-1.987,1.95L200.784,399.65A1.954,1.954,0,0,1,199,398.4L172.19,328.159a1.949,1.949,0,0,1,1.73-2.644l99.582-4.659A1.949,1.949,0,0,1,275.461,322.238Z" transform="translate(-172.06 -320.854)" fill="#455a64"/><path d="M214.249,341.687a4.81,4.81,0,0,0-3.016,3.425,4.615,4.615,0,0,0,1.971,4.2,5.013,5.013,0,0,0,5.572.208,4.645,4.645,0,0,0,1.521-5.628c-.673-1.859-4.077-3.16-6.047-2.2" transform="translate(-153.806 -311.29)" fill="#e0e0e0"/></g><g transform="translate(70.282 224.453)"><path d="M235.248,484.68l-16.112-26.508,118.485-92.861A47.607,47.607,0,0,1,363.5,354.706h0a47.611,47.611,0,0,1,51.764,51.379l-1.893,22.655-78.647,25.273Z" transform="translate(-219.135 -354.505)" fill="#263238"/><g transform="translate(16.113 67.238)"><path d="M382.069,400.359a1.782,1.782,0,0,1-.314.292l-.968.8-3.773,3.012q-1.243.979-2.741,2.163c-1,.793-2.178,1.528-3.395,2.387l-3.936,2.7c-.7.474-1.408.978-2.157,1.462l-2.352,1.417c-3.22,1.921-6.694,4.123-10.634,6.113-1.953,1.022-3.946,2.136-6.052,3.178l-6.547,3.1c-9.02,4.112-19.123,8.248-29.953,11.93-21.642,7.458-41.651,12.826-55.98,17.171-3.594,1.057-6.832,2.046-9.668,2.943-2.842.878-5.291,1.635-7.272,2.309l-4.587,1.49c-.494.151-.889.274-1.2.37a1.758,1.758,0,0,1-.418.1,1.779,1.779,0,0,1,.392-.174l1.175-.441,4.543-1.628c1.969-.717,4.4-1.516,7.237-2.433,2.826-.937,6.056-1.964,9.64-3.053,14.3-4.48,34.284-9.93,55.888-17.376,10.813-3.676,20.9-7.782,29.911-11.848l6.543-3.066c2.106-1.028,4.1-2.128,6.052-3.134,3.942-1.961,7.421-4.128,10.65-6.015q1.208-.713,2.359-1.39c.751-.474,1.462-.971,2.166-1.434l3.958-2.642c1.226-.84,2.414-1.557,3.424-2.331s1.936-1.469,2.774-2.1c1.639-1.232,2.93-2.2,3.857-2.895l1.015-.739A1.815,1.815,0,0,1,382.069,400.359Z" transform="translate(-230.124 -400.358)" fill="#455a64"/></g><g transform="translate(137.733 79.621)"><path d="M346.263,408.815a4.58,4.58,0,0,1-1.2.626c-.787.361-1.947.833-3.4,1.372a86.628,86.628,0,0,1-23.6,5.071c-1.544.1-2.8.15-3.663.144a4.613,4.613,0,0,1-1.346-.079,45.011,45.011,0,0,1,4.959-.6c3.06-.342,7.275-.936,11.866-1.918s8.672-2.179,11.6-3.125A45.251,45.251,0,0,1,346.263,408.815Z" transform="translate(-313.064 -408.803)" fill="#455a64"/></g><g transform="translate(0 15.261)"><path d="M332.879,364.913c.129.166-25.23,20.094-56.634,44.5s-56.979,44.07-57.109,43.9,25.224-20.089,56.64-44.507S332.75,364.746,332.879,364.913Z" transform="translate(-219.136 -364.912)" fill="#455a64"/></g><g transform="translate(29.967 100.688)"><g transform="translate(0.013)"><path d="M316.5,436.284c-5.684-3.031-12.064-1.239-17.5.594-3.62,1.22-7.382,3.153-11.058,2.117-2.659-.749-4.635-2.9-6.666-4.776a41.9,41.9,0,0,0-30.627-10.973,12.473,12.473,0,0,0-8.411,3.8c-5.582,6.046-1.373,13.914,3.616,19a55.119,55.119,0,0,0,33.306,16.067c10.4,1.085,24.689-.35,35.232-4.864,6.5-2.783,9.835-10.451,6.424-16.643A10.679,10.679,0,0,0,316.5,436.284Z" transform="translate(-239.581 -423.17)" fill="#feab45"/><g transform="translate(0.296 4.838)" opacity="0.4"><path d="M316.39,439.584c-5.684-3.031-12.064-1.239-17.5.594-3.619,1.22-7.38,3.153-11.056,2.117-2.659-.749-4.637-2.9-6.666-4.776a41.9,41.9,0,0,0-30.628-10.974,12.478,12.478,0,0,0-8.411,3.8,9.7,9.7,0,0,0-2.343,4.238c.827,3.635,3.273,7.182,5.959,9.921a55.123,55.123,0,0,0,33.307,16.067c10.4,1.085,24.689-.35,35.231-4.864a12.857,12.857,0,0,0,7.5-8.938,10.857,10.857,0,0,0-1.075-2.867A10.676,10.676,0,0,0,316.39,439.584Z" transform="translate(-239.783 -426.469)"/></g></g><g transform="translate(0 4.552)"><path d="M321.878,446.865a9.871,9.871,0,0,0-1.393-3.367,11.023,11.023,0,0,0-3.041-2.974,12.151,12.151,0,0,0-5.225-2c-4.22-.5-9.109,1.28-14.54,2.751-2.685.71-5.618,1.8-8.828,1.395a11.7,11.7,0,0,1-4.541-1.572,28.231,28.231,0,0,1-3.9-2.939,42.493,42.493,0,0,0-23.276-11.031,24.334,24.334,0,0,0-6.879-.04,14.987,14.987,0,0,0-5.321,1.856,13.571,13.571,0,0,0-3.26,2.763,33.012,33.012,0,0,0-2.1,3.03,11.794,11.794,0,0,1,1.87-3.219,13.316,13.316,0,0,1,3.266-2.937,15.2,15.2,0,0,1,5.456-2.026,24.5,24.5,0,0,1,7.043-.054,40.5,40.5,0,0,1,7.879,1.755,45.594,45.594,0,0,1,8.159,3.6,33.993,33.993,0,0,1,3.971,2.585c1.264.991,2.462,2.079,3.689,3.138a27.981,27.981,0,0,0,3.792,2.865,10.978,10.978,0,0,0,4.248,1.482c2.974.393,5.826-.623,8.549-1.331,5.407-1.416,10.38-3.186,14.793-2.607a12.226,12.226,0,0,1,8.448,5.348,7.89,7.89,0,0,1,1.051,2.566A3.61,3.61,0,0,1,321.878,446.865Z" transform="translate(-239.572 -426.274)" fill="#263238"/></g><g transform="translate(0 4.552)"><path d="M321.878,446.865a9.871,9.871,0,0,0-1.393-3.367,11.023,11.023,0,0,0-3.041-2.974,12.151,12.151,0,0,0-5.225-2c-4.22-.5-9.109,1.28-14.54,2.751-2.685.71-5.618,1.8-8.828,1.395a11.7,11.7,0,0,1-4.541-1.572,28.231,28.231,0,0,1-3.9-2.939,42.493,42.493,0,0,0-23.276-11.031,24.334,24.334,0,0,0-6.879-.04,14.987,14.987,0,0,0-5.321,1.856,13.571,13.571,0,0,0-3.26,2.763,33.012,33.012,0,0,0-2.1,3.03,11.794,11.794,0,0,1,1.87-3.219,13.316,13.316,0,0,1,3.266-2.937,15.2,15.2,0,0,1,5.456-2.026,24.5,24.5,0,0,1,7.043-.054,40.5,40.5,0,0,1,7.879,1.755,45.594,45.594,0,0,1,8.159,3.6,33.993,33.993,0,0,1,3.971,2.585c1.264.991,2.462,2.079,3.689,3.138a27.981,27.981,0,0,0,3.792,2.865,10.978,10.978,0,0,0,4.248,1.482c2.974.393,5.826-.623,8.549-1.331,5.407-1.416,10.38-3.186,14.793-2.607a12.226,12.226,0,0,1,8.448,5.348,7.89,7.89,0,0,1,1.051,2.566A3.61,3.61,0,0,1,321.878,446.865Z" transform="translate(-239.572 -426.274)" fill="#263238"/></g><g transform="translate(11.816 13.534)"><path d="M247.632,442.64a14.586,14.586,0,0,1,2.911-2.016,83.966,83.966,0,0,1,15.431-7.254,14.575,14.575,0,0,1,3.408-.955,18.444,18.444,0,0,1-3.216,1.461c-2.007.836-4.769,2.012-7.769,3.42s-5.663,2.788-7.588,3.8A18.35,18.35,0,0,1,247.632,442.64Z" transform="translate(-247.63 -432.4)" fill="#263238"/></g><g transform="translate(13.769 18.555)"><path d="M248.963,446.728c-.092-.191,4.879-2.783,11.1-5.791s11.342-5.294,11.435-5.1-4.879,2.782-11.1,5.791S249.054,446.917,248.963,446.728Z" transform="translate(-248.962 -435.823)" fill="#263238"/></g><g transform="translate(10.669 15.131)"><path d="M273.495,450.282c-.113.177-6.169-3.436-13.526-8.071s-13.232-8.539-13.12-8.716,6.168,3.434,13.527,8.071S273.606,450.1,273.495,450.282Z" transform="translate(-246.848 -433.489)" fill="#263238"/></g><g transform="translate(20.766 12.185)"><path d="M273.691,445.321a18.1,18.1,0,0,1-2.965-1.981c-1.782-1.285-4.239-3.06-6.99-4.968s-5.277-3.585-7.1-4.8a18.012,18.012,0,0,1-2.9-2.081,15.281,15.281,0,0,1,3.181,1.623c1.908,1.1,4.49,2.719,7.256,4.634s5.181,3.768,6.883,5.167A15.3,15.3,0,0,1,273.691,445.321Z" transform="translate(-253.734 -431.479)" fill="#263238"/></g></g></g></g></g></svg>