<svg xmlns="http://www.w3.org/2000/svg" width="717.399" height="510"><path d="M627.88 393.471a33.452 33.452 0 00-14.307-4.924c-2.338-.24-4.892-.172-6.767 1.245a1.392 1.392 0 00-.7 1.236 1.511 1.511 0 00.662.845c5.821 4.441 14.626 5 21.109 1.6M627.508 393.066a69.829 69.829 0 01-9.24-8.13 23.376 23.376 0 01-5.792-10.714 4.319 4.319 0 01.457-3.585c7.365 5.753 13.152 13.192 14.576 22.429" fill="#e0e0e0"/><path d="M627.799 393.413a33.428 33.428 0 01.172-12.132 16.4 16.4 0 016.462-10.01c1.272 2.974.726 6.4-.171 9.511a46.223 46.223 0 01-6.408 13.491M635.02 406.354c-4.383.532-8.2 2.842-11.473 5.807a21.7 21.7 0 00-6.562 11.265c4.3-.265 7.946-3.3 10.591-6.7s4.479-7.13 7.384-10.309M636.587 408.423a28.3 28.3 0 013.267-26.767c2.5 8.882 1.581 18.916-3.267 26.767M646.128 419.785a20.464 20.464 0 00-19.566 11.262c-.242.485-.456 1.1-.131 1.535a1.454 1.454 0 001.3.381c3.857-.249 7.274-2.569 10.094-5.211s5.276-5.693 8.392-7.978M645.824 419.164a36.447 36.447 0 01-.364-20.355c.717-2.62 1.921-5.378 4.344-6.608a.851.851 0 01.665-.116.875.875 0 01.42.486 12.279 12.279 0 011.024 5.84 36.758 36.758 0 01-.915 5.912c-.763 3.612-1.169 7.5-3.151 10.612a21.485 21.485 0 00-1.26 2.331c-.375.792-.378 1.071-.722 1.7M671.077 422.927c-1.871-7.117.116-15.746 4.6-21.58.329-.43.768-.89 1.308-.839.825.076 1.04 1.177 1 2a38.992 38.992 0 01-6.911 20.414M673.354 424.484a31.391 31.391 0 0025.758-5.239 20.855 20.855 0 00-13.944-1.711c-4.658 1.065-8.914 3.152-11.814 6.95M675.274 419.745c4.843-7.9 14.127-13.049 23.377-13.517-1.065 3.762-4.156 6.686-7.645 8.453s-7.383 2.537-11.221 3.282c-1.494.291-3.542.609-4.51 1.782M671.559 396.751a67.955 67.955 0 002.99-13.691c.36-4.665-.305-9.537-2.727-13.542-4.523 8.754-4.982 18.981-.4 27.7M686.789 389.054c5.29-9.614 16.082-17.293 27-18.37-4.213 10.489-15.7 18.594-27 18.37M683.461 390.937c7.889 1.2 14.61 6.241 21.983 9.3a9.852 9.852 0 004.969.951 3.89 3.89 0 002.436-6.882 10.642 10.642 0 00-3.61-2.19c-8.03-3.342-16.641-3.426-25.1-1.4" fill="#e0e0e0"/><path d="M678.896 396.47c1.786.511 2.4 1.435 3.81 2.641a41.1 41.1 0 0016.67 8.563c.637.159 1.472.221 1.788-.354.275-.5-.074-1.112-.432-1.559a22.947 22.947 0 00-10.065-6.833c-3.848-1.432-7.18-3.158-11.772-2.788M673.743 363.052a31.552 31.552 0 0024.187 8.229 1.661 1.661 0 001.1-.4c.609-.662-.121-1.684-.831-2.237-7.111-5.544-15.725-7.842-24.457-5.6" fill="#e0e0e0"/><path d="M679.852 360.816a33.711 33.711 0 0130.18-4.98 23.958 23.958 0 01-14.382 6.315 45.536 45.536 0 01-15.8-1.334M677.423 345.462c-.7-7.1-.246-12.7-.738-19.832-.04-.571-.162-1.256-.7-1.461-.741-.286-1.36.626-1.6 1.384a22.734 22.734 0 003.026 19.752" fill="#e0e0e0"/><path d="M676.914 346.246a41.751 41.751 0 0011.758-11.427c2.322-3.178 4.28-6.984 3.752-10.884a11.251 11.251 0 00-8.481 4.212 23.655 23.655 0 00-4.329 8.699c-.942 3.123-1.6 6.332-2.706 9.4M688.465 343.034a94.8 94.8 0 0028.935-17.061c-3.457-1.392-7.414-.56-10.87.836a34.27 34.27 0 00-18.216 16.148M680.161 350.126c5.341.584 10.766.965 16.066.079 5.21-.871 10.132-2.936 15-4.985a1.76 1.76 0 001.019-.773 1.173 1.173 0 00-.366-1.283 3.092 3.092 0 00-1.279-.6c-5.292-1.481-11-.788-16.209.968a75.225 75.225 0 00-14.231 6.593M649.662 363.294c-3.644-7.356-3.407-15.941-.26-23.522 2.216 3.376 2.486 7.677 2.082 11.7s-1.629 8.153-1.709 12.192M635.108 355.952a32.806 32.806 0 00-24.378 10.385 22.786 22.786 0 0013.348-2.475 67.915 67.915 0 0011.439-7.656M625.316 352.679c-4.452-.361-8.734-.912-13.014.4a15.609 15.609 0 00-9.919 8.411 23.512 23.512 0 0012.2-2.3 70.139 70.139 0 0010.732-6.505M639.807 352.827c-4-2.623-8.117-5.294-12.779-6.382s-10.066-.283-13.317 3.23c3.774 2.215 8.354 2.477 12.729 2.473s9.741-.053 13.866 1.407" fill="#e0e0e0"/><path d="M639.831 353.039c-6.846-6.721-9.44-18.8-6.686-27.988a42.645 42.645 0 016.686 27.988M658.654 333.994c1.291-3 2.2-6.153 3.358-9.207a26.442 26.442 0 014.787-8.487 12.607 12.607 0 018.478-4.394 34.148 34.148 0 01-16.454 22.136M655.248 337.962c-2.136-2.94-4.6-6.933-7.5-9.127s-6.669-3.524-10.205-2.681a23.771 23.771 0 0017.708 11.808M655.93 334.239a50.805 50.805 0 01-3.378-10.937 17.062 17.062 0 011.712-11.12c3.758 7.1 4.968 14.728 1.857 22.137M658.689 312.182c2.128-7.043 8.576-12.227 15.537-14.606a5.8 5.8 0 012.724-.408 2.361 2.361 0 012.007 1.676c.255 1.2-.736 2.272-1.666 3.067a52.894 52.894 0 01-18.6 10.272M658.766 306.422c.27-4.54.553-9.146 2.03-13.448s4.323-8.337 8.463-10.22c.705 4.585-1.319 9.147-3.759 13.093s-5.38 7.671-6.847 12.072M658.654 309.547c-1.758-5.131-1.941-11.65-5.013-16.121-2.148-3.125-5.589-5.254-7.439-8.564a13.029 13.029 0 00.433 9.722 28.121 28.121 0 005.685 8.139c2.274 2.429 4.22 4.256 6.334 6.825" fill="#e0e0e0"/><path d="M658.689 460.676c-.137 0-.256-34.234-.266-76.454-.009-42.235.094-76.462.23-76.462s.256 34.227.266 76.462c.009 42.22-.094 76.454-.23 76.454z" fill="#e0e0e0"/><path d="M688.605 358.129a7.272 7.272 0 01-1.287.482l-3.542 1.2a206.707 206.707 0 00-11.544 4.316c-4.409 1.891-8.567 3.427-10.935 5.479a8.031 8.031 0 00-2.2 2.907c-.339.8-.4 1.3-.446 1.287a1.01 1.01 0 01.015-.359 5.343 5.343 0 01.251-1 7.72 7.72 0 012.145-3.1 19.229 19.229 0 014.745-2.948c1.9-.886 4-1.81 6.235-2.727 4.467-1.831 8.6-3.256 11.622-4.192a93.934 93.934 0 013.6-1.047 7.265 7.265 0 011.341-.298z" fill="#e0e0e0"/><path d="M698.411 334.041a2.124 2.124 0 01-.36.386l-1.1 1.031-4.1 3.726-13.65 12.154c-5.329 4.742-9.932 9.275-13.124 12.686-1.6 1.7-2.857 3.115-3.715 4.1l-.991 1.132a2.112 2.112 0 01-.371.376 2.141 2.141 0 01.293-.438c.207-.275.509-.685.922-1.193.814-1.026 2.036-2.476 3.6-4.215a173.08 173.08 0 0113.052-12.82 1807.434 1807.434 0 0113.747-12.046l4.206-3.608 1.16-.962a2.188 2.188 0 01.431-.309z" fill="#e0e0e0"/><path d="M673.45 356.159c-.14-.062.973-2.632 2.082-5.883s1.646-5.992 1.788-5.969a20.087 20.087 0 01-1.319 6.127 39.969 39.969 0 01-1.658 4.115 6.394 6.394 0 01-.893 1.61zM658.72 376.881a6.173 6.173 0 01-.821-.954l-2.1-2.7c-1.767-2.284-4.209-5.437-6.947-8.887s-5.256-6.545-7.079-8.783l-2.149-2.66a6.192 6.192 0 01-.741-1.017 6.146 6.146 0 01.888.891c.549.594 1.324 1.469 2.272 2.56 1.893 2.183 4.455 5.247 7.2 8.7s5.142 6.645 6.839 8.984c.849 1.17 1.525 2.124 1.979 2.794a6.105 6.105 0 01.659 1.072z" fill="#e0e0e0"/><path d="M652.161 368.46a12.049 12.049 0 01-2.749-5.145 14.709 14.709 0 01-.623-5.186l.219.018c-.1.4-.17.606-.208.6s-.042-.227-.009-.635l.218.018a23.682 23.682 0 00.878 5.045 38.234 38.234 0 002.274 5.285zM643.691 357.807a8.889 8.889 0 00-1.918-1.115 12.831 12.831 0 00-5.328-.423 32.861 32.861 0 00-5.364.866 16.432 16.432 0 01-2.208.53 7.677 7.677 0 012.113-.867 24.5 24.5 0 015.421-1.022 11.626 11.626 0 015.5.593 3.391 3.391 0 011.784 1.438zM641.685 355.225c-.037.077-1.117-.448-2.939-1.071a29.6 29.6 0 00-14.814-1.129c-1.895.339-3.042.694-3.068.613a2.8 2.8 0 01.78-.333 18.373 18.373 0 012.22-.622 26.133 26.133 0 0115 1.143 18.333 18.333 0 012.1.952 2.816 2.816 0 01.721.447zM658.655 344.308a61 61 0 01-2.143-7.447 60.862 60.862 0 01-1.665-7.568 60.89 60.89 0 012.144 7.447 60.633 60.633 0 011.664 7.568z" fill="#e0e0e0"/><path d="M658.791 344.308a35.749 35.749 0 00-2.375-4.458 19.6 19.6 0 00-3.5-3.609 3.249 3.249 0 011.349.7 10.87 10.87 0 012.552 2.628 9.866 9.866 0 011.974 4.739zM658.689 442.426c-.054.009-.154-.823-.54-2.276a32.466 32.466 0 00-2.288-5.928c-2.365-4.833-6.669-10.961-12.138-17.1-2.71-3.1-5.34-6.017-7.57-8.813a61.811 61.811 0 01-5.413-7.808 37.429 37.429 0 01-2.733-5.793 23.636 23.636 0 01-.536-1.657 2.834 2.834 0 01-.141-.592c.044-.014.293.783.857 2.179a42.5 42.5 0 002.852 5.687 65.5 65.5 0 005.466 7.7c2.241 2.767 4.874 5.672 7.588 8.773 5.484 6.155 9.777 12.361 12.08 17.274a29.562 29.562 0 012.159 6.034 16.584 16.584 0 01.3 1.716 2.846 2.846 0 01.057.604zM685.722 411.891a12.166 12.166 0 01-1.417.8 30.957 30.957 0 00-3.675 2.429 42.229 42.229 0 00-4.826 4.4c-1.693 1.789-3.438 3.867-5.219 6.094-3.561 4.467-6.891 8.421-8.885 11.576a47.21 47.21 0 00-2.231 3.812 12.39 12.39 0 01-.78 1.426 1.365 1.365 0 01.131-.4c.106-.256.249-.638.476-1.11a36.039 36.039 0 012.107-3.912c1.937-3.232 5.24-7.239 8.8-11.7 1.785-2.232 3.551-4.314 5.277-6.1a39.264 39.264 0 014.945-4.367 25.882 25.882 0 013.8-2.319c.469-.236.853-.381 1.106-.49a1.392 1.392 0 01.391-.139z" fill="#e0e0e0"/><path d="M686.251 421.797a20.774 20.774 0 01-3 .434 39.628 39.628 0 00-7.1 1.4 21.354 21.354 0 00-6.359 3.338c-1.466 1.132-2.157 2.07-2.225 2.015a2.271 2.271 0 01.444-.69 11.135 11.135 0 011.56-1.6 19.246 19.246 0 016.428-3.537 32.074 32.074 0 017.22-1.277 16.482 16.482 0 013.032-.083z" fill="#e0e0e0"/><path d="M668.444 427.9c-.155-.088 1.194-2.15 2.241-4.922.983-2.8 1.212-5.253 1.388-5.224a4.742 4.742 0 01-.05 1.607 17.2 17.2 0 01-.874 3.785 18.381 18.381 0 01-1.736 3.471 4.808 4.808 0 01-.969 1.283zM694.478 385.297a2.168 2.168 0 01-.479.254l-1.407.64c-.617.264-1.365.6-2.208 1.044s-1.834.886-2.862 1.5l-1.634.93c-.566.325-1.127.712-1.723 1.085-1.2.73-2.41 1.63-3.7 2.549a63.458 63.458 0 00-14.245 14.74c-.875 1.32-1.732 2.556-2.421 3.784-.352.609-.72 1.183-1.027 1.759s-.594 1.134-.873 1.665c-.582 1.049-1 2.051-1.4 2.912s-.725 1.616-.967 2.242l-.592 1.428a.272.272 0 11-.094-.033l.506-1.464c.216-.638.5-1.411.893-2.283s.781-1.894 1.346-2.958l.849-1.69c.3-.585.66-1.168 1.008-1.785.679-1.246 1.529-2.5 2.4-3.835a61.108 61.108 0 0114.349-14.848c1.305-.915 2.528-1.809 3.751-2.529.6-.369 1.174-.749 1.749-1.069l1.659-.907c1.044-.6 2.048-1.032 2.909-1.446s1.622-.734 2.252-.972l1.446-.555a2.307 2.307 0 01.515-.158z" fill="#e0e0e0"/><path d="M673.081 399.633a3.451 3.451 0 011.178-1.753 7.426 7.426 0 014.74-1.818 12.956 12.956 0 014.988.974 7.109 7.109 0 011.886.917 11.709 11.709 0 01-2-.586 15.091 15.091 0 00-4.857-.811 7.723 7.723 0 00-4.529 1.59 14.023 14.023 0 00-1.406 1.487zM669.885 402.933a12.658 12.658 0 001.043-8.951 2.891 2.891 0 01.556 1.276 9.055 9.055 0 01-.766 6.561c-.417.757-.786 1.148-.833 1.114zM635.045 447.33c.737 13.083 4.68 26.388 10.744 39.84h26.37c5.782-13.319 9.453-26.6 10.105-39.84z" fill="#e0e0e0"/><path d="M677.991 468.502c0 .138-8.683.248-19.391.248s-19.392-.11-19.392-.248 8.681-.247 19.392-.247 19.391.111 19.391.247zM677.405 473.242c0 .137-8.14.247-18.178.247s-18.179-.11-18.179-.247 8.138-.248 18.179-.248 18.178.111 18.178.248zM646.215 455.922a74.874 74.874 0 010 12.148 74.543 74.543 0 010-12.148z" fill="#fafafa"/><path d="M660.343 455.922a79.928 79.928 0 010 12.579 80.282 80.282 0 010-12.579zM673.607 455.812a83.126 83.126 0 010 12.831 83.516 83.516 0 010-12.831z" fill="#fafafa"/><path d="M681.427 455.922c0 .137-10.183.247-22.742.247s-22.744-.11-22.744-.247 10.181-.248 22.744-.248 22.742.111 22.742.248z" fill="#fafafa"/><g><path fill="#fafafa" d="M276.01 68.362h34.561v73.98H276.01zM312.006 147.512h42.468v71.481h-42.468zM359.645 67.083h40.326V1.456h1.435v65.627h37.319V0h-79.08zM276.01 147.512h34.561v71.481H276.01zM401.403 147.512h37.322v71.481h-37.322zM312.006 68.362h42.468v73.98h-42.468zM401.403 68.362h37.322v73.98h-37.322zM276.01 220.272h34.561v64.412H276.01zM310.572 67.083V1.456h1.435v65.627h42.468V0H276.01v67.083zM312.006 220.272h42.468v64.412h-42.468zM401.403 220.272h37.322v64.412h-37.322zM359.642 68.362h40.326v73.98h-40.326zM359.642 220.272h40.326v64.412h-40.326zM359.642 147.512h40.326v71.481h-40.326zM443.932 68.362h34.561v73.98h-34.561zM479.928 147.512h42.468v71.481h-42.468zM527.564 67.083h40.326V1.456h1.435v65.627h37.321V0h-79.082zM443.932 147.512h34.561v71.481h-34.561zM569.325 147.512h37.322v71.481h-37.322zM479.928 68.362h42.468v73.98h-42.468zM569.325 68.362h37.322v73.98h-37.322zM443.932 220.272h34.561v64.412h-34.561zM478.493 67.083V1.456h1.435v65.627h42.468V0h-78.464v67.083zM479.928 220.272h42.468v64.412h-42.468zM569.325 220.272h37.322v64.412h-37.322zM527.564 68.362h40.326v73.98h-40.326zM527.564 220.272h40.326v64.412h-40.326zM527.564 147.512h40.326v71.481h-40.326z"/><g><path fill="#fafafa" d="M107.576 68.362h34.561v73.98h-34.561z"/></g><g><path fill="#fafafa" d="M143.572 147.512h42.468v71.481h-42.468z"/></g><g><path d="M191.206 67.083h40.326V1.456h1.435v65.627h37.322V0h-79.083z" fill="#fafafa"/></g><g><path fill="#fafafa" d="M107.576 147.512h34.561v71.481h-34.561z"/></g><g><path fill="#fafafa" d="M232.969 147.512h37.322v71.481h-37.322z"/></g><g><path fill="#fafafa" d="M143.572 68.362h42.468v73.98h-42.468z"/></g><g><path fill="#fafafa" d="M232.969 68.362h37.322v73.98h-37.322z"/></g><g><path fill="#fafafa" d="M107.576 220.272h34.561v64.412h-34.561z"/></g><path d="M142.137 67.083V1.456h1.435v65.627h42.468V0h-78.464v67.083z" fill="#fafafa"/><g><path fill="#fafafa" d="M143.572 220.272h42.468v64.412h-42.468z"/></g><g><path fill="#fafafa" d="M232.969 220.272h37.322v64.412h-37.322z"/></g><g><path fill="#fafafa" d="M191.208 68.362h40.326v73.98h-40.326z"/></g><g><path fill="#fafafa" d="M191.208 220.272h40.326v64.412h-40.326z"/></g><g><path fill="#fafafa" d="M191.208 147.512h40.326v71.481h-40.326z"/></g></g><g><path fill="#e0e0e0" d="M505.029 471.992h-8.55V369.547h8.55z"/><path d="M440.255 374.184h122.293a13.274 13.274 0 00-13.275-13.274H453.53a13.274 13.274 0 00-13.275 13.274z" fill="#ebebeb"/><path d="M563.042 374.679H439.76v-.5a13.786 13.786 0 0113.769-13.768h95.745a13.785 13.785 0 0113.768 13.769zm-122.283-.99h121.284a12.794 12.794 0 00-12.769-12.285h-95.745a12.8 12.8 0 00-12.77 12.285z" fill="#e0e0e0"/><path d="M492.448 374.446c0 .174 3.359.315 7.5.315s7.5-.141 7.5-.315-3.358-.315-7.5-.315-7.5.145-7.5.315z" fill="#e0e0e0"/><path d="M463.354 481.274h1.208a36.383 36.383 0 1172.766 0h1.208a37.592 37.592 0 10-75.183 0z" fill="#ebebeb"/><path d="M532.296 483.141a5.636 5.636 0 105.637-5.637 5.637 5.637 0 00-5.637 5.637zM458.039 482.363a5.636 5.636 0 105.637-5.636 5.637 5.637 0 00-5.637 5.636z" fill="#e0e0e0"/><path d="M463.716 471.992c0 .174 16.358.315 36.532.315s36.537-.141 36.537-.315-16.355-.315-36.537-.315-36.532.141-36.532.315z" fill="#ebebeb"/><g><path d="M566.139 268.128v75.414a17.908 17.908 0 01-17.908 17.909H490.12l7.894-93.322a7.981 7.981 0 017.981-7.981h52.162a7.981 7.981 0 017.982 7.98z" fill="#ebebeb"/></g><g><path d="M545.599 360.91c-.009-.007.036-.082.133-.22l.426-.619c.386-.533.935-1.335 1.6-2.394a39.666 39.666 0 004.329-9.605 39 39 0 001.44-7.132 72.962 72.962 0 00.229-8.375l-.024-19.277.089-35.025c.041-4.437.074-8.048.1-10.613l.057-2.886a6.231 6.231 0 01.062-1.006 6.332 6.332 0 01.061 1.006l.057 2.886c.024 2.565.056 6.176.1 10.613l.089 35.025-.024 19.277a71.635 71.635 0 01-.288 8.431 38.686 38.686 0 01-1.53 7.2 37.84 37.84 0 01-4.542 9.607c-.7 1.047-1.28 1.829-1.7 2.34a5.342 5.342 0 01-.664.767z" fill="#e0e0e0"/></g><g><path d="M513.957 360.951a10.647 10.647 0 011.845-.106l5.037-.061c4.252-.025 10.128-.018 16.617.029 3.243.032 6.341.036 9.145.108a29.493 29.493 0 017.46.814 11.554 11.554 0 014.487 2.35 7.651 7.651 0 01.975.975c.206.239.305.37.29.384-.053.051-.474-.466-1.414-1.175a12.1 12.1 0 00-4.449-2.118 30.906 30.906 0 00-7.36-.669l-9.147-.06a1336.22 1336.22 0 01-16.6-.208l-5.033-.132a10.891 10.891 0 01-1.853-.131z" fill="#e0e0e0"/></g></g><g><path fill="#e0e0e0" d="M191.839 369.547h8.55v102.445h-8.55z"/><path d="M256.614 374.184H134.321a13.274 13.274 0 0113.274-13.274h95.745a13.274 13.274 0 0113.275 13.274z" fill="#ebebeb"/><path d="M133.826 374.183a13.785 13.785 0 0113.768-13.772h95.745a13.785 13.785 0 0113.773 13.772v.5H133.826zm109.513-12.78h-95.745a12.794 12.794 0 00-12.769 12.285h121.287a12.794 12.794 0 00-12.773-12.285z" fill="#e0e0e0"/><path d="M204.42 374.446c0 .174-3.36.315-7.5.315s-7.5-.141-7.5-.315 3.358-.315 7.5-.315 7.5.145 7.5.315z" fill="#e0e0e0"/><path d="M233.515 481.274h-1.208a36.383 36.383 0 10-72.766 0h-1.208a37.592 37.592 0 1175.183 0z" fill="#ebebeb"/><path d="M164.572 483.141a5.636 5.636 0 11-5.637-5.637 5.637 5.637 0 015.637 5.637zM238.829 482.363a5.636 5.636 0 11-5.637-5.636 5.637 5.637 0 015.637 5.636z" fill="#e0e0e0"/><path d="M233.152 471.992c0 .174-16.358.315-36.532.315s-36.537-.141-36.537-.315 16.355-.315 36.537-.315 36.532.141 36.532.315zM130.726 268.128v75.414a17.908 17.908 0 0017.908 17.908h58.111l-7.894-93.322a7.981 7.981 0 00-7.981-7.981h-52.16a7.981 7.981 0 00-7.984 7.981z" fill="#ebebeb"/><g><path d="M151.269 360.91c.009-.007-.037-.082-.133-.22l-.426-.619a44.743 44.743 0 01-1.6-2.394 39.667 39.667 0 01-4.329-9.605 39 39 0 01-1.44-7.132 72.965 72.965 0 01-.229-8.375l.024-19.277-.089-35.025c-.041-4.437-.074-8.048-.1-10.613l-.057-2.886a6.229 6.229 0 00-.062-1.006 6.165 6.165 0 00-.061 1.006l-.057 2.886c-.024 2.565-.056 6.176-.1 10.613l-.089 35.025.024 19.277a71.649 71.649 0 00.288 8.431 38.682 38.682 0 001.53 7.2 37.838 37.838 0 004.542 9.607c.7 1.047 1.28 1.829 1.7 2.34a5.263 5.263 0 00.664.767z" fill="#e0e0e0"/></g><g><path d="M182.909 360.951a10.647 10.647 0 00-1.845-.106l-5.037-.061c-4.252-.025-10.128-.018-16.617.029-3.243.032-6.341.036-9.145.108a29.493 29.493 0 00-7.46.814 11.546 11.546 0 00-4.487 2.35 7.578 7.578 0 00-.975.975c-.206.239-.305.37-.29.384.053.051.474-.466 1.414-1.175a12.087 12.087 0 014.449-2.118 30.906 30.906 0 017.36-.669l9.147-.06a1336.22 1336.22 0 0016.6-.208l5.033-.132a10.892 10.892 0 001.853-.131z" fill="#e0e0e0"/></g></g><g><path fill="#ebebeb" d="M0 311.291h327.852v10.099H0z"/><path d="M28.357 320.148L3.796 488.777h5.271l30.3-167.387zM304.7 319.081l25.92 169.7h-5.271L293.688 320.62z" fill="#ebebeb"/><path d="M12.449 270.575v22.741h-3.8v2.468h3.8v15.22h70.972v-13.849h-5.257v-3.017h5.257v-4.524h2.337v-2.057h-2.774v-16.982z" fill="#f5f5f5"/><path d="M64.575 270.641v40.109h18.848v-13.849h-5.257v-2.763l5.257.094v-4.525h2.382l-.046-2.339-2.775-.068v-16.725z" fill="#e0e0e0"/><path d="M65.918 295.457c0 .139-12.843.251-28.681.251s-28.682-.112-28.682-.251 12.839-.252 28.684-.252 28.679.112 28.679.252zM65.918 293.147c0 .139-12.843.252-28.681.252s-28.682-.116-28.682-.252 12.839-.252 28.684-.252 28.679.113 28.679.252zM69.602 286.93c0 .14-12.843.252-28.681.252s-28.684-.112-28.684-.252 12.841-.251 28.684-.251 28.681.112 28.681.251zM69.957 303.872c0 .139-12.843.251-28.681.251s-28.684-.112-28.684-.251 12.839-.252 28.684-.252 28.681.111 28.681.252z" fill="#e0e0e0"/><g><path fill="#f5f5f5" d="M76.301 255.347h12.376v14.713H76.301z"/><path fill="#e0e0e0" d="M20.796 254.388h55.932v16.598H20.796z"/><path d="M89.052 255.784H75.228v-1.4h13.824a.7.7 0 01.7.7.7.7 0 01-.7.7zM89.052 270.986H75.228v-1.4h13.824a.7.7 0 01.7.7.7.7 0 01-.7.7z" fill="#e0e0e0"/><path fill="#ebebeb" d="M65.722 254.388h6.608v16.598h-6.608zM26.115 254.572h6.608v16.598h-6.608z"/><path d="M88.678 257.781c0 .041-2.679.074-5.983.074s-5.982-.033-5.982-.074 2.677-.073 5.982-.073 5.983.029 5.983.073zM88.678 259.987c0 .041-2.679.074-5.983.074s-5.982-.033-5.982-.074 2.677-.073 5.982-.073 5.983.032 5.983.073zM88.678 262.704c0 .041-2.679.074-5.983.074s-5.982-.033-5.982-.074 2.677-.073 5.982-.073 5.983.032 5.983.073zM88.678 265.42c0 .041-2.679.074-5.983.074s-5.982-.033-5.982-.074 2.677-.073 5.982-.073 5.983.033 5.983.073zM88.678 268.137c0 .041-2.679.074-5.983.074s-5.982-.033-5.982-.074 2.677-.073 5.982-.073 5.983.033 5.983.073z" fill="#e0e0e0"/><path fill="#ebebeb" d="M37.006 261.21h25.163v2.989H37.006z"/></g><g><path d="M64.98 238.275l6.96 16.347h-4.48l-3.092-8.731z" fill="#e0e0e0"/><path d="M43.608 223.479l-2.689 31.141h22.748l2.5-31.141z" fill="#ebebeb"/><path d="M45.83 225.951l-2.354 26.084 17.075.224 2.307-26.459z" fill="#fafafa"/><path d="M49.454 229.562l-1.34 17.949h9.108l1.607-17.949z" fill="#e0e0e0"/></g></g><g transform="translate(579.875 38.097)"><rect width="127.64" height="79.109" rx="7.867" fill="#e0e0e0"/><g transform="translate(50.069 26.88)"><circle cx="9.723" cy="9.723" r="9.723" transform="rotate(-45 16.598 6.875)" fill="#ebebeb"/><path d="M11.407 16.595v-5.737a.365.365 0 01.544-.318l5.128 2.891a.365.365 0 010 .637l-5.127 2.847a.365.365 0 01-.545-.32z" fill="#fff"/></g><path d="M7.297 70.021v.206h-.962v-.163l.518-.491c.127-.121.149-.2.149-.27 0-.119-.082-.188-.242-.188a.366.366 0 00-.305.135l-.17-.13a.6.6 0 01.5-.216c.283 0 .466.143.466.375a.52.52 0 01-.216.411l-.349.332zM7.426 69.374a.153.153 0 11.306 0 .153.153 0 11-.306 0zm0 .711a.153.153 0 11.306 0 .153.153 0 11-.306 0zM8.339 68.923v1.3h-.242v-1.1h-.275v-.2zM9.758 69.931h-.231v.3h-.235v-.3h-.715v-.169l.643-.839h.259l-.6.8h.426v-.262h.227v.262h.231zM11.887 69.373h98.854v.523H11.887z" fill="#fff"/><path fill="#ebebeb" d="M11.812 68.827h30.892v1.396H11.812z"/><path d="M43.702 69.635a1.5 1.5 0 11-1.5-1.5 1.5 1.5 0 011.5 1.5z" fill="#ebebeb"/><path d="M113.236 69.617a.434.434 0 01-.477.422c-.356 0-.565-.229-.565-.648a.618.618 0 01.64-.693.65.65 0 01.343.084l-.089.183a.439.439 0 00-.248-.064c-.247 0-.4.153-.4.449a.442.442 0 01.348-.135.407.407 0 01.448.402zm-.235.011c0-.137-.1-.221-.261-.221a.237.237 0 00-.264.223c0 .123.1.22.271.22a.226.226 0 00.25-.218zM113.343 69.172a.151.151 0 01.154-.154.149.149 0 01.152.154.151.151 0 01-.152.155.153.153 0 01-.154-.155zm0 .711a.151.151 0 01.154-.155.149.149 0 01.152.155.151.151 0 01-.152.154.153.153 0 01-.154-.154zM113.808 69.373c0-.43.236-.671.545-.671s.545.241.545.671-.235.67-.545.67-.545-.242-.545-.67zm.847 0c0-.315-.123-.46-.3-.46s-.3.145-.3.46.123.459.3.459.3-.145.3-.459zM115.06 69.373c0-.43.235-.671.544-.671s.546.241.546.671-.236.67-.546.67-.544-.242-.544-.67zm.846 0c0-.315-.123-.46-.3-.46s-.3.145-.3.46.122.459.3.459.3-.145.3-.459zM118.291 69.292h-.523v-1.336h1.333v.523h-.81zM119.102 71.024h-1.336v-1.333h.523v.81h.812zM121.207 71.025h-1.333v-.523h.81v-.812h.523zM121.209 69.289h-.523v-.81h-.812v-.523h1.336zM104.35 7.691a20.791 20.791 0 012.689-.147h.144v.15l.035 3.416v.441l-.314-.313c-.113-.115-.236-.236-.358-.358l-.911-.915.245.007-1.43 1.257-.27.237.005-.355c.014-1.058.051-1.932.08-2.526a4.019 4.019 0 01.078-.89 7.12 7.12 0 01.078.993c.03.6.065 1.435.08 2.424l-.265-.119 1.4-1.286.125-.115.121.121.915.911.358.358-.31.129.035-3.416.146.147a26.276 26.276 0 01-2.676-.151z" fill="#fff"/><g><path d="M114.237 8.117a9.205 9.205 0 01-.651.832c-.441.546-1.1 1.364-1.908 2.274l-.3.338v-.454c0-.535-.005-1.1-.008-1.694v-.166l.055.131-1.198-1.16-.311-.3.431.007c1.181.017 2.2.078 2.873.119a9.09 9.09 0 011.012.076c-.035.017-.477.03-1.174.064s-1.629.083-2.713.085l.12-.3 1.205 1.146.055.053v.241c0 .59-.005 1.159-.008 1.694l-.3-.117c.755-.825 1.439-1.5 1.951-2.016s.833-.837.869-.853z" fill="#fff"/></g><g><path d="M114.237 8.116c.04.093-.531.421-1.273.733s-1.376.489-1.416.4.532-.42 1.275-.731 1.376-.493 1.414-.402z" fill="#fff"/></g><g><path d="M119.057 7.691c0-.019.171-.061.483-.009a1.894 1.894 0 011.134.683 2.023 2.023 0 01.329 1.936 2.062 2.062 0 01-3.891 0 2.021 2.021 0 01.33-1.936 1.892 1.892 0 011.138-.679c.311-.052.483-.01.481.009s-.169.039-.447.128a1.911 1.911 0 00-.964.7 1.784 1.784 0 00-.219 1.666 1.742 1.742 0 003.262 0 1.787 1.787 0 00-.22-1.666 1.908 1.908 0 00-.963-.7c-.283-.093-.453-.101-.453-.132z" fill="#fff"/></g><g><path d="M119.705 10.405c-.07.071-.489-.234-.939-.682l-.054-.053v-.087c0-.639.081-1.158.182-1.158s.182.519.182 1.158v.011l-.053-.128c.448.45.753.868.682.939z" fill="#fff"/></g><g><path d="M72.825 10.281c0 .1-13.118.182-29.3.182s-29.3-.082-29.3-.182 13.116-.182 29.3-.182 29.3.082 29.3.182z" fill="#fff"/></g><g><path d="M11.464 10.28a2.311 2.311 0 11-2.311-2.311 2.311 2.311 0 012.311 2.311z" fill="#fff"/></g></g><g><path d="M713.798 488.777c0 .159-159.707.286-356.671.286-197.031 0-356.7-.128-356.7-.286s159.673-.286 356.7-.286c196.963 0 356.671.128 356.671.286z" fill="#263238"/></g><g><path d="M23.105 39.474v97.966h99.843l-14.431-15.943V39.474z" fill="#fff"/><path d="M23.105 39.474s.509-.017 1.521-.025l4.5-.028 17.2-.061 62.194-.123h.237v.238l.047 82.023-.074-.191 14.434 15.942.434.479h-15.08l.286-.286-.286.286-85.413-.036h-.249v-.25c.053-29.382.1-53.895.127-71.08.029-8.554.051-15.281.065-19.887l.03-5.224.014-1.333c0-.3.013-.442.013-.442s.01.163.014.469l.014 1.359.029 5.273.065 19.943.128 70.921-.25-.249 85.413-.037-.286.286.286-.286h14.431l-.213.479-14.429-15.945-.074-.082v-.109c.018-30.288.033-58.326.046-82.023l.238.238-62.042-.124-17.255-.061-4.545-.028c-1.027-.008-1.57-.026-1.57-.026z" fill="#263238"/><path d="M95.732 132.934a1.87 1.87 0 111.564-.846l.3.684a.085.085 0 01-.019.095.086.086 0 01-.095.019l-.673-.294a1.85 1.85 0 01-1.077.342zm0-3.568a1.7 1.7 0 100 3.4 1.678 1.678 0 001.015-.339.086.086 0 01.086-.01l.517.226-.23-.525a.085.085 0 01.009-.084 1.7 1.7 0 00-1.4-2.664zM102.405 133.293a.09.09 0 01-.054-.018l-1.474-1.051-1.474 1.051a.093.093 0 01-.1.008.1.1 0 01-.051-.083v-3.914a.093.093 0 01.094-.093h3.056a.093.093 0 01.094.093v3.914a.1.1 0 01-.051.083.1.1 0 01-.04.01zm-1.528-1.276a.09.09 0 01.054.018l1.381.984v-3.638h-2.871v3.639l1.381-.984a.088.088 0 01.055-.019zM39.593 48.556v1.753h-.332l-.874-1.067v1.064h-.4v-1.75h.336l.871 1.064v-1.064zM39.935 48.556a.223.223 0 01.243-.217.219.219 0 01.242.209.244.244 0 01-.486.008zm.047.405h.391v1.347h-.391zM40.637 49.636a.7.7 0 01.75-.694.62.62 0 01.6.344l-.3.162a.335.335 0 00-.3-.185.373.373 0 000 .746.331.331 0 00.3-.185l.3.165a.625.625 0 01-.6.34.7.7 0 01-.75-.693zM42.784 49.781l-.187.185v.343h-.391v-1.858h.391v1.051l.571-.541h.465l-.561.572.611.776h-.473zM45.227 49.538v.771h-.391v-.711c0-.218-.1-.318-.273-.318s-.323.115-.323.364v.665h-.39v-1.347h.372v.158a.594.594 0 01.446-.177.528.528 0 01.559.595zM46.771 49.54v.769h-.366v-.167a.441.441 0 01-.41.187c-.315 0-.5-.175-.5-.408s.167-.4.578-.4h.311c0-.167-.1-.265-.311-.265a.64.64 0 00-.388.126l-.141-.273a1.043 1.043 0 01.582-.163c.407-.004.645.187.645.594zm-.39.344v-.138h-.268c-.183 0-.241.067-.241.158s.084.163.22.163a.289.289 0 00.289-.183zM49.401 49.538v.771h-.387v-.711c0-.218-.1-.318-.256-.318-.175 0-.3.112-.3.354v.675h-.39v-.711c0-.218-.093-.318-.256-.318s-.3.112-.3.354v.675h-.391v-1.347h.373v.155a.547.547 0 01.423-.175.5.5 0 01.443.22.606.606 0 01.486-.22.522.522 0 01.555.596zM51.08 49.746h-1.019a.359.359 0 00.386.27.453.453 0 00.337-.13l.208.225a.786.786 0 01-1.324-.475.686.686 0 01.718-.694.667.667 0 01.7.7c.001.028-.004.071-.006.104zm-1.025-.228h.663a.336.336 0 00-.663 0z" fill="#263238"/><g><path d="M97.684 48.961a.51.51 0 11-.509-.509.509.509 0 01.509.509zM99.765 48.961a.51.51 0 11-.51-.509.51.51 0 01.51.509zM101.845 48.961a.51.51 0 11-.51-.509.51.51 0 01.51.509z" fill="#263238"/></g><g><path d="M90.585 132.932a.087.087 0 01-.046-.013c-.084-.053-2.06-1.3-2.06-2.382a1.263 1.263 0 011.261-1.261 1.248 1.248 0 01.845.327 1.248 1.248 0 01.845-.327 1.263 1.263 0 011.261 1.261c0 1.081-1.976 2.329-2.061 2.382a.083.083 0 01-.045.013z" fill="#ff725e"/></g><g><path fill="#e0e0e0" d="M28.242 56.519h75.169v68.734H28.242z"/><path d="M103.411 125.253s-.012-.441-.018-1.276-.011-2.077-.019-3.684l-.042-13.957-.083-49.819.161.161-75.156.029h-.007l.188-.188-.023 68.735-.165-.166 54.385.084 15.325.044 4.054.02 1.044.009c.236 0 .36.01.36.01s-.111.006-.342.009l-1.027.01-4.022.019-15.286.044-54.492.084h-.166v-.165l-.023-68.735v-.188h.2l75.162.028h.161v.161l-.083 49.921-.042 13.92-.019 3.653a31.972 31.972 0 01-.025 1.237z" fill="#263238"/></g><g><path d="M35.784 48.771a3.862 3.862 0 11-3.863-3.866 3.862 3.862 0 013.863 3.866z" fill="#f5f5f5"/><circle cx="1.26" cy="1.26" r="1.26" fill="#e0e0e0" transform="translate(30.662 46.645)"/><path d="M34.372 51.73a2.451 2.451 0 00-4.9 0 2.939 2.939 0 002.451.9 3.577 3.577 0 002.449-.9z" fill="#e0e0e0"/></g><g><path d="M58.323 76.367L56.244 86.76h-.89l-4.974-8.611-1.725 8.611h-1.081l2.081-10.393h.891l4.973 8.611 1.722-8.611zM62.613 77.318l-.741 3.7h5.388l-.177.935h-5.389l-.772 3.86h6.247l-.194.951h-7.334l2.079-10.393h7.125l-.193.951zM85.772 76.367L80.19 86.76h-1.158l-1.277-8.819-4.841 8.819h-1.159l-1.423-10.393h1.084l1.233 8.953 4.884-8.953h1.022l1.262 8.967 4.855-8.967zM50.684 97.951c0 2.316-1.736 3.755-4.512 3.755h-2.094v2.865h-2.4V94.183h4.5c2.77 0 4.506 1.44 4.506 3.768zm-2.435 0c0-1.143-.741-1.811-2.212-1.811h-1.96v3.611h1.96c1.474 0 2.213-.669 2.213-1.8zM51.886 99.378a5.7 5.7 0 115.687 5.375 5.379 5.379 0 01-5.687-5.375zm8.938 0a3.252 3.252 0 10-3.251 3.326 3.17 3.17 0 003.251-3.326zM64.253 103.55l.816-1.811a6.117 6.117 0 003.429 1.084c1.426 0 2-.476 2-1.114 0-1.944-6.042-.608-6.042-4.468 0-1.767 1.426-3.237 4.38-3.237a6.977 6.977 0 013.608.92l-.743 1.826a5.877 5.877 0 00-2.88-.816c-1.426 0-1.975.534-1.975 1.188 0 1.916 6.042.594 6.042 4.409 0 1.737-1.44 3.222-4.41 3.222a7.407 7.407 0 01-4.225-1.203zM76.545 96.143h-3.324v-1.96h9.056v1.96h-3.326v8.432h-2.4zM83.357 103.342a1.429 1.429 0 012.85 0 1.427 1.427 0 01-2.85 0zm.044-9.159h2.762l-.46 6.785h-1.841zM87.652 103.342a1.429 1.429 0 012.85 0 1.427 1.427 0 01-2.85 0zm.045-9.159h2.755l-.459 6.785h-1.841z" fill="#fff"/></g><g><path d="M76.083 130.966c2.085-.032-10.061.163-23.315.188-12.88.024-23.318-.085-23.318-.188s10.438-.189 23.318-.189 23.215.191 23.315.189z" fill="#263238"/></g></g><g><path d="M707.7 192.298s-.011-.346-.018-1-.01-1.633-.019-2.9l-.042-11.015-.086-39.741.164.165-78.409.04h-.007l.2-.2-.018 54.654-.186-.185 56.511.091 16.125.05 4.289.023 1.109.011c.25 0 .382.01.382.01s-.118.008-.36.011l-1.088.011-4.252.023-16.082.05-56.634.091h-.179v-.187l-.018-54.654v-.205h.21l78.409.04h.165v.164l-.086 39.844-.043 10.978-.018 2.865c-.004.657-.019.966-.019.966z" fill="#feab45"/><circle cx="11.381" cy="11.381" r="11.381" transform="rotate(-77.47 435.752 -321.433)" fill="#feab45"/><path d="M665.691 164.971v-5.127l4.44 2.564 4.44 2.564-4.44 2.564-4.44 2.564z" fill="#fff"/></g><g><path d="M514.415 160.94H404.463V73.999l110.015-.207z" fill="#fafafa"/><path d="M514.415 160.941l-.052-87.149.119.095-109.847.223h-.169l.137-.111-.019 86.942-.118-.1 109.951.1-109.951.1h-.119v-.1l-.019-86.942v-.11h.31l109.846-.193h.119v.1c-.114 52.265-.186 86.333-.188 87.145z" fill="#263238"/><path d="M507.023 152.778s-.128.01-.378.015l-1.11.014-4.267.029-15.694.047-51.777.044-22.329-.007h-.143v-.143l.054-36.551.042-10.56.023-2.819c0-.313.009-.553.012-.726s.012-.247.012-.247.009.083.012.247.008.413.012.726l.024 2.819.041 10.56.054 36.551-.143-.143 22.329-.008 51.777.044 15.694.048 4.267.028 1.11.015c.251.006.378.017.378.017z" fill="#263238"/><path fill="#feab45" d="M419.235 140.202h9.652v9.652h-9.652zM433.386 133.301h9.652v16.553h-9.652zM447.593 125.463h9.652v24.391h-9.652zM461.365 116.737h9.652v33.117h-9.652zM475.459 105.565h9.652v44.289h-9.652zM489.447 97.044h9.652v52.351h-9.652z"/><path fill="#fff" d="M433.386 133.301h9.652v16.553h-9.652zM489.447 97.044h9.652v52.351h-9.652z" opacity=".5"/><path d="M419.235 130.305a.734.734 0 01.122-.095l.377-.26 1.47-.984 5.532-3.646 19.154-12.518.221-.145v4.587l-.229-.122 7.547-5.062 26.636-17.8 8.09-5.364 2.209-1.446.578-.369a1.323 1.323 0 01.2-.118 1.267 1.267 0 01-.185.143l-.562.394-2.177 1.493-8.039 5.443-26.587 17.87-7.552 5.056-.229.154v-.277-4.321l.221.12-19.212 12.429-5.578 3.577-1.5.944-.389.239a.805.805 0 01-.118.078z" fill="#263238"/><path d="M491.151 91.051a4.972 4.972 0 01-.1-1.19 94.668 94.668 0 01-.047-2.917l.15.15h-.369c-1.236 0-2.355-.017-3.165-.044a5.665 5.665 0 01-1.311-.106 5.694 5.694 0 011.311-.107c.81-.026 1.929-.044 3.165-.044h.52v.15c0 1.151-.021 2.178-.047 2.917a4.906 4.906 0 01-.107 1.191zM456.908 85.347c0 .084-8.442.151-18.852.151s-18.854-.067-18.854-.151 8.44-.15 18.854-.15 18.852.067 18.852.15zM433.046 88.784c0 .083-3.165.15-7.069.15s-7.07-.067-7.07-.15 3.165-.151 7.07-.151 7.069.067 7.069.151zM440.559 88.784a24.855 24.855 0 01-5.45 0 24.674 24.674 0 015.45 0z" fill="#263238"/><path fill="#fff" d="M461.365 116.737h9.652v33.117h-9.652z" opacity=".3"/></g><g><path d="M299.98 140.47l-6.343-11.184a29.957 29.957 0 10-7.175 7.98l-.01.013z" fill="#fafafa"/><path d="M299.979 140.473l-13.548-3.1-.139-.031.087-.115.01-.013.129.129a30.607 30.607 0 01-6.15 3.709 30.043 30.043 0 01-8.2 2.342 26.965 26.965 0 01-4.736.239c-.815-.046-1.645-.066-2.481-.135l-2.528-.382a30.178 30.178 0 01-18.694-12 29.833 29.833 0 01-5.055-11.556 30.5 30.5 0 01.354-13.308 29.512 29.512 0 016.411-12.3l1.222-1.344c.4-.452.88-.825 1.315-1.239.456-.392.867-.836 1.356-1.183l1.437-1.073a12.755 12.755 0 011.486-.984l1.518-.921 1.589-.772a13.943 13.943 0 011.6-.713 30.51 30.51 0 0113.409-2.06 29.491 29.491 0 0112.307 3.638 30.356 30.356 0 0114.2 17.472 32.353 32.353 0 011.3 9.73 29.743 29.743 0 01-1.465 8.4 30.259 30.259 0 01-3 6.437v-.089l6.266 11.222-6.42-11.136-.026-.045.029-.045a30.321 30.321 0 002.942-6.411 29.575 29.575 0 001.418-8.339 32.156 32.156 0 00-1.32-9.638 30.082 30.082 0 00-14.088-17.26 29.2 29.2 0 00-12.17-3.579 30.2 30.2 0 00-13.246 2.045 13.819 13.819 0 00-1.584.705l-1.57.763-1.5.91a12.589 12.589 0 00-1.468.972l-1.416 1.058c-.484.343-.889.782-1.34 1.169-.429.41-.9.778-1.3 1.224l-1.207 1.329a29.18 29.18 0 00-6.335 12.15 30.176 30.176 0 00-.359 13.148 29.524 29.524 0 004.983 11.428 29.917 29.917 0 0018.473 11.912l2.5.386c.828.073 1.65.094 2.458.143a26.854 26.854 0 004.7-.221 29.909 29.909 0 008.145-2.289 30.646 30.646 0 006.129-3.65l.557-.426-.427.555-.011.013-.052-.145z" fill="#263238"/><path d="M259.733 113.619a3.038 3.038 0 11-3.038-3.038 3.038 3.038 0 013.038 3.038zM271.887 113.619a3.038 3.038 0 11-3.037-3.038 3.037 3.037 0 013.037 3.038zM284.016 112.1a3.038 3.038 0 11-4.15-1.112 3.037 3.037 0 014.15 1.112z" fill="#263238"/></g><g><path d="M172.383 447.775l-6.341 21.537s21.45 13.177 20.7 17.261l-45.422-9.841 8.4-33.925z" fill="#feab45"/><path d="M152.46 464.438a1.84 1.84 0 00-1.78 1.687 1.766 1.766 0 001.784 1.649c.935-.018 1.975-.932 1.875-1.8a1.871 1.871 0 00-2.06-1.524" fill="#e0e0e0"/><path d="M141.316 476.729l.991-3.389 43.178 10.7s1.815 1.255 1.253 2.527z" fill="#fff" opacity=".6"/><path d="M166.833 469.252c-.059.2-1.192.057-2.451.484-1.271.394-2.06 1.164-2.243 1.039-.195-.085.448-1.244 1.982-1.734s2.808.032 2.712.211zM171.134 472.114c0 .209-1.049.351-2.023 1.06-1 .681-1.426 1.581-1.644 1.524-.217-.012-.065-1.251 1.164-2.11s2.548-.673 2.503-.474zM172.498 477.991c-.213 0-.261-1.095.595-2.1s2-1.228 2.056-1.036c.083.2-.744.654-1.432 1.489-.71.819-.993 1.676-1.219 1.647zM167.696 464.197c-.141.167-1.086-.337-2.36-.53-1.269-.217-2.344-.038-2.415-.239-.09-.176 1.054-.733 2.551-.486s2.37 1.117 2.224 1.255z" fill="#263238"/><path d="M156.589 453.508l-.708 22.3s24.2 8.123 24.5 12.257l-46.658.347-.433-34.793z" fill="#feab45"/><path d="M141.439 474.044a1.762 1.762 0 00-1.3 2.027 1.825 1.825 0 003.521-.941 1.945 1.945 0 00-2.391-1.031" fill="#e0e0e0"/><path d="M133.719 488.416l.1-3.509 44.7.979s2.083.823 1.857 2.182z" fill="#fff" opacity=".6"/><path d="M156.635 475.586c-.007.212-1.145.316-2.262 1-1.136.661-1.706 1.582-1.917 1.5-.21-.04.12-1.307 1.488-2.117s2.738-.577 2.691-.383zM161.542 477.428c.054.2-.931.571-1.7 1.471-.8.879-.985 1.847-1.212 1.84-.214.035-.38-1.2.6-2.3s2.305-1.213 2.312-1.011zM164.359 482.842c-.206.046-.531-1.007.046-2.169s1.639-1.63 1.737-1.455c.13.173-.557.8-1.016 1.759-.482.95-.54 1.843-.767 1.865zM156.188 470.488c-.095.193-1.142-.091-2.429 0-1.289.066-2.288.475-2.408.294-.133-.152.839-.941 2.357-1.029s2.591.567 2.48.735z" fill="#263238"/><g><path d="M155.812 469.43a8.787 8.787 0 00-.11 1.744 224.047 224.047 0 00-.048 4.639v.142l.149.053c2.408.856 5.351 1.91 8.485 3.128 4.077 1.575 7.687 3.169 10.258 4.4l3.027 1.489a5.815 5.815 0 001.134.516 5.461 5.461 0 00-1.023-.686 59.359 59.359 0 00-2.952-1.637 106.494 106.494 0 00-10.23-4.55 176.261 176.261 0 00-8.542-3.05l.148.195c-.045-1.931-.1-3.525-.145-4.638a8.647 8.647 0 00-.151-1.745z" fill="#263238"/></g><g><path d="M125.243 289.901l.221 14.417 6.154 68.585s-2.665 33.354-4.327 52.184c-1.442 16.353 1.762 44.747 1.762 44.747l29.694-.435 9.172-94.988 5.689-59.24 11.06-27.086z" fill="#263238"/><path d="M199.889 287.523l-.668 96.969-28.943 72.16-1.314 4.339-17.802-3.719 10.594-169.91z" fill="#263238"/><path d="M173.538 315.88a2.079 2.079 0 01.018.4c0 .289 0 .675-.008 1.169l-.08 4.492c-.059 3.9-.274 9.544-.595 16.516-.682 13.939-2.059 33.182-4.342 54.37-2.242 21.2-4.782 40.335-6.641 54.181l-2.247 16.391-.637 4.454-.18 1.157a2.14 2.14 0 01-.08.392 2.211 2.211 0 01.024-.4l.124-1.162.534-4.465 2.072-16.412c1.759-13.856 4.238-33 6.479-54.187 2.281-21.18 3.719-40.408 4.5-54.337.37-6.966.644-12.6.771-16.5.078-1.928.141-3.435.184-4.489l.062-1.167a2.324 2.324 0 01.042-.403z" fill="#455a64"/></g><g><path d="M171.728 310.275c-.012 0-.024.095.1.2a.661.661 0 00.681.021 1.137 1.137 0 00.48-.879l.175-1.2c.247-1.784.55-4.25.85-6.978s.542-5.2.69-6.992a15.252 15.252 0 00.126-2.912 15.407 15.407 0 00-.512 2.875c-.247 1.782-.551 4.249-.852 6.978s-.542 5.2-.69 6.992c-.108.878-.007 1.694-.383 1.952a.558.558 0 01-.5.061c-.114-.056-.144-.126-.165-.118z" fill="#455a64"/></g><g><path d="M168.382 292.865c0-.029-.16-.077-.453-.029a1.849 1.849 0 00-1.056.612 1.627 1.627 0 00-.318 1.716 2.135 2.135 0 001.877 1.229 2.027 2.027 0 001.9-1.2 1.626 1.626 0 00-.186-1.73 1.565 1.565 0 00-1.08-.592c-.305-.018-.455.072-.445.1a1.752 1.752 0 011.2.7 1.3 1.3 0 01.043 1.335 1.564 1.564 0 01-1.416.879 1.684 1.684 0 01-1.427-.9 1.293 1.293 0 01.163-1.321 2.607 2.607 0 011.198-.799z" fill="#455a64"/></g><g><path d="M186.622 294.343c.142.042.565-.839.751-2.006s.067-2.124-.082-2.122-.279.923-.463 2.047-.351 2.039-.206 2.081z" fill="#455a64"/></g><g><path d="M183.348 294.383a4.77 4.77 0 00.7-2.126 4.631 4.631 0 00.159-2.219 4.772 4.772 0 00-.7 2.127 4.627 4.627 0 00-.159 2.218z" fill="#455a64"/></g><g><path d="M150.42 294.731c.149.03.42-.611.6-1.429s.214-1.506.065-1.535-.42.611-.6 1.43-.215 1.506-.065 1.534z" fill="#455a64"/></g><g><path d="M147.199 295.813a5.692 5.692 0 00.885-2.743 5.536 5.536 0 00-.069-2.863 12 12 0 00-.477 2.795 11.873 11.873 0 00-.339 2.811z" fill="#455a64"/></g><g><path d="M124.989 306.261a2.724 2.724 0 00.9.317 8.821 8.821 0 002.607.216 12.189 12.189 0 007.653-3.483 16.24 16.24 0 004-7.037 19.117 19.117 0 00.533-2.362 2.646 2.646 0 00.069-.885c-.09-.017-.327 1.224-.977 3.145a17.4 17.4 0 01-4.03 6.788 12.364 12.364 0 01-7.283 3.473 15.585 15.585 0 01-3.472-.172z" fill="#455a64"/></g><g><path d="M174.137 99.85a5.114 5.114 0 001.551-10.057 5.32 5.32 0 00-5.179-8.67 6.366 6.366 0 00-9.9-4.619 7.16 7.16 0 00-8.81.364 5.092 5.092 0 00-3.956 8.9" fill="#263238"/><path d="M174.924 100.52a21.7 21.7 0 00-22.79-18.615l-1.123.067c-12.051 1.435-17.563 12.473-15.8 24.479l4.18 40.165.316 11.968 28.43 6.579-.937-22.948s11.516-2.508 10.959-14.141c-.265-5.617-1.761-17.141-3.235-27.554z" fill="#9f7362"/><path d="M167.298 142.194a28.255 28.255 0 01-15.5-3.54s4.087 8.149 15.622 6.4z" fill="#65463c"/><path d="M173.09 109.676a1.664 1.664 0 01-1.5 1.771 1.591 1.591 0 01-1.8-1.394 1.665 1.665 0 011.5-1.773 1.593 1.593 0 011.8 1.396zM172.768 106.358c-.193.229-1.506-.627-3.293-.513-1.786.086-3.042 1.084-3.248.877-.1-.09.085-.495.63-.944a4.562 4.562 0 012.584-.971 4.39 4.39 0 012.637.679c.575.388.785.768.69.872zM156.231 111.463a1.664 1.664 0 01-1.5 1.771 1.589 1.589 0 01-1.8-1.394 1.663 1.663 0 011.5-1.771 1.592 1.592 0 011.8 1.394zM155.23 107.749c-.193.229-1.508-.626-3.294-.513-1.785.087-3.041 1.085-3.248.878-.1-.091.084-.495.631-.944a4.558 4.558 0 012.583-.972 4.385 4.385 0 012.637.68c.574.388.786.768.691.871zM162.511 120.606a11.849 11.849 0 012.87-.7c.453-.074.879-.191.937-.507a2.321 2.321 0 00-.386-1.334q-.744-1.616-1.559-3.392c-2.171-4.832-3.772-8.816-3.577-8.9s2.114 3.762 4.285 8.594q.787 1.788 1.5 3.416a2.645 2.645 0 01.345 1.776 1.15 1.15 0 01-.709.713 3.129 3.129 0 01-.769.154 11.743 11.743 0 01-2.937.18zM157.328 122.158c.29-.035.41 1.9 2.153 3.18s3.794.937 3.825 1.207c.034.121-.437.405-1.309.481a4.836 4.836 0 01-3.186-.9 4.217 4.217 0 01-1.681-2.675c-.123-.804.065-1.297.198-1.293zM155.269 100.722c-.146.5-1.944.373-4.024.752-2.089.337-3.741 1.052-4.045.633-.137-.2.13-.675.785-1.188a7.118 7.118 0 016.148-1.055c.788.264 1.198.622 1.136.858zM171.799 101.228c-.29.425-1.546.077-3.027.148-1.483.018-2.715.437-3.029.03-.139-.2.033-.617.559-1.033a4.388 4.388 0 014.88-.143c.547.385.744.792.617.998z" fill="#263238"/><path d="M173.484 95.257s-3.5-7.094-7.117-8.582c-4.373-1.8-5.922 2.974-10.04 2.086s-8.293-2.616-12.242.763c-4.324 3.7-2.057 5.975-2.025 11.15.126 20.978-3.336 27.122-5.017 17.339-.184-1.072-3.23-1.751-3.948-6.282-.932-5.877-1.592-13.042-.525-17.316.9-3.6 2.767-6.168 6.221-9.08 5.45-4.6 13.285-5.16 18.64-4.945s15.989 5.723 16.053 14.867z" fill="#263238"/><path d="M137.763 117.649a3.162 3.162 0 00-3.59-2.836c-2.156.337-4.494 1.714-4.08 6.185.733 7.932 8.545 5.56 8.538 5.331-.004-.154-.53-5.362-.868-8.68z" fill="#9f7362"/><path d="M136.631 123.507c-.037-.022-.13.11-.354.238a1.382 1.382 0 01-1.03.117c-.867-.23-1.7-1.495-1.866-2.922a4.581 4.581 0 01.2-2.013 1.6 1.6 0 01.941-1.157.7.7 0 01.85.3c.127.212.091.375.134.384.024.018.158-.149.064-.47a.887.887 0 00-.358-.468 1.052 1.052 0 00-.782-.131 1.949 1.949 0 00-1.33 1.363 4.707 4.707 0 00-.275 2.255c.2 1.594 1.154 3.014 2.332 3.239a1.485 1.485 0 001.245-.326c.232-.217.257-.397.229-.409z" fill="#65463c"/><path d="M136.992 102.246a7.564 7.564 0 003.459 1.352 2.6 2.6 0 002.766-2c.061-.559-.113-1.192.225-1.641.4-.536 1.214-.425 1.884-.394a5.082 5.082 0 005.045-3.954 2.134 2.134 0 002.872.1 11.468 11.468 0 002.025-2.446 3.275 3.275 0 012.645-1.529 7.906 7.906 0 001.752.277c1.039-.155 1.474-1.409 1.57-2.453s.145-2.262.995-2.877c.788-.572 1.867-.334 2.837-.25s2.2-.217 2.385-1.171a1.889 1.889 0 00-.442-1.42 5.155 5.155 0 00-6.193-1.582 6.988 6.988 0 00-12.9-.579 7.092 7.092 0 00-11.162 3.263 5.142 5.142 0 00-5.336 7.814 4.883 4.883 0 00-2.447 4.042c.069 1.647 1.77 3.189 3.332 2.66a2.847 2.847 0 005.086 2.538" fill="#263238"/><g><path d="M161.548 84.562a.424.424 0 01.008.145c-.006.1 0 .241-.025.427a5.046 5.046 0 01-.485 1.567 5.693 5.693 0 01-1.649 1.985 5.31 5.31 0 01-3.2 1.125l.123-.185a2.881 2.881 0 01-.026 2.2 8.206 8.206 0 01-1.243 2.036 5.94 5.94 0 01-.834.966 2.785 2.785 0 01-1.232.543 2.906 2.906 0 01-2.613-.762l.292-.1a5.969 5.969 0 01-2.279 4.277 4.364 4.364 0 01-2.558 1.014 7.851 7.851 0 01-2.605-.41l.206-.107a6.264 6.264 0 01-1.733 2.567 3.345 3.345 0 01-2.723.921 4.387 4.387 0 01-3.577-3.222l.185.073a4.1 4.1 0 01-2.707.565 4.469 4.469 0 01-1.955-.734 3.854 3.854 0 01-.946-.918 1.912 1.912 0 01-.226-.4 4.77 4.77 0 001.246 1.2 4.407 4.407 0 001.9.654 3.922 3.922 0 002.551-.578l.144-.093.041.166a4.137 4.137 0 003.382 2.981 3.028 3.028 0 002.47-.865 5.97 5.97 0 001.626-2.434l.054-.151.153.044a7.585 7.585 0 002.493.39 4.014 4.014 0 002.361-.942 5.647 5.647 0 002.157-4.03l.026-.379.265.275a2.583 2.583 0 002.308.673 2.469 2.469 0 001.092-.473 5.747 5.747 0 00.787-.9 8.028 8.028 0 001.217-1.951 2.61 2.61 0 00.053-2l-.076-.186h.2a5.124 5.124 0 003.068-1.029 5.68 5.68 0 001.645-1.884 6.181 6.181 0 00.639-2.061z" fill="#455a64"/></g></g><g><path d="M169.996 161.347s5.969 3.06 7.515 4.164 14.361 38.718 14.361 38.718l-.093 48.822 16.71 56.735-10.111 5.437-7.446-31.31-21.76-116.102z" fill="#feab45"/><path d="M136.988 140.626l-5.231 10.061-23.124 18 15.96 93.786-8.484 63.822 66.861-.707s11.057-26.8 8.841-47.122-13.123-74.575-13.123-74.575a248.492 248.492 0 00-41.7-63.265z" fill="#feab45"/><path d="M137.405 141.09l.625-4.495 26.739 21.941 3.718-6.376 1.51 9.189-.828 6.462s11.422 28.412 12.741 34.493 5.161 45.8 5.161 45.8l-22.738-62.852z" fill="#e0e0e0"/><path d="M163.824 159.135c.052.031-.44.81-1.017 2.307a16.508 16.508 0 00-1.076 6.527l.03.717-.43-.579a172.447 172.447 0 00-7.664-9.629c-3.871-4.527-7.648-8.381-10.437-11.111l-3.341-3.2a10.1 10.1 0 01-1.2-1.2 10.188 10.188 0 011.338 1.048c.837.705 2.026 1.752 3.464 3.079a136.9 136.9 0 0110.583 11.035c3 3.49 5.589 6.883 7.613 9.721l-.4.138a15.785 15.785 0 011.283-6.638 13.621 13.621 0 01.864-1.672 2.374 2.374 0 01.39-.543zM168.465 167.309a13.728 13.728 0 01-1.493-3.525 13.765 13.765 0 01-.984-3.7 27.154 27.154 0 012.476 7.227zM187.071 248.098a6.049 6.049 0 01-.285-.885l-.716-2.561-2.537-9.448c-2.1-8.032-4.988-19.048-8.174-31.218-3.129-12.19-5.959-23.221-8.022-31.263l-2.372-9.491-.619-2.587a6.022 6.022 0 01-.18-.912 5.993 5.993 0 01.285.883l.716 2.56c.611 2.279 1.475 5.494 2.537 9.446 2.1 8.032 4.988 19.05 8.175 31.225l8.022 31.26c.991 3.971 1.8 7.2 2.372 9.491q.388 1.633.618 2.588a5.825 5.825 0 01.18.912zM185.109 242.677a1.145 1.145 0 01-.175-.221l-.471-.677-1.773-2.638-6.461-9.79-21.352-32.712-.072-.109.043-.124 1.043-3.066 1.908-5.6.4.308-5.484 3.7-.271.183-.121-.3a374.473 374.473 0 00-13.34-29.842 473.407 473.407 0 00-4.382-8.535l-1.2-2.283-.3-.595a.773.773 0 01-.087-.21.859.859 0 01.129.187c.091.152.2.34.342.573l1.275 2.241c1.1 1.961 2.653 4.834 4.523 8.468 3.744 7.265 8.683 17.615 13.527 29.8l-.392-.121 5.477-3.708.661-.447-.257.757-1.906 5.6-1.044 3.066-.029-.234c8.334 12.888 15.8 24.437 21.212 32.8l6.32 9.883 1.69 2.691.427.706a1.087 1.087 0 01.14.249zM170.84 278.164a4.562 4.562 0 01-.121.587l-.419 1.775c-.4 1.634-.955 3.932-1.655 6.811l-.029.118-.124.008c-7.657.485-19.685 1.189-33.178 1.933l-.823.045-.429.023.165-.4 3.315-7.991.294.358c-.1-1.039-.036-.288-.055-.52h.091l.11-.009.221-.019.441-.037.877-.077 1.732-.153 3.368-.3 6.3-.555 10.48-.9 6.929-.559 1.862-.127a3.465 3.465 0 01.648-.012 3.484 3.484 0 01-.639.106l-1.853.215-6.916.714-10.469 1.018-6.3.6-3.367.314-1.732.159-.877.08-.442.039-.223.02-.111.01h-.102c-.028-.232.019.521-.08-.52l.3.358a4310.543 4310.543 0 00-3.3 8l-.264-.372.823-.045c13.493-.745 25.524-1.369 33.189-1.73l-.153.124 1.819-6.645c.21-.75.378-1.346.5-1.8.119-.414.185-.634.197-.644z" fill="#263238"/><path d="M186.668 244.996a10.957 10.957 0 01.444 1.705c.253 1.1.587 2.709.971 4.7.77 3.978 1.7 9.5 2.474 15.637s1.245 11.719 1.487 15.763c.122 2.023.2 3.661.227 4.793a10.978 10.978 0 01-.007 1.762 10.879 10.879 0 01-.2-1.749c-.1-1.218-.236-2.829-.4-4.777-.339-4.033-.871-9.6-1.643-15.725s-1.641-11.645-2.313-15.637c-.327-1.927-.6-3.52-.8-4.726a10.925 10.925 0 01-.24-1.746z" fill="#263238"/><g opacity=".3"><path d="M124.61 263.781c5.231 3.685 11.719 3.153 17.8 1.175q14.867-4.83 29.466-10.438c3.174-1.22 6.762-2.938 7.5-6.256-18.667 5.789-36.09 9.73-54.766 15.519z"/></g><g opacity=".3"><path d="M137.405 289.263l-1.327 2.5 32.385-1.252 1.836-9.989-1.827 6.6z"/></g><g opacity=".3"><path d="M141.081 165.165l9.839 31.253 3.957-4.069-1.575 7.182 19.206 24.443-17.182-27.628 2.471-8.61-4.982 3.693z"/></g><g><path d="M188.052 207.285l-7.139 10.07-1.528 5.779-6.327 3.634 5.661 14.522 4.112-4.09 23.811-10.295 8.133-9.908s-.972-1.509-2.164-1.377-6.638 4.487-6.638 4.487l-3.56 1.956 8.522-6.9s.108-1.076-2.041-1.172-8.674 3.792-8.674 3.792-5.811 3.643-7.125 3.537-6.1-1.248-6-2.92 2.592-3.251 2.929-5.283.907-4.545-1.972-5.832z" fill="#9f7362"/><path d="M113.043 166.401a9.657 9.657 0 00-7.529 7.165 51.112 51.112 0 00-1.5 13.26c.064 6.042 4.562 64.511 5.824 68.168 1.335 3.868 4.984 8.989 10.149 9.563 4.267.474 61.661-16.4 61.661-16.4l-9.319-23.906-32.949 2.208s-3.281-44.8-6.134-50.81c-2.257-4.758-11.912-10.744-20.203-9.248z" fill="#feab45"/><path d="M133.326 177.332c-.091.057-.812-1.212-2.366-2.938a22.641 22.641 0 00-2.991-2.752 23.011 23.011 0 00-8.951-4.182 22.763 22.763 0 00-4.031-.528c-2.321-.084-3.755.178-3.771.072a3.669 3.669 0 011-.234 8.163 8.163 0 011.191-.15 13.707 13.707 0 011.591-.069 20.484 20.484 0 014.128.423 21.834 21.834 0 019.151 4.275 20.511 20.511 0 012.973 2.894 13.7 13.7 0 01.968 1.265 8.4 8.4 0 01.65 1.01 3.761 3.761 0 01.458.914zM124.61 263.956a1.413 1.413 0 01.274-.1l.817-.25 3.18-.926 11.893-3.373 40.8-11.4-.173.347c-2.212-5.666-4.568-11.706-7-17.927l-2.328-5.976.266.171-33.178 1.821-.22.012-.022-.219-2.872-27.984-.767-7.839-.184-2.068-.039-.531a.728.728 0 010-.181.672.672 0 01.037.177l.074.527q.093.742.254 2.06l.895 7.826 3.064 27.963-.242-.207 33.173-1.895.2-.011.071.183 2.33 5.975a57398.92 57398.92 0 016.982 17.933l.1.27-.279.076-40.855 11.218-11.93 3.225-3.2.842-.831.206a1.351 1.351 0 01-.29.055z" fill="#263238"/><path d="M139.382 226.461c.133.1-1.537 2.441-3.429 5.416-1.928 2.963-3.04 5.592-3.168 5.549-.16-.044.761-2.839 2.712-5.836a27.122 27.122 0 013.885-5.129z" fill="#263238"/></g></g></g><g><path d="M330.07 476.432l7.38-83.331-25.5.74-.8 84.437 6.866 4.073z" fill="#ffbe9d"/><path d="M310.719 475.826l.015 1.236s-20.806 8.769-20.963 12.748l41.6-.919-.871-13.83a23.8 23.8 0 01-19.781.765z" fill="#17a6af"/><path d="M326.383 479.58a1.7 1.7 0 011.217 1.912 1.633 1.633 0 01-1.885 1.224 1.792 1.792 0 01-1.278-2.032 1.7 1.7 0 012.1-1.055M331.368 488.891l-.209-3.327-39.791 2.1s-1.834.846-1.6 2.146z" fill="#fff" opacity=".6"/><path d="M310.593 477.181c.011.2 1.028.273 2.042.9 1.03.6 1.564 1.473 1.749 1.388.186-.044-.143-1.251-1.384-1.994s-2.455-.479-2.407-.294zM306.269 479.081c-.042.2.845.523 1.554 1.367.734.823.929 1.748 1.13 1.735.192.028.306-1.166-.6-2.2s-2.084-1.096-2.084-.902zM303.908 484.357c.185.04.445-.982-.1-2.082s-1.5-1.522-1.587-1.352c-.111.17.519.752.953 1.663.454.901.531 1.756.734 1.771z" fill="#263238"/><g><path d="M388.408 381.4l-12.984 105.527-16.686-1.745-.917-102.894z" fill="#ffbe9d"/><path d="M358.487 478.565s11.4 8 17.437 1.7l1.329 3.221 5.549 22.793a2.982 2.982 0 01-2.07 3.542 3.486 3.486 0 01-3.4-.727c-4.635-4.347-21.6-20.418-21.315-22.494l.351-5.529a2.883 2.883 0 012.118-2.509z" fill="#17a6af"/><path d="M380.145 509.954l-24.036-25.28-.056 1.208c-.194 1.305.414 1.847 1.061 2.714 1.918 2.567 7.295 8.351 20.125 20.495a3.46 3.46 0 002.908.858zM359.994 481.226a1.652 1.652 0 01.43 2.328 2.027 2.027 0 01-2.558.409 1.742 1.742 0 01-.441-2.468 2.118 2.118 0 012.713-.16" fill="#fff" opacity=".6"/><path d="M373.494 497.233c.175.085.958-1.383 2.877-2.118 1.895-.788 3.624-.323 3.673-.5.031-.068-.359-.305-1.1-.425a5.554 5.554 0 00-2.857.35 4.971 4.971 0 00-2.21 1.672c-.392.576-.458.995-.383 1.021zM375.57 501.133c.145.129 1.2-.761 2.86-1.126 1.648-.4 3.048-.072 3.108-.248.1-.142-1.4-.8-3.278-.359-1.886.424-2.848 1.65-2.69 1.733zM369.526 492.188c.141.14 1.763-1.237 4.284-2.006 2.508-.8 4.724-.628 4.739-.817.058-.15-2.274-.631-4.966.225-2.702.831-4.207 2.512-4.057 2.598zM369.315 485.307c.077.174 1.856-.421 4.133-.413 2.279-.021 4.058.565 4.135.39.094-.135-1.687-1.033-4.135-1.017-2.448-.003-4.226.904-4.133 1.04z" fill="#263238"/><path d="M374.748 484.882a2.215 2.215 0 00-.123-1.074 7.14 7.14 0 00-1.378-2.678 3.6 3.6 0 00-1.811-1.373 1.387 1.387 0 00-1.416.446 1.757 1.757 0 00-.3 1.34 4.491 4.491 0 004.568 3.276 5.3 5.3 0 004.79-3.146 1.513 1.513 0 00-.127-1.38 1.355 1.355 0 00-1.419-.435 4.576 4.576 0 00-1.917 1.233 8.356 8.356 0 00-1.8 2.47 2.376 2.376 0 00-.331 1.038 13.37 13.37 0 012.48-3.2 4.3 4.3 0 011.7-1.038.721.721 0 01.774.232 1.037 1.037 0 01.024.912 4.75 4.75 0 01-4.187 2.685 3.912 3.912 0 01-3.923-2.731 1.272 1.272 0 01.164-.943.747.747 0 01.777-.256 3.269 3.269 0 011.558 1.136 10.554 10.554 0 011.897 3.486z" fill="#263238"/></g><g><path d="M378.333 250.43s6.274 6.815 9.333 13.325 4.935 22.005 4.935 22.005 6.071 18.954 4.673 28.895-8.253 78.483-8.253 78.483-4.5 70.207-10.882 81.957l-22.385-2.389-4.351-133.575-15.223-88.413z" fill="#263238"/><path d="M366.701 276.918a3.415 3.415 0 00.176-1.033c.078-.669.133-1.641.154-2.843a82.215 82.215 0 00-.49-9.368l-1.018-9.3a31.326 31.326 0 00-.469-3.851 19.883 19.883 0 00.035 3.887c.137 2.4.473 5.694.839 9.327s.609 6.923.668 9.311.008 3.863.105 3.87zM362.098 261.237c.158.043.9-2.281 1.311-5.254s.339-5.41.176-5.412-.372 2.395-.787 5.327-.871 5.296-.7 5.339zM345.806 255.889c.107.039.078-.831.989-1.457a1.876 1.876 0 011.744-.164 1.807 1.807 0 01-.082 3.374 1.875 1.875 0 01-1.734-.249c-.88-.67-.809-1.537-.918-1.5-.035 0-.1.184-.064.535a2.069 2.069 0 00.709 1.308 2.277 2.277 0 002.186.447 2.35 2.35 0 00.109-4.441 2.282 2.282 0 00-2.205.34 2.079 2.079 0 00-.773 1.271c-.054.346.004.537.039.536z" fill="#455a64"/><path d="M319.382 267.873s-13.123 85.062-14.567 99.591 3.941 102.82 3.941 102.82l21.854.091 9.423-86.885 16.375-75.95-14.959-56.343-17.157 1.309z" fill="#263238"/></g><g><path d="M395.456 189.116a3.672 3.672 0 00-.046.683l-.039 1.953-.017 1.411c-.023.514-.079 1.073-.121 1.673-.1 1.2-.154 2.57-.388 4.068l-.31 2.357c-.117.818-.29 1.662-.44 2.54-.283 1.759-.718 3.614-1.137 5.574-.91 3.9-2.041 8.166-3.261 12.637s-2.315 8.755-3.167 12.685c-.383 1.975-.789 3.842-1.026 5.618-.129.886-.28 1.736-.377 2.561l-.234 2.378c-.186 1.511-.184 2.892-.232 4.1-.014.6-.045 1.165-.042 1.683q.033.768.063 1.415c.043.811.077 1.461.1 1.955a3.648 3.648 0 00.069.679 3.747 3.747 0 00.029-.684c0-.495-.008-1.143-.012-1.954l-.021-1.409c.011-.516.055-1.075.083-1.676.074-1.2.095-2.573.3-4.076l.263-2.362c.106-.82.266-1.667.4-2.546.252-1.765.672-3.623 1.065-5.587.874-3.913 1.982-8.183 3.2-12.653s2.34-8.744 3.228-12.665c.409-1.969.83-3.833 1.1-5.6.142-.883.306-1.732.414-2.555s.191-1.616.28-2.373c.213-1.507.242-2.887.318-4.093.029-.6.072-1.166.08-1.682l-.025-1.417-.052-1.956a3.482 3.482 0 00-.045-.682z" fill="#263238"/><path d="M302.166 221.625l-9.6-34.144-11.813 2.147s2.83 3.224 2.83 6.191 1.962 30.908 1.962 30.908 11.749 3.441 16.495-4.51" fill="#ffbe9d"/><path d="M292.575 187.481a11.4 11.4 0 00.273-6.643c-1.043-3.081-4.582-5.468-4.361-7.318s-1.659-6.285-3.353-5.936-2.947 2.02-1.514 4.869a36.87 36.87 0 012.262 5.792s-17.643-9.19-19.083-9.389-2.883-.4-3.256.75 3.148 2.62 3.148 2.62l4.735 6.171a27 27 0 003.293 6.633c2.037 2.754 6.045 4.6 6.045 4.6l5.145 6.191s7.794-2.666 6.666-8.34z" fill="#ffbe9d"/><path d="M266.984 172.474c.029.026.156-.1.434-.237a2.106 2.106 0 011.254-.153 7.048 7.048 0 013.552 2.413 18.716 18.716 0 012.383 3.753 7.98 7.98 0 00.918 1.636 6.656 6.656 0 00-.607-1.781 14.764 14.764 0 00-2.328-3.925 6.687 6.687 0 00-3.874-2.435 2.078 2.078 0 00-1.392.329c-.281.204-.362.385-.34.4zM273.451 174.784a19.519 19.519 0 005.321 3.048 19.484 19.484 0 00-5.321-3.048zM282.8 178.748a4.534 4.534 0 00-5.314 1.785 8.332 8.332 0 015.314-1.785z" fill="#eb996e"/><g><path d="M319.659 223.594c.086.508-13.366 18.666-17.729 22.069-10.7 8.35-18.577-2.941-17.787-12.5s28.595-54.479 28.595-54.479l9 21.212z" fill="#17a6af"/><path d="M390.062 173.87l-24.461-5.746-2.309-3.9-24.534.391-5.7 6.1-16.354 8.026 13.726 57.624 46.052 2.367z" fill="#fff"/><path d="M362.07 163.468l9.155 5.683 19.233 4.178-6.09 77.212s17.73 30.928 15.779 67.79l-50.621-2.2s2.468-38.762 2.951-54.314.183-42.727.183-42.727l12.524-46.78z" fill="#17a6af"/><path d="M337.043 169.183l1.712-5.272-6.388 6.432s-3.791 1.315-4.6 1.618c-6.359 2.37-15.025 6.722-15.025 6.722l10.837 68.633s-12.429 43.009-13.358 68.816c0 0 33.222.553 46.373 0l-3.551-98.549s-11.534-13.616-13.454-27.314-2.546-21.086-2.546-21.086z" fill="#17a6af"/><path d="M353.632 228.419a2.986 2.986 0 00.426-.416l1.163-1.258 4.274-4.741 14.464-16.285.088-.1-.036-.129-2.3-8.283-1.02-3.661-.232.317 9.594-.369.327-.012-.113-.306c-2.6-7-4.831-13-6.429-17.307l-1.887-4.96c-.216-.542-.388-.977-.521-1.314a2.285 2.285 0 00-.206-.444 2.382 2.382 0 00.131.471l.449 1.341 1.759 5.006 6.259 17.369.213-.317-9.6.34-.317.012.085.306 1.018 3.661c.8 2.854 1.573 5.633 2.311 8.281l.053-.229-14.332 16.4-4.166 4.838-1.1 1.313a3.035 3.035 0 00-.355.476zM332.427 170.085a2.632 2.632 0 00-.11.55l-.232 1.6c-.189 1.448-.455 3.462-.783 5.961l-2.515 20.369-.041.328.327-.056 5.318-.915-.273-.35-1.013 2.266-1.993 4.463-.065.145.1.119c5.834 6.765 11 12.751 14.743 17.093l4.412 5.038 1.208 1.343c.279.3 2.107 1.677 2.12 1.667s-1.792-1.4-2.049-1.727l-1.141-1.4-4.3-5.136-14.616-17.2.039.264 2-4.46 1.012-2.267.193-.432-.465.082-5.315.925.286.272 2.341-20.39.639-5.977c.062-.664.111-1.2.15-1.607a2.794 2.794 0 00.023-.568zM358.063 258.633c.978-1.292 2.955-2.092 3.966-.825l-.039-.021a3.112 3.112 0 011.054 3.369 3 3 0 01-3.988 1.622 2.9 2.9 0 01-.993-4.145z" fill="#263238"/><path d="M380.046 193.258c-.163.524-3.606 1.05-4.208 2.505a7.154 7.154 0 00.121 4.63 13.837 13.837 0 01.877 4.614c-.191 2.817-2.413 5.016-4.491 6.927-5.809 5.344-12.9 11.142-18.712 16.486 5.147-6.565 11.859-13.364 17.549-19.464a8.154 8.154 0 002.071-3.025 8.05 8.05 0 00-.434-4.552l-1.749-5.9c-.15-.506-.475-1.357-.552-1.636a12.57 12.57 0 012.16-.262 54.182 54.182 0 017.369-.327" opacity=".3"/><path d="M313.644 190.299a2.719 2.719 0 00.058.587l.259 1.667c.251 1.5.6 3.579 1.022 6.116l3.388 20.176c1.324 7.881 2.568 15.01 3.527 20.159.479 2.575.88 4.655 1.174 6.09l.349 1.65a2.708 2.708 0 00.153.57 2.656 2.656 0 00-.057-.587l-.259-1.667c-.252-1.5-.6-3.579-1.022-6.115l-3.389-20.18c-1.324-7.88-2.567-15.007-3.527-20.155-.479-2.575-.88-4.657-1.174-6.091l-.348-1.65a2.654 2.654 0 00-.154-.57z" fill="#263238"/><path d="M390.102 173.252a17.139 17.139 0 018.81 6.792c4.062 6.012 11.1 64.322 10.835 68.366s-3.769 14.29-13.209 12.942-34.516-18.874-34.516-18.874l8.628-16.716 18.336 8.628-2.5-28.886z" fill="#17a6af"/><path d="M334.499 255.754c.595-2.623 3.849-3.465 6.516-3.805l43.486-5.55 3.77 12.234a28.493 28.493 0 01-1.972 8.219 9.622 9.622 0 01-6.067 5.521c-2.428.595-4.963-.12-7.36-.831l-31.984-9.471a13.26 13.26 0 01-4.529-1.986 4.513 4.513 0 01-1.86-4.331zM388.041 205.301c.524-2.069 1.314-4.409 3.3-5.189 2.116-.832 4.577.712 5.518 2.781s.74 4.46.408 6.708c-1.155 7.811-3.906 16.484-6.458 23.958l-8.924-3.277c1.182-8.281 4.101-16.881 6.156-24.981z" opacity=".3"/><path d="M295.89 198.178l8.778 26.438-11.4 8.277-9.183 3.688c0-.045-1.715-13.212-1.286-8.617l-2.045-27.169z" fill="#17a6af"/><g><path d="M295.89 198.178a7.57 7.57 0 00.209 1.173c.151.751.412 1.83.755 3.158.689 2.654 1.849 6.266 3.258 10.2s2.6 7.519 3.351 10.15c.372 1.315.67 2.382.861 3.123a7.543 7.543 0 00.344 1.14 7.865 7.865 0 00-.21-1.172c-.151-.752-.412-1.83-.754-3.158-.689-2.655-1.849-6.266-3.259-10.2s-2.6-7.518-3.351-10.149c-.371-1.315-.67-2.383-.86-3.124a7.884 7.884 0 00-.344-1.141z" fill="#263238"/></g><g><path d="M298.756 238.026a7.655 7.655 0 001.092-1.4 38.843 38.843 0 004.013-7.562 7.659 7.659 0 00.55-1.689 10.482 10.482 0 00-.78 1.592c-.454.991-1.1 2.354-1.879 3.824s-1.547 2.766-2.113 3.7a10.516 10.516 0 00-.883 1.535z" fill="#263238"/></g><g><path d="M390.101 232.67a59.848 59.848 0 005.5-1.954 15.27 15.27 0 00-5.5 1.954z" fill="#263238"/></g><g><path d="M387.342 195.147a2.24 2.24 0 00.272-.586c.156-.386.357-.953.581-1.661a38.508 38.508 0 001.753-11.443c0-.742-.024-1.343-.057-1.757a2.3 2.3 0 00-.084-.642 23.688 23.688 0 00-.109 2.395 50.1 50.1 0 01-1.742 11.378 23.813 23.813 0 00-.614 2.316z" fill="#263238"/></g><g opacity=".3"><path d="M331.309 200.53l-3.215.219a6.06 6.06 0 016.04-2.265c-.072 1.931-2.092 3.441-1.966 5.369a5.112 5.112 0 001.4 2.724l5.96 7.365-.42 3.69c-2.446-3.494-4.918-6.747-7.363-10.243a9.323 9.323 0 01-1.758-3.455 3.185 3.185 0 011.322-3.404z"/></g><g opacity=".3"><path d="M299.463 210.333l-.971-2.858c1.635 4.907 7.185 8.672 9.008 13.511a12.74 12.74 0 01-2 12.285c-.63.773-1.719 1.519-2.541.954a1.686 1.686 0 01-.793-1.844c.264-.659 2.166-4.632 2.5-5.258.256-.474-.313-1.835-1.073-4.391-1.338-4.501-2.791-7.897-4.13-12.399z"/></g></g><g><path d="M395.997 203.464l-11.436 60.137a4.431 4.431 0 01-5.192 3.524l-43.927-8.454a4.432 4.432 0 01-3.51-5.213l12.1-61.163a4.431 4.431 0 015.3-3.469l43.259 9.482a4.434 4.434 0 013.406 5.156z" fill="#e0e0e0"/><circle cx="7.238" cy="7.238" r="7.238" fill="#fff" transform="translate(357.75 216.356)"/><path d="M366.708 225.69l-3.652-1.818s-1.188-6.266-3.118-8.477-4.77-4.757-4.749-5.35-.892-4.73-.892-4.73-1.7-1.485-2.039 1.485a21.947 21.947 0 000 5.2s-10.251-2.552-11.438-2.85-2.667-.181-2.518 1.007a3.677 3.677 0 001.7 2.54 3.835 3.835 0 001.087.639s-1.9 1.755-1.9 3.481-1.958 5.723-.176 7.653 9.947 7.72 14.252 8.463 5.356 2.017 7.354 4.571z" fill="#ffbe9d"/><path d="M351.304 211.774c-.05.093 1.309.888 2.841 2.064s2.665 2.27 2.74 2.2a14.3 14.3 0 00-5.581-4.263zM340.411 212.99a9.72 9.72 0 002.743 1.121 17.6 17.6 0 002.85.785 9.738 9.738 0 00-2.743-1.121 17.633 17.633 0 00-2.85-.785z" fill="#eb996e"/><path d="M392.199 234.269l-25.192-10.676-9.444 18.839 34.635 17.663z" fill="#455a64"/><g><path d="M367.489 224.175c-.036.091 6.771 2.9 15.2 6.265s15.3 6.028 15.335 5.938-6.77-2.9-15.2-6.266-15.3-6.027-15.335-5.937z" fill="#263238"/></g><g opacity=".3"><path d="M390.539 233.111a48.471 48.471 0 018.947 2.693 11.966 11.966 0 013.316 1.85 4.815 4.815 0 011.782 3.256 11.013 11.013 0 01-2.321-1.385c-2.857-2.869-7.791-4.541-11.973-6.129z"/></g></g><g><path d="M354.3 317.303c-.158 0-.286-12.147-.286-27.128s.129-27.131.286-27.131.288 12.145.288 27.131-.129 27.128-.288 27.128z" fill="#263238"/></g></g><g><path d="M322.625 126.971c.675-6.136 1.689-12.463 5.074-17.623s9.759-8.844 15.731-7.285l7.487 3.659a220.382 220.382 0 01-6.658 49.949 10.812 10.812 0 01-1.934 4.516c-2.166 2.526-5.985 2.58-9.31 2.431-4.014-.178-8.726-.766-10.687-4.272a11.629 11.629 0 01-1.021-5.65 220.739 220.739 0 011.318-25.725z" fill="#feab45"/><path d="M362.323 113.343l-22.674-5.785c-7.264-.784-12.115 8.152-12.591 15.443-.529 8.1-.854 18.009.093 24.056 1.9 12.159 11.216 13.726 11.216 13.726a29.414 29.414 0 00-.065 9.257c1.163 8.291 6.686 10.058 11.109 10.056 6.992.241 14.08-2.472 14.388-9.461l2.34-52.948a4.277 4.277 0 00-3.816-4.344z" fill="#ffbe9d"/><path d="M332.342 133.001a1.559 1.559 0 001.5 1.576 1.492 1.492 0 001.611-1.4 1.56 1.56 0 00-1.5-1.576 1.492 1.492 0 00-1.611 1.4zM329.896 129.135c.193.2 1.376-.668 3.053-.659 1.676-.017 2.905.849 3.088.644.089-.091-.107-.458-.642-.849a4.273 4.273 0 00-2.471-.768 4.1 4.1 0 00-2.43.779c-.519.394-.698.761-.598.853zM349.038 133.001a1.559 1.559 0 001.5 1.576 1.491 1.491 0 001.609-1.4 1.558 1.558 0 00-1.5-1.576 1.491 1.491 0 00-1.609 1.4zM346.692 129.641c.193.2 1.377-.668 3.053-.659 1.676-.017 2.9.849 3.088.644.089-.09-.1-.458-.642-.849a4.272 4.272 0 00-2.47-.768 4.111 4.111 0 00-2.431.779c-.516.394-.692.762-.598.853zM340.267 140.936a11.085 11.085 0 00-2.723-.5c-.429-.045-.833-.131-.9-.423a2.174 2.174 0 01.289-1.269l1.273-3.259c1.769-4.64 3.051-8.456 2.864-8.525s-1.775 3.635-3.544 8.274q-.638 1.717-1.221 3.278a2.483 2.483 0 00-.226 1.681 1.075 1.075 0 00.7.628 2.939 2.939 0 00.727.1 10.914 10.914 0 002.761.015z" fill="#263238"/><path d="M338.367 160.783a32.781 32.781 0 0016.984-4.306s-4.822 8.54-16.984 7.377z" fill="#eb996e"/><path d="M345.522 124.559c.164.456 1.84.243 3.807.486 1.972.2 3.558.781 3.82.372.117-.195-.16-.625-.8-1.067a6.669 6.669 0 00-5.811-.654c-.722.289-1.087.646-1.016.863zM329.447 124.165c.365.381 1.8-.011 3.522-.025 1.723-.064 3.183.262 3.52-.135.147-.193-.083-.575-.719-.936a5.757 5.757 0 00-2.862-.631 5.658 5.658 0 00-2.811.76c-.61.388-.811.779-.65.967z" fill="#feab45"/><path d="M337.618 110.695a19.187 19.187 0 003.726 3.846l6.522 5.581a36.769 36.769 0 009.53 6.414c1.676.857 2.678 3.306 4.354 4.162.379.194 1.546-.025 1.95.227.116 2.713.684 11.335.9 14.77.337 5.415-.577 19.969-.577 19.969l4.606-.328c3.57-.809 7.088-5.233 7.591-8.858.471-3.4-.029-8.029 0-10.783.069-7.069-1.811-14.09-2.767-21.1a29.162 29.162 0 00-1.974-8.294c-1.683-3.673-4.815-6.483-8.137-8.783a30.824 30.824 0 00-12.66-5.494 17.3 17.3 0 00-13.2 3.016 2.9 2.9 0 00-1.243 1.7c-.467 1.736.394 2.459 1.379 3.955zm26.19 20.322c.193.315.119 1.167 0 0z" fill="#feab45"/><path d="M363.243 134.335a3.545 3.545 0 015.188-3.016c1.231.711 2.172 2.142 2.059 4.887-.3 7.321-7.589 5.508-7.594 5.3-.007-.135.191-4.145.347-7.171z" fill="#ffbe9d"/><path d="M365.242 138.82c.033-.022.123.095.335.2a1.275 1.275 0 00.953.058 3.157 3.157 0 001.576-2.772 4.209 4.209 0 00-.282-1.841 1.471 1.471 0 00-.919-1.018.649.649 0 00-.767.318c-.107.2-.066.349-.106.36-.021.017-.152-.13-.08-.43a.815.815 0 01.307-.447.961.961 0 01.713-.156 1.793 1.793 0 011.286 1.19 4.334 4.334 0 01.358 2.059c-.108 1.473-.92 2.822-1.991 3.085a1.367 1.367 0 01-1.159-.241c-.219-.187-.251-.353-.224-.365z" fill="#eb996e"/><path d="M367.723 141.994a1.438 1.438 0 11-1.438-1.438 1.437 1.437 0 011.438 1.438z" fill="#263238"/><path d="M344.835 144.006a3.336 3.336 0 01-1.666 5.212 1.962 1.962 0 01-1.256.02 2.776 2.776 0 01-1.335-1.738l-.7-1.743a.585.585 0 01.5-.941l4.323-1.042" fill="#eb996e"/><path d="M342.007 149.026a3.862 3.862 0 001.964-.246 3.087 3.087 0 001.722-1.4 2.314 2.314 0 00.263-1.337 3.907 3.907 0 00-.343-1.383 3.608 3.608 0 00-.813-1.125l-.113-.106-.144.051c-2.862 1.01-5.1 1.521-5.077 1.644a17.547 17.547 0 005.244-1.162l-.257-.055a3.225 3.225 0 01.69.971 2.792 2.792 0 01.127 2.283 2.836 2.836 0 01-1.433 1.278c-1.074.436-1.848.492-1.83.587z" fill="#263238"/><g><path d="M355.268 113.885a42.735 42.735 0 0112.272 11.362l-3.454 6.937c-6.714-.156-7.553-.78-12.589-5.222s-15.052-13.289-16.044-19.931c6.438 1.328 14.208 3.422 19.815 6.854z" fill="#feab45"/></g><g><path d="M369.488 165.027a3.826 3.826 0 01.271-.719c.2-.459.482-1.145.834-2.029a50.9 50.9 0 002.334-7.7 49.177 49.177 0 001.087-11.852 31.892 31.892 0 00-.863-6.95 12.2 12.2 0 00-3.676-6.324 23.528 23.528 0 00-6.56-3.587 47.156 47.156 0 01-6.416-3.068 45.288 45.288 0 01-9.464-7.406 50.417 50.417 0 01-5.212-6.2 34.29 34.29 0 01-1.229-1.826 3.892 3.892 0 01-.386-.665 3.873 3.873 0 01.481.6c.293.406.731 1 1.313 1.758a56.816 56.816 0 005.319 6.048 46.345 46.345 0 009.442 7.236 47.634 47.634 0 006.365 3.005 23.791 23.791 0 016.723 3.674 12.714 12.714 0 013.844 6.615 31.928 31.928 0 01.846 7.077 48.006 48.006 0 01-1.218 11.957 45.9 45.9 0 01-2.524 7.7c-.386.876-.7 1.549-.936 1.994a3.829 3.829 0 01-.375.662z" fill="#fff"/></g><g><path d="M371.97 126.707a12.218 12.218 0 00-2.673-4.9 17.071 17.071 0 00-4.835-3.662 62.238 62.238 0 00-6.947-2.912 45.686 45.686 0 01-12.072-6.64 37.69 37.69 0 01-3.175-2.722 6.935 6.935 0 01-1.048-1.121 9.157 9.157 0 011.2.955 56.889 56.889 0 003.269 2.565 49.778 49.778 0 0012.035 6.428 56.921 56.921 0 016.99 2.981 16.757 16.757 0 014.892 3.862 10.6 10.6 0 012.08 3.651 6.764 6.764 0 01.261 1.115c.034.26.043.396.023.4z" fill="#fff"/></g><g><path d="M324.03 160.808a2.528 2.528 0 01-.068-.617c-.022-.468-.048-1.053-.083-1.769-.058-1.537-.124-3.76-.176-6.51-.093-5.5-.169-13.1.387-21.491a56.253 56.253 0 011.7-11.739 21.453 21.453 0 014.5-8.567 14.868 14.868 0 015.249-3.878 9.942 9.942 0 011.688-.567 2.478 2.478 0 01.61-.109c.016.058-.825.231-2.207.88a15.374 15.374 0 00-5.036 3.941 21.478 21.478 0 00-4.3 8.444 57.9 57.9 0 00-1.634 11.634c-.553 8.358-.542 15.954-.554 21.449 0 2.688 0 4.892-.006 6.51l-.025 1.771a2.553 2.553 0 01-.045.618z" fill="#fff"/></g></g></g><g><path d="M543.505 383.644l16.874 90.12s9.656 5.576 14.549 3.368l-3.437-91.7z" fill="#ba7e6d"/><path d="M560.38 473.765l.024 1.146s-19.227 8.28-19.342 11.97l38.556-1.153-.908-12.814a22.066 22.066 0 01-18.33.851z" fill="#feab45"/><path d="M574.924 477.132a1.576 1.576 0 011.142 1.764 1.515 1.515 0 01-1.74 1.148 1.662 1.662 0 01-1.2-1.875 1.571 1.571 0 011.941-.993M579.612 485.727l-.218-3.081-36.874 2.233s-1.694.8-1.464 2z" fill="#fff" opacity=".6"/><path d="M560.266 475.021c.012.188.956.246 1.9.823.959.553 1.462 1.355 1.633 1.275.173-.042-.142-1.159-1.3-1.838s-2.279-.432-2.233-.26zM556.272 476.815c-.037.184.788.48 1.452 1.257.685.758.872 1.614 1.06 1.6.177.024.275-1.083-.568-2.034s-1.945-1.003-1.944-.823zM554.121 481.724c.172.035.407-.913-.108-1.93s-1.407-1.4-1.482-1.242c-.1.159.486.7.9 1.536.424.831.506 1.619.69 1.636z" fill="#263238"/><path d="M597.472 381.874c.358.91 2.53 15.992 2.092 21.574s-10.059 80.2-10.059 80.2l-14.923.352-8.675-100.437z" fill="#ba7e6d"/><path d="M566.507 389.595a5.219 5.219 0 01.152.872l.326 2.514 1.066 9.26c.859 7.825 1.949 18.644 2.99 30.609s1.832 22.815 2.335 30.669l.546 9.305.113 2.533a5.147 5.147 0 010 .885 5.022 5.022 0 01-.116-.878l-.22-2.524-.728-9.291c-.607-7.847-1.464-18.685-2.5-30.649s-2.066-22.783-2.821-30.616l-.886-9.278-.218-2.526a5.037 5.037 0 01-.039-.885z" fill="#875149"/><path d="M590.298 477.138s-9.838 7.806-15.125 1.788l-1.13 3.114-4.653 22a2.913 2.913 0 001.823 3.394 2.811 2.811 0 002.945-.728c3.992-4.227 18.6-19.85 18.343-21.85l-.345-5.323a2.71 2.71 0 00-1.857-2.4z" fill="#feab45"/><path d="M571.721 507.559l20.687-24.551.057 1.163a3.247 3.247 0 01-.9 2.623c-1.646 2.49-6.273 8.108-17.323 19.913a2.816 2.816 0 01-2.519.852zM589.01 479.716a1.7 1.7 0 00-.356 2.246 1.638 1.638 0 002.223.372 1.8 1.8 0 00.365-2.381 1.7 1.7 0 00-2.355-.131" fill="#fff"/><g><path d="M577.406 495.248a6.079 6.079 0 00-5.705-2.465c-.028-.066.31-.3.947-.419a4.492 4.492 0 014.414 1.906c.344.548.41.952.344.978z" fill="#263238"/></g><g><path d="M575.631 499.022a8.411 8.411 0 00-5.19-1.273c-.087-.135 1.206-.784 2.842-.373 1.641.393 2.487 1.566 2.348 1.646z" fill="#263238"/></g><g><path d="M580.814 490.354c-.122.137-1.54-1.177-3.733-1.9-2.185-.753-4.107-.565-4.121-.748-.052-.144 1.97-.627 4.313.175 2.35.783 3.67 2.391 3.541 2.473z" fill="#263238"/></g><g><path d="M580.947 483.724c-.065.167-1.614-.391-3.591-.365-1.979 0-3.52.578-3.587.411a6.992 6.992 0 017.178-.046z" fill="#263238"/></g><g><path d="M576.227 483.362a2.4 2.4 0 01.1-1.037 7.222 7.222 0 011.178-2.592 3.21 3.21 0 011.562-1.336 1.134 1.134 0 011.233.418 1.84 1.84 0 01.268 1.288 3.981 3.981 0 01-3.943 3.195 4.619 4.619 0 01-4.182-2.991 1.6 1.6 0 01.1-1.331 1.112 1.112 0 011.229-.431 3.937 3.937 0 011.672 1.171 8.063 8.063 0 011.58 2.364 2.467 2.467 0 01.3 1 12.846 12.846 0 00-2.177-3.06 3.671 3.671 0 00-1.483-.985.594.594 0 00-.671.23 1.1 1.1 0 00-.014.879 4.122 4.122 0 003.655 2.551 3.459 3.459 0 003.386-2.664 1.338 1.338 0 00-.15-.907.613.613 0 00-.676-.24 2.889 2.889 0 00-1.344 1.107 10.7 10.7 0 00-1.623 3.371z" fill="#263238"/></g><g><path d="M589.327 136.2l-51.929.541c.624 16.112 2.1 29.924-3.315 43.671-1.377 3.494-3.188 6.83-4.191 10.449s-1.107 7.7.817 10.929l10.534-3-.082-3.275a4.8 4.8 0 002.868 3.209 12.138 12.138 0 005.672.451 161.034 161.034 0 0032.646-6.233c1.414-.425 8.113.166 8.113.166 3.859-16.581 2.551-40.292-1.133-56.908z" fill="#263238"/></g><g><path d="M488.953 221.566s-.823-2.411-2.447-3.174-8.617-.1-10.1-.025-6.313-1.452-8.392.4a1.45 1.45 0 001.193 1.8c2.592.373 7.4 1.119 7.2 1.475-.27.487-8.353-.108-10 .548-.3.015-12.066.354-12.066.354s-2.015 2.069-.008 2.738l.085 1.6a5.565 5.565 0 002.124.831c1.6.386-.023 1.418 2.074 1.777a18.353 18.353 0 004.264.15l.248.931a6.932 6.932 0 002.107.548c1.7.286 20.431-1.1 20.431-1.1l9.736 2.519.876-9.509z" fill="#ba7e6d"/><path d="M485.064 221.306c.051.172-2.259.51-4.573 1.991a8.912 8.912 0 00-2.482 2.418 14.384 14.384 0 01-.776 1.251 2.8 2.8 0 01.481-1.431 7.643 7.643 0 012.508-2.645 10.566 10.566 0 013.35-1.407 3.7 3.7 0 011.492-.177zM471.033 228.646a18.384 18.384 0 01-4.188.509 9.5 9.5 0 00-2.858.347c-.653.3-.815.778-.88.749-.067.012-.013-.6.717-1.051a7.184 7.184 0 012.991-.53 18.477 18.477 0 014.218-.024zM470.294 226.01a7.573 7.573 0 01-1.926.511 22.37 22.37 0 01-4.792.474 12.5 12.5 0 00-4.653.458 3 3 0 00-1.183.69c-.209.239-.174.443-.214.445-.022.02-.142-.216.058-.554a2.744 2.744 0 011.206-.9 7.02 7.02 0 012.132-.553 21.89 21.89 0 012.657-.074 32.071 32.071 0 004.734-.327 8.7 8.7 0 011.981-.17zM468.503 224.038a9.1 9.1 0 01-2.083.281c-1.292.112-3.083.234-5.062.337-.991.073-1.933.026-2.779.074a13.217 13.217 0 00-2.221.259 3.626 3.626 0 00-1.377.506c-.272.2-.338.4-.377.388-.025 0-.022-.241.251-.53a3.235 3.235 0 011.418-.7 11.131 11.131 0 012.28-.372c.865-.073 1.81-.04 2.794-.112 1.97-.1 3.754-.171 5.05-.194a9.1 9.1 0 012.106.063z" fill="#875149"/></g><g><path d="M554.798 178.77l-8.578 11.75 2.324 4.532 10.868.226 11-2.421 6.062-2.547 3.428-10.417-1.663-7.986-4.317.408z" fill="#ba7e6d"/></g><g><path d="M545.191 189.656s-.539 3.694 6.1 3.549 23.494-5.136 23.494-5.136l15.231 23.781-6.695 66.9-54.948 9.121 2.143-50s-4.153-2.526-5.027-10.937a35.243 35.243 0 011.34-14.449z" fill="#fff"/></g><g><path d="M599.873 264.9s11.617 25.573 8.734 44.245-10.091 77.327-10.091 77.327l-53.852 2.887s-15.208-73.779-15.753-87.636-2.018-23.891-2.018-23.891z" fill="#263238"/><path d="M568.13 309.988c.158.017-1.125 13.2-2.865 29.432s-3.278 29.391-3.436 29.375 1.126-13.193 2.866-29.436 3.278-29.389 3.435-29.371z" fill="#455a64"/></g><g><path d="M564.599 253.987c-.042 0-.064-.232-.207-.613a2.654 2.654 0 00-1.045-1.289 2.483 2.483 0 00-2.333-.183 2.427 2.427 0 00.243 4.54 2.481 2.481 0 002.3-.432 2.641 2.641 0 00.9-1.392c.1-.393.1-.63.141-.631a1.133 1.133 0 01.045.666 2.635 2.635 0 01-.864 1.619 2.8 2.8 0 01-2.654.6 2.856 2.856 0 01-.289-5.383 2.8 2.8 0 012.7.312 2.634 2.634 0 011.032 1.517c.101.425.056.669.031.669z" fill="#263238"/></g><g><path d="M551.369 176.578s-12.561 2.859-14.1 3.737-7.5 8.348-9.214 13.406-2.85 17.237-2.85 17.237-4.57 7.4-4.506 8.585l.17 3.169s-3.456 5.947-3.424 6.54l.032.595-24.244-10.8-6.611 12.591s19.552 17 30.141 22.692a5.97 5.97 0 007.83-2.02l-2.586 51.03 12.389 3.351-1.873-60.895-.43-8.011s-8.589-7.953-2.337-19.725c2.17-4.086 8.523-15.157 12-20.707s12.3-17.57 12.3-17.57l-.283-6.178z" fill="#feab45"/><path d="M522.237 246.767c-.078-.01.041-1.033.04-2.686a28.138 28.138 0 00-.719-6.388 16.59 16.59 0 00-2.372-5.908 8.938 8.938 0 00-1.916-1.808 1.587 1.587 0 01.679.279 5.615 5.615 0 011.508 1.321 15.073 15.073 0 012.574 6.009 23.543 23.543 0 01.589 6.507 9.3 9.3 0 01-.383 2.674zM527.821 232.713a3.09 3.09 0 01-.4-.516 9.957 9.957 0 01-.866-1.651 13.994 13.994 0 01-.834-6.766 37.154 37.154 0 012.85-9.725c1.426-3.53 2.84-7.469 4.7-11.475a37.219 37.219 0 013.208-5.593 57.136 57.136 0 013.824-4.618c2.621-2.775 4.159-5.845 5.7-8.284a71.508 71.508 0 013.867-5.629c.488-.641.881-1.128 1.151-1.455a3.227 3.227 0 01.435-.481 3.2 3.2 0 01-.358.541l-1.076 1.508a88.79 88.79 0 00-3.726 5.7c-1.492 2.437-3.038 5.589-5.659 8.4a58.826 58.826 0 00-3.773 4.6 37.5 37.5 0 00-3.157 5.527c-1.842 3.967-3.275 7.913-4.723 11.432a38.02 38.02 0 00-2.925 9.6 14.261 14.261 0 00.669 6.658 17.641 17.641 0 001.093 2.227zM523.828 259.518a4.4 4.4 0 01.061-1.06 80.14 80.14 0 01.362-2.864l1.438-9.4a63.028 63.028 0 00.751-9.441c-.019-2.425-.213-3.921-.127-3.932a4.459 4.459 0 01.212 1.041c.06.337.106.752.148 1.236s.094 1.034.111 1.646a51.779 51.779 0 01-.614 9.518c-.528 3.686-1.159 6.99-1.579 9.387-.2 1.117-.376 2.064-.516 2.837a4.552 4.552 0 01-.247 1.032z" fill="#263238"/><path d="M517.475 229.85a7.571 7.571 0 014.93 3.794 18.8 18.8 0 012.051 6.3 5.844 5.844 0 01-.256 3.907c-.314.553-1.125 1-1.537.518a1.171 1.171 0 01-.208-.5c-.608-2.586-.871-5.249-1.584-7.808s-1.357-4.595-3.481-6.191" opacity=".3"/></g><g><path d="M577.187 170.05l6.316.707 3.111 3.391s17.895 3.511 20.127 6.112-8.8 37.893-8.8 37.893l-5.141 28.484s12.975 27.526 14.515 41.235l-47.835 16.423s-4.011-47.5-3.008-56.128 5.669-30.856 9.141-40.249 12.425-29.753 12.391-30.379-.817-7.489-.817-7.489z" fill="#feab45"/><path d="M593.628 249.496a3.469 3.469 0 00-1.65-1.257c-4.8-2.192-10.306-2.192-15.354-3.731-4.8-1.463-9.572-4.349-14.466-3.256-1.917.427-2.876.475-4.788.929l-.268 1.6c3.087 1.42 8.166-.345 11.1 1.374a29.411 29.411 0 012.741 2.228 15.974 15.974 0 003.842 1.97q4.083 1.629 8.228 3.094c2.617.924 5.456 1.807 8.121 1.03a4.206 4.206 0 002.25-1.43 2.381 2.381 0 00.244-2.551z" opacity=".3"/><path d="M600.172 177.621c-.7.324-7.695 15.465-9.1 22.977s8.47 29.469 8.47 29.469l-26.8-.349-1.888 13.316s25.068 7.542 33.312 9.1 16.45 2.383 18.625-1a17.379 17.379 0 002.535-6.847l-5.1-27.473-4.376-17.356s-.779-7.757-2.829-12.181-10.192-10.886-12.849-9.656z" fill="#feab45"/><path d="M586.031 174.582a3.738 3.738 0 01.017.694 36.77 36.77 0 01-.073 1.988 65.634 65.634 0 01-.83 7.27 70.169 70.169 0 01-2.643 10.529 70.915 70.915 0 01-2.318 5.985 11.667 11.667 0 01-.749 1.549 2.629 2.629 0 01-1.541.979l-3.33 1.032-1.08.335.061-.436 4.116 2.692.2.134-.138.2-11.318 16.5-3.378 4.839-.926 1.289a2.5 2.5 0 01-.346.431 2.73 2.73 0 01.273-.479l.859-1.336c.793-1.2 1.9-2.862 3.259-4.921l11.187-16.588.067.335-4.12-2.686-.433-.283.495-.153 1.08-.334 3.328-1.03a2.152 2.152 0 001.29-.79 11.731 11.731 0 00.711-1.47 72.24 72.24 0 002.329-5.936 73.543 73.543 0 002.728-10.446c.557-3.027.826-5.508.98-7.224l.163-1.979a3.809 3.809 0 01.08-.69zM601.432 177.922a8.322 8.322 0 00-2.029.445 9.457 9.457 0 00-4.209 3.651 19.554 19.554 0 00-1.846 3.455 31.214 31.214 0 00-1.483 4.262 33.569 33.569 0 00-1.2 10.232c.112 3.673 1.327 7.02 2.107 10.123.848 3.087 1.644 5.857 2.345 8.173s1.314 4.175 1.784 5.443c.242.629.42 1.125.568 1.446a2.317 2.317 0 01.191.511 2.341 2.341 0 01-.28-.468c-.179-.313-.384-.8-.656-1.421-.525-1.253-1.189-3.1-1.935-5.409s-1.576-5.072-2.449-8.155l-1.33-4.849a24.7 24.7 0 01-.832-5.372 33.249 33.249 0 011.252-10.374 30.456 30.456 0 011.546-4.3 19.3 19.3 0 011.935-3.492 9.371 9.371 0 014.426-3.63 5.386 5.386 0 011.546-.3 2.3 2.3 0 01.549.029zM594.337 249.744a2.167 2.167 0 01-.456-.09l-1.3-.334-4.869-1.325-16.92-4.746-.193-.055.03-.2 1.992-13.166.029-.185.03-.2.2-.007c10.385-.356 19.789-.107 26.572.311 3.392.2 6.133.426 8.024.6l2.175.224a4.663 4.663 0 01.756.112 4.4 4.4 0 01-.763-.014l-2.182-.133a458.536 458.536 0 00-8.028-.451c-6.781-.329-16.167-.523-26.538-.167l.232-.206-.029.185c-.714 4.649-1.4 9.1-2.021 13.16l-.163-.253 16.871 4.915 4.834 1.45 1.281.4a2.193 2.193 0 01.436.175z" fill="#263238"/><path d="M609.601 228.082c.011.141-2.382.423-5.287 1s-5.228 1.212-5.271 1.077a27.753 27.753 0 0110.558-2.078zM566.422 278.253c-.041 0-.064-.232-.207-.612a2.648 2.648 0 00-1.045-1.289 2.483 2.483 0 00-2.333-.183 2.427 2.427 0 00.243 4.54 2.484 2.484 0 002.3-.432 2.649 2.649 0 00.9-1.392 4.286 4.286 0 01.14-.631c.025 0 .095.232.045.668a2.63 2.63 0 01-.864 1.618 2.8 2.8 0 01-2.654.6 2.856 2.856 0 01-.289-5.383 2.8 2.8 0 012.7.312 2.634 2.634 0 011.032 1.517c.102.426.058.667.032.667z" fill="#263238"/><path d="M561.928 230.199c6.66-3.216 11.406-9.744 15.08-16.162.8-1.39 1.573-2.789 2.351-4.189a5.445 5.445 0 00.887-2.476 1.87 1.87 0 00-1.441-1.949 2.639 2.639 0 002.859-1.3 7.732 7.732 0 00.882-3.234c.327-2.725.772-6.723 1.1-9.449-.646 1.981-2.088 5.3-2.733 7.281-.457 1.4-.878 3.026-1.938 4.046-1.693 1.629-3.514 1.192-5.563 1.942 1.369.3 3.043 1.788 4.117 2.689-4.791 7.624-15.6 22.8-15.6 22.8" opacity=".3"/></g><g><path d="M531.639 211.904s38.522 41.1 39.179 41.032c1.378-.151-28.648 30.594-28.648 30.594l-39.075-44.567z" fill="#455a64"/><path d="M563.166 231.51l-15.551-6.111-10.462 1.629-4.613 6.123s.093 1.731 1.143 1.408a6.82 6.82 0 002.192-1.453l.369 4.387s1.7 1.779 2.663-.142l1.244 3.272s1.277 1.4 2.131-.115l1.806 3.775a2.9 2.9 0 001.792-1.431 2.983 2.983 0 00.159-2.012s5.244.653 7.41 1.205 12.671-.279 12.671-.279l4.478 1.026 1.807-11.546z" fill="#ba7e6d"/><path d="M545.454 227.144a6.072 6.072 0 00-1.883.124c-.567.139-1.228.392-1.976.661s-1.559.565-2.386.929a13.912 13.912 0 00-2.223 1.2 1.231 1.231 0 00-.575.76c-.08.313-.123.652-.173.942-.2 1.178-.222 1.911-.283 1.916a4.676 4.676 0 01-.058-1.958 9.283 9.283 0 01.123-1 1.644 1.644 0 01.7-1.026 12.359 12.359 0 012.29-1.287c.849-.373 1.681-.66 2.437-.908a15.653 15.653 0 012.051-.574 2.5 2.5 0 011.956.221zM546.493 230.149a4.674 4.674 0 01-1.666.82c-1.076.4-2.624.734-4.231 1.3a2.848 2.848 0 00-1.017.5 5.973 5.973 0 00-.871 2.822c.052.534.2.98.255 1.3s.051.5.019.507-.089-.162-.2-.456a7.132 7.132 0 01-.413-1.307 5.672 5.672 0 01.853-3.177 2.982 2.982 0 011.211-.644c1.666-.588 3.212-.861 4.294-1.174a14.394 14.394 0 011.766-.491zM542.422 240.769c-.042.026-.432-.324-.847-1.1a2.487 2.487 0 01-.262-1.548 2.051 2.051 0 011.27-1.473 5.035 5.035 0 011.847-.323l1.472-.033a6.539 6.539 0 011.01.039c.265.054.349.215.32.229s-.127-.052-.339-.042-.557.078-.972.118l-1.465.137a5.288 5.288 0 00-1.679.321 1.657 1.657 0 00-1.027 1.118 2.329 2.329 0 00.139 1.32c.304.747.605 1.195.533 1.237z" fill="#875149"/></g><g><path d="M587.75 127.973c-2.311-7.9-4.686-16.126-11.577-20.63-6.139-4.012-12.8-4.7-20.076-3.769-3.581.46-7.5 2.47-10.477 4.512-4.084 2.8-5.476 7.888-7.162 12.544-3.377 9.327-1.8 21.43 1.3 24.563l39.194 16.561c6.338-4.025 10.636-6.019 11.765-13.442.769-5.055-1.531-15.429-2.967-20.339z" fill="#263238"/><path d="M576 114.819l-24.192-4.92c-7.695-.452-12.345 9.215-12.469 16.922-.139 8.562.03 19.022 1.34 25.344 2.633 12.715 12.527 13.885 12.527 13.885 0-.043.04.191.291 3.992l.391 8.567c3.707 10.221 14.165 8.4 27.026 2.3l-.668-61.708a4.512 4.512 0 00-4.246-4.382z" fill="#ba7e6d"/><path d="M543.336 136.683a1.643 1.643 0 001.661 1.583 1.572 1.572 0 001.624-1.56 1.644 1.644 0 00-1.659-1.584 1.573 1.573 0 00-1.626 1.561zM541.93 133.467c.214.2 1.414-.773 3.183-.852 1.765-.1 3.106.745 3.287.52.089-.1-.137-.478-.72-.863a4.513 4.513 0 00-2.643-.681 4.327 4.327 0 00-2.522.946c-.525.443-.69.839-.585.93zM559.315 135.826a1.645 1.645 0 001.661 1.584 1.575 1.575 0 001.625-1.561 1.646 1.646 0 00-1.66-1.584 1.574 1.574 0 00-1.626 1.561zM559.164 132.183c.215.2 1.417-.774 3.184-.852 1.765-.1 3.106.745 3.286.519.089-.1-.133-.477-.719-.861a4.516 4.516 0 00-2.644-.682 4.341 4.341 0 00-2.521.946c-.524.446-.69.841-.586.93zM553.448 145.07a11.734 11.734 0 00-2.9-.384c-.453-.025-.885-.095-.975-.4a2.293 2.293 0 01.239-1.353l1.173-3.5c1.625-4.98 2.779-9.068 2.578-9.131s-1.681 3.922-3.306 8.9l-1.117 3.517a2.61 2.61 0 00-.152 1.782 1.138 1.138 0 00.773.626 3.08 3.08 0 00.772.07 11.58 11.58 0 002.915-.127z" fill="#263238"/><path d="M553.205 166.045a32.617 32.617 0 0016.941-5.378s-3.822 9.162-16.7 8.563zM558.094 148.951a2.358 2.358 0 00-2.008-.975 3.064 3.064 0 00-2.725 1.514 1.9 1.9 0 00-.061 1.38c.115.228.029.117.218.269.683.549 1.139 1.4 1.99 1.567a2.957 2.957 0 002.649-1.318 2.349 2.349 0 00-.063-2.437z" fill="#875149"/><path d="M558.102 126.664c.169.483 1.938.274 4.011.546 2.08.231 3.747.857 4.028.429.124-.2-.162-.661-.834-1.134a7.039 7.039 0 00-6.124-.744c-.766.299-1.154.674-1.081.903zM541.714 129.589c.43.312 1.661-.4 3.251-.8 1.577-.442 3.006-.426 3.221-.908.09-.231-.215-.573-.891-.806a5.042 5.042 0 00-2.8-.021 4.98 4.98 0 00-2.416 1.395c-.469.537-.56.984-.365 1.14z" fill="#263238"/><path d="M551.48 108.429a28.475 28.475 0 003.316 15.058 10.451 10.451 0 002.648 3.425 4.672 4.672 0 004.091.95 17.342 17.342 0 01-4.331-9.624c1.821 3.5 3.688 7.068 6.507 9.832s6.8 4.643 10.688 3.971l-.479-2.609a9.121 9.121 0 003.509 4.633 4.657 4.657 0 005.493-.319c-1.842-6.29 1.508-13.553-1.445-19.405-2.045-4.052-6.6-6.2-11.023-7.217a36.184 36.184 0 00-18.911.784" fill="#263238"/><path d="M552.021 108.49c-.014.094-.024.188-.036.282l.045.015-.009-.297z" fill="#263238"/><path d="M551.985 108.771l-.8-.259c-2.512-1.048-4.206-2.331-7.684 1.289a23.2 23.2 0 00-4.555 7.653 29.691 29.691 0 00-2.2 8.024 34.15 34.15 0 00.527 9.825c2.05-1.612 2.952-4.273 3.444-6.834s.687-5.224 1.768-7.6a19.867 19.867 0 00.138 6.5 2.7 2.7 0 00.833 1.544 1.13 1.13 0 001.586-.128 14 14 0 01-.608-7.688 39.766 39.766 0 012.307-7.454 38.409 38.409 0 001.546 12.958 3.334 3.334 0 00.87 1.64 3.057 3.057 0 002.689.333 6.408 6.408 0 012.767-.345 36.844 36.844 0 01-2.628-19.458zM566.335 182.323c2.02-3.448 4.436-6.951 4.521-10.947.073-3.379-1.564-6.625-1.463-10 .109-3.58 2.143-6.818 2.788-10.341 1.565-8.55-5.173-17.192-3-25.607l11.211.589 8.143 43.486a52.718 52.718 0 01-5.58 27.265l-1.06-.913q1.011-3.079 1.72-6.247a26.583 26.583 0 01-8.27 9.2c-3.735-1.428-7.627-2.63-11.411-5.136-1.356-3.764.381-7.901 2.401-11.349z" fill="#263238"/><g><path d="M552.336 151.527c.042-.328 1.966-.247 3.928-1.348 1.993-1.048 2.972-2.706 3.271-2.562.132.061.069.592-.35 1.326a6.347 6.347 0 01-5.547 3.012c-.844-.048-1.324-.284-1.302-.428z" fill="#263238"/></g></g></g></svg>