<svg xmlns="http://www.w3.org/2000/svg" viewBox="0 0 500 500"><path d="M278.44 462.06c-17.23-8.16-24.11-27.56-26.54-45.62-.41-3.02-1.27-6.12-.29-8.99s4.01-5.23 6.9-4.42c2.4.67 3.81 3.1 5.42 5.03 2.14 2.57 5.01 4.51 8.17 5.53 2.08.67 4.54.87 6.25-.48 2.35-1.86 2.05-5.49 1.52-8.47-.98-5.55-1.95-11.11-2.93-16.66-.52-2.98-1.05-6.02-.6-9.01.45-2.99 2.05-5.96 4.76-7.24 2.7-1.27 6.49-.23 7.58 2.59.46 1.17.42 2.48.71 3.7.29 1.22 1.1 2.5 2.34 2.64 1.25.15 2.3-.9 3.04-1.92 2.57-3.53 4-7.77 5.3-11.95 1.3-4.19 2.53-8.46 4.76-12.22 2.24-3.76 5.66-7.01 9.89-7.98 4.23-.96 9.23.9 11.02 4.91 1.79 4.02.06 8.7-2.03 12.56a67.691 67.691 0 01-11.63 15.56c-.83.83-1.72 1.72-1.9 2.89-.31 2.1 1.91 3.75 3.98 4.08 2.35.36 4.72-.27 7.09-.39s5.07.48 6.32 2.53c1.74 2.84-.27 6.47-2.43 8.99a57.859 57.859 0 01-15.23 12.6c-2.06 1.17-4.25 2.27-5.76 4.11-1.51 1.84-2.12 4.7-.7 6.62 1.43 1.92 4.28 2.13 6.51 1.32 2.23-.81 4.07-2.41 6.12-3.61 3.84-2.24 9.18-2.85 12.4.24 2.12 2.04 2.82 5.25 2.42 8.18-.4 2.92-1.77 5.61-3.27 8.14-5.27 8.82-12.63 16.45-21.58 21.35-8.92 4.86-17.58 7.25-27.61 5.39" fill="#f5f5f5"/><path d="M281.17 450.01c1.11-9.51 3.19-19.84 5.74-30.57.65-2.68 1.29-5.33 1.92-7.94.64-2.6 1.26-5.18 2.04-7.67 1.52-4.98 3.37-9.65 5.25-14.04 1.89-4.38 3.84-8.47 5.69-12.29 1.86-3.81 3.66-7.33 5.44-10.46 3.54-6.29 6.99-11.01 9.48-14.16 1.25-1.58 2.25-2.77 2.95-3.57.33-.38.6-.68.79-.9.18-.2.28-.3.28-.29.01.01-.07.12-.24.33-.19.23-.44.54-.75.94-.66.82-1.64 2.04-2.86 3.63-2.44 3.18-5.83 7.93-9.31 14.22-1.75 3.14-3.53 6.66-5.37 10.47-1.83 3.82-3.76 7.91-5.63 12.29-1.87 4.38-3.7 9.04-5.2 13.99-.76 2.47-1.39 5.03-2.02 7.64-.63 2.61-1.27 5.25-1.91 7.93-2.55 10.72-4.64 21.02-5.77 30.5" fill="#e0e0e0"/><path d="M291.02 403.79c-.04.01-.21-.42-.51-1.22-.3-.8-.69-1.97-1.15-3.42-.92-2.9-2.06-6.94-3.3-11.41-1.24-4.47-2.43-8.49-3.4-11.36-.48-1.44-.88-2.6-1.16-3.4-.28-.8-.42-1.25-.39-1.27.04-.01.24.41.59 1.19s.81 1.92 1.33 3.35c1.07 2.85 2.32 6.87 3.56 11.34 1.21 4.41 2.31 8.4 3.15 11.45.39 1.37.71 2.53.98 3.46.22.82.33 1.28.3 1.29z" fill="#e0e0e0"/><path d="M328.15 390.13c.01.04-.53.19-1.5.44s-2.37.61-4.09 1.11c-3.45.97-8.16 2.48-13.29 4.38-5.13 1.9-9.7 3.83-12.96 5.31-1.64.73-2.95 1.36-3.85 1.79-.91.43-1.42.65-1.43.62-.02-.04.46-.32 1.34-.82.88-.49 2.17-1.17 3.79-1.95 3.23-1.58 7.79-3.57 12.93-5.48 5.15-1.9 9.9-3.36 13.38-4.23 1.74-.45 3.16-.76 4.15-.94.98-.18 1.52-.27 1.53-.23zM281.52 449.23c-.02.01-.13-.13-.34-.42-.24-.35-.53-.77-.89-1.28-.77-1.11-1.84-2.75-3.13-4.79-2.59-4.08-6-9.83-9.67-16.22-3.67-6.4-7.02-12.17-9.52-16.3-1.22-2.01-2.23-3.66-2.98-4.88-.32-.53-.59-.97-.8-1.33-.18-.31-.26-.47-.25-.49.02-.01.13.14.34.42.24.35.53.77.89 1.28.77 1.11 1.84 2.75 3.13 4.79 2.59 4.08 6 9.83 9.67 16.23 3.67 6.39 7.02 12.17 9.52 16.3 1.23 2 2.23 3.66 2.98 4.88.32.53.59.97.8 1.33.18.3.27.47.25.48z" fill="#e0e0e0"/><path d="M329.7 424.18c.01.02-.15.12-.47.29-.38.2-.84.45-1.4.75-1.29.67-3.04 1.58-5.16 2.69-4.35 2.27-10.33 5.48-16.93 9.04-6.6 3.56-12.62 6.71-17.02 8.9-2.2 1.09-3.99 1.96-5.24 2.53-.58.26-1.05.48-1.44.65-.33.14-.51.21-.52.19-.01-.02.15-.12.47-.3.38-.2.84-.45 1.4-.75 1.29-.67 3.04-1.58 5.16-2.69 4.35-2.27 10.33-5.48 16.94-9.04 6.6-3.56 12.61-6.71 17.02-8.9 2.2-1.09 3.99-1.96 5.24-2.53.58-.26 1.05-.48 1.44-.65.32-.13.5-.2.51-.18z" fill="#e0e0e0"/><path d="M153.4 247.41s-11.88 1.65-5.21 27.67c6.67 26.02 12.33 39.43 12.33 39.43s.9 5.89-3.86 5.71c-4.75-.18-14.44-4.04-17.73 1.09-3.41 5.32-.43 11.72 7.02 18.43 7.45 6.71 23.24 22 24.66 23.39 1.4 1.36 2.46 4.25-.8 4.64-3.26.39-26.38-2.32-27.02 8.73-.63 11.05 23.2 26.32 25.77 28.04 2.57 1.72 2.98 3.06 2.4 4.56-.58 1.49-8.26-.15-14.87-.65-6.61-.5-14.36.07-14.19 6.48.17 6.41 12.68 22.6 49.19 34.63l17.28 4.47 12.77-12.58c25.7-28.59 28.51-48.85 25.48-54.5-3.04-5.64-10.05-2.29-15.54 1.43-5.49 3.72-11.34 8.97-12.58 7.96-1.24-1.01-1.56-2.38-.18-5.15 1.38-2.77 14.47-27.87 8.43-37.14-6.04-9.28-24.76 4.57-27.78 5.85-3.02 1.28-3.54-1.76-3-3.63.54-1.91 6.65-23.03 9.78-32.55 3.13-9.52 2.54-16.56-3.06-19.48-5.4-2.82-11.89 5.35-15.92 7.86-4.03 2.52-6.18-3.04-6.18-3.04s-1.75-14.45-8.9-40.35c-7.14-25.9-18.53-21.26-18.53-21.26" fill="#ebebeb"/><path d="M208.37 458.35c-5.17-19.04-13.79-53.03-21.35-82.18-7.55-29.14-14.41-55.51-19.49-74.58a129868.919 129868.919 0 00-7.67-28.71c-.18-.69-.31-1.22-.41-1.6-.09-.36-.12-.55-.12-.55s.07.18.18.54c.11.38.27.91.46 1.59.4 1.42.99 3.48 1.74 6.11 1.5 5.31 3.62 13.01 6.2 22.53 5.17 19.04 12.09 45.4 19.64 74.54 7.55 29.15 16.12 63.16 21.19 82.22" fill="#e0e0e0"/><path d="M152.27 327.26c.02-.03.42.19 1.14.61s1.73 1.06 2.98 1.86c2.49 1.61 5.88 3.91 9.57 6.53 3.63 2.59 6.91 4.93 9.43 6.72 1.14.8 2.1 1.48 2.87 2.02.68.47 1.05.75 1.03.78-.02.03-.43-.18-1.14-.6a74.06 74.06 0 01-2.97-1.88c-2.48-1.63-5.83-3.98-9.52-6.6-3.65-2.56-6.95-4.88-9.47-6.65-1.14-.8-2.1-1.47-2.88-2.01-.7-.47-1.06-.75-1.04-.78zM180.72 344.94c-.13-.08 4.32-7.27 9.93-16.06 5.62-8.79 10.27-15.85 10.4-15.77.13.08-4.32 7.27-9.94 16.06-5.61 8.79-10.26 15.85-10.39 15.77zM190.3 390.22c-.02-.03.32-.35.95-.92.72-.63 1.62-1.42 2.7-2.36 2.27-1.99 5.4-4.76 8.74-7.94 3.35-3.17 6.28-6.15 8.38-8.32.99-1.02 1.83-1.88 2.49-2.57.59-.6.93-.93.96-.9.03.03-.26.4-.8 1.05s-1.35 1.57-2.37 2.69a163.611 163.611 0 01-17.15 16.3c-1.17.96-2.13 1.72-2.81 2.23-.68.5-1.07.77-1.09.74zM161.05 379.89c.01-.04.43.07 1.18.29.86.27 1.92.59 3.16.98 2.66.85 6.33 2.06 10.37 3.43 4.04 1.37 7.69 2.64 10.32 3.58 1.22.45 2.26.83 3.11 1.15.73.28 1.13.46 1.12.49-.01.04-.43-.07-1.18-.29-.86-.27-1.92-.59-3.16-.98-2.66-.85-6.33-2.06-10.37-3.43a704.71 704.71 0 01-10.32-3.58c-1.22-.45-2.26-.83-3.11-1.15-.74-.28-1.14-.45-1.12-.49zM164.43 420.94c.01-.04.55.1 1.51.38 1.06.32 2.42.74 4.06 1.24 3.42 1.07 8.13 2.58 13.33 4.29 5.2 1.7 9.89 3.28 13.28 4.44 1.62.57 2.96 1.04 4 1.41.94.34 1.46.55 1.44.59-.01.04-.55-.1-1.51-.38-1.06-.32-2.42-.74-4.06-1.24-3.42-1.07-8.13-2.58-13.33-4.29-5.19-1.7-9.89-3.28-13.28-4.44-1.62-.57-2.96-1.04-4-1.41-.94-.35-1.46-.56-1.44-.59zM201.24 432.73c-.03-.03.39-.45 1.17-1.19l3.31-3.11c2.79-2.63 6.63-6.28 10.76-10.43 4.13-4.14 7.78-7.99 10.4-10.8 1.26-1.35 2.3-2.46 3.1-3.32.74-.78 1.16-1.2 1.19-1.18.03.03-.34.49-1.02 1.32-.69.83-1.7 2.01-2.98 3.44-2.55 2.88-6.15 6.77-10.29 10.93-4.13 4.16-8.03 7.77-10.89 10.33-1.43 1.28-2.61 2.3-3.43 2.99-.83.68-1.3 1.05-1.32 1.02z" fill="#e0e0e0"/><g fill="#f5f5f5"><path d="M101.8 92.24l-9.76-3.04s-2.56 8.19-11.12 5.68c-4.45-1.3-5.84-4.92-6.07-7.43-.28-2.91.97-5.75 3.16-7.69 2.51-2.21 6.91-3.56 13.12-.35l6.86-22-9.65-3.01-4.02 12.89s-14.63-.72-19.28 14.19c-4.45 14.27 7.31 21.58 12.79 23.29 4.2 1.3 18.78 4.74 23.97-12.53zM99.437 52.89l-9.794-3.055 2.853-9.145 9.794 3.056z"/></g><g fill="#ebebeb"><path d="M128.73 67.4l3.91-1.03s-.87-3.28 2.53-4.24c1.76-.5 2.99.42 3.59 1.21.71.92.88 2.13.56 3.24-.37 1.27-1.57 2.64-4.32 2.87l2.32 8.81 3.86-1.02-1.36-5.16s5.05-2.83 3.47-8.8c-1.51-5.71-6.98-5.69-9.18-5.11-1.66.44-7.27 2.35-5.38 9.23zM137.794 80.072l3.926-1.036.966 3.665-3.925 1.035z"/></g><g fill="#ebebeb"><path d="M451.54 168.61l3.8 1.38s1.16-3.19 4.49-2.05c1.73.59 2.22 2.05 2.27 3.04.06 1.16-.48 2.25-1.39 2.98-1.03.83-2.79 1.28-5.19-.1l-3.1 8.57 3.76 1.36 1.82-5.02s5.76.55 7.87-5.26c2.01-5.56-2.5-8.65-4.64-9.43-1.63-.59-7.33-2.2-9.69 4.53zM451.776 184.187l3.817 1.383-1.29 3.563-3.818-1.383z"/></g><g fill="#f5f5f5"><path d="M48.26 212.13l8.04-3.1s-2.6-6.75 4.37-9.58c3.62-1.47 6.43.19 7.9 1.73 1.71 1.78 2.37 4.3 1.94 6.73-.5 2.77-2.7 5.97-8.49 7.1L69 233.15l7.95-3.06-4.09-10.62s10.04-7.18 5.31-19.47c-4.53-11.76-16.13-10.43-20.64-8.69-3.45 1.32-14.89 6.69-9.27 20.82zM70.415 236.885l8.071-3.11 2.905 7.54-8.071 3.11z"/></g><g fill="#f5f5f5"><path d="M454.67 242.64l-5.7 2.2s1.84 4.79-3.1 6.79c-2.57 1.04-4.56-.14-5.6-1.22-1.21-1.26-1.68-3.05-1.37-4.77.35-1.97 1.91-4.23 6.01-5.03l-4.95-12.85-5.64 2.17 2.9 7.53s-7.12 5.09-3.76 13.8c3.21 8.33 11.43 7.39 14.63 6.16 2.46-.97 10.56-4.77 6.58-14.78zM438.98 225.1l-5.72 2.204-2.056-5.337 5.72-2.204z"/></g><g><path d="M470.77 463.77c0 .14-98.85.26-220.76.26-121.95 0-220.78-.12-220.78-.26s98.83-.26 220.78-.26c121.91 0 220.76.12 220.76.26z" fill="#263238"/></g><g><path d="M92.64 437.8c.95-3.68-1.46-7.37-4.17-10.04-2.7-2.67-5.93-5.06-7.34-8.59-2.28-5.72.78-13.12-3.1-17.89-2.29-2.81-6.39-3.74-8.42-6.74-1.06-1.57-1.41-3.5-1.83-5.36-2.13-9.45-6.86-18.29-13.53-25.32-.46 8.41 1.39 16.94 5.31 24.4 1.57 3 3.51 5.92 4.03 9.27.85 5.43-2.19 11.03-.85 16.37 1.53 6.1 8.38 10.19 8.71 16.47.27 5.31-4.35 9.97-4.01 15.28.15 2.26 1.2 4.36 2.36 6.3 4.11 6.83 10.14 11.53 19.28 11.37l11.2.39-7.64-25.91z" fill="#1e9ea7"/><path d="M92.64 437.8c.95-3.68-1.46-7.37-4.17-10.04-2.7-2.67-5.93-5.06-7.34-8.59-2.28-5.72.78-13.12-3.1-17.89-2.29-2.81-6.39-3.74-8.42-6.74-1.06-1.57-1.41-3.5-1.83-5.36-2.13-9.45-6.86-18.29-13.53-25.32-.46 8.41 1.39 16.94 5.31 24.4 1.57 3 3.51 5.92 4.03 9.27.85 5.43-2.19 11.03-.85 16.37 1.53 6.1 8.38 10.19 8.71 16.47.27 5.31-4.35 9.97-4.01 15.28.15 2.26 1.2 4.36 2.36 6.3 4.11 6.83 10.14 11.53 19.28 11.37l11.2.39-7.64-25.91z" opacity=".3"/><path d="M102.54 464.01s1.07.25 3.08-.07c1-.15 2.24-.41 3.64-.92 1.39-.51 2.98-1.23 4.49-2.46.73-.64 1.46-1.42 1.85-2.46.39-1.04.46-2.18.53-3.35.06-1.17.06-2.39.26-3.62.19-1.23.67-2.44 1.37-3.6 1.32-2.32 3.51-4.51 4.22-7.66.77-3.1.22-6.45-.3-9.82-.52-3.36-1.02-7.02.26-10.52 1.2-3.5 3.66-6.66 4.88-10.61 1.22-3.99.65-8.28.91-12.51.12-2.12.53-4.25 1.46-6.22.91-1.98 2.16-3.85 3.14-5.94 1.99-4.22 2.34-9 2.88-13.68.27-2.36.53-4.75.8-7.15.27-2.42.48-4.83 1.24-7.16.69-2.35 1.69-4.62 2.68-6.93.48-1.16 1-2.33 1.3-3.62.22-1.32.28-2.56.36-3.85.13-2.57.02-5.17-.3-7.75-.3-2.58-.77-5.15-1.05-7.74-.02-.15-.03-.31-.05-.45l-.06-.52-.46.23c-2.4 1.2-4.45 2.99-6.03 5.09-1.6 2.08-2.77 4.43-3.7 6.83-1.87 4.81-2.54 9.85-3.49 14.66-.92 4.81-2.13 9.54-4.6 13.54-1.23 1.99-2.71 3.81-4.01 5.76-1.3 1.93-2.44 4.05-2.78 6.38-.66 4.74 1.95 8.9 1.4 13.09-.19 2.08-1.02 4.03-2.04 5.81-1.02 1.79-2.21 3.45-3.35 5.12-1.13 1.67-2.21 3.36-3.01 5.17-.81 1.8-1.25 3.73-1.38 5.61-.27 3.78.26 7.36-.01 10.74-.23 3.39-1.42 6.46-2.76 9.2-1.35 2.76-2.86 5.25-4.12 7.66-.64 1.21-1.22 2.39-1.7 3.57-.51 1.18-.75 2.39-.98 3.54-.37 2.32-.33 4.48-.08 6.39.49 3.84 1.92 6.6 3.2 8.15.29.41.64.71.91.98.26.28.52.47.74.62.44.33.66.47.66.47.05-.06-.92-.57-2.17-2.14-1.23-1.56-2.6-4.3-3.04-8.1-.22-1.88-.24-4.02.14-6.3.24-1.13.49-2.31.99-3.46.48-1.16 1.07-2.33 1.71-3.52 1.27-2.39 2.79-4.88 4.18-7.65 1.37-2.76 2.61-5.89 2.86-9.36.29-3.45-.23-7.05.06-10.74.13-1.84.56-3.68 1.35-5.42.78-1.75 1.84-3.41 2.97-5.06 1.13-1.66 2.34-3.32 3.39-5.15 1.05-1.81 1.92-3.84 2.14-6.05.54-4.47-2.05-8.66-1.38-13.06.32-2.18 1.41-4.21 2.68-6.1 1.28-1.91 2.77-3.73 4.03-5.78 2.54-4.11 3.78-8.94 4.71-13.77.95-4.84 1.63-9.83 3.46-14.54.91-2.34 2.06-4.63 3.61-6.65 1.53-2.03 3.49-3.73 5.77-4.88l-.5-.28c.02.14.03.3.05.45.28 2.62.75 5.19 1.05 7.74.31 2.55.42 5.1.3 7.63-.07 1.25-.15 2.56-.34 3.74-.27 1.18-.78 2.34-1.26 3.49-.98 2.3-2 4.61-2.7 7.01-.78 2.39-1 4.89-1.26 7.28-.27 2.41-.53 4.8-.79 7.16-.54 4.71-.89 9.41-2.8 13.48-.95 2.03-2.2 3.9-3.13 5.95-.96 2.04-1.39 4.29-1.5 6.45-.24 4.32.32 8.55-.85 12.37-1.16 3.81-3.6 6.99-4.84 10.6-1.32 3.65-.77 7.43-.24 10.78.54 3.37 1.08 6.65.36 9.63-.65 3.01-2.78 5.18-4.12 7.57-.7 1.18-1.2 2.47-1.39 3.74-.2 1.28-.19 2.5-.24 3.67-.06 1.15-.12 2.28-.48 3.25-.35.97-1.04 1.73-1.74 2.36-1.46 1.21-3.02 1.95-4.39 2.47-1.38.52-2.6.81-3.59.97-.99.18-1.76.21-2.28.22-.51-.01-.78 0-.78 0z" fill="#263238"/><path d="M137.92 332.1c-.01 0-.05.11-.11.34-.07.27-.15.6-.25 1.01-.22.88-.48 2.21-.91 3.88-.44 1.66-1.46 3.54-2.32 5.85-.9 2.29-1.82 4.95-2.66 7.94-.85 2.99-1.61 6.3-2.4 9.85-.82 3.55-1.63 7.35-3.58 10.94-.92 1.82-1.95 3.66-2.77 5.67-.84 2.01-1.3 4.22-1.61 6.43-.54 4.44-1.35 8.94-2.41 13.55-2.25 9.18-4.38 17.92-6.33 25.87-1.99 7.93-3.79 15.08-5.31 21.1-1.47 5.97-2.67 10.82-3.52 14.24-.39 1.64-.7 2.94-.92 3.88-.09.41-.16.74-.22 1.01-.05.23-.06.35-.05.35.01 0 .05-.11.12-.33.08-.26.17-.59.29-1 .26-.93.61-2.22 1.05-3.85.9-3.41 2.17-8.24 3.74-14.19 1.56-6.01 3.41-13.15 5.46-21.06 1.97-7.96 4.12-16.7 6.39-25.88 1.06-4.6 1.88-9.19 2.41-13.6.31-2.19.74-4.32 1.55-6.27.79-1.96 1.81-3.79 2.73-5.63 1.97-3.65 2.79-7.57 3.57-11.1.77-3.56 1.49-6.87 2.31-9.85.81-2.98 1.68-5.64 2.55-7.93.82-2.31 1.81-4.2 2.22-5.92.39-1.7.6-3.02.78-3.92.07-.41.13-.75.18-1.02.02-.24.04-.36.02-.36z" fill="#263238"/><g><path d="M104.52 464.05c7.31-4.35 9.41-17.54 6.36-25.49-3.05-7.94-8.39-15.2-9.21-23.67-.63-6.51 1.5-13.19-.02-19.55-2.05-8.59-10.43-15.24-10.33-24.06.05-4.95 2.87-9.61 2.65-14.56-.28-6.07-4.93-10.88-7.82-16.23-4.42-8.18-4.71-17.86-6.22-27.03-1.51-9.17-5.01-19-13.14-23.51-1.2 7.79-3.25 13.12-2.61 23.68.23 3.79 4.63 11.04 5.23 19.35.36 4.96.61 9.94.91 14.9.3 4.83.61 9.76 2.34 14.28 1.33 3.47 3.46 6.61 4.45 10.19 1.85 6.73-.58 14.02.92 20.84 1.27 5.78 5.27 10.75 6.09 16.61 1.15 8.23-4.18 16.79-1.45 24.64 1.35 3.9 4.56 7.03 5.47 11.05.71 3.12-.06 6.43.58 9.56 1.03 5.05 10.67 8.98 15.81 8.66" fill="#1e9ea7"/><path d="M68.81 297.67c-.01 0 0 .15.03.44.04.33.1.75.16 1.28.17 1.12.36 2.78.74 4.91.41 2.15 1.52 4.57 2.4 7.48.93 2.91 1.86 6.26 2.68 10.02.83 3.75 1.53 7.91 2.27 12.38.76 4.44 1.53 9.34 3.75 13.99 1.03 2.34 2.18 4.68 3.04 7.17.89 2.48 1.29 5.16 1.54 7.9.38 5.52 1.11 11.26 2.15 17.04 2.24 11.54 4.37 22.53 6.32 32.54 2.05 9.97 3.89 18.95 5.44 26.51 1.57 7.5 2.84 13.59 3.73 17.86.45 2.07.8 3.69 1.05 4.85.12.52.22.94.29 1.26.07.28.11.43.12.42.01 0-.01-.15-.05-.44-.06-.32-.13-.74-.22-1.27-.22-1.16-.53-2.79-.92-4.87-.84-4.27-2.03-10.38-3.51-17.9-1.51-7.57-3.3-16.56-5.29-26.54-1.92-10-4.04-20.99-6.26-32.53-1.03-5.79-1.76-11.44-2.15-16.98-.26-2.76-.68-5.52-1.6-8.06-.89-2.55-2.06-4.9-3.08-7.21-2.2-4.59-2.98-9.37-3.77-13.83-.76-4.46-1.49-8.63-2.36-12.39-.86-3.76-1.82-7.12-2.8-10.03-.93-2.93-2.07-5.32-2.51-7.42-.42-2.1-.65-3.77-.87-4.88-.1-.53-.18-.94-.24-1.27-.03-.28-.07-.43-.08-.43z" fill="#263238"/></g></g><g><g fill="#1e9ea7"><path d="M421.47 88.77h-3.98s0 3.34-3.47 3.4c-1.8.03-2.74-1.15-3.12-2.06-.44-1.05-.31-2.25.28-3.22.68-1.11 2.15-2.13 4.84-1.65v-8.98h-3.94v5.26s-5.52 1.43-5.52 7.51c0 5.82 5.22 7.17 7.45 7.17 1.72.01 7.54-.4 7.46-7.43zM416.03 74.416h-3.99v-3.73h3.99z"/></g><path d="M443.28 83.45c.01 0 .01-.17.01-.5-.01-.37-.02-.86-.04-1.48-.02-.33-.01-.69-.05-1.09-.06-.4-.12-.84-.18-1.31-.07-.47-.14-.98-.22-1.52-.13-.53-.27-1.1-.42-1.7-.62-2.39-1.67-5.29-3.6-8.25-1.9-2.96-4.62-6.04-8.31-8.53-3.7-2.45-8.35-4.34-13.58-4.84-1.31-.05-2.64-.21-3.99-.08-.67.05-1.36.03-2.04.13-.68.1-1.37.21-2.06.31-2.73.56-5.52 1.37-8.12 2.77a31.187 31.187 0 00-7.3 5.3c-2.16 2.2-4.04 4.78-5.49 7.64-1.46 2.86-2.47 6.02-2.86 9.31-.16.82-.16 1.65-.21 2.48-.05.83-.09 1.67-.05 2.51.07 1.68.28 3.37.64 5.03a29.36 29.36 0 004.21 10.01l-.03-.3c-1.39 3.47-2.76 6.88-4.09 10.2l-.24.6.63-.17c3.74-1.03 7.38-2.03 10.91-3l-.27-.05c3.8 2.86 8.15 4.69 12.46 5.44 2.15.38 4.31.54 6.38.4 1.04-.04 2.07-.09 3.07-.29.5-.08 1-.15 1.49-.23.49-.09.97-.24 1.44-.36 7.68-1.97 13.35-6.7 16.59-11.38 1.65-2.34 2.84-4.66 3.57-6.77.19-.53.37-1.04.55-1.53.13-.5.25-.99.37-1.45.11-.46.22-.9.33-1.33.08-.43.13-.84.18-1.22.1-.77.23-1.45.26-2.04.02-.58.04-1.08.05-1.5.01-.38.02-.68.02-.92 0-.19-.01-.29-.01-.29-.01 0-.02.1-.04.31-.02.23-.04.53-.07.91-.03.41-.06.91-.1 1.49-.05.59-.19 1.26-.31 2.02-.55 3-1.75 7.5-5.11 12.1-3.25 4.59-8.86 9.2-16.41 11.09-.47.11-.94.26-1.42.34-.49.07-.97.15-1.47.22-.98.19-1.99.23-3.01.27-2.04.13-4.15-.03-6.26-.41-4.22-.76-8.47-2.56-12.19-5.37l-.12-.09-.15.04c-3.52.96-7.17 1.95-10.91 2.98l.38.43c1.34-3.32 2.71-6.73 4.11-10.2l.06-.16-.1-.14a28.927 28.927 0 01-4.12-9.79c-.35-1.63-.55-3.27-.62-4.92-.04-.82-.01-1.64.04-2.46.05-.81.05-1.63.2-2.43a27.06 27.06 0 012.79-9.11c1.41-2.8 3.24-5.32 5.36-7.49 2.16-2.12 4.58-3.86 7.13-5.21 2.54-1.38 5.28-2.19 7.95-2.74.68-.1 1.35-.21 2.01-.31.67-.1 1.34-.09 2-.14 1.33-.13 2.63.02 3.92.06 5.13.47 9.71 2.3 13.37 4.68 3.65 2.43 6.36 5.44 8.26 8.35 1.94 2.91 3.01 5.76 3.66 8.12.16.59.31 1.15.45 1.68.09.54.17 1.04.25 1.51.08.47.15.9.21 1.29.04.4.05.76.08 1.08.05.62.08 1.11.11 1.47.03.36.05.53.07.53z" fill="#263238"/></g><g><path d="M145.07 201.38h57.75s0-48.49 50.39-49.36c26.17-.45 39.74 16.69 45.25 29.83 6.4 15.25 4.46 32.63-4.11 46.78-9.8 16.15-30.89 32.38-69.81 25.52l-.37 128.67h57.11v-76.28s80.09-20.7 80.09-108.97c0-84.45-68.29-102.69-105-103.87-20.42-.65-27.83-1.53-53.09 2.06-32.18 4.57-58.89 41.95-58.21 105.62zM224.01 409.64h57.96v54.13h-57.96z" fill="#f7a246"/><path opacity=".1" d="M224.01 409.64h57.96v54.13h-57.96zM145.07 201.38h57.75s0-48.49 50.39-49.36c26.17-.45 39.74 16.69 45.25 29.83 6.4 15.25 4.46 32.63-4.11 46.78-9.8 16.15-30.89 32.38-69.81 25.52l-.37 128.67h57.11v-76.28s80.09-20.7 80.09-108.97c0-84.45-68.29-102.69-105-103.87-20.42-.65-27.83-1.53-53.09 2.06-32.18 4.57-58.89 41.95-58.21 105.62z"/><path d="M121.14 201.38h57.75s0-48.49 50.39-49.36c26.17-.45 39.74 16.69 45.25 29.83 6.4 15.25 4.46 32.63-4.11 46.78-9.8 16.15-31.26 30.83-70.18 23.97v130.22h57.11v-76.28s80.09-20.7 80.09-108.97c0-84.45-75.73-104.07-108.15-104.06-24.78 0-109.24 5.99-108.15 107.87z" fill="#f7a246"/><path d="M121.14 201.38h57.75s0-48.49 50.39-49.36c26.17-.45 39.74 16.69 45.25 29.83 6.4 15.25 4.46 32.63-4.11 46.78-9.8 16.15-31.26 30.83-70.18 23.97v130.22h57.11v-76.28s80.09-20.7 80.09-108.97c0-84.45-75.73-104.07-108.15-104.06-24.78 0-109.24 5.99-108.15 107.87z" opacity=".3"/><path fill="#f7a246" d="M200.09 409.64h57.96v54.13h-57.96z"/><path opacity=".3" d="M200.09 409.64h57.96v54.13h-57.96z"/><g><path d="M235.81 152.29c0 .02-.3 0-.86-.05-.57-.03-1.39-.19-2.46-.2-2.14-.14-5.25-.09-9.06.38-3.8.48-8.29 1.42-13.07 3.07-2.38.86-4.85 1.84-7.28 3.13-2.45 1.24-4.88 2.76-7.12 4.61-2.26 1.83-4.17 3.97-5.83 6.16a58.951 58.951 0 00-4.37 6.62c-2.46 4.43-4.13 8.7-5.17 12.39-1.06 3.68-1.53 6.76-1.74 8.89-.12 1.07-.16 1.9-.18 2.46-.03.56-.06.86-.08.86-.02 0-.03-.3-.03-.86 0-.57 0-1.4.09-2.48.15-2.15.56-5.26 1.58-8.98 1-3.72 2.65-8.04 5.11-12.52a59.38 59.38 0 014.38-6.7c1.67-2.21 3.6-4.39 5.9-6.25 2.28-1.88 4.74-3.41 7.22-4.66 2.46-1.3 4.96-2.28 7.36-3.13 4.83-1.65 9.36-2.56 13.19-2.99 3.83-.42 6.97-.42 9.11-.21 1.08.04 1.9.24 2.46.3.56.09.86.15.85.16z" fill="#263238"/></g><g><path d="M322.83 141.98c-.01 0-.07-.07-.19-.23-.13-.18-.3-.41-.51-.7-.46-.65-1.09-1.55-1.9-2.7-.42-.58-.85-1.25-1.38-1.94-.56-.67-1.16-1.4-1.8-2.19l-2.07-2.52c-.75-.87-1.63-1.72-2.5-2.66-.9-.91-1.79-1.92-2.8-2.88-1.04-.94-2.11-1.91-3.23-2.92-.56-.5-1.11-1.03-1.71-1.53-.61-.48-1.23-.97-1.86-1.47-1.27-.98-2.53-2.04-3.9-3.03-5.48-3.97-11.89-7.79-18.92-11.18-1.78-.8-3.54-1.6-5.27-2.38-1.77-.69-3.52-1.37-5.24-2.03-1.7-.71-3.44-1.21-5.12-1.76-1.69-.52-3.32-1.13-4.97-1.52-1.64-.43-3.23-.85-4.78-1.26-1.55-.41-3.09-.65-4.56-.97-1.48-.28-2.89-.64-4.28-.82-1.38-.2-2.71-.39-3.98-.58-2.53-.43-4.85-.52-6.87-.72-1.01-.08-1.96-.19-2.83-.23-.87-.02-1.66-.04-2.38-.06-1.4-.05-2.51-.08-3.3-.11-.35-.02-.64-.03-.86-.04-.19-.01-.29-.02-.29-.03 0-.01.1-.02.29-.02.22 0 .51-.01.86-.01.79 0 1.9 0 3.3.01.72.01 1.52.01 2.39.02.87.03 1.82.12 2.83.19 2.03.18 4.36.24 6.9.65 1.27.17 2.61.35 3.99.54 1.39.16 2.81.52 4.3.79 1.48.31 3.02.55 4.58.95 1.56.4 3.16.82 4.81 1.24 1.66.38 3.29.98 4.99 1.51 1.69.55 3.44 1.05 5.15 1.76 1.72.67 3.48 1.34 5.26 2.03 1.74.79 3.51 1.58 5.29 2.39 7.06 3.4 13.49 7.25 18.98 11.26 1.38.99 2.64 2.07 3.91 3.06.63.5 1.25 1 1.86 1.48.6.5 1.15 1.04 1.71 1.54 1.11 1.02 2.19 2.01 3.22 2.95 1.01.97 1.9 1.99 2.79 2.91.87.94 1.74 1.81 2.49 2.69.72.9 1.41 1.75 2.04 2.55.64.8 1.23 1.54 1.77 2.22.51.71.94 1.38 1.34 1.98.78 1.17 1.39 2.1 1.82 2.76.19.3.34.54.46.72.13.2.18.29.17.29z" fill="#263238"/></g><g><path d="M316.81 265.98c.01.01-.14.22-.44.6-.34.42-.78.97-1.33 1.66-.58.72-1.3 1.59-2.18 2.56-.88.98-1.84 2.12-3.01 3.29-1.14 1.2-2.39 2.5-3.81 3.83-1.38 1.37-2.94 2.74-4.57 4.2-3.31 2.85-7.08 5.84-11.22 8.72-4.16 2.85-8.3 5.31-12.14 7.39-1.94 1-3.78 1.98-5.55 2.78-1.75.85-3.41 1.56-4.94 2.2-1.51.67-2.92 1.17-4.14 1.64-1.22.48-2.29.84-3.17 1.13-.84.27-1.51.49-2.02.66-.46.14-.71.21-.72.19-.01-.02.23-.12.68-.29.5-.19 1.16-.44 1.99-.75.87-.31 1.92-.7 3.13-1.21 1.21-.5 2.61-1.02 4.1-1.71 1.51-.66 3.16-1.38 4.89-2.25 1.76-.81 3.58-1.8 5.51-2.81 3.82-2.09 7.92-4.56 12.07-7.4 4.13-2.86 7.89-5.83 11.2-8.65 1.63-1.44 3.2-2.79 4.58-4.15 1.42-1.31 2.69-2.6 3.84-3.77 1.18-1.15 2.16-2.27 3.05-3.23.9-.95 1.64-1.8 2.24-2.5.58-.66 1.05-1.19 1.41-1.59.36-.37.54-.55.55-.54z" fill="#263238"/></g><g><path d="M256.35 378.28c-.14 0-.26-16.06-.26-35.87 0-19.82.12-35.88.26-35.88s.26 16.06.26 35.88c0 19.81-.12 35.87-.26 35.87z" fill="#263238"/></g><g><path d="M258.55 460.1c-.14 0-.26-11.27-.26-25.17 0-13.91.12-25.18.26-25.18s.26 11.27.26 25.18c0 13.9-.12 25.17-.26 25.17z" fill="#263238"/></g></g><g><path d="M315.4 193.71c-1.01 2.01 2.73 3.64 4.88 4.29 2.16.65 4.46.58 6.7.46 2.98-.16 6.07-.44 8.66-1.92 2.3-1.32 4.02-3.49 5.22-5.85 1.2-2.37 1.93-4.94 2.65-7.49.01 0-23.62 1.54-28.11 10.51z" fill="#f7a246"/><path d="M315.4 193.71c-1.01 2.01 2.73 3.64 4.88 4.29 2.16.65 4.46.58 6.7.46 2.98-.16 6.07-.44 8.66-1.92 2.3-1.32 4.02-3.49 5.22-5.85 1.2-2.37 1.93-4.94 2.65-7.49.01 0-23.62 1.54-28.11 10.51z" opacity=".4"/><path d="M382.14 187.31c3.86 2.75 8.6 4.24 13.34 4.19 2.27-.03 4.68-.47 6.35-2 .77-.7 1.35-1.61 2.14-2.28.54-.46 1.17-.81 1.68-1.31s.89-1.21.74-1.9c-.16-.71-.75-1.85-1.38-2.21-2.71-1.54-5.95-1.48-9.07-1.41-3.12.07-6.19.8-9.15 1.79-2.42.81-4.95 1.96-6.18 4.2" fill="#f7a246"/><path d="M406.38 184.01c-.16-.71-1.14-1.65-1.77-2.01-2.71-1.54-5.56-1.68-8.68-1.61-3.12.07-6.19.8-9.15 1.79-2.42.81-4.95 1.96-6.18 4.2l1.54.92c3.86 2.75 8.6 4.24 13.34 4.19 2.27-.03 4.67-.47 6.35-2 .77-.7 1.35-1.61 2.14-2.28.54-.46 1.17-.81 1.68-1.31.5-.49.89-1.2.73-1.89z" opacity=".4"/><path d="M336.02 223.2l49.85.65c.44.01.75-.42.62-.84l-5.85-18.24s.86-9.11 2.05-20.08c1.81-16.64 4.21-37.57 4.24-37.52-3.4-9.56-23.52-11.18-23.52-11.18l-22.93 1.36-.81-1.35-6.6 3.07a31.15 31.15 0 00-4.14 2.33c-4.35 2.92-14.86 9.6-16.78 17.06-4.43 17.24 3.07 36.49 3.07 36.49l4.81-3.76c1.26-.95 2.45-1.78 3.82-2.55l9.66 25.89s-2.01 1.22-2.1 3.32c-.06 2.11 1.06 4.63 4.61 5.35" fill="#f7a246"/><path d="M357.39 192.68c1.58-8.5.75-17.24-.1-25.84-2.77 7.04-2.67 14.97-5.6 21.94-.32.75-.67 1.5-.78 2.31-.11.81.06 1.7.67 2.25.8.73 1.98.34 3.05.21 1.14-.13 1.74-.52 2.76-.87" opacity=".3"/><path d="M339.03 212.36c4.02 1.4 8.26-1.19 12.49-1.65 2.8-.3 5.6.34 8.38.79a62.86 62.86 0 0017 .42c.86-.1 1.75-.22 2.5-.65.76-.43 1.36-1.62 1.31-2.48-9.41-.97-18.83-1.54-28.24-2.51-2.36-.24-4.8-.48-7.06.22-2.85.88-5.04 3.12-7.04 5.32" opacity=".4"/><path d="M404.94 180.72c-4.08-9.16-18.42-34.52-18.42-34.52l-11.11 13.93 2.59 27.35s5.87-6.55 22.28-6.68c3.82-.03 6.11 3.22 6.11 3.22l-1.45-3.3z" fill="#f7a246"/><path d="M338.23 175.87c-.14.04-.98-2.64-1.87-5.98-.9-3.34-1.51-6.08-1.37-6.12.14-.04.98 2.64 1.87 5.98.89 3.35 1.51 6.09 1.37 6.12zM374.57 158.27c.02-.03.39.29 1.03.87.62.6 1.51 1.5 2.48 2.72 1.94 2.4 4.31 6.16 5.31 10.86.5 2.34.58 4.64.32 6.7-.26 2.05-.65 3.85-.9 5.37-.26 1.52-.42 2.76-.5 3.62-.08.86-.1 1.34-.14 1.34-.03 0-.08-.48-.06-1.35.02-.87.12-2.13.34-3.66.21-1.54.56-3.35.79-5.37.23-2.01.13-4.25-.35-6.53-.97-4.59-3.24-8.31-5.09-10.74-1.87-2.47-3.31-3.75-3.23-3.83zM364.39 221.02c.01.04-.38.15-1.09.32-.35.09-.79.19-1.3.25-.51.07-1.09.18-1.75.21-1.3.13-2.86.12-4.58-.03-1.72-.18-3.59-.52-5.5-1.1-1.9-.6-3.64-1.38-5.16-2.21-1.5-.85-2.79-1.73-3.79-2.57-.52-.39-.94-.81-1.32-1.16-.39-.34-.69-.67-.93-.95-.49-.54-.74-.85-.72-.87.07-.07 1.15 1.13 3.19 2.69 1.01.79 2.3 1.62 3.79 2.44 1.5.79 3.22 1.54 5.08 2.13 1.87.57 3.71.92 5.4 1.12 1.69.17 3.22.21 4.51.14 2.58-.13 4.15-.51 4.17-.41zM379.78 215.32c.06-.01.26.53.38 1.46.12.92.14 2.25-.27 3.64-.4 1.4-1.23 2.5-1.96 3.1-.73.61-1.29.8-1.32.75-.04-.07.44-.38 1.07-1.02a7.12 7.12 0 001.71-2.98c.77-2.64.2-4.94.39-4.95zM377.07 218.84c.13-.03.39 1.43-.25 3.08-.63 1.65-1.81 2.55-1.89 2.44-.11-.11.82-1.1 1.4-2.63.61-1.52.59-2.88.74-2.89zM368.15 185.94c.11.11-.82 1.15-1.78 2.56-.97 1.4-1.61 2.64-1.75 2.58-.13-.05.32-1.42 1.32-2.87.99-1.46 2.11-2.37 2.21-2.27zM333.93 161.72c-.06.06-.85-.57-2.21-1.46-1.36-.89-3.33-1.99-5.66-2.87-2.33-.86-4.54-1.32-6.15-1.54-1.61-.22-2.63-.26-2.63-.34 0-.06 1.02-.15 2.67-.02s3.92.54 6.29 1.42c2.37.89 4.36 2.07 5.68 3.05 1.34.98 2.05 1.72 2.01 1.76zM386.52 145.86c.1.14-2.6 1.78-5.05 4.73-2.48 2.92-3.65 5.86-3.8 5.79-.06-.02.15-.78.7-1.94.54-1.15 1.45-2.68 2.7-4.18 1.26-1.49 2.61-2.65 3.66-3.38 1.05-.74 1.76-1.08 1.79-1.02zM365.94 137.62c.02-.01.09.15.23.46.15.31.3.78.47 1.4.32 1.24.49 3.15-.02 5.42-.52 2.24-1.77 4.84-4.08 6.89-2.29 2.06-5.67 3.29-9.2 3.28-3.54-.02-6.87-1.24-9.29-3.1-2.45-1.85-4.08-4.15-5.11-6.2-1.02-2.07-1.49-3.89-1.7-5.15-.1-.63-.17-1.13-.18-1.46-.02-.34-.03-.51-.01-.51.05-.01.11.7.39 1.94.27 1.24.79 3.01 1.83 5.02 1.06 1.98 2.67 4.21 5.07 5.98 2.36 1.79 5.58 2.94 9.01 2.97 3.42.01 6.67-1.16 8.88-3.12 2.24-1.95 3.49-4.45 4.04-6.62.54-2.19.43-4.05.18-5.29-.27-1.25-.57-1.89-.51-1.91z" fill="#263238"/><path d="M369.44 187.71c-.02-.5-.08-1.09-.51-1.34-.27-.16-.62-.12-.91.02-.28.14-.51.37-.72.6-1.21 1.31-2.06 2.59-2.67 4.27l4.9-.42c-.04-1.04-.06-2.1-.09-3.13z" opacity=".3"/><g opacity=".3"><path d="M385.71 177.4c-.38-2.8-1.81-5.37-3.55-7.6 2.11 6.92 1.4 10.83.22 15.56l.26-.66c1.35-2.76 3.44-4.5 3.07-7.3z"/></g><g><path fill="#ffbe9d" d="M375.92 409.86l-2.99 44.85-19.5-.23-3.08-46.63z"/><path d="M373.48 448.81v1.3s21.98 8.85 22.21 13.02l-43.66-.26.68-14.52c6.48 3.04 13.27 3.42 20.77.46z" fill="#f7a246"/><path d="M357.11 453.02c-.85.23-1.44 1.17-1.24 2.03.19.86 1.15 1.46 2 1.25.85-.21 1.59-1.33 1.31-2.15-.29-.83-1.45-1.48-2.22-1.07" fill="#fff"/><path d="M352.04 462.87l.16-3.49 41.79 1.52s1.94.86 1.71 2.22l-43.66-.25zM373.64 450.23c-.01.21-1.07.3-2.13.98-1.07.65-1.62 1.57-1.81 1.49-.2-.04.13-1.32 1.42-2.12 1.28-.81 2.57-.55 2.52-.35zM378.21 452.15c.05.21-.88.56-1.61 1.46-.76.88-.94 1.85-1.16 1.84-.2.03-.34-1.22.59-2.32.92-1.1 2.17-1.18 2.18-.98zM380.78 457.65c-.19.04-.48-1.02.07-2.19s1.55-1.62 1.64-1.45c.12.18-.53.8-.97 1.76-.47.96-.53 1.86-.74 1.88z" fill="#263238"/></g><g><path d="M372.36 81.85c1.12-2.8-.24-6.2-2.67-7.99-2.43-1.79-5.68-2.18-8.66-1.7-2.98.47-5.78 1.72-8.54 2.95-2.5-2.51-6.46-3.47-9.83-2.37s-6 4.2-6.54 7.71c-2.15-.55-4.57.19-6.06 1.83-1.49 1.65-1.97 4.13-1.2 6.21l13.52 4.75 14.76 25.97c4.32 3.68 11.37 3.58 15.58-.22 4.21-3.8 5.02-10.82 1.79-15.48.83-.73 1.52-1.61 2.07-2.56 2.34-1.45 4.17-3.7 4.78-6.4 1.29-5.7-3.19-12.02-9-12.7z" fill="#263238"/><path d="M363.41 136c-.84-4.23-1.42-7.12-1.42-7.09 0 0 7.97-3.1 7.42-14.24-.27-5.54-2.39-14.26-4.34-21.35-1.76-6.38-7.71-13.41-14.01-11.38l-19.04 9.3c-1.91.62-2.25 2.41-1.8 4.37l.03.96 7.41 30.66 3.13 13.7c1.39 5.83 6.99 9.64 12.92 8.78 6.57-.95 10.99-7.21 9.7-13.71z" fill="#ffbe9d"/><path d="M364.95 100.72c.18.72-.29 1.47-1.04 1.67-.75.2-1.51-.22-1.69-.95-.18-.72.29-1.47 1.04-1.67.75-.2 1.51.23 1.69.95zM364.13 98.59c-.13.22-1.34-.34-2.83-.02-1.49.29-2.42 1.29-2.62 1.14-.1-.06.01-.43.41-.87.4-.44 1.12-.94 2.05-1.14.93-.19 1.78-.01 2.3.24.53.26.75.56.69.65zM350.48 104.04c.18.72-.29 1.47-1.04 1.67-.75.2-1.51-.22-1.69-.95-.18-.72.29-1.47 1.04-1.67.75-.2 1.51.23 1.69.95zM349.75 102.12c-.13.22-1.34-.34-2.83-.02-1.49.29-2.42 1.29-2.62 1.14-.1-.06.01-.43.41-.87.4-.44 1.12-.94 2.05-1.14.93-.19 1.78-.01 2.3.24.53.26.76.55.69.65zM357.28 111.52c-.02-.08.87-.44 2.32-.94.37-.12.71-.27.72-.54.03-.29-.21-.67-.49-1.07-.55-.84-1.13-1.73-1.73-2.66-2.42-3.79-4.26-6.94-4.11-7.03.15-.1 2.24 2.9 4.66 6.69.59.94 1.15 1.83 1.69 2.68.23.4.58.84.51 1.45-.04.31-.28.57-.51.69-.23.13-.44.17-.63.22-1.47.4-2.41.6-2.43.51z" fill="#263238"/><path d="M362 128.9s-7.15 1.99-15.24-.82c0 0 5.23 6.84 15.81 3.57l-.57-2.75z" fill="#eb996e"/><g><path d="M350.03 100c-.1.43-1.63.42-3.37.85-1.75.39-3.12 1.09-3.4.75-.13-.16.08-.58.6-1.05.52-.47 1.39-.95 2.44-1.2s2.04-.2 2.72-.01c.68.17 1.05.46 1.01.66z" fill="#263238"/></g><g><path d="M363.56 93.87c-.24.4-1.52.31-2.98.6-1.47.25-2.64.79-3 .5-.16-.15-.04-.52.44-.96.46-.43 1.3-.88 2.31-1.06 1.01-.18 1.94-.06 2.52.18.57.23.81.54.71.74z" fill="#263238"/></g><g><path d="M336.71 84.08a7.635 7.635 0 003.82 5.13c1.94 1.04 4.35 1.17 6.39.34 1.58-.64 3.22-1.85 4.82-1.27 1.69.61 2.22 2.86 3.79 3.74 2.24 1.25 4.94-.92 7.5-.7 1.98.17 3.51 1.71 5.06 2.95 1.55 1.24 3.7 2.28 5.45 1.34-.47-1.65-.94-3.32-1.77-4.82-.83-1.5-2.07-2.84-3.66-3.46-.88-.34-1.83-.46-2.67-.89-1.81-.93-2.61-3.03-3.93-4.57-1.7-1.99-4.4-3.08-7-2.81-2.17.22-4.22 1.31-6.39 1.22-1.61-.07-3.15-.78-4.76-.76-3.13.05-5.49 2.8-7.23 5.4" fill="#263238"/></g><path d="M347.25 86.37c-1.43-.11-4.38-.41-5.35-1.43-2.1-2.22-5.24-3.38-8.04-2.64-2.8.74-5.06 3.55-5.02 6.66-3.43.74-6.33 3.59-7.3 7.17-.97 3.58.02 7.76 2.5 10.5.65.72 1.64 2.38 1.64 2.38s-1.29 1.61-1.78 2.7c-2.28 5.06 3.92 7 3.92 7 .02 3.4 3.15 3.39 5.16 3.37 1.93-.01 3.12 5.35 4.69 5.14l-1.59-16.56c.19.08.43.13.73.13 3.79.07 2.8-7.1 1.57-8.96 1.07-1.43 2.15-2.89 2.84-4.57.69-1.69.74-5.9.15-7.67 1.33-.19 6.5-3.18 5.88-3.22z" fill="#263238"/><g><path d="M336.64 111.54c-.59-2.27-3.41-3.28-5.16-1.72-.96.86-1.53 2.3-.93 4.71 1.61 6.44 7.74 3.49 7.71 3.3-.01-.11-.92-3.63-1.62-6.29z" fill="#ffbe9d"/><path d="M335.69 115.89c-.03-.01-.09.11-.26.24-.16.13-.47.27-.83.23-.74-.08-1.59-1.02-1.91-2.17-.16-.58-.18-1.17-.09-1.68.08-.52.3-.93.63-1.07a.6.6 0 01.74.14c.13.16.12.3.16.3.02.01.11-.14-.01-.4a.767.767 0 00-.35-.34c-.19-.09-.43-.09-.66-.01-.49.16-.82.73-.92 1.29-.13.57-.12 1.24.06 1.89.37 1.29 1.34 2.33 2.33 2.37.48 0 .83-.23.98-.43.16-.2.16-.35.13-.36z" fill="#eb996e"/></g><g><path d="M371.17 102.55c-.04-.05.58-.45 1.4-1.45.8-1 1.78-2.69 2.01-5 .11-1.14.05-2.43-.36-3.71-.41-1.27-1.15-2.56-2.29-3.55-2.22-2.02-5.89-2.95-9.19-1.79-.3.1-.58.25-.87.37-.27.14-.53.3-.79.45l-.4.22-.01-.44c-.01-.78-.3-1.53-.81-2.1-.5-.58-1.15-1.02-1.85-1.32-1.4-.62-2.91-.63-4.29-.31-2.76.63-5.1 1.89-7.31 2.14-2.19.28-4.01-.26-4.99-1-.51-.35-.79-.75-.98-1-.16-.28-.24-.42-.22-.43.05-.04.32.61 1.31 1.27.97.66 2.72 1.12 4.83.81 1.05-.15 2.17-.53 3.36-.97 1.19-.44 2.47-.96 3.9-1.28.72-.15 1.47-.27 2.26-.23.78.04 1.57.22 2.33.54.75.32 1.47.8 2.04 1.45.58.64.93 1.53.94 2.44l-.4-.22c.27-.15.55-.33.84-.48.3-.13.6-.29.92-.39 3.51-1.23 7.35-.23 9.69 1.92 1.19 1.06 1.97 2.44 2.38 3.78.41 1.35.45 2.69.31 3.88-.28 2.39-1.35 4.11-2.22 5.09-.44.49-.83.84-1.12 1.03-.25.2-.41.29-.42.28z" fill="#455a64"/></g><g><path d="M369.87 79.94c-.04.07-.68-.51-2.07-.71-.68-.09-1.55-.09-2.46.22-.91.28-1.87.89-2.53 1.84l-.24.35-.15-.4c-.81-2.16-3.17-4.21-6.1-4.53-2.2-.25-4.2.74-5.86 1.69-1.68.98-3.21 1.94-4.65 2.4-1.42.5-2.69.56-3.52.41-.42-.07-.73-.17-.93-.26-.2-.09-.31-.14-.3-.16.02-.05.45.13 1.26.21.81.08 2-.03 3.37-.56 1.38-.49 2.84-1.45 4.53-2.47.85-.5 1.77-1.01 2.8-1.37 1.03-.37 2.19-.55 3.36-.43 3.14.35 5.64 2.56 6.46 4.89l-.4-.05a5.14 5.14 0 012.8-1.94c.98-.3 1.9-.26 2.61-.13.72.14 1.24.4 1.57.6.31.25.46.39.45.4z" fill="#455a64"/></g><path d="M356.7 114.48c-.45-.44-1.13-.58-1.76-.51-.59.07-1.31.59-1.69 1.23-.01.01-.02.02-.03.04-.02.03-.04.05-.06.08l.02-.02c-.14.23-.22.49-.19.76.06.59.51 1.09 1.04 1.35.84.42 1.96.3 2.62-.38.69-.68.73-1.89.05-2.55z" fill="#f7a246"/><g><path d="M357.2 117.59c-.08.02-.18-.3-.44-.72s-.73-.94-1.39-1.25c-.67-.3-1.37-.31-1.85-.23-.49.07-.79.21-.83.14-.04-.05.21-.31.74-.49.52-.19 1.35-.25 2.16.11.8.37 1.3 1.04 1.5 1.55.21.53.18.88.11.89z" fill="#263238"/></g><g><path d="M336.79 118.83c.05-.03.29.5-.09 1.26-.19.36-.53.76-1.07.96-.53.21-1.22.13-1.76-.21-.55-.34-.91-.92-.95-1.5-.05-.57.17-1.05.41-1.38.52-.67 1.1-.68 1.1-.62.03.08-.44.23-.79.83-.17.29-.3.7-.24 1.12.05.42.33.84.75 1.11.42.26.93.33 1.33.2.41-.13.72-.42.91-.7.39-.58.32-1.07.4-1.07z" fill="#f7a246"/></g><g><path d="M333.42 118.44c.06.03-.03.34-.47.55-.21.1-.51.16-.83.08-.33-.08-.64-.32-.82-.65-.18-.33-.21-.73-.1-1.04.11-.31.32-.53.52-.65.42-.25.73-.15.72-.09.01.08-.25.13-.49.38-.26.24-.44.71-.19 1.15.24.45.73.55 1.07.47.34-.06.52-.24.59-.2z" fill="#f7a246"/></g></g><g><path d="M344.41 207.25s24.76 1.44 39.39 1.57c11.34.1 16.39-2.91 18.65-10.19 1.9-6.12-2.19-17.84-2.19-17.84-7.66.04-12.4 1.1-17.33 3.41l1.31 5.36-39.9 3.44.07 14.25z" fill="#ffbe9d"/><path d="M392.58 195.28c-.14.09-1.3-2.08-3.74-3.71-2.41-1.67-4.86-1.96-4.82-2.12.01-.06.62-.08 1.59.14.96.21 2.27.7 3.52 1.56 1.25.86 2.19 1.89 2.73 2.71.57.82.78 1.39.72 1.42z" fill="#eb996e"/><path d="M335.35 184.16s-7.66 1.84-13.28 5.6l5.98 16.26c2 5.34 8.12 7.96 12.96 5.19 7.53-4.3 10.19-16.86 10.19-16.86l8.28-35.88-13.71-8.59-10.42 34.28" fill="#ffbe9d"/><path d="M345.76 149.88l.55-11.8-3.06-11.95c-.17-.66-.25-1.49.28-1.89.56-.42 1.4-.4 1.85.06.84.86 4.84 11.35 4.84 11.35s6.07-3.65 7.15-3.82c1.08-.18 2.43 3.09 2.52 3.34.08.26.01 2.19.01 2.19s3.75.11 4.09.63c.34.51.43 3.18.43 3.18s1.59.51 1.84 1.71c.26 1.2.77 3.18.02 3.62-.75.43-2.33 1.3-2.33 1.3s-.64 6.12-.8 6.68c-.16.56-3.68 3.99-3.68 3.99l-13.71-8.59z" fill="#ffbe9d"/><path d="M333.01 211.46c.02-.03.37.21 1.15.47.77.26 1.98.49 3.53.28 1.54-.21 3.43-.88 5.12-2.36 1.67-1.51 3.36-3.51 4.76-6.02.7-1.26 1.33-2.64 1.85-4.13.54-1.49.89-3.11 1.28-4.79.79-3.37 1.63-7 2.53-10.85 1.8-7.71 3.82-16.34 6-25.63l.02-.07.05-.05c.69-.68 1.38-1.37 2.07-2.08.34-.36.68-.72 1.01-1.09.16-.19.33-.38.45-.56.12-.12.12-.36.17-.62.27-2 .48-4.07.7-6.15l.01-.13.12-.07c.63-.35 1.26-.71 1.91-1.07.15-.09.36-.19.45-.26.08-.06.15-.18.18-.34.07-.3.05-.68.01-1.04-.09-.7-.26-1.52-.44-2.17-.25-.61-.93-1.04-1.59-1.28l-.17-.06-.01-.17c-.02-.58-.06-1.18-.13-1.77-.03-.3-.07-.59-.13-.88-.03-.13-.07-.29-.11-.37-.03-.07-.02-.02-.06-.06-.05-.02-.1-.05-.17-.07-1.11-.31-2.42-.35-3.66-.41l-.26-.01.01-.26c.02-.62.05-1.31.02-1.95.02-.17-.14-.43-.23-.67-.11-.24-.22-.48-.34-.71-.24-.47-.51-.92-.82-1.32a2.4 2.4 0 00-.51-.5c-.2-.12-.29-.15-.53-.06-.46.16-.94.41-1.41.65-1.87.97-3.68 2.03-5.46 3.09l-.26.15-.11-.28c-.95-2.37-1.88-4.71-2.8-7.01-.46-1.15-.92-2.3-1.37-3.43-.17-.57-.57-.9-1.1-1.03-.53-.14-1.05.03-1.3.48-.13.21-.18.47-.15.71.03.22.14.56.2.83.15.58.3 1.15.45 1.72.3 1.14.6 2.28.89 3.4.59 2.24 1.17 4.45 1.73 6.6l.01.04v.04c-.2 4.11-.39 8.05-.57 11.8v.03l-.01.03c-3.78 12.3-6.91 22.5-9.11 29.64-1.1 3.54-1.97 6.33-2.57 8.25-.3.93-.53 1.65-.69 2.16-.16.49-.26.74-.26.74s.06-.26.19-.75c.15-.52.36-1.24.63-2.18.57-1.93 1.4-4.73 2.46-8.29 2.15-7.16 5.23-17.38 8.93-29.7l-.01.05c.17-3.75.35-7.69.54-11.8l.01.07c-.57-2.15-1.15-4.35-1.75-6.6-.3-1.12-.6-2.25-.9-3.4-.15-.57-.3-1.15-.46-1.72-.07-.31-.16-.54-.22-.91-.04-.35.04-.71.22-1.02.18-.31.46-.56.81-.68.35-.12.7-.11 1.03-.03.33.08.65.23.92.47.27.22.45.6.54.86.45 1.13.91 2.28 1.37 3.43.92 2.3 1.86 4.64 2.81 7.01l-.37-.13c1.79-1.06 3.6-2.12 5.49-3.11.48-.24.94-.49 1.48-.68.15-.04.29-.1.5-.07.18.03.35.1.47.19.27.17.46.39.63.61.35.44.62.92.87 1.41.13.24.24.49.36.74.09.26.26.47.28.85.03.71 0 1.38-.02 2.01l-.25-.27c1.29.07 2.53.09 3.82.44.08.02.17.07.26.11.08.04.24.18.26.26.1.19.12.34.16.51.07.32.11.62.14.93.07.61.11 1.21.13 1.81l-.18-.24c.77.29 1.54.74 1.91 1.58.24.82.37 1.52.48 2.31.04.39.07.79-.02 1.21-.04.21-.15.45-.36.62-.21.15-.34.2-.51.3-.65.36-1.29.72-1.92 1.07l.13-.2c-.22 2.09-.44 4.15-.71 6.17l-.06.39c-.01.12-.1.34-.19.44-.16.23-.33.42-.49.61-.34.38-.68.75-1.03 1.11-.69.72-1.39 1.41-2.08 2.09l.07-.12c-2.2 9.28-4.24 17.9-6.07 25.61-.92 3.85-1.78 7.48-2.58 10.84-.4 1.68-.77 3.32-1.32 4.82-.54 1.51-1.19 2.9-1.9 4.17-1.44 2.53-3.16 4.54-4.87 6.05-1.75 1.5-3.69 2.16-5.25 2.34-1.58.19-2.82-.08-3.58-.36a5.72 5.72 0 01-.85-.38c-.21-.12-.3-.17-.3-.18z" fill="#eb996e"/><path d="M359.9 137.35c0 .07-.34.11-.87.14-.53.03-1.25.05-1.99.24s-1.34.56-1.7.91c-.37.34-.53.63-.6.6-.06-.02-.02-.38.32-.84.33-.46 1-.95 1.84-1.17.84-.21 1.61-.16 2.14-.1.54.06.86.15.86.22z" fill="#eb996e"/><path d="M356.96 137.46c-.13-.05-.14-.36-.02-.69.12-.33.33-.56.47-.51.13.05.14.36.02.69-.12.33-.33.56-.47.51zM364.58 141.09c0 .15-1.34.31-2.97.41-.81.07-1.41.36-1.65.79-.26.41-.18.75-.25.77-.05.05-.32-.34-.08-.94.11-.28.36-.59.72-.79.35-.2.78-.3 1.2-.35 1.68-.11 3.04-.03 3.03.11zM363.92 144.69c.14.01.23.75.19 1.65-.04.91-.19 1.63-.33 1.63-.14-.01-.23-.75-.19-1.65.03-.91.18-1.64.33-1.63z" fill="#eb996e"/></g><g><path d="M368.07 171.62l.89-3.07c.18-.62.95-.81 1.4-.35l1.16 1.18.72-2.88c.19-.76 1.23-.86 1.57-.16l1.64 3.41-7.38 1.87zM375.47 171.07c.03.14-1.55.65-3.53 1.14-1.99.49-3.62.78-3.66.64-.03-.14 1.55-.65 3.53-1.14 1.99-.49 3.63-.78 3.66-.64z" fill="#fff"/></g><g><path d="M316 153.98c.02.02-.37.38-.89 1.19-.51.8-1.08 2.09-1.36 3.78-.29 1.68-.31 3.73-.18 5.99a128.789 128.789 0 002.68 20.57c.36 1.68.68 3.03.9 3.96.1.41.18.77.26 1.07.06.25.08.38.08.38s-.05-.12-.12-.37c-.08-.3-.18-.65-.3-1.06-.25-.93-.59-2.27-.96-3.95-.76-3.35-1.62-8.02-2.17-13.23-.28-2.6-.45-5.09-.55-7.36-.12-2.26-.09-4.33.23-6.03.3-1.7.89-3 1.43-3.79.54-.81.95-1.15.95-1.15z" fill="#fff"/></g><g><path d="M337.05 140.38c0 .01-.07.05-.22.12-.2.1-.42.2-.66.31-.57.27-1.4.67-2.39 1.22-2 1.07-4.66 2.73-7.51 4.7-2.85 1.96-5.39 3.82-7.23 5.14-.85.6-1.58 1.12-2.2 1.55-.22.15-.42.29-.6.41-.14.09-.21.14-.22.13 0-.01.06-.06.19-.17.18-.14.37-.28.58-.44.6-.45 1.32-.99 2.16-1.61 1.83-1.35 4.34-3.23 7.2-5.19 2.86-1.97 5.54-3.61 7.56-4.65 1-.53 1.84-.92 2.43-1.17.25-.1.47-.19.68-.28.14-.05.22-.08.23-.07z" fill="#fff"/></g><g><path d="M384.74 146.89c-.01.01-.06-.04-.17-.13a18.684 18.684 0 00-2.2-1.7c-1.53-1.04-3.81-2.21-6.43-3.25-2.62-1.05-5.07-1.79-6.85-2.28-.89-.25-1.62-.43-2.12-.55-.2-.05-.39-.1-.58-.15-.13-.04-.2-.06-.2-.07 0-.01.07 0 .21.02.19.03.38.07.59.11.51.1 1.24.26 2.14.49 1.8.45 4.26 1.18 6.89 2.23s4.92 2.25 6.43 3.32c1.53 1.07 2.29 1.96 2.29 1.96z" fill="#fff"/></g><g><path d="M337.33 223.22c-.01.01-.15-.03-.39-.13-.24-.1-.59-.27-.99-.53-.79-.5-1.85-1.47-2.17-2.95-.33-1.44-.02-2.81.39-3.66.2-.43.41-.76.58-.97.16-.21.27-.31.28-.3.03.02-.36.47-.72 1.33-.36.85-.64 2.17-.32 3.55.3 1.4 1.3 2.35 2.05 2.87.76.54 1.31.75 1.29.79z" fill="#fff"/></g><g><path d="M334.15 212.39c.06-.02.27.55.48 1.26.21.71.33 1.3.28 1.31-.06.02-.27-.55-.48-1.26-.22-.7-.34-1.29-.28-1.31z" fill="#fff"/></g><g><g fill="#042b5d"><path d="M347.67 436.6l30.5-.15-.55-105.46-.28-107.27-41.31-.51-7.43 14c-3 5.65-5.03 11.79-5.71 18.15-.52 4.85 3.11 20.65 4.38 24.67l11.37 36.06 9.03 120.51z"/><path d="M386.28 223.86l33.52 91.37c3.94 12.25 2.62 24.39-4.13 35.7l-38.91 75.95-21.88-27.37 32.56-68.04-28.7-46.5 4.83-61.01 13.52-.22 9.19.12z"/></g><path d="M374.55 254.47s.02.16.05.47c.02.33.05.79.09 1.38.07 1.24.16 3.02.28 5.3.22 4.63.55 11.28.94 19.49l1.33 28.9c.24 5.44.5 11.15.77 17.07.19 2.96.1 5.98.14 9.03l.03 9.31c.04 25.13.08 47.88.11 64.37-.01 8.22-.02 14.88-.03 19.51-.01 2.28-.03 4.07-.03 5.3-.01.59-.02 1.05-.02 1.38-.01.31-.03.47-.03.47s-.02-.16-.03-.47c-.01-.33-.02-.79-.03-1.38-.01-1.24-.04-3.02-.06-5.3-.03-4.63-.08-11.29-.14-19.51-.07-16.49-.16-39.24-.26-64.37l-.03-9.3c-.03-3.06.06-6.08-.13-9.03-.26-5.92-.5-11.63-.74-17.07-.46-10.87-.87-20.67-1.22-28.9-.33-8.21-.59-14.86-.78-19.49-.08-2.28-.14-4.06-.18-5.3-.01-.59-.03-1.05-.04-1.38 0-.32.01-.48.01-.48zM373.78 225.66c.04 0 .11.35.21.99.1.64.23 1.58.36 2.73.27 2.31.55 5.52.71 9.07.16 3.55.17 6.77.11 9.1-.03 1.16-.07 2.11-.11 2.76-.04.65-.09 1.01-.12 1.01-.08 0-.1-1.44-.13-3.76-.04-2.32-.1-5.53-.26-9.07s-.38-6.74-.56-9.06c-.17-2.32-.28-3.76-.21-3.77zM367.06 227.72c.05.07-.52.33-.68 1.14-.07.39.01.89.39 1.22.36.34.99.5 1.5.27.51-.23.79-.82.77-1.31 0-.51-.33-.89-.67-1.09-.72-.41-1.29-.15-1.3-.23-.01-.03.1-.13.35-.21.25-.07.67-.09 1.12.11.44.19.94.69.98 1.39.05.67-.29 1.46-1.04 1.81-.76.33-1.58.07-2.05-.4-.51-.49-.56-1.19-.41-1.65.14-.48.42-.78.65-.92.23-.14.38-.16.39-.13zM351.06 225.91c.03-.01.15.33.27.96.13.63.2 1.57.09 2.72-.11 1.15-.46 2.51-1.15 3.87-.69 1.37-1.77 2.73-3.21 3.78a10.713 10.713 0 01-4.61 1.83c-1.52.22-2.92.12-4.04-.15-1.13-.26-1.99-.63-2.55-.95-.56-.32-.83-.54-.82-.57.05-.1 1.23.74 3.44 1.16 2.15.43 5.48.23 8.27-1.75 2.77-2.01 4.02-5.1 4.3-7.27.32-2.23-.1-3.62.01-3.63zM390.3 234.67c0 .05-.76.11-1.92-.23-1.16-.33-2.68-1.14-3.94-2.52-1.25-1.38-1.91-2.98-2.13-4.16-.22-1.19-.09-1.94-.04-1.93.09 0 .1.73.4 1.85.29 1.11.97 2.59 2.15 3.9 1.19 1.3 2.59 2.12 3.67 2.52 1.08.4 1.82.47 1.81.57zM402.21 333.17c.04.05-.58.66-1.77 1.41-.6.36-1.35.76-2.28.99-.91.24-2.02.27-3.07-.08-2.13-.7-3.46-2.3-4.27-3.4-.81-1.13-1.22-1.89-1.17-1.92.06-.05.59.64 1.46 1.7.87 1.03 2.19 2.49 4.14 3.13 1.96.65 3.83-.11 5-.74 1.21-.65 1.91-1.16 1.96-1.09zM394.57 339.01c-.12.08-1.53-1.7-3.16-3.99-1.63-2.29-2.85-4.21-2.73-4.29.12-.08 1.53 1.7 3.16 3.99 1.63 2.28 2.85 4.2 2.73 4.29z" fill="#455a64"/><path d="M343.33 258.02c-.13.05-.49-.52-.8-1.29-.31-.76-.44-1.43-.31-1.48.13-.05.49.52.79 1.29.31.76.45 1.42.32 1.48zM362.69 260.78c-.14 0-.26-.5-.26-1.11 0-.61.12-1.11.26-1.11s.26.5.26 1.11c0 .62-.12 1.11-.26 1.11zM354.73 271.3c-.14.01-.3-.6-.35-1.37-.05-.76.02-1.39.17-1.4.14-.01.3.6.35 1.37.05.76-.03 1.39-.17 1.4zM340.19 279.04c-.12.09-.53-.28-1.07-.67-.53-.39-1.01-.67-.96-.81.04-.13.66-.05 1.27.39s.88 1.01.76 1.09zM365.82 288.81c-.12-.08.03-.52.34-.97.31-.46.65-.77.77-.69.12.08-.03.52-.34.97-.3.47-.65.77-.77.69zM349.96 291.58c-.14 0-.26-.83-.26-1.84 0-1.02.12-1.84.26-1.84s.26.83.26 1.84c0 1.01-.11 1.84-.26 1.84zM344.82 302.8c-.08.12-.61-.12-1.17-.53-.56-.41-.95-.83-.86-.95.08-.12.61.12 1.17.53.56.41.95.83.86.95zM360.84 306.7c.06.13-.27.4-.72.61-.46.2-.88.26-.94.13-.06-.13.27-.4.72-.61.47-.2.89-.26.94-.13zM349.96 324.96c-.13.06-.65-.71-1.15-1.73-.51-1.02-.82-1.9-.69-1.96.13-.06.65.71 1.15 1.73.51 1.02.82 1.89.69 1.96zM367.67 323.3c-.13-.07.1-.74.51-1.51.41-.76.84-1.33.97-1.26.13.07-.1.74-.51 1.51-.41.76-.85 1.33-.97 1.26zM359.92 338.79c-.15-.02-.14-.81-.29-1.75-.14-.94-.4-1.69-.26-1.75.12-.07.62.64.78 1.67.16 1.03-.09 1.86-.23 1.83zM351.62 347.64c-.11.1-.61-.28-1.11-.84-.51-.56-.84-1.09-.73-1.19.11-.1.61.28 1.11.84.51.56.84 1.09.73 1.19zM371.76 351c-.1-.1.27-.64.82-1.2.56-.56 1.09-.94 1.19-.84.1.1-.27.64-.82 1.2-.55.56-1.08.94-1.19.84zM360.18 364.25c-.14-.02-.14-.78-.01-1.7.14-.92.37-1.65.51-1.62.14.02.14.78 0 1.7-.13.91-.36 1.64-.5 1.62zM352.39 370.68c-.12.07-.56-.44-.98-1.15-.41-.71-.65-1.34-.53-1.41.12-.07.56.44.98 1.15.41.7.65 1.33.53 1.41zM371.16 378.79c.08.12-.43.63-1.14 1.14-.71.51-1.36.83-1.44.71-.08-.12.43-.63 1.14-1.14.71-.51 1.36-.82 1.44-.71zM355.52 389.32c-.14-.05.04-.86.12-1.85.09-.99.06-1.82.2-1.84.14-.03.41.82.31 1.89-.08 1.07-.5 1.86-.63 1.8zM361.77 404.44c-.11.09-.53-.25-.94-.76-.41-.51-.65-.99-.53-1.08.11-.09.53.25.94.76.4.5.64.99.53 1.08zM354.94 414.58c-.12.08-.67-.51-1.23-1.33-.56-.82-.92-1.54-.8-1.62.12-.08.67.51 1.23 1.33.56.81.92 1.54.8 1.62zM373.75 401.85c-.13-.05-.12-.42.03-.83s.39-.7.52-.65c.13.05.12.42-.03.83-.15.42-.38.71-.52.65zM365.45 426.01c-.13-.07.12-.78.31-1.67.2-.89.28-1.64.42-1.65.14-.01.3.79.08 1.76-.2.97-.69 1.63-.81 1.56zM370.85 271.46c-.13.06-.45-.34-.71-.9-.26-.56-.37-1.06-.24-1.12.13-.06.45.34.71.9.26.56.37 1.06.24 1.12zM356.97 240.32c.08.13-.63.69-1.37 1.49-.75.79-1.27 1.53-1.4 1.46-.12-.06.21-.96 1.02-1.82.8-.86 1.68-1.26 1.75-1.13zM369.33 239.95c-.14.03-.38-.56-.73-1.25-.34-.69-.67-1.23-.56-1.33.1-.1.65.34 1.03 1.1.38.75.39 1.45.26 1.48zM330.83 250.11c-.13-.05 0-.72.31-1.48.3-.77.66-1.34.79-1.29.13.05 0 .72-.31 1.48-.3.76-.65 1.34-.79 1.29zM332.08 265.21c-.09.11-.66-.21-1.27-.72s-1.03-1.01-.94-1.12c.09-.11.66.21 1.27.72s1.03 1.01.94 1.12zM357.34 228.33c-.13.05-.41-.32-.61-.83s-.26-.97-.13-1.02c.13-.05.41.32.61.83.21.51.26.97.13 1.02zM381.53 235.71c-.14-.03-.13-.63.03-1.35.16-.71.4-1.26.54-1.23.14.03.13.63-.03 1.35-.16.71-.4 1.26-.54 1.23zM387.21 247.14c-.13-.05.05-.8.4-1.67.36-.87.75-1.52.89-1.47.13.05-.05.8-.4 1.67-.36.87-.75 1.52-.89 1.47zM383.16 256.36c-.13.06-.6-.63-1.06-1.54-.46-.92-.73-1.71-.6-1.78.13-.06.6.63 1.06 1.54.46.92.73 1.71.6 1.78zM391.82 265.58c-.13-.05-.04-.63.22-1.29.25-.66.57-1.16.7-1.11.13.05.04.63-.22 1.29-.25.67-.56 1.16-.7 1.11zM384.08 274.61c-.12.08-.43-.19-.68-.6-.25-.41-.36-.8-.24-.88.12-.08.43.19.68.6.25.42.36.81.24.88zM385.73 293.25c-.11.1-.73-.4-1.39-1.11-.66-.71-1.11-1.37-1.01-1.47.11-.1.73.4 1.39 1.11.67.71 1.12 1.37 1.01 1.47zM395.88 282.54c-.11.09-.66-.42-1.22-1.13-.56-.71-.92-1.36-.81-1.45.11-.09.66.42 1.22 1.13.56.72.92 1.37.81 1.45zM401.45 297.31c-.13-.06.1-.81.51-1.68.41-.86.85-1.52.98-1.45.13.06-.1.81-.51 1.68-.41.86-.85 1.52-.98 1.45zM389.61 309.47c-.13.08-.59-.48-1.24-1.07-.64-.59-1.23-1.01-1.16-1.15.06-.13.81.11 1.52.76.7.66 1 1.39.88 1.46zM390.35 322.01c0 .14-.5.26-1.11.26-.61 0-1.11-.12-1.11-.26s.5-.26 1.11-.26c.61 0 1.11.11 1.11.26zM402.52 318.5c-.13-.08.13-.7.32-1.49.2-.78.27-1.45.42-1.46.14-.02.31.72.09 1.59-.22.88-.72 1.44-.83 1.36zM414.61 322.71c-.14.05-.51-.65-.82-1.56-.32-.91-.47-1.69-.33-1.74.14-.05.5.65.82 1.56.32.91.47 1.69.33 1.74zM412.68 339.91c-.13-.07.18-.91.69-1.87.51-.97 1.02-1.7 1.15-1.63.13.07-.18.91-.69 1.87-.5.96-1.02 1.69-1.15 1.63zM401.65 350.02c-.13.05-.54-.64-.92-1.55-.37-.91-.57-1.69-.44-1.75.13-.05.54.64.92 1.55s.57 1.69.44 1.75zM389.43 353.91c0 .14-.41.26-.92.26s-.92-.12-.92-.26.41-.26.92-.26c.5 0 .92.12.92.26zM396.43 369.95c-.14.04-.42-.55-.62-1.32-.2-.76-.26-1.41-.12-1.45.14-.04.42.55.62 1.32.21.77.26 1.42.12 1.45zM387.58 364.6c-.12-.07.02-.55.33-1.06s.65-.86.78-.79c.12.07-.02.55-.33 1.06-.31.52-.65.87-.78.79zM387.4 382.31c-.14.02-.34-.67-.44-1.54-.1-.87-.07-1.58.07-1.6.14-.02.34.67.44 1.54.1.87.07 1.58-.07 1.6z" fill="#fafafa"/></g></g></svg>