<svg xmlns="http://www.w3.org/2000/svg" width="465.275" height="443.553"><path d="M104.573 2.912A2.911 2.911 0 10107.485 0a2.912 2.912 0 00-2.912 2.912z" fill="#e0e0e0"/><path d="M89.273 199.192s.016-.137.024-.4l.023-1.192.043-4.6.077-17.129.089-58.182-.059.162 12.468-15.086 5.591-6.771.06-.072v-.093l-.083-65.583-.08-19.591-.047-5.3-.024-1.374c-.009-.309-.026-.468-.026-.468s-.017.159-.025.468l-.024 1.374-.047 5.3-.08 19.591-.083 65.583.059-.165-5.593 6.77-12.46 15.092-.058.071v.092l.089 58.182.076 17.129.044 4.6.023 1.192c.008.263.023.4.023.4z" fill="#e0e0e0"/><path d="M49.176 188.868a16.222 16.222 0 002.974 3.124l-.774 3.924 6.049 2.683 2.39-3.207a16.231 16.231 0 004.313.109l2.227 3.321 6.174-2.38-.578-3.956a16.178 16.178 0 003.125-2.976l3.924.774 2.683-6.048-3.207-2.39a16.23 16.23 0 00.108-4.313l3.321-2.226-2.379-6.176-3.957.578a16.2 16.2 0 00-2.975-3.124l.774-3.925-6.049-2.683-2.39 3.208a16.224 16.224 0 00-4.312-.108l-2.227-3.321-6.175 2.38.578 3.956a16.166 16.166 0 00-3.124 2.975l-3.925-.774-2.683 6.048 3.208 2.39a16.237 16.237 0 00-.109 4.314l-3.32 2.226 2.379 6.174 3.957-.577zm6.681-6.746a7.1 7.1 0 119.177 4.071 7.1 7.1 0 01-9.177-4.071z" fill="rgba(0,0,0,0)"/><path d="M55.857 182.122a5.359 5.359 0 00.765 1.583 7.064 7.064 0 003.84 2.812 7.159 7.159 0 003.334.2 7.268 7.268 0 003.462-1.651 7.269 7.269 0 002.259-3.581 7.245 7.245 0 00-3.1-8.051 7.288 7.288 0 00-4.078-1.14 7.28 7.28 0 00-3.675 1.1 7.151 7.151 0 00-2.34 2.383 7.062 7.062 0 00-.959 4.662 5.332 5.332 0 00.495 1.687c.048-.015-.214-.6-.338-1.706a7.085 7.085 0 011.047-4.492 6.933 6.933 0 015.777-3.258 6.944 6.944 0 013.856 1.1 6.877 6.877 0 012.932 7.61 6.938 6.938 0 01-2.119 3.4 6.937 6.937 0 01-6.47 1.462 7.084 7.084 0 01-3.79-2.627c-.656-.908-.853-1.514-.898-1.493z" fill="#e0e0e0"/><path d="M49.176 188.868a1.587 1.587 0 00-.249.021l-.751.094-2.966.4.07.041-2.344-6.188-.039.122 3.33-2.212.06-.04-.008-.072a16.2 16.2 0 01.122-4.279l.013-.08-.065-.049-3.2-2.4.046.175c.849-1.9 1.751-3.922 2.7-6.042l-.178.092 3.923.782.1.02.064-.08a16.107 16.107 0 013.1-2.938l.087-.062-.016-.106-.572-3.956-.114.195 6.177-2.372-.225-.071 2.223 3.322.065.1.117-.013a16.141 16.141 0 014.26.111l.118.019.072-.1 2.391-3.207-.241.064 6.048 2.685-.116-.224-.775 3.925-.024.121.1.077a16.072 16.072 0 012.935 3.082l.2.083h.027l.031-.005.063-.009.124-.018.249-.036.5-.073.992-.145 1.972-.289-.219-.128q1.206 3.131 2.381 6.175l.076-.24-3.32 2.228-.1.067.013.12a16.008 16.008 0 01-.1 4.261l-.019.118.1.071 3.209 2.388-.061-.235-2.677 6.051.207-.108-3.954-.767-.109-.021-.069.086a16.014 16.014 0 01-3.085 2.947l-.086.063.015.1.585 3.955.106-.183-6.169 2.394.185.058-2.234-3.315-.05-.074-.088.01a16.184 16.184 0 01-4.276-.1l-.08-.013-.048.065-2.379 3.215.145-.038-6.061-2.656.053.1.749-3.929.007-.04-.031-.024a16.84 16.84 0 01-2.333-2.25l-.511-.619a1.737 1.737 0 00-.171-.2 1.988 1.988 0 00.144.224c.1.145.26.363.486.642a15.672 15.672 0 002.3 2.309l-.023-.064-.8 3.919-.015.072.067.03 6.037 2.709.088.04.058-.078 2.4-3.2-.128.052a16.355 16.355 0 004.35.122l-.137-.064 2.218 3.327.069.1.117-.045 6.179-2.367.126-.049-.019-.134-.571-3.957-.071.168a16.389 16.389 0 003.163-3l-.178.064 3.924.779.147.029.061-.137 2.689-6.045.063-.142-.125-.093-3.2-2.392.077.189a16.415 16.415 0 00.112-4.366l-.088.188 3.323-2.225.133-.089-.058-.151-2.378-6.176-.058-.152-.161.024-1.972.288-.992.145-.5.073-.249.036-.124.018-.063.009-.031.005h-.027c.388.164.107.045.194.081a16.411 16.411 0 00-3.01-3.16l.072.2.773-3.924.031-.159-.148-.066-6.05-2.68-.146-.065-.1.128-2.387 3.209.188-.076a16.5 16.5 0 00-4.364-.107l.182.085-2.23-3.319-.085-.125-.141.054-6.172 2.387-.136.053.021.143c.2 1.377.4 2.729.584 3.955l.071-.168a16.392 16.392 0 00-3.152 3.013l.163-.06-3.925-.766-.127-.025-.051.117-2.67 6.054-.046.107.093.069 3.214 2.381-.052-.129a16.336 16.336 0 00-.1 4.348l.052-.113-3.312 2.24-.069.046.03.077 2.416 6.161.019.049.051-.008 2.929-.463.757-.126a2.042 2.042 0 00.273-.05z" fill="#e0e0e0"/><path d="M17.953 132.084a25.6 25.6 0 004.692 4.928l-1.221 6.19 9.542 4.233 3.77-5.06a25.522 25.522 0 006.8.172l3.512 5.239 9.74-3.755-.911-6.24a25.519 25.519 0 004.928-4.694l6.191 1.221 4.232-9.541-5.059-3.77a25.569 25.569 0 00.17-6.8l5.24-3.511-3.754-9.742-6.241.913a25.518 25.518 0 00-4.693-4.929l1.221-6.191-9.542-4.232-3.77 5.06a25.605 25.605 0 00-6.8-.171l-3.512-5.238-9.741 3.754.912 6.24a25.518 25.518 0 00-4.928 4.694l-6.191-1.222-4.233 9.541 5.06 3.77a25.613 25.613 0 00-.171 6.8l-5.238 3.512 3.754 9.74 6.241-.911zm10.538-10.641a11.2 11.2 0 1114.476 6.422 11.2 11.2 0 01-14.476-6.422z" fill="#ebebeb" fill-rule="evenodd"/><circle cx="2.999" cy="2.999" transform="translate(392.645 164.731)" fill="#e0e0e0" r="2.999"/><path d="M395.644 262.925c.144 0 .261-20.824.261-46.506s-.117-46.51-.261-46.51-.26 20.82-.26 46.51.117 46.506.26 46.506z" fill="#e0e0e0"/><g><path d="M283.489 23.356a3 3 0 103-3 3 3 0 00-3 3z" fill="#e0e0e0"/><path d="M286.489 214.475c.144 0 .26-42.3.26-94.466 0-52.185-.116-94.475-.26-94.475s-.261 42.29-.261 94.475c0 52.167.117 94.466.261 94.466z" fill="#e0e0e0"/></g><g><path d="M443.713 135.383a3.212 3.212 0 103.212-3.212 3.213 3.213 0 00-3.212 3.212z" fill="#e0e0e0"/><path d="M446.74 135.383s-.014.169-.021.5-.012.837-.021 1.478l-.04 5.735-.071 21.509-.093 74.59v.079l.046.065 14.207 19.7-.049-.15v26l.024 63.7.054-.15-17.225 20.89-.048.059v.076l.09 46.125.057 12.747.031 3.338c.007.769.032 1.142.032 1.142s.021-.388.032-1.142.017-1.885.03-3.338l.058-12.747.09-46.125-.048.133 17.263-20.854.054-.066v-.086l.023-63.7v-26.083l-.048-.067-14.228-19.688.047.144-.094-74.59-.071-21.509-.039-5.735-.021-1.478c-.005-.347-.021-.502-.021-.502z" fill="#e0e0e0"/></g><g><ellipse cx="3.614" cy="3.615" rx="3.614" ry="3.615" transform="translate(214.511 87.372)" fill="#e0e0e0"/><circle cx="3.615" cy="3.615" transform="translate(234.342 294.087)" fill="#e0e0e0" r="3.615"/><path d="M217.596 90.987a1.923 1.923 0 00-.02.317l-.02.934-.038 3.631-.069 13.673-.094 47.879v.1l.071.071 20.347 20.373-.076-.183v11.325l.076 75.354.083 22.835.049 6.209.025 1.614c.009.364.027.55.027.55s.018-.186.027-.55l.026-1.614.048-6.209.083-22.835.076-75.354v-11.433l-.076-.075-20.372-20.348.07.171-.094-47.879-.069-13.673-.038-3.631-.02-.934a1.794 1.794 0 00-.022-.318z" fill="#e0e0e0"/></g><g><path d="M326.127 295.734c3.914-6.712 8.1-13.445 14.26-19 15.621-14.075 42.435-18.261 65.229-13.206 17.589 3.9 34.2 13.8 38.814 27.786 2.082 6.313 1.616 12.958.961 19.461-4.284 42.537-25.575 119.725-26.406 121.512l-143.541-.587c8.443-46.948 25.576-92.911 50.683-135.966z" fill="#455a64"/><path d="M275.444 431.7s.088-.368.236-1.092.361-1.808.642-3.213.606-3.164 1.045-5.224l1.553-7.1a414.882 414.882 0 0112.812-44.49 431.775 431.775 0 0127.866-62.7q1.158-2.129 2.332-4.283l2.443-4.288c1.631-2.88 3.295-5.787 5.093-8.646 3.579-5.706 7.785-11.3 13.341-15.6a21.92 21.92 0 012.109-1.569c.727-.494 1.435-1.021 2.181-1.492 1.538-.866 3.015-1.861 4.641-2.6l2.4-1.181 2.485-1.028 1.246-.515 1.277-.441 2.565-.876a85.281 85.281 0 0121.676-3.583 91.84 91.84 0 0121.9 1.944 74.195 74.195 0 0119.993 7.4 50.307 50.307 0 018.583 5.863 38.346 38.346 0 016.86 7.492c.442.713.925 1.4 1.332 2.128l1.139 2.222.9 2.312a23.806 23.806 0 01.7 2.367 37.348 37.348 0 01.89 9.687c-.091 3.219-.382 6.4-.765 9.524s-.69 6.216-1.178 9.24c-.853 6.064-1.872 11.924-2.893 17.581-2.057 11.315-4.328 21.787-6.449 31.334-4.282 19.086-8.193 34.429-10.954 45.013-1.378 5.294-2.5 9.391-3.256 12.168l-.889 3.153c-.219.7-.319 1.069-.319 1.069s.133-.352.37-1.053l.939-3.14a691.568 691.568 0 003.351-12.145 1212.45 1212.45 0 0011.118-44.984c2.144-9.545 4.437-20.017 6.513-31.337 1.032-5.66 2.06-11.523 2.922-17.594.493-3.026.8-6.124 1.191-9.254s.683-6.317.778-9.563a37.782 37.782 0 00-.894-9.814 24.116 24.116 0 00-.705-2.41l-.917-2.357-1.158-2.262c-.413-.74-.9-1.439-1.352-2.164a38.821 38.821 0 00-6.945-7.6 50.841 50.841 0 00-8.661-5.924 74.665 74.665 0 00-20.13-7.465 92.255 92.255 0 00-22.033-1.958 85.654 85.654 0 00-21.813 3.609l-2.583.883-1.287.445-1.256.519-2.5 1.037-2.423 1.192c-1.64.743-3.132 1.747-4.683 2.623-.753.476-1.469 1.008-2.2 1.508a22.089 22.089 0 00-2.131 1.586c-5.617 4.35-9.857 10-13.445 15.732-1.8 2.874-3.466 5.784-5.1 8.668l-2.442 4.3-2.331 4.29a428.365 428.365 0 00-27.791 62.81 403.962 403.962 0 00-12.661 44.572l-1.507 7.114c-.437 2.062-.725 3.821-1 5.235s-.456 2.487-.591 3.224-.18 1.101-.18 1.101z" fill="#263238"/><path d="M438.631 281.319a2.282 2.282 0 00.038.4l.163 1.17c.143 1.027.308 2.55.429 4.516a78.1 78.1 0 01-1.206 16.608c-2.417 13.9-5.378 33.179-9.71 54.263-2.176 10.543-4.558 20.522-7.078 29.5s-5.165 16.958-7.572 23.581c-2.483 6.6-4.689 11.866-6.3 15.464l-1.88 4.137-.477 1.082a2.4 2.4 0 00-.146.376 201.2 201.2 0 009.147-20.93c2.455-6.62 5.152-14.591 7.689-23.579s4.949-18.973 7.127-29.523c4.336-21.106 7.239-40.392 9.564-54.313a75.492 75.492 0 001.045-16.677 40.3 40.3 0 00-.833-6.075z" fill="#263238"/><path d="M420.043 315.259c-.017.086 1 .305 2.553.867a24 24 0 015.7 2.987 29.65 29.65 0 016.319 6.56 8.871 8.871 0 00-1.354-2.357 20.49 20.49 0 00-10.547-7.539 8.825 8.825 0 00-2.671-.518zM425.694 324.834c.007.157 1.9.094 4.137.617 2.245.5 3.92 1.381 3.995 1.243a8.33 8.33 0 00-3.879-1.751 8.321 8.321 0 00-4.253-.109zM429.78 373.27c.06-.025.035-.277-.18-.614a2.529 2.529 0 00-2.752-.984c-.381.124-.56.3-.529.361.061.133.909-.186 1.886.183.99.334 1.444 1.117 1.575 1.054zM427.842 377.356c.144 0 .059-1.027-.866-1.76s-1.943-.6-1.908-.46c0 .149.829.245 1.582.866.771.599 1.047 1.39 1.192 1.354z" fill="#263238"/></g><g><path d="M242.546 392.927s3.2-78.482 6.156-92.082c3.759-17.3 18.325-27.751 18.325-27.751l5.581 134.972-5.8 3.471-3.419 1.797c-1.536 5.739 1.635 7.141-14.063 11.176-1.26.323-26.33 4.284-26.33 4.284l-2.459-25.468z" fill="#b78876"/><path d="M199.756 427.905s9.064.62 12.763 2.115c4.017 1.624 8.969.679 12.334-1.5a34.966 34.966 0 005.342-4.171l12.356.065a14.83 14.83 0 002.731-15.254 16.577 16.577 0 00-2.729-4.88c-1.434-1.617-2.087-2.577-6.076-3.353l-16.378 2.486s-22.7-2.1-26.78-.275c0 0-5.143 2.906-6.742 4.137-.6.463-2.523 6.21 1.111 9.295 0 0-3.273 2.493-1.577 4.825l.814 1.037s-2.224 2.757-1.139 4 10.694 7.149 14.2 5.862 1.062-4.175-.457-4.8" fill="#b78876"/><path d="M190.226 411.624a8.919 8.919 0 011.194.454c.761.308 1.864.746 3.251 1.22.693.237 1.458.479 2.285.716s1.727.441 2.661.766a5.735 5.735 0 012.632 1.664 3.29 3.29 0 01.644 3.261 2.561 2.561 0 01-1.228 1.266 4.5 4.5 0 01-1.626.416 13.32 13.32 0 01-3.082-.228 27.13 27.13 0 01-4.989-1.412 51.726 51.726 0 01-3.216-1.347 7.579 7.579 0 01-1.144-.571 7.93 7.93 0 011.2.426c.767.294 1.869.741 3.252 1.223a28.929 28.929 0 004.953 1.314 13.416 13.416 0 002.987.2 4.15 4.15 0 001.479-.381 2.163 2.163 0 001.038-1.067 2.916 2.916 0 00-.581-2.853 5.432 5.432 0 00-2.449-1.561c-.9-.324-1.8-.535-2.63-.8s-1.6-.512-2.286-.768a39.062 39.062 0 01-3.219-1.345 6.776 6.776 0 01-1.126-.593z" fill="#aa6550"/><path d="M191.243 404.643a8.406 8.406 0 011.187.459c.757.309 1.852.756 3.227 1.247s3.03 1.026 4.9 1.515a6.752 6.752 0 012.847 1.222 2.447 2.447 0 01.811 1.5 3.085 3.085 0 01-.287 1.721 4.157 4.157 0 01-2.578 2.1 6.7 6.7 0 01-3.092.18 29.647 29.647 0 01-4.932-1.541l-3.248-1.214a7.743 7.743 0 01-1.172-.5 7.686 7.686 0 011.225.349l3.29 1.093a32.243 32.243 0 004.892 1.442 6.4 6.4 0 002.916-.189 3.786 3.786 0 002.333-1.9 2.286 2.286 0 00-.425-2.76 6.511 6.511 0 00-2.676-1.155 51.2 51.2 0 01-4.9-1.607 43.93 43.93 0 01-3.192-1.372 7.008 7.008 0 01-1.126-.59z" fill="#aa6550"/><path d="M195.868 406.734a11.838 11.838 0 01-.4-1.955 11.688 11.688 0 01-.452-1.943 4.828 4.828 0 01.851 3.9z" fill="#aa6550"/><path d="M230.026 407.746l-8.558-3.512s-23.732-11.688-24.149-11.091-1.715.5-1.493 3.432 14.066 9.112 14.486 10.134-.423 6.124 4.658 9.9 8.8 3.932 8.8 3.932" fill="#b78876"/><path d="M223.769 420.544a.654.654 0 01-.2 0 5.863 5.863 0 01-.6-.071 13.369 13.369 0 01-2.23-.585 21.724 21.724 0 01-7.231-4.365 10.385 10.385 0 01-2.839-5.105 23.475 23.475 0 01-.442-3.233 1.847 1.847 0 00-.077-.373.707.707 0 00-.221-.235 7.882 7.882 0 00-.692-.468c-.484-.3-.989-.587-1.5-.876-2.055-1.151-4.244-2.317-6.449-3.646-1.1-.665-2.21-1.369-3.284-2.168a12.658 12.658 0 01-1.534-1.337 4.25 4.25 0 01-.641-.846 1.8 1.8 0 01-.188-.542 4.37 4.37 0 01-.04-.532 3.792 3.792 0 01.414-2.077 2.455 2.455 0 01.777-.748 1.453 1.453 0 00.337-.279c.026-.024-.02.008.085-.081a.262.262 0 01.17-.05.9.9 0 01.169.017c.091.02.178.042.26.067 1.29.427 2.467.974 3.649 1.489a321.61 321.61 0 016.722 3.117c4.262 2.029 8.079 3.9 11.278 5.481.8.388 1.558.792 2.283 1.117l2.094.874 3.35 1.41 2.112.906.545.245a.764.764 0 01.18.1.789.789 0 01-.2-.058l-.561-.208-2.141-.837-3.38-1.347-2.108-.847c-.746-.324-1.495-.712-2.3-1.094l-11.313-5.4c-2.135-1-4.379-2.051-6.723-3.092-1.171-.508-2.372-1.06-3.6-1.465a2.71 2.71 0 00-.222-.058.471.471 0 00-.078-.009c0-.014 0 .029-.012-.033s.007-.063-.013-.1a.077.077 0 00-.028-.029c.268.19.068.061.124.108l-.024.03a1.859 1.859 0 01-.425.362 2.063 2.063 0 00-.664.63 3.435 3.435 0 00-.352 1.852 1.785 1.785 0 00.181.9 3.95 3.95 0 00.578.761 12.418 12.418 0 001.483 1.29c1.052.787 2.151 1.488 3.246 2.151 2.19 1.327 4.371 2.5 6.427 3.661.514.293 1.02.583 1.512.891a8.086 8.086 0 01.724.5 1 1 0 01.33.39 2.09 2.09 0 01.1.449 23.613 23.613 0 00.416 3.207 10.141 10.141 0 002.713 4.982 19.925 19.925 0 003.827 2.845 20.707 20.707 0 003.254 1.573 15.312 15.312 0 002.192.653c.256.056.453.088.585.11a1.007 1.007 0 01.195.026z" fill="#aa6550"/><g><path d="M197.315 421.117a3.01 3.01 0 01.911.287 9.075 9.075 0 012.233 1.353 8.227 8.227 0 011.279 1.3 2.746 2.746 0 01.654 2.032 2.238 2.238 0 01-1.633 1.693 4.321 4.321 0 01-2.51-.132 46.177 46.177 0 01-7.879-3.357 25.617 25.617 0 01-2.207-1.368 3.952 3.952 0 01-.749-.59 4.741 4.741 0 01.834.457c.525.311 1.289.75 2.257 1.249a55.269 55.269 0 007.86 3.222 3.982 3.982 0 002.277.14 1.869 1.869 0 001.383-1.375 2.439 2.439 0 00-.557-1.773 8.308 8.308 0 00-1.194-1.275 13.637 13.637 0 00-2.959-1.863z" fill="#aa6550"/></g><g><path d="M374.347 190.875a3.193 3.193 0 001.285-5.3c1.62-.889 1.162-3.449-.107-4.793s-3.082-2.17-4.069-3.732a3.793 3.793 0 004.531-3.278 3.094 3.094 0 001.96-5.675c1.731-.147 1.584-3.009.138-3.972s-3.353-.892-4.925-1.632a20.447 20.447 0 00-10.858-6.369l7.086-5.278a4.1 4.1 0 001.427-1.505c.617-1.407-.486-2.961-1.653-3.961a16.586 16.586 0 00-8.808-3.846c-1.036-.121-2.363.037-2.693 1.026-2.2-1.039-4.748-.93-7.178-.8-1.363.074-2.856.2-3.828 1.159a11.365 11.365 0 012.527-3.166 4.859 4.859 0 001.643-3.593c-.136-1.352-1.769-2.522-2.893-1.758 1.258-.593 1.092-2.614.021-3.5a6.3 6.3 0 00-3.968-.992c-.97-.022-2.2.139-2.469 1.072-.442-2.171-4.149-2.473-4.936-.4a3.354 3.354 0 00-4.836.379 4.316 4.316 0 00-6.107 2.271l3.766-6.318c.711-1.193.834-3.427-.547-3.284 1.983.007 3.116-2.7 2.15-4.433s-3.21-2.386-5.177-2.144l-1.722 2.491a3.922 3.922 0 00-6 4.368c-.8-.853-2.346-.387-2.978.6a5.836 5.836 0 00-.571 3.4c-1.924-1.621-5.47.266-5.2 2.768a10.935 10.935 0 00-5.692-1.179 3.857 3.857 0 00-5.02-5.477 3.8 3.8 0 00-4.909-3.092c-.614-2.3-3.631-4-5.467-2.485-1.9 1.568-.875 4.61.287 6.779l3.783 7.058-12.315-6.6a2.15 2.15 0 00-1.233-.365c-.6.073-1.01.614-1.547.882-.743.371-1.647.186-2.442.429-2.174.665-2.137 3.985-.648 5.7s3.766 2.539 5.451 4.065l-5.473 1.034a5.6 5.6 0 00-7.22-3.785c-.745-2.02-3.453-2.278-5.6-2.189-1.928.081-4.049.242-5.414 1.6-1.746 1.743-1.417 4.805.053 6.786s3.767 3.141 5.98 4.231c-.368 1.638-2.494 2.142-4.155 1.9s-3.388-.894-4.959-.3c-2.134.8-3.038 3.562-5.181 4.342a9.113 9.113 0 00-1.956.65 3.883 3.883 0 00-1.317 2.546l-.8 3.556a4.313 4.313 0 00-.146 1.784c.391 1.932 3.086 2.35 4.911 1.606s3.387-2.186 5.337-2.474c-2.57 1.283-5.283 2.7-6.721 5.184s-.847 6.35 1.857 7.32c2.737.981 5.432-1.385 7.424-3.5s4.854-4.372 7.5-3.163" fill="#263238"/><path d="M370.391 189.178c2.072-1.549 5.6.494 5.3 3.063a7.331 7.331 0 012.744 12.662c-1.617 1.364-4.829 1.415-5.169-.673a5.706 5.706 0 01-4.048 3.515 5.529 5.529 0 01-2.229 7.834c3.293 2.262 2.669 8.228-1.02 9.762a4.512 4.512 0 11-8.239 3.68c-.706 1.69-1.488 3.475-3 4.5s-3.991.848-4.757-.816a6.2 6.2 0 01-8.822 3.72 4.008 4.008 0 01-7.88 1.386l-10.321.788a36.912 36.912 0 01-6.859.1 18.534 18.534 0 01-8.171-2.961 6.293 6.293 0 00-2.506-1.243 6.436 6.436 0 00-3.111.757 16.754 16.754 0 01-16.174-2.382 8.372 8.372 0 00-2.234-1.488 7.527 7.527 0 00-3.079-.159 30.256 30.256 0 01-7.589-.434c-2.144-.4-4.433-1.164-5.586-3.014s-.251-4.937 1.923-5.089a4.681 4.681 0 00-1.487-3.818 2.817 2.817 0 00-3.822.169c-.9 1.095-.2 3.148 1.211 3.212-2.195 1.809-6.012-.136-6.315-2.964s2.31-5.422 5.143-5.685a12.853 12.853 0 01-.7-6.223 4.6 4.6 0 01-6.185 1.247 7.936 7.936 0 01-4.8 4.118 4.753 4.753 0 01-5.474-2.4c-.842-2 .692-4.738 2.861-4.67-1.726-2.291.245-6.22 3.113-6.206a6.365 6.365 0 013.29-7.063 3.348 3.348 0 01-4.9-1.424c-1.136 2.184-4.376 1.952-6.6.894-1.743-.83-3.453-2.082-3.179-4.607a5.054 5.054 0 011.578-3.1c2.041-1.928 4.882-2.282 7.58-2.583a33.034 33.034 0 002.276-10.549c-3.009.358-6.27-1.62-6.9-4.585l14.945-9.29s34.6-5.342 35.839-5.342 73.549 37.24 73.549 37.24c1.672 1.749 4.939.959 6.167-1.126s.735-4.837-.582-6.867a19.743 19.743 0 00-5.287-4.912c2.314-.16 4.784-.375 6.5-2.056a3.683 3.683 0 00.991-4c-.835-1.993-3.14-1.856-4.619-2.991a8.346 8.346 0 01-1.9-2.637" fill="#263238"/><path d="M273.755 181.309c.863-12.354 9.154-27.461 21.46-26.074l38.384 9.981a7.246 7.246 0 016.433 7.393l-4.247 82.933 9.248 4.422c.091.021-9.574 5.376-9.482 5.4 0 0-8.879 26.111-34.254 18.005-5.032-1.607-7.307-7.13-8.28-12.8l-.26.032c-.007-.673-8.394-7.1-8.4-7.738.005.643 8.268-4.686 8.268-4.686l.02-2.25c-.037-7.486-.015-10.556-.02-10.486 0 0-15.771-2.729-18.9-23.351-1.559-10.264-.929-27.056.03-40.781z" fill="#b78876"/><path d="M278.934 196.186a2.642 2.642 0 002.529 2.683 2.527 2.527 0 002.74-2.363 2.643 2.643 0 00-2.527-2.684 2.528 2.528 0 00-2.742 2.364zM277.339 190.071c.325.347 2.336-1.12 5.179-1.094 2.84-.014 4.917 1.463 5.228 1.117.152-.153-.178-.777-1.081-1.445a7.259 7.259 0 00-4.182-1.32 6.968 6.968 0 00-4.126 1.3c-.878.666-1.179 1.287-1.018 1.442zM306.081 196.299a2.642 2.642 0 002.529 2.683 2.528 2.528 0 002.74-2.363 2.643 2.643 0 00-2.527-2.685 2.529 2.529 0 00-2.742 2.365zM305.279 190.792c.326.347 2.34-1.12 5.181-1.093 2.84-.014 4.916 1.462 5.227 1.116.152-.153-.174-.777-1.081-1.444a7.244 7.244 0 00-4.182-1.321 6.973 6.973 0 00-4.126 1.3c-.876.666-1.178 1.284-1.019 1.442zM294.817 211.805c.015-.162-1.75-.479-4.611-.865-.726-.08-1.412-.229-1.531-.725a3.7 3.7 0 01.5-2.148l2.185-5.513c3.035-7.85 5.237-14.307 4.92-14.426s-3.035 6.146-6.07 14q-1.1 2.9-2.094 5.547a4.2 4.2 0 00-.4 2.846 1.825 1.825 0 001.186 1.07 4.892 4.892 0 001.232.179c2.884.171 4.673.196 4.683.035z" fill="#263238"/><path d="M292.624 245.434a52.411 52.411 0 0027.639-7.171s-6.79 14.1-27.394 12.037zM294.485 218.214a7.2 7.2 0 015.906-3.133 4.354 4.354 0 013.653 6.814 4.458 4.458 0 01-4.72 1.7 10.391 10.391 0 01-4.23-2.663 3.284 3.284 0 01-.9-1.094 1.506 1.506 0 01.132-1.482" fill="#aa6550"/><path d="M303.171 213.828c-.462-.03-.489 3.056-3.145 5.228s-5.939 1.811-5.965 2.242c-.045.193.728.605 2.116.652a7.686 7.686 0 004.979-1.7 6.694 6.694 0 002.439-4.385c.129-1.286-.213-2.053-.424-2.037zM304.033 184.234c.275.775 3.116.428 6.449.852 3.341.358 6.024 1.353 6.471.662.2-.33-.264-1.06-1.346-1.816a11.306 11.306 0 00-9.843-1.154c-1.228.482-1.849 1.085-1.731 1.456zM278.435 181.851c.495.649 2.458-.008 4.814-.024 2.354-.1 4.346.464 4.81-.208.2-.327-.107-.976-.974-1.593a6.968 6.968 0 00-7.754.187c-.832.658-1.11 1.321-.896 1.638z" fill="#263238"/><path d="M340.12 193.733a3.444 3.444 0 01-.982 3.946 2.375 2.375 0 01-3.376-.934c-.9 1.212-2.964-.018-2.682-1.6-1.114.626-2.577-.869-2.221-2.27-1.293.5-2.065-1.589-2.746-2.987a22.286 22.286 0 00-1.329-2.125 14.465 14.465 0 01-2.142-7.771c-1.688-1.913-2.121-4.867-2.464-7.607l-.642-5.129-.959-1.189a2.789 2.789 0 01-1.84 2.668 5.959 5.959 0 01-3.11-.038l-3.069-.586-1.91.563c.567 1.591.008 3.4-.548 5a4.816 4.816 0 01-1.761 2.794 1.449 1.449 0 01-2.026-1.544 1.606 1.606 0 01-2.488-.383 5.283 5.283 0 01-.7-3.157 13.5 13.5 0 012.429-7.445l-5.3 5.014a2.485 2.485 0 01-1.3.8 1.408 1.408 0 01-1.492 1.561 3.659 3.659 0 01-1.978-1.327c-1.3-1.358-2.686-3.669-1.537-5.21a1.153 1.153 0 01-.519-1.686l-6.025 4.625c.6-.353 1.273.583 1.143 1.364a3.213 3.213 0 01-1.252 1.8 4.731 4.731 0 01.708 2.864c1.083-.982 2.724.821 2.381 2.386a3.422 3.422 0 01-3.185 2.508 2.38 2.38 0 01-2.7-1.751c-1.325.287-2.612-1.533-2.144-3.033-.956.646-1.806-1.075-1.866-2.378a18.76 18.76 0 011.024-7.027c.039.335-.334.618-.574.436a.516.516 0 01.092-.8l-3.379 8.325a19.379 19.379 0 00-1.846 6.923c-.015.991-.123 2.352-.955 2.445a1.226 1.226 0 01-.655-.17 12.429 12.429 0 01-5.476-6.315 9.409 9.409 0 01-.847-2.918c-.2-2.127.683-4.183.827-6.316a20.878 20.878 0 01.173-2.816 8.469 8.469 0 012.172-3.684c3.243-3.782 6.67-7.7 11.027-9.23 2.663-.937 5.511-.918 8.181-1.829a48 48 0 004.795-2.225c6.581-3.106 13.856-3.527 20.921-2.944a33.54 33.54 0 0111.607 2.691c4.042 1.894 7.583 5.026 10.915 8.338 4.973 4.945 9.665 10.474 12.843 17.187 2.441 5.158 3.949 11.179 3.1 17.008s-4.448 11.3-9.326 12.52l-1.925-2.2" fill="#263238"/><path d="M334.486 197.679c.284-.131 11.469-3.682 11.368 7.817s-11.625 9.024-11.642 8.7.274-16.517.274-16.517z" fill="#b78876"/><path d="M337.763 209.865c.051-.036.2.142.536.3a2 2 0 001.5.044c1.219-.435 2.259-2.354 2.333-4.426a6.616 6.616 0 00-.536-2.873 2.31 2.31 0 00-1.493-1.551 1.02 1.02 0 00-1.187.538c-.157.321-.086.551-.147.57-.032.028-.245-.2-.148-.669a1.271 1.271 0 01.458-.716 1.51 1.51 0 011.111-.283 2.816 2.816 0 012.077 1.8 6.808 6.808 0 01.666 3.211c-.094 2.316-1.3 4.474-2.966 4.94a2.144 2.144 0 01-1.83-.321c-.356-.286-.414-.543-.374-.564z" fill="#aa6550"/><path d="M296.88 194.166a24.429 24.429 0 01.525-3.3 13.576 13.576 0 014.97-7.384 13.4 13.4 0 0112.695-1.888 13.44 13.44 0 016.209 4.67 13.322 13.322 0 010 15.808 13.419 13.419 0 01-6.209 4.671 13.508 13.508 0 01-17.665-9.272 24.43 24.43 0 01-.525-3.3 5.45 5.45 0 00-.008.871 6.193 6.193 0 00.082 1.056 9.532 9.532 0 00.254 1.425 13.723 13.723 0 0010.745 10.247 13.85 13.85 0 007.28-.574 13.853 13.853 0 006.458-4.82 13.789 13.789 0 000-16.412 13.864 13.864 0 00-6.457-4.819 13.856 13.856 0 00-7.279-.574 13.722 13.722 0 00-10.749 10.242 9.533 9.533 0 00-.254 1.425 6.193 6.193 0 00-.082 1.056 5.459 5.459 0 00.01.872zM264.439 194.166a24.427 24.427 0 01.525-3.3 13.576 13.576 0 014.97-7.384 13.4 13.4 0 0112.695-1.888 13.44 13.44 0 016.209 4.67 13.324 13.324 0 010 15.808 13.429 13.429 0 01-6.21 4.671 13.508 13.508 0 01-17.665-9.272 24.428 24.428 0 01-.525-3.3 5.445 5.445 0 00-.008.871 6.193 6.193 0 00.082 1.056 9.528 9.528 0 00.254 1.425 13.723 13.723 0 0010.745 10.247 13.85 13.85 0 007.28-.574 13.854 13.854 0 006.458-4.82 13.789 13.789 0 000-16.412 13.864 13.864 0 00-6.457-4.819 13.856 13.856 0 00-7.279-.574 13.726 13.726 0 00-10.746 10.247 9.529 9.529 0 00-.254 1.425 6.193 6.193 0 00-.082 1.056 5.455 5.455 0 00.008.867z" fill="#455a64"/><path d="M291.103 190.967c.062.143 1.376-.4 3.08-.442 1.7-.071 3.052.375 3.1.229a6.013 6.013 0 00-6.184.213zM324.238 195.518a22.541 22.541 0 005.741 1.457 22.524 22.524 0 005.91.421c.009-.151-2.619-.413-5.827-.935s-5.79-1.089-5.824-.943z" fill="#455a64"/><path d="M298.317 192.021a7.337 7.337 0 00.137 2.571 16.166 16.166 0 002.26 5.793 13.934 13.934 0 004.342 4.46 3.246 3.246 0 002.512.553 6.1 6.1 0 01-2.322-.868 15.453 15.453 0 01-4.092-4.424 18.43 18.43 0 01-2.34-5.587c-.353-1.524-.409-2.503-.497-2.498zM268.648 200.775a17.338 17.338 0 00-1.1-2.147 10.532 10.532 0 01-.9-2.394 8.318 8.318 0 01-.051-3.1 16.389 16.389 0 011.623-5.481c.7-1.294 1.4-1.915 1.335-1.982-.021-.023-.22.1-.529.395a6.97 6.97 0 00-1.124 1.4 14.418 14.418 0 00-1.821 5.6 8.278 8.278 0 00.1 3.283 9.609 9.609 0 001.049 2.458 8.252 8.252 0 001.418 1.968z" fill="#fff"/><g><path d="M342.6 213.799c-.016.046.3.144.753.481a3.731 3.731 0 011.313 1.925 3.26 3.26 0 01-.69 3.2 3.873 3.873 0 01-3.827 1.122 4.135 4.135 0 01-2.076-6.294 5.087 5.087 0 011.75-1.6 7.783 7.783 0 00.8-.41 1.969 1.969 0 00-.89.228 4.814 4.814 0 00-1.961 1.572 4.432 4.432 0 00-.807 3.634 4.572 4.572 0 003.036 3.371 4.3 4.3 0 004.333-1.3 3.563 3.563 0 00.869-1.864 3.838 3.838 0 00-.186-1.771 3.711 3.711 0 00-1.551-1.981 1.677 1.677 0 00-.866-.313z" fill="#455a64"/></g><g><path d="M294.907 161.185a2.89 2.89 0 01-.774-1.48 2.032 2.032 0 01.518-1.731 2.169 2.169 0 012.2-.567l.478.16-.206-.462a2.27 2.27 0 01.6-2.548 2.225 2.225 0 012.858.1l.379-.356a.975.975 0 01-.158-.288 1.284 1.284 0 01.184-1.082 1.469 1.469 0 01.934-.592 2.449 2.449 0 011.151.051 3.116 3.116 0 001.29.285c.55-.1.793-.507 1.076-.69a4.25 4.25 0 01.89-.552 4.892 4.892 0 011.845-.423 5.029 5.029 0 012.68.643c.576.332.839.608.874.572a2.309 2.309 0 00-.767-.744 4.907 4.907 0 00-2.793-.84 5.159 5.159 0 00-2.013.4 4.661 4.661 0 00-1 .588c-.334.239-.582.553-.862.575a3.051 3.051 0 01-1.083-.288 2.93 2.93 0 00-1.394-.073 1.983 1.983 0 00-1.259.8 1.792 1.792 0 00-.249 1.535 1.545 1.545 0 00.254.46l.38-.356a2.64 2.64 0 00-4.226 3.008l.272-.3a2.539 2.539 0 00-2.605.743 2.368 2.368 0 00.131 3.2c.23.201.383.266.395.252z" fill="#455a64"/></g><g><path d="M282.065 164.516a3.528 3.528 0 01-.98-1.439 2.579 2.579 0 01.117-1.947 2.687 2.687 0 012.022-1.47l.37-.049-.251-.282a3.215 3.215 0 01-.881-2.809 1.724 1.724 0 011.034-1.161 1.368 1.368 0 011.524.2l1.466 1.557-1.07-1.856a2.668 2.668 0 01-.144-2.244 2.456 2.456 0 011.777-1.524 2.615 2.615 0 011.72.171l.6.294-.248-.624c-.351-.884.548-1.911 1.443-2.029a4.382 4.382 0 012.725.68l.495.266-.156-.536a1.9 1.9 0 01.62-1.837 3.523 3.523 0 011.763-.786 8.948 8.948 0 013.3.077 14.351 14.351 0 012.772.994 2.446 2.446 0 00-.647-.449 8.45 8.45 0 00-2.062-.818 8.848 8.848 0 00-3.432-.187 3.869 3.869 0 00-1.989.849 2.329 2.329 0 00-.78 2.286l.339-.27a4.8 4.8 0 00-3.036-.763 2.418 2.418 0 00-1.507.9 1.848 1.848 0 00-.332 1.816l.354-.331a3.115 3.115 0 00-2.067-.213 2.973 2.973 0 00-2.14 1.847 3.158 3.158 0 00.194 2.68l.4-.3a1.853 1.853 0 00-2.075-.3 2.194 2.194 0 00-1.288 1.49 3.6 3.6 0 001.034 3.191l.118-.33a3.007 3.007 0 00-2.254 1.729 2.848 2.848 0 00.744 3.272c.246.206.401.272.408.255z" fill="#455a64"/></g><g><path d="M254.377 166.919a1.94 1.94 0 01.666-1.414 2.473 2.473 0 011.714-.617 7.359 7.359 0 012.458.581l.286.105-.04-.305a2.23 2.23 0 011.81-2.17 6.468 6.468 0 013.659.587l1.607.6-1.377-1.023a1.83 1.83 0 01.139-2.631 4.155 4.155 0 013.213-.762l.155.014 1.016.093-.846-.569a1.963 1.963 0 01.218-3.105 2.974 2.974 0 013.307.319l1.059.836-.708-1.149a4.456 4.456 0 01.011-4.526 4.155 4.155 0 013.05-1.946 4.7 4.7 0 012.43.313c.534.227.787.426.809.4.008-.01-.049-.066-.169-.165a3.033 3.033 0 00-.575-.369 4.575 4.575 0 00-2.528-.461 4.424 4.424 0 00-3.358 2.018 4.844 4.844 0 00-.076 4.987l.352-.314a3.444 3.444 0 00-3.88-.374 2.5 2.5 0 00-1.116 1.884 2.2 2.2 0 00.887 2.085l.169-.477-.163-.015a4.614 4.614 0 00-3.613.911 2.653 2.653 0 00-.779 1.7 1.914 1.914 0 00.7 1.687l.231-.425a6.793 6.793 0 00-3.938-.551 2.612 2.612 0 00-2.066 2.642l.246-.2a7.42 7.42 0 00-2.586-.524 2.661 2.661 0 00-1.849.764 1.853 1.853 0 00-.572 1.126.773.773 0 00.047.44z" fill="#455a64"/></g><g><path d="M268.882 140.556a1.539 1.539 0 00.683.244 8.849 8.849 0 002.012.105 5.965 5.965 0 012.894.433 1.839 1.839 0 011.012 1.258 1.333 1.333 0 01-.528 1.517l.355.252c.106-.665.929-1.086 1.671-1.526a8.646 8.646 0 012.425-1.043 3.125 3.125 0 012.465.378 2.076 2.076 0 011.066 1.911l-.081.637.484-.425a5.753 5.753 0 013.38-1.393 6.482 6.482 0 012.9.416 8.26 8.26 0 012.221 1.419 2.032 2.032 0 00-.441-.566 5.55 5.55 0 00-1.666-1.128 6.524 6.524 0 00-3.04-.55 6.08 6.08 0 00-3.676 1.439l.4.212a2.557 2.557 0 00-1.27-2.4 3.628 3.628 0 00-2.853-.458 8.94 8.94 0 00-2.573 1.11 10.983 10.983 0 00-1.124.724 1.891 1.891 0 00-.771 1.171l-.071.489.426-.238a1.789 1.789 0 00.741-2.053 2.262 2.262 0 00-1.265-1.517 6.027 6.027 0 00-3.1-.367 11.184 11.184 0 01-1.974.036 6.037 6.037 0 00-.702-.087z" fill="#455a64"/></g><g><path d="M294.57 130.602a5.359 5.359 0 011.358.189 3.286 3.286 0 011.3.821 2.835 2.835 0 01.828 1.743l.023.28.266-.091a1.711 1.711 0 011.9 1.064 5.2 5.2 0 01.1 2.86l-.157 1.016.631-.834.1-.13a2.2 2.2 0 011.78-.738 2.46 2.46 0 011.7.737 3.919 3.919 0 011.042 3.06 7.256 7.256 0 01-.579 2.241 3.937 3.937 0 00-.319.812c.028.017.227-.227.5-.725a6.38 6.38 0 00.763-2.293 4.224 4.224 0 00-1.069-3.434 2.892 2.892 0 00-4.22.011l-.128.171.474.182a5.506 5.506 0 00-.165-3.149 2.149 2.149 0 00-2.486-1.267l.289.189a3.147 3.147 0 00-1.016-1.961 3.366 3.366 0 00-1.475-.809 2.732 2.732 0 00-1.071-.062c-.253.048-.374.097-.369.117z" fill="#455a64"/></g><g><path d="M317.222 146.333c.007.028.258.008.682-.154a4.334 4.334 0 001.563-1.107 4.609 4.609 0 001.184-2.6 2.372 2.372 0 01.341-1.413c.295-.364.928-.594 1.318-1.2a2.6 2.6 0 00-.669-3.5l.023.38a8.317 8.317 0 002.212-3.079 3.367 3.367 0 00.363-1.417 14.366 14.366 0 00-.624 1.3 9.1 9.1 0 01-2.26 2.837l-.245.205.269.175a2.145 2.145 0 01.5 2.816c-.264.446-.829.649-1.272 1.153a2.708 2.708 0 00-.43 1.7 4.423 4.423 0 01-.985 2.4 6.576 6.576 0 01-1.97 1.504z" fill="#455a64"/></g><g><path d="M323.896 150.894c0 .021.148.047.433.061a5.831 5.831 0 001.231-.107 6.916 6.916 0 003.83-2.176l-.335-.006a4.453 4.453 0 003.049 1.61 4.6 4.6 0 001.935-.229 2.832 2.832 0 001.651-1.294 5.822 5.822 0 00.205-.747 1.034 1.034 0 01.325-.482 3.241 3.241 0 011.2-.531 4.143 4.143 0 001.335-.546 1.48 1.48 0 00.737-1.278l-.329.229a4.583 4.583 0 003.167.073 4.967 4.967 0 002.079-1.305 4.1 4.1 0 00.857-1.334 1.372 1.372 0 00.128-.548 6.469 6.469 0 01-1.185 1.682 4.868 4.868 0 01-1.995 1.13 4.246 4.246 0 01-2.865-.132l-.348-.146.02.375a1.009 1.009 0 01-.541.846 3.738 3.738 0 01-1.2.465 3.621 3.621 0 00-1.4.627 1.539 1.539 0 00-.486.72 6.755 6.755 0 01-.185.69 2.388 2.388 0 01-1.35 1.021 4.18 4.18 0 01-1.715.218 4.057 4.057 0 01-2.753-1.388l-.168-.2-.169.2a7.029 7.029 0 01-3.555 2.216c-.998.252-1.605.225-1.603.286z" fill="#455a64"/></g><g><path d="M364.87 166.843c.011 0 .031-.058.06-.179a2.877 2.877 0 00.086-.54 5.489 5.489 0 00-.249-2.062 12.239 12.239 0 00-1.4-2.913 11.432 11.432 0 00-1.153-1.643 3.077 3.077 0 00-.9-.7 1.371 1.371 0 00-1.272 0l.326.212a3.451 3.451 0 00-5.627-3l.418.2a2.384 2.384 0 00-.965-1.945 2.287 2.287 0 00-2.215-.27 2.347 2.347 0 00-1.019.774l.469.174a1.48 1.48 0 00-.547-1.22 2.036 2.036 0 00-1.173-.489 4.681 4.681 0 00-2.219.569l.316.1a3.707 3.707 0 00-2.247-1.569 5.2 5.2 0 00-2.545 0 13.1 13.1 0 00-3.912 1.95l.273.233a.913.913 0 00-.1-.9 1.575 1.575 0 00-.642-.488 2.68 2.68 0 00-1.384-.209 7.527 7.527 0 00-2.066.626 6.766 6.766 0 00-1.169.691c-.248.186-.364.3-.354.315.028.043.538-.374 1.606-.815a7.816 7.816 0 012.017-.52 2.38 2.38 0 011.207.22c.4.176.733.549.544.934l-.282.572.556-.339a13.1 13.1 0 013.814-1.825 4.761 4.761 0 012.317.022 3.228 3.228 0 011.942 1.366l.115.188.2-.089a4.278 4.278 0 011.976-.517c.618.035 1.293.564 1.241 1.156l-.081.913.55-.739a1.821 1.821 0 01.79-.6 1.768 1.768 0 011.715.2 1.879 1.879 0 01.763 1.515l-.017.562.435-.357a3.049 3.049 0 013.423-.256 3.087 3.087 0 011.441 2.822l-.038.429.365-.216c.555-.329 1.231.123 1.669.586a11.5 11.5 0 011.143 1.558 12.854 12.854 0 011.456 2.8 6.951 6.951 0 01.343 2.713z" fill="#455a64"/></g><g><path d="M361.971 182.049c.015.009.105-.1.261-.329a8.16 8.16 0 00.609-1.043 3.7 3.7 0 00.413-1.9 2.689 2.689 0 00-.393-1.189 1.943 1.943 0 00-1.139-.873l.108.28a2.423 2.423 0 00-2.59-3.717l.241.367a1.951 1.951 0 00-.078-2.31 2.89 2.89 0 00-2.215-1.033 11.125 11.125 0 01-1.16 0 1 1 0 01-.72-.622 4.182 4.182 0 00-.671-1.121 2.241 2.241 0 00-1.223-.674 12.85 12.85 0 00-2.768-.067 2.993 2.993 0 01-2.239-.648 11.451 11.451 0 01-.713-.993 2.607 2.607 0 00-1.05-.809 2.735 2.735 0 00-2.43.133l.305.321a2.062 2.062 0 00-.283-2.391 2.914 2.914 0 00-1.945-.963 9.26 9.26 0 00-3.4.424 11.292 11.292 0 00-2.034.814 2.657 2.657 0 00-.658.411 26.129 26.129 0 012.762-.968 9.409 9.409 0 013.276-.31 2.536 2.536 0 011.67.855 1.64 1.64 0 01.228 1.876l-.551.815.856-.493a2.276 2.276 0 012.008-.08 2.1 2.1 0 01.847.664 10.607 10.607 0 00.743 1.042 2.708 2.708 0 001.234.685 6.046 6.046 0 001.373.132 12.85 12.85 0 012.648.058 1.727 1.727 0 01.959.52 3.862 3.862 0 01.6 1.011 1.513 1.513 0 001.085.882 9.73 9.73 0 001.23 0 2.414 2.414 0 011.844.82 1.483 1.483 0 01.1 1.733l-.409.532.65-.165a2.053 2.053 0 012.212.9 2.1 2.1 0 01-.039 2.157l-.143.218.251.062a1.979 1.979 0 011.332 1.738 3.624 3.624 0 01-.31 1.789c-.408.944-.728 1.436-.684 1.459z" fill="#455a64"/></g><g><path d="M361.096 213.659a1.164 1.164 0 00.5-.164 3.569 3.569 0 001.185-.934 3.707 3.707 0 00.874-2.2 3.948 3.948 0 00-1.066-2.9l.023.277a7.185 7.185 0 001.35-2.583 2.931 2.931 0 00-.12-1.662 2.136 2.136 0 00-1.231-1.285l.051.457a3.012 3.012 0 001.3-2.71 3.37 3.37 0 00-.535-1.694 2.839 2.839 0 00-1.345-1.073c-.5-.218-.724-.45-.739-.952a4.116 4.116 0 00-.349-1.521 5.249 5.249 0 00-1.936-2.072c-.7-.5-1.343-.982-1.955-1.4a8.658 8.658 0 00-3.172-1.488 4.066 4.066 0 00-.956-.079c-.218.018-.331.037-.33.055 0 .052.461.007 1.241.221a9.313 9.313 0 013.005 1.593l1.91 1.444a4.88 4.88 0 011.754 1.92 3.642 3.642 0 01.293 1.369 1.489 1.489 0 00.288.856 2 2 0 00.726.513 2.688 2.688 0 01.53 4.584l-.443.277.494.181a2.064 2.064 0 011.05 2.367 6.941 6.941 0 01-1.233 2.431l-.1.15.125.127a3.615 3.615 0 011.024 2.582 3.529 3.529 0 01-.717 2.056 5.17 5.17 0 01-1.496 1.257z" fill="#455a64"/></g><g><path d="M344.844 200.152a2.051 2.051 0 00.712-.151 6.519 6.519 0 001.823-.949 6.926 6.926 0 002.071-2.425 2.779 2.779 0 00.351-2 1.372 1.372 0 00-.8-.885 1.1 1.1 0 00-1.265.214l.39.235a3.508 3.508 0 00.356-2 1.667 1.667 0 00-.623-.979 1.389 1.389 0 00-1.191-.169 2.06 2.06 0 01-.9.122c-.187-.058-.229-.3-.207-.686a3.173 3.173 0 00-.88-2.2 3.419 3.419 0 00-3.528-1.008l.331.305a2.94 2.94 0 00-.539-2.863 1.791 1.791 0 00-1.408-.444 1.332 1.332 0 00-1.156.847l.44.091a7.027 7.027 0 00-.887-3.787 7.307 7.307 0 00-1.94-2.282 6.452 6.452 0 00-1.676-.945 2.142 2.142 0 00-.659-.168 10.469 10.469 0 012.167 1.32 7.34 7.34 0 011.78 2.25 6.776 6.776 0 01.763 3.58l-.125 1.885.565-1.795c.2-.618 1.28-.713 1.8-.2a2.484 2.484 0 01.382 2.382l-.125.463.456-.158a2.922 2.922 0 012.978.88 2.664 2.664 0 01.745 1.836 2.221 2.221 0 00.044.614.824.824 0 00.5.561 2.229 2.229 0 001.184-.11.883.883 0 01.791.081 1.183 1.183 0 01.437.684 3.139 3.139 0 01-.312 1.721l-.481 1.264.871-1.028c.344-.406 1.2-.041 1.3.492a2.431 2.431 0 01-.286 1.705 6.886 6.886 0 01-1.9 2.377 9.964 9.964 0 01-2.349 1.323z" fill="#455a64"/></g><g><path d="M318.822 168.126a3.929 3.929 0 001.537-.616 4.353 4.353 0 001.4-1.212 2.859 2.859 0 00.506-2.256 2.146 2.146 0 00-.212-.542l-.109.358a2.478 2.478 0 001.277-1.716 2.264 2.264 0 00-.333-1.686c-.568-.829-1.24-.91-1.234-.859-.043.073.525.279.931 1.038a2 2 0 01.182 1.409 2.082 2.082 0 01-1.056 1.351l-.23.116.12.243a1.754 1.754 0 01.158.411 2.489 2.489 0 01-.4 1.864 4.516 4.516 0 01-1.2 1.17c-.814.556-1.378.853-1.337.927z" fill="#455a64"/></g><g><path d="M306.739 162.534a3.057 3.057 0 01-.366-1.9 2.154 2.154 0 011.222-1.628 2.33 2.33 0 012.482.385l.325.307.085-.441a4.267 4.267 0 01.591-1.531 1.958 1.958 0 011.3-.927c.829-.114 1.76.656 1.534 1.343l.49.1a3.962 3.962 0 011.423-2.588 3.868 3.868 0 012.225-.854 5.994 5.994 0 012.177.391c.013-.021-.15-.167-.511-.342a3.912 3.912 0 00-1.674-.367 4.069 4.069 0 00-2.485.833 4.33 4.33 0 00-1.654 2.871l.491.1a1.46 1.46 0 00-.516-1.507 2.073 2.073 0 00-1.561-.494 2.44 2.44 0 00-1.665 1.164 4.645 4.645 0 00-.645 1.724l.41-.134a2.737 2.737 0 00-2.995-.4 2.454 2.454 0 00-1.347 1.962 2.513 2.513 0 00.3 1.524c.186.309.35.423.364.409z" fill="#455a64"/></g></g><g><path d="M255.853 340.524l-15.152-6.264a204.121 204.121 0 019.073-37.334c5.45-15.059 14.4-21.83 17.2-23.653l.054-.179 4.518-2.734 19.465-12.526c-3.423 15.562 24.432 31.53 48.126-1.887l39.163 15.835-10.247 110.904 9.712 49.058-97.977-.286-.014.943-20.846-.2 4.461-21.772c-1.943-20.936-8.174-46.358-7.449-63.155-.104-2.11-.125-4.376-.087-6.75z" fill="#feab45"/><path d="M260.242 384.134a4.89 4.89 0 01-.234-.789q-.215-.854-.573-2.287c-.25-.993-.539-2.212-.818-3.639s-.652-3.043-.939-4.852c-.317-1.8-.655-3.781-.927-5.917-.324-2.13-.545-4.421-.8-6.829a177.693 177.693 0 01-.733-15.737c.026-5.593.338-10.914.792-15.737.267-2.407.5-4.7.829-6.827.28-2.135.625-4.112.949-5.914.293-1.808.664-3.423.956-4.848s.578-2.644.832-3.636l.581-2.284a4.785 4.785 0 01.238-.788 5 5 0 01-.135.813l-.485 2.3c-.223 1-.487 2.22-.744 3.65s-.609 3.044-.878 4.852c-.3 1.8-.623 3.777-.884 5.91-.313 2.126-.526 4.412-.778 6.814a188.542 188.542 0 00-.749 15.692c0 5.574.282 10.88.69 15.692.244 2.4.448 4.688.753 6.815.253 2.134.568 4.11.861 5.913.263 1.809.6 3.427.861 4.856s.511 2.654.73 3.653l.477 2.306a4.778 4.778 0 01.128.818z" fill="#263238"/><path d="M260.008 383.343a1.857 1.857 0 00.055.505l.258 1.424c.244 1.232.568 3.021.948 5.232a107.4 107.4 0 011.6 17.423 80.933 80.933 0 01-.587 9.609 75.1 75.1 0 01-1.42 7.737c-.231 1.1-.531 2.067-.756 2.929s-.45 1.6-.639 2.194l-.412 1.386a1.853 1.853 0 00-.11.5 1.923 1.923 0 00.209-.461l.506-1.358c.219-.59.477-1.316.725-2.175s.579-1.825.834-2.922a67.857 67.857 0 001.539-7.763 75.672 75.672 0 00.631-9.673 96.171 96.171 0 00-1.758-17.487c-.427-2.208-.807-3.989-1.112-5.209l-.353-1.4a1.861 1.861 0 00-.158-.491z" fill="#263238"/><path d="M417.313 349.534l-20.087-57.484s-5.308-16.934-21.226-21.116l-11.386 57.494 5.281 31.444z" fill="#eb952c"/><path d="M360.695 313.357a1.7 1.7 0 00.012.484l.138 1.377c.127 1.194.357 2.918.7 5.039.657 4.247 1.846 10.064 3.29 16.451s2.731 12.173 3.6 16.374l1.029 4.975.3 1.35a1.732 1.732 0 00.138.465 1.7 1.7 0 00-.035-.483l-.2-1.369c-.179-1.187-.48-2.9-.867-5.01-.777-4.223-2.014-10.027-3.453-16.416s-2.686-12.177-3.435-16.4c-.385-2.108-.669-3.82-.859-5.005l-.234-1.362a1.77 1.77 0 00-.124-.47z" fill="#263238"/><path d="M286.74 261.321a4.138 4.138 0 00.022.762c.022.249.025.561.079.923s.137.786.217 1.248c.113.462.258.973.422 1.531a16.279 16.279 0 00.726 1.746 15.345 15.345 0 002.589 3.8 26.63 26.63 0 009.973 6.476 28.478 28.478 0 0014.439 1.677 34.746 34.746 0 0013.71-4.943 49.478 49.478 0 009.143-7.655 76.058 76.058 0 005.241-6.091c.579-.751 1.02-1.34 1.307-1.749a4.1 4.1 0 00.421-.635 4.14 4.14 0 00-.5.571l-1.382 1.687c-1.21 1.454-2.973 3.554-5.347 5.96a50.725 50.725 0 01-9.134 7.5 34.71 34.71 0 01-13.524 4.833 28.278 28.278 0 01-14.2-1.6 26.69 26.69 0 01-9.879-6.279 15.367 15.367 0 01-2.6-3.684 16.8 16.8 0 01-.752-1.7 42.006 42.006 0 01-.459-1.5c-.1-.453-.183-.861-.261-1.225s-.089-.664-.127-.909a4.244 4.244 0 00-.124-.744z" fill="#fafafa"/><path d="M370.395 390.706c-5.941-7.045-6.506-17.025-6.791-26.236-.36-11.658-.108-25.116-.468-36.774 2.159 10.333 5.421 26.2 7.032 32.176 0 0-.782 6.094-.826 8.479-.04 2.179.151 4.561-.053 6.728-.528 5.606-1.406 11.8 1.836 16.4" opacity=".3"/><path d="M258.445 315.908a1.058 1.058 0 00.252.1l.754.247 2.917.9c1.265.394 2.819.859 4.643 1.328s3.884 1.074 6.2 1.583c2.307.545 4.836 1.139 7.577 1.655 2.727.583 5.67 1.051 8.763 1.567 6.2.938 13.055 1.727 20.281 2.152 7.232.385 14.134.366 20.4.12 3.131-.172 6.108-.312 8.883-.594 2.782-.212 5.36-.529 7.713-.822 2.357-.254 4.471-.63 6.333-.907s3.458-.569 4.758-.828l2.995-.59.776-.166a1.028 1.028 0 00.261-.074 1.063 1.063 0 00-.271.022l-.786.115-3.01.493c-1.3.228-2.9.5-4.767.74s-3.977.6-6.334.83c-2.351.269-4.927.564-7.7.756-2.771.264-5.742.387-8.867.546-6.253.219-13.138.223-20.351-.161-7.209-.424-14.049-1.2-20.239-2.106-3.087-.5-6.027-.953-8.752-1.517-2.739-.5-5.268-1.068-7.577-1.59-2.317-.485-4.382-1.057-6.208-1.505s-3.389-.878-4.662-1.242l-2.942-.808-.769-.2a1.108 1.108 0 00-.271-.044zM247.58 303.485a39.928 39.928 0 005.337 3.6 40.144 40.144 0 005.612 3.159 39.954 39.954 0 00-5.338-3.6 39.961 39.961 0 00-5.611-3.159z" fill="#fafafa"/><g><path d="M361.751 318.855a10.408 10.408 0 001.671-.092c1.073-.087 2.622-.263 4.53-.522a126.306 126.306 0 0029.053-7.626c1.789-.711 3.224-1.319 4.2-1.77a10.191 10.191 0 001.5-.741 10.317 10.317 0 00-1.578.554c-1 .393-2.454.948-4.255 1.612-3.6 1.332-8.634 3.03-14.3 4.521s-10.883 2.476-14.675 3.085c-1.9.306-3.434.537-4.5.686a10.138 10.138 0 00-1.646.293z" fill="#fafafa"/></g></g><g><path d="M333.273 397.507l-15.233.316s-22.843-8.254-27.54-7.465c-4.23.71-19.717 11-22.752 13.035a1.924 1.924 0 00-.734.936 3.32 3.32 0 001.847 4.22l.32.133-.139.461a5.512 5.512 0 00-.232 1.848 2.232 2.232 0 004.149.964l-.584 1.038a2.535 2.535 0 00-.323 1.387l.052.942a2.542 2.542 0 001.75 2.275 2.53 2.53 0 002.659-.7c1.964-2.16 6.207-6.488 9.077-6.966a67.251 67.251 0 019.375-.47 3.179 3.179 0 012.948 2.029c-1.7.122-13.572 6.312-17.773 8.527a4.5 4.5 0 00-2.442 3.38c-.153 1.315.511 2.692 3.111 2.085 5.581-1.3 15.624-5.92 15.624-5.92s5.18-1.48 8.536.888c4.721 3.33 6.884 4.552 10.938 3.207a34.324 34.324 0 007.043-3.272l14.647.853s7.62-13.27-4.324-23.731z" fill="#b78876"/><path d="M297.999 401.679c-.019.087-1.621-.426-4.291-.6a22.155 22.155 0 00-18.462 7.884c-1.726 2.045-2.463 3.556-2.539 3.51a5.266 5.266 0 01.508-1.056 19.37 19.37 0 011.8-2.648 21.48 21.48 0 0118.72-7.989 19.3 19.3 0 013.155.536 5.211 5.211 0 011.109.363z" fill="#aa6550"/><path d="M295.579 396.133a18.717 18.717 0 00-4.467-.779 19.478 19.478 0 00-10.389 2.942 41.771 41.771 0 00-8.372 7.083l-2.295 2.438a6.867 6.867 0 01-.876.866 6.7 6.7 0 01.751-.977c.5-.61 1.247-1.482 2.2-2.535a38.431 38.431 0 018.373-7.244 19 19 0 0110.623-2.877 12.651 12.651 0 013.316.607 7.6 7.6 0 01.855.328c.189.083.287.133.281.148z" fill="#aa6550"/><path d="M411.491 350.803c0-.1 7.925 35.633 8.956 41.914 1.206 7.346 3.213 25.208-13.162 28.69s-84.335-1.02-84.335-1.02l-4.91-22.564 62.265-8.843-6.8-29.9z" fill="#b78876"/></g></g><g><g fill="#263238"><path d="M409.482 57.055c0-3.044-1.6-4.859-3.808-4.859s-3.822 1.815-3.822 4.859 1.61 4.859 3.822 4.859 3.808-1.815 3.808-4.859zm-6.62 0c0-2.552 1.147-3.958 2.812-3.958s2.812 1.406 2.812 3.958-1.147 3.958-2.812 3.958-2.81-1.405-2.81-3.958zM400.453 57.055c0-3.044-1.6-4.859-3.808-4.859s-3.825 1.815-3.825 4.859 1.61 4.859 3.822 4.859 3.811-1.815 3.811-4.859zm-6.62 0c0-2.552 1.146-3.958 2.812-3.958s2.812 1.406 2.812 3.958-1.147 3.958-2.812 3.958-2.812-1.405-2.812-3.958zM388.8 52.278v9.556h.979v-8.68h2.251v-.874zM386.524 57.055c0-3.044-1.6-4.859-3.808-4.859s-3.822 1.815-3.822 4.859 1.61 4.859 3.822 4.859 3.808-1.815 3.808-4.859zm-6.62 0c0-2.552 1.146-3.958 2.812-3.958s2.811 1.406 2.811 3.958-1.146 3.958-2.811 3.958-2.812-1.405-2.812-3.958zM374.871 52.278v9.556h.984v-8.68h2.251v-.874z"/><g><path d="M418.888 70.608c0-3.044-1.6-4.859-3.809-4.859s-3.821 1.815-3.821 4.859 1.61 4.859 3.821 4.859 3.809-1.815 3.809-4.859zm-6.621 0c0-2.552 1.147-3.958 2.812-3.958s2.812 1.406 2.812 3.958-1.147 3.958-2.812 3.958-2.813-1.405-2.813-3.958zM409.855 70.608c0-3.044-1.6-4.859-3.808-4.859s-3.822 1.815-3.822 4.859 1.61 4.859 3.821 4.859 3.809-1.815 3.809-4.859zm-6.62 0c0-2.552 1.147-3.958 2.812-3.958s2.812 1.406 2.812 3.958-1.147 3.958-2.812 3.958-2.812-1.405-2.812-3.958zM398.203 65.834v9.554h.982v-8.684h2.252v-.87zM395.926 70.608c0-3.044-1.6-4.859-3.808-4.859s-3.821 1.815-3.821 4.859 1.61 4.859 3.821 4.859 3.808-1.815 3.808-4.859zm-6.62 0c0-2.552 1.147-3.958 2.812-3.958s2.812 1.406 2.812 3.958-1.147 3.958-2.812 3.958-2.812-1.405-2.812-3.958zM384.274 65.834v9.554h.983v-8.684h2.252v-.87zM379.349 65.834v9.554h.983v-8.684h2.252v-.87zM377.073 70.608c0-3.044-1.6-4.859-3.808-4.859s-3.822 1.815-3.822 4.859 1.61 4.859 3.822 4.859 3.808-1.815 3.808-4.859zm-6.62 0c0-2.552 1.146-3.958 2.812-3.958s2.812 1.406 2.812 3.958-1.147 3.958-2.812 3.958-2.812-1.405-2.812-3.958zM365.419 65.834v9.554h.983v-8.684h2.252v-.87z"/></g><g><path d="M409.48 83.715c0-3.044-1.6-4.859-3.809-4.859s-3.821 1.815-3.821 4.859 1.61 4.859 3.821 4.859 3.809-1.816 3.809-4.859zm-6.621 0c0-2.552 1.147-3.958 2.812-3.958s2.812 1.406 2.812 3.958-1.146 3.958-2.812 3.958-2.809-1.406-2.809-3.958zM397.83 78.934v9.554h.983v-8.681h2.252v-.873zM392.905 78.934v9.554h.984v-8.681h2.252v-.873zM387.98 78.934v9.554h.983v-8.681h2.252v-.873zM385.704 83.715c0-3.044-1.6-4.859-3.808-4.859s-3.822 1.815-3.822 4.859 1.61 4.859 3.822 4.859 3.808-1.816 3.808-4.859zm-6.62 0c0-2.552 1.146-3.958 2.812-3.958s2.812 1.406 2.812 3.958-1.147 3.958-2.812 3.958-2.812-1.406-2.812-3.958zM374.051 78.934v9.554h.984v-8.681h2.247v-.873z"/></g></g><path d="M354.819 105.058c0 .044.463-.01 1.257.164a5.594 5.594 0 012.894 1.715 5.3 5.3 0 011.153 2.013 4.622 4.622 0 01-.006 2.627 5.057 5.057 0 01-9.422 1.086 4.629 4.629 0 01-.6-2.557 5.312 5.312 0 01.666-2.223 5.6 5.6 0 012.427-2.328c.734-.349 1.2-.4 1.187-.445a1.057 1.057 0 00-.332.031 1.988 1.988 0 00-.395.091 3.172 3.172 0 00-.523.183 5.672 5.672 0 00-3.356 4.669 4.926 4.926 0 00.612 2.755 5.75 5.75 0 002.186 2.221 5.092 5.092 0 006.281-.724 5.755 5.755 0 001.623-2.66 4.924 4.924 0 00-.031-2.822 5.676 5.676 0 00-4.33-3.783 3.182 3.182 0 00-.551-.059 2 2 0 00-.4 0 1.108 1.108 0 00-.34.046zM349.242 82.55s-.034-.233-.118-.681-.218-1.12-.386-1.985l-.288-1.461c-.082-.542-.117-1.142-.186-1.788s-.129-1.342-.2-2.086a7.313 7.313 0 01-.047-1.155v-1.23a40.492 40.492 0 011.738-12.108 42.286 42.286 0 017.435-14.334l1.433-1.779c.518-.569 1.078-1.113 1.625-1.68l.83-.849a8.4 8.4 0 01.872-.824l1.867-1.57c.316-.262.626-.535.951-.793l1.031-.707 2.091-1.436c.718-.461 1.5-.84 2.25-1.27l1.148-.63c.193-.1.382-.218.58-.312l.61-.259a39.212 39.212 0 015.03-1.936c.877-.258 1.746-.574 2.647-.791l2.75-.559c.462-.086.922-.207 1.392-.264l1.422-.142c.951-.084 1.907-.216 2.873-.263a44.833 44.833 0 015.88.2l1.489.148c.248.028.5.045.746.08l.739.148 2.978.6c.986.246 1.957.579 2.945.867.489.161 1 .274 1.473.474l1.44.593a47.767 47.767 0 015.667 2.755l2.674 1.759.672.442c.215.161.421.335.632.5l1.261 1.014 1.267 1.019 1.173 1.136 1.173 1.145.589.574c.185.2.356.418.535.627l2.136 2.533q.942 1.37 1.893 2.749a41.938 41.938 0 016.659 25.865l-.331 3.323-.649 3.25-.165.807-.238.788-.476 1.569-.478 1.562-.618 1.5-.616 1.5-.31.744-.376.712-1.493 2.832a47.749 47.749 0 01-3.634 5.149l-.975 1.214c-.321.407-.711.751-1.061 1.127-.727.729-1.416 1.489-2.161 2.182l-2.321 1.959-.575.487c-.2.151-.411.287-.616.43l-1.232.849a44.691 44.691 0 01-5.055 3.01c-.869.426-1.77.772-2.644 1.158l-1.314.561c-.44.178-.9.293-1.347.441l-2.678.838c-.895.245-1.808.388-2.7.584a39.456 39.456 0 01-5.341.733l-.659.067c-.219.013-.44 0-.659.007h-1.306c-.869-.012-1.733.032-2.584-.026l-2.525-.248-1.244-.122-1.217-.239-2.393-.474a8.211 8.211 0 01-1.161-.3l-1.137-.343c-.752-.233-1.505-.438-2.233-.687l-2.114-.867a42.251 42.251 0 01-13.43-8.966c-.426-.419-.857-.821-1.26-1.234l-1.1-1.3-1.058-1.248c-.17-.207-.352-.4-.507-.611s-.3-.429-.442-.639l-1.675-2.42c-.511-.783-.9-1.586-1.324-2.315q-.306-.553-.6-1.075a7.221 7.221 0 01-.515-1.035q-.446-1.029-.831-1.924c-.252-.6-.51-1.141-.7-1.654l-.453-1.419-.62-1.925c-.142-.433-.225-.652-.225-.652s.056.226.186.663.329 1.093.584 1.938l.435 1.428c.185.517.438 1.064.684 1.666s.526 1.247.817 1.937a7.247 7.247 0 00.509 1.042l.592 1.083c.418.735.8 1.544 1.313 2.333l1.668 2.44q.219.318.441.644c.155.213.336.408.505.617q.519.616 1.057 1.259l1.1 1.309c.4.417.833.823 1.26 1.246a42.359 42.359 0 0013.476 9.066l2.126.878c.732.253 1.489.462 2.246.7l1.145.348a8.385 8.385 0 001.168.306l2.409.484c.406.079.812.169 1.224.24l1.253.126 2.543.256c.857.06 1.728.018 2.6.032h1.32c.221 0 .443.007.664-.006l.664-.066a39.775 39.775 0 005.384-.728c.9-.2 1.82-.339 2.722-.584l2.7-.84c.451-.149.916-.265 1.359-.443l1.326-.564c.882-.387 1.79-.735 2.667-1.163a44.922 44.922 0 005.1-3.029l1.244-.855c.206-.145.419-.281.621-.433l.582-.49 2.342-1.974c.753-.7 1.45-1.464 2.183-2.2.354-.379.747-.726 1.071-1.136l.985-1.224a47.976 47.976 0 003.671-5.192q.75-1.422 1.509-2.856l.38-.718.313-.751.622-1.511.625-1.518.484-1.575.48-1.584.241-.795.167-.814.656-3.28.335-3.354a42.293 42.293 0 00-6.72-26.1l-1.902-2.77-2.156-2.555c-.181-.211-.354-.428-.54-.632l-.594-.58-1.185-1.155-1.184-1.146-1.279-1.032-1.274-1.023c-.213-.168-.421-.343-.638-.506l-.678-.445-2.7-1.773a47.843 47.843 0 00-5.72-2.774l-1.453-.6c-.482-.2-.993-.316-1.486-.478-1-.289-1.977-.624-2.972-.871l-3-.6-.745-.148c-.25-.035-.5-.053-.753-.08l-1.5-.148a45.064 45.064 0 00-5.93-.19c-.975.048-1.938.183-2.9.269l-1.433.145c-.474.059-.937.181-1.4.268l-2.771.569c-.908.22-1.784.54-2.666.8a39.77 39.77 0 00-5.067 1.96l-.613.263c-.2.095-.39.211-.584.315l-1.167.647c-.76.435-1.542.818-2.264 1.284l-2.1 1.451-1.036.716c-.327.26-.639.535-.956.8l-1.876 1.587a8.3 8.3 0 00-.876.831l-.835.858c-.548.572-1.11 1.121-1.63 1.7l-1.438 1.8a42.362 42.362 0 00-7.428 14.433 40.391 40.391 0 00-1.68 12.171v1.234a7.327 7.327 0 00.057 1.158l.22 2.091c.075.647.117 1.248.2 1.79q.171.806.308 1.461l.424 1.98.167.671z" fill="#263238"/></g><g><path fill="#fafafa" d="M33.759 188.443h190.665v118.081H33.759z"/><path d="M33.759 306.524s.014-.73.022-2.131.012-3.481.022-6.2l.052-23.674.108-86.08-.2.2 190.65.057h.015l-.26-.261.02 118.081.24-.24-137.246.117-39.323.065-10.469.03-2.7.014c-.608.005-.925.014-.925.014s.3.01.9.014l2.675.015 10.42.029 39.269.065 137.4.118h.241v-.241l.02-118.081v-.26h-.276l-190.65.056h-.205v.2l.107 86.206.052 23.629.023 6.158c.005 1.397.018 2.1.018 2.1z" fill="#263238"/><path d="M33.858 199.966c0 .143 42.6.26 95.135.26 52.554 0 95.144-.117 95.144-.26s-42.59-.261-95.144-.261c-52.536 0-95.135.117-95.135.261zM214.291 194.75a1.563 1.563 0 101.562-1.563 1.562 1.562 0 00-1.562 1.563zM208.641 194.75a1.563 1.563 0 101.562-1.563 1.562 1.562 0 00-1.562 1.563z" fill="#263238"/><circle cx="1.563" cy="1.563" transform="translate(202.98 193.187)" fill="#263238" r="1.563"/><g fill="#263238"><path d="M203.628 221.089l4.529 1.747-4.529 1.748v1.059l5.715-2.258v-1.1l-5.715-2.257zM198.917 216.561h-1.109l4.209 12.016h1.11zM191.708 222.288v1.1l5.715 2.258v-1.062l-4.541-1.748 4.541-1.747v-1.055zM190.263 226.497a.852.852 0 00-.867-.867.84.84 0 00-.842.867.851.851 0 00.842.881.863.863 0 00.867-.881zM187.369 226.497a.853.853 0 00-.868-.867.839.839 0 00-.841.867.85.85 0 00.841.881.864.864 0 00.868-.881zM184.475 226.497a.852.852 0 00-.867-.867.84.84 0 00-.842.867.851.851 0 00.842.881.863.863 0 00.867-.881z"/></g><path d="M83.229 237.949c0 .144 28.186.261 62.946.261s62.952-.117 62.952-.261-28.179-.26-62.952-.26-62.946.116-62.946.26z" fill="#feab45"/><path d="M62.669 238.321a70.207 70.207 0 0012.1 0 70.47 70.47 0 00-12.1 0zM44.99 238.321a83.735 83.735 0 0013.212 0 84.049 84.049 0 00-13.212 0z" fill="#263238"/><path d="M128.96 248.557c0 .144 17.915.26 40.009.26s40.013-.116 40.013-.26-17.911-.261-40.013-.261-40.009.117-40.009.261zM129.53 288.134c0 .144 17.915.26 40.009.26s40.013-.116 40.013-.26-17.911-.261-40.013-.261-40.009.121-40.009.261z" fill="#feab45"/><path d="M99.888 248.557c0 .144 4.875.26 10.886.26s10.888-.116 10.888-.26-4.874-.261-10.888-.261-10.886.117-10.886.261zM100.116 288.134c0 .144 4.875.26 10.886.26s10.887-.116 10.887-.26-4.873-.261-10.887-.261-10.886.121-10.886.261z" fill="#263238"/><path d="M203.731 253.954a14.128 14.128 0 005.4 0 14.076 14.076 0 00-5.4 0z" fill="#feab45"/><path d="M185.121 254.065a65.956 65.956 0 0011.724 0 66.218 66.218 0 00-11.724 0zM173.215 254.065a48.49 48.49 0 0010.049 0 48.683 48.683 0 00-10.049 0zM158.137 254.065a50.3 50.3 0 0010.235 0 50.5 50.5 0 00-10.235 0zM144.924 254.065a41.6 41.6 0 009.305 0 41.76 41.76 0 00-9.305 0zM101.191 254.065c0 .144 9.166.261 20.47.261s20.471-.117 20.471-.261-9.163-.26-20.471-.26-20.47.116-20.47.26z" fill="#263238"/><path d="M204.475 260.839a10.5 10.5 0 004.652 0 10.534 10.534 0 00-4.652 0zM204.289 267.911a11.383 11.383 0 004.838 0 11.383 11.383 0 00-4.838 0zM204.289 275.913a11.341 11.341 0 004.838 0 11.383 11.383 0 00-4.838 0z" fill="#feab45"/><g><path d="M160.184 275.541c0 .144 8.082.26 18.05.26s18.053-.116 18.053-.26-8.081-.26-18.053-.26-18.05.116-18.05.26z" fill="#263238"/></g><g><path d="M163.347 267.911c0 .144 7.708.26 17.214.26s17.214-.116 17.214-.26-7.706-.26-17.214-.26-17.214.116-17.214.26z" fill="#263238"/></g><g><path d="M80.162 260.467c0 .144 26.247.26 58.618.26s58.623-.116 58.623-.26-26.242-.26-58.623-.26-58.618.116-58.618.26z" fill="#263238"/></g><g><path fill="#fafafa" d="M121.136 28.842h80.336v138.001h-80.336z"/><path d="M121.136 166.844s.01-.233.015-.676.008-1.106.014-1.964l.03-7.6.066-28.5.117-99.262-.242.243 80.326.018h.01l-.26-.261.059 138 .2-.2-58.6.107-16.081.051-4.207.022c-.952.007-1.451.022-1.451.022s.471.014 1.409.021l4.17.022 16.035.051 58.722.107h.2v-.2l.059-138v-.26h-.271l-80.326.018h-.242v.242l.118 99.423.066 28.447.029 7.549.015 1.936c.004.446.02.644.02.644z" fill="#263238"/><g transform="translate(182.394 33.292)" fill="#263238"><circle cx="1.628" cy="1.628" transform="translate(11.782)" r="1.628"/><circle cx="1.628" cy="1.628" transform="translate(5.891)" r="1.628"/><path d="M0 1.628A1.628 1.628 0 101.628 0 1.628 1.628 0 000 1.628z"/></g><g><path d="M143.218 72.557c0 .144 10.185.26 22.745.26s22.748-.116 22.748-.26-10.183-.26-22.748-.26-22.745.116-22.745.26zM133.732 83.607c0 .143 12.395.26 27.681.26s27.683-.117 27.683-.26-12.392-.261-27.683-.261-27.681.117-27.681.261zM131.478 124.834c0 .144 13.216.261 29.514.261s29.517-.117 29.517-.261-13.212-.26-29.517-.26-29.514.119-29.514.26zM184.443 89.228a15.268 15.268 0 005.622 0 15.326 15.326 0 00-5.622 0zM165.058 89.344a71.566 71.566 0 0012.213 0 71.84 71.84 0 00-12.213 0zM152.652 89.344a52.61 52.61 0 0010.468 0 52.812 52.812 0 00-10.468 0zM185.219 96.4a11.377 11.377 0 004.846 0 11.421 11.421 0 00-4.846 0zM185.025 103.767a12.343 12.343 0 005.04 0 12.3 12.3 0 00-5.04 0zM185.025 112.102a12.3 12.3 0 005.04 0 12.342 12.342 0 00-5.04 0zM139.083 111.715c0 .143 8.419.26 18.8.26s18.8-.117 18.8-.26-8.417-.261-18.8-.261-18.8.117-18.8.261zM142.378 103.767c0 .144 8.029.26 17.93.26s17.932-.116 17.932-.26-8.027-.261-17.932-.261-17.93.117-17.93.261zM181.354 135.843a12.342 12.342 0 005.04 0 12.342 12.342 0 00-5.04 0zM181.354 144.179a12.342 12.342 0 005.04 0 12.3 12.3 0 00-5.04 0zM135.412 143.791c0 .144 8.42.26 18.8.26s18.8-.116 18.8-.26-8.417-.261-18.8-.261-18.8.117-18.8.261zM138.708 135.843c0 .144 8.028.26 17.93.26s17.932-.116 17.932-.26-8.027-.26-17.932-.26-17.93.116-17.93.26zM129.041 96.013c0 .144 10.927.26 24.4.26s24.4-.116 24.4-.26-10.924-.26-24.4-.26-24.4.116-24.4.26z" fill="#feab45"/><path d="M121.891 41.298c0 .144 17.641.26 39.4.26s39.4-.116 39.4-.26-17.636-.261-39.4-.261-39.4.117-39.4.261z" fill="#263238"/><path d="M172.092 65.893a66.566 66.566 0 008.32.261 66.576 66.576 0 008.321-.261 66.937 66.937 0 00-8.321-.26 66.927 66.927 0 00-8.32.26zM181.516 50.822a29.756 29.756 0 007.85 0 29.643 29.643 0 00-7.85 0z" fill="#feab45"/></g></g></g><g><path d="M138.357 432.285h139.445l-17.993-97.865a7.314 7.314 0 00-7.194-5.992h-125.3a7.314 7.314 0 00-7.184 8.69z" fill="#455a64"/><path d="M277.802 432.285h52.89l-.212-.159a28.6 28.6 0 00-16.309-5.707l-37.823-1.112z" fill="#455a64"/><path d="M244.309 328.561c.006.036.388-.072 1.128-.077a6.941 6.941 0 013.1.768 9.543 9.543 0 013.716 3.382 17.957 17.957 0 012.278 6.326c.455 2.475.855 5.224 1.349 8.156s1.042 6.064 1.659 9.351c1.214 6.578 2.654 13.789 4.22 21.346 3.149 15.114 6.063 28.779 7.969 38.711.959 4.964 1.7 8.988 2.2 11.771l.583 3.2.164.831a1.2 1.2 0 00.074.281 1.165 1.165 0 00-.021-.289l-.114-.84-.486-3.221c-.44-2.794-1.125-6.83-2.038-11.806-1.814-9.954-4.673-23.637-7.821-38.748-1.565-7.555-3.019-14.76-4.258-21.328-.63-3.283-1.183-6.41-1.705-9.336s-.931-5.66-1.414-8.155a18.1 18.1 0 00-2.394-6.413 9.658 9.658 0 00-3.873-3.4 6.786 6.786 0 00-3.188-.691 4.091 4.091 0 00-1.128.181z" fill="#263238"/><g><path d="M185.418 378.154a6.742 6.742 0 106.742-6.742 6.741 6.741 0 00-6.742 6.742z" fill="#f5f5f5"/></g></g><g><path d="M10.637 432.285c0 .144 101.782.261 227.308.261 125.569 0 227.33-.117 227.33-.261s-101.761-.26-227.33-.26c-125.526 0-227.308.117-227.308.26z" fill="#263238"/></g><g><path d="M21.382 360.29a.8.8 0 01.1-.218l.331-.613c.3-.532.774-1.3 1.446-2.257a24.29 24.29 0 017.143-6.751 17.541 17.541 0 016.41-2.354 15.871 15.871 0 017.787.816 12.628 12.628 0 016.661 5.456c1.531 2.672 2.025 5.81 2.92 8.809a15.96 15.96 0 001.86 4.2 12.751 12.751 0 003.164 3.118c1.191.878 2.437 1.67 3.566 2.593a15.344 15.344 0 012.9 3.139 19.293 19.293 0 012.969 7.252 25.776 25.776 0 01.4 6.814 51.861 51.861 0 01-1.744 9.693c-.3 1.124-.544 1.991-.716 2.577a5.978 5.978 0 01-.291.888 6.094 6.094 0 01.186-.915l.617-2.6a55.934 55.934 0 001.565-9.665 25.712 25.712 0 00-.454-6.7 18.961 18.961 0 00-2.939-7.055 14.868 14.868 0 00-2.814-3.024c-1.1-.894-2.34-1.677-3.555-2.567a13.23 13.23 0 01-3.3-3.244 16.486 16.486 0 01-1.936-4.348c-.9-3.051-1.4-6.144-2.861-8.7a12.163 12.163 0 00-6.376-5.251 15.48 15.48 0 00-7.549-.84 17.291 17.291 0 00-6.278 2.24 24.885 24.885 0 00-7.168 6.546 37.781 37.781 0 00-1.523 2.189 5.878 5.878 0 01-.521.772z" fill="#e0e0e0"/><path d="M60.6 371.287c-.826-.768-1.228-.233-2.338-.031a6.911 6.911 0 00-3 1.5 12.629 12.629 0 00-4.092 13.252 9.854 9.854 0 009.049-14.8M26.676 355.846c-.415-1.049-1.008-.74-2.1-1.035a6.906 6.906 0 00-3.349.061 12.631 12.631 0 00-9.4 10.2 9.853 9.853 0 0014.538-9.47M68.071 392.186a11.372 11.372 0 00-17.882.87 14.076 14.076 0 009.274 3.658 14.375 14.375 0 009.342-3.779M65.281 376.579a11.527 11.527 0 0011.642-13.755 10.344 10.344 0 00-12.024 13.641M53.346 358.234a11.527 11.527 0 0015.552-9.105A10.345 10.345 0 0053.023 358M49.343 352.242a11.527 11.527 0 00-15.552 9.1 10.345 10.345 0 0015.875-8.87M44.572 349.016a11.525 11.525 0 006.135-16.944 10.345 10.345 0 00-6.532 16.971M32.345 349.6a11.527 11.527 0 00-9.407-15.366 10.345 10.345 0 009.184 15.695" fill="#e0e0e0"/><path d="M81.636 432.252l6.513-40.888-49.923.606 4.924 39.748" fill="#263238"/><g><g fill="#feab45"><path d="M60.095 383.895a8.517 8.517 0 01-8.285.7 8.976 8.976 0 01-4.533-7.163 9.579 9.579 0 0113.772 5.731M37.273 392.7a8.516 8.516 0 01-8.285.7 8.978 8.978 0 01-4.533-7.163 9.579 9.579 0 0113.772 5.731M50.083 373.034a8.515 8.515 0 01-6.534 5.142 8.977 8.977 0 01-7.725-3.49 9.578 9.578 0 0114.654-2.786M41.753 383.225a8.517 8.517 0 017.453 3.687 8.979 8.979 0 01.171 8.475 9.578 9.578 0 01-8.818-12.031M33.712 399.319a8.516 8.516 0 01-.2 8.312 8.977 8.977 0 01-7.61 3.733 10.17 10.17 0 01.472-8.268c1.311-2.387 3.676-3.566 6.638-4.238"/></g><path d="M20.445 401.212a5.938 5.938 0 011.973-1.258 8.5 8.5 0 012.707-.475 32.747 32.747 0 013.685.216 10.755 10.755 0 004.535-.389 6.947 6.947 0 003.744-3.619 20.664 20.664 0 001.614-5.521 15.875 15.875 0 011.923-5.667 20.025 20.025 0 014.221-4.29 20.461 20.461 0 004.041-4.1 13.512 13.512 0 002.01-9.395 13.187 13.187 0 00-2.451-6.041 10.017 10.017 0 00-1.2-1.319 2.616 2.616 0 00-.472-.4 2.758 2.758 0 00.395.477 13.045 13.045 0 011.1 1.366 13.477 13.477 0 012.242 5.969 13.248 13.248 0 01-2.043 9.064 20.275 20.275 0 01-3.968 3.974 20.186 20.186 0 00-4.336 4.4 16.2 16.2 0 00-1.988 5.856 20.537 20.537 0 01-1.54 5.4 6.518 6.518 0 01-3.456 3.421 10.522 10.522 0 01-4.352.427 30.476 30.476 0 00-3.723-.136 8.36 8.36 0 00-2.771.581 4.606 4.606 0 00-1.5.972 2.53 2.53 0 00-.309.348c-.06.088-.089.133-.081.139z" fill="#feab45"/><path d="M20.445 401.212a5.938 5.938 0 011.973-1.258 8.5 8.5 0 012.707-.475 32.747 32.747 0 013.685.216 10.755 10.755 0 004.535-.389 6.947 6.947 0 003.744-3.619 20.664 20.664 0 001.614-5.521 15.875 15.875 0 011.923-5.667 20.025 20.025 0 014.221-4.29 20.461 20.461 0 004.041-4.1 13.512 13.512 0 002.01-9.395 13.187 13.187 0 00-2.451-6.041 10.017 10.017 0 00-1.2-1.319 2.616 2.616 0 00-.472-.4 2.758 2.758 0 00.395.477 13.045 13.045 0 011.1 1.366 13.477 13.477 0 012.242 5.969 13.248 13.248 0 01-2.043 9.064 20.275 20.275 0 01-3.968 3.974 20.186 20.186 0 00-4.336 4.4 16.2 16.2 0 00-1.988 5.856 20.537 20.537 0 01-1.54 5.4 6.518 6.518 0 01-3.456 3.421 10.522 10.522 0 01-4.352.427 30.476 30.476 0 00-3.723-.136 8.36 8.36 0 00-2.771.581 4.606 4.606 0 00-1.5.972 2.53 2.53 0 00-.309.348c-.06.088-.089.133-.081.139z" fill="#feab45"/><g fill="#feab45"><path d="M115.742 405.4a12.632 12.632 0 0117.094-12.44 21.062 21.062 0 01-16.645 12.284M119.039 407.141c2.441 2.679 2.284 6.994.538 10.17s-4.753 5.44-7.764 7.456a16.4 16.4 0 017.061-18.6M107.212 394.569a14.571 14.571 0 01-16.562 12.982c.946-3.923 2.521-7.877 5.553-10.54s7.811-3.654 11.167-1.412M107.29 390.566c.613-3.571 4.137-6.162 7.745-6.5s7.175 1.2 10.068 3.386a13.09 13.09 0 01-17.847 1.763M125.889 420.949c3.428 2.926 4.286 8.139 2.862 12.416s-4.762 7.686-8.511 10.188c-1.44-4.24-2.343-8.785-1.583-13.2s3.417-8.675 7.518-10.473M107.846 380.545a10.535 10.535 0 00-16.685-.976 9.1 9.1 0 0016.427.422M103.645 370.245a13.69 13.69 0 0017.463-10.711 31.284 31.284 0 00-8.249.12 13.429 13.429 0 00-7.3 3.6 7.246 7.246 0 00-1.911 6.99M95.729 367.579a11.193 11.193 0 00.071-17.274 23.441 23.441 0 00-4.9 10.438 8.807 8.807 0 00.038 4.32 3.981 3.981 0 003.023 2.828"/></g><path d="M115.742 405.4a12.632 12.632 0 0117.094-12.44 21.062 21.062 0 01-16.645 12.284M119.039 407.141c2.441 2.679 2.284 6.994.538 10.17s-4.753 5.44-7.764 7.456a16.4 16.4 0 017.061-18.6M107.212 394.569a14.571 14.571 0 01-16.562 12.982c.946-3.923 2.521-7.877 5.553-10.54s7.811-3.654 11.167-1.412M107.29 390.566c.613-3.571 4.137-6.162 7.745-6.5s7.175 1.2 10.068 3.386a13.09 13.09 0 01-17.847 1.763M125.889 420.949c3.428 2.926 4.286 8.139 2.862 12.416s-4.762 7.686-8.511 10.188c-1.44-4.24-2.343-8.785-1.583-13.2s3.417-8.675 7.518-10.473M107.846 380.545a10.535 10.535 0 00-16.685-.976 9.1 9.1 0 0016.427.422M103.645 370.245a13.69 13.69 0 0017.463-10.711 31.284 31.284 0 00-8.249.12 13.429 13.429 0 00-7.3 3.6 7.246 7.246 0 00-1.911 6.99M95.729 367.579a11.193 11.193 0 00.071-17.274 23.441 23.441 0 00-4.9 10.438 8.807 8.807 0 00.038 4.32 3.981 3.981 0 003.023 2.828" opacity=".4"/><g><path d="M72.036 392.679a1.028 1.028 0 000-.282l-.05-.822a63.39 63.39 0 01-.138-3.158 28.223 28.223 0 011.856-11.344 17.317 17.317 0 014.56-6.418 12.18 12.18 0 018.3-3.055 10.4 10.4 0 014.683 1.173 9.319 9.319 0 013.619 3.455c1.81 2.985 2.258 6.734 2.1 10.43-.131 3.723-.663 7.4-.25 10.975a16.792 16.792 0 001.367 5.088 10.663 10.663 0 003.071 4.025 15.463 15.463 0 004.276 2.188 21.779 21.779 0 014.033 1.829 14.6 14.6 0 015.294 5.769 13.949 13.949 0 011.529 6.31 14.8 14.8 0 01-.8 4.877 18.071 18.071 0 01-1.889 3.8 1.045 1.045 0 00.184-.214c.111-.149.288-.363.48-.671a13.263 13.263 0 001.424-2.84 14.739 14.739 0 00.9-4.947 14.163 14.163 0 00-1.49-6.484 14.942 14.942 0 00-5.4-5.977c-2.469-1.643-5.727-2.052-8.237-4.027s-3.835-5.347-4.221-8.783c-.4-3.483.129-7.133.264-10.9.158-3.742-.289-7.6-2.189-10.725a9.818 9.818 0 00-3.83-3.635 10.864 10.864 0 00-4.914-1.214 12.612 12.612 0 00-8.605 3.213 17.609 17.609 0 00-4.621 6.611 23.723 23.723 0 00-1.572 6.474 35.631 35.631 0 00-.141 5.023c.057 1.377.158 2.442.24 3.162.042.333.076.6.1.818a1.163 1.163 0 00.067.276z" fill="#e8505b"/><path d="M72.036 392.679a1.028 1.028 0 000-.282l-.05-.822a63.39 63.39 0 01-.138-3.158 28.223 28.223 0 011.856-11.344 17.317 17.317 0 014.56-6.418 12.18 12.18 0 018.3-3.055 10.4 10.4 0 014.683 1.173 9.319 9.319 0 013.619 3.455c1.81 2.985 2.258 6.734 2.1 10.43-.131 3.723-.663 7.4-.25 10.975a16.792 16.792 0 001.367 5.088 10.663 10.663 0 003.071 4.025 15.463 15.463 0 004.276 2.188 21.779 21.779 0 014.033 1.829 14.6 14.6 0 015.294 5.769 13.949 13.949 0 011.529 6.31 14.8 14.8 0 01-.8 4.877 18.071 18.071 0 01-1.889 3.8 1.045 1.045 0 00.184-.214c.111-.149.288-.363.48-.671a13.263 13.263 0 001.424-2.84 14.739 14.739 0 00.9-4.947 14.163 14.163 0 00-1.49-6.484 14.942 14.942 0 00-5.4-5.977c-2.469-1.643-5.727-2.052-8.237-4.027s-3.835-5.347-4.221-8.783c-.4-3.483.129-7.133.264-10.9.158-3.742-.289-7.6-2.189-10.725a9.818 9.818 0 00-3.83-3.635 10.864 10.864 0 00-4.914-1.214 12.612 12.612 0 00-8.605 3.213 17.609 17.609 0 00-4.621 6.611 23.723 23.723 0 00-1.572 6.474 35.631 35.631 0 00-.141 5.023c.057 1.377.158 2.442.24 3.162.042.333.076.6.1.818a1.163 1.163 0 00.067.276z" opacity=".4"/></g><g><path d="M9.344 383.757a10.6 10.6 0 01-.746-3.659 9.149 9.149 0 01.972-4.222 8.807 8.807 0 014.071-3.932 8.911 8.911 0 013.208-.866 10.475 10.475 0 013.588.421c2.445.643 4.866 2.033 7.758 2.608a9.157 9.157 0 004.5-.111 6.755 6.755 0 003.665-2.927c1.743-2.7 2.235-6.1 4.34-8.59a8.583 8.583 0 013.943-2.577 11.067 11.067 0 014.608-.467 11.811 11.811 0 017.664 3.987 18 18 0 013.8 7.036 21.236 21.236 0 01.85 6.973 76.516 76.516 0 01-1.295 10.2q-.3 1.747-.478 2.764l-.107.722a.825.825 0 00-.018.249.879.879 0 00.072-.239l.161-.712.577-2.744a69.469 69.469 0 001.47-10.224 21.419 21.419 0 00-.8-7.111 18.385 18.385 0 00-3.865-7.247 13.7 13.7 0 00-3.5-2.8 12.069 12.069 0 00-9.306-.894 9.1 9.1 0 00-4.187 2.737c-2.228 2.671-2.705 6.088-4.374 8.654a6.237 6.237 0 01-3.376 2.722 8.678 8.678 0 01-4.249.114c-2.787-.533-5.219-1.9-7.736-2.551a10.792 10.792 0 00-3.738-.4 9.225 9.225 0 00-3.342.938 9.074 9.074 0 00-4.175 4.142 9.22 9.22 0 00-.912 4.361 8.716 8.716 0 00.539 2.766 4.446 4.446 0 00.418.879z" fill="#e8505b"/></g><path d="M38.539 365.641a9.7 9.7 0 01-8.9.586 8.975 8.975 0 01-4.533-7.162 9.577 9.577 0 0113.772 5.731M29.077 374.226a9.7 9.7 0 01-4.133 7.907 8.975 8.975 0 01-8.475.143 9.578 9.578 0 0112.061-8.777M12.657 372.323a9.7 9.7 0 01-8.914-.367A8.975 8.975 0 010 364.351a9.578 9.578 0 0113.082 7.167M52.329 359.956c2.392-2.065 4-5.687 3.538-8.4a8.975 8.975 0 00-5.5-6.448 9.577 9.577 0 001.4 14.85" fill="#feab45"/><g><path d="M116.435 348.201a.813.813 0 00-.1-.218l-.331-.613a26.99 26.99 0 00-1.446-2.257 24.282 24.282 0 00-7.144-6.75 17.511 17.511 0 00-6.409-2.355 15.87 15.87 0 00-7.787.817 12.631 12.631 0 00-6.661 5.455c-1.532 2.672-2.025 5.81-2.92 8.809a15.978 15.978 0 01-1.86 4.2 12.717 12.717 0 01-3.164 3.118c-1.192.879-2.437 1.67-3.566 2.593a15.324 15.324 0 00-2.9 3.14 19.3 19.3 0 00-2.97 7.252 25.764 25.764 0 00-.4 6.813 51.762 51.762 0 001.744 9.693c.3 1.124.544 1.991.716 2.578a5.986 5.986 0 00.291.887 6.093 6.093 0 00-.186-.915l-.617-2.6a55.982 55.982 0 01-1.566-9.664 25.756 25.756 0 01.455-6.7 18.972 18.972 0 012.939-7.056 14.9 14.9 0 012.814-3.024c1.1-.894 2.34-1.677 3.555-2.567a13.192 13.192 0 003.295-3.244 16.407 16.407 0 001.932-4.346c.906-3.05 1.4-6.144 2.862-8.7a12.157 12.157 0 016.376-5.252 15.48 15.48 0 017.549-.839 17.29 17.29 0 016.278 2.239 24.927 24.927 0 017.168 6.546 38.658 38.658 0 011.523 2.189 5.786 5.786 0 00.53.771z" fill="#e8505b"/><path d="M77.217 359.199c.826-.769 1.228-.234 2.338-.032a6.9 6.9 0 013 1.5 12.63 12.63 0 014.093 13.252 9.854 9.854 0 01-9.05-14.8M111.141 343.757c.415-1.049 1.008-.739 2.1-1.034a6.881 6.881 0 013.349.061 12.628 12.628 0 019.4 10.2 9.854 9.854 0 01-14.538-9.471M69.746 380.097a11.37 11.37 0 0117.881.871 14.065 14.065 0 01-9.273 3.657 14.375 14.375 0 01-9.342-3.779M72.531 364.49a11.527 11.527 0 01-11.642-13.756 10.345 10.345 0 0112.024 13.642M84.471 346.143a11.527 11.527 0 01-15.552-9.1 10.346 10.346 0 0115.874 8.871M88.474 340.153a11.527 11.527 0 0115.551 9.105 10.346 10.346 0 01-15.874-8.871M93.245 336.928a11.527 11.527 0 01-6.135-16.945 10.345 10.345 0 016.532 16.971M105.472 337.511a11.527 11.527 0 019.411-15.368 10.346 10.346 0 01-9.184 15.7" fill="#feab45"/></g></g><path d="M88.785 427.515l-3.82 4.737H37.984l-3.2-4.737z" fill="#263238"/><g><path d="M35.816 427.471c0 .15 11.544.271 25.782.271s25.785-.121 25.785-.271-11.542-.27-25.785-.27-25.782.121-25.782.27z" fill="#455a64"/></g><g><path d="M41.098 409.634c-.014.012.087.144.293.385a10.559 10.559 0 00.957 1.006 17.517 17.517 0 004.2 2.911 18.469 18.469 0 007.334 1.883 17.64 17.64 0 004.487-.376 26.437 26.437 0 004.574-1.515c3.029-1.29 5.781-2.759 8.464-3.613a14.593 14.593 0 017.309-.705 9.522 9.522 0 014.483 2.08c.891.784 1.232 1.369 1.279 1.334a1.7 1.7 0 00-.236-.425 6.827 6.827 0 00-.9-1.064 9.319 9.319 0 00-4.549-2.3 14.677 14.677 0 00-7.537.605c-2.745.846-5.529 2.315-8.522 3.588a26.523 26.523 0 01-4.479 1.5 17.478 17.478 0 01-4.352.4 18.614 18.614 0 01-7.188-1.73 22.252 22.252 0 01-5.617-3.964z" fill="#455a64"/></g><g><path d="M40.63 405.965c-.013.013.1.138.322.364a11.529 11.529 0 001.028.937 19.429 19.429 0 004.348 2.7 20.424 20.424 0 007.385 1.764 20.112 20.112 0 004.5-.3 30.168 30.168 0 004.644-1.314c3.1-1.126 5.946-2.419 8.667-3.179a17.2 17.2 0 017.37-.667 11.054 11.054 0 014.652 1.777c.975.685 1.4 1.206 1.443 1.168a1.672 1.672 0 00-.293-.389 7.934 7.934 0 00-1.025-.949 10.707 10.707 0 00-4.715-1.985 17.139 17.139 0 00-7.566.565c-2.775.747-5.648 2.036-8.716 3.15a30.54 30.54 0 01-4.56 1.3 20.035 20.035 0 01-4.38.325 20.73 20.73 0 01-7.253-1.616 25.7 25.7 0 01-5.851-3.651z" fill="#455a64"/></g></g></svg>