<?xml version="1.0" encoding="utf-8"?>
<!-- Generator: Adobe Illustrator 25.0.1, SVG Export Plug-In . SVG Version: 6.00 Build 0)  -->
<svg version="1.1" xmlns="http://www.w3.org/2000/svg" xmlns:xlink="http://www.w3.org/1999/xlink" x="0px" y="0px"
	 viewBox="0 0 750 500" style="enable-background:new 0 0 750 500;" xml:space="preserve">
<g id="Background_Complete">
	<g>
		<g>
			<path style="fill:#E0E0E0;" d="M231.73,87.06c2.56-1.07,4.38-3.71,4.39-6.82c0.02-4.07-3.07-7.39-6.89-7.41
				c-3.82-0.02-6.93,3.27-6.94,7.34c-0.01,3.14,1.82,5.81,4.41,6.89c-10.64,1.6-10.16,13.17-10.16,13.17l25.16,0.12
				C241.71,100.35,242.28,88.66,231.73,87.06z"/>
		</g>
		<g>
			<polygon style="fill:#F5F5F5;" points="640.28,147.91 628.61,135.34 632.39,131.83 640.45,140.5 657.38,123.84 661,127.52 			"/>
		</g>
		<path style="fill:#EBEBEB;" d="M471.02,216.56c0-8.58-9.02-14.02-18.22-9.72c-2.08,0.97-3.8,2.62-4.84,4.64
			c-2.31,4.48-1.29,9.6,0.81,13.85l7.16,18.14c1.03,2.61,4.74,2.6,5.75-0.02l7.02-18.23C471.12,219.65,471.02,216.56,471.02,216.56z
			 M462.38,224.03c-6.18,3.59-12.45-3.05-9.06-9.61c0.45-0.87,1.14-1.6,1.96-2.08c6.18-3.6,12.45,3.05,9.06,9.61
			C463.89,222.82,463.2,223.55,462.38,224.03z"/>
		<g>
			<g>
				<path style="fill:#EBEBEB;" d="M577.37,341.18c-19.27-17.6-20.37-45.5-16.18-69.87c0.7-4.07,0.84-8.44,3.29-11.75
					c2.46-3.32,7.39-5.13,10.86-2.9c2.88,1.85,3.74,5.57,5.06,8.72c1.76,4.2,4.73,7.88,8.46,10.49c2.45,1.71,5.6,2.99,8.4,1.93
					c3.84-1.45,4.92-6.27,5.46-10.34c0.99-7.58,1.98-15.16,2.96-22.75c0.53-4.07,1.08-8.22,2.89-11.9c1.81-3.68,5.13-6.88,9.19-7.42
					c4.07-0.54,8.61,2.35,8.89,6.44c0.12,1.7-0.46,3.38-0.58,5.08c-0.12,1.7,0.43,3.68,1.98,4.37c1.58,0.7,3.38-0.23,4.78-1.24
					c4.81-3.52,8.42-8.41,11.83-13.3c3.42-4.89,6.77-9.91,11.24-13.86c4.47-3.95,10.29-6.76,16.23-6.28
					c5.94,0.48,11.74,4.94,12.44,10.86c0.71,5.94-3.47,11.28-7.79,15.42c-6.41,6.13-13.71,11.33-21.6,15.38
					c-1.42,0.73-2.96,1.52-3.67,2.96c-1.26,2.59,0.97,5.64,3.56,6.9c2.93,1.43,6.31,1.57,9.47,2.39c3.16,0.81,6.45,2.69,7.25,5.85
					c1.12,4.39-3,8.26-6.85,10.63c-7.72,4.76-16.26,8.18-25.12,10.08c-3.18,0.68-6.5,1.2-9.23,2.97c-2.73,1.77-4.7,5.22-3.62,8.28
					c1.08,3.07,4.75,4.51,8,4.36c3.25-0.14,6.33-1.45,9.5-2.17c5.95-1.33,13.2,0.06,16.17,5.38c1.95,3.5,1.55,7.95-0.17,11.57
					c-1.72,3.62-4.61,6.54-7.62,9.19c-10.51,9.26-23.28,16.12-37.02,18.81C602.1,348.14,589.77,347.68,577.37,341.18"/>
			</g>
			<g>
				<g>
					<path style="fill:#E0E0E0;" d="M578.9,351.1c2.23-9.57,1.67-12.52,7.03-24.36c5.34-11.85,12.29-24.36,20.01-37.19
						c1.94-3.2,3.86-6.36,5.75-9.48c1.89-3.11,3.77-6.19,5.8-9.09c4.03-5.82,8.35-11.11,12.61-16.01c4.26-4.9,8.49-9.4,12.47-13.57
						c3.99-4.17,7.79-7.99,11.4-11.32c7.2-6.69,13.65-11.4,18.2-14.46c2.28-1.54,4.08-2.67,5.32-3.43c0.6-0.36,1.07-0.64,1.41-0.85
						c0.32-0.19,0.49-0.27,0.49-0.27s-0.15,0.12-0.46,0.33c-0.33,0.22-0.79,0.52-1.37,0.9c-1.21,0.79-2.99,1.96-5.25,3.52
						c-4.51,3.12-10.9,7.86-18.04,14.58c-3.58,3.34-7.35,7.17-11.33,11.35c-3.96,4.19-8.17,8.69-12.41,13.59
						c-4.24,4.9-8.54,10.18-12.55,15.98c-2.01,2.89-3.88,5.95-5.77,9.07c-1.89,3.12-3.81,6.28-5.75,9.48
						c-7.72,12.83-14.67,25.3-20.02,37.11c-5.38,11.79-4.85,14.7-7.13,24.22"/>
				</g>
			</g>
			<g>
				<g>
					<path style="fill:#E0E0E0;" d="M617.66,270.93c-0.04,0-0.09-0.64-0.14-1.79c-0.05-1.15-0.08-2.82-0.09-4.89
						c-0.02-4.13,0.15-9.83,0.35-16.11c0.2-6.29,0.26-11.98,0.16-16.09c-0.05-2.06-0.1-3.72-0.16-4.88
						c-0.05-1.15-0.06-1.79-0.02-1.79c0.04,0,0.13,0.63,0.26,1.78c0.13,1.15,0.26,2.81,0.36,4.88c0.22,4.12,0.22,9.83,0.02,16.13
						c-0.21,6.23-0.39,11.87-0.53,16.1c-0.04,1.97-0.08,3.61-0.11,4.88C617.74,270.29,617.71,270.93,617.66,270.93z"/>
				</g>
			</g>
			<g>
				<g>
					<path style="fill:#E0E0E0;" d="M671.95,268.44c0,0.02-0.19,0.02-0.56,0.01c-0.44-0.02-0.96-0.05-1.59-0.08
						c-1.38-0.08-3.36-0.19-5.83-0.25c-4.92-0.16-11.73-0.14-19.23,0.21c-7.51,0.37-14.28,1-19.17,1.6
						c-2.45,0.28-4.42,0.57-5.78,0.76c-0.62,0.08-1.14,0.15-1.57,0.21c-0.36,0.04-0.55,0.05-0.56,0.03c0-0.02,0.18-0.07,0.54-0.16
						c0.43-0.09,0.94-0.2,1.55-0.33c1.35-0.26,3.32-0.62,5.77-0.96c4.88-0.71,11.67-1.41,19.2-1.78c7.52-0.36,14.35-0.31,19.28-0.03
						c2.46,0.12,4.46,0.3,5.83,0.45c0.63,0.08,1.14,0.14,1.58,0.2C671.76,268.38,671.95,268.42,671.95,268.44z"/>
				</g>
			</g>
			<g>
				<g>
					<path style="fill:#E0E0E0;" d="M586.66,325.84c-0.02,0.01-0.11-0.23-0.26-0.69c-0.17-0.53-0.38-1.19-0.64-2.02
						c-0.55-1.75-1.27-4.31-2.13-7.48c-1.72-6.34-3.83-15.17-6.04-24.94c-2.21-9.78-4.25-18.61-5.86-24.97
						c-0.8-3.12-1.46-5.67-1.94-7.53c-0.21-0.84-0.39-1.52-0.52-2.05c-0.11-0.47-0.16-0.72-0.14-0.73c0.02-0.01,0.11,0.23,0.26,0.69
						c0.16,0.52,0.37,1.19,0.63,2.02c0.55,1.75,1.27,4.31,2.13,7.48c1.72,6.34,3.83,15.17,6.04,24.95
						c2.21,9.77,4.25,18.61,5.86,24.97c0.8,3.12,1.46,5.67,1.94,7.53c0.21,0.84,0.39,1.52,0.52,2.05
						C586.63,325.58,586.68,325.83,586.66,325.84z"/>
				</g>
			</g>
			<g>
				<g>
					<path style="fill:#E0E0E0;" d="M660.07,313.13c0,0.02-0.25,0.08-0.74,0.17c-0.55,0.1-1.26,0.22-2.14,0.38
						c-1.94,0.33-4.6,0.79-7.87,1.35c-6.64,1.15-15.8,2.85-25.9,4.75c-10.11,1.9-19.29,3.54-25.95,4.58
						c-3.33,0.52-6.03,0.92-7.9,1.16c-0.88,0.11-1.6,0.2-2.16,0.27c-0.49,0.05-0.75,0.07-0.76,0.05c0-0.02,0.25-0.08,0.74-0.17
						c0.55-0.1,1.26-0.23,2.14-0.38c1.93-0.33,4.6-0.79,7.87-1.35c6.64-1.15,15.8-2.85,25.91-4.75c10.11-1.9,19.28-3.54,25.95-4.58
						c3.33-0.52,6.03-0.92,7.9-1.16c0.88-0.11,1.6-0.2,2.16-0.27C659.81,313.12,660.07,313.1,660.07,313.13z"/>
				</g>
			</g>
		</g>
		<g>
			<path style="fill:#EBEBEB;" d="M58.28,218.46c0,0,5.96-6.78,19.54,8.19c13.58,14.97,19.66,24.07,19.66,24.07s3.33,3,5.18-0.06
				c1.85-3.06,3.44-10.74,8.02-10.68c4.75,0.06,7.54,4.59,8.67,12.04c1.13,7.46,4.19,23.71,4.48,25.17c0.28,1.44,1.65,3.3,3.25,1.42
				c1.6-1.88,9.47-17.53,16.67-13.35c7.2,4.18,6.93,25.47,6.94,27.8c0.01,2.33,0.69,3.14,1.87,3.4c1.18,0.26,3.33-5.25,5.75-9.61
				c2.42-4.36,5.99-8.99,9.95-6.23s8.94,17.32,1.38,45.23l-4.35,12.7l-13.19,2.81c-28.6,4.3-42.49-2.32-44.78-6.57
				c-2.29-4.24,2.72-7.26,7.33-9.17c4.61-1.9,10.33-3.41,10.21-4.61c-0.12-1.2-0.85-1.97-3.16-2.25
				c-2.31-0.28-23.49-2.45-26.82-10.09c-3.33-7.63,13.12-13.66,15.18-15.03c2.05-1.37,0.36-2.95-1.04-3.39
				c-1.43-0.45-17.21-5.36-24.49-7.34c-7.28-1.97-11.45-5.27-10.97-9.99c0.47-4.56,8.28-5.25,11.53-6.74
				c3.25-1.49,0.65-5.14,0.65-5.14s-8.35-7.09-21.66-22.3c-13.31-15.21-5.68-20.44-5.68-20.44"/>
			<g>
				<path style="fill:#E0E0E0;" d="M70.46,231.84c0.01-0.01,0.1,0.08,0.26,0.26c0.18,0.2,0.42,0.46,0.73,0.8
					c0.66,0.73,1.59,1.77,2.78,3.1c2.42,2.72,5.89,6.62,10.16,11.43c8.63,9.64,20.53,22.92,33.67,37.59
					c13.18,14.66,25.05,27.99,33.56,37.7c4.22,4.86,7.65,8.79,10.04,11.54c1.16,1.36,2.06,2.42,2.7,3.16
					c0.29,0.35,0.52,0.62,0.69,0.83c0.15,0.19,0.23,0.29,0.22,0.29c-0.01,0.01-0.1-0.08-0.26-0.26c-0.18-0.2-0.42-0.46-0.73-0.8
					c-0.65-0.73-1.59-1.77-2.77-3.1c-2.42-2.72-5.89-6.62-10.16-11.43c-8.58-9.65-20.49-22.94-33.68-37.6
					c-13.18-14.65-25.05-27.98-33.56-37.7c-4.22-4.86-7.65-8.8-10.04-11.54c-1.16-1.36-2.06-2.42-2.7-3.16
					c-0.29-0.35-0.52-0.62-0.69-0.83C70.53,231.94,70.45,231.84,70.46,231.84z"/>
			</g>
			<g>
				<path style="fill:#E0E0E0;" d="M108.89,250.81c0.08,0,0.12,1.38,0.18,3.61c0.07,2.37,0.17,5.37,0.27,8.7
					c0.11,3.4,0.19,6.48,0.18,8.71c-0.01,1.12-0.03,2.02-0.07,2.64c-0.04,0.62-0.08,0.97-0.12,0.97c-0.08,0-0.1-1.38-0.18-3.6
					c-0.09-2.37-0.21-5.38-0.34-8.7c-0.11-3.4-0.15-6.48-0.12-8.72c0.02-1.12,0.04-2.02,0.08-2.64
					C108.82,251.16,108.86,250.81,108.89,250.81z"/>
			</g>
			<g>
				<path style="fill:#E0E0E0;" d="M108.21,276c0,0.14-6.36,0.17-14.21,0.06c-7.85-0.11-14.2-0.32-14.2-0.46
					c0-0.14,6.36-0.17,14.21-0.06C101.86,275.65,108.22,275.85,108.21,276z"/>
			</g>
			<g>
				<path style="fill:#E0E0E0;" d="M132.68,300.76c0.01,0.03-0.31,0.17-0.91,0.39c-0.6,0.22-1.47,0.51-2.56,0.86
					c-2.17,0.68-5.2,1.56-8.59,2.34c-3.39,0.79-6.49,1.35-8.75,1.69c-1.13,0.17-2.04,0.29-2.68,0.36c-0.63,0.07-0.99,0.09-0.99,0.05
					c-0.01-0.07,1.37-0.34,3.61-0.77c2.23-0.43,5.31-1.04,8.69-1.83c3.38-0.78,6.41-1.59,8.61-2.18
					C131.3,301.06,132.66,300.69,132.68,300.76z"/>
			</g>
			<g>
				<path style="fill:#E0E0E0;" d="M138.31,278.12c0.07,0.02-0.2,1.29-0.68,3.34c-0.49,2.05-1.2,4.86-2.01,7.97
					c-0.81,3.11-1.58,5.91-2.16,7.93c-0.58,2.02-0.97,3.26-1.04,3.25c-0.07-0.02,0.2-1.29,0.68-3.34c0.49-2.05,1.2-4.86,2.01-7.97
					c0.81-3.1,1.58-5.91,2.16-7.93C137.85,279.34,138.24,278.1,138.31,278.12z"/>
			</g>
			<g>
				<path style="fill:#E0E0E0;" d="M162.69,297.23c0.03,0.01-0.04,0.42-0.21,1.16c-0.21,0.84-0.46,1.88-0.76,3.1
					c-0.66,2.61-1.61,6.21-2.69,10.18c-1.08,3.97-2.09,7.56-2.84,10.14c-0.36,1.21-0.67,2.23-0.92,3.06
					c-0.23,0.72-0.37,1.11-0.41,1.1c-0.03-0.01,0.04-0.42,0.21-1.16c0.21-0.84,0.46-1.88,0.76-3.1c0.66-2.61,1.61-6.21,2.69-10.18
					c1.08-3.97,2.09-7.55,2.84-10.14c0.36-1.21,0.67-2.23,0.92-3.06C162.51,297.62,162.65,297.23,162.69,297.23z"/>
			</g>
			<g>
				<path style="fill:#E0E0E0;" d="M154.85,325.24c0.01,0.03-0.41,0.18-1.19,0.42c-0.77,0.24-1.9,0.56-3.29,0.93
					c-2.79,0.75-6.67,1.7-10.99,2.58c-4.32,0.88-8.27,1.53-11.13,1.93c-1.43,0.2-2.59,0.34-3.4,0.43c-0.8,0.08-1.25,0.11-1.26,0.08
					c0-0.04,0.43-0.13,1.23-0.28c0.9-0.16,2.03-0.36,3.37-0.59c2.84-0.49,6.77-1.19,11.08-2.07c4.31-0.87,8.2-1.77,11.01-2.42
					c1.33-0.31,2.44-0.57,3.33-0.77C154.4,325.29,154.84,325.2,154.85,325.24z"/>
			</g>
		</g>
	</g>
</g>
<g id="Background_Simple" style="display:none;">
	<path style="display:inline;fill:#EBEBEB;" d="M530.33,389.64c40.76,0.29,79.2-19.21,102.85-52.41c0.15-0.22,0.31-0.43,0.46-0.65
		c24.75-34.89,29.33-80.89,22.07-123.05c-5.1-29.64-16.44-59.53-39-79.42c-20.17-17.77-47.37-25.77-74.16-27.99
		c-42.19-3.49-85.52,6.51-121.49,28.84c-26.49,16.44-49.32,39.47-78.6,50.2c-61.76,22.64-135.64-14.95-194.53,14.37
		c-39.35,19.59-60.74,69.41-47.83,111.43c10.22,33.27,35.53,57.86,71.74,69.72c13.75,4.5,28.17,6.62,42.63,6.72L530.33,389.64z"/>
</g>
<g id="Icons">
	<g>
		<g>
			<path style="fill:#455A64;" d="M105.89,241.63c-0.02-0.05,0.58,0.06,1.41-0.5c0.39-0.29,0.82-0.78,1.01-1.47
				c0.1-0.35,0.09-0.73,0.09-1.16c0-0.43,0-0.88,0.01-1.36c0.04-3.86,0.09-9.4,0.15-16.22c0.02-1.71,0.04-3.51,0.06-5.38
				c0.01-0.93,0.02-1.89,0.03-2.86c-0.01-0.49,0.05-0.99-0.04-1.42c-0.09-0.45-0.31-0.87-0.63-1.2c-0.32-0.33-0.74-0.56-1.2-0.65
				c-0.44-0.07-0.99-0.03-1.5-0.04c-1.04,0-2.1,0-3.17,0.01c-2.15,0-4.35,0.01-6.62,0.01c-9.06,0.01-19.02,0.01-29.47,0.02
				c-1.2-0.02-2.25,1.02-2.33,2.2c-0.02,1.28-0.04,2.56-0.07,3.82c-0.04,2.55-0.07,5.05-0.11,7.52c-0.08,4.93-0.15,9.68-0.22,14.21
				c-0.01,0.57-0.02,1.13-0.03,1.69c-0.03,0.54,0.09,1.03,0.36,1.47c0.27,0.43,0.66,0.77,1.12,0.94c0.45,0.2,0.97,0.14,1.52,0.15
				c2.15,0,4.23,0.01,6.24,0.01c4.03,0.01,7.78,0.02,11.2,0.03c6.83,0.03,12.36,0.06,16.22,0.08c1.89,0.02,3.37,0.04,4.41,0.05
				c0.48,0.01,0.86,0.02,1.15,0.03C105.76,241.61,105.89,241.62,105.89,241.63s-0.13,0.02-0.39,0.03c-0.28,0.01-0.66,0.01-1.15,0.03
				c-1.04,0.01-2.52,0.03-4.41,0.05c-3.86,0.02-9.4,0.05-16.22,0.08c-3.43,0.01-7.18,0.02-11.2,0.03c-2.01,0-4.1,0.01-6.24,0.01
				c-0.51-0.01-1.11,0.06-1.68-0.18c-0.56-0.21-1.04-0.62-1.36-1.13c-0.32-0.51-0.47-1.14-0.43-1.72c0.01-0.56,0.01-1.12,0.02-1.69
				c0.06-4.53,0.12-9.28,0.19-14.21c0.03-2.46,0.07-4.97,0.1-7.52c0.02-1.28,0.04-2.57,0.07-3.86c0.1-1.42,1.36-2.69,2.84-2.67
				c10.45,0.01,20.41,0.01,29.47,0.02c2.26,0,4.47,0.01,6.62,0.01c1.07,0,2.13,0,3.17,0.01c0.53,0.02,1.01-0.04,1.59,0.05
				c0.55,0.1,1.05,0.39,1.43,0.78c0.38,0.39,0.63,0.89,0.74,1.42c0.1,0.54,0.03,1.03,0.04,1.51c-0.02,0.97-0.03,1.92-0.05,2.86
				c-0.03,1.87-0.06,3.66-0.09,5.38c-0.13,6.83-0.24,12.36-0.31,16.22c-0.01,0.48-0.02,0.93-0.03,1.36
				c-0.01,0.42-0.01,0.84-0.12,1.2c-0.21,0.74-0.67,1.23-1.09,1.52c-0.43,0.28-0.82,0.38-1.08,0.41
				C106.02,241.66,105.89,241.63,105.89,241.63z"/>
		</g>
		<polygon style="fill:#455A64;" points="87.66,222.63 93.12,225.94 87.54,229.22 81.96,232.49 82.08,225.9 82.2,219.31 		"/>
	</g>
	<g>
		<path style="fill:#DF9E4E;" d="M593.5,127.04c3.5-1.47,5.99-5.08,6.01-9.33c0.02-5.57-4.2-10.11-9.42-10.14
			c-5.22-0.02-9.48,4.47-9.5,10.05c-0.02,4.29,2.49,7.95,6.03,9.42c-14.56,2.19-13.9,18.02-13.9,18.02l34.43,0.16
			C607.15,145.22,607.94,129.22,593.5,127.04z"/>
	</g>
	<g>
		<g>
			
				<rect x="335.26" y="93.96" transform="matrix(0.9955 -0.0944 0.0944 0.9955 -9.0356 34.8159)" style="fill:#FFFFFF;" width="56.09" height="37.81"/>
			<g>
				<path style="fill:#455A64;" d="M393.01,129.04c0,0-0.04-0.24-0.09-0.7c-0.05-0.47-0.12-1.14-0.21-2
					c-0.18-1.76-0.44-4.32-0.77-7.58c-0.65-6.55-1.57-15.93-2.7-27.34l0.23,0.19c-15.41,1.48-34.81,3.34-55.83,5.35
					c-0.06,0.06,0.44-0.54,0.23-0.28l0,0.01l0,0.02l0,0.04l0.01,0.08l0.01,0.16l0.03,0.31l0.06,0.63l0.12,1.25
					c0.08,0.83,0.16,1.66,0.24,2.49c0.16,1.66,0.31,3.3,0.47,4.93c0.31,3.26,0.61,6.47,0.91,9.62c0.59,6.3,1.16,12.36,1.7,18.09
					l-0.26-0.21c16.42-1.51,30.35-2.79,40.2-3.7c4.92-0.44,8.82-0.79,11.51-1.03c1.32-0.11,2.35-0.2,3.07-0.26
					c0.34-0.03,0.6-0.05,0.8-0.06C392.91,129.04,393.01,129.03,393.01,129.04c0.01,0-0.08,0.02-0.25,0.04
					c-0.19,0.02-0.45,0.05-0.77,0.09c-0.71,0.07-1.72,0.18-3.02,0.32c-2.68,0.27-6.56,0.66-11.45,1.15
					c-9.88,0.97-23.86,2.33-40.33,3.94l-0.24,0.02l-0.02-0.24c-0.55-5.73-1.13-11.79-1.73-18.09c-0.3-3.15-0.61-6.36-0.92-9.62
					c-0.16-1.63-0.31-3.27-0.47-4.93c-0.08-0.83-0.16-1.66-0.24-2.49l-0.12-1.25l-0.06-0.63l-0.03-0.31l-0.01-0.16l-0.01-0.08
					l0-0.04l0-0.02l0-0.01c-0.21,0.25,0.29-0.35,0.24-0.29c21.02-1.97,40.42-3.8,55.84-5.25l0.21-0.02l0.02,0.21
					c1.04,11.48,1.9,20.91,2.5,27.49c0.28,3.25,0.51,5.79,0.66,7.54c0.07,0.84,0.12,1.5,0.16,1.96
					C393.01,128.82,393.01,129.04,393.01,129.04z"/>
			</g>
		</g>
		<g>
			<path style="fill:#455A64;" d="M389.44,91.4c0.01,0.01-0.14,0.2-0.43,0.56c-0.33,0.39-0.77,0.9-1.32,1.53
				c-1.2,1.36-2.87,3.26-4.92,5.59c-4.24,4.74-10.05,11.23-16.52,18.47l-0.15,0.16l-0.19-0.12c-0.47-0.3-0.98-0.62-1.49-0.95
				c-8.52-5.46-16.22-10.41-21.86-14.02c-2.75-1.79-4.99-3.25-6.59-4.3c-0.74-0.49-1.33-0.89-1.78-1.19
				c-0.4-0.28-0.61-0.43-0.6-0.45c0.01-0.02,0.24,0.11,0.66,0.36c0.46,0.28,1.07,0.65,1.83,1.11c1.63,1.01,3.9,2.43,6.68,4.16
				c5.66,3.58,13.39,8.48,21.94,13.89c0.51,0.32,1.02,0.65,1.49,0.95l-0.33,0.05c6.52-7.2,12.37-13.66,16.64-18.37
				c2.11-2.29,3.82-4.15,5.04-5.48c0.57-0.61,1.04-1.1,1.39-1.47C389.26,91.56,389.43,91.39,389.44,91.4z"/>
		</g>
	</g>
	<g>
		<g>
			<path style="fill:#263238;" d="M265.3,136.32c-0.08,0.01,0.01-1.33-0.56-3.62c-0.27-1.14-0.82-2.49-1.67-3.92
				c-0.86-1.42-2.09-2.91-3.77-4.17c-1.67-1.25-3.77-2.3-6.2-2.73c-2.41-0.41-5.12-0.33-7.71,0.66c-1.3,0.45-2.56,1.14-3.71,2
				c-1.17,0.85-2.22,1.9-3.1,3.11c-1.8,2.4-2.82,5.48-2.85,8.66c0.03,3.18,1.04,6.26,2.85,8.66c0.87,1.22,1.93,2.27,3.1,3.12
				c1.15,0.86,2.41,1.55,3.71,2c2.58,0.99,5.3,1.06,7.71,0.66c2.42-0.42,4.53-1.48,6.2-2.73c1.67-1.26,2.91-2.74,3.77-4.17
				c0.85-1.43,1.4-2.78,1.67-3.92C265.31,137.64,265.21,136.31,265.3,136.32c0.01,0,0.01,0.08,0.01,0.24c0,0.19-0.01,0.42-0.01,0.71
				c0,0.31-0.02,0.7-0.09,1.15c-0.06,0.45-0.12,0.98-0.28,1.56c-0.24,1.17-0.77,2.55-1.61,4.02c-0.85,1.47-2.09,3-3.79,4.31
				c-1.7,1.3-3.85,2.4-6.34,2.86c-2.48,0.44-5.28,0.38-7.95-0.63c-1.35-0.46-2.65-1.16-3.84-2.05c-1.21-0.87-2.31-1.96-3.21-3.21
				c-1.87-2.48-2.93-5.67-2.96-8.96c0.03-3.29,1.09-6.48,2.96-8.96c0.91-1.26,2-2.34,3.21-3.21c1.19-0.89,2.49-1.59,3.84-2.05
				c2.68-1,5.48-1.07,7.95-0.63c2.49,0.46,4.64,1.56,6.34,2.86c1.7,1.31,2.94,2.84,3.79,4.31c0.85,1.47,1.37,2.86,1.61,4.02
				c0.16,0.58,0.22,1.1,0.28,1.56c0.08,0.45,0.09,0.84,0.09,1.15c0,0.29,0.01,0.52,0.01,0.71
				C265.31,136.23,265.31,136.32,265.3,136.32z"/>
		</g>
		<g>
			<path style="fill:#263238;" d="M285.33,161.2c-0.08,0.12-5.35-3.28-11.78-7.59c-6.43-4.31-11.57-7.91-11.49-8.03
				c0.08-0.12,5.35,3.28,11.78,7.59C280.26,157.49,285.41,161.08,285.33,161.2z"/>
		</g>
	</g>
	<g>
		<polygon style="fill:#DF9E4E;" points="329.53,188.7 317.85,176.13 321.64,172.62 329.7,181.29 346.63,164.63 350.25,168.31 		"/>
	</g>
</g>
<g id="Speech_Bubbles">
	<g>
		<g>
			<path style="fill:#263238;" d="M657.21,176.67c0,0,0.19-0.01,0.57,0c0.19,0.01,0.43,0.01,0.7,0.02c0.28,0.03,0.6,0.08,0.96,0.13
				c1.43,0.24,3.61,0.82,5.85,2.56c2.19,1.7,4.43,4.7,4.91,8.75c0.1,1.01,0.1,2.05,0.1,3.11c0,1.07,0.01,2.17,0.01,3.31
				c0.01,2.27,0.01,4.68,0.02,7.2c0.01,2.53,0.01,5.18,0.02,7.95c0,1.39,0.01,2.8,0.01,4.24c0.04,1.43-0.04,2.96-0.44,4.42
				c-0.76,2.94-2.63,5.73-5.34,7.56c-1.35,0.91-2.89,1.59-4.54,1.94c-1.65,0.38-3.37,0.3-5.05,0.32
				c-13.59,0.01-28.64,0.02-44.64,0.03l0.18-0.08c-3.21,3.21-6.62,6.62-10.07,10.08l-0.44,0.44v-0.63c0-1.44,0-2.99,0-4.55
				c0-1.89,0-3.77,0-5.52l0.26,0.26c-1.09,0-2.2,0.02-3.31-0.12c-1.11-0.13-2.18-0.43-3.21-0.83c-2.06-0.81-3.86-2.18-5.26-3.84
				c-1.37-1.69-2.33-3.69-2.76-5.79c-0.19-1.05-0.27-2.13-0.26-3.17c0-1.04,0-2.08,0-3.11c0-4.13,0-8.18,0.01-12.14
				c0-1.98,0-3.94,0-5.88c0.04-1.94-0.1-3.85,0.18-5.77c0.3-1.9,1.01-3.71,2.05-5.27c1.04-1.56,2.41-2.86,3.95-3.82
				c1.54-0.97,3.26-1.59,5-1.85c1.76-0.25,3.47-0.13,5.14-0.16c6.71,0.01,12.95,0.02,18.64,0.03c11.37,0.03,20.56,0.06,26.92,0.08
				c3.16,0.02,5.61,0.04,7.3,0.05c0.82,0.01,1.45,0.02,1.9,0.03C656.99,176.65,657.21,176.67,657.21,176.67s-0.22,0.02-0.65,0.03
				c-0.44,0.01-1.07,0.01-1.9,0.03c-1.69,0.01-4.14,0.03-7.3,0.05c-6.36,0.02-15.54,0.05-26.92,0.08
				c-5.69,0.01-11.94,0.02-18.64,0.03c-1.67,0.03-3.4-0.08-5.08,0.17c-1.68,0.26-3.34,0.86-4.83,1.8c-1.49,0.94-2.81,2.19-3.81,3.7
				c-1,1.51-1.69,3.25-1.97,5.08c-0.27,1.82-0.13,3.76-0.16,5.7c0,1.94,0,3.9,0,5.88c0,3.96,0,8.02,0.01,12.14
				c0.05,2.06-0.14,4.17,0.25,6.18c0.42,2.02,1.34,3.94,2.65,5.57c1.35,1.59,3.08,2.91,5.06,3.69c0.99,0.39,2.02,0.67,3.08,0.8
				c1.05,0.14,2.14,0.12,3.24,0.12l0.26,0v0.26c0,1.75,0,3.63,0,5.52c0,1.56,0,3.11,0,4.55l-0.44-0.18
				c3.46-3.46,6.86-6.86,10.08-10.07l0.08-0.08l0.11,0c15.99,0.01,31.05,0.02,44.64,0.03c1.7-0.01,3.37,0.07,4.96-0.29
				c1.59-0.34,3.08-0.99,4.39-1.87c2.62-1.76,4.44-4.45,5.19-7.3c0.39-1.43,0.47-2.87,0.44-4.32c0-1.44,0.01-2.86,0.01-4.24
				c0.01-2.77,0.01-5.42,0.02-7.95c0.01-2.53,0.01-4.93,0.02-7.2c0-1.14,0.01-2.24,0.01-3.31c0.01-1.07,0.01-2.1-0.08-3.08
				c-0.45-3.97-2.62-6.93-4.76-8.63c-2.18-1.74-4.33-2.35-5.75-2.61c-0.36-0.06-0.68-0.12-0.95-0.15c-0.27-0.02-0.5-0.03-0.69-0.05
				C657.4,176.69,657.21,176.67,657.21,176.67z"/>
		</g>
		<g>
			<g>
				<path style="fill:#263238;" d="M617.55,204.03c-0.04,0-0.06-0.26-0.19-0.68c-0.13-0.41-0.43-1.01-1.06-1.46
					c-0.61-0.45-1.59-0.69-2.52-0.34c-0.93,0.33-1.73,1.32-1.72,2.47c-0.01,1.15,0.79,2.14,1.72,2.47c0.94,0.36,1.92,0.12,2.52-0.34
					c0.63-0.45,0.93-1.05,1.06-1.46C617.49,204.29,617.5,204.03,617.55,204.03c0.03,0,0.09,0.26,0.01,0.73
					c-0.08,0.46-0.35,1.15-1.03,1.7c-0.66,0.55-1.79,0.89-2.91,0.49c-1.11-0.36-2.09-1.54-2.07-2.92c-0.01-1.38,0.96-2.56,2.07-2.92
					c1.12-0.4,2.25-0.06,2.91,0.49c0.68,0.55,0.95,1.25,1.03,1.7C617.63,203.77,617.57,204.03,617.55,204.03z"/>
			</g>
			<g>
				<path style="fill:#263238;" d="M630.8,203.9c-0.04,0-0.05-0.26-0.19-0.68c-0.13-0.41-0.43-1.01-1.06-1.46
					c-0.61-0.45-1.59-0.69-2.52-0.34c-0.93,0.33-1.73,1.32-1.72,2.47c-0.01,1.15,0.79,2.14,1.72,2.47c0.94,0.36,1.92,0.12,2.52-0.34
					c0.63-0.45,0.93-1.05,1.06-1.46C630.75,204.16,630.76,203.9,630.8,203.9c0.03,0,0.09,0.26,0.01,0.73
					c-0.08,0.46-0.35,1.15-1.03,1.7c-0.66,0.55-1.79,0.89-2.91,0.49c-1.11-0.36-2.09-1.54-2.07-2.92c-0.01-1.38,0.96-2.56,2.07-2.92
					c1.12-0.4,2.25-0.06,2.91,0.49c0.68,0.55,0.95,1.25,1.03,1.7C630.89,203.64,630.83,203.9,630.8,203.9z"/>
			</g>
			<g>
				<path style="fill:#263238;" d="M644.06,203.9c-0.04,0-0.05-0.26-0.19-0.68c-0.13-0.41-0.43-1.01-1.06-1.46
					c-0.61-0.45-1.59-0.69-2.52-0.34c-0.93,0.33-1.73,1.32-1.72,2.47c-0.01,1.15,0.79,2.14,1.72,2.47c0.94,0.36,1.92,0.12,2.52-0.34
					c0.63-0.45,0.93-1.05,1.06-1.46C644.01,204.16,644.02,203.9,644.06,203.9c0.03,0,0.09,0.26,0.01,0.73
					c-0.08,0.46-0.35,1.15-1.03,1.7c-0.66,0.55-1.79,0.89-2.91,0.49c-1.11-0.36-2.09-1.54-2.07-2.92c-0.01-1.38,0.96-2.56,2.07-2.92
					c1.12-0.4,2.25-0.06,2.91,0.49c0.68,0.55,0.95,1.25,1.03,1.7C644.15,203.64,644.09,203.9,644.06,203.9z"/>
			</g>
		</g>
	</g>
	<g>
		<path style="fill:#DF9E4E;" d="M155.45,135.24c0-8.58-9.02-14.02-18.22-9.72c-2.08,0.97-3.8,2.62-4.84,4.64
			c-2.31,4.48-1.29,9.6,0.81,13.85l7.16,18.14c1.03,2.61,4.74,2.6,5.75-0.02l7.02-18.23C155.56,138.34,155.45,135.24,155.45,135.24z
			 M146.81,142.72c-6.18,3.59-12.45-3.05-9.06-9.61c0.45-0.87,1.14-1.6,1.96-2.08c6.18-3.6,12.45,3.05,9.06,9.61
			C148.33,141.51,147.64,142.24,146.81,142.72z"/>
		<g>
			<path style="fill:#263238;" d="M187.24,164.88C187.24,164.88,187.24,164.88,187.24,164.88L187.24,164.88
				c0.01,0,0.06,0.11,0.13,0.33c0.08,0.23,0.19,0.55,0.33,0.97c0.29,0.87,0.7,2.13,1.25,3.78c1.08,3.33,2.67,8.22,4.71,14.5
				l0.06,0.2l-0.21-0.04c-5.57-1.02-12.37-2.27-20.15-3.69l-0.14-0.03v-0.14v0l0.27,0.14c-6.03,4.56-14.01,8.34-23.31,9.62
				c-2.32,0.31-4.71,0.49-7.15,0.48c-2.43-0.15-4.93-0.13-7.42-0.62c-2.52-0.28-5-1.03-7.54-1.69c-1.23-0.45-2.47-0.9-3.72-1.36
				c-0.64-0.2-1.23-0.5-1.84-0.8c-0.61-0.29-1.21-0.58-1.82-0.88c-4.83-2.43-9.43-5.69-13.46-9.75c-4.05-4.05-7.4-8.97-9.89-14.4
				c-4.99-10.86-6.11-24.08-2.23-36.31c3.54-11.14,10.99-20.52,20.06-26.67c9.18-6.04,19.9-8.92,29.98-8.42
				c10.11,0.3,19.44,3.84,26.81,8.9c7.31,5.19,12.86,11.76,16.22,18.6c3.45,6.81,4.98,13.67,5.34,19.69
				c0.48,6.04-0.35,11.27-1.37,15.38c-1.04,4.13-2.36,7.18-3.32,9.2c-0.49,1.01-0.88,1.77-1.16,2.25
				C187.43,164.55,187.31,164.75,187.24,164.88c0.06-0.13,0.17-0.33,0.38-0.76c0.27-0.52,0.65-1.28,1.12-2.3
				c0.93-2.03,2.21-5.08,3.22-9.2c0.98-4.11,1.78-9.31,1.28-15.32c-0.39-5.98-1.94-12.8-5.38-19.54
				c-3.35-6.78-8.88-13.28-16.14-18.41c-7.32-5-16.56-8.49-26.58-8.77c-9.98-0.48-20.59,2.38-29.67,8.37
				c-8.98,6.1-16.35,15.38-19.85,26.41c-3.84,12.1-2.73,25.19,2.2,35.94c2.46,5.38,5.78,10.25,9.78,14.27
				c3.99,4.03,8.54,7.26,13.32,9.68c0.6,0.29,1.2,0.58,1.8,0.87c0.6,0.29,1.19,0.59,1.82,0.79c1.24,0.45,2.47,0.91,3.69,1.35
				c2.51,0.66,4.96,1.41,7.47,1.68c2.47,0.49,4.95,0.48,7.36,0.63c2.42,0.02,4.79-0.15,7.09-0.46c9.23-1.25,17.16-4.97,23.17-9.48
				l0.27-0.2v0.34v0l-0.14-0.17c7.77,1.46,14.57,2.74,20.14,3.78l-0.14,0.16c-1.99-6.29-3.54-11.19-4.6-14.53
				c-0.52-1.66-0.91-2.93-1.19-3.8c-0.13-0.42-0.23-0.74-0.3-0.98C187.27,165,187.24,164.88,187.24,164.88L187.24,164.88
				C187.24,164.88,187.24,164.88,187.24,164.88z"/>
		</g>
	</g>
	<g>
		<g>
			<g>
				<path style="fill:#455A64;" d="M511.45,122.91c-0.05,0-0.12-0.62-0.2-1.78c-0.03-0.58-0.08-1.3-0.24-2.13
					c-0.13-0.84-0.25-1.81-0.56-2.87c-0.47-2.14-1.44-4.68-2.98-7.38c-1.55-2.68-3.79-5.49-6.86-7.9
					c-3.06-2.38-6.93-4.44-11.41-5.32c-4.46-0.86-9.51-0.83-14.35,0.89c-2.43,0.79-4.79,2-6.97,3.55c-1.12,0.73-2.11,1.66-3.15,2.55
					c-0.94,0.99-1.92,1.96-2.74,3.09c-3.45,4.37-5.47,10.05-5.67,15.94c-0.09,5.9,1.65,11.66,4.89,16.2
					c0.76,1.17,1.7,2.19,2.58,3.22c0.99,0.94,1.93,1.92,3.02,2.7c2.1,1.66,4.39,2.99,6.79,3.89c4.75,1.95,9.79,2.23,14.29,1.59
					c4.53-0.67,8.49-2.53,11.66-4.76c3.18-2.25,5.56-4.95,7.23-7.56c1.66-2.62,2.76-5.1,3.33-7.22c0.36-1.04,0.53-2,0.7-2.84
					c0.2-0.83,0.29-1.54,0.34-2.12C511.3,123.52,511.39,122.91,511.45,122.91c0.05,0,0.06,0.62,0.02,1.79c0,0.59-0.04,1.32-0.2,2.17
					c-0.13,0.85-0.25,1.84-0.57,2.92c-0.5,2.19-1.53,4.78-3.18,7.52c-1.66,2.73-4.06,5.58-7.32,7.98
					c-3.25,2.38-7.36,4.38-12.09,5.14c-4.7,0.73-9.99,0.49-15.01-1.53c-2.53-0.93-4.95-2.32-7.18-4.05
					c-1.15-0.83-2.15-1.85-3.19-2.84c-0.94-1.09-1.93-2.16-2.74-3.39c-3.43-4.77-5.29-10.87-5.19-17.1
					c0.2-6.22,2.36-12.22,6.01-16.82c0.87-1.19,1.91-2.21,2.9-3.25c1.09-0.94,2.14-1.91,3.33-2.68c2.3-1.62,4.79-2.89,7.36-3.7
					c5.11-1.77,10.41-1.76,15.06-0.8c4.69,0.99,8.7,3.19,11.83,5.72c3.14,2.56,5.4,5.52,6.93,8.33c1.51,2.82,2.42,5.46,2.81,7.67
					c0.27,1.09,0.35,2.09,0.43,2.95c0.11,0.86,0.12,1.58,0.09,2.17C511.54,122.3,511.5,122.91,511.45,122.91z"/>
			</g>
			<g>
				<path style="fill:#455A64;" d="M505.86,105.45c0.06,0.09-0.44,0.52-1.42,1.25c-0.53,0.38-1.13,0.81-1.8,1.29
					c-0.36,0.24-0.73,0.52-1.14,0.78c-0.44,0.23-0.9,0.47-1.38,0.72c-3.74,2.16-9.67,4.37-16.43,4.14
					c-0.84-0.04-1.67-0.07-2.49-0.11c-0.81-0.13-1.6-0.25-2.39-0.37c-0.39-0.07-0.78-0.12-1.16-0.19c-0.37-0.1-0.75-0.2-1.11-0.3
					c-0.73-0.2-1.46-0.38-2.15-0.6c-2.74-0.95-5.11-2.07-6.97-3.21c-3.75-2.26-5.57-4.32-5.43-4.46c0.15-0.17,2.19,1.55,5.96,3.51
					c1.87,1,4.21,1.96,6.86,2.81c0.67,0.19,1.37,0.34,2.07,0.52c0.35,0.09,0.71,0.18,1.07,0.27c0.37,0.06,0.74,0.11,1.11,0.17
					c0.75,0.11,1.51,0.22,2.28,0.34c0.78,0.03,1.57,0.06,2.37,0.1c6.43,0.22,12.13-1.71,15.91-3.57c0.48-0.21,0.95-0.41,1.39-0.6
					c0.42-0.22,0.81-0.46,1.18-0.66c0.71-0.39,1.34-0.74,1.91-1.05C505.17,105.64,505.79,105.37,505.86,105.45z"/>
			</g>
			<g>
				<path style="fill:#455A64;" d="M461.14,139.43c-0.06-0.09,0.44-0.52,1.42-1.25c0.53-0.38,1.13-0.81,1.8-1.29
					c0.36-0.24,0.73-0.52,1.14-0.78c0.44-0.23,0.9-0.47,1.38-0.72c3.74-2.16,9.66-4.37,16.43-4.14c0.84,0.04,1.67,0.07,2.49,0.11
					c0.81,0.13,1.6,0.25,2.39,0.37c0.39,0.07,0.78,0.12,1.16,0.19c0.38,0.1,0.75,0.2,1.11,0.3c0.73,0.2,1.46,0.38,2.15,0.6
					c2.74,0.95,5.11,2.07,6.97,3.21c3.75,2.26,5.57,4.32,5.43,4.46c-0.15,0.17-2.19-1.55-5.96-3.51c-1.87-0.99-4.21-1.96-6.86-2.81
					c-0.67-0.19-1.37-0.34-2.07-0.52c-0.35-0.09-0.71-0.18-1.07-0.27c-0.37-0.06-0.74-0.11-1.11-0.17
					c-0.75-0.11-1.51-0.22-2.28-0.34c-0.78-0.03-1.57-0.06-2.37-0.1c-6.43-0.22-12.13,1.71-15.91,3.57
					c-0.48,0.21-0.95,0.41-1.39,0.6c-0.42,0.22-0.81,0.46-1.18,0.66c-0.71,0.39-1.34,0.74-1.91,1.05
					C461.83,139.25,461.2,139.52,461.14,139.43z"/>
			</g>
			<g>
				<path style="fill:#455A64;" d="M511.43,123.56c-0.01,0.42-12.53,0.46-27.96,0.09c-15.44-0.37-27.94-1.02-27.93-1.45
					c0.01-0.42,12.53-0.46,27.96-0.09C498.94,122.49,511.44,123.14,511.43,123.56z"/>
			</g>
			<g>
				<path style="fill:#455A64;" d="M482.2,150.15c-0.42-0.01-0.46-12.53-0.09-27.95c0.37-15.43,1.02-27.93,1.45-27.92
					c0.42,0.01,0.46,12.52,0.09,27.95C483.27,137.66,482.62,150.16,482.2,150.15z"/>
			</g>
			<g>
				<path style="fill:#455A64;" d="M482.2,150.11c-0.11,0.16-3.18-1.93-6.74-6.65c-1.76-2.36-3.6-5.4-5-9.07
					c-1.39-3.66-2.26-7.98-2.16-12.52c0.08-4.56,1.23-8.82,2.82-12.4c1.6-3.59,3.6-6.52,5.46-8.79c3.76-4.55,6.87-6.56,6.97-6.4
					c0.15,0.17-2.66,2.46-6.12,7.07c-1.71,2.3-3.55,5.21-5.01,8.68c-1.46,3.47-2.51,7.53-2.58,11.86
					c-0.09,4.34,0.69,8.46,1.96,12.01c1.27,3.55,2.95,6.55,4.55,8.93C479.58,147.59,482.36,149.94,482.2,150.11z"/>
			</g>
			<g>
				<path style="fill:#455A64;" d="M484.18,94.29c0.11-0.16,3.18,1.93,6.74,6.65c1.76,2.36,3.6,5.4,4.99,9.07
					c1.39,3.66,2.26,7.98,2.16,12.52c-0.08,4.56-1.23,8.82-2.82,12.4c-1.6,3.59-3.6,6.52-5.46,8.79c-3.76,4.55-6.87,6.56-6.97,6.4
					c-0.15-0.17,2.66-2.46,6.12-7.07c1.71-2.3,3.55-5.21,5.01-8.68c1.46-3.47,2.51-7.53,2.58-11.86c0.09-4.34-0.69-8.46-1.96-12.01
					c-1.27-3.55-2.95-6.55-4.55-8.93C486.8,96.81,484.03,94.46,484.18,94.29z"/>
			</g>
		</g>
		<g>
			<g>
				<path style="fill:#263238;" d="M455.57,163.86C455.57,163.86,455.57,163.86,455.57,163.86L455.57,163.86
					c0,0.01-0.12,0.05-0.34,0.1c-0.24,0.06-0.56,0.14-0.99,0.24c-0.89,0.21-2.18,0.51-3.88,0.91c-3.42,0.78-8.42,1.93-14.86,3.41
					l-0.2,0.05l0.06-0.2c1.51-5.45,3.36-12.12,5.47-19.74l0.04-0.14l0.14,0.01l0,0l-0.16,0.26c-4.01-6.41-7.06-14.7-7.51-24.08
					c-0.11-2.34-0.07-4.73,0.16-7.16c0.36-2.41,0.57-4.9,1.28-7.34c0.5-2.49,1.47-4.89,2.35-7.36c0.56-1.19,1.12-2.38,1.69-3.59
					c0.26-0.62,0.61-1.19,0.96-1.76c0.34-0.58,0.69-1.16,1.03-1.74c2.85-4.59,6.51-8.89,10.91-12.54c4.39-3.67,9.59-6.57,15.22-8.57
					c11.26-4,24.52-3.94,36.36,1.01c10.78,4.52,19.46,12.77,24.78,22.35c5.21,9.68,7.12,20.62,5.72,30.61
					c-1.19,10.05-5.55,19.02-11.25,25.91c-5.82,6.82-12.86,11.77-19.97,14.5c-7.09,2.83-14.06,3.75-20.09,3.57
					c-6.06-0.06-11.19-1.35-15.2-2.73c-4.02-1.41-6.94-2.99-8.87-4.12c-0.96-0.58-1.68-1.03-2.14-1.36
					C455.88,164.08,455.69,163.94,455.57,163.86c0.12,0.08,0.32,0.2,0.73,0.45c0.5,0.32,1.22,0.76,2.19,1.32
					c1.94,1.1,4.87,2.65,8.88,4.02c4,1.34,9.11,2.6,15.14,2.63c6,0.15,12.92-0.79,19.95-3.62c7.05-2.74,14.02-7.67,19.78-14.44
					c5.63-6.84,9.93-15.74,11.1-25.69c1.37-9.9-0.54-20.72-5.69-30.3c-5.28-9.49-13.87-17.65-24.54-22.12
					c-11.71-4.9-24.85-4.96-35.99-1.01c-5.58,1.98-10.73,4.84-15.08,8.47c-4.36,3.61-7.99,7.86-10.82,12.4
					c-0.34,0.58-0.69,1.15-1.03,1.72c-0.34,0.57-0.69,1.13-0.95,1.74c-0.56,1.19-1.12,2.38-1.68,3.55
					c-0.88,2.44-1.84,4.82-2.34,7.29c-0.71,2.42-0.92,4.88-1.28,7.27c-0.24,2.41-0.28,4.78-0.18,7.1c0.42,9.3,3.43,17.53,7.38,23.92
					l0.18,0.29l-0.34-0.03l0,0l0.18-0.12c-2.14,7.61-4.02,14.27-5.55,19.72l-0.15-0.15c6.45-1.43,11.46-2.54,14.88-3.29
					c1.7-0.37,3-0.65,3.89-0.84c0.43-0.09,0.76-0.16,1-0.21C455.45,163.88,455.57,163.87,455.57,163.86L455.57,163.86
					C455.57,163.86,455.57,163.86,455.57,163.86z"/>
			</g>
		</g>
	</g>
</g>
<g id="Character_3">
	<g>
		<path style="fill:#DF9E4E;" d="M497.7,187.9c-4.89,1.14-8.02,6.09-9.07,11c-1.04,4.91-0.54,10.01-1,15.01
			c-0.47,5-2.22,10.31-6.43,13.05c1.4,0.4,2.79,0.81,4.19,1.21c-0.81,2.6-2.59,4.89-4.92,6.3c1.62,1.26,3.67,1.96,5.72,1.95
			c-2.46,0.65-3.15,4.17-1.78,6.32c1.36,2.15,3.95,3.17,6.42,3.8c2.91,0.74,6.02,1.13,8.9,0.27c4.05-1.21,7.08-4.77,8.63-8.71
			c1.55-3.94,1.83-8.24,1.95-12.47c0.3-10.59-0.32-21.29-3.02-31.54c-0.65-2.48-1.56-5.11-3.67-6.57c-2.11-1.46-5.71-0.87-6.35,1.62
			"/>
		<path style="fill:#1C2F5C;" d="M608.23,340.76c-1.16-4.42-7.92-29.32-13.97-45.58c-6.71-18.05-20.54-21.77-20.54-21.77
			c-31.15-10.63-59.14-10.69-89.03-0.33c-0.96,0.3-1.89,0.61-2.78,0.96c-0.03,0.01-0.06,0.02-0.1,0.03l0,0
			c-22.17,8.7-24.46,32.12-24.46,32.12l-9.32,56.83c-0.1,0.45-0.17,0.91-0.22,1.36l-0.09,0.54l0.04,0
			c-0.36,5.35,2.71,10.57,7.62,12.83c13.02,5.99,25.44,4.57,36.12,0.16l-7.76,11.3h48.32h44.07l-6.18-14.94l2.05-8.98l14.31,17.22
			c1.71,2.06,4.01,3.56,6.59,4.3c16.5,1.92,19.17-22.65,16.06-36.95l0,0"/>
		<path style="fill:#FFBE9D;" d="M549.7,267.21c0,0-14.9,74.98-20.16,74.42c-5.26-0.56-29.88-73.01-29.88-73.01
			S531.14,260.23,549.7,267.21z"/>
		<g>
			<g>
				<g>
					<g>
						<g>
							<path style="fill:#FFBE9D;" d="M507.42,272.74c-0.08-8.63-0.32-17.72-0.32-17.72s-11.13-1.78-13.52-16.27
								c-2.28-13.82-0.2-45.79-0.2-45.79l0,0c15.97-6.62,34.95-2.39,46.44,10.35l0,0l-0.51,70.12c-0.06,8.14-7.11,14.57-15.82,14.44
								h0C514.68,287.74,507.49,280.97,507.42,272.74z"/>
						</g>
						<g>
							<g>
								<path style="fill:#263238;" d="M497.07,217.15c-0.03,0.98,0.78,1.82,1.81,1.87c1.02,0.05,1.88-0.71,1.91-1.69
									c0.03-0.98-0.78-1.82-1.8-1.87C497.95,215.41,497.1,216.17,497.07,217.15z"/>
							</g>
							<g>
								<g>
									<path style="fill:#263238;" d="M494.62,215.83c0.23,0.24,1.64-0.81,3.64-0.82c2-0.04,3.48,0.99,3.69,0.74
										c0.11-0.11-0.13-0.55-0.77-1.01c-0.63-0.46-1.71-0.9-2.96-0.89c-1.25,0.01-2.29,0.48-2.89,0.95
										C494.71,215.28,494.5,215.72,494.62,215.83z"/>
								</g>
							</g>
						</g>
						<g>
							<g>
								<path style="fill:#263238;" d="M517.32,218.12c-0.03,0.98,0.78,1.82,1.81,1.87c1.02,0.05,1.88-0.71,1.91-1.69
									c0.03-0.98-0.78-1.82-1.8-1.87C518.2,216.38,517.35,217.14,517.32,218.12z"/>
							</g>
							<g>
								<g>
									<path style="fill:#263238;" d="M515.51,216.43c0.23,0.24,1.64-0.81,3.64-0.82c2-0.04,3.48,0.99,3.69,0.74
										c0.11-0.11-0.13-0.55-0.77-1.01c-0.63-0.46-1.71-0.9-2.96-0.89c-1.25,0.01-2.29,0.48-2.89,0.95
										C515.61,215.88,515.4,216.32,515.51,216.43z"/>
								</g>
							</g>
						</g>
						<g>
							<g>
								<path style="fill:#263238;" d="M508.34,231.32c0.01-0.11-1.24-0.32-3.26-0.57c-0.51-0.05-1-0.15-1.08-0.5
									c-0.12-0.37,0.09-0.92,0.33-1.52c0.47-1.24,0.97-2.54,1.49-3.9c2.07-5.56,3.56-10.12,3.33-10.2
									c-0.22-0.08-2.08,4.36-4.15,9.91c-0.5,1.37-0.97,2.68-1.42,3.93c-0.19,0.58-0.52,1.24-0.25,2.01
									c0.14,0.38,0.52,0.66,0.85,0.74c0.33,0.1,0.62,0.1,0.87,0.12C507.07,231.43,508.33,231.44,508.34,231.32z"/>
							</g>
						</g>
						<g>
							<path style="fill:#EB996E;" d="M507.1,255.02c0,0,9.76,0.57,19.4-5.3c0,0-4.65,10-19.18,8.73L507.1,255.02z"/>
						</g>
						<g>
							<path style="fill:#EB996E;" d="M509.21,236.14c0.71-0.96,1.97-1.49,3.23-1.36c0.87,0.09,1.75,0.5,2.28,1.21
								c0.53,0.7,0.65,1.71,0.17,2.39c-0.54,0.76-1.66,0.95-2.62,0.68c-0.96-0.27-1.78-0.89-2.57-1.51
								c-0.22-0.17-0.44-0.35-0.58-0.59c-0.14-0.24-0.17-0.55,0-0.75"/>
						</g>
						<g>
							<g>
								<path style="fill:#263238;" d="M514.24,232.67c-0.33-0.02-0.32,2.16-2.17,3.71c-1.85,1.56-4.17,1.33-4.18,1.63
									c-0.03,0.14,0.52,0.42,1.5,0.44c0.96,0.03,2.36-0.29,3.49-1.24c1.13-0.95,1.61-2.22,1.68-3.11
									C514.63,233.2,514.39,232.66,514.24,232.67z"/>
							</g>
						</g>
					</g>
					<g>
						<path style="fill:#DF9E4E;" d="M532,191.62c-5.17,7.66-19.09,15.69-29.12,17.68c1.15-1.57,7.26-5.49,8.41-7.05
							c-4.5,3.49-10.95,8.16-16.99,8.57c-0.72,0.05-1.49,0.06-2.09-0.29c-0.81-0.47-0.99-1.42-1.1-2.26
							c-0.45-3.54-0.32-9.62,0.19-13.15c0.5-3.53,2.06-7.06,5.07-9.47c3.82-3.06,9.36-3.9,14.59-4.12c4.38-0.18,8.91,0,12.94,1.51
							c4.04,1.51,7.52,4.58,8.17,8.33"/>
					</g>
					<g>
						<path style="fill:#DF9E4E;" d="M549.15,226.71c0.66-3.77,1.18-7.34,1.28-9.72c0.3-7.49,2.54-34.54-23.23-31.86l1.46,7.27
							c0,0-4.8,16.84,6.26,28.2c0,0-3.15,23.72,4.55,31.39C539.47,251.98,547.73,234.8,549.15,226.71"/>
					</g>
					<g>
						<path style="fill:#FFBE9D;" d="M534.59,219.34c1.55-0.31,3.19-0.28,4.67,0.27c1.48,0.55,2.79,1.64,3.44,3.08
							c0.65,1.44,0.6,3.14,0.07,4.64c-0.53,1.49-1.5,2.8-2.62,3.92c-0.81,0.8-1.72,1.54-2.81,1.89c-1.08,0.35-2.36,0.25-3.23-0.48"
							/>
					</g>
					<g>
						<g>
							<path style="fill:#EB996E;" d="M535.5,228.74c-0.18,0.06,0.5,0.99,1.92,0.6c0.68-0.18,1.34-0.79,1.74-1.54
								c0.4-0.76,0.66-1.6,0.76-2.58c0.09-0.97-0.13-2-0.67-2.73c-0.51-0.74-1.35-1.18-2.05-1.19c-1.46-0.02-1.91,0.99-1.74,1.02
								c0.12,0.12,0.68-0.41,1.64-0.18c0.92,0.16,1.82,1.42,1.64,2.99c-0.16,1.6-0.77,3.06-1.62,3.43
								C536.24,229.02,535.6,228.61,535.5,228.74z"/>
						</g>
					</g>
				</g>
			</g>
		</g>
		<g>
			<path style="fill:#FFFFFF;" d="M483.75,342.59c-0.14,0-0.26-5.89-0.26-13.16c0-7.27,0.12-13.16,0.26-13.16
				c0.14,0,0.26,5.89,0.26,13.16C484.01,336.7,483.89,342.59,483.75,342.59z"/>
		</g>
		<g>
			<g>
				<path style="fill:#FFBE9D;" d="M521.3,315.73c0,0-12.97,0.14-13.79,3.01c-1.36,4.77,1.07,30.89,1.07,30.89l11.95,3.97
					c0,0,5.76-1.33,3.1-12.41c-2.66-11.08-7.9-19.95-7.9-19.95s15.88,0.44,15.43-3.1C530.72,314.6,521.3,315.73,521.3,315.73z"/>
				<path style="fill:#FFBE9D;" d="M516.14,323.44c0.71-0.14,16.59-1.45,15.59,1.09c-1,2.54-15.59,3.17-15.59,3.17V323.44z"/>
			</g>
			<polygon style="fill:#263238;" points="567.13,285.02 565.17,334.58 557.93,353.61 513.45,354.53 511.65,293.14 			"/>
		</g>
		<g>
			<path style="fill:#FFFFFF;" d="M506.48,333.2c0.01,0.02-0.18,0.11-0.54,0.28c-0.42,0.19-0.95,0.42-1.6,0.71
				c-1.46,0.63-3.47,1.49-5.92,2.54c-5.08,2.12-11.99,5-19.62,8.19c-3.84,1.58-7.49,3.08-10.83,4.45c-3.34,1.35-6.33,2.57-8.65,3.98
				c-2.33,1.37-3.93,2.91-4.84,4.11c-0.91,1.2-1.25,1.99-1.3,1.96c-0.02-0.01,0.07-0.2,0.24-0.57c0.16-0.37,0.46-0.89,0.9-1.51
				c0.87-1.26,2.46-2.88,4.81-4.31c2.32-1.47,5.34-2.73,8.65-4.11c3.33-1.38,6.98-2.9,10.81-4.49c7.66-3.13,14.59-5.96,19.68-8.05
				c2.48-0.99,4.51-1.8,5.99-2.38c0.67-0.25,1.21-0.46,1.64-0.62C506.27,333.25,506.47,333.18,506.48,333.2z"/>
		</g>
		<g>
			<path style="fill:#FFFFFF;" d="M521.19,352.62c0.03,0.02-0.32,0.45-0.97,1.19c-0.65,0.74-1.63,1.8-2.88,3.05
				c-2.48,2.52-6.09,5.83-10.22,9.3c-4.14,3.46-8.03,6.43-10.88,8.51c-1.43,1.04-2.6,1.86-3.42,2.42c-0.82,0.55-1.28,0.85-1.3,0.82
				c-0.02-0.03,0.4-0.38,1.18-0.98c0.86-0.66,1.97-1.52,3.32-2.55c2.8-2.15,6.64-5.17,10.77-8.62c4.13-3.46,7.76-6.72,10.3-9.16
				c1.28-1.21,2.29-2.23,2.99-2.92C520.76,352.98,521.16,352.6,521.19,352.62z"/>
		</g>
		<g>
			<path style="fill:#FFFFFF;" d="M588.18,384.34c-0.11,0.09-6.64-7.38-14.57-16.7c-7.94-9.32-14.29-16.95-14.18-17.04
				c0.11-0.09,6.63,7.38,14.58,16.7C581.94,376.62,588.29,384.25,588.18,384.34z"/>
		</g>
		<g>
			<path style="fill:#FFFFFF;" d="M600.75,348.33c-0.01,0.03-0.53-0.15-1.45-0.51c-0.92-0.36-2.23-0.92-3.84-1.64
				c-3.22-1.44-7.6-3.61-12.27-6.3c-4.67-2.7-8.73-5.42-11.58-7.49c-1.43-1.03-2.57-1.9-3.34-2.51c-0.77-0.61-1.19-0.97-1.17-1
				c0.02-0.03,0.48,0.27,1.29,0.83c0.89,0.61,2.04,1.41,3.43,2.37c2.91,1.99,6.98,4.65,11.63,7.34c4.65,2.69,8.99,4.89,12.16,6.42
				c1.53,0.72,2.79,1.33,3.77,1.79C600.28,348.05,600.77,348.3,600.75,348.33z"/>
		</g>
		<g>
			<path style="fill:#FFFFFF;" d="M577.73,337.45c-0.14,0.02-0.92-5.27-1.74-11.82c-0.82-6.55-1.37-11.86-1.23-11.88
				c0.14-0.02,0.92,5.27,1.74,11.82C577.33,332.12,577.88,337.44,577.73,337.45z"/>
		</g>
		<g>
			<path style="fill:#263238;" d="M540.11,228.65c0.02,0.02-0.12,0.24-0.41,0.63c-0.34,0.46-0.76,1.02-1.27,1.7
				c-1.17,1.52-2.75,3.56-4.61,5.98l-0.04-0.32c2.22,1.74,4.78,3.76,7.51,5.9c0.23,0.18,0.46,0.36,0.68,0.54l-0.37,0.04
				c2.4-3,4.62-5.79,6.5-8.14l0.04,0.3c-1.98-1.61-3.64-2.97-4.89-3.99c-0.53-0.45-0.98-0.83-1.34-1.14
				c-0.3-0.27-0.46-0.42-0.45-0.43c0.01-0.02,0.2,0.1,0.53,0.33c0.38,0.28,0.85,0.63,1.41,1.04c1.28,0.98,2.98,2.29,5.01,3.84
				l0.17,0.13l-0.13,0.17c-1.86,2.37-4.06,5.17-6.43,8.2l-0.16,0.2l-0.21-0.16c-0.22-0.18-0.45-0.36-0.68-0.54
				c-2.71-2.16-5.26-4.19-7.47-5.95l-0.18-0.14l0.14-0.18c1.92-2.36,3.54-4.37,4.75-5.86c0.55-0.65,1-1.19,1.37-1.62
				C539.91,228.82,540.09,228.63,540.11,228.65z"/>
		</g>
		<g>
			<g>
				<path style="fill:#FFBE9D;" d="M559.19,349.86c-7.27-0.14-16.95-1.58-21.47-2.3c-8.42-1.34-8.32-2.11-8.03-3.07
					c0.8-2.58,14.88,1.8,12.36-0.91c-2.53-2.71-17.79-3.35-16.83-6.01c1.24-3.47,15.9,1.39,17.17,1.71
					c1.23,0.31,1.73-1.52,0.57-1.74c-1.67-0.33-19.09-4.18-17.91-7.6c0.66-1.9,3.94-0.31,3.94-0.31s16.07,4.82,16.58,3.18
					c0.51-1.66-8.83-4.81-12.06-5.65c-3.18-0.83-4.12-2.69-2.62-3.8c1.02-0.76,10.94,1.57,14.11,2.48c3.17,0.9,11.82,3.54,8.52-1.25
					c-0.05-0.08-0.09-0.15-0.14-0.23c-3.38-4.62-4.45-9.31-3.84-10.87c0.6-1.53,2.75-1.43,3.56,0.01c0.15,0.22,0.27,0.47,0.33,0.77
					c0.02,0.12,0.08,0.28,0.12,0.42c0.59,1.53,1.87,3.56,2.92,5.09c0.99,1.45,2.22,2.73,3.64,3.77c1.64,1.2,5.79,5.58,7.04,6.35"/>
			</g>
		</g>
	</g>
</g>
<g id="Character_2">
	<g>
		<g>
			<g>
				<g>
					<g>
						<g>
							<g>
								<path style="fill:#B78876;" d="M261.59,290.91L261.59,290.91c-9.36-0.17-16.94-7.66-17.23-17.02
									c-0.24-7.79-0.41-15.3-0.41-15.3s-14.31-1.33-15.36-15.49c-1.05-14.16-0.6-46.85-0.6-46.85l0,0
									c15.97-8.06,35.05-6.85,49.87,3.17l2.2,1.49l-0.61,72.6C279.38,283.27,271.35,291.08,261.59,290.91z"/>
							</g>
							<g>
								<g>
									<path style="fill:#263238;" d="M243.6,234.38c0-0.15-1.22-0.32-3.2-0.47c-0.51-0.02-0.92-0.11-0.98-0.39
										c-0.11-0.3,0.05-0.86,0.28-1.48c0.42-1.32,0.85-2.66,1.3-4.06c1.78-5.78,2.99-10.54,2.7-10.63
										c-0.29-0.09-1.98,4.52-3.76,10.3c-0.42,1.41-0.82,2.76-1.22,4.09c-0.15,0.6-0.46,1.31-0.15,2.14
										c0.17,0.41,0.59,0.69,0.93,0.76c0.34,0.08,0.63,0.06,0.88,0.06C242.36,234.64,243.59,234.53,243.6,234.38z"/>
								</g>
							</g>
							<g>
								<path style="fill:#FFFFFF;" d="M250.07,236.14c-3.94,1.84-5.77,2.39-9.4,3.37c0,0,2.5,3.5,6.5,1.75
									C251.31,239.45,250.07,236.14,250.07,236.14z"/>
							</g>
							<g>
								<path style="fill:#A36957;" d="M243.92,258.39c0,0,9,0.18,18.15-6.39c0,0-3.74,10.47-17.96,10.06L243.92,258.39z"/>
							</g>
						</g>
					</g>
					<g>
						<g>
							<path style="fill:#B78876;" d="M279.28,218.42c0.01-1.14,0.9-2.11,2.04-2.14c2.64-0.07,6.97,0.98,7.38,8.27
								c0.58,10.42-9.45,7.82-9.48,7.53C279.19,231.84,279.25,222.47,279.28,218.42z"/>
						</g>
						<g>
							<g>
								<path style="fill:#A36957;" d="M281.52,227.97c0.04-0.04,0.19,0.12,0.5,0.24c0.31,0.12,0.83,0.19,1.36-0.05
									c1.08-0.47,1.91-2.27,1.85-4.15c-0.03-0.95-0.27-1.84-0.65-2.57c-0.36-0.74-0.88-1.25-1.44-1.32
									c-0.56-0.1-0.93,0.26-1.04,0.56c-0.12,0.3-0.05,0.5-0.1,0.52c-0.03,0.03-0.23-0.16-0.17-0.6c0.03-0.21,0.14-0.46,0.37-0.68
									c0.24-0.22,0.6-0.34,0.99-0.32c0.81,0.01,1.57,0.71,1.99,1.51c0.46,0.8,0.76,1.8,0.79,2.87c0.05,2.1-0.92,4.13-2.4,4.65
									c-0.72,0.23-1.35,0.05-1.68-0.18C281.55,228.22,281.48,227.99,281.52,227.97z"/>
							</g>
						</g>
					</g>
				</g>
			</g>
			<g>
				<g>
					<path style="fill:#263238;" d="M232.43,220.26c0.04,1.02,0.93,1.82,1.99,1.81c1.06-0.02,1.89-0.85,1.86-1.87
						c-0.04-1.02-0.93-1.82-1.99-1.81C233.22,218.4,232.39,219.24,232.43,220.26z"/>
				</g>
				<g>
					<g>
						<path style="fill:#263238;" d="M229.16,218.33c0.26,0.23,1.63-0.95,3.7-1.09c2.06-0.17,3.65,0.78,3.86,0.51
							c0.1-0.12-0.17-0.55-0.87-0.99c-0.68-0.43-1.82-0.82-3.11-0.72c-1.29,0.1-2.33,0.65-2.92,1.18
							C229.22,217.76,229.04,218.22,229.16,218.33z"/>
					</g>
				</g>
			</g>
			<g>
				<g>
					<path style="fill:#263238;" d="M252.96,219.9c0.04,1.02,0.93,1.82,1.99,1.81c1.06-0.02,1.89-0.85,1.86-1.87
						c-0.04-1.02-0.93-1.82-1.99-1.81C253.76,218.05,252.93,218.88,252.96,219.9z"/>
				</g>
				<g>
					<g>
						<path style="fill:#263238;" d="M250.13,218.33c0.26,0.23,1.64-0.95,3.7-1.09c2.06-0.17,3.65,0.78,3.86,0.51
							c0.1-0.12-0.17-0.55-0.87-0.99c-0.68-0.43-1.82-0.82-3.11-0.72c-1.29,0.1-2.33,0.65-2.92,1.18
							C250.19,217.76,250.01,218.22,250.13,218.33z"/>
					</g>
				</g>
			</g>
			<path style="fill:#263238;" d="M263.8,191.36c-1.93,4.37-0.96,9.86,2.36,13.3c1.4,1.45,3.15,2.55,4.36,4.15
				c2.51,3.33,2.1,7.91,2.49,12.06c0.18,1.92,0.63,3.96,2.04,5.27s4.05,1.4,5.04-0.26c0.3-0.5,0.41-1.09,0.52-1.66
				c0.87-4.62,1.74-9.24,2.61-13.86c0.65-3.46,1.3-7.02,0.7-10.49c-0.7-4.06-3.18-7.77-6.65-9.98c-3.47-2.21-7.89-2.87-11.86-1.79"
				/>
			<path style="fill:#263238;" d="M265.97,188.43c-4.81-0.92-7.51-2.46-10.91-3.99c-3.4-1.53-7.25-2.25-10.84-1.23
				c-2.42,0.68-4.71,2.14-7.21,2.11c-2.47-0.02-4.69-1.5-7.06-2.24c-3.21-1.01-6.79-0.65-9.79,1c-2.33,1.28-4.42,3.57-4.62,6.37
				c-0.2,2.8,2.3,5.69,4.8,4.9c-2.62,0.91-3.68,4.76-2.37,7.34c1.31,2.58,4.33,3.75,7.05,3.32c2.71-0.43,5.12-2.2,7.06-4.3
				c0.06,3.12,3.19,5.31,6.08,5.22c2.9-0.09,5.52-1.83,7.91-3.62c2.39-1.79,4.81-3.74,7.65-4.37c1.98-0.44,4.03-0.21,6.04-0.44
				c2.01-0.24,4.15-1.11,5.12-3.03c0.97-1.92,4.82-4.11,2.8-4.17"/>
			<g>
				<path style="fill:#263238;" d="M237.5,203.78c0.03-0.04,0.35,0.29,1.07,0.57c0.72,0.28,1.87,0.39,3.21-0.01
					c0.66-0.19,1.37-0.49,2.07-0.91c0.7-0.42,1.41-0.95,2.17-1.51c0.76-0.55,1.57-1.13,2.51-1.6c0.93-0.47,2.03-0.78,3.14-0.79
					c2.23-0.04,4.24,0.56,6.06,0.4c1.83-0.1,3.27-1.11,4.08-2.22c0.84-1.1,1.13-2.23,1.21-3c0.08-0.77,0-1.21,0.05-1.22
					c0.02,0,0.05,0.1,0.09,0.31c0.05,0.21,0.07,0.52,0.06,0.92c-0.02,0.8-0.27,2.01-1.12,3.2c-0.42,0.59-0.99,1.18-1.73,1.64
					c-0.73,0.46-1.65,0.76-2.61,0.84c-1.94,0.19-3.98-0.4-6.09-0.35c-2.13,0-3.88,1.19-5.39,2.26c-0.76,0.54-1.49,1.07-2.23,1.49
					c-0.74,0.43-1.49,0.72-2.19,0.89c-1.41,0.37-2.65,0.2-3.38-0.16c-0.37-0.18-0.62-0.37-0.78-0.51
					C237.56,203.87,237.49,203.79,237.5,203.78z"/>
			</g>
			<g>
				<path style="fill:#263238;" d="M264.51,183.49c0.15,0.03-0.17,1.54,0.29,3.32c0.43,1.79,1.43,2.97,1.3,3.07
					c-0.08,0.11-1.34-1-1.81-2.94C263.8,185,264.4,183.43,264.51,183.49z"/>
			</g>
			<g>
				<path style="fill:#263238;" d="M269.84,183.27c0.11,0.11-1.18,1.34-2.15,3.25c-0.99,1.9-1.23,3.66-1.38,3.64
					c-0.13,0.01-0.12-1.87,0.92-3.88C268.26,184.26,269.77,183.16,269.84,183.27z"/>
			</g>
		</g>
		<polygon style="fill:#B78876;" points="336.71,331.54 358.48,387.56 325.16,387.56 309.63,347.68 		"/>
		<path style="fill:#B78876;" d="M218.71,286.07c0,0-28.69,29.55-41.11,29.55c-4.06,0-7.24-49.22-7.29-63.41l0,0
			c1.11-2.6,1.6-3.6,2.79-5.1c1.12-1.41,2.19-2.86,3.6-3.98c1.71-1.36,4.06-3.08,5.63-3.63c1.94-0.68,2.1-3.34,0.34-3.87
			c-1.76-0.53-7.15,1.22-11.98,5.8c-4.82,4.57-3.38-5.66-2.92-9.4c0.46-3.74,1.34-15.35,0.3-16.38c-1.52-1.5-3.46-0.11-3.83,3.63
			c-0.38,3.79-2.28,14.9-4.24,14.62c-1.94-0.28,0.66-19.28,0.66-19.28s1.21-3.99-1.05-4.39c-4.07-0.73-5.34,19.63-5.42,21.57
			c-0.05,1.35-2.2,1.12-2.07-0.33c0.14-1.49,3.03-18.91-1.11-19.69c-3.18-0.6-1.2,16.75-3.81,20.08
			c-2.61,3.33-0.15-13.34-3.21-13.79c-1.14-0.17-2.02-0.13-2.05,9.61c-0.02,5.24,2,13.15,1.22,23.23l0,0
			c1.32,29.76-0.14,113.33,32.98,103.43c36.42-10.9,61.3-34.75,61.3-34.75L218.71,286.07z"/>
		<g>
			<path style="fill:#263238;" d="M299.09,312.55c0.04-0.01,0.15,0.41,0.33,1.18c0.18,0.76,0.41,1.88,0.66,3.25
				c0.52,2.76,1.12,6.58,1.59,10.84c0.47,4.25,0.71,8.12,0.81,10.92c0.05,1.4,0.07,2.54,0.06,3.32c0,0.78-0.02,1.22-0.06,1.22
				s-0.08-0.43-0.14-1.21c-0.06-0.89-0.14-1.99-0.23-3.31c-0.19-2.79-0.49-6.64-0.96-10.89c-0.47-4.24-1.02-8.07-1.44-10.83
				c-0.2-1.3-0.37-2.4-0.5-3.28C299.1,312.99,299.05,312.56,299.09,312.55z"/>
		</g>
		<g>
			<g>
				<g>
					<g>
						<g>
							<g>
								<g>
									<path style="fill:#1C2F5C;" d="M213.85,387.56l91.72,0.47l-3.09-19.36c1.42-13.33-0.14-27.61-0.14-27.61l4.64,12.59
										l37.91-18.96c0,0-13.78-36.75-25.32-49.19c-14.58-15.73-40.8-14.16-40.8-14.16l-17.72,12.04l-16.31-11.49
										c0,0-12.96,1.18-25.2,7.33l-0.84,0.24l0.01,0.18c-9.62,5.03-23.34,17.27-36.42,29.16l15.09,14.69l16.72,15.57
										c0,0,2.82-0.32,2.86-0.12C217.24,340.57,213.85,387.56,213.85,387.56z"/>
								</g>
							</g>
						</g>
					</g>
				</g>
				<path style="opacity:0.2;" d="M299.53,306.68L312,351.14l-5,2.5l-4.64-12.59C302.35,341.05,297.83,314.69,299.53,306.68z"/>
			</g>
			<path style="fill:#1C2F5C;" d="M243.74,271.67v-4.8c0,0,14.32-1.11,17.22,15.81c0,0,4.67-15.81,18.56-17.39l1.98,7.39
				c0,0-6.58,20.59-7.54,20.76c-0.96,0.18-13.01,3.7-13.01,3.7l-6.98-1.58l-7.76-8.83L243.74,271.67z"/>
			<g>
				<path style="fill:#FFFFFF;" d="M281.84,272.11c0.02,0.03-0.26,0.32-0.79,0.84c-0.52,0.52-1.28,1.27-2.18,2.23
					c-1.79,1.92-4.13,4.74-6.21,8.17c-0.44,0.71-0.84,1.43-1.23,2.12l-0.23,0.42l-0.22-0.42c-1.59-2.97-2.99-5.6-4.07-7.63
					c-0.27-0.45-0.58-0.81-0.92-1.04c-0.33-0.23-0.68-0.33-0.96-0.35c-0.58-0.04-0.85,0.2-0.87,0.15c-0.02,0,0.23-0.32,0.88-0.34
					c0.31,0,0.71,0.08,1.1,0.31c0.39,0.24,0.75,0.62,1.06,1.08c1.13,1.89,2.57,4.54,4.24,7.57l-0.45,0c0.38-0.7,0.79-1.42,1.23-2.15
					c2.11-3.47,4.51-6.28,6.39-8.15c0.94-0.94,1.75-1.65,2.31-2.13C281.48,272.32,281.81,272.08,281.84,272.11z"/>
			</g>
			<g>
				<path style="fill:#FFFFFF;" d="M242.81,272.96c0.03-0.02,0.27,0.24,0.68,0.72c0.41,0.49,1,1.2,1.71,2.09
					c1.43,1.77,3.37,4.25,5.49,7c0.12,0.15,0.23,0.3,0.34,0.44l-0.43,0.03c0.76-1.42,0.83-3.04,1.18-4.46
					c0.32-1.42,0.99-2.71,1.98-3.34c0.99-0.61,2-0.57,2.58-0.33c0.3,0.11,0.48,0.28,0.6,0.39c0.11,0.12,0.16,0.19,0.14,0.2
					c-0.03,0.04-0.26-0.24-0.81-0.41c-0.54-0.17-1.46-0.14-2.32,0.44c-0.85,0.59-1.43,1.77-1.72,3.14c-0.32,1.37-0.35,3.03-1.18,4.6
					l-0.19,0.35l-0.25-0.32c-0.11-0.14-0.22-0.29-0.34-0.44c-2.12-2.75-4.01-5.26-5.36-7.09c-0.68-0.92-1.22-1.66-1.58-2.19
					C242.97,273.28,242.78,272.98,242.81,272.96z"/>
			</g>
			<g>
				<path style="fill:#FFFFFF;" d="M252.99,387.56c-0.01,0-0.01-0.09-0.01-0.27c0.01-0.21,0.02-0.47,0.03-0.8
					c0.04-0.74,0.1-1.76,0.17-3.06c0.17-2.69,0.41-6.52,0.71-11.23c0.65-9.52,1.55-22.6,2.54-37.05c1.05-14.45,2-27.53,2.7-37.05
					c0.37-4.71,0.67-8.53,0.88-11.22c0.11-1.29,0.2-2.31,0.26-3.05c0.03-0.32,0.06-0.58,0.08-0.79c0.02-0.18,0.04-0.27,0.05-0.27
					c0.01,0,0.01,0.09,0.01,0.27c-0.01,0.21-0.02,0.47-0.03,0.8c-0.04,0.74-0.1,1.76-0.17,3.06c-0.17,2.69-0.41,6.52-0.71,11.23
					c-0.65,9.52-1.55,22.6-2.54,37.05c-1.05,14.45-2,27.52-2.7,37.04c-0.37,4.71-0.67,8.53-0.88,11.22
					c-0.11,1.29-0.2,2.31-0.26,3.05c-0.03,0.32-0.06,0.58-0.08,0.79C253.02,387.47,253,387.56,252.99,387.56z"/>
			</g>
			<g>
				<path style="fill:#FFFFFF;" d="M220.07,298.6c0.04,0,0,0.57-0.09,1.59c-0.09,1.11-0.2,2.57-0.34,4.32
					c-0.27,3.65-0.55,8.69-0.86,14.27c-0.31,5.58-0.65,10.63-1.02,14.28c-0.18,1.82-0.36,3.3-0.51,4.31
					c-0.15,1.01-0.25,1.57-0.29,1.57c-0.04,0,0-0.57,0.09-1.59c0.09-1.11,0.2-2.57,0.34-4.32c0.27-3.65,0.55-8.69,0.86-14.27
					c0.31-5.58,0.65-10.63,1.02-14.27c0.18-1.82,0.36-3.3,0.51-4.31C219.93,299.15,220.04,298.59,220.07,298.6z"/>
			</g>
			<g>
				<path style="fill:#DF9E4E;" d="M259.95,280.26c0,0-4.92,6.42-4.2,7.39c0.72,0.96,4.2,5.6,4.2,5.6h2.99c0,0,2.8-7.86,2.08-8.86
					C264.29,283.4,259.95,280.26,259.95,280.26z"/>
				<polygon style="fill:#DF9E4E;" points="267.5,278.53 262.07,282.78 264.15,286.76 269.73,282.64 				"/>
				<polygon style="fill:#DF9E4E;" points="251.55,281.21 256.5,285.34 259.24,281.21 252.99,276.46 				"/>
				<polygon style="fill:#DF9E4E;" points="259.95,293.26 252.39,360.91 259.82,384.43 269.73,361.12 263.21,292.45 				"/>
			</g>
			<g>
				<path style="fill:#FFFFFF;" d="M312.77,280.68c-0.04,0.04-0.3-0.33-0.98-0.67c-0.66-0.34-1.82-0.58-3.11-0.18
					c-1.3,0.39-2.62,1.41-3.87,2.73c-1.27,1.3-2.51,2.9-3.54,4.73c-2.07,3.68-2.86,7.51-3,10.25c-0.17,2.76,0.19,4.47,0.08,4.49
					c-0.04,0.01-0.13-0.42-0.26-1.19c-0.11-0.77-0.22-1.91-0.19-3.31c0.05-2.8,0.79-6.73,2.91-10.49c1.06-1.87,2.33-3.5,3.65-4.81
					c1.29-1.32,2.7-2.37,4.11-2.75c1.41-0.39,2.63-0.06,3.31,0.35c0.35,0.21,0.57,0.42,0.71,0.58
					C312.73,280.57,312.78,280.67,312.77,280.68z"/>
			</g>
		</g>
	</g>
</g>
<g id="Character_1">
	<g>
		<path style="fill:#263238;" d="M384.24,196.97c-6.4,3.93-10.85,10.5-13.5,17.54c-2.64,7.03-3.64,14.56-4.42,22.04
			c-2.06,19.73-2.76,39.6-2.07,59.43c24.24,3.07,48.66,6.14,73.03,4.48c-4.23-27.83-6.9-55.63-3.52-83.57"/>
		<g>
			<g>
				<g>
					<path style="fill:#DF9E4E;" d="M438.67,428.27l-17.64-35.69l6.74-26.1c0.79,5.53,1.49,10.33,1.49,10.33l37.85-2
						c1.41-0.07,2.45-1.34,2.25-2.74l-7.4-52.21c0,0-2.37-24.22-25.29-33.22l0,0c-0.03-0.01-0.07-0.02-0.1-0.03
						c-0.92-0.36-1.88-0.69-2.87-0.99c-30.91-10.72-59.86-10.65-92.08,0.34c0,0-14.31,3.85-21.25,22.52
						c-6.94,18.67-14.02,46.11-14.02,46.11l32.14,11.35l0.21-5.43l7.1,27.16l-15.58,39.56l54.35,1.34L438.67,428.27z"/>
				</g>
			</g>
			<path style="fill:#DF9E4E;" d="M306.43,354.28l-3.61,17.05c-3.1,14.65,7.75,29.69,22.63,31.38l79.1,8.12
				c17.56,1.99,33.31-10.89,34.85-28.49l0,0l-99.74-9.51l0.63-9.57L306.43,354.28z"/>
			<path style="fill:#FFBE9D;" d="M405.36,371.67l6.14-1.14c0,0,14.56-15.93,17.29-16.16c2.25-0.19,14.64-0.07,18.95-0.02
				c0.82,0.01,1.48,0.68,1.48,1.5l0,0c0,0.81-0.64,1.47-1.44,1.5l-14.64,0.57l-0.07,1.18l14.66,0.19c1.49,0.11,2.45,2.48-2.33,2.9
				l-12.26,0.44v0.76l12.43,1.74c0.63,0.09,2.28,0.41,2.3,1.04c0,0,0.75,1.56-2.79,2c-1.22,0.15-12.01-0.21-12.01-0.21l0.42,0.97
				l11.17,2.41c0.81,0.18,1.35,0.95,1.24,1.77l0,0c-0.12,0.84-0.87,1.44-1.72,1.36l-11.94-1.11l-11.71,9.36h-15.66L405.36,371.67z"
				/>
			<path style="fill:#FAFAFA;" d="M366.48,278.3c0,0,15.41,78.8,20.85,78.22c5.43-0.58,30.9-75.5,30.9-75.5
				S385.67,271.09,366.48,278.3z"/>
			<g>
				<path style="fill:#263238;" d="M434.67,354.58c-0.14,0-0.26-5.43-0.26-12.14c0-6.7,0.12-12.14,0.26-12.14
					c0.14,0,0.26,5.43,0.26,12.14C434.93,349.14,434.82,354.58,434.67,354.58z"/>
			</g>
			<g>
				<path style="fill:#263238;" d="M340.07,355.09c-0.07-0.01,0.06-1.34,0.32-3.49c0.27-2.15,0.67-5.12,1.14-8.39
					c0.48-3.27,0.94-6.23,1.3-8.37c0.36-2.14,0.62-3.45,0.69-3.44c0.07,0.01-0.06,1.35-0.32,3.5c-0.27,2.15-0.67,5.12-1.14,8.39
					c-0.48,3.27-0.94,6.23-1.3,8.36C340.4,353.78,340.14,355.1,340.07,355.09z"/>
			</g>
			<g>
				<path style="fill:#263238;" d="M384.59,428.58c-0.02,0-0.03-0.25-0.05-0.73c-0.01-0.53-0.02-1.23-0.03-2.09
					c-0.01-1.82,0-4.45,0.07-7.7c0.12-6.5,0.47-15.47,0.92-25.37c0.45-9.91,0.86-18.87,1.07-25.37c0.1-3.2,0.17-5.82,0.23-7.69
					c0.03-0.87,0.05-1.56,0.06-2.09c0.02-0.48,0.04-0.73,0.06-0.73c0.02,0,0.03,0.25,0.05,0.73c0.01,0.53,0.02,1.23,0.03,2.09
					c0.01,1.82,0,4.45-0.07,7.7c-0.12,6.5-0.47,15.47-0.92,25.38c-0.45,9.9-0.86,18.87-1.07,25.36c-0.1,3.2-0.17,5.82-0.23,7.69
					c-0.03,0.87-0.05,1.56-0.06,2.09C384.62,428.33,384.6,428.58,384.59,428.58z"/>
			</g>
			<g>
				<path style="fill:#263238;" d="M418.09,280.87c0.03,0,0.05,0.34,0.17,0.98c0.11,0.64,0.34,1.57,0.79,2.72
					c0.44,1.15,1.12,2.5,2,4.02c0.86,1.53,1.95,3.23,2.84,5.28c0.87,2.03,1.65,4.49,1.2,7.16c-0.21,1.32-0.8,2.61-1.61,3.77
					c-0.8,1.16-1.8,2.22-2.82,3.26c-2.05,2.09-4.22,4.27-6,6.88c-1.77,2.59-3.08,5.72-3.09,9.05c-0.01,1.66,0.38,3.26,1.06,4.74
					c0.65,1.49,1.46,2.92,1.94,4.49c0.24,0.78,0.38,1.61,0.32,2.43c-0.06,0.82-0.33,1.62-0.76,2.3c-0.87,1.37-2.16,2.25-3.33,3.12
					c-4.71,3.47-8.95,6.6-12.53,9.23c-3.55,2.59-6.44,4.7-8.47,6.19c-0.98,0.7-1.76,1.26-2.32,1.66c-0.25,0.17-0.45,0.31-0.61,0.42
					c-0.14,0.09-0.21,0.14-0.22,0.13c-0.01-0.01,0.06-0.07,0.19-0.17c0.15-0.12,0.35-0.28,0.58-0.46c0.55-0.42,1.31-1,2.26-1.74
					c2.01-1.52,4.86-3.67,8.37-6.32c3.56-2.66,7.78-5.82,12.46-9.32c1.16-0.87,2.4-1.75,3.19-3c0.39-0.62,0.62-1.33,0.68-2.07
					c0.05-0.74-0.07-1.5-0.3-2.24c-0.45-1.49-1.26-2.9-1.93-4.43c-0.7-1.51-1.12-3.22-1.11-4.95c0.01-3.47,1.38-6.7,3.19-9.34
					c1.82-2.67,4.02-4.86,6.08-6.93c2.05-2.04,3.94-4.22,4.35-6.77c0.45-2.53-0.28-4.93-1.11-6.94c-0.85-2.03-1.91-3.73-2.75-5.28
					c-0.85-1.54-1.51-2.92-1.93-4.1c-0.43-1.17-0.62-2.13-0.7-2.78c-0.05-0.32-0.06-0.57-0.07-0.74
					C418.08,280.95,418.08,280.87,418.09,280.87z"/>
			</g>
			<g>
				<path style="fill:#263238;" d="M387.26,355.72c0,0.01-0.08,0-0.24-0.03c-0.19-0.04-0.42-0.08-0.71-0.13
					c-0.62-0.13-1.53-0.35-2.67-0.73c-2.26-0.77-5.51-2.22-8.79-5.05c-1.64-1.4-3.25-3.16-4.67-5.26c-1.41-2.11-2.61-4.58-3.4-7.33
					c-0.81-2.74-1.19-5.76-1.04-8.86c0.06-1.55,0.32-3.14,0.63-4.69c0.28-1.54,0.54-3.17,0.13-4.68c-0.2-0.75-0.64-1.4-1.21-1.89
					c-0.59-0.48-1.31-0.78-2.05-1.03c-0.74-0.25-1.51-0.46-2.26-0.76c-0.75-0.3-1.44-0.76-2.03-1.31c-1.14-1.15-1.77-2.66-2.06-4.13
					c-0.31-1.48-0.32-2.97-0.24-4.39c0.52-5.68,1.84-10.66,3.28-14.71c1.45-4.05,3.03-7.16,4.2-9.25c0.59-1.04,1.07-1.84,1.42-2.37
					c0.16-0.24,0.29-0.44,0.39-0.6c0.09-0.13,0.14-0.2,0.15-0.19c0.01,0-0.03,0.08-0.1,0.22c-0.09,0.17-0.21,0.37-0.35,0.63
					c-0.32,0.54-0.77,1.36-1.33,2.41c-1.11,2.11-2.63,5.23-4.03,9.27c-1.39,4.03-2.66,9.01-3.15,14.61
					c-0.07,1.4-0.05,2.84,0.25,4.26c0.28,1.42,0.88,2.82,1.93,3.87c0.54,0.5,1.16,0.92,1.87,1.2c0.7,0.29,1.46,0.49,2.23,0.75
					c0.76,0.25,1.55,0.57,2.22,1.12c0.66,0.55,1.16,1.31,1.38,2.15c0.45,1.68,0.15,3.35-0.12,4.91c-0.32,1.57-0.56,3.09-0.63,4.62
					c-0.15,3.05,0.21,6.01,1,8.7c1.52,5.43,4.65,9.67,7.85,12.45c3.21,2.82,6.4,4.3,8.62,5.13c1.12,0.4,2.02,0.66,2.62,0.82
					c0.28,0.07,0.51,0.13,0.69,0.18C387.18,355.69,387.26,355.71,387.26,355.72z"/>
			</g>
			<path style="fill:#DF9E4E;" d="M428.88,371.78l-66.26-2.14l0.1,21.99l43.87,9.65l30.87,4.93c19.19,0,34.53-17.61,31.56-36.56
				l-0.08,0.02L428.88,371.78z"/>
			<g>
				<path style="fill:#263238;" d="M447.12,371.36c0,0.02-0.3,0.04-0.86,0.06c-0.61,0.02-1.43,0.04-2.46,0.07
					c-2.19,0.04-5.27,0.1-9.06,0.16c-7.65,0.11-18.22,0.24-29.9,0.13c-11.68-0.12-22.25-0.54-29.89-1.05
					c-3.82-0.26-6.91-0.5-9.04-0.72c-1.03-0.11-1.84-0.19-2.45-0.25c-0.56-0.06-0.85-0.1-0.85-0.12c0-0.02,0.3-0.01,0.86,0.02
					c0.61,0.04,1.43,0.09,2.46,0.15c2.13,0.15,5.22,0.34,9.04,0.55c7.64,0.42,18.2,0.79,29.87,0.9c11.67,0.11,22.24,0.04,29.89,0.02
					c3.79,0,6.87,0,9.06,0c1.03,0.01,1.85,0.02,2.46,0.03C446.82,371.33,447.12,371.34,447.12,371.36z"/>
			</g>
			<path style="fill:#FFBE9D;" d="M362.05,371.67l-6.14-1.14c0,0-14.56-15.93-17.29-16.16c-2.25-0.19-14.64-0.07-18.95-0.02
				c-0.82,0.01-1.48,0.68-1.48,1.5l0,0c0,0.81,0.64,1.47,1.44,1.5l14.64,0.57l0.07,1.18l-14.66,0.19c-1.49,0.11-2.45,2.48,2.33,2.9
				l12.26,0.44v0.76l-12.43,1.74c-0.63,0.09-2.28,0.41-2.3,1.04c0,0-0.75,1.56,2.79,2c1.22,0.15,12.01-0.21,12.01-0.21l-0.42,0.97
				l-11.17,2.41c-0.81,0.18-1.35,0.95-1.24,1.77l0,0c0.12,0.84,0.88,1.44,1.72,1.36l11.94-1.11l11.71,9.36h15.66L362.05,371.67z"/>
			<g>
				<path style="fill:#263238;" d="M436.28,405.85c0,0.02-0.26,0-0.75-0.05c-0.54-0.06-1.25-0.13-2.14-0.23
					c-1.86-0.21-4.55-0.55-7.87-1.01c-6.63-0.92-15.78-2.37-25.81-4.33c-10.03-1.97-19.05-4.08-25.54-5.73
					c-3.25-0.83-5.86-1.53-7.67-2.04c-0.86-0.25-1.55-0.45-2.07-0.6c-0.47-0.14-0.72-0.23-0.71-0.24c0-0.02,0.26,0.03,0.74,0.14
					c0.53,0.13,1.23,0.29,2.1,0.5c1.87,0.46,4.49,1.09,7.7,1.88c6.51,1.56,15.53,3.61,25.55,5.58c10.02,1.96,19.14,3.47,25.76,4.48
					c3.27,0.49,5.93,0.89,7.84,1.17c0.89,0.14,1.59,0.24,2.13,0.33C436.03,405.79,436.29,405.84,436.28,405.85z"/>
			</g>
			<g>
				<path style="fill:#263238;" d="M363.31,391.73c-0.07,0.01-0.31-1.18-0.57-3.13c-0.27-1.95-0.55-4.65-0.7-7.65
					c-0.15-3-0.15-5.72-0.09-7.68c0.07-1.97,0.18-3.18,0.25-3.17c0.08,0,0.09,1.22,0.12,3.18c0.03,1.96,0.09,4.67,0.24,7.65
					c0.15,2.98,0.38,5.68,0.55,7.64C363.27,390.51,363.38,391.72,363.31,391.73z"/>
			</g>
			<g>
				<path style="fill:#263238;" d="M370.55,392.59c-0.04,0.01-0.14-0.29-0.29-0.84c-0.16-0.55-0.35-1.34-0.55-2.34
					c-0.41-1.98-0.84-4.76-1.03-7.86c-0.19-3.09-0.1-5.9,0.07-7.92c0.08-1.01,0.18-1.83,0.27-2.39c0.09-0.56,0.15-0.87,0.19-0.86
					c0.08,0.01-0.01,1.26-0.09,3.27c-0.08,2.02-0.1,4.8,0.08,7.87c0.19,3.07,0.55,5.83,0.87,7.82
					C370.39,391.34,370.63,392.57,370.55,392.59z"/>
			</g>
			<g>
				<path style="fill:#263238;" d="M364.43,373.61c0.06,0.06-0.33,0.34-0.31,0.97c0.01,0.3,0.12,0.67,0.4,0.89
					c0.27,0.23,0.72,0.24,1.1,0.02c0.38-0.22,0.6-0.62,0.54-0.96c-0.05-0.35-0.32-0.64-0.57-0.8c-0.54-0.33-0.97-0.13-0.99-0.21
					c-0.06-0.03,0.4-0.43,1.16-0.11c0.35,0.15,0.75,0.48,0.87,1.04c0.13,0.56-0.22,1.2-0.75,1.5c-0.52,0.31-1.25,0.3-1.67-0.1
					c-0.42-0.38-0.5-0.9-0.46-1.28C363.86,373.74,364.43,373.54,364.43,373.61z"/>
			</g>
			<g>
				<path style="fill:#263238;" d="M376.48,395.84c0,0.02-0.24,0.03-0.68,0.02c-0.45-0.01-1.1-0.01-1.95,0.01
					c-1.69,0.03-4.13,0.2-7.11,0.67c-2.98,0.47-6.49,1.27-10.35,2.3c-3.86,1.02-8.09,2.26-12.62,3.24
					c-4.52,0.98-8.94,1.54-12.97,1.41c-4.03-0.12-7.62-0.91-10.46-2c-2.85-1.1-4.94-2.45-6.26-3.53c-0.66-0.54-1.15-0.98-1.45-1.31
					c-0.32-0.32-0.47-0.49-0.46-0.5c0.04-0.05,0.69,0.64,2.04,1.65c1.34,1.01,3.44,2.3,6.26,3.34c2.82,1.03,6.37,1.77,10.35,1.87
					c3.98,0.11,8.35-0.46,12.85-1.44c4.5-0.98,8.73-2.2,12.61-3.2c3.88-1.01,7.41-1.77,10.42-2.2c3.01-0.43,5.47-0.54,7.17-0.51
					c0.85,0.02,1.51,0.05,1.95,0.09C376.25,395.8,376.48,395.82,376.48,395.84z"/>
			</g>
		</g>
		<g>
			<g>
				<g>
					<g>
						<g>
							<path style="fill:#FFBE9D;" d="M405.63,287.58c1.58-8.79,3.4-18.01,3.4-18.01s11.66,0.11,16.61-14.25
								c4.72-13.7,8.13-46.65,8.13-46.65l0,0c-15.13-9.52-35.22-8.49-49.14,2.51l0,0L373,282.76c-1.35,8.31,4.72,16.09,13.63,17.46
								h0C395.62,301.61,404.13,295.96,405.63,287.58z"/>
						</g>
						<g>
							<g>
								<path style="fill:#263238;" d="M425.09,233.35c-0.14,1.01-1.11,1.72-2.16,1.59c-1.05-0.13-1.79-1.05-1.65-2.05
									c0.14-1.01,1.11-1.72,2.16-1.59C424.49,231.43,425.23,232.35,425.09,233.35z"/>
							</g>
							<g>
								<g>
									<path style="fill:#263238;" d="M428.54,231.77c-0.28,0.21-1.53-1.11-3.57-1.46c-2.03-0.38-3.71,0.4-3.89,0.11
										c-0.09-0.13,0.23-0.53,0.96-0.89c0.72-0.36,1.9-0.63,3.17-0.4c1.27,0.23,2.26,0.89,2.78,1.47
										C428.54,231.2,428.67,231.68,428.54,231.77z"/>
								</g>
							</g>
						</g>
						<g>
							<g>
								<path style="fill:#263238;" d="M404.15,230.04c-0.14,1.01-1.11,1.72-2.16,1.59c-1.05-0.13-1.79-1.05-1.65-2.05
									c0.14-1.01,1.11-1.72,2.16-1.59C403.55,228.11,404.29,229.03,404.15,230.04z"/>
							</g>
							<g>
								<g>
									<path style="fill:#263238;" d="M407.13,228.77c-0.28,0.21-1.53-1.11-3.57-1.46c-2.03-0.38-3.71,0.4-3.89,0.11
										c-0.09-0.13,0.23-0.53,0.96-0.89c0.72-0.36,1.9-0.63,3.17-0.4c1.27,0.23,2.26,0.89,2.79,1.47
										C407.13,228.19,407.26,228.68,407.13,228.77z"/>
								</g>
							</g>
						</g>
						<g>
							<g>
								<path style="fill:#263238;" d="M411.86,245.19c0.01-0.12,1.32-0.11,3.42-0.01c0.53,0.04,1.04,0.02,1.19-0.32
									c0.19-0.35,0.07-0.95-0.08-1.6c-0.27-1.35-0.55-2.76-0.84-4.24c-1.14-6.02-1.87-10.94-1.63-10.98
									c0.24-0.04,1.37,4.8,2.51,10.82c0.27,1.48,0.53,2.9,0.77,4.25c0.09,0.63,0.31,1.36-0.09,2.09
									c-0.21,0.36-0.64,0.58-0.99,0.61c-0.35,0.04-0.65,0-0.91-0.03C413.14,245.53,411.85,245.31,411.86,245.19z"/>
							</g>
						</g>
						<g>
							<path style="fill:#EB996E;" d="M409.02,269.58c0,0-10.05-1.11-18.86-8.77c0,0,3.01,11,18.05,12.22L409.02,269.58z"/>
						</g>
						<g>
							<path style="fill:#EB996E;" d="M410.14,249.96c-0.56-1.1-1.75-1.86-3.05-1.94c-0.9-0.06-1.87,0.21-2.54,0.83
								c-0.66,0.63-0.96,1.63-0.59,2.4c0.41,0.87,1.53,1.25,2.55,1.15c1.02-0.11,1.97-0.6,2.88-1.1c0.25-0.14,0.51-0.28,0.69-0.5
								c0.18-0.22,0.27-0.53,0.13-0.76"/>
						</g>
						<g>
							<g>
								<path style="fill:#263238;" d="M405.62,245.55c0.34,0.04-0.05,2.25,1.57,4.16c1.61,1.91,4.02,2.08,3.98,2.39
									c0.01,0.14-0.6,0.34-1.6,0.19c-0.98-0.14-2.35-0.7-3.34-1.87c-0.99-1.17-1.26-2.54-1.17-3.46
									C405.12,246.01,405.47,245.51,405.62,245.55z"/>
							</g>
						</g>
					</g>
					<g>
						<path style="fill:#263238;" d="M394.61,200.62c3.95,8.71,16.74,19.31,26.63,23.07c-0.9-1.8-6.45-6.85-7.35-8.65
							c3.99,4.33,9.75,10.21,15.84,11.68c0.72,0.17,1.51,0.32,2.18,0.07c0.91-0.34,1.26-1.28,1.51-2.11
							c1.08-3.53,1.99-9.76,2.09-13.44c0.1-3.69-0.87-7.55-3.53-10.53c-3.37-3.79-8.87-5.6-14.16-6.73
							c-4.44-0.95-9.08-1.55-13.46-0.7c-4.38,0.84-8.46,3.36-9.77,7.07"/>
					</g>
					<g>
						<path style="fill:#263238;" d="M371.05,233.42c-0.03-3.96,0.06-7.69,0.38-10.13c1-7.69,3.39-35.65,29.21-28.46l-2.75,7.16
							c0,0,1.98,18-11.27,27.66c0,0,0.06,17.96-9.12,24.44C377.5,254.1,371.1,241.92,371.05,233.42"/>
					</g>
					<g>
						<path style="fill:#FFBE9D;" d="M387.17,228.43c-1.53-0.58-3.2-0.83-4.81-0.53c-1.61,0.3-3.13,1.19-4.04,2.55
							c-0.91,1.36-1.15,3.1-0.87,4.72c0.28,1.61,1.04,3.11,1.99,4.45c0.68,0.96,1.49,1.87,2.53,2.41c1.04,0.54,2.36,0.66,3.38,0.07"
							/>
					</g>
					<g>
						<g>
							<path style="fill:#EB996E;" d="M384.61,237.86c0.17,0.09-0.68,0.93-2.06,0.28c-0.66-0.31-1.23-1.04-1.51-1.87
								c-0.28-0.85-0.4-1.75-0.32-2.76c0.07-1,0.48-2.01,1.16-2.66c0.65-0.67,1.58-0.97,2.29-0.86c1.49,0.23,1.77,1.34,1.6,1.34
								c-0.14,0.1-0.62-0.53-1.64-0.47c-0.96,0.01-2.1,1.13-2.18,2.76c-0.11,1.66,0.25,3.26,1.05,3.78
								C383.81,238.01,384.54,237.71,384.61,237.86z"/>
						</g>
					</g>
				</g>
			</g>
			<path style="fill:#263238;" d="M384.59,242.06c-4.01,23.91-0.74,48.35-0.03,72.59c0.07,2.32,0.09,4.76-0.97,6.83
				c-1.6,3.13-5.31,4.65-8.82,4.87c-3.51,0.22-6.99-0.6-10.49-0.89c-0.38-2.32-0.76-4.65-1.13-6.97c-1.17,2.68-2.33,5.36-3.5,8.04
				c1.54-17.01,3.23-34,5.06-50.98"/>
		</g>
	</g>
</g>
</svg>
