<svg xmlns="http://www.w3.org/2000/svg" viewBox="0 0 500 500"><path fill="#e0e0e0" d="M349.43 56.87h70.31v101.91h-70.31z"/><path fill="#f5f5f5" d="M345.91 56.87h70.31v101.91h-70.31z"/><path fill="#fff" d="M354.65 67.9h52.84v79.84h-52.84z"/><path d="M407.49 147.74s-.01-.14-.01-.39c0-.26-.01-.64-.01-1.13 0-1-.01-2.47-.02-4.38-.01-3.83-.03-9.4-.05-16.45-.02-14.08-.05-34.01-.09-57.49l.18.18c-16.14 0-34.03.01-52.83.02h-.01l.19-.19c-.01 30.12-.03 57.89-.04 79.84l-.15-.15c16.09.03 29.28.06 38.46.08 4.59.02 8.18.03 10.63.04 1.22.01 2.15.01 2.79.02.62-.01.96 0 .96 0s-.31.01-.93.02c-.63 0-1.56.01-2.76.02-2.44.01-6.02.02-10.59.04-9.2.02-22.42.05-38.56.08h-.15v-.15c-.01-21.95-.02-49.72-.04-79.84v-.19h.2c18.8.01 36.69.01 52.83.02h.18v.18c-.04 23.52-.07 43.5-.09 57.6-.02 7.03-.04 12.59-.05 16.41-.01 1.89-.02 3.35-.02 4.34 0 .48-.01.85-.01 1.11-.01.24-.01.36-.01.36z" fill="#e0e0e0"/><path d="M416.42 56.87c.04.03-.44.73-1.25 1.82-.82 1.09-1.98 2.58-3.3 4.18-1.32 1.61-2.56 3.03-3.48 4.04-.92 1.01-1.51 1.61-1.55 1.58-.04-.04.48-.7 1.34-1.76.94-1.14 2.1-2.55 3.39-4.11 1.28-1.56 2.44-2.96 3.38-4.11.88-1.04 1.43-1.68 1.47-1.64z" fill="#e0e0e0"/><path d="M407.76 147.48a65.18 65.18 0 009.22 11.53" fill="#fff"/><path d="M416.97 159.01c-.03.04-.66-.51-1.61-1.46-.94-.95-2.2-2.32-3.48-3.92-1.28-1.6-2.34-3.12-3.06-4.25-.72-1.13-1.11-1.86-1.07-1.89.05-.03.52.65 1.3 1.74a84.31 84.31 0 003.14 4.17c1.27 1.59 2.48 2.98 3.37 3.97.89.99 1.45 1.6 1.41 1.64z" fill="#e0e0e0"/><path d="M345.9 158.7c3.07-3.79 6.14-7.58 9.21-11.36" fill="#fff"/><path d="M355.11 147.34c.08.07-1.91 2.66-4.46 5.8-2.54 3.14-4.67 5.63-4.75 5.56s1.91-2.66 4.46-5.8c2.54-3.14 4.67-5.63 4.75-5.56z" fill="#e0e0e0"/><g><path d="M345.91 56.87c.08-.07 2.08 2.33 4.47 5.34 2.39 3.02 4.25 5.52 4.17 5.58-.08.07-2.08-2.33-4.47-5.34-2.38-3.02-4.25-5.52-4.17-5.58z" fill="#e0e0e0"/></g><g><path fill="#e0e0e0" d="M373.33 84.11h17.69v50.24h-17.69z"/></g><g><path fill="#e0e0e0" d="M239.47 45.85v66.21h-95.1l-3.43-65.75z"/><path fill="#fff" d="M140.945 111.921v-65.61h95.1v65.61z"/><path d="M236.5 112.38h-96V45.86h96v66.52zm-95.11-.91h94.2V46.76h-94.2v64.71z" fill="#e0e0e0"/><path fill="#fff" d="M151.24 54.46h74.5v49.31h-74.5z"/><path d="M225.74 54.46s-.13.01-.37.01c-.25 0-.6.01-1.06.01-.94.01-2.31.01-4.09.03-3.58.01-8.78.03-15.35.06-13.14.03-31.73.06-53.63.11l.22-.22c.01 15.07.01 31.76.02 49.3v.01l-.23-.23c28.1.02 54.02.03 74.5.05l-.19.19c.04-15.01.08-27.31.1-35.88.02-4.28.04-7.63.05-9.92.01-1.13.02-2 .02-2.61 0-.59.01-.91.01-.91s.01.29.02.87c0 .6.01 1.45.02 2.57.01 2.28.03 5.61.05 9.88.02 8.6.06 20.94.1 35.99v.19h-.19c-20.49.01-46.4.03-74.5.05H151v-.25c.01-17.54.01-34.24.02-49.3v-.22h.22c21.95.04 40.6.08 53.77.11 6.55.02 11.74.04 15.3.06 1.76.01 3.11.02 4.05.03.45.01.79.01 1.04.01.23.01.34.01.34.01z" fill="#e0e0e0"/><path d="M140.94 46.13c.04-.05.66.36 1.64 1.06.97.7 2.3 1.7 3.73 2.84 1.43 1.15 2.69 2.23 3.57 3.04.89.81 1.4 1.35 1.36 1.39-.09.1-2.37-1.79-5.23-4.07-2.86-2.27-5.15-4.15-5.07-4.26zM236.04 46.31c.08.1-2.16 2.01-5 4.26s-5.22 3.99-5.3 3.89c-.08-.1 2.16-2.01 5-4.26 2.85-2.25 5.22-3.99 5.3-3.89z" fill="#e0e0e0"/><path d="M235.97 111.93l-10.6-8.59" fill="#fff"/><path d="M225.37 103.34c.08-.1 2.52 1.74 5.45 4.11s5.24 4.38 5.15 4.48c-.08.1-2.52-1.74-5.45-4.11s-5.24-4.38-5.15-4.48z" fill="#e0e0e0"/><g><path d="M140.94 111.92c-.08-.1 2.14-1.99 4.95-4.22 2.82-2.23 5.16-3.95 5.24-3.85s-2.14 1.99-4.95 4.22c-2.81 2.23-5.16 3.96-5.24 3.85z" fill="#e0e0e0"/></g><g><path fill="#e0e0e0" d="M166.366 86.34V69.83h46.88v16.51z"/></g></g><g><path d="M62.53 432.48c.93-3.71-1.51-7.41-4.25-10.08s-6-5.06-7.44-8.6c-2.33-5.74.71-13.21-3.23-17.98-2.32-2.81-6.45-3.73-8.51-6.74-1.08-1.58-1.44-3.52-1.87-5.38a54.748 54.748 0 00-13.76-25.4c-.42 8.47 1.5 17.04 5.48 24.53 1.6 3.01 3.56 5.94 4.11 9.3.88 5.46-2.14 11.11-.76 16.48 1.57 6.13 8.49 10.2 8.86 16.52.31 5.34-4.32 10.06-3.95 15.4.16 2.27 1.23 4.38 2.41 6.32 4.17 6.85 10.27 11.54 19.47 11.34l11.27.33-7.83-26.04z" fill="#f5f5f5"/><path d="M72.65 458.8s1.08.24 3.1-.08c1.01-.15 2.25-.43 3.66-.94 1.4-.52 2.99-1.26 4.51-2.5.73-.65 1.46-1.44 1.85-2.49.38-1.05.45-2.19.51-3.37.05-1.18.05-2.4.24-3.65.18-1.24.66-2.46 1.36-3.63 1.32-2.34 3.51-4.56 4.2-7.74.75-3.12.18-6.49-.36-9.88-.54-3.38-1.07-7.06.2-10.59 1.19-3.53 3.64-6.73 4.86-10.71 1.21-4.02.61-8.33.85-12.59.11-2.14.51-4.28 1.43-6.27.9-2 2.15-3.89 3.13-5.99 1.98-4.26 2.3-9.07 2.82-13.79.25-2.38.51-4.78.77-7.21.25-2.44.46-4.87 1.21-7.21.68-2.37 1.67-4.66 2.66-6.99.48-1.17.99-2.35 1.29-3.65.21-1.33.27-2.57.34-3.88.11-2.58-.01-5.2-.34-7.8-.32-2.6-.8-5.17-1.1-7.78-.02-.15-.04-.31-.05-.45l-.06-.52-.46.23c-2.41 1.22-4.46 3.03-6.04 5.15-1.6 2.11-2.76 4.48-3.69 6.89-1.85 4.85-2.5 9.93-3.43 14.78-.9 4.85-2.09 9.62-4.55 13.66-1.22 2.01-2.71 3.85-4 5.82-1.29 1.95-2.43 4.09-2.76 6.44-.64 4.77 2.01 8.94 1.49 13.17-.18 2.1-1.01 4.06-2.02 5.86-1.01 1.81-2.21 3.48-3.34 5.17-1.13 1.68-2.21 3.39-3 5.22a16.49 16.49 0 00-1.35 5.66c-.25 3.8.31 7.4.05 10.81-.21 3.41-1.39 6.51-2.73 9.28-1.35 2.78-2.85 5.3-4.11 7.73-.63 1.22-1.21 2.41-1.69 3.6-.5 1.19-.74 2.41-.97 3.57a22.41 22.41 0 00-.05 6.43c.51 3.86 1.97 6.63 3.27 8.18.3.42.65.71.92.98.27.28.53.47.74.62.42.32.64.46.64.46.05-.06-.93-.57-2.19-2.15-1.25-1.56-2.64-4.32-3.11-8.13-.24-1.9-.26-4.04.11-6.34.23-1.14.48-2.33.98-3.48.47-1.17 1.06-2.35 1.7-3.55 1.27-2.42 2.78-4.92 4.16-7.72 1.37-2.78 2.59-5.94 2.82-9.44.28-3.48-.27-7.09 0-10.81.12-1.86.54-3.71 1.33-5.47.77-1.77 1.83-3.44 2.96-5.11 1.13-1.67 2.34-3.36 3.38-5.2 1.04-1.83 1.91-3.88 2.12-6.1.52-4.5-2.11-8.7-1.46-13.14.31-2.19 1.39-4.24 2.67-6.16 1.28-1.93 2.77-3.77 4.03-5.84 2.54-4.15 3.75-9.02 4.66-13.88.93-4.88 1.58-9.9 3.4-14.65.91-2.36 2.04-4.68 3.59-6.71 1.52-2.05 3.49-3.78 5.78-4.94l-.52-.28c.02.14.04.3.05.45.3 2.64.78 5.22 1.1 7.79.33 2.57.45 5.13.34 7.68-.07 1.26-.14 2.58-.33 3.76-.27 1.19-.77 2.36-1.24 3.52-.98 2.32-1.98 4.65-2.68 7.07-.77 2.41-.98 4.93-1.23 7.33-.26 2.43-.51 4.83-.76 7.21-.51 4.74-.84 9.47-2.74 13.58-.94 2.05-2.19 3.94-3.12 6.01-.96 2.06-1.37 4.32-1.47 6.5-.22 4.35.37 8.6-.79 12.46-1.15 3.84-3.59 7.05-4.81 10.7-1.31 3.68-.74 7.48-.18 10.85.56 3.39 1.13 6.69.42 9.69-.63 3.03-2.76 5.23-4.11 7.64-.7 1.2-1.2 2.49-1.38 3.78-.19 1.28-.17 2.52-.22 3.69-.05 1.16-.11 2.3-.46 3.28-.35.98-1.03 1.75-1.73 2.38-1.46 1.23-3.03 1.98-4.4 2.51-1.38.53-2.61.83-3.6 1-1 .19-1.77.22-2.29.23-.51-.02-.78-.01-.78-.01z" fill="#e0e0e0"/><path d="M107.51 325.83c-.01 0-.05.11-.11.34-.06.27-.14.6-.24 1.02-.22.89-.47 2.23-.89 3.91-.43 1.67-1.44 3.57-2.31 5.9-.9 2.31-1.8 5-2.63 8.01-.84 3.01-1.59 6.35-2.36 9.93-.8 3.57-1.6 7.41-3.54 11.03-.91 1.84-1.94 3.69-2.76 5.73-.84 2.03-1.28 4.25-1.59 6.48-.52 4.47-1.31 9-2.35 13.65-2.21 9.25-4.31 18.06-6.22 26.08l-5.22 21.27c-1.45 6.02-2.63 10.91-3.46 14.35-.38 1.65-.68 2.96-.9 3.91-.09.41-.16.75-.22 1.02-.05.23-.06.35-.05.35.01 0 .05-.11.12-.34.08-.27.17-.6.29-1 .25-.94.6-2.24 1.04-3.88.88-3.43 2.14-8.3 3.68-14.3 1.53-6.06 3.35-13.25 5.37-21.23 1.93-8.02 4.06-16.83 6.28-26.08 1.04-4.64 1.84-9.26 2.35-13.7.3-2.21.72-4.35 1.53-6.32.79-1.98 1.8-3.83 2.71-5.68 1.96-3.69 2.76-7.64 3.53-11.2.75-3.59 1.46-6.92 2.27-9.92.8-3.01 1.66-5.68 2.52-8 .82-2.32 1.79-4.24 2.2-5.97.38-1.72.59-3.04.76-3.95.07-.42.13-.76.17-1.03.03-.26.04-.38.03-.38z" fill="#e0e0e0"/><g><path d="M74.64 458.82c7.34-4.42 9.37-17.71 6.26-25.69-3.12-7.98-8.53-15.25-9.41-23.77-.67-6.55 1.43-13.28-.13-19.68-2.11-8.63-10.58-15.28-10.54-24.16.03-4.98 2.84-9.69 2.58-14.67-.31-6.11-5.03-10.93-7.96-16.29-4.49-8.21-4.84-17.95-6.41-27.17-1.57-9.23-5.15-19.1-13.36-23.59-1.16 7.85-3.2 13.23-2.49 23.84.25 3.81 4.73 11.09 5.38 19.45.39 4.99.67 10 1 14.99.32 4.86.67 9.82 2.44 14.36 1.36 3.48 3.52 6.64 4.53 10.23 1.91 6.76-.51 14.12 1.04 20.97 1.31 5.81 5.36 10.79 6.22 16.68 1.2 8.28-4.11 16.92-1.32 24.81 1.38 3.91 4.63 7.04 5.57 11.09.73 3.14-.03 6.47.63 9.62 1.07 5.08 10.79 8.97 15.97 8.63" fill="#e0e0e0"/><path d="M37.75 291.58c-.01 0 0 .15.03.44.04.33.1.75.17 1.29.18 1.13.37 2.79.77 4.94.42 2.16 1.55 4.59 2.46 7.52.96 2.92 1.91 6.29 2.76 10.06.86 3.77 1.59 7.95 2.35 12.44.79 4.46 1.6 9.39 3.85 14.06 1.05 2.35 2.22 4.7 3.1 7.2.91 2.5 1.33 5.18 1.6 7.95.41 5.55 1.18 11.32 2.26 17.14 2.32 11.6 4.53 22.65 6.54 32.71 2.12 10.02 4.02 19.05 5.63 26.65 1.62 7.54 2.94 13.66 3.86 17.95.46 2.08.83 3.71 1.08 4.87.12.52.22.94.3 1.26.07.28.11.43.13.43.01 0-.01-.15-.05-.44-.06-.33-.13-.75-.23-1.28-.23-1.17-.55-2.81-.95-4.9-.87-4.3-2.11-10.43-3.63-18-1.56-7.61-3.42-16.65-5.48-26.68-1.99-10.06-4.18-21.11-6.48-32.71-1.07-5.82-1.84-11.51-2.26-17.08-.27-2.78-.72-5.55-1.65-8.1-.91-2.56-2.1-4.92-3.14-7.24-2.25-4.6-3.05-9.42-3.87-13.89-.79-4.49-1.55-8.67-2.44-12.45-.88-3.78-1.88-7.16-2.87-10.08-.95-2.94-2.11-5.35-2.57-7.45-.43-2.11-.68-3.79-.9-4.9-.1-.53-.18-.95-.24-1.28-.08-.28-.12-.43-.13-.43z" fill="#ebebeb"/></g></g><g><path d="M419.84 446.03c-18.28-10.86-23.89-33.12-24.7-53.43-.14-3.39-.77-6.93.62-10.02 1.39-3.09 5-5.39 8.13-4.19 2.6 1 3.91 3.84 5.49 6.15 2.11 3.08 5.09 5.53 8.49 6.99 2.24.96 4.95 1.45 6.99.12 2.8-1.83 2.85-5.88 2.58-9.25-.5-6.27-1-12.54-1.51-18.8-.27-3.36-.53-6.8.28-10.07.81-3.27 2.9-6.41 6.04-7.54s7.23.42 8.15 3.66c.38 1.35.21 2.79.4 4.18.2 1.39.96 2.89 2.32 3.18 1.37.3 2.65-.76 3.58-1.82 3.22-3.65 5.26-8.2 7.14-12.72 1.88-4.51 3.69-9.13 6.57-13.07 2.88-3.94 7.02-7.2 11.82-7.82 4.8-.63 10.15 1.97 11.72 6.61 1.57 4.65-.84 9.67-3.57 13.73a75.344 75.344 0 01-14.54 16.06c-1 .83-2.09 1.73-2.41 3.01-.57 2.3 1.72 4.37 3.99 4.94 2.57.65 5.27.19 7.92.3 2.65.12 5.57 1.06 6.75 3.47 1.63 3.34-.98 7.15-3.63 9.72a64.467 64.467 0 01-18.23 12.4c-2.41 1.09-4.95 2.08-6.82 3.96-1.87 1.89-2.85 5-1.47 7.28 1.38 2.28 4.53 2.81 7.09 2.14 2.56-.67 4.77-2.25 7.17-3.36 4.49-2.09 10.49-2.21 13.75 1.57 2.14 2.48 2.58 6.13 1.83 9.33s-2.55 6.05-4.49 8.69c-6.77 9.24-15.74 16.94-26.19 21.45-10.45 4.52-20.32 6.26-31.26 3.15" fill="#f5f5f5"/><path d="M423.14 446.98c.14-8.08-1.26-3.6.98-14.04 2.23-10.45 5.62-21.7 9.57-33.34 1-2.91 1.99-5.78 2.96-8.61.98-2.82 1.95-5.62 3.06-8.3 2.21-5.37 4.75-10.37 7.3-15.03 2.55-4.67 5.15-9.01 7.6-13.05 2.46-4.04 4.83-7.75 7.13-11.05 4.59-6.61 8.91-11.5 12.01-14.73 1.55-1.62 2.79-2.84 3.64-3.66.41-.39.73-.69.98-.92.22-.2.34-.31.35-.3.01.01-.09.12-.3.34-.23.24-.54.56-.93.96-.82.84-2.04 2.09-3.56 3.73-3.05 3.28-7.3 8.19-11.83 14.82-2.27 3.3-4.61 7.03-7.05 11.07-2.43 4.05-5.01 8.39-7.54 13.05-2.53 4.66-5.05 9.65-7.24 14.99-1.11 2.67-2.06 5.44-3.04 8.28-.97 2.83-1.96 5.7-2.95 8.61-3.95 11.63-7.35 22.85-9.6 33.26-2.27 10.4-.91 5.88-1.1 13.93" fill="#e0e0e0"/><path d="M439.89 382.64c-.04.01-.19-.49-.43-1.41-.25-.92-.56-2.25-.92-3.91-.72-3.31-1.57-7.93-2.47-13.01-.91-5.09-1.81-9.68-2.59-12.97-.38-1.65-.7-2.98-.94-3.9-.23-.92-.34-1.43-.3-1.45.04-.01.23.48.53 1.38.31.9.69 2.22 1.13 3.86.88 3.28 1.86 7.87 2.77 12.97.88 5.02 1.68 9.57 2.3 13.04.29 1.57.53 2.89.72 3.95.17.92.25 1.45.2 1.45z" fill="#e0e0e0"/><path d="M482.55 371.37c0 .04-.61.16-1.71.33-1.1.18-2.7.43-4.66.81-3.93.72-9.32 1.9-15.22 3.47-5.89 1.58-11.17 3.23-14.94 4.54-1.9.64-3.41 1.2-4.47 1.58-1.05.38-1.64.58-1.66.54-.02-.04.54-.31 1.57-.77 1.03-.45 2.53-1.07 4.41-1.77 3.75-1.42 9.02-3.15 14.93-4.73 5.91-1.57 11.34-2.69 15.3-3.3 1.98-.32 3.59-.51 4.71-.61 1.12-.1 1.74-.14 1.74-.09zM424.6 432.1c-.02.01-.13-.16-.34-.51-.23-.41-.51-.91-.86-1.51-.74-1.31-1.75-3.25-2.98-5.65-2.45-4.8-5.63-11.54-9.04-19.02-3.41-7.49-6.52-14.25-8.87-19.09-1.15-2.35-2.1-4.29-2.8-5.73-.3-.63-.55-1.14-.75-1.56-.17-.36-.24-.55-.23-.57.02-.01.13.16.34.51.23.41.51.91.86 1.51.74 1.31 1.75 3.24 2.98 5.65 2.45 4.8 5.63 11.54 9.04 19.03 3.41 7.48 6.52 14.24 8.87 19.09 1.15 2.35 2.1 4.29 2.8 5.73.3.63.55 1.14.75 1.56.17.36.25.55.23.56z" fill="#e0e0e0"/><path d="M480.71 409.33c.01.02-.18.12-.55.28-.44.18-.98.41-1.63.68-1.51.61-3.54 1.44-6.01 2.45-5.07 2.07-12.05 5.01-19.75 8.26-7.7 3.26-14.71 6.14-19.83 8.1-2.56.98-4.64 1.76-6.08 2.26-.67.23-1.22.42-1.67.57-.38.12-.59.18-.6.16-.01-.02.18-.12.55-.28.44-.18.98-.41 1.63-.68 1.5-.61 3.54-1.44 6.01-2.45 5.07-2.07 12.05-5.01 19.75-8.27 7.7-3.26 14.71-6.13 19.82-8.1 2.56-.98 4.64-1.76 6.08-2.26.67-.23 1.22-.42 1.67-.57.4-.11.6-.17.61-.15z" fill="#e0e0e0"/></g><g><path d="M470.58 456.21c0 .14-98.21.26-219.33.26-121.16 0-219.35-.12-219.35-.26s98.19-.26 219.35-.26c121.12 0 219.33.12 219.33.26z" fill="#263238"/></g><g><path d="M387.34 99.08c-7.17-3.08-15.51 1.32-18.73 6.2-3.22 4.88-4.6 10.74-5.53 16.52-1.91 11.88-2.18 24.02-.88 35.98.38 3.53 1.07 7.37 3.77 9.67 2.57 2.19 6.3 2.38 9.62 1.8 3-.52 6.04-1.66 7.99-4 2.99-3.59 2.6-8.81 2.28-13.47-1.1-16.07.6-32.32 5.01-47.81" fill="#263238"/><path d="M371.71 105.6c3.29-6.54 13.26-10.07 21.37-7.88 6.82 1.84 14.11 8.85 14.61 16.04.72 10.44-4.92 21.1-1.58 31.01 3.89 11.54 18.21 17.14 21.87 28.75 1.5 4.75.91 10.12-1.58 14.44-1.29 2.23-3.26 4.29-5.8 4.71-3.17.52-6.1-1.62-8.61-3.63-6.77-5.44-13.65-11.01-18.36-18.3-5.56-8.59-7.69-19.03-7.78-29.26-.09-10.23 1.74-20.37 3.56-30.43" fill="#263238"/><path d="M400.24 118.27c1.08-8.58-5.13-16.43-13.85-17.26-8.22-.78-15.52 5.33-16.75 13.5-1.08 7.15-2.01 14.38-1.97 17 .1 7.91 4.73 10.99 6.6 11.91.43.21 1.61.45 2.08.52.03 0 .05.03.04.06l-1.76 9.08c-.8 5.95 2.52 11.25 8.46 12.12 5.96.87 10.62-3.7 11.53-9.65l5.62-37.28z" fill="#936754"/><path d="M371.47 118.44c-.12.65.34 1.29 1.02 1.43.68.14 1.33-.28 1.45-.93.12-.65-.34-1.29-1.02-1.43-.68-.15-1.33.27-1.45.93zM371.47 116.66c.13.18 1.17-.38 2.51-.18 1.34.18 2.22 1.01 2.39.87.08-.06-.03-.38-.41-.75a3.49 3.49 0 00-1.88-.9c-.83-.12-1.58.09-2.03.34-.47.26-.65.53-.58.62zM384.14 120.49c-.12.65.34 1.29 1.02 1.43.68.14 1.33-.28 1.45-.93.12-.65-.34-1.29-1.02-1.43-.68-.14-1.33.28-1.45.93zM384.59 118.82c.13.18 1.18-.38 2.51-.18 1.34.18 2.22 1.01 2.39.87.08-.06-.03-.38-.42-.75a3.49 3.49 0 00-1.88-.9c-.83-.12-1.58.09-2.03.34-.45.27-.63.54-.57.62zM378.28 128.04c.02-.08-.79-.34-2.12-.71-.34-.09-.65-.2-.67-.44-.04-.26.15-.61.38-.98.44-.78.9-1.6 1.39-2.46 1.94-3.5 3.4-6.4 3.26-6.48-.14-.08-1.83 2.7-3.78 6.2-.47.86-.92 1.69-1.35 2.48-.19.37-.47.78-.37 1.32.05.27.28.49.49.58.21.1.4.13.57.17 1.35.27 2.19.4 2.2.32z" fill="#263238"/><path d="M376.41 143.95s5.11 1.18 12.14-1.77c0 0-3.04 6.54-12.61 4.21l.47-2.44z" fill="#7c5142"/><g><path d="M378.38 131.35c.57-.57 1.47-.79 2.29-.58.57.15 1.12.51 1.4 1.04.28.52.26 1.21-.13 1.61-.44.46-1.21.46-1.82.19-.61-.27-1.1-.78-1.56-1.27-.13-.14-.26-.28-.32-.45-.07-.17-.06-.38.07-.5" fill="#7c5142"/></g><g><path d="M382.09 129.54c-.22-.04-.43 1.41-1.82 2.26-1.39.85-2.92.46-2.96.67-.03.09.3.33.95.45.64.12 1.6.05 2.46-.47.85-.52 1.3-1.32 1.44-1.91.14-.61.03-.99-.07-1z" fill="#263238"/></g><g><path d="M384.33 116.39c.08.38 1.44.41 2.98.82 1.55.39 2.75 1.03 3.01.74.12-.14-.06-.52-.52-.94-.46-.43-1.22-.88-2.15-1.12-.93-.24-1.81-.22-2.42-.07-.6.15-.93.39-.9.57z" fill="#263238"/></g><g><path d="M372.36 113.99c.19.34 1.16.16 2.27.3 1.12.11 2.02.5 2.28.22.12-.14.01-.47-.35-.81-.36-.35-1-.68-1.77-.77-.77-.09-1.47.09-1.9.35-.44.25-.61.55-.53.71z" fill="#263238"/></g><g><path d="M375.79 101.96c.85 6.03 5.45 11.36 11.29 13.08-.15-.75-.3-1.5-.45-2.24 2.57 5.09 7.13 9.13 12.48 11.09 3.7-6.26 2.31-15.06-3.14-19.88-5.44-4.82-14.34-5.13-20.11-.71" fill="#263238"/></g><g><path d="M426.97 179.59c-.06-.05.76-.73 1.54-2.41.79-1.64 1.43-4.36.8-7.6-.3-1.61-.97-3.3-1.94-4.97-.98-1.67-2.27-3.3-3.78-4.87-3-3.17-6.97-5.97-10.58-9.57-1.81-1.78-3.35-3.83-4.36-6.03-1.02-2.2-1.57-4.49-1.86-6.67-.56-4.4-.26-8.37-.05-11.68.25-3.31.52-5.98.69-7.83.08-.88.15-1.59.2-2.13.05-.49.09-.74.11-.74.02 0 .02.26 0 .75-.03.54-.06 1.25-.11 2.14-.13 1.91-.3 4.57-.52 7.84-.17 3.3-.42 7.27.16 11.59.31 2.15.85 4.39 1.85 6.52.99 2.14 2.47 4.11 4.26 5.88 3.56 3.56 7.53 6.38 10.55 9.61 1.52 1.6 2.82 3.27 3.8 4.98.97 1.71 1.64 3.46 1.92 5.12.6 3.33-.11 6.11-.98 7.75a9.25 9.25 0 01-1.19 1.79c-.32.36-.5.54-.51.53z" fill="#263238"/></g><g><path d="M434.68 425.1l4.74 23.24 9.05 17.3a2.43 2.43 0 01-1.18 3.35c-.72.32-1.54.27-2.22-.14-4.3-2.58-20.07-12.15-20.32-13.87-.29-1.99-6.63-24.18-6.63-24.18l16.56-5.7z" fill="#e5a44e"/><path d="M447.3 468.99l-22.9-15.56.22.98c.19.85.68 1.6 1.37 2.12 1.86 1.39 7.09 5.12 19.01 12.35.7.41 1.56.45 2.3.11zM427.45 444.88c.67.27 1.06 1.1.82 1.78-.24.68-1.08 1.08-1.76.83-.67-.26-1.17-1.24-.86-1.89.32-.65 1.33-1.07 1.93-.66" fill="#fff" opacity=".6"/><path d="M439.71 460.09c.15.03.39-1.3 1.62-2.26 1.2-1 2.55-.97 2.55-1.12.01-.06-.33-.17-.88-.13-.55.04-1.32.3-1.99.84-.67.54-1.07 1.24-1.23 1.77-.17.54-.13.89-.07.9zM442.06 462.81c.13.08.7-.85 1.82-1.46 1.1-.64 2.19-.65 2.19-.81.04-.13-1.18-.37-2.45.35-1.26.71-1.69 1.88-1.56 1.92zM435.74 456.82c.13.09 1-1.34 2.66-2.44 1.64-1.13 3.28-1.43 3.25-1.58.01-.13-1.78-.06-3.54 1.15-1.78 1.19-2.5 2.83-2.37 2.87zM433.71 449.88c.09.12 1.25-.7 2.9-1.14 1.64-.46 3.06-.34 3.07-.49.04-.13-1.44-.5-3.21-.01-1.77.47-2.86 1.55-2.76 1.64zM432.14 443.09c.1.12 1.21-.95 2.98-1.27 1.77-.36 3.19.22 3.24.07.03-.06-.29-.29-.9-.48-.6-.19-1.49-.29-2.44-.11s-1.74.61-2.23 1c-.48.41-.69.75-.65.79zM434.79 440.54c.03-.01.01-.33-.17-.88-.18-.55-.53-1.34-1.22-2.13-.35-.37-.73-.87-1.45-1.02-.36-.08-.82.09-1.02.46-.2.36-.2.76-.13 1.13.36 1.46 1.94 2.59 3.64 2.43 1.7-.2 2.98-1.48 3.35-2.9.07-.36.08-.79-.19-1.14-.27-.35-.77-.4-1.09-.27-.66.26-1.01.75-1.34 1.14-.65.82-.99 1.61-1.17 2.16-.18.55-.2.87-.17.88.09.04.33-1.27 1.62-2.8.33-.36.71-.81 1.19-.96.24-.08.46-.03.59.14.13.17.15.47.08.75-.32 1.16-1.5 2.34-2.94 2.48-1.43.15-2.82-.84-3.12-2.02-.07-.28-.06-.59.06-.79.11-.2.33-.3.56-.26.49.08.9.5 1.24.84 1.39 1.47 1.59 2.81 1.68 2.76z" fill="#263238"/></g><g><path d="M371.93 427.54l1.1 18.87s-18.82 7.46-18.95 10.96l36.67-.82-.51-29.48-18.31.47z" fill="#e5a44e"/><path d="M384.34 444.57c.71.18 1.22.97 1.07 1.69-.15.72-.94 1.24-1.66 1.08-.72-.17-1.36-1.09-1.13-1.79.23-.7 1.2-1.26 1.85-.93M390.75 456.56l-.17-2.97-35.1 1.89s-1.62.75-1.41 1.89l36.68-.81z" fill="#fff" opacity=".6"/><path d="M372.44 446.24c.01.18.91.24 1.8.8.91.53 1.38 1.3 1.54 1.22.16-.04-.13-1.1-1.22-1.76-1.09-.66-2.17-.43-2.12-.26zM368.62 447.91c-.04.17.75.46 1.37 1.21.65.73.82 1.54 1 1.53.17.02.27-1.03-.53-1.94-.78-.92-1.84-.97-1.84-.8zM366.54 452.57c.16.03.39-.87-.09-1.84-.47-.97-1.33-1.34-1.4-1.19-.1.15.46.66.84 1.47.41.79.47 1.54.65 1.56zM372.66 441.91c.08.16.89-.1 1.91-.06 1.01.03 1.81.35 1.9.19.1-.13-.68-.78-1.88-.82-1.19-.04-2.02.55-1.93.69z" fill="#263238"/><g opacity=".3"><path d="M372.16 431.27l.19 3.37 18.02-.57-.05-3.03z"/></g><g><path d="M372.51 438.1c0 .07.71.17 1.84-.05a8.483 8.483 0 002.95-1.21c.17-.11.36-.23.55-.44.19-.19.3-.67.06-.95-.19-.28-.53-.39-.79-.39-.27 0-.49.06-.69.11-.41.11-.79.25-1.13.42-.69.33-1.25.75-1.67 1.15-.83.81-1.11 1.48-1.05 1.52.08.06.48-.51 1.34-1.18.42-.33.97-.68 1.62-.96.33-.14.68-.26 1.05-.35.39-.11.72-.12.82.05.04.07.04.09-.04.21-.08.11-.24.21-.4.32-.32.22-.64.41-.96.58-.63.33-1.24.56-1.76.72-1.05.28-1.75.35-1.74.45z" fill="#263238"/></g><g><path d="M372.75 438.35c.06.03.4-.62.44-1.78.02-.58-.06-1.27-.3-2.01-.12-.37-.28-.74-.49-1.1-.22-.36-.5-.84-1.19-.9-.36-.01-.66.28-.76.53-.12.25-.14.46-.17.68-.06.43-.04.85.03 1.24.13.78.47 1.42.83 1.88.74.93 1.49 1.13 1.5 1.07.06-.09-.57-.42-1.14-1.32-.28-.44-.53-1.03-.62-1.71-.04-.34-.05-.7.01-1.06.05-.39.19-.71.33-.67.18-.01.5.28.66.59.2.32.35.66.48.99.24.66.36 1.29.4 1.82.07 1.05-.11 1.72-.01 1.75z" fill="#263238"/></g></g><g><path d="M400.44 225.59s10.78 23.41 12.41 30.24c1.62 6.83 31.73 187.3 31.73 187.3l-27.65 1.68-37.56-176.54 15.11 175.26-27.21 2.27s-20.57-185.2-19.7-190.43c1.31-7.89 7.97-30.59 7.97-30.59l44.9.81z" fill="#1c2f5c"/><path d="M379.14 267.13c.01 0 0 .16-.22.3-.21.13-.65.21-1.07-.1-.4-.32-.56-.94-.65-1.56-.11-.65-.23-1.37-.36-2.15-.52-3.19-1.21-7.6-1.94-12.48-.73-4.88-1.36-9.3-1.79-12.5-.2-1.53-.36-2.8-.48-3.8-.1-.9-.14-1.4-.11-1.4.04-.01.14.48.31 1.37.17.99.39 2.25.65 3.77.52 3.19 1.21 7.6 1.94 12.48.73 4.88 1.36 9.3 1.79 12.5.1.79.2 1.51.28 2.16.07.63.19 1.17.5 1.45.31.27.7.25.89.16.19-.09.23-.22.26-.2zM376.31 236.98c-.02-.02.04-.16.27-.3.22-.14.61-.27 1.09-.16.46.08 1.06.5 1.16 1.19.11.65-.17 1.46-.89 1.84-.73.35-1.54.11-2.01-.34-.5-.46-.58-1.14-.47-1.59.24-.96.92-1.18.91-1.12.06.06-.45.38-.55 1.18-.05.38.06.86.43 1.18.36.32.98.47 1.46.23.48-.24.72-.83.65-1.3-.05-.48-.42-.8-.78-.91-.78-.26-1.24.17-1.27.1z" fill="#455a64"/></g><g><path d="M328.69 122.19l-16.95-26.16-5.15-8.61s-1.53-8.64-2.27-11.07c-1.51-5-1.96-4.87-2.52-4.6-1.48.74 2.33 8.9.49 7.62-1.84-1.28-3.5-10.52-5.02-9.68-1.98 1.09 2.17 9.56 2.47 10.3.29.72-.76 1.2-1 .51-.34-.98-4.11-11.24-6.07-10.18-1.08.58.15 2.43.15 2.43s4.24 9.33 3.3 9.8c-.95.47-3.63-4.92-4.4-6.81-.76-1.86-1.96-2.25-2.5-1.23-.37.7 1.86 6.52 2.67 8.36.81 1.84 3.11 6.86-.04 5.31-3.15-1.55-6.15-1.55-6.97-.99-.81.56-.32 1.9.77 1.93.88.02 2.34.52 3.41.93.89.34 1.72.83 2.44 1.45.84.72 1.53 1.37 2.1 1.93l4.2 8.75 18.59 36.49 38.93 32.24 9.81-17.7-36.44-31.02z" fill="#936754"/></g><g><path d="M429.24 268.37c.24.77.5 1.67.76 2.75.22.93.27 1.89.17 2.83-.12 1.15-.35 2.67-.74 3.46-.47.98.49 2.03 1.37 1.56.87-.46 2.25-3.14 2.31-6.65.07-3.51 3.47.84 4.74 2.4s5.42 6.21 6.21 6.2c1.16-.01 1.36-1.26.05-2.79-1.32-1.55-4.89-6.4-4.03-7.03.84-.62 7.2 7.42 7.2 7.42s1.08 1.94 2.1 1.24c1.83-1.25-5.55-9.31-6.27-10.06-.5-.52.41-1.24.91-.65.52.6 6.15 8.17 8.03 6.91 1.44-.97-6.01-6.68-6.31-8.9-.3-2.22 5.21 4.91 6.55 3.93.5-.36.82-.71-2.93-4.34-1.82-1.76-8.8-7.09-8.8-7.09l-14.79-48.62-18.36.3 21.83 57.13z" fill="#936754"/></g><g><path d="M372.44 153.15s-5.98-2.33-8.76-3.91l-29.12-22.06-13 17.36s33.23 29.98 33.78 29.84c.55-.14 17.1-21.23 17.1-21.23z" fill="#e5a44e"/><path d="M365.95 156.12l-2.11.61a15.189 15.189 0 00-10.94 13.52c-.5 7.02.16 9.11-.1 14.32-.63 12.47 9.34 24.86 9.34 24.86l-9.05 20.89 48.09-3.11 3.6-32.22-1.19-38.75s-3.81-7.41-10.88-6.29c-3.68.57-26.76 6.17-26.76 6.17z" fill="#e5a44e"/><path d="M403.41 154.34s10.64-.05 13.88 12.22c3.24 12.26 9.69 44.54 9.69 44.54l-20.16 6.06-10.83-44.3c-.74-2.51-1.07-5.14-.87-7.75.34-4.42 2-10.17 8.29-10.77zM371.45 153.68l3.55-6.79 6 3.4v2.95l1.9-2.95 14.15-3.4v8.39l-16.52 1.8z" fill="#e5a44e"/><path d="M360.37 164.02c.03.02-.24.53-.75 1.44-.26.45-.57 1-.88 1.67-.32.67-.72 1.4-1.06 2.27-.37.85-.76 1.79-1.09 2.83-.39 1.02-.68 2.15-1.01 3.33-.59 2.38-1.06 5.04-1.25 7.86-.17 2.82-.04 5.52.24 7.95.18 1.21.32 2.37.58 3.43.2 1.07.47 2.05.72 2.94.22.9.53 1.68.76 2.39.22.7.46 1.29.66 1.77.39.96.59 1.51.56 1.52-.03.02-.29-.5-.74-1.44-.23-.47-.5-1.05-.75-1.75-.26-.7-.59-1.48-.84-2.38-.28-.89-.57-1.88-.79-2.96-.28-1.07-.44-2.24-.63-3.46a43.85 43.85 0 01-.28-8.05c.2-2.86.69-5.55 1.31-7.94.35-1.19.66-2.32 1.07-3.35.36-1.04.77-1.98 1.16-2.83.36-.87.79-1.6 1.14-2.25.34-.66.67-1.21.96-1.64.55-.9.88-1.37.91-1.35zM379.94 149.76c.07.02-.14.81-.53 2.05-.39 1.25-.96 2.96-1.62 4.84-.11.3-.21.59-.31.87l-.11.3-.27-.16c-1.54-.93-2.77-1.95-3.58-2.75s-1.23-1.36-1.18-1.4c.11-.11 1.98 1.92 5.03 3.7l-.38.14c.1-.28.2-.57.3-.87.66-1.88 1.29-3.57 1.77-4.78.48-1.23.81-1.97.88-1.94zM391.56 156.04c.02.07-.79.41-2.13.92-1.34.5-3.21 1.17-5.29 1.88l-.3.1-.05-.31c-.01-.08-.02-.17-.04-.26-.33-2.24-.6-4.27-.76-5.74-.17-1.47-.24-2.39-.17-2.4.07-.01.27.89.53 2.35s.59 3.48.91 5.72c.01.09.03.17.04.26l-.34-.21c2.09-.71 3.97-1.32 5.35-1.73 1.37-.43 2.22-.65 2.25-.58zM398.99 216.63c.08-.11 1.48 1.38 1.86 3.77.41 2.39-.44 4.25-.54 4.17-.16-.04.42-1.85.03-4.09-.36-2.23-1.49-3.76-1.35-3.85z" fill="#263238"/><path d="M425.29 203.99c.02.07-1.08.42-2.88.88-1.8.47-4.3 1.04-7.09 1.56s-5.33.89-7.18 1.11c-1.85.22-2.99.29-3 .22-.01-.07 1.12-.28 2.95-.59 1.83-.31 4.35-.74 7.14-1.26 2.78-.52 5.29-1.04 7.11-1.41 1.8-.36 2.93-.58 2.95-.51zM422.99 191.72c.02.06-1.1.51-2.96 1.09-1.86.59-4.46 1.29-7.34 1.99-2.88.71-5.49 1.35-7.37 1.84s-3.04.81-3.06.74c-.02-.06 1.1-.51 2.96-1.09 1.86-.59 4.46-1.29 7.35-1.99 2.88-.71 5.49-1.35 7.37-1.84 1.87-.49 3.03-.81 3.05-.74z" fill="#fafafa"/><path d="M406.82 217.16c-.04.01-.16-.41-.37-1.17-.22-.87-.49-1.95-.81-3.23-.66-2.73-1.55-6.51-2.49-10.69-.94-4.18-1.77-7.98-2.34-10.73-.26-1.3-.48-2.39-.65-3.27-.14-.77-.2-1.21-.17-1.21.03-.01.16.41.37 1.17.22.87.49 1.95.81 3.23.66 2.73 1.55 6.51 2.49 10.7.94 4.18 1.77 7.98 2.34 10.73.26 1.3.48 2.39.65 3.26.15.77.21 1.2.17 1.21z" fill="#263238"/><path d="M421.92 182.3c0 .14-15.07-.15-33.65-.65-18.59-.5-33.64-1.02-33.64-1.17 0-.14 15.07.15 33.65.65s33.64 1.02 33.64 1.17zM416.76 165.17c0 .02-.2.05-.58.09-.44.04-.99.09-1.67.15-1.45.12-3.56.26-6.17.42-5.21.31-12.41.65-20.37.87-7.96.21-15.17.26-20.39.23-2.61-.02-4.72-.04-6.18-.08-.68-.02-1.24-.04-1.68-.06-.38-.02-.59-.04-.59-.06 0-.02.2-.03.59-.05.44-.01 1-.02 1.68-.04 1.53-.02 3.62-.05 6.18-.08 5.22-.06 12.42-.17 20.38-.38 7.95-.22 15.15-.5 20.36-.72 2.55-.1 4.64-.19 6.17-.25.68-.02 1.24-.04 1.68-.05.39-.01.59-.01.59.01zM344.75 165.94c-.11-.09 3.33-4.24 7.67-9.25 4.35-5.02 7.96-9 8.07-8.91.11.09-3.33 4.23-7.67 9.25-4.35 5.01-7.96 9-8.07 8.91zM401.15 201.04c-.01.14-10.28-.76-22.93-2.02s-22.9-2.4-22.88-2.54c.01-.14 10.28.76 22.93 2.03 12.65 1.25 22.89 2.39 22.88 2.53zM401.66 214.88c0 .14-9.97.04-22.26-.24-12.29-.28-22.25-.62-22.25-.76s9.97-.04 22.26.24c12.29.28 22.25.62 22.25.76z" fill="#fafafa"/><path d="M371.45 224.64c-.02 0-.03-.25-.04-.74 0-.48 0-1.2.02-2.12.04-1.84.13-4.49.35-7.77.11-1.64.26-3.43.46-5.36.2-1.92.49-3.97.76-6.12.54-4.3 1-9.05 1.5-14.04.95-9.98 2.14-19 3.65-25.41a91.24 91.24 0 012.03-7.51c.29-.83.51-1.5.69-2 .16-.46.26-.69.27-.69s-.04.25-.17.72c-.15.51-.35 1.19-.59 2.03-.5 1.76-1.19 4.33-1.87 7.53-1.41 6.41-2.54 15.41-3.49 25.38-.49 4.98-.97 9.74-1.54 14.04-.28 2.16-.59 4.19-.81 6.11-.22 1.91-.38 3.7-.52 5.34-.27 3.27-.42 5.92-.52 7.75l-.12 2.11c-.02.5-.04.75-.06.75z" fill="#263238"/><path fill="#fafafa" d="M387.68 180.48h10.88v2.83h-10.88z"/><path d="M400.3 189.09c-4.89 7.37-4.57 17.81.76 24.86.68-4.68 1.35-9.36 2.03-14.05" opacity=".3"/></g><g><path d="M393.97 119.23c1.29 2.63.65 5.78-.27 8.56-.92 2.78-2.12 5.59-1.88 8.51.22 2.71 1.68 5.2 1.94 7.91.45 4.56-2.48 8.7-3.67 13.13-1.53 5.69 0 12.11 3.95 16.49.4.45.9.91 1.5.89.69-.01 1.23-.68 1.37-1.36.15-.68.01-1.38-.05-2.07-.55-6.54 5.74-11.78 6.66-18.28.6-4.22-1.15-8.41-1.41-12.67-.33-5.36 1.7-10.56 2.35-15.89.22-1.82.28-3.71-.31-5.45-.59-1.74-1.91-3.32-3.69-3.78-1.77-.47-3.93.45-4.47 2.21" fill="#263238"/></g></g><g><path d="M272.91 159.29l-21.17 13.4 15.04-41.05 4.05-8.09c.54-.68 1.2-1.46 2.01-2.35.7-.76 1.53-1.39 2.44-1.87 1.11-.59 2.61-1.3 3.56-1.44 1.17-.17 1.52-1.67.58-2.18-.95-.5-4.18-.11-7.38 1.96-3.19 2.07-1.35-3.63-.72-5.72.63-2.09 2.29-8.65 1.8-9.35-.72-1.03-1.95-.46-2.54 1.65-.59 2.13-2.78 8.28-3.87 7.89-1.07-.38 2.3-10.97 2.3-10.97s1.09-2.15-.15-2.64c-2.24-.88-4.99 10.64-5.23 11.74-.16.77-1.36.39-1.14-.43.23-.84 3.61-10.49 1.34-11.41-1.74-.71-2.35 9.46-4.17 11.07-1.81 1.61 1.25-7.66-.45-8.27-.63-.23-1.13-.31-2.12 5.27-.48 2.71-1.02 12.21-1.02 12.21l-4.93 9.72.12.1-20.18 42.62c-3.87 10.22 2.45 18.48 8.78 22.22 5.9 3.47 13.26 3.27 18.96-.53l24.45-16.33-10.36-17.22z" fill="#eb996e"/><path d="M286.09 427.81l1.08 18.52s-18.46 7.32-18.6 10.76l36-.18-.51-29.55-17.97.45z" fill="#455a64"/><path d="M298.26 444.52c.7.17 1.2.95 1.05 1.65-.15.71-.93 1.22-1.63 1.06-.7-.16-1.33-1.07-1.11-1.76.22-.69 1.17-1.24 1.82-.91M304.57 456.91l-.03-2.96-34.59 1.28s-1.59.73-1.38 1.86l36-.18z" fill="#fff" opacity=".6"/><path d="M286.58 446.16c.01.18.89.24 1.77.78.89.52 1.35 1.27 1.51 1.2.16-.04-.12-1.08-1.2-1.72-1.06-.65-2.12-.42-2.08-.26zM282.84 447.81c-.04.17.73.45 1.34 1.18.63.71.8 1.51.98 1.5.17.02.26-1.01-.52-1.9-.76-.9-1.8-.95-1.8-.78zM280.8 452.37c.16.03.39-.85-.09-1.8-.47-.96-1.3-1.32-1.37-1.17-.1.15.45.65.83 1.44.39.78.45 1.52.63 1.53zM286.8 441.91c.08.16.88-.1 1.87-.06 1 .03 1.78.34 1.86.19.1-.13-.67-.76-1.84-.8-1.16-.04-1.98.54-1.89.67z" fill="#263238"/><g><path d="M286.65 438.17c0 .07.7.17 1.8-.05a8 8 0 001.87-.62c.34-.16.68-.35 1.02-.57.16-.11.36-.22.53-.44.19-.19.29-.66.06-.94-.19-.27-.52-.38-.78-.38-.27 0-.48.06-.67.11-.4.11-.77.25-1.11.41-.68.33-1.23.74-1.64 1.13-.82.79-1.09 1.45-1.03 1.49.08.06.47-.5 1.31-1.16.42-.33.95-.67 1.59-.94.32-.14.66-.25 1.03-.34.38-.11.7-.12.8.05.04.06.04.09-.03.2-.08.1-.23.21-.39.32-.31.21-.63.4-.94.57-.62.33-1.22.55-1.73.71-1.01.29-1.69.36-1.69.45z" fill="#263238"/></g><g><path d="M286.89 438.42c.06.03.4-.61.44-1.75a5.876 5.876 0 00-.77-3.05c-.22-.35-.49-.82-1.17-.88-.36-.01-.65.28-.74.52-.11.25-.13.46-.17.66-.06.42-.04.83.03 1.21.13.76.46 1.39.81 1.84.72.92 1.46 1.11 1.48 1.05.06-.09-.56-.42-1.12-1.3-.28-.44-.52-1.01-.61-1.68-.04-.33-.05-.69.01-1.04.05-.38.18-.7.33-.66.18-.01.49.27.64.58.19.32.35.65.47.97.24.65.35 1.27.39 1.79.06 1.05-.12 1.72-.02 1.74z" fill="#263238"/></g><g><path d="M348.38 427.54l1.41 18.5s-18.33 7.65-18.4 11.09l35.97-1.45-2.9-28.83-16.08.69z" fill="#455a64"/><path d="M360.85 444.04c.7.16 1.22.93 1.08 1.64-.13.71-.9 1.24-1.61 1.09-.71-.15-1.35-1.05-1.14-1.74.21-.69 1.15-1.26 1.8-.95M367.36 455.69l-.22-2.91-34.4 2.48s-1.57.76-1.35 1.88l35.97-1.45z" fill="#fff" opacity=".6"/><path d="M349.2 445.88c.01.18.89.22 1.78.75.9.51 1.38 1.25 1.54 1.17.16-.04-.14-1.08-1.23-1.7-1.08-.63-2.14-.38-2.09-.22zM345.49 447.6c-.03.17.74.44 1.37 1.16.65.7.83 1.5 1.01 1.48.17.02.25-1.01-.55-1.89-.8-.89-1.83-.92-1.83-.75zM343.53 452.2c.16.03.37-.86-.12-1.8-.48-.95-1.33-1.29-1.4-1.14-.09.15.46.64.85 1.42.41.77.49 1.51.67 1.52zM349.34 441.63c.08.16.88-.12 1.87-.09 1 .01 1.78.31 1.87.15.1-.13-.68-.75-1.86-.77-1.17-.02-1.97.58-1.88.71z" fill="#263238"/><g><path d="M349.13 437.89c0 .07.7.15 1.8-.08a8.147 8.147 0 002.87-1.24c.16-.11.35-.23.53-.45.19-.19.28-.66.04-.94a.959.959 0 00-.79-.37c-.27 0-.48.06-.67.12-.4.11-.77.26-1.1.43-.67.34-1.22.76-1.62 1.16-.8.81-1.06 1.47-1 1.51.08.05.47-.51 1.29-1.18.41-.33.94-.68 1.57-.97.32-.14.66-.27 1.02-.36.38-.12.7-.13.81.03.04.06.04.09-.03.2-.08.11-.23.21-.39.33-.31.22-.62.41-.93.58-.61.34-1.21.57-1.71.74-1.02.32-1.7.4-1.69.49z" fill="#263238"/></g><g><path d="M349.37 438.14c.06.02.39-.62.4-1.76.01-.57-.08-1.25-.33-1.96-.13-.36-.29-.72-.5-1.08-.23-.35-.5-.81-1.19-.86-.36 0-.64.29-.73.53-.11.25-.12.46-.16.67-.05.42-.02.83.05 1.21.14.76.48 1.39.84 1.83.74.9 1.48 1.08 1.49 1.02.06-.09-.57-.4-1.14-1.28-.28-.43-.54-1-.64-1.67-.05-.33-.06-.69-.01-1.04.04-.38.17-.7.32-.67.18-.01.49.27.65.56.2.32.36.64.49.96.25.64.37 1.26.42 1.78.1 1.07-.06 1.73.04 1.76z" fill="#263238"/></g></g><g><path d="M318.75 114.12l-3.53 40.95-20.51-1.64c-.13-2.39.04-11.66.04-11.66s-8.53-1.33-8.64-9.86c-.05-4.14.54-12.71 1.16-20.42.69-8.56 8.09-14.99 16.66-14.49 8.89.52 15.58 8.27 14.82 17.12z" fill="#eb996e"/><path d="M294.74 141.65s5.39.44 11.12-3.16c0 0-2.63 6.14-11.14 5.37l.02-2.21z" fill="#d1734a"/><path d="M289.3 118.54c.14.17 1.1-.47 2.41-.4 1.31.05 2.24.77 2.39.62.07-.07-.07-.36-.47-.69-.4-.32-1.08-.65-1.9-.69-.82-.04-1.52.23-1.93.52-.42.28-.57.56-.5.64zM301.3 118.72c.16.15 1.06-.56 2.37-.59 1.31-.05 2.29.59 2.43.43.07-.07-.09-.36-.52-.65-.42-.29-1.13-.57-1.95-.54-.82.03-1.49.35-1.88.67-.39.32-.52.61-.45.68zM297.23 126.65c.01-.07-.81-.22-2.13-.38-.33-.03-.65-.1-.71-.33-.08-.24.06-.6.22-.99.31-.81.64-1.66.99-2.55 1.38-3.63 2.37-6.61 2.22-6.67-.15-.05-1.38 2.84-2.75 6.47l-.95 2.56c-.13.38-.34.81-.17 1.31.09.25.34.43.55.49.21.07.4.07.57.08 1.33.07 2.15.08 2.16.01zM301.09 127.55c-.21-.01-.22 1.41-1.43 2.42-1.22 1.01-2.73.85-2.74 1.05-.02.09.34.28.98.29.63.02 1.55-.18 2.29-.8.74-.62 1.06-1.45 1.11-2.03.04-.58-.12-.94-.21-.93zM301.65 112.65c.13.36 1.44.19 2.98.37 1.54.15 2.78.6 2.99.29.09-.15-.13-.49-.63-.83-.5-.34-1.29-.67-2.21-.77-.92-.1-1.77.05-2.33.27-.57.23-.85.51-.8.67z" fill="#263238"/><g><path d="M289.59 113.25c.26.34 1.3-.01 2.55-.03 1.25-.06 2.3.23 2.55-.13.11-.17-.06-.52-.52-.84-.45-.32-1.22-.59-2.07-.56-.86.03-1.6.34-2.03.69-.45.35-.6.71-.48.87z" fill="#263238"/></g><g><path d="M309.49 104.77c.02.01.03.02.05.04a6.67 6.67 0 012.51 4.51c.33 2.43.27 4.91.63 7.34.36 2.43 1.2 4.9 3 6.58.74.69 2.05 1.16 2.65.36.24-.31.27-.73.3-1.11.45-5.88 2.06-11.09 2.05-17.23 0-1.67-.79-3.24-2.15-4.22-1.29-.92-2.86-1.88-4.29-1.2-1.43.68-3.28 3.35-4.39 4.49" fill="#263238"/></g><g><path d="M315.87 117.98c.15-.06 5.86-1.73 5.68 4.1-.19 5.83-6 4.44-6.01 4.27 0-.16.33-8.37.33-8.37z" fill="#eb996e"/><path d="M317.39 124.2c.03-.02.1.07.27.16.17.08.45.14.76.04.62-.21 1.17-1.17 1.24-2.22a3.28 3.28 0 00-.24-1.46c-.16-.43-.43-.74-.74-.8-.31-.08-.53.1-.61.26-.08.16-.05.28-.08.29-.02.01-.12-.1-.07-.34.03-.11.1-.25.24-.36.14-.11.35-.16.57-.13.45.05.84.47 1.03.94.22.47.34 1.04.3 1.64-.07 1.17-.71 2.25-1.56 2.47-.41.09-.75-.04-.92-.18-.18-.16-.21-.3-.19-.31z" fill="#d1734a"/></g><g><path d="M314.45 100.73c1.44-2.33-2.5-5.68-5.38-6.59-2.88-.91-6.67.5-9.54 1.45-1.81.6-3.61 1.44-5.51 1.36-1.28-.05-2.49-.52-3.7-.94-1.2-.43-2.46-.82-3.73-.74-1.27.09-2.59.76-3.07 1.95s.21 2.8 1.47 2.98c-1.61-.89-3.95.28-4.21 2.1-.26 1.82 1.65 3.6 3.45 3.21-.83-.63-2.1.41-2 1.45s1.04 1.79 1.99 2.21c2.43 1.07 5.27.73 7.79-.12 2.52-.85 4.85-2.17 7.35-3.08 2.5-.91 6.68-2.54 9.18-1.66 1.84.65 3.13 2.87 4.17 2.38 1.01-.47 1.64-1.53 1.85-2.62.2-1.12.04-2.24-.11-3.34" fill="#263238"/></g><g><path d="M284.29 100.02c.05-.03.3.43.93 1.11.63.67 1.68 1.55 3.24 2.09 1.53.53 3.6.71 5.56-.22 1.98-.89 3.68-2.67 5.64-4.34 1.95-1.69 4.25-2.94 6.56-3.15 2.29-.22 4.41.62 5.58 1.93 1.18 1.32 1.41 2.83 1.32 3.77-.04.48-.16.84-.25 1.07-.11.23-.17.34-.19.33-.05-.02.19-.5.22-1.42.02-.9-.27-2.3-1.4-3.48-1.11-1.17-3.09-1.91-5.23-1.68-2.15.22-4.33 1.41-6.24 3.06-1.92 1.64-3.67 3.46-5.79 4.39-2.11.97-4.34.73-5.92.12-1.62-.62-2.68-1.59-3.27-2.32-.29-.37-.5-.68-.61-.91-.11-.22-.16-.34-.15-.35z" fill="#455a64"/></g><g><path d="M317.36 117.73c-.02.02-.25-.16-.47-.62-.22-.46-.4-1.21-.29-2.11.13-1.88 1.79-3.9 2-6.49.13-1.28-.1-2.53-.65-3.48-.54-.95-1.4-1.56-2.17-1.87a3.73 3.73 0 00-1.95-.26c-.47.07-.72.18-.74.14-.01-.02.21-.21.7-.36.48-.14 1.26-.2 2.14.1.86.29 1.84.93 2.48 1.98.64 1.05.9 2.43.76 3.81-.12 1.38-.62 2.64-1.12 3.68-.5 1.05-.92 1.98-1.05 2.82-.31 1.69.44 2.63.36 2.66z" fill="#455a64"/></g></g><g><path fill="#1c2f5c" d="M334.95 246.34l33.52 195.02-26.43 3.22-37.53-173.97 3.13 171.46h-25.31l-10.01-197.44z"/></g><g><path d="M274.8 184.27l-9.45 5.87-10.73-20.6c4.72-3.4 19.81-13.12 23.64-15.62.96-.63 1.97-1.18 3.03-1.62 1.84-.76 4.07-1.42 7.94-1.95 2.42-.33 4.26-.49 5.46-.64 7.06 2.17 14.11 2.17 21.17-.01.83.04 1.63.1 2.41.19 7.05 1.02 13.8 5.91 17.97 10.47l16.68 15.01-16.36 19.56-5.06-5.99 1.19 27.63 4.83 34.36h-65.35s-.14-8.11.45-19.37c.84-15.83 1.67-40.47 1.67-40.47" fill="#e5a44e"/><path d="M274.16 201.63c.1 0 .23-1.73.42-4.54.19-2.81.44-6.68.79-10.95.35-4.27.73-8.14 1.01-10.94.28-2.8.43-4.53.33-4.55-.1-.01-.43 1.7-.84 4.49s-.87 6.65-1.22 10.94c-.35 4.28-.53 8.17-.58 10.99-.06 2.82-.01 4.56.09 4.56zM330.32 174.38c-.1 0-.18 1.2-.17 3.13.01 1.93.12 4.6.34 7.54.22 2.94.51 5.59.79 7.51.27 1.91.53 3.08.63 3.07.1-.01.03-1.21-.11-3.13-.17-2.21-.36-4.73-.57-7.51-.2-2.78-.39-5.3-.55-7.51-.15-1.91-.25-3.1-.36-3.1z" fill="#263238"/><g><path fill="#fafafa" d="M314.03 177.65h10.88v2.83h-10.88zM335.16 159.59c-.02.07-.9-.39-2.6-.37-1.69 0-4.14.69-6.64 2.43-1.27.84-2.57 1.89-4.04 2.96-1.45 1.08-3.16 2.04-5.01 2.89-1.88.81-3.94 1.43-6.13 1.84-2.19.38-4.5.5-6.86.36-2.36-.12-4.63-.6-6.75-1.27-1.07-.31-2.07-.75-3.06-1.15-.95-.49-1.91-.91-2.77-1.48-3.55-2.1-5.91-5-8.4-6.73-2.45-1.81-4.99-2.32-6.66-2.17-1.7.16-2.5.78-2.52.71 0-.01.04-.04.14-.11.1-.06.24-.16.45-.25.4-.21 1.05-.44 1.91-.55 1.71-.22 4.36.25 6.89 2.07 2.57 1.74 4.95 4.6 8.43 6.62.84.55 1.79.96 2.72 1.44.97.39 1.96.82 3.01 1.12 2.08.64 4.31 1.11 6.63 1.23 2.31.14 4.58.02 6.73-.34 2.15-.4 4.17-1 6.03-1.78 1.83-.83 3.5-1.75 4.95-2.8 1.46-1.04 2.79-2.08 4.08-2.91 2.57-1.72 5.11-2.38 6.85-2.32.87.01 1.53.16 1.96.31.22.06.38.14.48.18.13.03.18.06.18.07zM274.9 180.62c-.08.06-.72-.85-2.04-2.04-.65-.6-1.5-1.22-2.5-1.83-1.01-.58-2.17-1.13-3.45-1.55-1.29-.4-2.55-.62-3.71-.73-1.16-.08-2.22-.06-3.1.05-1.76.2-2.81.58-2.84.49-.01-.03.24-.15.71-.32.47-.19 1.18-.38 2.07-.53.89-.16 1.98-.22 3.18-.17 1.2.08 2.51.3 3.84.71 1.32.43 2.52 1.01 3.54 1.63 1.01.65 1.86 1.32 2.5 1.97.34.3.59.63.83.9s.42.52.56.73c.3.43.44.66.41.69zM330.1 190.25c.01.02-.17.12-.5.3-.39.21-.89.46-1.49.78-.33.17-.69.35-1.09.55-.4.19-.85.37-1.33.57-.96.39-2.04.9-3.3 1.28-.62.21-1.28.43-1.95.65-.68.22-1.41.38-2.15.58-1.48.43-3.11.7-4.82 1.03-3.43.53-7.25.83-11.26.69-4.01-.18-7.79-.79-11.17-1.59-1.67-.46-3.28-.86-4.72-1.41-.73-.26-1.44-.48-2.1-.75-.66-.28-1.29-.55-1.89-.81-1.22-.48-2.25-1.07-3.18-1.54-.46-.24-.9-.45-1.28-.68-.37-.23-.72-.44-1.04-.64-.58-.37-1.05-.66-1.43-.9-.32-.21-.49-.33-.48-.34.01-.02.19.07.53.25.39.21.87.48 1.47.81.32.18.68.38 1.06.6.39.21.83.41 1.3.63.94.44 1.98 1 3.2 1.46.6.25 1.24.5 1.89.77.66.26 1.37.47 2.1.72 1.44.53 3.03.91 4.69 1.35 3.35.77 7.1 1.35 11.08 1.54 3.97.14 7.76-.15 11.16-.64 1.69-.31 3.31-.56 4.79-.97.74-.19 1.47-.34 2.15-.55.68-.21 1.33-.42 1.95-.62 1.25-.36 2.33-.84 3.3-1.2.48-.19.94-.35 1.34-.53.4-.18.76-.35 1.1-.51l1.53-.69c.34-.14.53-.21.54-.19zM347.97 173.42c-.02.1-1.16-.3-3.05-.25-1.87.03-4.46.65-6.95 2.09-2.49 1.45-4.43 3.24-5.83 4.52-1.39 1.3-2.26 2.11-2.31 2.05-.05-.05.72-.95 2.05-2.32 1.34-1.36 3.27-3.22 5.83-4.71 2.56-1.49 5.27-2.08 7.21-2.01.97.02 1.75.16 2.27.31.51.16.79.29.78.32zM331.42 211.32c.01.02-.18.11-.54.28-.41.18-.93.42-1.58.7-.68.31-1.53.67-2.54 1.02-1 .36-2.13.81-3.43 1.18-.64.2-1.32.4-2.02.61-.7.21-1.45.37-2.22.56-1.53.41-3.19.7-4.94 1.03-3.51.57-7.41.97-11.51 1.02-4.11.02-8.01-.32-11.53-.83-1.75-.3-3.42-.56-4.96-.95-.77-.18-1.52-.33-2.23-.53-.7-.2-1.38-.39-2.03-.58-1.3-.34-2.44-.78-3.45-1.12-1.01-.33-1.87-.68-2.56-.98-.65-.28-1.17-.5-1.59-.68-.36-.16-.55-.25-.54-.27.01-.02.21.04.58.17.42.15.96.35 1.62.59.7.27 1.56.58 2.58.89 1.02.31 2.15.72 3.45 1.04.65.17 1.32.35 2.03.54.71.19 1.45.32 2.22.49 1.53.37 3.19.61 4.93.9 3.5.48 7.38.8 11.46.79 4.08-.05 7.95-.44 11.44-.98 1.74-.32 3.4-.59 4.92-.98.76-.19 1.51-.33 2.21-.53s1.37-.39 2.02-.58c1.29-.34 2.43-.77 3.44-1.1 1.01-.32 1.87-.65 2.56-.93l1.61-.61c.39-.12.59-.18.6-.16zM335.18 237.56c0 .02-.22 0-.64-.04-.47-.06-1.07-.13-1.8-.23-1.56-.22-3.83-.49-6.64-.78-2.81-.3-6.16-.55-9.88-.74-3.73-.16-7.83-.24-12.13-.15-4.3.1-8.4.36-12.11.69-3.71.35-7.05.75-9.84 1.17-2.79.41-5.05.79-6.6 1.07-.73.13-1.33.23-1.79.31-.41.06-.63.09-.63.07 0-.02.21-.08.61-.18.46-.1 1.05-.24 1.77-.4 1.54-.35 3.79-.78 6.58-1.24 2.79-.47 6.13-.91 9.85-1.29 3.72-.35 7.83-.63 12.15-.73 4.32-.09 8.43.01 12.16.2 3.73.21 7.09.51 9.9.85 2.81.34 5.07.67 6.63.95.73.13 1.33.24 1.79.32.41.09.62.14.62.15z"/></g></g><g><path d="M357.83 203.42s-6.1-10.5-3.33-24.97l-2.41-2.16-13.47 16.18 23.52 16.96" fill="#eb996e"/></g></g><g><path d="M105.41 100.83c-8.69-.24-17.02 6.57-18.51 15.13-.77 4.44.06 9.27-1.99 13.28-2.71 5.32-9.82 7.77-11.41 13.52-1.34 4.81 1.82 10.03.47 14.84-.98 3.47-4.09 5.92-5.6 9.2-1.46 3.17-1.25 7.09.69 9.99 1.94 2.9 5.57 4.62 9.02 4.12 2.19-.32 4.18-1.43 6.28-2.12 4.55-1.49 9.49-.94 14.23-.28 4.74.66 9.61 1.42 14.27.33 4.66-1.09 9.13-4.55 9.82-9.29.45-3.08-.71-6.13-1.65-9.09-6.21-19.55-3.35-40.87-7.75-60.9" fill="#263238"/><path d="M88.05 118.84c-1.25-1.5-2.55-2.99-4.17-4.08-1.62-1.09-3.6-1.76-5.53-1.44-1.93.31-3.72 1.76-4.09 3.67-.36 1.92 1.05 4.09 3 4.22-1.5-.75-3.48.48-3.77 2.13-.29 1.65.85 3.33 2.38 4.01 1.53.68 3.34.49 4.89-.13 1.56-.62 2.91-1.64 4.25-2.65 1.51-1.14 3.03-2.28 4.54-3.43" fill="#263238"/><path d="M72.37 175.66s-.3-.05-.79-.35c-.47-.31-1.11-.93-1.51-1.95-.4-1-.58-2.41-.09-3.89.47-1.48 1.51-2.94 2.81-4.34 1.28-1.41 2.86-2.82 3.98-4.72 1.19-1.88 1.27-4.35.75-6.78-.45-2.45-1.45-4.97-1.43-7.81.03-1.4.4-2.87 1.23-4.09.82-1.22 1.97-2.19 3.21-2.98 2.5-1.59 5.25-2.46 7.46-4.01 1.11-.76 2.07-1.69 2.72-2.79.66-1.1 1.04-2.33 1.25-3.55.42-2.45.31-4.86.46-7.11.13-2.25.48-4.34 1.06-6.18 1.14-3.71 3.4-6.14 5.19-7.3.9-.6 1.67-.92 2.21-1.1.26-.1.48-.14.62-.18.14-.03.21-.05.22-.04.03.07-1.19.26-2.93 1.48-1.72 1.19-3.88 3.59-4.95 7.24-.56 1.8-.87 3.87-.99 6.09-.13 2.22 0 4.64-.42 7.17-.21 1.26-.6 2.55-1.3 3.72-.69 1.17-1.71 2.16-2.86 2.96-2.29 1.62-5.06 2.49-7.47 4.03-1.2.77-2.3 1.69-3.06 2.83-.77 1.13-1.12 2.48-1.15 3.81-.03 2.69.94 5.22 1.39 7.71.24 1.25.37 2.51.25 3.73a7.81 7.81 0 01-1.1 3.36c-1.19 1.97-2.8 3.37-4.08 4.75-1.3 1.37-2.33 2.77-2.81 4.18-.49 1.4-.35 2.75 0 3.73.36.99.94 1.6 1.38 1.93.48.33.77.42.75.45zM86.39 125.04c-.14-.07.81-1.67.88-3.87.12-2.2-.69-3.87-.54-3.94.1-.09 1.18 1.59 1.06 3.96-.09 2.37-1.31 3.95-1.4 3.85z" fill="#455a64"/><path d="M91.6 157.48c-.01.01-.14-.12-.37-.39a4.94 4.94 0 01-.75-1.33c-.52-1.24-.66-3.28.08-5.56.68-2.33 2.47-4.6 4.24-7.13.87-1.27 1.74-2.66 2.28-4.23.55-1.57.79-3.3.83-5.07.06-3.56-.63-6.94-.83-10.06-.24-3.11.03-6.02.95-8.24.88-2.23 2.23-3.72 3.3-4.5.54-.39 1-.64 1.32-.78.32-.13.49-.2.5-.18.03.05-.68.3-1.69 1.12-1.01.81-2.27 2.29-3.08 4.48-.86 2.17-1.08 4.99-.82 8.07.22 3.08.93 6.47.87 10.11-.03 1.81-.28 3.6-.87 5.23-.58 1.64-1.47 3.05-2.37 4.33-1.81 2.54-3.58 4.73-4.28 6.97-.75 2.2-.68 4.17-.23 5.38.41 1.23.98 1.74.92 1.78z" fill="#455a64"/><path d="M65.19 159.55c.02-.01.1.17.29.46.19.29.54.7 1.14 1.02.58.32 1.4.55 2.34.48.95-.05 1.98-.5 2.78-1.39.8-.88 1.36-2.11 1.56-3.51.22-1.39.03-2.92-.36-4.47-.38-1.56-.98-3.15-1.44-4.88-.45-1.71-.79-3.6-.41-5.51.35-1.91 1.38-3.57 2.57-4.9 1.2-1.34 2.55-2.42 3.87-3.37 1.32-.96 2.62-1.78 3.78-2.63 1.16-.85 2.18-1.7 3.04-2.56 1.73-1.71 2.73-3.46 3.08-4.77.38-1.3.33-2.08.39-2.07 0 0 .13.77-.2 2.13-.3 1.36-1.28 3.2-3.01 4.97-.86.89-1.89 1.78-3.05 2.65-1.16.87-2.46 1.71-3.75 2.67-1.3.96-2.62 2.02-3.77 3.32-1.14 1.29-2.11 2.87-2.44 4.66-.36 1.79-.04 3.6.39 5.28.44 1.69 1.03 3.3 1.41 4.89.38 1.59.57 3.18.32 4.65-.23 1.46-.84 2.77-1.71 3.69-.87.93-2.02 1.41-3.03 1.43-1.01.05-1.86-.23-2.46-.59a2.96 2.96 0 01-1.12-1.14c-.1-.15-.13-.3-.17-.38-.03-.08-.05-.13-.04-.13zM128.54 110.37c.76 5.16 2.16 10.27 4.39 13.46 1.79 2.57 5.28 4.05 5.81 7.14.45 2.6-1.11 5.19-.86 7.82.4 4.14 4.96 6.66 6.26 10.62 1.08 3.29-.41 7.01-2.92 9.4-2.51 2.38-5.87 3.65-9.21 4.55-4.77 1.28-10.56 1.68-13.98-1.89-2.35-2.44-2.87-6.07-3.17-9.44-.8-9.03-.76-18.1-.73-27.16" fill="#263238"/><path d="M97.35 119.05c-1.08-8.65 5.17-16.56 13.96-17.4 8.28-.79 15.64 5.38 16.88 13.6 1.09 7.21 2.02 14.49 1.99 17.13-.1 7.97-4.77 11.07-6.66 12.01-.43.21-1.62.45-2.1.52-.03 0-.05.03-.04.06l1.77 9.15c.8 6-2.54 11.34-8.53 12.22-6.01.88-10.7-3.73-11.62-9.73l-5.65-37.56z" fill="#ffbe9d"/><path d="M126.59 118.74c-.13.19-1.18-.38-2.53-.18-1.35.18-2.24 1.02-2.41.88-.08-.06.03-.38.42-.76.38-.37 1.06-.78 1.9-.9.84-.12 1.59.09 2.05.35.46.25.64.53.57.61zM114.43 121.12c-.13.19-1.19-.38-2.53-.18-1.35.18-2.24 1.02-2.41.88-.08-.06.03-.38.42-.76.38-.37 1.06-.78 1.9-.9.84-.12 1.59.09 2.05.35.45.25.64.53.57.61zM119.48 128.9c-.02-.08.8-.34 2.13-.71.34-.09.66-.2.68-.45.04-.26-.15-.61-.38-.99-.45-.79-.91-1.61-1.4-2.48-1.96-3.53-3.43-6.45-3.29-6.53.14-.08 1.85 2.72 3.81 6.25.47.87.93 1.7 1.36 2.5.19.37.48.78.38 1.33-.06.27-.28.49-.49.59-.21.1-.4.13-.57.17-1.37.27-2.21.4-2.23.32z" fill="#263238"/><path d="M121.37 144.93s-5.15 1.19-12.24-1.78c0 0 3.06 6.59 12.71 4.25l-.47-2.47zM119.38 132.23c-.58-.57-1.48-.8-2.31-.59-.58.15-1.13.52-1.41 1.05-.29.53-.26 1.22.13 1.62.44.46 1.22.47 1.83.19.62-.28 1.11-.78 1.57-1.28.13-.14.26-.28.33-.46.07-.17.06-.39-.08-.5" fill="#eb996e"/><path d="M115.64 130.41c.22-.04.43 1.42 1.84 2.28 1.4.86 2.94.47 2.98.67.03.09-.31.34-.96.45-.64.12-1.62.05-2.48-.48-.86-.53-1.31-1.33-1.45-1.92-.14-.61-.03-.99.07-1zM113.74 117.27c-.08.39-1.45.41-3.01.83-1.56.39-2.77 1.04-3.03.74-.12-.14.06-.52.52-.95.46-.43 1.23-.89 2.16-1.13.94-.24 1.83-.22 2.44-.07.61.15.95.39.92.58zM125.45 115.02c-.19.34-1.17.16-2.29.31-1.13.11-2.03.51-2.3.22-.12-.14-.01-.47.36-.82s1.01-.68 1.78-.77c.77-.09 1.48.09 1.91.35.45.25.63.55.54.71z" fill="#263238"/><g><path d="M124.24 119.88c-.12.65.34 1.29 1.02 1.43.68.14 1.33-.28 1.45-.93.12-.65-.34-1.29-1.02-1.43-.68-.15-1.33.27-1.45.93z" fill="#263238"/></g><g><path d="M111.9 122.18c-.12.65.34 1.29 1.02 1.43.68.14 1.33-.28 1.45-.93.12-.65-.34-1.29-1.02-1.43-.69-.14-1.33.28-1.45.93z" fill="#263238"/></g><g><path d="M98.22 156.91l30.32-5.88-.86 16.9s-13.48 4.19-13.97 4.44c-.49.26-9.33 0-9.33 0l-6.16-15.46z" fill="#ffbe9d"/></g><g><path d="M64.62 271.7c-.23.77-.47 1.68-.71 2.76a8.21 8.21 0 00-.12 2.84c.14 1.15.4 2.66.79 3.45.49.97-.46 2.04-1.34 1.59-.88-.45-2.3-3.1-2.42-6.61-.12-3.51-3.46.9-4.7 2.48-1.24 1.58-5.32 6.3-6.11 6.3-1.16 0-1.38-1.23-.1-2.79 1.29-1.57 4.79-6.48 3.92-7.09-.85-.61-7.08 7.54-7.08 7.54s-1.05 1.96-2.07 1.28c-1.85-1.22 5.4-9.4 6.11-10.16.49-.53-.43-1.23-.92-.64-.51.61-6.02 8.27-7.91 7.04-1.46-.94 5.9-6.78 6.16-9 .26-2.22-5.13 4.99-6.48 4.03-.5-.36-.83-.69 2.86-4.39 1.79-1.79 8.69-7.23 8.69-7.23l13.99-48.85h18.36L64.62 271.7z" fill="#ffbe9d"/></g><g><path d="M153.79 143.9s26.15-10.41 30.3-13.62c4.15-3.21 30.25-26.68 30.25-26.68l3.47-2.92c.43-.68.92-1.48 1.44-2.46.45-.84.75-1.75.89-2.69.18-1.14.35-2.67.18-3.53-.21-1.07 1-1.83 1.72-1.16.72.67 1.36 3.61.52 7.02-.84 3.41 3.57.09 5.2-1.1 1.63-1.18 6.84-4.6 7.6-4.39 1.11.31.99 1.56-.67 2.71-1.68 1.16-6.38 4.92-5.71 5.75.66.82 8.87-5.31 8.87-5.31s1.54-1.59 2.35-.66c1.45 1.68-7.77 7.56-8.66 8.1-.62.37.07 1.3.72.87.66-.45 8.05-6.31 9.54-4.6 1.14 1.31-7.53 4.9-8.39 6.97-.86 2.07 6.3-3.4 7.34-2.1.39.48.61.89-3.96 3.44-2.22 1.23-10.33 4.57-10.33 4.57l-.86.89-34.77 36.06-31.92 12.77-5.12-17.93z" fill="#ffbe9d"/></g><g><path d="M56.02 418.21l-5.12 23.15-9.33 17.15a2.43 2.43 0 001.12 3.37c.72.33 1.54.29 2.22-.1 4.34-2.51 20.27-11.82 20.55-13.53.32-1.99 7.02-24.06 7.02-24.06l-16.46-5.98z" fill="#e5a44e"/><path d="M42.69 461.88l23.15-15.19-.24.98c-.21.84-.7 1.59-1.41 2.1-1.88 1.36-7.17 5-19.21 12.03-.7.4-1.57.43-2.29.08zM62.93 438.1c-.67.26-1.08 1.08-.85 1.77.23.68 1.07 1.1 1.75.86.68-.25 1.19-1.22.89-1.88-.3-.65-1.31-1.09-1.91-.69" fill="#fff" opacity=".6"/><path d="M50.42 453.11c-.15.03-.37-1.3-1.58-2.29-1.18-1.02-2.53-1.01-2.53-1.16-.01-.06.33-.17.89-.11.55.05 1.31.32 1.97.87.66.55 1.05 1.26 1.2 1.79.16.54.11.89.05.9zM48.02 455.79c-.13.07-.69-.86-1.8-1.49-1.09-.66-2.18-.69-2.18-.84-.04-.13 1.19-.35 2.44.39 1.27.73 1.68 1.9 1.54 1.94zM54.44 449.9c-.13.08-.98-1.35-2.62-2.49-1.62-1.16-3.25-1.48-3.22-1.63-.01-.13 1.78-.03 3.52 1.21 1.76 1.22 2.45 2.87 2.32 2.91zM56.59 442.99c-.1.12-1.24-.72-2.88-1.19-1.63-.49-3.05-.39-3.07-.55-.04-.13 1.45-.48 3.21.05 1.77.51 2.84 1.6 2.74 1.69zM58.26 436.23c-.1.12-1.19-.97-2.96-1.32-1.76-.39-3.19.17-3.24.02-.03-.06.3-.28.9-.46.6-.18 1.5-.26 2.45-.07.95.2 1.73.64 2.21 1.04.49.42.69.75.64.79zM55.66 433.64c-.03-.01-.01-.33.18-.88s.55-1.33 1.25-2.11c.35-.37.75-.85 1.47-1 .36-.07.82.1 1.02.47.2.36.19.76.11 1.13-.38 1.46-1.98 2.56-3.68 2.37-1.7-.22-2.96-1.53-3.3-2.96-.06-.36-.06-.79.21-1.13.27-.35.78-.39 1.09-.25.66.27.99.77 1.32 1.16.64.83.96 1.62 1.13 2.17.17.55.19.88.16.88-.1.04-.3-1.27-1.58-2.83-.33-.37-.7-.82-1.18-.98-.23-.08-.46-.04-.6.13-.13.16-.16.47-.09.75.3 1.17 1.46 2.36 2.89 2.53 1.43.18 2.83-.8 3.15-1.97.07-.28.07-.59-.04-.79-.11-.2-.32-.3-.56-.27-.49.07-.91.48-1.26.82-1.38 1.48-1.6 2.81-1.69 2.76z" fill="#263238"/></g><g><path d="M128.2 426.74l-.7 18.54s18.61 6.94 18.81 10.38l-36-.07-.09-28.93 17.98.08z" fill="#e5a44e"/><path d="M116.37 443.7c-.7.19-1.18.97-1.02 1.68.16.7.95 1.2 1.65 1.03.7-.18 1.31-1.1 1.07-1.78-.24-.68-1.2-1.22-1.84-.88M110.31 455.59l.1-2.92 34.47 1.16s1.6.7 1.42 1.83l-35.99-.07z" fill="#fff" opacity=".6"/><path d="M128.08 445.1c-.01.18-.89.25-1.75.82-.88.54-1.33 1.3-1.49 1.23-.16-.03.1-1.08 1.16-1.75 1.06-.68 2.12-.46 2.08-.3zM131.85 446.67c.04.17-.72.47-1.32 1.21-.62.72-.77 1.53-.95 1.52-.17.03-.28-1 .48-1.91.76-.92 1.79-.99 1.79-.82zM133.99 451.19c-.16.04-.4-.84.05-1.8.45-.97 1.28-1.34 1.35-1.2.1.14-.44.66-.8 1.46-.37.78-.43 1.52-.6 1.54zM127.77 440.85c-.07.16-.88-.08-1.87-.02-1 .05-1.77.38-1.86.23-.1-.13.65-.78 1.83-.84 1.17-.07 1.99.5 1.9.63z" fill="#263238"/><g opacity=".3"><path d="M128.06 430.41l-.12 3.3-17.7-.19-.01-2.98z"/></g><g><path d="M127.85 437.11c0 .07-.69.18-1.8-.01-.55-.1-1.2-.28-1.88-.58-.34-.15-.69-.34-1.03-.55-.17-.11-.36-.21-.54-.42-.19-.18-.3-.65-.08-.94.18-.28.51-.4.77-.4.27-.01.48.05.68.09.4.1.78.23 1.12.39.69.31 1.25.71 1.66 1.09.83.78 1.12 1.43 1.06 1.47-.08.06-.49-.49-1.33-1.13a6.89 6.89 0 00-2.64-1.23c-.38-.1-.71-.1-.8.07-.04.06-.04.09.04.2.08.1.24.2.4.31.32.21.64.39.95.55.63.31 1.23.53 1.74.67 1 .28 1.68.33 1.68.42z" fill="#263238"/></g><g><path d="M127.62 437.36c-.06.03-.41-.6-.47-1.74-.03-.56.03-1.25.25-1.97.11-.36.26-.73.46-1.09.21-.36.47-.83 1.15-.91.36-.01.65.27.75.5.12.24.14.45.18.66.07.42.06.83 0 1.21-.11.77-.43 1.4-.77 1.86-.71.93-1.44 1.14-1.45 1.08-.06-.09.56-.43 1.09-1.32.27-.44.5-1.02.57-1.69.04-.33.03-.69-.03-1.04-.06-.38-.2-.69-.34-.65-.18 0-.48.28-.63.59a6.126 6.126 0 00-.8 2.78c-.05 1.05.13 1.71.04 1.73z" fill="#263238"/></g></g><g><path d="M93.07 223.18s-11.38 17.98-13.02 24.87c-1.47 6.17-26.37 140.25-31.52 168a5.672 5.672 0 003.95 6.47L75 429.29c3.18.96 6.5-1.01 7.19-4.25l27.78-129.89-8.14 128.7c-.25 3.88 2.9 7.12 6.78 7l22.06-.68c3.4-.1 6.16-2.77 6.37-6.17 1.92-30.99 10.54-171.98 8.81-176.41-1.95-4.97-7.06-22.26-7.06-22.26l-45.72-2.15z" fill="#1c2f5c"/><path d="M84.07 418.69c-.01.04-.5-.03-1.38-.17-.88-.14-2.15-.38-3.72-.7-3.13-.64-7.43-1.66-12.11-3.02-4.68-1.37-8.85-2.81-11.84-3.95-1.49-.57-2.69-1.05-3.51-1.4-.82-.35-1.27-.56-1.25-.6.01-.03.49.11 1.33.41.94.33 2.13.75 3.56 1.25 3.01 1.05 7.19 2.44 11.86 3.8 4.67 1.36 8.94 2.43 12.04 3.16 1.48.35 2.71.63 3.68.86.87.2 1.34.33 1.34.36z" fill="#455a64"/><path d="M56.15 410.47c-.09.1-1.06-.87-1.42-2.45-.38-1.58.05-2.88.18-2.83.15.03-.02 1.26.33 2.71.32 1.45 1.03 2.48.91 2.57zM58.92 405.69c.14.01.16 1.23-.27 2.66-.43 1.43-1.12 2.44-1.24 2.37-.13-.07.33-1.15.74-2.52.42-1.37.62-2.53.77-2.51zM129.58 412.47c.14-.02.43 1.03.64 2.34.21 1.32.27 2.41.13 2.43-.14.02-.43-1.03-.64-2.34-.21-1.32-.27-2.41-.13-2.43zM132.27 411.21c.14 0 .24 1.13.23 2.52-.02 1.39-.15 2.51-.3 2.51-.14 0-.24-1.13-.23-2.52.02-1.38.15-2.51.3-2.51zM119.86 229.45c.02 0 .02.24.01.71-.02.52-.04 1.19-.08 2.03-.07 1.76-.22 4.3-.45 7.44-.46 6.28-1.32 14.94-2.71 24.45-1.4 9.51-3.04 18.06-4.32 24.22-.64 3.08-1.18 5.57-1.58 7.28-.19.82-.35 1.47-.47 1.97-.11.45-.18.68-.2.68-.02 0 .02-.25.09-.7.09-.51.22-1.17.37-1.99.35-1.79.83-4.27 1.42-7.31 1.19-6.18 2.77-14.73 4.17-24.22a434.62 434.62 0 002.86-24.4c.26-3.09.47-5.61.62-7.42.07-.83.13-1.51.17-2.02.05-.48.09-.72.1-.72z" fill="#455a64"/><path d="M139.95 229.43c0 .02-.17.04-.5.06-.39.02-.87.04-1.45.07-1.26.05-3.07.1-5.32.14a417.337 417.337 0 01-35.1-.98c-2.24-.16-4.05-.31-5.3-.43l-1.44-.15c-.33-.04-.5-.07-.5-.09 0-.02.18-.02.51-.02.39.01.87.03 1.45.06 1.33.07 3.13.16 5.31.27 4.49.23 10.68.52 17.54.71 6.85.19 13.05.25 17.54.27 2.19.01 3.98.02 5.32.03.58.01 1.06.02 1.45.03.32-.01.49.01.49.03z" fill="#455a64"/><path d="M123.69 229.21c.04 0 .04.61.02 1.7-.04 1.18-.09 2.74-.15 4.63-.15 3.91-.39 9.3-.7 15.26-.16 2.98-.27 5.81-.47 8.41-.21 2.59-.76 4.94-1.75 6.68-.97 1.75-2.24 2.83-3.2 3.37-.48.28-.89.43-1.16.52-.28.08-.43.11-.43.09-.02-.05.58-.19 1.49-.78.9-.58 2.09-1.67 2.98-3.38.92-1.7 1.41-3.98 1.59-6.54.17-2.57.27-5.42.43-8.39.3-5.96.6-11.35.85-15.25.13-1.88.24-3.44.32-4.62.08-1.1.14-1.7.18-1.7zM97.97 240.31c.03 0 .05.41-.01 1.16-.05.74-.21 1.82-.56 3.11-.67 2.57-2.32 6.06-5.34 8.88-3.02 2.82-6.61 4.23-9.22 4.72-1.31.26-2.4.34-3.14.34-.75 0-1.16-.04-1.16-.07 0-.1 1.66-.03 4.22-.63 2.55-.58 6.01-2.01 8.94-4.74 2.93-2.74 4.59-6.1 5.34-8.6.79-2.52.83-4.18.93-4.17zM145.7 259.13c-.01.03-.29-.04-.79-.2-.5-.15-1.2-.45-2.03-.88-.83-.43-1.77-1.05-2.74-1.83-.95-.8-1.92-1.76-2.81-2.9a19.29 19.29 0 01-2.08-3.45c-.5-1.13-.86-2.2-1.06-3.11-.21-.91-.32-1.66-.34-2.19-.03-.52-.03-.81.01-.81.1-.01.18 1.14.68 2.91.24.88.63 1.91 1.14 3 .54 1.08 1.22 2.23 2.06 3.34.86 1.1 1.79 2.05 2.7 2.85.93.78 1.81 1.41 2.61 1.87 1.59.93 2.68 1.31 2.65 1.4zM105.66 243.58s0 .15-.04.45c-.04.32-.1.75-.17 1.31-.16 1.18-.39 2.87-.69 5.04-.6 4.37-1.55 10.69-2.78 18.49-2.46 15.59-6.2 37.08-11.06 60.67-4.87 23.6-9.92 44.82-13.83 60.11-1.95 7.65-3.58 13.82-4.76 18.08-.58 2.11-1.04 3.75-1.36 4.9-.16.54-.28.96-.37 1.27-.09.29-.14.43-.14.43s.02-.15.09-.44c.08-.31.18-.74.32-1.28.29-1.15.72-2.8 1.26-4.92 1.11-4.27 2.69-10.46 4.59-18.12 3.81-15.31 8.81-36.54 13.68-60.13 4.85-23.58 8.65-45.05 11.2-60.63 1.28-7.79 2.28-14.09 2.94-18.46.34-2.16.6-3.85.79-5.02.09-.55.16-.99.22-1.3.07-.3.11-.45.11-.45zM123.95 418.56c-.01 0 0-.14.01-.42.02-.3.05-.72.09-1.24.09-1.12.23-2.72.4-4.77.37-4.17.91-10.15 1.57-17.54 1.31-14.81 3.39-35.25 4.95-57.87.77-11.32 1.29-22.11 1.51-31.93.23-9.82.16-18.67-.03-26.1-.24-7.43-.57-13.43-.86-17.58-.15-2.05-.26-3.66-.35-4.77-.03-.53-.06-.94-.08-1.24-.01-.28-.02-.42-.01-.43.01 0 .03.14.06.42.03.3.07.71.13 1.24.1 1.12.25 2.72.44 4.77.35 4.14.75 10.15 1.03 17.58.23 7.43.35 16.29.14 26.12-.19 9.83-.7 20.64-1.47 31.96-1.56 22.64-3.69 43.07-5.1 57.87-.73 7.38-1.33 13.36-1.74 17.52-.21 2.05-.38 3.65-.5 4.76-.06.52-.11.93-.14 1.24-.02.27-.04.41-.05.41z" fill="#455a64"/><path d="M137.61 416.23c.02.14-7.91 1.13-17.7 2.21s-17.74 1.84-17.75 1.69c-.02-.14 7.91-1.13 17.7-2.21 9.79-1.07 17.74-1.83 17.75-1.69z" fill="#455a64"/></g><g><path d="M107.88 105.47c-2.98 3.49-3.85 8.65-2.17 12.92 1.13 2.88 3.34 5.52 3.15 8.61-.24 3.83-4.14 6.82-3.93 10.65.24 4.31 5.76 7.04 5.76 11.36.01 4.35-2.66 6.06-7.79 6.99-3.29.6-5.12-3.47-6.75-6.39-1.63-2.92-2.17-6.31-2.5-9.64a99.08 99.08 0 01-.26-16.61c.31-4.47.97-9.06 3.29-12.89 2.38-3.93 6.47-6.77 10.97-7.64" fill="#263238"/></g><g><path d="M129.75 113.47c-1.65 2.52-6.89.96-10.05-.77-3.33 2.21-7.96 1.25-10.26-2.13-1.81 2.3-5.48 1.54-6.82-1.05-1.34-2.6-.59-6.17 1.25-8.44 1.84-2.27 4.53-3.42 7.19-3.91 6.3-1.16 13.17 1.28 16.94 6.98 1.74 2.63 2.79 6.17 1.75 9.32" fill="#263238"/><path d="M129.8 112.98c-.09.06-.98-1.57-2.95-3.79-1.95-2.18-5.15-4.98-9.5-6.22-4.34-1.23-8.59-.45-11.19.86-2.67 1.31-3.69 2.97-3.78 2.86-.01-.01.05-.11.17-.29.14-.17.3-.46.61-.75.55-.64 1.5-1.43 2.84-2.15 2.64-1.43 7.01-2.31 11.5-1.04 2.22.64 4.18 1.7 5.79 2.87 1.6 1.19 2.88 2.46 3.84 3.61s1.64 2.16 2.07 2.88c.43.73.62 1.15.6 1.16z" fill="#455a64"/><path d="M114.27 113.99c-.09.02-.29-.89-.91-2.23-.61-1.32-1.73-3.1-3.59-4.34-1.86-1.23-3.97-1.47-5.4-1.26-1.45.2-2.25.72-2.29.63-.02-.03.16-.18.53-.39.37-.21.95-.45 1.7-.6 1.49-.32 3.76-.12 5.75 1.19 1.97 1.32 3.1 3.23 3.64 4.63.55 1.42.63 2.36.57 2.37z" fill="#455a64"/></g><g><path d="M98.22 156.91s-13.5 3.85-18.55 12.17c-5.05 8.32-20.65 66.91-20.65 66.91l17.86 2 14.86-39 3.67 12.19-2.34 11.99 45.72 2.15 3.16-52.55 48.88-23.74 5.5-5.7-14.2-15-5.41 5.06-49.04 17.95s1.83 14.48-11.39 16.58c-13.22 2.11-18.07-11.01-18.07-11.01z" fill="#e5a44e"/><path fill="#fafafa" d="M124.34 176.54h10.88v2.83h-10.88z"/><path d="M86.67 181.69c.14-.04 2.18 6.38 4.57 14.35 2.38 7.97 4.2 14.46 4.07 14.5-.14.04-2.18-6.38-4.57-14.35s-4.21-14.46-4.07-14.5zM150.74 161.29c.11.14-2.95 1.94-5.5 5.37-2.6 3.4-3.49 6.83-3.65 6.77-.06-.01.09-.89.57-2.22.48-1.34 1.36-3.12 2.67-4.86 1.31-1.74 2.79-3.07 3.94-3.9 1.15-.84 1.94-1.21 1.97-1.16z" fill="#263238"/><g opacity=".2"><path d="M87.53 184.45a70.388 70.388 0 00-1.54 15.04c.01 1.25.05 2.51.42 3.7.37 1.19 1.12 2.31 2.23 2.87 1.35-1.94 2.75-4.01 2.95-6.36.14-1.64-.32-3.27-.77-4.86-1.03-3.62-2.07-7.25-3.1-10.87"/></g></g><g><path d="M99.5 154.08c2.41 1.69 3.23 4.94 3.11 7.88-.12 2.95-.97 5.82-1.11 8.77-.14 2.94.62 6.19 2.99 7.94 3.87-1.32 7.74-2.63 11.62-3.95-2.29-1.3-2.77-4.45-2.27-7.03.5-2.59 1.71-5.03 1.85-7.66.36-6.91-4.6-12.81-6.93-15.62" fill="#263238"/></g></g><g><path fill="#e5a44e" d="M147.21 430.32l-4.5 25.74h22.26l2.46-24.34z"/><path d="M165.42 453.95c0 .08-1.24.17-3.24.19-2 .02-4.77-.03-7.82-.14-2.94-.12-5.6-.24-7.81-.33-2-.1-3.23-.17-3.23-.26 0-.08 1.24-.16 3.24-.18 2-.02 4.77.04 7.82.15l7.81.32c2 .09 3.23.16 3.23.25z" fill="#263238"/><path fill="#fff" d="M142.71 456.06h22.26l.21-2.11-22.07-.55-.4 2.41" opacity=".6"/><path d="M153.58 453.94c-.14-.02.4-4.42 1.22-9.81.82-5.4 1.59-9.76 1.74-9.74.14.02-.4 4.42-1.22 9.82-.83 5.39-1.6 9.75-1.74 9.73z" fill="#263238"/><path d="M164.19 453.9c-.14.01.54-1.87-.38-4.67-.46-1.37-1.35-2.93-2.81-4.15-1.45-1.23-3.52-2-5.72-2.02-2.2-.01-4.29.71-5.79 1.88-1.52 1.16-2.51 2.65-3.1 3.97-1.17 2.7-.86 4.63-.98 4.61-.02 0-.04-.11-.06-.33a7.85 7.85 0 01-.04-.96c.02-.83.19-2.06.74-3.46.57-1.39 1.56-2.96 3.15-4.2 1.57-1.26 3.77-2.04 6.09-2.02 2.32.02 4.51.85 6.03 2.18 1.54 1.32 2.42 2.97 2.86 4.41.43 1.45.44 2.7.33 3.52-.06.42-.12.73-.19.94-.07.2-.11.3-.13.3z" fill="#263238"/><path d="M242.94 423.13l5.41 17.75s19.86.46 21.18 3.64l-34.03 11.73-9.57-27.3 17.01-5.82z" fill="#e5a44e"/><path d="M237.32 443.03c-.6.41-.8 1.3-.41 1.92.38.61 1.29.82 1.9.43.6-.4.88-1.47.43-2.03-.45-.57-1.53-.76-2.02-.23" fill="#e5a44e" opacity=".6"/><path d="M235.5 456.24l-.86-2.79 32.95-10.2s1.74.14 1.94 1.26l-34.03 11.73z" fill="#fff" opacity=".6"/><path d="M248.85 440.51c.05.17-.75.53-1.39 1.35-.65.8-.83 1.66-1 1.65-.16.02-.26-1.06.53-2.03.77-.99 1.84-1.14 1.86-.97zM252.92 440.75c.09.15-.53.68-.85 1.58-.35.89-.23 1.7-.4 1.75-.15.08-.6-.85-.18-1.96.42-1.12 1.38-1.52 1.43-1.37zM256.42 444.33c-.14.09-.66-.66-.54-1.72.11-1.06.77-1.69.88-1.57.14.1-.2.77-.27 1.64-.1.86.09 1.57-.07 1.65zM247.16 436.6c-.02.18-.86.21-1.78.6-.93.37-1.55.94-1.68.82-.14-.09.36-.95 1.45-1.39 1.09-.45 2.05-.19 2.01-.03z" fill="#263238"/><g opacity=".3"><path d="M244.01 426.64l.97 3.16-16.78 5.62-.99-2.81z"/></g><g><path d="M246.01 433.04c.03.07-.6.4-1.71.58a8.257 8.257 0 01-3.13-.11c-.19-.05-.41-.08-.65-.22-.24-.11-.5-.51-.38-.86.08-.32.35-.54.6-.63.25-.09.47-.11.67-.13.41-.04.81-.04 1.19 0 .75.07 1.41.26 1.93.49 1.04.46 1.53.99 1.48 1.04-.06.08-.62-.31-1.63-.63-.5-.16-1.12-.3-1.82-.33-.35-.02-.71-.01-1.08.04-.39.03-.7.13-.74.32-.01.07-.01.1.1.18.11.07.29.12.48.16.37.09.73.16 1.08.2.7.09 1.33.1 1.87.06 1.05-.07 1.71-.25 1.74-.16z" fill="#263238"/></g><g><path d="M245.87 433.35c-.05.05-.59-.44-1.02-1.49-.21-.52-.38-1.19-.41-1.95-.01-.38.01-.78.08-1.18.08-.4.17-.94.79-1.24.33-.13.7.04.88.23.19.19.28.38.39.56.2.38.33.77.4 1.15.14.76.05 1.47-.12 2.01-.36 1.11-.99 1.55-1.02 1.5-.08-.06.38-.58.6-1.61.11-.5.14-1.13-.01-1.79-.08-.33-.2-.66-.37-.97-.18-.34-.41-.59-.54-.5-.17.06-.36.43-.4.76-.07.37-.1.73-.1 1.07 0 .69.11 1.31.26 1.81.28 1.03.67 1.59.59 1.64z" fill="#263238"/></g><g><path d="M143.14 198.81l-6.41 13.2c-2.9 5.97-1.85 13.1 2.64 17.98 3.49 3.8 8.59 5.7 13.71 5.11l24.87-2.84-.01-14.82-24.52.71 6.13-10.79-16.41-8.55z" fill="#b78876"/></g><g><path d="M174.71 151.9c-4.11-6.94-5.29-16.19-6.33-24.2-.49-3.77-1.35-9.13 1.3-11.48 2.84-2.52 3.11-6.41 6.37-8.36 3.26-1.95 7.68-2.11 10.76.12" fill="#263238"/><path d="M186.09 176.5c6.3.5 11.76-4.33 12.02-10.65.25-6.07.47-12.2.47-12.2s9.19-.83 9.89-9.93c.69-9.09.45-30.1.45-30.1a31.686 31.686 0 00-32.04 1.97l.47 32.02-.05 17.22c.05 5.78 3.04 11.21 8.79 11.67z" fill="#b78876"/><path d="M199.44 132.6c-1.56-1.95-4.11-2.73-6.21-1.38-2.1 1.36-2.91 4.38-1.78 6.61.8 1.57 2.63 3 4.45 3.39 1.72.36 2.93 2.03 2.72 3.77-.27 2.28-4.07 3.13-5.79 5.01-2.67 2.93-8.53 4.16-12.47 4.61-3.88.45-3.41.49-5.65-2.71-1.63-2.32-2.14-4.55-2.19-7.39l-.36-20.12c-.04-2.42-.08-4.87.48-7.22.56-2.35 1.8-4.64 3.83-5.96 2.22-1.45 5.02-1.57 7.54-2.37 3.15-1.01 5.84-3.09 8.79-4.59 2.95-1.5 6.57-2.39 9.52-.9 2.12 1.07 3.54 3.2 5.6 4.38 2.94 1.68 6.94 1.31 8.36 5.64.49 1.5.45 3.14-.06 4.63-2.01 5.88-9.31 8.23-14.55 5.67-.11 1 .87 3.22-.19 6.36-.35 1.01-.47 2.54-2.04 2.57" fill="#263238"/><path d="M197.79 138.27c.04.01.04.17-.13.39-.16.21-.5.48-1.02.5-1.02.09-2.31-1.01-2.35-2.52-.04-.74.23-1.46.67-1.92.44-.47.97-.72 1.43-.82.94-.19 1.48.15 1.44.21-.02.1-.56-.04-1.31.23-.74.24-1.66 1.06-1.58 2.27.03 1.19.98 2.05 1.7 2.09.78.05 1.09-.49 1.15-.43z" fill="#7c5142"/><path d="M175.41 117.42c4.93-2.14 7.61-8.42 5.74-13.46-1.87-5.05-7.98-8.07-13.13-6.48-5.14 1.58-8.5 7.53-7.2 12.75.15.62.36 1.32.04 1.87-.38.67-1.29.77-2.02 1.04-2.57.97-2.92 4.9-1.04 6.9 1.88 2.01 5.03 2.29 7.68 1.58-.65 2.34 1.45 4.84 3.86 5.12 2.41.28 4.77-1.22 6.11-3.25 1.34-2.03 1.82-4.49 2.06-6.91" fill="#263238"/><path d="M181.58 106.36c.03 0 .06.33.04.93-.02.6-.11 1.46-.36 2.51-.47 2.08-1.7 4.92-4.04 7.27-2.34 2.35-5.18 3.59-7.26 4.06-1.05.25-1.91.34-2.51.37-.6.02-.93-.01-.93-.04-.01-.1 1.32-.11 3.34-.68 2.01-.56 4.72-1.81 6.98-4.08 2.26-2.27 3.5-4.98 4.06-6.99.57-2.03.58-3.36.68-3.35z" fill="#f5f5f5"/><path d="M171.5 97.93c0-.02.09-.05.28-.1.18-.05.47-.09.83-.08.73 0 1.82.27 2.86 1.09.52.41 1.02.94 1.43 1.6.4.67.7 1.45.88 2.3.36 1.71.2 3.64-.22 5.55-.84 3.87-2.67 7.04-4.27 9.04a19.93 19.93 0 01-2.05 2.24c-.53.48-.85.72-.87.7-.07-.07 1.13-1.12 2.63-3.17 1.5-2.03 3.23-5.15 4.05-8.93.42-1.88.58-3.73.26-5.35-.15-.81-.42-1.55-.78-2.17-.37-.62-.82-1.14-1.29-1.54-.96-.8-1.96-1.11-2.65-1.17-.69-.06-1.09.03-1.09-.01z" fill="#455a64"/><g><path d="M160.42 112.44c-.03-.02.08-.26.33-.68.25-.41.67-.98 1.27-1.6 1.19-1.24 3.29-2.66 5.95-3.09 2.66-.43 5.1.25 6.62 1.06.77.4 1.35.81 1.71 1.12.37.31.54.51.52.54-.06.08-.86-.64-2.39-1.33-1.51-.69-3.85-1.28-6.38-.88-2.53.41-4.56 1.71-5.78 2.84-1.23 1.14-1.77 2.07-1.85 2.02z" fill="#455a64"/></g><g><path d="M178.32 115.98c.05-.07 1.2.87 3.18 2.2a50.85 50.85 0 008.15 4.46c1.67.72 3.29 1.31 4.8 1.78 1.5.47 2.87.86 4.03.88 1.17.03 2.08-.32 2.63-.66.55-.35.78-.65.81-.62.02.01-.15.37-.7.79-.54.41-1.5.84-2.74.86-1.24.03-2.66-.34-4.17-.78a42.64 42.64 0 01-4.86-1.76c-3.37-1.45-6.22-3.22-8.15-4.64-.97-.71-1.72-1.33-2.23-1.77-.51-.45-.77-.71-.75-.74z" fill="#455a64"/></g><g><path d="M175.58 104.5c-.03 0-.1-.45-.1-1.27.02-.81.1-2.02.63-3.42.51-1.37 1.6-2.96 3.42-3.83.89-.43 1.96-.69 3.06-.55 1.1.13 2.17.67 2.99 1.49.83.81 1.4 1.82 1.7 2.87.3 1.05.33 2.11.23 3.08-.23 1.97-1 3.6-1.75 4.85-.76 1.26-1.48 2.19-1.99 2.83-.51.64-.81.97-.84.95-.03-.02.22-.4.67-1.07.45-.67 1.13-1.63 1.83-2.89.69-1.25 1.39-2.85 1.59-4.72.09-.93.04-1.92-.24-2.89-.28-.96-.81-1.89-1.57-2.64-.75-.74-1.71-1.23-2.69-1.35-.98-.13-1.96.09-2.79.48-1.7.78-2.76 2.23-3.29 3.53-.55 1.32-.69 2.49-.77 3.29-.06.81-.05 1.26-.09 1.26z" fill="#263238"/></g></g><g><path d="M279.36 83.45c-1.48-.75-5.74 7.18-5.82 4.95-.07-2.24 6.34-9.09 4.76-9.81-2.06-.93-6.37 7.45-6.79 8.13-.41.66-1.42.1-1.01-.49.59-.86 6.55-10.01 4.54-10.95-1.12-.52-1.86 1.57-1.86 1.57s-4.95 8.98-5.88 8.5c-.95-.48 1.78-5.85 2.83-7.59 1.04-1.72.64-2.92-.51-2.74-.78.12-4.12 5.39-5.11 7.14-1 1.75-3.64 6.6-4.28 3.15-.64-3.45-2.43-5.86-3.37-6.18-.94-.31-1.72.88-1.09 1.77.51.72.98 2.18 1.29 3.29.26.92.36 1.87.3 2.82-.08 1.11-.18 2.04-.3 2.84l-1.95 4.09s-14.07 32.15-16.52 36.79c-2.45 4.64-21.97 24.92-21.97 24.92l4.13 23.72 31.72-34.35 16.77-47.2.42-1.17s6.01-6.4 7.52-8.44c3.1-4.2 2.73-4.48 2.18-4.76z" fill="#b78876"/></g><g><path d="M162.11 242.62s-9.98 22.6-12.14 45L139.4 431.29l35.27 3.68 10.37-148.9s32.36 150.27 33.63 150.27c1.27 0 28.4-10.1 28.4-10.1l-31.95-182.9-53.01-.72z" fill="#455a64"/><path d="M200 289.73c-.04.17-7.19-1.42-15.96-3.56-8.78-2.14-15.85-4.02-15.81-4.19.04-.17 7.19 1.42 15.97 3.56 8.76 2.13 15.84 4.01 15.8 4.19z" fill="#263238"/><path d="M176.73 403.9c0 .02-.13.04-.37.07-.24.02-.6.09-1.07.09-.93.05-2.29 0-3.94-.24s-3.59-.72-5.69-1.38c-2.1-.65-4.37-1.49-6.77-2.28-2.4-.78-4.73-1.36-6.89-1.65-2.16-.28-4.13-.3-5.75-.05-3.27.47-5 1.74-5.05 1.61-.01-.02.09-.09.3-.23.21-.12.5-.35.93-.54.83-.44 2.11-.92 3.77-1.21 1.65-.3 3.67-.33 5.87-.07 2.2.27 4.57.84 6.99 1.63 2.39.82 4.67 1.6 6.75 2.31 2.08.68 3.98 1.19 5.6 1.47 3.25.63 5.32.36 5.32.47zM176.87 391.78c-.01.04-.52 0-1.44-.03-.92-.04-2.26-.03-3.91.11-3.3.24-7.76 1.3-12.72 2.33-2.49.49-4.9.83-7.11.92-2.21.09-4.21-.06-5.85-.4-1.64-.33-2.93-.79-3.77-1.2-.43-.18-.74-.38-.95-.5-.21-.12-.32-.19-.31-.21.05-.11 1.84.99 5.1 1.55 3.25.6 7.86.35 12.8-.67 4.94-1.03 9.45-2.05 12.8-2.19 1.67-.09 3.02-.05 3.95.05.91.1 1.42.21 1.41.24zM239.76 377.75c.01.01-.05.12-.19.32-.13.21-.37.48-.7.82-.66.66-1.8 1.47-3.4 1.99-1.59.54-3.61.79-5.81.61-2.2-.16-4.56-.69-7.03-1.1-2.47-.42-4.85-.49-7-.19-2.14.27-4.02.84-5.54 1.46-3.04 1.25-4.63 2.58-4.69 2.49-.01-.01.08-.1.27-.26s.47-.39.85-.65c.76-.54 1.9-1.25 3.43-1.92 1.52-.67 3.43-1.29 5.61-1.6 2.18-.33 4.65-.28 7.14.15 2.5.41 4.83.95 6.99 1.13 2.15.2 4.11-.01 5.66-.48 1.56-.47 2.69-1.2 3.37-1.79.7-.59 1-1.01 1.04-.98zM245.09 404.23c.02.02-.29.43-.92 1.11-.63.68-1.61 1.61-2.94 2.62-2.63 2.02-6.79 4.28-11.83 5.16-5.04.9-9.72.26-12.89-.69-1.6-.47-2.85-.98-3.68-1.38-.84-.4-1.28-.67-1.26-.69.02-.04.49.17 1.34.51.85.34 2.11.79 3.7 1.21 3.16.85 7.76 1.42 12.7.54 4.94-.87 9.06-3.03 11.7-4.95 2.67-1.94 4-3.52 4.08-3.44zM236.34 366.72c-.01.05-.5-.04-1.4-.02-.89.03-2.18.22-3.66.85-1.47.61-3.1 1.62-4.75 2.96-1.66 1.32-3.37 2.94-5.42 4.38-2.02 1.46-4.32 2.39-6.47 2.67-2.15.31-4.11.17-5.72-.02-1.61-.2-2.9-.47-3.78-.66-.88-.19-1.37-.32-1.36-.36.01-.04.5.03 1.4.16.89.13 2.18.33 3.79.49 1.6.14 3.52.24 5.6-.08 2.09-.3 4.26-1.19 6.24-2.62 2-1.4 3.72-3.01 5.41-4.33 1.69-1.33 3.38-2.34 4.91-2.92 1.53-.59 2.88-.74 3.79-.71.46.03.81.06 1.04.12.27.04.39.08.38.09zM179.87 361.02c.01.02-.1.09-.32.21-.22.11-.54.33-.98.5-.87.41-2.22.82-3.93 1.02-1.71.21-3.78.1-6.01-.27-2.24-.38-4.64-1.04-7.13-1.81-2.48-.77-4.85-1.44-7.05-1.85-2.2-.4-4.22-.55-5.9-.41-3.39.25-5.24 1.46-5.28 1.33-.01-.02.1-.09.32-.21.22-.11.54-.32.99-.49.87-.4 2.22-.8 3.94-.99 1.71-.2 3.78-.08 6.01.3 2.24.39 4.64 1.05 7.12 1.82 2.48.77 4.85 1.43 7.06 1.84 2.2.39 4.22.53 5.9.38 3.38-.28 5.22-1.5 5.26-1.37zM231.62 336.41c.02.01-.02.13-.1.37-.07.24-.22.59-.43 1.02-.43.86-1.22 2.05-2.51 3.22-1.28 1.16-3.05 2.3-5.18 3.13-2.14.84-4.61 1.34-7.21 1.69-2.6.35-5.08.56-7.31.9-2.24.35-4.27.55-5.89 1.05-1.62.48-2.79 1.24-3.52 1.83-.74.6-1.09 1-1.13.96-.01-.01.07-.12.23-.31.16-.2.42-.47.77-.8.7-.65 1.88-1.5 3.54-2.03 1.66-.55 3.7-.8 5.92-1.17 2.24-.37 4.73-.6 7.31-.94 2.58-.35 5.02-.83 7.11-1.62 2.1-.79 3.83-1.86 5.11-2.96 2.6-2.22 3.17-4.42 3.29-4.34zM145.44 333.52c.06-.11 1.71 1.39 5.01 2.35 1.64.47 3.69.75 5.93.51 2.25-.22 4.6-1.11 6.9-2.36 2.31-1.24 4.45-2.6 6.56-3.55 2.11-.95 4.18-1.44 5.94-1.49 1.76-.08 3.17.32 4.06.72.44.22.77.4.98.56.21.15.32.23.31.25-.03.05-.47-.26-1.36-.61-.89-.33-2.26-.66-3.97-.54-1.7.1-3.7.61-5.75 1.56-2.06.95-4.17 2.31-6.51 3.57-2.33 1.27-4.77 2.19-7.1 2.38-2.32.22-4.42-.1-6.09-.64-1.68-.51-2.92-1.23-3.73-1.76-.41-.27-.71-.5-.9-.67-.2-.18-.29-.27-.28-.28zM225.94 307.23c.03.02-.24.47-.78 1.26-.57.76-1.44 1.85-2.69 3.02-2.49 2.31-6.68 4.95-11.91 5.74-2.6.44-5.12.23-7.34.05-2.23-.18-4.25-.25-5.9.06-1.66.27-2.92.83-3.71 1.32-.8.5-1.17.88-1.2.84-.01-.01.07-.11.24-.3.17-.18.45-.43.84-.71.78-.56 2.06-1.19 3.76-1.52 1.69-.36 3.76-.33 6-.17s4.7.35 7.23-.08c5.1-.77 9.23-3.29 11.74-5.5 2.53-2.25 3.63-4.08 3.72-4.01zM181.32 304.72c-.03.12-1.87-.84-5.08-.95-1.59-.04-3.51.17-5.48.89-.99.35-1.95.9-3.05 1.35-.55.22-1.14.4-1.78.46-.63.06-1.29-.03-1.9-.25-1.22-.44-2.19-1.21-3.16-1.81-.97-.6-1.97-1.06-2.97-1.39a14.71 14.71 0 00-5.5-.73c-3.2.21-5 1.23-5.04 1.11-.01-.02.1-.08.31-.19s.53-.27.95-.43c.84-.33 2.12-.71 3.75-.86 1.62-.13 3.61-.02 5.68.64 1.03.33 2.08.79 3.09 1.41 1 .61 1.95 1.36 3.06 1.76 1.1.42 2.27.23 3.32-.2 1.05-.42 2.04-.98 3.08-1.33 2.05-.73 4.03-.9 5.65-.81 1.63.1 2.92.43 3.78.74.43.16.75.29.97.4.22.11.33.17.32.19zM225.94 301.13c.02.03-.36.41-1.08 1.09-.7.7-1.81 1.61-3.22 2.68-.73.51-1.5 1.1-2.4 1.62-.45.27-.9.56-1.38.83-.49.26-1 .52-1.52.79-2.11 1.03-4.52 1.98-7.16 2.61-2.65.61-5.23.85-7.58.85-.59-.02-1.16-.03-1.71-.04-.56-.02-1.09-.1-1.61-.14-1.04-.07-1.99-.27-2.87-.42-1.74-.35-3.13-.71-4.06-1.04-.94-.31-1.45-.5-1.44-.54.03-.11 2.1.63 5.56 1.22.87.12 1.81.3 2.85.35.51.04 1.04.1 1.59.12.55.01 1.11.01 1.69.02 2.31-.03 4.86-.28 7.46-.88 2.6-.62 4.98-1.54 7.07-2.54.52-.26 1.02-.52 1.51-.76.48-.26.93-.54 1.38-.8.9-.5 1.68-1.07 2.41-1.55 1.43-1.02 2.56-1.89 3.3-2.53.76-.63 1.19-.97 1.21-.94zM219.87 272.51c.01.02-.22.15-.65.39-.48.26-1.12.6-1.92 1.03-1.68.87-4.11 2.14-7.24 3.46-3.13 1.28-6.97 2.69-11.47 3.19-2.24.25-4.63.24-7.06-.13-2.43-.38-4.87-1.1-7.31-1.97-4.87-1.77-9.33-3.88-13.64-4.99-4.3-1.14-8.37-1.27-11.71-.92a33.83 33.83 0 00-7.77 1.73c-.89.32-1.57.58-2.03.77-.46.19-.71.28-.71.26-.01-.02.22-.14.67-.36.44-.23 1.12-.52 2-.87a31.91 31.91 0 017.8-1.9c3.37-.39 7.5-.31 11.87.82 4.38 1.1 8.86 3.21 13.7 4.97 2.42.87 4.83 1.58 7.21 1.95 2.38.36 4.73.39 6.93.15 4.43-.46 8.25-1.82 11.38-3.05 3.13-1.27 5.58-2.48 7.29-3.3.82-.39 1.47-.71 1.96-.95.45-.19.69-.29.7-.28z" fill="#fafafa"/><g><path d="M217.79 257.6c-.06.05-.5-.82-1.88-1.76-1.37-.93-3.72-1.77-6.69-1.76-1.48.02-3.11.22-4.74.84-1.65.59-3.38 1.34-5.18 2.16-3.59 1.65-7.58 3.55-12.09 4.58-4.48 1.1-8.89 1.43-12.87 1.27a46.05 46.05 0 01-10.44-1.58c-2.91-.8-5.16-1.74-6.7-2.42-.76-.36-1.34-.66-1.73-.86-.39-.2-.59-.32-.59-.34.01-.02.23.07.63.24.45.2 1.04.45 1.77.77 1.55.62 3.81 1.5 6.71 2.25 2.89.74 6.42 1.34 10.37 1.46 3.94.13 8.3-.21 12.73-1.3 4.45-1.01 8.4-2.87 12.01-4.51 1.81-.81 3.55-1.55 5.23-2.13 1.68-.61 3.37-.8 4.88-.8 3.05.03 5.44.96 6.81 1.96.68.51 1.13 1 1.4 1.35.26.38.38.57.37.58z" fill="#fafafa"/></g></g><g><path d="M237.93 164.76l-14.07-18.48-.62.45-22.43 14.12-23.93.83s-16.79 0-23.09 13.23c-.69 1.45-14.48 29.01-14.48 29.01l21.29 7.82 3.45-9.85 4.4 22.33-6.34 18.4 53.35 2.86-4.43-26.74 4.02-31.96 22.88-22.02z" fill="#e5a44e"/><path d="M200.78 207.85c.03 0 .07.55-.02 1.54-.08.99-.37 2.42-1.03 4.07-1.27 3.31-4.45 7.48-9.35 9.97-4.9 2.48-9.98 2.85-13.48 2.7-1.77-.07-3.19-.26-4.16-.43-.97-.17-1.5-.31-1.49-.35.02-.12 2.17.28 5.67.32 3.47.03 8.42-.42 13.18-2.82 4.74-2.42 7.87-6.4 9.22-9.57 1.39-3.2 1.3-5.45 1.46-5.43zM168.66 225.23c-.18.04-2.74-11.55-5.72-25.87-2.98-14.33-5.26-25.97-5.08-26 .18-.04 2.74 11.54 5.72 25.87 2.98 14.32 5.26 25.96 5.08 26z" fill="#263238"/><g opacity=".2"><path d="M175.24 226.15c-.58-2.1 1.07-4.25 3.03-5.2 1.96-.94 4.21-1.06 6.33-1.55 4.1-.96 7.83-3.44 10.29-6.86.34-.46.73-1 1.3-1.03.57-.03 1.05.49 1.16 1.04.12.55.3 1.02.11 1.99-.99 5.12-5.13 7.26-9.37 9.52-4.23 2.29-7.61 2.51-12.85 2.09"/></g></g></g></svg>