<svg xmlns="http://www.w3.org/2000/svg" viewBox="0 0 500 500"><path d="M60.29 120.18l-14.61 70.51c6.5 6.59 13.39 12.83 24.51 15.18l53.5 9.4 12.56-82.88-75.96-12.21z" fill="#fafafa"/><path fill="#f5f5f5" d="M57.24 115.83l-14.61 70.5 24.51 15.18 53.5 9.4 15.8-79.55z"/><path d="M52.6 182.57l-9.97 3.76s3.6 5.87 8.85 9.05c5.25 3.18 10.31 5.19 15.66 6.13 0 0-11.68-5.81-14.54-18.94z" fill="#e0e0e0"/><path fill="#ebebeb" d="M49.11 130.96l36.56-11.34-2.33-7.7-37.17 10.81zM142.77 150.38l-23.7-30.07-6.35 4.94 23.41 30.82z"/><path d="M122.68 154.78c-.03.14-13.53-2.38-30.16-5.63-16.63-3.25-30.09-6-30.06-6.14.03-.14 13.53 2.38 30.16 5.63 16.63 3.25 30.09 6 30.06 6.14zM120.29 165.59c-.03.14-13.53-2.38-30.16-5.63-16.63-3.25-30.09-6-30.06-6.14.03-.14 13.53 2.38 30.16 5.63 16.63 3.24 30.09 6 30.06 6.14z" fill="#e0e0e0"/><g><path d="M118.74 175.28c-.03.14-13.53-2.38-30.16-5.63-16.63-3.25-30.09-6-30.06-6.14.03-.14 13.53 2.38 30.16 5.63 16.63 3.25 30.09 6 30.06 6.14z" fill="#e0e0e0"/></g><g><path d="M116.87 184.54c-.03.14-13.53-2.38-30.16-5.63-16.63-3.25-30.09-6-30.06-6.14.03-.14 13.53 2.38 30.16 5.63 16.63 3.25 30.08 6 30.06 6.14z" fill="#e0e0e0"/></g><g><path d="M402.63 87.76l-18.91 46.1c-6.28 1.27-12.64 2.18-19.93-.78l-34.33-15.31 24.86-52.4 48.31 22.39z" fill="#fafafa"/><path fill="#f5f5f5" d="M406.06 86.44l-18.9 46.1-19.94-.78-34.33-15.31 21.73-51.75z"/><path d="M382.89 126.52l4.26 6.02s-4.34 1.97-8.58 1.77c-4.24-.21-7.92-1.01-11.35-2.54 0-.01 8.95 1.18 15.67-5.25z" fill="#e0e0e0"/><path fill="#ebebeb" d="M404.87 98.27l-16.59-20.65 4.32-3.52 17.14 20.58zM343.63 73.17l25.23-8.08 1.73 5.29L345.23 79z"/><path d="M353.45 83.46c.06-.13 8.86 3.46 19.65 8.03 10.8 4.57 19.51 8.38 19.45 8.51-.06.13-8.85-3.46-19.65-8.03-10.8-4.56-19.51-8.38-19.45-8.51zM350.64 90.59c.06-.13 8.86 3.46 19.65 8.03 10.8 4.57 19.51 8.38 19.45 8.51-.06.13-8.85-3.46-19.65-8.03-10.8-4.57-19.51-8.38-19.45-8.51z" fill="#e0e0e0"/><g><path d="M347.77 96.75c.06-.13 8.86 3.46 19.65 8.03 10.8 4.57 19.51 8.38 19.45 8.51-.06.13-8.85-3.46-19.65-8.03-10.8-4.57-19.5-8.38-19.45-8.51z" fill="#e0e0e0"/></g><g><path d="M345.27 102.78c.06-.13 8.86 3.46 19.65 8.03 10.8 4.57 19.51 8.38 19.45 8.51-.06.13-8.85-3.46-19.65-8.03-10.8-4.56-19.51-8.38-19.45-8.51z" fill="#e0e0e0"/></g></g><g><path d="M382.07 284.19c-15.32-12.48-17.43-33.7-15.39-52.48.34-3.13.24-6.47 1.94-9.12 1.7-2.65 5.33-4.27 8.04-2.74 2.25 1.27 3.07 4.06 4.21 6.4 1.52 3.12 3.92 5.78 6.85 7.59 1.92 1.19 4.35 2.01 6.41 1.06 2.82-1.29 3.42-5.02 3.63-8.14.4-5.83.79-11.66 1.19-17.49.21-3.13.44-6.32 1.63-9.21 1.19-2.89 3.54-5.49 6.58-6.1 3.04-.61 6.59 1.37 6.99 4.48.17 1.29-.19 2.6-.2 3.9-.01 1.3.49 2.78 1.69 3.24 1.22.46 2.54-.33 3.54-1.18 3.46-2.92 5.95-6.82 8.3-10.71 2.35-3.89 4.64-7.88 7.82-11.11 3.18-3.23 7.43-5.65 11.93-5.58 4.5.08 9.06 3.2 9.87 7.67.81 4.49-2.09 8.77-5.16 12.13-4.54 4.99-9.8 9.3-15.55 12.77-1.04.63-2.16 1.3-2.62 2.43-.83 2.03.99 4.25 2.99 5.09 2.27.95 4.82.89 7.23 1.36 2.42.47 4.98 1.74 5.73 4.11 1.04 3.29-1.88 6.44-4.67 8.44-5.59 4-11.86 7.03-18.45 8.9-2.36.67-4.84 1.23-6.81 2.71-1.97 1.48-3.3 4.2-2.34 6.49s3.78 3.21 6.22 2.94 4.69-1.42 7.05-2.11c4.42-1.3 9.94-.6 12.42 3.32 1.63 2.57 1.53 5.98.4 8.83-1.13 2.84-3.17 5.21-5.31 7.37-7.48 7.57-16.78 13.42-27 16.13-10.22 2.72-19.52 2.97-29.16-1.39" fill="#f5f5f5"/><path d="M380.79 298.13c1.24-7.41 3.52-16.1 7.02-25.38 3.48-9.3 8.13-19.17 13.35-29.33 1.32-2.53 2.61-5.04 3.9-7.51 1.28-2.46 2.56-4.9 3.95-7.21 2.77-4.63 5.78-8.88 8.77-12.82 2.99-3.94 5.96-7.58 8.77-10.95 2.82-3.37 5.5-6.46 8.07-9.18 5.12-5.45 9.76-9.35 13.05-11.9 1.65-1.28 2.95-2.23 3.85-2.86.43-.3.77-.54 1.02-.71.23-.16.35-.23.36-.23.01.01-.1.1-.33.27-.25.19-.57.44-.99.76-.87.66-2.16 1.64-3.78 2.95-3.25 2.6-7.83 6.53-12.9 12-2.54 2.72-5.2 5.83-8 9.21-2.79 3.39-5.75 7.03-8.72 10.97-2.97 3.94-5.96 8.18-8.7 12.79-1.38 2.3-2.64 4.72-3.93 7.19-1.28 2.47-2.58 4.97-3.89 7.51-5.22 10.15-9.88 20-13.37 29.26-3.51 9.25-5.83 17.89-7.11 25.26" fill="#e0e0e0"/><path d="M409.17 228.68c-.04 0-.11-.48-.21-1.36-.1-.88-.2-2.15-.31-3.72-.21-3.15-.35-7.5-.49-12.3-.14-4.8-.34-9.14-.6-12.27-.13-1.57-.24-2.83-.33-3.71-.08-.88-.11-1.36-.07-1.37.04-.01.14.47.3 1.34.16.87.33 2.13.51 3.7.36 3.13.63 7.49.77 12.3.13 4.74.24 9.02.33 12.3.05 1.48.09 2.73.12 3.73.03.87.02 1.36-.02 1.36z" fill="#e0e0e0"/><path d="M449.92 224.15c0 .04-.58.06-1.62.07-1.04.02-2.54.03-4.4.11-3.71.12-8.83.48-14.46 1.11-5.63.65-10.7 1.45-14.36 2.13-1.83.33-3.3.64-4.32.84-1.02.21-1.59.31-1.6.27-.01-.04.54-.21 1.55-.49 1.01-.27 2.47-.64 4.29-1.03 3.64-.79 8.72-1.66 14.37-2.31 5.65-.64 10.79-.92 14.52-.94 1.86-.02 3.37.02 4.41.08 1.05.07 1.62.12 1.62.16zM388.35 272.05c-.02.01-.1-.17-.24-.51-.16-.41-.35-.9-.58-1.51-.5-1.31-1.17-3.22-1.96-5.6-1.6-4.75-3.6-11.38-5.71-18.72-2.11-7.35-4.05-13.98-5.54-18.76-.73-2.32-1.34-4.23-1.79-5.65-.19-.62-.35-1.12-.48-1.54-.1-.35-.15-.54-.13-.55.02-.01.1.17.24.51.16.41.35.9.58 1.5.5 1.31 1.17 3.22 1.97 5.6 1.6 4.75 3.6 11.38 5.71 18.72 2.11 7.34 4.05 13.98 5.54 18.76.74 2.32 1.34 4.23 1.79 5.65.19.62.35 1.12.48 1.54.1.36.14.55.12.56z" fill="#e0e0e0"/><path d="M443.04 258.79c0 .02-.18.08-.55.18-.43.11-.95.24-1.59.4-1.47.36-3.45.84-5.86 1.43-4.94 1.21-11.76 2.95-19.28 4.9-7.52 1.94-14.36 3.63-19.33 4.73-2.49.55-4.5.98-5.9 1.25-.65.12-1.18.22-1.61.3-.37.06-.57.08-.57.06 0-.02.18-.08.55-.18.43-.11.95-.24 1.59-.4 1.47-.36 3.45-.84 5.86-1.43 4.94-1.21 11.76-2.95 19.28-4.9 7.52-1.94 14.36-3.63 19.33-4.73 2.49-.55 4.5-.98 5.9-1.25.65-.12 1.18-.22 1.61-.3.37-.05.56-.08.57-.06z" fill="#e0e0e0"/></g><g><path d="M465.75 458.85c0 .14-94.61.26-211.3.26-116.73 0-211.32-.12-211.32-.26s94.59-.26 211.32-.26c116.68 0 211.3.12 211.3.26z" fill="#263238"/></g><g><path d="M170.77 77.79l24.12 73.55c9.59 2.67 19.35 4.79 30.97 1.03l54.92-19.87-32.65-83.99-77.36 29.28z" fill="#e0e0e0"/><path fill="#fba745" d="M165.6 75.37l24.13 73.55 30.97 1.04 54.92-19.88-27.86-82.63z"/><path d="M197.01 140.08l-7.28 8.85s6.5 3.55 13.1 3.7c6.59.16 12.39-.68 17.88-2.67-.01 0-14.01.83-23.7-9.88z" fill="#fba745"/><path d="M197.01 140.08c-2.21 4.48-4.45 9.72-7.28 8.85 0 0 6.5 3.55 13.1 3.7 6.59.16 12.39-.68 17.88-2.67-.01 0-14.01.83-23.7-9.88z" opacity=".3"/><path fill="#e0e0e0" d="M166.12 93.83l28.02-30.14-6.29-5.93-28.87 29.97zM263.84 61.8l-38.19-15.34-3.28 8 38.33 16.2z"/><path d="M247.47 76.66c.05.14-13.9 5-31.14 10.87-17.25 5.87-31.26 10.52-31.31 10.38-.05-.14 13.89-5 31.14-10.87 17.24-5.87 31.26-10.52 31.31-10.38z" fill="#263238"/><g><path d="M251.03 88.01c.05.14-13.9 5-31.14 10.87-17.25 5.87-31.26 10.52-31.31 10.38-.05-.14 13.89-5 31.14-10.87 17.24-5.87 31.26-10.51 31.31-10.38z" fill="#263238"/></g><g><path d="M254.77 97.88c.05.14-13.9 5-31.14 10.87-17.25 5.87-31.26 10.52-31.31 10.38-.05-.14 13.89-5 31.14-10.87 17.25-5.87 31.27-10.52 31.31-10.38z" fill="#263238"/></g><g><path d="M257.98 107.51c.05.14-13.9 5-31.14 10.87-17.25 5.87-31.26 10.52-31.31 10.38-.05-.14 13.89-5 31.14-10.87 17.24-5.87 31.26-10.51 31.31-10.38z" fill="#263238"/></g></g><g><path d="M295.02 318.19l-4.84 45.05s-9.43-14.25-15.81-7.9c-6.08 6.05-16.81 50.25-16.81 50.25s-.15 14.41 7.52 18.22c24.55 12.19 51.89-10.79 51.89-10.79l-3.88-128.81a51.596 51.596 0 00-18.07 33.98z" fill="#fba745"/><path d="M377.89 286.91l-42.51-3.4c-.26-4.96.09-24.17.09-24.17s-17.69-2.75-17.91-20.44 2.85-58.3 2.85-58.3c20.47-8.8 44.1-5.83 61.76 7.76l2.62 2.02-6.9 96.53z" fill="#b78876"/><path d="M335.44 259.1s11.18.91 23.06-6.55c0 0-5.45 12.73-23.1 11.13l.04-4.58z" fill="#aa6550"/><path d="M382.62 208.72c.3-.13 12.15-3.59 11.77 8.5-.39 12.09-12.45 9.21-12.46 8.86-.01-.35.69-17.36.69-17.36z" fill="#b78876"/><path d="M385.76 221.62c.05-.04.21.15.56.33.34.17.94.3 1.57.08 1.29-.43 2.43-2.42 2.56-4.6a6.91 6.91 0 00-.49-3.03c-.34-.9-.89-1.53-1.53-1.67-.64-.17-1.1.2-1.26.54-.17.33-.1.58-.17.6-.03.03-.25-.21-.14-.71.06-.24.21-.52.5-.74.3-.23.73-.33 1.17-.27.93.09 1.74.98 2.14 1.94.45.97.7 2.16.62 3.39-.16 2.43-1.48 4.67-3.24 5.12-.86.19-1.56-.08-1.92-.38-.35-.31-.41-.58-.37-.6z" fill="#aa6550"/><path d="M324.31 208.03c-.05 1.33 1.04 2.47 2.44 2.55 1.39.07 2.56-.94 2.6-2.28.05-1.33-1.04-2.48-2.43-2.55-1.39-.07-2.56.95-2.61 2.28zM323.76 205.5c.31.33 2.23-1.09 4.94-1.08 2.71-.03 4.71 1.37 5 1.03.14-.15-.17-.74-1.04-1.37-.85-.63-2.31-1.24-4.01-1.23-1.69.01-3.12.63-3.94 1.27-.82.64-1.1 1.23-.95 1.38zM350.93 208.98c-.05 1.33 1.04 2.47 2.44 2.55 1.39.07 2.56-.94 2.6-2.28.05-1.33-1.04-2.47-2.43-2.55-1.4-.07-2.57.95-2.61 2.28zM350.47 206.01c.31.33 2.23-1.09 4.95-1.08 2.71-.03 4.71 1.37 5 1.03.14-.15-.17-.74-1.04-1.37-.85-.63-2.31-1.24-4.01-1.24-1.69.01-3.12.63-3.94 1.27-.82.65-1.11 1.24-.96 1.39zM340.61 226.16c.01-.15-1.68-.45-4.41-.8-.69-.07-1.35-.21-1.47-.68-.16-.5.13-1.25.46-2.06.65-1.68 1.34-3.44 2.05-5.28 2.85-7.52 4.91-13.71 4.61-13.82-.3-.11-2.86 5.9-5.71 13.42-.69 1.86-1.34 3.62-1.97 5.32-.26.79-.71 1.68-.36 2.72.19.52.7.9 1.14 1.01.44.14.84.14 1.18.16 2.76.16 4.47.17 4.48.01zM349.77 195.36c.27.74 2.98.39 6.17.77 3.2.32 5.77 1.25 6.19.59.19-.32-.26-1.01-1.3-1.73-1.03-.71-2.67-1.39-4.59-1.61-1.91-.21-3.67.09-4.83.57-1.16.48-1.75 1.06-1.64 1.41zM324.76 197.64c.48.62 2.35-.02 4.6-.05 2.25-.11 4.16.41 4.6-.23.19-.31-.11-.93-.94-1.52-.82-.58-2.19-1.06-3.74-1.01-1.55.05-2.89.61-3.67 1.24-.8.63-1.06 1.26-.85 1.57z" fill="#263238"/><path d="M311.8 169.46c-.19-2.19.63-4.54 2.41-5.83 1.78-1.29 4.55-1.21 6 .45-.83-2.95 1.58-6.36 4.65-6.55 2.88-.18 5.34 2 8.13 2.76 2.72.75 5.64.1 8.26-.95s5.06-2.51 7.71-3.48c5.53-2.02 11.85-1.77 17.19.69 5.35 2.46 9.66 7.08 11.73 12.59 3.87-1.21 8.26.76 10.65 4.03 2.38 3.28 3 7.58 2.52 11.6-.32 2.72-1.11 5.35-2.02 7.94 0 .23.02.45.02.68-.18 9.72-1.28 21.15-5.43 21.21-7.23.11-5.51-13.51-5.51-13.51-8.87-3.43-5.57-16.73-7.79-18.74-2.22-2.02-6.86-6.7-25.44 2.79-7.21 3.69-16.81 3.57-22.04 2.38l-.46-.09c-.03-.01-.08-.01-.11-.02-.06-.01-.1-.05-.15-.06-1.67-.43-3.28-1.08-4.77-2.02-1.68-1.07-3.21-2.51-3.93-4.37-.71-1.86-.45-4.18 1.01-5.54-1.37-1.73-2.44-3.77-2.63-5.96z" fill="#263238"/><path d="M412.67 397.89l1.34 25.1 2.99 36.05H303.37l4.93-53.26-9.68-84.15c.84-29.74 12.26-42.1 35.62-44.94.19-.02-2.04.25-1.84.23 3.22-.38 0 0 1.84-.23 15.11 4.65 30.22 4.64 45.33-.03 7.01.3 12.81 2.45 18.77 3.6 18.77 3.6 34.22 18.1 37.97 30.72 3.09 10.39 25.44 100.52 25.44 100.52H417.3l-4.63-13.61z" fill="#fba745"/><path d="M338.3 234.52c.43 1.08.86 2.17 1.58 3.09.71.91 1.76 1.64 2.92 1.69 1.23.06 2.43-.67 3.11-1.7.69-1.03.92-2.31.87-3.54-.05-1.12-.56-2.45-1.67-2.58-.46-.05-.92.12-1.35.3-1.94.79-3.89 1.58-5.83 2.37" fill="#aa6550"/><path d="M340.63 239.32c.03-.18 1.31.34 3.11-.38.87-.35 1.83-1.05 2.35-2.14.53-1.08.63-2.54.08-3.82-.13-.32-.32-.61-.51-.87-.23-.24-.19-.23-.44-.19-.24.06-.62.24-.93.37-.33.13-.64.26-.96.39-1.25.5-2.38.95-3.33 1.3-1.91.71-3.12 1.09-3.18.96-.06-.13 1.05-.75 2.89-1.63a138.063 138.063 0 014.19-1.93c.34-.14.6-.29 1.07-.44.23-.06.55-.1.87.03.31.13.5.33.64.51.26.35.49.7.66 1.11.69 1.59.52 3.36-.18 4.67-.71 1.34-1.93 2.09-2.96 2.39-1.05.32-1.95.25-2.53.1-.59-.17-.86-.37-.84-.43z" fill="#263238"/><path d="M298.44 392.87l-26.76-82.16-2.42-13.8s-7.28-30.75-7.6-33.8c-.37-3.52-2.16-4.18-3.45-3.96-2.01.35-3.17 2.99-2.94 6.02.08 1.05 1.98 17.51 1.98 17.51s-.9-1.28-3.67-4.1c-2.77-2.82-8.68-3.97-14.53-3.15-5.85.82-7.42 1.57-7.2 3.86.09.92.68 1.6 1.39 2.09 1.16.81 2.61 1.1 4.02.92 9.39-1.19 12.46 3.57 12.46 3.57l.32 1.8s-6.16-3.47-10.52-1.25c-.71.36-1.26.82-1.7 1.32-2.5.29-4.8 1.92-5.87 4.2-1.11 2.37-.84 5.33.68 7.46.73 1.02 1.96 1.9 3.15 1.53.63-.2 1.1-.71 1.55-1.19.24-.25.49-.5.77-.71l1.6 4.93s4.18 10.89 5.46 15.83l13.03 82.73c1.81 11.47 12.67 19.23 24.11 17.22 12.43-2.17 20.05-14.86 16.14-26.87z" fill="#b78876"/><path d="M268.85 309.87c-1.68.66-3.58-.42-4.68-1.84-1.1-1.43-1.68-3.19-2.67-4.69-2.96-4.49-9.13-6.13-11.88-10.76-.38-.65-.65-1.56-.1-2.07.51-.47 1.33-.23 1.97.04 5.48 2.31 10.96 4.61 16.44 6.92" fill="#b78876"/><path d="M267.93 297.46c.03-.06-.58-.39-1.7-.93s-2.76-1.29-4.78-2.19c-2.12-.93-4.52-1.98-7.15-3.13-.68-.29-1.37-.59-2.07-.89-.68-.23-1.46-.84-2.63-.45-.58.22-.92.91-.88 1.44.01.54.19.99.41 1.4.46.76.97 1.46 1.58 2.1 2.45 2.56 5.41 4.01 7.63 5.83 1.13.89 2.09 1.85 2.8 2.89.71 1.03 1.2 2.15 1.76 3.13 1.04 2.03 2.72 3.27 4.02 3.48 1.32.24 1.98-.26 1.94-.28-.02-.1-.7.24-1.85-.1-1.15-.32-2.56-1.46-3.48-3.44-.5-.97-.96-2.11-1.69-3.25-.73-1.15-1.75-2.2-2.91-3.15-2.29-1.93-5.23-3.43-7.48-5.8-.57-.58-1.04-1.25-1.44-1.89-.37-.64-.4-1.33-.02-1.44.4-.18 1.15.13 1.86.43.71.29 1.4.58 2.08.86 2.66 1.07 5.09 2.06 7.23 2.92 2.06.82 3.74 1.47 4.91 1.89 1.17.43 1.83.64 1.86.57zM250.26 287.74c-.13.04-.06-1.44-1.42-3.05-.67-.79-1.74-1.47-3.09-1.77-1.34-.32-2.89-.3-4.52-.16-1.63.13-3.23.28-4.69.09-1.45-.19-2.74-.64-3.65-1.35-.93-.71-1.22-1.72-1.19-2.33.03-.63.19-.94.21-.94.06.01-.01.35.04.93.05.57.37 1.39 1.22 1.98.83.59 2.06.98 3.43 1.12 1.38.15 2.93-.01 4.57-.15 1.65-.14 3.28-.15 4.72.23 1.44.35 2.62 1.16 3.3 2.06.7.89.96 1.79 1.06 2.39.1.61.05.95.01.95zM255.2 264.02c.09 0 .21 1.25.4 3.27.22 2.25.48 4.93.76 7.89l.88 7.88c.23 2.02.38 3.27.28 3.28-.09.02-.39-1.21-.74-3.21-.36-2-.75-4.79-1.08-7.88-.32-3.09-.51-5.9-.57-7.93-.06-2.04-.02-3.3.07-3.3zM246.94 291.86c-.02.05-.37-.08-1-.27-.6-.17-1.62-.43-2.54.15-.45.28-.71.81-.7 1.46-.01.64.2 1.34.38 2.11.18.76.35 1.72-.11 2.62-.46.87-1.38 1.44-2.37 1.57-1.02.14-1.99-.26-2.7-.84-.71-.59-1.22-1.33-1.46-2.16-.41-1.59-.43-3.02-.39-4.22.06-1.2.27-2.17.54-2.8.27-.63.56-.89.58-.87.05.04-.16.34-.34.96-.19.62-.32 1.56-.32 2.73.01 1.16.1 2.59.5 4.04.42 1.33 1.86 2.72 3.5 2.52.8-.1 1.54-.58 1.89-1.22.35-.65.26-1.44.09-2.19-.16-.75-.38-1.51-.34-2.27 0-.75.4-1.52 1-1.83 1.2-.66 2.29-.23 2.88 0 .62.27.93.47.91.51z" fill="#aa6550"/><path d="M238.12 298.14c.03-.01.16.33.01.94-.15.58-.65 1.46-1.73 1.9-1.06.42-2.57.23-3.73-.73-1.16-.95-1.89-2.5-2.08-4.16a7.63 7.63 0 01.93-4.55 7.183 7.183 0 012.68-2.67c.94-.54 1.8-.76 2.4-.85.6-.08.93-.05.93-.01.03.13-1.35.14-3.08 1.25-.85.55-1.77 1.4-2.4 2.57-.64 1.16-.98 2.66-.81 4.18.16 1.52.82 2.93 1.81 3.77.98.85 2.27 1.06 3.18.75.93-.31 1.44-1.03 1.64-1.54.22-.51.19-.85.25-.85zM250.65 307.93c-.01-.06.57-.24 1.58-.15.99.09 2.43.53 3.65 1.71l-.54.22c0-.7.04-1.46.13-2.23.5-4.34 2.53-7.35 2.65-7.24.18.08-1.53 3.14-2 7.32-.09.75-.14 1.48-.15 2.16l-.02.75-.52-.53c-1.07-1.08-2.35-1.57-3.27-1.76-.93-.21-1.51-.17-1.51-.25z" fill="#aa6550"/><g><path d="M247.32 279.93c.16.06-.35 1.31-1.73 2.08-1.37.79-2.71.58-2.67.41 0-.19 1.16-.29 2.35-.98 1.2-.67 1.88-1.61 2.05-1.51z" fill="#aa6550"/></g><g><path d="M319.64 279.92c.03.03-.37.4-1.04 1.17-.64.78-1.68 1.94-2.32 3.72-.16.45-.24.93-.26 1.44.01.51.13 1.03.38 1.51.54.96 1.63 1.68 2.88 2.14 2.54.95 5.7 1.23 9.15 1.29 1.73.03 3.58.1 5.48.21.95.11 1.92.23 2.91.34.99.11 1.98.37 2.99.56 4.01.91 8.29 2.45 12.02 5.34 1.86 1.42 3.58 3.15 4.97 5.21.33.52.66 1.06.94 1.62.29.58.49 1.16.74 1.73.44 1.17.81 2.4 1.04 3.66 1 5.02.23 10.58-2.35 15.37-2.61 4.81-7.04 8.3-11.82 10.09-2.4.9-4.9 1.37-7.36 1.46-2.47.08-4.87-.36-7.12-.87-2.25-.5-4.42-1.02-6.54-1.17-2.12-.15-4.18.15-5.94 1.05-1.76.88-3.2 2.22-4.45 3.61-1.25 1.4-2.31 2.87-3.36 4.27-2.08 2.79-4.27 5.24-6.84 6.53-1.26.64-2.59 1.01-3.81 1-1.22.01-2.32-.23-3.25-.61-.93-.37-1.67-.88-2.23-1.41-.55-.54-.9-1.1-1.12-1.58-.41-.97-.35-1.54-.35-1.54.07-.01.09.55.54 1.44.24.44.6.95 1.14 1.44.55.48 1.27.93 2.16 1.26 1.76.65 4.27.82 6.64-.53 2.4-1.27 4.49-3.66 6.51-6.46 1.02-1.4 2.08-2.9 3.34-4.36 1.27-1.44 2.76-2.87 4.66-3.85 1.9-.99 4.16-1.33 6.39-1.19 2.24.14 4.45.66 6.69 1.14 2.24.49 4.53.89 6.88.81 2.35-.1 4.74-.55 7.03-1.42 4.57-1.73 8.79-5.06 11.26-9.64 2.46-4.56 3.21-9.88 2.27-14.68-.22-1.2-.56-2.37-.98-3.5-.23-.56-.44-1.14-.69-1.64-.26-.52-.56-1.03-.88-1.52-1.3-1.95-2.94-3.62-4.72-4.99-3.56-2.8-7.71-4.33-11.63-5.26-.99-.19-1.96-.46-2.93-.58-.97-.12-1.92-.25-2.86-.37-1.88-.13-3.68-.22-5.43-.27-3.49-.12-6.7-.44-9.34-1.49-1.31-.51-2.5-1.31-3.11-2.45-.29-.57-.41-1.18-.4-1.76.04-.57.15-1.1.33-1.57.75-1.87 1.85-2.99 2.55-3.73.77-.67 1.21-.99 1.24-.97z" fill="#fafafa"/></g><g><path d="M395.71 346.6c-.05.01-.3-.77-.48-2.25-.19-1.47-.17-3.66.42-6.27.57-2.61 1.85-5.59 3.88-8.48 2.04-2.88 4.88-5.65 8.4-7.75 3.53-2.06 7.24-3.33 10.68-4.03 3.44-.72 6.6-.94 9.25-.95 2.64-.01 4.78.14 6.24.32 1.46.17 2.27.33 2.26.39-.01.18-3.26-.17-8.48.03-2.61.11-5.71.4-9.06 1.15-3.35.74-6.94 2-10.35 3.99a27.908 27.908 0 00-8.15 7.41c-2 2.76-3.31 5.6-3.95 8.1-.65 2.5-.79 4.62-.73 6.06.04 1.45.16 2.26.07 2.28z" fill="#fafafa"/></g><g><path d="M450.35 363.98c.05.04-.34.68-1.18 1.76-.83 1.08-2.17 2.54-4.03 4.13-1.85 1.59-4.28 3.25-7.21 4.64-2.92 1.4-6.37 2.48-10.09 2.94-3.73.43-7.33.2-10.51-.46-3.18-.66-5.93-1.69-8.11-2.79-2.18-1.1-3.83-2.21-4.89-3.06-1.07-.84-1.6-1.38-1.56-1.43.12-.17 2.41 1.83 6.77 3.82 4.31 2 10.92 3.75 18.17 2.88 7.25-.88 13.25-4.16 16.96-7.12 3.78-2.96 5.52-5.44 5.68-5.31z" fill="#fafafa"/></g><g><path d="M400.12 360.78c.01.04-.32.14-.91.37-.59.23-1.44.68-2.29 1.52-.85.85-1.66 2.1-2.3 3.69-.64 1.6-1.16 3.51-1.61 5.64-.46 2.14-.81 4.54-1.63 7.05-.42 1.25-.96 2.53-1.73 3.73-.78 1.19-1.76 2.31-2.92 3.26-2.3 1.93-5.19 3.27-8.26 4.18-3.08.91-6.34 1.41-9.62 2.06-6.54 1.21-12.53 3.63-17.1 7.12-2.29 1.72-4.2 3.7-5.7 5.74a25.013 25.013 0 00-3.25 6.26c-1.41 4.11-1.42 7.73-1.06 10.12.36 2.41.91 3.68.8 3.71-.03.01-.18-.29-.42-.9-.13-.3-.25-.68-.39-1.14-.15-.45-.27-.99-.39-1.6-.49-2.42-.61-6.15.76-10.42.69-2.12 1.75-4.35 3.25-6.52 1.53-2.15 3.48-4.2 5.82-6 4.67-3.64 10.83-6.15 17.48-7.38 3.31-.65 6.54-1.14 9.53-2.01 2.98-.86 5.75-2.14 7.94-3.94 1.1-.88 2.02-1.92 2.76-3.02.73-1.11 1.26-2.31 1.68-3.5.82-2.4 1.22-4.78 1.73-6.93.5-2.16 1.08-4.08 1.79-5.71.72-1.63 1.62-2.91 2.56-3.76.95-.84 1.87-1.25 2.5-1.43.63-.19.98-.21.98-.19z" fill="#fafafa"/></g><g><path d="M373.33 356.61c.04-.02.41.67.52 2.05.11 1.36-.18 3.46-1.6 5.53-.71 1.02-1.69 2.04-3.01 2.73-.65.37-1.39.61-2.17.79-.78.13-1.61.2-2.44.1-1.67-.17-3.36-.83-4.8-1.94-1.43-1.11-2.62-2.72-3.1-4.64-.3-1.22-.32-2.49-.05-3.68.26-1.21.93-2.27 1.59-3.14.68-.89 1.4-1.69 2.19-2.4.4-.35.81-.68 1.27-.95.46-.27.95-.52 1.57-.55l.13.89c-.17.04-.33.08-.49.12l-.25-.86a8.49 8.49 0 015.51.3c1.55.59 2.69 1.54 3.48 2.4.78.88 1.2 1.72 1.42 2.3.22.61.27.94.23.95-.13.06-.43-1.29-2.02-2.87-.79-.77-1.9-1.59-3.35-2.08-1.43-.52-3.23-.68-4.99-.13l-.25-.86c.16-.04.32-.09.49-.13l.13.89c-.7.07-1.53.66-2.23 1.31-.72.66-1.4 1.44-2.03 2.28-.64.85-1.17 1.73-1.39 2.76a7.07 7.07 0 00.05 3.2c.41 1.66 1.44 3.08 2.71 4.08 1.28 1 2.8 1.62 4.28 1.79.74.1 1.47.05 2.17-.05.69-.15 1.35-.34 1.94-.65 1.2-.58 2.12-1.49 2.81-2.4 1.38-1.86 1.78-3.8 1.79-5.09.02-1.3-.21-2.02-.11-2.05z" fill="#fafafa"/></g><g><path d="M308.8 323.95c.01 0 .01.09.01.27-.01.21-.01.47-.03.79-.04.73-.09 1.74-.15 3.02-.16 2.62-.31 6.41-.52 11.09-.39 9.37-.77 22.31-1.08 36.62-.31 14.31-.49 27.26-.63 36.64-.07 4.66-.13 8.44-.17 11.1-.03 1.28-.05 2.29-.06 3.02-.01.32-.02.58-.03.78-.01.18-.02.27-.03.27-.01 0-.02-.09-.03-.27-.01-.21-.01-.47-.02-.79-.01-.73-.02-1.74-.03-3.02v-11.11c.04-9.38.17-22.33.48-36.64.3-14.31.74-27.26 1.23-36.62.26-4.68.47-8.47.69-11.09.1-1.28.19-2.28.25-3.01.03-.32.06-.58.08-.78.02-.18.04-.27.04-.27z" fill="#263238"/></g><g opacity=".2"><path d="M289.69 416.93c5.58 2.67 12.87-2.46 15.72-7.95 0 0 1.49-12.1 1.28-18.28-.38-11.44.45-22.77.07-34.21-.86 6.81-3.74 13.34-8.16 18.58-1.22 1.45-2.61 2.88-3.07 4.73-.82 3.3 1.7 9.23 3.32 12.22 4.96 9.14-5.9 24.96-8.8 24.67"/></g><g opacity=".2"><path d="M394.12 342.28c1.83 22.8 3.65 45.6 5.48 68.4.17 2.15.36 4.35 1.2 6.34.85 1.99 2.49 3.77 4.6 4.2 3.24.66 6.38-2.13 7.3-5.31.92-3.18.18-6.57-.61-9.79-1.36-5.47-2.89-10.89-4.43-16.31-4.46-15.73-8.92-31.46-13.39-47.18"/></g><g><path d="M331.44 459.07c-.11-.06.95-1.14 1.52-3.63.57-2.47.21-6.29-1.7-10.42-.94-2.07-2.27-4.21-3.61-6.58-1.33-2.36-2.73-5-3.39-8.08-.67-3.09-.29-6.47.71-9.68.98-3.22 2.44-6.35 3.62-9.63 2.5-6.5 2.37-13.43.5-19.13-.92-2.86-2.25-5.41-3.79-7.59a29.151 29.151 0 00-5.06-5.42c-3.53-2.9-6.98-4.42-9.39-5.24-2.43-.81-3.85-1.03-3.83-1.13.01-.04.36 0 1.04.09.67.1 1.67.29 2.91.65 2.49.71 6.05 2.16 9.73 5.05 1.82 1.46 3.66 3.27 5.29 5.49 1.62 2.23 3.02 4.85 4 7.8a29.53 29.53 0 011.5 9.57c.01 3.38-.7 6.88-1.93 10.21-1.2 3.34-2.66 6.45-3.62 9.58-.98 3.11-1.35 6.28-.74 9.19.59 2.91 1.92 5.49 3.2 7.85 1.3 2.37 2.6 4.55 3.53 6.7 1.88 4.29 2.14 8.28 1.42 10.82-.34 1.28-.87 2.17-1.23 2.74-.41.55-.65.81-.68.79z" fill="#fafafa"/></g><g><path d="M425.32 294.56c.05.02-.19.78-.97 1.99-.77 1.2-2.17 2.81-4.34 4.21-2.15 1.41-5.12 2.54-8.53 2.82-3.4.3-7.17-.2-10.89-1.39-3.72-1.18-7.11-3.03-9.51-5.52-1.19-1.23-2.15-2.6-2.77-4-.62-1.4-.96-2.81-1.08-4.1-.24-2.6.41-4.7 1.11-5.95.16-.32.34-.59.51-.81.15-.23.3-.41.44-.55.26-.28.4-.41.43-.39.08.06-.44.66-1.01 1.92-.56 1.25-1.06 3.25-.74 5.69.16 1.21.51 2.52 1.13 3.82.61 1.29 1.53 2.55 2.67 3.69 2.29 2.3 5.53 4.06 9.14 5.2 3.61 1.15 7.24 1.66 10.5 1.43 3.26-.22 6.1-1.21 8.21-2.49 2.13-1.27 3.55-2.73 4.4-3.82.85-1.09 1.22-1.79 1.3-1.75z" fill="#fafafa"/></g><g><path d="M411.63 402.13c-.01 0-.04-.09-.11-.28-.07-.22-.15-.49-.26-.84-.23-.78-.55-1.86-.95-3.24-.81-2.85-1.97-6.92-3.4-11.93-2.83-10.11-6.73-24.03-11.04-39.4-2.13-7.7-4.17-15.03-6.02-21.71-.92-3.34-1.72-6.55-2.13-9.62-.42-3.07-.44-5.98-.03-8.59.87-5.25 3.44-8.97 5.66-10.88 1.11-.98 2.13-1.53 2.81-1.89.33-.14.6-.25.81-.34.18-.07.28-.11.28-.1.05.08-1.58.53-3.77 2.48-2.14 1.93-4.62 5.62-5.43 10.79-.39 2.57-.34 5.45.09 8.47.43 3.04 1.24 6.22 2.16 9.55 1.86 6.67 3.91 14 6.06 21.7 4.25 15.39 8.1 29.32 10.89 39.44 1.36 5.03 2.47 9.11 3.24 11.97.36 1.39.65 2.48.86 3.26.09.35.16.63.21.85.06.21.08.31.07.31z" fill="#263238"/></g><g><path d="M370.9 180.68c-.07-.01.18-.77.01-2.14-.17-1.35-.93-3.32-2.76-4.97-1.78-1.7-4.71-2.71-7.96-2.63-3.27.03-6.75 1.1-10.35 2.31-1.81.6-3.59 1.16-5.35 1.55-1.77.38-3.51.59-5.17.63-3.33.1-6.31-.44-8.71-1.15-2.4-.73-4.24-1.62-5.45-2.31-.61-.34-1.07-.64-1.37-.85-.3-.21-.46-.32-.45-.34.03-.05.68.38 1.92 1 1.24.63 3.07 1.46 5.46 2.14 2.39.65 5.32 1.14 8.6 1.02 1.63-.05 3.34-.27 5.08-.65 1.74-.39 3.5-.96 5.3-1.55 3.59-1.21 7.14-2.3 10.5-2.3 3.34-.06 6.4 1.03 8.22 2.84 1.87 1.75 2.6 3.82 2.72 5.21.09 1.45-.24 2.19-.24 2.19z" fill="#455a64"/></g><g><path d="M384.66 210.57c-.02.01-.1-.12-.23-.37-.14-.25-.33-.63-.55-1.13-.44-.99-.99-2.48-1.41-4.4-.4-1.91-.66-4.25-.46-6.84.16-2.6.97-5.34 1.58-8.22.63-2.86.78-5.72.02-8.13-.36-1.2-.96-2.25-1.69-3.08a6.244 6.244 0 00-2.54-1.67c-1.8-.63-3.42-.35-4.36.11-.95.48-1.31 1-1.36.95 0 0 .3-.57 1.26-1.13.96-.54 2.66-.9 4.58-.28.95.3 1.93.86 2.74 1.72.8.86 1.44 1.97 1.83 3.23.82 2.51.67 5.48.04 8.38-.62 2.91-1.43 5.61-1.61 8.15a25.184 25.184 0 001.58 11.12c.36 1.03.62 1.57.58 1.59z" fill="#455a64"/></g><g><path d="M372.6 179.25c-.02 0-.01-.25.01-.71.02-.52.04-1.19.08-2.03.02-1.75.07-4.34-.82-7.34-.46-1.48-1.2-3.05-2.36-4.46-1.15-1.4-2.76-2.63-4.74-3.13-1.97-.54-4.18-.35-6.33.26-2.16.61-4.24 1.69-6.33 2.87-2.09 1.18-4.14 2.38-6.28 3.23-2.15.83-4.36 1.26-6.47 1.3-2.11.05-4.12-.22-5.92-.73-1.8-.51-3.41-1.21-4.81-1.98-2.77-1.59-4.6-3.47-5.69-4.86-.56-.69-.92-1.28-1.15-1.68-.24-.4-.36-.61-.34-.62.02-.01.16.19.43.57.26.38.64.95 1.22 1.61 1.12 1.34 2.97 3.14 5.71 4.66 1.38.74 2.97 1.4 4.74 1.88s3.74.72 5.8.66c2.06-.05 4.2-.48 6.29-1.29 2.09-.83 4.11-2.02 6.21-3.21 2.09-1.19 4.22-2.29 6.45-2.91 2.21-.62 4.52-.81 6.59-.23 2.09.55 3.78 1.86 4.95 3.32 1.19 1.47 1.94 3.1 2.38 4.63.86 3.09.74 5.7.67 7.46-.05.88-.12 1.57-.17 2.03-.06.46-.1.71-.12.7z" fill="#455a64"/></g><g><path d="M346.19 429.3l74.78-11.15-1.21-6.65h40.25l1.18 10.23c3.65 18.96-10.77 36.59-30.07 36.78l-87.22-.97 2.29-28.24z" fill="#b78876"/><path d="M351.59 430.58c-.4.13-5.44-2.13-9.95-4.21a32.486 32.486 0 00-15.32-2.97l-20.79 1.06s1.28 3.43 3.49 4.65c2.2 1.22 15.13 1.48 15.13 1.48l-.66.68c-2.72 2.8-6.44 4.43-10.35 4.53l-1.99.05c-1.47-.12-2.93-.4-4.34-.85l-5.13-2.07c-1.55-.7-3.19-.59-3.87.98-.61 1.41-.16 3.36 4.07 5.49 2.37 1.19 11.14 4.23 11.14 4.23s.13 2.43.51 3.7c.38 1.28 3.83 2.55 3.83 2.55s2.17 4.47 3.06 5.49c.4.46 3.52 1.43 6.85 2.36a29.432 29.432 0 0016.38-.12l7.92-2.37V431.1" fill="#b78876"/><path d="M323.14 446.35c-.01.13-2.48.01-5.41-.77-2.93-.77-5.14-1.87-5.09-1.99.06-.14 2.33.73 5.22 1.49 2.9.77 5.3 1.12 5.28 1.27zM322.41 451.22c0 .14-1.34.22-2.92-.21-1.59-.43-2.7-1.18-2.63-1.3.07-.13 1.25.39 2.77.79 1.51.43 2.79.57 2.78.72z" fill="#aa6550"/><g><path d="M440.73 435.59c-.1.04-.59-1.45-1.79-3.64-.59-1.1-1.4-2.35-2.39-3.66a32.61 32.61 0 00-3.63-3.93c-1.42-1.26-2.9-2.32-4.29-3.19-1.41-.85-2.74-1.52-3.9-1.99-2.31-.96-3.83-1.29-3.81-1.39.01-.04.39.03 1.08.18.35.07.77.17 1.24.33.48.15 1.03.3 1.62.54 1.19.43 2.56 1.08 4.01 1.92 1.44.86 2.95 1.93 4.4 3.22 1.43 1.3 2.66 2.69 3.67 4.02.99 1.35 1.78 2.64 2.34 3.78.31.55.51 1.09.71 1.55.21.46.35.87.46 1.2.21.67.31 1.05.28 1.06z" fill="#aa6550"/></g><g><path d="M326.21 428.72c.05.05-.55.72-1.61 1.72-1.06.99-2.6 2.3-4.53 3.43a17.825 17.825 0 01-5.31 2.05c-1.43.29-2.33.31-2.34.25-.05-.19 3.6-.52 7.39-2.75 1.88-1.1 3.43-2.35 4.55-3.26 1.11-.92 1.8-1.5 1.85-1.44z" fill="#aa6550"/></g></g></g><g><path d="M111.08 404.97c1.78 0-13.62 41.38-17.58 51.95-.44 1.17-.75 2.2-.75 2.2l107.82.19-1.27-100.32c0-.07-.01-.13-.01-.2l-9.02-71.76c-.09-.71-.6-1.3-1.29-1.49-4.27-1.16-19.65-5.13-31.42-5.56-13.8-.51-33.75 2.23-33.75 2.23s-17.9 1.85-27.76 5.4c-.79.29-1.27 1.08-1.16 1.91l16.19 115.45z" fill="#fba745"/><path d="M160.87 360.5c.03.01-.16.48-.54 1.3-.18.42-.42.92-.76 1.47-.33.56-.66 1.21-1.14 1.87-.45.68-.96 1.41-1.57 2.15-.58.77-1.29 1.5-2.02 2.29a35.302 35.302 0 01-5.41 4.45 35.386 35.386 0 01-6.24 3.18c-1.02.35-1.98.71-2.91.94-.92.27-1.8.44-2.6.59-.8.18-1.53.22-2.17.3-.64.08-1.2.11-1.65.11-.91.02-1.41.01-1.41-.03-.01-.11 2.01-.1 5.17-.74.79-.16 1.65-.35 2.55-.64.92-.24 1.86-.61 2.86-.97 1.97-.8 4.07-1.84 6.13-3.17 2.04-1.36 3.83-2.87 5.35-4.35.73-.77 1.45-1.48 2.03-2.23.62-.71 1.14-1.43 1.61-2.08 1.82-2.63 2.62-4.49 2.72-4.44z" fill="#263238"/><path d="M96.41 449.1c10.2 4.33 21.96 2.64 30.93-3.87 3.89-2.82 7.15-6.51 11.35-8.85 5.82-3.25 12.75-3.55 19.4-4.03 8.9-.63 17.86-1.73 26.22-4.82 1.69-.63 3.43-1.38 4.59-2.77 1.16-1.39 1.55-3.58.42-4.99-1.15-1.44-3.28-1.52-5.13-1.47-27.88.82-53.36 3.06-80.5 9.51" opacity=".2"/><path d="M126.46 176.76c8.62-8.77 22.22-13.95 33.49-9.02 7.58 3.31 12.71 10.42 19.36 15.34 4.84 3.58 10.83 6.35 13.36 11.81 2.24 4.81 1.16 10.42.62 15.7-.54 5.28-.16 11.37 3.93 14.76 2.15 1.78 4.97 2.48 7.39 3.87 4.87 2.79 7.76 8.22 8.8 13.73 1.04 5.51.48 11.19-.09 16.77l-23.21 4.42-3.81-6.41-1.33 10.08-29.62 2.67-28.89-93.72z" fill="#263238"/><path d="M122.63 186.34l-.05 6.46-1.83 96.8c-.16 11.22 10.58 20.77 22.59 20.85 12.14.08 17.09-9.04 17.43-20.37.36-11.89.97-24.41.97-24.41s15.39-2.12 19.12-22.03c1.85-9.9 1.8-26.22 1.33-39.57-.42-12.02-10.76-21.26-22.74-20.33l-36.82 2.6z" fill="#ffbe9d"/><path d="M176.92 216.94c.01 1.36-1.13 2.48-2.54 2.52-1.41.04-2.57-1.03-2.58-2.38-.01-1.36 1.13-2.48 2.54-2.52 1.42-.05 2.57 1.02 2.58 2.38zM178.43 212.46c-.33.33-2.23-1.17-4.99-1.23-2.76-.11-4.82 1.26-5.11.91-.14-.15.2-.75 1.1-1.37.89-.62 2.38-1.2 4.1-1.14 1.72.06 3.15.73 3.96 1.4.83.67 1.1 1.28.94 1.43zM149.74 216.94c.01 1.36-1.13 2.48-2.54 2.52-1.41.04-2.57-1.03-2.58-2.38-.01-1.36 1.13-2.48 2.54-2.52 1.42-.05 2.57 1.02 2.58 2.38zM151.29 212.23c-.33.33-2.23-1.17-4.99-1.23-2.76-.11-4.82 1.26-5.11.91-.14-.15.2-.75 1.1-1.37.89-.62 2.38-1.2 4.1-1.14 1.72.06 3.15.73 3.96 1.4.83.67 1.1 1.28.94 1.43zM160.74 232.97c-.01-.16 1.72-.41 4.5-.68.71-.05 1.38-.18 1.51-.65.18-.5-.09-1.27-.41-2.1-.62-1.72-1.26-3.53-1.94-5.42-2.68-7.72-4.6-14.06-4.29-14.16.31-.11 2.74 6.07 5.42 13.78.64 1.9 1.26 3.72 1.85 5.45.24.81.68 1.73.29 2.78-.2.52-.73.89-1.19 1-.46.13-.85.12-1.2.13-2.8.06-4.53.02-4.54-.13z" fill="#263238"/><path d="M161.75 265.67s-13.48.5-26.58-7.88c0 0 6.12 13.91 26.18 12.59l.4-4.71zM159.39 239.58c-.96-1.34-2.67-2.11-4.41-1.97-1.2.1-2.43.64-3.18 1.59-.75.95-.94 2.34-.31 3.28.72 1.07 2.26 1.35 3.59 1.01 1.33-.34 2.48-1.17 3.58-2.01.3-.23.62-.47.81-.79.19-.32.25-.75.02-1.03" fill="#eb996e"/><path d="M152.57 234.65c.45-.01.37 2.98 2.88 5.18 2.5 2.2 5.7 1.96 5.71 2.37.04.19-.73.56-2.08.56-1.32.01-3.24-.47-4.77-1.81-1.53-1.35-2.15-3.1-2.22-4.34-.08-1.25.27-1.98.48-1.96zM152.17 204.2c-.29.74-3.04.31-6.29.61-3.25.24-5.89 1.11-6.3.43-.18-.33.29-1.02 1.37-1.72 1.07-.7 2.75-1.34 4.7-1.5 1.95-.16 3.72.2 4.89.71 1.17.51 1.75 1.12 1.63 1.47zM178.53 206.89c-.61.61-2.9-.1-5.69-.21-2.78-.19-5.15.28-5.67-.39-.23-.32.16-.94 1.21-1.51 1.03-.56 2.74-1 4.65-.9 1.91.1 3.55.72 4.5 1.38.96.67 1.27 1.33 1 1.63z" fill="#263238"/><path d="M102 285.77s-32.16 7.55-38.4 38.04c-2.87 14.01-6.88 94.47 11.86 106.97 24.19 16.13 54.95 1.45 54.95 1.45l-3.95-38.92h-19.97l-2.69-42.64c.75 3.28-1.8-64.9-1.8-64.9zM216.4 419.71c6.23-.64 12.18-3.74 16.28-8.48 4.1-4.74 6.3-11.08 6.03-17.34l-13.13-55.82s-8.52-47.91-35.45-52.22l9.18 73.03-.88 15.39s.42 10.18 1.45 29.26l16.52 16.18z" fill="#fba745"/><path d="M219.88 384.78c0 .11-1.9-.09-4.85.53-2.92.6-6.92 2.24-10.14 5.52-3.22 3.29-4.77 7.32-5.31 10.26-.56 2.96-.32 4.86-.43 4.86-.03 0-.11-.46-.15-1.32-.05-.85-.02-2.09.22-3.61.45-3 1.99-7.17 5.3-10.56 3.31-3.38 7.45-5 10.44-5.51 1.51-.27 2.75-.33 3.6-.3.86.03 1.33.1 1.32.13zM136.91 174.53c3.62 4.86 5.34 8.6 7.51 17.24 1.06 4.23-2.38 7.23-5.8 9.81-1.6 1.21-3.92.37-4.36-1.6 0 0 1.19 13.25-3.6 19.19-2.25 2.78-2.34 6.36-1.81 9.37.54 3.07 2.13 5.84 4.28 8.1 5.55 5.84 7.1 15.37 3.27 22.53-.98 1.83-2.26 3.51-3.04 5.44-.45 1.1-.71 2.34-.64 3.52.09 1.46-.92 2.75-2.36 2.96a218.061 218.061 0 01-49.7 1.49c-1.17-.1-2.16-.92-2.43-2.06-1.3-5.49.87-11.48 3.64-16.53 3.1-5.65 7.04-11.06 8.11-17.41 1-5.98-.63-12.42 1.77-17.99 2.95-6.83 10.96-10.06 14.97-16.32 3.78-5.91 3.48-13.66 6.87-19.81 4.35-7.9 15.06-11.54 23.32-7.93" fill="#263238"/><path d="M137.83 181.86c6.29 3.23 9.19 10.92 15.3 14.49 5.56 3.24 12.51 2.39 18.88 1.43-.24-1.41-.47-2.83-.71-4.24.64 1.24 1.31 2.51 2.36 3.43 1.05.92 2.58 1.44 3.87.92 2.14-.86 2.42-3.8 1.87-6.04-.88-3.58-2.97-6.79-5.56-9.42-4.7-4.78-11.16-7.79-17.84-8.32-6.68-.53-13.54 1.41-18.94 5.38M196.8 324.21c.02 0 .04.27.06.79.02.56.04 1.31.07 2.25.04 1.96.14 4.79.29 8.28.29 6.99.94 16.63 1.73 27.28.79 10.65 1.38 20.31 1.58 27.31.1 3.5.14 6.33.12 8.29-.01.94-.02 1.69-.03 2.25-.01.52-.03.79-.05.79-.02 0-.04-.27-.06-.79-.02-.56-.04-1.31-.07-2.25-.04-1.96-.14-4.79-.29-8.28-.29-6.99-.94-16.63-1.73-27.29-.79-10.65-1.38-20.31-1.58-27.31-.1-3.5-.14-6.33-.12-8.29.01-.94.02-1.69.03-2.25.02-.51.04-.78.05-.78zM106.49 393.32c-.02 0-.04-.19-.07-.56-.03-.42-.06-.96-.1-1.61a1705.743 1705.743 0 00-1.57-25.37c-.53-7.57-1-14.42-1.35-19.47-.16-2.44-.29-4.44-.39-5.9-.03-.65-.06-1.18-.08-1.61-.01-.37-.01-.56.01-.56s.05.19.1.55c.05.42.11.95.18 1.6.14 1.46.32 3.46.55 5.89.44 4.98.99 11.86 1.51 19.46.52 7.6.9 14.5 1.09 19.49.09 2.5.15 4.52.16 5.92 0 .65 0 1.18.01 1.61-.02.36-.03.56-.05.56z" fill="#263238"/><path d="M106.49 393.32c.01.09-1.04.14-2.62.67-1.56.52-3.65 1.63-5.28 3.56-1.63 1.93-2.37 4.18-2.61 5.8-.26 1.64-.12 2.69-.22 2.69-.03 0-.1-.25-.15-.72-.06-.47-.08-1.17.01-2.02.16-1.69.88-4.06 2.58-6.09 1.71-2.02 3.93-3.14 5.56-3.58.82-.23 1.51-.32 1.99-.35.48-.02.74 0 .74.04z" fill="#263238"/><path d="M130.41 432.24c-.02 0-.06-.21-.12-.62-.06-.46-.14-1.05-.23-1.78-.18-1.61-.44-3.83-.75-6.54-.59-5.59-1.39-13.19-2.27-21.6-.29-2.92-.58-5.74-.84-8.37l.25.23c-6.41-.04-11.96-.07-15.99-.09-1.93-.03-3.49-.06-4.64-.07-.5-.02-.91-.03-1.24-.04-.28-.01-.43-.03-.43-.04 0-.01.15-.03.43-.04.33-.01.74-.02 1.24-.04 1.15-.02 2.71-.04 4.64-.07 4.03-.02 9.58-.06 15.99-.09h.23l.02.23.86 8.36c.82 8.41 1.57 16.02 2.12 21.61.24 2.72.44 4.94.58 6.56.05.73.1 1.32.13 1.79.03.39.04.6.02.61z" fill="#263238"/><path d="M130.41 432.24c.01.02-.25.11-.75.28-.55.17-1.28.41-2.19.7-1.91.59-4.68 1.44-8.14 2.36-3.46.92-7.62 1.91-12.32 2.56-4.7.73-10.02.44-15.37-.73-2.68-.58-5.25-1.32-7.69-2.17-1.22-.43-2.4-.88-3.55-1.36-.57-.24-1.14-.46-1.69-.76l-.82-.41-.76-.49c-2.01-1.32-3.58-3.02-4.82-4.73-1.25-1.72-2.19-3.46-2.97-5.07-1.53-3.25-2.43-6.02-3.02-7.93-.29-.96-.51-1.7-.65-2.21s-.2-.78-.18-.78c.02-.01.11.25.29.75.18.54.43 1.27.74 2.18.65 1.89 1.6 4.62 3.16 7.83.79 1.59 1.75 3.3 2.99 4.98 1.24 1.67 2.78 3.32 4.74 4.58l.74.47.79.4c.52.28 1.1.5 1.66.74 1.14.47 2.32.91 3.53 1.34 2.42.84 4.98 1.57 7.63 2.14 5.31 1.16 10.54 1.45 15.19.76 4.67-.62 8.83-1.57 12.29-2.44 3.46-.88 6.25-1.67 8.17-2.2.93-.25 1.67-.45 2.22-.61.5-.14.77-.2.78-.18zM113.44 198.22c2.06-4.64.73-10.47-2.92-13.99-3.66-3.52-9.34-4.64-14.16-3.07-2.16.7-4.2 1.94-5.53 3.78-2.45 3.39-1.97 8.37.56 11.69 2.54 3.32 6.76 5.08 10.93 5.31 4.17.23 8.32-.91 12.18-2.52" fill="#263238"/><path d="M146.69 356.82c6.99 5.77 23.45 19.43 23.45 19.43l9.22-1.64-27.92-23.49a3.705 3.705 0 00-5.07.28 3.705 3.705 0 00.32 5.42z" fill="#455a64"/><path d="M145.95 353.82l-3.63-3.27a1.78 1.78 0 01-.17-2.46 1.77 1.77 0 012.55-.16l3.49 3.19-2.24 2.7z" fill="#455a64"/><path d="M156.74 355.58c.1.1-.9 1.33-2.25 2.75s-2.52 2.49-2.62 2.39c-.1-.1.9-1.33 2.25-2.75 1.34-1.42 2.52-2.49 2.62-2.39z" fill="#263238"/><path d="M157.02 367.08c-.04.06-1.12-.62-2.79-1.82a87.54 87.54 0 01-6.28-5c-1.17-1.01-2.36-2.06-2.94-3.38a4.83 4.83 0 01-.09-3.67c.39-1 1.02-1.63 1.48-1.99.47-.35.78-.46.79-.43.02.04-.25.2-.66.59-.4.39-.95 1.02-1.26 1.96-.32.92-.36 2.18.18 3.35.54 1.19 1.66 2.17 2.84 3.19 2.35 2.05 4.56 3.83 6.16 5.1 1.61 1.26 2.61 2.04 2.57 2.1z" fill="#263238"/><path d="M126.77 396.43c6.63-2.23 13.68-.73 20.31-2.96 2.22-.75 4.51-1.53 6.27-3.09 2.11-1.87 3.18-4.62 4.86-6.88 5.02-6.76 14.4-8.16 22.77-9.02 1.96-.2 3.96-.4 5.86.08 1.91.48 3.73 1.79 4.26 3.68.54 1.89-.69 4.25-2.64 4.45 1.84.08 3.12 1.94 3.46 3.75.34 1.81.04 3.68.28 5.5.34 2.56 1.74 4.95 1.66 7.53-.11 3.53-3.04 6.44-6.3 7.8-3.26 1.36-6.87 1.54-10.36 2.03-17.17 2.42-30.23 12.17-46.79 19.53" fill="#ffbe9d"/><path d="M192.08 388.82c.57 1.18 2.31 1.44 3.38.7 1.07-.75 1.49-2.2 1.3-3.49-.19-1.3-.88-2.46-1.66-3.52-1.41-1.93-3.11-3.62-4.81-5.31l-5.32 4.45 7.11 7.17z" fill="#ffbe9d"/><path d="M190.12 383c-.01.16-3.26-.1-7.19.51-3.94.58-6.96 1.79-7.02 1.64-.02-.06.7-.44 1.94-.9s3.01-.96 5-1.26c2-.3 3.83-.34 5.15-.27 1.32.07 2.13.22 2.12.28zM192.46 393.42c-.03.16-2.74-.4-6.1-.3-3.37.07-6.04.76-6.08.6-.05-.12 2.62-1.05 6.07-1.12 3.44-.1 6.15.7 6.11.82z" fill="#eb996e"/><path d="M191.9 390.34c-.08-.01 0-.78-.15-2-.15-1.21-.59-2.89-1.61-4.44-.21-.33-.45-.64-.68-.93l-.15-.19.17-.16c1.11-1.09 1.42-2.55 1.38-3.52-.02-.99-.3-1.57-.22-1.6.04-.03.43.51.56 1.57.13 1.03-.13 2.66-1.36 3.91l.02-.35c.25.3.5.62.73.97 1.08 1.64 1.49 3.43 1.54 4.7.04 1.28-.18 2.05-.23 2.04z" fill="#eb996e"/><path d="M192.09 388.25l8.72 8.19 1.12 4.86-8.07-1.82c-1.16-4.11-2.01-8.02-1.77-11.23z" fill="#455a64"/><path d="M180.28 398.67c-.18.32-47.07 23.44-47.07 23.44v4.97l47.85-24.89 59.38-2.24v-3.52l-60.16 2.24z" fill="#f5f5f5"/><path d="M133.2 427.8c.33-.22 51.77-4.86 51.77-4.86l55.46-22.99-59.38 2.24-47.85 24.89v.72z" fill="#263238"/><path d="M182.46 415.49c-.42-2.69 2.16-5 4.79-5.72s5.44-.43 8.1-1.04c1.71-.39 3.31-1.13 4.94-1.76 8.2-3.15 17.2-3.31 25.98-3.43 1.09 2.34.19 5.43-1.99 6.82.8 2.1.56 4.5-.27 6.59-.83 2.09-2.2 3.92-3.66 5.63-1.24 1.45-2.6 2.87-4.34 3.63-1.73.76-3.67.81-5.56.85-5.89.12-12.21.13-17.09-3.18-3.79-2.57-6.41-6.99-10.8-8.3.35.01.69.03 1.04.04" fill="#ffbe9d"/><path d="M221.76 412.22c0 .04-.4.07-1.13.11-.84.03-1.87.06-3.08.1-2.6.06-6.19.11-10.15.13h-5.59c-.87-.02-1.72-.1-2.47-.38-.75-.28-1.38-.74-1.79-1.3-.41-.56-.57-1.23-.47-1.77.09-.55.35-.96.62-1.23.58-.54 1.08-.45 1.05-.44.02.05-.44.05-.91.58-.46.49-.81 1.66-.01 2.64.37.48.95.88 1.63 1.11.69.23 1.49.3 2.34.31 1.73-.01 3.61-.03 5.58-.04 3.96-.02 7.55-.01 10.15.03 1.21.03 2.24.05 3.08.07.75.01 1.15.04 1.15.08zM218.74 417.16c0 .04-.5.13-1.42.28-.92.14-2.25.33-3.9.49-1.65.15-3.64.27-5.85.14-2.21-.12-4.6-.63-7.06-1.19-4.91-1.2-9.47-1.57-12.77-1.57-1.65-.01-2.99.06-3.91.11-.92.05-1.44.08-1.44.04 0-.03.5-.13 1.42-.25.92-.11 2.26-.24 3.93-.27 3.32-.1 7.96.22 12.89 1.43 2.46.56 4.81 1.08 6.98 1.22 2.17.16 4.14.08 5.78-.03 1.65-.11 2.98-.25 3.91-.32.93-.09 1.44-.12 1.44-.08zM213.85 422.44c0 .04-.39.11-1.1.21-.71.09-1.75.22-3.03.33-2.56.21-6.17.43-10.08-.33-3.95-.75-7.02-2.76-9.37-3.7-2.35-1.01-3.96-1.12-3.95-1.21 0-.02.41-.05 1.12.06.72.1 1.75.35 2.96.81 2.44.88 5.5 2.81 9.34 3.53 3.82.74 7.4.58 9.95.47 1.2-.07 2.21-.12 3.04-.17.71-.03 1.11-.04 1.12 0z" fill="#eb996e"/><path d="M200.55 395.59c.5-3.64 1.28-7.28 2.92-10.57s4.21-6.21 7.55-7.73c3.34-1.52 7.5-1.46 10.51.64.91.63 1.72 1.46 2.1 2.5.38 1.04.25 2.3-.5 3.11-1.11 1.17-2.97.99-4.58.92-7.34-.32-14.68 4.1-17.83 10.74M113.71 392.55c3.97-7.17 2.56-16.16-.48-23.76-3.05-7.61-7.6-14.6-9.93-22.46-.44 15.89 1.89 31.86 6.85 46.96" opacity=".2"/><path d="M120.75 282.88s4.85 11.43 22.35 10.7c17.5-.73 18.06-14.3 18.06-14.3l11.71 12.45-11.12 22.92-14.94 11.15-20.35-8.36-16.77-13.01 11.06-21.55z" fill="#fba745"/><path d="M79.77 331.74c.18.22-2.11 2.36-5.11 4.77-3 2.41-5.58 4.18-5.76 3.96-.18-.22 2.11-2.36 5.11-4.77 3-2.41 5.58-4.19 5.76-3.96z" fill="#fafafa" opacity=".5"/><path d="M87.97 319.41c-.09.26-2.85-.52-5.84-2.36-3-1.83-4.94-3.94-4.75-4.14.2-.22 2.4 1.48 5.3 3.25 2.89 1.78 5.4 2.97 5.29 3.25zM103 320.75c.24.18-1.97 3.4-4.49 7.47-2.53 4.07-4.42 7.48-4.69 7.35-.25-.12 1.24-3.77 3.8-7.9 2.56-4.13 5.17-7.1 5.38-6.92zM90.16 355.5c-.2.18-2.51-2.17-4.53-5.67-2.04-3.49-2.93-6.66-2.67-6.75.28-.11 1.59 2.83 3.58 6.23 1.95 3.4 3.85 5.99 3.62 6.19zM76.74 372.31c-.29.04-.87-2.51-1.3-5.68-.43-3.18-.55-5.79-.27-5.82.28-.04.87 2.51 1.3 5.68.44 3.17.56 5.78.27 5.82z" fill="#fafafa"/><path d="M89.38 376.89c-.25-.14 1.04-2.82 2.87-5.98 1.83-3.16 3.52-5.61 3.77-5.46.25.14-1.04 2.82-2.87 5.99-1.83 3.15-3.52 5.6-3.77 5.45z" fill="#fafafa" opacity=".5"/><path d="M74.7 394.3c-.21.19-2.44-2-4.6-5.16-2.17-3.16-3.41-6.03-3.16-6.15.26-.14 1.89 2.46 4.02 5.56 2.12 3.11 3.96 5.56 3.74 5.75zM94.65 391.43c.2.2-2.09 2.85-5.13 5.91s-5.66 5.38-5.87 5.18c-.2-.2 2.09-2.85 5.13-5.91 3.03-3.06 5.66-5.38 5.87-5.18z" fill="#fafafa"/><path d="M83.31 427.36c-.19.2-2.4-1.65-4.42-4.54-2.03-2.89-3.01-5.6-2.76-5.71.27-.13 1.64 2.31 3.61 5.11 1.95 2.81 3.78 4.93 3.57 5.14z" fill="#fafafa" opacity=".5"/><path d="M109.05 420.09c.14.25-2.32 1.92-5.49 3.73-3.18 1.81-5.86 3.08-6.01 2.83-.14-.25 2.32-1.92 5.49-3.73 3.18-1.81 5.87-3.08 6.01-2.83zM119.08 411.81c-.18.21-2.52-1.57-4.63-4.48-2.13-2.9-3.11-5.67-2.86-5.77.27-.13 1.64 2.36 3.7 5.16 2.04 2.8 4 4.87 3.79 5.09zM136.77 354.22c.17.23-2.48 2.5-5.91 5.08-3.44 2.57-6.37 4.47-6.54 4.24-.17-.23 2.47-2.5 5.91-5.08 3.44-2.57 6.37-4.47 6.54-4.24zM118.13 353.02c-.29-.03-.24-2.77.1-6.12.34-3.35.85-6.04 1.14-6.01.29.03.24 2.77-.1 6.12-.35 3.35-.86 6.04-1.14 6.01z" fill="#fafafa"/><path d="M135.32 329.59c-.16.23-3.26-1.68-6.66-4.59-3.41-2.9-5.78-5.66-5.58-5.85.21-.21 2.89 2.2 6.26 5.06 3.36 2.88 6.15 5.14 5.98 5.38z" fill="#fafafa" opacity=".5"/><path d="M122.41 300.37c.22.19-1.97 3.13-4.88 6.56-2.92 3.44-5.46 6.08-5.68 5.89-.22-.19 1.97-3.12 4.89-6.56 2.91-3.43 5.45-6.07 5.67-5.89z" fill="#fafafa"/><path d="M107.62 297.24c-.16.26-2.39-.89-5.3-1.87-2.9-.99-5.37-1.44-5.34-1.74.01-.27 2.64-.28 5.67.75 3.04 1.03 5.12 2.64 4.97 2.86z" fill="#fafafa" opacity=".5"/><path d="M145.21 310.71c-.28-.08.2-2.51 1.06-5.44.86-2.92 1.78-5.22 2.05-5.14.28.08-.2 2.51-1.06 5.44-.85 2.92-1.77 5.23-2.05 5.14zM154.2 333.73c-.29-.02-.38-2.4-.22-5.32.17-2.92.54-5.28.82-5.26.29.02.38 2.4.22 5.32-.17 2.92-.54 5.28-.82 5.26zM168.97 351c-.18.22-2.37-1.24-4.89-3.26-2.52-2.03-4.42-3.85-4.24-4.07.18-.22 2.37 1.24 4.89 3.26 2.52 2.02 4.42 3.85 4.24 4.07zM184.71 326.89c.19.22-1.76 2.25-4.36 4.54-2.6 2.29-4.86 3.98-5.05 3.76-.19-.22 1.76-2.25 4.36-4.54 2.6-2.3 4.86-3.98 5.05-3.76z" fill="#fafafa"/><path d="M177.48 315.5c-.15.23-2.63-1.12-5.29-3.33-2.67-2.21-4.46-4.39-4.26-4.58.21-.21 2.3 1.61 4.92 3.78s4.79 3.89 4.63 4.13z" fill="#fafafa" opacity=".5"/><path d="M195.66 295.2c.23.16-.98 2.23-3.12 4.23-2.13 2.01-4.27 3.09-4.42 2.86-.16-.25 1.65-1.68 3.7-3.62 2.06-1.92 3.6-3.64 3.84-3.47z" fill="#fafafa"/><path d="M183.16 293.3c-.04.28-3.23.05-7.04-.92-3.82-.96-6.73-2.28-6.63-2.54.1-.28 3.13.58 6.89 1.53 3.74.96 6.82 1.64 6.78 1.93zM206.38 325.62c-.27-.06.35-3.97 1.78-8.62 1.42-4.66 3.08-8.25 3.34-8.14.27.11-.94 3.83-2.35 8.45-1.41 4.6-2.48 8.37-2.77 8.31z" fill="#fafafa" opacity=".5"/><path d="M211.53 347.68c-.21.2-2.68-2.08-5.51-5.08-2.84-3.01-4.97-5.6-4.76-5.8.21-.2 2.68 2.08 5.51 5.08 2.84 3 4.97 5.6 4.76 5.8z" fill="#fafafa"/><path d="M219.5 360.17c-.29-.01-.46-3.28-.4-7.32.07-4.04.36-7.31.65-7.3.29 0 .46 3.28.4 7.32-.08 4.04-.37 7.31-.65 7.3z" fill="#fafafa" opacity=".5"/><path d="M211.41 380.75c-.22.16-2.37-2.46-4.35-6.12-1.99-3.66-3.01-6.89-2.75-6.99.28-.11 1.71 2.89 3.67 6.49 1.94 3.6 3.67 6.45 3.43 6.62zM232.06 384.51c.2.21-1.19 1.89-3.1 3.75-1.91 1.87-3.63 3.21-3.83 3.01-.2-.21 1.19-1.89 3.1-3.75 1.92-1.87 3.63-3.22 3.83-3.01z" fill="#fafafa"/><path d="M181.78 361.05c-.26-.08.66-3.36 3.03-6.77 2.35-3.43 5.09-5.45 5.26-5.24.21.23-2.14 2.53-4.4 5.83-2.29 3.29-3.61 6.3-3.89 6.18z" fill="#fafafa" opacity=".5"/><g><path d="M123.47 388.49c-.28-.07.21-3.04 1.1-6.64.89-3.6 1.83-6.47 2.11-6.4.28.07-.21 3.04-1.1 6.65-.89 3.6-1.84 6.46-2.11 6.39z" fill="#fafafa"/></g><g><path d="M148.03 390.94c-.16.24-2.65-1.1-5.56-3-2.91-1.9-5.15-3.64-4.99-3.88.16-.24 2.65 1.1 5.56 3 2.91 1.9 5.15 3.64 4.99 3.88z" fill="#fafafa"/></g><g><path d="M146.8 373.22c-.24.16-1.41-1.17-2.61-2.97-1.2-1.8-1.99-3.39-1.75-3.55.24-.16 1.41 1.17 2.61 2.97 1.2 1.8 1.99 3.39 1.75 3.55z" fill="#fafafa"/></g><g><path d="M157.63 377.26c.17.24-.89 1.26-2.35 2.29s-2.78 1.67-2.95 1.43c-.17-.24.89-1.26 2.35-2.29s2.78-1.67 2.95-1.43z" fill="#fafafa"/></g><g opacity=".5"><path d="M129.35 449.15c-.28-.09.18-2.36.59-5.16.42-2.8.64-5.11.94-5.11.28-.01.53 2.37.09 5.26-.43 2.89-1.36 5.1-1.62 5.01z" fill="#fafafa"/></g><g opacity=".5"><path d="M154.27 441.04c-.25.14-2.15-2.72-4.24-6.4-2.09-3.68-3.59-6.77-3.34-6.91.25-.14 2.15 2.72 4.24 6.4 2.09 3.67 3.59 6.76 3.34 6.91z" fill="#fafafa"/></g><g opacity=".5"><path d="M180.7 429.89c.23.17-2.28 3.83-5.6 8.17s-6.2 7.72-6.42 7.54c-.23-.17 2.28-3.83 5.6-8.17s6.2-7.72 6.42-7.54z" fill="#fafafa"/></g><g opacity=".5"><path d="M188.15 451.12c.04.28-3.27 1-7.39 1.6-4.13.6-7.5.85-7.54.56-.04-.28 3.27-1 7.39-1.6 4.12-.59 7.5-.85 7.54-.56z" fill="#fafafa"/></g><g><path d="M189.3 440.42c-.29-.07-.03-2.2.08-4.82.12-2.62.05-4.77.34-4.81.27-.04.82 2.12.7 4.85-.12 2.73-.85 4.85-1.12 4.78z" fill="#fafafa"/></g><g><path d="M153.61 452.88c-.1.25-2.8-.64-5.62-2.68-2.83-2.02-4.54-4.3-4.33-4.47.22-.2 2.21 1.68 4.94 3.63 2.71 1.96 5.13 3.24 5.01 3.52z" fill="#fafafa"/></g><g><path d="M111.2 451.3c-.28-.07.06-2.35.75-5.1.69-2.75 1.48-4.92 1.76-4.85.28.07-.06 2.35-.75 5.1-.7 2.75-1.48 4.92-1.76 4.85z" fill="#fafafa"/></g><g><path d="M106.59 198.36c.06-.08 1.2.9 3.29 2.04 1.04.58 2.34 1.16 3.83 1.67 1.5.48 3.18.89 4.99 1.11 1.81.2 3.54.18 5.11.05 1.57-.16 2.97-.43 4.11-.76 2.3-.64 3.63-1.34 3.67-1.24.02.03-.31.22-.91.53-.3.16-.67.34-1.12.51-.45.17-.95.4-1.54.56-1.15.38-2.57.69-4.17.88-1.6.16-3.37.19-5.22-.01-1.84-.22-3.57-.66-5.08-1.18-1.51-.55-2.82-1.17-3.86-1.81-.53-.29-.97-.62-1.37-.89-.4-.27-.72-.53-.98-.75-.5-.43-.78-.68-.75-.71z" fill="#455a64"/></g><g><path d="M132.42 209.87c.01.03-.38.16-1.09.34-.71.18-1.75.41-3.04.64-2.57.44-6.26.87-10.24.06-3.99-.83-7.17-3-8.85-5.05-.85-1.02-1.39-1.96-1.68-2.64-.29-.68-.39-1.08-.37-1.08.11-.06.58 1.55 2.32 3.48 1.7 1.93 4.81 3.98 8.68 4.78 3.88.79 7.51.43 10.08.09 1.29-.18 2.33-.36 3.05-.47.73-.13 1.13-.19 1.14-.15z" fill="#455a64"/></g><g><path d="M96.81 271.07c-.01.01-.05-.04-.13-.14s-.21-.24-.34-.45c-.27-.41-.61-1.07-.8-2-.39-1.82.02-4.8 2.2-7.43 1.08-1.3 2.54-2.46 4.18-3.53 1.64-1.08 3.48-2.08 5.29-3.29 1.79-1.22 3.59-2.71 4.82-4.7.61-.99 1.04-2.12 1.2-3.3.17-1.19.07-2.42-.19-3.64-.55-2.44-1.64-4.67-2.53-6.9-.92-2.21-1.64-4.49-1.69-6.73-.18-4.5 1.49-8.38 3.43-11.08 1.96-2.75 4.25-4.35 5.9-5.2.41-.2.79-.38 1.12-.54.33-.11.61-.21.86-.3.47-.16.71-.23.72-.21.01.02-.23.12-.68.31-.24.1-.52.21-.83.34-.32.17-.68.36-1.09.57-1.6.9-3.81 2.51-5.69 5.23-1.86 2.67-3.46 6.49-3.25 10.85.07 2.17.76 4.37 1.68 6.56.89 2.2 2 4.45 2.57 6.98.28 1.26.38 2.56.2 3.82a9.037 9.037 0 01-1.27 3.5c-1.3 2.1-3.16 3.6-4.99 4.84-1.85 1.23-3.69 2.2-5.32 3.26-1.64 1.04-3.07 2.16-4.14 3.41-2.14 2.51-2.6 5.38-2.28 7.15.31 1.82 1.13 2.58 1.05 2.62z" fill="#455a64"/></g><g><path d="M123.45 271.43c-.01.02-.21-.1-.58-.33-.34-.26-.86-.68-1.29-1.4-.44-.71-.79-1.7-.9-2.88-.11-1.18.02-2.54.44-3.98.81-2.94 3.27-5.61 5.11-8.96.92-1.68 1.57-3.62 1.5-5.7-.04-2.07-.66-4.18-1.61-6.17-1.9-4.02-4.82-7.22-6.84-10.56-1.02-1.66-1.86-3.35-2.36-5.03-.53-1.68-.63-3.34-.49-4.82.28-2.99 1.66-5.17 2.91-6.25.64-.53 1.2-.86 1.6-1.03.4-.16.62-.24.62-.22.04.07-.89.31-2.09 1.4-1.17 1.09-2.45 3.23-2.68 6.14-.11 1.44 0 3.04.54 4.66.51 1.63 1.34 3.27 2.35 4.9 1.02 1.64 2.23 3.27 3.47 4.99 1.24 1.71 2.47 3.56 3.43 5.61.96 2.04 1.61 4.22 1.65 6.39.06 2.17-.64 4.23-1.59 5.93-1.91 3.41-4.36 6.03-5.18 8.84-.42 1.38-.58 2.7-.5 3.85.08 1.14.39 2.1.78 2.8.82 1.41 1.78 1.75 1.71 1.82z" fill="#455a64"/></g><g><path d="M162.91 196.36c-.01.02-.14-.04-.38-.16a7.41 7.41 0 01-.99-.63c-.82-.61-1.89-1.66-2.88-3.21-1.01-1.53-1.86-3.54-2.77-5.74-.46-1.1-.95-2.25-1.56-3.38-.63-1.12-1.33-2.26-2.21-3.3-3.46-4.27-8.12-6.56-11.56-7.45-3.48-.91-5.76-.7-5.75-.82 0-.03.56-.07 1.57-.09 1.01.04 2.49.12 4.27.56 1.77.43 3.84 1.16 5.92 2.4 2.07 1.23 4.2 2.89 5.95 5.08.9 1.07 1.62 2.24 2.25 3.39.61 1.16 1.1 2.33 1.55 3.44.89 2.22 1.69 4.21 2.64 5.73.92 1.54 1.92 2.6 2.69 3.24.79.64 1.29.9 1.26.94z" fill="#455a64"/></g><g><path d="M176.86 196.28c0 .02-.19 0-.54-.06-.35-.05-.86-.17-1.5-.39-1.28-.43-3.04-1.39-4.77-3.1-1.74-1.68-3.42-4.05-4.95-6.84-1.57-2.75-3.09-5.91-5.44-8.66-2.33-2.78-5.49-4.44-8.49-5.29-3.02-.86-5.88-1.03-8.26-1.1-2.39-.05-4.32.05-5.66.1-.62.02-1.13.04-1.54.06-.35.01-.54.01-.54-.01s.18-.05.53-.09c.35-.04.87-.1 1.54-.16 1.33-.11 3.27-.27 5.67-.27 2.4.02 5.29.16 8.38 1.01 3.07.84 6.35 2.55 8.75 5.41 2.41 2.83 3.92 6.02 5.46 8.77 1.49 2.78 3.11 5.13 4.79 6.81 1.66 1.7 3.35 2.68 4.58 3.17 1.26.49 2 .58 1.99.64z" fill="#455a64"/></g><g><path d="M200.47 261.18c-.06-.02.26-.71.59-2.02.33-1.3.71-3.24.6-5.65-.09-2.39-.66-5.27-2.13-8.08-.73-1.41-1.7-2.76-2.86-4.05s-2.48-2.51-3.82-3.79c-1.34-1.28-2.64-2.57-3.71-3.98a24.88 24.88 0 01-2.67-4.32c-.71-1.45-1.24-2.91-1.61-4.3a22.95 22.95 0 01-.75-3.92c-.27-2.43-.13-4.42.06-5.76.08-.68.2-1.19.28-1.54.08-.35.13-.53.14-.53.05.01-.1.75-.22 2.09a26.014 26.014 0 00.91 9.55c.38 1.36.92 2.78 1.63 4.2.7 1.42 1.58 2.85 2.64 4.21 1.05 1.37 2.33 2.64 3.66 3.91 1.34 1.28 2.67 2.51 3.84 3.82 1.18 1.31 2.17 2.72 2.91 4.17a18.94 18.94 0 012.07 8.29c.06 2.45-.38 4.41-.77 5.71-.2.65-.39 1.15-.54 1.47-.15.36-.23.53-.25.52z" fill="#455a64"/></g><g><path d="M90.92 195.49c-.03 0-.01-.36.13-.98.13-.62.43-1.51.98-2.52 1.06-1.99 3.45-4.5 6.93-5.35 3.49-.82 6.76.33 8.6 1.63.95.65 1.61 1.3 2.01 1.8.4.49.58.8.56.82-.08.08-.88-1.12-2.77-2.31-1.84-1.18-4.97-2.21-8.28-1.43-3.3.81-5.63 3.14-6.74 5.03-1.14 1.91-1.31 3.34-1.42 3.31z" fill="#455a64"/></g><g><path d="M100.61 199.7c-.06-.01 0-.88.28-2.27.29-1.36.8-3.38 2.36-5.01 1.63-1.64 3.94-1.84 5.3-1.34.69.25 1.18.64 1.42.97.25.32.33.53.3.55-.08.08-.52-.79-1.83-1.17-1.26-.37-3.36-.11-4.82 1.36-1.44 1.5-2 3.41-2.38 4.74-.35 1.33-.55 2.18-.63 2.17z" fill="#455a64"/></g><g><path d="M113.32 185.05c.14.09-1.53 2.29-2.63 5.45-1.12 3.15-1.19 5.9-1.36 5.89-.12.02-.29-2.82.87-6.07 1.13-3.25 3.03-5.36 3.12-5.27z" fill="#e8505b"/></g></g><g><path d="M273.3 209.43c0 1.72 1.39 3.11 3.11 3.11s3.11-1.39 3.11-3.11-1.39-3.11-3.11-3.11-3.11 1.39-3.11 3.11z" fill="#455a64"/><circle cx="263.95" cy="209.43" r="3.11" fill="#455a64"/><path d="M248.42 207.87a3.109 3.109 0 001.14 4.25c1.49.86 3.39.35 4.25-1.14.86-1.49.35-3.39-1.14-4.25a3.109 3.109 0 00-4.25 1.14z" fill="#455a64"/><g><path d="M263.76 173.08c0-.01-.21-.02-.63-.01-.46.01-1.07.03-1.85.05-.41.02-.86.02-1.36.06-.5.07-1.04.15-1.63.23-.59.09-1.23.18-1.9.27-.67.17-1.38.34-2.13.53-2.99.77-6.61 2.08-10.31 4.49-3.7 2.37-7.54 5.77-10.66 10.38-3.06 4.62-5.42 10.43-6.05 16.96-.06 1.63-.26 3.3-.1 4.98.06.84.04 1.7.17 2.55.13.85.26 1.71.39 2.57.7 3.41 1.71 6.9 3.46 10.14 1.71 3.26 3.93 6.36 6.63 9.12 2.75 2.7 5.97 5.05 9.55 6.86 3.57 1.82 7.52 3.08 11.64 3.57 1.02.2 2.06.2 3.1.26 1.04.07 2.09.11 3.14.06 2.1-.09 4.2-.35 6.28-.79 4.52-.96 8.77-2.8 12.51-5.26l-.38.04c4.34 1.74 8.59 3.45 12.74 5.11l.75.3-.22-.78c-1.29-4.68-2.54-9.22-3.75-13.62l-.06.34c3.58-4.75 5.86-10.18 6.8-15.57.47-2.69.67-5.38.5-7.98-.06-1.3-.12-2.58-.36-3.83-.1-.63-.19-1.25-.29-1.86-.11-.61-.3-1.21-.45-1.8-2.46-9.59-8.37-16.67-14.22-20.73-2.93-2.06-5.82-3.54-8.46-4.46-.66-.24-1.29-.46-1.91-.68-.63-.16-1.23-.31-1.81-.46-.58-.14-1.13-.28-1.66-.41-.53-.1-1.04-.16-1.52-.23-.96-.12-1.81-.29-2.55-.33-.73-.02-1.35-.05-1.87-.06-.47-.01-.85-.02-1.14-.03-.26 0-.39 0-.39.02 0 .01.13.03.39.05.29.02.67.05 1.14.09.52.03 1.14.08 1.86.13.74.06 1.57.24 2.53.38 3.75.69 9.37 2.18 15.12 6.38 5.74 4.06 11.49 11.07 13.86 20.5.14.59.32 1.17.43 1.77l.27 1.83c.23 1.22.29 2.48.34 3.76.17 2.55-.04 5.18-.52 7.82-.94 5.28-3.19 10.58-6.71 15.23l-.11.15.05.18c1.2 4.4 2.44 8.95 3.72 13.63l.54-.48c-4.15-1.67-8.4-3.38-12.74-5.13l-.2-.08-.18.12c-3.66 2.4-7.81 4.2-12.23 5.14-2.03.44-4.09.69-6.14.78-1.03.05-2.05.01-3.07-.06-1.02-.06-2.04-.06-3.03-.26-4.02-.48-7.89-1.7-11.38-3.48a37.52 37.52 0 01-9.35-6.69c-2.65-2.7-4.82-5.73-6.51-8.91-1.73-3.18-2.73-6.59-3.43-9.93l-.39-2.52c-.12-.83-.11-1.67-.17-2.5-.16-1.66.03-3.29.08-4.89.58-6.41 2.87-12.13 5.85-16.7 3.04-4.56 6.8-7.94 10.43-10.32 3.63-2.42 7.19-3.76 10.14-4.57.74-.2 1.44-.38 2.1-.56.67-.11 1.3-.21 1.88-.31.58-.1 1.12-.18 1.62-.27.5-.05.95-.07 1.35-.1.78-.06 1.39-.1 1.84-.13.41-.01.62-.04.62-.05z" fill="#455a64"/></g></g></svg>