<?xml version="1.0" encoding="utf-8"?>
<!-- Generator: Adobe Illustrator 25.0.1, SVG Export Plug-In . SVG Version: 6.00 Build 0)  -->
<svg version="1.1" xmlns="http://www.w3.org/2000/svg" xmlns:xlink="http://www.w3.org/1999/xlink" x="0px" y="0px"
	 viewBox="0 0 500 500" style="enable-background:new 0 0 500 500;" xml:space="preserve">
<g id="Background_Complete">
	<g>
		<g>
			<g>
				<g>
					<g>
						<path style="fill:#F5F5F5;" d="M278.44,462.06c-17.23-8.16-24.11-27.56-26.54-45.62c-0.41-3.02-1.27-6.12-0.29-8.99
							c0.98-2.87,4.01-5.23,6.9-4.42c2.4,0.67,3.81,3.1,5.42,5.03c2.14,2.57,5.01,4.51,8.17,5.53c2.08,0.67,4.54,0.87,6.25-0.48
							c2.35-1.86,2.05-5.49,1.52-8.47c-0.98-5.55-1.95-11.11-2.93-16.66c-0.52-2.98-1.05-6.02-0.6-9.01
							c0.45-2.99,2.05-5.96,4.76-7.24c2.7-1.27,6.49-0.23,7.58,2.59c0.46,1.17,0.42,2.48,0.71,3.7c0.29,1.22,1.1,2.5,2.34,2.64
							c1.25,0.15,2.3-0.9,3.04-1.92c2.57-3.53,4-7.77,5.3-11.95c1.3-4.19,2.53-8.46,4.76-12.22c2.24-3.76,5.66-7.01,9.89-7.98
							c4.23-0.96,9.23,0.9,11.02,4.91c1.79,4.02,0.06,8.7-2.03,12.56c-3.11,5.72-7.04,10.98-11.63,15.56
							c-0.83,0.83-1.72,1.72-1.9,2.89c-0.31,2.1,1.91,3.75,3.98,4.08c2.35,0.36,4.72-0.27,7.09-0.39c2.37-0.12,5.07,0.48,6.32,2.53
							c1.74,2.84-0.27,6.47-2.43,8.99c-4.31,5.04-9.49,9.32-15.23,12.6c-2.06,1.17-4.25,2.27-5.76,4.11
							c-1.51,1.84-2.12,4.7-0.7,6.62c1.43,1.92,4.28,2.13,6.51,1.32c2.23-0.81,4.07-2.41,6.12-3.61c3.84-2.24,9.18-2.85,12.4,0.24
							c2.12,2.04,2.82,5.25,2.42,8.18c-0.4,2.92-1.77,5.61-3.27,8.14c-5.27,8.82-12.63,16.45-21.58,21.35
							C297.13,461.53,288.47,463.92,278.44,462.06"/>
					</g>
				</g>
			</g>
		</g>
		<g>
			<g>
				<g>
					<g>
						<g>
							<path style="fill:#E0E0E0;" d="M281.17,450.01c1.11-9.51,3.19-19.84,5.74-30.57c0.65-2.68,1.29-5.33,1.92-7.94
								c0.64-2.6,1.26-5.18,2.04-7.67c1.52-4.98,3.37-9.65,5.25-14.04c1.89-4.38,3.84-8.47,5.69-12.29
								c1.86-3.81,3.66-7.33,5.44-10.46c3.54-6.29,6.99-11.01,9.48-14.16c1.25-1.58,2.25-2.77,2.95-3.57
								c0.33-0.38,0.6-0.68,0.79-0.9c0.18-0.2,0.28-0.3,0.28-0.29c0.01,0.01-0.07,0.12-0.24,0.33c-0.19,0.23-0.44,0.54-0.75,0.94
								c-0.66,0.82-1.64,2.04-2.86,3.63c-2.44,3.18-5.83,7.93-9.31,14.22c-1.75,3.14-3.53,6.66-5.37,10.47
								c-1.83,3.82-3.76,7.91-5.63,12.29c-1.87,4.38-3.7,9.04-5.2,13.99c-0.76,2.47-1.39,5.03-2.02,7.64
								c-0.63,2.61-1.27,5.25-1.91,7.93c-2.55,10.72-4.64,21.02-5.77,30.5"/>
						</g>
					</g>
				</g>
			</g>
		</g>
		<g>
			<g>
				<g>
					<g>
						<g>
							<path style="fill:#E0E0E0;" d="M291.02,403.79c-0.04,0.01-0.21-0.42-0.51-1.22c-0.3-0.8-0.69-1.97-1.15-3.42
								c-0.92-2.9-2.06-6.94-3.3-11.41c-1.24-4.47-2.43-8.49-3.4-11.36c-0.48-1.44-0.88-2.6-1.16-3.4c-0.28-0.8-0.42-1.25-0.39-1.27
								c0.04-0.01,0.24,0.41,0.59,1.19c0.35,0.78,0.81,1.92,1.33,3.35c1.07,2.85,2.32,6.87,3.56,11.34
								c1.21,4.41,2.31,8.4,3.15,11.45c0.39,1.37,0.71,2.53,0.98,3.46C290.94,403.32,291.05,403.78,291.02,403.79z"/>
						</g>
					</g>
				</g>
			</g>
		</g>
		<g>
			<g>
				<g>
					<g>
						<g>
							<path style="fill:#E0E0E0;" d="M328.15,390.13c0.01,0.04-0.53,0.19-1.5,0.44c-0.97,0.25-2.37,0.61-4.09,1.11
								c-3.45,0.97-8.16,2.48-13.29,4.38c-5.13,1.9-9.7,3.83-12.96,5.31c-1.64,0.73-2.95,1.36-3.85,1.79
								c-0.91,0.43-1.42,0.65-1.43,0.62c-0.02-0.04,0.46-0.32,1.34-0.82c0.88-0.49,2.17-1.17,3.79-1.95
								c3.23-1.58,7.79-3.57,12.93-5.48c5.15-1.9,9.9-3.36,13.38-4.23c1.74-0.45,3.16-0.76,4.15-0.94
								C327.6,390.18,328.14,390.09,328.15,390.13z"/>
						</g>
					</g>
				</g>
			</g>
		</g>
		<g>
			<g>
				<g>
					<g>
						<g>
							<path style="fill:#E0E0E0;" d="M281.52,449.23c-0.02,0.01-0.13-0.13-0.34-0.42c-0.24-0.35-0.53-0.77-0.89-1.28
								c-0.77-1.11-1.84-2.75-3.13-4.79c-2.59-4.08-6-9.83-9.67-16.22c-3.67-6.4-7.02-12.17-9.52-16.3
								c-1.22-2.01-2.23-3.66-2.98-4.88c-0.32-0.53-0.59-0.97-0.8-1.33c-0.18-0.31-0.26-0.47-0.25-0.49
								c0.02-0.01,0.13,0.14,0.34,0.42c0.24,0.35,0.53,0.77,0.89,1.28c0.77,1.11,1.84,2.75,3.13,4.79c2.59,4.08,6,9.83,9.67,16.23
								c3.67,6.39,7.02,12.17,9.52,16.3c1.23,2,2.23,3.66,2.98,4.88c0.32,0.53,0.59,0.97,0.8,1.33
								C281.45,449.05,281.54,449.22,281.52,449.23z"/>
						</g>
					</g>
				</g>
			</g>
		</g>
		<g>
			<g>
				<g>
					<g>
						<g>
							<path style="fill:#E0E0E0;" d="M329.7,424.18c0.01,0.02-0.15,0.12-0.47,0.29c-0.38,0.2-0.84,0.45-1.4,0.75
								c-1.29,0.67-3.04,1.58-5.16,2.69c-4.35,2.27-10.33,5.48-16.93,9.04c-6.6,3.56-12.62,6.71-17.02,8.9
								c-2.2,1.09-3.99,1.96-5.24,2.53c-0.58,0.26-1.05,0.48-1.44,0.65c-0.33,0.14-0.51,0.21-0.52,0.19
								c-0.01-0.02,0.15-0.12,0.47-0.3c0.38-0.2,0.84-0.45,1.4-0.75c1.29-0.67,3.04-1.58,5.16-2.69c4.35-2.27,10.33-5.48,16.94-9.04
								c6.6-3.56,12.61-6.71,17.02-8.9c2.2-1.09,3.99-1.96,5.24-2.53c0.58-0.26,1.05-0.48,1.44-0.65
								C329.51,424.23,329.69,424.16,329.7,424.18z"/>
						</g>
					</g>
				</g>
			</g>
		</g>
	</g>
	<g>
		<g>
			<g>
				<path style="fill:#EBEBEB;" d="M153.4,247.41c0,0-11.88,1.65-5.21,27.67c6.67,26.02,12.33,39.43,12.33,39.43s0.9,5.89-3.86,5.71
					c-4.75-0.18-14.44-4.04-17.73,1.09c-3.41,5.32-0.43,11.72,7.02,18.43c7.45,6.71,23.24,22,24.66,23.39
					c1.4,1.36,2.46,4.25-0.8,4.64c-3.26,0.39-26.38-2.32-27.02,8.73c-0.63,11.05,23.2,26.32,25.77,28.04
					c2.57,1.72,2.98,3.06,2.4,4.56c-0.58,1.49-8.26-0.15-14.87-0.65c-6.61-0.5-14.36,0.07-14.19,6.48
					c0.17,6.41,12.68,22.6,49.19,34.63l17.28,4.47l12.77-12.58c25.7-28.59,28.51-48.85,25.48-54.5c-3.04-5.64-10.05-2.29-15.54,1.43
					c-5.49,3.72-11.34,8.97-12.58,7.96c-1.24-1.01-1.56-2.38-0.18-5.15c1.38-2.77,14.47-27.87,8.43-37.14
					c-6.04-9.28-24.76,4.57-27.78,5.85c-3.02,1.28-3.54-1.76-3-3.63c0.54-1.91,6.65-23.03,9.78-32.55
					c3.13-9.52,2.54-16.56-3.06-19.48c-5.4-2.82-11.89,5.35-15.92,7.86c-4.03,2.52-6.18-3.04-6.18-3.04s-1.75-14.45-8.9-40.35
					c-7.14-25.9-18.53-21.26-18.53-21.26"/>
			</g>
		</g>
		<g>
			<g>
				<g>
					<path style="fill:#E0E0E0;" d="M208.37,458.35c-5.17-19.04-13.79-53.03-21.35-82.18c-7.55-29.14-14.41-55.51-19.49-74.58
						c-2.54-9.51-4.6-17.22-6.03-22.57c-0.71-2.65-1.26-4.71-1.64-6.14c-0.18-0.69-0.31-1.22-0.41-1.6
						c-0.09-0.36-0.12-0.55-0.12-0.55s0.07,0.18,0.18,0.54c0.11,0.38,0.27,0.91,0.46,1.59c0.4,1.42,0.99,3.48,1.74,6.11
						c1.5,5.31,3.62,13.01,6.2,22.53c5.17,19.04,12.09,45.4,19.64,74.54c7.55,29.15,16.12,63.16,21.19,82.22"/>
				</g>
			</g>
		</g>
		<g>
			<g>
				<g>
					<path style="fill:#E0E0E0;" d="M152.27,327.26c0.02-0.03,0.42,0.19,1.14,0.61c0.72,0.42,1.73,1.06,2.98,1.86
						c2.49,1.61,5.88,3.91,9.57,6.53c3.63,2.59,6.91,4.93,9.43,6.72c1.14,0.8,2.1,1.48,2.87,2.02c0.68,0.47,1.05,0.75,1.03,0.78
						c-0.02,0.03-0.43-0.18-1.14-0.6c-0.71-0.42-1.73-1.06-2.97-1.88c-2.48-1.63-5.83-3.98-9.52-6.6c-3.65-2.56-6.95-4.88-9.47-6.65
						c-1.14-0.8-2.1-1.47-2.88-2.01C152.61,327.57,152.25,327.29,152.27,327.26z"/>
				</g>
			</g>
		</g>
		<g>
			<g>
				<g>
					<path style="fill:#E0E0E0;" d="M180.72,344.94c-0.13-0.08,4.32-7.27,9.93-16.06c5.62-8.79,10.27-15.85,10.4-15.77
						c0.13,0.08-4.32,7.27-9.94,16.06C185.5,337.96,180.85,345.02,180.72,344.94z"/>
				</g>
			</g>
		</g>
		<g>
			<g>
				<g>
					<path style="fill:#E0E0E0;" d="M190.3,390.22c-0.02-0.03,0.32-0.35,0.95-0.92c0.72-0.63,1.62-1.42,2.7-2.36
						c2.27-1.99,5.4-4.76,8.74-7.94c3.35-3.17,6.28-6.15,8.38-8.32c0.99-1.02,1.83-1.88,2.49-2.57c0.59-0.6,0.93-0.93,0.96-0.9
						c0.03,0.03-0.26,0.4-0.8,1.05c-0.54,0.65-1.35,1.57-2.37,2.69c-2.03,2.24-4.93,5.27-8.28,8.46c-3.35,3.19-6.53,5.92-8.87,7.84
						c-1.17,0.96-2.13,1.72-2.81,2.23C190.71,389.98,190.32,390.25,190.3,390.22z"/>
				</g>
			</g>
		</g>
		<g>
			<g>
				<g>
					<path style="fill:#E0E0E0;" d="M161.05,379.89c0.01-0.04,0.43,0.07,1.18,0.29c0.86,0.27,1.92,0.59,3.16,0.98
						c2.66,0.85,6.33,2.06,10.37,3.43c4.04,1.37,7.69,2.64,10.32,3.58c1.22,0.45,2.26,0.83,3.11,1.15c0.73,0.28,1.13,0.46,1.12,0.49
						c-0.01,0.04-0.43-0.07-1.18-0.29c-0.86-0.27-1.92-0.59-3.16-0.98c-2.66-0.85-6.33-2.06-10.37-3.43
						c-4.04-1.37-7.69-2.64-10.32-3.58c-1.22-0.45-2.26-0.83-3.11-1.15C161.43,380.1,161.03,379.93,161.05,379.89z"/>
				</g>
			</g>
		</g>
		<g>
			<g>
				<g>
					<path style="fill:#E0E0E0;" d="M164.43,420.94c0.01-0.04,0.55,0.1,1.51,0.38c1.06,0.32,2.42,0.74,4.06,1.24
						c3.42,1.07,8.13,2.58,13.33,4.29c5.2,1.7,9.89,3.28,13.28,4.44c1.62,0.57,2.96,1.04,4,1.41c0.94,0.34,1.46,0.55,1.44,0.59
						c-0.01,0.04-0.55-0.1-1.51-0.38c-1.06-0.32-2.42-0.74-4.06-1.24c-3.42-1.07-8.13-2.58-13.33-4.29
						c-5.19-1.7-9.89-3.28-13.28-4.44c-1.62-0.57-2.96-1.04-4-1.41C164.93,421.18,164.41,420.97,164.43,420.94z"/>
				</g>
			</g>
		</g>
		<g>
			<g>
				<g>
					<path style="fill:#E0E0E0;" d="M201.24,432.73c-0.03-0.03,0.39-0.45,1.17-1.19c0.85-0.8,1.97-1.85,3.31-3.11
						c2.79-2.63,6.63-6.28,10.76-10.43c4.13-4.14,7.78-7.99,10.4-10.8c1.26-1.35,2.3-2.46,3.1-3.32c0.74-0.78,1.16-1.2,1.19-1.18
						c0.03,0.03-0.34,0.49-1.02,1.32c-0.69,0.83-1.7,2.01-2.98,3.44c-2.55,2.88-6.15,6.77-10.29,10.93
						c-4.13,4.16-8.03,7.77-10.89,10.33c-1.43,1.28-2.61,2.3-3.43,2.99C201.73,432.39,201.26,432.76,201.24,432.73z"/>
				</g>
			</g>
		</g>
	</g>
	<g>
		<path style="fill:#F5F5F5;" d="M101.8,92.24l-9.76-3.04c0,0-2.56,8.19-11.12,5.68c-4.45-1.3-5.84-4.92-6.07-7.43
			c-0.28-2.91,0.97-5.75,3.16-7.69c2.51-2.21,6.91-3.56,13.12-0.35l6.86-22l-9.65-3.01l-4.02,12.89c0,0-14.63-0.72-19.28,14.19
			c-4.45,14.27,7.31,21.58,12.79,23.29C82.03,106.07,96.61,109.51,101.8,92.24z"/>
		
			<rect x="90.84" y="41.99" transform="matrix(-0.9546 -0.2978 0.2978 -0.9546 173.6486 120.0265)" style="fill:#F5F5F5;" width="10.26" height="9.58"/>
	</g>
	<g>
		<path style="fill:#EBEBEB;" d="M128.73,67.4l3.91-1.03c0,0-0.87-3.28,2.53-4.24c1.76-0.5,2.99,0.42,3.59,1.21
			c0.71,0.92,0.88,2.13,0.56,3.24c-0.37,1.27-1.57,2.64-4.32,2.87l2.32,8.81l3.86-1.02l-1.36-5.16c0,0,5.05-2.83,3.47-8.8
			c-1.51-5.71-6.98-5.69-9.18-5.11C132.45,58.61,126.84,60.52,128.73,67.4z"/>
		
			<rect x="138.21" y="79.5" transform="matrix(0.9669 -0.2551 0.2551 0.9669 -16.1217 38.4606)" style="fill:#EBEBEB;" width="4.06" height="3.79"/>
	</g>
	<g>
		<path style="fill:#EBEBEB;" d="M451.54,168.61l3.8,1.38c0,0,1.16-3.19,4.49-2.05c1.73,0.59,2.22,2.05,2.27,3.04
			c0.06,1.16-0.48,2.25-1.39,2.98c-1.03,0.83-2.79,1.28-5.19-0.1l-3.1,8.57l3.76,1.36l1.82-5.02c0,0,5.76,0.55,7.87-5.26
			c2.01-5.56-2.5-8.65-4.64-9.43C459.6,163.49,453.9,161.88,451.54,168.61z"/>
		
			<rect x="451.01" y="184.77" transform="matrix(0.9402 0.3406 -0.3406 0.9402 90.6692 -143.1477)" style="fill:#EBEBEB;" width="4.06" height="3.79"/>
	</g>
	<g>
		<path style="fill:#F5F5F5;" d="M48.26,212.13l8.04-3.1c0,0-2.6-6.75,4.37-9.58c3.62-1.47,6.43,0.19,7.9,1.73
			c1.71,1.78,2.37,4.3,1.94,6.73c-0.5,2.77-2.7,5.97-8.49,7.1L69,233.15l7.95-3.06l-4.09-10.62c0,0,10.04-7.18,5.31-19.47
			c-4.53-11.76-16.13-10.43-20.64-8.69C54.08,192.63,42.64,198,48.26,212.13z"/>
		
			<rect x="71.58" y="235.07" transform="matrix(0.9331 -0.3595 0.3595 0.9331 -80.8839 43.2739)" style="fill:#F5F5F5;" width="8.65" height="8.08"/>
	</g>
	<g>
		<path style="fill:#F5F5F5;" d="M454.67,242.64l-5.7,2.2c0,0,1.84,4.79-3.1,6.79c-2.57,1.04-4.56-0.14-5.6-1.22
			c-1.21-1.26-1.68-3.05-1.37-4.77c0.35-1.97,1.91-4.23,6.01-5.03l-4.95-12.85l-5.64,2.17l2.9,7.53c0,0-7.12,5.09-3.76,13.8
			c3.21,8.33,11.43,7.39,14.63,6.16C450.55,256.45,458.65,252.65,454.67,242.64z"/>
		
			<rect x="432.01" y="220.66" transform="matrix(-0.9331 0.3595 -0.3595 -0.9331 921.4157 275.6906)" style="fill:#F5F5F5;" width="6.13" height="5.72"/>
	</g>
</g>
<g id="Background_Simple" style="display:none;">
	<path style="display:inline;fill:#EBEBEB;" d="M440.3,102.52c-23.61-35.23-63.69-60.28-106.1-60.93
		c-42.41-0.65-85.28,25.62-99.56,65.55c-6.96,19.47-7.19,40.62-11.28,60.88c-4.09,20.27-13.57,41.35-32.11,50.49
		c-25.11,12.38-54.89-1.76-82.86-0.43c-31.65,1.51-60.34,24.65-71.5,54.3c-11.16,29.65-5.74,64.25,11.25,91
		c16.98,26.75,44.58,45.85,74.69,55.73c30.11,9.87,101.07,15.61,132.47,11.39l0,0c14.8-0.64,29.48-2.99,43.68-7.21
		c43.18-12.84,78.33-34.39,107.55-64.71c34.84-36.14,56.56-84.47,61.42-134.43C472.04,181.94,463.91,137.75,440.3,102.52z"/>
</g>
<g id="Floor">
	<g>
		<path style="fill:#263238;" d="M470.77,463.77c0,0.14-98.85,0.26-220.76,0.26c-121.95,0-220.78-0.12-220.78-0.26
			s98.83-0.26,220.78-0.26C371.92,463.51,470.77,463.63,470.77,463.77z"/>
	</g>
</g>
<g id="Plant">
	<g>
		<g>
			<g>
				<g>
					<path style="fill:#1E9EA7;" d="M92.64,437.8c0.95-3.68-1.46-7.37-4.17-10.04c-2.7-2.67-5.93-5.06-7.34-8.59
						c-2.28-5.72,0.78-13.12-3.1-17.89c-2.29-2.81-6.39-3.74-8.42-6.74c-1.06-1.57-1.41-3.5-1.83-5.36
						c-2.13-9.45-6.86-18.29-13.53-25.32c-0.46,8.41,1.39,16.94,5.31,24.4c1.57,3,3.51,5.92,4.03,9.27
						c0.85,5.43-2.19,11.03-0.85,16.37c1.53,6.1,8.38,10.19,8.71,16.47c0.27,5.31-4.35,9.97-4.01,15.28c0.15,2.26,1.2,4.36,2.36,6.3
						c4.11,6.83,10.14,11.53,19.28,11.37l11.2,0.39L92.64,437.8z"/>
				</g>
			</g>
		</g>
		<g style="opacity:0.3;">
			<g>
				<g>
					<g>
						<path d="M92.64,437.8c0.95-3.68-1.46-7.37-4.17-10.04c-2.7-2.67-5.93-5.06-7.34-8.59c-2.28-5.72,0.78-13.12-3.1-17.89
							c-2.29-2.81-6.39-3.74-8.42-6.74c-1.06-1.57-1.41-3.5-1.83-5.36c-2.13-9.45-6.86-18.29-13.53-25.32
							c-0.46,8.41,1.39,16.94,5.31,24.4c1.57,3,3.51,5.92,4.03,9.27c0.85,5.43-2.19,11.03-0.85,16.37
							c1.53,6.1,8.38,10.19,8.71,16.47c0.27,5.31-4.35,9.97-4.01,15.28c0.15,2.26,1.2,4.36,2.36,6.3
							c4.11,6.83,10.14,11.53,19.28,11.37l11.2,0.39L92.64,437.8z"/>
					</g>
				</g>
			</g>
		</g>
		<g>
			<g>
				<g>
					<g>
						<g>
							<g>
								<path style="fill:#263238;" d="M102.54,464.01c0,0,1.07,0.25,3.08-0.07c1-0.15,2.24-0.41,3.64-0.92
									c1.39-0.51,2.98-1.23,4.49-2.46c0.73-0.64,1.46-1.42,1.85-2.46c0.39-1.04,0.46-2.18,0.53-3.35
									c0.06-1.17,0.06-2.39,0.26-3.62c0.19-1.23,0.67-2.44,1.37-3.6c1.32-2.32,3.51-4.51,4.22-7.66c0.77-3.1,0.22-6.45-0.3-9.82
									c-0.52-3.36-1.02-7.02,0.26-10.52c1.2-3.5,3.66-6.66,4.88-10.61c1.22-3.99,0.65-8.28,0.91-12.51
									c0.12-2.12,0.53-4.25,1.46-6.22c0.91-1.98,2.16-3.85,3.14-5.94c1.99-4.22,2.34-9,2.88-13.68c0.27-2.36,0.53-4.75,0.8-7.15
									c0.27-2.42,0.48-4.83,1.24-7.16c0.69-2.35,1.69-4.62,2.68-6.93c0.48-1.16,1-2.33,1.3-3.62c0.22-1.32,0.28-2.56,0.36-3.85
									c0.13-2.57,0.02-5.17-0.3-7.75c-0.3-2.58-0.77-5.15-1.05-7.74c-0.02-0.15-0.03-0.31-0.05-0.45l-0.06-0.52l-0.46,0.23
									c-2.4,1.2-4.45,2.99-6.03,5.09c-1.6,2.08-2.77,4.43-3.7,6.83c-1.87,4.81-2.54,9.85-3.49,14.66
									c-0.92,4.81-2.13,9.54-4.6,13.54c-1.23,1.99-2.71,3.81-4.01,5.76c-1.3,1.93-2.44,4.05-2.78,6.38
									c-0.66,4.74,1.95,8.9,1.4,13.09c-0.19,2.08-1.02,4.03-2.04,5.81c-1.02,1.79-2.21,3.45-3.35,5.12
									c-1.13,1.67-2.21,3.36-3.01,5.17c-0.81,1.8-1.25,3.73-1.38,5.61c-0.27,3.78,0.26,7.36-0.01,10.74
									c-0.23,3.39-1.42,6.46-2.76,9.2c-1.35,2.76-2.86,5.25-4.12,7.66c-0.64,1.21-1.22,2.39-1.7,3.57
									c-0.51,1.18-0.75,2.39-0.98,3.54c-0.37,2.32-0.33,4.48-0.08,6.39c0.49,3.84,1.92,6.6,3.2,8.15
									c0.29,0.41,0.64,0.71,0.91,0.98c0.26,0.28,0.52,0.47,0.74,0.62C102.32,463.87,102.54,464.01,102.54,464.01
									c0.05-0.06-0.92-0.57-2.17-2.14c-1.23-1.56-2.6-4.3-3.04-8.1c-0.22-1.88-0.24-4.02,0.14-6.3c0.24-1.13,0.49-2.31,0.99-3.46
									c0.48-1.16,1.07-2.33,1.71-3.52c1.27-2.39,2.79-4.88,4.18-7.65c1.37-2.76,2.61-5.89,2.86-9.36
									c0.29-3.45-0.23-7.05,0.06-10.74c0.13-1.84,0.56-3.68,1.35-5.42c0.78-1.75,1.84-3.41,2.97-5.06
									c1.13-1.66,2.34-3.32,3.39-5.15c1.05-1.81,1.92-3.84,2.14-6.05c0.54-4.47-2.05-8.66-1.38-13.06
									c0.32-2.18,1.41-4.21,2.68-6.1c1.28-1.91,2.77-3.73,4.03-5.78c2.54-4.11,3.78-8.94,4.71-13.77
									c0.95-4.84,1.63-9.83,3.46-14.54c0.91-2.34,2.06-4.63,3.61-6.65c1.53-2.03,3.49-3.73,5.77-4.88L139.5,326
									c0.02,0.14,0.03,0.3,0.05,0.45c0.28,2.62,0.75,5.19,1.05,7.74c0.31,2.55,0.42,5.1,0.3,7.63c-0.07,1.25-0.15,2.56-0.34,3.74
									c-0.27,1.18-0.78,2.34-1.26,3.49c-0.98,2.3-2,4.61-2.7,7.01c-0.78,2.39-1,4.89-1.26,7.28c-0.27,2.41-0.53,4.8-0.79,7.16
									c-0.54,4.71-0.89,9.41-2.8,13.48c-0.95,2.03-2.2,3.9-3.13,5.95c-0.96,2.04-1.39,4.29-1.5,6.45
									c-0.24,4.32,0.32,8.55-0.85,12.37c-1.16,3.81-3.6,6.99-4.84,10.6c-1.32,3.65-0.77,7.43-0.24,10.78
									c0.54,3.37,1.08,6.65,0.36,9.63c-0.65,3.01-2.78,5.18-4.12,7.57c-0.7,1.18-1.2,2.47-1.39,3.74c-0.2,1.28-0.19,2.5-0.24,3.67
									c-0.06,1.15-0.12,2.28-0.48,3.25c-0.35,0.97-1.04,1.73-1.74,2.36c-1.46,1.21-3.02,1.95-4.39,2.47
									c-1.38,0.52-2.6,0.81-3.59,0.97c-0.99,0.18-1.76,0.21-2.28,0.22C102.81,464,102.54,464.01,102.54,464.01z"/>
							</g>
						</g>
					</g>
				</g>
				<g>
					<g>
						<g>
							<g>
								<path style="fill:#263238;" d="M137.92,332.1c-0.01,0-0.05,0.11-0.11,0.34c-0.07,0.27-0.15,0.6-0.25,1.01
									c-0.22,0.88-0.48,2.21-0.91,3.88c-0.44,1.66-1.46,3.54-2.32,5.85c-0.9,2.29-1.82,4.95-2.66,7.94
									c-0.85,2.99-1.61,6.3-2.4,9.85c-0.82,3.55-1.63,7.35-3.58,10.94c-0.92,1.82-1.95,3.66-2.77,5.67
									c-0.84,2.01-1.3,4.22-1.61,6.43c-0.54,4.44-1.35,8.94-2.41,13.55c-2.25,9.18-4.38,17.92-6.33,25.87
									c-1.99,7.93-3.79,15.08-5.31,21.1c-1.47,5.97-2.67,10.82-3.52,14.24c-0.39,1.64-0.7,2.94-0.92,3.88
									c-0.09,0.41-0.16,0.74-0.22,1.01c-0.05,0.23-0.06,0.35-0.05,0.35c0.01,0,0.05-0.11,0.12-0.33c0.08-0.26,0.17-0.59,0.29-1
									c0.26-0.93,0.61-2.22,1.05-3.85c0.9-3.41,2.17-8.24,3.74-14.19c1.56-6.01,3.41-13.15,5.46-21.06
									c1.97-7.96,4.12-16.7,6.39-25.88c1.06-4.6,1.88-9.19,2.41-13.6c0.31-2.19,0.74-4.32,1.55-6.27
									c0.79-1.96,1.81-3.79,2.73-5.63c1.97-3.65,2.79-7.57,3.57-11.1c0.77-3.56,1.49-6.87,2.31-9.85
									c0.81-2.98,1.68-5.64,2.55-7.93c0.82-2.31,1.81-4.2,2.22-5.92c0.39-1.7,0.6-3.02,0.78-3.92c0.07-0.41,0.13-0.75,0.18-1.02
									C137.92,332.22,137.94,332.1,137.92,332.1z"/>
							</g>
						</g>
					</g>
				</g>
			</g>
			<g>
				<g>
					<g>
						<g>
							<path style="fill:#1E9EA7;" d="M104.52,464.05c7.31-4.35,9.41-17.54,6.36-25.49c-3.05-7.94-8.39-15.2-9.21-23.67
								c-0.63-6.51,1.5-13.19-0.02-19.55c-2.05-8.59-10.43-15.24-10.33-24.06c0.05-4.95,2.87-9.61,2.65-14.56
								c-0.28-6.07-4.93-10.88-7.82-16.23c-4.42-8.18-4.71-17.86-6.22-27.03c-1.51-9.17-5.01-19-13.14-23.51
								c-1.2,7.79-3.25,13.12-2.61,23.68c0.23,3.79,4.63,11.04,5.23,19.35c0.36,4.96,0.61,9.94,0.91,14.9
								c0.3,4.83,0.61,9.76,2.34,14.28c1.33,3.47,3.46,6.61,4.45,10.19c1.85,6.73-0.58,14.02,0.92,20.84
								c1.27,5.78,5.27,10.75,6.09,16.61c1.15,8.23-4.18,16.79-1.45,24.64c1.35,3.9,4.56,7.03,5.47,11.05
								c0.71,3.12-0.06,6.43,0.58,9.56c1.03,5.05,10.67,8.98,15.81,8.66"/>
						</g>
					</g>
				</g>
				<g>
					<g>
						<g>
							<g>
								<path style="fill:#263238;" d="M68.81,297.67c-0.01,0,0,0.15,0.03,0.44c0.04,0.33,0.1,0.75,0.16,1.28
									c0.17,1.12,0.36,2.78,0.74,4.91c0.41,2.15,1.52,4.57,2.4,7.48c0.93,2.91,1.86,6.26,2.68,10.02
									c0.83,3.75,1.53,7.91,2.27,12.38c0.76,4.44,1.53,9.34,3.75,13.99c1.03,2.34,2.18,4.68,3.04,7.17
									c0.89,2.48,1.29,5.16,1.54,7.9c0.38,5.52,1.11,11.26,2.15,17.04c2.24,11.54,4.37,22.53,6.32,32.54
									c2.05,9.97,3.89,18.95,5.44,26.51c1.57,7.5,2.84,13.59,3.73,17.86c0.45,2.07,0.8,3.69,1.05,4.85
									c0.12,0.52,0.22,0.94,0.29,1.26c0.07,0.28,0.11,0.43,0.12,0.42c0.01,0-0.01-0.15-0.05-0.44c-0.06-0.32-0.13-0.74-0.22-1.27
									c-0.22-1.16-0.53-2.79-0.92-4.87c-0.84-4.27-2.03-10.38-3.51-17.9c-1.51-7.57-3.3-16.56-5.29-26.54
									c-1.92-10-4.04-20.99-6.26-32.53c-1.03-5.79-1.76-11.44-2.15-16.98c-0.26-2.76-0.68-5.52-1.6-8.06
									c-0.89-2.55-2.06-4.9-3.08-7.21c-2.2-4.59-2.98-9.37-3.77-13.83c-0.76-4.46-1.49-8.63-2.36-12.39
									c-0.86-3.76-1.82-7.12-2.8-10.03c-0.93-2.93-2.07-5.32-2.51-7.42c-0.42-2.1-0.65-3.77-0.87-4.88
									c-0.1-0.53-0.18-0.94-0.24-1.27C68.86,297.82,68.82,297.67,68.81,297.67z"/>
							</g>
						</g>
					</g>
				</g>
			</g>
		</g>
	</g>
</g>
<g id="Speech_Bubble">
	<g>
		<path style="fill:#1E9EA7;" d="M421.47,88.77h-3.98c0,0,0,3.34-3.47,3.4c-1.8,0.03-2.74-1.15-3.12-2.06
			c-0.44-1.05-0.31-2.25,0.28-3.22c0.68-1.11,2.15-2.13,4.84-1.65v-8.98h-3.94v5.26c0,0-5.52,1.43-5.52,7.51
			c0,5.82,5.22,7.17,7.45,7.17C415.73,96.21,421.55,95.8,421.47,88.77z"/>
		
			<rect x="412.04" y="70.69" transform="matrix(-1 -1.224647e-16 1.224647e-16 -1 828.0702 145.1058)" style="fill:#1E9EA7;" width="3.99" height="3.73"/>
	</g>
	<g>
		<g>
			<g>
				<g>
					<g>
						<g>
							<path style="fill:#263238;" d="M443.28,83.45c0.01,0,0.01-0.17,0.01-0.5c-0.01-0.37-0.02-0.86-0.04-1.48
								c-0.02-0.33-0.01-0.69-0.05-1.09c-0.06-0.4-0.12-0.84-0.18-1.31c-0.07-0.47-0.14-0.98-0.22-1.52
								c-0.13-0.53-0.27-1.1-0.42-1.7c-0.62-2.39-1.67-5.29-3.6-8.25c-1.9-2.96-4.62-6.04-8.31-8.53c-3.7-2.45-8.35-4.34-13.58-4.84
								c-1.31-0.05-2.64-0.21-3.99-0.08c-0.67,0.05-1.36,0.03-2.04,0.13c-0.68,0.1-1.37,0.21-2.06,0.31
								c-2.73,0.56-5.52,1.37-8.12,2.77c-2.61,1.37-5.09,3.14-7.3,5.3c-2.16,2.2-4.04,4.78-5.49,7.64
								c-1.46,2.86-2.47,6.02-2.86,9.31c-0.16,0.82-0.16,1.65-0.21,2.48c-0.05,0.83-0.09,1.67-0.05,2.51
								c0.07,1.68,0.28,3.37,0.64,5.03c0.77,3.62,2.24,7.02,4.21,10.01l-0.03-0.3c-1.39,3.47-2.76,6.88-4.09,10.2l-0.24,0.6
								l0.63-0.17c3.74-1.03,7.38-2.03,10.91-3l-0.27-0.05c3.8,2.86,8.15,4.69,12.46,5.44c2.15,0.38,4.31,0.54,6.38,0.4
								c1.04-0.04,2.07-0.09,3.07-0.29c0.5-0.08,1-0.15,1.49-0.23c0.49-0.09,0.97-0.24,1.44-0.36c7.68-1.97,13.35-6.7,16.59-11.38
								c1.65-2.34,2.84-4.66,3.57-6.77c0.19-0.53,0.37-1.04,0.55-1.53c0.13-0.5,0.25-0.99,0.37-1.45c0.11-0.46,0.22-0.9,0.33-1.33
								c0.08-0.43,0.13-0.84,0.18-1.22c0.1-0.77,0.23-1.45,0.26-2.04c0.02-0.58,0.04-1.08,0.05-1.5c0.01-0.38,0.02-0.68,0.02-0.92
								C443.29,83.55,443.28,83.45,443.28,83.45c-0.01,0-0.02,0.1-0.04,0.31c-0.02,0.23-0.04,0.53-0.07,0.91
								c-0.03,0.41-0.06,0.91-0.1,1.49c-0.05,0.59-0.19,1.26-0.31,2.02c-0.55,3-1.75,7.5-5.11,12.1c-3.25,4.59-8.86,9.2-16.41,11.09
								c-0.47,0.11-0.94,0.26-1.42,0.34c-0.49,0.07-0.97,0.15-1.47,0.22c-0.98,0.19-1.99,0.23-3.01,0.27
								c-2.04,0.13-4.15-0.03-6.26-0.41c-4.22-0.76-8.47-2.56-12.19-5.37l-0.12-0.09l-0.15,0.04c-3.52,0.96-7.17,1.95-10.91,2.98
								l0.38,0.43c1.34-3.32,2.71-6.73,4.11-10.2l0.06-0.16l-0.1-0.14c-1.93-2.93-3.36-6.26-4.12-9.79
								c-0.35-1.63-0.55-3.27-0.62-4.92c-0.04-0.82-0.01-1.64,0.04-2.46c0.05-0.81,0.05-1.63,0.2-2.43
								c0.38-3.22,1.36-6.31,2.79-9.11c1.41-2.8,3.24-5.32,5.36-7.49c2.16-2.12,4.58-3.86,7.13-5.21c2.54-1.38,5.28-2.19,7.95-2.74
								c0.68-0.1,1.35-0.21,2.01-0.31c0.67-0.1,1.34-0.09,2-0.14c1.33-0.13,2.63,0.02,3.92,0.06c5.13,0.47,9.71,2.3,13.37,4.68
								c3.65,2.43,6.36,5.44,8.26,8.35c1.94,2.91,3.01,5.76,3.66,8.12c0.16,0.59,0.31,1.15,0.45,1.68c0.09,0.54,0.17,1.04,0.25,1.51
								c0.08,0.47,0.15,0.9,0.21,1.29c0.04,0.4,0.05,0.76,0.08,1.08c0.05,0.62,0.08,1.11,0.11,1.47
								C443.24,83.28,443.26,83.45,443.28,83.45z"/>
						</g>
					</g>
				</g>
			</g>
		</g>
	</g>
</g>
<g id="Question_Mark">
	<g>
		<g>
			<g>
				<path style="fill:#F7A246;" d="M145.07,201.38h57.75c0,0,0-48.49,50.39-49.36c26.17-0.45,39.74,16.69,45.25,29.83
					c6.4,15.25,4.46,32.63-4.11,46.78c-9.8,16.15-30.89,32.38-69.81,25.52l-0.37,128.67h57.11v-76.28c0,0,80.09-20.7,80.09-108.97
					c0-84.45-68.29-102.69-105-103.87c-20.42-0.65-27.83-1.53-53.09,2.06C171.1,100.33,144.39,137.71,145.07,201.38z"/>
				<rect x="224.01" y="409.64" style="fill:#F7A246;" width="57.96" height="54.13"/>
				<rect x="224.01" y="409.64" style="opacity:0.1;" width="57.96" height="54.13"/>
				<path style="opacity:0.1;" d="M145.07,201.38h57.75c0,0,0-48.49,50.39-49.36c26.17-0.45,39.74,16.69,45.25,29.83
					c6.4,15.25,4.46,32.63-4.11,46.78c-9.8,16.15-30.89,32.38-69.81,25.52l-0.37,128.67h57.11v-76.28c0,0,80.09-20.7,80.09-108.97
					c0-84.45-68.29-102.69-105-103.87c-20.42-0.65-27.83-1.53-53.09,2.06C171.1,100.33,144.39,137.71,145.07,201.38z"/>
			</g>
			<g>
				<path style="fill:#F7A246;" d="M121.14,201.38h57.75c0,0,0-48.49,50.39-49.36c26.17-0.45,39.74,16.69,45.25,29.83
					c6.4,15.25,4.46,32.63-4.11,46.78c-9.8,16.15-31.26,30.83-70.18,23.97v130.22h57.11v-76.28c0,0,80.09-20.7,80.09-108.97
					c0-84.45-75.73-104.07-108.15-104.06C204.51,93.51,120.05,99.5,121.14,201.38z"/>
				<path style="opacity:0.3;" d="M121.14,201.38h57.75c0,0,0-48.49,50.39-49.36c26.17-0.45,39.74,16.69,45.25,29.83
					c6.4,15.25,4.46,32.63-4.11,46.78c-9.8,16.15-31.26,30.83-70.18,23.97v130.22h57.11v-76.28c0,0,80.09-20.7,80.09-108.97
					c0-84.45-75.73-104.07-108.15-104.06C204.51,93.51,120.05,99.5,121.14,201.38z"/>
				<rect x="200.09" y="409.64" style="fill:#F7A246;" width="57.96" height="54.13"/>
				<rect x="200.09" y="409.64" style="opacity:0.3;" width="57.96" height="54.13"/>
			</g>
		</g>
		<g>
			<path style="fill:#263238;" d="M235.81,152.29c0,0.02-0.3,0-0.86-0.05c-0.57-0.03-1.39-0.19-2.46-0.2
				c-2.14-0.14-5.25-0.09-9.06,0.38c-3.8,0.48-8.29,1.42-13.07,3.07c-2.38,0.86-4.85,1.84-7.28,3.13c-2.45,1.24-4.88,2.76-7.12,4.61
				c-2.26,1.83-4.17,3.97-5.83,6.16c-1.67,2.19-3.12,4.42-4.37,6.62c-2.46,4.43-4.13,8.7-5.17,12.39c-1.06,3.68-1.53,6.76-1.74,8.89
				c-0.12,1.07-0.16,1.9-0.18,2.46c-0.03,0.56-0.06,0.86-0.08,0.86c-0.02,0-0.03-0.3-0.03-0.86c0-0.57,0-1.4,0.09-2.48
				c0.15-2.15,0.56-5.26,1.58-8.98c1-3.72,2.65-8.04,5.11-12.52c1.25-2.22,2.7-4.48,4.38-6.7c1.67-2.21,3.6-4.39,5.9-6.25
				c2.28-1.88,4.74-3.41,7.22-4.66c2.46-1.3,4.96-2.28,7.36-3.13c4.83-1.65,9.36-2.56,13.19-2.99c3.83-0.42,6.97-0.42,9.11-0.21
				c1.08,0.04,1.9,0.24,2.46,0.3C235.52,152.22,235.82,152.28,235.81,152.29z"/>
		</g>
		<g>
			<path style="fill:#263238;" d="M322.83,141.98c-0.01,0-0.07-0.07-0.19-0.23c-0.13-0.18-0.3-0.41-0.51-0.7
				c-0.46-0.65-1.09-1.55-1.9-2.7c-0.42-0.58-0.85-1.25-1.38-1.94c-0.56-0.67-1.16-1.4-1.8-2.19c-0.65-0.79-1.34-1.63-2.07-2.52
				c-0.75-0.87-1.63-1.72-2.5-2.66c-0.9-0.91-1.79-1.92-2.8-2.88c-1.04-0.94-2.11-1.91-3.23-2.92c-0.56-0.5-1.11-1.03-1.71-1.53
				c-0.61-0.48-1.23-0.97-1.86-1.47c-1.27-0.98-2.53-2.04-3.9-3.03c-5.48-3.97-11.89-7.79-18.92-11.18c-1.78-0.8-3.54-1.6-5.27-2.38
				c-1.77-0.69-3.52-1.37-5.24-2.03c-1.7-0.71-3.44-1.21-5.12-1.76c-1.69-0.52-3.32-1.13-4.97-1.52c-1.64-0.43-3.23-0.85-4.78-1.26
				c-1.55-0.41-3.09-0.65-4.56-0.97c-1.48-0.28-2.89-0.64-4.28-0.82c-1.38-0.2-2.71-0.39-3.98-0.58c-2.53-0.43-4.85-0.52-6.87-0.72
				c-1.01-0.08-1.96-0.19-2.83-0.23c-0.87-0.02-1.66-0.04-2.38-0.06c-1.4-0.05-2.51-0.08-3.3-0.11c-0.35-0.02-0.64-0.03-0.86-0.04
				c-0.19-0.01-0.29-0.02-0.29-0.03c0-0.01,0.1-0.02,0.29-0.02c0.22,0,0.51-0.01,0.86-0.01c0.79,0,1.9,0,3.3,0.01
				c0.72,0.01,1.52,0.01,2.39,0.02c0.87,0.03,1.82,0.12,2.83,0.19c2.03,0.18,4.36,0.24,6.9,0.65c1.27,0.17,2.61,0.35,3.99,0.54
				c1.39,0.16,2.81,0.52,4.3,0.79c1.48,0.31,3.02,0.55,4.58,0.95c1.56,0.4,3.16,0.82,4.81,1.24c1.66,0.38,3.29,0.98,4.99,1.51
				c1.69,0.55,3.44,1.05,5.15,1.76c1.72,0.67,3.48,1.34,5.26,2.03c1.74,0.79,3.51,1.58,5.29,2.39c7.06,3.4,13.49,7.25,18.98,11.26
				c1.38,0.99,2.64,2.07,3.91,3.06c0.63,0.5,1.25,1,1.86,1.48c0.6,0.5,1.15,1.04,1.71,1.54c1.11,1.02,2.19,2.01,3.22,2.95
				c1.01,0.97,1.9,1.99,2.79,2.91c0.87,0.94,1.74,1.81,2.49,2.69c0.72,0.9,1.41,1.75,2.04,2.55c0.64,0.8,1.23,1.54,1.77,2.22
				c0.51,0.71,0.94,1.38,1.34,1.98c0.78,1.17,1.39,2.1,1.82,2.76c0.19,0.3,0.34,0.54,0.46,0.72
				C322.79,141.89,322.84,141.98,322.83,141.98z"/>
		</g>
		<g>
			<path style="fill:#263238;" d="M316.81,265.98c0.01,0.01-0.14,0.22-0.44,0.6c-0.34,0.42-0.78,0.97-1.33,1.66
				c-0.58,0.72-1.3,1.59-2.18,2.56c-0.88,0.98-1.84,2.12-3.01,3.29c-1.14,1.2-2.39,2.5-3.81,3.83c-1.38,1.37-2.94,2.74-4.57,4.2
				c-3.31,2.85-7.08,5.84-11.22,8.72c-4.16,2.85-8.3,5.31-12.14,7.39c-1.94,1-3.78,1.98-5.55,2.78c-1.75,0.85-3.41,1.56-4.94,2.2
				c-1.51,0.67-2.92,1.17-4.14,1.64c-1.22,0.48-2.29,0.84-3.17,1.13c-0.84,0.27-1.51,0.49-2.02,0.66c-0.46,0.14-0.71,0.21-0.72,0.19
				c-0.01-0.02,0.23-0.12,0.68-0.29c0.5-0.19,1.16-0.44,1.99-0.75c0.87-0.31,1.92-0.7,3.13-1.21c1.21-0.5,2.61-1.02,4.1-1.71
				c1.51-0.66,3.16-1.38,4.89-2.25c1.76-0.81,3.58-1.8,5.51-2.81c3.82-2.09,7.92-4.56,12.07-7.4c4.13-2.86,7.89-5.83,11.2-8.65
				c1.63-1.44,3.2-2.79,4.58-4.15c1.42-1.31,2.69-2.6,3.84-3.77c1.18-1.15,2.16-2.27,3.05-3.23c0.9-0.95,1.64-1.8,2.24-2.5
				c0.58-0.66,1.05-1.19,1.41-1.59C316.62,266.15,316.8,265.97,316.81,265.98z"/>
		</g>
		<g>
			<path style="fill:#263238;" d="M256.35,378.28c-0.14,0-0.26-16.06-0.26-35.87c0-19.82,0.12-35.88,0.26-35.88
				c0.14,0,0.26,16.06,0.26,35.88C256.61,362.22,256.49,378.28,256.35,378.28z"/>
		</g>
		<g>
			<path style="fill:#263238;" d="M258.55,460.1c-0.14,0-0.26-11.27-0.26-25.17c0-13.91,0.12-25.18,0.26-25.18
				c0.14,0,0.26,11.27,0.26,25.18C258.81,448.83,258.69,460.1,258.55,460.1z"/>
		</g>
	</g>
</g>
<g id="Character">
	<g>
		<g>
			<path style="fill:#F7A246;" d="M315.4,193.71c-1.01,2.01,2.73,3.64,4.88,4.29c2.16,0.65,4.46,0.58,6.7,0.46
				c2.98-0.16,6.07-0.44,8.66-1.92c2.3-1.32,4.02-3.49,5.22-5.85c1.2-2.37,1.93-4.94,2.65-7.49
				C343.52,183.2,319.89,184.74,315.4,193.71z"/>
			<g style="opacity:0.4;">
				<path d="M315.4,193.71c-1.01,2.01,2.73,3.64,4.88,4.29c2.16,0.65,4.46,0.58,6.7,0.46c2.98-0.16,6.07-0.44,8.66-1.92
					c2.3-1.32,4.02-3.49,5.22-5.85c1.2-2.37,1.93-4.94,2.65-7.49C343.52,183.2,319.89,184.74,315.4,193.71z"/>
			</g>
			<g>
				<path style="fill:#F7A246;" d="M382.14,187.31c3.86,2.75,8.6,4.24,13.34,4.19c2.27-0.03,4.68-0.47,6.35-2
					c0.77-0.7,1.35-1.61,2.14-2.28c0.54-0.46,1.17-0.81,1.68-1.31c0.51-0.5,0.89-1.21,0.74-1.9c-0.16-0.71-0.75-1.85-1.38-2.21
					c-2.71-1.54-5.95-1.48-9.07-1.41c-3.12,0.07-6.19,0.8-9.15,1.79c-2.42,0.81-4.95,1.96-6.18,4.2"/>
				<g style="opacity:0.4;">
					<path d="M406.38,184.01c-0.16-0.71-1.14-1.65-1.77-2.01c-2.71-1.54-5.56-1.68-8.68-1.61c-3.12,0.07-6.19,0.8-9.15,1.79
						c-2.42,0.81-4.95,1.96-6.18,4.2l1.54,0.92c3.86,2.75,8.6,4.24,13.34,4.19c2.27-0.03,4.67-0.47,6.35-2
						c0.77-0.7,1.35-1.61,2.14-2.28c0.54-0.46,1.17-0.81,1.68-1.31C406.15,185.41,406.54,184.7,406.38,184.01z"/>
				</g>
			</g>
			<path style="fill:#F7A246;" d="M336.02,223.2l49.85,0.65c0.44,0.01,0.75-0.42,0.62-0.84l-5.85-18.24c0,0,0.86-9.11,2.05-20.08
				c1.81-16.64,4.21-37.57,4.24-37.52c-3.4-9.56-23.52-11.18-23.52-11.18l-22.93,1.36l-0.81-1.35l-6.6,3.07
				c-1.44,0.67-2.82,1.45-4.14,2.33c-4.35,2.92-14.86,9.6-16.78,17.06c-4.43,17.24,3.07,36.49,3.07,36.49l4.81-3.76
				c1.26-0.95,2.45-1.78,3.82-2.55l9.66,25.89c0,0-2.01,1.22-2.1,3.32C331.35,219.96,332.47,222.48,336.02,223.2"/>
			<g style="opacity:0.3;">
				<path d="M357.39,192.68c1.58-8.5,0.75-17.24-0.1-25.84c-2.77,7.04-2.67,14.97-5.6,21.94c-0.32,0.75-0.67,1.5-0.78,2.31
					c-0.11,0.81,0.06,1.7,0.67,2.25c0.8,0.73,1.98,0.34,3.05,0.21C355.77,193.42,356.37,193.03,357.39,192.68"/>
			</g>
			<g style="opacity:0.4;">
				<path d="M339.03,212.36c4.02,1.4,8.26-1.19,12.49-1.65c2.8-0.3,5.6,0.34,8.38,0.79c5.61,0.91,11.35,1.05,17,0.42
					c0.86-0.1,1.75-0.22,2.5-0.65c0.76-0.43,1.36-1.62,1.31-2.48c-9.41-0.97-18.83-1.54-28.24-2.51c-2.36-0.24-4.8-0.48-7.06,0.22
					c-2.85,0.88-5.04,3.12-7.04,5.32"/>
			</g>
			<path style="fill:#F7A246;" d="M404.94,180.72c-4.08-9.16-18.42-34.52-18.42-34.52l-11.11,13.93l2.59,27.35
				c0,0,5.87-6.55,22.28-6.68c3.82-0.03,6.11,3.22,6.11,3.22L404.94,180.72z"/>
			<g>
				<path style="fill:#263238;" d="M338.23,175.87c-0.14,0.04-0.98-2.64-1.87-5.98c-0.9-3.34-1.51-6.08-1.37-6.12
					c0.14-0.04,0.98,2.64,1.87,5.98C337.75,173.1,338.37,175.84,338.23,175.87z"/>
			</g>
			<g>
				<path style="fill:#263238;" d="M374.57,158.27c0.02-0.03,0.39,0.29,1.03,0.87c0.62,0.6,1.51,1.5,2.48,2.72
					c1.94,2.4,4.31,6.16,5.31,10.86c0.5,2.34,0.58,4.64,0.32,6.7c-0.26,2.05-0.65,3.85-0.9,5.37c-0.26,1.52-0.42,2.76-0.5,3.62
					c-0.08,0.86-0.1,1.34-0.14,1.34c-0.03,0-0.08-0.48-0.06-1.35c0.02-0.87,0.12-2.13,0.34-3.66c0.21-1.54,0.56-3.35,0.79-5.37
					c0.23-2.01,0.13-4.25-0.35-6.53c-0.97-4.59-3.24-8.31-5.09-10.74C375.93,159.63,374.49,158.35,374.57,158.27z"/>
			</g>
			<g>
				<path style="fill:#263238;" d="M364.39,221.02c0.01,0.04-0.38,0.15-1.09,0.32c-0.35,0.09-0.79,0.19-1.3,0.25
					c-0.51,0.07-1.09,0.18-1.75,0.21c-1.3,0.13-2.86,0.12-4.58-0.03c-1.72-0.18-3.59-0.52-5.5-1.1c-1.9-0.6-3.64-1.38-5.16-2.21
					c-1.5-0.85-2.79-1.73-3.79-2.57c-0.52-0.39-0.94-0.81-1.32-1.16c-0.39-0.34-0.69-0.67-0.93-0.95c-0.49-0.54-0.74-0.85-0.72-0.87
					c0.07-0.07,1.15,1.13,3.19,2.69c1.01,0.79,2.3,1.62,3.79,2.44c1.5,0.79,3.22,1.54,5.08,2.13c1.87,0.57,3.71,0.92,5.4,1.12
					c1.69,0.17,3.22,0.21,4.51,0.14C362.8,221.3,364.37,220.92,364.39,221.02z"/>
			</g>
			<g>
				<path style="fill:#263238;" d="M379.78,215.32c0.06-0.01,0.26,0.53,0.38,1.46c0.12,0.92,0.14,2.25-0.27,3.64
					c-0.4,1.4-1.23,2.5-1.96,3.1c-0.73,0.61-1.29,0.8-1.32,0.75c-0.04-0.07,0.44-0.38,1.07-1.02c0.62-0.63,1.34-1.67,1.71-2.98
					C380.16,217.63,379.59,215.33,379.78,215.32z"/>
			</g>
			<g>
				<path style="fill:#263238;" d="M377.07,218.84c0.13-0.03,0.39,1.43-0.25,3.08c-0.63,1.65-1.81,2.55-1.89,2.44
					c-0.11-0.11,0.82-1.1,1.4-2.63C376.94,220.21,376.92,218.85,377.07,218.84z"/>
			</g>
			<g>
				<path style="fill:#263238;" d="M368.15,185.94c0.11,0.11-0.82,1.15-1.78,2.56c-0.97,1.4-1.61,2.64-1.75,2.58
					c-0.13-0.05,0.32-1.42,1.32-2.87C366.93,186.75,368.05,185.84,368.15,185.94z"/>
			</g>
			<g>
				<path style="fill:#263238;" d="M333.93,161.72c-0.06,0.06-0.85-0.57-2.21-1.46c-1.36-0.89-3.33-1.99-5.66-2.87
					c-2.33-0.86-4.54-1.32-6.15-1.54c-1.61-0.22-2.63-0.26-2.63-0.34c0-0.06,1.02-0.15,2.67-0.02c1.65,0.13,3.92,0.54,6.29,1.42
					c2.37,0.89,4.36,2.07,5.68,3.05C333.26,160.94,333.97,161.68,333.93,161.72z"/>
			</g>
			<g>
				<path style="fill:#263238;" d="M386.52,145.86c0.1,0.14-2.6,1.78-5.05,4.73c-2.48,2.92-3.65,5.86-3.8,5.79
					c-0.06-0.02,0.15-0.78,0.7-1.94c0.54-1.15,1.45-2.68,2.7-4.18c1.26-1.49,2.61-2.65,3.66-3.38
					C385.78,146.14,386.49,145.8,386.52,145.86z"/>
			</g>
			<g>
				<path style="fill:#263238;" d="M365.94,137.62c0.02-0.01,0.09,0.15,0.23,0.46c0.15,0.31,0.3,0.78,0.47,1.4
					c0.32,1.24,0.49,3.15-0.02,5.42c-0.52,2.24-1.77,4.84-4.08,6.89c-2.29,2.06-5.67,3.29-9.2,3.28c-3.54-0.02-6.87-1.24-9.29-3.1
					c-2.45-1.85-4.08-4.15-5.11-6.2c-1.02-2.07-1.49-3.89-1.7-5.15c-0.1-0.63-0.17-1.13-0.18-1.46c-0.02-0.34-0.03-0.51-0.01-0.51
					c0.05-0.01,0.11,0.7,0.39,1.94c0.27,1.24,0.79,3.01,1.83,5.02c1.06,1.98,2.67,4.21,5.07,5.98c2.36,1.79,5.58,2.94,9.01,2.97
					c3.42,0.01,6.67-1.16,8.88-3.12c2.24-1.95,3.49-4.45,4.04-6.62c0.54-2.19,0.43-4.05,0.18-5.29
					C366.18,138.28,365.88,137.64,365.94,137.62z"/>
			</g>
			<g style="opacity:0.3;">
				<path d="M369.44,187.71c-0.02-0.5-0.08-1.09-0.51-1.34c-0.27-0.16-0.62-0.12-0.91,0.02c-0.28,0.14-0.51,0.37-0.72,0.6
					c-1.21,1.31-2.06,2.59-2.67,4.27l4.9-0.42C369.49,189.8,369.47,188.74,369.44,187.71z"/>
			</g>
			<g style="opacity:0.3;">
				<path d="M385.71,177.4c-0.38-2.8-1.81-5.37-3.55-7.6c2.11,6.92,1.4,10.83,0.22,15.56l0.26-0.66
					C383.99,181.94,386.08,180.2,385.71,177.4z"/>
			</g>
		</g>
		<g>
			<g>
				<polygon style="fill:#FFBE9D;" points="375.92,409.86 372.93,454.71 353.43,454.48 350.35,407.85 				"/>
			</g>
			<g>
				<g>
					<g>
						<g>
							<path style="fill:#F7A246;" d="M373.48,448.81l0,1.3c0,0,21.98,8.85,22.21,13.02l-43.66-0.26l0.68-14.52
								C359.19,451.39,365.98,451.77,373.48,448.81z"/>
						</g>
					</g>
					<g>
						<g>
							<g>
								<path style="fill:#FFFFFF;" d="M357.11,453.02c-0.85,0.23-1.44,1.17-1.24,2.03c0.19,0.86,1.15,1.46,2,1.25
									c0.85-0.21,1.59-1.33,1.31-2.15c-0.29-0.83-1.45-1.48-2.22-1.07"/>
							</g>
						</g>
					</g>
					<g>
						<g>
							<path style="fill:#263238;" d="M352.04,462.87l0.16-3.49l41.79,1.52c0,0,1.94,0.86,1.71,2.22L352.04,462.87z"/>
						</g>
					</g>
					<g>
						<g>
							<g>
								<path style="fill:#263238;" d="M373.64,450.23c-0.01,0.21-1.07,0.3-2.13,0.98c-1.07,0.65-1.62,1.57-1.81,1.49
									c-0.2-0.04,0.13-1.32,1.42-2.12C372.4,449.77,373.69,450.03,373.64,450.23z"/>
							</g>
						</g>
					</g>
					<g>
						<g>
							<g>
								<path style="fill:#263238;" d="M378.21,452.15c0.05,0.21-0.88,0.56-1.61,1.46c-0.76,0.88-0.94,1.85-1.16,1.84
									c-0.2,0.03-0.34-1.22,0.59-2.32C376.95,452.03,378.2,451.95,378.21,452.15z"/>
							</g>
						</g>
					</g>
					<g>
						<g>
							<g>
								<path style="fill:#263238;" d="M380.78,457.65c-0.19,0.04-0.48-1.02,0.07-2.19c0.55-1.17,1.55-1.62,1.64-1.45
									c0.12,0.18-0.53,0.8-0.97,1.76C381.05,456.73,380.99,457.63,380.78,457.65z"/>
							</g>
						</g>
					</g>
				</g>
			</g>
		</g>
		<g>
			<path style="fill:#263238;" d="M372.36,81.85c1.12-2.8-0.24-6.2-2.67-7.99c-2.43-1.79-5.68-2.18-8.66-1.7
				c-2.98,0.47-5.78,1.72-8.54,2.95c-2.5-2.51-6.46-3.47-9.83-2.37c-3.37,1.1-6,4.2-6.54,7.71c-2.15-0.55-4.57,0.19-6.06,1.83
				c-1.49,1.65-1.97,4.13-1.2,6.21l13.52,4.75l14.76,25.97c4.32,3.68,11.37,3.58,15.58-0.22c4.21-3.8,5.02-10.82,1.79-15.48
				c0.83-0.73,1.52-1.61,2.07-2.56c2.34-1.45,4.17-3.7,4.78-6.4C382.65,88.85,378.17,82.53,372.36,81.85z"/>
			<g>
				<g>
					<g>
						<g>
							<g>
								<g>
									<g>
										<g>
											<g>
												<g>
													<g>
														<g>
															<g>
																<g>
																	<g>
																		<g>
																			<g>
																				<path style="fill:#FFBE9D;" d="M363.41,136c-0.84-4.23-1.42-7.12-1.42-7.09c0,0,7.97-3.1,7.42-14.24
																					c-0.27-5.54-2.39-14.26-4.34-21.35c-1.76-6.38-7.71-13.41-14.01-11.38l-19.04,9.3
																					c-1.91,0.62-2.25,2.41-1.8,4.37l0.03,0.96l7.41,30.66l3.13,13.7c1.39,5.83,6.99,9.64,12.92,8.78l0,0
																					C360.28,148.76,364.7,142.5,363.41,136z"/>
																			</g>
																		</g>
																	</g>
																</g>
															</g>
														</g>
													</g>
													<g>
														<g>
															<g>
																<g>
																	<g>
																		<g>
																			<g>
																				<g>
																					<path style="fill:#263238;" d="M364.95,100.72c0.18,0.72-0.29,1.47-1.04,1.67c-0.75,0.2-1.51-0.22-1.69-0.95
																						c-0.18-0.72,0.29-1.47,1.04-1.67C364.01,99.57,364.77,100,364.95,100.72z"/>
																				</g>
																			</g>
																		</g>
																	</g>
																</g>
															</g>
														</g>
														<g>
															<g>
																<g>
																	<g>
																		<g>
																			<g>
																				<g>
																					<g>
																						<path style="fill:#263238;" d="M364.13,98.59c-0.13,0.22-1.34-0.34-2.83-0.02c-1.49,0.29-2.42,1.29-2.62,1.14
																							c-0.1-0.06,0.01-0.43,0.41-0.87c0.4-0.44,1.12-0.94,2.05-1.14c0.93-0.19,1.78-0.01,2.3,0.24
																							C363.97,98.2,364.19,98.5,364.13,98.59z"/>
																					</g>
																				</g>
																			</g>
																		</g>
																	</g>
																</g>
															</g>
														</g>
													</g>
													<g>
														<g>
															<g>
																<g>
																	<g>
																		<g>
																			<g>
																				<g>
																					<path style="fill:#263238;" d="M350.48,104.04c0.18,0.72-0.29,1.47-1.04,1.67c-0.75,0.2-1.51-0.22-1.69-0.95
																						c-0.18-0.72,0.29-1.47,1.04-1.67C349.54,102.89,350.3,103.32,350.48,104.04z"/>
																				</g>
																			</g>
																		</g>
																	</g>
																</g>
															</g>
														</g>
														<g>
															<g>
																<g>
																	<g>
																		<g>
																			<g>
																				<g>
																					<g>
																						<path style="fill:#263238;" d="M349.75,102.12c-0.13,0.22-1.34-0.34-2.83-0.02
																							c-1.49,0.29-2.42,1.29-2.62,1.14c-0.1-0.06,0.01-0.43,0.41-0.87c0.4-0.44,1.12-0.94,2.05-1.14
																							c0.93-0.19,1.78-0.01,2.3,0.24C349.59,101.73,349.82,102.02,349.75,102.12z"/>
																					</g>
																				</g>
																			</g>
																		</g>
																	</g>
																</g>
															</g>
														</g>
													</g>
													<g>
														<g>
															<g>
																<g>
																	<g>
																		<g>
																			<g>
																				<g>
																					<path style="fill:#263238;" d="M357.28,111.52c-0.02-0.08,0.87-0.44,2.32-0.94c0.37-0.12,0.71-0.27,0.72-0.54
																						c0.03-0.29-0.21-0.67-0.49-1.07c-0.55-0.84-1.13-1.73-1.73-2.66c-2.42-3.79-4.26-6.94-4.11-7.03
																						c0.15-0.1,2.24,2.9,4.66,6.69c0.59,0.94,1.15,1.83,1.69,2.68c0.23,0.4,0.58,0.84,0.51,1.45
																						c-0.04,0.31-0.28,0.57-0.51,0.69c-0.23,0.13-0.44,0.17-0.63,0.22C358.24,111.41,357.3,111.61,357.28,111.52z"
																						/>
																				</g>
																			</g>
																		</g>
																	</g>
																</g>
															</g>
														</g>
													</g>
													<g>
														<g>
															<g>
																<g>
																	<g>
																		<g>
																			<g>
																				<path style="fill:#EB996E;" d="M362,128.9c0,0-7.15,1.99-15.24-0.82c0,0,5.23,6.84,15.81,3.57L362,128.9z"/>
																			</g>
																		</g>
																	</g>
																</g>
															</g>
														</g>
													</g>
												</g>
											</g>
										</g>
										<g>
											<g>
												<g>
													<g>
														<g>
															<g>
																<g>
																	<path style="fill:#263238;" d="M350.03,100c-0.1,0.43-1.63,0.42-3.37,0.85c-1.75,0.39-3.12,1.09-3.4,0.75
																		c-0.13-0.16,0.08-0.58,0.6-1.05c0.52-0.47,1.39-0.95,2.44-1.2c1.05-0.25,2.04-0.2,2.72-0.01
																		C349.7,99.51,350.07,99.8,350.03,100z"/>
																</g>
															</g>
														</g>
													</g>
												</g>
											</g>
										</g>
										<g>
											<g>
												<g>
													<g>
														<g>
															<g>
																<g>
																	<path style="fill:#263238;" d="M363.56,93.87c-0.24,0.4-1.52,0.31-2.98,0.6c-1.47,0.25-2.64,0.79-3,0.5
																		c-0.16-0.15-0.04-0.52,0.44-0.96c0.46-0.43,1.3-0.88,2.31-1.06c1.01-0.18,1.94-0.06,2.52,0.18
																		C363.42,93.36,363.66,93.67,363.56,93.87z"/>
																</g>
															</g>
														</g>
													</g>
												</g>
											</g>
										</g>
									</g>
								</g>
							</g>
						</g>
						<g>
							<path style="fill:#263238;" d="M336.71,84.08c0.44,2.16,1.88,4.09,3.82,5.13c1.94,1.04,4.35,1.17,6.39,0.34
								c1.58-0.64,3.22-1.85,4.82-1.27c1.69,0.61,2.22,2.86,3.79,3.74c2.24,1.25,4.94-0.92,7.5-0.7c1.98,0.17,3.51,1.71,5.06,2.95
								c1.55,1.24,3.7,2.28,5.45,1.34c-0.47-1.65-0.94-3.32-1.77-4.82c-0.83-1.5-2.07-2.84-3.66-3.46
								c-0.88-0.34-1.83-0.46-2.67-0.89c-1.81-0.93-2.61-3.03-3.93-4.57c-1.7-1.99-4.4-3.08-7-2.81c-2.17,0.22-4.22,1.31-6.39,1.22
								c-1.61-0.07-3.15-0.78-4.76-0.76c-3.13,0.05-5.49,2.8-7.23,5.4"/>
						</g>
					</g>
				</g>
				<path style="fill:#263238;" d="M347.25,86.37c-1.43-0.11-4.38-0.41-5.35-1.43c-2.1-2.22-5.24-3.38-8.04-2.64
					c-2.8,0.74-5.06,3.55-5.02,6.66c-3.43,0.74-6.33,3.59-7.3,7.17c-0.97,3.58,0.02,7.76,2.5,10.5c0.65,0.72,1.64,2.38,1.64,2.38
					s-1.29,1.61-1.78,2.7c-2.28,5.06,3.92,7,3.92,7c0.02,3.4,3.15,3.39,5.16,3.37c1.93-0.01,3.12,5.35,4.69,5.14l-1.59-16.56
					c0.19,0.08,0.43,0.13,0.73,0.13c3.79,0.07,2.8-7.1,1.57-8.96c1.07-1.43,2.15-2.89,2.84-4.57c0.69-1.69,0.74-5.9,0.15-7.67
					C342.7,89.4,347.87,86.41,347.25,86.37z"/>
				<g>
					<g>
						<g>
							<g>
								<g>
									<g>
										<g>
											<g>
												<g>
													<g>
														<g>
															<path style="fill:#FFBE9D;" d="M336.64,111.54c-0.59-2.27-3.41-3.28-5.16-1.72c-0.96,0.86-1.53,2.3-0.93,4.71
																c1.61,6.44,7.74,3.49,7.71,3.3C338.25,117.72,337.34,114.2,336.64,111.54z"/>
														</g>
													</g>
												</g>
											</g>
										</g>
									</g>
								</g>
							</g>
						</g>
					</g>
					<g>
						<g>
							<g>
								<g>
									<g>
										<g>
											<g>
												<g>
													<g>
														<g>
															<g>
																<path style="fill:#EB996E;" d="M335.69,115.89c-0.03-0.01-0.09,0.11-0.26,0.24c-0.16,0.13-0.47,0.27-0.83,0.23
																	c-0.74-0.08-1.59-1.02-1.91-2.17c-0.16-0.58-0.18-1.17-0.09-1.68c0.08-0.52,0.3-0.93,0.63-1.07
																	c0.32-0.16,0.61-0.02,0.74,0.14c0.13,0.16,0.12,0.3,0.16,0.3c0.02,0.01,0.11-0.14-0.01-0.4
																	c-0.06-0.12-0.17-0.25-0.35-0.34c-0.19-0.09-0.43-0.09-0.66-0.01c-0.49,0.16-0.82,0.73-0.92,1.29
																	c-0.13,0.57-0.12,1.24,0.06,1.89c0.37,1.29,1.34,2.33,2.33,2.37c0.48,0,0.83-0.23,0.98-0.43
																	C335.72,116.05,335.72,115.9,335.69,115.89z"/>
															</g>
														</g>
													</g>
												</g>
											</g>
										</g>
									</g>
								</g>
							</g>
						</g>
					</g>
				</g>
			</g>
			<g>
				<path style="fill:#455A64;" d="M371.17,102.55c-0.04-0.05,0.58-0.45,1.4-1.45c0.8-1,1.78-2.69,2.01-5
					c0.11-1.14,0.05-2.43-0.36-3.71c-0.41-1.27-1.15-2.56-2.29-3.55c-2.22-2.02-5.89-2.95-9.19-1.79c-0.3,0.1-0.58,0.25-0.87,0.37
					c-0.27,0.14-0.53,0.3-0.79,0.45l-0.4,0.22l-0.01-0.44c-0.01-0.78-0.3-1.53-0.81-2.1c-0.5-0.58-1.15-1.02-1.85-1.32
					c-1.4-0.62-2.91-0.63-4.29-0.31c-2.76,0.63-5.1,1.89-7.31,2.14c-2.19,0.28-4.01-0.26-4.99-1c-0.51-0.35-0.79-0.75-0.98-1
					c-0.16-0.28-0.24-0.42-0.22-0.43c0.05-0.04,0.32,0.61,1.31,1.27c0.97,0.66,2.72,1.12,4.83,0.81c1.05-0.15,2.17-0.53,3.36-0.97
					c1.19-0.44,2.47-0.96,3.9-1.28c0.72-0.15,1.47-0.27,2.26-0.23c0.78,0.04,1.57,0.22,2.33,0.54c0.75,0.32,1.47,0.8,2.04,1.45
					c0.58,0.64,0.93,1.53,0.94,2.44l-0.4-0.22c0.27-0.15,0.55-0.33,0.84-0.48c0.3-0.13,0.6-0.29,0.92-0.39
					c3.51-1.23,7.35-0.23,9.69,1.92c1.19,1.06,1.97,2.44,2.38,3.78c0.41,1.35,0.45,2.69,0.31,3.88c-0.28,2.39-1.35,4.11-2.22,5.09
					c-0.44,0.49-0.83,0.84-1.12,1.03C371.34,102.47,371.18,102.56,371.17,102.55z"/>
			</g>
			<g>
				<path style="fill:#455A64;" d="M369.87,79.94c-0.04,0.07-0.68-0.51-2.07-0.71c-0.68-0.09-1.55-0.09-2.46,0.22
					c-0.91,0.28-1.87,0.89-2.53,1.84l-0.24,0.35l-0.15-0.4c-0.81-2.16-3.17-4.21-6.1-4.53c-2.2-0.25-4.2,0.74-5.86,1.69
					c-1.68,0.98-3.21,1.94-4.65,2.4c-1.42,0.5-2.69,0.56-3.52,0.41c-0.42-0.07-0.73-0.17-0.93-0.26c-0.2-0.09-0.31-0.14-0.3-0.16
					c0.02-0.05,0.45,0.13,1.26,0.21c0.81,0.08,2-0.03,3.37-0.56c1.38-0.49,2.84-1.45,4.53-2.47c0.85-0.5,1.77-1.01,2.8-1.37
					c1.03-0.37,2.19-0.55,3.36-0.43c3.14,0.35,5.64,2.56,6.46,4.89l-0.4-0.05c0.75-1.05,1.82-1.67,2.8-1.94
					c0.98-0.3,1.9-0.26,2.61-0.13c0.72,0.14,1.24,0.4,1.57,0.6C369.73,79.79,369.88,79.93,369.87,79.94z"/>
			</g>
			<path style="fill:#F7A246;" d="M356.7,114.48c-0.45-0.44-1.13-0.58-1.76-0.51c-0.59,0.07-1.31,0.59-1.69,1.23
				c-0.01,0.01-0.02,0.02-0.03,0.04c-0.02,0.03-0.04,0.05-0.06,0.08l0.02-0.02c-0.14,0.23-0.22,0.49-0.19,0.76
				c0.06,0.59,0.51,1.09,1.04,1.35c0.84,0.42,1.96,0.3,2.62-0.38C357.34,116.35,357.38,115.14,356.7,114.48z"/>
			<g>
				<path style="fill:#263238;" d="M357.2,117.59c-0.08,0.02-0.18-0.3-0.44-0.72c-0.26-0.42-0.73-0.94-1.39-1.25
					c-0.67-0.3-1.37-0.31-1.85-0.23c-0.49,0.07-0.79,0.21-0.83,0.14c-0.04-0.05,0.21-0.31,0.74-0.49c0.52-0.19,1.35-0.25,2.16,0.11
					c0.8,0.37,1.3,1.04,1.5,1.55C357.3,117.23,357.27,117.58,357.2,117.59z"/>
			</g>
			<g>
				<path style="fill:#F7A246;" d="M336.79,118.83c0.05-0.03,0.29,0.5-0.09,1.26c-0.19,0.36-0.53,0.76-1.07,0.96
					c-0.53,0.21-1.22,0.13-1.76-0.21c-0.55-0.34-0.91-0.92-0.95-1.5c-0.05-0.57,0.17-1.05,0.41-1.38c0.52-0.67,1.1-0.68,1.1-0.62
					c0.03,0.08-0.44,0.23-0.79,0.83c-0.17,0.29-0.3,0.7-0.24,1.12c0.05,0.42,0.33,0.84,0.75,1.11c0.42,0.26,0.93,0.33,1.33,0.2
					c0.41-0.13,0.72-0.42,0.91-0.7C336.78,119.32,336.71,118.83,336.79,118.83z"/>
			</g>
			<g>
				<path style="fill:#F7A246;" d="M333.42,118.44c0.06,0.03-0.03,0.34-0.47,0.55c-0.21,0.1-0.51,0.16-0.83,0.08
					c-0.33-0.08-0.64-0.32-0.82-0.65c-0.18-0.33-0.21-0.73-0.1-1.04c0.11-0.31,0.32-0.53,0.52-0.65c0.42-0.25,0.73-0.15,0.72-0.09
					c0.01,0.08-0.25,0.13-0.49,0.38c-0.26,0.24-0.44,0.71-0.19,1.15c0.24,0.45,0.73,0.55,1.07,0.47
					C333.17,118.58,333.35,118.4,333.42,118.44z"/>
			</g>
		</g>
		<g>
			<path style="fill:#FFBE9D;" d="M344.41,207.25c0,0,24.76,1.44,39.39,1.57c11.34,0.1,16.39-2.91,18.65-10.19
				c1.9-6.12-2.19-17.84-2.19-17.84c-7.66,0.04-12.4,1.1-17.33,3.41l1.31,5.36L344.34,193L344.41,207.25z"/>
			<g>
				<path style="fill:#EB996E;" d="M392.58,195.28c-0.14,0.09-1.3-2.08-3.74-3.71c-2.41-1.67-4.86-1.96-4.82-2.12
					c0.01-0.06,0.62-0.08,1.59,0.14c0.96,0.21,2.27,0.7,3.52,1.56c1.25,0.86,2.19,1.89,2.73,2.71
					C392.43,194.68,392.64,195.25,392.58,195.28z"/>
			</g>
			<g>
				<path style="fill:#FFBE9D;" d="M335.35,184.16L335.35,184.16c0,0-7.66,1.84-13.28,5.6l5.98,16.26c2,5.34,8.12,7.96,12.96,5.19
					c7.53-4.3,10.19-16.86,10.19-16.86l8.28-35.88l-13.71-8.59L335.35,184.16"/>
				<g>
					<path style="fill:#FFBE9D;" d="M345.76,149.88l0.55-11.8l-3.06-11.95c-0.17-0.66-0.25-1.49,0.28-1.89
						c0.56-0.42,1.4-0.4,1.85,0.06c0.84,0.86,4.84,11.35,4.84,11.35s6.07-3.65,7.15-3.82c1.08-0.18,2.43,3.09,2.52,3.34
						c0.08,0.26,0.01,2.19,0.01,2.19s3.75,0.11,4.09,0.63c0.34,0.51,0.43,3.18,0.43,3.18s1.59,0.51,1.84,1.71
						c0.26,1.2,0.77,3.18,0.02,3.62c-0.75,0.43-2.33,1.3-2.33,1.3s-0.64,6.12-0.8,6.68c-0.16,0.56-3.68,3.99-3.68,3.99
						L345.76,149.88z"/>
					<g>
						<path style="fill:#EB996E;" d="M333.01,211.46c0.02-0.03,0.37,0.21,1.15,0.47c0.77,0.26,1.98,0.49,3.53,0.28
							c1.54-0.21,3.43-0.88,5.12-2.36c1.67-1.51,3.36-3.51,4.76-6.02c0.7-1.26,1.33-2.64,1.85-4.13c0.54-1.49,0.89-3.11,1.28-4.79
							c0.79-3.37,1.63-7,2.53-10.85c1.8-7.71,3.82-16.34,6-25.63l0.02-0.07l0.05-0.05c0.69-0.68,1.38-1.37,2.07-2.08
							c0.34-0.36,0.68-0.72,1.01-1.09c0.16-0.19,0.33-0.38,0.45-0.56c0.12-0.12,0.12-0.36,0.17-0.62c0.27-2,0.48-4.07,0.7-6.15
							l0.01-0.13l0.12-0.07c0.63-0.35,1.26-0.71,1.91-1.07c0.15-0.09,0.36-0.19,0.45-0.26c0.08-0.06,0.15-0.18,0.18-0.34
							c0.07-0.3,0.05-0.68,0.01-1.04c-0.09-0.7-0.26-1.52-0.44-2.17c-0.25-0.61-0.93-1.04-1.59-1.28l-0.17-0.06l-0.01-0.17
							c-0.02-0.58-0.06-1.18-0.13-1.77c-0.03-0.3-0.07-0.59-0.13-0.88c-0.03-0.13-0.07-0.29-0.11-0.37
							c-0.03-0.07-0.02-0.02-0.06-0.06c-0.05-0.02-0.1-0.05-0.17-0.07c-1.11-0.31-2.42-0.35-3.66-0.41l-0.26-0.01l0.01-0.26
							c0.02-0.62,0.05-1.31,0.02-1.95c0.02-0.17-0.14-0.43-0.23-0.67c-0.11-0.24-0.22-0.48-0.34-0.71
							c-0.24-0.47-0.51-0.92-0.82-1.32c-0.16-0.2-0.33-0.38-0.51-0.5c-0.2-0.12-0.29-0.15-0.53-0.06c-0.46,0.16-0.94,0.41-1.41,0.65
							c-1.87,0.97-3.68,2.03-5.46,3.09l-0.26,0.15l-0.11-0.28c-0.95-2.37-1.88-4.71-2.8-7.01c-0.46-1.15-0.92-2.3-1.37-3.43
							c-0.17-0.57-0.57-0.9-1.1-1.03c-0.53-0.14-1.05,0.03-1.3,0.48c-0.13,0.21-0.18,0.47-0.15,0.71c0.03,0.22,0.14,0.56,0.2,0.83
							c0.15,0.58,0.3,1.15,0.45,1.72c0.3,1.14,0.6,2.28,0.89,3.4c0.59,2.24,1.17,4.45,1.73,6.6l0.01,0.04l0,0.04
							c-0.2,4.11-0.39,8.05-0.57,11.8l0,0.03l-0.01,0.03c-3.78,12.3-6.91,22.5-9.11,29.64c-1.1,3.54-1.97,6.33-2.57,8.25
							c-0.3,0.93-0.53,1.65-0.69,2.16c-0.16,0.49-0.26,0.74-0.26,0.74s0.06-0.26,0.19-0.75c0.15-0.52,0.36-1.24,0.63-2.18
							c0.57-1.93,1.4-4.73,2.46-8.29c2.15-7.16,5.23-17.38,8.93-29.7l-0.01,0.05c0.17-3.75,0.35-7.69,0.54-11.8l0.01,0.07
							c-0.57-2.15-1.15-4.35-1.75-6.6c-0.3-1.12-0.6-2.25-0.9-3.4c-0.15-0.57-0.3-1.15-0.46-1.72c-0.07-0.31-0.16-0.54-0.22-0.91
							c-0.04-0.35,0.04-0.71,0.22-1.02c0.18-0.31,0.46-0.56,0.81-0.68c0.35-0.12,0.7-0.11,1.03-0.03c0.33,0.08,0.65,0.23,0.92,0.47
							c0.27,0.22,0.45,0.6,0.54,0.86c0.45,1.13,0.91,2.28,1.37,3.43c0.92,2.3,1.86,4.64,2.81,7.01l-0.37-0.13
							c1.79-1.06,3.6-2.12,5.49-3.11c0.48-0.24,0.94-0.49,1.48-0.68c0.15-0.04,0.29-0.1,0.5-0.07c0.18,0.03,0.35,0.1,0.47,0.19
							c0.27,0.17,0.46,0.39,0.63,0.61c0.35,0.44,0.62,0.92,0.87,1.41c0.13,0.24,0.24,0.49,0.36,0.74c0.09,0.26,0.26,0.47,0.28,0.85
							c0.03,0.71,0,1.38-0.02,2.01l-0.25-0.27c1.29,0.07,2.53,0.09,3.82,0.44c0.08,0.02,0.17,0.07,0.26,0.11
							c0.08,0.04,0.24,0.18,0.26,0.26c0.1,0.19,0.12,0.34,0.16,0.51c0.07,0.32,0.11,0.62,0.14,0.93c0.07,0.61,0.11,1.21,0.13,1.81
							l-0.18-0.24c0.77,0.29,1.54,0.74,1.91,1.58c0.24,0.82,0.37,1.52,0.48,2.31c0.04,0.39,0.07,0.79-0.02,1.21
							c-0.04,0.21-0.15,0.45-0.36,0.62c-0.21,0.15-0.34,0.2-0.51,0.3c-0.65,0.36-1.29,0.72-1.92,1.07l0.13-0.2
							c-0.22,2.09-0.44,4.15-0.71,6.17l-0.06,0.39c-0.01,0.12-0.1,0.34-0.19,0.44c-0.16,0.23-0.33,0.42-0.49,0.61
							c-0.34,0.38-0.68,0.75-1.03,1.11c-0.69,0.72-1.39,1.41-2.08,2.09l0.07-0.12c-2.2,9.28-4.24,17.9-6.07,25.61
							c-0.92,3.85-1.78,7.48-2.58,10.84c-0.4,1.68-0.77,3.32-1.32,4.82c-0.54,1.51-1.19,2.9-1.9,4.17
							c-1.44,2.53-3.16,4.54-4.87,6.05c-1.75,1.5-3.69,2.16-5.25,2.34c-1.58,0.19-2.82-0.08-3.58-0.36
							c-0.39-0.14-0.67-0.28-0.85-0.38C333.1,211.52,333.01,211.47,333.01,211.46z"/>
					</g>
					<g>
						<path style="fill:#EB996E;" d="M359.9,137.35c0,0.07-0.34,0.11-0.87,0.14c-0.53,0.03-1.25,0.05-1.99,0.24
							c-0.74,0.19-1.34,0.56-1.7,0.91c-0.37,0.34-0.53,0.63-0.6,0.6c-0.06-0.02-0.02-0.38,0.32-0.84c0.33-0.46,1-0.95,1.84-1.17
							c0.84-0.21,1.61-0.16,2.14-0.1C359.58,137.19,359.9,137.28,359.9,137.35z"/>
					</g>
					<g>
						<path style="fill:#EB996E;" d="M356.96,137.46c-0.13-0.05-0.14-0.36-0.02-0.69c0.12-0.33,0.33-0.56,0.47-0.51
							c0.13,0.05,0.14,0.36,0.02,0.69C357.31,137.28,357.1,137.51,356.96,137.46z"/>
					</g>
					<g>
						<path style="fill:#EB996E;" d="M364.58,141.09c0,0.15-1.34,0.31-2.97,0.41c-0.81,0.07-1.41,0.36-1.65,0.79
							c-0.26,0.41-0.18,0.75-0.25,0.77c-0.05,0.05-0.32-0.34-0.08-0.94c0.11-0.28,0.36-0.59,0.72-0.79c0.35-0.2,0.78-0.3,1.2-0.35
							C363.23,140.87,364.59,140.95,364.58,141.09z"/>
					</g>
					<g>
						<path style="fill:#EB996E;" d="M363.92,144.69c0.14,0.01,0.23,0.75,0.19,1.65c-0.04,0.91-0.19,1.63-0.33,1.63
							c-0.14-0.01-0.23-0.75-0.19-1.65C363.62,145.41,363.77,144.68,363.92,144.69z"/>
					</g>
				</g>
			</g>
		</g>
		<g>
			<path style="fill:#FFFFFF;" d="M368.07,171.62l0.89-3.07c0.18-0.62,0.95-0.81,1.4-0.35l1.16,1.18l0.72-2.88
				c0.19-0.76,1.23-0.86,1.57-0.16l1.64,3.41L368.07,171.62z"/>
			<g>
				<path style="fill:#FFFFFF;" d="M375.47,171.07c0.03,0.14-1.55,0.65-3.53,1.14c-1.99,0.49-3.62,0.78-3.66,0.64
					c-0.03-0.14,1.55-0.65,3.53-1.14C373.8,171.22,375.44,170.93,375.47,171.07z"/>
			</g>
		</g>
		<g>
			<path style="fill:#FFFFFF;" d="M316,153.98c0.02,0.02-0.37,0.38-0.89,1.19c-0.51,0.8-1.08,2.09-1.36,3.78
				c-0.29,1.68-0.31,3.73-0.18,5.99c0.11,2.26,0.29,4.75,0.57,7.35c0.55,5.2,1.39,9.87,2.11,13.22c0.36,1.68,0.68,3.03,0.9,3.96
				c0.1,0.41,0.18,0.77,0.26,1.07c0.06,0.25,0.08,0.38,0.08,0.38s-0.05-0.12-0.12-0.37c-0.08-0.3-0.18-0.65-0.3-1.06
				c-0.25-0.93-0.59-2.27-0.96-3.95c-0.76-3.35-1.62-8.02-2.17-13.23c-0.28-2.6-0.45-5.09-0.55-7.36c-0.12-2.26-0.09-4.33,0.23-6.03
				c0.3-1.7,0.89-3,1.43-3.79C315.59,154.32,316,153.98,316,153.98z"/>
		</g>
		<g>
			<path style="fill:#FFFFFF;" d="M337.05,140.38c0,0.01-0.07,0.05-0.22,0.12c-0.2,0.1-0.42,0.2-0.66,0.31
				c-0.57,0.27-1.4,0.67-2.39,1.22c-2,1.07-4.66,2.73-7.51,4.7c-2.85,1.96-5.39,3.82-7.23,5.14c-0.85,0.6-1.58,1.12-2.2,1.55
				c-0.22,0.15-0.42,0.29-0.6,0.41c-0.14,0.09-0.21,0.14-0.22,0.13c0-0.01,0.06-0.06,0.19-0.17c0.18-0.14,0.37-0.28,0.58-0.44
				c0.6-0.45,1.32-0.99,2.16-1.61c1.83-1.35,4.34-3.23,7.2-5.19c2.86-1.97,5.54-3.61,7.56-4.65c1-0.53,1.84-0.92,2.43-1.17
				c0.25-0.1,0.47-0.19,0.68-0.28C336.96,140.4,337.04,140.37,337.05,140.38z"/>
		</g>
		<g>
			<path style="fill:#FFFFFF;" d="M384.74,146.89c-0.01,0.01-0.06-0.04-0.17-0.13c-0.14-0.12-0.29-0.25-0.45-0.39
				c-0.39-0.33-0.98-0.8-1.75-1.31c-1.53-1.04-3.81-2.21-6.43-3.25c-2.62-1.05-5.07-1.79-6.85-2.28c-0.89-0.25-1.62-0.43-2.12-0.55
				c-0.2-0.05-0.39-0.1-0.58-0.15c-0.13-0.04-0.2-0.06-0.2-0.07c0-0.01,0.07,0,0.21,0.02c0.19,0.03,0.38,0.07,0.59,0.11
				c0.51,0.1,1.24,0.26,2.14,0.49c1.8,0.45,4.26,1.18,6.89,2.23c2.63,1.05,4.92,2.25,6.43,3.32
				C383.98,146,384.74,146.89,384.74,146.89z"/>
		</g>
		<g>
			<path style="fill:#FFFFFF;" d="M337.33,223.22c-0.01,0.01-0.15-0.03-0.39-0.13c-0.24-0.1-0.59-0.27-0.99-0.53
				c-0.79-0.5-1.85-1.47-2.17-2.95c-0.33-1.44-0.02-2.81,0.39-3.66c0.2-0.43,0.41-0.76,0.58-0.97c0.16-0.21,0.27-0.31,0.28-0.3
				c0.03,0.02-0.36,0.47-0.72,1.33c-0.36,0.85-0.64,2.17-0.32,3.55c0.3,1.4,1.3,2.35,2.05,2.87
				C336.8,222.97,337.35,223.18,337.33,223.22z"/>
		</g>
		<g>
			<path style="fill:#FFFFFF;" d="M334.15,212.39c0.06-0.02,0.27,0.55,0.48,1.26c0.21,0.71,0.33,1.3,0.28,1.31
				c-0.06,0.02-0.27-0.55-0.48-1.26C334.21,213,334.09,212.41,334.15,212.39z"/>
		</g>
		<g>
			<g>
				<path style="fill:#042B5D;" d="M347.67,436.6l30.5-0.15l-0.55-105.46l-0.28-107.27l-41.31-0.51l-7.43,14
					c-3,5.65-5.03,11.79-5.71,18.15c-0.52,4.85,3.11,20.65,4.38,24.67l11.37,36.06L347.67,436.6z"/>
				<path style="fill:#042B5D;" d="M386.28,223.86l33.52,91.37c3.94,12.25,2.62,24.39-4.13,35.7l-38.91,75.95l-21.88-27.37
					l32.56-68.04l-28.7-46.5l4.83-61.01l13.52-0.22L386.28,223.86z"/>
			</g>
			<g>
				<path style="fill:#455A64;" d="M374.55,254.47c0,0,0.02,0.16,0.05,0.47c0.02,0.33,0.05,0.79,0.09,1.38
					c0.07,1.24,0.16,3.02,0.28,5.3c0.22,4.63,0.55,11.28,0.94,19.49c0.38,8.24,0.83,18.03,1.33,28.9c0.24,5.44,0.5,11.15,0.77,17.07
					c0.19,2.96,0.1,5.98,0.14,9.03c0.01,3.06,0.02,6.16,0.03,9.31c0.04,25.13,0.08,47.88,0.11,64.37
					c-0.01,8.22-0.02,14.88-0.03,19.51c-0.01,2.28-0.03,4.07-0.03,5.3c-0.01,0.59-0.02,1.05-0.02,1.38
					c-0.01,0.31-0.03,0.47-0.03,0.47s-0.02-0.16-0.03-0.47c-0.01-0.33-0.02-0.79-0.03-1.38c-0.01-1.24-0.04-3.02-0.06-5.3
					c-0.03-4.63-0.08-11.29-0.14-19.51c-0.07-16.49-0.16-39.24-0.26-64.37c-0.01-3.14-0.02-6.25-0.03-9.3
					c-0.03-3.06,0.06-6.08-0.13-9.03c-0.26-5.92-0.5-11.63-0.74-17.07c-0.46-10.87-0.87-20.67-1.22-28.9
					c-0.33-8.21-0.59-14.86-0.78-19.49c-0.08-2.28-0.14-4.06-0.18-5.3c-0.01-0.59-0.03-1.05-0.04-1.38
					C374.54,254.63,374.55,254.47,374.55,254.47z"/>
			</g>
			<g>
				<path style="fill:#455A64;" d="M373.78,225.66c0.04,0,0.11,0.35,0.21,0.99c0.1,0.64,0.23,1.58,0.36,2.73
					c0.27,2.31,0.55,5.52,0.71,9.07c0.16,3.55,0.17,6.77,0.11,9.1c-0.03,1.16-0.07,2.11-0.11,2.76c-0.04,0.65-0.09,1.01-0.12,1.01
					c-0.08,0-0.1-1.44-0.13-3.76c-0.04-2.32-0.1-5.53-0.26-9.07c-0.16-3.54-0.38-6.74-0.56-9.06
					C373.82,227.11,373.71,225.67,373.78,225.66z"/>
			</g>
			<g>
				<path style="fill:#455A64;" d="M367.06,227.72c0.05,0.07-0.52,0.33-0.68,1.14c-0.07,0.39,0.01,0.89,0.39,1.22
					c0.36,0.34,0.99,0.5,1.5,0.27c0.51-0.23,0.79-0.82,0.77-1.31c0-0.51-0.33-0.89-0.67-1.09c-0.72-0.41-1.29-0.15-1.3-0.23
					c-0.01-0.03,0.1-0.13,0.35-0.21c0.25-0.07,0.67-0.09,1.12,0.11c0.44,0.19,0.94,0.69,0.98,1.39c0.05,0.67-0.29,1.46-1.04,1.81
					c-0.76,0.33-1.58,0.07-2.05-0.4c-0.51-0.49-0.56-1.19-0.41-1.65c0.14-0.48,0.42-0.78,0.65-0.92
					C366.9,227.71,367.05,227.69,367.06,227.72z"/>
			</g>
			<g>
				<path style="fill:#455A64;" d="M351.06,225.91c0.03-0.01,0.15,0.33,0.27,0.96c0.13,0.63,0.2,1.57,0.09,2.72
					c-0.11,1.15-0.46,2.51-1.15,3.87c-0.69,1.37-1.77,2.73-3.21,3.78c-1.46,1.03-3.09,1.61-4.61,1.83
					c-1.52,0.22-2.92,0.12-4.04-0.15c-1.13-0.26-1.99-0.63-2.55-0.95c-0.56-0.32-0.83-0.54-0.82-0.57c0.05-0.1,1.23,0.74,3.44,1.16
					c2.15,0.43,5.48,0.23,8.27-1.75c2.77-2.01,4.02-5.1,4.3-7.27C351.37,227.31,350.95,225.92,351.06,225.91z"/>
			</g>
			<g>
				<path style="fill:#455A64;" d="M390.3,234.67c0,0.05-0.76,0.11-1.92-0.23c-1.16-0.33-2.68-1.14-3.94-2.52
					c-1.25-1.38-1.91-2.98-2.13-4.16c-0.22-1.19-0.09-1.94-0.04-1.93c0.09,0,0.1,0.73,0.4,1.85c0.29,1.11,0.97,2.59,2.15,3.9
					c1.19,1.3,2.59,2.12,3.67,2.52C389.57,234.5,390.31,234.57,390.3,234.67z"/>
			</g>
			<g>
				<path style="fill:#455A64;" d="M402.21,333.17c0.04,0.05-0.58,0.66-1.77,1.41c-0.6,0.36-1.35,0.76-2.28,0.99
					c-0.91,0.24-2.02,0.27-3.07-0.08c-2.13-0.7-3.46-2.3-4.27-3.4c-0.81-1.13-1.22-1.89-1.17-1.92c0.06-0.05,0.59,0.64,1.46,1.7
					c0.87,1.03,2.19,2.49,4.14,3.13c1.96,0.65,3.83-0.11,5-0.74C401.46,333.61,402.16,333.1,402.21,333.17z"/>
			</g>
			<g>
				<path style="fill:#455A64;" d="M394.57,339.01c-0.12,0.08-1.53-1.7-3.16-3.99c-1.63-2.29-2.85-4.21-2.73-4.29
					c0.12-0.08,1.53,1.7,3.16,3.99C393.47,337,394.69,338.92,394.57,339.01z"/>
			</g>
			<g>
				<path style="fill:#FAFAFA;" d="M343.33,258.02c-0.13,0.05-0.49-0.52-0.8-1.29c-0.31-0.76-0.44-1.43-0.31-1.48
					c0.13-0.05,0.49,0.52,0.79,1.29C343.32,257.3,343.46,257.96,343.33,258.02z"/>
			</g>
			<g>
				<path style="fill:#FAFAFA;" d="M362.69,260.78c-0.14,0-0.26-0.5-0.26-1.11c0-0.61,0.12-1.11,0.26-1.11
					c0.14,0,0.26,0.5,0.26,1.11C362.95,260.29,362.83,260.78,362.69,260.78z"/>
			</g>
			<g>
				<path style="fill:#FAFAFA;" d="M354.73,271.3c-0.14,0.01-0.3-0.6-0.35-1.37c-0.05-0.76,0.02-1.39,0.17-1.4
					c0.14-0.01,0.3,0.6,0.35,1.37C354.95,270.66,354.87,271.29,354.73,271.3z"/>
			</g>
			<g>
				<path style="fill:#FAFAFA;" d="M340.19,279.04c-0.12,0.09-0.53-0.28-1.07-0.67c-0.53-0.39-1.01-0.67-0.96-0.81
					c0.04-0.13,0.66-0.05,1.27,0.39C340.04,278.39,340.31,278.96,340.19,279.04z"/>
			</g>
			<g>
				<path style="fill:#FAFAFA;" d="M365.82,288.81c-0.12-0.08,0.03-0.52,0.34-0.97c0.31-0.46,0.65-0.77,0.77-0.69
					c0.12,0.08-0.03,0.52-0.34,0.97C366.29,288.59,365.94,288.89,365.82,288.81z"/>
			</g>
			<g>
				<path style="fill:#FAFAFA;" d="M349.96,291.58c-0.14,0-0.26-0.83-0.26-1.84c0-1.02,0.12-1.84,0.26-1.84
					c0.14,0,0.26,0.83,0.26,1.84C350.22,290.75,350.11,291.58,349.96,291.58z"/>
			</g>
			<g>
				<path style="fill:#FAFAFA;" d="M344.82,302.8c-0.08,0.12-0.61-0.12-1.17-0.53c-0.56-0.41-0.95-0.83-0.86-0.95
					c0.08-0.12,0.61,0.12,1.17,0.53C344.52,302.26,344.91,302.68,344.82,302.8z"/>
			</g>
			<g>
				<path style="fill:#FAFAFA;" d="M360.84,306.7c0.06,0.13-0.27,0.4-0.72,0.61c-0.46,0.2-0.88,0.26-0.94,0.13
					c-0.06-0.13,0.27-0.4,0.72-0.61C360.37,306.63,360.79,306.57,360.84,306.7z"/>
			</g>
			<g>
				<path style="fill:#FAFAFA;" d="M349.96,324.96c-0.13,0.06-0.65-0.71-1.15-1.73c-0.51-1.02-0.82-1.9-0.69-1.96
					c0.13-0.06,0.65,0.71,1.15,1.73C349.78,324.02,350.09,324.89,349.96,324.96z"/>
			</g>
			<g>
				<path style="fill:#FAFAFA;" d="M367.67,323.3c-0.13-0.07,0.1-0.74,0.51-1.51c0.41-0.76,0.84-1.33,0.97-1.26
					c0.13,0.07-0.1,0.74-0.51,1.51C368.23,322.8,367.79,323.37,367.67,323.3z"/>
			</g>
			<g>
				<path style="fill:#FAFAFA;" d="M359.92,338.79c-0.15-0.02-0.14-0.81-0.29-1.75c-0.14-0.94-0.4-1.69-0.26-1.75
					c0.12-0.07,0.62,0.64,0.78,1.67C360.31,337.99,360.06,338.82,359.92,338.79z"/>
			</g>
			<g>
				<path style="fill:#FAFAFA;" d="M351.62,347.64c-0.11,0.1-0.61-0.28-1.11-0.84c-0.51-0.56-0.84-1.09-0.73-1.19
					c0.11-0.1,0.61,0.28,1.11,0.84C351.4,347.01,351.73,347.54,351.62,347.64z"/>
			</g>
			<g>
				<path style="fill:#FAFAFA;" d="M371.76,351c-0.1-0.1,0.27-0.64,0.82-1.2c0.56-0.56,1.09-0.94,1.19-0.84
					c0.1,0.1-0.27,0.64-0.82,1.2C372.4,350.72,371.87,351.1,371.76,351z"/>
			</g>
			<g>
				<path style="fill:#FAFAFA;" d="M360.18,364.25c-0.14-0.02-0.14-0.78-0.01-1.7c0.14-0.92,0.37-1.65,0.51-1.62
					c0.14,0.02,0.14,0.78,0,1.7C360.55,363.54,360.32,364.27,360.18,364.25z"/>
			</g>
			<g>
				<path style="fill:#FAFAFA;" d="M352.39,370.68c-0.12,0.07-0.56-0.44-0.98-1.15c-0.41-0.71-0.65-1.34-0.53-1.41
					c0.12-0.07,0.56,0.44,0.98,1.15C352.27,369.97,352.51,370.6,352.39,370.68z"/>
			</g>
			<g>
				<path style="fill:#FAFAFA;" d="M371.16,378.79c0.08,0.12-0.43,0.63-1.14,1.14c-0.71,0.51-1.36,0.83-1.44,0.71
					c-0.08-0.12,0.43-0.63,1.14-1.14C370.43,378.99,371.08,378.68,371.16,378.79z"/>
			</g>
			<g>
				<path style="fill:#FAFAFA;" d="M355.52,389.32c-0.14-0.05,0.04-0.86,0.12-1.85c0.09-0.99,0.06-1.82,0.2-1.84
					c0.14-0.03,0.41,0.82,0.31,1.89C356.07,388.59,355.65,389.38,355.52,389.32z"/>
			</g>
			<g>
				<path style="fill:#FAFAFA;" d="M361.77,404.44c-0.11,0.09-0.53-0.25-0.94-0.76c-0.41-0.51-0.65-0.99-0.53-1.08
					c0.11-0.09,0.53,0.25,0.94,0.76C361.64,403.86,361.88,404.35,361.77,404.44z"/>
			</g>
			<g>
				<path style="fill:#FAFAFA;" d="M354.94,414.58c-0.12,0.08-0.67-0.51-1.23-1.33c-0.56-0.82-0.92-1.54-0.8-1.62
					c0.12-0.08,0.67,0.51,1.23,1.33C354.7,413.77,355.06,414.5,354.94,414.58z"/>
			</g>
			<g>
				<path style="fill:#FAFAFA;" d="M373.75,401.85c-0.13-0.05-0.12-0.42,0.03-0.83c0.15-0.41,0.39-0.7,0.52-0.65
					c0.13,0.05,0.12,0.42-0.03,0.83C374.12,401.62,373.89,401.91,373.75,401.85z"/>
			</g>
			<g>
				<path style="fill:#FAFAFA;" d="M365.45,426.01c-0.13-0.07,0.12-0.78,0.31-1.67c0.2-0.89,0.28-1.64,0.42-1.65
					c0.14-0.01,0.3,0.79,0.08,1.76C366.06,425.42,365.57,426.08,365.45,426.01z"/>
			</g>
			<g>
				<path style="fill:#FAFAFA;" d="M370.85,271.46c-0.13,0.06-0.45-0.34-0.71-0.9c-0.26-0.56-0.37-1.06-0.24-1.12
					c0.13-0.06,0.45,0.34,0.71,0.9C370.87,270.9,370.98,271.4,370.85,271.46z"/>
			</g>
			<g>
				<path style="fill:#FAFAFA;" d="M356.97,240.32c0.08,0.13-0.63,0.69-1.37,1.49c-0.75,0.79-1.27,1.53-1.4,1.46
					c-0.12-0.06,0.21-0.96,1.02-1.82C356.02,240.59,356.9,240.19,356.97,240.32z"/>
			</g>
			<g>
				<path style="fill:#FAFAFA;" d="M369.33,239.95c-0.14,0.03-0.38-0.56-0.73-1.25c-0.34-0.69-0.67-1.23-0.56-1.33
					c0.1-0.1,0.65,0.34,1.03,1.1C369.45,239.22,369.46,239.92,369.33,239.95z"/>
			</g>
			<g>
				<path style="fill:#FAFAFA;" d="M330.83,250.11c-0.13-0.05,0-0.72,0.31-1.48c0.3-0.77,0.66-1.34,0.79-1.29
					c0.13,0.05,0,0.72-0.31,1.48C331.32,249.58,330.97,250.16,330.83,250.11z"/>
			</g>
			<g>
				<path style="fill:#FAFAFA;" d="M332.08,265.21c-0.09,0.11-0.66-0.21-1.27-0.72c-0.61-0.51-1.03-1.01-0.94-1.12
					c0.09-0.11,0.66,0.21,1.27,0.72C331.75,264.6,332.17,265.1,332.08,265.21z"/>
			</g>
			<g>
				<path style="fill:#FAFAFA;" d="M357.34,228.33c-0.13,0.05-0.41-0.32-0.61-0.83c-0.2-0.51-0.26-0.97-0.13-1.02
					c0.13-0.05,0.41,0.32,0.61,0.83C357.42,227.82,357.47,228.28,357.34,228.33z"/>
			</g>
			<g>
				<path style="fill:#FAFAFA;" d="M381.53,235.71c-0.14-0.03-0.13-0.63,0.03-1.35c0.16-0.71,0.4-1.26,0.54-1.23
					c0.14,0.03,0.13,0.63-0.03,1.35C381.91,235.19,381.67,235.74,381.53,235.71z"/>
			</g>
			<g>
				<path style="fill:#FAFAFA;" d="M387.21,247.14c-0.13-0.05,0.05-0.8,0.4-1.67c0.36-0.87,0.75-1.52,0.89-1.47
					c0.13,0.05-0.05,0.8-0.4,1.67C387.74,246.54,387.35,247.19,387.21,247.14z"/>
			</g>
			<g>
				<path style="fill:#FAFAFA;" d="M383.16,256.36c-0.13,0.06-0.6-0.63-1.06-1.54c-0.46-0.92-0.73-1.71-0.6-1.78
					c0.13-0.06,0.6,0.63,1.06,1.54C383.02,255.5,383.29,256.29,383.16,256.36z"/>
			</g>
			<g>
				<path style="fill:#FAFAFA;" d="M391.82,265.58c-0.13-0.05-0.04-0.63,0.22-1.29c0.25-0.66,0.57-1.16,0.7-1.11
					c0.13,0.05,0.04,0.63-0.22,1.29C392.27,265.14,391.96,265.63,391.82,265.58z"/>
			</g>
			<g>
				<path style="fill:#FAFAFA;" d="M384.08,274.61c-0.12,0.08-0.43-0.19-0.68-0.6c-0.25-0.41-0.36-0.8-0.24-0.88
					c0.12-0.08,0.43,0.19,0.68,0.6C384.09,274.15,384.2,274.54,384.08,274.61z"/>
			</g>
			<g>
				<path style="fill:#FAFAFA;" d="M385.73,293.25c-0.11,0.1-0.73-0.4-1.39-1.11c-0.66-0.71-1.11-1.37-1.01-1.47
					c0.11-0.1,0.73,0.4,1.39,1.11C385.39,292.49,385.84,293.15,385.73,293.25z"/>
			</g>
			<g>
				<path style="fill:#FAFAFA;" d="M395.88,282.54c-0.11,0.09-0.66-0.42-1.22-1.13c-0.56-0.71-0.92-1.36-0.81-1.45
					c0.11-0.09,0.66,0.42,1.22,1.13C395.63,281.81,395.99,282.46,395.88,282.54z"/>
			</g>
			<g>
				<path style="fill:#FAFAFA;" d="M401.45,297.31c-0.13-0.06,0.1-0.81,0.51-1.68c0.41-0.86,0.85-1.52,0.98-1.45
					c0.13,0.06-0.1,0.81-0.51,1.68C402.02,296.72,401.58,297.38,401.45,297.31z"/>
			</g>
			<g>
				<path style="fill:#FAFAFA;" d="M389.61,309.47c-0.13,0.08-0.59-0.48-1.24-1.07c-0.64-0.59-1.23-1.01-1.16-1.15
					c0.06-0.13,0.81,0.11,1.52,0.76C389.43,308.67,389.73,309.4,389.61,309.47z"/>
			</g>
			<g>
				<path style="fill:#FAFAFA;" d="M390.35,322.01c0,0.14-0.5,0.26-1.11,0.26c-0.61,0-1.11-0.12-1.11-0.26s0.5-0.26,1.11-0.26
					C389.85,321.75,390.35,321.86,390.35,322.01z"/>
			</g>
			<g>
				<path style="fill:#FAFAFA;" d="M402.52,318.5c-0.13-0.08,0.13-0.7,0.32-1.49c0.2-0.78,0.27-1.45,0.42-1.46
					c0.14-0.02,0.31,0.72,0.09,1.59C403.13,318.02,402.63,318.58,402.52,318.5z"/>
			</g>
			<g>
				<path style="fill:#FAFAFA;" d="M414.61,322.71c-0.14,0.05-0.51-0.65-0.82-1.56c-0.32-0.91-0.47-1.69-0.33-1.74
					c0.14-0.05,0.5,0.65,0.82,1.56C414.6,321.88,414.75,322.66,414.61,322.71z"/>
			</g>
			<g>
				<path style="fill:#FAFAFA;" d="M412.68,339.91c-0.13-0.07,0.18-0.91,0.69-1.87c0.51-0.97,1.02-1.7,1.15-1.63
					c0.13,0.07-0.18,0.91-0.69,1.87C413.33,339.24,412.81,339.97,412.68,339.91z"/>
			</g>
			<g>
				<path style="fill:#FAFAFA;" d="M401.65,350.02c-0.13,0.05-0.54-0.64-0.92-1.55c-0.37-0.91-0.57-1.69-0.44-1.75
					c0.13-0.05,0.54,0.64,0.92,1.55C401.59,349.18,401.78,349.96,401.65,350.02z"/>
			</g>
			<g>
				<path style="fill:#FAFAFA;" d="M389.43,353.91c0,0.14-0.41,0.26-0.92,0.26c-0.51,0-0.92-0.12-0.92-0.26s0.41-0.26,0.92-0.26
					C389.01,353.65,389.43,353.77,389.43,353.91z"/>
			</g>
			<g>
				<path style="fill:#FAFAFA;" d="M396.43,369.95c-0.14,0.04-0.42-0.55-0.62-1.32c-0.2-0.76-0.26-1.41-0.12-1.45
					c0.14-0.04,0.42,0.55,0.62,1.32C396.52,369.27,396.57,369.92,396.43,369.95z"/>
			</g>
			<g>
				<path style="fill:#FAFAFA;" d="M387.58,364.6c-0.12-0.07,0.02-0.55,0.33-1.06c0.31-0.51,0.65-0.86,0.78-0.79
					c0.12,0.07-0.02,0.55-0.33,1.06C388.05,364.33,387.71,364.68,387.58,364.6z"/>
			</g>
			<g>
				<path style="fill:#FAFAFA;" d="M387.4,382.31c-0.14,0.02-0.34-0.67-0.44-1.54c-0.1-0.87-0.07-1.58,0.07-1.6
					c0.14-0.02,0.34,0.67,0.44,1.54C387.57,381.58,387.54,382.29,387.4,382.31z"/>
			</g>
		</g>
	</g>
</g>
</svg>
