<svg xmlns="http://www.w3.org/2000/svg" viewBox="0 0 500 500"><path d="M38.47 385.9a33.416 33.416 0 00-14.32-4.93c-2.34-.24-4.9-.17-6.77 1.25-.4.3-.79.75-.7 1.24.07.36.37.62.66.85 5.83 4.44 14.64 5 21.13 1.59M38.1 385.5c-3.24-2.53-6.5-5.08-9.25-8.14-2.75-3.06-4.98-6.69-5.8-10.72-.25-1.22-.33-2.62.46-3.59 7.37 5.76 13.16 13.21 14.59 22.45" fill="#e0e0e0"/><path d="M38.39 385.85c-.56-4.03-.75-8.18.17-12.14.93-3.96 3.08-7.76 6.47-10.02 1.27 2.98.73 6.41-.17 9.52a46.283 46.283 0 01-6.41 13.5M45.62 398.8c-4.39.53-8.21 2.85-11.48 5.81-3.28 2.97-5.6 6.96-6.57 11.28 4.3-.27 7.95-3.3 10.6-6.7 2.65-3.4 4.48-7.14 7.39-10.32M47.19 400.87c-3.53-8.7-2.25-19.19 3.27-26.79 2.5 8.89 1.58 18.93-3.27 26.79M56.74 412.24c-3.98-.25-8.03.7-11.49 2.69a20.618 20.618 0 00-8.1 8.58c-.24.49-.46 1.1-.13 1.54.28.38.83.41 1.3.38 3.86-.25 7.28-2.57 10.1-5.22 2.82-2.64 5.28-5.7 8.4-7.99M56.43 411.62a36.47 36.47 0 01-.36-20.37c.72-2.62 1.92-5.38 4.35-6.61.21-.11.45-.2.67-.12.21.08.33.29.42.49.86 1.8 1.11 3.85 1.03 5.84-.09 2-.5 3.96-.92 5.92-.76 3.62-1.17 7.5-3.15 10.62-.47.74-.89 1.54-1.26 2.33-.38.79-.38 1.07-.72 1.7M81.71 415.39c-1.87-7.12.12-15.76 4.6-21.6.33-.43.77-.89 1.31-.84.83.08 1.04 1.18 1 2.01-.32 7.27-2.75 14.45-6.91 20.43M83.99 416.94c8.65 2.25 18.58.06 25.78-5.24-4.27-2.16-9.29-2.78-13.96-1.71-4.66 1.06-8.92 3.15-11.82 6.95M85.91 412.2c4.85-7.9 14.14-13.06 23.4-13.53-1.07 3.77-4.16 6.69-7.65 8.46s-7.39 2.54-11.23 3.28c-1.5.3-3.55.62-4.52 1.79M82.19 389.19c1.31-4.5 2.63-9.03 2.99-13.7.36-4.67-.31-9.55-2.73-13.55-4.53 8.76-4.99 19-.4 27.73M97.43 381.48c5.29-9.62 16.1-17.31 27.03-18.39-4.22 10.51-15.72 18.62-27.03 18.39M94.1 383.37c7.9 1.2 14.62 6.25 22 9.3 1.58.65 3.28 1.17 4.97.95 1.69-.22 3.36-1.36 3.74-3.02.32-1.38-.31-2.85-1.31-3.86-.99-1.01-2.3-1.65-3.61-2.19-8.04-3.35-16.66-3.43-25.12-1.4" fill="#e0e0e0"/><path d="M89.53 388.91c1.79.51 2.4 1.44 3.81 2.64 4.8 4.09 10.56 7.05 16.68 8.57.64.16 1.47.22 1.79-.35.28-.5-.07-1.11-.43-1.56-2.57-3.21-6.22-5.4-10.07-6.84-3.85-1.43-7.19-3.16-11.78-2.79M84.38 355.46c6.42 5.99 15.46 9.07 24.21 8.24.4-.04.83-.1 1.1-.4.61-.66-.12-1.69-.83-2.24-7.12-5.55-15.74-7.85-24.48-5.6" fill="#e0e0e0"/><path d="M90.49 353.22c8.49-6.36 20.13-8.28 30.21-4.98-3.8 3.75-9.08 5.77-14.39 6.32-5.32.55-10.64-.04-15.82-1.34M88.06 337.85c-.7-7.1-.25-12.71-.74-19.85-.04-.57-.16-1.26-.7-1.46-.74-.29-1.36.63-1.61 1.38-2.12 6.58-.96 14.13 3.03 19.77" fill="#e0e0e0"/><path d="M87.55 338.64c4.81-2.98 8.43-6.87 11.77-11.44 2.32-3.18 4.28-6.99 3.76-10.89-3.26-.07-6.37 1.73-8.49 4.22-2.12 2.48-3.39 5.58-4.33 8.71-.95 3.11-1.61 6.32-2.71 9.4M99.11 335.42a94.764 94.764 0 0028.96-17.08c-3.46-1.39-7.42-.56-10.88.84-7.9 3.19-14.36 8.57-18.23 16.16M90.8 342.52c5.35.58 10.78.96 16.08.08 5.21-.87 10.14-2.94 15.01-4.99.4-.17.84-.37 1.02-.77.19-.44-.01-.97-.37-1.28-.35-.32-.82-.47-1.28-.6-5.3-1.48-11.01-.79-16.22.97-5.21 1.75-9.48 3.84-14.24 6.59M60.27 355.7c-3.65-7.36-3.41-15.95-.26-23.54 2.22 3.38 2.49 7.68 2.08 11.71-.41 4.02-1.63 8.16-1.71 12.2M45.7 348.35c-9.11-.17-18.22 3.71-24.4 10.39 4.55.71 9.23-.46 13.36-2.48 4.13-2.02 7.81-4.85 11.45-7.66M35.91 345.08c-4.45-.36-8.74-.91-13.02.4-4.28 1.31-8.18 4.29-9.93 8.42 4.17.47 8.39-.58 12.21-2.31 3.81-1.73 7.29-4.13 10.74-6.51M50.41 345.23c-4.01-2.63-8.12-5.3-12.79-6.39-4.67-1.09-10.07-.28-13.33 3.23 3.78 2.22 8.36 2.48 12.74 2.48s9.75-.05 13.88 1.41" fill="#e0e0e0"/><path d="M50.43 345.44c-6.85-6.73-9.45-18.81-6.69-28.01 5.39 8.18 7.8 18.27 6.69 28.01M69.27 326.38c1.29-3 2.2-6.16 3.36-9.21 1.16-3.06 2.6-6.07 4.79-8.49 2.19-2.43 5.22-4.24 8.49-4.4-2.04 9.26-8.19 17.53-16.47 22.16M65.86 330.35c-2.14-2.94-4.61-6.94-7.51-9.14-2.9-2.2-6.68-3.53-10.21-2.68 3.6 6.43 10.4 10.97 17.72 11.82M66.55 326.62c-1.4-3.56-2.81-7.16-3.38-10.95-.57-3.79-.22-7.83 1.71-11.13 3.76 7.11 4.97 14.74 1.86 22.16M69.31 304.54c2.13-7.05 8.58-12.24 15.55-14.62.88-.3 1.81-.55 2.73-.41.92.14 1.82.77 2.01 1.68.25 1.2-.74 2.27-1.67 3.07a52.936 52.936 0 01-18.62 10.28M69.39 298.78c.27-4.54.55-9.15 2.03-13.46 1.48-4.31 4.33-8.34 8.47-10.23.71 4.59-1.32 9.16-3.76 13.1-2.44 3.95-5.39 7.68-6.85 12.08M69.27 301.91c-1.76-5.14-1.94-11.66-5.02-16.14-2.15-3.13-5.59-5.26-7.45-8.57-1.23 3.09-.85 6.66.43 9.73 1.29 3.07 3.41 5.71 5.69 8.15 2.29 2.43 4.24 4.26 6.35 6.83" fill="#e0e0e0"/><path d="M69.31 453.17c-.14 0-.26-34.26-.26-76.52-.01-42.27.09-76.53.23-76.53s.26 34.26.26 76.53c.01 42.25-.09 76.52-.23 76.52z" fill="#e0e0e0"/><path d="M99.25 350.53c.01.03-.45.2-1.29.48-.93.31-2.12.71-3.55 1.2-2.99 1.02-7.1 2.49-11.55 4.32-4.41 1.89-8.58 3.43-10.95 5.48-1.18 1.01-1.86 2.11-2.2 2.91-.34.8-.4 1.3-.45 1.29-.02 0-.01-.13.01-.36.04-.23.1-.58.25-1 .29-.85.95-2.02 2.15-3.1 1.19-1.09 2.85-2.06 4.75-2.95 1.9-.89 4.01-1.81 6.24-2.73 4.47-1.83 8.61-3.26 11.63-4.19 1.51-.47 2.74-.82 3.6-1.05.87-.22 1.35-.33 1.36-.3z" fill="#e0e0e0"/><path d="M109.07 326.42c.01.01-.11.15-.36.39-.29.27-.66.62-1.1 1.03-1.02.93-2.41 2.19-4.1 3.73-3.54 3.16-8.35 7.44-13.66 12.16-5.33 4.75-9.94 9.28-13.14 12.7-1.6 1.71-2.86 3.12-3.72 4.1-.4.46-.73.83-.99 1.13-.23.26-.36.39-.37.38-.01-.01.09-.16.29-.44.21-.28.51-.69.92-1.19.82-1.03 2.04-2.48 3.61-4.22 3.14-3.48 7.72-8.07 13.06-12.83 5.35-4.74 10.22-8.99 13.76-12.06 1.74-1.49 3.16-2.71 4.21-3.61.47-.39.85-.71 1.16-.96.27-.21.41-.32.43-.31z" fill="#e0e0e0"/><path d="M84.08 348.56c-.14-.06.97-2.63 2.08-5.89 1.12-3.25 1.65-6 1.79-5.97.13.01-.19 2.84-1.32 6.13-.56 1.64-1.17 3.09-1.66 4.12-.48 1.03-.83 1.64-.89 1.61zM69.34 369.3c-.03.02-.32-.32-.82-.95-.56-.71-1.26-1.62-2.11-2.7-1.77-2.29-4.21-5.44-6.95-8.89s-5.26-6.55-7.08-8.79c-.86-1.07-1.58-1.96-2.15-2.66-.5-.63-.77-.99-.74-1.02.03-.02.34.3.89.89.55.59 1.33 1.47 2.27 2.56 1.9 2.19 4.46 5.25 7.2 8.71 2.74 3.46 5.15 6.65 6.85 8.99.85 1.17 1.53 2.13 1.98 2.8.45.66.69 1.04.66 1.06z" fill="#e0e0e0"/><path d="M62.77 360.87c-.08.09-1.83-1.99-2.75-5.15-.68-2.23-.71-4.26-.62-5.19l.22.02c-.1.4-.17.61-.21.6-.04-.01-.04-.23-.01-.63l.22.02c.08.92.22 2.89.88 5.05.88 3.05 2.41 5.2 2.27 5.28zM54.3 350.21c-.06.07-.63-.64-1.92-1.12-1.28-.5-3.21-.61-5.33-.42-2.12.16-4.01.53-5.37.87-1.36.34-2.18.6-2.21.53-.02-.06.77-.44 2.12-.87 1.35-.42 3.27-.86 5.43-1.02 2.14-.19 4.17-.02 5.5.59 1.33.59 1.82 1.43 1.78 1.44zM52.29 347.63c-.04.08-1.12-.45-2.94-1.07-1.82-.63-4.41-1.28-7.34-1.51-2.93-.22-5.59.04-7.49.38-1.9.34-3.04.69-3.07.61-.01-.03.27-.15.78-.33.51-.19 1.27-.41 2.22-.62 1.9-.44 4.61-.75 7.59-.53 2.98.23 5.61.96 7.42 1.68.91.36 1.63.69 2.1.95.49.25.74.41.73.44zM69.27 336.7c-.13.03-1.09-3.3-2.15-7.45-1.05-4.15-1.8-7.54-1.67-7.58.13-.03 1.09 3.3 2.15 7.45 1.06 4.15 1.81 7.55 1.67 7.58z" fill="#e0e0e0"/><path d="M69.41 336.7c-.15.05-.77-2.18-2.38-4.46-1.57-2.33-3.57-3.5-3.5-3.61.03-.05.58.15 1.35.7.77.54 1.73 1.45 2.55 2.63 1.68 2.37 2.1 4.73 1.98 4.74zM69.31 434.9c-.05.01-.15-.82-.54-2.28-.38-1.45-1.1-3.52-2.29-5.93-2.37-4.84-6.67-10.97-12.15-17.12-2.71-3.1-5.34-6.02-7.58-8.82-2.24-2.79-4.08-5.46-5.42-7.81-1.35-2.35-2.22-4.37-2.74-5.8-.25-.71-.44-1.27-.54-1.66-.11-.38-.16-.59-.14-.59.04-.01.29.78.86 2.18.56 1.4 1.48 3.38 2.86 5.69 1.37 2.32 3.23 4.94 5.47 7.7 2.24 2.77 4.88 5.68 7.59 8.78 5.49 6.16 9.79 12.37 12.09 17.29 1.16 2.45 1.83 4.56 2.16 6.04.16.74.27 1.32.3 1.72.07.4.09.61.07.61z" fill="#e0e0e0"/><path d="M96.37 404.34c.02.04-.5.3-1.42.8-.91.51-2.2 1.3-3.68 2.43-1.48 1.13-3.13 2.62-4.83 4.41-1.7 1.79-3.44 3.87-5.22 6.1-3.56 4.47-6.9 8.43-8.89 11.59a49.36 49.36 0 00-2.23 3.81c-.49.92-.74 1.44-.78 1.43-.02-.01.03-.15.13-.4.11-.25.25-.64.48-1.11.43-.96 1.13-2.31 2.11-3.92 1.94-3.23 5.25-7.25 8.8-11.71 1.79-2.23 3.55-4.32 5.28-6.11 1.73-1.79 3.43-3.26 4.95-4.37 1.52-1.11 2.85-1.86 3.8-2.32.47-.24.85-.38 1.11-.49.24-.11.38-.15.39-.14z" fill="#e0e0e0"/><path d="M96.9 414.26c.01.07-1.14.21-3 .44-1.85.24-4.42.55-7.11 1.4-2.68.87-4.91 2.2-6.36 3.34-1.47 1.13-2.16 2.07-2.23 2.02-.02-.02.12-.27.44-.69.32-.42.85-.98 1.56-1.6 1.43-1.23 3.68-2.64 6.43-3.54 2.76-.87 5.36-1.13 7.23-1.28 1.87-.14 3.03-.16 3.04-.09z" fill="#e0e0e0"/><path d="M79.07 420.36c-.16-.09 1.19-2.15 2.24-4.93.98-2.8 1.21-5.26 1.39-5.23.06.01.06.62-.05 1.61-.12.98-.35 2.35-.87 3.79s-1.21 2.64-1.74 3.47c-.53.84-.91 1.32-.97 1.29zM105.13 377.72c.01.02-.16.1-.48.25-.37.17-.84.38-1.41.64-.62.26-1.37.6-2.21 1.05-.85.44-1.83.89-2.86 1.5-.52.3-1.07.61-1.64.93-.57.33-1.13.71-1.72 1.09-1.21.73-2.41 1.63-3.7 2.55a69.735 69.735 0 00-7.73 6.8c-2.53 2.64-4.7 5.37-6.53 7.96-.87 1.32-1.73 2.56-2.42 3.79-.35.61-.72 1.18-1.03 1.76-.3.58-.59 1.13-.87 1.67-.58 1.05-1 2.05-1.41 2.91-.42.86-.73 1.62-.97 2.24-.24.58-.44 1.05-.59 1.43-.14.33-.22.49-.24.49-.02-.01.03-.18.14-.52.13-.39.3-.87.51-1.47.22-.64.5-1.41.89-2.28.39-.88.78-1.89 1.35-2.96.27-.54.56-1.1.85-1.69.3-.59.66-1.17 1.01-1.79.68-1.25 1.53-2.5 2.4-3.84 1.82-2.62 4-5.38 6.55-8.04 2.57-2.64 5.26-4.91 7.81-6.82 1.31-.92 2.53-1.81 3.75-2.53.61-.37 1.18-.75 1.75-1.07.58-.31 1.13-.62 1.66-.91 1.05-.6 2.05-1.03 2.91-1.45.86-.42 1.62-.73 2.25-.97.59-.23 1.07-.41 1.45-.56.35-.12.52-.17.53-.16z" fill="#e0e0e0"/><path d="M83.71 392.07c-.04-.01.19-.84 1.18-1.75.96-.91 2.71-1.76 4.74-1.82 2.03-.05 3.79.51 4.99.98 1.21.47 1.91.86 1.89.92-.03.07-.78-.2-2-.59-1.22-.37-2.94-.86-4.86-.81-1.92.06-3.57.8-4.53 1.59-.98.78-1.33 1.53-1.41 1.48zM80.51 395.37c-.14-.08 1.07-1.85 1.35-4.38.32-2.53-.45-4.53-.3-4.58.05-.02.32.44.56 1.28.23.83.39 2.04.24 3.36-.16 1.32-.58 2.46-1 3.21-.43.76-.8 1.15-.85 1.11z" fill="#e0e0e0"/><g><path d="M45.64 439.81c.74 13.09 4.68 26.41 10.75 39.88h26.39c5.79-13.33 9.46-26.63 10.11-39.88H45.64z" fill="#e0e0e0"/></g><g><path d="M88.63 461c0 .14-8.69.25-19.41.25s-19.41-.11-19.41-.25 8.69-.25 19.41-.25 19.41.11 19.41.25z" fill="#fafafa"/></g><g><path d="M88.04 465.75c0 .14-8.15.25-18.19.25-10.05 0-18.2-.11-18.2-.25s8.14-.25 18.2-.25c10.04 0 18.19.11 18.19.25z" fill="#fafafa"/></g><g><path d="M56.82 448.41c.14 0 .25 2.72.25 6.08s-.11 6.08-.25 6.08-.25-2.72-.25-6.08c.01-3.36.12-6.08.25-6.08z" fill="#fafafa"/></g><g><path d="M70.96 448.41c.14 0 .25 2.82.25 6.3s-.11 6.3-.25 6.3-.25-2.82-.25-6.3c.01-3.48.12-6.3.25-6.3z" fill="#fafafa"/></g><g><path d="M84.24 448.3c.14 0 .25 2.88.25 6.42 0 3.55-.11 6.42-.25 6.42s-.25-2.87-.25-6.42c0-3.54.11-6.42.25-6.42z" fill="#fafafa"/></g><g><path d="M92.07 448.41c0 .14-10.19.25-22.76.25-12.57 0-22.76-.11-22.76-.25s10.19-.25 22.76-.25c12.56 0 22.76.11 22.76.25z" fill="#fafafa"/></g><g><path fill="#e0e0e0" d="M53.23 122.97h73.65v76.77H53.23z"/><path fill="#fafafa" d="M48.24 122.97h73.65v76.77H48.24z"/><path d="M121.91 199.77h-73.7v-76.82h73.7v76.82zm-73.65-.05h73.6v-76.73h-73.6v76.73z" fill="#e0e0e0"/><path fill="#fafafa" d="M58.14 133.29h53.85v56.13H58.14z"/><path d="M58.14 189.8c.04.05-.47.64-1.33 1.55-.86.91-2.07 2.14-3.42 3.47s-2.6 2.52-3.52 3.37c-.92.84-1.51 1.34-1.56 1.3-.05-.05.46-.63 1.32-1.54.86-.91 2.07-2.14 3.43-3.48 1.36-1.34 2.61-2.53 3.52-3.37.93-.86 1.52-1.36 1.56-1.3zM111.99 189.66c.05-.04.64.47 1.54 1.33.91.86 2.14 2.07 3.47 3.42s2.52 2.6 3.37 3.52c.84.92 1.34 1.51 1.3 1.56-.05.05-.63-.46-1.54-1.32-.91-.86-2.14-2.07-3.48-3.43-1.34-1.36-2.53-2.61-3.37-3.52-.84-.93-1.34-1.52-1.29-1.56zM111.84 133.44c-.04-.05.47-.64 1.33-1.54.86-.91 2.07-2.14 3.42-3.47 1.36-1.33 2.6-2.52 3.52-3.37.92-.84 1.51-1.34 1.56-1.3.05.05-.46.63-1.32 1.54-.86.91-2.07 2.14-3.43 3.48-1.36 1.34-2.61 2.53-3.52 3.37-.93.84-1.51 1.34-1.56 1.29zM57.99 133.58c-.05.04-.64-.47-1.54-1.33-.91-.86-2.14-2.07-3.47-3.42s-2.52-2.6-3.37-3.52c-.84-.92-1.34-1.51-1.3-1.56.05-.05.63.46 1.54 1.32.91.86 2.14 2.07 3.48 3.43 1.34 1.36 2.53 2.61 3.37 3.52.85.93 1.34 1.51 1.29 1.56z" fill="#e0e0e0"/><path d="M111.84 189.42s-.01-.1-.01-.27c0-.19-.01-.45-.01-.78-.01-.7-.01-1.72-.02-3.03-.01-2.66-.03-6.53-.05-11.44-.03-9.83-.06-23.84-.11-40.61l.21.21c-15.68.01-34.09.02-53.7.03h-.01l.24-.24c-.01 20.6-.02 39.88-.03 56.13l-.2-.2c16.09.04 29.49.08 38.88.1 4.69.02 8.38.04 10.92.05 1.25.01 2.22.02 2.89.02.32 0 .56.01.75.01.16.01.25.02.25.02s-.08.01-.24.01c-.18 0-.42.01-.72.01-.66.01-1.61.01-2.85.02-2.53.01-6.2.03-10.88.05-9.42.03-22.87.06-39.01.1h-.2v-.21c-.01-16.26-.02-35.53-.03-56.13v-.24h.25c19.61.01 38.02.02 53.7.03h.21v.21c-.04 16.82-.08 30.88-.11 40.74-.02 4.89-.04 8.75-.05 11.39-.01 1.3-.02 2.3-.02 2.99 0 .32-.01.57-.01.76-.03.19-.03.28-.04.27z" fill="#e0e0e0"/><g><path fill="#ebebeb" d="M76.08 152.37h17.97v17.97H76.08z"/></g></g><g><path fill="#e0e0e0" d="M132.98 49.57h61.37v63.98h-61.37z"/><path fill="#fafafa" d="M128.83 49.57h61.37v63.98h-61.37z"/><path d="M190.22 113.57h-61.41V49.55h61.41v64.02zm-61.38-.04h61.34V49.59h-61.34v63.94z" fill="#e0e0e0"/><path fill="#fafafa" d="M137.08 58.17h44.87v46.78h-44.87z"/><path d="M137.08 105.26c.04.04-.39.53-1.11 1.29-.72.76-1.72 1.78-2.85 2.89-1.13 1.11-2.17 2.1-2.93 2.81-.77.7-1.26 1.12-1.3 1.08-.04-.04.38-.53 1.1-1.28.72-.76 1.73-1.78 2.86-2.9 1.13-1.11 2.17-2.11 2.94-2.81.76-.71 1.25-1.12 1.29-1.08zM181.95 105.14c.04-.04.53.39 1.29 1.11.76.72 1.78 1.72 2.89 2.85 1.11 1.13 2.1 2.17 2.81 2.93.7.77 1.12 1.26 1.08 1.3-.04.04-.53-.38-1.28-1.1-.76-.72-1.78-1.73-2.9-2.86-1.11-1.13-2.11-2.17-2.81-2.94-.71-.76-1.12-1.25-1.08-1.29zM181.83 58.3c-.04-.04.39-.53 1.11-1.29.72-.76 1.72-1.78 2.85-2.89 1.13-1.11 2.17-2.1 2.93-2.81.77-.7 1.26-1.12 1.3-1.08.04.04-.38.53-1.1 1.28-.72.76-1.73 1.78-2.86 2.9a99.431 99.431 0 01-2.94 2.81c-.77.7-1.26 1.12-1.29 1.08zM136.95 58.41c-.04.04-.53-.39-1.29-1.11-.76-.72-1.78-1.72-2.89-2.85-1.11-1.13-2.1-2.17-2.81-2.93-.7-.77-1.12-1.26-1.08-1.3.04-.04.53.38 1.28 1.1.76.72 1.78 1.73 2.9 2.86 1.12 1.13 2.11 2.17 2.81 2.94.71.76 1.12 1.26 1.08 1.29z" fill="#e0e0e0"/><path d="M181.83 104.95s-.01-.08-.01-.23c0-.16-.01-.37-.01-.65 0-.59-.01-1.43-.02-2.53-.01-2.22-.03-5.44-.05-9.53-.02-8.19-.05-19.86-.09-33.84l.17.17c-13.06.01-28.4.02-44.75.03l.2-.2c-.01 17.17-.02 33.23-.03 46.78l-.17-.17c13.41.04 24.57.07 32.4.09 3.91.02 6.99.03 9.1.04 1.04.01 1.85.02 2.41.02.26 0 .47.01.62.01.15 0 .22 0 .23.01 0 0-.06.01-.2.01-.15 0-.35.01-.6.01-.55 0-1.35.01-2.38.02-2.11.01-5.17.03-9.06.04-7.85.02-19.06.05-32.51.09h-.17v-.17c-.01-13.55-.02-29.61-.03-46.78v-.2h.2c16.34.01 31.68.02 44.75.03h.17v.17c-.04 14.02-.07 25.73-.09 33.95-.02 4.08-.03 7.29-.05 9.49-.01 1.08-.02 1.91-.02 2.49 0 .27-.01.48-.01.63v.22z" fill="#e0e0e0"/><g><path fill="#ebebeb" d="M152.03 74.07H167v14.97h-14.97z"/></g></g><g><circle cx="443.42" cy="279.38" r="8.72" fill="#e0e0e0"/><circle cx="417.53" cy="279.38" r="9.29" fill="#e0e0e0"/><circle transform="rotate(-76.774 397.623 262.94)" cx="397.63" cy="262.95" fill="#e0e0e0" r="9.86"/><circle cx="393.59" cy="237.69" r="10.3" fill="#e0e0e0"/><circle transform="rotate(-81.68 406.207 215.56)" cx="406.2" cy="215.57" fill="#e0e0e0" r="10.64"/><path d="M442.03 206.83c0 6.4-5.19 11.6-11.6 11.6-6.4 0-11.6-5.19-11.6-11.6 0-6.4 5.19-11.6 11.6-11.6 6.41.01 11.6 5.2 11.6 11.6z" fill="#e0e0e0"/><circle transform="rotate(-76.767 462.666 262.757)" cx="462.65" cy="262.74" fill="#e0e0e0" r="8.42"/><circle cx="467.16" cy="237.4" r="7.82" fill="#e0e0e0"/><path d="M461.3 215.28c0 3.94-3.2 7.14-7.14 7.14-3.94 0-7.14-3.2-7.14-7.14 0-3.94 3.2-7.14 7.14-7.14 3.94 0 7.14 3.19 7.14 7.14z" fill="#e0e0e0"/></g><g><path d="M384.97 133.69s.01-.12.06-.35c.05-.25.12-.58.22-1.02.2-.91.49-2.23.87-3.91.77-3.41 1.88-8.33 3.26-14.39 2.79-12.17 6.65-28.97 10.92-47.58l.19-.84.19.84c.08.33.16.7.24 1.06 4.25 18.87 8.1 35.96 10.88 48.34 1.37 6.18 2.48 11.18 3.25 14.66.37 1.72.66 3.06.87 3.99.09.44.16.79.22 1.04.05.23.06.36.06.36s-.04-.12-.1-.35c-.06-.25-.15-.59-.25-1.03-.22-.93-.53-2.26-.94-3.97-.8-3.47-1.95-8.47-3.38-14.63-2.82-12.38-6.7-29.45-11-48.32-.08-.36-.16-.72-.24-1.06h.38c-4.32 18.6-8.21 35.4-11.04 47.56-1.42 6.06-2.58 10.96-3.38 14.37-.4 1.68-.72 2.99-.94 3.9-.11.43-.19.77-.25 1.01-.05.2-.09.32-.09.32z" fill="#263238"/><path d="M384.96 147.82v-11.95h31.87v11.95c0 7.68-6.23 13.91-13.91 13.91h-4.06c-7.67 0-13.9-6.23-13.9-13.91z" fill="#455a64"/><path d="M384.96 135.88c.01-.01.14.17.36.5.24.37.57.86.97 1.48.85 1.33 2.05 3.19 3.51 5.48 2.95 4.68 7 11.08 11.46 18.16.03.04.06.09.08.13h-.33c4.34-7.12 8.26-13.56 11.12-18.26 1.42-2.3 2.58-4.17 3.4-5.5.39-.62.71-1.12.94-1.49.22-.34.34-.51.35-.5.01.01-.09.19-.28.54-.22.38-.51.89-.88 1.52l-3.3 5.57c-2.84 4.71-6.72 11.17-11.02 18.32l-.16.27-.17-.27c-.03-.04-.05-.08-.08-.13-4.43-7.1-8.44-13.53-11.37-18.22-1.42-2.32-2.58-4.2-3.41-5.55-.38-.63-.68-1.14-.91-1.52-.19-.34-.29-.53-.28-.53zM404.06 66.32c0 1.92-1.56 3.48-3.48 3.48s-3.48-1.56-3.48-3.48 1.56-3.48 3.48-3.48 3.48 1.56 3.48 3.48z" fill="#263238"/><path d="M400.58 7.08c.11 0 .2 13.41.2 29.94 0 16.54-.09 29.95-.2 29.95-.11 0-.2-13.4-.2-29.95.01-16.53.09-29.94.2-29.94zM402.39 163.03c0 .82-.67 1.49-1.49 1.49s-1.49-.67-1.49-1.49.67-1.49 1.49-1.49 1.49.66 1.49 1.49z" fill="#263238"/><path d="M400.24 163.58l.24-.12c-.87.49-1.37 1.48-1.51 2.46-.13.99.05 1.99.25 2.97.07.31.23.7.55.68.29-.02.42-.36.47-.64.1-.59.12-1.19.05-1.79-.04.76.21 1.52.69 2.11.09.11.23.23.37.19.14-.04.2-.19.23-.33.13-.5.21-1.01.22-1.53.08.44.17.91.47 1.24.31.33.91.43 1.19.08.19-.24.17-.57.13-.87-.25-1.78-.98-3.48-2.08-4.89" fill="#263238"/><path d="M386.97 135.88s-14.32-16.51-12.73-17.1c1.59-.6 14.32 8.55 14.32 8.55s-10.94-24.46-8.75-26.25c2.19-1.79 13.72 21.68 13.72 21.68s-1.79-34.21 0-34.6c1.79-.4 8.35 34.21 8.35 34.21s9.74-31.62 12.53-31.62c2.78 0-2.98 30.43-2.98 30.43s11.53-19.49 13.32-16.9c1.79 2.59-8.15 23.67-8.15 23.67s14.52-12.13 15.11-10.54C432.31 119 416 135.9 416 135.9h-29.03z" fill="#5d9ea6"/><path d="M384.97 111.02c.1-.04 2.64 5.4 5.67 12.16s5.41 12.28 5.31 12.32c-.1.04-2.64-5.4-5.67-12.16s-5.41-12.28-5.31-12.32zM396.54 114.06c.11-.01.53 4.79.94 10.72.41 5.93.66 10.74.55 10.75-.11.01-.53-4.79-.94-10.72-.41-5.93-.66-10.74-.55-10.75zM412.49 98.74c.01 0-.02.14-.08.39-.08.29-.19.65-.31 1.09-.3 1-.7 2.34-1.2 3.98a439.23 439.23 0 00-3.75 13.2c-1.38 5.18-2.53 9.9-3.33 13.32-.39 1.67-.71 3.04-.95 4.05-.11.44-.2.8-.27 1.1-.07.25-.11.38-.12.38-.01 0 0-.14.04-.39.05-.3.12-.67.2-1.11.18-.97.46-2.36.83-4.08.73-3.44 1.83-8.17 3.22-13.36 1.38-5.18 2.79-9.84 3.86-13.18.54-1.67.99-3.02 1.32-3.95.15-.43.28-.78.38-1.07.1-.25.15-.37.16-.37zM419.39 116.37c.09.06-2.71 4.23-6.24 9.31-3.54 5.08-6.48 9.15-6.57 9.08-.09-.06 2.71-4.23 6.24-9.31 3.54-5.07 6.48-9.14 6.57-9.08zM391.8 135.53c-.03.04-.52-.29-1.25-.89-.73-.6-1.71-1.48-2.72-2.52a36.644 36.644 0 01-2.45-2.79c-.58-.75-.9-1.24-.86-1.28.09-.07 1.58 1.73 3.59 3.79 2 2.06 3.76 3.6 3.69 3.69zM400.5 128.97c.11-.01.34 1.51.51 3.4.17 1.89.22 3.43.12 3.44s-.34-1.51-.51-3.4c-.18-1.89-.23-3.43-.12-3.44z" fill="#263238"/><g><path d="M416.83 143.32c0 .03-.43.12-1.23.26s-1.95.32-3.39.52c-2.87.4-6.84.85-11.26 1-4.42.15-8.43-.09-11.3-.47-1.44-.19-2.59-.37-3.39-.54-.79-.16-1.23-.26-1.22-.29.01-.03.45.02 1.25.14.8.12 1.96.27 3.39.42 2.87.31 6.86.5 11.26.36 4.4-.15 8.37-.56 11.24-.88 1.38-.16 2.53-.29 3.4-.4.8-.11 1.25-.15 1.25-.12z" fill="#fff"/></g><g><path d="M416.83 146.88c0 .03-.43.12-1.23.26s-1.95.32-3.39.52c-2.87.4-6.84.85-11.26 1-4.42.15-8.43-.09-11.3-.47-1.44-.19-2.59-.37-3.39-.54-.79-.16-1.23-.26-1.22-.29.01-.03.45.02 1.25.14.8.12 1.96.27 3.39.42 2.87.31 6.86.5 11.26.36 4.4-.15 8.37-.56 11.24-.88 1.38-.16 2.53-.29 3.4-.39.8-.12 1.25-.16 1.25-.13z" fill="#fff"/></g></g><g><path d="M182.47 178.34l-3.53 8.35s1.65 3.97 1.82 5.91c.17 1.94-1.4 10.15-1.4 10.15s-1.72.11-2.13-1.57c-.18-.75.32-4.81.32-4.81-.93-1.21-2.81-1.02-3.48.35-.98 2.02-2.14 4.36-2.34 4.63-.22.3.15 3.32.46 5.56.19 1.34-1.57 2.2-2.39 1.12a.72.72 0 01-.15-.35s-1.31 1.92-2.6-1.6c0 0-2.61-1.33-2.66-3.48 0 0-2.37-2.66-2.69-4.26-.32-1.59 5.11-11.2 5.11-11.2l6.68-13.8 8.98 5z" fill="#ffbe9d"/><path d="M170.84 195.53c-.05-.03-.52.53-1.17 1.51-.63.98-1.51 2.45-1.72 4.32-.17 1.88.45 3.49.91 4.56.48 1.08.85 1.71.91 1.68.07-.03-.19-.71-.58-1.81-.37-1.09-.91-2.65-.74-4.38.19-1.73.98-3.17 1.52-4.19.56-1.02.93-1.65.87-1.69zM168.19 194.94c-.04-.05-.57.41-1.15 1.32-.29.46-.61 1.02-.9 1.68-.27.66-.59 1.42-.58 2.31.02.86.21 1.63.38 2.32.17.63.33 1.23.48 1.82.28 1.03.49 1.66.56 1.65.07-.02-.02-.67-.22-1.73-.1-.52-.22-1.15-.38-1.84-.15-.69-.32-1.44-.33-2.22-.01-.75.27-1.49.51-2.13.26-.64.53-1.21.78-1.68.49-.93.9-1.45.85-1.5zM165.08 194.52c-.18-.09-.99 1.69-1.82 3.88-.16.35-.1.68-.09.96.03.29.07.56.13.82.11.51.26.96.41 1.33.3.74.63 1.12.68 1.08.06-.04-.14-.47-.35-1.2-.1-.37-.21-.81-.29-1.3-.04-.25-.08-.51-.1-.77-.01-.26-.04-.54.06-.74.43-1.11.77-2.12 1.02-2.85.25-.74.39-1.18.35-1.21z" fill="#eb996e"/><path d="M322.84 157.89c1.16-1.19 2.32-2.37 3.49-3.56.26-.27.55-.55.93-.61.65-.11 1.23.57 1.25 1.23.03.66-.32 1.27-.69 1.83-.37.55-.77 1.11-.87 1.76" fill="#ffbe9d"/><path d="M356.73 128.13l-18.43 31.98-34.47.25a3.072 3.072 0 012.8-3.21l30.16-.61 15.68-26.87c1.09-1.9 2.21-2.3 4.26-1.54z" fill="#263238"/><path d="M325.81 160.19c.17-.04-10.89 0-10.27.17.05.12.11.24.16.36l1.44 6.32c2.49-.02 9.66-1.89 9.66-1.89s2.41-1.43 3.47-2.7v-2.28l-4.46.02z" fill="#ffbe9d"/><path d="M316.06 160.22l-26.22-1.09-12.12-28.59-12.89 18.43 10.37 18.65a13.27 13.27 0 0012.2 6.81l30.56-3.5-1.9-10.71zM320.08 293.7l2.02 18.45s19.22 2.81 19.93 6.18l-35.42 6.54-4.33-28.62 17.8-2.55z" fill="#e3a24e"/><path d="M310.86 312.22c-.66.29-1.03 1.13-.76 1.81.26.67 1.12 1.05 1.79.77.67-.28 1.13-1.28.8-1.92-.34-.64-1.36-1.03-1.95-.6M306.61 324.87l-.44-2.89 34.42-5.12s1.23.29 1.66 1.69l-35.64 6.32z" fill="#fff" opacity=".6"/><path d="M322.66 311.89c.02.17-.84.38-1.61 1.07-.79.66-1.12 1.48-1.29 1.44-.17-.01-.06-1.09.89-1.9.94-.83 2.02-.78 2.01-.61zM326.62 312.89c.06.16-.65.57-1.13 1.39-.51.81-.54 1.63-.71 1.64-.16.05-.43-.95.19-1.96.61-1.02 1.62-1.24 1.65-1.07zM329.4 317.05c-.15.06-.52-.77-.21-1.79.3-1.02 1.07-1.52 1.16-1.38.12.13-.33.72-.57 1.56-.27.83-.21 1.57-.38 1.61zM321.73 307.73c-.05.17-.88.05-1.86.26-.98.19-1.7.63-1.81.5-.12-.11.53-.86 1.68-1.1 1.16-.24 2.05.19 1.99.34z" fill="#263238"/><path d="M320.48 297.35l.36 3.29-17.54 2.4-.52-3.45z" opacity=".3"/><path d="M321.25 304.02c.01.07-.66.28-1.79.25-.56-.01-1.23-.1-1.95-.3-.36-.1-.73-.23-1.1-.39-.18-.08-.39-.16-.6-.34-.22-.15-.4-.6-.21-.91.14-.3.45-.47.7-.51.26-.05.48-.02.68-.01.41.04.8.12 1.17.22.73.21 1.34.52 1.8.84.94.64 1.32 1.25 1.26 1.3-.07.07-.55-.42-1.49-.93-.47-.25-1.05-.5-1.72-.66-.34-.08-.7-.14-1.07-.17-.39-.04-.71 0-.79.18-.03.07-.03.1.07.19s.26.17.44.25c.35.16.69.29 1.02.4.67.22 1.29.34 1.82.41 1.07.13 1.75.08 1.76.18z" fill="#263238"/><path d="M321.06 304.3c-.06.04-.49-.54-.72-1.66-.11-.55-.15-1.24-.04-1.99.06-.37.15-.76.3-1.15.16-.38.34-.89 1.01-1.07.35-.06.68.17.82.39.15.22.21.43.28.63.13.41.18.82.18 1.2 0 .77-.22 1.45-.49 1.95-.56 1.03-1.26 1.34-1.28 1.28-.07-.08.49-.5.89-1.47.2-.48.35-1.09.32-1.76-.01-.34-.07-.68-.18-1.03-.11-.37-.3-.66-.43-.6-.18.02-.44.35-.54.68-.14.35-.23.69-.3 1.03a6.51 6.51 0 00-.09 1.83c.08 1.08.36 1.7.27 1.74z" fill="#263238"/><path d="M172.67 304l-17.24 6.89s2.44 19.27-.62 20.85l-15.79-32.38 26.42-11.84 7.23 16.48z" fill="#e3a24e"/><path d="M152.36 300.07c-.46-.56-1.37-.68-1.95-.25-.58.43-.71 1.36-.27 1.93.45.57 1.54.75 2.06.26.53-.49.62-1.59.05-2.04M139.03 299.37l2.66-1.19 14.16 31.79s.05 1.26-1.19 2.05l-15.63-32.65z" fill="#fff" opacity=".6"/><path d="M155.84 311.35c-.16.07-.59-.71-1.46-1.27-.85-.59-1.73-.69-1.73-.86-.03-.16 1.03-.35 2.07.35 1.04.69 1.28 1.75 1.12 1.78zM155.94 315.44c-.14.11-.72-.47-1.64-.72-.91-.27-1.71-.09-1.77-.25-.09-.14.8-.67 1.94-.34 1.13.32 1.62 1.24 1.47 1.31zM152.67 319.23c-.1-.13.61-.71 1.67-.69 1.06.02 1.75.62 1.64.75-.09.15-.78-.13-1.65-.14-.88-.02-1.58.23-1.66.08zM159.59 309.34c-.18 0-.28-.84-.74-1.72-.45-.89-1.06-1.46-.96-1.61.08-.14.98.28 1.51 1.33s.35 2.03.19 2z" fill="#263238"/><path d="M169.25 305.36l-3.07 1.23-7.01-16.25 2.72-1.23z" opacity=".3"/><path d="M163.04 307.89c-.07.03-.45-.56-.72-1.65-.14-.54-.23-1.21-.23-1.96 0-.37.03-.77.08-1.17.03-.2.05-.42.17-.67.09-.25.47-.54.82-.45.33.06.57.31.68.54.12.24.15.46.19.66.07.41.1.8.1 1.18-.01.76-.14 1.43-.33 1.96-.37 1.08-.86 1.6-.91 1.56-.09-.05.25-.64.49-1.68.12-.52.2-1.14.18-1.84-.01-.35-.05-.71-.13-1.08-.06-.39-.19-.69-.39-.71-.07-.01-.1 0-.17.12-.06.12-.09.3-.12.49-.06.38-.1.74-.11 1.09-.03.7.02 1.34.09 1.86.17 1.07.4 1.71.31 1.75z" fill="#263238"/><path d="M162.72 307.78c-.05-.05.39-.62 1.4-1.14.5-.26 1.15-.48 1.91-.57.38-.05.78-.06 1.19-.02.41.05.95.09 1.3.68.16.32.02.7-.16.89-.17.21-.36.31-.53.44-.36.23-.74.39-1.11.49-.75.21-1.46.18-2.02.05-1.14-.27-1.63-.85-1.58-.89.06-.09.62.33 1.65.46.51.06 1.14.04 1.78-.16.32-.1.64-.25.94-.45.33-.21.55-.46.46-.58-.07-.17-.46-.33-.8-.34-.37-.04-.73-.04-1.07-.01-.69.06-1.3.22-1.79.41-.98.38-1.51.82-1.57.74zM290.51 69.16c-2.7-1.67-6.46.15-9.32-1.23-1.74-.84-2.74-2.67-4.13-4.01-2.08-2-5.47-3.13-8.29-2.52-2.82.61-4.78 1.54-5.85 4.22-1.92-1.9-6.45-.04-8.46 2.38-2.01 2.41-2.44 5.34-2.48 8.48-.08 5.41.92 10.83 2.92 15.86.18.45.51.97.98.89.33-.06.52-.4.65-.7 1.14-2.58 1.52-5.43 2.01-8.21.48-2.78 1.1-5.62 2.65-7.99 1.54-2.37 4.19-4.2 7.01-4.02 2.08.13 3.97 1.31 5.47 2.76 1.5 1.45 2.7 3.18 4.08 4.74s3.01 3.01 5 3.62c1.99.62 4.4.24 5.74-1.36s1.06-4.45-.81-5.38c1.86.31 3.85-.84 4.51-2.6.67-1.76-.08-3.94-1.68-4.93z" fill="#263238"/><path d="M269.02 114.06l1.25-5.91s8.08.55 9.94-7.23c.9-3.76 2.11-11.65 3.13-18.8 1.1-7.69-3.9-14.94-11.48-16.65l-.75-.17c-8.23-1.36-13.98 4.87-15.11 13.13l-6.34 31.65c-1.07 5.33 2.37 10.51 7.69 11.62l-.22 2.99c5.33 1.09 10.76-5.3 11.89-10.63z" fill="#ffbe9d"/><path d="M270.28 108.15s-5.02-.71-9.52-5.19c0 0 1.14 6.16 9.08 7.21l.44-2.02z" fill="#eb996e"/><path d="M280.46 87.67c-.11.59-.71.99-1.33.88-.62-.11-1.03-.67-.92-1.26.11-.59.71-.99 1.33-.88.62.1 1.03.66.92 1.26zM280.8 85.55c-.17.11-.87-.7-2.07-.97-1.19-.28-2.21.13-2.31-.04-.05-.08.15-.31.6-.5a3.16 3.16 0 011.89-.15c.75.17 1.31.59 1.61.95.3.37.36.66.28.71zM268.88 85.26c-.11.59-.71.99-1.33.88-.62-.11-1.03-.67-.92-1.26.11-.59.71-.99 1.33-.88.62.1 1.04.67.92 1.26zM268.96 83.12c-.17.11-.88-.7-2.07-.97-1.19-.28-2.21.13-2.31-.04-.05-.08.15-.31.6-.5a3.16 3.16 0 011.89-.15c.75.17 1.31.59 1.61.95.3.37.36.66.28.71zM271.3 92.99c.01-.07.78-.03 2.03.09.31.04.62.04.72-.16.12-.21.07-.56 0-.95-.12-.81-.25-1.65-.38-2.54-.51-3.6-.8-6.54-.66-6.56.15-.02.68 2.89 1.18 6.49.12.89.23 1.73.34 2.54.04.37.15.81-.11 1.24-.13.21-.4.33-.6.33-.21.02-.38-.02-.54-.05-1.23-.19-1.99-.36-1.98-.43zM267.59 93.03c.2.03-.09 1.34.81 2.51.9 1.18 2.32 1.35 2.29 1.53 0 .09-.37.18-.96.07-.58-.11-1.38-.48-1.93-1.2s-.67-1.54-.6-2.09c.08-.56.3-.85.39-.82zM270.47 77c-.19.3-1.35-.13-2.8-.27-1.44-.18-2.67-.02-2.79-.36-.05-.16.22-.42.75-.63.53-.21 1.32-.35 2.18-.25.87.1 1.61.41 2.07.73.47.32.67.64.59.78zM281.14 81.98c-.27.22-1.03-.24-2.03-.48-.98-.27-1.88-.23-2.01-.56-.05-.16.14-.4.57-.58.42-.18 1.07-.25 1.75-.07.68.18 1.21.56 1.5.91.29.37.34.67.22.78z" fill="#263238"/><path d="M255.34 84.35c-.12-.09-5-2.8-6.04 2.58-1.03 5.37 4.57 5.3 4.61 5.15.04-.15 1.43-7.73 1.43-7.73z" fill="#ffbe9d"/><path d="M252.66 89.73c-.02-.02-.11.05-.28.09-.17.04-.44.04-.7-.12-.53-.32-.83-1.31-.67-2.28.08-.49.27-.94.52-1.29.24-.36.55-.59.84-.58.3-.01.47.2.5.36.04.16-.01.26.02.28.01.02.13-.07.13-.3 0-.11-.04-.25-.15-.38a.742.742 0 00-.49-.24c-.42-.05-.87.26-1.14.64-.3.38-.52.88-.61 1.44-.17 1.09.19 2.21.92 2.58.36.17.7.12.88.02.2-.09.25-.21.23-.22z" fill="#eb996e"/><path d="M285.36 80.85c-3.64.14-7.31-1.6-9.5-4.52-1.54-2.04-2.48-4.68-4.69-5.95-1.49-.85-3.35-.91-5-.43-1.65.48-3.12 1.45-4.44 2.55.61 4.31-1.4 8.5-3.36 12.39-.22.43-.46.89-.9 1.09-.74.34-1.6-.25-2.02-.95-.67-1.12-.72-2.5-.66-3.81.13-2.97.73-5.95 2-8.64 1.28-2.69 3.26-5.08 5.81-6.62 3.19-1.92 7.16-2.39 10.78-1.51 3.62.87 6.87 3.04 9.27 5.88 1.11 1.32 2.08 2.82 2.42 4.51" fill="#263238"/><path d="M292.33 71.55s-.01.17-.15.45c-.14.28-.45.66-.99.93s-1.31.37-2.14.22c-.42-.07-.86-.19-1.31-.38-.44-.2-.89-.48-1.22-.94-.31-.44-.51-1.06-.33-1.66.18-.61.8-1.02 1.44-1.11.32-.04.66-.02.99.09.32.11.62.34.82.62.43.56.53 1.34.37 2.04-.16.72-.64 1.36-1.28 1.77-.64.41-1.4.63-2.18.66-1.57.07-3.14-.57-4.45-1.52-1.33-.95-2.41-2.13-3.41-3.27-1.01-1.14-1.98-2.23-3.06-3.09-1.07-.87-2.26-1.48-3.46-1.72-1.2-.24-2.37-.15-3.38.1-2.04.52-3.42 1.63-4.27 2.42-.43.4-.73.75-.93.98-.2.23-.31.36-.31.35 0 0 .02-.04.06-.1.05-.07.11-.16.21-.29.19-.25.48-.6.9-1.02.83-.82 2.21-1.97 4.29-2.53a7.85 7.85 0 013.47-.13c1.24.24 2.48.86 3.58 1.74 1.11.88 2.1 1.98 3.11 3.11 1.01 1.13 2.07 2.3 3.37 3.22 1.28.93 2.78 1.55 4.28 1.48.74-.03 1.46-.23 2.05-.61.59-.38 1.03-.95 1.18-1.61.15-.64.06-1.35-.32-1.84-.36-.52-1.01-.72-1.59-.63-.58.07-1.11.43-1.27.95-.16.52 0 1.07.28 1.48.29.42.71.7 1.13.89.42.19.86.31 1.26.39.81.16 1.55.09 2.07-.16.53-.24.84-.6.99-.86.16-.26.18-.43.2-.42zM252.47 72.38c.03-.05.53.44 1.53.79.5.17 1.13.27 1.83.22.7-.04 1.46-.23 2.22-.51 1.52-.59 2.56-1.74 3.09-2.64.55-.92.68-1.59.73-1.57.02 0 0 .17-.08.47-.08.3-.22.72-.48 1.2-.51.96-1.57 2.18-3.16 2.8-.79.29-1.57.48-2.3.51-.73.04-1.39-.09-1.91-.29-.52-.2-.89-.45-1.13-.64-.23-.2-.35-.32-.34-.34zM251.84 76.3c.02-.05.61.23 1.63.4 1.01.17 2.48.18 3.95-.37a7.756 7.756 0 003.21-2.34c.65-.8.91-1.4.95-1.38.02.01-.03.16-.16.43-.12.27-.33.64-.64 1.07a7.36 7.36 0 01-3.26 2.47c-1.53.58-3.06.54-4.08.31-.52-.11-.92-.25-1.19-.37-.28-.12-.42-.21-.41-.22z" fill="#455a64"/><path d="M263.82 87.32c-.07 0-.13-.07-.13-.15 0-.08.06-.15.14-.14.07 0 .13.07.13.15 0 .07-.06.14-.14.14zM266.23 87.31c-.07 0-.13-.08-.13-.17 0-.09.06-.17.14-.17.07 0 .13.08.13.17 0 .1-.06.18-.14.17zM267.78 87.62c-.07-.01-.13-.11-.11-.23.01-.12.08-.21.16-.21.07.01.13.11.11.23-.01.13-.08.22-.16.21zM264.63 89.01c-.07-.02-.12-.07-.11-.11.01-.05.08-.07.15-.05.07.02.12.07.11.11-.01.04-.08.07-.15.05zM266.84 89a.142.142 0 01-.11-.17c.01-.08.08-.14.16-.13.07.01.13.09.11.17-.02.08-.09.14-.16.13zM278.07 90.16c-.07 0-.13-.07-.13-.16 0-.08.06-.15.14-.15.07 0 .13.07.13.16 0 .08-.07.15-.14.15zM279.66 90.37c-.07-.01-.13-.09-.11-.19.01-.09.08-.16.16-.15.07.01.13.09.11.19-.01.09-.08.16-.16.15zM276.68 89.89c-.07 0-.13-.06-.13-.12 0-.07.06-.12.14-.12.07 0 .13.06.13.12 0 .07-.06.12-.14.12zM277.49 91.71a.144.144 0 01-.16-.13c-.02-.08.03-.17.1-.18.07-.01.15.04.16.13.02.08-.03.16-.1.18zM278.88 91.74c-.07-.04-.1-.11-.07-.16.03-.06.11-.07.17-.04.07.04.1.11.07.16-.03.06-.1.08-.17.04z" fill="#eb996e"/><path fill="#1c2f5c" d="M220.73 216.27L205.8 265.4l-44.22 22.13 9.54 22.21 62.34-23.33 19.46-59.81z"/><path d="M226.52 109.47l-40.45 25.68a10.021 10.021 0 00-4.17 5.38l-12.69 39.16 13.95 4.92 14.72-36.62 36.43-15.08-7.79-23.44z" fill="#e3a24e"/><path d="M270.02 121.49l1.15-1.6-2.1-6.09-5.72 8.66-1.53-4.73-11.48-13.67-4.99 3.65-18.83 1.75.12.51-3.6 27.79-2.19 29.85-4.39 14.62-1.85 1.97a4.88 4.88 0 00-1.18 4.47l.13.52 46.22 15 3.58-5.59 14.38-68.07-7.72-9.04z" fill="#e3a24e"/><path d="M315.62 236.09a22.907 22.907 0 00-15.94-19.43l-39.67-12.5-46.46-14.92c-3.27 7.05-3.72 14.52-3.45 18.87.55 9.21 10.62 18.04 20.68 20.58l57.7 14.56 10.88 56.95 22.91-1.82-6.65-62.29z" fill="#1c2f5c"/><path d="M288.74 243.57c0 .02-.26-.03-.74-.13-.53-.12-1.23-.27-2.11-.46-1.83-.42-4.47-1.07-7.72-1.91-6.5-1.67-15.41-4.21-25.38-6.55-9.96-2.43-18.8-5.31-25.07-7.72-3.14-1.2-5.64-2.25-7.36-3.01-.86-.38-1.52-.69-1.97-.9-.45-.21-.68-.33-.67-.35.01-.02.25.07.71.25.5.2 1.17.47 2 .81 1.74.7 4.26 1.7 7.41 2.85 6.29 2.31 15.12 5.13 25.06 7.56 9.97 2.33 18.88 4.93 25.35 6.7 3.2.86 5.8 1.57 7.67 2.07.87.23 1.56.42 2.09.56.48.14.73.21.73.23zM294.37 236.73c.12.05-.67 1.97-2.38 3.85-1.7 1.89-3.53 2.86-3.59 2.75-.09-.13 1.57-1.27 3.21-3.1 1.65-1.81 2.62-3.57 2.76-3.5z" fill="#455a64"/><path d="M297.8 241.95c.06.12-1.92 1.06-4.57 1.43-2.65.39-4.81.05-4.79-.08.01-.16 2.14-.05 4.72-.43 2.57-.37 4.59-1.07 4.64-.92zM233.42 195.77c.04-.14 13.96 4.13 31.08 9.52 17.12 5.4 30.97 9.88 30.92 10.02-.04.14-13.96-4.13-31.08-9.53-17.12-5.38-30.96-9.87-30.92-10.01z" fill="#455a64"/><path d="M234.3 130.07c-.08-.06.96-1.09 1.65-3.26.35-1.07.64-2.4.76-3.89.12-1.49.09-3.15-.29-4.82-.4-1.66-1.18-3.14-2.09-4.3a11.15 11.15 0 00-2.95-2.59c-1.95-1.16-3.39-1.4-3.35-1.5.01-.03.36.01.99.17s1.52.46 2.55 1.02c1.02.55 2.15 1.41 3.14 2.61.97 1.2 1.81 2.73 2.23 4.48.4 1.75.41 3.46.26 4.98-.15 1.53-.48 2.88-.89 3.97-.41 1.09-.88 1.92-1.29 2.42-.41.51-.7.73-.72.71z" fill="#263238"/><path d="M223.03 137.78c2.65-.69 8.11-3.65 8.11-3.65-3.29 8.65-6.82 18.99-9.92 27.71.91-8.05.91-16 1.81-24.06" opacity=".3"/><path d="M192.61 143.12c.07-.12 1.61.71 3.1 2.25 1.5 1.53 2.29 3.1 2.17 3.16-.13.08-1.09-1.32-2.54-2.8-1.44-1.48-2.82-2.48-2.73-2.61zM195.87 137.7c.1-.08 1.57 1.98 2.24 4.99.7 3 .26 5.5.14 5.47-.16-.01.03-2.45-.64-5.35-.65-2.91-1.88-5.03-1.74-5.11zM216.1 161.55c0 .14-.04.26-.1.26-.05 0-.1-.12-.1-.26s.04-.26.1-.26c.06 0 .1.12.1.26z" fill="#263238"/><g><path d="M263.35 198.62c-.02 0 .01-.21.08-.6.09-.44.2-1.01.34-1.7.32-1.54.77-3.65 1.31-6.23 1.12-5.32 2.64-12.56 4.33-20.55 1.68-8 3.21-15.24 4.33-20.56.56-2.58 1.02-4.69 1.35-6.22.16-.69.29-1.25.39-1.69.09-.38.15-.58.17-.58.02 0-.01.21-.07.6-.08.45-.17 1.01-.3 1.71-.29 1.54-.7 3.66-1.19 6.26-1.03 5.28-2.5 12.56-4.18 20.59-1.68 8.03-3.27 15.29-4.48 20.53-.61 2.62-1.11 4.74-1.48 6.19-.18.68-.32 1.24-.43 1.68-.09.38-.15.57-.17.57z" fill="#263238"/></g><g><path d="M286.13 166.75c-.13 0-.07-2.05 1.05-4.27 1.1-2.23 2.71-3.51 2.78-3.4.11.11-1.27 1.5-2.32 3.63-1.07 2.13-1.35 4.07-1.51 4.04z" fill="#263238"/></g><g><path d="M288.47 169.18c-.12.04-.73-2.32-.29-5.25.42-2.93 1.68-5.02 1.78-4.95.15.07-.87 2.19-1.27 5.02-.43 2.83-.06 5.16-.22 5.18z" fill="#263238"/></g><g><path fill="#ffbe9d" d="M336.79 160.11l-7.63.07.95 2.42 6.61-1.56z"/></g><g opacity=".3"><path d="M271.51 160.91s5.08 8.88 5.01 8.64c.34-8.48.31-16.56-1.64-24.82"/></g><g><path d="M261.82 117.96c.04.05-.68.67-1.85 1.8-1.18 1.11-2.75 2.79-4.84 4.52l-.23.19-.14-.27c-.71-1.32-1.49-2.76-2.3-4.26-1.87-3.39-3.63-6.41-4.93-8.59-.6-1.02-1.11-1.88-1.53-2.59-.36-.61-.54-.96-.51-.98.03-.02.27.29.68.87.41.58.98 1.44 1.67 2.5 1.38 2.14 3.2 5.14 5.07 8.54.83 1.5 1.59 2.95 2.28 4.28l-.37-.08c2.07-1.67 3.7-3.3 4.94-4.36 1.24-1.07 2.03-1.61 2.06-1.57z" fill="#263238"/></g><g><path d="M270.91 120.36c.04.03-.18.43-.63 1.05-.44.63-1.15 1.48-1.89 2.51l-.28.39-.14-.44c-.29-.91-.6-1.87-.92-2.89-.21-.68-.41-1.33-.59-1.95l.44.09c-1.97 2.41-3.46 4.1-3.55 4.03-.09-.08 1.24-1.9 3.15-4.33l.29-.38.15.46c.19.61.4 1.26.61 1.93.31 1.01.59 1.97.87 2.88l-.42-.05c.8-1.05 1.54-1.83 2.05-2.41.52-.59.81-.92.86-.89z" fill="#263238"/></g><g><path d="M263.35 122.91c-.13.06-.7-1.06-1.02-2.52-.32-1.45-.64-2.59-.51-2.65.13-.06.7 1.06 1.02 2.52.31 1.45.64 2.59.51 2.65z" fill="#263238"/></g><g><path d="M255.56 193.75c.03-.04.56.32.98 1.23.42.88.65 2.38-.06 3.79-.72 1.4-2.07 2.11-3.02 2.28-.98.2-1.59-.02-1.57-.07.01-.09.6-.02 1.48-.29.86-.25 2.02-.94 2.65-2.16.61-1.23.48-2.57.18-3.41-.3-.87-.71-1.31-.64-1.37z" fill="#263238"/></g><g><path d="M264.64 124.25c.02 0 .02.25.01.71-.02.52-.04 1.2-.07 2.04-.07 1.77-.22 4.33-.45 7.49-.46 6.32-1.35 15.04-2.83 24.6-1.49 9.56-3.28 18.14-4.76 24.31-.74 3.08-1.37 5.57-1.84 7.28-.23.81-.41 1.47-.55 1.96-.13.45-.21.68-.23.68-.02 0 .03-.25.12-.7.12-.51.27-1.17.46-1.99.41-1.72.99-4.22 1.68-7.31 1.38-6.18 3.12-14.76 4.6-24.3 1.48-9.55 2.42-18.25 2.98-24.55.28-3.15.49-5.71.61-7.47.07-.84.13-1.52.17-2.03.05-.48.08-.72.1-.72z" fill="#263238"/></g><g><path d="M259.89 193.29c.01.06-.91.33-2.44.52-1.53.2-3.68.27-6.03-.01-2.35-.29-4.42-.89-5.85-1.45-1.44-.56-2.27-1.04-2.24-1.1.06-.16 3.53 1.48 8.16 2.03 4.61.6 8.38-.16 8.4.01z" fill="#263238"/></g><g><path d="M227.39 187.62c-.04.13-2.71-.58-5.78-2.05-3.08-1.46-5.31-3.09-5.24-3.2.08-.13 2.42 1.29 5.46 2.73 3.03 1.45 5.61 2.38 5.56 2.52z" fill="#263238"/></g><g><path d="M208.18 174.78c0 .14-.05.26-.11.26s-.11-.12-.11-.26.05-.26.11-.26.11.12.11.26z" fill="#263238"/></g><g><path d="M206.27 132.81c-.14-.02.01-1.72.34-3.78.33-2.07.71-3.72.85-3.7.14.02-.01 1.71-.34 3.78s-.71 3.72-.85 3.7z" fill="#fff"/></g><g><path d="M223.56 129.9c-.11.1-.99-.71-2.15-1.59-1.15-.89-2.16-1.53-2.09-1.67.06-.12 1.21.33 2.41 1.25 1.2.93 1.93 1.92 1.83 2.01z" fill="#fff"/></g><g><path d="M192.12 138.59c-.07.12-1.01-.29-2.1-.92-1.09-.63-1.91-1.25-1.84-1.37.07-.12 1.01.29 2.1.92 1.09.63 1.91 1.24 1.84 1.37z" fill="#fff"/></g><g><path d="M189.89 151.25c.04.14-1.51.75-3.46 1.36-1.96.62-3.58 1-3.62.87-.04-.14 1.51-.75 3.46-1.36 1.95-.62 3.57-1 3.62-.87z" fill="#fff"/></g><g><path d="M181.54 172.77c-.13.04-.66-1.43-.93-3.33-.28-1.9-.19-3.46-.05-3.46.15 0 .29 1.52.57 3.39.26 1.86.55 3.36.41 3.4z" fill="#fff"/></g><g><path d="M216.35 138.26c.03.15-1.62.57-3.6 1.23-1.99.65-3.56 1.28-3.63 1.14-.06-.12 1.44-.98 3.47-1.64 2.01-.66 3.73-.86 3.76-.73z" fill="#fff"/></g><g><path d="M230.05 117.11c-.03.14-2.07-.13-4.56-.6-2.49-.47-4.49-.97-4.46-1.11.03-.14 2.07.13 4.56.6 2.49.48 4.49.97 4.46 1.11z" fill="#fff"/></g><g><path d="M240.73 117.61c-.14-.05.23-1.51.81-3.27.58-1.76 1.17-3.15 1.3-3.1.14.05-.23 1.51-.81 3.27-.58 1.76-1.17 3.15-1.3 3.1z" fill="#fff"/></g><g><path d="M250.15 129.34c-.1.1-1.3-.96-2.52-2.5-1.23-1.54-1.98-2.95-1.86-3.02.12-.08 1.07 1.18 2.27 2.7 1.2 1.51 2.22 2.72 2.11 2.82z" fill="#fff"/></g><g><path d="M239.95 139.52c-.14.01-.38-1.5-.54-3.37-.15-1.88-.16-3.41-.02-3.42.14-.01.38 1.5.54 3.37.16 1.88.17 3.41.02 3.42z" fill="#fff"/></g><g><path d="M229.07 145.18c-.1.11-.97-.54-1.94-1.44-.98-.9-1.69-1.71-1.59-1.82.1-.11.97.54 1.94 1.44.98.9 1.69 1.72 1.59 1.82z" fill="#fff"/></g><g><path d="M234.58 152.65c.06.13-1.06.74-2.56 1.16-1.5.42-2.77.48-2.79.34-.02-.15 1.19-.43 2.65-.84s2.64-.8 2.7-.66z" fill="#fff"/></g><g><path d="M253.83 146.74c-.13.04-.63-1.38-.86-3.2-.24-1.82-.13-3.31.01-3.31.15 0 .27 1.46.5 3.24.24 1.79.49 3.23.35 3.27z" fill="#fff"/></g><g><path d="M249.7 160.97c-.13.06-.87-1.15-1.66-2.7-.79-1.56-1.33-2.88-1.2-2.94.13-.06.87 1.15 1.66 2.71.79 1.55 1.33 2.87 1.2 2.93z" fill="#fff"/></g><g><path d="M234.71 170.64c-.14-.05.33-1.73 1.04-3.76s1.4-3.64 1.53-3.59c.14.05-.33 1.73-1.04 3.76-.7 2.03-1.39 3.64-1.53 3.59z" fill="#fff"/></g><g><path d="M228.43 178.74c-.14.05-.62-.96-1.07-2.25-.46-1.29-.72-2.38-.58-2.43.14-.05.62.96 1.07 2.26.46 1.28.72 2.37.58 2.42z" fill="#fff"/></g><g><path d="M250.42 177.27c.07.13-1.34.98-3.15 1.91-1.8.93-3.32 1.57-3.38 1.44-.07-.13 1.34-.98 3.15-1.91 1.8-.92 3.32-1.57 3.38-1.44z" fill="#fff"/></g><g><path d="M236.39 189.46c-.14.01-.35-.93-.46-2.1-.11-1.17-.09-2.13.06-2.15.14-.01.35.93.46 2.1.11 1.18.09 2.14-.06 2.15z" fill="#fff"/></g><g><path d="M220.17 189.74c-.11.08-.78-.78-1.07-2.06-.3-1.28-.08-2.34.05-2.32.15.01.17 1.02.46 2.2.27 1.19.69 2.1.56 2.18z" fill="#fff"/></g><g><path d="M248.03 195.67c.04.14-1.09.63-2.54 1.1-1.45.47-2.65.74-2.7.6-.04-.14 1.09-.63 2.54-1.1 1.45-.46 2.65-.73 2.7-.6z" fill="#fff"/></g><g><path d="M260.05 199.79c-.14.03-.41-.77-.61-1.79s-.24-1.86-.1-1.89c.14-.03.41.77.61 1.79.2 1.01.25 1.86.1 1.89z" fill="#fff"/></g><g><path d="M261.6 185.79c-.13.06-.69-.9-1.26-2.14-.56-1.24-.91-2.3-.78-2.36.13-.06.69.9 1.26 2.14.56 1.24.91 2.3.78 2.36z" fill="#fff"/></g><g><path d="M266.28 170.51c.08.12-.85.82-2.06 1.57-1.21.74-2.25 1.24-2.33 1.12-.08-.12.85-.82 2.06-1.57 1.21-.74 2.26-1.25 2.33-1.12z" fill="#fff"/></g><g><path d="M266.55 161.74c-.13.06-.7-.93-1.06-2.29-.36-1.36-.35-2.51-.21-2.52.15-.01.36 1.07.71 2.39.35 1.3.7 2.36.56 2.42z" fill="#fff"/></g><g><path d="M271.34 141.6c.08.12-1.02 1.07-2.46 2.13-1.44 1.06-2.68 1.82-2.77 1.71-.08-.12 1.02-1.07 2.46-2.13 1.44-1.07 2.68-1.83 2.77-1.71z" fill="#fff"/></g><g><path d="M272.21 135.29c-.08.11-1.02-.46-1.83-1.52s-1.11-2.12-.98-2.17c.14-.06.63.86 1.4 1.85.75 1.01 1.5 1.72 1.41 1.84z" fill="#fff"/></g><g><path d="M279.54 149.14c-.14-.03-.01-1.44.3-3.16.31-1.72.68-3.09.82-3.07.14.03.01 1.44-.3 3.16-.31 1.72-.68 3.09-.82 3.07z" fill="#fff"/></g><g><path d="M284.09 158.5c-.05.13-1.26-.2-2.71-.74s-2.58-1.09-2.53-1.23c.05-.13 1.26.2 2.71.74 1.45.55 2.59 1.1 2.53 1.23z" fill="#fff"/></g><g><path d="M282.92 172.23c-.13.06-.73-.97-1.34-2.31-.61-1.34-1-2.47-.87-2.53.13-.06.73.97 1.34 2.31.61 1.34 1 2.47.87 2.53z" fill="#fff"/></g><g><path d="M297.97 164.57c.1.11-1.06 1.24-2.38 2.71-1.33 1.47-2.33 2.73-2.45 2.65-.12-.08.71-1.5 2.06-2.99 1.36-1.51 2.69-2.48 2.77-2.37z" fill="#fff"/></g><g><path d="M307.29 166.7c-.11.1-1.08-.8-2.18-2.01-1.1-1.21-1.9-2.27-1.79-2.36.11-.1 1.08.8 2.18 2.01 1.09 1.2 1.89 2.26 1.79 2.36z" fill="#fff"/></g><g><path fill="#5d9ea6" d="M326.68 141.05v-5.65h-2.97l4.56-6.39 4.56 6.39h-2.86v5.65z"/></g><g><path fill="#5d9ea6" d="M320.6 145.87v-3.95h-2.08l3.2-4.47 3.19 4.47h-2v3.95z"/></g><g><path d="M282.43 298.88s-.17.04-.5.08c-.35.04-.84.11-1.47.18-.65.07-1.45.17-2.39.34-.94.15-2.03.32-3.24.6-4.84 1.02-11.86 3.02-19.69 7.42-3.9 2.2-7.97 5.01-11.94 8.52-3.93 3.55-7.78 7.79-11.06 12.81-6.63 9.96-11.28 22.98-11.38 37.1l-.01.88-.47-.74c-2.43-3.83-5.78-7.34-9.64-10.29-12.59-9.45-28.43-12.92-41.81-10.64-.83.17-1.66.35-2.48.52-.41.07-.82.18-1.21.32l-1.19.38c-.78.27-1.59.46-2.34.79-.75.32-1.5.64-2.24.96-.75.29-1.45.68-2.16 1.05-.7.37-1.4.74-2.09 1.11-.66.42-1.32.84-1.97 1.25-.65.41-1.3.81-1.9 1.28-4.92 3.55-8.85 7.7-11.92 11.84-3.08 4.15-5.31 8.28-7.02 12-.4.94-.79 1.85-1.17 2.73-.36.88-.65 1.75-.95 2.58-.64 1.64-1.04 3.2-1.48 4.58-.76 2.79-1.28 4.97-1.54 6.47-.14.73-.26 1.3-.33 1.7-.08.38-.13.58-.13.58s.02-.2.08-.59c.07-.4.16-.97.28-1.71.23-1.51.71-3.71 1.45-6.51.42-1.39.81-2.95 1.44-4.6.3-.83.59-1.7.94-2.6.37-.88.76-1.8 1.16-2.75 1.69-3.76 3.91-7.92 6.99-12.1 3.07-4.18 7.01-8.38 11.96-11.97.6-.48 1.25-.88 1.91-1.3l1.98-1.26c.7-.37 1.4-.75 2.11-1.12.71-.38 1.41-.77 2.17-1.07.75-.32 1.5-.65 2.26-.97.75-.34 1.57-.53 2.36-.81l1.2-.39c.4-.14.81-.25 1.23-.33.83-.18 1.67-.35 2.51-.53 13.54-2.33 29.48 1.15 42.21 10.7 3.9 2.98 7.29 6.54 9.76 10.43l-.48.14c.11-14.23 4.82-27.34 11.51-37.35 3.32-5.05 7.21-9.31 11.17-12.86 4.01-3.52 8.11-6.32 12.05-8.52 7.89-4.38 14.96-6.34 19.82-7.3 1.22-.27 2.31-.42 3.26-.56.94-.16 1.75-.25 2.4-.3.64-.06 1.12-.1 1.48-.14.34-.03.51-.03.51-.03z" fill="#263238"/></g></g><g><path fill="#e3a24e" d="M373.71 307.6h68.25v172.67h-68.25z"/><path d="M373.71 307.6h68.25v172.67h-68.25z" opacity=".3"/><path fill="#e3a24e" d="M357.03 307.6h68.25v172.67h-68.25z"/><g opacity=".4" fill="#fff"><path d="M388.43 376.71v9.55h-1.81l-4.76-5.8v5.8h-2.18v-9.55h1.83l4.75 5.8v-5.8h2.17zM389.89 378.28c0-1.31 1.09-2.25 2.59-2.25 1.5 0 2.58.94 2.58 2.25 0 1.32-1.08 2.26-2.58 2.26s-2.59-.94-2.59-2.26zm3.72 0c0-.7-.48-1.12-1.13-1.12-.67 0-1.15.42-1.15 1.12 0 .7.48 1.13 1.15 1.13.65 0 1.13-.44 1.13-1.13zM404.49 384.25h-1.56v2h-2.16v-2h-5.14v-1.49l4.5-6.06h2.32l-4.17 5.74h2.56v-1.79h2.09v1.79h1.56v1.81z"/></g><path d="M441.96 315.52c.03.02-.17.38-.56 1.02-.46.72-1.02 1.61-1.69 2.66-1.44 2.23-3.47 5.3-5.74 8.67s-4.35 6.4-5.88 8.57c-1.53 2.17-2.52 3.49-2.6 3.43-.01-.01.04-.1.14-.27.14-.22.28-.46.45-.73.46-.72 1.03-1.6 1.71-2.65 1.46-2.23 3.49-5.29 5.76-8.65 2.27-3.37 4.34-6.4 5.86-8.58.72-1.01 1.33-1.87 1.82-2.57.44-.6.7-.92.73-.9zM441.96 346.62c.03.02-.17.38-.56 1.02-.46.72-1.02 1.61-1.69 2.66-1.44 2.23-3.47 5.3-5.74 8.67s-4.35 6.4-5.88 8.57c-1.53 2.17-2.52 3.49-2.6 3.43-.01-.01.04-.1.14-.27.14-.22.28-.46.45-.73.46-.72 1.03-1.6 1.71-2.65 1.46-2.23 3.49-5.29 5.76-8.65 2.27-3.37 4.34-6.4 5.86-8.58.72-1.01 1.33-1.87 1.82-2.57.44-.6.7-.92.73-.9zM441.96 377.71c.03.02-.17.38-.56 1.02-.46.72-1.02 1.61-1.69 2.66-1.44 2.23-3.47 5.3-5.74 8.67s-4.35 6.4-5.88 8.57c-1.53 2.17-2.52 3.49-2.6 3.43-.01-.01.04-.1.14-.27.14-.22.28-.46.45-.73.46-.72 1.03-1.6 1.71-2.65 1.46-2.23 3.49-5.29 5.76-8.65 2.27-3.37 4.34-6.4 5.86-8.58.72-1.01 1.33-1.87 1.82-2.57.44-.59.7-.92.73-.9zM441.96 408.81c.03.02-.17.38-.56 1.02-.46.72-1.02 1.61-1.69 2.66-1.44 2.23-3.47 5.3-5.74 8.67s-4.35 6.4-5.88 8.57c-1.53 2.17-2.52 3.49-2.6 3.43-.01-.01.04-.1.14-.27.14-.22.28-.46.45-.73.46-.72 1.03-1.6 1.71-2.65 1.46-2.23 3.49-5.29 5.76-8.65 2.27-3.37 4.34-6.4 5.86-8.58.72-1.01 1.33-1.87 1.82-2.57.44-.6.7-.92.73-.9zM441.96 439.91c.03.02-.17.38-.56 1.02-.46.72-1.02 1.61-1.69 2.66-1.44 2.23-3.47 5.3-5.74 8.67s-4.35 6.4-5.88 8.57c-1.53 2.17-2.52 3.49-2.6 3.43-.01-.01.04-.1.14-.27.14-.22.28-.46.45-.73.46-.72 1.03-1.6 1.71-2.65 1.46-2.23 3.49-5.29 5.76-8.65 2.27-3.37 4.34-6.4 5.86-8.58.72-1.01 1.33-1.87 1.82-2.57.44-.6.7-.92.73-.9zM441.96 471.01c.12.08-1.27 2.36-3.11 5.1-1.84 2.74-3.43 4.89-3.55 4.81-.12-.08 1.27-2.36 3.11-5.1 1.84-2.74 3.43-4.89 3.55-4.81zM278.54 339.86h68.25v140.41h-68.25z" fill="#e3a24e"/><path d="M278.54 339.86h68.25v140.41h-68.25z" opacity=".3"/><path fill="#e3a24e" d="M261.86 339.86h68.25v140.41h-68.25z"/><g opacity=".4" fill="#fff"><path d="M293.32 395.22v9.62h-1.81l-4.76-5.84v5.84h-2.18v-9.62h1.83l4.75 5.84v-5.84h2.17zM294.78 396.8c0-1.32 1.09-2.27 2.59-2.27 1.5 0 2.58.95 2.58 2.27 0 1.33-1.08 2.28-2.58 2.28-1.5.01-2.59-.94-2.59-2.28zm3.73 0c0-.7-.48-1.13-1.13-1.13-.67 0-1.15.43-1.15 1.13s.48 1.14 1.15 1.14c.65.01 1.13-.43 1.13-1.14zM307.85 401.9c0 1.62-1.24 3.11-3.96 3.11-1.34 0-2.71-.37-3.64-1.03l.86-1.71c.72.55 1.73.87 2.73.87 1.1 0 1.79-.45 1.79-1.24 0-.73-.53-1.18-1.79-1.18h-1.01v-1.47l1.96-2.24h-4.07v-1.79h6.68v1.44l-2.16 2.47c1.74.29 2.61 1.36 2.61 2.77z"/></g><path d="M346.79 345.48c.03.02-.17.38-.56 1.02-.46.73-1.02 1.62-1.69 2.68-1.44 2.25-3.47 5.34-5.74 8.74-2.27 3.4-4.35 6.45-5.88 8.64-1.53 2.19-2.52 3.52-2.6 3.46-.01-.01.04-.1.14-.27.13-.22.28-.46.45-.73l1.71-2.67c1.46-2.24 3.49-5.33 5.76-8.73 2.27-3.39 4.34-6.45 5.86-8.65.72-1.02 1.33-1.89 1.82-2.59.44-.6.7-.92.73-.9zM346.79 376.84c.03.02-.17.38-.56 1.02-.46.73-1.02 1.62-1.69 2.68-1.44 2.25-3.47 5.34-5.74 8.74-2.27 3.4-4.35 6.45-5.88 8.64-1.53 2.19-2.52 3.52-2.6 3.46-.01-.01.04-.1.14-.27.13-.22.28-.46.45-.73l1.71-2.67c1.46-2.24 3.49-5.33 5.76-8.73 2.27-3.39 4.34-6.45 5.86-8.65.72-1.02 1.33-1.89 1.82-2.59.44-.6.7-.92.73-.9zM346.79 408.2c.03.02-.17.38-.56 1.02-.46.73-1.02 1.62-1.69 2.68-1.44 2.25-3.47 5.34-5.74 8.74-2.27 3.4-4.35 6.45-5.88 8.64-1.53 2.19-2.52 3.52-2.6 3.46-.01-.01.04-.1.14-.27.13-.22.28-.46.45-.73l1.71-2.67c1.46-2.24 3.49-5.33 5.76-8.73 2.27-3.39 4.34-6.45 5.86-8.65.72-1.02 1.33-1.89 1.82-2.59.44-.59.7-.92.73-.9zM346.79 439.56c.03.02-.17.38-.56 1.02-.46.73-1.02 1.62-1.69 2.68-1.44 2.25-3.47 5.34-5.74 8.74-2.27 3.4-4.35 6.45-5.88 8.64-1.53 2.19-2.52 3.52-2.6 3.46-.01-.01.04-.1.14-.27.13-.22.28-.46.45-.73l1.71-2.67c1.46-2.24 3.49-5.33 5.76-8.73 2.27-3.39 4.34-6.45 5.86-8.65.72-1.02 1.33-1.89 1.82-2.59.44-.59.7-.92.73-.9zM346.79 470.92c.12.08-1.27 2.38-3.11 5.14-1.84 2.76-3.43 4.93-3.55 4.85-.12-.08 1.27-2.38 3.11-5.14 1.84-2.75 3.43-4.93 3.55-4.85zM182.87 376.84h68.25v103.43h-68.25z" fill="#e3a24e"/><path d="M182.87 376.84h68.25v103.43h-68.25z" opacity=".3"/><path fill="#e3a24e" d="M166.19 376.84h68.25v103.43h-68.25z"/><g opacity=".4" fill="#fff"><path d="M197.65 417.78v9.62h-1.81l-4.76-5.84v5.84h-2.18v-9.62h1.83l4.75 5.84v-5.84h2.17zM199.11 419.36c0-1.32 1.09-2.27 2.59-2.27 1.5 0 2.58.95 2.58 2.27 0 1.33-1.08 2.28-2.58 2.28s-2.59-.95-2.59-2.28zm3.72 0c0-.7-.48-1.13-1.13-1.13-.67 0-1.15.43-1.15 1.13s.48 1.14 1.15 1.14c.65 0 1.13-.44 1.13-1.14zM212.54 425.59v1.81h-7.22v-1.44l3.68-3.51c.85-.81 1-1.31 1-1.77 0-.76-.52-1.2-1.53-1.2-.82 0-1.51.32-1.98.96l-1.61-1.04c.74-1.09 2.07-1.79 3.79-1.79 2.13 0 3.55 1.1 3.55 2.85 0 .93-.26 1.79-1.6 3.04l-2.2 2.09h4.12z"/></g><path d="M251.11 376.84c.03.02-.17.38-.56 1.02-.46.73-1.02 1.62-1.69 2.68-1.44 2.25-3.47 5.34-5.74 8.74-2.27 3.4-4.35 6.45-5.88 8.64-1.53 2.19-2.52 3.52-2.6 3.46-.01-.01.04-.1.14-.27.13-.22.28-.46.45-.73l1.71-2.67c1.46-2.24 3.49-5.33 5.75-8.73 2.27-3.39 4.34-6.45 5.86-8.65.72-1.02 1.33-1.89 1.82-2.59.46-.6.71-.92.74-.9zM251.11 408.2c.03.02-.17.38-.56 1.02-.46.73-1.02 1.62-1.69 2.68-1.44 2.25-3.47 5.34-5.74 8.74-2.27 3.4-4.35 6.45-5.88 8.64-1.53 2.19-2.52 3.52-2.6 3.46-.01-.01.04-.1.14-.27.13-.22.28-.46.45-.73l1.71-2.67c1.46-2.24 3.49-5.33 5.75-8.73 2.27-3.39 4.34-6.45 5.86-8.65.72-1.02 1.33-1.89 1.82-2.59.46-.59.71-.92.74-.9zM251.11 439.56c.03.02-.17.38-.56 1.02-.46.73-1.02 1.62-1.69 2.68-1.44 2.25-3.47 5.34-5.74 8.74-2.27 3.4-4.35 6.45-5.88 8.64-1.53 2.19-2.52 3.52-2.6 3.46-.01-.01.04-.1.14-.27.13-.22.28-.46.45-.73l1.71-2.67c1.46-2.24 3.49-5.33 5.75-8.73 2.27-3.39 4.34-6.45 5.86-8.65.72-1.02 1.33-1.89 1.82-2.59.46-.59.71-.92.74-.9zM251.11 470.92c.12.08-1.27 2.38-3.11 5.14-1.84 2.76-3.43 4.93-3.55 4.85-.12-.08 1.27-2.38 3.11-5.14 1.85-2.75 3.43-4.93 3.55-4.85zM87.19 408.2h68.25v72.07H87.19z" fill="#e3a24e"/><path d="M87.19 408.2h68.25v72.07H87.19z" opacity=".3"/><path fill="#e3a24e" d="M70.51 408.2h68.25v72.07H70.51z"/><g opacity=".4" fill="#fff"><path d="M101.97 438.74v9.62h-1.81l-4.76-5.84v5.84h-2.18v-9.62h1.83l4.75 5.84v-5.84h2.17zM103.43 440.32c0-1.32 1.09-2.27 2.59-2.27 1.5 0 2.58.95 2.58 2.27 0 1.33-1.08 2.28-2.58 2.28s-2.59-.95-2.59-2.28zm3.72 0c0-.7-.48-1.13-1.13-1.13-.67 0-1.15.43-1.15 1.13s.48 1.14 1.15 1.14c.66 0 1.13-.44 1.13-1.14zM113.47 438.74v9.62h-2.21v-7.84h-1.91v-1.79h4.12z"/></g><path d="M155.44 408.2c.03.02-.17.38-.56 1.02-.46.73-1.02 1.62-1.69 2.68-1.44 2.25-3.47 5.34-5.74 8.74-2.27 3.4-4.35 6.45-5.88 8.64-1.53 2.19-2.52 3.52-2.6 3.46-.01-.01.04-.1.14-.27.13-.22.28-.46.45-.73l1.71-2.67c1.46-2.24 3.49-5.33 5.76-8.73 2.27-3.39 4.34-6.45 5.86-8.65.72-1.02 1.33-1.89 1.82-2.59.44-.59.7-.92.73-.9zM155.44 439.56c.03.02-.17.38-.56 1.02-.46.73-1.02 1.62-1.69 2.68-1.44 2.25-3.47 5.34-5.74 8.74-2.27 3.4-4.35 6.45-5.88 8.64-1.53 2.19-2.52 3.52-2.6 3.46-.01-.01.04-.1.14-.27.13-.22.28-.46.45-.73l1.71-2.67c1.46-2.24 3.49-5.33 5.76-8.73 2.27-3.39 4.34-6.45 5.86-8.65.72-1.02 1.33-1.89 1.82-2.59.44-.59.7-.92.73-.9zM155.44 470.92c.12.08-1.27 2.38-3.11 5.14-1.84 2.76-3.43 4.93-3.55 4.85-.12-.08 1.27-2.38 3.11-5.14 1.84-2.75 3.43-4.93 3.55-4.85z" fill="#e3a24e"/></g><g><path d="M474.12 480.28c0 .14-100.35.26-224.11.26-123.8 0-224.13-.12-224.13-.26s100.33-.26 224.13-.26c123.76 0 224.11.11 224.11.26z" fill="#263238"/></g></svg>