<svg xmlns="http://www.w3.org/2000/svg" viewBox="0 0 500 500"><path fill="#e0e0e0" d="M451.22 87.06v65.68h-94.34l-3.4-65.23z"/><path fill="#fff" d="M353.483 152.603v-65.09h94.35v65.09z"/><path d="M448.27 153.05h-95.24V87.07h95.24v65.98zm-94.34-.89h93.45v-64.2h-93.45v64.2z" fill="#e0e0e0"/><path fill="#fff" d="M363.7 95.6h73.91v48.92H363.7z"/><path d="M437.61 95.6s-.13.01-.36.01c-.25 0-.6.01-1.05.01-.94.01-2.3.01-4.06.03-3.55.01-8.71.03-15.23.06-13.03.03-31.48.06-53.2.11l.21-.21c.01 14.95.01 31.51.02 48.91v.01l-.23-.23c27.88.02 53.59.03 73.91.05l-.19.19c.04-14.89.07-27.09.1-35.59.02-4.25.04-7.57.05-9.84.01-1.12.02-1.99.02-2.59-.01-.61.01-.92.01-.92s.01.28.02.86c0 .59.01 1.44.02 2.55.01 2.27.03 5.57.05 9.8.02 8.53.06 20.77.1 35.71v.19h-.19c-20.32.01-46.03.03-73.91.05h-.23V144.52c.01-17.41.01-33.96.02-48.91v-.21h.21c21.78.04 40.28.08 53.34.11 6.5.02 11.64.04 15.18.06 1.74.01 3.09.02 4.02.03.44.01.78.01 1.03.01.23-.02.34-.01.34-.01z" fill="#e0e0e0"/><path d="M353.48 87.33c.04-.05.66.35 1.62 1.05.96.7 2.28 1.69 3.7 2.82 1.42 1.14 2.67 2.21 3.55 3.02.88.81 1.39 1.34 1.35 1.38-.09.1-2.36-1.77-5.19-4.03-2.84-2.26-5.11-4.13-5.03-4.24zM447.83 87.51c.08.1-2.14 1.99-4.96 4.23-2.82 2.23-5.17 3.96-5.25 3.86-.08-.1 2.14-1.99 4.96-4.23 2.81-2.23 5.17-3.96 5.25-3.86z" fill="#e0e0e0"/><path d="M447.75 152.61c-3.51-2.84-7.01-5.68-10.52-8.53" fill="#fff"/><path d="M437.23 144.09c.08-.1 2.5 1.73 5.41 4.08s5.19 4.34 5.11 4.44c-.08.1-2.5-1.73-5.41-4.08-2.9-2.35-5.19-4.34-5.11-4.44z" fill="#e0e0e0"/><g><path d="M353.48 152.61c-.08-.1 2.12-1.97 4.91-4.18s5.12-3.92 5.2-3.82c.08.1-2.12 1.97-4.91 4.18s-5.12 3.92-5.2 3.82z" fill="#e0e0e0"/></g><g><path fill="#e0e0e0" d="M378.705 127.219v-16.38h46.5v16.38z"/></g><g><path d="M190.41 50.24c0 .01-.08-.02-.23-.07-.18-.07-.4-.16-.66-.26-.62-.26-1.46-.61-2.52-1.05-2.23-.95-5.37-2.3-9.24-3.96-7.82-3.41-18.55-8.08-30.41-13.25-.36-.16-.72-.32-1.05-.46h.22c-11.65 4.98-22.15 9.47-29.79 12.74-3.78 1.59-6.84 2.87-9.02 3.79-1.03.42-1.85.76-2.46 1-.56.22-.86.33-.87.32-.01-.02.28-.16.83-.42.6-.27 1.4-.64 2.42-1.1 2.16-.95 5.2-2.29 8.95-3.95 7.62-3.31 18.1-7.85 29.73-12.89l.11-.05.11.05c.33.15.69.3 1.05.46 11.83 5.22 22.54 9.95 30.34 13.39 3.84 1.72 6.96 3.12 9.17 4.12 1.04.48 1.87.86 2.48 1.15.26.12.47.23.64.31.13.08.2.13.2.13z" fill="#e0e0e0"/><path fill="#e0e0e0" d="M42.55 45.88h195.29v146.23H42.55z"/><path fill="#fafafa" d="M49.38 52.68h182.37V186.1H49.38z"/><path d="M89.66 110.97s.19 22.4 1.33 29.23l28.09-1.33s-2.47-22.02-1.52-27.9h-27.9z" fill="#e0e0e0"/><path d="M103.49 114.14s.03-.01.1-.01c.08 0 .18-.01.3-.01.27-.02.66 0 1.17.06.5.08 1.12.22 1.79.53.66.31 1.35.83 1.94 1.54.58.72 1.1 1.62 1.35 2.71.23 1.08.11 2.3-.29 3.47-.2.59-.47 1.17-.79 1.73-.32.57-.63 1.13-.9 1.75-.53 1.23-.95 2.58-1.14 3.99l-.01.09h-.09c-.89.01-1.82.03-2.77.04-1 .02-1.98.03-2.91.05h-.1v-.1c-.05-1.41-.68-2.7-1.35-3.84-.34-.58-.71-1.11-1.05-1.66-.34-.54-.72-1.05-.99-1.61a5.446 5.446 0 01-.44-3.42c.2-1.07.56-2.04 1.08-2.8.53-.76 1.2-1.29 1.83-1.65.64-.35 1.23-.55 1.73-.67.49-.12.88-.17 1.15-.19.13-.01.23-.01.3-.01.06 0 .09 0 .09.01 0 0-.03.01-.1.01-.08.01-.18.02-.3.03-.26.03-.65.09-1.13.22-.48.13-1.07.33-1.69.69-.62.36-1.26.88-1.77 1.63-.5.74-.85 1.7-1.04 2.75-.2 1.04-.1 2.23.44 3.31.26.54.64 1.04.98 1.59.34.54.72 1.08 1.06 1.66.68 1.15 1.33 2.46 1.39 3.94l-.11-.1c.93-.02 1.91-.03 2.91-.05.95-.01 1.89-.03 2.77-.04l-.1.09c.19-1.45.62-2.8 1.16-4.05.27-.62.6-1.21.91-1.77.32-.56.58-1.12.78-1.7.41-1.15.53-2.33.31-3.38-.23-1.04-.74-1.94-1.29-2.65-.58-.7-1.24-1.21-1.88-1.53-.65-.32-1.25-.46-1.75-.55-.5-.07-.89-.1-1.16-.09-.12 0-.22-.01-.3-.01h-.09z" fill="#fff"/><path d="M104.94 129.74s-.01-.03-.02-.09-.02-.15-.04-.26c-.04-.23-.09-.57-.15-1-.13-.87-.31-2.13-.44-3.71-.03-.39-.06-.81-.07-1.24-.01-.43-.03-.88-.01-1.34.03-.46.1-.95.32-1.41.21-.45.57-.87 1.07-1.07.49-.21 1.12-.1 1.53.29.2.2.33.48.33.77 0 .29-.11.57-.29.8-.17.24-.41.42-.68.55-.26.13-.55.21-.83.28-.58.12-1.17.19-1.77.21-.6.01-1.2 0-1.78-.09-.29-.05-.58-.12-.85-.24s-.51-.29-.71-.5c-.2-.21-.35-.47-.41-.75-.07-.28-.02-.58.1-.83.12-.25.33-.47.59-.57a.97.97 0 01.8.04c.24.11.45.3.6.51.15.21.24.46.3.7.12.49.11.97.14 1.43.05.92.09 1.79.13 2.57.08 1.57.14 2.84.19 3.73.02.44.04.78.05 1.01 0 .11.01.2.01.26v.09s0-.03-.01-.09c0-.06-.01-.15-.02-.26-.01-.24-.04-.58-.06-1.01-.05-.88-.12-2.15-.22-3.72-.04-.79-.09-1.65-.14-2.57-.03-.46-.03-.94-.14-1.42-.06-.24-.15-.47-.29-.67-.14-.2-.34-.37-.57-.48a.91.91 0 00-.74-.03 1 1 0 00-.54.53c-.11.24-.15.51-.09.78.06.26.2.51.39.71.38.41.94.63 1.5.72.57.09 1.17.1 1.77.08.6-.02 1.19-.08 1.76-.2.28-.06.56-.14.81-.27.25-.12.48-.3.65-.52.17-.22.27-.49.27-.75.01-.27-.12-.52-.3-.71-.38-.37-.97-.48-1.44-.28-.47.19-.82.6-1.03 1.03-.21.44-.29.92-.31 1.38-.03.46-.01.91 0 1.34.01.43.04.84.07 1.23.12 1.57.3 2.83.41 3.71.06.43.11.77.14 1.01.01.11.03.2.03.26-.02.03-.01.06-.01.06z" fill="#fff"/><path d="M101.24 129.89c.01.01.04.35.07.93.03.68.08 1.49.13 2.43l-.02-.06c.56.65 1.2 1.39 1.89 2.18l-.1-.04c.69-.04 1.42-.08 2.19-.12l-.09.05c.35-.43.72-.87 1.09-1.33.18-.22.37-.45.55-.66l-.03.09c-.03-1.28-.06-2.49-.08-3.6l.12.11c-1.59.02-2.97.03-4.08.05h-1.18c-.3-.02-.45-.02-.46-.03-.01-.01.13-.02.39-.04.34-.02.72-.04 1.15-.06 1.13-.04 2.54-.1 4.16-.16h.12v.12c.03 1.11.07 2.32.11 3.6v.05l-.03.04-.55.67c-.37.45-.74.9-1.09 1.33l-.04.04h-.06c-.76.04-1.5.07-2.19.11h-.06l-.04-.04c-.68-.8-1.3-1.55-1.86-2.21l-.02-.03v-.03c-.01-.97-.02-1.8-.02-2.5.01-.6.01-.91.03-.89z" fill="#fff"/><path d="M106.88 133.05c0 .01-.08-.03-.21-.09s-.32-.14-.57-.22c-.48-.17-1.19-.33-1.97-.3-.79.02-1.48.22-1.95.42-.24.1-.43.19-.55.26-.13.07-.2.11-.2.1 0 0 .06-.05.18-.13s.31-.18.55-.29c.47-.21 1.18-.43 1.97-.45.8-.02 1.51.14 2 .33.24.09.43.18.56.25.13.07.19.12.19.12zM106.88 132.18c0 .01-.08-.03-.21-.09s-.32-.14-.57-.22c-.48-.17-1.19-.32-1.97-.3-.79.02-1.48.22-1.95.42-.24.1-.43.19-.55.26-.13.07-.2.11-.2.1 0 0 .06-.05.18-.13s.31-.18.55-.29c.47-.21 1.18-.43 1.97-.45.8-.02 1.51.14 2 .33.24.09.43.18.56.25.12.07.19.11.19.12zM106.83 131.34c0 .01-.08-.03-.21-.09s-.32-.14-.57-.22c-.48-.17-1.19-.33-1.97-.3-.79.02-1.48.22-1.95.42-.24.1-.43.19-.55.26-.13.07-.2.11-.2.1 0 0 .06-.05.18-.13s.31-.18.55-.29c.47-.21 1.18-.43 1.97-.45.8-.02 1.51.14 2 .33.24.09.43.18.56.25.12.08.19.12.19.12z" fill="#fff"/><g><path d="M58.37 74.35s.19 22.4 1.33 29.23l28.09-1.33s-2.47-22.02-1.52-27.9h-27.9z" fill="#ebebeb"/><path d="M82.04 83.76c.01.15-4.2.53-9.41.84-5.21.31-9.43.44-9.44.29-.01-.15 4.2-.53 9.41-.84 5.2-.31 9.43-.44 9.44-.29zM82.05 88.51c.01.15-4.2.53-9.41.84-5.21.31-9.43.44-9.44.29-.01-.15 4.2-.53 9.41-.84 5.2-.31 9.43-.45 9.44-.29zM77.27 93.16c.01.15-2.39.42-5.35.6-2.97.18-5.38.2-5.39.05-.01-.15 2.39-.42 5.35-.6 2.97-.18 5.38-.2 5.39-.05z" fill="#fff"/></g><g><path d="M57.04 140.25s.19 22.4 1.33 29.23l28.09-1.33s-2.47-22.02-1.52-27.9h-27.9z" fill="#ebebeb"/><path d="M80.71 149.66c.01.15-4.2.53-9.41.84-5.21.31-9.43.44-9.44.29-.01-.15 4.2-.53 9.41-.84 5.2-.32 9.43-.45 9.44-.29zM80.72 154.4c.01.15-4.2.53-9.41.84-5.21.31-9.43.44-9.44.29-.01-.15 4.2-.53 9.41-.84 5.2-.31 9.43-.44 9.44-.29zM75.94 159.06c.01.15-2.39.42-5.35.6-2.97.18-5.38.2-5.39.05-.01-.15 2.39-.42 5.35-.6 2.97-.18 5.38-.2 5.39-.05z" fill="#fff"/></g><g><path fill="#ebebeb" d="M133.81 80.29l2.78 64.6 80.65.97-3.62-64.72z"/><path fill="#f5f5f5" d="M132.88 79.83h80.11v60.49h-80.11z"/><path d="M212.98 140.32s-.02-.39-.02-1.12c-.01-.75-.01-1.83-.03-3.23-.01-2.84-.03-6.97-.06-12.24-.03-10.55-.07-25.64-.12-43.9l.23.23c-22.65.01-50.29.03-80.1.05h-.01l.28-.28c-.01 21.75-.02 42.35-.03 60.49l-.25-.25 57.78.12c7.04.03 12.61.05 16.43.07 1.9.01 3.36.02 4.37.03.49.01.86.01 1.13.01.27.01.4.02.4.02s-.12.01-.36.01c-.26 0-.63.01-1.1.01-1 .01-2.44.02-4.32.03-3.81.02-9.36.04-16.38.07l-57.94.12h-.25v-.25c-.01-18.14-.02-38.73-.03-60.49v-.28H132.89c29.81.02 57.45.04 80.1.05h.23v.23c-.05 18.32-.09 33.46-.12 44.04-.02 5.25-.04 9.36-.06 12.19-.01 1.38-.02 2.45-.03 3.18-.01.73-.03 1.09-.03 1.09z" fill="#e0e0e0"/><path fill="#f5f5f5" d="M142.54 92.64h32.47v40.87h-32.47z"/><path d="M175.01 133.51s-.01-.07-.01-.21c0-.15-.01-.34-.01-.58-.01-.54-.02-1.28-.03-2.23-.02-1.97-.04-4.81-.07-8.38l-.12-29.46.25.25c-9.68.01-20.75.02-32.47.03-.07.06.52-.52.27-.27v11.12c0 3.63-.01 7.17-.01 10.6l-.03 19.14-.23-.23c9.74.05 17.83.09 23.51.12 2.82.03 5.04.05 6.6.06.74.01 1.32.02 1.75.03.39-.01.6.01.6.01.01.01-.18.02-.57.03-.42.01-.98.02-1.71.03-1.54.01-3.75.03-6.55.06l-23.66.12h-.23v-.23l-.03-19.14c0-3.43-.01-6.98-.01-10.6v-5.51V92.66c-.25.24.33-.34.28-.28 11.72.01 22.79.02 32.47.03h.25v.25l-.12 29.62c-.03 3.55-.05 6.37-.07 8.33-.01.93-.02 1.66-.03 2.19-.01.23-.01.41-.01.55 0 .11 0 .17-.01.16z" fill="#e0e0e0"/><path fill="#f5f5f5" d="M143.78 83.29h62.23v5.89h-62.23z"/><path d="M206.02 89.18c-.01-.01-.01-.14-.02-.4-.01-.29-.02-.66-.03-1.14-.01-1.02-.04-2.48-.06-4.34l.11.11c-10.5.1-34.42.16-62.23.16.55-.55.15-.15.28-.27V89.18l-.27-.27c17.4.05 32.91.09 44.11.12 5.58.03 10.09.06 13.24.08 1.54.02 2.74.03 3.6.04.39.01.7.01.94.02.21 0 .32 0 .33.01.01.01-.09.01-.3.02-.23 0-.53.01-.91.02-.84.01-2.03.02-3.54.04-3.13.02-7.62.05-13.18.08-11.25.03-26.83.07-44.31.12h-.27v-.28-2.89V83.29c.12-.12-.28.27.28-.28 27.81 0 51.74.07 62.23.16h.11v.11c-.03 1.89-.05 3.37-.06 4.41-.01.47-.02.84-.03 1.12-.01.25-.02.38-.02.37z" fill="#e0e0e0"/><path fill="#f5f5f5" d="M178.99 92.64h27.03v24.63h-27.03z"/><path d="M206.02 117.27c-.01-.01-.02-.17-.03-.48-.01-.34-.02-.78-.03-1.34-.01-1.2-.04-2.89-.06-5.02l-.12-17.8.23.23c-7.81.01-17.09.03-27.03.04l.27-.27V99.25c0 2.17 0 4.29-.01 6.35-.01 4.13-.02 8.05-.02 11.66l-.24-.24 19.5.12c2.34.03 4.21.05 5.53.06.61.01 1.1.02 1.48.03.34.03.52.03.53.04.01.01-.15.02-.47.03-.36.01-.83.02-1.43.03-1.31.02-3.15.04-5.48.06l-19.65.12h-.24v-.24c-.01-3.61-.02-7.53-.02-11.66 0-2.07 0-4.19-.01-6.35v-3.28V92.64c-.25.24.33-.34.28-.28 9.94.01 19.22.03 27.03.04h.24v.23l-.12 17.95c-.03 2.11-.05 3.78-.06 4.97-.01.54-.02.96-.03 1.29-.02.3-.03.44-.04.43z" fill="#e0e0e0"/><g><path fill="#f5f5f5" d="M178.99 121.13h27.03v12.38h-27.03z"/><path d="M206.02 133.51c-.01-.01-.03-.32-.04-.9-.01-.62-.03-1.45-.05-2.49-.03-2.18-.06-5.24-.11-8.99l.2.2-27.03.08c-.25.25.33-.34.27-.27V127.52c0 2.07-.01 4.08-.01 6l-.26-.26c7.8.05 14.5.09 19.33.12 2.36.03 4.26.05 5.63.07.62.01 1.13.02 1.52.03.35.01.54.02.55.03.01.01-.16.02-.48.03-.38.01-.87.02-1.47.03-1.36.02-3.24.04-5.57.07-4.87.03-11.64.07-19.5.12h-.26v-.26c0-1.92-.01-3.93-.01-6v-3.15V121.12l.28-.28 27.03.08h.2v.2c-.04 3.8-.08 6.9-.11 9.12-.02 1.02-.04 1.83-.05 2.44-.03.56-.05.84-.06.83z" fill="#e0e0e0"/></g><g><path d="M174.21 92.71c-10.05 13.89-21.62 26.91-31.67 40.8" fill="#fff"/><path d="M142.54 133.51c-.02-.01.08-.17.27-.46.23-.34.51-.75.85-1.24.74-1.08 1.85-2.61 3.25-4.48 2.79-3.75 6.78-8.83 11.25-14.39 4.47-5.56 8.51-10.59 11.38-14.28 1.39-1.8 2.54-3.27 3.39-4.37.37-.47.68-.86.93-1.18.22-.27.34-.4.36-.39.02.01-.08.17-.27.46-.23.34-.51.75-.85 1.24-.74 1.08-1.85 2.61-3.25 4.48-2.79 3.75-6.78 8.83-11.26 14.39-4.47 5.55-8.51 10.59-11.37 14.28-1.39 1.8-2.54 3.27-3.39 4.37-.37.47-.68.86-.93 1.18-.22.27-.34.4-.36.39z" fill="#e0e0e0"/></g><g><path fill="#fff" d="M142.54 92.64l32.47 40.87"/><path d="M175.01 133.51c-.12.09-7.49-8.98-16.45-20.26-8.97-11.29-16.14-20.51-16.02-20.61.12-.09 7.48 8.98 16.45 20.26 8.97 11.29 16.14 20.52 16.02 20.61z" fill="#e0e0e0"/></g><g><path d="M136.59 92.73c0 2.81-2.27 5.08-5.08 5.08s-5.08-2.27-5.08-5.08 2.27-5.08 5.08-5.08 5.08 2.27 5.08 5.08z" fill="#e0e0e0"/></g><g><path d="M219.68 80.4c0 2.81-2.27 5.08-5.08 5.08s-5.08-2.27-5.08-5.08 2.27-5.08 5.08-5.08 5.08 2.27 5.08 5.08z" fill="#e0e0e0"/></g></g></g><g><path d="M367.1 432.66v22.77h-3.8v2.47h3.8v15.24h71.07v-13.87h-5.26v-3.02h5.26v-4.53h2.34v-2.06h-2.78v-17.01H367.1z" fill="#f5f5f5"/><path fill="#e0e0e0" d="M419.3 432.73v40.16h18.87v-13.86h-5.26v-2.77l5.26.09v-4.53h2.39l-.05-2.34-2.78-.07v-16.75z"/><path d="M420.64 457.58c0 .14-12.86.25-28.72.25-15.87 0-28.72-.11-28.72-.25s12.86-.25 28.72-.25 28.72.11 28.72.25zM420.64 455.27c0 .14-12.86.25-28.72.25-15.87 0-28.72-.11-28.72-.25s12.86-.25 28.72-.25c15.86-.01 28.72.11 28.72.25zM424.33 449.04c0 .14-12.86.25-28.72.25-15.87 0-28.72-.11-28.72-.25s12.86-.25 28.72-.25 28.72.11 28.72.25zM424.69 466c0 .14-12.86.25-28.72.25-15.87 0-28.72-.11-28.72-.25s12.86-.25 28.72-.25 28.72.12 28.72.25z" fill="#e0e0e0"/></g><g><path d="M152.52 360.41h54.22c3.82 0 6.91-3.09 6.91-6.91v-16.7c0-6.43-5.21-11.64-11.64-11.64h-49.89l.4 35.25zM205.83 370.92H99.22a5.25 5.25 0 110-10.5h106.61a5.25 5.25 0 110 10.5z" fill="#ebebeb"/><path d="M77.49 220.44l58.65-1.04 37.23 140.7-79.41.8-29.92-123.34c-2.12-8.72 4.48-17.12 13.45-17.12z" fill="#e0e0e0"/><path fill="#ebebeb" d="M106.71 370.92L89.16 472.9h4.8l23.08-101.98z"/><path fill="#e0e0e0" d="M148.08 370.92L129.43 472.9h4.81l24.17-101.98z"/><path fill="#ebebeb" d="M193.84 370.92l20.8 101.98h-4.81L183.5 370.92z"/><g><path d="M129.43 219.4l29.02 140.85h22.26L157.44 235.8c-1.76-9.5-10.05-16.39-19.71-16.39h-8.3z" fill="#ebebeb"/></g></g><g><path d="M456.62 473.46c0 .14-92.51.26-206.61.26-114.13 0-206.63-.12-206.63-.26s92.49-.26 206.63-.26c114.1 0 206.61.11 206.61.26z" fill="#263238"/></g><g><path fill="#f5a046" d="M194.53 473.74h-76.46l5.78-55.65 70.68-.46z"/><path d="M194.53 473.74h-76.46l5.78-55.65 70.68-.46z" opacity=".4"/><path fill="#f5a046" d="M129.22 417.63h76.46v56.11h-76.46z"/><path d="M129.22 417.63h76.46v56.11h-76.46z" opacity=".2"/><path d="M206.32 444.8c0 .14-17.2.26-38.42.26-21.22 0-38.42-.12-38.42-.26s17.2-.26 38.42-.26c21.22 0 38.42.11 38.42.26z" fill="#263238"/><path d="M142.84 450.2c-.14 0-.26-1.88-.26-4.2 0-2.32.12-4.2.26-4.2s.26 1.88.26 4.2c0 2.32-.12 4.2-.26 4.2zM195.97 449.9c-.14 0-.26-1.68-.26-3.75 0-2.07.12-3.75.26-3.75s.26 1.68.26 3.75c0 2.07-.12 3.75-.26 3.75zM179.16 417.92c-.05 0-.01-.6-.19-1.66-.17-1.05-.62-2.57-1.69-4.15-1.06-1.58-2.76-3.19-5.05-4.24-2.28-1.06-5.08-1.59-7.99-1.51-2.92.07-5.68.69-7.95 1.79-2.28 1.09-4.01 2.65-5.1 4.21-1.11 1.55-1.65 3.04-1.87 4.08-.24 1.05-.25 1.65-.3 1.65-.02 0-.03-.15-.03-.44 0-.29.03-.71.12-1.25.17-1.07.67-2.62 1.77-4.25 1.09-1.63 2.86-3.29 5.19-4.43 2.33-1.16 5.17-1.81 8.15-1.88 2.98-.08 5.86.47 8.21 1.6 2.36 1.11 4.11 2.81 5.16 4.47 1.07 1.66 1.47 3.24 1.59 4.32.06.54.06.97.04 1.26-.02.28-.04.43-.06.43z" fill="#263238"/></g><g><path d="M150.48 201.2c3.56-1.84 7.76-2.08 11.72-1.42 2.13.35 4.34.99 5.79 2.58 1.45 1.6 1.72 4.41.06 5.78-.99.82-2.37.94-3.65.93-3.1-.04-6.54-.58-9.01 1.28-1.41 1.06-2.35 2.83-4.04 3.35-1.65.51-3.52-.46-4.39-1.95-.88-1.49-.91-3.35-.5-5.03 0 0 .43-3.67 4.02-5.52zM142.32 185.43c2.18 3.11 6.42 2.08 8.38.18 1.96-1.9 2.79-4.65 3.55-7.28 1.73-6 3.47-12.3 2.18-18.41-.38-1.83-1.07-3.65-2.35-5-1.28-1.36-3.26-2.16-5.06-1.68-2.14.56-3.46 2.66-4.42 4.65a44.02 44.02 0 00-4.34 18.83c-.01 3.03.34 6.21 2.06 8.71M136.33 189.9c2.37-2.81 2.82-6.91 1.76-10.42-1.05-3.52-3.43-6.51-6.17-8.96-3.22-2.87-6.99-5.1-11.06-6.52-1.6-.56-3.29-1.01-4.97-.84-1.69.16-3.39 1.02-4.17 2.52-1.16 2.22-.05 4.91 1.16 7.11 2.13 3.87 4.56 7.57 7.26 11.06 2.18 2.81 4.67 5.57 7.99 6.84 3.32 1.27 6.76 1.12 8.52-1.18" fill="#1f9ca5"/><path d="M142.17 232.4c.04 0 .11-.5.2-1.41.1-1.03.23-2.32.38-3.86.18-1.62.42-3.56.87-5.66s1.15-4.38 2.06-6.68c.94-2.29 2.08-4.38 3.41-6.05 1.32-1.68 2.87-2.89 4.31-3.59 1.44-.71 2.74-1 3.63-1.13.9-.09 1.41-.16 1.41-.2 0-.04-.51-.05-1.43-.02-.92.06-2.27.29-3.79.99-1.53.68-3.16 1.91-4.55 3.62-1.4 1.7-2.58 3.83-3.54 6.17-.92 2.35-1.61 4.65-2.04 6.79-.43 2.14-.62 4.1-.75 5.73a76.82 76.82 0 00-.19 3.88c-.03.91-.02 1.42.02 1.42z" fill="#263238"/><path d="M142.43 229.43c.02 0 .03-.23.04-.66 0-.49 0-1.11-.01-1.88 0-1.63 0-3.99.08-6.9.14-5.82.65-12.09 1.61-20.92.92-8.31 2.15-17.97 3.45-24.26.28-1.43.56-2.72.82-3.84.25-1.13.47-2.1.67-2.89.18-.74.32-1.35.44-1.82.09-.42.13-.64.11-.65-.02-.01-.1.21-.23.62l-.54 1.8c-.24.78-.49 1.75-.77 2.87-.29 1.12-.6 2.41-.91 3.83-1.29 5.7-2.65 13.66-3.62 22.51-.97 8.85-1.41 16.91-1.45 22.75-.03 2.92.03 5.28.1 6.91.05.76.08 1.38.11 1.88.06.42.08.65.1.65z" fill="#263238"/><path d="M142.47 213.88c.04 0 .03-.7-.01-1.96-.07-1.26-.25-3.08-.6-5.31-.38-2.23-.9-4.87-1.73-7.74-.36-1.31-1.2-4.46-3.24-9.16-2.68-6.37-6.33-11.58-9.51-14.8-.74-.86-1.57-1.47-2.24-2.08-.34-.29-.65-.58-.96-.81-.31-.21-.6-.41-.87-.6-1.04-.71-1.63-1.09-1.65-1.06-.09.13 2.34 1.56 5.41 4.83 3.06 3.26 6.61 8.43 9.27 14.75 1.49 3.43 2.52 6.48 3.26 9.07.85 2.84 1.41 5.46 1.84 7.66.4 2.21.64 4.01.78 5.26.13 1.26.21 1.95.25 1.95zM127.45 241.31l1.55 21.34h27.42l1.56-21.34zM124.8 232.89h36.45v8.41H124.8z" fill="#263238"/><g><path fill="#455a64" d="M124.8 261.83v2.33h35.85v-2.33z"/></g><g><path fill="#455a64" d="M128.19 268.27l-1.68-4.11h32.83l-1.96 4.11z"/></g><g><path d="M157.47 248.28c.01.01-.04.07-.13.2-.11.14-.24.32-.41.54-.39.5-.92 1.18-1.6 2.04l-.07.09-.07-.1c-1-1.39-2.35-3.24-3.92-5.43h.23c-1.17 1.65-2.47 3.49-3.86 5.47l-.12.17-.14-.16c-1.43-1.7-2.97-3.54-4.58-5.45h.26c-.08.1-.17.21-.25.32l-4.1 5.14-.14.17-.13-.18c-1.39-1.97-2.69-3.81-3.87-5.47l.22.01c-1.9 2.17-3.52 4.01-4.76 5.42l-.08.1-.06-.11c-.63-1.05-1.13-1.89-1.49-2.5-.16-.27-.28-.49-.38-.67-.08-.15-.12-.23-.12-.24.01 0 .06.07.16.21.11.17.25.38.42.64.38.6.91 1.42 1.56 2.46l-.15-.01c1.22-1.43 2.81-3.29 4.68-5.49l.12-.14.11.15c1.19 1.65 2.5 3.49 3.9 5.44l-.26-.01c1.3-1.63 2.67-3.36 4.09-5.14.09-.11.17-.22.25-.32l.13-.16.13.16c1.6 1.92 3.15 3.76 4.57 5.46l-.26.01c1.41-1.97 2.72-3.8 3.9-5.44l.11-.16.11.16c1.55 2.21 2.86 4.08 3.84 5.49h-.14l1.66-1.99c.18-.21.33-.38.44-.51.14-.12.19-.17.2-.17z" fill="#e0e0e0"/></g><g><path d="M158.36 241.17c0 .09-6.87.17-15.34.17-8.48 0-15.34-.08-15.34-.17 0-.09 6.87-.17 15.34-.17 8.47-.01 15.34.07 15.34.17z" fill="#455a64"/></g><g><path d="M159.75 264.39c0 .09-7.47.17-16.67.17-9.21 0-16.68-.08-16.68-.17 0-.09 7.46-.17 16.68-.17 9.2 0 16.67.08 16.67.17z" fill="#263238"/></g></g><g><path fill="#263238" d="M381.879 268.743h-80.28v-3.9h80.28z"/><path fill="#263238" d="M394.32 268.74l15.06-56.42H346.7l-13.64 56.42z"/><path fill="#455a64" d="M336.82 264.47h55.99l13.04-49.55h-56.29z"/><path d="M393.2 264.97h-57.03l13-50.55h57.32l-13.29 50.55zm-55.74-1h54.97l12.77-48.55h-55.25l-12.49 48.55z" fill="#263238"/><g><path fill="#455a64" d="M136.15 279.7h4.05v193.56h-4.05z"/><path fill="#263238" d="M140.21 280.25h4.05v193h-4.05z"/><path fill="#455a64" d="M385.92 279.7h4.05v193.56h-4.05z"/><path fill="#263238" d="M389.97 280.25h4.05v193h-4.05z"/><path fill="#455a64" d="M89.16 268.45h361.43v15.88H89.16z"/><g><path fill="#455a64" d="M252.38 284.33h135.57v26.28H252.38z"/></g><g><path d="M326.21 295.65c0 1.67-1.35 3.02-3.02 3.02s-3.02-1.35-3.02-3.02 1.35-3.02 3.02-3.02c1.66 0 3.02 1.35 3.02 3.02z" fill="#263238"/></g></g><g><path d="M417.48 284.33c0 .14-46.97.26-104.9.26-57.95 0-104.91-.12-104.91-.26s46.96-.26 104.91-.26c57.93 0 104.9.12 104.9.26z" fill="#263238"/></g></g><g><path d="M292.38 97.52c.54 0 7.85 1.22 7.85 1.22l9.88 12.46 1.49 2.36-13.34 8.52-5.89-8.72-5.01-3.25s2.17-1.9 5.28-.54c3.11 1.35 6.23 1.22 6.23 1.22l-1.76-5.01-5.42-1.08.69-7.18z" fill="#eb996e"/><path d="M293.02 88.8c.88-.22 1.76.35 1.91 1.25.81 5.11 3.26 20.49 4.03 25.03.13.74-.33 1.45-1.06 1.66L286.07 120c-.86.24-1.74-.34-1.85-1.23l-3.18-25.53c-.1-.77.4-1.5 1.15-1.69l10.83-2.75z" fill="#263238"/><path d="M285.1 116.85l11.99-3.34-3.18-21.24c-.18-1.21-1.38-2-2.56-1.68l-9.61 2.55 3.36 23.71z" fill="#ebebeb"/><path d="M296.85 101.31l-5.4 4.05s.45 1.42 1.27 1.52 5.17-1.1 5.17-1.1l-1.04-4.47z" fill="#eb996e"/><path d="M296.2 98.08l-5.65 2.47s-.37 1.84 1.75 1.59l-1.9 1.36s.47.82 2.83.92c2.36.1 4.65-3.18 4.65-3.18l-1.68-3.16z" fill="#eb996e"/><path d="M301.81 104.37c-.01.08-.69-.06-1.44-.75-.38-.33-.78-.76-1.3-1.09-.51-.34-1.14-.5-1.79-.23-2.62 1.33-4.84 2.47-4.9 2.32-.05-.12 1.97-1.42 4.72-2.81.38-.15.81-.21 1.21-.13.4.07.74.26 1.02.45.57.4.95.87 1.28 1.22.66.72 1.22.95 1.2 1.02zM300.7 118.45c-.08.1-1.47-1.56-1.73-4.11-.29-2.55.72-4.46.83-4.38.15.05-.58 1.93-.31 4.33.23 2.39 1.35 4.08 1.21 4.16zM299.95 100.57c-.07.05-.37-.37-1.09-.6-.72-.26-1.8-.2-2.86.33-1.07.51-2 1.16-2.76 1.47-.75.34-1.28.38-1.29.32-.02-.07.45-.24 1.12-.64.69-.38 1.56-1.07 2.71-1.62.58-.27 1.18-.44 1.75-.47.57-.03 1.08.09 1.47.27.79.37 1.01.92.95.94z" fill="#d1734a"/><path d="M299.53 135.97l29.39 18.87-7.79 22.28s-20.11-6.21-19.74-6.86c.38-.65-1.86-34.29-1.86-34.29z" fill="#f5a046"/><path d="M291.93 437.58l-4.62 21.29s20.09 11.85 19.62 15.87l-41.6-7.48 5.84-33.47 20.76 3.79z" fill="#263238"/><path d="M265.32 467.25l.72-3.35 39.62 8.42s1.71 1.14 1.26 2.41l-41.6-7.48z" fill="#455a64"/><path d="M244.61 439.92l-.69 21.78s21.9 8.01 22.17 12.05l-42.27.18-.32-33.97 21.11-.04z" fill="#263238"/><path d="M223.82 473.93l.1-3.43 40.49 1.1s1.89.81 1.68 2.14l-42.27.19z" fill="#455a64" opacity=".6"/><path d="M250.74 82.86l4.31 49.95 25.02-2c.16-2.92-.05-14.22-.05-14.22s10.41-1.62 10.54-12.03c.06-5.05-.66-15.5-1.42-24.91-.84-10.44-9.87-18.29-20.32-17.68-10.84.64-19.01 10.08-18.08 20.89z" fill="#eb996e"/><path d="M280.03 116.44s-6.58.54-13.57-3.86c0 0 3.21 7.49 13.59 6.55l-.02-2.69z" fill="#d1734a"/><path d="M285.1 86.95c.03.78-.61 1.46-1.43 1.5-.82.04-1.5-.56-1.53-1.34-.03-.78.61-1.46 1.43-1.5.81-.04 1.5.56 1.53 1.34zM286.9 84.9c-.18.19-1.31-.64-2.91-.64-1.6-.02-2.77.8-2.94.61-.09-.09.1-.44.61-.81.5-.37 1.36-.73 2.36-.73 1 .01 1.83.37 2.32.75.49.38.66.74.56.82zM269.74 86.95c.03.78-.61 1.46-1.43 1.5-.82.04-1.5-.56-1.53-1.34s.61-1.46 1.43-1.5c.82-.04 1.5.56 1.53 1.34zM271.18 85.2c-.18.19-1.31-.64-2.91-.64-1.6-.02-2.77.8-2.95.61-.09-.09.1-.44.61-.81.5-.37 1.36-.73 2.36-.73 1 .01 1.83.37 2.32.75.5.38.66.73.57.82zM276.99 97.06c-.01-.09.99-.26 2.6-.47.41-.04.79-.12.86-.4.1-.29-.07-.74-.27-1.21-.38-.99-.79-2.02-1.21-3.11-1.68-4.43-2.89-8.07-2.71-8.14.18-.07 1.68 3.47 3.36 7.9.4 1.09.79 2.13 1.16 3.13.15.46.42.99.21 1.6-.11.31-.41.53-.67.6-.26.08-.49.08-.69.1-1.63.09-2.64.09-2.64 0zM272.28 98.17c.26-.02.26 1.72 1.75 2.95 1.48 1.24 3.33 1.04 3.35 1.28.02.11-.41.34-1.19.36-.77.03-1.89-.22-2.79-.97-.91-.76-1.3-1.76-1.36-2.48-.07-.72.12-1.15.24-1.14zM271.6 78.93c-.16.43-1.75.23-3.63.45-1.88.19-3.39.74-3.64.35-.11-.19.15-.6.76-1.02.61-.42 1.57-.82 2.7-.95 1.13-.12 2.16.06 2.84.33.69.29 1.03.64.97.84zM286.32 80.27c-.28.36-1.38-.01-2.71-.03-1.32-.06-2.45.24-2.7-.14-.11-.18.06-.55.55-.89.48-.34 1.29-.62 2.2-.6.91.03 1.7.36 2.16.73.47.38.62.76.5.93zM262.04 71.45c-.02.02-.04.03-.06.05a8.167 8.167 0 00-3.04 5.29l-.03.21c-.41 2.97-.33 5.99-.77 8.95-.44 2.96-1.46 5.98-3.65 8.02-.9.84-2.5 1.42-3.24.43-.29-.38-.33-.89-.37-1.36-.55-7.17-2.51-13.53-2.5-21.02 0-2.04.96-3.95 2.62-5.14 1.57-1.12 3.49-2.29 5.23-1.47 1.75.83 4 4.09 5.36 5.47" fill="#263238"/><path d="M254.25 87.57c-.18-.08-7.15-2.12-6.92 5 .23 7.12 7.32 5.42 7.33 5.22 0-.21-.41-10.22-.41-10.22z" fill="#eb996e"/><path d="M252.39 95.16c-.03-.02-.12.09-.33.19-.2.1-.55.18-.93.05-.76-.25-1.43-1.43-1.51-2.71-.04-.65.08-1.27.29-1.79.2-.53.53-.9.9-.98.37-.1.65.12.74.32.1.2.06.34.1.35.02.02.15-.12.08-.42a.772.772 0 00-.29-.44.943.943 0 00-.69-.16c-.55.06-1.03.58-1.26 1.14a4.31 4.31 0 00-.37 2c.09 1.43.87 2.75 1.91 3.01.5.11.92-.05 1.13-.22.23-.17.26-.33.23-.34z" fill="#d1734a"/><path d="M255.99 66.52c-1.75-2.85 3.05-6.93 6.56-8.04 3.51-1.11 8.14.6 11.63 1.76 2.21.73 4.4 1.75 6.72 1.66 1.56-.06 3.04-.63 4.51-1.15 1.47-.52 3-1 4.55-.9 1.55.11 3.15.93 3.74 2.37.59 1.44-.26 3.42-1.8 3.63 1.97-1.08 4.82.34 5.14 2.56.32 2.22-2.01 4.39-4.21 3.91 1.01-.77 2.56.5 2.44 1.76-.12 1.26-1.27 2.18-2.43 2.69-2.97 1.3-6.43.89-9.5-.15-3.07-1.03-5.92-2.64-8.96-3.75-3.04-1.11-8.14-3.1-11.2-2.02-2.25.79-3.82 3.5-5.09 2.91-1.23-.58-2.01-1.86-2.25-3.2-.24-1.33-.04-2.7.15-4.04" fill="#263238"/><path d="M292.77 65.66c-.06-.04-.37.53-1.13 1.36-.77.82-2.06 1.89-3.95 2.54-1.86.65-4.4.86-6.79-.27-2.42-1.08-4.49-3.25-6.88-5.3-2.38-2.06-5.19-3.59-8-3.84-2.8-.27-5.38.76-6.8 2.36-1.44 1.61-1.72 3.45-1.61 4.6.05.59.2 1.02.31 1.31.13.28.21.42.23.41.07-.02-.23-.61-.26-1.73-.02-1.09.33-2.8 1.7-4.25 1.35-1.43 3.77-2.33 6.38-2.05 2.62.27 5.29 1.72 7.61 3.73 2.34 2 4.47 4.23 7.06 5.35 2.58 1.18 5.29.9 7.22.15 1.97-.75 3.27-1.94 3.99-2.83.36-.46.61-.83.74-1.11.14-.27.2-.42.18-.43zM252.43 87.26c.03.02.31-.2.58-.76.27-.56.48-1.47.35-2.58-.16-2.29-2.18-4.75-2.44-7.92-.16-1.56.12-3.09.79-4.25.66-1.15 1.71-1.91 2.64-2.28.95-.39 1.81-.4 2.38-.32.57.09.88.22.91.17.02-.03-.25-.25-.85-.44-.59-.17-1.54-.25-2.6.12a5.777 5.777 0 00-3.03 2.42c-.79 1.28-1.1 2.96-.93 4.64.14 1.69.76 3.22 1.37 4.48.61 1.28 1.12 2.42 1.28 3.44.37 2.09-.55 3.25-.45 3.28z" fill="#455a64"/><path d="M294.2 455.84s21.67-106.29 21.69-108.42l-38.71-20.46-14.99 124.74 32.01 4.14zM245.46 459.4l29.93-184.23v-39.74l-43.35 3.1c-.52 1.55-11.44 221.11-11.44 221.11l4.22-.24h20.64" fill="#042b5d"/><path fill="#042b5d" d="M298.92 232.62l16.97 114.8-37.93-9.2-15.47-101.86z"/><path fill="#e8505b" d="M307.39 278.43l-1.93-15.63"/><path d="M305.46 282.07s6.59-5.66 7.25-9.94c.66-4.28-7.92-73.02-7.92-73.02l-4.37-56.82c0 1 .12-7.16-1.2-7.65-4.04-1.51-12.22-4.25-12.22-4.25l-4.69-4.22s8.44 36.08 10.08 45.94l13.07 109.96zM251.27 122.27l-7.1 4.72-26.63 10.48 11.82 44.61-1.58 25.87-1.52 16.45s-7.92 40.73-14.92 65.48c0 0 7.81 14.8 14.23 16.87l2.67 1.59 9.52-69.71 8.17-11.03c.78-1.06 1.52-2.14 2.21-3.27 2.01-3.27 6.58-10.7 10.23-16.43 4.82-7.57 11.01-24.77 9.17-32.11-1.83-7.35-16.27-53.52-16.27-53.52z" fill="#f5a046"/><path d="M233.18 276.06a60.908 60.908 0 0015.24-18.32" fill="#263238"/><path d="M251.27 122.27l6.41 41.12c-.08 4.17-.88 9.96-2.6 15.51l-11.44 36.97s-8.99 20.17-5.89 22.75c3.1 2.58 27.3 0 27.3 0l32.74-4.75a2.87 2.87 0 002.45-3.12l-4.86-50.22c-1.64-3.47-2.31-10.56-2.99-13.09l-10.08-41.26-2.06-.27-4.48 3.08-2.36.19-19.82-9.58-2.32 2.67z" fill="#ebebeb"/><path d="M245.3 210.53c5.29-16.49 12.14-43.29 12.14-43.29 2.13 14.02-.2 28.35-5.41 41.54-4.25 10.77-9.41 18.91-12.95 29.93l-.11.46s-2 .1-1.86-2.84c.14-2.95 2.97-11.72 4.91-16.59s3.28-9.21 3.28-9.21z" fill="#e0e0e0"/><path fill="#1f9ca5" d="M276.91 132.49h-4.45l-1.33 6.09 3.89 4.71 3.92-.39 1.28-4.37-1.05-2.44z"/><path d="M302.86 168.05c1.41.28 16.87 10.68 22.49 9.56 5.62-1.12 10.17-6.42 10.77-7.13 3.19-3.78 1.19-11.63.27-14.59-.23-.73-.53-1.42-.92-2.07L311.6 112.8l-14.07 8.55 14.6 26.65-9.27 20.05zM187.73 217.62c-1.94-4.86-1.5-10.36.87-15.03 3.24-6.41 8.37-16.77 9.45-20.16 1.61-5.05 16.56-43.8 19.5-44.95l13.03 43.88-15.1 31.81 17.7 33.34-14.79 15.9s-27.91-38.92-30.21-43.74c-.16-.35-.31-.7-.45-1.05z" fill="#f5a046"/><path d="M233.84 272.52c3.23-3.04 5.64-6.06 7.39-8.72-.04-.11-.05-.2-.01-.27.06-.1.17-.15.3-.18.97-1.51 1.74-2.89 2.32-4.07-2.47-1.61-5.7-4.04-2.19-4.54 4.32-.62 7.41-2.72 7.85-3.87.44-1.15-1-2.18-2.14-1.45-.92.59-2.76 1.11-4.16 1.44-1.15.27-2.35.35-3.52.22-1.37-.15-7-2.59-7.98-2.77l-10.53 11.08s8.08 8.57 12.67 13.13z" fill="#eb996e"/><path d="M302.76 169.27c-.04.01-.16-.43-.37-1.23s-.47-1.97-.76-3.42c-.58-2.9-1.23-6.95-1.63-11.45-.4-4.5-.48-8.6-.42-11.56.03-1.48.08-2.68.14-3.5.06-.83.11-1.28.14-1.28.04 0 .06.46.06 1.29.01.93.02 2.1.03 3.5.04 2.95.18 7.03.57 11.51.4 4.48.99 8.52 1.47 11.43.24 1.37.44 2.53.59 3.45.15.8.21 1.25.18 1.26z" fill="#263238"/><g><path d="M315.04 171.64c-.01.02-.12-.01-.33-.08-.21-.07-.52-.21-.89-.42-.74-.43-1.72-1.26-2.54-2.58-.86-1.3-1.35-3.1-1.82-5.04-.46-1.96-.91-4.12-1.2-6.43-.42-4.62-.77-8.77-1-11.8-.1-1.43-.18-2.63-.24-3.58-.05-.85-.05-1.32-.02-1.32.04 0 .11.46.22 1.3.11.94.24 2.14.41 3.56.32 3.01.73 7.19 1.15 11.77.28 2.27.72 4.43 1.15 6.38.44 1.95.88 3.69 1.66 4.96.75 1.29 1.65 2.12 2.33 2.6.69.48 1.13.64 1.12.68z" fill="#263238"/></g><g opacity=".3"><path d="M306.94 140.48a88.233 88.233 0 00-2.52 14.05c-.28 2.84-.41 5.76.45 8.49.85 2.72 2.87 5.23 5.63 5.96-1.26-9.28-2.37-18.57-3.33-27.88"/></g><g opacity=".3"><path d="M225.06 230.39s4.68 9.59 7.27 14.61c5.4-22.31-1.45-45.79.78-68.64l-3.9 7.87-1.1 18.21-.84 10.68c0 .01-.8 11.5-2.21 17.27z"/></g><g><path d="M228.84 137.88c.03-.02.31.43.79 1.25.25.41.53.91.83 1.52.3.6.67 1.28 1 2.07.71 1.55 1.43 3.45 2.11 5.6a53.61 53.61 0 011.61 7.15c.37 2.58.51 5.06.52 7.31-.02 2.25-.17 4.28-.41 5.97-.09.85-.25 1.6-.36 2.27-.11.67-.24 1.23-.36 1.7-.23.92-.37 1.43-.4 1.42-.03-.01.04-.53.2-1.46.09-.47.19-1.04.27-1.7.09-.67.22-1.42.28-2.26.19-1.68.29-3.69.29-5.92-.03-2.23-.19-4.69-.55-7.24-.39-2.55-.94-4.94-1.55-7.09-.64-2.14-1.32-4.04-1.98-5.59-.3-.79-.65-1.47-.92-2.09a23.3 23.3 0 00-.75-1.55c-.43-.87-.66-1.34-.62-1.36z" fill="#263238"/></g><g><path d="M215.3 213.42c-.07.05-.73-1.06-2.04-2.65-1.3-1.58-3.29-3.69-5.91-5.36-1.31-.81-2.77-1.2-4.08-.98-1.3.2-2.39.81-3.23 1.37-1.69 1.16-2.61 2.07-2.68 2-.02-.03.18-.27.6-.68.41-.41 1.02-1 1.87-1.62.84-.62 1.95-1.3 3.37-1.54 1.42-.28 3.05.16 4.42 1.01 2.73 1.74 4.68 3.91 5.94 5.58.63.84 1.07 1.55 1.36 2.06.28.5.41.8.38.81z" fill="#263238"/></g><g><path d="M212.03 202.91c.11-.07 1.41 2 2.33 4.85.93 2.85 1.1 5.29.97 5.3-.15.02-.55-2.34-1.46-5.14-.91-2.79-1.98-4.93-1.84-5.01z" fill="#263238"/></g><g><path d="M224.75 229.77c.03-.02.3.44.75 1.28.49.92 1.13 2.13 1.9 3.59 1.59 3.05 3.76 7.3 6.17 12.07l.08.16-.13.13c-.32.33-.65.68-1 1.04-3.93 4.09-7.5 7.78-10.11 10.43-1.26 1.27-2.31 2.32-3.11 3.12-.74.73-1.16 1.12-1.19 1.09-.03-.02.35-.46 1.04-1.23.77-.83 1.77-1.92 2.99-3.23 2.54-2.71 6.07-6.44 10-10.53.34-.36.68-.71 1-1.04l-.04.3c-2.4-4.77-4.52-9.05-6.03-12.14-.71-1.49-1.3-2.72-1.76-3.66-.39-.88-.59-1.36-.56-1.38z" fill="#263238"/></g><g><path d="M244.23 209.65c-.02 0-.03-.3-.03-.86.01-.61.02-1.43.03-2.47.05-2.2.12-5.29.21-9.09.11-3.84.2-8.4.41-13.48.24-5.06.65-10.69 2.24-16.37.79-2.81 1.83-5.49 3.16-7.91l.19.37c-1.28-.19-2.39-.91-3.19-1.81-.81-.9-1.36-2-1.67-3.11-.62-2.24-.5-4.44-.52-6.48 0-4.08.01-7.71.01-10.76.02-2.99.03-5.41.04-7.13.01-.8.03-1.43.03-1.92.01-.44.03-.66.04-.66.02 0 .03.23.05.66.01.48.03 1.12.05 1.92.03 1.72.06 4.13.11 7.13.03 3.05.07 6.68.11 10.76.03 2.04-.06 4.22.54 6.34.3 1.06.82 2.07 1.57 2.91.75.84 1.76 1.48 2.89 1.64l.36.05-.17.32c-1.3 2.39-2.33 5.03-3.1 7.8-1.57 5.62-1.99 11.21-2.26 16.26-.24 5.06-.36 9.63-.52 13.47-.16 3.8-.28 6.89-.37 9.08-.05 1.04-.1 1.86-.13 2.47-.04.57-.07.87-.08.87z" fill="#263238"/></g><g><path d="M287.08 131.02c.02-.01.09.18.23.55.15.41.34.95.58 1.61.5 1.46 1.2 3.5 2.06 6 .87 2.57 1.89 5.62 3.04 9.03.55 1.73 1.23 3.48 1.74 5.44.23.98.36 2.05.13 3.11-.22 1.04-.78 2.11-1.78 2.72l.08-.36c.85 1.25 1.73 2.58 2.57 3.97 1.23 2.07 2.26 4.24 2.8 6.48.55 2.24.55 4.48.45 6.56-.24 4.16-.52 7.89-.73 11.03-.23 3.09-.42 5.61-.55 7.43-.07.83-.13 1.5-.18 2.02-.05.46-.08.7-.1.7-.02 0-.02-.24-.01-.71.02-.51.05-1.19.08-2.02.09-1.82.22-4.34.38-7.44.18-3.16.39-6.89.62-11.02.08-2.06.07-4.25-.47-6.41-.53-2.17-1.54-4.28-2.75-6.33-.82-1.38-1.7-2.7-2.55-3.95l-.15-.22.23-.14c.84-.51 1.35-1.44 1.55-2.39.21-.96.1-1.95-.11-2.89-.48-1.88-1.16-3.69-1.7-5.41-1.11-3.42-2.1-6.49-2.93-9.07-.8-2.52-1.45-4.57-1.91-6.05-.2-.67-.37-1.22-.49-1.64-.09-.39-.14-.59-.13-.6z" fill="#263238"/></g><g><path d="M248.16 255.26c.03.02-.13.31-.46.82-.32.51-.8 1.23-1.42 2.11-1.22 1.76-2.97 4.15-5 6.73-2.03 2.57-3.94 4.84-5.36 6.44-.71.8-1.3 1.44-1.72 1.87-.42.43-.66.66-.69.64-.06-.05.77-1.08 2.12-2.75 1.35-1.66 3.21-3.96 5.23-6.53 2.02-2.57 3.81-4.92 5.11-6.62 1.32-1.7 2.13-2.75 2.19-2.71z" fill="#455a64"/></g><g><path d="M263.83 242.36s-.01.19-.04.56c-.04.39-.1.94-.17 1.65-.17 1.47-.41 3.6-.72 6.33-.65 5.49-1.62 13.43-2.9 23.24-2.53 19.61-6.37 46.66-10.5 76.54-2.06 14.95-3.95 29.2-5.56 42.17-.42 3.24-.75 6.41-1.21 9.48-.47 3.06-.93 6.03-1.37 8.9l-2.42 15.99c-1.47 9.78-2.63 17.69-3.39 23.17-.38 2.74-.66 4.87-.83 6.31-.08.72-.14 1.27-.16 1.65-.01.19-.02.33-.01.42.01.12.07-.01.06.02 0 0 0 .01-.01.03-.01.04-.08.01-.08-.04-.02-.1-.02-.24-.02-.42.01-.37.05-.93.11-1.65.13-1.45.38-3.58.73-6.33.7-5.49 1.8-13.41 3.23-23.19.72-4.89 1.51-10.25 2.36-16 .43-2.87.88-5.85 1.34-8.91.45-3.06.77-6.23 1.18-9.47 1.59-12.98 3.46-27.23 5.52-42.18 4.13-29.89 8.03-56.92 10.65-76.52 1.29-9.79 2.34-17.71 3.06-23.21.35-2.73.63-4.85.82-6.31.1-.71.17-1.25.23-1.64.06-.41.1-.59.1-.59z" fill="#455a64"/></g><g><path d="M286.65 454.85s.02-.19.07-.55c.06-.38.15-.91.26-1.59.24-1.42.59-3.48 1.05-6.11.93-5.33 2.28-13 3.94-22.47 3.38-18.98 8.04-45.17 13.19-74.1.38-1.78.51-3.59.32-5.37-.23-1.78-.52-3.57-.79-5.34-.55-3.54-1.09-7.02-1.62-10.45-1.08-6.85-2.14-13.44-3.19-19.72-2.09-12.56-4.1-23.85-5.91-33.31-1.8-9.46-3.39-17.09-4.59-22.34-.57-2.63-1.08-4.66-1.4-6.04-.16-.68-.28-1.2-.36-1.57-.08-.35-.11-.54-.11-.54s.06.18.16.53c.1.37.24.89.41 1.56.35 1.37.9 3.39 1.5 6.02 1.27 5.24 2.9 12.86 4.76 22.31 1.85 9.45 3.9 20.74 6.02 33.3 1.06 6.28 2.14 12.88 3.22 19.72.53 3.42 1.07 6.91 1.62 10.45.26 1.78.56 3.54.79 5.36.2 1.83.06 3.71-.33 5.53-5.21 28.91-9.92 55.09-13.34 74.07-1.73 9.46-3.13 17.12-4.1 22.44-.49 2.63-.88 4.68-1.14 6.1-.13.68-.24 1.21-.31 1.58-.07.35-.12.53-.12.53z" fill="#455a64"/></g><g><path d="M275.39 273.87c.14.02-1.63 11.92-3.95 26.58-2.32 14.66-4.32 26.52-4.46 26.5-.14-.02 1.63-11.92 3.95-26.58 2.32-14.66 4.32-26.52 4.46-26.5z" fill="#455a64"/></g><g><path d="M245.82 459.07c0 .04-.35.09-.98.17-.63.08-1.55.16-2.69.25-2.27.18-5.42.35-8.9.4-3.48.06-6.63-.01-8.91-.11-1.14-.05-2.06-.11-2.7-.16-.64-.05-.99-.1-.99-.14 0-.07 1.41-.08 3.69-.07 2.28.01 5.42.01 8.9-.04 3.47-.06 6.62-.17 8.89-.25 2.28-.08 3.69-.13 3.69-.05z" fill="#455a64"/></g><g><path d="M294.2 455.84c0 .04-.46.01-1.27-.06-.92-.1-2.07-.22-3.44-.37-2.9-.33-6.91-.82-11.32-1.4-4.42-.57-8.42-1.12-11.31-1.54-1.36-.21-2.51-.38-3.42-.52-.81-.13-1.25-.22-1.25-.25 0-.04.46-.02 1.27.05s1.99.19 3.44.36c2.9.33 6.91.82 11.33 1.39s8.42 1.12 11.31 1.55c1.36.21 2.51.39 3.42.53.81.13 1.25.22 1.24.26z" fill="#455a64"/></g><g><path d="M251.99 128.92c.02-.03.42.23 1.11.71.78.54 1.77 1.22 2.94 2.04 2.49 1.71 5.98 3.99 9.98 6.28 1.5.86 2.96 1.66 4.32 2.38l-.36.16c.84-3.31 1.58-6.16 2.12-8.18l.66-2.36c.16-.55.26-.84.29-.83.03.01-.02.31-.13.87-.14.65-.31 1.44-.52 2.39-.46 2.04-1.14 4.9-1.94 8.23l-.07.31-.28-.15c-1.37-.71-2.84-1.5-4.35-2.37-4.02-2.29-7.49-4.64-9.94-6.43a77.54 77.54 0 01-2.85-2.18c-.65-.53-1.01-.84-.98-.87z" fill="#263238"/></g><g><path d="M285.03 136.28c.06.09-1.78 1.33-4.42 2.99l-.22.14-.12-.24c-.43-.83-.88-1.71-1.35-2.63-1.03-2.04-1.95-3.9-2.58-5.26-.64-1.36-1-2.21-.93-2.25s.54.76 1.26 2.08 1.68 3.15 2.72 5.19c.46.93.91 1.81 1.32 2.64l-.34-.1c2.67-1.58 4.6-2.65 4.66-2.56z" fill="#263238"/></g><g><path d="M278.48 135.3c.02.02-.32.28-.88.69-.56.4-1.34.95-2.2 1.55-.87.59-1.66 1.12-2.24 1.5-.58.37-.94.59-.96.57-.02-.02.32-.29.88-.69.56-.4 1.34-.95 2.2-1.54.87-.59 1.66-1.12 2.24-1.49.58-.39.94-.61.96-.59z" fill="#263238"/></g><g><path d="M275.48 137.37c-.04.04-.91-.78-1.94-1.84-1.04-1.06-1.84-1.95-1.8-1.99s.91.79 1.94 1.84c1.03 1.06 1.84 1.95 1.8 1.99z" fill="#263238"/></g><g><path d="M256.64 226.08c.17-.03.12 3.49 2.07 7.21 1.89 3.75 4.79 5.75 4.66 5.87-.03.05-.79-.37-1.83-1.31-1.04-.93-2.31-2.42-3.29-4.33-.98-1.91-1.45-3.81-1.6-5.2-.16-1.38-.07-2.24-.01-2.24z" fill="#263238"/></g><g><path d="M262.46 239.26c-.01.13-2.27-.1-4.76-1.28-2.5-1.17-4.12-2.76-4.03-2.85.1-.12 1.82 1.25 4.25 2.38 2.41 1.15 4.57 1.59 4.54 1.75z" fill="#263238"/></g><g><path d="M282 207.25c.03-.01.16.37.37 1.07.21.7.48 1.72.78 2.98.61 2.53 1.34 6.06 1.93 9.99.58 3.94.91 7.52 1.06 10.12.07 1.3.11 2.35.12 3.08.01.73-.01 1.13-.04 1.13-.04 0-.09-.4-.16-1.12-.08-.84-.17-1.86-.28-3.07-.24-2.59-.62-6.16-1.2-10.08s-1.25-7.44-1.77-9.99c-.24-1.19-.45-2.19-.62-3.02-.16-.68-.22-1.08-.19-1.09z" fill="#263238"/></g><g><path d="M275.34 144.31c-1.3 10.39-2.26 33.02-2.62 43.49-.3 8.76-.27 17.53-.24 26.3.01 2.82.04 5.75 1.2 8.32 2.09 4.63 7.2 6.95 11.9 8.88l-10.24-86.99z" fill="#e0e0e0"/></g><g><path d="M287.02 229.8l5.37-13.16-13.45-73.74-3.92.39s.55 76.64.37 77.33l11.63 9.18z" fill="#1f9ca5"/><path d="M278.8 142.9c.01.06-.82.23-1.86.3-1.04.08-1.89.03-1.89-.03s.84-.1 1.87-.18c1.03-.06 1.87-.14 1.88-.09z" fill="#263238"/></g></g></svg>