<svg xmlns="http://www.w3.org/2000/svg" xmlns:xlink="http://www.w3.org/1999/xlink" viewBox="0 0 750 500"><path fill="#ebebeb" d="M330.69 89.74l17.9 56.64h-12.96l-5.72-19.53z"/><path fill="#e0e0e0" d="M99.48 146.32h267.38v15.98H99.48z"/><path fill="#e0e0e0" d="M136.74 158.81h12.94v24.53h-12.94zM303.68 158.81h12.93v24.53h-12.93z"/><path d="M108.56 72.24s-12 9.14-.5 21.22c.2.21.48.32.76.32l104.84-.61s8.95-10.04 1.52-21.61l-106.62.68z" fill="#ebebeb"/><path d="M190.49 81.78c0 .12-13.05.21-29.16.21s-29.16-.09-29.16-.21 13.05-.21 29.16-.21c16.1 0 29.16.09 29.16.21zM174.18 85.57c0 .12-6.14.21-13.71.21-7.57 0-13.71-.09-13.71-.21s6.14-.21 13.71-.21c7.57 0 13.71.09 13.71.21zM201.21 92.83c-.07-.02.23-1.2.56-3.15.33-1.94.63-4.65.61-7.65-.03-3-.39-5.7-.75-7.64-.36-1.94-.68-3.12-.61-3.13.03-.01.13.28.3.81.17.53.38 1.3.6 2.27.44 1.93.85 4.66.88 7.69.03 3.03-.33 5.77-.73 7.71-.2.97-.4 1.75-.56 2.28-.17.53-.28.82-.3.81zM209.03 71.42c.03-.01.19.26.47.76.14.25.31.56.47.94.16.37.37.79.54 1.28.37.96.72 2.14 1 3.48.26 1.34.44 2.83.46 4.41 0 1.58-.15 3.08-.39 4.42-.26 1.34-.58 2.53-.94 3.49-.16.49-.36.91-.51 1.29-.15.38-.31.69-.45.95-.27.51-.43.78-.45.77-.07-.04.51-1.16 1.14-3.1.32-.97.61-2.14.84-3.47.21-1.33.35-2.8.35-4.35-.02-1.55-.18-3.02-.42-4.34-.25-1.32-.56-2.49-.9-3.45-.68-1.92-1.28-3.04-1.21-3.08zM125.1 92.97c-.03.02-.2-.23-.49-.7-.15-.23-.32-.52-.49-.87-.17-.35-.39-.74-.56-1.21-.39-.91-.74-2.03-1.02-3.31-.25-1.28-.42-2.71-.41-4.22.03-1.51.23-2.94.52-4.21.31-1.27.7-2.38 1.11-3.28.18-.46.41-.84.59-1.19s.36-.63.51-.86c.3-.46.48-.7.51-.69.07.04-.6 1.06-1.34 2.86-.37.9-.72 2-1.01 3.25-.26 1.25-.45 2.65-.48 4.13-.01 1.48.14 2.88.37 4.14.25 1.25.57 2.37.92 3.27.7 1.82 1.35 2.85 1.27 2.89zM113.78 95.53c-.03.02-.22-.27-.54-.79-.17-.26-.36-.59-.55-.98-.19-.39-.44-.83-.63-1.35-.45-1.01-.86-2.27-1.2-3.7-.32-1.43-.54-3.04-.59-4.73-.03-1.7.13-3.31.38-4.75.28-1.44.64-2.72 1.04-3.75.17-.53.4-.98.57-1.38.17-.4.35-.74.5-1.01.3-.54.48-.83.5-.82.08.04-.6 1.23-1.3 3.3-.36 1.03-.68 2.3-.93 3.72-.23 1.43-.37 3.01-.34 4.68.05 1.67.26 3.24.55 4.66.32 1.41.69 2.66 1.1 3.67.79 2.02 1.52 3.18 1.44 3.23z" fill="#e0e0e0"/><g><path d="M209.81 125.09v20.06h-38.82v-20.06h38.82z" fill="#ebebeb"/><path d="M84.43 135.31c.01.18.01.35.02.53.32 6.07 5.47 10.77 11.55 10.77h115.62v-1.45h-27.45c-5.54 0-10.03-4.49-10.03-10.03 0-5.54 4.49-10.03 10.03-10.03h27.45v-2.13l-115.65.39c-6.53.02-11.78 5.43-11.54 11.95z" fill="#e0e0e0"/><path d="M209.81 135.39c0 .12-7.98.21-17.83.21-9.85 0-17.83-.09-17.83-.21s7.98-.21 17.83-.21c9.85 0 17.83.1 17.83.21zM209.25 139.91c0 .12-7.55.21-16.87.21s-16.87-.09-16.87-.21 7.55-.21 16.87-.21 16.87.1 16.87.21zM209.81 144.05c0 .12-6.79.21-15.17.21-8.38 0-15.17-.09-15.17-.21s6.79-.21 15.17-.21c8.38 0 15.17.09 15.17.21zM209.81 131.33c0 .12-7.82.21-17.46.21-9.65 0-17.46-.09-17.46-.21s7.82-.21 17.46-.21 17.46.09 17.46.21zM209.25 127.27c0 .12-6.96.21-15.54.21-8.59 0-15.54-.09-15.54-.21s6.96-.21 15.54-.21c8.58 0 15.54.09 15.54.21z" fill="#e0e0e0"/><g><path d="M98.44 123.69c.06.07-1.13.97-2.46 2.92-1.32 1.92-2.68 5.03-2.64 8.63.05 3.6 1.47 6.68 2.84 8.56 1.37 1.92 2.59 2.79 2.52 2.86-.01.02-.32-.18-.83-.62-.51-.43-1.2-1.12-1.93-2.07-1.46-1.88-2.97-5.03-3.02-8.74-.04-3.71 1.4-6.89 2.82-8.8.71-.97 1.38-1.67 1.88-2.11.5-.44.81-.65.82-.63z" fill="#f5f5f5"/></g><g><path d="M94.53 123.26c.06.07-1.13.97-2.46 2.92-1.32 1.92-2.68 5.03-2.64 8.63.05 3.6 1.47 6.68 2.84 8.56 1.37 1.92 2.59 2.8 2.52 2.86-.01.02-.32-.18-.83-.62-.51-.43-1.2-1.12-1.93-2.07-1.46-1.88-2.97-5.03-3.02-8.74-.04-3.71 1.4-6.89 2.82-8.8.71-.97 1.38-1.67 1.88-2.11.5-.44.81-.65.82-.63z" fill="#f5f5f5"/></g><g><path d="M173.09 123.69c.06.07-1.13.97-2.46 2.92-1.32 1.92-2.68 5.03-2.64 8.63.05 3.6 1.47 6.68 2.84 8.56 1.37 1.92 2.59 2.79 2.52 2.86-.01.02-.32-.18-.83-.62-.51-.43-1.2-1.12-1.93-2.07-1.46-1.88-2.97-5.03-3.02-8.74-.04-3.71 1.4-6.89 2.82-8.8.71-.97 1.38-1.67 1.88-2.11.5-.44.81-.65.82-.63z" fill="#f5f5f5"/></g><g><path d="M169.18 123.26c.06.07-1.13.97-2.46 2.92-1.32 1.92-2.68 5.03-2.64 8.63.05 3.6 1.47 6.68 2.84 8.56 1.37 1.92 2.59 2.8 2.52 2.86-.01.02-.32-.18-.83-.62-.51-.43-1.2-1.12-1.93-2.07-1.46-1.88-2.97-5.03-3.02-8.74-.04-3.71 1.4-6.89 2.82-8.8.71-.97 1.38-1.67 1.88-2.11.5-.44.81-.65.82-.63z" fill="#f5f5f5"/></g><g><path d="M111.6 138.13c-.04-2.72-.07-5.44-.11-8.16-.01-.71-.02-1.44-.29-2.1-.26-.66-.84-1.25-1.55-1.31-1.02-.45-2.61.4-3.33 1.58-.71 1.18-.79 2.62-.8 4-.02 2.15.09 4.3.31 6.44.11 1.02.25 2.06.76 2.95.51.89 1.47 1.59 2.49 1.5 1.01-.09 1.82-.94 2.18-1.89.36-.95.35-1.99.34-3.01z" fill="#f5f5f5"/></g><g><path d="M156.5 135.79c0 .12-8.36.21-18.67.21-10.31 0-18.67-.09-18.67-.21s8.36-.21 18.67-.21c10.31-.01 18.67.09 18.67.21z" fill="#f5f5f5"/></g></g><g><path fill="#f5f5f5" d="M103.85 122.89l-.21-19.02h10.35l.36 19.02z"/><path d="M113.38 107.25c0 .12-2.15.21-4.81.21-2.66 0-4.81-.09-4.81-.21s2.15-.21 4.81-.21c2.66 0 4.81.1 4.81.21zM113.38 110.19c0 .12-2.15.21-4.81.21-2.66 0-4.81-.09-4.81-.21s2.15-.21 4.81-.21c2.66 0 4.81.09 4.81.21zM113.38 113.12c0 .12-2.15.21-4.81.21-2.66 0-4.81-.09-4.81-.21s2.15-.21 4.81-.21c2.66 0 4.81.1 4.81.21zM113.38 116.06c0 .12-2.15.21-4.81.21-2.66 0-4.81-.09-4.81-.21s2.15-.21 4.81-.21c2.66 0 4.81.09 4.81.21zM113.38 119c0 .12-2.15.21-4.81.21-2.66 0-4.81-.09-4.81-.21s2.15-.21 4.81-.21c2.66-.01 4.81.09 4.81.21z" fill="#e0e0e0"/><path d="M103.09 103.37h114.73c1.42 6.3 1.22 13.23 0 20.55H103.58v-1.4h6.98c1.82 0 3.3-1.48 3.3-3.3v-11.37c0-1.82-1.48-3.3-3.3-3.3h-7.47v-1.18z" fill="#ebebeb"/><g><path d="M130.21 113.66h1.91c.07 0 .14.02.21.05.14.08.21.2.21.36 0 .05 0 .09-.02.12-.04.16-.08.32-.13.49-.27.88-.67 1.6-1.2 2.17-.53.56-1.07.84-1.63.84-.08 0-.15 0-.23-.02-.52-.08-.96-.39-1.3-.94-.38-.61-.57-1.38-.57-2.31 0-.54.08-1.09.23-1.64.24-.89.62-1.63 1.14-2.22.54-.61 1.11-.92 1.72-.92.26 0 .5.05.72.17.49.24.87.71 1.12 1.4.03.06.05.13.05.19 0 .07-.02.14-.06.21-.08.14-.2.2-.35.2-.04 0-.08-.01-.13-.02a.397.397 0 01-.26-.26l-.02-.04c-.06-.17-.14-.32-.23-.45-.25-.36-.56-.55-.92-.55-.21 0-.42.08-.63.23-.4.29-.75.79-1.04 1.5-.3.73-.45 1.45-.45 2.16 0 .68.11 1.24.33 1.7.24.5.58.75 1 .75.28 0 .59-.19.93-.56.41-.46.74-1.05.98-1.78-.88 0-1.34-.01-1.37-.02-.3-.05-.45-.2-.46-.46.01-.05.02-.1.04-.14.06-.14.2-.21.41-.21zM136.73 109.92c.02.04.03.08.05.14.08.28.53 2.65 1.35 7.11.01.03.02.07.02.1 0 .07-.02.14-.06.21-.08.14-.2.21-.34.21h-.07a.386.386 0 01-.32-.28l-.46-2.36h-2.36l-1.13 2.37a.3.3 0 01-.04.08c-.11.13-.23.2-.35.2a.36.36 0 01-.22-.07.397.397 0 01-.19-.35c0-.04.01-.08.03-.12.07-.17.19-.42.35-.78 1.65-3.6 2.64-5.73 2.96-6.37.09-.19.23-.28.4-.29.17 0 .29.07.38.2zm-.52 1.59l-1.28 2.68h1.8l-.52-2.68zM143.13 117.69h-3.46a.36.36 0 01-.22-.07c-.1-.07-.16-.22-.2-.43 0-.14.32-2.5.95-7.08 0-.05.01-.1.02-.15.07-.17.2-.25.37-.25.07 0 .13.02.19.05.14.08.22.2.22.37-.03.31-.11.96-.24 1.94-.4 3.02-.6 4.62-.62 4.79h2.94c.08 0 .15.01.22.04.18.07.26.2.26.39 0 .05-.01.09-.02.13-.05.14-.19.24-.41.27zM147.85 109.92c.02.04.03.08.05.14.08.28.53 2.65 1.35 7.11.01.03.02.07.02.1 0 .07-.02.14-.06.21-.08.14-.2.21-.34.21h-.07a.386.386 0 01-.32-.28l-.46-2.36h-2.36l-1.13 2.37a.3.3 0 01-.04.08c-.11.13-.23.2-.35.2a.36.36 0 01-.22-.07.397.397 0 01-.19-.35c0-.04.01-.08.03-.12.07-.17.19-.42.35-.78 1.65-3.6 2.64-5.73 2.96-6.37.09-.19.23-.28.4-.29.17 0 .3.07.38.2zm-.51 1.59l-1.28 2.68h1.8l-.52-2.68zM153.36 114c.27.75.48 1.33.62 1.73.36.99.54 1.51.54 1.56 0 .07-.02.14-.07.21-.08.13-.2.19-.35.19-.15 0-.27-.1-.34-.28-.03-.07-.05-.13-.07-.17-.19-.43-.5-1.24-.93-2.44l-1.96 2.67c-.11.14-.23.21-.37.22-.07 0-.15-.02-.21-.06a.384.384 0 01-.2-.35c0-.03 0-.06.01-.09.01-.06.08-.17.21-.33.66-.85 1.38-1.86 2.17-3.03-.08-.23-.16-.45-.24-.65-.74-1.97-1.1-2.99-1.1-3.06 0-.08.02-.15.05-.21.08-.14.19-.21.33-.21.18 0 .31.08.39.23l1.15 3.11 2.31-3.14c.1-.13.22-.19.37-.2.07 0 .13.02.19.05.13.07.2.2.2.37 0 .06-.01.12-.04.19l-2.66 3.69zM161.92 109.74c.07 0 .13.01.19.05.14.08.21.19.22.35-.57 4.47-.88 6.89-.94 7.25-.13.76-.38 1.39-.74 1.89-.55.75-1.32 1.13-2.3 1.13-.32 0-.68-.1-1.11-.29-.59-.27-1-.63-1.22-1.07a.455.455 0 01-.05-.2c0-.07.02-.14.06-.21a.381.381 0 01.66-.04c.51.67 1.1 1.01 1.77 1.01.53 0 .99-.24 1.37-.7.44-.53.69-1.25.76-2.17-.13.21-.3.39-.51.54-.37.27-.79.41-1.24.41-.08 0-.15 0-.23-.02-.53-.08-.97-.39-1.31-.94-.38-.61-.58-1.38-.58-2.3 0-.42.02-.85.06-1.3.07-.7.22-1.69.47-2.98.01-.04.02-.08.04-.12.07-.19.2-.28.37-.28.07 0 .14.02.2.06.14.08.21.19.21.33 0 .21-.06.74-.19 1.58-.18 1.23-.27 2.04-.27 2.41 0 .77.1 1.39.31 1.88.24.56.58.84 1.02.84.04 0 .09-.01.14-.02.34-.07.68-.34 1.03-.83.4-.56.69-1.19.85-1.91l.52-3.94a.48.48 0 01.05-.17c.11-.16.23-.24.39-.24z" fill="#fafafa"/></g><g><path d="M213.51 124.19c-.12 0-.21-4.72-.21-10.54 0-5.82.09-10.55.21-10.55s.21 4.72.21 10.55c0 5.82-.09 10.54-.21 10.54z" fill="#f5f5f5"/></g><g><path d="M119.63 124.19c-.12 0-.21-4.72-.21-10.54 0-5.82.09-10.55.21-10.55s.21 4.72.21 10.55c0 5.82-.1 10.54-.21 10.54z" fill="#e0e0e0"/></g><g><path d="M215.52 124.19c-.12 0-.21-4.72-.21-10.54 0-5.82.09-10.55.21-10.55s.21 4.72.21 10.55c.01 5.82-.09 10.54-.21 10.54z" fill="#f5f5f5"/></g><g><path d="M117.75 124.19c-.12 0-.21-4.72-.21-10.54 0-5.82.09-10.55.21-10.55s.21 4.72.21 10.55c0 5.82-.1 10.54-.21 10.54z" fill="#e0e0e0"/></g><g><path d="M185.69 106.57l-.02-.04c3.13 2.53 7.39 5.96 12.13 9.78l.11.09-.13.04c-.51.13-1.06.28-1.61.42-3.68.97-7.17 1.88-10.24 2.69l-.02.01-.02-.01c-3.8-1.61-7.01-2.97-9.28-3.93-1.12-.48-2.01-.86-2.63-1.13l-.69-.3c-.07-.03-.13-.06-.18-.08l-.06-.03s.02.01.06.02c.05.02.11.04.18.07.16.07.4.16.7.28.62.26 1.51.63 2.64 1.09 2.27.95 5.49 2.29 9.3 3.89h-.04c3.07-.81 6.55-1.73 10.23-2.7.55-.15 1.1-.29 1.61-.42l-.03.12c-4.73-3.83-8.97-7.28-12.1-9.81l-.02-.01v-.02" fill="#e0e0e0"/><path fill="#e0e0e0" d="M196.7 114.8l.66.62.89-.19-.39.82.46.78-.9-.11-.6.68-.17-.9-.83-.36.79-.44zM185.07 118.65l.45.38.57-.16-.22.55.33.48-.59-.03-.36.46-.15-.57-.55-.21.5-.31zM172.22 113.38l.72.05.45-.57.18.7.68.25-.61.38-.03.72-.56-.46-.69.2.27-.67zM202.14 106.73l.72.04.45-.56.17.69.68.25-.61.39-.02.72-.56-.46-.69.2.26-.67zM185.1 106.26l.46.02.29-.36.11.45.43.16-.38.24-.02.46-.36-.29-.44.13.17-.43z"/><path d="M203.15 107.23c0 .05-3.92-.08-8.76-.29-4.84-.21-8.76-.41-8.75-.46 0-.05 3.92.08 8.76.29 4.83.21 8.75.42 8.75.46z" fill="#e0e0e0"/></g></g><g><path d="M207.56 103.19H91.2c-1.52-3.46-1.9-6.74 0-9.69h116.36c1.52 3.53 1.39 6.73 0 9.69z" fill="#e0e0e0"/><path fill="#ebebeb" d="M115.29 96.27h63.04v3.52h-63.04z"/><path d="M95.66 103.24c-.03.03-.45-.37-.92-1.17-.47-.8-.94-2.02-1.06-3.44-.12-1.42.12-2.71.45-3.57.32-.87.66-1.34.7-1.31.06.03-.18.54-.41 1.4a9.86 9.86 0 00-.31 3.44c.12 1.35.52 2.53.91 3.34.37.81.7 1.27.64 1.31zM98.18 103.24c-.04.03-.45-.37-.92-1.17-.47-.8-.93-2.02-1.06-3.44-.12-1.42.12-2.71.45-3.57.32-.87.66-1.34.7-1.31.06.03-.18.54-.41 1.4a9.86 9.86 0 00-.31 3.44c.12 1.35.52 2.53.91 3.34.37.81.7 1.27.64 1.31z" fill="#e0e0e0"/><path d="M202.85 103.02c-.13-.05.82-2.06.82-4.74.03-2.67-.89-4.7-.76-4.74.08-.07 1.22 1.96 1.19 4.75-.01 2.78-1.18 4.79-1.25 4.73zM200.68 102.99c-.13-.03.36-2.07.35-4.64.01-2.56-.49-4.61-.36-4.64.1-.04.79 2 .78 4.64.02 2.63-.67 4.68-.77 4.64z" fill="#f5f5f5"/></g><g><path fill="#e0e0e0" d="M250.84 43.18h79.85v104.2h-79.31z"/><path fill="#fff" d="M324.423 146.83h-79.39V43.69h79.39z"/><path d="M324.82 43.3v103.93h-80.18V43.3h80.18zm-.79 103.14V44.08h-78.6v102.35h78.6z" fill="#e0e0e0"/><path fill="#fff" d="M253.32 54.88h60.78v80.8h-60.78z"/><path d="M253.2 54.86s.01.14.01.39c0 .27.01.64.01 1.14 0 1.01.01 2.48.02 4.4.01 3.85.03 9.46.05 16.57.02 14.21.05 34.38.09 58.3l-.18-.18c18.23-.01 38.92-.01 60.77-.02h.01l-.2.21c.01-30.09.03-57.98.04-80.8l.17.17c-18.37-.04-33.54-.07-44.13-.09-5.3-.02-9.45-.03-12.29-.04-1.41-.01-2.49-.01-3.24-.02l-1.13-.03s.36-.01 1.08-.02c.73 0 1.81-.01 3.2-.02 2.83-.01 6.97-.02 12.25-.04 10.62-.02 25.83-.05 44.24-.09h.17v.17c.01 22.82.02 50.71.04 80.8v.21h-.22c-21.85-.01-42.54-.01-60.77-.02H253v-.18c.04-23.96.07-44.18.09-58.42.02-7.09.04-12.69.05-16.53.01-1.9.02-3.36.02-4.36 0-.49.01-.86.01-1.12l.03-.38z" fill="#e0e0e0"/><path d="M244.85 146.83c-.05-.03.37-.7 1.07-1.74.71-1.05 1.7-2.48 2.85-4.03a90.12 90.12 0 013.04-3.89c.81-.97 1.34-1.54 1.39-1.51.05.04-.41.67-1.16 1.69-.84 1.13-1.83 2.47-2.94 3.95-1.1 1.48-2.1 2.82-2.94 3.95-.77 1.01-1.26 1.61-1.31 1.58zM245.04 43.69c.09-.07 1.99 2.38 4.24 5.46 2.25 3.09 4.01 5.64 3.91 5.71-.09.07-1.99-2.38-4.25-5.46-2.24-3.09-3.99-5.64-3.9-5.71z" fill="#e0e0e0"/><g><path fill="#fff" d="M324.43 43.69l-10.45 11.58"/><path d="M313.98 55.27c-.08-.08 2.19-2.73 5.07-5.93 2.89-3.2 5.29-5.73 5.38-5.65.08.08-2.19 2.73-5.07 5.93-2.89 3.2-5.3 5.73-5.38 5.65z" fill="#e0e0e0"/></g><g><path d="M324.43 146.83c-.08.08-2.39-2.34-5.14-5.39-2.76-3.05-4.92-5.59-4.84-5.67.08-.08 2.39 2.34 5.14 5.39 2.75 3.06 4.92 5.59 4.84 5.67z" fill="#e0e0e0"/></g><g><path d="M256.1 135.66s6.54-20.26 10.42-22.41c4.18-2.32 10.44-4.56 17.07-4.62 9-.08 13.29.59 18.57 4.22 6.09 4.19 10.22 22.61 10.22 22.61" fill="#e0e0e0"/></g><g><path d="M274.24 75.32c-5.59.25-6.96 7.75-6.58 12.04.18 2.03.8 4.23-.23 6-.73 1.25-2.16 2-2.76 3.31-.73 1.59-.03 3.43.5 5.11.53 1.67.76 3.78-.58 4.92 3.17.82 6.37 1.65 9.65 1.82 3.27.17 6.67-.37 9.45-2.11" fill="#e0e0e0"/><path d="M270.25 90.31c-3.68-8.45 1.32-13.61 4.58-15.47 1.94-1.11 4.25-1.34 6.49-1.4 2.21-.06 4.44.03 6.57.58 2.14.55 4.19 1.58 5.7 3.19 2.68 2.86 3.31 7.09 3.07 11.01-.28 4.61-1.59 9.15-3.86 13.17-.29.52-.62 1.05-1.14 1.33-.52.29-1.28.23-1.58-.28" fill="#e0e0e0"/><path d="M282.7 119.3c3.8.26 7.11-3 7.51-8.85l2.02-29.72-.14 2.05c.02-1.24-.91-2.29-2.14-2.42l-11.78-1.21c-4.06-.42-7.64 2.63-7.89 6.7-.27 4.52-.43 10.06.12 13.43 1.1 6.78 6.3 7.63 6.3 7.63l-.41 4.93c-.31 3.85 2.57 7.2 6.41 7.46z" fill="#f5f5f5"/><path d="M272.54 89.7c-.02.46.36.85.84.88.48.02.88-.33.9-.79.01-.46-.36-.85-.84-.88-.48-.03-.89.33-.9.79zM271.49 88.74c.11.11.77-.38 1.7-.38.94-.01 1.62.47 1.73.35.05-.05-.06-.26-.36-.47-.3-.22-.8-.43-1.38-.42-.58 0-1.07.22-1.36.44-.29.23-.38.43-.33.48zM281.54 89.7c-.01.46.36.85.84.88.48.02.88-.33.9-.79.01-.46-.36-.85-.84-.88-.49-.03-.89.33-.9.79z" fill="#e0e0e0"/><path d="M280.7 88.89c.11.11.77-.38 1.7-.38.94-.01 1.62.47 1.73.35.05-.05-.06-.26-.36-.47-.3-.22-.8-.43-1.38-.42-.58.01-1.07.22-1.36.44-.29.22-.39.43-.33.48zM277.32 95.85c0-.05-.58-.15-1.52-.27-.24-.02-.47-.07-.51-.23-.06-.17.04-.43.16-.71.22-.58.46-1.19.7-1.82.97-2.6 1.68-4.73 1.57-4.77-.1-.04-.98 2.03-1.95 4.63-.23.64-.46 1.25-.67 1.83-.09.27-.24.58-.12.94.06.18.24.31.39.35.15.05.29.05.41.06.94.04 1.53.04 1.54-.01z" fill="#e0e0e0"/><path d="M276.7 106.93s4.57.28 9.08-2.45c0 0-2.42 4.7-9.22 4.09l.14-1.64z" fill="#ebebeb"/><g><path d="M277.72 98.1c.34-.45.93-.69 1.51-.63.41.04.82.24 1.07.57.25.33.3.8.08 1.12-.25.36-.78.44-1.23.31-.45-.13-.83-.42-1.2-.71-.1-.08-.2-.17-.27-.28-.06-.11-.08-.26 0-.35" fill="#e0e0e0"/></g><g><path d="M280.08 96.49c-.15-.01-.15 1.01-1.02 1.73-.87.73-1.95.62-1.96.76-.01.06.24.2.7.21.45.01 1.1-.13 1.63-.57.53-.44.76-1.04.79-1.45.04-.44-.07-.69-.14-.68z" fill="#e0e0e0"/></g><g><path d="M280.27 87.25c.09.25 1.03.13 2.13.26 1.1.11 1.99.43 2.13.2.06-.11-.09-.35-.45-.59-.36-.25-.92-.48-1.58-.55-.66-.07-1.26.04-1.66.2-.41.16-.61.36-.57.48z" fill="#e0e0e0"/></g><g><path d="M271.83 86.03c.17.21.81-.01 1.59-.02.78-.04 1.43.14 1.58-.08.07-.11-.04-.32-.33-.52-.28-.2-.76-.36-1.29-.34-.53.02-.99.21-1.26.43-.28.21-.37.43-.29.53z" fill="#e0e0e0"/></g><g><path d="M275.58 74.43c6.57-3.7 13.64-1.11 18.95 4.23 1.17 1.18 2.23 2.57 3.76 3.22 1.65.71 3.85.59 4.83 2.1 1.15 1.76-.4 4.24.44 6.16.77 1.77 3.2 2.29 4.11 3.99.71 1.34.27 2.97-.07 4.45s-.46 3.26.65 4.29l-14.15 5.37c-.63.24-1.32.35-1.99.22-2.01-.4-2.15-2.26-1.97-3.8.14-1.15.39-2.37-.09-3.42-.57-1.24-2.04-1.91-2.55-3.18-.91-2.24 1.62-4.57 1.32-6.97-.19-1.51-1.49-2.66-2.88-3.27-1.39-.61-2.93-.8-4.37-1.27-3.34-1.07-6.08-4.12-7.51-7.52-.72-1.7-.09-3.67 1.52-4.6z" fill="#e0e0e0"/></g></g></g><g><path fill="#e0e0e0" d="M559.7 79.16h127.29v132.69H559.7z"/><path fill="#fafafa" d="M551.08 79.16h127.29v132.69H551.08z"/><path d="M678.41 211.89H551.04V79.12h127.37v132.77zm-127.29-.08h127.21V79.2H551.12v132.61z" fill="#e0e0e0"/><path fill="#fff" d="M568.19 97h93.07v97.02h-93.07z"/><path d="M568.19 194.66c.07.09-.81 1.1-2.3 2.67-1.49 1.57-3.58 3.69-5.92 6s-4.49 4.36-6.08 5.82c-1.59 1.46-2.61 2.32-2.69 2.24-.08-.08.8-1.09 2.28-2.66 1.49-1.57 3.58-3.7 5.93-6.01 2.35-2.31 4.5-4.37 6.09-5.83 1.6-1.46 2.61-2.32 2.69-2.23zM661.26 194.42c.09-.07 1.1.81 2.67 2.3 1.57 1.49 3.69 3.58 6 5.92s4.36 4.49 5.82 6.08c1.46 1.59 2.32 2.61 2.24 2.69-.08.08-1.09-.8-2.66-2.28-1.57-1.49-3.7-3.58-6.01-5.93-2.31-2.35-4.37-4.5-5.83-6.09-1.46-1.6-2.32-2.61-2.23-2.69zM661 97.26c-.07-.09.81-1.1 2.3-2.67 1.49-1.57 3.58-3.69 5.92-6s4.49-4.36 6.08-5.82c1.59-1.46 2.61-2.32 2.69-2.24.08.08-.8 1.09-2.28 2.66-1.49 1.57-3.58 3.7-5.93 6.01-2.35 2.31-4.5 4.37-6.09 5.83-1.6 1.46-2.61 2.32-2.69 2.23zM567.93 97.5c-.09.07-1.1-.81-2.67-2.3-1.57-1.49-3.69-3.58-6-5.92s-4.36-4.49-5.82-6.08c-1.46-1.59-2.32-2.61-2.24-2.69.08-.08 1.09.8 2.66 2.28 1.57 1.49 3.7 3.58 6.01 5.93 2.31 2.35 4.37 4.5 5.83 6.09 1.46 1.6 2.32 2.61 2.23 2.69z" fill="#e0e0e0"/><path d="M661 194.02c-.01-.01-.01-.17-.02-.47-.01-.33-.01-.78-.02-1.35-.01-1.22-.02-2.97-.04-5.24-.02-4.6-.05-11.28-.09-19.77-.04-16.99-.11-41.2-.18-70.18l.36.36c-27.09.02-58.91.03-92.81.05h-.01l.41-.42c-.02 35.61-.04 68.92-.06 97.02l-.35-.35c27.81.07 50.97.14 67.2.18 8.11.04 14.49.07 18.88.09 2.17.02 3.83.03 4.99.04.55.01.97.01 1.29.02.29 0 .45.01.45.02.01.01-.13.01-.41.02-.31 0-.72.01-1.25.02-1.15.01-2.79.02-4.93.04-4.37.02-10.72.05-18.8.09-16.29.04-39.52.11-67.43.18h-.35v-.36c-.02-28.09-.04-61.41-.06-97.02v-.41h.42c33.89.02 65.71.04 92.81.05h.36v.36c-.08 29.08-.14 53.36-.18 70.41-.04 8.46-.07 15.11-.09 19.69-.02 2.24-.03 3.97-.04 5.17-.01.56-.02.99-.02 1.32-.01.3-.02.44-.03.44z" fill="#e0e0e0"/><g><path d="M633.99 126.6a34.913 34.913 0 00-35.06-4.41s-1.74 23.05-1.62 33.09c.12 10.04 10.16 11.6 10.16 11.6l-.04 10.87 24.4.92 3.64-50.92-1.48-1.15z" fill="#f5f5f5"/><path d="M607.46 166.74s6.34.52 13.09-3.72c0 0-3.09 7.22-13.11 6.32l.02-2.6z" fill="#e0e0e0"/><path d="M634.24 138.14c.17-.07 6.9-2.04 6.68 4.82-.22 6.86-7.06 5.23-7.07 5.03-.01-.19.39-9.85.39-9.85z" fill="#f5f5f5"/><path d="M636.03 145.46c.03-.02.12.09.32.19.19.1.53.17.89.05.73-.24 1.38-1.37 1.45-2.61a3.85 3.85 0 00-.28-1.72c-.19-.51-.51-.87-.87-.95-.36-.1-.63.11-.72.31-.1.19-.06.33-.1.34-.02.02-.14-.12-.08-.4.03-.14.12-.29.28-.42a.88.88 0 01.67-.15c.53.05.99.56 1.21 1.1.26.55.4 1.23.35 1.93-.09 1.38-.84 2.65-1.84 2.91-.49.11-.88-.05-1.09-.22-.19-.19-.22-.34-.19-.36z" fill="#e0e0e0"/><g><path d="M602.22 137.64c-.03.76.59 1.4 1.38 1.45.79.04 1.45-.54 1.48-1.29.03-.76-.59-1.4-1.38-1.45-.79-.05-1.45.53-1.48 1.29z" fill="#e0e0e0"/><path d="M600.83 136.32c.18.19 1.26-.62 2.81-.61 1.54-.02 2.67.78 2.84.59.08-.08-.1-.42-.59-.78-.49-.36-1.31-.7-2.27-.7-.96.01-1.77.36-2.23.72-.48.35-.65.69-.56.78zM617.39 138.29c-.03.76.59 1.4 1.38 1.45.79.04 1.45-.54 1.48-1.29.03-.76-.59-1.4-1.38-1.45-.79-.05-1.46.53-1.48 1.29zM615.99 136.6c.18.19 1.27-.62 2.81-.61 1.54-.02 2.67.78 2.84.59.08-.08-.1-.42-.59-.78-.49-.36-1.31-.71-2.27-.7-.96.01-1.77.36-2.23.72-.48.36-.64.7-.56.78z" fill="#e0e0e0"/><g><path d="M610.4 148.04c.01-.09-.95-.25-2.51-.45-.39-.04-.77-.12-.83-.39-.09-.28.07-.71.26-1.17.37-.95.76-1.95 1.16-3 1.62-4.27 2.79-7.78 2.62-7.85-.17-.06-1.62 3.35-3.24 7.62-.39 1.05-.76 2.06-1.12 3.02-.15.45-.41.96-.2 1.55.11.29.4.51.65.58.25.08.47.08.67.09 1.56.09 2.53.09 2.54 0z" fill="#e0e0e0"/></g><g><path d="M615.6 130.56c.15.42 1.69.22 3.5.44 1.81.18 3.27.71 3.51.34.11-.18-.15-.57-.74-.98-.58-.41-1.52-.79-2.6-.91-1.09-.12-2.08.05-2.74.32-.66.26-1 .59-.93.79z" fill="#e0e0e0"/></g><g><path d="M601.4 131.85c.27.35 1.33-.01 2.61-.03 1.28-.06 2.36.24 2.61-.13.11-.18-.06-.53-.53-.86-.47-.33-1.24-.6-2.12-.57-.88.03-1.64.35-2.08.7-.46.36-.61.72-.49.89z" fill="#e0e0e0"/></g></g><g><path d="M594.04 115.86c-.11-1.24.36-2.58 1.37-3.31 1.01-.73 2.58-.68 3.41.25-.47-1.68.9-3.61 2.64-3.72 1.64-.1 3.03 1.13 4.62 1.57 1.54.42 3.2.06 4.69-.54 1.49-.6 2.87-1.42 4.38-1.97 3.14-1.15 6.72-1 9.76.39 3.04 1.39 5.48 4.02 6.66 7.15 2.2-.69 4.69.43 6.04 2.29 1.35 1.86 1.7 4.3 1.43 6.59-.18 1.54-.63 3.04-1.15 4.5 0 .13.01.26.01.39-.1 5.52-.73 12-3.08 12.04-4.1.06-3.13-7.67-3.13-7.67-5.04-1.95-3.16-9.49-4.42-10.64-1.26-1.14-3.89-3.81-14.44 1.58-4.1 2.09-9.54 2.03-12.51 1.35-.09-.02-.18-.03-.26-.05-.02 0-.04-.01-.06-.01-.03-.01-.06-.03-.09-.04-.95-.25-1.86-.61-2.7-1.15-.95-.6-1.82-1.42-2.23-2.48-.4-1.06-.25-2.37.58-3.14-.8-.98-1.41-2.14-1.52-3.38z" fill="#e0e0e0"/></g><g><path d="M610.41 155.51c.02-.1.74.19 1.77-.22.49-.2 1.04-.59 1.33-1.21.3-.61.36-1.44.04-2.17-.07-.18-.18-.35-.29-.5-.13-.14-.11-.13-.25-.11-.14.04-.35.14-.53.21-.18.08-.37.15-.54.22-.71.29-1.35.54-1.89.74-1.08.4-1.77.62-1.8.54-.03-.07.6-.42 1.64-.93.52-.25 1.15-.54 1.84-.86.18-.08.35-.16.54-.24.19-.08.34-.17.6-.25a.75.75 0 01.49.01c.17.07.28.19.37.29.15.2.28.4.37.63.39.91.3 1.91-.1 2.65-.4.76-1.09 1.18-1.68 1.36-.6.18-1.11.14-1.43.06-.34-.07-.49-.18-.48-.22z" fill="#e0e0e0"/></g></g></g><g><path d="M459.13 329.84c1.28-7.85 8.01-13.66 15.97-13.76 34.54-.46 122.48-1.25 127.2 2.49 5.88 4.67 8.95 7.06 8.49 14.46-.42 6.8-7.84 124.29-7.84 124.29H438.37l20.76-127.48z" fill="#455a64"/><path d="M584.2 457.38c-.01 0-.03-.12-.05-.35-.02-.26-.05-.59-.09-1.02-.07-.93-.16-2.24-.29-3.92-.13-1.7-.26-3.78-.34-6.21-.09-2.42-.24-5.18-.24-8.23-.02-1.53-.04-3.12-.05-4.79-.01-1.67.04-3.4.06-5.19.01-3.59.21-7.42.38-11.45.45-8.06 1.22-16.9 2.45-26.13 1.28-9.23 2.9-17.96 4.62-25.85.91-3.93 1.75-7.67 2.69-11.14.46-1.73.87-3.42 1.33-5.02.46-1.6.91-3.14 1.33-4.6.82-2.94 1.7-5.56 2.43-7.87.72-2.32 1.4-4.29 1.98-5.89.57-1.58 1.01-2.82 1.32-3.7l.36-.96c.08-.21.13-.32.14-.32.01 0-.02.12-.09.34-.08.25-.18.57-.31.97-.29.88-.7 2.13-1.23 3.73-.55 1.61-1.21 3.59-1.9 5.92-.7 2.32-1.56 4.94-2.36 7.88-.41 1.47-.85 3-1.3 4.61-.45 1.6-.85 3.29-1.3 5.02-.93 3.46-1.74 7.21-2.64 11.13-1.69 7.88-3.29 16.6-4.57 25.81-1.23 9.22-2.01 18.05-2.49 26.09-.18 4.02-.39 7.85-.43 11.43-.03 1.79-.09 3.52-.09 5.18.01 1.66.01 3.26.02 4.78-.02 3.05.11 5.8.17 8.22.05 2.42.15 4.5.25 6.21.08 1.68.14 2.99.19 3.92.01.43.03.76.04 1.02.02.26.02.38.01.38zM491.65 375.21c0-.02.08-.05.25-.1.17-.04.43-.07.77-.04.67.05 1.66.44 2.41 1.42.78.97.97 2.64.24 4.1-.35.73-.89 1.41-1.61 1.93-.72.52-1.62.83-2.55.89-.93.06-1.88-.15-2.63-.68-.76-.51-1.21-1.34-1.36-2.14-.28-1.63.38-3.1 1.26-3.94 1.85-1.58 3.49-1.63 3.45-1.48-.01.02-.09.01-.25.05s-.4.11-.69.24c-.58.25-1.44.67-2.24 1.46-.76.78-1.33 2.16-1.05 3.58.14.7.54 1.39 1.18 1.82.63.45 1.47.63 2.3.58.84-.05 1.65-.33 2.29-.79.65-.46 1.15-1.07 1.47-1.72.67-1.31.55-2.78-.11-3.67-.64-.92-1.53-1.33-2.14-1.44-.63-.13-.99-.02-.99-.07zM517.46 360.28c-.01.1-1.7-.21-4.42.05-2.69.24-6.45 1.21-9.86 3.59-3.41 2.39-5.6 5.59-6.74 8.04-1.17 2.47-1.45 4.17-1.55 4.14-.03-.01.02-.43.18-1.19.17-.75.49-1.83 1.04-3.11 1.08-2.54 3.28-5.86 6.78-8.31 3.5-2.45 7.38-3.39 10.13-3.53 1.38-.08 2.51-.01 3.27.09.76.1 1.18.2 1.17.23zM469.72 390.85c-.03-.02.1-.32.38-.85.29-.53.76-1.26 1.45-2.08 1.36-1.65 3.73-3.64 6.87-4.71 3.14-1.07 6.24-.94 8.32-.46 1.05.23 1.87.52 2.42.76.55.24.83.41.82.44-.04.09-1.24-.47-3.31-.84-2.06-.38-5.04-.44-8.08.59-3.03 1.04-5.36 2.91-6.76 4.46-1.41 1.56-2.02 2.74-2.11 2.69zM501.57 394.94c-.04.05-.72-.37-1.69-1.22s-2.2-2.18-3.27-3.84c-1.07-1.67-1.76-3.33-2.13-4.57-.37-1.24-.47-2.04-.41-2.05.16-.05.86 3.08 2.98 6.34 2.08 3.27 4.64 5.21 4.52 5.34z" fill="#263238"/><g><path d="M547.23 376.6c0-.02.08-.05.25-.1.17-.04.43-.07.77-.04.66.05 1.66.44 2.41 1.42.78.97.97 2.64.24 4.1-.35.73-.89 1.41-1.61 1.93-.72.52-1.62.83-2.55.89-.93.06-1.88-.15-2.63-.68-.76-.51-1.22-1.34-1.36-2.14-.28-1.63.38-3.1 1.26-3.94 1.85-1.58 3.49-1.63 3.45-1.48-.01.02-.09.01-.25.05s-.4.11-.69.24c-.58.25-1.44.67-2.24 1.46-.76.78-1.33 2.16-1.05 3.58.14.7.54 1.39 1.18 1.82.63.45 1.47.63 2.3.58.84-.05 1.65-.33 2.29-.79.65-.46 1.15-1.07 1.47-1.72.67-1.31.55-2.78-.11-3.67-.64-.92-1.53-1.33-2.14-1.44-.63-.13-.99-.02-.99-.07zM573.04 361.67c-.01.1-1.7-.21-4.42.05-2.69.24-6.45 1.21-9.86 3.59-3.41 2.39-5.6 5.59-6.74 8.04-1.17 2.47-1.45 4.17-1.55 4.14-.03-.01.02-.43.18-1.19.17-.75.49-1.83 1.04-3.11 1.08-2.54 3.28-5.86 6.78-8.31 3.5-2.45 7.38-3.39 10.13-3.53 1.38-.08 2.51-.01 3.27.09.76.1 1.18.2 1.17.23zM525.3 392.24c-.03-.02.1-.32.38-.85.29-.53.76-1.26 1.45-2.08 1.36-1.65 3.73-3.64 6.87-4.71 3.14-1.07 6.24-.94 8.32-.46 1.05.23 1.87.52 2.42.76.55.24.83.41.82.44-.04.09-1.24-.47-3.31-.84-2.06-.38-5.04-.44-8.08.59-3.03 1.04-5.36 2.91-6.76 4.46-1.41 1.56-2.02 2.74-2.11 2.69zM557.15 396.33c-.04.05-.72-.37-1.69-1.22s-2.2-2.18-3.27-3.84c-1.07-1.67-1.76-3.33-2.13-4.57-.37-1.24-.47-2.04-.41-2.05.16-.05.86 3.08 2.98 6.34 2.08 3.27 4.64 5.21 4.52 5.34z" fill="#263238"/></g></g><g><path d="M616.61 293.43c-44.31-43.77-99.47-54.21-99.47-54.21-32.8 19.55-54.93 52.38-71.78 91.79 28.26 26.15 64.6 51.21 95.7 53.52 49.19-12.44 75.55-91.1 75.55-91.1z" fill="#e1a04e"/><path d="M616.61 293.43c-44.31-43.77-99.47-54.21-99.47-54.21-32.8 19.55-54.93 52.38-71.78 91.79 28.26 26.15 64.6 51.21 95.7 53.52 49.19-12.44 75.55-91.1 75.55-91.1z" opacity=".4"/><path d="M600.82 328.18c-.01 0-.04-.1-.11-.3-.07-.22-.16-.52-.28-.9-.25-.82-.6-2-1.06-3.52-.91-3.1-2.23-7.59-3.89-13.23l.2.11c-5.97 1.94-13.34 4.33-21.73 7.05l.14-.13c-.02.04-.02.05-.06.11-.06.08-.21.11-.27.07-.08-.02-.15-.15-.14-.14-.03-.07-.03-.12-.04-.16l-.02-.23-.02-.44-.01-.88v-1.78c.01-1.2.01-2.41.02-3.65.01-2.47.01-5.01-.03-7.62-.04-2.61-.11-5.28-.26-8.01-.16-2.72-.37-5.51-.86-8.28l.31.2c-6.32 1.47-12.95 3.01-19.76 4.59-4.09.95-8.11 1.88-12.04 2.79l-.26.06-.05-.26c-1.78-9.33-3.47-18.2-5.04-26.38l.29.18a178.284 178.284 0 01-31.56 5.52l-.16.01-.02-.16c-.83-6.8-1.49-12.2-1.94-15.93-.21-1.83-.38-3.26-.49-4.24-.05-.47-.09-.83-.12-1.1-.02-.25-.03-.37-.02-.37.01 0 .03.12.07.37.04.27.09.63.16 1.09.14.99.33 2.4.58 4.23.49 3.72 1.2 9.12 2.09 15.91l-.18-.14c8.53-.76 19.39-2.35 31.46-5.64l.25-.07.05.25c1.57 8.18 3.28 17.04 5.08 26.37l-.31-.2c3.93-.91 7.96-1.85 12.04-2.8 6.81-1.58 13.44-3.11 19.76-4.58l.26-.06.05.26c.5 2.82.7 5.61.85 8.35.15 2.73.21 5.41.24 8.03.03 2.61.03 5.16.01 7.63l-.03 3.65v1.78l.01.87.02.43.02.2.01.04c-.02.02.05-.02-.05.03-.09.05-.1.01-.12.06 0 .06 0-.05-.05-.03-.16-.1-.12-.07-.12-.07l-.11-.05.25-.08c8.4-2.67 15.79-5.03 21.77-6.93l.15-.05.04.15c1.6 5.66 2.88 10.16 3.76 13.27.42 1.53.75 2.71.98 3.54.1.39.18.69.24.91.04.2.06.3.05.3z" fill="#e1a04e"/><path d="M592.35 342.11c-.01 0-.04-.08-.1-.23-.07-.18-.15-.41-.26-.7-.23-.65-.56-1.57-.99-2.76-.86-2.45-2.1-6-3.68-10.51l.17.09c-6.65 1.77-15.51 4.14-25.9 6.92l-.24.06-.03-.25c-.62-4.76-1.3-9.88-2.06-15.27-.77-5.39-1.57-11.06-2.61-16.9l.31.2c-6.1 1.42-12.45 2.89-18.96 4.41-4.36 1.01-8.65 2.01-12.84 2.98l-.26.06-.05-.26c-1.78-9.34-3.47-18.2-5.04-26.38l.29.18a178.284 178.284 0 01-31.56 5.52l-.16.01-.02-.16c-.83-6.8-1.49-12.2-1.94-15.93-.21-1.83-.38-3.26-.49-4.24-.05-.47-.09-.83-.12-1.09-.02-.25-.03-.37-.02-.37.01 0 .03.12.07.37.04.27.09.63.16 1.09.13.98.33 2.4.58 4.23.49 3.72 1.2 9.12 2.09 15.91l-.18-.14c8.53-.76 19.39-2.35 31.46-5.64l.24-.07.05.25c1.57 8.18 3.28 17.04 5.08 26.37l-.31-.2c4.19-.97 8.48-1.97 12.84-2.98 6.51-1.51 12.86-2.98 18.96-4.4l.26-.06.05.26c1.04 5.85 1.83 11.53 2.59 16.92.75 5.4 1.42 10.51 2.02 15.28l-.27-.18c10.41-2.72 19.29-5.03 25.94-6.77l.13-.03.04.12c1.53 4.53 2.73 8.1 3.55 10.55.4 1.2.7 2.13.92 2.78.1.3.17.54.23.72l.06.24z" fill="#fafafa"/><path d="M575.01 363.67s0-.28.04-.83c.05-.57.11-1.37.2-2.41.19-2.14.46-5.25.81-9.22l.17.13c-6.59 2.19-15.81 5.25-26.86 8.92l-.23.08-.05-.24c-2.12-11-4.63-24-7.34-38.09l.31.2-16.43 3.82c-5.24 1.21-10.38 2.41-15.37 3.56l-.26.06-.05-.26c-1.78-9.34-3.48-18.21-5.03-26.38l.29.18a178.437 178.437 0 01-31.56 5.52l-.16.01-.02-.16c-.83-6.81-1.49-12.21-1.94-15.94-.21-1.83-.38-3.25-.49-4.24-.05-.46-.09-.83-.12-1.09-.02-.25-.03-.37-.02-.37.01 0 .03.12.07.37.04.26.09.62.16 1.09.13.98.33 2.4.58 4.23.49 3.72 1.2 9.12 2.09 15.92l-.18-.14c8.52-.76 19.37-2.35 31.46-5.64l.24-.07.05.25c1.57 8.17 3.28 17.03 5.08 26.37l-.31-.2c4.99-1.16 10.13-2.35 15.37-3.57 5.63-1.3 11.14-2.58 16.43-3.81l.26-.06.05.26c2.68 14.09 5.16 27.1 7.26 38.1l-.27-.16c11.07-3.61 20.31-6.61 26.91-8.76l.19-.06-.02.19c-.4 3.97-.72 7.07-.93 9.21-.11 1.04-.2 1.84-.26 2.41-.07.54-.12.82-.12.82z" fill="#e1a04e"/><path d="M539.25 384.36c-.01 0-.03-.06-.07-.19-.04-.15-.09-.33-.16-.57-.14-.53-.33-1.27-.57-2.22-.49-1.97-1.19-4.82-2.07-8.42-.86-3.63-1.9-8.03-3.1-13.04-1.15-5.03-2.49-10.69-3.68-16.9l.28.18c-9.49 2.21-20.32 4.73-31.79 7.41l-.26.06-.05-.27c-.17-.87-.35-1.81-.53-2.75-1.58-8.25-3.1-16.2-4.52-23.63l.31.19c-11.94 3.23-22.86 4.8-31.56 5.52l-.17.01-.02-.17c-.81-6.7-1.47-12.1-1.93-15.86-.21-1.84-.38-3.28-.5-4.29l-.12-1.11c-.02-.25-.03-.38-.02-.38s.03.13.07.37c.04.27.1.64.17 1.11.14 1 .34 2.44.59 4.28.49 3.75 1.21 9.15 2.09 15.84l-.19-.16c8.67-.78 19.56-2.4 31.46-5.64l.26-.07.05.26c1.43 7.43 2.96 15.38 4.54 23.63.18.94.36 1.88.53 2.75l-.31-.2c11.48-2.65 22.31-5.16 31.81-7.35l.24-.05.04.24c1.17 6.2 2.48 11.86 3.6 16.9 1.15 5.03 2.16 9.42 2.99 13.07.83 3.61 1.49 6.46 1.95 8.44.21.96.38 1.7.5 2.24.05.24.09.43.12.58.02.12.03.19.02.19z" fill="#fafafa"/><path d="M522.36 380.78c-.03.01-.16-.48-.37-1.39-.22-.99-.51-2.28-.85-3.85-.71-3.28-1.66-7.86-2.71-13.05l.31.2c-.96.22-1.97.46-2.99.7-5.86 1.36-11.17 2.56-15.01 3.41-1.86.4-3.4.73-4.56.97-1.08.22-1.68.32-1.69.29-.01-.03.58-.21 1.64-.49 1.15-.29 2.68-.67 4.53-1.14 3.83-.94 9.12-2.2 14.98-3.55 1.02-.24 2.03-.47 2.99-.69l.26-.06.05.26c1.03 5.19 1.92 9.77 2.54 13.07.29 1.58.52 2.89.7 3.89.14.92.21 1.43.18 1.43zM485.48 362.56c-.04.01-.17-.5-.37-1.41-.22-1.01-.5-2.32-.83-3.89-.68-3.29-1.58-7.83-2.54-12.86-.06-.31-.12-.61-.17-.9l.32.2c-4.75 1.29-9.07 2.21-12.2 2.77-1.57.28-2.83.49-3.71.61-.88.12-1.36.17-1.37.14-.01-.04.47-.15 1.34-.33.96-.2 2.19-.46 3.68-.77 3.11-.66 7.4-1.63 12.14-2.92l.27-.07.05.28c.05.28.11.59.17.9.96 5.03 1.81 9.59 2.39 12.89.27 1.58.49 2.9.67 3.92.13.92.2 1.44.16 1.44zM448.37 333.75c-.14.02-.44-1.39-.66-3.14-.22-1.75-.29-3.18-.14-3.2.14-.02.44 1.39.66 3.14.22 1.75.29 3.18.14 3.2z" fill="#e8505b"/><path d="M608.29 313.57c-.01 0-.03-.08-.06-.24-.04-.19-.08-.42-.14-.73-.12-.67-.3-1.62-.52-2.85-.45-2.52-1.09-6.18-1.91-10.8l.17.12c-4.2.67-9.32 1.49-15.11 2.42l-.2.03-.03-.2c-1.52-9.08-3.34-20.01-5.35-32.02l.3.2c-6.5 1.51-13.46 3.13-20.63 4.8-3.56.83-7.07 1.64-10.51 2.44l-.25.06-.06-.25c-2.23-9.08-4.31-17.68-5.87-25.62l.27.19c-12.31 1.89-22.84 3.51-30.69 4.72l-.15.02-.02-.15c-.59-4.92-1.06-8.81-1.39-11.5-.15-1.31-.27-2.33-.35-3.05-.03-.33-.06-.59-.08-.79-.02-.18-.02-.27-.01-.27s.03.09.05.26l.12.78c.1.72.24 1.73.43 3.04.36 2.69.87 6.58 1.53 11.49l-.17-.13c7.85-1.25 18.36-2.92 30.66-4.88l.22-.04.04.22c1.58 7.9 3.67 16.51 5.91 25.58l-.31-.19c3.43-.8 6.94-1.61 10.51-2.44 7.17-1.66 14.13-3.27 20.63-4.78l.26-.06.04.26c1.97 12.01 3.76 22.96 5.25 32.05l-.23-.17c5.8-.89 10.93-1.67 15.13-2.32l.14-.02.02.14c.76 4.63 1.36 8.29 1.77 10.82.19 1.23.34 2.19.45 2.86.04.31.08.55.11.74.03.17.04.26.03.26z" fill="#fafafa"/><g><path d="M611.67 292.68c0 .01-.09.04-.28.1-.21.07-.49.15-.83.25-.72.24-1.82.48-3.17.98-2.74.89-6.62 2.45-11.12 4.94-4.51 2.48-9.55 6.03-14.58 10.61-5.03 4.58-9.99 10.24-14.48 16.68-4.46 6.47-8.1 13.04-11.1 19.15-3 6.12-5.41 11.77-7.37 16.54s-3.48 8.66-4.55 11.34c-.52 1.31-.94 2.35-1.23 3.08-.14.33-.25.59-.33.8-.08.18-.12.27-.13.27s.02-.1.08-.28c.07-.21.17-.48.28-.82.27-.75.66-1.79 1.14-3.12 1.01-2.7 2.48-6.61 4.39-11.4 1.92-4.79 4.3-10.46 7.28-16.61 2.98-6.14 6.62-12.74 11.1-19.24 4.52-6.47 9.51-12.15 14.59-16.73 5.08-4.59 10.17-8.12 14.73-10.57 4.55-2.46 8.47-3.98 11.24-4.82 1.37-.47 2.47-.68 3.2-.89.35-.08.62-.15.84-.2.2-.05.29-.06.3-.06z" fill="#263238"/></g></g><g><path d="M294.22 203.95l.14 2.7c.39-.37.9-.61 1.47-.64 1.28-.07 2.37.92 2.44 2.21.07 1.29-.91 2.39-2.19 2.46-.57.03-1.11-.15-1.53-.48l.14 2.71c.39-.37.9-.61 1.47-.64 1.28-.07 2.37.92 2.44 2.21.07 1.29-.91 2.39-2.19 2.46-.57.03-1.11-.15-1.53-.48l.14 2.71c.39-.37.9-.61 1.47-.64 1.28-.07 2.37.92 2.44 2.21.07 1.29-.91 2.39-2.19 2.46-.57.03-1.11-.15-1.53-.48l.14 2.71c.39-.37.9-.61 1.47-.64 1.28-.07 2.37.92 2.44 2.21.07 1.29-.91 2.39-2.19 2.46-.57.03-1.11-.15-1.53-.48l.14 2.71c.39-.37.9-.61 1.47-.64 1.28-.07 2.37.92 2.44 2.21.07 1.29-.91 2.39-2.19 2.46-.57.03-1.11-.15-1.53-.48l.14 2.71c.39-.37.9-.61 1.47-.64 1.28-.07 2.37.92 2.44 2.21.07 1.29-.91 2.39-2.19 2.46-.57.03-1.11-.15-1.53-.48l.09 1.68 72.09-1.73-3.65-41.99-70.51 4.49z" fill="#ebebeb"/><path d="M292.62 202.22l.14 2.7c.39-.37.9-.61 1.47-.64 1.28-.07 2.37.92 2.44 2.21s-.91 2.39-2.19 2.46c-.57.03-1.11-.15-1.53-.48l.14 2.71c.39-.37.9-.61 1.47-.64 1.28-.07 2.37.92 2.44 2.21.07 1.29-.91 2.39-2.19 2.46-.57.03-1.11-.15-1.53-.48l.14 2.71c.39-.37.9-.61 1.47-.64 1.28-.07 2.37.92 2.44 2.21.07 1.29-.91 2.39-2.19 2.46-.57.03-1.11-.15-1.53-.48l.14 2.71c.39-.37.9-.61 1.47-.64 1.28-.07 2.37.92 2.44 2.21.07 1.29-.91 2.39-2.19 2.46-.57.03-1.11-.15-1.53-.48l.14 2.71c.39-.37.9-.61 1.47-.64 1.28-.07 2.37.92 2.44 2.21s-.91 2.39-2.19 2.46c-.57.03-1.11-.15-1.53-.48l.14 2.71c.39-.37.9-.61 1.47-.64 1.28-.07 2.37.92 2.44 2.21.07 1.29-.91 2.39-2.19 2.46-.57.03-1.11-.15-1.53-.48l.09 1.68 72.08-3.86-2.1-39.23-72.05 3.86z" fill="#f5f5f5"/><path d="M365.11 206.12c.01.14-16.12 1.12-36.02 2.19-19.91 1.07-36.05 1.81-36.05 1.67-.01-.14 16.12-1.12 36.03-2.19 19.89-1.07 36.04-1.81 36.04-1.67zM365.45 212.4c.01.14-16.12 1.12-36.02 2.19-19.91 1.07-36.05 1.81-36.05 1.67-.01-.14 16.12-1.12 36.03-2.19 19.89-1.07 36.03-1.82 36.04-1.67zM365.79 218.67c.01.14-16.12 1.12-36.02 2.19-19.91 1.07-36.05 1.81-36.05 1.67-.01-.14 16.12-1.12 36.03-2.19 19.89-1.06 36.03-1.81 36.04-1.67zM366.12 224.95c.01.14-16.12 1.12-36.02 2.19-19.91 1.07-36.05 1.81-36.05 1.67-.01-.14 16.12-1.12 36.03-2.19 19.89-1.07 36.03-1.81 36.04-1.67zM366.46 231.23c.01.14-16.12 1.12-36.02 2.19-19.91 1.07-36.05 1.81-36.05 1.67-.01-.14 16.12-1.12 36.03-2.19 19.89-1.07 36.03-1.82 36.04-1.67z" fill="#e0e0e0"/><path fill="#e1a04e" d="M302.392 201.708l.5-.027 2.097 39.225-.499.027z"/><path d="M311.27 240.56c-.14.01-.73-8.77-1.31-19.6-.58-10.83-.93-19.62-.79-19.63.14-.01.73 8.77 1.31 19.6.58 10.83.94 19.62.79 19.63zM298.44 241.24c-.14.01-.73-8.77-1.31-19.6-.58-10.83-.93-19.62-.79-19.63.14-.01.73 8.77 1.31 19.6.58 10.84.94 19.63.79 19.63zM318.3 240.18c-.14.01-.73-8.77-1.31-19.6-.58-10.83-.93-19.62-.79-19.63.14-.01.73 8.77 1.31 19.6.58 10.84.93 19.62.79 19.63zM325.33 239.81c-.14.01-.73-8.77-1.31-19.6-.58-10.83-.93-19.62-.79-19.63.14-.01.73 8.77 1.31 19.6.58 10.83.93 19.62.79 19.63zM332.35 239.43c-.14.01-.73-8.77-1.31-19.6-.58-10.83-.93-19.62-.79-19.63.14-.01.73 8.77 1.31 19.6.58 10.83.94 19.62.79 19.63zM339.38 239.05c-.14.01-.73-8.77-1.31-19.6-.58-10.83-.93-19.62-.79-19.63.14-.01.73 8.77 1.31 19.6.58 10.84.94 19.63.79 19.63zM346.41 238.68c-.14.01-.73-8.77-1.31-19.6-.58-10.83-.93-19.62-.79-19.63.14-.01.73 8.77 1.31 19.6.58 10.83.93 19.62.79 19.63zM353.44 238.3c-.14.01-.73-8.77-1.31-19.6-.58-10.83-.93-19.62-.79-19.63.14-.01.73 8.77 1.31 19.6.58 10.84.93 19.62.79 19.63zM360.46 237.93c-.14.01-.73-8.77-1.31-19.6-.58-10.83-.93-19.62-.79-19.63.14-.01.73 8.77 1.31 19.6.58 10.83.94 19.62.79 19.63z" fill="#e0e0e0"/><g><path d="M359.59 214.17c0 .02-.18.04-.51.08-.4.03-.88.08-1.47.13-1.36.09-3.19.22-5.42.37-4.58.28-10.9.64-17.89.98-6.99.35-13.32.61-17.91.76-4.58.14-7.43.16-7.42 0 2.73-.14 12.01-.61 25.3-1.28 6.95-.32 13.24-.62 17.9-.83 2.23-.08 4.07-.15 5.43-.2.59-.01 1.08-.02 1.48-.03.33-.01.51 0 .51.02z" fill="#263238"/></g><g><path d="M361.05 221.34c.01.14-11.62.79-25.97 1.45-14.35.66-25.99 1.08-26 .93-.01-.14 11.62-.79 25.97-1.45 14.35-.66 25.99-1.08 26-.93z" fill="#263238"/></g><g><path d="M361.82 227.61c.01.14-11.62.79-25.97 1.45-14.35.66-25.99 1.08-26 .93-.01-.14 11.62-.79 25.97-1.45 14.35-.65 25.99-1.07 26-.93z" fill="#263238"/></g><g><path d="M300.69 206.33c.32 1.56.99 3.14 2.3 4.04 1.49 1.03 3.66.91 5.03-.27 1.37-1.18 1.8-3.31 1.01-4.94-.8-1.62-2.75-2.58-4.52-2.22" fill="#e0e0e0"/></g><g><path d="M300.52 206.32c.1 1.81 1.64 3.2 3.45 3.1 1.81-.1 3.2-1.64 3.1-3.45s-1.64-3.2-3.45-3.1-3.2 1.64-3.1 3.45z" fill="#455a64"/><path d="M298.63 205.11c.06 1.09.98 1.92 2.07 1.86s1.92-.99 1.86-2.07a1.962 1.962 0 00-2.07-1.86c-1.08.05-1.91.98-1.86 2.07z" fill="#455a64"/><path d="M300.47 206.93c.02-.08.31-.05.71-.2.39-.14.91-.5 1.12-1.09.2-.58.05-1.2-.15-1.57-.2-.38-.43-.57-.39-.63.02-.06.36.02.69.43.33.39.61 1.15.34 1.95-.29.8-1.02 1.2-1.52 1.27-.53.07-.82-.11-.8-.16z" fill="#263238"/><path d="M302.12 203.8c.07-.13.56.02 1.11-.11.55-.12.93-.47 1.05-.39.13.06-.15.7-.93.89-.79.17-1.33-.29-1.23-.39zM302.62 208.78c-.15.01-.28-.61-.8-1.09-.51-.49-1.13-.59-1.13-.74-.03-.14.79-.29 1.49.36.69.66.58 1.5.44 1.47z" fill="#263238"/></g><g><path d="M356.1 204.02c.32 1.56.99 3.14 2.3 4.04 1.49 1.03 3.66.91 5.03-.27 1.37-1.18 1.8-3.31 1.01-4.94-.8-1.62-2.75-2.58-4.52-2.22" fill="#e0e0e0"/></g><g><path d="M362.43 203.13a3.167 3.167 0 01-3 3.33 3.167 3.167 0 01-3.33-3 3.167 3.167 0 013-3.33 3.173 3.173 0 013.33 3z" fill="#e1a04e"/><path d="M364.11 201.77c.06 1.05-.75 1.94-1.8 2-1.05.06-1.94-.75-2-1.8-.06-1.05.75-1.94 1.8-2 1.05-.06 1.95.75 2 1.8z" fill="#e1a04e"/><path d="M362.54 203.71c.03.05-.24.26-.75.24-.49-.01-1.24-.32-1.6-1.07-.35-.74-.15-1.51.12-1.91.28-.43.59-.53.63-.48.05.06-.15.26-.3.65-.15.38-.24.98.02 1.52s.79.83 1.18.93c.4.09.68.04.7.12z" fill="#e1a04e"/><path d="M360.63 200.87c.1.1-.36.6-1.14.52-.78-.1-1.11-.7-.99-.77.11-.1.51.2 1.05.25.54.07 1-.12 1.08 0zM360.66 205.71c-.14.04-.33-.75.27-1.46.61-.7 1.42-.63 1.4-.49.02.14-.57.31-1.01.83-.44.51-.51 1.11-.66 1.12z" fill="#263238"/></g><g><path fill="#e0e0e0" d="M239.72 297.38l58.92 7.51-.79-21.57z"/><path fill="#455a64" d="M241.23 279.034l56.561 4.722-1.567 18.775-56.562-4.723z"/><path d="M289.86 289.39c-.01.14-9.5-.53-21.19-1.51-11.69-.98-21.16-1.88-21.15-2.03.01-.14 9.5.53 21.19 1.51 11.7.98 21.16 1.89 21.15 2.03zM289.75 294.29c-.01.14-9.5-.53-21.19-1.51-11.69-.98-21.16-1.88-21.15-2.03.01-.14 9.5.53 21.19 1.51 11.69.98 21.16 1.89 21.15 2.03z" fill="#263238"/><path fill="#ebebeb" d="M258.02 277.74l21.91 1.83-1.15.98 1.5 1.31-1.79.82 1.6 1.42-22.97-1.92 1.43-1.21-.71-1.3 1.23-.63z"/></g><g><path d="M206.31 243.77c.22.38.36.82.36 1.29 0 1.41-1.14 2.54-2.54 2.54-1.41 0-2.54-1.14-2.54-2.54 0-.47.13-.91.36-1.29H199c.23.38.36.82.36 1.29 0 1.41-1.14 2.54-2.54 2.54s-2.54-1.14-2.54-2.54c0-.47.13-.91.36-1.29h-2.95c.22.38.36.82.36 1.29 0 1.41-1.14 2.54-2.54 2.54-1.41 0-2.54-1.14-2.54-2.54 0-.47.13-.91.36-1.29h-2.95c.23.38.36.82.36 1.29 0 1.41-1.14 2.54-2.54 2.54-1.41 0-2.54-1.14-2.54-2.54 0-.47.13-.91.36-1.29h-2.95c.23.38.36.82.36 1.29 0 1.41-1.14 2.54-2.54 2.54-1.41 0-2.54-1.14-2.54-2.54 0-.47.13-.91.36-1.29h-2.95c.22.38.36.82.36 1.29 0 1.41-1.14 2.54-2.54 2.54s-2.54-1.14-2.54-2.54c0-.47.13-.91.36-1.29h-1.85v52.63l46.04 2.52-2.2-55.15h-1.08z" fill="#e0e0e0"/><defs><path id="a" d="M205.64 242.33c.22.38.36.82.36 1.29 0 1.41-1.14 2.54-2.54 2.54s-2.54-1.14-2.54-2.54c0-.47.13-.91.36-1.29h-2.95c.22.38.36.82.36 1.29 0 1.41-1.14 2.54-2.54 2.54-1.41 0-2.54-1.14-2.54-2.54 0-.47.13-.91.36-1.29h-2.95c.23.38.36.82.36 1.29 0 1.41-1.14 2.54-2.54 2.54-1.41 0-2.54-1.14-2.54-2.54 0-.47.13-.91.36-1.29h-2.95c.22.38.36.82.36 1.29 0 1.41-1.14 2.54-2.54 2.54-1.41 0-2.54-1.14-2.54-2.54 0-.47.13-.91.36-1.29h-2.95c.22.38.36.82.36 1.29 0 1.41-1.14 2.54-2.54 2.54s-2.54-1.14-2.54-2.54c0-.47.13-.91.36-1.29H169c.23.38.36.82.36 1.29 0 1.41-1.14 2.54-2.54 2.54-1.41 0-2.54-1.14-2.54-2.54 0-.47.13-.91.36-1.29h-1.85v52.63h43.84v-52.63h-.99z"/></defs><clipPath id="b"><use xlink:href="#a" overflow="visible"/></clipPath><g clip-path="url(#b)"><path d="M205.64 242.33c.22.38.36.82.36 1.29 0 1.41-1.14 2.54-2.54 2.54s-2.54-1.14-2.54-2.54c0-.47.13-.91.36-1.29h-2.95c.22.38.36.82.36 1.29 0 1.41-1.14 2.54-2.54 2.54-1.41 0-2.54-1.14-2.54-2.54 0-.47.13-.91.36-1.29h-2.95c.23.38.36.82.36 1.29 0 1.41-1.14 2.54-2.54 2.54-1.41 0-2.54-1.14-2.54-2.54 0-.47.13-.91.36-1.29h-2.95c.22.38.36.82.36 1.29 0 1.41-1.14 2.54-2.54 2.54-1.41 0-2.54-1.14-2.54-2.54 0-.47.13-.91.36-1.29h-2.95c.22.38.36.82.36 1.29 0 1.41-1.14 2.54-2.54 2.54s-2.54-1.14-2.54-2.54c0-.47.13-.91.36-1.29H169c.23.38.36.82.36 1.29 0 1.41-1.14 2.54-2.54 2.54-1.41 0-2.54-1.14-2.54-2.54 0-.47.13-.91.36-1.29h-1.85v52.63h43.84v-52.63h-.99z" fill="#f5f5f5"/></g><g clip-path="url(#b)"><path d="M160.1 297.38c-.14 0-.39-12.75-.55-28.48-.16-15.73-.17-28.49-.03-28.49s.39 12.75.55 28.48c.16 15.73.17 28.49.03 28.49z" fill="#e0e0e0"/></g><g clip-path="url(#b)"><path d="M167.14 297.31c-.14 0-.39-12.75-.55-28.48-.16-15.73-.17-28.49-.03-28.49s.39 12.75.55 28.48c.16 15.73.17 28.49.03 28.49z" fill="#e0e0e0"/></g><g clip-path="url(#b)"><path d="M170.63 297.31c-.14 0-.39-12.75-.55-28.48-.16-15.73-.17-28.49-.03-28.49s.39 12.75.55 28.48c.16 15.73.17 28.49.03 28.49z" fill="#e0e0e0"/></g><g clip-path="url(#b)"><path d="M177.74 297.31c-.14 0-.39-12.75-.55-28.48-.16-15.73-.17-28.49-.03-28.49s.39 12.75.55 28.48c.16 15.73.18 28.49.03 28.49z" fill="#e0e0e0"/></g><g clip-path="url(#b)"><path d="M184.85 297.31c-.14 0-.39-12.75-.55-28.48-.16-15.73-.17-28.49-.03-28.49s.39 12.75.55 28.48c.16 15.73.18 28.49.03 28.49z" fill="#e0e0e0"/></g><g clip-path="url(#b)"><path d="M191.96 297.31c-.14 0-.39-12.75-.55-28.48-.16-15.73-.17-28.49-.03-28.49s.39 12.75.55 28.48c.16 15.73.18 28.49.03 28.49z" fill="#e0e0e0"/></g><g clip-path="url(#b)"><path d="M198.71 297.31c-.14 0-.39-12.75-.55-28.48-.16-15.73-.17-28.49-.03-28.49s.39 12.75.55 28.48c.16 15.73.18 28.49.03 28.49z" fill="#e0e0e0"/></g><g clip-path="url(#b)"><path d="M205.46 297.31c-.14 0-.39-12.75-.55-28.48-.16-15.73-.17-28.49-.03-28.49s.39 12.75.55 28.48c.16 15.73.17 28.49.03 28.49z" fill="#e0e0e0"/></g><g clip-path="url(#b)"><path d="M174.17 297.24c-.14 0-.39-12.75-.55-28.48-.16-15.73-.17-28.49-.03-28.49s.39 12.75.55 28.48c.16 15.73.18 28.48.03 28.49z" fill="#e0e0e0"/></g><g clip-path="url(#b)"><path d="M181.21 297.16c-.14 0-.39-12.75-.55-28.48-.16-15.73-.17-28.49-.03-28.49s.39 12.75.55 28.48c.16 15.74.17 28.49.03 28.49z" fill="#e0e0e0"/></g><g clip-path="url(#b)"><path d="M188.25 297.09c-.14 0-.39-12.75-.55-28.48-.16-15.73-.17-28.49-.03-28.49s.39 12.75.55 28.48c.16 15.73.17 28.49.03 28.49z" fill="#e0e0e0"/></g><g clip-path="url(#b)"><path d="M195.28 297.02c-.14 0-.39-12.75-.55-28.48-.16-15.73-.17-28.49-.03-28.49s.39 12.75.55 28.48c.16 15.73.18 28.49.03 28.49z" fill="#e0e0e0"/></g><g clip-path="url(#b)"><path d="M202.03 297.38c-.14 0-.39-12.75-.55-28.48-.16-15.73-.17-28.49-.03-28.49s.39 12.75.55 28.48c.16 15.73.17 28.49.03 28.49z" fill="#e0e0e0"/></g><g clip-path="url(#b)"><path d="M209.36 296.88c-.14 0-.39-12.75-.55-28.48-.16-15.73-.17-28.49-.03-28.49s.39 12.75.55 28.48c.16 15.73.17 28.48.03 28.49z" fill="#e0e0e0"/></g><g clip-path="url(#b)"><path d="M216.91 290.2c0 .14-12.75.39-28.48.55-15.73.16-28.49.17-28.49.02 0-.14 12.75-.39 28.48-.54 15.73-.16 28.48-.17 28.49-.03z" fill="#e0e0e0"/></g><g clip-path="url(#b)"><path d="M217.2 293.8c0 .14-12.75.39-28.48.55-15.73.16-28.49.17-28.49.02 0-.14 12.75-.39 28.48-.55 15.73-.16 28.49-.17 28.49-.02z" fill="#e0e0e0"/></g><g clip-path="url(#b)"><path d="M216.84 283.16c0 .14-12.75.39-28.48.55-15.73.16-28.49.17-28.49.02 0-.14 12.75-.39 28.48-.55 15.73-.15 28.48-.16 28.49-.02z" fill="#e0e0e0"/></g><g clip-path="url(#b)"><path d="M216.77 276.13c0 .14-12.75.39-28.48.55-15.73.16-28.49.17-28.49.02 0-.14 12.75-.39 28.48-.55 15.73-.16 28.48-.17 28.49-.02z" fill="#e0e0e0"/></g><g clip-path="url(#b)"><path d="M216.7 269.09c0 .14-12.75.39-28.48.55-15.73.16-28.49.17-28.49.02 0-.14 12.75-.39 28.48-.55 15.73-.15 28.48-.17 28.49-.02z" fill="#e0e0e0"/></g><g clip-path="url(#b)"><path d="M216.63 262.05c0 .14-12.75.39-28.48.55-15.73.16-28.49.17-28.49.02 0-.14 12.75-.39 28.48-.55 15.73-.15 28.48-.16 28.49-.02z" fill="#e0e0e0"/></g><g clip-path="url(#b)"><path d="M216.55 255.01c0 .14-12.75.39-28.48.55-15.73.16-28.49.17-28.49.02 0-.14 12.75-.39 28.48-.54 15.74-.16 28.49-.17 28.49-.03z" fill="#e0e0e0"/></g><g clip-path="url(#b)"><path d="M216.48 247.98c0 .14-12.75.39-28.48.54-15.73.16-28.49.17-28.49.02 0-.14 12.75-.39 28.48-.54 15.74-.15 28.49-.17 28.49-.02z" fill="#e0e0e0"/></g><g clip-path="url(#b)"><path d="M216.48 245.16c0 .14-12.75.39-28.48.54-15.73.16-28.49.17-28.49.02 0-.14 12.75-.39 28.48-.54 15.74-.15 28.49-.16 28.49-.02z" fill="#e0e0e0"/></g><g clip-path="url(#b)"><path d="M216.48 251.57c0 .14-12.75.39-28.48.54-15.73.16-28.49.17-28.49.02 0-.14 12.75-.39 28.48-.54 15.74-.15 28.49-.16 28.49-.02z" fill="#e0e0e0"/></g><g clip-path="url(#b)"><path d="M216.48 258.55c0 .14-12.75.39-28.48.54-15.73.16-28.49.17-28.49.02 0-.14 12.75-.39 28.48-.55 15.74-.14 28.49-.15 28.49-.01z" fill="#e0e0e0"/></g><g clip-path="url(#b)"><path d="M216.48 265.53c0 .14-12.75.39-28.48.55-15.73.16-28.49.17-28.49.02 0-.14 12.75-.39 28.48-.54 15.74-.16 28.49-.17 28.49-.03z" fill="#e0e0e0"/></g><g clip-path="url(#b)"><path d="M216.48 272.52c0 .14-12.75.39-28.48.55-15.73.16-28.49.17-28.49.02 0-.14 12.75-.39 28.48-.54 15.74-.17 28.49-.18 28.49-.03z" fill="#e0e0e0"/></g><g clip-path="url(#b)"><path d="M216.48 279.5c0 .14-12.75.39-28.48.55-15.73.16-28.49.17-28.49.02 0-.14 12.75-.39 28.48-.55 15.74-.16 28.49-.17 28.49-.02z" fill="#e0e0e0"/></g><g clip-path="url(#b)"><path d="M216.48 286.48c0 .14-12.75.39-28.48.54-15.73.16-28.49.17-28.49.02 0-.14 12.75-.39 28.48-.55 15.74-.15 28.49-.16 28.49-.01z" fill="#e0e0e0"/></g><g clip-path="url(#b)"><path d="M205.64 242.33c.22.38.36.82.36 1.29 0 1.41-1.14 2.54-2.54 2.54s-2.54-1.14-2.54-2.54c0-.47.13-.91.36-1.29h-2.95c.22.38.36.82.36 1.29 0 1.41-1.14 2.54-2.54 2.54-1.41 0-2.54-1.14-2.54-2.54 0-.47.13-.91.36-1.29h-2.95c.23.38.36.82.36 1.29 0 1.41-1.14 2.54-2.54 2.54-1.41 0-2.54-1.14-2.54-2.54 0-.47.13-.91.36-1.29h-2.95c.22.38.36.82.36 1.29 0 1.41-1.14 2.54-2.54 2.54-1.41 0-2.54-1.14-2.54-2.54 0-.47.13-.91.36-1.29h-2.95c.22.38.36.82.36 1.29 0 1.41-1.14 2.54-2.54 2.54s-2.54-1.14-2.54-2.54c0-.47.13-.91.36-1.29H169c.23.38.36.82.36 1.29 0 1.41-1.14 2.54-2.54 2.54-1.41 0-2.54-1.14-2.54-2.54 0-.47.13-.91.36-1.29h-1.85v52.63h43.84v-52.63h-.99z" fill="none"/></g><g><path d="M181.68 249.95c.32 1.56.99 3.14 2.3 4.04 1.49 1.03 3.66.91 5.03-.27 1.37-1.18 1.8-3.31 1.01-4.94-.8-1.62-2.75-2.58-4.52-2.22" fill="#e0e0e0"/></g><g><path d="M181.6 249.94c.1 1.81 1.64 3.2 3.45 3.1 1.81-.1 3.2-1.64 3.1-3.45-.1-1.81-1.64-3.2-3.45-3.1-1.81.1-3.2 1.64-3.1 3.45z" fill="#e1a04e"/><path d="M179.72 248.73c.06 1.09.98 1.92 2.07 1.86 1.09-.06 1.92-.98 1.86-2.07a1.962 1.962 0 00-2.07-1.86c-1.09.05-1.92.98-1.86 2.07z" fill="#e1a04e"/><path d="M181.55 250.55c.02-.08.31-.05.71-.2.39-.14.91-.5 1.12-1.09.2-.58.05-1.2-.15-1.57-.2-.38-.43-.57-.39-.63.03-.06.36.02.69.43.33.39.61 1.15.34 1.95-.29.8-1.02 1.2-1.52 1.27-.52.07-.82-.11-.8-.16z" fill="#263238"/><path d="M183.2 247.42c.07-.13.56.02 1.11-.11.55-.12.93-.47 1.05-.38.13.06-.15.7-.93.89-.79.17-1.32-.29-1.23-.4zM183.7 252.4c-.15.01-.28-.61-.8-1.09-.51-.49-1.13-.59-1.13-.74-.03-.14.79-.29 1.49.36.69.67.59 1.5.44 1.47z" fill="#263238"/></g><g><path d="M201.7 261.13c0 .14-7 .26-15.62.26-8.63 0-15.62-.12-15.62-.26s6.99-.26 15.62-.26c8.62 0 15.62.12 15.62.26z" fill="#263238"/></g><g><path d="M201.7 264.38c0 .14-7 .26-15.62.26-8.63 0-15.62-.12-15.62-.26s6.99-.26 15.62-.26c8.62 0 15.62.11 15.62.26z" fill="#263238"/></g><g><path d="M201.7 267.63c0 .14-7 .26-15.62.26-8.63 0-15.62-.12-15.62-.26s6.99-.26 15.62-.26c8.62 0 15.62.11 15.62.26z" fill="#263238"/></g><g><path d="M201.7 270.87c0 .14-7 .26-15.62.26-8.63 0-15.62-.12-15.62-.26s6.99-.26 15.62-.26c8.62 0 15.62.12 15.62.26z" fill="#263238"/></g><g><path d="M201.7 274.12c0 .14-7 .26-15.62.26-8.63 0-15.62-.12-15.62-.26s6.99-.26 15.62-.26c8.62 0 15.62.12 15.62.26z" fill="#263238"/></g><g><path d="M201.7 277.37c0 .14-7 .26-15.62.26-8.63 0-15.62-.12-15.62-.26s6.99-.26 15.62-.26c8.62 0 15.62.12 15.62.26z" fill="#263238"/></g><g><path d="M201.7 280.62c0 .14-7 .26-15.62.26-8.63 0-15.62-.12-15.62-.26s6.99-.26 15.62-.26c8.62 0 15.62.11 15.62.26z" fill="#263238"/></g></g></g><g><path d="M124.53 430.15c-.47 0-.9-.32-1.03-.79l-35.55-135.5c-.15-.57.19-1.15.76-1.3.57-.15 1.15.19 1.3.76l35.55 135.5c.15.57-.19 1.15-.76 1.3-.09.02-.18.03-.27.03zM115.13 433.5c-.47 0-.9-.32-1.03-.79L78.55 297.2c-.15-.57.19-1.15.76-1.3.57-.15 1.15.19 1.3.76l35.55 135.5c.15.57-.19 1.15-.76 1.3-.08.03-.18.04-.27.04zM82.82 291.32l-1.71-1.27 91.29-122.86 83.27 15.96-.4 2.09-81.96-15.7z" fill="#263238"/><path fill="#263238" d="M88.999 292.359l89.806-121.287 1.712 1.268L90.71 293.626z"/><path d="M170.13 172.83a6.026 6.026 0 007.66 3.77 6.026 6.026 0 003.77-7.66 6.026 6.026 0 00-7.66-3.77c-3.16 1.08-4.85 4.51-3.77 7.66z" fill="#e1a04e"/><g><path fill="#e1a04e" d="M251.74 176.28l-1.49-8.68 6.42-.48.47 8.38z"/><path d="M251.74 176.28l-1.49-8.68 6.42-.48.47 8.38z" opacity=".3"/><path fill="#e1a04e" d="M246.48 175.68l-5.94 32.2-15 42.55 84.54-12.19-34.12-37.14-14.24-27.62-15.24 2.2"/></g><g><path d="M76.9 294.92a6.711 6.711 0 0013.42 0 6.711 6.711 0 00-13.42 0z" fill="#e1a04e"/></g><g><path d="M97.76 457.26c-.02-.45-.07-.89-.07-1.34 0-14.82 12.01-26.83 26.83-26.83 14.82 0 26.83 12.01 26.83 26.83 0 .45-.05.89-.07 1.34H97.76z" fill="#e1a04e"/></g></g><g><path d="M244.12 447.21c-.33.07-1.73 1.5.28 3.77s14.12 8.48 16.36 4.77c2.24-3.71-3.16-6.29-3.16-6.29l-13.48-2.25z" fill="#ffbe9d"/><path d="M257.43 443.21s12.5-1.38 17.6-.73c5.54.71 11.4-2.09 14.88-5.9 3.48-3.82 4.39-8.84 4.39-8.84l7.95-5.57s.86-18.91-11.75-15.85l-14.73.52s-28.98 4.8-33.47 8.41c0 0-5.46 5.3-7.05 7.36-.6.77-1.12 8.57 4.42 11.22 0 0-3.26 4.18-.39 6.53l1.35 1.03s-1.87 4.16-.11 5.36c1.76 1.19 15.67 5.41 19.62 2.66 3.96-2.75-.62-5.92-2.71-6.2" fill="#ffbe9d"/><path d="M241.85 433.1c.01-.04.59.04 1.64.18 1.05.14 2.57.32 4.45.46.94.07 1.97.12 3.08.15s2.3-.01 3.57.08c1.26.11 2.64.35 3.83 1.21 1.12.83 2.09 2.24 1.87 3.86-.11.79-.56 1.48-1.12 1.98-.57.49-1.23.82-1.89 1.05-1.34.46-2.66.59-3.92.72-2.52.21-4.79.07-6.68-.13-1.89-.2-3.4-.45-4.45-.63-1.04-.18-1.62-.3-1.61-.34.01-.04.59.02 1.64.14 1.05.11 2.57.31 4.45.46 1.88.15 4.13.25 6.6.02 1.23-.14 2.54-.29 3.79-.73.62-.22 1.22-.53 1.72-.96.48-.43.86-1.02.95-1.67.19-1.32-.64-2.61-1.66-3.37-1.04-.77-2.35-1.03-3.56-1.15-1.23-.11-2.42-.08-3.54-.13-1.12-.04-2.16-.12-3.1-.21-1.89-.18-3.41-.43-4.45-.62-1.05-.19-1.62-.33-1.61-.37z" fill="#eb996e"/><path d="M240.83 424.07c.01-.04.59.04 1.63.18 1.04.14 2.56.34 4.43.5 1.87.16 4.11.29 6.6.29 1.23.02 2.62-.07 3.95.59.65.33 1.22.9 1.5 1.61.29.7.34 1.49.21 2.24-.28 1.53-1.35 2.73-2.53 3.47-1.19.76-2.53 1.11-3.79 1.24-2.54.22-4.78-.17-6.65-.31-1.81-.18-3.31-.34-4.44-.45-1.05-.12-1.63-.2-1.62-.24 0-.04.59-.02 1.64.03 1.14.07 2.64.17 4.46.29 1.88.09 4.13.44 6.57.2 1.21-.13 2.47-.48 3.57-1.19 1.09-.69 2.05-1.79 2.29-3.13.27-1.33-.26-2.76-1.43-3.3-1.14-.58-2.48-.54-3.71-.56-2.5-.03-4.75-.19-6.63-.4a56.72 56.72 0 01-4.43-.67c-1.06-.21-1.62-.36-1.62-.39z" fill="#eb996e"/><path d="M247.28 425.17c-.15.03-.5-1.06-1.14-2.31-.63-1.25-1.31-2.18-1.2-2.27.1-.1 1 .72 1.66 2.04.69 1.31.82 2.52.68 2.54z" fill="#eb996e"/><path d="M285.52 407.08l-11.82-1.57s-33.4-6.81-33.73-5.93c-.33.88-1.97 1.19-.74 4.77 1.24 3.58 20.51 6.76 21.37 7.9.86 1.14 1.47 7.77 9.04 10.82 7.57 3.04 12.26 2.02 12.26 2.02" fill="#ffbe9d"/><path d="M281.9 425.08c0 .01-.08.04-.25.07-.17.03-.43.07-.77.11-.68.07-1.68.1-2.97 0-1.29-.1-2.86-.34-4.63-.82-1.76-.5-3.78-1.11-5.81-2.26-2.03-1.13-3.92-3.01-5.21-5.44-.66-1.2-1.11-2.57-1.61-3.89-.06-.17-.14-.31-.22-.44-.06-.09-.19-.14-.35-.22-.32-.14-.67-.25-1.01-.36-.7-.21-1.43-.41-2.16-.6-2.94-.76-6.05-1.5-9.23-2.44-1.59-.47-3.2-.98-4.8-1.63-.8-.33-1.59-.69-2.35-1.16-.38-.23-.74-.51-1.08-.85-.15-.19-.31-.37-.41-.61-.11-.23-.15-.43-.22-.65-.24-.85-.44-1.79-.16-2.72.13-.47.44-.87.72-1.19.14-.16.27-.31.33-.46.03-.04-.02.02.08-.13.12-.12.15-.1.2-.12.1-.03.14-.02.22-.03.12-.01.24-.01.35 0 1.75.11 3.39.41 5.04.66 3.27.54 6.41 1.12 9.4 1.69 5.98 1.14 11.35 2.22 15.85 3.14 1.13.22 2.2.48 3.21.65 1.02.14 1.99.28 2.9.41 1.8.26 3.35.48 4.64.66 1.24.19 2.22.33 2.93.44.31.05.56.09.76.13.17.03.26.05.26.06 0 .01-.09.01-.26-.01-.2-.02-.46-.05-.77-.08-.71-.08-1.7-.2-2.94-.34-1.29-.16-2.85-.35-4.65-.57-.91-.11-1.88-.24-2.9-.37-1.03-.16-2.1-.4-3.23-.61-4.53-.87-9.9-1.89-15.87-3.03-2.99-.55-6.13-1.12-9.39-1.66-1.63-.25-3.3-.55-4.97-.65h-.3a.46.46 0 01-.1.01c-.01-.02.01.04-.03-.04-.06-.09-.01-.08-.05-.12-.01-.01-.03-.02-.04-.03.4.15.1.05.19.09l-.02.05c-.11.25-.27.43-.41.59-.28.32-.51.63-.62 1-.22.75-.07 1.61.17 2.42.13.44.23.77.52 1.06.28.28.61.54.97.76.71.44 1.49.8 2.27 1.12 1.57.64 3.17 1.15 4.75 1.62 3.16.94 6.27 1.68 9.21 2.46.74.2 1.46.39 2.18.62.36.11.71.23 1.06.38.16.08.39.17.54.38.12.18.2.36.26.53.51 1.38.93 2.68 1.57 3.86 1.23 2.37 3.04 4.2 5.01 5.32 1.96 1.14 3.96 1.78 5.7 2.29 1.75.5 3.3.77 4.57.9 1.27.13 2.27.13 2.94.1.34-.01.59-.04.77-.05.13 0 .22-.01.22 0zM253.79 442.62c0-.03.44-.05 1.23.06s1.92.36 3.23.96c.65.31 1.34.67 2.02 1.2.65.52 1.37 1.26 1.48 2.32.12 1.06-.57 2.09-1.48 2.64-.94.59-2.09.69-3.17.66-4.32-.26-8.18-.9-10.92-1.61-1.37-.35-2.46-.71-3.2-.98-.74-.27-1.14-.46-1.13-.49.01-.04.43.08 1.19.3.76.22 1.85.51 3.22.82 2.73.61 6.59 1.19 10.85 1.45 1.04.04 2.09-.07 2.88-.57.8-.48 1.36-1.33 1.27-2.17-.07-.84-.67-1.53-1.27-2.03-.62-.51-1.29-.88-1.91-1.2-2.51-1.24-4.32-1.25-4.29-1.36z" fill="#eb996e"/><path d="M340.74 374.35s14.81-24.38 18.14-40.47 20.53-41.61 26.08-48.27c5.55-6.66 27.74-14.43 27.74-14.43l8.18-4.41 63.39-5.57s42.17 4.44 54.93 16.09c12.76 11.65 22.75 38.29 22.75 51.6 0 13.32 12.89 128.64 12.89 128.64l-156.21-.21 3.5-56.86s-18.87-12.76-23.86-23.86c-4.99-11.1-2.22-5.55-2.22-5.55s-17.71 37.65-23.81 42.09c-6.1 4.44-77.05 26.21-77.05 26.21l-9.72-37.23 55.27-27.77z" fill="#e1a04e"/><path d="M525.17 281.93c-1.71.53-22.87 55.18-24.36 60.15-1.49 4.97 0 36.29 0 36.29l6.96 12.93s-1.99 9.45-.5 13.92l-31.32 5.97s-7.95-5.47-15.41 0l-36.95 3.12s10.85.12 7.62 16.76c-3.16 16.3-5.57 19.88-5.57 19.88l129.85-2.96s14.42-.71 12.23-28.46c-2.2-27.74-8.39-104.26-8.39-104.26s-9.47-41-34.16-33.34z" fill="#e1a04e"/><path d="M500.52 374c-.02.01-.12-.23-.31-.67-.2-.5-.46-1.15-.79-1.97-.34-.85-.75-1.91-1.15-3.15-.41-1.24-.93-2.64-1.35-4.23-.46-1.58-.96-3.31-1.38-5.21-.48-1.88-.86-3.91-1.27-6.05-.73-4.29-1.31-9.06-1.52-14.09-.18-5.03.02-9.83.43-14.17.26-2.16.47-4.23.82-6.13.16-.95.29-1.88.47-2.76.19-.88.36-1.72.53-2.53.31-1.62.73-3.05 1.05-4.32.31-1.27.64-2.35.93-3.22.27-.84.49-1.51.65-2.02.16-.46.24-.7.26-.69.02.01-.04.25-.16.72-.14.52-.33 1.19-.56 2.04-.26.88-.56 1.96-.85 3.24-.3 1.27-.69 2.7-.97 4.32-.16.81-.33 1.65-.5 2.53-.17.88-.29 1.81-.44 2.76-.33 1.9-.52 3.96-.76 6.11-.38 4.32-.56 9.09-.39 14.1.21 5 .77 9.75 1.47 14.03.39 2.13.75 4.16 1.22 6.04.4 1.89.88 3.62 1.32 5.2.4 1.59.9 2.99 1.28 4.24.37 1.25.75 2.31 1.06 3.17.29.83.52 1.49.7 2 .15.46.22.71.21.71zM545.7 433.27c-.02.01-.13-.12-.33-.38-.23-.31-.52-.69-.87-1.15-.37-.51-.82-1.12-1.39-1.8-.56-.69-1.17-1.49-1.92-2.32-.73-.84-1.53-1.76-2.46-2.69-.89-.97-1.92-1.92-2.98-2.93a76.62 76.62 0 00-7.47-5.99 75.98 75.98 0 00-8.24-4.88c-1.33-.64-2.58-1.27-3.8-1.76-1.2-.54-2.34-.96-3.39-1.35-1.04-.41-2.01-.7-2.85-.98-.84-.29-1.57-.5-2.17-.66-.55-.16-1.01-.3-1.38-.41-.31-.1-.48-.16-.47-.18 0-.02.18.01.5.07.38.08.85.19 1.41.31.61.13 1.36.32 2.21.58.85.26 1.83.52 2.88.91 1.06.37 2.22.78 3.43 1.3 1.23.48 2.5 1.09 3.84 1.72 2.65 1.33 5.5 2.95 8.32 4.88 2.81 1.96 5.33 4.05 7.5 6.06 1.06 1.04 2.09 2 2.97 2.99.92.95 1.71 1.89 2.43 2.75.74.84 1.33 1.67 1.87 2.38.55.7.98 1.33 1.32 1.86.32.48.58.88.79 1.21.18.3.26.45.25.46zM556.63 425.98c-.08.07-1.23-1.24-3.39-3-1.08-.89-2.44-1.84-4.01-2.8a36.53 36.53 0 00-5.39-2.6c-1.99-.74-3.95-1.26-5.76-1.62-1.81-.33-3.47-.52-4.86-.57-2.79-.12-4.52.1-4.53 0 0-.04.42-.11 1.21-.21.39-.05.87-.11 1.43-.12.56-.02 1.2-.07 1.9-.04 1.41 0 3.09.15 4.94.46 1.84.34 3.83.85 5.86 1.61 2.01.78 3.85 1.72 5.45 2.68 1.58.99 2.94 1.99 4 2.93.55.44.99.91 1.4 1.29.41.38.73.74.99 1.04.51.59.79.93.76.95zM544.62 407.71c-.07.09-1.6-1.12-4.4-2.51-.7-.34-1.47-.71-2.33-1.02-.84-.36-1.79-.63-2.77-.94-1.98-.54-4.21-.98-6.58-1.16-2.37-.15-4.64-.02-6.68.25-1.01.18-1.98.31-2.87.56-.9.19-1.71.45-2.45.69-2.96.99-4.64 1.99-4.7 1.88-.02-.03.4-.28 1.17-.71.38-.22.86-.48 1.44-.72.58-.25 1.22-.57 1.97-.8.74-.27 1.56-.55 2.47-.76.89-.27 1.87-.42 2.9-.61 2.07-.3 4.37-.44 6.79-.29 2.41.18 4.67.64 6.68 1.21.99.33 1.94.62 2.79 1 .87.33 1.64.73 2.34 1.09.71.34 1.31.74 1.84 1.07.54.32.98.63 1.33.91.71.52 1.09.83 1.06.86zM468.68 448.69c-.12-.03.65-2.09.92-5.56.17-1.73.13-3.81-.05-6.11-.21-2.29-.65-4.79-1.31-7.37-.68-2.57-1.57-4.95-2.49-7.06-1-2.07-1.96-3.92-2.97-5.34-1.95-2.89-3.61-4.32-3.52-4.41.02-.03.43.33 1.14 1.01.37.32.77.78 1.22 1.31.23.27.47.55.73.85.24.31.48.66.74 1.02 1.06 1.41 2.07 3.26 3.11 5.35.95 2.13 1.86 4.53 2.56 7.13.66 2.61 1.09 5.14 1.28 7.46.15 2.32.16 4.43-.06 6.18-.05.43-.09.85-.14 1.25-.08.39-.15.75-.22 1.1-.14.69-.25 1.28-.42 1.74-.31.95-.49 1.46-.52 1.45zM446.91 411.16c-.01 0-.03-.1-.06-.29-.04-.22-.08-.5-.14-.85-.11-.79-.27-1.89-.47-3.29-.4-2.86-.94-7.01-1.55-12.13-1.23-10.25-2.7-24.45-3.85-40.17-1.14-15.72-1.75-29.99-2.02-40.31-.14-5.16-.21-9.34-.22-12.23 0-1.42-.01-2.53-.01-3.33 0-.36.01-.64.01-.86.01-.19.01-.29.02-.29s.02.1.03.29c.01.22.02.51.04.86.03.8.06 1.91.11 3.32.09 2.92.22 7.09.39 12.22.36 10.32 1.03 24.57 2.17 40.29 1.15 15.71 2.56 29.91 3.7 40.17.58 5.1 1.06 9.24 1.39 12.15.16 1.41.29 2.51.38 3.3.03.35.06.64.08.86 0 .19.01.29 0 .29zM395.9 371.77c-.03.01-.27-.53-.68-1.53-.4-1-1-2.43-1.75-4.2-1.5-3.53-3.74-8.34-6.42-13.56-2.68-5.17-5.11-9.85-6.92-13.33-.87-1.71-1.56-3.11-2.02-4.08-.46-.97-.7-1.52-.67-1.53.03-.02.33.5.85 1.44.55 1.02 1.29 2.37 2.17 4 1.82 3.39 4.37 8.04 7.05 13.27 2.68 5.23 4.87 10.08 6.29 13.65.71 1.79 1.26 3.25 1.6 4.27.36 1.02.53 1.59.5 1.6z" fill="#263238"/><path d="M387.92 353.29c-.01.03-.33-.03-.91-.17-.57-.14-1.4-.38-2.4-.71-2.01-.65-4.75-1.71-7.64-3.14-2.9-1.44-5.39-2.97-7.13-4.18-.87-.6-1.56-1.11-2.02-1.48-.46-.37-.71-.59-.69-.61.05-.06 1.13.67 2.91 1.79a84.54 84.54 0 007.16 4.02c2.87 1.42 5.57 2.52 7.53 3.26 1.97.73 3.21 1.14 3.19 1.22zM374.51 387.44c-.02.03-.4-.21-1.07-.65-.67-.45-1.65-1.09-2.87-1.83-2.45-1.5-5.98-3.37-10.08-4.91a60.9 60.9 0 00-10.83-2.92 83.18 83.18 0 00-3.37-.51c-.8-.1-1.24-.18-1.24-.21 0-.04.45-.03 1.26.01.81.03 1.98.15 3.41.34 2.87.39 6.8 1.25 10.95 2.8 4.15 1.56 7.68 3.5 10.1 5.08 1.21.79 2.17 1.47 2.8 1.98.62.51.96.8.94.82zM482.63 261.28c.02 0 0 .28-.06.81-.07.58-.15 1.35-.26 2.32-.26 2.01-.62 4.92-1.23 8.5-.61 3.57-1.45 7.82-2.8 12.44-1.39 4.59-3.31 9.57-6.29 14.28-1.54 2.48-3.36 4.68-5.21 6.68l-.2.22-.18-.25c-2.68-3.59-6.1-6.22-9.49-7.87-1.68-.87-3.4-1.4-5-1.84-1.62-.36-3.15-.6-4.55-.61-2.8-.07-5.03.41-6.48.91-1.45.51-2.22.89-2.24.84-.01-.01.18-.11.55-.29.37-.16.89-.48 1.64-.72 1.45-.56 3.7-1.1 6.55-1.07 1.42-.01 2.98.21 4.63.56 1.63.43 3.38.96 5.1 1.82 3.46 1.65 6.95 4.31 9.71 7.97l-.39-.03c1.82-1.98 3.62-4.15 5.14-6.6 2.94-4.65 4.86-9.59 6.27-14.14 1.37-4.58 2.24-8.8 2.9-12.36.66-3.56 1.07-6.46 1.39-8.46l.36-2.31c.06-.53.12-.81.14-.8z" fill="#263238"/><path fill="#e1a04e" d="M483.48 261.91l-9.63-12.77-10.47.33-34.02 17.97z"/><path d="M438.62 297.71c0 .02-.19.01-.55-.01-.36-.03-.89-.1-1.57-.26-1.35-.29-3.24-1.05-5.37-2.3-1.06-.64-2.25-1.23-3.65-1.51-1.39-.3-2.95-.34-4.51-.01-3.12.63-6.25 3.07-7.55 6.57l-.55 1.47.04-1.56.03-1.22c.12-7.87.13-15.02.45-20.18.14-2.58.35-4.67.56-6.1.09-.72.2-1.27.28-1.64.08-.37.13-.57.14-.56.05.01-.09.8-.23 2.23-.15 1.43-.3 3.52-.4 6.09-.23 5.16-.18 12.29-.3 20.18l-.03 1.23-.5-.1c1.38-3.68 4.66-6.21 7.94-6.85 3.31-.69 6.41.29 8.44 1.67 2.1 1.28 3.92 2.07 5.24 2.42 1.33.34 2.1.39 2.09.44z" fill="#263238"/><path d="M473.85 187.3v76.67c0 4.38-1.55 8.62-4.37 11.97a55.95 55.95 0 01-15.4 12.75l-15.46 8.71-12.79-11.42c-3.76-3.36-5.99-8.1-6.19-13.14-.22-5.59-.22-11.21-.22-11.21s-21.67-1.56-23.71-22.93c-.96-10.06-1.26-30.67-1.31-49.67-.06-21.67 16.56-39.74 38.15-41.53l.61-.05c22.36-.55 40.76 17.47 40.69 39.85z" fill="#ffbe9d"/><path d="M419.35 261.32s13.61-.02 27.24-10.24c0 0-5.32 15.94-26.83 15.78l-.41-5.54z" fill="#eb996e"/><path d="M401.59 203.39c.08 1.62 1.51 2.89 3.2 2.84 1.69-.05 3-1.4 2.92-3.02-.08-1.62-1.51-2.89-3.2-2.84-1.69.05-3 1.4-2.92 3.02zM399.85 197.65c.41.37 2.58-1.54 5.87-1.8 3.28-.31 5.83 1.18 6.16.75.16-.19-.28-.88-1.4-1.56-1.1-.68-2.92-1.27-4.97-1.09-2.05.18-3.71 1.08-4.63 1.93-.95.86-1.23 1.6-1.03 1.77zM432.87 202.06c.08 1.62 1.51 2.89 3.2 2.84 1.69-.05 3-1.4 2.92-3.02-.08-1.62-1.51-2.89-3.2-2.84-1.68.05-2.99 1.41-2.92 3.02zM432.22 195.59c.41.37 2.59-1.54 5.87-1.8 3.28-.31 5.83 1.18 6.16.75.16-.19-.28-.88-1.4-1.56-1.1-.68-2.92-1.27-4.97-1.09-2.05.18-3.71 1.08-4.63 1.93-.95.85-1.23 1.6-1.03 1.77zM422.3 220.96c0-.19-2.07-.37-5.42-.52-.85-.02-1.65-.12-1.84-.68-.25-.59.03-1.52.35-2.53.62-2.1 1.27-4.29 1.95-6.6 2.69-9.39 4.57-17.08 4.19-17.18-.38-.1-2.87 7.42-5.57 16.81-.64 2.31-1.26 4.52-1.85 6.63-.24.98-.7 2.11-.16 3.33.28.61.93 1.01 1.48 1.11.55.12 1.03.09 1.44.08 3.37-.11 5.44-.27 5.43-.45z" fill="#263238"/><g><path d="M432.17 222.43c-.54.01-.25 3.58-3.09 6.37s-6.68 2.71-6.66 3.21c-.03.23.9.62 2.51.53 1.58-.08 3.84-.77 5.58-2.48 1.73-1.71 2.36-3.85 2.36-5.32.01-1.5-.46-2.35-.7-2.31z" fill="#263238"/></g><g><path d="M430.3 182.77c.4.87 3.65.17 7.54.32 3.9.07 7.1.94 7.55.1.2-.4-.42-1.2-1.74-1.96s-3.38-1.42-5.71-1.48c-2.34-.06-4.43.48-5.78 1.17-1.38.68-2.03 1.44-1.86 1.85z" fill="#263238"/></g><g><path d="M400.27 188.03c.64.7 2.84-.26 5.56-.53 2.71-.36 5.07.09 5.54-.74.2-.4-.22-1.12-1.29-1.74-1.05-.62-2.76-1.06-4.63-.85-1.87.21-3.43 1.03-4.32 1.87-.89.85-1.14 1.65-.86 1.99z" fill="#263238"/></g><g><path d="M448.68 165.76c.04.03.08.06.12.08 3.63 2.41 6.2 6.12 7.16 10.37.03.15.07.29.1.43 1.34 6.03 1.7 12.25 3.1 18.27 1.4 6.02 1.14 10.62 7.17 11.98 3.8.86 7.04-1.26 8.4-3.41.52-.83.54-1.88.53-2.86-.08-14.83 2.9-20.59 1.6-35.99-.35-4.19-2.65-7.97-6.27-10.13-3.42-2.04-7.55-4.12-11-2.12s-7.53 9.09-10.08 12.16" fill="#263238"/></g><g><path d="M467.43 197.57c.35-.19 14.34-5.56 15.08 9.1.74 14.67-14.13 12.39-14.18 11.97-.04-.42-.9-21.07-.9-21.07z" fill="#ffbe9d"/><path d="M472.54 212.86c.06-.05.26.17.71.34.43.17 1.16.27 1.91-.06 1.52-.65 2.7-3.17 2.64-5.82a8.376 8.376 0 00-.9-3.62c-.5-1.05-1.23-1.76-2.02-1.86-.79-.14-1.31.35-1.47.78-.18.42-.07.71-.14.74-.04.04-.33-.23-.24-.84.05-.29.2-.65.53-.95.34-.3.85-.48 1.39-.45 1.13.02 2.21 1.01 2.78 2.14a8.635 8.635 0 011.09 4.04c.06 2.96-1.32 5.8-3.41 6.52-1.02.32-1.89.05-2.36-.27-.47-.34-.56-.66-.51-.69z" fill="#eb996e"/></g><g><path d="M460.27 154.6c3.12-6.15-7.45-13.74-14.85-15.41-7.41-1.68-16.63 2.63-23.61 5.61-4.41 1.88-8.75 4.35-13.54 4.55-3.21.13-6.36-.78-9.47-1.6-3.11-.82-6.33-1.56-9.51-1.07-3.18.48-6.33 2.45-7.29 5.52-.97 3.06 1.11 6.98 4.31 7.16-4.23-1.89-9.85 1.52-10.13 6.14-.28 4.63 4.88 8.68 9.31 7.32-2.21-1.4-5.18 1.46-4.71 4.04.47 2.58 2.98 4.27 5.46 5.12 6.32 2.17 13.36.73 19.5-1.92 6.14-2.65 11.72-6.44 17.79-9.24 6.07-2.8 16.21-7.76 22.68-6.07 4.76 1.25 8.44 6.55 10.95 5.11 2.43-1.4 3.81-4.17 4.08-6.96.29-2.79-.34-5.58-.97-8.3" fill="#263238"/></g><g><path d="M384.51 159.09c.12-.08.84 1.02 2.56 2.6 1.71 1.55 4.55 3.53 8.56 4.56 3.94 1.02 9.19 1.02 13.9-1.72 4.79-2.64 8.68-7.45 13.23-12.06 4.54-4.64 10.05-8.26 15.79-9.26 5.7-1.02 11.19.65 14.39 3.69 3.22 3.07 4.13 6.8 4.1 9.18-.01 1.22-.24 2.14-.41 2.74-.22.6-.36.89-.4.88-.14-.04.37-1.29.25-3.6-.14-2.25-1.16-5.7-4.23-8.44-3.03-2.7-8.14-4.16-13.46-3.13-5.35 1.01-10.57 4.44-15 8.97-4.47 4.51-8.48 9.45-13.61 12.2-5.1 2.87-10.73 2.74-14.82 1.54-4.18-1.21-7.04-3.42-8.68-5.14-.82-.88-1.39-1.61-1.71-2.15-.35-.54-.5-.83-.46-.86z" fill="#455a64"/></g><g><path d="M471.11 196.63c-.05.05-.66-.35-1.31-1.47-.65-1.1-1.24-2.94-1.17-5.24-.07-4.74 3.68-10.14 3.67-16.7.06-3.24-.77-6.33-2.34-8.6-1.56-2.26-3.83-3.63-5.82-4.25a9.542 9.542 0 00-4.94-.26c-1.16.28-1.77.61-1.83.5-.04-.06.48-.56 1.67-1.04 1.18-.44 3.12-.77 5.38-.19 2.23.55 4.79 1.94 6.64 4.46 1.83 2.5 2.76 5.9 2.7 9.39-.01 3.5-1.01 6.74-2.06 9.45-1.03 2.73-1.89 5.16-2.04 7.28-.43 4.37 1.65 6.58 1.45 6.67z" fill="#455a64"/></g><g><path d="M467.79 218.19l-2.38-2.21c-.87-.8-.92-2.16-.12-3.02l8.94-9.65c.8-.87 2.16-.92 3.02-.12l2.38 2.21c.87.8.92 2.16.12 3.02l-8.94 9.65c-.8.87-2.15.92-3.02.12z" fill="#263238"/></g><g><path d="M562.06 332.17s.03.2.06.58c.03.4.07.97.13 1.72.11 1.53.27 3.78.47 6.71.4 5.88.97 14.47 1.71 25.35.72 10.9 1.59 24.09 2.59 39.16.25 3.77.5 7.65.77 11.65.15 1.99.22 4.03.32 6.09.08 1.03 0 2.07-.03 3.12-.06 1.04-.01 2.1-.18 3.15-.13 1.05-.26 2.11-.39 3.18-.23 1.05-.45 2.11-.68 3.17-.3 1.04-.66 2.08-.99 3.13-.46 1-.84 2.05-1.38 3.02-2.09 3.89-5.37 7.53-9.91 9.03l-.02.01h-.04c-29.17-.01-62.54-.01-97.83-.02-10.53-.01-20.9-.01-31.02-.02h-.34l.09-.33c.95-3.38 1.89-6.73 2.82-10.05.47-1.66.93-3.31 1.39-4.96.47-1.65.94-3.27 1.16-4.93.5-3.31.16-6.71-.86-9.82-.52-1.55-1.27-3.02-2.34-4.22-1.04-1.2-2.49-2.11-3.99-2.34l-2.05-.32 2.05-.17c12.92-1.09 25.28-2.12 36.95-3.1l-.11.04c2.33-1.68 5.18-2.6 7.96-2.45 2.78.13 5.43 1.02 7.71 2.45l-.16-.03c11.29-2.14 21.76-4.12 31.32-5.93l-.14.24c-.4-1.22-.49-2.47-.54-3.68-.04-1.21 0-2.41.1-3.58.19-2.34.52-4.58.95-6.75l.02.11c-2.51-4.69-4.82-8.98-6.94-12.94l-.02-.03v-.03c-.49-11.53-.66-20.61-.58-26.82.03-3.1.15-5.48.32-7.08.08-.8.16-1.4.27-1.8.09-.4.14-.6.14-.6s-.03.21-.1.61c-.09.4-.16 1-.23 1.8-.14 1.6-.23 3.97-.24 7.07-.03 6.2.18 15.28.71 26.8l-.02-.06c2.14 3.95 4.45 8.23 6.98 12.91l.03.05-.01.06c-.42 2.15-.75 4.39-.93 6.71-.09 1.16-.13 2.34-.09 3.54.05 1.19.15 2.42.53 3.58l.07.2-.21.04c-9.56 1.83-20.03 3.84-31.31 6l-.08.02-.08-.05c-2.19-1.37-4.8-2.25-7.48-2.36-2.69-.14-5.42.74-7.67 2.37l-.05.04-.06.01c-11.67.99-24.03 2.04-36.95 3.14v-.49c1.73.27 3.2 1.24 4.32 2.5 1.12 1.27 1.9 2.8 2.44 4.39 1.05 3.2 1.39 6.66.89 10.06-.22 1.7-.71 3.36-1.17 5-.46 1.65-.92 3.3-1.39 4.96-.93 3.32-1.87 6.67-2.81 10.05l-.25-.33c10.13 0 20.49.01 31.02.01 35.29.03 68.65.05 97.83.07l-.05.01c2.13-.66 4.07-1.98 5.67-3.5 1.6-1.56 2.93-3.35 3.95-5.29.53-.96.91-1.99 1.36-2.97.33-1.04.68-2.06.98-3.09.23-1.05.45-2.09.68-3.13l.39-3.14c.17-1.04.12-2.09.18-3.13.03-1.04.11-2.07.03-3.09-.09-2.05-.16-4.07-.3-6.07-.25-4-.5-7.88-.74-11.65-.96-15.07-1.79-28.27-2.48-39.17-.68-10.89-1.21-19.48-1.58-25.36-.17-2.93-.31-5.18-.4-6.71l-.09-1.72c-.05-.4-.05-.6-.05-.6z" fill="#263238"/></g><g><path d="M533.74 277.68c.02.04-.63.4-1.78 1.11-1.15.7-2.77 1.79-4.63 3.32-3.74 3.01-8.25 8.01-11.98 14.34-3.74 6.33-6.22 12.54-8 17.02-.86 2.2-1.56 4-2.08 5.33-.23.58-.43 1.06-.58 1.44-.14.33-.22.5-.24.49-.02-.01.03-.19.14-.53.13-.39.29-.88.49-1.48.44-1.28 1.08-3.12 1.92-5.39 1.7-4.52 4.13-10.78 7.9-17.15 3.76-6.38 8.36-11.4 12.2-14.36 1.91-1.5 3.57-2.55 4.76-3.2.58-.34 1.07-.56 1.38-.72.32-.16.49-.23.5-.22z" fill="#263238"/></g><g opacity=".3"><path d="M494.6 315.87c-4.25 9.24-5.97 19.74-5.59 29.91.38 10.17 1.6 20.36.6 30.48-1 10.12-4.51 20.46-12.07 27.27-.91.82-1.89 1.61-2.44 2.71s-.5 2.6.47 3.35c.86.67 2.07.51 3.14.33 7.24-1.26 14.55-2.15 21.79-3.41 1.55-.27 6.77-1.29 6.77-1.29s-.69-3.97-.44-5.95c.23-1.81.94-7.97.94-7.97-.21-.95-.9-1.67-1.39-2.57-4.76-8.84-6-15.39-6-15.39-2.47-5.06-3.58-10.13-4.72-14.86-3.17-13.11-3.08-26.02-1.06-42.61"/></g><g opacity=".3"><path d="M415.33 300.94c.59 1.5 1.19 3 1.78 4.5.18.46.41.96.86 1.14.89.34 1.6-.75 2.02-1.61 1.67-3.38 5.13-5.8 8.87-6.24 3.04-.35 6.16.53 9.15-.09-2.65-1.58-5.32-3.17-8.26-4.11-2.93-.94-6.19-1.19-9.07-.09-2.88 1.11-5.26 3.76-5.48 6.83"/></g><g opacity=".3"><path d="M440.05 297.15c3.55.06 7.14.13 10.59.95s6.82 2.48 9.07 5.23c2.42 2.95 3.32 6.81 4.3 10.5.19.71.53 1.55 1.26 1.63.44.05.84-.22 1.2-.48 5.98-4.39 9.93-11.13 12.1-18.22 2.16-7.1 2.66-14.59 2.78-22-2.86 5.11-4.1 10.93-5.99 16.47s-4.67 11.12-9.57 14.32c.16-1.25-.33-2.52-1.12-3.51-.78-.99-1.83-1.73-2.91-2.38-6.59-3.98-14.9-5-22.26-2.72"/></g><g><path d="M424.51 414.94h-12.24s-27.63-9.98-33.31-9.03c-5.12.86-23.85 13.3-27.52 15.77-.41.27-.72.67-.89 1.13a4.01 4.01 0 002.23 5.1l.39.16-.17.56a6.63 6.63 0 00-.28 2.24c.14 2.63 3.67 3.43 5.02 1.17l-.71 1.25c-.29.51-.42 1.09-.39 1.68l.06 1.14a3.06 3.06 0 002.12 2.75c1.15.37 2.41.05 3.22-.84 2.38-2.61 7.51-7.85 10.98-8.43 3.09-.51 8.23-.58 11.34-.57 1.58.01 2.99.98 3.57 2.45-2.06.15-16.42 7.63-21.5 10.31-1.57.83-2.75 2.32-2.95 4.09-.19 1.59.62 3.26 3.76 2.52 6.75-1.58 18.9-7.16 18.9-7.16s6.27-1.79 10.33 1.07c5.71 4.03 8.33 5.51 13.23 3.88s8.52-3.96 8.52-3.96l9.66-.96c-.02.01 9.12-22.82-3.37-26.32z" fill="#ffbe9d"/><path d="M388.02 419.6c-.02.11-1.96-.52-5.19-.72-3.21-.22-7.77.15-12.31 2.09-4.54 1.94-7.97 4.97-10.03 7.44-2.09 2.47-2.98 4.3-3.07 4.25-.03-.01.17-.48.61-1.28.44-.8 1.15-1.92 2.17-3.2 2.01-2.56 5.47-5.71 10.11-7.68 4.63-1.98 9.3-2.29 12.54-1.98 1.63.15 2.93.41 3.82.65.89.23 1.36.4 1.35.43zM385.1 412.89c-.03.13-2-.84-5.4-.94-3.38-.15-8.13.87-12.57 3.56-4.44 2.7-7.76 6.12-10.13 8.57-1.12 1.19-2.05 2.18-2.78 2.95-.66.7-1.03 1.07-1.06 1.05-.03-.02.3-.44.91-1.18.61-.74 1.51-1.79 2.66-3.07 2.3-2.52 5.61-6.02 10.13-8.76 4.53-2.74 9.41-3.72 12.85-3.48 1.73.1 3.1.42 4.01.73.46.13.8.31 1.03.4.23.1.35.16.35.17z" fill="#eb996e"/></g></g><g><path d="M544.62 135.11c-22.59 0-40.89 18.31-40.89 40.9 0 8.7 2.72 16.75 7.35 23.38l-4.91 15.25 15.03-5.12a40.688 40.688 0 0023.43 7.38c22.59 0 40.89-18.31 40.89-40.89 0-22.59-18.31-40.9-40.9-40.9z" fill="#fff"/><path d="M533.84 175.68a3.522 3.522 0 01-3.63 3.42 3.522 3.522 0 01-3.42-3.63 3.522 3.522 0 013.63-3.42c1.94.06 3.48 1.69 3.42 3.63zM547.95 176.11a3.522 3.522 0 01-3.63 3.42 3.522 3.522 0 01-3.42-3.63 3.522 3.522 0 013.63-3.42c1.94.06 3.48 1.68 3.42 3.63zM562.07 174.77c.92 1.72.28 3.85-1.44 4.78-1.72.92-3.86.28-4.78-1.44a3.531 3.531 0 011.44-4.78c1.72-.92 3.86-.28 4.78 1.44z" fill="#263238"/><g><path d="M545.88 134.83c0-.02.24-.01.71.01l2.09.12c.46.04.98.05 1.54.12.56.1 1.18.2 1.84.32.67.12 1.38.24 2.15.38.75.21 1.55.43 2.39.67 3.36.97 7.42 2.58 11.53 5.44 4.11 2.82 8.35 6.79 11.73 12.13 3.31 5.34 5.79 12 6.27 19.42.01 1.85.18 3.74-.06 5.65-.1.95-.11 1.92-.27 2.88-.17.96-.35 1.92-.53 2.9-.9 3.83-2.17 7.75-4.27 11.37a43.912 43.912 0 01-7.82 10.1 43.143 43.143 0 01-11.05 7.44c-4.1 1.94-8.63 3.23-13.3 3.65-1.16.19-2.34.16-3.53.19-1.18.04-2.37.05-3.56-.04a43.01 43.01 0 01-7.09-1.11c-5.09-1.24-9.84-3.47-13.99-6.39l.43.06c-4.97 1.82-9.85 3.61-14.61 5.36l-.87.32.27-.88c1.62-5.25 3.19-10.36 4.71-15.31l.06.38c-3.89-5.51-6.29-11.73-7.17-17.87-.44-3.07-.58-6.12-.29-9.05.11-1.47.22-2.92.54-4.33.13-.71.26-1.41.39-2.1.15-.69.38-1.36.57-2.03 3.12-10.78 10.05-18.6 16.81-23 3.39-2.24 6.71-3.81 9.74-4.77.75-.24 1.48-.48 2.18-.71.72-.16 1.41-.31 2.07-.46.66-.14 1.29-.28 1.89-.41.61-.1 1.19-.14 1.73-.21 1.1-.11 2.06-.27 2.9-.28.83 0 1.53-.01 2.12-.01.54 0 .96.01 1.3.01.3.02.45.02.45.04 0 .01-.15.03-.44.05-.33.02-.76.04-1.29.06-.59.02-1.29.05-2.11.08-.84.04-1.79.22-2.88.35-4.27.65-10.69 2.15-17.34 6.72-6.64 4.4-13.4 12.15-16.4 22.75-.18.66-.4 1.32-.55 1.99-.12.68-.25 1.37-.37 2.07-.31 1.38-.41 2.8-.51 4.25-.27 2.88-.13 5.87.32 8.88.89 6.01 3.26 12.1 7.08 17.48l.13.18-.06.21c-1.51 4.95-3.07 10.06-4.68 15.32l-.59-.56c4.76-1.75 9.64-3.55 14.6-5.38l.23-.08.2.14c4.06 2.85 8.71 5.03 13.68 6.24 2.29.56 4.61.92 6.93 1.09 1.16.09 2.32.08 3.48.04 1.16-.03 2.31 0 3.45-.19 4.57-.4 8.99-1.66 13.01-3.55 4.03-1.88 7.67-4.36 10.82-7.26 3.09-2.96 5.65-6.32 7.68-9.87 2.07-3.54 3.32-7.37 4.22-11.13.18-.95.35-1.9.53-2.84.17-.94.18-1.89.28-2.83.24-1.87.08-3.73.08-5.54-.44-7.28-2.84-13.84-6.06-19.12-3.29-5.27-7.43-9.23-11.46-12.05-4.03-2.87-8.02-4.51-11.33-5.53-.83-.25-1.62-.48-2.36-.71-.76-.15-1.46-.29-2.12-.41l-1.82-.36c-.56-.08-1.07-.11-1.53-.16-.88-.09-1.57-.16-2.08-.21-.5-.07-.74-.11-.74-.12z" fill="#263238"/></g></g><g><path d="M634.98 447.49c-2.57.36-5.08 1.61-6.64 3.69-1.56 2.08-2.05 5.01-.93 7.35 1.12 2.34 3.94 3.84 6.45 3.15.08 1.84 1.75 3.47 3.59 3.5 1.84.03 3.57-1.54 3.71-3.38 1.19 1.36 3.28 1.84 4.95 1.15 1.67-.7 2.79-2.53 2.66-4.33-.08-1.14-.61-2.21-.75-3.35-.15-1.24.17-2.5.14-3.75s-.57-2.65-1.76-3.05M583.68 454.27c3.87-2.48 8.3-3.95 12.75-5.1 3.24-.84 6.7-1.51 9.88-.47 2.99.98 5.41 3.54 6.24 6.58.31 1.16.39 2.45-.17 3.51-.75 1.41-2.4 2.06-3.95 2.44-1.18.29-2.7.38-3.36-.64-.78.99-1.99 1.63-3.24 1.73-1.26.1-2.55-.35-3.47-1.21-.85 1.96-3.27 3.09-5.32 2.48-2.05-.6-3.47-2.85-3.13-4.96-.95 1.37-2.61 2.25-4.27 2.11-1.66-.14-3.2-1.4-3.52-3.04-.32-1.63.75-3.46 2.36-3.85" fill="#263238"/><path d="M546.26 453.63c-1.02-4.32.66-8.83 4.26-11.43 4.01-2.89 6.83-6.25 12.06-9.37 3.72-2.22 9.96-4.55 12.77-5.48 10.25-3.4 17.18-4.27 21.39-6.47 4.62-2.42 10.77-6.21 10.77-6.21l52.33 4.05s6.29 38.65-3.24 42.42c0 0-44.33.47-47.82-1.08-3.78-1.67-61.47-1.64-61.3-1.26l-1.22-5.17z" fill="#263238"/><path d="M574.58 446.25c-11.19 1.68-16.79 2.19-28.1 2.26-3.31.02-6.66-.03-9.9.64-1.97.41-3.95 1.11-5.4 2.51s-2.24 3.61-1.53 5.49c.71 1.88 3.2 3.02 4.91 1.95.29 1.57 1.6 2.9 3.17 3.2 1.57.3 3.28-.44 4.13-1.8.72.93 2.04 1.2 3.2 1.01 1.16-.19 2.22-.76 3.28-1.26 4.57-2.13 9.41-1.61 14.45-1.57 8.8.06 18.76-.03 15.09 0" fill="#263238"/><path d="M577.89 458.69c0-.01.25-.03.74-.05h.04c.01.18-.01.05 0 .09H578.52c-.07 0-.14 0-.22.01-.15 0-.32.01-.49.01-.36.01-.78.02-1.24.03-1.91.02-4.62.05-8 .09-1.71 0-3.59.01-5.62.01-2.04 0-4.22-.1-6.53-.04-2.3.07-4.75.33-7.1 1.27-1.17.45-2.29 1.17-3.64 1.54-.67.18-1.4.25-2.11.11-.71-.13-1.42-.48-1.9-1.09l.41-.02c-.88 1.39-2.62 2.21-4.31 1.93-1.69-.29-3.13-1.68-3.46-3.42l.39.17c-1.26.79-3.01.46-4.14-.51-.75-.6-1.24-1.51-1.37-2.44-.15-.93.01-1.88.35-2.73.67-1.72 2.15-2.97 3.7-3.7 1.58-.74 3.25-1.09 4.87-1.32 1.63-.23 3.24-.3 4.8-.34 6.24-.03 11.83-.07 16.53-.41 4.69-.32 8.47-.82 11.08-1.15 1.28-.16 2.28-.29 3.01-.39.32-.04.58-.07.78-.09.18-.02.27-.02.27-.01s-.09.03-.26.07c-.2.04-.46.08-.78.14-.72.12-1.73.28-3 .48-2.6.39-6.38.94-11.09 1.31-4.7.4-10.33.47-16.54.53-1.55.04-3.14.12-4.74.35-1.59.23-3.22.58-4.72 1.29-1.49.7-2.83 1.85-3.44 3.43-.65 1.52-.49 3.5.87 4.57 1 .85 2.51 1.12 3.53.47l.32-.21.07.38c.27 1.51 1.57 2.76 3.04 3.01s3.04-.47 3.8-1.69l.19-.3.22.28c.79.99 2.29 1.15 3.49.81 1.25-.33 2.37-1.04 3.59-1.5 2.43-.95 4.94-1.2 7.26-1.26 2.33-.05 4.51.08 6.54.09 2.03.02 3.91.04 5.62.05 3.38.02 6.09.04 8 .06.46.01.87.01 1.24.01.18 0 .34.01.49.01h.37c.01.04-.01-.09 0 .09h-.03c-.48.01-.73 0-.73-.02zM647.89 456.64s.27.21.59.77c.3.55.63 1.49.48 2.7-.07.6-.26 1.26-.66 1.88-.39.63-1 1.2-1.79 1.54-1.54.69-3.85.52-5.32-1.14l.37-.07c-.48 1.44-1.9 2.66-3.63 2.78-1.72.12-3.53-1.02-4.13-2.81l.3.17c-2.77.69-5.87-1.18-7.04-3.98-.91-2.12-.52-4.5.43-6.35a10.31 10.31 0 014.18-4.27c1.69-.94 3.48-1.41 5.16-1.63 1.68-.22 3.27-.19 4.7-.08 2.86.25 5.12.75 6.69 1.04.74.15 1.34.26 1.8.35.41.08.63.13.62.15 0 .02-.22 0-.64-.05-.42-.05-1.03-.14-1.82-.26-1.58-.23-3.85-.67-6.68-.87-2.79-.17-6.33-.05-9.59 1.76a9.81 9.81 0 00-3.96 4.08c-.9 1.75-1.25 3.99-.41 5.92 1.08 2.6 3.97 4.31 6.44 3.69l.23-.06.07.22c.51 1.56 2.13 2.6 3.63 2.5 1.51-.09 2.82-1.18 3.25-2.45l.12-.35.24.28c1.29 1.5 3.43 1.71 4.86 1.1 1.5-.6 2.2-2.03 2.35-3.14a4.54 4.54 0 00-.35-2.6c-.29-.55-.52-.8-.49-.82z" fill="#455a64"/><path d="M655.72 446.62c-.06.06-.6-.47-1.65-1.04-1.03-.57-2.63-1.13-4.43-1.04-1.8.09-3.33.81-4.3 1.48-.98.67-1.47 1.26-1.53 1.2-.05-.03.34-.71 1.31-1.5.95-.78 2.56-1.61 4.49-1.71 1.93-.1 3.61.56 4.64 1.24 1.06.7 1.51 1.34 1.47 1.37zM583.49 460.39c-.01.01-.14-.07-.39-.26-.22-.21-.56-.52-.86-1.03-.61-.98-1.12-2.75-.56-4.81.56-2.06 2.33-4.06 4.7-5.44 2.37-1.43 5.3-2.22 8.13-3.47 5.69-2.57 9.66-6.88 11.79-10.32 1.09-1.72 1.8-3.22 2.23-4.28.44-1.06.65-1.65.69-1.64.02.01-.02.16-.1.45-.09.29-.19.73-.4 1.26-.38 1.09-1.05 2.63-2.11 4.4-2.07 3.53-6.08 7.98-11.89 10.6-2.89 1.28-5.79 2.05-8.1 3.41-2.32 1.31-4.02 3.2-4.59 5.13-.58 1.93-.16 3.64.38 4.61.55.99 1.12 1.34 1.08 1.39z" fill="#455a64"/><path d="M604.33 460.07c.05-.05.31.45 1.13.89.79.43 2.24.73 3.74.05 1.5-.64 2.66-2.55 2.59-4.72-.01-1.08-.33-2.2-.92-3.22a8.443 8.443 0 00-2.49-2.64c-2.08-1.44-4.54-2.03-6.72-2.02-2.21-.01-4.18.44-5.8.89-1.62.46-2.91.92-3.81 1.22-.9.31-1.4.47-1.41.43-.01-.03.46-.26 1.34-.62.88-.36 2.15-.88 3.78-1.38 1.62-.5 3.62-1 5.9-1.02 2.27-.03 4.83.56 7.02 2.08a8.9 8.9 0 012.63 2.81c.62 1.09.96 2.31.96 3.47.05 2.33-1.25 4.4-2.93 5.06-1.66.68-3.19.29-3.99-.22-.42-.25-.68-.54-.84-.73-.12-.2-.19-.32-.18-.33z" fill="#455a64"/><path d="M598.5 460.8c.05-.03.48.66 1.67 1.08.57.21 1.32.43 2.08.36.76-.09 1.57-.58 2.02-1.35.45-.77.42-1.7.2-2.47-.22-.77-.62-1.4-.99-1.91-.77-.99-1.34-1.56-1.27-1.62.04-.04.69.42 1.56 1.39.42.49.9 1.14 1.16 2 .27.83.33 1.92-.21 2.86-.54.93-1.5 1.48-2.41 1.56-.93.06-1.68-.23-2.28-.49-.6-.28-1.03-.61-1.27-.9-.25-.29-.29-.5-.26-.51zM590.1 458.93c.04.01-.03.29-.04.79-.01.49.1 1.23.55 2 .43.76 1.25 1.52 2.39 1.75 1.11.25 2.48.01 3.52-.82s1.59-2.09 1.71-3.23c.13-1.16-.18-2.21-.58-3-.84-1.6-1.89-2.2-1.82-2.27.02-.03.28.09.7.42.41.32.97.86 1.45 1.68.47.81.85 1.95.73 3.22-.11 1.26-.7 2.65-1.87 3.59-1.18.93-2.7 1.18-3.95.88a3.91 3.91 0 01-2.6-2.04c-.44-.86-.5-1.67-.43-2.19.07-.53.22-.79.24-.78z" fill="#455a64"/><path d="M610.87 423.67s11.06 12.19 24.79 10.64 24.28-14.85 24.28-14.85c2.11-3.35 1.24-6.82.58-9.38-.66-2.56-1.92-5.01-1.93-7.66-.01-2.26.89-4.41 1.54-6.57 1.46-4.84 1.68-9.96 1.9-15.01.09-2.17-.02-4.75-1.85-5.91-1.14-.72-2.64-.62-3.87-.07s-2.24 1.48-3.21 2.41c-4.13 3.97-8.02 8.2-11.62 12.66-5.56-3.95-13.91-3.27-18.76 1.51-5.88-2.47-7.81-10.7-13.83-12.8-1.31-.46-2.87-.54-3.98.29-1.46 1.1-1.54 3.22-1.49 5.05.25 8.23.55 16.7 3.9 24.22-1.46 5.06-.22 10.83 3.21 14.84" fill="#263238"/><path d="M630.96 425.41a5.58 5.58 0 013.06-2.2c1.23-.35 2.59-.26 3.76.26.29.13.58.29.77.55s.25.63.07.9c-.21-.33-.74-.29-1.02-.01-.27.28-.34.7-.35 1.09-.01.39.01.79-.13 1.16-.17.44-.57.77-1.03.86-.46.09-.96-.08-1.27-.42-.28-.3-.41-.71-.59-1.08-.18-.37-.47-.73-.88-.8-.32-.06-.64.08-.95.2-.3.12-.65.22-.95.09-.3-.13-.44-.6-.17-.79" fill="#455a64"/><path d="M636.08 426.93c.08.01.06.44.22 1.09.15.64.55 1.51 1.31 2.16.76.64 1.69.89 2.34.93.67.05 1.09-.05 1.11.03.02.06-.38.29-1.12.33-.72.05-1.79-.16-2.68-.9a3.949 3.949 0 01-1.34-2.49c-.06-.73.1-1.16.16-1.15z" fill="#455a64"/><path d="M636.16 426.28c.05-.02.35.46.38 1.35.04.87-.28 2.17-1.3 3.13-1.03.95-2.35 1.18-3.21 1.08-.89-.09-1.35-.42-1.32-.47.03-.08.53.11 1.34.1.8 0 1.95-.27 2.84-1.1.88-.83 1.23-1.97 1.29-2.76.05-.8-.11-1.31-.02-1.33zM657.34 430.86c-.07.16-3.13-1.5-7.31-1.99-4.18-.54-7.55.33-7.58.16-.02-.06.8-.35 2.18-.58 1.38-.23 3.33-.35 5.46-.09s3.99.85 5.27 1.41c1.29.55 2.01 1.04 1.98 1.09zM663.71 428.15c-.02.08-1.25-.23-3.26-.58-2.01-.36-4.81-.72-7.92-.77-3.11-.05-5.92.22-7.94.51-2.02.29-3.26.55-3.28.47-.01-.03.29-.14.85-.29.55-.16 1.36-.35 2.37-.54 2.02-.39 4.86-.71 8.01-.66 3.15.06 5.98.48 7.98.93 1 .23 1.81.44 2.35.62.55.16.85.28.84.31zM667.08 421.06c-.01.08-1.51.01-3.94.01-2.43.01-5.8.11-9.43.78-3.64.66-6.8 1.84-8.96 2.93-2.17 1.09-3.38 2-3.43 1.92-.02-.03.26-.28.81-.69.55-.41 1.38-.96 2.45-1.55 2.14-1.2 5.34-2.45 9.03-3.12 3.69-.68 7.09-.72 9.53-.64 1.22.04 2.21.12 2.89.19.67.08 1.05.14 1.05.17zM609.74 436.95c-.02-.03.19-.23.58-.58.39-.35 1-.81 1.78-1.35 1.55-1.07 3.86-2.34 6.6-3.27 2.74-.92 5.35-1.31 7.23-1.41.94-.05 1.71-.05 2.23-.01.53.03.82.07.81.1 0 .09-1.16.08-3.02.27-1.85.19-4.4.63-7.09 1.53-2.69.91-4.98 2.11-6.57 3.08-1.57 1-2.49 1.71-2.55 1.64zM608.9 431.4c-.01-.03.26-.17.76-.4s1.24-.52 2.17-.83c1.86-.63 4.5-1.3 7.49-1.63 2.99-.32 5.72-.23 7.67-.01.98.11 1.76.23 2.3.35.54.11.83.19.82.23-.01.08-1.21-.08-3.15-.21a45.39 45.39 0 00-7.58.16c-2.95.32-5.57.92-7.44 1.46-1.87.54-3.01.96-3.04.88z" fill="#455a64"/><path d="M601.93 429.06c-.01-.03.36-.2 1.04-.47.68-.28 1.69-.62 2.95-.99 2.52-.74 6.11-1.45 10.12-1.59 4.02-.13 7.65.32 10.21.88 1.28.28 2.31.55 3.01.78.7.22 1.08.36 1.07.4-.03.09-1.58-.36-4.15-.82-2.56-.46-6.15-.86-10.12-.72-3.97.14-7.52.79-10.05 1.43-2.53.63-4.05 1.18-4.08 1.1zM628.59 415.35c.04.04-.46.6-1.54 1.09-1.06.5-2.76.86-4.54.4-1.78-.47-3.09-1.61-3.78-2.56-.7-.96-.87-1.69-.81-1.7.08-.04.37.62 1.1 1.47.72.85 1.97 1.85 3.62 2.28 1.64.42 3.23.15 4.27-.23 1.06-.38 1.63-.82 1.68-.75zM650.86 410.55c.05-.01.22.72-.17 1.81-.35 1.08-1.43 2.43-3.05 3.12-1.6.71-3.2.78-4.3.79-1.11 0-1.79-.08-1.79-.15 0-.08.68-.13 1.78-.22 1.08-.1 2.61-.24 4.1-.9 1.51-.64 2.5-1.81 2.92-2.78.44-.97.42-1.67.51-1.67zM612.11 395.81c.61-.65 1.22-1.31 1.67-2.13.45-.81.73-1.8.61-2.77-.13-1.04-.69-1.92-1.27-2.72-1.59-2.17-3.44-4.06-5.49-5.57 0 0-1.59-1.2-2.3 0-.47.8-.17 13.94 1.65 14.77 1.85.85 5.13-1.58 5.13-1.58zM657.49 377.04c-2.92 2.29-4.04 6.23-6.23 9.23-.39.54-.79 1.09-1.05 1.7-.26.62-.37 1.32-.17 1.96.21.66.73 1.17 1.26 1.61 1.16.98 2.47 1.77 3.87 2.35 0 0 3.03.94 3.83-1.82s.45-16.57-1.51-15.03z" fill="#455a64"/><g><path d="M564.57 433.69c-3.52.54-11.65-.81-14.02-3.26-2.48-2.55-1.71-6.29-.42-9.6 1.29-3.32 3.28-6.3 4.97-9.43 2.84-5.23 4.9-10.99 5.06-16.94.15-5.94-1.77-12.09-5.98-16.29-4.21-4.2-10.85-6.1-16.4-3.95-4.56 1.77-8.1 7.04-6.33 11.6 1.11 2.86 3.88 4.68 5.83 7.05 2.75 3.34 3.84 7.97 2.88 12.19-1.05 4.58-4.29 8.4-5.52 12.94-1.87 6.92 1.52 14.6 7.23 18.93 5.71 4.33 13.31 5.63 20.43 4.8" fill="#263238"/></g><g><path d="M638.54 431.29s.43 2.68-.49 3.77c-.41.49-.98.88-1.62.95-.94.1-1.85-.54-2.32-1.36-.47-.82-.59-1.8-.64-2.74 0 0 2.38-.86 2.72-2.25 0-.01.96 1.48 2.35 1.63z" fill="#e1a04e"/></g><g><path d="M650.66 432.38c.02.02-.24.35-.77.88s-1.36 1.26-2.48 2.03c-2.21 1.54-5.73 3.18-9.89 3.51-4.16.33-7.9-.72-10.33-1.89-1.22-.58-2.16-1.16-2.77-1.6-.61-.44-.92-.72-.91-.75.06-.09 1.38.95 3.83 2.01 2.42 1.07 6.08 2.03 10.13 1.71 4.05-.33 7.51-1.86 9.73-3.3 2.25-1.44 3.39-2.68 3.46-2.6z" fill="#455a64"/></g><g><path d="M636.38 450.39c.04.08-.69.45-1.6 1.36-.9.89-1.94 2.42-2.24 4.34-.3 1.92.22 3.69.81 4.82.59 1.14 1.18 1.72 1.11 1.78-.03.04-.73-.45-1.43-1.6-.7-1.13-1.32-3.01-1-5.08.33-2.07 1.49-3.67 2.5-4.53 1.02-.88 1.83-1.14 1.85-1.09z" fill="#455a64"/></g><g><path d="M646.12 451.55c0 .1-.82.02-1.95.54-1.11.5-2.49 1.72-3.1 3.51-.6 1.8-.37 3.59-.07 4.8.3 1.23.63 1.95.56 1.99-.05.03-.51-.64-.91-1.89-.4-1.22-.71-3.11-.07-5.06.66-1.96 2.21-3.23 3.45-3.68 1.26-.48 2.11-.25 2.09-.21z" fill="#455a64"/></g><g><path d="M619.01 445.08c.06.04-.24.6-.83 1.44-.59.83-1.48 1.95-2.67 2.98a13.02 13.02 0 01-3.41 2.1c-.95.39-1.57.53-1.59.47-.07-.17 2.35-.98 4.67-2.97 2.29-2.01 3.68-4.14 3.83-4.02z" fill="#455a64"/></g><g><path d="M606.92 415.03c.01.01-.19.16-.57.44-.38.28-.96.66-1.71 1.14-1.51.95-3.78 2.22-6.68 3.56-2.91 1.33-6.45 2.73-10.47 4.05-4.02 1.32-8.48 2.55-13.1 4.08-4.61 1.52-8.93 3.23-12.62 5.24-3.69 2-6.76 4.26-9.06 6.45-2.3 2.19-3.88 4.24-4.84 5.73-.97 1.49-1.4 2.38-1.45 2.36-.02-.01.08-.23.29-.66.19-.43.53-1.04.99-1.81.92-1.53 2.46-3.65 4.76-5.89 2.29-2.24 5.37-4.56 9.08-6.6 3.71-2.05 8.05-3.78 12.68-5.31 4.63-1.53 9.11-2.76 13.11-4.04 4.01-1.29 7.55-2.64 10.46-3.93 2.91-1.29 5.19-2.5 6.73-3.39.77-.45 1.36-.8 1.76-1.05.41-.26.63-.38.64-.37z" fill="#455a64"/></g><g><path d="M612.2 423.93c-.04.04-.71-.58-1.56-1.77-.85-1.19-1.84-2.98-2.51-5.13-.66-2.15-.84-4.19-.8-5.65.04-1.47.24-2.35.3-2.34.18 0-.32 3.64 1.01 7.84 1.26 4.22 3.71 6.96 3.56 7.05z" fill="#455a64"/></g></g><g><path d="M251.74 457.81l-33.18-83.29c-2.94-7.16 2.33-15.02 10.07-15.02H332c4.66 0 8.81 2.97 10.31 7.39l28.5 84.01 33.29.16c2.7.01 4.89 3.97 4.89 6.67l-36.64-.42-120.61.5z" fill="#263238"/><path d="M252.54 378.75c-2.35-.09-4.7.51-6.68 1.79-.65.42-1.29.92-1.82 1.51-1.77 1.99-4.93 5.86-3.67 11.9 1.26 6.04 5.16 6.87 6.97 7.07 1.82.2 14.52-3.41 14.52-3.41s4.61-3.92 2.97-9.05c-1.4-4.41-5.48-9.56-12.29-9.81z" fill="#e1a04e"/><path d="M246.49 399.22s.46 3.23 2.08 4.05c1.62.82 4.64.67 6.95.09 2.31-.58 5.76-1.91 6.16-3.7.41-1.79.06-3.97-.2-4.21-.26-.24-3.79-2.23-8.52-.78-4.73 1.44-6.47 4.55-6.47 4.55z" fill="#f5f5f5"/><path d="M256.78 383.8a6.08 6.08 0 01-4.42 7.38 6.08 6.08 0 01-7.38-4.42 6.08 6.08 0 014.42-7.38 6.08 6.08 0 017.38 4.42zM241.43 397.03c1.13-1.44 1.85-3.34 1.72-5.16a7.539 7.539 0 00-2.25-4.86s-1.16 3.44-.66 6.15c.52 2.89 1.19 3.87 1.19 3.87zM265.2 391.05c-1.67-.73-3.2-2.07-3.96-3.73-.75-1.66-.94-3.35-.39-5.09 0 0 2.33 2.21 3.45 4.85 1.19 2.79.9 3.97.9 3.97z" fill="#fff" opacity=".4"/><g><path d="M299.52 412.09a6.711 6.711 0 01-13.42 0c0-3.71 3.01-6.71 6.71-6.71s6.71 3.01 6.71 6.71z" fill="#f5f5f5"/></g></g><g><path d="M694.29 457.32c0 .14-137.46.26-306.98.26-169.58 0-307.01-.12-307.01-.26s137.43-.26 307.01-.26c169.52 0 306.98.11 306.98.26z" fill="#263238"/></g><g><path d="M171.66 422.98c-9.78-5.67-15.01-18.86-15.4-29.65-.39-10.79 4.1-22.06 12.96-28.25 9.32-6.52 22.6-6.4 32.19-.27 9.58 6.14 15.19 17.72 14.76 29.09-.43 11.37-6.63 22.23-15.8 28.97" fill="#5c9ca4"/><path d="M187.27 424.02c-.06 0-.12-.88-.18-2.47-.05-1.77-.11-4.03-.19-6.73-.15-5.68-.37-13.53-.75-22.2s-.85-16.51-1.2-22.18c-.16-2.7-.3-4.96-.4-6.72-.08-1.59-.1-2.47-.04-2.48.06-.01.2.87.39 2.45s.43 3.87.69 6.7c.52 5.67 1.09 13.51 1.47 22.19.38 8.68.5 16.54.48 22.23-.01 2.85-.04 5.15-.1 6.74-.05 1.59-.11 2.47-.17 2.47z" fill="#fff"/><path d="M159.15 390.88c-.02.25-1.58.33-3.48.17s-3.43-.49-3.41-.74c.02-.25 1.58-.33 3.48-.17 1.91.15 3.43.49 3.41.74zM159.69 381.19c-.1.23-1.45-.14-3-.83-1.56-.69-2.74-1.44-2.63-1.67.1-.23 1.45.14 3 .83s2.73 1.44 2.63 1.67zM164.67 374c-.13.21-1.64-.5-3.22-1.81-1.58-1.3-2.56-2.65-2.38-2.82.19-.18 1.43.86 2.96 2.12 1.53 1.26 2.78 2.3 2.64 2.51zM169.68 367.22c-.23.1-.96-1.03-1.62-2.53-.66-1.5-1.01-2.8-.78-2.9.23-.1.96 1.03 1.62 2.53.66 1.5 1.01 2.8.78 2.9zM177.54 362.41c-.23.11-1.01-1.1-1.52-2.77-.52-1.67-.56-3.11-.32-3.15.25-.04.69 1.27 1.19 2.87.5 1.61.89 2.94.65 3.05zM190.67 356.98c.24.08.09 1.11-.33 2.3-.42 1.19-.95 2.08-1.19 1.99-.24-.08-.09-1.11.33-2.3.42-1.18.95-2.07 1.19-1.99zM200.4 361.16c.17.19-.45 1.04-1.39 1.91-.94.87-1.84 1.43-2.02 1.24-.17-.19.45-1.04 1.39-1.91.94-.87 1.85-1.43 2.02-1.24zM208.97 366.69c.14.21-.62.97-1.7 1.71-1.08.73-2.07 1.16-2.21.95-.14-.21.62-.97 1.7-1.71 1.07-.73 2.07-1.16 2.21-.95zM215.05 374.94c.1.23-1.1.97-2.68 1.64-1.58.67-2.94 1.03-3.04.8-.1-.23 1.1-.97 2.68-1.64 1.58-.67 2.94-1.03 3.04-.8zM217.45 383.94c.03.25-1.19.61-2.73.8-1.54.19-2.81.14-2.84-.11-.03-.25 1.19-.61 2.73-.8 1.53-.19 2.81-.14 2.84.11zM218.69 395.02c-.1.23-1.4-.11-2.9-.76s-2.64-1.37-2.54-1.6c.1-.23 1.4.11 2.91.76 1.5.65 2.63 1.36 2.53 1.6zM217.6 404.52c-.08.23-1.72-.16-3.44-1.29-1.72-1.12-2.74-2.47-2.56-2.64.19-.18 1.44.81 3.06 1.87 1.62 1.07 3.03 1.81 2.94 2.06zM212.65 413.17c-.15.2-1.46-.57-2.72-1.93-1.26-1.35-1.93-2.71-1.72-2.85.21-.15 1.19.93 2.4 2.23 1.19 1.3 2.2 2.35 2.04 2.55zM165.66 414.19c.12.22-1.26 1.17-3.07 2.11-1.81.94-3.38 1.53-3.49 1.3-.12-.22 1.26-1.17 3.07-2.11 1.81-.94 3.37-1.53 3.49-1.3zM161.37 406.36c.1.23-1 .96-2.46 1.62-1.46.66-2.74 1.02-2.84.78-.1-.23 1-.96 2.46-1.62 1.46-.66 2.73-1.01 2.84-.78zM158.21 399.43c.04.25-1.32.65-3.03.89-1.71.24-3.12.24-3.16-.01-.04-.25 1.32-.65 3.03-.89 1.71-.25 3.13-.24 3.16.01zM168.56 395.61c.08.24-1.25.85-3.01 1.05-1.77.2-3.19-.1-3.17-.35.02-.26 1.4-.37 3.07-.56 1.67-.19 3.04-.39 3.11-.14zM177.16 387.06c.07.24-.98.77-2.4.91s-2.56-.18-2.53-.42c.02-.26 1.12-.36 2.44-.49 1.32-.14 2.41-.25 2.49 0zM178.8 380.2c-.08.24-1.22.06-2.55-.4-1.32-.46-2.33-1.02-2.25-1.26.08-.24 1.22-.06 2.55.4 1.33.46 2.33 1.02 2.25 1.26zM181.95 373.27c-.18.18-.96-.34-1.52-1.31s-.62-1.91-.38-1.97c.25-.07.67.65 1.17 1.51.5.87.92 1.6.73 1.77zM178.15 401.64c.06.25-.93.7-2.21 1.01-.74.18-1.41.27-1.85.27l-.18-.53c.33-.06.54-.05.59.05.04.1-.09.26-.36.47l-.18-.53c.39-.2 1.03-.43 1.77-.61 1.28-.32 2.36-.37 2.42-.13zM179.92 413.79c.09.24-1.17.95-2.81 1.6-1.65.65-3.05.98-3.15.74-.09-.24 1.17-.95 2.81-1.6 1.65-.64 3.06-.97 3.15-.74zM170.21 408.4c.08.24-.76.74-1.88 1.12-1.12.38-2.09.49-2.17.25-.08-.24.76-.74 1.88-1.12 1.12-.38 2.09-.49 2.17-.25zM170.96 383.67c-.06.24-1.52.1-3.21-.5s-2.92-1.4-2.81-1.63c.11-.23 1.47.19 3.12.77 1.63.57 2.96 1.11 2.9 1.36zM194.46 380.98c.14.21-.68 1-1.84 1.76-1.15.76-2.2 1.21-2.34 1-.14-.21.68-1 1.84-1.76 1.15-.77 2.2-1.21 2.34-1zM195.73 393.18c.05.25-.81.64-1.93.87-1.12.23-2.07.22-2.12-.03-.05-.25.81-.64 1.93-.87 1.12-.23 2.07-.22 2.12.03zM197.22 406.9c-.11.23-1.35-.12-2.78-.78-1.43-.66-2.5-1.39-2.4-1.61.11-.23 1.35.12 2.78.78 1.43.65 2.51 1.38 2.4 1.61zM194.08 420.25c-.2.16-1-.5-1.81-1.48-.8-.98-1.29-1.9-1.1-2.06.2-.16 1 .5 1.81 1.48.8.98 1.29 1.9 1.1 2.06zM193.43 372c.15.2-.38.87-1.3 1.33-.91.46-1.77.49-1.84.25-.07-.25.6-.65 1.43-1.07.84-.42 1.56-.72 1.71-.51zM204.95 384.3c.08.23-.98.82-2.44 1.02-1.46.21-2.64-.07-2.62-.32.01-.26 1.14-.4 2.5-.59 1.35-.18 2.48-.35 2.56-.11zM202.66 373.26c.11.22-.95.98-2.45 1.45-1.5.48-2.8.48-2.84.24-.04-.25 1.13-.65 2.56-1.11 1.43-.46 2.61-.82 2.73-.58zM207.46 401.41c0 .25-1.81.41-3.99.01-2.18-.39-3.82-1.18-3.74-1.41.08-.25 1.79.13 3.9.51s3.84.63 3.83.89zM203.18 417.45c-.15.2-1.48-.59-2.81-1.93-1.33-1.34-2.11-2.67-1.91-2.82.2-.16 1.27.89 2.56 2.18 1.29 1.3 2.32 2.37 2.16 2.57z" fill="#263238"/><path d="M184.37 360.2c.14.2-3.65 1.73-8.03 6.35-4.38 4.51-8.89 12.49-10.01 22.12-.53 4.79-.08 9.42.6 13.55.71 4.14 1.66 7.81 2.54 10.88.88 3.06 1.69 5.51 2.23 7.22.54 1.7.83 2.65.77 2.67-.06.02-.46-.88-1.11-2.55-.65-1.67-1.55-4.09-2.51-7.15-.96-3.05-1.98-6.74-2.75-10.92-.73-4.17-1.23-8.88-.68-13.8 1.14-9.85 5.86-17.97 10.45-22.46 2.28-2.28 4.43-3.8 5.99-4.68.76-.48 1.42-.74 1.83-.95.43-.22.66-.31.68-.28z" fill="#fff"/><path d="M196.86 423.57c-.2-.1 2.06-3.58 4.12-9.84 2.12-6.19 3.87-15.35 2.46-25.31-.66-4.96-2.1-9.56-3.9-13.49-1.87-3.88-4.29-7.05-6.65-9.27-2.44-2.16-4.85-3.4-6.52-4.12-1.69-.71-2.71-.87-2.7-.95 0-.03.26-.02.75.06.48.09 1.19.25 2.08.56 1.75.63 4.24 1.8 6.82 3.97 2.51 2.24 5.01 5.41 6.99 9.39 1.89 4 3.37 8.67 4.05 13.73 1.44 10.14-.46 19.44-2.76 25.65-.52 1.58-1.18 2.94-1.68 4.16-.59 1.18-1.08 2.21-1.52 3.02-.94 1.6-1.48 2.47-1.54 2.44z" fill="#fff"/><g><path fill="#263238" d="M161.37 421.4h50.51l.31 10.11h-50.82z"/></g><g><path fill="#263238" d="M165.66 426.45l2.9 30.87h36.93l2.97-30.53z"/></g><g><path d="M212.19 431.63c0 .25-11.38.46-25.4.46-14.03 0-25.41-.21-25.41-.46s11.37-.46 25.41-.46c14.03 0 25.4.21 25.4.46z" fill="#455a64"/></g><g><path d="M207.06 441.03c.05.03-.29.74-1.08 1.93-.79 1.18-2.05 2.84-3.92 4.63l-.23.22-.23-.24a72.73 72.73 0 00-9.9-8.67l.56-.02c-1.41 1.24-2.88 2.53-4.39 3.85-1.79 1.56-3.53 3.08-5.19 4.52l-.29.25-.29-.24c-3.15-2.64-6.01-5.05-8.43-7.09l.49-.05c-1.74 2.13-3.21 3.91-4.36 5.32-1.05 1.25-1.66 1.92-1.71 1.87-.05-.04.45-.79 1.41-2.11 1.09-1.46 2.48-3.31 4.12-5.51l.21-.28.28.23c2.46 2 5.37 4.35 8.56 6.94l-.57.01c1.65-1.45 3.38-2.97 5.17-4.54 1.51-1.32 2.99-2.6 4.4-3.84l.27-.24.29.21c4.16 3.06 7.48 6.29 9.85 8.95l-.46-.02c3.74-3.4 5.29-6.19 5.44-6.08z" fill="#455a64"/></g></g></svg>