<svg xmlns="http://www.w3.org/2000/svg" width="674.954" height="625.702"><path d="M593.267 159.706a7.011 7.011 0 012.2.688 9.248 9.248 0 014.379 4.43 9.374 9.374 0 01.893 4.28 9.495 9.495 0 01-1.472 4.8 9.519 9.519 0 01-4.2 3.612 9.479 9.479 0 01-11.02-2.471 9.532 9.532 0 01-2.258-5.062 9.518 9.518 0 01.719-4.967 9.354 9.354 0 012.637-3.488 9.239 9.239 0 015.851-2.137 7 7 0 012.279.317c-.01.064-.812-.161-2.274-.11a9.264 9.264 0 00-5.613 2.219 9.077 9.077 0 00-3.11 8.1 9.064 9.064 0 002.166 4.78 9 9 0 0010.407 2.335 9.091 9.091 0 004-3.4 9.076 9.076 0 00.65-8.656 9.26 9.26 0 00-4.128-4.4c-1.301-.669-2.122-.807-2.106-.87z" fill="#e0e0e0"/><path d="M600.719 149.761a1.844 1.844 0 01-.021-.326l-.023-.991-.054-3.917.067.084-8.462-1.846.153-.075-2.226 4.736-.04.085h-.1a21.166 21.166 0 00-5.516.978l-.1.032-.076-.075c-1.16-1.148-2.415-2.39-3.72-3.684l.236.026-7.305 4.651.085-.248 1.766 4.928.045.126-.091.1a21.04 21.04 0 00-3.21 4.572l-.065.125h-.139l-5.232.019.23-.186-1.884 8.454-.136-.279 4.729 2.241.138.066.007.154a21.113 21.113 0 00.961 5.494l.047.148-.11.111-3.692 3.711.035-.324 4.64 7.316-.314-.109 4.933-1.757.152-.054.117.11a21.015 21.015 0 004.555 3.208c.065.106-.142-.235.145.236v2.625c0 .872 0 1.743.006 2.609l-.208-.26 8.452 1.9-.3.145 2.246-4.726.068-.144.175.003a20.943 20.943 0 005.5-.953l.15-.047.11.11 3.707 3.7-.315-.034 7.32-4.628-.1.289-1.749-4.934-.048-.136.1-.106a20.959 20.959 0 003.223-4.56l.066-.125h5.371l-.216.174 1.914-8.448.111.229-4.722-2.257-.106-.05v-.116a21.116 21.116 0 00-.944-5.518l-.032-.1.075-.075 3.707-3.7-.022.2-4.6-7.336.141.048-4.943 1.723-.05.018-.037-.035a21.916 21.916 0 00-3.361-2.588l-.9-.543a2.27 2.27 0 01-.3-.183 2.781 2.781 0 01.318.144c.207.106.519.267.924.506a20.562 20.562 0 013.431 2.538l-.086-.018c1.343-.487 2.955-1.073 4.92-1.788l.089-.032.053.081 4.667 7.3.068.106-.089.091-3.681 3.722.043-.176a21.452 21.452 0 01.993 5.607l-.108-.166 4.732 2.235.148.069-.037.16-1.878 8.455-.038.172h-.179l-5.232.021.2-.125a21.423 21.423 0 01-3.282 4.672l.05-.242 1.763 4.93.066.185-.166.1q-3.565 2.266-7.311 4.643l-.172.109-.144-.142-3.713-3.691.26.063a21.462 21.462 0 01-5.631.982l.226-.148q-1.111 2.34-2.242 4.728l-.091.191-.205-.045q-4.166-.935-8.452-1.893l-.208-.047v-.213l-.006-2.609v-2.624c.287.472.079.131.142.236a21.485 21.485 0 01-4.692-3.306l.27.056-4.933 1.754-.2.072-.114-.179c-1.592-2.518-3.164-5-4.632-7.319l-.111-.176.148-.148 3.7-3.707-.063.26a21.606 21.606 0 01-.977-5.631l.145.218a6786.9 6786.9 0 01-4.725-2.249l-.179-.085.044-.194 1.9-8.449.043-.185h5.421l-.2.125a21.411 21.411 0 013.295-4.66l-.047.223-1.745-4.936-.057-.158.142-.089 7.326-4.618.129-.082.107.109 3.7 3.7-.176-.043a21.415 21.415 0 015.609-.959l-.135.089 2.264-4.717.047-.1.1.025 8.44 1.944.067.015v.067l-.035 3.881c-.007.428-.015.758-.019 1a2.792 2.792 0 01-.013.354zM651.955 572.154s-.018-.55-.026-1.6-.015-2.6-.026-4.628c-.015-4.065-.035-10.029-.06-17.684l-.129-64.438.242.24-152.691.072h-.012l.312-.312-.022 88.347-.29-.29 109.828.141 31.542.079 8.41.035c.949.009 1.672.015 2.175.018s.749.018.749.018-.236.012-.714.018l-2.142.018-8.351.035-31.474.079-110.022.141h-.29v-.292l-.022-88.347v-.312h.324l152.691.072h.24v.24c-.054 27.141-.1 49.248-.128 64.588l-.062 17.63-.026 4.582a71.987 71.987 0 01-.026 1.55z" fill="#e0e0e0"/><path d="M652.012 494.504c0 .173-34.156.312-76.279.312s-76.286-.139-76.286-.312 34.149-.312 76.286-.312 76.279.139 76.279.312z" fill="#e0e0e0"/><path fill="#f5f5f5" d="M512.48 509.072h47.169v47.169H512.48z"/><path d="M640.882 516.852a2.91 2.91 0 01-.694.063l-1.99.059-7.316.1-24.138.091-24.141-.091-7.316-.1-1.988-.059a2.91 2.91 0 01-.694-.063 2.906 2.906 0 01.694-.063c.523-.015 1.18-.034 1.988-.059l7.316-.1 24.141-.092 24.138.092 7.316.1c.808.025 1.466.044 1.99.059a2.906 2.906 0 01.694.063zM642.401 527.388a3.039 3.039 0 01-.71.063l-2.032.059-7.48.1-24.673.091-24.679-.091-7.478-.1-2.034-.059a3.017 3.017 0 01-.708-.063 3.127 3.127 0 01.708-.063l2.034-.057 7.478-.1 24.679-.092 24.673.092 7.48.1 2.032.057a3.149 3.149 0 01.71.063zM642.401 537.923a3.145 3.145 0 01-.71.063l-2.032.059-7.48.1-24.673.092-24.679-.092-7.478-.1c-.827-.025-1.5-.044-2.034-.059a3.122 3.122 0 01-.708-.063 3.026 3.026 0 01.708-.063l2.034-.059 7.478-.1 24.679-.091 24.673.091 7.48.1 2.032.059a3.047 3.047 0 01.71.063zM642.401 548.461a3.145 3.145 0 01-.71.063l-2.032.059-7.48.1-24.673.092-24.679-.092-7.478-.1-2.034-.059a3.122 3.122 0 01-.708-.063 3.026 3.026 0 01.708-.063l2.034-.059 7.478-.1 24.679-.091 24.673.091 7.48.1 2.032.059a3.047 3.047 0 01.71.063z" fill="#e0e0e0"/><g transform="translate(120.65)"><circle cx="63.462" cy="63.462" r="63.462" transform="rotate(-45 108.337 44.874)" fill="#f5f5f5"/><path d="M118.568 91.702a12.773 12.773 0 01-2.242.148l-6.168.125c-5.235.072-12.527.122-20.758.135h-.408v-.408-4.116c0-9.193.045-17.514.12-23.538.053-2.9.1-5.307.131-7.132a15.809 15.809 0 01.16-2.616 16.02 16.02 0 01.16 2.616l.131 7.132c.075 6.024.12 14.345.12 23.538v4.116l-.408-.408a1786 1786 0 0120.758.135l6.168.125a12.592 12.592 0 012.236.148zM89.591 36.715c.226 0 .411 2.387.411 5.33s-.185 5.332-.411 5.332-.411-2.387-.411-5.332.183-5.33.411-5.33zM118.506 45.273c.161.16-1.373 1.953-3.424 4s-3.846 3.587-4.006 3.425 1.372-1.953 3.425-4.006 3.845-3.581 4.005-3.419zM135.414 63.743c.1.207-1.909 1.418-4.373 2.92s-4.469 2.725-4.606 2.537 1.678-1.723 4.179-3.239 4.701-2.416 4.8-2.218zM145.322 91.15c0 .227-3.254.411-7.269.411s-7.269-.183-7.269-.411 3.254-.411 7.269-.411 7.269.185 7.269.411zM44.52 90.181c0 .227-3.074.411-6.866.411s-6.866-.183-6.866-.411 3.071-.411 6.871-.411 6.861.185 6.861.411zM51.65 110.587c.148.172-2.175 2.279-5.188 4.706s-5.568 4.248-5.7 4.066 2.186-2.289 5.188-4.706 5.55-4.238 5.7-4.066zM69.237 126.366c.189.139-1.534 2.788-3.531 6.121s-3.537 6.093-3.748 5.992 1.015-3.049 3.044-6.414 4.063-5.83 4.235-5.699zM89.591 146.721c-.227 0-.411-3.255-.411-7.269s.183-7.27.411-7.27.411 3.254.411 7.27-.186 7.269-.411 7.269zM120.926 137.033c-.116.183-2.961-1.452-5.995-4.106s-5.05-5.238-4.884-5.377c.177-.157 2.428 2.157 5.424 4.758s5.586 4.529 5.455 4.725zM135.629 121.198c-.161.16-2.317-1.735-4.814-4.233s-4.393-4.653-4.233-4.813 2.315 1.733 4.814 4.232 4.393 4.653 4.233 4.814zM50.982 70.634c-.161.161-2.063-1.481-4.248-3.666s-3.829-4.088-3.667-4.25 2.062 1.482 4.248 3.667 3.827 4.089 3.667 4.249zM69.13 51.517c-.16.16-2.029-1.441-4.175-3.578s-3.757-4-3.6-4.159 2.029 1.44 4.176 3.576 3.759 4.004 3.599 4.161z" fill="#e0e0e0"/></g><g opacity=".8"><path d="M555.582 57.237a42.089 42.089 0 019.13 6.431l9.754-3.472 9.169 14.472-7.305 7.338a42.007 42.007 0 011.917 11l9.35 4.442-3.751 16.718-10.35.023a41.872 41.872 0 01-6.433 9.13l3.472 9.756-14.47 9.169-7.339-7.305a41.982 41.982 0 01-11 1.914l-4.439 9.351-16.718-3.749-.022-10.351a41.9 41.9 0 01-9.131-6.433l-9.756 3.474-9.169-14.472 7.308-7.339a42.1 42.1 0 01-1.917-11l-9.348-4.44 3.75-16.718 10.35-.021a41.883 41.883 0 016.433-9.131l-3.476-9.765 14.469-9.168 7.339 7.307a41.934 41.934 0 0111.005-1.915l4.439-9.35 16.715 3.749.025 10.35zm-14.736 19.671a18.378 18.378 0 1013.91 21.954 18.377 18.377 0 00-13.91-21.954z" fill="#ebebeb" fill-rule="evenodd"/></g><g><path d="M64.293 204.298h108.473s-9.593-17.456-37.514-14.914c-26.666 2.425-28.021-8.589-41.58-9.943s-24.859 9.037-29.379 24.857z" fill="#f5f5f5"/></g><g><path d="M299.056 401.512h87.8s-7.764-14.13-30.364-12.073c-21.585 1.963-22.682-6.951-33.658-8.049s-20.122 7.317-23.778 20.122z" fill="#f5f5f5"/></g><g><path d="M674.954 618.16c0 .211-151.106.383-337.461.383C151.072 618.543 0 618.371 0 618.16s151.072-.381 337.493-.381c186.352 0 337.461.17 337.461.381z" fill="#263238"/></g><g><path fill="#fff" d="M425.326 178.697h213.038v142.642H425.326z"/><path d="M638.362 321.34s-.021-.892-.032-2.6l-.035-7.521c-.019-6.6-.044-16.287-.078-28.688l-.161-103.833.305.3-213.021.078h-.016l.381-.383-.032 142.642-.349-.35 153.48.173 43.849.094 11.664.043 3.01.021c.679.007 1.034.021 1.034.021s-.327.013-.993.021l-2.971.021-11.595.043-43.77.094-153.709.172h-.35v-.35l-.032-142.642v-.381h.4l213.021.076h.306v.3l-.16 104.024-.078 28.619-.034 7.468c-.012 1.689-.034 2.538-.034 2.538z" fill="#feab45"/><path d="M425.326 191.427c0-.211 47.654-.381 106.426-.381 58.791 0 106.435.17 106.435.381s-47.644.381-106.435.381c-58.772.001-106.426-.17-106.426-.381z" fill="#feab45"/><path d="M433.731 185.005a1.708 1.708 0 11-1.708-1.708 1.708 1.708 0 011.708 1.708zM439.581 185.005a1.707 1.707 0 11-1.707-1.708 1.707 1.707 0 011.707 1.708zM445.348 185.005a1.708 1.708 0 11-1.707-1.708 1.707 1.707 0 011.707 1.708zM443.64 206.302h56.827v56.827H443.64z" fill="#feab45" opacity=".3"/><path d="M609.148 222.364c0 .211-22.163.383-49.5.383s-49.5-.172-49.5-.383 22.158-.381 49.5-.381 49.5.172 49.5.381zM609.148 232.925c0 .211-22.163.381-49.5.381s-49.5-.17-49.5-.381 22.158-.381 49.5-.381 49.5.17 49.5.381zM609.148 243.486c0 .21-22.163.381-49.5.381s-49.5-.172-49.5-.381 22.158-.383 49.5-.383 49.5.172 49.5.383zM568.658 254.045a13.178 13.178 0 01-2.3.15l-6.269.12c-5.3.069-12.608.113-20.685.113s-15.4-.044-20.689-.113l-6.27-.12a13.167 13.167 0 01-2.3-.15 13.289 13.289 0 012.3-.148l6.27-.122c5.294-.069 12.608-.111 20.689-.111s15.389.043 20.685.111l6.269.122a13.3 13.3 0 012.3.148z" fill="#feab45"/><path fill="#e8505b" d="M447.196 282.289h26.706v26.706h-26.706z" opacity=".3"/><path fill="#feab45" d="M495.629 282.289h26.706v26.706h-26.706z" opacity=".3"/><g opacity=".3"><path fill="#feab45" d="M544.062 282.289h26.706v26.706h-26.706z"/></g><g opacity=".3"><path fill="#feab45" d="M592.494 282.289H619.2v26.706h-26.706z"/></g><g><path fill="#fff" d="M35.714 230.085h189.78v77.086H35.714z"/><path d="M225.494 307.17s-.013-.474-.021-1.377-.013-2.249-.023-4c-.012-3.518-.029-8.685-.053-15.341l-.114-56.369.211.211-189.767.089h-.013l.3-.3c0 26.994-.009 53.052-.013 77.085l-.287-.287 136.069.136 39.473.079 10.564.037 2.735.018c.617.006.94.018.94.018s-.3.012-.9.019-1.521.009-2.7.018c-2.4.007-5.93.021-10.505.037l-39.407.079-136.264.136h-.287v-.289c0-24.034-.009-50.091-.013-77.085v-.3h.314l189.767.089h.213v.211l-.114 56.5-.051 15.294-.023 3.961a27.273 27.273 0 01-.031 1.331z" fill="#feab45"/><path d="M35.904 240.482c0-.167 42.419-.3 94.735-.3 52.333 0 94.745.133 94.745.3s-42.412.3-94.745.3c-52.316-.001-94.735-.135-94.735-.3z" fill="#feab45"/><path d="M43.849 235.831a1.378 1.378 0 11-1.377-1.378 1.378 1.378 0 011.377 1.378zM48.568 235.831a1.377 1.377 0 11-1.377-1.378 1.377 1.377 0 011.377 1.378zM53.221 235.831a1.378 1.378 0 11-1.378-1.378 1.378 1.378 0 011.378 1.378z" fill="#feab45" opacity=".3"/><g opacity=".3"><path fill="#feab45" d="M51.843 253.01h45.839v45.839H51.843z"/></g><g><path d="M212.364 265.294c0 .166-23.589.3-52.681.3s-52.684-.135-52.684-.3 23.584-.3 52.684-.3 52.681.134 52.681.3zM212.364 274.633c0 .166-23.589.3-52.681.3s-52.684-.135-52.684-.3 23.584-.3 52.684-.3 52.681.132 52.681.3zM174.827 283.971a3 3 0 01-.689.06l-1.975.057-7.269.1-23.978.088-23.984-.088-7.267-.1-1.975-.057a3 3 0 01-.689-.06 3 3 0 01.689-.06c.516-.016 1.17-.034 1.975-.057l7.267-.1 23.984-.088 23.978.088 7.269.1c.8.023 1.459.041 1.975.057a3 3 0 01.689.06z" fill="#feab45"/></g></g></g><g><path d="M364.945 133.218c-3.182-2.12-7.549-.837-10.729 1.285s-5.9 5.03-9.464 6.414c-6.692 2.6-15.466-.481-20.668 4.469-3.3 3.142-3.638 8.3-6.16 12.095-4.25 6.393-14.445 8.8-15.319 16.422-.51 4.449 3.009 8.715 7.31 9.962s9.031-.069 12.76-2.549c4.355-2.895 7.776-7.358 12.74-9.006 5.072-1.683 11.332-.274 15.334-3.815s3.4-10.055 6.273-14.576c1.526-2.406 3.936-4.085 6.093-5.948s4.211-4.167 4.572-6.995-.8-7.65-2.741-7.759" fill="#f5f5f5"/><path d="M282.318 444.748c.18-.109.774.484 1.327 1.324s.862 1.622.691 1.745-.767-.472-1.329-1.326-.869-1.633-.689-1.743zM276.033 431.522c.2-.068.981 1.387 1.745 3.248s1.229 3.447 1.04 3.54-.971-1.362-1.745-3.249-1.24-3.472-1.04-3.539zM272.634 417.265c.21-.026.677 1.557 1.046 3.537s.5 3.628.293 3.678-.673-1.532-1.044-3.537-.506-3.651-.295-3.678zM272.119 402.619c.21.015.359 1.66.33 3.673s-.221 3.653-.433 3.663-.359-1.635-.33-3.675.223-3.677.433-3.661zM274.489 388.154c.2.056.023 1.7-.4 3.667s-.94 3.538-1.148 3.506-.029-1.675.4-3.667.944-3.563 1.148-3.506zM279.763 374.49c.186.1-.328 1.667-1.153 3.5s-1.651 3.264-1.849 3.191.318-1.642 1.153-3.5 1.663-3.291 1.849-3.191zM287.842 362.269c.163.133-.679 1.554-1.88 3.172s-2.327 2.829-2.481 2.727c-.2-.13.655-1.543 1.867-3.181s2.331-2.851 2.494-2.718zM297.701 351.405c.15.148-.859 1.456-2.254 2.92s-2.651 2.535-2.807 2.393.852-1.449 2.252-2.92 2.657-2.541 2.809-2.393zM308.023 340.98c.153.147-.878 1.436-2.3 2.88s-2.7 2.494-2.848 2.346.881-1.44 2.3-2.881 2.692-2.493 2.848-2.345zM317.662 329.922c.169.126-.741 1.5-2.031 3.076s-2.465 2.736-2.623 2.6.752-1.518 2.032-3.078 2.449-2.724 2.622-2.598zM325.146 317.335c.192.079-.29 1.676-1.232 3.491s-1.953 3.137-2.131 3.027.529-1.591 1.452-3.379 1.715-3.221 1.911-3.139zM328.716 303.164c.207.015.258 1.683-.079 3.7s-.924 3.584-1.125 3.53.045-1.673.371-3.654.619-3.591.833-3.576zM327.627 288.589c.2-.051.774 1.518 1.085 3.54s.246 3.692.041 3.7-.485-1.6-.795-3.587-.539-3.6-.331-3.653zM321.864 275.176c.17-.119 1.249 1.16 2.214 2.965s1.441 3.406 1.249 3.484-.974-1.358-1.922-3.123-1.718-3.205-1.541-3.326zM311.634 264.77c.113-.173 1.6.606 3.167 1.924s2.6 2.635 2.455 2.777-1.4-.909-2.944-2.192-2.799-2.33-2.678-2.509zM298.304 258.818c.044-.2 1.705 0 3.645.664s3.379 1.518 3.291 1.705-1.639-.336-3.538-.982-3.446-1.175-3.398-1.387zM283.734 258.155c-.037-.2 1.578-.658 3.629-.763s3.7.169 3.688.374-1.648.282-3.648.389-3.632.213-3.669 0zM270.208 263.541c-.12-.167 1.138-1.277 2.95-2.248s3.434-1.408 3.5-1.216-1.381.937-3.142 1.889-3.184 1.755-3.308 1.575zM260.14 274.087c-.177-.1.537-1.622 1.8-3.241s2.55-2.691 2.7-2.546-.867 1.43-2.093 3.013-2.224 2.886-2.407 2.774zM255.199 287.79c-.205-.019-.2-1.7.284-3.7s1.243-3.5 1.434-3.421-.223 1.656-.692 3.6-.812 3.543-1.026 3.521zM256.94 302.225c-.192.075-.949-1.421-1.434-3.42s-.5-3.676-.295-3.7.559 1.573 1.037 3.516.894 3.528.692 3.604zM264.375 314.79c-.157.135-1.371-1.007-2.566-2.67s-1.887-3.183-1.707-3.286 1.151 1.213 2.327 2.84 2.109 2.976 1.946 3.116zM275.174 324.677c-.12.17-1.572-.644-3.16-1.927s-2.688-2.532-2.546-2.685 1.458.828 3.027 2.091 2.802 2.346 2.679 2.521zM287.885 331.965c-.084.194-1.626-.4-3.443-1.321s-3.2-1.821-3.1-2 1.648.409 3.443 1.321 3.183 1.808 3.1 2zM301.838 336.406c-.037.205-1.7.076-3.675-.433s-3.5-1.191-3.43-1.387 1.67.148 3.62.647 3.523.964 3.485 1.173zM316.443 337.161c.023.205-1.609.556-3.654.592s-3.688-.241-3.673-.447 1.651-.276 3.659-.317 3.645-.042 3.668.172zM330.557 333.385c.089.186-1.34 1.05-3.269 1.742s-3.579.937-3.629.736 1.484-.773 3.371-1.456 3.436-1.217 3.527-1.022zM342.789 325.377c.141.152-.972 1.395-2.6 2.638s-3.11 2-3.222 1.824 1.164-1.2 2.757-2.43 2.922-2.192 3.065-2.032zM352.336 314.282c.176.111-.572 1.6-1.8 3.233s-2.449 2.77-2.6 2.632.787-1.48 1.993-3.09 2.226-2.891 2.407-2.775zM358.687 301.099c.2.062-.138 1.694-.906 3.588s-1.653 3.307-1.837 3.214.378-1.634 1.131-3.5 1.408-3.372 1.612-3.302zM361.526 286.731c.208.015.262 1.678-.015 3.7s-.777 3.61-.981 3.568-.047-1.676.224-3.67.559-3.615.772-3.598zM361.144 272.079c.208-.028.506 1.6.663 3.629s.114 3.682-.1 3.686-.509-1.62-.664-3.629-.105-3.657.101-3.686zM357.963 257.768c.2-.066.795 1.475 1.327 3.443s.8 3.6.591 3.642-.8-1.5-1.327-3.443-.791-3.578-.591-3.642zM352.351 244.217c.183-.1 1.07 1.3 1.952 3.138.823 1.864 1.331 3.439 1.136 3.518s-1.015-1.351-1.829-3.2c-.874-1.813-1.45-3.357-1.259-3.456zM345.136 231.445c.18-.109 1.158 1.223 2.185 2.972s1.71 3.252 1.526 3.357-1.163-1.226-2.186-2.972-1.707-3.251-1.525-3.357zM337.855 218.704c.188-.1 1.132 1.258 2.11 3.025s1.625 3.288 1.441 3.395-1.126-1.248-2.11-3.027-1.628-3.297-1.441-3.393zM332.127 205.221c.2-.062.936 1.417 1.636 3.3s1.114 3.481.921 3.566-.925-1.393-1.636-3.3-1.123-3.506-.921-3.566zM329.632 190.799c.214-.006.437 1.619.651 3.618s.336 3.635.126 3.673-.672-1.56-.886-3.593-.097-3.692.109-3.698zM330.843 176.209c.21.045.025 1.678-.264 3.667s-.582 3.607-.8 3.591-.257-1.679.04-3.7.822-3.603 1.024-3.558zM335.624 162.372c.191.1-.4 1.629-1.169 3.484s-1.455 3.349-1.658 3.282.164-1.691.953-3.575 1.689-3.284 1.874-3.191zM343.799 150.232c.158.142-.809 1.468-2.038 3.057s-2.274 2.858-2.453 2.739.6-1.592 1.849-3.205 2.488-2.732 2.642-2.591zM354.805 140.582c.117.177-1.15 1.221-2.741 2.452s-2.925 2.186-3.068 2.028.982-1.387 2.6-2.634 3.095-2.021 3.209-1.846zM367.857 133.945c.07.2-1.415.9-3.26 1.7s-3.374 1.4-3.472 1.211 1.292-1.1 3.169-1.912 3.495-1.195 3.563-.999zM378.491 131.256c.031.208-.746.525-1.733.708s-1.827.161-1.874-.044.73-.522 1.735-.708 1.843-.165 1.872.044z" fill="#17a6af"/><g><path d="M408.416 88.079s17.224-12.285 41.058-4.351c0 0 1.959 19.731-17.155 35.423" fill="#feab45"/><path d="M354.122 124.537c.733 1.1 19.423 31.149 19.423 31.149l56.126-34.576a19.643 19.643 0 005.48-28.42 19.643 19.643 0 00-26.735-4.616z" fill="#feab45"/><path d="M373.548 155.685l-1.258 21.142s36.37-17.614 27.293-37.181zM380.119 107.08s-24.657-10.88-44.966 5.077l18.969 12.381z" fill="#17a6af"/><path d="M379.945 124.551l-35.1 21.956s1.205 3.774 2.148 3.461c.79-.264 27.164-15.837 35.716-20.893a2.643 2.643 0 00.691-3.956 2.653 2.653 0 00-3.455-.568z" fill="#263238"/><g transform="translate(398.761 94.401)"><circle cx="11.237" cy="11.237" r="11.237" transform="matrix(.229 -.973 .973 .229 0 21.877)" fill="#fafafa"/><path d="M24.749 13.511c-.088.006-.041-1-.5-2.707a11.208 11.208 0 00-4.107-6.009A10.932 10.932 0 009.809 3.289a10.76 10.76 0 00-5.04 3.8 10.83 10.83 0 000 12.84 10.774 10.774 0 005.041 3.8 10.935 10.935 0 0010.344-1.506 11.2 11.2 0 004.106-6.009c.455-1.707.408-2.713.5-2.708a2.545 2.545 0 01.04.721 8.883 8.883 0 01-.248 2.059 11.177 11.177 0 01-4.066 6.367 11.367 11.367 0 01-4.83 2.2 11.552 11.552 0 01-6.081-.465 11.415 11.415 0 01-5.4-4.021 11.52 11.52 0 010-13.727 11.4 11.4 0 015.4-4.021 11.546 11.546 0 016.08-.465 11.34 11.34 0 014.83 2.2 11.181 11.181 0 014.068 6.367 8.883 8.883 0 01.248 2.059 2.521 2.521 0 01-.052.731z" fill="#263238"/></g><path d="M437.191 115.403c-.145.015-.315-2.182-1.176-5.6a42.587 42.587 0 00-1.953-5.854 42.235 42.235 0 00-8.154-12.628 42.9 42.9 0 00-4.531-4.191c-2.76-2.189-4.691-3.247-4.618-3.373a5.94 5.94 0 011.4.661 15 15 0 011.563.924c.589.39 1.286.8 1.984 1.361a37.662 37.662 0 014.713 4.132 39.611 39.611 0 018.3 12.847 37.744 37.744 0 011.829 6c.218.865.311 1.67.424 2.368a15.282 15.282 0 01.2 1.8 5.987 5.987 0 01.019 1.553z" fill="#263238"/><path d="M434.163 117.02c-.145.015-.321-2.219-1.2-5.692a43.776 43.776 0 00-1.984-5.958 43.38 43.38 0 00-8.254-12.881 44.039 44.039 0 00-4.587-4.288c-2.793-2.245-4.748-3.336-4.675-3.462a6.114 6.114 0 011.417.686 15.475 15.475 0 011.582.952c.6.4 1.3.828 2.008 1.4a38.613 38.613 0 014.769 4.232 40.664 40.664 0 018.4 13.092 38.847 38.847 0 011.856 6.1c.223.88.318 1.7.434 2.409a15.941 15.941 0 01.205 1.834 6.224 6.224 0 01.029 1.576z" fill="#263238"/></g></g><g><path d="M90.892 583.184c-1.257-4.986 2.035-9.965 5.716-13.557s8.072-6.8 10-11.567c3.128-7.72-.962-17.762 4.338-24.188 3.117-3.779 8.676-5.018 11.448-9.061 1.453-2.119 1.934-4.732 2.515-7.235a73.643 73.643 0 0118.508-34.166 63.892 63.892 0 01-7.373 32.987c-2.154 4.047-4.794 7.989-5.525 12.514-1.189 7.349 2.873 14.95 1.025 22.161-2.113 8.248-11.423 13.724-11.911 22.224-.412 7.185 5.817 13.53 5.31 20.711-.217 3.057-1.653 5.889-3.247 8.506-5.61 9.207-13.812 15.526-26.186 15.249l-15.161.444z" fill="#feab45"/><path d="M90.892 583.184c-1.257-4.986 2.035-9.965 5.716-13.557s8.072-6.8 10-11.567c3.128-7.72-.962-17.762 4.338-24.188 3.117-3.779 8.676-5.018 11.448-9.061 1.453-2.119 1.934-4.732 2.515-7.235a73.643 73.643 0 0118.508-34.166 63.892 63.892 0 01-7.373 32.987c-2.154 4.047-4.794 7.989-5.525 12.514-1.189 7.349 2.873 14.95 1.025 22.161-2.113 8.248-11.423 13.724-11.911 22.224-.412 7.185 5.817 13.53 5.31 20.711-.217 3.057-1.653 5.889-3.247 8.506-5.61 9.207-13.812 15.526-26.186 15.249l-15.161.444z" opacity=".3"/><path d="M77.28 618.587a12.1 12.1 0 01-4.173-.113 25.4 25.4 0 01-4.922-1.268 20.861 20.861 0 01-6.065-3.367 8.482 8.482 0 01-2.483-3.348 15.659 15.659 0 01-.688-4.534 44.012 44.012 0 00-.326-4.9 13.522 13.522 0 00-1.826-4.885c-1.768-3.15-4.719-6.138-5.654-10.407-1.013-4.2-.243-8.732.488-13.285s1.439-9.495-.273-14.241c-1.6-4.75-4.9-9.049-6.531-14.4-1.625-5.406-.82-11.207-1.136-16.935a22.467 22.467 0 00-1.928-8.429c-1.211-2.689-2.9-5.231-4.21-8.062-2.659-5.726-3.1-12.2-3.8-18.547q-.51-4.8-1.032-9.693a47.34 47.34 0 00-1.629-9.7 85.776 85.776 0 00-3.572-9.4 31.162 31.162 0 01-1.732-4.909 49.27 49.27 0 01-.459-5.216 61.383 61.383 0 01.462-10.49c.433-3.5 1.084-6.959 1.48-10.463.023-.207.048-.415.07-.6l.084-.7.619.314a23.419 23.419 0 018.121 6.933 37.169 37.169 0 014.961 9.267c2.5 6.527 3.368 13.357 4.607 19.877 1.208 6.52 2.815 12.936 6.124 18.368 1.647 2.71 3.642 5.185 5.386 7.829a21.411 21.411 0 013.711 8.66c.861 6.417-2.7 12.029-2 17.711a19.642 19.642 0 002.72 7.882c1.362 2.43 2.968 4.685 4.49 6.952a44.548 44.548 0 014.03 7.015 22.171 22.171 0 011.818 7.61c.342 5.113-.412 9.958-.065 14.539a33.47 33.47 0 003.67 12.479c1.812 3.739 3.833 7.124 5.522 10.4a52.968 52.968 0 012.271 4.843 23.728 23.728 0 011.3 4.8 30.306 30.306 0 01.075 8.64 21.8 21.8 0 01-4.4 11.008 10.406 10.406 0 01-1.233 1.321 6.009 6.009 0 01-1 .839c-.567.414-.871.6-.871.6a19.076 19.076 0 002.952-2.886 21.945 21.945 0 004.178-10.935 30.114 30.114 0 00-.145-8.528 23.461 23.461 0 00-1.314-4.686c-.636-1.568-1.428-3.159-2.285-4.779-1.7-3.251-3.747-6.622-5.6-10.385a34.01 34.01 0 01-3.8-12.7c-.372-4.678.359-9.54 0-14.533a21.4 21.4 0 00-1.786-7.354 43.766 43.766 0 00-3.983-6.877c-1.522-2.251-3.145-4.513-4.547-6.995a20.506 20.506 0 01-2.846-8.206c-.7-6.052 2.843-11.7 1.965-17.667a20.565 20.565 0 00-3.587-8.284c-1.716-2.594-3.722-5.074-5.417-7.849-3.414-5.59-5.046-12.128-6.267-18.674-1.251-6.561-2.126-13.319-4.577-19.711a36.22 36.22 0 00-4.832-9.024 22.426 22.426 0 00-7.778-6.647l.7-.383-.072.61c-.4 3.546-1.054 7.017-1.481 10.471a60.464 60.464 0 00-.46 10.331 49.242 49.242 0 00.437 5.059 30.384 30.384 0 001.675 4.735 86.52 86.52 0 013.6 9.506 48.2 48.2 0 011.65 9.864q.517 4.9 1.021 9.7c.688 6.374 1.126 12.744 3.686 18.271 1.264 2.752 2.949 5.3 4.2 8.077a23.338 23.338 0 011.983 8.74c.3 5.852-.5 11.565 1.056 16.756 1.543 5.166 4.824 9.487 6.468 14.388 1.76 4.953.99 10.067.24 14.595-.758 4.559-1.518 9-.565 13.033.853 4.076 3.719 7.037 5.524 10.278a14.013 14.013 0 011.852 5.08 44.052 44.052 0 01.29 4.964 15.409 15.409 0 00.622 4.409 8.124 8.124 0 002.333 3.2 20.818 20.818 0 005.918 3.381 26.082 26.082 0 004.849 1.345 19.465 19.465 0 003.081.317c.698-.015 1.061-.002 1.061-.002z" fill="#263238"/><path d="M30.4 439.743a1.8 1.8 0 01.144.459c.087.364.2.812.327 1.367.29 1.2.636 3 1.2 5.254.582 2.248 1.943 4.8 3.1 7.936a113.687 113.687 0 013.543 10.772c1.133 4.047 2.132 8.543 3.176 13.359 1.078 4.805 2.151 9.961 4.769 14.831 1.229 2.469 2.613 4.97 3.708 7.7a35.829 35.829 0 012.134 8.71 175.906 175.906 0 003.163 18.357c2.969 12.439 5.8 24.286 8.371 35.074l7.021 28.607 4.651 19.306 1.217 5.261.292 1.374a1.734 1.734 0 01.067.475 1.79 1.79 0 01-.163-.452c-.1-.359-.23-.8-.387-1.351l-1.395-5.217-4.95-19.23-7.225-28.557-8.452-35.083a173.654 173.654 0 01-3.157-18.432 34.916 34.916 0 00-2.053-8.5c-1.056-2.663-2.418-5.15-3.647-7.646-2.639-4.962-3.72-10.273-4.754-15.06-1.01-4.827-1.966-9.309-3.052-13.348s-2.237-7.642-3.39-10.76c-1.1-3.126-2.414-5.706-2.958-8.028-.513-2.311-.792-4.1-1.022-5.314l-.232-1.386a1.805 1.805 0 01-.046-.478z" fill="#263238"/><g><path d="M74.605 618.621c-9.867-5.942-12.608-23.821-8.417-34.549s11.476-20.511 12.656-31.968c.906-8.808-1.928-17.869.173-26.469 2.836-11.609 14.235-20.548 14.172-32.5-.035-6.7-3.814-13.033-3.472-19.73.419-8.212 6.763-14.694 10.709-21.909 6.04-11.043 6.508-24.138 8.622-36.546s6.924-25.683 17.966-31.725c1.566 10.553 4.3 17.791 3.348 32.072-.343 5.128-6.358 14.916-7.232 26.154-.523 6.717-.9 13.445-1.346 20.168-.437 6.542-.9 13.2-3.279 19.312-1.824 4.682-4.736 8.929-6.1 13.765-2.563 9.1.68 18.988-1.4 28.208-1.763 7.813-7.215 14.514-8.366 22.44-1.617 11.136 5.53 22.757 1.777 33.366-1.862 5.264-6.225 9.476-7.487 14.914-.98 4.222.037 8.7-.852 12.942-1.433 6.832-14.51 12.07-21.473 11.608" fill="#feab45"/><path d="M124.228 393.677a2.8 2.8 0 01-.047.6l-.233 1.732c-.236 1.521-.5 3.755-1.035 6.644-.569 2.9-2.085 6.17-3.305 10.111A146.945 146.945 0 00115.9 426.3c-1.158 5.074-2.137 10.691-3.163 16.737-1.06 6-2.145 12.631-5.182 18.915-1.408 3.157-2.984 6.316-4.172 9.684a43.659 43.659 0 00-2.15 10.687 215.8 215.8 0 01-3.034 23.047l-8.8 44-7.574 35.838c-2.179 10.143-3.954 18.375-5.187 24.137l-1.459 6.555c-.167.7-.3 1.264-.4 1.7a2.8 2.8 0 01-.17.573 2.564 2.564 0 01.072-.592l.309-1.72 1.279-6.591 4.886-24.207c2.1-10.232 4.6-22.388 7.368-35.88l8.719-43.99a218.413 218.413 0 003.044-22.972 44.321 44.321 0 012.222-10.9c1.224-3.44 2.823-6.612 4.229-9.743 3.019-6.19 4.1-12.665 5.207-18.687 1.06-6.034 2.079-11.666 3.286-16.75a142.322 142.322 0 013.862-13.555c1.28-3.953 2.843-7.19 3.453-10.02.581-2.836.915-5.093 1.211-6.594l.328-1.716a2.6 2.6 0 01.144-.579z" fill="#263238"/></g></g><g><path fill="#feab45" d="M561.053 387.851h10.22v33.018h-10.22zM579.865 374.262h10.22v46.607h-10.22zM599.887 367.916h10.22v52.953h-10.22zM619.909 361.222h10.22v59.647h-10.22z"/></g><g><path d="M216.533 430.689a7.023 7.023 0 012.2.688 9.251 9.251 0 014.377 4.431 9.37 9.37 0 01.894 4.28 9.532 9.532 0 01-1.472 4.8 9.512 9.512 0 01-4.2 3.612 9.482 9.482 0 01-11.018-2.471 9.519 9.519 0 01-2.26-5.062 9.524 9.524 0 01.719-4.968 9.381 9.381 0 012.637-3.489 9.262 9.262 0 015.851-2.136 7.073 7.073 0 012.28.317c-.01.066-.812-.161-2.274-.108a9.26 9.26 0 00-5.613 2.217 9.071 9.071 0 00-3.11 8.1 9.088 9.088 0 002.164 4.782 9 9 0 0010.416 2.336 9.082 9.082 0 004-3.4 9.082 9.082 0 00.651-8.656 9.264 9.264 0 00-4.129-4.4c-1.313-.672-2.135-.809-2.113-.873z" fill="#263238"/><path d="M223.981 420.745a2.118 2.118 0 01-.021-.327c0-.243-.013-.569-.022-.99l-.054-3.917.066.082-8.462-1.846.153-.073-2.226 4.735-.04.085h-.1a21.192 21.192 0 00-5.516.98l-.1.032-.075-.075c-1.16-1.148-2.415-2.392-3.722-3.684l.236.025-7.3 4.653.085-.248a9280.34 9280.34 0 001.766 4.928l.044.126-.091.1a21.153 21.153 0 00-3.21 4.574l-.063.123h-.141c-1.622 0-3.411.012-5.232.018l.232-.185-1.886 8.454-.135-.279 4.728 2.241.139.065.006.154a21.112 21.112 0 00.962 5.495l.047.15-.111.111-3.691 3.711.035-.324 4.638 7.314-.312-.107 4.931-1.758.152-.053.119.109a20.955 20.955 0 004.553 3.208c.065.106-.142-.236.145.236V463.821l-.208-.26 8.452 1.9-.3.144 2.246-4.726.069-.142.157-.006a21 21 0 005.5-.953l.15-.047.111.11 3.707 3.7-.315-.035 7.32-4.628-.1.29-1.749-4.934-.05-.138.1-.106a21.049 21.049 0 003.223-4.559l.065-.125h5.371l-.216.173 1.914-8.448.111.23-4.722-2.257-.1-.05v-.116a21.116 21.116 0 00-.946-5.518l-.031-.1.075-.075 3.706-3.7-.022.2-4.6-7.338.141.048-4.942 1.724-.05.018-.038-.035a22.048 22.048 0 00-3.361-2.59l-.9-.543a2.428 2.428 0 01-.3-.182 2.24 2.24 0 01.318.144c.207.106.519.267.924.506a20.562 20.562 0 013.433 2.538l-.088-.018 4.921-1.787.089-.032.051.081 4.667 7.3.067.106-.089.089-3.681 3.722.043-.176a21.4 21.4 0 01.994 5.609l-.11-.166 4.733 2.233.147.07-.035.158-1.88 8.455-.038.173h-.177c-1.7.007-3.439.015-5.232.021l.2-.123a21.511 21.511 0 01-3.282 4.672l.05-.242 1.761 4.928.066.185-.166.106-7.297 4.638-.17.109-.145-.144-3.713-3.689.26.063a21.52 21.52 0 01-5.631.982l.226-.15q-1.109 2.343-2.242 4.729l-.089.191-.207-.047-8.452-1.893-.208-.045v-.214l-.006-2.609v-2.623c.287.471.079.131.144.235a21.521 21.521 0 01-4.669-3.29l.27.056-4.933 1.754-.2.072-.113-.179-4.632-7.319-.111-.177.147-.147 3.7-3.708-.063.26a21.594 21.594 0 01-.975-5.629l.144.219c-1.636-.78-3.252-1.55-4.725-2.249l-.179-.087.044-.192c.661-2.934 1.307-5.8 1.906-8.449l.041-.186h5.422l-.2.123a21.5 21.5 0 013.295-4.66l-.045.224c-.61-1.726-1.207-3.408-1.746-4.936l-.056-.158.141-.089 7.326-4.619.129-.081.107.107c1.3 1.3 2.547 2.55 3.7 3.7l-.176-.043a21.412 21.412 0 015.61-.958l-.135.089 2.263-4.717.047-.1.106.023 8.439 1.944.067.016v.067l-.037 3.881-.018 1a2.6 2.6 0 01-.042.351z" fill="#263238"/><path d="M208.023 354.964a23.506 23.506 0 015.1 3.594l5.452-1.941 5.123 8.088-4.082 4.1a23.465 23.465 0 011.07 6.151l5.226 2.481-2.1 9.342-5.785.013a23.4 23.4 0 01-3.6 5.1l1.941 5.453-8.087 5.123-4.1-4.082a23.462 23.462 0 01-6.151 1.069l-2.481 5.226-9.344-2.1-.012-5.785a23.389 23.389 0 01-5.1-3.6l-5.453 1.941-5.125-8.089 4.085-4.1a23.516 23.516 0 01-1.072-6.15l-5.225-2.481 2.1-9.344 5.785-.013a23.426 23.426 0 013.6-5.1l-1.941-5.452 8.089-5.125 4.1 4.084a23.453 23.453 0 016.15-1.07l2.481-5.226 9.344 2.1.013 5.786zm-8.238 10.993a10.272 10.272 0 107.775 12.272 10.272 10.272 0 00-7.775-12.272z" fill="#feab45" fill-rule="evenodd"/><path d="M208.023 354.964a23.506 23.506 0 015.1 3.594l5.452-1.941 5.123 8.088-4.082 4.1a23.465 23.465 0 011.07 6.151l5.226 2.481-2.1 9.342-5.785.013a23.4 23.4 0 01-3.6 5.1l1.941 5.453-8.087 5.123-4.1-4.082a23.462 23.462 0 01-6.151 1.069l-2.481 5.226-9.344-2.1-.012-5.785a23.389 23.389 0 01-5.1-3.6l-5.453 1.941-5.125-8.089 4.085-4.1a23.516 23.516 0 01-1.072-6.15l-5.225-2.481 2.1-9.344 5.785-.013a23.426 23.426 0 013.6-5.1l-1.941-5.452 8.089-5.125 4.1 4.084a23.453 23.453 0 016.15-1.07l2.481-5.226 9.344 2.1.013 5.786zm-8.238 10.993a10.272 10.272 0 107.775 12.272 10.272 10.272 0 00-7.775-12.272z" fill="#fff" fill-rule="evenodd" opacity=".8"/><g><path d="M174.238 410.003a13.708 13.708 0 012.97 2.092l3.173-1.129 2.984 4.713-2.377 2.387a13.665 13.665 0 01.625 3.579l3.041 1.446-1.22 5.439-3.368.007a13.623 13.623 0 01-2.092 2.971l1.134 3.171-4.708 2.984-2.387-2.377a13.685 13.685 0 01-3.581.623l-1.444 3.041-5.44-1.22-.006-3.367a13.626 13.626 0 01-2.971-2.094l-3.175 1.131-2.983-4.708 2.377-2.387a13.673 13.673 0 01-.623-3.581l-3.041-1.444 1.219-5.439 3.368-.007a13.621 13.621 0 012.092-2.971l-1.129-3.175 4.707-2.983 2.389 2.377a13.666 13.666 0 013.579-.623l1.446-3.041 5.437 1.22.009 3.367zm-4.795 6.4a5.98 5.98 0 104.525 7.143 5.98 5.98 0 00-4.525-7.143z" fill="#feab45" fill-rule="evenodd"/><path d="M174.238 410.003a13.708 13.708 0 012.97 2.092l3.173-1.129 2.984 4.713-2.377 2.387a13.665 13.665 0 01.625 3.579l3.041 1.446-1.22 5.439-3.368.007a13.623 13.623 0 01-2.092 2.971l1.134 3.171-4.708 2.984-2.387-2.377a13.685 13.685 0 01-3.581.623l-1.444 3.041-5.44-1.22-.006-3.367a13.626 13.626 0 01-2.971-2.094l-3.175 1.131-2.983-4.708 2.377-2.387a13.673 13.673 0 01-.623-3.581l-3.041-1.444 1.219-5.439 3.368-.007a13.621 13.621 0 012.092-2.971l-1.129-3.175 4.707-2.983 2.389 2.377a13.666 13.666 0 013.579-.623l1.446-3.041 5.437 1.22.009 3.367zm-4.795 6.4a5.98 5.98 0 104.525 7.143 5.98 5.98 0 00-4.525-7.143z" fill="#fff" fill-rule="evenodd" opacity=".4"/></g></g><g><path d="M498.093 356.04a14.319 14.319 0 0010.358-14.29c-.179-2.87-1.246-5.662-1.123-8.534.191-4.459 3.15-8.228 5.376-12.095s3.72-8.968 1.125-12.6c-1.683-2.355-4.656-3.417-6.694-5.471-2-2.012-2.943-4.8-4.012-7.423s-2.455-5.332-4.917-6.734-6.238-.779-7.238 1.873M471.454 283.706c4.392-2.789 5.453-9.257 3.072-13.884s-7.432-7.436-12.568-8.264a23.947 23.947 0 00-20.632 6.836c-2.835 2.92-5.131 6.728-8.974 8.065-3.38 1.176-7.118.114-10.665.575-4.755.616-8.832 4-11.271 8.127s-3.444 8.943-4.008 13.706c-.518 4.371-.859 9.168-3.892 12.357-2.956 3.112-7.628 3.77-11.306 5.983-6.918 4.164-9.16 14.477-4.6 21.138 1.456 2.123 3.546 4.071 3.714 6.64.154 2.346-1.362 4.434-2.072 6.675-1.829 5.769 2.895 12.624 8.936 12.97 3.05.176 6.319-1.013 9.053.351 2.716 1.355 3.726 4.629 5.464 7.118a13.059 13.059 0 0015.925 4.113c2.244-1.1 4.362-2.917 6.855-2.748s4.447 2.292 6.895 2.766c3.206.62 6.25-1.741 8.154-4.392s3.235-5.773 5.673-7.942c3.194-2.84 7.681-3.543 11.722-4.934a33.066 33.066 0 0018.68-46.327" fill="#263238"/><path d="M481.103 289.474a7.023 7.023 0 016.267 7.135l-4.189 94.833c-.176 11.2-16.548 17.494-28.538 17.215-12.109-.282-12.5-6.22-12.652-16.876-.252-17.8-.232-24.484-.238-24.383 0 0-15.3-2.575-18.423-22.547-1.554-9.932-1.019-26.21-.151-39.514.78-11.976 8.748-26.654 20.68-25.365z" fill="#ffbe9d"/><path d="M427.572 318.263a2.56 2.56 0 002.464 2.59 2.45 2.45 0 002.644-2.3 2.562 2.562 0 00-2.461-2.59 2.45 2.45 0 00-2.647 2.3zM426.69 313.814c.317.334 2.26-1.1 5.015-1.084 2.752-.025 4.772 1.4 5.071 1.06.148-.15-.174-.752-1.054-1.4a7.029 7.029 0 00-4.057-1.261 6.745 6.745 0 00-3.993 1.28c-.85.652-1.135 1.255-.982 1.405zM455.036 318.262a2.56 2.56 0 002.464 2.59 2.45 2.45 0 002.644-2.3 2.561 2.561 0 00-2.461-2.59 2.45 2.45 0 00-2.647 2.3zM453.772 314.388c.318.334 2.263-1.1 5.016-1.084 2.752-.026 4.772 1.4 5.071 1.059.147-.148-.172-.752-1.054-1.395a7.022 7.022 0 00-4.057-1.261 6.745 6.745 0 00-3.993 1.279c-.847.648-1.137 1.251-.983 1.402zM443.728 334.799c.013-.157-1.7-.456-4.474-.817-.7-.075-1.368-.216-1.487-.7a3.583 3.583 0 01.475-2.084q1-2.551 2.093-5.354c2.906-7.621 5.012-13.888 4.7-14s-2.915 5.971-5.82 13.592c-.7 1.88-1.37 3.67-2.006 5.384a4.084 4.084 0 00-.371 2.761 1.772 1.772 0 001.155 1.031 4.819 4.819 0 001.194.169c2.798.158 4.53.174 4.541.018z" fill="#263238"/><path d="M441.753 367.399a50.781 50.781 0 0026.752-7.074s-6.776 14.076-26.752 12.164z" fill="#eb996e"/><path d="M444.878 341.438a4.966 4.966 0 014.455-1.834 4.537 4.537 0 013.126 1.686 2.871 2.871 0 01.211 3.285 3.33 3.33 0 01-3.613.9 10.424 10.424 0 01-3.518-2.109 3.052 3.052 0 01-.785-.817.92.92 0 01.006-1.025" fill="#e8505b"/><path d="M451.831 336.722c-.447-.026-.46 2.964-3.025 5.081s-5.747 1.78-5.77 2.2c-.043.188.708.584 2.053.623a7.448 7.448 0 004.818-1.667 6.489 6.489 0 002.345-4.26c.116-1.253-.216-1.993-.421-1.977zM452.545 309.561c.27.749 3.021.4 6.253.8 3.241.331 5.845 1.285 6.275.613.192-.321-.261-1.026-1.312-1.754a10.954 10.954 0 00-9.545-1.075c-1.189.473-1.789 1.06-1.671 1.416z" fill="#263238"/><g><path d="M427.721 305.842c.482.626 2.383-.019 4.665-.044 2.282-.106 4.214.43 4.662-.224.2-.317-.109-.944-.952-1.538a6.755 6.755 0 00-7.514.216c-.808.64-1.073 1.284-.861 1.59z" fill="#263238"/></g><path d="M467.998 282.981c4.574-3.078 10.5-4.494 15.825-2.964s9.74 6.329 9.92 11.754c.116 3.527-1.406 7.276.158 10.457 1.49 3.027 5.16 4.258 7.763 6.451a11.915 11.915 0 012.758 14.406c-2.179 4-6.763 6.936-7.147 11.454-.362 4.251 3.222 7.838 4.093 12.018.963 4.61-1.589 9.38-5.248 12.439s-8.279 4.744-12.8 6.37c-3.524 1.268-7.3 2.556-10.957 1.726a11.217 11.217 0 01-8.212-9.364 15.263 15.263 0 014.157-12.052c2.565-2.823 6.16-5.223 6.776-8.951.96-5.805-5.958-10.577-5.531-16.442.22-3.025 2.354-5.53 4.129-8.017s3.324-5.616 2.235-8.457c-1.417-3.691-6.267-4.653-9.2-7.36a8.964 8.964 0 01-2.449-9.08 9.243 9.243 0 017.238-6.17" fill="#263238"/><path d="M470.145 278.48a13.659 13.659 0 01-16.115 13.488c-3.05-.557-6.392-2.1-9.033-.474-2.777 1.708-2.892 5.895-5.355 8.033-3.519 3.054-9.115.188-13.583 1.513-3.45 1.023-5.606 4.321-7.9 7.1s-5.726 5.412-9.177 4.389a40.483 40.483 0 011.37-9.206 13.607 13.607 0 015.228-7.5 50.751 50.751 0 004.412-2.568c2.864-2.312 3.528-6.336 5.3-9.565a14.966 14.966 0 0111.4-7.565c3.927-.4 7.974.777 11.8-.189 2.83-.713 5.3-2.55 8.169-3.094 5.582-1.062 10.773 2.944 14.821 6.934" fill="#263238"/><g><path d="M506.612 326.207a4.331 4.331 0 00.443-2.3 5.8 5.8 0 00-4.019-4.593 29.675 29.675 0 00-4.389-1.182 12.845 12.845 0 01-4.971-2.049 7 7 0 01-2.587-5.341 56.349 56.349 0 01.308-6.286 14.366 14.366 0 00-.157-3.072 6.558 6.558 0 00-1.177-2.62c-1.2-1.5-3.082-2.161-4.807-2.758a21.641 21.641 0 01-4.895-2.11 17.227 17.227 0 01-7.134-8.635 11.64 11.64 0 01-.512-1.748 1.977 1.977 0 01-.089-.629c.069-.019.267.833.877 2.267a17.77 17.77 0 003.641 5.424 18.018 18.018 0 008.336 4.764c1.733.589 3.766 1.249 5.165 2.955a7.267 7.267 0 011.34 2.944 14.935 14.935 0 01.174 3.255 59.38 59.38 0 00-.324 6.2 6.3 6.3 0 002.273 4.836 12.424 12.424 0 004.685 1.987 28.64 28.64 0 014.449 1.3 7.014 7.014 0 013.094 2.323 5.314 5.314 0 011.015 2.744 3.485 3.485 0 01-.361 1.809 1.4 1.4 0 01-.378.515z" fill="#455a64"/></g><g><path d="M389.016 338.665a1.265 1.265 0 01-.327-.154 2.215 2.215 0 01-.749-.755 4.032 4.032 0 01.408-3.943 5.249 5.249 0 012.138-2.046 27.513 27.513 0 013.21-1.355 9.9 9.9 0 003.358-1.9 7.181 7.181 0 001.918-3.786c.337-1.5.435-3.137.707-4.84a10.626 10.626 0 011.981-5.033c2.326-3.065 6.135-4.692 8.979-7.565a13.832 13.832 0 003.119-5.288 36.4 36.4 0 001.412-6.393c.617-4.386 1.239-9.3 4.192-13.315a9.726 9.726 0 016.024-3.892 21.133 21.133 0 016.952.174 25.246 25.246 0 006.5.38 8.456 8.456 0 005.308-2.741c2.724-2.939 4.291-6.9 7.64-8.921a12.758 12.758 0 0110.086-1.39 11.182 11.182 0 016.64 5.16 12.57 12.57 0 011.724 6.157 10.813 10.813 0 01-.638 3.994 6.693 6.693 0 01-.589 1.28c-.038-.018.176-.455.443-1.329a11.345 11.345 0 00.487-3.937 12.411 12.411 0 00-1.793-5.946 10.757 10.757 0 00-6.418-4.86 12.233 12.233 0 00-9.6 1.4 14.041 14.041 0 00-3.852 3.977 44.465 44.465 0 01-3.616 4.895 9.942 9.942 0 01-2.55 2 9.45 9.45 0 01-3.175.982 25.77 25.77 0 01-6.691-.362 20.589 20.589 0 00-6.7-.17 8.964 8.964 0 00-5.562 3.607 18.469 18.469 0 00-2.854 6.258 61.553 61.553 0 00-1.21 6.709 36.836 36.836 0 01-1.462 6.518 14.511 14.511 0 01-3.305 5.543c-3.01 2.983-6.783 4.575-8.977 7.456a10.008 10.008 0 00-1.9 4.745c-.283 1.663-.4 3.311-.763 4.864a7.67 7.67 0 01-2.11 4.019 10.268 10.268 0 01-3.541 1.95 27.938 27.938 0 00-3.191 1.276 4.974 4.974 0 00-2.054 1.878 3.908 3.908 0 00-.526 3.716 3.249 3.249 0 00.927.983z" fill="#455a64"/></g><g><path d="M340.021 476.115l35.416-3.247s21.795-57.4 48.661-71.323l17.4 30.4-37.253 70h-72.738z" fill="#feab45"/><path d="M340.021 476.115l35.416-3.247s21.795-57.4 48.661-71.323l17.4 30.4-37.253 70h-72.738z" opacity=".3"/><path d="M354.014 492.325c-.18-.109 1.155-2.676 2.984-5.736s3.459-5.452 3.641-5.343-1.155 2.675-2.985 5.736-3.459 5.451-3.64 5.343zM379.106 491.63c-.164.132-2.1-2.006-4.327-4.773s-3.9-5.121-3.732-5.253 2.1 2 4.327 4.774 3.896 5.12 3.732 5.252zM383.462 478.467c-.211 0-.381-2.079-.381-4.642s.17-4.644.381-4.644.381 2.078.381 4.644-.17 4.642-.381 4.642zM370.998 498.996c-.116.176-1.632-.61-3.386-1.758s-3.084-2.22-2.968-2.4 1.631.61 3.386 1.758 3.085 2.224 2.968 2.4zM391.332 446.229c.192.087-.9 2.95-2.446 6.395s-2.952 6.171-3.144 6.084.9-2.949 2.447-6.4 2.951-6.166 3.143-6.079zM405.686 422.968c.128.169-1.139 1.342-2.827 2.622s-3.161 2.182-3.289 2.013 1.138-1.342 2.827-2.622 3.161-2.18 3.289-2.013z" fill="#fafafa"/><path d="M458.659 497.404l18.259-73.769a25.094 25.094 0 0128.81-18.665 25.092 25.092 0 0120.35 28.539l-11.182 72.1a36.072 36.072 0 01-29.929 29.185l-14.52 2.266z" fill="#feab45"/><path d="M516.22 400.204a16.485 16.485 0 00-6.515-3.274 17.369 17.369 0 00-7.861.054 21.327 21.327 0 00-8.546 4.456c-5.354 4.487-8.266 10.317-10.245 14.4-.978 2.075-1.723 3.78-2.255 4.952a10.184 10.184 0 01-.892 1.793 9.918 9.918 0 01.617-1.906 96.729 96.729 0 012.038-5.063 54.8 54.8 0 013.755-7.2 32.025 32.025 0 016.493-7.566 21.494 21.494 0 018.874-4.555 17.38 17.38 0 018.15.107 13.875 13.875 0 014.949 2.39 9.344 9.344 0 011.109 1c.235.255.348.393.329.412zM412.743 416.8a3.535 3.535 0 01-.51.685l-1.563 1.871c-1.351 1.626-3.28 4-5.48 7.077-4.365 6.107-9.867 15.23-12.47 26.472-2.547 11.248-2.673 21.783-3.106 29.327-.182 3.783-.359 6.845-.522 8.958-.088.988-.158 1.792-.216 2.431a3.625 3.625 0 01-.128.845 3.519 3.519 0 01-.025-.853l.072-2.439.279-8.964c.3-7.544.33-18.117 2.9-29.477a72.891 72.891 0 0112.778-26.619 93.707 93.707 0 015.691-6.954c.705-.792 1.288-1.377 1.673-1.78a3.6 3.6 0 01.627-.58z" fill="#263238"/><path d="M529.789 416.644c-2-13.19-9.289-16.357-16.834-20.465-2.468-1.342-14.36-4.395-23.789-6.694-.9-5.714-2.515-15.939-2.87-18.1-.5-3.032-48.032 4.55-48.634 5.688-.4.754-1.494 12.6-2.186 20.494l-11.38 3.978-14.853 18.885-7.731 10.979a59.166 59.166 0 00-9.575 21.076c-1.873 8.41-2.131 16.612-2.131 25.544l-2.3 48.428 99.458 28.123 7.7-49.057 25.659-34.927c2.194-14.124 11.932-37.733 9.466-53.952z" fill="#feab45"/><path d="M444.907 399.091a15.388 15.388 0 01-.661-3.359 269.703 269.703 0 01-1.06-8.174q-.257-2.373-.493-4.511a31.691 31.691 0 01-.262-3.729 4.475 4.475 0 01.708-2.478c.384-.5.713-.633.733-.6.042.05-.213.267-.481.76a4.773 4.773 0 00-.421 2.324c.026 1.016.255 2.257.422 3.644l.553 4.5c.37 3.2.663 6.1.837 8.2a15.294 15.294 0 01.125 3.423zM457.588 396.094a11.494 11.494 0 01-1.057-3.075 49.222 49.222 0 01-1.439-15.574 11.572 11.572 0 01.477-3.217c.236.019-.2 4.95.38 10.992.541 6.039 1.868 10.812 1.639 10.874zM481.19 392.664c-.252-.026.8-4.955-.271-10.938-1-6-3.654-10.284-3.425-10.392a9.883 9.883 0 011.742 2.76 27.775 27.775 0 012.667 15.384 9.875 9.875 0 01-.713 3.186z" fill="#263238"/><path d="M413.653 435.798c-.173-.111 1.474-2.94 3.895-6.162s4.67-5.6 4.827-5.465-1.817 2.719-4.216 5.923-4.326 5.822-4.506 5.704zM436.055 417.576c-.169.129-1.939-1.906-3.955-4.544s-3.515-4.882-3.348-5.009 1.937 1.906 3.955 4.546 3.515 4.88 3.348 5.007zM459.467 406.127c.138.167-2.059 2.175-4.678 4.732s-4.688 4.7-4.854 4.555 1.667-2.522 4.32-5.1 5.085-4.347 5.212-4.187zM452.893 392.171c-.142.155-1.779-1.1-3.656-2.8s-3.286-3.205-3.144-3.362 1.779 1.1 3.656 2.8 3.284 3.205 3.144 3.362zM473.406 381.229c.044.205-2.166.853-4.936 1.447s-5.052.906-5.1.7 2.166-.855 4.936-1.449 5.056-.905 5.1-.698zM477.51 413.705c-.211.01-.5-2.279-.641-5.112s-.089-5.141.122-5.151.5 2.277.641 5.112.088 5.141-.122 5.151zM470.029 429.326c-.2.072-1.348-2.584-2.568-5.93s-2.05-6.121-1.851-6.194 1.348 2.584 2.568 5.931 2.05 6.12 1.851 6.193zM449.713 440.334c-.2.076-1.459-2.7-2.821-6.207s-2.307-6.408-2.11-6.484 1.46 2.7 2.823 6.207 2.304 6.408 2.108 6.484zM430.585 452.814c-.207.042-.944-2.708-1.648-6.144s-1.106-6.255-.9-6.3.944 2.708 1.647 6.144 1.108 6.258.901 6.3zM407.864 453.313c-.189.092-1.565-2.342-3.072-5.434s-2.575-5.676-2.386-5.769 1.566 2.34 3.072 5.434 2.575 5.676 2.386 5.769zM407.374 467.879c.094.189-2.573 1.7-5.955 3.368s-6.2 2.871-6.294 2.682 2.572-1.7 5.955-3.367 6.2-2.872 6.294-2.683zM407.657 490.931c-.191.073-1.257-2.274-2.07-5.338s-1.065-5.629-.862-5.66.79 2.442 1.6 5.464 1.536 5.458 1.332 5.534zM402.957 507.123c-.144.155-2.286-1.573-4.788-3.862s-4.415-4.273-4.273-4.428 2.286 1.575 4.788 3.864 4.415 4.27 4.273 4.426zM432.896 496.075c.056.219-3.311 1.18-7.241 2.914-3.94 1.714-6.93 3.538-7.053 3.348-.114-.158 2.735-2.3 6.747-4.047 4.002-1.764 7.509-2.407 7.547-2.215zM424.139 488.045c-.2.07-1.163-2.178-2.153-5.019s-1.631-5.2-1.433-5.273 1.164 2.179 2.154 5.021 1.631 5.202 1.432 5.271zM441.902 468.222c.177.113-1.619 3.285-4.015 7.086s-4.483 6.791-4.66 6.678 1.619-3.285 4.015-7.086 4.483-6.791 4.66-6.678zM460.982 470.123c-.16.123-2.527-2.738-4.873-6.659s-3.764-7.352-3.581-7.435c.2-.094 1.9 3.164 4.236 7.042s4.399 6.92 4.218 7.052zM472.413 451.293c.041.2-2.44.842-5.583.991s-5.673-.232-5.653-.434c.018-.219 2.531-.169 5.616-.329s5.582-.443 5.62-.228zM499.553 429.841c.089.191-3.128 1.914-7.188 3.848s-7.424 3.349-7.515 3.159 3.126-1.914 7.187-3.848 7.425-3.351 7.516-3.159zM501.357 416.195c-.189-.094.962-2.8 2.571-6.044s3.066-5.8 3.255-5.706-.962 2.8-2.572 6.044-3.064 5.8-3.254 5.706zM518.606 426.901c-.211.048-1.068-2.978-2.227-6.671s-2.173-6.672-1.972-6.753 1.538 2.793 2.7 6.524 1.7 6.856 1.499 6.9zM521.308 441.096c.072.189-2.758 1.415-6.434 2.352s-6.744 1.233-6.773 1.032 2.952-.836 6.584-1.773 6.548-1.816 6.623-1.611zM491.758 458.432c-.221-.044.408-3.613.585-8.056.2-4.442-.123-8.05.1-8.077.192-.034.864 3.59.661 8.109-.18 4.519-1.157 8.074-1.346 8.024zM485.862 476.268c-.135.148-2.714-2.041-5.364-5.245s-4.338-6.135-4.167-6.241c.186-.122 2.126 2.6 4.755 5.753s4.93 5.573 4.776 5.733zM515.499 472.511c.082.194-2.657 1.522-6.115 2.966s-6.329 2.458-6.409 2.264 2.656-1.524 6.115-2.968 6.328-2.454 6.409-2.262zM504.882 506.083c-.211 0-.346-3.615-.3-8.069s.252-8.064.463-8.061.346 3.613.3 8.069-.254 8.064-.463 8.061zM482.129 504.156c-.2-.026.167-3.785 1.3-8.289s2.575-7.993 2.764-7.923c.207.073-.909 3.642-2.022 8.109s-1.823 8.136-2.042 8.103zM483.177 512.965c.012.22-3.644.57-8.1 1.312s-8.033 1.573-8.093 1.361c-.057-.192 3.461-1.377 7.968-2.115s8.213-.758 8.225-.558zM458.01 507.316c-.151-.147 1.795-2.408 4.348-5.05s4.745-4.667 4.9-4.521-1.795 2.408-4.348 5.052-4.745 4.666-4.9 4.519zM441.716 523.173c-.217.041-.868-2.6-1.981-5.738s-2.245-5.612-2.05-5.714c.174-.1 1.647 2.249 2.77 5.461s1.459 5.959 1.261 5.991zM468.022 532.234c-.087.192-3.38-1.082-7.357-2.848s-7.132-3.352-7.046-3.546 3.379 1.082 7.357 2.848 7.131 3.354 7.046 3.546zM422.169 529.576c-.2-.066.418-2.468 1.38-5.364s1.9-5.191 2.1-5.125-.418 2.469-1.38 5.365-1.901 5.19-2.1 5.124zM452.38 534.688c-.043.223-4.213-.453-9.4-.719-5.185-.286-9.4-.057-9.42-.283-.023-.194 4.213-.768 9.461-.479 5.25.27 9.401 1.289 9.359 1.481z" fill="#fafafa"/><path d="M458.658 491.449a1.731 1.731 0 01-.04-.578 5.439 5.439 0 01.236-1.664 3.682 3.682 0 011.594-2.182 5.122 5.122 0 013.579-.591l-.3.174c1.606-5.624 4.169-13.84 6.735-23.045 2.4-8.619 4.024-16.558 5.162-22.314l1.343-6.819a16.473 16.473 0 01.579-2.485 16.141 16.141 0 01-.287 2.537c-.23 1.626-.6 3.972-1.1 6.867a229.555 229.555 0 01-4.956 22.416c-2.572 9.231-5.228 17.415-6.983 22.993l-.069.217-.232-.042a4.757 4.757 0 00-3.26.435 3.431 3.431 0 00-1.538 1.928 20.312 20.312 0 00-.463 2.153z" fill="#263238"/><path d="M491.539 511.845c-.125.057-1.026-1.928-2.892-4.887a50.409 50.409 0 00-19.948-18.13c-3.123-1.575-5.187-2.283-5.14-2.414a5.947 5.947 0 011.485.39 33.033 33.033 0 013.89 1.537 45.7 45.7 0 0120.174 18.335 33.3 33.3 0 011.9 3.726 5.926 5.926 0 01.531 1.443z" fill="#263238"/><path d="M464.384 485.334c5.607.4 10.2.826 15.464 2.8s10.13 5.75 12.065 11.027c.465 1.266.685 2.862-.274 3.81a2.715 2.715 0 01-2.779.447 7.353 7.353 0 01-2.428-1.67c-3.233-2.99-6.582-5.631-9.92-8.5s-8.185-5.895-12.539-6.561" opacity=".2"/><path d="M453.812 475.982a6.791 6.791 0 01-1.529.884 26.627 26.627 0 01-4.51 1.7 30.125 30.125 0 01-29.527-7.668 26.735 26.735 0 01-3.113-3.682 6.776 6.776 0 01-.906-1.516c.123-.092 1.458 2.06 4.393 4.808a31.07 31.07 0 0029.015 7.536c3.901-.971 6.115-2.202 6.177-2.062z" fill="#263238"/><path d="M415.022 466.833c2.468 5.37 5.368 10.772 10.05 14.378 2.7 2.078 5.855 3.826 9.262 3.881 4.895.081 9.1-3.258 12.834-6.423-12.1 1.895-25.736-3.594-32.146-11.837" opacity=".2"/><path d="M469.237 394.977c-.233-.013.048-5.035-.556-11.18-.573-6.148-1.8-11.026-1.576-11.083a12.053 12.053 0 011.018 3.145 56.5 56.5 0 011.516 15.835 12.092 12.092 0 01-.402 3.283z" fill="#263238"/></g><g><path d="M295.3 591.209s-15.938 3.445-30.166 1.311c-13.34-2-43.208.069-43.2 17.651.013 19.608 39.841 14.763 55.382 11.655s31.014-5.924 31.014-5.924z" fill="#feab45"/><path d="M259.531 616.329c-.205.047-1.068-3.009-1.925-6.825s-1.386-6.945-1.18-6.992 1.068 3.009 1.925 6.825 1.385 6.947 1.18 6.992zM264.967 616.588c-.21.029-.811-3.1-1.345-7s-.8-7.074-.589-7.1.811 3.1 1.345 7 .8 7.069.589 7.1zM270.216 614.537c-.21.026-.713-2.711-1.123-6.113s-.573-6.181-.364-6.206.713 2.711 1.123 6.115.572 6.179.364 6.204zM278.461 612.482c-.185.079-1.317-2.207-2.05-5.25s-.786-5.593-.585-5.606c.219-.021.6 2.447 1.327 5.426s1.512 5.347 1.308 5.43zM280.227 605.314a6.852 6.852 0 012.082-.139 17.668 17.668 0 015.6 1.1 6.228 6.228 0 011.723.928 2.615 2.615 0 011.079 1.943 2.947 2.947 0 01-3.609 2.622 7.423 7.423 0 01-4.16-2.962 12.654 12.654 0 01-2.354-4.9 12.449 12.449 0 011.754-10.153 2.024 2.024 0 011.183-.713 1.607 1.607 0 011.326.414 3.564 3.564 0 011 2.139 10.88 10.88 0 01-.21 3.989 11.077 11.077 0 01-2.689 5.028 8.678 8.678 0 01-1.163 1.032c-.292.2-.45.3-.466.279-.044-.054.556-.5 1.406-1.507a11.453 11.453 0 002.384-4.951 10.532 10.532 0 00.111-3.776 2.972 2.972 0 00-.814-1.727 1.022 1.022 0 00-1.538.257 12.436 12.436 0 00.655 14.126 6.815 6.815 0 003.7 2.73 2.3 2.3 0 002.851-1.915 2.02 2.02 0 00-.82-1.5 5.775 5.775 0 00-1.544-.88 19.414 19.414 0 00-5.418-1.3c-1.326-.127-2.068-.102-2.069-.164z" fill="#263238"/><path d="M306.755 613.307a1.72 1.72 0 01-.4.128l-1.2.3-4.621 1.053c-4.021.884-9.851 2.125-17.095 3.524s-15.9 2.978-25.6 4.3a69.141 69.141 0 01-15.382.767 33.052 33.052 0 01-8.056-1.54 22.123 22.123 0 01-3.867-1.719 11.939 11.939 0 01-3.4-2.735l.059.065a8.088 8.088 0 01-1.386-1.663 10.371 10.371 0 01-.811-8.581 13.718 13.718 0 015.109-6.679 25.966 25.966 0 017.263-3.6c1.271-.361 2.509-.8 3.769-1.082 1.265-.252 2.5-.588 3.749-.761 9.989-1.576 19.075-.776 26.622-.773 3.785.07 7.2-.032 10.2-.216a68.266 68.266 0 007.631-.965l2.748-.578 1.98-.565 1.223-.336a1.945 1.945 0 01.425-.091 1.769 1.769 0 01-.4.164l-1.2.409q-.823.268-1.968.638l-2.747.648a63.756 63.756 0 01-7.657 1.1 121.36 121.36 0 01-10.234.331c-7.565.063-16.645-.673-26.5.927-1.233.174-2.449.512-3.7.763-1.241.286-2.455.72-3.7 1.076a25.281 25.281 0 00-7.052 3.51 12.988 12.988 0 00-4.832 6.31 9.635 9.635 0 00.733 7.942 7.36 7.36 0 001.249 1.5l.025.025.034.043a11.432 11.432 0 003.15 2.512 21.472 21.472 0 003.727 1.66 32.486 32.486 0 007.877 1.516 69.054 69.054 0 0015.23-.717c9.684-1.279 18.34-2.812 25.594-4.131s13.1-2.491 17.133-3.288l4.648-.914 1.211-.224a1.852 1.852 0 01.419-.053z" fill="#263238"/><path d="M248.477 622.749a26.363 26.363 0 01-.386-4.072c-.18-2.515-.479-5.98-.988-9.786s-1.135-7.231-1.622-9.7a26.15 26.15 0 01-.7-4.031 18.576 18.576 0 011.226 3.912 89.811 89.811 0 012.623 19.583 18.536 18.536 0 01-.153 4.094z" fill="#263238"/><path d="M290.395 592.057l10.1 25.3 7.837-1.451-15.01-24.692z" opacity=".4"/></g><path d="M422.015 522.724c-1.625.541-105.992-28.706-148.2-40.573a40.091 40.091 0 00-32.64 4.94l-.509.328a40.1 40.1 0 00-17.265 42.748 40.077 40.077 0 0018.1 25.1c27.833 17.051 86.736 52.924 88.538 52.226 2.359-.915 75.921-2.823 75.921-2.823l-88.5-63.646 42.1 27.21 62.45-45.507z" fill="#263238"/><path d="M334.88 490.963l22.186-11.477 21.755 13.639 81.455 2.661 11.79 39.655-117.894-27.33s-21.459 1.9-23.066-2.924 3.774-14.224 3.774-14.224z" fill="#ffbe9d"/><path d="M401.613 554.513l-10.966 36.01 1.364 10.974a56.343 56.343 0 0074.315 5.009 55.215 55.215 0 0021.589-44.039l-.164-37.626z" fill="#263238"/><g><path d="M336.31 554.748c-.126.17-12.856-9.111-28.428-20.726s-28.1-21.173-27.975-21.341 12.854 9.109 28.431 20.729 28.098 21.169 27.972 21.338z" fill="#455a64"/></g><g><path d="M355.57 486.676c.065.2-4.8 1.937-10.853 3.878s-11.02 3.351-11.084 3.15 4.794-1.937 10.853-3.877 11.02-3.352 11.084-3.151z" fill="#eb996e"/></g><g><path d="M357.228 493.437a23.2 23.2 0 01-3.779.71c-2.336.381-5.553.955-9.068 1.761s-6.66 1.7-8.929 2.377a22.982 22.982 0 01-3.708 1.01 16.577 16.577 0 013.54-1.524 79.727 79.727 0 0118.093-4.16 16.584 16.584 0 013.851-.174z" fill="#eb996e"/></g><g><path d="M355.37 499.638c.041.207-5.431 1.466-12.222 2.813s-12.332 2.271-12.373 2.063 5.431-1.465 12.224-2.812 12.33-2.264 12.371-2.064z" fill="#eb996e"/></g><g><path d="M326.59 437.766l20.465 67.337a1.953 1.953 0 001.72 1.378l55.767 4.185a1.949 1.949 0 011.8 1.944v3.481a1.95 1.95 0 01-1.987 1.95l-152.442-2.863a1.954 1.954 0 01-1.784-1.25l-26.81-70.241a1.949 1.949 0 011.73-2.644l99.582-4.659a1.949 1.949 0 011.959 1.382z" fill="#455a64"/><path d="M283.632 466.779a4.81 4.81 0 00-3.016 3.425 4.615 4.615 0 001.971 4.2 5.013 5.013 0 005.572.208 4.645 4.645 0 001.521-5.628c-.673-1.859-4.077-3.16-6.047-2.2" fill="#e0e0e0"/></g><g><path d="M308.331 615.9l-16.112-26.508 118.485-92.861a47.607 47.607 0 0125.879-10.605 47.611 47.611 0 0151.764 51.379l-1.893 22.655-78.647 25.273z" fill="#263238"/><path d="M460.276 552.964a1.782 1.782 0 01-.314.292l-.968.8-3.773 3.012q-1.243.979-2.741 2.163c-1 .793-2.178 1.528-3.395 2.387l-3.936 2.7c-.7.474-1.408.978-2.157 1.462l-2.352 1.417c-3.22 1.921-6.694 4.123-10.634 6.113-1.953 1.022-3.946 2.136-6.052 3.178l-6.547 3.1c-9.02 4.112-19.123 8.248-29.953 11.93-21.642 7.458-41.651 12.826-55.98 17.171a501.419 501.419 0 00-9.668 2.943c-2.842.878-5.291 1.635-7.272 2.309l-4.587 1.49c-.494.151-.889.274-1.2.37a1.758 1.758 0 01-.418.1 1.779 1.779 0 01.392-.174l1.175-.441 4.543-1.628c1.969-.717 4.4-1.516 7.237-2.433a404.694 404.694 0 019.64-3.053c14.3-4.48 34.284-9.93 55.888-17.376 10.813-3.676 20.9-7.782 29.911-11.848l6.543-3.066c2.106-1.028 4.1-2.128 6.052-3.134 3.942-1.961 7.421-4.128 10.65-6.015q1.208-.713 2.359-1.39c.751-.474 1.462-.971 2.166-1.434l3.958-2.642c1.226-.84 2.414-1.557 3.424-2.331s1.936-1.469 2.774-2.1c1.639-1.232 2.93-2.2 3.857-2.895l1.015-.739a1.815 1.815 0 01.363-.238z" fill="#455a64"/><path d="M463.15 565.358a4.58 4.58 0 01-1.2.626c-.787.361-1.947.833-3.4 1.372a86.628 86.628 0 01-23.6 5.071c-1.544.1-2.8.15-3.663.144a4.613 4.613 0 01-1.346-.079 45.011 45.011 0 014.959-.6c3.06-.342 7.275-.936 11.866-1.918s8.672-2.179 11.6-3.125a45.251 45.251 0 014.784-1.491zM405.961 500.987c.129.166-25.23 20.094-56.634 44.5s-56.979 44.07-57.109 43.9 25.224-20.089 56.64-44.507 56.974-44.06 57.103-43.893z" fill="#455a64"/><path d="M399.117 599.527c-5.684-3.031-12.064-1.239-17.5.594-3.62 1.22-7.382 3.153-11.058 2.117-2.659-.749-4.635-2.9-6.666-4.776a41.9 41.9 0 00-30.627-10.973 12.473 12.473 0 00-8.411 3.8c-5.582 6.046-1.373 13.914 3.616 19a55.119 55.119 0 0033.306 16.067c10.4 1.085 24.689-.35 35.232-4.864 6.5-2.783 9.835-10.451 6.424-16.643a10.679 10.679 0 00-4.316-4.322z" fill="#feab45"/><path d="M399.101 604.366c-5.684-3.031-12.064-1.239-17.5.594-3.619 1.22-7.38 3.153-11.056 2.117-2.659-.749-4.637-2.9-6.666-4.776a41.9 41.9 0 00-30.628-10.974 12.478 12.478 0 00-8.411 3.8 9.7 9.7 0 00-2.343 4.238c.827 3.635 3.273 7.182 5.959 9.921a55.123 55.123 0 0033.307 16.067c10.4 1.085 24.689-.35 35.231-4.864a12.857 12.857 0 007.5-8.938 10.857 10.857 0 00-1.075-2.867 10.676 10.676 0 00-4.318-4.318z" opacity=".4"/><path d="M404.491 611.556a9.871 9.871 0 00-1.393-3.367 11.023 11.023 0 00-3.041-2.974 12.151 12.151 0 00-5.225-2c-4.22-.5-9.109 1.28-14.54 2.751-2.685.71-5.618 1.8-8.828 1.395a11.7 11.7 0 01-4.541-1.572 28.231 28.231 0 01-3.9-2.939 42.493 42.493 0 00-23.276-11.031 24.334 24.334 0 00-6.879-.04 14.987 14.987 0 00-5.321 1.856 13.571 13.571 0 00-3.26 2.763 33.012 33.012 0 00-2.1 3.03 11.794 11.794 0 011.87-3.219 13.316 13.316 0 013.266-2.937 15.2 15.2 0 015.456-2.026 24.5 24.5 0 017.043-.054 40.5 40.5 0 017.879 1.755 45.594 45.594 0 018.159 3.6 33.993 33.993 0 013.971 2.585c1.264.991 2.462 2.079 3.689 3.138a27.981 27.981 0 003.792 2.865 10.978 10.978 0 004.248 1.482c2.974.393 5.826-.623 8.549-1.331 5.407-1.416 10.38-3.186 14.793-2.607a12.226 12.226 0 018.448 5.348 7.89 7.89 0 011.051 2.566 3.61 3.61 0 01.09.963z" fill="#263238"/><path d="M404.491 611.556a9.871 9.871 0 00-1.393-3.367 11.023 11.023 0 00-3.041-2.974 12.151 12.151 0 00-5.225-2c-4.22-.5-9.109 1.28-14.54 2.751-2.685.71-5.618 1.8-8.828 1.395a11.7 11.7 0 01-4.541-1.572 28.231 28.231 0 01-3.9-2.939 42.493 42.493 0 00-23.276-11.031 24.334 24.334 0 00-6.879-.04 14.987 14.987 0 00-5.321 1.856 13.571 13.571 0 00-3.26 2.763 33.012 33.012 0 00-2.1 3.03 11.794 11.794 0 011.87-3.219 13.316 13.316 0 013.266-2.937 15.2 15.2 0 015.456-2.026 24.5 24.5 0 017.043-.054 40.5 40.5 0 017.879 1.755 45.594 45.594 0 018.159 3.6 33.993 33.993 0 013.971 2.585c1.264.991 2.462 2.079 3.689 3.138a27.981 27.981 0 003.792 2.865 10.978 10.978 0 004.248 1.482c2.974.393 5.826-.623 8.549-1.331 5.407-1.416 10.38-3.186 14.793-2.607a12.226 12.226 0 018.448 5.348 7.89 7.89 0 011.051 2.566 3.61 3.61 0 01.09.963z" fill="#263238"/><path d="M334.003 610.187a14.586 14.586 0 012.911-2.016 83.966 83.966 0 0115.431-7.254 14.575 14.575 0 013.408-.955 18.444 18.444 0 01-3.216 1.461c-2.007.836-4.769 2.012-7.769 3.42s-5.663 2.788-7.588 3.8a18.35 18.35 0 01-3.177 1.544zM335.955 615.873c-.092-.191 4.879-2.783 11.1-5.791s11.342-5.294 11.435-5.1-4.879 2.782-11.1 5.791-11.344 5.289-11.435 5.1z" fill="#263238"/><path d="M359.501 618.337c-.113.177-6.169-3.436-13.526-8.071s-13.232-8.539-13.12-8.716 6.168 3.434 13.527 8.071 13.23 8.534 13.119 8.716z" fill="#263238"/><g><path d="M362.908 612.44a18.1 18.1 0 01-2.965-1.981c-1.782-1.285-4.239-3.06-6.99-4.968s-5.277-3.585-7.1-4.8a18.012 18.012 0 01-2.9-2.081 15.281 15.281 0 013.181 1.623c1.908 1.1 4.49 2.719 7.256 4.634s5.181 3.768 6.883 5.167a15.3 15.3 0 012.635 2.406z" fill="#263238"/></g></g></g></svg>