<svg xmlns="http://www.w3.org/2000/svg" viewBox="0 0 750 500"><path d="M231.73 87.06c2.56-1.07 4.38-3.71 4.39-6.82.02-4.07-3.07-7.39-6.89-7.41-3.82-.02-6.93 3.27-6.94 7.34-.01 3.14 1.82 5.81 4.41 6.89-10.64 1.6-10.16 13.17-10.16 13.17l25.16.12c.01 0 .58-11.69-9.97-13.29z" fill="#e0e0e0"/><path fill="#f5f5f5" d="M640.28 147.91l-11.67-12.57 3.78-3.51 8.06 8.67 16.93-16.66 3.62 3.68z"/><path d="M471.02 216.56c0-8.58-9.02-14.02-18.22-9.72-2.08.97-3.8 2.62-4.84 4.64-2.31 4.48-1.29 9.6.81 13.85l7.16 18.14c1.03 2.61 4.74 2.6 5.75-.02l7.02-18.23c2.42-5.57 2.32-8.66 2.32-8.66zm-8.64 7.47c-6.18 3.59-12.45-3.05-9.06-9.61.45-.87 1.14-1.6 1.96-2.08 6.18-3.6 12.45 3.05 9.06 9.61-.45.87-1.14 1.6-1.96 2.08zM577.37 341.18c-19.27-17.6-20.37-45.5-16.18-69.87.7-4.07.84-8.44 3.29-11.75 2.46-3.32 7.39-5.13 10.86-2.9 2.88 1.85 3.74 5.57 5.06 8.72 1.76 4.2 4.73 7.88 8.46 10.49 2.45 1.71 5.6 2.99 8.4 1.93 3.84-1.45 4.92-6.27 5.46-10.34.99-7.58 1.98-15.16 2.96-22.75.53-4.07 1.08-8.22 2.89-11.9 1.81-3.68 5.13-6.88 9.19-7.42 4.07-.54 8.61 2.35 8.89 6.44.12 1.7-.46 3.38-.58 5.08-.12 1.7.43 3.68 1.98 4.37 1.58.7 3.38-.23 4.78-1.24 4.81-3.52 8.42-8.41 11.83-13.3 3.42-4.89 6.77-9.91 11.24-13.86 4.47-3.95 10.29-6.76 16.23-6.28 5.94.48 11.74 4.94 12.44 10.86.71 5.94-3.47 11.28-7.79 15.42a92.287 92.287 0 01-21.6 15.38c-1.42.73-2.96 1.52-3.67 2.96-1.26 2.59.97 5.64 3.56 6.9 2.93 1.43 6.31 1.57 9.47 2.39 3.16.81 6.45 2.69 7.25 5.85 1.12 4.39-3 8.26-6.85 10.63a79.896 79.896 0 01-25.12 10.08c-3.18.68-6.5 1.2-9.23 2.97-2.73 1.77-4.7 5.22-3.62 8.28 1.08 3.07 4.75 4.51 8 4.36 3.25-.14 6.33-1.45 9.5-2.17 5.95-1.33 13.2.06 16.17 5.38 1.95 3.5 1.55 7.95-.17 11.57s-4.61 6.54-7.62 9.19c-10.51 9.26-23.28 16.12-37.02 18.81-13.73 2.68-26.06 2.22-38.46-4.28" fill="#ebebeb"/><path d="M578.9 351.1c2.23-9.57 1.67-12.52 7.03-24.36 5.34-11.85 12.29-24.36 20.01-37.19 1.94-3.2 3.86-6.36 5.75-9.48 1.89-3.11 3.77-6.19 5.8-9.09 4.03-5.82 8.35-11.11 12.61-16.01 4.26-4.9 8.49-9.4 12.47-13.57 3.99-4.17 7.79-7.99 11.4-11.32 7.2-6.69 13.65-11.4 18.2-14.46 2.28-1.54 4.08-2.67 5.32-3.43.6-.36 1.07-.64 1.41-.85.32-.19.49-.27.49-.27s-.15.12-.46.33c-.33.22-.79.52-1.37.9-1.21.79-2.99 1.96-5.25 3.52a153.58 153.58 0 00-18.04 14.58c-3.58 3.34-7.35 7.17-11.33 11.35-3.96 4.19-8.17 8.69-12.41 13.59s-8.54 10.18-12.55 15.98c-2.01 2.89-3.88 5.95-5.77 9.07-1.89 3.12-3.81 6.28-5.75 9.48-7.72 12.83-14.67 25.3-20.02 37.11-5.38 11.79-4.85 14.7-7.13 24.22" fill="#e0e0e0"/><path d="M617.66 270.93c-.04 0-.09-.64-.14-1.79-.05-1.15-.08-2.82-.09-4.89-.02-4.13.15-9.83.35-16.11.2-6.29.26-11.98.16-16.09-.05-2.06-.1-3.72-.16-4.88-.05-1.15-.06-1.79-.02-1.79.04 0 .13.63.26 1.78s.26 2.81.36 4.88c.22 4.12.22 9.83.02 16.13-.21 6.23-.39 11.87-.53 16.1-.04 1.97-.08 3.61-.11 4.88-.02 1.14-.05 1.78-.1 1.78z" fill="#e0e0e0"/><path d="M671.95 268.44c0 .02-.19.02-.56.01-.44-.02-.96-.05-1.59-.08-1.38-.08-3.36-.19-5.83-.25-4.92-.16-11.73-.14-19.23.21-7.51.37-14.28 1-19.17 1.6-2.45.28-4.42.57-5.78.76-.62.08-1.14.15-1.57.21-.36.04-.55.05-.56.03 0-.02.18-.07.54-.16.43-.09.94-.2 1.55-.33 1.35-.26 3.32-.62 5.77-.96 4.88-.71 11.67-1.41 19.2-1.78 7.52-.36 14.35-.31 19.28-.03 2.46.12 4.46.3 5.83.45.63.08 1.14.14 1.58.2.35.06.54.1.54.12zM586.66 325.84c-.02.01-.11-.23-.26-.69-.17-.53-.38-1.19-.64-2.02-.55-1.75-1.27-4.31-2.13-7.48-1.72-6.34-3.83-15.17-6.04-24.94-2.21-9.78-4.25-18.61-5.86-24.97-.8-3.12-1.46-5.67-1.94-7.53-.21-.84-.39-1.52-.52-2.05-.11-.47-.16-.72-.14-.73.02-.01.11.23.26.69.16.52.37 1.19.63 2.02.55 1.75 1.27 4.31 2.13 7.48 1.72 6.34 3.83 15.17 6.04 24.95 2.21 9.77 4.25 18.61 5.86 24.97.8 3.12 1.46 5.67 1.94 7.53.21.84.39 1.52.52 2.05.12.46.17.71.15.72z" fill="#e0e0e0"/><path d="M660.07 313.13c0 .02-.25.08-.74.17-.55.1-1.26.22-2.14.38-1.94.33-4.6.79-7.87 1.35-6.64 1.15-15.8 2.85-25.9 4.75-10.11 1.9-19.29 3.54-25.95 4.58-3.33.52-6.03.92-7.9 1.16l-2.16.27c-.49.05-.75.07-.76.05 0-.02.25-.08.74-.17.55-.1 1.26-.23 2.14-.38 1.93-.33 4.6-.79 7.87-1.35 6.64-1.15 15.8-2.85 25.91-4.75s19.28-3.54 25.95-4.58c3.33-.52 6.03-.92 7.9-1.16l2.16-.27c.49-.06.75-.08.75-.05z" fill="#e0e0e0"/><g><path d="M58.28 218.46s5.96-6.78 19.54 8.19c13.58 14.97 19.66 24.07 19.66 24.07s3.33 3 5.18-.06c1.85-3.06 3.44-10.74 8.02-10.68 4.75.06 7.54 4.59 8.67 12.04 1.13 7.46 4.19 23.71 4.48 25.17.28 1.44 1.65 3.3 3.25 1.42s9.47-17.53 16.67-13.35c7.2 4.18 6.93 25.47 6.94 27.8.01 2.33.69 3.14 1.87 3.4 1.18.26 3.33-5.25 5.75-9.61 2.42-4.36 5.99-8.99 9.95-6.23s8.94 17.32 1.38 45.23l-4.35 12.7-13.19 2.81c-28.6 4.3-42.49-2.32-44.78-6.57-2.29-4.24 2.72-7.26 7.33-9.17 4.61-1.9 10.33-3.41 10.21-4.61-.12-1.2-.85-1.97-3.16-2.25s-23.49-2.45-26.82-10.09c-3.33-7.63 13.12-13.66 15.18-15.03 2.05-1.37.36-2.95-1.04-3.39-1.43-.45-17.21-5.36-24.49-7.34-7.28-1.97-11.45-5.27-10.97-9.99.47-4.56 8.28-5.25 11.53-6.74 3.25-1.49.65-5.14.65-5.14s-8.35-7.09-21.66-22.3-5.68-20.44-5.68-20.44" fill="#ebebeb"/><path d="M70.46 231.84c.01-.01.1.08.26.26.18.2.42.46.73.8.66.73 1.59 1.77 2.78 3.1 2.42 2.72 5.89 6.62 10.16 11.43 8.63 9.64 20.53 22.92 33.67 37.59 13.18 14.66 25.05 27.99 33.56 37.7 4.22 4.86 7.65 8.79 10.04 11.54 1.16 1.36 2.06 2.42 2.7 3.16.29.35.52.62.69.83.15.19.23.29.22.29-.01.01-.1-.08-.26-.26-.18-.2-.42-.46-.73-.8-.65-.73-1.59-1.77-2.77-3.1-2.42-2.72-5.89-6.62-10.16-11.43-8.58-9.65-20.49-22.94-33.68-37.6-13.18-14.65-25.05-27.98-33.56-37.7-4.22-4.86-7.65-8.8-10.04-11.54-1.16-1.36-2.06-2.42-2.7-3.16-.29-.35-.52-.62-.69-.83-.15-.18-.23-.28-.22-.28z" fill="#e0e0e0"/><path d="M108.89 250.81c.08 0 .12 1.38.18 3.61.07 2.37.17 5.37.27 8.7.11 3.4.19 6.48.18 8.71-.01 1.12-.03 2.02-.07 2.64-.04.62-.08.97-.12.97-.08 0-.1-1.38-.18-3.6-.09-2.37-.21-5.38-.34-8.7-.11-3.4-.15-6.48-.12-8.72.02-1.12.04-2.02.08-2.64.05-.62.09-.97.12-.97zM108.21 276c0 .14-6.36.17-14.21.06-7.85-.11-14.2-.32-14.2-.46s6.36-.17 14.21-.06c7.85.11 14.21.31 14.2.46zM132.68 300.76c.01.03-.31.17-.91.39-.6.22-1.47.51-2.56.86-2.17.68-5.2 1.56-8.59 2.34-3.39.79-6.49 1.35-8.75 1.69-1.13.17-2.04.29-2.68.36-.63.07-.99.09-.99.05-.01-.07 1.37-.34 3.61-.77 2.23-.43 5.31-1.04 8.69-1.83 3.38-.78 6.41-1.59 8.61-2.18 2.19-.61 3.55-.98 3.57-.91zM138.31 278.12c.07.02-.2 1.29-.68 3.34-.49 2.05-1.2 4.86-2.01 7.97-.81 3.11-1.58 5.91-2.16 7.93-.58 2.02-.97 3.26-1.04 3.25-.07-.02.2-1.29.68-3.34.49-2.05 1.2-4.86 2.01-7.97.81-3.1 1.58-5.91 2.16-7.93.58-2.03.97-3.27 1.04-3.25zM162.69 297.23c.03.01-.04.42-.21 1.16-.21.84-.46 1.88-.76 3.1-.66 2.61-1.61 6.21-2.69 10.18-1.08 3.97-2.09 7.56-2.84 10.14-.36 1.21-.67 2.23-.92 3.06-.23.72-.37 1.11-.41 1.1-.03-.01.04-.42.21-1.16.21-.84.46-1.88.76-3.1.66-2.61 1.61-6.21 2.69-10.18 1.08-3.97 2.09-7.55 2.84-10.14.36-1.21.67-2.23.92-3.06.23-.71.37-1.1.41-1.1zM154.85 325.24c.01.03-.41.18-1.19.42-.77.24-1.9.56-3.29.93-2.79.75-6.67 1.7-10.99 2.58-4.32.88-8.27 1.53-11.13 1.93-1.43.2-2.59.34-3.4.43-.8.08-1.25.11-1.26.08 0-.04.43-.13 1.23-.28.9-.16 2.03-.36 3.37-.59 2.84-.49 6.77-1.19 11.08-2.07 4.31-.87 8.2-1.77 11.01-2.42 1.33-.31 2.44-.57 3.33-.77.79-.19 1.23-.28 1.24-.24z" fill="#e0e0e0"/></g><g><path d="M105.89 241.63c-.02-.05.58.06 1.41-.5.39-.29.82-.78 1.01-1.47.1-.35.09-.73.09-1.16 0-.43 0-.88.01-1.36.04-3.86.09-9.4.15-16.22a5405.294 5405.294 0 00.09-8.24c-.01-.49.05-.99-.04-1.42-.09-.45-.31-.87-.63-1.2-.32-.33-.74-.56-1.2-.65-.44-.07-.99-.03-1.5-.04-1.04 0-2.1 0-3.17.01-2.15 0-4.35.01-6.62.01-9.06.01-19.02.01-29.47.02-1.2-.02-2.25 1.02-2.33 2.2-.02 1.28-.04 2.56-.07 3.82-.04 2.55-.07 5.05-.11 7.52-.08 4.93-.15 9.68-.22 14.21l-.03 1.69c-.03.54.09 1.03.36 1.47.27.43.66.77 1.12.94.45.2.97.14 1.52.15 2.15 0 4.23.01 6.24.01l11.2.03c6.83.03 12.36.06 16.22.08 1.89.02 3.37.04 4.41.05.48.01.86.02 1.15.03.28 0 .41.01.41.02s-.13.02-.39.03c-.28.01-.66.01-1.15.03-1.04.01-2.52.03-4.41.05-3.86.02-9.4.05-16.22.08l-11.2.03c-2.01 0-4.1.01-6.24.01-.51-.01-1.11.06-1.68-.18-.56-.21-1.04-.62-1.36-1.13a2.93 2.93 0 01-.43-1.72c.01-.56.01-1.12.02-1.69.06-4.53.12-9.28.19-14.21.03-2.46.07-4.97.1-7.52.02-1.28.04-2.57.07-3.86.1-1.42 1.36-2.69 2.84-2.67 10.45.01 20.41.01 29.47.02 2.26 0 4.47.01 6.62.01 1.07 0 2.13 0 3.17.01.53.02 1.01-.04 1.59.05.55.1 1.05.39 1.43.78.38.39.63.89.74 1.42.1.54.03 1.03.04 1.51-.02.97-.03 1.92-.05 2.86-.03 1.87-.06 3.66-.09 5.38-.13 6.83-.24 12.36-.31 16.22l-.03 1.36c-.01.42-.01.84-.12 1.2a2.75 2.75 0 01-1.09 1.52c-.43.28-.82.38-1.08.41-.3.03-.43 0-.43 0z" fill="#455a64"/><path fill="#455a64" d="M87.66 222.63l5.46 3.31-5.58 3.28-5.58 3.27.12-6.59.12-6.59z"/><path d="M593.5 127.04c3.5-1.47 5.99-5.08 6.01-9.33.02-5.57-4.2-10.11-9.42-10.14-5.22-.02-9.48 4.47-9.5 10.05-.02 4.29 2.49 7.95 6.03 9.42-14.56 2.19-13.9 18.02-13.9 18.02l34.43.16s.79-16-13.65-18.18z" fill="#df9e4e"/><path fill="#fff" d="M333.586 96.705l55.837-5.295 3.57 37.64-55.838 5.294z"/><path d="M393.01 129.04s-.04-.24-.09-.7l-.21-2c-.18-1.76-.44-4.32-.77-7.58-.65-6.55-1.57-15.93-2.7-27.34l.23.19c-15.41 1.48-34.81 3.34-55.83 5.35-.06.06.44-.54.23-.28v.07l.01.08.01.16.03.31.06.63.12 1.25.24 2.49c.16 1.66.31 3.3.47 4.93.31 3.26.61 6.47.91 9.62.59 6.3 1.16 12.36 1.7 18.09l-.26-.21c16.42-1.51 30.35-2.79 40.2-3.7l11.51-1.03c1.32-.11 2.35-.2 3.07-.26.34-.03.6-.05.8-.06.17-.01.27-.02.27-.01.01 0-.08.02-.25.04-.19.02-.45.05-.77.09-.71.07-1.72.18-3.02.32-2.68.27-6.56.66-11.45 1.15-9.88.97-23.86 2.33-40.33 3.94l-.24.02-.02-.24c-.55-5.73-1.13-11.79-1.73-18.09-.3-3.15-.61-6.36-.92-9.62-.16-1.63-.31-3.27-.47-4.93l-.24-2.49-.12-1.25-.06-.63-.03-.31-.01-.16-.01-.08V96.73c-.21.25.29-.35.24-.29 21.02-1.97 40.42-3.8 55.84-5.25l.21-.02.02.21c1.04 11.48 1.9 20.91 2.5 27.49.28 3.25.51 5.79.66 7.54.07.84.12 1.5.16 1.96.04.45.04.67.04.67z" fill="#455a64"/><g><path d="M389.44 91.4c.01.01-.14.2-.43.56-.33.39-.77.9-1.32 1.53-1.2 1.36-2.87 3.26-4.92 5.59-4.24 4.74-10.05 11.23-16.52 18.47l-.15.16-.19-.12c-.47-.3-.98-.62-1.49-.95-8.52-5.46-16.22-10.41-21.86-14.02-2.75-1.79-4.99-3.25-6.59-4.3-.74-.49-1.33-.89-1.78-1.19-.4-.28-.61-.43-.6-.45.01-.02.24.11.66.36l1.83 1.11c1.63 1.01 3.9 2.43 6.68 4.16 5.66 3.58 13.39 8.48 21.94 13.89.51.32 1.02.65 1.49.95l-.33.05c6.52-7.2 12.37-13.66 16.64-18.37 2.11-2.29 3.82-4.15 5.04-5.48.57-.61 1.04-1.1 1.39-1.47.33-.32.5-.49.51-.48z" fill="#455a64"/></g><g><path d="M265.3 136.32c-.08.01.01-1.33-.56-3.62-.27-1.14-.82-2.49-1.67-3.92-.86-1.42-2.09-2.91-3.77-4.17-1.67-1.25-3.77-2.3-6.2-2.73-2.41-.41-5.12-.33-7.71.66-1.3.45-2.56 1.14-3.71 2-1.17.85-2.22 1.9-3.1 3.11-1.8 2.4-2.82 5.48-2.85 8.66.03 3.18 1.04 6.26 2.85 8.66.87 1.22 1.93 2.27 3.1 3.12 1.15.86 2.41 1.55 3.71 2 2.58.99 5.3 1.06 7.71.66 2.42-.42 4.53-1.48 6.2-2.73 1.67-1.26 2.91-2.74 3.77-4.17.85-1.43 1.4-2.78 1.67-3.92.57-2.29.47-3.62.56-3.61.01 0 .01.08.01.24 0 .19-.01.42-.01.71 0 .31-.02.7-.09 1.15-.06.45-.12.98-.28 1.56-.24 1.17-.77 2.55-1.61 4.02-.85 1.47-2.09 3-3.79 4.31-1.7 1.3-3.85 2.4-6.34 2.86-2.48.44-5.28.38-7.95-.63-1.35-.46-2.65-1.16-3.84-2.05a14.17 14.17 0 01-3.21-3.21c-1.87-2.48-2.93-5.67-2.96-8.96.03-3.29 1.09-6.48 2.96-8.96.91-1.26 2-2.34 3.21-3.21 1.19-.89 2.49-1.59 3.84-2.05 2.68-1 5.48-1.07 7.95-.63 2.49.46 4.64 1.56 6.34 2.86a14.85 14.85 0 013.79 4.31c.85 1.47 1.37 2.86 1.61 4.02.16.58.22 1.1.28 1.56.08.45.09.84.09 1.15 0 .29.01.52.01.71 0 .15 0 .24-.01.24z" fill="#263238"/><path d="M285.33 161.2c-.08.12-5.35-3.28-11.78-7.59-6.43-4.31-11.57-7.91-11.49-8.03.08-.12 5.35 3.28 11.78 7.59 6.42 4.32 11.57 7.91 11.49 8.03z" fill="#263238"/></g><g><path fill="#df9e4e" d="M329.53 188.7l-11.68-12.57 3.79-3.51 8.06 8.67 16.93-16.66 3.62 3.68z"/></g></g><g><path d="M657.21 176.67s.19-.01.57 0c.19.01.43.01.7.02.28.03.6.08.96.13 1.43.24 3.61.82 5.85 2.56 2.19 1.7 4.43 4.7 4.91 8.75.1 1.01.1 2.05.1 3.11 0 1.07.01 2.17.01 3.31.01 2.27.01 4.68.02 7.2.01 2.53.01 5.18.02 7.95 0 1.39.01 2.8.01 4.24.04 1.43-.04 2.96-.44 4.42-.76 2.94-2.63 5.73-5.34 7.56-1.35.91-2.89 1.59-4.54 1.94-1.65.38-3.37.3-5.05.32l-44.64.03.18-.08c-3.21 3.21-6.62 6.62-10.07 10.08l-.44.44v-.63-4.55-5.52l.26.26c-1.09 0-2.2.02-3.31-.12-1.11-.13-2.18-.43-3.21-.83-2.06-.81-3.86-2.18-5.26-3.84a13.572 13.572 0 01-2.76-5.79c-.19-1.05-.27-2.13-.26-3.17v-3.11c0-4.13 0-8.18.01-12.14v-5.88c.04-1.94-.1-3.85.18-5.77.3-1.9 1.01-3.71 2.05-5.27 1.04-1.56 2.41-2.86 3.95-3.82 1.54-.97 3.26-1.59 5-1.85 1.76-.25 3.47-.13 5.14-.16l18.64.03c11.37.03 20.56.06 26.92.08 3.16.02 5.61.04 7.3.05.82.01 1.45.02 1.9.03.42 0 .64.02.64.02s-.22.02-.65.03c-.44.01-1.07.01-1.9.03-1.69.01-4.14.03-7.3.05-6.36.02-15.54.05-26.92.08l-18.64.03c-1.67.03-3.4-.08-5.08.17-1.68.26-3.34.86-4.83 1.8-1.49.94-2.81 2.19-3.81 3.7-1 1.51-1.69 3.25-1.97 5.08-.27 1.82-.13 3.76-.16 5.7v5.88c0 3.96 0 8.02.01 12.14.05 2.06-.14 4.17.25 6.18a13.24 13.24 0 002.65 5.57c1.35 1.59 3.08 2.91 5.06 3.69.99.39 2.02.67 3.08.8 1.05.14 2.14.12 3.24.12h.26V238.05l-.44-.18c3.46-3.46 6.86-6.86 10.08-10.07l.08-.08h.11l44.64.03c1.7-.01 3.37.07 4.96-.29 1.59-.34 3.08-.99 4.39-1.87 2.62-1.76 4.44-4.45 5.19-7.3.39-1.43.47-2.87.44-4.32 0-1.44.01-2.86.01-4.24.01-2.77.01-5.42.02-7.95.01-2.53.01-4.93.02-7.2 0-1.14.01-2.24.01-3.31.01-1.07.01-2.1-.08-3.08-.45-3.97-2.62-6.93-4.76-8.63a12.755 12.755 0 00-5.75-2.61c-.36-.06-.68-.12-.95-.15-.27-.02-.5-.03-.69-.05-.38-.06-.57-.08-.57-.08z" fill="#263238"/><path d="M617.55 204.03c-.04 0-.06-.26-.19-.68-.13-.41-.43-1.01-1.06-1.46-.61-.45-1.59-.69-2.52-.34-.93.33-1.73 1.32-1.72 2.47-.01 1.15.79 2.14 1.72 2.47.94.36 1.92.12 2.52-.34.63-.45.93-1.05 1.06-1.46.13-.4.14-.66.19-.66.03 0 .09.26.01.73-.08.46-.35 1.15-1.03 1.7-.66.55-1.79.89-2.91.49-1.11-.36-2.09-1.54-2.07-2.92-.01-1.38.96-2.56 2.07-2.92 1.12-.4 2.25-.06 2.91.49.68.55.95 1.25 1.03 1.7.07.47.01.73-.01.73zM630.8 203.9c-.04 0-.05-.26-.19-.68-.13-.41-.43-1.01-1.06-1.46-.61-.45-1.59-.69-2.52-.34-.93.33-1.73 1.32-1.72 2.47-.01 1.15.79 2.14 1.72 2.47.94.36 1.92.12 2.52-.34.63-.45.93-1.05 1.06-1.46.14-.4.15-.66.19-.66.03 0 .09.26.01.73-.08.46-.35 1.15-1.03 1.7-.66.55-1.79.89-2.91.49-1.11-.36-2.09-1.54-2.07-2.92-.01-1.38.96-2.56 2.07-2.92 1.12-.4 2.25-.06 2.91.49.68.55.95 1.25 1.03 1.7.08.47.02.73-.01.73zM644.06 203.9c-.04 0-.05-.26-.19-.68-.13-.41-.43-1.01-1.06-1.46-.61-.45-1.59-.69-2.52-.34-.93.33-1.73 1.32-1.72 2.47-.01 1.15.79 2.14 1.72 2.47.94.36 1.92.12 2.52-.34.63-.45.93-1.05 1.06-1.46.14-.4.15-.66.19-.66.03 0 .09.26.01.73-.08.46-.35 1.15-1.03 1.7-.66.55-1.79.89-2.91.49-1.11-.36-2.09-1.54-2.07-2.92-.01-1.38.96-2.56 2.07-2.92 1.12-.4 2.25-.06 2.91.49.68.55.95 1.25 1.03 1.7.08.47.02.73-.01.73z" fill="#263238"/><g><path d="M155.45 135.24c0-8.58-9.02-14.02-18.22-9.72-2.08.97-3.8 2.62-4.84 4.64-2.31 4.48-1.29 9.6.81 13.85l7.16 18.14c1.03 2.61 4.74 2.6 5.75-.02l7.02-18.23c2.43-5.56 2.32-8.66 2.32-8.66zm-8.64 7.48c-6.18 3.59-12.45-3.05-9.06-9.61.45-.87 1.14-1.6 1.96-2.08 6.18-3.6 12.45 3.05 9.06 9.61-.44.87-1.13 1.6-1.96 2.08z" fill="#df9e4e"/><path d="M187.24 164.88c.01 0 .06.11.13.33.08.23.19.55.33.97.29.87.7 2.13 1.25 3.78 1.08 3.33 2.67 8.22 4.71 14.5l.06.2-.21-.04c-5.57-1.02-12.37-2.27-20.15-3.69l-.14-.03v-.14l.27.14a50.201 50.201 0 01-23.31 9.62c-2.32.31-4.71.49-7.15.48-2.43-.15-4.93-.13-7.42-.62-2.52-.28-5-1.03-7.54-1.69-1.23-.45-2.47-.9-3.72-1.36-.64-.2-1.23-.5-1.84-.8-.61-.29-1.21-.58-1.82-.88a51.784 51.784 0 01-13.46-9.75c-4.05-4.05-7.4-8.97-9.89-14.4-4.99-10.86-6.11-24.08-2.23-36.31 3.54-11.14 10.99-20.52 20.06-26.67 9.18-6.04 19.9-8.92 29.98-8.42 10.11.3 19.44 3.84 26.81 8.9 7.31 5.19 12.86 11.76 16.22 18.6a50.344 50.344 0 015.34 19.69c.48 6.04-.35 11.27-1.37 15.38a48.69 48.69 0 01-3.32 9.2c-.49 1.01-.88 1.77-1.16 2.25-.24.43-.36.63-.43.76.06-.13.17-.33.38-.76.27-.52.65-1.28 1.12-2.3.93-2.03 2.21-5.08 3.22-9.2.98-4.11 1.78-9.31 1.28-15.32-.39-5.98-1.94-12.8-5.38-19.54-3.35-6.78-8.88-13.28-16.14-18.41-7.32-5-16.56-8.49-26.58-8.77-9.98-.48-20.59 2.38-29.67 8.37-8.98 6.1-16.35 15.38-19.85 26.41-3.84 12.1-2.73 25.19 2.2 35.94 2.46 5.38 5.78 10.25 9.78 14.27 3.99 4.03 8.54 7.26 13.32 9.68l1.8.87c.6.29 1.19.59 1.82.79 1.24.45 2.47.91 3.69 1.35 2.51.66 4.96 1.41 7.47 1.68 2.47.49 4.95.48 7.36.63 2.42.02 4.79-.15 7.09-.46a49.974 49.974 0 0023.17-9.48l.27-.2v.34l-.14-.17c7.77 1.46 14.57 2.74 20.14 3.78l-.14.16c-1.99-6.29-3.54-11.19-4.6-14.53-.52-1.66-.91-2.93-1.19-3.8-.13-.42-.23-.74-.3-.98a3.25 3.25 0 01-.12-.35z" fill="#263238"/></g><g><path d="M511.45 122.91c-.05 0-.12-.62-.2-1.78-.03-.58-.08-1.3-.24-2.13-.13-.84-.25-1.81-.56-2.87-.47-2.14-1.44-4.68-2.98-7.38a27.706 27.706 0 00-6.86-7.9c-3.06-2.38-6.93-4.44-11.41-5.32-4.46-.86-9.51-.83-14.35.89-2.43.79-4.79 2-6.97 3.55-1.12.73-2.11 1.66-3.15 2.55-.94.99-1.92 1.96-2.74 3.09-3.45 4.37-5.47 10.05-5.67 15.94-.09 5.9 1.65 11.66 4.89 16.2.76 1.17 1.7 2.19 2.58 3.22.99.94 1.93 1.92 3.02 2.7 2.1 1.66 4.39 2.99 6.79 3.89 4.75 1.95 9.79 2.23 14.29 1.59 4.53-.67 8.49-2.53 11.66-4.76 3.18-2.25 5.56-4.95 7.23-7.56 1.66-2.62 2.76-5.1 3.33-7.22.36-1.04.53-2 .7-2.84.2-.83.29-1.54.34-2.12.15-1.13.24-1.74.3-1.74.05 0 .06.62.02 1.79 0 .59-.04 1.32-.2 2.17-.13.85-.25 1.84-.57 2.92-.5 2.19-1.53 4.78-3.18 7.52a28.048 28.048 0 01-7.32 7.98c-3.25 2.38-7.36 4.38-12.09 5.14-4.7.73-9.99.49-15.01-1.53-2.53-.93-4.95-2.32-7.18-4.05-1.15-.83-2.15-1.85-3.19-2.84-.94-1.09-1.93-2.16-2.74-3.39-3.43-4.77-5.29-10.87-5.19-17.1.2-6.22 2.36-12.22 6.01-16.82.87-1.19 1.91-2.21 2.9-3.25 1.09-.94 2.14-1.91 3.33-2.68 2.3-1.62 4.79-2.89 7.36-3.7 5.11-1.77 10.41-1.76 15.06-.8 4.69.99 8.7 3.19 11.83 5.72 3.14 2.56 5.4 5.52 6.93 8.33 1.51 2.82 2.42 5.46 2.81 7.67.27 1.09.35 2.09.43 2.95.11.86.12 1.58.09 2.17-.01 1.19-.05 1.8-.1 1.8z" fill="#455a64"/><path d="M505.86 105.45c.06.09-.44.52-1.42 1.25l-1.8 1.29c-.36.24-.73.52-1.14.78l-1.38.72c-3.74 2.16-9.67 4.37-16.43 4.14-.84-.04-1.67-.07-2.49-.11-.81-.13-1.6-.25-2.39-.37-.39-.07-.78-.12-1.16-.19-.37-.1-.75-.2-1.11-.3-.73-.2-1.46-.38-2.15-.6-2.74-.95-5.11-2.07-6.97-3.21-3.75-2.26-5.57-4.32-5.43-4.46.15-.17 2.19 1.55 5.96 3.51 1.87 1 4.21 1.96 6.86 2.81.67.19 1.37.34 2.07.52.35.09.71.18 1.07.27.37.06.74.11 1.11.17.75.11 1.51.22 2.28.34.78.03 1.57.06 2.37.1 6.43.22 12.13-1.71 15.91-3.57.48-.21.95-.41 1.39-.6.42-.22.81-.46 1.18-.66.71-.39 1.34-.74 1.91-1.05 1.07-.59 1.69-.86 1.76-.78zM461.14 139.43c-.06-.09.44-.52 1.42-1.25l1.8-1.29c.36-.24.73-.52 1.14-.78l1.38-.72c3.74-2.16 9.66-4.37 16.43-4.14.84.04 1.67.07 2.49.11.81.13 1.6.25 2.39.37.39.07.78.12 1.16.19.38.1.75.2 1.11.3.73.2 1.46.38 2.15.6 2.74.95 5.11 2.07 6.97 3.21 3.75 2.26 5.57 4.32 5.43 4.46-.15.17-2.19-1.55-5.96-3.51-1.87-.99-4.21-1.96-6.86-2.81-.67-.19-1.37-.34-2.07-.52-.35-.09-.71-.18-1.07-.27-.37-.06-.74-.11-1.11-.17-.75-.11-1.51-.22-2.28-.34-.78-.03-1.57-.06-2.37-.1-6.43-.22-12.13 1.71-15.91 3.57-.48.21-.95.41-1.39.6-.42.22-.81.46-1.18.66-.71.39-1.34.74-1.91 1.05-1.07.6-1.7.87-1.76.78zM511.43 123.56c-.01.42-12.53.46-27.96.09-15.44-.37-27.94-1.02-27.93-1.45.01-.42 12.53-.46 27.96-.09 15.44.38 27.94 1.03 27.93 1.45z" fill="#455a64"/><path d="M482.2 150.15c-.42-.01-.46-12.53-.09-27.95.37-15.43 1.02-27.93 1.45-27.92.42.01.46 12.52.09 27.95-.38 15.43-1.03 27.93-1.45 27.92z" fill="#455a64"/><path d="M482.2 150.11c-.11.16-3.18-1.93-6.74-6.65a37.72 37.72 0 01-5-9.07 33.516 33.516 0 01-2.16-12.52c.08-4.56 1.23-8.82 2.82-12.4 1.6-3.59 3.6-6.52 5.46-8.79 3.76-4.55 6.87-6.56 6.97-6.4.15.17-2.66 2.46-6.12 7.07-1.71 2.3-3.55 5.21-5.01 8.68-1.46 3.47-2.51 7.53-2.58 11.86-.09 4.34.69 8.46 1.96 12.01 1.27 3.55 2.95 6.55 4.55 8.93 3.23 4.76 6.01 7.11 5.85 7.28zM484.18 94.29c.11-.16 3.18 1.93 6.74 6.65 1.76 2.36 3.6 5.4 4.99 9.07 1.39 3.66 2.26 7.98 2.16 12.52-.08 4.56-1.23 8.82-2.82 12.4-1.6 3.59-3.6 6.52-5.46 8.79-3.76 4.55-6.87 6.56-6.97 6.4-.15-.17 2.66-2.46 6.12-7.07 1.71-2.3 3.55-5.21 5.01-8.68 1.46-3.47 2.51-7.53 2.58-11.86.09-4.34-.69-8.46-1.96-12.01-1.27-3.55-2.95-6.55-4.55-8.93-3.22-4.76-5.99-7.11-5.84-7.28z" fill="#455a64"/><g><path d="M455.57 163.86c0 .01-.12.05-.34.1-.24.06-.56.14-.99.24-.89.21-2.18.51-3.88.91-3.42.78-8.42 1.93-14.86 3.41l-.2.05.06-.2c1.51-5.45 3.36-12.12 5.47-19.74l.04-.14.14.01-.16.26c-4.01-6.41-7.06-14.7-7.51-24.08-.11-2.34-.07-4.73.16-7.16.36-2.41.57-4.9 1.28-7.34.5-2.49 1.47-4.89 2.35-7.36l1.69-3.59c.26-.62.61-1.19.96-1.76.34-.58.69-1.16 1.03-1.74 2.85-4.59 6.51-8.89 10.91-12.54 4.39-3.67 9.59-6.57 15.22-8.57 11.26-4 24.52-3.94 36.36 1.01 10.78 4.52 19.46 12.77 24.78 22.35 5.21 9.68 7.12 20.62 5.72 30.61-1.19 10.05-5.55 19.02-11.25 25.91-5.82 6.82-12.86 11.77-19.97 14.5a50.314 50.314 0 01-20.09 3.57c-6.06-.06-11.19-1.35-15.2-2.73a49.802 49.802 0 01-8.87-4.12c-.96-.58-1.68-1.03-2.14-1.36-.4-.28-.59-.42-.71-.5.12.08.32.2.73.45.5.32 1.22.76 2.19 1.32 1.94 1.1 4.87 2.65 8.88 4.02 4 1.34 9.11 2.6 15.14 2.63 6 .15 12.92-.79 19.95-3.62 7.05-2.74 14.02-7.67 19.78-14.44 5.63-6.84 9.93-15.74 11.1-25.69 1.37-9.9-.54-20.72-5.69-30.3-5.28-9.49-13.87-17.65-24.54-22.12-11.71-4.9-24.85-4.96-35.99-1.01-5.58 1.98-10.73 4.84-15.08 8.47a51.49 51.49 0 00-10.82 12.4c-.34.58-.69 1.15-1.03 1.72-.34.57-.69 1.13-.95 1.74-.56 1.19-1.12 2.38-1.68 3.55-.88 2.44-1.84 4.82-2.34 7.29-.71 2.42-.92 4.88-1.28 7.27-.24 2.41-.28 4.78-.18 7.1.42 9.3 3.43 17.53 7.38 23.92l.18.29-.34-.03.18-.12c-2.14 7.61-4.02 14.27-5.55 19.72l-.15-.15c6.45-1.43 11.46-2.54 14.88-3.29 1.7-.37 3-.65 3.89-.84l1-.21c.22-.05.34-.06.34-.07z" fill="#263238"/></g></g></g><g><path d="M497.7 187.9c-4.89 1.14-8.02 6.09-9.07 11-1.04 4.91-.54 10.01-1 15.01-.47 5-2.22 10.31-6.43 13.05 1.4.4 2.79.81 4.19 1.21-.81 2.6-2.59 4.89-4.92 6.3a9.33 9.33 0 005.72 1.95c-2.46.65-3.15 4.17-1.78 6.32 1.36 2.15 3.95 3.17 6.42 3.8 2.91.74 6.02 1.13 8.9.27 4.05-1.21 7.08-4.77 8.63-8.71 1.55-3.94 1.83-8.24 1.95-12.47.3-10.59-.32-21.29-3.02-31.54-.65-2.48-1.56-5.11-3.67-6.57s-5.71-.87-6.35 1.62" fill="#df9e4e"/><path d="M608.23 340.76c-1.16-4.42-7.92-29.32-13.97-45.58-6.71-18.05-20.54-21.77-20.54-21.77-31.15-10.63-59.14-10.69-89.03-.33-.96.3-1.89.61-2.78.96-.03.01-.06.02-.1.03-22.17 8.7-24.46 32.12-24.46 32.12l-9.32 56.83c-.1.45-.17.91-.22 1.36l-.09.54h.04c-.36 5.35 2.71 10.57 7.62 12.83 13.02 5.99 25.44 4.57 36.12.16l-7.76 11.3h92.39l-6.18-14.94 2.05-8.98 14.31 17.22c1.71 2.06 4.01 3.56 6.59 4.3 16.5 1.92 19.17-22.65 16.06-36.95" fill="#1c2f5c"/><path d="M549.7 267.21s-14.9 74.98-20.16 74.42c-5.26-.56-29.88-73.01-29.88-73.01s31.48-8.39 50.04-1.41z" fill="#ffbe9d"/><path d="M507.42 272.74c-.08-8.63-.32-17.72-.32-17.72s-11.13-1.78-13.52-16.27c-2.28-13.82-.2-45.79-.2-45.79 15.97-6.62 34.95-2.39 46.44 10.35l-.51 70.12c-.06 8.14-7.11 14.57-15.82 14.44-8.81-.13-16-6.9-16.07-15.13z" fill="#ffbe9d"/><path d="M497.07 217.15c-.03.98.78 1.82 1.81 1.87 1.02.05 1.88-.71 1.91-1.69.03-.98-.78-1.82-1.8-1.87-1.04-.05-1.89.71-1.92 1.69z" fill="#263238"/><path d="M494.62 215.83c.23.24 1.64-.81 3.64-.82 2-.04 3.48.99 3.69.74.11-.11-.13-.55-.77-1.01-.63-.46-1.71-.9-2.96-.89-1.25.01-2.29.48-2.89.95-.62.48-.83.92-.71 1.03zM517.32 218.12c-.03.98.78 1.82 1.81 1.87 1.02.05 1.88-.71 1.91-1.69.03-.98-.78-1.82-1.8-1.87-1.04-.05-1.89.71-1.92 1.69z" fill="#263238"/><path d="M515.51 216.43c.23.24 1.64-.81 3.64-.82 2-.04 3.48.99 3.69.74.11-.11-.13-.55-.77-1.01-.63-.46-1.71-.9-2.96-.89-1.25.01-2.29.48-2.89.95-.61.48-.82.92-.71 1.03zM508.34 231.32c.01-.11-1.24-.32-3.26-.57-.51-.05-1-.15-1.08-.5-.12-.37.09-.92.33-1.52.47-1.24.97-2.54 1.49-3.9 2.07-5.56 3.56-10.12 3.33-10.2-.22-.08-2.08 4.36-4.15 9.91-.5 1.37-.97 2.68-1.42 3.93-.19.58-.52 1.24-.25 2.01.14.38.52.66.85.74.33.1.62.1.87.12 2.02.09 3.28.1 3.29-.02z" fill="#263238"/><path d="M507.1 255.02s9.76.57 19.4-5.3c0 0-4.65 10-19.18 8.73l-.22-3.43zM509.21 236.14c.71-.96 1.97-1.49 3.23-1.36.87.09 1.75.5 2.28 1.21.53.7.65 1.71.17 2.39-.54.76-1.66.95-2.62.68-.96-.27-1.78-.89-2.57-1.51-.22-.17-.44-.35-.58-.59-.14-.24-.17-.55 0-.75" fill="#eb996e"/><path d="M514.24 232.67c-.33-.02-.32 2.16-2.17 3.71-1.85 1.56-4.17 1.33-4.18 1.63-.03.14.52.42 1.5.44.96.03 2.36-.29 3.49-1.24 1.13-.95 1.61-2.22 1.68-3.11.07-.9-.17-1.44-.32-1.43z" fill="#263238"/><path d="M532 191.62c-5.17 7.66-19.09 15.69-29.12 17.68 1.15-1.57 7.26-5.49 8.41-7.05-4.5 3.49-10.95 8.16-16.99 8.57-.72.05-1.49.06-2.09-.29-.81-.47-.99-1.42-1.1-2.26-.45-3.54-.32-9.62.19-13.15.5-3.53 2.06-7.06 5.07-9.47 3.82-3.06 9.36-3.9 14.59-4.12 4.38-.18 8.91 0 12.94 1.51 4.04 1.51 7.52 4.58 8.17 8.33" fill="#df9e4e"/><g><path d="M549.15 226.71c.66-3.77 1.18-7.34 1.28-9.72.3-7.49 2.54-34.54-23.23-31.86l1.46 7.27s-4.8 16.84 6.26 28.2c0 0-3.15 23.72 4.55 31.39 0-.01 8.26-17.19 9.68-25.28" fill="#df9e4e"/></g><g><path d="M534.59 219.34c1.55-.31 3.19-.28 4.67.27s2.79 1.64 3.44 3.08c.65 1.44.6 3.14.07 4.64-.53 1.49-1.5 2.8-2.62 3.92-.81.8-1.72 1.54-2.81 1.89-1.08.35-2.36.25-3.23-.48" fill="#ffbe9d"/></g><g><path d="M535.5 228.74c-.18.06.5.99 1.92.6.68-.18 1.34-.79 1.74-1.54.4-.76.66-1.6.76-2.58.09-.97-.13-2-.67-2.73-.51-.74-1.35-1.18-2.05-1.19-1.46-.02-1.91.99-1.74 1.02.12.12.68-.41 1.64-.18.92.16 1.82 1.42 1.64 2.99-.16 1.6-.77 3.06-1.62 3.43-.88.46-1.52.05-1.62.18z" fill="#eb996e"/></g><g><path d="M483.75 342.59c-.14 0-.26-5.89-.26-13.16 0-7.27.12-13.16.26-13.16s.26 5.89.26 13.16c0 7.27-.12 13.16-.26 13.16z" fill="#fff"/></g><g><g fill="#ffbe9d"><path d="M521.3 315.73s-12.97.14-13.79 3.01c-1.36 4.77 1.07 30.89 1.07 30.89l11.95 3.97s5.76-1.33 3.1-12.41c-2.66-11.08-7.9-19.95-7.9-19.95s15.88.44 15.43-3.1c-.44-3.54-9.86-2.41-9.86-2.41z"/><path d="M516.14 323.44c.71-.14 16.59-1.45 15.59 1.09s-15.59 3.17-15.59 3.17v-4.26z"/></g><path fill="#263238" d="M567.13 285.02l-1.96 49.56-7.24 19.03-44.48.92-1.8-61.39z"/></g><g><path d="M506.48 333.2c.01.02-.18.11-.54.28-.42.19-.95.42-1.6.71-1.46.63-3.47 1.49-5.92 2.54-5.08 2.12-11.99 5-19.62 8.19-3.84 1.58-7.49 3.08-10.83 4.45-3.34 1.35-6.33 2.57-8.65 3.98-2.33 1.37-3.93 2.91-4.84 4.11-.91 1.2-1.25 1.99-1.3 1.96-.02-.01.07-.2.24-.57.16-.37.46-.89.9-1.51.87-1.26 2.46-2.88 4.81-4.31 2.32-1.47 5.34-2.73 8.65-4.11 3.33-1.38 6.98-2.9 10.81-4.49 7.66-3.13 14.59-5.96 19.68-8.05 2.48-.99 4.51-1.8 5.99-2.38.67-.25 1.21-.46 1.64-.62.37-.13.57-.2.58-.18z" fill="#fff"/></g><g><path d="M521.19 352.62c.03.02-.32.45-.97 1.19-.65.74-1.63 1.8-2.88 3.05-2.48 2.52-6.09 5.83-10.22 9.3-4.14 3.46-8.03 6.43-10.88 8.51-1.43 1.04-2.6 1.86-3.42 2.42-.82.55-1.28.85-1.3.82-.02-.03.4-.38 1.18-.98.86-.66 1.97-1.52 3.32-2.55 2.8-2.15 6.64-5.17 10.77-8.62 4.13-3.46 7.76-6.72 10.3-9.16 1.28-1.21 2.29-2.23 2.99-2.92.68-.7 1.08-1.08 1.11-1.06z" fill="#fff"/></g><g><path d="M588.18 384.34c-.11.09-6.64-7.38-14.57-16.7-7.94-9.32-14.29-16.95-14.18-17.04.11-.09 6.63 7.38 14.58 16.7 7.93 9.32 14.28 16.95 14.17 17.04z" fill="#fff"/></g><g><path d="M600.75 348.33c-.01.03-.53-.15-1.45-.51-.92-.36-2.23-.92-3.84-1.64-3.22-1.44-7.6-3.61-12.27-6.3-4.67-2.7-8.73-5.42-11.58-7.49-1.43-1.03-2.57-1.9-3.34-2.51-.77-.61-1.19-.97-1.17-1 .02-.03.48.27 1.29.83.89.61 2.04 1.41 3.43 2.37 2.91 1.99 6.98 4.65 11.63 7.34 4.65 2.69 8.99 4.89 12.16 6.42 1.53.72 2.79 1.33 3.77 1.79.9.42 1.39.67 1.37.7z" fill="#fff"/></g><g><path d="M577.73 337.45c-.14.02-.92-5.27-1.74-11.82-.82-6.55-1.37-11.86-1.23-11.88.14-.02.92 5.27 1.74 11.82.83 6.55 1.38 11.87 1.23 11.88z" fill="#fff"/></g><g><path d="M540.11 228.65c.02.02-.12.24-.41.63-.34.46-.76 1.02-1.27 1.7-1.17 1.52-2.75 3.56-4.61 5.98l-.04-.32c2.22 1.74 4.78 3.76 7.51 5.9.23.18.46.36.68.54l-.37.04c2.4-3 4.62-5.79 6.5-8.14l.04.3c-1.98-1.61-3.64-2.97-4.89-3.99-.53-.45-.98-.83-1.34-1.14-.3-.27-.46-.42-.45-.43.01-.02.2.1.53.33.38.28.85.63 1.41 1.04 1.28.98 2.98 2.29 5.01 3.84l.17.13-.13.17c-1.86 2.37-4.06 5.17-6.43 8.2l-.16.2-.21-.16c-.22-.18-.45-.36-.68-.54-2.71-2.16-5.26-4.19-7.47-5.95l-.18-.14.14-.18c1.92-2.36 3.54-4.37 4.75-5.86.55-.65 1-1.19 1.37-1.62.33-.36.51-.55.53-.53z" fill="#263238"/></g><g><path d="M559.19 349.86c-7.27-.14-16.95-1.58-21.47-2.3-8.42-1.34-8.32-2.11-8.03-3.07.8-2.58 14.88 1.8 12.36-.91-2.53-2.71-17.79-3.35-16.83-6.01 1.24-3.47 15.9 1.39 17.17 1.71 1.23.31 1.73-1.52.57-1.74-1.67-.33-19.09-4.18-17.91-7.6.66-1.9 3.94-.31 3.94-.31s16.07 4.82 16.58 3.18c.51-1.66-8.83-4.81-12.06-5.65-3.18-.83-4.12-2.69-2.62-3.8 1.02-.76 10.94 1.57 14.11 2.48 3.17.9 11.82 3.54 8.52-1.25-.05-.08-.09-.15-.14-.23-3.38-4.62-4.45-9.31-3.84-10.87.6-1.53 2.75-1.43 3.56.01.15.22.27.47.33.77.02.12.08.28.12.42.59 1.53 1.87 3.56 2.92 5.09a15.52 15.52 0 003.64 3.77c1.64 1.2 5.79 5.58 7.04 6.35" fill="#ffbe9d"/></g></g><g><path d="M261.59 290.91c-9.36-.17-16.94-7.66-17.23-17.02-.24-7.79-.41-15.3-.41-15.3s-14.31-1.33-15.36-15.49c-1.05-14.16-.6-46.85-.6-46.85a49.341 49.341 0 0149.87 3.17l2.2 1.49-.61 72.6c-.07 9.76-8.1 17.57-17.86 17.4z" fill="#b78876"/><path d="M243.6 234.38c0-.15-1.22-.32-3.2-.47-.51-.02-.92-.11-.98-.39-.11-.3.05-.86.28-1.48.42-1.32.85-2.66 1.3-4.06 1.78-5.78 2.99-10.54 2.7-10.63-.29-.09-1.98 4.52-3.76 10.3-.42 1.41-.82 2.76-1.22 4.09-.15.6-.46 1.31-.15 2.14.17.41.59.69.93.76.34.08.63.06.88.06 1.98-.06 3.21-.17 3.22-.32z" fill="#263238"/><path d="M250.07 236.14c-3.94 1.84-5.77 2.39-9.4 3.37 0 0 2.5 3.5 6.5 1.75 4.14-1.81 2.9-5.12 2.9-5.12z" fill="#fff"/><path d="M243.92 258.39s9 .18 18.15-6.39c0 0-3.74 10.47-17.96 10.06l-.19-3.67z" fill="#a36957"/><path d="M279.28 218.42c.01-1.14.9-2.11 2.04-2.14 2.64-.07 6.97.98 7.38 8.27.58 10.42-9.45 7.82-9.48 7.53-.03-.24.03-9.61.06-13.66z" fill="#b78876"/><path d="M281.52 227.97c.04-.04.19.12.5.24s.83.19 1.36-.05c1.08-.47 1.91-2.27 1.85-4.15-.03-.95-.27-1.84-.65-2.57-.36-.74-.88-1.25-1.44-1.32-.56-.1-.93.26-1.04.56-.12.3-.05.5-.1.52-.03.03-.23-.16-.17-.6.03-.21.14-.46.37-.68.24-.22.6-.34.99-.32.81.01 1.57.71 1.99 1.51.46.8.76 1.8.79 2.87.05 2.1-.92 4.13-2.4 4.65-.72.23-1.35.05-1.68-.18-.34-.23-.41-.46-.37-.48z" fill="#a36957"/><path d="M232.43 220.26c.04 1.02.93 1.82 1.99 1.81 1.06-.02 1.89-.85 1.86-1.87-.04-1.02-.93-1.82-1.99-1.81-1.07.01-1.9.85-1.86 1.87zM229.16 218.33c.26.23 1.63-.95 3.7-1.09 2.06-.17 3.65.78 3.86.51.1-.12-.17-.55-.87-.99-.68-.43-1.82-.82-3.11-.72-1.29.1-2.33.65-2.92 1.18-.6.54-.78 1-.66 1.11z" fill="#263238"/><g><path d="M252.96 219.9c.04 1.02.93 1.82 1.99 1.81 1.06-.02 1.89-.85 1.86-1.87-.04-1.02-.93-1.82-1.99-1.81-1.06.02-1.89.85-1.86 1.87z" fill="#263238"/><path d="M250.13 218.33c.26.23 1.64-.95 3.7-1.09 2.06-.17 3.65.78 3.86.51.1-.12-.17-.55-.87-.99-.68-.43-1.82-.82-3.11-.72-1.29.1-2.33.65-2.92 1.18-.6.54-.78 1-.66 1.11z" fill="#263238"/></g><path d="M263.8 191.36c-1.93 4.37-.96 9.86 2.36 13.3 1.4 1.45 3.15 2.55 4.36 4.15 2.51 3.33 2.1 7.91 2.49 12.06.18 1.92.63 3.96 2.04 5.27s4.05 1.4 5.04-.26c.3-.5.41-1.09.52-1.66l2.61-13.86c.65-3.46 1.3-7.02.7-10.49-.7-4.06-3.18-7.77-6.65-9.98-3.47-2.21-7.89-2.87-11.86-1.79" fill="#263238"/><path d="M265.97 188.43c-4.81-.92-7.51-2.46-10.91-3.99-3.4-1.53-7.25-2.25-10.84-1.23-2.42.68-4.71 2.14-7.21 2.11-2.47-.02-4.69-1.5-7.06-2.24-3.21-1.01-6.79-.65-9.79 1-2.33 1.28-4.42 3.57-4.62 6.37-.2 2.8 2.3 5.69 4.8 4.9-2.62.91-3.68 4.76-2.37 7.34s4.33 3.75 7.05 3.32c2.71-.43 5.12-2.2 7.06-4.3.06 3.12 3.19 5.31 6.08 5.22 2.9-.09 5.52-1.83 7.91-3.62 2.39-1.79 4.81-3.74 7.65-4.37 1.98-.44 4.03-.21 6.04-.44 2.01-.24 4.15-1.11 5.12-3.03.97-1.92 4.82-4.11 2.8-4.17" fill="#263238"/><g><path d="M237.5 203.78c.03-.04.35.29 1.07.57.72.28 1.87.39 3.21-.01.66-.19 1.37-.49 2.07-.91.7-.42 1.41-.95 2.17-1.51.76-.55 1.57-1.13 2.51-1.6.93-.47 2.03-.78 3.14-.79 2.23-.04 4.24.56 6.06.4 1.83-.1 3.27-1.11 4.08-2.22a6 6 0 001.21-3c.08-.77 0-1.21.05-1.22.02 0 .05.1.09.31.05.21.07.52.06.92-.02.8-.27 2.01-1.12 3.2a6.07 6.07 0 01-1.73 1.64c-.73.46-1.65.76-2.61.84-1.94.19-3.98-.4-6.09-.35-2.13 0-3.88 1.19-5.39 2.26-.76.54-1.49 1.07-2.23 1.49-.74.43-1.49.72-2.19.89-1.41.37-2.65.2-3.38-.16a3.48 3.48 0 01-.78-.51c-.14-.15-.21-.23-.2-.24z" fill="#263238"/></g><g><path d="M264.51 183.49c.15.03-.17 1.54.29 3.32.43 1.79 1.43 2.97 1.3 3.07-.08.11-1.34-1-1.81-2.94-.49-1.94.11-3.51.22-3.45z" fill="#263238"/></g><g><path d="M269.84 183.27c.11.11-1.18 1.34-2.15 3.25-.99 1.9-1.23 3.66-1.38 3.64-.13.01-.12-1.87.92-3.88 1.03-2.02 2.54-3.12 2.61-3.01z" fill="#263238"/></g><path fill="#b78876" d="M336.71 331.54l21.77 56.02h-33.32l-15.53-39.88zM218.71 286.07s-28.69 29.55-41.11 29.55c-4.06 0-7.24-49.22-7.29-63.41 1.11-2.6 1.6-3.6 2.79-5.1 1.12-1.41 2.19-2.86 3.6-3.98 1.71-1.36 4.06-3.08 5.63-3.63 1.94-.68 2.1-3.34.34-3.87-1.76-.53-7.15 1.22-11.98 5.8-4.82 4.57-3.38-5.66-2.92-9.4.46-3.74 1.34-15.35.3-16.38-1.52-1.5-3.46-.11-3.83 3.63-.38 3.79-2.28 14.9-4.24 14.62-1.94-.28.66-19.28.66-19.28s1.21-3.99-1.05-4.39c-4.07-.73-5.34 19.63-5.42 21.57-.05 1.35-2.2 1.12-2.07-.33.14-1.49 3.03-18.91-1.11-19.69-3.18-.6-1.2 16.75-3.81 20.08-2.61 3.33-.15-13.34-3.21-13.79-1.14-.17-2.02-.13-2.05 9.61-.02 5.24 2 13.15 1.22 23.23 1.32 29.76-.14 113.33 32.98 103.43 36.42-10.9 61.3-34.75 61.3-34.75l-18.73-33.52z"/><g><path d="M299.09 312.55c.04-.01.15.41.33 1.18.18.76.41 1.88.66 3.25.52 2.76 1.12 6.58 1.59 10.84.47 4.25.71 8.12.81 10.92.05 1.4.07 2.54.06 3.32 0 .78-.02 1.22-.06 1.22s-.08-.43-.14-1.21c-.06-.89-.14-1.99-.23-3.31-.19-2.79-.49-6.64-.96-10.89-.47-4.24-1.02-8.07-1.44-10.83-.2-1.3-.37-2.4-.5-3.28-.11-.77-.16-1.2-.12-1.21z" fill="#263238"/></g><g><path d="M213.85 387.56l91.72.47-3.09-19.36c1.42-13.33-.14-27.61-.14-27.61l4.64 12.59 37.91-18.96s-13.78-36.75-25.32-49.19c-14.58-15.73-40.8-14.16-40.8-14.16l-17.72 12.04-16.31-11.49s-12.96 1.18-25.2 7.33l-.84.24.01.18c-9.62 5.03-23.34 17.27-36.42 29.16l15.09 14.69 16.72 15.57s2.82-.32 2.86-.12c.28 1.63-3.11 48.62-3.11 48.62z" fill="#1c2f5c"/><path d="M299.53 306.68L312 351.14l-5 2.5-4.64-12.59c-.01 0-4.53-26.36-2.83-34.37z" opacity=".2"/><path d="M243.74 271.67v-4.8s14.32-1.11 17.22 15.81c0 0 4.67-15.81 18.56-17.39l1.98 7.39s-6.58 20.59-7.54 20.76c-.96.18-13.01 3.7-13.01 3.7l-6.98-1.58-7.76-8.83-2.47-15.06z" fill="#1c2f5c"/><path d="M281.84 272.11c.02.03-.26.32-.79.84-.52.52-1.28 1.27-2.18 2.23-1.79 1.92-4.13 4.74-6.21 8.17-.44.71-.84 1.43-1.23 2.12l-.23.42-.22-.42c-1.59-2.97-2.99-5.6-4.07-7.63-.27-.45-.58-.81-.92-1.04-.33-.23-.68-.33-.96-.35-.58-.04-.85.2-.87.15-.02 0 .23-.32.88-.34.31 0 .71.08 1.1.31.39.24.75.62 1.06 1.08 1.13 1.89 2.57 4.54 4.24 7.57h-.45c.38-.7.79-1.42 1.23-2.15 2.11-3.47 4.51-6.28 6.39-8.15.94-.94 1.75-1.65 2.31-2.13.56-.47.89-.71.92-.68zM242.81 272.96c.03-.02.27.24.68.72.41.49 1 1.2 1.71 2.09 1.43 1.77 3.37 4.25 5.49 7 .12.15.23.3.34.44l-.43.03c.76-1.42.83-3.04 1.18-4.46.32-1.42.99-2.71 1.98-3.34.99-.61 2-.57 2.58-.33.3.11.48.28.6.39.11.12.16.19.14.2-.03.04-.26-.24-.81-.41-.54-.17-1.46-.14-2.32.44-.85.59-1.43 1.77-1.72 3.14-.32 1.37-.35 3.03-1.18 4.6l-.19.35-.25-.32c-.11-.14-.22-.29-.34-.44-2.12-2.75-4.01-5.26-5.36-7.09-.68-.92-1.22-1.66-1.58-2.19-.36-.5-.55-.8-.52-.82zM252.99 387.56c-.01 0-.01-.09-.01-.27.01-.21.02-.47.03-.8.04-.74.1-1.76.17-3.06.17-2.69.41-6.52.71-11.23.65-9.52 1.55-22.6 2.54-37.05 1.05-14.45 2-27.53 2.7-37.05l.88-11.22c.11-1.29.2-2.31.26-3.05.03-.32.06-.58.08-.79.02-.18.04-.27.05-.27.01 0 .01.09.01.27-.01.21-.02.47-.03.8-.04.74-.1 1.76-.17 3.06-.17 2.69-.41 6.52-.71 11.23-.65 9.52-1.55 22.6-2.54 37.05-1.05 14.45-2 27.52-2.7 37.04l-.88 11.22c-.11 1.29-.2 2.31-.26 3.05-.03.32-.06.58-.08.79-.02.19-.04.28-.05.28zM220.07 298.6c.04 0 0 .57-.09 1.59-.09 1.11-.2 2.57-.34 4.32-.27 3.65-.55 8.69-.86 14.27-.31 5.58-.65 10.63-1.02 14.28-.18 1.82-.36 3.3-.51 4.31-.15 1.01-.25 1.57-.29 1.57-.04 0 0-.57.09-1.59.09-1.11.2-2.57.34-4.32.27-3.65.55-8.69.86-14.27.31-5.58.65-10.63 1.02-14.27.18-1.82.36-3.3.51-4.31.15-1.03.26-1.59.29-1.58z" fill="#fff"/><g fill="#df9e4e"><path d="M259.95 280.26s-4.92 6.42-4.2 7.39l4.2 5.6h2.99s2.8-7.86 2.08-8.86c-.73-.99-5.07-4.13-5.07-4.13z"/><path d="M267.5 278.53l-5.43 4.25 2.08 3.98 5.58-4.12zM251.55 281.21l4.95 4.13 2.74-4.13-6.25-4.75zM259.95 293.26l-7.56 67.65 7.43 23.52 9.91-23.31-6.52-68.67z"/></g><g><path d="M312.77 280.68c-.04.04-.3-.33-.98-.67-.66-.34-1.82-.58-3.11-.18-1.3.39-2.62 1.41-3.87 2.73-1.27 1.3-2.51 2.9-3.54 4.73-2.07 3.68-2.86 7.51-3 10.25-.17 2.76.19 4.47.08 4.49-.04.01-.13-.42-.26-1.19-.11-.77-.22-1.91-.19-3.31.05-2.8.79-6.73 2.91-10.49 1.06-1.87 2.33-3.5 3.65-4.81 1.29-1.32 2.7-2.37 4.11-2.75 1.41-.39 2.63-.06 3.31.35.35.21.57.42.71.58.14.16.19.26.18.27z" fill="#fff"/></g></g></g><g><path d="M384.24 196.97c-6.4 3.93-10.85 10.5-13.5 17.54-2.64 7.03-3.64 14.56-4.42 22.04-2.06 19.73-2.76 39.6-2.07 59.43 24.24 3.07 48.66 6.14 73.03 4.48-4.23-27.83-6.9-55.63-3.52-83.57" fill="#263238"/><path d="M438.67 428.27l-17.64-35.69 6.74-26.1c.79 5.53 1.49 10.33 1.49 10.33l37.85-2a2.398 2.398 0 002.25-2.74l-7.4-52.21s-2.37-24.22-25.29-33.22l-.1-.03c-.92-.36-1.88-.69-2.87-.99-30.91-10.72-59.86-10.65-92.08.34 0 0-14.31 3.85-21.25 22.52-6.94 18.67-14.02 46.11-14.02 46.11l32.14 11.35.21-5.43 7.1 27.16-15.58 39.56 54.35 1.34 54.1-.3z" fill="#df9e4e"/><path d="M306.43 354.28l-3.61 17.05c-3.1 14.65 7.75 29.69 22.63 31.38l79.1 8.12c17.56 1.99 33.31-10.89 34.85-28.49l-99.74-9.51.63-9.57-33.86-8.98z" fill="#df9e4e"/><path d="M405.36 371.67l6.14-1.14s14.56-15.93 17.29-16.16c2.25-.19 14.64-.07 18.95-.02a1.5 1.5 0 011.48 1.5 1.5 1.5 0 01-1.44 1.5l-14.64.57-.07 1.18 14.66.19c1.49.11 2.45 2.48-2.33 2.9l-12.26.44v.76l12.43 1.74c.63.09 2.28.41 2.3 1.04 0 0 .75 1.56-2.79 2-1.22.15-12.01-.21-12.01-.21l.42.97 11.17 2.41a1.6 1.6 0 011.24 1.77c-.12.84-.87 1.44-1.72 1.36l-11.94-1.11-11.71 9.36h-15.66l.49-11.05z" fill="#ffbe9d"/><path d="M366.48 278.3s15.41 78.8 20.85 78.22c5.43-.58 30.9-75.5 30.9-75.5s-32.56-9.93-51.75-2.72z" fill="#fafafa"/><path d="M434.67 354.58c-.14 0-.26-5.43-.26-12.14 0-6.7.12-12.14.26-12.14s.26 5.43.26 12.14c0 6.7-.11 12.14-.26 12.14zM340.07 355.09c-.07-.01.06-1.34.32-3.49.27-2.15.67-5.12 1.14-8.39.48-3.27.94-6.23 1.3-8.37.36-2.14.62-3.45.69-3.44.07.01-.06 1.35-.32 3.5-.27 2.15-.67 5.12-1.14 8.39-.48 3.27-.94 6.23-1.3 8.36-.36 2.13-.62 3.45-.69 3.44zM384.59 428.58c-.02 0-.03-.25-.05-.73-.01-.53-.02-1.23-.03-2.09-.01-1.82 0-4.45.07-7.7.12-6.5.47-15.47.92-25.37.45-9.91.86-18.87 1.07-25.37.1-3.2.17-5.82.23-7.69.03-.87.05-1.56.06-2.09.02-.48.04-.73.06-.73.02 0 .03.25.05.73.01.53.02 1.23.03 2.09.01 1.82 0 4.45-.07 7.7-.12 6.5-.47 15.47-.92 25.38-.45 9.9-.86 18.87-1.07 25.36-.1 3.2-.17 5.82-.23 7.69-.03.87-.05 1.56-.06 2.09-.03.48-.05.73-.06.73z" fill="#263238"/><path d="M418.09 280.87c.03 0 .05.34.17.98.11.64.34 1.57.79 2.72.44 1.15 1.12 2.5 2 4.02.86 1.53 1.95 3.23 2.84 5.28.87 2.03 1.65 4.49 1.2 7.16-.21 1.32-.8 2.61-1.61 3.77-.8 1.16-1.8 2.22-2.82 3.26-2.05 2.09-4.22 4.27-6 6.88-1.77 2.59-3.08 5.72-3.09 9.05-.01 1.66.38 3.26 1.06 4.74.65 1.49 1.46 2.92 1.94 4.49.24.78.38 1.61.32 2.43-.06.82-.33 1.62-.76 2.3-.87 1.37-2.16 2.25-3.33 3.12-4.71 3.47-8.95 6.6-12.53 9.23-3.55 2.59-6.44 4.7-8.47 6.19l-2.32 1.66c-.25.17-.45.31-.61.42-.14.09-.21.14-.22.13-.01-.01.06-.07.19-.17.15-.12.35-.28.58-.46.55-.42 1.31-1 2.26-1.74 2.01-1.52 4.86-3.67 8.37-6.32 3.56-2.66 7.78-5.82 12.46-9.32 1.16-.87 2.4-1.75 3.19-3 .39-.62.62-1.33.68-2.07.05-.74-.07-1.5-.3-2.24-.45-1.49-1.26-2.9-1.93-4.43-.7-1.51-1.12-3.22-1.11-4.95.01-3.47 1.38-6.7 3.19-9.34 1.82-2.67 4.02-4.86 6.08-6.93 2.05-2.04 3.94-4.22 4.35-6.77.45-2.53-.28-4.93-1.11-6.94-.85-2.03-1.91-3.73-2.75-5.28-.85-1.54-1.51-2.92-1.93-4.1-.43-1.17-.62-2.13-.7-2.78-.05-.32-.06-.57-.07-.74-.02-.17-.02-.25-.01-.25zM387.26 355.72c0 .01-.08 0-.24-.03-.19-.04-.42-.08-.71-.13-.62-.13-1.53-.35-2.67-.73-2.26-.77-5.51-2.22-8.79-5.05-1.64-1.4-3.25-3.16-4.67-5.26a26.299 26.299 0 01-3.4-7.33c-.81-2.74-1.19-5.76-1.04-8.86.06-1.55.32-3.14.63-4.69.28-1.54.54-3.17.13-4.68a3.8 3.8 0 00-1.21-1.89c-.59-.48-1.31-.78-2.05-1.03-.74-.25-1.51-.46-2.26-.76a6.61 6.61 0 01-2.03-1.31c-1.14-1.15-1.77-2.66-2.06-4.13-.31-1.48-.32-2.97-.24-4.39.52-5.68 1.84-10.66 3.28-14.71a60.83 60.83 0 014.2-9.25 44.2 44.2 0 011.42-2.37c.16-.24.29-.44.39-.6.09-.13.14-.2.15-.19.01 0-.03.08-.1.22-.09.17-.21.37-.35.63-.32.54-.77 1.36-1.33 2.41a66.414 66.414 0 00-4.03 9.27c-1.39 4.03-2.66 9.01-3.15 14.61-.07 1.4-.05 2.84.25 4.26.28 1.42.88 2.82 1.93 3.87.54.5 1.16.92 1.87 1.2.7.29 1.46.49 2.23.75.76.25 1.55.57 2.22 1.12.66.55 1.16 1.31 1.38 2.15.45 1.68.15 3.35-.12 4.91-.32 1.57-.56 3.09-.63 4.62-.15 3.05.21 6.01 1 8.7 1.52 5.43 4.65 9.67 7.85 12.45 3.21 2.82 6.4 4.3 8.62 5.13 1.12.4 2.02.66 2.62.82.28.07.51.13.69.18.14.06.22.08.22.09z" fill="#263238"/><path d="M428.88 371.78l-66.26-2.14.1 21.99 43.87 9.65 30.87 4.93c19.19 0 34.53-17.61 31.56-36.56l-.08.02-40.06 2.11z" fill="#df9e4e"/><path d="M447.12 371.36c0 .02-.3.04-.86.06-.61.02-1.43.04-2.46.07-2.19.04-5.27.1-9.06.16-7.65.11-18.22.24-29.9.13-11.68-.12-22.25-.54-29.89-1.05-3.82-.26-6.91-.5-9.04-.72-1.03-.11-1.84-.19-2.45-.25-.56-.06-.85-.1-.85-.12 0-.02.3-.01.86.02.61.04 1.43.09 2.46.15 2.13.15 5.22.34 9.04.55 7.64.42 18.2.79 29.87.9 11.67.11 22.24.04 29.89.02h9.06c1.03.01 1.85.02 2.46.03.57.02.87.03.87.05z" fill="#263238"/><path d="M362.05 371.67l-6.14-1.14s-14.56-15.93-17.29-16.16c-2.25-.19-14.64-.07-18.95-.02a1.5 1.5 0 00-1.48 1.5c0 .81.64 1.47 1.44 1.5l14.64.57.07 1.18-14.66.19c-1.49.11-2.45 2.48 2.33 2.9l12.26.44v.76l-12.43 1.74c-.63.09-2.28.41-2.3 1.04 0 0-.75 1.56 2.79 2 1.22.15 12.01-.21 12.01-.21l-.42.97-11.17 2.41a1.6 1.6 0 00-1.24 1.77c.12.84.88 1.44 1.72 1.36l11.94-1.11 11.71 9.36h15.66l-.49-11.05z" fill="#ffbe9d"/><path d="M436.28 405.85c0 .02-.26 0-.75-.05-.54-.06-1.25-.13-2.14-.23-1.86-.21-4.55-.55-7.87-1.01-6.63-.92-15.78-2.37-25.81-4.33a488.614 488.614 0 01-25.54-5.73c-3.25-.83-5.86-1.53-7.67-2.04l-2.07-.6c-.47-.14-.72-.23-.71-.24 0-.02.26.03.74.14.53.13 1.23.29 2.1.5 1.87.46 4.49 1.09 7.7 1.88 6.51 1.56 15.53 3.61 25.55 5.58 10.02 1.96 19.14 3.47 25.76 4.48 3.27.49 5.93.89 7.84 1.17.89.14 1.59.24 2.13.33.49.09.75.14.74.15zM363.31 391.73c-.07.01-.31-1.18-.57-3.13-.27-1.95-.55-4.65-.7-7.65-.15-3-.15-5.72-.09-7.68.07-1.97.18-3.18.25-3.17.08 0 .09 1.22.12 3.18.03 1.96.09 4.67.24 7.65.15 2.98.38 5.68.55 7.64.16 1.94.27 3.15.2 3.16zM370.55 392.59c-.04.01-.14-.29-.29-.84-.16-.55-.35-1.34-.55-2.34-.41-1.98-.84-4.76-1.03-7.86-.19-3.09-.1-5.9.07-7.92.08-1.01.18-1.83.27-2.39.09-.56.15-.87.19-.86.08.01-.01 1.26-.09 3.27-.08 2.02-.1 4.8.08 7.87.19 3.07.55 5.83.87 7.82.32 2 .56 3.23.48 3.25zM364.43 373.61c.06.06-.33.34-.31.97.01.3.12.67.4.89.27.23.72.24 1.1.02.38-.22.6-.62.54-.96-.05-.35-.32-.64-.57-.8-.54-.33-.97-.13-.99-.21-.06-.03.4-.43 1.16-.11.35.15.75.48.87 1.04.13.56-.22 1.2-.75 1.5-.52.31-1.25.3-1.67-.1-.42-.38-.5-.9-.46-1.28.11-.83.68-1.03.68-.96zM376.48 395.84c0 .02-.24.03-.68.02-.45-.01-1.1-.01-1.95.01-1.69.03-4.13.2-7.11.67-2.98.47-6.49 1.27-10.35 2.3-3.86 1.02-8.09 2.26-12.62 3.24-4.52.98-8.94 1.54-12.97 1.41-4.03-.12-7.62-.91-10.46-2-2.85-1.1-4.94-2.45-6.26-3.53-.66-.54-1.15-.98-1.45-1.31-.32-.32-.47-.49-.46-.5.04-.05.69.64 2.04 1.65 1.34 1.01 3.44 2.3 6.26 3.34 2.82 1.03 6.37 1.77 10.35 1.87 3.98.11 8.35-.46 12.85-1.44s8.73-2.2 12.61-3.2c3.88-1.01 7.41-1.77 10.42-2.2 3.01-.43 5.47-.54 7.17-.51.85.02 1.51.05 1.95.09.43.05.66.07.66.09z" fill="#263238"/><g><path d="M405.63 287.58c1.58-8.79 3.4-18.01 3.4-18.01s11.66.11 16.61-14.25c4.72-13.7 8.13-46.65 8.13-46.65-15.13-9.52-35.22-8.49-49.14 2.51L373 282.76c-1.35 8.31 4.72 16.09 13.63 17.46 8.99 1.39 17.5-4.26 19-12.64z" fill="#ffbe9d"/><path d="M425.09 233.35c-.14 1.01-1.11 1.72-2.16 1.59-1.05-.13-1.79-1.05-1.65-2.05.14-1.01 1.11-1.72 2.16-1.59 1.05.13 1.79 1.05 1.65 2.05zM428.54 231.77c-.28.21-1.53-1.11-3.57-1.46-2.03-.38-3.71.4-3.89.11-.09-.13.23-.53.96-.89.72-.36 1.9-.63 3.17-.4 1.27.23 2.26.89 2.78 1.47.55.6.68 1.08.55 1.17zM404.15 230.04c-.14 1.01-1.11 1.72-2.16 1.59-1.05-.13-1.79-1.05-1.65-2.05.14-1.01 1.11-1.72 2.16-1.59 1.05.12 1.79 1.04 1.65 2.05z" fill="#263238"/><path d="M407.13 228.77c-.28.21-1.53-1.11-3.57-1.46-2.03-.38-3.71.4-3.89.11-.09-.13.23-.53.96-.89.72-.36 1.9-.63 3.17-.4 1.27.23 2.26.89 2.79 1.47.54.59.67 1.08.54 1.17zM411.86 245.19c.01-.12 1.32-.11 3.42-.01.53.04 1.04.02 1.19-.32.19-.35.07-.95-.08-1.6-.27-1.35-.55-2.76-.84-4.24-1.14-6.02-1.87-10.94-1.63-10.98.24-.04 1.37 4.8 2.51 10.82.27 1.48.53 2.9.77 4.25.09.63.31 1.36-.09 2.09-.21.36-.64.58-.99.61-.35.04-.65 0-.91-.03-2.07-.25-3.36-.47-3.35-.59z" fill="#263238"/><path d="M409.02 269.58s-10.05-1.11-18.86-8.77c0 0 3.01 11 18.05 12.22l.81-3.45z" fill="#eb996e"/><g><path d="M410.14 249.96c-.56-1.1-1.75-1.86-3.05-1.94-.9-.06-1.87.21-2.54.83-.66.63-.96 1.63-.59 2.4.41.87 1.53 1.25 2.55 1.15 1.02-.11 1.97-.6 2.88-1.1.25-.14.51-.28.69-.5.18-.22.27-.53.13-.76" fill="#eb996e"/></g><g><path d="M405.62 245.55c.34.04-.05 2.25 1.57 4.16 1.61 1.91 4.02 2.08 3.98 2.39.01.14-.6.34-1.6.19-.98-.14-2.35-.7-3.34-1.87-.99-1.17-1.26-2.54-1.17-3.46.06-.95.41-1.45.56-1.41z" fill="#263238"/></g><g><path d="M394.61 200.62c3.95 8.71 16.74 19.31 26.63 23.07-.9-1.8-6.45-6.85-7.35-8.65 3.99 4.33 9.75 10.21 15.84 11.68.72.17 1.51.32 2.18.07.91-.34 1.26-1.28 1.51-2.11 1.08-3.53 1.99-9.76 2.09-13.44.1-3.69-.87-7.55-3.53-10.53-3.37-3.79-8.87-5.6-14.16-6.73-4.44-.95-9.08-1.55-13.46-.7-4.38.84-8.46 3.36-9.77 7.07" fill="#263238"/></g><g><path d="M371.05 233.42c-.03-3.96.06-7.69.38-10.13 1-7.69 3.39-35.65 29.21-28.46l-2.75 7.16s1.98 18-11.27 27.66c0 0 .06 17.96-9.12 24.44 0 .01-6.4-12.17-6.45-20.67" fill="#263238"/></g><g><path d="M387.17 228.43c-1.53-.58-3.2-.83-4.81-.53-1.61.3-3.13 1.19-4.04 2.55-.91 1.36-1.15 3.1-.87 4.72.28 1.61 1.04 3.11 1.99 4.45.68.96 1.49 1.87 2.53 2.41 1.04.54 2.36.66 3.38.07" fill="#ffbe9d"/></g><g><path d="M384.61 237.86c.17.09-.68.93-2.06.28-.66-.31-1.23-1.04-1.51-1.87-.28-.85-.4-1.75-.32-2.76.07-1 .48-2.01 1.16-2.66.65-.67 1.58-.97 2.29-.86 1.49.23 1.77 1.34 1.6 1.34-.14.1-.62-.53-1.64-.47-.96.01-2.1 1.13-2.18 2.76-.11 1.66.25 3.26 1.05 3.78.81.61 1.54.31 1.61.46z" fill="#eb996e"/></g><path d="M384.59 242.06c-4.01 23.91-.74 48.35-.03 72.59.07 2.32.09 4.76-.97 6.83-1.6 3.13-5.31 4.65-8.82 4.87-3.51.22-6.99-.6-10.49-.89-.38-2.32-.76-4.65-1.13-6.97-1.17 2.68-2.33 5.36-3.5 8.04 1.54-17.01 3.23-34 5.06-50.98" fill="#263238"/></g></g></svg>