<svg xmlns="http://www.w3.org/2000/svg" width="461.963" height="472.963"><path d="M393.772 244.563c-90.5-52.247-236.74-52.247-326.647 0s-89.437 136.964 1.056 189.212 236.746 52.25 326.659 0 89.434-136.96-1.068-189.212z" fill="#f5f5f5"/><path d="M98.356 417.522c-5.364-3.1-14.031-3.1-19.359 0s-5.3 8.117.063 11.214 14.03 3.1 19.359 0 5.3-8.117-.063-11.214zM285.902 230.86l-13.579-7.827a13.729 13.729 0 00-13.724.006l-75.333 43.658-6.646-3.826-54.533 31.906 6.295 3.626-89.174 51.484a4.577 4.577 0 000 7.927l13.723 7.922a13.724 13.724 0 0013.737-.005l89.121-51.542 10.415 6a27.457 27.457 0 0027.433-.014l32.036-18.5a6.1 6.1 0 00-.007-10.572l-15.017-8.645 12.648-7.34 4.384-2.545 58.227-33.79a4.576 4.576 0 00-.006-7.923zM187.011 361.944c-15.652-9.037-40.947-9.037-56.5 0s-15.47 23.689.183 32.726 40.948 9.037 56.5 0 15.471-23.688-.183-32.726zM319.061 417.469c-14.184-8.189-37.1-8.188-51.2 0s-14.018 21.466.166 29.655 37.105 8.189 51.2 0 14.018-21.465-.166-29.655zM336.038 297.358c-14.619-8.44-38.242-8.44-52.766 0s-14.447 22.124.172 30.564 38.242 8.441 52.766 0 14.447-22.124-.172-30.564zM403.667 291.013c-5.735-3.311-15-3.311-20.7 0s-5.668 8.68.067 11.991 15 3.311 20.7 0 5.668-8.68-.067-11.991z" fill="#e0e0e0"/><g style="isolation:isolate"><path d="M97.945 60.797l-2.987-1.736.175 106.525 2.987 1.736z" fill="#f0f0f0"/><path d="M98.12 167.323l-2.987-1.736-34.385 19.738 2.987 1.736z" fill="#f5f5f5"/><path d="M101.567 169.288l-41.258 23.706-.2-114.423 41.258-23.706zm-37.833 17.773l34.386-19.738-.175-106.525-34.386 19.737.175 106.526" fill="#e0e0e0"/><path d="M101.37 54.865l-2.989-1.736-41.256 23.706 2.987 1.736z" fill="#f5f5f5"/><path d="M60.112 78.571l-2.987-1.736.2 114.423 2.987 1.736z" fill="#f0f0f0"/></g><path d="M98.113 93.975l-2.987-1.736-31.567 18.157v3.454z" fill="#f5f5f5"/><path d="M98.114 93.975L63.559 113.85v3.945L98.12 97.938zM63.559 113.85l34.554-19.875-34.554 19.875z" fill="#e0e0e0"/><g style="isolation:isolate"><path d="M60.112 82.539l-2.987-1.736.175 106.526 2.987 1.736z" fill="#f0f0f0"/><path d="M60.287 189.064l-2.987-1.736-34.385 19.738 2.987 1.736z" fill="#f5f5f5"/><path d="M63.734 191.029l-41.258 23.706-.195-114.423 41.256-23.706zm-37.832 17.773l34.385-19.738-.175-106.525-34.386 19.738.176 106.525" fill="#e0e0e0"/><path d="M63.537 76.606L60.55 74.87 19.292 98.576l2.989 1.736z" fill="#f5f5f5"/><path d="M22.281 100.312l-2.987-1.736.2 114.423 2.987 1.736z" fill="#f0f0f0"/></g><path d="M60.281 115.716l-2.987-1.734-31.568 18.155v3.454z" fill="#f5f5f5"/><path d="M60.281 115.716l-34.555 19.875v3.945l34.561-19.854zM25.726 135.591l34.555-19.875-34.555 19.875z" fill="#e0e0e0"/><g style="isolation:isolate"><path d="M190.195 7.668l-2.987-1.736.175 106.525 2.987 1.736z" fill="#f0f0f0"/><path d="M190.37 114.194l-2.987-1.736-34.386 19.738 2.984 1.736z" fill="#f5f5f5"/><path d="M193.817 116.158l-41.258 23.706-.2-114.422 41.258-23.706zm-37.836 17.774l34.386-19.738-.175-106.526-34.383 19.738.172 106.526" fill="#e0e0e0"/><path d="M193.62 1.736L190.633 0l-41.258 23.706 2.987 1.736z" fill="#f5f5f5"/><path d="M152.362 25.442l-2.987-1.736.2 114.423 2.987 1.736z" fill="#f0f0f0"/></g><path d="M190.363 40.846l-2.982-1.736-31.572 18.157v3.454z" fill="#f5f5f5"/><path d="M190.364 40.846l-34.555 19.875v3.945l34.561-19.857zM155.809 60.721l34.554-19.875-34.554 19.875z" fill="#e0e0e0"/><g style="isolation:isolate"><path d="M152.362 29.41l-2.987-1.736.175 106.526 2.987 1.736z" fill="#f0f0f0"/><path d="M152.537 135.935l-2.987-1.736-34.385 19.738 2.987 1.736z" fill="#f5f5f5"/><path d="M155.981 137.9l-41.258 23.706-.2-114.423 41.264-23.701zm-37.83 17.773l34.386-19.738-.175-106.525-34.386 19.737.175 106.526" fill="#e0e0e0"/><path d="M155.787 23.477l-2.987-1.736-41.258 23.706 2.987 1.736z" fill="#f5f5f5"/><path d="M114.529 47.182l-2.987-1.736.2 114.423 2.987 1.736z" fill="#f0f0f0"/></g><path d="M152.53 62.587l-2.987-1.736-31.562 18.157v3.454z" fill="#f5f5f5"/><path d="M152.531 62.587l-34.55 19.875v3.945l34.561-19.857z" fill="#e0e0e0"/><path d="M117.981 82.462l34.55-19.875-34.55 19.875z" fill="#e0e0e0"/><path d="M374.081 121.392l32.688 18.872-.071 24.983-32.688-18.872z" fill="none"/><path d="M374.081 121.392l-.071 24.983-3.029 1.759.081-28.485z" fill="#f0f0f0"/><path d="M406.694 165.247l-.01 3.5-35.703-20.613 3.028-1.76z" fill="#f5f5f5"/><path d="M367.308 150.226l43.023 24.84.1-36.888-43.024-24.839zm3.67-2.092l.081-28.485 3.018 1.743 32.688 18.872-.071 24.983-.01 3.5z" fill="#e0e0e0"/><path d="M367.412 113.339l3.028-1.76 43.023 24.84-3.028 1.759z" fill="#f5f5f5"/><path d="M413.463 136.419l-.1 36.887-3.028 1.76.1-36.887z" fill="#f0f0f0"/><g style="isolation:isolate" fill="#e0e0e0"><path d="M384.463 130.882l-8.914 7.019-.02 6.857 29.652 17.114.02-6.857-5.651-11.223-5.073 3.939 1.794 5.574-2.6-4.949z"/><path d="M394.202 134.333c-1.4-.805-2.531-.158-2.535 1.445a5.551 5.551 0 002.518 4.363c1.4.806 2.531.159 2.536-1.445a5.554 5.554 0 00-2.519-4.363z"/></g><path d="M374.081 65.453l32.688 18.872-.071 24.983-32.688-18.872z" fill="none"/><path d="M374.081 65.453l-.071 24.983-3.029 1.759.081-28.485z" fill="#f0f0f0"/><path d="M406.694 109.308l-.01 3.5-35.703-20.613 3.028-1.759z" fill="#f5f5f5"/><path d="M367.308 94.282l43.023 24.839.1-36.887-43.023-24.84zm3.67-2.092l.081-28.485 3.022 1.747 32.688 18.873-.071 24.983-.01 3.5z" fill="#e0e0e0"/><path d="M367.412 57.4l3.028-1.759 43.023 24.841-3.028 1.76z" fill="#f5f5f5"/><path d="M413.463 80.482l-.1 36.887-3.028 1.76.1-36.887z" fill="#f0f0f0"/><g style="isolation:isolate" fill="#e0e0e0"><path d="M384.463 74.938l-8.915 7.019-.02 6.857 29.653 17.118.019-6.857-5.651-11.223-5.073 3.939 1.794 5.574-2.6-4.949z"/><path d="M394.202 78.394c-1.4-.805-2.531-.158-2.536 1.445a5.557 5.557 0 002.515 4.363c1.4.806 2.531.158 2.536-1.445a5.555 5.555 0 00-2.515-4.363z"/></g><path d="M214.57 293.368l-26.119 14.944a24.762 24.762 0 01-24.661-.038l-19.38-11.17a7.428 7.428 0 01-3.719-6.426l-.019-13.221-4.042 2.337v11.488a8.665 8.665 0 004.339 7.508l23.012 13.266a24.376 24.376 0 0024.281.038l26.309-15.053a9.847 9.847 0 004.8-10.434 9.759 9.759 0 01-4.801 6.761z" fill="#feab45"/><path d="M214.57 293.368l-26.119 14.944a24.762 24.762 0 01-24.661-.038l-19.38-11.17a7.428 7.428 0 01-3.719-6.426l-.019-13.221-4.042 2.337v11.488a8.665 8.665 0 004.339 7.508l23.012 13.266a24.376 24.376 0 0024.281.038l26.309-15.053a9.847 9.847 0 004.8-10.434 9.759 9.759 0 01-4.801 6.761z" opacity=".1"/><path d="M144.41 297.104l19.38 11.17a24.762 24.762 0 0024.661.038l26.119-14.944a9.759 9.759 0 004.8-6.761 9.749 9.749 0 00-4.622-6.656l-21.428-12.853a8.669 8.669 0 01-4.209-7.432v-10.209l-48.437 28 .019 13.221a7.428 7.428 0 003.717 6.426z" fill="#feab45"/><path d="M144.41 297.104a7.428 7.428 0 01-3.719-6.426l-.019-13.221-4.042 2.337v11.488a8.665 8.665 0 004.339 7.508l8.163 4.705v-3.673z" opacity=".4"/><path d="M144.41 297.104l4.722 2.722 50.568-28.9-6.382-3.827a8.669 8.669 0 01-4.209-7.432v-10.21l-48.437 28 .019 13.221a7.428 7.428 0 003.719 6.426z" opacity=".3"/><path d="M58.799 330.015v-.007c-.018-.009-.038-.016-.056-.026z" fill="#ffa8a7"/><path d="M56.501 325.182l-.372-165.653a16.288 16.288 0 017.39-12.8l205.91-118.574c2.034-1.174 3.88-1.293 5.224-.54l-7.753-4.493v.007c-1.357-.861-3.268-.789-5.387.434L55.605 142.142a16.286 16.286 0 00-7.39 12.8l.372 165.654c.006 2.218.756 3.8 1.971 4.621l.008.005a3.489 3.489 0 00.415.239l7.646 4.454c-1.308-.784-2.119-2.415-2.126-4.733z" fill="#feab45"/><path d="M266.9 23.122v.007c-1.357-.861-3.268-.789-5.387.434L55.605 142.142a15.526 15.526 0 00-5.663 6.311l7.922 4.579a15.514 15.514 0 015.655-6.3l205.91-118.577c2.034-1.174 3.88-1.293 5.224-.54z" fill="#fff" opacity=".3"/><path d="M48.215 154.942l.372 165.654c.006 2.218.756 3.8 1.971 4.621l.008.005a3.489 3.489 0 00.415.239l7.646 4.454c-1.308-.784-2.119-2.415-2.126-4.728l-.372-165.653a14.552 14.552 0 011.735-6.5l-7.922-4.579a14.54 14.54 0 00-1.727 6.487z" opacity=".2"/><path d="M274.741 27.666l-.038-.023.035.025z" fill="#ffa8a7"/><path d="M276.867 32.394c-.006-2.313-.82-3.943-2.129-4.726l-.035-.025-.05-.028c-1.344-.753-3.19-.634-5.224.54L63.519 146.733a16.288 16.288 0 00-7.39 12.8l.372 165.649c.007 2.313.818 3.944 2.126 4.728.039.023.077.046.116.067.018.01.038.017.056.026 1.336.7 3.145.57 5.141-.581l205.909-118.574a16.3 16.3 0 007.391-12.8zm-10.676 172.118L63.806 321.055l-.36-161.542a9.207 9.207 0 013.731-6.443L269.562 36.527l.361 161.541a9.21 9.21 0 01-3.732 6.444z" fill="#feab45"/><path d="M269.562 36.527l-5.238 3.021.349 155.964a9.21 9.21 0 01-3.732 6.443L63.794 315.482l.012 5.578 202.385-116.548a9.21 9.21 0 003.732-6.444z" fill="#feab45"/><path d="M269.562 36.527l-5.238 3.021.349 155.964a9.21 9.21 0 01-3.732 6.443L63.794 315.482l.012 5.578 202.385-116.548a9.21 9.21 0 003.732-6.444z" opacity=".3"/><path d="M264.673 195.512l-.349-155.964L67.181 153.07a9.207 9.207 0 00-3.731 6.443l.344 155.969 197.147-113.527a9.21 9.21 0 003.732-6.443z" fill="#455a64"/><path d="M87.701 333.559l-.352-156.571a15.4 15.4 0 016.985-12.1L288.955 52.811c1.923-1.11 3.668-1.222 4.938-.51l-7.328-4.247v.006c-1.283-.813-3.089-.745-5.091.411L86.853 160.549a15.4 15.4 0 00-6.985 12.1l.352 156.571c.007 2.1.715 3.6 1.864 4.369l.008.005a3.464 3.464 0 00.392.226l7.227 4.209c-1.237-.747-2.004-2.283-2.01-4.47z" fill="#feab45"/><path d="M286.565 48.054v.006c-1.283-.813-3.089-.745-5.091.411L86.853 160.549a14.676 14.676 0 00-5.351 5.965l7.487 4.328a14.669 14.669 0 015.345-5.953L288.955 52.811c1.923-1.11 3.668-1.222 4.938-.51z" fill="#fff" opacity=".1"/><path d="M79.868 172.648l.352 156.571c.007 2.1.715 3.6 1.864 4.369l.008.005a3.464 3.464 0 00.392.226l7.227 4.209c-1.236-.741-2-2.282-2.009-4.469l-.352-156.571a13.755 13.755 0 011.64-6.146l-7.487-4.328a13.766 13.766 0 00-1.635 6.134z" fill="#fff" opacity=".3"/><path d="M87.369 186.064l.332 147.495c.006 2.187.773 3.728 2.009 4.469l.11.064c.017.009.036.015.053.024 1.263.664 2.973.539 4.859-.55l194.621-112.077a15.41 15.41 0 006.985-12.1l-.332-147.741z" fill="#feab45"/><path d="M87.369 186.064l.332 147.495c.006 2.187.773 3.728 2.009 4.469l.11.064c.017.009.036.015.053.024 1.263.664 2.973.539 4.859-.55l194.621-112.077a15.41 15.41 0 006.985-12.1l-.332-147.741z" fill="#fff" opacity=".5"/><path d="M287.933 75.466c1.8-1.04 3.275-.207 3.281 1.87a7.187 7.187 0 01-3.26 5.646l-166.829 96.44c-1.8 1.041-3.276.207-3.281-1.87a7.186 7.186 0 013.259-5.646z" fill="#ba68c8"/><path d="M287.933 75.466c1.8-1.04 3.275-.207 3.281 1.87a7.187 7.187 0 01-3.26 5.646l-166.829 96.44c-1.8 1.041-3.276.207-3.281-1.87a7.186 7.186 0 013.259-5.646z" fill="#fff" opacity=".8"/><path d="M96.597 187.75a.241.241 0 01.221-.029c.134.063.145.3.021.523l-1.058 1.938 3.558-2.054c.181-.1.329-.02.33.188a.725.725 0 01-.328.568l-3.558 2.054 1.062.716c.125.082.115.328-.018.545a.666.666 0 01-.22.227.223.223 0 01-.243.018l-1.566-1.062a.208.208 0 01-.063-.082.333.333 0 01-.024-.124.565.565 0 01.019-.138.734.734 0 01.063-.157l1.562-2.874a.678.678 0 01.242-.257zM105.581 182.564a.229.229 0 01.243-.019l1.569 1.057a.273.273 0 01.064.081.4.4 0 01.022.126.618.618 0 01-.019.138.849.849 0 01-.061.155l-1.563 2.875a.674.674 0 01-.242.262.245.245 0 01-.223.029c-.132-.064-.142-.3-.021-.523l1.056-1.938-3.557 2.054c-.182.1-.33.02-.33-.188a.722.722 0 01.327-.568l3.558-2.054-1.063-.715c-.123-.083-.114-.329.018-.546a.658.658 0 01.222-.226zM112.152 178.768a1.7 1.7 0 011.092-.263.724.724 0 01.323-.513l.015-.009c.181-.1.322 0 .314.211l-.027.841a.724.724 0 01-.314.542l-.717.45-.014.008c-.175.1-.319.028-.328-.171a.72.72 0 01.249-.527 1.283 1.283 0 00-.591.187 3.03 3.03 0 00-1.375 2.379c0 .874.624 1.225 1.384.786a3.024 3.024 0 001.209-1.526.718.718 0 01.288-.364.283.283 0 01.157-.044c.16.007.219.2.133.435a4.449 4.449 0 01-1.785 2.255c-1.123.648-2.038.124-2.042-1.163a4.48 4.48 0 012.029-3.514z" fill="#ba68c8"/><g opacity=".7" fill="#fff"><path d="M96.597 187.75a.241.241 0 01.221-.029c.134.063.145.3.021.523l-1.058 1.938 3.558-2.054c.181-.1.329-.02.33.188a.725.725 0 01-.328.568l-3.558 2.054 1.062.716c.125.082.115.328-.018.545a.666.666 0 01-.22.227.223.223 0 01-.243.018l-1.566-1.062a.208.208 0 01-.063-.082.333.333 0 01-.024-.124.565.565 0 01.019-.138.734.734 0 01.063-.157l1.562-2.874a.678.678 0 01.242-.257zM105.581 182.564a.229.229 0 01.243-.019l1.569 1.057a.273.273 0 01.064.081.4.4 0 01.022.126.618.618 0 01-.019.138.849.849 0 01-.061.155l-1.563 2.875a.674.674 0 01-.242.262.245.245 0 01-.223.029c-.132-.064-.142-.3-.021-.523l1.056-1.938-3.557 2.054c-.182.1-.33.02-.33-.188a.722.722 0 01.327-.568l3.558-2.054-1.063-.715c-.123-.083-.114-.329.018-.546a.658.658 0 01.222-.226zM112.152 178.768a1.7 1.7 0 011.092-.263.724.724 0 01.323-.513l.015-.009c.181-.1.322 0 .314.211l-.027.841a.724.724 0 01-.314.542l-.717.45-.014.008c-.175.1-.319.028-.328-.171a.72.72 0 01.249-.527 1.283 1.283 0 00-.591.187 3.03 3.03 0 00-1.375 2.379c0 .874.624 1.225 1.384.786a3.024 3.024 0 001.209-1.526.718.718 0 01.288-.364.283.283 0 01.157-.044c.16.007.219.2.133.435a4.449 4.449 0 01-1.785 2.255c-1.123.648-2.038.124-2.042-1.163a4.48 4.48 0 012.029-3.514z"/></g><path d="M99.529 276.17a3.148 3.148 0 01-1.593-.413 4.071 4.071 0 01-1.762-3.743l-.172-60.843a11.9 11.9 0 015.395-9.345l72.99-42.142a4.116 4.116 0 014.158-.366 4.069 4.069 0 011.761 3.744l.173 60.845a11.9 11.9 0 01-5.4 9.344l-72.99 42.141a5.2 5.2 0 01-2.56.778zm77.421-116.28a4.25 4.25 0 00-2.072.645l-72.99 42.142a10.817 10.817 0 00-4.9 8.491l.173 60.844a3.152 3.152 0 001.27 2.894 3.2 3.2 0 003.175-.364l72.991-42.141a10.828 10.828 0 004.9-8.492l-.173-60.844a3.155 3.155 0 00-1.269-2.9 2.184 2.184 0 00-1.105-.275z" fill="#fff" opacity=".5"/><path d="M240.43 234.695a1.349 1.349 0 01-.678-.176 1.652 1.652 0 01-.735-1.5l-.294-103.837a4.147 4.147 0 011.9-3.3l41.017-23.681a1.5 1.5 0 012.406 1.38l.3 103.838a4.149 4.149 0 01-1.9 3.3l-41.022 23.683a2 2 0 01-.994.293zm41.459-132.071l.245.426-41.016 23.681a3.17 3.17 0 00-1.413 2.45l.3 103.84a.727.727 0 00.243.647.746.746 0 00.69-.117l41.016-23.681a3.169 3.169 0 001.412-2.45l-.299-103.838a.731.731 0 00-.244-.648.748.748 0 00-.689.117z" fill="#fff"/><path d="M137.608 260.482c1.52-.877 2.754-.174 2.759 1.573l.092 32.4a6.044 6.044 0 01-2.741 4.749l-38.865 22.438c-1.52.878-2.755.171-2.76-1.572l-.091-32.4a6.037 6.037 0 012.741-4.748z" fill="#feab45"/><path d="M137.608 260.482c1.52-.877 2.754-.174 2.759 1.573l.092 32.4a6.044 6.044 0 01-2.741 4.749l-38.865 22.438c-1.52.878-2.755.171-2.76-1.572l-.091-32.4a6.037 6.037 0 012.741-4.748z" fill="#fff" opacity=".2"/><path d="M137.899 262.617a.179.179 0 01.221 0c.092.089.065.3-.056.477l-19.371 27.7 19.465 5.281c.121.032.149.216.058.408a.568.568 0 01-.22.255.232.232 0 01-.164.035l-19.6-5.319-19.507 27.9a.538.538 0 01-.163.155.18.18 0 01-.223 0c-.09-.088-.066-.3.058-.475l19.37-27.7-19.464-5.281c-.124-.034-.149-.216-.06-.41a.594.594 0 01.222-.257.215.215 0 01.164-.031l19.6 5.319 19.507-27.9a.519.519 0 01.163-.157z" fill="#fff"/><path d="M185.302 233.625c1.52-.878 2.754-.174 2.759 1.572l.092 32.4a6.043 6.043 0 01-2.742 4.749l-38.864 22.436c-1.52.877-2.755.171-2.76-1.573l-.092-32.4a6.04 6.04 0 012.742-4.749z" fill="#feab45"/><path d="M185.302 233.625c1.52-.878 2.754-.174 2.759 1.572l.092 32.4a6.043 6.043 0 01-2.742 4.749l-38.864 22.436c-1.52.877-2.755.171-2.76-1.573l-.092-32.4a6.04 6.04 0 012.742-4.749z" fill="#fff" opacity=".2"/><path d="M185.592 235.756a.177.177 0 01.221 0c.092.089.066.3-.055.476l-19.371 27.7 19.464 5.281c.122.032.15.215.058.408a.572.572 0 01-.22.255.223.223 0 01-.163.034l-19.6-5.319-19.506 27.9a.561.561 0 01-.164.154.179.179 0 01-.223 0c-.089-.088-.065-.3.058-.476l19.371-27.7-19.464-5.281c-.124-.034-.149-.215-.061-.409a.6.6 0 01.223-.257.214.214 0 01.163-.032l19.6 5.319 19.507-27.9a.51.51 0 01.162-.153z" fill="#fff"/><path d="M232.396 206.518c1.52-.878 2.755-.174 2.76 1.572l.091 32.4a6.042 6.042 0 01-2.741 4.749l-38.865 22.436c-1.52.877-2.754.171-2.759-1.573l-.092-32.4a6.039 6.039 0 012.741-4.749z" fill="#feab45"/><path d="M242.396 206.518c1.52-.878 2.755-.174 2.76 1.572l.091 32.4a6.042 6.042 0 01-2.741 4.749l-38.865 22.436c-1.52.877-2.754.171-2.759-1.573l-.092-32.4a6.039 6.039 0 012.741-4.749z" fill="#fff" opacity=".2"/><path d="M232.687 208.649a.179.179 0 01.221 0c.092.089.065.3-.056.476l-19.371 27.7 19.465 5.281c.121.032.149.215.058.408a.579.579 0 01-.22.255.226.226 0 01-.164.034l-19.6-5.319-19.507 27.898a.546.546 0 01-.163.154.179.179 0 01-.223 0c-.09-.088-.066-.3.058-.476l19.371-27.7-19.465-5.278c-.124-.033-.149-.215-.06-.409a.589.589 0 01.223-.257.213.213 0 01.163-.032l19.6 5.319 19.507-27.9a.523.523 0 01.163-.154z" fill="#fff"/><path d="M228.621 134.414c2.535-1.464 4.6-.288 4.607 2.625a10.082 10.082 0 01-4.577 7.922l-38.236 22.075c-2.535 1.464-4.593.291-4.6-2.622a10.077 10.077 0 014.571-7.925z" fill="#feab45"/><path d="M228.621 134.414c2.535-1.464 4.6-.288 4.607 2.625a10.082 10.082 0 01-4.577 7.922l-38.236 22.075c-2.535 1.464-4.593.291-4.6-2.622a10.077 10.077 0 014.571-7.925z" fill="#fff" opacity=".2"/><path d="M228.621 149.215c2.535-1.464 4.6-.288 4.607 2.625a10.081 10.081 0 01-4.577 7.922l-38.236 22.075c-2.535 1.464-4.593.291-4.6-2.622a10.077 10.077 0 014.571-7.925z" fill="#feab45"/><path d="M228.621 149.215c2.535-1.464 4.6-.288 4.607 2.625a10.081 10.081 0 01-4.577 7.922l-38.236 22.075c-2.535 1.464-4.593.291-4.6-2.622a10.077 10.077 0 014.571-7.925z" fill="#fff" opacity=".2"/><path d="M228.621 164.016c2.535-1.463 4.6-.288 4.607 2.626a10.08 10.08 0 01-4.577 7.921l-38.236 22.075c-2.535 1.464-4.593.291-4.6-2.622a10.075 10.075 0 014.571-7.924z" fill="#feab45"/><path d="M228.621 164.016c2.535-1.463 4.6-.288 4.607 2.626a10.08 10.08 0 01-4.577 7.921l-38.236 22.075c-2.535 1.464-4.593.291-4.6-2.622a10.075 10.075 0 014.571-7.924z" fill="#fff" opacity=".2"/><path d="M295.986 56.818c-.006-2.186-.775-3.727-2.012-4.467l-.034-.023-.047-.027c-1.27-.712-3.015-.6-4.938.51L94.334 164.889a15.4 15.4 0 00-6.985 12.1l.02 9.076L296.006 65.649z" fill="#feab45"/><path d="M295.986 56.818c-.006-2.186-.775-3.727-2.012-4.467l-.034-.023-.047-.027c-1.27-.712-3.015-.6-4.938.51L94.334 164.889a15.4 15.4 0 00-6.985 12.1l.02 9.076L296.006 65.649z" opacity=".3"/><g opacity=".5" fill="#fff"><path d="M96.615 171.234c1.056-.609 1.914-.12 1.918 1.093a4.2 4.2 0 01-1.9 3.3c-1.055.609-1.914.12-1.917-1.093a4.2 4.2 0 011.899-3.3zM101.835 168.221c1.055-.61 1.914-.12 1.917 1.092a4.2 4.2 0 01-1.9 3.3c-1.056.61-1.914.121-1.918-1.092a4.2 4.2 0 011.901-3.3zM107.055 165.207c1.055-.609 1.913-.12 1.917 1.093a4.2 4.2 0 01-1.9 3.3c-1.055.609-1.914.12-1.917-1.093a4.2 4.2 0 011.9-3.3z"/></g><path d="M96.615 171.234c1.056-.609 1.914-.12 1.918 1.093a4.2 4.2 0 01-1.9 3.3c-1.055.609-1.914.12-1.917-1.093a4.2 4.2 0 011.899-3.3zM101.835 168.221c1.055-.61 1.914-.12 1.917 1.092a4.2 4.2 0 01-1.9 3.3c-1.056.61-1.914.121-1.918-1.092a4.2 4.2 0 011.901-3.3zM107.055 165.207c1.055-.609 1.913-.12 1.917 1.093a4.2 4.2 0 01-1.9 3.3c-1.055.609-1.914.12-1.917-1.093a4.2 4.2 0 011.9-3.3z" fill="#feab45"/><path d="M101.693 399.705l-12.985.378-12.985-.378c-.56 8.769 1.152 17.706 3.513 22.071h.009a5.91 5.91 0 002.57 2.615 15.237 15.237 0 0013.831 0 5.756 5.756 0 002.568-2.683c2.343-4.39 4.036-13.277 3.479-22.003z" fill="#fff"/><path d="M97.86 394.382c5.088 2.938 5.114 7.7.06 10.637s-13.276 2.938-18.364 0-5.114-7.7-.06-10.637 13.276-2.933 18.364 0z" fill="#ebebeb"/><path d="M95.848 395.555c3.969 2.292 3.99 6.007.047 8.3a15.785 15.785 0 01-14.327 0c-3.969-2.292-3.99-6.007-.047-8.3a15.792 15.792 0 0114.327 0z" fill="#e0e0e0"/><path d="M95.848 395.555c3.969 2.292 3.99 6.007.047 8.3a15.785 15.785 0 01-14.327 0c-3.969-2.292-3.99-6.007-.047-8.3a15.792 15.792 0 0114.327 0z" opacity=".15"/><path d="M82.081 373.131c-2.112-2.626-4.565-4.978-6.5-7.736-1.321-1.881-2.426-4.183-1.871-6.414a5.741 5.741 0 014.547-4 8.725 8.725 0 016.1 1.362 18.778 18.778 0 014.612 4.39 45.832 45.832 0 019.65 32.721 6.863 6.863 0 01-1.2 3.761 3.766 3.766 0 01-3.882 1.186c-3.537-1.05-3.068-5.828-3.646-8.639a39.481 39.481 0 00-4.063-11.032 38.69 38.69 0 00-3.747-5.599z" fill="#17a6af"/><path d="M82.081 373.131c-2.112-2.626-4.565-4.978-6.5-7.736-1.321-1.881-2.426-4.183-1.871-6.414a5.741 5.741 0 014.547-4 8.725 8.725 0 016.1 1.362 18.778 18.778 0 014.612 4.39 45.832 45.832 0 019.65 32.721 6.863 6.863 0 01-1.2 3.761 3.766 3.766 0 01-3.882 1.186c-3.537-1.05-3.068-5.828-3.646-8.639a39.481 39.481 0 00-4.063-11.032 38.69 38.69 0 00-3.747-5.599z" fill="#fff" opacity=".2"/><path d="M93.757 394.838a.309.309 0 01-.249-.29c-.248-5.679-2.094-25.061-15.451-36.057a.31.31 0 01.394-.479c13.554 11.16 15.425 30.765 15.676 36.509a.312.312 0 01-.3.323.444.444 0 01-.07-.006z" fill="#f0f0f0"/><path d="M95.709 395.453a9.487 9.487 0 01-4.337 6.014 12.2 12.2 0 01-6.563 1.1 28.77 28.77 0 01-6.663-1.58c-1.07-.361-2.261-.847-2.375-2.174a2.367 2.367 0 01.757-1.868 7.637 7.637 0 01.692-.6.685.685 0 00-.366-1.23 16.124 16.124 0 01-1.9-.234 8.376 8.376 0 01-3.987-1.8 6.635 6.635 0 01-1.841-2.727 2.565 2.565 0 01.263-2.677 2.916 2.916 0 011.477-.642c.475-.1.95-.19 1.428-.264a.633.633 0 00.147-1.211l-2.014-.84a3.787 3.787 0 01-1.529-.949 3.334 3.334 0 01-.388-2.775c.246-1.261.682-2.477.979-3.728a8 8 0 00.132-3.814 32.05 32.05 0 0111.285.754 8.115 8.115 0 013.08 1.348 4.517 4.517 0 011.449 4.148.292.292 0 00.549.154l1.287-2.374a1.528 1.528 0 012-.639 9.237 9.237 0 012.943 2.315 5.1 5.1 0 011.26 3.768 32.968 32.968 0 01-.938 5.531.512.512 0 00.8.541l.061-.044a1.731 1.731 0 011.214-.353c1.137.141 1.428 1.294 1.5 2.275a19.017 19.017 0 01-.402 4.575z" fill="#17a6af"/><path d="M95.709 395.453a9.487 9.487 0 01-4.337 6.014 12.2 12.2 0 01-6.563 1.1 28.77 28.77 0 01-6.663-1.58c-1.07-.361-2.261-.847-2.375-2.174a2.367 2.367 0 01.757-1.868 7.637 7.637 0 01.692-.6.685.685 0 00-.366-1.23 16.124 16.124 0 01-1.9-.234 8.376 8.376 0 01-3.987-1.8 6.635 6.635 0 01-1.841-2.727 2.565 2.565 0 01.263-2.677 2.916 2.916 0 011.477-.642c.475-.1.95-.19 1.428-.264a.633.633 0 00.147-1.211l-2.014-.84a3.787 3.787 0 01-1.529-.949 3.334 3.334 0 01-.388-2.775c.246-1.261.682-2.477.979-3.728a8 8 0 00.132-3.814 32.05 32.05 0 0111.285.754 8.115 8.115 0 013.08 1.348 4.517 4.517 0 011.449 4.148.292.292 0 00.549.154l1.287-2.374a1.528 1.528 0 012-.639 9.237 9.237 0 012.943 2.315 5.1 5.1 0 011.26 3.768 32.968 32.968 0 01-.938 5.531.512.512 0 00.8.541l.061-.044a1.731 1.731 0 011.214-.353c1.137.141 1.428 1.294 1.5 2.275a19.017 19.017 0 01-.402 4.575z" opacity=".2"/><path d="M95.709 395.453a9.487 9.487 0 01-4.337 6.014 12.2 12.2 0 01-6.563 1.1 28.77 28.77 0 01-6.663-1.58c-1.07-.361-2.261-.847-2.375-2.174a2.367 2.367 0 01.757-1.868 7.637 7.637 0 01.692-.6.685.685 0 00-.366-1.23 16.124 16.124 0 01-1.9-.234 8.376 8.376 0 01-3.987-1.8 6.635 6.635 0 01-1.841-2.727 2.565 2.565 0 01.263-2.677 2.916 2.916 0 011.477-.642c.475-.1.95-.19 1.428-.264a.633.633 0 00.147-1.211l-2.014-.84a3.787 3.787 0 01-1.529-.949 3.334 3.334 0 01-.388-2.775c.246-1.261.682-2.477.979-3.728a8 8 0 00.132-3.814 32.05 32.05 0 0111.285.754 8.115 8.115 0 013.08 1.348 4.517 4.517 0 011.449 4.148.292.292 0 00.549.154l1.287-2.374a1.528 1.528 0 012-.639 9.237 9.237 0 012.943 2.315 5.1 5.1 0 011.26 3.768 32.968 32.968 0 01-.938 5.531.512.512 0 00.8.541l.061-.044a1.731 1.731 0 011.214-.353c1.137.141 1.428 1.294 1.5 2.275a19.017 19.017 0 01-.402 4.575z" fill="#fff" opacity=".2"/><path d="M89.725 401.157a45.737 45.737 0 00-3.035-8.8.3.3 0 00-.107-.231l-.212-.46a28.438 28.438 0 013.006-10.071.31.31 0 00-.536-.308 28.835 28.835 0 00-2.964 9.361 41.214 41.214 0 00-12.996-15.577.31.31 0 00-.354.508 40.952 40.952 0 0113.147 16.062 18.95 18.95 0 00-10.755-1.459.31.31 0 000 .608.335.335 0 00.118 0 18.376 18.376 0 0111.071 1.77 45.149 45.149 0 013.012 8.714.31.31 0 00.244.244.318.318 0 00.119 0 .311.311 0 00.242-.361z" fill="#f0f0f0"/><path d="M407.236 271.96l-13.886.4-13.886-.4c-.6 9.377 1.233 18.934 3.757 23.6h.01a6.324 6.324 0 002.749 2.8 16.294 16.294 0 0014.789 0 6.156 6.156 0 002.747-2.869c2.504-4.696 4.315-14.2 3.72-23.531z" fill="#fff"/><path d="M403.136 266.273c5.441 3.141 5.47 8.233.065 11.374s-14.2 3.141-19.638 0-5.469-8.233-.063-11.374 14.196-3.141 19.636 0z" fill="#ebebeb"/><path d="M400.981 267.523c4.245 2.45 4.267 6.423.05 8.874a16.879 16.879 0 01-15.32 0c-4.245-2.45-4.267-6.423-.05-8.874a16.879 16.879 0 0115.32 0z" fill="#e0e0e0"/><path d="M400.981 267.523c4.245 2.45 4.267 6.423.05 8.874a16.879 16.879 0 01-15.32 0c-4.245-2.45-4.267-6.423-.05-8.874a16.879 16.879 0 0115.32 0z" opacity=".15"/><path d="M416.181 212.707c-31.292 10.246-31.575 31.18-24.521 46.088 1.779 3.018 7.163 4.638 11.85-13.9l-8.22 1.053 9.579-4.854 2.488-7.437-7.986.593 10.137-4.264a149.847 149.847 0 016.673-17.279z" fill="#17a6af"/><path d="M416.181 212.707c-31.292 10.246-31.575 31.18-24.521 46.088 1.779 3.018 7.163 4.638 11.85-13.9l-8.22 1.053 9.579-4.854 2.488-7.437-7.986.593 10.137-4.264a149.847 149.847 0 016.673-17.279z" opacity=".2"/><path d="M416.181 212.707c-31.292 10.246-31.575 31.18-24.521 46.088 1.779 3.018 7.163 4.638 11.85-13.9l-8.22 1.053 9.579-4.854 2.488-7.437-7.986.593 10.137-4.264a149.847 149.847 0 016.673-17.279z" fill="#fff" opacity=".2"/><path d="M407.329 217.942c-16.5 12.525-17.991 26.883-13.329 41.874-1.649-13.2-3.432-26.546 13.329-41.874z" fill="#fff"/><path d="M363.181 233.972c30.845 4.343 34.587 23.793 30.494 38.849-1.155 3.106-5.9 5.51-13.345-10.979l7.829-.384-9.727-2.93-3.552-6.513 7.536-.774-10.149-2.287a141.757 141.757 0 00-9.086-14.982z" fill="#17a6af"/><path d="M363.181 233.972c30.845 4.343 34.587 23.793 30.494 38.849-1.155 3.106-5.9 5.51-13.345-10.979l7.829-.384-9.727-2.93-3.552-6.513 7.536-.774-10.149-2.287a141.757 141.757 0 00-9.086-14.982z" fill="#fff" opacity=".2"/><path d="M363.181 233.972c30.845 4.343 34.587 23.793 30.494 38.849-1.155 3.106-5.9 5.51-13.345-10.979l7.829-.384-9.727-2.93-3.552-6.513 7.536-.774-10.149-2.287a141.757 141.757 0 00-9.086-14.982z" opacity=".1"/><path d="M372.292 237.377c17.449 8.923 21.222 22.048 19.371 36.783-.657-12.567-1.215-25.292-19.371-36.783z" fill="#fff"/><path d="M425.208 241.261c-28.287.462-33.837 17.573-31.833 31.6.694 2.929 4.7 5.627 13.257-8.4l-7.014-1.223 9.1-1.552 3.931-5.472-6.7-1.542 9.4-.925a128.852 128.852 0 019.859-12.486z" fill="#17a6af"/><path d="M416.614 243.31c-16.726 6.089-21.6 17.5-21.577 30.985 1.999-11.254 3.926-22.661 21.577-30.985z" fill="#fff"/><path d="M425.208 241.261c-28.287.462-33.837 17.573-31.833 31.6.694 2.929 4.7 5.627 13.257-8.4l-7.014-1.223 9.1-1.552 3.931-5.472-6.7-1.542 9.4-.925a128.852 128.852 0 019.859-12.486z" fill="#fff" opacity=".2"/><path d="M316.181 131.391l-.023 9.278 1.659 14.554 2.411 14.169 8.3.966-3.393-15.135-6.424-25.048z" fill="#ffa8a7"/><path d="M319.472 167.656c5.719-2.136 9.461.866 9.461.866l.936 24.269-10.207-5.841z" fill="#ba68c8"/><path d="M319.472 167.656c5.719-2.136 9.461.866 9.461.866l.936 24.269-10.207-5.841z" fill="#feab45"/><path d="M319.472 167.656c5.719-2.136 9.461.866 9.461.866l.936 24.269-10.207-5.841z" opacity=".3"/><path d="M319.472 167.656c5.719-2.136 9.461.866 9.461.866l.936 24.269-10.207-5.841z" fill="#fff" opacity=".3"/><path d="M314.381 97.882c.939-.542 1.7-.106 1.708.978l.3 106.272a3.743 3.743 0 01-1.7 2.944l-41.977 24.236c-.94.543-1.706.106-1.709-.978l-.3-106.272a3.743 3.743 0 011.7-2.944z" fill="#feab45"/><path d="M314.381 97.882c.939-.542 1.7-.106 1.708.978l.3 106.272a3.743 3.743 0 01-1.7 2.944l-41.977 24.236c-.94.543-1.706.106-1.709-.978l-.3-106.272a3.743 3.743 0 011.7-2.944z" opacity=".2"/><path d="M314.381 97.882c.939-.542 1.7-.106 1.708.978l.3 106.272a3.743 3.743 0 01-1.7 2.944l-41.977 24.236c-.94.543-1.706.106-1.709-.978l-.3-106.272a3.743 3.743 0 011.7-2.944z" fill="#fff" opacity=".1"/><path d="M313.804 101.54c.393-.066.486.171.39.469l-20.178 62.812 20.468 39.34a.789.789 0 01-.209.774c-.337.239-.491.221-.565.083l-20.163-38.748-19.873 61.863a.944.944 0 01-.387.51c-.392.067-.484-.17-.389-.473l20.183-62.807-20.468-39.344a.787.787 0 01.209-.77c.34-.241.494-.223.565-.083l20.159 38.75 19.878-61.865a.931.931 0 01.38-.511z" fill="#fff"/><path d="M289.546 181.39l-9.011-3-5.934-22.41a3.394 3.394 0 01.167-1.96l.625-1.563a6.435 6.435 0 00.454-2.592l-.111-3.427a1.046 1.046 0 00-1.045-1.011 1.046 1.046 0 00-1.029.86l-.536 2.973-1.257 1.446-1.138-4.07v-5.168l-2.563 3.719a4.7 4.7 0 00-.766 3.428l1.074 6.507 2.886 25.191a10.054 10.054 0 006.37 8.236l9.468 3.654z" fill="#ffa8a7"/><path d="M308.858 317.728a4.2 4.2 0 01-3.783 2.546 18.837 18.837 0 01-4.784-.612c-3.555-.644-6.983-.006-10.527-.089a15 15 0 01-3.463-.377 5.718 5.718 0 01-2.96-1.744 3.866 3.866 0 01-.852-1.856 3.656 3.656 0 00.852 2.9 5.724 5.724 0 002.96 1.744 15 15 0 003.463.376c3.544.084 6.972-.555 10.527.089a18.748 18.748 0 004.784.612 4.2 4.2 0 003.783-2.545 4.057 4.057 0 00.124-1.639 3.254 3.254 0 01-.124.595z" fill="#455a64"/><path d="M308.767 314.782l-.654-3.229a4.783 4.783 0 00-.547-1.644 1.624 1.624 0 00-1.438-.822c-1.946-.259-4.683-.963-6.3.15a14.514 14.514 0 01-8.705 2.528 30.381 30.381 0 00-4.816-.194 4.306 4.306 0 00-3.734 2.623 3.093 3.093 0 00-.083 1.4 3.866 3.866 0 00.852 1.856 5.718 5.718 0 002.96 1.744 15 15 0 003.463.377c3.544.083 6.972-.555 10.527.089a18.837 18.837 0 004.784.612 4.2 4.2 0 003.783-2.546 3.254 3.254 0 00.124-.6 7.547 7.547 0 00-.216-2.344z" fill="#37474f"/><path d="M299.355 305.854l-.139 4.208a1.666 1.666 0 001.545 1.72 26.5 26.5 0 004.241-.041 2.4 2.4 0 002.168-2.254l.167-3.107z" fill="#ffa8a7"/><path d="M326.825 303.616a3.248 3.248 0 01-.563 1.738 3.161 3.161 0 01-1.986 1.118 5.015 5.015 0 01-4.928-2.029c-.529-.766-.83-1.667-1.33-2.452a11.152 11.152 0 00-2.763-2.687 11.635 11.635 0 01-2.784-2.667 3.931 3.931 0 01-.532-3.56 2.848 2.848 0 00-.261.448 4.043 4.043 0 00.5 3.79 11.938 11.938 0 002.841 2.75 11.435 11.435 0 012.82 2.769c.511.809.818 1.739 1.358 2.528a5.089 5.089 0 005.028 2.091 3.218 3.218 0 002.026-1.152 3.915 3.915 0 00.589-2.417c-.003-.089-.011-.178-.015-.268z" fill="#455a64"/><path d="M325.549 298.335c-1.279-2.242-3.916-3.873-5.951-5.461a7.635 7.635 0 00-3.943-1.791 3.7 3.7 0 00-3.674 1.877c-.017.038-.027.079-.042.117a3.931 3.931 0 00.532 3.56 11.635 11.635 0 002.784 2.667 11.152 11.152 0 012.763 2.687c.5.785.8 1.686 1.33 2.452a5.015 5.015 0 004.928 2.029 3.161 3.161 0 001.986-1.118 3.248 3.248 0 00.563-1.738c.014-.2.018-.406.014-.607a9.883 9.883 0 00-1.29-4.674z" fill="#37474f"/><path d="M320.003 296.391v3.824a6.414 6.414 0 005.95-.263l.359-3.441z" fill="#ffa8a7"/><path d="M327.315 227.017c1.148 3.441-.263 19.787-.932 35.464 2.486 5.926 1.817 22.75.383 34.7 0 0-2.486 1.529-6.978 0l-5.64-32.979-.783-18.64s-1.416 16.537-3.041 27.148c1.53 8.125 1.147 9.654-2.628 34.647a9.429 9.429 0 01-8.46 0c-2.135-35.114-1.35-67.112-.946-78.618z" fill="#455a64"/><path d="M313.842 256.912l-.638-15.2c3.929 0 7.574-2.936 10.347-5.72a17.575 17.575 0 01-7.826 6.847z" opacity=".3"/><path d="M297.691 229.669c17.529 7.345 28.889.71 30.432-2.742-.808-12.119 2.056-26.295 1.836-32.317s-.959-12.808-10.3-11.448l-9.931.969-5.038 1.224-6.043 12.55z" fill="#feab45"/><path d="M297.691 229.669c17.529 7.345 28.889.71 30.432-2.742-.808-12.119 2.056-26.295 1.836-32.317s-.959-12.808-10.3-11.448l-9.931.969-5.038 1.224-6.043 12.55z" opacity=".2"/><path d="M297.691 229.669c17.529 7.345 28.889.71 30.432-2.742-.808-12.119 2.056-26.295 1.836-32.317s-.959-12.808-10.3-11.448l-9.931.969-5.038 1.224-6.043 12.55z" fill="#fff" opacity=".3"/><path d="M319.662 178.402a2.644 2.644 0 001.94-.656 1.91 1.91 0 00.46-1.666 1.82 1.82 0 001.335-1.083 2.075 2.075 0 00-.311-1.814 3.054 3.054 0 001.975-1.612 3.2 3.2 0 00.088-2.614 2.832 2.832 0 001.985-1.928 3.071 3.071 0 00-.564-2.83 3.811 3.811 0 00.445-3.8 4.021 4.021 0 00-3.265-2.2 3.929 3.929 0 00-1.283-3.52 3.794 3.794 0 00-3.611-.706 3.468 3.468 0 00-5.781-.992 2.641 2.641 0 00-2.339-.862 2.73 2.73 0 00-2.117 1.394 3.546 3.546 0 00-5.013 3.4 2.1 2.1 0 00-1.5 2.068 2.223 2.223 0 001.729 1.993 49.6 49.6 0 004.658 13.643c.984 1.914 2.191 3.856 4.1 4.85 2.063 1.064 5.302.449 7.069-1.065z" fill="#455a64"/><path d="M319.662 178.402a2.644 2.644 0 001.94-.656 1.91 1.91 0 00.46-1.666 1.82 1.82 0 001.335-1.083 2.075 2.075 0 00-.311-1.814 3.054 3.054 0 001.975-1.612 3.2 3.2 0 00.088-2.614 2.832 2.832 0 001.985-1.928 3.071 3.071 0 00-.564-2.83 3.811 3.811 0 00.445-3.8 4.021 4.021 0 00-3.265-2.2 3.929 3.929 0 00-1.283-3.52 3.794 3.794 0 00-3.611-.706 3.468 3.468 0 00-5.781-.992 2.641 2.641 0 00-2.339-.862 2.73 2.73 0 00-2.117 1.394 3.546 3.546 0 00-5.013 3.4 2.1 2.1 0 00-1.5 2.068 2.223 2.223 0 001.729 1.993 49.6 49.6 0 004.658 13.643c.984 1.914 2.191 3.856 4.1 4.85 2.063 1.064 5.302.449 7.069-1.065z" fill="#ba68c8"/><path d="M319.662 178.402a2.644 2.644 0 001.94-.656 1.91 1.91 0 00.46-1.666 1.82 1.82 0 001.335-1.083 2.075 2.075 0 00-.311-1.814 3.054 3.054 0 001.975-1.612 3.2 3.2 0 00.088-2.614 2.832 2.832 0 001.985-1.928 3.071 3.071 0 00-.564-2.83 3.811 3.811 0 00.445-3.8 4.021 4.021 0 00-3.265-2.2 3.929 3.929 0 00-1.283-3.52 3.794 3.794 0 00-3.611-.706 3.468 3.468 0 00-5.781-.992 2.641 2.641 0 00-2.339-.862 2.73 2.73 0 00-2.117 1.394 3.546 3.546 0 00-5.013 3.4 2.1 2.1 0 00-1.5 2.068 2.223 2.223 0 001.729 1.993 49.6 49.6 0 004.658 13.643c.984 1.914 2.191 3.856 4.1 4.85 2.063 1.064 5.302.449 7.069-1.065z" opacity=".7"/><path d="M303.126 167.189l-2.056 3.574 2.252.832z" fill="#f28f8f"/><path d="M303.834 160.963a33.313 33.313 0 00-.59 15.192 5.184 5.184 0 00.945 2.4 3.775 3.775 0 002.612 1.2 11.242 11.242 0 002.93-.283v4.652c3.531.832 7.164 1.162 9.931-.969v-4.76a12.621 12.621 0 01-6.165.385c-2.439-1.315-2.928-5.771-2.586-6.946a1.837 1.837 0 001.908.67 2.561 2.561 0 001.583-1.258 5.257 5.257 0 00.591-1.98 3.607 3.607 0 00-.362-2.452 2.567 2.567 0 00-2.762-.932 3.954 3.954 0 00-2.325 1.944 6.024 6.024 0 00-.409.891.553.553 0 01-1.071-.137 7.367 7.367 0 01.7-3.892 2.7 2.7 0 01-1.993-1.221 2.538 2.538 0 01-.385-2.235 7.514 7.514 0 01-2.552-.269zM316.181 131.391l-1.623-3.891-.821-3.693a.945.945 0 01.624-1.1.944.944 0 011.192.59l.689 2.005v-5.656l2.358 4.222a3.669 3.669 0 01.454 2.089l-.348 4.219z" fill="#ffa8a7"/><path d="M304.716 185.344c-5.586-1.849-15.533-4.852-15.533-4.852-4.464 4.5-4.087 11.769-4.087 11.769l13.554 5.644c12.931 4.097 14.818-9.665 6.066-12.561z" fill="#feab45"/><path d="M304.716 185.344c-5.586-1.849-15.533-4.852-15.533-4.852-4.464 4.5-4.087 11.769-4.087 11.769l13.554 5.644c12.931 4.097 14.818-9.665 6.066-12.561z" opacity=".3"/><path d="M304.716 185.344c-5.586-1.849-15.533-4.852-15.533-4.852-4.464 4.5-4.087 11.769-4.087 11.769l13.554 5.644c12.931 4.097 14.818-9.665 6.066-12.561z" fill="#fff" opacity=".3"/><path d="M309.826 304.973l-18.875-13.939-7.259-21.831c-.028-1.629-.065-3.281-.1-4.921a2.672 2.672 0 00-1.487-2.37 12.852 12.852 0 00-4.356-1.235 8.54 8.54 0 00-1.409-2.89 1.19 1.19 0 00-1.459-.315l-.02.01a1.183 1.183 0 00-.481 1.685 19.622 19.622 0 013.005 7.874 9.741 9.741 0 01-2.645-2.013 1.631 1.631 0 00-2.655.375l-.011.02a13.651 13.651 0 006.363 6.18l3.418 22.378a9.4 9.4 0 003.013 5.577l13.951 12.533z" fill="#ffa8a7"/><path d="M290.951 291.034l-3.552-10.682a25.533 25.533 0 00-5.052 15.484 9.4 9.4 0 002.523 3.722l13.951 12.533 11.005-7.118z" fill="#f28f8f"/><path d="M295.852 439.082a4.956 4.956 0 01-3.56 2.147 16.308 16.308 0 01-4.886-.31 32.389 32.389 0 00-7.291-.186 38.157 38.157 0 01-4.537.324 7.2 7.2 0 01-4.265-1.351 4.344 4.344 0 01-1.6-2.721 4.115 4.115 0 001.6 3.67 7.2 7.2 0 004.265 1.351 38.151 38.151 0 004.537-.324 32.391 32.391 0 017.291.186 17.2 17.2 0 005 .426 4.962 4.962 0 003.56-2.147z" fill="#263238"/><path d="M278.153 436.202c1.361 0 .861-2.013 2.155-3.362-.526.03-1.055.04-1.584.038-1.164 1.676-1.49 3.324-.571 3.324zM280.981 436.097c1.368 0 1.009-2.4 2.353-3.8a8.739 8.739 0 01-.931.269c-.268.06-.538.106-.809.146-1.2 1.696-1.545 3.385-.613 3.385z" fill="#fff"/><path d="M294.445 431.496a1.851 1.851 0 00-.707-1.108l-7.353-.183a6.309 6.309 0 01-3.052 2.092c-1.344 1.4-.985 3.8-2.353 3.8-.931 0-.586-1.689.613-3.385a16.2 16.2 0 01-1.285.128c-1.294 1.349-.794 3.362-2.155 3.362-.919 0-.593-1.648.571-3.324-.343 0-.687-.005-1.03-.01a14.244 14.244 0 01-.94-.052c-2.7 2.138-2.934 4.458-2.585 8.1a9.7 9.7 0 001.409.147 38.157 38.157 0 004.537-.324 32.389 32.389 0 017.291.186 16.308 16.308 0 004.886.31 4.956 4.956 0 003.56-2.147z" fill="#455a64"/><path d="M276.754 432.816a11.594 11.594 0 00-3.676 0 4.377 4.377 0 00-3.308 2.879 3.266 3.266 0 00-.058 1.294 4.344 4.344 0 001.6 2.721 6.346 6.346 0 002.856 1.2c-.348-3.636-.118-5.956 2.586-8.094z" fill="#fff"/><path d="M286.175 428.11v3.543a1.456 1.456 0 001.456 1.455h3.707a2.388 2.388 0 002.386-2.31l.088-2.688z" fill="#ffa8a7"/><path d="M310.681 426.535a2.724 2.724 0 01-2.231 1.561 4.687 4.687 0 01-2.822-.694c-1.276-.809-1.773-2.084-2.643-3.232a19.367 19.367 0 00-3.074-3 10.142 10.142 0 01-2.938-3.406 4.527 4.527 0 01-.348-1.249 4.431 4.431 0 00.348 2.4 10.142 10.142 0 002.938 3.406 19.366 19.366 0 013.074 3c.87 1.148 1.367 2.423 2.643 3.232a4.687 4.687 0 002.822.694 2.724 2.724 0 002.231-1.565 6.138 6.138 0 00.134-1.975 2.456 2.456 0 01-.134.828z" fill="#263238"/><path d="M302.323 418.76a.917.917 0 00-.179.606.63.63 0 00.4.457.881.881 0 00.827-.214 4.314 4.314 0 00.573-.682 4.27 4.27 0 013.023-1.63l-.92-.839a4.53 4.53 0 00-3.725 2.3z" fill="#fff"/><path d="M302.519 415.838a4.639 4.639 0 00-2.05 1.89.911.911 0 00-.179.606.627.627 0 00.4.457.882.882 0 00.827-.214 4.312 4.312 0 00.573-.682 4.274 4.274 0 013.75-1.626l-.909-.829a4.631 4.631 0 00-2.412.398z" fill="#fff"/><path d="M304.352 414.917a9.6 9.6 0 00-2.886-1.928 3.834 3.834 0 00-3.967.548 3.431 3.431 0 00-.879 2.975 4.527 4.527 0 00.348 1.249 6.507 6.507 0 00.911 1.445c.353-3.167 3.102-4.649 6.473-4.289z" fill="#fff"/><path d="M310.75 423.429a6.609 6.609 0 00-.72-3.1l-1.787-1.875-1.275-1.162a4.27 4.27 0 00-3.023 1.63 4.314 4.314 0 01-.573.682.881.881 0 01-.827.214.63.63 0 01-.4-.457.917.917 0 01.179-.606 4.53 4.53 0 013.725-2.3l-.207-.189a4.274 4.274 0 00-3.75 1.626 4.312 4.312 0 01-.573.682.882.882 0 01-.827.214.627.627 0 01-.4-.457.911.911 0 01.179-.606 4.566 4.566 0 014.463-2.288l-.033-.03c-.181-.165-.363-.33-.547-.493-3.371-.36-6.12 1.122-6.473 4.289a15.224 15.224 0 002.027 1.961 19.367 19.367 0 013.074 3c.87 1.148 1.367 2.423 2.643 3.232a4.687 4.687 0 002.822.694 2.724 2.724 0 002.231-1.561 2.456 2.456 0 00.134-.827 22.4 22.4 0 00-.062-2.273z" fill="#455a64"/><path d="M304.298 417.83l.211 3.8a5.064 5.064 0 005.762-.248l.158-3.556z" fill="#ffa8a7"/><path d="M309.381 336.258a3.574 3.574 0 01-.361-.6 34.575 34.575 0 01-24.738 2.812c-1.753 13.042-3.259 35.127-2.334 49.7.769 16.961 3.89 40.977 3.89 40.977 4.07 1.221 7.123.475 8.277-.407 1.357-16.825 4.342-28.358 2.035-39.484 1.538-7.78 2.533-17.549 2.533-17.549l1.176 17.187 3.98 30.213a7.136 7.136 0 007.146-.362c2.894-17.278 3.98-28.985 1.447-37.559 3.87-28.351 4.067-35.604-3.051-44.928z" fill="#052b5d"/><path d="M309.381 336.258a3.574 3.574 0 01-.361-.6 34.575 34.575 0 01-24.738 2.812c-1.753 13.042-3.259 35.127-2.334 49.7.769 16.961 3.89 40.977 3.89 40.977 4.07 1.221 7.123.475 8.277-.407 1.357-16.825 4.342-28.358 2.035-39.484 1.538-7.78 2.533-17.549 2.533-17.549l1.176 17.187 3.98 30.213a7.136 7.136 0 007.146-.362c2.894-17.278 3.98-28.985 1.447-37.559 3.87-28.351 4.067-35.604-3.051-44.928z" opacity=".4"/><path d="M309.381 336.258a3.574 3.574 0 01-.361-.6 34.575 34.575 0 01-24.738 2.812c-1.753 13.042-3.259 35.127-2.334 49.7.769 16.961 3.89 40.977 3.89 40.977 4.07 1.221 7.123.475 8.277-.407 1.357-16.825 4.342-28.358 2.035-39.484 1.538-7.78 2.533-17.549 2.533-17.549l1.176 17.187 3.98 30.213a7.136 7.136 0 007.146-.362c2.894-17.278 3.98-28.985 1.447-37.559 3.87-28.351 4.067-35.604-3.051-44.928z" fill="#fff" opacity=".1"/><path d="M300.4 368.311l2.132-8.95a12.55 12.55 0 008.421-5.448 17.123 17.123 0 01-10.32 3.639l-1.945 14.156.414 6.05.167-2.2a46.325 46.325 0 011.131-7.247z" opacity=".2"/><path d="M293.963 305.536l-6.22 1.224c-1.375 2.516-2.777 4.879-4.151 7.4-1.036 1.895-2.1 3.91-2.023 6.068a6.177 6.177 0 003.726 5.36l-2.969 21.287c11.529 7.043 30.212 2.085 31.931-4.156-1.669-4.3-3.437-5.864-4.523-10.946-.8-3.732 1.075-8.988 1.4-10.495a36.817 36.817 0 001.053-7.01 12.35 12.35 0 00-1.642-6.8l-.038-.06a7.61 7.61 0 00-7.636-3.278z" fill="#17a6af"/><path d="M301.873 300.558a6.287 6.287 0 003.761-3.923c.571-1.871.169-3.867.716-5.74.271-.928.757-1.706.971-2.667a10.166 10.166 0 00.245-3.128c-.3-3.389-2.783-6.412-5.976-7.99a22.063 22.063 0 00-11.937-1.753 7.526 7.526 0 00-4.373 2.012 3.13 3.13 0 00.2 4.351 3.409 3.409 0 00-1.41 2.395 2.91 2.91 0 001.99 2.775c1.163 11.132 6.241 13.375 8.887 14.335s4.493 1.676 6.926-.667z" fill="#263238"/><path d="M285.403 290.628l-1.921 3.339 2.1.777z" fill="#ffa8a7"/><path d="M285.181 289.14c.308-2.929 1.166-5.691 3.073-7.091-.317 1.838.037 4.446 1.891 5.848a8.8 8.8 0 00.3 4.632 4.586 4.586 0 011.419-2.511 2.645 2.645 0 012.729-.582 2.689 2.689 0 011.372 1.5 3.556 3.556 0 01-4.446 4.7 6.834 6.834 0 005.252 5.32 8.776 8.776 0 005.092-.391l.794 3.854c-3.214 3.428-8.7 1.124-8.7 1.124l-.723-3.883c-6.32.375-6.91.268-7.606-3.214a34.1 34.1 0 01-.447-9.306z" fill="#ffa8a7"/><path d="M304.858 283.082l-.624-2.442a1.044 1.044 0 00-1.24-.387 1.409 1.409 0 00-.785 1.058 2.534 2.534 0 00.177 1.346 2.335 2.335 0 00.622.956 1.23 1.23 0 001.069.293c.373-.09.815-.436.781-.824z" fill="#17a6af"/><path d="M304.369 283.167a4.536 4.536 0 014.758 2.375 8.058 8.058 0 01.571 5.558c-.588 2.8-2.047 5.328-3.3 7.9s-2.343 5.366-2.1 8.218c.323 3.75 3.329 6.7 6.967 7.668a3.933 3.933 0 01-1.446-3.049 6.154 6.154 0 004.205 2.627 5.9 5.9 0 004.651-1.378 5.6 5.6 0 01-4-1.557 4.787 4.787 0 002.937-.408c-3.045-1.716-4.068-5.7-3.692-9.179s1.819-6.744 2.472-10.177.334-7.4-2.214-9.794a9.019 9.019 0 00-7.638-1.918 14.929 14.929 0 00-2.578.684c-1.273.321-.515 2.613.407 2.43z" fill="#263238"/><path d="M247.42 295.708l9.224 26.731 19.071-10.582-9.122-26.436z" fill="#feab45"/><path d="M247.42 295.708l9.224 26.731 19.071-10.582-9.122-26.436z" opacity=".3"/><path d="M247.42 295.708l9.224 26.731 19.071-10.582-9.122-26.436z" fill="#fff" opacity=".2"/><path d="M272.881 310.772l-7.595-22.013-15.026 8.061 7.676 22.244z" fill="#fff"/><path d="M262.639 290.393l-8.349 4.38-.363-1.113 1.621-1.428 4.574-2.3 2.081-.387z" fill="#455a64"/><path d="M260.122 289.933l-.361-.847-4.466 2.4.253.75z" fill="#37474f"/><path d="M262.354 287.696l-10.1 5.416-.437-1.049 10.188-5.348z" fill="#455a64"/><path d="M259.623 287.967c-.88-2.777-6.157-.163-5.128 2.693z" fill="#37474f"/><path d="M283.481 309.221l-13.438 17.206-12.234-12.034a4.287 4.287 0 01-1.24-2.509c-.584-4.567-1.85-7.824-3.475-7.252-1.02.36.287 4.807.287 4.807l-1.524-.872-1.779-5.154h-.8a2.033 2.033 0 00-1.921 1.366l-.763 2.2a6.467 6.467 0 002.264 7.319l2.685 1.986a4.278 4.278 0 011.024 1.085 134.1 134.1 0 0014.349 18.341 3.651 3.651 0 004.628.475c5.2-3.435 15.787-13.362 21.226-20.283a5.727 5.727 0 00-1.559-8.456 5.724 5.724 0 00-7.73 1.775z" fill="#ffa8a7"/><path d="M191.631 161.146c2.921-1.687 5.294-.334 5.3 3.023l.176 62.27a11.615 11.615 0 01-5.269 9.127l-74.7 43.129c-2.922 1.686-5.295.329-5.3-3.023l-.177-62.27a11.608 11.608 0 015.27-9.127z" fill="#ba68c8"/><path d="M191.631 161.146c2.921-1.687 5.294-.334 5.3 3.023l.176 62.27a11.615 11.615 0 01-5.269 9.127l-74.7 43.129c-2.922 1.686-5.295.329-5.3-3.023l-.177-62.27a11.608 11.608 0 015.27-9.127z" fill="#fff" opacity=".8"/><path d="M192.189 165.243a.344.344 0 01.426 0c.176.172.125.579-.107.916l-37.232 53.246 37.411 10.15c.234.063.287.415.112.785a1.1 1.1 0 01-.423.49.447.447 0 01-.314.067l-37.674-10.224-37.493 53.622a1.057 1.057 0 01-.314.3.346.346 0 01-.429 0c-.172-.169-.126-.579.112-.913l37.232-53.246-37.415-10.154c-.238-.065-.287-.415-.117-.787a1.142 1.142 0 01.429-.494.41.41 0 01.313-.06l37.675 10.224 37.5-53.621a.992.992 0 01.308-.301z" fill="#fff"/><path d="M193.236 205.836l3.84 8.145-6.818 20.679-15.051 9.769 5.384 12.738 15.375-15.022a11.49 11.49 0 003.361-6.705l2.893-21.737-3.289-12.294-1.9-1.819.057 7.793-1.918-2.684a1.128 1.128 0 00-1.554-.276 1.129 1.129 0 00-.38 1.413z" fill="#ab6060"/><path d="M174.416 242.356l12.291-6.188c7.2 1.822 7.384 9.426 7.384 9.426l-12.71 11.573z" fill="#37474f"/><path d="M161.445 382.803a4.373 4.373 0 01-3.944 2.653 19.527 19.527 0 01-4.987-.638c-3.706-.671-7.279-.005-10.974-.092a15.592 15.592 0 01-3.609-.393 5.955 5.955 0 01-3.086-1.818 4.022 4.022 0 01-.889-1.934 3.81 3.81 0 00.889 3.018 5.955 5.955 0 003.086 1.818 15.6 15.6 0 003.609.392c3.695.087 7.268-.578 10.974.093a19.571 19.571 0 004.987.638 4.374 4.374 0 003.944-2.654 4.228 4.228 0 00.129-1.707 3.459 3.459 0 01-.129.624z" fill="#263238"/><path d="M161.35 379.732l-.682-3.367a4.992 4.992 0 00-.57-1.713 1.7 1.7 0 00-1.5-.857c-2.029-.27-4.882-1-6.569.156a15.136 15.136 0 01-9.075 2.636 31.641 31.641 0 00-5.02-.2 4.492 4.492 0 00-3.893 2.735 3.241 3.241 0 00-.086 1.462 4.022 4.022 0 00.889 1.934 5.955 5.955 0 003.086 1.818 15.592 15.592 0 003.609.393c3.695.087 7.268-.579 10.974.092a19.527 19.527 0 004.987.638 4.373 4.373 0 003.944-2.653 3.459 3.459 0 00.129-.624 7.852 7.852 0 00-.223-2.45z" fill="#feab45"/><path d="M151.539 370.425l-.145 4.386a1.736 1.736 0 001.611 1.793 27.453 27.453 0 004.42-.043 2.5 2.5 0 002.26-2.349l.174-3.239z" fill="#ffa8a7"/><path d="M151.539 370.425l-.145 4.386a1.736 1.736 0 001.611 1.793 27.453 27.453 0 004.42-.043 2.5 2.5 0 002.26-2.349l.174-3.239z" opacity=".4"/><path d="M180.175 368.092a3.389 3.389 0 01-.587 1.811 3.3 3.3 0 01-2.07 1.165 5.223 5.223 0 01-5.137-2.114c-.552-.8-.866-1.738-1.388-2.556a11.606 11.606 0 00-2.88-2.8 12.145 12.145 0 01-2.9-2.781 4.1 4.1 0 01-.555-3.71 2.982 2.982 0 00-.271.466 4.213 4.213 0 00.52 3.951 12.414 12.414 0 002.962 2.866 11.934 11.934 0 012.939 2.888c.532.843.852 1.812 1.415 2.635a5.308 5.308 0 005.242 2.18 3.359 3.359 0 002.112-1.2 4.082 4.082 0 00.614-2.52c-.004-.091-.01-.191-.016-.281z" fill="#263238"/><path d="M178.844 362.582c-1.333-2.337-4.082-4.037-6.2-5.692a7.962 7.962 0 00-4.111-1.867 3.854 3.854 0 00-3.829 1.957c-.019.039-.028.081-.045.122a4.1 4.1 0 00.555 3.71 12.145 12.145 0 002.9 2.781 11.606 11.606 0 012.88 2.8c.522.818.836 1.757 1.388 2.556a5.223 5.223 0 005.137 2.114 3.3 3.3 0 002.07-1.165 3.389 3.389 0 00.587-1.811c.014-.212.018-.424.014-.633a10.3 10.3 0 00-1.346-4.872z" fill="#feab45"/><path d="M173.063 360.56v3.986a6.687 6.687 0 006.2-.274l.373-3.587z" fill="#ffa8a7"/><path d="M173.063 360.56v3.986a6.687 6.687 0 006.2-.274l.373-3.587z" opacity=".4"/><path d="M180.686 288.24c1.2 3.588.827 22.393.129 38.735 1.14 7.954 1.1 25.186-.393 37.642a12.71 12.71 0 01-9.939.2l-3.524-37.812-.816-19.431s-1.476 17.239-3.17 28.3c.614 8.119-.727 23.644-1.922 40.2 0 0-6.4 3.733-12.746-.354-2.226-36.605 1.387-73.678 2.123-85.682z" fill="#37474f"/><path d="M166.64 319.405l-.665-15.847c4.1 0 7.9-3.062 10.786-5.964a18.318 18.318 0 01-8.158 7.138z" opacity=".3"/><path d="M149.803 259.97v31.035c18.274 7.657 30.117.74 31.724-2.858-.842-12.634 2.144-27.411 1.915-33.69s-1-13.351-10.735-11.933l-10.352 1.01-5.252 1.276z" fill="#455a64"/><path d="M140.103 258.282l-3.487 3.63-19.444-7.669a40.219 40.219 0 00-.365-5.32c-.114-.556-.422-1.038-.988-1.038-.382 0-.925.62-.989 1.627-.013.192-.038 1.3-.068 1.631a.762.762 0 01-1.337.43 8.606 8.606 0 01-1.069-1.4l-.3-.859a12.512 12.512 0 01-.306-2.757s-2.493.7-3.027 4.126a12.24 12.24 0 00-.157 4.3c.6 2.042 2.388 2.922 5.467 3.928 6.143 4.281 14.718 9.293 19.334 11.928a6.023 6.023 0 006.336-.227l7.377-4.93z" fill="#ab6060"/><path d="M134.481 266.369a10.447 10.447 0 012.138-4.455l-1.666-.656c-1.097.938-1.426 3.409-.472 5.111z" fill="#873e3e"/><path d="M139.243 258.308l9.813-9.654a13.8 13.8 0 018.068-3.868l.176-.021c4.156 9.1-1.338 13.543-1.338 13.543l-9.124 8.383a16.479 16.479 0 01-7.595-8.383z" fill="#37474f"/><path d="M172.194 236.845a18.947 18.947 0 006.168-11.588 6.438 6.438 0 00-.4-3.636c-.553-1.106-1.966-2.268-3.167-1.974a5.2 5.2 0 00-2.085-3.913 7.07 7.07 0 00-3.677-.778c-1.268.02-2.531.207-3.8.21-2.006 0-6.552-.567-8.35-1.455a5.572 5.572 0 001.009 3.248c-1.3-.241-2.468-1.381-3.506-2.2a6.684 6.684 0 002.081 4.592c-1.759-.168-2.085 2.872.921 2.872 1.323 13.191 10.441 18.316 14.806 14.622z" fill="#263238"/><path d="M156.204 227.536l-1.635 2.846 1.618.6a33.433 33.433 0 01.017-3.446z" fill="#873e3e"/><path d="M157.39 222.219a22.976 22.976 0 00-1.186 5.317 33.433 33.433 0 00-.017 3.439 32.854 32.854 0 00.561 4.8 5.2 5.2 0 00.947 2.409 3.783 3.783 0 002.617 1.2 11.287 11.287 0 002.936-.283v4.66c3.537.835 6.468 1.2 9.241-.931l-.295-5.995a8.653 8.653 0 01-4.979-.786c-2.444-1.318-3.128-3.424-2.784-4.6a1.838 1.838 0 001.911.672 2.573 2.573 0 001.586-1.26 5.284 5.284 0 00.592-1.984 3.618 3.618 0 00-.363-2.458 2.57 2.57 0 00-2.767-.933 3.961 3.961 0 00-2.33 1.948 6.144 6.144 0 00-.41.892.553.553 0 01-1.072-.137 7.369 7.369 0 01.7-3.9 2.914 2.914 0 01-1.306.3 1.647 1.647 0 01-1.251-.583 1.117 1.117 0 01-.049-1.324 2.8 2.8 0 01-2.282-.463z" fill="#ab6060"/><path d="M190.258 234.66a4.029 4.029 0 013.833 2.562c-.157-4.448-2.821-3.733-3.563-3.383z" fill="#873e3e"/></svg>