<svg xmlns="http://www.w3.org/2000/svg" width="461.963" height="472.963" viewBox="0 0 461.963 472.963"><g transform="translate(-19.019 -12.618)"><path d="M412.791,257.181c-90.5-52.247-236.74-52.247-326.647,0S-3.293,394.145,87.2,446.393s236.746,52.25,326.659,0S503.293,309.433,412.791,257.181Z" fill="#f5f5f5"/><path d="M117.375,430.14c-5.364-3.1-14.031-3.1-19.359,0s-5.3,8.117.063,11.214,14.03,3.1,19.359,0S122.738,433.237,117.375,430.14Z" fill="#e0e0e0"/><path d="M304.921,243.478l-13.579-7.827a13.729,13.729,0,0,0-13.724.006l-75.333,43.658-6.646-3.826-54.533,31.906,6.295,3.626L58.227,362.505a4.577,4.577,0,0,0,0,7.927l13.723,7.922a13.724,13.724,0,0,0,13.737-.005l89.121-51.542,10.415,6a27.457,27.457,0,0,0,27.433-.014l32.036-18.5a6.1,6.1,0,0,0-.007-10.572l-15.017-8.645,12.648-7.34,4.384-2.545,58.227-33.79A4.576,4.576,0,0,0,304.921,243.478Z" fill="#e0e0e0"/><path d="M206.03,374.562c-15.652-9.037-40.947-9.037-56.5,0s-15.47,23.689.183,32.726,40.948,9.037,56.5,0S221.684,383.6,206.03,374.562Z" fill="#e0e0e0"/><path d="M338.08,430.087c-14.184-8.189-37.1-8.188-51.2,0s-14.018,21.466.166,29.655,37.105,8.189,51.2,0S352.264,438.277,338.08,430.087Z" fill="#e0e0e0"/><path d="M355.057,309.976c-14.619-8.44-38.242-8.44-52.766,0s-14.447,22.124.172,30.564,38.242,8.441,52.766,0S369.676,318.416,355.057,309.976Z" fill="#e0e0e0"/><path d="M422.686,303.631c-5.735-3.311-15-3.311-20.7,0s-5.668,8.68.067,11.991,15,3.311,20.7,0S428.421,306.942,422.686,303.631Z" fill="#e0e0e0"/><g style="isolation:isolate"><path d="M116.964,73.415l-2.987-1.736.175,106.525,2.987,1.736Z" fill="#f0f0f0"/><path d="M117.139,179.941l-2.987-1.736L79.767,197.943l2.987,1.736Z" fill="#f5f5f5"/><path d="M120.586,181.906,79.328,205.612l-.2-114.423,41.258-23.706ZM82.753,199.679l34.386-19.738-.175-106.525L82.578,93.153l.175,106.526" fill="#e0e0e0"/><path d="M120.389,67.483,117.4,65.747,76.144,89.453l2.987,1.736Z" fill="#f5f5f5"/><path d="M79.131,91.189l-2.987-1.736.2,114.423,2.987,1.736Z" fill="#f0f0f0"/></g><path d="M117.132,106.593l-2.987-1.736L82.578,123.014v3.454Z" fill="#f5f5f5"/><path d="M117.133,106.593h0L82.578,126.468v3.945l34.561-19.857Z" fill="#e0e0e0"/><path d="M82.578,126.468l34.554-19.875h0L82.578,126.468Z" fill="#e0e0e0"/><g style="isolation:isolate"><path d="M79.131,95.157l-2.987-1.736.175,106.526,2.987,1.736Z" fill="#f0f0f0"/><path d="M79.306,201.682l-2.987-1.736L41.934,219.684l2.987,1.736Z" fill="#f5f5f5"/><path d="M82.753,203.647,41.495,227.353,41.3,112.93,82.556,89.224ZM44.921,221.42l34.385-19.738L79.131,95.157,44.745,114.895l.176,106.525" fill="#e0e0e0"/><path d="M82.556,89.224l-2.987-1.736L38.311,111.194,41.3,112.93Z" fill="#f5f5f5"/><path d="M41.3,112.93l-2.987-1.736.2,114.423,2.987,1.736Z" fill="#f0f0f0"/></g><path d="M79.3,128.334,76.313,126.6,44.745,144.755v3.454Z" fill="#f5f5f5"/><path d="M79.3,128.334h0L44.745,148.209v3.945L79.306,132.3Z" fill="#e0e0e0"/><path d="M44.745,148.209,79.3,128.334h0L44.745,148.209Z" fill="#e0e0e0"/><g style="isolation:isolate"><path d="M209.214,20.286l-2.987-1.736.175,106.525,2.987,1.736Z" fill="#f0f0f0"/><path d="M209.389,126.812l-2.987-1.736-34.386,19.738L175,146.55Z" fill="#f5f5f5"/><path d="M212.836,128.776l-41.258,23.706-.2-114.422,41.258-23.706ZM175,146.55l34.386-19.738-.175-106.526L174.828,40.024,175,146.55" fill="#e0e0e0"/><path d="M212.639,14.354l-2.987-1.736L168.394,36.324l2.987,1.736Z" fill="#f5f5f5"/><path d="M171.381,38.06l-2.987-1.736.2,114.423,2.987,1.736Z" fill="#f0f0f0"/></g><path d="M209.382,53.464,206.4,51.728,174.828,69.885v3.454Z" fill="#f5f5f5"/><path d="M209.383,53.464h0L174.828,73.339v3.945l34.561-19.857Z" fill="#e0e0e0"/><path d="M174.828,73.339l34.554-19.875h0L174.828,73.339Z" fill="#e0e0e0"/><g style="isolation:isolate"><path d="M171.381,42.028l-2.987-1.736.175,106.526,2.987,1.736Z" fill="#f0f0f0"/><path d="M171.556,148.553l-2.987-1.736-34.385,19.738,2.987,1.736Z" fill="#f5f5f5"/><path d="M175,150.518l-41.258,23.706-.2-114.423L174.806,36.1ZM137.17,168.291l34.386-19.738-.175-106.525L136.995,61.765l.175,106.526" fill="#e0e0e0"/><path d="M174.806,36.095l-2.987-1.736L130.561,58.065l2.987,1.736Z" fill="#f5f5f5"/><path d="M133.548,59.8l-2.987-1.736.2,114.423,2.987,1.736Z" fill="#f0f0f0"/></g><path d="M171.549,75.205l-2.987-1.736L137,91.626V95.08Z" fill="#f5f5f5"/><path d="M171.55,75.205h0L137,95.08v3.945l34.561-19.857Z" fill="#e0e0e0"/><path d="M137,95.08,171.55,75.205h0L137,95.08Z" fill="#e0e0e0"/><path d="M393.1,134.01l32.688,18.872-.071,24.983-32.688-18.872Z" fill="none"/><path d="M393.1,134.01l-.071,24.983L390,160.752l.081-28.485Z" fill="#f0f0f0"/><path d="M425.713,177.865l-.01,3.5L390,160.752l3.028-1.76Z" fill="#f5f5f5"/><path d="M386.327,162.844l43.023,24.84.1-36.888-43.024-24.839Zm3.67-2.092.081-28.485,3.018,1.743,32.688,18.872-.071,24.983-.01,3.5Z" fill="#e0e0e0"/><path d="M386.431,125.957l3.028-1.76,43.023,24.84-3.028,1.759Z" fill="#f5f5f5"/><path d="M432.482,149.037l-.1,36.887-3.028,1.76.1-36.887Z" fill="#f0f0f0"/><g style="isolation:isolate"><path d="M403.482,143.5l-8.914,7.019-.02,6.857L424.2,174.49l.02-6.857-5.651-11.223-5.073,3.939,1.794,5.574-2.6-4.949Z" fill="#e0e0e0"/><path d="M413.221,146.951c-1.4-.805-2.531-.158-2.535,1.445a5.551,5.551,0,0,0,2.518,4.363c1.4.806,2.531.159,2.536-1.445A5.554,5.554,0,0,0,413.221,146.951Z" fill="#e0e0e0"/></g><path d="M393.1,78.071l32.688,18.872-.071,24.983-32.688-18.872Z" fill="none"/><path d="M393.1,78.071l-.071,24.983L390,104.813l.081-28.485Z" fill="#f0f0f0"/><path d="M425.713,121.926l-.01,3.5L390,104.813l3.028-1.759Z" fill="#f5f5f5"/><path d="M386.327,106.9l43.023,24.839.1-36.887-43.023-24.84Zm3.67-2.092.081-28.485L393.1,78.07l32.688,18.873-.071,24.983-.01,3.5Z" fill="#e0e0e0"/><path d="M386.431,70.018l3.028-1.759L432.482,93.1l-3.028,1.76Z" fill="#f5f5f5"/><path d="M432.482,93.1l-.1,36.887-3.028,1.76.1-36.887Z" fill="#f0f0f0"/><g style="isolation:isolate"><path d="M403.482,87.556l-8.915,7.019-.02,6.857L424.2,118.55l.019-6.857-5.651-11.223-5.073,3.939,1.794,5.574-2.6-4.949Z" fill="#e0e0e0"/><path d="M413.221,91.012c-1.4-.805-2.531-.158-2.536,1.445A5.557,5.557,0,0,0,413.2,96.82c1.4.806,2.531.158,2.536-1.445A5.555,5.555,0,0,0,413.221,91.012Z" fill="#e0e0e0"/></g><path d="M233.589,305.986,207.47,320.93a24.762,24.762,0,0,1-24.661-.038l-19.38-11.17a7.428,7.428,0,0,1-3.719-6.426l-.019-13.221-4.042,2.337V303.9a8.665,8.665,0,0,0,4.339,7.508L183,324.674a24.376,24.376,0,0,0,24.281.038l26.309-15.053a9.847,9.847,0,0,0,4.8-10.434A9.759,9.759,0,0,1,233.589,305.986Z" fill="#feab45"/><path d="M233.589,305.986,207.47,320.93a24.762,24.762,0,0,1-24.661-.038l-19.38-11.17a7.428,7.428,0,0,1-3.719-6.426l-.019-13.221-4.042,2.337V303.9a8.665,8.665,0,0,0,4.339,7.508L183,324.674a24.376,24.376,0,0,0,24.281.038l26.309-15.053a9.847,9.847,0,0,0,4.8-10.434A9.759,9.759,0,0,1,233.589,305.986Z" opacity="0.1"/><path d="M163.429,309.722l19.38,11.17a24.762,24.762,0,0,0,24.661.038l26.119-14.944a9.759,9.759,0,0,0,4.8-6.761,9.749,9.749,0,0,0-4.622-6.656l-21.428-12.853a8.669,8.669,0,0,1-4.209-7.432V262.075l-48.437,28,.019,13.221A7.428,7.428,0,0,0,163.429,309.722Z" fill="#feab45"/><path d="M163.429,309.722a7.428,7.428,0,0,1-3.719-6.426l-.019-13.221-4.042,2.337V303.9a8.665,8.665,0,0,0,4.339,7.508l8.163,4.705v-3.673Z" opacity="0.4"/><path d="M163.429,309.722l4.722,2.722h0l50.568-28.9-6.382-3.827a8.669,8.669,0,0,1-4.209-7.432V262.075l-48.437,28,.019,13.221A7.428,7.428,0,0,0,163.429,309.722Z" opacity="0.3"/><path d="M77.818,342.633v-.007c-.018-.009-.038-.016-.056-.026Z" fill="#ffa8a7"/><path d="M75.52,337.8l-.372-165.653a16.288,16.288,0,0,1,7.39-12.8L288.448,40.773c2.034-1.174,3.88-1.293,5.224-.54l-7.753-4.493v.007c-1.357-.861-3.268-.789-5.387.434L74.624,154.76a16.286,16.286,0,0,0-7.39,12.8l.372,165.654c.006,2.218.756,3.8,1.971,4.621h0l.008.005a3.489,3.489,0,0,0,.415.239l7.646,4.454C76.338,341.749,75.527,340.118,75.52,337.8Z" fill="#feab45"/><path d="M285.919,35.74v.007c-1.357-.861-3.268-.789-5.387.434L74.624,154.76a15.526,15.526,0,0,0-5.663,6.311l7.922,4.579a15.514,15.514,0,0,1,5.655-6.3L288.448,40.773c2.034-1.174,3.88-1.293,5.224-.54Z" fill="#fff" opacity="0.3"/><path d="M67.234,167.56l.372,165.654c.006,2.218.756,3.8,1.971,4.621h0l.008.005a3.489,3.489,0,0,0,.415.239l7.646,4.454c-1.308-.784-2.119-2.415-2.126-4.728l-.372-165.653a14.552,14.552,0,0,1,1.735-6.5l-7.922-4.579A14.54,14.54,0,0,0,67.234,167.56Z" opacity="0.2"/><path d="M293.76,40.284l-.038-.023.035.025Z" fill="#ffa8a7"/><path d="M295.886,45.012c-.006-2.313-.82-3.943-2.129-4.726l-.035-.025-.05-.028c-1.344-.753-3.19-.634-5.224.54L82.538,159.351a16.288,16.288,0,0,0-7.39,12.8L75.52,337.8c.007,2.313.818,3.944,2.126,4.728.039.023.077.046.116.067.018.01.038.017.056.026,1.336.7,3.145.57,5.141-.581L288.868,223.466a16.3,16.3,0,0,0,7.391-12.8ZM285.21,217.13,82.825,333.673l-.36-161.542a9.207,9.207,0,0,1,3.731-6.443L288.581,49.145l.361,161.541A9.21,9.21,0,0,1,285.21,217.13Z" fill="#feab45"/><path d="M288.581,49.145l-5.238,3.021.349,155.964a9.21,9.21,0,0,1-3.732,6.443L82.813,328.1l.012,5.578L285.21,217.13a9.21,9.21,0,0,0,3.732-6.444Z" fill="#feab45"/><path d="M288.581,49.145l-5.238,3.021.349,155.964a9.21,9.21,0,0,1-3.732,6.443L82.813,328.1l.012,5.578L285.21,217.13a9.21,9.21,0,0,0,3.732-6.444Z" opacity="0.3"/><path d="M283.692,208.13l-.349-155.964L86.2,165.688a9.207,9.207,0,0,0-3.731,6.443L82.813,328.1,279.96,214.573A9.21,9.21,0,0,0,283.692,208.13Z" fill="#455a64"/><path d="M106.72,346.177l-.352-156.571a15.4,15.4,0,0,1,6.985-12.1L307.974,65.429c1.923-1.11,3.668-1.222,4.938-.51l-7.328-4.247v.006c-1.283-.813-3.089-.745-5.091.411L105.872,173.167a15.4,15.4,0,0,0-6.985,12.1l.352,156.571c.007,2.1.715,3.6,1.864,4.369h0l.008.005a3.464,3.464,0,0,0,.392.226l7.227,4.209C107.493,349.9,106.726,348.364,106.72,346.177Z" fill="#feab45"/><path d="M305.584,60.672v.006c-1.283-.813-3.089-.745-5.091.411L105.872,173.167a14.676,14.676,0,0,0-5.351,5.965l7.487,4.328a14.669,14.669,0,0,1,5.345-5.953L307.974,65.429c1.923-1.11,3.668-1.222,4.938-.51Z" fill="#fff" opacity="0.1"/><path d="M98.887,185.266l.352,156.571c.007,2.1.715,3.6,1.864,4.369h0l.008.005a3.464,3.464,0,0,0,.392.226l7.227,4.209c-1.236-.741-2-2.282-2.009-4.469l-.352-156.571a13.755,13.755,0,0,1,1.64-6.146l-7.487-4.328A13.766,13.766,0,0,0,98.887,185.266Z" fill="#fff" opacity="0.3"/><path d="M106.388,198.682l.332,147.495c.006,2.187.773,3.728,2.009,4.469l.11.064c.017.009.036.015.053.024,1.263.664,2.973.539,4.859-.55L308.372,238.107a15.41,15.41,0,0,0,6.985-12.1l-.332-147.741Z" fill="#feab45"/><path d="M106.388,198.682l.332,147.495c.006,2.187.773,3.728,2.009,4.469l.11.064c.017.009.036.015.053.024,1.263.664,2.973.539,4.859-.55L308.372,238.107a15.41,15.41,0,0,0,6.985-12.1l-.332-147.741Z" fill="#fff" opacity="0.5"/><path d="M306.952,88.084c1.8-1.04,3.275-.207,3.281,1.87a7.187,7.187,0,0,1-3.26,5.646L140.144,192.04c-1.8,1.041-3.276.207-3.281-1.87a7.186,7.186,0,0,1,3.259-5.646Z" fill="#ba68c8"/><g opacity="0.8"><path d="M306.952,88.084c1.8-1.04,3.275-.207,3.281,1.87a7.187,7.187,0,0,1-3.26,5.646L140.144,192.04c-1.8,1.041-3.276.207-3.281-1.87a7.186,7.186,0,0,1,3.259-5.646Z" fill="#fff"/></g><path d="M115.616,200.368a.241.241,0,0,1,.221-.029c.134.063.145.3.021.523L114.8,202.8l3.558-2.054c.181-.1.329-.02.33.188a.725.725,0,0,1-.328.568l-3.558,2.054,1.062.716c.125.082.115.328-.018.545a.666.666,0,0,1-.22.227.223.223,0,0,1-.243.018L113.817,204a.208.208,0,0,1-.063-.082.333.333,0,0,1-.024-.124.565.565,0,0,1,.019-.138.734.734,0,0,1,.063-.157l1.562-2.874A.678.678,0,0,1,115.616,200.368Z" fill="#ba68c8"/><path d="M124.6,195.182a.229.229,0,0,1,.243-.019l1.569,1.057a.273.273,0,0,1,.064.081.4.4,0,0,1,.022.126.618.618,0,0,1-.019.138.849.849,0,0,1-.061.155l-1.563,2.875a.674.674,0,0,1-.242.262.245.245,0,0,1-.223.029c-.132-.064-.142-.3-.021-.523l1.056-1.938-3.557,2.054c-.182.1-.33.02-.33-.188a.722.722,0,0,1,.327-.568l3.558-2.054-1.063-.715c-.123-.083-.114-.329.018-.546A.658.658,0,0,1,124.6,195.182Z" fill="#ba68c8"/><path d="M131.171,191.386a1.7,1.7,0,0,1,1.092-.263.724.724,0,0,1,.323-.513l.015-.009c.181-.1.322,0,.314.211l-.027.841a.724.724,0,0,1-.314.542l-.717.45-.014.008c-.175.1-.319.028-.328-.171a.72.72,0,0,1,.249-.527,1.283,1.283,0,0,0-.591.187,3.03,3.03,0,0,0-1.375,2.379c0,.874.624,1.225,1.384.786a3.024,3.024,0,0,0,1.209-1.526.718.718,0,0,1,.288-.364.283.283,0,0,1,.157-.044c.16.007.219.2.133.435a4.449,4.449,0,0,1-1.785,2.255c-1.123.648-2.038.124-2.042-1.163A4.48,4.48,0,0,1,131.171,191.386Z" fill="#ba68c8"/><g opacity="0.7"><path d="M115.616,200.368a.241.241,0,0,1,.221-.029c.134.063.145.3.021.523L114.8,202.8l3.558-2.054c.181-.1.329-.02.33.188a.725.725,0,0,1-.328.568l-3.558,2.054,1.062.716c.125.082.115.328-.018.545a.666.666,0,0,1-.22.227.223.223,0,0,1-.243.018L113.817,204a.208.208,0,0,1-.063-.082.333.333,0,0,1-.024-.124.565.565,0,0,1,.019-.138.734.734,0,0,1,.063-.157l1.562-2.874A.678.678,0,0,1,115.616,200.368Z" fill="#fff"/><path d="M124.6,195.182a.229.229,0,0,1,.243-.019l1.569,1.057a.273.273,0,0,1,.064.081.4.4,0,0,1,.022.126.618.618,0,0,1-.019.138.849.849,0,0,1-.061.155l-1.563,2.875a.674.674,0,0,1-.242.262.245.245,0,0,1-.223.029c-.132-.064-.142-.3-.021-.523l1.056-1.938-3.557,2.054c-.182.1-.33.02-.33-.188a.722.722,0,0,1,.327-.568l3.558-2.054-1.063-.715c-.123-.083-.114-.329.018-.546A.658.658,0,0,1,124.6,195.182Z" fill="#fff"/><path d="M131.171,191.386a1.7,1.7,0,0,1,1.092-.263.724.724,0,0,1,.323-.513l.015-.009c.181-.1.322,0,.314.211l-.027.841a.724.724,0,0,1-.314.542l-.717.45-.014.008c-.175.1-.319.028-.328-.171a.72.72,0,0,1,.249-.527,1.283,1.283,0,0,0-.591.187,3.03,3.03,0,0,0-1.375,2.379c0,.874.624,1.225,1.384.786a3.024,3.024,0,0,0,1.209-1.526.718.718,0,0,1,.288-.364.283.283,0,0,1,.157-.044c.16.007.219.2.133.435a4.449,4.449,0,0,1-1.785,2.255c-1.123.648-2.038.124-2.042-1.163A4.48,4.48,0,0,1,131.171,191.386Z" fill="#fff"/></g><g opacity="0.5"><path d="M118.548,288.788a3.148,3.148,0,0,1-1.593-.413,4.071,4.071,0,0,1-1.762-3.743l-.172-60.843a11.9,11.9,0,0,1,5.395-9.345l72.99-42.142a4.116,4.116,0,0,1,4.158-.366,4.069,4.069,0,0,1,1.761,3.744l.173,60.845a11.9,11.9,0,0,1-5.4,9.344l-72.99,42.141A5.2,5.2,0,0,1,118.548,288.788Zm77.421-116.28a4.25,4.25,0,0,0-2.072.645l-72.99,42.142a10.817,10.817,0,0,0-4.9,8.491l.173,60.844a3.152,3.152,0,0,0,1.27,2.894,3.2,3.2,0,0,0,3.175-.364l72.991-42.141a10.828,10.828,0,0,0,4.9-8.492l-.173-60.844a3.155,3.155,0,0,0-1.269-2.9A2.184,2.184,0,0,0,195.969,172.508Z" fill="#fff"/></g><path d="M259.449,247.313a1.349,1.349,0,0,1-.678-.176,1.652,1.652,0,0,1-.735-1.5L257.742,141.8a4.147,4.147,0,0,1,1.9-3.3l41.017-23.681a1.5,1.5,0,0,1,2.406,1.38l.3,103.838a4.149,4.149,0,0,1-1.9,3.3L260.443,247.02A2,2,0,0,1,259.449,247.313Zm41.459-132.071.245.426-41.016,23.681a3.17,3.17,0,0,0-1.413,2.45l.3,103.84a.727.727,0,0,0,.243.647.746.746,0,0,0,.69-.117l41.016-23.681a3.169,3.169,0,0,0,1.412-2.45L302.086,116.2a.731.731,0,0,0-.244-.648.748.748,0,0,0-.689.117Z" fill="#fff"/><path d="M156.627,273.1c1.52-.877,2.754-.174,2.759,1.573l.092,32.4a6.044,6.044,0,0,1-2.741,4.749L117.872,334.26c-1.52.878-2.755.171-2.76-1.572l-.091-32.4a6.037,6.037,0,0,1,2.741-4.748Z" fill="#feab45"/><g transform="translate(-10)" opacity="0.2"><path d="M156.627,273.1c1.52-.877,2.754-.174,2.759,1.573l.092,32.4a6.044,6.044,0,0,1-2.741,4.749L117.872,334.26c-1.52.878-2.755.171-2.76-1.572l-.091-32.4a6.037,6.037,0,0,1,2.741-4.748Z" transform="translate(10)" fill="#fff"/></g><path d="M156.918,275.235a.179.179,0,0,1,.221,0c.092.089.065.3-.056.477l-19.371,27.7,19.465,5.281c.121.032.149.216.058.408a.568.568,0,0,1-.22.255.232.232,0,0,1-.164.035l-19.6-5.319-19.507,27.9a.538.538,0,0,1-.163.155.18.18,0,0,1-.223,0c-.09-.088-.066-.3.058-.475l19.37-27.7-19.464-5.281c-.124-.034-.149-.216-.06-.41a.594.594,0,0,1,.222-.257.215.215,0,0,1,.164-.031l19.6,5.319,19.507-27.9A.519.519,0,0,1,156.918,275.235Z" fill="#fff"/><path d="M204.321,246.243c1.52-.878,2.754-.174,2.759,1.572l.092,32.4a6.043,6.043,0,0,1-2.742,4.749L165.566,307.4c-1.52.877-2.755.171-2.76-1.573l-.092-32.4a6.04,6.04,0,0,1,2.742-4.749Z" fill="#feab45"/><g transform="translate(0 10)" opacity="0.2"><path d="M204.321,246.243c1.52-.878,2.754-.174,2.759,1.572l.092,32.4a6.043,6.043,0,0,1-2.742,4.749L165.566,307.4c-1.52.877-2.755.171-2.76-1.573l-.092-32.4a6.04,6.04,0,0,1,2.742-4.749Z" transform="translate(0 -10)" fill="#fff"/></g><path d="M204.611,248.374a.177.177,0,0,1,.221,0c.092.089.066.3-.055.476l-19.371,27.7,19.464,5.281c.122.032.15.215.058.408a.572.572,0,0,1-.22.255.223.223,0,0,1-.163.034l-19.6-5.319-19.506,27.9a.561.561,0,0,1-.164.154.179.179,0,0,1-.223,0c-.089-.088-.065-.3.058-.476l19.371-27.7-19.464-5.281c-.124-.034-.149-.215-.061-.409a.6.6,0,0,1,.223-.257.214.214,0,0,1,.163-.032l19.6,5.319,19.507-27.9A.51.51,0,0,1,204.611,248.374Z" fill="#fff"/><path d="M251.415,219.136c1.52-.878,2.755-.174,2.76,1.572l.091,32.4a6.042,6.042,0,0,1-2.741,4.749L212.66,280.293c-1.52.877-2.754.171-2.759-1.573l-.092-32.4a6.039,6.039,0,0,1,2.741-4.749Z" fill="#feab45"/><g opacity="0.2"><path d="M251.415,219.136c1.52-.878,2.755-.174,2.76,1.572l.091,32.4a6.042,6.042,0,0,1-2.741,4.749L212.66,280.293c-1.52.877-2.754.171-2.759-1.573l-.092-32.4a6.039,6.039,0,0,1,2.741-4.749Z" transform="translate(10)" fill="#fff"/></g><path d="M251.706,221.267a.179.179,0,0,1,.221,0c.092.089.065.3-.056.476l-19.371,27.7,19.465,5.281c.121.032.149.215.058.408a.579.579,0,0,1-.22.255.226.226,0,0,1-.164.034l-19.6-5.319L212.532,278a.546.546,0,0,1-.163.154.179.179,0,0,1-.223,0c-.09-.088-.066-.3.058-.476l19.371-27.7L212.11,244.7c-.124-.033-.149-.215-.06-.409a.589.589,0,0,1,.223-.257.213.213,0,0,1,.163-.032l19.6,5.319,19.507-27.9A.523.523,0,0,1,251.706,221.267Z" fill="#fff"/><path d="M247.64,147.032c2.535-1.464,4.6-.288,4.607,2.625a10.082,10.082,0,0,1-4.577,7.922l-38.236,22.075c-2.535,1.464-4.593.291-4.6-2.622a10.077,10.077,0,0,1,4.571-7.925Z" fill="#feab45"/><g transform="translate(-10)" opacity="0.2"><path d="M247.64,147.032c2.535-1.464,4.6-.288,4.607,2.625a10.082,10.082,0,0,1-4.577,7.922l-38.236,22.075c-2.535,1.464-4.593.291-4.6-2.622a10.077,10.077,0,0,1,4.571-7.925Z" transform="translate(10)" fill="#fff"/></g><path d="M247.64,161.833c2.535-1.464,4.6-.288,4.607,2.625a10.081,10.081,0,0,1-4.577,7.922l-38.236,22.075c-2.535,1.464-4.593.291-4.6-2.622a10.077,10.077,0,0,1,4.571-7.925Z" fill="#feab45"/><g transform="translate(-10)" opacity="0.2"><path d="M247.64,161.833c2.535-1.464,4.6-.288,4.607,2.625a10.081,10.081,0,0,1-4.577,7.922l-38.236,22.075c-2.535,1.464-4.593.291-4.6-2.622a10.077,10.077,0,0,1,4.571-7.925Z" transform="translate(10)" fill="#fff"/></g><path d="M247.64,176.634c2.535-1.463,4.6-.288,4.607,2.626a10.08,10.08,0,0,1-4.577,7.921l-38.236,22.075c-2.535,1.464-4.593.291-4.6-2.622a10.075,10.075,0,0,1,4.571-7.924Z" fill="#feab45"/><g transform="translate(-10)" opacity="0.2"><path d="M247.64,176.634c2.535-1.463,4.6-.288,4.607,2.626a10.08,10.08,0,0,1-4.577,7.921l-38.236,22.075c-2.535,1.464-4.593.291-4.6-2.622a10.075,10.075,0,0,1,4.571-7.924Z" transform="translate(10)" fill="#fff"/></g><path d="M315.005,69.436c-.006-2.186-.775-3.727-2.012-4.467-.012-.007-.022-.016-.034-.023l-.047-.027c-1.27-.712-3.015-.6-4.938.51L113.353,177.507a15.4,15.4,0,0,0-6.985,12.1l.02,9.076L315.025,78.267Z" fill="#feab45"/><path d="M315.005,69.436c-.006-2.186-.775-3.727-2.012-4.467-.012-.007-.022-.016-.034-.023l-.047-.027c-1.27-.712-3.015-.6-4.938.51L113.353,177.507a15.4,15.4,0,0,0-6.985,12.1l.02,9.076L315.025,78.267Z" opacity="0.3"/><g opacity="0.5"><path d="M115.634,183.852c1.056-.609,1.914-.12,1.918,1.093a4.2,4.2,0,0,1-1.9,3.3c-1.055.609-1.914.12-1.917-1.093A4.2,4.2,0,0,1,115.634,183.852Z" fill="#fff"/><path d="M120.854,180.839c1.055-.61,1.914-.12,1.917,1.092a4.2,4.2,0,0,1-1.9,3.3c-1.056.61-1.914.121-1.918-1.092A4.2,4.2,0,0,1,120.854,180.839Z" fill="#fff"/><path d="M126.074,177.825c1.055-.609,1.913-.12,1.917,1.093a4.2,4.2,0,0,1-1.9,3.3c-1.055.609-1.914.12-1.917-1.093A4.2,4.2,0,0,1,126.074,177.825Z" fill="#fff"/></g><path d="M115.634,183.852c1.056-.609,1.914-.12,1.918,1.093a4.2,4.2,0,0,1-1.9,3.3c-1.055.609-1.914.12-1.917-1.093A4.2,4.2,0,0,1,115.634,183.852Z" fill="#feab45"/><path d="M120.854,180.839c1.055-.61,1.914-.12,1.917,1.092a4.2,4.2,0,0,1-1.9,3.3c-1.056.61-1.914.121-1.918-1.092A4.2,4.2,0,0,1,120.854,180.839Z" fill="#feab45"/><path d="M126.074,177.825c1.055-.609,1.913-.12,1.917,1.093a4.2,4.2,0,0,1-1.9,3.3c-1.055.609-1.914.12-1.917-1.093A4.2,4.2,0,0,1,126.074,177.825Z" fill="#feab45"/><path d="M120.712,412.323l-12.985.378-12.985-.378c-.56,8.769,1.152,17.706,3.513,22.071h.009a5.91,5.91,0,0,0,2.57,2.615,15.237,15.237,0,0,0,13.831,0,5.756,5.756,0,0,0,2.568-2.683C119.576,429.936,121.269,421.049,120.712,412.323Z" fill="#fff"/><path d="M116.879,407c5.088,2.938,5.114,7.7.06,10.637s-13.276,2.938-18.364,0-5.114-7.7-.06-10.637S111.791,404.067,116.879,407Z" fill="#ebebeb"/><path d="M114.867,408.173c3.969,2.292,3.99,6.007.047,8.3a15.785,15.785,0,0,1-14.327,0c-3.969-2.292-3.99-6.007-.047-8.3A15.792,15.792,0,0,1,114.867,408.173Z" fill="#e0e0e0"/><g opacity="0.15"><path d="M114.867,408.173c3.969,2.292,3.99,6.007.047,8.3a15.785,15.785,0,0,1-14.327,0c-3.969-2.292-3.99-6.007-.047-8.3A15.792,15.792,0,0,1,114.867,408.173Z"/></g><path d="M101.1,385.749c-2.112-2.626-4.565-4.978-6.5-7.736-1.321-1.881-2.426-4.183-1.871-6.414a5.741,5.741,0,0,1,4.547-4,8.725,8.725,0,0,1,6.1,1.362,18.778,18.778,0,0,1,4.612,4.39,45.832,45.832,0,0,1,9.65,32.721,6.863,6.863,0,0,1-1.2,3.761,3.766,3.766,0,0,1-3.882,1.186c-3.537-1.05-3.068-5.828-3.646-8.639a39.481,39.481,0,0,0-4.063-11.032A38.69,38.69,0,0,0,101.1,385.749Z" fill="#17a6af"/><path d="M101.1,385.749c-2.112-2.626-4.565-4.978-6.5-7.736-1.321-1.881-2.426-4.183-1.871-6.414a5.741,5.741,0,0,1,4.547-4,8.725,8.725,0,0,1,6.1,1.362,18.778,18.778,0,0,1,4.612,4.39,45.832,45.832,0,0,1,9.65,32.721,6.863,6.863,0,0,1-1.2,3.761,3.766,3.766,0,0,1-3.882,1.186c-3.537-1.05-3.068-5.828-3.646-8.639a39.481,39.481,0,0,0-4.063-11.032A38.69,38.69,0,0,0,101.1,385.749Z" fill="#fff" opacity="0.2"/><path d="M112.776,407.456a.309.309,0,0,1-.249-.29c-.248-5.679-2.094-25.061-15.451-36.057a.31.31,0,0,1,.394-.479c13.554,11.16,15.425,30.765,15.676,36.509a.312.312,0,0,1-.3.323A.444.444,0,0,1,112.776,407.456Z" fill="#f0f0f0"/><path d="M114.728,408.071a9.487,9.487,0,0,1-4.337,6.014,12.2,12.2,0,0,1-6.563,1.1,28.77,28.77,0,0,1-6.663-1.58c-1.07-.361-2.261-.847-2.375-2.174a2.367,2.367,0,0,1,.757-1.868,7.637,7.637,0,0,1,.692-.6.685.685,0,0,0-.366-1.23,16.124,16.124,0,0,1-1.9-.234,8.376,8.376,0,0,1-3.987-1.8,6.635,6.635,0,0,1-1.841-2.727,2.565,2.565,0,0,1,.263-2.677,2.916,2.916,0,0,1,1.477-.642c.475-.1.95-.19,1.428-.264a.633.633,0,0,0,.147-1.211l-2.014-.84a3.787,3.787,0,0,1-1.529-.949,3.334,3.334,0,0,1-.388-2.775c.246-1.261.682-2.477.979-3.728a8,8,0,0,0,.132-3.814,32.05,32.05,0,0,1,11.285.754,8.115,8.115,0,0,1,3.08,1.348,4.517,4.517,0,0,1,1.449,4.148.292.292,0,0,0,.549.154l1.287-2.374a1.528,1.528,0,0,1,2-.639,9.237,9.237,0,0,1,2.943,2.315,5.1,5.1,0,0,1,1.26,3.768,32.968,32.968,0,0,1-.938,5.531.512.512,0,0,0,.8.541l.061-.044a1.731,1.731,0,0,1,1.214-.353c1.137.141,1.428,1.294,1.5,2.275A19.017,19.017,0,0,1,114.728,408.071Z" fill="#17a6af"/><path d="M114.728,408.071a9.487,9.487,0,0,1-4.337,6.014,12.2,12.2,0,0,1-6.563,1.1,28.77,28.77,0,0,1-6.663-1.58c-1.07-.361-2.261-.847-2.375-2.174a2.367,2.367,0,0,1,.757-1.868,7.637,7.637,0,0,1,.692-.6.685.685,0,0,0-.366-1.23,16.124,16.124,0,0,1-1.9-.234,8.376,8.376,0,0,1-3.987-1.8,6.635,6.635,0,0,1-1.841-2.727,2.565,2.565,0,0,1,.263-2.677,2.916,2.916,0,0,1,1.477-.642c.475-.1.95-.19,1.428-.264a.633.633,0,0,0,.147-1.211l-2.014-.84a3.787,3.787,0,0,1-1.529-.949,3.334,3.334,0,0,1-.388-2.775c.246-1.261.682-2.477.979-3.728a8,8,0,0,0,.132-3.814,32.05,32.05,0,0,1,11.285.754,8.115,8.115,0,0,1,3.08,1.348,4.517,4.517,0,0,1,1.449,4.148.292.292,0,0,0,.549.154l1.287-2.374a1.528,1.528,0,0,1,2-.639,9.237,9.237,0,0,1,2.943,2.315,5.1,5.1,0,0,1,1.26,3.768,32.968,32.968,0,0,1-.938,5.531.512.512,0,0,0,.8.541l.061-.044a1.731,1.731,0,0,1,1.214-.353c1.137.141,1.428,1.294,1.5,2.275A19.017,19.017,0,0,1,114.728,408.071Z" opacity="0.2"/><path d="M114.728,408.071a9.487,9.487,0,0,1-4.337,6.014,12.2,12.2,0,0,1-6.563,1.1,28.77,28.77,0,0,1-6.663-1.58c-1.07-.361-2.261-.847-2.375-2.174a2.367,2.367,0,0,1,.757-1.868,7.637,7.637,0,0,1,.692-.6.685.685,0,0,0-.366-1.23,16.124,16.124,0,0,1-1.9-.234,8.376,8.376,0,0,1-3.987-1.8,6.635,6.635,0,0,1-1.841-2.727,2.565,2.565,0,0,1,.263-2.677,2.916,2.916,0,0,1,1.477-.642c.475-.1.95-.19,1.428-.264a.633.633,0,0,0,.147-1.211l-2.014-.84a3.787,3.787,0,0,1-1.529-.949,3.334,3.334,0,0,1-.388-2.775c.246-1.261.682-2.477.979-3.728a8,8,0,0,0,.132-3.814,32.05,32.05,0,0,1,11.285.754,8.115,8.115,0,0,1,3.08,1.348,4.517,4.517,0,0,1,1.449,4.148.292.292,0,0,0,.549.154l1.287-2.374a1.528,1.528,0,0,1,2-.639,9.237,9.237,0,0,1,2.943,2.315,5.1,5.1,0,0,1,1.26,3.768,32.968,32.968,0,0,1-.938,5.531.512.512,0,0,0,.8.541l.061-.044a1.731,1.731,0,0,1,1.214-.353c1.137.141,1.428,1.294,1.5,2.275A19.017,19.017,0,0,1,114.728,408.071Z" fill="#fff" opacity="0.2"/><path d="M108.744,413.775a45.737,45.737,0,0,0-3.035-8.8.3.3,0,0,0-.107-.231c-.07-.153-.139-.3-.212-.46a28.438,28.438,0,0,1,3.006-10.071.309.309,0,0,0-.536-.308,28.835,28.835,0,0,0-2.964,9.361A41.214,41.214,0,0,0,91.9,387.689a.31.31,0,0,0-.354.508,40.952,40.952,0,0,1,13.147,16.062A18.95,18.95,0,0,0,93.938,402.8a.31.31,0,0,0,0,.608.335.335,0,0,0,.118,0,18.376,18.376,0,0,1,11.071,1.77,45.149,45.149,0,0,1,3.012,8.714.31.31,0,0,0,.244.244.318.318,0,0,0,.119,0A.311.311,0,0,0,108.744,413.775Z" fill="#f0f0f0"/><path d="M426.255,284.578l-13.886.4-13.886-.4c-.6,9.377,1.233,18.934,3.757,23.6l.01,0a6.324,6.324,0,0,0,2.749,2.8,16.294,16.294,0,0,0,14.789,0,6.156,6.156,0,0,0,2.747-2.869C425.039,303.413,426.85,293.909,426.255,284.578Z" fill="#fff"/><path d="M422.155,278.891c5.441,3.141,5.47,8.233.065,11.374s-14.2,3.141-19.638,0-5.469-8.233-.063-11.374S416.715,275.75,422.155,278.891Z" fill="#ebebeb"/><path d="M420,280.141c4.245,2.45,4.267,6.423.05,8.874a16.879,16.879,0,0,1-15.32,0c-4.245-2.45-4.267-6.423-.05-8.874A16.879,16.879,0,0,1,420,280.141Z" fill="#e0e0e0"/><g opacity="0.15"><path d="M420,280.141c4.245,2.45,4.267,6.423.05,8.874a16.879,16.879,0,0,1-15.32,0c-4.245-2.45-4.267-6.423-.05-8.874A16.879,16.879,0,0,1,420,280.141Z"/></g><path d="M435.2,225.325c-31.292,10.246-31.575,31.18-24.521,46.088,1.779,3.018,7.163,4.638,11.85-13.9l-8.22,1.053,9.579-4.854,2.488-7.437-7.986.593,10.137-4.264A149.847,149.847,0,0,1,435.2,225.325Z" fill="#17a6af"/><path d="M435.2,225.325c-31.292,10.246-31.575,31.18-24.521,46.088,1.779,3.018,7.163,4.638,11.85-13.9l-8.22,1.053,9.579-4.854,2.488-7.437-7.986.593,10.137-4.264A149.847,149.847,0,0,1,435.2,225.325Z" opacity="0.2"/><path d="M435.2,225.325c-31.292,10.246-31.575,31.18-24.521,46.088,1.779,3.018,7.163,4.638,11.85-13.9l-8.22,1.053,9.579-4.854,2.488-7.437-7.986.593,10.137-4.264A149.847,149.847,0,0,1,435.2,225.325Z" fill="#fff" opacity="0.2"/><path d="M426.348,230.56c-16.5,12.525-17.991,26.883-13.329,41.874C411.37,259.234,409.587,245.888,426.348,230.56Z" fill="#fff"/><path d="M382.2,246.59c30.845,4.343,34.587,23.793,30.494,38.849-1.155,3.106-5.9,5.51-13.345-10.979l7.829-.384-9.727-2.93-3.552-6.513,7.536-.774-10.149-2.287A141.757,141.757,0,0,0,382.2,246.59Z" fill="#17a6af"/><path d="M382.2,246.59c30.845,4.343,34.587,23.793,30.494,38.849-1.155,3.106-5.9,5.51-13.345-10.979l7.829-.384-9.727-2.93-3.552-6.513,7.536-.774-10.149-2.287A141.757,141.757,0,0,0,382.2,246.59Z" fill="#fff" opacity="0.2"/><path d="M382.2,246.59c30.845,4.343,34.587,23.793,30.494,38.849-1.155,3.106-5.9,5.51-13.345-10.979l7.829-.384-9.727-2.93-3.552-6.513,7.536-.774-10.149-2.287A141.757,141.757,0,0,0,382.2,246.59Z" opacity="0.1"/><path d="M391.311,249.995c17.449,8.923,21.222,22.048,19.371,36.783C410.025,274.211,409.467,261.486,391.311,249.995Z" fill="#fff"/><path d="M444.227,253.879c-28.287.462-33.837,17.573-31.833,31.6.694,2.929,4.7,5.627,13.257-8.4l-7.014-1.223,9.1-1.552,3.931-5.472-6.7-1.542,9.4-.925A128.852,128.852,0,0,1,444.227,253.879Z" fill="#17a6af"/><path d="M435.633,255.928c-16.726,6.089-21.6,17.5-21.577,30.985C416.055,275.659,417.982,264.252,435.633,255.928Z" fill="#fff"/><path d="M444.227,253.879c-28.287.462-33.837,17.573-31.833,31.6.694,2.929,4.7,5.627,13.257-8.4l-7.014-1.223,9.1-1.552,3.931-5.472-6.7-1.542,9.4-.925A128.852,128.852,0,0,1,444.227,253.879Z" fill="#fff" opacity="0.2"/><path d="M335.2,144.009l-.023,9.278,1.659,14.554,2.411,14.169,8.3.966-3.393-15.135-6.424-25.048Z" fill="#ffa8a7"/><path d="M338.491,180.274c5.719-2.136,9.461.866,9.461.866l.936,24.269-10.207-5.841Z" fill="#ba68c8"/><path d="M338.491,180.274c5.719-2.136,9.461.866,9.461.866l.936,24.269-10.207-5.841Z" fill="#feab45"/><path d="M338.491,180.274c5.719-2.136,9.461.866,9.461.866l.936,24.269-10.207-5.841Z" opacity="0.3"/><path d="M338.491,180.274c5.719-2.136,9.461.866,9.461.866l.936,24.269-10.207-5.841Z" fill="#fff" opacity="0.3"/><path d="M333.4,110.5c.939-.542,1.7-.106,1.708.978l.3,106.272a3.743,3.743,0,0,1-1.7,2.944l-41.977,24.236c-.94.543-1.706.106-1.709-.978l-.3-106.272a3.743,3.743,0,0,1,1.7-2.944Z" fill="#feab45"/><g opacity="0.2"><path d="M333.4,110.5c.939-.542,1.7-.106,1.708.978l.3,106.272a3.743,3.743,0,0,1-1.7,2.944l-41.977,24.236c-.94.543-1.706.106-1.709-.978l-.3-106.272a3.743,3.743,0,0,1,1.7-2.944Z"/></g><g transform="translate(-10)" opacity="0.1"><path d="M333.4,110.5c.939-.542,1.7-.106,1.708.978l.3,106.272a3.743,3.743,0,0,1-1.7,2.944l-41.977,24.236c-.94.543-1.706.106-1.709-.978l-.3-106.272a3.743,3.743,0,0,1,1.7-2.944Z" transform="translate(10)" fill="#fff"/></g><path d="M332.823,114.158c.393-.066.486.171.39.469l-20.178,62.812,20.468,39.34a.789.789,0,0,1-.209.774c-.337.239-.491.221-.565.083l-20.163-38.748-19.873,61.863a.944.944,0,0,1-.387.51c-.392.067-.484-.17-.389-.473L312.1,177.981l-20.468-39.344a.787.787,0,0,1,.209-.77c.34-.241.494-.223.565-.083l20.159,38.75,19.878-61.865A.931.931,0,0,1,332.823,114.158Z" fill="#fff"/><path d="M308.565,194.008l-9.011-3-5.934-22.41a3.394,3.394,0,0,1,.167-1.96l.625-1.563a6.435,6.435,0,0,0,.454-2.592l-.111-3.427a1.046,1.046,0,0,0-1.045-1.011h0a1.046,1.046,0,0,0-1.029.86l-.536,2.973-1.257,1.446-1.138-4.07v-5.168l-2.563,3.719a4.7,4.7,0,0,0-.766,3.428l1.074,6.507,2.886,25.191a10.054,10.054,0,0,0,6.37,8.236l9.468,3.654Z" fill="#ffa8a7"/><path d="M327.877,330.346a4.2,4.2,0,0,1-3.783,2.546,18.837,18.837,0,0,1-4.784-.612c-3.555-.644-6.983-.006-10.527-.089a15,15,0,0,1-3.463-.377,5.718,5.718,0,0,1-2.96-1.744,3.866,3.866,0,0,1-.852-1.856,3.656,3.656,0,0,0,.852,2.9,5.724,5.724,0,0,0,2.96,1.744,15,15,0,0,0,3.463.376c3.544.084,6.972-.555,10.527.089a18.748,18.748,0,0,0,4.784.612,4.2,4.2,0,0,0,3.783-2.545,4.057,4.057,0,0,0,.124-1.639A3.254,3.254,0,0,1,327.877,330.346Z" fill="#455a64"/><path d="M327.786,327.4l-.654-3.229a4.783,4.783,0,0,0-.547-1.644,1.624,1.624,0,0,0-1.438-.822c-1.946-.259-4.683-.963-6.3.15a14.514,14.514,0,0,1-8.705,2.528,30.381,30.381,0,0,0-4.816-.194,4.306,4.306,0,0,0-3.734,2.623,3.093,3.093,0,0,0-.083,1.4,3.866,3.866,0,0,0,.852,1.856,5.718,5.718,0,0,0,2.96,1.744,15,15,0,0,0,3.463.377c3.544.083,6.972-.555,10.527.089a18.837,18.837,0,0,0,4.784.612,4.2,4.2,0,0,0,3.783-2.546,3.254,3.254,0,0,0,.124-.6A7.547,7.547,0,0,0,327.786,327.4Z" fill="#37474f"/><path d="M318.374,318.472l-.139,4.208a1.666,1.666,0,0,0,1.545,1.72,26.5,26.5,0,0,0,4.241-.041,2.4,2.4,0,0,0,2.168-2.254l.167-3.107Z" fill="#ffa8a7"/><path d="M345.844,316.234a3.248,3.248,0,0,1-.563,1.738,3.161,3.161,0,0,1-1.986,1.118,5.015,5.015,0,0,1-4.928-2.029c-.529-.766-.83-1.667-1.33-2.452a11.152,11.152,0,0,0-2.763-2.687,11.635,11.635,0,0,1-2.784-2.667,3.931,3.931,0,0,1-.532-3.56,2.848,2.848,0,0,0-.261.448,4.043,4.043,0,0,0,.5,3.79,11.938,11.938,0,0,0,2.841,2.75,11.435,11.435,0,0,1,2.82,2.769c.511.809.818,1.739,1.358,2.528a5.089,5.089,0,0,0,5.028,2.091,3.218,3.218,0,0,0,2.026-1.152,3.915,3.915,0,0,0,.589-2.417C345.856,316.413,345.848,316.324,345.844,316.234Z" fill="#455a64"/><path d="M344.568,310.953c-1.279-2.242-3.916-3.873-5.951-5.461a7.635,7.635,0,0,0-3.943-1.791A3.7,3.7,0,0,0,331,305.578c-.017.038-.027.079-.042.117a3.931,3.931,0,0,0,.532,3.56,11.635,11.635,0,0,0,2.784,2.667,11.152,11.152,0,0,1,2.763,2.687c.5.785.8,1.686,1.33,2.452a5.015,5.015,0,0,0,4.928,2.029,3.161,3.161,0,0,0,1.986-1.118,3.248,3.248,0,0,0,.563-1.738c.014-.2.018-.406.014-.607A9.883,9.883,0,0,0,344.568,310.953Z" fill="#37474f"/><path d="M339.022,309.009v3.824a6.414,6.414,0,0,0,5.95-.263l.359-3.441Z" fill="#ffa8a7"/><path d="M346.334,239.635c1.148,3.441-.263,19.787-.932,35.464,2.486,5.926,1.817,22.75.383,34.7,0,0-2.486,1.529-6.978,0l-5.64-32.979-.783-18.64s-1.416,16.537-3.041,27.148c1.53,8.125,1.147,9.654-2.628,34.647a9.429,9.429,0,0,1-8.46,0c-2.135-35.114-1.35-67.112-.946-78.618Z" fill="#455a64"/><path d="M332.861,269.53l-.638-15.2c3.929,0,7.574-2.936,10.347-5.72a17.575,17.575,0,0,1-7.826,6.847Z" opacity="0.3"/><path d="M316.71,242.287c17.529,7.345,28.889.71,30.432-2.742-.808-12.119,2.056-26.295,1.836-32.317s-.959-12.808-10.3-11.448l-9.931.969-5.038,1.224-6.043,12.55Z" fill="#feab45"/><path d="M316.71,242.287c17.529,7.345,28.889.71,30.432-2.742-.808-12.119,2.056-26.295,1.836-32.317s-.959-12.808-10.3-11.448l-9.931.969-5.038,1.224-6.043,12.55Z" opacity="0.2"/><path d="M316.71,242.287c17.529,7.345,28.889.71,30.432-2.742-.808-12.119,2.056-26.295,1.836-32.317s-.959-12.808-10.3-11.448l-9.931.969-5.038,1.224-6.043,12.55Z" fill="#fff" opacity="0.3"/><path d="M338.681,191.02a2.644,2.644,0,0,0,1.94-.656,1.91,1.91,0,0,0,.46-1.666,1.82,1.82,0,0,0,1.335-1.083,2.075,2.075,0,0,0-.311-1.814,3.054,3.054,0,0,0,1.975-1.612,3.2,3.2,0,0,0,.088-2.614,2.832,2.832,0,0,0,1.985-1.928,3.071,3.071,0,0,0-.564-2.83,3.811,3.811,0,0,0,.445-3.8,4.021,4.021,0,0,0-3.265-2.2,3.929,3.929,0,0,0-1.283-3.52,3.794,3.794,0,0,0-3.611-.706,3.468,3.468,0,0,0-5.781-.992,2.641,2.641,0,0,0-2.339-.862,2.73,2.73,0,0,0-2.117,1.394,3.546,3.546,0,0,0-5.013,3.4,2.1,2.1,0,0,0-1.5,2.068,2.223,2.223,0,0,0,1.729,1.993,49.6,49.6,0,0,0,4.658,13.643c.984,1.914,2.191,3.856,4.1,4.85C333.675,193.149,336.914,192.534,338.681,191.02Z" fill="#455a64"/><path d="M338.681,191.02a2.644,2.644,0,0,0,1.94-.656,1.91,1.91,0,0,0,.46-1.666,1.82,1.82,0,0,0,1.335-1.083,2.075,2.075,0,0,0-.311-1.814,3.054,3.054,0,0,0,1.975-1.612,3.2,3.2,0,0,0,.088-2.614,2.832,2.832,0,0,0,1.985-1.928,3.071,3.071,0,0,0-.564-2.83,3.811,3.811,0,0,0,.445-3.8,4.021,4.021,0,0,0-3.265-2.2,3.929,3.929,0,0,0-1.283-3.52,3.794,3.794,0,0,0-3.611-.706,3.468,3.468,0,0,0-5.781-.992,2.641,2.641,0,0,0-2.339-.862,2.73,2.73,0,0,0-2.117,1.394,3.546,3.546,0,0,0-5.013,3.4,2.1,2.1,0,0,0-1.5,2.068,2.223,2.223,0,0,0,1.729,1.993,49.6,49.6,0,0,0,4.658,13.643c.984,1.914,2.191,3.856,4.1,4.85C333.675,193.149,336.914,192.534,338.681,191.02Z" fill="#ba68c8"/><path d="M338.681,191.02a2.644,2.644,0,0,0,1.94-.656,1.91,1.91,0,0,0,.46-1.666,1.82,1.82,0,0,0,1.335-1.083,2.075,2.075,0,0,0-.311-1.814,3.054,3.054,0,0,0,1.975-1.612,3.2,3.2,0,0,0,.088-2.614,2.832,2.832,0,0,0,1.985-1.928,3.071,3.071,0,0,0-.564-2.83,3.811,3.811,0,0,0,.445-3.8,4.021,4.021,0,0,0-3.265-2.2,3.929,3.929,0,0,0-1.283-3.52,3.794,3.794,0,0,0-3.611-.706,3.468,3.468,0,0,0-5.781-.992,2.641,2.641,0,0,0-2.339-.862,2.73,2.73,0,0,0-2.117,1.394,3.546,3.546,0,0,0-5.013,3.4,2.1,2.1,0,0,0-1.5,2.068,2.223,2.223,0,0,0,1.729,1.993,49.6,49.6,0,0,0,4.658,13.643c.984,1.914,2.191,3.856,4.1,4.85C333.675,193.149,336.914,192.534,338.681,191.02Z" opacity="0.7"/><path d="M322.145,179.807l-2.056,3.574,2.252.832Z" fill="#f28f8f"/><path d="M322.853,173.581a33.313,33.313,0,0,0-.59,15.192,5.184,5.184,0,0,0,.945,2.4,3.775,3.775,0,0,0,2.612,1.2,11.242,11.242,0,0,0,2.93-.283v4.652c3.531.832,7.164,1.162,9.931-.969v-4.76a12.621,12.621,0,0,1-6.165.385c-2.439-1.315-2.928-5.771-2.586-6.946a1.837,1.837,0,0,0,1.908.67,2.561,2.561,0,0,0,1.583-1.258,5.257,5.257,0,0,0,.591-1.98,3.607,3.607,0,0,0-.362-2.452,2.567,2.567,0,0,0-2.762-.932,3.954,3.954,0,0,0-2.325,1.944,6.024,6.024,0,0,0-.409.891.553.553,0,0,1-1.071-.137,7.367,7.367,0,0,1,.7-3.892,2.7,2.7,0,0,1-1.993-1.221,2.538,2.538,0,0,1-.385-2.235A7.514,7.514,0,0,1,322.853,173.581Z" fill="#ffa8a7"/><path d="M335.2,144.009l-1.623-3.891-.821-3.693a.945.945,0,0,1,.624-1.1h0a.944.944,0,0,1,1.192.59l.689,2.005v-5.656l2.358,4.222a3.669,3.669,0,0,1,.454,2.089l-.348,4.219Z" fill="#ffa8a7"/><path d="M323.735,197.962c-5.586-1.849-15.533-4.852-15.533-4.852-4.464,4.5-4.087,11.769-4.087,11.769l13.554,5.644C330.6,214.62,332.487,200.858,323.735,197.962Z" fill="#feab45"/><path d="M323.735,197.962c-5.586-1.849-15.533-4.852-15.533-4.852-4.464,4.5-4.087,11.769-4.087,11.769l13.554,5.644C330.6,214.62,332.487,200.858,323.735,197.962Z" opacity="0.3"/><path d="M323.735,197.962c-5.586-1.849-15.533-4.852-15.533-4.852-4.464,4.5-4.087,11.769-4.087,11.769l13.554,5.644C330.6,214.62,332.487,200.858,323.735,197.962Z" fill="#fff" opacity="0.3"/><path d="M328.845,317.591,309.97,303.652l-7.259-21.831c-.028-1.629-.065-3.281-.1-4.921a2.672,2.672,0,0,0-1.487-2.37,12.852,12.852,0,0,0-4.356-1.235,8.54,8.54,0,0,0-1.409-2.89,1.19,1.19,0,0,0-1.459-.315l-.02.01a1.183,1.183,0,0,0-.481,1.685,19.622,19.622,0,0,1,3.005,7.874,9.741,9.741,0,0,1-2.645-2.013,1.631,1.631,0,0,0-2.655.375l-.011.02a13.651,13.651,0,0,0,6.363,6.18l3.418,22.378a9.4,9.4,0,0,0,3.013,5.577l13.951,12.533Z" fill="#ffa8a7"/><path d="M309.97,303.652l-3.552-10.682a25.533,25.533,0,0,0-5.052,15.484,9.4,9.4,0,0,0,2.523,3.722l13.951,12.533,11.005-7.118Z" fill="#f28f8f"/><path d="M314.871,451.7a4.956,4.956,0,0,1-3.56,2.147,16.308,16.308,0,0,1-4.886-.31,32.389,32.389,0,0,0-7.291-.186,38.157,38.157,0,0,1-4.537.324,7.2,7.2,0,0,1-4.265-1.351,4.344,4.344,0,0,1-1.6-2.721,4.115,4.115,0,0,0,1.6,3.67,7.2,7.2,0,0,0,4.265,1.351,38.151,38.151,0,0,0,4.537-.324,32.391,32.391,0,0,1,7.291.186,17.2,17.2,0,0,0,5,.426,4.962,4.962,0,0,0,3.56-2.147Z" fill="#263238"/><path d="M297.172,448.82c1.361,0,.861-2.013,2.155-3.362-.526.03-1.055.04-1.584.038C296.579,447.172,296.253,448.82,297.172,448.82Z" fill="#fff"/><path d="M300,448.715c1.368,0,1.009-2.4,2.353-3.8a8.739,8.739,0,0,1-.931.269c-.268.06-.538.106-.809.146C299.413,447.026,299.068,448.715,300,448.715Z" fill="#fff"/><path d="M313.464,444.114a1.851,1.851,0,0,0-.707-1.108l-7.353-.183a6.309,6.309,0,0,1-3.052,2.092c-1.344,1.4-.985,3.8-2.353,3.8-.931,0-.586-1.689.613-3.385-.426.062-.854.1-1.285.128-1.294,1.349-.794,3.362-2.155,3.362-.919,0-.593-1.648.571-3.324-.343,0-.687-.005-1.03-.01-.311-.005-.625-.026-.94-.052-2.7,2.138-2.934,4.458-2.585,8.1a9.7,9.7,0,0,0,1.409.147,38.157,38.157,0,0,0,4.537-.324,32.389,32.389,0,0,1,7.291.186,16.308,16.308,0,0,0,4.886.31,4.956,4.956,0,0,0,3.56-2.147Z" fill="#455a64"/><path d="M295.773,445.434a11.594,11.594,0,0,0-3.676,0,4.377,4.377,0,0,0-3.308,2.879,3.266,3.266,0,0,0-.058,1.294,4.344,4.344,0,0,0,1.6,2.721,6.346,6.346,0,0,0,2.856,1.2C292.839,449.892,293.069,447.572,295.773,445.434Z" fill="#fff"/><path d="M305.194,440.728v3.543a1.456,1.456,0,0,0,1.456,1.455h3.707a2.388,2.388,0,0,0,2.386-2.31l.088-2.688Z" fill="#ffa8a7"/><path d="M329.7,439.153a2.724,2.724,0,0,1-2.231,1.561,4.687,4.687,0,0,1-2.822-.694c-1.276-.809-1.773-2.084-2.643-3.232a19.367,19.367,0,0,0-3.074-3,10.142,10.142,0,0,1-2.938-3.406,4.527,4.527,0,0,1-.348-1.249,4.431,4.431,0,0,0,.348,2.4,10.142,10.142,0,0,0,2.938,3.406,19.366,19.366,0,0,1,3.074,3c.87,1.148,1.367,2.423,2.643,3.232a4.687,4.687,0,0,0,2.822.694A2.724,2.724,0,0,0,329.7,440.3a6.138,6.138,0,0,0,.134-1.975A2.456,2.456,0,0,1,329.7,439.153Z" fill="#263238"/><path d="M321.342,431.378a.917.917,0,0,0-.179.606.63.63,0,0,0,.4.457.881.881,0,0,0,.827-.214,4.314,4.314,0,0,0,.573-.682,4.27,4.27,0,0,1,3.023-1.63l-.92-.839a4.53,4.53,0,0,0-3.725,2.3Z" fill="#fff"/><path d="M321.538,428.456a4.639,4.639,0,0,0-2.05,1.89.911.911,0,0,0-.179.606.627.627,0,0,0,.4.457.882.882,0,0,0,.827-.214,4.312,4.312,0,0,0,.573-.682,4.274,4.274,0,0,1,3.75-1.626l-.909-.829A4.631,4.631,0,0,0,321.538,428.456Z" fill="#fff"/><path d="M323.371,427.535a9.6,9.6,0,0,0-2.886-1.928,3.834,3.834,0,0,0-3.967.548,3.431,3.431,0,0,0-.879,2.975,4.527,4.527,0,0,0,.348,1.249,6.507,6.507,0,0,0,.911,1.445C317.251,428.657,320,427.175,323.371,427.535Z" fill="#fff"/><path d="M329.769,436.047a6.609,6.609,0,0,0-.72-3.1l-1.787-1.875-1.275-1.162a4.27,4.27,0,0,0-3.023,1.63,4.314,4.314,0,0,1-.573.682.881.881,0,0,1-.827.214.63.63,0,0,1-.4-.457.917.917,0,0,1,.179-.606,4.53,4.53,0,0,1,3.725-2.3l-.207-.189a4.274,4.274,0,0,0-3.75,1.626,4.312,4.312,0,0,1-.573.682.882.882,0,0,1-.827.214.627.627,0,0,1-.4-.457.911.911,0,0,1,.179-.606,4.566,4.566,0,0,1,4.463-2.288l-.033-.03c-.181-.165-.363-.33-.547-.493-3.371-.36-6.12,1.122-6.473,4.289a15.224,15.224,0,0,0,2.027,1.961,19.367,19.367,0,0,1,3.074,3c.87,1.148,1.367,2.423,2.643,3.232a4.687,4.687,0,0,0,2.822.694,2.724,2.724,0,0,0,2.231-1.561,2.456,2.456,0,0,0,.134-.827A22.4,22.4,0,0,0,329.769,436.047Z" fill="#455a64"/><path d="M323.317,430.448l.211,3.8A5.064,5.064,0,0,0,329.29,434l.158-3.556Z" fill="#ffa8a7"/><path d="M328.4,348.876a3.574,3.574,0,0,1-.361-.6,34.575,34.575,0,0,1-24.738,2.812c-1.753,13.042-3.259,35.127-2.334,49.7.769,16.961,3.89,40.977,3.89,40.977,4.07,1.221,7.123.475,8.277-.407,1.357-16.825,4.342-28.358,2.035-39.484,1.538-7.78,2.533-17.549,2.533-17.549l1.176,17.187,3.98,30.213a7.136,7.136,0,0,0,7.146-.362c2.894-17.278,3.98-28.985,1.447-37.559C335.321,365.453,335.518,358.2,328.4,348.876Z" fill="#052b5d"/><path d="M328.4,348.876a3.574,3.574,0,0,1-.361-.6,34.575,34.575,0,0,1-24.738,2.812c-1.753,13.042-3.259,35.127-2.334,49.7.769,16.961,3.89,40.977,3.89,40.977,4.07,1.221,7.123.475,8.277-.407,1.357-16.825,4.342-28.358,2.035-39.484,1.538-7.78,2.533-17.549,2.533-17.549l1.176,17.187,3.98,30.213a7.136,7.136,0,0,0,7.146-.362c2.894-17.278,3.98-28.985,1.447-37.559C335.321,365.453,335.518,358.2,328.4,348.876Z" opacity="0.4"/><path d="M328.4,348.876a3.574,3.574,0,0,1-.361-.6,34.575,34.575,0,0,1-24.738,2.812c-1.753,13.042-3.259,35.127-2.334,49.7.769,16.961,3.89,40.977,3.89,40.977,4.07,1.221,7.123.475,8.277-.407,1.357-16.825,4.342-28.358,2.035-39.484,1.538-7.78,2.533-17.549,2.533-17.549l1.176,17.187,3.98,30.213a7.136,7.136,0,0,0,7.146-.362c2.894-17.278,3.98-28.985,1.447-37.559C335.321,365.453,335.518,358.2,328.4,348.876Z" fill="#fff" opacity="0.1"/><path d="M319.419,380.929l2.132-8.95a12.55,12.55,0,0,0,8.421-5.448,17.123,17.123,0,0,1-10.32,3.639l-1.945,14.156.414,6.05.167-2.2A46.325,46.325,0,0,1,319.419,380.929Z" opacity="0.2"/><path d="M312.982,318.154l-6.22,1.224c-1.375,2.516-2.777,4.879-4.151,7.4-1.036,1.895-2.1,3.91-2.023,6.068a6.177,6.177,0,0,0,3.726,5.36l-2.969,21.287c11.529,7.043,30.212,2.085,31.931-4.156-1.669-4.3-3.437-5.864-4.523-10.946-.8-3.732,1.075-8.988,1.4-10.495a36.817,36.817,0,0,0,1.053-7.01,12.35,12.35,0,0,0-1.642-6.8l-.038-.06a7.61,7.61,0,0,0-7.636-3.278Z" fill="#17a6af"/><path d="M320.892,313.176a6.287,6.287,0,0,0,3.761-3.923c.571-1.871.169-3.867.716-5.74.271-.928.757-1.706.971-2.667a10.166,10.166,0,0,0,.245-3.128c-.3-3.389-2.783-6.412-5.976-7.99a22.063,22.063,0,0,0-11.937-1.753,7.526,7.526,0,0,0-4.373,2.012,3.13,3.13,0,0,0,.2,4.351,3.409,3.409,0,0,0-1.41,2.395,2.91,2.91,0,0,0,1.99,2.775c1.163,11.132,6.241,13.375,8.887,14.335S318.459,315.519,320.892,313.176Z" fill="#263238"/><path d="M304.422,303.246l-1.921,3.339,2.1.777Z" fill="#ffa8a7"/><path d="M304.2,301.758c.308-2.929,1.166-5.691,3.073-7.091-.317,1.838.037,4.446,1.891,5.848a8.8,8.8,0,0,0,.3,4.632,4.586,4.586,0,0,1,1.419-2.511,2.645,2.645,0,0,1,2.729-.582,2.689,2.689,0,0,1,1.372,1.5,3.556,3.556,0,0,1-4.446,4.7,6.834,6.834,0,0,0,5.252,5.32,8.776,8.776,0,0,0,5.092-.391l.794,3.854c-3.214,3.428-8.7,1.124-8.7,1.124l-.723-3.883c-6.32.375-6.91.268-7.606-3.214A34.1,34.1,0,0,1,304.2,301.758Z" fill="#ffa8a7"/><path d="M323.877,295.7l-.624-2.442a1.044,1.044,0,0,0-1.24-.387,1.409,1.409,0,0,0-.785,1.058,2.534,2.534,0,0,0,.177,1.346,2.335,2.335,0,0,0,.622.956,1.23,1.23,0,0,0,1.069.293C323.469,296.434,323.911,296.088,323.877,295.7Z" fill="#17a6af"/><path d="M323.388,295.785a4.536,4.536,0,0,1,4.758,2.375,8.058,8.058,0,0,1,.571,5.558c-.588,2.8-2.047,5.328-3.3,7.9s-2.343,5.366-2.1,8.218c.323,3.75,3.329,6.7,6.967,7.668a3.933,3.933,0,0,1-1.446-3.049,6.154,6.154,0,0,0,4.205,2.627,5.9,5.9,0,0,0,4.651-1.378,5.6,5.6,0,0,1-4-1.557,4.787,4.787,0,0,0,2.937-.408c-3.045-1.716-4.068-5.7-3.692-9.179s1.819-6.744,2.472-10.177.334-7.4-2.214-9.794a9.019,9.019,0,0,0-7.638-1.918,14.929,14.929,0,0,0-2.578.684C321.708,293.676,322.466,295.968,323.388,295.785Z" fill="#263238"/><path d="M266.439,308.326l9.224,26.731,19.071-10.582-9.122-26.436Z" fill="#feab45"/><path d="M266.439,308.326l9.224,26.731,19.071-10.582-9.122-26.436Z" opacity="0.3"/><path d="M266.439,308.326l9.224,26.731,19.071-10.582-9.122-26.436Z" fill="#fff" opacity="0.2"/><path d="M291.9,323.39l-7.595-22.013-15.026,8.061,7.676,22.244Z" fill="#fff"/><path d="M281.658,303.011l-8.349,4.38-.363-1.113,1.621-1.428,4.574-2.3,2.081-.387Z" fill="#455a64"/><path d="M279.141,302.551l-.361-.847-4.466,2.4.253.75Z" fill="#37474f"/><path d="M281.373,300.314l-10.1,5.416-.437-1.049,10.188-5.348Z" fill="#455a64"/><path d="M278.642,300.585c-.88-2.777-6.157-.163-5.128,2.693Z" fill="#37474f"/><path d="M302.5,321.839l-13.438,17.206-12.234-12.034a4.287,4.287,0,0,1-1.24-2.509c-.584-4.567-1.85-7.824-3.475-7.252-1.02.36.287,4.807.287,4.807l-1.524-.872-1.779-5.154h-.8a2.033,2.033,0,0,0-1.921,1.366l-.763,2.2a6.467,6.467,0,0,0,2.264,7.319l2.685,1.986a4.278,4.278,0,0,1,1.024,1.085,134.1,134.1,0,0,0,14.349,18.341,3.651,3.651,0,0,0,4.628.475c5.2-3.435,15.787-13.362,21.226-20.283a5.727,5.727,0,0,0-1.559-8.456h0A5.724,5.724,0,0,0,302.5,321.839Z" fill="#ffa8a7"/><path d="M210.65,173.764c2.921-1.687,5.294-.334,5.3,3.023l.176,62.27a11.615,11.615,0,0,1-5.269,9.127l-74.7,43.129c-2.922,1.686-5.295.329-5.3-3.023l-.177-62.27a11.608,11.608,0,0,1,5.27-9.127Z" fill="#ba68c8"/><g opacity="0.8"><path d="M210.65,173.764c2.921-1.687,5.294-.334,5.3,3.023l.176,62.27a11.615,11.615,0,0,1-5.269,9.127l-74.7,43.129c-2.922,1.686-5.295.329-5.3-3.023l-.177-62.27a11.608,11.608,0,0,1,5.27-9.127Z" fill="#fff"/></g><path d="M211.208,177.861a.344.344,0,0,1,.426,0c.176.172.125.579-.107.916l-37.232,53.246,37.411,10.15c.234.063.287.415.112.785a1.1,1.1,0,0,1-.423.49.447.447,0,0,1-.314.067l-37.674-10.224-37.493,53.622a1.057,1.057,0,0,1-.314.3.346.346,0,0,1-.429,0c-.172-.169-.126-.579.112-.913l37.232-53.246L135.1,222.9c-.238-.065-.287-.415-.117-.787a1.142,1.142,0,0,1,.429-.494.41.41,0,0,1,.313-.06L173.4,231.783,210.9,178.162A.992.992,0,0,1,211.208,177.861Z" fill="#fff"/><path d="M212.255,218.454l3.84,8.145-6.818,20.679-15.051,9.769,5.384,12.738,15.375-15.022a11.49,11.49,0,0,0,3.361-6.705l2.893-21.737-3.289-12.294-1.9-1.819.057,7.793-1.918-2.684a1.128,1.128,0,0,0-1.554-.276h0A1.129,1.129,0,0,0,212.255,218.454Z" fill="#ab6060"/><path d="M193.435,254.974l12.291-6.188c7.2,1.822,7.384,9.426,7.384,9.426L200.4,269.785Z" fill="#37474f"/><path d="M180.464,395.421a4.373,4.373,0,0,1-3.944,2.653,19.527,19.527,0,0,1-4.987-.638c-3.706-.671-7.279-.005-10.974-.092a15.592,15.592,0,0,1-3.609-.393,5.955,5.955,0,0,1-3.086-1.818,4.022,4.022,0,0,1-.889-1.934,3.81,3.81,0,0,0,.889,3.018,5.955,5.955,0,0,0,3.086,1.818,15.6,15.6,0,0,0,3.609.392c3.695.087,7.268-.578,10.974.093a19.571,19.571,0,0,0,4.987.638,4.374,4.374,0,0,0,3.944-2.654,4.228,4.228,0,0,0,.129-1.707A3.459,3.459,0,0,1,180.464,395.421Z" fill="#263238"/><path d="M180.369,392.35q-.341-1.683-.682-3.367a4.992,4.992,0,0,0-.57-1.713,1.7,1.7,0,0,0-1.5-.857c-2.029-.27-4.882-1-6.569.156a15.136,15.136,0,0,1-9.075,2.636,31.641,31.641,0,0,0-5.02-.2,4.492,4.492,0,0,0-3.893,2.735,3.241,3.241,0,0,0-.086,1.462,4.022,4.022,0,0,0,.889,1.934,5.955,5.955,0,0,0,3.086,1.818,15.592,15.592,0,0,0,3.609.393c3.695.087,7.268-.579,10.974.092a19.527,19.527,0,0,0,4.987.638,4.373,4.373,0,0,0,3.944-2.653,3.459,3.459,0,0,0,.129-.624A7.852,7.852,0,0,0,180.369,392.35Z" fill="#feab45"/><path d="M170.558,383.043l-.145,4.386a1.736,1.736,0,0,0,1.611,1.793,27.453,27.453,0,0,0,4.42-.043,2.5,2.5,0,0,0,2.26-2.349l.174-3.239Z" fill="#ffa8a7"/><path d="M170.558,383.043l-.145,4.386a1.736,1.736,0,0,0,1.611,1.793,27.453,27.453,0,0,0,4.42-.043,2.5,2.5,0,0,0,2.26-2.349l.174-3.239Z" opacity="0.4"/><path d="M199.194,380.71a3.389,3.389,0,0,1-.587,1.811,3.3,3.3,0,0,1-2.07,1.165,5.223,5.223,0,0,1-5.137-2.114c-.552-.8-.866-1.738-1.388-2.556a11.606,11.606,0,0,0-2.88-2.8,12.145,12.145,0,0,1-2.9-2.781,4.1,4.1,0,0,1-.555-3.71,2.982,2.982,0,0,0-.271.466,4.213,4.213,0,0,0,.52,3.951,12.414,12.414,0,0,0,2.962,2.866,11.934,11.934,0,0,1,2.939,2.888c.532.843.852,1.812,1.415,2.635a5.308,5.308,0,0,0,5.242,2.18,3.359,3.359,0,0,0,2.112-1.2,4.082,4.082,0,0,0,.614-2.52C199.206,380.9,199.2,380.8,199.194,380.71Z" fill="#263238"/><path d="M197.863,375.2c-1.333-2.337-4.082-4.037-6.2-5.692a7.962,7.962,0,0,0-4.111-1.867,3.854,3.854,0,0,0-3.829,1.957c-.019.039-.028.081-.045.122a4.1,4.1,0,0,0,.555,3.71,12.145,12.145,0,0,0,2.9,2.781,11.606,11.606,0,0,1,2.88,2.8c.522.818.836,1.757,1.388,2.556a5.223,5.223,0,0,0,5.137,2.114,3.3,3.3,0,0,0,2.07-1.165,3.389,3.389,0,0,0,.587-1.811c.014-.212.018-.424.014-.633A10.3,10.3,0,0,0,197.863,375.2Z" fill="#feab45"/><path d="M192.082,373.178v3.986a6.687,6.687,0,0,0,6.2-.274l.373-3.587Z" fill="#ffa8a7"/><path d="M192.082,373.178v3.986a6.687,6.687,0,0,0,6.2-.274l.373-3.587Z" opacity="0.4"/><path d="M199.705,300.858c1.2,3.588.827,22.393.129,38.735,1.14,7.954,1.1,25.186-.393,37.642a12.71,12.71,0,0,1-9.939.2l-3.524-37.812-.816-19.431s-1.476,17.239-3.17,28.3c.614,8.119-.727,23.644-1.922,40.2,0,0-6.4,3.733-12.746-.354-2.226-36.605,1.387-73.678,2.123-85.682Z" fill="#37474f"/><path d="M185.659,332.023l-.665-15.847c4.1,0,7.9-3.062,10.786-5.964a18.318,18.318,0,0,1-8.158,7.138Z" opacity="0.3"/><path d="M168.822,272.588v31.035c18.274,7.657,30.117.74,31.724-2.858-.842-12.634,2.144-27.411,1.915-33.69s-1-13.351-10.735-11.933l-10.352,1.01-5.252,1.276Z" fill="#455a64"/><path d="M159.122,270.9l-3.487,3.63-19.444-7.669a40.219,40.219,0,0,0-.365-5.32c-.114-.556-.422-1.038-.988-1.038h0c-.382,0-.925.62-.989,1.627-.013.192-.038,1.3-.068,1.631a.762.762,0,0,1-1.337.43,8.606,8.606,0,0,1-1.069-1.4l-.3-.859a12.512,12.512,0,0,1-.306-2.757s-2.493.7-3.027,4.126a12.24,12.24,0,0,0-.157,4.3c.6,2.042,2.388,2.922,5.467,3.928,6.143,4.281,14.718,9.293,19.334,11.928a6.023,6.023,0,0,0,6.336-.227l7.377-4.93Z" fill="#ab6060"/><path d="M153.5,278.987a10.447,10.447,0,0,1,2.138-4.455l-1.666-.656C152.875,274.814,152.546,277.285,153.5,278.987Z" fill="#873e3e"/><path d="M158.262,270.926l9.813-9.654a13.8,13.8,0,0,1,8.068-3.868l.176-.021c4.156,9.1-1.338,13.543-1.338,13.543l-9.124,8.383A16.479,16.479,0,0,1,158.262,270.926Z" fill="#37474f"/><path d="M191.213,249.463a18.947,18.947,0,0,0,6.168-11.588,6.438,6.438,0,0,0-.4-3.636c-.553-1.106-1.966-2.268-3.167-1.974a5.2,5.2,0,0,0-2.085-3.913,7.07,7.07,0,0,0-3.677-.778c-1.268.02-2.531.207-3.8.21-2.006,0-6.552-.567-8.35-1.455a5.572,5.572,0,0,0,1.009,3.248c-1.3-.241-2.468-1.381-3.506-2.2a6.684,6.684,0,0,0,2.081,4.592c-1.759-.168-2.085,2.872.921,2.872C177.73,248.032,186.848,253.157,191.213,249.463Z" fill="#263238"/><path d="M175.223,240.154,173.588,243l1.618.6A33.433,33.433,0,0,1,175.223,240.154Z" fill="#873e3e"/><path d="M176.409,234.837a22.976,22.976,0,0,0-1.186,5.317,33.433,33.433,0,0,0-.017,3.439,32.854,32.854,0,0,0,.561,4.8,5.2,5.2,0,0,0,.947,2.409,3.783,3.783,0,0,0,2.617,1.2,11.287,11.287,0,0,0,2.936-.283v4.66c3.537.835,6.468,1.2,9.241-.931l-.295-5.995a8.653,8.653,0,0,1-4.979-.786c-2.444-1.318-3.128-3.424-2.784-4.6a1.838,1.838,0,0,0,1.911.672,2.573,2.573,0,0,0,1.586-1.26,5.284,5.284,0,0,0,.592-1.984,3.618,3.618,0,0,0-.363-2.458,2.57,2.57,0,0,0-2.767-.933,3.961,3.961,0,0,0-2.33,1.948,6.144,6.144,0,0,0-.41.892.553.553,0,0,1-1.072-.137,7.369,7.369,0,0,1,.7-3.9,2.914,2.914,0,0,1-1.306.3,1.647,1.647,0,0,1-1.251-.583,1.117,1.117,0,0,1-.049-1.324A2.8,2.8,0,0,1,176.409,234.837Z" fill="#ab6060"/><path d="M209.277,247.278a4.029,4.029,0,0,1,3.833,2.562c-.157-4.448-2.821-3.733-3.563-3.383Z" fill="#873e3e"/></g></svg>