<svg xmlns="http://www.w3.org/2000/svg" width="153" height="20" fill="none"  xmlns:v="https://vecta.io/nano"><path d="M32.492 13.3h1.337v-2.695h2.695V9.258H33.83v-2.7h-1.337v2.7h-2.7v1.337h2.7V13.3zm9.733 1.85c2.078 0 3.604-1.243 3.6-2.933.005-1.288-.776-2.212-2.128-2.42v-.08c1.064-.273 1.755-1.11 1.75-2.252.005-1.496-1.223-2.774-3.182-2.774-1.87 0-3.37 1.13-3.42 2.784h1.486c.035-.935.915-1.5 1.914-1.5 1.04 0 1.72.63 1.715 1.57.005.984-.785 1.63-1.914 1.63h-.86v1.253h.86c1.412 0 2.227.716 2.227 1.74 0 .99-.86 1.66-2.058 1.66-1.104 0-1.964-.567-2.024-1.472h-1.56c.065 1.66 1.536 2.794 3.594 2.794zm9.024 0c2.078 0 3.604-1.243 3.6-2.933.005-1.288-.776-2.212-2.128-2.42v-.08c1.064-.273 1.755-1.11 1.75-2.252.005-1.496-1.223-2.774-3.182-2.774-1.87 0-3.37 1.13-3.42 2.784h1.486c.035-.935.915-1.5 1.914-1.5 1.04 0 1.72.63 1.715 1.57.005.984-.785 1.63-1.914 1.63h-.86v1.253h.86c1.412 0 2.227.716 2.227 1.74 0 .99-.86 1.66-2.058 1.66-1.104 0-1.964-.567-2.023-1.472h-1.56c.065 1.66 1.536 2.794 3.595 2.794zm9.527-.14h1.606l4.43-8.82V4.818H60.08v1.317h5.14V6.2L60.776 15zm14.83.14c2.048 0 3.5-1.447 3.505-3.43.005-1.97-1.367-3.4-3.222-3.4-.756 0-1.457.288-1.854.676h-.06l.323-2.85h4.32V4.818H73.02l-.572 5.13 1.407.21c.383-.343 1.07-.577 1.685-.577 1.208.01 2.083.915 2.083 2.158 0 1.223-.85 2.108-2.02 2.108-.984 0-1.765-.626-1.844-1.5h-1.49c.06 1.62 1.467 2.794 3.336 2.794zm8.866 0c2.078 0 3.604-1.243 3.6-2.933.005-1.288-.776-2.212-2.128-2.42v-.08c1.064-.273 1.755-1.11 1.75-2.252.005-1.496-1.223-2.774-3.182-2.774-1.87 0-3.37 1.13-3.42 2.784h1.487c.035-.935.915-1.5 1.914-1.5 1.04 0 1.72.63 1.715 1.57.005.984-.785 1.63-1.914 1.63h-.86v1.253h.86c1.412 0 2.227.716 2.227 1.74 0 .99-.86 1.66-2.058 1.66-1.104 0-1.964-.567-2.023-1.472h-1.56c.065 1.66 1.536 2.794 3.594 2.794zm8.97-2.128h4.827V15h1.467v-1.99h1.348V11.71h-1.348v-6.89H97.84l-4.4 6.95v1.243zm4.837-1.303h-3.227v-.08L98.2 6.648h.08v5.06zm4.536 3.29h6.702v-1.318h-4.584v-.074l2.024-2.118c1.864-1.884 2.396-2.784 2.396-3.923 0-1.636-1.332-2.888-3.25-2.888-1.905 0-3.297 1.233-3.297 3.092h1.467c-.005-1.094.7-1.8 1.8-1.8 1.034 0 1.82.636 1.82 1.65 0 .9-.537 1.546-1.63 2.705l-3.446 3.57V15zm15.732.14c2.118 0 3.614-1.203 3.624-2.854-.01-1.283-.9-2.36-2.048-2.565v-.06c.99-.24 1.66-1.168 1.67-2.267-.01-1.556-1.382-2.714-3.246-2.714-1.885 0-3.257 1.158-3.247 2.714-.01 1.094.66 2.028 1.67 2.267v.06c-1.16.204-2.06 1.283-2.05 2.565-.01 1.65 1.487 2.854 3.625 2.854zm0-1.258c-1.273 0-2.078-.676-2.068-1.695-.01-1.06.865-1.815 2.068-1.815 1.183 0 2.058.756 2.068 1.815-.01 1.02-.8 1.695-2.068 1.695zm0-4.738c-1.03 0-1.76-.65-1.75-1.62-.01-.955.696-1.586 1.75-1.586 1.034 0 1.74.63 1.75 1.586-.01.97-.736 1.62-1.75 1.62zm8.96 5.996c2.128.02 3.54-1.51 3.535-3.465.005-1.95-1.412-3.346-3.177-3.346-1.074 0-2.004.517-2.526 1.377h-.074c.005-2.312.88-3.684 2.37-3.684.98 0 1.596.597 1.805 1.442h1.516c-.234-1.61-1.5-2.784-3.32-2.784-2.366 0-3.843 2.033-3.843 5.573-.005 3.75 1.904 4.872 3.714 4.887zm-.005-1.293c-1.183 0-2.05-.994-2.05-2.138s.9-2.133 2.084-2.133c1.163 0 2.018.94 2.013 2.118.005 1.203-.885 2.153-2.048 2.153zM136.558 15h6.7v-1.318h-4.584v-.074L140.7 11.5c1.864-1.884 2.396-2.784 2.396-3.923 0-1.636-1.332-2.888-3.25-2.888-1.904 0-3.296 1.233-3.296 3.092h1.466c-.005-1.094.7-1.8 1.8-1.8 1.034 0 1.82.636 1.82 1.65 0 .9-.537 1.546-1.63 2.705l-3.445 3.57V15zm12.13.14c2.078 0 3.605-1.243 3.6-2.933.005-1.288-.776-2.212-2.128-2.42v-.08c1.064-.273 1.755-1.11 1.75-2.252.005-1.496-1.223-2.774-3.182-2.774-1.87 0-3.37 1.13-3.42 2.784h1.486c.035-.935.915-1.5 1.914-1.5 1.04 0 1.72.63 1.715 1.57.005.984-.785 1.63-1.914 1.63h-.86v1.253h.86c1.412 0 2.228.716 2.228 1.74 0 .99-.86 1.66-2.06 1.66-1.103 0-1.964-.567-2.023-1.472h-1.56c.064 1.66 1.536 2.794 3.594 2.794z" fill="#a0dae1"/><g clip-path="url(#A)"><path d="M3.333 0C1.487 0 0 1.487 0 3.333v13.333C0 18.513 1.487 20 3.333 20h13.333C18.513 20 20 18.513 20 16.667V3.333C20 1.487 18.513 0 16.667 0H3.333zM10 3.75c3.443 0 6.25 2.807 6.25 6.25s-2.807 6.25-6.25 6.25c-.957 0-1.885-.25-2.74-.672l-3.477.653.64-3.49c-.422-.855-.674-1.784-.674-2.74 0-3.443 2.807-6.25 6.25-6.25zm0 1.563c-2.598 0-4.687 2.09-4.687 4.688a4.65 4.65 0 0 0 .599 2.284l.137.246-.32 1.746 1.735-.325.247.14a4.67 4.67 0 0 0 2.288.597c2.598 0 4.688-2.09 4.688-4.687S12.598 5.312 10 5.312h0zM8.13 6.978c.13.001.224.006.3.02s.137.033.184.075.07.1.093.15l.415 1.222c.048.124.032.246-.018.352s-.127.2-.207.283l-.218.23c-.056.068-.077.122-.075.15.003.036.036.13.098.233s.147.222.236.34c.18.237.383.472.474.565a6.61 6.61 0 0 0 .558.472l.34.23c.104.06.2.1.236.104.028.002.084-.025.15-.08s.14-.134.225-.213.176-.158.282-.208.232-.07.357-.022l1.224.415c.095.036.16.1.195.185s.04.18.046.317c.006.144-.01.363-.16.583s-.43.437-.93.592c-.52.162-1.18-.028-1.805-.345s-1.218-.767-1.603-1.152-.83-.98-1.147-1.605-.507-1.284-.345-1.805c.145-.468.34-.738.542-.894a.89.89 0 0 1 .553-.191v-.002z" fill="#fff"/></g><defs><clipPath id="A"><path fill="#fff" d="M0 0h20v20H0z"/></clipPath></defs></svg>