<svg xmlns="http://www.w3.org/2000/svg" width="615.034" height="435.767"><path d="M157.246 153.758s-5.6-4.583-14.382 9.024-12.407 21.6-12.407 21.6-2.242 2.81-4.106.633-4.124-8.045-7.739-7.4c-3.749.669-5.365 4.611-5.282 10.656s-.221 19.293-.253 20.491c-.031 1.176-.876 2.827-2.384 1.547s-9.776-12.628-14.926-8.383-2.152 21.047-1.859 22.89-.137 2.573-1.035 2.93-3.317-3.72-5.8-6.851-5.912-6.327-8.679-3.628-4.808 14.865 4.811 35.951l5.1 9.479 10.8.5c23.175-.331 33.3-7.383 34.552-11.038s-3.1-5.386-6.993-6.291-8.613-1.347-8.675-2.311.415-1.665 2.206-2.189 18.258-5.005 19.891-11.476-12.162-9.088-13.964-9.9-.671-2.285.378-2.816c1.069-.542 12.914-6.487 18.412-9s8.37-5.659 7.37-9.333c-.965-3.544-7.234-3.074-10-3.828s-1.186-3.982-1.186-3.982 5.677-6.693 14.215-20.458 1.821-16.9 1.821-16.9" fill="#ebebeb"/><path d="M86.391 264.449c6.31-10.084 17.827-27.819 27.635-43.1s18.669-29.107 25.029-39.159l7.521-11.911 2.047-3.237.539-.838c.124-.187.194-.279.194-.279s-.051.1-.165.3l-.511.855-1.994 3.27a1391.356 1391.356 0 01-7.431 11.969c-6.31 10.084-15.143 23.94-24.948 39.213s-21.355 32.99-27.716 43.041" fill="#e0e0e0"/><path d="M121.441 185.95a3.453 3.453 0 01.2.754c.107.489.24 1.2.4 2.081.309 1.761.675 4.205 1.03 6.909l.883 6.924.28 2.1a3.554 3.554 0 01.074.775 3.434 3.434 0 01-.2-.753c-.1-.489-.239-1.2-.386-2.083-.292-1.765-.626-4.212-.98-6.916l-.933-6.915-.291-2.1a3.571 3.571 0 01-.077-.776zM125.264 205.78c-.016-.091 4.989-1.067 11.177-2.179s11.221-1.942 11.237-1.851-4.987 1.067-11.178 2.18-11.219 1.941-11.236 1.85zM109.147 228.558a3.761 3.761 0 01.794.045l2.148.228c1.813.189 4.318.44 7.092.615s5.292.26 7.115.3l2.159.051a3.667 3.667 0 01.793.057 3.637 3.637 0 01-.792.073 56.12 56.12 0 01-2.162.055 98.245 98.245 0 01-14.234-.915c-.9-.129-1.635-.241-2.137-.333a3.593 3.593 0 01-.776-.176zM101.742 211.383a3.1 3.1 0 01.358.642l.862 1.8c.715 1.527 1.681 3.646 2.729 5.994s1.982 4.484 2.641 6.035l.766 1.845a3.042 3.042 0 01.238.7 3.145 3.145 0 01-.357-.642l-.863-1.8c-.714-1.527-1.681-3.646-2.73-6s-1.981-4.482-2.64-6.034c-.3-.726-.557-1.343-.765-1.844a3.124 3.124 0 01-.239-.696zM84.958 229.684a5.068 5.068 0 01.45.825l1.114 2.3c.927 1.952 2.187 4.657 3.559 7.654s2.6 5.72 3.471 7.7l1.017 2.349a5.083 5.083 0 01.331.879 4.974 4.974 0 01-.449-.825c-.29-.6-.664-1.375-1.114-2.3-.927-1.952-2.187-4.658-3.56-7.656s-2.6-5.719-3.47-7.7l-1.017-2.348a5.073 5.073 0 01-.332-.878zM94.809 250.808a5.772 5.772 0 011.007.031l2.733.19c2.308.158 5.5.364 9.023.492s6.722.17 9.035.18l2.74.014a5.759 5.759 0 011.006.044 5.855 5.855 0 01-1 .086c-.647.035-1.583.069-2.741.092-2.315.05-5.517.051-9.05-.082s-6.724-.372-9.029-.591a77.096 77.096 0 01-2.727-.3 6.039 6.039 0 01-.997-.156zM69.129 191.896a28.788 28.788 0 01-.279 4.93 35.853 35.853 0 01-4.5 13.232l-.1-.181h.217l-.1.182-28.011 49.672-.176.311-.19-.3-29.609-47.235-1.456-2.325-.226-.361h.426l-.2.353a36.3 36.3 0 01-4.462-12.477 34.544 34.544 0 01-.444-6.492q.089-1.612.175-3.213l.477-3.156a36.415 36.415 0 0112.087-20.667 35.026 35.026 0 019.741-5.725l1.288-.48.641-.239.657-.175 2.61-.68a36.4 36.4 0 015.219-.633 35.1 35.1 0 015.076.091c.828.066 1.637.245 2.444.36l1.2.194c.4.083.779.2 1.167.3l2.292.621 2.173.828c.356.141.718.264 1.064.418l1.011.506 1.982 1a35.9 35.9 0 0111.5 10.617 36.553 36.553 0 015.011 10.722 32.457 32.457 0 01.883 4.236 23.425 23.425 0 01.335 3.15l.067 1.947c.013.438.007.662.007.662s-.026-.224-.054-.662-.064-1.1-.114-1.941a24.171 24.171 0 00-.378-3.135 32.95 32.95 0 00-.92-4.208 36.654 36.654 0 00-5.051-10.623 35.727 35.727 0 00-11.45-10.479l-1.964-.983-1-.5c-.343-.151-.7-.271-1.055-.409l-2.152-.814-2.271-.606c-.383-.1-.764-.215-1.155-.3l-1.19-.188c-.8-.111-1.6-.286-2.418-.349a34.635 34.635 0 00-5.02-.077 36.113 36.113 0 00-5.157.637l-2.577.678-.649.174-.632.237-1.272.477a34.682 34.682 0 00-9.612 5.672 36.018 36.018 0 00-11.92 20.435l-.468 3.116-.171 3.174a34.1 34.1 0 00.442 6.41 35.856 35.856 0 004.407 12.314l.207.354H5.12l.2-.359 1.456 2.324 29.572 47.256-.366.008 28.17-49.583.1.18h-.219l.106-.182a36.228 36.228 0 004.576-13.128c.23-1.594.3-2.827.349-3.655l.035-.939c.009-.224.03-.319.03-.319z" fill="#e0e0e0"/><path d="M56.564 191.501a2.012 2.012 0 01-.041-.354l-.073-1.038-.048-.764c-.017-.279-.091-.583-.141-.913a15.98 15.98 0 00-.457-2.255 20.9 20.9 0 00-2.419-5.794 21.7 21.7 0 00-26.038-9.309 19.848 19.848 0 00-5.488 2.938 19.828 19.828 0 00-4.59 4.588 21 21 0 00-3.11 5.959 21.473 21.473 0 00-.036 13.665 20.98 20.98 0 003.08 5.976 19.777 19.777 0 004.567 4.614 19.9 19.9 0 005.474 2.966 21.754 21.754 0 0026.086-9.179 20.9 20.9 0 002.447-5.781 16.014 16.014 0 00.469-2.252c.051-.33.113-.633.145-.912l.052-.764.078-1.037a1.977 1.977 0 01.043-.354 2.073 2.073 0 010 .355l-.032 1.042-.029.77c-.025.281-.08.587-.124.92a15.556 15.556 0 01-.43 2.277 20.7 20.7 0 01-2.4 5.871 22.027 22.027 0 01-14.857 10.41 22.111 22.111 0 01-11.6-.96 20.325 20.325 0 01-5.593-3.012 20.234 20.234 0 01-4.671-4.7 21.409 21.409 0 01-3.152-6.1 21.9 21.9 0 01.037-13.961 21.4 21.4 0 013.183-6.083 20.234 20.234 0 014.693-4.677 20.328 20.328 0 015.608-2.983 22.113 22.113 0 0111.607-.9 22.037 22.037 0 0114.8 10.484 20.735 20.735 0 012.37 5.884 15.422 15.422 0 01.418 2.28c.043.333.1.638.119.92s.018.538.026.77l.027 1.043a2.032 2.032 0 010 .35z" fill="#e0e0e0"/><path d="M34.242 201.69l-12.727-8.877 3.1-4.439 8.531 5.952 11.039-14.023 4.254 3.348z" fill="#e0e0e0"/><path d="M390.3 37.325a42.124 42.124 0 0110.821 2.858l7.954-6.666 13.662 10.4-4.3 9.443a42.046 42.046 0 015.639 9.67l10.334.91 2.305 17.018-9.716 3.632a41.959 41.959 0 01-2.86 10.823l6.666 7.954-10.4 13.662-9.443-4.3a42.089 42.089 0 01-9.672 5.637l-.908 10.334-17.016 2.31-3.631-9.718a41.99 41.99 0 01-10.822-2.859l-7.956 6.667-13.663-10.4 4.307-9.444a42.135 42.135 0 01-5.639-9.669l-10.332-.911-2.308-17.018 9.717-3.631a41.964 41.964 0 012.859-10.824l-6.667-7.954 10.4-13.662 9.444 4.305a42.05 42.05 0 019.671-5.638l.91-10.333 17.013-2.309 3.634 9.717zm-5.1 23.462a18.422 18.422 0 1018.5 14.09 18.427 18.427 0 00-18.503-14.09z" fill="#f5f5f5" fill-rule="evenodd"/><path d="M235.361 91.722a27.332 27.332 0 017.025 1.855l5.163-4.327 8.869 6.75-2.794 6.13a27.332 27.332 0 013.66 6.277l6.709.591 1.5 11.044-6.307 2.358a27.243 27.243 0 01-1.856 7.025l4.327 5.164-6.752 8.869-6.13-2.794a27.36 27.36 0 01-6.278 3.66l-.59 6.708-11.046 1.5-2.357-6.308a27.254 27.254 0 01-7.025-1.856l-5.164 4.328-8.869-6.751 2.795-6.13a27.383 27.383 0 01-3.66-6.276l-6.707-.592-1.5-11.044 6.308-2.357a27.21 27.21 0 011.856-7.026l-4.323-5.162 6.749-8.868 6.131 2.795a27.313 27.313 0 016.277-3.661l.591-6.707 11.044-1.5 2.358 6.307zm-3.312 15.23a11.958 11.958 0 1012.01 9.146 11.961 11.961 0 00-12.01-9.146z" fill="#ebebeb" fill-rule="evenodd"/><path d="M328.032 172.448a14.6 14.6 0 013.993 2.64 19.233 19.233 0 016.19 11.378 19.476 19.476 0 01-.684 9.067 19.774 19.774 0 01-5.709 8.737 19.785 19.785 0 01-10.481 4.791 19.711 19.711 0 01-20.589-11.293 19.789 19.789 0 01-1.593-11.415 19.784 19.784 0 014.3-9.512 19.486 19.486 0 017.279-5.448 19.238 19.238 0 0112.921-.893 14.607 14.607 0 014.372 1.948c-.057.125-1.529-.791-4.48-1.53a19.259 19.259 0 00-12.495 1.192 18.875 18.875 0 00-10.888 14.4 18.874 18.874 0 001.568 10.8 18.719 18.719 0 0019.461 10.675 18.878 18.878 0 009.949-4.482 18.878 18.878 0 006.293-16.919 19.255 19.255 0 00-5.709-11.179c-2.208-2.092-3.772-2.841-3.698-2.957z" fill="#ebebeb"/><path d="M348.656 156.877a4.16 4.16 0 01.148-.662c.129-.489.3-1.145.525-1.993l2.151-7.855.085.2-15.841-8.57.346-.06-7.178 8.177-.129.148-.193-.047a44.049 44.049 0 00-11.586-1.226l-.22.006-.108-.194c-1.655-2.962-3.446-6.17-5.309-9.5l.456.187-17.277 5.081.313-.446.684 10.866.018.276-.239.144a43.811 43.811 0 00-9.05 7.284l-.2.211-.28-.08-10.465-2.981.569-.238c-2.715 4.964-5.642 10.317-8.643 15.8l-.11-.635 8.155 7.2.238.21-.076.311a43.949 43.949 0 00-1.249 11.533l.009.324-.285.158-9.518 5.287.258-.627c1.6 5.474 3.311 11.341 5.048 17.289l-.563-.4 10.868-.665.335-.02.173.287a43.658 43.658 0 007.247 9.037c.068.248-.149-.552.152.556v.01l-.006.021-.011.041-.024.082-.047.165-.1.33-.188.658-.377 1.315-.752 2.624-1.494 5.215-.266-.638 15.791 8.667-.675.117 7.214-8.146.219-.247.32.079a43.638 43.638 0 0011.529 1.267l.326-.008.157.284 5.274 9.524-.609-.251 17.294-5.023-.366.52q-.332-5.53-.65-10.867l-.018-.3.258-.155a43.712 43.712 0 009.07-7.251l.2-.211.279.08 10.455 3.013-.531.222 8.7-15.773.091.522-8.132-7.232-.18-.161.058-.233a43.94 43.94 0 001.301-11.552l-.005-.222.192-.106 9.537-5.248-.155.378-4.965-17.314.254.179-10.87.592-.109.006-.055-.092a45.724 45.724 0 00-5.221-7.111l-1.485-1.6a4.507 4.507 0 01-.487-.537 5.632 5.632 0 01.553.472c.351.331.882.833 1.554 1.544a42.709 42.709 0 015.392 7.051l-.164-.086 10.862-.733.2-.013.057.192 5.116 17.269.074.251-.23.128-9.5 5.313.187-.328a44.512 44.512 0 01-1.251 11.778l-.122-.393 8.167 7.192.254.224-.163.3c-2.729 5-5.6 10.247-8.632 15.808l-.177.322-.355-.1-10.465-2.977.479-.131a44.584 44.584 0 01-9.252 7.441l.24-.455.675 10.865.026.407-.393.115-17.283 5.057-.4.119-.206-.37-5.289-9.514.482.275a44.633 44.633 0 01-11.816-1.284l.537-.167-7.207 8.153-.29.329-.385-.211-15.8-8.659-.388-.212.122-.426 1.494-5.216.751-2.623.377-1.315.188-.659.1-.329.047-.165.023-.082.012-.041.006-.021v-.01c.3 1.106.083.3.149.552a44.713 44.713 0 01-7.43-9.268l.507.266-10.867.661-.44.026-.124-.422-5.043-17.308-.121-.417.379-.211 9.525-5.274-.276.482a44.916 44.916 0 011.3-11.811l.162.52-8.14-7.22-.309-.274.2-.361 8.68-15.781.19-.347.38.109 10.455 3.012-.477.13a44.6 44.6 0 019.27-7.409l-.22.419-.641-10.868-.021-.349.334-.1 17.3-5 .3-.088.151.275 5.255 9.536-.327-.188a44.568 44.568 0 0111.76 1.323l-.321.1 7.244-8.12.15-.169.2.109 15.74 8.753.126.07-.041.134c-1 3.355-1.774 5.941-2.311 7.734l-.616 2a5.122 5.122 0 01-.239.683zM390.997 174.958l-15.692-62.4 63.847-1.055z" fill="#ebebeb"/><path fill="#ebebeb" d="M397.968 152.527l21.914-28.916 116.936 88.619-21.914 28.916z"/><path d="M505.215 334.482l8.11 18.388s-15.967 14.42-14.8 17.964l36.219-14.445-11.461-29.17z" fill="#e8505b"/><path d="M505.215 334.482l8.11 18.388s-15.967 14.42-14.8 17.964l36.219-14.445-11.461-29.17z" opacity=".5"/><path d="M534.748 356.389l-1.27-2.895-34.251 14.932s-1.333 1.345-.7 2.408z" fill="#263238"/><path d="M568.999 360.53l10.152 17.344s-14.22 16.145-12.656 19.533l34.337-18.477-14.709-27.672z" fill="#e8505b"/><path d="M568.999 360.53l10.152 17.344s-14.22 16.145-12.656 19.533l34.337-18.477-14.709-27.672z" opacity=".5"/><path d="M600.832 378.93l-1.591-2.731-32.326 18.737s-1.171 1.487-.419 2.471z" fill="#263238"/><path d="M524.692 117.233l-22.257 1.734-.739-12.461s-8.978-.131-10.321-8.9-2.657-29.154-2.657-29.154a30.828 30.828 0 0131.218-.457l1.443.819z" fill="#ffbe9d"/><path d="M501.664 106.381a20.626 20.626 0 0010.994-4.865s-1.946 6.9-10.823 7.338z" fill="#eb996e"/><path d="M521.576 78.065c.141-.086 5.785-2.634 6.437 3.4s-5.538 5.443-5.568 5.271-.869-8.671-.869-8.671z" fill="#ffbe9d"/><path d="M524.041 84.25c.024-.022.113.062.3.125a1.06 1.06 0 00.788-.069 2.614 2.614 0 00.95-2.463 3.48 3.48 0 00-.456-1.473 1.219 1.219 0 00-.878-.721.537.537 0 00-.589.355c-.063.177-.011.294-.042.307-.015.017-.141-.087-.119-.341a.676.676 0 01.2-.4.8.8 0 01.565-.216 1.485 1.485 0 011.2.816 3.587 3.587 0 01.546 1.642 2.743 2.743 0 01-1.251 2.771 1.132 1.132 0 01-.978-.055c-.209-.133-.256-.264-.236-.278z" fill="#eb996e"/><path d="M492.508 82.258a1.267 1.267 0 001.388 1.1 1.212 1.212 0 001.134-1.313 1.268 1.268 0 00-1.387-1.1 1.213 1.213 0 00-1.135 1.313zM492.115 80.576c.179.141 1.03-.7 2.381-.882 1.346-.205 2.434.35 2.558.164.061-.083-.139-.356-.614-.61a3.476 3.476 0 00-2.076-.333 3.34 3.34 0 00-1.866.906c-.368.377-.467.692-.383.755zM505.637 80.737a1.267 1.267 0 001.387 1.1 1.211 1.211 0 001.134-1.313 1.267 1.267 0 00-1.386-1.1 1.212 1.212 0 00-1.135 1.313zM505.422 78.958c.179.142 1.031-.7 2.381-.881 1.346-.206 2.434.349 2.558.163.061-.083-.137-.356-.615-.609a3.47 3.47 0 00-2.075-.334 3.336 3.336 0 00-1.866.906c-.37.381-.469.696-.383.755zM501.931 89.658a8.98 8.98 0 00-2.249-.087c-.349.012-.685-.01-.776-.237a1.762 1.762 0 01.086-1.054q.311-1.32.65-2.769a45.407 45.407 0 001.324-7.187 45.765 45.765 0 00-1.9 7.064c-.211.97-.414 1.894-.6 2.778a2.02 2.02 0 00.011 1.378.875.875 0 00.638.424 2.323 2.323 0 00.6 0 8.871 8.871 0 002.216-.31zM506.035 90.037c-.222.018-.019 1.484-1.126 2.7s-2.691 1.275-2.673 1.481c-.008.1.388.236 1.049.161a3.682 3.682 0 002.243-1.154 3.2 3.2 0 00.85-2.25c-.03-.617-.244-.961-.343-.938zM504.33 73.721c.184.348 1.508-.016 3.118-.047 1.61-.065 2.953.22 3.116-.139.072-.171-.2-.485-.765-.767a5.418 5.418 0 00-4.75.141c-.549.316-.801.649-.719.812zM492.064 76.599c.281.273 1.166-.176 2.282-.348 1.11-.211 2.094-.084 2.267-.435.074-.17-.118-.456-.573-.688a3.341 3.341 0 00-3.665.632c-.351.37-.436.704-.311.839z" fill="#263238"/><path d="M483.658 63.508a3.274 3.274 0 01.79-3.065 2.324 2.324 0 013.012-.2 2.71 2.71 0 011.849-3.58c1.42-.292 2.794.618 4.232.8a6.586 6.586 0 004.035-1.05c1.226-.706 2.339-1.6 3.588-2.265a11.341 11.341 0 0115.294 4.575 5.037 5.037 0 015.571 1.259 8.261 8.261 0 012.063 5.587 18.457 18.457 0 01-.45 4.083c.016.113.043.222.057.336.588 4.843.839 10.592-1.217 10.913-3.584.561-3.68-6.327-3.68-6.327-4.647-1.083-3.934-7.919-5.177-8.765s-3.876-2.851-12.441 3.163a18.046 18.046 0 01-10.784 2.724c-.078-.005-.157-.006-.236-.014h-.054c-.03 0-.052-.015-.081-.02a8.357 8.357 0 01-2.508-.671 4.724 4.724 0 01-2.256-1.894 2.588 2.588 0 01.117-2.821 5.686 5.686 0 01-1.724-2.768z" fill="#263238"/><path d="M501.664 114.142l.993 34.873 21.7-46.711-.543-4.324z" fill="#ebebeb"/><path d="M516.059 218.391c-.795.26-45.971 45.948-44.956 54.155s33.174 68.984 33.174 68.984l22.944-11.313-21.523-53.283.282-3.305 26.3-21.555-1.4-34.664z" fill="#263238"/><path d="M525.8 227.394c.525.8 8.348 72.574 10.445 76.289s33.52 64.992 33.52 64.992l23.33-9.4-28.48-67.348 3.246-63.74-1.758-18-35.223 7.221z" fill="#263238"/><path d="M535.836 302.42a3.989 3.989 0 01-.153-.719c-.085-.521-.2-1.21-.339-2.072l-1.157-7.636-3.627-25.216-3.483-25.242c-.416-3.193-.755-5.795-1-7.657l-.246-2.085a3.9 3.9 0 01-.052-.732 3.987 3.987 0 01.152.717c.085.522.2 1.211.339 2.072l1.157 7.635 3.628 25.222 3.482 25.238c.416 3.193.755 5.8 1 7.657.1.868.185 1.561.247 2.086a4.114 4.114 0 01.052.732zM564.021 289.868a68.112 68.112 0 01-3.2 11.239 68.367 68.367 0 013.2-11.239zM567.55 306.125a6.551 6.551 0 01-1.273-1.771 17.447 17.447 0 01-2.173-10.191 6.5 6.5 0 01.441-2.136 22.779 22.779 0 003.005 14.1zM498.173 269.203a12.3 12.3 0 016.454 5.886c-.126.084-1.239-1.549-3.025-3.164-1.772-1.63-3.5-2.588-3.429-2.722zM501.715 267.083a10 10 0 013.485 5.643 30.114 30.114 0 01-1.688-2.856 29.837 29.837 0 01-1.797-2.787z" fill="#455a64"/><path d="M504.834 162.372l5.775 28.651 4.7 39.983s19.376-2.706 27.634-5.32c9.578-3.032 30.419-5.614 30.419-5.614l-3.513 3.476c7.457-2.088 12.205-9.2 12.205-9.2-12.853-11.92-23.816-36.441-23.816-36.441l-9.773-48.523s-1.484-6.845-2.379-9.889-15.735-12.863-17.792-14.1l-1.293-.611-.411-3.889-1.529-.915-16.06 14.59a17.4 17.4 0 00-5.589 10.9 125.863 125.863 0 00-.7 18.253c.191 5.68 2.122 18.649 2.122 18.649z" fill="#feab45"/><path d="M515.859 112.739s-8.485 4.549-9.956 8.409 2.9 46.184 2.9 46.184l-30.469.572-.095 18.155s48.395 3.824 50.279 1.208c2.546-3.538 5.505-36.61 5.505-36.61l1.1-23.795s-2.808-18.146-19.264-14.123z" fill="#feab45"/><path d="M510.609 191.023a29.144 29.144 0 0012.2 1.14c4.292-.4 8.658-2.747 10.281-6.74 1.242-3.058.724-6.5.912-9.8.164-2.863.873-5.662 1.3-8.5s-1.037-8.045-1.972-10.755c0 0-1.087 19.647-4.16 27.9a6.755 6.755 0 01-1.884 3.012c-1.087.875-2.594.952-3.982 1.1-3.888.406-13.266-.268-13.266-.268" opacity=".3"/><path d="M535.074 129.433a2.673 2.673 0 010 .432l-.048 1.264-.235 4.861c-.111 2.118-.246 4.7-.4 7.689-.184 3-.282 6.415-.65 10.177a591.157 591.157 0 01-1.2 12.3c-.49 4.416-1.014 9.136-1.854 14.073a30.666 30.666 0 01-.837 3.732 7.284 7.284 0 01-2.2 3.291 5.563 5.563 0 01-3.791 1.354c-1.344.03-2.69 0-4.051-.021-5.439-.134-11.061-.413-16.817-.725a1668.709 1668.709 0 01-24.772-1.564l-.224-.016v-.222l.109-18.126v-.209l.208-.005 29.409-.632 8.227-.143 2.166-.021c.49 0 .743.016.743.016s-.252.028-.741.051l-2.165.086-8.224.261-29.4.812.209-.214-.06 18.126-.222-.24c7.787.532 16.121 1.063 24.766 1.541 5.753.312 11.372.594 16.8.735 1.355.018 2.7.054 4.025.026a5.08 5.08 0 003.5-1.238 6.8 6.8 0 002.057-3.075 30.447 30.447 0 00.826-3.66c.85-4.909 1.389-9.627 1.9-14.036.49-4.413.9-8.529 1.254-12.289.39-3.757.514-7.173.724-10.165l.487-7.682.329-4.853c.041-.537.074-.955.1-1.262a2.915 2.915 0 01.052-.429z" fill="#263238"/><path d="M484.224 185.792a77.425 77.425 0 01-.2-8.8 77.73 77.73 0 01.3-8.8 77.135 77.135 0 01.205 8.8 77.769 77.769 0 01-.305 8.8zM480.993 170.944c-.058-.033.246-.372.825-.18a.937.937 0 01.617.806 1.105 1.105 0 01-.619 1.088 1.134 1.134 0 01-1.225-.226 1.025 1.025 0 01-.3-.959c.137-.575.538-.7.551-.639.049.057-.19.269-.2.682a.693.693 0 00.252.571.716.716 0 00.711.114.686.686 0 00.365-.6.588.588 0 00-.3-.51c-.355-.214-.646-.082-.677-.147z" fill="#263238"/><path d="M548.6 133.538s15.851 20.725 17.782 26.374.439 13.757-2.789 17.634-5.832 2.3-5.832 2.3z" fill="#feab45"/><path d="M557.194 178.184a33.22 33.22 0 01-8.03 1.378 33.243 33.243 0 018.03-1.378zM560.241 193.465a5.336 5.336 0 01.43 1.094c.241.714.6 1.743 1.075 3a89.142 89.142 0 004.258 9.6 101.088 101.088 0 005.325 9.063c.74 1.125 1.351 2.029 1.778 2.65a5.376 5.376 0 01.619 1 5.2 5.2 0 01-.776-.883 50.58 50.58 0 01-1.914-2.566 77.756 77.756 0 01-5.478-9.033 70.637 70.637 0 01-4.146-9.716c-.43-1.282-.744-2.331-.928-3.065a5.313 5.313 0 01-.243-1.144z" fill="#263238"/><path d="M561.315 195.921c2.512 4.477 5.094 9.041 8.921 12.463a23.069 23.069 0 013.893 3.771c1.03 1.491 1.475 3.576.5 5.1a1.6 1.6 0 01-1.58.854 2.026 2.026 0 01-1.034-.839 61.734 61.734 0 01-10.525-20.666M559.225 179.771c2.171-1.559 2.931-4.526 2.609-7.179a26.584 26.584 0 00-2.633-7.537 124.091 124.091 0 01-7.72-22.643l-1.549-5.749 7.841 41.02z" opacity=".3"/><path d="M519.985 110.897a35.076 35.076 0 012.954-2.951 35.182 35.182 0 012.951-2.955 17.534 17.534 0 01-5.9 5.906zM518.383 114.409c.025.084-.915.367-2.318 1.061a18.425 18.425 0 00-8.414 8.514c-.677 1.411-.948 2.354-1.033 2.33-.034-.009.007-.251.109-.685a11.413 11.413 0 01.6-1.79 16.551 16.551 0 018.589-8.691 11.313 11.313 0 011.782-.621 1.876 1.876 0 01.685-.118zM560.954 183.893a1.687 1.687 0 01-.249-.4l-.635-1.189-2.281-4.463-.009-.017-.005-.024a1873.826 1873.826 0 01-3.918-18.534l-3.621-17.861-1.04-5.424c-.1-.6-.19-1.086-.258-1.48a.264.264 0 11.1-.021l.35 1.461c.3 1.344.7 3.169 1.2 5.392l3.764 17.832c1.525 7.367 2.866 14 3.759 18.567l-.014-.041 2.143 4.531.555 1.229a1.756 1.756 0 01.159.442zM508.28 167.316a8.923 8.923 0 01-.232-1.5l-.447-4.113c-.355-3.474-.812-8.278-1.285-13.587s-.875-10.119-1.14-13.6l-.288-4.126a8.935 8.935 0 01-.037-1.518 8.685 8.685 0 01.232 1.5l.447 4.113c.356 3.475.812 8.278 1.286 13.587s.874 10.115 1.139 13.6l.288 4.127a8.7 8.7 0 01.037 1.517z" fill="#263238"/><path d="M478.72 170.028s-6.571-4.985-8.174-5.286c-1.228-.23-8.562-.108-11.935-.038a2.414 2.414 0 00-2.42 2.343 1.28 1.28 0 00.023.238 2.2 2.2 0 001.6 1.667 2.557 2.557 0 00-1.776 2.4c-.028 1.9 2.277 2.3 2.277 2.3a3.419 3.419 0 00-.329.293 2.272 2.272 0 001.115 3.813l1.04.236a2.251 2.251 0 00-1.387 1.892c.038 2.507 5.675 2.987 5.675 2.987s13.931 2.205 14.232 2.1.059-14.945.059-14.945z" fill="#ffbe9d"/><path d="M459.907 161.74c.062.826.256 2.584 1.661 3.381l7.763-.3s-5.781-1.995-6.6-2.981a6.68 6.68 0 00-1.108-1.084 1.1 1.1 0 00-1.716.984z" fill="#ffbe9d"/><path d="M465.679 164.741a11.4 11.4 0 01-3.545.251 14.384 14.384 0 01-3.537-.251 11.4 11.4 0 013.545-.251 14.39 14.39 0 013.537.251zM463.935 169.075a11.246 11.246 0 01-6.091-.217 57.691 57.691 0 016.091.217zM467.885 168.522c.115.071-.034.493-.472.776s-.885.248-.9.113.289-.308.63-.534.625-.435.742-.355zM464.79 173.993a22.365 22.365 0 01-6.674-.219 22.365 22.365 0 016.674.219zM469.226 171.918c.062-.018.183.139.22.444a1.6 1.6 0 01-1.358 1.727c-.306.036-.486-.045-.483-.109 0-.137.668-.224 1.112-.794s.375-1.239.509-1.268zM465.962 178.809a18.151 18.151 0 01-5.975-.739 18.222 18.222 0 015.975.739zM470.294 176.358c.064-.009.16.161.151.462a1.871 1.871 0 01-.416 1.054c-.568.688-1.206.937-1.277.844-.1-.119.412-.575.88-1.151s.532-1.183.662-1.209z" fill="#eb996e"/><path d="M567.215 223.967a8.874 8.874 0 006.732-4.241c.159-.268.3-.634.088-.867a.769.769 0 00-.587-.177 18.231 18.231 0 00-6.379 1.094.869.869 0 00-.572.428.879.879 0 00.027.526l.819 3.154" fill="#e8505b"/><path d="M567.215 223.967a8.874 8.874 0 006.732-4.241c.159-.268.3-.634.088-.867a.769.769 0 00-.587-.177 18.231 18.231 0 00-6.379 1.094.869.869 0 00-.572.428.879.879 0 00.027.526l.819 3.154" opacity=".4"/><path d="M501.664 114.142s-3.2 10.728-2.315 10.118 2.79-2.3 2.79-2.3z" fill="#ebebeb"/><path d="M501.848 119.088l-1.747 4.177a5.691 5.691 0 00-.339 1.349c-.144 1.17-.311 3.315.386 3.464a2.347 2.347 0 001.868-.772z" fill="#263238"/><path d="M556.049 119.747s-17.1-6.67-26.563-.78-11.191 15.291-16.828 15.291c-10.994 0-10.642-7.758-10.642-7.758l-2.337.708c-.045 1.587-2.548 12.984 9.038 14.4s16.455-14.382 26.878-14.4a34.6 34.6 0 0118.335 5.637l7.488-4.736z" fill="#263238"/><path d="M512.181 141.414a16.064 16.064 0 006.595-7.566c2.656-6.128 8.357-13.124 13.118-14.881s15.775-2.985 23.382 1.973l4.873 6.582-6.326 4.1a58.742 58.742 0 00-11.147-4.463c-7.862-2.195-12.64.284-17.211 4.61-.284.27-.545.536-.773.793a51.842 51.842 0 01-7.237 6.408c-2.235 1.597-4.256 2.462-5.274 2.444z" fill="#455a64"/><path d="M158.188 48.333c-10.14 1.562-17.573-6.955-19.944-14.539-2.188-7-3.228-14.283-6.3-20.941-4.3-9.306-15.677-13.606-25.891-12.746S85.548 6.085 76.511 10.922l2.493 56.017s19.679-20.955 29.134-21.337c15.778-.637 14.918 25.3 30.239 29.126 0 0 21.478 5.823 36-12.933 9.215-11.9 10.032-26.364 10.032-26.364s-7.063 9.951-26.221 12.902z" fill="#feab45"/><path d="M76.094 1.628c.139-.006 2.9 59.479 6.163 132.845 3.266 73.393 5.8 132.875 5.662 132.881s-2.9-59.466-6.163-132.858c-3.265-73.367-5.8-132.861-5.662-132.868z" fill="#263238"/><path d="M130.255 29.919a68.164 68.164 0 007.46 16.814c2.92 4.573 7.35 8.423 12.662 9.531a12.289 12.289 0 012.842.738 2.748 2.748 0 011.692 2.228c.041 1.467-1.476 2.427-2.792 3.076a23 23 0 01-5.829 2.24c-2.052.384-3.661.6-5.07-.943a29.453 29.453 0 01-3.667-4.394c-4.629-7.887-6.919-19.169-7.3-28.094" opacity=".2"/><path d="M143.967 65.891a2.056 2.056 0 01-.456-.26c-.289-.186-.7-.481-1.211-.89a20.844 20.844 0 01-3.74-4.063 31.173 31.173 0 01-3.744-7.283 80.189 80.189 0 01-2.773-9.625 107.477 107.477 0 01-2.584-17.987 96.078 96.078 0 01-.149-5.507l.033-1.5a2.017 2.017 0 01.047-.522 2.106 2.106 0 01.054.521l.061 1.495c.058 1.3.134 3.173.308 5.486a120.231 120.231 0 002.718 17.9 85.88 85.88 0 002.718 9.578 32.13 32.13 0 003.6 7.24 22.741 22.741 0 003.576 4.118c.971.857 1.567 1.266 1.542 1.299z" fill="#263238"/><path d="M14.951 279.18l133.972 21.932V279.18zM171.039 328.725l133.971 21.933v-21.933zM326.05 376.12l133.971 21.932V376.12zM480.858 413.834l133.971 21.932v-21.932z" fill="#e0e0e0"/><path fill="#feab45" d="M14.951 262.753h133.971v16.427H14.951z"/><path d="M107.117 262.753h41.806v16.427h-41.806z" opacity=".3"/><path fill="#feab45" d="M171.039 312.298H305.01v16.427H171.039z"/><path d="M263.204 312.298h41.806v16.427h-41.806z" opacity=".3"/><path fill="#feab45" d="M326.05 359.692h133.971v16.427H326.05z"/><path d="M418.216 359.692h41.806v16.427h-41.806z" opacity=".3"/><path fill="#feab45" d="M481.062 397.407h133.971v16.427H481.062z"/><path d="M573.228 397.407h41.806v16.427h-41.806z" opacity=".3"/><path d="M532.471 337.615a3.643 3.643 0 103.643-3.644 3.643 3.643 0 00-3.643 3.644z" fill="#ebebeb"/></svg>