<svg width="107" height="107" viewBox="0 0 107 107" fill="none" xmlns="http://www.w3.org/2000/svg">
<path d="M82.5149 57.9405H82.4257L85.8497 18.9212C85.8961 18.3742 85.8342 17.8234 85.6674 17.3004C85.5006 16.7774 85.2322 16.2925 84.8777 15.8734C84.5232 15.4542 84.0895 15.1092 83.6014 14.858C83.1133 14.6067 82.5805 14.4543 82.0334 14.4093L33.0809 10.1293C31.977 10.0301 30.8788 10.3722 30.0265 11.0807C29.1743 11.7893 28.6374 12.8066 28.5334 13.91L28.0875 19.0995H24.1642C23.0744 19.0993 22.0282 19.5273 21.251 20.2912C20.4738 21.0551 20.0277 22.0937 20.009 23.1833V89.9335C20.009 91.0355 20.4468 92.0924 21.2261 92.8716C22.0053 93.6509 23.0622 94.0887 24.1642 94.0887H31.2975C31.6359 94.9137 32.2112 95.6201 32.9507 96.1184C33.6903 96.6167 34.5609 96.8847 35.4527 96.8885H82.5149C83.7006 96.8838 84.8364 96.4107 85.6748 95.5723C86.5132 94.7338 86.9863 93.598 86.991 92.4123V62.4167C86.9863 61.231 86.5132 60.0951 85.6748 59.2567C84.8364 58.4183 83.7006 57.9452 82.5149 57.9405V57.9405ZM32.1 14.2667C32.1067 14.1893 32.1287 14.114 32.1647 14.0451C32.2007 13.9762 32.2499 13.9152 32.3096 13.8654C32.3693 13.8157 32.4382 13.7783 32.5124 13.7553C32.5867 13.7323 32.6647 13.7243 32.742 13.7317L81.7124 18.0117C81.7898 18.0184 81.8651 18.0403 81.9339 18.0763C82.0028 18.1123 82.0639 18.1615 82.1136 18.2212C82.1633 18.2809 82.2008 18.3498 82.2237 18.4241C82.2467 18.4983 82.2547 18.5763 82.2474 18.6537L78.8412 57.9405H77.4859V23.1833C77.4859 22.0813 77.0481 21.0244 76.2688 20.2452C75.4896 19.4659 74.4327 19.0282 73.3307 19.0282H31.7077L32.1 14.2667ZM30.8874 70.5665V90.522H24.1642C24.0081 90.522 23.8584 90.46 23.7481 90.3496C23.6377 90.2393 23.5757 90.0896 23.5757 89.9335V23.1833C23.5757 23.0272 23.6377 22.8776 23.7481 22.7672C23.8584 22.6568 24.0081 22.5948 24.1642 22.5948H73.3307C73.4868 22.5948 73.6365 22.6568 73.7468 22.7672C73.8572 22.8776 73.9192 23.0272 73.9192 23.1833V57.9405H65.5197C63.8984 57.9418 62.326 58.4953 61.0614 59.5098L53.8389 65.2522C53.2018 65.7633 52.4086 66.0403 51.5919 66.0368H35.3992C34.212 66.0368 33.0735 66.5084 32.2341 67.3479C31.3946 68.1873 30.923 69.3258 30.923 70.513L30.8874 70.5665ZM83.4244 92.4123C83.4244 92.6535 83.3285 92.8849 83.158 93.0554C82.9874 93.226 82.7561 93.3218 82.5149 93.3218H35.3992C35.158 93.3218 34.9267 93.226 34.7561 93.0554C34.5855 92.8849 34.4897 92.6535 34.4897 92.4123V70.513C34.4897 70.2718 34.5855 70.0404 34.7561 69.8699C34.9267 69.6993 35.158 69.6035 35.3992 69.6035H51.5919C53.2193 69.6063 54.7987 69.0526 56.068 68.0342L63.2014 62.2918C63.8432 61.7894 64.6333 61.5135 65.4484 61.5072H82.4435C82.6847 61.5072 82.9161 61.603 83.0866 61.7735C83.2572 61.9441 83.353 62.1754 83.353 62.4167L83.4244 92.4123Z" fill="#1FBEC8"/>
<path d="M77.8249 86.0815H71.1017C70.6287 86.0815 70.1751 86.2694 69.8407 86.6038C69.5062 86.9382 69.3184 87.3918 69.3184 87.8648C69.3184 88.3378 69.5062 88.7914 69.8407 89.1258C70.1751 89.4603 70.6287 89.6481 71.1017 89.6481H77.8249C78.2978 89.6481 78.7514 89.4603 79.0859 89.1258C79.4203 88.7914 79.6082 88.3378 79.6082 87.8648C79.6082 87.3918 79.4203 86.9382 79.0859 86.6038C78.7514 86.2694 78.2978 86.0815 77.8249 86.0815Z" fill="#1FBEC8"/>
<path d="M44.0482 32.314H53.4999C53.9729 32.314 54.4265 32.1261 54.7609 31.7917C55.0953 31.4572 55.2832 31.0036 55.2832 30.5306C55.2832 30.0577 55.0953 29.6041 54.7609 29.2696C54.4265 28.9352 53.9729 28.7473 53.4999 28.7473H44.0482C43.5753 28.7473 43.1217 28.9352 42.7872 29.2696C42.4528 29.6041 42.2649 30.0577 42.2649 30.5306C42.2649 31.0036 42.4528 31.4572 42.7872 31.7917C43.1217 32.1261 43.5753 32.314 44.0482 32.314Z" fill="#1FBEC8"/>
<path d="M33.8834 42.4256H63.5581C64.0311 42.4256 64.4847 42.2377 64.8191 41.9032C65.1535 41.5688 65.3414 41.1152 65.3414 40.6422C65.3414 40.1693 65.1535 39.7157 64.8191 39.3812C64.4847 39.0468 64.0311 38.8589 63.5581 38.8589H33.8834C33.4105 38.8589 32.9569 39.0468 32.6224 39.3812C32.288 39.7157 32.1001 40.1693 32.1001 40.6422C32.1001 41.1152 32.288 41.5688 32.6224 41.9032C32.9569 42.2377 33.4105 42.4256 33.8834 42.4256Z" fill="#1FBEC8"/>
<path d="M65.3414 49.6301C65.3414 49.1572 65.1535 48.7036 64.8191 48.3691C64.4847 48.0347 64.0311 47.8468 63.5581 47.8468H33.8834C33.4105 47.8468 32.9569 48.0347 32.6224 48.3691C32.288 48.7036 32.1001 49.1572 32.1001 49.6301C32.1001 50.1031 32.288 50.5567 32.6224 50.8911C32.9569 51.2256 33.4105 51.4135 33.8834 51.4135H63.5581C64.0311 51.4135 64.4847 51.2256 64.8191 50.8911C65.1535 50.5567 65.3414 50.1031 65.3414 49.6301Z" fill="#1FBEC8"/>
</svg>
