<svg width="320" height="70" viewBox="0 0 320 70" fill="none" xmlns="http://www.w3.org/2000/svg">
<path d="M86.088 35.2252H74.484V21.6102H86.718C91.196 21.6102 93.435 23.9143 93.435 28.5238C93.435 32.9922 90.985 35.2275 86.088 35.2275V35.2252ZM94.428 21.4515C92.828 19.7902 90.613 18.9595 87.754 18.9595L71.136 19.0668V51.6402H74.484L74.454 37.7732H86.82C89.92 37.7732 92.362 36.9425 94.143 35.2812C95.924 33.6198 96.815 31.3145 96.815 28.3663C96.815 25.4182 96.02 23.114 94.43 21.4515H94.428ZM116.1 44.8C115.78 45.8656 115.233 46.8189 114.511 47.5708C113.011 49.2788 110.723 50.1317 107.645 50.1317C104.865 50.1317 102.733 49.315 101.245 47.642C99.757 45.969 99.012 43.7605 99.012 40.9768C99.012 39.5278 99.207 38.241 99.596 37.1187C99.985 35.9963 100.55 35.049 101.29 34.2767C102.83 32.6398 104.948 31.8208 107.646 31.8208C113.622 31.8208 116.611 34.8728 116.611 40.9768C116.611 42.427 116.441 43.701 116.111 44.8H116.1ZM116.718 32.7833C114.678 30.6133 111.658 29.5167 107.656 29.5167C103.876 29.5167 100.954 30.625 98.894 32.8417C97.034 34.8483 96.094 37.555 96.094 40.964C96.094 44.3473 97.054 47.0773 98.974 49.154C100.034 50.274 101.269 51.086 102.68 51.5877C104.091 52.0893 105.746 52.3402 107.646 52.3402C111.626 52.3402 114.646 51.2668 116.738 49.1202C118.598 47.1602 119.538 44.4535 119.538 40.9628C119.538 37.4628 118.598 34.7328 116.718 32.7705V32.7833ZM142.036 45.7415C142.036 50.1258 138.669 52.318 131.936 52.318C129.878 52.318 128.144 52.1663 126.736 51.8607C125.328 51.555 124.183 51.0498 123.304 50.3463C122.626 49.8109 122.07 49.0899 121.685 48.2463C121.285 47.383 121.025 46.298 120.905 44.9797L124.038 44.9447C124.038 46.6713 124.586 47.9407 125.683 48.7573C126.86 49.7373 128.943 50.2273 131.936 50.2273C136.642 50.2273 138.996 48.8507 138.996 46.0997C138.996 44.4897 138.196 43.3837 136.628 42.7747C136.308 42.658 134.405 42.3488 130.928 41.8483C127.451 41.3478 125.268 40.8975 124.41 40.5008C122.552 39.6375 121.623 38.0858 121.623 35.8482C121.623 33.6548 122.453 32.0215 124.123 30.9505C124.943 30.5072 125.968 30.1642 127.199 29.918C128.43 29.6718 129.855 29.5505 131.475 29.5505C137.957 29.5505 141.198 31.9235 141.198 36.6672H138.218C138.218 33.3305 135.938 31.6505 131.383 31.6505C129.065 31.6505 127.336 32.0005 126.197 32.6655C125.058 33.3305 124.489 34.3805 124.489 35.7805C124.489 37.0872 125.259 38.0322 126.797 38.6155C127.697 38.9188 129.765 39.2688 133.003 39.6655C135.901 39.9688 137.89 40.4005 138.969 40.9488C141.029 41.8822 142.057 43.4688 142.057 45.7053L142.036 45.7415ZM154.342 51.6833L153.067 51.8933L152.272 51.9633C150.232 51.9633 148.772 51.6192 147.859 50.9285C146.946 50.2378 146.506 49.0303 146.506 47.3118V32.431H142.8V30.2447H146.487L146.517 23.2213H149.373V30.2447H154.347V32.466L149.373 32.431V46.8942C149.373 47.971 149.618 48.7142 150.108 49.1108C150.598 49.5075 151.472 49.7245 152.732 49.7245C152.912 49.7478 153.112 49.7408 153.332 49.7012C153.665 49.6319 153.996 49.5439 154.322 49.4375L154.352 51.6542L154.342 51.6833ZM174.097 46.7483C173.317 47.495 172.429 48.0643 171.43 48.4633C170.431 48.8623 169.282 49.0467 167.984 49.0467C162.01 49.0467 159.024 46.1685 159.024 40.4133C159.024 37.7335 159.788 35.6358 161.317 34.1203C162.846 32.6048 164.997 31.8477 167.775 31.8477C170.572 31.8477 172.695 32.6118 174.143 34.1378C175.591 35.6638 176.316 37.7102 176.316 40.2745C176.316 43.071 175.576 45.227 174.098 46.7413L174.097 46.7483ZM179.173 30.2505H176.317L176.287 33.9255C175.027 32.4322 174.127 31.4907 173.587 31.094C171.987 30.0673 169.919 29.5563 167.38 29.5563C163.662 29.5563 160.822 30.548 158.864 32.529C157.004 34.349 156.076 36.9822 156.076 40.432C156.076 42.1353 156.311 43.6543 156.781 44.982C157.251 46.3097 157.937 47.4588 158.838 48.391C160.8 50.302 163.573 51.2587 167.158 51.2587C171.462 51.2587 174.515 49.8855 176.318 47.138V50.9413C176.318 53.368 175.663 55.244 174.354 56.574C173.045 57.904 170.891 58.5573 167.892 58.5573C165.072 58.5573 163.064 58.0907 161.865 57.1993C160.965 56.5028 160.345 55.2953 160.005 53.5768H157.065C157.385 55.9767 158.265 57.7127 159.665 58.7837C161.305 60.018 164.065 60.6352 167.965 60.6352C175.425 60.6352 179.165 57.4 179.165 50.9285V30.2598L179.173 30.2505ZM194.623 32.4123C193.763 32.249 192.965 32.179 192.227 32.179C187.532 32.179 185.185 35.1832 185.185 41.1892V51.6355H182.359L182.329 30.2598L185.186 30.2925V34.1075H185.336C185.816 32.6048 186.576 31.465 187.614 30.6892C188.752 29.9378 190.45 29.5622 192.708 29.5622H194.625V32.4322L194.623 32.4123ZM197.28 39.5967C197.64 37.1677 198.45 35.287 199.707 33.9547C200.527 33.1847 201.457 32.6048 202.495 32.2198C203.533 31.8348 204.695 31.6412 206.003 31.6412C208.541 31.6412 210.603 32.4532 212.223 34.0772C213.843 35.7012 214.635 37.5422 214.635 39.5955H197.28V39.5967ZM214.913 33.0015C213.913 31.8313 212.673 30.9668 211.193 30.4045C209.713 29.8422 207.993 29.5622 205.993 29.5622C202.293 29.5622 199.423 30.5655 197.381 32.5722C195.339 34.5788 194.321 37.3088 194.321 40.7645C194.321 44.2202 195.301 46.9478 197.261 48.9895C199.381 51.2295 202.361 52.3495 206.229 52.3495C207.769 52.3495 209.192 52.1453 210.502 51.7393C211.812 51.3333 212.957 50.757 213.936 50.0127C215.656 48.5718 216.744 46.7927 217.206 44.681H214.118C213.058 48.3362 210.421 50.1643 206.204 50.1643C203.226 50.1643 200.937 49.2707 199.339 47.4833C197.959 45.9515 197.271 43.967 197.271 41.5287H217.634C217.634 37.9027 216.734 35.0595 214.904 33.012L214.913 33.0015Z" fill="#231F20"/>
<path d="M247.82 42.9053C247.82 49.252 243.433 52.4253 234.658 52.4253C229.401 52.4253 225.563 51.3322 223.145 49.1587C221.165 47.362 220.177 44.6227 220.177 40.936H223.709C223.709 46.8603 227.359 49.8225 234.657 49.8225C238.157 49.8225 240.687 49.2158 242.257 48.0048C243.577 46.9338 244.237 45.255 244.237 42.9718C244.237 40.7108 243.337 39.1265 241.537 38.2165C240.517 37.7265 238.037 37.1082 234.067 36.3638C229.087 35.4772 225.859 34.5928 224.379 33.7073C222.239 32.4007 221.179 30.1875 221.179 27.0643C221.179 24.1512 222.079 21.9835 223.909 20.5613C225.869 19.0003 229.229 18.2187 233.987 18.2187C242.587 18.2187 246.887 21.5507 246.887 28.2147H243.324C243.324 23.2213 240.131 20.727 233.746 20.727C230.543 20.727 228.201 21.2287 226.72 22.2437C225.318 23.317 224.62 24.892 224.62 26.9687C224.62 29.1387 225.52 30.667 227.32 31.5537C228.28 32.067 231.1 32.7787 235.78 33.6887C240.18 34.4587 243.15 35.357 244.68 36.372C246.78 37.632 247.83 39.8137 247.83 42.9053H247.82ZM276.52 46.144C275.2 47.3772 273.708 48.3023 272.047 48.9207C270.386 49.539 268.524 49.8458 266.463 49.8458C262.259 49.8458 258.863 48.524 256.269 45.8815C253.675 43.239 252.382 39.7168 252.382 35.315C252.382 30.7277 253.667 27.153 256.239 24.591C258.811 22.029 262.219 20.7492 266.462 20.7492C270.765 20.7492 274.148 22.0885 276.61 24.766C277.91 26.0727 278.87 27.5963 279.492 29.3428C280.114 31.0893 280.422 33.0808 280.422 35.3162C280.422 39.8802 279.12 43.4898 276.518 46.1428L276.52 46.144ZM278.396 48.3035C280.236 46.7892 281.598 44.9552 282.479 42.7992C283.36 40.6432 283.801 38.1558 283.801 35.3348C283.801 30.2773 282.361 26.2348 279.481 23.1688C277.941 21.4912 276.081 20.244 273.901 19.4285C271.721 18.613 269.231 18.2035 266.431 18.2035C260.991 18.2035 256.731 19.7435 253.631 22.8177C250.531 25.8918 248.981 30.065 248.981 35.3325C248.981 40.4588 250.545 44.5958 253.674 47.7412C256.803 50.8865 261.077 52.4603 266.494 52.4603C268.614 52.4603 270.462 52.2935 272.041 51.9587C273.62 51.6238 274.961 51.1105 276.061 50.4187L281.279 54.6385L283.459 52.3028L278.406 48.3047L278.396 48.3035ZM310.246 51.6367H286.1V19.0167L289.418 18.9467V48.9032H310.266L310.236 51.6262L310.246 51.6367Z" fill="#367FAF"/>
<path d="M48.237 46.1615C48.573 43.3965 48.472 42.9905 50.555 43.4385L51.085 43.4852C52.687 43.5575 54.782 43.2308 56.013 42.665C58.663 41.4493 60.233 39.4193 57.621 39.9525C51.661 41.1682 51.251 39.1708 51.251 39.1708C57.544 29.9367 60.175 18.214 57.905 15.344C51.7 7.51917 40.99 11.2198 40.8 11.3167L40.743 11.3283C39.565 11.0868 38.247 10.9433 36.767 10.92C34.07 10.8757 32.024 11.62 30.471 12.7832C30.471 12.7832 11.345 4.98983 12.235 22.5832C12.425 26.3258 17.66 50.9017 23.903 43.4782C26.185 40.7633 28.391 38.4685 28.391 38.4685C29.5413 39.2201 30.8582 39.5525 32.172 39.4228L32.278 39.333C32.245 39.6713 32.258 39.998 32.321 40.39C30.713 42.1668 31.185 42.4783 27.969 43.134C24.716 43.7967 26.627 44.9773 27.875 45.2865C29.388 45.6598 32.888 46.1907 35.253 42.9182L35.159 43.2915C35.789 43.7908 35.747 46.879 35.837 49.0863C35.927 51.2937 36.077 53.3528 36.531 54.5673C36.985 55.7818 37.523 58.9073 41.749 58.0137C45.281 57.2647 47.982 56.1878 48.229 46.1662" fill="#231F20"/>
<path d="M48.237 46.1615C48.573 43.3965 48.472 42.9905 50.555 43.4385L51.085 43.4852C52.687 43.5575 54.782 43.2308 56.013 42.665C58.663 41.4493 60.233 39.4193 57.621 39.9525C51.661 41.1682 51.251 39.1708 51.251 39.1708C57.544 29.9367 60.175 18.214 57.905 15.344C51.7 7.51917 40.99 11.2198 40.8 11.3167L40.743 11.3283C39.565 11.0868 38.247 10.9433 36.767 10.92C34.07 10.8757 32.024 11.62 30.471 12.7832C30.471 12.7832 11.345 4.98983 12.235 22.5832C12.425 26.3258 17.66 50.9017 23.903 43.4782C26.185 40.7633 28.391 38.4685 28.391 38.4685C29.5413 39.2201 30.8582 39.5525 32.172 39.4228L32.278 39.333C32.245 39.6713 32.258 39.998 32.321 40.39C30.713 42.1668 31.185 42.4783 27.969 43.134C24.716 43.7967 26.627 44.9773 27.875 45.2865C29.388 45.6598 32.888 46.1907 35.253 42.9182L35.159 43.2915C35.789 43.7908 35.747 46.879 35.837 49.0863C35.927 51.2937 36.077 53.3528 36.531 54.5673C36.985 55.7818 37.523 58.9073 41.749 58.0137C45.281 57.2647 47.982 56.1878 48.229 46.1662" stroke="#231F20" stroke-width="4.108"/>
<path d="M57.62 39.9513C51.66 41.167 51.25 39.1697 51.25 39.1697C57.543 29.9343 60.174 18.2117 57.904 15.3428C51.71 7.518 40.99 11.2198 40.8 11.3167L40.742 11.3283C39.564 11.0868 38.246 10.9433 36.765 10.92C34.068 10.8768 32.022 11.62 30.47 12.7832C30.47 12.7832 11.343 4.98983 12.233 22.5832C12.423 26.3258 17.657 50.9028 23.901 43.4782C26.183 40.7633 28.388 38.4685 28.388 38.4685C29.5383 39.2201 30.8553 39.5525 32.169 39.4228L32.276 39.333C32.243 39.6713 32.258 39.998 32.319 40.39C30.711 42.1668 31.183 42.4783 27.969 43.134C24.715 43.7967 26.627 44.9773 27.875 45.2865C29.388 45.6598 32.888 46.1907 35.253 42.9182L35.159 43.2915C35.789 43.7908 36.232 46.5383 36.159 49.0315C36.086 51.5247 36.035 53.2315 36.532 54.5685C37.029 55.9055 37.524 58.9085 41.752 58.0148C45.284 57.2658 47.115 55.3268 47.369 52.0905C47.549 49.7898 47.959 50.1305 47.984 48.0737L48.312 47.1007C48.69 43.9822 48.372 42.9765 50.548 43.4443L51.078 43.491C52.68 43.5633 54.776 43.2367 56.006 42.6708C58.656 41.4552 60.226 39.4252 57.614 39.9583L57.62 39.9513Z" fill="#417BA2"/>
<path d="M40.7999 11.2385C40.1369 11.4438 51.4469 7.15049 57.8739 15.2717C60.1439 18.1417 57.5139 29.8643 51.2199 39.0997M35.5179 41.7398C35.3539 47.5417 35.5579 53.3855 36.1329 54.8065C36.7079 56.2275 37.9369 58.989 42.1649 58.093C45.6969 57.344 46.9819 55.895 47.5389 52.696C47.9389 50.3428 48.7419 43.806 48.8429 42.4678L35.5179 41.7398ZM30.4499 12.6502C30.4499 12.6502 11.2999 4.91515 12.1999 22.5167C12.3999 26.2593 17.6239 50.8363 23.8699 43.4C26.1519 40.6852 28.2149 38.556 28.2149 38.556L30.4499 12.6502Z" stroke="black" stroke-width="1.369"/>
<path d="M51.2098 39.0985C51.2098 39.0985 51.6098 41.0935 57.5798 39.8778C60.1918 39.3446 58.6198 41.3746 55.9698 42.5915C53.7958 43.589 48.9218 43.8445 48.8428 42.4666C48.6378 38.9083 51.4078 39.9898 51.2078 39.0985C51.0278 38.2958 49.7878 37.5083 48.9678 35.5436C48.2528 33.8286 39.1578 20.678 51.4898 22.631C51.9418 22.5376 48.2728 11.0296 36.7298 10.843C25.1868 10.6563 25.5698 24.878 25.5698 24.878" stroke="black" stroke-width="1.369" stroke-linejoin="bevel"/>
<path d="M32.288 40.3153C30.678 42.0921 31.152 42.4036 27.936 43.0593C24.682 43.7243 26.594 44.9026 27.842 45.2118C29.355 45.5851 32.855 46.116 35.22 42.8411C35.94 41.8436 35.216 40.2511 34.227 39.8475C33.749 39.6515 33.11 39.4065 32.287 40.3141L32.288 40.3153Z" stroke="black" stroke-width="1.369"/>
<path d="M32.1829 40.285C32.0209 39.2397 32.5299 37.9983 33.0759 36.5423C33.8959 34.3607 35.7879 32.1767 34.2759 25.2525C33.1479 20.0923 25.5789 24.1792 25.5759 24.8792C25.5729 25.5792 25.9179 28.4258 25.4489 31.7392C24.8369 36.0652 28.2319 39.7227 32.1409 39.3493" stroke="black" stroke-width="1.369"/>
<path d="M30.3821 24.7718C30.3481 25.011 30.8251 25.6468 31.4461 25.7332C32.0671 25.8195 32.5961 25.3202 32.6311 25.0822C32.6661 24.8442 32.1891 24.5805 31.5671 24.4942C30.9451 24.4078 30.4151 24.5338 30.3821 24.7718Z" fill="white" stroke="black" stroke-width="0.456"/>
<path d="M49.2732 24.2853C49.3072 24.5245 48.8312 25.1603 48.2092 25.2467C47.5872 25.333 47.0572 24.8337 47.0232 24.5933C46.9892 24.353 47.4662 24.0917 48.0872 24.0053C48.7082 23.919 49.2372 24.0438 49.2722 24.283L49.2732 24.2853Z" fill="white" stroke="black" stroke-width="0.228"/>
<path d="M51.493 22.631C51.595 24.5058 51.085 25.781 51.02 27.7783C50.925 30.6787 52.418 33.9967 50.168 37.3217" stroke="black" stroke-width="1.369"/>
</svg>
