<svg width="75" height="75" viewBox="0 0 2208 2288" fill="none" xmlns="http://www.w3.org/2000/svg">
<circle cx="1104.5" cy="1144.5" r="261.5" fill="#3FA037"/>
<path d="M1104 1803C1373.57 1803 1618.76 1730.96 1797.3 1613.17C1975.64 1495.52 2090 1330.16 2090 1144C2090 957.843 1975.64 792.483 1797.3 674.826C1618.76 557.039 1373.57 485 1104 485C834.432 485 589.243 557.039 410.703 674.826C232.363 792.483 118 957.843 118 1144C118 1330.16 232.363 1495.52 410.703 1613.17C589.243 1730.96 834.432 1803 1104 1803Z" stroke="#3FA037" stroke-width="50"/>
<path d="M1608.82 1567.6C1782.1 1361.1 1884.52 1126.96 1909.05 914.483C1933.56 702.238 1880.39 508.34 1737.79 388.68C1595.18 269.021 1395 250.337 1190.23 311.325C985.241 372.382 772.451 513.902 599.177 720.403C425.902 926.904 323.482 1161.04 298.95 1373.52C274.445 1585.76 327.607 1779.66 470.211 1899.32C612.816 2018.98 813 2037.66 1017.77 1976.68C1222.76 1915.62 1435.55 1774.1 1608.82 1567.6Z" stroke="#3FA037" stroke-width="50"/>
<path d="M599.177 1567.6C772.451 1774.1 985.241 1915.62 1190.23 1976.68C1395 2037.66 1595.18 2018.98 1737.79 1899.32C1880.39 1779.66 1933.56 1585.76 1909.05 1373.52C1884.52 1161.04 1782.1 926.904 1608.82 720.403C1435.55 513.902 1222.76 372.382 1017.77 311.325C813 250.337 612.816 269.021 470.211 388.68C327.607 508.34 274.445 702.238 298.95 914.483C323.482 1126.96 425.902 1361.1 599.177 1567.6Z" stroke="#3FA037" stroke-width="50"/>
</svg>
