<svg xmlns="http://www.w3.org/2000/svg" width="42" height="34" fill="none"  xmlns:v="https://vecta.io/nano"><path d="M13.704 16.032c1.6.704 2.848 1.76 3.744 3.168s1.344 3.072 1.344 4.992c0 2.752-.864 4.992-2.592 6.72-1.728 1.664-3.936 2.496-6.624 2.496s-4.928-.864-6.72-2.592C1.128 29.088.264 26.88.264 24.192a15.78 15.78 0 0 1 .48-3.84c.32-1.28 1.024-3.2 2.112-5.76L8.424.768h9.504l-4.224 15.264zm22.656 0c1.6.704 2.848 1.76 3.744 3.168s1.344 3.072 1.344 4.992c0 2.752-.864 4.992-2.592 6.72-1.728 1.664-3.936 2.496-6.624 2.496s-4.928-.864-6.72-2.592c-1.728-1.728-2.592-3.936-2.592-6.624a15.78 15.78 0 0 1 .48-3.84c.32-1.28 1.024-3.2 2.112-5.76L31.08.768h9.504L36.36 16.032z" fill="#fff"/></svg>