<svg xmlns="http://www.w3.org/2000/svg" width="153.646" height="28.255" viewBox="0 0 153.646 28.255">
  <g id="Groupe_6455" data-name="Groupe 6455" transform="translate(0 28.255) rotate(-90)">
    <g id="Groupe_6452" data-name="Groupe 6452" transform="translate(0.977 0)">
      <path id="Tracé_2461" data-name="Tracé 2461" d="M3.5,0Q3.354,2.011,3.26,4.033l1.007.14Q4.359,2.191,4.5.214ZM3.124,8.083q-.036,1.7-.036,3.4l0,.65,1.01-.014,0-.636q0-1.671.035-3.343ZM4.164,16.1l-1.009.088q.06,2.023.167,4.043l1.006-.161Q4.222,18.09,4.164,16.1Zm.423,7.926-1,.233q.157,2.008.363,4.005l.994-.306Q4.741,26,4.587,24.027Zm.806,7.836-.987.379q.255,1.977.555,3.938l.976-.45Q5.642,33.808,5.393,31.863Zm1.181,7.693-.965.519q.35,1.938.743,3.845l.951-.586Q6.916,41.458,6.574,39.556Zm1.549,7.5-.936.655q.441,1.881.927,3.725l.919-.725Q8.556,48.894,8.123,47.052Zm1.909,7.241-.9.79q.531,1.808,1.107,3.575l.88-.858Q10.554,56.067,10.032,54.293Zm2.26,6.93-.857.922q.619,1.723,1.284,3.395l.832-.989Q12.9,62.911,12.292,61.223Zm2.6,6.574-.812,1.038q.693,1.621,1.409,3.219l.8-1.067Q15.581,69.4,14.892,67.8Zm2.823,6.352-.8,1.077.1.223q.665,1.468,1.325,2.94l.8-1.067q-.66-1.479-1.329-2.949Zm2.839,6.389-.812,1.039q.689,1.606,1.34,3.243l.833-.989C21.474,82.721,21.019,81.627,20.554,80.537ZM23.2,87.23l-.86.917c.414,1.162.8,2.317,1.138,3.433l.893-.816C24.017,89.613,23.623,88.425,23.2,87.23Zm2.191,7.219-.928.687c.3,1.228.573,2.466.8,3.684l.961-.534C25.986,97.015,25.706,95.725,25.389,94.449Zm1.436,7.814-.989.349c.15,1.271.263,2.577.335,3.879l1-.164C27.1,104.962,26.983,103.594,26.825,102.263Zm-.557,8.151c-.007,1.3-.052,2.622-.134,3.921l1,.19c.085-1.356.133-2.734.14-4.1Zm-.494,7.8c-.157,1.28-.352,2.56-.58,3.8l.963.529c.237-1.3.441-2.631.6-3.967Zm-1.374,7.48c-.3,1.2-.638,2.387-1.005,3.521l.882.853c.383-1.186.737-2.425,1.05-3.682Zm-2.214,6.842c-.436,1.069-.908,2.1-1.405,3.075l.757,1.157c.521-1.02,1.016-2.1,1.474-3.225Zm-3,5.865a29.875,29.875,0,0,1-1.759,2.473l.593,1.411a30.583,30.583,0,0,0,1.845-2.591Zm-3.663,4.612a21.741,21.741,0,0,1-2.019,1.793l.415,1.593a22.577,22.577,0,0,0,2.111-1.875Zm-4.134,3.229a16.183,16.183,0,0,1-2.187,1.069l.226,1.7a17.125,17.125,0,0,0,2.283-1.114ZM.19,147.657,0,149.373a13.535,13.535,0,0,0,2.355.55l.081-1.742A12.911,12.911,0,0,1,.19,147.657ZM6.969,148a13.231,13.231,0,0,1-2.265.294l.025,1.747a13.884,13.884,0,0,0,2.366-.308Z" transform="translate(0)" fill="#feab45"/>
    </g>
    <g id="Groupe_6453" data-name="Groupe 6453" transform="translate(0 145.471)">
      <path id="Tracé_2462" data-name="Tracé 2462" d="M4.987,0l.576.831-4.1,2.833L4.593,7.542l-.788.634L0,3.452Z" transform="translate(0)" fill="#feab45"/>
    </g>
  </g>
</svg>
