<svg xmlns="http://www.w3.org/2000/svg" width="153.646" height="28.254" viewBox="0 0 153.646 28.254"><g transform="translate(153.646) rotate(90)"><g transform="translate(0.977 3.609)"><path d="M3.5,150.037Q3.353,148.026,3.26,146l1.007-.14q.092,1.982.234,3.959Zm-.375-8.083q-.036-1.7-.036-3.4l0-.65,1.01.014,0,.636q0,1.671.035,3.343Zm1.04-8.018-1.009-.088q.06-2.023.167-4.043l1.006.161Q4.221,131.947,4.164,133.936Zm.423-7.926-1-.233q.157-2.008.363-4.005l.994.306Q4.741,124.036,4.587,126.01Zm.806-7.836-.987-.379q.255-1.977.555-3.938l.976.45Q5.641,116.229,5.393,118.174Zm1.181-7.693-.965-.519q.349-1.938.743-3.845l.951.586Q6.916,108.579,6.574,110.481Zm1.549-7.5-.936-.655q.441-1.881.927-3.725l.919.725Q8.556,101.143,8.123,102.985Zm1.909-7.241-.9-.79q.531-1.808,1.107-3.575l.88.858Q10.553,93.97,10.032,95.744Zm2.26-6.93-.857-.922q.619-1.723,1.284-3.395l.832.989Q12.9,87.126,12.292,88.814Zm2.6-6.574L14.08,81.2q.693-1.621,1.409-3.219l.8,1.067Q15.581,80.637,14.892,82.241Zm2.823-6.352-.8-1.077.1-.223q.665-1.468,1.325-2.94l.8,1.067q-.66,1.479-1.329,2.949ZM20.554,69.5l-.812-1.039q.688-1.606,1.34-3.243l.833.989C21.474,67.316,21.019,68.41,20.554,69.5ZM23.2,62.807l-.86-.917c.414-1.162.8-2.317,1.138-3.433l.893.816C24.017,60.424,23.623,61.612,23.2,62.807Zm2.191-7.219-.928-.687c.3-1.228.573-2.466.8-3.684l.961.534C25.986,53.022,25.706,54.312,25.389,55.588Zm1.436-7.814-.989-.349c.15-1.271.263-2.577.335-3.879l1,.164C27.1,45.075,26.983,46.443,26.825,47.774Zm-.557-8.151c-.007-1.3-.052-2.622-.134-3.921l1-.19c.085,1.356.133,2.734.14,4.1Zm-.494-7.8c-.157-1.28-.352-2.56-.58-3.8l.963-.529c.237,1.3.441,2.63.6,3.967ZM24.4,24.344c-.3-1.2-.638-2.387-1.005-3.521l.882-.853c.383,1.186.737,2.425,1.05,3.682ZM22.186,17.5c-.436-1.069-.908-2.1-1.405-3.075l.757-1.157c.521,1.02,1.016,2.1,1.474,3.225Zm-3-5.865A29.874,29.874,0,0,0,17.43,9.164l.593-1.411a30.584,30.584,0,0,1,1.845,2.591ZM15.526,7.025a21.739,21.739,0,0,0-2.019-1.793l.415-1.593a22.578,22.578,0,0,1,2.111,1.875ZM11.392,3.8A16.183,16.183,0,0,0,9.2,2.727l.226-1.7a17.124,17.124,0,0,1,2.283,1.114ZM.19,2.38,0,.664A13.535,13.535,0,0,1,2.355.114l.081,1.742A12.911,12.911,0,0,0,.19,2.38Zm6.779-.339A13.231,13.231,0,0,0,4.7,1.747L4.729,0A13.884,13.884,0,0,1,7.095.308Z" transform="translate(0 0)" fill="#17a6af"/></g><g transform="translate(0 0)"><path d="M4.987,8.175l.576-.831-4.1-2.833L4.593.634,3.805,0,0,4.724Z" transform="translate(0 0)" fill="#17a6af"/></g></g></svg>