<svg width="100" height="100" viewBox="0 0 100 100" fill="none" xmlns="http://www.w3.org/2000/svg">
<path d="M32.14 26.6797C20.92 26.6797 10.74 31.1197 3.19995 38.2797V97.7397H62.4C69.66 90.1997 74.14 79.9597 74.14 68.6597C74.14 45.4797 55.34 26.6797 32.14 26.6797Z" fill="#1FBEC8"/>
<path d="M72.0799 23.5598L79.3999 4.75985C70.8799 0.539849 60.1599 11.4598 52.6199 4.75985L59.9199 23.5598H59.9799C48.4799 28.4398 39.8999 46.3598 39.8999 58.7198C39.8999 59.1598 39.9199 59.5798 39.9199 59.9998L39.5399 72.1599L65.8599 81.1798L91.5999 63.7198C91.9599 62.2598 92.1599 60.5998 92.1599 58.7198C92.1799 46.3598 83.5999 28.4398 72.0799 23.5598Z" fill="#1FBEC8"/>
<path d="M94.94 67.0598C94.36 65.4398 93.1 64.2798 91.6 63.6998C90.12 63.1198 88.38 63.0998 86.82 63.7598L61.64 74.4598H61.62L56.7 76.5598L58.56 74.3198C58.62 74.1998 58.68 74.0798 58.72 73.9598C59.96 70.9198 58.5 67.4998 55.48 66.2998L39.9199 59.9998L39.38 59.7798C36.08 58.4398 32.3799 58.4798 29.0999 59.8598L15.3199 65.7198L23.1399 84.1598L29.5399 81.4398L49.7 89.5998C51.8 90.4598 54.18 90.4398 56.28 89.5398L91.72 74.4998C93.22 73.8598 94.3 72.6798 94.88 71.2798C95.4 69.9798 95.46 68.4798 94.94 67.0598Z" fill="white"/>
<path d="M25.02 88.62L14.06 95.76L7.12 64.8L13.72 62L15.3 65.72L23.12 84.16L25.02 88.62Z" fill="#1FBEC8"/>
<path d="M58.58 74.3199C59.46 74.3799 60.38 74.4199 61.3 74.4399C61.4199 74.4399 61.5199 74.4399 61.6399 74.4599H61.66" fill="#1C2E5C"/>
<path d="M96.36 66.5398C95.82 64.9998 94.72 63.7198 93.28 62.8798C93.52 61.5798 93.68 60.1998 93.68 58.7198C93.68 46.1598 85.34 28.6398 73.98 22.7998L80.78 5.29981C81.06 4.57981 80.74 3.75981 80.04 3.41981C75.56 1.17981 70.8 2.59981 66.2 3.95981C61.28 5.41981 57.02 6.65981 53.62 3.63981C53.1 3.17981 52.34 3.13981 51.76 3.51981C51.2 3.91981 50.96 4.63981 51.22 5.29981L58.02 22.8198C46.94 28.5398 38.78 45.3998 38.42 57.8798C35.14 56.9598 31.62 57.1598 28.5 58.4998L16.1 63.7598L15.1 61.4198C14.78 60.6598 13.9 60.2998 13.14 60.6198L6.51997 63.4198C5.85997 63.6998 5.47997 64.4198 5.63997 65.1198L12.6 96.0798C12.7 96.5598 13.04 96.9598 13.5 97.1398C13.68 97.2198 13.88 97.2598 14.06 97.2598C14.34 97.2598 14.64 97.1798 14.88 97.0198L25.84 89.8798C26.44 89.4798 26.68 88.6998 26.4 88.0398L25.1 84.9598L29.54 83.0798L42.48 88.2998C43.22 88.6198 44.12 88.2198 44.42 87.4798C44.58 87.0998 44.58 86.6998 44.42 86.3398C44.26 85.9598 43.96 85.6798 43.6 85.5198L30.1 80.0598C29.74 79.9198 29.3 79.9198 28.96 80.0798L23.92 82.1998L17.28 66.5398L29.68 61.2598C32.54 60.0398 35.86 59.9798 38.82 61.1798L39.2 61.3398C39.26 61.3598 39.3 61.3798 39.36 61.3998L54.94 67.6998C56.6 68.3598 57.68 69.9598 57.68 71.7398C57.68 72.2998 57.58 72.8598 57.36 73.4198C57.34 73.4398 57.2 73.7598 57.08 74.0798L56.92 74.4598C56.86 74.6198 56.78 74.7798 56.72 74.9198L56.64 75.0798C56.56 75.0798 56.5 75.0598 56.44 75.0798C55.82 75.1998 55.16 75.1798 54.54 75.0198C54.34 74.9798 54.16 74.9198 53.96 74.8398L39.96 70.7398C39.2 70.4998 38.34 70.9798 38.1 71.7598C37.88 72.5398 38.32 73.3798 39.12 73.6198C39.14 73.6198 39.14 73.6198 39.16 73.6198L52.92 77.6598C53.22 77.7798 53.54 77.8598 53.82 77.9398C54.42 78.0798 55.04 78.1598 55.64 78.1598C56.1 78.1598 56.54 78.1198 57 78.0398C57.32 77.9798 57.58 77.7998 57.8 77.5598C58.04 77.5798 58.3 77.5398 58.52 77.4398L62.2 75.8598H62.24L87.42 65.1598C88.56 64.6798 89.9 64.6598 91.06 65.1198C92.28 65.5798 93.14 66.4398 93.54 67.5798C93.72 68.0598 93.8 68.5598 93.8 69.0598C93.8 69.6398 93.7 70.2198 93.48 70.7398C93.04 71.8198 92.2 72.6798 91.12 73.1398L55.68 88.1798C54.16 88.8198 52.44 88.8998 50.9 88.4398C50.12 88.2198 49.26 88.6798 49.02 89.4598C48.92 89.8398 48.96 90.2398 49.14 90.5998C49.34 90.9398 49.64 91.1998 50.02 91.3198H50.04C50.98 91.5998 51.94 91.7398 52.92 91.7398C54.28 91.7398 55.6 91.4598 56.86 90.9398L92.3 75.8998C94.12 75.1198 95.52 73.6798 96.26 71.8598C96.62 70.9598 96.8 70.0198 96.8 69.0598C96.8 68.1998 96.66 67.3598 96.36 66.5398ZM15.06 93.3198L8.85997 65.6998L12.94 63.9798L23.16 88.0598L15.06 93.3198ZM55.5 8.03981C59.24 9.11981 63.32 7.91981 67.04 6.81981C70.76 5.71981 74.32 4.67981 77.46 5.57981L71.06 22.0398H60.96L55.5 8.03981ZM86.24 62.3798L60.52 73.2998C60.62 72.7798 60.68 72.2598 60.68 71.7198C60.68 68.6998 58.86 66.0198 56.06 64.8998L41.4 58.9798C41.4 58.8798 41.4 58.7998 41.4 58.6998C41.4 46.9398 49.66 29.7798 60.34 25.0398H71.74C82.42 29.7598 90.68 46.9198 90.68 58.6998C90.68 59.8198 90.58 60.8598 90.42 61.8598C89 61.6798 87.54 61.8398 86.24 62.3798Z" fill="#052B5D"/>
<path d="M47.3 86.9998C46.56 86.6998 45.66 87.0798 45.36 87.8398C45.04 88.5998 45.42 89.4798 46.18 89.7798C46.36 89.8598 46.54 89.8998 46.74 89.8998C47.36 89.8998 47.9 89.5198 48.14 88.9598C48.44 88.1998 48.08 87.3198 47.3 86.9998Z" fill="#052B5D"/>
<path d="M66 38.4399C68.5 38.4399 70.54 40.4799 70.54 42.9799C70.54 43.7999 71.22 44.4799 72.04 44.4799C72.86 44.4799 73.54 43.7999 73.54 42.9799C73.54 39.3399 70.94 36.2799 67.5 35.5799V33.8199C67.5 32.9999 66.82 32.3199 66 32.3199C65.18 32.3199 64.5 32.9999 64.5 33.8199V35.5799C61.06 36.2799 58.46 39.3199 58.46 42.9799C58.46 47.1399 61.84 50.5199 66 50.5199C68.5 50.5199 70.54 52.5599 70.54 55.0599C70.54 57.5599 68.5 59.5999 66 59.5999C63.5 59.5999 61.46 57.5599 61.46 55.0599C61.46 54.2399 60.78 53.5599 59.96 53.5599C59.14 53.5599 58.46 54.2399 58.46 55.0599C58.46 58.6999 61.06 61.7599 64.5 62.4599V64.2199C64.5 65.0399 65.18 65.7199 66 65.7199C66.82 65.7199 67.5 65.0399 67.5 64.2199V62.4599C70.94 61.7599 73.54 58.7199 73.54 55.0599C73.54 50.8999 70.16 47.5199 66 47.5199C63.5 47.5199 61.46 45.4799 61.46 42.9799C61.46 40.4799 63.5 38.4399 66 38.4399Z" fill="#052B5D"/>
</svg>
