<svg width="50" height="50" fill="none" xmlns="http://www.w3.org/2000/svg"><path d="M19.68 2.13c0 11.6 9.4 21 21 21 2.84 0 5.54-.57 8.01-1.59V1.13H19.73c-.01.33-.05.66-.05 1z" fill="#1FBEC8"/><path d="M46.61 21.39c-.41-.41-.98-.68-1.6-.71-1.42-.08-2.57 1.15-2.57 2.57v7.83c-.1-.44-.32-.86-.66-1.19-.95-.96-2.5-.95-3.46 0l-5.1 5.1a5.571 5.571 0 00-1.63 3.94v6.22h8.31v-2.89l6.39-6.38c.67-.67 1.05-1.58 1.05-2.52V23.12c-.02-.67-.29-1.28-.73-1.73z" fill="#fff"/><path d="M41.9 45.14h-12v2.98h12v-2.98z" fill="#1FBEC8"/><path d="M16.16 34.98l-5.1-5.1c-.95-.95-2.5-.96-3.46 0-.34.34-.56.76-.66 1.19v-7.83c0-1.42-1.16-2.65-2.57-2.57-.62.03-1.19.3-1.6.71a2.45 2.45 0 00-.71 1.73v10.23c0 .95.38 1.85 1.05 2.52l6.39 6.38v2.89h8.31v-6.22a5.61 5.61 0 00-1.65-3.93z" fill="#fff"/><path d="M7.476 48.128h12v-2.98h-12v2.98z" fill="#1FBEC8"/><path d="M24.69 30.31c7.782 0 14.09-6.308 14.09-14.09S32.472 2.13 24.69 2.13 10.6 8.438 10.6 16.22s6.308 14.09 14.09 14.09z" fill="#fff"/><path d="M24.69 26.31c-5.56 0-10.09-4.53-10.09-10.09s4.52-10.1 10.09-10.1 10.09 4.53 10.09 10.09-4.53 10.1-10.09 10.1z" fill="#1FBEC8"/><path d="M47.14 20.86a3.148 3.148 0 00-4.4-.07c-.67.64-1.06 1.53-1.06 2.46v5.62c-.49-.29-1.05-.45-1.63-.45-.85 0-1.66.33-2.26.94l-5.1 5.1a6.268 6.268 0 00-1.85 4.48v5.47h-.93c-.41 0-.75.34-.75.75v2.98c0 .41.34.75.75.75h12c.41 0 .75-.34.75-.75v-2.98c0-.41-.34-.75-.75-.75h-1.26v-1.83l6.16-6.16c.82-.81 1.27-1.9 1.27-3.05V23.12c0-.85-.33-1.65-.94-2.26zm-5.98 26.51h-10.5v-1.48h10.5v1.48zm5.42-14.02c0 .75-.29 1.46-.83 1.99l-6.38 6.38a.75.75 0 00-.22.53v2.14h-6.81v-5.47c0-1.29.5-2.5 1.42-3.41l5.1-5.1c.32-.32.72-.48 1.2-.5.45 0 .87.18 1.2.5.19.19.31.42.4.67-.06.17-.14.34-.26.5-.04.06-.09.11-.19.22l-3.8 4.64c-.26.32-.22.79.1 1.06.14.11.31.17.48.17.22 0 .43-.09.58-.27l3.75-4.58c.11-.1.2-.22.29-.33.26-.34.43-.72.53-1.12.01-.02.01-.03.02-.05l.03-.09c.01-.02 0-.05 0-.07 0-.03.02-.06.02-.08v-7.83c0-.51.21-1.01.59-1.37.33-.32.77-.47 1.2-.45.42.02.81.2 1.1.49.32.33.5.75.5 1.2v10.23h-.02zM19.48 44.39h-.93v-5.47c0-1.69-.66-3.28-1.85-4.48l-5.1-5.1c-.6-.6-1.41-.94-2.26-.94h-.01c-.58 0-1.14.16-1.63.45v-5.61c0-.92-.39-1.82-1.06-2.46-.64-.6-1.46-.92-2.3-.86a3.202 3.202 0 00-3.03 3.2v10.23c0 1.15.45 2.24 1.26 3.05l6.17 6.16v1.83H7.47c-.41 0-.75.34-.75.75v2.98c0 .41.34.75.75.75h12c.41 0 .75-.34.75-.75v-2.98a.74.74 0 00-.74-.75zm-9.46-2.66l-6.38-6.38c-.53-.53-.83-1.24-.83-1.99V23.12c0-.45.18-.88.49-1.2.3-.3.69-.48 1.11-.5.44-.03.86.14 1.2.45.37.35.59.85.59 1.37v7.83c0 .03.01.05.02.08v.07l.03.09c0 .01.01.03.01.04a3.037 3.037 0 00.77 1.4l3.8 4.64c.15.18.36.27.58.27a.747.747 0 00.58-1.23l-3.85-4.7a1.564 1.564 0 01-.4-.67c.08-.25.21-.48.4-.68.32-.32.74-.5 1.19-.5.45 0 .88.18 1.2.5l5.1 5.1c.91.91 1.41 2.13 1.41 3.41v5.47h-6.81v-2.14a.675.675 0 00-.21-.49zm8.71 5.64H8.22v-1.48h10.5v1.48h.01zM11.82 10.42c.11.05.23.08.35.08.28 0 .53-.15.67-.4.18-.37.04-.83-.33-1.01a.755.755 0 00-1.01.32v.01c-.09.17-.11.37-.05.56.06.19.19.35.37.44z" fill="#1C2E5C"/><path d="M39.53 16.21c0-8.18-6.65-14.84-14.84-14.84-4.79 0-9.31 2.33-12.09 6.24a.76.76 0 00.17 1.05c.33.23.82.15 1.05-.18 2.51-3.51 6.57-5.61 10.87-5.61 7.35.02 13.33 6 13.34 13.34-.01 7.35-5.99 13.33-13.34 13.35-7.34-.02-13.32-6-13.34-13.35 0-1.49.25-2.97.74-4.38a.757.757 0 00-.47-.95.765.765 0 00-.95.46c-.54 1.56-.82 3.2-.82 4.87 0 8.19 6.66 14.84 14.84 14.85 8.19-.01 14.84-6.66 14.84-14.85z" fill="#1C2E5C"/><path d="M24.69 27.06c5.98 0 10.84-4.86 10.84-10.84 0-5.98-4.86-10.85-10.84-10.85-5.98 0-10.84 4.86-10.84 10.84 0 5.98 4.86 10.85 10.84 10.85zm0-20.19c5.15 0 9.34 4.19 9.34 9.34 0 5.15-4.19 9.34-9.34 9.34-5.15 0-9.34-4.19-9.34-9.34 0-5.15 4.19-9.34 9.34-9.34z" fill="#1C2E5C"/><path d="M24.69 19.86c-.8 0-1.45-.65-1.45-1.45 0-.41-.34-.75-.75-.75s-.75.34-.75.75c0 1.36.94 2.5 2.2 2.84v.49c0 .41.34.75.75.75s.75-.34.75-.75v-.49a2.94 2.94 0 002.2-2.84c0-1.63-1.32-2.95-2.95-2.95a1.451 1.451 0 010-2.9c.8 0 1.45.65 1.45 1.45 0 .41.34.75.75.75s.75-.34.75-.75c0-1.36-.94-2.5-2.2-2.84v-.49c0-.41-.34-.75-.75-.75s-.75.34-.75.75v.49a2.94 2.94 0 00-2.2 2.84c0 1.63 1.32 2.95 2.95 2.95a1.451 1.451 0 010 2.9z" fill="#1C2E5C"/></svg>