<svg xmlns="http://www.w3.org/2000/svg" xmlns:xlink="http://www.w3.org/1999/xlink" width="560" height="431" fill="none"><style>.B{opacity:.1}.C{fill:#000}.D{fill:#d6d6e3}.E{fill:#ffbd59}.F{fill:#535461}.G{fill:#f8b9bf}.H{fill:#d9dfe8}.I{fill:#fa595f}</style><g clip-path="url(#C)"><path d="M524.714 243.983c-20.634 31.036-15.412 74.175-5.022 108.344 3.498 11.438 7.45 23.526 5.102 36.17-2.874 15.46-14.587 27.368-26.596 34.034-21.883 12.158-47.284 11.158-66.13-2.593-16.286-11.888-27.355-32.17-43.976-43.474-27.78-18.85-64.874-8.765-96.907 7.435-22.663 11.448-47.544 26.05-69.022 16.9-15.112-6.446-24.907-23.805-29.774-42.55-2.35-9.05-3.888-18.91-8.895-25.9-3-4.147-6.997-6.995-11.14-9.31-37.834-21.356-87.75-5.571-124.354-29.586-24.702-16.2-39.4-48.74-44.886-83.295S.33 138.85 3.997 102.683C6.6 76.984 10.334 49.5 24.67 28.888 39.838 7.096 64.44-2.184 86.138.43s40.777 15.556 57.383 31.18c20.754 19.488 39.664 44.203 66.014 50.97 17.946 4.622 37.285.285 56.145-2 31.533-3.773 62.78-1.674 93.82.82 29.72 2.39 59.627 5.192 87.537 15.376 19.75 7.206 35.15 21.558 53.666 31.102 12.068 6.22 25.51 7.3 36.82 15.5 13.932 10.07 26.246 28.328 21.403 50.9-4.602 21.482-23.262 33.235-34.21 49.725z" fill="#052b5d" class="B"/><g class="E"><path d="M460.594 128.133H440.16v30.93h20.434v-30.93z" class="B"/><path d="M458.605 131.14h-16.46v24.915h16.46V131.14zm-28.54-24.494h-31.383v30.93h31.383v-30.93z" class="B"/><path d="M427.012 109.654h-25.28v24.915h25.28v-24.915zm-298.797-49.03H32.292v2.553h95.923v-2.553zm0 12.486H32.292v2.553h95.923V73.1z" class="B"/></g><path d="M203.91 226.18h-9.8v109.504h9.8V226.18z" class="D"/><use xlink:href="#D" fill="#aebee1"/><use xlink:href="#D" class="F"/><path d="M424.38 258.344a10.62 10.62 0 0110.604-10.049h44.55c2.816 0 5.517-1.12 7.51-3.1a10.62 10.62 0 003.11-7.508v-101.01a10.61 10.61 0 012.93-7.33 10.62 10.62 0 017.18-3.283v132.3H424.38z" class="D"/><use xlink:href="#E" fill="#aebee1"/><use xlink:href="#E" class="F"/><path d="M161.972 261.752a10.62 10.62 0 00-10.604-10.049h-44.546a10.604 10.604 0 01-4.066-.807 10.62 10.62 0 01-3.446-2.301 10.593 10.593 0 01-2.303-3.446 10.64 10.64 0 01-.81-4.064v-101a10.62 10.62 0 00-10.094-10.604v132.28h75.87zm235.816-35.572h-9.8v112.057h9.8V226.18z"/><g class="C"><path d="M203.9 226.18h-9.8v8.095h9.8v-8.095zm193.878 0h-9.8v8.095h9.8v-8.095zM229.1 159.494l-.594 5.247h-1.385v-5.247h1.98z" class="B"/></g><g class="F"><path d="M269.263 214c.03 1.774-1.25 3.228-2.833 3.228h-29.91v-3.118h24.887c1.074 0 1.744-1.3 1.204-2.34l-22.568-45.897c-.16-.33-.407-.61-.716-.8s-.666-.3-1.033-.32H227.13V159.5h14.098a1.39 1.39 0 01.723.223 1.4 1.4 0 01.501.566l25.87 49.97a8.5 8.5 0 01.939 3.743z"/><path d="M214.333 205.676l-.4.69-3.832-2.558 11.858-91.18h3.053l.33 1.22c2.044 7.88 12.084 52.51-11 91.83z"/></g><path d="M225.327 113.846l-10.994 91.83-.4.69-3.832-2.558 11.858-91.18h3.053l.325 1.22z" class="B C"/><path d="M217.872 111.684l-11.25 93.916 7.194.862 11.25-93.917-7.195-.86z" class="D"/><path d="M181.966 214.036a.86.86 0 01-.252.603.85.85 0 01-.603.25h-1.28c-.227 0-.444-.1-.604-.25s-.25-.377-.25-.604a.335.335 0 010-.1.854.854 0 01.28-.534.85.85 0 01.564-.215h1.28a.857.857 0 01.825.649.807.807 0 01.04.2zm3.834 0a.864.864 0 01-.252.603.86.86 0 01-.603.252h-1.28a.898.898 0 01-.604-.25.85.85 0 01-.251-.604.88.88 0 01.035-.235.814.814 0 01.215-.365.83.83 0 01.275-.185.823.823 0 01.325-.064h1.28a.854.854 0 01.466.134.86.86 0 01.319.365.88.88 0 01.075.35zm3.407 0a.86.86 0 01-.252.603.85.85 0 01-.603.25h-1.28c-.227 0-.444-.1-.604-.25s-.25-.377-.25-.604a.79.79 0 01.075-.355.87.87 0 01.315-.36.88.88 0 01.459-.139h1.28c.113 0 .224.02.328.064a.86.86 0 01.278.185c.078.08.143.174.185.278a.84.84 0 01.064.328h.005zm3.838 0a.86.86 0 01-.855.855h-1.28c-.156-.001-.3-.044-.443-.125s-.242-.197-.314-.335a.86.86 0 01-.095-.451.857.857 0 01.152-.434l.1-.1a.85.85 0 01.275-.185.823.823 0 01.325-.064h1.28a.85.85 0 01.338.073.87.87 0 01.282.201.83.83 0 01.235.575z" fill="#e3edf9"/><g class="C"><path d="M181.94 213.83a.79.79 0 01.025.205.86.86 0 01-.252.603.85.85 0 01-.603.25h-1.28c-.227 0-.444-.1-.604-.25s-.25-.377-.25-.604a.335.335 0 010-.1l2.963-.105zm3.8-.134a.88.88 0 01.07.335.864.864 0 01-.252.603.85.85 0 01-.603.25h-1.28a.898.898 0 01-.604-.25.85.85 0 01-.251-.604.88.88 0 01.035-.235l2.884-.1zm3.352-.116a.85.85 0 01.13.45.86.86 0 01-.252.603.85.85 0 01-.603.25h-1.28c-.227 0-.444-.1-.604-.25s-.25-.378-.25-.604a.79.79 0 01.075-.355l2.783-.095zm3.963.456a.86.86 0 01-.252.603.85.85 0 01-.603.25h-1.28c-.156 0-.3-.043-.443-.124s-.242-.197-.314-.336a.86.86 0 01-.095-.45.857.857 0 01.152-.434l2.6-.1a.83.83 0 01.235.58z" class="B"/></g><path d="M200.71 217.444H176v-1.124a1.926 1.926 0 011.86-1.924l19.82-.685a2.95 2.95 0 011.154.194 2.92 2.92 0 01.987.629c.284.274.51.6.663.964s.234.752.235 1.146l-.005.8z" class="D"/><g class="F"><path d="M322.63 214c-.03 1.774 1.25 3.228 2.834 3.228h29.923v-3.118H330.47c-1.074 0-1.744-1.3-1.204-2.34l22.567-45.897a2 2 0 01.716-.81 1.99 1.99 0 011.033-.319h11.17V159.5h-14.087c-.253.01-.5.087-.71.226a1.4 1.4 0 00-.493.558l-25.87 49.97a8.509 8.509 0 00-.96 3.748z"/><path d="M377.564 205.676l.4.69 3.833-2.558-11.858-91.18h-3.054l-.33 1.22c-2.05 7.88-12.108 52.51 11 91.83z"/></g><path d="M366.565 113.846l10.994 91.83.4.69 3.833-2.558-11.853-91.18h-3.054l-.33 1.22z" class="B C"/><path d="M374.03 111.674l-7.195.862 11.25 93.917 7.194-.862-11.25-93.917z" class="D"/><path d="M409.927 214.036a.86.86 0 00.854.854h1.28a.9.9 0 00.604-.25c.16-.15.25-.377.25-.604a.42.42 0 000-.1.85.85 0 00-.844-.749h-1.28a.834.834 0 00-.523.184.85.85 0 00-.3.465.764.764 0 00-.04.2zm-3.833 0a.86.86 0 00.854.855h1.28a.856.856 0 00.327-.066.83.83 0 00.277-.185.85.85 0 00.185-.277.855.855 0 00.065-.327.81.81 0 00-.035-.235.814.814 0 00-.215-.365.84.84 0 00-.274-.185.826.826 0 00-.325-.064h-1.305a.85.85 0 00-.465.134.87.87 0 00-.32.365.883.883 0 00-.05.35zm-3.408 0a.86.86 0 00.854.854h1.28c.226 0 .443-.1.604-.25s.25-.377.25-.604a.804.804 0 00-.075-.355.88.88 0 00-.316-.36.886.886 0 00-.458-.14h-1.28a.86.86 0 00-.328.064.867.867 0 00-.278.185.84.84 0 00-.185.278.86.86 0 00-.063.328h-.005zm-3.838 0a.86.86 0 00.854.855h1.28c.156-.001.3-.044.443-.125s.242-.197.314-.335a.86.86 0 00.095-.451.85.85 0 00-.153-.434l-.1-.1a.84.84 0 00-.274-.185.826.826 0 00-.325-.064h-1.28a.86.86 0 00-.338.073.875.875 0 00-.28.2.82.82 0 00-.235.575z" fill="#e3edf9"/><g class="C"><path d="M409.952 213.83a.75.75 0 00-.025.205.86.86 0 00.854.854h1.28a.9.9 0 00.604-.25c.16-.15.25-.377.25-.604a.42.42 0 000-.1l-2.963-.105zm-3.788-.134a.88.88 0 00-.07.335.86.86 0 00.252.603.85.85 0 00.602.25h1.28a.855.855 0 00.327-.065.85.85 0 00.462-.462.855.855 0 00.065-.327.81.81 0 00-.035-.235l-2.883-.1zm-3.354-.116a.85.85 0 00-.13.45.86.86 0 00.854.854h1.28c.226 0 .443-.1.604-.25s.25-.378.25-.604a.804.804 0 00-.075-.355l-2.783-.095zm-3.962.456a.86.86 0 00.252.603.85.85 0 00.602.25h1.28c.156 0 .3-.043.443-.124s.242-.197.314-.336a.86.86 0 00.095-.45.85.85 0 00-.153-.434l-2.598-.1a.82.82 0 00-.235.58z" class="B"/></g><path d="M391.182 217.444h24.712v-1.124a1.926 1.926 0 00-1.858-1.924l-19.82-.685a2.955 2.955 0 00-1.154.194 2.93 2.93 0 00-.987.629 2.94 2.94 0 00-.663.964 2.932 2.932 0 00-.234 1.146l.005.8z" class="D"/><path d="M494.616 230.99c11.528-19.554 7.35-58.995 7.815-59.75.415-.665-1.174-19.24-11.768-23.776-1.914-3.793-3.798-8.065-3.798-8.065-.186.174-.4.327-.6.455l-.245-.7c-.135-.395-.26-.8-.385-1.204a8.05 8.05 0 00.905.23c.808.197 1.658.12 2.42-.215a2.68 2.68 0 00.694-.535c.835-.555 1.295-1.554 1.684-2.498l3.084-7.386c1.39-3.333 2.788-6.686 3.528-10.22a28.77 28.77 0 00-1.23-15.92c-.73-1.94-1.74-3.878-3.453-5.037-3.433-2.33-8.2-.72-12.133-2.084-1.29-.45-2.454-1.21-3.743-1.67-2.784-1-5.927-.465-8.605.78s-4.848 3.223-7.19 4.997c-1.155.884-3 1.798-4.358 2.998-1.32 1.03-2.334 2.273-2.14 3.912.22 1.874 2.194 3 4.033 3.438.305.07.62.125.93.18a18 18 0 00-4.565 7.949 17.98 17.98 0 004.414 17.17 17.964 17.964 0 007.832 4.763 42.166 42.166 0 012.43 5.462l.265.774c-3.03.86-5.397 1.574-5.872 1.97-1.434 1.19 1.57 11.603 1.57 11.603a51.689 51.689 0 00-2.334 3.258 70.25 70.25 0 00-11.074 30.267c-.5 3.953-1.15 7.995-1.974 11.838l-35.815-7.18-.075.885-.854-.2-2.69-.665-.105.605-.4-.195c-6.66-3.123-17.885-7.11-25.486-2.998-8.02 4.317 9.3 10.054 20.4 13.107-3.683.18-7.206 1.064-9.995 3.133-8.055 6.036 14.727 9.18 25.487 10.294l.434.045v.23l4.603.424.085 1.33 12.468 1.934c-8.14 2.034-18.2 3.443-25.186 4.268-7.406.87-13.713 6.026-15.702 13.217a11.753 11.753 0 00-.18 6.356c2.08 7.26-.46 60.673-1.034 72.176l-13.168 7.58s-20.49 2.498-6.84 7.3a28.07 28.07 0 003.763 1c-1.8 1.16-1.644 2.673 3.658 4.532 13.657 4.787 45.405-.2 45.405-.2s-.695-5.626-1.824-10.304l.35.03s-3.278-12.197 1.694-18.35-.835-52.968-.835-52.968 8.706-3.602 34.726-3.837c20.99 5.387 31.218-13.897 31.074-23.866-.045-.225-.055-.455-.07-.66z" fill="url(#A)"/><use xlink:href="#F" class="G"/><path d="M416.423 203.227l-1.6 6.497-4.997-1.22 1.804-10.648 4.942 2.583-.15 2.788z" class="B C"/><path d="M416.428 210.338l-6.206-1.534 1.93-11.373 4.962 1.224-.685 11.683z" class="H"/><path d="M416.428 210.338l-2.678-.66 1.01-11.603 2.354.58-.685 11.683z" class="B C"/><path d="M476.316 163.232s-11.92-6.886-17.216 12.867-5.797 28.852-5.797 28.852l-37.64-7.525-1.195 13.747s40.243 12.992 45.306 12.047 21.488-28.482 21.488-28.482 14.932-21.343-4.947-31.506z" class="E"/><g class="B C"><use xlink:href="#F" class="B"/><path d="M416.423 203.227l-1.6 6.497-4.997-1.22 1.804-10.648 4.942 2.583-.15 2.788z" class="B"/><path d="M416.428 210.338l-6.206-1.534 1.93-11.373 4.962 1.224-.685 11.683z" class="B"/><path d="M416.428 210.338l-2.678-.66 1.01-11.603 2.354.58-.685 11.683z" class="B"/><path d="M476.316 163.73s-11.92-6.886-17.216 12.868-5.797 28.852-5.797 28.852l-37.64-7.525-1.195 13.746s40.243 12.993 45.306 12.048 21.488-28.483 21.488-28.483 14.932-21.342-4.947-31.506z" class="B"/></g><path d="M400.507 316.29l-15.367 8.85s-19.91 2.438-6.646 7.086 44.096-.205 44.096-.205-1.714-13.852-4.103-15.786-17.98.055-17.98.055z" fill="#68739d"/><use xlink:href="#G" fill="#6394e2"/><g class="B C"><path d="M400.507 316.29l-15.367 8.85s-19.91 2.438-6.646 7.085 44.096-.204 44.096-.204-1.714-13.852-4.103-15.786-17.98.055-17.98.055z" class="B"/><use xlink:href="#G" class="B"/></g><path d="M407.713 321.66l-15.367 8.85s-19.9 2.418-6.646 7.085 44.096-.205 44.096-.205-1.714-13.85-4.103-15.785-17.98.055-17.98.055z" fill="#68739d"/><path d="M462.898 254.45c-25.266.23-33.722 3.728-33.722 3.728s5.642 45.473.8 51.424-1.65 17.82-1.65 17.82L405 325.264l.105-2.12c.56-11.173 3.024-63.042 1-70.093a11.41 11.41 0 01.175-6.176c.982-3.4 2.956-6.45 5.67-8.737s6.048-3.713 9.575-4.1c6.882-.805 16.846-2.204 24.807-4.228l.4-.1c13.342-3.428 20.838-7.35 20.838-7.35s21.144-1.9 24.757 5.282a8.49 8.49 0 01.739 3.622c.18 9.7-9.764 28.418-30.158 23.186z" fill="#6394e2"/><path d="M427.702 211.897l-.854 9.245-5.108-.465c-10.43-1.084-32.552-4.133-24.73-9.994 6.726-5.037 18.08-2.838 24.93-.8a63.77 63.77 0 015.272 1.82 14.35 14.35 0 01.49.195zm62.07-60.437l-6.95 5.137c-4.193.95-9.06 1.733-12.568 2.243 1.254-3.997.5-8.495-.915-12.437a46.84 46.84 0 00-6.27-11.533l21.148-6.6c-1.66 4.202-.9 8.994.5 13.162a43.4 43.4 0 005.057 10.03z"/><path d="M427.462 214.5l-.614 6.64-5.108-.465.2-10.8 5.272 1.82.25 2.804z" class="B C"/><path d="M428.527 221.53l-6.367-.59.2-11.533 5.092.47 1.065 11.653z" class="H"/><path d="M489.773 151.46l-6.95 5.137c-4.193.95-9.06 1.734-12.568 2.243 1.254-3.997.5-8.495-.915-12.437 5.168-1.5 12.56-3.438 15.382-4.997a43.43 43.43 0 005.052 10.054z" class="B C"/><path d="M485.545 141.655s3.54 8.03 5.767 11.658-25.896 6.995-25.896 6.995-2.918-10.11-1.524-11.268 19.3-5.037 21.653-7.385z" class="H"/><path d="M493.097 231.27a25.344 25.344 0 01-4.378 5.667c-12.423 11.803-32.787-.5-41.977-7.226 13.342-3.428 20.838-7.35 20.838-7.35s21.144-1.9 24.757 5.282a8.507 8.507 0 01.76 3.627z" class="B C"/><path d="M488.8 236.093c-14.123 13.41-38.48-4.348-45.046-9.58-1.064-.85-1.66-1.374-1.66-1.374 2.594-2.428 4.873-7.575 6.677-13.87a121.78 121.78 0 003.633-18.379 68.198 68.198 0 0110.754-29.398c.764-1.15 1.5-2.223 2.264-3.163 5.332-6.78 14.292-11.088 14.292-11.088 18.91-5.527 21.453 22.52 20.948 23.33s4.553 47.926-11.863 63.522z" class="E"/><g class="C"><path d="M490.628 197.75s-12.16 29.682-17.02 31.376c-2.783.964-17.65-.865-29.854-2.6-1.064-.85-1.66-1.374-1.66-1.374 2.594-2.428 4.873-7.575 6.677-13.872l15.716.75s-.875-9.065 1.434-29.392 15.107-15.3 15.107-15.3c21.173 7.1 9.6 30.412 9.6 30.412zm-62.1 23.78l-2.75-.255-.73-11.618 2.413.22 1.065 11.653z" class="B"/></g><path d="M480.723 166.03s-12.798-5.032-15.107 15.29-1.434 29.392-1.434 29.392l-38.344-1.834.865 13.772s41.732 6.85 46.594 5.16 17.02-31.376 17.02-31.376 11.56-23.32-9.595-30.406z" class="E"/><path d="M481.583 135.938c-.56-3.038 2.613-2.998 3.753-5.856l-21.15 6.6a46.686 46.686 0 013.918 6.23 17.58 17.58 0 003.363.649c5.043.48 6.617-4.482 10.115-7.625z" class="B C"/><path d="M489.337 125.953c.888-9.608-6.18-18.115-15.788-19.003s-18.116 6.18-19.004 15.787 6.18 18.116 15.788 19.003 18.117-6.18 19.004-15.787z" class="G"/><path d="M454.702 108.565c.215 1.818 2.134 2.928 3.918 3.338s3.718.43 5.282 1.384c2.5 1.54 3.174 4.957 2.86 7.895-.175 1.66-.425 3.693.934 4.657.427.262.904.432 1.4.5 1.417.287 2.873.338 4.307.15.84-.1 1.704-.3 2.5-.065 1.31.38 2.084 1.76 2.34 3.093s.114 2.723.32 4.067a8.45 8.45 0 006.657 6.866 3.66 3.66 0 002.348-.21c.95-.5 1.435-1.564 1.844-2.558l3-7.176c1.35-3.233 2.708-6.496 3.428-9.924a27.94 27.94 0 00-1.194-15.46c-.7-1.88-1.69-3.763-3.354-4.892-3.333-2.264-7.995-.7-11.783-2-1.254-.435-2.384-1.174-3.633-1.62-2.704-.965-5.757-.455-8.36.76s-4.707 3.128-6.996 4.872c-1.984 1.544-6.186 3.178-5.812 6.322z" class="B C"/><path d="M455.162 108.18c.215 1.82 2.134 2.928 3.918 3.338s3.718.43 5.282 1.384c2.5 1.54 3.173 4.957 2.86 7.895-.175 1.66-.425 3.693.934 4.657a3.61 3.61 0 001.399.5 13.12 13.12 0 004.308.15c.84-.1 1.704-.3 2.5-.065 1.31.38 2.083 1.76 2.338 3.093s.115 2.723.32 4.068a8.446 8.446 0 006.656 6.865 3.67 3.67 0 002.349-.21c.95-.5 1.434-1.564 1.844-2.56l3-7.175c1.35-3.233 2.708-6.497 3.428-9.924a27.942 27.942 0 00-1.195-15.46c-.71-1.88-1.69-3.763-3.353-4.892-3.333-2.264-7.995-.7-11.783-2-1.255-.435-2.384-1.174-3.633-1.62-2.704-.964-5.757-.455-8.36.76s-4.707 3.128-6.996 4.872c-1.98 1.544-6.182 3.178-5.812 6.32z" fill="#b96b6b"/><path d="M469.634 177.193s-6.67 25.914-13.313 28.313-3.708 3.078-3.708 3.078" class="B C"/><path d="M469.95 272.126h-7.25v47.656h7.25v-47.656z" class="D"/><path d="M469.95 272.126h-7.25v3.533h7.25v-3.533z" class="B C"/><path d="M448.19 271.876v1c0 .308.06.613.178.897s.29.543.508.76.476.4.76.508.59.178.897.178h31.572a2.338 2.338 0 001.657-.686c.217-.218.4-.476.508-.76s.178-.59.178-.897v-1a2.36 2.36 0 00-.178-.897 2.347 2.347 0 00-.508-.76 2.34 2.34 0 00-1.658-.687h-31.572a2.34 2.34 0 00-1.658.687c-.217.218-.4.476-.508.76a2.36 2.36 0 00-.178.897z" class="D"/><path d="M448.73 270.387h35.185a2.322 2.322 0 00-.808-.63 2.34 2.34 0 00-1.001-.224h-31.572a2.34 2.34 0 00-.998.225 2.33 2.33 0 00-.806.63z" class="B C"/><path d="M493.366 317.19H439.29a2.75 2.75 0 00-2.749 2.748v.2a2.75 2.75 0 002.749 2.748h54.075a2.75 2.75 0 002.749-2.748v-.2a2.75 2.75 0 00-2.749-2.748z" class="D"/><g class="F"><use xlink:href="#H"/><path d="M439.905 330.14a3.63 3.63 0 003.628-3.628 3.63 3.63 0 00-3.628-3.628 3.63 3.63 0 00-3.628 3.628 3.63 3.63 0 003.628 3.628zm26.42 0a3.63 3.63 0 003.628-3.628 3.63 3.63 0 00-3.628-3.628 3.63 3.63 0 00-3.628 3.628 3.63 3.63 0 003.628 3.628z"/></g><path d="M511.356 213.59h-48.488a4.25 4.25 0 00-4.248 4.248v.31a4.25 4.25 0 004.248 4.248h48.488a4.25 4.25 0 004.248-4.248v-.31a4.25 4.25 0 00-4.248-4.248z" class="D"/><g class="C"><path d="M469.95 317.2s-2.848 2.813-7.25 0h7.25zm45.654-99.107v.695a3.62 3.62 0 01-3.623 3.622h-49.738a3.63 3.63 0 01-2.562-1.06 3.615 3.615 0 01-1.06-2.562v-.695h56.984z" class="B"/></g><path d="M420.796 226.18h-9.8v124.854h9.8V226.18z" class="D"/><path d="M420.796 226.18h-9.8v8.095h9.8v-8.095z" class="B C"/><path d="M123.658 275.534h-7.25V323.2h7.25v-47.656z" class="D"/><path d="M123.658 275.534h-7.25v3.533h7.25v-3.533z" class="B C"/><path d="M138.16 275.29v1a2.344 2.344 0 01-2.344 2.344h-31.573a2.341 2.341 0 01-2.343-2.344v-1a2.34 2.34 0 012.343-2.324h31.573a2.34 2.34 0 01.897.179 2.32 2.32 0 011.268 1.268 2.34 2.34 0 01.179.897v-.02z" class="D"/><path d="M137.625 273.795h-35.19a2.33 2.33 0 01.812-.617c.313-.144.653-.216.997-.213h31.573a2.33 2.33 0 011.809.83z" class="B C"/><path d="M147.07 320.597H92.994a2.75 2.75 0 00-2.749 2.748v.2a2.75 2.75 0 002.749 2.748h54.076a2.75 2.75 0 002.748-2.748v-.2a2.75 2.75 0 00-2.748-2.748z" class="D"/><path d="M93.614 333.55a3.63 3.63 0 003.628-3.628 3.63 3.63 0 00-3.628-3.628 3.63 3.63 0 00-3.628 3.628 3.63 3.63 0 003.628 3.628zm52.836 0a3.63 3.63 0 003.628-3.628 3.63 3.63 0 00-3.628-3.628 3.63 3.63 0 00-3.628 3.628 3.63 3.63 0 003.628 3.628zm-26.42 0a3.63 3.63 0 003.628-3.628 3.63 3.63 0 00-3.628-3.628 3.63 3.63 0 00-3.628 3.628 3.63 3.63 0 003.628 3.628z"/><path d="M116.407 320.597s2.848 2.813 7.25 0h-7.25z" class="B C"/><path d="M301.39 177.133s-8.136-14.786-5.162-27.638a25.56 25.56 0 00-1.425-16.11 42.97 42.97 0 00-3.812-6.866" stroke="#535461" stroke-width="2" stroke-miterlimit="10"/><g class="E"><use xlink:href="#I"/><use xlink:href="#J"/><use xlink:href="#K"/><use xlink:href="#L"/><use xlink:href="#M"/><use xlink:href="#N"/><use xlink:href="#O"/><use xlink:href="#I"/><use xlink:href="#J"/><use xlink:href="#K"/><use xlink:href="#L"/><use xlink:href="#M"/><use xlink:href="#N"/><use xlink:href="#O"/><path d="M298.083 218.143a8.563 8.563 0 01-6.246-2.701 8.58 8.58 0 01-1.816-2.963 8.599 8.599 0 01-.49-3.44l2.394-37.927h12.313l2.394 37.927c.074 1.168-.093 2.34-.49 3.44s-1.014 2.1-1.815 2.963a8.56 8.56 0 01-2.844 1.997 8.545 8.545 0 01-3.402.704z"/><use xlink:href="#P" class="B"/><path d="M57.77 31.7h-6.996v28.983h6.996V31.7zm8.994 0h-6.996v28.983h6.996V31.7zm8.996 0h-6.996v28.983h6.996V31.7zm18 0h-6.996v28.983h6.996V31.7zm8.994 0h-6.996v28.983h6.996V31.7z" class="B"/><use xlink:href="#Q" class="B"/><path d="M48.773 55.177h-6.996v1.5h6.996v-1.5zm8.997-17.99h-6.996v1.5h6.996v-1.5zm0 17.99h-6.996v1.5h6.996v-1.5zm8.994-17.99h-6.996v1.5h6.996v-1.5zm0 17.99h-6.996v1.5h6.996v-1.5zm8.996-17.99h-6.996v1.5h6.996v-1.5zm0 17.99h-6.996v1.5h6.996v-1.5zm8.994-17.99h-6.996v1.5h6.996v-1.5zm0 17.99h-6.996v1.5h6.996v-1.5zm8.996-17.99h-6.996v1.5h6.996v-1.5zm0 17.99h-6.996v1.5h6.996v-1.5zm8.994-17.99h-6.996v1.5h6.996v-1.5z" class="B"/><path d="M102.744 55.177h-6.996v1.5h6.996v-1.5zm-18-23.487h-6.996v28.983h6.996V31.7zm24.57-.132l-6.35 2.94 12.176 26.3 6.35-2.94-12.176-26.3z" class="B"/><path d="M111.634 36.55l-6.348 2.94.63 1.36 6.35-2.94-.63-1.36zm7.554 16.324l-6.35 2.94.63 1.36 6.35-2.94-.63-1.36z" class="B"/></g><path d="M194.464 330.536l-12.698-8.1c-.065-11.41-.245-64.372 2.13-71.457a11.64 11.64 0 00.1-6.302c-1.65-7.2-7.666-12.577-14.957-13.76-6.876-1.12-16.77-2.953-24.737-5.322l12.424-1.37.14-1.314 4.572-.22v-.195l.435-.025c10.68-.635 33.357-2.748 25.65-9.075-2.644-2.168-6.092-3.193-9.73-3.538 11.124-2.538 28.5-7.455 20.76-12.077-7.366-4.388-18.645-.94-25.376 1.864l-.415.175-.075-.605-2.69.54-.854.17-.04-.88-37.725 5.827a128.46 128.46 0 00-1.539-12.898c.845-5.626 4.773-13.83 3.388-18.234-1.61-5.112-8.215-6.786-10.994-11.403a52.806 52.806 0 00-2.163-3.323 35 35 0 00-5.322-5.751 24.3 24.3 0 011.958-8.62 41.82 41.82 0 012.639-5.297 17.791 17.791 0 0010.668-7.625 17.79 17.79 0 002.545-12.863c2.39 1.025 5.292 1.13 6.786-.87l-.7-.275c.07-.075.14-.15.2-.235-1.454-.554-2.998-1.184-4.137-2.193a4.81 4.81 0 01-.725-1.075c-.7-1.4-.6-3.078-1.27-4.497a5.202 5.202 0 00-1.295-1.69 8.91 8.91 0 00-4.227-2.419c-1.804-.524-3.703-.79-5.432-1.5a18.37 18.37 0 00-8.944-5.694 18.349 18.349 0 00-10.6.198l-.624.215a8.149 8.149 0 00-1.127-6.066 8.15 8.15 0 00-11.14-2.521 8.15 8.15 0 00-3.629 4.989 8.13 8.13 0 012.179-4.867c-.13.1-.265.215-.4.33-.78.734-1.408 1.614-1.85 2.6a8.163 8.163 0 00-.192 6.24 8.15 8.15 0 001.686 2.699l.145.14a8.18 8.18 0 002.044 1.789 8.15 8.15 0 01-3.638-2.576 8.161 8.161 0 01-1.74-4.105v.5a8.15 8.15 0 00.807 3.092 8.15 8.15 0 001.933 2.545 8.18 8.18 0 002.763 1.607 8.15 8.15 0 003.168.421l.225-.025-.12.165c-2.324 3.418-3.426 7.52-3.126 11.643s1.982 8.022 4.775 11.07c.332.76.773 1.466 1.31 2.098.19.216.39.42.605.6a7.75 7.75 0 005.227 2.408c.333.397.688.778 1.064 1.145a29.629 29.629 0 01-1.29 4.117 43.63 43.63 0 01-3.958 7.631c-10.794 3.068-11.744 21.397-11.354 22.09.465.83-1.61 29.613 6.386 64.382-.33 9.94 5.467 26.374 26.046 22.04 25.735 1.374 34.176 5.317 34.176 5.317s-2.444 44.758 1.044 51.274c2.184 4.083.635 10.08-1 14.31a15.7 15.7 0 00-1.439 3.318c-.5 1.055-.865 1.694-.865 1.694h.35c-1.32 4.583-2.254 10.114-2.254 10.114s31.198 6.332 44.92 2.19c5.327-1.61 5.547-3.098 3.818-4.327a27.913 27.913 0 003.768-.825c13.732-4.142-6.447-7.535-6.447-7.535z" fill="url(#B)"/><path d="M126.58 118.06a17.985 17.985 0 01-11.106 16.62 17.988 17.988 0 01-19.604-3.9 17.99 17.99 0 01-4.924-9.211 17.984 17.984 0 011.024-10.393 17.99 17.99 0 016.626-8.074 18 18 0 019.995-3.031 17.99 17.99 0 016.884 1.369 18 18 0 019.737 9.736 17.982 17.982 0 011.37 6.884z" class="I"/><use xlink:href="#R" class="G"/><path d="M167.62 205.14l1.31 6.536 5.032-1-1.334-10.72-5.052 2.364.045 2.818z" class="B C"/><path d="M167.304 212.242l6.266-1.254-1.42-11.448-5.017 1.004.17 11.698z" class="H"/><path d="M167.304 212.242l2.703-.545-.494-11.628-2.38.475.17 11.698z" class="B C"/><path d="M109.545 162.532s12.2-6.356 16.63 13.617 4.498 29.077 4.498 29.077l37.94-5.86.6 13.786s-40.778 11.21-45.8 10.04-20.23-29.407-20.23-29.407-13.943-21.962 6.36-31.25z" class="E"/><g class="B C"><use xlink:href="#R" class="B"/><path d="M167.62 205.14l1.31 6.536 5.032-1-1.334-10.72-5.052 2.364.045 2.818z" class="B"/><path d="M167.304 212.242l6.266-1.254-1.42-11.448-5.017 1.004.17 11.698z" class="B"/><path d="M167.304 212.242l2.703-.545-.494-11.628-2.38.475.17 11.698z" class="B"/><path d="M110.545 163.53s12.198-6.356 16.63 13.617 4.497 29.078 4.497 29.078l37.94-5.862.59 13.787s-40.777 11.208-45.8 10.04-20.23-29.408-20.23-29.408-13.942-21.96 6.362-31.25z" class="B"/></g><path d="M178.553 318.793l14.962 9.494s19.784 3.313 6.326 7.375-44.04-2.148-44.04-2.148 2.324-13.762 4.798-15.586 17.955.865 17.955.865z" fill="#f37291"/><use xlink:href="#S" fill="#96a2d0"/><g class="B C"><use xlink:href="#T" class="B"/><use xlink:href="#S" class="B"/></g><path d="M171.097 323.845l14.962 9.494s19.784 3.313 6.326 7.376-44.04-2.15-44.04-2.15 2.324-13.762 4.798-15.586 17.955.865 17.955.865z" fill="#f37291"/><path d="M118.905 254.262c25.237 1.344 33.527 5.212 33.527 5.212s-2.394 43.883 1 50.27c3.623 6.776-3.238 18.94-3.238 18.94l23.407-1.125v-2.118c-.07-11.184-.24-63.112 2.084-70.073.6-2.01.632-4.148.095-6.176a17.89 17.89 0 00-5.282-8.976 17.9 17.9 0 00-9.385-4.516c-6.84-1.11-16.73-2.943-24.596-5.317l-.385-.12c-13.178-3.997-20.49-8.26-20.49-8.26s-15.586-1.08-19.49 5.937c-.5.91-2.654 2.698-2.744 4.142-.585 9.664 4.917 26.514 25.496 22.182z" fill="#96a2d0"/><path d="M155.97 213.3l.445 9.275 5.127-.24c10.47-.625 32.707-2.694 25.15-8.895-6.496-5.332-17.94-3.633-24.87-1.9-2.544.64-4.498 1.28-5.347 1.584l-.505.175zm-59.373-63.116l6.717 5.442c4.147 1.13 8.995 2.134 12.458 2.8-1.074-4.073-.12-8.495 1.464-12.388a46.82 46.82 0 016.776-11.248l-20.838-7.53c1.474 4.273.5 9.045-1.085 13.127a43.17 43.17 0 01-5.492 9.8z"/><path d="M156.095 215.915l.32 6.66 5.127-.24.28-10.8-5.347 1.584-.38 2.794z" class="B C"/><path d="M154.726 222.89l6.38-.305.3-11.533-5.107.245-1.574 11.593z" class="H"/><path d="M93.864 234.778c13.493 14.027 38.654-2.643 45.42-7.58 1.1-.804 1.714-1.3 1.714-1.3-2.498-2.544-6.496-4.897-8.03-11.268a138.43 138.43 0 01-2.969-19.748c-.415-5.272 5.032-15.31 3.458-20.318s-8.055-6.65-10.78-11.183c-.714-1.18-1.424-2.29-2.124-3.26-5.027-6.995-13.787-11.707-13.787-11.707-18.665-6.372-20.13 20.282-19.664 21.112s-1.67 30.212 6.76 65.25z" class="E"/><g class="C"><path d="M93.724 196.392s10.84 30.2 15.62 32.095c2.74 1.1 17.676-.085 29.94-1.3 1.1-.804 1.714-1.3 1.714-1.3-2.498-2.544-4.532-7.785-6.06-14.152l-15.737.055s1.274-8.994-.135-29.427-14.417-15.94-14.417-15.94c-21.453 6.15-10.924 29.957-10.924 29.957zm61.002 26.498l2.753-.13 1.245-11.578-2.424.115-1.574 11.593z" class="B"/></g><path d="M105.018 165.135s12.993-4.462 14.417 15.94.15 29.427.15 29.427l38.39-.14-1.474 13.722s-41.977 4.997-46.775 3.103-15.626-32.09-15.626-32.09-10.54-23.8 10.92-29.962z" class="E"/><path d="M105.493 135.05c.694-3-2.5-3.094-3.5-5.997l20.85 7.496a46.744 46.744 0 00-4.188 6.05 17.54 17.54 0 01-3.388.5c-5.067.25-6.42-4.762-9.774-8.05z" class="B C"/><path d="M116.456 141.348c9.638-.463 17.075-8.65 16.612-18.287s-8.65-17.074-18.288-16.61-17.075 8.65-16.612 18.287 8.65 17.074 18.288 16.61z" class="G"/><g class="C"><path d="M106.592 178.093s5.527 26.18 12.053 28.852 3.568 3.243 3.568 3.243m7.157-17.308s-4.618 1.444-9.995-5.457l9.995 5.457z" class="B"/></g><g class="I"><path d="M94.6 107.565a7.995 7.995 0 000-15.99 7.996 7.996 0 100 15.99z"/><path d="M88.982 103.792c-1.4-1.482-2.163-3.437-2.163-5.47s.773-3.987 2.163-5.47l-.38.325a7.994 7.994 0 00-.35 11.304 8 8 0 0011.304.35c.125-.115.235-.24.345-.36a8 8 0 01-5.594 1.82 7.994 7.994 0 01-5.325-2.5z"/><path d="M93.55 106.81a7.992 7.992 0 01-8.415-6.996v.5a7.998 7.998 0 002.69 5.496 8 8 0 002.697 1.568c.993.34 2.044.482 3.092.416a8 8 0 003.016-.799c.943-.46 1.786-1.104 2.48-1.892s1.227-1.704 1.568-2.697.482-2.044.416-3.092c0-.17-.035-.33-.055-.5a8 8 0 01-7.491 7.996z"/></g><path d="M122.06 106.52c1.864.92 3.997 1.174 5.996 1.754s4.038 1.64 4.918 3.527c.644 1.4.57 3.034 1.244 4.408.97 2 3.208 2.918 5.267 3.703-1.77 2.373-5.567 1.728-8.046.114s-4.612-3.997-7.496-4.622a7.03 7.03 0 00-4.22.475 7.03 7.03 0 00-3.179 2.818c-.8 1.384-1.07 2.998-1.46 4.538-1 4.057-2.998 8.095-6.496 10.398s-8.7 2.29-11.454-.864c-1.6-1.84-2.134-4.343-2.61-6.73a13.68 13.68 0 01-.385-3.403c.16-2.868 2.07-5.312 3.998-7.44 2.273-2.498 4.692-4.897 7.112-7.28 2.09-2.06 4.497-5.547 7.645-5.792 3.63-.3 6.192 2.943 9.166 4.398z" class="B C"/><path d="M121.56 106.02c1.864.92 3.998 1.174 5.997 1.754s4.037 1.64 4.917 3.528c.644 1.39.57 3.033 1.244 4.407.97 2 3.208 2.918 5.267 3.703-1.77 2.374-5.567 1.73-8.045.115s-4.613-3.998-7.496-4.622a7.035 7.035 0 00-7.402 3.294c-.8 1.384-1.07 2.998-1.46 4.537-1 4.058-3 8.095-6.497 10.4s-8.7 2.288-11.454-.865c-1.6-1.84-2.134-4.342-2.61-6.73a13.68 13.68 0 01-.385-3.403c.16-2.868 2.07-5.31 3.998-7.44 2.274-2.5 4.692-4.897 7.11-7.28 2.09-2.06 4.497-5.546 7.646-5.79 3.628-.3 6.19 2.943 9.165 4.397z" class="I"/><path d="M123.488 217H75a4.25 4.25 0 00-4.248 4.247v.3A4.25 4.25 0 0075 225.795h48.49a4.25 4.25 0 004.247-4.248v-.3A4.25 4.25 0 00123.49 217z" class="D"/><path d="M70.752 221.496v.695a3.615 3.615 0 003.622 3.622h49.738a3.63 3.63 0 002.562-1.06 3.62 3.62 0 001.061-2.562v-.695H70.752z" class="B C"/><path d="M180.9 226.18h-9.8v124.84h9.8V226.18z" class="D"/><path d="M180.9 226.18h-9.8v8.095h9.8v-8.095z" class="B C"/><path d="M425.483 217.23h-259.07v16.2h259.07v-16.2z" class="D"/></g><defs><path id="D" d="M490.153 237.677v-101.01a10.62 10.62 0 0110.619-10.614 10.62 10.62 0 0110.599 10.614v122.246c0 2.816-1.118 5.517-3.1 7.508s-4.692 3.1-7.51 3.1h-65.77a10.62 10.62 0 01-10.619-10.618c0-2.816 1.12-5.517 3.1-7.51s4.693-3.1 7.51-3.1h44.55c2.816 0 5.517-1.12 7.51-3.1a10.62 10.62 0 003.11-7.508z"/><path id="E" d="M96.198 241.084v-101.01a10.621 10.621 0 00-10.593-10.62 10.62 10.62 0 00-7.509 3.11 10.603 10.603 0 00-3.1 7.508v122.247a10.62 10.62 0 00.801 4.071 10.61 10.61 0 002.3 3.453 10.63 10.63 0 003.448 2.309c1.3.535 2.673.8 4.07.8h65.765a10.62 10.62 0 007.508-3.11c1.992-1.99 3.11-4.692 3.11-7.508s-1.12-5.518-3.11-7.51a10.62 10.62 0 00-7.508-3.11h-44.546a10.61 10.61 0 01-4.071-.809 10.608 10.608 0 01-6.554-9.835z"/><path id="F" d="M417.048 200.69l-2.224 8.995-4.997-1.22c-10.155-2.628-31.573-8.94-22.988-13.572 7.4-3.997 18.3-.11 24.772 2.924a61.728 61.728 0 014.942 2.583l.495.3z"/><path id="G" d="M460.4 217s-7.646 3.998-21.228 7.45c-7.96 1.998-17.925 3.418-24.812 4.227a17.9 17.9 0 00-9.572 4.086 17.906 17.906 0 00-5.68 8.72 11.41 11.41 0 00-.175 6.197c2.264 7.9-1.115 72.21-1.115 72.21l23.338 2.16s-3.184-11.848 1.65-17.82-.8-51.424-.8-51.424 8.456-3.497 33.722-3.727c23.407 5.996 33.052-19.623 29.44-26.804S460.4 217 460.4 217z"/><path id="H" d="M492.747 330.14a3.63 3.63 0 003.628-3.628 3.63 3.63 0 00-3.628-3.628 3.63 3.63 0 00-3.628 3.628 3.63 3.63 0 003.628 3.628z"/><path id="I" d="M292.796 118.404c.424 1.938-1.85 8.33-1.85 8.33s-4.743-4.848-5.173-6.786a3.61 3.61 0 01-.13-1.465c.058-.49.217-.966.467-1.393s.586-.8.987-1.1a3.59 3.59 0 011.34-.604 3.604 3.604 0 012.824.557c.407.282.75.646 1 1.068a3.58 3.58 0 01.499 1.383h.025z"/><path id="J" d="M300.956 127.863c-.695 1.86-6.077 5.996-6.077 5.996s-1.35-6.646-.65-8.495c.15-.46.39-.885.71-1.25a3.61 3.61 0 011.143-.872 3.59 3.59 0 011.394-.354 3.6 3.6 0 011.421.22 3.59 3.59 0 012.045 1.938 3.58 3.58 0 01.019 2.817h-.005z"/><path id="K" d="M304.734 146.262c-1.54 1.254-8.27 2.1-8.27 2.1s2.193-6.417 3.732-7.67c.366-.303.787-.53 1.24-.67a3.58 3.58 0 011.403-.14c.472.046.93.185 1.348.4a3.58 3.58 0 011.087.897c.3.368.524.79.66 1.246a3.6 3.6 0 01.128 1.404c-.05.47-.193.928-.42 1.344a3.6 3.6 0 01-.907 1.08z"/><path id="L" d="M304.46 160.823c-1.304 1.5-7.796 3.468-7.796 3.468s1.075-6.696 2.38-8.2a3.6 3.6 0 011.108-.903 3.604 3.604 0 012.792-.233 3.6 3.6 0 012.11 1.841c.2.432.332.903.357 1.383a3.58 3.58 0 01-.21 1.413 3.595 3.595 0 01-.744 1.22h.005z"/><path id="M" d="M287.593 135.843c1.69 1.044 8.47 1 8.47 1s-3-6.08-4.688-7.125a3.59 3.59 0 00-1.323-.532 3.6 3.6 0 00-2.729.603c-.39.277-.723.63-.976 1.04a3.6 3.6 0 00-.496 1.337c-.074.474-.052.958.064 1.424a3.59 3.59 0 00.612 1.287c.288.384.65.706 1.065.948v.02z"/><path id="N" d="M287.493 152.883c1.924.5 8.386-1.56 8.386-1.56s-4.683-4.907-6.607-5.397a3.59 3.59 0 00-4.228 2.623c-.23.899-.103 1.85.353 2.66s1.208 1.407 2.096 1.673z"/><path id="O" d="M289.657 169.453c1.81.81 8.53-.12 8.53-.12s-3.788-5.627-5.597-6.436a3.592 3.592 0 00-4.824 4.563c.34.89 1.02 1.61 1.9 1.998v-.005z"/><path id="P" d="M48.773 31.69h-6.996v28.983h6.996V31.69z"/><path id="Q" d="M48.773 37.188h-6.996v1.5h6.996v-1.5z"/><path id="R" d="M167.104 202.573l1.824 9.104 5.032-1c10.26-2.174 31.938-7.54 23.542-12.548-7.22-4.302-18.28-.92-24.876 1.83-2.42 1-4.238 1.93-5.052 2.364-.305.155-.47.25-.47.25z"/><path id="S" d="M123.083 216.95s7.46 4.333 20.88 8.38c7.865 2.374 17.76 4.208 24.596 5.322a17.9 17.9 0 019.386 4.515 17.895 17.895 0 015.28 8.977 11.407 11.407 0 01-.095 6.176c-2.608 7.805-2.08 72.192-2.08 72.192l-23.407 1.124s3.703-11.698-.86-17.874 3.078-51.334 3.078-51.334-8.29-3.868-33.527-5.212c-23.652 4.997-32.152-21.062-28.224-28.078s24.97-4.188 24.97-4.188z"/><path id="T" d="M178.553 318.793l14.962 9.494s19.784 3.313 6.326 7.376-44.04-2.15-44.04-2.15 2.324-13.762 4.798-15.586 17.955.865 17.955.865z"/><linearGradient id="A" x1="431.812" y1="346.783" x2="454.963" y2="89.533" gradientUnits="userSpaceOnUse"><stop stop-color="gray" stop-opacity=".25"/><stop offset=".54" stop-color="gray" stop-opacity=".12"/><stop offset="1" stop-color="gray" stop-opacity=".1"/></linearGradient><linearGradient id="B" x1="40206.6" y1="181157" x2="40206.6" y2="50443.9" gradientUnits="userSpaceOnUse"><stop stop-color="gray" stop-opacity=".25"/><stop offset=".54" stop-color="gray" stop-opacity=".12"/><stop offset="1" stop-color="gray" stop-opacity=".1"/></linearGradient><clipPath id="C"><path fill="#fff" d="M0 0h560v431H0z"/></clipPath></defs></svg>