<svg width="176" height="131" viewBox="0 0 176 131" fill="none" xmlns="http://www.w3.org/2000/svg">
<g clip-path="url(#clip0)">
<path opacity="0.25" d="M108.756 18.7103C98.0771 18.4351 87.9067 15.8771 78.1949 13.0785C68.4831 10.2799 58.8637 7.17301 48.4408 5.68964C41.7369 4.73534 34.0695 4.60019 28.6691 7.26861C23.47 9.83319 21.7903 14.2602 20.8878 18.3807C20.208 21.4744 19.8087 24.7295 21.6699 27.6254C22.9635 29.6362 25.2569 31.3256 26.8442 33.2523C32.3667 39.9539 28.4629 48.2163 22.48 54.7596C19.6751 57.8285 16.4164 60.7557 14.2499 64.0241C12.0835 67.2924 11.082 71.0338 12.9778 74.3681C14.8555 77.6645 19.3319 80.1516 24.1812 81.897C34.0299 85.4423 45.6309 86.4559 56.9514 87.0312C82.003 88.3036 107.187 87.7514 132.304 87.196C141.6 86.9916 147.162 88.2689 156.307 87.196C161.385 86.6043 165.062 85.1768 168.75 82.9073C173.429 80.0262 170.253 73.4556 167.117 69.8427C161.857 63.7823 156.991 62.9709 153.31 56.4671C151.287 52.8872 153.365 48.9003 156.307 45.5792C162.616 38.4573 173.191 32.209 173.747 24.067C174.13 18.4763 169.046 12.8758 161.186 10.2304C152.947 7.45815 141.521 7.80592 135.446 12.3961C129.184 17.1281 118.185 18.9477 108.756 18.7103Z" fill="#FFBD59"/>
<path d="M96.7791 49.1473C99.1431 49.1473 101.454 49.8444 103.42 51.1504C105.385 52.4565 106.917 54.3128 107.822 56.4847C108.726 58.6566 108.963 61.0464 108.502 63.352C108.04 65.6576 106.902 67.7754 105.23 69.4375C103.558 71.0996 101.428 72.2315 99.1098 72.6899C96.7911 73.1483 94.3879 72.9127 92.2039 72.0128C90.0199 71.113 88.1533 69.5893 86.8402 67.6346C85.527 65.6798 84.8263 63.3817 84.8266 61.0309C84.8271 57.879 86.0866 54.8564 88.328 52.6278C90.5695 50.3992 93.6094 49.1473 96.7791 49.1473ZM96.7791 46.2122C93.8312 46.2122 90.9496 47.0814 88.4986 48.71C86.0476 50.3386 84.1373 52.6533 83.0093 55.3615C81.8813 58.0697 81.5863 61.0497 82.1615 63.9246C82.7367 66.7996 84.1564 69.4403 86.2409 71.5129C88.3255 73.5855 90.9813 74.9969 93.8725 75.5686C96.7637 76.1402 99.7605 75.8465 102.484 74.7245C105.207 73.6025 107.535 71.7026 109.172 69.2652C110.81 66.8278 111.683 63.9622 111.683 61.0309C111.679 57.1019 110.107 53.335 107.313 50.5569C104.519 47.7788 100.73 46.2163 96.7791 46.2122Z" fill="#3F3D56"/>
<path d="M98.0656 42.7453H94.5723V46.4021H98.0656V42.7453Z" fill="#3F3D56"/>
<path d="M107.291 46.0177L104.296 44.2286L102.402 47.3631L105.397 49.1522L107.291 46.0177Z" fill="#3F3D56"/>
<path d="M113.432 53.2549L111.738 50.2167L108.522 51.9895L110.216 55.0278L113.432 53.2549Z" fill="#3F3D56"/>
<path d="M111.692 71.7455L113.543 68.7995L110.425 66.8617L108.574 69.8077L111.692 71.7455Z" fill="#3F3D56"/>
<path d="M83.3435 55.0266L85.0371 51.9884L81.8208 50.2156L80.1272 53.2538L83.3435 55.0266Z" fill="#3F3D56"/>
<path d="M84.986 69.8063L83.1348 66.8604L80.0162 68.7982L81.8673 71.7441L84.986 69.8063Z" fill="#3F3D56"/>
<path d="M88.1609 49.1519L91.1553 47.3628L89.2613 44.2284L86.2669 46.0175L88.1609 49.1519Z" fill="#3F3D56"/>
<path d="M98.0656 75.6597H94.5723V79.3165H98.0656V75.6597Z" fill="#3F3D56"/>
<path d="M105.397 72.9105L102.403 74.6996L104.297 77.8341L107.291 76.0449L105.397 72.9105Z" fill="#3F3D56"/>
<path d="M86.2668 76.0452L89.2612 77.8343L91.1552 74.6998L88.1608 72.9107L86.2668 76.0452Z" fill="#3F3D56"/>
<path d="M82.2534 59.5685H78.0239V62.6763H82.2534V59.5685Z" fill="#3F3D56"/>
<path d="M111.305 62.6763H115.534V59.5685H111.305V62.6763Z" fill="#3F3D56"/>
<path d="M124.545 27.7539C126.909 27.7539 129.22 28.451 131.186 29.7571C133.151 31.0631 134.683 32.9195 135.588 35.0913C136.493 37.2632 136.729 39.653 136.268 41.9586C135.806 44.2642 134.668 46.382 132.996 48.0441C131.324 49.7062 129.195 50.8381 126.876 51.2965C124.557 51.7549 122.154 51.5193 119.97 50.6194C117.786 49.7196 115.919 48.196 114.606 46.2412C113.293 44.2864 112.592 41.9883 112.593 39.6376C112.593 36.4857 113.853 33.463 116.094 31.2344C118.336 29.0059 121.375 27.7539 124.545 27.7539ZM124.545 24.8188C121.597 24.8188 118.716 25.6881 116.265 27.3166C113.814 28.9452 111.903 31.2599 110.775 33.9681C109.647 36.6763 109.352 39.6563 109.928 42.5312C110.503 45.4062 111.922 48.0469 114.007 50.1195C116.092 52.1921 118.747 53.6035 121.639 54.1752C124.53 54.7468 127.527 54.4531 130.25 53.3311C132.973 52.2091 135.301 50.3093 136.938 47.8718C138.576 45.4344 139.45 42.5688 139.449 39.6376C139.445 35.7085 137.873 31.9417 135.079 29.1636C132.285 26.3854 128.496 24.8229 124.545 24.8188Z" fill="#3F3D56"/>
<path d="M125.832 21.3537H122.338V25.0105H125.832V21.3537Z" fill="#3F3D56"/>
<path d="M135.058 24.6233L132.064 22.8341L130.17 25.9686L133.164 27.7577L135.058 24.6233Z" fill="#3F3D56"/>
<path d="M141.199 31.861L139.505 28.8228L136.289 30.5956L137.983 33.6338L141.199 31.861Z" fill="#3F3D56"/>
<path d="M139.458 50.3525L141.31 47.4066L138.191 45.4688L136.34 48.4147L139.458 50.3525Z" fill="#3F3D56"/>
<path d="M111.109 33.6353L112.803 30.5971L109.586 28.8243L107.893 31.8625L111.109 33.6353Z" fill="#3F3D56"/>
<path d="M112.752 48.4143L110.9 45.4684L107.782 47.4062L109.633 50.3521L112.752 48.4143Z" fill="#3F3D56"/>
<path d="M115.927 27.758L118.921 25.9689L117.027 22.8344L114.033 24.6236L115.927 27.758Z" fill="#3F3D56"/>
<path d="M125.832 54.2664H122.338V57.9232H125.832V54.2664Z" fill="#3F3D56"/>
<path d="M133.164 51.5177L130.169 53.3069L132.063 56.4413L135.058 54.6522L133.164 51.5177Z" fill="#3F3D56"/>
<path d="M114.032 54.6513L117.027 56.4404L118.921 53.3059L115.926 51.5168L114.032 54.6513Z" fill="#3F3D56"/>
<path d="M110.018 38.1752H105.789V41.2829H110.018V38.1752Z" fill="#3F3D56"/>
<path d="M139.073 41.2829H143.302V38.1752H139.073V41.2829Z" fill="#3F3D56"/>
<path d="M69.0055 26.8389C69.1461 26.8389 69.2868 26.8389 69.4274 26.8389C72.5602 26.9451 75.5256 28.2709 77.6848 30.5305C79.8439 32.7902 81.024 35.8028 80.9707 38.9194C80.9174 42.0359 79.635 45.007 77.3999 47.1923C75.1647 49.3777 72.1557 50.6024 69.0211 50.6027C68.8805 50.6027 68.7398 50.6027 68.5975 50.6027C65.4645 50.4965 62.499 49.1706 60.3398 46.9108C58.1806 44.6509 57.0007 41.6381 57.0542 38.5214C57.1077 35.4046 58.3904 32.4336 60.6259 30.2484C62.8614 28.0631 65.8707 26.8387 69.0055 26.8389ZM69.0055 23.9038C65.0966 23.9033 61.344 25.4299 58.5562 28.1546C55.7684 30.8793 54.1687 34.584 54.1018 38.4704C54.0348 42.3568 55.506 46.1138 58.1983 48.9319C60.8906 51.7499 64.5884 53.4034 68.495 53.5361C68.6687 53.5361 68.8423 53.5447 69.0159 53.5447C72.9247 53.5447 76.677 52.0178 79.4644 49.293C82.2518 46.5682 83.8512 42.8635 83.9179 38.9772C83.9846 35.091 82.5133 31.3342 79.8211 28.5163C77.1288 25.6984 73.4311 24.0451 69.5246 23.9124C69.351 23.9124 69.1774 23.9038 69.0038 23.9038H69.0055Z" fill="#3F3D56"/>
<path d="M70.9351 20.4969L67.4438 20.3763L67.3162 24.0309L70.8074 24.1515L70.9351 20.4969Z" fill="#3F3D56"/>
<path d="M80.0395 24.0833L77.1094 22.1919L75.1071 25.2591L78.0372 27.1505L80.0395 24.0833Z" fill="#3F3D56"/>
<path d="M85.9249 31.5279L84.3384 28.4331L81.0621 30.0938L82.6486 33.1887L85.9249 31.5279Z" fill="#3F3D56"/>
<path d="M83.5431 49.9425L85.4961 47.0623L82.447 45.018L80.4941 47.8982L83.5431 49.9425Z" fill="#3F3D56"/>
<path d="M55.7921 32.2584L57.5908 29.2805L54.4384 27.3976L52.6397 30.3755L55.7921 32.2584Z" fill="#3F3D56"/>
<path d="M56.6739 47.3724L54.9272 44.3503L51.7279 46.1787L53.4746 49.2008L56.6739 47.3724Z" fill="#3F3D56"/>
<path d="M60.8155 26.551L63.8706 24.8663L62.0872 21.6683L59.0322 23.353L60.8155 26.551Z" fill="#3F3D56"/>
<path d="M69.7872 53.3881L66.2959 53.2675L66.1682 56.9221L69.6595 57.0427L69.7872 53.3881Z" fill="#3F3D56"/>
<path d="M77.2123 50.8965L74.1572 52.5811L75.9406 55.7791L78.9957 54.0945L77.2123 50.8965Z" fill="#3F3D56"/>
<path d="M57.9864 53.3648L60.9165 55.2562L62.9188 52.189L59.9887 50.2976L57.9864 53.3648Z" fill="#3F3D56"/>
<path d="M54.5463 36.762L50.3193 36.616L50.2108 39.7218L54.4378 39.8679L54.5463 36.762Z" fill="#3F3D56"/>
<path d="M83.4752 40.8663L87.7021 41.0124L87.8107 37.9065L83.5837 37.7605L83.4752 40.8663Z" fill="#3F3D56"/>
<path opacity="0.1" d="M42.3247 70.1728C42.182 70.4352 42.1079 70.7291 42.1094 71.0275C42.2396 70.3887 43.1234 70.0347 43.1807 69.4028C43.2067 69.111 43.1529 69.1248 42.9723 69.2785C42.698 69.515 42.5782 69.9225 42.3247 70.1728Z" fill="black"/>
<path opacity="0.1" d="M45.0177 72.1134C44.8311 72.2701 44.6917 72.4751 44.6149 72.7056C44.4647 73.0303 44.4357 73.3976 44.5333 73.7416C44.6635 73.6812 44.707 73.5223 44.7469 73.3842C44.8108 73.169 44.9037 72.9634 45.023 72.773C45.1271 72.6003 45.6081 72.2153 45.6063 72.034C45.6011 71.756 45.1462 72.015 45.0177 72.1134Z" fill="black"/>
<g clip-path="url(#clip1)">
<path d="M126.328 122.654C125.325 126.488 121.808 128.884 121.808 128.884C121.808 128.884 119.919 125.064 120.923 121.23C121.926 117.395 125.442 114.999 125.442 114.999C125.442 114.999 127.332 118.82 126.328 122.654Z" fill="#052B5D"/>
<path d="M124.806 121.843C121.995 124.629 121.681 128.882 121.681 128.882C121.681 128.882 125.923 128.618 128.734 125.832C131.544 123.046 131.858 118.793 131.858 118.793C131.858 118.793 127.616 119.057 124.806 121.843Z" fill="#FFBD59"/>
<path d="M22.971 108.15H28.2639L41.3073 103.029C41.3073 103.029 50.57 99.235 49.8139 106.443C49.0577 113.65 47.7345 123.324 47.7345 123.324C47.7345 123.324 43.5757 121.427 41.3073 121.996C39.0389 122.565 40.5512 110.426 40.5512 110.426C40.5512 110.426 22.0258 119.341 20.3245 118.203C18.6232 117.065 18.2451 109.098 18.2451 109.098L22.971 108.15Z" fill="#2F2E41"/>
<path opacity="0.1" d="M22.971 108.15H28.2639L41.3073 103.029C41.3073 103.029 50.57 99.235 49.8139 106.443C49.0577 113.65 47.7345 123.324 47.7345 123.324C47.7345 123.324 43.5757 121.427 41.3073 121.996C39.0389 122.565 40.5512 110.426 40.5512 110.426C40.5512 110.426 22.0258 119.341 20.3245 118.203C18.6232 117.065 18.2451 109.098 18.2451 109.098L22.971 108.15Z" fill="black"/>
<path d="M31.3104 91.5178L37.716 100.752L52.6497 113.271C52.6497 113.271 66.4492 116.495 64.5589 118.772C62.6685 121.048 51.1374 116.495 51.1374 116.495C51.1374 116.495 33.9353 103.977 33.3682 103.028C32.8011 102.08 26.563 93.1653 26.563 93.1653L31.3104 91.5178Z" fill="#A0616A"/>
<path opacity="0.1" d="M31.3104 91.5178L37.716 100.752L52.6497 113.271C52.6497 113.271 66.4492 116.495 64.5589 118.772C62.6685 121.048 51.1374 116.495 51.1374 116.495C51.1374 116.495 33.9353 103.977 33.3682 103.028C32.8011 102.08 26.563 93.1653 26.563 93.1653L31.3104 91.5178Z" fill="black"/>
<path d="M27.5077 84.0609L31.6664 92.2169C31.6664 92.2169 30.7212 96.2001 29.209 96.5795C27.6967 96.9588 21.2695 91.6479 21.2695 91.6479L27.5077 84.0609Z" fill="#D0CDE1"/>
<path opacity="0.1" d="M27.5077 84.0609L31.6664 92.2169C31.6664 92.2169 30.7212 96.2001 29.209 96.5795C27.6967 96.9588 21.2695 91.6479 21.2695 91.6479L27.5077 84.0609Z" fill="black"/>
<path d="M78.243 103.927L79.4715 109.011C79.4852 109.068 79.4831 109.127 79.4654 109.183L73.8928 126.656C73.8707 126.726 73.8257 126.785 73.7651 126.825C73.7046 126.865 73.6323 126.883 73.5603 126.876C73.4882 126.869 73.4208 126.837 73.3692 126.786C73.3176 126.735 73.285 126.668 73.2768 126.596L72.5059 119.789C72.5008 119.743 72.5054 119.698 72.5195 119.654L77.6345 103.903C77.6558 103.838 77.698 103.781 77.7545 103.741C77.811 103.702 77.8788 103.682 77.9476 103.684C78.0165 103.687 78.0826 103.712 78.1359 103.756C78.1892 103.8 78.2268 103.86 78.243 103.927Z" fill="#2F2E41"/>
<path d="M77.7909 104.356L78.925 108.719L74.0101 124.652L72.876 119.72L77.7909 104.356Z" fill="#F2F2F2"/>
<path d="M53.0278 128.066C53.2169 128.635 72.6874 127.876 72.8764 127.686C73.0412 127.449 73.1806 127.194 73.2923 126.928C73.47 126.548 73.6325 126.169 73.6325 126.169L72.8764 120.027L53.5949 119.341C53.5949 119.341 53.1129 124.545 53.0146 126.928C52.99 127.529 52.99 127.952 53.0278 128.066Z" fill="#2F2E41"/>
<path opacity="0.1" d="M70.4185 120.858L70.7965 126.169H62.29V120.858H70.4185Z" fill="black"/>
<path opacity="0.1" d="M59.455 122.565L59.5057 122.555L59.2659 124.841H54.54V122.565H59.455Z" fill="black"/>
<path opacity="0.1" d="M53.0278 128.066C53.2169 128.635 72.6874 127.876 72.8764 127.686C73.0412 127.449 73.1806 127.195 73.2923 126.928H53.0146C52.99 127.529 52.99 127.952 53.0278 128.066Z" fill="black"/>
<path d="M30.3435 81.4054C35.0415 81.4054 38.85 77.584 38.85 72.87C38.85 68.156 35.0415 64.3346 30.3435 64.3346C25.6454 64.3346 21.8369 68.156 21.8369 72.87C21.8369 77.584 25.6454 81.4054 30.3435 81.4054Z" fill="#A0616A"/>
<path d="M29.776 80.4571C29.776 80.4571 26.9405 85.3887 26.3734 88.0441C25.8063 90.6996 17.8668 82.7332 17.8668 82.7332L16.8271 79.9829C16.8271 79.9829 24.294 76.4739 23.7269 73.6287C23.1598 70.7836 29.776 80.4571 29.776 80.4571Z" fill="#A0616A"/>
<path d="M31.2885 95.2518L39.0389 105.494L57.5643 119.341C57.5643 119.341 70.9857 122.186 67.9611 124.272C64.9366 126.359 56.241 122.375 56.241 122.375C56.241 122.375 37.5266 112.323 33.5569 108.15C29.5872 103.977 22.2148 96.9589 22.2148 96.9589L31.2885 95.2518Z" fill="#A0616A"/>
<path d="M20.8914 111.185L23.1598 114.788L36.6979 110.515C39.6684 109.577 42.9257 109.922 45.5604 111.588C47.9233 113.081 49.4356 115.452 46.033 118.961C39.2277 125.979 34.6909 122.186 34.6909 122.186C34.6909 122.186 11.8178 132.997 8.0371 127.686C4.25641 122.375 4.06738 119.72 4.06738 119.72C4.06738 119.72 18.623 110.616 20.8914 111.185Z" fill="#2F2E41"/>
<path d="M49.247 123.703C49.247 123.703 55.2961 127.686 48.1128 129.583C40.9295 131.48 35.6366 128.824 35.6366 128.824C35.6366 128.824 29.3984 128.824 29.3984 125.6C29.3984 122.375 31.4778 121.996 31.4778 121.996L37.905 122.944C37.905 122.944 45.6554 120.858 49.247 123.703Z" fill="#D0CDE1"/>
<path d="M37.3218 70.7229C37.9008 70.9819 38.4749 71.2884 39.1044 71.3636C39.7339 71.4387 40.4507 71.2182 40.7485 70.6568C40.9094 70.3535 40.9278 69.9968 40.9353 69.6533C40.9581 68.6118 40.883 67.4858 40.2252 66.6797C39.8065 66.1667 39.1954 65.8434 38.7621 65.3428C38.4516 64.9842 38.245 64.5496 38.0225 64.1303C37.1797 62.5421 35.9319 61.0157 34.1978 60.5578C33.4736 60.3666 32.714 60.376 31.9652 60.3866L27.5981 60.4484C26.8914 60.4584 26.1738 60.47 25.4972 60.6753C24.0916 61.1017 23.0681 62.2878 22.1308 63.4221C21.4295 64.2707 20.7264 65.128 20.2 66.0957C19.4455 67.5078 19.0639 69.0903 19.0918 70.6924C19.0859 71.1033 19.1388 71.5129 19.2487 71.9087C19.3774 72.2717 19.5368 72.623 19.7252 72.9587C20.5442 74.5728 21.0305 76.5889 20.1081 78.1459C21.7103 77.4892 23.2956 76.6281 24.3524 75.253C24.8252 74.6378 25.196 73.9176 25.8261 73.4662C26.4562 73.0148 27.4829 72.9756 27.8872 73.6381C28.0262 73.9062 28.0977 74.2042 28.0956 74.5063C28.1252 75.0036 28.1244 75.5201 28.3345 75.9715C28.5446 76.4229 29.0452 76.7871 29.5231 76.652C30.3462 76.4194 30.2673 75.1519 30.9013 74.5761C31.3827 74.1389 32.1254 74.2225 32.7439 74.024C33.4645 73.7927 34.0052 73.1663 34.3133 72.4729C34.5475 71.9459 34.5441 70.5668 34.9873 70.2814C35.543 69.9234 36.8067 70.4925 37.3218 70.7229Z" fill="#2F2E41"/>
<path d="M16.1521 79.0831C16.5348 78.9806 16.9377 78.9817 17.3199 79.0861C18.5333 79.4129 21.2536 80.2783 21.8368 81.595C22.5929 83.3021 25.2394 85.9576 25.2394 85.9576C25.2394 85.9576 28.8311 89.5614 28.0749 92.0272C27.3188 94.493 24.4833 97.3381 24.4833 97.3381C24.4833 97.3381 25.2394 109.098 21.4587 112.133C17.6781 115.168 16.1658 113.081 16.1658 115.926C16.1658 118.772 4.44566 127.686 2.17725 122.186C2.17725 122.186 3.31145 111.943 2.93338 108.339C2.56077 104.787 3.10626 82.6269 16.1521 79.0831Z" fill="#D0CDE1"/>
<path d="M22.2151 83.8713C22.2151 83.8713 33.7462 92.4067 31.6668 96.0105C31.6668 96.0105 24.6726 99.4246 23.1603 99.235C21.648 99.0453 15.788 92.4066 14.2757 91.8376C12.7634 91.2686 12.0073 81.0261 22.2151 83.8713Z" fill="#D0CDE1"/>
<path d="M150.309 128.714H109.65V129.002H150.309V128.714Z" fill="#3F3D56"/>
</g>
</g>
<defs>
<clipPath id="clip0">
<rect width="175.282" height="129.556" fill="white" transform="translate(0 0.709686)"/>
</clipPath>
<clipPath id="clip1">
<rect width="154.597" height="108.871" fill="white" transform="translate(2.17725 21.3952)"/>
</clipPath>
</defs>
</svg>
