<svg width="158" height="121" viewBox="0 0 158 121" fill="none" xmlns="http://www.w3.org/2000/svg">
<g clip-path="url(#clip0)">
<path d="M135.662 48.3363C128.723 21.0829 104.749 1.40986 76.608 0.620787C61.7308 0.203629 46.0758 5.13228 34.6778 22.3794C14.3027 53.2106 35.9299 74.5159 51.0078 84.6397C58.2923 89.5406 64.856 95.4335 70.5089 102.148C80.6935 114.22 100.286 129.222 123.621 105.717C140.534 88.6799 140.283 66.4897 135.662 48.3363Z" fill="#F2F2F2"/>
<path opacity="0.1" d="M104.41 74.1355L118.687 59.9174L104.41 45.6994L108.762 41.3659L127.393 59.9174L108.762 78.469L104.41 74.1355Z" fill="black"/>
<path opacity="0.1" d="M63.6387 60.9319H69.4425V55.1345H63.6387V60.9319ZM92.7737 55.1345H86.9699V60.9319H92.7737V55.1345ZM75.3043 60.9319H81.1081V55.1345H75.3043V60.9319Z" fill="black"/>
<path opacity="0.1" d="M55.7745 73.9905L41.4827 59.7725L55.76 45.5544L51.4071 41.2209L32.7915 59.7725L51.4217 78.324L55.7745 73.9905Z" fill="black"/>
<path d="M157.863 109.63C157.863 112.031 122.524 120.355 78.9315 120.355C35.3388 120.355 0 112.031 0 109.63C0 107.228 35.3388 111.659 78.9315 111.659C122.524 111.659 157.863 107.228 157.863 109.63Z" fill="#3F3D56"/>
<path opacity="0.1" d="M157.863 109.63C157.863 112.031 122.524 120.355 78.9315 120.355C35.3388 120.355 0 112.031 0 109.63C0 107.228 35.3388 111.659 78.9315 111.659C122.524 111.659 157.863 107.228 157.863 109.63Z" fill="black"/>
<path d="M78.9315 113.978C122.524 113.978 157.863 112.031 157.863 109.63C157.863 107.228 122.524 105.282 78.9315 105.282C35.3388 105.282 0 107.228 0 109.63C0 112.031 35.3388 113.978 78.9315 113.978Z" fill="#3F3D56"/>
<path d="M91.8008 88.7099C91.8008 97.988 97.6278 105.496 104.829 105.496L91.8008 88.7099Z" fill="#3F3D56"/>
<path d="M104.829 105.496C104.829 96.1133 111.332 88.5212 119.368 88.5212L104.829 105.496Z" fill="#00C2CB"/>
<path d="M96.5215 89.5509C96.5215 98.3642 100.237 105.496 104.829 105.496L96.5215 89.5509Z" fill="#00C2CB"/>
<path d="M104.829 105.496C104.829 93.5071 112.345 83.8061 121.634 83.8061L104.829 105.496Z" fill="#3F3D56"/>
<path d="M102.088 105.614C102.088 105.614 103.936 105.557 104.492 105.161C105.049 104.765 107.334 104.292 107.473 104.927C107.611 105.563 110.249 108.087 108.163 108.103C106.077 108.12 103.316 107.779 102.761 107.441C102.205 107.103 102.088 105.614 102.088 105.614Z" fill="#A8A8A8"/>
<path opacity="0.2" d="M108.2 107.882C106.115 107.899 103.354 107.558 102.798 107.22C102.375 106.962 102.206 106.038 102.15 105.612C102.11 105.613 102.088 105.614 102.088 105.614C102.088 105.614 102.205 107.103 102.761 107.441C103.316 107.779 106.077 108.12 108.163 108.103C108.765 108.099 108.973 107.885 108.962 107.568C108.878 107.759 108.649 107.879 108.2 107.882Z" fill="black"/>
<path d="M125.584 56.0851C125.584 56.0851 121.117 52.6971 120.778 53.9391C120.439 55.181 124.056 58.0035 124.056 58.0035L125.584 56.0851Z" fill="#FFB9B9"/>
<path opacity="0.1" d="M125.584 56.0851C125.584 56.0851 121.117 52.6971 120.778 53.9391C120.439 55.181 124.056 58.0035 124.056 58.0035L125.584 56.0851Z" fill="black"/>
<path d="M140.332 45.3585C140.332 45.3585 135.02 54.8423 134.907 56.1971C134.793 57.5519 134.793 57.6648 134.341 57.5519C133.889 57.439 127.673 56.7616 127.108 56.9874C126.543 57.2132 125.412 55.6326 125.412 55.6326C125.412 55.6326 123.265 57.7777 123.717 58.2294C124.169 58.681 125.525 58.9068 125.751 59.4713C125.977 60.0358 126.316 60.6003 127.334 60.4874C128.351 60.3745 135.246 62.2938 136.15 61.9551C137.054 61.6164 137.28 61.0519 137.732 61.0519C138.184 61.0519 139.088 60.6003 139.088 60.4874C139.088 60.3745 142.253 54.3907 142.253 54.3907C142.253 54.3907 145.983 46.2617 140.332 45.3585Z" fill="#D0CDE1"/>
<path opacity="0.1" d="M140.332 45.3585C140.332 45.3585 135.02 54.8423 134.907 56.1971C134.793 57.5519 134.793 57.6648 134.341 57.5519C133.889 57.439 127.673 56.7616 127.108 56.9874C126.543 57.2132 125.412 55.6326 125.412 55.6326C125.412 55.6326 123.265 57.7777 123.717 58.2294C124.169 58.681 125.525 58.9068 125.751 59.4713C125.977 60.0358 126.316 60.6003 127.334 60.4874C128.351 60.3745 135.246 62.2938 136.15 61.9551C137.054 61.6164 137.28 61.0519 137.732 61.0519C138.184 61.0519 139.088 60.6003 139.088 60.4874C139.088 60.3745 142.253 54.3907 142.253 54.3907C142.253 54.3907 145.983 46.2617 140.332 45.3585Z" fill="black"/>
<path d="M132.625 39.1063C132.577 39.7059 132.586 40.3087 132.654 40.9064C132.825 42.2036 133.423 43.5557 132.858 44.7665C132.653 45.206 132.306 45.5889 132.117 46.0337C131.717 46.9752 132.08 48.0195 132.025 49.0216C131.955 50.3161 131.131 51.5635 129.877 52.2729C132.019 52.3393 134.056 51.2814 135.404 49.8398C136.752 48.3981 137.503 46.61 138.065 44.821C138.354 43.9808 138.54 43.1085 138.617 42.2234C138.662 41.715 138.603 41.2028 138.442 40.7182C138.244 40.2448 137.983 39.8001 137.667 39.3959C137.329 38.9219 136.983 38.4386 136.485 38.0859C135.871 37.6516 134.689 37.2154 133.875 37.2786C132.877 37.3562 132.667 38.4145 132.625 39.1063Z" fill="#2F2E41"/>
<path d="M135.924 42.6489C135.924 42.6489 137.167 47.0521 136.15 48.294C135.133 49.5359 142.253 47.7295 142.253 47.7295C142.253 47.7295 138.75 44.2295 140.445 41.9715L135.924 42.6489Z" fill="#FFB9B9"/>
<path opacity="0.1" d="M135.924 42.6489C135.924 42.6489 137.167 47.0521 136.15 48.294C135.133 49.5359 142.253 47.7295 142.253 47.7295C142.253 47.7295 138.75 44.2295 140.445 41.9715L135.924 42.6489Z" fill="black"/>
<path d="M104.41 71.3817L118.687 57.1637L104.41 42.9456L108.762 38.6121L127.393 57.1637L108.762 75.7152L104.41 71.3817Z" fill="#00C2CB"/>
<path d="M131.854 101.358V104.632L133.55 106.664L135.019 105.987L134.567 101.245L131.854 101.358Z" fill="#FFB9B9"/>
<path d="M132.532 104.406C132.532 104.406 132.08 102.826 131.289 103.955C130.498 105.084 129.707 107.568 129.255 107.68C128.802 107.793 125.638 111.293 128.802 111.293C131.967 111.293 132.984 109.826 132.984 109.826C132.984 109.826 136.149 108.584 136.149 108.358C136.149 108.132 135.697 103.955 135.471 103.955C135.245 103.955 135.132 104.745 134.567 104.745C134.002 104.745 132.532 104.406 132.532 104.406Z" fill="#2F2E41"/>
<path d="M139.427 101.922L139.314 104.971L142.026 106.1V101.697L139.427 101.922Z" fill="#FFB9B9"/>
<path d="M142.366 104.971C142.366 104.971 140.896 103.39 140.105 103.729C139.714 103.886 139.336 104.075 138.975 104.293C138.975 104.293 138.523 105.761 138.297 107.003C138.071 108.245 137.958 108.809 137.732 109.261C137.505 109.713 137.279 111.406 139.54 111.632C141.8 111.858 142.479 110.616 142.479 110.616L143.044 107.68C143.044 107.68 142.818 104.971 142.366 104.971Z" fill="#2F2E41"/>
<path d="M133.324 69.4066C133.324 69.4066 130.046 76.7453 130.498 83.4065C130.498 83.4065 129.368 86.0033 130.046 90.0677C130.724 94.1322 131.628 102.261 131.628 102.261C131.628 102.261 134.68 102.6 134.906 102.035C134.906 102.035 135.132 96.3902 135.358 96.1644C135.584 95.9386 135.245 90.7451 134.906 89.729C134.567 88.7129 138.071 78.6646 138.071 78.6646L137.166 66.1325L133.324 69.4066Z" fill="#2F2E41"/>
<path opacity="0.1" d="M133.324 69.4066C133.324 69.4066 130.046 76.7453 130.498 83.4065C130.498 83.4065 129.368 86.0033 130.046 90.0677C130.724 94.1322 131.628 102.261 131.628 102.261C131.628 102.261 134.68 102.6 134.906 102.035C134.906 102.035 135.132 96.3902 135.358 96.1644C135.584 95.9386 135.245 90.7451 134.906 89.729C134.567 88.7129 138.071 78.6646 138.071 78.6646L137.166 66.1325L133.324 69.4066Z" fill="black"/>
<path d="M132.419 68.9551L134.567 73.5841C134.567 73.5841 135.584 84.084 136.149 85.4388C136.149 85.4388 136.375 89.2775 137.393 90.5194C138.41 91.7613 139.201 102.713 139.201 102.713C139.201 102.713 142.027 103.503 142.253 102.713C142.479 101.922 143.157 96.5032 143.157 96.5032C143.157 96.5032 143.383 91.8742 142.14 88.8258C140.896 85.7775 143.609 74.826 143.609 74.826C143.609 74.826 146.435 69.5196 142.366 65.2293L132.419 68.9551Z" fill="#2F2E41"/>
<path d="M138.41 44.0037C140.969 44.0037 143.044 41.9312 143.044 39.3747C143.044 36.8182 140.969 34.7457 138.41 34.7457C135.851 34.7457 133.776 36.8182 133.776 39.3747C133.776 41.9312 135.851 44.0037 138.41 44.0037Z" fill="#FFB9B9"/>
<path d="M142.705 46.3746C142.705 46.3746 137.845 46.3746 137.167 46.9391C136.999 47.0985 136.776 47.1874 136.545 47.1874C136.313 47.1874 136.091 47.0985 135.923 46.9391C135.923 46.9391 134.228 47.052 133.776 48.4069C133.324 49.7617 131.967 51.5681 131.967 51.5681C131.967 51.5681 129.933 53.0359 131.063 56.8745C132.193 60.7132 131.289 66.9228 131.289 66.9228C131.289 66.9228 130.385 68.2776 131.289 68.8421C132.193 69.4066 132.532 69.6325 132.419 70.0841C132.306 70.5357 142.705 66.3583 142.705 65.568C142.705 64.7777 142.479 64.1002 142.705 63.7615C142.931 63.4228 143.157 62.8583 142.931 62.2938C142.705 61.7293 143.157 61.6164 143.044 61.0519C142.931 60.4874 143.609 56.31 144.061 54.5036C144.513 52.6971 144.4 46.4875 142.705 46.3746Z" fill="#D0CDE1"/>
<path d="M125.584 57.44C125.584 57.44 121.117 54.052 120.778 55.2939C120.439 56.5358 124.056 59.3584 124.056 59.3584L125.584 57.44Z" fill="#FFB9B9"/>
<path d="M140.332 46.9391C140.332 46.9391 135.02 56.4229 134.907 57.7777C134.793 59.1325 134.793 59.2454 134.341 59.1325C133.889 59.0196 127.673 58.3422 127.108 58.568C126.543 58.7938 125.412 57.2132 125.412 57.2132C125.412 57.2132 123.265 59.3583 123.717 59.8099C124.169 60.2616 125.525 60.4874 125.751 61.0519C125.977 61.6164 126.316 62.1809 127.334 62.068C128.351 61.9551 135.246 63.8744 136.15 63.5357C137.054 63.197 137.28 62.6325 137.732 62.6325C138.184 62.6325 139.088 62.1809 139.088 62.068C139.088 61.9551 142.253 55.9713 142.253 55.9713C142.253 55.9713 145.983 47.8423 140.332 46.9391Z" fill="#D0CDE1"/>
<path d="M136.115 42.3321C136.051 41.8737 135.816 41.4577 135.695 41.0108C135.601 40.653 135.58 40.2799 135.634 39.9139C135.687 39.5479 135.815 39.1965 136.008 38.8809C136.673 37.8085 137.978 37.3335 138.888 36.4592C138.907 36.9046 139.216 37.2852 139.558 37.5716C139.9 37.858 140.292 38.0903 140.581 38.4295C140.86 38.7873 141.062 39.1977 141.178 39.6358C141.356 40.1435 141.436 40.6805 141.413 41.2181C141.4 41.4867 141.333 41.7499 141.215 41.9916C141.097 42.2333 140.931 42.4486 140.727 42.6242C140.388 42.8918 139.914 43.0447 139.75 43.4441C139.686 43.6437 139.667 43.8552 139.696 44.0629C139.773 45.3051 139.846 46.5693 139.553 47.779C139.26 48.9887 138.543 50.1575 137.419 50.6937C138.343 50.7592 139.286 50.8231 140.182 50.5901C141.079 50.3571 141.936 49.7704 142.245 48.8982C142.398 48.4679 142.412 47.9893 142.629 47.5874C143.177 46.5702 144.691 46.5239 145.435 45.6391C145.733 45.2851 145.877 44.8288 145.983 44.379C146.611 41.7318 146.17 38.9209 145.214 36.3736C144.885 35.4956 144.474 34.6115 143.768 33.9944C143.166 33.4693 142.398 33.18 141.638 32.9329C140.53 32.5723 139.388 32.2768 138.223 32.2387C137.717 32.2091 137.209 32.2682 136.724 32.4136C136.244 32.5866 135.798 32.8405 135.404 33.1643C133.579 34.5829 132.337 36.8502 132.501 39.1544C132.601 40.5486 133.193 41.868 133.952 43.0419C134.218 43.4524 134.846 44.3278 135.429 44.0697C135.959 43.8356 136.184 42.8272 136.115 42.3321Z" fill="#2F2E41"/>
<path d="M63.6387 58.1782H69.4425V52.3808H63.6387V58.1782ZM92.7737 52.3808H86.9699V58.1782H92.7737V52.3808ZM75.3043 58.1782H81.1081V52.3808H75.3043V58.1782Z" fill="#00C2CB"/>
<path d="M29.9196 35.1043C32.6166 35.1043 34.803 33.4008 34.803 31.2994C34.803 29.198 32.6166 27.4945 29.9196 27.4945C27.2225 27.4945 25.0361 29.198 25.0361 31.2994C25.0361 33.4008 27.2225 35.1043 29.9196 35.1043Z" fill="#2F2E41"/>
<path d="M30.7496 57.4945C30.7496 57.4945 35.1447 57.7871 35.926 57.2018C36.7073 56.6164 40.0281 57.9823 40.3211 58.7627C40.6141 59.5432 35.633 59.6408 34.8516 59.6408C34.0703 59.6408 30.3589 60.8115 30.3589 60.8115L30.7496 57.4945Z" fill="#A0616A"/>
<path d="M21.6995 102.94C21.6995 102.94 19.6512 108.1 20.7199 108.722C21.7886 109.345 33.0097 108.9 33.0097 108.9C33.0097 108.9 34.8799 107.744 32.7425 106.943C32.7425 106.943 30.9614 106.854 29.8037 106.143C28.6459 105.431 27.3101 104.097 27.3101 104.097C27.3101 104.097 27.221 102.14 26.5086 102.584C26.2954 102.725 26.114 102.908 25.976 103.122C25.8379 103.337 25.7463 103.578 25.7071 103.83L21.6995 102.94Z" fill="#2F2E41"/>
<path opacity="0.1" d="M21.6995 102.94C21.6995 102.94 19.6512 108.1 20.7199 108.722C21.7886 109.345 33.0097 108.9 33.0097 108.9C33.0097 108.9 34.8799 107.744 32.7425 106.943C32.7425 106.943 30.9614 106.854 29.8037 106.143C28.6459 105.431 27.3101 104.097 27.3101 104.097C27.3101 104.097 27.221 102.14 26.5086 102.584C26.2954 102.725 26.114 102.908 25.976 103.122C25.8379 103.337 25.7463 103.578 25.7071 103.83L21.6995 102.94Z" fill="black"/>
<path d="M55.7745 71.2367L41.4827 57.0187L55.76 42.8007L51.4071 38.4672L32.7915 57.0187L51.4217 75.5703L55.7745 71.2367Z" fill="#00C2CB"/>
<path d="M18.5404 104.519C18.5404 104.519 16.2941 110.177 17.4661 110.86C18.6381 111.543 30.9444 111.055 30.9444 111.055C30.9444 111.055 32.9954 109.787 30.6514 108.909C30.6514 108.909 28.698 108.811 27.4283 108.031C26.1586 107.25 24.6936 105.787 24.6936 105.787C24.6936 105.787 24.5959 103.641 23.8146 104.128C23.5808 104.282 23.3818 104.483 23.2304 104.718C23.079 104.954 22.9786 105.218 22.9355 105.494L18.5404 104.519Z" fill="#2F2E41"/>
<path d="M30.066 68.6163L28.6986 80.909C28.6986 80.909 28.2103 86.7626 26.7452 88.0309C26.7452 88.0309 26.7452 89.8845 26.2569 90.4699L25.5732 98.1772C25.5732 98.1772 26.5499 101.006 26.4522 101.494C26.3545 101.982 26.8429 103.543 26.7452 103.738C26.6476 103.933 22.0571 103.738 22.0571 103.738L23.0338 88.0309L26.0615 66.1773L30.066 68.6163Z" fill="#2F2E41"/>
<path opacity="0.1" d="M30.066 68.6163L28.6986 80.909C28.6986 80.909 28.2103 86.7626 26.7452 88.0309C26.7452 88.0309 26.7452 89.8845 26.2569 90.4699L25.5732 98.1772C25.5732 98.1772 26.5499 101.006 26.4522 101.494C26.3545 101.982 26.8429 103.543 26.7452 103.738C26.6476 103.933 22.0571 103.738 22.0571 103.738L23.0338 88.0309L26.0615 66.1773L30.066 68.6163Z" fill="black"/>
<path d="M27.6243 68.2261C27.6243 68.2261 26.55 78.2748 26.0616 80.4211C25.7546 81.8346 25.5586 83.2699 25.4756 84.7138C25.4756 84.7138 25.3779 87.8358 24.4989 88.7138C24.2417 88.9682 24.0397 89.2726 23.9052 89.6083C23.7708 89.944 23.707 90.3037 23.7176 90.665C23.7176 90.665 22.8386 100.519 23.3269 101.689C23.8152 102.86 24.3036 103.836 23.8152 104.616C23.3269 105.397 17.9551 105.397 17.9551 104.811C17.9551 104.226 17.9551 103.738 17.6621 103.445C17.3691 103.153 17.6621 101.299 17.6621 101.299C17.6621 101.299 16.4901 92.6162 17.5645 90.0797C18.6388 87.5431 19.1272 80.6163 19.1272 80.6163C19.1272 80.6163 18.3458 72.7139 17.3691 71.4456C16.3924 70.1773 17.5645 65.6895 17.5645 65.6895L27.6243 68.2261Z" fill="#2F2E41"/>
<path d="M24.8745 37.0204C24.9881 37.2788 25.2598 37.4227 25.5072 37.5588C26.9412 38.3479 28.1415 39.492 29.3241 40.623C29.029 39.6241 29.0919 38.5537 29.5019 37.5961C29.6431 37.2695 29.8282 36.9184 29.7272 36.5773C29.653 36.3264 29.4391 36.1454 29.232 35.9854C28.7494 35.6126 28.2451 35.2689 27.7216 34.956C27.3559 34.7375 26.604 34.1557 26.1844 34.219C26.1623 34.7854 26.1508 35.2918 25.9025 35.8211C25.8436 35.9467 24.9179 37.1192 24.8745 37.0204Z" fill="#A0616A"/>
<path d="M29.8706 38.275C32.0822 38.275 33.875 36.4841 33.875 34.275C33.875 32.0659 32.0822 30.275 29.8706 30.275C27.659 30.275 25.8662 32.0659 25.8662 34.275C25.8662 36.4841 27.659 38.275 29.8706 38.275Z" fill="#A0616A"/>
<path d="M30.066 43.7384C30.066 43.7384 30.7496 40.3238 28.7963 39.153C26.8429 37.9823 24.5965 36.6165 24.5965 36.6165C24.5965 36.6165 23.9128 36.5189 23.6198 37.9823C23.6198 37.9823 18.0527 39.0555 17.4667 44.3238C16.8807 49.592 17.8574 57.2993 17.8574 57.2993C17.8574 57.2993 16.9784 64.031 15.904 67.6407C15.904 67.6407 15.025 68.4212 18.9317 67.2505C22.8385 66.0798 29.6753 70.5676 29.6753 70.5676C29.6753 70.5676 30.359 69.8846 30.359 69.3968C30.359 68.909 31.1403 66.0798 31.1403 66.0798C31.1403 66.0798 31.824 54.0798 32.117 52.714C32.41 51.3481 30.945 43.9335 30.066 43.7384Z" fill="#575A89"/>
<path d="M28.927 34.6871C29.1675 34.5539 29.4373 34.4821 29.7123 34.4782C29.9877 34.474 30.2565 34.394 30.4892 34.2469C30.8675 33.9569 30.8952 33.3963 31.1719 33.0083C31.5726 32.4466 32.3718 32.379 33.0616 32.4071C33.4836 32.4243 33.938 32.4495 34.2933 32.2215C34.658 31.9875 34.8233 31.5466 34.9463 31.1314C35.0918 30.6403 35.1858 30.0398 34.8254 29.6756C34.5752 29.4227 34.1801 29.3727 33.9021 29.1506C33.6138 28.9203 33.4952 28.5455 33.3385 28.2117C33.1602 27.805 32.8782 27.4521 32.5206 27.1883C31.9961 26.8243 31.3262 26.7427 30.6876 26.7495C30.049 26.7563 29.4077 26.8402 28.7739 26.7619C28.2546 26.6978 27.7369 26.5252 27.2193 26.6017C26.5597 26.6992 26.014 27.1962 25.689 27.7777C25.364 28.3593 25.2246 29.0231 25.0893 29.6752L24.7216 31.449C24.6075 31.9991 24.493 32.5638 24.581 33.1187C24.7636 34.269 25.782 35.1833 25.8521 36.3458C25.919 36.0248 26.0646 35.7254 26.2759 35.4745C26.4872 35.2235 26.7575 35.0289 27.0627 34.908C27.1392 34.8706 27.2261 34.8601 27.3093 34.8781C27.4105 34.9104 27.4696 35.0114 27.5335 35.0962C27.7008 35.3184 28.2263 35.6555 28.5243 35.4978C28.7908 35.3568 28.5918 34.9141 28.927 34.6871Z" fill="#2F2E41"/>
<path d="M18.8342 52.9091C18.8342 52.9091 18.1505 57.2018 20.9829 56.8115C20.9829 56.8115 22.4479 56.6164 22.6433 56.8115C22.8386 57.0066 30.0661 55.7384 31.0428 54.6652C31.0428 54.6652 32.2148 54.275 32.8008 54.8603C33.3868 55.4457 39.2469 56.031 37.4889 54.275C35.7309 52.5189 32.9961 52.1286 32.9961 52.1286L29.2847 52.3237C29.2847 52.3237 27.3314 52.9091 26.1593 52.3237C24.9873 51.7384 21.6666 51.9335 21.6666 51.9335L18.8342 52.9091Z" fill="#A0616A"/>
<path d="M22.8385 39.3482C22.8385 39.3482 18.4434 39.836 18.4434 46.1774V54.275C18.4434 54.275 20.8851 53.2018 21.3734 53.2994C21.8618 53.3969 23.8151 52.0311 23.8151 52.0311C23.8151 52.0311 26.0615 46.7628 25.8662 45.2994C25.6709 43.836 25.7685 39.5433 22.8385 39.3482Z" fill="#575A89"/>
<path d="M29.8706 33.7385C31.9473 33.7385 33.6308 32.8649 33.6308 31.7872C33.6308 30.7096 31.9473 29.836 29.8706 29.836C27.7939 29.836 26.1104 30.7096 26.1104 31.7872C26.1104 32.8649 27.7939 33.7385 29.8706 33.7385Z" fill="#2F2E41"/>
<path d="M26.3547 35.3969C27.0829 35.3969 27.6732 33.9337 27.6732 32.1287C27.6732 30.3236 27.0829 28.8604 26.3547 28.8604C25.6265 28.8604 25.0361 30.3236 25.0361 32.1287C25.0361 33.9337 25.6265 35.3969 26.3547 35.3969Z" fill="#2F2E41"/>
</g>
<defs>
<clipPath id="clip0">
<rect width="157.863" height="119.758" fill="white" transform="translate(0 0.596771)"/>
</clipPath>
</defs>
</svg>
