<svg xmlns="http://www.w3.org/2000/svg" xmlns:xlink="http://www.w3.org/1999/xlink" width="158" height="121" fill="none"><style>.B{fill:#2f2e41}.C{fill:#000}.D{opacity:.1}.E{fill:#ffb9b9}.F{fill:#00c2cb}.G{fill:#3f3d56}.H{fill:#d0cde1}.I{fill:#a0616a}</style><g clip-path="url(#A)"><path d="M135.662 48.336C128.723 21.083 104.75 1.4 76.608.62 61.73.204 46.076 5.132 34.678 22.38c-20.375 30.83 1.252 52.137 16.33 62.26a94.277 94.277 0 0119.5 17.508c10.185 12.072 29.777 27.074 53.112 3.57 16.913-17.037 16.662-39.227 12.04-57.38z" fill="#f2f2f2"/><g class="C"><path d="M104.4 74.136l14.277-14.218L104.4 45.7l4.352-4.333 18.63 18.55-18.63 18.552-4.352-4.334zM63.64 60.932h5.804v-5.797H63.64v5.797zm29.135-5.797H86.97v5.797h5.804v-5.797zm-17.47 5.797h5.804v-5.797h-5.804v5.797zM55.775 74L41.483 59.773l14.277-14.22-4.353-4.334L32.79 59.772l18.63 18.55 4.353-4.334z" class="D"/></g><use xlink:href="#B" class="G"/><use xlink:href="#B" class="C D"/><g class="G"><path d="M78.932 113.978c43.593 0 78.932-1.947 78.932-4.348s-35.34-4.348-78.93-4.348S0 107.228 0 109.63s35.34 4.348 78.932 4.348z"/><path d="M91.8 88.7c0 9.278 5.827 16.786 13.028 16.786L91.8 88.7z"/></g><g class="F"><path d="M104.83 105.496c0-9.383 6.503-16.975 14.54-16.975l-14.54 16.975zM96.522 89.55c0 8.813 3.715 15.945 8.307 15.945L96.522 89.55z"/></g><path d="M104.83 105.496c0-11.99 7.516-21.7 16.805-21.7l-16.805 21.7z" class="G"/><path d="M102.088 105.614s1.848-.057 2.404-.453 2.842-.87 2.98-.234 2.776 3.16.7 3.176-4.847-.324-5.402-.662-.673-1.827-.673-1.827z" fill="#a8a8a8"/><path opacity=".2" d="M108.2 107.882c-2.085.017-4.846-.324-5.402-.662-.423-.258-.592-1.182-.648-1.608l-.062.002s.117 1.49.673 1.827 3.316.68 5.402.662c.602-.004.8-.218.8-.535-.084.19-.313.31-.762.314z" class="C"/><path d="M125.584 56.085s-4.467-3.388-4.806-2.146 3.278 4.064 3.278 4.064l1.528-1.918z" class="E"/><path d="M125.584 56.085s-4.467-3.388-4.806-2.146 3.278 4.064 3.278 4.064l1.528-1.918z" class="C D"/><use xlink:href="#C" class="H"/><use xlink:href="#C" class="C D"/><path d="M132.625 39.106c-.048.6-.04 1.202.03 1.8.17 1.297.77 2.65.204 3.86-.205.44-.552.822-.74 1.267-.4.94-.037 1.986-.092 2.988-.07 1.294-.894 2.542-2.148 3.25 2.142.066 4.18-.992 5.527-2.433s2.1-3.23 2.66-5.02a10.89 10.89 0 00.552-2.598 3.73 3.73 0 00-.175-1.505 5.75 5.75 0 00-.775-1.322c-.338-.474-.684-.957-1.182-1.3-.614-.434-1.796-.87-2.6-.807-.998.078-1.208 1.136-1.25 1.828z" class="B"/><use xlink:href="#D" class="E"/><use xlink:href="#D" class="C D"/><path d="M104.4 71.382l14.277-14.218L104.4 42.946l4.352-4.334 18.63 18.552-18.63 18.55-4.352-4.334z" class="F"/><path d="M131.854 101.358v3.274l1.696 2.032 1.47-.677-.452-4.742-2.713.113z" class="E"/><path d="M132.532 104.406s-.452-1.58-1.243-.45-1.582 3.613-2.034 3.725-3.617 3.613-.453 3.613 4.182-1.467 4.182-1.467 3.165-1.242 3.165-1.468-.452-4.403-.678-4.403-.34.8-.904.8-2.035-.34-2.035-.34z" class="B"/><path d="M139.427 101.922l-.113 3.05 2.712 1.13v-4.403l-2.6.225z" class="E"/><g class="B"><path d="M142.366 104.97s-1.47-1.58-2.26-1.242c-.39.157-.77.346-1.13.564 0 0-.452 1.468-.678 2.7s-.34 1.806-.565 2.258-.453 2.145 1.808 2.37 2.94-1.016 2.94-1.016l.565-2.936s-.226-2.71-.678-2.71z"/><use xlink:href="#E"/></g><use xlink:href="#E" class="C D"/><path d="M132.42 68.955l2.148 4.63s1.017 10.5 1.582 11.855c0 0 .226 3.84 1.244 5.08s1.808 12.194 1.808 12.194 2.826.8 3.052 0 .904-6.2.904-6.2.226-4.63-1.017-7.677 1.47-14 1.47-14 2.826-5.306-1.243-9.597l-9.947 3.726z" class="B"/><path d="M138.4 44.004c2.56 0 4.634-2.073 4.634-4.63s-2.075-4.63-4.634-4.63-4.634 2.072-4.634 4.63 2.075 4.63 4.634 4.63z" class="E"/><path d="M142.705 46.375s-4.86 0-5.538.565a.9.9 0 01-1.244 0s-1.695.113-2.147 1.468-1.81 3.16-1.81 3.16-2.034 1.468-.904 5.306.226 10.048.226 10.048-.904 1.355 0 1.92 1.243.8 1.13 1.242 10.286-3.726 10.286-4.516-.226-1.468 0-1.806.452-.903.226-1.468.226-.677.113-1.242.565-4.742 1.017-6.548.34-8.016-1.356-8.13z" class="H"/><path d="M125.584 57.44s-4.467-3.388-4.806-2.146 3.278 4.065 3.278 4.065l1.528-1.918z" class="E"/><path d="M140.332 46.94s-5.312 9.484-5.425 10.84-.114 1.468-.566 1.355-6.668-.8-7.233-.565-1.696-1.355-1.696-1.355-2.147 2.145-1.695 2.597 1.808.678 2.034 1.242.565 1.13 1.583 1.016 7.912 1.806 8.816 1.468 1.13-.903 1.582-.903 1.356-.452 1.356-.565 3.165-6.097 3.165-6.097 3.73-8.13-1.92-9.032z" class="H"/><path d="M136.115 42.332c-.064-.458-.3-.874-.42-1.32a2.74 2.74 0 01-.061-1.097 2.73 2.73 0 01.374-1.033c.665-1.072 1.97-1.547 2.88-2.422.02.445.328.826.67 1.112s.734.52 1.023.858c.28.358.48.768.597 1.206.178.508.258 1.045.235 1.582a1.98 1.98 0 01-.686 1.406c-.34.268-.813.42-.977.82-.064.2-.083.41-.054.62.077 1.242.15 2.506-.143 3.716s-1 2.378-2.134 2.915c.924.066 1.867.13 2.763-.104s1.754-.82 2.063-1.692c.153-.43.167-.91.384-1.31.548-1.017 2.062-1.064 2.806-1.948.298-.354.442-.8.548-1.26.628-2.647.187-5.458-.77-8.005-.33-.878-.74-1.762-1.446-2.38-.602-.525-1.37-.814-2.13-1.062-1.108-.36-2.25-.656-3.415-.694a4.34 4.34 0 00-1.499.175 4.46 4.46 0 00-1.32.751c-1.825 1.42-3.067 3.686-2.903 6 .1 1.394.692 2.714 1.45 3.887.266.4.894 1.286 1.477 1.028.53-.234.755-1.242.686-1.738z" class="B"/><path d="M63.64 58.178h5.804V52.38H63.64v5.797zm29.135-5.797H86.97v5.797h5.804V52.38zm-17.47 5.797h5.804V52.38h-5.804v5.797z" class="F"/><path d="M29.92 35.104c2.697 0 4.883-1.704 4.883-3.805s-2.186-3.805-4.883-3.805-4.883 1.704-4.883 3.805 2.186 3.805 4.883 3.805z" class="B"/><path d="M30.75 57.495s4.395.293 5.176-.293 4.102.78 4.395 1.56-4.688.878-5.47.878-4.493 1.17-4.493 1.17l.39-3.317z" class="I"/><use xlink:href="#F" class="B"/><use xlink:href="#F" class="C D"/><path d="M55.775 71.237L41.483 57.02 55.76 42.8l-4.353-4.334L32.792 57.02l18.63 18.552 4.353-4.334z" class="F"/><g class="B"><path d="M18.54 104.52s-2.246 5.658-1.074 6.34 13.478.195 13.478.195 2.05-1.268-.293-2.146c0 0-1.953-.098-3.223-.878s-2.735-2.244-2.735-2.244-.098-2.146-.88-1.66a2.01 2.01 0 00-.879 1.366l-4.395-.975z"/><use xlink:href="#G"/></g><use xlink:href="#G" class="C D"/><path d="M27.624 68.226s-1.074 10.05-1.563 12.195a27.72 27.72 0 00-.586 4.293s-.098 3.122-.977 4a2.64 2.64 0 00-.594.894 2.653 2.653 0 00-.188 1.057s-.88 9.854-.39 11.024.977 2.147.488 2.927-5.86.78-5.86.195 0-1.073-.293-1.366 0-2.146 0-2.146-1.172-8.683-.098-11.22 1.563-9.463 1.563-9.463-.78-7.902-1.758-9.17.195-5.756.195-5.756l10.06 2.537z" class="B"/><g class="I"><path d="M24.875 37.02c.114.258.385.402.633.538 1.434.79 2.634 1.933 3.817 3.064a4.47 4.47 0 01.178-3.027c.14-.327.326-.678.225-1.02-.074-.25-.288-.432-.495-.592a15.37 15.37 0 00-1.51-1.029c-.366-.22-1.118-.8-1.537-.737-.022.566-.034 1.073-.282 1.602-.06.126-.985 1.298-1.028 1.2z"/><path d="M29.87 38.275a4.001 4.001 0 100-8c-2.211 0-4.004 1.79-4.004 4s1.793 4 4.004 4z"/></g><path d="M30.066 43.738s.684-3.415-1.27-4.585l-4.2-2.536s-.684-.098-.977 1.366c0 0-5.567 1.073-6.153 6.34s.39 12.976.39 12.976-.88 6.732-1.953 10.34c0 0-.88.78 3.028-.4s10.744 3.317 10.744 3.317.684-.683.684-1.17.78-3.317.78-3.317.684-12 .977-13.366-1.172-8.78-2.05-8.976z" fill="#575a89"/><path d="M28.927 34.687a1.67 1.67 0 01.785-.209c.275-.004.544-.084.777-.23.378-.3.406-.85.683-1.24.4-.562 1.2-.63 1.9-.6.422.017.876.042 1.232-.186.365-.234.53-.675.653-1.1.145-.49.24-1.092-.12-1.456-.25-.253-.645-.303-.923-.525-.288-.23-.407-.605-.564-.94a2.54 2.54 0 00-.818-1.023c-.525-.364-1.194-.446-1.833-.44s-1.28.09-1.914.012c-.52-.064-1.037-.237-1.555-.16-.66.098-1.205.595-1.53 1.176s-.464 1.245-.6 1.898l-.368 1.774c-.114.55-.23 1.115-.14 1.67.183 1.15 1.2 2.065 1.27 3.227a1.98 1.98 0 01.424-.871c.21-.25.482-.446.787-.566a.38.38 0 01.247-.03c.1.032.16.133.224.218.167.222.693.56.99.402.267-.14.067-.584.403-.81z" class="B"/><path d="M18.834 52.91s-.684 4.293 2.15 3.902c0 0 1.465-.195 1.66 0s7.423-1.073 8.4-2.146c0 0 1.172-.4 1.758.195s6.446 1.17 4.688-.585-4.493-2.146-4.493-2.146l-3.71.195s-1.953.585-3.125 0-4.493-.4-4.493-.4l-2.832.976z" class="I"/><path d="M22.84 39.348s-4.395.488-4.395 6.83v8.098s2.442-1.073 2.93-.976 2.442-1.268 2.442-1.268 2.246-5.268 2.05-6.732-.098-5.756-3.028-5.95z" fill="#575a89"/><g class="B"><path d="M29.87 33.74c2.077 0 3.76-.874 3.76-1.95s-1.684-1.95-3.76-1.95-3.76.874-3.76 1.95 1.684 1.95 3.76 1.95z"/><path d="M26.355 35.397c.728 0 1.32-1.463 1.32-3.268s-.6-3.268-1.32-3.268-1.32 1.463-1.32 3.268.6 3.268 1.32 3.268z"/></g></g><defs><path id="B" d="M157.863 109.63c0 2.4-35.34 10.725-78.93 10.725S0 112.03 0 109.63s35.34 2.03 78.932 2.03 78.932-4.43 78.932-2.03z"/><path id="C" d="M140.332 45.36s-5.312 9.484-5.425 10.84-.114 1.468-.566 1.355-6.668-.8-7.233-.565-1.696-1.355-1.696-1.355-2.147 2.145-1.695 2.597 1.808.677 2.034 1.242.565 1.13 1.583 1.016 7.912 1.806 8.816 1.468 1.13-.903 1.582-.903 1.356-.452 1.356-.565 3.165-6.097 3.165-6.097 3.73-8.13-1.92-9.032z"/><path id="D" d="M135.924 42.65s1.243 4.403.226 5.645 6.103-.564 6.103-.564-3.503-3.5-1.808-5.758l-4.52.677z"/><path id="E" d="M133.324 69.407s-3.278 7.34-2.826 14c0 0-1.13 2.597-.452 6.66s1.582 12.193 1.582 12.193 3.052.34 3.278-.226l.452-5.87s-.113-5.42-.452-6.435 3.165-11.064 3.165-11.064l-.905-12.532-3.842 3.274z"/><path id="F" d="M21.7 102.94s-2.048 5.16-.98 5.782 12.3.178 12.3.178 1.87-1.156-.267-1.957c0 0-1.78-.09-2.94-.8s-2.494-2.046-2.494-2.046-.09-1.957-.8-1.513c-.213.14-.395.324-.533.538a1.83 1.83 0 00-.269.708l-4.008-.9z"/><path id="G" d="M30.066 68.616L28.7 80.91s-.488 5.854-1.953 7.122c0 0 0 1.854-.488 2.44l-.684 7.707s.977 2.83.88 3.317.39 2.05.293 2.244-4.688 0-4.688 0l.977-15.707 3.028-21.854 4.005 2.44z"/><clipPath id="A"><path fill="#fff" transform="translate(0 .597)" d="M0 0h157.863v119.758H0z"/></clipPath></defs></svg>