<svg width="176" height="133" viewBox="0 0 176 133" fill="none" xmlns="http://www.w3.org/2000/svg">
<g clip-path="url(#clip0)">
<path d="M84.8033 117.433C47.076 114.568 2.08445 85.3904 4.37503 55.3475C6.66562 25.3046 50.2404 -2.6629 87.9677 0.202733C125.695 3.06837 147.412 59.2135 145.121 89.2565C142.831 119.299 122.531 120.299 84.8033 117.433Z" fill="#F2F2F2"/>
<path d="M87.9674 122.259C131.462 122.259 166.722 120.103 166.722 117.443C166.722 114.783 131.462 112.627 87.9674 112.627C44.4725 112.627 9.21289 114.783 9.21289 117.443C9.21289 120.103 44.4725 122.259 87.9674 122.259Z" fill="#3F3D56"/>
<path opacity="0.1" d="M87.9677 120.55C125.016 120.55 155.049 119.124 155.049 117.365C155.049 115.607 125.016 114.181 87.9677 114.181C50.9196 114.181 20.8862 115.607 20.8862 117.365C20.8862 119.124 50.9196 120.55 87.9677 120.55Z" fill="black"/>
<path d="M33.0261 132.823C51.2659 132.823 66.0522 131.536 66.0522 129.949C66.0522 128.361 51.2659 127.075 33.0261 127.075C14.7863 127.075 0 128.361 0 129.949C0 131.536 14.7863 132.823 33.0261 132.823Z" fill="#3F3D56"/>
<path opacity="0.1" d="M33.0259 131.803C48.5622 131.803 61.1569 130.952 61.1569 129.902C61.1569 128.853 48.5622 128.002 33.0259 128.002C17.4897 128.002 4.89502 128.853 4.89502 129.902C4.89502 130.952 17.4897 131.803 33.0259 131.803Z" fill="black"/>
<path d="M147.578 25.1664H30.5356V116.822H147.578V25.1664Z" fill="#3F3D56"/>
<path d="M87.7254 37.692H58.8512C58.8051 37.6921 58.7594 37.6831 58.7168 37.6656C58.6742 37.648 58.6355 37.6223 58.6029 37.5898C58.5703 37.5573 58.5444 37.5187 58.5267 37.4762C58.5091 37.4338 58.5 37.3882 58.5 37.3422C58.5 37.2962 58.5091 37.2507 58.5267 37.2082C58.5444 37.1657 58.5703 37.1271 58.6029 37.0946C58.6355 37.0622 58.6742 37.0364 58.7168 37.0189C58.7594 37.0013 58.8051 36.9924 58.8512 36.9925H87.7254C87.8182 36.9927 87.9071 37.0296 87.9727 37.0952C88.0383 37.1607 88.0751 37.2496 88.0751 37.3422C88.0751 37.4349 88.0383 37.5237 87.9727 37.5893C87.9071 37.6548 87.8182 37.6918 87.7254 37.692Z" fill="#F2F2F2"/>
<path d="M119.333 41.5393H73.9193C73.8263 41.5393 73.7372 41.5024 73.6715 41.4368C73.6058 41.3712 73.5688 41.2823 73.5688 41.1895C73.5688 41.0968 73.6058 41.0078 73.6715 40.9422C73.7372 40.8766 73.8263 40.8398 73.9193 40.8398H119.333C119.379 40.8398 119.425 40.8488 119.467 40.8664C119.51 40.884 119.548 40.9097 119.581 40.9422C119.613 40.9747 119.639 41.0132 119.657 41.0557C119.674 41.0981 119.684 41.1436 119.684 41.1895C119.684 41.2354 119.674 41.2809 119.657 41.3234C119.639 41.3658 119.613 41.4044 119.581 41.4368C119.548 41.4693 119.51 41.4951 119.467 41.5126C119.425 41.5302 119.379 41.5393 119.333 41.5393Z" fill="#F2F2F2"/>
<path d="M87.8657 45.3866H58.9915C58.8986 45.3866 58.8095 45.3497 58.7437 45.2841C58.678 45.2185 58.6411 45.1296 58.6411 45.0368C58.6411 44.9441 58.678 44.8551 58.7437 44.7895C58.8095 44.7239 58.8986 44.6871 58.9915 44.6871H87.8657C87.9587 44.6871 88.0478 44.7239 88.1135 44.7895C88.1792 44.8551 88.2162 44.9441 88.2162 45.0368C88.2162 45.1296 88.1792 45.2185 88.1135 45.2841C88.0478 45.3497 87.9587 45.3866 87.8657 45.3866Z" fill="#F2F2F2"/>
<path d="M119.333 45.4565H90.4583C90.3654 45.4565 90.2763 45.4197 90.2105 45.3541C90.1448 45.2885 90.1079 45.1995 90.1079 45.1068C90.1079 45.014 90.1448 44.9251 90.2105 44.8595C90.2763 44.7939 90.3654 44.757 90.4583 44.757H119.333C119.425 44.757 119.515 44.7939 119.58 44.8595C119.646 44.9251 119.683 45.014 119.683 45.1068C119.683 45.1995 119.646 45.2885 119.58 45.3541C119.515 45.4197 119.425 45.4565 119.333 45.4565Z" fill="#F2F2F2"/>
<path d="M87.9356 49.2339H59.0614C58.9684 49.2339 58.8793 49.197 58.8136 49.1314C58.7479 49.0658 58.7109 48.9769 58.7109 48.8841C58.7109 48.7914 58.7479 48.7024 58.8136 48.6368C58.8793 48.5712 58.9684 48.5344 59.0614 48.5344H87.9356C88.0285 48.5344 88.1177 48.5712 88.1834 48.6368C88.2491 48.7024 88.286 48.7914 88.286 48.8841C88.286 48.9769 88.2491 49.0658 88.1834 49.1314C88.1177 49.197 88.0285 49.2339 87.9356 49.2339Z" fill="#F2F2F2"/>
<path d="M88.0059 53.0812H59.1317C59.0387 53.0812 58.9496 53.0443 58.8839 52.9788C58.8182 52.9132 58.7813 52.8242 58.7812 52.7314C58.7813 52.6387 58.8182 52.5497 58.8839 52.4841C58.9496 52.4185 59.0387 52.3817 59.1317 52.3817H88.0059C88.0988 52.3817 88.1879 52.4185 88.2537 52.4841C88.3194 52.5497 88.3563 52.6387 88.3563 52.7314C88.3563 52.8242 88.3194 52.9132 88.2537 52.9788C88.1879 53.0443 88.0988 53.0812 88.0059 53.0812Z" fill="#F2F2F2"/>
<path d="M101.111 37.7619H92.8416C92.7487 37.7619 92.6596 37.7251 92.5938 37.6595C92.5281 37.5939 92.4912 37.5049 92.4912 37.4122C92.4912 37.3194 92.5281 37.2304 92.5938 37.1648C92.6596 37.0993 92.7487 37.0624 92.8416 37.0624H101.111C101.204 37.0624 101.293 37.0993 101.359 37.1648C101.425 37.2304 101.462 37.3194 101.462 37.4122C101.462 37.5049 101.425 37.5939 101.359 37.6595C101.293 37.7251 101.204 37.7619 101.111 37.7619Z" fill="#F2F2F2"/>
<path d="M101.111 49.2339H92.8416C92.7487 49.2339 92.6596 49.197 92.5938 49.1314C92.5281 49.0658 92.4912 48.9769 92.4912 48.8841C92.4912 48.7914 92.5281 48.7024 92.5938 48.6368C92.6596 48.5712 92.7487 48.5344 92.8416 48.5344H101.111C101.204 48.5344 101.293 48.5712 101.359 48.6368C101.425 48.7024 101.462 48.7914 101.462 48.8841C101.462 48.9769 101.425 49.0658 101.359 49.1314C101.293 49.197 101.204 49.2339 101.111 49.2339Z" fill="#F2F2F2"/>
<path d="M101.111 53.0112H92.8414C92.7953 53.0113 92.7497 53.0024 92.7071 52.9848C92.6645 52.9673 92.6258 52.9415 92.5931 52.9091C92.5605 52.8766 92.5346 52.838 92.517 52.7955C92.4993 52.753 92.4902 52.7075 92.4902 52.6615C92.4902 52.6155 92.4993 52.57 92.517 52.5275C92.5346 52.485 92.5605 52.4464 92.5931 52.4139C92.6258 52.3814 92.6645 52.3557 92.7071 52.3381C92.7497 52.3206 92.7953 52.3116 92.8414 52.3117H101.111C101.157 52.3116 101.203 52.3206 101.246 52.3381C101.288 52.3557 101.327 52.3814 101.359 52.4139C101.392 52.4464 101.418 52.485 101.436 52.5275C101.453 52.57 101.462 52.6155 101.462 52.6615C101.462 52.7075 101.453 52.753 101.436 52.7955C101.418 52.838 101.392 52.8766 101.359 52.9091C101.327 52.9415 101.288 52.9673 101.246 52.9848C101.203 53.0024 101.157 53.0113 101.111 53.0112Z" fill="#F2F2F2"/>
<path d="M114.988 53.0112H106.718C106.625 53.011 106.536 52.9741 106.471 52.9085C106.405 52.843 106.368 52.7541 106.368 52.6615C106.368 52.5689 106.405 52.48 106.471 52.4144C106.536 52.3489 106.625 52.3119 106.718 52.3117H114.988C115.034 52.3116 115.079 52.3206 115.122 52.3381C115.165 52.3557 115.203 52.3814 115.236 52.4139C115.269 52.4464 115.294 52.485 115.312 52.5275C115.33 52.57 115.339 52.6155 115.339 52.6615C115.339 52.7075 115.33 52.753 115.312 52.7955C115.294 52.838 115.269 52.8766 115.236 52.9091C115.203 52.9415 115.165 52.9673 115.122 52.9848C115.079 53.0024 115.034 53.0113 114.988 53.0112Z" fill="#F2F2F2"/>
<path d="M67.0509 41.5393H58.7811C58.6881 41.5393 58.599 41.5024 58.5333 41.4368C58.4676 41.3712 58.4307 41.2823 58.4307 41.1895C58.4307 41.0968 58.4676 41.0078 58.5333 40.9422C58.599 40.8766 58.6881 40.8398 58.7811 40.8398H67.0509C67.1438 40.8398 67.2329 40.8766 67.2987 40.9422C67.3644 41.0078 67.4013 41.0968 67.4013 41.1895C67.4013 41.2823 67.3644 41.3712 67.2987 41.4368C67.2329 41.5024 67.1438 41.5393 67.0509 41.5393Z" fill="#F2F2F2"/>
<path d="M87.7603 94.3523H58.8861C58.7931 94.3523 58.704 94.3154 58.6383 94.2498C58.5726 94.1842 58.5356 94.0953 58.5356 94.0025C58.5356 93.9098 58.5726 93.8208 58.6383 93.7552C58.704 93.6896 58.7931 93.6528 58.8861 93.6528H87.7603C87.8532 93.6528 87.9423 93.6896 88.0081 93.7552C88.0738 93.8208 88.1107 93.9098 88.1107 94.0025C88.1107 94.0953 88.0738 94.1842 88.0081 94.2498C87.9423 94.3154 87.8532 94.3523 87.7603 94.3523Z" fill="#F2F2F2"/>
<path d="M87.6201 102.047H58.7459C58.653 102.047 58.5639 102.01 58.4981 101.944C58.4324 101.879 58.3955 101.79 58.3955 101.697C58.3955 101.604 58.4324 101.515 58.4981 101.45C58.5639 101.384 58.653 101.347 58.7459 101.347H87.6201C87.7131 101.347 87.8022 101.384 87.8679 101.45C87.9336 101.515 87.9706 101.604 87.9706 101.697C87.9706 101.79 87.9336 101.879 87.8679 101.944C87.8022 102.01 87.7131 102.047 87.6201 102.047Z" fill="#F2F2F2"/>
<path d="M87.6902 105.894H58.816C58.7699 105.894 58.7243 105.885 58.6817 105.868C58.6391 105.85 58.6004 105.824 58.5677 105.792C58.5351 105.76 58.5092 105.721 58.4916 105.678C58.4739 105.636 58.4648 105.59 58.4648 105.544C58.4648 105.498 58.4739 105.453 58.4916 105.41C58.5092 105.368 58.5351 105.329 58.5677 105.297C58.6004 105.264 58.6391 105.239 58.6817 105.221C58.7243 105.204 58.7699 105.195 58.816 105.195H87.6902C87.7363 105.195 87.782 105.204 87.8246 105.221C87.8672 105.239 87.9059 105.264 87.9385 105.297C87.9711 105.329 87.997 105.368 88.0146 105.41C88.0323 105.453 88.0414 105.498 88.0414 105.544C88.0414 105.59 88.0323 105.636 88.0146 105.678C87.997 105.721 87.9711 105.76 87.9385 105.792C87.9059 105.824 87.8672 105.85 87.8246 105.868C87.782 105.885 87.7363 105.894 87.6902 105.894Z" fill="#F2F2F2"/>
<path d="M100.025 102.117H91.7552C91.6623 102.117 91.5731 102.08 91.5074 102.014C91.4417 101.949 91.4048 101.86 91.4048 101.767C91.4048 101.674 91.4417 101.585 91.5074 101.52C91.5731 101.454 91.6623 101.417 91.7552 101.417H100.025C100.118 101.417 100.207 101.454 100.273 101.52C100.338 101.585 100.375 101.674 100.375 101.767C100.375 101.86 100.338 101.949 100.273 102.014C100.207 102.08 100.118 102.117 100.025 102.117Z" fill="#F2F2F2"/>
<path d="M100.025 105.894H91.7552C91.6623 105.894 91.5731 105.857 91.5074 105.792C91.4417 105.726 91.4048 105.637 91.4048 105.544C91.4048 105.452 91.4417 105.363 91.5074 105.297C91.5731 105.232 91.6623 105.195 91.7552 105.195H100.025C100.118 105.195 100.207 105.232 100.273 105.297C100.338 105.363 100.375 105.452 100.375 105.544C100.375 105.637 100.338 105.726 100.273 105.792C100.207 105.857 100.118 105.894 100.025 105.894Z" fill="#F2F2F2"/>
<path d="M113.901 102.117H105.632C105.539 102.117 105.45 102.08 105.384 102.014C105.318 101.949 105.281 101.86 105.281 101.767C105.281 101.674 105.318 101.585 105.384 101.52C105.45 101.454 105.539 101.417 105.632 101.417H113.901C113.994 101.417 114.084 101.454 114.149 101.52C114.215 101.585 114.252 101.674 114.252 101.767C114.252 101.86 114.215 101.949 114.149 102.014C114.084 102.08 113.994 102.117 113.901 102.117Z" fill="#F2F2F2"/>
<path d="M119.368 98.1996H73.9539C73.861 98.1996 73.7719 98.1627 73.7061 98.0971C73.6404 98.0315 73.6035 97.9426 73.6035 97.8498C73.6035 97.7571 73.6404 97.6681 73.7061 97.6025C73.7719 97.5369 73.861 97.5001 73.9539 97.5001H119.368C119.461 97.5001 119.55 97.5369 119.616 97.6025C119.681 97.6681 119.718 97.7571 119.718 97.8498C119.718 97.9426 119.681 98.0315 119.616 98.0971C119.55 98.1627 119.461 98.1996 119.368 98.1996Z" fill="#F2F2F2"/>
<path d="M67.0861 98.1996H58.8162C58.7233 98.1996 58.6342 98.1627 58.5685 98.0971C58.5027 98.0315 58.4658 97.9426 58.4658 97.8498C58.4658 97.7571 58.5027 97.6681 58.5685 97.6025C58.6342 97.5369 58.7233 97.5001 58.8162 97.5001H67.0861C67.179 97.5001 67.2681 97.5369 67.3338 97.6025C67.3996 97.6681 67.4365 97.7571 67.4365 97.8498C67.4365 97.9426 67.3996 98.0315 67.3338 98.0971C67.2681 98.1627 67.179 98.1996 67.0861 98.1996Z" fill="#F2F2F2"/>
<path d="M119.368 109.811H73.9542C73.9081 109.812 73.8625 109.803 73.8199 109.785C73.7773 109.768 73.7385 109.742 73.7059 109.709C73.6733 109.677 73.6474 109.638 73.6298 109.596C73.6121 109.553 73.603 109.508 73.603 109.462C73.603 109.416 73.6121 109.37 73.6298 109.328C73.6474 109.285 73.6733 109.247 73.7059 109.214C73.7385 109.182 73.7773 109.156 73.8199 109.138C73.8625 109.121 73.9081 109.112 73.9542 109.112H119.368C119.461 109.112 119.55 109.149 119.616 109.214C119.682 109.28 119.718 109.369 119.718 109.462C119.718 109.554 119.682 109.643 119.616 109.709C119.55 109.775 119.461 109.811 119.368 109.811Z" fill="#F2F2F2"/>
<path d="M67.0858 109.811H58.816C58.7699 109.812 58.7243 109.803 58.6817 109.785C58.6391 109.768 58.6004 109.742 58.5677 109.709C58.5351 109.677 58.5092 109.638 58.4916 109.596C58.4739 109.553 58.4648 109.508 58.4648 109.462C58.4648 109.416 58.4739 109.37 58.4916 109.328C58.5092 109.285 58.5351 109.247 58.5677 109.214C58.6004 109.182 58.6391 109.156 58.6817 109.138C58.7243 109.121 58.7699 109.112 58.816 109.112H67.0858C67.1319 109.112 67.1775 109.121 67.2201 109.138C67.2627 109.156 67.3014 109.182 67.3341 109.214C67.3667 109.247 67.3925 109.285 67.4102 109.328C67.4279 109.37 67.4369 109.416 67.4369 109.462C67.4369 109.508 67.4279 109.553 67.4102 109.596C67.3925 109.638 67.3667 109.677 67.3341 109.709C67.3014 109.742 67.2627 109.768 67.2201 109.785C67.1775 109.803 67.1319 109.812 67.0858 109.811Z" fill="#F2F2F2"/>
<path d="M80.7871 62.3148L69.5737 73.367L80.7871 84.4192L83.31 81.901L74.8301 73.4369L83.3801 64.9029L80.7871 62.3148Z" fill="#FFBD59"/>
<path d="M97.3269 62.3148L108.54 73.367L97.3269 84.4192L94.8039 81.901L103.284 73.4369L94.7339 64.9029L97.3269 62.3148Z" fill="#FFBD59"/>
<path d="M33.6483 28.8947C34.422 28.8947 35.0491 28.2688 35.0491 27.4966C35.0491 26.7244 34.422 26.0985 33.6483 26.0985C32.8747 26.0985 32.2476 26.7244 32.2476 27.4966C32.2476 28.2688 32.8747 28.8947 33.6483 28.8947Z" fill="#00C2CB"/>
<path d="M37.3842 28.8947C38.1578 28.8947 38.7849 28.2688 38.7849 27.4966C38.7849 26.7244 38.1578 26.0985 37.3842 26.0985C36.6105 26.0985 35.9834 26.7244 35.9834 27.4966C35.9834 28.2688 36.6105 28.8947 37.3842 28.8947Z" fill="#F55F44"/>
<path d="M41.1195 28.8947C41.8932 28.8947 42.5203 28.2688 42.5203 27.4966C42.5203 26.7244 41.8932 26.0985 41.1195 26.0985C40.3459 26.0985 39.7188 26.7244 39.7188 27.4966C39.7188 28.2688 40.3459 28.8947 41.1195 28.8947Z" fill="#FFBD59"/>
<path opacity="0.1" d="M147.578 29.8268H30.5356V30.2929H147.578V29.8268Z" fill="black"/>
<path d="M175.282 94.3667C175.282 104.273 169.382 107.732 162.103 107.732C154.824 107.732 148.924 104.273 148.924 94.3667C148.924 84.46 162.103 71.8571 162.103 71.8571C162.103 71.8571 175.282 84.46 175.282 94.3667Z" fill="#F2F2F2"/>
<path d="M161.623 106.217L161.758 97.926L167.375 87.6688L161.779 96.6254L161.84 92.8974L165.711 85.4765L161.856 91.9109L161.965 85.2059L166.111 79.2979L161.982 84.1516L162.05 71.8572L161.622 88.1328L161.657 87.4614L157.442 81.0221L161.589 88.7503L161.197 96.2386L161.185 96.0397L156.326 89.2633L161.17 96.7419L161.121 97.6783L161.112 97.6925L161.116 97.7694L160.12 116.768H161.451L161.611 106.955L166.443 99.4944L161.623 106.217Z" fill="#3F3D56"/>
<path d="M19.085 116.681C18.6806 116.905 18.2541 117.088 17.8121 117.225C17.0217 117.44 16.1768 117.361 15.3784 117.545C15.0515 117.62 14.6957 117.778 14.5917 118.096C14.5154 118.33 14.5984 118.582 14.6778 118.815C15.5601 121.397 16.0919 124.138 17.4989 126.476C18.0902 127.459 18.8241 128.348 19.6767 129.115C19.9966 129.403 20.3591 129.685 20.7873 129.73C20.9846 129.751 21.184 129.719 21.3652 129.638C21.5465 129.558 21.7032 129.431 21.8195 129.27C21.9359 129.11 22.0078 128.922 22.028 128.725C22.0481 128.528 22.0159 128.329 21.9344 128.148C21.8083 127.868 21.5738 127.652 21.4225 127.384C21.2585 127.044 21.1624 126.675 21.1394 126.298C21.0003 125.194 20.8664 124.04 21.2498 122.995C21.5069 122.294 21.9785 121.696 22.3714 121.061C22.7643 120.426 23.0907 119.699 23.0033 118.957C22.9436 118.451 22.6964 117.988 22.4352 117.551C22.1735 117.112 21.6563 115.934 21.1305 115.787C20.5847 115.636 19.561 116.437 19.085 116.681Z" fill="#2F2E41"/>
<path d="M33.4717 125.599C33.48 125.849 33.445 126.098 33.3685 126.336C33.2039 126.77 32.7956 127.067 32.5846 127.481C32.2913 128.055 32.4242 128.75 32.6186 129.366C32.7405 129.751 32.9003 130.153 33.2276 130.391C33.5074 130.564 33.8257 130.666 34.1542 130.688C36.9614 131.075 39.813 130.853 42.6458 130.934C43.1621 130.949 43.7087 130.967 44.1594 130.715C44.6101 130.463 44.8888 129.83 44.5822 129.415C44.307 129.043 43.7627 129.046 43.2994 129.024C42.093 128.963 40.9441 128.491 40.0445 127.686C39.8671 127.535 39.7132 127.358 39.588 127.161C39.4916 126.987 39.4117 126.804 39.3491 126.615C38.952 125.541 38.4796 124.497 37.9354 123.489C37.783 123.207 37.6105 122.914 37.3274 122.763C37.1202 122.669 36.8953 122.62 36.6676 122.619C35.9616 122.574 34.1333 122.334 33.5873 122.882C33.0829 123.388 33.4829 124.956 33.4717 125.599Z" fill="#2F2E41"/>
<path d="M37.8163 63.024C40.307 63.024 42.326 61.0087 42.326 58.5228C42.326 56.0368 40.307 54.0216 37.8163 54.0216C35.3257 54.0216 33.3066 56.0368 33.3066 58.5228C33.3066 61.0087 35.3257 63.024 37.8163 63.024Z" fill="#FBBEBE"/>
<path d="M33.7442 62.2395C33.4759 62.9563 33.0209 63.6295 32.3589 64.0152L38.5961 65.2851C38.3699 64.3765 38.3401 63.4302 38.5087 62.5092C38.5706 62.2862 38.5833 62.0526 38.546 61.8242C38.4287 61.3726 37.9193 61.1552 37.4636 61.0515C36.3252 60.7925 35.3185 60.6536 34.2606 60.1517C33.9373 60.7042 33.9825 61.6025 33.7442 62.2395Z" fill="#FBBEBE"/>
<path d="M32.3064 62.3298C32.9774 62.0267 33.7085 61.8793 34.4447 61.8985C35.1809 61.9177 35.9033 62.103 36.5575 62.4407C37.3571 62.8613 38.0193 63.4962 38.6698 64.1225C39.2694 64.6999 39.9091 65.361 39.9516 66.1916C39.9722 66.5939 39.8464 66.9874 39.7829 67.3852C39.6687 68.208 39.8138 69.0459 40.1981 69.7827C40.5824 70.5195 41.1869 71.1187 41.9276 71.4972C42.4231 72.3211 42.5254 73.3192 42.533 74.2801C42.5618 77.9208 41.411 81.6065 42.2325 85.1538C42.4254 85.9866 42.7246 86.7933 42.8913 87.6318C43.1071 88.7178 43.0965 89.8345 43.2094 90.936C43.3319 92.1287 43.5991 93.3022 44.0052 94.4306C43.7338 94.8615 43.1689 95.0267 42.6601 94.9918C42.1514 94.9569 41.6757 94.7366 41.2217 94.5047C39.0235 93.382 37.0102 91.9015 34.7335 90.9473C33.2272 90.316 31.6226 89.9228 30.1614 89.1937C28.7001 88.4646 27.3412 87.3075 26.8944 85.7391C26.7012 85.0609 26.6893 84.3464 26.6787 83.6414C26.6343 80.6721 26.5931 77.6704 27.2406 74.772C27.8117 72.2159 28.9124 69.7707 29.1526 67.1629C29.2307 66.3141 29.2324 65.4053 29.7076 64.697C30.3792 63.6959 31.8294 63.4366 32.3064 62.3298Z" fill="#2F2E41"/>
<path d="M35.2512 58.5863C35.517 58.2404 36.0295 58.1932 36.454 58.2955C36.8785 58.3979 37.27 58.6162 37.6987 58.6992C37.7962 58.7268 37.8984 58.7338 37.9987 58.7198C38.099 58.7057 38.1953 58.6709 38.2813 58.6175C38.4312 58.4702 38.5208 58.2725 38.5328 58.0629C38.683 57.171 38.718 56.2636 38.6372 55.3629C38.6149 55.2365 38.6233 55.1066 38.6619 54.9842C38.7681 54.7289 39.0919 54.6682 39.3564 54.5863C39.7928 54.439 40.1676 54.1509 40.4216 53.7674C40.6756 53.3839 40.7944 52.9268 40.7592 52.4684C40.7526 52.2485 40.66 52.04 40.5013 51.8873C40.3184 51.7385 40.0624 51.7294 39.8264 51.7275C38.6142 51.7178 37.4019 51.7181 36.1896 51.7284C35.741 51.7322 35.2697 51.7432 34.8808 51.9665C34.5932 52.1316 34.3794 52.3973 34.1212 52.6052C33.4478 53.1475 32.5371 53.2579 31.7179 53.5359C31.318 53.6495 30.9549 53.8657 30.6646 54.1628C30.3922 54.4734 30.2612 54.9353 30.4323 55.3112C30.5201 55.4679 30.6182 55.6186 30.726 55.7623C31.2092 56.5335 30.8875 57.5338 30.9596 58.4405C31.0497 59.5727 32.7285 61.4094 33.8668 61.6773C35.7046 62.1099 34.6429 59.3295 35.2512 58.5863Z" fill="#2F2E41"/>
<path d="M32.7054 108.228C32.8214 109.055 32.9701 109.885 32.9303 110.718C32.8748 111.883 32.4542 113.004 32.3765 114.167C32.3184 115.036 32.4527 115.913 32.3319 116.776C32.2545 117.328 32.0741 117.86 31.9625 118.406C31.7857 119.296 31.7907 120.212 31.9772 121.1C32.1637 121.988 32.5278 122.829 33.0478 123.573C33.1242 123.701 33.2328 123.806 33.3627 123.878C33.4873 123.924 33.6207 123.942 33.7531 123.93C35.0656 123.903 36.3747 123.784 37.6706 123.574C37.7654 123.57 37.8553 123.531 37.9221 123.463C37.9514 123.419 37.97 123.368 37.9768 123.315C38.217 122.082 37.6691 120.846 37.5298 119.598C37.381 118.265 37.7014 116.93 38.0194 115.627C38.1636 114.984 38.3438 114.35 38.5591 113.727C38.7128 113.308 38.8985 112.9 39.0317 112.475C39.2204 111.805 39.3354 111.118 39.3744 110.424C39.467 109.328 39.516 108.231 39.5215 107.13C39.5529 106.088 39.466 105.045 39.2623 104.022C38.97 102.727 38.3715 101.524 37.7781 100.335C37.4609 100.411 37.1631 100.553 36.9038 100.75C36.1392 101.244 35.3409 101.685 34.5147 102.068C33.9596 102.325 32.877 102.508 32.5247 103.044C32.1773 103.573 32.4014 104.652 32.428 105.235C32.4735 106.237 32.566 107.234 32.7054 108.228Z" fill="#2F2E41"/>
<path opacity="0.1" d="M32.7054 108.228C32.8214 109.055 32.9701 109.885 32.9303 110.718C32.8748 111.883 32.4542 113.004 32.3765 114.167C32.3184 115.036 32.4527 115.913 32.3319 116.776C32.2545 117.328 32.0741 117.86 31.9625 118.406C31.7857 119.296 31.7907 120.212 31.9772 121.1C32.1637 121.988 32.5278 122.829 33.0478 123.573C33.1242 123.701 33.2328 123.806 33.3627 123.878C33.4873 123.924 33.6207 123.942 33.7531 123.93C35.0656 123.903 36.3747 123.784 37.6706 123.574C37.7654 123.57 37.8553 123.531 37.9221 123.463C37.9514 123.419 37.97 123.368 37.9768 123.315C38.217 122.082 37.6691 120.846 37.5298 119.598C37.381 118.265 37.7014 116.93 38.0194 115.627C38.1636 114.984 38.3438 114.35 38.5591 113.727C38.7128 113.308 38.8985 112.9 39.0317 112.475C39.2204 111.805 39.3354 111.118 39.3744 110.424C39.467 109.328 39.516 108.231 39.5215 107.13C39.5529 106.088 39.466 105.045 39.2623 104.022C38.97 102.727 38.3715 101.524 37.7781 100.335C37.4609 100.411 37.1631 100.553 36.9038 100.75C36.1392 101.244 35.3409 101.685 34.5147 102.068C33.9596 102.325 32.877 102.508 32.5247 103.044C32.1773 103.573 32.4014 104.652 32.428 105.235C32.4735 106.237 32.566 107.234 32.7054 108.228Z" fill="black"/>
<path d="M26.6085 90.5707C26.0096 92.18 26.8899 93.919 27.6547 95.4567C29.5389 99.2451 30.8473 103.287 32.1488 107.312C32.2463 107.614 32.3437 107.943 32.235 108.241C32.1411 108.452 31.9888 108.632 31.7958 108.761C30.8985 109.441 29.7559 109.683 28.6869 110.039C27.6539 110.383 26.6645 110.846 25.7387 111.418C24.9641 111.898 24.2384 112.451 23.5142 113.003L21.2089 114.76C21.0596 114.861 20.9292 114.987 20.8235 115.132C20.6012 115.48 20.6923 115.935 20.803 116.333C21.0961 117.386 21.4736 118.414 21.9317 119.408C22.0071 119.625 22.1506 119.813 22.341 119.943C22.7009 120.136 23.141 119.88 23.4158 119.578C23.6905 119.277 23.9282 118.901 24.3155 118.772C24.7024 118.642 25.1282 118.799 25.5323 118.742C26.1858 118.651 26.6196 118.05 27.0907 117.589C29.0153 115.704 32.2284 115.841 34.3455 114.175C34.6515 113.901 34.9755 113.649 35.3153 113.418C35.6732 113.207 36.0791 113.091 36.4504 112.905C37.5799 112.337 38.2899 111.163 38.6703 109.96C39.0506 108.756 39.1591 107.485 39.4324 106.253C39.5737 105.616 39.7597 104.986 39.8226 104.336C39.863 103.732 39.8498 103.126 39.7832 102.524L39.0193 93.092C38.9571 92.324 38.8948 91.5552 38.774 90.7943C36.5053 90.8752 34.2382 90.9663 31.9682 90.9931C30.1619 91.0144 28.3224 91.1405 26.6085 90.5707Z" fill="#2F2E41"/>
<path d="M25.7747 92.7771C26.0825 93.2712 26.8316 93.261 27.3474 92.9901C27.8632 92.7193 28.2639 92.2642 28.781 91.9957C29.4757 91.6348 30.2979 91.6484 31.0807 91.6705C32.3202 91.7054 33.5749 91.7426 34.7674 92.0816C36.0008 92.4323 37.2016 93.1075 38.477 92.9728C38.6989 92.9493 38.9416 92.8858 39.0623 92.6985C39.1331 92.5628 39.1664 92.4108 39.1588 92.258L39.2005 91.1458C39.226 90.9535 39.1952 90.7579 39.1118 90.5826C39.0047 90.4368 38.858 90.3247 38.6891 90.2596C36.8738 89.3825 34.8035 89.2192 32.7879 89.1502C31.7633 89.1152 30.7383 89.1008 29.7128 89.107C28.8426 89.1123 27.798 88.9866 26.9519 89.2187C25.8165 89.5302 25.1987 91.8525 25.7747 92.7771Z" fill="#2F2E41"/>
<path d="M37.1733 63.6501C34.7947 63.629 32.6393 62.062 30.261 62.0239C29.9736 62.004 29.6857 62.0536 29.4216 62.1684C29.0902 62.335 28.8723 62.6572 28.6206 62.9293C27.9174 63.6894 26.899 64.0953 26.1766 64.8372C25.4992 65.5328 25.1224 66.5692 25.3899 67.5019C25.6573 68.4345 26.6667 69.1499 27.6123 68.9257C27.9932 67.6948 28.7795 66.6285 29.8437 65.8996C30.3974 65.5451 30.9809 65.2394 31.5877 64.9858C32.6566 64.5024 33.8519 64.0098 34.9679 64.3721C35.3794 64.5273 35.7675 64.7385 36.1211 64.9998L37.9816 66.2472C37.7648 65.3938 37.5698 64.4366 37.1733 63.6501Z" fill="#FFBD59"/>
<path d="M27.3383 68.1005C27.0224 68.4938 27.4774 69.0636 27.4078 69.5628C27.3615 69.8945 27.088 70.1478 26.9741 70.4628C26.8562 70.7891 26.9187 71.1505 26.874 71.4945C26.8291 71.7447 26.7627 71.9905 26.6755 72.2292C26.4752 72.9425 26.3353 73.6714 26.2574 74.4081L25.8411 77.5113C25.7689 77.9783 25.7249 78.4492 25.7094 78.9215C25.7304 79.2745 25.7068 79.6287 25.6391 79.9758C25.5469 80.3149 25.3427 80.6116 25.2054 80.9352C25.0681 81.2587 25.0044 81.6501 25.19 81.9487C24.5687 82.4652 24.384 83.4795 24.8184 84.1601C24.9011 84.2661 24.9658 84.385 25.0099 84.512C25.0339 84.6895 25.0045 84.8701 24.9255 85.0309L24.5046 86.1504C24.3968 86.437 24.3627 86.8733 24.6623 86.9387C24.4142 87.1959 24.2208 87.5007 24.094 87.8346C24.0325 88.0022 24.0141 88.1826 24.0406 88.3592C24.067 88.5357 24.1374 88.7028 24.2454 88.8452C24.35 88.9368 24.439 89.0447 24.5091 89.1646C24.5503 89.3318 24.5396 89.5075 24.4786 89.6685C24.4157 89.913 24.4035 90.1677 24.443 90.4171C24.4824 90.6665 24.5725 90.9051 24.7079 91.1184C24.8481 91.3288 25.0467 91.4938 25.2794 91.5934C25.5121 91.6929 25.7688 91.7227 26.0181 91.679C26.8602 91.4894 27.6169 91.1901 28.466 91.3456C30.2941 91.6805 32.1282 92.0167 33.8988 92.581C35.9197 93.2249 37.8764 94.1693 39.9884 94.3675C40.1274 94.3959 40.2719 94.3735 40.3957 94.3043C40.5033 94.2025 40.5702 94.0652 40.584 93.9179C40.8016 92.8996 41.0192 91.8813 41.2368 90.863C41.4998 89.7342 41.7001 88.5918 41.8368 87.441C41.9111 86.6983 41.9323 85.9514 41.9534 85.2052L42.1217 79.2661C42.2005 78.3908 42.0835 77.5089 41.7793 76.6843L40.8116 73.6009C40.2593 71.8413 38.9925 70.2809 38.5414 68.4928C38.2559 67.3611 38.045 66.1466 37.2795 65.2645C36.1881 64.007 34.2998 63.8114 32.647 64.0276C31.9004 64.1252 31.1473 64.2938 30.5015 64.6803C29.7547 65.1272 29.2045 65.8312 28.6722 66.519C28.2336 67.0859 27.7871 67.5416 27.3383 68.1005Z" fill="#FFBD59"/>
<path d="M31.1973 85.5693C31.3335 86.1554 31.6195 86.6958 31.7945 87.2715C32.0878 88.236 32.0629 89.2748 32.3556 90.2395C32.4785 90.6444 32.6565 91.0331 32.7446 91.4469C32.9502 92.4117 32.6501 93.4099 32.2772 94.3233C31.9043 95.2368 31.4502 96.1375 31.3291 97.1164C31.2439 97.8059 31.3663 98.5845 31.8988 99.0319C32.4516 99.4965 33.2549 99.465 33.9749 99.4032C34.2334 99.396 34.4885 99.343 34.7284 99.2466C35.279 98.9866 35.5109 98.3363 35.6396 97.7421C36.0709 95.7507 35.9477 93.6865 35.8224 91.653L35.4946 86.3347C35.4315 85.3109 35.3638 84.2658 35.0477 83.2827C34.9328 82.9251 34.7324 82.2025 34.4051 81.9741C34.0809 81.7479 33.1553 81.7379 32.754 81.7191C30.871 81.6308 30.8921 84.2539 31.1973 85.5693Z" fill="#FBBEBE"/>
<path d="M33.2838 65.9334C32.8993 65.7324 32.4148 65.819 32.0431 66.0428C31.6842 66.2881 31.3699 66.5927 31.1136 66.9435C30.2827 67.9559 29.403 69.1176 29.5263 70.4205C29.5725 70.9091 29.7599 71.3714 29.8869 71.8454C30.4441 73.9239 29.828 76.1222 29.8987 78.2726C29.9395 79.5152 30.2104 80.7374 30.4802 81.9512C30.5353 82.1989 30.6234 82.4856 30.8635 82.569C31.0439 82.6317 31.2387 82.5511 31.4172 82.4834C32.0821 82.2381 32.7965 82.1563 33.4999 82.2448C34.2032 82.3333 34.8749 82.5895 35.4581 82.9918C35.904 82.7543 35.7369 82.0033 35.6369 81.5088C35.3399 80.0396 35.7431 78.5239 36.2328 77.107C36.7225 75.6901 37.3084 74.275 37.3895 72.7783C37.4814 71.0825 36.9181 69.4273 36.3623 67.8222C36.241 67.4719 36.1084 67.1045 35.8271 66.8624C35.5863 66.6837 35.3103 66.5579 35.0173 66.4932C34.4269 66.319 33.8292 66.2184 33.2838 65.9334Z" fill="#2F2E41"/>
</g>
<defs>
<clipPath id="clip0">
<rect width="175.282" height="132.823" fill="white"/>
</clipPath>
</defs>
</svg>
