<svg width="176" height="133" fill="none" xmlns="http://www.w3.org/2000/svg"><g clip-path="url(#clip0)"><path d="M84.803 117.433C47.076 114.568 2.084 85.39 4.375 55.347 6.665 25.305 50.24-2.663 87.968.203c37.727 2.865 59.444 59.01 57.153 89.053-2.29 30.043-22.59 31.043-60.318 28.177z" fill="#F2F2F2"/><path d="M87.967 122.259c43.495 0 78.755-2.156 78.755-4.816 0-2.66-35.26-4.816-78.755-4.816s-78.754 2.156-78.754 4.816c0 2.66 35.26 4.816 78.754 4.816z" fill="#3F3D56"/><path opacity=".1" d="M87.968 120.55c37.048 0 67.081-1.426 67.081-3.185 0-1.758-30.033-3.184-67.081-3.184s-67.082 1.426-67.082 3.184c0 1.759 30.034 3.185 67.082 3.185z" fill="#000"/><path d="M33.026 132.823c18.24 0 33.026-1.287 33.026-2.874 0-1.588-14.786-2.874-33.026-2.874-18.24 0-33.026 1.286-33.026 2.874 0 1.587 14.786 2.874 33.026 2.874z" fill="#3F3D56"/><path opacity=".1" d="M33.026 131.803c15.536 0 28.13-.851 28.13-1.901 0-1.049-12.594-1.9-28.13-1.9s-28.131.851-28.131 1.9c0 1.05 12.595 1.901 28.13 1.901z" fill="#000"/><path d="M147.578 25.166H30.536v91.656h117.042V25.166z" fill="#3F3D56"/><path d="M87.725 37.692H58.851a.352.352 0 01-.351-.35.35.35 0 01.351-.35h28.874a.35.35 0 01.248.597.351.351 0 01-.248.103zm31.608 3.848H73.919a.35.35 0 01-.248-.598.35.35 0 01.248-.102h45.414a.348.348 0 01.324.216.361.361 0 01.027.134.362.362 0 01-.103.247.35.35 0 01-.248.102zm-31.467 3.847H58.992a.351.351 0 01-.248-.598.35.35 0 01.248-.102h28.874a.35.35 0 110 .7zm31.467.069H90.458a.35.35 0 01-.248-.597.351.351 0 01.248-.102h28.875a.35.35 0 010 .7zm-31.397 3.778H59.06a.35.35 0 01-.247-.597.35.35 0 01.247-.103h28.875a.35.35 0 01.247.597.35.35 0 01-.247.103zm.07 3.847H59.132a.351.351 0 01-.35-.35.35.35 0 01.35-.35h28.874a.35.35 0 01.248.598.351.351 0 01-.248.102zm13.105-15.319h-8.27a.35.35 0 01-.247-.597.351.351 0 01.248-.103h8.269a.352.352 0 01.351.35.349.349 0 01-.351.35zm0 11.472h-8.27a.351.351 0 01-.247-.597.35.35 0 01.248-.103h8.269a.352.352 0 01.351.35.348.348 0 01-.351.35zm0 3.777h-8.27a.35.35 0 110-.7h8.27a.357.357 0 01.248.103.352.352 0 01.103.247.352.352 0 01-.351.35zm13.877 0h-8.27a.349.349 0 01-.247-.597.349.349 0 01.247-.102h8.27a.352.352 0 01.351.35.343.343 0 01-.103.247.351.351 0 01-.248.102zM67.05 41.54h-8.269a.35.35 0 01-.248-.598.35.35 0 01.248-.102h8.27a.35.35 0 01.248.597.351.351 0 01-.248.102zm20.71 52.812H58.886a.35.35 0 01-.248-.597.35.35 0 01.248-.102H87.76a.35.35 0 01.248.597.351.351 0 01-.248.102zm-.14 7.695H58.746a.35.35 0 010-.7H87.62a.35.35 0 110 .7zm.07 3.847H58.816a.363.363 0 01-.134-.026.34.34 0 01-.19-.19.347.347 0 01.076-.381.352.352 0 01.248-.102H87.69a.35.35 0 110 .699zm12.335-3.777h-8.27a.35.35 0 010-.7h8.27a.35.35 0 010 .7zm0 3.777h-8.27a.351.351 0 01-.248-.597.353.353 0 01.248-.102h8.27c.093 0 .182.037.248.102a.353.353 0 010 .495.354.354 0 01-.248.102zm13.876-3.777h-8.269a.35.35 0 010-.7h8.269a.349.349 0 01.351.35.349.349 0 01-.351.35zm5.467-3.917H73.954a.351.351 0 01-.248-.597.35.35 0 01.248-.103h45.414a.352.352 0 01.35.35.352.352 0 01-.35.35zm-52.282 0h-8.27a.35.35 0 010-.7h8.27a.35.35 0 110 .7zm52.282 11.611H73.954a.326.326 0 01-.134-.026.347.347 0 01-.114-.571.367.367 0 01.114-.076.363.363 0 01.134-.026h45.414a.35.35 0 110 .699zm-52.282 0h-8.27a.326.326 0 01-.134-.026.347.347 0 01-.114-.571.368.368 0 01.114-.076.363.363 0 01.134-.026h8.27c.046 0 .091.009.134.026a.352.352 0 01.19.458.348.348 0 01-.324.215z" fill="#F2F2F2"/><path d="M80.787 62.315L69.574 73.367l11.213 11.052 2.523-2.518-8.48-8.464 8.55-8.534-2.593-2.588zm16.54 0l11.213 11.052-11.213 11.052-2.523-2.518 8.48-8.464-8.55-8.534 2.593-2.588z" fill="#FFBD59"/><path d="M33.648 28.895a1.4 1.4 0 001.401-1.398 1.4 1.4 0 00-1.4-1.398 1.4 1.4 0 00-1.401 1.398 1.4 1.4 0 001.4 1.398z" fill="#00C2CB"/><path d="M37.384 28.895a1.4 1.4 0 001.4-1.398 1.4 1.4 0 00-1.4-1.398 1.4 1.4 0 00-1.4 1.398 1.4 1.4 0 001.4 1.398z" fill="#F55F44"/><path d="M41.12 28.895a1.4 1.4 0 001.4-1.398 1.4 1.4 0 00-1.4-1.398 1.4 1.4 0 00-1.401 1.398 1.4 1.4 0 001.4 1.398z" fill="#FFBD59"/><path opacity=".1" d="M147.578 29.827H30.536v.466h117.042v-.466z" fill="#000"/><path d="M175.282 94.367c0 9.906-5.9 13.365-13.179 13.365s-13.179-3.459-13.179-13.365c0-9.907 13.179-22.51 13.179-22.51s13.179 12.603 13.179 22.51z" fill="#F2F2F2"/><path d="M161.623 106.217l.135-8.291 5.617-10.257-5.596 8.956.061-3.728 3.871-7.42-3.855 6.434.109-6.705 4.146-5.908-4.129 4.854.068-12.295-.428 16.276.035-.672-4.215-6.439 4.147 7.728-.392 7.489-.012-.2-4.859-6.776 4.844 7.479-.049.936-.009.014.004.077-.996 18.999h1.331l.16-9.813 4.832-7.46-4.82 6.722z" fill="#3F3D56"/><path d="M19.085 116.681a6.72 6.72 0 01-1.273.544c-.79.215-1.635.136-2.434.32-.326.075-.682.233-.786.551-.077.234.006.486.086.719.882 2.582 1.414 5.323 2.82 7.661a11.574 11.574 0 002.179 2.639c.32.288.682.57 1.11.615a1.125 1.125 0 001.033-.46 1.12 1.12 0 00.114-1.122c-.126-.28-.36-.496-.512-.764a2.907 2.907 0 01-.283-1.086c-.139-1.104-.273-2.258.11-3.303.258-.701.73-1.299 1.122-1.934.393-.635.72-1.362.632-2.104-.06-.506-.307-.969-.568-1.406-.261-.439-.779-1.617-1.304-1.764-.546-.151-1.57.65-2.046.894zm14.387 8.918c.008.25-.027.499-.104.737-.164.434-.572.731-.783 1.145-.294.574-.16 1.269.034 1.885.121.385.281.787.609 1.025.28.173.598.275.926.297 2.807.387 5.659.165 8.492.246.516.015 1.063.033 1.513-.219.451-.252.73-.885.423-1.3-.275-.372-.82-.369-1.283-.391a5.28 5.28 0 01-3.255-1.338 2.332 2.332 0 01-.456-.525 3.209 3.209 0 01-.239-.546 24.365 24.365 0 00-1.414-3.126c-.152-.282-.325-.575-.608-.726a1.614 1.614 0 00-.66-.144c-.705-.045-2.534-.285-3.08.263-.504.506-.104 2.074-.115 2.717z" fill="#2F2E41"/><path d="M37.816 63.024a4.505 4.505 0 004.51-4.501 4.505 4.505 0 00-4.51-4.501 4.505 4.505 0 00-4.51 4.5 4.506 4.506 0 004.51 4.502z" fill="#FBBEBE"/><path d="M33.744 62.24c-.268.716-.723 1.39-1.385 1.775l6.237 1.27a6.583 6.583 0 01-.087-2.776 1.6 1.6 0 00.037-.685c-.117-.451-.627-.669-1.082-.773-1.139-.259-2.145-.397-3.203-.9-.324.553-.279 1.451-.517 2.088z" fill="#FBBEBE"/><path d="M32.306 62.33a4.885 4.885 0 014.252.11c.8.421 1.461 1.056 2.112 1.683.6.577 1.24 1.238 1.282 2.069.02.402-.106.795-.17 1.193a3.996 3.996 0 002.146 4.112c.495.824.597 1.822.605 2.783.029 3.64-1.122 7.326-.3 10.874.192.833.492 1.64.658 2.478.216 1.086.206 2.203.318 3.304.123 1.193.39 2.366.796 3.495-.271.43-.836.596-1.345.56-.509-.034-.984-.254-1.438-.486-2.199-1.123-4.212-2.603-6.489-3.558-1.506-.631-3.11-1.024-4.572-1.753-1.46-.73-2.82-1.886-3.267-3.455-.193-.678-.205-1.393-.215-2.098-.045-2.969-.086-5.97.562-8.869.57-2.556 1.671-5.001 1.912-7.61.078-.848.08-1.757.555-2.465.671-1.001 2.121-1.26 2.598-2.367z" fill="#2F2E41"/><path d="M35.251 58.586c.266-.346.779-.393 1.203-.29.425.102.816.32 1.245.403a.73.73 0 00.582-.081.845.845 0 00.252-.555c.15-.892.185-1.8.104-2.7a.798.798 0 01.025-.379c.106-.255.43-.316.694-.398a2.072 2.072 0 001.403-2.118.841.841 0 00-.258-.58c-.183-.15-.439-.159-.675-.16-1.212-.01-2.424-.01-3.636 0-.449.004-.92.015-1.31.239-.287.165-.5.43-.759.638-.673.543-1.584.653-2.403.93-.4.115-.763.33-1.053.628-.273.31-.404.772-.233 1.148.088.157.186.308.294.451.483.771.162 1.772.234 2.678.09 1.133 1.768 2.97 2.907 3.237 1.838.433.776-2.347 1.384-3.09zm-2.546 49.642c.116.827.265 1.657.225 2.49-.055 1.165-.476 2.286-.553 3.449-.059.869.076 1.746-.045 2.609-.078.552-.258 1.084-.37 1.63a6.727 6.727 0 001.086 5.167.842.842 0 00.315.305.894.894 0 00.39.052 28.104 28.104 0 003.918-.356.374.374 0 00.251-.111.347.347 0 00.055-.148c.24-1.233-.308-2.469-.447-3.717-.149-1.333.171-2.668.49-3.971a17.62 17.62 0 01.54-1.9c.153-.419.338-.827.472-1.252.188-.67.303-1.357.342-2.051.093-1.096.142-2.193.148-3.294a13.79 13.79 0 00-.26-3.108c-.292-1.295-.89-2.498-1.484-3.687a2.353 2.353 0 00-.874.415c-.765.494-1.563.935-2.39 1.318-.554.257-1.637.44-1.99.976-.347.529-.123 1.608-.096 2.191.046 1.002.138 1.999.277 2.993z" fill="#2F2E41"/><path opacity=".1" d="M32.705 108.228c.116.827.265 1.657.225 2.49-.055 1.165-.476 2.286-.553 3.449-.059.869.076 1.746-.045 2.609-.078.552-.258 1.084-.37 1.63a6.727 6.727 0 001.086 5.167.842.842 0 00.315.305.894.894 0 00.39.052 28.104 28.104 0 003.918-.356.374.374 0 00.251-.111.347.347 0 00.055-.148c.24-1.233-.308-2.469-.447-3.717-.149-1.333.171-2.668.49-3.971a17.62 17.62 0 01.54-1.9c.153-.419.338-.827.472-1.252.188-.67.303-1.357.342-2.051.093-1.096.142-2.193.148-3.294a13.79 13.79 0 00-.26-3.108c-.292-1.295-.89-2.498-1.484-3.687a2.353 2.353 0 00-.874.415c-.765.494-1.563.935-2.39 1.318-.554.257-1.637.44-1.99.976-.347.529-.123 1.608-.096 2.191.046 1.002.138 1.999.277 2.993z" fill="#000"/><path d="M26.608 90.57c-.598 1.61.282 3.349 1.047 4.887 1.884 3.788 3.192 7.83 4.494 11.855.097.302.195.631.086.929a1.225 1.225 0 01-.44.52c-.897.68-2.04.922-3.108 1.278a14.063 14.063 0 00-2.948 1.379c-.775.48-1.5 1.033-2.225 1.585l-2.305 1.757c-.15.101-.28.227-.386.372-.222.348-.13.803-.02 1.201.293 1.053.67 2.081 1.129 3.075.075.217.219.405.409.535.36.193.8-.063 1.075-.365.274-.301.512-.677.9-.806.386-.13.812.027 1.216-.03.654-.091 1.088-.692 1.559-1.153 1.924-1.885 5.137-1.748 7.255-3.414.306-.274.63-.526.97-.757.357-.211.763-.327 1.134-.513 1.13-.568 1.84-1.742 2.22-2.945.38-1.204.49-2.475.762-3.707.142-.637.328-1.267.39-1.917.041-.604.028-1.21-.039-1.812l-.764-9.432c-.062-.768-.124-1.537-.245-2.298-2.269.081-4.536.172-6.806.2-1.806.02-3.646.147-5.36-.423z" fill="#2F2E41"/><path d="M25.775 92.777c.308.494 1.057.484 1.572.213.516-.27.917-.726 1.434-.994.695-.361 1.517-.348 2.3-.325 1.24.034 2.494.072 3.686.41 1.234.351 2.435 1.026 3.71.892.222-.024.465-.087.585-.275a.86.86 0 00.097-.44l.041-1.112a1.004 1.004 0 00-.088-.563.947.947 0 00-.423-.323c-1.815-.878-3.886-1.04-5.901-1.11a76.514 76.514 0 00-3.075-.043c-.87.005-1.915-.12-2.761.112-1.136.311-1.753 2.634-1.177 3.558z" fill="#2F2E41"/><path d="M37.173 63.65c-2.378-.021-4.534-1.588-6.912-1.626-.287-.02-.575.03-.84.144-.33.167-.549.49-.8.761-.704.76-1.722 1.166-2.444 1.908-.678.696-1.055 1.732-.787 2.665.267.933 1.277 1.648 2.222 1.424a5.717 5.717 0 012.232-3.026c.553-.355 1.137-.66 1.744-.914 1.069-.484 2.264-.976 3.38-.614.411.155.8.367 1.153.628l1.86 1.247c-.216-.853-.411-1.81-.808-2.597z" fill="#FFBD59"/><path d="M27.338 68.1c-.316.394.14.964.07 1.463-.047.331-.32.585-.434.9-.118.326-.055.688-.1 1.032-.045.25-.111.495-.198.734-.2.713-.34 1.442-.419 2.18l-.416 3.102c-.072.467-.116.938-.132 1.41.021.353-.002.708-.07 1.055-.092.339-.296.636-.434.96-.137.323-.2.714-.015 1.013-.621.516-.806 1.53-.372 2.211.083.106.148.225.192.352a.902.902 0 01-.085.519l-.42 1.12c-.108.286-.142.722.157.788a2.641 2.641 0 00-.568.896 1.064 1.064 0 00.151 1.01c.105.092.194.2.264.32a.849.849 0 01-.03.503 1.845 1.845 0 00.229 1.45 1.302 1.302 0 001.31.561c.842-.19 1.599-.489 2.448-.333 1.828.334 3.662.67 5.433 1.235 2.02.644 3.977 1.588 6.09 1.787a.592.592 0 00.407-.064.61.61 0 00.188-.386l.653-3.055a31.48 31.48 0 00.6-3.422c.074-.743.095-1.49.116-2.236l.169-5.939a5.925 5.925 0 00-.343-2.582l-.967-3.083c-.553-1.76-1.82-3.32-2.27-5.108-.286-1.132-.497-2.346-1.263-3.228-1.09-1.258-2.98-1.454-4.632-1.237-.747.097-1.5.266-2.145.652-.747.447-1.297 1.151-1.83 1.839-.438.567-.885 1.023-1.334 1.581z" fill="#FFBD59"/><path d="M31.197 85.57c.137.585.422 1.126.598 1.702.293.964.268 2.003.56 2.968.123.404.302.793.39 1.207.205.965-.095 1.963-.468 2.876-.373.914-.827 1.815-.948 2.793-.085.69.037 1.469.57 1.916.553.465 1.356.433 2.076.371.258-.007.514-.06.753-.156.551-.26.783-.91.912-1.505.43-1.991.308-4.056.182-6.089l-.327-5.318c-.063-1.024-.131-2.07-.447-3.052-.115-.358-.316-1.08-.643-1.309-.324-.226-1.25-.236-1.651-.255-1.883-.088-1.862 2.535-1.557 3.85z" fill="#FBBEBE"/><path d="M33.284 65.933c-.385-.2-.87-.114-1.24.11-.36.245-.674.55-.93.9-.831 1.013-1.711 2.175-1.588 3.478.047.488.234.95.36 1.424.558 2.079-.058 4.277.013 6.428.04 1.242.311 2.464.581 3.678.055.248.143.535.383.618.18.063.376-.018.554-.086a4.423 4.423 0 014.041.509c.446-.238.279-.989.179-1.483-.297-1.47.106-2.985.596-4.402.49-1.417 1.075-2.832 1.157-4.329.091-1.696-.472-3.35-1.028-4.956-.121-.35-.254-.718-.535-.96a2.13 2.13 0 00-.81-.369c-.59-.174-1.188-.275-1.733-.56z" fill="#2F2E41"/></g><defs><clipPath id="clip0"><path fill="#fff" d="M0 0h175.282v132.823H0z"/></clipPath></defs></svg>