<svg xmlns="http://www.w3.org/2000/svg" xmlns:xlink="http://www.w3.org/1999/xlink" width="176" height="131" fill="none"><g clip-path="url(#A)"><path opacity=".25" d="M108.756 18.7c-10.68-.275-20.85-2.833-30.56-5.632S58.864 7.173 48.44 5.7c-6.703-.965-14.37-1.1-19.77 1.57-5.2 2.565-6.88 6.992-7.78 11.112-.68 3.094-1.08 6.35.782 9.245 1.294 2.01 3.587 3.7 5.174 5.627 5.523 6.702 1.62 14.964-4.364 21.507-2.805 3.07-6.064 5.996-8.23 9.265s-3.168 7-1.272 10.344c1.878 3.296 6.354 5.784 11.203 7.53 9.85 3.545 21.45 4.56 32.77 5.134 25.052 1.272 50.236.72 75.353.165 9.296-.204 14.858 1.073 24.003 0 5.078-.592 8.755-2.02 12.443-4.29 4.68-2.88 1.503-9.452-1.633-13.065-5.26-6.06-10.126-6.872-13.807-13.376-2.023-3.58.055-7.567 2.997-10.888 6.31-7.122 16.884-13.37 17.44-21.512.383-5.59-4.7-11.19-12.56-13.837-8.24-2.772-19.665-2.424-25.74 2.166-6.262 4.732-17.26 6.552-26.7 6.314z" fill="#ffbd59"/><g fill="#3f3d56"><path d="M96.78 49.147c2.364 0 4.675.697 6.64 2.003s3.497 3.162 4.402 5.334a11.83 11.83 0 01.68 6.867 11.87 11.87 0 01-3.272 6.086c-1.672 1.662-3.802 2.794-6.12 3.252s-4.722.223-6.906-.677a11.94 11.94 0 01-5.364-4.378 11.84 11.84 0 01-2.014-6.604c.001-3.152 1.26-6.175 3.5-8.403s5.28-3.48 8.45-3.48zm0-2.935c-2.948 0-5.83.87-8.28 2.498a14.84 14.84 0 00-5.489 6.651c-1.128 2.708-1.423 5.688-.848 8.563s1.995 5.516 4.08 7.588a14.93 14.93 0 007.632 4.056c2.89.572 5.888.278 8.61-.844s5.05-3.022 6.688-5.46a14.76 14.76 0 002.511-8.234 14.79 14.79 0 00-4.37-10.474 14.968 14.968 0 00-10.534-4.345z"/><path d="M98.066 42.745h-3.493v3.657h3.493v-3.657zm9.224 3.273l-2.995-1.8-1.894 3.135 2.995 1.8 1.894-3.135zm6.142 7.237l-1.694-3.038L108.522 52l1.694 3.038 3.216-1.773zm-1.74 18.49l1.85-2.946-3.118-1.938-1.85 2.946 3.118 1.938zm-28.348-16.72l1.694-3.038-3.216-1.773-1.694 3.038 3.216 1.773zm1.642 14.78l-1.85-2.946-3.12 1.938 1.85 2.946 3.12-1.938zm3.174-20.654l2.994-1.8-1.894-3.134-2.994 1.8 1.894 3.134zm9.906 26.508h-3.493v3.657h3.493V75.66zm7.33-2.75l-2.994 1.8 1.894 3.135 2.994-1.8-1.894-3.134zm-19.13 3.135l2.994 1.8 1.894-3.135-2.994-1.8-1.894 3.134zM82.253 59.57h-4.23v3.108h4.23V59.57zm29.052 3.106h4.23V59.57h-4.23v3.108zm13.24-34.922c2.364 0 4.675.697 6.64 2.003s3.497 3.162 4.402 5.334a11.83 11.83 0 01.68 6.867 11.87 11.87 0 01-3.272 6.086c-1.672 1.662-3.8 2.794-6.12 3.252s-4.722.223-6.906-.677-4.05-2.423-5.364-4.378-2.014-4.253-2.013-6.604a11.85 11.85 0 013.501-8.403 11.978 11.978 0 018.45-3.48zm0-2.935c-2.948 0-5.83.87-8.28 2.498a14.84 14.84 0 00-5.49 6.651 14.736 14.736 0 00-.847 8.563 14.79 14.79 0 004.079 7.588 14.93 14.93 0 007.632 4.056 14.98 14.98 0 008.611-.844 14.89 14.89 0 006.688-5.46 14.75 14.75 0 002.511-8.234 14.79 14.79 0 00-4.37-10.474 14.968 14.968 0 00-10.534-4.345z"/><path d="M125.832 21.354h-3.494v3.657h3.494v-3.657zm9.226 3.27l-2.994-1.8-1.894 3.134 2.994 1.8 1.894-3.134zm6.142 7.237l-1.694-3.038-3.216 1.773 1.694 3.038 3.216-1.773zm-1.742 18.493l1.852-2.946-3.12-1.938-1.85 2.946 3.118 1.938zM111.1 33.635l1.694-3.038-3.217-1.773-1.693 3.038 3.216 1.773zm1.642 14.78l-1.852-2.946-3.118 1.938 1.85 2.946 3.12-1.938zm3.175-20.656l2.994-1.8-1.894-3.135-2.994 1.8 1.894 3.134zm9.905 26.508h-3.494v3.657h3.494v-3.657zm7.332-2.748l-2.995 1.8 1.894 3.134 2.995-1.8-1.894-3.135zm-19.132 3.132l2.995 1.8 1.894-3.134-2.995-1.8-1.894 3.134zm-4.014-16.475h-4.23v3.108h4.23v-3.108zm29.055 3.108h4.23v-3.108h-4.23v3.108zM69.006 26.84h.422a11.98 11.98 0 018.257 3.692 11.85 11.85 0 013.286 8.389c-.053 3.116-1.336 6.088-3.57 8.273s-5.244 3.4-8.38 3.4h-.424a11.983 11.983 0 01-8.258-3.692 11.85 11.85 0 01.286-16.662 11.981 11.981 0 018.38-3.4zm0-2.935c-3.9 0-7.66 1.526-10.45 4.25a14.78 14.78 0 00-4.454 10.316c-.067 3.886 1.404 7.643 4.097 10.462s6.4 4.47 10.297 4.604c.174 0 .347.01.52.01 3.9 0 7.66-1.527 10.448-4.252a14.78 14.78 0 004.454-10.316 14.77 14.77 0 00-4.097-10.46 14.97 14.97 0 00-10.296-4.604c-.174 0-.347-.01-.52-.01h.002z"/><path d="M70.935 20.497l-3.5-.12-.128 3.655 3.5.12.128-3.655zm9.105 3.586l-2.93-1.9-2.002 3.067 2.93 1.9 2.002-3.067zm5.885 7.445l-1.587-3.095-3.276 1.66 1.587 3.095 3.276-1.66zm-2.382 18.415l1.953-2.88-3.05-2.044-1.953 2.88 3.05 2.044zm-27.75-17.685l1.8-2.978-3.152-1.883-1.8 2.978 3.152 1.883zm.882 15.114l-1.747-3.022-3.2 1.828 1.747 3.022 3.2-1.828zm4.142-20.822l3.055-1.685-1.783-3.198-3.055 1.685 1.783 3.198zm8.97 26.838l-3.5-.12-.128 3.655 3.5.12.128-3.655zm7.425-2.49l-3.055 1.685 1.783 3.198 3.055-1.685-1.783-3.198zm-19.226 2.468l2.93 1.9 2.002-3.067-2.93-1.9-2.002 3.067zm-3.44-16.603l-4.227-.146-.108 3.106 4.227.146.108-3.106zm28.93 4.104l4.227.146.1-3.106-4.227-.146-.108 3.106z"/></g><path opacity=".1" d="M42.325 70.173a1.77 1.77 0 00-.215.855c.13-.64 1.014-.993 1.07-1.625.026-.292-.028-.278-.208-.124-.274.237-.394.644-.648.894zm2.693 1.94a1.32 1.32 0 00-.403.592c-.15.325-.18.692-.082 1.036.13-.06.174-.22.214-.357a2.48 2.48 0 01.276-.611c.104-.173.585-.558.583-.74-.005-.278-.46-.02-.6.08z" fill="#000"/><g clip-path="url(#B)"><path d="M126.328 122.654c-1.003 3.834-4.52 6.23-4.52 6.23s-1.89-3.82-.885-7.654 4.52-6.23 4.52-6.23 1.9 3.82.886 7.655z" fill="#052b5d"/><path d="M124.806 121.843c-2.81 2.786-3.125 7.04-3.125 7.04s4.242-.264 7.053-3.05 3.124-7.04 3.124-7.04-4.242.264-7.052 3.05z" fill="#ffbd59"/><use xlink:href="#C" fill="#2f2e41"/><use xlink:href="#C" opacity=".1" fill="#000"/><use xlink:href="#D" fill="#a0616a"/><use xlink:href="#D" opacity=".1" fill="#000"/><use xlink:href="#E" fill="#d0cde1"/><use xlink:href="#E" opacity=".1" fill="#000"/><path d="M78.243 103.927l1.23 5.084a.32.32 0 01-.006.172l-5.573 17.473a.316.316 0 01-.333.22c-.072-.008-.14-.04-.19-.1s-.084-.118-.092-.2l-.77-6.807a.32.32 0 01.014-.135l5.115-15.75c.02-.065.063-.122.12-.162a.31.31 0 01.381.015.32.32 0 01.107.171z" fill="#2f2e41"/><path d="M77.79 104.356l1.134 4.363L74 124.652l-1.134-4.932 4.915-15.364z" fill="#f2f2f2"/><path d="M53.028 128.066c.19.57 19.66-.2 19.85-.38a4.13 4.13 0 00.416-.758c.178-.38.34-.76.34-.76l-.756-6.142-19.28-.686s-.482 5.204-.58 7.587c-.025.6-.025 1.024.013 1.138z" fill="#2f2e41"/><path opacity=".1" d="M70.42 120.858l.378 5.3H62.3v-5.3h8.128zm-10.965 1.707l.05-.01-.24 2.286H54.54v-2.276h4.915zm-6.427 5.5c.2.57 19.66-.2 19.85-.38a4.07 4.07 0 00.416-.758h-20.28c-.025.6-.025 1.024.013 1.138z" fill="#000"/><g fill="#a0616a"><path d="M30.344 81.405c4.698 0 8.507-3.82 8.507-8.535s-3.81-8.535-8.507-8.535-8.507 3.82-8.507 8.535 3.808 8.535 8.507 8.535z"/><path d="M29.776 80.457s-2.835 4.932-3.403 7.587-8.507-5.3-8.507-5.3l-1.04-2.75s7.467-3.5 6.9-6.354 6.05 6.828 6.05 6.828zM31.3 95.252l7.75 10.242 18.525 13.847s13.42 2.845 10.397 4.93-11.72-1.897-11.72-1.897-18.714-10.052-22.684-14.225-11.342-11.2-11.342-11.2l9.074-1.707z"/></g><path d="M20.89 111.185l2.268 3.603 13.538-4.273c2.97-.938 6.228-.593 8.863 1.073 2.363 1.493 3.875 3.864.473 7.373-6.805 7.018-11.342 3.225-11.342 3.225s-22.873 10.81-26.654 5.5-3.97-7.966-3.97-7.966 14.556-9.104 16.824-8.535z" fill="#2f2e41"/><path d="M49.247 123.703s6.05 3.983-1.134 5.88-12.476-.76-12.476-.76-6.238 0-6.238-3.224 2.08-3.604 2.08-3.604l6.427.948s7.75-2.086 11.342.76z" fill="#d0cde1"/><path d="M37.322 70.723c.58.26 1.153.566 1.783.64s1.346-.145 1.644-.707c.16-.303.18-.66.187-1.004.023-1.04-.052-2.168-.7-2.974-.42-.513-1.03-.836-1.463-1.337-.3-.36-.517-.793-.74-1.212-.843-1.588-2.09-3.115-3.825-3.573-.724-.19-1.484-.182-2.233-.17l-4.367.062c-.707.01-1.424.022-2.1.227-1.406.426-2.43 1.612-3.366 2.747-.7.85-1.404 1.706-1.93 2.674a9.402 9.402 0 00-1.108 4.597c-.006.41.047.82.157 1.216.13.363.288.714.477 1.05.82 1.614 1.305 3.63.383 5.187 1.602-.657 3.188-1.518 4.244-2.893.473-.615.844-1.335 1.474-1.787s1.657-.49 2.06.172a1.86 1.86 0 01.208.868c.03.497.03 1.014.24 1.465s.71.816 1.19.68c.823-.233.744-1.5 1.378-2.076.48-.437 1.224-.354 1.843-.552.72-.23 1.26-.858 1.57-1.55.234-.527.23-1.906.674-2.19.556-.358 1.82.21 2.335.44z" fill="#2f2e41"/><g fill="#d0cde1"><path d="M16.152 79.083c.383-.103.786-.1 1.168.003 1.213.327 3.934 1.192 4.517 2.51.756 1.707 3.403 4.363 3.403 4.363s3.592 3.604 2.835 6.07-3.592 5.31-3.592 5.31.756 11.76-3.025 14.795-5.293.948-5.293 3.793-11.72 11.76-13.99 6.26c0 0 1.134-10.243.756-13.847-.373-3.552.173-25.712 13.22-29.256z"/><path d="M22.215 83.87s11.53 8.535 9.452 12.14c0 0-6.994 3.414-8.506 3.225s-7.372-6.828-8.885-7.397-2.268-10.81 7.94-7.966z"/></g><path d="M150.31 128.714h-40.66v.288h40.66v-.288z" fill="#3f3d56"/></g></g><defs><path id="C" d="M22.97 108.15h5.293l13.043-5.12s9.263-3.794 8.507 3.414-2.08 16.88-2.08 16.88-4.16-1.897-6.427-1.328-.756-11.57-.756-11.57-18.525 8.915-20.227 7.777-2.08-9.105-2.08-9.105l4.726-.948z"/><path id="D" d="M31.3 91.518l6.406 9.234 14.934 12.52s13.8 3.224 11.91 5.5-13.42-2.277-13.42-2.277-17.202-12.518-17.77-13.467-6.805-9.863-6.805-9.863l4.747-1.648z"/><path id="E" d="M27.508 84.06l4.16 8.156S30.72 96.2 29.21 96.58s-7.94-4.932-7.94-4.932l6.238-7.587z"/><clipPath id="A"><path fill="#fff" transform="translate(0 .71)" d="M0 0h175.282v129.556H0z"/></clipPath><clipPath id="B"><path fill="#fff" transform="translate(2.177 21.395)" d="M0 0h154.597v108.87H0z"/></clipPath></defs></svg>