<svg xmlns="http://www.w3.org/2000/svg" xmlns:xlink="http://www.w3.org/1999/xlink" width="151" height="119" fill="none"><g clip-path="url(#A)"><path d="M73.94 27.223h-.62v-16.92a9.76 9.76 0 00-2.886-6.925 9.88 9.88 0 00-6.968-2.87H27.402a9.875 9.875 0 00-6.966 2.868A9.79 9.79 0 0018.3 6.554a9.746 9.746 0 00-.75 3.748v92.83a9.746 9.746 0 002.886 6.925 9.88 9.88 0 006.966 2.869h36.064c1.294 0 2.575-.254 3.77-.746s2.28-1.213 3.196-2.123a9.79 9.79 0 002.136-3.177 9.746 9.746 0 00.75-3.748V39.268h.62V27.223z" fill="#3f3d56"/><g fill="#fff"><path d="M63.79 3.288h-4.708c.217.528.3 1.1.24 1.667a3.46 3.46 0 01-.576 1.584 3.49 3.49 0 01-1.258 1.128 3.51 3.51 0 01-1.643.408h-20.66a3.51 3.51 0 01-1.644-.408 3.49 3.49 0 01-1.257-1.128 3.46 3.46 0 01-.576-1.584 3.466 3.466 0 01.24-1.667h-4.397a7.38 7.38 0 00-5.202 2.142 7.29 7.29 0 00-2.155 5.172v92.696a7.28 7.28 0 00.56 2.799 7.31 7.31 0 001.595 2.372 7.37 7.37 0 002.387 1.586 7.41 7.41 0 002.816.556H63.79a7.38 7.38 0 005.202-2.142 7.29 7.29 0 002.155-5.171V10.6c0-.96-.2-1.912-.56-2.8a7.31 7.31 0 00-1.595-2.373 7.36 7.36 0 00-2.387-1.585 7.39 7.39 0 00-2.815-.557zM63 46.29c-.002.502-.203.983-.56 1.338s-.84.555-1.346.556h-9.21a1.903 1.903 0 01-1.906-1.894v-.474c.002-.502.203-.983.56-1.338s.84-.555 1.346-.556h9.21c.505.001.99.202 1.346.556s.558.836.56 1.338v.474zm1.032-8.367c-.001.502-.203.983-.56 1.338s-.84.555-1.346.556H29.093c-.505-.001-.99-.202-1.346-.556s-.558-.836-.56-1.338v-.474c.002-.502.203-.983.56-1.338s.84-.555 1.346-.556h33.032c.505.002.99.202 1.346.556s.558.836.56 1.338v.474zm0-8.367c-.001.502-.203.983-.56 1.338s-.84.555-1.346.556H29.093c-.505-.002-.99-.202-1.346-.556s-.558-.836-.56-1.338v-.474c.002-.502.203-.983.56-1.338s.84-.555 1.346-.556h33.032c.505.002.99.202 1.346.556s.558.836.56 1.338v.474zm0-8.367c-.001.502-.203.983-.56 1.338s-.84.555-1.346.557H29.093c-.505-.002-.99-.202-1.346-.557s-.558-.836-.56-1.338v-.474c.002-.502.203-.983.56-1.338s.84-.555 1.346-.556h33.032c.505.001.99.202 1.346.556s.558.836.56 1.338v.474z"/><use xlink:href="#B"/><path d="M33.46 38.87a1.11 1.11 0 001.112-1.105 1.111 1.111 0 10-2.223 0 1.11 1.11 0 001.112 1.105zm3.652 0a1.11 1.11 0 001.112-1.105 1.111 1.111 0 10-2.223 0 1.11 1.11 0 001.112 1.105zm3.653 0a1.11 1.11 0 001.112-1.105 1.111 1.111 0 10-2.223 0 1.11 1.11 0 001.112 1.105zm11.9 8.367a1.11 1.11 0 001.112-1.105 1.111 1.111 0 10-2.223 0 1.11 1.11 0 001.112 1.105zm3.653 0a1.11 1.11 0 001.112-1.105 1.111 1.111 0 10-2.223 0 1.11 1.11 0 001.112 1.105zm3.652 0a1.11 1.11 0 001.112-1.105 1.111 1.111 0 10-2.223 0 1.11 1.11 0 001.112 1.105z"/></g><path d="M64.286 60.45H26.613c-.885 0-1.734.35-2.36.972s-.977 1.466-.977 2.346v18.246c0 .88.352 1.724.977 2.346s1.475.972 2.36.972h37.672c.885 0 1.734-.35 2.36-.972s.977-1.466.977-2.346V63.767c0-.88-.352-1.724-.977-2.346s-1.475-.972-2.36-.972zM25.68 62.713c.074-.013 1.838-.312 3.3.562s2.022 2.563 2.045 2.634l.06.182-.2.034a5.06 5.06 0 01-.817.06 4.89 4.89 0 01-2.482-.622c-1.46-.873-2.022-2.563-2.045-2.634l-.06-.182.2-.033zm8.178 16.94h-6.72c-.5 0-.96-.194-1.307-.538a1.83 1.83 0 010-2.598 1.854 1.854 0 011.307-.538h6.72c.5 0 .96.194 1.307.538a1.83 1.83 0 010 2.598 1.854 1.854 0 01-1.307.538zm30.572-.334a2.005 2.005 0 01-.592 1.415 2.03 2.03 0 01-1.424.589h-5.04a2.03 2.03 0 01-1.424-.589 2.003 2.003 0 01-.592-1.415v-3.006c.002-.53.214-1.04.592-1.415a2.03 2.03 0 011.424-.589h5.04a2.03 2.03 0 011.424.589c.378.375.59.884.592 1.415v3.006z" fill="#00c2cb"/><g fill="#3f3d56"><use xlink:href="#C"/><path d="M62.742 78.7h-2.026a.544.544 0 00-.386.16.54.54 0 000 .767c.102.102.24.16.386.16h2.026a.544.544 0 00.386-.16.54.54 0 000-.767.545.545 0 00-.386-.16zM59 77.17h-2.026a.544.544 0 00-.386.16.54.54 0 000 .767c.102.102.24.16.386.16H59a.544.544 0 00.386-.16.54.54 0 000-.767.545.545 0 00-.386-.16z"/><use xlink:href="#D"/><path d="M59 75.67h-2.026a.544.544 0 00-.386.16.54.54 0 000 .767c.102.102.24.16.386.16H59a.544.544 0 00.386-.16.54.54 0 000-.767.545.545 0 00-.386-.16zm3.74 0h-2.026a.54.54 0 00-.386.927c.102.102.24.16.386.16h2.026a.544.544 0 00.386-.16.54.54 0 000-.767.545.545 0 00-.386-.16z"/></g><path d="M90.378 67.323h-4.914v4.885h4.914v-4.885z" fill="#00c2cb"/><path d="M79.673 70.29h8.073v8.025h-8.073V70.29zm7.722.35h-7.37v7.327h7.37V70.64z" fill="#3f3d56"/><path d="M4.914 27.025H0v4.885h4.914v-4.885z" fill="#ffbd59"/><path d="M10.705 28.944H2.632V20.92h8.073v8.025zm-7.722-.35h7.37v-7.327h-7.37v7.327z" fill="#3f3d56"/><path d="M114.6 115.894h-2.152l-1.023-8.25h3.175v8.25z" fill="#ffb8b8"/><path d="M110.92 115.282h4.15v2.597h-6.76a2.59 2.59 0 01.765-1.836 2.62 2.62 0 011.847-.761z" fill="#2f2e41"/><path d="M125.315 115.894h-2.152l-1.023-8.25h3.175v8.25z" fill="#ffb8b8"/><path d="M121.626 115.282h4.15v2.597h-6.762a2.59 2.59 0 01.765-1.836c.5-.487 1.155-.76 1.848-.76z" fill="#2f2e41"/><path d="M103.817 86.4a1.87 1.87 0 01-.302-.755 1.81 1.81 0 01.048-.8 1.87 1.87 0 01.389-.714 1.88 1.88 0 01.656-.484l7.314-20.04 3.6 1.952-8.35 19.15a1.87 1.87 0 01-.013 1.339 1.89 1.89 0 01-.904.992c-.413.2-.9.26-1.34.145s-.84-.392-1.097-.775zm20.398 3.767a1.873 1.873 0 01-.604-.547 1.87 1.87 0 01.097-2.282l-2.266-21.197 4.095.186.942 20.85a1.9 1.9 0 01.58 1.21c.04.46-.096.917-.375 1.286a1.89 1.89 0 01-1.14.714 1.91 1.91 0 01-1.33-.218zm-6.535-30.28c2.38 0 4.3-1.918 4.3-4.285s-1.93-4.285-4.3-4.285a4.29 4.29 0 00-4.3 4.285c0 2.367 1.93 4.285 4.3 4.285z" fill="#ffb8b8"/><g fill="#ccc"><path d="M124.187 85.336h-12.994l.016-.1c.023-.15 2.315-15.08.625-19.964a2.05 2.05 0 01.041-1.475 2.07 2.07 0 011.024-1.069c2.417-1.13 7.056-2.524 10.97.857a4.923 4.923 0 011.315 1.846 4.91 4.91 0 01.346 2.235l-1.344 17.67z"/><path d="M113.7 72.362l-5.85-1.18 2.742-6.46c.164-.626.57-1.16 1.132-1.5a2.47 2.47 0 011.859-.259 2.45 2.45 0 011.5 1.122 2.43 2.43 0 01.265 1.847l-1.65 6.42zm7.492 2.19l-.352-8.015c-.266-1.507.6-2.93 1.936-3.164s2.638.813 2.905 2.33l1.322 7.5-5.8 1.36z"/></g><path d="M123.755 84.376c2.1 7.916 2.32 17.98 1.755 28.96l-2.808-.35-5.1-20.934-2.808 21.283-3.158-.174c-.944-11.52-1.863-21.408-.35-27.912l12.46-.872zm-3.233-25.472c-.804.85-2.298.394-2.402-.77a1.28 1.28 0 01.001-.27c.054-.515.354-.983.282-1.527a.8.8 0 00-.147-.375c-.64-.853-2.145.382-2.75-.4-.37-.474.065-1.22-.22-1.748-.376-.698-1.488-.354-2.186-.736-.776-.426-.73-1.6-.22-2.33.623-.878 1.716-1.347 2.795-1.414s2.15.222 3.157.613c1.145.443 2.28 1.056 2.984 2.056.856 1.217.94 2.852.5 4.274-.26.865-1.15 1.922-1.806 2.618z" fill="#2f2e41"/><path d="M150.066 118.09H83.204c-.047 0-.09-.02-.124-.05s-.05-.077-.05-.124.02-.1.05-.123.078-.05.124-.05h66.862a.175.175 0 01.176.173c0 .046-.02.09-.052.124s-.077.05-.124.05z" fill="#3f3d56"/></g><defs><path id="B" d="M29.808 38.87a1.11 1.11 0 001.112-1.105 1.11 1.11 0 10-2.223 0 1.11 1.11 0 001.112 1.105z"/><path id="C" d="M59 78.7h-2.026a.544.544 0 00-.386.16.54.54 0 000 .767c.102.102.24.16.386.16H59a.544.544 0 00.386-.16.54.54 0 000-.767.545.545 0 00-.386-.16z"/><path id="D" d="M62.74 77.17h-2.026a.542.542 0 00-.386.16.54.54 0 000 .767c.102.102.24.16.386.16h2.026a.544.544 0 00.386-.16.54.54 0 000-.767.545.545 0 00-.386-.16z"/><clipPath id="A"><path fill="#fff" transform="translate(0 .508)" d="M0 0h150.242v117.58H0z"/></clipPath></defs></svg>