<svg width="560" height="431" viewBox="0 0 560 431" fill="none" xmlns="http://www.w3.org/2000/svg">
<g clip-path="url(#clip0)">
<path opacity="0.1" d="M524.714 243.983C504.08 275.019 509.302 318.158 519.692 352.327C523.19 363.765 527.143 375.853 524.794 388.496C521.92 403.956 510.207 415.864 498.198 422.53C476.315 434.688 450.914 433.688 432.069 419.937C415.783 408.049 404.714 387.766 388.093 376.463C360.313 357.614 323.219 367.698 291.186 383.898C268.523 395.346 243.642 409.948 222.164 400.788C207.052 394.342 197.257 376.983 192.39 358.239C190.041 349.189 188.502 339.33 183.495 332.349C180.496 328.202 176.498 325.354 172.356 323.04C134.521 301.683 84.6035 317.468 47.9985 293.453C23.2969 277.263 8.59993 244.712 3.11291 210.158C-2.3741 175.604 0.329431 138.851 3.99743 102.683C6.60102 76.9835 10.334 49.4901 24.6712 28.8875C39.8379 7.09564 64.4395 -2.18377 86.1377 0.429658C107.836 3.04308 126.915 15.9853 143.521 31.6108C164.275 51.0991 183.185 75.8142 209.535 82.5801C227.481 87.2023 246.82 82.8649 265.68 80.5813C297.213 76.8086 328.461 78.9073 359.499 81.4008C389.218 83.7894 419.126 86.5927 447.036 96.7765C466.785 103.982 482.187 118.334 500.702 127.878C512.77 134.099 526.213 135.188 537.522 143.368C551.454 153.437 563.768 171.696 558.925 194.258C554.323 215.74 535.663 227.493 524.714 243.983Z" fill="#052B5D"/>
<path opacity="0.1" d="M460.594 128.133H440.16V159.064H460.594V128.133Z" fill="#FFBD59"/>
<path opacity="0.1" d="M458.605 131.141H442.144V156.056H458.605V131.141Z" fill="#FFBD59"/>
<path opacity="0.1" d="M430.066 106.646H398.683V137.577H430.066V106.646Z" fill="#FFBD59"/>
<path opacity="0.1" d="M427.012 109.654H401.731V134.569H427.012V109.654Z" fill="#FFBD59"/>
<path opacity="0.1" d="M128.215 60.6235H32.2924V63.177H128.215V60.6235Z" fill="#FFBD59"/>
<path opacity="0.1" d="M128.215 73.1108H32.2924V75.6643H128.215V73.1108Z" fill="#FFBD59"/>
<path d="M203.909 226.179H194.109V335.683H203.909V226.179Z" fill="#D6D6E3"/>
<path d="M490.153 237.677V136.668C490.154 133.852 491.274 131.153 493.265 129.162C495.256 127.172 497.957 126.054 500.772 126.054C503.584 126.059 506.279 127.18 508.266 129.169C510.253 131.159 511.37 133.856 511.371 136.668V258.914C511.371 261.73 510.253 264.431 508.261 266.422C506.27 268.414 503.569 269.532 500.752 269.532H434.983C432.167 269.532 429.466 268.414 427.474 266.422C425.483 264.431 424.364 261.73 424.364 258.914C424.364 256.098 425.483 253.397 427.474 251.405C429.466 249.414 432.167 248.295 434.983 248.295H479.534C482.35 248.295 485.051 247.176 487.043 245.185C489.034 243.194 490.153 240.493 490.153 237.677Z" fill="#AEBEE1"/>
<path d="M490.153 237.677V136.668C490.154 133.852 491.274 131.153 493.265 129.162C495.256 127.172 497.957 126.054 500.772 126.054C503.584 126.059 506.279 127.18 508.266 129.169C510.253 131.159 511.37 133.856 511.371 136.668V258.914C511.371 261.73 510.253 264.431 508.261 266.422C506.27 268.414 503.569 269.532 500.752 269.532H434.983C432.167 269.532 429.466 268.414 427.474 266.422C425.483 264.431 424.364 261.73 424.364 258.914C424.364 256.098 425.483 253.397 427.474 251.405C429.466 249.414 432.167 248.295 434.983 248.295H479.534C482.35 248.295 485.051 247.176 487.043 245.185C489.034 243.194 490.153 240.493 490.153 237.677Z" fill="#535461"/>
<path d="M424.379 258.344C424.525 255.63 425.705 253.076 427.678 251.206C429.651 249.337 432.265 248.295 434.983 248.295H479.534C482.35 248.295 485.051 247.176 487.043 245.185C489.034 243.194 490.153 240.493 490.153 237.677V136.668C490.151 133.938 491.2 131.313 493.083 129.337C494.965 127.361 497.536 126.185 500.263 126.054V258.344H424.379Z" fill="#D6D6E3"/>
<path d="M96.1976 241.084V140.075C96.1976 137.263 95.0822 134.566 93.0961 132.576C91.1101 130.585 88.4154 129.463 85.6034 129.457C82.787 129.457 80.0859 130.576 78.0945 132.567C76.103 134.558 74.9842 137.259 74.9842 140.075V262.322C74.9809 263.718 75.2531 265.102 75.7853 266.393C76.3175 267.684 77.0992 268.858 78.0856 269.846C79.072 270.835 80.2438 271.619 81.5338 272.155C82.8238 272.69 84.2067 272.965 85.6034 272.965H151.368C154.184 272.965 156.885 271.846 158.876 269.855C160.868 267.864 161.987 265.163 161.987 262.347C161.987 259.53 160.868 256.829 158.876 254.838C156.885 252.847 154.184 251.728 151.368 251.728H106.822C105.425 251.729 104.041 251.454 102.751 250.919C101.46 250.384 100.288 249.6 99.3008 248.611C98.3139 247.622 97.5317 246.448 96.9992 245.157C96.4667 243.865 96.1943 242.481 96.1976 241.084Z" fill="#AEBEE1"/>
<path d="M96.1976 241.084V140.075C96.1976 137.263 95.0822 134.566 93.0961 132.576C91.1101 130.585 88.4154 129.463 85.6034 129.457C82.787 129.457 80.0859 130.576 78.0945 132.567C76.103 134.558 74.9842 137.259 74.9842 140.075V262.322C74.9809 263.718 75.2531 265.102 75.7853 266.393C76.3175 267.684 77.0992 268.858 78.0856 269.846C79.072 270.835 80.2438 271.619 81.5338 272.155C82.8238 272.69 84.2067 272.965 85.6034 272.965H151.368C154.184 272.965 156.885 271.846 158.876 269.855C160.868 267.864 161.987 265.163 161.987 262.347C161.987 259.53 160.868 256.829 158.876 254.838C156.885 252.847 154.184 251.728 151.368 251.728H106.822C105.425 251.729 104.041 251.454 102.751 250.919C101.46 250.384 100.288 249.6 99.3008 248.611C98.3139 247.622 97.5317 246.448 96.9992 245.157C96.4667 243.865 96.1943 242.481 96.1976 241.084Z" fill="#535461"/>
<path d="M161.972 261.752C161.826 259.038 160.645 256.484 158.672 254.614C156.7 252.745 154.085 251.703 151.368 251.703H106.822C105.427 251.704 104.045 251.43 102.756 250.896C101.468 250.363 100.296 249.581 99.3097 248.595C98.3231 247.609 97.5404 246.438 97.0064 245.149C96.4724 243.861 96.1976 242.479 96.1976 241.085V140.076C96.1971 137.35 95.1489 134.73 93.2699 132.756C91.3909 130.782 88.825 129.607 86.1031 129.472V261.752H161.972Z" fill="#D6D6E3"/>
<path d="M397.788 226.179H387.989V338.236H397.788V226.179Z" fill="#D6D6E3"/>
<path opacity="0.1" d="M203.909 226.179H194.109V234.274H203.909V226.179Z" fill="black"/>
<path opacity="0.1" d="M397.788 226.179H387.989V234.274H397.788V226.179Z" fill="black"/>
<path opacity="0.1" d="M229.11 159.494C228.954 161.22 228.755 162.968 228.516 164.741H227.131V159.494H229.11Z" fill="black"/>
<path d="M269.263 214.001C269.293 215.775 268.014 217.229 266.43 217.229H236.521V214.111H261.408C262.482 214.111 263.152 212.812 262.612 211.772L240.044 165.875C239.885 165.544 239.637 165.264 239.328 165.065C239.02 164.865 238.662 164.755 238.295 164.746H227.131V159.499H241.229C241.486 159.505 241.736 159.582 241.952 159.722C242.168 159.861 242.341 160.057 242.453 160.288L268.324 210.258C268.92 211.417 269.241 212.698 269.263 214.001Z" fill="#535461"/>
<path d="M214.333 205.676L213.923 206.365L210.091 203.807L221.949 112.627H225.002C225.002 112.627 225.127 113.047 225.332 113.846C227.376 121.726 237.416 166.355 214.333 205.676Z" fill="#535461"/>
<path opacity="0.1" d="M225.327 113.846L214.333 205.676L213.923 206.365L210.091 203.807L221.949 112.627H225.002C225.002 112.627 225.122 113.062 225.327 113.846Z" fill="black"/>
<path d="M217.872 111.684L206.623 205.6L213.817 206.462L225.067 112.545L217.872 111.684Z" fill="#D6D6E3"/>
<path d="M181.966 214.036C181.965 214.262 181.874 214.479 181.714 214.639C181.554 214.799 181.338 214.889 181.111 214.89H179.832C179.605 214.89 179.388 214.8 179.228 214.64C179.068 214.48 178.978 214.263 178.978 214.036C178.973 214.003 178.973 213.969 178.978 213.936C179.003 213.73 179.103 213.54 179.258 213.402C179.414 213.264 179.614 213.187 179.822 213.187H181.101C181.291 213.189 181.475 213.253 181.624 213.371C181.773 213.488 181.88 213.652 181.926 213.836C181.948 213.901 181.961 213.968 181.966 214.036Z" fill="#E3EDF9"/>
<path d="M185.799 214.036C185.797 214.262 185.707 214.479 185.547 214.639C185.387 214.799 185.171 214.889 184.944 214.891H183.665C183.438 214.891 183.221 214.8 183.061 214.64C182.9 214.48 182.81 214.263 182.81 214.036C182.811 213.956 182.823 213.877 182.845 213.801C182.883 213.663 182.957 213.537 183.06 213.436C183.138 213.357 183.232 213.294 183.335 213.251C183.438 213.208 183.548 213.186 183.66 213.187H184.939C185.104 213.186 185.266 213.232 185.405 213.321C185.544 213.41 185.655 213.536 185.724 213.686C185.773 213.796 185.798 213.916 185.799 214.036Z" fill="#E3EDF9"/>
<path d="M189.207 214.036C189.206 214.262 189.115 214.479 188.955 214.639C188.795 214.799 188.579 214.889 188.352 214.89H187.073C186.846 214.89 186.629 214.8 186.469 214.64C186.309 214.48 186.219 214.263 186.219 214.036C186.216 213.913 186.242 213.792 186.294 213.681C186.363 213.534 186.472 213.409 186.609 213.32C186.746 213.232 186.905 213.184 187.068 213.181H188.347C188.46 213.181 188.571 213.202 188.675 213.245C188.779 213.288 188.874 213.351 188.953 213.43C189.033 213.51 189.096 213.604 189.138 213.708C189.181 213.812 189.203 213.924 189.202 214.036H189.207Z" fill="#E3EDF9"/>
<path d="M193.045 214.036C193.044 214.262 192.953 214.479 192.793 214.639C192.633 214.799 192.417 214.889 192.19 214.891H190.911C190.755 214.89 190.602 214.847 190.468 214.766C190.335 214.685 190.226 214.569 190.154 214.431C190.082 214.292 190.049 214.136 190.059 213.98C190.069 213.824 190.122 213.674 190.211 213.546L190.311 213.436C190.39 213.357 190.483 213.294 190.586 213.251C190.689 213.208 190.799 213.186 190.911 213.187H192.19C192.307 213.188 192.422 213.213 192.528 213.26C192.635 213.308 192.731 213.376 192.81 213.461C192.96 213.615 193.044 213.821 193.045 214.036Z" fill="#E3EDF9"/>
<path opacity="0.1" d="M181.941 213.831C181.958 213.898 181.967 213.967 181.966 214.036C181.965 214.262 181.874 214.479 181.714 214.639C181.554 214.799 181.338 214.889 181.111 214.89H179.832C179.605 214.89 179.388 214.8 179.228 214.64C179.068 214.48 178.978 214.263 178.978 214.036C178.973 214.003 178.973 213.969 178.978 213.936L181.941 213.831Z" fill="black"/>
<path opacity="0.1" d="M185.729 213.696C185.774 213.802 185.798 213.916 185.799 214.031C185.797 214.257 185.707 214.474 185.547 214.634C185.387 214.794 185.171 214.884 184.944 214.885H183.665C183.438 214.885 183.221 214.795 183.061 214.635C182.9 214.475 182.81 214.257 182.81 214.031C182.811 213.951 182.823 213.872 182.845 213.796L185.729 213.696Z" fill="black"/>
<path opacity="0.1" d="M189.082 213.581C189.166 213.716 189.211 213.872 189.212 214.031C189.211 214.257 189.12 214.474 188.96 214.634C188.8 214.794 188.584 214.884 188.357 214.885H187.078C186.851 214.885 186.634 214.795 186.474 214.635C186.314 214.475 186.224 214.257 186.224 214.031C186.221 213.908 186.247 213.787 186.299 213.676L189.082 213.581Z" fill="black"/>
<path opacity="0.1" d="M193.045 214.036C193.044 214.262 192.953 214.479 192.793 214.639C192.633 214.799 192.417 214.889 192.19 214.89H190.911C190.755 214.89 190.602 214.847 190.468 214.766C190.335 214.685 190.226 214.569 190.154 214.43C190.082 214.292 190.049 214.136 190.059 213.98C190.069 213.824 190.122 213.674 190.211 213.546L192.81 213.456C192.961 213.611 193.046 213.819 193.045 214.036Z" fill="black"/>
<path d="M200.711 217.444H175.999V216.32C175.999 215.82 176.193 215.341 176.539 214.982C176.886 214.623 177.359 214.413 177.858 214.396L197.677 213.711C198.071 213.698 198.464 213.764 198.831 213.905C199.199 214.046 199.535 214.26 199.818 214.534C200.102 214.808 200.327 215.135 200.481 215.498C200.636 215.861 200.715 216.25 200.716 216.644L200.711 217.444Z" fill="#D6D6E3"/>
<path d="M322.629 214.001C322.599 215.775 323.879 217.229 325.463 217.229H355.386V214.111H330.47C329.396 214.111 328.726 212.812 329.266 211.772L351.833 165.875C351.993 165.544 352.241 165.264 352.549 165.065C352.858 164.865 353.215 164.755 353.582 164.746H364.751V159.499H350.664C350.411 159.508 350.165 159.586 349.953 159.725C349.741 159.863 349.571 160.056 349.46 160.283L323.589 210.253C322.985 211.412 322.657 212.695 322.629 214.001Z" fill="#535461"/>
<path d="M377.564 205.676L377.974 206.365L381.807 203.807L369.949 112.627H366.895C366.895 112.627 366.77 113.047 366.565 113.846C364.516 121.726 354.457 166.355 377.564 205.676Z" fill="#535461"/>
<path opacity="0.1" d="M366.565 113.846L377.559 205.676L377.969 206.365L381.802 203.807L369.949 112.627H366.895C366.895 112.627 366.77 113.062 366.565 113.846Z" fill="black"/>
<path d="M374.03 111.674L366.835 112.536L378.085 206.453L385.279 205.591L374.03 111.674Z" fill="#D6D6E3"/>
<path d="M409.927 214.036C409.928 214.262 410.018 214.479 410.178 214.639C410.338 214.799 410.555 214.889 410.781 214.89H412.061C412.287 214.89 412.505 214.8 412.665 214.64C412.825 214.48 412.915 214.263 412.915 214.036C412.919 214.003 412.919 213.969 412.915 213.936C412.89 213.73 412.79 213.54 412.634 213.402C412.479 213.264 412.278 213.187 412.071 213.187H410.791C410.601 213.189 410.417 213.253 410.268 213.371C410.119 213.488 410.013 213.652 409.967 213.836C409.945 213.901 409.931 213.968 409.927 214.036Z" fill="#E3EDF9"/>
<path d="M406.094 214.036C406.095 214.262 406.186 214.479 406.346 214.639C406.505 214.799 406.722 214.889 406.948 214.891H408.228C408.34 214.891 408.451 214.868 408.555 214.825C408.658 214.783 408.753 214.72 408.832 214.64C408.911 214.561 408.974 214.467 409.017 214.363C409.06 214.259 409.082 214.148 409.082 214.036C409.082 213.956 409.07 213.877 409.047 213.801C409.009 213.663 408.935 213.537 408.832 213.436C408.754 213.357 408.661 213.294 408.558 213.251C408.455 213.208 408.344 213.186 408.233 213.187H406.928C406.763 213.186 406.602 213.232 406.463 213.321C406.323 213.41 406.213 213.536 406.144 213.686C406.104 213.798 406.087 213.917 406.094 214.036Z" fill="#E3EDF9"/>
<path d="M402.686 214.036C402.687 214.262 402.777 214.479 402.937 214.639C403.097 214.799 403.314 214.889 403.54 214.89H404.82C405.046 214.89 405.263 214.8 405.424 214.64C405.584 214.48 405.674 214.263 405.674 214.036C405.676 213.913 405.651 213.792 405.599 213.681C405.53 213.534 405.42 213.409 405.283 213.32C405.147 213.232 404.987 213.184 404.825 213.181H403.545C403.433 213.181 403.321 213.202 403.217 213.245C403.113 213.288 403.019 213.351 402.939 213.43C402.86 213.51 402.797 213.604 402.754 213.708C402.712 213.812 402.69 213.924 402.691 214.036H402.686Z" fill="#E3EDF9"/>
<path d="M398.848 214.036C398.849 214.262 398.94 214.479 399.1 214.639C399.259 214.799 399.476 214.889 399.702 214.891H400.982C401.138 214.89 401.291 214.847 401.425 214.766C401.558 214.685 401.667 214.569 401.739 214.431C401.811 214.292 401.844 214.136 401.834 213.98C401.824 213.824 401.771 213.674 401.681 213.546L401.581 213.436C401.503 213.357 401.41 213.294 401.307 213.251C401.204 213.208 401.093 213.186 400.982 213.187H399.702C399.586 213.188 399.471 213.213 399.364 213.26C399.258 213.308 399.162 213.376 399.083 213.461C398.932 213.615 398.848 213.821 398.848 214.036Z" fill="#E3EDF9"/>
<path opacity="0.1" d="M409.952 213.831C409.934 213.898 409.926 213.967 409.927 214.036C409.928 214.262 410.018 214.479 410.178 214.639C410.338 214.799 410.555 214.889 410.781 214.89H412.061C412.287 214.89 412.505 214.8 412.665 214.64C412.825 214.48 412.915 214.263 412.915 214.036C412.919 214.003 412.919 213.969 412.915 213.936L409.952 213.831Z" fill="black"/>
<path opacity="0.1" d="M406.164 213.696C406.119 213.802 406.095 213.916 406.094 214.031C406.095 214.257 406.186 214.474 406.346 214.634C406.506 214.794 406.722 214.884 406.948 214.885H408.228C408.34 214.885 408.451 214.863 408.555 214.82C408.658 214.777 408.753 214.714 408.832 214.635C408.911 214.556 408.974 214.462 409.017 214.358C409.06 214.254 409.082 214.143 409.082 214.031C409.082 213.951 409.07 213.872 409.047 213.796L406.164 213.696Z" fill="black"/>
<path opacity="0.1" d="M402.811 213.581C402.727 213.716 402.682 213.872 402.681 214.031C402.682 214.257 402.772 214.474 402.932 214.634C403.092 214.794 403.309 214.884 403.535 214.885H404.815C405.041 214.885 405.258 214.795 405.419 214.635C405.579 214.475 405.669 214.257 405.669 214.031C405.671 213.908 405.646 213.787 405.594 213.676L402.811 213.581Z" fill="black"/>
<path opacity="0.1" d="M398.848 214.036C398.849 214.262 398.94 214.479 399.1 214.639C399.259 214.799 399.476 214.889 399.702 214.89H400.982C401.138 214.89 401.291 214.847 401.425 214.766C401.558 214.685 401.667 214.569 401.739 214.43C401.811 214.292 401.844 214.136 401.834 213.98C401.824 213.824 401.771 213.674 401.681 213.546L399.083 213.456C398.931 213.611 398.847 213.819 398.848 214.036Z" fill="black"/>
<path d="M391.182 217.444H415.894V216.32C415.894 215.82 415.7 215.341 415.353 214.982C415.006 214.623 414.533 214.413 414.035 214.396L394.215 213.711C393.822 213.698 393.429 213.764 393.061 213.905C392.693 214.046 392.358 214.26 392.074 214.534C391.791 214.808 391.565 215.135 391.411 215.498C391.257 215.861 391.177 216.25 391.177 216.644L391.182 217.444Z" fill="#D6D6E3"/>
<path d="M494.616 230.991C506.144 211.437 501.967 171.996 502.431 171.242C502.846 170.577 501.257 152.003 490.663 147.466C488.749 143.673 486.865 139.401 486.865 139.401C486.679 139.575 486.475 139.728 486.255 139.856C486.172 139.629 486.09 139.399 486.01 139.166C485.875 138.771 485.75 138.366 485.625 137.962C485.922 138.056 486.224 138.133 486.53 138.192C487.338 138.389 488.188 138.313 488.949 137.977C489.208 137.838 489.443 137.657 489.643 137.442C490.478 136.887 490.938 135.888 491.327 134.944L494.411 127.558C495.8 124.225 497.199 120.872 497.939 117.339C499.039 112.023 498.613 106.503 496.709 101.419C495.98 99.4799 494.97 97.5411 493.256 96.3818C489.823 94.0532 485.046 95.6622 481.123 94.298C479.834 93.8483 478.669 93.0888 477.38 92.629C474.596 91.6296 471.453 92.1643 468.775 93.4086C466.096 94.6528 463.927 96.6316 461.584 98.4056C460.429 99.29 458.585 100.204 457.226 101.404C455.907 102.433 454.892 103.677 455.087 105.316C455.307 107.19 457.281 108.315 459.12 108.754C459.425 108.824 459.74 108.879 460.049 108.934C457.867 111.145 456.294 113.884 455.484 116.883C454.674 119.883 454.655 123.041 455.429 126.05C456.202 129.059 457.742 131.816 459.898 134.053C462.053 136.291 464.752 137.932 467.73 138.816C468.668 140.577 469.48 142.402 470.159 144.278C470.249 144.534 470.337 144.793 470.424 145.052C467.395 145.912 465.027 146.626 464.552 147.021C463.118 148.21 466.121 158.624 466.121 158.624C465.357 159.594 464.577 160.698 463.787 161.882C457.8 170.976 454.009 181.338 452.713 192.149C452.214 196.102 451.564 200.144 450.739 203.987L414.924 196.806L414.849 197.691L413.995 197.481L411.306 196.816L411.201 197.421L410.791 197.226C404.13 194.103 392.906 190.115 385.305 194.228C377.284 198.545 394.595 204.282 405.704 207.335C402.021 207.515 398.498 208.399 395.709 210.468C387.654 216.504 410.436 219.647 421.196 220.762L421.63 220.807V221.037L425.358 221.381L426.233 221.461L426.318 222.79C426.318 222.79 431.655 223.665 438.786 224.724C430.645 226.758 420.586 228.167 413.6 228.992C406.194 229.861 399.887 235.018 397.898 242.209C397.255 244.271 397.193 246.47 397.718 248.565C399.797 255.826 397.259 309.238 396.684 320.741L383.516 328.322C383.516 328.322 363.027 330.82 376.675 335.622C377.904 336.042 379.162 336.376 380.438 336.622C378.639 337.781 378.794 339.295 384.096 341.154C397.753 345.941 429.501 340.944 429.501 340.944C429.501 340.944 428.806 335.318 427.677 330.64L428.027 330.67C428.027 330.67 424.749 318.473 429.721 312.321C434.693 306.17 428.886 259.353 428.886 259.353C428.886 259.353 437.592 255.751 463.612 255.516C484.601 260.903 494.83 241.619 494.686 231.65C494.641 231.425 494.631 231.195 494.616 230.991Z" fill="url(#paint0_linear)"/>
<path d="M417.048 200.689L414.824 209.684C414.824 209.684 412.825 209.234 409.827 208.464C399.672 205.836 378.254 199.525 386.839 194.892C394.24 190.895 405.139 194.783 411.611 197.816C413.98 198.93 415.759 199.929 416.553 200.399C416.888 200.589 417.048 200.689 417.048 200.689Z" fill="#F8B9BF"/>
<path opacity="0.1" d="M416.423 203.227L414.824 209.724C414.824 209.724 412.825 209.274 409.827 208.504L411.631 197.856C413.999 198.97 415.779 199.969 416.573 200.439L416.423 203.227Z" fill="black"/>
<path d="M416.428 210.338L410.222 208.804L412.151 197.431L417.113 198.655L416.428 210.338Z" fill="#D9DFE8"/>
<path opacity="0.1" d="M416.428 210.338L413.75 209.678L414.759 198.075L417.113 198.655L416.428 210.338Z" fill="black"/>
<path d="M476.316 163.232C476.316 163.232 464.397 156.346 459.1 176.099C453.803 195.852 453.303 204.951 453.303 204.951L415.664 197.426L414.469 211.173C414.469 211.173 454.712 224.165 459.775 223.22C464.837 222.276 481.263 194.738 481.263 194.738C481.263 194.738 496.195 173.395 476.316 163.232Z" fill="#FFBD59"/>
<g opacity="0.1">
<path opacity="0.1" d="M417.048 200.689L414.824 209.684C414.824 209.684 412.825 209.234 409.827 208.464C399.672 205.836 378.254 199.525 386.839 194.892C394.24 190.895 405.139 194.783 411.611 197.816C413.98 198.93 415.759 199.929 416.553 200.399C416.888 200.589 417.048 200.689 417.048 200.689Z" fill="black"/>
<path opacity="0.1" d="M416.423 203.227L414.824 209.724C414.824 209.724 412.825 209.274 409.827 208.504L411.631 197.856C413.999 198.97 415.779 199.969 416.573 200.439L416.423 203.227Z" fill="black"/>
<path opacity="0.1" d="M416.428 210.338L410.222 208.804L412.151 197.431L417.113 198.655L416.428 210.338Z" fill="black"/>
<path opacity="0.1" d="M416.428 210.338L413.75 209.679L414.759 198.076L417.113 198.655L416.428 210.338Z" fill="black"/>
<path opacity="0.1" d="M476.316 163.731C476.316 163.731 464.397 156.845 459.1 176.599C453.803 196.352 453.303 205.451 453.303 205.451L415.664 197.926L414.469 211.672C414.469 211.672 454.712 224.665 459.775 223.72C464.837 222.776 481.263 195.237 481.263 195.237C481.263 195.237 496.195 173.895 476.316 163.731Z" fill="black"/>
</g>
<path d="M400.507 316.289L385.14 325.139C385.14 325.139 365.231 327.577 378.494 332.225C391.757 336.872 422.59 332.02 422.59 332.02C422.59 332.02 420.876 318.168 418.487 316.234C416.098 314.3 400.507 316.289 400.507 316.289Z" fill="#68739D"/>
<path d="M460.399 216.999C460.399 216.999 452.753 220.997 439.171 224.45C431.21 226.448 421.246 227.868 414.359 228.677C410.834 229.061 407.503 230.483 404.787 232.763C402.072 235.043 400.095 238.079 399.108 241.484C398.479 243.494 398.418 245.639 398.933 247.681C401.197 255.591 397.818 319.892 397.818 319.892L421.156 322.051C421.156 322.051 417.972 310.203 422.805 304.231C427.637 298.26 421.995 252.807 421.995 252.807C421.995 252.807 430.451 249.31 455.717 249.08C479.124 255.076 488.769 229.457 485.156 222.276C481.543 215.095 460.399 216.999 460.399 216.999Z" fill="#6394E2"/>
<g opacity="0.1">
<path opacity="0.1" d="M400.507 316.289L385.14 325.139C385.14 325.139 365.231 327.577 378.494 332.224C391.757 336.872 422.59 332.02 422.59 332.02C422.59 332.02 420.876 318.168 418.487 316.234C416.098 314.3 400.507 316.289 400.507 316.289Z" fill="black"/>
<path opacity="0.1" d="M460.399 216.999C460.399 216.999 452.753 220.997 439.171 224.45C431.21 226.448 421.246 227.868 414.359 228.677C410.834 229.061 407.503 230.483 404.787 232.763C402.072 235.043 400.095 238.079 399.108 241.484C398.479 243.494 398.418 245.639 398.933 247.681C401.197 255.591 397.818 319.892 397.818 319.892L421.156 322.051C421.156 322.051 417.972 310.203 422.805 304.231C427.637 298.26 421.995 252.807 421.995 252.807C421.995 252.807 430.451 249.31 455.717 249.08C479.124 255.076 488.769 229.457 485.156 222.276C481.543 215.095 460.399 216.999 460.399 216.999Z" fill="black"/>
</g>
<path d="M407.713 321.661L392.346 330.511C392.346 330.511 372.447 332.929 385.7 337.596C398.953 342.263 429.796 337.391 429.796 337.391C429.796 337.391 428.082 323.54 425.693 321.606C423.304 319.672 407.713 321.661 407.713 321.661Z" fill="#68739D"/>
<path d="M462.898 254.451C437.632 254.681 429.176 258.179 429.176 258.179C429.176 258.179 434.818 303.652 429.986 309.603C425.153 315.555 428.337 327.422 428.337 327.422L404.999 325.264C404.999 325.264 405.039 324.504 405.104 323.145C405.664 311.972 408.128 260.103 406.104 253.052C405.593 251.017 405.654 248.879 406.279 246.876C407.261 243.466 409.235 240.425 411.95 238.139C414.665 235.853 417.998 234.426 421.525 234.039C428.407 233.234 438.371 231.835 446.332 229.811L446.722 229.711C460.064 226.283 467.56 222.361 467.56 222.361C467.56 222.361 488.704 220.462 492.317 227.643C492.826 228.781 493.079 230.018 493.056 231.265C493.236 240.955 483.292 259.683 462.898 254.451Z" fill="#6394E2"/>
<path d="M427.702 211.897L426.848 221.142C426.848 221.142 424.794 220.997 421.74 220.677C411.311 219.593 389.188 216.544 397.009 210.683C403.735 205.646 415.089 207.845 421.94 209.883C424.439 210.633 426.358 211.358 427.212 211.702C427.527 211.822 427.702 211.897 427.702 211.897Z" fill="#F8B9BF"/>
<path d="M489.773 151.459C489.773 151.459 486.645 153.907 482.822 156.596C478.629 157.545 473.762 158.329 470.254 158.839C471.508 154.842 470.754 150.344 469.339 146.402C467.801 142.282 465.69 138.399 463.068 134.869L484.216 128.268C482.557 132.47 483.307 137.262 484.716 141.43C485.96 144.978 487.66 148.349 489.773 151.459Z" fill="#F8B9BF"/>
<path opacity="0.1" d="M427.462 214.501L426.848 221.142C426.848 221.142 424.794 220.997 421.74 220.677L421.94 209.878C424.439 210.628 426.358 211.353 427.212 211.697L427.462 214.501Z" fill="black"/>
<path d="M428.527 221.531L422.16 220.942L422.37 209.409L427.462 209.878L428.527 221.531Z" fill="#D9DFE8"/>
<path opacity="0.1" d="M489.773 151.459C489.773 151.459 486.645 153.907 482.822 156.596C478.629 157.545 473.762 158.33 470.254 158.839C471.508 154.842 470.754 150.344 469.339 146.402C474.507 144.903 481.898 142.964 484.721 141.405C485.962 144.961 487.66 148.341 489.773 151.459Z" fill="black"/>
<path d="M485.545 141.655C485.545 141.655 489.084 149.685 491.312 153.313C493.541 156.94 465.416 160.308 465.416 160.308C465.416 160.308 462.498 150.199 463.892 149.04C465.287 147.881 483.192 144.003 485.545 141.655Z" fill="#D9DFE8"/>
<path opacity="0.1" d="M493.097 231.27C491.913 233.357 490.439 235.265 488.719 236.937C476.296 248.74 455.932 236.437 446.742 229.711C460.084 226.283 467.58 222.361 467.58 222.361C467.58 222.361 488.724 220.462 492.337 227.643C492.854 228.781 493.113 230.02 493.097 231.27Z" fill="black"/>
<path d="M488.799 236.093C474.676 249.504 450.32 231.745 443.753 226.513C442.689 225.664 442.094 225.139 442.094 225.139C444.688 222.711 446.967 217.564 448.771 211.268C450.452 205.244 451.667 199.099 452.404 192.889C453.661 182.388 457.342 172.324 463.158 163.491C463.922 162.342 464.657 161.268 465.422 160.328C470.754 153.547 479.714 149.24 479.714 149.24C498.623 143.713 501.167 171.761 500.662 172.571C500.158 173.38 505.215 220.497 488.799 236.093Z" fill="#FFBD59"/>
<path opacity="0.1" d="M490.628 197.751C490.628 197.751 478.469 227.433 473.607 229.127C470.824 230.091 455.957 228.262 443.753 226.518C442.689 225.669 442.094 225.144 442.094 225.144C444.688 222.716 446.967 217.569 448.771 211.272L464.487 212.022C464.487 212.022 463.612 202.957 465.921 182.63C468.23 162.302 481.028 167.339 481.028 167.339C502.201 174.43 490.628 197.751 490.628 197.751Z" fill="black"/>
<path opacity="0.1" d="M428.527 221.531L425.778 221.276L425.049 209.658L427.462 209.878L428.527 221.531Z" fill="black"/>
<path d="M480.723 166.03C480.723 166.03 467.925 160.998 465.616 181.321C463.308 201.643 464.182 210.713 464.182 210.713L425.838 208.879L426.703 222.651C426.703 222.651 468.435 229.501 473.297 227.812C478.16 226.123 490.318 196.436 490.318 196.436C490.318 196.436 501.877 173.115 480.723 166.03Z" fill="#FFBD59"/>
<path opacity="0.1" d="M481.583 135.938C481.023 132.9 484.196 132.94 485.336 130.082L464.187 136.683C465.655 138.653 466.965 140.737 468.105 142.914C469.202 143.239 470.329 143.457 471.468 143.563C476.511 144.043 478.085 139.081 481.583 135.938Z" fill="black"/>
<path d="M489.337 125.953C490.225 116.345 483.157 107.838 473.549 106.95C463.941 106.062 455.433 113.13 454.545 122.737C453.657 132.345 460.726 140.853 470.333 141.74C479.941 142.628 488.45 135.56 489.337 125.953Z" fill="#F8B9BF"/>
<path opacity="0.1" d="M454.702 108.565C454.917 110.383 456.836 111.493 458.62 111.903C460.404 112.312 462.338 112.332 463.902 113.287C466.401 114.826 467.076 118.244 466.761 121.182C466.586 122.841 466.336 124.875 467.695 125.839C468.122 126.101 468.599 126.271 469.095 126.339C470.512 126.626 471.968 126.677 473.402 126.489C474.242 126.379 475.106 126.189 475.901 126.424C477.21 126.804 477.985 128.183 478.24 129.517C478.494 130.851 478.354 132.24 478.559 133.584C478.845 135.268 479.634 136.825 480.822 138.05C482.01 139.276 483.542 140.113 485.216 140.45C486 140.641 486.826 140.567 487.564 140.24C488.514 139.741 488.999 138.676 489.408 137.682L492.407 130.506C493.756 127.273 495.115 124.01 495.835 120.582C496.904 115.419 496.489 110.059 494.641 105.122C493.931 103.243 492.952 101.359 491.287 100.23C487.954 97.966 483.292 99.53 479.504 98.2308C478.25 97.7961 477.12 97.0565 475.871 96.6118C473.167 95.6473 470.114 96.157 467.51 97.3713C464.907 98.5856 462.803 100.499 460.514 102.243C458.53 103.787 454.328 105.421 454.702 108.565Z" fill="black"/>
<path d="M455.162 108.18C455.377 109.999 457.296 111.108 459.08 111.518C460.864 111.928 462.798 111.948 464.362 112.902C466.861 114.441 467.535 117.859 467.221 120.797C467.046 122.456 466.796 124.49 468.155 125.454C468.582 125.716 469.058 125.886 469.554 125.954C470.972 126.241 472.428 126.292 473.862 126.104C474.701 125.994 475.566 125.804 476.361 126.039C477.67 126.419 478.444 127.798 478.699 129.132C478.954 130.466 478.814 131.855 479.019 133.2C479.305 134.883 480.094 136.44 481.282 137.665C482.47 138.891 484.002 139.728 485.675 140.066C486.46 140.256 487.286 140.183 488.024 139.856C488.974 139.356 489.458 138.292 489.868 137.297L492.867 130.122C494.216 126.889 495.575 123.625 496.295 120.198C497.363 115.035 496.949 109.675 495.1 104.737C494.391 102.858 493.411 100.974 491.747 99.8448C488.414 97.5812 483.752 99.1452 479.964 97.846C478.709 97.4113 477.58 96.6717 476.331 96.227C473.627 95.2626 470.574 95.7723 467.97 96.9865C465.367 98.2008 463.263 100.115 460.974 101.859C458.995 103.403 454.792 105.037 455.162 108.18Z" fill="#B96B6B"/>
<path opacity="0.1" d="M469.634 177.193C469.634 177.193 462.963 203.107 456.321 205.506C449.68 207.905 452.613 208.584 452.613 208.584" fill="black"/>
<path d="M469.949 272.126H462.698V319.782H469.949V272.126Z" fill="#D6D6E3"/>
<path opacity="0.1" d="M469.949 272.126H462.698V275.659H469.949V272.126Z" fill="black"/>
<path d="M448.191 271.876V272.875C448.191 273.183 448.252 273.488 448.369 273.772C448.487 274.057 448.66 274.315 448.877 274.533C449.095 274.75 449.353 274.923 449.638 275.041C449.922 275.158 450.227 275.219 450.535 275.219H482.107C482.415 275.219 482.72 275.158 483.004 275.041C483.289 274.923 483.547 274.75 483.765 274.533C483.982 274.315 484.155 274.057 484.273 273.772C484.39 273.488 484.451 273.183 484.451 272.875V271.876C484.451 271.568 484.39 271.264 484.273 270.979C484.155 270.695 483.982 270.437 483.765 270.219C483.547 270.001 483.289 269.829 483.004 269.711C482.72 269.593 482.415 269.532 482.107 269.532H450.535C450.227 269.532 449.922 269.593 449.638 269.711C449.353 269.829 449.095 270.001 448.877 270.219C448.66 270.437 448.487 270.695 448.369 270.979C448.252 271.264 448.191 271.568 448.191 271.876Z" fill="#D6D6E3"/>
<path opacity="0.1" d="M448.731 270.387H483.916C483.697 270.119 483.421 269.904 483.108 269.756C482.795 269.608 482.453 269.532 482.107 269.532H450.535C450.189 269.533 449.849 269.609 449.537 269.757C449.225 269.905 448.949 270.12 448.731 270.387Z" fill="black"/>
<path d="M493.366 317.189H439.291C437.773 317.189 436.542 318.419 436.542 319.937V320.137C436.542 321.655 437.773 322.885 439.291 322.885H493.366C494.884 322.885 496.115 321.655 496.115 320.137V319.937C496.115 318.419 494.884 317.189 493.366 317.189Z" fill="#D6D6E3"/>
<path d="M492.747 330.141C494.75 330.141 496.375 328.517 496.375 326.513C496.375 324.509 494.75 322.885 492.747 322.885C490.743 322.885 489.119 324.509 489.119 326.513C489.119 328.517 490.743 330.141 492.747 330.141Z" fill="#535461"/>
<path d="M439.905 330.141C441.909 330.141 443.533 328.517 443.533 326.513C443.533 324.509 441.909 322.885 439.905 322.885C437.902 322.885 436.277 324.509 436.277 326.513C436.277 328.517 437.902 330.141 439.905 330.141Z" fill="#535461"/>
<path d="M466.326 330.141C468.33 330.141 469.954 328.517 469.954 326.513C469.954 324.509 468.33 322.885 466.326 322.885C464.322 322.885 462.698 324.509 462.698 326.513C462.698 328.517 464.322 330.141 466.326 330.141Z" fill="#535461"/>
<path d="M511.356 213.591H462.868C460.522 213.591 458.62 215.493 458.62 217.839V218.148C458.62 220.494 460.522 222.396 462.868 222.396H511.356C513.702 222.396 515.604 220.494 515.604 218.148V217.839C515.604 215.493 513.702 213.591 511.356 213.591Z" fill="#D6D6E3"/>
<path opacity="0.1" d="M469.949 317.189C469.949 317.189 467.101 320.002 462.698 317.189H469.949Z" fill="black"/>
<path opacity="0.1" d="M515.604 218.083V218.778C515.604 219.739 515.223 220.66 514.543 221.34C513.864 222.019 512.942 222.401 511.981 222.401H462.243C461.282 222.401 460.361 222.019 459.681 221.34C459.002 220.66 458.62 219.739 458.62 218.778V218.083H515.604Z" fill="black"/>
<path d="M420.796 226.179H410.996V351.033H420.796V226.179Z" fill="#D6D6E3"/>
<path opacity="0.1" d="M420.796 226.179H410.996V234.274H420.796V226.179Z" fill="black"/>
<path d="M123.658 275.534H116.407V323.19H123.658V275.534Z" fill="#D6D6E3"/>
<path opacity="0.1" d="M123.658 275.534H116.407V279.067H123.658V275.534Z" fill="black"/>
<path d="M138.16 275.289V276.288C138.16 276.91 137.913 277.506 137.473 277.946C137.034 278.385 136.438 278.632 135.816 278.632H104.243C103.622 278.632 103.026 278.385 102.586 277.946C102.146 277.506 101.9 276.91 101.9 276.288V275.289C101.905 274.671 102.154 274.08 102.593 273.645C103.032 273.209 103.625 272.965 104.243 272.965H135.816C136.124 272.965 136.429 273.026 136.713 273.144C136.997 273.261 137.256 273.434 137.473 273.652C137.691 273.869 137.864 274.128 137.981 274.412C138.099 274.696 138.16 275.001 138.16 275.309V275.289Z" fill="#D6D6E3"/>
<path opacity="0.1" d="M137.625 273.795H102.434C102.656 273.532 102.933 273.321 103.246 273.178C103.559 273.034 103.899 272.962 104.243 272.965H135.816C136.16 272.962 136.501 273.034 136.813 273.178C137.126 273.321 137.403 273.532 137.625 273.795Z" fill="black"/>
<path d="M147.07 320.597H92.9944C91.4764 320.597 90.2458 321.827 90.2458 323.345V323.545C90.2458 325.063 91.4764 326.293 92.9944 326.293H147.07C148.588 326.293 149.818 325.063 149.818 323.545V323.345C149.818 321.827 148.588 320.597 147.07 320.597Z" fill="#D6D6E3"/>
<path d="M93.614 333.549C95.6177 333.549 97.242 331.925 97.242 329.921C97.242 327.917 95.6177 326.293 93.614 326.293C91.6103 326.293 89.986 327.917 89.986 329.921C89.986 331.925 91.6103 333.549 93.614 333.549Z" fill="#535461"/>
<path d="M146.45 333.549C148.454 333.549 150.078 331.925 150.078 329.921C150.078 327.917 148.454 326.293 146.45 326.293C144.447 326.293 142.822 327.917 142.822 329.921C142.822 331.925 144.447 333.549 146.45 333.549Z" fill="#535461"/>
<path d="M120.03 333.549C122.033 333.549 123.658 331.925 123.658 329.921C123.658 327.917 122.033 326.293 120.03 326.293C118.026 326.293 116.402 327.917 116.402 329.921C116.402 331.925 118.026 333.549 120.03 333.549Z" fill="#535461"/>
<path opacity="0.1" d="M116.407 320.597C116.407 320.597 119.255 323.41 123.658 320.597H116.407Z" fill="black"/>
<path d="M301.391 177.133C301.391 177.133 293.255 162.347 296.229 149.495C297.51 144.112 297.01 138.459 294.804 133.385C293.746 130.985 292.469 128.686 290.992 126.519" stroke="#535461" stroke-width="2" stroke-miterlimit="10"/>
<path d="M292.796 118.404C293.22 120.342 290.947 126.734 290.947 126.734C290.947 126.734 286.204 121.886 285.774 119.948C285.631 119.474 285.586 118.975 285.644 118.483C285.702 117.992 285.861 117.517 286.111 117.09C286.362 116.662 286.697 116.291 287.098 116C287.498 115.708 287.955 115.503 288.438 115.396C288.922 115.289 289.422 115.284 289.908 115.379C290.394 115.475 290.855 115.671 291.262 115.953C291.668 116.235 292.013 116.599 292.272 117.021C292.532 117.442 292.702 117.913 292.771 118.404H292.796Z" fill="#FFBD59"/>
<path d="M300.956 127.863C300.261 129.722 294.879 133.859 294.879 133.859C294.879 133.859 293.53 127.213 294.23 125.364C294.38 124.904 294.621 124.479 294.939 124.114C295.258 123.749 295.647 123.453 296.082 123.242C296.518 123.031 296.992 122.911 297.476 122.888C297.96 122.865 298.443 122.94 298.897 123.108C299.351 123.277 299.766 123.535 300.117 123.868C300.469 124.201 300.749 124.602 300.942 125.046C301.135 125.49 301.236 125.968 301.239 126.452C301.243 126.936 301.148 127.416 300.961 127.863H300.956Z" fill="#FFBD59"/>
<path d="M304.734 146.262C303.195 147.516 296.464 148.361 296.464 148.361C296.464 148.361 298.657 141.944 300.196 140.69C300.562 140.387 300.983 140.16 301.437 140.021C301.891 139.882 302.367 139.834 302.84 139.881C303.312 139.927 303.77 140.066 304.188 140.291C304.606 140.515 304.976 140.82 305.275 141.188C305.575 141.556 305.799 141.979 305.934 142.434C306.069 142.889 306.112 143.366 306.062 143.838C306.012 144.309 305.869 144.766 305.641 145.182C305.413 145.599 305.104 145.965 304.734 146.262Z" fill="#FFBD59"/>
<path d="M304.459 160.823C303.155 162.322 296.663 164.291 296.663 164.291C296.663 164.291 297.738 157.595 299.042 156.101C299.347 155.729 299.724 155.422 300.15 155.198C300.576 154.975 301.042 154.839 301.522 154.799C302.001 154.759 302.484 154.816 302.941 154.966C303.398 155.116 303.82 155.356 304.183 155.672C304.545 155.988 304.84 156.374 305.051 156.807C305.261 157.239 305.383 157.71 305.408 158.19C305.434 158.67 305.362 159.151 305.198 159.603C305.034 160.056 304.781 160.47 304.454 160.823H304.459Z" fill="#FFBD59"/>
<path d="M287.593 135.843C289.282 136.887 296.064 136.842 296.064 136.842C296.064 136.842 293.065 130.761 291.376 129.717C290.975 129.453 290.525 129.272 290.053 129.185C289.581 129.098 289.096 129.107 288.628 129.21C288.159 129.314 287.716 129.51 287.324 129.788C286.933 130.065 286.601 130.419 286.348 130.827C286.095 131.235 285.927 131.689 285.852 132.164C285.778 132.638 285.8 133.122 285.916 133.588C286.032 134.054 286.24 134.491 286.528 134.875C286.816 135.259 287.179 135.581 287.593 135.823V135.843Z" fill="#FFBD59"/>
<path d="M287.493 152.883C289.417 153.383 295.879 151.324 295.879 151.324C295.879 151.324 291.196 146.417 289.272 145.927C288.365 145.734 287.418 145.899 286.63 146.388C285.842 146.878 285.274 147.652 285.044 148.551C284.814 149.45 284.941 150.402 285.397 151.21C285.854 152.017 286.605 152.617 287.493 152.883Z" fill="#FFBD59"/>
<path d="M289.657 169.453C291.466 170.262 298.188 169.333 298.188 169.333C298.188 169.333 294.4 163.706 292.591 162.897C291.721 162.508 290.732 162.48 289.841 162.82C288.951 163.161 288.232 163.84 287.843 164.711C287.454 165.581 287.427 166.57 287.767 167.46C288.107 168.35 288.787 169.069 289.657 169.458V169.453Z" fill="#FFBD59"/>
<path d="M292.796 118.404C293.22 120.342 290.947 126.734 290.947 126.734C290.947 126.734 286.204 121.886 285.774 119.948C285.631 119.474 285.586 118.975 285.644 118.483C285.702 117.992 285.861 117.517 286.111 117.09C286.362 116.662 286.697 116.291 287.098 116C287.498 115.708 287.955 115.503 288.438 115.396C288.922 115.289 289.422 115.284 289.908 115.379C290.394 115.475 290.855 115.671 291.262 115.953C291.668 116.235 292.013 116.599 292.272 117.021C292.532 117.442 292.702 117.913 292.771 118.404H292.796Z" fill="#FFBD59"/>
<path d="M300.956 127.863C300.261 129.722 294.879 133.859 294.879 133.859C294.879 133.859 293.53 127.213 294.23 125.364C294.38 124.904 294.621 124.479 294.939 124.114C295.258 123.749 295.647 123.453 296.082 123.242C296.518 123.031 296.992 122.911 297.476 122.888C297.96 122.865 298.443 122.94 298.897 123.108C299.351 123.277 299.766 123.535 300.117 123.868C300.469 124.201 300.749 124.602 300.942 125.046C301.135 125.49 301.236 125.968 301.239 126.452C301.243 126.936 301.148 127.416 300.961 127.863H300.956Z" fill="#FFBD59"/>
<path d="M304.734 146.262C303.195 147.516 296.464 148.361 296.464 148.361C296.464 148.361 298.657 141.944 300.196 140.69C300.562 140.387 300.983 140.16 301.437 140.021C301.891 139.882 302.367 139.834 302.84 139.881C303.312 139.927 303.77 140.066 304.188 140.291C304.606 140.515 304.976 140.82 305.275 141.188C305.575 141.556 305.799 141.979 305.934 142.434C306.069 142.889 306.112 143.366 306.062 143.838C306.012 144.309 305.869 144.766 305.641 145.182C305.413 145.599 305.104 145.965 304.734 146.262Z" fill="#FFBD59"/>
<path d="M304.459 160.823C303.155 162.322 296.663 164.291 296.663 164.291C296.663 164.291 297.738 157.595 299.042 156.101C299.347 155.729 299.724 155.422 300.15 155.198C300.576 154.975 301.042 154.839 301.522 154.799C302.001 154.759 302.484 154.816 302.941 154.966C303.398 155.116 303.82 155.356 304.183 155.672C304.545 155.988 304.84 156.374 305.051 156.807C305.261 157.239 305.383 157.71 305.408 158.19C305.434 158.67 305.362 159.151 305.198 159.603C305.034 160.056 304.781 160.47 304.454 160.823H304.459Z" fill="#FFBD59"/>
<path d="M287.593 135.843C289.282 136.887 296.064 136.842 296.064 136.842C296.064 136.842 293.065 130.761 291.376 129.717C290.975 129.453 290.525 129.272 290.053 129.185C289.581 129.098 289.096 129.107 288.628 129.21C288.159 129.314 287.716 129.51 287.324 129.788C286.933 130.065 286.601 130.419 286.348 130.827C286.095 131.235 285.927 131.689 285.852 132.164C285.778 132.638 285.8 133.122 285.916 133.588C286.032 134.054 286.24 134.491 286.528 134.875C286.816 135.259 287.179 135.581 287.593 135.823V135.843Z" fill="#FFBD59"/>
<path d="M287.493 152.883C289.417 153.383 295.879 151.324 295.879 151.324C295.879 151.324 291.196 146.417 289.272 145.927C288.365 145.734 287.418 145.899 286.63 146.388C285.842 146.878 285.274 147.652 285.044 148.551C284.814 149.45 284.941 150.402 285.397 151.21C285.854 152.017 286.605 152.617 287.493 152.883Z" fill="#FFBD59"/>
<path d="M289.657 169.453C291.466 170.262 298.188 169.333 298.188 169.333C298.188 169.333 294.4 163.706 292.591 162.897C291.721 162.508 290.732 162.48 289.841 162.82C288.951 163.161 288.232 163.84 287.843 164.711C287.454 165.581 287.427 166.57 287.767 167.46C288.107 168.35 288.787 169.069 289.657 169.458V169.453Z" fill="#FFBD59"/>
<path d="M298.083 218.143C296.912 218.144 295.754 217.904 294.68 217.439C293.606 216.975 292.638 216.295 291.837 215.442C291.036 214.589 290.418 213.58 290.021 212.479C289.625 211.378 289.459 210.207 289.532 209.039L291.926 171.112H304.239L306.633 209.039C306.707 210.207 306.54 211.378 306.144 212.479C305.748 213.58 305.13 214.589 304.329 215.442C303.527 216.295 302.56 216.975 301.485 217.439C300.411 217.904 299.253 218.144 298.083 218.143Z" fill="#FFBD59"/>
<path opacity="0.1" d="M48.7734 31.6909H41.7772V60.6734H48.7734V31.6909Z" fill="#FFBD59"/>
<path opacity="0.1" d="M57.7685 31.6909H50.7723V60.6734H57.7685V31.6909Z" fill="#FFBD59"/>
<path opacity="0.1" d="M66.7636 31.6909H59.7674V60.6734H66.7636V31.6909Z" fill="#FFBD59"/>
<path opacity="0.1" d="M75.7587 31.6909H68.7626V60.6734H75.7587V31.6909Z" fill="#FFBD59"/>
<path opacity="0.1" d="M93.7489 31.6909H86.7528V60.6734H93.7489V31.6909Z" fill="#FFBD59"/>
<path opacity="0.1" d="M102.744 31.6909H95.7478V60.6734H102.744V31.6909Z" fill="#FFBD59"/>
<path opacity="0.1" d="M48.7734 37.1875H41.7772V38.6866H48.7734V37.1875Z" fill="#FFBD59"/>
<path opacity="0.1" d="M48.7734 55.1768H41.7772V56.6759H48.7734V55.1768Z" fill="#FFBD59"/>
<path opacity="0.1" d="M57.7685 37.1875H50.7723V38.6866H57.7685V37.1875Z" fill="#FFBD59"/>
<path opacity="0.1" d="M57.7685 55.1768H50.7723V56.6759H57.7685V55.1768Z" fill="#FFBD59"/>
<path opacity="0.1" d="M66.7636 37.1875H59.7674V38.6866H66.7636V37.1875Z" fill="#FFBD59"/>
<path opacity="0.1" d="M66.7636 55.1768H59.7674V56.6759H66.7636V55.1768Z" fill="#FFBD59"/>
<path opacity="0.1" d="M75.7587 37.1875H68.7626V38.6866H75.7587V37.1875Z" fill="#FFBD59"/>
<path opacity="0.1" d="M75.7587 55.1768H68.7626V56.6759H75.7587V55.1768Z" fill="#FFBD59"/>
<path opacity="0.1" d="M84.7538 37.1875H77.7577V38.6866H84.7538V37.1875Z" fill="#FFBD59"/>
<path opacity="0.1" d="M84.7538 55.1768H77.7577V56.6759H84.7538V55.1768Z" fill="#FFBD59"/>
<path opacity="0.1" d="M93.7489 37.1875H86.7528V38.6866H93.7489V37.1875Z" fill="#FFBD59"/>
<path opacity="0.1" d="M93.7489 55.1768H86.7528V56.6759H93.7489V55.1768Z" fill="#FFBD59"/>
<path opacity="0.1" d="M102.744 37.1875H95.7478V38.6866H102.744V37.1875Z" fill="#FFBD59"/>
<path opacity="0.1" d="M102.744 55.1768H95.7478V56.6759H102.744V55.1768Z" fill="#FFBD59"/>
<path opacity="0.1" d="M84.7538 31.6909H77.7577V60.6734H84.7538V31.6909Z" fill="#FFBD59"/>
<path opacity="0.1" d="M109.323 31.5578L102.974 34.4966L115.15 60.7978L121.499 57.8589L109.323 31.5578Z" fill="#FFBD59"/>
<path opacity="0.1" d="M111.634 36.5509L105.286 39.4897L105.915 40.8502L112.264 37.9113L111.634 36.5509Z" fill="#FFBD59"/>
<path opacity="0.1" d="M119.188 52.8739L112.839 55.8127L113.469 57.1732L119.818 54.2343L119.188 52.8739Z" fill="#FFBD59"/>
<path d="M194.464 330.536L181.766 322.436C181.701 311.027 181.521 258.064 183.895 250.979C184.507 248.927 184.542 246.747 183.995 244.677C182.346 237.477 176.329 232.1 169.038 230.916C162.162 229.796 152.267 227.963 144.301 225.594C151.403 224.859 156.725 224.225 156.725 224.225L156.865 222.911L161.437 222.691V222.496L161.872 222.471C172.551 221.836 195.229 219.723 187.523 213.396C184.879 211.228 181.431 210.203 177.793 209.858C188.917 207.32 206.303 202.403 198.552 197.781C191.186 193.393 179.907 196.841 173.176 199.645L172.761 199.82L172.686 199.215L169.997 199.755L169.143 199.924L169.103 199.045L131.378 204.872C131.083 200.549 130.569 196.245 129.839 191.974C130.684 186.348 134.612 178.143 133.227 173.74C131.618 168.628 125.012 166.954 122.233 162.337C121.504 161.133 120.779 160.004 120.07 159.014C118.517 156.904 116.731 154.974 114.748 153.263C114.868 150.294 115.532 147.372 116.706 144.643C117.46 142.817 118.341 141.047 119.345 139.346C123.742 138.255 127.557 135.528 130.013 131.721C132.468 127.914 133.378 123.314 132.558 118.858C134.947 119.883 137.85 119.988 139.344 117.989L138.634 117.714C138.704 117.639 138.774 117.564 138.834 117.479C137.38 116.925 135.836 116.295 134.697 115.286C134.408 114.961 134.164 114.6 133.972 114.211C133.282 112.812 133.362 111.133 132.703 109.714C132.392 109.068 131.952 108.493 131.408 108.025C130.251 106.842 128.787 106.004 127.181 105.606C125.377 105.082 123.478 104.817 121.749 104.107C119.392 101.371 116.281 99.3904 112.805 98.4128C109.329 97.4351 105.642 97.5039 102.204 98.6106L101.58 98.8255C102.013 96.734 101.609 94.5558 100.453 92.7596C99.2967 90.9635 97.4817 89.6929 95.3983 89.2214C93.3148 88.7498 91.1296 89.115 89.3127 90.2383C87.4958 91.3616 86.1925 93.1532 85.6833 95.2276C85.8418 93.4065 86.6093 91.6919 87.8622 90.3606C87.7322 90.4705 87.5973 90.5754 87.4724 90.6904C86.692 91.424 86.0639 92.3041 85.6237 93.2805C85.1836 94.2569 84.9401 95.3104 84.9071 96.3809C84.8742 97.4514 85.0524 98.5179 85.4317 99.5195C85.811 100.521 86.3838 101.438 87.1176 102.218L87.2625 102.358C87.8395 103.064 88.5302 103.669 89.3064 104.147C87.878 103.643 86.6184 102.751 85.6687 101.571C84.7189 100.391 84.1166 98.9694 83.9293 97.4663C83.9293 97.6362 83.9293 97.8061 83.9293 97.966C83.9916 99.0398 84.2658 100.091 84.736 101.058C85.2062 102.026 85.8632 102.89 86.6691 103.603C87.475 104.315 88.4139 104.861 89.4317 105.21C90.4495 105.558 91.5261 105.701 92.5996 105.631L92.8244 105.606L92.7045 105.771C90.3805 109.189 89.2789 113.292 89.5783 117.414C89.8776 121.536 91.5603 125.436 94.3536 128.483C94.6853 129.242 95.1264 129.949 95.6629 130.581C95.8514 130.797 96.0534 131.001 96.2676 131.191C97.6362 132.635 99.5078 133.497 101.495 133.599C101.828 133.996 102.183 134.377 102.559 134.744C102.23 136.146 101.799 137.522 101.27 138.861C100.205 141.529 98.8792 144.085 97.312 146.492C86.5179 149.56 85.5684 167.889 85.9582 168.583C86.4229 169.413 84.3491 198.196 92.3447 232.965C92.0149 242.904 97.8117 259.339 118.391 255.006C144.126 256.38 152.567 260.323 152.567 260.323C152.567 260.323 150.123 305.081 153.611 311.597C155.795 315.68 154.246 321.676 152.612 325.908C152.006 326.955 151.523 328.069 151.173 329.226C150.673 330.281 150.308 330.92 150.308 330.92H150.658C149.339 335.503 148.404 341.034 148.404 341.034C148.404 341.034 179.602 347.366 193.325 343.223C198.652 341.614 198.872 340.125 197.143 338.896C198.416 338.708 199.675 338.433 200.911 338.071C214.643 333.929 194.464 330.536 194.464 330.536Z" fill="url(#paint1_linear)"/>
<path d="M126.581 118.059C126.581 121.617 125.526 125.095 123.549 128.053C121.572 131.011 118.763 133.317 115.475 134.679C112.188 136.04 108.571 136.396 105.081 135.702C101.591 135.008 98.3858 133.295 95.8699 130.779C93.3539 128.263 91.6405 125.058 90.9463 121.568C90.2522 118.079 90.6085 114.462 91.9701 111.175C93.3317 107.887 95.6376 105.078 98.596 103.101C101.555 101.125 105.033 100.07 108.591 100.07C110.953 100.07 113.293 100.535 115.475 101.439C117.658 102.343 119.641 103.668 121.312 105.338C122.982 107.009 124.308 108.992 125.212 111.175C126.116 113.357 126.581 115.696 126.581 118.059Z" fill="#FA595F"/>
<path d="M167.104 202.573L168.928 211.677C168.928 211.677 170.957 211.313 173.96 210.678C184.22 208.504 205.898 203.137 197.502 198.13C190.281 193.828 179.222 197.211 172.626 199.959C170.207 200.959 168.388 201.888 167.574 202.323C167.269 202.478 167.104 202.573 167.104 202.573Z" fill="#F8B9BF"/>
<path opacity="0.1" d="M167.619 205.141L168.928 211.677C168.928 211.677 170.957 211.313 173.96 210.678L172.626 199.959C170.207 200.959 168.388 201.888 167.574 202.323L167.619 205.141Z" fill="black"/>
<path d="M167.304 212.242L173.57 210.988L172.151 199.54L167.134 200.544L167.304 212.242Z" fill="#D9DFE8"/>
<path opacity="0.1" d="M167.304 212.242L170.007 211.697L169.513 200.069L167.134 200.544L167.304 212.242Z" fill="black"/>
<path d="M109.545 162.532C109.545 162.532 121.744 156.176 126.176 176.149C130.609 196.122 130.674 205.226 130.674 205.226L168.613 199.365L169.203 213.151C169.203 213.151 128.425 224.36 123.413 223.19C118.401 222.021 103.184 193.783 103.184 193.783C103.184 193.783 89.2414 171.821 109.545 162.532Z" fill="#FFBD59"/>
<g opacity="0.1">
<path opacity="0.1" d="M167.104 202.573L168.928 211.677C168.928 211.677 170.957 211.313 173.96 210.678C184.22 208.504 205.898 203.137 197.502 198.13C190.281 193.828 179.222 197.211 172.626 199.959C170.207 200.959 168.388 201.888 167.574 202.323C167.269 202.478 167.104 202.573 167.104 202.573Z" fill="black"/>
<path opacity="0.1" d="M167.619 205.141L168.928 211.677C168.928 211.677 170.957 211.312 173.96 210.678L172.626 199.959C170.207 200.959 168.388 201.888 167.574 202.323L167.619 205.141Z" fill="black"/>
<path opacity="0.1" d="M167.304 212.242L173.57 210.988L172.151 199.54L167.134 200.544L167.304 212.242Z" fill="black"/>
<path opacity="0.1" d="M167.304 212.242L170.007 211.697L169.513 200.069L167.134 200.544L167.304 212.242Z" fill="black"/>
<path opacity="0.1" d="M110.545 163.531C110.545 163.531 122.743 157.175 127.176 177.148C131.608 197.121 131.673 206.226 131.673 206.226L169.613 200.364L170.202 214.151C170.202 214.151 129.425 225.359 124.412 224.19C119.4 223.02 104.183 194.782 104.183 194.782C104.183 194.782 90.2409 172.821 110.545 163.531Z" fill="black"/>
</g>
<path d="M178.553 318.793L193.515 328.287C193.515 328.287 213.299 331.6 199.841 335.662C186.383 339.725 155.8 333.514 155.8 333.514C155.8 333.514 158.124 319.752 160.598 317.928C163.071 316.104 178.553 318.793 178.553 318.793Z" fill="#F37291"/>
<path d="M123.083 216.949C123.083 216.949 130.544 221.282 143.962 225.329C151.827 227.703 161.722 229.537 168.558 230.651C172.065 231.192 175.332 232.764 177.944 235.166C180.555 237.569 182.394 240.693 183.225 244.143C183.762 246.171 183.729 248.308 183.13 250.319C180.522 258.124 181.051 322.511 181.051 322.511L157.644 323.635C157.644 323.635 161.347 311.937 156.785 305.761C152.222 299.584 159.863 254.427 159.863 254.427C159.863 254.427 151.572 250.559 126.336 249.215C102.684 254.212 94.1837 228.153 98.1116 221.137C102.039 214.121 123.083 216.949 123.083 216.949Z" fill="#96A2D0"/>
<g opacity="0.1">
<path opacity="0.1" d="M178.553 318.793L193.515 328.287C193.515 328.287 213.299 331.6 199.841 335.663C186.383 339.725 155.8 333.514 155.8 333.514C155.8 333.514 158.124 319.752 160.598 317.928C163.071 316.105 178.553 318.793 178.553 318.793Z" fill="black"/>
<path opacity="0.1" d="M123.083 216.949C123.083 216.949 130.544 221.282 143.962 225.329C151.827 227.703 161.722 229.537 168.558 230.651C172.065 231.192 175.332 232.764 177.944 235.166C180.555 237.569 182.394 240.693 183.225 244.143C183.762 246.171 183.729 248.308 183.13 250.319C180.522 258.124 181.051 322.511 181.051 322.511L157.644 323.635C157.644 323.635 161.347 311.937 156.785 305.761C152.222 299.584 159.863 254.427 159.863 254.427C159.863 254.427 151.572 250.559 126.336 249.215C102.684 254.212 94.1837 228.153 98.1116 221.137C102.039 214.121 123.083 216.949 123.083 216.949Z" fill="black"/>
</g>
<path d="M171.097 323.845L186.059 333.339C186.059 333.339 205.843 336.652 192.385 340.715C178.928 344.777 148.344 338.566 148.344 338.566C148.344 338.566 150.668 324.804 153.142 322.98C155.615 321.156 171.097 323.845 171.097 323.845Z" fill="#F37291"/>
<path d="M118.905 254.262C144.142 255.606 152.432 259.474 152.432 259.474C152.432 259.474 150.038 303.357 153.431 309.743C157.054 316.519 150.193 328.682 150.193 328.682L173.6 327.557C173.6 327.557 173.6 326.798 173.6 325.439C173.53 314.255 173.361 262.327 175.684 255.366C176.283 253.355 176.316 251.218 175.779 249.19C174.947 245.74 173.109 242.616 170.497 240.214C167.886 237.812 164.619 236.24 161.112 235.698C154.271 234.589 144.381 232.755 136.516 230.381L136.131 230.261C122.953 226.264 115.642 222.001 115.642 222.001C115.642 222.001 100.056 220.922 96.1526 227.938C95.6529 228.847 93.4991 230.636 93.4091 232.08C92.8245 241.744 98.3265 258.594 118.905 254.262Z" fill="#96A2D0"/>
<path d="M155.97 213.301L156.415 222.576C156.415 222.576 158.474 222.521 161.542 222.336C172.011 221.711 194.249 219.642 186.693 213.441C180.197 208.109 168.753 209.808 161.822 211.542C159.278 212.182 157.324 212.822 156.475 213.126C156.145 213.236 155.97 213.301 155.97 213.301Z" fill="#F8B9BF"/>
<path d="M96.5974 150.184C96.5974 150.184 99.5958 152.768 103.314 155.626C107.461 156.756 112.309 157.76 115.772 158.425C114.698 154.352 115.652 149.93 117.236 146.037C118.955 141.988 121.236 138.201 124.012 134.789L103.174 127.258C104.648 131.531 103.674 136.303 102.089 140.385C100.691 143.876 98.8449 147.17 96.5974 150.184Z" fill="#F8B9BF"/>
<path opacity="0.1" d="M156.095 215.915L156.415 222.576C156.415 222.576 158.474 222.521 161.542 222.336L161.822 211.537C159.278 212.177 157.324 212.817 156.475 213.121L156.095 215.915Z" fill="black"/>
<path d="M154.726 222.891L161.107 222.586L161.407 211.053L156.3 211.298L154.726 222.891Z" fill="#D9DFE8"/>
<path d="M93.8639 234.778C107.357 248.805 132.518 232.135 139.284 227.198C140.384 226.394 140.998 225.899 140.998 225.899C138.5 223.355 134.502 221.002 132.968 214.631C131.504 208.128 130.512 201.528 129.999 194.883C129.584 189.611 135.031 179.572 133.457 174.565C131.883 169.558 125.402 167.914 122.678 163.382C121.964 162.202 121.254 161.093 120.554 160.123C115.527 153.128 106.767 148.416 106.767 148.416C88.102 142.044 86.6378 168.698 87.1026 169.528C87.5673 170.357 85.4335 199.74 93.8639 234.778Z" fill="#FFBD59"/>
<path opacity="0.1" d="M93.724 196.392C93.724 196.392 104.563 226.583 109.345 228.487C112.084 229.577 127.021 228.402 139.284 227.198C140.384 226.394 140.998 225.899 140.998 225.899C138.5 223.355 136.466 218.114 134.937 211.747L119.2 211.802C119.2 211.802 120.474 202.808 119.065 182.375C117.656 161.942 104.648 166.435 104.648 166.435C83.1947 172.586 93.724 196.392 93.724 196.392Z" fill="black"/>
<path opacity="0.1" d="M154.726 222.891L157.479 222.761L158.724 211.183L156.3 211.298L154.726 222.891Z" fill="black"/>
<path d="M105.018 165.135C105.018 165.135 118.011 160.673 119.435 181.076C120.859 201.478 119.585 210.503 119.585 210.503L157.974 210.363L156.5 224.085C156.5 224.085 114.523 229.082 109.725 227.188C104.928 225.294 94.0987 195.097 94.0987 195.097C94.0987 195.097 83.5595 171.287 105.018 165.135Z" fill="#FFBD59"/>
<path opacity="0.1" d="M105.493 135.049C106.187 132.05 102.994 131.955 101.994 129.052L122.843 136.548C121.29 138.451 119.89 140.475 118.655 142.599C117.545 142.876 116.41 143.043 115.267 143.099C110.2 143.349 108.846 138.337 105.493 135.049Z" fill="black"/>
<path d="M116.456 141.348C126.094 140.885 133.531 132.698 133.068 123.061C132.606 113.424 124.417 105.987 114.78 106.45C105.142 106.913 97.7048 115.1 98.1677 124.737C98.6307 134.374 106.819 141.811 116.456 141.348Z" fill="#F8B9BF"/>
<path opacity="0.1" d="M106.592 178.093C106.592 178.093 112.119 204.272 118.645 206.945C125.172 209.619 122.213 210.188 122.213 210.188" fill="black"/>
<path opacity="0.1" d="M129.37 192.879C129.37 192.879 124.752 194.323 119.375 187.422L129.37 192.879Z" fill="black"/>
<path d="M94.5985 107.565C99.0144 107.565 102.594 103.986 102.594 99.5699C102.594 95.1543 99.0144 91.5747 94.5985 91.5747C90.1826 91.5747 86.6028 95.1543 86.6028 99.5699C86.6028 103.986 90.1826 107.565 94.5985 107.565Z" fill="#FA595F"/>
<path d="M88.9815 103.792C87.5916 102.31 86.8181 100.355 86.8181 98.3232C86.8181 96.2915 87.5916 94.336 88.9815 92.854C88.8516 92.9589 88.7217 93.0639 88.6017 93.1788C87.0564 94.6313 86.1513 96.6382 86.0857 98.758C86.0201 100.878 86.7993 102.937 88.2519 104.482C89.7045 106.027 91.7115 106.932 93.8314 106.998C95.9513 107.063 98.0104 106.284 99.5558 104.832C99.6807 104.717 99.7906 104.592 99.9006 104.472C98.335 105.767 96.3348 106.418 94.3066 106.292C92.2785 106.166 90.3744 105.272 88.9815 103.792Z" fill="#FA595F"/>
<path d="M93.549 106.811C91.5198 106.933 89.5201 106.278 87.9569 104.978C86.3936 103.678 85.3841 101.832 85.1336 99.8148C85.1336 99.9797 85.1336 100.145 85.1336 100.315C85.2662 102.431 86.2341 104.408 87.8245 105.811C88.6119 106.506 89.5285 107.038 90.5219 107.379C91.5153 107.719 92.566 107.861 93.614 107.795C94.662 107.729 95.6869 107.458 96.63 106.996C97.5732 106.535 98.4162 105.892 99.1108 105.104C99.8055 104.317 100.338 103.4 100.679 102.407C101.019 101.414 101.161 100.363 101.095 99.3151C101.095 99.1452 101.06 98.9853 101.04 98.8154C101.044 100.851 100.271 102.812 98.8793 104.298C97.4873 105.783 95.5809 106.682 93.549 106.811Z" fill="#FA595F"/>
<path opacity="0.1" d="M122.059 106.521C123.923 107.44 126.056 107.695 128.055 108.275C130.054 108.854 132.093 109.914 132.973 111.802C133.617 113.192 133.542 114.836 134.217 116.21C135.186 118.209 137.425 119.128 139.484 119.913C137.715 122.286 133.917 121.641 131.438 120.027C128.96 118.413 126.826 116.03 123.942 115.405C122.52 115.125 121.045 115.29 119.721 115.88C118.396 116.469 117.285 117.454 116.542 118.698C115.752 120.082 115.472 121.696 115.082 123.236C114.083 127.293 112.084 131.331 108.586 133.634C105.088 135.938 99.8756 135.923 97.1321 132.77C95.533 130.931 94.9983 128.427 94.5235 126.039C94.2532 124.925 94.1239 123.782 94.1387 122.636C94.2986 119.768 96.2076 117.324 98.1365 115.195C100.41 112.697 102.829 110.298 105.248 107.915C107.337 105.856 109.745 102.368 112.893 102.123C116.522 101.833 119.085 105.066 122.059 106.521Z" fill="black"/>
<path d="M121.559 106.021C123.423 106.941 125.557 107.195 127.556 107.775C129.554 108.355 131.593 109.414 132.473 111.303C133.117 112.692 133.043 114.336 133.717 115.71C134.687 117.709 136.925 118.628 138.984 119.413C137.215 121.787 133.417 121.142 130.939 119.528C128.46 117.914 126.326 115.53 123.443 114.906C122.02 114.625 120.546 114.791 119.221 115.38C117.896 115.97 116.786 116.954 116.042 118.199C115.252 119.583 114.972 121.197 114.583 122.736C113.583 126.794 111.584 130.831 108.086 133.135C104.588 135.438 99.3759 135.423 96.6324 132.27C95.0333 130.431 94.4985 127.928 94.0238 125.539C93.7535 124.426 93.6242 123.282 93.639 122.136C93.7989 119.268 95.7079 116.825 97.6368 114.696C99.9106 112.197 102.329 109.799 104.748 107.415C106.837 105.356 109.245 101.869 112.394 101.624C116.022 101.334 118.585 104.567 121.559 106.021Z" fill="#FA595F"/>
<path d="M123.488 216.999H74.9992C72.6532 216.999 70.7515 218.901 70.7515 221.246V221.556C70.7515 223.902 72.6532 225.804 74.9992 225.804H123.488C125.834 225.804 127.735 223.902 127.735 221.556V221.246C127.735 218.901 125.834 216.999 123.488 216.999Z" fill="#D6D6E3"/>
<path opacity="0.1" d="M70.7515 221.496V222.191C70.7515 223.152 71.1332 224.073 71.8126 224.753C72.4921 225.432 73.4136 225.814 74.3745 225.814H124.112C125.073 225.814 125.995 225.432 126.674 224.753C127.354 224.073 127.735 223.152 127.735 222.191V221.496H70.7515Z" fill="black"/>
<path d="M180.901 226.179H171.102V351.018H180.901V226.179Z" fill="#D6D6E3"/>
<path opacity="0.1" d="M180.901 226.179H171.102V234.274H180.901V226.179Z" fill="black"/>
<path d="M425.483 217.229H166.414V233.419H425.483V217.229Z" fill="#D6D6E3"/>
</g>
<defs>
<linearGradient id="paint0_linear" x1="431.812" y1="346.783" x2="454.963" y2="89.5334" gradientUnits="userSpaceOnUse">
<stop stop-color="#808080" stop-opacity="0.25"/>
<stop offset="0.54" stop-color="#808080" stop-opacity="0.12"/>
<stop offset="1" stop-color="#808080" stop-opacity="0.1"/>
</linearGradient>
<linearGradient id="paint1_linear" x1="40206.6" y1="181157" x2="40206.6" y2="50443.9" gradientUnits="userSpaceOnUse">
<stop stop-color="#808080" stop-opacity="0.25"/>
<stop offset="0.54" stop-color="#808080" stop-opacity="0.12"/>
<stop offset="1" stop-color="#808080" stop-opacity="0.1"/>
</linearGradient>
<clipPath id="clip0">
<rect width="560" height="431" fill="white"/>
</clipPath>
</defs>
</svg>
