<svg width="100" height="100" viewBox="0 0 100 100" fill="none" xmlns="http://www.w3.org/2000/svg">
<path d="M57.1602 34.5881C57.9691 34.5881 58.625 33.9322 58.625 33.1232V30.2447C58.625 29.4357 57.9691 28.7799 57.1602 28.7799C56.3512 28.7799 55.6953 29.4357 55.6953 30.2447V33.1232C55.6953 33.9322 56.3512 34.5881 57.1602 34.5881ZM53.5711 44.2979C54.2795 43.9072 54.5373 43.0164 54.1467 42.308C53.7562 41.5996 52.8654 41.3418 52.1568 41.7324C51.6861 41.9918 50.9178 42.2973 49.9531 42.2887C49.0254 42.2789 48.2936 41.9807 47.8432 41.7324C47.135 41.3418 46.2439 41.5996 45.8531 42.308C45.4625 43.0164 45.7201 43.9074 46.4287 44.298C47.4973 44.8873 48.7053 45.2055 49.9225 45.2182C51.4764 45.2344 52.8041 44.7205 53.5711 44.2979ZM42.8395 28.7799C42.0305 28.7799 41.3746 29.4357 41.3746 30.2447V33.1232C41.3746 33.9322 42.0305 34.5881 42.8395 34.5881C43.6484 34.5881 44.3043 33.9322 44.3043 33.1232V30.2447C44.3043 29.4355 43.6484 28.7799 42.8395 28.7799ZM14.6207 91.4133H18.4102L19.8121 93.1182C20.241 93.6395 20.8604 93.9387 21.5115 93.9385C22.1625 93.9385 22.7818 93.6395 23.2105 93.118L24.6123 91.4133H28.4018C29.6522 91.4133 30.6695 90.3182 30.6695 88.9719V81.8133C30.6695 80.467 29.6522 79.3719 28.4018 79.3719H14.6207C13.3701 79.3719 12.3527 80.467 12.3527 81.8133V88.9719C12.3529 90.318 13.3703 91.4133 14.6207 91.4133ZM15.2826 82.3014H27.74V88.4834H24.2531C23.602 88.4834 22.9826 88.7824 22.5537 89.3039L21.5113 90.5717L20.4688 89.3039C20.04 88.7826 19.4207 88.4834 18.7695 88.4834H15.2826V82.3014ZM98.5352 58.9887C99.3441 58.9887 100 58.3328 100 57.5238V7.32422C100 3.28555 96.7145 0 92.6758 0H7.32422C3.28555 0 0 3.28555 0 7.32422V92.6758C0 96.7145 3.28555 100 7.32422 100H92.6758C96.7145 100 100 96.7145 100 92.6758V64.3598C100 63.5508 99.3441 62.8949 98.5352 62.8949C97.7262 62.8949 97.0703 63.5508 97.0703 64.3598V73.31H78.1445V69.0195C78.1445 62.8277 73.7477 57.4033 67.69 56.1217L59.2084 54.3266C58.0871 54.0902 57.2734 53.0863 57.2734 51.9396V50.0732C62.6223 47.3828 66.3053 41.8264 66.3053 35.4191V34.415C69.1492 34.5369 71.6309 32.3574 71.6309 29.4207C71.6309 26.5316 69.1775 24.2734 66.3053 24.4443V13.1836C66.3053 9.14492 63.0197 5.85938 58.9811 5.85938H53.9209C53.1119 5.85938 52.4561 6.51523 52.4561 7.32422C52.4561 8.1332 53.1119 8.78906 53.9209 8.78906H58.9811C61.4043 8.78906 63.3756 10.7604 63.3756 13.1836V23.8143C62.2748 23.3203 61.2426 22.6887 60.2936 21.9211C58.9381 20.8248 57.8064 19.498 56.9305 17.9781C56.6092 17.4207 56.0613 17.0408 55.4275 16.9357C54.7951 16.8312 54.1551 17.0131 53.6725 17.4361C52.1147 18.801 50.4127 19.991 48.6133 20.973C44.9934 22.949 40.876 24.1152 36.6242 24.3844V13.1836C36.6242 10.7604 38.5955 8.78906 41.0188 8.78906H47.0852C47.8941 8.78906 48.55 8.1332 48.55 7.32422C48.55 6.51523 47.8941 5.85938 47.0852 5.85938H41.0188C36.9801 5.85938 33.6945 9.14492 33.6945 13.1836V24.4441C30.8131 24.232 28.3689 26.5684 28.3689 29.4383C28.3689 32.2734 30.8254 34.6236 33.6945 34.4148V35.4189C33.6945 41.8264 37.3775 47.3828 42.7268 50.0732V51.9395C42.7268 53.0861 41.9129 54.09 40.7906 54.3268L32.3104 56.1217C26.2525 57.4035 21.8559 62.8277 21.8559 69.0195V73.3102H2.92969V7.32422C2.92969 4.90098 4.90098 2.92969 7.32422 2.92969H92.6758C95.099 2.92969 97.0703 4.90098 97.0703 7.32422V57.5238C97.0703 58.333 97.7262 58.9887 98.5352 58.9887ZM66.3053 27.3738C67.5436 27.215 68.7012 28.1533 68.7012 29.4383C68.7012 30.6893 67.5473 31.6486 66.3053 31.4852V27.3738ZM33.6943 31.4854C32.4469 31.6381 31.2984 30.7109 31.2984 29.4207C31.2984 28.1545 32.4602 27.2215 33.6943 27.374V31.4854ZM36.624 35.4189V27.3221C41.3672 27.0486 45.9695 25.7535 50.0168 23.5443C51.732 22.6082 53.3664 21.5016 54.8869 20.248C55.8635 21.7471 57.0592 23.0732 58.4512 24.199C59.9369 25.4008 61.5895 26.3314 63.3756 26.974V35.4191C63.3756 42.8359 57.3752 48.8701 49.9998 48.8701C42.6244 48.8701 36.624 42.8357 36.624 35.4189ZM45.6562 51.9395V51.2047C47.0402 51.5895 48.4957 51.7994 49.9998 51.7994C51.5041 51.7994 52.9598 51.5895 54.3438 51.2045V51.9393C54.3438 54.148 55.7162 56.116 57.7129 56.9217C55.6906 58.9613 52.932 60.1359 50 60.1359C47.068 60.1359 44.3094 58.9611 42.2871 56.9215C44.2842 56.1158 45.6562 54.148 45.6562 51.9395ZM24.7852 69.0195C24.7852 64.2037 28.2049 59.9848 32.9166 58.9879L39.0684 57.6859C41.6766 61.0717 45.6916 63.0658 50.0002 63.0658C54.3088 63.0658 58.3238 61.0717 60.932 57.6857L67.0836 58.9877C71.7953 59.9846 75.215 64.2037 75.215 69.0193V73.31H24.7852V69.0195ZM97.0703 76.2398V92.6758C97.0703 95.099 95.099 97.0703 92.6758 97.0703H7.32422C4.90098 97.0703 2.92969 95.099 2.92969 92.6758V76.2398H97.0703ZM49.2621 93.0963C49.7437 93.2773 50.2732 93.2744 50.7527 93.0881C52.3059 92.484 55.2313 90.5547 56.6846 88.5027C58.201 86.3617 57.976 83.4496 56.15 81.5789C54.4647 79.8521 51.8877 79.6027 50.0002 80.8854C48.1127 79.6025 45.5355 79.852 43.85 81.5789C42.0238 83.4498 41.799 86.3617 43.3154 88.5029C44.8686 90.6957 47.782 92.5402 49.2621 93.0963ZM45.9465 83.6254C46.6668 82.8873 47.8207 82.7822 48.5752 83.4861C49.3736 84.2309 50.625 84.2311 51.424 83.4867C52.1564 82.8041 53.3111 82.865 54.0533 83.6254C54.8777 84.4701 54.9811 85.8389 54.2938 86.8096C53.3436 88.151 51.2191 89.6482 49.9906 90.2275C48.7508 89.6619 46.7082 88.2248 45.7059 86.8096C45.0188 85.8389 45.1221 84.4699 45.9465 83.6254ZM74.9322 93.6227C75.6188 94.0307 76.4465 94.0459 77.1469 93.665L80.7389 91.7115L84.3309 93.665C85.0318 94.0461 85.8598 94.0303 86.5455 93.6227C87.2352 93.2125 87.6471 92.4875 87.6471 91.683V81.6262C87.6471 80.3832 86.6395 79.3719 85.401 79.3719H76.0768C74.8383 79.3719 73.8307 80.3832 73.8307 81.6262V91.683C73.8307 92.4875 74.2426 93.2127 74.9322 93.6227ZM76.7604 82.3014H84.7174V90.5402L81.8092 88.9586C81.474 88.7762 81.1062 88.6852 80.7387 88.6852C80.3711 88.6852 80.0035 88.7762 79.6686 88.9584L76.7602 90.5402L76.7604 82.3014Z" fill="#1FBEC8"/>
</svg>
