<svg width="128" height="128" viewBox="0 0 128 128" fill="none" xmlns="http://www.w3.org/2000/svg">
<path fill-rule="evenodd" clip-rule="evenodd" d="M48 40C30.328 40 16 54.328 16 72C16 89.672 30.328 104 48 104C65.672 104 80 89.672 80 72C80 54.328 65.672 40 48 40ZM48 96C34.766 96 24 85.234 24 72C24 58.766 34.766 48 48 48C61.234 48 72 58.766 72 72C72 85.234 61.234 96 48 96ZM104 24H88V16C88 11.582 84.418 8 80 8H48C43.582 8 40 11.582 40 16V24H24C10.746 24 0 34.746 0 48V96C0 109.254 10.746 120 24 120H104C117.25 120 128 109.254 128 96V48C128 34.746 117.25 24 104 24ZM120 96C120 104.824 112.82 112 104 112H24C15.176 112 8 104.824 8 96V48C8 39.176 15.176 32 24 32H48V16H80V32H104C112.82 32 120 39.176 120 48V96Z" fill="#0FA6AF"/>
<path d="M48 56C39.168 56 32 63.168 32 72C32 80.832 39.168 88 48 88C56.832 88 64 80.832 64 72C64 63.168 56.832 56 48 56ZM48 80C43.59 80 40 76.41 40 72C40 67.59 43.59 64 48 64C52.41 64 56 67.59 56 72C56 76.41 52.41 80 48 80Z" fill="#0FA6AF"/>
<path fill-rule="evenodd" clip-rule="evenodd" d="M56 24H72V32H56V24Z" fill="#15B2BC"/>
<path d="M96 40C87.168 40 80 47.168 80 56C80 64.832 87.168 72 96 72C104.832 72 112 64.832 112 56C112 47.168 104.832 40 96 40ZM96 64C91.59 64 88 60.41 88 56C88 51.59 91.59 48 96 48C100.41 48 104 51.59 104 56C104 60.41 100.41 64 96 64Z" fill="#0FA6AF"/>
</svg>
