<svg width="107" height="107" viewBox="0 0 107 107" fill="none" xmlns="http://www.w3.org/2000/svg">
<path d="M96.9688 73.5625H10.0312V35.1094H6.6875V81.9219C6.68949 83.6949 7.3947 85.3947 8.64842 86.6485C9.90214 87.9022 11.602 88.6074 13.375 88.6094H42.8209L38.92 100.312H35.1094V103.656H71.8906V100.312H68.0802L64.1791 88.6094H93.625C95.398 88.6074 97.0979 87.9022 98.3516 86.6485C99.6053 85.3947 100.311 83.6949 100.312 81.9219V65.2031H96.9688V73.5625ZM64.5553 100.312H42.4447L46.3456 88.6094H60.6544L64.5553 100.312ZM93.625 85.2656H13.375C12.4885 85.2646 11.6386 84.912 11.0118 84.2851C10.3849 83.6583 10.0323 82.8084 10.0312 81.9219V76.9062H96.9688V81.9219C96.9677 82.8084 96.6151 83.6583 95.9882 84.2851C95.3614 84.912 94.5115 85.2646 93.625 85.2656V85.2656Z" fill="#1FBEC8"/>
<path d="M10.0312 26.75C10.0323 25.8635 10.3849 25.0136 11.0118 24.3868C11.6386 23.7599 12.4885 23.4073 13.375 23.4062H18.3906V70.2188H21.7344V10.0312C21.7354 9.14475 22.0881 8.29487 22.7149 7.66802C23.3417 7.04118 24.1916 6.68855 25.0781 6.6875H35.1094V3.34375H25.0781C23.3051 3.34574 21.6053 4.05095 20.3515 5.30467C19.0978 6.55839 18.3926 8.25823 18.3906 10.0312V20.0625H13.375C11.602 20.0645 9.90214 20.7697 8.64842 22.0234C7.3947 23.2771 6.68949 24.977 6.6875 26.75V31.7656H10.0312V26.75Z" fill="#1FBEC8"/>
<path d="M85.2656 40.125H88.6094V70.2188H85.2656V40.125Z" fill="#1FBEC8"/>
<path d="M75.0672 59.7499C74.8206 59.356 74.4741 59.0344 74.0631 58.8176C73.652 58.6009 73.1909 58.4967 72.7266 58.5156C71.1186 58.5156 69.6754 59.6418 68.5527 60.9275C67.6094 58.8625 66.1055 58.5156 65.2031 58.5156C61.8328 58.5156 59.1882 63.4635 58.6922 64.4554L61.682 65.9523C62.7394 63.8485 64.4506 61.8594 65.2013 61.8546C65.6468 62.1007 66.0345 63.9026 66.0391 65.2031C66.0391 65.5795 66.1662 65.9449 66.3998 66.2401C66.6333 66.5353 66.9597 66.7431 67.326 66.8298C67.6923 66.9164 68.0771 66.877 68.4182 66.7177C68.7593 66.5585 69.0366 66.2888 69.2054 65.9523C70.0204 64.3306 71.224 62.7772 72.0796 62.1505C71.8793 62.9467 71.595 63.7193 71.2313 64.4554C71.1038 64.7103 71.0436 64.9935 71.0564 65.2782C71.0692 65.5629 71.1546 65.8396 71.3044 66.082C71.4542 66.3245 71.6635 66.5246 71.9124 66.6633C72.1613 66.8021 72.4416 66.875 72.7266 66.875H80.25V63.5312H75.189C75.5688 62.2134 75.7071 60.7854 75.0672 59.7499V59.7499Z" fill="#1FBEC8"/>
<path d="M31.7656 65.2031C31.7656 65.5338 31.8637 65.857 32.0474 66.132C32.2311 66.4069 32.4922 66.6212 32.7977 66.7478C33.1032 66.8743 33.4394 66.9074 33.7637 66.8429C34.088 66.7784 34.3859 66.6192 34.6197 66.3854L36.7812 64.2236V65.2031C36.7812 65.5338 36.8793 65.857 37.063 66.132C37.2467 66.4069 37.5078 66.6212 37.8133 66.7478C38.1188 66.8743 38.455 66.9074 38.7793 66.8429C39.1036 66.7784 39.4015 66.6192 39.6353 66.3854L41.7969 64.2236V65.2031C41.7969 65.5136 41.8833 65.818 42.0466 66.0821C42.2098 66.3462 42.4434 66.5596 42.7211 66.6985C42.9988 66.8374 43.3097 66.8961 43.6189 66.8682C43.9281 66.8404 44.2235 66.7269 44.4719 66.5406L51.1594 61.525L49.1531 58.85L45.1406 61.8594V60.1875C45.1406 59.8568 45.0426 59.5336 44.8589 59.2586C44.6752 58.9837 44.4141 58.7694 44.1086 58.6428C43.8031 58.5163 43.4669 58.4832 43.1426 58.5477C42.8182 58.6122 42.5203 58.7714 42.2865 59.0053L40.125 61.167V60.1875C40.125 59.8568 40.027 59.5336 39.8433 59.2586C39.6596 58.9837 39.3984 58.7694 39.0929 58.6428C38.7874 58.5163 38.4513 58.4832 38.1269 58.5477C37.8026 58.6122 37.5047 58.7714 37.2709 59.0053L35.1094 61.167V58.5156H31.7656V65.2031Z" fill="#1FBEC8"/>
<path d="M50.1562 63.5312H53.5V66.875H50.1562V63.5312Z" fill="#1FBEC8"/>
<path d="M46.8125 20.0625C46.8038 20.7305 46.952 21.3912 47.2452 21.9914C47.5384 22.5916 47.9684 23.1146 48.5007 23.5183C48.4187 24.1797 48.4887 24.8511 48.7053 25.4814C48.9219 26.1117 49.2794 26.6842 49.7507 27.1555C50.222 27.6267 50.7946 27.9843 51.4249 28.2009C52.0552 28.4175 52.7266 28.4874 53.388 28.4054C53.7976 28.9311 54.3218 29.3565 54.9207 29.649C55.5195 29.9416 56.1773 30.0937 56.8437 30.0937C57.5102 30.0937 58.168 29.9416 58.7668 29.649C59.3657 29.3565 59.8899 28.9311 60.2995 28.4054C60.9609 28.4874 61.6323 28.4174 62.2626 28.2008C62.8929 27.9842 63.4655 27.6266 63.9368 27.1553C64.408 26.6841 64.7656 26.1115 64.9822 25.4812C65.1988 24.8509 65.2688 24.1795 65.1868 23.5181C65.7125 23.1084 66.1378 22.5842 66.4304 21.9853C66.7229 21.3865 66.875 20.7288 66.875 20.0623C66.875 19.3958 66.7229 18.7381 66.4304 18.1393C66.1378 17.5404 65.7125 17.0162 65.1868 16.6065C65.2688 15.9451 65.1988 15.2737 64.9822 14.6434C64.7656 14.0131 64.408 13.4406 63.9368 12.9693C63.4655 12.498 62.8929 12.1405 62.2626 11.9238C61.6323 11.7072 60.9609 11.6372 60.2995 11.7192C59.8898 11.1935 59.3656 10.7682 58.7668 10.4757C58.1679 10.1831 57.5102 10.0311 56.8437 10.0311C56.1773 10.0311 55.5196 10.1831 54.9207 10.4757C54.3219 10.7682 53.7977 11.1935 53.388 11.7192C52.7266 11.6372 52.0552 11.7072 51.4249 11.9238C50.7946 12.1405 50.222 12.498 49.7507 12.9693C49.2795 13.4406 48.9219 14.0131 48.7053 14.6434C48.4887 15.2737 48.4187 15.9451 48.5007 16.6065C47.9684 17.0102 47.5384 17.5333 47.2451 18.1335C46.9519 18.7338 46.8037 19.3945 46.8125 20.0625V20.0625ZM50.932 19.092C51.193 19.033 51.436 18.9122 51.6407 18.7397C51.8453 18.5673 52.0055 18.3482 52.1079 18.101C52.2103 17.8537 52.2518 17.5855 52.229 17.3189C52.2063 17.0523 52.1198 16.795 51.9769 16.5687C51.8563 16.3778 51.8041 16.1516 51.8291 15.9271C51.8541 15.7027 51.9547 15.4934 52.1143 15.3337C52.274 15.174 52.4832 15.0733 52.7077 15.0483C52.9321 15.0232 53.1584 15.0753 53.3493 15.1959C53.5756 15.3388 53.8329 15.4253 54.0995 15.4481C54.3662 15.4709 54.6344 15.4294 54.8817 15.327C55.129 15.2246 55.348 15.0644 55.5205 14.8597C55.693 14.6551 55.8138 14.412 55.8728 14.151C55.9226 13.9307 56.0457 13.734 56.2221 13.593C56.3985 13.452 56.6175 13.3752 56.8433 13.3752C57.0691 13.3752 57.2882 13.452 57.4646 13.593C57.6409 13.734 57.7641 13.9307 57.8139 14.151C57.8729 14.412 57.9937 14.6551 58.1661 14.8597C58.3386 15.0644 58.5577 15.2246 58.805 15.327C59.0522 15.4294 59.3205 15.4709 59.5871 15.4481C59.8538 15.4253 60.1111 15.3388 60.3373 15.1959C60.5283 15.0753 60.7545 15.0232 60.979 15.0482C61.2034 15.0732 61.4127 15.1738 61.5724 15.3335C61.7321 15.4932 61.8327 15.7024 61.8577 15.9269C61.8827 16.1513 61.8306 16.3776 61.71 16.5685C61.567 16.7948 61.4805 17.0521 61.4577 17.3187C61.4349 17.5854 61.4764 17.8536 61.5788 18.1009C61.6812 18.3482 61.8415 18.5672 62.0461 18.7397C62.2508 18.9122 62.4938 19.033 62.7549 19.092C62.9751 19.1417 63.1719 19.2649 63.3129 19.4413C63.4538 19.6177 63.5306 19.8367 63.5306 20.0625C63.5306 20.2883 63.4538 20.5074 63.3129 20.6837C63.1719 20.8601 62.9751 20.9833 62.7549 21.033C62.4938 21.0921 62.2508 21.2129 62.0461 21.3853C61.8415 21.5578 61.6812 21.7769 61.5788 22.0241C61.4764 22.2714 61.4349 22.5397 61.4577 22.8063C61.4805 23.073 61.567 23.3302 61.71 23.5565C61.8306 23.7474 61.8827 23.9737 61.8577 24.1982C61.8327 24.4226 61.7321 24.6319 61.5724 24.7916C61.4127 24.9512 61.2034 25.0519 60.979 25.0769C60.7545 25.1019 60.5283 25.0498 60.3373 24.9291C60.1111 24.7862 59.8538 24.6997 59.5871 24.6769C59.3205 24.6541 59.0522 24.6956 58.805 24.798C58.5577 24.9004 58.3386 25.0607 58.1661 25.2653C57.9937 25.47 57.8729 25.713 57.8139 25.9741C57.7641 26.1943 57.6409 26.3911 57.4646 26.532C57.2882 26.673 57.0691 26.7498 56.8433 26.7498C56.6175 26.7498 56.3985 26.673 56.2221 26.532C56.0457 26.3911 55.9226 26.1943 55.8728 25.9741C55.8138 25.713 55.693 25.47 55.5205 25.2653C55.348 25.0607 55.129 24.9004 54.8817 24.798C54.6344 24.6956 54.3662 24.6541 54.0995 24.6769C53.8329 24.6997 53.5756 24.7862 53.3493 24.9291C53.1584 25.0497 52.9321 25.1018 52.7077 25.0768C52.4832 25.0517 52.274 24.9511 52.1143 24.7914C51.9547 24.6317 51.8541 24.4224 51.8291 24.1979C51.8041 23.9735 51.8563 23.7472 51.9769 23.5563C52.1198 23.33 52.2063 23.0728 52.229 22.8062C52.2518 22.5395 52.2103 22.2713 52.1079 22.0241C52.0055 21.7768 51.8453 21.5578 51.6407 21.3853C51.436 21.2129 51.193 21.0921 50.932 21.033C50.7118 20.9833 50.515 20.8601 50.374 20.6837C50.233 20.5074 50.1563 20.2883 50.1563 20.0625C50.1563 19.8367 50.233 19.6177 50.374 19.4413C50.515 19.2649 50.7118 19.1417 50.932 19.092V19.092Z" fill="#1FBEC8"/>
<path d="M40.125 33.4375H66.875V36.7812H40.125V33.4375Z" fill="#1FBEC8"/>
<path d="M33.4375 33.4375H36.7812V36.7812H33.4375V33.4375Z" fill="#1FBEC8"/>
<path d="M40.125 40.125H50.1562V43.4688H40.125V40.125Z" fill="#1FBEC8"/>
<path d="M40.125 46.8125H56.8438V50.1562H40.125V46.8125Z" fill="#1FBEC8"/>
<path d="M33.4375 46.8125H36.7812V50.1562H33.4375V46.8125Z" fill="#1FBEC8"/>
<path d="M33.4375 40.125H36.7812V43.4688H33.4375V40.125Z" fill="#1FBEC8"/>
<path d="M53.5 40.125H60.1875V43.4688H53.5V40.125Z" fill="#1FBEC8"/>
<path d="M100.312 20.2654C100.312 19.2333 100.006 18.2244 99.433 17.3662C98.8596 16.508 98.0445 15.8392 97.091 15.4442C96.1374 15.0492 95.0882 14.9459 94.0759 15.1472C93.0636 15.3486 92.1337 15.8456 91.4039 16.5754L88.6094 19.3699V10.0312C88.6074 8.25823 87.9022 6.55839 86.6485 5.30467C85.3947 4.05095 83.6949 3.34574 81.9219 3.34375H41.7969C41.5773 3.34374 41.3599 3.38698 41.1571 3.47099C40.9542 3.55501 40.7699 3.67815 40.6147 3.8334L25.5678 18.8803C25.4125 19.0355 25.2894 19.2198 25.2054 19.4227C25.1214 19.6255 25.0781 19.8429 25.0781 20.0625V70.2188H28.4219V21.7344H36.7812C38.5543 21.7324 40.2541 21.0272 41.5078 19.7735C42.7615 18.5197 43.4668 16.8199 43.4688 15.0469V6.6875H81.9219C82.8084 6.68855 83.6583 7.04118 84.2851 7.66802C84.912 8.29487 85.2646 9.14475 85.2656 10.0312V22.7137L64.0209 43.9584C64.0132 43.9661 64.0067 43.9745 64 43.9824C63.985 43.9979 63.971 44.0142 63.9565 44.0305C63.9273 44.0635 63.8991 44.0972 63.8729 44.1319C63.861 44.1477 63.8493 44.1634 63.8378 44.1797C63.8086 44.2215 63.7816 44.2633 63.7565 44.3074C63.7501 44.3185 63.7432 44.3283 63.7371 44.3402C63.7048 44.3989 63.6761 44.4595 63.651 44.5216L60.3072 52.8791C60.1856 53.1829 60.1559 53.5158 60.2216 53.8364C60.2874 54.1569 60.4458 54.4512 60.6772 54.6826C60.9086 54.914 61.2028 55.0724 61.5234 55.1382C61.844 55.2039 62.1769 55.1742 62.4807 55.0525L70.8386 51.7088C70.9004 51.6838 70.9607 51.6552 71.0192 51.6231C71.0309 51.6168 71.0419 51.6095 71.0532 51.6022C71.0963 51.5773 71.1385 51.5506 71.1797 51.5215C71.1962 51.5101 71.2123 51.4979 71.2284 51.4858C71.2628 51.4597 71.2963 51.4317 71.3291 51.4022C71.3454 51.3876 71.3617 51.3736 71.3774 51.3585C71.3853 51.3508 71.3937 51.3445 71.4014 51.3376L96.8528 25.8867C96.9288 26.1682 96.9678 26.4584 96.9688 26.75V61.8594H100.312V26.75C100.315 25.5293 99.9812 24.3314 99.3476 23.288C99.9776 22.4062 100.315 21.3491 100.312 20.2654V20.2654ZM36.7812 18.3906H30.7863L40.125 9.05195V15.0469C40.1239 15.9334 39.7713 16.7833 39.1445 17.4101C38.5176 18.0369 37.6677 18.3896 36.7812 18.3906ZM95.0939 18.3906C95.4648 18.3906 95.8273 18.5005 96.1356 18.7065C96.444 18.9125 96.6843 19.2053 96.8262 19.5479C96.9681 19.8905 97.0052 20.2674 96.9328 20.6311C96.8604 20.9948 96.6818 21.3289 96.4195 21.591L94.4609 23.5496L91.8098 20.8984L93.7686 18.9396C93.9422 18.765 94.1488 18.6266 94.3763 18.5324C94.6038 18.4381 94.8477 18.39 95.0939 18.3906ZM70.2188 47.7918L67.5674 45.1406L89.4453 23.2629L92.0965 25.9141L70.2188 47.7918ZM65.8138 48.1157L67.2437 49.5456L64.8612 50.499L65.8138 48.1157Z" fill="#1FBEC8"/>
</svg>
