<svg width="32" height="32" viewBox="0 0 32 32" fill="none" xmlns="http://www.w3.org/2000/svg">
<path d="M22 27C22 27.2652 21.8946 27.5196 21.7071 27.7071C21.5196 27.8946 21.2652 28 21 28H5C4.73478 28 4.48043 27.8946 4.29289 27.7071C4.10536 27.5196 4 27.2652 4 27V5C4 4.73478 4.10536 4.48043 4.29289 4.29289C4.48043 4.10536 4.73478 4 5 4H14.76H15V8C15 8.79565 15.3161 9.55871 15.8787 10.1213C16.4413 10.6839 17.2044 11 18 11L20 9H18C17.7348 9 17.4804 8.89464 17.2929 8.70711C17.1054 8.51957 17 8.26522 17 8V5.41L20.29 8.7L21.18 7.81L21.7 7.29L17.59 3.17C17.2182 2.79866 16.777 2.50421 16.2914 2.30346C15.8058 2.1027 15.2854 1.99959 14.76 2H5C4.20435 2 3.44129 2.31607 2.87868 2.87868C2.31607 3.44129 2 4.20435 2 5V27C2 27.7957 2.31607 28.5587 2.87868 29.1213C3.44129 29.6839 4.20435 30 5 30H21C21.7956 30 22.5587 29.6839 23.1213 29.1213C23.6839 28.5587 24 27.7957 24 27V19.42L22 21.42V27Z" fill="#0FA6AF"/>
<path d="M29 7.23998C28.7316 6.91863 28.3959 6.66013 28.0166 6.48276C27.6373 6.30538 27.2237 6.21344 26.805 6.21344C26.3863 6.21344 25.9727 6.30538 25.5934 6.48276C25.2141 6.66013 24.8784 6.91863 24.61 7.23998L22.61 9.23998L14.11 17.7C13.7491 18.0689 13.4366 18.4822 13.18 18.93L10.69 24H7C6.73478 24 6.48043 24.1053 6.29289 24.2929C6.10536 24.4804 6 24.7348 6 25C6 25.2652 6.10536 25.5196 6.29289 25.7071C6.48043 25.8946 6.73478 26 7 26H11C11.2492 25.9966 11.4881 25.9003 11.67 25.73C11.7296 25.7393 11.7904 25.7393 11.85 25.73L17.36 23C17.7758 22.7483 18.1587 22.446 18.5 22.1L19.06 21.55L27 13.62L29 11.62C29.3056 11.3412 29.5518 11.0034 29.7236 10.6271C29.8955 10.2508 29.9895 9.84356 30 9.42998C29.9872 9.0168 29.8922 8.61032 29.7205 8.23429C29.5488 7.85826 29.3039 7.52024 29 7.23998V7.23998ZM16.67 21L16.4 21.19L13.6 22.57L14.93 19.84C15.0666 19.625 15.224 19.4241 15.4 19.24L16.01 19.85L16.93 20.78L16.67 21ZM18.36 19.37L17.58 18.6L16.8 17.81L23.3 11.31L24.86 12.87L18.36 19.37ZM27.55 10.18L26.27 11.5L24.71 9.92998L26 8.65998C26.1975 8.42116 26.4744 8.26142 26.78 8.20998C27.085 8.2631 27.3613 8.42252 27.56 8.65998C27.7955 8.86029 27.9545 9.13585 28.01 9.43998C27.9495 9.7446 27.7873 10.0196 27.55 10.22V10.18Z" fill="#0FA6AF"/>
</svg>
