<svg width="64" height="64" viewBox="0 0 64 64" fill="none" xmlns="http://www.w3.org/2000/svg">
<path d="M43.9281 40.7856V62.915V63.914H42.9291H0.992351H0V62.915V0.998966V0H0.992351H30.9481H31.3649L31.656 0.29109L43.637 12.2721L43.9281 12.5632V12.9799V23.0556L47.3417 17.2471L47.8445 16.3936L54.4536 5.14699C55.4129 3.51954 57.0535 3.09613 58.6413 3.42692H58.6479C59.2169 3.546 59.7792 3.77093 60.2952 4.07525C60.8112 4.37296 61.281 4.75667 61.6581 5.1933H61.6647C62.5313 6.19227 62.9812 7.46909 62.5975 8.79223C63.57 9.5398 64.8336 11.1342 63.2326 13.8532L56.6566 25.0469C56.5177 25.2851 56.2927 25.4439 56.048 25.5034L54.6785 25.8607C54.1493 25.9996 53.6002 25.682 53.4679 25.1462C53.3289 24.6169 53.6465 24.0678 54.1823 23.9355L55.1548 23.6841L61.5191 12.8476C62.141 11.7825 61.9558 11.0812 61.6382 10.6578L55.5915 20.9452L43.9281 40.7922V40.7856ZM32.2117 47.7387L30.9878 53.9508L35.8172 49.8623L32.2117 47.7453V47.7387ZM28.4805 56.3589L30.5247 45.9789H30.5313C30.5512 45.8731 30.5909 45.7672 30.6504 45.668L30.6636 45.6415L41.9301 26.4627V13.9855H30.9481C30.399 13.9855 29.9491 13.5357 29.9491 12.9866V12.9601V2.00455H1.9847V61.9227H41.9301V44.1927L38.4304 50.1468L38.4172 50.1666L38.404 50.1865C38.3444 50.2923 38.265 50.3916 38.1724 50.4776L30.1211 57.2983C29.8962 57.4968 29.5853 57.596 29.2677 57.5365C28.7252 57.4306 28.3746 56.908 28.4805 56.3655V56.3589ZM32.8667 45.8135L37.1801 48.3473L53.3752 20.7864L49.0618 18.2526L32.8733 45.8135H32.8667ZM50.0674 16.5392L54.3808 19.073L60.4474 8.74592L60.4606 8.72607L60.5069 8.64668L60.5135 8.64007C60.9237 7.89911 60.6922 7.10523 60.1629 6.5032C59.9181 6.22535 59.6204 5.98057 59.2896 5.78871C58.9655 5.59686 58.6016 5.45131 58.2378 5.37854C57.4373 5.21315 56.6169 5.39839 56.1737 6.15257L50.0674 16.5458V16.5392ZM21.964 58.9192H34.9837V60.9171H21.964V58.9192ZM5.98718 28.9634H27.422V30.9613H5.98718V28.9634ZM5.98718 24.9675H37.9409V26.9655H5.98718V24.9675ZM5.98718 20.9717H37.9409V22.9696H5.98718V20.9717ZM5.98718 16.9758H37.9409V18.9737H5.98718V16.9758ZM40.521 11.981L31.9471 3.40707V11.981H40.521Z" fill="#0FA6AF"/>
</svg>
