<svg xmlns="http://www.w3.org/2000/svg" viewBox="0 0 750 500"><style>.st0{fill:#f5f5f5}.st1{fill:#e0e0e0}.st2{fill:#fafafa}.st3{fill:#ebebeb}.st6{fill:#fff}.st7{fill:#e9a84e}.st8{fill:#263238}.st9{fill:#eb996e}.st10{fill:#eb7741}.st11{fill:#455a64}.st12{fill:#ffbe9d}</style><g id="Background_Complete"><path class="st0" d="M590.35 394.61c-19.47-16.98-21.3-44.8-17.83-69.25.58-4.08.6-8.45 2.93-11.83 2.34-3.38 7.15-5.35 10.63-3.23 2.89 1.76 3.83 5.44 5.22 8.55 1.84 4.14 4.87 7.72 8.62 10.21 2.46 1.63 5.6 2.81 8.33 1.67 3.74-1.57 4.69-6.41 5.1-10.48l2.31-22.8c.41-4.08.85-8.24 2.53-11.97 1.68-3.73 4.87-7.02 8.86-7.69 3.99-.67 8.55 2.08 8.93 6.16.16 1.7-.36 3.38-.43 5.09-.07 1.7.52 3.66 2.07 4.3 1.57.65 3.33-.33 4.68-1.39 4.65-3.66 8.07-8.65 11.31-13.64 3.24-4.98 6.41-10.1 10.71-14.18 4.3-4.08 9.96-7.06 15.83-6.77 5.87.3 11.7 4.57 12.56 10.46.86 5.9-3.12 11.37-7.27 15.63a91.194 91.194 0 01-20.88 16.01c-1.38.77-2.88 1.61-3.53 3.06-1.18 2.62 1.11 5.6 3.69 6.78 2.93 1.34 6.26 1.38 9.39 2.1 3.14.72 6.43 2.49 7.31 5.62 1.22 4.34-2.73 8.33-6.47 10.82a78.47 78.47 0 01-24.49 10.83c-3.12.77-6.37 1.4-9.02 3.24-2.64 1.85-4.5 5.35-3.35 8.38 1.15 3.03 4.8 4.35 8 4.11 3.2-.24 6.2-1.65 9.31-2.45 5.83-1.51 13.02-.34 16.08 4.88 2.01 3.44 1.74 7.89.14 11.55-1.6 3.66-4.37 6.67-7.26 9.4-10.11 9.56-22.51 16.8-35.99 19.9-13.46 3.12-25.62 3.04-38.02-3.07"/><path class="st1" d="M598.34 379.91c4.95-12 11.46-24.7 18.73-37.75 1.83-3.26 3.64-6.47 5.42-9.64 1.79-3.16 3.56-6.3 5.48-9.25 3.82-5.94 7.94-11.35 12.01-16.37 4.07-5.02 8.12-9.64 11.94-13.93 3.83-4.28 7.47-8.21 10.94-11.64 6.93-6.9 13.16-11.79 17.58-14.98 2.21-1.6 3.96-2.78 5.16-3.57.58-.37 1.03-.67 1.37-.89.31-.2.47-.29.48-.28.01.01-.14.13-.44.34-.33.24-.77.55-1.33.95-1.17.83-2.89 2.05-5.07 3.68-4.36 3.25-10.52 8.19-17.37 15.12-3.44 3.45-7.05 7.39-10.85 11.68-3.79 4.3-7.82 8.93-11.87 13.95-4.05 5.02-8.14 10.42-11.93 16.33-1.91 2.95-3.66 6.05-5.45 9.22l-5.41 9.64c-7.26 13.04-13.78 25.7-18.75 37.65"/><path class="st1" d="M628.18 323.26c-.05 0-.12-.63-.21-1.78s-.17-2.82-.24-4.88c-.14-4.12-.14-9.81-.11-16.09.03-6.28-.05-11.96-.25-16.07-.1-2.05-.19-3.71-.27-4.86-.07-1.15-.09-1.79-.04-1.79.05-.01.17.62.33 1.76.17 1.14.34 2.8.51 4.86.34 4.11.5 9.81.48 16.1-.04 6.2-.08 11.8-.11 16.08v4.87c-.01 1.16-.03 1.8-.09 1.8z"/><path class="st1" d="M681.63 319.11c0 .05-.76.06-2.12.03s-3.32-.07-5.75-.05c-4.85 0-11.56.24-18.95.82-7.39.6-14.05 1.42-18.85 2.16-2.4.35-4.34.69-5.68.91-1.34.23-2.09.33-2.1.28-.01-.05.72-.25 2.04-.57 1.33-.31 3.25-.73 5.66-1.15 4.79-.87 11.47-1.79 18.88-2.39 7.41-.58 14.14-.74 19.01-.6 2.43.05 4.4.18 5.76.3 1.35.12 2.1.21 2.1.26zM599.09 379.01c-.03.01-.12-.22-.29-.68-.19-.54-.42-1.2-.69-1.99-.59-1.73-1.39-4.26-2.32-7.4-1.88-6.27-4.21-15.02-6.64-24.71-2.44-9.69-4.68-18.45-6.42-24.75-.86-3.07-1.57-5.59-2.09-7.46-.22-.81-.41-1.48-.56-2.03-.12-.47-.17-.72-.15-.73.03-.01.12.23.29.68.19.54.41 1.19.69 1.99.59 1.73 1.39 4.26 2.32 7.4 1.88 6.27 4.21 15.02 6.64 24.71 2.44 9.69 4.68 18.45 6.42 24.75.86 3.06 1.57 5.59 2.09 7.46.22.81.41 1.48.56 2.03.12.48.17.73.15.73zM671.12 364.08c0 .03-.24.1-.72.21-.56.12-1.26.28-2.09.46-1.93.4-4.54.95-7.71 1.61-6.51 1.36-15.49 3.35-25.4 5.56-9.92 2.21-18.92 4.11-25.46 5.34-3.27.62-5.92 1.09-7.76 1.37-.85.13-1.55.23-2.12.32-.49.06-.74.09-.75.06 0-.03.24-.1.72-.21.56-.12 1.25-.27 2.09-.46 1.93-.4 4.54-.95 7.71-1.61 6.51-1.36 15.49-3.35 25.41-5.56 9.91-2.21 18.92-4.11 25.46-5.34 3.27-.62 5.92-1.09 7.76-1.37.85-.13 1.55-.23 2.12-.32.48-.07.74-.09.74-.06z"/><g><path class="st2" d="M593.95 122.67h119.74V229.8H593.95z"/><path class="st1" d="M713.69 229.81s-.02-.69-.03-1.99c-.01-1.31-.02-3.24-.03-5.74-.02-5.03-.04-12.38-.07-21.75-.03-18.72-.08-45.47-.14-77.66l.27.27c-34.49.01-75.64.03-119.73.05h-.01l.32-.32c-.01 38.98-.03 75.65-.04 107.13l-.28-.28c35.72.06 65.62.11 86.61.14 10.5.03 18.77.06 24.43.07 2.82.01 4.99.03 6.47.03.72.01 1.28.01 1.67.02.36.01.56.03.56.03s-.18.01-.54.02c-.38 0-.93.01-1.64.02-1.47.01-3.62.02-6.41.03-5.65.02-13.89.04-24.36.07-21.03.03-50.99.08-86.79.14h-.28v-.28c-.01-31.48-.02-68.15-.04-107.13v-.32h.33c44.09.02 85.25.03 119.73.05h.27v.27c-.06 32.26-.11 59.07-.14 77.83-.03 9.34-.05 16.67-.07 21.69-.01 2.48-.02 4.39-.03 5.69-.01 1.27-.03 1.92-.03 1.92z"/><path class="st1" d="M639.86 141.71c0 .18-6.3.32-14.08.32s-14.08-.14-14.08-.32 6.3-.32 14.08-.32 14.08.14 14.08.32zM690.6 149.75c0 .18-17.32.32-38.67.32-21.36 0-38.67-.14-38.67-.32s17.31-.32 38.67-.32c21.36 0 38.67.15 38.67.32zM611.92 163.38h5.05v5.04h-5.05zM624.33 163.38h5.04v5.04h-5.04zM636.98 163.15h5.04v5.04h-5.04zM649.17 163.38h5.04v5.04h-5.04zM661.59 163.38h5.04v5.04h-5.04zM674.01 163.38h5.04v5.04h-5.04z"/><path class="st3" d="M686.42 163.38h5.04v5.04h-5.04zM611.92 174.1h5.05v5.04h-5.05z"/><path class="st1" d="M624.33 174.1h5.04v5.04h-5.04z"/><path class="st3" d="M636.75 174.1h5.05v5.04h-5.05z"/><path class="st1" d="M649.17 174.1h5.04v5.04h-5.04zM661.59 174.1h5.04v5.04h-5.04zM674.24 173.87h5.04v5.05h-5.04zM686.42 174.1h5.04v5.04h-5.04zM611.92 184.83h5.05v5.04h-5.05zM624.56 184.6h5.04v5.04h-5.04zM636.75 184.83h5.05v5.04h-5.05z"/><path class="st3" d="M649.17 184.83h5.04v5.04h-5.04z"/><path class="st1" d="M661.59 184.83h5.04v5.04h-5.04zM674.01 184.83h5.04v5.04h-5.04zM686.42 184.83h5.04v5.04h-5.04zM611.92 195.55h5.05v5.05h-5.05zM624.33 195.55h5.04v5.05h-5.04zM636.75 195.55h5.05v5.05h-5.05zM649.4 195.32h5.04v5.04h-5.04zM661.59 195.55h5.04v5.05h-5.04z"/><path class="st3" d="M674.01 195.55h5.04v5.05h-5.04z"/><path class="st1" d="M686.42 195.55h5.04v5.05h-5.04zM611.92 206.28h5.05v5.04h-5.05z"/><path class="st3" d="M624.33 206.28h5.04v5.04h-5.04z"/><path class="st1" d="M636.75 206.28h5.05v5.04h-5.05zM649.17 206.28h5.04v5.04h-5.04zM661.59 206.28h5.04v5.04h-5.04zM674.24 206.05h5.04v5.04h-5.04z"/><g><path class="st1" d="M686.42 206.28h5.04v5.04h-5.04z"/></g></g><g><path class="st3" d="M80.11 219.28s-11.2 4.54 1.72 28.31 21.74 35.48 21.74 35.48 2.33 5.54-2.36 6.53c-4.69.99-15.09-.39-17.04 5.42-2.02 6.03 2.47 11.56 11.39 16.27 8.93 4.72 28.11 15.77 29.84 16.77 1.7.99 3.44 3.55.36 4.73-3.08 1.19-26.34 4.22-24.24 15.17 2.1 10.95 29.13 20 32.07 21.05 2.94 1.05 3.66 2.26 3.47 3.86-.2 1.6-8.11 1.89-14.69 3.02-6.58 1.13-14.01 3.6-12.27 9.82 1.74 6.21 17.94 18.95 56.56 21.72l17.98.12 9.38-15.43c18.06-34.24 15.83-54.72 11.47-59.49-4.35-4.77-10.38.23-14.82 5.22-4.44 4.98-8.87 11.55-10.33 10.87-1.46-.68-2.11-1.94-1.44-4.99.66-3.05 7.28-30.77-.9-38.35-8.18-7.57-23.06 10.56-25.69 12.54-2.64 1.99-3.89-.84-3.83-2.81.06-2 .83-24.12 1.55-34.2.72-10.07-1.6-16.8-7.78-18.27-5.97-1.42-10.3 8.14-13.62 11.6-3.32 3.45-6.79-1.45-6.79-1.45s-5.27-13.68-18.61-37.21c-13.35-23.53-23.33-16.2-23.33-16.2"/><path class="st1" d="M185.68 411.76c-9.73-17.32-26.51-48.4-41.06-75.01-14.54-26.6-27.73-50.67-37.37-68.04-4.82-8.67-8.73-15.68-11.44-20.56-1.34-2.41-2.39-4.29-3.11-5.59-.34-.63-.61-1.11-.8-1.46-.18-.33-.25-.51-.25-.51s.11.16.3.48c.2.34.48.82.84 1.43.74 1.29 1.82 3.15 3.2 5.54 2.77 4.82 6.74 11.81 11.6 20.47 9.73 17.32 22.98 41.36 37.52 67.96 14.55 26.61 31.27 57.71 40.92 75.08"/><path class="st1" d="M98.65 297.54c.01-.04.46.08 1.26.32.8.23 1.95.61 3.37 1.08 2.83.96 6.71 2.38 10.95 4.02 4.18 1.64 7.97 3.12 10.86 4.25 1.31.5 2.41.93 3.3 1.27.78.3 1.21.48 1.19.51-.01.04-.46-.07-1.26-.31s-1.95-.61-3.36-1.1c-2.82-.98-6.68-2.45-10.92-4.1-4.19-1.61-7.98-3.06-10.89-4.17-1.31-.5-2.42-.91-3.31-1.25-.78-.3-1.2-.48-1.19-.52zM130.78 307.81c-.15-.05 2.43-8.17 5.75-18.13 3.32-9.97 6.14-18 6.28-17.96.15.05-2.43 8.17-5.75 18.13-3.32 9.97-6.13 18.01-6.28 17.96zM151.28 349.67c-.03-.02.22-.42.7-1.13.55-.8 1.24-1.79 2.05-2.97 1.73-2.51 4.1-5.98 6.58-9.91 2.49-3.92 4.62-7.55 6.13-10.19.72-1.24 1.32-2.29 1.8-3.12.43-.74.68-1.13.72-1.12.03.02-.15.45-.53 1.22-.37.77-.93 1.87-1.65 3.21-1.43 2.69-3.51 6.36-6.01 10.3-2.49 3.94-4.92 7.38-6.73 9.84-.91 1.22-1.66 2.2-2.2 2.87-.52.67-.83 1.02-.86 1zM120.17 346.78c0-.04.44-.04 1.23-.01l3.33.18c2.81.17 6.69.45 10.97.8 4.28.34 8.16.68 10.96.96 1.31.14 2.41.26 3.32.35.78.1 1.21.17 1.21.21 0 .04-.44.04-1.23.01l-3.33-.18c-2.81-.17-6.69-.45-10.97-.8-4.28-.34-8.16-.68-10.96-.96-1.31-.14-2.41-.26-3.32-.35-.78-.1-1.21-.17-1.21-.21zM133.57 386.03c0-.04.56-.04 1.57 0 1.11.06 2.55.13 4.27.21 3.6.2 8.58.52 14.07.91s10.47.77 14.06 1.07c1.72.16 3.15.29 4.26.39 1 .1 1.56.18 1.56.22 0 .04-.56.04-1.57 0-1.11-.06-2.55-.13-4.27-.21-3.6-.2-8.58-.52-14.07-.91s-10.46-.77-14.06-1.07c-1.72-.16-3.15-.29-4.26-.39-1.01-.1-1.57-.18-1.56-.22zM172.42 388.5c-.03-.02.27-.54.85-1.45.64-.99 1.47-2.29 2.47-3.86 2.08-3.26 4.93-7.77 7.94-12.83 3.02-5.06 5.63-9.72 7.5-13.1.9-1.62 1.64-2.97 2.21-4.01.53-.94.83-1.46.87-1.44.03.02-.21.57-.68 1.54-.47.98-1.17 2.38-2.06 4.09-1.78 3.43-4.34 8.13-7.36 13.2-3.01 5.08-5.93 9.56-8.09 12.76-1.09 1.6-1.98 2.89-2.62 3.76-.63.89-1 1.36-1.03 1.34z"/></g><g><path transform="matrix(1 -.00536 .00536 1 -.496 .987)" class="st1" d="M179.12 68.92h9.71v48.3h-9.71z"/><path transform="matrix(1 -.00535 .00535 1 -.44 .576)" class="st3" d="M94.97 69.09h25.13v26.66H94.97z"/><path transform="matrix(1 -.00535 .00535 1 -.438 .71)" class="st0" d="M119.99 68.95h25.13v26.66h-25.13z"/><path class="st1" d="M94.94 76.52c16.7.14 33.45.04 50.15-.23.34-.01.34-.53 0-.53-16.7-.09-33.45-.01-50.15.31-.3-.01-.29.44 0 .45z"/><path transform="matrix(1 -.00536 .00536 1 -.568 .548)" class="st3" d="M79.29 95.36h45.67v21.73H79.29z"/><path transform="matrix(1 -.00536 .00536 1 -.566 .792)" class="st0" d="M124.74 95.11h45.67v21.73h-45.67z"/><path class="st1" d="M79.26 101.52c30.34.34 60.78.04 91.11-.45.34-.01.34-.53 0-.53-30.34-.16-60.78-.14-91.11.53-.29 0-.29.45 0 .45zM62.19 117.21h176.92v7.78H62.19z"/><path class="st1" d="M91.15 120.95h7.18v26.56h-7.18zM198.37 120.95h7.18v26.56h-7.18z"/><g><path transform="matrix(1 -.00536 .00536 1 -.448 1.038)" class="st3" d="M188.64 50.91h9.71v66.42h-9.71z"/></g><g><path transform="matrix(1 -.00536 .00536 1 -.48 1.106)" class="st0" d="M198.39 63.29h15.08v53.83h-15.08z"/><path class="st1" d="M213.23 73.62c0 .14-3.38.26-7.54.26-4.17 0-7.54-.12-7.54-.26s3.38-.26 7.54-.26 7.54.11 7.54.26zM213.23 71.36c0 .14-3.38.26-7.54.26-4.17 0-7.54-.12-7.54-.26s3.38-.26 7.54-.26 7.54.11 7.54.26zM213.23 108.98c0 .14-3.38.26-7.54.26-4.17 0-7.54-.12-7.54-.26s3.38-.26 7.54-.26 7.54.11 7.54.26zM213.23 106.72c0 .14-3.38.26-7.54.26-4.17 0-7.54-.12-7.54-.26s3.38-.26 7.54-.26c4.16-.01 7.54.11 7.54.26zM205.93 101.78c-.14 0-.26-5.43-.26-12.13 0-6.7.12-12.13.26-12.13s.26 5.43.26 12.13c0 6.7-.12 12.13-.26 12.13z"/></g><g><path class="st3" d="M213.39 76.47h16.42v40.63h-16.42z"/></g><g><path class="st1" d="M195.96 62.22a2.791 2.791 0 01-5.58 0 2.791 2.791 0 015.58 0z"/></g><g><path class="st1" d="M192.31 69.9h1.72v39.51h-1.72z"/></g></g></g><g id="Speech_Bubble"><ellipse class="st6" cx="586.42" cy="128.35" rx="43.13" ry="42.81"/><path class="st7" d="M584.25 141.68a2.42 2.42 0 01-1.33-2.19l.21-11.97a2.408 2.408 0 013.1-2.26c1.89.57 4.03.28 5.88-.8 1.7-.99 2.89-2.52 3.27-4.21.38-1.68-.03-3.6-1.13-5.25-1.18-1.77-3-3.03-4.88-3.36-3.85-.68-8.21 2.03-9.52 5.92a2.408 2.408 0 01-4.56-1.54c2.07-6.12 8.76-10.21 14.92-9.12 3.19.57 6.13 2.55 8.05 5.43 1.82 2.74 2.48 6.01 1.82 8.97-.67 2.99-2.69 5.65-5.54 7.31-2.06 1.2-4.37 1.79-6.64 1.73l-.16 9.23a2.403 2.403 0 01-2.45 2.36c-.38 0-.73-.09-1.04-.25zM587.47 146.77c.01 1.09-.86 1.97-1.95 1.98-1.09.01-1.97-.86-1.98-1.95-.01-1.09.86-1.97 1.95-1.98 1.08-.01 1.97.87 1.98 1.95z"/><g><path class="st8" d="M543.2 162.07c0 .04.47.04 1.25.31.77.26 1.86.87 2.72 2.05.42.59.78 1.32.93 2.15.14.83.08 1.77-.3 2.64-.71 1.74-2.57 3.33-4.79 3.36-2.22-.01-4.09-1.59-4.81-3.33-.39-.87-.46-1.81-.32-2.64.15-.84.5-1.57.92-2.16.85-1.19 1.94-1.81 2.7-2.07.78-.27 1.25-.27 1.24-.31 0-.01-.12-.02-.34-.01-.11 0-.25.01-.41.05-.16.02-.35.06-.55.13-.81.23-1.96.82-2.89 2.05-.45.61-.85 1.38-1.02 2.27-.16.89-.1 1.9.3 2.84.38.94 1.06 1.83 1.95 2.48a5.4 5.4 0 003.2 1.1c1.19-.02 2.32-.45 3.2-1.12.89-.66 1.56-1.55 1.93-2.49.4-.94.46-1.96.29-2.84-.18-.89-.58-1.65-1.03-2.26-.93-1.22-2.09-1.81-2.9-2.03-.2-.07-.39-.1-.55-.12-.16-.03-.3-.04-.41-.04-.19-.03-.31-.03-.31-.01zM530.52 176.35c0 .04.29.05.78.22.48.17 1.15.56 1.68 1.3.53.72.86 1.87.38 2.96-.44 1.07-1.6 2.05-2.95 2.06-1.36-.01-2.52-.98-2.97-2.05-.49-1.09-.17-2.25.36-2.97.52-.74 1.19-1.13 1.67-1.31.48-.18.78-.19.77-.22 0-.02-.3-.06-.82.08-.51.13-1.25.51-1.85 1.29-.29.39-.55.88-.66 1.45-.11.57-.07 1.22.19 1.83.48 1.2 1.75 2.29 3.31 2.3 1.56-.03 2.82-1.12 3.29-2.33.25-.61.29-1.26.18-1.83-.12-.57-.37-1.06-.67-1.44-.6-.78-1.34-1.14-1.86-1.28-.53-.12-.83-.07-.83-.06zM543.73 134.37s-.01-.24-.04-.7c-.04-.47-.09-1.15-.16-2.04-.04-.45-.08-.95-.13-1.5-.02-.55.01-1.16.01-1.82l.03-2.12c-.01-.38.03-.77.08-1.17.05-.4.09-.81.14-1.24.28-3.4 1.27-7.51 3.11-11.99 1.87-4.46 4.8-9.25 9.1-13.58.54-.54 1.09-1.08 1.64-1.63.59-.51 1.21-1 1.82-1.51.31-.25.62-.51.93-.76.31-.26.62-.52.97-.73.68-.45 1.36-.91 2.05-1.37.35-.23.69-.47 1.05-.69.37-.2.74-.4 1.12-.6l2.27-1.21c.77-.38 1.6-.68 2.41-1.02l1.23-.51c.21-.08.41-.18.62-.25l.64-.19c1.72-.5 3.44-1.11 5.28-1.38.91-.16 1.82-.38 2.75-.5.94-.08 1.88-.17 2.83-.25.48-.03.95-.1 1.43-.11.48.01.96.01 1.45.02.97.02 1.94 0 2.92.06 1.95.24 3.94.35 5.89.86.49.11.99.21 1.48.32.25.06.5.1.74.16l.73.23c.97.31 1.95.62 2.93.94.96.36 1.9.8 2.87 1.2.47.22.97.39 1.43.64l1.38.76c1.89.94 3.61 2.21 5.39 3.41l2.49 2.07.63.52c.2.19.39.38.58.58l1.15 1.16 1.16 1.17 1.05 1.28 1.05 1.28.53.64c.16.22.31.46.47.69l1.86 2.79c.53.99 1.06 1.98 1.59 2.98 1.98 4.06 3.37 8.48 4.08 13.08.59 4.61.48 9.24-.3 13.7-.24 1.11-.47 2.21-.71 3.31-.34 1.07-.68 2.13-1.02 3.2l-.26.79-.33.77-.66 1.53-.66 1.52-.79 1.44-.79 1.44-.4.71-.46.67c-.61.9-1.22 1.79-1.82 2.68-1.38 1.65-2.68 3.34-4.24 4.77l-1.12 1.11c-.37.37-.8.67-1.19 1.01-.81.65-1.59 1.34-2.42 1.95-.86.57-1.71 1.14-2.56 1.71l-.63.42c-.22.13-.45.24-.67.36-.45.24-.89.48-1.34.71-1.74 1.03-3.62 1.68-5.43 2.46-.92.33-1.87.58-2.79.87l-1.38.42c-.46.13-.94.19-1.41.29-.94.18-1.87.36-2.79.54-.93.14-1.86.19-2.78.28-1.84.25-3.67.14-5.46.13l-.67-.01c-.22-.01-.44-.05-.66-.07l-1.32-.15c-.87-.11-1.75-.16-2.6-.32-.85-.18-1.68-.36-2.51-.53-.41-.09-.83-.18-1.24-.26-.4-.13-.8-.25-1.2-.37-.79-.25-1.58-.5-2.35-.75a8.5 8.5 0 01-1.13-.43c-.37-.16-.74-.32-1.11-.47-.73-.32-1.46-.61-2.17-.94-.68-.37-1.36-.74-2.03-1.11a42.809 42.809 0 01-12.5-10.54c-.38-.47-.77-.92-1.13-1.38-.33-.49-.65-.96-.96-1.43-.31-.47-.62-.93-.92-1.38-.15-.23-.31-.44-.44-.67-.13-.23-.25-.46-.37-.69-.49-.91-.96-1.79-1.41-2.62-.43-.85-.73-1.7-1.07-2.48-.16-.39-.32-.78-.48-1.15-.16-.37-.31-.73-.4-1.1-.22-.72-.43-1.4-.62-2.03-.19-.63-.38-1.21-.52-1.74-.11-.54-.21-1.04-.29-1.48-.18-.87-.31-1.54-.41-2.01-.05-.42-.11-.65-.11-.65s.03.23.11.69c.09.46.21 1.14.37 2.02.08.44.18.94.28 1.49.13.54.32 1.12.5 1.75.19.63.39 1.31.6 2.04.09.37.23.73.39 1.11.15.37.31.76.47 1.16.34.79.64 1.64 1.06 2.5.45.84.91 1.72 1.4 2.64.12.23.25.46.37.7.13.23.29.45.44.68.3.45.61.92.92 1.39.31.47.63.95.96 1.44.36.46.75.92 1.13 1.4 3.03 3.8 7.18 7.64 12.54 10.64.67.37 1.35.74 2.04 1.12.71.34 1.45.63 2.18.96l1.11.48c.37.16.75.33 1.14.44.78.25 1.57.5 2.37.76.4.13.8.26 1.2.38a1068.72 1068.72 0 003.78.81c.86.16 1.74.21 2.62.33l1.33.15c.22.02.44.06.67.07l.68.01c1.8.01 3.64.12 5.5-.13.93-.1 1.87-.14 2.81-.28.93-.18 1.87-.36 2.81-.54.47-.1.95-.16 1.42-.29.46-.14.93-.28 1.4-.42.93-.29 1.88-.54 2.82-.87 1.82-.78 3.72-1.43 5.48-2.47l1.35-.72c.22-.12.45-.24.67-.37l.64-.43c.85-.57 1.71-1.14 2.58-1.72.84-.62 1.62-1.31 2.44-1.97.4-.34.83-.65 1.21-1.02l1.13-1.12c1.57-1.44 2.89-3.15 4.28-4.81.61-.9 1.22-1.8 1.84-2.7l.46-.68.4-.72.8-1.45.8-1.46.66-1.53.66-1.54.33-.77.26-.8c.34-1.07.68-2.15 1.03-3.23.24-1.11.48-2.22.72-3.34.79-4.5.9-9.17.3-13.83-.72-4.64-2.11-9.1-4.12-13.2-.54-1.01-1.08-2.01-1.61-3.01-.63-.94-1.26-1.88-1.88-2.81-.16-.23-.31-.47-.47-.7l-.53-.65-1.06-1.3-1.06-1.29-1.17-1.18-1.17-1.17c-.2-.19-.38-.39-.58-.58l-.63-.53c-.84-.7-1.68-1.4-2.52-2.09-1.8-1.21-3.53-2.49-5.44-3.44l-1.39-.76c-.46-.26-.96-.43-1.44-.65-.97-.4-1.92-.85-2.89-1.21-.99-.32-1.98-.63-2.96-.94l-.73-.23c-.25-.06-.5-.11-.75-.17-.5-.11-1-.21-1.49-.32-1.97-.51-3.98-.62-5.95-.86-.99-.06-1.97-.04-2.95-.06-.49 0-.97-.01-1.46-.02-.48.01-.96.08-1.44.11-.96.09-1.91.17-2.85.26-.94.12-1.86.34-2.77.51-1.85.28-3.59.9-5.32 1.4l-.65.19c-.21.07-.42.17-.62.25l-1.23.51c-.81.35-1.64.65-2.42 1.04-.77.41-1.53.82-2.28 1.22-.38.2-.75.4-1.12.6-.36.23-.7.47-1.05.7-.7.47-1.38.93-2.07 1.38-.35.22-.66.48-.98.74-.31.26-.63.51-.94.77-.62.51-1.24 1-1.83 1.52-.56.55-1.11 1.1-1.65 1.64a42.953 42.953 0 00-9.1 13.69c-1.84 4.5-2.8 8.64-3.06 12.06-.05.43-.09.84-.13 1.24-.05.4-.09.79-.07 1.17-.01.76-.01 1.47-.01 2.13 0 .66-.02 1.27 0 1.82.05.55.1 1.05.15 1.5.09.89.16 1.57.2 2.04 0 .5.03.73.03.73z"/></g></g><path class="st8" d="M705.89 415.04c0 .14-147.05.26-328.39.26-181.41 0-328.42-.12-328.42-.26s147.01-.26 328.42-.26c181.34 0 328.39.11 328.39.26z" id="Desk"/><g id="Character_2"><path class="st8" d="M581.76 270.14c-2.69-11.27-12.74-20.39-24.21-21.98 3.94-5.3 4.79-12.75 2.13-18.8-2.65-6.05-8.7-10.48-15.27-11.18 2.95-4.96 3.45-11.3 1.31-16.66-2.14-5.36-6.87-9.62-12.43-11.18-3.41-.96-7.18-1-10.18-2.89-3.29-2.07-4.94-5.89-7.3-8.98-6.02-7.86-17.76-10.68-26.69-6.42l-8.07 16.86c8.44 27.18 16.88 54.36 25.33 81.55 2.61 8.4 5.37 17.08 11.24 23.62 6.43 7.17 15.99 10.96 25.55 12.12 9.29 1.12 19.21-.18 26.9-5.51 9.53-6.6 14.38-19.28 11.69-30.55z"/><path class="st8" d="M556.46 253.65c-.01-.1 1.63.23 4.48-.5 1.41-.37 3.1-1.02 4.85-2.16 1.72-1.16 3.53-2.79 4.94-5.03 1.41-2.22 2.37-5.06 2.46-8.2.1-3.12-.61-6.52-2.29-9.66-1.67-3.14-4.42-5.9-7.84-7.8-3.42-1.9-7.51-2.95-11.72-2.83l-.43.01.19-.38c2.12-4.24 2.6-9.47 1.16-14.29-1.42-4.9-4.96-8.89-9.15-11.18a18.35 18.35 0 00-3.25-1.43 17.57 17.57 0 00-3.39-.8c-2.26-.33-4.66-.11-6.8-1.11-1.06-.49-1.92-1.31-2.56-2.22-.65-.91-1.12-1.89-1.56-2.86-.84-1.95-1.76-3.75-2.95-5.33-2.32-3.18-5.29-5.5-8.27-7-3-1.5-6.02-2.16-8.67-2.32-2.66-.15-4.96.16-6.79.58-1.83.43-3.2.96-4.1 1.37-.46.18-.79.37-1.02.47-.23.11-.35.16-.36.15s.11-.07.33-.2c.23-.12.55-.32 1.01-.52.89-.44 2.26-1 4.1-1.47 1.84-.45 4.15-.8 6.85-.67 2.69.14 5.76.78 8.82 2.28 3.04 1.51 6.08 3.84 8.46 7.07 1.21 1.59 2.18 3.46 3.02 5.39.86 1.88 1.91 3.92 3.91 4.83 1.97.93 4.33.72 6.66 1.05 1.17.15 2.34.42 3.49.81 1.15.38 2.27.86 3.34 1.46 4.3 2.34 7.95 6.43 9.41 11.48 1.48 4.95.99 10.31-1.2 14.67l-.24-.37c4.31-.11 8.48.97 11.97 2.92s6.3 4.79 8 8.01c1.71 3.22 2.41 6.69 2.29 9.89-.11 3.2-1.11 6.11-2.57 8.36-1.46 2.27-3.32 3.91-5.08 5.07a16.67 16.67 0 01-4.95 2.12c-1.43.36-2.59.39-3.35.4-.36-.02-.65-.03-.87-.05-.23.01-.33 0-.33-.01z"/><path class="st7" d="M454.83 408.43c3-2.83 4.44-6.91 5.7-10.84 3.82-11.88 6.97-23.98 9.43-36.22l-12.03-28.04-3.1 75.1z"/><path class="st7" d="M572.77 277.73l-41.39-7.91-77 23.53 1.58 60.34 13.25 62.12h107.18l4.14-77.72zM572.77 277.61s17.74 3.27 25.1 11.97c7.36 8.7 79.54 79.13 82.93 99.47l-58.04-4.35-42.21-46.73-7.78-60.36z"/><path class="st8" d="M579.66 331.22c-.04.01-.16-.6-.36-1.7-.19-1.1-.44-2.69-.66-4.68-.47-3.96-.85-9.47-.64-15.56.13-3.04.38-5.94.77-8.55.42-2.61.91-4.94 1.51-6.85.14-.48.28-.93.41-1.36.16-.42.31-.81.45-1.19.28-.74.52-1.38.79-1.88.49-1 .78-1.55.81-1.53.03.02-.19.59-.63 1.61-.24.5-.45 1.15-.7 1.89-.13.38-.27.77-.41 1.19-.12.43-.24.89-.38 1.36-.55 1.9-.99 4.23-1.39 6.82-.36 2.6-.6 5.48-.73 8.5-.21 6.06.12 11.55.49 15.51.17 1.98.37 3.58.49 4.68.16 1.12.22 1.74.18 1.74z"/><path class="st7" d="M458.03 363.29c.04-.01.15.45.34 1.27.2.93.44 2.1.74 3.5.62 3.06 1.44 7.1 2.35 11.56.93 4.51 1.79 8.59 2.46 11.53.32 1.39.6 2.56.81 3.48.2.82.3 1.28.26 1.29-.03.01-.19-.43-.46-1.23-.26-.81-.6-1.98-.97-3.45-.76-2.93-1.69-7-2.61-11.52-.93-4.51-1.69-8.62-2.2-11.59-.26-1.49-.45-2.69-.58-3.53-.13-.84-.18-1.3-.14-1.31z"/><path class="st2" d="M533.63 347.44c-.14.02-.74-3.1-1.34-6.98-.6-3.88-.97-7.04-.82-7.06.14-.02.74 3.1 1.34 6.98.59 3.88.96 7.04.82 7.06zM493.73 359.76c-.13-.05.81-2.67 2.1-5.84s2.45-5.7 2.58-5.65c.13.05-.81 2.67-2.1 5.84-1.29 3.18-2.44 5.71-2.58 5.65zM520.97 384.45c-.13.08-1.92-2.73-4.5-5.89-2.58-3.17-4.97-5.49-4.86-5.6.05-.05.7.47 1.69 1.39.98.93 2.27 2.28 3.58 3.88 1.3 1.6 2.36 3.14 3.07 4.29.71 1.14 1.08 1.89 1.02 1.93zM554.94 366.91c.09.11-1.47 1.61-3.49 3.34-2.02 1.74-3.73 3.06-3.83 2.95-.09-.11 1.47-1.61 3.49-3.34 2.03-1.74 3.74-3.06 3.83-2.95zM481.82 395.08c-.06.13-2.99-1.17-6.53-2.89-3.54-1.73-6.36-3.23-6.3-3.36.06-.13 2.99 1.17 6.53 2.9 3.54 1.71 6.37 3.22 6.3 3.35zM566.07 331.22c.09.11-1.16 1.34-2.8 2.76-1.64 1.41-3.05 2.47-3.14 2.36-.09-.11 1.16-1.34 2.81-2.76 1.62-1.41 3.03-2.46 3.13-2.36zM558.43 301.03c-.14-.04.51-2.55 1.45-5.61.94-3.06 1.81-5.5 1.95-5.46.14.04-.51 2.55-1.45 5.61-.94 3.06-1.82 5.5-1.95 5.46zM519.27 321.88c0 .14-2.38.26-5.32.26-2.94 0-5.32-.12-5.32-.26s2.38-.26 5.32-.26c2.94 0 5.32.12 5.32.26zM466.07 357.21c-.13-.06 1-2.96 2.53-6.49 1.53-3.53 2.87-6.34 3.01-6.28.13.06-1 2.96-2.53 6.49-1.53 3.52-2.88 6.34-3.01 6.28zM591.15 335.09c-.14.03-.74-2.23-1.33-5.05-.59-2.82-.96-5.13-.82-5.16.14-.03.74 2.23 1.33 5.05.59 2.82.96 5.13.82 5.16zM604.39 309.1c-.04.14-2.75-.6-6.04-1.64-3.3-1.04-5.93-2-5.89-2.14.04-.14 2.75.6 6.05 1.64 3.29 1.05 5.93 2.01 5.88 2.14zM611.25 338.07c-.14-.02.03-1.94.39-4.29s.76-4.24.9-4.22c.14.02-.03 1.94-.39 4.29-.35 2.35-.76 4.24-.9 4.22zM642.31 352.06c-.11.1-2.77-2.68-5.94-6.21-3.17-3.53-5.66-6.46-5.55-6.56.11-.1 2.77 2.68 5.94 6.21 3.17 3.53 5.66 6.46 5.55 6.56zM619.29 365.72c-.12.09-2.2-2.52-4.67-5.81-2.46-3.3-4.36-6.04-4.25-6.12.12-.09 2.2 2.52 4.67 5.81 2.46 3.29 4.36 6.04 4.25 6.12zM647.91 369.8c-.08.13-2.54-1.25-5.75-2.57-3.2-1.34-5.92-2.11-5.88-2.26.03-.13 2.83.42 6.08 1.78 3.25 1.34 5.62 2.94 5.55 3.05zM496.59 401.79c-.14 0-.26-2.36-.26-5.28 0-2.91.12-5.28.26-5.28s.26 2.36.26 5.28c.01 2.92-.11 5.28-.26 5.28zM569.41 382.8c-.11.1-1.49-1.24-3.09-2.99-1.6-1.75-2.82-3.24-2.71-3.34.11-.1 1.49 1.24 3.09 2.99 1.6 1.74 2.81 3.24 2.71 3.34zM573.04 354.31c-.14 0-.26-2.13-.27-4.75-.01-2.62.11-4.75.25-4.75s.26 2.13.27 4.75c.01 2.62-.1 4.74-.25 4.75zM531.87 376.48c-.14.03-.76-2.42-1.38-5.47-.62-3.05-1.02-5.55-.87-5.58s.76 2.42 1.38 5.47c.62 3.05 1.01 5.55.87 5.58zM479.78 372.13c-.07.12-2.49-1.2-5.41-2.95-2.91-1.75-5.21-3.27-5.14-3.4.07-.12 2.49 1.2 5.41 2.95 2.91 1.76 5.21 3.28 5.14 3.4zM491.87 323.18c.06.02-.09.93-.5 2.36-.4 1.43-1.09 3.38-2.05 5.44-.97 2.06-2.02 3.83-2.86 5.06-.84 1.23-1.44 1.93-1.49 1.89-.06-.05.43-.82 1.18-2.09a59.52 59.52 0 002.7-5.09 60.42 60.42 0 002.17-5.33c.49-1.38.77-2.26.85-2.24zM547.77 310.52c-.15.07-1.11-2.23-3.18-4.43-2.04-2.22-4.27-3.35-4.19-3.49.03-.12 2.45.83 4.57 3.14 2.14 2.27 2.92 4.75 2.8 4.78zM556.22 277.8c.05.13-1.44.83-3.34 1.56-1.89.73-3.47 1.21-3.52 1.08-.05-.13 1.44-.83 3.34-1.56 1.89-.73 3.46-1.21 3.52-1.08z"/><g><path class="st9" d="M532.56 262.16s14-9.95 7.48-31.35c-3.24-10.65-11.63-26.61-18.91-39.44-6.56-11.55-21.66-22.74-37.52-14.95 0 0-35.88 14.35-24.62 41.65l33.05 73.47c5.23 11.62 18.59 17.16 30.51 12.65 12.33-4.67 18.62-18.39 14.11-30.78l-4.1-11.25z"/><path class="st8" d="M522.72 212.43c.7 1.32.16 3.01-1.21 3.77-1.37.76-3.04.3-3.75-1.02-.7-1.32-.16-3.01 1.2-3.77 1.37-.76 3.05-.31 3.76 1.02zM523.5 205.39c-.15.49-2.78 0-5.52 1.34-2.75 1.3-4.08 3.69-4.54 3.5-.22-.08-.19-.83.38-1.9.55-1.06 1.72-2.39 3.44-3.21 1.71-.82 3.46-.89 4.59-.65 1.16.24 1.74.7 1.65.92zM496.83 224.34c.7 1.32.16 3.01-1.21 3.77-1.37.76-3.04.3-3.75-1.02-.7-1.32-.16-3.01 1.2-3.77 1.38-.76 3.06-.3 3.76 1.02zM498.26 218.1c-.15.49-2.78 0-5.52 1.34-2.75 1.3-4.08 3.69-4.54 3.5-.22-.08-.19-.83.38-1.9.55-1.06 1.72-2.39 3.43-3.21 1.71-.82 3.46-.89 4.6-.65 1.15.24 1.73.7 1.65.92zM515.96 232.89c-.09-.15 1.47-1.27 4.06-2.97.66-.41 1.26-.88 1.15-1.41-.08-.59-.74-1.2-1.48-1.85-1.48-1.37-3.04-2.81-4.67-4.32-6.57-6.19-11.69-11.42-11.44-11.68.25-.26 5.78 4.54 12.36 10.73 1.6 1.53 3.13 3 4.6 4.4.65.67 1.55 1.35 1.7 2.57.07.61-.26 1.25-.65 1.58-.38.36-.77.55-1.11.74-2.71 1.51-4.43 2.36-4.52 2.21z"/><path class="st10" d="M532.56 262.16s-12.95 7.37-30.07 5.86c0 0 13.1 11.22 32.08-.32l-2.01-5.54zM519.37 242.88c.12-1.07-.48-2.17-1.43-2.67s-2.2-.35-3 .35c-.33-1-1.47-1.61-2.52-1.48-1.05.13-1.96.87-2.47 1.79-.99 1.78-.52 4.22 1.01 5.58 1.52 1.36 3.93 1.57 5.72.59 1.79-.98 2.9-3.04 2.83-5.09"/><path class="st8" d="M519.26 247.1c-.45.21-1.68-2.86-5.18-4-3.5-1.15-6.64.5-6.84.08-.12-.18.49-.89 1.86-1.48 1.34-.59 3.5-.94 5.64-.24 2.14.7 3.54 2.21 4.15 3.43.63 1.24.59 2.14.37 2.21z"/><g><path class="st8" d="M484.03 216.82c-.14-.87 2.72-1.99 5.65-4.1 2.97-2.04 5-4.35 5.77-3.93.36.21.29 1.14-.34 2.4s-1.88 2.82-3.65 4.06c-1.77 1.24-3.66 1.89-5.05 2.05-1.41.18-2.3-.07-2.38-.48z"/></g><g><path class="st8" d="M509.69 202.5c.15-.86 2.35-1.2 4.61-2.34 2.3-1.06 3.92-2.57 4.69-2.16.35.21.38.98-.15 2-.51 1.01-1.63 2.19-3.2 2.95-1.56.75-3.19.89-4.3.67-1.11-.21-1.7-.71-1.65-1.12z"/></g><g><path class="st8" d="M490.2 288.52c-1.4-2.34-2.98-4.69-3.37-7.39-.39-2.69.45-5.41.33-8.12-.31-6.83-6.3-11.77-11.37-16.36-5.07-4.59-10.03-11.3-7.6-17.69 2.35-6.18 10.57-8.68 12.58-14.98 1.65-5.15-1.57-10.87-.13-16.09 1.64-5.93 8.36-8.67 12.38-13.33 4.99-5.78 8.55-15.08 3.94-21.16l-3.23-.83c-1.98-3.32-6.62-4.26-10.29-3.06-3.67 1.2-6.56 4.05-9.08 6.97-2.53 2.92-4.91 6.07-8.12 8.23-5.49 3.68-13.56 4.77-15.99 10.92-2.03 5.12 1.11 11.54-1.87 16.17-2.4 3.73-7.73 4.49-10.57 7.89-2.18 2.61-2.49 6.38-1.65 9.67.84 3.29 2.69 6.22 4.51 9.09-7.99 3.05-16.31 6.32-21.93 12.76-5.62 6.44-7.43 17.08-1.61 23.34 2.59 2.79 6.78 5.72 5.38 9.26-.53 1.35-1.8 2.25-2.92 3.17-7.35 6.03-10.66 16.56-8.07 25.71 2.59 9.15 10.93 16.39 20.34 17.67 9.42 1.28 19.39-3.47 24.32-11.59-1.02 4.43 2.38 8.95 6.61 10.62s8.99 1.12 13.43.18c5.04-1.07 10.15-2.72 13.92-6.23 4.61-4.28 6.58-10.89 6.19-17.17-.39-6.28-2.9-12.25-6.13-17.65z"/></g><g><path class="st8" d="M496.93 182.47c1.89 4.31-2.84 13.67-6.29 16.87-3.45 3.2-7.69 6.06-9.11 10.54-2.17 6.84 3.17 14.47.8 21.25-1.67 4.78-6.94 8.3-6.68 13.35.32 6.14 8.39 8.9 10.56 14.66 1.85 4.91.51 9.67 2.33 14.6 1.13 3.07 3.65 6.19 5.81 8.64 4.7 5.34 8.14 12.47 6.9 19.7-1.73 10.08-5.58 18.74-11.92 21.95l-21.2-28.15-1.65-44.97-1.32-22.5 8.17-6 3.06-22.16 20.54-17.78z"/></g><g><path class="st9" d="M446.46 269.7l-28.86 92.87s-12.6 53.94 16.14 52.76c28.74-1.18 24.02-15.87 24.02-15.87l.29-110.92s5.27-9.35 5.22-16.54c-.05-8.01 1.88-30.95 1.88-30.95s7.22-20.84 4.71-21.76c-4.8-1.76-12.88 21.22-12.88 21.22s2.3 4.33-1.64 16.14c-3.94 11.81-8.88 13.05-8.88 13.05z"/></g><g><path class="st11" d="M493.69 173.41c.01-.01.09.09.25.28.17.18.36.5.6.92.45.86.89 2.24 1.1 4.07.21 1.82.24 4.1-.32 6.66-.55 2.61-2.39 5.11-4.66 7.46-2.28 2.36-5.17 4.53-7.71 7.38-1.26 1.43-2.4 3.05-3.18 4.92-.8 1.86-1.37 3.9-2.31 5.88-.46.99-1.05 1.95-1.8 2.81-.75.86-1.68 1.55-2.65 2.15-1.95 1.2-4.15 2-6.02 3.36-3.83 2.67-6.28 7.14-7.58 11.88-1.35 4.78-1.53 9.67-1.87 14.36-.32 4.68-.77 9.27-2.22 13.4-1.46 4.09-3.81 7.71-6.93 10.08-1.55 1.18-3.27 2.03-5.03 2.47-1.76.47-3.5.5-5.12.58-1.63.07-3.18.15-4.59.5-1.41.34-2.69.92-3.67 1.73-1 .8-1.61 1.86-1.9 2.91-.3 1.06-.42 2.07-.65 2.96-.39 1.83-1.47 2.99-2.35 3.41-.44.21-.83.26-1.07.25-.25-.01-.37-.05-.37-.05-.01-.05.54.13 1.4-.3.83-.43 1.85-1.57 2.2-3.36.21-.88.31-1.9.61-2.99.28-1.09.92-2.23 1.95-3.07 1.02-.86 2.33-1.46 3.77-1.82 1.45-.37 3.03-.46 4.66-.54 1.63-.09 3.34-.14 5.04-.6 1.7-.44 3.36-1.27 4.87-2.43 3.02-2.31 5.32-5.87 6.74-9.89 1.41-4.06 1.85-8.6 2.17-13.28.33-4.67.5-9.61 1.87-14.46.68-2.42 1.62-4.74 2.9-6.84 1.29-2.09 2.92-3.95 4.89-5.31 1.95-1.4 4.16-2.2 6.06-3.37.95-.58 1.84-1.24 2.55-2.05.72-.81 1.28-1.73 1.74-2.69.92-1.93 1.5-3.96 2.32-5.86.81-1.91 1.99-3.58 3.28-5.02 2.6-2.88 5.49-5.03 7.77-7.35 1.14-1.16 2.15-2.33 2.95-3.55.81-1.22 1.41-2.46 1.69-3.72.58-2.51.58-4.77.4-6.57-.18-1.81-.58-3.18-.99-4.04-.45-.88-.82-1.24-.79-1.26z"/></g><g><path class="st11" d="M493.69 173.41c.01 0 .05.06.13.2.09.16.2.37.33.61.18.57.43 1.5.11 2.65-.59 2.32-2.97 4.87-6.06 7.55-1.55 1.34-3.23 2.86-5.16 4.32-1.9 1.49-3.97 3.04-5.72 5.08-.87 1.02-1.61 2.18-2.15 3.47-.54 1.29-.85 2.7-1.18 4.14-.33 1.44-.65 2.93-1.28 4.37-.62 1.44-1.65 2.72-2.87 3.74-1.23 1.04-2.65 1.75-4.07 2.36-1.42.61-2.85 1.1-4.24 1.58-1.39.49-2.76.97-4.03 1.56-1.28.58-2.49 1.25-3.5 2.12-2.13 1.65-3.22 4.08-3.86 6.36-.65 2.31-.99 4.54-1.53 6.54-1.03 4.04-3.39 6.82-5.49 7.85-1.04.53-1.97.66-2.57.66-.3.01-.54-.04-.69-.05-.15-.02-.23-.03-.23-.04 0-.03.32 0 .92-.01.6-.03 1.48-.19 2.48-.73 2-1.05 4.26-3.8 5.22-7.76.51-1.98.83-4.21 1.47-6.56.63-2.32 1.76-4.87 3.97-6.61 1.05-.9 2.3-1.6 3.6-2.2 1.3-.61 2.68-1.1 4.07-1.59 1.4-.49 2.82-.98 4.2-1.58 1.39-.59 2.77-1.29 3.94-2.28 1.17-.98 2.13-2.18 2.73-3.55.61-1.37.93-2.83 1.26-4.27.33-1.44.65-2.88 1.21-4.22.56-1.34 1.35-2.54 2.24-3.59 1.81-2.09 3.91-3.64 5.82-5.11 1.93-1.44 3.61-2.93 5.18-4.26 3.11-2.63 5.48-5.1 6.11-7.32.33-1.1.13-1.99-.02-2.56-.11-.25-.21-.45-.28-.62-.04-.17-.07-.25-.06-.25z"/></g><g><path class="st11" d="M482.92 227.96s.09.41.01 1.19-.37 1.92-1.09 3.23c-.7 1.32-1.94 2.71-3.56 4.05a20.536 20.536 0 00-4.61 5.31c-2.69 4.46-4.06 11.02-2.34 17.76.23.83.47 1.67.8 2.49.29.84.68 1.65 1.08 2.45.82 1.62 1.81 3.19 2.81 4.81 1.98 3.2 4.07 6.75 4.46 10.89.2 2.04-.15 4.14-1.05 5.94-.89 1.81-2.19 3.31-3.53 4.67-1.35 1.36-2.76 2.58-4.06 3.85a45.36 45.36 0 00-3.6 3.93c-2.18 2.69-3.9 5.55-5 8.43-1.12 2.87-1.58 5.75-1.47 8.36.13 2.61.73 4.95 1.59 6.84.85 1.9 1.92 3.37 2.92 4.43 2.02 2.15 3.66 2.7 3.59 2.79 0 .01-.1-.03-.28-.12-.2-.11-.46-.24-.79-.41-.34-.2-.73-.48-1.2-.8-.43-.37-.97-.77-1.47-1.31-1.04-1.06-2.15-2.53-3.04-4.45-.9-1.91-1.53-4.28-1.69-6.94-.14-2.66.31-5.61 1.43-8.54 1.1-2.93 2.83-5.84 5.03-8.57 1.1-1.37 2.31-2.7 3.62-3.99s2.72-2.52 4.04-3.86c1.32-1.34 2.58-2.81 3.43-4.54.86-1.72 1.19-3.69 1-5.66-.18-1.97-.79-3.86-1.59-5.63s-1.8-3.42-2.79-5.03c-.99-1.62-1.98-3.21-2.82-4.85-.41-.82-.81-1.65-1.1-2.51-.34-.84-.58-1.7-.81-2.55-1.73-6.88-.29-13.55 2.49-18.07 1.38-2.28 3.09-4.04 4.74-5.35 1.63-1.3 2.86-2.64 3.57-3.92.73-1.27 1.06-2.38 1.17-3.14.13-.77.08-1.18.11-1.18z"/></g></g><g><path class="st6" d="M469.64 443.9l88.49-7.47L482 414.21l-81.36 2.07z"/><path class="st8" d="M469.64 443.9s-.43-.15-1.26-.47c-.84-.33-2.07-.81-3.67-1.44-3.23-1.28-7.96-3.15-13.98-5.53-12.07-4.81-29.34-11.68-50.17-19.98l-.99-.39 1.07-.03c23.4-.61 51.33-1.33 81.37-2.12h.04l.04.01c1.88.55 3.9 1.14 5.93 1.73 25.4 7.43 49.37 14.43 70.18 20.52l1.2.35-1.25.1c-26.34 2.18-48.47 4.02-64.03 5.31-7.76.63-13.87 1.12-18.07 1.46-2.08.16-3.68.28-4.77.37l-1.22.09c-.28.02-.42.02-.42.02s.14-.02.42-.05c.29-.03.7-.07 1.23-.12 1.1-.1 2.7-.25 4.78-.44 4.2-.37 10.31-.91 18.07-1.59 15.54-1.34 37.65-3.24 63.96-5.5l-.05.45c-20.82-6.07-44.8-13.06-70.2-20.47-2.03-.59-4.06-1.18-5.93-1.73l.08.01c-30.04.75-57.97 1.45-81.37 2.03l.08-.42c20.79 8.36 38.02 15.3 50.07 20.14 6.01 2.43 10.72 4.34 13.95 5.65 1.6.65 2.82 1.16 3.66 1.5.83.35 1.25.54 1.25.54z"/><path class="st1" d="M558.13 436.43l85.12-6.28-81.18-15.36h-76.93z"/><path class="st8" d="M558.13 436.43s-.46-.11-1.34-.36c-.89-.26-2.2-.63-3.89-1.12-3.42-1-8.42-2.46-14.79-4.32-12.77-3.76-31.03-9.14-53.03-15.62l-1.47-.43h1.53c22.26-.01 48.63-.02 76.93-.04h.04c2.32.44 4.81.91 7.31 1.38 26.84 5.09 52.12 9.88 73.86 14l1.73.33-1.76.13c-25.41 1.84-46.69 3.37-61.64 4.45-7.45.52-13.32.93-17.35 1.22-1.99.13-3.53.23-4.58.3-.51.03-.9.05-1.17.07-.25.01-.38.01-.38.01s.14-.02.4-.05c.28-.02.67-.06 1.18-.1 1.05-.09 2.59-.21 4.58-.37 4.02-.31 9.9-.77 17.35-1.34 14.94-1.13 36.2-2.73 61.59-4.64l-.03.45c-21.74-4.1-47.02-8.87-73.87-13.94-2.51-.47-5-.95-7.31-1.38h.05c-28.3-.01-54.67-.03-76.93-.04l.06-.43c21.96 6.55 40.19 11.99 52.94 15.79 6.36 1.91 11.35 3.41 14.77 4.44 1.69.52 2.99.91 3.88 1.19.89.26 1.34.42 1.34.42z"/><path class="st6" d="M558.13 436.43s1.99-18.49 17.34-16.97c15.35 1.52 35.71 11.82 52.45 11.82l17.97-1.4-38.32-7.89s-95.11-20.09-95.11-19.46c0 .63-31.99-7.07-30.85 11.89l76.52 22.01z"/><path class="st8" d="M558.13 436.43s-.46-.12-1.38-.37c-.93-.26-2.29-.64-4.06-1.14-3.58-1.02-8.81-2.5-15.48-4.39-13.4-3.82-32.56-9.29-55.66-15.89l-.15-.04-.01-.15c-.09-1.75.04-3.57.7-5.28.63-1.71 1.79-3.24 3.27-4.35 3-2.25 6.84-3.05 10.61-3.39 3.81-.31 7.71-.1 11.63.35 1.98.19 3.91.59 5.92.64 1.99.33 3.97.72 5.97 1.1 15.99 3.14 32.94 6.68 50.5 10.34 13.64 2.86 26.92 5.65 39.63 8.32 12.72 2.63 24.89 5.14 36.31 7.49l1.62.34-1.65.13-17.97 1.38h-.02c-6.14-.1-11.94-1.26-17.31-2.67-5.38-1.4-10.4-3.01-15.13-4.45-4.72-1.45-9.16-2.75-13.33-3.66-2.08-.45-4.1-.81-6.03-1.04-1.93-.26-3.8-.22-5.52.14-3.47.7-6.05 2.82-7.73 4.94-1.69 2.15-2.64 4.31-3.3 6.07-.64 1.77-.98 3.19-1.18 4.14-.1.48-.16.84-.21 1.09-.02.23-.04.35-.04.35s.03-.5.21-1.47c.18-.96.49-2.38 1.12-4.17.64-1.78 1.58-3.96 3.27-6.15 1.67-2.16 4.29-4.33 7.83-5.06 1.75-.38 3.66-.42 5.6-.17 1.95.22 3.98.57 6.07 1.02 4.19.9 8.63 2.19 13.37 3.62 4.73 1.43 9.75 3.02 15.12 4.4 5.36 1.39 11.13 2.53 17.21 2.61h-.02l17.97-1.41-.03.46c-11.42-2.34-23.59-4.84-36.31-7.46-12.72-2.66-25.99-5.45-39.64-8.3-17.56-3.65-34.5-7.2-50.49-10.36-2-.39-3.98-.78-5.95-1.1l-.73-.11-.17-.01h-.03v-.01a.501.501 0 01-.02-.19c-.08-.06.41 0 .17.09-.03.08-.13.14-.15.14l-.09.02c-.19.02-.3 0-.43-.01-.51-.05-1-.12-1.49-.18-.98-.12-1.96-.25-2.94-.37-3.9-.44-7.77-.66-11.54-.36-3.73.32-7.49 1.12-10.38 3.28-1.43 1.07-2.53 2.52-3.13 4.15-.63 1.63-.76 3.39-.68 5.09l-.16-.2c23.02 6.67 42.1 12.2 55.45 16.07 6.68 1.95 11.92 3.47 15.5 4.52 1.78.52 3.15.92 4.09 1.2.91.27 1.4.42 1.4.42z"/><g><path class="st8" d="M495.9 425.35h-44.82a.97.97 0 01-.97-.97v-2.23c0-.53.43-.97.97-.97h44.82c.53 0 .97.43.97.97v2.23c-.01.54-.44.97-.97.97z"/><path class="st8" d="M450.84 424.34h-3.16c-.24 0-.43-.19-.43-.43v-1c0-.24.19-.43.43-.43h3.16c.24 0 .43.19.43.43v1c0 .24-.19.43-.43.43z"/><g><path class="st8" d="M495.16 421.22l5.61 1.45v.6l-5.61 2.05z"/></g><g><path class="st8" d="M450.11 423.4c-.07 0-.13-.06-.13-.13v-.54c0-1.51 1.45-2.75 3.23-2.75h14.4c.07 0 .13.06.13.13s-.06.13-.13.13h-14.4c-1.64 0-2.98 1.12-2.98 2.5v.54c0 .06-.05.12-.12.12z"/></g></g><g><path class="st6" d="M471.52 437.72c1.61 0 58.5-4.46 58.5-4.46"/><path class="st8" d="M530.02 433.26c0 .02-.2.05-.59.1-.45.05-1.01.11-1.7.18-1.55.14-3.67.33-6.26.56-5.36.43-12.64 1.01-20.68 1.65-8.05.58-15.34 1.11-20.69 1.5-2.6.16-4.72.3-6.27.4-.69.03-1.26.06-1.7.08-.39.01-.59.01-.59-.01s.2-.05.59-.1c.45-.05 1.01-.11 1.7-.18 1.55-.14 3.67-.33 6.27-.56 5.35-.43 12.63-1.01 20.68-1.65 8.04-.58 15.33-1.11 20.68-1.5 2.6-.16 4.72-.3 6.27-.4.7-.03 1.26-.06 1.71-.08.37-.01.58-.01.58.01z"/></g><g><path class="st6" d="M462.12 433.86c1.61 0 58.5-4.46 58.5-4.46"/><path class="st8" d="M520.63 429.39c0 .02-.2.05-.59.1-.45.05-1.01.11-1.7.18-1.55.14-3.67.33-6.26.56-5.36.43-12.64 1.01-20.68 1.65-8.05.58-15.34 1.11-20.69 1.5-2.6.16-4.72.3-6.27.4-.69.03-1.26.06-1.7.08-.39.01-.59.01-.59-.01s.2-.05.59-.1c.45-.05 1.01-.11 1.7-.18 1.55-.14 3.67-.33 6.27-.56 5.35-.43 12.63-1.01 20.68-1.65 8.04-.58 15.33-1.11 20.68-1.5 2.6-.16 4.72-.3 6.27-.4.7-.03 1.26-.06 1.71-.08.37-.01.58-.01.58.01z"/></g></g><g><path class="st9" d="M640.59 382.01l-57.65 9.46s-30.14-5.74-33.98-5.07c-7.51 1.3-25.6 17.67-25.6 17.67-1.2 7.65 9.33 3.27 9.33 3.27s.08 1.74 3 3.23c2.54 1.3 7.58-1.12 7.58-1.12s-1.29 1.7 2.75 3.39c4.03 1.69 9.44-1.27 9.44-1.27s.91 3.13 4.95 3.1c3.92-.03 13.79-3.06 13.79-3.06 13.44 7.38 21.2 1.51 21.2 1.51l46.51 3.98 40.59-2.07s9.42-18.81-8.74-40.12l-33.17 7.1z"/><path class="st10" d="M562.12 394.05c0 .04-.48.08-1.34.11-.96.03-2.19.07-3.65.12-1.58.03-3.41.07-5.42.11-1.03.05-2.09-.09-3.08.29-.5.17-.98.43-1.4.77l-1.33 1.12c-3.6 3.02-6.88 5.74-9.28 7.68-1.14.91-2.1 1.68-2.85 2.28-.68.53-1.07.81-1.09.78-.02-.03.32-.36.96-.94.73-.64 1.65-1.45 2.74-2.41 2.33-2.02 5.58-4.78 9.18-7.81.45-.38.9-.75 1.34-1.12.47-.38 1-.66 1.55-.85.55-.19 1.12-.28 1.68-.29h6.98c1.46.02 2.69.03 3.65.05.88.05 1.36.08 1.36.11zM565.99 399.37c0 .03-.32.11-.91.21-.59.1-1.45.24-2.52.4-2.13.31-5.1.72-8.42 1.14l.13-.06c-.23.18-.48.38-.73.58-2.79 2.21-5.34 4.19-7.2 5.6-.93.71-1.69 1.27-2.22 1.65-.53.38-.83.58-.86.55-.02-.03.24-.28.73-.71.49-.43 1.22-1.04 2.12-1.78 1.8-1.49 4.31-3.51 7.1-5.72.25-.2.5-.39.73-.57l.06-.05.07-.01c3.32-.41 6.3-.76 8.44-.98 1.07-.11 1.94-.19 2.54-.24s.93-.04.94-.01zM574.85 405.36c.01.07-1.15.24-3.03.45-1.88.21-4.47.48-7.34.73l.11-.04-.03.02c-2.49 1.47-4.76 2.77-6.42 3.69-1.66.92-2.7 1.46-2.74 1.4-.04-.06.94-.71 2.55-1.71 1.61-1 3.85-2.35 6.34-3.82l.03-.02.05-.03.06-.01c2.87-.26 5.47-.46 7.36-.58 1.88-.11 3.05-.15 3.06-.08z"/></g></g><g id="Character_1"><path class="st8" d="M219.13 168.71c-36.77-6.31-40.19 26.94-39.94 36.49.25 9.54 3.51 18 6.87 26.93 3.36 8.93 1.23 21.12-1.6 30.24-3.31 10.67-13.85 20.46-10.08 30.98 2.96 8.26 13.87 12.31 15.21 20.98 1.06 6.86-4.47 12.84-6.51 19.48-3.85 12.52 4.97 25.07 13.26 35.21 3.42 4.19 7.57 8.74 12.97 8.81 7.47.1 11.91-7.99 15.28-14.66 9.33-18.44 23.25-34.54 40.16-46.43"/><path class="st11" d="M196.52 218.51c.02.05-.81.47-2.27.82-1.45.35-3.55.54-5.82.19-2.27-.36-4.21-1.2-5.48-1.98-1.28-.78-1.94-1.44-1.9-1.48.05-.07.79.48 2.08 1.16a17.8 17.8 0 005.38 1.78c2.2.34 4.23.22 5.67-.03 1.45-.25 2.31-.54 2.34-.46zM185.49 303.12s-.86-.89-2.06-2.77c-1.17-1.88-2.62-4.83-3.41-8.76-.79-3.89-.87-8.83.87-13.86.85-2.51 2.18-4.97 3.72-7.38 1.54-2.42 3.27-4.81 4.88-7.36 3.22-5.09 5.15-10.62 5.81-15.79.37-2.58.48-5.07.37-7.38-.05-2.32-.39-4.46-.73-6.41-.78-3.87-1.92-6.89-2.86-8.89-.42-1.03-.87-1.76-1.12-2.29-.26-.52-.39-.8-.38-.81.02-.01.18.25.47.76.28.51.76 1.24 1.21 2.26 1 1.98 2.2 5 3.03 8.9.36 1.96.72 4.12.8 6.46.13 2.34.03 4.86-.33 7.47-.65 5.23-2.59 10.85-5.85 16-1.62 2.57-3.36 4.96-4.89 7.36-1.53 2.39-2.85 4.81-3.69 7.27-1.73 4.92-1.69 9.78-.96 13.63.73 3.88 2.11 6.82 3.22 8.72 1.15 1.9 1.95 2.83 1.9 2.87z"/><path class="st7" d="M307.03 266.82s18.44 0 30.99 26.89c9.31 19.95 35.86 87.87 31.67 106.95-.94 4.28-3.62 13.79-10.46 13.92-11.65.22-19.8-.42-19.8-.42l-14.9-34.45-14.37-49.16s-23.15-59.08-3.13-63.73z"/><path class="st7" d="M330.08 413.08l-4.62-31.15-18.44-115.11-22.92-1.72-43.08 8.56s-25.42 4.12-38.46 13.43c0 0 3.87 63.02 4.09 69.58.48 14.35 9.42 27.21 18.4 38.61l2.37 3-1.22 18.06 103.88-3.26z"/><path class="st7" d="M222.32 278.15s-18.12 3.94-29.78 19c-9.41 12.15-53.27 66.27-53.27 66.27s-22.55 12.63-26.74 25.66c-4.19 13.03.06 24.58 9.84 24.58s35.04-6.69 35.04-6.69l49.1-56.23 1.11 9.68 11.24-49.14 3.46-33.13z"/><path class="st8" d="M305.34 316.5c.02 0 .09.2.21.6.13.45.3 1.03.51 1.75.45 1.59 1.08 3.78 1.85 6.45 1.58 5.44 3.83 12.95 6.36 21.22 2.54 8.24 4.84 15.7 6.53 21.17.82 2.66 1.48 4.84 1.96 6.42.21.72.38 1.3.51 1.75.11.4.16.62.15.62-.02.01-.1-.2-.25-.59-.16-.45-.36-1.02-.61-1.72-.52-1.57-1.24-3.73-2.12-6.37-1.76-5.39-4.15-12.85-6.68-21.13-2.53-8.27-4.73-15.8-6.22-21.27-.74-2.74-1.33-4.96-1.69-6.5-.17-.73-.31-1.32-.42-1.78-.07-.4-.11-.61-.09-.62zM288.38 379.13c.01.04-.44.14-1.27.3-.41.08-.92.17-1.51.23s-1.27.16-2.02.18c-1.5.1-3.29.08-5.27-.09-1.98-.2-4.14-.57-6.35-1.18-2.21-.63-4.25-1.44-6.04-2.29-1.78-.88-3.33-1.79-4.56-2.66-.63-.41-1.16-.84-1.63-1.2-.48-.36-.86-.69-1.17-.98-.62-.56-.95-.88-.93-.91.07-.08 1.44 1.17 3.94 2.79 1.24.82 2.79 1.68 4.56 2.53 1.78.82 3.8 1.6 5.98 2.22 2.18.6 4.31.98 6.26 1.2 1.95.19 3.72.26 5.21.2 2.96-.1 4.78-.45 4.8-.34zM210.13 318.6c.02.01-.02.2-.1.57-.1.42-.23.96-.39 1.61-.18.69-.39 1.55-.6 2.54-.21 1-.49 2.12-.71 3.39-.5 2.52-.95 5.54-1.31 8.91-.32 3.37-.54 7.09-.52 11 .05 3.91.32 7.63.7 11 .42 3.36.92 6.38 1.46 8.88.24 1.26.53 2.38.76 3.38.22.99.45 1.84.64 2.53l.42 1.6c.09.37.13.56.11.57-.02.01-.09-.18-.21-.54-.13-.41-.3-.94-.51-1.58-.22-.68-.48-1.53-.73-2.52-.26-.99-.58-2.11-.84-3.37-.59-2.51-1.13-5.53-1.58-8.9-.41-3.38-.7-7.12-.74-11.05-.02-3.93.21-7.67.56-11.06.39-3.38.88-6.41 1.43-8.93.24-1.27.54-2.39.78-3.38.23-1 .48-1.84.69-2.53.2-.64.36-1.17.48-1.58.13-.36.2-.55.21-.54zM311 271.06c.05.09-1.54.77-3.71 2.46-2.16 1.67-4.83 4.49-6.54 8.31-1.71 3.82-2.03 7.7-1.84 10.42.18 2.74.73 4.38.63 4.4-.03.01-.19-.39-.41-1.14-.22-.75-.45-1.85-.6-3.24-.3-2.76-.03-6.74 1.73-10.66 1.75-3.92 4.54-6.78 6.8-8.39 1.13-.82 2.11-1.38 2.81-1.72.71-.32 1.12-.46 1.13-.44z"/><path class="st2" d="M308.64 329.66s-.13.37-.52 1.01c-.38.63-1.07 1.53-2.2 2.39-1.12.87-2.69 1.7-4.65 2.18-1.96.5-4.31.57-6.81.14-2.51-.42-5.14-1.32-7.9-2.4-2.76-1.07-5.67-2.32-8.88-3.09-1.6-.38-3.28-.63-5-.61-1.71.03-3.46.31-5.17.85-3.43 1.06-6.64 3.05-9.78 5.22-3.14 2.19-6.12 4.51-9.31 6.28-3.16 1.78-6.54 3.1-9.92 3.31-1.68.11-3.35-.06-4.89-.46-1.55-.41-2.98-1.02-4.3-1.69-2.65-1.37-4.9-2.98-7.01-4.35-4.16-2.81-8-4.36-10.8-4.61-2.8-.3-4.31.33-4.32.23 0-.01.09-.04.27-.09.18-.05.45-.14.82-.2.73-.14 1.83-.26 3.25-.14 2.85.19 6.78 1.72 10.98 4.51 2.12 1.35 4.38 2.94 7.01 4.27 1.31.66 2.72 1.24 4.22 1.63 1.51.38 3.11.54 4.75.43 3.28-.21 6.58-1.5 9.7-3.27 3.15-1.76 6.1-4.06 9.26-6.26 3.15-2.19 6.4-4.2 9.92-5.28 1.75-.55 3.55-.83 5.31-.86 1.77-.01 3.49.25 5.12.64 3.26.8 6.18 2.07 8.93 3.15 2.74 1.09 5.34 2 7.8 2.44 2.46.45 4.75.41 6.67-.06 1.93-.44 3.48-1.23 4.6-2.06a9.078 9.078 0 002.23-2.29c.42-.62.59-.98.62-.96zM346.9 315.03c.02.01-.05.14-.2.39-.13.26-.38.6-.72 1.04-.69.85-1.92 1.94-3.7 2.8-1.78.86-4.09 1.46-6.7 1.57-2.61.12-5.45-.29-8.38-.77-2.93-.48-5.72-.95-8.27-.95-2.55-.01-4.84.41-6.63 1.1-1.8.68-3.1 1.6-3.88 2.33-.79.73-1.14 1.23-1.18 1.2-.01-.01.07-.14.23-.37.16-.24.43-.57.81-.97.76-.79 2.06-1.78 3.89-2.53 1.83-.75 4.17-1.22 6.77-1.23 2.61-.02 5.43.44 8.36.92 2.92.48 5.73.9 8.27.81 2.54-.09 4.81-.63 6.56-1.42 1.75-.8 2.98-1.8 3.7-2.6.73-.82 1.02-1.35 1.07-1.32zM355.13 339.7c.02.01-.04.15-.17.42-.13.26-.3.67-.6 1.14-.56.97-1.5 2.32-2.98 3.7-.73.7-1.6 1.38-2.59 2.04-1 .64-2.12 1.24-3.37 1.73-2.48.97-5.48 1.46-8.55 1.1-3.07-.32-5.87-1.14-8.44-1.69-2.56-.58-4.92-.86-6.89-.78-1.98.06-3.54.47-4.57.87-1.03.4-1.55.74-1.58.7-.01-.02.11-.11.36-.27.24-.17.63-.38 1.14-.61 1.02-.47 2.61-.95 4.63-1.05 2.01-.12 4.42.12 7.01.68 2.59.53 5.39 1.32 8.4 1.64 3 .35 5.89-.11 8.32-1.03 1.21-.47 2.32-1.04 3.31-1.65.97-.63 1.84-1.28 2.57-1.95 1.48-1.32 2.45-2.61 3.06-3.54.62-.92.89-1.47.94-1.45zM210.08 370.36c-.05-.08 1.7-.17 3.91-2.09 1.11-.92 2.28-2.25 3.69-3.75 1.42-1.5 3.25-3.03 5.49-4.37 2.26-1.3 4.95-2.42 8.02-2.82 1.53-.21 3.13-.24 4.77-.02 1.64.21 3.27.71 4.86 1.36 3.21 1.3 6.27 3.24 9.65 4.74 1.69.74 3.48 1.36 5.36 1.6.94.13 1.89.14 2.84.08.95-.09 1.9-.28 2.84-.55 3.76-1.1 7.01-3.27 10.34-4.96a52.44 52.44 0 0110.04-3.94 56.54 56.54 0 0118.08-2.03c5.2.28 9.33 1.21 12.11 2.01 1.4.38 2.46.77 3.18 1.04.34.13.6.22.81.3.18.07.27.11.27.12s-.1-.02-.29-.07c-.21-.07-.49-.15-.83-.25-.73-.23-1.79-.59-3.2-.94-2.79-.74-6.91-1.6-12.07-1.84-5.15-.22-11.36.25-17.93 2.12-3.28.93-6.64 2.22-9.93 3.93-3.3 1.68-6.56 3.87-10.43 5.01-.96.27-1.95.47-2.94.56-.99.07-1.99.06-2.96-.08-1.95-.25-3.78-.89-5.5-1.64-3.43-1.53-6.48-3.47-9.63-4.76-1.57-.65-3.16-1.14-4.74-1.36-1.59-.22-3.15-.2-4.65-.01-3 .38-5.65 1.45-7.89 2.71a25.556 25.556 0 00-5.47 4.25c-1.43 1.47-2.63 2.8-3.77 3.71-1.13.92-2.16 1.44-2.9 1.68-.72.25-1.13.26-1.13.26zM197.98 359.58c-.04.07-.44-.62-1.64-.86-.59-.11-1.34-.1-2.2.04-.86.12-1.83.36-2.94.52-1.11.14-2.39.08-3.66-.33-1.27-.41-2.51-1.14-3.65-2.09-1.14-.95-2.16-2.15-3.06-3.49-.88-1.35-1.59-2.87-2.23-4.43-1.28-3.14-2.24-6.21-3.66-8.74-1.35-2.56-3.29-4.41-5.16-5.52a10.4 10.4 0 00-2.69-1.14c-.84-.19-1.59-.26-2.2-.23-1.22.06-1.87.33-1.88.27-.01-.02.15-.08.46-.19.31-.12.78-.22 1.41-.28.62-.06 1.4-.02 2.28.15.87.2 1.83.55 2.81 1.1 1.95 1.1 3.98 2.99 5.39 5.61 1.47 2.57 2.46 5.67 3.72 8.77.64 1.55 1.33 3.04 2.18 4.35.87 1.3 1.85 2.47 2.94 3.4 1.09.93 2.27 1.64 3.48 2.05 1.2.41 2.4.49 3.48.38 2.15-.29 3.97-.74 5.23-.39.62.15 1.04.44 1.28.66.23.24.32.38.31.39zM207.48 330.11c.01.02-.11.07-.33.15-.22.1-.56.19-1.01.28-.89.18-2.26.18-3.83-.3-1.57-.48-3.3-1.45-4.91-2.89-1.61-1.44-3.03-3.34-4.51-5.29-1.48-1.95-2.93-3.78-4.56-5.1-1.63-1.31-3.38-2.13-4.91-2.47-1.54-.35-2.85-.23-3.7 0-.86.23-1.29.48-1.32.43-.01-.02.1-.08.3-.2.2-.13.53-.27.96-.42.86-.3 2.22-.48 3.83-.16 1.61.31 3.44 1.12 5.14 2.46 1.7 1.35 3.19 3.21 4.67 5.16 1.48 1.96 2.87 3.83 4.42 5.25 1.54 1.41 3.2 2.39 4.7 2.89 1.5.51 2.81.56 3.68.45.9-.11 1.37-.3 1.38-.24z"/><g><path class="st12" d="M254.5 184.72c-11.62-26.21-45.76-10.64-45.76-10.64-16.1 5.91-18.38 24.02-14.66 36.37 4.13 13.72 9.71 30.32 15.01 39.73 10.66 18.93 27.03 15.77 27.03 15.77l5.47 13.48c4.79 11.8 18.3 17.42 30.04 12.49 11.38-4.77 16.92-17.71 12.53-29.24l-29.66-77.96z"/><path class="st8" d="M203.56 223.86c.46 1.38 2 2.13 3.45 1.68 1.45-.45 2.25-1.93 1.8-3.31-.46-1.38-2-2.13-3.45-1.68-1.45.44-2.26 1.93-1.8 3.31zM201.16 220.4c.44.22 1.86-1.95 4.64-2.98 2.76-1.06 5.33-.39 5.5-.84.09-.21-.46-.69-1.59-1.01-1.11-.32-2.83-.39-4.56.26-1.73.65-2.94 1.83-3.54 2.79-.6.97-.66 1.68-.45 1.78zM229.55 215.53c.46 1.38 2 2.13 3.45 1.68 1.45-.45 2.25-1.93 1.8-3.31-.46-1.38-2-2.13-3.45-1.68-1.45.44-2.26 1.93-1.8 3.31zM228.46 210.27c.45.22 1.87-1.96 4.64-2.98 2.76-1.06 5.33-.39 5.5-.84.09-.21-.46-.69-1.59-1.01-1.11-.32-2.83-.39-4.56.26-1.73.65-2.94 1.83-3.54 2.79-.6.97-.66 1.68-.45 1.78zM226.71 234.67c-.05-.16-1.88.18-4.81.86-.74.19-1.46.3-1.76-.14-.36-.45-.34-1.32-.31-2.28.03-1.96.06-4.02.09-6.18.06-8.77-.18-15.87-.53-15.87-.35 0-.69 7.11-.75 15.87 0 2.16 0 4.21.01 6.18.03.91-.09 1.99.66 2.92.39.46 1.05.65 1.55.6.51-.03.91-.17 1.27-.28 2.88-.89 4.63-1.52 4.58-1.68z"/><path class="st9" d="M236.13 265.95s13.86-4.15 24.28-17.18c0 0-1.6 16.31-22.44 21.9l-1.84-4.72zM231.44 243.76c-.83-.63-1.21-1.79-.92-2.79.29-1 1.23-1.78 2.26-1.87-.48-.9-.14-2.11.65-2.76.79-.65 1.92-.79 2.91-.53 1.92.5 3.31 2.47 3.24 4.45-.07 1.98-1.53 3.81-3.42 4.41-1.89.6-4.08-.01-5.47-1.43"/><path class="st8" d="M235.59 233.56c-.46.14.65 3.16-1.13 6.25-1.78 3.1-5.12 3.95-4.98 4.38.03.2.93.32 2.3-.15 1.35-.45 3.13-1.6 4.22-3.49 1.09-1.9 1.11-3.9.76-5.17-.35-1.3-.97-1.92-1.17-1.82z"/><g><path class="st8" d="M224.23 206.3c.55.65 3.19-.73 6.6-1.55 3.39-.88 6.37-.91 6.55-1.74.07-.4-.65-.94-1.98-1.27-1.32-.34-3.26-.41-5.3.1-2.03.51-3.71 1.49-4.72 2.41-1.02.92-1.4 1.74-1.15 2.05z"/></g><g><path class="st8" d="M197.35 211.61c.72.45 2.39-.91 4.68-1.8 2.26-.96 4.4-1.15 4.61-1.98.08-.39-.46-.91-1.54-1.19-1.06-.28-2.64-.25-4.21.38-1.56.64-2.72 1.72-3.28 2.66-.57.96-.59 1.71-.26 1.93z"/></g><g><path class="st8" d="M240.3 217.33c-.01.35-.29.63-.63.62a.626.626 0 01-.6-.65c.01-.35.29-.63.64-.62.33.01.6.3.59.65z"/></g><g><path class="st8" d="M307.03 266.82c0-.05-2.02-21.35-18.46-36.03-16.45-14.7 5.84-20.38-8.46-39.77-4.72-6.4-9.97-12.22-16.73-16.4-1.2-.74-2.32-1.62-3.37-2.54-2.79-2.46-5.22-5.34-8.25-7.5-2.28-1.62-5.04-2.8-7.78-2.84-1.66-.68-3.4-1.2-5.23-1.47-8.02-1.21-15.97 2.02-23.45 5.17-7.23 3.05-26.67 2.32-20.52 22.19 1.28-3.31 6.25-6.04 10.15-2.79 2.72 2.27 4.1 4.27 4.75 7.75.87 4.63 2.23 9.76 7.84 10.95 1.36.29 2.79.25 4.16-.06 4.68-1.05 8.44-8.13 17.38-6.45 0 0 8.7 2.7 9.21 8.17.51 5.47-2.52 15.63 2.84 20.47 5.36 4.84 6.26 4.7 6.11 8.88-.03.96-.04 1.62-.09 2.1-.68 6.61-1.82 35.35 27.5 30.47l9.86-.6 12.54.3z"/></g><g><path class="st8" d="M245.49 164.65c1.29-6.03 4.15-11.82 8.72-15.95s10.95-6.42 17.03-5.41c6.08 1.01 11.6 5.6 13.03 11.6 1.43 5.99-1.81 12.95-7.57 15.13-4.36 1.65-9.21.57-13.87.46-4.66-.11-10.12 1.39-11.76 5.75"/></g><g><path class="st7" d="M264.12 168.96c-.12-1.22-1.16-2.16-2.29-2.64-1.12-.48-2.36-.62-3.53-.98a9.927 9.927 0 01-4.46-2.83c-1-1.1-1.74-2.42-2.72-3.54-.98-1.12-2.31-2.07-3.8-2.07-1.18 0-2.34.65-2.96 1.65a3.55 3.55 0 00-.14 3.39c3.76 3.07 7.57 6.37 11.85 8.67 1.5.8 3.1 1.62 4.79 1.52 1.69-.09 3.43-1.48 3.26-3.17z"/></g><g><path class="st8" d="M318.4 270.08c-.02 0 .01-.29.07-.83.08-.54.13-1.34.19-2.37.09-2.05-.02-5.07-.93-8.63-.9-3.55-2.68-7.67-5.81-11.39-3.1-3.76-7.58-6.81-12.34-9.81-4.77-2.99-9.34-5.98-12.66-9.65-1.67-1.81-3.02-3.77-3.95-5.76-.94-1.99-1.41-4.02-1.56-5.88-.33-3.75.73-6.76 1.82-8.51.56-.88 1.09-1.5 1.48-1.88.4-.38.61-.57.62-.55.06.05-.87.77-1.93 2.54-1.03 1.75-2 4.7-1.63 8.37.17 1.82.65 3.79 1.58 5.73.92 1.94 2.26 3.85 3.91 5.62 3.29 3.59 7.82 6.55 12.59 9.54 4.76 2.99 9.29 6.09 12.43 9.94 3.16 3.8 4.93 8 5.8 11.61.88 3.62.93 6.67.78 8.73-.09 1.03-.18 1.83-.29 2.37-.09.53-.15.81-.17.81z"/></g><g><path class="st11" d="M255.07 169.89c.02.01-.1.27-.34.75-.23.49-.6 1.19-1.12 2.08a40.676 40.676 0 01-5.16 6.99 43.47 43.47 0 01-9.97 8.16c-2.1 1.23-4.38 2.42-6.92 3.24-2.52.8-5.34 1.31-8.17.76-1.4-.28-2.74-.84-3.88-1.65-1.14-.8-2.08-1.83-2.87-2.91-1.56-2.18-2.59-4.53-3.76-6.63-.58-1.05-1.2-2.05-1.88-2.96-.67-.92-1.47-1.67-2.28-2.35-1.67-1.31-3.52-2.13-5.26-2.59-3.52-.92-6.56-.43-8.46.22-1.93.66-2.85 1.35-2.89 1.29-.01-.01.22-.17.68-.46.22-.15.52-.32.88-.48.35-.18.77-.38 1.26-.54 1.91-.72 5-1.28 8.62-.39 1.79.45 3.7 1.27 5.44 2.61.84.7 1.68 1.48 2.37 2.41.71.92 1.34 1.94 1.93 3 1.2 2.12 2.23 4.45 3.76 6.56.76 1.05 1.66 2.03 2.75 2.79a9.6 9.6 0 003.68 1.57c2.69.53 5.44.05 7.91-.73 2.48-.8 4.75-1.96 6.83-3.17 4.16-2.44 7.47-5.32 9.94-7.99 2.5-2.66 4.16-5.13 5.25-6.85.54-.87.94-1.55 1.2-2.02.29-.47.44-.71.46-.71z"/></g><g><path class="st11" d="M257.97 171.89c.04 0 .11.49.21 1.39.04.45.04 1 .06 1.65-.03.64-.04 1.38-.16 2.18-.34 3.2-1.77 7.66-4.96 11.51-1.58 1.92-3.4 3.47-5.24 4.6-1.83 1.14-3.62 1.86-5.1 2.5-1.48.62-2.67 1.14-3.48 1.53-.81.39-1.25.62-1.27.58-.02-.03.39-.32 1.18-.76.79-.44 1.96-1.02 3.42-1.69 1.45-.68 3.22-1.43 4.99-2.57 1.78-1.12 3.55-2.65 5.09-4.52 3.12-3.75 4.57-8.09 5-11.22.49-3.18.13-5.17.26-5.18z"/></g><g><path class="st11" d="M290.74 265.05c-.02 0-.01-.29.01-.85.03-.55.07-1.37.05-2.42-.03-2.1-.27-5.16-1.26-8.78-.53-1.8-1.22-3.74-2.17-5.73-.97-1.98-2.19-4.01-3.7-5.97a33.231 33.231 0 00-5.42-5.53c-2.1-1.69-4.48-3.21-6.72-5.04-1.12-.92-2.18-1.91-3.09-3a15.64 15.64 0 01-2.25-3.55c-1.14-2.52-1.62-5.16-1.92-7.64-.29-2.49-.42-4.86-.65-7.06-.21-2.2-.62-4.22-1.17-6.01-1.09-3.6-2.95-6.13-4.58-7.43-1.65-1.29-2.83-1.58-2.8-1.65.01-.02.28.08.81.27.52.21 1.26.59 2.12 1.22 1.7 1.28 3.66 3.84 4.81 7.48.58 1.81 1.02 3.86 1.25 6.07.25 2.21.39 4.58.69 7.05.32 2.46.79 5.04 1.91 7.48 1.1 2.45 2.99 4.56 5.21 6.35 2.21 1.81 4.58 3.33 6.71 5.05a33.13 33.13 0 015.49 5.64c1.52 2 2.74 4.06 3.71 6.07.94 2.03 1.62 3.99 2.14 5.82.96 3.68 1.15 6.77 1.11 8.88 0 1.06-.08 1.88-.14 2.43-.09.57-.13.86-.15.85z"/></g><g><path class="st11" d="M283.15 151.37c-.06.12-1.63-1.26-4.76-2.03-3.07-.79-7.77-.67-12.1 1.64-4.33 2.33-7.17 5.95-8.84 8.67-.84 1.37-1.44 2.53-1.83 3.35-.39.81-.6 1.27-.64 1.25-.03-.01.12-.49.45-1.34.34-.84.89-2.04 1.7-3.45 1.6-2.79 4.46-6.53 8.91-8.93 4.46-2.39 9.31-2.44 12.43-1.54 1.58.44 2.78 1.03 3.54 1.53.4.23.66.47.86.61.2.14.29.23.28.24z"/></g><g><path class="st11" d="M281.48 163.62c-.05.08-1.18-.76-3.25-1.64-2.04-.88-5.1-1.71-8.51-1.52a19.19 19.19 0 00-8.29 2.45c-1.95 1.1-2.98 2.07-3.04 1.99-.02-.02.21-.29.69-.71.47-.43 1.2-1 2.17-1.6 1.92-1.21 4.94-2.46 8.45-2.65 3.51-.19 6.64.71 8.69 1.7 1.03.49 1.82.98 2.33 1.35.52.37.78.6.76.63z"/></g></g><g><path class="st6" d="M216.46 444.76l-88.48-7.47 76.12-22.23 80.08.13z"/><path class="st8" d="M216.46 444.76s.42-.21 1.23-.57c.83-.37 2.03-.9 3.59-1.6l13.68-6.04c11.82-5.19 28.72-12.6 49.13-21.55l.09.42c-23.04-.03-50.52-.05-80.08-.09l.07-.01c-2.14.63-4.45 1.3-6.77 1.98-25.08 7.31-48.76 14.22-69.36 20.22l-.05-.45c26.3 2.26 48.41 4.16 63.95 5.5 7.76.68 13.88 1.22 18.08 1.59 2.08.19 3.69.34 4.78.44.53.05.94.09 1.23.12.29.02.43.04.43.04s-.14 0-.41-.02c-.29-.02-.69-.05-1.22-.09-1.1-.08-2.7-.21-4.78-.37-4.2-.34-10.32-.83-18.08-1.46-15.56-1.29-37.69-3.13-64.02-5.31l-1.25-.1 1.2-.35c20.6-6.02 44.27-12.94 69.34-20.27 2.32-.68 4.63-1.35 6.77-1.98l.04-.01h.04c29.56.06 57.05.12 80.08.17h1.05l-.96.42-49.25 21.4c-5.91 2.55-10.54 4.55-13.72 5.92-1.57.67-2.78 1.19-3.61 1.54-.8.35-1.22.51-1.22.51z"/><path class="st1" d="M127.98 437.29l-85.12-6.28 81.17-15.36h76.94z"/><path class="st8" d="M127.98 437.29s.45-.16 1.33-.43c.89-.27 2.19-.67 3.88-1.19 3.42-1.03 8.41-2.53 14.77-4.44 12.75-3.8 30.98-9.24 52.94-15.79l.06.43c-22.26.01-48.63.02-76.93.04h.05a252232.594 252232.594 0 01-81.18 15.32l-.03-.45c25.39 1.91 46.66 3.52 61.59 4.64 7.45.58 13.33 1.03 17.35 1.34 2 .16 3.53.29 4.58.37.51.05.9.08 1.18.1l.41.06s-.13 0-.4-.01c-.28-.02-.67-.04-1.17-.07-1.05-.07-2.58-.17-4.58-.3-4.02-.28-9.89-.69-17.35-1.22-14.95-1.08-36.23-2.62-61.64-4.45l-1.76-.13 1.73-.33 73.86-14c2.51-.47 5-.94 7.31-1.38h.04c28.3.01 54.67.03 76.93.04h1.53l-1.47.43c-22 6.48-40.25 11.86-53.03 15.62-6.37 1.86-11.37 3.32-14.79 4.32-1.7.49-3 .86-3.89 1.12-.87.25-1.32.36-1.32.36z"/><path class="st6" d="M127.98 437.29s-1.99-18.49-17.34-16.97c-15.35 1.52-35.71 11.82-52.45 11.82l-17.97-1.4 38.32-7.89s95.11-20.09 95.11-19.46c0 .63 31.99-7.07 30.85 11.89l-76.52 22.01z"/><path class="st8" d="M127.98 437.29s.49-.16 1.41-.43c.94-.28 2.31-.68 4.09-1.2 3.58-1.04 8.82-2.57 15.5-4.52 13.35-3.87 32.44-9.4 55.45-16.07l-.16.2c.09-1.7-.05-3.47-.68-5.09-.61-1.63-1.71-3.08-3.13-4.15-2.88-2.16-6.65-2.96-10.38-3.28-3.76-.3-7.64-.08-11.54.36-.98.12-1.96.25-2.94.37-.49.06-.98.14-1.49.18-.13.01-.24.03-.43.01l-.09-.02c-.02 0-.12-.06-.15-.14-.02-.11-.07-.14.02.04.15.11.13.06.12.07h-.03l-.17.01-.73.11c-1.97.33-3.95.72-5.95 1.1-15.98 3.16-32.93 6.71-50.49 10.36-13.65 2.86-26.92 5.64-39.64 8.3-12.73 2.61-24.89 5.11-36.31 7.46l-.03-.46 17.97 1.41h-.02c6.08-.08 11.85-1.22 17.21-2.61 5.37-1.39 10.39-2.97 15.12-4.4 4.73-1.43 9.18-2.72 13.37-3.62 2.09-.45 4.12-.8 6.07-1.02 1.95-.25 3.86-.21 5.6.17 3.54.73 6.15 2.91 7.83 5.06 1.7 2.19 2.63 4.37 3.27 6.15.63 1.79.94 3.21 1.12 4.17.18.97.21 1.48.21 1.48s-.03-.13-.07-.37c-.04-.24-.1-.61-.21-1.09-.2-.95-.53-2.37-1.18-4.14-.66-1.76-1.61-3.92-3.3-6.07-1.67-2.12-4.25-4.24-7.73-4.94-1.72-.37-3.59-.4-5.52-.14-1.94.23-3.95.58-6.03 1.04-4.17.91-8.6 2.22-13.33 3.66s-9.75 3.05-15.13 4.45c-5.37 1.41-11.16 2.57-17.31 2.67h-.02l-17.97-1.38-1.65-.13 1.62-.34c11.42-2.36 23.58-4.87 36.31-7.49 12.72-2.67 25.99-5.45 39.63-8.32 17.56-3.65 34.5-7.19 50.5-10.34 2-.39 3.98-.77 5.97-1.1 2.01-.05 3.94-.45 5.92-.64 3.92-.44 7.82-.66 11.63-.35 3.77.33 7.61 1.14 10.61 3.39a9.67 9.67 0 013.27 4.35c.65 1.71.79 3.53.7 5.28l-.01.15-.15.04c-23.1 6.59-42.26 12.06-55.66 15.89-6.67 1.89-11.9 3.38-15.48 4.39-1.77.5-3.13.88-4.06 1.14-.89.27-1.35.39-1.35.39z"/><path class="st6" d="M214.59 438.58c-1.61 0-58.5-4.46-58.5-4.46"/><path class="st8" d="M156.08 434.11c0-.02.21-.02.6-.01.45.02 1.01.05 1.71.08 1.55.1 3.68.23 6.27.4 5.36.39 12.64.92 20.68 1.5 8.05.64 15.32 1.23 20.68 1.65 2.59.23 4.72.42 6.27.56.69.07 1.26.13 1.7.18.39.05.59.08.59.1 0 .02-.2.02-.59.01-.45-.02-1.01-.05-1.7-.08-1.55-.1-3.67-.23-6.27-.4-5.36-.39-12.64-.92-20.69-1.5-8.05-.64-15.33-1.23-20.68-1.65-2.59-.23-4.72-.42-6.26-.56-.69-.07-1.26-.13-1.7-.18-.4-.04-.61-.08-.61-.1z"/><path class="st6" d="M223.98 434.71c-1.61 0-58.5-4.46-58.5-4.46"/><path class="st8" d="M165.48 430.25c0-.02.21-.02.6-.01.45.02 1.01.05 1.71.08 1.55.1 3.68.23 6.27.4 5.36.39 12.64.92 20.68 1.5 8.05.64 15.32 1.23 20.68 1.65 2.59.23 4.72.42 6.27.56.69.07 1.26.13 1.7.18.39.05.59.08.59.1s-.2.02-.59.01c-.45-.02-1.01-.05-1.7-.08-1.55-.1-3.67-.23-6.27-.4-5.36-.39-12.64-.92-20.69-1.5-8.05-.64-15.33-1.23-20.68-1.65-2.59-.23-4.72-.42-6.26-.56-.69-.07-1.26-.13-1.7-.18-.41-.05-.61-.08-.61-.1z"/><path class="st6" d="M238.9 430.25c-1.61 0-61.21-3.56-61.21-3.56"/><path class="st8" d="M177.69 426.69c0-.02.22-.02.63-.02.46.01 1.06.03 1.79.05 1.62.07 3.84.17 6.56.3 5.6.31 13.22.72 21.64 1.18 8.42.52 16.04.99 21.64 1.33 2.72.19 4.94.35 6.56.46.73.06 1.32.11 1.78.15.41.04.62.07.62.09s-.21.02-.62.02c-.46-.01-1.05-.03-1.78-.05-1.62-.07-3.84-.17-6.56-.3-5.6-.31-13.22-.72-21.65-1.18-8.42-.52-16.04-.99-21.64-1.33-2.72-.19-4.94-.35-6.56-.46-.73-.06-1.32-.11-1.78-.15-.42-.04-.63-.07-.63-.09z"/><path class="st6" d="M251.72 425.37c-1.61 0-61.83-2.23-61.83-2.23"/><path class="st8" d="M189.9 423.14c0-.02.22-.03.63-.03.47 0 1.07.01 1.8.02 1.63.04 3.88.09 6.63.16 5.65.18 13.35.44 21.86.71 8.51.34 16.2.64 21.86.87 2.75.13 4.99.24 6.62.32.74.05 1.33.08 1.8.11.41.03.63.06.63.08 0 .02-.22.03-.63.03-.47 0-1.06-.01-1.8-.02-1.63-.04-3.88-.09-6.63-.16-5.65-.18-13.35-.44-21.86-.71-8.51-.34-16.2-.64-21.86-.87-2.75-.13-4.99-.24-6.62-.32-.74-.05-1.33-.08-1.8-.11-.42-.04-.63-.07-.63-.08z"/><g><path class="st6" d="M263.16 419.83c-1.61 0-61.05-.25-61.05-.25"/><path class="st8" d="M202.11 419.58c0-.14 13.67-.2 30.52-.14 16.86.07 30.53.24 30.53.38s-13.67.2-30.53.14c-16.85-.06-30.52-.24-30.52-.38z"/></g><g><path class="st8" d="M113.77 415.69c-.01-.03.41-.18 1.2-.36.78-.18 1.94-.36 3.39-.39 2.87-.09 6.99.59 10.76 2.98 3.77 2.39 6.14 5.83 7.28 8.47.58 1.32.92 2.45 1.09 3.23.17.79.22 1.23.19 1.24-.11.03-.38-1.75-1.61-4.31-1.2-2.55-3.56-5.85-7.22-8.18-3.66-2.32-7.66-3.05-10.47-3.05-2.87-.03-4.59.48-4.61.37z"/></g><g><path class="st8" d="M123.12 413.22c-.01-.03.41-.18 1.2-.36.78-.18 1.94-.36 3.39-.39 2.87-.09 6.99.59 10.76 2.98 3.77 2.39 6.14 5.83 7.28 8.47.58 1.32.92 2.45 1.09 3.23.17.79.22 1.23.19 1.24-.11.03-.38-1.75-1.61-4.31-1.2-2.55-3.56-5.85-7.22-8.18-3.66-2.32-7.66-3.05-10.47-3.05-2.87-.04-4.59.48-4.61.37z"/></g><g><path class="st8" d="M132.8 411.49c-.01-.03.41-.18 1.18-.37s1.9-.41 3.32-.54c1.42-.12 3.13-.11 5 .23 1.86.35 3.86 1.07 5.69 2.27 3.69 2.4 6.01 5.8 7.12 8.4.57 1.31.9 2.42 1.07 3.19.17.78.21 1.21.18 1.22-.1.03-.37-1.73-1.58-4.26-1.18-2.52-3.49-5.79-7.07-8.12-3.57-2.38-7.63-2.73-10.38-2.58-2.81.18-4.51.66-4.53.56z"/></g><g><path class="st8" d="M143.14 409.36c-.01-.03.39-.17 1.13-.37.74-.2 1.83-.45 3.2-.61 1.37-.16 3.04-.21 4.85.15 1.81.35 3.71 1.16 5.44 2.37 3.51 2.41 5.7 5.73 6.77 8.26.54 1.27.85 2.35 1.02 3.1.16.75.2 1.18.17 1.18-.1.03-.37-1.67-1.52-4.13-1.13-2.44-3.31-5.64-6.73-7.98-1.69-1.18-3.51-1.97-5.25-2.33-1.74-.37-3.37-.37-4.71-.25-2.71.25-4.35.71-4.37.61z"/></g><g><path class="st8" d="M153.77 407.7c-.01-.03.38-.17 1.08-.38.7-.21 1.72-.51 3.01-.78 1.28-.27 2.89-.5 4.65-.18 1.75.33 3.53 1.24 5.14 2.44 3.28 2.42 5.31 5.62 6.31 8.05.51 1.22.79 2.25.95 2.97.15.72.19 1.13.16 1.13-.1.02-.36-1.59-1.44-3.96-1.07-2.35-3.09-5.43-6.29-7.78-1.58-1.18-3.27-2.06-4.92-2.39-1.66-.33-3.21-.15-4.49.07-2.56.49-4.14.9-4.16.81z"/></g></g><g><path class="st12" d="M148.9 379.53c2.7.47 5.44-.23 8.18-.36 2.73-.13 5.84.56 7.25 2.91 1.06 1.77.86 4.07 0 5.94s-2.31 3.41-3.72 4.91"/><path class="st8" d="M168.07 400.55l-42.43-54.35a.97.97 0 00-1.36-.17l-3.46 2.7a.97.97 0 00-.17 1.36l42.43 54.35c.33.42.94.5 1.36.17l3.46-2.7c.43-.33.5-.94.17-1.36z"/><path class="st8" d="M124.66 347.43l-3.22-4.13a.442.442 0 00-.61-.08l-1.55 1.21c-.19.15-.22.42-.07.61l3.22 4.13c.15.19.42.22.61.07l1.55-1.21c.18-.14.22-.41.07-.6zM162.14 403.13l6.97 5.36.71-.56-2.04-7.38z"/><g><path class="st8" d="M135.11 371.38c-.04 0-.07-.02-.1-.05l-13.44-17.21c-1.64-2.1-1.52-4.94.26-6.33l.65-.5c.05-.04.13-.03.18.02.04.05.03.13-.02.18l-.65.5c-1.67 1.31-1.77 3.99-.21 5.98l13.44 17.21c.04.05.03.13-.02.18-.03.01-.06.02-.09.02z"/></g><g><path class="st12" d="M142.77 374.13s-4.36-3.71-7.64-3.27c-3.27.44-14.18 12.22-14.62 19.2-.44 6.98-3.27 11.13 1.75 13.96 5.02 2.84 12.87 7.42 18.11 5.89 0 0 9.23 1.05 10.27-1.42 0 0 8.1 2.59 8.71-2.94 0 0 5.81-.92 5.45-4.47-.35-3.56-22.03-26.95-22.03-26.95z"/></g><g><path class="st9" d="M159.35 405.54c-.1.1-5.15-4.61-11.28-10.54-6.13-5.92-11.02-10.81-10.92-10.91.1-.1 5.15 4.61 11.29 10.54 6.12 5.92 11.01 10.81 10.91 10.91zM150.65 408.49c-.02.03-.35-.1-.95-.37-.6-.26-1.43-.7-2.44-1.29-2.02-1.17-4.65-3.05-7.35-5.36-2.7-2.31-5.01-4.54-6.68-6.16-.76-.75-1.41-1.4-1.95-1.94-.46-.46-.7-.73-.67-.76.02-.03.31.19.81.61s1.2 1.04 2.07 1.82c1.73 1.55 4.08 3.73 6.77 6.03 2.69 2.29 5.25 4.2 7.21 5.44 1.93 1.25 3.22 1.9 3.18 1.98zM140.63 409.53c-.03.06-.99-.29-2.47-1.04-1.48-.75-3.45-1.91-5.53-3.35-2.08-1.44-3.87-2.87-5.1-3.97-1.24-1.1-1.93-1.86-1.88-1.91.05-.06.83.61 2.12 1.63s3.1 2.39 5.16 3.82c2.06 1.43 3.99 2.63 5.41 3.45 1.41.84 2.32 1.3 2.29 1.37z"/></g></g><g><path class="st12" d="M347.33 377.39s-8.86-4.85-20.76-2.53c-11.9 2.32-36.83 8.26-45.45 9.26-8.62.99-45.04 9.13-45.04 9.13l3.83 21.63 118.81-.26c2.18-13.03 6.19-29.2-11.39-37.23z"/><path class="st12" d="M231.95 414.88h7.97l12.85-25.27c-1.65-.28-35.96-5.35-37.98-4.8l-8.23 29.23c0 .01 24.65.84 25.39.84z"/><path class="st12" d="M208.49 414.51c.03.05.23.09.57.13 2.83.31 15.92-.49 15.92-.49.6-1.69-.53-6.77-2.16-7.06-1.63-.3-15.56.64-15.56.64s-2.19.29-2.74 3.97c-.34 2.28 3.97 2.81 3.97 2.81z"/><path class="st12" d="M204.06 407.07c.03.05.23.09.57.13 2.83.31 15.2.17 15.74-1.33.6-1.69-.35-5.92-1.98-6.22-1.63-.3-15.56.64-15.56.64s-2.19.29-2.74 3.97c-.33 2.29 3.97 2.81 3.97 2.81z"/><path class="st12" d="M201.87 399.81c.03.05.23.09.57.13 2.83.31 15.2.17 15.74-1.33.6-1.69-.35-5.92-1.98-6.22-1.63-.3-15.56.64-15.56.64s-2.19.29-2.74 3.97c-.33 2.28 3.97 2.81 3.97 2.81z"/><path class="st12" d="M199.81 392.58c.03.05.23.09.57.13 2.83.31 15.2.17 15.74-1.33.6-1.69-.35-5.92-1.98-6.22-1.63-.3-15.56.64-15.56.64s-2.19.29-2.74 3.97c-.33 2.28 3.97 2.81 3.97 2.81z"/><path class="st9" d="M219.2 407.02c-.02.21-2.72.46-6.02.56-3.31.09-5.98 0-5.96-.21.02-.21 2.71-.46 6.02-.56 3.31-.1 5.97 0 5.96.21zM219.26 399.73c.01.21-3.83.51-8.56.66-4.74.15-8.58.1-8.59-.12-.01-.21 3.83-.51 8.56-.66 4.74-.15 8.59-.1 8.59.12zM218.68 392.31c.01.22-3.83.51-8.56.66-4.74.15-8.58.1-8.59-.12-.01-.22 3.83-.51 8.56-.66 4.74-.14 8.58-.09 8.59.12z"/><g><path class="st12" d="M238.53 387.73s-23.35-10.38-24.81-8.88c-1.46 1.5-3.71 6.32-3.71 6.32l28.52 2.56z"/></g></g></g><g id="Clock"><circle transform="rotate(-28.241 378.285 134.719)" class="st3" cx="378.28" cy="134.72" r="53.81"/><path class="st8" d="M324.59 131.2s.01.3.01.87c0 .59-.01 1.44-.01 2.56 0 .56-.01 1.19-.02 1.88.03.69.12 1.45.19 2.27.07.82.15 1.7.24 2.64.02.47.11.95.21 1.45.1.49.19 1 .29 1.53.67 4.21 2.28 9.25 5 14.65a53.348 53.348 0 0012.61 16.08c.72.62 1.46 1.24 2.2 1.88.78.59 1.6 1.13 2.41 1.71.83.55 1.61 1.2 2.51 1.68.89.5 1.78 1.01 2.69 1.52.45.25.9.52 1.37.76.48.21.96.42 1.45.64.97.43 1.95.86 2.94 1.3 1 .41 2.06.69 3.1 1.05 1.05.31 2.08.76 3.19.95 2.19.46 4.39 1.06 6.71 1.23 1.15.12 2.3.3 3.48.36 1.17.02 2.36.03 3.55.05.6 0 1.2.04 1.79 0 .6-.05 1.2-.1 1.8-.16 1.2-.12 2.42-.18 3.63-.35 2.4-.49 4.88-.8 7.27-1.62.6-.18 1.21-.36 1.82-.53.3-.09.61-.17.91-.27l.88-.36c1.18-.48 2.37-.96 3.56-1.44 1.17-.54 2.3-1.18 3.46-1.77.57-.31 1.17-.57 1.72-.93l1.65-1.07c2.27-1.35 4.29-3.09 6.4-4.75.97-.93 1.94-1.87 2.91-2.81l.73-.71.67-.77 1.33-1.56 1.34-1.56 1.19-1.69 1.19-1.7.6-.85c.18-.3.34-.6.52-.9.68-1.21 1.37-2.43 2.06-3.65.57-1.28 1.14-2.57 1.71-3.86a57.068 57.068 0 003.86-16.68c.3-5.8-.26-11.56-1.65-17.04-.4-1.36-.79-2.71-1.19-4.05-.52-1.3-1.05-2.6-1.57-3.89l-.39-.97-.48-.92-.96-1.84-.96-1.83-1.12-1.73-1.12-1.72-.56-.85-.63-.8c-.84-1.06-1.68-2.12-2.52-3.17-1.87-1.93-3.65-3.92-5.73-5.55l-1.5-1.28c-.49-.43-1.06-.77-1.58-1.15-1.07-.74-2.11-1.52-3.2-2.21-1.12-.63-2.24-1.27-3.34-1.89l-.83-.47c-.28-.14-.58-.26-.87-.39-.58-.26-1.16-.51-1.73-.77-2.26-1.12-4.67-1.76-6.99-2.56-1.18-.33-2.38-.54-3.56-.82-.59-.13-1.18-.26-1.76-.39-.59-.12-1.19-.15-1.78-.23-1.18-.14-2.36-.28-3.53-.41-1.17-.09-2.34-.06-3.49-.09-2.32-.14-4.58.17-6.81.34-1.12.04-2.2.35-3.28.52-1.08.22-2.16.37-3.21.64-1.04.3-2.06.6-3.08.9-.51.15-1.02.3-1.52.44-.49.19-.97.39-1.46.58-.96.39-1.92.77-2.86 1.15-.95.36-1.81.9-2.71 1.34-.88.47-1.77.9-2.62 1.38-.82.53-1.63 1.05-2.43 1.57a53.427 53.427 0 00-14.6 14.3c-3.4 5-5.66 9.78-6.87 13.87-.17.51-.33 1-.49 1.48-.17.47-.31.94-.4 1.41-.21.92-.4 1.79-.58 2.59-.17.8-.37 1.54-.48 2.22-.08.69-.16 1.31-.23 1.87-.14 1.11-.25 1.95-.32 2.54-.08.51-.13.81-.13.81s.02-.29.07-.87a435.605 435.605 0 01.48-4.43c.11-.69.29-1.42.46-2.23.17-.81.36-1.67.56-2.6.08-.47.22-.94.39-1.42.16-.48.32-.98.48-1.49 1.19-4.11 3.43-8.93 6.82-13.97a53.693 53.693 0 0114.64-14.44c.8-.52 1.62-1.05 2.44-1.59.85-.49 1.74-.92 2.63-1.4.9-.44 1.76-.99 2.72-1.36.95-.38 1.91-.77 2.88-1.17.49-.19.97-.39 1.47-.59l1.53-.45c1.02-.3 2.06-.61 3.1-.91 1.05-.28 2.14-.43 3.23-.65 1.09-.18 2.18-.49 3.31-.53 2.25-.18 4.53-.49 6.87-.36 1.17.03 2.34 0 3.52.09 1.18.14 2.36.27 3.56.41.6.08 1.2.12 1.79.23l1.78.39c1.19.28 2.4.49 3.59.82 2.34.8 4.77 1.44 7.06 2.57.58.26 1.16.51 1.75.77.29.13.59.25.87.39l.84.47c1.12.63 2.24 1.27 3.38 1.91 1.1.69 2.15 1.48 3.23 2.22.53.39 1.1.73 1.6 1.16l1.51 1.29c2.1 1.65 3.89 3.65 5.78 5.6.85 1.06 1.69 2.13 2.55 3.2l.64.8.57.86 1.13 1.73 1.13 1.74.97 1.85.97 1.86.49.93.4.97c.53 1.3 1.05 2.61 1.58 3.93.4 1.36.8 2.72 1.2 4.09 1.41 5.53 1.97 11.35 1.67 17.21a57.842 57.842 0 01-3.9 16.84c-.58 1.3-1.15 2.6-1.73 3.9-.7 1.23-1.39 2.46-2.08 3.68-.18.3-.34.61-.52.91l-.6.86-1.2 1.71-1.2 1.7-1.35 1.58-1.34 1.57-.67.78-.74.71c-.99.95-1.97 1.9-2.94 2.84-2.13 1.68-4.17 3.43-6.46 4.79l-1.67 1.08c-.55.36-1.16.63-1.74.94-1.17.59-2.31 1.24-3.49 1.78-1.21.49-2.4.97-3.6 1.45l-.89.36c-.3.1-.61.18-.92.28l-1.83.54c-2.41.82-4.91 1.14-7.33 1.63-1.22.17-2.45.23-3.67.35l-1.82.15c-.6.04-1.21-.01-1.81 0l-3.58-.06c-1.18-.06-2.35-.25-3.5-.37-2.33-.17-4.55-.78-6.76-1.25-1.12-.19-2.15-.64-3.21-.96-1.05-.36-2.11-.66-3.12-1.07-1-.44-1.98-.88-2.96-1.31-.49-.22-.97-.43-1.46-.65-.47-.25-.92-.52-1.38-.77-.91-.52-1.81-1.03-2.7-1.53-.9-.49-1.69-1.15-2.52-1.7-.82-.58-1.64-1.13-2.43-1.73-.74-.64-1.48-1.27-2.21-1.9a53.512 53.512 0 01-12.62-16.23c-2.71-5.44-4.3-10.51-4.94-14.74-.1-.53-.19-1.04-.28-1.54-.1-.5-.18-.98-.2-1.45-.08-.95-.15-1.83-.22-2.65-.06-.82-.15-1.58-.16-2.27.02-.69.03-1.32.04-1.89.03-1.12.05-1.97.06-2.56-.01-.54.01-.83.01-.83z"/><path class="st8" d="M402.71 136.38c0 .04-.67.09-1.9.13-1.35.03-3.1.06-5.23.11-4.44.06-10.62.1-17.6.11h-.35v-.35-3.49c0-7.79.04-14.85.1-19.96.05-2.46.08-4.5.11-6.05.04-1.43.09-2.22.14-2.22.05 0 .09.79.14 2.22.03 1.55.07 3.59.11 6.05.06 5.11.1 12.16.1 19.96v3.49l-.35-.35c6.98.01 13.16.05 17.6.11 2.13.04 3.88.08 5.23.11 1.23.04 1.9.08 1.9.13zM378.14 89.75c.19 0 .35 2.02.35 4.52 0 2.5-.16 4.52-.35 4.52-.19 0-.35-2.02-.35-4.52.01-2.49.16-4.52.35-4.52zM402.66 97.01c.14.14-1.16 1.66-2.9 3.4s-3.26 3.04-3.4 2.9c-.14-.14 1.16-1.66 2.9-3.4 1.74-1.73 3.26-3.03 3.4-2.9zM417 112.67c.09.18-1.62 1.2-3.71 2.47-2.09 1.27-3.79 2.31-3.9 2.15-.11-.15 1.42-1.46 3.54-2.75 2.11-1.28 3.98-2.04 4.07-1.87zM425.4 135.91c0 .19-2.76.35-6.16.35-3.4 0-6.16-.16-6.16-.35 0-.19 2.76-.35 6.16-.35 3.4 0 6.16.16 6.16.35zM339.93 135.09c0 .19-2.61.35-5.82.35-3.22 0-5.82-.16-5.82-.35s2.61-.35 5.82-.35c3.22 0 5.82.16 5.82.35zM345.98 152.39c.13.15-1.84 1.93-4.4 3.99-2.56 2.06-4.72 3.6-4.84 3.45-.11-.15 1.85-1.94 4.4-3.99 2.54-2.05 4.71-3.6 4.84-3.45zM360.89 165.77c.16.12-1.3 2.36-2.99 5.19-1.7 2.82-3 5.17-3.18 5.08-.17-.08.86-2.58 2.58-5.44 1.71-2.86 3.44-4.94 3.59-4.83zM378.14 183.03c-.19 0-.35-2.76-.35-6.16 0-3.4.16-6.16.35-6.16.19 0 .35 2.76.35 6.16 0 3.4-.15 6.16-.35 6.16zM404.71 174.81c-.1.15-2.51-1.23-5.08-3.48-2.58-2.24-4.28-4.44-4.14-4.56.15-.13 2.06 1.83 4.6 4.03 2.53 2.22 4.73 3.85 4.62 4.01zM417.18 161.39c-.14.14-1.96-1.47-4.08-3.59s-3.73-3.95-3.59-4.08c.14-.14 1.96 1.47 4.08 3.59 2.12 2.11 3.72 3.94 3.59 4.08zM345.41 118.52c-.14.14-1.75-1.26-3.6-3.11-1.85-1.85-3.25-3.47-3.11-3.6.14-.14 1.75 1.26 3.6 3.11 1.85 1.85 3.25 3.46 3.11 3.6z"/><g><path class="st8" d="M360.8 102.31c-.14.14-1.72-1.22-3.54-3.03-1.82-1.81-3.18-3.39-3.05-3.53.14-.14 1.72 1.22 3.54 3.03 1.82 1.81 3.18 3.39 3.05 3.53z"/></g></g></svg>