<?xml version="1.0" encoding="utf-8"?>
<!-- Generator: Adobe Illustrator 24.1.3, SVG Export Plug-In . SVG Version: 6.00 Build 0)  -->
<svg version="1.1" xmlns="http://www.w3.org/2000/svg" xmlns:xlink="http://www.w3.org/1999/xlink" x="0px" y="0px"
	 viewBox="0 0 500 500" style="enable-background:new 0 0 500 500;" xml:space="preserve">
<g id="Background_Complete">
	<g>
		<g>
			<path style="fill:#EBEBEB;" d="M125.76,289.32c0,0-10.95,3.07-1.35,26.67c9.6,23.59,16.64,35.47,16.64,35.47s1.6,5.42-2.89,5.86
				c-4.49,0.44-14.08-1.95-16.51,3.29c-2.52,5.43,1.1,11.07,8.96,16.42c7.86,5.35,24.65,17.69,26.17,18.81
				c1.49,1.1,2.85,3.68-0.16,4.47c-3.01,0.79-25.09,1.2-24.26,11.66c0.82,10.46,25.17,21.76,27.81,23.05
				c2.64,1.29,3.19,2.5,2.84,3.98c-0.35,1.48-7.78,0.92-14.06,1.29c-6.27,0.37-13.48,1.91-12.5,7.91c0.98,6,14.81,19.6,50.65,26.24
				l16.81,1.99l10.39-13.46c20.48-30.15,20.53-49.55,16.95-54.47c-3.58-4.91-9.74-0.87-14.41,3.33c-4.68,4.2-9.51,9.88-10.8,9.09
				c-1.3-0.79-1.77-2.04-0.83-4.82c0.94-2.78,10.02-28.03,3.16-35.98c-6.86-7.94-22.68,7.47-25.35,9.05
				c-2.68,1.59-3.55-1.2-3.29-3.03c0.27-1.87,3.29-22.49,5.02-31.84c1.72-9.35,0.26-15.89-5.37-17.91
				c-5.43-1.95-10.49,6.55-13.95,9.43c-3.47,2.88-6.2-2.07-6.2-2.07s-3.5-13.35-13.53-36.77c-10.03-23.42-20.13-17.6-20.13-17.6"/>
		</g>
		<g>
			<g>
				<path style="fill:#E0E0E0;" d="M201.84,473.51c-7.3-17.22-17.19-41.11-28.02-67.52c-10.83-26.41-20.65-50.31-27.86-67.57
					c-3.6-8.61-6.52-15.59-8.55-20.44c-1-2.39-1.78-4.26-2.32-5.56c-0.25-0.62-0.45-1.1-0.59-1.45c-0.13-0.33-0.18-0.5-0.18-0.5
					s0.09,0.16,0.24,0.48c0.15,0.34,0.37,0.82,0.64,1.43c0.56,1.29,1.38,3.14,2.42,5.52c2.09,4.79,5.07,11.75,8.72,20.37
					c7.3,17.22,17.19,41.1,28.01,67.51c10.83,26.42,20.66,50.32,27.86,67.58"/>
			</g>
		</g>
		<g>
			<g>
				<path style="fill:#E0E0E0;" d="M134.93,364.49c0.02-0.04,0.43,0.11,1.15,0.42c0.73,0.3,1.77,0.77,3.04,1.36
					c2.55,1.19,6.03,2.92,9.83,4.9c3.73,1.97,7.1,3.74,9.71,5.12c1.16,0.6,2.14,1.12,2.95,1.54c0.7,0.36,1.08,0.58,1.06,0.61
					c-0.02,0.04-0.43-0.11-1.16-0.41c-0.73-0.3-1.77-0.77-3.04-1.37c-2.54-1.21-6-2.99-9.8-4.97c-3.74-1.94-7.13-3.69-9.75-5.04
					c-1.16-0.6-2.15-1.11-2.96-1.52C135.29,364.74,134.91,364.52,134.93,364.49z"/>
			</g>
		</g>
		<g>
			<g>
				<path style="fill:#E0E0E0;" d="M163.92,377.45c-0.15-0.07,3.1-7.4,7.25-16.38c4.15-8.98,7.63-16.2,7.78-16.13
					c0.15,0.07-3.1,7.4-7.25,16.38C167.55,370.29,164.07,377.52,163.92,377.45z"/>
			</g>
		</g>
		<g>
			<g>
				<path style="fill:#E0E0E0;" d="M178.72,418.76c-0.03-0.03,0.25-0.38,0.77-0.99c0.61-0.7,1.35-1.56,2.22-2.57
					c1.88-2.17,4.46-5.17,7.19-8.59c2.74-3.41,5.11-6.58,6.81-8.89c0.79-1.07,1.47-1.99,2.02-2.73c0.48-0.64,0.76-0.99,0.8-0.96
					c0.03,0.02-0.19,0.41-0.61,1.09c-0.43,0.68-1.06,1.66-1.87,2.84c-1.62,2.37-3.95,5.59-6.69,9.01c-2.74,3.43-5.38,6.4-7.33,8.5
					c-0.98,1.05-1.79,1.88-2.36,2.45C179.08,418.49,178.75,418.79,178.72,418.76z"/>
			</g>
		</g>
		<g>
			<g>
				<path style="fill:#E0E0E0;" d="M149.92,412.81c0.01-0.04,0.42,0,1.15,0.11c0.73,0.11,1.79,0.28,3.1,0.51
					c2.61,0.45,6.21,1.12,10.19,1.88c3.97,0.77,7.56,1.5,10.16,2.05c1.3,0.28,2.34,0.51,3.06,0.69c0.72,0.17,1.12,0.29,1.11,0.33
					c-0.01,0.04-0.42,0-1.15-0.11c-0.73-0.11-1.79-0.28-3.1-0.51c-2.61-0.45-6.21-1.12-10.19-1.88c-3.97-0.77-7.56-1.5-10.15-2.05
					c-1.3-0.28-2.34-0.51-3.07-0.69C150.31,412.96,149.91,412.85,149.92,412.81z"/>
			</g>
		</g>
		<g>
			<g>
				<path style="fill:#E0E0E0;" d="M158.35,450.94c0.01-0.04,0.53,0.02,1.47,0.16c1.05,0.17,2.38,0.38,3.97,0.64
					c3.35,0.56,7.97,1.38,13.07,2.31c5.1,0.94,9.71,1.82,13.04,2.48c1.58,0.33,2.9,0.6,3.94,0.82c0.93,0.21,1.44,0.34,1.43,0.38
					c-0.01,0.04-0.53-0.02-1.47-0.16c-1.05-0.17-2.38-0.38-3.97-0.64c-3.35-0.56-7.97-1.38-13.08-2.31
					c-5.1-0.94-9.71-1.81-13.04-2.48c-1.58-0.33-2.9-0.6-3.94-0.82C158.86,451.11,158.35,450.98,158.35,450.94z"/>
			</g>
		</g>
		<g>
			<g>
				<path style="fill:#E0E0E0;" d="M194.45,457.31c-0.03-0.03,0.31-0.48,0.94-1.28c0.71-0.88,1.62-2,2.7-3.36
					c2.28-2.83,5.42-6.76,8.77-11.18c3.35-4.42,6.29-8.5,8.39-11.47c1.01-1.41,1.84-2.59,2.5-3.51c0.59-0.83,0.94-1.27,0.97-1.25
					c0.03,0.02-0.25,0.51-0.78,1.38c-0.54,0.87-1.34,2.11-2.35,3.62c-2.02,3.03-4.91,7.16-8.26,11.59
					c-3.35,4.43-6.55,8.33-8.91,11.09c-1.19,1.38-2.16,2.49-2.85,3.24C194.88,456.93,194.48,457.33,194.45,457.31z"/>
			</g>
		</g>
	</g>
	<g>
		<g>
			<g>
				<g>
					<g>
						<path style="fill:#F5F5F5;" d="M335.97,473.41c-23.87-15.32-30.32-45.23-30.47-72.35c-0.02-4.53-0.71-9.27,1.29-13.32
							c2-4.05,6.91-6.96,11.03-5.21c3.42,1.45,5.04,5.3,7.04,8.45c2.67,4.2,6.53,7.61,11,9.71c2.94,1.38,6.53,2.15,9.31,0.47
							c3.81-2.3,4.06-7.71,3.86-12.2c-0.38-8.38-0.76-16.75-1.15-25.13c-0.2-4.49-0.4-9.08,0.83-13.41
							c1.23-4.32,4.16-8.41,8.39-9.77c4.23-1.37,9.62,0.89,10.69,5.26c0.45,1.82,0.15,3.73,0.35,5.59c0.2,1.86,1.15,3.89,2.94,4.34
							c1.82,0.46,3.56-0.89,4.86-2.26c4.46-4.72,7.38-10.69,10.09-16.62c2.71-5.93,5.34-12,9.35-17.11
							c4.02-5.12,9.69-9.27,16.11-9.89c6.42-0.62,13.44,3.09,15.32,9.34c1.88,6.27-1.56,12.85-5.39,18.14
							c-5.67,7.85-12.47,14.86-20.11,20.74c-1.38,1.06-2.87,2.21-3.35,3.9c-0.86,3.04,2.1,5.9,5.1,6.77
							c3.4,0.98,7.02,0.49,10.54,0.77c3.52,0.27,7.38,1.67,8.84,4.93c2.02,4.52-1.63,9.49-5.29,12.79
							c-7.32,6.62-15.77,11.95-24.86,15.69c-3.26,1.34-6.7,2.54-9.27,4.97c-2.58,2.43-4.03,6.53-2.29,9.64
							c1.74,3.11,5.91,3.96,9.35,3.18c3.44-0.78,6.46-2.78,9.72-4.16c6.09-2.57,14.08-2.46,18.25,2.72
							c2.74,3.41,3.16,8.29,2.01,12.52c-1.15,4.24-3.68,7.94-6.38,11.38c-9.45,12.01-21.75,21.86-35.89,27.39
							C363.64,476.19,350.42,478.06,335.97,473.41"/>
					</g>
				</g>
			</g>
		</g>
		<g>
			<g>
				<g>
					<g>
						<g>
							<path style="fill:#E0E0E0;" d="M342.29,456.16c3.45-13.82,8.48-28.66,14.28-44c1.46-3.83,2.91-7.61,4.34-11.34
								c1.43-3.72,2.85-7.41,4.46-10.93c3.19-7.06,6.8-13.6,10.42-19.7c3.62-6.11,7.27-11.77,10.73-17.04
								c3.47-5.27,6.8-10.11,10.02-14.4c6.42-8.6,12.4-14.92,16.69-19.09c2.14-2.09,3.85-3.66,5.03-4.71
								c0.57-0.5,1.01-0.89,1.34-1.18c0.31-0.26,0.47-0.39,0.48-0.38c0.01,0.01-0.13,0.16-0.42,0.44c-0.32,0.31-0.75,0.72-1.29,1.24
								c-1.14,1.09-2.81,2.69-4.91,4.81c-4.21,4.23-10.11,10.59-16.44,19.21c-3.18,4.3-6.47,9.15-9.91,14.43
								c-3.43,5.28-7.06,10.95-10.65,17.05c-3.59,6.1-7.17,12.63-10.34,19.65c-1.6,3.5-3,7.16-4.43,10.89
								c-1.42,3.73-2.87,7.51-4.33,11.34c-5.8,15.33-10.84,30.12-14.32,43.89"/>
						</g>
					</g>
				</g>
			</g>
		</g>
		<g>
			<g>
				<g>
					<g>
						<g>
							<path style="fill:#E0E0E0;" d="M365.61,389.85c-0.06,0.01-0.24-0.67-0.51-1.9c-0.29-1.23-0.64-3.03-1.04-5.26
								c-0.81-4.45-1.72-10.64-2.7-17.46c-0.98-6.83-1.98-12.98-2.85-17.41c-0.43-2.21-0.8-4-1.07-5.24
								c-0.26-1.24-0.38-1.93-0.33-1.94c0.06-0.01,0.28,0.65,0.64,1.86c0.37,1.21,0.82,2.99,1.33,5.19
								c1.03,4.41,2.12,10.58,3.1,17.41c0.95,6.74,1.81,12.83,2.46,17.48c0.31,2.1,0.57,3.87,0.78,5.29
								C365.59,389.14,365.67,389.84,365.61,389.85z"/>
						</g>
					</g>
				</g>
			</g>
		</g>
		<g>
			<g>
				<g>
					<g>
						<g>
							<path style="fill:#E0E0E0;" d="M422.99,376.78c0,0.06-0.81,0.19-2.29,0.37c-1.48,0.19-3.62,0.45-6.25,0.87
								c-5.27,0.78-12.52,2.11-20.44,3.93c-7.93,1.83-15.03,3.8-20.13,5.37c-2.56,0.77-4.61,1.44-6.03,1.9
								c-1.42,0.46-2.21,0.7-2.23,0.64c-0.02-0.05,0.74-0.39,2.13-0.95c1.39-0.55,3.42-1.32,5.96-2.16
								c5.07-1.72,12.17-3.78,20.12-5.62c7.95-1.82,15.24-3.07,20.55-3.7c2.65-0.34,4.81-0.51,6.3-0.6
								C422.16,376.74,422.98,376.72,422.99,376.78z"/>
						</g>
					</g>
				</g>
			</g>
		</g>
		<g>
			<g>
				<g>
					<g>
						<g>
							<path style="fill:#E0E0E0;" d="M342.96,455.07c-0.03,0.01-0.17-0.22-0.42-0.69c-0.29-0.56-0.64-1.23-1.07-2.05
								c-0.92-1.79-2.19-4.41-3.71-7.66c-3.05-6.51-6.98-15.64-11.18-25.77c-4.2-10.13-8.04-19.29-10.95-25.85
								c-1.42-3.19-2.6-5.82-3.47-7.77c-0.37-0.85-0.68-1.55-0.93-2.12c-0.2-0.49-0.3-0.75-0.27-0.76c0.03-0.01,0.17,0.23,0.42,0.69
								c0.29,0.55,0.64,1.23,1.07,2.05c0.92,1.79,2.19,4.41,3.71,7.66c3.05,6.51,6.98,15.64,11.18,25.77
								c4.2,10.13,8.04,19.28,10.95,25.85c1.43,3.19,2.6,5.82,3.47,7.77c0.37,0.85,0.68,1.55,0.93,2.12
								C342.89,454.8,342.99,455.06,342.96,455.07z"/>
						</g>
					</g>
				</g>
			</g>
		</g>
		<g>
			<g>
				<g>
					<g>
						<g>
							<path style="fill:#E0E0E0;" d="M418.79,427.3c0.01,0.03-0.25,0.15-0.75,0.34c-0.59,0.22-1.32,0.5-2.2,0.84
								c-2.03,0.75-4.78,1.76-8.12,2.99c-6.86,2.53-16.29,6.12-26.7,10.11c-10.42,3.99-19.89,7.5-26.8,9.89
								c-3.45,1.19-6.26,2.13-8.21,2.74c-0.9,0.28-1.65,0.5-2.25,0.69c-0.52,0.15-0.79,0.21-0.8,0.18
								c-0.01-0.03,0.25-0.15,0.75-0.35c0.59-0.22,1.32-0.5,2.2-0.83c2.03-0.75,4.78-1.76,8.12-2.99
								c6.86-2.52,16.29-6.12,26.7-10.11c10.41-3.99,19.88-7.5,26.79-9.89c3.45-1.19,6.26-2.13,8.21-2.74
								c0.9-0.28,1.65-0.5,2.25-0.69C418.51,427.33,418.78,427.27,418.79,427.3z"/>
						</g>
					</g>
				</g>
			</g>
		</g>
	</g>
	<g>
		<path style="fill:#E0E0E0;" d="M393.14,98.28l-17.32,51.47c-1.42,4.21,0.53,8.81,4.53,10.73l0,0c4.22,2.03,9.29,0.39,11.53-3.73
			l26.17-48.15c1.98-3.65,0.32-8.2-3.54-9.72l-12.31-4.83C398.53,92.61,394.4,94.54,393.14,98.28z"/>
		<path style="fill:#E0E0E0;" d="M382.12,194.14c-4.75,5.55-13.1,6.19-18.65,1.44c-5.55-4.75-6.19-13.11-1.44-18.65
			c4.75-5.55,13.11-6.19,18.65-1.44C386.23,180.24,386.87,188.59,382.12,194.14z"/>
	</g>
	<g>
		<path style="fill:#E0E0E0;" d="M421.54,189.44l6.27,18.59c0.51,1.52,2.08,2.42,3.65,2.1l0,0c1.66-0.34,2.76-1.92,2.5-3.59
			l-3-19.57c-0.23-1.48-1.7-2.43-3.14-2.02l-4.6,1.3C421.85,186.63,421.09,188.09,421.54,189.44z"/>
		<path style="fill:#E0E0E0;" d="M439.32,219.42c-0.15,2.63-2.42,4.65-5.05,4.49c-2.63-0.15-4.65-2.42-4.49-5.05
			c0.15-2.63,2.42-4.65,5.05-4.49C437.47,214.52,439.48,216.78,439.32,219.42z"/>
	</g>
</g>
<g id="Background_Simple" style="display:none;">
	<path style="display:inline;fill:#EBEBEB;" d="M447.94,102.28c-12.37-30.44-35.45-57.58-66.12-69.35
		c-30.67-11.77-68.91-5.6-90.6,19.07c-34.98,39.78-17.99,109-55.71,146.2c-21.23,20.94-53.44,24.93-83.15,27.53
		c-29.71,2.6-61.83,5.94-83.79,26.12c-19.63,18.04-22.78,35.94-22.95,62.6c-0.33,51.49,24.39,82.73,60.52,99.87
		c33.31,16.78,82.52,25.09,103.36,25.09c107.02,4.01,118.31-25.09,162.93-56.77c27.28-19.37,56.32-55.08,69.75-85.72
		c13.43-30.64,18.5-64.38,19.65-97.82C462.97,166.28,460.31,132.72,447.94,102.28z"/>
</g>
<g id="Floor">
	<g>
		<path style="fill:#263238;" d="M475.52,477.3c0,0.14-100.98,0.26-225.51,0.26c-124.57,0-225.53-0.12-225.53-0.26
			s100.95-0.26,225.53-0.26C374.54,477.04,475.52,477.15,475.52,477.3z"/>
	</g>
</g>
<g id="Character">
	<g>
		<g>
			<path style="fill:#263238;" d="M303.75,164.19c-1.32,4.8-2.65,9.7-2.32,14.67c0.33,4.96,2.63,10.08,6.99,12.48
				c5,2.75,12.64,2.25,14.73,7.57c1.43,3.63-0.89,8.16,1.14,11.49c2.88,4.73,10.67,2.04,15.25,5.15c3.54,2.41,3.99,7.42,3.59,11.69
				c-0.39,4.27-1.2,8.88,0.94,12.59c2.47,4.29,8.16,5.96,10.51,10.32c2.89,5.36-0.55,11.89-4.41,16.6
				c-3.85,4.71-8.51,9.74-8.18,15.82l-71.79,2.2l-4.49-114.25L303.75,164.19z"/>
			<g>
				<path style="fill:#455A64;" d="M310.18,214.39c-0.05,0.01-0.13-0.55-0.52-1.47c-0.4-0.91-1.19-2.15-2.54-3.32
					c-1.35-1.17-3.2-2.26-5.39-3.17c-2.18-0.94-4.7-1.77-7.09-3.25c-1.19-0.74-2.26-1.63-3.1-2.67c-0.84-1.03-1.45-2.19-1.85-3.33
					c-0.79-2.31-0.88-4.53-0.81-6.34c0.08-1.82,0.31-3.27,0.5-4.27c0.09-0.5,0.18-0.88,0.24-1.14c0.06-0.26,0.11-0.39,0.12-0.39
					c0.04,0.01-0.04,0.56-0.17,1.56c-0.12,1-0.3,2.45-0.33,4.24c-0.03,1.79,0.11,3.95,0.89,6.17c0.4,1.1,0.99,2.19,1.8,3.17
					c0.8,0.98,1.83,1.83,2.98,2.55c2.31,1.43,4.82,2.28,7.01,3.25c2.21,0.94,4.09,2.1,5.45,3.34c1.36,1.24,2.14,2.56,2.48,3.52
					c0.17,0.48,0.27,0.87,0.3,1.14C310.19,214.25,310.2,214.39,310.18,214.39z"/>
			</g>
		</g>
		<g>
			<path style="fill:#1C2F5C;" d="M199.98,432.57l-8.33,44.72h163.96c0,0-5.62-26.46-28.96-55.76L199.98,432.57z"/>
			<path style="fill:#E7A64E;" d="M197.62,389.76l-5.88-85.53l9.74-87.55l53.24-7.43l38.95,4.31l26.57,89.86l7.16,80.08
				c0,0,3.8,12.64,8.2,27.39c2.45,8.2-0.88,17.07-8.2,21.52c-6.33,3.85-15.79,6.84-29.47,5.42c-31.55-3.29-67.32-9.05-84.59-6.17
				s-19.74-1.23-19.74-1.23s-5.45-5.35-3.75-11.51C191.54,412.73,197.62,389.76,197.62,389.76z"/>
			<g>
				<path style="fill:#FFFFFF;" d="M325.65,382.98c0.01,0.01-0.14,0.14-0.45,0.38c-0.35,0.26-0.8,0.59-1.34,0.99
					c-1.22,0.9-2.89,2.13-4.93,3.64c-4.16,3.09-9.82,7.46-16.02,12.36c-6.2,4.9-11.81,9.35-15.92,12.5c-2.05,1.58-3.73,2.84-4.9,3.7
					c-0.55,0.4-1,0.72-1.35,0.98c-0.31,0.22-0.48,0.33-0.49,0.31c-0.01-0.01,0.14-0.15,0.43-0.4c0.34-0.28,0.77-0.63,1.29-1.05
					c1.19-0.95,2.81-2.24,4.79-3.83c4.1-3.27,9.67-7.71,15.83-12.62c6.2-4.9,11.91-9.23,16.12-12.25c2.11-1.51,3.83-2.71,5.04-3.51
					c0.57-0.37,1.03-0.67,1.4-0.92C325.46,383.06,325.64,382.96,325.65,382.98z"/>
			</g>
			<g>
				<path style="fill:#263238;" d="M282.67,240.41c-0.12,0.09-1.34-1.36-2.75-3.23c-1.4-1.87-2.44-3.45-2.33-3.54
					c0.11-0.09,1.34,1.36,2.75,3.23C281.75,238.74,282.79,240.33,282.67,240.41z"/>
			</g>
			<g>
				<path style="fill:#263238;" d="M289.08,227.23c-0.13,0.09-1.26-1.72-3.34-3.24c-2.05-1.55-4.11-2.11-4.06-2.27
					c0.01-0.13,2.22,0.23,4.38,1.85C288.23,225.17,289.2,227.19,289.08,227.23z"/>
			</g>
			<g>
				<path style="fill:#263238;" d="M238.69,238.72c0.12,0.1-1.28,1.65-2.06,4.02c-0.82,2.36-0.64,4.44-0.8,4.45
					c-0.12,0.04-0.55-2.12,0.31-4.61C236.97,240.08,238.62,238.62,238.69,238.72z"/>
			</g>
			<g>
				<path style="fill:#263238;" d="M218.4,221.23c0,0.15-2.31,0.2-5.11,0.61c-2.8,0.4-5.02,1.01-5.07,0.86
					c-0.05-0.13,2.14-0.97,5-1.38C216.07,220.91,218.41,221.09,218.4,221.23z"/>
			</g>
			<g style="opacity:0.3;">
				<path d="M198.13,382.2c13.74-5.65,22.98-18.9,28.53-32.68c5.55-13.78,8.17-28.57,13.21-42.55c1.47-4.08,4.05-8.76,8.39-8.89
					c3.55-0.11,6.3,2.98,8.34,5.9c9.64,13.77,15.73,29.63,23.14,44.72c7.41,15.08,16.63,29.95,30.54,39.39
					c2.57,1.74,5.41,3.32,8.5,3.5c3.1,0.18,6.49-1.43,7.48-4.37c0.41-1.2,0.39-2.5,0.36-3.77c-0.14-7.54-0.28-15.09-0.41-22.63
					c-0.15-8.15-0.34-16.52-3.42-24.07c-4.5-11.02-14.42-18.69-23.54-26.34c-11.99-10.06-23.34-21.05-32.42-33.8
					c-3.23-4.53-6.24-9.36-10.62-12.79c-4.38-3.43-10.59-5.2-15.58-2.74c-5.56,2.74-7.67,9.44-9.27,15.42
					c-9.09,34.04-19.32,67.78-30.65,101.15"/>
			</g>
			<path style="fill:#E7A64E;" d="M196.77,377.4c10.05-0.86,17.76-11.97,20.51-21.68l22.08-77.9l-33.71-22.6l-13.44,44.79
				l9.27-83.35c0,0-30.95,7.84-38.2,45.34c-6.15,31.81-8.27,61.41-6.82,72.99C156.45,335,156.67,380.83,196.77,377.4z"/>
			<path style="fill:#E7A64E;" d="M254.3,284.37c0,0,15.33,38.8,30.47,61.31c14.47,21.52,38.94,43.19,54.64,40.63
				c15.71-2.57,23.91-42.6,23.91-57.56c0-14.95-19.21-76.47-19.21-76.47s-3.85-34.58-37.29-38.72l-23.54-1.15l35.75,88.46
				l-15.03-17.94c0,0,1.93-4.82-0.48-10.13c-2.41-5.31-18.33-18.81-18.33-18.81L254.3,284.37z"/>
			<g>
				<path style="fill:#263238;" d="M193.03,288.92c-0.04,0.01-0.17-0.43-0.37-1.23c-0.2-0.8-0.51-1.96-0.92-3.37
					c-0.82-2.83-2.16-6.69-4.1-10.75c-1.94-4.06-4.1-7.52-5.78-9.94c-0.84-1.21-1.54-2.18-2.04-2.84c-0.49-0.66-0.75-1.04-0.73-1.06
					c0.03-0.02,0.34,0.31,0.89,0.94c0.55,0.62,1.3,1.56,2.18,2.75c1.77,2.38,4,5.84,5.95,9.93c1.95,4.09,3.24,8,3.98,10.87
					c0.37,1.44,0.63,2.61,0.76,3.43C193.01,288.46,193.07,288.92,193.03,288.92z"/>
			</g>
			<g>
				<path style="fill:#263238;" d="M302.47,336.53c-0.02,0.01-0.1-0.17-0.23-0.51c-0.15-0.4-0.34-0.89-0.57-1.49
					c-0.25-0.65-0.53-1.45-0.81-2.39c-0.28-0.94-0.64-2.01-0.92-3.22c-0.31-1.2-0.64-2.52-0.9-3.95c-0.31-1.43-0.52-2.97-0.76-4.59
					c-0.4-3.26-0.65-6.86-0.6-10.65c0.08-3.79,0.46-7.38,0.98-10.62c0.3-1.61,0.56-3.15,0.93-4.56c0.31-1.43,0.69-2.73,1.04-3.92
					c0.32-1.2,0.72-2.25,1.04-3.18c0.31-0.93,0.62-1.72,0.9-2.36c0.25-0.59,0.46-1.08,0.62-1.47c0.15-0.33,0.23-0.51,0.25-0.5
					s-0.04,0.19-0.15,0.54c-0.14,0.4-0.32,0.89-0.53,1.5c-0.24,0.65-0.53,1.44-0.81,2.38c-0.29,0.94-0.66,1.99-0.96,3.19
					c-0.33,1.19-0.68,2.49-0.98,3.91c-0.35,1.41-0.59,2.94-0.88,4.54c-0.49,3.22-0.85,6.79-0.94,10.56
					c-0.05,3.76,0.18,7.34,0.55,10.58c0.23,1.61,0.42,3.15,0.71,4.57c0.24,1.43,0.55,2.75,0.83,3.95c0.25,1.21,0.59,2.27,0.84,3.22
					c0.25,0.95,0.5,1.75,0.72,2.41c0.19,0.61,0.35,1.12,0.47,1.52C302.44,336.34,302.49,336.53,302.47,336.53z"/>
			</g>
			<g>
				<path style="fill:#263238;" d="M343.72,345.67c-0.02,0-0.02-0.17,0-0.48c0.02-0.37,0.05-0.81,0.09-1.35
					c0.06-0.58,0.11-1.3,0.1-2.13c0-0.83,0.06-1.78-0.03-2.82c-0.03-0.52-0.06-1.07-0.09-1.64c-0.04-0.57-0.14-1.16-0.2-1.77
					c-0.11-1.23-0.4-2.51-0.66-3.86c-0.62-2.69-1.53-5.6-2.82-8.51c-1.33-2.9-2.91-5.5-4.51-7.75c-0.84-1.09-1.62-2.15-2.46-3.05
					c-0.41-0.45-0.79-0.92-1.19-1.32c-0.4-0.4-0.79-0.78-1.17-1.15c-0.72-0.76-1.47-1.34-2.09-1.89c-0.62-0.56-1.19-0.99-1.66-1.34
					c-0.42-0.33-0.78-0.6-1.07-0.82c-0.24-0.19-0.36-0.3-0.35-0.32c0.01-0.02,0.15,0.06,0.41,0.23c0.31,0.2,0.68,0.45,1.13,0.75
					c0.49,0.32,1.09,0.73,1.73,1.28c0.64,0.53,1.42,1.1,2.16,1.85c0.38,0.36,0.79,0.74,1.2,1.14c0.41,0.4,0.8,0.86,1.22,1.31
					c0.87,0.89,1.66,1.96,2.53,3.05c1.64,2.26,3.26,4.89,4.6,7.82c1.31,2.95,2.21,5.9,2.82,8.62c0.25,1.37,0.52,2.67,0.62,3.91
					c0.06,0.62,0.15,1.21,0.18,1.79c0.02,0.57,0.04,1.13,0.06,1.66c0.07,1.05-0.02,2.01-0.04,2.85c-0.02,0.84-0.1,1.55-0.18,2.14
					c-0.07,0.53-0.14,0.98-0.19,1.34C343.77,345.52,343.74,345.67,343.72,345.67z"/>
			</g>
			<g>
				<path style="fill:#263238;" d="M344.68,318.37c-0.06,0.05-0.86-0.92-2.18-2.46c-1.33-1.52-3.16-3.65-5.52-5.62
					c-2.34-1.99-4.85-3.3-6.81-3.66c-1.96-0.4-3.22-0.1-3.23-0.22c-0.01-0.04,0.3-0.1,0.87-0.19c0.28-0.06,0.63-0.08,1.04-0.06
					c0.21,0,0.43,0.01,0.66,0.01c0.23,0.04,0.48,0.07,0.73,0.11c2.06,0.28,4.7,1.6,7.08,3.62c2.4,2.01,4.21,4.2,5.47,5.79
					c0.63,0.8,1.11,1.47,1.43,1.94C344.54,318.08,344.71,318.35,344.68,318.37z"/>
			</g>
			<g>
				<path style="fill:#263238;" d="M351.7,311.25c-0.08,0.18-3.69-2-8.67-3.02c-4.99-1.03-9.15-0.25-9.16-0.44
					c-0.01-0.06,1-0.32,2.69-0.46c1.68-0.15,4.04-0.12,6.57,0.39c2.53,0.52,4.72,1.39,6.23,2.14
					C350.87,310.61,351.73,311.2,351.7,311.25z"/>
			</g>
			<g>
				<path style="fill:#263238;" d="M329.88,225.3c0.01,0.02-0.16,0.12-0.49,0.29c-0.38,0.19-0.86,0.44-1.45,0.74
					c-0.32,0.16-0.67,0.33-1.05,0.52c-0.37,0.21-0.76,0.47-1.18,0.73c-0.84,0.54-1.84,1.09-2.8,1.9c-0.5,0.39-1.02,0.79-1.56,1.2
					c-0.52,0.45-1.02,0.95-1.57,1.45c-1.12,0.96-2.1,2.21-3.22,3.43c-2.07,2.59-4.07,5.67-5.78,9.1c-3.4,6.9-5.08,13.72-6.03,18.65
					c-0.27,1.23-0.41,2.36-0.58,3.35c-0.17,0.99-0.29,1.84-0.37,2.54c-0.09,0.65-0.17,1.18-0.23,1.61c-0.06,0.37-0.1,0.56-0.11,0.56
					c-0.02,0-0.01-0.2,0.01-0.57c0.03-0.43,0.08-0.97,0.13-1.62c0.06-0.71,0.14-1.57,0.29-2.56c0.14-0.99,0.26-2.13,0.51-3.37
					c0.87-4.97,2.5-11.85,5.93-18.82c1.73-3.46,3.76-6.56,5.88-9.17c1.15-1.23,2.15-2.48,3.3-3.44c0.56-0.5,1.07-1,1.6-1.45
					c0.55-0.41,1.09-0.81,1.6-1.19c0.99-0.8,2.01-1.33,2.87-1.86c0.44-0.25,0.83-0.51,1.22-0.7c0.39-0.17,0.75-0.34,1.08-0.48
					c0.61-0.26,1.1-0.48,1.49-0.65C329.69,225.35,329.87,225.28,329.88,225.3z"/>
			</g>
			<g>
				<path style="fill:#263238;" d="M183.57,314.72c-0.01,0,0.02-0.1,0.08-0.28c0.07-0.2,0.16-0.48,0.28-0.83
					c0.26-0.75,0.63-1.82,1.11-3.21c0.99-2.82,2.43-6.91,4.24-12.08c3.68-10.37,8.89-25.07,15.05-42.42l0.09-0.27l0.25,0.14
					c5.45,3.15,10.75,7.15,16.56,10.78c5.88,3.56,11.99,7.26,18.26,11.06l0.17,0.1l-0.05,0.19c-0.35,1.24-0.74,2.57-1.12,3.91
					c-9,31.25-17.07,59.25-22.43,77.89l0,0.01l0,0.01c-3.42,7.61-7.59,13.06-11.39,15.65c-1.88,1.3-3.62,1.85-4.8,1.99
					c-0.59,0.06-1.04,0.08-1.35,0.05c-0.3-0.01-0.46-0.03-0.46-0.03s0.16-0.01,0.46-0.02c0.3,0.01,0.75-0.02,1.33-0.1
					c1.16-0.17,2.86-0.73,4.71-2.05c3.72-2.6,7.82-8.06,11.18-15.63l-0.01,0.02c5.33-18.65,13.33-46.67,22.26-77.94
					c0.38-1.34,0.77-2.67,1.12-3.91l0.11,0.29c-6.27-3.8-12.37-7.5-18.25-11.07c-5.84-3.66-11.12-7.66-16.53-10.8l0.34-0.12
					c-6.23,17.33-11.51,32-15.23,42.36c-1.87,5.15-3.35,9.23-4.37,12.03c-0.51,1.38-0.9,2.44-1.18,3.18
					c-0.13,0.35-0.23,0.62-0.31,0.82C183.62,314.63,183.58,314.72,183.57,314.72z"/>
			</g>
			<g>
				<path style="fill:#263238;" d="M184.37,314.04c0.04,0.09-1.33,0.64-3.37,1.81c-2.04,1.17-4.72,3.05-7.23,5.63
					c-2.5,2.58-4.31,5.32-5.41,7.39c-1.11,2.08-1.62,3.46-1.71,3.42c-0.03-0.01,0.07-0.36,0.28-1c0.21-0.63,0.58-1.52,1.1-2.6
					c1.04-2.14,2.83-4.96,5.37-7.59c2.55-2.62,5.31-4.49,7.43-5.59c1.06-0.55,1.94-0.95,2.56-1.17
					C184.01,314.12,184.36,314.01,184.37,314.04z"/>
			</g>
			<g>
				<path style="fill:#263238;" d="M184.75,311.09c-0.01,0.08-1.03,0.03-2.68,0.06c-1.65,0.03-3.92,0.19-6.38,0.67
					c-2.46,0.49-4.63,1.2-6.16,1.8c-1.54,0.6-2.46,1.04-2.5,0.96c-0.03-0.05,0.84-0.61,2.36-1.3c1.51-0.69,3.7-1.47,6.2-1.97
					c2.5-0.49,4.82-0.6,6.48-0.53C183.74,310.84,184.76,311.03,184.75,311.09z"/>
			</g>
			<g>
				<path style="fill:#263238;" d="M328.94,384.84c0,0-0.2-0.07-0.59-0.22c-0.41-0.16-0.98-0.4-1.73-0.7
					c-0.75-0.33-1.72-0.64-2.78-1.21c-1.07-0.55-2.3-1.18-3.69-1.88c-5.44-3.02-12.85-8.33-20.54-16.4
					c-7.75-8-15.68-18.74-23.15-31.41c-7.45-12.69-14.49-27.31-20.49-43.2c-0.67-1.79-1.32-3.58-1.92-5.37l-0.05-0.15l0.12-0.11
					c12.28-11.93,23.9-23.21,34.31-33.31l0.17-0.17l0.16,0.17c5.14,5.59,9.66,11.15,13.08,16.79c0.84,1.42,1.6,2.85,2.21,4.31
					c0.59,1.46,1.07,2.97,1.06,4.52c0,0.78-0.26,1.54-0.47,2.21c-0.22,0.69-0.37,1.38-0.48,2.07c-0.09,0.69-0.12,1.38,0.02,2.02
					c0.11,0.63,0.51,1.25,1.05,1.39l0.06,0.02l0.03,0.03c6.57,6.82,11.8,12.25,15.4,15.99c1.78,1.86,3.15,3.3,4.1,4.29
					c0.45,0.48,0.8,0.85,1.05,1.11c0.23,0.25,0.34,0.39,0.34,0.39s-0.13-0.11-0.38-0.36c-0.26-0.26-0.61-0.61-1.08-1.08
					c-0.96-0.97-2.36-2.39-4.16-4.23c-3.63-3.72-8.9-9.11-15.51-15.88l0.09,0.05c-0.79-0.22-1.19-0.96-1.34-1.65
					c-0.15-0.71-0.12-1.43-0.03-2.15c0.11-0.71,0.27-1.43,0.48-2.13c0.22-0.72,0.44-1.38,0.44-2.11c0.01-1.46-0.46-2.93-1.05-4.37
					c-0.6-1.44-1.36-2.85-2.19-4.25c-3.41-5.59-7.94-11.13-13.07-16.68l0.33,0.01c-10.39,10.12-22,21.41-34.27,33.35l0.07-0.27
					c0.6,1.77,1.25,3.56,1.91,5.35c5.98,15.86,13,30.47,20.42,43.14c7.44,12.66,15.31,23.39,23,31.4
					c7.64,8.07,14.98,13.41,20.37,16.47c1.37,0.72,2.59,1.36,3.65,1.92c1.05,0.58,2.01,0.9,2.75,1.25c0.74,0.32,1.3,0.57,1.71,0.75
					C328.74,384.74,328.94,384.84,328.94,384.84z"/>
			</g>
			<g>
				<path style="fill:#263238;" d="M272.25,339.67c0,0.03-0.49,0.03-1.36-0.05c-0.87-0.08-2.13-0.28-3.66-0.69
					c-3.03-0.79-7.13-2.61-10.68-5.91c-3.55-3.29-5.68-7.25-6.69-10.21c-0.52-1.49-0.81-2.73-0.96-3.59
					c-0.15-0.87-0.18-1.35-0.15-1.35c0.1-0.02,0.35,1.92,1.46,4.82c1.09,2.89,3.23,6.73,6.7,9.95c3.48,3.22,7.47,5.06,10.43,5.93
					C270.31,339.47,272.26,339.56,272.25,339.67z"/>
			</g>
			<g>
				<path style="fill:#263238;" d="M303.43,406.44c0.01,0.01-0.07,0.06-0.21,0.16c-0.17,0.11-0.39,0.26-0.65,0.43
					c-0.61,0.39-1.46,0.94-2.54,1.63c-0.56,0.35-1.17,0.74-1.84,1.17c-0.68,0.41-1.46,0.8-2.27,1.25c-1.64,0.87-3.47,1.95-5.62,2.87
					c-1.07,0.49-2.18,1-3.34,1.53c-1.17,0.52-2.43,0.95-3.71,1.46c-2.55,1.06-5.38,1.87-8.33,2.8c-5.97,1.65-12.66,3.01-19.78,3.69
					c-7.13,0.6-13.96,0.44-20.12-0.12c-3.07-0.39-6-0.69-8.7-1.28c-1.35-0.27-2.67-0.47-3.91-0.78c-1.24-0.32-2.42-0.62-3.56-0.91
					c-2.28-0.52-4.27-1.27-6.04-1.83c-0.88-0.3-1.71-0.55-2.45-0.83c-0.73-0.3-1.41-0.57-2.02-0.82c-1.18-0.49-2.11-0.87-2.78-1.15
					c-0.29-0.13-0.53-0.23-0.72-0.31c-0.16-0.07-0.24-0.11-0.24-0.12c0-0.01,0.09,0.02,0.26,0.07c0.19,0.07,0.44,0.16,0.74,0.26
					c0.68,0.26,1.62,0.61,2.82,1.06c0.61,0.23,1.29,0.49,2.03,0.78c0.75,0.26,1.58,0.5,2.46,0.78c1.77,0.53,3.76,1.25,6.05,1.75
					c1.13,0.28,2.32,0.57,3.55,0.88c1.24,0.3,2.55,0.48,3.9,0.74c2.69,0.57,5.6,0.85,8.66,1.23c6.14,0.54,12.94,0.68,20.03,0.08
					c7.09-0.67,13.75-2.01,19.69-3.63c2.94-0.91,5.77-1.71,8.31-2.74c1.28-0.5,2.54-0.91,3.7-1.42c1.16-0.52,2.28-1.02,3.34-1.49
					c2.16-0.89,3.99-1.95,5.64-2.79c0.82-0.43,1.59-0.81,2.28-1.21c0.68-0.41,1.3-0.78,1.86-1.12c1.09-0.65,1.96-1.17,2.58-1.54
					c0.28-0.16,0.5-0.29,0.68-0.39C303.35,406.47,303.43,406.43,303.43,406.44z"/>
			</g>
			<g>
				<path style="fill:#263238;" d="M289.71,380.77c0.02,0.01-0.06,0.18-0.22,0.49c-0.19,0.36-0.44,0.81-0.73,1.35
					c-0.31,0.59-0.72,1.3-1.24,2.09c-0.52,0.79-1.07,1.72-1.8,2.67c-0.35,0.48-0.72,0.99-1.11,1.51c-0.39,0.52-0.84,1.03-1.28,1.57
					c-0.87,1.1-1.91,2.18-2.99,3.34c-2.22,2.24-4.82,4.56-7.76,6.71c-2.97,2.12-5.98,3.86-8.81,5.25c-1.44,0.66-2.79,1.31-4.11,1.78
					c-1.3,0.54-2.54,0.94-3.68,1.3c-1.13,0.39-2.18,0.62-3.1,0.87c-0.91,0.25-1.71,0.41-2.37,0.52c-0.61,0.11-1.11,0.19-1.51,0.27
					c-0.35,0.06-0.53,0.08-0.53,0.06c0-0.02,0.17-0.07,0.51-0.16c0.4-0.1,0.89-0.22,1.49-0.36c0.65-0.14,1.44-0.33,2.34-0.61
					c0.9-0.27,1.95-0.52,3.06-0.94c1.12-0.38,2.35-0.8,3.63-1.35c1.3-0.49,2.64-1.15,4.06-1.81c2.8-1.41,5.78-3.15,8.72-5.25
					c2.92-2.13,5.51-4.41,7.73-6.62c1.08-1.14,2.12-2.2,3-3.28c0.45-0.53,0.9-1.03,1.3-1.54c0.39-0.51,0.77-1.01,1.13-1.48
					c0.74-0.93,1.31-1.84,1.85-2.61c0.55-0.77,0.97-1.46,1.31-2.03c0.33-0.52,0.59-0.95,0.81-1.3
					C289.59,380.91,289.69,380.76,289.71,380.77z"/>
			</g>
			<g>
				<path style="fill:#263238;" d="M266.63,287.13c-0.09,0.09-1.76-1.63-3.01-4.28c-1.27-2.64-1.55-5.02-1.42-5.03
					c0.15-0.03,0.66,2.24,1.89,4.81C265.3,285.2,266.75,287.03,266.63,287.13z"/>
			</g>
			<g>
				<path style="fill:#263238;" d="M276.13,276.99c-0.13,0.06-1.22-2.11-2.43-4.85c-1.21-2.74-2.08-5-1.95-5.06
					c0.13-0.06,1.22,2.11,2.43,4.85C275.39,274.66,276.26,276.93,276.13,276.99z"/>
			</g>
			<g>
				<path style="fill:#263238;" d="M286.43,267.32c-0.15,0.05-0.94-2.03-2.23-4.43c-1.28-2.41-2.56-4.22-2.44-4.32
					c0.1-0.09,1.59,1.62,2.9,4.07C285.97,265.1,286.56,267.29,286.43,267.32z"/>
			</g>
			<g>
				<path style="fill:#263238;" d="M223.65,282.74c-0.14-0.04,0.54-2.8,1.51-6.15c0.53-1.81,1.03-3.43,1.4-4.51l0,0.02
					c0.19-0.99,0.34-1.58,0.41-1.57c0.07,0.01,0.04,0.61-0.07,1.62l0,0l0,0.02c-0.27,1.11-0.71,2.75-1.23,4.56
					C224.69,280.09,223.79,282.78,223.65,282.74z"/>
			</g>
			<g>
				<path style="fill:#263238;" d="M213.09,261.08c0.14,0.05-0.39,1.96-1.16,4.28c-0.78,2.32-1.52,4.16-1.66,4.12
					c-0.14-0.05,0.38-1.96,1.16-4.28C212.21,262.87,212.95,261.03,213.09,261.08z"/>
			</g>
			<g style="opacity:0.2;">
				<path d="M183.98,314.47c-0.06-1.69-1.34-3.14-2.86-3.9c-1.51-0.75-3.24-0.94-4.92-1.12c2.47-0.95,5.01-1.95,6.94-3.76
					c2.19-2.06,3.36-4.96,4.47-7.76c2.54-6.42,5.1-13.57,2.68-20.04c-0.37-1-0.56-2.58,0.5-2.72c0.71-0.1,1.2,0.67,1.5,1.32
					c1.02,2.23,2.03,4.45,3.05,6.68"/>
			</g>
			<g style="opacity:0.2;">
				<path d="M249.96,322.34c-0.42,4.08,0.21,8.26,1.83,12.03c1.5,3.49,3.99,6.74,7.51,8.18c3.52,1.43,8.11,0.55,10.15-2.65
					c-4.24-1.54-8.55-3.11-12.13-5.85c-3.58-2.74-6.38-6.88-6.38-11.39"/>
			</g>
			<g>
				<path style="fill:#FFFFFF;" d="M314.5,215.65c0.01,0.01-0.1,0.12-0.31,0.32c-0.23,0.22-0.54,0.52-0.95,0.9
					c-0.86,0.8-2.1,1.95-3.68,3.43c-3.23,2.98-7.87,7.26-13.59,12.54c-11.53,10.57-27.42,25.14-44.98,41.24
					c-1.57,1.44-3.13,2.86-4.59,4.2l-0.17,0.16l-0.17-0.15c-16.93-14.67-32.06-27.77-42.98-37.23c-5.42-4.73-9.79-8.54-12.83-11.19
					c-1.49-1.31-2.65-2.33-3.46-3.05c-0.38-0.34-0.67-0.6-0.89-0.8c-0.2-0.18-0.3-0.28-0.29-0.29c0.01-0.01,0.12,0.08,0.32,0.25
					c0.23,0.19,0.53,0.44,0.92,0.76c0.82,0.7,2,1.7,3.52,2.98c3.06,2.62,7.47,6.39,12.94,11.07c10.94,9.42,26.11,22.48,43.09,37.1
					l-0.34,0c1.46-1.33,3.02-2.76,4.59-4.2c17.6-16.05,33.53-30.59,45.08-41.13c5.77-5.23,10.45-9.47,13.71-12.42
					c1.61-1.44,2.87-2.57,3.74-3.36c0.42-0.37,0.74-0.65,0.98-0.86C314.38,215.74,314.49,215.65,314.5,215.65z"/>
			</g>
			<g>
				<path style="fill:#FFFFFF;" d="M347.75,267.96c0,0.04-0.62,0.1-1.73,0.18c-0.56,0.03-1.24,0.09-2.02,0.2
					c-0.79,0.1-1.69,0.17-2.67,0.36c-0.98,0.16-2.06,0.34-3.2,0.62c-1.15,0.23-2.35,0.58-3.62,0.93c-2.52,0.77-5.24,1.77-7.99,3.06
					c-2.74,1.32-5.23,2.81-7.41,4.29c-1.07,0.77-2.1,1.48-3,2.23c-0.93,0.71-1.75,1.44-2.49,2.1c-0.76,0.64-1.39,1.3-1.96,1.84
					c-0.58,0.54-1.05,1.04-1.43,1.45c-0.77,0.81-1.2,1.25-1.23,1.23c-0.03-0.02,0.36-0.51,1.08-1.37c0.36-0.43,0.81-0.95,1.37-1.52
					c0.56-0.57,1.17-1.25,1.92-1.91c0.73-0.69,1.54-1.43,2.47-2.17c0.9-0.77,1.93-1.5,3-2.29c2.19-1.51,4.7-3.03,7.46-4.36
					c2.78-1.31,5.53-2.31,8.08-3.05c1.29-0.34,2.5-0.68,3.67-0.89c1.15-0.26,2.24-0.42,3.24-0.56c0.99-0.17,1.9-0.22,2.69-0.29
					c0.79-0.08,1.48-0.1,2.04-0.11C347.13,267.92,347.75,267.92,347.75,267.96z"/>
			</g>
			<g>
				<path style="fill:#FFFFFF;" d="M351.7,375.19c-0.02-0.01,0.06-0.23,0.22-0.64c0.19-0.46,0.43-1.05,0.72-1.78
					c0.31-0.77,0.74-1.7,1.09-2.83c0.19-0.56,0.39-1.16,0.6-1.79c0.11-0.32,0.22-0.64,0.33-0.98c0.1-0.34,0.18-0.69,0.27-1.05
					c0.35-1.44,0.82-3,1.05-4.74c0.13-0.86,0.33-1.74,0.41-2.67c0.08-0.93,0.15-1.88,0.23-2.86c0.17-3.91-0.12-8.24-1.11-12.66
					c-0.95-4.43-2.58-8.46-4.26-12c-1.66-3.56-3.56-6.56-5.15-9.07c-1.67-2.46-3.05-4.44-4.08-5.75c-0.47-0.63-0.85-1.14-1.15-1.54
					c-0.26-0.36-0.39-0.55-0.37-0.56c0.01-0.01,0.17,0.16,0.45,0.49c0.31,0.38,0.72,0.87,1.22,1.48c1.08,1.27,2.52,3.22,4.23,5.67
					c1.64,2.49,3.59,5.49,5.28,9.07c1.72,3.55,3.37,7.62,4.34,12.1c1,4.46,1.28,8.85,1.08,12.8c-0.09,0.99-0.17,1.95-0.26,2.88
					c-0.08,0.93-0.3,1.82-0.44,2.69c-0.25,1.75-0.74,3.31-1.12,4.76c-0.1,0.36-0.18,0.72-0.29,1.05c-0.12,0.33-0.24,0.66-0.35,0.98
					c-0.23,0.63-0.44,1.23-0.64,1.79c-0.37,1.13-0.83,2.05-1.17,2.81c-0.34,0.72-0.61,1.29-0.81,1.74
					C351.83,375,351.72,375.2,351.7,375.19z"/>
			</g>
			<g>
				<path style="fill:#FFFFFF;" d="M304.97,367.77c0.01-0.09,1.02,0.48,2.92,0.27c1.86-0.19,4.59-1.4,6.5-4.25
					c1.95-2.8,3.13-6.77,4.45-11.09c1.27-4.35,2.33-9.22,2.99-14.41c1.36-10.38,0.71-19.92-0.31-26.68
					c-0.54-3.38-1.11-6.1-1.55-7.97c-0.22-0.89-0.39-1.61-0.52-2.15c-0.11-0.49-0.16-0.75-0.15-0.76s0.1,0.25,0.25,0.73
					c0.15,0.53,0.36,1.24,0.61,2.13c0.5,1.86,1.13,4.57,1.72,7.96c1.12,6.77,1.83,16.36,0.46,26.81
					c-0.66,5.21-1.75,10.11-3.05,14.48c-1.36,4.32-2.57,8.31-4.61,11.16c-1.01,1.42-2.21,2.5-3.43,3.17
					c-1.21,0.68-2.39,0.99-3.36,1.07c-0.97,0.09-1.73-0.05-2.22-0.19C305.21,367.9,304.97,367.77,304.97,367.77z"/>
			</g>
			<g>
				<path style="fill:#FFFFFF;" d="M297.37,300.45c0.03,0.02-0.25,0.42-0.78,1.14c-0.26,0.36-0.59,0.79-1.03,1.25
					c-0.43,0.46-0.89,1.02-1.49,1.55c-0.58,0.55-1.22,1.14-1.97,1.7c-0.72,0.61-1.57,1.14-2.44,1.73c-1.8,1.1-3.89,2.14-6.19,2.93
					c-2.32,0.76-4.61,1.2-6.7,1.42c-1.05,0.06-2.05,0.15-2.99,0.11c-0.94,0.01-1.81-0.07-2.6-0.16c-0.8-0.05-1.5-0.22-2.12-0.33
					c-0.62-0.1-1.15-0.24-1.58-0.37c-0.85-0.25-1.32-0.4-1.31-0.43c0.03-0.11,1.91,0.5,5.04,0.77c0.78,0.06,1.64,0.12,2.57,0.09
					c0.92,0.03,1.91-0.08,2.94-0.15c2.06-0.24,4.31-0.68,6.58-1.43c2.27-0.78,4.32-1.79,6.11-2.85c0.87-0.57,1.71-1.08,2.43-1.66
					c0.75-0.54,1.4-1.11,1.99-1.63C296.15,302,297.28,300.37,297.37,300.45z"/>
			</g>
			<g>
				<path style="fill:#FFFFFF;" d="M310.02,289.46c0.04,0,0.03,0.38,0,1.06c-0.03,0.68-0.14,1.67-0.36,2.87
					c-0.21,1.21-0.57,2.62-1.08,4.16c-0.53,1.53-1.22,3.18-2.11,4.83c-0.9,1.64-1.91,3.12-2.9,4.4c-1.01,1.26-2.01,2.34-2.9,3.17
					c-0.89,0.84-1.66,1.47-2.21,1.86c-0.55,0.4-0.87,0.61-0.89,0.58c-0.06-0.08,1.14-0.99,2.85-2.71c0.86-0.85,1.8-1.94,2.78-3.2
					c0.96-1.28,1.94-2.74,2.82-4.35c0.87-1.62,1.56-3.24,2.11-4.74c0.53-1.51,0.92-2.89,1.17-4.08
					C309.82,290.96,309.93,289.46,310.02,289.46z"/>
			</g>
			<g>
				<path style="fill:#FFFFFF;" d="M289.3,350.83c0.01,0.01-0.04,0.07-0.15,0.18c-0.12,0.13-0.28,0.29-0.46,0.49
					c-0.44,0.45-1.05,1.07-1.81,1.85c-1.62,1.62-3.92,3.92-6.75,6.74c-5.77,5.7-13.71,13.53-22.53,22.25l-0.14,0.14l-0.17-0.1
					c-0.46-0.27-0.96-0.55-1.46-0.84c-11.08-6.4-21.1-12.19-28.4-16.4c-3.59-2.1-6.51-3.81-8.58-5.02
					c-0.98-0.59-1.75-1.05-2.32-1.39c-0.24-0.15-0.44-0.27-0.6-0.37c-0.13-0.09-0.2-0.13-0.19-0.14c0-0.01,0.08,0.02,0.22,0.1
					c0.17,0.09,0.37,0.2,0.62,0.33c0.58,0.32,1.37,0.75,2.37,1.3c2.09,1.17,5.03,2.84,8.66,4.88c7.32,4.18,17.37,9.93,28.48,16.27
					c0.5,0.29,1,0.57,1.46,0.84l-0.31,0.04c8.87-8.67,16.85-16.47,22.65-22.13c2.88-2.78,5.21-5.03,6.86-6.63
					c0.79-0.75,1.42-1.34,1.88-1.78c0.2-0.18,0.36-0.33,0.5-0.45C289.24,350.87,289.3,350.82,289.3,350.83z"/>
			</g>
			<g>
				<path style="fill:#FFFFFF;" d="M254.61,328.54c0.02,0,0.03,0.11,0.04,0.34c0,0.22-0.04,0.56-0.21,0.96
					c-0.31,0.81-1.25,1.81-2.75,2.26c-1.52,0.5-3.47-0.01-5.17-1.04c-1.73-1.05-3.39-2.44-5.23-3.79c-3.65-2.76-6.93-5.28-9.29-7.12
					c-1.11-0.88-2.04-1.62-2.78-2.21c-0.65-0.53-1-0.84-0.98-0.87c0.02-0.03,0.41,0.22,1.1,0.7c0.76,0.55,1.73,1.25,2.88,2.07
					c2.42,1.77,5.74,4.24,9.38,7c1.84,1.35,3.52,2.77,5.17,3.8c1.64,1.02,3.43,1.51,4.83,1.1c1.41-0.37,2.32-1.26,2.66-1.99
					C254.62,329.03,254.54,328.53,254.61,328.54z"/>
			</g>
			<g>
				<path style="fill:#FFFFFF;" d="M269.11,315.39c0.03,0.08-1.04,0.54-2.71,1.36c-1.68,0.83-3.95,2.05-6.33,3.63
					c-2.37,1.58-4.39,3.2-5.8,4.42c-1.41,1.22-2.25,2.03-2.31,1.97c-0.05-0.04,0.7-0.94,2.06-2.24c1.36-1.3,3.36-2.99,5.76-4.58
					c2.4-1.59,4.73-2.78,6.46-3.53C267.98,315.67,269.09,315.33,269.11,315.39z"/>
			</g>
			<g style="opacity:0.3;">
				<path d="M303.17,283.78c-5.22,13.54-6.15,27.38-4.43,41.79c0.36,2.98,1.86,7.18,3.03,9.95c1.16,2.77,3.14,5.31,5.87,6.56
					c2.49,1.14,5.82,0.93,7.53-1.2c1.22-1.52,1.38-3.63,1.21-5.58c-0.44-5.01-2.65-9.65-4.55-14.3c-4.84-11.84-7.82-24.44-8.79-37.2
					"/>
			</g>
			<g style="opacity:0.3;">
				<path d="M337.96,310.8c5.19,4.13,8.85,10.14,10.14,16.65c0.35,1.74,0.55,3.58,1.49,5.08c0.94,1.51,2.92,2.57,4.52,1.8
					c1.96-0.94,2.03-3.69,1.56-5.81c-2.15-9.59-9.81-17.74-19.26-20.46"/>
			</g>
			<g>
				<path style="fill:#FFFFFF;" d="M255.65,423.39c-0.07,0.12-12.59-6.89-27.97-15.67c-15.38-8.78-27.78-15.99-27.71-16.12
					c0.07-0.12,12.59,6.89,27.97,15.67C243.32,416.05,255.72,423.26,255.65,423.39z"/>
			</g>
			<g>
				<path style="fill:#FFFFFF;" d="M275.31,419.39c0.02,0.03-0.33,0.31-0.97,0.79c-0.74,0.53-1.66,1.2-2.76,1.99
					c-2.34,1.66-5.6,3.93-9.22,6.41c-0.96,0.66-1.89,1.29-2.79,1.91l-0.13,0.09l-0.14-0.08c-3.13-1.73-5.85-3.26-7.79-4.37
					c-0.89-0.52-1.65-0.97-2.26-1.33c-0.52-0.32-0.8-0.51-0.79-0.53c0.01-0.03,0.32,0.11,0.87,0.38c0.63,0.32,1.41,0.72,2.33,1.19
					c1.98,1.03,4.73,2.51,7.88,4.21l-0.27,0.01c0.9-0.62,1.83-1.26,2.78-1.92c3.62-2.48,6.91-4.7,9.3-6.29
					c1.14-0.74,2.09-1.36,2.85-1.86C274.9,419.58,275.28,419.36,275.31,419.39z"/>
			</g>
			<g style="opacity:0.3;">
				<path d="M297.7,410.4c-3.51-4-9.54-4.95-14.73-3.8c-5.2,1.16-9.8,4.06-14.37,6.8c-4.57,2.74-9.37,5.41-14.66,6
					c-6.19,0.7-12.29-1.51-18.4-2.73c-6.11-1.22-13.17-1.18-17.71,3.08c0,0,19.45,6.62,42.81,2.97
					C277.78,420.03,297.7,410.4,297.7,410.4z"/>
			</g>
			<g>
				<path style="fill:#FFFFFF;" d="M224.79,323.41c-0.01,0.04-0.6-0.03-1.67-0.17c-0.54-0.07-1.19-0.16-1.94-0.32
					c-0.75-0.15-1.62-0.29-2.55-0.53c-1.89-0.43-4.1-1.07-6.52-1.91c-2.4-0.87-5-1.96-7.63-3.3c-2.62-1.36-5.02-2.84-7.13-4.29
					c-2.09-1.47-3.9-2.9-5.35-4.19c-0.74-0.62-1.36-1.24-1.92-1.77c-0.56-0.52-1.02-1-1.39-1.39c-0.74-0.79-1.14-1.23-1.11-1.26
					c0.03-0.02,0.47,0.37,1.25,1.11c0.39,0.37,0.87,0.83,1.44,1.33c0.58,0.5,1.21,1.1,1.96,1.7c1.47,1.24,3.29,2.63,5.38,4.07
					c2.11,1.42,4.49,2.87,7.09,4.22c2.61,1.33,5.18,2.42,7.56,3.31c2.39,0.86,4.58,1.54,6.44,2.01c0.92,0.26,1.78,0.43,2.52,0.61
					c0.74,0.18,1.39,0.31,1.92,0.4C224.21,323.24,224.8,323.37,224.79,323.41z"/>
			</g>
			<g>
				<path style="fill:#FFFFFF;" d="M166,363.41c-0.02,0-0.07-0.16-0.16-0.49c-0.09-0.39-0.21-0.86-0.35-1.44
					c-0.07-0.32-0.15-0.67-0.24-1.04c-0.07-0.38-0.12-0.81-0.19-1.26c-0.12-0.9-0.32-1.93-0.36-3.08c-0.04-0.58-0.08-1.18-0.12-1.8
					c-0.04-0.63-0.01-1.28-0.01-1.96c-0.04-1.36,0.11-2.8,0.22-4.31c0.34-3.02,0.97-6.33,2.03-9.68c1.1-3.34,2.53-6.39,4.02-9.04
					c0.8-1.3,1.53-2.55,2.35-3.63c0.4-0.55,0.76-1.09,1.16-1.58c0.4-0.48,0.79-0.94,1.15-1.39c0.71-0.91,1.47-1.62,2.1-2.28
					c0.32-0.32,0.61-0.64,0.89-0.9c0.29-0.25,0.56-0.49,0.8-0.71c0.45-0.39,0.82-0.7,1.12-0.96c0.26-0.22,0.4-0.32,0.41-0.31
					c0.01,0.01-0.11,0.15-0.35,0.39c-0.28,0.28-0.63,0.62-1.05,1.03c-0.24,0.23-0.49,0.47-0.77,0.73c-0.27,0.28-0.55,0.6-0.86,0.93
					c-0.6,0.68-1.34,1.4-2.03,2.32c-0.36,0.45-0.73,0.91-1.12,1.4c-0.39,0.49-0.73,1.04-1.12,1.58c-0.8,1.08-1.51,2.33-2.29,3.62
					c-1.46,2.64-2.85,5.65-3.95,8.96c-1.05,3.32-1.69,6.58-2.05,9.57c-0.12,1.5-0.28,2.93-0.26,4.27c0,0.67-0.04,1.32-0.02,1.94
					c0.03,0.62,0.06,1.22,0.09,1.79c0.02,1.14,0.19,2.16,0.28,3.07c0.06,0.45,0.09,0.87,0.15,1.26c0.07,0.38,0.13,0.72,0.19,1.05
					c0.1,0.58,0.18,1.06,0.25,1.45C166,363.23,166.01,363.4,166,363.41z"/>
			</g>
			<g>
				<path style="fill:#FFFFFF;" d="M188.71,298.65c-0.02,0.03-0.42-0.25-1.13-0.76c-0.78-0.58-1.78-1.32-2.97-2.21
					c-2.6-1.91-6.04-4.44-9.85-7.23c-3.86-2.81-7.35-5.35-9.86-7.23c-1.25-0.94-2.26-1.7-2.95-2.25c-0.69-0.54-1.06-0.85-1.04-0.88
					c0.02-0.03,0.43,0.23,1.16,0.72c0.8,0.56,1.82,1.27,3.04,2.11c2.56,1.8,6.09,4.3,9.95,7.1c3.86,2.81,7.31,5.41,9.76,7.36
					c1.23,0.97,2.21,1.77,2.87,2.34C188.38,298.3,188.74,298.63,188.71,298.65z"/>
			</g>
		</g>
		<g>
			<g>
				<g>
					<path style="fill:#263238;" d="M295.86,97.08c0.37,10.27,14.06,16.49,13.89,26.76c-0.08,4.41-2.81,8.37-3.35,12.74
						c-0.72,5.88,2.57,11.44,3.78,17.24c2.5,11.95-4.45,24.56-14.76,31.11c-10.31,6.54-23.26,7.79-35.35,6.14"/>
				</g>
				<g>
					<g>
						<path style="fill:#263238;" d="M213.2,94.56c0.41,5.51-3.23,10.44-6.9,14.57c-3.67,4.13-7.75,8.44-8.54,13.91
							c-1.4,9.69,8.09,18.69,6.13,28.29c-1.05,5.14-5.26,9.28-6.01,14.47c-0.73,5.03,1.97,9.94,5.31,13.77
							c3.34,3.83,7.21,3.27,10.16,7.4c3.11,4.35,8.12,8.82,12.81,11.39c10.64,5.82,23.4-2.6,28.53-4.12"/>
					</g>
					<g>
						<path style="fill:#263238;" d="M297.92,102.99c0.14-5-4.48-8.86-9.13-10.69c-4.65-1.83-9.83-2.52-13.97-5.31
							c-3.67-2.47-6.14-6.33-9.25-9.48c-7.63-7.73-19.54-10.94-30.02-8.08c-10.48,2.86-19.11,11.67-21.76,22.2
							c-1.79,7.12-0.57,15.54,5.05,20.27c6.51,5.49,16.17,4.27,24.52,2.56c8.35-1.71,17.79-3.39,24.76,1.51
							c4.2,2.96,6.61,7.76,9.18,12.21c2.57,4.45,5.79,8.99,10.65,10.66c4.86,1.67,11.45-1.22,11.64-6.35"/>
					</g>
					<g>
						<g>
							<g>
								<g>
									<g>
										<g>
											<g>
												<g>
													<g>
														<g>
															<g>
																<g>
																	<g>
																		<g>
																			<path style="fill:#FFBE9D;" d="M231.47,219.44c-0.07-11.47-0.14-22.65-0.14-22.59c0,0-18.22-3.07-21.95-26.86
																				c-1.85-11.83-1.21-31.22-0.18-47.07c0.93-14.27,10.42-31.75,24.64-30.22l44.37,11.32
																				c4.32,0.47,7.56,4.16,7.47,8.5l0,0l-4.06,107.71c-0.52,13.67-11.89,24.4-25.56,24.13l0,0
																				C242.46,244.1,231.55,233.04,231.47,219.44z"/>
																		</g>
																	</g>
																</g>
															</g>
														</g>
													</g>
												</g>
												<g>
													<g>
														<g>
															<g>
																<g>
																	<g>
																		<g>
																			<g>
																				<path style="fill:#263238;" d="M216.76,136.51c-0.06,1.61,1.25,2.99,2.93,3.08c1.68,0.09,3.09-1.13,3.15-2.74
																					c0.06-1.61-1.25-2.99-2.93-3.09C218.23,133.67,216.82,134.9,216.76,136.51z"/>
																			</g>
																		</g>
																	</g>
																</g>
															</g>
														</g>
													</g>
													<g>
														<g>
															<g>
																<g>
																	<g>
																		<g>
																			<g>
																				<g>
																					<path style="fill:#263238;" d="M213.39,133.02c0.38,0.4,2.69-1.31,5.97-1.29c3.28-0.03,5.68,1.66,6.04,1.26
																						c0.18-0.18-0.21-0.9-1.26-1.66c-1.03-0.76-2.79-1.51-4.83-1.5c-2.04,0.01-3.77,0.76-4.76,1.52
																						C213.55,132.12,213.2,132.84,213.39,133.02z"/>
																				</g>
																			</g>
																		</g>
																	</g>
																</g>
															</g>
														</g>
													</g>
												</g>
												<g>
													<g>
														<g>
															<g>
																<g>
																	<g>
																		<g>
																			<g>
																				<path style="fill:#263238;" d="M248.62,137.33c-0.06,1.61,1.25,2.99,2.93,3.08c1.68,0.09,3.09-1.13,3.15-2.74
																					c0.06-1.61-1.25-2.99-2.93-3.09C250.1,134.49,248.68,135.72,248.62,137.33z"/>
																			</g>
																		</g>
																	</g>
																</g>
															</g>
														</g>
													</g>
													<g>
														<g>
															<g>
																<g>
																	<g>
																		<g>
																			<g>
																				<g>
																					<path style="fill:#263238;" d="M245.65,133.7c0.38,0.4,2.7-1.31,5.98-1.29c3.28-0.03,5.68,1.66,6.04,1.26
																						c0.17-0.18-0.2-0.9-1.26-1.66c-1.03-0.76-2.79-1.51-4.83-1.5c-2.04,0.01-3.77,0.76-4.76,1.52
																						C245.81,132.8,245.47,133.52,245.65,133.7z"/>
																				</g>
																			</g>
																		</g>
																	</g>
																</g>
															</g>
														</g>
													</g>
												</g>
												<g>
													<g>
														<g>
															<g>
																<g>
																	<g>
																		<g>
																			<g>
																				<path style="fill:#263238;" d="M233.68,158.01c0.02-0.19-2.02-0.54-5.33-0.97c-0.84-0.09-1.63-0.26-1.77-0.83
																					c-0.2-0.61,0.16-1.51,0.57-2.48c0.79-2.03,1.62-4.15,2.49-6.38c3.46-9.08,5.97-16.55,5.6-16.68
																					c-0.37-0.14-3.47,7.11-6.93,16.19c-0.83,2.24-1.63,4.37-2.39,6.41c-0.32,0.95-0.87,2.03-0.44,3.29
																					c0.22,0.63,0.84,1.08,1.38,1.23c0.54,0.17,1.01,0.18,1.42,0.2C231.61,158.18,233.67,158.2,233.68,158.01z"/>
																			</g>
																		</g>
																	</g>
																</g>
															</g>
														</g>
													</g>
												</g>
												<g>
													<g>
														<g>
															<g>
																<g>
																	<g>
																		<g>
																			<path style="fill:#EB996E;" d="M231.33,196.85c0,0,16,1.07,31.87-8.43c-0.27,0.06-8.77,16.53-31.56,14.04
																				L231.33,196.85z"/>
																		</g>
																	</g>
																</g>
															</g>
														</g>
													</g>
												</g>
											</g>
										</g>
									</g>
									<g>
										<g>
											<g>
												<g>
													<g>
														<g>
															<g>
																<path style="fill:#263238;" d="M244.99,117.45c0.08,0.95,3.35,1.4,6.95,2.85c3.62,1.38,6.33,3.29,7.03,2.65
																	c0.32-0.31,0.02-1.26-0.97-2.42c-0.98-1.16-2.68-2.47-4.84-3.32c-2.17-0.85-4.3-1.05-5.81-0.87
																	C245.84,116.51,244.97,117,244.99,117.45z"/>
															</g>
														</g>
													</g>
												</g>
											</g>
										</g>
									</g>
									<g>
										<g>
											<g>
												<g>
													<g>
														<g>
															<g>
																<path style="fill:#263238;" d="M214.05,123.69c0.72,0.61,2.77-0.6,5.43-1.18c2.64-0.68,5.02-0.52,5.38-1.39
																	c0.15-0.42-0.35-1.08-1.48-1.56c-1.11-0.49-2.85-0.72-4.67-0.29c-1.71,0.23-2.9,0.71-4.04,2.36
																	C213.88,122.57,213.73,123.39,214.05,123.69z"/>
															</g>
														</g>
													</g>
												</g>
											</g>
										</g>
									</g>
								</g>
							</g>
						</g>
					</g>
					<g>
						<path style="fill:#263238;" d="M288.27,183.59c-6.54,1.32-7.12-2.01-12.01-6.55c-4.89-4.54-7.41-11.5-6.57-18.12
							c0.74-5.84,3.89-11.78,1.86-17.31c-2.68-7.31-12.92-9.56-15.64-16.85c-1.58-4.24-0.16-9.2-1.95-13.35
							c-1.68-3.91-5.79-6.16-9.8-7.6c-4-1.45-8.29-2.45-11.65-5.06c-3.36-2.61-5.45-7.54-3.29-11.2
							c17.74,2.13,35.23,6.38,51.97,12.63c3.88,1.45,7.96,3.19,10.25,6.64c2.43,3.65,2.31,8.37,2.11,12.75
							c-1,21.36-1.99,42.71-2.99,64.07"/>
					</g>
				</g>
				<g>
					<path style="fill:#263238;" d="M303.23,135.07c0.75-7.84,7.14-14.8,14.88-16.21c7.75-1.42,16.18,2.83,19.66,9.89
						c3.31,6.72,2.16,14.89-0.92,21.71c-3.67,8.11-11.18,15.51-20.07,15.11c-8.36-0.38-15.09-7.72-17.5-15.74
						c-2.41-8.02-1.44-16.61-0.44-24.92"/>
				</g>
				<g>
					<g>
						<path style="fill:#455A64;" d="M307.89,167.64c0.03,0.03,0.57-0.38,1.25-1.38c0.68-0.99,1.44-2.62,1.77-4.76
							c0.35-2.13,0.28-4.73-0.22-7.51c-0.48-2.8-1.43-5.73-2.11-8.85c-0.7-3.1-1.03-6.14-0.52-8.8c0.49-2.65,1.73-4.9,2.28-6.99
							c0.6-2.09,0.52-3.93,0.14-5.09c-0.38-1.17-0.89-1.66-0.93-1.62c-0.08,0.05,0.3,0.6,0.53,1.72c0.24,1.11,0.2,2.82-0.46,4.77
							c-0.6,1.97-1.93,4.17-2.52,7.02c-0.6,2.84-0.27,6.05,0.44,9.21c0.7,3.18,1.67,6.1,2.19,8.79c0.54,2.7,0.67,5.19,0.43,7.24
							C309.74,165.58,307.69,167.54,307.89,167.64z"/>
					</g>
				</g>
				<g>
					<g>
						<path style="fill:#455A64;" d="M308.24,139.08c-0.08,0.06,1.05,1.72,3.65,3.57c2.56,1.85,6.76,3.74,11.69,3.83
							c4.93,0.08,9.2-1.66,11.82-3.42c2.66-1.76,3.85-3.38,3.77-3.44c-0.13-0.13-1.49,1.27-4.16,2.81c-2.63,1.54-6.74,3.08-11.41,3
							c-4.68-0.09-8.72-1.77-11.3-3.4C309.68,140.4,308.37,138.95,308.24,139.08z"/>
					</g>
				</g>
				<g>
					<g>
						<path style="fill:#455A64;" d="M309.42,142.81c-0.1,0.05,0.48,1.58,2.02,3.73c1.52,2.15,4.11,4.82,7.57,6.91
							c3.48,2.08,7.05,3.12,9.66,3.45c2.62,0.35,4.25,0.14,4.24,0.03c0-0.18-1.61-0.24-4.12-0.76c-2.51-0.51-5.9-1.62-9.25-3.62
							c-3.34-2.02-5.9-4.5-7.53-6.47C310.38,144.12,309.57,142.72,309.42,142.81z"/>
					</g>
				</g>
				<g>
					<g>
						<path style="fill:#455A64;" d="M303.43,175.6c0.01,0.01,0.1-0.09,0.26-0.3c0.15-0.21,0.41-0.51,0.66-0.95
							c0.54-0.86,1.18-2.25,1.57-4.16c0.38-1.9,0.42-4.36-0.38-7.02c-0.74-2.66-2.6-5.51-5.53-7.44c-2.82-1.99-6.5-3.38-8.83-6.54
							c-1.16-1.55-1.66-3.55-1.29-5.58c0.32-2.04,1.25-4.04,2.07-6.17c1.82-4.26,1.84-9.58-0.31-14.2c-1.08-2.29-2.68-4.43-4.83-6
							c-2.13-1.61-4.73-2.44-7.3-3.02c-2.58-0.59-5.14-0.93-7.53-1.65c-2.38-0.71-4.65-1.78-6.31-3.45
							c-1.69-1.65-2.41-3.94-2.74-6.24c-0.32-2.3-0.5-4.69-1.12-6.91c-1.16-4.46-3.43-8.41-6.42-11.25
							c-2.99-2.86-6.65-4.5-10.1-5.01c-3.47-0.54-6.74,0.1-9.19,1.39c-2.48,1.26-4.21,3.02-5.32,4.6c-1.11,1.61-1.62,3.05-1.86,4.04
							c-0.25,0.99-0.23,1.53-0.23,1.53c0.15,0.06,0.19-2.23,2.42-5.33c1.13-1.5,2.84-3.15,5.25-4.32c2.38-1.19,5.5-1.75,8.82-1.19
							c3.3,0.54,6.79,2.15,9.62,4.91c2.83,2.74,4.99,6.56,6.09,10.87c0.59,2.15,0.74,4.43,1.07,6.82c0.31,2.35,1.1,4.96,2.99,6.81
							c1.83,1.86,4.26,2.98,6.74,3.73c2.5,0.75,5.08,1.09,7.6,1.67c2.51,0.57,4.95,1.36,6.91,2.84c1.99,1.44,3.49,3.43,4.51,5.59
							c2.02,4.36,2.05,9.33,0.33,13.43c-0.79,2.09-1.74,4.15-2.08,6.37c-0.4,2.21,0.2,4.57,1.5,6.23c2.6,3.41,6.38,4.74,9.12,6.64
							c2.85,1.82,4.61,4.46,5.39,7.01c0.82,2.54,0.85,4.92,0.54,6.78C304.86,173.89,303.27,175.54,303.43,175.6z"/>
					</g>
				</g>
				<g>
					<g>
						<path style="fill:#455A64;" d="M301.84,109.2c0,0,0.22-0.34,0.29-1.1c0.08-0.74-0.03-1.92-0.79-3.16
							c-0.74-1.22-2.05-2.53-3.98-3.29c-1.95-0.75-4.35-0.72-6.83-0.23c-2.49,0.47-5.08,1.47-7.91,2.02
							c-2.78,0.54-6.09,0.61-8.6-1.35c-2.53-1.92-3.8-5.25-5.09-8.56c-1.27-3.38-3.07-6.78-5.49-9.79
							c-4.85-6.04-11.42-10.18-18-11.64c-3.29-0.71-6.61-0.65-9.5,0.25c-2.88,0.89-5.31,2.52-6.96,4.5c-1.68,1.96-2.5,4.28-2.63,6.3
							c-0.17,2.04,0.23,3.79,0.79,5.1c0.55,1.32,1.26,2.2,1.79,2.72c0.53,0.53,0.86,0.73,0.88,0.71c0.12-0.09-1.3-0.99-2.29-3.58
							c-0.48-1.28-0.8-2.96-0.58-4.89c0.19-1.92,1-4.06,2.61-5.88c1.59-1.83,3.9-3.34,6.65-4.15c2.74-0.81,5.89-0.85,9.05-0.14
							c6.31,1.45,12.69,5.5,17.39,11.35c2.36,2.94,4.09,6.18,5.36,9.52c1.32,3.28,2.62,6.8,5.47,8.95c1.39,1.07,3.08,1.62,4.69,1.76
							c1.63,0.16,3.19-0.04,4.65-0.33c2.94-0.61,5.48-1.64,7.89-2.14c2.39-0.53,4.68-0.59,6.48,0.05c1.81,0.65,3.09,1.84,3.84,2.96
							c0.76,1.13,0.93,2.22,0.92,2.93C301.92,108.81,301.77,109.19,301.84,109.2z"/>
					</g>
				</g>
			</g>
			<g>
				<path style="fill:#455A64;" d="M309.32,170.78c0.03,0.01-0.14,0.43-0.5,1.14c-0.37,0.71-0.96,1.71-1.83,2.86
					c-1.7,2.3-4.65,5.15-8.65,7.03c-4,1.89-8.07,2.34-10.93,2.2c-1.44-0.07-2.59-0.24-3.37-0.41c-0.78-0.17-1.21-0.31-1.2-0.34
					c0.02-0.1,1.74,0.34,4.58,0.38c2.82,0.05,6.79-0.46,10.7-2.3c3.91-1.84,6.83-4.58,8.58-6.79
					C308.47,172.34,309.23,170.73,309.32,170.78z"/>
			</g>
		</g>
		<g>
			<g>
				<path style="fill:#FFBE9D;" d="M234.46,180.49l10.63,15.45l2.05,8.93c0,0,0.36-2.83,0.93-5.53c0.57-2.69,0-10.77,0-10.77
					l-7.8-11.62c0,0-4.54-6.38-0.71-10.2l7.57,7.51c0,0-6.44-8.95-2.05-12.27l6.24,5.28c0,0-1.77-2.12,0.64-3.82l16.08,15.48
					l1.98,25.94l-0.85,27.35l15.98,21.03l-23.14,22.77c0,0-21.7-35.38-22.98-40.76c-1.28-5.39-0.05-35.07-0.05-35.07
					s-6.6-9.54-6.52-13.75C232.56,182.24,234.46,180.49,234.46,180.49z"/>
				<g>
					<path style="fill:#EB996E;" d="M252.76,259.79c-0.01,0.01-0.07-0.07-0.18-0.23c-0.12-0.17-0.28-0.4-0.49-0.7
						c-0.43-0.65-1.04-1.58-1.85-2.8c-1.59-2.47-3.92-6.12-6.7-10.9c-1.37-2.41-2.91-5.06-4.22-8.18c-0.71-1.57-0.86-3.4-0.98-5.19
						c-0.11-1.81-0.17-3.69-0.2-5.64c-0.1-7.77,0.09-16.56,0.43-26.19l0.08,0.26c-1.9-2.82-3.77-5.82-5.29-9.18
						c-0.38-0.84-0.72-1.71-0.98-2.63c-0.14-0.46-0.23-0.94-0.3-1.43l-0.05-0.76l0.03-0.72c0.07-0.97,0.24-1.94,0.56-2.89
						c0.33-0.95,0.75-1.85,1.53-2.67l0.38-0.4l0.33,0.48c3.39,4.91,6.96,10.09,10.65,15.43l0.05,0.08l0.02,0.09
						c0.64,2.8,1.35,5.84,2.06,8.93l-1,0.05c0.22-1.29,0.44-2.61,0.66-3.94c0.11-0.66,0.22-1.32,0.33-1.98
						c0.09-0.63,0.14-1.3,0.16-1.98c0.08-2.7-0.05-5.5-0.23-8.3l0.09,0.25c-1.52-2.27-3.09-4.6-4.68-6.97
						c-0.8-1.19-1.6-2.38-2.41-3.59c-0.39-0.6-0.83-1.19-1.21-1.86c-0.37-0.65-0.72-1.32-1-2.03c-0.53-1.28-0.87-2.68-0.81-4.12
						c0.04-1.43,0.62-2.91,1.67-3.92l0.37-0.36l0.36,0.36c2.55,2.53,5.08,5.04,7.57,7.51l-0.78,0.67c-1.33-1.95-2.44-3.99-3.16-6.22
						c-0.35-1.12-0.58-2.3-0.48-3.52c0.08-1.22,0.69-2.48,1.71-3.23l0.34-0.25l0.31,0.28c2.16,1.95,4.29,3.88,6.39,5.78l-0.75,0.66
						c-0.47-0.76-0.76-1.57-0.71-2.5c0.03-0.93,0.62-1.78,1.32-2.27l0.34-0.24l0.3,0.28c5.59,5.32,10.95,10.43,16.05,15.29
						l0.13,0.12l0.01,0.18c0.69,9.34,1.33,18.01,1.92,25.94l0,0.02l0,0.02c-0.37,10.53-0.69,19.7-0.96,27.35l-0.06-0.19
						c4.82,6.51,8.64,11.67,11.27,15.21c1.29,1.77,2.28,3.13,2.96,4.06c0.32,0.46,0.57,0.81,0.75,1.06
						c0.16,0.24,0.24,0.37,0.23,0.37c-0.01,0.01-0.11-0.1-0.3-0.33c-0.19-0.24-0.46-0.57-0.81-1.01c-0.71-0.91-1.74-2.24-3.08-3.97
						c-2.68-3.5-6.57-8.6-11.49-15.05l-0.06-0.08l0-0.11c0.21-7.66,0.46-16.82,0.74-27.36l0,0.04c-0.63-7.93-1.31-16.6-2.05-25.93
						l0.14,0.3c-5.12-4.85-10.5-9.94-16.1-15.24l0.63,0.04c-0.52,0.39-0.88,0.92-0.91,1.54c-0.04,0.61,0.2,1.32,0.54,1.86l1.97,3.1
						l-2.71-2.44c-2.11-1.9-4.24-3.82-6.41-5.76l0.65,0.03c-0.78,0.59-1.23,1.49-1.31,2.51c-0.08,1.02,0.12,2.09,0.45,3.13
						c0.66,2.07,1.76,4.09,3.02,5.93l-0.78,0.67c-2.5-2.47-5.02-4.98-7.58-7.51l0.73,0c-0.86,0.84-1.32,2.01-1.36,3.23
						c-0.04,1.23,0.25,2.49,0.74,3.68c0.26,0.66,0.58,1.29,0.93,1.9c0.34,0.6,0.77,1.18,1.17,1.79c0.81,1.2,1.61,2.4,2.41,3.59
						c1.59,2.38,3.16,4.71,4.68,6.98l0.08,0.12l0.01,0.14c0.17,2.83,0.3,5.63,0.22,8.41c-0.02,0.7-0.07,1.39-0.17,2.1
						c-0.11,0.67-0.23,1.34-0.34,2.01c-0.22,1.31-0.44,2.61-0.66,3.88l-0.43,2.54l-0.57-2.49c-0.7-3.08-1.4-6.13-2.04-8.93
						l0.08,0.17c-3.67-5.35-7.24-10.55-10.61-15.46l0.71,0.08c-0.55,0.58-1,1.44-1.28,2.28c-0.3,0.85-0.46,1.75-0.52,2.65
						c-0.19,1.76,0.52,3.47,1.21,5.12c1.47,3.27,3.32,6.28,5.17,9.06l0.08,0.12l-0.01,0.14c-0.38,9.62-0.63,18.4-0.59,26.15
						c0.01,1.94,0.05,3.81,0.15,5.6c0.11,1.8,0.23,3.51,0.89,5.02c1.25,3.06,2.76,5.75,4.09,8.16c2.71,4.81,4.96,8.5,6.49,11.01
						c0.76,1.25,1.34,2.2,1.74,2.86c0.19,0.32,0.33,0.56,0.44,0.74C252.73,259.7,252.77,259.78,252.76,259.79z"/>
				</g>
			</g>
			<g>
				<path style="fill:#EB996E;" d="M257.48,200.86c-0.14,0.01-0.37-1.69-0.61-4.44c-0.24-2.75-0.51-6.55-0.73-10.76
					c-0.02-0.4-0.04-0.79-0.06-1.16l0.13,0.32c-2.64-2.93-4.96-5.58-6.59-7.53c-1.63-1.94-2.58-3.17-2.48-3.27
					c0.1-0.09,1.23,0.97,3.01,2.79c1.77,1.82,4.18,4.39,6.84,7.31l0.12,0.14l0.01,0.19c0.02,0.37,0.04,0.76,0.06,1.16
					c0.23,4.2,0.37,8.01,0.43,10.77C257.66,199.14,257.62,200.85,257.48,200.86z"/>
			</g>
			<g>
				<path style="fill:#EB996E;" d="M263.58,192.72c-0.14,0.01-0.34-1.53-0.57-4.06c-0.22-2.53-0.47-6.04-0.69-9.98l0.16,0.34
					c-0.29-0.28-0.59-0.57-0.9-0.87c-3.03-2.96-5.73-5.69-7.65-7.7c-1.92-2.01-3.05-3.3-2.95-3.41c0.1-0.1,1.42,1.01,3.47,2.88
					c2.05,1.87,4.83,4.52,7.86,7.48c0.31,0.3,0.61,0.6,0.89,0.88l0.15,0.14l0.01,0.2c0.19,3.94,0.32,7.47,0.36,10
					C263.76,191.16,263.72,192.71,263.58,192.72z"/>
			</g>
		</g>
		<g>
			<path style="fill:#FFBE9D;" d="M214.14,217.55c0,0-1.7-11.58-3.3-15.69c-1.6-4.12-6.02-9.33-6.02-9.33s2.41-2.69,6.29-0.42
				c5.04,2.96,4.77,9.69,4.77,9.69L214.14,217.55z"/>
			<g>
				<path style="fill:#FFBE9D;" d="M215.41,202.91c0,0-2.74-19.19-2.56-20.46c0.18-1.28,7.31-18.09,7.31-18.09s4.2-0.37,3.65,3.65
					c-0.55,4.02-2.01,8.4-2.01,8.4l11.33-13.16c0,0,4.2,0.91,2.56,5.12c0,0,3.84-0.55,2.74,5.85l-5.07,9.71l0.58,10.09l8.33-10.94
					c0,0,4.02,2.47,2.01,6.49c-2.01,4.02-6.21,13.34-6.21,13.34l1.22,14.43c0,0,2.13,8.04,0,12.24c-2.13,4.2-4.14,8.04-4.14,8.04
					l-3.81,35.05l-24.79-15.56l7.23-35.21L215.41,202.91z"/>
				<g>
					<path style="fill:#EB996E;" d="M231.33,272.69c-0.02,0-0.01-0.21,0.02-0.61c0.03-0.42,0.08-1.02,0.15-1.8
						c0.15-1.6,0.37-3.93,0.66-6.93c0.62-6.05,1.52-14.81,2.64-25.75l0.01-0.06l0.03-0.06c0.73-1.42,1.47-2.89,2.25-4.4
						c0.39-0.76,0.78-1.52,1.18-2.3c0.4-0.79,0.83-1.56,1.08-2.36c0.51-1.64,0.56-3.48,0.44-5.33c-0.13-1.85-0.43-3.75-0.9-5.62
						l-0.01-0.04l0-0.03c-0.4-4.58-0.82-9.41-1.26-14.43l-0.01-0.12l0.05-0.11c1.47-3.16,2.99-6.44,4.55-9.81
						c0.39-0.84,0.78-1.69,1.18-2.54c0.39-0.88,0.83-1.65,0.93-2.5c0.28-1.69-0.84-3.4-2.3-4.37l0.65-0.12
						c-2.63,3.46-5.44,7.17-8.32,10.95l-0.83,1.1l-0.08-1.38c-0.18-3.19-0.38-6.62-0.58-10.09l-0.01-0.14l0.07-0.13
						c1.61-3.08,3.33-6.38,5.06-9.71l-0.05,0.15c0.15-1,0.26-2.05,0.1-3.04c-0.14-1-0.65-1.88-1.53-2.12
						c-0.23-0.07-0.53-0.1-0.72-0.08l-0.87,0.08l0.31-0.79c0.38-0.96,0.49-1.99,0.06-2.8c-0.4-0.81-1.34-1.38-2.25-1.62l0.5-0.17
						c-3.85,4.47-7.64,8.86-11.33,13.15l-1.64,1.9l0.77-2.4c0.76-2.36,1.39-4.77,1.81-7.16c0.11-0.59,0.2-1.21,0.22-1.74
						c-0.01-0.54-0.11-1.05-0.38-1.45c-0.53-0.8-1.73-1.11-2.77-1.06l0.42-0.3c-1.42,3.38-2.81,6.69-4.17,9.93
						c-0.66,1.63-1.32,3.24-1.96,4.83c-0.31,0.8-0.63,1.59-0.91,2.38c-0.06,0.19-0.15,0.41-0.19,0.57l-0.07,0.25l0,0.25
						c0.01,0.37,0.04,0.8,0.09,1.21c0.71,6.64,1.62,12.97,2.42,18.88l0.01,0.05l0,0.05c-0.62,6.91-1.19,13.26-1.71,19l0,0.02l0,0.02
						c-2.32,10.96-4.18,19.75-5.46,25.81c-0.66,3.01-1.17,5.34-1.52,6.93c-0.18,0.78-0.32,1.37-0.42,1.79
						c-0.1,0.4-0.16,0.6-0.17,0.6c-0.02,0,0.01-0.21,0.08-0.62c0.08-0.42,0.18-1.02,0.32-1.81c0.31-1.61,0.76-3.95,1.34-6.97
						c1.21-6.08,2.96-14.89,5.15-25.88l-0.01,0.04c0.48-5.74,1-12.09,1.58-19.01l0,0.1c-0.84-5.92-1.78-12.21-2.52-18.91
						c-0.04-0.43-0.08-0.83-0.1-1.31l0.01-0.38l0.09-0.36c0.07-0.24,0.14-0.42,0.21-0.63c0.29-0.81,0.6-1.61,0.91-2.41
						c0.64-1.6,1.29-3.21,1.95-4.85c1.35-3.25,2.73-6.57,4.14-9.95l0.12-0.29l0.3-0.01c0.69-0.03,1.33,0.04,1.98,0.25
						c0.64,0.21,1.29,0.61,1.7,1.23c0.42,0.61,0.55,1.34,0.56,2.02c-0.03,0.69-0.13,1.29-0.24,1.91c-0.43,2.46-1.07,4.88-1.84,7.31
						l-0.87-0.5c3.69-4.29,7.47-8.69,11.32-13.16l0.21-0.24l0.29,0.07c0.63,0.16,1.16,0.41,1.68,0.75c0.51,0.35,0.97,0.82,1.27,1.4
						c0.62,1.19,0.41,2.57-0.02,3.66l-0.56-0.71c0.43-0.04,0.78,0.01,1.16,0.11c0.65,0.19,1.25,0.63,1.62,1.18
						c0.36,0.55,0.58,1.17,0.65,1.76c0.19,1.2,0.05,2.33-0.1,3.39l-0.01,0.08l-0.04,0.08c-1.74,3.33-3.46,6.63-5.07,9.71l0.06-0.27
						c0.2,3.47,0.39,6.91,0.57,10.09l-0.91-0.28c2.88-3.77,5.7-7.47,8.34-10.93l0.28-0.37l0.37,0.25c0.9,0.6,1.61,1.35,2.14,2.27
						c0.53,0.91,0.75,2.02,0.6,3.07c-0.14,1.06-0.67,1.97-1.03,2.79c-0.4,0.85-0.79,1.69-1.18,2.53c-1.57,3.35-3.1,6.62-4.57,9.77
						l0.04-0.23c0.41,5.03,0.81,9.86,1.19,14.44l-0.01-0.07c0.48,1.95,0.77,3.87,0.89,5.79c0.11,1.91,0.05,3.82-0.51,5.62
						c-0.3,0.92-0.75,1.69-1.15,2.46c-0.4,0.78-0.8,1.54-1.19,2.3c-0.79,1.51-1.55,2.97-2.28,4.39l0.04-0.12
						c-1.26,10.92-2.26,19.67-2.96,25.71c-0.37,3-0.65,5.32-0.84,6.91c-0.11,0.77-0.19,1.37-0.24,1.79
						C231.39,272.48,231.35,272.69,231.33,272.69z"/>
				</g>
				<g>
					<path style="fill:#EB996E;" d="M220.54,196.94c-0.29,0.04-1.17-4.74-1.97-10.68c-0.23-1.73-0.43-3.37-0.59-4.8l-0.02-0.19
						l0.1-0.14c2.07-2.91,3.58-4.83,3.75-4.72c0.17,0.11-1.05,2.23-2.98,5.24l0.08-0.32c0.23,1.42,0.47,3.05,0.7,4.78
						C220.4,192.06,220.82,196.9,220.54,196.94z"/>
				</g>
				<g>
					<path style="fill:#EB996E;" d="M226.9,192.54c-0.23,0.03-0.88-4.05-1.57-9.68l-0.02-0.18l0.11-0.16c0.68-1,1.4-2.07,2.15-3.18
						c4.25-6.22,7.89-11.12,8.13-10.96c0.24,0.16-3.02,5.33-7.27,11.55c-0.76,1.1-1.5,2.17-2.19,3.16l0.08-0.34
						C226.88,188.39,227.13,192.51,226.9,192.54z"/>
				</g>
			</g>
		</g>
	</g>
</g>
<g id="Plant">
	<g>
		<g>
			<g>
				<g>
					<path style="fill:#5FA2AA;" d="M98.76,307.83c-11.71-17.91-11.26-44.1,2.73-60.29c4.34-5.03,10.41-9.4,17.03-8.83
						c6.78,0.58,12.24,6.39,14.3,12.87c2.06,6.48,1.35,13.5,0.14,20.2c-1.7,9.37-4.54,18.96-11.04,25.92
						C115.41,304.65,107.11,312.4,98.76,307.83"/>
				</g>
				<g>
					<path style="fill:#5FA2AA;" d="M103.98,393.45c-4.41-10.29-1.21-23.32,7.46-30.4c2.69-2.2,6.21-3.9,9.57-3.01
						c3.44,0.91,5.73,4.4,6.2,7.93c0.47,3.53-0.53,7.08-1.76,10.42c-1.72,4.67-4.05,9.36-8.03,12.35
						C113.44,393.74,107.87,396.56,103.98,393.45"/>
				</g>
				<g>
					<path style="fill:#5FA2AA;" d="M75.74,387.31c3.22-15.88-5.15-33.4-19.52-40.88c-4.46-2.32-9.95-3.7-14.45-1.44
						c-4.6,2.31-6.82,7.92-6.45,13.06c0.37,5.14,2.83,9.88,5.56,14.24c3.82,6.12,8.5,12.07,15.02,15.14
						C62.41,390.5,71.14,392.86,75.74,387.31"/>
				</g>
				<g>
					<path style="fill:#5FA2AA;" d="M77.76,344.36c5.61-18.09-3.9-40.03-19.74-50.41c-4.92-3.22-11.14-5.46-16.64-3.37
						c-5.63,2.14-8.86,8.42-9.04,14.44c-0.18,6.02,2.14,11.82,4.8,17.22c3.72,7.56,8.47,15.03,15.7,19.37
						C60.07,345.95,71.76,350.28,77.76,344.36"/>
				</g>
				<g>
					<g>
						<path style="fill:#263238;" d="M89.03,432.8c-0.03,0-0.09-0.3-0.18-0.88c-0.1-0.66-0.22-1.49-0.38-2.52
							c-0.08-0.56-0.16-1.17-0.25-1.82c-0.13-0.67-0.27-1.39-0.41-2.15c-0.29-1.54-0.6-3.31-1.1-5.22
							c-0.23-0.96-0.48-1.97-0.73-3.02c-0.3-1.04-0.62-2.11-0.95-3.23c-0.6-2.25-1.5-4.57-2.33-7.04
							c-1.85-4.89-4.16-10.16-6.98-15.49c-2.88-5.3-6-10.14-9.05-14.39c-1.6-2.06-3.04-4.09-4.58-5.84
							c-0.75-0.89-1.47-1.75-2.17-2.57c-0.73-0.79-1.44-1.55-2.11-2.28c-1.32-1.48-2.62-2.71-3.74-3.81
							c-0.56-0.55-1.08-1.06-1.56-1.54c-0.5-0.44-0.96-0.85-1.38-1.22c-0.77-0.7-1.4-1.26-1.9-1.71c-0.43-0.4-0.65-0.62-0.63-0.64
							c0.02-0.02,0.27,0.16,0.73,0.52c0.52,0.42,1.18,0.95,1.99,1.6c0.44,0.36,0.91,0.75,1.43,1.17c0.5,0.46,1.04,0.96,1.61,1.49
							c1.16,1.07,2.49,2.28,3.84,3.74c0.69,0.72,1.41,1.47,2.16,2.25c0.71,0.82,1.45,1.68,2.21,2.56c1.57,1.74,3.04,3.76,4.67,5.83
							c3.1,4.25,6.26,9.1,9.15,14.44c2.84,5.36,5.14,10.68,6.97,15.61c0.82,2.5,1.7,4.84,2.28,7.11c0.31,1.12,0.62,2.21,0.91,3.26
							c0.24,1.06,0.47,2.07,0.69,3.04c0.47,1.93,0.74,3.71,1,5.27c0.13,0.77,0.24,1.5,0.35,2.17c0.07,0.66,0.13,1.28,0.19,1.84
							c0.1,1.04,0.17,1.88,0.23,2.55C89.04,432.49,89.05,432.8,89.03,432.8z"/>
					</g>
				</g>
				<g>
					<g>
						<path style="fill:#263238;" d="M88.61,436.05c-0.01,0-0.01-0.12,0-0.36c0.02-0.28,0.05-0.63,0.08-1.05
							c0.09-0.98,0.21-2.32,0.37-4.02c0.09-0.88,0.18-1.85,0.29-2.9c0.08-1.06,0.11-2.22,0.17-3.46c0.09-2.49,0.33-5.31,0.24-8.45
							c-0.01-1.57-0.02-3.21-0.02-4.91c-0.02-1.71-0.18-3.48-0.27-5.32c-0.12-3.68-0.62-7.58-1.07-11.7
							c-1.12-8.2-2.88-17.14-5.55-26.31c-2.76-9.15-6.16-17.61-9.69-25.09c-1.87-3.69-3.58-7.24-5.48-10.39
							c-0.93-1.59-1.76-3.16-2.68-4.6c-0.92-1.44-1.81-2.81-2.66-4.13c-1.63-2.67-3.37-4.91-4.81-6.95
							c-0.73-1.01-1.39-1.96-2.03-2.81c-0.66-0.83-1.27-1.59-1.82-2.28c-1.06-1.34-1.89-2.39-2.5-3.17
							c-0.26-0.34-0.47-0.61-0.64-0.84c-0.14-0.19-0.21-0.29-0.2-0.3c0.01-0.01,0.1,0.08,0.26,0.25c0.19,0.21,0.41,0.47,0.69,0.79
							c0.64,0.75,1.51,1.78,2.62,3.08c0.57,0.68,1.2,1.43,1.88,2.24c0.67,0.84,1.34,1.78,2.09,2.78c1.47,2.01,3.25,4.24,4.91,6.9
							c0.86,1.31,1.77,2.69,2.71,4.12c0.93,1.44,1.78,3.01,2.73,4.6c1.94,3.15,3.67,6.7,5.57,10.4c3.58,7.5,7.02,15.99,9.79,25.18
							c2.68,9.21,4.43,18.2,5.52,26.44c0.43,4.13,0.9,8.05,1,11.75c0.07,1.85,0.22,3.63,0.22,5.34c-0.01,1.71-0.02,3.36-0.03,4.93
							c0.05,3.14-0.22,5.98-0.36,8.47c-0.09,1.24-0.14,2.4-0.24,3.47c-0.13,1.06-0.25,2.02-0.35,2.9c-0.22,1.69-0.39,3.03-0.51,4.01
							c-0.06,0.42-0.11,0.76-0.15,1.04C88.65,435.94,88.63,436.06,88.61,436.05z"/>
					</g>
				</g>
				<g>
					<g>
						<path style="fill:#263238;" d="M119.1,260.34c0.01,0.01-0.04,0.12-0.15,0.33c-0.14,0.25-0.3,0.56-0.5,0.94
							c-0.49,0.87-1.16,2.06-2,3.57c-0.43,0.78-0.95,1.62-1.44,2.58c-0.48,0.97-1.01,2.02-1.57,3.15c-0.57,1.13-1.17,2.34-1.81,3.62
							c-0.61,1.29-1.19,2.69-1.84,4.14c-0.63,1.46-1.33,2.97-1.98,4.58c-0.62,1.62-1.27,3.3-1.94,5.04
							c-0.34,0.87-0.68,1.76-1.02,2.66c-0.31,0.91-0.62,1.84-0.94,2.79c-0.64,1.89-1.29,3.83-1.96,5.82
							c-2.48,8.03-4.83,16.97-6.82,26.46c-1.92,9.51-3.27,18.66-4.27,27c-0.85,8.36-1.49,15.91-1.66,22.27
							c-0.16,3.18-0.19,6.05-0.2,8.58c-0.04,2.53-0.05,4.7,0.01,6.48c0.02,1.73,0.04,3.1,0.06,4.1c0,0.43,0,0.78,0,1.07
							c-0.01,0.24-0.01,0.36-0.03,0.36c-0.01,0-0.03-0.12-0.05-0.36c-0.02-0.28-0.04-0.63-0.07-1.06c-0.05-1-0.12-2.37-0.2-4.1
							c-0.11-1.78-0.14-3.96-0.14-6.49c-0.03-2.53-0.04-5.41,0.09-8.59c0.1-6.37,0.68-13.94,1.5-22.32
							c0.96-8.37,2.29-17.54,4.22-27.08c1.99-9.52,4.37-18.48,6.9-26.52c0.68-1.99,1.35-3.94,2-5.82c0.33-0.94,0.65-1.87,0.96-2.79
							c0.35-0.9,0.7-1.79,1.04-2.66c0.69-1.74,1.35-3.42,1.99-5.04c0.66-1.61,1.39-3.11,2.03-4.57c0.66-1.45,1.26-2.84,1.89-4.13
							c0.66-1.27,1.28-2.47,1.86-3.6c0.58-1.12,1.13-2.16,1.63-3.13c0.52-0.95,1.05-1.79,1.5-2.56c0.9-1.48,1.61-2.65,2.13-3.51
							c0.23-0.36,0.42-0.66,0.57-0.9C119.02,260.43,119.09,260.33,119.1,260.34z"/>
					</g>
				</g>
				<g>
					<g>
						<path style="fill:#263238;" d="M115.12,370.25c0.04,0.03-0.4,0.81-1.25,2.19c-0.86,1.37-2.03,3.39-3.41,5.92
							c-1.39,2.53-2.9,5.61-4.44,9.1c-1.5,3.51-2.99,7.42-4.3,11.62c-1.28,4.21-2.26,8.29-3,12.03c-0.7,3.75-1.19,7.15-1.47,10.02
							c-0.29,2.87-0.46,5.2-0.53,6.82c-0.08,1.61-0.15,2.51-0.2,2.51c-0.05,0-0.08-0.89-0.09-2.52c-0.03-1.62,0.06-3.97,0.28-6.86
							c0.21-2.89,0.65-6.32,1.32-10.1c0.71-3.77,1.67-7.88,2.96-12.12c1.32-4.23,2.85-8.17,4.39-11.68c1.58-3.5,3.15-6.58,4.61-9.08
							c1.45-2.51,2.7-4.5,3.63-5.82C114.55,370.94,115.08,370.22,115.12,370.25z"/>
					</g>
				</g>
			</g>
			<g>
				<polygon style="fill:#455A64;" points="66.03,424.74 117.47,424.74 111.24,477.28 72.43,477.28 				"/>
			</g>
			<g>
				<polygon style="fill:#263238;" points="67.9,471.61 72.27,477.28 111.24,477.28 115.74,471.79 				"/>
			</g>
			<g>
				<g>
					<path style="fill:#FAFAFA;" d="M115.46,440.19c0,0.21-10.68,0.38-23.84,0.38c-13.17,0-23.84-0.17-23.84-0.38
						c0-0.21,10.67-0.38,23.84-0.38C104.79,439.81,115.46,439.98,115.46,440.19z"/>
				</g>
			</g>
			<g>
				<g>
					<path style="fill:#FAFAFA;" d="M115.46,443.69c0,0.21-10.68,0.38-23.84,0.38c-13.17,0-23.84-0.17-23.84-0.38
						c0-0.21,10.67-0.38,23.84-0.38C104.79,443.31,115.46,443.48,115.46,443.69z"/>
				</g>
			</g>
			<g>
				<g>
					<path style="fill:#FAFAFA;" d="M114.82,447.08c0,0.21-10.3,0.38-23.01,0.38c-12.71,0-23.01-0.17-23.01-0.38
						c0-0.21,10.3-0.38,23.01-0.38C104.52,446.69,114.82,446.87,114.82,447.08z"/>
				</g>
			</g>
		</g>
		<g>
			<path style="fill:#263238;" d="M73.88,311.5c0.02,0,0.02,0.17-0.01,0.5c-0.03,0.39-0.07,0.86-0.12,1.43
				c-0.13,1.32-0.31,3.08-0.53,5.23c-0.47,4.42-1.15,10.52-1.94,17.25c-0.03,0.26-0.06,0.51-0.09,0.75l-0.03,0.23l-0.23,0
				c-6.61,0.1-12.56,0.17-16.85,0.19c-2.09,0-3.8,0-5.08,0c-0.55-0.01-1-0.02-1.38-0.03c-0.32-0.01-0.48-0.03-0.48-0.04
				c0-0.02,0.16-0.04,0.48-0.06c0.37-0.02,0.83-0.04,1.38-0.07c1.28-0.04,2.99-0.1,5.08-0.16c4.29-0.11,10.24-0.24,16.85-0.34
				l-0.25,0.23c0.03-0.24,0.06-0.49,0.09-0.75c0.79-6.73,1.53-12.82,2.09-17.23c0.28-2.14,0.52-3.9,0.69-5.22
				c0.09-0.57,0.16-1.03,0.21-1.42C73.83,311.67,73.87,311.5,73.88,311.5z"/>
		</g>
		<g>
			<path style="fill:#263238;" d="M62.19,295.79c0.02,0,0.03,0.18,0.04,0.52c0,0.4,0.01,0.88,0.01,1.47
				c-0.01,1.36-0.03,3.19-0.05,5.42c-0.06,4.58-0.19,10.9-0.36,17.88c-0.01,0.28-0.01,0.56-0.02,0.83l-0.01,0.27l-0.27-0.02
				c-6.77-0.53-12.89-0.53-17.3-0.39c-2.21,0.07-3.99,0.16-5.22,0.22c-0.57,0.03-1.03,0.05-1.42,0.07c-0.32,0.01-0.49,0.01-0.5-0.01
				c0-0.02,0.17-0.05,0.49-0.09c0.32-0.04,0.8-0.1,1.41-0.16c1.23-0.13,3.01-0.27,5.22-0.39c4.42-0.24,10.56-0.29,17.35,0.23
				l-0.28,0.25c0.01-0.26,0.01-0.54,0.02-0.82c0.17-6.98,0.35-13.3,0.51-17.88c0.09-2.23,0.16-4.06,0.22-5.42
				c0.03-0.59,0.06-1.08,0.08-1.47C62.15,295.97,62.17,295.79,62.19,295.79z"/>
		</g>
		<g>
			<path style="fill:#263238;" d="M48.5,290.44c0.04-0.01,0.14,0.53,0.32,1.51c0.2,1.06,0.45,2.46,0.76,4.14
				c0.67,3.49,1.71,8.3,3.18,13.57l0.15,0.55l-0.52-0.25c-0.2-0.09-0.41-0.2-0.62-0.3c-5.05-2.44-10.07-3.57-13.71-4.01
				c-1.82-0.22-3.31-0.31-4.34-0.35c-1.03-0.03-1.6-0.05-1.6-0.09c0-0.02,0.14-0.04,0.41-0.06c0.27-0.02,0.67-0.05,1.19-0.06
				c1.03-0.03,2.54,0,4.38,0.18c3.68,0.35,8.78,1.43,13.9,3.91c0.21,0.1,0.43,0.21,0.62,0.3l-0.37,0.3
				c-1.47-5.29-2.46-10.13-3.03-13.65c-0.29-1.76-0.49-3.18-0.6-4.17C48.51,290.99,48.46,290.44,48.5,290.44z"/>
		</g>
		<g>
			<path style="fill:#263238;" d="M121.14,386.22c-0.01,0.08-1.49-0.07-3.89-0.17c-2.4-0.09-5.72-0.09-9.36,0.31
				c-0.74,0.08-1.46,0.17-2.15,0.26l-0.25,0.03l-0.04-0.24c-0.56-3.11-1.02-5.85-1.33-7.82c-0.31-1.97-0.47-3.16-0.4-3.17
				c0.06-0.01,0.34,1.16,0.74,3.11c0.4,1.95,0.93,4.68,1.51,7.79l-0.29-0.21c0.7-0.1,1.43-0.2,2.17-0.27
				c3.67-0.4,7.02-0.34,9.43-0.15c1.2,0.09,2.17,0.22,2.84,0.32C120.78,386.11,121.15,386.19,121.14,386.22z"/>
		</g>
		<g>
			<path style="fill:#263238;" d="M126,376.57c-0.02,0.08-1.44-0.25-3.77-0.54c-2.32-0.29-5.57-0.47-9.13-0.09
				c-0.55,0.06-1.1,0.13-1.61,0.2l-0.27,0.04l-0.03-0.27c-0.32-3.2-0.59-6.03-0.75-8.07c-0.17-2.04-0.23-3.27-0.17-3.28
				c0.07-0.01,0.25,1.22,0.51,3.25c0.26,2.03,0.58,4.85,0.92,8.05l-0.29-0.23c0.52-0.07,1.07-0.15,1.63-0.21
				c3.6-0.38,6.9-0.14,9.23,0.24c1.17,0.19,2.1,0.41,2.74,0.57C125.66,376.42,126.01,376.54,126,376.57z"/>
		</g>
		<g>
			<path style="fill:#263238;" d="M129.49,285.11c0.01,0.02-0.17,0.11-0.51,0.27c-0.4,0.18-0.89,0.4-1.5,0.67
				c-1.38,0.59-3.26,1.39-5.56,2.37c-4.78,1.98-11.26,4.66-18.43,7.63c-0.34,0.14-0.68,0.28-1,0.41l-0.23,0.1l-0.1-0.23
				c-3.04-6.87-5.78-13.05-7.79-17.58c-0.95-2.2-1.72-4-2.29-5.32c-0.24-0.59-0.44-1.07-0.6-1.45c-0.13-0.33-0.19-0.51-0.18-0.52
				c0.02-0.01,0.11,0.16,0.27,0.48c0.18,0.37,0.41,0.84,0.69,1.41c0.61,1.3,1.43,3.08,2.44,5.25c2.05,4.52,4.83,10.67,7.93,17.52
				l-0.34-0.13c0.31-0.13,0.65-0.27,0.99-0.41c7.19-2.91,13.7-5.55,18.49-7.49c2.33-0.92,4.23-1.67,5.63-2.22
				c0.62-0.23,1.13-0.43,1.54-0.58C129.29,285.15,129.48,285.09,129.49,285.11z"/>
		</g>
		<g>
			<path style="fill:#263238;" d="M133.99,262.89c0.01,0.02-0.15,0.13-0.45,0.33c-0.36,0.23-0.8,0.52-1.35,0.87
				c-1.24,0.78-2.94,1.84-5.02,3.13c-4.33,2.64-10.22,6.23-16.76,10.22l-0.27,0.16l-0.11-0.3c-0.1-0.26-0.2-0.53-0.3-0.81
				c-2.73-7.37-5.2-14.04-7.02-18.95c-0.86-2.38-1.56-4.33-2.07-5.76c-0.22-0.64-0.4-1.16-0.54-1.58c-0.12-0.36-0.17-0.56-0.15-0.56
				c0.02-0.01,0.1,0.18,0.25,0.53c0.17,0.41,0.37,0.92,0.63,1.54c0.55,1.41,1.31,3.35,2.23,5.71c1.86,4.89,4.38,11.54,7.16,18.89
				c0.1,0.28,0.21,0.55,0.3,0.81l-0.38-0.13c6.57-3.94,12.49-7.48,16.84-10.08c2.11-1.24,3.84-2.25,5.11-2.99
				c0.57-0.32,1.03-0.58,1.4-0.79C133.81,262.96,133.98,262.87,133.99,262.89z"/>
		</g>
		<g>
			<path style="fill:#263238;" d="M132.52,251.03c0.02,0.03-0.38,0.25-1.1,0.65c-0.72,0.4-1.77,0.99-3.04,1.78
				c-2.54,1.57-5.95,3.99-9.32,7.3l-0.64,0.63l0.22-0.88c0.23-0.92,0.43-1.89,0.59-2.89c0.86-5.35,0.19-10.3-0.73-13.71
				c-0.46-1.71-0.96-3.06-1.32-3.99c-0.38-0.92-0.58-1.43-0.55-1.45c0.03-0.01,0.3,0.47,0.74,1.37c0.41,0.91,0.98,2.25,1.49,3.97
				c1.02,3.42,1.76,8.45,0.89,13.89c-0.16,1.01-0.38,2-0.61,2.93l-0.43-0.25c3.42-3.32,6.91-5.72,9.51-7.22
				c1.3-0.75,2.38-1.3,3.13-1.65C132.08,251.17,132.5,251,132.52,251.03z"/>
		</g>
		<g>
			<path style="fill:#263238;" d="M73.82,366.37c0.03,0.01-0.06,0.48-0.24,1.33c-0.18,0.85-0.44,2.08-0.72,3.61
				c-0.57,3.07-1.18,7.36-1.38,12.18l-0.01,0.23l-0.23,0.01c-0.37,0.02-0.76,0.05-1.15,0.07c-5.1,0.31-9.72,0.56-13.06,0.71
				c-1.6,0.06-2.93,0.12-3.96,0.16c-0.94,0.03-1.46,0.02-1.46-0.01c0-0.04,0.51-0.1,1.45-0.19c1.03-0.08,2.36-0.19,3.95-0.32
				c3.34-0.25,7.95-0.56,13.06-0.86c0.39-0.02,0.79-0.05,1.15-0.07l-0.24,0.25c0.21-4.86,0.89-9.17,1.55-12.23
				c0.33-1.53,0.64-2.75,0.88-3.59C73.63,366.82,73.78,366.36,73.82,366.37z"/>
		</g>
		<g>
			<path style="fill:#263238;" d="M63.71,351.88c0.03,0,0,0.48-0.09,1.34c-0.11,0.95-0.25,2.18-0.42,3.66
				c-0.37,3.1-0.93,7.39-1.58,12.21l-0.03,0.21l-0.21,0.01c-0.53,0.03-1.09,0.07-1.66,0.11c-5.23,0.35-9.94,0.89-13.35,1.34
				c-1.63,0.22-2.98,0.4-4.03,0.54c-0.95,0.13-1.48,0.19-1.49,0.15c-0.01-0.03,0.51-0.16,1.45-0.35c0.94-0.19,2.31-0.44,4.01-0.71
				c3.4-0.54,8.12-1.14,13.36-1.49c0.57-0.04,1.13-0.07,1.66-0.11l-0.24,0.22c0.66-4.82,1.28-9.11,1.74-12.19
				c0.23-1.47,0.42-2.69,0.57-3.63C63.58,352.34,63.67,351.88,63.71,351.88z"/>
		</g>
		<g>
			<path style="fill:#263238;" d="M51.81,345.64c0.08,0.02-0.24,1.41-0.6,3.71c-0.37,2.29-0.76,5.5-0.83,9.1l-0.01,0.29l-0.29-0.04
				c-0.27-0.03-0.57-0.07-0.86-0.11c-3.78-0.47-7.22-0.58-9.72-0.58c-1.16,0.01-2.14,0.02-2.96,0.03c-0.7,0.01-1.09,0.01-1.09-0.03
				c0-0.03,0.38-0.1,1.08-0.17c0.7-0.07,1.71-0.15,2.96-0.2c2.5-0.1,5.98-0.04,9.79,0.43c0.3,0.04,0.59,0.08,0.87,0.11l-0.29,0.25
				c0.08-3.63,0.53-6.86,1-9.16c0.23-1.15,0.45-2.06,0.63-2.69C51.66,345.97,51.78,345.63,51.81,345.64z"/>
		</g>
		<g>
			<path style="fill:#263238;" d="M119.58,360.13c0.13,0.07-0.98,2.37-2.3,5.22c-1.32,2.85-2.34,5.19-2.47,5.14
				c-0.13-0.05,0.68-2.48,2-5.36C118.13,362.26,119.46,360.06,119.58,360.13z"/>
		</g>
		<g>
			<path style="fill:#263238;" d="M126.05,366.98c0.01,0.16-2.7,0.19-5.85,1.18c-3.15,0.96-5.41,2.47-5.49,2.33
				c-0.09-0.09,2.09-1.84,5.34-2.83C123.28,366.65,126.07,366.86,126.05,366.98z"/>
		</g>
	</g>
</g>
<g id="Clock">
	<g>
		<g>
			<g>
				<path style="fill:#455A64;" d="M456.25,477.63h-67.66V426.8c0-18.68,15.15-33.83,33.83-33.83l0,0
					c18.68,0,33.83,15.15,33.83,33.83V477.63z"/>
			</g>
		</g>
		<g>
			<g>
				
					<ellipse transform="matrix(0.2288 -0.9735 0.9735 0.2288 -88.8641 740.9163)" style="fill:#F5F5F5;" cx="423.17" cy="426.54" rx="20.12" ry="20.12"/>
			</g>
		</g>
		<g>
			<g>
				<g>
					<path style="fill:#263238;" d="M430.37,423.83c0.12,0.16-2.8,2.58-6.94,5.78l-0.67,0.52l0-0.86c-0.01-1.16-0.01-2.39-0.02-3.66
						c0-3.5,0.05-6.67,0.13-8.97c0.08-2.29,0.19-3.71,0.31-3.71c0.12,0,0.23,1.42,0.31,3.71c0.08,2.29,0.13,5.46,0.13,8.97
						c-0.01,1.27-0.01,2.5-0.02,3.66l-0.68-0.34C427.12,425.82,430.25,423.67,430.37,423.83z"/>
				</g>
			</g>
		</g>
		<g>
			<g>
				<g>
					<path style="fill:#263238;" d="M441.17,466.64c-0.02-0.02-0.04-0.3-0.06-0.83c-0.02-0.61-0.04-1.37-0.07-2.29
						c-0.04-2.07-0.09-4.88-0.16-8.36l0.29,0.29c-8.55,0.1-21.51,0.16-35.99,0.16c0.2-0.2-0.44,0.44,0.44-0.44v0v0.01v0.01v0.02
						v0.05v0.09v0.19l0,0.37l0,0.74l0,1.48c0,0.98,0,1.95,0,2.91c0,1.92-0.01,3.79-0.01,5.61l-0.43-0.43
						c10.26,0.02,19.19,0.11,25.61,0.2c3.13,0.05,5.68,0.09,7.57,0.12c0.82,0.02,1.5,0.04,2.06,0.06
						C440.9,466.61,441.15,466.63,441.17,466.64c0.02,0.02-0.2,0.04-0.64,0.05c-0.53,0.02-1.18,0.03-1.97,0.06
						c-1.86,0.03-4.38,0.07-7.47,0.12c-6.4,0.08-15.46,0.18-25.91,0.2l-0.43,0l0-0.43c0-1.82-0.01-3.69-0.01-5.61
						c0-0.96,0-1.93,0-2.91l0-1.48l0-0.74v-0.37v-0.19v-0.09v-0.05v-0.02v-0.01v-0.01v0c0.88-0.88,0.25-0.25,0.44-0.44
						c14.48,0,27.44,0.06,35.99,0.16l0.29,0l-0.01,0.28c-0.07,3.55-0.12,6.42-0.16,8.54c-0.03,0.89-0.05,1.63-0.07,2.22
						C441.21,466.42,441.19,466.66,441.17,466.64z"/>
				</g>
			</g>
		</g>
	</g>
</g>
<g id="Speech_Bubble">
	<g>
		<g>
			<path style="fill:#263238;" d="M176.28,174.39c-2.29-0.56-13.32-3.27-34.66-8.52l0.25-0.04c-7.62,4.86-17.95,8.78-29.92,8.97
				c-5.95-0.02-12.25-0.74-18.54-2.71c-6.28-1.96-12.46-5.2-18.07-9.58c-11.23-8.69-19.97-22.61-21.86-38.63
				c-0.96-7.96-0.32-16.33,2.16-24.34c2.52-7.99,6.87-15.56,12.74-21.94c2.97-3.37,6.47-6.16,10.04-8.75
				c1.87-1.16,3.72-2.36,5.65-3.38l2.95-1.42l1.47-0.71l1.53-0.56c8.08-3.13,16.67-4.34,24.92-3.8c8.26,0.53,16.17,2.84,23.09,6.48
				c6.93,3.63,12.87,8.57,17.54,14.17c4.68,5.6,8.08,11.87,10.24,18.19c2.16,6.33,3.15,12.7,3.2,18.71
				c0.07,12.09-3.71,22.46-8.3,30.03l0-0.31C170.34,163.66,175.21,172.45,176.28,174.39c-1.11-1.92-6.15-10.61-16.12-27.81
				l-0.09-0.16l0.09-0.16c4.48-7.53,8.13-17.79,8-29.7c-0.09-5.93-1.09-12.19-3.24-18.41c-2.15-6.21-5.52-12.36-10.13-17.85
				c-4.6-5.49-10.45-10.32-17.26-13.87c-6.8-3.56-14.56-5.81-22.67-6.32c-8.09-0.53-16.52,0.67-24.43,3.75l-1.5,0.55l-1.44,0.69
				L84.6,66.5c-1.89,1-3.7,2.18-5.54,3.31c-3.5,2.54-6.93,5.27-9.84,8.58c-5.75,6.25-10.01,13.67-12.49,21.5
				c-2.43,7.85-3.07,16.06-2.14,23.87c1.83,15.72,10.37,29.4,21.38,37.97c5.5,4.32,11.56,7.53,17.73,9.48
				c6.18,1.96,12.37,2.69,18.24,2.75c11.8-0.12,22.01-3.92,29.59-8.67l0.12-0.08l0.13,0.04C163.02,170.87,174,173.78,176.28,174.39z
				"/>
		</g>
		<path style="fill:#5FA2AA;" d="M106.27,91.12l1.83,28.95c0.15,2.37,2.04,4.25,4.41,4.39l0,0c2.5,0.15,4.67-1.69,4.95-4.17
			l3.21-29.1c0.24-2.2-1.5-4.12-3.72-4.09l-7.06,0.1C107.79,87.23,106.13,89.02,106.27,91.12z"/>
		<path style="fill:#5FA2AA;" d="M120.19,140.76c-1.23,3.7-5.23,5.71-8.93,4.48c-3.7-1.23-5.71-5.23-4.48-8.93
			c1.23-3.7,5.23-5.71,8.93-4.48C119.41,133.05,121.41,137.05,120.19,140.76z"/>
	</g>
</g>
</svg>
