<svg width="172" height="39" viewBox="0 0 172 39" fill="none" xmlns="http://www.w3.org/2000/svg">
<path d="M6.81958 33.1219C4.8015 33.1219 3.27525 32.5544 2.24098 31.4192C1.20671 30.2588 0.689453 28.6064 0.689453 26.4622V24.9487H4.62485V26.765C4.62485 28.4804 5.34382 29.338 6.7817 29.338C7.48803 29.338 8.01771 29.1362 8.37087 28.7326C8.74926 28.3037 8.93855 27.6227 8.93855 26.6894C8.93855 25.5794 8.68625 24.6081 8.18173 23.7757C7.67721 22.918 6.74388 21.8964 5.38168 20.7107C3.66631 19.1972 2.46803 17.835 1.78693 16.6242C1.10583 15.3881 0.765205 14.0007 0.765205 12.4619C0.765205 10.3681 1.29489 8.75366 2.35438 7.61849C3.41387 6.45809 4.95277 5.87793 6.97085 5.87793C8.9637 5.87793 10.4647 6.45809 11.4737 7.61849C12.508 8.75366 13.025 10.3933 13.025 12.5375V13.6349H9.08982V12.2726C9.08982 11.3645 8.91319 10.7086 8.56002 10.305C8.20686 9.87618 7.68983 9.66183 7.00873 9.66183C5.6213 9.66183 4.92763 10.5068 4.92763 12.197C4.92763 13.1556 5.1797 14.051 5.68422 14.8835C6.21397 15.716 7.15994 16.7251 8.52215 17.9107C10.2627 19.4243 11.461 20.7991 12.1169 22.0351C12.7728 23.2712 13.1007 24.7217 13.1007 26.3866C13.1007 28.556 12.5584 30.221 11.4737 31.3814C10.4142 32.5418 8.86288 33.1219 6.81958 33.1219V33.1219Z" fill="#1C2E5C"/>
<path d="M15.4502 6.25586H21.5801C23.6486 6.25586 25.2002 6.81084 26.2344 7.92078C27.2687 9.03073 27.7857 10.6578 27.7857 12.802V15.4129C27.7857 17.5571 27.2687 19.1843 26.2344 20.2942C25.2002 21.4041 23.6486 21.9591 21.5801 21.9591H19.6126V32.7431H15.4502V6.25586ZM21.5801 18.1752C22.2612 18.1752 22.7658 17.9859 23.0937 17.6076C23.447 17.2292 23.6235 16.586 23.6235 15.6778V12.5371C23.6235 11.629 23.447 10.9858 23.0937 10.6074C22.7658 10.229 22.2612 10.0398 21.5801 10.0398H19.6126V18.1752H21.5801Z" fill="#1C2E5C"/>
<path d="M31.9695 6.25586H37.6074L41.9211 32.7431H37.7587L37.0021 27.4836V27.5592H32.2722L31.5154 32.7431H27.6558L31.9695 6.25586ZM36.5102 23.9646L34.6561 10.8722H34.5804L32.7642 23.9646H36.5102Z" fill="#1C2E5C"/>
<path d="M49.6946 33.1219C47.7017 33.1219 46.1755 32.5544 45.116 31.4192C44.0818 30.2841 43.5647 28.6821 43.5647 26.6136V12.3861C43.5647 10.3176 44.0818 8.71578 45.116 7.58061C46.1755 6.44544 47.7017 5.87793 49.6946 5.87793C51.6874 5.87793 53.2008 6.44544 54.2351 7.58061C55.2946 8.71578 55.8245 10.3176 55.8245 12.3861V15.1863H51.8891V12.1213C51.8891 10.4816 51.1954 9.66183 49.808 9.66183C48.4206 9.66183 47.7269 10.4816 47.7269 12.1213V26.9164C47.7269 28.5308 48.4206 29.338 49.808 29.338C51.1954 29.338 51.8891 28.5308 51.8891 26.9164V22.8676H55.8245V26.6136C55.8245 28.6821 55.2946 30.2841 54.2351 31.4192C53.2008 32.5544 51.6874 33.1219 49.6946 33.1219V33.1219Z" fill="#1C2E5C"/>
<path d="M58.3147 6.25586H69.6664V10.0398H62.4771V17.04H68.1906V20.8239H62.4771V28.9592H69.6664V32.7431H58.3147V6.25586Z" fill="#1C2E5C"/>
<path d="M119.797 10.0398H115.446V6.25586H128.311V10.0398H123.96V32.7431H119.797V10.0398Z" fill="#1C2E5C"/>
<path d="M130.29 6.25586H141.641V10.0398H134.452V17.04H140.166V20.8239H134.452V28.9592H141.641V32.7431H130.29V6.25586Z" fill="#1C2E5C"/>
<path d="M149.901 33.1219C147.908 33.1219 146.381 32.5543 145.322 31.4191C144.288 30.284 143.771 28.6821 143.771 26.6135V12.3862C143.771 10.3177 144.288 8.71578 145.322 7.58059C146.381 6.44545 147.908 5.87793 149.901 5.87793C151.893 5.87793 153.407 6.44545 154.441 7.58059C155.501 8.71578 156.031 10.3177 156.031 12.3862V15.1863H152.095V12.1213C152.095 10.4817 151.401 9.66183 150.014 9.66183C148.626 9.66183 147.933 10.4817 147.933 12.1213V26.9164C147.933 28.5308 148.626 29.338 150.014 29.338C151.401 29.338 152.095 28.5308 152.095 26.9164V22.8676H156.031V26.6135C156.031 28.6821 155.501 30.284 154.441 31.4191C153.407 32.5543 151.893 33.1219 149.901 33.1219V33.1219Z" fill="#1C2E5C"/>
<path d="M158.521 6.25586H162.683V17.04H167.148V6.25586H171.31V32.7431H167.148V20.8239H162.683V32.7431H158.521V6.25586Z" fill="#1C2E5C"/>
<path d="M93.5767 39C104.346 39 113.077 30.2695 113.077 19.5C113.077 8.73044 104.346 0 93.5767 0C82.8071 0 74.0767 8.73044 74.0767 19.5C74.0767 30.2695 82.8071 39 93.5767 39Z" fill="#FF6600"/>
<path d="M90.6385 32.8293C88.6751 32.8293 87.1779 32.2771 86.1471 31.1727C85.1162 30.0436 84.6008 28.436 84.6008 26.3498V6.69043H88.6505V26.6444C88.6505 27.5279 88.8223 28.1661 89.1659 28.5588C89.5341 28.9515 90.0495 29.1478 90.7122 29.1478C91.3749 29.1478 91.878 28.9515 92.2216 28.5588C92.5898 28.1661 92.7738 27.5279 92.7738 26.6444V6.69043H96.6763V26.3498C96.6763 28.436 96.1609 30.0436 95.13 31.1727C94.0992 32.2771 92.602 32.8293 90.6385 32.8293V32.8293Z" fill="url(#paint0_linear)"/>
<path d="M88.6369 6.66113L94.0206 11.659L96.8973 7.84574L102.985 9.98654L103.047 8.10047L115.027 19.4863L114.893 34.4719L98.6367 41.095L86.4609 31.5283L88.6369 6.66113Z" fill="url(#paint1_linear)"/>
<path d="M90.6385 32.8293C88.6751 32.8293 87.1779 32.2771 86.1471 31.1727C85.1162 30.0436 84.6008 28.436 84.6008 26.3498V6.69043H88.6505V26.6444C88.6505 27.5279 88.8223 28.1661 89.1659 28.5588C89.5341 28.9515 90.0495 29.1478 90.7122 29.1478C91.3749 29.1478 91.878 28.9515 92.2216 28.5588C92.5898 28.1661 92.7738 27.5279 92.7738 26.6444V6.69043H96.6763V26.3498C96.6763 28.436 96.1609 30.0436 95.13 31.1727C94.0992 32.2771 92.602 32.8293 90.6385 32.8293V32.8293Z" fill="white"/>
<path d="M92.7317 6.69043H98.7324C100.757 6.69043 102.276 7.23812 103.288 8.33346C104.301 9.4288 104.807 11.0345 104.807 13.1505V15.727C104.807 17.843 104.301 19.4487 103.288 20.544C102.276 21.6394 100.757 22.1871 98.7324 22.1871H96.8062V31.1263H92.7317V6.69043ZM98.7324 18.4529C99.3991 18.4529 99.893 18.2662 100.214 17.8928C100.56 17.5194 100.733 16.8846 100.733 15.9884V12.8891C100.733 11.9929 100.56 11.3581 100.214 10.9847C99.893 10.6113 99.3991 10.4246 98.7324 10.4246H96.8062V18.4529H98.7324Z" fill="white"/>
<defs>
<linearGradient id="paint0_linear" x1="84.6008" y1="19.7599" x2="93.1429" y2="32.4479" gradientUnits="userSpaceOnUse">
<stop stop-color="white"/>
<stop offset="1" stop-color="#E6E6E6"/>
</linearGradient>
<linearGradient id="paint1_linear" x1="89.8059" y1="15.5287" x2="108.394" y2="31.1164" gradientUnits="userSpaceOnUse">
<stop stop-color="#D05300"/>
<stop offset="1" stop-color="#D05300" stop-opacity="0"/>
</linearGradient>
</defs>
</svg>
