<svg xmlns="http://www.w3.org/2000/svg" width="55.437" height="38.198" viewBox="0 0 55.437 38.198"><g transform="translate(0.5 0.5)"><path d="M67.712,125.2H18.719A2.725,2.725,0,0,1,16,122.523a2.774,2.774,0,0,1,2.784-2.768h11.59l-6.99-8.261a18.822,18.822,0,0,1-1.508-2.052c-.048-.059-1.046-1.818-1.413-2.674l-.824-1.924a7.312,7.312,0,0,1-.371-4.628l.894-3.574-1.154.385a.907.907,0,0,1-.928-.219L17.17,95.9a.907.907,0,0,1-.265-.642V92.536a.907.907,0,0,1,.5-.812l1.683-.841,2.078-2.078A2.749,2.749,0,0,1,23.111,88h.116a2.744,2.744,0,0,1,2.046.915,3.826,3.826,0,0,1,2.172.811,3.779,3.779,0,0,1,1.213,1.743l.9,2.6a.907.907,0,0,1-.018.624L28.7,96.794v2.093a.907.907,0,0,1-.907.907H25.977v1.028l.885.126h0l3.3.472a3.577,3.577,0,0,1,3.071,3.541v3.655l1.995,3.325,8.921-8.921a4.814,4.814,0,0,1,7.322.606l7.808,10.93,2.453,1.635,3.477.869a.907.907,0,0,1,.687.88v1.815H67.65a2.774,2.774,0,0,1,2.784,2.768A2.725,2.725,0,0,1,67.712,125.2ZM25.977,90.935v1.226l.678-.678A2.01,2.01,0,0,0,25.977,90.935Zm.907,7.045V96.619a.907.907,0,0,1,.065-.337l.784-1.96L27.4,93.309l-1.418,1.418V97.98Zm-.332,6.949L26,102.736,26,102.715l-.013-.059-1.044-.149a.907.907,0,0,1-.779-.9V90.75a.936.936,0,0,0-.935-.935h-.116a.928.928,0,0,0-.661.274l-2.182,2.182a.906.906,0,0,1-.236.17l-1.313.656v1.785l.245.245.521-.174L21.2,93.269a.907.907,0,0,1,1.505.9l-1.681,6.483a5.488,5.488,0,0,0,.278,3.474l.824,1.924a17.023,17.023,0,0,0,.964,1.907h1.093a2.439,2.439,0,0,0,2.366-3.031Zm5,4.4a.908.908,0,0,1-.129-.467v-3.906a1.763,1.763,0,0,0-1.513-1.744l-1.985-.284.389,1.556a4.251,4.251,0,0,1-3.991,5.281c.145.187.293.371.445.551l6.988,8.259.164-.98a8.857,8.857,0,0,1,2-4.312ZM50,104.68a3,3,0,0,0-4.562-.378l-9.743,9.743a7.06,7.06,0,0,0-1.983,3.853l-.309,1.856h4.826L47,107.457a.907.907,0,0,1,1.533.037l2.664,4.441,4.723,4.723,1.537-1.537Zm-9.5,15.075H55.565l-.442-1.325-5.292-5.292a.913.913,0,0,1-.136-.175l-1.984-3.307Zm23.589-1.106-2.942-.735a.906.906,0,0,1-.284-.125l-2.1-1.4-1.8,1.8.523,1.569h6.6Zm3.629,2.921H18.719a.907.907,0,1,0,0,1.815H67.712a.907.907,0,1,0,0-1.815Z" transform="translate(-15.997 -88)" fill="#17a6af" stroke="#fff" stroke-width="1"/><path d="M425.554,326.975l.883,1.031a.883.883,0,1,1-1.341,1.15l-.883-1.031a.883.883,0,1,1,1.341-1.15Z" transform="translate(-418.7 -299.539)" fill="#17a6af" stroke="#fff" stroke-width="1"/><path d="M449.554,280.308l2.65,3.092a.883.883,0,0,1-1.341,1.15l-2.65-3.092a.883.883,0,1,1,1.341-1.15Z" transform="translate(-447.116 -258.136)" fill="#17a6af" stroke="#fff" stroke-width="1"/></g></svg>