<svg width="64" height="64" viewBox="0 0 64 64" fill="none" xmlns="http://www.w3.org/2000/svg">
<g clip-path="url(#clip0)">
<path d="M45.7601 12.5502C42.1527 12.55 38.6262 13.7526 35.6267 16.0059C32.6271 18.2591 30.2892 21.4619 28.9086 25.2091C27.528 28.9563 27.1667 33.0797 27.8704 37.0577C28.5741 41.0358 30.3112 44.6899 32.862 47.558C35.4128 50.4261 38.6627 52.3792 42.2008 53.1706C45.7389 53.9619 49.4063 53.5559 52.7392 52.0038C56.072 50.4516 58.9206 47.8232 60.9248 44.4507C62.929 41.0783 63.9988 37.1134 63.9988 33.0574C63.9988 27.6187 62.0772 22.4027 58.6568 18.5569C55.2365 14.7111 50.5974 12.5504 45.7601 12.5502V12.5502ZM45.7601 52.2121C42.3907 52.2121 39.0969 51.0887 36.2953 48.984C33.4937 46.8793 31.3101 43.8878 30.0207 40.3878C28.7312 36.8878 28.3938 33.0365 29.0511 29.3208C29.7084 25.6052 31.3308 22.1922 33.7133 19.5133C36.0958 16.8345 39.1314 15.0101 42.436 14.2709C45.7407 13.5317 49.1661 13.9109 52.2791 15.3606C55.3921 16.8102 58.0529 19.2652 59.925 22.4151C61.797 25.565 62.7963 29.2682 62.7964 33.0566C62.7962 38.1367 61.0013 43.0087 57.8064 46.6008C54.6115 50.193 50.2784 52.2111 45.7601 52.2113V52.2121Z" fill="url(#paint0_linear)"/>
<path d="M56.593 19.7281C56.2225 20.7274 55.7483 21.674 55.1803 22.5481C53.9354 21.1588 52.458 20.0606 50.8335 19.317C49.209 18.5734 47.4696 18.1991 45.7157 18.2157C43.9618 18.2323 42.2282 18.6395 40.615 19.4137C39.0019 20.188 37.5412 21.3139 36.3173 22.7266C35.0934 24.1392 34.1306 25.8105 33.4845 27.6439C32.8385 29.4773 32.5219 31.4365 32.5531 33.4082C32.5844 35.38 32.9628 37.3252 33.6665 39.1316C34.3703 40.938 35.3854 42.5696 36.6532 43.9324L37.1428 44.4207C39.0138 46.1958 41.2855 47.3537 43.706 47.766C46.1266 48.1783 48.6013 47.8289 50.856 46.7565C53.1107 45.6841 55.0573 43.9306 56.4798 41.6905C57.9024 39.4503 58.7454 36.811 58.9154 34.0651C59.2774 30.2606 58.2848 25.4492 56.593 19.7265V19.7281ZM38.5378 44.0176C38.4166 44.1833 38.2602 44.312 38.0831 44.3917C37.9059 44.4713 37.7137 44.4994 37.5243 44.4733C37.3349 44.4472 37.1544 44.3678 36.9996 44.2424C36.8447 44.117 36.7205 43.9497 36.6385 43.756C36.5565 43.5623 36.5194 43.3484 36.5305 43.1342C36.5416 42.92 36.6005 42.7124 36.702 42.5307C36.8034 42.349 36.944 42.199 37.1107 42.0946C37.2775 41.9903 37.4649 41.935 37.6557 41.9338C37.9159 41.9336 38.1681 42.0349 38.3692 42.2205C38.6026 42.4344 38.7512 42.7434 38.7828 43.08C38.8144 43.4167 38.7263 43.7537 38.5378 44.0176V44.0176ZM56.5377 39.5472C53.2645 44.4557 46.2731 42.8012 41.7905 43.0378C41.7905 43.0378 40.9949 43.092 40.195 43.2393C40.195 43.2393 40.4947 43.096 40.8843 42.9295C44.03 41.6972 45.5186 41.4574 47.4308 40.3533C51.0313 38.2926 54.5908 33.7831 55.3311 29.092C53.9595 33.6054 49.8049 37.4832 46.0181 39.0597C43.6308 39.929 41.1997 40.6379 38.7376 41.1825L38.5484 41.0702C35.3602 39.3233 35.2618 31.5479 41.0608 29.0378C43.6 27.9377 46.0294 28.5424 48.7719 27.8055C51.7008 27.0233 55.0875 24.5515 56.4662 21.3285C58.01 26.4848 59.8669 34.5582 56.537 39.548L56.5377 39.5472Z" fill="url(#paint1_linear)"/>
<path d="M29.8176 43.0156C27.5837 43.1518 25.2634 43.2235 22.8808 43.2235C13.9078 43.2235 5.80124 42.2078 -0.00341797 40.5724V60.8464C-0.00341797 60.8464 17.1909 64.0048 22.9793 64.0008C28.718 64.0008 45.7579 60.8464 45.7579 60.8464V53.5647C42.5055 53.5649 39.3124 52.5868 36.5095 50.7319C33.7066 48.8769 31.3961 46.2128 29.8176 43.0156V43.0156Z" fill="url(#paint2_linear)"/>
<path d="M27.5221 33.0558C27.5167 28.931 28.6231 24.9012 30.6954 21.4974C28.1944 21.3246 25.5773 21.2322 22.8808 21.2322C13.9078 21.2322 5.80124 22.2478 -0.00341797 23.8832V39.7703C5.7977 41.4057 13.9042 42.4213 22.8808 42.4213C25.1338 42.4213 27.3315 42.3568 29.4527 42.2349C28.1807 39.3866 27.5195 36.243 27.5221 33.0558V33.0558Z" fill="url(#paint3_linear)"/>
<path d="M45.7615 12.5518V2.85417C45.7615 2.85417 28.6359 0 22.8808 0C17.1257 0 -0.00341797 2.85417 -0.00341797 2.85417V23.0826C5.7977 21.448 13.9042 20.4316 22.8808 20.4316C25.753 20.4316 28.5359 20.5359 31.1843 20.7311C32.8823 18.1887 35.0836 16.1259 37.6139 14.7061C40.1441 13.2864 42.9336 12.5488 45.7615 12.5518Z" fill="url(#paint4_linear)"/>
</g>
<defs>
<linearGradient id="paint0_linear" x1="27.52" y1="33.0574" x2="63.9988" y2="33.0574" gradientUnits="userSpaceOnUse">
<stop stop-color="#75AB17"/>
<stop offset="1" stop-color="#54951E"/>
</linearGradient>
<linearGradient id="paint1_linear" x1="32.551" y1="33.0746" x2="58.9896" y2="33.0746" gradientUnits="userSpaceOnUse">
<stop stop-color="#75AB17"/>
<stop offset="1" stop-color="#54951E"/>
</linearGradient>
<linearGradient id="paint2_linear" x1="21.4586" y1="11.9899" x2="21.7706" y2="50.5366" gradientUnits="userSpaceOnUse">
<stop stop-color="#75AB17"/>
<stop offset="1" stop-color="#325A14"/>
</linearGradient>
<linearGradient id="paint3_linear" x1="14.7627" y1="12.2692" x2="15.3479" y2="50.8008" gradientUnits="userSpaceOnUse">
<stop stop-color="#75AB17"/>
<stop offset="1" stop-color="#325A14"/>
</linearGradient>
<linearGradient id="paint4_linear" x1="22.8333" y1="11.0566" x2="23.1127" y2="46.6795" gradientUnits="userSpaceOnUse">
<stop stop-color="#75AB17"/>
<stop offset="1" stop-color="#325A14"/>
</linearGradient>
<clipPath id="clip0">
<rect width="64" height="64" fill="white"/>
</clipPath>
</defs>
</svg>
