<svg xmlns="http://www.w3.org/2000/svg" xmlns:xlink="http://www.w3.org/1999/xlink" width="90.333" height="80.343" viewBox="0 0 90.333 80.343"><defs><linearGradient id="a" y1="0.5" x2="1" y2="0.5" gradientUnits="objectBoundingBox"><stop offset="0" stop-color="#75ab17"/><stop offset="1" stop-color="#54951e"/></linearGradient><linearGradient id="c" x1="0.469" y1="-1.22" x2="0.495" y2="0.425" gradientUnits="objectBoundingBox"><stop offset="0" stop-color="#75ab17"/><stop offset="1" stop-color="#325a14"/></linearGradient><linearGradient id="d" x1="0.481" y1="-0.423" x2="0.521" y2="1.395" xlink:href="#c"/><linearGradient id="e" x1="0.499" y1="0.479" x2="0.523" y2="2.022" xlink:href="#c"/></defs><g transform="translate(-794.186 -645.843)"><g transform="translate(833.032 661.597)"><path d="M936.7,693.2a25.744,25.744,0,1,0,25.743,25.744A25.744,25.744,0,0,0,936.7,693.2Zm0,49.79a24.046,24.046,0,1,1,24.046-24.047A24.047,24.047,0,0,1,936.7,742.989Z" transform="translate(-910.958 -693.199)" fill="url(#a)"/><path d="M966.178,716.386a17.251,17.251,0,0,1-1.994,3.54,18.739,18.739,0,1,0-26.15,26.845l.691.613a18.71,18.71,0,0,0,30.731-13c.511-4.776-.89-10.816-3.278-18Zm-25.484,30.492a1.6,1.6,0,1,1-1.245-2.616,1.586,1.586,0,0,1,1.007.36,1.61,1.61,0,0,1,.238,2.256Zm25.406-5.612c-4.62,6.162-14.488,4.085-20.815,4.382,0,0-1.123.068-2.252.253,0,0,.423-.18.973-.389,4.44-1.547,6.541-1.848,9.24-3.234,5.082-2.587,10.106-8.248,11.151-14.137-1.936,5.666-7.8,10.534-13.145,12.513a89.3,89.3,0,0,1-10.276,2.665l-.267-.141c-4.5-2.193-4.639-11.954,3.546-15.105,3.584-1.381,7.013-.622,10.884-1.547,4.134-.982,8.914-4.085,10.86-8.131,2.179,6.473,4.8,16.608.1,22.872Z" transform="translate(-925.146 -707.374)" fill="url(#a)"/></g><path d="M836.272,802.016c-3.153.171-6.428.261-9.791.261-12.665,0-24.107-1.275-32.3-3.328V824.4s24.269,3.965,32.439,3.96c8.1,0,32.151-3.96,32.151-3.96v-9.141A25.732,25.732,0,0,1,836.272,802.016Z" transform="translate(0 -102.173)" fill="url(#c)"/><path d="M833.032,740.811a25.621,25.621,0,0,1,4.479-14.51c-3.53-.217-7.224-.333-11.03-.333-12.665,0-24.107,1.275-32.3,3.328v19.944c8.188,2.053,19.63,3.328,32.3,3.328,3.18,0,6.282-.081,9.276-.234A25.628,25.628,0,0,1,833.032,740.811Z" transform="translate(0 -53.471)" fill="url(#d)"/><path d="M858.776,661.6V649.426s-24.172-3.583-32.295-3.583-32.3,3.583-32.3,3.583V674.82c8.188-2.052,19.63-3.328,32.3-3.328,4.054,0,7.982.131,11.72.376A25.7,25.7,0,0,1,858.776,661.6Z" transform="translate(0)" fill="url(#e)"/></g></svg>