<svg xmlns="http://www.w3.org/2000/svg" width="85" height="85" fill="#fff"  xmlns:v="https://vecta.io/nano"><path d="M21.057 81.985c-.672 0-1.248-.507-1.317-1.2l-1.07-10.238h-6.13a3.38 3.38 0 0 1-3.336-3.02l-.776-7.974H5.2c-.96 0-1.753-.407-2.178-1.118s-.4-1.604.045-2.45l4.64-10.28-.167-2.964c-.003-5.08 2.3-9.974 6.287-13.507.547-.486 1.4-.436 1.875.117a1.33 1.33 0 0 1-.117 1.875c-3.48 3.07-5.392 7.135-5.392 11.44l.183 3.214a1.33 1.33 0 0 1-.114.622L5.58 56.9l4.056.008a1.33 1.33 0 0 1 1.323 1.198l.893 9.172c.032.327.36.622.7.622h7.326c.68 0 1.25.513 1.32 1.2l1.193 11.44a1.33 1.33 0 0 1-1.182 1.458c-.048.005-.096.008-.14.008zm12.725.11c-.67 0-1.246-.505-1.317-1.187l-1.58-14.795H23.65a3.68 3.68 0 0 1-3.636-3.299l-.9-9.34H15.22c-1.033 0-1.883-.433-2.338-1.187s-.43-1.714.056-2.625L18.3 37.785l-.194-3.47c-.003-6.7 3.522-13.1 9.427-17.133.603-.414 1.432-.26 1.843.345s.263 1.43-.345 1.843c-5.18 3.55-8.27 9.1-8.27 14.87l.2 3.716a1.31 1.31 0 0 1-.114.622l-5.52 12.216 4.973.02a1.33 1.33 0 0 1 1.323 1.198l1.028 10.543a1.04 1.04 0 0 0 .991.898h8.426c.68 0 1.248.5 1.32 1.187l1.708 15.985a1.33 1.33 0 0 1-1.179 1.461c-.048.003-.096.005-.143.005zm9.974-19.764h-6.87c-2.02 0-3.745-1.57-3.937-3.575L31.9 48.04h-4.553c-1.105 0-2.013-.46-2.5-1.262s-.454-1.817.072-2.792l6.078-13.475-.22-3.97c-.003-13.28 11.8-24.02 26.332-24.02 14.333 0 25.147 11.32 25.147 26.33 0 5.732-1.403 11.2-4.293 16.684a1.33 1.33 0 0 1-1.793.558c-.65-.34-.9-1.145-.558-1.793 2.683-5.105 3.987-10.157 3.987-15.45 0-13.496-9.67-23.673-22.5-23.673-13.055 0-23.678 9.552-23.678 21.293l.236 4.218a1.3 1.3 0 0 1-.114.62L27.3 45.166a2.64 2.64 0 0 0-.104.218 2.36 2.36 0 0 0 .143.003h5.76c.685 0 1.257.518 1.323 1.2L35.6 58.503a1.34 1.34 0 0 0 1.291 1.169h6.87A1.33 1.33 0 0 1 45.079 61a1.33 1.33 0 0 1-1.328 1.328zm15.74-14.7H54.72c-.624 0-1.163-.436-1.296-1.047l-.786-3.6a15.68 15.68 0 0 1-3.171-1.318L46.37 43.65c-.526.337-1.214.263-1.655-.178l-3.376-3.376c-.44-.44-.516-1.132-.178-1.655l1.984-3.097c-.555-1-.996-2.07-1.318-3.172l-3.6-.786c-.614-.133-1.047-.672-1.047-1.3v-4.78c0-.624.433-1.163 1.044-1.296l3.6-.786c.324-1.105.768-2.165 1.32-3.172l-1.984-3.097c-.337-.523-.263-1.214.178-1.655l3.376-3.376a1.33 1.33 0 0 1 1.655-.178l3.097 1.984c1.012-.555 2.072-.996 3.17-1.317l.786-3.6a1.33 1.33 0 0 1 1.296-1.044h4.78c.624 0 1.163.433 1.296 1.044l.786 3.594c1.1.32 2.16.76 3.17 1.315l3.097-1.984c.53-.34 1.217-.266 1.657.175l3.376 3.376a1.33 1.33 0 0 1 .178 1.655l-1.982 3.102a15.67 15.67 0 0 1 1.315 3.169l3.594.786a1.33 1.33 0 0 1 1.044 1.296v4.78c0 .624-.433 1.163-1.044 1.296l-3.594.786a15.61 15.61 0 0 1-1.315 3.169l1.984 3.1c.337.524.263 1.214-.178 1.655l-3.376 3.38a1.33 1.33 0 0 1-1.655.178l-3.097-1.987a15.68 15.68 0 0 1-3.172 1.315l-.786 3.594a1.33 1.33 0 0 1-1.3 1.05zm-3.708-2.656h2.64l.73-3.342c.1-.5.497-.895.993-1.012a13.09 13.09 0 0 0 3.93-1.628c.43-.268.985-.268 1.416.01l2.882 1.846 1.867-1.867L68.4 36.09a1.33 1.33 0 0 1-.013-1.413c.762-1.232 1.3-2.553 1.63-3.93a1.31 1.31 0 0 1 1.01-.994l3.342-.73V26.38l-3.34-.733a1.33 1.33 0 0 1-1.009-.993 13.06 13.06 0 0 0-1.631-3.931c-.268-.433-.263-.983.013-1.413l1.846-2.882-1.867-1.867-2.882 1.846a1.32 1.32 0 0 1-1.416.01 13.1 13.1 0 0 0-3.93-1.628 1.31 1.31 0 0 1-.993-1.01l-.73-3.342h-2.64l-.73 3.342a1.33 1.33 0 0 1-.996 1.009c-1.384.32-2.704.87-3.928 1.628-.433.268-.983.268-1.416-.01l-2.882-1.846-1.867 1.867 1.846 2.882a1.33 1.33 0 0 1 .011 1.416 13.25 13.25 0 0 0-1.636 3.931 1.32 1.32 0 0 1-1.007.991l-3.34.733v2.64l3.342.73a1.33 1.33 0 0 1 1.009.993 13.01 13.01 0 0 0 1.628 3.93 1.32 1.32 0 0 1-.011 1.416l-1.846 2.882 1.867 1.867 2.882-1.846c.433-.276.988-.276 1.416-.01a12.98 12.98 0 0 0 3.928 1.628 1.33 1.33 0 0 1 .996 1.012l.73 3.344zm1.317-7.966a9.31 9.31 0 0 1-9.297-9.297 9.31 9.31 0 0 1 9.297-9.297 9.31 9.31 0 0 1 9.297 9.297 9.31 9.31 0 0 1-9.297 9.297zm0-15.938a6.65 6.65 0 0 0-6.641 6.641 6.65 6.65 0 0 0 6.641 6.641 6.65 6.65 0 0 0 6.641-6.641 6.65 6.65 0 0 0-6.641-6.641zm10.48 58.452H63.64c-.624 0-1.163-.436-1.296-1.047l-.616-2.83a13.23 13.23 0 0 1-2.407-.999L56.878 76.2c-.526.34-1.214.263-1.655-.178l-2.8-2.8a1.33 1.33 0 0 1-.178-1.657l1.567-2.438a13.04 13.04 0 0 1-1-2.407l-2.826-.62a1.33 1.33 0 0 1-1.047-1.296v-3.942c0-.624.436-1.164 1.047-1.296l2.826-.62a13.21 13.21 0 0 1 1-2.406l-1.567-2.444c-.337-.523-.263-1.214.178-1.655l2.787-2.786c.44-.44 1.13-.518 1.655-.178l2.444 1.562a13.24 13.24 0 0 1 2.407-1.001l.616-2.824a1.33 1.33 0 0 1 1.296-1.046h3.942a1.33 1.33 0 0 1 1.296 1.044l.62 2.826a13.25 13.25 0 0 1 2.409 1.001l2.438-1.562a1.33 1.33 0 0 1 1.655.178l2.786 2.786c.44.44.516 1.13.178 1.655L77.4 56.552a13.38 13.38 0 0 1 1.001 2.406l2.826.62a1.33 1.33 0 0 1 1.047 1.296v3.94c0 .624-.436 1.164-1.047 1.296l-2.83.62a13 13 0 0 1-.999 2.407l1.562 2.44c.337.523.263 1.214-.178 1.655l-2.786 2.8a1.33 1.33 0 0 1-1.655.178l-2.438-1.565c-.773.412-1.578.746-2.4 1l-.62 2.83c-.127.616-.666 1.05-1.293 1.05zm-2.872-2.656h1.804l.566-2.58a1.31 1.31 0 0 1 .996-1 10.61 10.61 0 0 0 3.172-1.312c.43-.27.983-.268 1.413.01l2.218 1.42 1.275-1.275-1.42-2.22a1.33 1.33 0 0 1-.011-1.416 10.53 10.53 0 0 0 1.312-3.166c.117-.5.507-.9 1.012-1l2.576-.563V61.94l-2.57-.563a1.33 1.33 0 0 1-1.009-.993 10.74 10.74 0 0 0-1.32-3.172 1.32 1.32 0 0 1 .011-1.416l1.42-2.223L74.88 52.3l-2.218 1.42a1.33 1.33 0 0 1-1.413.011 10.73 10.73 0 0 0-3.174-1.32 1.32 1.32 0 0 1-.993-1.007l-.566-2.57H64.7l-.56 2.566a1.33 1.33 0 0 1-.993 1.009 10.73 10.73 0 0 0-3.172 1.32c-.428.268-.983.268-1.416-.01l-2.224-1.42-1.275 1.275 1.426 2.223a1.33 1.33 0 0 1 .011 1.416 10.74 10.74 0 0 0-1.32 3.172 1.32 1.32 0 0 1-1.01.993l-2.57.563v1.806l2.57.563a1.33 1.33 0 0 1 1.01.994 10.75 10.75 0 0 0 1.32 3.17 1.33 1.33 0 0 1-.01 1.42l-1.424 2.22 1.272 1.272 2.224-1.42c.433-.276.988-.276 1.416-.01a10.51 10.51 0 0 0 3.169 1.312 1.33 1.33 0 0 1 .996 1.012l.563 2.58zm.9-6.1a7.91 7.91 0 0 1-7.902-7.902 7.91 7.91 0 0 1 7.902-7.902 7.91 7.91 0 0 1 7.902 7.902 7.91 7.91 0 0 1-7.902 7.902zm0-13.146c-2.893 0-5.246 2.353-5.246 5.246s2.353 5.246 5.246 5.246 5.246-2.353 5.246-5.246S68.504 57.6 65.61 57.6z"/></svg>