<svg xmlns="http://www.w3.org/2000/svg" width="317" height="317" fill="#fff"  xmlns:v="https://vecta.io/nano"><path d="M297.188 173.36c-1.957 0-3.814.402-5.528 1.1-1.7-6.315-7.435-10.996-14.285-10.996-1.956 0-3.814.4-5.528 1.1-1.7-6.315-7.434-10.996-14.285-10.996-1.743 0-3.397.357-4.953.9v-7.642c28.932-6.796 49.532-32.458 49.532-62.613 0-14.523-4.9-27.9-13.032-38.674l11.684-12.417-7.216-6.8-11.03 11.724c-11.6-11.263-27.4-18.232-44.796-18.232-35.504 0-64.4 28.887-64.4 64.4 0 30.155 20.6 55.817 49.532 62.618v88.844c-.932-.956-1.595-2.2-1.853-3.6l-6.523-35.866c-1.362-7.5-7.876-12.942-15.493-12.942-8.688 0-15.756 7.068-15.756 15.75v3.165c0 .86.074 1.728.213 2.6l8.915 53.464a24.85 24.85 0 0 0 5.082 11.397l12.25 15.3a14.93 14.93 0 0 1 3.26 9.287v17.817h79.25V294.23a14.91 14.91 0 0 1 3.26-9.287l11.124-13.913c3.497-4.374 5.43-9.867 5.43-15.464V188.22c0-8.193-6.667-14.86-14.86-14.86zM183.266 84.203c0-30.04 24.443-54.484 54.484-54.484 14.785 0 28.193 5.94 38.015 15.528l-57.932 61.562-11.248-11.248-7.004 7.003 18.47 18.47 64.18-68.194c6.28 8.88 10.005 19.684 10.005 31.363 0 24.716-16.355 45.876-39.625 52.404v-7.826c0-8.192-6.667-14.86-14.86-14.86s-14.86 6.667-14.86 14.86v7.826c-23.27-6.528-39.625-27.688-39.625-52.404zM302.14 255.566a14.91 14.91 0 0 1-3.26 9.288l-11.124 13.913a24.86 24.86 0 0 0-5.429 15.463v7.9H222.9v-7.9c0-5.597-1.932-11.095-5.43-15.473l-12.254-15.3c-1.575-1.972-2.63-4.334-3.046-6.84l-8.916-53.455a6.24 6.24 0 0 1-.074-.97v-3.165a5.85 5.85 0 0 1 5.85-5.845c2.823 0 5.245 2.02 5.75 4.804l6.518 35.866a16.82 16.82 0 0 0 16.554 13.814h4.953V128.78a4.96 4.96 0 0 1 4.953-4.953 4.96 4.96 0 0 1 4.953 4.953v79.25h9.906v-39.625a4.96 4.96 0 0 1 4.953-4.953 4.96 4.96 0 0 1 4.954 4.953v39.625h9.906V178.3a4.96 4.96 0 0 1 4.953-4.953 4.96 4.96 0 0 1 4.953 4.953v29.72h9.906v-19.8a4.96 4.96 0 0 1 4.954-4.953 4.96 4.96 0 0 1 4.953 4.953v67.347zM128.78 4.953H39.625c-19.114 0-34.672 15.553-34.672 34.672v237.75c0 19.12 15.558 34.672 34.672 34.672h89.156c19.114 0 34.672-15.553 34.672-34.672V39.625c0-19.12-15.558-34.672-34.672-34.672zm24.766 272.422c0 13.656-11.1 24.766-24.766 24.766H39.625c-13.656 0-24.766-11.1-24.766-24.766V39.625c0-13.656 11.1-24.766 24.766-24.766h89.156c13.656 0 24.766 11.1 24.766 24.766v237.75zM84.203 112.763L68.7 143.75l-34.865 4.993 25.236 24.245-5.94 34.132 31.08-16.107 31.08 16.107-5.94-34.132 25.236-24.245-34.865-4.993-15.513-30.987zm14.483 56.733l3.413 19.634-17.896-9.277-17.896 9.277 3.413-19.634-14.4-13.83 19.902-2.853 8.97-17.92 8.975 17.925 19.902 2.853-14.394 13.824zm-14.483 37.46L70.235 234.6l-31.527 4.472 22.82 21.725-5.354 30.496 28.03-14.4 28.03 14.4-5.355-30.496 22.82-21.725-31.53-4.472-13.968-27.634zM96.2 257.27l2.828 16.098-14.825-7.608-14.825 7.613 2.828-16.098-11.853-11.273 16.4-2.323 7.46-14.76 7.46 14.756 16.4 2.323L96.2 257.27zM56.173 108.018l28.03-14.4 28.03 14.4-5.355-30.497 22.82-21.724-31.526-4.473L84.203 23.7 70.235 51.324 38.7 55.797 61.53 77.52l-5.354 30.497zm4.185-45.282l16.4-2.323 7.454-14.76 7.46 14.755 16.4 2.323L96.2 74.005l2.828 16.098-14.825-7.608-14.825 7.613L72.207 74 60.36 62.736z"/></svg>