<svg width="1466" height="833" viewBox="0 0 1466 833" fill="none" xmlns="http://www.w3.org/2000/svg">
<path d="M310.75 81.8906H141.25C125.648 81.8906 113 94.5386 113 110.141V477.391C113 492.993 125.648 505.641 141.25 505.641H310.75C326.352 505.641 339 492.993 339 477.391V110.141C339 94.5386 326.352 81.8906 310.75 81.8906Z" fill="white"/>
<path d="M275.438 117.203H176.562L169.5 81.8906H282.5L275.438 117.203Z" fill="white"/>
<path d="M310.75 73.0625H141.25C131.888 73.073 122.912 76.7968 116.292 83.4169C109.672 90.037 105.948 99.0128 105.938 108.375V475.625C105.948 484.987 109.672 493.963 116.292 500.583C122.912 507.203 131.888 510.927 141.25 510.938H310.75C320.112 510.927 329.088 507.203 335.708 500.583C342.328 493.963 346.052 484.987 346.062 475.625V108.375C346.052 99.0128 342.328 90.037 335.708 83.4169C329.088 76.7968 320.112 73.073 310.75 73.0625V73.0625ZM273.886 87.1875L269.648 108.375H182.353L178.115 87.1875H273.886ZM331.938 475.625C331.931 481.242 329.697 486.628 325.725 490.6C321.753 494.572 316.367 496.806 310.75 496.812H141.25C135.633 496.806 130.247 494.572 126.275 490.6C122.303 486.628 120.069 481.242 120.062 475.625V108.375C120.069 102.758 122.303 97.3722 126.275 93.4001C130.247 89.4281 135.633 87.1938 141.25 87.1875H163.71L169.637 116.823C169.957 118.424 170.822 119.864 172.085 120.899C173.347 121.934 174.93 122.5 176.562 122.5H275.438C277.07 122.5 278.653 121.934 279.915 120.899C281.178 119.864 282.043 118.424 282.363 116.823L288.29 87.1875H310.75C316.367 87.1938 321.753 89.4281 325.725 93.4001C329.697 97.3722 331.931 102.758 331.938 108.375V475.625Z" fill="#1C2E5C"/>
<path d="M183.625 468.562H141.25C139.377 468.562 137.581 469.307 136.256 470.631C134.932 471.956 134.188 473.752 134.188 475.625C134.188 477.498 134.932 479.294 136.256 480.619C137.581 481.943 139.377 482.688 141.25 482.688H183.625C185.498 482.688 187.294 481.943 188.619 480.619C189.943 479.294 190.688 477.498 190.688 475.625C190.688 473.752 189.943 471.956 188.619 470.631C187.294 469.307 185.498 468.562 183.625 468.562Z" fill="#1C2E5C"/>
<path d="M211.875 468.562H204.812C202.939 468.562 201.143 469.307 199.819 470.631C198.494 471.956 197.75 473.752 197.75 475.625C197.75 477.498 198.494 479.294 199.819 480.619C201.143 481.943 202.939 482.688 204.812 482.688H211.875C213.748 482.688 215.544 481.943 216.869 480.619C218.193 479.294 218.938 477.498 218.938 475.625C218.938 473.752 218.193 471.956 216.869 470.631C215.544 469.307 213.748 468.562 211.875 468.562Z" fill="#1C2E5C"/>
<circle cx="161.5" cy="183.5" r="19.5" fill="#95CA90"/>
<rect x="192" y="164" width="113" height="8" rx="4" fill="#9CD8DC"/>
<rect x="215" y="192" width="90" height="8" rx="4" fill="#FFD79C"/>
<rect x="192" y="192" width="8" height="8" rx="4" fill="#FFD79C"/>
<rect x="192" y="178" width="61" height="8" rx="4" fill="#E0999E"/>
<rect x="288" y="178" width="17" height="8" rx="4" fill="#E0999E"/>
<circle cx="161.5" cy="247.5" r="19.5" fill="#CEEBF0"/>
<rect x="192" y="228" width="38" height="8" rx="4" fill="#6A819F"/>
<rect x="192" y="256" width="113" height="8" rx="4" fill="#6A819F"/>
<rect x="192" y="242" width="90" height="8" rx="4" fill="#CEEBF0"/>
<rect x="288" y="242" width="17" height="8" rx="4" fill="#CEEBF0"/>
<circle cx="161.5" cy="311.5" r="18" stroke="#1C2E5C" stroke-width="3"/>
<rect x="256" y="292" width="49" height="8" rx="4" fill="#AECEAB"/>
<rect x="215" y="320" width="90" height="8" rx="4" fill="#FFD79C"/>
<rect x="192" y="320" width="8" height="8" rx="4" fill="#FFD79C"/>
<rect x="297" y="228" width="8" height="8" rx="4" fill="#6A819F"/>
<rect x="192" y="306" width="20" height="8" rx="4" fill="#E0999E"/>
<rect x="224" y="306" width="81" height="8" rx="4" fill="#E0999E"/>
<circle cx="161.5" cy="375.5" r="19.5" fill="#95CA90"/>
<rect x="192" y="356" width="113" height="8" rx="4" fill="#9CD8DC"/>
<rect x="215" y="384" width="90" height="8" rx="4" fill="#FFD79C"/>
<rect x="192" y="384" width="8" height="8" rx="4" fill="#FFD79C"/>
<rect x="192" y="370" width="113" height="8" rx="4" fill="#E0999E"/>
<path d="M1259.4 245.24C1264.61 245.24 1268.45 241.592 1268.45 236.6C1268.45 231.608 1264.61 227.96 1259.4 227.96C1254.2 227.96 1250.36 231.632 1250.36 236.6C1250.36 241.568 1254.2 245.24 1259.4 245.24ZM1259.4 242.504C1256.02 242.504 1253.5 240.032 1253.5 236.6C1253.5 233.168 1256.02 230.696 1259.4 230.696C1262.79 230.696 1265.31 233.168 1265.31 236.6C1265.31 240.032 1262.79 242.504 1259.4 242.504ZM1278.58 232.04C1276.82 232.04 1275.34 232.64 1274.33 233.864V232.184H1271.47V249.656H1274.47V243.44C1275.5 244.616 1276.94 245.168 1278.58 245.168C1282.32 245.168 1285.08 242.576 1285.08 238.592C1285.08 234.632 1282.32 232.04 1278.58 232.04ZM1278.24 242.6C1276.08 242.6 1274.42 241.04 1274.42 238.592C1274.42 236.144 1276.08 234.584 1278.24 234.584C1280.4 234.584 1282.03 236.144 1282.03 238.592C1282.03 241.04 1280.4 242.6 1278.24 242.6ZM1299.97 238.664C1299.97 234.656 1297.24 232.04 1293.49 232.04C1289.68 232.04 1286.87 234.776 1286.87 238.592C1286.87 242.408 1289.65 245.168 1293.95 245.168C1296.16 245.168 1297.96 244.448 1299.11 243.08L1297.5 241.232C1296.59 242.168 1295.46 242.624 1294.02 242.624C1291.79 242.624 1290.23 241.424 1289.87 239.552H1299.93C1299.95 239.264 1299.97 238.904 1299.97 238.664ZM1293.49 234.44C1295.46 234.44 1296.88 235.712 1297.12 237.56H1289.85C1290.13 235.688 1291.55 234.44 1293.49 234.44ZM1310.13 232.04C1308.25 232.04 1306.69 232.664 1305.71 233.84V232.184H1302.85V245H1305.85V238.52C1305.85 235.952 1307.29 234.656 1309.43 234.656C1311.35 234.656 1312.48 235.76 1312.48 238.04V245H1315.48V237.656C1315.48 233.792 1313.2 232.04 1310.13 232.04ZM1326.21 245H1333.55C1339 245 1342.72 241.64 1342.72 236.6C1342.72 231.56 1339 228.2 1333.55 228.2H1326.21V245ZM1329.33 242.36V230.84H1333.41C1337.15 230.84 1339.57 233.12 1339.57 236.6C1339.57 240.08 1337.15 242.36 1333.41 242.36H1329.33ZM1358.37 245H1361.64L1354.05 228.2H1350.98L1343.42 245H1346.64L1348.29 241.112H1356.69L1358.37 245ZM1349.35 238.664L1352.49 231.32L1355.66 238.664H1349.35ZM1366.34 245H1369.46V230.84H1375.03V228.2H1360.77V230.84H1366.34V245ZM1389.1 245H1392.37L1384.78 228.2H1381.71L1374.15 245H1377.37L1379.02 241.112H1387.42L1389.1 245ZM1380.08 238.664L1383.22 231.32L1386.39 238.664H1380.08ZM1413.71 245H1416.97L1409.39 228.2H1406.32L1398.76 245H1401.97L1403.63 241.112H1412.03L1413.71 245ZM1404.69 238.664L1407.83 231.32L1411 238.664H1404.69ZM1426.02 228.2H1419.11V245H1422.23V240.152H1426.02C1430.44 240.152 1433.18 237.872 1433.18 234.176C1433.18 230.456 1430.44 228.2 1426.02 228.2ZM1425.88 237.512H1422.23V230.84H1425.88C1428.62 230.84 1430.03 232.064 1430.03 234.176C1430.03 236.288 1428.62 237.512 1425.88 237.512ZM1436.29 245H1439.41V228.2H1436.29V245Z" fill="#1C2E5C"/>
<g clip-path="url(#clip0)">
<path d="M1340.79 59.9578C1363.26 59.9578 1381.53 79.2686 1381.53 103.014C1381.53 103.145 1381.52 103.282 1381.51 103.413C1381.49 103.731 1381.47 104.048 1381.47 104.372L1381.31 110.882L1387.48 110.906C1402.41 110.95 1414.56 123.826 1414.56 139.605C1414.56 155.339 1402.44 168.215 1387.54 168.296L1386.22 168.302H1275.74C1259.11 168.284 1245.59 153.982 1245.59 136.415C1245.59 122.804 1253.79 110.688 1265.98 106.265L1269.38 105.038L1269.98 101.301C1271.46 92.075 1278.95 85.3787 1287.8 85.3787C1290.63 85.3787 1293.35 86.0702 1295.91 87.428L1301.41 90.3493L1304.06 84.4817C1310.81 69.5819 1325.23 59.9578 1340.79 59.9578ZM1340.79 53.5787C1322.18 53.5787 1306.15 65.0964 1298.62 81.7287C1295.36 79.9969 1291.7 79 1287.81 79C1275.86 79 1265.96 88.1883 1264.03 100.236C1249.8 105.394 1239.55 119.621 1239.55 136.415C1239.55 157.538 1255.75 174.663 1275.73 174.681H1387.57V174.675C1405.82 174.575 1420.59 158.915 1420.59 139.605C1420.59 120.263 1405.79 104.584 1387.5 104.528C1387.51 104.017 1387.57 103.525 1387.57 103.014C1387.57 75.7117 1366.63 53.5787 1340.79 53.5787Z" fill="#052B5D"/>
<path d="M1417.94 181.17L1417.94 195.784C1417.93 199.463 1414.47 203.136 1407.58 205.944C1393.7 211.594 1371.12 211.594 1357.15 205.944C1350.12 203.1 1346.61 199.368 1346.63 195.642L1346.63 181.027C1346.61 184.754 1350.12 188.486 1357.15 191.33C1371.12 196.98 1393.7 196.98 1407.58 191.33C1414.47 188.522 1417.93 184.849 1417.94 181.17Z" fill="#15B2BC"/>
<path d="M1417.94 181.155C1417.95 173.164 1402 166.661 1382.31 166.63C1362.61 166.598 1346.64 173.051 1346.63 181.042C1346.61 189.033 1362.57 195.536 1382.26 195.567C1401.95 195.598 1417.93 189.146 1417.94 181.155Z" fill="#00C2CB"/>
<path d="M1417.05 177.987C1417.91 181.998 1414.59 186.123 1407.06 189.192C1393.47 194.725 1371.35 194.726 1357.67 189.192C1350.05 186.107 1346.66 181.954 1347.5 177.924C1344.96 182.599 1348.16 187.691 1357.15 191.33C1371.12 196.98 1393.7 196.979 1407.58 191.33C1416.48 187.708 1419.61 182.645 1417.05 177.987Z" fill="#04666C"/>
<path d="M1415.15 161.725L1415.15 175.196C1415.14 178.587 1411.96 181.972 1405.6 184.56C1392.81 189.768 1372 189.768 1359.12 184.56C1352.64 181.939 1349.4 178.499 1349.42 175.064L1349.42 161.594C1349.4 165.029 1352.64 168.469 1359.12 171.09C1372 176.298 1392.81 176.297 1405.6 171.09C1411.96 168.502 1415.14 165.116 1415.15 161.725Z" fill="#CEEBF0"/>
<path d="M1417.94 152.746L1417.94 167.36C1417.93 171.039 1414.48 174.713 1407.58 177.52C1393.7 183.17 1371.12 183.17 1357.15 177.52C1350.12 174.676 1346.61 170.944 1346.63 167.218L1346.63 152.603C1346.61 156.33 1350.12 160.062 1357.15 162.906C1371.12 168.556 1393.7 168.556 1407.58 162.906C1414.48 160.098 1417.93 156.425 1417.94 152.746Z" fill="#15B2BC"/>
<path d="M1417.94 152.731C1417.95 144.74 1402 138.237 1382.31 138.206C1362.61 138.175 1346.64 144.627 1346.63 152.618C1346.61 160.609 1362.57 167.112 1382.26 167.143C1401.95 167.174 1417.93 160.722 1417.94 152.731Z" fill="#00C2CB"/>
<path d="M1417.05 149.563C1417.91 153.574 1414.59 157.699 1407.06 160.768C1393.47 166.301 1371.35 166.302 1357.67 160.768C1350.05 157.683 1346.66 153.53 1347.5 149.5C1344.96 154.175 1348.16 159.268 1357.15 162.906C1371.12 168.556 1393.7 168.555 1407.58 162.906C1416.48 159.284 1419.61 154.221 1417.05 149.563Z" fill="#04666C"/>
<path d="M1415.15 133.301L1415.15 146.772C1415.14 150.163 1411.96 153.548 1405.6 156.136C1392.81 161.344 1372 161.344 1359.12 156.136C1352.64 153.515 1349.4 150.075 1349.42 146.64L1349.42 133.17C1349.4 136.605 1352.64 140.045 1359.12 142.666C1372 147.874 1392.81 147.873 1405.6 142.666C1411.96 140.078 1415.14 136.692 1415.15 133.301Z" fill="#CEEBF0"/>
<path d="M1417.94 124.322L1417.94 138.936C1417.93 142.615 1414.48 146.289 1407.58 149.096C1393.7 154.746 1371.12 154.746 1357.15 149.096C1350.12 146.253 1346.61 142.52 1346.63 138.794L1346.63 124.18C1346.61 127.906 1350.12 131.638 1357.15 134.482C1371.12 140.132 1393.7 140.132 1407.58 134.482C1414.48 131.674 1417.93 128.001 1417.94 124.322Z" fill="#15B2BC"/>
<path d="M1417.94 124.307C1417.95 116.316 1402 109.813 1382.31 109.782C1362.61 109.751 1346.64 116.203 1346.63 124.194C1346.61 132.185 1362.57 138.688 1382.26 138.719C1401.95 138.751 1417.93 132.298 1417.94 124.307Z" fill="#00C2CB"/>
<path d="M1417.05 121.139C1417.91 125.15 1414.59 129.275 1407.06 132.344C1393.47 137.877 1371.35 137.878 1357.67 132.344C1350.05 129.259 1346.66 125.106 1347.5 121.076C1344.96 125.751 1348.16 130.844 1357.15 134.482C1371.12 140.132 1393.7 140.131 1407.58 134.482C1416.48 130.86 1419.61 125.797 1417.05 121.139Z" fill="#04666C"/>
</g>
<rect x="573" y="65" width="370" height="118" rx="5" fill="#E8505B"/>
<path d="M627.667 124.36C634.579 124.36 637.855 120.904 637.855 116.872C637.855 107.62 622.915 111.112 622.915 105.748C622.915 103.84 624.499 102.328 628.387 102.328C630.583 102.328 633.067 102.976 635.335 104.308L636.811 100.672C634.615 99.232 631.447 98.44 628.423 98.44C621.511 98.44 618.271 101.896 618.271 105.964C618.271 115.324 633.247 111.76 633.247 117.196C633.247 119.068 631.591 120.472 627.667 120.472C624.571 120.472 621.367 119.32 619.351 117.7L617.731 121.336C619.819 123.136 623.743 124.36 627.667 124.36ZM660.135 114.496C660.135 108.484 656.031 104.56 650.415 104.56C644.691 104.56 640.479 108.664 640.479 114.388C640.479 120.112 644.655 124.252 651.099 124.252C654.411 124.252 657.111 123.172 658.839 121.12L656.427 118.348C655.059 119.752 653.367 120.436 651.207 120.436C647.859 120.436 645.519 118.636 644.979 115.828H660.063C660.099 115.396 660.135 114.856 660.135 114.496ZM650.415 108.16C653.367 108.16 655.491 110.068 655.851 112.84H644.943C645.375 110.032 647.499 108.16 650.415 108.16ZM668.742 107.584V104.776H664.458V124H668.958V114.676C668.958 110.752 671.118 108.736 674.538 108.736C674.862 108.736 675.186 108.772 675.582 108.844V104.56C672.378 104.56 670.038 105.568 668.742 107.584ZM693.782 104.776L687.626 119.032L681.65 104.776H676.97L685.214 124H689.858L698.102 104.776H693.782ZM703.183 101.608C704.875 101.608 706.063 100.384 706.063 98.8C706.063 97.324 704.839 96.208 703.183 96.208C701.527 96.208 700.303 97.396 700.303 98.908C700.303 100.42 701.527 101.608 703.183 101.608ZM700.915 124H705.415V104.776H700.915V124ZM720.141 124.252C723.885 124.252 726.873 122.632 728.349 119.752L724.893 117.736C723.741 119.572 722.013 120.4 720.105 120.4C716.793 120.4 714.273 118.132 714.273 114.388C714.273 110.68 716.793 108.376 720.105 108.376C722.013 108.376 723.741 109.204 724.893 111.04L728.349 109.024C726.873 106.108 723.885 104.56 720.141 104.56C714.057 104.56 709.737 108.628 709.737 114.388C709.737 120.148 714.057 124.252 720.141 124.252ZM750.03 114.496C750.03 108.484 745.926 104.56 740.31 104.56C734.586 104.56 730.374 108.664 730.374 114.388C730.374 120.112 734.55 124.252 740.994 124.252C744.306 124.252 747.006 123.172 748.734 121.12L746.322 118.348C744.954 119.752 743.262 120.436 741.102 120.436C737.754 120.436 735.414 118.636 734.874 115.828H749.958C749.994 115.396 750.03 114.856 750.03 114.496ZM740.31 108.16C743.262 108.16 745.386 110.068 745.746 112.84H734.838C735.27 110.032 737.394 108.16 740.31 108.16ZM778.63 97.288V107.152C777.118 105.388 774.922 104.56 772.438 104.56C766.858 104.56 762.718 108.412 762.718 114.388C762.718 120.364 766.858 124.252 772.438 124.252C775.066 124.252 777.298 123.352 778.81 121.516V124H783.13V97.288H778.63ZM772.978 120.4C769.738 120.4 767.254 118.06 767.254 114.388C767.254 110.716 769.738 108.376 772.978 108.376C776.218 108.376 778.702 110.716 778.702 114.388C778.702 118.06 776.218 120.4 772.978 120.4ZM790.492 97.036C788.836 97.036 787.576 98.224 787.576 99.988C787.576 101.32 788.26 102.256 789.268 102.652L787.828 108.196H790.744L792.616 103.084C793.264 101.428 793.408 100.816 793.408 99.988C793.408 98.26 792.184 97.036 790.492 97.036ZM804.798 104.56C801.702 104.56 798.714 105.352 796.662 106.936L798.426 110.212C799.866 109.024 802.098 108.304 804.258 108.304C807.462 108.304 809.046 109.852 809.046 112.48V112.768H804.078C798.246 112.768 796.086 115.288 796.086 118.492C796.086 121.84 798.858 124.252 803.25 124.252C806.13 124.252 808.218 123.316 809.298 121.66V124H813.546V112.732C813.546 107.188 810.342 104.56 804.798 104.56ZM804.186 120.976C801.882 120.976 800.514 119.932 800.514 118.312C800.514 116.908 801.342 115.756 804.402 115.756H809.046V117.988C808.29 119.968 806.382 120.976 804.186 120.976ZM829.977 104.56C827.349 104.56 825.117 105.46 823.605 107.296V104.776H819.321V130.984H823.821V121.66C825.369 123.424 827.529 124.252 829.977 124.252C835.593 124.252 839.733 120.364 839.733 114.388C839.733 108.448 835.593 104.56 829.977 104.56ZM829.473 120.4C826.233 120.4 823.749 118.06 823.749 114.388C823.749 110.716 826.233 108.376 829.473 108.376C832.713 108.376 835.161 110.716 835.161 114.388C835.161 118.06 832.713 120.4 829.473 120.4ZM854.657 104.56C852.029 104.56 849.797 105.46 848.285 107.296V104.776H844.001V130.984H848.501V121.66C850.049 123.424 852.209 124.252 854.657 124.252C860.273 124.252 864.413 120.364 864.413 114.388C864.413 108.448 860.273 104.56 854.657 104.56ZM854.153 120.4C850.913 120.4 848.429 118.06 848.429 114.388C848.429 110.716 850.913 108.376 854.153 108.376C857.393 108.376 859.841 110.716 859.841 114.388C859.841 118.06 857.393 120.4 854.153 120.4ZM886.753 114.496C886.753 108.484 882.649 104.56 877.033 104.56C871.309 104.56 867.097 108.664 867.097 114.388C867.097 120.112 871.273 124.252 877.717 124.252C881.029 124.252 883.729 123.172 885.457 121.12L883.045 118.348C881.677 119.752 879.985 120.436 877.825 120.436C874.477 120.436 872.137 118.636 871.597 115.828H886.681C886.717 115.396 886.753 114.856 886.753 114.496ZM877.033 108.16C879.985 108.16 882.109 110.068 882.469 112.84H871.561C871.993 110.032 874.117 108.16 877.033 108.16ZM891.075 124H895.575V97.288H891.075V124Z" fill="white"/>
<path d="M948.232 134.768C947.256 133.791 947.256 132.209 948.232 131.232L964.142 115.322C965.118 114.346 966.701 114.346 967.678 115.322C968.654 116.299 968.654 117.882 967.678 118.858L953.536 133L967.678 147.142C968.654 148.118 968.654 149.701 967.678 150.678C966.701 151.654 965.118 151.654 964.142 150.678L948.232 134.768ZM1205 135.5H950V130.5H1205V135.5Z" fill="#E8505B"/>
<path d="M756.232 477.768C757.209 478.744 758.791 478.744 759.768 477.768L775.678 461.858C776.654 460.882 776.654 459.299 775.678 458.322C774.701 457.346 773.118 457.346 772.142 458.322L758 472.464L743.858 458.322C742.882 457.346 741.299 457.346 740.322 458.322C739.346 459.299 739.346 460.882 740.322 461.858L756.232 477.768ZM755.5 409L755.5 476L760.5 476L760.5 409L755.5 409Z" fill="#E8505B"/>
<path d="M1018.45 103.2V105.816H1022V120H1025.12V103.2H1018.45ZM1048.86 120H1052.12L1044.54 103.2H1041.47L1033.91 120H1037.12L1038.78 116.112H1047.18L1048.86 120ZM1039.84 113.664L1042.98 106.32L1046.15 113.664H1039.84ZM1061.08 107.04C1059.32 107.04 1057.84 107.64 1056.83 108.864V107.184H1053.97V124.656H1056.97V118.44C1058 119.616 1059.44 120.168 1061.08 120.168C1064.82 120.168 1067.58 117.576 1067.58 113.592C1067.58 109.632 1064.82 107.04 1061.08 107.04ZM1060.74 117.6C1058.58 117.6 1056.92 116.04 1056.92 113.592C1056.92 111.144 1058.58 109.584 1060.74 109.584C1062.9 109.584 1064.53 111.144 1064.53 113.592C1064.53 116.04 1062.9 117.6 1060.74 117.6ZM1077.53 107.04C1075.78 107.04 1074.29 107.64 1073.28 108.864V107.184H1070.43V124.656H1073.43V118.44C1074.46 119.616 1075.9 120.168 1077.53 120.168C1081.27 120.168 1084.03 117.576 1084.03 113.592C1084.03 109.632 1081.27 107.04 1077.53 107.04ZM1077.19 117.6C1075.03 117.6 1073.38 116.04 1073.38 113.592C1073.38 111.144 1075.03 109.584 1077.19 109.584C1079.35 109.584 1080.99 111.144 1080.99 113.592C1080.99 116.04 1079.35 117.6 1077.19 117.6ZM1098.93 113.664C1098.93 109.656 1096.19 107.04 1092.45 107.04C1088.63 107.04 1085.82 109.776 1085.82 113.592C1085.82 117.408 1088.61 120.168 1092.9 120.168C1095.11 120.168 1096.91 119.448 1098.06 118.08L1096.45 116.232C1095.54 117.168 1094.41 117.624 1092.97 117.624C1090.74 117.624 1089.18 116.424 1088.82 114.552H1098.88C1098.9 114.264 1098.93 113.904 1098.93 113.664ZM1092.45 109.44C1094.41 109.44 1095.83 110.712 1096.07 112.56H1088.8C1089.09 110.688 1090.5 109.44 1092.45 109.44ZM1101.81 120H1104.81V102.192H1101.81V120ZM1106.06 122.4H1108.75L1116.67 99.792H1113.98L1106.06 122.4ZM1132.26 107.04C1130.22 107.04 1128.49 107.856 1127.46 109.176C1126.57 107.736 1125.01 107.04 1123.14 107.04C1121.39 107.04 1119.9 107.664 1118.94 108.816V107.184H1116.08V120H1119.08V113.496C1119.08 110.952 1120.43 109.656 1122.42 109.656C1124.24 109.656 1125.3 110.76 1125.3 113.04V120H1128.3V113.496C1128.3 110.952 1129.67 109.656 1131.63 109.656C1133.46 109.656 1134.51 110.76 1134.51 113.04V120H1137.51V112.656C1137.51 108.792 1135.35 107.04 1132.26 107.04ZM1142.86 105.072C1143.99 105.072 1144.78 104.256 1144.78 103.2C1144.78 102.216 1143.96 101.472 1142.86 101.472C1141.75 101.472 1140.94 102.264 1140.94 103.272C1140.94 104.28 1141.75 105.072 1142.86 105.072ZM1141.35 120H1144.35V107.184H1141.35V120ZM1155.56 107.04C1153.68 107.04 1152.12 107.664 1151.14 108.84V107.184H1148.28V120H1151.28V113.52C1151.28 110.952 1152.72 109.656 1154.86 109.656C1156.78 109.656 1157.91 110.76 1157.91 113.04V120H1160.91V112.656C1160.91 108.792 1158.63 107.04 1155.56 107.04Z" fill="black"/>
<path d="M690.285 259.947L688.854 236.593L681.467 237.046L683.804 275.174L720.735 272.911L720.268 265.285L694.571 266.86C708.772 246.712 730.973 234.011 755.329 232.519C786.303 230.62 816.168 247.47 831.421 275.45L837.868 271.721C821.229 241.201 788.646 222.822 754.861 224.893C729.261 226.462 705.815 239.354 690.285 259.947Z" fill="#FDBC5A"/>
<path d="M760.885 391.727C786.518 390.82 810.289 378.539 826.347 358.355L827.174 381.737L834.569 381.476L833.219 343.3L796.242 344.608L796.512 352.243L822.24 351.333C807.527 371.107 785.002 383.229 760.615 384.092C729.603 385.189 700.183 367.572 685.659 339.208L679.117 342.769C694.961 373.708 727.059 392.923 760.885 391.727Z" fill="#FDBC5A"/>
<path d="M755.232 218.768C756.209 219.744 757.791 219.744 758.768 218.768L774.678 202.858C775.654 201.882 775.654 200.299 774.678 199.322C773.701 198.346 772.118 198.346 771.142 199.322L757 213.464L742.858 199.322C741.882 198.346 740.299 198.346 739.322 199.322C738.346 200.299 738.346 201.882 739.322 202.858L755.232 218.768ZM754.5 188L754.5 217L759.5 217L759.5 188L754.5 188Z" fill="#E8505B"/>
<path d="M592.594 315H595.714V300.84H601.282V298.2H587.026V300.84H592.594V315ZM605.887 304.056V302.184H603.031V315H606.031V308.784C606.031 306.168 607.471 304.824 609.751 304.824C609.967 304.824 610.183 304.848 610.447 304.896V302.04C608.311 302.04 606.751 302.712 605.887 304.056ZM617.817 302.04C615.753 302.04 613.761 302.568 612.393 303.624L613.569 305.808C614.529 305.016 616.017 304.536 617.457 304.536C619.593 304.536 620.649 305.568 620.649 307.32V307.512H617.337C613.449 307.512 612.009 309.192 612.009 311.328C612.009 313.56 613.857 315.168 616.785 315.168C618.705 315.168 620.097 314.544 620.817 313.44V315H623.649V307.488C623.649 303.792 621.513 302.04 617.817 302.04ZM617.409 312.984C615.873 312.984 614.961 312.288 614.961 311.208C614.961 310.272 615.513 309.504 617.553 309.504H620.649V310.992C620.145 312.312 618.873 312.984 617.409 312.984ZM634.771 302.04C632.899 302.04 631.339 302.664 630.355 303.84V302.184H627.499V315H630.499V308.52C630.499 305.952 631.939 304.656 634.075 304.656C635.995 304.656 637.123 305.76 637.123 308.04V315H640.123V307.656C640.123 303.792 637.843 302.04 634.771 302.04ZM647.889 315.168C651.489 315.168 653.697 313.608 653.697 311.208C653.697 306.192 645.777 308.496 645.777 305.904C645.777 305.064 646.641 304.464 648.465 304.464C649.689 304.464 650.913 304.704 652.137 305.424L653.289 303.144C652.137 302.448 650.193 302.04 648.489 302.04C645.033 302.04 642.849 303.624 642.849 306.048C642.849 311.16 650.769 308.856 650.769 311.304C650.769 312.192 649.977 312.72 648.081 312.72C646.473 312.72 644.745 312.192 643.617 311.448L642.465 313.728C643.617 314.544 645.753 315.168 647.889 315.168ZM661.489 299.448C662.113 299.448 662.689 299.664 663.145 299.976L663.985 297.72C663.313 297.24 662.305 297.024 661.273 297.024C658.297 297.024 656.689 298.776 656.689 301.464V302.28H654.577V304.68H656.689V315H659.689V304.68H663.121V302.28H659.593V301.512C659.593 300.144 660.241 299.448 661.489 299.448ZM670.712 315.168C674.696 315.168 677.552 312.432 677.552 308.592C677.552 304.752 674.696 302.04 670.712 302.04C666.776 302.04 663.896 304.752 663.896 308.592C663.896 312.432 666.776 315.168 670.712 315.168ZM670.712 312.6C668.552 312.6 666.92 311.04 666.92 308.592C666.92 306.144 668.552 304.584 670.712 304.584C672.896 304.584 674.528 306.144 674.528 308.592C674.528 311.04 672.896 312.6 670.712 312.6ZM683.277 304.056V302.184H680.421V315H683.421V308.784C683.421 306.168 684.861 304.824 687.141 304.824C687.357 304.824 687.573 304.848 687.837 304.896V302.04C685.701 302.04 684.141 302.712 683.277 304.056ZM706.558 302.04C704.518 302.04 702.79 302.856 701.758 304.176C700.87 302.736 699.31 302.04 697.438 302.04C695.686 302.04 694.198 302.664 693.238 303.816V302.184H690.382V315H693.382V308.496C693.382 305.952 694.726 304.656 696.718 304.656C698.542 304.656 699.598 305.76 699.598 308.04V315H702.598V308.496C702.598 305.952 703.966 304.656 705.934 304.656C707.758 304.656 708.814 305.76 708.814 308.04V315H711.814V307.656C711.814 303.792 709.654 302.04 706.558 302.04ZM720.544 302.04C718.48 302.04 716.488 302.568 715.12 303.624L716.296 305.808C717.256 305.016 718.744 304.536 720.184 304.536C722.32 304.536 723.376 305.568 723.376 307.32V307.512H720.064C716.176 307.512 714.736 309.192 714.736 311.328C714.736 313.56 716.584 315.168 719.512 315.168C721.432 315.168 722.824 314.544 723.544 313.44V315H726.376V307.488C726.376 303.792 724.24 302.04 720.544 302.04ZM720.136 312.984C718.6 312.984 717.688 312.288 717.688 311.208C717.688 310.272 718.24 309.504 720.28 309.504H723.376V310.992C722.872 312.312 721.6 312.984 720.136 312.984ZM737.09 312.168C736.634 312.528 736.034 312.696 735.41 312.696C734.258 312.696 733.634 312.024 733.634 310.776V304.68H737.066V302.28H733.634V299.352H730.634V302.28H728.522V304.68H730.634V310.848C730.634 313.68 732.242 315.168 735.05 315.168C736.13 315.168 737.21 314.88 737.93 314.304L737.09 312.168ZM741.91 300.072C743.038 300.072 743.83 299.256 743.83 298.2C743.83 297.216 743.014 296.472 741.91 296.472C740.806 296.472 739.99 297.264 739.99 298.272C739.99 299.28 740.806 300.072 741.91 300.072ZM740.398 315H743.398V302.184H740.398V315ZM753.095 315.168C757.079 315.168 759.935 312.432 759.935 308.592C759.935 304.752 757.079 302.04 753.095 302.04C749.159 302.04 746.279 304.752 746.279 308.592C746.279 312.432 749.159 315.168 753.095 315.168ZM753.095 312.6C750.935 312.6 749.303 311.04 749.303 308.592C749.303 306.144 750.935 304.584 753.095 304.584C755.279 304.584 756.911 306.144 756.911 308.592C756.911 311.04 755.279 312.6 753.095 312.6ZM770.076 302.04C768.204 302.04 766.644 302.664 765.66 303.84V302.184H762.804V315H765.804V308.52C765.804 305.952 767.244 304.656 769.38 304.656C771.3 304.656 772.428 305.76 772.428 308.04V315H775.428V307.656C775.428 303.792 773.148 302.04 770.076 302.04ZM795.418 297.192V303.768C794.41 302.592 792.946 302.04 791.29 302.04C787.57 302.04 784.81 304.608 784.81 308.592C784.81 312.576 787.57 315.168 791.29 315.168C793.042 315.168 794.53 314.568 795.538 313.344V315H798.418V297.192H795.418ZM791.65 312.6C789.49 312.6 787.834 311.04 787.834 308.592C787.834 306.144 789.49 304.584 791.65 304.584C793.81 304.584 795.466 306.144 795.466 308.592C795.466 311.04 793.81 312.6 791.65 312.6ZM814.391 308.664C814.391 304.656 811.655 302.04 807.911 302.04C804.095 302.04 801.287 304.776 801.287 308.592C801.287 312.408 804.071 315.168 808.367 315.168C810.575 315.168 812.375 314.448 813.527 313.08L811.919 311.232C811.007 312.168 809.879 312.624 808.439 312.624C806.207 312.624 804.647 311.424 804.287 309.552H814.343C814.367 309.264 814.391 308.904 814.391 308.664ZM807.911 304.44C809.879 304.44 811.295 305.712 811.535 307.56H804.263C804.551 305.688 805.967 304.44 807.911 304.44ZM833.458 297.192V303.768C832.45 302.592 830.986 302.04 829.33 302.04C825.61 302.04 822.85 304.608 822.85 308.592C822.85 312.576 825.61 315.168 829.33 315.168C831.082 315.168 832.57 314.568 833.578 313.344V315H836.458V297.192H833.458ZM829.69 312.6C827.53 312.6 825.874 311.04 825.874 308.592C825.874 306.144 827.53 304.584 829.69 304.584C831.85 304.584 833.506 306.144 833.506 308.592C833.506 311.04 831.85 312.6 829.69 312.6ZM846.142 315.168C850.126 315.168 852.982 312.432 852.982 308.592C852.982 304.752 850.126 302.04 846.142 302.04C842.206 302.04 839.326 304.752 839.326 308.592C839.326 312.432 842.206 315.168 846.142 315.168ZM846.142 312.6C843.982 312.6 842.35 311.04 842.35 308.592C842.35 306.144 843.982 304.584 846.142 304.584C848.326 304.584 849.958 306.144 849.958 308.592C849.958 311.04 848.326 312.6 846.142 312.6ZM863.123 302.04C861.251 302.04 859.691 302.664 858.707 303.84V302.184H855.851V315H858.851V308.52C858.851 305.952 860.291 304.656 862.427 304.656C864.347 304.656 865.475 305.76 865.475 308.04V315H868.475V307.656C868.475 303.792 866.195 302.04 863.123 302.04ZM879.553 302.04C877.681 302.04 876.121 302.664 875.137 303.84V302.184H872.281V315H875.281V308.52C875.281 305.952 876.721 304.656 878.857 304.656C880.777 304.656 881.905 305.76 881.905 308.04V315H884.905V307.656C884.905 303.792 882.625 302.04 879.553 302.04ZM899.075 297.144H895.547L892.307 300.432H894.899L899.075 297.144ZM900.875 308.664C900.875 304.656 898.139 302.04 894.395 302.04C890.579 302.04 887.771 304.776 887.771 308.592C887.771 312.408 890.555 315.168 894.851 315.168C897.059 315.168 898.859 314.448 900.011 313.08L898.403 311.232C897.491 312.168 896.363 312.624 894.923 312.624C892.691 312.624 891.131 311.424 890.771 309.552H900.827C900.851 309.264 900.875 308.904 900.875 308.664ZM894.395 304.44C896.363 304.44 897.779 305.712 898.019 307.56H890.747C891.035 305.688 892.451 304.44 894.395 304.44ZM915.805 308.664C915.805 304.656 913.069 302.04 909.325 302.04C905.509 302.04 902.701 304.776 902.701 308.592C902.701 312.408 905.485 315.168 909.781 315.168C911.989 315.168 913.789 314.448 914.941 313.08L913.333 311.232C912.421 312.168 911.293 312.624 909.853 312.624C907.621 312.624 906.061 311.424 905.701 309.552H915.757C915.781 309.264 915.805 308.904 915.805 308.664ZM909.325 304.44C911.293 304.44 912.709 305.712 912.949 307.56H905.677C905.965 305.688 907.381 304.44 909.325 304.44ZM922.647 315.168C926.247 315.168 928.455 313.608 928.455 311.208C928.455 306.192 920.535 308.496 920.535 305.904C920.535 305.064 921.399 304.464 923.223 304.464C924.447 304.464 925.671 304.704 926.895 305.424L928.047 303.144C926.895 302.448 924.951 302.04 923.247 302.04C919.791 302.04 917.607 303.624 917.607 306.048C917.607 311.16 925.527 308.856 925.527 311.304C925.527 312.192 924.735 312.72 922.839 312.72C921.231 312.72 919.503 312.192 918.375 311.448L917.223 313.728C918.375 314.544 920.511 315.168 922.647 315.168Z" fill="black"/>
<path d="M629.744 734H632.864V717.2H629.744V734ZM644.392 721.04C642.52 721.04 640.96 721.664 639.976 722.84V721.184H637.12V734H640.12V727.52C640.12 724.952 641.56 723.656 643.696 723.656C645.616 723.656 646.744 724.76 646.744 727.04V734H649.744V726.656C649.744 722.792 647.464 721.04 644.392 721.04ZM655.182 719.072C656.31 719.072 657.102 718.256 657.102 717.2C657.102 716.216 656.286 715.472 655.182 715.472C654.078 715.472 653.262 716.264 653.262 717.272C653.262 718.28 654.078 719.072 655.182 719.072ZM652.23 738.824C655.086 738.824 656.694 737.048 656.694 734.24V721.184H653.694V734.312C653.694 735.68 653.07 736.352 651.966 736.352C651.294 736.352 650.67 736.184 650.214 735.848L649.35 738.08C650.046 738.608 651.126 738.824 652.23 738.824ZM672.676 727.664C672.676 723.656 669.94 721.04 666.196 721.04C662.38 721.04 659.572 723.776 659.572 727.592C659.572 731.408 662.356 734.168 666.652 734.168C668.86 734.168 670.66 733.448 671.812 732.08L670.204 730.232C669.292 731.168 668.164 731.624 666.724 731.624C664.492 731.624 662.932 730.424 662.572 728.552H672.628C672.652 728.264 672.676 727.904 672.676 727.664ZM666.196 723.44C668.164 723.44 669.58 724.712 669.82 726.56H662.548C662.836 724.688 664.252 723.44 666.196 723.44ZM681.438 734.168C683.934 734.168 685.926 733.088 686.91 731.168L684.606 729.824C683.838 731.048 682.686 731.6 681.414 731.6C679.206 731.6 677.526 730.088 677.526 727.592C677.526 725.12 679.206 723.584 681.414 723.584C682.686 723.584 683.838 724.136 684.606 725.36L686.91 724.016C685.926 722.072 683.934 721.04 681.438 721.04C677.382 721.04 674.502 723.752 674.502 727.592C674.502 731.432 677.382 734.168 681.438 734.168ZM696.531 731.168C696.075 731.528 695.475 731.696 694.851 731.696C693.699 731.696 693.075 731.024 693.075 729.776V723.68H696.507V721.28H693.075V718.352H690.075V721.28H687.963V723.68H690.075V729.848C690.075 732.68 691.683 734.168 694.491 734.168C695.571 734.168 696.651 733.88 697.371 733.304L696.531 731.168ZM701.351 719.072C702.479 719.072 703.271 718.256 703.271 717.2C703.271 716.216 702.455 715.472 701.351 715.472C700.247 715.472 699.431 716.264 699.431 717.272C699.431 718.28 700.247 719.072 701.351 719.072ZM699.839 734H702.839V721.184H699.839V734ZM712.537 734.168C716.521 734.168 719.377 731.432 719.377 727.592C719.377 723.752 716.521 721.04 712.537 721.04C708.601 721.04 705.721 723.752 705.721 727.592C705.721 731.432 708.601 734.168 712.537 734.168ZM712.537 731.6C710.377 731.6 708.745 730.04 708.745 727.592C708.745 725.144 710.377 723.584 712.537 723.584C714.721 723.584 716.353 725.144 716.353 727.592C716.353 730.04 714.721 731.6 712.537 731.6ZM729.517 721.04C727.645 721.04 726.085 721.664 725.101 722.84V721.184H722.245V734H725.245V727.52C725.245 724.952 726.685 723.656 728.821 723.656C730.741 723.656 731.869 724.76 731.869 727.04V734H734.869V726.656C734.869 722.792 732.589 721.04 729.517 721.04ZM754.86 716.192V722.768C753.852 721.592 752.388 721.04 750.732 721.04C747.012 721.04 744.252 723.608 744.252 727.592C744.252 731.576 747.012 734.168 750.732 734.168C752.484 734.168 753.972 733.568 754.98 732.344V734H757.86V716.192H754.86ZM751.092 731.6C748.932 731.6 747.276 730.04 747.276 727.592C747.276 725.144 748.932 723.584 751.092 723.584C753.252 723.584 754.908 725.144 754.908 727.592C754.908 730.04 753.252 731.6 751.092 731.6ZM773.832 727.664C773.832 723.656 771.096 721.04 767.352 721.04C763.536 721.04 760.728 723.776 760.728 727.592C760.728 731.408 763.512 734.168 767.808 734.168C770.016 734.168 771.816 733.448 772.968 732.08L771.36 730.232C770.448 731.168 769.32 731.624 767.88 731.624C765.648 731.624 764.088 730.424 763.728 728.552H773.784C773.808 728.264 773.832 727.904 773.832 727.664ZM767.352 723.44C769.32 723.44 770.736 724.712 770.976 726.56H763.704C763.992 724.688 765.408 723.44 767.352 723.44ZM792.899 716.192V722.768C791.891 721.592 790.427 721.04 788.771 721.04C785.051 721.04 782.291 723.608 782.291 727.592C782.291 731.576 785.051 734.168 788.771 734.168C790.523 734.168 792.011 733.568 793.019 732.344V734H795.899V716.192H792.899ZM789.131 731.6C786.971 731.6 785.315 730.04 785.315 727.592C785.315 725.144 786.971 723.584 789.131 723.584C791.291 723.584 792.947 725.144 792.947 727.592C792.947 730.04 791.291 731.6 789.131 731.6ZM805.583 734.168C809.567 734.168 812.423 731.432 812.423 727.592C812.423 723.752 809.567 721.04 805.583 721.04C801.647 721.04 798.767 723.752 798.767 727.592C798.767 731.432 801.647 734.168 805.583 734.168ZM805.583 731.6C803.423 731.6 801.791 730.04 801.791 727.592C801.791 725.144 803.423 723.584 805.583 723.584C807.767 723.584 809.399 725.144 809.399 727.592C809.399 730.04 807.767 731.6 805.583 731.6ZM822.564 721.04C820.692 721.04 819.132 721.664 818.148 722.84V721.184H815.292V734H818.292V727.52C818.292 724.952 819.732 723.656 821.868 723.656C823.788 723.656 824.916 724.76 824.916 727.04V734H827.916V726.656C827.916 722.792 825.636 721.04 822.564 721.04ZM838.994 721.04C837.122 721.04 835.562 721.664 834.578 722.84V721.184H831.722V734H834.722V727.52C834.722 724.952 836.162 723.656 838.298 723.656C840.218 723.656 841.346 724.76 841.346 727.04V734H844.346V726.656C844.346 722.792 842.066 721.04 838.994 721.04ZM858.517 716.144H854.989L851.749 719.432H854.341L858.517 716.144ZM860.317 727.664C860.317 723.656 857.581 721.04 853.837 721.04C850.021 721.04 847.213 723.776 847.213 727.592C847.213 731.408 849.997 734.168 854.293 734.168C856.501 734.168 858.301 733.448 859.453 732.08L857.845 730.232C856.933 731.168 855.805 731.624 854.365 731.624C852.133 731.624 850.573 730.424 850.213 728.552H860.269C860.293 728.264 860.317 727.904 860.317 727.664ZM853.837 723.44C855.805 723.44 857.221 724.712 857.461 726.56H850.189C850.477 724.688 851.893 723.44 853.837 723.44ZM875.246 727.664C875.246 723.656 872.51 721.04 868.766 721.04C864.95 721.04 862.142 723.776 862.142 727.592C862.142 731.408 864.926 734.168 869.222 734.168C871.43 734.168 873.23 733.448 874.382 732.08L872.774 730.232C871.862 731.168 870.734 731.624 869.294 731.624C867.062 731.624 865.502 730.424 865.142 728.552H875.198C875.222 728.264 875.246 727.904 875.246 727.664ZM868.766 723.44C870.734 723.44 872.15 724.712 872.39 726.56H865.118C865.406 724.688 866.822 723.44 868.766 723.44ZM882.088 734.168C885.688 734.168 887.896 732.608 887.896 730.208C887.896 725.192 879.976 727.496 879.976 724.904C879.976 724.064 880.84 723.464 882.664 723.464C883.888 723.464 885.112 723.704 886.336 724.424L887.488 722.144C886.336 721.448 884.392 721.04 882.688 721.04C879.232 721.04 877.048 722.624 877.048 725.048C877.048 730.16 884.968 727.856 884.968 730.304C884.968 731.192 884.176 731.72 882.28 731.72C880.672 731.72 878.944 731.192 877.816 730.448L876.664 732.728C877.816 733.544 879.952 734.168 882.088 734.168ZM653.387 745.192V751.768C652.379 750.592 650.915 750.04 649.259 750.04C645.539 750.04 642.779 752.608 642.779 756.592C642.779 760.576 645.539 763.168 649.259 763.168C651.011 763.168 652.499 762.568 653.507 761.344V763H656.387V745.192H653.387ZM649.619 760.6C647.459 760.6 645.803 759.04 645.803 756.592C645.803 754.144 647.459 752.584 649.619 752.584C651.779 752.584 653.435 754.144 653.435 756.592C653.435 759.04 651.779 760.6 649.619 760.6ZM665.208 750.04C663.144 750.04 661.152 750.568 659.784 751.624L660.96 753.808C661.92 753.016 663.408 752.536 664.848 752.536C666.984 752.536 668.04 753.568 668.04 755.32V755.512H664.728C660.84 755.512 659.4 757.192 659.4 759.328C659.4 761.56 661.248 763.168 664.176 763.168C666.096 763.168 667.488 762.544 668.208 761.44V763H671.04V755.488C671.04 751.792 668.904 750.04 665.208 750.04ZM664.8 760.984C663.264 760.984 662.352 760.288 662.352 759.208C662.352 758.272 662.904 757.504 664.944 757.504H668.04V758.992C667.536 760.312 666.264 760.984 664.8 760.984ZM682.162 750.04C680.29 750.04 678.73 750.664 677.746 751.84V750.184H674.89V763H677.89V756.52C677.89 753.952 679.33 752.656 681.466 752.656C683.386 752.656 684.514 753.76 684.514 756.04V763H687.514V755.656C687.514 751.792 685.234 750.04 682.162 750.04ZM695.28 763.168C698.88 763.168 701.088 761.608 701.088 759.208C701.088 754.192 693.168 756.496 693.168 753.904C693.168 753.064 694.032 752.464 695.856 752.464C697.08 752.464 698.304 752.704 699.528 753.424L700.68 751.144C699.528 750.448 697.584 750.04 695.88 750.04C692.424 750.04 690.24 751.624 690.24 754.048C690.24 759.16 698.16 756.856 698.16 759.304C698.16 760.192 697.368 760.72 695.472 760.72C693.864 760.72 692.136 760.192 691.008 759.448L689.856 761.728C691.008 762.544 693.144 763.168 695.28 763.168ZM710.304 763H713.304V745.192H710.304V763ZM729.289 756.664C729.289 752.656 726.553 750.04 722.809 750.04C718.993 750.04 716.185 752.776 716.185 756.592C716.185 760.408 718.969 763.168 723.265 763.168C725.473 763.168 727.273 762.448 728.425 761.08L726.817 759.232C725.905 760.168 724.777 760.624 723.337 760.624C721.105 760.624 719.545 759.424 719.185 757.552H729.241C729.265 757.264 729.289 756.904 729.289 756.664ZM722.809 752.44C724.777 752.44 726.193 753.712 726.433 755.56H719.161C719.449 753.688 720.865 752.44 722.809 752.44ZM736.131 763.168C739.731 763.168 741.939 761.608 741.939 759.208C741.939 754.192 734.019 756.496 734.019 753.904C734.019 753.064 734.883 752.464 736.707 752.464C737.931 752.464 739.155 752.704 740.379 753.424L741.531 751.144C740.379 750.448 738.435 750.04 736.731 750.04C733.275 750.04 731.091 751.624 731.091 754.048C731.091 759.16 739.011 756.856 739.011 759.304C739.011 760.192 738.219 760.72 736.323 760.72C734.715 760.72 732.987 760.192 731.859 759.448L730.707 761.728C731.859 762.544 733.995 763.168 736.131 763.168ZM758.02 760.168C757.564 760.528 756.964 760.696 756.34 760.696C755.188 760.696 754.564 760.024 754.564 758.776V752.68H757.996V750.28H754.564V747.352H751.564V750.28H749.452V752.68H751.564V758.848C751.564 761.68 753.172 763.168 755.98 763.168C757.06 763.168 758.14 762.88 758.86 762.304L758.02 760.168ZM772.954 756.664C772.954 752.656 770.218 750.04 766.474 750.04C762.658 750.04 759.85 752.776 759.85 756.592C759.85 760.408 762.634 763.168 766.93 763.168C769.138 763.168 770.938 762.448 772.09 761.08L770.482 759.232C769.57 760.168 768.442 760.624 767.002 760.624C764.77 760.624 763.21 759.424 762.85 757.552H772.906C772.93 757.264 772.954 756.904 772.954 756.664ZM766.474 752.44C768.442 752.44 769.858 753.712 770.098 755.56H762.826C763.114 753.688 764.53 752.44 766.474 752.44ZM792.011 750.04C789.971 750.04 788.243 750.856 787.211 752.176C786.323 750.736 784.763 750.04 782.891 750.04C781.139 750.04 779.651 750.664 778.691 751.816V750.184H775.835V763H778.835V756.496C778.835 753.952 780.179 752.656 782.171 752.656C783.995 752.656 785.051 753.76 785.051 756.04V763H788.051V756.496C788.051 753.952 789.419 752.656 791.387 752.656C793.211 752.656 794.267 753.76 794.267 756.04V763H797.267V755.656C797.267 751.792 795.107 750.04 792.011 750.04ZM808.205 750.04C806.453 750.04 804.965 750.64 803.957 751.864V750.184H801.101V767.656H804.101V761.44C805.133 762.616 806.573 763.168 808.205 763.168C811.949 763.168 814.709 760.576 814.709 756.592C814.709 752.632 811.949 750.04 808.205 750.04ZM807.869 760.6C805.709 760.6 804.053 759.04 804.053 756.592C804.053 754.144 805.709 752.584 807.869 752.584C810.029 752.584 811.661 754.144 811.661 756.592C811.661 759.04 810.029 760.6 807.869 760.6ZM817.554 763H820.554V745.192H817.554V763ZM829.387 750.04C827.323 750.04 825.331 750.568 823.963 751.624L825.139 753.808C826.099 753.016 827.587 752.536 829.027 752.536C831.163 752.536 832.219 753.568 832.219 755.32V755.512H828.907C825.019 755.512 823.579 757.192 823.579 759.328C823.579 761.56 825.427 763.168 828.355 763.168C830.275 763.168 831.667 762.544 832.387 761.44V763H835.219V755.488C835.219 751.792 833.083 750.04 829.387 750.04ZM828.979 760.984C827.443 760.984 826.531 760.288 826.531 759.208C826.531 758.272 827.083 757.504 829.123 757.504H832.219V758.992C831.715 760.312 830.443 760.984 828.979 760.984ZM845.934 760.168C845.478 760.528 844.878 760.696 844.254 760.696C843.102 760.696 842.478 760.024 842.478 758.776V752.68H845.91V750.28H842.478V747.352H839.478V750.28H837.366V752.68H839.478V758.848C839.478 761.68 841.086 763.168 843.894 763.168C844.974 763.168 846.054 762.88 846.774 762.304L845.934 760.168ZM860.868 756.664C860.868 752.656 858.132 750.04 854.388 750.04C850.572 750.04 847.764 752.776 847.764 756.592C847.764 760.408 850.548 763.168 854.844 763.168C857.052 763.168 858.852 762.448 860.004 761.08L858.396 759.232C857.484 760.168 856.356 760.624 854.916 760.624C852.684 760.624 851.124 759.424 850.764 757.552H860.82C860.844 757.264 860.868 756.904 860.868 756.664ZM854.388 752.44C856.356 752.44 857.772 753.712 858.012 755.56H850.74C851.028 753.688 852.444 752.44 854.388 752.44ZM867.709 763.168C871.309 763.168 873.517 761.608 873.517 759.208C873.517 754.192 865.597 756.496 865.597 753.904C865.597 753.064 866.461 752.464 868.285 752.464C869.509 752.464 870.733 752.704 871.957 753.424L873.109 751.144C871.957 750.448 870.013 750.04 868.309 750.04C864.853 750.04 862.669 751.624 862.669 754.048C862.669 759.16 870.589 756.856 870.589 759.304C870.589 760.192 869.797 760.72 867.901 760.72C866.293 760.72 864.565 760.192 863.437 759.448L862.285 761.728C863.437 762.544 865.573 763.168 867.709 763.168Z" fill="black"/>
<path d="M995.686 823H997.506V813.2H995.686V823ZM1003.35 823.098C1005.67 823.098 1007.34 821.502 1007.34 819.262C1007.34 817.022 1005.67 815.44 1003.35 815.44C1001.05 815.44 999.373 817.022 999.373 819.262C999.373 821.502 1001.05 823.098 1003.35 823.098ZM1003.35 821.6C1002.09 821.6 1001.14 820.69 1001.14 819.262C1001.14 817.834 1002.09 816.924 1003.35 816.924C1004.62 816.924 1005.57 817.834 1005.57 819.262C1005.57 820.69 1004.62 821.6 1003.35 821.6ZM1013.25 815.44C1012.16 815.44 1011.25 815.804 1010.68 816.49V815.524H1009.01V823H1010.76V819.22C1010.76 817.722 1011.6 816.966 1012.85 816.966C1013.97 816.966 1014.63 817.61 1014.63 818.94V823H1016.38V818.716C1016.38 816.462 1015.05 815.44 1013.25 815.44ZM1019.48 814.292C1020.14 814.292 1020.6 813.816 1020.6 813.2C1020.6 812.626 1020.12 812.192 1019.48 812.192C1018.83 812.192 1018.36 812.654 1018.36 813.242C1018.36 813.83 1018.83 814.292 1019.48 814.292ZM1018.6 823H1020.35V815.524H1018.6V823ZM1026.07 823.098C1027.53 823.098 1028.69 822.468 1029.27 821.348L1027.92 820.564C1027.47 821.278 1026.8 821.6 1026.06 821.6C1024.77 821.6 1023.79 820.718 1023.79 819.262C1023.79 817.82 1024.77 816.924 1026.06 816.924C1026.8 816.924 1027.47 817.246 1027.92 817.96L1029.27 817.176C1028.69 816.042 1027.53 815.44 1026.07 815.44C1023.71 815.44 1022.03 817.022 1022.03 819.262C1022.03 821.502 1023.71 823.098 1026.07 823.098Z" fill="black"/>
<path d="M794.5 445H926C928.761 445 931 447.239 931 450V670.5C931 673.261 928.761 675.5 926 675.5H594C591.239 675.5 589 673.261 589 670.5V450C589 447.239 591.239 445 594 445H719.5" stroke="#1C2E5C" stroke-width="11"/>
<path d="M641 478H613V527H641" stroke="#1C2E5C" stroke-width="2"/>
<path d="M880.5 478H908.5V527H880.5" stroke="#1C2E5C" stroke-width="2"/>
<path d="M641 540H613V589H641" stroke="#1C2E5C" stroke-width="2"/>
<path d="M880.5 540H908.5V589H880.5" stroke="#1C2E5C" stroke-width="2"/>
<path d="M641 602H613V651H641" stroke="#1C2E5C" stroke-width="2"/>
<path d="M880.5 602H908.5V651H880.5" stroke="#1C2E5C" stroke-width="2"/>
<rect x="175.811" y="562.5" width="36.5294" height="54.563" rx="4.5" fill="white" stroke="#1C2E5C"/>
<line x1="182.622" y1="573.198" x2="207.479" y2="573.198" stroke="black"/>
<line x1="182.622" y1="577.584" x2="207.479" y2="577.584" stroke="black"/>
<line x1="182.622" y1="582.458" x2="207.479" y2="582.458" stroke="black"/>
<line x1="182.622" y1="592.693" x2="207.479" y2="592.693" stroke="black"/>
<rect x="170.5" y="565.5" width="36.5294" height="54.563" rx="4.5" fill="white" stroke="#1C2E5C"/>
<line x1="177.311" y1="576.198" x2="202.168" y2="576.198" stroke="black"/>
<line x1="177.311" y1="580.584" x2="202.168" y2="580.584" stroke="black"/>
<line x1="177.311" y1="585.458" x2="202.168" y2="585.458" stroke="black"/>
<line x1="177.311" y1="595.693" x2="202.168" y2="595.693" stroke="black"/>
<path d="M224 632L221.5 632L221.5 634.5L224 634.5L224 632ZM225.768 521.232C224.791 520.256 223.209 520.256 222.232 521.232L206.322 537.142C205.346 538.118 205.346 539.701 206.322 540.677C207.299 541.654 208.882 541.654 209.858 540.677L224 526.535L238.142 540.677C239.118 541.654 240.701 541.654 241.678 540.677C242.654 539.701 242.654 538.118 241.678 537.142L225.768 521.232ZM567.5 629.5L224 629.5L224 634.5L567.5 634.5L567.5 629.5ZM226.5 632L226.5 523L221.5 523L221.5 632L226.5 632Z" fill="#E8505B"/>
<rect x="406.5" y="1.5" width="722" height="830" stroke="#1C2E5C" stroke-width="3" stroke-dasharray="21 10"/>
<path d="M1079.04 776.502C1070.99 776.502 1064.46 783.033 1064.46 791.087C1064.46 799.142 1070.99 805.672 1079.04 805.672C1087.1 805.672 1093.63 799.142 1093.63 791.087C1093.59 783.033 1087.05 776.502 1079.04 776.502V776.502Z" fill="#3880FF"/>
<path d="M1099.94 777.808C1103.62 777.808 1106.6 774.826 1106.6 771.147C1106.6 767.468 1103.62 764.486 1099.94 764.486C1096.26 764.486 1093.28 767.468 1093.28 771.147C1093.28 774.826 1096.26 777.808 1099.94 777.808Z" fill="#3880FF"/>
<path d="M1108.13 777.808L1107.87 777.199L1107.43 777.721C1106.34 778.94 1104.95 779.898 1103.42 780.464L1102.99 780.638L1103.16 781.073C1104.51 784.252 1105.17 787.648 1105.17 791.087C1105.17 805.498 1093.45 817.253 1079 817.253C1064.55 817.253 1052.88 805.498 1052.88 791.087C1052.88 776.676 1064.59 764.921 1079.04 764.921C1082.96 764.921 1086.71 765.792 1090.23 767.446L1090.62 767.62L1090.8 767.185C1091.45 765.661 1092.45 764.355 1093.76 763.31L1094.28 762.875L1093.67 762.57C1089.1 760.219 1084.18 759 1079 759C1061.37 759 1047 773.367 1047 791C1047 808.633 1061.37 823 1079 823C1096.63 823 1111 808.633 1111 791C1111 786.472 1110.04 782.031 1108.13 777.808V777.808Z" fill="#3880FF"/>
<defs>
<clipPath id="clip0">
<rect width="184.067" height="194.525" fill="white" transform="translate(1238 17)"/>
</clipPath>
</defs>
</svg>
