<svg width="50" height="50" viewBox="0 0 50 50" fill="none" xmlns="http://www.w3.org/2000/svg">
<path d="M1.35009 48.66H24.9801C24.9801 39.88 17.8601 32.76 9.08009 32.76C6.27009 32.76 3.63009 33.5 1.34009 34.78V48.66H1.35009Z" fill="#1FBEC8"/>
<path d="M14.83 17.48L7.93001 10.58C6.52001 9.16998 4.11001 9.53998 3.26001 11.35L14.04 22.13C15.81 21.27 16.26 18.91 14.83 17.48Z" fill="white"/>
<path d="M38.78 41.43L31.88 34.53C30.69 33.34 28.84 33.45 27.76 34.53C27.54 34.75 27.37 35.02 27.22 35.31L38 46.09C39.81 45.25 40.19 42.83 38.78 41.43Z" fill="white"/>
<path d="M27.0901 35.59C26.3701 37.59 23.8101 38.17 22.3001 36.66L12.7001 27.06C11.5101 25.87 11.6201 24.02 12.7001 22.94C12.9901 22.65 13.3501 22.42 13.7701 22.26C13.8701 22.22 13.9601 22.16 14.0501 22.12L3.27009 11.35C-0.0199108 18.39 3.21009 29.29 11.6401 37.72C20.0701 46.15 30.9801 49.38 38.0101 46.09L27.2301 35.31C27.1801 35.4 27.1201 35.49 27.0901 35.59Z" fill="#1FBEC8"/>
<g opacity="0.1">
<path opacity="0.1" d="M27.27 35.35L27.2299 35.31C27.2199 35.33 27.21 35.35 27.2 35.37C27.22 35.36 27.24 35.35 27.27 35.35Z" fill="black"/>
<path opacity="0.1" d="M14.05 22.13L14.01 22.09C14 22.11 14 22.14 13.99 22.16C14.01 22.15 14.03 22.14 14.05 22.13Z" fill="black"/>
</g>
<path d="M42.0702 13.96V10.19H22.9402V5.86H42.0702V2.09L48.0002 8.02L42.0702 13.96Z" fill="#1FBEC8"/>
<path d="M25.91 16.61V20.38H45.03V24.71H25.91V28.48L19.98 22.55L25.91 16.61Z" fill="#1FBEC8"/>
<path d="M18.12 42.03C17.78 41.81 17.3 41.92 17.09 42.25C16.98 42.42 16.94 42.62 16.98 42.82C17.02 43.01 17.13 43.17 17.3 43.28V43.29C17.43 43.37 17.57 43.41 17.71 43.41C17.97 43.41 18.2 43.28 18.34 43.07C18.45 42.9 18.49 42.7 18.45 42.5C18.41 42.31 18.29 42.14 18.12 42.03Z" fill="#1C2E5C"/>
<path d="M32.41 34C31.72 33.3 30.8 32.92 29.83 32.92C28.86 32.92 27.91 33.31 27.23 33.99C26.85 34.37 26.56 34.83 26.38 35.34C26.07 36.2 25.27 36.76 24.34 36.76C23.76 36.76 23.24 36.54 22.83 36.13L13.23 26.53C12.81 26.12 12.59 25.59 12.59 25.01C12.59 24.44 12.82 23.87 13.22 23.48C13.45 23.25 13.72 23.08 14.02 22.98C15.47 22.45 16.44 21.06 16.43 19.52C16.44 18.56 16.06 17.64 15.36 16.95L8.46001 10.05C7.77001 9.34997 6.84001 8.96997 5.86001 8.96997H5.84001C4.45001 8.96997 3.17001 9.77997 2.59001 11.03V11.04C2.58001 11.06 2.58001 11.07 2.57001 11.09C1.70001 12.98 1.26001 15.12 1.26001 17.48C1.27001 24.31 4.95001 32.08 11.12 38.25C12.54 39.67 14.06 40.98 15.63 42.13C15.96 42.37 16.45 42.29 16.68 41.97C16.93 41.63 16.85 41.16 16.52 40.92C15 39.81 13.54 38.55 12.18 37.19C6.27001 31.29 2.75001 23.93 2.76001 17.48C2.76001 15.74 3.03001 14.13 3.55001 12.68L12.79 21.92C12.57 22.06 12.36 22.23 12.17 22.42C11.48 23.11 11.1 24.03 11.1 25.01C11.1 25.98 11.48 26.9 12.17 27.59L21.78 37.19C22.46 37.88 23.37 38.26 24.34 38.26V38.21L24.36 38.26C25.63 38.26 26.77 37.6 27.44 36.57L36.69 45.82C35.24 46.34 33.64 46.62 31.88 46.62C28.13 46.62 23.84 45.35 19.81 43.06C19.46 42.86 18.98 42.99 18.79 43.34C18.69 43.51 18.67 43.72 18.72 43.91C18.77 44.1 18.9 44.26 19.07 44.36C23.39 46.82 27.82 48.11 31.89 48.12C34.11 48.12 36.15 47.71 37.96 46.93C38.02 46.95 38.08 46.97 38.15 46.97C38.34 46.97 38.53 46.9 38.68 46.75C38.76 46.67 38.81 46.58 38.85 46.49C39.81 45.83 40.41 44.72 40.41 43.51C40.41 42.52 40.02 41.6 39.33 40.91L32.41 34ZM5.86001 10.47C6.44001 10.47 6.99001 10.7 7.40001 11.11L14.3 18.01C14.71 18.42 14.93 18.95 14.93 19.52C14.93 20.18 14.63 20.78 14.16 21.18L4.22001 11.24C4.61001 10.76 5.19001 10.47 5.86001 10.47ZM38.11 45.13L28.17 35.19C28.21 35.14 28.24 35.09 28.29 35.05C28.69 34.65 29.24 34.42 29.83 34.42C30.41 34.42 30.94 34.64 31.35 35.06L38.25 41.96C38.66 42.37 38.88 42.91 38.89 43.5C38.88 44.15 38.59 44.74 38.11 45.13Z" fill="#1C2E5C"/>
<path d="M48.5299 7.48998L42.5999 1.55999C42.3899 1.34999 42.0599 1.27999 41.7799 1.39999C41.4999 1.51999 41.3199 1.78999 41.3199 2.08999V5.10999H22.9399C22.5299 5.10999 22.1899 5.44999 22.1899 5.85999V10.19C22.1899 10.6 22.5299 10.94 22.9399 10.94H41.3199V13.96C41.3199 14.26 41.4999 14.54 41.7799 14.65C41.8699 14.69 41.9699 14.71 42.0699 14.71C42.2699 14.71 42.4599 14.63 42.5999 14.49L48.5299 8.54999C48.8199 8.25999 48.8199 7.77998 48.5299 7.48998ZM42.8199 12.14V10.19C42.8199 9.77998 42.4799 9.43998 42.0699 9.43998H23.6899V6.60999H42.0699C42.4799 6.60999 42.8199 6.26999 42.8199 5.85999V3.89999L46.9399 8.01999L42.8199 12.14Z" fill="#1C2E5C"/>
<path d="M45.0299 19.63H26.6499V16.61C26.6499 16.31 26.4699 16.03 26.1899 15.92C25.9099 15.8 25.5899 15.87 25.3699 16.08L19.4399 22.02C19.1499 22.31 19.1499 22.79 19.4399 23.08L25.3699 29.01C25.5099 29.15 25.6999 29.23 25.8999 29.23C25.9999 29.23 26.0899 29.21 26.1899 29.17C26.4699 29.05 26.6499 28.78 26.6499 28.48V25.46H45.0299C45.4399 25.46 45.7799 25.12 45.7799 24.71V20.38C45.7799 19.96 45.4499 19.63 45.0299 19.63ZM44.2799 23.96H25.8999C25.4899 23.96 25.1499 24.3 25.1499 24.71V26.67L21.0299 22.55L25.1499 18.43V20.38C25.1499 20.79 25.4899 21.13 25.8999 21.13H44.2799V23.96Z" fill="#1C2E5C"/>
</svg>
