<svg xmlns="http://www.w3.org/2000/svg" width="124" height="124" viewBox="0 0 124 124"><g transform="translate(-480 -1506)"><g transform="translate(480 1506)" fill="#fff" stroke="#feab45" stroke-width="1"><circle cx="62" cy="62" r="62" stroke="none"/><circle cx="62" cy="62" r="61.5" fill="none"/></g><circle cx="53" cy="53" r="53" transform="translate(489 1515)" fill="#feab45"/><g transform="translate(451.319 1536.015)"><path d="M113.092,205.823a.923.923,0,0,0-.923.923V228.7H69.526V191.986a.923.923,0,1,0-1.845,0v37.636a.923.923,0,0,0,.923.923h44.488a.923.923,0,0,0,.923-.923V206.745A.923.923,0,0,0,113.092,205.823Z" transform="translate(0 -167.559)" fill="#fff"/><path d="M113.744,7.726,106.288.27a.923.923,0,0,0-.652-.27H68.6a.923.923,0,0,0-.923.923V20.11a.923.923,0,0,0,1.845,0V1.845h35.187V8.379a.923.923,0,0,0,.923.923h6.533V34.876a.923.923,0,0,0,1.845,0V8.379a.923.923,0,0,0-.27-.652ZM106.558,3.15l4.306,4.306h-4.306Z" fill="#fff"/><path d="M115.738,66.641h3.48a2.168,2.168,0,0,0,2.165-2.165V62.117l1.032-3.669a4.144,4.144,0,0,1,1.04-1.771,8.379,8.379,0,1,0-11.954,0,4.145,4.145,0,0,1,1.04,1.771l1.032,3.669v2.358a2.167,2.167,0,0,0,2.165,2.165Zm3.8-2.165a.32.32,0,0,1-.32.32h-3.48a.32.32,0,0,1-.32-.32V62.912h4.12v1.563Zm-8.593-13.669a6.533,6.533,0,1,1,11.194,4.578,5.994,5.994,0,0,0-1.5,2.565l-.877,3.119h-4.567l-.877-3.119a6,6,0,0,0-1.5-2.565A6.5,6.5,0,0,1,110.944,50.806Z" transform="translate(-36.323 -37.208)" fill="#fff"/><path d="M266.683,198.6a.923.923,0,0,0,.923.923h9.941a.923.923,0,0,0,.923-.923v-3.728a.923.923,0,0,0-.923-.923h-9.941a.923.923,0,0,0-.923.923Zm1.845-2.805h8.1v1.883h-8.1Z" transform="translate(-174.521 -170.092)" fill="#fff"/><path d="M267.606,74.577h5.219a.923.923,0,1,0,0-1.845h-5.219a.923.923,0,0,0,0,1.845Z" transform="translate(-174.521 -63.785)" fill="#fff"/><path d="M267.606,113.973h13.67a.923.923,0,1,0,0-1.845H267.606a.923.923,0,1,0,0,1.845Z" transform="translate(-174.521 -98.334)" fill="#fff"/><path d="M267.606,153.369h13.67a.923.923,0,1,0,0-1.845H267.606a.923.923,0,0,0,0,1.845Z" transform="translate(-174.521 -132.884)" fill="#fff"/><path d="M143.272,429.319h-9.931a.923.923,0,0,0,0,1.845h9.931a.923.923,0,0,0,0-1.845Z" transform="translate(-56.773 -376.505)" fill="#fff"/><path d="M143.272,462.654h-9.931a.923.923,0,1,0,0,1.845h9.931a.923.923,0,1,0,0-1.845Z" transform="translate(-56.773 -405.739)" fill="#fff"/><path d="M296.729,429.319H286.8a.923.923,0,0,0,0,1.845h9.931a.923.923,0,0,0,0-1.845Z" transform="translate(-191.353 -376.505)" fill="#fff"/><path d="M296.729,462.654H286.8a.923.923,0,0,0,0,1.845h9.931a.923.923,0,0,0,0-1.845Z" transform="translate(-191.353 -405.739)" fill="#fff"/><path d="M100.006,276.176a.923.923,0,0,0,.923.923h16.309a.923.923,0,0,0,.627-1.6,2.121,2.121,0,0,1-.687-1.571,2.142,2.142,0,1,1,4.284,0,2.121,2.121,0,0,1-.687,1.571.923.923,0,0,0,.627,1.6h16.309a.923.923,0,1,0,0-1.845h-3.065v-3.981a.923.923,0,0,0-.923-.923h-3.315a11.555,11.555,0,0,0-.92-2.107l2.258-2.258a.922.922,0,0,0,0-1.3l-3.468-3.467a.922.922,0,0,0-1.3,0l-2.345,2.345a11.579,11.579,0,0,0-1.731-.718v-3.316a.923.923,0,0,0-.923-.923h-4.9a.923.923,0,0,0-.923.923v3.193a11.546,11.546,0,0,0-2.14.841l-2.345-2.345a.922.922,0,0,0-1.3,0l-3.467,3.467a.922.922,0,0,0,0,1.3l2.258,2.258a11.559,11.559,0,0,0-.92,2.107h-3.316a.923.923,0,0,0-.923.923v3.981h-3.065A.923.923,0,0,0,100.006,276.176Zm5.833-3.981h3.087a.923.923,0,0,0,.894-.695,9.731,9.731,0,0,1,1.269-2.9.923.923,0,0,0-.122-1.154l-2.116-2.116,2.163-2.163,2.184,2.184a.923.923,0,0,0,1.124.141,9.721,9.721,0,0,1,2.945-1.153.923.923,0,0,0,.73-.9v-2.992h3.058v3.087a.923.923,0,0,0,.695.894,9.74,9.74,0,0,1,2.571,1.066.923.923,0,0,0,1.124-.141l2.184-2.184,2.163,2.163-2.116,2.116a.923.923,0,0,0-.122,1.154,9.733,9.733,0,0,1,1.269,2.9.923.923,0,0,0,.894.695H132.8v3.058H123.08a3.987,3.987,0,1,0-7.519,0h-9.722v-3.058Z" transform="translate(-28.348 -226.788)" fill="#fff"/></g></g></svg>