<svg width="50" height="48" viewBox="0 0 50 48" fill="none" xmlns="http://www.w3.org/2000/svg">
<path d="M0.939941 27.03C3.36994 28.01 6.01994 28.57 8.80994 28.57C20.4099 28.57 29.8099 19.17 29.8099 7.57C29.8099 4.95 29.3099 2.44 28.4299 0.130005H0.939941V27.03Z" fill="#1FBEC8"/>
<path d="M47.83 30H41.49V38.32C41.49 39.55 40.5 40.55 39.26 40.55H30.54V47.14H13.57V31.82C9.65002 28.45 7.25002 23.36 7.52002 17.73C7.95002 9 14.95 1.81 23.67 1.17C33.69 0.439995 42.07 8.17 42.42 17.93L47.83 30Z" fill="white"/>
<path d="M37.2201 18.8C37.2201 22.67 35.49 26.14 32.75 28.48C30.53 30.37 27.65 31.51 24.51 31.51C21.37 31.51 18.49 30.37 16.27 28.48C13.54 26.14 11.8 22.68 11.8 18.8C11.8 14.93 13.53 11.46 16.27 9.13001C18.49 7.24001 21.37 6.10001 24.51 6.10001C27.65 6.10001 30.53 7.24001 32.75 9.13001C35.49 11.46 37.2201 14.92 37.2201 18.8Z" fill="#1FBEC8"/>
<path d="M14.0399 36.31C14.4541 36.31 14.7899 35.9742 14.7899 35.56C14.7899 35.1458 14.4541 34.81 14.0399 34.81C13.6257 34.81 13.2899 35.1458 13.2899 35.56C13.2899 35.9742 13.6257 36.31 14.0399 36.31Z" fill="#1C2E5C"/>
<path d="M48.99 29.69L43.64 17.75C43.55 15.73 43.12 13.75 42.38 11.86L42.37 11.84C41.03 8.49 38.75 5.64 35.78 3.59C32.37 1.23 28.33 0.110001 24.08 0.420001C19.68 0.750001 15.54 2.69 12.42 5.89C9.29997 9.09 7.45997 13.28 7.24997 17.69C7.22997 17.96 7.21997 18.25 7.21997 18.6C7.21997 23.77 9.43997 28.71 13.29 32.16V33.56C13.29 33.97 13.63 34.31 14.04 34.31C14.46 34.31 14.79 33.97 14.79 33.56C14.79 33.55 14.79 33.55 14.79 33.54V31.82C14.79 31.6 14.7 31.39 14.53 31.25C10.84 28.07 8.71997 23.46 8.71997 18.6C8.71997 18.3 8.72997 18.03 8.73997 17.77C9.13997 9.48 15.93 2.52 24.19 1.92C24.6 1.89 25.02 1.87 25.45 1.87C32.31 1.87 38.4 5.99 40.96 12.35L40.97 12.39C40.97 12.39 40.97 12.4 40.98 12.4C41.68 14.17 42.08 16.04 42.15 17.97L42.21 18.24L47.14 29.24H41.96C41.76 29.24 41.57 29.32 41.43 29.46C41.29 29.6 41.21 29.79 41.21 29.99V38.31C41.21 39.12 40.55 39.78 39.74 39.78H31.02C30.82 39.78 30.63 39.86 30.49 40C30.35 40.14 30.27 40.34 30.27 40.53V46.37H14.79V37.56C14.79 37.15 14.46 36.81 14.04 36.81C13.63 36.81 13.29 37.15 13.29 37.56V47.12C13.29 47.32 13.37 47.51 13.51 47.65C13.65 47.79 13.85 47.87 14.04 47.87H31.02C31.22 47.87 31.41 47.79 31.55 47.65C31.69 47.51 31.77 47.32 31.77 47.12V41.28H39.74C41.37 41.28 42.71 39.95 42.71 38.31V30.74H48.3C48.56 30.74 48.8 30.61 48.93 30.4C49.07 30.19 49.09 29.91 48.99 29.69Z" fill="#1C2E5C"/>
<path d="M33.72 29.05C36.73 26.48 38.45 22.75 38.45 18.8C38.45 14.86 36.73 11.12 33.72 8.55C31.29 6.48 28.19 5.34 24.99 5.34C21.79 5.34 18.69 6.48 16.26 8.55C13.26 11.12 11.53 14.85 11.53 18.8C11.53 22.74 13.25 26.48 16.26 29.05C18.69 31.12 21.79 32.26 24.99 32.26C28.19 32.26 31.28 31.12 33.72 29.05ZM29.81 27.22C30.58 27.56 31.32 27.98 32.01 28.48C30.87 29.31 29.59 29.92 28.24 30.31C28.56 29.88 28.87 29.38 29.15 28.82C29.39 28.32 29.61 27.78 29.81 27.22ZM27.81 28.14C27.19 29.4 26.47 30.23 25.74 30.58V26.23C26.65 26.29 27.54 26.45 28.4 26.7C28.22 27.21 28.02 27.7 27.81 28.14ZM25.74 24.72V19.54H29.6C29.55 21.59 29.29 23.55 28.84 25.26C27.84 24.97 26.8 24.78 25.74 24.72ZM25.74 18.05V12.87C26.8 12.81 27.84 12.63 28.84 12.33C29.29 14.04 29.55 16 29.6 18.05H25.74ZM25.74 11.37V7.02C26.47 7.36 27.18 8.2 27.81 9.46C28.03 9.9 28.22 10.39 28.4 10.9C27.54 11.16 26.64 11.31 25.74 11.37ZM29.15 8.79C28.87 8.23 28.57 7.73 28.24 7.29C29.59 7.67 30.87 8.29 32.01 9.12C31.32 9.62 30.58 10.04 29.81 10.38C29.61 9.82 29.39 9.28 29.15 8.79ZM20.17 10.38C19.4 10.04 18.66 9.62 17.97 9.12C19.11 8.29 20.39 7.67 21.74 7.29C21.42 7.72 21.11 8.22 20.83 8.79C20.59 9.28 20.37 9.82 20.17 10.38ZM22.17 9.46C22.79 8.2 23.51 7.37 24.24 7.02V11.37C23.33 11.31 22.44 11.15 21.58 10.9C21.76 10.39 21.95 9.9 22.17 9.46ZM24.24 12.87V18.05H20.38C20.43 16 20.69 14.04 21.14 12.33C22.14 12.63 23.18 12.81 24.24 12.87ZM24.24 19.55V24.73C23.18 24.79 22.14 24.97 21.14 25.27C20.69 23.56 20.43 21.6 20.38 19.55H24.24ZM24.24 26.22V30.57C23.51 30.23 22.8 29.39 22.17 28.14C21.95 27.7 21.76 27.21 21.58 26.69C22.44 26.44 23.33 26.28 24.24 26.22ZM20.83 28.81C21.11 29.37 21.41 29.87 21.74 30.3C20.39 29.92 19.11 29.3 17.97 28.47C18.66 27.97 19.4 27.55 20.17 27.21C20.37 27.78 20.59 28.32 20.83 28.81ZM33.18 27.49C32.28 26.79 31.29 26.22 30.25 25.78C30.75 23.91 31.04 21.77 31.1 19.55H36.91C36.72 22.57 35.39 25.4 33.18 27.49ZM36.91 18.05H31.1C31.05 15.82 30.75 13.69 30.25 11.82C31.29 11.38 32.27 10.81 33.18 10.11C35.39 12.2 36.72 15.03 36.91 18.05ZM16.79 10.11C17.69 10.8 18.68 11.38 19.72 11.82C19.22 13.69 18.93 15.82 18.87 18.05H13.06C13.26 15.03 14.59 12.2 16.79 10.11ZM13.07 19.55H18.88C18.93 21.77 19.23 23.91 19.73 25.78C18.69 26.22 17.71 26.8 16.8 27.49C14.59 25.4 13.26 22.57 13.07 19.55Z" fill="#1C2E5C"/>
</svg>
