<?xml version="1.0" encoding="utf-8"?>
<!-- Generator: Adobe Illustrator 24.1.3, SVG Export Plug-In . SVG Version: 6.00 Build 0)  -->
<svg version="1.1" xmlns="http://www.w3.org/2000/svg" xmlns:xlink="http://www.w3.org/1999/xlink" x="0px" y="0px"
	 viewBox="0 0 500 500" style="enable-background:new 0 0 500 500;" xml:space="preserve">
<g id="Background_Complete">
	<g>
		<g>
			<path style="fill:#F5F5F5;" d="M80.41,95.55c4.16-1.1,8.69-0.03,12.34,2.24c3.65,2.28,6.49,5.66,8.75,9.32
				c4.38,7.07,5.86,16.53,5.98,24.85c-9.23-0.46-17.04-7.79-20.77-11.76C80.8,113.93,73.95,99.02,80.41,95.55"/>
		</g>
		<g>
			<path style="fill:#F5F5F5;" d="M122.28,137.67c-3.77-2.98-5.41-8.21-4.58-12.93c0.84-4.73,3.93-8.89,7.92-11.57
				c1.84-1.24,4.12-2.21,6.25-1.57c1.99,0.6,3.35,2.55,3.74,4.59c0.38,2.04-0.07,4.15-0.77,6.11
				C132.44,129,128.9,135.05,122.28,137.67"/>
		</g>
		<g>
			<g>
				<path style="fill:#E0E0E0;" d="M127.64,157.78c-0.1,0.05-1.16-1.76-2.62-4.84c-0.73-1.54-1.39-3.51-1.84-5.72
					c-0.44-2.2-0.96-4.62-1.14-7.24c-0.41-5.23,0.63-10.02,2.08-13.13c0.71-1.57,1.49-2.73,2.05-3.5c0.6-0.75,0.96-1.13,1.01-1.09
					c0.14,0.1-1.2,1.74-2.45,4.85c-1.25,3.09-2.15,7.71-1.76,12.8c0.17,2.53,0.67,4.95,1.05,7.14c0.4,2.19,0.97,4.08,1.61,5.63
					C126.92,155.79,127.78,157.72,127.64,157.78z"/>
			</g>
		</g>
		<g>
			<g>
				<path style="fill:#E0E0E0;" d="M86.63,106.45c0.05-0.04,0.73,0.67,1.93,2c1.2,1.33,2.9,3.27,4.99,5.7
					c4.17,4.85,9.86,11.61,15.96,19.22c6.1,7.62,11.43,14.68,15.18,19.86c1.87,2.59,3.37,4.71,4.37,6.19c1,1.48,1.53,2.32,1.48,2.35
					c-0.05,0.04-0.68-0.73-1.78-2.14c-1.19-1.55-2.74-3.57-4.6-6.01c-3.88-5.08-9.28-12.06-15.38-19.67
					c-6.1-7.5-11.61-14.29-15.74-19.38c-1.93-2.39-3.53-4.37-4.76-5.89C87.18,107.29,86.59,106.49,86.63,106.45z"/>
			</g>
		</g>
		<g>
			<path style="fill:#F5F5F5;" d="M115.99,146.66c-8.31-5.79-19.5-7.19-28.98-3.63c-2.41,0.91-5.04,2.59-5.12,5.17
				c-0.08,2.58,2.46,4.43,4.85,5.42c9.92,4.13,22.27,1.47,29.63-6.36"/>
		</g>
		<g>
			<g>
				<path style="fill:#E0E0E0;" d="M93.47,146.95c-0.01-0.06,0.48-0.23,1.39-0.47c0.9-0.26,2.23-0.54,3.89-0.85
					c3.29-0.53,8.02-1.15,13.14-0.11c2.55,0.53,4.88,1.47,6.82,2.61c1.96,1.14,3.46,2.53,4.64,3.73c1.14,1.25,1.99,2.33,2.47,3.14
					c0.51,0.79,0.76,1.25,0.71,1.28c-0.15,0.11-1.29-1.64-3.65-3.96c-1.21-1.12-2.71-2.4-4.61-3.46c-1.89-1.05-4.13-1.93-6.58-2.44
					c-4.93-1.01-9.57-0.52-12.86-0.15C95.54,146.7,93.5,147.1,93.47,146.95z"/>
			</g>
		</g>
	</g>
	<g>
		<g>
			<g>
				<g>
					<path style="fill:#EBEBEB;" d="M129.53,349.67c29.82-14.48,41.45-48.31,45.36-79.76c0.65-5.25,2.1-10.66,0.35-15.64
						c-1.76-4.98-7.05-9.03-12.08-7.57c-4.17,1.21-6.58,5.45-9.34,8.83c-3.68,4.5-8.63,7.93-14.11,9.75
						c-3.6,1.2-7.88,1.6-10.88-0.74c-4.11-3.2-3.65-9.51-2.79-14.7c1.6-9.67,3.2-19.34,4.8-29.01c0.86-5.19,1.72-10.49,0.89-15.67
						c-0.83-5.19-3.67-10.33-8.39-12.5c-4.72-2.17-11.28-0.29-13.14,4.62c-0.77,2.05-0.69,4.31-1.18,6.44
						c-0.49,2.13-1.87,4.36-4.01,4.63c-2.17,0.28-4.01-1.52-5.32-3.29c-4.53-6.1-7.09-13.43-9.42-20.69
						c-2.33-7.26-4.54-14.66-8.49-21.15c-3.95-6.49-9.96-12.1-17.33-13.7c-7.37-1.6-16.03,1.72-19.07,8.73
						c-3.05,7.02,0.04,15.13,3.74,21.8c5.5,9.89,12.42,18.96,20.47,26.85c1.45,1.42,3.03,2.96,3.35,4.98
						c0.58,3.64-3.25,6.56-6.85,7.15c-4.08,0.67-8.21-0.4-12.34-0.57c-4.13-0.17-8.8,0.92-10.94,4.5
						c-2.97,4.97,0.58,11.24,4.37,15.58c7.58,8.69,16.66,16.04,26.69,21.64c3.6,2.01,7.42,3.87,10.08,7.05
						c2.65,3.18,3.77,8.14,1.33,11.5c-2.45,3.37-7.41,3.78-11.29,2.4c-3.88-1.38-7.12-4.12-10.7-6.17c-6.71-3.83-16-4.8-21.56,0.64
						c-3.65,3.58-4.81,9.18-4.06,14.25c0.75,5.07,3.17,9.73,5.83,14.09c9.3,15.24,22.23,28.38,37.87,36.75
						C97.03,349.07,112.12,353.07,129.53,349.67"/>
				</g>
			</g>
		</g>
		<g>
			<g>
				<g>
					<g>
						<path style="fill:#E0E0E0;" d="M125.3,351.33c0.84-12.57,1.4-6.05-0.73-22.56c-2.09-16.52-5.89-34.44-10.5-53.04
							c-1.17-4.65-2.33-9.24-3.47-13.76c-1.15-4.51-2.29-8.99-3.67-13.3c-2.73-8.63-6.01-16.73-9.37-24.31
							c-3.35-7.59-6.81-14.67-10.1-21.26c-3.3-6.59-6.49-12.68-9.63-18.1c-6.26-10.87-12.33-19.03-16.73-24.46
							c-2.19-2.72-3.96-4.78-5.18-6.16c-0.59-0.66-1.05-1.17-1.4-1.56c-0.32-0.35-0.49-0.52-0.5-0.51
							c-0.01,0.01,0.13,0.21,0.43,0.57c0.33,0.4,0.77,0.94,1.32,1.62c1.17,1.42,2.89,3.51,5.04,6.27
							c4.3,5.49,10.27,13.68,16.43,24.57c3.1,5.43,6.25,11.52,9.51,18.11c3.25,6.61,6.68,13.69,10,21.27
							c3.33,7.58,6.58,15.65,9.28,24.23c1.37,4.29,2.49,8.73,3.64,13.25c1.14,4.52,2.29,9.11,3.46,13.76
							c4.61,18.59,8.42,36.46,10.55,52.92c2.16,16.45,1.67,9.87,0.93,22.4"/>
					</g>
				</g>
			</g>
		</g>
		<g>
			<g>
				<g>
					<g>
						<path style="fill:#E0E0E0;" d="M106.68,248.59c0.06,0.02,0.36-0.74,0.86-2.13c0.5-1.39,1.16-3.43,1.94-5.96
							c1.56-5.05,3.47-12.11,5.55-19.89c2.08-7.79,4.09-14.79,5.72-19.81c0.81-2.51,1.48-4.54,1.97-5.93
							c0.48-1.4,0.71-2.18,0.65-2.21c-0.06-0.02-0.41,0.71-1,2.07c-0.59,1.36-1.37,3.35-2.26,5.84c-1.8,4.98-3.92,11.98-6,19.78
							c-2.03,7.69-3.87,14.64-5.27,19.95c-0.65,2.4-1.2,4.41-1.64,6.04C106.79,247.77,106.61,248.57,106.68,248.59z"/>
					</g>
				</g>
			</g>
		</g>
		<g>
			<g>
				<g>
					<g>
						<path style="fill:#E0E0E0;" d="M41.89,225.48c-0.01,0.07,0.92,0.33,2.61,0.74c1.69,0.43,4.14,1.03,7.13,1.87
							c6.01,1.63,14.23,4.18,23.18,7.39c8.95,3.22,16.92,6.49,22.62,9.01c2.86,1.24,5.15,2.31,6.73,3.04
							c1.58,0.74,2.47,1.11,2.5,1.05c0.03-0.06-0.8-0.55-2.34-1.4c-1.54-0.83-3.78-2-6.62-3.33c-5.64-2.69-13.6-6.07-22.57-9.3
							c-8.98-3.21-17.26-5.67-23.34-7.13c-3.03-0.76-5.51-1.26-7.23-1.57C42.86,225.55,41.91,225.42,41.89,225.48z"/>
					</g>
				</g>
			</g>
		</g>
		<g>
			<g>
				<g>
					<g>
						<path style="fill:#E0E0E0;" d="M123.95,327.41c0.03,0.02,0.23-0.24,0.59-0.74c0.41-0.6,0.92-1.34,1.53-2.23
							c1.32-1.95,3.15-4.81,5.37-8.38c4.44-7.14,10.26-17.19,16.53-28.36c6.28-11.18,12-21.27,16.28-28.49
							c2.09-3.51,3.82-6.39,5.1-8.54c0.55-0.93,1-1.7,1.37-2.33c0.3-0.54,0.45-0.83,0.42-0.85c-0.03-0.02-0.23,0.24-0.59,0.74
							c-0.41,0.6-0.92,1.34-1.53,2.23c-1.32,1.95-3.15,4.81-5.37,8.38c-4.44,7.14-10.26,17.19-16.54,28.37
							c-6.28,11.18-11.99,21.27-16.28,28.49c-2.1,3.51-3.82,6.39-5.1,8.53c-0.55,0.93-1,1.7-1.37,2.33
							C124.07,327.1,123.92,327.39,123.95,327.41z"/>
					</g>
				</g>
			</g>
		</g>
		<g>
			<g>
				<g>
					<g>
						<path style="fill:#E0E0E0;" d="M39.78,284.7c-0.01,0.03,0.27,0.2,0.82,0.5c0.66,0.34,1.46,0.76,2.44,1.27
							c2.26,1.15,5.3,2.7,9.01,4.59c7.61,3.88,18.05,9.36,29.59,15.42c11.54,6.07,22.05,11.46,29.74,15.18
							c3.84,1.86,6.97,3.34,9.15,4.31c1.01,0.44,1.84,0.81,2.52,1.11c0.58,0.24,0.89,0.36,0.91,0.32c0.01-0.03-0.27-0.2-0.82-0.5
							c-0.66-0.34-1.46-0.76-2.44-1.27c-2.26-1.15-5.3-2.7-9.01-4.59c-7.61-3.88-18.06-9.36-29.59-15.43
							c-11.53-6.07-22.04-11.45-29.73-15.18c-3.85-1.86-6.97-3.34-9.15-4.31c-1.01-0.44-1.84-0.81-2.52-1.11
							C40.1,284.78,39.79,284.67,39.78,284.7z"/>
					</g>
				</g>
			</g>
		</g>
	</g>
</g>
<g id="Background_Simple" style="display:none;">
	<path style="display:inline;fill:#EBEBEB;" d="M437.3,112.44L437.3,112.44c-17.04-27.73-45.57-46.73-77.86-50.76
		c-12.05-1.51-24.33-1.09-36.23,1.42c-36.52,7.72-68.31,34.99-81.48,69.93c-7.75,20.54-9.91,44.2-24.61,60.5
		c-19.13,21.22-51.62,21.89-80.18,21.01c-28.56-0.88-61.07-0.13-80.11,21.18c-11.92,13.34-15.71,32.32-14.75,50.19
		c2.55,47.31,35.93,89.61,78.39,110.64c42.46,21.03,92.45,22.91,138.91,13.66c65.09-12.96,127-48.54,164.21-103.5
		c35.58-52.56,45.75-123.33,20.54-181.29C442.16,120.93,439.85,116.61,437.3,112.44z"/>
</g>
<g id="Floor">
	<g>
		<g>
			<path style="fill:#263238;" d="M465.36,435.01c0,0.14-94.67,0.26-211.42,0.26c-116.79,0-211.44-0.12-211.44-0.26
				s94.65-0.26,211.44-0.26C370.69,434.75,465.36,434.86,465.36,435.01z"/>
		</g>
	</g>
</g>
<g id="Plant">
	<g>
		<g>
			<path style="fill:#1DA2AB;" d="M65.73,269.39c0,0,6.9-4.66,15.52,11.87c8.62,16.53,11.92,26.08,11.92,26.08s2.27,3.46,4.64,1.16
				c2.37-2.3,5.58-8.78,9.66-7.66c4.23,1.17,5.66,5.86,4.92,12.77c-0.74,6.92-1.8,22.14-1.89,23.51c-0.09,1.35,0.7,3.33,2.57,2.03
				c1.86-1.31,12.55-13.43,18-8.02c5.45,5.41,0.23,24.35-0.31,26.43c-0.53,2.08-0.12,2.96,0.87,3.47c0.99,0.5,4.2-3.91,7.38-7.23
				c3.18-3.32,7.45-6.62,10.33-3.23c2.88,3.39,3.93,17.55-9.34,40.69l-6.85,10.32l-12.43-0.57C94.19,398.16,83.34,389,82.3,384.68
				c-1.05-4.32,4.13-5.84,8.68-6.47c4.56-0.62,10.01-0.63,10.19-1.73c0.17-1.1-0.3-1.95-2.29-2.74c-2-0.79-20.39-7.68-21.57-15.27
				c-1.18-7.59,14.91-9.12,17.06-9.86s1.01-2.55-0.13-3.27c-1.17-0.73-14.11-8.81-20.14-12.27c-6.03-3.46-8.99-7.38-7.45-11.48
				c1.48-3.96,8.62-2.75,11.87-3.32c3.25-0.57,1.78-4.44,1.78-4.44s-5.79-8.28-14.11-24.96s-0.29-19.57-0.29-19.57"/>
		</g>
		<g>
			<g>
				<path style="fill:#263238;" d="M73.48,284.18c0.01,0,0.07,0.1,0.17,0.29c0.12,0.22,0.27,0.51,0.47,0.88
					c0.41,0.81,1,1.95,1.75,3.41c1.52,3,3.7,7.29,6.4,12.58c5.45,10.62,12.96,25.26,21.26,41.42c8.34,16.16,15.82,30.83,21.14,41.49
					c2.63,5.32,4.77,9.64,6.26,12.65c0.72,1.48,1.28,2.64,1.67,3.45c0.18,0.38,0.32,0.68,0.42,0.9c0.09,0.2,0.14,0.31,0.13,0.32
					c-0.01,0-0.07-0.1-0.17-0.29c-0.12-0.22-0.27-0.51-0.47-0.88c-0.41-0.81-1-1.95-1.75-3.41c-1.52-3-3.7-7.29-6.39-12.58
					c-5.4-10.62-12.93-25.26-21.26-41.43c-8.33-16.16-15.81-30.82-21.14-41.49c-2.63-5.32-4.77-9.64-6.26-12.65
					c-0.72-1.48-1.28-2.64-1.67-3.45c-0.18-0.38-0.32-0.68-0.42-0.9C73.51,284.29,73.47,284.18,73.48,284.18z"/>
			</g>
		</g>
		<g>
			<g>
				<path style="fill:#263238;" d="M103.34,310.1c0.07,0.02-0.22,1.26-0.68,3.26c-0.49,2.13-1.11,4.84-1.79,7.83
					c-0.69,3.06-1.34,5.83-1.87,7.82c-0.27,0.99-0.5,1.8-0.68,2.34c-0.18,0.55-0.3,0.85-0.33,0.84c-0.07-0.02,0.23-1.25,0.68-3.26
					c0.47-2.13,1.07-4.85,1.74-7.84c0.69-3.06,1.38-5.82,1.93-7.81c0.28-0.99,0.51-1.79,0.69-2.34
					C103.19,310.39,103.31,310.09,103.34,310.1z"/>
			</g>
		</g>
		<g>
			<g>
				<path style="fill:#263238;" d="M96.85,332.42c-0.04,0.13-5.72-1.34-12.69-3.27c-6.98-1.93-12.6-3.61-12.57-3.73
					c0.04-0.13,5.72,1.34,12.69,3.27C91.25,330.62,96.88,332.29,96.85,332.42z"/>
			</g>
		</g>
		<g>
			<g>
				<path style="fill:#263238;" d="M112.89,360.24c0,0.03-0.32,0.08-0.91,0.13c-0.59,0.06-1.43,0.11-2.48,0.17
					c-2.1,0.1-5.01,0.17-8.22,0.08c-3.21-0.09-6.11-0.32-8.2-0.54c-1.05-0.11-1.89-0.22-2.47-0.31c-0.58-0.09-0.9-0.15-0.9-0.19
					c0.01-0.07,1.3,0.02,3.4,0.16c2.09,0.14,4.99,0.31,8.18,0.4c3.2,0.09,6.09,0.08,8.19,0.06
					C111.59,360.18,112.89,360.17,112.89,360.24z"/>
			</g>
		</g>
		<g>
			<g>
				<path style="fill:#263238;" d="M123.21,341.34c0.06,0.03-0.48,1.11-1.39,2.82c-0.91,1.71-2.2,4.06-3.66,6.64
					c-1.45,2.58-2.79,4.9-3.78,6.57c-0.99,1.67-1.63,2.69-1.69,2.65s0.48-1.11,1.39-2.82c0.91-1.71,2.2-4.06,3.66-6.64
					c1.45-2.58,2.79-4.9,3.78-6.57C122.51,342.33,123.15,341.31,123.21,341.34z"/>
			</g>
		</g>
		<g>
			<g>
				<path style="fill:#263238;" d="M140.49,364.1c0.03,0.02-0.14,0.37-0.46,0.98c-0.38,0.7-0.85,1.57-1.4,2.59
					c-1.2,2.18-2.89,5.17-4.78,8.46c-1.89,3.29-3.63,6.25-4.91,8.39c-0.61,0.99-1.12,1.83-1.53,2.51c-0.37,0.59-0.59,0.91-0.62,0.89
					c-0.03-0.02,0.14-0.37,0.46-0.98c0.38-0.7,0.85-1.57,1.4-2.59c1.2-2.18,2.89-5.17,4.79-8.46c1.89-3.29,3.63-6.25,4.91-8.39
					c0.61-0.99,1.12-1.83,1.53-2.51C140.25,364.4,140.46,364.09,140.49,364.1z"/>
			</g>
		</g>
		<g>
			<g>
				<path style="fill:#263238;" d="M126.95,387.26c0,0.03-0.41,0.07-1.16,0.1c-0.75,0.03-1.82,0.05-3.16,0.06
					c-2.67,0.01-6.35-0.04-10.41-0.27c-4.06-0.22-7.73-0.57-10.38-0.88c-1.32-0.15-2.39-0.3-3.13-0.41
					c-0.74-0.11-1.14-0.19-1.14-0.22c0-0.03,0.42-0.02,1.16,0.04c0.84,0.07,1.89,0.16,3.14,0.26c2.65,0.23,6.32,0.52,10.37,0.74
					c4.05,0.23,7.73,0.34,10.39,0.41c1.25,0.04,2.31,0.06,3.15,0.09C126.54,387.2,126.95,387.23,126.95,387.26z"/>
			</g>
		</g>
	</g>
</g>
<g id="Character">
	<g>
		<g>
			<g>
				<path style="fill:#FBA745;" d="M452.12,263.89l-33.47,32.58l-30.84,58.86l-34.69,66.55l-42.61-19.97l-46.06-23.58l29.46-56.28
					l18.31-63.02c-12.94,8.58-36.95,20.27-65.7,14.18c-31.14-6.6-16.19-124.05-16.19-124.05l34.22-0.88l3.41,82.81L306.65,214
					l0.06,0.14c2.33-1.04,4.36-1.96,5.45-2.55c21.39-11.67,35.43-13.08,58.38-4.89h0l33.11,11
					C412.16,221.71,443.53,237.15,452.12,263.89"/>
			</g>
			<g>
				<g>
					<g>
						<path style="fill:#263238;" d="M334.98,204.24c0.02,0.05-0.78,0.44-2.08,1.37c-1.3,0.92-3.06,2.45-4.79,4.72
							c-1.74,2.26-3.4,5.25-4.73,8.79c-1.35,3.53-2.39,7.56-3.53,11.79c-2.29,8.42-4.36,16.04-5.88,21.63
							c-0.76,2.71-1.39,4.93-1.84,6.54c-0.22,0.73-0.39,1.31-0.53,1.77c-0.13,0.4-0.2,0.61-0.22,0.61c-0.02,0,0.02-0.22,0.12-0.64
							c0.11-0.46,0.25-1.06,0.43-1.8c0.41-1.62,0.98-3.85,1.68-6.58c1.48-5.6,3.5-13.23,5.74-21.67c1.13-4.22,2.19-8.27,3.58-11.83
							c1.36-3.56,3.08-6.58,4.88-8.84c1.8-2.27,3.62-3.78,4.97-4.66c0.67-0.45,1.22-0.75,1.6-0.94
							C334.77,204.32,334.97,204.23,334.98,204.24z"/>
					</g>
				</g>
				<g style="opacity:0.3;">
					<g>
						<path d="M322.51,220.83c-9.57,25.9-26.78,40.39-51.15,53.37c0,0,20.89-1.45,40.18-14.73"/>
					</g>
				</g>
			</g>
			<g style="opacity:0.3;">
				<g>
					<path d="M352.99,202.39c4.06,64.92,8.11,129.83,12.17,194.75l-12.03,24.74L352.99,202.39z"/>
				</g>
			</g>
			<g>
				<g>
					<path style="fill:#FAFAFA;" d="M390.68,269.74c-0.14,0.05-1.37-3.01-3.07-6.7c-1.7-3.69-3.23-6.61-3.1-6.69
						c0.06-0.03,0.52,0.65,1.19,1.81c0.67,1.16,1.53,2.8,2.38,4.65c0.85,1.86,1.54,3.57,1.99,4.83
						C390.53,268.92,390.75,269.72,390.68,269.74z"/>
				</g>
			</g>
			<g>
				<g>
					<path style="fill:#FAFAFA;" d="M417.92,256.05c0.08,0.12-2.83,2.07-6.5,4.36c-3.67,2.29-6.7,4.04-6.78,3.92
						c-0.08-0.12,2.83-2.07,6.5-4.36C414.81,257.68,417.85,255.93,417.92,256.05z"/>
				</g>
			</g>
			<g>
				<g>
					<path style="fill:#FAFAFA;" d="M406.1,246.19c-0.14,0.01-0.38-2.37-0.54-5.32c-0.15-2.95-0.16-5.34-0.02-5.35
						c0.14-0.01,0.38,2.37,0.54,5.32C406.24,243.79,406.24,246.19,406.1,246.19z"/>
				</g>
			</g>
			<g>
				<g>
					<path style="fill:#FAFAFA;" d="M433.29,244.29c-0.08,0.12-2.27-1.1-4.91-2.72c-2.64-1.63-4.71-3.05-4.63-3.17
						c0.08-0.12,2.27,1.1,4.91,2.72C431.3,242.75,433.37,244.17,433.29,244.29z"/>
				</g>
			</g>
			<g>
				<g>
					<path style="fill:#FAFAFA;" d="M391.72,298.23c-0.13-0.06,1.08-3.15,2.7-6.92c1.62-3.76,3.05-6.77,3.18-6.71
						c0.13,0.06-1.08,3.15-2.7,6.92C393.28,295.28,391.85,298.28,391.72,298.23z"/>
				</g>
			</g>
			<g>
				<g>
					<path style="fill:#FAFAFA;" d="M379.61,310.49c-0.13,0.06-1.22-1.86-2.44-4.3c-1.22-2.44-2.11-4.47-1.98-4.54
						c0.13-0.06,1.22,1.86,2.44,4.3C378.86,308.39,379.74,310.43,379.61,310.49z"/>
				</g>
			</g>
			<g>
				<g>
					<path style="fill:#FAFAFA;" d="M389.74,326.99c0.04,0.13-2.22,0.91-5.14,1.31c-2.91,0.42-5.3,0.29-5.3,0.16
						c0-0.15,2.36-0.26,5.23-0.67C387.4,327.39,389.7,326.84,389.74,326.99z"/>
				</g>
			</g>
			<g>
				<g>
					<path style="fill:#FAFAFA;" d="M402.73,308.94c-0.13-0.06,0.66-2.23,1.77-4.85c1.11-2.63,2.12-4.71,2.25-4.65
						c0.13,0.06-0.66,2.23-1.77,4.85C403.88,306.92,402.87,309,402.73,308.94z"/>
				</g>
			</g>
			<g>
				<g>
					<path style="fill:#FAFAFA;" d="M371.14,347.08c-0.13,0.08-1.6-1.95-3.62-4.27c-2.01-2.34-3.82-4.08-3.71-4.19
						c0.09-0.1,2.07,1.49,4.11,3.85C369.96,344.82,371.25,347.01,371.14,347.08z"/>
				</g>
			</g>
			<g>
				<g>
					<path style="fill:#FAFAFA;" d="M365.41,306.07c0.12,0.07-1.05,2.32-2.61,5.02c-1.57,2.7-2.94,4.84-3.07,4.76
						c-0.12-0.07,1.05-2.32,2.62-5.03C363.91,308.13,365.29,306,365.41,306.07z"/>
				</g>
			</g>
			<g>
				<g>
					<path style="fill:#FAFAFA;" d="M369.49,291.95c-0.04,0.14-2.54-0.39-5.59-1.17c-3.05-0.79-5.49-1.54-5.46-1.68
						c0.04-0.14,2.54,0.39,5.59,1.17C367.08,291.05,369.52,291.81,369.49,291.95z"/>
				</g>
			</g>
			<g>
				<g>
					<path style="fill:#FAFAFA;" d="M369.25,262.97c0.13-0.08,1.38,1.8,2.96,4.08c1.58,2.28,2.9,4.11,2.78,4.2
						c-0.11,0.09-1.62-1.61-3.21-3.9C370.19,265.05,369.13,263.04,369.25,262.97z"/>
				</g>
			</g>
			<g>
				<g>
					<path style="fill:#FAFAFA;" d="M360.04,261.55c0.09,0.11-1.45,1.61-3.46,3.35c-2.01,1.74-3.71,3.07-3.8,2.96
						c-0.09-0.11,1.45-1.61,3.46-3.35C358.24,262.77,359.94,261.45,360.04,261.55z"/>
				</g>
			</g>
			<g>
				<g>
					<path style="fill:#FAFAFA;" d="M367.31,246.38c-0.09,0.1-2.32-1.74-4.62-4.46c-2.31-2.71-3.78-5.2-3.66-5.27
						c0.13-0.08,1.77,2.26,4.06,4.94C365.37,244.27,367.42,246.27,367.31,246.38z"/>
				</g>
			</g>
			<g>
				<g>
					<path style="fill:#FAFAFA;" d="M392.89,241.71c0.04,0.14-2.47,1.03-5.61,1.98c-3.14,0.96-5.72,1.62-5.76,1.49
						c-0.04-0.14,2.47-1.03,5.61-1.98C390.27,242.24,392.84,241.57,392.89,241.71z"/>
				</g>
			</g>
			<g>
				<g>
					<path style="fill:#FAFAFA;" d="M356.88,217.35c-0.15-0.01-0.09-2.3-0.44-5.07c-0.34-2.78-0.97-4.98-0.82-5.03
						c0.12-0.05,0.99,2.12,1.34,4.96C357.32,215.05,357.01,217.37,356.88,217.35z"/>
				</g>
			</g>
			<g>
				<g>
					<path style="fill:#FAFAFA;" d="M334.12,289.86c0.04,0.07-0.88,0.7-2.36,1.74c-1.48,1.04-3.5,2.49-5.66,4.19
						c-2.16,1.7-4.06,3.31-5.42,4.5c-1.36,1.18-2.2,1.93-2.25,1.87c-0.05-0.05,0.7-0.88,2-2.14c1.3-1.26,3.17-2.93,5.35-4.64
						c2.18-1.7,4.24-3.12,5.78-4.08C333.1,290.33,334.09,289.81,334.12,289.86z"/>
				</g>
			</g>
			<g>
				<g>
					<path style="fill:#FAFAFA;" d="M332.81,281.84c-0.13,0.08-1.81-2.54-4.14-5.59c-2.32-3.05-4.39-5.37-4.28-5.48
						c0.05-0.05,0.64,0.47,1.51,1.39c0.87,0.92,2.02,2.24,3.19,3.77c1.17,1.54,2.13,2.99,2.79,4.08
						C332.52,281.1,332.87,281.8,332.81,281.84z"/>
				</g>
			</g>
			<g>
				<g>
					<path style="fill:#FAFAFA;" d="M338.9,250.23c0.07,0.13-2.07,1.44-4.78,2.93c-2.71,1.5-4.96,2.6-5.03,2.48
						c-0.07-0.13,2.07-1.44,4.78-2.93C336.58,251.21,338.84,250.1,338.9,250.23z"/>
				</g>
			</g>
			<g>
				<g>
					<path style="fill:#FAFAFA;" d="M332.87,236.43c-0.04,0.05-0.72-0.44-1.71-1.35c-1-0.9-2.31-2.24-3.61-3.83
						c-1.3-1.59-2.35-3.14-3.05-4.29c-0.69-1.16-1.05-1.91-0.99-1.95c0.14-0.08,1.85,2.76,4.44,5.91
						C330.52,234.08,332.98,236.31,332.87,236.43z"/>
				</g>
			</g>
			<g>
				<g>
					<path style="fill:#FAFAFA;" d="M343.25,236.14c-0.13-0.06,0.69-2.02,1.84-4.37c1.15-2.35,2.18-4.21,2.31-4.15
						c0.13,0.06-0.69,2.02-1.84,4.38C344.42,234.35,343.38,236.2,343.25,236.14z"/>
				</g>
			</g>
			<g>
				<g>
					<path style="fill:#FAFAFA;" d="M340.48,220.35c-0.16-0.01,0.02-3.11-0.58-6.86c-0.57-3.75-1.69-6.65-1.54-6.71
						c0.06-0.02,0.42,0.67,0.85,1.85c0.43,1.18,0.91,2.87,1.21,4.77c0.3,1.9,0.36,3.65,0.31,4.91
						C340.68,219.58,340.55,220.35,340.48,220.35z"/>
				</g>
			</g>
			<g>
				<g>
					<path style="fill:#FAFAFA;" d="M343.04,300.04c-0.08-0.01-0.02-1.12,0.04-2.93c0.06-1.8,0.11-4.29,0.05-7.04
						c-0.07-2.75-0.25-5.23-0.4-7.03c-0.15-1.8-0.26-2.91-0.18-2.92c0.07-0.01,0.3,1.09,0.55,2.88c0.25,1.79,0.48,4.29,0.55,7.06
						c0.07,2.77-0.04,5.27-0.2,7.07C343.29,298.94,343.11,300.05,343.04,300.04z"/>
				</g>
			</g>
			<g>
				<g>
					<path style="fill:#FAFAFA;" d="M341.52,324.89c-0.12,0.11-1.78-1.89-4.44-3.57c-2.65-1.71-5.16-2.36-5.11-2.52
						c0.01-0.13,2.65,0.32,5.39,2.08C340.11,322.61,341.63,324.82,341.52,324.89z"/>
				</g>
			</g>
			<g>
				<g>
					<path style="fill:#FAFAFA;" d="M354.04,340.29c0.07,0.13-3.01,1.85-6.87,3.85c-3.86,2-7.04,3.51-7.11,3.38
						c-0.07-0.13,3.01-1.85,6.87-3.85C350.79,341.68,353.97,340.16,354.04,340.29z"/>
				</g>
			</g>
			<g>
				<g>
					<path style="fill:#FAFAFA;" d="M318.82,347.12c-0.12,0.09-2.38-2.8-5.06-6.44c-2.68-3.64-4.75-6.66-4.64-6.74
						c0.12-0.09,2.38,2.8,5.06,6.44C316.86,344.02,318.93,347.04,318.82,347.12z"/>
				</g>
			</g>
			<g>
				<g>
					<path style="fill:#FAFAFA;" d="M307.95,318.68c-0.07,0-0.16-0.78-0.22-2.05c-0.06-1.27-0.07-3.03,0.02-4.97
						c0.09-1.94,0.27-3.69,0.44-4.95c0.17-1.26,0.34-2.03,0.41-2.02c0.15,0.02-0.16,3.14-0.33,7
						C308.08,315.54,308.1,318.68,307.95,318.68z"/>
				</g>
			</g>
			<g>
				<g>
					<path style="fill:#FAFAFA;" d="M296.22,367.23c-0.09,0.11-2.71-1.91-5.84-4.52c-3.14-2.61-5.6-4.81-5.51-4.92
						c0.09-0.11,2.71,1.91,5.84,4.52C293.84,364.91,296.31,367.12,296.22,367.23z"/>
				</g>
			</g>
			<g>
				<g>
					<path style="fill:#FAFAFA;" d="M303.26,365.74c-0.14,0-0.34-3.51-0.44-7.84c-0.1-4.33-0.07-7.85,0.08-7.85
						c0.14,0,0.34,3.5,0.44,7.84C303.44,362.22,303.4,365.73,303.26,365.74z"/>
				</g>
			</g>
			<g>
				<g>
					<path style="fill:#FAFAFA;" d="M317.16,395.85c-0.03,0.08-1.25-0.42-3.26-1.06c-2.01-0.64-4.83-1.38-8.01-1.82
						c-3.19-0.43-6.1-0.48-8.21-0.39c-2.11,0.08-3.41,0.23-3.42,0.15c-0.01-0.04,0.32-0.11,0.9-0.21c0.58-0.11,1.44-0.21,2.5-0.3
						c2.12-0.18,5.08-0.19,8.3,0.25c3.22,0.44,6.07,1.25,8.06,1.99c1,0.37,1.79,0.7,2.33,0.96
						C316.89,395.66,317.18,395.82,317.16,395.85z"/>
				</g>
			</g>
			<g>
				<g>
					<path style="fill:#FAFAFA;" d="M328.61,401.35c0.04-0.05,0.92,0.52,2.25,1.56c1.33,1.04,3.11,2.56,4.94,4.39
						c1.83,1.83,3.35,3.61,4.39,4.94c1.04,1.33,1.61,2.21,1.56,2.25c-0.06,0.05-0.74-0.75-1.84-2.02c-1.11-1.27-2.66-2.99-4.48-4.81
						c-1.81-1.81-3.54-3.37-4.81-4.47C329.36,402.08,328.57,401.41,328.61,401.35z"/>
				</g>
			</g>
			<g>
				<g>
					<path style="fill:#FAFAFA;" d="M333.6,349.25c-0.13,0.05-1.29-2.56-2.59-5.83c-1.3-3.27-2.24-5.97-2.11-6.02
						c0.13-0.05,1.29,2.56,2.59,5.83C332.79,346.5,333.73,349.19,333.6,349.25z"/>
				</g>
			</g>
			<g>
				<g>
					<path style="fill:#FAFAFA;" d="M293.43,247.9c0.05,0.05-0.51,0.71-1.53,1.67c-1.02,0.96-2.51,2.2-4.29,3.39
						c-1.78,1.18-3.5,2.09-4.77,2.65c-1.28,0.57-2.1,0.83-2.13,0.77c-0.06-0.15,3.1-1.5,6.61-3.86
						C290.85,250.19,293.32,247.78,293.43,247.9z"/>
				</g>
			</g>
			<g>
				<g>
					<path style="fill:#FAFAFA;" d="M295.99,237.3c-0.14-0.01-0.17-2.01-0.05-4.46c0.12-2.46,0.33-4.45,0.47-4.44
						c0.14,0.01,0.17,2,0.05,4.46C296.34,235.32,296.13,237.31,295.99,237.3z"/>
				</g>
			</g>
			<g>
				<g>
					<path style="fill:#FAFAFA;" d="M276.05,246.2c-0.06,0.13-2.39-0.81-5.19-2.09c-2.81-1.29-5.04-2.44-4.98-2.57
						c0.06-0.13,2.39,0.81,5.2,2.09C273.88,244.92,276.11,246.07,276.05,246.2z"/>
				</g>
			</g>
			<g>
				<g>
					<path style="fill:#FAFAFA;" d="M311.64,232.64c-0.14-0.01-0.07-2.49,0.16-5.53c0.23-3.04,0.54-5.5,0.68-5.49
						c0.14,0.01,0.07,2.49-0.16,5.53C312.09,230.19,311.79,232.65,311.64,232.64z"/>
				</g>
			</g>
			<g>
				<g>
					<path style="fill:#FAFAFA;" d="M265.45,267.4c-0.04,0.13-2.74-0.7-5.71-2.5c-2.98-1.78-4.98-3.77-4.89-3.86
						c0.1-0.12,2.23,1.67,5.16,3.42C262.93,266.22,265.51,267.25,265.45,267.4z"/>
				</g>
			</g>
			<g>
				<g>
					<path style="fill:#FAFAFA;" d="M250.62,247.05c0.11,0.1-1.8,2.36-4.26,5.05c-2.46,2.69-4.54,4.8-4.64,4.7
						c-0.11-0.1,1.8-2.36,4.26-5.05C248.43,249.06,250.51,246.95,250.62,247.05z"/>
				</g>
			</g>
			<g>
				<g>
					<path style="fill:#FAFAFA;" d="M249.35,228.82c-0.05,0.12-2.29-0.82-4.66-2.61c-2.38-1.78-3.92-3.66-3.82-3.74
						c0.11-0.11,1.79,1.58,4.13,3.33C247.33,227.55,249.42,228.69,249.35,228.82z"/>
				</g>
			</g>
			<g>
				<g>
					<path style="fill:#FAFAFA;" d="M240.02,232.64c0.11,0.09-0.85,1.4-2.13,2.92c-1.29,1.52-2.42,2.68-2.53,2.59
						c-0.11-0.09,0.84-1.4,2.13-2.92C238.78,233.7,239.91,232.55,240.02,232.64z"/>
				</g>
			</g>
			<g>
				<g>
					<path style="fill:#FAFAFA;" d="M260.03,198.8c0.11,0.09-1.64,2.41-3.91,5.18c-2.27,2.77-4.2,4.95-4.31,4.85
						c-0.11-0.09,1.64-2.41,3.91-5.18C257.99,200.88,259.92,198.71,260.03,198.8z"/>
				</g>
			</g>
			<g>
				<g>
					<path style="fill:#FAFAFA;" d="M242.87,202.65c-0.11,0.09-2.01-1.9-4.25-4.46c-2.24-2.56-3.97-4.71-3.86-4.81
						c0.11-0.09,2.01,1.9,4.25,4.47C241.25,200.4,242.97,202.55,242.87,202.65z"/>
				</g>
			</g>
			<g>
				<g>
					<path style="fill:#FAFAFA;" d="M251.45,180.93c-0.13,0.07-1.46-2.06-2.98-4.75c-1.52-2.69-2.65-4.93-2.53-5
						c0.13-0.07,1.46,2.05,2.98,4.75C250.44,178.62,251.57,180.86,251.45,180.93z"/>
				</g>
			</g>
			<g>
				<g>
					<path style="fill:#FAFAFA;" d="M251.02,166.92c-0.13-0.1,1.37-2,2.56-4.69c1.21-2.68,1.63-5.06,1.79-5.03
						c0.13,0-0.06,2.48-1.31,5.25C252.83,165.22,251.11,167.01,251.02,166.92z"/>
				</g>
			</g>
			<g>
				<g>
					<path style="fill:#FAFAFA;" d="M234.51,166.09c-0.12,0.03-0.26-2.91,1.23-6.12c0.73-1.59,1.67-2.88,2.44-3.72
						c0.77-0.84,1.35-1.26,1.39-1.21c0.12,0.11-1.96,2.04-3.36,5.15C234.77,163.28,234.67,166.11,234.51,166.09z"/>
				</g>
			</g>
		</g>
		<g>
			<g>
				<path style="fill:#263238;" d="M378.69,142.3c-0.32-4.16-0.65-8.34-0.15-12.48c0.5-4.14,1.88-8.27,4.6-11.43
					c2.72-3.16,6.93-5.19,11.06-4.65c2.55,0.33,4.97,1.59,7.55,1.52c2.98-0.09,5.57-1.93,8.28-3.16c4.23-1.93,9.1-2.44,13.64-1.42
					c2.38,0.53,4.73,1.52,6.45,3.26c1.72,1.74,2.7,4.32,2.09,6.69c3.01,0,6.05,0.01,8.95,0.79c2.9,0.78,5.69,2.44,7.19,5.04
					s1.39,6.23-0.75,8.35c2.78-0.56,5.69,1.58,6.36,4.33c0.66,2.76-0.71,5.77-3,7.44c-2.29,1.67-6.56,2.41-9.35,1.88
					c-2.79-0.53-5.97-1.31-8.23-3.02"/>
			</g>
			<g>
				<g>
					<g>
						<g>
							<g>
								<g>
									<g>
										<g>
											<g>
												<g>
													<path style="fill:#B78876;" d="M376.52,236.5L376.52,236.5c11.49,2.95,23.21-3.92,26.23-15.38
														c1.69-6.4,3.07-11.77,3.07-11.77s16.71,2.86,22.24-12.95c5.53-15.82,15.02-53.21,15.02-53.21l0,0
														c-15.73-14.07-37.85-18.53-57.81-11.65l-2.96,1.02l-21.23,77.33C357.88,221.51,364.84,233.5,376.52,236.5z"/>
												</g>
											</g>
										</g>
									</g>
								</g>
								<g>
									<g>
										<g>
											<g>
												<g>
													<path style="fill:#AA6550;" d="M405.92,209.12c0,0-10.31-2.55-18.73-12.83c0,0,1.06,13.07,17.39,16.96L405.92,209.12z"
														/>
												</g>
											</g>
										</g>
									</g>
								</g>
							</g>
						</g>
					</g>
					<g>
						<g>
							<g>
								<g>
									<g>
										<g>
											<path style="fill:#B78876;" d="M378.74,149.66c-0.23-0.21-9.83-6.89-13.13,4.08c-3.3,10.97,8.4,12.02,8.51,11.71
												C374.24,165.15,378.74,149.66,378.74,149.66z"/>
										</g>
									</g>
								</g>
							</g>
						</g>
						<g>
							<g>
								<g>
									<g>
										<g>
											<g>
												<path style="fill:#AA6550;" d="M372.03,160.29c-0.04-0.05-0.23,0.08-0.6,0.13c-0.36,0.05-0.93-0.01-1.44-0.4
													c-1.03-0.77-1.45-2.91-0.91-4.9c0.27-1.01,0.77-1.9,1.36-2.58c0.58-0.7,1.26-1.11,1.88-1.04
													c0.62,0.04,0.93,0.51,0.97,0.86c0.05,0.35-0.08,0.55-0.03,0.59c0.02,0.04,0.29-0.11,0.34-0.59
													c0.02-0.23-0.03-0.53-0.23-0.82c-0.2-0.29-0.55-0.52-0.97-0.6c-0.86-0.2-1.86,0.35-2.51,1.1
													c-0.7,0.74-1.28,1.73-1.58,2.86c-0.59,2.23-0.08,4.64,1.36,5.58c0.71,0.43,1.43,0.39,1.84,0.23
													C371.93,160.55,372.06,160.33,372.03,160.29z"/>
											</g>
										</g>
									</g>
								</g>
							</g>
						</g>
					</g>
					<g>
						<g>
							<g>
								<g>
									<g>
										<g>
											<g>
												<g>
													<g>
														<g>
															<g>
																<path style="fill:#263238;" d="M429.61,166.04c-0.36,1.21-1.68,1.91-2.96,1.55c-1.27-0.35-2.01-1.62-1.65-2.83
																	c0.36-1.21,1.68-1.91,2.95-1.56C429.23,163.57,429.97,164.83,429.61,166.04z"/>
															</g>
														</g>
													</g>
												</g>
											</g>
											<g>
												<g>
													<g>
														<g>
															<g>
																<g>
																	<path style="fill:#263238;" d="M432.57,164.51c-0.38,0.2-1.67-1.65-4.11-2.46c-2.43-0.85-4.64-0.19-4.81-0.58
																		c-0.09-0.18,0.38-0.61,1.35-0.92c0.96-0.31,2.45-0.42,3.97,0.1c1.52,0.52,2.61,1.51,3.15,2.33
																		C432.68,163.81,432.75,164.43,432.57,164.51z"/>
																</g>
															</g>
														</g>
													</g>
												</g>
											</g>
										</g>
										<g>
											<g>
												<g>
													<g>
														<g>
															<g>
																<path style="fill:#263238;" d="M405.61,157.99c-0.36,1.21-1.68,1.91-2.96,1.55c-1.27-0.35-2.01-1.62-1.65-2.83
																	c0.36-1.21,1.68-1.91,2.95-1.56C405.23,155.51,405.97,156.78,405.61,157.99z"/>
															</g>
														</g>
													</g>
												</g>
											</g>
											<g>
												<g>
													<g>
														<g>
															<g>
																<g>
																	<path style="fill:#263238;" d="M408.43,156.91c-0.38,0.2-1.67-1.65-4.12-2.46c-2.43-0.85-4.64-0.19-4.81-0.58
																		c-0.09-0.18,0.38-0.61,1.35-0.92c0.96-0.31,2.45-0.42,3.97,0.1c1.52,0.52,2.61,1.51,3.15,2.33
																		C408.53,156.21,408.61,156.83,408.43,156.91z"/>
																</g>
															</g>
														</g>
													</g>
												</g>
											</g>
										</g>
										<g>
											<g>
												<g>
													<g>
														<g>
															<g>
																<path style="fill:#263238;" d="M411.21,177.99c0.04-0.14,1.64,0.1,4.2,0.62c0.64,0.14,1.28,0.22,1.52-0.17
																	c0.3-0.4,0.26-1.16,0.2-1.99c-0.08-1.7-0.16-3.49-0.25-5.36c-0.29-7.62-0.28-13.79,0.03-13.8
																	c0.31-0.01,0.79,6.16,1.08,13.77c0.06,1.87,0.11,3.66,0.16,5.37c0,0.79,0.13,1.73-0.5,2.55
																	c-0.32,0.41-0.9,0.59-1.33,0.57c-0.44-0.01-0.79-0.12-1.11-0.21C412.71,178.63,411.17,178.13,411.21,177.99z"/>
															</g>
														</g>
													</g>
												</g>
											</g>
										</g>
										<g>
											<g>
												<g>
													<g>
														<g>
															<g>
																<path style="fill:#263238;" d="M403.46,177.27c0.4,0.11-0.48,2.76,1.16,5.4c1.63,2.65,4.55,3.3,4.45,3.67
																	c-0.02,0.18-0.8,0.3-2-0.06c-1.18-0.35-2.76-1.3-3.77-2.92c-1-1.62-1.07-3.36-0.8-4.47
																	C402.77,177.75,403.28,177.19,403.46,177.27z"/>
															</g>
														</g>
													</g>
												</g>
											</g>
										</g>
									</g>
								</g>
							</g>
							<g>
								<g>
									<g>
										<g>
											<g>
												<path style="fill:#263238;" d="M433.11,159.92c-0.62,0.41-2.1-0.73-4.12-1.44c-1.99-0.78-3.86-0.88-4.06-1.59
													c-0.08-0.34,0.38-0.8,1.3-1.08c0.91-0.28,2.29-0.29,3.66,0.22c1.37,0.51,2.41,1.42,2.92,2.22
													C433.35,159.06,433.39,159.71,433.11,159.92z"/>
											</g>
										</g>
									</g>
								</g>
							</g>
						</g>
					</g>
				</g>
			</g>
			<g>
				<g>
					<path style="fill:#263238;" d="M408.21,147.03c-0.37,0.21-0.96-0.12-1.72-0.56c-0.76-0.44-1.73-0.98-2.88-1.41
						c-1.15-0.42-2.24-0.65-3.1-0.81c-0.86-0.17-1.51-0.3-1.66-0.7c-0.14-0.37,0.33-0.99,1.41-1.4c1.07-0.42,2.74-0.5,4.4,0.11
						c1.65,0.62,2.86,1.78,3.4,2.79C408.61,146.06,408.56,146.84,408.21,147.03z"/>
				</g>
			</g>
			<g>
				<path style="fill:#263238;" d="M442.23,148.32c0,0-11.83,0.01-22.77-8.95c-7.18-5.88-16.17-10-18.62-8.84
					c-2.45,1.16-4.78,9.4-13.36,10.02c0,0-3.06,16.05-9.28,14.04s3.35-25.77,3.35-25.77l17.25-4.06l17.67,0.64l15.88,3.6l13.73,7.89
					L442.23,148.32z"/>
			</g>
		</g>
		<g>
			<g>
				<g>
					<rect x="128.6" y="85.37" style="fill:#FAFAFA;" width="224.53" height="349.64"/>
				</g>
				<g>
					<g>
						<path style="fill:#263238;" d="M353.13,435.01c0-2.15-0.1-144.15-0.24-349.64l0.24,0.24c-68.92,0.01-144.82,0.01-224.5,0.02
							h-0.03l0.26-0.26c-0.02,132.27-0.04,254.08-0.05,349.64l-0.21-0.21C265.75,434.93,351.46,435.01,353.13,435.01
							c-1.68,0-87.39,0.08-224.53,0.21l-0.21,0v-0.21c-0.01-95.55-0.03-217.36-0.05-349.64v-0.26h0.26h0.03
							c79.68,0.01,155.58,0.01,224.5,0.02h0.24l0,0.24C353.23,290.86,353.13,432.86,353.13,435.01z"/>
					</g>
				</g>
			</g>
			<g>
				<g>
					<g>
						<g>
							<g>
								<path style="fill:#FBA745;" d="M188.78,163.23h-28.73c-1.99,0-3.59-1.61-3.59-3.59v-39.76c0-1.99,1.61-3.59,3.59-3.59h18.22
									l14.1,14.54v28.82C192.37,161.62,190.76,163.23,188.78,163.23z"/>
							</g>
						</g>
					</g>
					<g>
						<g>
							<g>
								<path style="fill:#E8505B;" d="M178.27,116.28v11.19c0,1.85,1.5,3.34,3.34,3.34l10.76,0L178.27,116.28z"/>
							</g>
						</g>
					</g>
					<g style="opacity:0.2;">
						<g>
							<g>
								<path d="M178.42,128.45c0,0-0.14,2.71,2.95,3.61c0.12,0.03,0.24,0.06,0.35,0.08c1.4,0.25,10.65,1.9,10.65,1.68
									c0-0.23,0-3.01,0-3.01h-10.76C181.61,130.81,178.93,130.72,178.42,128.45z"/>
							</g>
						</g>
					</g>
					<g style="opacity:0.3;">
						<g>
							<g>
								<path style="fill:#FFFFFF;" d="M178.27,116.28v11.19c0,1.85,1.5,3.34,3.34,3.34l10.76,0L178.27,116.28z"/>
							</g>
						</g>
					</g>
				</g>
				<g>
					<g>
						<path style="fill:#FAFAFA;" d="M175.86,127.01c0,0.14-2.98,0.26-6.65,0.26c-3.67,0-6.65-0.12-6.65-0.26s2.97-0.26,6.65-0.26
							C172.88,126.75,175.86,126.87,175.86,127.01z"/>
					</g>
				</g>
				<g>
					<g>
						<path style="fill:#FAFAFA;" d="M184.44,133.34c0,0.14-4.9,0.26-10.94,0.26c-6.04,0-10.94-0.12-10.94-0.26s4.9-0.26,10.94-0.26
							C179.55,133.08,184.44,133.19,184.44,133.34z"/>
					</g>
				</g>
				<g>
					<g>
						<path style="fill:#FAFAFA;" d="M186.41,138.62c0,0.14-5.34,0.26-11.92,0.26c-6.59,0-11.92-0.12-11.92-0.26
							c0-0.14,5.34-0.26,11.92-0.26C181.08,138.36,186.41,138.48,186.41,138.62z"/>
					</g>
				</g>
				<g>
					<g>
						<path style="fill:#FAFAFA;" d="M186.41,143.61c0,0.14-5.34,0.26-11.92,0.26c-6.59,0-11.92-0.12-11.92-0.26
							c0-0.14,5.34-0.26,11.92-0.26C181.08,143.35,186.41,143.46,186.41,143.61z"/>
					</g>
				</g>
				<g>
					<g>
						<path style="fill:#FAFAFA;" d="M186.41,148.59c0,0.14-5.34,0.26-11.92,0.26c-6.59,0-11.92-0.12-11.92-0.26
							c0-0.14,5.34-0.26,11.92-0.26C181.08,148.33,186.41,148.45,186.41,148.59z"/>
					</g>
				</g>
				<g>
					<g>
						<path style="fill:#FAFAFA;" d="M186.41,153.58c0,0.14-5.34,0.26-11.92,0.26c-6.59,0-11.92-0.12-11.92-0.26
							s5.34-0.26,11.92-0.26C181.08,153.32,186.41,153.43,186.41,153.58z"/>
					</g>
				</g>
			</g>
			<g>
				<path style="fill:#263238;" d="M202.42,136.71h-3.03v-1.1h7.31v1.1h-3.03v7.74h-1.25V136.71z"/>
				<path style="fill:#263238;" d="M214.49,143.35v1.1h-6.41v-8.83h6.23v1.1h-4.97v2.71h4.43v1.07h-4.43v2.85H214.49z"/>
				<path style="fill:#263238;" d="M222.44,144.45l-1.91-2.71c-0.18,0.01-0.37,0.02-0.56,0.02h-2.18v2.69h-1.26v-8.83h3.44
					c2.3,0,3.68,1.16,3.68,3.08c0,1.36-0.71,2.35-1.94,2.79l2.09,2.97H222.44z M222.4,138.69c0-1.26-0.85-1.98-2.46-1.98h-2.15v3.98
					h2.15C221.56,140.69,222.4,139.95,222.4,138.69z"/>
				<path style="fill:#263238;" d="M233.9,144.45l-0.01-6.44l-3.19,5.36h-0.58l-3.19-5.33v6.4h-1.21v-8.83h1.03l3.68,6.21l3.63-6.21
					h1.03l0.01,8.83H233.9z"/>
				<path style="fill:#263238;" d="M236.96,143.44l0.47-0.98c0.66,0.59,1.78,1.02,2.91,1.02c1.53,0,2.18-0.59,2.18-1.36
					c0-2.16-5.35-0.79-5.35-4.08c0-1.36,1.06-2.52,3.38-2.52c1.03,0,2.11,0.28,2.84,0.78l-0.42,1.01c-0.77-0.49-1.64-0.72-2.42-0.72
					c-1.5,0-2.14,0.63-2.14,1.4c0,2.16,5.35,0.81,5.35,4.05c0,1.35-1.08,2.51-3.42,2.51C238.99,144.55,237.66,144.09,236.96,143.44z
					"/>
				<path style="fill:#263238;" d="M248.28,140.03c0-2.59,1.99-4.52,4.71-4.52c2.69,0,4.68,1.92,4.68,4.52
					c0,2.6-1.99,4.52-4.68,4.52C250.27,144.55,248.28,142.62,248.28,140.03z M256.4,140.03c0-1.96-1.46-3.39-3.42-3.39
					c-1.98,0-3.45,1.44-3.45,3.39c0,1.96,1.46,3.39,3.45,3.39C254.94,143.43,256.4,141.99,256.4,140.03z"/>
				<path style="fill:#263238;" d="M260.86,136.71v3.08h4.43v1.08h-4.43v3.57h-1.26v-8.83h6.23v1.1H260.86z"/>
				<path style="fill:#263238;" d="M270.2,143.44l0.47-0.98c0.66,0.59,1.78,1.02,2.92,1.02c1.53,0,2.18-0.59,2.18-1.36
					c0-2.16-5.35-0.79-5.35-4.08c0-1.36,1.06-2.52,3.38-2.52c1.03,0,2.11,0.28,2.84,0.78l-0.42,1.01c-0.77-0.49-1.64-0.72-2.42-0.72
					c-1.5,0-2.15,0.63-2.15,1.4c0,2.16,5.35,0.81,5.35,4.05c0,1.35-1.09,2.51-3.42,2.51C272.23,144.55,270.91,144.09,270.2,143.44z"
					/>
				<path style="fill:#263238;" d="M285.26,143.35v1.1h-6.41v-8.83h6.23v1.1h-4.97v2.71h4.43v1.07h-4.43v2.85H285.26z"/>
				<path style="fill:#263238;" d="M293.21,144.45l-1.91-2.71c-0.18,0.01-0.37,0.02-0.56,0.02h-2.18v2.69h-1.26v-8.83h3.44
					c2.3,0,3.69,1.16,3.69,3.08c0,1.36-0.71,2.35-1.94,2.79l2.09,2.97H293.21z M293.17,138.69c0-1.26-0.84-1.98-2.46-1.98h-2.15
					v3.98h2.15C292.33,140.69,293.17,139.95,293.17,138.69z"/>
				<path style="fill:#263238;" d="M304.15,135.61l-3.87,8.83h-1.25l-3.89-8.83h1.36l3.18,7.26l3.21-7.26H304.15z"/>
				<path style="fill:#263238;" d="M305.28,135.61h1.26v8.83h-1.26V135.61z"/>
				<path style="fill:#263238;" d="M308.47,140.03c0-2.61,1.99-4.52,4.68-4.52c1.36,0,2.55,0.47,3.36,1.38l-0.82,0.79
					c-0.68-0.72-1.51-1.05-2.49-1.05c-1.99,0-3.47,1.44-3.47,3.39c0,1.96,1.48,3.39,3.47,3.39c0.97,0,1.8-0.34,2.49-1.06l0.82,0.79
					c-0.81,0.91-1.99,1.39-3.37,1.39C310.47,144.55,308.47,142.64,308.47,140.03z"/>
				<path style="fill:#263238;" d="M324.73,143.35v1.1h-6.41v-8.83h6.23v1.1h-4.97v2.71h4.43v1.07h-4.43v2.85H324.73z"/>
			</g>
			<g>
				<path style="fill:#E0E0E0;" d="M210.35,153.52l-2.35,7.04h-1.06l-1.92-5.62l-1.92,5.62h-1.08l-2.35-7.04h1.04l1.9,5.72
					l1.98-5.72h0.93l1.94,5.75l1.94-5.75H210.35z"/>
				<path style="fill:#E0E0E0;" d="M215.83,158.22h-4.32c0.12,0.94,0.88,1.56,1.93,1.56c0.62,0,1.15-0.21,1.54-0.64l0.53,0.62
					c-0.48,0.56-1.22,0.86-2.1,0.86c-1.72,0-2.87-1.14-2.87-2.72c0-1.58,1.14-2.72,2.67-2.72c1.54,0,2.63,1.11,2.63,2.75
					C215.85,158.01,215.84,158.13,215.83,158.22z M211.5,157.53h3.42c-0.1-0.9-0.77-1.53-1.71-1.53
					C212.29,156,211.61,156.62,211.5,157.53z"/>
				<path style="fill:#E0E0E0;" d="M217.19,153.1h0.97v7.46h-0.97V153.1z"/>
				<path style="fill:#E0E0E0;" d="M219.5,157.9c0-1.59,1.18-2.72,2.82-2.72c0.96,0,1.75,0.39,2.17,1.14l-0.73,0.47
					c-0.34-0.52-0.86-0.76-1.45-0.76c-1.05,0-1.83,0.73-1.83,1.87c0,1.16,0.78,1.88,1.83,1.88c0.58,0,1.11-0.24,1.45-0.76l0.73,0.46
					c-0.42,0.74-1.22,1.15-2.17,1.15C220.68,160.62,219.5,159.49,219.5,157.9z"/>
				<path style="fill:#E0E0E0;" d="M225.16,157.9c0-1.59,1.18-2.72,2.78-2.72c1.6,0,2.77,1.13,2.77,2.72c0,1.59-1.17,2.72-2.77,2.72
					C226.34,160.62,225.16,159.49,225.16,157.9z M229.73,157.9c0-1.14-0.76-1.87-1.79-1.87c-1.03,0-1.8,0.73-1.8,1.87
					c0,1.14,0.77,1.88,1.8,1.88C228.96,159.78,229.73,159.04,229.73,157.9z"/>
				<path style="fill:#E0E0E0;" d="M240.89,157.5v3.07h-0.97v-2.96c0-1.05-0.5-1.56-1.38-1.56c-0.97,0-1.6,0.61-1.6,1.77v2.75h-0.97
					v-2.96c0-1.05-0.5-1.56-1.38-1.56c-0.97,0-1.6,0.61-1.6,1.77v2.75h-0.97v-5.33h0.93v0.79c0.38-0.54,1.04-0.84,1.84-0.84
					c0.81,0,1.5,0.32,1.85,0.99c0.4-0.6,1.15-0.99,2.05-0.99C240.01,155.18,240.89,155.93,240.89,157.5z"/>
				<path style="fill:#E0E0E0;" d="M247.5,158.22h-4.32c0.12,0.94,0.88,1.56,1.93,1.56c0.62,0,1.15-0.21,1.54-0.64l0.53,0.62
					c-0.48,0.56-1.22,0.86-2.1,0.86c-1.72,0-2.87-1.14-2.87-2.72c0-1.58,1.14-2.72,2.67-2.72c1.54,0,2.63,1.11,2.63,2.75
					C247.52,158.01,247.51,158.13,247.5,158.22z M243.18,157.53h3.42c-0.1-0.9-0.77-1.53-1.71-1.53
					C243.96,156,243.28,156.62,243.18,157.53z"/>
				<path style="fill:#E0E0E0;" d="M248.64,159.98c0-0.36,0.28-0.64,0.66-0.64c0.37,0,0.64,0.28,0.64,0.64
					c0,0.35-0.27,0.64-0.64,0.64C248.92,160.62,248.64,160.33,248.64,159.98z M248.73,153.52h1.14l-0.19,4.82h-0.76L248.73,153.52z"
					/>
			</g>
			<g>
				<path style="fill:#E0E0E0;" d="M338.72,400.46h-1.18c-0.73,0-1.33-0.6-1.33-1.33V108.22c0-0.73,0.6-1.33,1.33-1.33h1.18
					c0.73,0,1.33,0.6,1.33,1.33v290.91C340.05,399.86,339.46,400.46,338.72,400.46z"/>
			</g>
			<g>
				<path style="fill:#FBA745;" d="M338.72,258.24h-1.18c-0.73,0-1.33-0.6-1.33-1.33V108.22c0-0.73,0.6-1.33,1.33-1.33h1.18
					c0.73,0,1.33,0.6,1.33,1.33v148.69C340.05,257.65,339.46,258.24,338.72,258.24z"/>
			</g>
			<g>
				<path style="fill:#263238;" d="M163.75,194.52v7.04h-1v-6.16h-1.59v-0.88H163.75z"/>
				<path style="fill:#263238;" d="M165.27,200.93c0-0.4,0.31-0.68,0.68-0.68c0.36,0,0.66,0.28,0.66,0.68c0,0.4-0.3,0.69-0.66,0.69
					C165.58,201.62,165.27,201.33,165.27,200.93z"/>
				<path style="fill:#263238;" d="M172.25,195.4h-2.41v-0.88h5.82v0.88h-2.41v6.16h-1V195.4z"/>
				<path style="fill:#263238;" d="M180.86,199.22h-4.32c0.12,0.94,0.88,1.56,1.93,1.56c0.62,0,1.15-0.21,1.54-0.64l0.53,0.62
					c-0.48,0.56-1.22,0.86-2.1,0.86c-1.72,0-2.87-1.14-2.87-2.73c0-1.58,1.14-2.72,2.67-2.72c1.54,0,2.63,1.11,2.63,2.75
					C180.88,199.01,180.87,199.13,180.86,199.22z M176.53,198.52h3.42c-0.1-0.9-0.77-1.53-1.71-1.53
					C177.32,196.99,176.63,197.62,176.53,198.52z"/>
				<path style="fill:#263238;" d="M185.08,196.18v0.94c-0.08-0.01-0.15-0.01-0.22-0.01c-1.04,0-1.68,0.63-1.68,1.8v2.65h-0.97
					v-5.33h0.93v0.89C183.48,196.5,184.15,196.18,185.08,196.18z"/>
				<path style="fill:#263238;" d="M195.12,198.49v3.07h-0.97v-2.96c0-1.05-0.5-1.56-1.38-1.56c-0.97,0-1.6,0.61-1.6,1.77v2.75
					h-0.97v-2.96c0-1.05-0.5-1.56-1.38-1.56c-0.97,0-1.6,0.61-1.6,1.77v2.75h-0.97v-5.33h0.93v0.79c0.38-0.54,1.04-0.84,1.84-0.84
					c0.81,0,1.5,0.32,1.85,0.99c0.4-0.6,1.15-0.99,2.05-0.99C194.23,196.18,195.12,196.92,195.12,198.49z"/>
			</g>
			<g>
				<path style="fill:#263238;" d="M166.51,309.92v0.88h-5.06v-0.68l2.87-2.77c0.74-0.72,0.88-1.17,0.88-1.61
					c0-0.72-0.51-1.17-1.5-1.17c-0.75,0-1.37,0.24-1.8,0.76l-0.68-0.59c0.54-0.67,1.48-1.07,2.57-1.07c1.47,0,2.41,0.75,2.41,1.96
					c0,0.68-0.2,1.3-1.16,2.21l-2.15,2.07H166.51z"/>
				<path style="fill:#263238;" d="M167.42,310.16c0-0.4,0.31-0.68,0.68-0.68c0.36,0,0.66,0.28,0.66,0.68c0,0.4-0.3,0.69-0.66,0.69
					C167.73,310.85,167.42,310.56,167.42,310.16z"/>
				<path style="fill:#263238;" d="M173,303.75h1.01v6.16h3.81v0.88H173V303.75z"/>
				<path style="fill:#263238;" d="M178.67,303.81c0-0.35,0.28-0.63,0.65-0.63c0.37,0,0.65,0.27,0.65,0.61
					c0,0.36-0.27,0.64-0.65,0.64C178.95,304.43,178.67,304.16,178.67,303.81z M178.84,305.46h0.97v5.33h-0.97V305.46z"/>
				<path style="fill:#263238;" d="M181.15,308.13c0-1.59,1.18-2.71,2.82-2.71c0.96,0,1.75,0.39,2.17,1.14l-0.73,0.47
					c-0.34-0.52-0.86-0.76-1.45-0.76c-1.05,0-1.83,0.73-1.83,1.87c0,1.16,0.78,1.88,1.83,1.88c0.58,0,1.11-0.24,1.45-0.76l0.73,0.46
					c-0.42,0.74-1.22,1.15-2.17,1.15C182.33,310.85,181.15,309.71,181.15,308.13z"/>
				<path style="fill:#263238;" d="M192.1,308.45h-4.32c0.12,0.93,0.88,1.56,1.93,1.56c0.62,0,1.15-0.21,1.54-0.64l0.53,0.62
					c-0.48,0.56-1.22,0.87-2.1,0.87c-1.72,0-2.87-1.14-2.87-2.73c0-1.58,1.14-2.71,2.67-2.71c1.54,0,2.63,1.11,2.63,2.75
					C192.12,308.24,192.11,308.36,192.1,308.45z M187.78,307.75h3.42c-0.1-0.89-0.77-1.53-1.71-1.53
					C188.56,306.22,187.88,306.85,187.78,307.75z"/>
				<path style="fill:#263238;" d="M198.52,307.72v3.07h-0.97v-2.96c0-1.05-0.52-1.56-1.44-1.56c-1.03,0-1.69,0.61-1.69,1.77v2.75
					h-0.97v-5.33h0.93v0.8c0.39-0.54,1.08-0.85,1.92-0.85C197.6,305.41,198.52,306.15,198.52,307.72z"/>
				<path style="fill:#263238;" d="M199.85,308.13c0-1.59,1.18-2.71,2.82-2.71c0.96,0,1.75,0.39,2.17,1.14l-0.73,0.47
					c-0.34-0.52-0.86-0.76-1.45-0.76c-1.05,0-1.83,0.73-1.83,1.87c0,1.16,0.78,1.88,1.83,1.88c0.58,0,1.11-0.24,1.45-0.76l0.73,0.46
					c-0.42,0.74-1.22,1.15-2.17,1.15C201.02,310.85,199.85,309.71,199.85,308.13z"/>
				<path style="fill:#263238;" d="M210.8,308.45h-4.32c0.12,0.93,0.88,1.56,1.93,1.56c0.62,0,1.15-0.21,1.54-0.64l0.53,0.62
					c-0.48,0.56-1.22,0.87-2.1,0.87c-1.72,0-2.87-1.14-2.87-2.73c0-1.58,1.14-2.71,2.67-2.71c1.54,0,2.63,1.11,2.63,2.75
					C210.82,308.24,210.81,308.36,210.8,308.45z M206.48,307.75h3.42c-0.1-0.89-0.77-1.53-1.71-1.53
					C207.26,306.22,206.58,306.85,206.48,307.75z"/>
			</g>
			<g>
				<g>
					<path style="fill:#263238;" d="M315.23,217.39c0,0.14-34.51,0.26-77.07,0.26c-42.58,0-77.08-0.12-77.08-0.26
						s34.5-0.26,77.08-0.26C280.72,217.13,315.23,217.25,315.23,217.39z"/>
				</g>
			</g>
			<g>
				<g>
					<path style="fill:#263238;" d="M315.23,229.06c0,0.14-34.51,0.26-77.07,0.26c-42.58,0-77.08-0.12-77.08-0.26
						c0-0.14,34.5-0.26,77.08-0.26C280.72,228.8,315.23,228.91,315.23,229.06z"/>
				</g>
			</g>
			<g>
				<g>
					<path style="fill:#263238;" d="M315.23,240.72c0,0.14-34.51,0.26-77.07,0.26c-42.58,0-77.08-0.12-77.08-0.26
						c0-0.14,34.5-0.26,77.08-0.26C280.72,240.46,315.23,240.58,315.23,240.72z"/>
				</g>
			</g>
			<g>
				<g>
					<path style="fill:#263238;" d="M315.23,252.39c0,0.14-34.51,0.26-77.07,0.26c-42.58,0-77.08-0.12-77.08-0.26
						s34.5-0.26,77.08-0.26C280.72,252.13,315.23,252.24,315.23,252.39z"/>
				</g>
			</g>
			<g>
				<g>
					<path style="fill:#263238;" d="M315.23,264.05c0,0.14-34.51,0.26-77.07,0.26c-42.58,0-77.08-0.12-77.08-0.26
						s34.5-0.26,77.08-0.26C280.72,263.79,315.23,263.91,315.23,264.05z"/>
				</g>
			</g>
			<g>
				<g>
					<path style="fill:#263238;" d="M315.23,275.72c0,0.14-34.51,0.26-77.07,0.26c-42.58,0-77.08-0.12-77.08-0.26
						s34.5-0.26,77.08-0.26C280.72,275.46,315.23,275.57,315.23,275.72z"/>
				</g>
			</g>
			<g>
				<g>
					<path style="fill:#263238;" d="M315.23,320.03c0,0.14-34.51,0.26-77.07,0.26c-42.58,0-77.08-0.12-77.08-0.26
						c0-0.14,34.5-0.26,77.08-0.26C280.72,319.77,315.23,319.88,315.23,320.03z"/>
				</g>
			</g>
			<g>
				<g>
					<path style="fill:#E0E0E0;" d="M315.23,330c0,0.14-34.51,0.26-77.07,0.26c-42.58,0-77.08-0.12-77.08-0.26s34.5-0.26,77.08-0.26
						C280.72,329.74,315.23,329.86,315.23,330z"/>
				</g>
			</g>
			<g>
				<g>
					<path style="fill:#EBEBEB;" d="M315.23,339.98c0,0.14-34.51,0.26-77.07,0.26c-42.58,0-77.08-0.12-77.08-0.26
						c0-0.14,34.5-0.26,77.08-0.26C280.72,339.72,315.23,339.84,315.23,339.98z"/>
				</g>
			</g>
			<g>
				<rect x="244.94" y="369.83" style="fill:#FBA745;" width="81.54" height="30.38"/>
			</g>
			<g>
				<path style="fill:#FFFFFF;" d="M272.1,386.59h-4.01l-0.83,1.89h-1.11l3.42-7.55h1.07l3.43,7.55h-1.13L272.1,386.59z
					 M271.72,385.73l-1.63-3.7l-1.63,3.7H271.72z"/>
				<path style="fill:#FFFFFF;" d="M274.45,385.62c0-1.7,1.26-2.91,3.02-2.91c1.03,0,1.88,0.42,2.33,1.22l-0.79,0.51
					c-0.37-0.56-0.93-0.82-1.55-0.82c-1.12,0-1.96,0.79-1.96,2.01c0,1.24,0.84,2.02,1.96,2.02c0.63,0,1.19-0.26,1.55-0.82l0.79,0.5
					c-0.45,0.8-1.3,1.23-2.33,1.23C275.71,388.54,274.45,387.32,274.45,385.62z"/>
				<path style="fill:#FFFFFF;" d="M280.52,385.62c0-1.7,1.26-2.91,3.02-2.91c1.03,0,1.88,0.42,2.33,1.22l-0.79,0.51
					c-0.37-0.56-0.93-0.82-1.55-0.82c-1.12,0-1.96,0.79-1.96,2.01c0,1.24,0.84,2.02,1.96,2.02c0.63,0,1.19-0.26,1.55-0.82l0.79,0.5
					c-0.45,0.8-1.3,1.23-2.33,1.23C281.78,388.54,280.52,387.32,280.52,385.62z"/>
				<path style="fill:#FFFFFF;" d="M292.27,385.97h-4.64c0.13,1,0.94,1.67,2.07,1.67c0.67,0,1.23-0.23,1.65-0.69l0.57,0.67
					c-0.52,0.6-1.31,0.93-2.25,0.93c-1.84,0-3.07-1.22-3.07-2.92c0-1.69,1.22-2.91,2.87-2.91c1.65,0,2.83,1.19,2.83,2.95
					C292.29,385.74,292.28,385.87,292.27,385.97z M287.63,385.22h3.67c-0.11-0.96-0.83-1.64-1.83-1.64
					C288.47,383.58,287.73,384.25,287.63,385.22z"/>
				<path style="fill:#FFFFFF;" d="M299.64,385.62c0,1.76-1.22,2.92-2.89,2.92c-0.81,0-1.52-0.31-2-0.93v2.96h-1.04v-7.81h0.99v0.91
					c0.46-0.64,1.2-0.96,2.04-0.96C298.42,382.71,299.64,383.87,299.64,385.62z M298.59,385.62c0-1.21-0.83-2.01-1.93-2.01
					c-1.09,0-1.92,0.8-1.92,2.01c0,1.22,0.83,2.02,1.92,2.02C297.76,387.64,298.59,386.84,298.59,385.62z"/>
				<path style="fill:#FFFFFF;" d="M304.29,388.14c-0.31,0.27-0.79,0.4-1.25,0.4c-1.15,0-1.81-0.64-1.81-1.79v-3.14h-0.97v-0.85
					h0.97v-1.25h1.04v1.25h1.64v0.85h-1.64v3.1c0,0.62,0.32,0.96,0.9,0.96c0.3,0,0.59-0.1,0.81-0.27L304.29,388.14z"/>
			</g>
			<g>
				<g>
					<g>
						<path style="fill:#FBA745;" d="M157.27,400.45c0,0.01-0.07-0.04-0.2-0.14c-0.14-0.11-0.33-0.26-0.59-0.45
							c-0.54-0.43-1.34-1.05-2.42-1.91l-0.09-0.07l0.11-0.04c9.84-3.77,41.93-15.81,81.48-30.56l0.14-0.05l0.11,0.09
							c1,0.8,2.08,1.67,3.16,2.54l0.1,0.08v0.12c0,2.67,0,5.51,0,8.39c0,7.56,0,14.93-0.01,21.99l0,0.26l-0.25,0
							c-23.33-0.04-43.72-0.07-58.3-0.09c-7.26-0.03-13.07-0.06-17.09-0.08c-1.98-0.02-3.51-0.03-4.58-0.04
							c-0.5-0.01-0.89-0.02-1.18-0.02C157.4,400.47,157.27,400.45,157.27,400.45s0.14-0.01,0.41-0.02c0.29-0.01,0.68-0.01,1.19-0.02
							c1.07-0.01,2.61-0.02,4.6-0.04c4.03-0.02,9.84-0.04,17.11-0.08c14.57-0.02,34.93-0.06,58.22-0.09l-0.25,0.25
							c0-7.06,0-14.43-0.01-21.99c0-2.87,0-5.72,0-8.39l0.1,0.2c-1.09-0.88-2.17-1.74-3.16-2.55l0.25,0.04
							c-39.55,14.72-71.7,26.62-81.61,30.2l0.02-0.12c1.06,0.87,1.84,1.51,2.37,1.95c0.25,0.21,0.43,0.36,0.57,0.48
							C157.21,400.39,157.27,400.45,157.27,400.45z"/>
					</g>
				</g>
				<g>
					<g>
						<rect x="154.1" y="367.53" style="fill:#FFFFFF;" width="81.54" height="30.38"/>
					</g>
					<g>
						<g>
							<path style="fill:#FBA745;" d="M235.65,397.91c0,0-0.01-0.19-0.02-0.55c0-0.37-0.01-0.89-0.02-1.57
								c-0.01-1.39-0.02-3.42-0.04-6.03c-0.02-5.24-0.06-12.81-0.1-22.23l0.18,0.18c-20.22,0.02-49.29,0.05-81.54,0.08h-0.01
								l0.26-0.26c0,10.6-0.01,20.86-0.01,30.38l-0.25-0.25c23.53,0.05,43.88,0.09,58.37,0.12c7.24,0.03,13.02,0.05,17.01,0.07
								c1.98,0.01,3.51,0.02,4.57,0.03c0.51,0.01,0.9,0.01,1.19,0.02C235.5,397.9,235.65,397.91,235.65,397.91s-0.12,0.01-0.38,0.02
								c-0.28,0-0.66,0.01-1.16,0.02c-1.05,0.01-2.56,0.02-4.51,0.03c-3.97,0.02-9.73,0.04-16.95,0.07
								c-14.53,0.03-34.94,0.07-58.54,0.12l-0.25,0v-0.25c0-9.52-0.01-19.78-0.01-30.38l0-0.26h0.26h0.01
								c32.25,0.03,61.32,0.06,81.54,0.08l0.18,0l0,0.18c-0.04,9.47-0.07,17.08-0.1,22.34c-0.02,2.59-0.03,4.6-0.04,5.99
								c-0.01,0.66-0.01,1.17-0.02,1.54C235.66,397.74,235.65,397.91,235.65,397.91z"/>
						</g>
					</g>
				</g>
				<g>
					<path style="fill:#FBA745;" d="M176.45,380.57h3.18c2.43,0,4.08,1.53,4.08,3.78c0,2.24-1.65,3.78-4.08,3.78h-3.18V380.57z
						 M179.57,387.19c1.87,0,3.06-1.14,3.06-2.84c0-1.69-1.2-2.84-3.06-2.84h-2.04v5.67H179.57z"/>
					<path style="fill:#FBA745;" d="M190.35,385.61h-4.64c0.13,1,0.94,1.67,2.07,1.67c0.67,0,1.23-0.23,1.65-0.69l0.57,0.67
						c-0.52,0.6-1.31,0.93-2.25,0.93c-1.84,0-3.07-1.22-3.07-2.92c0-1.69,1.22-2.91,2.87-2.91c1.65,0,2.83,1.19,2.83,2.95
						C190.38,385.39,190.36,385.52,190.35,385.61z M185.71,384.87h3.67c-0.11-0.96-0.83-1.64-1.83-1.64
						C186.56,383.23,185.82,383.9,185.71,384.87z"/>
					<path style="fill:#FBA745;" d="M191.28,385.27c0-1.71,1.26-2.91,3.02-2.91c1.02,0,1.88,0.42,2.33,1.22l-0.79,0.51
						c-0.37-0.56-0.93-0.82-1.55-0.82c-1.12,0-1.96,0.79-1.96,2.01c0,1.24,0.84,2.02,1.96,2.02c0.63,0,1.19-0.26,1.55-0.82l0.79,0.5
						c-0.45,0.8-1.31,1.23-2.33,1.23C192.54,388.19,191.28,386.97,191.28,385.27z"/>
					<path style="fill:#FBA745;" d="M197.89,380.12h1.04v8h-1.04V380.12z"/>
					<path style="fill:#FBA745;" d="M200.71,380.64c0-0.38,0.3-0.68,0.7-0.68c0.4,0,0.7,0.29,0.7,0.66c0,0.39-0.29,0.69-0.7,0.69
						C201.02,381.31,200.71,381.02,200.71,380.64z M200.9,382.41h1.04v5.72h-1.04V382.41z"/>
					<path style="fill:#FBA745;" d="M209.33,384.84v3.29h-1.04v-3.17c0-1.12-0.56-1.67-1.54-1.67c-1.1,0-1.81,0.66-1.81,1.9v2.95
						h-1.04v-5.72h0.99v0.86c0.42-0.58,1.15-0.92,2.06-0.92C208.35,382.35,209.33,383.15,209.33,384.84z"/>
					<path style="fill:#FBA745;" d="M216.43,385.61h-4.64c0.13,1,0.94,1.67,2.07,1.67c0.67,0,1.23-0.23,1.65-0.69l0.57,0.67
						c-0.52,0.6-1.31,0.93-2.25,0.93c-1.84,0-3.07-1.22-3.07-2.92c0-1.69,1.22-2.91,2.87-2.91c1.65,0,2.83,1.19,2.83,2.95
						C216.45,385.39,216.44,385.52,216.43,385.61z M211.79,384.87h3.67c-0.11-0.96-0.83-1.64-1.83-1.64
						C212.63,383.23,211.89,383.9,211.79,384.87z"/>
				</g>
				<g>
					<g>
						<line style="fill:#FFFFFF;" x1="235.65" y1="397.41" x2="238.81" y2="400.45"/>
					</g>
					<g>
						<g>
							<path style="fill:#FBA745;" d="M238.81,400.45c-0.1,0.1-0.89-0.49-1.76-1.33c-0.87-0.84-1.5-1.6-1.4-1.71
								c0.1-0.1,0.89,0.49,1.76,1.33C238.28,399.59,238.91,400.35,238.81,400.45z"/>
						</g>
					</g>
				</g>
			</g>
		</g>
		<g>
			<g>
				<path style="fill:#B78876;" d="M355.3,392.86l11.64-5.61l-6.4-18.91l-14.06-3.26c-1.31-0.29-2.77-0.64-4.4-1.1
					c-1.9-0.53-3.7-1.38-5.32-2.51c-1.97-1.36-4.51-3.27-5.58-4.73c-1.33-1.81-4.15-1.14-4.14,0.87c0.01,2.01,3.54,7.09,9.85,10.67
					c6.31,3.58-4.84,5.32-8.89,6.03c-4.05,0.7-16.46,3.47-17.2,4.88c-1.08,2.07,0.98,3.65,5.01,2.85c4.07-0.81,16.28-2.35,16.61-0.2
					c0,0-0.01,0.02-0.04,0.06c-2.03,3.15-1.8,7.26,0.53,10.19c2.25,2.83,5.64,6.38,8.14,5.84
					C345.76,396.93,355.3,392.86,355.3,392.86z"/>
			</g>
			<g>
				<path style="fill:#FBA745;" d="M354.59,359.57l10.91,36.89l84.71-25.74c18.23-5.54,28.33-24.99,22.38-43.09L451.82,263
					l-45.11,11.2l24.75,59.78L354.59,359.57z"/>
			</g>
			<g>
				<g>
					<path style="fill:#263238;" d="M452.12,370.07c0,0-0.14,0.06-0.41,0.15c-0.29,0.09-0.69,0.22-1.22,0.39
						c-1.09,0.34-2.68,0.83-4.74,1.47c-4.16,1.27-10.2,3.12-17.78,5.44c-15.23,4.62-36.69,11.13-61.66,18.7l-0.23,0.07l-0.08-0.23
						c-3.78-11.27-7.43-23.68-11.66-36.41l-0.08-0.25l0.25-0.08c0.67-0.22,1.4-0.47,2.13-0.71c28.24-9.38,54.26-18.02,74.77-24.83
						l-0.13,0.28c-5.97-14.5-10.85-26.39-14.26-34.66c-1.68-4.12-2.99-7.34-3.9-9.55c-0.44-1.09-0.77-1.92-1-2.5
						c-0.22-0.57-0.32-0.86-0.32-0.86s0.14,0.28,0.38,0.84c0.25,0.58,0.6,1.4,1.06,2.48c0.92,2.2,2.27,5.41,4,9.51
						c3.44,8.26,8.39,20.12,14.42,34.59l0.09,0.2l-0.21,0.07c-20.5,6.84-46.5,15.51-74.73,24.93c-0.73,0.24-1.46,0.49-2.13,0.71
						l0.16-0.33c4.23,12.75,7.88,25.15,11.64,36.42l-0.31-0.16c25-7.5,46.47-13.95,61.71-18.53c7.61-2.26,13.66-4.06,17.83-5.3
						c2.07-0.61,3.66-1.07,4.76-1.39c0.53-0.15,0.94-0.27,1.23-0.35C451.97,370.1,452.12,370.07,452.12,370.07z"/>
				</g>
			</g>
			<g>
				<g>
					<path style="fill:#263238;" d="M447.13,344.75c-0.08,0.05-0.64-0.93-1.78-2.34c-1.13-1.41-2.89-3.2-5.18-4.72
						c-2.3-1.52-4.63-2.45-6.37-2.94c-1.74-0.5-2.86-0.64-2.85-0.73c0-0.04,0.29-0.03,0.8,0.01c0.51,0.03,1.25,0.15,2.14,0.36
						c1.79,0.41,4.21,1.31,6.56,2.86c2.35,1.56,4.12,3.44,5.19,4.93c0.54,0.74,0.93,1.38,1.16,1.83
						C447.05,344.47,447.16,344.73,447.13,344.75z"/>
				</g>
			</g>
			<g>
				<g>
					<path style="fill:#FAFAFA;" d="M426.6,277.34c-0.14,0-0.26-2.45-0.26-5.47c0-3.02,0.12-5.47,0.26-5.47
						c0.14,0,0.26,2.45,0.26,5.47C426.86,274.89,426.74,277.34,426.6,277.34z"/>
				</g>
			</g>
			<g>
				<g>
					<path style="fill:#FAFAFA;" d="M443.61,278.21c-0.14,0.04-0.96-2.31-1.84-5.24c-0.88-2.94-1.48-5.35-1.34-5.39
						c0.14-0.04,0.96,2.31,1.84,5.24C443.15,275.76,443.75,278.17,443.61,278.21z"/>
				</g>
			</g>
			<g>
				<g>
					<path style="fill:#FAFAFA;" d="M433.06,293.56c-0.01,0.13-2.37,0.06-5.15-0.76c-2.78-0.81-4.81-2.02-4.74-2.14
						c0.07-0.14,2.17,0.85,4.89,1.64C430.78,293.1,433.07,293.41,433.06,293.56z"/>
				</g>
			</g>
			<g>
				<g>
					<path style="fill:#FAFAFA;" d="M452.3,302.01c-0.14-0.02,0.14-2.36,0.64-5.23c0.49-2.86,1.01-5.16,1.15-5.14
						c0.14,0.02-0.14,2.36-0.64,5.23C452.96,299.74,452.44,302.04,452.3,302.01z"/>
				</g>
			</g>
			<g>
				<g>
					<path style="fill:#FAFAFA;" d="M445.42,315.78c-0.13,0.06-1.24-2.09-2.48-4.8c-1.24-2.71-2.14-4.96-2.01-5.02
						c0.13-0.06,1.24,2.09,2.48,4.8C444.65,313.47,445.55,315.72,445.42,315.78z"/>
				</g>
			</g>
			<g>
				<g>
					<path style="fill:#FAFAFA;" d="M442.6,327.84c-0.06,0.13-2.19-0.77-4.74-2.01c-2.56-1.24-4.58-2.35-4.52-2.48
						c0.06-0.13,2.19,0.77,4.74,2.01C440.64,326.6,442.66,327.71,442.6,327.84z"/>
				</g>
			</g>
			<g>
				<g>
					<path style="fill:#FAFAFA;" d="M464.24,324.63c0.13,0.07-0.83,2.07-1.9,4.59c-1.08,2.51-1.86,4.59-2,4.54
						c-0.13-0.04,0.43-2.21,1.52-4.75C462.94,326.48,464.11,324.57,464.24,324.63z"/>
				</g>
			</g>
			<g>
				<g>
					<path style="fill:#FAFAFA;" d="M458.22,353.68c-0.14,0.01-0.51-2.49-0.81-5.59c-0.31-3.1-0.44-5.62-0.29-5.64
						c0.14-0.01,0.51,2.49,0.81,5.59C458.23,351.14,458.36,353.66,458.22,353.68z"/>
				</g>
			</g>
			<g>
				<g>
					<path style="fill:#FAFAFA;" d="M442.94,362.85c-0.1,0.11-1.88-1.37-3.98-3.3c-2.1-1.93-3.72-3.58-3.63-3.68s1.88,1.37,3.98,3.3
						C441.42,361.1,443.04,362.75,442.94,362.85z"/>
				</g>
			</g>
			<g>
				<g>
					<path style="fill:#FAFAFA;" d="M416.54,365.48c0.12,0.09-1.25,2.15-3.06,4.61c-1.81,2.46-3.36,4.39-3.48,4.3
						c-0.12-0.09,1.25-2.15,3.06-4.61C414.86,367.33,416.42,365.4,416.54,365.48z"/>
				</g>
			</g>
			<g>
				<g>
					<path style="fill:#FAFAFA;" d="M424.91,353.11c-0.09,0.11-2.02-1.36-4.05-3.55c-2.04-2.19-3.35-4.23-3.24-4.31
						c0.12-0.09,1.61,1.79,3.62,3.95C423.25,351.37,425.01,352.99,424.91,353.11z"/>
				</g>
			</g>
			<g>
				<g>
					<path style="fill:#FAFAFA;" d="M404.99,355.92c0.04,0.13-1.74,0.66-3.98,0.49c-2.25-0.16-3.93-0.94-3.87-1.06
						c0.05-0.15,1.75,0.4,3.91,0.54C403.21,356.06,404.96,355.77,404.99,355.92z"/>
				</g>
			</g>
			<g>
				<g>
					<path style="fill:#FAFAFA;" d="M392.39,377.8c-0.14,0.02-0.59-1.9-1-4.3c-0.41-2.4-0.63-4.36-0.49-4.39
						c0.14-0.02,0.59,1.9,1,4.3C392.31,375.81,392.53,377.77,392.39,377.8z"/>
				</g>
			</g>
			<g>
				<g>
					<path style="fill:#FAFAFA;" d="M377.51,385.34c-0.08,0.12-2.34-1.17-5.04-2.88c-2.71-1.71-4.84-3.19-4.77-3.32
						c0.08-0.12,2.33,1.17,5.04,2.88C375.45,383.74,377.59,385.22,377.51,385.34z"/>
				</g>
			</g>
			<g>
				<g>
					<path style="fill:#FAFAFA;" d="M382.82,358.72c0.11,0.1-1.34,1.82-2.96,4.06c-1.63,2.24-2.8,4.15-2.94,4.08
						c-0.12-0.06,0.87-2.12,2.51-4.38C381.08,360.2,382.72,358.62,382.82,358.72z"/>
				</g>
			</g>
			<g>
				<g>
					<path style="fill:#FAFAFA;" d="M371.32,363.77c-0.06,0.13-1.37-0.4-2.92-1.17c-1.55-0.78-2.75-1.51-2.69-1.64
						s1.37,0.4,2.92,1.17C370.18,362.91,371.38,363.64,371.32,363.77z"/>
				</g>
			</g>
			<g style="opacity:0.2;">
				<g>
					<path d="M430.76,332.47c4.53,0.47,9.05,0.93,13.57,1.5c1.56,0.2,3.15,0.41,4.59,1.04s2.76,1.73,3.29,3.21
						c0.53,1.49,0.08,3.36-1.26,4.19c-1.22,0.76-2.84,0.51-4.1-0.18c-1.26-0.68-2.27-1.74-3.38-2.65c-2.02-1.68-4.41-2.93-6.94-3.63
						c-1.13-0.31-2.32-0.53-3.32-1.17c-0.99-0.63-1.75-1.83-1.44-2.97"/>
				</g>
			</g>
		</g>
	</g>
</g>
</svg>
