<svg xmlns="http://www.w3.org/2000/svg" viewBox="0 0 500 500"><path d="M80.41 95.55c4.16-1.1 8.69-.03 12.34 2.24 3.65 2.28 6.49 5.66 8.75 9.32 4.38 7.07 5.86 16.53 5.98 24.85-9.23-.46-17.04-7.79-20.77-11.76-5.91-6.27-12.76-21.18-6.3-24.65M122.28 137.67c-3.77-2.98-5.41-8.21-4.58-12.93.84-4.73 3.93-8.89 7.92-11.57 1.84-1.24 4.12-2.21 6.25-1.57 1.99.6 3.35 2.55 3.74 4.59.38 2.04-.07 4.15-.77 6.11-2.4 6.7-5.94 12.75-12.56 15.37" fill="#f5f5f5"/><path d="M127.64 157.78c-.1.05-1.16-1.76-2.62-4.84-.73-1.54-1.39-3.51-1.84-5.72-.44-2.2-.96-4.62-1.14-7.24-.41-5.23.63-10.02 2.08-13.13.71-1.57 1.49-2.73 2.05-3.5.6-.75.96-1.13 1.01-1.09.14.1-1.2 1.74-2.45 4.85-1.25 3.09-2.15 7.71-1.76 12.8.17 2.53.67 4.95 1.05 7.14.4 2.19.97 4.08 1.61 5.63 1.29 3.11 2.15 5.04 2.01 5.1z" fill="#e0e0e0"/><path d="M86.63 106.45c.05-.04.73.67 1.93 2s2.9 3.27 4.99 5.7c4.17 4.85 9.86 11.61 15.96 19.22 6.1 7.62 11.43 14.68 15.18 19.86 1.87 2.59 3.37 4.71 4.37 6.19 1 1.48 1.53 2.32 1.48 2.35-.05.04-.68-.73-1.78-2.14-1.19-1.55-2.74-3.57-4.6-6.01-3.88-5.08-9.28-12.06-15.38-19.67-6.1-7.5-11.61-14.29-15.74-19.38-1.93-2.39-3.53-4.37-4.76-5.89-1.1-1.39-1.69-2.19-1.65-2.23z" fill="#e0e0e0"/><path d="M115.99 146.66c-8.31-5.79-19.5-7.19-28.98-3.63-2.41.91-5.04 2.59-5.12 5.17-.08 2.58 2.46 4.43 4.85 5.42 9.92 4.13 22.27 1.47 29.63-6.36" fill="#f5f5f5"/><path d="M93.47 146.95c-.01-.06.48-.23 1.39-.47.9-.26 2.23-.54 3.89-.85 3.29-.53 8.02-1.15 13.14-.11 2.55.53 4.88 1.47 6.82 2.61 1.96 1.14 3.46 2.53 4.64 3.73 1.14 1.25 1.99 2.33 2.47 3.14.51.79.76 1.25.71 1.28-.15.11-1.29-1.64-3.65-3.96-1.21-1.12-2.71-2.4-4.61-3.46a23.52 23.52 0 00-6.58-2.44c-4.93-1.01-9.57-.52-12.86-.15-3.29.43-5.33.83-5.36.68z" fill="#e0e0e0"/><g><path d="M129.53 349.67c29.82-14.48 41.45-48.31 45.36-79.76.65-5.25 2.1-10.66.35-15.64-1.76-4.98-7.05-9.03-12.08-7.57-4.17 1.21-6.58 5.45-9.34 8.83-3.68 4.5-8.63 7.93-14.11 9.75-3.6 1.2-7.88 1.6-10.88-.74-4.11-3.2-3.65-9.51-2.79-14.7l4.8-29.01c.86-5.19 1.72-10.49.89-15.67-.83-5.19-3.67-10.33-8.39-12.5-4.72-2.17-11.28-.29-13.14 4.62-.77 2.05-.69 4.31-1.18 6.44-.49 2.13-1.87 4.36-4.01 4.63-2.17.28-4.01-1.52-5.32-3.29-4.53-6.1-7.09-13.43-9.42-20.69-2.33-7.26-4.54-14.66-8.49-21.15-3.95-6.49-9.96-12.1-17.33-13.7-7.37-1.6-16.03 1.72-19.07 8.73-3.05 7.02.04 15.13 3.74 21.8a117.87 117.87 0 0020.47 26.85c1.45 1.42 3.03 2.96 3.35 4.98.58 3.64-3.25 6.56-6.85 7.15-4.08.67-8.21-.4-12.34-.57-4.13-.17-8.8.92-10.94 4.5-2.97 4.97.58 11.24 4.37 15.58 7.58 8.69 16.66 16.04 26.69 21.64 3.6 2.01 7.42 3.87 10.08 7.05 2.65 3.18 3.77 8.14 1.33 11.5-2.45 3.37-7.41 3.78-11.29 2.4-3.88-1.38-7.12-4.12-10.7-6.17-6.71-3.83-16-4.8-21.56.64-3.65 3.58-4.81 9.18-4.06 14.25s3.17 9.73 5.83 14.09c9.3 15.24 22.23 28.38 37.87 36.75 15.66 8.38 30.75 12.38 48.16 8.98" fill="#ebebeb"/><path d="M125.3 351.33c.84-12.57 1.4-6.05-.73-22.56-2.09-16.52-5.89-34.44-10.5-53.04-1.17-4.65-2.33-9.24-3.47-13.76-1.15-4.51-2.29-8.99-3.67-13.3-2.73-8.63-6.01-16.73-9.37-24.31-3.35-7.59-6.81-14.67-10.1-21.26-3.3-6.59-6.49-12.68-9.63-18.1-6.26-10.87-12.33-19.03-16.73-24.46-2.19-2.72-3.96-4.78-5.18-6.16-.59-.66-1.05-1.17-1.4-1.56-.32-.35-.49-.52-.5-.51-.01.01.13.21.43.57.33.4.77.94 1.32 1.62 1.17 1.42 2.89 3.51 5.04 6.27 4.3 5.49 10.27 13.68 16.43 24.57 3.1 5.43 6.25 11.52 9.51 18.11 3.25 6.61 6.68 13.69 10 21.27 3.33 7.58 6.58 15.65 9.28 24.23 1.37 4.29 2.49 8.73 3.64 13.25 1.14 4.52 2.29 9.11 3.46 13.76 4.61 18.59 8.42 36.46 10.55 52.92 2.16 16.45 1.67 9.87.93 22.4" fill="#e0e0e0"/><path d="M106.68 248.59c.06.02.36-.74.86-2.13s1.16-3.43 1.94-5.96c1.56-5.05 3.47-12.11 5.55-19.89 2.08-7.79 4.09-14.79 5.72-19.81.81-2.51 1.48-4.54 1.97-5.93.48-1.4.71-2.18.65-2.21-.06-.02-.41.71-1 2.07-.59 1.36-1.37 3.35-2.26 5.84-1.8 4.98-3.92 11.98-6 19.78-2.03 7.69-3.87 14.64-5.27 19.95-.65 2.4-1.2 4.41-1.64 6.04-.41 1.43-.59 2.23-.52 2.25z" fill="#e0e0e0"/><path d="M41.89 225.48c-.01.07.92.33 2.61.74 1.69.43 4.14 1.03 7.13 1.87 6.01 1.63 14.23 4.18 23.18 7.39 8.95 3.22 16.92 6.49 22.62 9.01 2.86 1.24 5.15 2.31 6.73 3.04 1.58.74 2.47 1.11 2.5 1.05.03-.06-.8-.55-2.34-1.4-1.54-.83-3.78-2-6.62-3.33-5.64-2.69-13.6-6.07-22.57-9.3-8.98-3.21-17.26-5.67-23.34-7.13-3.03-.76-5.51-1.26-7.23-1.57-1.7-.3-2.65-.43-2.67-.37zM123.95 327.41c.03.02.23-.24.59-.74.41-.6.92-1.34 1.53-2.23 1.32-1.95 3.15-4.81 5.37-8.38 4.44-7.14 10.26-17.19 16.53-28.36 6.28-11.18 12-21.27 16.28-28.49 2.09-3.51 3.82-6.39 5.1-8.54.55-.93 1-1.7 1.37-2.33.3-.54.45-.83.42-.85-.03-.02-.23.24-.59.74-.41.6-.92 1.34-1.53 2.23-1.32 1.95-3.15 4.81-5.37 8.38-4.44 7.14-10.26 17.19-16.54 28.37-6.28 11.18-11.99 21.27-16.28 28.49-2.1 3.51-3.82 6.39-5.1 8.53-.55.93-1 1.7-1.37 2.33-.29.54-.44.83-.41.85z" fill="#e0e0e0"/><path d="M39.78 284.7c-.01.03.27.2.82.5.66.34 1.46.76 2.44 1.27 2.26 1.15 5.3 2.7 9.01 4.59 7.61 3.88 18.05 9.36 29.59 15.42 11.54 6.07 22.05 11.46 29.74 15.18 3.84 1.86 6.97 3.34 9.15 4.31 1.01.44 1.84.81 2.52 1.11.58.24.89.36.91.32.01-.03-.27-.2-.82-.5-.66-.34-1.46-.76-2.44-1.27-2.26-1.15-5.3-2.7-9.01-4.59-7.61-3.88-18.06-9.36-29.59-15.43-11.53-6.07-22.04-11.45-29.73-15.18-3.85-1.86-6.97-3.34-9.15-4.31-1.01-.44-1.84-.81-2.52-1.11-.6-.23-.91-.34-.92-.31z" fill="#e0e0e0"/></g><g><path d="M465.36 435.01c0 .14-94.67.26-211.42.26-116.79 0-211.44-.12-211.44-.26s94.65-.26 211.44-.26c116.75 0 211.42.11 211.42.26z" fill="#263238"/></g><g><path d="M65.73 269.39s6.9-4.66 15.52 11.87 11.92 26.08 11.92 26.08 2.27 3.46 4.64 1.16c2.37-2.3 5.58-8.78 9.66-7.66 4.23 1.17 5.66 5.86 4.92 12.77-.74 6.92-1.8 22.14-1.89 23.51-.09 1.35.7 3.33 2.57 2.03 1.86-1.31 12.55-13.43 18-8.02 5.45 5.41.23 24.35-.31 26.43-.53 2.08-.12 2.96.87 3.47.99.5 4.2-3.91 7.38-7.23 3.18-3.32 7.45-6.62 10.33-3.23s3.93 17.55-9.34 40.69l-6.85 10.32-12.43-.57C94.19 398.16 83.34 389 82.3 384.68c-1.05-4.32 4.13-5.84 8.68-6.47 4.56-.62 10.01-.63 10.19-1.73.17-1.1-.3-1.95-2.29-2.74-2-.79-20.39-7.68-21.57-15.27-1.18-7.59 14.91-9.12 17.06-9.86s1.01-2.55-.13-3.27c-1.17-.73-14.11-8.81-20.14-12.27-6.03-3.46-8.99-7.38-7.45-11.48 1.48-3.96 8.62-2.75 11.87-3.32 3.25-.57 1.78-4.44 1.78-4.44s-5.79-8.28-14.11-24.96-.29-19.57-.29-19.57" fill="#1da2ab"/><path d="M73.48 284.18c.01 0 .07.1.17.29.12.22.27.51.47.88.41.81 1 1.95 1.75 3.41 1.52 3 3.7 7.29 6.4 12.58 5.45 10.62 12.96 25.26 21.26 41.42 8.34 16.16 15.82 30.83 21.14 41.49 2.63 5.32 4.77 9.64 6.26 12.65.72 1.48 1.28 2.64 1.67 3.45.18.38.32.68.42.9.09.2.14.31.13.32-.01 0-.07-.1-.17-.29-.12-.22-.27-.51-.47-.88-.41-.81-1-1.95-1.75-3.41-1.52-3-3.7-7.29-6.39-12.58-5.4-10.62-12.93-25.26-21.26-41.43-8.33-16.16-15.81-30.82-21.14-41.49-2.63-5.32-4.77-9.64-6.26-12.65-.72-1.48-1.28-2.64-1.67-3.45-.18-.38-.32-.68-.42-.9-.11-.2-.15-.31-.14-.31z" fill="#263238"/><path d="M103.34 310.1c.07.02-.22 1.26-.68 3.26-.49 2.13-1.11 4.84-1.79 7.83-.69 3.06-1.34 5.83-1.87 7.82-.27.99-.5 1.8-.68 2.34-.18.55-.3.85-.33.84-.07-.02.23-1.25.68-3.26.47-2.13 1.07-4.85 1.74-7.84.69-3.06 1.38-5.82 1.93-7.81.28-.99.51-1.79.69-2.34.16-.55.28-.85.31-.84zM96.85 332.42c-.04.13-5.72-1.34-12.69-3.27-6.98-1.93-12.6-3.61-12.57-3.73.04-.13 5.72 1.34 12.69 3.27s12.6 3.6 12.57 3.73zM112.89 360.24c0 .03-.32.08-.91.13-.59.06-1.43.11-2.48.17-2.1.1-5.01.17-8.22.08-3.21-.09-6.11-.32-8.2-.54a52.34 52.34 0 01-2.47-.31c-.58-.09-.9-.15-.9-.19.01-.07 1.3.02 3.4.16 2.09.14 4.99.31 8.18.4 3.2.09 6.09.08 8.19.06 2.11-.02 3.41-.03 3.41.04zM123.21 341.34c.06.03-.48 1.11-1.39 2.82-.91 1.71-2.2 4.06-3.66 6.64-1.45 2.58-2.79 4.9-3.78 6.57-.99 1.67-1.63 2.69-1.69 2.65s.48-1.11 1.39-2.82c.91-1.71 2.2-4.06 3.66-6.64 1.45-2.58 2.79-4.9 3.78-6.57.99-1.66 1.63-2.68 1.69-2.65zM140.49 364.1c.03.02-.14.37-.46.98-.38.7-.85 1.57-1.4 2.59-1.2 2.18-2.89 5.17-4.78 8.46-1.89 3.29-3.63 6.25-4.91 8.39-.61.99-1.12 1.83-1.53 2.51-.37.59-.59.91-.62.89-.03-.02.14-.37.46-.98.38-.7.85-1.57 1.4-2.59 1.2-2.18 2.89-5.17 4.79-8.46 1.89-3.29 3.63-6.25 4.91-8.39.61-.99 1.12-1.83 1.53-2.51.37-.59.58-.9.61-.89zM126.95 387.26c0 .03-.41.07-1.16.1s-1.82.05-3.16.06c-2.67.01-6.35-.04-10.41-.27-4.06-.22-7.73-.57-10.38-.88-1.32-.15-2.39-.3-3.13-.41-.74-.11-1.14-.19-1.14-.22s.42-.02 1.16.04c.84.07 1.89.16 3.14.26a325.339 325.339 0 0020.76 1.15c1.25.04 2.31.06 3.15.09.76.02 1.17.05 1.17.08z" fill="#263238"/></g><g><path d="M452.12 263.89l-33.47 32.58-30.84 58.86-34.69 66.55-42.61-19.97-46.06-23.58 29.46-56.28 18.31-63.02c-12.94 8.58-36.95 20.27-65.7 14.18-31.14-6.6-16.19-124.05-16.19-124.05l34.22-.88 3.41 82.81L306.65 214l.06.14c2.33-1.04 4.36-1.96 5.45-2.55 21.39-11.67 35.43-13.08 58.38-4.89l33.11 11c8.51 4.01 39.88 19.45 48.47 46.19" fill="#fba745"/><path d="M334.98 204.24c.02.05-.78.44-2.08 1.37-1.3.92-3.06 2.45-4.79 4.72-1.74 2.26-3.4 5.25-4.73 8.79-1.35 3.53-2.39 7.56-3.53 11.79-2.29 8.42-4.36 16.04-5.88 21.63-.76 2.71-1.39 4.93-1.84 6.54-.22.73-.39 1.31-.53 1.77-.13.4-.2.61-.22.61-.02 0 .02-.22.12-.64.11-.46.25-1.06.43-1.8.41-1.62.98-3.85 1.68-6.58 1.48-5.6 3.5-13.23 5.74-21.67 1.13-4.22 2.19-8.27 3.58-11.83 1.36-3.56 3.08-6.58 4.88-8.84 1.8-2.27 3.62-3.78 4.97-4.66.67-.45 1.22-.75 1.6-.94.39-.18.59-.27.6-.26z" fill="#263238"/><path d="M322.51 220.83c-9.57 25.9-26.78 40.39-51.15 53.37 0 0 20.89-1.45 40.18-14.73M352.99 202.39c4.06 64.92 8.11 129.83 12.17 194.75l-12.03 24.74-.14-219.49z" opacity=".3"/><path d="M390.68 269.74c-.14.05-1.37-3.01-3.07-6.7-1.7-3.69-3.23-6.61-3.1-6.69.06-.03.52.65 1.19 1.81.67 1.16 1.53 2.8 2.38 4.65.85 1.86 1.54 3.57 1.99 4.83.46 1.28.68 2.08.61 2.1zM417.92 256.05c.08.12-2.83 2.07-6.5 4.36-3.67 2.29-6.7 4.04-6.78 3.92-.08-.12 2.83-2.07 6.5-4.36 3.67-2.29 6.71-4.04 6.78-3.92zM406.1 246.19c-.14.01-.38-2.37-.54-5.32-.15-2.95-.16-5.34-.02-5.35.14-.01.38 2.37.54 5.32.16 2.95.16 5.35.02 5.35zM433.29 244.29c-.08.12-2.27-1.1-4.91-2.72-2.64-1.63-4.71-3.05-4.63-3.17.08-.12 2.27 1.1 4.91 2.72 2.64 1.63 4.71 3.05 4.63 3.17zM391.72 298.23c-.13-.06 1.08-3.15 2.7-6.92 1.62-3.76 3.05-6.77 3.18-6.71.13.06-1.08 3.15-2.7 6.92-1.62 3.76-3.05 6.76-3.18 6.71zM379.61 310.49c-.13.06-1.22-1.86-2.44-4.3-1.22-2.44-2.11-4.47-1.98-4.54.13-.06 1.22 1.86 2.44 4.3 1.23 2.44 2.11 4.48 1.98 4.54zM389.74 326.99c.04.13-2.22.91-5.14 1.31-2.91.42-5.3.29-5.3.16 0-.15 2.36-.26 5.23-.67 2.87-.4 5.17-.95 5.21-.8zM402.73 308.94c-.13-.06.66-2.23 1.77-4.85 1.11-2.63 2.12-4.71 2.25-4.65.13.06-.66 2.23-1.77 4.85-1.1 2.63-2.11 4.71-2.25 4.65zM371.14 347.08c-.13.08-1.6-1.95-3.62-4.27-2.01-2.34-3.82-4.08-3.71-4.19.09-.1 2.07 1.49 4.11 3.85 2.04 2.35 3.33 4.54 3.22 4.61zM365.41 306.07c.12.07-1.05 2.32-2.61 5.02-1.57 2.7-2.94 4.84-3.07 4.76-.12-.07 1.05-2.32 2.62-5.03 1.56-2.69 2.94-4.82 3.06-4.75zM369.49 291.95c-.04.14-2.54-.39-5.59-1.17-3.05-.79-5.49-1.54-5.46-1.68.04-.14 2.54.39 5.59 1.17 3.05.78 5.49 1.54 5.46 1.68zM369.25 262.97c.13-.08 1.38 1.8 2.96 4.08 1.58 2.28 2.9 4.11 2.78 4.2-.11.09-1.62-1.61-3.21-3.9-1.59-2.3-2.65-4.31-2.53-4.38zM360.04 261.55c.09.11-1.45 1.61-3.46 3.35s-3.71 3.07-3.8 2.96c-.09-.11 1.45-1.61 3.46-3.35 2-1.74 3.7-3.06 3.8-2.96zM367.31 246.38c-.09.1-2.32-1.74-4.62-4.46-2.31-2.71-3.78-5.2-3.66-5.27.13-.08 1.77 2.26 4.06 4.94 2.28 2.68 4.33 4.68 4.22 4.79zM392.89 241.71c.04.14-2.47 1.03-5.61 1.98-3.14.96-5.72 1.62-5.76 1.49-.04-.14 2.47-1.03 5.61-1.98 3.14-.96 5.71-1.63 5.76-1.49zM356.88 217.35c-.15-.01-.09-2.3-.44-5.07-.34-2.78-.97-4.98-.82-5.03.12-.05.99 2.12 1.34 4.96.36 2.84.05 5.16-.08 5.14zM334.12 289.86c.04.07-.88.7-2.36 1.74s-3.5 2.49-5.66 4.19c-2.16 1.7-4.06 3.31-5.42 4.5-1.36 1.18-2.2 1.93-2.25 1.87-.05-.05.7-.88 2-2.14 1.3-1.26 3.17-2.93 5.35-4.64 2.18-1.7 4.24-3.12 5.78-4.08 1.54-.97 2.53-1.49 2.56-1.44zM332.81 281.84c-.13.08-1.81-2.54-4.14-5.59-2.32-3.05-4.39-5.37-4.28-5.48.05-.05.64.47 1.51 1.39a48.315 48.315 0 015.98 7.85c.64 1.09.99 1.79.93 1.83zM338.9 250.23c.07.13-2.07 1.44-4.78 2.93-2.71 1.5-4.96 2.6-5.03 2.48-.07-.13 2.07-1.44 4.78-2.93 2.71-1.5 4.97-2.61 5.03-2.48zM332.87 236.43c-.04.05-.72-.44-1.71-1.35-1-.9-2.31-2.24-3.61-3.83-1.3-1.59-2.35-3.14-3.05-4.29-.69-1.16-1.05-1.91-.99-1.95.14-.08 1.85 2.76 4.44 5.91 2.57 3.16 5.03 5.39 4.92 5.51zM343.25 236.14c-.13-.06.69-2.02 1.84-4.37 1.15-2.35 2.18-4.21 2.31-4.15.13.06-.69 2.02-1.84 4.38-1.14 2.35-2.18 4.2-2.31 4.14zM340.48 220.35c-.16-.01.02-3.11-.58-6.86-.57-3.75-1.69-6.65-1.54-6.71.06-.02.42.67.85 1.85.43 1.18.91 2.87 1.21 4.77.3 1.9.36 3.65.31 4.91-.05 1.27-.18 2.04-.25 2.04zM343.04 300.04c-.08-.01-.02-1.12.04-2.93.06-1.8.11-4.29.05-7.04-.07-2.75-.25-5.23-.4-7.03-.15-1.8-.26-2.91-.18-2.92.07-.01.3 1.09.55 2.88.25 1.79.48 4.29.55 7.06.07 2.77-.04 5.27-.2 7.07-.16 1.81-.34 2.92-.41 2.91zM341.52 324.89c-.12.11-1.78-1.89-4.44-3.57-2.65-1.71-5.16-2.36-5.11-2.52.01-.13 2.65.32 5.39 2.08 2.75 1.73 4.27 3.94 4.16 4.01zM354.04 340.29c.07.13-3.01 1.85-6.87 3.85-3.86 2-7.04 3.51-7.11 3.38-.07-.13 3.01-1.85 6.87-3.85 3.86-1.99 7.04-3.51 7.11-3.38zM318.82 347.12c-.12.09-2.38-2.8-5.06-6.44-2.68-3.64-4.75-6.66-4.64-6.74.12-.09 2.38 2.8 5.06 6.44 2.68 3.64 4.75 6.66 4.64 6.74zM307.95 318.68c-.07 0-.16-.78-.22-2.05-.06-1.27-.07-3.03.02-4.97.09-1.94.27-3.69.44-4.95.17-1.26.34-2.03.41-2.02.15.02-.16 3.14-.33 7-.19 3.85-.17 6.99-.32 6.99zM296.22 367.23c-.09.11-2.71-1.91-5.84-4.52-3.14-2.61-5.6-4.81-5.51-4.92.09-.11 2.71 1.91 5.84 4.52 3.13 2.6 5.6 4.81 5.51 4.92zM303.26 365.74c-.14 0-.34-3.51-.44-7.84-.1-4.33-.07-7.85.08-7.85.14 0 .34 3.5.44 7.84.1 4.33.06 7.84-.08 7.85zM317.16 395.85c-.03.08-1.25-.42-3.26-1.06-2.01-.64-4.83-1.38-8.01-1.82-3.19-.43-6.1-.48-8.21-.39-2.11.08-3.41.23-3.42.15-.01-.04.32-.11.9-.21.58-.11 1.44-.21 2.5-.3 2.12-.18 5.08-.19 8.3.25 3.22.44 6.07 1.25 8.06 1.99 1 .37 1.79.7 2.33.96.54.24.83.4.81.43zM328.61 401.35c.04-.05.92.52 2.25 1.56s3.11 2.56 4.94 4.39c1.83 1.83 3.35 3.61 4.39 4.94 1.04 1.33 1.61 2.21 1.56 2.25-.06.05-.74-.75-1.84-2.02a98.545 98.545 0 00-4.48-4.81 93.33 93.33 0 00-4.81-4.47c-1.26-1.11-2.05-1.78-2.01-1.84zM333.6 349.25c-.13.05-1.29-2.56-2.59-5.83-1.3-3.27-2.24-5.97-2.11-6.02.13-.05 1.29 2.56 2.59 5.83 1.3 3.27 2.24 5.96 2.11 6.02zM293.43 247.9c.05.05-.51.71-1.53 1.67s-2.51 2.2-4.29 3.39c-1.78 1.18-3.5 2.09-4.77 2.65-1.28.57-2.1.83-2.13.77-.06-.15 3.1-1.5 6.61-3.86 3.53-2.33 6-4.74 6.11-4.62zM295.99 237.3c-.14-.01-.17-2.01-.05-4.46.12-2.46.33-4.45.47-4.44.14.01.17 2 .05 4.46-.12 2.46-.33 4.45-.47 4.44zM276.05 246.2c-.06.13-2.39-.81-5.19-2.09-2.81-1.29-5.04-2.44-4.98-2.57.06-.13 2.39.81 5.2 2.09 2.8 1.29 5.03 2.44 4.97 2.57zM311.64 232.64c-.14-.01-.07-2.49.16-5.53s.54-5.5.68-5.49c.14.01.07 2.49-.16 5.53s-.53 5.5-.68 5.49zM265.45 267.4c-.04.13-2.74-.7-5.71-2.5-2.98-1.78-4.98-3.77-4.89-3.86.1-.12 2.23 1.67 5.16 3.42 2.92 1.76 5.5 2.79 5.44 2.94zM250.62 247.05c.11.1-1.8 2.36-4.26 5.05s-4.54 4.8-4.64 4.7c-.11-.1 1.8-2.36 4.26-5.05 2.45-2.69 4.53-4.8 4.64-4.7zM249.35 228.82c-.05.12-2.29-.82-4.66-2.61-2.38-1.78-3.92-3.66-3.82-3.74.11-.11 1.79 1.58 4.13 3.33 2.33 1.75 4.42 2.89 4.35 3.02zM240.02 232.64c.11.09-.85 1.4-2.13 2.92-1.29 1.52-2.42 2.68-2.53 2.59-.11-.09.84-1.4 2.13-2.92 1.29-1.53 2.42-2.68 2.53-2.59zM260.03 198.8c.11.09-1.64 2.41-3.91 5.18-2.27 2.77-4.2 4.95-4.31 4.85-.11-.09 1.64-2.41 3.91-5.18 2.27-2.77 4.2-4.94 4.31-4.85zM242.87 202.65c-.11.09-2.01-1.9-4.25-4.46s-3.97-4.71-3.86-4.81c.11-.09 2.01 1.9 4.25 4.47 2.24 2.55 3.96 4.7 3.86 4.8zM251.45 180.93c-.13.07-1.46-2.06-2.98-4.75s-2.65-4.93-2.53-5c.13-.07 1.46 2.05 2.98 4.75 1.52 2.69 2.65 4.93 2.53 5zM251.02 166.92c-.13-.1 1.37-2 2.56-4.69 1.21-2.68 1.63-5.06 1.79-5.03.13 0-.06 2.48-1.31 5.25-1.23 2.77-2.95 4.56-3.04 4.47z" fill="#fafafa"/><g><path d="M234.51 166.09c-.12.03-.26-2.91 1.23-6.12.73-1.59 1.67-2.88 2.44-3.72.77-.84 1.35-1.26 1.39-1.21.12.11-1.96 2.04-3.36 5.15-1.44 3.09-1.54 5.92-1.7 5.9z" fill="#fafafa"/></g><g><path d="M378.69 142.3c-.32-4.16-.65-8.34-.15-12.48.5-4.14 1.88-8.27 4.6-11.43 2.72-3.16 6.93-5.19 11.06-4.65 2.55.33 4.97 1.59 7.55 1.52 2.98-.09 5.57-1.93 8.28-3.16a21.69 21.69 0 0113.64-1.42c2.38.53 4.73 1.52 6.45 3.26 1.72 1.74 2.7 4.32 2.09 6.69 3.01 0 6.05.01 8.95.79 2.9.78 5.69 2.44 7.19 5.04s1.39 6.23-.75 8.35c2.78-.56 5.69 1.58 6.36 4.33.66 2.76-.71 5.77-3 7.44-2.29 1.67-6.56 2.41-9.35 1.88-2.79-.53-5.97-1.31-8.23-3.02" fill="#263238"/><path d="M376.52 236.5c11.49 2.95 23.21-3.92 26.23-15.38 1.69-6.4 3.07-11.77 3.07-11.77s16.71 2.86 22.24-12.95c5.53-15.82 15.02-53.21 15.02-53.21a58.246 58.246 0 00-57.81-11.65l-2.96 1.02-21.23 77.33c-3.2 11.62 3.76 23.61 15.44 26.61z" fill="#b78876"/><path d="M405.92 209.12s-10.31-2.55-18.73-12.83c0 0 1.06 13.07 17.39 16.96l1.34-4.13z" fill="#aa6550"/><path d="M378.74 149.66c-.23-.21-9.83-6.89-13.13 4.08-3.3 10.97 8.4 12.02 8.51 11.71.12-.3 4.62-15.79 4.62-15.79z" fill="#b78876"/><path d="M372.03 160.29c-.04-.05-.23.08-.6.13-.36.05-.93-.01-1.44-.4-1.03-.77-1.45-2.91-.91-4.9.27-1.01.77-1.9 1.36-2.58.58-.7 1.26-1.11 1.88-1.04.62.04.93.51.97.86.05.35-.08.55-.03.59.02.04.29-.11.34-.59.02-.23-.03-.53-.23-.82-.2-.29-.55-.52-.97-.6-.86-.2-1.86.35-2.51 1.1a6.7 6.7 0 00-1.58 2.86c-.59 2.23-.08 4.64 1.36 5.58.71.43 1.43.39 1.84.23.42-.16.55-.38.52-.42z" fill="#aa6550"/><g><path d="M429.61 166.04c-.36 1.21-1.68 1.91-2.96 1.55-1.27-.35-2.01-1.62-1.65-2.83.36-1.21 1.68-1.91 2.95-1.56 1.28.37 2.02 1.63 1.66 2.84zM432.57 164.51c-.38.2-1.67-1.65-4.11-2.46-2.43-.85-4.64-.19-4.81-.58-.09-.18.38-.61 1.35-.92.96-.31 2.45-.42 3.97.1s2.61 1.51 3.15 2.33c.56.83.63 1.45.45 1.53zM405.61 157.99c-.36 1.21-1.68 1.91-2.96 1.55-1.27-.35-2.01-1.62-1.65-2.83.36-1.21 1.68-1.91 2.95-1.56 1.28.36 2.02 1.63 1.66 2.84z" fill="#263238"/><path d="M408.43 156.91c-.38.2-1.67-1.65-4.12-2.46-2.43-.85-4.64-.19-4.81-.58-.09-.18.38-.61 1.35-.92.96-.31 2.45-.42 3.97.1s2.61 1.51 3.15 2.33c.56.83.64 1.45.46 1.53z" fill="#263238"/><g><path d="M411.21 177.99c.04-.14 1.64.1 4.2.62.64.14 1.28.22 1.52-.17.3-.4.26-1.16.2-1.99-.08-1.7-.16-3.49-.25-5.36-.29-7.62-.28-13.79.03-13.8.31-.01.79 6.16 1.08 13.77.06 1.87.11 3.66.16 5.37 0 .79.13 1.73-.5 2.55-.32.41-.9.59-1.33.57-.44-.01-.79-.12-1.11-.21-2.5-.71-4.04-1.21-4-1.35z" fill="#263238"/></g><g><path d="M403.46 177.27c.4.11-.48 2.76 1.16 5.4 1.63 2.65 4.55 3.3 4.45 3.67-.02.18-.8.3-2-.06-1.18-.35-2.76-1.3-3.77-2.92-1-1.62-1.07-3.36-.8-4.47.27-1.14.78-1.7.96-1.62z" fill="#263238"/></g><g><path d="M433.11 159.92c-.62.41-2.1-.73-4.12-1.44-1.99-.78-3.86-.88-4.06-1.59-.08-.34.38-.8 1.3-1.08.91-.28 2.29-.29 3.66.22s2.41 1.42 2.92 2.22c.54.81.58 1.46.3 1.67z" fill="#263238"/></g></g><g><path d="M408.21 147.03c-.37.21-.96-.12-1.72-.56-.76-.44-1.73-.98-2.88-1.41-1.15-.42-2.24-.65-3.1-.81-.86-.17-1.51-.3-1.66-.7-.14-.37.33-.99 1.41-1.4 1.07-.42 2.74-.5 4.4.11 1.65.62 2.86 1.78 3.4 2.79.55 1.01.5 1.79.15 1.98z" fill="#263238"/></g><g><path d="M442.23 148.32s-11.83.01-22.77-8.95c-7.18-5.88-16.17-10-18.62-8.84-2.45 1.16-4.78 9.4-13.36 10.02 0 0-3.06 16.05-9.28 14.04s3.35-25.77 3.35-25.77l17.25-4.06 17.67.64 15.88 3.6 13.73 7.89-3.85 11.43z" fill="#263238"/></g></g><g><path fill="#fafafa" d="M128.6 85.37h224.53v349.64H128.6z"/><path d="M353.13 435.01c0-2.15-.1-144.15-.24-349.64l.24.24c-68.92.01-144.82.01-224.5.02h-.03l.26-.26c-.02 132.27-.04 254.08-.05 349.64l-.21-.21c137.15.13 222.86.21 224.53.21-1.68 0-87.39.08-224.53.21h-.21v-.21c-.01-95.55-.03-217.36-.05-349.64v-.26H128.63c79.68.01 155.58.01 224.5.02h.24v.24c-.14 205.49-.24 347.49-.24 349.64z" fill="#263238"/><path d="M188.78 163.23h-28.73c-1.99 0-3.59-1.61-3.59-3.59v-39.76c0-1.99 1.61-3.59 3.59-3.59h18.22l14.1 14.54v28.82c0 1.97-1.61 3.58-3.59 3.58z" fill="#fba745"/><path d="M178.27 116.28v11.19c0 1.85 1.5 3.34 3.34 3.34h10.76l-14.1-14.53z" fill="#e8505b"/><path d="M178.42 128.45s-.14 2.71 2.95 3.61c.12.03.24.06.35.08 1.4.25 10.65 1.9 10.65 1.68v-3.01h-10.76s-2.68-.09-3.19-2.36z" opacity=".2"/><path d="M178.27 116.28v11.19c0 1.85 1.5 3.34 3.34 3.34h10.76l-14.1-14.53z" fill="#fff" opacity=".3"/><path d="M175.86 127.01c0 .14-2.98.26-6.65.26-3.67 0-6.65-.12-6.65-.26s2.97-.26 6.65-.26c3.67 0 6.65.12 6.65.26zM184.44 133.34c0 .14-4.9.26-10.94.26-6.04 0-10.94-.12-10.94-.26s4.9-.26 10.94-.26c6.05 0 10.94.11 10.94.26zM186.41 138.62c0 .14-5.34.26-11.92.26-6.59 0-11.92-.12-11.92-.26s5.34-.26 11.92-.26c6.59 0 11.92.12 11.92.26zM186.41 143.61c0 .14-5.34.26-11.92.26-6.59 0-11.92-.12-11.92-.26s5.34-.26 11.92-.26c6.59 0 11.92.11 11.92.26zM186.41 148.59c0 .14-5.34.26-11.92.26-6.59 0-11.92-.12-11.92-.26s5.34-.26 11.92-.26c6.59 0 11.92.12 11.92.26zM186.41 153.58c0 .14-5.34.26-11.92.26-6.59 0-11.92-.12-11.92-.26s5.34-.26 11.92-.26c6.59 0 11.92.11 11.92.26z" fill="#fafafa"/><g fill="#263238"><path d="M202.42 136.71h-3.03v-1.1h7.31v1.1h-3.03v7.74h-1.25v-7.74zM214.49 143.35v1.1h-6.41v-8.83h6.23v1.1h-4.97v2.71h4.43v1.07h-4.43v2.85h5.15zM222.44 144.45l-1.91-2.71c-.18.01-.37.02-.56.02h-2.18v2.69h-1.26v-8.83h3.44c2.3 0 3.68 1.16 3.68 3.08 0 1.36-.71 2.35-1.94 2.79l2.09 2.97h-1.36zm-.04-5.76c0-1.26-.85-1.98-2.46-1.98h-2.15v3.98h2.15c1.62 0 2.46-.74 2.46-2zM233.9 144.45l-.01-6.44-3.19 5.36h-.58l-3.19-5.33v6.4h-1.21v-8.83h1.03l3.68 6.21 3.63-6.21h1.03l.01 8.83h-1.2zM236.96 143.44l.47-.98c.66.59 1.78 1.02 2.91 1.02 1.53 0 2.18-.59 2.18-1.36 0-2.16-5.35-.79-5.35-4.08 0-1.36 1.06-2.52 3.38-2.52 1.03 0 2.11.28 2.84.78l-.42 1.01a4.58 4.58 0 00-2.42-.72c-1.5 0-2.14.63-2.14 1.4 0 2.16 5.35.81 5.35 4.05 0 1.35-1.08 2.51-3.42 2.51-1.35 0-2.68-.46-3.38-1.11zM248.28 140.03c0-2.59 1.99-4.52 4.71-4.52 2.69 0 4.68 1.92 4.68 4.52 0 2.6-1.99 4.52-4.68 4.52-2.72 0-4.71-1.93-4.71-4.52zm8.12 0c0-1.96-1.46-3.39-3.42-3.39-1.98 0-3.45 1.44-3.45 3.39 0 1.96 1.46 3.39 3.45 3.39 1.96.01 3.42-1.43 3.42-3.39zM260.86 136.71v3.08h4.43v1.08h-4.43v3.57h-1.26v-8.83h6.23v1.1h-4.97zM270.2 143.44l.47-.98c.66.59 1.78 1.02 2.92 1.02 1.53 0 2.18-.59 2.18-1.36 0-2.16-5.35-.79-5.35-4.08 0-1.36 1.06-2.52 3.38-2.52 1.03 0 2.11.28 2.84.78l-.42 1.01a4.58 4.58 0 00-2.42-.72c-1.5 0-2.15.63-2.15 1.4 0 2.16 5.35.81 5.35 4.05 0 1.35-1.09 2.51-3.42 2.51-1.35 0-2.67-.46-3.38-1.11zM285.26 143.35v1.1h-6.41v-8.83h6.23v1.1h-4.97v2.71h4.43v1.07h-4.43v2.85h5.15zM293.21 144.45l-1.91-2.71c-.18.01-.37.02-.56.02h-2.18v2.69h-1.26v-8.83h3.44c2.3 0 3.69 1.16 3.69 3.08 0 1.36-.71 2.35-1.94 2.79l2.09 2.97h-1.37zm-.04-5.76c0-1.26-.84-1.98-2.46-1.98h-2.15v3.98h2.15c1.62 0 2.46-.74 2.46-2zM304.15 135.61l-3.87 8.83h-1.25l-3.89-8.83h1.36l3.18 7.26 3.21-7.26h1.26zM305.28 135.61h1.26v8.83h-1.26v-8.83zM308.47 140.03c0-2.61 1.99-4.52 4.68-4.52 1.36 0 2.55.47 3.36 1.38l-.82.79c-.68-.72-1.51-1.05-2.49-1.05-1.99 0-3.47 1.44-3.47 3.39 0 1.96 1.48 3.39 3.47 3.39.97 0 1.8-.34 2.49-1.06l.82.79c-.81.91-1.99 1.39-3.37 1.39-2.67.02-4.67-1.89-4.67-4.5zM324.73 143.35v1.1h-6.41v-8.83h6.23v1.1h-4.97v2.71h4.43v1.07h-4.43v2.85h5.15z"/></g><g fill="#e0e0e0"><path d="M210.35 153.52l-2.35 7.04h-1.06l-1.92-5.62-1.92 5.62h-1.08l-2.35-7.04h1.04l1.9 5.72 1.98-5.72h.93l1.94 5.75 1.94-5.75h.95zM215.83 158.22h-4.32c.12.94.88 1.56 1.93 1.56.62 0 1.15-.21 1.54-.64l.53.62c-.48.56-1.22.86-2.1.86-1.72 0-2.87-1.14-2.87-2.72 0-1.58 1.14-2.72 2.67-2.72 1.54 0 2.63 1.11 2.63 2.75.01.08 0 .2-.01.29zm-4.33-.69h3.42c-.1-.9-.77-1.53-1.71-1.53-.92 0-1.6.62-1.71 1.53zM217.19 153.1h.97v7.46h-.97v-7.46zM219.5 157.9c0-1.59 1.18-2.72 2.82-2.72.96 0 1.75.39 2.17 1.14l-.73.47c-.34-.52-.86-.76-1.45-.76-1.05 0-1.83.73-1.83 1.87 0 1.16.78 1.88 1.83 1.88.58 0 1.11-.24 1.45-.76l.73.46c-.42.74-1.22 1.15-2.17 1.15-1.64-.01-2.82-1.14-2.82-2.73zM225.16 157.9c0-1.59 1.18-2.72 2.78-2.72 1.6 0 2.77 1.13 2.77 2.72 0 1.59-1.17 2.72-2.77 2.72s-2.78-1.13-2.78-2.72zm4.57 0c0-1.14-.76-1.87-1.79-1.87s-1.8.73-1.8 1.87c0 1.14.77 1.88 1.8 1.88 1.02 0 1.79-.74 1.79-1.88zM240.89 157.5v3.07h-.97v-2.96c0-1.05-.5-1.56-1.38-1.56-.97 0-1.6.61-1.6 1.77v2.75h-.97v-2.96c0-1.05-.5-1.56-1.38-1.56-.97 0-1.6.61-1.6 1.77v2.75h-.97v-5.33h.93v.79c.38-.54 1.04-.84 1.84-.84.81 0 1.5.32 1.85.99.4-.6 1.15-.99 2.05-.99 1.32-.01 2.2.74 2.2 2.31zM247.5 158.22h-4.32c.12.94.88 1.56 1.93 1.56.62 0 1.15-.21 1.54-.64l.53.62c-.48.56-1.22.86-2.1.86-1.72 0-2.87-1.14-2.87-2.72 0-1.58 1.14-2.72 2.67-2.72 1.54 0 2.63 1.11 2.63 2.75.01.08 0 .2-.01.29zm-4.32-.69h3.42c-.1-.9-.77-1.53-1.71-1.53-.93 0-1.61.62-1.71 1.53zM248.64 159.98c0-.36.28-.64.66-.64.37 0 .64.28.64.64 0 .35-.27.64-.64.64-.38 0-.66-.29-.66-.64zm.09-6.46h1.14l-.19 4.82h-.76l-.19-4.82z"/></g><path d="M338.72 400.46h-1.18c-.73 0-1.33-.6-1.33-1.33V108.22c0-.73.6-1.33 1.33-1.33h1.18c.73 0 1.33.6 1.33 1.33v290.91c0 .73-.59 1.33-1.33 1.33z" fill="#e0e0e0"/><path d="M338.72 258.24h-1.18c-.73 0-1.33-.6-1.33-1.33V108.22c0-.73.6-1.33 1.33-1.33h1.18c.73 0 1.33.6 1.33 1.33v148.69c0 .74-.59 1.33-1.33 1.33z" fill="#fba745"/><g fill="#263238"><path d="M163.75 194.52v7.04h-1v-6.16h-1.59v-.88h2.59zM165.27 200.93c0-.4.31-.68.68-.68.36 0 .66.28.66.68s-.3.69-.66.69c-.37 0-.68-.29-.68-.69zM172.25 195.4h-2.41v-.88h5.82v.88h-2.41v6.16h-1v-6.16zM180.86 199.22h-4.32c.12.94.88 1.56 1.93 1.56.62 0 1.15-.21 1.54-.64l.53.62c-.48.56-1.22.86-2.1.86-1.72 0-2.87-1.14-2.87-2.73 0-1.58 1.14-2.72 2.67-2.72 1.54 0 2.63 1.11 2.63 2.75.01.09 0 .21-.01.3zm-4.33-.7h3.42c-.1-.9-.77-1.53-1.71-1.53-.92 0-1.61.63-1.71 1.53zM185.08 196.18v.94c-.08-.01-.15-.01-.22-.01-1.04 0-1.68.63-1.68 1.8v2.65h-.97v-5.33h.93v.89c.34-.62 1.01-.94 1.94-.94zM195.12 198.49v3.07h-.97v-2.96c0-1.05-.5-1.56-1.38-1.56-.97 0-1.6.61-1.6 1.77v2.75h-.97v-2.96c0-1.05-.5-1.56-1.38-1.56-.97 0-1.6.61-1.6 1.77v2.75h-.97v-5.33h.93v.79c.38-.54 1.04-.84 1.84-.84.81 0 1.5.32 1.85.99.4-.6 1.15-.99 2.05-.99 1.31 0 2.2.74 2.2 2.31z"/></g><g fill="#263238"><path d="M166.51 309.92v.88h-5.06v-.68l2.87-2.77c.74-.72.88-1.17.88-1.61 0-.72-.51-1.17-1.5-1.17-.75 0-1.37.24-1.8.76l-.68-.59c.54-.67 1.48-1.07 2.57-1.07 1.47 0 2.41.75 2.41 1.96 0 .68-.2 1.3-1.16 2.21l-2.15 2.07h3.62zM167.42 310.16c0-.4.31-.68.68-.68.36 0 .66.28.66.68s-.3.69-.66.69c-.37 0-.68-.29-.68-.69zM173 303.75h1.01v6.16h3.81v.88H173v-7.04zM178.67 303.81c0-.35.28-.63.65-.63s.65.27.65.61c0 .36-.27.64-.65.64-.37 0-.65-.27-.65-.62zm.17 1.65h.97v5.33h-.97v-5.33zM181.15 308.13c0-1.59 1.18-2.71 2.82-2.71.96 0 1.75.39 2.17 1.14l-.73.47c-.34-.52-.86-.76-1.45-.76-1.05 0-1.83.73-1.83 1.87 0 1.16.78 1.88 1.83 1.88.58 0 1.11-.24 1.45-.76l.73.46c-.42.74-1.22 1.15-2.17 1.15-1.64-.02-2.82-1.16-2.82-2.74zM192.1 308.45h-4.32c.12.93.88 1.56 1.93 1.56.62 0 1.15-.21 1.54-.64l.53.62c-.48.56-1.22.87-2.1.87-1.72 0-2.87-1.14-2.87-2.73 0-1.58 1.14-2.71 2.67-2.71 1.54 0 2.63 1.11 2.63 2.75.01.07 0 .19-.01.28zm-4.32-.7h3.42c-.1-.89-.77-1.53-1.71-1.53-.93 0-1.61.63-1.71 1.53zM198.52 307.72v3.07h-.97v-2.96c0-1.05-.52-1.56-1.44-1.56-1.03 0-1.69.61-1.69 1.77v2.75h-.97v-5.33h.93v.8c.39-.54 1.08-.85 1.92-.85 1.3 0 2.22.74 2.22 2.31zM199.85 308.13c0-1.59 1.18-2.71 2.82-2.71.96 0 1.75.39 2.17 1.14l-.73.47c-.34-.52-.86-.76-1.45-.76-1.05 0-1.83.73-1.83 1.87 0 1.16.78 1.88 1.83 1.88.58 0 1.11-.24 1.45-.76l.73.46c-.42.74-1.22 1.15-2.17 1.15-1.65-.02-2.82-1.16-2.82-2.74zM210.8 308.45h-4.32c.12.93.88 1.56 1.93 1.56.62 0 1.15-.21 1.54-.64l.53.62c-.48.56-1.22.87-2.1.87-1.72 0-2.87-1.14-2.87-2.73 0-1.58 1.14-2.71 2.67-2.71 1.54 0 2.63 1.11 2.63 2.75.01.07 0 .19-.01.28zm-4.32-.7h3.42c-.1-.89-.77-1.53-1.71-1.53-.93 0-1.61.63-1.71 1.53z"/></g><path d="M315.23 217.39c0 .14-34.51.26-77.07.26-42.58 0-77.08-.12-77.08-.26s34.5-.26 77.08-.26c42.56 0 77.07.12 77.07.26zM315.23 229.06c0 .14-34.51.26-77.07.26-42.58 0-77.08-.12-77.08-.26s34.5-.26 77.08-.26c42.56 0 77.07.11 77.07.26z" fill="#263238"/><g><path d="M315.23 240.72c0 .14-34.51.26-77.07.26-42.58 0-77.08-.12-77.08-.26s34.5-.26 77.08-.26c42.56 0 77.07.12 77.07.26z" fill="#263238"/></g><g><path d="M315.23 252.39c0 .14-34.51.26-77.07.26-42.58 0-77.08-.12-77.08-.26s34.5-.26 77.08-.26c42.56 0 77.07.11 77.07.26z" fill="#263238"/></g><g><path d="M315.23 264.05c0 .14-34.51.26-77.07.26-42.58 0-77.08-.12-77.08-.26s34.5-.26 77.08-.26c42.56 0 77.07.12 77.07.26z" fill="#263238"/></g><g><path d="M315.23 275.72c0 .14-34.51.26-77.07.26-42.58 0-77.08-.12-77.08-.26s34.5-.26 77.08-.26c42.56 0 77.07.11 77.07.26z" fill="#263238"/></g><g><path d="M315.23 320.03c0 .14-34.51.26-77.07.26-42.58 0-77.08-.12-77.08-.26s34.5-.26 77.08-.26c42.56 0 77.07.11 77.07.26z" fill="#263238"/></g><g><path d="M315.23 330c0 .14-34.51.26-77.07.26-42.58 0-77.08-.12-77.08-.26s34.5-.26 77.08-.26c42.56 0 77.07.12 77.07.26z" fill="#e0e0e0"/></g><g><path d="M315.23 339.98c0 .14-34.51.26-77.07.26-42.58 0-77.08-.12-77.08-.26s34.5-.26 77.08-.26c42.56 0 77.07.12 77.07.26z" fill="#ebebeb"/></g><g><path fill="#fba745" d="M244.94 369.83h81.54v30.38h-81.54z"/></g><g fill="#fff"><path d="M272.1 386.59h-4.01l-.83 1.89h-1.11l3.42-7.55h1.07l3.43 7.55h-1.13l-.84-1.89zm-.38-.86l-1.63-3.7-1.63 3.7h3.26zM274.45 385.62c0-1.7 1.26-2.91 3.02-2.91 1.03 0 1.88.42 2.33 1.22l-.79.51c-.37-.56-.93-.82-1.55-.82-1.12 0-1.96.79-1.96 2.01 0 1.24.84 2.02 1.96 2.02.63 0 1.19-.26 1.55-.82l.79.5c-.45.8-1.3 1.23-2.33 1.23-1.76-.02-3.02-1.24-3.02-2.94zM280.52 385.62c0-1.7 1.26-2.91 3.02-2.91 1.03 0 1.88.42 2.33 1.22l-.79.51c-.37-.56-.93-.82-1.55-.82-1.12 0-1.96.79-1.96 2.01 0 1.24.84 2.02 1.96 2.02.63 0 1.19-.26 1.55-.82l.79.5c-.45.8-1.3 1.23-2.33 1.23-1.76-.02-3.02-1.24-3.02-2.94zM292.27 385.97h-4.64c.13 1 .94 1.67 2.07 1.67.67 0 1.23-.23 1.65-.69l.57.67c-.52.6-1.31.93-2.25.93-1.84 0-3.07-1.22-3.07-2.92 0-1.69 1.22-2.91 2.87-2.91 1.65 0 2.83 1.19 2.83 2.95-.01.07-.02.2-.03.3zm-4.64-.75h3.67c-.11-.96-.83-1.64-1.83-1.64s-1.74.67-1.84 1.64zM299.64 385.62c0 1.76-1.22 2.92-2.89 2.92-.81 0-1.52-.31-2-.93v2.96h-1.04v-7.81h.99v.91c.46-.64 1.2-.96 2.04-.96 1.68 0 2.9 1.16 2.9 2.91zm-1.05 0c0-1.21-.83-2.01-1.93-2.01-1.09 0-1.92.8-1.92 2.01 0 1.22.83 2.02 1.92 2.02 1.1 0 1.93-.8 1.93-2.02zM304.29 388.14c-.31.27-.79.4-1.25.4-1.15 0-1.81-.64-1.81-1.79v-3.14h-.97v-.85h.97v-1.25h1.04v1.25h1.64v.85h-1.64v3.1c0 .62.32.96.9.96.3 0 .59-.1.81-.27l.31.74z"/></g><g><path d="M157.27 400.45c0 .01-.07-.04-.2-.14-.14-.11-.33-.26-.59-.45-.54-.43-1.34-1.05-2.42-1.91l-.09-.07.11-.04c9.84-3.77 41.93-15.81 81.48-30.56l.14-.05.11.09c1 .8 2.08 1.67 3.16 2.54l.1.08v8.51c0 7.56 0 14.93-.01 21.99v.26h-.25c-23.33-.04-43.72-.07-58.3-.09-7.26-.03-13.07-.06-17.09-.08-1.98-.02-3.51-.03-4.58-.04-.5-.01-.89-.02-1.18-.02-.26 0-.39-.02-.39-.02s.14-.01.41-.02c.29-.01.68-.01 1.19-.02 1.07-.01 2.61-.02 4.6-.04 4.03-.02 9.84-.04 17.11-.08 14.57-.02 34.93-.06 58.22-.09l-.25.25c0-7.06 0-14.43-.01-21.99v-8.39l.1.2c-1.09-.88-2.17-1.74-3.16-2.55l.25.04c-39.55 14.72-71.7 26.62-81.61 30.2l.02-.12c1.06.87 1.84 1.51 2.37 1.95.25.21.43.36.57.48.13.12.19.18.19.18z" fill="#fba745"/><path fill="#fff" d="M154.1 367.53h81.54v30.38H154.1z"/><path d="M235.65 397.91s-.01-.19-.02-.55c0-.37-.01-.89-.02-1.57-.01-1.39-.02-3.42-.04-6.03-.02-5.24-.06-12.81-.1-22.23l.18.18c-20.22.02-49.29.05-81.54.08h-.01l.26-.26c0 10.6-.01 20.86-.01 30.38l-.25-.25c23.53.05 43.88.09 58.37.12 7.24.03 13.02.05 17.01.07 1.98.01 3.51.02 4.57.03.51.01.9.01 1.19.02.26 0 .41.01.41.01s-.12.01-.38.02c-.28 0-.66.01-1.16.02-1.05.01-2.56.02-4.51.03-3.97.02-9.73.04-16.95.07-14.53.03-34.94.07-58.54.12h-.25v-.25c0-9.52-.01-19.78-.01-30.38v-.26h.27c32.25.03 61.32.06 81.54.08h.18v.18c-.04 9.47-.07 17.08-.1 22.34-.02 2.59-.03 4.6-.04 5.99-.01.66-.01 1.17-.02 1.54l-.03.5z" fill="#fba745"/><g fill="#fba745"><path d="M176.45 380.57h3.18c2.43 0 4.08 1.53 4.08 3.78 0 2.24-1.65 3.78-4.08 3.78h-3.18v-7.56zm3.12 6.62c1.87 0 3.06-1.14 3.06-2.84 0-1.69-1.2-2.84-3.06-2.84h-2.04v5.67h2.04zM190.35 385.61h-4.64c.13 1 .94 1.67 2.07 1.67.67 0 1.23-.23 1.65-.69l.57.67c-.52.6-1.31.93-2.25.93-1.84 0-3.07-1.22-3.07-2.92 0-1.69 1.22-2.91 2.87-2.91 1.65 0 2.83 1.19 2.83 2.95 0 .08-.02.21-.03.3zm-4.64-.74h3.67c-.11-.96-.83-1.64-1.83-1.64-.99 0-1.73.67-1.84 1.64zM191.28 385.27c0-1.71 1.26-2.91 3.02-2.91 1.02 0 1.88.42 2.33 1.22l-.79.51c-.37-.56-.93-.82-1.55-.82-1.12 0-1.96.79-1.96 2.01 0 1.24.84 2.02 1.96 2.02.63 0 1.19-.26 1.55-.82l.79.5c-.45.8-1.31 1.23-2.33 1.23-1.76-.02-3.02-1.24-3.02-2.94zM197.89 380.12h1.04v8h-1.04v-8zM200.71 380.64c0-.38.3-.68.7-.68.4 0 .7.29.7.66 0 .39-.29.69-.7.69-.39 0-.7-.29-.7-.67zm.19 1.77h1.04v5.72h-1.04v-5.72zM209.33 384.84v3.29h-1.04v-3.17c0-1.12-.56-1.67-1.54-1.67-1.1 0-1.81.66-1.81 1.9v2.95h-1.04v-5.72h.99v.86c.42-.58 1.15-.92 2.06-.92 1.4-.01 2.38.79 2.38 2.48zM216.43 385.61h-4.64c.13 1 .94 1.67 2.07 1.67.67 0 1.23-.23 1.65-.69l.57.67c-.52.6-1.31.93-2.25.93-1.84 0-3.07-1.22-3.07-2.92 0-1.69 1.22-2.91 2.87-2.91 1.65 0 2.83 1.19 2.83 2.95-.01.08-.02.21-.03.3zm-4.64-.74h3.67c-.11-.96-.83-1.64-1.83-1.64s-1.74.67-1.84 1.64z"/></g><g><path fill="#fff" d="M235.65 397.41l3.16 3.04"/><path d="M238.81 400.45c-.1.1-.89-.49-1.76-1.33-.87-.84-1.5-1.6-1.4-1.71.1-.1.89.49 1.76 1.33.87.85 1.5 1.61 1.4 1.71z" fill="#fba745"/></g></g></g><g><path d="M355.3 392.86l11.64-5.61-6.4-18.91-14.06-3.26a78.28 78.28 0 01-4.4-1.1c-1.9-.53-3.7-1.38-5.32-2.51-1.97-1.36-4.51-3.27-5.58-4.73-1.33-1.81-4.15-1.14-4.14.87.01 2.01 3.54 7.09 9.85 10.67s-4.84 5.32-8.89 6.03c-4.05.7-16.46 3.47-17.2 4.88-1.08 2.07.98 3.65 5.01 2.85 4.07-.81 16.28-2.35 16.61-.2 0 0-.01.02-.04.06-2.03 3.15-1.8 7.26.53 10.19 2.25 2.83 5.64 6.38 8.14 5.84 4.71-1 14.25-5.07 14.25-5.07z" fill="#b78876"/><path d="M354.59 359.57l10.91 36.89 84.71-25.74c18.23-5.54 28.33-24.99 22.38-43.09L451.82 263l-45.11 11.2 24.75 59.78-76.87 25.59z" fill="#fba745"/><path d="M452.12 370.07s-.14.06-.41.15c-.29.09-.69.22-1.22.39-1.09.34-2.68.83-4.74 1.47-4.16 1.27-10.2 3.12-17.78 5.44-15.23 4.62-36.69 11.13-61.66 18.7l-.23.07-.08-.23c-3.78-11.27-7.43-23.68-11.66-36.41l-.08-.25.25-.08c.67-.22 1.4-.47 2.13-.71 28.24-9.38 54.26-18.02 74.77-24.83l-.13.28c-5.97-14.5-10.85-26.39-14.26-34.66-1.68-4.12-2.99-7.34-3.9-9.55-.44-1.09-.77-1.92-1-2.5-.22-.57-.32-.86-.32-.86s.14.28.38.84c.25.58.6 1.4 1.06 2.48.92 2.2 2.27 5.41 4 9.51 3.44 8.26 8.39 20.12 14.42 34.59l.09.2-.21.07c-20.5 6.84-46.5 15.51-74.73 24.93-.73.24-1.46.49-2.13.71l.16-.33c4.23 12.75 7.88 25.15 11.64 36.42l-.31-.16c25-7.5 46.47-13.95 61.71-18.53 7.61-2.26 13.66-4.06 17.83-5.3 2.07-.61 3.66-1.07 4.76-1.39.53-.15.94-.27 1.23-.35.27-.08.42-.11.42-.11z" fill="#263238"/><path d="M447.13 344.75c-.08.05-.64-.93-1.78-2.34-1.13-1.41-2.89-3.2-5.18-4.72-2.3-1.52-4.63-2.45-6.37-2.94-1.74-.5-2.86-.64-2.85-.73 0-.04.29-.03.8.01.51.03 1.25.15 2.14.36 1.79.41 4.21 1.31 6.56 2.86 2.35 1.56 4.12 3.44 5.19 4.93.54.74.93 1.38 1.16 1.83.25.46.36.72.33.74z" fill="#263238"/><path d="M426.6 277.34c-.14 0-.26-2.45-.26-5.47 0-3.02.12-5.47.26-5.47s.26 2.45.26 5.47c0 3.02-.12 5.47-.26 5.47zM443.61 278.21c-.14.04-.96-2.31-1.84-5.24-.88-2.94-1.48-5.35-1.34-5.39.14-.04.96 2.31 1.84 5.24.88 2.94 1.48 5.35 1.34 5.39zM433.06 293.56c-.01.13-2.37.06-5.15-.76-2.78-.81-4.81-2.02-4.74-2.14.07-.14 2.17.85 4.89 1.64 2.72.8 5.01 1.11 5 1.26zM452.3 302.01c-.14-.02.14-2.36.64-5.23.49-2.86 1.01-5.16 1.15-5.14.14.02-.14 2.36-.64 5.23-.49 2.87-1.01 5.17-1.15 5.14zM445.42 315.78c-.13.06-1.24-2.09-2.48-4.8s-2.14-4.96-2.01-5.02c.13-.06 1.24 2.09 2.48 4.8s2.14 4.96 2.01 5.02zM442.6 327.84c-.06.13-2.19-.77-4.74-2.01-2.56-1.24-4.58-2.35-4.52-2.48.06-.13 2.19.77 4.74 2.01 2.56 1.24 4.58 2.35 4.52 2.48zM464.24 324.63c.13.07-.83 2.07-1.9 4.59-1.08 2.51-1.86 4.59-2 4.54-.13-.04.43-2.21 1.52-4.75 1.08-2.53 2.25-4.44 2.38-4.38zM458.22 353.68c-.14.01-.51-2.49-.81-5.59-.31-3.1-.44-5.62-.29-5.64.14-.01.51 2.49.81 5.59.3 3.1.43 5.62.29 5.64zM442.94 362.85c-.1.11-1.88-1.37-3.98-3.3-2.1-1.93-3.72-3.58-3.63-3.68s1.88 1.37 3.98 3.3c2.11 1.93 3.73 3.58 3.63 3.68zM416.54 365.48c.12.09-1.25 2.15-3.06 4.61-1.81 2.46-3.36 4.39-3.48 4.3-.12-.09 1.25-2.15 3.06-4.61 1.8-2.45 3.36-4.38 3.48-4.3zM424.91 353.11c-.09.11-2.02-1.36-4.05-3.55-2.04-2.19-3.35-4.23-3.24-4.31.12-.09 1.61 1.79 3.62 3.95 2.01 2.17 3.77 3.79 3.67 3.91zM404.99 355.92c.04.13-1.74.66-3.98.49-2.25-.16-3.93-.94-3.87-1.06.05-.15 1.75.4 3.91.54 2.16.17 3.91-.12 3.94.03zM392.39 377.8c-.14.02-.59-1.9-1-4.3-.41-2.4-.63-4.36-.49-4.39.14-.02.59 1.9 1 4.3.41 2.4.63 4.36.49 4.39zM377.51 385.34c-.08.12-2.34-1.17-5.04-2.88-2.71-1.71-4.84-3.19-4.77-3.32.08-.12 2.33 1.17 5.04 2.88 2.71 1.72 4.85 3.2 4.77 3.32zM382.82 358.72c.11.1-1.34 1.82-2.96 4.06-1.63 2.24-2.8 4.15-2.94 4.08-.12-.06.87-2.12 2.51-4.38 1.65-2.28 3.29-3.86 3.39-3.76zM371.32 363.77c-.06.13-1.37-.4-2.92-1.17-1.55-.78-2.75-1.51-2.69-1.64s1.37.4 2.92 1.17c1.55.78 2.75 1.51 2.69 1.64z" fill="#fafafa"/><path d="M430.76 332.47c4.53.47 9.05.93 13.57 1.5 1.56.2 3.15.41 4.59 1.04s2.76 1.73 3.29 3.21c.53 1.49.08 3.36-1.26 4.19-1.22.76-2.84.51-4.1-.18-1.26-.68-2.27-1.74-3.38-2.65a18.715 18.715 0 00-6.94-3.63c-1.13-.31-2.32-.53-3.32-1.17-.99-.63-1.75-1.83-1.44-2.97" opacity=".2"/></g></g></svg>