<svg width="80" height="80" viewBox="0 0 80 80" fill="none" xmlns="http://www.w3.org/2000/svg">
<g clip-path="url(#clip0)">
<path d="M13.8099 48.95C14.7721 50.1321 15.7855 51.2715 16.8474 52.365C13.6074 53.345 11.4724 55.1525 10.1424 56.76C8.03242 59.295 6.92742 62.635 7.17992 65.4975H1.60742C2.73742 63.0625 7.20742 56.03 13.8124 48.9475L13.8099 48.95ZM78.4699 67.005H71.6899C56.1199 58.87 42.4349 53.1425 27.9224 51.8875C27.9474 49.8775 28.3224 47.5675 29.0024 45.0325L27.6724 44.6825C26.9724 47.295 26.5924 49.6825 26.5424 51.79C25.0212 51.6894 23.497 51.6393 21.9724 51.64C20.7765 51.6389 19.5831 51.7485 18.4074 51.9675C17.1217 50.687 15.9065 49.3375 14.7674 47.925C21.4474 40.97 32.5174 34.6675 42.0874 32.28C44.7999 41.27 50.5999 47.4225 57.6299 51.565C58.1496 51.2698 58.6607 50.9597 59.1624 50.635L71.4424 63.8675L71.9424 63.8175C75.3074 63.5175 77.1924 65.35 77.6924 65.9275C78.0924 66.3275 78.2924 66.6775 78.4424 67.0075L78.4699 67.005Z" fill="#D1A41B"/>
<path d="M72.4948 22.76C72.7448 34.965 66.4948 44.685 57.8048 49.68C43.0148 42.2975 40.2298 23.615 42.7373 13.595C43.4373 17.4375 44.7223 19.845 47.4823 21.0025C53.4823 19.295 61.7698 19.145 67.8473 20.8275C70.3823 18.97 71.3623 16.1575 71.9148 13.695C72.5648 16.5575 72.4648 22.76 72.4898 22.76H72.4948Z" fill="#FFDC76"/>
<path d="M35.255 34.3125L37.515 41.0175L30.66 36.3975L35.255 34.3125ZM28.65 37.25L31.06 41.4175L25.96 38.83L28.65 37.25ZM23.15 40.515L24.305 44.6825L20.79 42.2725L23.15 40.515ZM60.54 51.715L58.355 55.055L62.1975 53.2975L60.54 51.715ZM63.955 55.5575L60.465 58.245L65.315 56.99L63.955 55.5575ZM55.42 19.27L58.0075 24.945L59.69 19.195L55.42 19.27ZM42.2875 27.5325L46.38 29.7175L42.6875 29.9675L42.2875 27.5325ZM43.2925 31.9775L45.8025 32.9825L43.6925 33.5575L43.2925 31.9775ZM72.5725 29.14L69.2075 30.545L71.97 30.97L72.5725 29.14ZM71.2175 33.2325L68.63 33.9825L70.715 34.7325L71.2175 33.2325ZM40.93 39.4825H49.015V40.4875H40.93V39.4825ZM40.93 37.0975H49.015V38.1025H40.93V37.0975ZM65.59 39.4825H73.675V40.4875H65.59V39.4825ZM65.59 37.0975H73.675V38.1025H65.59V37.0975ZM62.7275 31.1725H49.57V30.2675H53.6625C54.1625 28.1075 54.2625 26.05 53.6625 25.0175C53.4125 24.5675 53.0375 24.3675 52.5325 24.3675C50.1975 24.3675 49.2175 26.8525 49.1925 26.955L48.3675 26.63C48.4175 26.505 49.5975 23.465 52.56 23.465C52.9492 23.4543 53.3336 23.552 53.6704 23.7471C54.0073 23.9422 54.2832 24.2271 54.4675 24.57C55.2175 25.85 55.1175 28.035 54.6175 30.32H61.8C62.755 27.5075 64.7375 26.2025 68.05 26.2025V27.1075C64.435 27.1075 63.43 28.64 62.7 30.3475H66.6175V31.2525L62.7275 31.1725Z" fill="#010202"/>
<path d="M63.3301 35.6425C62.2751 34.06 61.9251 32.73 62.3751 31.1975H61.4701C61.1451 32.2025 61.2701 33.7325 62.0701 35.065H52.9301C53.5405 33.8263 54.0286 32.531 54.3876 31.1975H53.4576C53.0326 32.68 52.4526 34.135 51.8001 35.29L51.6001 35.665L56.7251 38.88L53.8376 40.7875L54.3376 41.5375L57.5526 39.4025L61.0426 41.6625L61.5426 40.9125L58.3276 38.9275C59.991 37.8145 61.6653 36.7178 63.3501 35.6375L63.3301 35.6425ZM57.5301 38.355L53.7376 35.97H61.1451L57.5301 38.355ZM74.0001 21.68C74.0001 20.1225 73.5001 13.52 72.6201 11.71C70.2101 12.64 65.7901 15.6025 64.7851 18.665C59.8413 17.9729 54.8213 18.0319 49.8951 18.84C49.1451 15.55 45.1501 13.04 42.1601 11.6325C40.9051 13.7675 40.3526 18.6875 40.4776 22.1825H40.4526C41.0026 36.8475 48.2126 45.9875 57.6276 51.5375C67.3201 46.0375 74.2526 35.2125 74.0026 21.68H74.0001ZM65.9401 18.8425C65.9651 18.8425 66.0151 18.8675 66.0401 18.8675C65.9901 18.8675 65.9651 18.8425 65.9401 18.8425ZM65.3401 18.7425C65.4151 18.7675 65.5151 18.7675 65.5901 18.7925C65.4901 18.7675 65.4151 18.7425 65.3401 18.7425ZM72.5001 22.735C72.7501 34.94 66.5001 44.66 57.8101 49.655C43.0201 42.2725 40.2101 23.59 42.7426 13.57C43.4426 17.4125 44.7276 19.82 47.4876 20.9775C53.4876 19.27 61.7751 19.12 67.8526 20.8025C70.3876 18.945 71.3676 16.1325 71.9201 13.67C72.5701 16.5325 72.4701 22.735 72.4951 22.735H72.5001Z" fill="#010202"/>
<path d="M78.8 65C77.2675 63.2925 74.305 62.49 71.82 62.565C70.0625 60.455 59.82 49.6825 59.82 49.6825L59.12 50.5875L71.5 63.875L72 63.825C75.365 63.575 77.25 65.3575 77.75 65.935C78.0518 66.2462 78.2904 66.6129 78.4525 67.015H71.675C56.105 58.88 42.42 53.1525 27.9075 51.8975C27.9325 49.8625 28.3075 47.5775 28.9875 45.0425L27.6575 44.6925C26.9575 47.305 26.5775 49.6925 26.5275 51.8C25.0062 51.6994 23.4821 51.6494 21.9575 51.65C20.7616 51.6489 19.5682 51.7585 18.3925 51.9775C17.1062 50.6959 15.8903 49.3456 14.75 47.9325C21.505 40.9025 32.63 34.5475 42.3 32.2125L42 30.8575C31.605 33.3675 20.23 40.2 13.875 46.7775C10.9375 42.81 9.7575 39.545 9.43 37.085C9.005 33.97 9.73 31.085 11.59 28.7975C14.4775 25.2075 18.595 24.955 22.84 25.6575C22.765 26.3325 22.84 26.9625 23.09 27.365C24.195 29.0225 30.2225 29.6 33.79 27.99C31.1525 24.2725 25.78 22.49 24.2975 23.195C23.7975 23.445 23.4425 23.87 23.1925 24.4C21.735 24.15 20.28 23.95 19.225 23.95C15.5075 23.975 12.645 25.28 10.5125 27.9175C8.4275 30.53 7.575 33.7425 8.0775 37.26C8.5775 40.575 10.1875 44.115 12.9525 47.76L11.6225 49.2175C4.9 56.735 0 64.8 0 66.15V66.85H8.865L8.715 66.025C8.215 63.3875 9.215 60.075 11.25 57.6125C12.53 56.055 14.665 54.2975 18.005 53.47C20.9675 56.3825 24.76 59.47 29.005 62.435H35.585V61.735C35.585 60.985 35.21 60.2775 34.505 59.8025C33.475 59.1275 31.8675 59.0525 30.3875 59.5525C28.9825 57.995 28.2025 55.8875 28.0275 53.3025C42.315 54.5575 56.0275 60.3325 71.42 68.395H79.9075L80.0075 67.845C80.1325 67.095 79.7075 65.9875 78.8275 65.0075L78.8 65ZM10.15 56.7125C8.065 59.2475 6.935 62.5875 7.1875 65.45H1.6075C2.7375 63.015 7.2075 56.0075 13.8125 48.9C14.7175 50.03 15.745 51.16 16.85 52.315C14.2293 53.0842 11.8958 54.6138 10.145 56.71L10.15 56.7125Z" fill="#010202"/>
</g>
<defs>
<clipPath id="clip0">
<rect width="80" height="80" fill="white"/>
</clipPath>
</defs>
</svg>
