<svg xmlns="http://www.w3.org/2000/svg" width="35.422" height="37.508" viewBox="0 0 35.422 37.508"><g transform="translate(-26.274 -12.999)"><path d="M238.708,41.991a.517.517,0,0,0,.379.134,16.935,16.935,0,0,1,2.377.056l.05,0a.529.529,0,0,0,.049-1.056,17.972,17.972,0,0,0-2.526-.059.53.53,0,0,0-.329.924Z" transform="translate(-195.893 -25.887)" fill="#17a6af"/><path d="M166.824,49.073a.526.526,0,0,0,.2-.039,16.578,16.578,0,0,1,2.263-.723.529.529,0,1,0-.249-1.029,17.623,17.623,0,0,0-2.408.769.529.529,0,0,0,.2,1.021Z" transform="translate(-129.225 -31.627)" fill="#17a6af"/><path d="M105.983,77.363a.529.529,0,1,0-.573-.89,17.845,17.845,0,0,0-2.022,1.515.529.529,0,1,0,.694.8A16.788,16.788,0,0,1,105.983,77.363Z" transform="translate(-71 -58.502)" fill="#17a6af"/><path d="M327.36,43.964h0a.548.548,0,1,0,.1.769.548.548,0,0,0-.1-.769Z" transform="translate(-277.059 -28.472)" fill="#17a6af"/><path d="M344.9,57.514h0a.548.548,0,1,0,.209.364.548.548,0,0,0-.209-.364Z" transform="translate(-293.242 -40.978)" fill="#17a6af"/><path d="M362.445,71.067h0a.548.548,0,1,0,.209.364.548.548,0,0,0-.209-.364Z" transform="translate(-309.439 -53.486)" fill="#17a6af"/><path d="M379.991,84.62h0a.548.548,0,1,0,.1.769.548.548,0,0,0-.1-.769Z" transform="translate(-325.632 -65.994)" fill="#17a6af"/><path d="M273.146,480.538a16.649,16.649,0,0,1-2.344.391.529.529,0,0,0,.049,1.057l.05,0a17.758,17.758,0,0,0,2.493-.416.53.53,0,0,0-.249-1.029Z" transform="translate(-225.233 -431.48)" fill="#17a6af"/><path d="M199.579,480.937a16.678,16.678,0,0,1-2.344-.391.53.53,0,0,0-.249,1.029,17.758,17.758,0,0,0,2.493.416l.05,0a.529.529,0,0,0,.049-1.056Z" transform="translate(-157.177 -431.487)" fill="#17a6af"/><path d="M431.316,134.657a.53.53,0,0,0-.519.83,16.7,16.7,0,0,1,1.238,2.027.529.529,0,1,0,.941-.486,17.771,17.771,0,0,0-1.317-2.156A.526.526,0,0,0,431.316,134.657Z" transform="translate(-373.245 -112.272)" fill="#17a6af"/><path d="M344.118,451.5a16.636,16.636,0,0,1-2.083,1.14.53.53,0,1,0,.44.963,17.728,17.728,0,0,0,2.216-1.212.529.529,0,1,0-.573-.89Z" transform="translate(-291.13 -404.616)" fill="#17a6af"/><path d="M405.416,401.79a.529.529,0,0,0-.744.088,16.8,16.8,0,0,1-1.6,1.758.529.529,0,1,0,.731.766,17.849,17.849,0,0,0,1.7-1.869A.53.53,0,0,0,405.416,401.79Z" transform="translate(-347.597 -358.712)" fill="#17a6af"/><path d="M463.546,204.112a.532.532,0,0,0,.524.455.549.549,0,0,0,.075-.005.53.53,0,0,0,.449-.6,17.672,17.672,0,0,0-.535-2.47.529.529,0,0,0-1.016.3A16.611,16.611,0,0,1,463.546,204.112Z" transform="translate(-403.076 -173.61)" fill="#17a6af"/><path d="M448.841,336.83a.53.53,0,0,0-.674.327,16.6,16.6,0,0,1-.937,2.185.529.529,0,1,0,.941.486,17.667,17.667,0,0,0,1-2.325.529.529,0,0,0-.327-.673Z" transform="translate(-388.441 -298.838)" fill="#17a6af"/><path d="M30.691,194.4a.529.529,0,0,0,.62-.42,16.6,16.6,0,0,1,.613-2.3.529.529,0,0,0-1-.346,17.654,17.654,0,0,0-.653,2.442.53.53,0,0,0,.42.62Z" transform="translate(-3.679 -164.265)" fill="#17a6af"/><path d="M131.53,452.625a16.689,16.689,0,0,1-2.085-1.141.529.529,0,0,0-.573.89,17.74,17.74,0,0,0,2.218,1.214.523.523,0,0,0,.22.048.53.53,0,0,0,.221-1.011Z" transform="translate(-94.463 -404.601)" fill="#17a6af"/><path d="M27.5,266.8a16.86,16.86,0,0,1-.167-2.371.529.529,0,0,0-1.059,0,17.921,17.921,0,0,0,.178,2.52.532.532,0,0,0,.523.454.55.55,0,0,0,.075-.005A.53.53,0,0,0,27.5,266.8Z" transform="translate(0 -231.554)" fill="#17a6af"/><path d="M470.453,263.9a.53.53,0,0,0-.529.529,16.874,16.874,0,0,1-.167,2.371.529.529,0,0,0,.45.6.555.555,0,0,0,.075.005.532.532,0,0,0,.523-.455,17.928,17.928,0,0,0,.178-2.52A.53.53,0,0,0,470.453,263.9Z" transform="translate(-409.285 -231.558)" fill="#17a6af"/><path d="M39.5,337.152a.529.529,0,0,0-1,.346,17.669,17.669,0,0,0,1,2.323.529.529,0,1,0,.941-.486A16.61,16.61,0,0,1,39.5,337.152Z" transform="translate(-11.253 -298.833)" fill="#17a6af"/><path d="M74.881,401.86a.53.53,0,0,0-.832.655,17.863,17.863,0,0,0,1.7,1.869.529.529,0,1,0,.731-.766A16.805,16.805,0,0,1,74.881,401.86Z" transform="translate(-43.987 -358.695)" fill="#17a6af"/><path d="M58.338,126.245a.53.53,0,0,0-.744.088,17.807,17.807,0,0,0-1.419,2.092.529.529,0,1,0,.917.53,16.72,16.72,0,0,1,1.334-1.967A.53.53,0,0,0,58.338,126.245Z" transform="translate(-27.531 -104.411)" fill="#17a6af"/><path d="M299.29,24.575a.788.788,0,0,0,.831-.279.462.462,0,0,0,.074-.141l.769-2.393,2.126-1.354a.461.461,0,0,0,.118-.107.79.79,0,0,0-.652-1.271l-2.471-.33-1.237-.955,1.7-2.2a.747.747,0,0,0-.135-1.049l-.532-.411a1.035,1.035,0,0,0-1.309.038l-2.075,1.8-3.28-2.534a1.887,1.887,0,1,0-2.307,2.987l3.28,2.534-1.221,2.463a1.035,1.035,0,0,0,.294,1.276l.532.411a.742.742,0,0,0,.455.156.757.757,0,0,0,.1-.006.743.743,0,0,0,.5-.284l1.7-2.2,1.237.955.948,2.3A.787.787,0,0,0,299.29,24.575Zm-.7-3.358a.462.462,0,0,0-.145-.19l-2.377-1.836a.463.463,0,0,0-.566.732l.31.24-1.59,2.058-.391-.3a.107.107,0,0,1-.031-.132l1.39-2.8a.463.463,0,0,0-.132-.572l-3.58-2.766a.962.962,0,1,1,1.176-1.522l3.58,2.765a.463.463,0,0,0,.586-.017l2.361-2.053a.107.107,0,0,1,.136,0l.391.3-1.59,2.058-.31-.24a.463.463,0,0,0-.565.732l2.377,1.836a.463.463,0,0,0,.222.093l2.314.309-1.826,1.163a.462.462,0,0,0-.192.249l-.66,2.055Z" transform="translate(-243.556)" fill="#17a6af"/><path d="M123.139,126.809a11.1,11.1,0,1,0,11.1,11.1A11.111,11.111,0,0,0,123.139,126.809Zm-10.174,11.1a10.186,10.186,0,0,1,9.782-10.165l.473,2.879a.681.681,0,0,1-.3.68l-1.787,1.17a1.6,1.6,0,0,0-.7,1.645l.24,1.258a1.612,1.612,0,0,0,.881,1.146l1.255.6a.683.683,0,0,1,.375.734l-.457,2.54a.681.681,0,0,1-1.288.166l-.46-.99a1.611,1.611,0,0,0-1.456-.929h-1.86a1.6,1.6,0,0,0-.923.292l-1.251.878a.68.68,0,0,1-.548.105l-1.859-.441A10.2,10.2,0,0,1,112.965,137.908Zm15.39,5.538.326,2.989a10.168,10.168,0,0,1-15.387-5.956l1.437.341a1.607,1.607,0,0,0,1.294-.248l1.251-.878a.677.677,0,0,1,.391-.123h1.86a.683.683,0,0,1,.617.394l.46.99a1.593,1.593,0,0,0,1.29.921,1.661,1.661,0,0,0,.171.009,1.591,1.591,0,0,0,1.281-.644,1.614,1.614,0,0,0,.295-.677l.457-2.54a1.611,1.611,0,0,0-.884-1.732l-1.255-.6a.684.684,0,0,1-.373-.486l-.24-1.258a.679.679,0,0,1,.3-.7l1.786-1.17a1.607,1.607,0,0,0,.7-1.6l-.448-2.723a10.161,10.161,0,0,1,7.289,3.677l-.786.56a2.345,2.345,0,0,0-.91,1.327l-.25.976a2.343,2.343,0,0,0,.827,2.427,1.424,1.424,0,0,1,.51,1.427l-.5,2.251a1.415,1.415,0,0,1-.385.7l-.44.436A2.33,2.33,0,0,0,128.355,143.446Zm4.957-5.538a10.159,10.159,0,0,1-3.77,7.9l-.268-2.461a1.41,1.41,0,0,1,.412-1.161l.44-.436a2.338,2.338,0,0,0,.637-1.152l.5-2.251a2.353,2.353,0,0,0-.843-2.358,1.417,1.417,0,0,1-.5-1.468l.25-.976a1.419,1.419,0,0,1,.551-.8l.807-.575a10.116,10.116,0,0,1,1.78,5.742Z" transform="translate(-79.153 -105.036)" fill="#17a6af"/></g></svg>