<svg xmlns="http://www.w3.org/2000/svg" viewBox="0 0 500 500"><path d="M408.39 272.24s-4.81 3.63-4.81 8.44v24.6h35.86v-25.7s-.5-6.31-4.72-7.34h-26.33z" fill="#f5f5f5"/><path d="M406.3 303.94c-.22-2.32-.58-5.18-.53-7.56.06-2.47 1.82-4.92 4.2-5.57 1.89-.52 3.87.17 5.8.49 3.14.52 6.43.03 9.28-1.38 2.42-1.2 4.64-3.08 7.33-3.33 1.76-.16 3.8.66 4.28 2.36.23.81.08 1.67-.04 2.49-.57 3.79.16 8.5.16 12.14-10.02.48-20.43.14-30.48.36M401.31 308.75l5.4-3.47h32.74l5.25 3.47h-43.39" fill="#e0e0e0"/><path d="M400.3 228.74v36.61h44.41v43.39h-43.39v10.4h74.86v-90.41c0-4.31-3.49-7.8-7.8-7.8H408.1c-4.31.02-7.8 3.51-7.8 7.81z" fill="#f5f5f5"/><path d="M476.17 229.58c0 .18-16.99.32-37.94.32-20.96 0-37.94-.14-37.94-.32s16.98-.32 37.94-.32c20.95 0 37.94.14 37.94.32z" fill="#e0e0e0"/><path d="M455.11 319.15c-.18 0-.32-21.93-.32-48.97 0-27.05.14-48.98.32-48.98s.32 21.92.32 48.98c0 27.05-.14 48.97-.32 48.97zM396.28 293.41l-.45-11.09c-.13-3.19.61-6.41 2.41-9.05 1.43-2.1 3.54-3.96 6.54-3.96h29.96v2.93h-29.4s-5.29.56-5.99 7.8c-.7 7.24 0 13.38 0 13.38h-3.07zM414.99 448.53h11.94v21.53h-11.94zM467.76 448.53h11.94v21.53h-11.94zM388.75 319.46h98.91v129.07h-98.91z" fill="#e0e0e0"/><path fill="#f5f5f5" d="M370.63 319.46h96.34v129.07h-96.34zM379.14 448.53h11.94v21.53h-11.94zM447.81 448.53h11.94v21.53h-11.94z"/><path d="M459.3 433.79s-.01-.2-.01-.57c0-.38-.01-.93-.01-1.65-.01-1.46-.02-3.58-.03-6.33-.02-5.49-.04-13.44-.07-23.31l.13.13c-20.7.02-50.1.04-82.68.06h-.01l.19-.19c0 11.14-.01 21.9-.01 31.86l-.19-.19c23.9.04 44.55.07 59.23.09 7.35.02 13.2.04 17.22.05 2.01.01 3.56.02 4.62.02.52.01.92.01 1.2.01.28.01.42.02.42.02s-.13.01-.39.01c-.28 0-.67.01-1.18.01-1.05.01-2.59.01-4.58.02-4.02.01-9.85.03-17.18.05-14.71.02-35.4.05-59.36.09h-.19v-.19c0-9.96 0-20.72-.01-31.86v-.2H376.62c32.58.02 61.98.05 82.68.06h.14v.13c-.03 9.91-.06 17.89-.07 23.4-.01 2.73-.03 4.85-.03 6.3-.01.71-.01 1.25-.01 1.62l-.03.56z" fill="#e0e0e0"/><path d="M420.46 417.86c-.03 0-.04-.22-.15-.59a2.46 2.46 0 00-.92-1.28 2.38 2.38 0 00-2.22-.3c-.82.29-1.52 1.16-1.51 2.18-.01 1.02.69 1.89 1.51 2.18.83.31 1.69.1 2.22-.3.55-.4.81-.92.92-1.28.11-.39.11-.62.15-.61.02 0 .07.22 0 .63-.07.4-.31.99-.9 1.47-.57.47-1.54.76-2.51.42-.95-.31-1.79-1.32-1.78-2.51-.01-1.19.83-2.2 1.78-2.51a2.65 2.65 0 012.51.42c.59.47.83 1.07.9 1.47.07.38.02.61 0 .61zM459.3 395.63s-.01-.2-.01-.57c0-.38-.01-.93-.01-1.65-.01-1.46-.02-3.58-.03-6.33-.02-5.49-.04-13.44-.07-23.31l.13.13c-20.7.02-50.1.04-82.68.06h-.01l.19-.19c0 11.14-.01 21.9-.01 31.86l-.19-.19c23.9.04 44.55.07 59.23.09 7.35.02 13.2.04 17.22.05 2.01.01 3.56.02 4.62.02.52.01.92.01 1.2.01.28.01.42.02.42.02s-.13.01-.39.01c-.28 0-.67.01-1.18.01-1.05.01-2.59.01-4.58.02-4.02.01-9.85.03-17.18.05-14.71.02-35.4.05-59.36.09h-.19v-.19c0-9.96 0-20.72-.01-31.86v-.2H376.62c32.58.02 61.98.05 82.68.06h.14v.13c-.03 9.91-.06 17.89-.07 23.4-.01 2.73-.03 4.85-.03 6.3-.01.71-.01 1.25-.01 1.62l-.03.56z" fill="#e0e0e0"/><path d="M420.46 379.7c-.03 0-.04-.22-.15-.59a2.46 2.46 0 00-.92-1.28 2.38 2.38 0 00-2.22-.3c-.82.29-1.52 1.16-1.51 2.18-.01 1.02.69 1.89 1.51 2.18.83.31 1.69.1 2.22-.3.55-.4.81-.92.92-1.28.11-.39.11-.61.15-.61.02 0 .07.22 0 .63-.07.4-.31.99-.9 1.47-.57.47-1.54.76-2.51.42-.95-.31-1.79-1.32-1.78-2.51-.01-1.19.83-2.2 1.78-2.51.96-.34 1.94-.06 2.51.42.59.47.83 1.07.9 1.47.07.39.02.61 0 .61z" fill="#e0e0e0"/><g><path d="M459.3 357.99s-.01-.2-.01-.57c0-.38-.01-.93-.01-1.65-.01-1.46-.02-3.58-.03-6.33-.02-5.49-.04-13.44-.07-23.32l.13.13c-20.7.02-50.1.04-82.68.06h-.01l.19-.19c0 11.14-.01 21.9-.01 31.86l-.19-.19c23.9.04 44.55.07 59.23.09 7.35.02 13.2.04 17.22.05 2.01.01 3.56.02 4.62.02.52.01.92.01 1.2.01l.42.03s-.13.01-.39.01c-.28 0-.67.01-1.18.01-1.05.01-2.59.01-4.58.02-4.02.01-9.85.03-17.18.05-14.71.02-35.4.05-59.36.09h-.19v-.19c0-9.96 0-20.72-.01-31.86v-.19H376.62c32.58.02 61.98.05 82.68.06h.14v.13c-.03 9.91-.06 17.89-.07 23.4-.01 2.73-.03 4.85-.03 6.3-.01.71-.01 1.25-.01 1.62l-.03.55z" fill="#e0e0e0"/><path d="M420.46 342.06c-.03 0-.04-.22-.15-.59a2.46 2.46 0 00-.92-1.28 2.38 2.38 0 00-2.22-.3c-.82.29-1.52 1.16-1.51 2.18-.01 1.02.69 1.89 1.51 2.18.83.31 1.69.1 2.22-.3.55-.4.81-.92.92-1.28.11-.39.11-.61.15-.61.02 0 .07.22 0 .63-.07.4-.31.99-.9 1.47-.57.47-1.54.76-2.51.42-.95-.31-1.79-1.32-1.78-2.51-.01-1.19.83-2.2 1.78-2.51a2.65 2.65 0 012.51.42c.59.47.83 1.07.9 1.47.07.39.02.61 0 .61z" fill="#e0e0e0"/></g><g><path d="M468.49 319.15c0 .19-18.02.35-40.25.35-22.24 0-40.26-.16-40.26-.35 0-.19 18.02-.35 40.26-.35 22.22 0 40.25.16 40.25.35z" fill="#e0e0e0"/></g><g><path fill="#ebebeb" d="M33.38 412.31h75.18v5.83H33.38z"/><path fill="#e0e0e0" d="M87.91 412.31h20.64v5.83H87.91z"/><path d="M23.83 418.15v26.27h-4.12v2.85h4.12v17.58h76.98v-16h-5.7v-3.48h5.7v-5.23h2.53v-2.38h-3.01v-19.62h-76.5z" fill="#f5f5f5"/><path fill="#e0e0e0" d="M80.37 418.22v46.33h20.44v-15.99h-5.7v-3.2h5.7v-5.22h2.53v-2.67h-3.01v-19.32z"/><path d="M81.82 446.89c0 .16-13.93.29-31.11.29-17.19 0-31.11-.13-31.11-.29 0-.16 13.93-.29 31.11-.29s31.11.13 31.11.29zM81.82 444.22c0 .16-13.93.29-31.11.29-17.19 0-31.11-.13-31.11-.29 0-.16 13.93-.29 31.11-.29s31.11.13 31.11.29zM85.82 437.04c0 .16-13.93.29-31.11.29s-31.11-.13-31.11-.29c0-.16 13.93-.29 31.11-.29s31.11.13 31.11.29zM86.2 456.61c0 .16-13.93.29-31.11.29s-31.11-.13-31.11-.29c0-.16 13.93-.29 31.11-.29s31.11.13 31.11.29z" fill="#e0e0e0"/><path d="M31.45 365.61v26.27h-4.12v2.85h4.12v17.58h76.98v-16h-5.7v-3.48h5.7v-5.23h2.53v-2.38h-3.01V365.6h-76.5z" fill="#f5f5f5"/><path fill="#e0e0e0" d="M87.98 365.69v46.33h20.44v-16h-5.7v-3.19l5.7.11v-5.23l2.59.01-.05-2.71-3.01-.08v-19.32z"/><path d="M89.44 394.35c0 .16-13.93.29-31.11.29s-31.11-.13-31.11-.29 13.93-.29 31.11-.29 31.11.13 31.11.29zM89.44 391.69c0 .16-13.93.29-31.11.29s-31.11-.13-31.11-.29c0-.16 13.93-.29 31.11-.29 17.18-.01 31.11.13 31.11.29zM93.43 384.5c0 .16-13.93.29-31.11.29s-31.11-.13-31.11-.29c0-.16 13.93-.29 31.11-.29 17.19 0 31.11.13 31.11.29zM93.82 404.07c0 .16-13.93.29-31.11.29s-31.11-.13-31.11-.29c0-.16 13.93-.29 31.11-.29s31.11.13 31.11.29z" fill="#e0e0e0"/><g><path fill="#ebebeb" d="M28.34 464.58h75.18v5.83H28.34z"/><path fill="#e0e0e0" d="M82.87 464.58h20.64v5.83H82.87z"/></g></g><g><path d="M53.19 245.79v24.03h-3.77v2.61h3.77v16.08h70.42v-14.64h-5.22v-3.19h5.22v-4.78h2.32v-2.17h-2.75v-17.95H53.19z" fill="#f5f5f5"/><path fill="#e0e0e0" d="M104.91 245.86v42.38h18.7v-14.63h-5.22v-2.92l5.22.1v-4.78h2.36l-.04-2.47-2.76-.07v-17.68z"/><path d="M106.24 272.08c0 .15-12.74.27-28.46.27s-28.46-.12-28.46-.27c0-.15 12.74-.27 28.46-.27 15.72.01 28.46.13 28.46.27zM106.24 269.64c0 .15-12.74.27-28.46.27s-28.46-.12-28.46-.27c0-.15 12.74-.27 28.46-.27 15.72.01 28.46.12 28.46.27zM109.9 263.07c0 .15-12.74.27-28.46.27s-28.46-.12-28.46-.27c0-.15 12.74-.27 28.46-.27 15.71.01 28.46.12 28.46.27zM110.25 280.97c0 .15-12.74.27-28.46.27s-28.46-.12-28.46-.27c0-.15 12.74-.27 28.46-.27 15.71.01 28.46.13 28.46.27z" fill="#e0e0e0"/></g><g><path fill="#fafafa" d="M167.86 89.97H269.9v91.29H167.86z"/><path d="M269.9 181.27s-.02-.59-.03-1.69c-.01-1.12-.01-2.76-.03-4.89-.01-4.29-.03-10.55-.06-18.53-.03-15.95-.07-38.74-.12-66.18l.23.23c-29.39.01-64.46.03-102.04.04h-.01l.27-.27c-.01 33.21-.02 64.47-.03 91.29l-.24-.24 73.81.12c8.95.03 15.99.05 20.82.06 2.4.01 4.25.02 5.51.03.62.01 1.09.01 1.42.01.33.01.5.02.5.02s-.15.01-.46.01c-.33 0-.79.01-1.4.01-1.25.01-3.08.02-5.46.03-4.81.01-11.84.04-20.76.06l-73.96.12h-.24v-.24c-.01-26.83-.02-58.08-.03-91.29v-.27h.28c37.58.02 72.65.03 102.04.04h.23v.23c-.05 27.49-.09 50.34-.12 66.32-.03 7.96-.05 14.21-.06 18.48-.01 2.11-.02 3.74-.03 4.85-.01 1.1-.03 1.65-.03 1.65z" fill="#e0e0e0"/><path d="M206.99 106.19c0 .15-5.37.27-12 .27s-12-.12-12-.27c0-.15 5.37-.27 12-.27s12 .12 12 .27zM250.23 113.05c0 .15-14.76.27-32.95.27-18.2 0-32.96-.12-32.96-.27 0-.15 14.75-.27 32.96-.27 18.19 0 32.95.12 32.95.27zM183.17 124.66h4.3v4.3h-4.3zM193.75 124.66h4.3v4.3h-4.3zM204.53 124.47h4.3v4.3h-4.3zM214.92 124.66h4.3v4.3h-4.3zM225.5 124.66h4.3v4.3h-4.3zM236.08 124.66h4.3v4.3h-4.3z" fill="#e0e0e0"/><path fill="#ebebeb" d="M246.67 124.66h4.3v4.3h-4.3zM183.17 133.8h4.3v4.3h-4.3z"/><path fill="#e0e0e0" d="M193.75 133.8h4.3v4.3h-4.3z"/><path fill="#ebebeb" d="M204.34 133.8h4.3v4.3h-4.3z"/><path fill="#e0e0e0" d="M214.92 133.8h4.3v4.3h-4.3zM225.5 133.8h4.3v4.3h-4.3zM236.28 133.61h4.3v4.3h-4.3zM246.67 133.8h4.3v4.3h-4.3zM183.17 142.94h4.3v4.3h-4.3zM193.95 142.74h4.3v4.3h-4.3zM204.34 142.94h4.3v4.3h-4.3z"/><path fill="#ebebeb" d="M214.92 142.94h4.3v4.3h-4.3z"/><path fill="#e0e0e0" d="M225.5 142.94h4.3v4.3h-4.3zM236.08 142.94h4.3v4.3h-4.3zM246.67 142.94h4.3v4.3h-4.3zM183.17 152.08h4.3v4.3h-4.3zM193.75 152.08h4.3v4.3h-4.3zM204.34 152.08h4.3v4.3h-4.3zM215.11 151.88h4.3v4.3h-4.3zM225.5 152.08h4.3v4.3h-4.3z"/><path fill="#ebebeb" d="M236.08 152.08h4.3v4.3h-4.3z"/><path fill="#e0e0e0" d="M246.67 152.08h4.3v4.3h-4.3zM183.17 161.22h4.3v4.3h-4.3z"/><path fill="#ebebeb" d="M193.75 161.22h4.3v4.3h-4.3z"/><path fill="#e0e0e0" d="M204.34 161.22h4.3v4.3h-4.3zM214.92 161.22h4.3v4.3h-4.3zM225.5 161.22h4.3v4.3h-4.3zM236.28 161.02h4.3v4.3h-4.3z"/><g><path fill="#e0e0e0" d="M246.67 161.22h4.3v4.3h-4.3z"/></g></g><g><path fill="#ebebeb" d="M424.556 110.113h-17.97v-30.96h17.97zM370.65 110.6h-14.19V71.95h14.19z"/><path d="M356.3 74.74c0-.12 3.24-.22 7.24-.22s7.25.1 7.25.22-3.24.22-7.25.22c-3.99 0-7.24-.1-7.24-.22zM357.09 76.57c0-.12 3.07-.22 6.85-.22 3.79 0 6.85.1 6.85.22s-3.07.22-6.85.22-6.85-.1-6.85-.22zM363.15 102.98c-.12 0-.22-5.12-.22-11.43 0-6.32.1-11.44.22-11.44s.22 5.12.22 11.44c0 6.31-.1 11.43-.22 11.43zM356.47 106.52c0-.12 3.11-.22 6.94-.22 3.84 0 6.95.1 6.95.22s-3.11.22-6.95.22c-3.83-.01-6.94-.11-6.94-.22zM356.47 108.17c0-.12 3.19-.22 7.12-.22s7.12.1 7.12.22-3.19.22-7.12.22c-3.94 0-7.12-.1-7.12-.22z" fill="#fafafa"/><path fill="#e0e0e0" d="M382.046 110.6h-11.4V67.77h11.4z"/><path d="M370.57 87.44c.04-.05.71.43 1.76 1.22 1.17.89 2.57 1.95 4.11 3.12 1.54 1.17 2.93 2.24 4.11 3.13 1.05.81 1.68 1.32 1.65 1.37-.03.05-.73-.38-1.83-1.13-1.09-.74-2.58-1.81-4.19-3.03a104.06 104.06 0 01-4.04-3.22c-1-.86-1.6-1.41-1.57-1.46zM370.52 80.73c.08-.09 2.69 2.02 5.83 4.71s5.63 4.95 5.55 5.04c-.08.09-2.69-2.02-5.83-4.71s-5.62-4.95-5.55-5.04z" fill="#fafafa"/><path fill="#ebebeb" d="M326.569 110.63h-5.45v-40.8h5.45z"/><path d="M321.34 75.39c0 .14 1.14.26 2.55.26s2.55-.12 2.55-.26-1.14-.26-2.55-.26-2.55.11-2.55.26z" fill="#fafafa"/><ellipse cx="323.78" cy="74.5" rx="2.55" ry=".26" fill="#fafafa"/><path d="M321.34 107.48c0 .14 1.14.26 2.55.26s2.55-.11 2.55-.26c0-.14-1.14-.26-2.55-.26s-2.55.11-2.55.26zM321.23 106.59c0 .14 1.14.26 2.55.26s2.55-.11 2.55-.26c0-.14-1.14-.26-2.55-.26s-2.55.12-2.55.26zM324 101.26c.14 0 .26-4.67.26-10.44s-.12-10.44-.26-10.44-.26 4.67-.26 10.44c.01 5.76.12 10.44.26 10.44z" fill="#fafafa"/><g><path fill="#e0e0e0" d="M356.446 110.366h-10.9v-40.8h10.9z"/><path d="M353.38 110.89c.01 0 .05-.07.13-.22s.18-.38.31-.68c.25-.61.6-1.52.79-2.77.17-1.22.22-2.86-.64-4.49-.43-.8-1.07-1.56-1.93-2.13-.86-.56-1.98-.93-3.14-.74-.58.1-1.15.34-1.62.75-.47.4-.82 1.04-.78 1.72.03.68.42 1.3.93 1.73.51.43 1.17.73 1.86.79 1.38.16 2.82-.42 3.86-1.41 1.09-.97 1.75-2.42 1.92-3.92.18-1.51-.06-3.07-.56-4.55-.51-1.48-1.34-2.94-2.67-3.98-.66-.51-1.48-.87-2.35-.93-.87-.08-1.8.2-2.45.87-.32.33-.54.8-.56 1.28-.02.48.13.95.38 1.33.49.79 1.32 1.29 2.2 1.5 1.78.38 3.64-.32 4.8-1.61 1.17-1.29 1.7-2.98 1.87-4.59.16-1.62.04-3.26-.47-4.76-.5-1.5-1.48-2.85-2.82-3.62-1.3-.79-2.95-1.05-4.33-.45-.68.28-1.29.91-1.41 1.66-.14.74.07 1.49.5 2.06.91 1.15 2.48 1.34 3.67.97 1.23-.38 2.17-1.2 2.9-2.06a9.242 9.242 0 002.17-5.6c.06-1.81-.43-3.32-1.01-4.43a8.89 8.89 0 00-1.71-2.31 7.13 7.13 0 00-.57-.49c-.13-.1-.21-.15-.21-.14-.07.05 1.19.82 2.31 3.03.53 1.1.99 2.59.9 4.33a9.01 9.01 0 01-2.16 5.37c-.71.82-1.62 1.58-2.73 1.91-1.08.33-2.48.12-3.22-.85-.36-.47-.52-1.12-.4-1.72.1-.61.56-1.08 1.16-1.33 1.21-.51 2.71-.29 3.91.45 1.22.72 2.13 1.96 2.6 3.38.48 1.42.59 2.99.43 4.55-.17 1.54-.67 3.13-1.75 4.3-1.04 1.16-2.75 1.79-4.31 1.45-.76-.18-1.48-.62-1.88-1.27-.42-.64-.41-1.47.12-1.99.51-.53 1.3-.78 2.04-.71.76.05 1.48.36 2.08.82 1.22.94 2.02 2.32 2.51 3.73.49 1.43.72 2.92.56 4.34-.16 1.42-.76 2.74-1.76 3.65-.97.92-2.27 1.45-3.51 1.31-1.2-.1-2.37-1.01-2.44-2.12-.04-.54.23-1.06.64-1.42.4-.36.92-.59 1.43-.68 1.05-.18 2.09.14 2.9.66.81.53 1.44 1.24 1.86 2 .84 1.52.83 3.12.69 4.32-.16 1.22-.47 2.14-.69 2.76-.23.63-.37.94-.35.95z" fill="#fafafa"/></g><g><path fill="#fafafa" d="M345.391 110.384h-18.92v-37.16h18.92z"/><path d="M327.13 79.4c0 .14 4.1.26 9.15.26 5.06 0 9.16-.11 9.16-.26 0-.14-4.1-.26-9.16-.26-5.05 0-9.15.12-9.15.26zM326.89 82.22c0 .14 4.05.26 9.04.26 4.99 0 9.04-.11 9.04-.26 0-.14-4.05-.26-9.04-.26-4.99 0-9.04.12-9.04.26zM326.28 106.19c0 .14 4.26.26 9.52.26s9.52-.11 9.52-.26-4.26-.26-9.52-.26c-5.25 0-9.52.11-9.52.26zM326.54 102.88c0 .14 4.15.26 9.27.26 5.12 0 9.27-.12 9.27-.26s-4.15-.26-9.27-.26c-5.12 0-9.27.11-9.27.26z" fill="#e0e0e0"/></g><g><path fill="#ebebeb" d="M392.938 110.113h-10.9v-40.8h10.9z"/><path d="M389.87 110.63c.01 0 .05-.07.13-.22s.18-.38.31-.68c.25-.61.6-1.52.79-2.77.17-1.22.22-2.86-.64-4.49-.43-.8-1.07-1.56-1.93-2.13-.86-.56-1.98-.93-3.14-.74-.58.1-1.15.34-1.62.75-.47.4-.82 1.04-.78 1.72.03.68.42 1.3.93 1.73.51.43 1.17.73 1.86.79 1.38.16 2.82-.42 3.86-1.41 1.09-.97 1.75-2.42 1.92-3.92.18-1.51-.06-3.07-.56-4.55-.51-1.48-1.34-2.94-2.67-3.98-.66-.51-1.48-.87-2.35-.93-.87-.08-1.8.2-2.45.87-.32.33-.54.8-.56 1.28-.02.48.13.95.38 1.33.49.79 1.32 1.29 2.2 1.5 1.78.38 3.64-.32 4.8-1.61 1.17-1.29 1.7-2.98 1.87-4.59.16-1.62.04-3.26-.47-4.76-.5-1.5-1.48-2.85-2.82-3.62-1.3-.79-2.95-1.05-4.33-.45-.68.28-1.29.91-1.41 1.66-.14.74.07 1.49.5 2.06.91 1.15 2.48 1.34 3.67.97 1.23-.38 2.17-1.2 2.9-2.06a9.242 9.242 0 002.17-5.6c.06-1.81-.43-3.32-1.01-4.43a8.89 8.89 0 00-1.71-2.31 7.13 7.13 0 00-.57-.49c-.13-.1-.21-.15-.21-.14-.07.05 1.19.82 2.31 3.03.53 1.1.99 2.59.9 4.33a9.01 9.01 0 01-2.16 5.37c-.71.82-1.62 1.58-2.73 1.91-1.08.33-2.48.12-3.22-.85-.36-.47-.52-1.12-.4-1.72.1-.61.56-1.08 1.16-1.33 1.21-.51 2.71-.29 3.91.45 1.22.72 2.13 1.96 2.6 3.38.48 1.42.59 2.99.43 4.55-.17 1.54-.67 3.13-1.75 4.3-1.04 1.16-2.75 1.79-4.31 1.45-.76-.18-1.48-.62-1.88-1.27-.42-.64-.41-1.47.12-1.99.51-.53 1.3-.78 2.04-.71.76.05 1.48.36 2.09.82 1.22.94 2.02 2.32 2.51 3.73.49 1.43.72 2.92.56 4.34-.16 1.42-.76 2.74-1.76 3.65-.97.92-2.27 1.45-3.51 1.31-1.2-.1-2.37-1.01-2.44-2.12-.04-.54.23-1.06.64-1.42.4-.36.92-.59 1.43-.68 1.05-.18 2.09.14 2.9.66.81.53 1.44 1.24 1.86 2 .84 1.52.83 3.12.69 4.32-.16 1.22-.47 2.14-.69 2.76-.24.63-.38.94-.36.95z" fill="#fafafa"/></g><g><path fill="#e0e0e0" d="M321.118 110.103h-15.15v-42.86h15.15z"/></g><g><path fill="#e0e0e0" d="M407.109 110.107h-14.17v-38.16h14.17z"/></g><g><path d="M407.46 90.98c.06-.07.72.84 2.25 1.6.76.38 1.73.7 2.85.79a7.4 7.4 0 003.54-.61c1.2-.51 2.29-1.17 3.4-1.55 1.1-.4 2.21-.52 3.09-.28.88.22 1.48.69 1.79 1.08.31.39.37.68.35.68-.04.02-.14-.24-.48-.57-.33-.33-.91-.74-1.73-.9-.82-.18-1.84-.04-2.89.36-1.06.39-2.13 1.04-3.37 1.57a7.46 7.46 0 01-3.74.61 7.82 7.82 0 01-2.96-.92c-.78-.42-1.32-.91-1.65-1.27-.33-.34-.47-.58-.45-.59z" fill="#fafafa"/></g><g><path d="M407.14 94.76c.06-.07.72.84 2.25 1.6.76.38 1.73.7 2.85.79 1.12.09 2.35-.09 3.54-.62 1.2-.51 2.29-1.17 3.4-1.55 1.1-.4 2.21-.52 3.09-.28.88.22 1.48.69 1.79 1.08.31.39.37.68.35.68-.04.02-.14-.24-.48-.57a3.45 3.45 0 00-1.73-.9c-.82-.18-1.84-.04-2.89.36-1.06.39-2.13 1.04-3.37 1.57a7.46 7.46 0 01-3.74.61 7.762 7.762 0 01-2.96-.92c-.78-.42-1.32-.91-1.65-1.27-.33-.34-.47-.57-.45-.58z" fill="#fafafa"/></g><g><path d="M407.38 82.53c0-.12 3.9-.22 8.71-.22 4.81 0 8.71.1 8.71.22s-3.9.22-8.71.22c-4.81 0-8.71-.1-8.71-.22z" fill="#fafafa"/></g><g><path d="M400.96 78.1c-.03.07-.47-.32-1.23-.1-.36.1-.78.36-.96.79-.2.42-.04 1 .36 1.38.4.39.98.52 1.4.31.42-.2.67-.63.76-.99.19-.77-.22-1.19-.15-1.23.01-.02.14.05.27.26.13.21.24.57.18 1.02-.07.43-.31.98-.88 1.29-.57.32-1.37.14-1.87-.35-.51-.48-.72-1.27-.43-1.86.28-.58.82-.85 1.25-.93.45-.08.82.01 1.03.14.21.13.28.25.27.27z" fill="#fafafa"/></g><g><path d="M400.04 106.29c-.12 0-.22-5.35-.22-11.95s.1-11.95.22-11.95.22 5.35.22 11.95-.1 11.95-.22 11.95z" fill="#fafafa"/></g><g><path fill="#ebebeb" d="M292.71 109.89h146.65v8.37H292.71z"/></g><g><path fill="#e0e0e0" d="M426.55 109.89h12.8v8.37h-12.8z"/></g></g><g><path d="M391.43 245.94c7.03-8.35 11.05-10.65 16.13-16.32 4.29-4.78 8.65-9.68 11.16-15.58 2.51-5.91 2.89-13.12-.65-18.47 0 0-11.26-2.3-19.63-2.75-8.37-.45-12.26-.39-12.26-.39l-4.64 14.03 8.38 3.42-17.17 15.53-13.55 15.76 6.74 19.52 9.12.84 16.37-15.59z" fill="#ffbe9d"/><path d="M403.42 196.93c.05.06-.82.92-2.22 2.3-1.52 1.49-3.41 3.35-5.5 5.41-2.16 2.11-4.14 3.99-5.62 5.3-1.47 1.32-2.43 2.09-2.48 2.03-.05-.06.82-.92 2.22-2.3 1.52-1.49 3.41-3.35 5.5-5.41 2.16-2.11 4.14-3.99 5.61-5.3 1.49-1.31 2.45-2.08 2.49-2.03zM415.83 200.63c-.06.06-.46-.39-1.26-.86-.79-.47-2.04-.92-3.43-.8-1.39.12-2.54.79-3.23 1.39-.71.6-1.02 1.11-1.09 1.06-.05-.02.15-.62.84-1.33.67-.71 1.9-1.5 3.44-1.64 1.54-.13 2.89.43 3.67 1.01.8.59 1.1 1.14 1.06 1.17z" fill="#eb996e"/><path d="M385.31 199.02c2.99-.86 4.75-4.61 3.5-7.46-.58-1.33-1.66-2.37-2.49-3.56-.47-.68-.85-1.42-1.18-2.19l-1.38-4.25c-.93-3.56-1.71-7.15-4.47-9.4-2.51-2.04-5.99-2.34-8.88-3.79-2.11-1.05-3.87-2.69-5.94-3.82-2.07-1.13-4.73-1.68-6.73-.44-1.18.73-1.96 1.97-3.15 2.69-2.44 1.48-5.94.38-8.18 2.15-1.82 1.44-1.99 4.14-3.3 6.06-1.43 2.08-2.29 4.04-4.55 5.16s-3.57 3.3-3.6 5.82c-.02 2.22-.32 3.23-.38 5.45-.05 1.62-.89 3.25-1.53 4.74-.64 1.49-1.86 7.26-.54 8.2l15.08 6.8c4.77 4.68 9.7 9.47 15.88 12l1.19 1.61c-1.42.17 15.09-1.48 17.85-11.4.38-1.38.8-2.74 1.72-3.84.92-1.1 1.98-2.11 2.61-3.41 1.11-2.36.46-5.43-1.53-7.12z" fill="#263238"/><path d="M369.38 215.73c3.1-3.65 6.2-7.34 8.63-11.47 2.43-4.13 4.18-8.76 4.34-13.55.02-.73-.23-5.77-.93-5.98-.5-.15-.89 4.3-1.3 4.61-3.93 3.01-6.52 7.52-8.03 12.24-1.51 4.72-2.24 9.22-2.71 14.15" fill="#263238"/><path d="M339.56 246.53c6.93 2.68 20.9-9.13 20.9-9.13l16.31-38.4c4.93-10.96 2.66-22.97-8.44-27.59l-1.05-.37c-10.57-3.7-22.21 1.34-26.74 11.57-4.22 9.52-8.76 20.1-10.53 25.38-3.67 10.93 6.62 16.43 6.62 16.43.02.01-.96 2.5-2.21 5.64-2.81 7.08 2.29 15.58 5.14 16.47z" fill="#ffbe9d"/><path d="M336.63 224.44s6.72 2.8 15.64.77c0 0-6.22 6.71-16.74 1.93l1.1-2.7z" fill="#eb996e"/><path d="M339.23 192.27c.12.27 1.6-.19 3.28.4 1.68.56 2.6 1.85 2.86 1.71.12-.06.05-.49-.35-1.07-.39-.57-1.16-1.26-2.2-1.62-1.04-.36-2.05-.28-2.7-.07-.65.22-.95.52-.89.65zM355.67 197.31c.12.27 1.61-.19 3.28.4 1.68.56 2.6 1.86 2.86 1.71.12-.06.05-.49-.35-1.07-.39-.57-1.16-1.26-2.2-1.62-1.04-.36-2.05-.28-2.7-.07-.65.22-.96.53-.89.65zM346.94 205.11c.04-.09-.94-.64-2.55-1.44-.41-.19-.79-.42-.76-.74.01-.34.35-.74.73-1.17.76-.89 1.56-1.83 2.4-2.81 3.37-4.02 5.98-7.38 5.81-7.51-.16-.13-3.03 3.01-6.4 7.03-.82.99-1.61 1.94-2.35 2.85-.33.43-.8.88-.81 1.6 0 .36.24.7.48.87.24.18.48.27.69.35 1.67.69 2.72 1.07 2.76.97zM351.46 207.99c-.27-.11-.91 1.7-2.91 2.45-2 .75-3.87-.13-3.97.12-.07.1.31.5 1.12.81.79.31 2.05.46 3.28 0 1.22-.46 2-1.37 2.32-2.09.33-.73.29-1.25.16-1.29zM359.91 187.6c.01.51 1.75.88 3.63 1.8 1.9.89 3.28 2.01 3.68 1.7.18-.15.06-.68-.43-1.34-.48-.66-1.35-1.43-2.48-1.98-1.13-.54-2.28-.73-3.09-.69-.82.04-1.31.27-1.31.51zM343.93 182.63c.16.48 1.45.49 2.84.96 1.41.42 2.47 1.15 2.88.85.19-.15.13-.6-.25-1.14-.38-.54-1.12-1.12-2.08-1.43-.96-.3-1.91-.25-2.53-.03-.63.23-.93.56-.86.79z" fill="#263238"/><path d="M373.06 206.75c.21-.02 8.25.4 5.41 7.76-2.84 7.36-9.64 2.99-9.57 2.77.07-.21 4.16-10.53 4.16-10.53z" fill="#ffbe9d"/><path d="M372.23 215.37c.04-.01.09.14.27.32.17.18.51.39.95.39.89.01 2.02-.97 2.57-2.28.28-.66.38-1.35.35-1.97-.02-.63-.22-1.14-.58-1.36a.7.7 0 00-.89.06c-.18.17-.19.33-.23.33-.03.01-.11-.18.07-.47.09-.13.24-.27.47-.35.23-.08.52-.05.78.09.55.26.86.98.9 1.66.07.7-.04 1.48-.35 2.22-.62 1.46-1.91 2.56-3.1 2.46-.57-.06-.94-.39-1.1-.65-.17-.27-.14-.45-.11-.45z" fill="#eb996e"/><path d="M350.11 172.35c-.93-1.13 4.16-3.56 7.6-3.72 5.2-.25 12.42 1.18 16.03 3.95 4.34 3.33 7.44 7.37 8.14 12.8.69 5.43-.44 10.98-2.6 16.01-.66 1.53-1.46 3.09-2.81 4.07-1.67 1.22-4.04 1.46-4.84 3.73-.29.83-.85 1.56-1.65 1.94-1.91.9-3.02-1.1-3.24-2.74-.47-3.51.71-7.01 1.87-10.36.83-2.38 1.68-4.81 3.23-6.79.84-1.08 1.88-2.01 2.66-3.13.78-1.13 1.3-2.55.93-3.87-.06-.21-.19-.5-.36-.84a8.238 8.238 0 00-7.01-4.45c-4.71-.18-12.63-.79-13.91-2.92-1.85-3.07-1.96-4.63-1.96-4.63l-2.08.95z" fill="#263238"/><g><path d="M373.74 171.43c-3.5-2.94-8.11-4.69-12.66-4.23-2.41.25-4.88 1.19-6.35 3.12-1.47 1.93-1.6 4.97.15 6.65l.11.15c2.71 2.29 4.91 2.68 8.46 2.84 2.98.13 5.96-.56 8.95-.42 3.17.16 6.29 1.29 8.82 3.2-1.54-4.31-3.98-8.37-7.48-11.31z" fill="#263238"/></g><g><path d="M384.31 187.23c.05.03-.41.8-1.41 1.85-.99 1.05-2.57 2.33-4.56 3.3-1.99.97-3.97 1.43-5.41 1.57-1.44.14-2.33.03-2.33-.02-.03-.18 3.61-.08 7.5-2.02 3.93-1.88 6.09-4.81 6.21-4.68z" fill="#455a64"/></g><g><path d="M386.8 189.63c.03.01-.07.32-.31.84s-.65 1.26-1.24 2.11c-1.17 1.7-3.24 3.82-6.1 5.24-2.86 1.43-5.79 1.81-7.85 1.73-1.04-.03-1.87-.15-2.43-.27-.57-.12-.87-.22-.86-.26.02-.09 1.26.18 3.3.16 2.02-.02 4.85-.45 7.62-1.83 2.76-1.38 4.81-3.39 6.03-4.99 1.22-1.61 1.75-2.78 1.84-2.73z" fill="#455a64"/></g><g><path d="M289.71 270.97l-35.41-36.98-7.61 11.99 9.39 17.95s10.24 16.75 15.5 22.66c5.27 5.91 5.65 4.63 5.65 4.63l12.48-20.25z" fill="#ffbe9d"/><path d="M241.23 223.3c-.11-.08-6.32-.99-8.79-1.35a2.63 2.63 0 00-1.83.41l-3.72 2.47-3.05 6.47.91.6-.93 5.84s1.47 1.61 2.96-.22c1.48-1.82 2.7-4.39 2.7-4.39l4.03-.07-.18.37-4.13 1.05-1.37 3.52 1.23 3.63 2.78 2.54 1.2-.05 2.26 1.36s2.29-2.01.35-3.95c0 0 1.87 1.84 2.9 1.12l8.4 3.82 6.61-6.38 1.8-5.08s-10.53-10.32-11.17-10.81c-.63-.48-2.96-.9-2.96-.9z" fill="#ffbe9d"/><path d="M235.7 241.42c-.08-.02.04-.51-.07-1.27-.1-.75-.5-1.81-1.4-2.51-.05-.04-.1-.08-.15-.11l-.16-.12.06-.18c.34-1.07.27-2.12.1-2.84-.16-.72-.38-1.14-.31-1.18.05-.03.39.33.66 1.08.27.74.42 1.9.05 3.09l-.1-.29c.06.04.11.09.17.13 1.06.83 1.44 2.06 1.45 2.89.01.86-.25 1.33-.3 1.31zM232.71 244.12c-.05-.06.48-.38.72-1.22.27-.83-.04-2.08-.88-3.17-.22-.31-.46-.6-.69-.89l-.09-.11.05-.13c.37-.99 0-1.97-.44-2.44-.45-.5-.87-.65-.84-.72.01-.05.49-.02 1.07.49.58.47 1.12 1.63.69 2.85l-.04-.25c.23.28.48.58.72.9.43.58.77 1.23.91 1.87.15.64.09 1.26-.1 1.72-.39.95-1.08 1.16-1.08 1.1z" fill="#eb996e"/><path d="M233.92 237.45c.08.12-.29.49-.82.82-.53.33-1.02.5-1.1.38-.08-.12.29-.49.82-.82.53-.33 1.02-.5 1.1-.38zM235.25 242.01c-.15.03-.37-.72-.96-1.42-.57-.72-1.25-1.08-1.2-1.22.03-.14.93.05 1.6.89.69.83.7 1.75.56 1.75zM237.83 242.03c-.15-.06.68-1.92.97-4.36.32-2.44-.02-4.44.14-4.47.12-.04.71 1.99.38 4.53-.31 2.54-1.38 4.37-1.49 4.3zM229.28 227.69c.06.03-.01.39-.21.95-.21.56-.55 1.34-1.18 2.05-.64.72-1.47 1.11-2.1 1.18-.63.08-1-.11-.98-.16.01-.08.38-.04.91-.2.53-.15 1.22-.53 1.78-1.17.57-.64.94-1.35 1.23-1.86.29-.51.49-.82.55-.79zM233.69 232.33c-.09-.12.12-.42.35-.79.23-.36.41-.69.55-.66.14.02.17.48-.11.94-.29.46-.71.63-.79.51z" fill="#eb996e"/><g><path d="M207.81 221.94l.11 15.14c.04 5.09 20.5 4.93 20.24-.14-.01-.3-.11-15.14-.11-15.14l-20.24.14z" fill="#455a64"/><path d="M227.55 224.46c1.21-.18 2.44-.17 3.64.04.87.15 1.79.45 2.31 1.18.4.56.49 1.28.55 1.97.12 1.33.16 2.72-.39 3.93-.52 1.13-1.52 1.97-2.65 2.44s-2.37.59-3.59.52c.01-.77.01-1.54.02-2.31.72.01 1.45.02 2.15-.13.71-.15 1.4-.46 1.88-1.01.78-.89.87-2.2.78-3.4-.03-.47-.1-.96-.38-1.34-.4-.52-1.11-.66-1.76-.66-.85 0-1.71.17-2.5.51" fill="#455a64"/></g><g><path d="M220.54 191.05s-.11.13-.43.18c-.31.04-.82-.1-1.2-.57-.19-.23-.36-.54-.41-.91-.06-.37.05-.83.37-1.14.61-.67 1.79-.8 2.74-.25.99.58 1.41 1.9 1.22 3.13-.16 1.27-.95 2.41-1.8 3.45-.85 1.04-1.84 2.08-2.31 3.4-.48 1.3-.25 2.89.76 3.98.99 1.12 2.34 1.87 3.4 2.97.53.54.95 1.24 1.07 2 .15.76-.04 1.52-.36 2.15-.65 1.28-1.77 2.08-2.75 2.75-.99.67-1.9 1.3-2.52 2.07a7.27 7.27 0 00-1.64 4.34c-.03 1.13.16 1.74.11 1.75-.02 0-.07-.14-.15-.44-.06-.29-.16-.74-.16-1.31a7.25 7.25 0 011.55-4.57c.64-.84 1.59-1.51 2.56-2.19.97-.68 1.99-1.46 2.57-2.62.28-.57.43-1.22.3-1.85-.11-.64-.47-1.23-.95-1.73-.98-1.02-2.34-1.77-3.42-2.98-1.13-1.21-1.4-3.05-.85-4.49.54-1.46 1.58-2.51 2.42-3.53.85-1.01 1.58-2.07 1.74-3.21.19-1.11-.18-2.27-.99-2.75-.8-.49-1.84-.4-2.34.14-.55.53-.33 1.32-.01 1.73.32.44.75.6 1.03.59.3-.03.43-.12.45-.09z" fill="#263238"/></g><g><path d="M229.04 225.79l7.99-.38 9.08 2.58 11.33 9.67s-8.65 6.42-11.45 3.61c-2.81-2.8-6.07-9.01-6.07-9.01l-3.22-1.36c0 .01-10.6-.01-7.66-5.11z" fill="#ffbe9d"/></g><g><path d="M252.2 233.2c-.01.01-.17-.1-.46-.32-.33-.27-.74-.59-1.24-1-1.13-.93-2.65-2.2-4.51-3.74l.07.04c-2.57-.71-5.67-1.57-9.1-2.52l.08.01c-2.48.12-5.18.25-7.99.39l.21-.13-.06.12c-.48.83-.6 1.82-.03 2.51.55.69 1.45 1.07 2.31 1.36 1.75.54 3.56.71 5.21.76h.05l.04.02c1.13.48 2.2.94 3.21 1.38l.07.03.04.07c1.54 2.91 2.98 5.22 4.07 6.76.54.78 1.01 1.35 1.32 1.75.33.38.5.59.48.61-.02.02-.21-.16-.58-.52-.35-.37-.85-.93-1.42-1.69-1.16-1.51-2.66-3.8-4.25-6.71l.11.1c-1.02-.42-2.1-.87-3.23-1.34l.09.02c-1.71-.03-3.52-.19-5.36-.75-.9-.3-1.87-.68-2.56-1.53-.34-.42-.53-.99-.5-1.54.03-.55.21-1.07.47-1.53.02-.05.05-.09.07-.13l.06-.12.15-.01c2.81-.13 5.51-.25 7.99-.37h.04l.04.01c3.42.99 6.5 1.89 9.07 2.64l.04.01.03.03 4.4 3.87c.47.43.86.79 1.18 1.07.27.23.41.37.39.39z" fill="#eb996e"/></g><g><path d="M227.96 237.58c.02.03-.22.19-.68.46-.23.14-.51.28-.86.43-.34.16-.73.33-1.18.48-1.77.67-4.36 1.21-7.25 1.18-2.89-.02-5.47-.62-7.24-1.25-.89-.32-1.59-.62-2.05-.87-.47-.24-.72-.39-.7-.43.04-.08 1.09.41 2.87.95 1.77.53 4.3 1.06 7.13 1.08 2.83.03 5.37-.44 7.13-1 1.77-.55 2.79-1.11 2.83-1.03z" fill="#263238"/></g><g><path d="M228.11 237.45c-.14 0-.27-3.5-.29-7.82-.02-4.32.09-7.82.23-7.82s.27 3.5.29 7.82c.01 4.32-.09 7.82-.23 7.82z" fill="#263238"/></g><g><path d="M218.07 220.85c-.02.01-.07-.08-.17-.25a2.8 2.8 0 01-.26-.83c-.15-.75-.03-1.9.6-3.11.61-1.23 1.82-2.36 3.17-3.47 1.33-1.11 2.86-2.35 3.55-4.19.35-.9.41-1.87.1-2.71-.29-.85-.89-1.54-1.49-2.14-1.23-1.18-2.55-2.21-3.12-3.5-.6-1.28-.31-2.52.13-3.14.22-.32.46-.51.64-.61.18-.1.28-.12.29-.11.03.05-.39.2-.75.82-.35.6-.55 1.74.03 2.87.56 1.16 1.83 2.11 3.13 3.31.63.62 1.29 1.35 1.63 2.32.36.96.28 2.08-.1 3.06-.76 2.01-2.39 3.3-3.73 4.38-1.36 1.09-2.53 2.13-3.15 3.27-.64 1.13-.8 2.2-.72 2.91.06.74.27 1.1.22 1.12z" fill="#263238"/></g></g><g><path d="M86.5 231.18l-19.48-14.73s8.43-24.75 5.09-27.82l-29.92 36.75 29.41 24.2 14.9-18.4z" fill="#e1a04e"/><path d="M86.5 231.18l-19.48-14.73s8.43-24.75 5.09-27.82l-29.92 36.75 29.41 24.2 14.9-18.4z" opacity=".3"/><path d="M59.36 229.11c-.77.55-1.97.39-2.56-.36-.58-.75-.43-1.97.33-2.54.76-.57 2.21-.42 2.71.39s.24 2.24-.64 2.6" fill="#e0e0e0"/><path d="M42.19 225.38l3.06 2.32 27.54-36.1s.62-2.22-.68-2.97l-29.92 36.75z" fill="#fff" opacity=".6"/><path d="M67.69 216.01c-.18-.14-1 .69-2.29 1.1-1.29.45-2.43.27-2.5.49-.1.19 1.19.8 2.75.27 1.56-.51 2.23-1.77 2.04-1.86zM69.23 210.85c-.14-.18-1.08.35-2.33.34-1.26.03-2.2-.49-2.34-.3-.17.15.78 1.13 2.35 1.11 1.55-.01 2.49-1 2.32-1.15zM66.4 204.91c-.17.13.52 1.11 1.88 1.45 1.36.35 2.43-.18 2.34-.38-.06-.22-1.04-.11-2.15-.4-1.11-.27-1.91-.83-2.07-.67zM71.75 219.86c-.22-.06-.65.97-1.54 1.92-.88.98-1.86 1.49-1.78 1.71.05.21 1.34-.02 2.37-1.16 1.05-1.14 1.17-2.45.95-2.47z" fill="#263238"/><g><path d="M96.07 216.9l-17.52-17.01s11.41-23.53 8.47-26.99l-34.21 32.8 26.22 27.63 17.04-16.43z" fill="#e1a04e"/><path d="M69.39 211.51c-.84.45-2.01.15-2.49-.67-.49-.82-.19-2.01.64-2.48.83-.47 2.24-.14 2.64.72.39.87-.04 2.25-.95 2.5" fill="#e0e0e0"/><path d="M52.81 205.7l2.75 2.68 31.77-32.45s.89-2.12-.31-3.03l-34.21 32.8z" fill="#fff" opacity=".6"/><path d="M79.26 199.53c-.17-.16-1.07.56-2.41.81-1.33.29-2.45-.03-2.54.18-.12.18 1.08.94 2.7.61 1.62-.31 2.44-1.48 2.25-1.6zM81.43 194.61c-.12-.2-1.11.21-2.36.05-1.25-.13-2.12-.75-2.28-.59-.18.12.64 1.21 2.19 1.39 1.55.18 2.6-.69 2.45-.85zM79.35 188.36c-.19.11.38 1.17 1.69 1.67 1.3.51 2.44.12 2.37-.09-.04-.23-1.02-.23-2.08-.66-1.08-.4-1.8-1.06-1.98-.92zM82.83 203.85c-.22-.09-.76.88-1.77 1.72-.99.86-2.03 1.25-1.98 1.48.02.21 1.33.14 2.5-.86 1.18-1 1.46-2.29 1.25-2.34z" fill="#263238"/></g><g><path d="M88.42 208.27s52.6 41.55 62.47 42.78l11.21 1.82 22.51 9.7 69.48 36.59 21.79 15.21 11.19 21.14.95 12.7s-50.27 6.12-57.67 1.6c-7.4-4.52-70.82-51.89-74.11-55.59-3.29-3.7-63.11-28.78-86.94-69.84l19.12-16.11z" fill="#263238"/><path d="M61.32 248.1s38.15 35.43 64.88 45.71 48.1 23.44 48.1 23.44l44.83 24.41 57.59-26.02-11.36-20.39-93.52-21.99-94.95-48.13S61.73 240.7 61.32 248.1zM250.9 326.42c4.28-7.82 13.37-12.74 22.26-12.04M256.03 305.66c1.66 4.94-.09 10.84-4.17 14.08" fill="#263238"/><g><path d="M222.93 282.2c.02-.03.4.13 1.07.46.67.32 1.63.82 2.81 1.44 2.36 1.25 5.57 3.06 9.04 5.19 3.47 2.13 6.54 4.17 8.73 5.71 1.09.77 1.97 1.4 2.56 1.85.59.45.91.71.89.74-.02.03-.38-.18-1.01-.58-.72-.46-1.61-1.04-2.65-1.71-2.23-1.45-5.33-3.44-8.8-5.57a385.8 385.8 0 00-8.95-5.31l-2.73-1.59c-.63-.37-.98-.59-.96-.63z" fill="#455a64"/></g><g><path d="M233 348.65s-.16-.09-.45-.29l-1.3-.88c-1.15-.8-2.82-1.95-4.95-3.42-4.31-3.01-10.51-7.33-18.16-12.67-7.66-5.37-16.78-11.76-26.9-18.85-5.06-3.55-10.37-7.28-15.88-11.15-2.75-1.93-5.55-3.9-8.39-5.9a153.51 153.51 0 00-8.76-5.87c-6.05-3.77-12.12-7.2-17.78-10.86-5.67-3.63-11.02-7.31-16.08-10.87-5.05-3.58-9.85-6.95-14.26-10.25-4.4-3.31-8.34-6.6-11.75-9.81-6.85-6.4-11.57-12.39-14.59-16.65-.77-1.06-1.41-2.03-1.97-2.86-.57-.83-1.03-1.55-1.39-2.14-.35-.57-.63-1.01-.83-1.33-.18-.3-.27-.46-.27-.46s.11.14.31.43c.21.31.5.74.87 1.3.38.58.85 1.28 1.43 2.11.57.83 1.23 1.78 2.01 2.83 3.06 4.22 7.82 10.15 14.67 16.5 3.42 3.18 7.36 6.44 11.76 9.73 4.41 3.28 9.23 6.64 14.28 10.2 5.06 3.55 10.41 7.21 16.08 10.83 5.65 3.65 11.72 7.07 17.78 10.84 3.03 1.89 5.97 3.86 8.78 5.89 2.84 2 5.64 3.97 8.39 5.91 5.5 3.87 10.8 7.61 15.86 11.17 10.1 7.13 19.19 13.55 26.84 18.94 7.62 5.4 13.78 9.77 18.07 12.81 2.11 1.51 3.76 2.69 4.9 3.5.54.4.96.7 1.27.92.28.23.41.35.41.35z" fill="#455a64"/></g></g></g><g><path d="M334.2 230.11s-18.31 9.89-21.73 14.01c-3.18 3.84-38.62 39.3-38.62 39.3s-22.93 6.82-22.04 8.72c1.63 3.49 8.05 9.76 11.5 12.97 1.52 1.42 2.9 2.97 4.12 4.65 2.9 4 8.57 11.83 13.25 18.36 6.6 9.2 7.34 20.08 7.34 20.08l16.17-8.89c8.25-3.33 12.76-12.35 21.82-17.04l27.22-29.33 8.3-16.94 2.77-41.72-3.93.28-15.23 2.02c-.01.01-13.2-1.4-10.94-6.47z" fill="#e1a04e"/><path d="M348.86 241.08l12.53-5.54s5.28-5.12 10.03-8.56c0 0-15.62 19.47-1.9 25.95s24.79-10.63 24.79-10.63-2.75 4.23-4.36 7.56c-1.6 3.33-9.75 13.91-9.75 13.91s-.23 5.24-4.91 10.6c-4.68 5.36-9.94 14.21-14.12 16.48-4.18 2.27-13.52 6.44-13.52 6.44s-3.08-14.66-1.71-30.71c1.36-16.04 2.92-25.5 2.92-25.5z" fill="#e1a04e"/><path d="M368.31 256.77c-.02.03-.4-.24-1.06-.78-.65-.54-1.58-1.34-2.58-2.5-.98-1.15-1.98-2.77-2.34-4.79-.36-2.02-.13-4.27.39-6.52 1.06-4.54 3.2-8.23 4.85-10.74.84-1.26 1.57-2.24 2.09-2.9.52-.66.83-1.01.86-.99.03.02-.22.41-.7 1.11-.47.7-1.15 1.71-1.94 2.98-1.56 2.55-3.62 6.21-4.65 10.66-.52 2.21-.74 4.4-.42 6.32.32 1.93 1.23 3.49 2.16 4.64 1.9 2.3 3.42 3.43 3.34 3.51z" fill="#263238"/><path d="M366.44 271.92c.01.02-.16.1-.48.23-.32.13-.8.34-1.43.56-1.26.41-3.13 1.02-5.56 1.06-1.2-.02-2.56-.2-3.85-.88-1.28-.67-2.41-1.83-3.11-3.29-1.42-2.93-1.57-6.55-1.28-10.17.34-3.64 1.02-7.07 2.12-10.05 1.12-2.98 2.63-5.42 3.96-7.39a74.749 74.749 0 014.34-5.7c.23-.27.35-.4.37-.39s-.08.17-.29.45c-.24.33-.54.74-.9 1.24-.78 1.08-1.93 2.62-3.23 4.6-1.28 1.99-2.74 4.43-3.82 7.36-1.05 2.93-1.71 6.35-2.05 9.93-.29 3.57-.14 7.12 1.19 9.91.65 1.39 1.7 2.48 2.88 3.12 1.19.65 2.49.85 3.65.89 2.35.01 4.22-.54 5.49-.88.59-.19 1.07-.34 1.45-.47.37-.1.55-.15.55-.13zM361.37 235.05c.05.07-.85.7-2.2 1.8a43.45 43.45 0 00-4.94 4.71c-1.77 2-3.16 3.98-4.09 5.46-.94 1.48-1.45 2.44-1.53 2.4-.06-.03.35-1.05 1.21-2.59.86-1.54 2.23-3.59 4.02-5.62 1.8-2.02 3.67-3.62 5.1-4.66 1.43-1.03 2.4-1.55 2.43-1.5z" fill="#263238"/><path d="M362.17 235.05c-8 7.5-13.26 19.44-13.59 30.4-.03 1 .27 2.33 1.27 2.36.61.01 1.1-.56 1.22-1.15.12-.6-.1-1.2-.15-1.8-.38-4.8.67-10.48 2.34-15.58 1.66-5.09 5.74-9.94 8.91-14.23zM369.26 228.7c-3.4 3.8-6.59 7.93-8.32 12.73-1.72 4.8-1.8 10.41.81 14.79.72 1.21 2.17 2.44 3.39 1.73.84-.49 1.01-1.68.7-2.59-.31-.92-.99-1.66-1.54-2.46-2.37-3.44-2.45-8.06-1.21-12.06 1.24-3.99 3.63-7.51 6-10.96M261.56 303.46c5.89 3.57 12.33 6.41 19.14 7.48 5.76.9 11.63-.11 17.39-1.04 15.02-2.42 30.29-4.61 45.39-6.44h-41.05c-14.12 0-27.24-.01-40.87 0" opacity=".3"/></g><g><path d="M316.06 348.21c-.01-.03.3-.14.87-.25.57-.11 1.43-.18 2.48-.09 2.09.16 4.98 1.2 7.3 3.46 1.14 1.12 2.1 2.34 2.71 3.61a8.8 8.8 0 01.91 3.58c.04 1.06-.13 1.9-.26 2.47-.16.56-.28.86-.31.85-.11-.02.34-1.27.2-3.3-.09-1.01-.35-2.2-.97-3.39-.6-1.2-1.53-2.37-2.64-3.45-2.23-2.18-4.98-3.22-6.98-3.47-2.02-.27-3.29.09-3.31-.02z" fill="#263238"/></g><g><path d="M319.7 370.62h-95.15c-5.71 0-10.33-4.63-10.33-10.33v-1.74c0-5.71 4.63-10.33 10.33-10.33h95.15c5.71 0 10.33 4.63 10.33 10.33v1.74c0 5.7-4.62 10.33-10.33 10.33z" fill="#455a64"/><path d="M312.97 368.29l1.15.76c3.78 2.5 8.87 1.47 11.37-2.31l67.88-102.42c2.5-3.78 1.47-8.87-2.31-11.37l-1.15-.76c-3.78-2.5-8.87-1.47-11.37 2.31l-67.88 102.42c-2.5 3.77-1.47 8.86 2.31 11.37z" fill="#455a64"/><path d="M261.86 325.04c.19 0 7 6.66 8.6 11.15 1.59 4.49 3.69 15.49 4.65 19.67 1.32 5.73 3.45 11.25 11.28 11.61l29.64.12c1.82.01 3.53-.91 4.52-2.45l25.95-40.11h-8.11l-22.65 33.75h-25.68c-1.79 0-3.53-.78-4.62-2.2-.35-.46-.64-.99-.79-1.57-.58-2.32-2.61-14.34-5.07-19.56-2.46-5.21-5.94-10.43-5.94-10.43h-11.78z" fill="#263238"/><path d="M288.89 363.15a1.82 1.82 0 11-3.64 0 1.82 1.82 0 013.64 0zM317.57 363.15a1.82 1.82 0 11-3.64 0 1.82 1.82 0 013.64 0z" fill="#455a64"/><path d="M351.81 325.04h-96.66c-1.4 0-2.54-1.14-2.54-2.54v-.43c0-1.4 1.14-2.54 2.54-2.54h96.66c1.4 0 2.54 1.14 2.54 2.54v.43c0 1.4-1.13 2.54-2.54 2.54z" fill="#263238"/><path d="M294.88 319.52c0 .01-.09.02-.25.02-.19.01-.44.02-.75.03-.69.01-1.66.04-2.9.06-2.56.03-6.24.08-10.84.14-4.63.04-10.19.09-16.49.07-1.57-.01-3.19-.03-4.86-.04-1.64.01-3.44-.34-4.87.52-.68.42-1.11 1.2-.9 2 .12.81.81 1.4 1.59 1.75 1.6.69 3.5.79 5.33.71h.02c6.15 0 12.78-.01 19.64-.01 19.79.03 37.71.06 50.71.08 6.47.03 11.71.06 15.37.08 1.79.02 3.19.04 4.18.05.46.01.82.02 1.09.03.24.01.37.02.37.03s-.13.02-.37.03c-.27.01-.63.02-1.09.03-.99.01-2.39.03-4.18.05-3.66.02-8.9.05-15.37.08-13 .02-30.92.05-50.71.08-6.86 0-13.49-.01-19.64-.01h.02c-1.91.07-3.82-.01-5.57-.76-.85-.37-1.71-1.09-1.86-2.1-.02-.25-.06-.47-.05-.73.03-.25.09-.49.2-.71.21-.45.57-.8.97-1.05.81-.49 1.73-.62 2.6-.64.88 0 1.7.06 2.53.07l4.85.06c6.29.02 11.85.03 16.49.04 4.6 0 8.28.01 10.84.01 1.24.01 2.21.02 2.9.02.31.01.56.01.75.02.16-.02.25-.01.25-.01z" fill="#455a64"/><path d="M273.85 349.98c-.04.01-.16-.37-.34-1.05-.21-.8-.46-1.77-.75-2.91-.64-2.45-1.4-5.87-2.76-9.47a32.09 32.09 0 00-2.31-4.88c-.87-1.42-1.74-2.63-2.57-3.58-1.64-1.91-2.87-2.9-2.8-2.98.02-.03.34.21.89.65.56.44 1.32 1.14 2.19 2.08.87.93 1.8 2.15 2.7 3.58.88 1.45 1.69 3.12 2.38 4.95 1.38 3.65 2.08 7.1 2.63 9.57.26 1.24.46 2.25.59 2.95.13.7.19 1.09.15 1.09z" fill="#455a64"/><g><path fill="#263238" d="M270.87 370.62h6.45v81.29h-6.45z"/><path fill="#263238" d="M276.02 438.88l67.02 13.19v7l-67.02-10.1z"/><circle cx="337.1" cy="464.12" r="5.94" fill="#263238"/><path fill="#263238" d="M274.28 438.88l-54.23 13.24v7l54.23-10.78z"/><circle cx="225.99" cy="464.12" r="5.94" fill="#263238"/><circle cx="274.11" cy="464.12" r="5.94" fill="#263238"/><path fill="#263238" d="M280.87 458.18h-13.45l.13-50.85h13.46z"/><path d="M280.51 407.44c0 .14-2.85.26-6.37.26s-6.37-.12-6.37-.26 2.85-.26 6.37-.26 6.37.12 6.37.26zM280.09 449.57c0 .14-2.85.26-6.37.26s-6.37-.12-6.37-.26 2.85-.26 6.37-.26 6.37.12 6.37.26z" fill="#455a64"/></g></g></g><g><path fill="#455a64" d="M48.05 289.53h318.56v13.93H48.05z"/><path d="M115.53 289.73c.01 0-.03.06-.1.15s-.18.24-.33.42c-.32.34-.82.84-1.6 1.28-.78.44-1.82.84-3.08 1.03-1.25.21-2.7.24-4.29.19-1.6-.05-3.33-.3-5.17-.59-1.84-.29-3.8-.64-5.88-.7-4.18-.15-8.71.94-13.24 2.57-4.55 1.62-8.79 3.47-12.85 4.6-2.03.57-3.99.97-5.86 1.16-1.87.19-3.62.16-5.21-.01-3.18-.35-5.62-1.37-7.14-2.29-1.53-.93-2.21-1.65-2.21-1.65 0-.01.06.03.15.1.11.09.25.19.42.32.37.28.94.67 1.71 1.1 1.53.87 3.95 1.83 7.1 2.14 1.57.15 3.3.17 5.15-.04 1.84-.2 3.79-.61 5.8-1.19 4.03-1.14 8.26-2.99 12.82-4.62 4.55-1.63 9.14-2.73 13.39-2.56 2.12.07 4.09.44 5.92.74 1.84.31 3.55.57 5.13.64 1.58.07 3.01.06 4.25-.13 1.24-.17 2.26-.54 3.04-.95 1.52-.85 2.03-1.76 2.08-1.71z" fill="#263238"/><path d="M80.68 289.94c.02.02-.33.31-.96.82-.64.5-1.62 1.17-2.91 1.87-1.29.68-2.89 1.4-4.75 1.93-1.86.53-3.97.9-6.21.97-4.49.16-8.49-.99-11.1-2.29-1.31-.67-2.23-1.5-2.68-2.19-.24-.34-.36-.64-.44-.84-.07-.21-.09-.32-.08-.32.04-.02.15.43.64 1.07.48.64 1.38 1.41 2.68 2.03 2.6 1.22 6.55 2.3 10.97 2.15 2.2-.07 4.28-.42 6.12-.93 1.84-.51 3.43-1.2 4.72-1.83 1.29-.66 2.28-1.29 2.94-1.75.67-.46 1.05-.71 1.06-.69zM155.43 298.77c0-.01.17.05.49.18.33.11.81.27 1.47.39 1.29.22 3.37.3 5.57-.87l-.02.18c-1.68-1.3-4.05-2.43-6.91-2.69-2.83-.27-6.17.33-8.99 2.34-.34.24-.66.54-.7.9-.05.37.23.69.6.9.37.21.79.34 1.23.43.45.1.9.2 1.36.31 1.82.41 3.71.81 5.65 1.09 1.95.29 3.96.48 6.01.41a21.546 21.546 0 004.63-.62c.52-.11 1.01-.27 1.49-.48.75-.33 1.45-.78 1.93-1.39.49-.61.64-1.43.37-2.14-.26-.72-.87-1.27-1.51-1.69-.65-.43-1.39-.74-2.11-1.03-2.93-1.15-5.96-1.66-8.85-1.84-5.8-.34-11.02.78-15.1 2.34-4.1 1.57-7.13 3.49-9.09 4.97-.97.75-1.72 1.34-2.2 1.78-.23.2-.42.36-.56.48-.13.11-.2.16-.2.15 0-.01.05-.07.17-.18.14-.13.31-.3.54-.51.46-.46 1.2-1.07 2.16-1.84 1.94-1.52 4.97-3.49 9.09-5.1 4.1-1.61 9.37-2.76 15.22-2.44 2.91.17 5.99.67 8.97 1.84.74.3 1.49.61 2.19 1.07.68.45 1.36 1.04 1.67 1.88.32.83.13 1.83-.43 2.51-.54.7-1.3 1.17-2.08 1.52-.5.22-1.03.39-1.55.5-.52.14-1.04.24-1.57.33-1.05.17-2.1.28-3.14.3-2.08.07-4.12-.13-6.08-.42s-3.85-.7-5.68-1.11c-.46-.11-.91-.21-1.36-.31-.45-.1-.92-.23-1.33-.48a1.74 1.74 0 01-.56-.49c-.15-.21-.24-.49-.2-.75.07-.55.49-.89.84-1.15 2.92-2.05 6.34-2.64 9.22-2.34 2.92.29 5.33 1.47 7.02 2.81l.13.1-.15.07a8.679 8.679 0 01-5.7.8c-1.33-.31-1.95-.71-1.95-.71zM196.42 290.09c.01-.01.16.23.31.7s.29 1.2.21 2.09c-.11 1.8-1.21 4.15-3.1 6.08-.92.99-1.91 1.82-2.9 2.46-.99.63-1.96 1.07-2.8 1.36-.84.28-1.54.42-2.03.51-.49.07-.76.09-.76.06-.01-.07 1.07-.22 2.69-.83.81-.31 1.74-.76 2.69-1.4.95-.64 1.91-1.46 2.81-2.43 1.86-1.89 2.94-4.12 3.11-5.84.24-1.72-.32-2.74-.23-2.76zM253.63 302.72c-.04.03-.45-.59-1.46-1.42-1-.82-2.67-1.88-4.98-2.25-1.15-.2-2.43-.13-3.79.11-1.36.22-2.84.58-4.45.41-1.64-.15-3.1-1.14-4.43-2.17-1.33-1.06-2.76-2.06-4.45-2.64-3.36-1.2-6.92-1-9.88-.15-2.98.85-5.41 2.33-7.31 3.7-1.9 1.39-3.29 2.7-4.24 3.62-.45.44-.81.8-1.08 1.07-.25.24-.38.37-.39.36-.01-.01.1-.15.33-.41s.57-.64 1.03-1.12c.92-.95 2.29-2.3 4.18-3.73 1.89-1.41 4.34-2.94 7.37-3.83 3.01-.88 6.64-1.11 10.11.13 1.74.59 3.23 1.65 4.55 2.7 1.32 1.04 2.71 1.97 4.23 2.12 1.52.17 2.98-.16 4.35-.37 1.37-.23 2.71-.29 3.89-.06 2.37.41 4.05 1.53 5.04 2.4 1.01.88 1.38 1.53 1.38 1.53zM304.7 289.66c.01.01-.11.17-.35.48-.25.3-.57.77-1.09 1.29-.97 1.11-2.53 2.57-4.65 4.13a37.04 37.04 0 01-8.07 4.47c-1.61.65-3.35 1.24-5.2 1.66-1.85.42-3.8.74-5.82.75-4.05.02-7.83-.98-11.04-2.3-3.22-1.33-5.93-2.97-8.03-4.55-2.1-1.58-3.65-3.06-4.62-4.17-.51-.53-.84-1-1.09-1.29-.24-.3-.36-.47-.35-.47.01-.01.15.14.41.42.27.28.61.73 1.14 1.24 1 1.07 2.56 2.51 4.67 4.05 2.1 1.54 4.8 3.14 8 4.44 3.19 1.29 6.93 2.26 10.9 2.24 1.99-.01 3.91-.32 5.74-.73s3.55-.98 5.15-1.62c3.21-1.28 5.92-2.84 8.04-4.36 2.12-1.52 3.7-2.94 4.7-4.01.53-.51.87-.96 1.14-1.24.27-.29.41-.44.42-.43z" fill="#263238"/><path d="M297.41 289.53c.01.01-.09.09-.27.22-.19.13-.46.33-.83.56-.72.47-1.81 1.11-3.19 1.81-1.39.69-3.08 1.44-5.04 2.05-1.95.61-4.19 1.12-6.58 1.12-4.79-.03-8.92-1.59-11.68-2.95-1.39-.7-2.46-1.36-3.16-1.86-.36-.24-.62-.45-.8-.59-.18-.14-.27-.22-.26-.23.02-.03.42.24 1.15.69a31.1 31.1 0 003.2 1.74c2.76 1.29 6.86 2.78 11.56 2.81 2.33 0 4.53-.49 6.47-1.08 1.94-.59 3.64-1.3 5.03-1.96 1.39-.66 2.49-1.26 3.23-1.69.74-.42 1.15-.67 1.17-.64zM353.12 290.95c0 .01-.22.01-.63 0-.49-.02-1.08-.04-1.8-.07-.4-.02-.83-.04-1.3-.06-.48 0-1 0-1.55-.01-1.11-.01-2.37-.03-3.76.04-.7.02-1.43.04-2.18.07-.76.05-1.54.1-2.36.16-1.63.08-3.35.31-5.16.48-3.6.45-7.5 1.1-11.47 1.99-3.95.91-7.57 1.99-10.75 3.07-1.55.58-3.06 1.09-4.37 1.67-.66.28-1.31.55-1.93.8-.59.28-1.16.54-1.7.8-1.11.49-2.02 1-2.84 1.43-.41.21-.79.41-1.14.6-.32.19-.63.37-.91.54-.51.29-.92.54-1.27.74-.3.17-.46.25-.48.24-.02-.01.11-.11.38-.29.32-.22.71-.48 1.18-.79.27-.17.56-.36.87-.57.35-.2.72-.41 1.11-.63.8-.45 1.7-.97 2.8-1.49.54-.26 1.1-.54 1.69-.83.62-.27 1.26-.54 1.92-.83 1.3-.59 2.82-1.12 4.37-1.71 3.19-1.11 6.83-2.2 10.82-3.12 4.01-.9 7.96-1.54 11.6-1.98 1.84-.17 3.57-.38 5.22-.45.82-.05 1.61-.09 2.38-.14.76-.02 1.5-.03 2.21-.04 1.4-.05 2.68-.01 3.79.02.55.01 1.07.03 1.55.04.47.03.9.06 1.3.09.71.06 1.3.1 1.79.14.41.05.62.08.62.09zM259.35 302.45c-.04.03-.49-.86-1.75-2.08-1.25-1.22-3.42-2.65-6.42-3.59-1.5-.47-3.18-.82-5.01-1.11-1.83-.29-3.8-.52-5.86-.87-2.07-.34-4.19-.93-6.36-1.59-2.17-.65-4.42-1.34-6.79-1.64-4.76-.6-9.35.4-13.22 1.83-1.95.71-3.73 1.57-5.38 2.42-1.65.84-3.16 1.68-4.53 2.45-2.74 1.55-4.92 2.87-6.43 3.79-.73.45-1.31.8-1.73 1.06-.18.11-.33.2-.45.27-.1.06-.16.09-.16.08 0-.01.04-.04.14-.11.12-.08.26-.18.43-.3.38-.26.95-.64 1.69-1.12 1.48-.96 3.64-2.32 6.37-3.9 1.37-.79 2.87-1.64 4.52-2.5 1.65-.86 3.44-1.74 5.4-2.47 3.9-1.46 8.55-2.49 13.39-1.88 2.41.3 4.68 1.01 6.85 1.66 2.17.67 4.26 1.26 6.31 1.61 2.05.36 4.01.6 5.85.91 1.83.3 3.53.67 5.04 1.16 3.03.98 5.21 2.47 6.44 3.74 1.27 1.25 1.66 2.18 1.66 2.18zM187.6 289.73c.02 0 .03.32-.05.89-.07.57-.26 1.39-.62 2.35-.73 1.9-2.24 4.48-4.9 6.26-2.65 1.7-5.33 2.68-7.26 3.34-.97.32-1.76.55-2.32.7-.55.14-.86.21-.87.18-.01-.03.29-.14.83-.33.61-.22 1.37-.49 2.27-.81 1.89-.72 4.54-1.74 7.13-3.41 2.55-1.72 4.07-4.21 4.85-6.04.81-1.86.86-3.14.94-3.13zM113.65 303.46c-.02-.02.26-.28.78-.75.51-.47 1.29-1.1 2.27-1.86 1.96-1.51 4.82-3.41 8.12-5.23 3.31-1.82 6.4-3.27 8.65-4.31 1.12-.51 2.04-.92 2.67-1.19.63-.27.99-.41 1-.39.01.02-.32.21-.94.53l-2.62 1.31c-2.21 1.1-5.28 2.59-8.58 4.4-3.29 1.81-6.15 3.67-8.15 5.11-1 .72-1.8 1.32-2.34 1.75-.53.42-.84.65-.86.63zM128.66 290.3c0 .05-.74-.09-2.06.01-1.31.1-3.21.54-5.31 1.62-2.13 1.04-4.38 2.76-6.9 4.63-1.27.93-2.63 1.88-4.16 2.69-1.52.82-3.21 1.44-4.97 1.91-3.55.91-7.04 1.12-10.18 1.22-3.15.09-5.98.03-8.35.13-2.37.08-4.28.31-5.58.55-.65.12-1.16.22-1.5.3-.34.08-.52.11-.53.1 0-.01.17-.07.51-.17.33-.11.84-.23 1.49-.37 1.3-.28 3.22-.55 5.6-.67 2.38-.13 5.22-.1 8.35-.21 3.13-.12 6.59-.34 10.09-1.24 1.74-.46 3.39-1.08 4.89-1.87 1.5-.79 2.85-1.73 4.13-2.65 2.53-1.85 4.82-3.57 6.99-4.59 2.15-1.06 4.09-1.46 5.43-1.52.67-.03 1.19.01 1.54.05.34.04.52.07.52.08z" fill="#263238"/><g><path fill="#455a64" d="M77.36 470.41h-4.53l-2.58-168.03h9.68z"/><path fill="#263238" d="M369.2 470.06h-4.52l2.26-167.2h9.68z"/></g><g><path fill="#263238" d="M351.42 289.52h40.39v13.93h-40.39z"/></g></g><g><path fill="#e1a04e" d="M100.72 265.64l3.66 24.05h21.26l4.93-23.7z"/><path d="M127.6 281.05c0 .07-5.45.12-12.17.12s-12.17-.06-12.17-.12c0-.07 5.45-.12 12.17-.12s12.17.05 12.17.12zM127.68 279.87c0 .07-5.48.12-12.25.12s-12.25-.06-12.25-.12c0-.07 5.48-.12 12.25-.12s12.25.05 12.25.12zM127.64 278.53c0 .07-5.48.12-12.25.12s-12.25-.06-12.25-.12c0-.07 5.48-.12 12.25-.12s12.25.06 12.25.12zM106.82 288.32c-.07.01-.36-1.34-.65-3.03-.29-1.68-.47-3.06-.41-3.07.07-.01.36 1.34.65 3.03.3 1.68.48 3.06.41 3.07zM108.27 288.06c-.07 0-.15-1.32-.26-2.95-.11-1.63-.21-2.96-.14-2.96.07-.01.28 1.31.39 2.95.1 1.63.07 2.96.01 2.96zM110.9 288.06c-.07.01-.36-1.34-.55-3.03-.2-1.69-.23-3.07-.16-3.08.07 0 .21 1.36.41 3.05.19 1.69.37 3.05.3 3.06zM112.75 288.19c-.07.01-.24-1.37-.29-3.08-.06-1.71.03-3.09.09-3.09.07 0 .1 1.38.16 3.08.05 1.7.11 3.08.04 3.09zM116.03 288.06c-.07 0-.17-1.31-.22-2.92-.05-1.62-.04-2.93.03-2.93s.17 1.31.22 2.92c.05 1.62.04 2.93-.03 2.93zM118.42 288.19c-.07 0-.11-1.35-.1-3.02.01-1.67.08-3.02.15-3.02.07 0 .11 1.35.1 3.02-.01 1.67-.08 3.02-.15 3.02zM120.67 287.87c-.07-.01.01-1.42.18-3.16.17-1.74.36-3.14.43-3.13.07.01-.01 1.42-.18 3.16-.17 1.73-.37 3.13-.43 3.13zM123.56 287.55c-.07-.01.04-1.22.36-2.69s.73-2.61.79-2.59c.07.02-.23 1.19-.55 2.65-.32 1.45-.53 2.64-.6 2.63z" fill="#fafafa"/><g><path d="M98.28 260.88v4.5c0 .98.79 1.77 1.77 1.77h30.79c.98 0 1.77-.79 1.77-1.77v-4.5H98.28z" fill="#e1a04e"/></g><g opacity=".4"><path fill="#5c9ca4" d="M100.95 267.15l.25 1.43 28.41 2.03.72-3.46z"/></g><g><path d="M109.45 260.86c-4.52-2.62-6.94-8.72-7.13-13.72-.18-4.99 1.9-10.2 5.99-13.07 4.31-3.02 10.46-2.96 14.89-.12s7.03 8.2 6.83 13.46c-.2 5.26-3.07 10.28-7.31 13.4" fill="#455a64"/><path d="M116.67 261.35c-.03 0-.06-.41-.08-1.14-.02-.82-.05-1.86-.09-3.11-.07-2.63-.17-6.26-.35-10.27-.18-4.01-.39-7.64-.56-10.26-.07-1.25-.14-2.29-.19-3.11-.04-.74-.05-1.14-.02-1.15.03 0 .09.4.18 1.13.09.73.2 1.79.32 3.1.24 2.62.5 6.25.68 10.27.18 4.01.23 7.65.22 10.28 0 1.32-.02 2.38-.05 3.12-.01.73-.03 1.14-.06 1.14zM103.66 246.02c-.01.12-.73.15-1.61.08-.88-.07-1.59-.23-1.58-.34.01-.12.73-.15 1.61-.08.88.07 1.59.22 1.58.34zM103.91 241.54c-.05.11-.67-.07-1.39-.38-.72-.32-1.27-.67-1.22-.77.05-.11.67.07 1.39.38.72.31 1.26.66 1.22.77zM106.21 238.21c-.06.1-.76-.23-1.49-.84-.73-.6-1.18-1.23-1.1-1.31.09-.08.66.4 1.37.98.71.59 1.29 1.07 1.22 1.17zM108.53 235.07c-.11.05-.44-.48-.75-1.17s-.47-1.29-.36-1.34c.11-.05.44.48.75 1.17s.47 1.29.36 1.34zM112.17 232.84c-.1.05-.47-.51-.7-1.28-.24-.77-.26-1.44-.15-1.46.12-.02.32.59.55 1.33.23.75.41 1.37.3 1.41zM118.24 230.34c.11.04.04.52-.15 1.06-.19.55-.44.96-.55.92-.11-.04-.04-.52.15-1.06.19-.55.44-.96.55-.92zM122.74 232.27c.08.09-.21.48-.64.89-.44.4-.85.66-.93.57-.08-.09.21-.48.65-.89.42-.4.84-.66.92-.57zM126.71 234.83c.07.1-.29.45-.79.79s-.96.54-1.02.44.29-.45.79-.79c.49-.34.95-.54 1.02-.44zM129.52 238.64c.05.11-.51.45-1.24.76s-1.36.48-1.41.37c-.05-.11.51-.45 1.24-.76s1.36-.47 1.41-.37zM130.63 242.81c.01.12-.55.28-1.26.37s-1.3.07-1.31-.05c-.01-.12.55-.28 1.26-.37.71-.09 1.29-.07 1.31.05zM131.2 247.93c-.05.11-.65-.05-1.34-.35-.7-.3-1.22-.63-1.17-.74.05-.11.65.05 1.34.35.7.3 1.22.63 1.17.74zM130.7 252.33c-.04.11-.8-.07-1.59-.6-.8-.52-1.27-1.14-1.19-1.22.09-.08.66.38 1.42.86.75.5 1.4.84 1.36.96zM128.41 256.33c-.07.09-.68-.26-1.26-.89s-.89-1.26-.8-1.32c.1-.07.55.43 1.11 1.03.56.6 1.02 1.09.95 1.18zM106.67 256.8c.05.1-.58.54-1.42.98-.84.44-1.56.71-1.62.6-.05-.1.58-.54 1.42-.98.84-.44 1.57-.71 1.62-.6zM104.69 253.18c.05.11-.46.44-1.14.75-.68.31-1.27.47-1.31.36-.05-.11.46-.44 1.14-.75.67-.31 1.26-.47 1.31-.36zM103.23 249.97c.02.12-.61.3-1.4.41-.79.11-1.44.11-1.46-.01-.02-.12.61-.3 1.4-.41.78-.11 1.44-.1 1.46.01zM108.01 248.2c.03.11-.58.39-1.39.49-.82.09-1.48-.05-1.47-.16.01-.12.65-.17 1.42-.26.77-.09 1.41-.18 1.44-.07zM111.99 244.25c.03.11-.45.36-1.11.42-.66.07-1.18-.08-1.17-.2.01-.12.52-.16 1.13-.23.61-.05 1.12-.11 1.15.01zM112.75 241.08c-.04.11-.57.03-1.18-.18s-1.08-.47-1.04-.58c.04-.11.57-.03 1.18.18s1.08.47 1.04.58zM114.21 237.87c-.08.08-.44-.16-.7-.61-.26-.45-.29-.88-.17-.91.11-.03.31.3.54.7.22.4.41.74.33.82zM112.45 251c.03.11-.43.32-1.02.47-.34.08-.65.13-.86.13l-.08-.25c.15-.03.25-.02.27.02.02.05-.04.12-.17.22l-.08-.25c.18-.1.48-.2.82-.28.59-.15 1.09-.18 1.12-.06zM113.27 256.62c.04.11-.54.44-1.3.74s-1.41.45-1.46.34c-.04-.11.54-.44 1.3-.74.77-.3 1.42-.45 1.46-.34zM108.78 254.12c.04.11-.35.34-.87.52s-.97.23-1 .12c-.04-.11.35-.34.87-.52.51-.18.96-.23 1-.12zM109.12 242.68c-.03.11-.7.05-1.48-.23s-1.35-.65-1.3-.75c.05-.11.68.09 1.44.35.76.27 1.37.51 1.34.63zM119.99 241.44c.06.1-.32.46-.85.81-.53.35-1.02.56-1.08.46-.06-.1.32-.46.85-.81.53-.35 1.02-.56 1.08-.46zM120.58 247.08c.02.11-.38.29-.89.4-.52.11-.96.1-.98-.01-.02-.11.38-.29.89-.4.52-.11.96-.1.98.01zM121.27 253.43c-.05.11-.63-.06-1.29-.36-.66-.31-1.16-.64-1.11-.75.05-.11.63.06 1.29.36.66.31 1.16.64 1.11.75zM119.82 259.6c-.09.07-.46-.23-.84-.68-.37-.45-.6-.88-.51-.95.09-.07.46.23.84.68.37.45.6.88.51.95zM119.52 237.28c.07.09-.18.4-.6.61-.42.21-.82.23-.85.11-.03-.11.28-.3.66-.49s.72-.32.79-.23zM124.85 242.97c.04.11-.45.38-1.13.47-.67.1-1.22-.03-1.21-.15.01-.12.53-.18 1.16-.27.62-.08 1.14-.16 1.18-.05zM123.79 237.86c.05.1-.44.45-1.13.67-.7.22-1.3.22-1.31.11-.02-.12.52-.3 1.18-.51.65-.21 1.2-.37 1.26-.27zM126.01 250.89c0 .11-.84.19-1.85 0-1.01-.18-1.77-.54-1.73-.65.04-.11.83.06 1.8.23.98.18 1.78.3 1.78.42zM124.03 258.31c-.07.09-.69-.27-1.3-.89-.62-.62-.98-1.24-.89-1.31.09-.07.59.41 1.19 1.01.59.6 1.07 1.1 1 1.19z" fill="#263238"/><path d="M115.32 231.82c.06.09-1.69.8-3.72 2.94-2.03 2.09-4.11 5.78-4.63 10.23-.25 2.21-.03 4.36.28 6.27.33 1.91.77 3.61 1.17 5.03.41 1.42.78 2.55 1.03 3.34s.39 1.22.36 1.23c-.03.01-.21-.41-.51-1.18-.3-.77-.72-1.89-1.16-3.31-.44-1.41-.92-3.12-1.27-5.05-.34-1.93-.57-4.11-.32-6.39.53-4.56 2.71-8.31 4.83-10.39 1.06-1.06 2.05-1.76 2.77-2.17.35-.22.65-.34.85-.44.21-.08.32-.12.32-.11z" fill="#263238"/><path d="M121.11 261.14c-.09-.05.95-1.65 1.91-4.55.98-2.86 1.79-7.1 1.14-11.71-.31-2.3-.97-4.42-1.81-6.24-.87-1.79-1.99-3.26-3.08-4.29-1.13-1-2.24-1.57-3.02-1.91-.78-.33-1.25-.4-1.25-.44 0-.01.12-.01.35.03.22.04.55.12.96.26.81.29 1.96.83 3.15 1.83 1.16 1.04 2.32 2.5 3.23 4.34a21.72 21.72 0 011.87 6.35c.67 4.69-.21 9-1.28 11.86-.24.73-.55 1.36-.78 1.92-.27.55-.5 1.02-.71 1.4-.41.76-.66 1.16-.68 1.15z" fill="#263238"/></g><g><path d="M393.66 403.88c-7.45 2.6-17.18.28-23.55-4.38-6.38-4.66-10.96-11.33-15.03-18.09-1.74-2.89-3.43-5.9-3.98-9.22-.55-3.32.26-7.06 2.84-9.23 4.01-3.37 10.14-1.66 14.69.93 14.24 8.1 23.96 23.64 25.03 39.99M385.65 421.72c-4.48 5.91-12.17 8.53-19.57 8.88-7.4.34-14.72-1.7-21.63-4.36-2.51-.96-5.26-2.28-6.12-4.83-.65-1.93.02-4.12 1.31-5.7 1.29-1.57 3.12-2.61 5-3.4 6.81-2.9 14.61-3.04 21.78-1.18 7.16 1.86 13.42 6.01 19.23 10.59M393.77 371.95c-6.17.12-10.84-5.28-13.63-10.78-3.87-7.62-5.18-16.51-3.67-24.92.56-3.15 1.76-6.55 4.58-8.07 2.87-1.54 6.6-.53 9 1.67 2.4 2.19 3.72 5.33 4.68 8.44 3.3 10.71 2.59 23.02-.96 33.66M414.03 406.08c-10.52-17.9-12.27-39.81-6.06-59.62 1.01-3.21 2.91-6.89 6.27-7.11 3.72-.24 6.06 3.91 7.08 7.5 3.61 12.58 2.84 25.95 2.04 39.01-.48 8.05-3.24 14.93-9.33 20.22M424.97 413.44c3.81-12.26 13.51-22.55 25.53-27.07 2.79-1.05 6.35-1.65 8.43.49 2.04 2.1 1.41 5.6.1 8.22-2.12 4.23-5.56 7.63-8.98 10.89-3.12 2.97-6.35 5.94-10.29 7.67-3.95 1.71-11.18 2.15-14.79-.2" fill="#5c9ca4"/><path d="M359.75 367.45c0 .01.06.06.18.16.15.12.34.26.57.44.54.4 1.27.95 2.2 1.65.48.36 1.02.75 1.6 1.18.57.44 1.17.96 1.83 1.49 1.3 1.09 2.84 2.26 4.39 3.73.79.72 1.62 1.47 2.48 2.25.86.79 1.68 1.68 2.58 2.56 1.81 1.74 3.56 3.77 5.45 5.87 3.65 4.3 7.4 9.26 10.85 14.79 3.4 5.56 6.16 11.13 8.38 16.32 1.03 2.63 2.07 5.1 2.82 7.5.39 1.19.82 2.33 1.14 3.45.32 1.12.62 2.2.91 3.23.63 2.04.98 3.94 1.38 5.6.18.83.38 1.6.52 2.31.12.71.24 1.37.34 1.96.21 1.15.37 2.05.49 2.71.06.29.1.52.14.7.03.16.06.24.06.24.01 0 0-.08-.01-.24-.02-.19-.05-.42-.09-.71-.1-.66-.23-1.57-.4-2.73-.09-.6-.19-1.25-.3-1.97-.13-.72-.31-1.49-.48-2.32-.37-1.66-.7-3.57-1.31-5.63-.28-1.03-.57-2.12-.88-3.25-.31-1.13-.73-2.27-1.11-3.47-.73-2.41-1.76-4.9-2.78-7.55-2.2-5.22-4.96-10.82-8.38-16.4-3.47-5.55-7.24-10.52-10.92-14.83-1.9-2.1-3.67-4.13-5.5-5.86-.9-.88-1.74-1.76-2.61-2.55-.87-.78-1.71-1.52-2.51-2.24-1.57-1.46-3.13-2.62-4.45-3.69-.67-.53-1.28-1.03-1.86-1.46-.59-.42-1.14-.8-1.63-1.15-.96-.67-1.71-1.19-2.26-1.57-.24-.16-.44-.29-.6-.4-.15-.09-.22-.13-.23-.12z" fill="#263238"/><path d="M345.82 417.07c0 .02.25-.03.72-.12.47-.08 1.15-.27 2.05-.42 1.78-.35 4.38-.74 7.62-.93 6.44-.41 15.58.35 24.74 4.16 9.16 3.81 16.14 9.76 20.39 14.62 2.14 2.43 3.7 4.55 4.71 6.06.53.74.88 1.35 1.15 1.75.26.4.41.61.42.6.01-.01-.1-.23-.34-.65-.24-.41-.57-1.04-1.07-1.8-.96-1.55-2.48-3.71-4.6-6.18-4.2-4.94-11.22-11-20.46-14.84-9.24-3.85-18.48-4.56-24.95-4.05-3.25.24-5.86.68-7.63 1.09-.89.18-1.57.39-2.03.51-.48.11-.72.19-.72.2zM384.67 335.32c-.01 0 .01.1.04.28.04.21.1.47.17.8.17.74.4 1.77.69 3.08.61 2.68 1.53 6.54 2.69 11.3 2.32 9.53 5.69 22.65 9.19 37.2 1.74 7.28 3.32 14.23 4.68 20.56 1.33 6.34 2.47 12.07 3.32 16.9.45 2.41.8 4.6 1.12 6.52.33 1.92.59 3.58.78 4.93.21 1.33.37 2.37.49 3.12.06.33.1.6.14.81.03.18.06.27.06.27.01 0 0-.1-.01-.28-.02-.21-.05-.48-.09-.82-.09-.75-.23-1.8-.39-3.13-.17-1.36-.4-3.02-.7-4.95-.3-1.93-.62-4.12-1.05-6.54-.8-4.84-1.91-10.58-3.22-16.93-1.34-6.35-2.9-13.31-4.65-20.59-3.51-14.55-6.93-27.66-9.34-37.17-1.19-4.73-2.16-8.57-2.84-11.26-.33-1.3-.59-2.33-.78-3.06-.09-.33-.16-.59-.22-.79-.04-.16-.07-.25-.08-.25zM408.83 439.66c.01 0 .03-.07.07-.22l.15-.65c.13-.61.3-1.44.52-2.49.45-2.17 1.04-5.31 1.71-9.21 1.35-7.79 2.95-18.61 3.93-30.64.48-6.02.74-11.76.86-16.99.09-5.23.04-9.94-.12-13.89-.05-1.98-.18-3.76-.26-5.33a99.96 99.96 0 00-.29-4.02c-.1-1.07-.18-1.91-.23-2.54-.03-.26-.05-.48-.07-.66-.02-.15-.03-.22-.04-.22-.01 0-.01.08-.01.23.01.18.01.4.02.66.03.62.08 1.47.14 2.54.07 1.1.15 2.45.21 4.02.06 1.57.17 3.35.19 5.33.12 3.95.13 8.65.02 13.87-.14 5.22-.42 10.95-.9 16.96-.98 12.01-2.52 22.82-3.78 30.62-.63 3.9-1.17 7.05-1.55 9.23-.18 1.06-.32 1.89-.43 2.51-.04.26-.07.48-.1.65-.05.16-.05.24-.04.24z" fill="#263238"/><path d="M408.05 441.94c.02.01.11-.21.27-.62.18-.46.41-1.06.69-1.8.15-.4.32-.83.49-1.3.21-.47.43-.97.68-1.51.24-.55.5-1.13.77-1.74.27-.62.62-1.24.96-1.91.34-.67.7-1.36 1.07-2.09.41-.71.84-1.44 1.28-2.2.84-1.54 1.94-3.08 2.99-4.75 2.26-3.25 4.91-6.7 7.92-10.13 3.05-3.4 6.16-6.44 9.09-9.1 1.51-1.28 2.9-2.55 4.3-3.62.69-.55 1.35-1.08 1.99-1.59.66-.48 1.29-.95 1.89-1.39 1.19-.91 2.32-1.66 3.3-2.32.98-.68 1.83-1.24 2.55-1.67.67-.43 1.22-.77 1.63-1.03.37-.24.56-.38.55-.39-.01-.01-.22.09-.6.3-.43.24-.99.56-1.68.95-.74.41-1.61.95-2.6 1.61a57.41 57.41 0 00-3.36 2.27c-.61.44-1.25.9-1.92 1.37-.65.5-1.32 1.03-2.02 1.57-1.42 1.06-2.82 2.33-4.34 3.6-2.96 2.65-6.1 5.7-9.16 9.11-3.03 3.44-5.68 6.92-7.93 10.2-1.05 1.69-2.13 3.24-2.97 4.8-.44.77-.86 1.51-1.26 2.23-.36.73-.72 1.44-1.05 2.11-.32.68-.67 1.31-.93 1.93-.26.62-.51 1.21-.74 1.76-.23.55-.44 1.06-.64 1.53-.16.48-.32.92-.46 1.32-.25.76-.45 1.37-.61 1.84-.1.43-.17.65-.15.66zM363.65 388.21c0 .08 1.28.08 3.32.19 2.05.11 4.87.38 7.94.96 3.07.59 5.8 1.37 7.74 2.02 1.95.64 3.13 1.11 3.16 1.04.01-.03-.27-.18-.79-.43s-1.29-.57-2.26-.94c-1.93-.74-4.66-1.58-7.77-2.17-3.1-.59-5.96-.8-8.02-.82-1.03-.01-1.87.01-2.44.05-.56.03-.88.07-.88.1zM355.72 426.97c.15.08 1.34-3.35 4.33-6.53 2.95-3.22 6.28-4.66 6.19-4.8-.02-.05-.87.23-2.14.95-1.26.71-2.91 1.89-4.42 3.52-1.51 1.63-2.57 3.36-3.18 4.67-.62 1.3-.84 2.17-.78 2.19zM382.78 349.86c-.1.11 1.84 2.03 3.95 4.63 2.12 2.59 3.62 4.88 3.74 4.8.11-.06-1.21-2.49-3.36-5.11-2.14-2.64-4.25-4.42-4.33-4.32zM389.13 338.88c-.14-.02-.56 1.84-.96 4.15-.39 2.32-.6 4.21-.47 4.24.13.02.56-1.84.96-4.15.4-2.32.61-4.22.47-4.24zM408.81 373.33c-.12.06 1.26 2.96 3.08 6.48 1.82 3.52 3.4 6.32 3.52 6.25.12-.06-1.26-2.96-3.08-6.48-1.82-3.52-3.39-6.32-3.52-6.25zM420.53 361.63c-.12-.06-1.29 2.04-2.61 4.69-1.32 2.65-2.29 4.85-2.17 4.91.12.06 1.29-2.04 2.61-4.69 1.32-2.65 2.29-4.85 2.17-4.91z" fill="#263238"/><path d="M437.74 401.62c.03.14 2.12-.26 4.73-.44 2.6-.19 4.73-.08 4.74-.23.02-.13-2.12-.46-4.78-.27-2.65.19-4.72.82-4.69.94z" fill="#263238"/><g><path d="M425.99 436.98l-5.86 30.8a4.317 4.317 0 01-4.24 3.51h-17.3c-2.11 0-3.91-1.53-4.26-3.61l-5.09-30.7h36.75z" fill="#263238"/><path fill="#455a64" d="M424.08 446.99h-33.09l-1.75-10.01h36.75z"/><path fill="#fafafa" d="M424.08 446.99l-.69 3.65H391.5l-.51-3.65z"/></g></g></g><g><circle transform="rotate(-45.001 103.615 83.478)" cx="103.62" cy="83.48" fill="#e1a04e" r="40.07"/><circle transform="rotate(-56.571 103.464 83.269)" cx="103.47" cy="83.27" fill="#fafafa" r="37.83"/><path d="M65.72 80.79s.01.21.02.61v1.8c0 .4 0 .84-.01 1.32.02.49.09 1.02.14 1.59.05.58.11 1.19.17 1.86.04.67.24 1.35.36 2.09.47 2.96 1.61 6.49 3.52 10.29 1.93 3.78 4.81 7.78 8.86 11.29.51.43 1.02.87 1.54 1.32.55.41 1.12.79 1.7 1.2.58.38 1.13.84 1.76 1.18.62.35 1.25.7 1.89 1.06l.96.53 1.02.45c.68.3 1.37.6 2.06.91.7.28 1.44.49 2.17.74.74.22 1.46.53 2.24.66 1.54.32 3.08.74 4.71.86.81.08 1.62.21 2.44.25l2.49.03c.42 0 .84.03 1.26 0l1.26-.11c.84-.08 1.7-.13 2.55-.24 1.69-.34 3.42-.57 5.1-1.14 1.72-.43 3.36-1.16 5.03-1.83.82-.38 1.61-.83 2.43-1.24.4-.22.82-.4 1.21-.66l1.16-.75c1.59-.95 3.01-2.17 4.49-3.34 1.35-1.31 2.77-2.59 3.96-4.11l.94-1.1.84-1.18.84-1.19c.29-.39.56-.8.78-1.23.48-.85.96-1.7 1.45-2.56.4-.9.8-1.8 1.2-2.71 1.47-3.68 2.39-7.64 2.71-11.7.21-4.07-.18-8.11-1.16-11.96-.28-.95-.56-1.9-.83-2.84-.37-.91-.73-1.82-1.1-2.73-.17-.46-.38-.9-.61-1.32l-.67-1.29-.67-1.28-.79-1.21c-.98-1.66-2.22-3.11-3.39-4.59-1.31-1.35-2.56-2.75-4.02-3.9l-1.05-.9c-.35-.3-.74-.54-1.11-.81-.75-.52-1.48-1.07-2.24-1.55-1.58-.89-3.1-1.82-4.75-2.47-1.59-.79-3.28-1.24-4.91-1.8-.83-.23-1.67-.38-2.5-.58l-1.24-.27c-.41-.08-.83-.11-1.25-.16-.83-.1-1.66-.2-2.47-.29-.82-.07-1.64-.04-2.45-.07-1.63-.1-3.22.12-4.78.24-.79.03-1.54.24-2.31.37-.76.15-1.52.26-2.25.45-.73.21-1.45.42-2.16.63-.36.1-.71.21-1.07.31-.34.14-.68.27-1.02.4-.68.27-1.35.54-2.01.81-.67.25-1.27.63-1.9.94-.62.33-1.24.63-1.84.97-.57.37-1.14.74-1.7 1.1a37.656 37.656 0 00-10.26 10.03c-2.39 3.51-3.98 6.86-4.84 9.74-.22.72-.51 1.37-.63 2.03-.15.65-.28 1.25-.41 1.82-.12.56-.26 1.08-.34 1.56-.06.48-.12.92-.17 1.31-.1.77-.18 1.36-.23 1.78-.08.38-.12.58-.12.58s.01-.21.04-.61c.04-.42.1-1.02.18-1.79.04-.4.09-.84.14-1.32.07-.48.21-1 .32-1.57.12-.57.25-1.18.39-1.83.11-.66.4-1.32.61-2.04.83-2.9 2.4-6.29 4.79-9.84a37.5 37.5 0 0110.3-10.17c.57-.37 1.14-.74 1.72-1.12.6-.34 1.23-.65 1.85-.98.63-.31 1.24-.7 1.92-.96.67-.27 1.35-.55 2.03-.82.34-.14.69-.27 1.03-.41.36-.11.72-.21 1.08-.32.72-.21 1.45-.43 2.19-.64.74-.19 1.51-.3 2.27-.46.77-.12 1.53-.34 2.33-.38 1.58-.12 3.19-.35 4.84-.25.82.02 1.65 0 2.48.06.83.1 1.66.19 2.51.29.42.06.85.08 1.26.16l1.25.27c.84.19 1.69.35 2.53.58 1.65.56 3.36 1.01 4.97 1.81 1.67.66 3.22 1.6 4.82 2.5.77.49 1.51 1.04 2.28 1.57.37.27.77.51 1.13.82l1.07.91c1.48 1.16 2.74 2.57 4.07 3.94 1.19 1.5 2.44 2.97 3.44 4.65l.8 1.23.68 1.3.68 1.31c.24.43.45.88.62 1.34.37.92.74 1.84 1.12 2.77.28.96.56 1.92.85 2.88.99 3.9 1.39 8 1.17 12.12-.32 4.12-1.26 8.13-2.75 11.86-.41.92-.81 1.83-1.22 2.75-.49.87-.98 1.73-1.47 2.6-.23.44-.5.85-.79 1.25l-.85 1.21-.85 1.2-.95 1.11c-1.21 1.53-2.64 2.83-4.02 4.16-1.5 1.18-2.94 2.42-4.55 3.38l-1.17.76c-.39.26-.82.44-1.22.66-.83.42-1.63.87-2.46 1.25-1.7.68-3.36 1.41-5.1 1.84-1.7.58-3.46.8-5.17 1.14-.86.12-1.73.16-2.58.24l-1.28.11c-.43.03-.85 0-1.27 0-.85-.01-1.69-.03-2.52-.04-.83-.04-1.65-.18-2.47-.26-1.64-.12-3.21-.55-4.76-.88-.79-.14-1.51-.45-2.26-.68-.74-.26-1.49-.46-2.19-.75-.7-.31-1.39-.62-2.08-.92-.34-.15-.69-.3-1.03-.46l-.97-.54c-.64-.36-1.28-.72-1.9-1.08-.64-.34-1.19-.81-1.78-1.2-.57-.41-1.16-.8-1.71-1.22l-1.55-1.34a37.824 37.824 0 01-8.88-11.43c-1.9-3.83-3.02-7.4-3.46-10.38-.12-.74-.31-1.43-.34-2.1-.05-.67-.1-1.29-.15-1.87-.04-.58-.1-1.11-.11-1.6.01-.49.02-.93.03-1.33.02-.78.04-1.38.05-1.8-.01-.43.02-.64.02-.64z" fill="#263238"/><path d="M103.37 51.65c.14 0 .24 1.42.24 3.18 0 1.76-.11 3.18-.24 3.18-.14 0-.24-1.42-.24-3.18 0-1.75.11-3.18.24-3.18zM120.61 56.76c.1.1-.82 1.16-2.04 2.39-1.22 1.22-2.29 2.14-2.39 2.04-.1-.1.82-1.16 2.04-2.39 1.22-1.22 2.29-2.14 2.39-2.04zM130.69 67.77c.06.12-1.14.85-2.61 1.74s-2.66 1.62-2.75 1.51c-.08-.11 1-1.03 2.49-1.93 1.49-.91 2.81-1.44 2.87-1.32zM136.59 84.11c0 .14-1.94.24-4.33.24s-4.33-.11-4.33-.24c0-.14 1.94-.24 4.33-.24 2.39-.01 4.33.1 4.33.24zM76.5 83.53c0 .14-1.83.24-4.09.24s-4.09-.11-4.09-.24c0-.14 1.83-.24 4.09-.24s4.09.11 4.09.24zM80.75 95.69c.09.1-1.3 1.36-3.09 2.81-1.8 1.45-3.32 2.53-3.4 2.42-.08-.11 1.3-1.36 3.09-2.81 1.79-1.43 3.31-2.52 3.4-2.42zM91.24 105.1c.11.08-.91 1.66-2.1 3.65-1.2 1.98-2.11 3.63-2.23 3.57-.12-.06.6-1.82 1.81-3.82 1.2-2.01 2.41-3.48 2.52-3.4zM103.37 117.24c-.14 0-.24-1.94-.24-4.33s.11-4.33.24-4.33c.14 0 .24 1.94.24 4.33.01 2.38-.1 4.33-.24 4.33zM122.05 111.46c-.07.11-1.76-.87-3.57-2.45-1.81-1.58-3.01-3.12-2.91-3.21.11-.09 1.45 1.29 3.23 2.84 1.78 1.56 3.33 2.7 3.25 2.82zM130.82 102.02c-.1.1-1.38-1.03-2.87-2.52-1.49-1.49-2.62-2.77-2.52-2.87.1-.1 1.38 1.03 2.87 2.52 1.48 1.49 2.61 2.77 2.52 2.87zM80.36 71.88c-.1.1-1.23-.88-2.53-2.19-1.3-1.3-2.28-2.44-2.19-2.53.1-.1 1.23.88 2.53 2.19 1.3 1.3 2.28 2.43 2.19 2.53z" fill="#263238"/><g><path d="M91.17 60.48c-.1.1-1.21-.86-2.49-2.13-1.28-1.27-2.24-2.38-2.14-2.48.1-.1 1.21.86 2.49 2.13 1.28 1.28 2.24 2.39 2.14 2.48z" fill="#263238"/></g><g><path d="M103.47 63.36c.04 0 .07.48.1 1.35.02.97.05 2.21.08 3.69.05 3.12.08 7.43.08 12.19v3.1l-.37-.19c-3.68-1.87-6.92-3.53-9.23-4.74-1.08-.58-1.99-1.06-2.71-1.45-.63-.35-.97-.55-.95-.58.01-.03.38.12 1.04.42.74.35 1.67.79 2.78 1.31 2.35 1.13 5.61 2.74 9.31 4.59l-.37.23V80.6c0-4.76.03-9.07.08-12.19.03-1.48.06-2.72.08-3.69.01-.88.04-1.36.08-1.36z" fill="#263238"/></g></g><g><path d="M157.66 246.39l18.31 40.5c.76 1.68 3.06 3.04 4.9 3.06l84.48-.11a3.59 3.59 0 00-3.48-3.16l-32.06-.7-16.41-39.38a3.39 3.39 0 00-3.11-2.09l-51.16-.39a1.602 1.602 0 00-1.47 2.27z" fill="#e0e0e0"/><path d="M157.66 246.39s-.1-.14-.15-.47c-.05-.32-.01-.87.45-1.36.22-.24.57-.43.98-.48.41-.03.83-.01 1.31-.01h3.26c4.93.02 12.09.05 21.06.09 4.49.02 9.44.05 14.79.08 2.67.02 5.45.03 8.32.05.72 0 1.44.01 2.17.01.71-.03 1.56.07 2.23.48.68.39 1.24 1.02 1.54 1.75.29.69.58 1.39.88 2.1 4.7 11.26 9.94 23.81 15.56 37.25l-.23-.15c5.59.12 11.38.25 17.33.37 2.97.06 5.98.13 9.02.2 1.52.03 3.05.07 4.58.1l1.15.03c.41.01.82.09 1.21.24.78.29 1.46.83 1.91 1.53.32.5.52 1.08.58 1.62l.04.29h-.29c-18.68.02-36.46.03-52.61.05-8.08 0-15.75 0-22.93.01H181.96c-.43-.01-.84.01-1.28-.01-.44-.03-.87-.12-1.28-.25-1.61-.54-3.09-1.64-3.72-3.2-.65-1.46-1.3-2.88-1.92-4.27-4.99-11.12-9.03-20.12-11.82-26.35-1.38-3.1-2.45-5.52-3.19-7.17-.35-.81-.63-1.43-.82-1.87-.19-.44-.27-.66-.27-.66s.11.21.31.62c.2.43.49 1.05.86 1.85.76 1.65 1.86 4.04 3.28 7.13 2.83 6.22 6.92 15.19 11.97 26.28.63 1.39 1.28 2.81 1.94 4.26.58 1.44 1.97 2.47 3.49 2.98.77.27 1.57.24 2.44.23.85 0 1.71 0 2.57-.01 1.73 0 3.5-.01 5.29-.01 7.18-.02 14.85-.04 22.93-.06 16.16-.03 33.93-.06 52.61-.09l-.26.29c-.06-.47-.23-.97-.5-1.4-.39-.6-.98-1.07-1.65-1.32-.33-.12-.69-.2-1.05-.2l-1.15-.03c-1.53-.03-3.06-.07-4.58-.1-3.04-.07-6.05-.13-9.02-.2-5.94-.13-11.74-.26-17.33-.39h-.16l-.06-.15c-5.59-13.46-10.81-26.01-15.5-37.28l-.87-2.1c-.27-.65-.76-1.2-1.36-1.55-.62-.36-1.28-.45-2.02-.43-.73-.01-1.45-.01-2.17-.02-2.87-.03-5.64-.05-8.32-.08-5.35-.05-10.29-.1-14.79-.14-8.97-.1-16.13-.18-21.06-.23-1.23-.02-2.31-.03-3.26-.05-.47 0-.91-.03-1.29-.01a1.564 1.564 0 00-1.4 1.72c.04.33.12.48.11.49z" fill="#263238"/><path d="M228.24 290.3c-.02.01-.1-.15-.25-.44-.17-.35-.37-.79-.61-1.31-.54-1.22-1.26-2.86-2.14-4.85-1.79-4.11-4.21-9.8-6.82-16.12-2.61-6.32-4.91-12.06-6.51-16.25-.8-2.09-1.43-3.79-1.84-4.98-.19-.55-.34-1-.46-1.37-.1-.31-.15-.48-.13-.49.02-.01.09.15.23.45.15.36.33.8.56 1.33.5 1.23 1.18 2.9 1.99 4.91 1.73 4.21 4.07 9.9 6.65 16.19 2.59 6.28 4.94 11.96 6.68 16.17.82 2.02 1.49 3.68 1.99 4.92.21.54.38.98.52 1.35.11.32.16.48.14.49z" fill="#455a64"/><g><path d="M195.11 266.03c0 1.45-1.17 2.62-2.62 2.62-1.45 0-2.62-1.17-2.62-2.62 0-1.45 1.17-2.62 2.62-2.62 1.45 0 2.62 1.17 2.62 2.62z" fill="#fff"/></g></g><g><path d="M314.22 203.33l-6.71-11.83a31.5 31.5 0 004.69-16.57c0-17.48-14.17-31.65-31.64-31.65-17.48 0-31.65 14.17-31.65 31.65 0 17.48 14.17 31.64 31.65 31.64 7.3 0 14.01-2.48 19.37-6.63l-.01.01 14.3 3.38z" fill="#fafafa"/><path d="M314.22 203.33c-.9-.2-5.3-1.2-14.35-3.24a.133.133 0 01-.1-.15c0-.02.01-.04.02-.05l.01-.01.18.18a31.585 31.585 0 01-15.2 6.42c-1.61.21-3.29.34-5.02.26-.86-.05-1.74-.07-2.63-.14-.88-.13-1.77-.27-2.68-.4-3.59-.71-7.26-2.07-10.69-4.19a32.161 32.161 0 01-9.13-8.52c-2.54-3.53-4.46-7.71-5.36-12.25-.89-4.54-.82-9.4.37-14.11 1.2-4.69 3.44-9.28 6.8-13.05 3.4-3.85 7.59-6.94 12.22-8.73a32.36 32.36 0 0114.22-2.18c4.7.34 9.19 1.69 13.05 3.86 3.87 2.15 7.13 5.03 9.64 8.24a32.26 32.26 0 015.4 10.29c1.09 3.54 1.39 7.06 1.37 10.31-.19 6.55-2.39 11.93-4.74 15.72v-.13c4.19 7.49 6.19 11.1 6.62 11.87l-6.82-11.77a.148.148 0 010-.13c2.3-3.78 4.44-9.12 4.6-15.6 0-3.22-.31-6.69-1.4-10.18a31.805 31.805 0 00-14.88-18.23c-3.8-2.13-8.23-3.45-12.85-3.78-4.62-.33-9.46.36-13.99 2.16-4.55 1.76-8.68 4.8-12.02 8.59-3.3 3.71-5.51 8.22-6.69 12.83-1.18 4.63-1.25 9.42-.38 13.89.88 4.47 2.77 8.59 5.26 12.07 2.5 3.48 5.61 6.32 8.98 8.42 3.37 2.1 6.99 3.46 10.53 4.17.89.14 1.77.27 2.64.41.88.08 1.74.1 2.6.15 1.71.09 3.37-.03 4.96-.23 6.4-.84 11.52-3.51 15.09-6.27.06-.04.14-.03.18.02.04.05.04.11 0 .16l-.01.01-.07-.2c8.99 2.22 13.38 3.29 14.27 3.51z" fill="#263238"/><g fill="#263238"><path d="M273.31 176.2v3.05h-1.54v-2.81c0-.86-.39-1.26-1.01-1.26-.69 0-1.18.45-1.18 1.39v2.67h-1.54v-2.81c0-.86-.37-1.26-1.01-1.26-.68 0-1.17.45-1.17 1.39v2.67h-1.54v-5.32h1.47v.61c.4-.46.99-.69 1.67-.69.74 0 1.37.29 1.75.87.42-.54 1.12-.87 1.92-.87 1.27.01 2.18.74 2.18 2.37zM283.69 176.2v3.05h-1.54v-2.81c0-.86-.39-1.26-1.01-1.26-.69 0-1.18.45-1.18 1.39v2.67h-1.54v-2.81c0-.86-.37-1.26-1.01-1.26-.68 0-1.17.45-1.17 1.39v2.67h-1.54v-5.32h1.47v.61c.4-.46.99-.69 1.67-.69.74 0 1.37.29 1.75.87.42-.54 1.12-.87 1.92-.87 1.27.01 2.18.74 2.18 2.37zM294.07 176.2v3.05h-1.54v-2.81c0-.86-.39-1.26-1.01-1.26-.69 0-1.18.45-1.18 1.39v2.67h-1.54v-2.81c0-.86-.37-1.26-1.01-1.26-.68 0-1.17.45-1.17 1.39v2.67h-1.54v-5.32h1.47v.61c.4-.46.99-.69 1.67-.69.74 0 1.37.29 1.75.87.42-.54 1.12-.87 1.92-.87 1.27.01 2.18.74 2.18 2.37zM295.08 178.35c0-.57.43-.95.96-.95s.96.38.96.95c0 .56-.42.97-.96.97s-.96-.41-.96-.97zM297.67 178.35c0-.57.43-.95.96-.95s.96.38.96.95c0 .56-.42.97-.96.97a.95.95 0 01-.96-.97zM300.26 178.35c0-.57.43-.95.96-.95s.96.38.96.95c0 .56-.42.97-.96.97a.95.95 0 01-.96-.97z"/></g></g><g><path d="M470.99 470.41c0 .14-99.18.26-221.49.26-122.35 0-221.51-.12-221.51-.26s99.15-.26 221.51-.26c122.31 0 221.49.12 221.49.26z" fill="#263238"/></g></svg>