<svg xmlns="http://www.w3.org/2000/svg" width="400.645" height="250.664" viewBox="0 0 400.645 250.664"><g transform="matrix(0.982, 0, -0.017, 0.996, -27.979, -5778.295)"><g transform="translate(122 5798)"><g transform="translate(0 0)"><g transform="translate(0 28.529)"><g transform="translate(0.157 0.157)"><rect width="87.798" height="58.786" fill="#fff"/></g><path d="M111.778,138.265s-.009-.368-.014-1.069-.008-1.745-.014-3.1c-.008-2.721-.018-6.713-.032-11.823-.016-10.213-.038-24.894-.066-42.792l.126.126-87.791.032H23.98l.157-.157c0,20.943-.009,40.858-.013,58.786l-.144-.144,63.253.071,18.071.039,4.807.017,1.241.009c.28,0,.426.009.426.009s-.135.006-.409.009l-1.225.008-4.778.018-18.038.039-63.347.071h-.144v-.144c0-17.928-.009-37.843-.013-58.786v-.157h.164l87.791.031h.126v.126c-.028,17.931-.05,32.638-.066,42.87-.014,5.1-.024,9.08-.032,11.8-.006,1.346-.011,2.377-.014,3.078S111.778,138.265,111.778,138.265Z" transform="translate(-23.823 -79.322)" fill="#e0e0e0"/><g transform="translate(0.157 5.246)"><path d="M24.1,88.579c0-.087,19.639-.157,43.861-.157s43.865.07,43.865.157-19.635.157-43.865.157S24.1,88.666,24.1,88.579Z" transform="translate(-24.096 -88.422)" fill="#e0e0e0"/></g><g transform="translate(2.214 2.053)"><g opacity="0.3"><path d="M29.07,83.587a.7.7,0,1,1-.7-.7A.7.7,0,0,1,29.07,83.587Z" transform="translate(-27.663 -82.883)" fill="#e0e0e0"/></g><g transform="translate(2.411)" opacity="0.3"><path d="M33.253,83.587a.7.7,0,1,1-.7-.7A.7.7,0,0,1,33.253,83.587Z" transform="translate(-31.846 -82.883)" fill="#e0e0e0"/></g><g transform="translate(4.788)" opacity="0.3"><path d="M37.375,83.587a.7.7,0,1,1-.7-.7A.7.7,0,0,1,37.375,83.587Z" transform="translate(-35.968 -82.883)" fill="#e0e0e0"/></g></g><g transform="translate(7.705 11.534)"><rect width="23.42" height="23.42" fill="#e0e0e0"/></g><g transform="translate(35.115 17.996)"><path d="M125.535,110.7c0,.086-9.135.157-20.4.157s-20.4-.071-20.4-.157,9.132-.157,20.4-.157S125.535,110.609,125.535,110.7Z" transform="translate(-84.735 -110.539)" fill="#e0e0e0"/></g><g transform="translate(35.115 22.348)"><path d="M125.535,118.245c0,.087-9.135.157-20.4.157s-20.4-.07-20.4-.157,9.132-.157,20.4-.157S125.535,118.158,125.535,118.245Z" transform="translate(-84.735 -118.088)" fill="#e0e0e0"/></g><g transform="translate(35.115 26.7)"><path d="M125.535,125.794c0,.087-9.135.157-20.4.157s-20.4-.07-20.4-.157,9.132-.157,20.4-.157S125.535,125.707,125.535,125.794Z" transform="translate(-84.735 -125.637)" fill="#e0e0e0"/></g><g transform="translate(35.115 31.053)"><path d="M108.848,133.344a5.456,5.456,0,0,1-.948.062l-2.584.05c-2.182.028-5.2.046-8.525.046s-6.344-.018-8.526-.046l-2.584-.05a5.444,5.444,0,0,1-.947-.062,5.565,5.565,0,0,1,.947-.061l2.584-.05c2.182-.029,5.2-.046,8.526-.046s6.343.017,8.525.046l2.584.05A5.577,5.577,0,0,1,108.848,133.344Z" transform="translate(-84.735 -133.187)" fill="#e0e0e0"/></g><g transform="translate(9.171 42.85)"><rect width="11.006" height="11.006" fill="#e0e0e0"/></g><g transform="translate(29.131 42.85)"><g transform="translate(0)"><rect width="11.006" height="11.006" fill="#e0e0e0"/></g></g><g transform="translate(49.091 42.85)"><rect width="11.006" height="11.006" fill="#e0e0e0"/></g><g transform="translate(69.052 42.85)"><rect width="11.006" height="11.006" fill="#e0e0e0"/></g></g><g transform="translate(100.791)"><g transform="translate(0.12 0.12)"><rect width="75.63" height="30.72" fill="#fff"/></g><path d="M274.407,60.674s-.006-.189-.009-.549-.005-.9-.009-1.594c-.005-1.4-.012-3.461-.021-6.113-.01-5.3-.026-12.972-.046-22.464l.084.084-75.624.036h-.005l.12-.12c0,10.757,0,21.142-.005,30.72l-.115-.115L253,60.614l15.73.032,4.21.014,1.09.007c.246,0,.374.007.374.007s-.119,0-.36.007l-1.076.007-4.186.014-15.7.032-54.3.054h-.115v-.115c0-9.578,0-19.962-.005-30.72v-.12h.125l75.624.036h.085v.084c-.019,9.513-.035,17.2-.046,22.514-.009,2.644-.016,4.7-.021,6.095,0,.691-.007,1.218-.009,1.578S274.407,60.674,274.407,60.674Z" transform="translate(-198.658 -29.835)" fill="#e0e0e0"/><g transform="translate(0.195 4.143)"><path d="M199,37.141c0-.066,16.905-.12,37.753-.12s37.756.054,37.756.12-16.9.12-37.756.12S199,37.207,199,37.141Z" transform="translate(-198.997 -37.021)" fill="#e0e0e0"/></g><g transform="translate(2.264 1.861)"><g transform="translate(0 0)" opacity="0.3"><path d="M203.683,33.612a.549.549,0,1,1-.549-.549A.549.549,0,0,1,203.683,33.612Z" transform="translate(-202.585 -33.063)" fill="#ebebeb"/></g><g transform="translate(1.881 0)" opacity="0.3"><path d="M206.945,33.612a.549.549,0,1,1-.549-.549A.549.549,0,0,1,206.945,33.612Z" transform="translate(-205.847 -33.063)" fill="#ebebeb"/></g><g transform="translate(3.735)" opacity="0.3"><circle cx="0.549" cy="0.549" r="0.549" fill="#ebebeb"/></g></g><g transform="translate(6.547 9.256)"><rect width="18.268" height="18.267" fill="#e0e0e0"/></g><g transform="translate(28.528 14.031)"><path d="M290.132,54.294c0,.066-9.4.119-20.994.119s-21-.054-21-.119,9.4-.12,21-.12S290.132,54.228,290.132,54.294Z" transform="translate(-248.143 -54.174)" fill="#e0e0e0"/><g transform="translate(0 3.721)"><path d="M290.132,60.749c0,.066-9.4.12-20.994.12s-21-.054-21-.12,9.4-.12,21-.12S290.132,60.683,290.132,60.749Z" transform="translate(-248.143 -60.629)" fill="#e0e0e0"/></g><g transform="translate(0 7.443)"><path d="M275.173,67.2a1.143,1.143,0,0,1-.274.024l-.788.022-2.9.038-9.556.035-9.558-.035-2.9-.038-.787-.022a1.143,1.143,0,0,1-.274-.024,1.224,1.224,0,0,1,.274-.024l.787-.022,2.9-.037,9.558-.035,9.556.035,2.9.037.788.022A1.225,1.225,0,0,1,275.173,67.2Z" transform="translate(-248.143 -67.085)" fill="#e0e0e0"/></g></g></g><g transform="translate(353.429 17.843)"><g transform="translate(27.169 12.008)"><path d="M684.019,92.882a2.781,2.781,0,0,1,.428-.487l1.243-1.249c1.058-1.045,2.534-2.475,4.176-4.041l.037-.035,0,.211c-1.654-1.537-3.14-2.938-4.2-3.962l-1.25-1.224a2.723,2.723,0,0,1-.431-.477,2.8,2.8,0,0,1,.507.395l1.313,1.156c1.1.986,2.607,2.363,4.261,3.9l.113.1-.111.107-.038.036c-1.642,1.566-3.14,2.972-4.234,3.98l-1.306,1.182A2.784,2.784,0,0,1,684.019,92.882Z" transform="translate(-684.018 -81.616)" fill="#e0e0e0"/></g><g transform="translate(8.206 12.008)"><path d="M657.319,81.617a2.778,2.778,0,0,1-.428.487l-1.243,1.249c-1.058,1.045-2.534,2.475-4.176,4.041l-.037.035,0-.211c1.655,1.537,3.14,2.938,4.2,3.962l1.25,1.224a2.721,2.721,0,0,1,.431.477,2.8,2.8,0,0,1-.507-.395L655.5,91.331c-1.1-.986-2.607-2.363-4.261-3.9l-.113-.1.111-.107.038-.036c1.642-1.566,3.14-2.972,4.234-3.98l1.306-1.182A2.8,2.8,0,0,1,657.319,81.617Z" transform="translate(-651.125 -81.616)" fill="#e0e0e0"/></g><g transform="translate(17.675 9.2)"><path d="M667.554,93.472c-.075-.028,1.265-3.8,2.993-8.414s3.189-8.341,3.264-8.313-1.265,3.8-2.994,8.415S667.628,93.5,667.554,93.472Z" transform="translate(-667.551 -76.745)" fill="#e0e0e0"/></g><path d="M678.571,94.775s-.009-.219-.013-.63-.008-1.025-.013-1.812c-.008-1.592-.018-3.91-.031-6.864-.015-5.91-.036-14.355-.062-24.537l.12.12-41.532.024h0l.144-.145c-.005,12.235-.011,23.788-.015,33.844l-.129-.13,29.993.065,8.5.034,2.256.016.583.007c.132,0,.2.007.2.007s-.06,0-.187.007l-.569.008-2.232.016-8.472.035-30.076.065h-.129v-.129c0-10.056-.01-21.609-.016-33.844v-.145h.148l41.532.024h.12v.12c-.026,10.214-.047,18.685-.062,24.613-.013,2.942-.024,5.252-.031,6.837-.006.778-.01,1.376-.014,1.789S678.571,94.775,678.571,94.775Z" transform="translate(-636.891 -60.786)" fill="#e0e0e0"/><g transform="translate(0.126 5.021)"><path d="M678.989,69.641c0,.08-9.376.145-20.939.145s-20.941-.065-20.941-.145,9.374-.145,20.941-.145S678.989,69.561,678.989,69.641Z" transform="translate(-637.109 -69.496)" fill="#e0e0e0"/></g><g transform="translate(2.416 2.135)"><path d="M642.2,65.051a.559.559,0,1,1-.559-.561A.56.56,0,0,1,642.2,65.051Z" transform="translate(-641.081 -64.49)" fill="#e0e0e0"/><g transform="translate(2.038)"><path d="M645.735,65.051a.559.559,0,1,1-.559-.561A.56.56,0,0,1,645.735,65.051Z" transform="translate(-644.617 -64.49)" fill="#e0e0e0"/></g><g transform="translate(4.077)"><path d="M649.271,65.051a.559.559,0,1,1-.559-.561A.56.56,0,0,1,649.271,65.051Z" transform="translate(-648.153 -64.49)" fill="#e0e0e0"/></g></g></g><g transform="translate(359.107 168.272)"><g transform="translate(23.553 31.203)"><path d="M690.476,377.032a12.72,12.72,0,0,1,7.891-.959,6.554,6.554,0,0,1,3.9,1.74c.974,1.075,1.158,2.967.04,3.891a3.731,3.731,0,0,1-2.458.623c-2.086-.024-4.4-.391-6.067.864-.951.716-1.584,1.906-2.72,2.259a2.687,2.687,0,0,1-2.957-1.316,4.6,4.6,0,0,1-.334-3.389A5.175,5.175,0,0,1,690.476,377.032Z" transform="translate(-687.598 -375.851)" fill="#ebebeb"/></g><g transform="translate(19.547)"><path d="M682.034,343.494c1.468,2.1,4.32,1.4,5.643.123a10.659,10.659,0,0,0,2.39-4.9c1.163-4.04,2.335-8.278,1.471-12.393a6.887,6.887,0,0,0-1.583-3.37,3.6,3.6,0,0,0-3.409-1.135c-1.438.38-2.332,1.789-2.978,3.129a29.546,29.546,0,0,0-2.919,12.678,10.246,10.246,0,0,0,1.386,5.87" transform="translate(-680.648 -321.725)" fill="#ebebeb"/></g><g transform="translate(0 6.745)"><path d="M663.644,351.457a7.629,7.629,0,0,0,1.187-7.019,13.528,13.528,0,0,0-4.158-6.03,22.37,22.37,0,0,0-7.444-4.392,7.935,7.935,0,0,0-3.348-.569,3.514,3.514,0,0,0-2.809,1.7c-.783,1.494-.032,3.306.78,4.785a56.682,56.682,0,0,0,4.889,7.445c1.465,1.89,3.144,3.754,5.378,4.607s4.553.753,5.737-.8" transform="translate(-646.742 -333.424)" fill="#ebebeb"/></g><g transform="translate(20.806 34.114)"><path d="M682.859,400.176a4.586,4.586,0,0,0,.133-.952l.253-2.6a37.527,37.527,0,0,1,.584-3.812,29.406,29.406,0,0,1,1.386-4.5,16.565,16.565,0,0,1,2.3-4.072,8.579,8.579,0,0,1,2.9-2.415,8.121,8.121,0,0,1,2.447-.762,4.607,4.607,0,0,0,.948-.137,4.457,4.457,0,0,0-.965-.015,7.4,7.4,0,0,0-2.551.664,8.566,8.566,0,0,0-3.065,2.436,16.2,16.2,0,0,0-2.382,4.154,27.545,27.545,0,0,0-1.375,4.574,32.208,32.208,0,0,0-.507,3.861c-.082,1.1-.114,2-.129,2.616A4.5,4.5,0,0,0,682.859,400.176Z" transform="translate(-682.833 -380.9)" fill="#e0e0e0"/></g><g transform="translate(20.806 8.422)"><path d="M683.039,379.3a1.871,1.871,0,0,0,.026-.442c0-.332,0-.75,0-1.264,0-1.1,0-2.684.056-4.644.1-3.92.435-8.139,1.087-14.087.617-5.593,1.446-12.1,2.32-16.333.187-.962.376-1.829.554-2.587s.314-1.416.454-1.946c.12-.5.217-.906.3-1.229a.222.222,0,1,0-.076-.022c-.1.318-.218.719-.367,1.211-.163.525-.33,1.177-.52,1.934s-.406,1.619-.612,2.58a143.568,143.568,0,0,0-2.439,15.155c-.653,5.96-.948,11.387-.974,15.317-.023,1.965.018,3.556.069,4.653.032.513.057.931.077,1.263A1.885,1.885,0,0,0,683.039,379.3Z" transform="translate(-682.833 -336.334)" fill="#e0e0e0"/></g><g transform="translate(7.037 11.623)"><path d="M672.95,371.185a8.441,8.441,0,0,0-.009-1.32c-.049-.849-.165-2.075-.4-3.577a47.059,47.059,0,0,0-1.163-5.211,42.592,42.592,0,0,0-2.179-6.166,32.845,32.845,0,0,0-6.4-9.965,16.2,16.2,0,0,0-1.506-1.4c-.231-.2-.435-.39-.643-.544l-.584-.4a8.542,8.542,0,0,0-1.112-.712,39.427,39.427,0,0,1,3.643,3.25,34.6,34.6,0,0,1,6.24,9.93,48.655,48.655,0,0,1,2.192,6.11,52.944,52.944,0,0,1,1.238,5.16c.273,1.487.431,2.7.526,3.541A8.486,8.486,0,0,0,672.95,371.185Z" transform="translate(-658.948 -341.886)" fill="#e0e0e0"/></g><g transform="translate(10.922 59.386)"><path d="M665.686,424.738l1.049,14.369h18.459l1.049-14.369Z" transform="translate(-665.686 -424.738)" fill="#e0e0e0"/></g><g transform="translate(9.139 53.722)"><rect width="24.543" height="5.664" fill="#e0e0e0"/></g><g transform="translate(9.139 73.205)"><path d="M662.594,448.709v1.57h24.137v-1.57Z" transform="translate(-662.594 -448.709)" fill="#ebebeb"/></g><g transform="translate(10.292 74.775)"><path d="M665.724,454.2l-1.13-2.763h22.1L685.38,454.2Z" transform="translate(-664.594 -451.432)" fill="#e0e0e0"/></g><g transform="translate(11.233 62.064)"><path d="M686.129,431.4a.634.634,0,0,1-.086.132l-.276.365-1.075,1.376-.048.061-.046-.063-2.642-3.654h.152l-2.6,3.683-.082.115-.091-.108-3.085-3.67.178,0-.17.213-2.758,3.458-.092.115-.085-.12-2.6-3.683.151.008-3.2,3.651-.057.065-.043-.073-1-1.686-.257-.448a.735.735,0,0,1-.079-.16.706.706,0,0,1,.108.142l.285.432,1.053,1.655-.1-.008,3.154-3.7.08-.093.072.1,2.626,3.665-.177-.005,2.752-3.463.169-.213.088-.11.09.108,3.077,3.677-.173.007,2.627-3.664.077-.108.076.108,2.586,3.694-.094,0,1.118-1.341.3-.346C686.088,431.435,686.125,431.4,686.129,431.4Z" transform="translate(-666.226 -429.382)" fill="#f5f5f5"/></g><g transform="translate(11.075 59.176)"><path d="M686.613,424.489c0,.063-4.625.115-10.33.115s-10.331-.052-10.331-.115,4.625-.115,10.331-.115S686.613,424.425,686.613,424.489Z" transform="translate(-665.953 -424.374)" fill="#f5f5f5"/></g><g transform="translate(10.215 74.815)"><path d="M686.914,451.616c0,.063-5.027.115-11.227.115s-11.227-.051-11.227-.115,5.026-.115,11.227-.115S686.914,451.553,686.914,451.616Z" transform="translate(-664.46 -451.501)" fill="#f5f5f5"/></g></g></g><g transform="translate(32.052 42.81)"><g transform="translate(12.666)"><path d="M7.751,0H296.136a6.74,6.74,0,0,1,6.74,6.74V185.721a14.567,14.567,0,0,1-14.567,14.567H14.567A14.567,14.567,0,0,1,0,185.721V7.751A7.751,7.751,0,0,1,7.751,0Z" fill="#455a64"/></g><g transform="translate(0 185.476)"><path d="M0,0H328.143a0,0,0,0,1,0,0V3.8a13.721,13.721,0,0,1-13.721,13.721H13.721A13.721,13.721,0,0,1,0,3.8V0A0,0,0,0,1,0,0Z" fill="#455a64"/></g><g transform="translate(20.796 7.958)"><rect width="285.769" height="169.14" fill="#e0e0e0"/></g><g transform="translate(134.246 185.476)"><g transform="translate(0)"><path d="M312.289,425.826l4.072,6.477h57.3l3.781-6.477Z" transform="translate(-312.289 -425.826)" fill="#263238"/></g></g><g transform="translate(29.275 17.757)"><rect width="269.5" height="159.341" fill="#263238"/><g transform="translate(20.424 3.078)"><path d="M165.883,291.822c-.14,0-.253-33.937-.253-75.79s.113-75.8.253-75.8.253,33.929.253,75.8S166.023,291.822,165.883,291.822Z" transform="translate(-165.631 -140.235)" fill="#e0e0e0"/></g><g transform="translate(6.485 16.565)"><path d="M150.207,163.883a19.129,19.129,0,0,1-4.377.253,19.128,19.128,0,0,1-4.378-.253,19.188,19.188,0,0,1,4.378-.253A19.189,19.189,0,0,1,150.207,163.883Z" transform="translate(-141.452 -163.631)" fill="#e0e0e0"/></g><g transform="translate(6.822 7.964)"><path d="M150.792,148.964a19.168,19.168,0,0,1-4.377.253,19.175,19.175,0,0,1-4.378-.253,19.2,19.2,0,0,1,4.378-.253A19.19,19.19,0,0,1,150.792,148.964Z" transform="translate(-142.036 -148.711)" fill="#e0e0e0"/></g><g transform="translate(6.485 25.836)"><path d="M150.207,179.966a19.188,19.188,0,0,1-4.377.253,19.187,19.187,0,0,1-4.378-.253,19.129,19.129,0,0,1,4.378-.253A19.131,19.131,0,0,1,150.207,179.966Z" transform="translate(-141.452 -179.713)" fill="#e0e0e0"/></g><g transform="translate(6.485 35.108)"><path d="M150.207,196.048a19.167,19.167,0,0,1-4.377.253,19.166,19.166,0,0,1-4.378-.253,19.19,19.19,0,0,1,4.378-.252A19.191,19.191,0,0,1,150.207,196.048Z" transform="translate(-141.452 -195.796)" fill="#e0e0e0"/></g><g transform="translate(6.485 44.379)"><path d="M150.207,212.13a19.128,19.128,0,0,1-4.377.253,19.127,19.127,0,0,1-4.378-.253,19.19,19.19,0,0,1,4.378-.252A19.191,19.191,0,0,1,150.207,212.13Z" transform="translate(-141.452 -211.878)" fill="#e0e0e0"/></g><g transform="translate(6.485 53.65)"><path d="M150.207,228.213a19.167,19.167,0,0,1-4.377.253,19.166,19.166,0,0,1-4.378-.253,19.168,19.168,0,0,1,4.378-.253A19.169,19.169,0,0,1,150.207,228.213Z" transform="translate(-141.452 -227.96)" fill="#e0e0e0"/></g><g transform="translate(6.485 62.922)"><path d="M150.207,244.3a19.129,19.129,0,0,1-4.377.253,19.128,19.128,0,0,1-4.378-.253,19.188,19.188,0,0,1,4.378-.253A19.189,19.189,0,0,1,150.207,244.3Z" transform="translate(-141.452 -244.043)" fill="#e0e0e0"/></g><g transform="translate(6.485 72.193)"><path d="M150.207,260.378a19.187,19.187,0,0,1-4.377.253,19.186,19.186,0,0,1-4.378-.253,19.169,19.169,0,0,1,4.378-.253A19.17,19.17,0,0,1,150.207,260.378Z" transform="translate(-141.452 -260.125)" fill="#e0e0e0"/></g><g transform="translate(6.485 81.465)"><path d="M150.207,276.461a19.131,19.131,0,0,1-4.377.253,19.13,19.13,0,0,1-4.378-.253,19.187,19.187,0,0,1,4.378-.253A19.188,19.188,0,0,1,150.207,276.461Z" transform="translate(-141.452 -276.208)" fill="#e0e0e0"/></g><g transform="translate(6.485 90.736)"><path d="M150.207,292.543a19.188,19.188,0,0,1-4.377.253,19.187,19.187,0,0,1-4.378-.253,19.166,19.166,0,0,1,4.378-.253A19.167,19.167,0,0,1,150.207,292.543Z" transform="translate(-141.452 -292.29)" fill="#e0e0e0"/></g><g transform="translate(6.485 100.007)"><path d="M150.207,308.625a19.192,19.192,0,0,1-4.377.252,19.191,19.191,0,0,1-4.378-.252,19.168,19.168,0,0,1,4.378-.253A19.169,19.169,0,0,1,150.207,308.625Z" transform="translate(-141.452 -308.372)" fill="#e0e0e0"/></g><g transform="translate(6.485 109.279)"><g transform="translate(0 0)"><path d="M150.207,324.708a19.191,19.191,0,0,1-4.377.253,19.189,19.189,0,0,1-4.378-.253,19.129,19.129,0,0,1,4.378-.253A19.13,19.13,0,0,1,150.207,324.708Z" transform="translate(-141.452 -324.455)" fill="#e0e0e0"/></g></g><g transform="translate(6.485 118.55)"><path d="M150.207,340.79a19.172,19.172,0,0,1-4.377.253,19.171,19.171,0,0,1-4.378-.253,19.165,19.165,0,0,1,4.378-.253A19.166,19.166,0,0,1,150.207,340.79Z" transform="translate(-141.452 -340.537)" fill="#e0e0e0"/></g><g transform="translate(6.485 127.822)"><path d="M150.207,356.872a19.13,19.13,0,0,1-4.377.253,19.129,19.129,0,0,1-4.378-.253,19.189,19.189,0,0,1,4.378-.253A19.191,19.191,0,0,1,150.207,356.872Z" transform="translate(-141.452 -356.62)" fill="#e0e0e0"/></g><g transform="translate(6.485 137.093)"><path d="M150.207,372.955a19.191,19.191,0,0,1-4.377.253,19.189,19.189,0,0,1-4.378-.253,19.168,19.168,0,0,1,4.378-.253A19.169,19.169,0,0,1,150.207,372.955Z" transform="translate(-141.452 -372.702)" fill="#e0e0e0"/></g><g transform="translate(6.485 146.365)"><path d="M150.207,389.037a19.128,19.128,0,0,1-4.377.253,19.127,19.127,0,0,1-4.378-.253,19.191,19.191,0,0,1,4.378-.252A19.192,19.192,0,0,1,150.207,389.037Z" transform="translate(-141.452 -388.785)" fill="#e0e0e0"/></g><g transform="translate(27.612 16.018)"><path d="M200.82,162.935c0,.139-5.087.253-11.36.253s-11.362-.114-11.362-.253,5.086-.253,11.362-.253S200.82,162.8,200.82,162.935Z" transform="translate(-178.098 -162.682)" fill="#feab45"/></g><g transform="translate(27.612 146.365)"><path d="M200.82,389.037c0,.14-5.087.253-11.36.253s-11.362-.113-11.362-.253,5.086-.252,11.362-.252S200.82,388.9,200.82,389.037Z" transform="translate(-178.098 -388.785)" fill="#feab45"/></g><g transform="translate(39.464 35.108)"><path d="M241.172,196.048c0,.14-9.518.253-21.256.253s-21.258-.114-21.258-.253,9.516-.252,21.258-.252S241.172,195.909,241.172,196.048Z" transform="translate(-198.658 -195.796)" fill="#feab45"/></g><g transform="translate(88.623 35.108)"><path d="M326.444,196.048c0,.14-9.518.253-21.256.253s-21.258-.114-21.258-.253,9.516-.252,21.258-.252S326.444,195.909,326.444,196.048Z" transform="translate(-283.931 -195.796)" fill="#e0e0e0"/></g><g transform="translate(49.695 44.379)"><path d="M279.059,212.13c0,.14-14.027.253-31.325.253s-31.328-.113-31.328-.253,14.024-.252,31.328-.252S279.059,211.991,279.059,212.13Z" transform="translate(-216.405 -211.878)" fill="#e0e0e0"/></g><g transform="translate(49.695 53.65)"><path d="M279.059,228.213c0,.14-14.027.253-31.325.253s-31.328-.114-31.328-.253,14.024-.253,31.328-.253S279.059,228.074,279.059,228.213Z" transform="translate(-216.405 -227.96)" fill="#e0e0e0"/></g><g transform="translate(92.823 81.465)"><path d="M353.868,276.461c0,.14-14.026.253-31.325.253s-31.328-.113-31.328-.253,14.023-.253,31.328-.253S353.868,276.321,353.868,276.461Z" transform="translate(-291.215 -276.208)" fill="#e0e0e0"/></g><g transform="translate(74.212 62.922)"><path d="M321.587,244.3c0,.14-14.027.253-31.325.253s-31.328-.113-31.328-.253,14.024-.253,31.328-.253S321.587,244.156,321.587,244.3Z" transform="translate(-258.933 -244.043)" fill="#e0e0e0"/></g><g transform="translate(150.776 62.922)"><path d="M454.4,244.3c0,.14-14.027.253-31.325.253s-31.328-.113-31.328-.253,14.023-.253,31.328-.253S454.4,244.156,454.4,244.3Z" transform="translate(-391.743 -244.043)" fill="#e0e0e0"/></g><g transform="translate(124.149 44.379)"><g transform="translate(0)"><path d="M408.209,212.13c0,.14-14.027.253-31.325.253s-31.328-.113-31.328-.253,14.024-.252,31.328-.252S408.209,211.991,408.209,212.13Z" transform="translate(-345.555 -211.878)" fill="#fafafa"/></g></g><g transform="translate(167.428 81.465)"><path d="M483.281,276.461c0,.14-14.027.253-31.325.253s-31.328-.113-31.328-.253,14.024-.253,31.328-.253S483.281,276.321,483.281,276.461Z" transform="translate(-420.627 -276.208)" fill="#fafafa"/></g><g transform="translate(124.149 53.65)"><g transform="translate(0)"><path d="M442.845,228.213c0,.14-21.781.253-48.643.253s-48.647-.114-48.647-.253,21.776-.253,48.647-.253S442.845,228.074,442.845,228.213Z" transform="translate(-345.555 -227.96)" fill="#455a64"/></g></g><g transform="translate(27.612 25.836)"><path d="M200.82,179.966c0,.14-5.087.253-11.36.253s-11.362-.113-11.362-.253,5.086-.253,11.362-.253S200.82,179.826,200.82,179.966Z" transform="translate(-178.098 -179.713)" fill="#fafafa"/></g><g transform="translate(27.612 137.093)"><path d="M200.82,372.955c0,.139-5.087.253-11.36.253s-11.362-.113-11.362-.253,5.086-.253,11.362-.253S200.82,372.816,200.82,372.955Z" transform="translate(-178.098 -372.702)" fill="#fafafa"/></g><g transform="translate(38.869 62.922)"><path d="M220.347,244.3c0,.14-5.088.253-11.361.253s-11.361-.113-11.361-.253,5.086-.253,11.361-.253S220.347,244.156,220.347,244.3Z" transform="translate(-197.625 -244.043)" fill="#fafafa"/></g><g transform="translate(220.979 62.922)"><path d="M536.241,244.3c0,.14-5.087.253-11.361.253s-11.362-.113-11.362-.253,5.086-.253,11.362-.253S536.241,244.156,536.241,244.3Z" transform="translate(-513.519 -244.043)" fill="#ff725e"/></g><g transform="translate(39.464 99.953)"><path d="M241.172,308.531c0,.14-9.518.253-21.256.253s-21.258-.113-21.258-.253,9.516-.253,21.258-.253S241.172,308.391,241.172,308.531Z" transform="translate(-198.658 -308.278)" fill="#feab45"/></g><g transform="translate(88.623 99.953)"><path d="M326.444,308.531c0,.14-9.518.253-21.256.253s-21.258-.113-21.258-.253,9.516-.253,21.258-.253S326.444,308.391,326.444,308.531Z" transform="translate(-283.931 -308.278)" fill="#e0e0e0"/></g><g transform="translate(49.695 109.224)"><g transform="translate(0 0)"><path d="M279.059,324.613c0,.139-14.027.253-31.325.253s-31.328-.114-31.328-.253,14.024-.253,31.328-.253S279.059,324.474,279.059,324.613Z" transform="translate(-216.405 -324.36)" fill="#e0e0e0"/></g></g><g transform="translate(49.695 118.496)"><g transform="translate(0 0)"><path d="M279.059,340.7c0,.139-14.027.253-31.325.253s-31.328-.114-31.328-.253,14.024-.253,31.328-.253S279.059,340.556,279.059,340.7Z" transform="translate(-216.405 -340.443)" fill="#e0e0e0"/></g></g><g transform="translate(74.212 127.767)"><path d="M321.587,356.778c0,.139-14.027.253-31.325.253s-31.328-.113-31.328-.253,14.024-.253,31.328-.253S321.587,356.639,321.587,356.778Z" transform="translate(-258.933 -356.525)" fill="#e0e0e0"/></g><g transform="translate(150.776 127.767)"><path d="M454.4,356.778c0,.139-14.027.253-31.325.253s-31.328-.113-31.328-.253,14.023-.253,31.328-.253S454.4,356.639,454.4,356.778Z" transform="translate(-391.743 -356.525)" fill="#e0e0e0"/></g><g transform="translate(124.149 109.224)"><g transform="translate(0 0)"><path d="M408.209,324.613c0,.139-14.027.253-31.325.253s-31.328-.114-31.328-.253,14.024-.253,31.328-.253S408.209,324.474,408.209,324.613Z" transform="translate(-345.555 -324.36)" fill="#fafafa"/></g></g><g transform="translate(124.149 118.496)"><g transform="translate(0 0)"><path d="M442.845,340.7c0,.139-21.781.253-48.643.253s-48.647-.114-48.647-.253,21.776-.253,48.647-.253S442.845,340.556,442.845,340.7Z" transform="translate(-345.555 -340.443)" fill="#455a64"/></g></g><g transform="translate(38.869 127.767)"><path d="M220.347,356.778c0,.139-5.088.253-11.361.253s-11.361-.113-11.361-.253,5.086-.253,11.361-.253S220.347,356.639,220.347,356.778Z" transform="translate(-197.625 -356.525)" fill="#fafafa"/></g><g transform="translate(220.979 127.767)"><path d="M536.241,356.778c0,.139-5.087.253-11.361.253s-11.362-.113-11.362-.253,5.086-.253,11.362-.253S536.241,356.639,536.241,356.778Z" transform="translate(-513.519 -356.525)" fill="#ff725e"/></g></g><g transform="translate(19.878 191.178)"><path d="M373.055,435.868c0,.083-58.018.15-129.571.15-71.577,0-129.583-.067-129.583-.15s58.005-.15,129.583-.15C315.037,435.718,373.055,435.785,373.055,435.868Z" transform="translate(-113.902 -435.718)" fill="#263238"/></g></g><g transform="translate(0.171 119.238)"><g transform="translate(10.666 54.426)"><path d="M74.012,340.732a32.912,32.912,0,0,0-31.39-8.615,57.17,57.17,0,0,0,31.761,9.924" transform="translate(-42.622 -331.078)" fill="#feab45"/></g><g transform="translate(22.188)"><path d="M71.829,263.047a31.851,31.851,0,0,0-9.212-26.379c-.229,9.167,3.641,19.484,9.212,26.379" transform="translate(-62.607 -236.668)" fill="#feab45"/></g><g transform="translate(14.263 22.174)"><path d="M71.545,296.81a49.394,49.394,0,0,0-22.684-21.679,31.172,31.172,0,0,0,22.77,21.778" transform="translate(-48.861 -275.131)" fill="#feab45"/></g><g transform="translate(7.278 37.298)"><path d="M67.561,311.292a58.587,58.587,0,0,1-16.644-1.47,27.545,27.545,0,0,1-14.173-8.457,55.617,55.617,0,0,1,30.733,9.382" transform="translate(-36.744 -301.366)" fill="#feab45"/></g><g transform="translate(35.259 12.182)"><path d="M85.281,281.736c2.836-10.629,7.515-17.981,15.869-23.937a22.106,22.106,0,0,1-15.869,23.937" transform="translate(-85.281 -257.799)" fill="#feab45"/></g><g transform="translate(46.79 39.877)"><path d="M114.841,320.411a15.737,15.737,0,0,0-9.558-14.572c.464,5.489,4.776,11.838,9.558,14.572" transform="translate(-105.283 -305.839)" fill="#feab45"/></g><g transform="translate(59.017 25.49)"><path d="M126.492,300.881a23.444,23.444,0,0,1,15.357-20c-1.93,8.882-7.065,16.276-15.357,20" transform="translate(-126.492 -280.884)" fill="#feab45"/></g><g transform="translate(54.994 54.929)"><path d="M119.515,338.411a14.785,14.785,0,0,1,8.512-5.442,43.98,43.98,0,0,1,10.241-1.019,23.941,23.941,0,0,1-18.492,7.7" transform="translate(-119.515 -331.95)" fill="#feab45"/></g><g transform="translate(51.001 82.897)"><path d="M112.588,381.612a26.232,26.232,0,0,1,32.033,15.174,68.525,68.525,0,0,1-32.033-15.174" transform="translate(-112.588 -380.463)" fill="#feab45"/></g><g transform="translate(34.659 76.171)"><path d="M87.812,368.8c1.933,5.714,1.562,12.621-2.735,17.545A20.964,20.964,0,0,1,87.812,368.8" transform="translate(-84.241 -368.797)" fill="#feab45"/></g><g transform="translate(17.231 72.998)"><path d="M67.461,363.292a21.5,21.5,0,0,1-11.873,17.442,1.335,1.335,0,0,1-1.05.172c-.523-.213-.571-.928-.507-1.49.842-7.32,6.265-14.4,13.429-16.125" transform="translate(-54.009 -363.292)" fill="#feab45"/></g><g transform="translate(0 71.453)"><path d="M49.872,361.415a17.628,17.628,0,0,1-25.752.131c8.186-.9,17.63-1.493,25.752-.131" transform="translate(-24.12 -360.613)" fill="#feab45"/></g><g transform="translate(23.306 6.818)"><g transform="translate(1.219)"><path d="M66.664,248.494a1.451,1.451,0,0,0,.075.24l.25.692.988,2.65c.44,1.147.948,2.561,1.537,4.2l.948,2.628q.485,1.4,1.023,2.961c1.45,4.145,3.06,9.12,4.8,14.659,1.706,5.549,3.5,11.676,5.263,18.139,1.74,6.472,3.283,12.668,4.6,18.324,1.276,5.664,2.373,10.777,3.166,15.1l.581,3.077q.248,1.462.468,2.754c.3,1.719.55,3.2.721,4.415s.329,2.14.429,2.8c.051.307.09.548.119.726a1.538,1.538,0,0,0,.051.246,1.479,1.479,0,0,0-.02-.25l-.089-.73-.371-2.8c-.152-1.219-.389-2.7-.669-4.426-.139-.862-.287-1.784-.444-2.76q-.265-1.461-.559-3.084c-.765-4.328-1.841-9.449-3.1-15.12-1.3-5.663-2.833-11.865-4.574-18.342-1.765-6.467-3.567-12.595-5.29-18.143C74.8,270.9,73.17,265.933,71.692,261.8q-.548-1.553-1.044-2.955l-.971-2.621c-.6-1.637-1.13-3.046-1.588-4.186l-1.042-2.63-.278-.681A1.439,1.439,0,0,0,66.664,248.494Z" transform="translate(-66.663 -248.494)" fill="#263238"/></g><g transform="translate(23.737 23.414)"><path d="M128.168,289.109a.891.891,0,0,0-.141.133l-.391.412c-.342.364-.837.909-1.455,1.628a57.285,57.285,0,0,0-4.819,6.426,43.144,43.144,0,0,0-5.04,10.781,105.622,105.622,0,0,0-3.023,14.269c-1.664,10.207-3.706,19.348-5.185,25.961-.745,3.29-1.35,5.959-1.773,7.828l-.472,2.131c-.048.231-.085.414-.115.556a.87.87,0,0,0-.028.192.905.905,0,0,0,.06-.184l.145-.549c.126-.5.3-1.214.529-2.117l1.87-7.806c1.534-6.6,3.612-15.742,5.278-25.959a107.984,107.984,0,0,1,2.989-14.235,43.642,43.642,0,0,1,4.951-10.748,61.8,61.8,0,0,1,4.726-6.467c.6-.73,1.083-1.287,1.41-1.664l.368-.432A.893.893,0,0,0,128.168,289.109Z" transform="translate(-105.723 -289.109)" fill="#263238"/></g><g transform="translate(0 65.079)"><path d="M64.548,361.393a1.067,1.067,0,0,0,.295.054l.847.093.612.061.724.108c.519.077,1.112.153,1.757.3l1.016.2,1.088.276c.758.171,1.54.448,2.375.7a34.9,34.9,0,0,1,5.183,2.284,29.3,29.3,0,0,1,4.647,3.228,23.33,23.33,0,0,1,1.783,1.712,18.52,18.52,0,0,1,1.411,1.628,16.911,16.911,0,0,1,1.045,1.44,10.631,10.631,0,0,1,.715,1.138l.434.733a1.138,1.138,0,0,0,.171.247,1.068,1.068,0,0,0-.114-.276l-.385-.764a9.409,9.409,0,0,0-.674-1.174,15.747,15.747,0,0,0-1.016-1.479,17.75,17.75,0,0,0-1.4-1.67,22.511,22.511,0,0,0-1.783-1.752,28.281,28.281,0,0,0-4.685-3.284,33.33,33.33,0,0,0-5.243-2.283c-.844-.247-1.637-.517-2.4-.678l-1.1-.26-1.027-.184c-.652-.13-1.251-.191-1.775-.253l-.73-.084-.617-.033-.854-.035A1.071,1.071,0,0,0,64.548,361.393Z" transform="translate(-64.548 -361.382)" fill="#263238"/></g></g><g transform="translate(20.974 30.427)"><path d="M60.5,289.448a4.079,4.079,0,0,0,.59.568l1.685,1.461c1.431,1.224,3.423,2.9,5.635,4.732s4.227,3.482,5.695,4.662l1.748,1.385a4.114,4.114,0,0,0,.667.474,4.116,4.116,0,0,0-.591-.57L74.246,300.7c-1.431-1.224-3.422-2.9-5.634-4.731s-4.224-3.479-5.691-4.659l-1.749-1.385A4.182,4.182,0,0,0,60.5,289.448Z" transform="translate(-60.503 -289.447)" fill="#263238"/></g><g transform="translate(18.962 41.252)"><path d="M57.013,308.229c-.025.083,4.274,1.426,9.6,3s9.664,2.782,9.689,2.7-4.273-1.425-9.6-3S57.037,308.146,57.013,308.229Z" transform="translate(-57.013 -308.225)" fill="#263238"/></g><g transform="translate(34.831 21.642)"><path d="M84.541,289.512a3.549,3.549,0,0,0,.444-.617l1.133-1.726c.961-1.454,2.325-3.437,3.938-5.549s3.17-3.95,4.316-5.263l1.361-1.554a3.535,3.535,0,0,0,.476-.593,3.545,3.545,0,0,0-.564.51c-.349.341-.841.849-1.436,1.489-1.19,1.279-2.778,3.1-4.4,5.221s-2.96,4.132-3.876,5.62c-.458.744-.816,1.354-1.051,1.783A3.558,3.558,0,0,0,84.541,289.512Z" transform="translate(-84.539 -274.21)" fill="#263238"/></g><g transform="translate(49.756 42.954)"><path d="M110.431,311.178a14.237,14.237,0,0,0,1.008,1.658c.643,1.009,1.514,2.413,2.416,4s1.663,3.052,2.2,4.12a14.227,14.227,0,0,0,.91,1.714,10.3,10.3,0,0,0-.71-1.809c-.49-1.1-1.224-2.586-2.13-4.18s-1.812-2.984-2.5-3.966A10.3,10.3,0,0,0,110.431,311.178Z" transform="translate(-110.429 -311.178)" fill="#263238"/></g><g transform="translate(54.865 56.314)"><path d="M119.292,339.724c.022.042.842-.359,2.184-.962s3.216-1.394,5.333-2.136,4.076-1.292,5.5-1.656,2.316-.563,2.307-.61a2.532,2.532,0,0,0-.64.067c-.408.061-1,.172-1.718.328a48,48,0,0,0-10.878,3.807c-.662.329-1.19.609-1.548.816A2.486,2.486,0,0,0,119.292,339.724Z" transform="translate(-119.291 -334.352)" fill="#263238"/></g><g transform="translate(50.845 84.075)"><path d="M112.318,382.511a.919.919,0,0,0,.265.09l.774.2,2.858.66a94.059,94.059,0,0,1,9.337,2.464,41.411,41.411,0,0,1,8.71,4.093c1.041.663,1.853,1.248,2.4,1.671a8.363,8.363,0,0,0,.865.639c.007-.008-.059-.078-.192-.2s-.328-.312-.6-.531a25.17,25.17,0,0,0-2.355-1.761,38.236,38.236,0,0,0-8.73-4.2,78.223,78.223,0,0,0-9.392-2.384l-2.88-.562A7.209,7.209,0,0,0,112.318,382.511Z" transform="translate(-112.318 -382.507)" fill="#263238"/></g><g transform="translate(36.295 76.087)"><path d="M87.09,382.163c.086.012.6-3,1.143-6.733s.919-6.766.834-6.779-.6,3-1.143,6.733S87,382.15,87.09,382.163Z" transform="translate(-87.078 -368.651)" fill="#263238"/></g><g transform="translate(21.169 73.048)"><path d="M60.843,374.434a15.756,15.756,0,0,0,1.364-1.62c.818-1.018,1.951-2.421,3.232-3.947s2.469-2.883,3.332-3.864a15.846,15.846,0,0,0,1.361-1.622,2.025,2.025,0,0,0-.434.371c-.265.252-.638.629-1.09,1.1-.906.944-2.122,2.283-3.408,3.812s-2.394,2.959-3.168,4.013c-.388.528-.694.959-.9,1.264A2.023,2.023,0,0,0,60.843,374.434Z" transform="translate(-60.841 -363.38)" fill="#263238"/></g><g transform="translate(29.033 98.141)"><path d="M106.676,406.906v7.479h-1.87l-6.648,20.983H83.416l-6.44-20.775-2.493-.208v-7.479Z" transform="translate(-74.482 -406.906)" fill="#feab45"/></g><g transform="translate(27.955 98.307)" opacity="0.3"><path d="M106.676,406.906v7.479h-1.87l-6.648,20.983H83.416l-6.44-20.775-2.493-.208v-7.479Z" transform="translate(-73.322 -406.982)"/></g><g transform="translate(30.28 105.672)"><path d="M76.644,420.125c0,.086,6.51.157,14.539.157s14.539-.07,14.539-.157-6.508-.156-14.539-.156S76.644,420.039,76.644,420.125Z" transform="translate(-76.644 -419.969)" fill="#263238"/></g><g transform="translate(19.677 57.715)"><path d="M58.252,336.787a5.824,5.824,0,0,0,.945.255l2.588.624c2.18.54,5.175,1.361,8.424,2.451s6.13,2.251,8.194,3.138l2.439,1.067a5.893,5.893,0,0,0,.907.368,5.745,5.745,0,0,0-.854-.477c-.558-.292-1.378-.689-2.4-1.159a85.03,85.03,0,0,0-16.658-5.6c-1.1-.244-1.993-.423-2.614-.528A5.979,5.979,0,0,0,58.252,336.787Z" transform="translate(-58.252 -336.782)" fill="#263238"/></g><g transform="translate(35.175 117.324)"><path d="M85.135,440.337c0,.086,4.567.157,10.2.157s10.2-.07,10.2-.157-4.566-.156-10.2-.156S85.135,440.251,85.135,440.337Z" transform="translate(-85.135 -440.181)" fill="#fafafa"/></g><g transform="translate(34.601 115.589)"><path d="M84.14,437.328c0,.086,4.84.157,10.809.157s10.81-.07,10.81-.157-4.839-.156-10.81-.156S84.14,437.242,84.14,437.328Z" transform="translate(-84.14 -437.172)" fill="#fafafa"/></g></g><g transform="translate(2.721 245.81)"><path d="M421.084,456.374c0,.083-87.88.15-196.261.15-108.418,0-196.28-.067-196.28-.15s87.861-.15,196.28-.15C333.2,456.224,421.084,456.291,421.084,456.374Z" transform="translate(-28.543 -456.224)" fill="#263238"/></g><g transform="translate(186.765 26.549)"><path d="M502.542,76.125H348.051V171.8H478.107l8.052,18.524L493.3,171.8h9.245Z" transform="translate(-347.901 -75.988)" fill="#fafafa"/><path d="M502.432,76.024c0,.928.045,36.872.116,95.678v.115h-.116l-9.245,0,.111-.077c-2.234,5.806-4.644,12.065-7.131,18.527l-.111.291-.124-.286-8.058-18.522.123.081-117.613.016H347.791v-.15c0-34.1.009-66.459.013-95.678v-.137h.137l154.491.137-154.491.137.137-.137c0,29.219.009,61.58.013,95.678l-.15-.15h12.443L478,171.568h.088l.035.081,8.045,18.527-.236.005,7.146-18.522.029-.077h.082l9.245,0-.115.115C502.388,112.9,502.431,76.951,502.432,76.024Z" transform="translate(-347.791 -75.887)" fill="#263238"/><g transform="translate(0.383 3.981)"><g transform="translate(0 5.281)"><path d="M502.633,92.165c0,.116-34.516.211-77.086.211s-77.092-.095-77.092-.211,34.509-.211,77.092-.211S502.633,92.049,502.633,92.165Z" transform="translate(-348.455 -91.954)" fill="#263238"/></g><g transform="translate(5.446)"><path d="M360.434,84.059a1.266,1.266,0,1,1-1.267-1.266A1.266,1.266,0,0,1,360.434,84.059Z" transform="translate(-357.901 -82.793)" fill="#263238"/><g transform="translate(4.583)"><path d="M368.382,84.059a1.266,1.266,0,1,1-1.266-1.266A1.266,1.266,0,0,1,368.382,84.059Z" transform="translate(-365.85 -82.793)" fill="#263238"/></g><g transform="translate(9.164)"><path d="M376.331,84.059a1.266,1.266,0,1,1-1.266-1.266A1.266,1.266,0,0,1,376.331,84.059Z" transform="translate(-373.798 -82.793)" fill="#263238"/></g></g><g transform="translate(11.987 18.939)"><path d="M373.878,121.38,370.21,122.8l3.669,1.416v.858l-4.63-1.829v-.888l4.63-1.83Z" transform="translate(-369.248 -117.71)" fill="#263238"/><path d="M381.4,115.645h.9l-3.41,9.736h-.9Z" transform="translate(-372.948 -115.645)" fill="#263238"/><path d="M390.632,122.352v.888L386,125.069v-.858l3.679-1.416L386,121.38v-.858Z" transform="translate(-376.343 -117.71)" fill="#263238"/><path d="M396.064,129.095a.691.691,0,0,1,.7-.7.68.68,0,0,1,.682.7.69.69,0,0,1-.682.714A.7.7,0,0,1,396.064,129.095Z" transform="translate(-380.605 -121.043)" fill="#263238"/><path d="M400.137,129.095a.69.69,0,0,1,.7-.7.68.68,0,0,1,.683.7.69.69,0,0,1-.683.714A.7.7,0,0,1,400.137,129.095Z" transform="translate(-382.33 -121.043)" fill="#263238"/><path d="M404.208,129.095a.691.691,0,0,1,.7-.7.681.681,0,0,1,.683.7.69.69,0,0,1-.683.714A.7.7,0,0,1,404.208,129.095Z" transform="translate(-384.054 -121.043)" fill="#263238"/></g><g transform="translate(12.162 36.058)"><path d="M471.564,145.552c0,.116-22.838.211-51,.211s-51.009-.095-51.009-.211,22.833-.211,51.009-.211S471.564,145.436,471.564,145.552Z" transform="translate(-369.551 -145.341)" fill="#455a64"/></g><g transform="translate(121.032 36.36)"><path d="M568.2,146.075a56.859,56.859,0,0,1-9.8,0,57.18,57.18,0,0,1,9.8,0Z" transform="translate(-558.401 -145.865)" fill="#263238"/></g><g transform="translate(134.452 36.36)"><path d="M592.387,146.075a67.825,67.825,0,0,1-10.707,0,68.207,68.207,0,0,1,10.707,0Z" transform="translate(-581.68 -145.865)" fill="#263238"/></g><g transform="translate(12.279 44.654)"><path d="M434.595,160.462c0,.116-14.516.211-32.418.211s-32.421-.095-32.421-.211,14.513-.211,32.421-.211S434.595,160.345,434.595,160.462Z" transform="translate(-369.755 -160.251)" fill="#455a64"/></g><g transform="translate(11.816 76.725)"><path d="M433.791,216.094c0,.116-14.516.211-32.418.211s-32.421-.095-32.421-.211,14.513-.211,32.421-.211S433.791,215.978,433.791,216.094Z" transform="translate(-368.951 -215.883)" fill="#455a64"/></g><g transform="translate(83.033 44.654)"><path d="M510.129,160.462c0,.116-3.95.211-8.821.211s-8.821-.095-8.821-.211,3.948-.211,8.821-.211S510.129,160.345,510.129,160.462Z" transform="translate(-492.487 -160.251)" fill="#263238"/></g><g transform="translate(82.848 76.725)"><path d="M509.809,216.094c0,.116-3.95.211-8.821.211s-8.822-.095-8.822-.211,3.949-.211,8.822-.211S509.809,215.978,509.809,216.094Z" transform="translate(-492.166 -215.883)" fill="#263238"/></g><g transform="translate(12.162 49.027)"><path d="M373.924,168.047a11.434,11.434,0,0,1-4.373,0,11.433,11.433,0,0,1,4.373,0Z" transform="translate(-369.551 -167.836)" fill="#feab45"/></g><g transform="translate(22.114 49.117)"><path d="M396.314,168.2a53.576,53.576,0,0,1-9.5,0,53.572,53.572,0,0,1,9.5,0Z" transform="translate(-386.814 -167.993)" fill="#263238"/></g><g transform="translate(33.122 49.117)"><path d="M414.051,168.2a39.385,39.385,0,0,1-8.142,0,39.382,39.382,0,0,1,8.142,0Z" transform="translate(-405.909 -167.993)" fill="#263238"/></g><g transform="translate(45.185 49.117)"><path d="M435.127,168.2a40.856,40.856,0,0,1-8.293,0,40.853,40.853,0,0,1,8.293,0Z" transform="translate(-426.834 -167.993)" fill="#263238"/></g><g transform="translate(56.645 49.117)"><path d="M454.252,168.2a33.782,33.782,0,0,1-7.539,0,33.78,33.78,0,0,1,7.539,0Z" transform="translate(-446.713 -167.993)" fill="#263238"/></g><g transform="translate(66.446 49.117)"><path d="M496.888,168.2c0,.116-7.427.211-16.586.211s-16.588-.095-16.588-.211,7.425-.211,16.588-.211S496.888,168.088,496.888,168.2Z" transform="translate(-463.714 -167.993)" fill="#263238"/></g><g transform="translate(12.162 54.606)"><path d="M373.321,177.725a8.525,8.525,0,0,1-3.77,0,8.524,8.524,0,0,1,3.77,0Z" transform="translate(-369.551 -177.514)" fill="#feab45"/></g><g transform="translate(12.162 60.336)"><path d="M373.472,187.664a9.212,9.212,0,0,1-3.921,0,9.212,9.212,0,0,1,3.921,0Z" transform="translate(-369.551 -187.453)" fill="#feab45"/></g><g transform="translate(12.162 66.819)"><path d="M373.472,198.911a9.212,9.212,0,0,1-3.921,0,9.212,9.212,0,0,1,3.921,0Z" transform="translate(-369.551 -198.7)" fill="#feab45"/></g><g transform="translate(22.566 66.518)"><path d="M416.852,198.388c0,.117-6.549.211-14.626.211s-14.627-.094-14.627-.211,6.548-.211,14.627-.211S416.852,198.272,416.852,198.388Z" transform="translate(-387.599 -198.177)" fill="#263238"/></g><g transform="translate(21.36 60.336)"><path d="M413.4,187.664c0,.117-6.245.211-13.947.211s-13.949-.094-13.949-.211,6.243-.211,13.949-.211S413.4,187.548,413.4,187.664Z" transform="translate(-385.507 -187.453)" fill="#263238"/></g><g transform="translate(21.662 54.304)"><path d="M481.028,177.2c0,.116-21.268.211-47.5.211s-47.5-.095-47.5-.211,21.263-.211,47.5-.211S481.028,177.086,481.028,177.2Z" transform="translate(-386.03 -176.991)" fill="#263238"/></g></g><g transform="translate(151.107 39.151)"><path d="M623.216,144v81.309l-12.642,10.548H676.69V144Z" transform="translate(-610.189 -143.883)" fill="#fafafa"/><path d="M622.933,143.913s.313-.007.935-.012l2.765-.013,10.646-.028,39.128-.061h.113v.114c.01,24.542.022,56.6.037,91.857v.15h-9.422l-56.844-.01h-.385l.3-.247,12.647-10.542-.047.1c.028-24.309.051-44.649.067-58.918.015-7.117.027-12.718.035-16.546.007-1.9.012-3.366.016-4.358q.005-.732.008-1.114c0-.25.008-.372.008-.372s.005.133.008.387,0,.635.007,1.129c0,1,.009,2.469.016,4.384.008,3.835.02,9.447.035,16.577.016,14.248.039,34.558.067,58.833v.062l-.047.04L610.38,235.878l-.089-.247,56.844-.011h9.272l-.15.15c.014-35.261.027-67.315.037-91.857l.113.113-39.058-.061-10.671-.028-2.786-.013C623.262,143.921,622.933,143.913,622.933,143.913Z" transform="translate(-609.906 -143.8)" fill="#263238"/><g transform="translate(13.55 3.075)"><g transform="translate(2.166)"><path d="M639.335,150.218a1.083,1.083,0,1,1-1.083-1.084A1.083,1.083,0,0,1,639.335,150.218Z" transform="translate(-637.168 -149.134)" fill="#263238"/><path d="M646.137,150.218a1.084,1.084,0,1,1-1.084-1.084A1.084,1.084,0,0,1,646.137,150.218Z" transform="translate(-640.049 -149.134)" fill="#263238"/><path d="M652.938,150.218a1.083,1.083,0,1,1-1.083-1.084A1.083,1.083,0,0,1,652.938,150.218Z" transform="translate(-642.929 -149.134)" fill="#263238"/></g><g transform="translate(0 5.156)"><g transform="translate(7.971 20.807)"><path d="M677.518,194.343c0,.1-6.779.174-15.14.174s-15.142-.078-15.142-.174,6.778-.174,15.142-.174S677.518,194.247,677.518,194.343Z" transform="translate(-647.237 -194.169)" fill="#feab45"/></g><g transform="translate(7.715 28.162)"><path d="M683.645,207.1c0,.1-8.25.174-18.425.174s-18.426-.078-18.426-.174,8.248-.174,18.426-.174S683.645,207,683.645,207.1Z" transform="translate(-646.793 -206.927)" fill="#feab45"/></g><g transform="translate(6.774 55.606)"><path d="M684.453,254.7c0,.1-8.8.174-19.646.174s-19.647-.078-19.647-.174,8.794-.173,19.647-.173S684.453,254.609,684.453,254.7Z" transform="translate(-645.161 -254.532)" fill="#feab45"/></g><g transform="translate(7.07 31.904)"><path d="M649.416,213.592a10.206,10.206,0,0,1-3.742,0,10.174,10.174,0,0,1,3.742,0Z" transform="translate(-645.674 -213.418)" fill="#feab45"/></g><g transform="translate(15.586 31.981)"><path d="M668.575,213.726a47.686,47.686,0,0,1-8.129,0,47.69,47.69,0,0,1,8.129,0Z" transform="translate(-660.446 -213.552)" fill="#feab45"/></g><g transform="translate(25.005 31.981)"><path d="M683.752,213.726a35.055,35.055,0,0,1-6.968,0,35.058,35.058,0,0,1,6.968,0Z" transform="translate(-676.785 -213.552)" fill="#feab45"/></g><g transform="translate(7.07 36.678)"><path d="M648.9,221.873a7.582,7.582,0,0,1-3.225,0,7.606,7.606,0,0,1,3.225,0Z" transform="translate(-645.674 -221.7)" fill="#feab45"/></g><g transform="translate(7.07 41.581)"><path d="M649.029,230.378a8.193,8.193,0,0,1-3.355,0,8.22,8.22,0,0,1,3.355,0Z" transform="translate(-645.674 -230.205)" fill="#feab45"/></g><g transform="translate(7.07 47.129)"><path d="M649.029,240a8.22,8.22,0,0,1-3.355,0,8.193,8.193,0,0,1,3.355,0Z" transform="translate(-645.674 -239.829)" fill="#feab45"/></g><g transform="translate(15.973 46.871)"><path d="M686.149,239.555c0,.1-5.6.174-12.516.174s-12.517-.078-12.517-.174,5.6-.174,12.517-.174S686.149,239.459,686.149,239.555Z" transform="translate(-661.117 -239.381)" fill="#feab45"/></g><g transform="translate(14.941 41.581)"><path d="M683.2,230.378c0,.1-5.344.174-11.935.174s-11.936-.078-11.936-.174,5.343-.173,11.936-.173S683.2,230.282,683.2,230.378Z" transform="translate(-659.327 -230.205)" fill="#feab45"/></g><g transform="translate(9.513 62.932)"><path d="M653.267,267.414a8.193,8.193,0,0,1-3.355,0,8.193,8.193,0,0,1,3.355,0Z" transform="translate(-649.912 -267.24)" fill="#feab45"/></g><g transform="translate(9.513 68.48)"><path d="M653.267,277.038a8.193,8.193,0,0,1-3.355,0,8.219,8.219,0,0,1,3.355,0Z" transform="translate(-649.912 -276.865)" fill="#feab45"/></g><g transform="translate(18.416 68.222)"><path d="M690.387,276.591c0,.1-5.6.173-12.516.173s-12.517-.077-12.517-.173,5.6-.174,12.517-.174S690.387,276.495,690.387,276.591Z" transform="translate(-665.355 -276.417)" fill="#feab45"/></g><g transform="translate(17.384 62.932)"><path d="M687.436,267.414c0,.1-5.344.174-11.935.174s-11.936-.078-11.936-.174,5.343-.174,11.936-.174S687.436,267.318,687.436,267.414Z" transform="translate(-663.565 -267.24)" fill="#feab45"/></g><g transform="translate(15.199 36.42)"><path d="M692.263,221.425c0,.1-7.274.174-16.243.174s-16.244-.078-16.244-.174,7.271-.173,16.244-.173S692.263,221.33,692.263,221.425Z" transform="translate(-659.775 -221.252)" fill="#feab45"/></g><path d="M685.858,158.25c0,.1-11.742.174-26.223.174s-26.225-.077-26.225-.174,11.74-.173,26.225-.173S685.858,158.155,685.858,158.25Z" transform="translate(-633.41 -158.077)" fill="#263238"/><g transform="translate(7.957 16.371)"><path d="M658.289,186.649a88.471,88.471,0,0,1-11.077,0,88.471,88.471,0,0,1,11.077,0Z" transform="translate(-647.212 -186.475)" fill="#feab45"/></g><g transform="translate(7.539 6.34)"><path d="M651.712,169.247a19.751,19.751,0,0,1-5.225,0,19.817,19.817,0,0,1,5.225,0Z" transform="translate(-646.487 -169.074)" fill="#feab45"/></g></g></g></g></g><g transform="translate(252.411 94.7)"><g transform="translate(0 45.582)"><g transform="translate(5.283)"><path d="M531.039,331.738l11.611-11.48L521.943,284.8A19.989,19.989,0,0,0,514,279.271L506.7,276.5l-18.128-3.326L475.7,278.242a7.7,7.7,0,0,0-4.822,8.069l3.367,28.341,1.983,36.9L523,343.442l-4.706-13.65.159-21.281Z" transform="translate(-470.828 -273.173)" fill="#feab45"/><g transform="translate(47.524 22.787)"><path d="M553.638,345.627c.109,0,.138-7.373.063-16.464s-.224-16.463-.333-16.463-.138,7.372-.063,16.466S553.529,345.628,553.638,345.627Z" transform="translate(-553.264 -312.7)" fill="#263238"/></g></g><g transform="translate(0 5.069)"><path d="M513.132,338.02l-28.261-11.377a6.458,6.458,0,0,1-4.027-5.5l-2.068-27.1s.244-11.524-6.953-12.084l-4.095,1.613c-5.292,2.81-6.6,10.515-5.883,16.464,1.023,8.453,1.45,20.415,2.6,27.751a15.706,15.706,0,0,0,10.248,12.826l34.807,7.535Z" transform="translate(-461.663 -281.965)" fill="#feab45"/></g><g transform="translate(17.51 21.286)"><path d="M492.045,310.1a3.931,3.931,0,0,1,.089.62l.182,1.785c.145,1.588.348,3.824.6,6.571.239,2.786.523,6.087.838,9.748q.116,1.377.237,2.818a21.244,21.244,0,0,0,.361,2.9,4.812,4.812,0,0,0,1.4,2.539,9.534,9.534,0,0,0,2.608,1.622c7.792,3.372,14.974,6.156,20.188,8.109l6.189,2.28,1.683.62a3.9,3.9,0,0,1,.579.24,3.964,3.964,0,0,1-.6-.168l-1.707-.554c-1.479-.49-3.611-1.224-6.233-2.168-5.244-1.891-12.437-4.634-20.253-8.016a9.868,9.868,0,0,1-2.709-1.694,5.185,5.185,0,0,1-1.507-2.728,21.239,21.239,0,0,1-.36-2.951q-.115-1.441-.224-2.82c-.284-3.665-.541-6.968-.758-9.757-.2-2.752-.362-4.991-.477-6.581q-.07-1.127-.111-1.791A3.874,3.874,0,0,1,492.045,310.1Z" transform="translate(-492.037 -310.097)" fill="#263238"/></g><g transform="translate(1.306 36.016)"><path d="M463.949,335.647a1.385,1.385,0,0,1,.056.364c.025.282.056.628.093,1.046.084.966.2,2.265.335,3.845.155,1.621.352,3.551.634,5.684a54.305,54.305,0,0,0,1.276,6.864,10.25,10.25,0,0,0,1.38,3.272,18.8,18.8,0,0,0,2.111,2.594,18.063,18.063,0,0,0,4.522,3.393,17,17,0,0,0,4.964,1.625,1.325,1.325,0,0,1-.368-.009,7.7,7.7,0,0,1-1.045-.135,13.824,13.824,0,0,1-3.672-1.243,17.723,17.723,0,0,1-4.649-3.387,18.69,18.69,0,0,1-2.17-2.631,10.523,10.523,0,0,1-1.437-3.379,51.114,51.114,0,0,1-1.257-6.919c-.263-2.143-.433-4.08-.554-5.707s-.182-2.946-.216-3.858c-.009-.42-.016-.767-.022-1.05A1.317,1.317,0,0,1,463.949,335.647Z" transform="translate(-463.929 -335.647)" fill="#263238"/></g><g transform="translate(13.404 48.285)"><path d="M484.921,363.62a4.153,4.153,0,0,1,.514-1.506,9.725,9.725,0,0,1,5.734-4.9,4.145,4.145,0,0,1,1.568-.273c.011.063-.582.181-1.48.525a10.99,10.99,0,0,0-5.586,4.77C485.191,363.074,484.982,363.642,484.921,363.62Z" transform="translate(-484.914 -356.93)" fill="#263238"/></g><g transform="translate(18.438 29.342)" opacity="0.3"><path d="M518.555,352.622c-3.022-1.707-5.978-3.018-9.138-4.455s-6.254-3.279-8.323-6.066c-3.9-5.256-3.455-12.843-7.448-18.03q.391,5.232.782,10.464c.239,3.2-.251,6.359,1.808,8.531,1.735,1.83,5.117,3.234,7.512,4.023,4.813,1.588,9.995,3.945,14.807,5.533" transform="translate(-493.647 -324.071)"/></g><path d="M553.454,316.162l2.445,15.079-2.314-4.271Z" transform="translate(-500.537 -291.379)" opacity="0.3"/><g transform="translate(0.082 15.36)"><path d="M478.388,299.936a2.74,2.74,0,0,1-.654.051l-1.783.045c-1.5.037-3.581.114-5.87.277s-4.356.386-5.85.563l-1.77.209a2.775,2.775,0,0,1-.655.044,2.787,2.787,0,0,1,.638-.159c.413-.084,1.015-.189,1.759-.3,1.491-.232,3.561-.487,5.858-.652s4.382-.206,5.89-.19c.754.007,1.364.025,1.785.05A2.753,2.753,0,0,1,478.388,299.936Z" transform="translate(-461.805 -299.816)" fill="#455a64"/></g><g transform="translate(0.898 29.894)"><path d="M479.792,325.044c.006.083-3.7.457-8.273.835s-8.291.618-8.3.536,3.7-.457,8.273-.835S479.785,324.962,479.792,325.044Z" transform="translate(-463.221 -325.028)" fill="#455a64"/></g><g transform="translate(2.272 45.078)"><path d="M482.164,351.369a2.923,2.923,0,0,1-.586.335c-.385.2-.955.466-1.671.767a34.678,34.678,0,0,1-11.791,2.64c-.776.032-1.4.036-1.838.018a2.921,2.921,0,0,1-.673-.054,2.937,2.937,0,0,1,.672-.063c.432-.018,1.057-.054,1.826-.113a41.29,41.29,0,0,0,11.726-2.625c.721-.276,1.3-.508,1.7-.677A2.9,2.9,0,0,1,482.164,351.369Z" transform="translate(-465.605 -351.366)" fill="#455a64"/></g><g transform="translate(24.119 52.856)"><path d="M508.261,364.863a11.29,11.29,0,0,0-4.753,5.266,2.776,2.776,0,0,1,.311-1.032,8.242,8.242,0,0,1,3.447-3.819A2.785,2.785,0,0,1,508.261,364.863Z" transform="translate(-503.5 -364.858)" fill="#455a64"/></g><g transform="translate(39.09 57.335)"><path d="M529.481,378.143a11.06,11.06,0,0,1,3.02-5.513c.069.058-.819,1.159-1.646,2.682S529.567,378.17,529.481,378.143Z" transform="translate(-529.471 -372.628)" fill="#455a64"/></g><g transform="translate(14.946 6.978)"><path d="M495.637,285.292a55.672,55.672,0,0,1-8.047,1.454,55.911,55.911,0,0,1,8.047-1.454Z" transform="translate(-487.59 -285.277)" fill="#455a64"/></g><g transform="translate(38.999 6.896)"><path d="M540.36,286.464a103.4,103.4,0,0,1-11.048-1.311,102.972,102.972,0,0,1,11.048,1.311Z" transform="translate(-529.312 -285.136)" fill="#455a64"/></g><g transform="translate(17.582 20.581)"><path d="M526.937,309.1a1.589,1.589,0,0,1-.354.023l-1.015.008-3.728,0c-3.148,0-7.5.024-12.3.146s-9.147.321-12.291.485l-3.723.2-1.013.044a1.584,1.584,0,0,1-.355,0,1.55,1.55,0,0,1,.35-.055l1.009-.1c.877-.082,2.148-.182,3.719-.291,3.142-.219,7.489-.45,12.3-.574s9.158-.115,12.307-.058c1.574.028,2.848.063,3.729.1l1.013.048A1.575,1.575,0,0,1,526.937,309.1Z" transform="translate(-492.161 -308.873)" fill="#455a64"/></g><g transform="translate(19.552 36.731)"><path d="M528.715,336.9c.006.083-7.408.638-16.557,1.241s-16.574,1.024-16.579.941,7.407-.638,16.559-1.241S528.71,336.815,528.715,336.9Z" transform="translate(-495.578 -336.887)" fill="#455a64"/></g><g transform="translate(35.201 50.775)"><path d="M539.424,361.252a2.957,2.957,0,0,1-.624.267c-.408.154-1,.36-1.744.6-1.48.484-3.548,1.091-5.859,1.647s-4.43.955-5.969,1.2c-.77.121-1.394.208-1.827.256a2.936,2.936,0,0,1-.677.046,3,3,0,0,1,.659-.161l1.808-.35c1.527-.295,3.63-.725,5.936-1.279s4.374-1.128,5.867-1.559l1.77-.51A2.953,2.953,0,0,1,539.424,361.252Z" transform="translate(-522.724 -361.248)" fill="#455a64"/></g><g transform="translate(52.916 25.325)"><path d="M564.3,317.11a104.718,104.718,0,0,1-10.842,2.8,104.423,104.423,0,0,1,10.842-2.8Z" transform="translate(-553.454 -317.103)" fill="#455a64"/></g><g transform="translate(53.28 14.537)"><path d="M558.909,298.414a20.027,20.027,0,0,1-4.825.868,20.117,20.117,0,0,1,4.825-.868Z" transform="translate(-554.084 -298.39)" fill="#455a64"/></g><g transform="translate(5.896 7.357)"><path d="M483.6,296.483c-.058.01-.146-.958-.674-2.407a12.131,12.131,0,0,0-8.567-7.7c-1.5-.37-2.469-.355-2.465-.414a2.557,2.557,0,0,1,.677-.025,10.4,10.4,0,0,1,1.836.232,11.739,11.739,0,0,1,8.719,7.835,10.364,10.364,0,0,1,.427,1.8A2.562,2.562,0,0,1,483.6,296.483Z" transform="translate(-471.891 -285.935)" fill="#263238"/></g><g transform="translate(51.261 10.218)"><path d="M550.594,290.9a95.693,95.693,0,0,1,1.694,10.59,95.748,95.748,0,0,1-1.694-10.59Z" transform="translate(-550.581 -290.898)" fill="#263238"/></g></g><g transform="translate(77.766 139.608)"><g transform="translate(0 1.161)"><path d="M601.564,438.287s21.722,6.012,22.593,6.318c1.309.461,1.089,5.255-.947,5.18-.963-.035-16.685.585-18.671.461s-7.979-2.486-7.979-2.486Z" transform="translate(-596.559 -438.287)" fill="#feab45"/></g><g transform="translate(14.01 5.109)"><path d="M620.905,449.476a9.516,9.516,0,0,1,2.493-4.332,4.828,4.828,0,0,0-2.493,4.332Z" transform="translate(-620.861 -445.137)" fill="#263238"/></g><g transform="translate(11.754 4.271)"><path d="M616.983,447.832c.107.018.327-1.008.905-2.143s1.261-1.929,1.183-2a5.45,5.45,0,0,0-2.088,4.146Z" transform="translate(-616.949 -443.681)" fill="#263238"/></g><g transform="translate(9.521 3.52)"><path d="M613.218,446.712a7.627,7.627,0,0,1,1.691-4.326,4.077,4.077,0,0,0-1.691,4.326Z" transform="translate(-613.074 -442.379)" fill="#263238"/></g><g transform="translate(8.327)"><path d="M612.726,441.321a3.857,3.857,0,0,0,.233-1.616,7.611,7.611,0,0,0-.543-2.78,1.211,1.211,0,0,0-.348-.532.579.579,0,0,0-.746.037.961.961,0,0,0-.289.614,4.269,4.269,0,0,0-.028.574,4.821,4.821,0,0,0,.134,1.063,6.426,6.426,0,0,0,.669,1.66,4.393,4.393,0,0,0,.975,1.308c.05-.035-.314-.541-.748-1.427a7.122,7.122,0,0,1-.57-1.615,4.806,4.806,0,0,1-.1-.992c.01-.334.005-.751.2-.911a.211.211,0,0,1,.288-.024.922.922,0,0,1,.238.379,7.973,7.973,0,0,1,.329.959,8.718,8.718,0,0,1,.288,1.7C612.766,440.7,612.667,441.312,612.726,441.321Z" transform="translate(-611.003 -436.274)" fill="#263238"/></g><g transform="translate(5.677 4.6)"><path d="M610.752,444.479a3.031,3.031,0,0,0-1.4-.226,6.305,6.305,0,0,0-1.542.189,3.377,3.377,0,0,0-.887.327.916.916,0,0,0-.491.993,1.085,1.085,0,0,0,.782.775,1.993,1.993,0,0,0,.974,0,3.73,3.73,0,0,0,1.411-.694,3.833,3.833,0,0,0,1.01-.994,9.469,9.469,0,0,0-1.157.783,3.861,3.861,0,0,1-1.332.576,1.714,1.714,0,0,1-.806-.011.736.736,0,0,1-.529-.517.559.559,0,0,1,.322-.606,3.317,3.317,0,0,1,.788-.307,7.284,7.284,0,0,1,1.464-.255C610.21,444.45,610.743,444.537,610.752,444.479Z" transform="translate(-606.406 -444.253)" fill="#263238"/></g><g transform="translate(17.222 6.012)"><path d="M626.6,450.371a11.6,11.6,0,0,1,.428-1.959,11.72,11.72,0,0,1,1.064-1.7,3.115,3.115,0,0,0-1.491,3.66Z" transform="translate(-626.433 -446.702)" fill="#263238"/></g><g transform="translate(2.234 10.678)"><path d="M600.435,454.8a4.507,4.507,0,0,0,.841.4,18.538,18.538,0,0,0,2.417.749,34.444,34.444,0,0,0,8.293.786c3.255-.036,6.189-.184,8.316-.269l2.517-.133a4.566,4.566,0,0,0,.921-.1,4.5,4.5,0,0,0-.925-.043l-2.521.018-8.31.163a38.876,38.876,0,0,1-8.235-.673C601.673,455.269,600.46,454.735,600.435,454.8Z" transform="translate(-600.435 -454.796)" fill="#263238"/></g><g transform="translate(1.592 9.332)"><path d="M599.321,454.308c.029.05.624-.3,1.627-.737a7.566,7.566,0,0,1,4.11-.683A6.511,6.511,0,0,1,608.611,455a12.84,12.84,0,0,0,1.252,1.279,6.688,6.688,0,0,0-1.062-1.453,8.615,8.615,0,0,0-1.441-1.347,5.161,5.161,0,0,0-2.244-.952,7.184,7.184,0,0,0-4.276.809A5.768,5.768,0,0,0,599.321,454.308Z" transform="translate(-599.32 -452.461)" fill="#263238"/></g></g><g transform="translate(35.359 135.726)"><path d="M544.7,429.54S524.147,443,523.41,443.555c-1.107.836.163,4.819,2.08,4.13.907-.326,18.155-5.124,20.01-5.846s6.848-4.792,6.848-4.792Z" transform="translate(-522.999 -429.54)" fill="#feab45"/><g transform="translate(11.907 7.258)"><path d="M547.346,445.517a4.828,4.828,0,0,0-3.691-3.37,9.518,9.518,0,0,1,3.691,3.37Z" transform="translate(-543.653 -442.129)" fill="#263238"/></g><g transform="translate(14.195 5.651)"><path d="M550.872,442.67a5.448,5.448,0,0,0-3.249-3.316c-.052.094.849.635,1.735,1.549S550.776,442.72,550.872,442.67Z" transform="translate(-547.621 -439.343)" fill="#263238"/></g><g transform="translate(16.37 4.169)"><path d="M554.321,440.394a4.079,4.079,0,0,0-2.925-3.608,7.629,7.629,0,0,1,2.925,3.608Z" transform="translate(-551.394 -436.771)" fill="#263238"/></g><g transform="translate(17.018 0.092)"><path d="M553.578,434.843c.054-.027-.227-.582-.466-1.539a8.735,8.735,0,0,1-.241-1.7,7.943,7.943,0,0,1,.022-1.013.913.913,0,0,1,.111-.434.211.211,0,0,1,.281-.065c.235.094.357.493.468.808a4.78,4.78,0,0,1,.2.978,7.123,7.123,0,0,1-.052,1.712c-.144.975-.337,1.568-.28,1.586a4.384,4.384,0,0,0,.533-1.542,6.453,6.453,0,0,0,.133-1.785,4.756,4.756,0,0,0-.2-1.053,4.132,4.132,0,0,0-.2-.538.958.958,0,0,0-.462-.5.58.58,0,0,0-.722.192,1.212,1.212,0,0,0-.169.613,7.459,7.459,0,0,0,0,1.058,7.615,7.615,0,0,0,.329,1.754A3.851,3.851,0,0,0,553.578,434.843Z" transform="translate(-552.518 -429.7)" fill="#263238"/></g><g transform="translate(18.035 4.074)"><path d="M554.283,437.549c.027.053.508-.191,1.336-.393a7.33,7.33,0,0,1,1.472-.2,3.315,3.315,0,0,1,.844.054.561.561,0,0,1,.492.48.736.736,0,0,1-.347.652,1.708,1.708,0,0,1-.764.255,3.846,3.846,0,0,1-1.445-.145,9.487,9.487,0,0,0-1.34-.395,3.822,3.822,0,0,0,1.264.64,3.751,3.751,0,0,0,1.555.233,1.991,1.991,0,0,0,.929-.294,1.085,1.085,0,0,0,.51-.976.916.916,0,0,0-.769-.8,3.392,3.392,0,0,0-.945-.042,6.311,6.311,0,0,0-1.526.288A3.046,3.046,0,0,0,554.283,437.549Z" transform="translate(-554.283 -436.607)" fill="#263238"/></g><g transform="translate(2.929 12.315)"><path d="M530.261,455.981c.024.032.346-.208.5-.8a3.036,3.036,0,0,0-.385-2.23,8.164,8.164,0,0,0-.689-1.026,3.788,3.788,0,0,0-.7-.749,1.219,1.219,0,0,0-.657-.275c-.172-.007-.26.035-.257.056a1.953,1.953,0,0,1,.748.416,4.63,4.63,0,0,1,.593.749,11.761,11.761,0,0,1,.641,1,3.181,3.181,0,0,1,.452,2C530.437,455.665,530.213,455.945,530.261,455.981Z" transform="translate(-528.079 -450.903)" fill="#263238"/></g><g transform="translate(9.956 8.826)"><path d="M542.8,447.9a3.117,3.117,0,0,0-2.533-3.033A5.866,5.866,0,0,1,542.8,447.9Z" transform="translate(-540.269 -444.849)" fill="#263238"/></g><g transform="translate(1.273 8.231)"><path d="M551.169,443.819a7.293,7.293,0,0,0-.9.62,25.749,25.749,0,0,1-2.534,1.553,33.346,33.346,0,0,1-4.026,1.792c-1.557.581-3.3,1.128-5.148,1.663-3.7,1.065-7.046,2.038-9.461,2.765l-2.856.877a6.3,6.3,0,0,0-1.034.369,6.314,6.314,0,0,0,1.072-.233l2.888-.766c2.434-.664,5.79-1.6,9.492-2.663,1.85-.536,3.6-1.1,5.165-1.7a30.27,30.27,0,0,0,4.031-1.88,20.154,20.154,0,0,0,2.494-1.664A5.617,5.617,0,0,0,551.169,443.819Z" transform="translate(-525.207 -443.818)" fill="#263238"/></g><g transform="translate(18.546 7.93)"><path d="M564.621,443.875a5.752,5.752,0,0,0-1.742-.463,7.183,7.183,0,0,0-4.32.528,5.153,5.153,0,0,0-1.849,1.588,8.608,8.608,0,0,0-.963,1.72,6.719,6.719,0,0,0-.572,1.708,12.683,12.683,0,0,0,.8-1.6,6.51,6.51,0,0,1,2.744-3.092,7.566,7.566,0,0,1,4.124-.6C563.936,443.781,564.608,443.931,564.621,443.875Z" transform="translate(-555.17 -443.296)" fill="#263238"/></g></g><g transform="translate(41.311 100.967)"><path d="M591.8,370.348A9.844,9.844,0,0,1,598,379.464c.049,13.244-26.76,27.843-26.76,27.843l-35.677-23.639-2.236-.9S581.484,364.672,591.8,370.348Z" transform="translate(-533.323 -369.246)" fill="#263238"/><g transform="translate(20.308 7.792)"><path d="M568.551,401.332a6.6,6.6,0,0,0,.929-.63c.585-.424,1.419-1.053,2.44-1.842,2.043-1.579,4.822-3.817,7.812-6.383s5.622-4.977,7.492-6.758c.935-.89,1.683-1.619,2.191-2.133a6.687,6.687,0,0,0,.763-.823,6.587,6.587,0,0,0-.861.721l-2.268,2.047c-1.912,1.731-4.568,4.106-7.554,6.671s-5.735,4.828-7.735,6.457l-2.367,1.932A6.639,6.639,0,0,0,568.551,401.332Z" transform="translate(-568.55 -382.761)" fill="#455a64"/></g><g transform="translate(41.913 5.963)"><path d="M612.523,379.679a8.84,8.84,0,0,0-6.494,1.917c.059.095,1.359-.734,3.16-1.256C610.982,379.8,612.524,379.79,612.523,379.679Z" transform="translate(-606.026 -379.589)" fill="#455a64"/></g><g transform="translate(42.094 3.956)"><path d="M609.583,376.117a5.424,5.424,0,0,0-3.226,3.994c.1.036.494-1.076,1.393-2.175S609.64,376.211,609.583,376.117Z" transform="translate(-606.34 -376.108)" fill="#455a64"/></g><g transform="translate(58.45 45.864)"><path d="M636.7,448.84c.019-.042-.425-.127-.919.279a3.336,3.336,0,0,0-1.031,2.071,4.07,4.07,0,0,0,.326,2.283c.253.542.53.8.561.771.049-.034-.146-.335-.323-.866a4.629,4.629,0,0,1-.2-2.136,3.58,3.58,0,0,1,.843-1.931C636.336,448.913,636.712,448.9,636.7,448.84Z" transform="translate(-634.711 -448.803)" fill="#263238"/></g></g><g transform="translate(27.385 80.029)"><path d="M579.09,336.212l-10.15,27.342a3.941,3.941,0,0,1-3.746,2.569l-55.87-.736v-4.245l20.732.757,8.8-27.292a2.228,2.228,0,0,1,2.127-1.544l36.04.1A2.228,2.228,0,0,1,579.09,336.212Z" transform="translate(-509.234 -332.984)" fill="#e0e0e0"/><path d="M579.023,336.155s.006-.029.024-.086a2.3,2.3,0,0,0,.07-.255,2.191,2.191,0,0,0-.022-1.026,2.231,2.231,0,0,0-.981-1.321,2.174,2.174,0,0,0-1.015-.321c-.385-.018-.8-.005-1.241-.009l-15.036-.017-10.534-.02-5.919-.013-3.11-.007a2.445,2.445,0,0,0-1.487.327,2.17,2.17,0,0,0-.925,1.216l-8.775,27.245-.02.063-.066,0-20.732-.755.093-.09v4.245l-.089-.09,35.134.47,15.272.21,3.52.048,1.712.024a4.083,4.083,0,0,0,1.625-.237,3.868,3.868,0,0,0,2.239-2.156l1.091-2.914,6.7-17.969c.791-2.111,1.406-3.75,1.826-4.87s.647-1.692.647-1.692-.206.589-.614,1.7l-1.795,4.882-6.648,17.988-1.087,2.921a4,4,0,0,1-2.312,2.234,4.223,4.223,0,0,1-1.674.248l-1.712-.021-3.52-.044-15.272-.193-35.134-.455h-.089v-.089c0-1.1,0-2.293,0-3.488v-.851l.093,0,20.732.76-.086.061c3.168-9.809,6.132-18.987,8.8-27.238a2.323,2.323,0,0,1,.99-1.3,2.6,2.6,0,0,1,1.567-.348l3.11.011,5.919.022,10.534.042,15.035.069c.44.006.853,0,1.244.016a2.218,2.218,0,0,1,1.035.335,2.257,2.257,0,0,1,.987,1.352,2.158,2.158,0,0,1,.008,1.038A2.308,2.308,0,0,1,579.023,336.155Z" transform="translate(-509.167 -332.926)" fill="#263238"/><g transform="translate(44.041 13.288)"><path d="M586.6,356.255a2.511,2.511,0,0,1,2.716.29,2.2,2.2,0,0,1,.531,2.406,2.38,2.38,0,0,1-2.04,1.425,2.145,2.145,0,0,1-2.157-1.424,2.408,2.408,0,0,1,.949-2.7" transform="translate(-585.561 -355.977)" fill="#fff"/></g></g><g transform="translate(6.597 103.73)"><g transform="translate(0.231 0.11)"><path d="M551.919,410.907s-50.351-32.252-52.574-33.517c-1.891-1.076-6.95-4.191-11.937-2.815s-9.46,5.849-11.7,12.384c-1.277,3.734-1.881,10.106-2.164,14.883a22.081,22.081,0,0,0,5.167,15.743A14.085,14.085,0,0,0,485,422.048c.525.164,1.069.3,1.629.426a23.709,23.709,0,0,0,24.68-10.362l1.176-1.79s32.975,12.114,33.491,11.943Z" transform="translate(-473.506 -374.23)" fill="#263238"/></g><path d="M501.775,379.1a.544.544,0,0,1-.126-.074l-.352-.241c-.308-.213-.763-.528-1.361-.912a26.577,26.577,0,0,0-5.347-2.717,14.36,14.36,0,0,0-4.028-.849,11.583,11.583,0,0,0-4.632.756,14.96,14.96,0,0,0-4.452,2.7A20.487,20.487,0,0,0,479.5,379.7a14.432,14.432,0,0,0-1.635,2.326,23.848,23.848,0,0,0-2.172,5.187c-.474,1.756-.854,3.492-1.216,5.131a46.869,46.869,0,0,0-1.159,8.834,32,32,0,0,0,.458,5.988c.111.7.236,1.241.311,1.607l.082.419a.533.533,0,0,1,.018.145.5.5,0,0,1-.048-.138c-.03-.11-.066-.245-.111-.412-.1-.363-.239-.9-.367-1.6a30.028,30.028,0,0,1-.555-6.012,45.727,45.727,0,0,1,1.1-8.888c.357-1.651.727-3.372,1.2-5.155a23.906,23.906,0,0,1,2.195-5.256,14.63,14.63,0,0,1,1.67-2.373,20.576,20.576,0,0,1,2.01-1.968,15.146,15.146,0,0,1,4.545-2.735,11.78,11.78,0,0,1,4.742-.746,14.423,14.423,0,0,1,4.087.9A25.269,25.269,0,0,1,500,377.771c.591.4,1.035.732,1.332.96l.335.265C501.742,379.058,501.778,379.091,501.775,379.1Z" transform="translate(-473.106 -374.039)" fill="#455a64"/><g transform="translate(16.281 2.322)"><path d="M501.348,403.431s.092.047.277.122l.825.327,3.2,1.231,11.876,4.474c5.045,1.882,11.088,4.12,17.868,6.588s14.295,5.17,22.319,7.887l.146.05.071-.137,3.939-7.521,2.007-3.835.078-.148-.14-.088-38.451-24.409-11.549-7.285-3.137-1.958-.819-.5c-.186-.111-.285-.16-.285-.16s.087.07.266.19l.8.53,3.1,2.014,11.489,7.38,38.387,24.5-.062-.236-2.008,3.835-3.936,7.522.217-.088c-8.02-2.71-15.538-5.4-22.325-7.847l-17.893-6.512-11.914-4.37-3.218-1.171-.836-.3C501.448,403.456,501.348,403.431,501.348,403.431Z" transform="translate(-501.348 -378.067)" fill="#455a64"/></g></g><g transform="translate(20.603)"><path d="M503.98,218.526a25.971,25.971,0,0,1-2.237-5.353,8.72,8.72,0,0,1,.3-5.7c.469-1.032,1.205-1.936,1.574-3.008.506-1.475.3-3.216,1.212-4.48,1.427-1.976,4.482-1.515,6.688-2.55,1.719-.806,2.92-2.544,4.727-3.124a7.045,7.045,0,0,1,4.826.632,18.2,18.2,0,0,0,4.656,1.7,32.7,32.7,0,0,0,3.543.009,4.669,4.669,0,0,1,3.27,1.127,2.244,2.244,0,0,1,.106,3.156c2.068-.35,4.016,1.714,3.989,3.811a5.705,5.705,0,0,1-3.515,4.816,12.5,12.5,0,0,1-6.177.767c-5.92-.461-11.869-2.712-15.9-7.073" transform="translate(-499.099 -194.105)" fill="#feab45"/><g transform="translate(0 3.245)"><g transform="translate(2.04 1.028)"><path d="M505.058,214.258l-4.034,29.314a8.8,8.8,0,0,0,7.952,9.969h0a8.806,8.806,0,0,0,9.49-7.583c.3-2.207.557-4.046.6-4.272,0,0,7.559.325,9.114-6.987.752-3.533,1.707-10.937,2.494-17.646a13.925,13.925,0,0,0-11.107-15.268l-.707-.141C511.148,200.566,505.923,206.516,505.058,214.258Z" transform="translate(-500.941 -201.518)" fill="#ffbe9d"/><g transform="translate(9.149 35.44)"><path d="M525.824,267.618a17.381,17.381,0,0,1-9.013-4.625s1.2,5.727,8.651,6.528Z" transform="translate(-516.811 -262.993)" fill="#eb996e"/></g><g transform="translate(12.201 11.09)"><g transform="translate(0 4.16)"><g transform="translate(11.115 2.002)"><g transform="translate(1.009 3.343)"><path d="M545.26,238.416a1.067,1.067,0,0,1-1.22.854,1.021,1.021,0,0,1-.891-1.159,1.069,1.069,0,0,1,1.219-.856A1.022,1.022,0,0,1,545.26,238.416Z" transform="translate(-543.137 -237.244)" fill="#263238"/></g><path d="M545.512,233.011c-.157.11-.832-.635-1.96-.857s-2.065.176-2.159.014c-.048-.073.133-.293.545-.484a2.935,2.935,0,0,1,1.763-.18,2.816,2.816,0,0,1,1.526.853C545.52,232.692,545.589,232.963,545.512,233.011Z" transform="translate(-541.386 -231.445)" fill="#263238"/></g><g transform="translate(1.619 3.532)"><path d="M527.037,235.27a1.067,1.067,0,0,1-1.22.854,1.02,1.02,0,0,1-.89-1.159,1.068,1.068,0,0,1,1.219-.855A1.021,1.021,0,0,1,527.037,235.27Z" transform="translate(-524.914 -234.099)" fill="#263238"/></g><path d="M526.233,229.538c-.157.11-.834-.635-1.96-.857-1.122-.238-2.065.176-2.16.014-.048-.073.132-.293.546-.483a2.929,2.929,0,0,1,1.762-.18,2.814,2.814,0,0,1,1.526.853C526.24,229.219,526.309,229.49,526.233,229.538Z" transform="translate(-522.106 -227.972)" fill="#263238"/><g transform="translate(6.546 1.249)"><path d="M533.461,239.626a7.6,7.6,0,0,1,1.9.036c.293.028.577.025.665-.162a1.489,1.489,0,0,0-.021-.891q-.2-1.125-.413-2.36a38.436,38.436,0,0,1-.766-6.111,38.428,38.428,0,0,1,1.256,6.035q.2,1.238.375,2.366a1.7,1.7,0,0,1-.076,1.159.736.736,0,0,1-.557.326,1.966,1.966,0,0,1-.5-.03A7.46,7.46,0,0,1,533.461,239.626Z" transform="translate(-533.461 -230.138)" fill="#263238"/></g><g transform="translate(2.728 10.852)"><path d="M527.186,246.8c.185.026-.057,1.249.816,2.326s2.2,1.2,2.177,1.376c0,.08-.338.179-.891.085a3.1,3.1,0,0,1-1.831-1.079,2.705,2.705,0,0,1-.607-1.935C526.906,247.049,527.1,246.774,527.186,246.8Z" transform="translate(-526.838 -246.796)" fill="#263238"/></g></g><g transform="translate(0.057)"><path d="M527.448,222.125c-.172.284-1.268-.086-2.621-.19-1.351-.132-2.494.042-2.615-.268-.052-.147.191-.4.681-.608a4.566,4.566,0,0,1,3.989.349C527.329,221.7,527.525,221.99,527.448,222.125Z" transform="translate(-522.205 -220.755)" fill="#feab45"/></g><g transform="translate(11.681 2.771)"><path d="M546.166,227.176c-.25.216-.973-.2-1.9-.4-.924-.232-1.757-.172-1.886-.477-.054-.145.122-.377.515-.55a2.816,2.816,0,0,1,3.052.709C546.222,226.784,546.278,227.069,546.166,227.176Z" transform="translate(-542.368 -225.561)" fill="#feab45"/></g></g></g><g transform="translate(0 18.668)"><path d="M503.074,232.763c-.114-.079-4.739-2.5-5.58,2.548s4.4,4.847,4.428,4.7S503.074,232.763,503.074,232.763Z" transform="translate(-497.402 -232.116)" fill="#ffbe9d"/><g transform="translate(1.319 1.571)"><path d="M501.669,239c-.02-.02-.1.047-.258.09a.893.893,0,0,1-.659-.1,2.2,2.2,0,0,1-.68-2.118,2.942,2.942,0,0,1,.455-1.217,1.031,1.031,0,0,1,.774-.564.454.454,0,0,1,.479.327c.044.152-.005.248.02.261s.122-.066.116-.281a.565.565,0,0,0-.146-.349.671.671,0,0,0-.464-.21,1.252,1.252,0,0,0-1.048.629,3.02,3.02,0,0,0-.539,1.355,2.313,2.313,0,0,0,.918,2.392.954.954,0,0,0,.826,0C501.64,239.122,501.685,239.014,501.669,239Z" transform="translate(-499.69 -234.841)" fill="#eb996e"/></g></g><g transform="translate(5.088)"><path d="M534.368,209.49c-.866,1.864-5.315,2.584-8.577,1.6-3.007-.908-4.1-2.817-6.011-4.48-1.211-1.053-1.211-1.053-3.186-1.257-1.6-.164-2.878,1.425-4.086,2.483.672,4.008-1.11,7.976-2.847,11.65a2.031,2.031,0,0,1-.815,1.039c-.684.337-1.5-.2-1.909-.84a6.31,6.31,0,0,1-.707-3.539,21.035,21.035,0,0,1,1.672-8.119,14.31,14.31,0,0,1,5.273-6.313,13.557,13.557,0,0,1,10.03-1.661A16.652,16.652,0,0,1,532,205.33a9.748,9.748,0,0,1,2.369,4.16" transform="translate(-506.227 -199.735)" fill="#feab45"/></g></g><g transform="translate(4.229 18.051)"><g transform="translate(18.713 2.089)"><path d="M537.225,234.093c.043,0,.028-.435.229-1.172a4.866,4.866,0,0,1,1.785-2.592,4.744,4.744,0,0,1,4.463-.642,4.646,4.646,0,0,1,2.17,1.64,4.671,4.671,0,0,1,0,5.532A4.648,4.648,0,0,1,543.7,238.5a4.747,4.747,0,0,1-4.464-.642,4.871,4.871,0,0,1-1.785-2.592c-.2-.737-.186-1.174-.229-1.172a.918.918,0,0,0-.025.314,3.765,3.765,0,0,0,.1.9,4.858,4.858,0,0,0,1.764,2.783,5.025,5.025,0,0,0,7.131-.991,5.036,5.036,0,0,0,0-6,5.025,5.025,0,0,0-7.13-.991,4.863,4.863,0,0,0-1.765,2.783,3.764,3.764,0,0,0-.1.9A.915.915,0,0,0,537.225,234.093Z" transform="translate(-537.198 -229.04)" fill="#263238"/></g><g transform="translate(6.751)"><path d="M516.475,230.47c.043,0,.028-.435.229-1.172a4.867,4.867,0,0,1,1.785-2.592,4.744,4.744,0,0,1,4.463-.643,4.648,4.648,0,0,1,2.17,1.641,4.671,4.671,0,0,1,0,5.532,4.649,4.649,0,0,1-2.171,1.641,4.744,4.744,0,0,1-4.463-.643,4.867,4.867,0,0,1-1.785-2.592c-.2-.737-.186-1.174-.229-1.172a.921.921,0,0,0-.025.314,3.769,3.769,0,0,0,.1.9,4.86,4.86,0,0,0,1.764,2.783,5.026,5.026,0,0,0,7.131-.991,5.036,5.036,0,0,0,0-6.005,5.025,5.025,0,0,0-7.13-.99,4.855,4.855,0,0,0-1.764,2.783,3.746,3.746,0,0,0-.1.9A.921.921,0,0,0,516.475,230.47Z" transform="translate(-516.448 -225.417)" fill="#263238"/></g><g transform="translate(16.629 4.785)"><path d="M533.586,234.155c.051.1.692-.2,1.438.031s1.117.825,1.216.768c.047-.022.024-.214-.145-.468a1.793,1.793,0,0,0-2.13-.641C533.684,233.963,533.559,234.11,533.586,234.155Z" transform="translate(-533.583 -233.718)" fill="#263238"/></g><g transform="translate(0 3.5)"><path d="M504.738,231.749a31.71,31.71,0,0,0,7.178-.1,31.706,31.706,0,0,0-7.178.1Z" transform="translate(-504.738 -231.488)" fill="#263238"/></g></g><g transform="translate(24.516 8.188)"><path d="M551,208.308a1.433,1.433,0,0,1-.078.481,2.364,2.364,0,0,1-.756,1.085,3.339,3.339,0,0,1-1.814.743,9.129,9.129,0,0,1-2.406-.125,41.265,41.265,0,0,1-4.279-.864c-.541-.141-.975-.265-1.274-.357l-.343-.109a.505.505,0,0,1-.117-.046.494.494,0,0,1,.124.023l.349.087,1.281.319c1.084.26,2.593.58,4.277.827a9.283,9.283,0,0,0,2.375.135,3.306,3.306,0,0,0,1.772-.7,2.4,2.4,0,0,0,.766-1.035C550.977,208.482,550.981,208.306,551,208.308Z" transform="translate(-539.929 -208.308)" fill="#fff"/></g><g transform="translate(29.163 9.332)"><path d="M555.527,210.293a4.611,4.611,0,0,1-.432,1.38,5.9,5.9,0,0,1-5.687,3.4,4.606,4.606,0,0,1-1.419-.273,3.122,3.122,0,0,1,.38.072,6.339,6.339,0,0,0,1.043.115,5.987,5.987,0,0,0,5.607-3.352,6.367,6.367,0,0,0,.392-.973A3.116,3.116,0,0,1,555.527,210.293Z" transform="translate(-547.989 -210.293)" fill="#fff"/></g></g></g></g></g></svg>