<svg xmlns="http://www.w3.org/2000/svg" width="400.645" height="250.664"><path fill="#fff" d="M-7.074 25.084h86.217l-1 58.551H-8.073z"/><path d="M78.144 83.635s-.003-.366.004-1.065.022-1.738.04-3.087l.169-11.776.662-42.62.122.125-86.211.032h-.007l.157-.157c-.356 20.86-.704 40.695-1.012 58.551l-.14-.143 62.114.07 17.745.04 4.72.016 1.219.01c.274 0 .418.008.418.008s-.133.006-.402.01l-1.203.007-4.692.018-17.714.039-62.208.07h-.142l.003-.143c.304-17.856.634-37.692.986-58.55l.003-.157h.161l86.21.03h.124l-.002.126-.794 42.699-.232 11.753-.066 3.065c-.015.698-.032 1.03-.032 1.03z" fill="#e0e0e0"/><path d="M-7.16 30.31c.002-.087 19.288-.157 43.074-.157s43.075.07 43.073.156-19.284.157-43.078.157-43.07-.07-43.069-.157z" fill="#e0e0e0"/><path d="M-3.717 27.674a.7.685-64.49 11-.676-.697.7.685-64.49 01.676.697zM-1.35 27.674a.7.685-64.49 11-.675-.697.7.685-64.49 01.676.697zM.985 27.674a.7.685-64.49 11-.676-.697.7.685-64.49 01.676.697z" fill="#e0e0e0" opacity=".3"/><path fill="#e0e0e0" d="M.144 36.416h22.999l-.398 23.326H-.254zM67.014 43.012c-.002.086-8.973.157-20.036.157s-20.031-.071-20.03-.157 8.97-.156 20.036-.156 20.031.066 20.03.156zM66.94 47.343c-.002.087-8.973.156-20.036.156s-20.031-.07-20.03-.156 8.97-.157 20.036-.157 20.031.07 20.03.157zM66.866 51.677c-.002.087-8.973.157-20.036.157s-20.031-.07-20.03-.157 8.97-.156 20.036-.156 20.031.07 20.03.156zM50.405 56.013a5.456 5.336-64.49 01-.932.062l-2.538.05c-2.143.027-5.107.045-8.372.045s-6.23-.018-8.372-.045l-2.537-.05a5.444 5.324-64.49 01-.929-.062 5.565 5.443-64.49 01.931-.06l2.539-.05c2.143-.03 5.107-.046 8.373-.046s6.229.017 8.37.045l2.537.05a5.577 5.454-64.49 01.93.061zM1.051 67.606H11.86l-.187 10.962H.864zM20.652 67.606H31.46l-.187 10.962H20.465z"/><g><path fill="#e0e0e0" d="M40.253 67.606H51.06l-.187 10.962H40.066z"/></g><g><path fill="#e0e0e0" d="M59.855 67.606h10.808l-.188 10.962H59.668z"/></g><g><path fill="#fff" d="M92.352-3.367h74.268l-.522 30.597H91.829z"/><path d="M166.097 27.229s-.003-.189 0-.547.01-.897.019-1.588l.083-6.088.337-22.374.08.083-74.263.036h-.004l.12-.12c-.183 10.714-.36 21.058-.528 30.598l-.11-.115 53.245.055 15.447.032 4.134.014 1.07.007c.241 0 .367.007.367.007s-.117 0-.354.007l-1.056.007-4.111.014-15.418.031-53.324.054h-.113l.002-.114c.163-9.54.34-19.883.518-30.597l.002-.12h.122l74.263.036h.083l-.001.084-.428 22.423-.124 6.071c-.012.688-.028 1.213-.036 1.572s-.022.532-.022.532z" fill="#e0e0e0"/><path d="M92.358.759c0-.066 16.602-.12 37.075-.12s37.076.054 37.075.12-16.598.12-37.079.12S92.357.824 92.358.758z" fill="#e0e0e0"/><path d="M95.496-1.087a.549.537-64.49 11-.53-.546.549.537-64.49 01.53.546zM97.343-1.087a.549.537-64.49 11-.53-.546.549.537-64.49 01.53.546z" fill="#ebebeb" opacity=".3"/><circle cx=".549" cy=".549" r=".549" fill="#ebebeb" transform="matrix(.982 0 -.017 .996 98.095 -1.633)" opacity=".3"/><g><path fill="#e0e0e0" d="M98.508 5.732h17.939l-.31 18.194h-17.94z"/></g><g><path d="M161.243 10.607c-.001.066-9.233.119-20.618.119s-20.621-.054-20.62-.119 9.233-.12 20.624-.12 20.615.055 20.614.12zM161.18 14.314c-.001.065-9.233.119-20.619.119s-20.62-.054-20.62-.12 9.233-.119 20.625-.119 20.615.054 20.614.12zM146.427 18.016a1.143 1.118-64.49 01-.27.024l-.774.021-2.848.038-9.385.035-9.385-.035-2.848-.038-.772-.021a1.143 1.118-64.49 01-.269-.024 1.224 1.197-64.49 01.27-.024l.773-.022 2.848-.037 9.387-.035 9.383.035 2.848.037.773.022a1.225 1.198-64.49 01.269.024z" fill="#e0e0e0"/></g></g><g><path d="M366.308 37.466a2.781 2.72-64.49 01.429-.486l1.242-1.244c1.056-1.04 2.53-2.465 4.17-4.024l.036-.035-.003.21a307.53 307.53 0 01-4.058-3.946l-1.206-1.22a2.723 2.663-64.49 01-.415-.474 2.8 2.738-64.49 01.49.393l1.27 1.151c1.064.982 2.52 2.354 4.119 3.885l.109.1-.111.106-.038.036c-1.639 1.56-3.134 2.96-4.225 3.964l-1.303 1.177a2.784 2.723-64.49 01-.506.407zM353.96 26.246a2.778 2.717-64.49 01-.429.485l-1.242 1.244a356.349 356.349 0 01-4.17 4.024l-.036.035.003-.21c1.6 1.531 3.034 2.926 4.057 3.946l1.207 1.22a2.721 2.661-64.49 01.415.475 2.8 2.738-64.49 01-.491-.394l-1.266-1.15a326.863 326.863 0 01-4.118-3.885l-.11-.1.112-.106.038-.036c1.639-1.56 3.134-2.96 4.225-3.964l1.303-1.177a2.8 2.738-64.49 01.502-.407zM356.942 40.108c-.073-.028 1.307-3.785 3.082-8.38s3.274-8.308 3.347-8.28-1.307 3.785-3.083 8.381-3.274 8.307-3.346 8.279z" fill="#e0e0e0"/><path d="M380.375 48.138s-.005-.218-.002-.628.01-1.02.018-1.805l.086-6.836.356-24.439.116.12-40.785.023.144-.144-.59 33.709-.124-.13 29.452.065 8.346.034 2.215.016.573.007c.13 0 .196.007.196.007s-.059 0-.184.007l-.559.008-2.192.016-8.32.034-29.536.065h-.126l.002-.128c.17-10.016.357-21.523.56-33.709l.002-.144h.145l40.784.024h.118l-.002.119-.48 24.515-.146 6.81-.044 1.781c-.011.411-.023.603-.023.603z" fill="#e0e0e0"/><path d="M381.185 19.43c-.001.08-9.21.144-20.565.144s-20.563-.064-20.561-.144 9.208-.144 20.566-.144 20.561.064 20.56.144zM343.448 16.97a.559.547-64.49 11-.539-.559.56.548-64.49 01.54.559zM345.449 16.97a.559.547-64.49 11-.54-.559.56.548-64.49 01.54.559zM347.451 16.97a.559.547-64.49 11-.54-.559.56.548-64.49 01.54.559z" fill="#e0e0e0"/></g><g><path d="M368.446 196.366a12.72 12.44-64.49 017.765-.955 6.554 6.41-64.49 013.8 1.733c.939 1.071 1.087 2.955-.026 3.876a3.731 3.649-64.49 01-2.425.62c-2.048-.024-4.314-.39-5.972.86-.946.714-1.588 1.9-2.71 2.25a2.687 2.628-64.49 01-2.88-1.31 4.6 4.499-64.49 01-.271-3.375 5.175 5.061-64.49 012.72-3.699zM363.228 185.794c1.405 2.091 4.218 1.394 5.539.122a10.66 10.425-64.49 002.43-4.88c1.21-4.024 2.434-8.245 1.655-12.343a6.887 6.736-64.49 00-1.497-3.357 3.6 3.52-64.49 00-3.328-1.13c-1.419.378-2.32 1.781-2.978 3.116a29.547 28.897-64.49 00-3.082 12.627 10.246 10.02-64.49 001.262 5.847" fill="#ebebeb"/><path d="M359.218 188.79a7.63 7.461-64.49 001.285-6.99 13.529 13.23-64.49 00-3.98-6.006 22.371 21.878-64.49 00-7.236-4.374 7.935 7.76-64.49 00-3.278-.567 3.514 3.437-64.49 00-2.787 1.693c-.795 1.488-.088 3.293.684 4.766a56.685 55.436-64.49 004.675 7.415c1.406 1.883 3.023 3.74 5.202 4.589s4.459.75 5.648-.797" fill="#ebebeb"/><path d="M362.59 217.288a4.586 4.485-64.49 00.148-.948l.292-2.59a37.529 36.702-64.49 01.639-3.796 29.407 28.76-64.49 011.437-4.482 16.566 16.201-64.49 012.328-4.056 8.58 8.39-64.49 012.889-2.405 8.121 7.943-64.49 012.416-.76 4.607 4.506-64.49 00.933-.136 4.457 4.36-64.49 00-.947-.015 7.4 7.237-64.49 00-2.517.662 8.566 8.378-64.49 00-3.051 2.426 16.2 15.844-64.49 00-2.41 4.137 27.546 26.94-64.49 00-1.428 4.556 32.21 31.5-64.49 00-.563 3.846 52.733 52.733 0 00-.171 2.605 4.5 4.401-64.49 00.006.956z" fill="#e0e0e0"/><path d="M362.802 215.294a1.871 1.83-64.49 00.033-.44l.021-1.259c.019-1.095.046-2.673.134-4.625.165-3.905.566-8.107 1.307-14.03.701-5.572 1.626-12.052 2.556-16.269.2-.958.4-1.821.588-2.576s.332-1.41.479-1.938c.126-.498.228-.903.315-1.225a.222.217-64.49 10-.074-.021c-.104.316-.226.716-.38 1.206-.17.523-.345 1.172-.544 1.926s-.427 1.613-.645 2.57a143.575 140.413-64.49 00-2.653 15.094c-.743 5.936-1.125 11.342-1.217 15.256a82.295 82.295 0 00-.011 4.634c.023.511.04.927.054 1.258a1.885 1.844-64.49 00.037.44z" fill="#e0e0e0"/><path d="M363.006 204.87a8.441 8.256-64.49 00.014-1.314 37.908 37.908 0 00-.332-3.563 47.061 46.025-64.49 00-1.054-5.19 42.594 41.656-64.49 00-2.035-6.142 32.847 32.123-64.49 00-6.115-9.925 16.2 15.844-64.49 00-1.455-1.394c-.224-.2-.42-.389-.622-.542l-.567-.398a8.542 8.354-64.49 00-1.08-.71 39.429 38.56-64.49 013.522 3.237 34.602 33.84-64.49 015.96 9.89 48.657 47.586-64.49 012.048 6.086 52.947 51.78-64.49 011.128 5.14 51.76 51.76 0 01.456 3.526 8.486 8.3-64.49 00.132 1.3zM352.757 223.26l.786 14.312h18.127l1.274-14.312zM351.103 217.619h24.1l-.095 5.641h-24.102z" fill="#e0e0e0"/><path d="M350.771 237.024l-.026 1.564h23.702l.027-1.564z" fill="#ebebeb"/><path d="M352.94 241.345l-1.063-2.752h21.702l-1.337 2.752z" fill="#e0e0e0"/><path d="M372.528 227.938a.634.62-64.49 01-.087.131l-.277.364-1.08 1.37-.048.06-.044-.062-2.532-3.64h.15l-2.617 3.669-.082.115-.088-.108-2.967-3.655h.175l-.17.212-2.768 3.444-.092.114-.081-.119-2.49-3.668.147.008-3.204 3.636-.057.065-.041-.073-.954-1.68-.244-.445a.735.719-64.49 01-.075-.16.706.69-64.49 01.103.142l.273.43 1.006 1.648-.098-.008 3.16-3.685.08-.092.07.1 2.516 3.65-.174-.005 2.761-3.45.17-.212.088-.11.087.108 2.959 3.663-.17.006 2.642-3.649.077-.107.073.107 2.477 3.68h-.093l1.12-1.336.301-.345a.514.514 0 01.098-.113zM373.197 223.166c0 .062-4.543.114-10.146.114s-10.144-.052-10.143-.114 4.544-.115 10.147-.115 10.143.051 10.142.115zM373.849 238.742c-.001.063-4.939.115-11.027.115s-11.024-.051-11.023-.115 4.937-.114 11.027-.114 11.024.051 11.023.114z" fill="#f5f5f5"/></g><g><path d="M44.056 39.152H327.25a6.74 6.592-64.49 016.504 6.713l-3.043 178.265a14.568 14.247-64.49 01-14.552 14.509H47.344a14.568 14.247-64.49 01-14.057-14.51l3.026-177.257a7.751 7.58-64.49 017.743-7.72z" fill="#455a64"/><path d="M20.853 223.886H343.09l-.065 3.785a13.722 13.42-64.49 01-13.707 13.666H34.029a13.722 13.42-64.49 01-13.24-13.666l.064-3.785z" fill="#455a64"/><path fill="#e0e0e0" d="M44.293 47.078h280.625l-2.876 168.463H41.417z"/><path d="M152.683 223.886l3.888 6.45h56.269l3.823-6.45zM52.452 56.838h264.65l-2.71 158.703H49.745z" fill="#263238"/><path d="M70.127 210.884c-.137 0 .328-33.801 1.04-75.487s1.4-75.497 1.537-75.497-.328 33.794-1.04 75.497-1.4 75.487-1.537 75.487zM67.132 73.587a19.13 18.709-64.49 01-4.302.252 19.129 18.708-64.49 01-4.295-.252 19.189 18.766-64.49 014.303-.252 19.19 18.767-64.49 014.294.252zM67.61 65.022a19.169 18.747-64.49 01-4.302.252 19.176 18.754-64.49 01-4.295-.252 19.2 18.778-64.49 014.303-.252 19.19 18.768-64.49 014.294.252zM66.975 82.822a19.189 18.766-64.49 01-4.303.252 19.188 18.765-64.49 01-4.295-.252 19.13 18.709-64.49 014.304-.252 19.132 18.71-64.49 014.294.252zM66.817 92.056a19.168 18.746-64.49 01-4.302.252 19.167 18.745-64.49 01-4.295-.252 19.19 18.768-64.49 014.303-.25 19.192 18.77-64.49 014.294.25zM66.66 101.29a19.129 18.708-64.49 01-4.303.252 19.128 18.707-64.49 01-4.295-.252 19.19 18.768-64.49 014.303-.25 19.192 18.77-64.49 014.294.25zM66.502 110.525a19.168 18.746-64.49 01-4.303.252 19.167 18.745-64.49 01-4.295-.252 19.169 18.747-64.49 014.304-.252 19.17 18.748-64.49 014.294.252zM66.344 119.764a19.13 18.709-64.49 01-4.302.252 19.129 18.708-64.49 01-4.295-.252 19.189 18.766-64.49 014.303-.252 19.19 18.767-64.49 014.294.252zM66.187 128.994a19.188 18.765-64.49 01-4.303.252 19.187 18.764-64.49 01-4.295-.252 19.17 18.748-64.49 014.304-.252 19.17 18.749-64.49 014.294.252zM66.029 138.229a19.132 18.71-64.49 01-4.303.252 19.13 18.71-64.49 01-4.294-.252 19.188 18.765-64.49 014.303-.252 19.189 18.766-64.49 014.294.252zM65.871 147.463a19.189 18.766-64.49 01-4.302.252 19.188 18.765-64.49 01-4.295-.252 19.167 18.745-64.49 014.303-.252 19.168 18.746-64.49 014.294.252zM65.714 156.697a19.193 18.77-64.49 01-4.303.25 19.192 18.77-64.49 01-4.295-.25 19.169 18.747-64.49 014.304-.252 19.17 18.748-64.49 014.294.252zM65.556 165.932a19.192 18.77-64.49 01-4.302.252 19.19 18.767-64.49 01-4.295-.252 19.13 18.709-64.49 014.303-.252 19.13 18.71-64.49 014.294.252zM65.399 175.166a19.173 18.75-64.49 01-4.303.252 19.172 18.75-64.49 01-4.295-.252 19.166 18.744-64.49 014.304-.252 19.167 18.745-64.49 014.294.252zM65.24 184.4a19.13 18.71-64.49 01-4.302.251 19.13 18.709-64.49 01-4.295-.252 19.19 18.767-64.49 014.304-.252 19.192 18.77-64.49 014.294.252zM65.083 193.634a19.192 18.77-64.49 01-4.302.252 19.19 18.767-64.49 01-4.295-.252 19.169 18.747-64.49 014.303-.252 19.17 18.748-64.49 014.294.252zM64.926 202.868a19.129 18.708-64.49 01-4.303.252 19.128 18.707-64.49 01-4.295-.252 19.192 18.77-64.49 014.304-.25 19.193 18.77-64.49 014.294.25z" fill="#e0e0e0"/><path d="M101.604 73.044c-.003.138-5 .252-11.16.252s-11.156-.114-11.153-.252 4.999-.252 11.162-.252 11.153.117 11.15.252zM99.388 202.868c-.002.14-5 .252-11.16.252s-11.155-.112-11.153-.252 4.999-.25 11.162-.25 11.153.114 11.151.25zM132.354 92.056c-.003.14-9.351.252-20.878.252s-20.873-.113-20.871-.252 9.349-.25 20.88-.25 20.871.112 20.869.25z" fill="#feab45"/><path d="M180.627 92.056c-.002.14-9.351.252-20.878.252s-20.873-.113-20.87-.252 9.348-.25 20.879-.25 20.871.112 20.869.25zM162.02 101.29c-.002.14-13.778.252-30.765.252s-30.762-.112-30.76-.252 13.776-.25 30.769-.25 30.759.112 30.756.25zM161.863 110.525c-.003.14-13.779.252-30.766.252s-30.762-.113-30.76-.252 13.776-.252 30.769-.252 30.76.114 30.757.252zM203.74 138.229c-.002.14-13.777.252-30.765.252s-30.762-.113-30.76-.252 13.775-.252 30.769-.252 30.76.112 30.757.252zM185.78 119.764c-.002.14-13.778.252-30.765.252s-30.762-.113-30.76-.252 13.776-.252 30.769-.252 30.76.109 30.757.252zM260.97 119.764c-.003.14-13.78.252-30.766.252s-30.762-.113-30.76-.252 13.775-.252 30.769-.252 30.76.109 30.757.252z" fill="#e0e0e0"/><path d="M235.134 101.29c-.002.14-13.779.252-30.765.252s-30.762-.112-30.76-.252 13.776-.25 30.768-.25 30.76.112 30.757.25zM277.004 138.229c-.003.14-13.779.252-30.766.252s-30.762-.113-30.76-.252 13.776-.252 30.769-.252 30.76.112 30.757.252z" fill="#fafafa"/><path d="M268.99 110.525c-.003.14-21.394.252-47.773.252s-47.769-.113-47.767-.252 21.389-.252 47.776-.252 47.766.114 47.763.252z" fill="#455a64"/><path d="M101.437 82.822c-.002.14-5 .252-11.16.252s-11.155-.112-11.153-.252 4.999-.252 11.162-.252 11.153.113 11.151.252zM99.546 193.634c-.003.139-5 .252-11.16.252s-11.156-.112-11.153-.252 4.998-.252 11.161-.252 11.154.114 11.152.252zM111.86 119.764c-.002.14-5 .252-11.16.252s-11.155-.113-11.152-.252 4.999-.252 11.16-.252 11.155.109 11.153.252z" fill="#fafafa"/><path d="M290.693 119.764c-.003.14-5 .252-11.161.252s-11.156-.113-11.153-.252 4.999-.252 11.162-.252 11.154.109 11.152.252z" fill="#ff725e"/><path d="M131.251 156.643c-.002.14-9.35.252-20.877.252s-20.874-.113-20.871-.252 9.349-.252 20.88-.252 20.87.112 20.868.252z" fill="#feab45"/><path d="M179.525 156.643c-.003.14-9.351.252-20.878.252s-20.874-.113-20.871-.252 9.349-.252 20.88-.252 20.87.112 20.869.252zM160.918 165.877c-.002.138-13.779.252-30.765.252s-30.763-.114-30.76-.252 13.776-.252 30.768-.252 30.76.113 30.757.252zM160.76 175.116c-.002.138-13.778.252-30.765.252s-30.762-.114-30.76-.252 13.776-.252 30.769-.252 30.759.108 30.756.252zM184.679 184.346c-.003.138-13.78.252-30.766.252s-30.762-.113-30.76-.252 13.776-.252 30.769-.252 30.759.113 30.757.252zM259.867 184.346c-.002.138-13.778.252-30.765.252s-30.762-.113-30.76-.252 13.775-.252 30.768-.252 30.76.113 30.757.252z" fill="#e0e0e0"/><path d="M234.032 165.877c-.002.138-13.779.252-30.766.252s-30.762-.114-30.76-.252 13.777-.252 30.77-.252 30.758.113 30.756.252z" fill="#fafafa"/><path d="M267.887 175.116c-.003.138-21.393.252-47.772.252s-47.77-.114-47.767-.252 21.388-.252 47.776-.252 47.765.108 47.763.252z" fill="#455a64"/><path d="M110.758 184.346c-.002.138-5 .252-11.16.252s-11.155-.113-11.153-.252 5-.252 11.161-.252 11.155.113 11.152.252z" fill="#fafafa"/><path d="M289.59 184.346c-.002.138-5 .252-11.16.252s-11.156-.113-11.153-.252 4.998-.252 11.161-.252 11.155.113 11.153.252z" fill="#ff725e"/><g><path d="M294.762 229.714c-.001.083-56.976.15-127.241.15-70.289 0-127.25-.067-127.248-.15s56.963-.149 127.253-.149c70.265 0 127.238.067 127.236.15z" fill="#263238"/></g></g><g><path d="M31.61 179.098a32.914 32.189-64.49 00-30.679-8.58 57.173 55.914-64.49 0031.02 9.883M21.796 141.548a31.853 31.151-64.49 00-8.598-26.274c-.38 9.13 3.245 19.406 8.598 26.274M26.936 158.952A49.396 48.309-64.49 005.03 137.359a31.173 30.487-64.49 0021.99 21.691M28.006 162.31a58.59 57.3-64.49 01-16.32-1.465 27.546 26.94-64.49 01-13.773-8.423 55.62 54.395-64.49 0130.02 9.344" fill="#feab45"/><path d="M25.41 151.249c2.966-10.587 7.686-17.91 15.99-23.842a22.107 21.62-64.49 01-15.99 23.842M45.808 169.505a15.738 15.391-64.49 00-9.138-14.513c.362 5.467 4.489 11.79 9.138 14.513M48.581 160.58a23.445 22.929-64.49 0115.42-19.92c-2.045 8.846-7.214 16.21-15.42 19.92M44.36 176.418a14.786 14.46-64.49 018.452-5.42 43.982 43.014-64.49 0110.074-1.015 23.942 23.415-64.49 01-18.29 7.67M40.054 198.984a26.233 25.656-64.49 0131.199 15.113 68.528 67.02-64.49 01-31.199-15.113M27.647 191.143c1.8 5.691 1.32 12.57-2.984 17.475a20.965 20.503-64.49 012.984-17.475M20.29 187.98a21.501 21.028-64.49 01-11.956 17.372 1.335 1.306-64.49 01-1.034.172c-.51-.213-.545-.925-.473-1.484.952-7.291 6.397-14.343 13.462-16.06M15.46 187.24a17.629 17.24-64.49 01-25.29.13c8.053-.896 17.337-1.487 25.29-.13" fill="#feab45"/><path d="M15.369 122.065a1.451 1.42-64.49 00.07.239l.233.689.925 2.64c.413 1.142.887 2.55 1.438 4.183l.886 2.617q.453 1.395.954 2.95c1.354 4.128 2.85 9.083 4.465 14.6a590.239 590.239 0 014.86 18.066 559.445 559.445 0 014.205 18.25c1.157 5.642 2.147 10.735 2.853 15.04l.518 3.065.413 2.743c.265 1.712.485 3.187.633 4.397s.286 2.132.373 2.79l.105.722a1.538 1.504-64.49 00.046.245 1.48 1.446-64.49 00-.016-.249l-.075-.727-.316-2.789c-.129-1.214-.336-2.689-.582-4.408l-.39-2.749-.496-3.071c-.677-4.311-1.647-9.412-2.787-15.06a513.235 513.235 0 00-4.18-18.269 544.67 544.67 0 00-4.886-18.07c-1.64-5.528-3.157-10.475-4.538-14.591l-.975-2.944-.91-2.61a150.638 150.638 0 00-1.487-4.17l-.979-2.619-.261-.678a1.44 1.407-64.49 00-.1-.232z" fill="#263238"/><path d="M59.123 145.385a.891.871-64.49 00-.14.133l-.392.41c-.342.362-.837.905-1.456 1.621a57.288 56.026-64.49 00-4.842 6.4 43.146 42.196-64.49 00-5.132 10.739A105.627 103.301-64.49 0043.95 178.9c-1.808 10.166-3.968 19.27-5.533 25.857l-1.874 7.796-.5 2.123c-.051.23-.09.412-.123.554a.87.85-64.49 00-.03.19.905.885-64.49 00.062-.182l.151-.547c.133-.498.316-1.21.556-2.109l1.969-7.775c1.619-6.573 3.815-15.679 5.624-25.855a107.99 105.611-64.49 013.177-14.178 43.644 42.683-64.49 015.045-10.705 61.803 60.442-64.49 014.751-6.44 79.107 79.107 0 011.413-1.658l.369-.43a.893.873-64.49 00.116-.156z" fill="#263238"/><path d="M13.064 186.894a1.067 1.044-64.49 00.289.054l.83.093.6.06.709.108c.508.077 1.09.153 1.72.299l.995.2 1.063.274c.742.17 1.505.446 2.32.697a34.902 34.133-64.49 015.051 2.275 29.301 28.656-64.49 014.509 3.215 23.331 22.817-64.49 011.722 1.705 18.52 18.113-64.49 011.358 1.622 16.912 16.54-64.49 011.001 1.434 10.632 10.397-64.49 01.683 1.134l.414.73a1.138 1.113-64.49 00.164.246 1.068 1.045-64.49 00-.108-.275l-.365-.761a9.41 9.202-64.49 00-.642-1.17 15.748 15.401-64.49 00-.972-1.473 17.75 17.36-64.49 00-1.347-1.663 22.512 22.016-64.49 00-1.72-1.745 28.282 27.66-64.49 00-4.546-3.27 33.332 32.598-64.49 00-5.11-2.275c-.824-.246-1.598-.515-2.345-.675l-1.075-.259-1.006-.183c-.638-.13-1.225-.19-1.739-.252l-.715-.084-.605-.033-.838-.035a1.071 1.047-64.49 00-.295.007zM11.476 145.58a4.08 3.99-64.49 00.57.566l1.63 1.455c1.384 1.22 3.312 2.889 5.453 4.713s4.092 3.468 5.513 4.644l1.693 1.38a4.114 4.024-64.49 00.647.471 4.116 4.026-64.49 00-.57-.568l-1.629-1.454c-1.384-1.219-3.31-2.888-5.452-4.712s-4.089-3.465-5.51-4.64l-1.693-1.38a4.182 4.09-64.49 00-.652-.475zM9.32 156.365c-.027.083 4.172 1.42 9.375 2.988s9.443 2.77 9.47 2.69-4.173-1.42-9.377-2.989-9.444-2.772-9.469-2.689zM24.978 152.07a3.55 3.471-64.49 00.446-.614l1.142-1.72c.969-1.448 2.342-3.423 3.962-5.526s3.18-3.934 4.328-5.242l1.362-1.548a3.535 3.457-64.49 00.478-.59 3.545 3.467-64.49 00-.563.507c-.348.34-.84.846-1.435 1.483-1.19 1.274-2.78 3.088-4.41 5.2s-2.977 4.116-3.901 5.598a44.512 44.512 0 00-1.063 1.776 3.558 3.48-64.49 00-.346.676zM39.532 158.056a14.238 13.924-64.49 00.962 1.652c.614 1.005 1.445 2.403 2.304 3.984s1.581 3.04 2.09 4.103a14.228 13.914-64.49 00.865 1.707 10.3 10.074-64.49 00-.666-1.802c-.463-1.095-1.158-2.575-2.021-4.163s-1.729-2.972-2.388-3.95a10.3 10.074-64.49 00-1.146-1.53zM44.23 176.713c.02.042.833-.357 2.16-.958s3.182-1.388 5.274-2.127 4.025-1.287 5.43-1.65 2.283-.56 2.275-.607a2.532 2.476-64.49 00-.63.066c-.401.061-.985.172-1.692.327a48.002 46.945-64.49 00-10.747 3.792c-.656.328-1.18.607-1.534.813a2.486 2.431-64.49 00-.536.344zM39.9 199.017a.919.899-64.49 00.259.09l.757.199 2.795.657a94.064 91.992-64.49 019.127 2.454 41.413 40.501-64.49 018.484 4.077 31.425 31.425 0 012.328 1.664 8.363 8.18-64.49 00.839.636c.007-.008-.057-.077-.185-.199s-.317-.31-.58-.529a25.171 24.617-64.49 00-2.283-1.754 38.238 37.396-64.49 00-8.502-4.183 78.227 76.504-64.49 00-9.182-2.374l-2.819-.56a7.21 7.05-64.49 00-1.038-.178z" fill="#263238"/><path d="M25.53 204.515c.084.012.64-2.988 1.237-6.706s1.018-6.74.934-6.752-.64 2.988-1.237 6.706-1.022 6.739-.934 6.752zM10.76 199.04a15.757 15.41-64.49 001.367-1.614c.82-1.014 1.957-2.411 3.241-3.931s2.474-2.872 3.338-3.849a15.847 15.498-64.49 001.364-1.615 2.025 1.98-64.49 00-.433.37c-.264.25-.637.626-1.089 1.095-.906.94-2.122 2.274-3.411 3.797s-2.401 2.947-3.18 3.997c-.39.526-.697.955-.905 1.259a2.023 1.979-64.49 00-.292.49z" fill="#263238"/><path d="M49.856 213.022l-.127 7.45h-1.836l-6.885 20.899H26.53l-5.97-20.692-2.445-.207.127-7.45z" fill="#feab45"/><path d="M49.935 213.112l-.127 7.45h-1.836l-6.885 20.898H26.61l-5.97-20.692-2.445-.207.127-7.449z" opacity=".3"/><path d="M19.336 220.679c-.002.085 6.39.156 14.274.156s14.279-.07 14.28-.156-6.388-.156-14.274-.156-14.279.07-14.28.156zM9.741 172.763a5.824 5.696-64.49 00.924.254l2.53.622c2.132.537 5.06 1.355 8.232 2.44s5.981 2.243 7.993 3.126l2.377 1.063a5.893 5.764-64.49 00.884.367 5.745 5.619-64.49 00-.83-.476 53.535 53.535 0 00-2.337-1.154 85.034 83.161-64.49 00-16.263-5.578 53.898 53.898 0 00-2.558-.525 5.98 5.848-64.49 00-.952-.139z" fill="#263238"/><g><path d="M23.945 232.284c-.002.086 4.482.156 10.013.156s10.018-.07 10.02-.156-4.482-.155-10.014-.155-10.018.07-10.02.155z" fill="#fafafa"/></g><g><path d="M23.41 230.556c-.001.086 4.75.156 10.612.156s10.617-.07 10.618-.156-4.749-.155-10.613-.155-10.615.07-10.617.155z" fill="#fafafa"/></g></g><g><path d="M377.225 241.49c-.001.082-86.3.149-192.73.149-106.467 0-192.747-.067-192.745-.15s86.282-.15 192.75-.15c106.425 0 192.726.067 192.725.15z" fill="#263238"/></g><g><path d="M328.066 23.092h-151.71l-1.627 95.293h127.715l7.593 18.45 7.327-18.45h9.079z" fill="#fafafa"/><path d="M328.066 23.092c-.016.925-.583 36.725-1.513 95.296l-.002.114h-9.192l.11-.077c-2.292 5.783-4.765 12.017-7.317 18.453l-.114.29-.117-.285-7.598-18.448.12.081-115.497.016H174.58l.002-.15c.58-33.963 1.139-66.193 1.64-95.295l.002-.136h.134l151.708.136-151.712.137.136-.137c-.496 29.102-1.038 61.334-1.613 95.296l-.145-.15h12.219l115.499.021h.086l.033.08 7.585 18.454-.232.005 7.333-18.448.03-.077h9.159l-.115.115 1.737-95.29z" fill="#263238"/><path d="M327.829 32.39c-.002.116-33.899.211-75.702.211s-75.703-.095-75.701-.21 33.891-.21 75.708-.21 75.697.094 75.695.21zM184.333 28.182a1.266 1.238-64.49 11-1.222-1.261 1.266 1.238-64.49 011.222 1.26zM188.833 28.182a1.266 1.238-64.49 11-1.222-1.261 1.266 1.238-64.49 011.222 1.26zM193.332 28.182a1.266 1.238-64.49 11-1.221-1.261 1.266 1.238-64.49 011.221 1.26z" fill="#263238"/><g fill="#263238"><path d="M192.453 49.44l-3.626 1.414 3.579 1.41-.015.855-4.516-1.822.016-.884 4.577-1.823zM196.268 45.784h.884l-3.514 9.697h-.884zM201.921 50.408l-.015.884-4.58 1.822.015-.855 3.637-1.41-3.589-1.41.015-.854zM203.012 53.804a.691.676-64.49 01.7-.697.68.665-64.49 01.658.697.69.675-64.49 01-.682.711.7.685-64.49 01-.676-.711zM205.318 53.804a.69.675-64.49 01.7-.697.68.665-64.49 01.658.697.69.675-64.49 01-.683.711.7.685-64.49 01-.675-.711zM207.623 53.804a.691.676-64.49 01.7-.697.681.666-64.49 01.658.697.69.675-64.49 01-.683.711.7.685-64.49 01-.675-.711z"/></g><path d="M288.023 63.045c-.002.115-22.43.21-50.086.21s-50.09-.095-50.087-.21 22.425-.21 50.094-.21 50.08.094 50.079.21z" fill="#455a64"/><path d="M304.374 63.345a56.862 55.61-64.49 01-9.624 0 57.183 55.923-64.49 019.624 0zM318.444 63.345a67.828 66.335-64.49 01-10.515 0 68.21 66.708-64.49 0110.515 0z" fill="#263238"/><path d="M251.487 71.606c-.001.116-14.258.21-31.838.21s-31.835-.094-31.833-.21 14.255-.21 31.84-.21 31.833.094 31.831.21zM250.488 103.55c-.002.115-14.259.21-31.838.21s-31.836-.095-31.834-.21 14.255-.211 31.84-.211 31.834.095 31.832.21z" fill="#455a64"/><path d="M274.62 71.606c-.003.116-3.883.21-8.666.21s-8.66-.094-8.659-.21 3.88-.21 8.666-.21 8.66.094 8.658.21zM273.894 103.55c-.002.115-3.883.21-8.666.21s-8.662-.095-8.66-.21 3.882-.211 8.667-.211 8.66.095 8.659.21z" fill="#263238"/><path d="M191.92 75.962a11.435 11.183-64.49 01-4.295 0 11.434 11.182-64.49 014.295 0z" fill="#feab45"/><path d="M206.726 76.048a53.579 52.399-64.49 01-9.33 0 53.575 52.395-64.49 019.33 0zM216.202 76.048a39.387 38.52-64.49 01-7.995 0 39.384 38.517-64.49 017.995 0zM228.196 76.048a40.858 39.958-64.49 01-8.144 0 40.855 39.955-64.49 018.144 0zM238.71 76.048a33.784 33.04-64.49 01-7.404 0 33.782 33.038-64.49 017.404 0zM273.508 76.048c-.002.115-7.297.21-16.291.21s-16.288-.095-16.286-.21 7.295-.21 16.293-.21 16.286.098 16.284.21z" fill="#263238"/><path d="M191.233 81.519a8.525 8.338-64.49 01-3.702 0 8.524 8.337-64.49 013.702 0zM191.284 87.226a9.212 9.01-64.49 01-3.85 0 9.212 9.01-64.49 013.85 0zM191.173 93.683a9.212 9.01-64.49 01-3.85 0 9.212 9.01-64.49 013.85 0z" fill="#feab45"/><path d="M226.271 93.383c-.002.116-6.435.21-14.366.21s-14.362-.094-14.36-.21 6.433-.21 14.367-.21 14.361.094 14.36.21z" fill="#263238"/><g><path d="M223.856 87.226c-.002.116-6.136.21-13.7.21s-13.695-.094-13.693-.21 6.134-.21 13.701-.21 13.694.094 13.692.21z" fill="#263238"/></g><g><path d="M290.153 81.216c-.002.115-20.889.21-46.649.21s-46.643-.095-46.641-.21 20.884-.21 46.648-.21 46.644.096 46.642.21z" fill="#263238"/></g><g><path d="M336.723 62.067l-1.382 80.983-12.594 10.506h64.926l1.561-91.49z" fill="#fafafa"/><path d="M336.723 62.063s.307-.007.918-.012l2.716-.013 10.455-.028 38.424-.06h.111l-.002.113-1.525 91.49-.002.149h-9.253l-55.82-.01h-.378l.298-.246 12.599-10.5-.048.1c.44-24.212.81-44.47 1.067-58.683l.316-16.48.09-4.34.027-1.11c.004-.249.014-.37.014-.37s.003.132.001.385-.01.633-.012 1.125c-.017.996-.033 2.459-.059 4.366l-.247 16.51-.935 58.599v.061l-.048.04-12.597 10.51-.084-.245 55.821-.011h9.105l-.15.15 1.598-91.49.11.112-38.354-.06-10.479-.028-2.735-.013a53.16 53.16 0 01-.942-.011z" fill="#263238"/><g fill="#263238"><path d="M341.423 66.093a1.083 1.06-64.49 11-1.045-1.08 1.083 1.06-64.49 011.045 1.08zM345.273 66.093a1.084 1.06-64.49 11-1.046-1.08 1.084 1.06-64.49 011.046 1.08zM349.124 66.093a1.083 1.06-64.49 11-1.045-1.08 1.083 1.06-64.49 011.045 1.08z"/></g><path d="M374.305 91.045c-.001.1-6.66.174-14.87.174s-14.868-.078-14.867-.174 6.66-.173 14.873-.173 14.866.078 14.864.173zM380.382 98.37c-.002.1-8.105.173-18.097.173s-18.093-.077-18.091-.173 8.102-.173 18.097-.173 18.092.073 18.09.173zM381.387 125.7c-.001.099-8.644.172-19.295.172s-19.292-.077-19.29-.173 8.638-.172 19.296-.172 19.29.082 19.29.172zM347.17 102.098a10.206 9.982-64.49 01-3.674 0 10.174 9.95-64.49 013.675 0zM359.84 102.175a47.688 46.638-64.49 01-7.983 0 47.692 46.642-64.49 017.983 0zM367.948 102.175a35.057 34.285-64.49 01-6.842 0 35.06 34.288-64.49 016.842 0zM346.583 106.852a7.582 7.415-64.49 01-3.167 0 7.606 7.439-64.49 013.167 0zM346.626 111.735a8.193 8.013-64.49 01-3.295 0 8.22 8.04-64.49 013.295 0zM346.532 117.26a8.22 8.04-64.49 01-3.295 0 8.193 8.013-64.49 013.295 0zM376.566 117.005c-.002.1-5.502.173-12.294.173s-12.29-.077-12.289-.173 5.502-.173 12.295-.173 12.29.077 12.288.173zM374.504 111.735c-.002.1-5.25.174-11.723.174s-11.72-.078-11.718-.174 5.25-.172 11.724-.172 11.719.077 11.717.172zM348.662 133.002a8.193 8.013-64.49 01-3.294 0 8.193 8.013-64.49 013.294 0zM348.568 138.527a8.193 8.013-64.49 01-3.295 0 8.22 8.038-64.49 013.295 0zM378.602 138.27c-.002.1-5.502.173-12.294.173s-12.29-.077-12.289-.172 5.503-.174 12.295-.174 12.29.078 12.288.174zM376.538 133.002c-.002.1-5.25.173-11.723.173s-11.72-.078-11.718-.173 5.25-.173 11.724-.173 11.719.077 11.717.173zM383.305 106.595c-.002.1-7.146.173-15.953.173s-15.95-.077-15.95-.173 7.144-.172 15.955-.172 15.95.077 15.948.172z" fill="#feab45"/><path d="M388.6 70.32c-.002.1-11.534.174-25.754.174s-25.752-.077-25.75-.173 11.531-.173 25.756-.173 25.75.078 25.748.173z" fill="#263238"/><path d="M355.509 86.627a88.475 86.527-64.49 01-10.878 0 88.475 86.527-64.49 0110.878 0zM349.522 76.635a19.752 19.317-64.49 01-5.13 0 19.818 19.382-64.49 015.13 0z" fill="#feab45"/></g></g><g><path d="M302.061 194.565l11.597-11.434-19.731-35.317a19.99 19.55-64.49 00-7.706-5.507l-7.122-2.76-17.745-3.312-12.726 5.048a7.7 7.53-64.49 00-4.873 8.036l2.825 28.228 1.32 36.752 46.068-8.077-4.39-13.596.519-21.195z" fill="#feab45"/><path d="M290.018 191.725c.107 0 .261-7.343.342-16.398s.06-16.397-.047-16.397-.26 7.342-.342 16.4-.06 16.396.047 16.395z" fill="#263238"/><path d="M288.245 197.113l-27.559-11.331a6.458 6.316-64.49 01-3.86-5.478l-1.57-26.992s.435-11.478-6.623-12.035l-4.049 1.606c-5.244 2.799-6.66 10.473-6.057 16.398.861 8.42 1.077 20.334 2.082 27.64a15.707 15.36-64.49 009.845 12.775l34.052 7.505z" fill="#feab45"/><path d="M255.583 157.438a3.931 3.845-64.49 01.076.617l.149 1.778.477 6.545.658 9.709.184 2.807a21.245 20.777-64.49 00.306 2.888 4.812 4.706-64.49 001.331 2.529 9.534 9.324-64.49 002.534 1.615c7.594 3.359 14.6 6.132 19.686 8.077l6.04 2.27 1.641.618a3.9 3.814-64.49 01.565.24 3.964 3.877-64.49 01-.586-.168l-1.667-.552a255.611 255.611 0 01-6.084-2.16 340.568 340.568 0 01-19.752-7.983 9.868 9.651-64.49 01-2.632-1.687 5.185 5.071-64.49 01-1.433-2.717 21.24 20.772-64.49 01-.304-2.94l-.172-2.808c-.216-3.65-.413-6.94-.578-9.718l-.357-6.555-.078-1.784a3.874 3.789-64.49 01-.004-.621zM239.432 172.106a1.385 1.355-64.49 01.048.362l.074 1.042c.066.962.158 2.256.264 3.83.124 1.614.285 3.537.526 5.661a54.308 53.112-64.49 001.136 6.837 10.25 10.025-64.49 001.3 3.259 18.8 18.387-64.49 002.028 2.583 18.064 17.666-64.49 004.383 3.38 17 16.626-64.49 004.847 1.618 1.325 1.296-64.49 01-.36-.009 7.7 7.53-64.49 01-1.025-.134 13.825 13.52-64.49 01-3.585-1.238 17.724 17.334-64.49 01-4.507-3.374 18.69 18.28-64.49 01-2.087-2.62 10.524 10.292-64.49 01-1.353-3.366 51.116 49.99-64.49 01-1.117-6.891 119.884 119.884 0 01-.594-9.527l-.003-1.046a1.317 1.288-64.49 01.025-.367z" fill="#263238"/><path d="M250.977 190.989a4.153 4.062-64.49 01.53-1.5 9.725 9.511-64.49 015.714-4.88 4.145 4.054-64.49 011.545-.272c.01.062-.575.18-1.463.523a10.99 10.748-64.49 00-5.566 4.75c-.486.835-.7 1.4-.76 1.379z" fill="#263238"/><path d="M280.323 193.895c-2.938-1.7-5.819-3.006-8.897-4.437s-6.086-3.266-8.07-6.042c-3.74-5.235-3.175-12.791-7.008-17.957l.59 10.422c.18 3.187-.354 6.333 1.63 8.497 1.673 1.822 4.97 3.22 7.309 4.006 4.7 1.582 9.748 3.93 14.446 5.511M290.285 160.918l2.145 15.018-2.2-4.253z" opacity=".3"/><path d="M254.844 151.652a2.74 2.68-64.49 01-.643.05l-1.752.046c-1.474.036-3.519.113-5.77.275s-4.283.385-5.753.561l-1.742.208a2.775 2.714-64.49 01-.644.044 2.787 2.726-64.49 01.63-.158c.406-.084 1-.188 1.732-.299 1.468-.231 3.505-.485 5.763-.65s4.307-.205 5.787-.189c.74.007 1.34.025 1.752.05a2.753 2.693-64.49 01.64.062zM255.388 166.024c.004.083-3.641.455-8.138.832s-8.153.615-8.16.534 3.641-.455 8.138-.832 8.154-.615 8.16-.534zM256.467 181.135a2.923 2.859-64.49 01-.58.333c-.382.2-.946.464-1.655.764a34.68 33.916-64.49 01-11.623 2.63c-.763.031-1.376.035-1.805.018a2.921 2.857-64.49 01-.66-.054 2.937 2.872-64.49 01.66-.063 52.866 52.866 0 001.796-.113 41.292 40.383-64.49 0011.56-2.614 56.076 56.076 0 001.68-.674 2.9 2.836-64.49 01.627-.227zM266.203 188.883a11.29 11.042-64.49 00-4.757 5.245 2.776 2.715-64.49 01.323-1.028 8.242 8.06-64.49 013.45-3.803 2.785 2.724-64.49 01.984-.414zM276.07 198.832a11.06 10.817-64.49 013.059-5.49c.067.057-.824 1.154-1.662 2.67s-1.313 2.847-1.397 2.82zM261.202 143.199a55.675 54.449-64.49 01-7.927 1.448 55.914 54.682-64.49 017.927-1.448zM287.748 144.425a103.405 101.128-64.49 01-10.827-1.306 102.977 100.71-64.49 0110.827 1.306zM289.804 156.959a1.59 1.554-64.49 01-.348.023l-.997.008h-3.661c-3.091 0-7.366.023-12.081.145s-8.988.32-12.078.483l-3.66.2-.995.043a1.584 1.55-64.49 01-.349 0 1.55 1.516-64.49 01.345-.055l.992-.1c.863-.081 2.113-.18 3.657-.29 3.09-.217 7.362-.447 12.089-.57s8.995-.115 12.086-.059c1.545.028 2.796.063 3.66.1l.994.048a1.575 1.54-64.49 01.346.024zM289.858 172.83c.004.084-7.286.636-16.28 1.237s-16.293 1.02-16.297.937 7.285-.635 16.282-1.236 16.291-1.022 16.295-.937zM288.845 186.81a2.957 2.892-64.49 01-.617.266c-.403.153-.988.358-1.723.597-1.461.482-3.502 1.087-5.781 1.64s-4.367.952-5.882 1.196c-.758.12-1.373.207-1.799.255a2.936 2.871-64.49 01-.665.046 3 2.934-64.49 01.65-.16l1.781-.35c1.504-.293 3.577-.721 5.85-1.273s4.315-1.124 5.789-1.553l1.747-.508a2.953 2.888-64.49 01.65-.156zM300.925 161.465a104.723 102.417-64.49 01-10.694 2.788 104.428 102.128-64.49 0110.694-2.788zM295.553 150.737a20.028 19.587-64.49 01-4.753.864 20.118 19.675-64.49 014.753-.864z" fill="#455a64"/><path d="M255.726 154.067c-.058.01-.128-.954-.621-2.397a12.132 11.864-64.49 00-8.282-7.67c-1.467-.368-2.419-.353-2.414-.412a2.557 2.5-64.49 01.665-.025 10.4 10.171-64.49 011.8.232 11.74 11.481-64.49 018.428 7.803 10.364 10.136-64.49 01.389 1.793 2.562 2.506-64.49 01.035.676z" fill="#263238"/><g><path d="M288.92 146.413a95.698 93.59-64.49 011.483 10.548 95.753 93.644-64.49 01-1.484-10.548z" fill="#263238"/></g><g><path d="M318.405 231.04s21.229 5.988 22.079 6.293c1.277.459.98 5.234-1.018 5.16-.945-.036-16.395.582-18.343.458s-7.793-2.476-7.793-2.476z" fill="#feab45"/><path d="M327.15 239.294a9.516 9.307-64.49 012.522-4.315 4.828 4.722-64.49 00-2.522 4.315z" fill="#263238"/><path d="M324.942 238.272c.105.018.338-1.004.925-2.134s1.271-1.922 1.196-1.992a5.45 5.33-64.49 00-2.12 4.13z" fill="#263238"/><path d="M322.867 237.705a7.627 7.46-64.49 011.734-4.308 4.077 3.987-64.49 00-1.734 4.308z" fill="#263238"/><path d="M323.293 234.91a3.857 3.772-64.49 00.256-1.609 7.611 7.444-64.49 00-.486-2.769 1.211 1.184-64.49 00-.333-.53.579.566-64.49 00-.733.037.961.94-64.49 00-.294.612 4.27 4.175-64.49 00-.037.571 4.821 4.715-64.49 00.113 1.06 6.426 6.285-64.49 00.63 1.652 4.393 4.296-64.49 00.934 1.303c.05-.035-.299-.539-.71-1.421a7.122 6.965-64.49 01-.532-1.609 4.806 4.7-64.49 01-.082-.988c.016-.332.018-.748.212-.907a.211.206-64.49 01.283-.024.922.902-64.49 01.228.378 7.973 7.798-64.49 01.307.955 8.718 8.526-64.49 01.253 1.693c.04.978-.067 1.588-.01 1.597z" fill="#263238"/><path d="M323.27 234.69a3.031 2.964-64.49 00-1.37-.225 6.305 6.166-64.49 00-1.518.189 3.377 3.303-64.49 00-.877.325.916.896-64.49 00-.499.99 1.085 1.061-64.49 00.755.771 1.993 1.95-64.49 00.956 0 3.73 3.648-64.49 001.398-.691 3.833 3.749-64.49 001.008-.99 9.47 9.26-64.49 00-1.15.78 3.861 3.776-64.49 01-1.317.574 1.714 1.676-64.49 01-.791-.011.736.72-64.49 01-.51-.515.559.547-64.49 01.326-.604 3.317 3.244-64.49 01.779-.306 7.284 7.124-64.49 011.442-.254c.836-.061 1.358.025 1.368-.033zM330.421 239.526a11.6 11.345-64.49 01.454-1.951 11.72 11.462-64.49 011.073-1.693 3.115 3.047-64.49 00-1.526 3.645zM315.522 240.523a4.507 4.408-64.49 00.819.398 18.539 18.13-64.49 002.36.746 34.446 33.687-64.49 008.131.783c3.197-.036 6.08-.183 8.17-.268l2.475-.132a4.566 4.466-64.49 00.906-.1 4.5 4.401-64.49 00-.908-.043l-2.476.018-8.163.163a38.878 38.022-64.49 01-8.075-.67c-2.031-.428-3.214-.96-3.24-.895z" fill="#263238"/><path d="M314.884 241.018c.027.05.618-.299 1.61-.734a7.566 7.4-64.49 014.048-.68 6.511 6.368-64.49 013.453 2.103 12.84 12.558-64.49 001.208 1.274 6.688 6.541-64.49 00-1.019-1.447 8.615 8.426-64.49 00-1.392-1.342 5.161 5.048-64.49 00-2.187-.948 7.184 7.026-64.49 00-4.213.806 5.768 5.641-64.49 00-1.508.968z" fill="#263238"/></g><g><path d="M293.242 226.017s-20.412 13.406-21.145 13.96c-1.101.832.078 4.799 1.973 4.113.896-.325 17.915-5.104 19.749-5.823s6.806-4.773 6.806-4.773z" fill="#feab45"/><path d="M287.07 236.62a4.828 4.722-64.49 00-3.567-3.356 9.518 9.309-64.49 013.567 3.357zM288.911 234.96a5.448 5.328-64.49 00-3.134-3.303c-.053.093.823.632 1.678 1.542s1.361 1.81 1.456 1.76zM290.75 233.778a4.08 3.99-64.49 00-2.812-3.593 7.63 7.461-64.49 012.811 3.593z" fill="#263238"/><path d="M289.595 231.231c.054-.027-.213-.58-.431-1.532a8.735 8.543-64.49 01-.208-1.694 7.943 7.768-64.49 01.04-1.009.913.893-64.49 01.115-.432.211.206-64.49 01.278-.065c.229.094.342.491.445.805a4.78 4.675-64.49 01.18.974 7.123 6.966-64.49 01-.08 1.705c-.158.971-.358 1.562-.302 1.58a4.384 4.288-64.49 00.55-1.536 6.453 6.311-64.49 00.16-1.778 4.756 4.651-64.49 00-.178-1.048 4.132 4.041-64.49 00-.187-.536.958.937-64.49 00-.445-.498.58.567-64.49 00-.713.19 1.212 1.185-64.49 00-.176.611 7.46 7.295-64.49 00-.018 1.054 7.615 7.448-64.49 00.293 1.747 3.851 3.766-64.49 00.677 1.462z" fill="#263238"/><path d="M289.557 231.013c.026.053.502-.19 1.319-.391a7.33 7.169-64.49 011.449-.2 3.315 3.242-64.49 01.827.054.561.549-64.49 01.475.478.736.72-64.49 01-.351.65 1.708 1.67-64.49 01-.755.254 3.846 3.761-64.49 01-1.417-.145 9.487 9.279-64.49 00-1.309-.393 3.822 3.738-64.49 001.23.637 3.751 3.669-64.49 001.524.233 1.991 1.947-64.49 00.917-.293 1.085 1.061-64.49 00.517-.972.916.896-64.49 00-.741-.797 3.392 3.317-64.49 00-.927-.042 6.311 6.172-64.49 00-1.504.287 3.046 2.98-64.49 00-1.254.64zM276.655 243.34c.023.033.344-.206.505-.796a3.036 2.97-64.49 00-.34-2.221 8.164 7.985-64.49 00-.66-1.022 3.788 3.705-64.49 00-.674-.746 1.22 1.192-64.49 00-.64-.274c-.17-.007-.257.035-.254.056a1.953 1.91-64.49 01.727.414 4.63 4.528-64.49 01.57.746 11.762 11.503-64.49 01.613.996 3.181 3.111-64.49 01.41 1.992c-.079.541-.303.82-.257.856zM283.992 237.847a3.117 3.049-64.49 00-2.436-3.021 5.866 5.737-64.49 012.436 3.02z" fill="#263238"/><path d="M298.537 234.216a7.293 7.133-64.49 00-.895.618 25.75 25.183-64.49 01-2.514 1.547 33.348 32.613-64.49 01-3.984 1.785c-1.54.578-3.26 1.123-5.084 1.656a876.255 876.255 0 00-9.338 2.754l-2.82.873a6.3 6.162-64.49 00-1.02.368 6.314 6.175-64.49 001.056-.232l2.849-.763a757.83 757.83 0 009.366-2.653c1.826-.533 3.554-1.095 5.101-1.693a30.271 29.605-64.49 003.99-1.872 20.155 19.711-64.49 002.478-1.658 5.617 5.494-64.49 00.815-.73z" fill="#263238"/><path d="M299.28 234.492a5.752 5.626-64.49 00-1.702-.46 7.183 7.025-64.49 00-4.252.525 5.153 5.04-64.49 00-1.842 1.582 8.608 8.419-64.49 00-.975 1.713 6.72 6.571-64.49 00-.591 1.7 12.684 12.404-64.49 00.813-1.593 6.51 6.367-64.49 012.747-3.08 7.566 7.4-64.49 014.06-.597c1.071.117 1.729.266 1.742.21z" fill="#263238"/></g><g><path d="M335.773 192.495a9.844 9.628-64.49 015.934 9.08c-.177 13.19-26.752 27.731-26.752 27.731l-34.633-23.544-2.18-.897s47.598-18.023 57.631-12.37z" fill="#263238"/><path d="M297.863 217.655a6.6 6.455-64.49 00.923-.628c.582-.422 1.411-1.048 2.427-1.834 2.033-1.573 4.8-3.802 7.78-6.358s5.606-4.957 7.472-6.73a108.98 108.98 0 002.188-2.125 6.687 6.54-64.49 00.763-.82 6.587 6.442-64.49 00-.857.718l-2.262 2.04c-1.907 1.723-4.556 4.089-7.532 6.643s-5.714 4.81-7.705 6.432l-2.358 1.924a6.64 6.493-64.49 00-.84.738z" fill="#455a64"/><path d="M325.803 197.426a8.84 8.646-64.49 00-6.41 1.91c.057.094 1.348-.732 3.125-1.252 1.77-.537 3.284-.547 3.285-.658z" fill="#455a64"/><path d="M322.821 195.346a5.424 5.305-64.49 00-3.236 3.978c.098.036.504-1.071 1.405-2.166s1.886-1.718 1.831-1.812z" fill="#455a64"/><path d="M336.938 237.115c.02-.042-.415-.127-.907.278a3.336 3.263-64.49 00-1.047 2.062 4.07 3.98-64.49 00.28 2.274c.24.54.508.797.539.768.048-.034-.138-.334-.303-.862a4.63 4.527-64.49 01-.16-2.128 3.58 3.501-64.49 01.86-1.923c.38-.397.75-.41.738-.47z" fill="#263238"/></g><g><path d="M333.592 173.758l-10.432 27.233a3.941 3.854-64.49 01-3.722 2.559l-54.852-.734.072-4.228 20.346.754 9.105-27.182a2.228 2.179-64.49 012.115-1.538l35.39.1a2.228 2.179-64.49 011.978 3.036z" fill="#e0e0e0"/><path d="M333.592 173.76s.006-.03.025-.086a2.3 2.25-64.49 00.073-.254 2.191 2.143-64.49 00-.004-1.022 2.231 2.182-64.49 00-.941-1.316 2.174 2.126-64.49 00-.991-.32c-.378-.018-.786-.005-1.219-.009l-14.765-.017-10.344-.02-5.812-.013-3.054-.007a2.445 2.391-64.49 00-1.466.326 2.17 2.122-64.49 00-.929 1.211l-9.08 27.136-.02.063h-.066l-20.346-.752.093-.09-.072 4.228-.086-.09 34.494.469 14.993.21 3.456.047 1.681.024a4.083 3.993-64.49 001.6-.236 3.868 3.783-64.49 002.235-2.148l1.121-2.902 6.885-17.897 1.876-4.85c.432-1.116.664-1.686.664-1.686s-.212.587-.632 1.693l-1.846 4.863-6.834 17.916-1.117 2.91a4 3.912-64.49 01-2.308 2.224 4.223 4.13-64.49 01-1.648.247l-1.681-.02-3.456-.044-14.994-.193-34.494-.453h-.087l.001-.089c.02-1.095.04-2.283.06-3.474l.014-.847h.092l20.345.757-.085.06c3.278-9.77 6.344-18.91 9.105-27.128a2.323 2.272-64.49 01.994-1.295 2.6 2.543-64.49 011.545-.347l3.053.011 5.813.022 10.343.042 14.763.069c.432.005.838 0 1.222.015a2.218 2.17-64.49 011.01.334 2.257 2.207-64.49 01.947 1.347 2.158 2.11-64.49 01-.01 1.034 2.308 2.257-64.49 01-.116.346z" fill="#263238"/><path d="M309.086 184.055a2.511 2.456-64.49 012.662.289 2.2 2.152-64.49 01.48 2.396 2.38 2.328-64.49 01-2.027 1.42 2.145 2.098-64.49 01-2.094-1.419 2.408 2.355-64.49 01.978-2.69" fill="#fff"/></g><g><path d="M320.835 230.79s-48.897-32.124-51.058-33.384c-1.839-1.071-6.754-4.174-11.675-2.804s-9.389 5.826-11.7 12.335c-1.317 3.719-2.018 10.065-2.378 14.823a22.082 21.596-64.49 004.807 15.68 14.086 13.775-64.49 006.1 4.446c.512.163 1.044.298 1.592.424a23.71 23.188-64.49 0024.412-10.32l1.185-1.784s32.176 12.066 32.685 11.896z" fill="#263238"/><path d="M272.298 199.19a.544.532-64.49 01-.122-.074l-.342-.24c-.298-.212-.74-.526-1.32-.908a26.578 25.993-64.49 00-5.205-2.706 14.36 14.044-64.49 00-3.941-.846 11.584 11.328-64.49 00-4.562.753 14.96 14.631-64.49 00-4.417 2.69 20.488 20.037-64.49 00-1.975 1.929 14.433 14.115-64.49 00-1.645 2.316 23.85 23.324-64.49 00-2.221 5.167c-.495 1.749-.898 3.478-1.281 5.11a46.871 45.84-64.49 00-1.289 8.799 32.002 31.297-64.49 00.348 5.964c.097.697.211 1.236.278 1.6l.074.418a.533.521-64.49 01.015.144.5.489-64.49 01-.045-.137l-.102-.41c-.092-.362-.22-.897-.333-1.594a30.03 29.368-64.49 01-.443-5.988 45.73 44.722-64.49 011.232-8.853c.378-1.644.77-3.358 1.266-5.134a23.907 23.38-64.49 012.244-5.235 14.63 14.309-64.49 011.68-2.364 20.577 20.124-64.49 012.008-1.96 15.147 14.813-64.49 014.51-2.724 11.78 11.521-64.49 014.669-.743 14.424 14.106-64.49 013.998.897 25.27 24.714-64.49 015.201 2.805c.574.399 1.004.73 1.292.957l.324.263c.073.062.108.095.104.104z" fill="#455a64"/><path d="M259.749 221.725s.09.046.27.121l.804.326 3.122 1.226 11.586 4.456c4.922 1.874 10.818 4.103 17.434 6.562s13.95 5.149 21.784 7.855l.142.05.072-.137 3.996-7.49 2.036-3.82.08-.148-.137-.087-37.344-24.312-11.217-7.255-3.047-1.95-.796-.499c-.18-.11-.277-.159-.277-.159s.084.07.258.19l.777.527 3.01 2.006 11.156 7.35 37.28 24.403-.057-.236-2.037 3.82-3.993 7.492.214-.088c-7.83-2.699-15.166-5.378-21.79-7.815l-17.46-6.486-11.625-4.353-3.14-1.166-.816-.299c-.187-.06-.285-.084-.285-.084z" fill="#455a64"/></g><g><path d="M264.127 115.158a25.972 25.4-64.49 01-2.106-5.332 8.72 8.528-64.49 01.392-5.677c.478-1.028 1.216-1.929 1.596-2.996.522-1.47.35-3.203 1.267-4.462 1.435-1.968 4.427-1.51 6.61-2.54 1.702-.803 2.911-2.534 4.696-3.112a7.045 6.89-64.49 014.728.63 18.2 17.8-64.49 004.543 1.693 32.702 31.981-64.49 003.48.009 4.67 4.566-64.49 013.191 1.123 2.244 2.195-64.49 01.05 3.143c2.038-.349 3.915 1.707 3.853 3.796a5.705 5.58-64.49 01-3.533 4.796 12.5 12.225-64.49 01-6.08.764c-5.805-.459-11.608-2.7-15.493-7.044" fill="#feab45"/><path d="M265.506 107.78l-4.46 29.196a8.8 8.607-64.49 007.64 9.929 8.806 8.612-64.49 009.448-7.553c.332-2.198.615-4.03.661-4.255 0 0 7.418.324 9.07-6.959.798-3.518 1.861-10.893 2.748-17.575a13.926 13.619-64.49 00-10.647-15.207l-.692-.14c-7.555-1.074-12.787 4.852-13.768 12.563z" fill="#ffbe9d"/><path d="M278.833 134.995a17.382 17-64.49 01-8.772-4.607s1.081 5.704 8.385 6.502z" fill="#eb996e"/><path d="M287.281 116.77a1.067 1.044-64.49 01-1.212.85 1.021.999-64.49 01-.855-1.154 1.07 1.046-64.49 011.211-.852 1.022 1-64.49 01.856 1.156zM288.308 113.833c-.156.11-.807-.633-1.91-.854s-2.031.176-2.12.014c-.047-.073.135-.292.543-.482a2.935 2.87-64.49 011.734-.18 2.816 2.754-64.49 011.484.85c.282.334.345.604.269.652zM276.996 114.963a1.067 1.044-64.49 01-1.212.85 1.02.998-64.49 01-.855-1.153 1.068 1.045-64.49 011.212-.852 1.021.999-64.49 01.855 1.155zM277.428 111.839c-.156.11-.808-.633-1.91-.854-1.098-.237-2.031.176-2.122.014-.046-.072.135-.292.545-.48a2.93 2.865-64.49 011.733-.18 2.814 2.752-64.49 011.484.85c.282.332.345.602.27.65zM279.647 120.973a7.6 7.433-64.49 011.865.036c.288.028.567.025.656-.161a1.49 1.456-64.49 00-.005-.888q-.178-1.12-.366-2.35a38.438 37.591-64.49 01-.648-6.087 38.43 37.584-64.49 011.13 6.011q.176 1.233.329 2.357a1.7 1.663-64.49 01-.095 1.154.736.72-64.49 01-.552.325 1.966 1.923-64.49 01-.49-.03 7.46 7.296-64.49 01-1.824-.367z" fill="#263238"/><g><path d="M276.238 121.092c.18.026-.078 1.244.761 2.316s2.14 1.196 2.115 1.37c-.001.08-.335.18-.877.086a3.1 3.032-64.49 01-1.78-1.075 2.705 2.646-64.49 01-.562-1.927c.064-.522.259-.796.343-.77z" fill="#263238"/></g><g><path d="M278.654 107.5c-.174.283-1.244-.085-2.57-.189-1.325-.131-2.45.042-2.564-.267-.049-.146.194-.398.679-.605a4.566 4.466-64.49 013.911.347c.434.291.622.58.544.714z" fill="#feab45"/></g><g><path d="M288.598 110.504c-.249.215-.952-.199-1.859-.398-.903-.231-1.722-.172-1.844-.475-.05-.145.126-.376.515-.548a2.816 2.754-64.49 012.985.706c.265.325.315.609.203.715z" fill="#feab45"/></g><g><path d="M264.935 113.304c-.11-.079-4.611-2.49-5.523 2.538s4.239 4.827 4.269 4.681 1.254-7.219 1.254-7.219z" fill="#ffbe9d"/><path d="M262.518 118.367c-.02-.02-.1.046-.255.09a.893.873-64.49 01-.646-.1 2.2 2.152-64.49 01-.632-2.11 2.942 2.877-64.49 01.468-1.212 1.031 1.008-64.49 01.77-.562.454.444-64.49 01.464.326c.041.151-.009.247.016.26s.12-.066.118-.28a.565.553-64.49 00-.137-.348.671.656-64.49 00-.452-.209 1.252 1.224-64.49 00-1.04.627 3.02 2.954-64.49 00-.552 1.35 2.313 2.262-64.49 00.86 2.382.954.933-64.49 00.812 0c.175-.093.221-.2.206-.214z" fill="#eb996e"/></g><g><path d="M292.159 103.782c-.882 1.857-5.264 2.574-8.45 1.594-2.938-.905-3.978-2.806-5.827-4.462-1.171-1.05-1.171-1.05-3.107-1.252-1.568-.164-2.85 1.419-4.055 2.473.592 3.992-1.225 7.944-2.993 11.603a2.031 1.986-64.49 01-.818 1.035c-.678.336-1.47-.2-1.86-.837a6.31 6.171-64.49 01-.635-3.524 21.036 20.573-64.49 011.78-8.087 14.31 13.996-64.49 015.285-6.288 13.558 13.26-64.49 019.878-1.654 16.653 16.286-64.49 018.547 5.256 9.748 9.534-64.49 012.256 4.143" fill="#feab45"/></g><g><path d="M281.876 115.926c.042 0 .035-.433.245-1.167a4.866 4.76-64.49 011.797-2.582 4.744 4.64-64.49 014.393-.639 4.646 4.544-64.49 012.104 1.633 4.671 4.568-64.49 01-.095 5.51 4.648 4.546-64.49 01-2.16 1.635 4.747 4.643-64.49 01-4.373-.64 4.871 4.764-64.49 01-1.709-2.581c-.184-.734-.163-1.17-.205-1.168a.918.898-64.49 00-.03.313 3.765 3.682-64.49 00.083.897 4.858 4.751-64.49 001.685 2.771 5.025 4.915-64.49 007.02-.987 5.036 4.925-64.49 00.102-5.976 5.025 4.915-64.49 00-6.985-.987 4.863 4.756-64.49 00-1.78 2.772 3.764 3.681-64.49 00-.114.897.915.895-64.49 00.022.3z" fill="#263238"/><path d="M270.165 113.846c.042 0 .035-.433.245-1.168a4.867 4.76-64.49 011.797-2.581 4.744 4.64-64.49 014.393-.64 4.648 4.546-64.49 012.103 1.634 4.671 4.568-64.49 01-.094 5.51 4.65 4.547-64.49 01-2.16 1.634 4.744 4.64-64.49 01-4.371-.64 4.867 4.76-64.49 01-1.71-2.582c-.183-.734-.162-1.17-.204-1.167a.921.9-64.49 00-.03.313 3.77 3.686-64.49 00.083.896 4.86 4.753-64.49 001.685 2.772 5.026 4.916-64.49 007.02-.987 5.036 4.925-64.49 00.101-5.981 5.025 4.915-64.49 00-6.984-.986 4.855 4.748-64.49 00-1.78 2.772 3.746 3.664-64.49 00-.113.896.921.9-64.49 00.019.305z" fill="#263238"/><path d="M279.839 114.014c.048.1.683-.2 1.411.031s1.083.822 1.181.765c.047-.022.028-.213-.134-.466a1.793 1.754-64.49 00-2.08-.639c-.279.118-.404.264-.378.31zM263.53 112.559a31.712 31.013-64.49 007.051-.1 31.708 31.01-64.49 00-7.05.1z" fill="#263238"/></g><g><path d="M294.556 98.99a1.433 1.402-64.49 01-.085.479 2.364 2.312-64.49 01-.76 1.08 3.34 3.266-64.49 01-1.795.74 9.13 8.928-64.49 01-2.36-.124 41.267 40.358-64.49 01-4.187-.86c-.53-.141-.953-.265-1.245-.356l-.335-.109a.505.494-64.49 01-.114-.046.494.483-64.49 01.12.023l.342.087 1.253.317a47.49 47.49 0 004.186.824 9.283 9.079-64.49 002.33.135 3.306 3.233-64.49 001.752-.698 2.4 2.347-64.49 00.77-1.03c.103-.29.11-.465.128-.463z" fill="#fff"/></g><g><path d="M295.63 100.129a4.611 4.51-64.49 01-.447 1.374 5.9 5.77-64.49 01-5.643 3.387 4.606 4.505-64.49 01-1.388-.272 3.122 3.053-64.49 01.372.072 6.34 6.2-64.49 001.022.114 5.987 5.855-64.49 005.563-3.338 6.367 6.227-64.49 00.401-.97 3.116 3.048-64.49 01.12-.367z" fill="#fff"/></g></g></g></svg>