<svg xmlns="http://www.w3.org/2000/svg" viewBox="0 0 500 500"><path fill="#f5f5f5" d="M393.58 376.64v20.74h63.8v-20.74z"/><path fill="#ebebeb" d="M390.9 370.84v5.8h68.71v-5.8h-35.7z"/><path fill="#e0e0e0" d="M425.25 397.38h32.13v-20.74h2.23v-5.8h-35.7v5.26zM402.5 379.98h12.94v3.12H402.5zM400.83 387.01h16.61v6.59h-16.61z"/><path d="M471.38 447.3l-1.52-322.91h-6.25v63.59h-16.15l-.3-63.59h-6.25v63.59h-55.56l-.3-63.59h-6.25v63.59h-16.1l-.3-63.59h-6.25V447.3h7.78l-.21-43.34h15.08v43.34h7.77l-.2-43.34h54.54v43.34h7.78l-.2-43.34h15.13v43.34h7.76zm-100.53-86.12l-5.59-23.93h11.47l-5.88 23.93zm7.95-22.47v56.54l-6.77-29 6.77-27.54zm0-82.18l-6.77-29 6.77-27.54v56.54zm-1.21 5.19h-13.96l7.16-29.13 6.8 29.13zm-6.74-39.26l-6.4-27.41h13.13l-6.73 27.41zm-1.24 5.06l-6.6 26.84-.26-56.24 6.86 29.4zm-6.19 112.18l6.19 26.54-5.95 24.23-.24-50.77zm7.37 31.61l5.98 25.6H364.5l6.29-25.6zm-7.17-41.12l-.05-.22-.2.04-.29-61.24h15.72v61.41h-15.18zm22.11-61.41h55.17v61.41h-54.89l-.28-61.41zm69.43-36.19l6.8 29.13H448l7.16-29.13zm-7.4 20.21l-.25-52.97 6.46 27.69-6.21 25.28zm15.85 5.6l-7.2-30.87 7.2-29.32v60.19zm0 3.22v.1h-.44l.44-.1zm0 78.77v53.09l-6.36-27.23 6.36-25.86zm-7.54 20.79l-5.59-23.93h11.47l-5.88 23.93zm-.85-138.72l-6.4-27.41h13.13l-6.73 27.41zm8.39 46.32v61.41h-14.77l-.05-.22-.65.15-.29-61.34h15.76zm-8.78 97.46l-6.4 26.06-.26-54.6 6.66 28.54zm1.18 5.07l5.98 25.6h-12.27l6.29-25.6zm-15.1-176.27v66.67H385.7l-.32-66.67h55.53zm-53.57 201.87h-1l-.28-59.67h54.85v59.67h-53.57z" fill="#ebebeb"/><path fill="#e0e0e0" d="M387.33 262.04v-7.29h51.47l.16 7.29z"/><path d="M438.83 255.94s-45.65.34-48.61 1.03c-.64.15-1.28 2.95 0 3.21 1.28.26 48.61.64 48.61.64v-4.88z" fill="#fff"/><path fill="#ebebeb" d="M393.31 254.46v-7.28h40.77l.13 7.28z"/><path d="M434.1 248.37s-36.16.34-38.5 1.03c-.5.15-1.02 2.95 0 3.21 1.02.26 38.5.64 38.5.64v-4.88z" fill="#fff"/><path fill="#e0e0e0" d="M393.13 247.26v-7.28h40.77l.13 7.28z"/><path d="M433.92 241.17s-36.16.33-38.5 1.03c-.5.15-1.02 2.95 0 3.21 1.02.26 38.5.64 38.5.64v-4.88z" fill="#fff"/><g><path fill="#e0e0e0" d="M430.58 139.74h10.33v48.13h-10.33z"/><path d="M438 176.32c0 1.13-.92 2.05-2.05 2.05s-2.04-.92-2.04-2.05.91-2.05 2.04-2.05 2.05.92 2.05 2.05zM434.28 152.49h3.16v19.67h-3.16z" fill="#fff"/></g><g><path fill="#ebebeb" d="M420.09 139.74h10.33v48.13h-10.33z"/><circle cx="425.46" cy="176.32" r="2.05" fill="#fff"/><path fill="#fff" d="M423.79 152.49h3.16v19.67h-3.16z"/></g><g><path fill="#f5f5f5" d="M410.1 139.74h10.33v48.13H410.1z"/><path d="M417.52 176.32c0 1.13-.92 2.05-2.05 2.05s-2.05-.92-2.05-2.05.92-2.05 2.05-2.05 2.05.92 2.05 2.05zM413.8 152.49h3.16v19.67h-3.16z" fill="#fff"/></g><g><path fill="#e0e0e0" d="M430.58 282.18h10.33v48.13h-10.33z"/><path d="M438 318.77c0 1.13-.92 2.05-2.05 2.05s-2.04-.92-2.04-2.05.91-2.05 2.04-2.05 2.05.92 2.05 2.05zM434.28 294.94h3.16v19.67h-3.16z" fill="#fff"/></g><g><path fill="#ebebeb" d="M420.09 282.18h10.33v48.13h-10.33z"/><path d="M427.51 318.77c0 1.13-.92 2.05-2.05 2.05s-2.05-.92-2.05-2.05.92-2.05 2.05-2.05 2.05.92 2.05 2.05zM423.79 294.94h3.16v19.67h-3.16z" fill="#fff"/></g><g><path fill="#f5f5f5" d="M410.1 282.18h10.33v48.13H410.1z"/><path d="M417.52 318.77c0 1.13-.92 2.05-2.05 2.05s-2.05-.92-2.05-2.05.92-2.05 2.05-2.05 2.05.92 2.05 2.05zM413.8 294.94h3.16v19.67h-3.16z" fill="#fff"/></g><path fill="#e0e0e0" d="M397.33 187.13l12.41-42.34-4.28-1.87-12.73 42.68z"/><g><path fill="#ebebeb" d="M104.83 189.59H55.29v64.59l49.54 1.24z"/><path fill="#fff" d="M101.57 191.89H58.23v58.58l43.34 1.46z"/><path fill="#ebebeb" d="M93.98 202.53l-28.76-1.09v40.94h28.76z"/><path fill="#f5f5f5" d="M65.22 242.38l28.76-21.03-28.76-19.91z"/></g><g><path d="M146.43 437.82c-1.18-1.01-3.83-4.21-1.79-7.94.75-1.37 2.33-2.04 3.77-2.64 1.44-.6 2.94-1.13 4.13-2.13 2.24-1.9 2.86-5.05 4.35-7.58 1.71-2.91 4.89-5.08 8.26-4.93 3.85.17 7.07 3.31 8.53 6.88 1.46 3.57 1.51 7.54 1.54 11.4.02 2.13-.08 4.54-1.65 5.98-1.45 1.33-3.64 1.34-5.6 1.29-7.02-.21-14.04-.43-21.07-.64" fill="#f5f5f5"/><path d="M183.33 387.8h-50.37l9.07 53.86c.4 2.35 2.11 4.17 4.3 4.79.06.02.12.03.18.05.15.04.29.09.45.12.33.07.68.1 1.02.12 0 .02.01.04.01.05l.25-.04h22.45c.42 0 .83-.04 1.23-.12a6.07 6.07 0 005.1-5.26l4.37-37.11.2-1.48h-.02l1.73-14.7.03-.28zm-9.5 34.35h-5.17l.52-15.63h5.99l-1.34 15.63zm1.84-15.63h4.95l-1.84 15.63h-4.45l1.34-15.63zm-14.76 32.96l-.31-13.58h7.44l-.45 13.58h-6.68zm-8.05-13.58h7.23l.31 13.58h-6.49l-1.05-13.58zm.56 13.58h-6.06c-.58-3.67-1.33-8.43-2.14-13.58h7.14l1.06 13.58zm-.85-17.33l-1.22-15.63h8.3l.36 15.63h-7.44zm7.94 0l-.36-15.63h8.54l-.52 15.63h-7.66zm-.45-19.38l-.33-14.47h9.57l-.48 14.47h-8.76zm-.5 0h-8.5l-1.13-14.47h9.3l.33 14.47zm-9.01 0h-9c-.32-2-.62-3.89-.89-5.59-.94-5.85-1.29-8.05-1.49-8.88h10.25l1.13 14.47zm.29 3.75l1.22 15.63h-7.44c-.25-1.59-.5-3.19-.76-4.8-.58-3.69-1.17-7.38-1.72-10.83h8.7zm-6.72 15.63h-4.86l-2.63-15.63h5.02c.76 4.83 1.61 10.21 2.47 15.63zm.59 3.75l2.14 13.58h-4.67l-2.29-13.58h4.82zm23.37 13.58l.45-13.58h4.97l-1.17 13.58h-4.25zm1.23-36.71l.48-14.47h6.95l-1.24 14.47h-6.19zM138.7 388.3c.2 1.05 1.12 6.74 2.35 14.47h-5.06l-2.44-14.47h5.15zm38.04 51.18h-3.89l1.17-13.58h4.33l-1.61 13.58zm4.32-36.71H176l1.24-14.47h5.53l-1.71 14.47z" fill="#ebebeb"/></g><g><path d="M35.7 360.06c.89.15 1.88.38 3.01.49 1.12.15 2.35.3 3.68.36 1.32.12 2.74.1 4.23.12 2.98-.07 6.26-.35 9.65-.99 3.38-.67 6.52-1.63 9.32-2.68 1.38-.57 2.7-1.08 3.89-1.69 1.21-.55 2.29-1.15 3.28-1.7 1-.52 1.85-1.1 2.61-1.57.77-.46 1.41-.91 1.92-1.28.39-.28.7-.49.96-.66h-45.7v8.92c.26.06.55.12.9.21.61.15 1.37.33 2.25.47zM63.01 443.33c-3.71-.04-7.05.47-9.74 1.26-2.37.71-4.23 1.6-5.55 2.38h37.4c-3.19-.64-6.56-1.43-10.11-2.16-4.22-.86-8.28-1.46-12-1.48z" fill="#f5f5f5"/><path d="M109.04 437.22c-4.24-.67-9.37-.16-15.04.36-2.84.26-5.85.39-8.97.25-3.11-.13-6.31-.47-9.58-.87-6.52-.82-12.74-1.65-18.41-1.4-5.67.18-10.67 1.56-14.59 3.26a41.232 41.232 0 00-8.75 5.12c-.44.33-.81.63-1.15.9v2.13h14.69c1.3-.89 3.29-1.97 5.91-2.8 2.72-.86 6.1-1.42 9.87-1.42 3.77-.01 7.88.58 12.12 1.44 4.24.86 8.23 1.86 11.89 2.56.42.08.82.14 1.23.22h29.77v-6.44c-1.95-1.35-5.01-2.74-8.99-3.31z" fill="#f5f5f5"/><path d="M42.27 438.41c3.94-1.77 9.01-3.21 14.75-3.43 5.74-.28 12 .54 18.51 1.35 3.26.4 6.44.74 9.53.88 3.08.15 6.06.03 8.89-.21 5.65-.49 10.84-.96 15.15-.22 3.94.62 6.98 2.03 8.92 3.42v-11.29c-2.02-.59-4.59-1.05-7.61-1.06-8.5-.29-19.79 4.34-32.93 4.02a78.66 78.66 0 01-18.19-2.21c-5.5-1.32-10.22-3.21-14.32-4.28-4.08-1.14-7.52-1.49-9.88-1.37-1.09.05-1.93.15-2.54.24v20.34c.3-.26.62-.54 1-.84 1.87-1.53 4.75-3.58 8.72-5.34zM35.84 386.49c2.28.2 5.41 1.33 9.07 2.98 1.84.82 3.86 1.67 6.11 2.35 2.26.65 4.73 1.13 7.37 1.37 5.27.5 11.13.02 17.16-1.06 6.03-1.07 11.7-2.58 16.91-3.7 5.21-1.15 9.96-1.93 13.99-2.22 4.03-.29 7.32-.12 9.56.16.81.09 1.48.2 2.01.3v-15.05c-.27-.21-.56-.45-.89-.71-1.35-1.06-3.27-2.65-5.88-4.25-2.59-1.57-5.98-3.23-10.01-3.33-4.03-.13-8.31 1.44-12.49 3.48a101.87 101.87 0 00-11.48 6.49c-1.66 1.12-3.43 2.12-4.13 3.69-.34.76-.21 1.61.3 2.2.5.59 1.21.97 1.89 1.3 2.75 1.33 5.24 1.72 6.93 1.85 1.71.12 2.66.02 2.66.08 0 .02-.23.06-.69.11-.45.04-1.12.08-1.99.06-1.72-.06-4.27-.38-7.11-1.7-.7-.33-1.47-.7-2.08-1.39-.63-.67-.82-1.8-.41-2.71.81-1.83 2.66-2.83 4.29-3.98 3.39-2.26 7.28-4.53 11.52-6.58 4.21-2.06 8.6-3.66 12.78-3.5 4.19.14 7.64 1.9 10.23 3.53 2.61 1.67 4.5 3.32 5.8 4.45.27.24.51.45.73.65v-12.47a35.85 35.85 0 00-4.78-2.19c-4.13-1.53-9.41-2.53-15.23-2.06-2.9.25-5.91.91-8.86 2.06-2.96 1.12-5.82 2.79-8.76 4.47-2.94 1.69-5.85 3.33-8.89 4.44-3.05 1.08-6.15 1.6-9.1 1.78-5.91.34-11.19-.25-15.62-.32-4.43-.13-8.01.2-10.43.7-.6.13-1.15.23-1.61.35-.44.13-.83.24-1.16.34-.63.18-.96.26-.97.24-.01-.02.31-.14.93-.36.33-.11.71-.25 1.15-.4.46-.14 1-.25 1.61-.41 2.43-.58 6.04-.98 10.49-.91 4.45.01 9.74.56 15.57.19 2.91-.19 5.94-.72 8.92-1.78 2.98-1.09 5.86-2.71 8.79-4.4 2.94-1.68 5.83-3.36 8.85-4.5 3.01-1.16 6.08-1.83 9.04-2.06 5.92-.45 11.27.61 15.43 2.22 1.75.67 3.28 1.42 4.63 2.19v-8h-39.5c-.25.21-.6.5-1.06.86-.49.4-1.11.88-1.87 1.37-.75.5-1.59 1.11-2.58 1.66-.98.58-2.06 1.21-3.27 1.79-1.18.63-2.52 1.17-3.9 1.76-2.81 1.09-5.99 2.08-9.41 2.75-3.43.64-6.74.91-9.76.95-1.51-.03-2.94-.03-4.28-.18-1.34-.08-2.58-.26-3.7-.44-1.13-.14-2.13-.4-3.02-.58-.89-.17-1.64-.39-2.25-.58-.32-.09-.6-.18-.84-.25v19.17c.67-.23 1.55-.49 2.62-.75 2.56-.64 6.2-1.2 10.24-1.16 4.04.05 7.66.7 10.21 1.39 1.27.35 2.29.68 2.98.95.69.27 1.06.43 1.05.47-.03.1-1.58-.42-4.13-.99a49.36 49.36 0 00-10.11-1.2c-3.99-.04-7.58.44-10.14.96-1.12.23-2.03.44-2.72.61V386.56c.44-.11 1.56-.27 3.29-.07zm52.5-11.74c.12-.28.31-.5.52-.67.41-.35.88-.59 1.38-.74 3.77-1.14 7.56-1.46 10.95-1.19 3.39.26 6.39 1.04 8.77 1.99 2.39.94 4.2 1.98 5.38 2.79.61.38 1.03.75 1.33.97.3.23.44.36.43.38-.08.14-2.53-1.96-7.3-3.72-2.37-.88-5.32-1.6-8.65-1.83-3.33-.23-7.03.1-10.72 1.22-.42.13-.84.34-1.15.62-.32.28-.49.61-.37.91.23.63 1.36.69 2.21.89 1.79.37 3.52.72 5.18 1.06 3.27.68 6.24 1.3 8.76 1.83 2.42.53 4.41.96 5.9 1.29.63.15 1.16.28 1.6.38.36.09.55.15.55.17 0 .02-.2 0-.57-.05-.44-.07-.98-.16-1.62-.27-1.5-.28-3.5-.64-5.94-1.09-2.53-.49-5.5-1.06-8.79-1.69-1.66-.33-3.39-.67-5.19-1.02-.46-.1-.89-.16-1.38-.29-.46-.13-1.07-.37-1.3-1-.12-.31-.11-.67.02-.94zm-37.85 7.38c1.18.6 2.87 1.53 5.09 2.34 4.39 1.68 10.98 3.09 18.16 2.11 7.21-.84 12.95-4.5 17.67-5.53 2.33-.58 4.3-.68 5.64-.56.67.05 1.18.15 1.53.22.34.08.52.14.52.16-.01.06-.73-.11-2.06-.14-1.32-.04-3.24.12-5.52.75-2.29.6-4.88 1.72-7.79 2.94-2.9 1.23-6.26 2.33-9.9 2.78-7.31 1-14-.51-18.4-2.32-2.23-.88-3.91-1.87-5.06-2.55-1.11-.74-1.71-1.17-1.69-1.21.02-.02.66.34 1.81 1.01z" fill="#f5f5f5"/><path d="M45.09 424.94c4.14 1.03 8.88 2.88 14.34 4.15a79.979 79.979 0 0018.06 2.14c13 .33 24.27-4.22 32.93-3.84 3.02.05 5.58.55 7.6 1.19v-12.1c-.77.09-1.61.19-2.55.31-3.63.36-8.64 1.07-14.25 1.19-2.8.04-5.48-.13-7.88-.56-2.4-.42-4.51-1.07-6.21-1.79-1.7-.71-2.98-1.5-3.82-2.08-.42-.29-.74-.54-.94-.72-.21-.17-.31-.27-.29-.29.07-.11 1.84 1.36 5.22 2.68 1.69.66 3.77 1.25 6.13 1.64 2.36.39 5.01.54 7.78.5 5.55-.12 10.57-.76 14.21-1.01.95-.07 1.81-.13 2.59-.19v-29.34c-.54-.07-1.22-.15-2.04-.21-2.23-.2-5.49-.31-9.49.04-4 .34-8.72 1.17-13.91 2.35-5.19 1.15-10.85 2.68-16.92 3.75-6.06 1.09-11.98 1.56-17.32 1.02-2.67-.26-5.18-.76-7.46-1.45-2.28-.71-4.32-1.6-6.14-2.45-3.64-1.71-6.69-2.87-8.92-3.15-1.69-.25-2.81-.15-3.25-.13v20.77c.15-.18.32-.37.51-.55 1.65-1.67 4.75-3.2 8.73-4.24 4-1.07 8.92-1.46 14.28-2.16 5.37-.69 11.12-2.28 17.11-4.09 5.99-1.8 11.76-3.48 17.17-4.28 5.39-.83 10.32-.96 14.43-.77 4.12.2 7.42.69 9.68 1.13 1.13.22 2 .41 2.59.56.59.14.89.23.89.25 0 .02-.32-.02-.92-.13-.59-.11-1.47-.26-2.6-.44-2.26-.36-5.56-.78-9.65-.92-4.09-.13-8.98.04-14.32.9-5.35.82-11.08 2.51-17.08 4.31-5.99 1.8-11.8 3.39-17.22 4.06-5.4.67-10.28 1.01-14.25 2.01-3.96.97-7.03 2.42-8.67 3.99-.27.25-.48.49-.68.72v8.72c.09.05.2.1.31.16.57.3 1.32.7 2.26 1.2 1.99.98 4.86 2.44 8.57 3.83 7.37 2.85 18.15 5.67 30.28 5.56 12.16.14 22.71-3.61 30.67-4.34 3.97-.45 7.23-.28 9.43.08.54.1 1.03.19 1.46.26.4.1.75.2 1.05.27.57.15.86.25.85.27-.01.02-.31-.03-.88-.14-.31-.06-.66-.13-1.06-.21-.43-.06-.92-.13-1.46-.2-2.2-.28-5.42-.38-9.35.12-3.94.46-8.54 1.53-13.69 2.63-5.14 1.13-10.94 1.88-17.03 1.9-12.22.11-23.08-2.8-30.45-5.77-3.71-1.46-6.57-2.98-8.53-4.03-.92-.54-1.65-.98-2.21-1.31-.09-.06-.17-.11-.25-.16v7.55c.61-.13 1.44-.26 2.53-.35 2.4-.18 5.9.1 10.03 1.19zm24.19-19.57c-3.79 1.84-6.96 3.97-9.55 5.79-.61.47-1.1 1.06-1.05 1.7.02.64.56 1.1 1.1 1.35 1.12.53 2.23.28 3.12.2.89-.1 1.62-.06 2.08.09.46.15.65.33.65.33-.01.03-.23-.1-.68-.21-.45-.1-1.14-.1-2.02.03-.85.11-2.03.42-3.29-.12-.59-.25-1.29-.78-1.35-1.64-.08-.86.55-1.58 1.17-2.07 2.6-1.91 5.75-4.08 9.57-5.97 3.8-1.9 8.17-3.61 12.92-4.83 9.52-2.49 18.56-2.46 24.9-1.56 1.59.24 3.03.43 4.27.73 1.24.27 2.32.48 3.18.76.81.24 1.46.43 1.98.59.45.14.68.22.68.25-.01.02-.25-.02-.71-.12-.52-.12-1.19-.28-2-.47-.86-.24-1.94-.41-3.19-.65-1.24-.27-2.67-.43-4.25-.64-6.31-.78-15.26-.73-24.69 1.73-4.73 1.2-9.06 2.87-12.84 4.73zm9.24 8.14c-.34.02-.84.04-1.48-.07-.63-.1-1.48-.44-1.97-1.31-.24-.42-.37-1-.15-1.55s.68-.93 1.1-1.29c1.73-1.51 4.04-3.03 6.85-4.19 2.8-1.16 6.09-1.95 9.58-2.2 7.03-.49 13.27 1.24 17.53 2.75 2.15.77 3.84 1.5 4.99 2.04.58.26 1.02.49 1.32.64.3.16.45.25.44.27-.02.04-.67-.22-1.85-.68-1.18-.46-2.89-1.13-5.04-1.84-4.27-1.39-10.45-3.03-17.34-2.54-3.42.25-6.65 1-9.4 2.11-2.76 1.1-5.05 2.55-6.78 3.99-.44.35-.84.7-1.02 1.11-.18.41-.1.87.09 1.23.39.76 1.12 1.1 1.71 1.24 1.22.25 1.95.17 1.94.24 0 0-.18.03-.52.05z" fill="#f5f5f5"/><path d="M35.8 386.73c2.23.27 5.28 1.44 8.92 3.15 1.83.84 3.86 1.73 6.14 2.45 2.29.68 4.8 1.18 7.46 1.45 5.34.54 11.26.06 17.32-1.02 6.07-1.08 11.73-2.6 16.92-3.75 5.19-1.17 9.91-2 13.91-2.35 4-.35 7.26-.24 9.49-.04.82.07 1.5.15 2.04.21v-.16c-.53-.1-1.2-.21-2.01-.3-2.24-.28-5.52-.45-9.56-.16-4.03.29-8.79 1.08-13.99 2.22-5.21 1.12-10.87 2.63-16.91 3.7-6.03 1.08-11.89 1.57-17.16 1.06-2.63-.24-5.11-.72-7.37-1.37-2.25-.68-4.27-1.54-6.11-2.35-3.67-1.66-6.79-2.78-9.07-2.98-1.72-.2-2.84-.03-3.29.05v.06c.46-.02 1.58-.12 3.27.13zM35.63 360.4c.89.18 1.89.44 3.02.58 1.13.18 2.36.36 3.7.44 1.33.15 2.77.15 4.28.18 3.02-.04 6.33-.3 9.76-.95 3.42-.68 6.6-1.67 9.41-2.75 1.39-.59 2.72-1.13 3.9-1.76 1.21-.57 2.29-1.2 3.27-1.79 1-.55 1.83-1.16 2.58-1.66.76-.49 1.38-.97 1.87-1.37.46-.36.8-.64 1.06-.86h-.24c-.26.17-.56.38-.96.66-.51.37-1.15.81-1.92 1.28s-1.61 1.05-2.61 1.57c-.98.55-2.07 1.15-3.28 1.7-1.18.61-2.51 1.12-3.89 1.69-2.79 1.05-5.94 2-9.32 2.68-3.39.64-6.66.92-9.65.99-1.49-.02-2.91 0-4.23-.12-1.33-.06-2.56-.21-3.68-.36-1.13-.11-2.12-.33-3.01-.49-.89-.14-1.64-.32-2.26-.47l-.9-.21v.19c.24.08.52.16.84.25.62.19 1.37.41 2.26.58zM97.96 354.06c-2.95.24-6.02.9-9.04 2.06-3.02 1.14-5.91 2.82-8.85 4.5-2.93 1.69-5.81 3.32-8.79 4.4-2.98 1.06-6.01 1.58-8.92 1.78-5.83.37-11.12-.17-15.57-.19-4.45-.07-8.07.33-10.49.91-.6.15-1.15.27-1.61.41-.44.15-.82.28-1.15.4-.62.22-.94.34-.93.36.01.02.34-.06.97-.24.33-.1.72-.21 1.16-.34.46-.12 1-.21 1.61-.35 2.42-.5 6-.83 10.43-.7 4.43.07 9.71.66 15.62.32 2.95-.18 6.05-.7 9.1-1.78 3.04-1.1 5.96-2.75 8.89-4.44 2.94-1.69 5.8-3.35 8.76-4.47 2.95-1.15 5.96-1.81 8.86-2.06 5.82-.47 11.1.53 15.23 2.06 1.81.67 3.39 1.43 4.78 2.19v-.42c-1.35-.76-2.88-1.51-4.63-2.19-4.16-1.59-9.51-2.66-15.43-2.21zM111.49 366.26c-2.59-1.63-6.04-3.39-10.23-3.53-4.18-.17-8.57 1.44-12.78 3.5a94.429 94.429 0 00-11.52 6.58c-1.64 1.14-3.48 2.14-4.29 3.98-.41.9-.22 2.03.41 2.71.61.69 1.38 1.06 2.08 1.39 2.84 1.31 5.39 1.63 7.11 1.7.87.03 1.54-.02 1.99-.06.45-.05.69-.09.69-.11 0-.06-.96.04-2.66-.08-1.69-.13-4.19-.52-6.93-1.85-.68-.33-1.39-.71-1.89-1.3-.51-.58-.65-1.44-.3-2.2.7-1.57 2.47-2.57 4.13-3.69 3.39-2.22 7.26-4.46 11.48-6.49 4.18-2.04 8.46-3.62 12.49-3.48 4.03.1 7.42 1.76 10.01 3.33 2.61 1.6 4.53 3.2 5.88 4.25.33.26.62.5.89.71v-.25c-.22-.2-.46-.41-.73-.65-1.33-1.13-3.22-2.79-5.83-4.46z" fill="#ebebeb"/><path d="M89.61 376.67c.49.12.92.19 1.38.29 1.8.35 3.53.7 5.19 1.02 3.28.63 6.25 1.21 8.79 1.69 2.43.45 4.44.81 5.94 1.09.64.11 1.18.19 1.62.27.37.05.57.07.57.05 0-.02-.18-.08-.55-.17-.44-.1-.96-.23-1.6-.38-1.49-.33-3.48-.76-5.9-1.29-2.53-.53-5.49-1.14-8.76-1.83-1.65-.34-3.38-.69-5.18-1.06-.85-.2-1.98-.26-2.21-.89-.12-.3.05-.63.37-.91.32-.27.73-.48 1.15-.62 3.68-1.12 7.39-1.45 10.72-1.22 3.33.22 6.28.94 8.65 1.83 4.76 1.76 7.22 3.86 7.3 3.72.01-.02-.14-.15-.43-.38-.3-.22-.72-.59-1.33-.97-1.18-.81-2.99-1.84-5.38-2.79-2.38-.95-5.38-1.73-8.77-1.99-3.39-.27-7.18.05-10.95 1.19-.5.16-.97.39-1.38.74-.2.18-.39.39-.52.67s-.14.64-.03.92c.24.65.86.89 1.31 1.02zM45.4 377.46c3.98.05 7.56.62 10.11 1.2s4.09 1.09 4.13.99c.01-.04-.36-.21-1.05-.47-.69-.27-1.7-.6-2.98-.95-2.54-.7-6.17-1.34-10.21-1.39-4.04-.04-7.68.52-10.24 1.16-1.07.27-1.95.52-2.62.75v.29c.69-.17 1.6-.38 2.72-.61a48.94 48.94 0 0110.14-.97zM41.9 403.01c3.97-1.01 8.85-1.34 14.25-2.01 5.42-.66 11.22-2.25 17.22-4.06 6-1.81 11.73-3.49 17.08-4.31a75.26 75.26 0 0114.32-.9c4.09.15 7.39.57 9.65.92 1.13.18 2.01.33 2.6.44.6.1.91.15.92.13 0-.02-.3-.11-.89-.25-.59-.15-1.46-.34-2.59-.56-2.26-.43-5.56-.92-9.68-1.13-4.11-.18-9.04-.06-14.43.77-5.4.8-11.17 2.48-17.17 4.28-5.99 1.8-11.74 3.4-17.11 4.09-5.36.7-10.28 1.08-14.28 2.16-3.99 1.04-7.09 2.57-8.73 4.24-.19.19-.35.37-.51.55v.34c.2-.23.41-.47.68-.72 1.64-1.56 4.71-3.01 8.67-3.98zM50.36 382.34c1.15.67 2.82 1.67 5.06 2.55 4.4 1.81 11.09 3.32 18.4 2.32 3.64-.45 7-1.56 9.9-2.78 2.91-1.21 5.5-2.33 7.79-2.94 2.28-.63 4.2-.79 5.52-.75 1.32.03 2.04.2 2.06.14 0-.02-.17-.08-.52-.16-.34-.08-.86-.17-1.53-.22-1.34-.12-3.31-.02-5.64.56-4.72 1.03-10.45 4.68-17.67 5.53-7.18.98-13.76-.43-18.16-2.11-2.23-.81-3.91-1.74-5.09-2.34-1.14-.67-1.79-1.03-1.81-1-.02.03.58.46 1.69 1.2zM106.78 398.9c1.58.21 3.01.37 4.25.64 1.24.24 2.32.41 3.19.65.82.19 1.48.35 2 .47.46.1.71.14.71.12.01-.02-.23-.1-.68-.25-.52-.15-1.17-.35-1.98-.59-.86-.28-1.93-.48-3.18-.76-1.24-.3-2.68-.5-4.27-.73-6.34-.9-15.38-.93-24.9 1.56A66.788 66.788 0 0069 404.84c-3.82 1.89-6.97 4.06-9.57 5.97-.62.5-1.25 1.22-1.17 2.07.06.86.77 1.39 1.35 1.64 1.26.55 2.44.23 3.29.12.88-.14 1.57-.14 2.02-.03.45.1.67.23.68.21 0 0-.19-.18-.65-.33-.46-.15-1.18-.19-2.08-.09-.89.08-2 .33-3.12-.2-.54-.24-1.08-.71-1.1-1.35-.05-.64.44-1.23 1.05-1.7 2.59-1.83 5.76-3.96 9.55-5.79 3.78-1.85 8.12-3.53 12.82-4.74 9.45-2.46 18.4-2.5 24.71-1.72z" fill="#ebebeb"/><path d="M75.38 411.97c-.19-.37-.27-.83-.09-1.23.18-.41.58-.76 1.02-1.11 1.73-1.44 4.02-2.88 6.78-3.99 2.76-1.11 5.98-1.86 9.4-2.11 6.89-.49 13.07 1.15 17.34 2.54 2.15.71 3.86 1.38 5.04 1.84 1.18.46 1.83.72 1.85.68.01-.02-.14-.11-.44-.27-.3-.15-.74-.38-1.32-.64-1.15-.53-2.85-1.27-4.99-2.04-4.26-1.51-10.5-3.25-17.53-2.75-3.49.25-6.77 1.04-9.58 2.2-2.81 1.16-5.12 2.68-6.85 4.19-.43.36-.88.75-1.1 1.29-.22.55-.09 1.14.15 1.55.49.87 1.35 1.21 1.97 1.31.65.11 1.15.08 1.48.07.34-.02.51-.05.51-.07.01-.07-.72.01-1.94-.24-.58-.12-1.31-.46-1.7-1.22zM35 418.02c1.96 1.05 4.81 2.58 8.53 4.03 7.36 2.98 18.22 5.89 30.45 5.77a81.86 81.86 0 0017.03-1.9c5.15-1.1 9.75-2.17 13.69-2.63 3.93-.5 7.15-.41 9.35-.12.54.08 1.02.14 1.46.2.4.08.75.15 1.06.21.57.11.88.16.88.14.01-.02-.29-.11-.85-.27-.3-.08-.65-.17-1.05-.27-.43-.08-.92-.17-1.46-.26-2.2-.36-5.46-.53-9.43-.08-7.96.73-18.51 4.49-30.67 4.34-12.13.11-22.91-2.7-30.28-5.56-3.72-1.39-6.58-2.85-8.57-3.83-.94-.5-1.69-.9-2.26-1.2-.12-.06-.22-.11-.31-.16v.12c.08.05.16.1.25.16.54.33 1.27.76 2.18 1.31z" fill="#ebebeb"/><path d="M101.22 417.36c-2.77.04-5.41-.11-7.78-.5-2.36-.38-4.45-.98-6.13-1.64-3.39-1.32-5.15-2.79-5.22-2.68-.01.02.09.12.29.29.2.18.52.43.94.72.84.58 2.12 1.37 3.82 2.08 1.7.72 3.81 1.37 6.21 1.79 2.4.43 5.08.6 7.88.56 5.61-.12 10.61-.83 14.25-1.19.93-.11 1.78-.21 2.55-.31v-.33c-.78.06-1.64.12-2.59.19-3.65.26-8.67.91-14.22 1.02zM44.97 425.38c4.1 1.08 8.82 2.97 14.32 4.28a79.207 79.207 0 0018.19 2.21c13.14.32 24.43-4.31 32.93-4.02 3.02.01 5.59.47 7.61 1.06v-.32c-2.02-.64-4.59-1.13-7.6-1.19-8.66-.38-19.93 4.17-32.93 3.84-6.47-.02-12.61-.86-18.06-2.14-5.46-1.27-10.19-3.12-14.34-4.15-4.13-1.09-7.63-1.38-10.01-1.18-1.08.08-1.92.22-2.53.35v.14c.61-.09 1.46-.19 2.54-.24 2.36-.13 5.8.22 9.88 1.36zM42.45 438.81c3.93-1.7 8.92-3.08 14.59-3.26 5.67-.25 11.89.58 18.41 1.4 3.26.4 6.47.74 9.58.87 3.11.15 6.13.01 8.97-.25 5.67-.53 10.79-1.03 15.04-.36 3.99.57 7.04 1.96 8.98 3.3v-.32c-1.94-1.39-4.98-2.81-8.92-3.42-4.31-.73-9.5-.27-15.15.22-2.83.24-5.81.36-8.89.21-3.08-.14-6.27-.48-9.53-.88-6.51-.82-12.78-1.64-18.51-1.35a39.84 39.84 0 00-14.75 3.43 38.865 38.865 0 00-8.72 5.33c-.38.3-.7.58-1 .84v.25c.34-.27.72-.57 1.15-.9 1.91-1.43 4.8-3.41 8.75-5.11z" fill="#ebebeb"/><path d="M75.14 444.19c-4.24-.86-8.35-1.45-12.12-1.44-3.77-.01-7.16.55-9.87 1.42-2.62.84-4.6 1.91-5.91 2.8h.49c1.32-.78 3.18-1.67 5.55-2.38 2.69-.79 6.03-1.3 9.74-1.26 3.72.03 7.78.63 12 1.48 3.55.72 6.93 1.52 10.11 2.16h3.13c-.41-.07-.81-.14-1.23-.22-3.67-.7-7.66-1.7-11.89-2.56z" fill="#ebebeb"/><g><path fill="#e0e0e0" d="M32.55 381.33H94.4v1.21H32.55zM32.55 413.17h61.86v1.21H32.55z"/><path fill="#e0e0e0" d="M57.45 381.94h13.06v2.77H57.45zM57.45 350.46h13.06v2.77H57.45zM57.45 413.61h13.06v2.77H57.45z"/><path fill="#ebebeb" d="M94.4 350.46h23.62v96.55H94.4z"/><g><path fill="#ebebeb" d="M32.55 310.71h8.34v39.75h-8.34zM45.13 314.76h5.82v35.71h-5.82z"/><path fill="#e0e0e0" d="M40.89 314.76h4.24v35.71h-4.24z"/><path fill="#f5f5f5" d="M50.94 318.86h4.3v31.61h-4.3z"/><path fill="#ebebeb" d="M55.24 308.03h9.1v42.43h-9.1z"/></g><g><path d="M70.77 331.72l-.86 3.58.86 1.29v2.15l-.86 2 .86.72v5.01l-.86.57.86.72v2.72h45.93v-3.29l-.86-1.57.86-7.15-.72-3.43s-.72-1.43-.72-1.86c0-.43.14-1.43.14-1.43H70.77z" fill="#ebebeb"/><path fill="#e0e0e0" d="M94.4 350.46l-1.1-5.18 1.1-2.14v-2.05l-1.1-1.07 1.1-1.64v-6.66h21.01l-.15 1.43.72 1.86.72 3.44-.86 7.15.86 1.57v3.29z" opacity=".24"/></g></g></g><g><path d="M481.3 447.04c0 .14-102.73.26-229.42.26-126.74 0-229.44-.12-229.44-.26s102.71-.26 229.44-.26c126.7 0 229.42.12 229.42.26z" fill="#263238"/></g><g><path fill="#fff" d="M129.383 155.821l34.03-.14.176 42.97-34.03.14z"/><path d="M129.56 198.78s.23-.02.64-.03c.44-.01 1.05-.02 1.83-.03 1.62-.02 3.95-.05 6.91-.08 5.95-.05 14.43-.12 24.65-.21l-.21.22c-.06-12.28-.14-27.06-.22-42.96l.26.26h-2.29c-.76 0-1.52.01-2.28.01-1.51.01-3.01.01-4.5.02l-8.75.03c-5.71.02-11.14.03-16.21.05l.23-.23c0 12.72.01 23.42.01 30.98-.01 3.76-.02 6.74-.03 8.81-.01 1-.01 1.79-.02 2.35 0 .25-.01.45-.01.61 0 .13-.01.2-.01.2s-.01-.06-.01-.19c0-.15-.01-.34-.02-.58-.01-.55-.02-1.32-.04-2.3-.02-2.06-.06-5.02-.1-8.76-.06-7.6-.14-18.35-.24-31.13v-.23h.23c5.07-.03 10.51-.06 16.21-.09 2.85-.01 5.77-.03 8.75-.04 1.49-.01 2.99-.01 4.5-.02.76 0 1.52-.01 2.28-.01H163.41c-.23-.23.32.32.27.26.05 15.9.09 30.68.13 42.96v.22h-.22c-10.27 0-18.8-.01-24.78-.01-2.94-.01-5.25-.02-6.86-.03-.76-.01-1.36-.01-1.79-.02-.41-.01-.6-.03-.6-.03z" fill="#263238"/><path fill="#263238" d="M144.429 197.76l4.72-.018.004 1.15-4.72.019z"/><path fill="#f5a046" d="M141.52 170.802l10.32-.042.062 14.91-10.32.042z"/><path opacity=".5" fill="#fff" d="M141.52 170.802l10.32-.042.062 14.91-10.32.042z"/><path fill="#263238" d="M144.92 155.17l4.72-.018.003.98-4.72.019z"/><circle cx="238.23" cy="129.68" r="22.84" fill="#f5a046"/><path d="M248.72 130.38c0 .07-1.14.13-3.03.17-1.88.05-4.51.08-7.47.09h-.26v-.26-1.48c0-3.31.03-6.3.08-8.47.05-2.17.11-3.51.18-3.51.07 0 .14 1.34.18 3.51.05 2.17.08 5.16.08 8.47v1.48l-.26-.26c2.96.01 5.59.04 7.47.09 1.89.04 3.03.1 3.03.17zM238.3 110.59c.14 0 .26.86.26 1.92s-.12 1.92-.26 1.92-.26-.86-.26-1.92.11-1.92.26-1.92zM248.7 113.67c.1.1-.41.78-1.15 1.52s-1.42 1.25-1.52 1.15c-.1-.1.41-.78 1.15-1.52.74-.73 1.42-1.25 1.52-1.15zM254.79 120.32c.06.13-.63.61-1.52 1.15-.88.54-1.63.93-1.72.82-.08-.11.54-.71 1.45-1.26.91-.56 1.73-.84 1.79-.71zM258.35 130.18c0 .14-1.17.26-2.62.26-1.45 0-2.62-.12-2.62-.26s1.17-.26 2.62-.26c1.45 0 2.62.12 2.62.26zM222.08 129.83c0 .14-1.11.26-2.47.26-1.37 0-2.47-.12-2.47-.26s1.11-.26 2.47-.26 2.47.12 2.47.26zM224.64 137.18c.09.11-.71.91-1.8 1.78-1.09.88-2.04 1.49-2.12 1.38-.09-.12.72-.91 1.8-1.78 1.08-.88 2.03-1.49 2.12-1.38zM230.97 142.86c.12.09-.46 1.07-1.17 2.26-.72 1.19-1.31 2.16-1.45 2.1-.13-.06.27-1.15 1-2.37.73-1.22 1.51-2.08 1.62-1.99zM238.3 150.18c-.14 0-.26-1.17-.26-2.62 0-1.44.12-2.62.26-2.62s.26 1.17.26 2.62c0 1.45-.12 2.62-.26 2.62zM249.57 146.7c-.08.12-1.13-.43-2.23-1.39s-1.79-1.93-1.68-2.02c.11-.1.95.7 2.03 1.63 1.06.92 1.97 1.65 1.88 1.78zM254.87 141c-.1.1-.91-.54-1.81-1.44-.9-.9-1.55-1.71-1.44-1.81.1-.1.91.54 1.81 1.44.89.89 1.54 1.7 1.44 1.81zM224.4 122.8c-.1.1-.82-.45-1.61-1.24-.79-.79-1.34-1.51-1.24-1.61.1-.1.82.45 1.61 1.24.79.79 1.34 1.51 1.24 1.61zM230.93 115.92c-.1.1-.81-.44-1.58-1.21s-1.32-1.48-1.21-1.58c.1-.1.81.44 1.58 1.21s1.32 1.48 1.21 1.58z" fill="#fff"/><g><path fill="#fff" d="M308.936 202.453l34.892-3.308 2.23 23.513-34.892 3.309z"/><path d="M346.08 222.65c-.01-.01-.03-.16-.07-.44-.04-.32-.08-.73-.14-1.25-.12-1.13-.29-2.72-.5-4.74-.42-4.11-1.01-9.95-1.73-17.06l.23.19c-9.64.93-21.75 2.1-34.88 3.36-.05.06.44-.54.23-.28v.09l.01.1.02.2.04.39.07.78.15 1.56c.1 1.03.19 2.06.29 3.08.19 2.04.38 4.04.57 6.01.37 3.94.72 7.72 1.06 11.3l-.26-.21c10.23-.92 18.92-1.71 25.09-2.26 3.06-.26 5.5-.47 7.21-.62.82-.07 1.46-.12 1.93-.15.2-.01.37-.02.5-.03.11-.02.17-.02.18-.02.01.01-.2.04-.63.09-.46.05-1.08.12-1.88.21-1.69.18-4.11.43-7.14.74-6.2.62-14.94 1.49-25.22 2.51l-.24.02-.02-.24c-.35-3.58-.71-7.37-1.09-11.3-.19-1.97-.38-3.97-.57-6.01-.1-1.02-.19-2.05-.29-3.08l-.15-1.56-.07-.78-.04-.39-.02-.2-.01-.1v-.09c-.21.25.29-.35.24-.29 13.13-1.23 25.25-2.36 34.89-3.26l.21-.02.02.21c.63 7.17 1.16 13.06 1.52 17.21.17 2.01.3 3.59.39 4.71.04.51.07.91.09 1.22.01.27.01.41.01.4z" fill="#263238"/><g><path d="M343.84 199.13c.03.02-.35.49-1.06 1.33-.77.89-1.8 2.08-3.05 3.51-2.6 2.96-6.23 7.04-10.3 11.56l-.15.16-.19-.12c-.29-.19-.61-.39-.93-.59-5.34-3.41-10.17-6.51-13.64-8.78-1.68-1.11-3.06-2.03-4.1-2.71-.44-.3-.8-.55-1.1-.76-.25-.18-.37-.28-.36-.29.01-.02.15.06.42.21.32.19.7.41 1.15.68l4.19 2.57c3.53 2.19 8.38 5.25 13.72 8.66.32.2.63.4.93.59l-.33.05c4.07-4.52 7.75-8.56 10.42-11.46 1.3-1.39 2.37-2.54 3.17-3.41.76-.79 1.19-1.22 1.21-1.2z" fill="#263238"/></g></g><g><path fill="#f5a046" d="M296.75 83.55h44.24v65.84h-44.24z"/><path opacity=".3" d="M296.75 83.55h44.24v65.84h-44.24z"/><path d="M341.5 149.9h-45.26V83.03h45.26v66.87zm-44.24-1.02h43.21V84.06h-43.21v64.82z" fill="#263238"/><path fill="#fff" d="M301.2 87.61h35.41v57.68H301.2z"/><path fill="#f5a046" d="M308.92 103.96h19.88v23.3h-19.88z"/></g><g><path d="M269.77 197.92c-.01-.04.36.02.87-.33.24-.18.5-.48.61-.91.1-.42.03-.97.05-1.57.01-2.44.04-5.89.06-10.14l.03-3.36c.01-.58.01-1.18.02-1.79 0-.3.03-.62-.03-.87-.05-.26-.18-.51-.37-.71-.19-.19-.44-.33-.71-.38-.25-.04-.61-.01-.92-.02-.65 0-1.31 0-1.98.01-1.34 0-2.72.01-4.13.01-5.66.01-11.88.01-18.41.02-.69-.01-1.31.6-1.36 1.28-.01.8-.03 1.59-.04 2.38-.02 1.59-.05 3.16-.07 4.7-.05 3.08-.1 6.05-.14 8.88-.01.35-.01.71-.02 1.05-.02.33.05.61.21.87.16.25.39.45.66.55.26.12.57.08.92.09 1.34 0 2.64.01 3.9.01l7 .03c4.25.03 7.7.06 10.14.08 1.16.02 2.08.04 2.76.05.29.01.52.02.72.03.15.02.23.03.23.04 0 .01-.08.02-.24.03-.19.01-.43.02-.72.03-.67.01-1.59.03-2.76.05-2.44.02-5.89.05-10.14.08l-7 .03c-1.26 0-2.56.01-3.9.01-.31-.01-.71.04-1.08-.12-.37-.14-.68-.4-.89-.74-.21-.33-.31-.75-.28-1.12 0-.35.01-.7.01-1.05.04-2.83.07-5.8.11-8.88l.06-4.7c.01-.8.03-1.61.04-2.42.06-.93.9-1.77 1.87-1.76 6.53.01 12.75.01 18.41.02 1.41 0 2.79.01 4.13.01.67 0 1.33 0 1.98.01.33.01.62-.02 1.01.04.36.07.69.26.94.51.25.26.41.58.48.93.07.36.02.66.03.96l-.03 1.79-.06 3.36c-.1 4.25-.17 7.7-.23 10.14-.04.6.02 1.12-.11 1.6-.14.47-.43.78-.7.96-.28.18-.52.23-.69.25-.16 0-.24-.01-.24-.02z" fill="#263238"/><path fill="#263238" d="M258.38 186.05l3.41 2.07-3.49 2.05-3.48 2.04.07-4.11.08-4.12z"/></g><g><path d="M187.54 245.43l-25.5-13.77c2.98-2.06 5.42-4.82 7.1-8.04l9.34-17.91c1.78-3.31 5.12-5.49 8.86-5.81L211 212.67a14.403 14.403 0 00-6.55 6.2l-10.57 19.59c-1.53 2.82-3.7 5.2-6.34 6.97z" fill="#fff"/><path d="M187.54 245.43c0-.01.09-.08.28-.23.19-.14.47-.35.83-.64.71-.58 1.75-1.48 2.87-2.82.56-.67 1.13-1.46 1.69-2.37.54-.91 1.06-1.95 1.66-3.05 1.18-2.21 2.52-4.71 3.99-7.48 1.48-2.77 3.11-5.8 4.85-9.06.43-.81.87-1.66 1.43-2.45.55-.79 1.2-1.54 1.92-2.24.73-.68 1.53-1.31 2.41-1.85.44-.27.89-.52 1.36-.74l.04-.02.02-.01c-.01.84-.02.23-.02.41l-.08-.05-.17-.09-.34-.18-.68-.37c-3.66-1.97-7.5-4.04-11.48-6.18-1.99-1.07-4.01-2.16-6.07-3.27-1.03-.55-2.06-1.11-3.1-1.67-.52-.28-1.04-.56-1.57-.85l-.1-.05-.05-.03c-.04-.01.26.05.12.03h-.03l-.22.03-.43.05c-.29.06-.58.09-.86.17-2.28.53-4.35 1.81-5.82 3.55-.76.86-1.29 1.85-1.82 2.89-.53 1.02-1.06 2.03-1.58 3.03-2.1 4-4.12 7.87-6.04 11.55-.96 1.83-1.85 3.68-3.07 5.27-1.19 1.6-2.55 2.99-4 4.15-.36.29-.73.57-1.11.83l-.14.1-.07.05c-.04-.72 0-.19 0-.35l.02.01.04.02.3.16.59.32c.78.43 1.55.84 2.3 1.25 1.51.82 2.95 1.61 4.33 2.36 5.49 3 9.94 5.44 13.05 7.14 1.51.84 2.7 1.5 3.54 1.96.38.22.68.39.91.52.2.13.3.19.3.2 0 .01-.12-.04-.33-.15-.24-.12-.55-.28-.94-.48-.85-.44-2.05-1.07-3.58-1.88-3.13-1.67-7.61-4.05-13.13-7-1.38-.74-2.84-1.52-4.35-2.33-.76-.41-1.53-.82-2.31-1.24l-.59-.32-.3-.16-.04-.02-.02-.01c-.01-.16.01.35-.04-.37l.07-.05.14-.1a22.402 22.402 0 004.99-4.91c1.18-1.55 2.05-3.37 3.01-5.22 1.92-3.69 3.93-7.55 6.02-11.56.52-1 1.05-2.01 1.58-3.03.51-1.01 1.08-2.09 1.88-2.98 1.54-1.83 3.7-3.17 6.09-3.72.3-.08.6-.12.9-.18l.46-.05.23-.03h.03c-.12-.03.2.04.17.03l.05.03.1.05c.52.28 1.05.56 1.57.85 1.04.56 2.08 1.12 3.1 1.68 2.05 1.11 4.08 2.2 6.06 3.28 3.97 2.15 7.81 4.23 11.46 6.2l.68.37.34.18.17.09.08.05c0 .19.03-.41 0 .44l-.02.01-.04.02c-.45.22-.9.46-1.32.72-.85.52-1.63 1.13-2.34 1.79-.7.67-1.33 1.39-1.87 2.16-.54.77-.97 1.59-1.41 2.4-1.76 3.24-3.41 6.27-4.91 9.03-1.5 2.75-2.86 5.25-4.06 7.44-.61 1.09-1.14 2.12-1.7 3.04-.57.91-1.17 1.7-1.74 2.37a18.079 18.079 0 01-2.96 2.77c-.37.28-.66.48-.86.6-.21.14-.32.2-.32.19z" fill="#263238"/><path d="M199.41 219.43c-.05.09-4.23-2.1-9.35-4.89-5.11-2.79-9.22-5.12-9.17-5.21.05-.09 4.23 2.1 9.35 4.89 5.11 2.79 9.22 5.13 9.17 5.21zM198.01 222.99c-.05.09-4.37-2.18-9.66-5.06-5.29-2.88-9.53-5.29-9.48-5.38.05-.09 4.37 2.18 9.66 5.06 5.28 2.88 9.53 5.29 9.48 5.38zM196.32 226.1c-.05.09-4.37-2.18-9.66-5.06-5.29-2.88-9.53-5.29-9.48-5.38.05-.09 4.37 2.18 9.66 5.06 5.28 2.88 9.52 5.29 9.48 5.38zM194.62 229.2c-.05.09-4.37-2.18-9.66-5.06-5.29-2.88-9.53-5.29-9.48-5.38.05-.09 4.37 2.18 9.66 5.06 5.28 2.88 9.53 5.29 9.48 5.38zM192.93 232.3c-.05.09-4.37-2.18-9.66-5.06-5.29-2.88-9.53-5.29-9.48-5.38.05-.09 4.37 2.18 9.66 5.06 5.28 2.89 9.53 5.3 9.48 5.38zM182.03 230.39c-.02.04-.6-.22-1.52-.68-.92-.46-2.17-1.12-3.54-1.87s-2.6-1.44-3.49-1.96c-.88-.52-1.42-.86-1.39-.91.02-.04.6.22 1.52.68.92.46 2.17 1.12 3.54 1.87s2.6 1.44 3.49 1.96c.88.52 1.42.87 1.39.91zM188.06 238.41c-.03-.02.1-.25.2-.7.1-.44.13-1.15-.21-1.89a2.838 2.838 0 00-2.18-1.61c-1.04-.17-2.3.35-2.88 1.44-.6 1.08-.36 2.42.35 3.2.7.81 1.74 1.08 2.54.96.81-.11 1.38-.52 1.71-.84.32-.34.44-.57.47-.56.01.01-.07.27-.38.64-.3.37-.89.85-1.77 1-.86.17-2.03-.09-2.83-.99-.81-.86-1.1-2.38-.42-3.6.66-1.23 2.09-1.81 3.25-1.6 1.19.19 2.04 1.03 2.36 1.84.35.82.26 1.58.12 2.03-.14.48-.32.69-.33.68zM182.797 205.844l7.384 4.027-.58 1.062-7.383-4.026z" fill="#263238"/></g><g><path fill="#f5a046" d="M163.38 129.68l-6.54-6.95v23.03l13.89-15.59z"/><path opacity=".5" fill="#fff" d="M163.38 129.68l-6.54-6.95v23.03l13.89-15.59z"/><path fill="#f5a046" d="M156.99 145.59l8.13-15.8-1.74-.11-1.07-1.13-5.32 17.04"/><path d="M163.38 129.68c.07.02-.2.96-.72 2.45-.52 1.49-1.29 3.52-2.21 5.73-.92 2.21-1.8 4.2-2.45 5.63-.65 1.43-1.08 2.3-1.15 2.27-.07-.03.25-.95.81-2.42.57-1.47 1.39-3.47 2.31-5.68.88-2.12 1.67-4.04 2.35-5.66.59-1.46.99-2.35 1.06-2.32z" fill="#263238"/><path d="M163.33 126.63c.14.03.06 1.15-.19 2.51-.25 1.35-.56 2.43-.7 2.41-.14-.02-.06-1.14.19-2.51.24-1.36.55-2.44.7-2.41zM165.94 116.98c.14.05-.08 1.15-.47 2.47-.4 1.32-.83 2.36-.97 2.32-.14-.04.07-1.14.47-2.47.4-1.32.83-2.36.97-2.32zM169.62 107.69c.13.06-.2 1.14-.74 2.4-.54 1.27-1.09 2.25-1.22 2.2-.13-.05.2-1.13.74-2.4.54-1.28 1.09-2.26 1.22-2.2zM174.29 98.85c.12.07-.33 1.11-1 2.3-.68 1.2-1.33 2.12-1.46 2.05-.13-.07.32-1.1 1-2.31.69-1.2 1.34-2.11 1.46-2.04zM179.91 90.58c.11.09-.45 1.06-1.25 2.18s-1.55 1.96-1.67 1.88c-.12-.08.44-1.06 1.25-2.18.81-1.13 1.56-1.96 1.67-1.88zM186.41 82.99c.1.1-.56 1.01-1.48 2.03-.92 1.02-1.76 1.77-1.87 1.68-.11-.09.56-1 1.48-2.03.93-1.03 1.76-1.78 1.87-1.68zM193.73 76.18c.09.11-.67.94-1.71 1.84-1.03.91-1.95 1.56-2.05 1.45-.1-.1.67-.93 1.71-1.84s1.96-1.56 2.05-1.45zM201.8 70.29c.08.13-.81.81-1.93 1.61-1.13.79-2.11 1.33-2.2 1.21-.09-.12.77-.85 1.9-1.64 1.14-.81 2.16-1.3 2.23-1.18zM210.53 65.42c.06.13-.88.75-2.1 1.38-1.22.63-2.27 1.05-2.34.92-.07-.13.87-.74 2.1-1.38 1.23-.64 2.28-1.05 2.34-.92zM219.78 61.63c.05.14-.96.64-2.25 1.12-1.29.48-2.38.77-2.43.64-.06-.13.95-.64 2.25-1.12 1.3-.49 2.39-.78 2.43-.64zM229.41 58.94c.03.14-1.03.52-2.36.85-1.34.33-2.45.49-2.49.35-.04-.14 1.02-.52 2.36-.85 1.35-.33 2.46-.49 2.49-.35zM239.29 57.39c.01.14-1.08.4-2.45.58-1.37.17-2.49.2-2.51.06-.02-.14 1.07-.4 2.45-.58 1.37-.18 2.5-.21 2.51-.06zM249.27 56.99c0 .14-1.12.27-2.5.29-1.38.01-2.5-.09-2.5-.23-.01-.14 1.11-.27 2.5-.29 1.39-.02 2.51.08 2.5.23zM259.23 57.77c-.02.14-1.15.14-2.51-.01-1.37-.15-2.47-.38-2.46-.53.01-.14 1.13-.14 2.51.01 1.38.15 2.48.38 2.46.53zM269.03 59.74c-.04.14-1.15 0-2.49-.32-1.34-.31-2.4-.68-2.38-.82.03-.14 1.14 0 2.49.32 1.35.31 2.42.68 2.38.82zM278.5 62.93c-.06.13-1.14-.15-2.43-.63-1.29-.48-2.29-.98-2.25-1.12.04-.14 1.13.15 2.43.63 1.29.49 2.3.99 2.25 1.12zM287.42 67.43c-.08.12-1.11-.32-2.31-.98-1.2-.67-2.12-1.31-2.06-1.44.06-.13 1.1.31 2.31.98 1.21.68 2.13 1.32 2.06 1.44zM295.44 73.37c-.1.11-1.04-.51-2.1-1.38-1.06-.87-1.86-1.66-1.77-1.78.08-.12 1.03.5 2.1 1.38 1.07.88 1.87 1.68 1.77 1.78zM302.28 80.62c-.12.08-.81-.8-1.68-1.85-.87-1.06-1.57-1.92-1.47-2.03.1-.1.98.62 1.87 1.7.89 1.07 1.4 2.1 1.28 2.18z" fill="#263238"/><g><path d="M276.49 186.88c0 .14-1.13.2-2.51.12-1.38-.08-2.5-.26-2.48-.4.01-.14 1.14-.2 2.51-.12 1.37.07 2.48.25 2.48.4zM286.47 186.38c.02.14-1.09.36-2.47.48-1.38.12-2.51.1-2.51-.04-.01-.14 1.1-.36 2.47-.48s2.49-.1 2.51.04zM296.23 184.24c.04.14-1.01.54-2.35.9s-2.45.54-2.48.4c-.03-.14 1.02-.54 2.35-.9 1.32-.36 2.43-.53 2.48-.4zM305.35 180.18c.07.12-.83.8-2.07 1.44-1.24.64-2.32.98-2.38.85-.06-.13.92-.68 2.14-1.31 1.22-.63 2.23-1.1 2.31-.98zM313.19 174.03c.1.1-.59 1-1.63 1.93-1.03.93-2 1.53-2.09 1.41-.09-.12.72-.88 1.74-1.8 1.03-.92 1.88-1.64 1.98-1.54zM319.13 166.01c.13.07-.3 1.12-1.05 2.29s-1.53 2-1.64 1.92c-.12-.09.46-1.04 1.2-2.2.74-1.15 1.36-2.07 1.49-2.01zM322.51 156.65c.14.02.06 1.16-.31 2.5s-.88 2.36-1.01 2.31c-.14-.05.15-1.13.51-2.45.36-1.31.67-2.39.81-2.36zM322.86 148.72c.14-.02.29.64.33 1.47.04.83-.05 1.49-.19 1.49s-.29-.66-.33-1.47c-.04-.8.04-1.47.19-1.49z" fill="#263238"/></g><g><path d="M200.14 201.34c.11.09-.51 1.02-1.31 2.13-.8 1.11-1.49 2-1.61 1.92-.12-.07.37-1.1 1.19-2.22.81-1.13 1.62-1.92 1.73-1.83zM207.32 194.42c.09.12-.73.88-1.77 1.77s-1.92 1.59-2.02 1.48c-.1-.1.62-.97 1.68-1.88 1.05-.9 2.02-1.49 2.11-1.37zM215.87 189.25c.06.13-.87.76-2.09 1.41-1.21.65-2.26 1.07-2.33.95-.08-.12.86-.75 2.09-1.41 1.22-.66 2.27-1.08 2.33-.95zM225.33 186.04c.03.14-1.04.49-2.36.86-1.32.37-2.41.63-2.46.49-.05-.13.98-.62 2.32-.99 1.34-.38 2.47-.5 2.5-.36zM235.25 185.01c0 .15-1.12.24-2.49.3s-2.49.07-2.5-.07c-.02-.14 1.09-.38 2.48-.45 1.39-.06 2.51.08 2.51.22zM240.85 185.47c-.02.14-.18.24-.35.21-.17-.02-.29-.16-.27-.3.02-.14.17-.24.35-.21.17.02.3.15.27.3z" fill="#263238"/></g><g><path d="M212.86 267.97c.08-.12 1.08.39 2.24 1.14 1.16.75 2.04 1.45 1.96 1.57-.08.12-1.08-.39-2.24-1.14-1.16-.75-2.04-1.45-1.96-1.57zM204.84 262.01c.1-.11 1.04.5 2.12 1.35 1.08.85 1.88 1.64 1.79 1.76-.08.12-1.03-.49-2.12-1.35-1.08-.87-1.89-1.65-1.79-1.76zM198.72 254.18c.13-.07.75.86 1.48 2.02.72 1.16 1.31 2.11 1.19 2.2-.11.09-.9-.74-1.63-1.92-.74-1.18-1.16-2.23-1.04-2.3zM194.9 244.95c.14-.04.62.98 1.08 2.27.46 1.29.73 2.38.59 2.44-.13.06-.62-.96-1.09-2.27-.45-1.31-.71-2.4-.58-2.44z" fill="#263238"/></g></g></g><g><g fill="#455a64"><path d="M268.95 358.29l-2.06 88.99h-3.92l.25-88.77zM283.13 357.3l19.08 89.98h4.38L290.7 357.3zM247.35 358.29l-21.11 88.99h-4.38l19.17-89.36z"/></g><path d="M302.27 272.95s21.07-1.2 18.97 23.18c-2.11 24.38-3.31 49.07-11.14 57.5s-86.7 8.73-93.32 1.81c-6.62-6.92 12.64-6.62 16.26-6.62 3.61 0 25.89 2.11 33.12-16.86 7.21-18.97 5.41-60.21 36.11-59.01z" fill="#455a64"/><path d="M303.62 272.96s16.11 3.3 14.6 20.16c-1.51 16.86-5.72 46.36-13.55 53.89-7.83 7.53-38.5 9.17-55.09 8.13-19.27-1.2-31.43-4.87-31.43-4.87s-3.52 2.26-2.45 3.72c1.07 1.46 10.46 7.31 56 6.34 45.54-.98 42.37-7.69 44.26-15.03 1.89-7.34 5.86-46.47 5.31-55.07-.54-8.62-4.88-15.76-17.65-17.27z" fill="#455a64"/><path d="M303.62 272.96s16.11 3.3 14.6 20.16c-1.51 16.86-5.72 46.36-13.55 53.89-7.83 7.53-38.5 9.17-55.09 8.13-19.27-1.2-31.43-4.87-31.43-4.87s-3.52 2.26-2.45 3.72c1.07 1.46 10.46 7.31 56 6.34 45.54-.98 42.37-7.69 44.26-15.03 1.89-7.34 5.86-46.47 5.31-55.07-.54-8.62-4.88-15.76-17.65-17.27z" opacity=".2"/><path d="M290.41 305.78c0 1.23.78 2.23 1.75 2.23.96 0 1.75-1 1.75-2.23s-.78-2.23-1.75-2.23-1.75 1-1.75 2.23z" fill="#455a64"/><path d="M291.6 295.91c.11.04-.56 1.21-.59 3.25a7.74 7.74 0 00.77 3.42c.29.59.67 1.2 1.15 1.71.24.26.55.51.8.87.27.35.4.89.3 1.34-.19.89-.67 1.52-.89 2.19-.2.64-.27 1.38-.26 2.03.02 1.33.41 2.5.88 3.39.97 1.8 2.12 2.52 2.03 2.6-.02.03-.32-.11-.78-.48s-1.08-.99-1.63-1.91a7.603 7.603 0 01-1.06-3.58c-.02-.72.02-1.45.26-2.24.26-.75.72-1.42.86-2.1.16-.67-.38-1.14-.94-1.7-.54-.59-.92-1.23-1.22-1.88-.6-1.3-.76-2.61-.69-3.67.06-1.07.32-1.9.56-2.44.22-.55.42-.81.45-.8z" fill="#455a64"/><path d="M286.82 302.89c.1.01.02.53.25 1.27.21.74.78 1.7 1.75 2.36.98.66 2.07.9 2.86 1.02s1.3.14 1.31.23c.01.08-.5.21-1.34.2-.83-.01-2.05-.2-3.17-.95-1.12-.76-1.71-1.91-1.83-2.77-.13-.87.11-1.38.17-1.36z" fill="#455a64"/><g opacity=".2"><path d="M290.41 305.78c0 1.23.78 2.23 1.75 2.23.96 0 1.75-1 1.75-2.23s-.78-2.23-1.75-2.23-1.75 1-1.75 2.23z"/><path d="M291.6 295.91c.11.04-.56 1.21-.59 3.25a7.74 7.74 0 00.77 3.42c.29.59.67 1.2 1.15 1.71.24.26.55.51.8.87.27.35.4.89.3 1.34-.19.89-.67 1.52-.89 2.19-.2.64-.27 1.38-.26 2.03.02 1.33.41 2.5.88 3.39.97 1.8 2.12 2.52 2.03 2.6-.02.03-.32-.11-.78-.48s-1.08-.99-1.63-1.91a7.603 7.603 0 01-1.06-3.58c-.02-.72.02-1.45.26-2.24.26-.75.72-1.42.86-2.1.16-.67-.38-1.14-.94-1.7-.54-.59-.92-1.23-1.22-1.88-.6-1.3-.76-2.61-.69-3.67.06-1.07.32-1.9.56-2.44.22-.55.42-.81.45-.8z"/><path d="M286.82 302.89c.1.01.02.53.25 1.27.21.74.78 1.7 1.75 2.36.98.66 2.07.9 2.86 1.02s1.3.14 1.31.23c.01.08-.5.21-1.34.2-.83-.01-2.05-.2-3.17-.95-1.12-.76-1.71-1.91-1.83-2.77-.13-.87.11-1.38.17-1.36z"/></g><g><path d="M266.23 212.11c-.27-.1-.62-.21-1.07-.33-1.1-.28-2.74-.6-4.79-.42-2.02.17-4.52.92-6.51 2.84-.99.94-1.83 2.16-2.34 3.57-.25.71-.4 1.46-.44 2.24-.05.78.06 1.54.02 2.28-.03.74-.26 1.41-.78 1.87-.5.47-1.19.74-1.85 1.02-.66.28-1.37.6-1.92 1.09-.56.48-.99 1.06-1.31 1.68-.63 1.25-.73 2.67-.37 3.85.34 1.19.93 2.15 1.43 3.03.24.38.44.75.63 1.12.04.31.06.62.03.94-.11 1.38-.97 2.57-1.9 3.59-.93 1.02-1.97 1.97-2.6 3.2-.63 1.23-.74 2.85.17 3.89 1.01 1.16 2.77 1.16 4.31 1.12 5.36-.14 10.71.38 16.04.9l4.32-37.18c-.35-.11-.71-.21-1.07-.3zm-13.47 6.58c-.24 1.47-.03 3.06-.73 4.37-.75 1.4-2.32 2.1-3.51 3.14-1.86 1.63-2.77 4.28-2.32 6.71.12.62.31 1.23.48 1.84-.02-.03-.04-.07-.06-.1-.48-.88-1.04-1.84-1.33-2.96-.31-1.1-.21-2.38.38-3.52.3-.56.69-1.1 1.2-1.52.5-.44 1.12-.72 1.79-1 .66-.29 1.39-.56 2-1.11.63-.55.92-1.43.94-2.22.04-.8-.07-1.56-.02-2.28.03-.72.17-1.43.4-2.1a8.971 8.971 0 012.2-3.39c1.87-1.85 4.25-2.61 6.21-2.82.54-.06 1.05-.08 1.53-.08-1.18.05-2.34.24-3.46.64-2.81 1.01-5.22 3.44-5.7 6.4z" fill="#263238"/><path d="M260.1 256.09c.32-1.71-.24-8.94-.24-8.94s-6.4-.81-6.68-7.34c-.28-6.54.37-21.59.37-21.59l11.79-5.66 10.29 11.73.19 31.69-15.72.11z" fill="#ffbe9d"/><path d="M255.21 229.22c-.01.46.35.84.8.85.45.01.82-.36.83-.82a.827.827 0 00-.8-.85c-.45-.01-.82.36-.83.82zM253.87 228.3c.1.11.71-.4 1.59-.44.88-.05 1.53.41 1.62.29.05-.05-.06-.25-.34-.46-.28-.21-.75-.4-1.3-.38-.55.03-1 .26-1.26.49-.27.24-.36.45-.31.5zM264.75 229.22c-.01.46.35.84.8.85.45.01.82-.36.83-.82a.827.827 0 00-.8-.85c-.45-.01-.82.36-.83.82z" fill="#263238"/><path d="M263.59 228.47c.1.11.71-.4 1.59-.44.88-.05 1.53.41 1.62.29.05-.05-.06-.25-.34-.46-.28-.21-.75-.4-1.3-.38-.55.03-1 .26-1.26.49-.27.24-.36.45-.31.5zM260.29 236.01c0-.05-.54-.13-1.43-.22-.22-.02-.44-.06-.48-.22-.06-.17.03-.43.14-.72.2-.59.41-1.21.63-1.85.88-2.64 1.51-4.8 1.41-4.84-.1-.03-.89 2.08-1.77 4.71-.21.65-.41 1.27-.61 1.86-.08.28-.22.59-.1.95.06.18.23.3.37.34.14.04.27.04.38.04.91.02 1.46 0 1.46-.05z" fill="#263238"/><path d="M259.86 247.16s4.28.12 8.48-2.78c0 0-1.99 4.76-8.37 4.38l-.11-1.6z" fill="#eb996e"/><path d="M291.67 233.01c-.33.08-.77.1-1.24.03-.74-1.15-2.07-2.01-3.06-3.07a5.14 5.14 0 01.24-2.85c.16-.48.34-.99.46-1.55.12-.55.13-1.18-.09-1.77-.44-1.15-1.52-1.84-2.56-2.35-.88-1.23-2.49-1.8-3.62-2.84-.24-.57-.38-1.17-.5-1.76-.2-1-.35-2.01-.77-2.87-.4-.87-1.03-1.54-1.66-2.03-.98-.75-2-1.06-2.82-1.16-.72-.37-1.5-.64-2.3-.77-2.42-.38-4.98.47-6.72 2.19-3.52-1.01-7.46-.25-10.62 1.64-1.39.83-2.7 1.92-3.36 3.39-.59 1.32-.62 2.81-.63 4.25l-.03 3.1c0 .26 0 .54.14.76.23.35.72.4 1.14.42l4.79.18c.33.01.67.02.96-.15.49-.29.8-.94.75-1.52-.04-.46-.01-1.38-.02-1.64.21 1.02.41 1.22.57 1.86.16.65.44 1.34 1.03 1.66.41.23.91.23 1.38.23.69 0 1.38-.02 2.07-.05.34-.01.71-.04.98-.25.44-.34.44-.99.36-1.54-.08-.55-.31-1.12-.32-2.14.62 1.22.91 2.73 1.68 2.94.83.22 2.08-.1 2.31-.17.77-.24 1.32-.44 1.88-.61-.05.32-.12.63-.24.94-.58 1.57-1.88 3.08-1.44 4.69.41 1.46 2.07 2.17 2.91 3.44.92 1.38.73 3.22.18 4.79-.54 1.56-1.41 3.02-1.77 4.63-.37 1.62-.1 3.54 1.22 4.54 1.01.77 2.38.81 3.66.82 3.87.04 7.75.07 11.62.11.75.01 1.52.01 2.23-.24s1.35-.82 1.48-1.56c.15-.87-.43-1.7-1.07-2.31-.64-.61-1.39-1.15-1.77-1.95-.61-1.31-.02-2.84.66-4.11.67-1.28 1.46-2.64 1.21-4.06-.06-.35-.18-.67-.34-.98.43.02.83-.04 1.13-.13.43-.13.74-.31.92-.45.18-.15.26-.24.25-.25-.07-.03-.43.33-1.26.52zm-14.86-21.78c.58.2 1.21.51 1.82 1 .58.48 1.15 1.11 1.49 1.92.37.8.5 1.76.69 2.78.04.2.08.41.13.62-.57-.97-.84-2.13-1.33-3.16-.61-1.28-1.61-2.37-2.8-3.16zm9.01 11.04c.75.44 1.39.99 1.67 1.72.37.96-.04 2.01-.34 2.99-.29.78-.38 1.59-.32 2.35-.2-.28-.37-.57-.5-.89-.77-1.94.18-4.28-.51-6.17z" fill="#263238"/><path d="M260.61 238.31c.1-.55.5-1.04 1.02-1.25.36-.15.79-.16 1.13.02.34.18.58.58.52.96-.07.43-.48.75-.91.84-.43.09-.87.01-1.3-.09-.12-.03-.24-.05-.34-.12-.1-.07-.17-.19-.14-.31" fill="#eb996e"/><g><path d="M262.78 235.98c.06-.01.18.24.15.67-.03.42-.23 1.02-.72 1.49-.49.46-1.1.63-1.52.63-.43 0-.67-.12-.66-.18 0-.14 1.02-.07 1.83-.83.79-.77.78-1.79.92-1.78z" fill="#263238"/></g><path d="M247.56 259.23s-19.37 16.84-19.87 14.79c-2.72-11.15-1.95-25.38-1.52-30.83.3-.47.65-.98 1.06-1.55a7.5 7.5 0 011.73-1.69c.81-.57 1.91-1.27 2.63-1.48.89-.25 1.04-1.44.26-1.73-.78-.29-3.25.35-5.55 2.27s-1.36-2.64-1.05-4.31c.31-1.67 1.03-6.87.59-7.36-.64-.72-1.55-.14-1.82 1.53-.27 1.69-1.44 6.64-2.32 6.46-.86-.18.83-8.65.83-8.65s.66-1.76-.35-2.01c-1.81-.44-2.95 8.68-3.04 9.55-.06.6-1.02.44-.92-.21.1-.67 1.89-8.42.05-8.89-1.41-.36-1.01 7.5-2.27 8.92-1.27 1.42.3-6-1.06-6.29-.51-.11-.9-.12-1.19 4.26-.15 2.35.1 6.84.38 10.57-1.21 12.03-3.56 48.85 13.08 47.58 19.63-1.5 24.15-16.97 24.15-16.97l-3.8-13.96z" fill="#ffbe9d"/><g><path d="M301.82 285.97l-3.36-16.85c-2.48-13.79-21.8-14.74-21.8-14.74l-15.17-.25s-10.1-.32-18.19 6.31c-8.13 6.67-13.51 11.73-13.51 11.73l12.7 14.68 7.51-4.96s-2.7 4.88-2.25 9.04c.43 3.96 4.63 7.06 4.63 7.06l-3.15 33.87 49.54-1.99-6.38-43.91h9.43z" fill="#f5a046"/><path d="M299.46 272.84s-.15.45-.59 1.24c-.44.78-1.18 1.9-2.42 3.1a13.64 13.64 0 01-5.33 3.18c-2.32.74-5.22.95-8.19.09-1.47-.44-2.98-1.14-4.27-2.25-1.27-1.1-2.38-2.67-2.5-4.57-.09-1.84.75-3.89 2.57-4.87.89-.48 2.02-.56 2.99-.2.99.34 1.81 1.05 2.42 1.91.6.86.98 1.9 1.01 2.98.02 1.07-.22 2.15-.67 3.14-.9 1.99-2.48 3.61-4.29 4.88-3.63 2.56-8.46 3.69-13.1 2.82-2.32-.45-4.52-1.36-6.37-2.74-1.85-1.37-3.35-3.22-4.07-5.36-.71-2.13-.68-4.49.21-6.48.86-1.99 2.67-3.58 4.79-3.88 2.1-.32 4.34 1.01 4.81 3.04.24 1-.02 2.04-.5 2.87-.49.83-1.2 1.5-2.01 1.97-1.65.92-3.54.9-5.18.65-1.66-.28-3.2-.75-4.64-1.27-2.88-1.04-5.31-2.59-6.87-4.49a9.523 9.523 0 01-2.23-5.75c-.07-1.73.43-3.04.86-3.82.46-.78.82-1.1.82-1.1.03.02-.3.37-.73 1.15-.39.79-.85 2.07-.75 3.76.09 1.66.68 3.76 2.25 5.57 1.54 1.83 3.93 3.32 6.77 4.33 1.42.5 2.96.96 4.57 1.22 1.6.24 3.4.23 4.9-.63.74-.43 1.4-1.05 1.84-1.82.44-.76.66-1.67.44-2.54-.4-1.76-2.43-2.97-4.3-2.67-1.91.27-3.6 1.74-4.4 3.6-.83 1.87-.86 4.1-.18 6.12.69 2.02 2.12 3.8 3.9 5.11 1.78 1.33 3.92 2.22 6.16 2.65 4.5.84 9.19-.25 12.71-2.72 1.76-1.23 3.28-2.8 4.13-4.67.43-.93.65-1.93.64-2.92a5.07 5.07 0 00-.92-2.72c-.55-.79-1.3-1.43-2.18-1.74-.86-.32-1.84-.25-2.63.16-1.61.84-2.43 2.75-2.35 4.44.1 1.73 1.13 3.23 2.34 4.29 1.23 1.07 2.68 1.76 4.11 2.2 2.89.86 5.72.69 8-.01 2.29-.7 4.04-1.91 5.27-3.05a14.66 14.66 0 002.46-3c.23-.38.4-.68.5-.88.14-.22.2-.33.2-.32zM297.39 324.3c0 .01-.09.05-.27.12-.18.06-.45.18-.81.28-.72.22-1.82.48-3.26.56-1.44.09-3.22-.03-5.2-.6-1.96-.58-4.12-1.64-6-3.44-1.87-1.79-3.44-4.28-4.21-7.24-.38-1.48-.55-3.07-.46-4.69.11-1.62.45-3.32 1.38-4.82.47-.74 1.09-1.42 1.88-1.88.79-.46 1.71-.7 2.65-.66.93.04 1.9.43 2.55 1.17.65.74.95 1.73.95 2.69.01.97-.29 1.95-.83 2.77-.53.83-1.27 1.5-2.07 2.05-1.62 1.09-3.51 1.75-5.47 2.09-3.94.61-7.94-.29-11.13-2.24-1.6-.98-2.99-2.23-4.07-3.67s-1.89-3.08-2.1-4.83c-.23-1.74.28-3.53 1.36-4.8.54-.63 1.24-1.14 2.02-1.4.78-.27 1.63-.26 2.39-.06.76.2 1.47.6 1.99 1.17.53.57.82 1.32.84 2.06.07 1.53-.86 2.77-1.81 3.62-.98.88-2.14 1.42-3.24 1.78-1.11.37-2.2.57-3.23.64-2.06.12-3.83-.28-5.17-.8-1.34-.54-2.28-1.16-2.87-1.64-.31-.22-.51-.43-.66-.56-.14-.13-.21-.2-.21-.21.02-.02.32.24.92.68.6.44 1.55 1.03 2.88 1.53 1.33.48 3.07.84 5.08.7 1-.08 2.06-.29 3.14-.66 1.08-.37 2.17-.89 3.1-1.74.9-.82 1.73-2 1.65-3.33-.01-1.34-1.15-2.51-2.54-2.84-.69-.18-1.45-.18-2.13.06-.69.23-1.32.7-1.82 1.28-.99 1.17-1.46 2.83-1.24 4.45.2 1.63.98 3.2 2.02 4.59 1.05 1.39 2.39 2.6 3.94 3.54 3.09 1.89 6.97 2.75 10.78 2.16 1.88-.33 3.72-.98 5.26-2.01 1.53-1.01 2.72-2.61 2.68-4.39 0-.87-.27-1.73-.82-2.36-.55-.63-1.37-.97-2.2-1.01-.83-.04-1.67.17-2.38.59-.71.41-1.28 1.03-1.72 1.71-.87 1.39-1.22 3.03-1.33 4.59-.1 1.58.06 3.12.42 4.56.73 2.88 2.24 5.33 4.04 7.08 1.81 1.77 3.91 2.83 5.83 3.43 1.93.58 3.69.73 5.1.67 1.42-.06 2.51-.27 3.24-.46.77-.17 1.15-.3 1.16-.28z" fill="#fff"/><path d="M280.62 268.1c.04 0 .13.38.27 1.08.16.81.36 1.79.58 2.95.51 2.62 1.17 6.01 1.89 9.75.72 3.82 1.35 7.28 1.74 9.79.2 1.26.34 2.28.42 2.99.08.71.1 1.1.07 1.11-.04 0-.13-.38-.27-1.08-.16-.81-.35-1.79-.58-2.95-.51-2.62-1.17-6.01-1.89-9.76-.72-3.81-1.35-7.27-1.74-9.79-.2-1.26-.34-2.28-.42-2.99-.08-.7-.11-1.1-.07-1.1z" fill="#263238"/><path d="M302.13 286.14c0 .14-4.1.28-9.15.29-5.06.02-9.15-.08-9.15-.23 0-.14 4.1-.27 9.15-.29 5.05-.01 9.15.09 9.15.23zM242.48 286.87c-.11.09-2.93-3.17-6.3-7.29-3.37-4.12-6.01-7.53-5.9-7.63.11-.09 2.93 3.17 6.3 7.29 3.37 4.12 6.01 7.54 5.9 7.63zM275.31 254.47c0 .07-.87.17-2.29.26-1.42.08-3.38.13-5.55.1a80 80 0 01-5.54-.27c-1.41-.13-2.28-.26-2.28-.33.01-.07.88-.07 2.3-.04 1.62.03 3.48.07 5.53.12 2.05.02 3.91.04 5.53.05 1.42.02 2.3.04 2.3.11zM247.85 286.25c-.06-.03.28-.81.88-2.04.34-.67.7-1.39 1.08-2.15.4-.83.96-1.61.75-2.61-.37-2.02-.72-3.9-.93-5.24-.22-1.35-.31-2.19-.24-2.21.07-.01.3.8.61 2.13.3 1.34.71 3.16 1.09 5.24.07.52.08 1.15-.18 1.61-.21.5-.44.9-.66 1.29-.42.74-.81 1.44-1.17 2.09-.71 1.21-1.16 1.93-1.23 1.89z" fill="#263238"/></g><g><path d="M207.69 441.87v-10.31l18.48-.12.15 15.42-1.15.08c-5.1.33-25.94.97-29.35-.09-3.81-1.18 11.87-4.98 11.87-4.98z" fill="#f5a046"/><path d="M195.38 445.91c0 .17 6.91.31 15.43.31 8.53 0 15.44-.14 15.44-.31 0-.17-6.91-.31-15.44-.31-8.52-.01-15.43.14-15.43.31zM207.36 443.98c.15-.08.02-.63-.38-1.16-.4-.54-.88-.83-1-.7s.13.58.49 1.08c.38.48.74.86.89.78zM206.18 444.66c.16-.06.08-.67-.29-1.31-.36-.65-.84-1.03-.98-.92-.14.11.09.63.43 1.23.35.59.68 1.06.84 1z" fill="#263238"/><path d="M220.69 445.84c.07.05.35-.22.75-.67.4-.45.93-1.09 1.62-1.62.69-.54 1.44-.8 2-.87.56-.08.93.01.96-.08.03-.07-.31-.33-.98-.37-.66-.04-1.58.21-2.37.82-.78.61-1.28 1.33-1.6 1.86-.31.52-.45.88-.38.93zM207.31 442.04c-.09.15.23.5.75.7.53.2 1 .13 1.03-.04.03-.17-.35-.38-.81-.55-.47-.17-.88-.26-.97-.11zM207.6 441.04c-.02.17.48.32 1.1.33.62.01 1.12-.13 1.11-.3-.01-.17-.5-.32-1.1-.33-.6 0-1.1.13-1.11.3z" fill="#263238"/></g><g><path d="M246.69 441.87v-10.31l18.48-.12.15 15.42-1.15.08c-5.1.33-25.94.97-29.35-.09-3.81-1.18 11.87-4.98 11.87-4.98z" fill="#f5a046"/><path d="M234.39 445.91c0 .17 6.91.31 15.43.31 8.53 0 15.44-.14 15.44-.31 0-.17-6.91-.31-15.44-.31-8.52-.01-15.43.14-15.43.31zM246.36 443.98c.15-.08.02-.63-.38-1.16-.4-.54-.88-.83-1-.7s.13.58.49 1.08c.38.48.74.86.89.78zM245.18 444.66c.16-.06.08-.67-.29-1.31-.36-.65-.84-1.03-.98-.92-.14.11.09.63.43 1.23.35.59.68 1.06.84 1z" fill="#263238"/><path d="M259.69 445.84c.07.05.35-.22.75-.67.4-.45.93-1.09 1.62-1.62.69-.54 1.44-.8 2-.87.56-.08.93.01.96-.08.03-.07-.31-.33-.98-.37-.66-.04-1.58.21-2.37.82-.78.61-1.28 1.33-1.6 1.86-.31.52-.45.88-.38.93zM246.31 442.04c-.09.15.23.5.75.7.53.2 1 .13 1.03-.04.03-.17-.35-.38-.81-.55-.46-.17-.88-.26-.97-.11zM246.6 441.04c-.02.17.48.32 1.1.33.62.01 1.12-.13 1.11-.3-.01-.17-.5-.32-1.1-.33-.6 0-1.1.13-1.11.3z" fill="#263238"/></g><path d="M303.89 299.48c-.98-8.09-2.06-13.31-2.06-13.31l-17.62.26s1.58 8.9 1.09 11.28c-.42 2.07-34.41 3.45-43.27 3.59-.53-.4-1.29.27-1.98-.32a7.34 7.34 0 01-1.51-1.86c-.48-.85-1.08-2.01-1.21-2.75-.17-.91-1.33-1.14-1.68-.38-.35.76.04 3.28 1.73 5.72 1.68 2.44-2.73 1.17-4.34.74-1.62-.43-6.68-1.53-7.2-1.12-.77.59-.29 1.54 1.34 1.94 1.64.4 6.41 1.92 6.15 2.79-.26.85-8.45-1.46-8.45-1.46s-1.67-.79-2.01.2c-.6 1.78 8.28 3.59 9.13 3.74.59.1.34 1.05-.29.91-.65-.15-8.12-2.5-8.76-.7-.48 1.39 7.3 1.55 8.59 2.93 1.29 1.37-5.89-.74-6.3.6-.15.5 2.83.73 7.13 1.34 4.02.57 11.48.51 13.27.47 9.96.55 45.15 1.27 52.66.74 8.76-.63 5.92-12.57 5.59-15.35z" fill="#ffbe9d"/><g><path d="M222.77 328c25.48-2.5 45.62-.57 45.62-.57l-19.28 27.68-17.4.07-3.64 85.08h-23.08l2.2-94.89c.2-8.85 6.82-16.21 15.58-17.37z" fill="#263238"/><path d="M222.77 328c25.48-2.5 45.62-.57 45.62-.57l-19.28 27.68-17.4.07-3.64 85.08h-23.08l2.2-94.89c.2-8.85 6.82-16.21 15.58-17.37z" opacity=".2"/><path d="M265.13 357.29s34.47 2.34 33.61-28.61c0 0-47.93-5.83-57.12 4.06-7.7 8.29-.66 107.52-.66 107.52L266.6 439" fill="#263238"/><path d="M272.3 326.98c0 .02-.23.03-.68.04-.5.02-1.14.05-1.95.08-1.69.08-4.13.22-7.15.43l-4.93.39c-1.77.17-3.67.32-5.61.67-1.95.4-4 .86-6.01 1.64-1.98.77-4.02 1.92-4.98 4-1 2.03-1.41 4.27-1.71 6.4-.27 2.15-.38 4.24-.43 6.23-.1 4.01-.29 7.6-.41 10.63l-.29 7.16c-.03.8-.05 1.45-.07 1.95-.02.45-.04.68-.06.68s-.03-.23-.05-.68c-.02-.45-.02-1.1-.03-1.95 0-1.69.03-4.14.12-7.17.08-3.03.23-6.63.3-10.62.03-2 .13-4.11.4-6.29.3-2.16.7-4.44 1.75-6.57a7.088 7.088 0 012.27-2.67c.94-.68 1.97-1.16 2.99-1.56 2.06-.79 4.13-1.24 6.1-1.63 2-.34 3.89-.47 5.67-.63 1.78-.14 3.43-.24 4.94-.33 3.02-.16 5.47-.25 7.17-.26.85-.01 1.51 0 1.95.02.46 0 .7.02.7.04zM266.8 432.54c0 .04-.36.09-1.02.15s-1.61.14-2.79.22c-2.36.17-5.61.36-9.21.54-3.6.18-6.86.32-9.22.39-1.18.04-2.14.06-2.8.06-.66 0-1.03-.01-1.03-.05s.36-.09 1.02-.15 1.61-.14 2.79-.22c2.36-.17 5.61-.36 9.21-.54 3.6-.18 6.86-.32 9.22-.39 1.18-.04 2.14-.06 2.8-.06.66 0 1.03.02 1.03.05zM228.83 433.7c0 .14-5.35.26-11.96.26-6.61 0-11.96-.12-11.96-.26s5.35-.26 11.96-.26c6.61 0 11.96.11 11.96.26z" fill="#455a64"/><path d="M239.42 338.19c0 .01-.1.01-.29-.01-.22-.02-.5-.04-.85-.07-.75-.06-1.85-.15-3.26-.22-1.42-.06-3.16-.12-5.17-.02-1 .05-2.08.14-3.2.32-1.11.2-2.31.46-3.37 1.08-.52.31-1.01.72-1.25 1.3-.27.59-.47 1.23-.65 1.9-.36 1.33-.65 2.74-.84 4.21-.28 2.96-.55 6.16-.78 9.5-.48 6.7-.83 14.09-1.11 21.84-.52 15.52-1.12 29.56-1.53 39.73-.22 5.05-.41 9.15-.53 12.04-.07 1.39-.13 2.49-.17 3.27-.02.35-.04.63-.06.85-.02.19-.03.29-.04.29-.01 0-.01-.1-.02-.29 0-.22 0-.5.01-.85.02-.79.04-1.88.07-3.28.09-2.88.21-6.99.37-12.04.35-10.2.84-24.23 1.38-39.73.28-7.76.64-15.15 1.15-21.86.25-3.36.53-6.53.83-9.52.2-1.5.51-2.91.88-4.26.19-.67.4-1.33.69-1.95.29-.66.85-1.13 1.42-1.46 1.15-.65 2.37-.9 3.51-1.09 1.14-.18 2.23-.25 3.24-.29 2.03-.07 3.77.02 5.19.11 1.42.1 2.52.22 3.26.32.35.05.62.09.84.12.19.03.28.05.28.06zM292.99 328.09c.01 0 .01.12-.01.35-.03.23-.05.58-.13 1.03-.16.9-.51 2.23-1.4 3.74-.89 1.49-2.36 3.16-4.58 4.32-1.1.57-2.38 1.01-3.78 1.21-1.41.19-2.89.11-4.43.13-3.1 0-6.49.01-10.13.01h-5.64c-.96.01-1.96-.02-2.94.02-.97.04-1.94.26-2.84.67-1.81.81-3.32 2.4-4.02 4.35-.37.98-.48 2.02-.47 3.1v3.31c0 4.45 0 9.06.01 13.79-.03 18.88-.06 35.97-.08 48.38-.03 6.17-.06 11.17-.08 14.66-.02 1.71-.04 3.04-.05 3.99-.01.43-.02.78-.03 1.04-.01.23-.02.35-.03.35-.01 0-.02-.12-.03-.35-.01-.26-.01-.6-.03-1.04-.01-.94-.03-2.28-.05-3.99-.02-3.49-.05-8.5-.08-14.66-.02-12.41-.05-29.5-.08-48.38v-13.79-3.31c-.02-1.1.11-2.24.5-3.27a8.167 8.167 0 014.29-4.62c.96-.43 1.99-.67 3.02-.71 1.02-.03 1.99 0 2.96 0l5.64.03c3.64.02 7.03.04 10.12.05 1.55-.01 3.03.08 4.39-.09 1.36-.18 2.61-.59 3.69-1.14 2.17-1.11 3.64-2.72 4.54-4.17a12.03 12.03 0 001.47-3.66c.09-.44.13-.79.17-1.02.09-.21.1-.33.11-.33z" fill="#455a64"/><g><path d="M265.47 350.43c.14.01.16 1.78.04 3.97-.12 2.18-.34 3.95-.48 3.94-.14-.01-.16-1.78-.04-3.97.12-2.18.34-3.94.48-3.94z" fill="#455a64"/></g></g></g><g><path d="M122.35 293.29s-1.11-8.83-.23-8.83c.88 0 1.4 8.83 1.4 8.83h-1.46" fill="#263238"/><path d="M125.23 293.29s-1.11-8.83-.23-8.83c.88 0 1.4 8.83 1.4 8.83h-1.46" fill="#f5a046"/><path d="M125.23 293.29s-1.11-8.83-.23-8.83c.88 0 1.4 8.83 1.4 8.83h-1.46" opacity=".3"/><path d="M129.64 293.29s-1.11-8.83-.23-8.83c.88 0 1.4 8.83 1.4 8.83h-1.46" fill="#263238"/><path d="M127.06 293.75s0-8.9.87-8.79c.87.11.29 8.93.29 8.93l-1.45-.18" fill="#455a64"/><path d="M124.36 293.29s-1.11-8.83-.23-8.83c.88 0 1.4 8.83 1.4 8.83h-1.46" fill="#f5a046"/><path d="M124.36 293.29s-1.11-8.83-.23-8.83c.88 0 1.4 8.83 1.4 8.83h-1.46" opacity=".5" fill="#fff"/><path fill="#f5a046" d="M122.17 307.18l-1.47-13.89h11.78v13.89z"/></g><path fill="#263238" d="M372.64 307.24H112.35v6.95h13.92l-7.21 132.64h3.97l7.21-132.64h228.2l6.15 132.62 4.39.23-6.57-132.85h10.23z"/><g><path fill="#263238" d="M197.57 266.19L212 308.37h65.35l-.48-2.18-26.42-.81-12.18-39.21z"/><path d="M226.53 286c.43 1.73-.31 3.42-1.65 3.78-1.34.36-2.78-.75-3.22-2.48-.43-1.73.31-3.42 1.65-3.78 1.35-.36 2.79.75 3.22 2.48z" fill="#fff"/></g><g><path d="M352.99 294.34c-1.26-1.07-2.99-1.21-4.06-1.17.01-.78-.03-1.26-.03-1.26h-22.13s-.7 14.61 10.49 15.13c5.01.23 7.87-2.01 9.51-4.84.53.13 1.46.31 2.51.31 1.17 0 2.46-.22 3.48-.99.76-.57 1.66-1.68 1.66-3.74.02-1.83-.77-2.88-1.43-3.44zm-1.51 5.43c-.94.71-2.64.6-3.74.4.62-1.67.93-3.37 1.08-4.8.76-.05 2.03.02 2.77.64.45.38.68.96.68 1.77-.01.94-.26 1.6-.79 1.99z" fill="#f5a046"/><path d="M347.08 290.37s-.23-.18-.53-.62c-.3-.44-.7-1.15-.91-2.16-.21-1-.24-2.32.33-3.69.55-1.4 1.82-2.56 3.1-3.8 1.31-1.22 2.41-2.9 2.8-4.96.42-2.03.08-4.37-1.19-6.34a8.935 8.935 0 00-2.46-2.56c-1-.7-2.19-1.12-3.42-1.54-1.22-.43-2.54-.86-3.61-1.82-.52-.47-.97-1.03-1.28-1.69-.3-.66-.44-1.43-.26-2.17.03-.1.06-.21.08-.3l.33.33c-1.2.41-1.88 1.71-2.02 2.95-.15 1.26.29 2.52.82 3.66.54 1.15 1.22 2.23 1.72 3.4.5 1.16.84 2.41.7 3.66-.13 1.26-.81 2.35-1.65 3.15-.84.81-1.8 1.39-2.77 1.85-1.95.88-3.85 1.4-5.37 2.31a7.484 7.484 0 00-3.12 3.46 8.301 8.301 0 00-.75 3.49c.03 2 .66 3 .57 3.02-.01 0-.04-.06-.1-.18-.05-.12-.16-.3-.24-.55-.19-.5-.39-1.27-.44-2.28-.04-1.01.12-2.28.69-3.61.55-1.33 1.62-2.72 3.2-3.66 1.56-.97 3.49-1.51 5.38-2.38.93-.45 1.86-1.02 2.64-1.78.77-.76 1.38-1.75 1.49-2.88.13-1.13-.19-2.3-.68-3.41-.48-1.12-1.16-2.2-1.73-3.38-.55-1.17-1.04-2.51-.88-3.94.08-.7.29-1.39.68-2 .38-.62.97-1.13 1.68-1.38l.47-.17-.14.5c-.02.08-.05.16-.07.25-.3 1.24.44 2.52 1.38 3.35.95.86 2.22 1.29 3.43 1.72 1.22.42 2.48.86 3.53 1.61 1.06.73 1.93 1.67 2.58 2.71a9.01 9.01 0 011.21 6.68c-.42 2.15-1.62 3.92-2.97 5.14-1.32 1.24-2.55 2.34-3.09 3.65a6.19 6.19 0 00-.4 3.53c.41 2 1.35 2.8 1.27 2.83z" fill="#263238"/></g><g><path fill="#263238" d="M142.8 270.88l-.13-9.56 33.51 2.84.95 8.53z"/><path d="M146.49 271.08c-.14 0-.34-2.11-.44-4.71-.1-2.6-.07-4.72.08-4.73.14-.01.34 2.1.44 4.71.1 2.61.06 4.73-.08 4.73zM147.75 261.75c.14 0 .31 2.1.36 4.7.06 2.6-.01 4.71-.16 4.71-.14 0-.31-2.1-.36-4.7-.06-2.6.02-4.71.16-4.71z" fill="#455a64"/><path d="M150.8 265.96c5.84.64 12.71 1.01 18.64 1.54" fill="#fff"/><path d="M169.44 267.5c-.01.07-1.05.04-2.74-.04-1.69-.09-4.02-.23-6.6-.42-2.58-.19-4.91-.41-6.59-.62-1.68-.2-2.72-.39-2.71-.46.01-.07 1.05-.02 2.74.09 1.86.13 4.11.29 6.59.46 2.57.19 4.91.39 6.59.57 1.69.19 2.73.35 2.72.42zM171.89 272.41c-.14.01-.35-1.9-.47-4.27-.12-2.36-.09-4.29.05-4.29.14-.01.35 1.9.47 4.27.11 2.37.09 4.29-.05 4.29zM173.95 272.52c-.14.01-.45-1.89-.68-4.26-.23-2.37-.31-4.3-.16-4.31.14-.01.45 1.89.68 4.26.23 2.37.3 4.3.16 4.31z" fill="#455a64"/><g><path d="M155.77 268.1c3.69.25 6.5.44 9.45.5" fill="#fff"/><path d="M165.21 268.6c0 .14-2.12.15-4.73.01-2.61-.14-4.72-.37-4.71-.51.01-.14 2.13-.15 4.73-.01 2.61.14 4.72.37 4.71.51z" fill="#455a64"/></g><g><path fill="#f5a046" d="M149.28 307.36l-.91-9.52 33.62.06 1.83 9.34z"/><path opacity=".5" fill="#fff" d="M149.28 307.36l-.91-9.52 33.62.06 1.83 9.34z"/><path fill="#263238" d="M156.03 303.26l.003-1.72 21.03.036-.003 1.72z"/></g><g><path fill="#263238" d="M144.54 298.64l-.81-9.52 33.62.41 1.57 8.45z"/><path fill="#fff" d="M143.84 290.41l.53 6.43 32.7-.33-1.04-5.88z"/><path d="M174.31 293.26c0 .04-.42.06-1.18.08-.87.01-1.94.02-3.22.03-2.72 0-6.47-.03-10.61-.1s-7.89-.16-10.61-.26c-1.27-.05-2.35-.1-3.21-.14-.76-.04-1.18-.08-1.18-.12 0-.04.42-.06 1.18-.08.87-.01 1.94-.02 3.22-.03 2.72 0 6.47.03 10.61.1s7.89.16 10.61.26c1.27.05 2.35.1 3.21.14.76.04 1.18.08 1.18.12zM174.31 294.07c0 .04-.42.08-1.19.12-.87.04-1.96.08-3.24.13-2.73.09-6.51.17-10.68.23s-7.95.08-10.69.08c-1.28-.01-2.36-.03-3.24-.04-.76-.02-1.19-.05-1.19-.09 0-.04.42-.08 1.19-.12.87-.03 1.96-.08 3.24-.13 2.73-.09 6.51-.17 10.69-.23 4.17-.06 7.95-.08 10.68-.08 1.28.01 2.37.03 3.24.04.76.03 1.19.06 1.19.09z" fill="#263238"/></g><g><path fill="#455a64" d="M145.04 289.55l-.63-9.54 33.61 1.06 1.4 8.47z"/><path fill="#fff" d="M146.37 288.35l32.71-.47-.91-5.94-32.41-.6z"/></g><g><path fill="#f5a046" d="M145.96 280.2l-.31-9.56 33.55 2.19 1.12 8.51z"/><path fill="#263238" d="M152.953 276.53l.112-1.716 20.985 1.363-.111 1.716z"/></g><g><path d="M178.5 284.39c0 .04-.46.07-1.28.11-.93.03-2.1.06-3.5.1-2.95.06-7.03.1-11.54.12-4.51.02-8.59 0-11.54-.03-1.4-.03-2.57-.05-3.5-.07-.83-.03-1.28-.06-1.29-.1 0-.04.46-.07 1.28-.11.93-.03 2.1-.06 3.5-.1 2.95-.06 7.04-.1 11.55-.12 4.51-.02 8.59 0 11.55.03 1.4.03 2.57.05 3.5.07.82.03 1.27.06 1.27.1z" fill="#263238"/></g><g><path d="M178.89 286.24c0 .04-.46.06-1.29.08-.94.01-2.12.02-3.52.03-2.98.01-7.08-.02-11.62-.08-4.54-.06-8.65-.15-11.62-.24-1.41-.05-2.59-.1-3.52-.13-.83-.04-1.29-.08-1.29-.12 0-.04.46-.06 1.29-.08.94-.01 2.12-.02 3.52-.03 2.98-.01 7.09.02 11.63.08 4.54.06 8.65.15 11.62.24 1.41.05 2.58.1 3.52.13.82.04 1.28.08 1.28.12z" fill="#263238"/></g></g></g></svg>