<svg xmlns="http://www.w3.org/2000/svg" viewBox="0 0 500 500"><path d="M124.85 359.34c-1.99-2.11-4.95-2.9-7.68-3.9-11.95-4.4-21.59-14.66-25.24-26.87-3.65-12.21-1.22-26.07 6.36-36.31l-.41-2.12c-.93-9.85-12.83-16.92-21.92-13.02-9.09 3.9-12.18 17.39-5.68 24.86-10.67.88-17.73 13.05-16.22 23.65 1.5 10.6 9.26 19.31 17.9 25.64 14.17 10.38 31.65 16.16 49.21 16.26 1.2.01 2.46-.03 3.49-.63 2.51-1.46 2.19-5.45.19-7.56zM422.2 316.21c2.45-3.98 2.8-9.35.31-13.31-2.49-3.96-7.95-5.96-12.2-4 2.38-3.97.99-9.73-2.94-12.17-3.93-2.45-9.71-1.16-12.22 2.73-2.84 4.39-1.34 10.28 1.1 14.9 2.44 4.62 5.79 8.97 6.59 14.13.82 5.28-1.2 10.68-4.36 14.99-3.16 4.31-7.37 7.7-11.54 11.05l-.8.77c7.47 2.59 16.03 1.85 22.95-1.97 3.92-2.17 7.55-5.76 7.81-10.23.14-2.5-.79-5-.41-7.48.57-3.67 3.77-6.26 5.71-9.41zM207.15 479.69c-3.89-.48-7.79-2.19-10.08-5.37-1.46-2.04-2.17-4.52-3.44-6.68s-3.48-4.11-5.97-3.87c-3.87.38-6.47 5.72-10.24 4.78-2.26-.57-3.34-3.23-3.36-5.56-.02-2.33.67-4.66.38-6.98-.82-6.51-9.17-9.71-15.41-7.67-6.23 2.03-15.71 9.56-19.77 14.7 4.27 7.11 13.05 9.87 21.09 11.88 13.5 3.39 27.13 6.26 40.85 8.61 3.22.55 6.5 1.08 9.73.57 3.22-.51 6.43-2.22 7.92-5.12-3.88.61-7.81 1.2-11.7.71zM361.97 429.55c-.99-5.56-6.54-10.46-12.04-9.18 4.56-3.76 4.59-11.32.98-16s-9.87-6.71-15.78-6.53c-5.91.18-11.58 2.25-17.07 4.45 2.69-3.43-1.25-8.76-5.59-9.05-4.35-.29-8.23 2.48-11.75 5.04-3.52 2.56-7.59 5.16-11.9 4.49l4.04 1.61c9.65 1.46 19.38 3.72 27.73 8.76 8.35 5.04 15.23 13.26 16.68 22.91 1.44 9.65-3.64 20.45-12.79 23.83 12.34.77 24.9-4.9 32.49-14.67 3.47-4.46 5.99-10.11 5-15.66zM44.93 285.35c-.14 0-.26-4.17-.26-9.31 0-5.14.12-9.31.26-9.31s.26 4.17.26 9.31c0 5.14-.11 9.31-.26 9.31z" fill="#e0e0e0"/><path d="M54.56 276.04c0 .14-4.31.26-9.63.26-5.32 0-9.63-.12-9.63-.26s4.31-.26 9.63-.26c5.32 0 9.63.11 9.63.26zM416.42 381.09c-.14 0-.26-4.17-.26-9.31 0-5.14.12-9.31.26-9.31s.26 4.17.26 9.31c0 5.14-.12 9.31-.26 9.31z" fill="#e0e0e0"/><path d="M426.05 371.77c0 .14-4.31.26-9.63.26-5.32 0-9.63-.12-9.63-.26s4.31-.26 9.63-.26c5.31 0 9.63.12 9.63.26zM359.91 61.45c-.14 0-.26-4.17-.26-9.31 0-5.15.12-9.31.26-9.31s.26 4.17.26 9.31c0 5.14-.12 9.31-.26 9.31z" fill="#e0e0e0"/><path d="M369.54 52.13c0 .14-4.31.26-9.63.26-5.32 0-9.63-.12-9.63-.26s4.31-.26 9.63-.26c5.32 0 9.63.12 9.63.26z" fill="#e0e0e0"/><circle cx="55.65" cy="197.85" r="5.69" fill="#e0e0e0"/><path d="M282.76 440.24c0 3.14-2.55 5.69-5.69 5.69s-5.69-2.55-5.69-5.69c0-3.14 2.55-5.69 5.69-5.69s5.69 2.55 5.69 5.69zM335.72 332.68c0 3.14-2.55 5.69-5.69 5.69-3.14 0-5.69-2.55-5.69-5.69 0-3.14 2.55-5.69 5.69-5.69 3.14 0 5.69 2.55 5.69 5.69zM166.61 49.26c0 3.14-2.55 5.69-5.69 5.69-3.14 0-5.69-2.55-5.69-5.69 0-3.14 2.55-5.69 5.69-5.69 3.14 0 5.69 2.55 5.69 5.69z" fill="#e0e0e0"/><circle cx="190.73" cy="385.97" r="2.85" fill="#e0e0e0"/><path d="M124.91 371.77c0 1.57-1.27 2.85-2.85 2.85s-2.85-1.27-2.85-2.85c0-1.57 1.27-2.85 2.85-2.85s2.85 1.28 2.85 2.85zM195.07 54.95c0 1.57-1.27 2.85-2.85 2.85s-2.85-1.27-2.85-2.85c0-1.57 1.27-2.85 2.85-2.85s2.85 1.28 2.85 2.85zM320.43 208.94c0 1.57-1.27 2.85-2.85 2.85-1.57 0-2.85-1.27-2.85-2.85s1.27-2.85 2.85-2.85c1.57 0 2.85 1.27 2.85 2.85z" fill="#e0e0e0"/><g><path d="M47.13 46.5s-6.34 3.27 2.54 16.55c8.88 13.28 14.7 19.68 14.7 19.68s1.67 3.13-1.03 3.96c-2.7.84-8.89.59-9.73 4.11-.86 3.65 2.08 6.66 7.58 8.95 5.5 2.29 17.38 7.75 18.45 8.24 1.05.49 2.22 1.9.47 2.76-1.75.86-15.25 3.91-13.43 10.23 1.83 6.32 18.21 10.18 19.99 10.64 1.78.46 2.28 1.13 2.25 2.08-.03.95-4.66 1.55-8.47 2.57-3.81 1.02-8.04 2.88-6.68 6.44 1.36 3.56 11.57 10.17 34.42 9.71l10.57-.91 4.68-9.58c8.77-21.11 6.34-33.03 3.52-35.59-2.82-2.57-6.09.7-8.43 3.87s-4.59 7.27-5.48 6.95c-.9-.32-1.34-1.03-1.12-2.85.23-1.83 2.61-18.48-2.61-22.49-5.22-4.01-12.98 7.45-14.43 8.77-1.44 1.31-2.33-.29-2.4-1.44-.07-1.18-.82-14.23-.94-20.19-.12-5.96-1.85-9.79-5.57-10.32-3.58-.51-5.61 5.35-7.38 7.55-1.76 2.21-4.07-.48-4.07-.48s-3.84-7.76-12.96-20.87C52.47 41.73 47 46.58 47 46.58" fill="#ebebeb"/><path d="M119.6 153.93c-6.66-9.66-18.21-27.02-28.2-41.87-9.99-14.85-19.04-28.28-25.65-37.97-3.3-4.83-5.98-8.75-7.84-11.47-.92-1.35-1.63-2.39-2.13-3.12-.23-.35-.42-.62-.55-.82-.12-.18-.18-.28-.18-.28s.07.09.2.27c.14.19.33.46.57.8.51.72 1.24 1.75 2.18 3.08 1.89 2.68 4.6 6.58 7.93 11.41 6.66 9.66 15.75 23.07 25.73 37.92 9.99 14.85 21.51 32.23 28.12 41.92" fill="#e0e0e0"/><path d="M62.26 91.5c.01-.02.28.02.76.12.48.09 1.18.25 2.04.45 1.72.41 4.07 1.03 6.66 1.77 2.55.74 4.85 1.4 6.61 1.91.8.22 1.47.41 2.01.57.47.13.73.21.73.24 0 .02-.28-.02-.76-.11-.48-.1-1.18-.25-2.04-.47-1.71-.43-4.06-1.08-6.64-1.82-2.55-.72-4.86-1.37-6.62-1.86-.8-.22-1.47-.41-2.01-.56-.48-.13-.74-.22-.74-.24zM81.7 95.8c-.09-.02.99-4.93 2.4-10.97 1.41-6.04 2.63-10.92 2.72-10.89.09.02-.99 4.93-2.4 10.97-1.41 6.03-2.63 10.91-2.72 10.89zM96.02 119.3c-.02-.01.11-.26.35-.7.28-.5.63-1.12 1.05-1.86.88-1.57 2.09-3.74 3.33-6.18 1.25-2.44 2.3-4.69 3.05-6.32.35-.77.65-1.42.89-1.93.21-.46.34-.7.36-.7.02.01-.07.27-.24.75-.18.47-.45 1.15-.8 1.98a98.93 98.93 0 01-2.97 6.38c-1.25 2.45-2.49 4.61-3.42 6.15-.47.77-.86 1.39-1.14 1.8-.28.41-.44.64-.46.63zM77.58 119.28c0-.02.26-.05.72-.07.54-.02 1.19-.05 1.97-.08 1.66-.05 3.96-.1 6.49-.13 2.54-.03 4.83-.04 6.5-.03.78.01 1.43.02 1.97.03.46.01.72.03.72.06 0 .02-.26.05-.72.07-.53.02-1.19.05-1.97.08-1.66.05-3.96.1-6.49.13-2.54.03-4.83.04-6.49.03-.78-.01-1.43-.02-1.97-.03-.48-.02-.73-.04-.73-.06zM87.58 141.63c0-.02.33-.05.92-.08.66-.03 1.5-.06 2.52-.11 2.13-.08 5.07-.16 8.32-.23s6.19-.12 8.32-.13h2.52c.6.01.93.02.93.04s-.33.05-.92.08c-.66.03-1.5.06-2.52.11-2.13.08-5.07.16-8.32.23s-6.19.12-8.32.13h-2.52c-.6 0-.93-.02-.93-.04zM110.55 140.98c-.02-.01.13-.33.42-.9.32-.62.74-1.43 1.24-2.4 1.05-2.03 2.48-4.83 3.97-7.97 1.5-3.14 2.78-6.02 3.7-8.11.44-1 .81-1.84 1.08-2.47.26-.58.41-.9.43-.89.02.01-.09.34-.31.94-.22.6-.56 1.46-.99 2.52a155.869 155.869 0 01-7.68 16.1c-.55 1-1.01 1.8-1.33 2.35-.32.54-.51.84-.53.83z" fill="#e0e0e0"/></g><g><path d="M390.5 236.98c-11.27-9.83-12.34-25.94-10.32-40.1.34-2.36.34-4.89 1.7-6.85 1.35-1.96 4.14-3.1 6.16-1.87 1.67 1.02 2.22 3.15 3.02 4.95 1.07 2.4 2.82 4.47 4.99 5.91 1.43.95 3.24 1.63 4.82.97 2.17-.91 2.71-3.71 2.95-6.07.45-4.4.89-8.8 1.34-13.2.24-2.36.49-4.77 1.47-6.93s2.82-4.07 5.13-4.45c2.31-.39 4.95 1.21 5.17 3.57.09.98-.21 1.96-.25 2.94-.04.99.3 2.12 1.2 2.49.91.38 1.93-.19 2.71-.8 2.69-2.12 4.68-5.01 6.55-7.9 1.87-2.89 3.71-5.85 6.2-8.21s5.77-4.09 9.17-3.92c3.4.17 6.78 2.65 7.27 6.06.5 3.42-1.81 6.58-4.21 9.05a52.84 52.84 0 01-12.09 9.27c-.8.45-1.67.93-2.05 1.77-.68 1.52.64 3.24 2.14 3.92 1.7.78 3.62.8 5.44 1.21 1.82.41 3.72 1.44 4.23 3.25.71 2.52-1.58 4.83-3.75 6.27a45.275 45.275 0 01-14.18 6.27c-1.8.45-3.69.81-5.22 1.88-1.53 1.07-2.6 3.1-1.94 4.85.67 1.76 2.78 2.52 4.63 2.38 1.85-.14 3.59-.95 5.39-1.42 3.37-.87 7.54-.2 9.31 2.83 1.17 1.99 1.01 4.57.08 6.69s-2.53 3.86-4.21 5.45c-5.85 5.54-13.04 9.73-20.84 11.53-7.78 1.8-14.83 1.75-22.01-1.79" fill="#f5f5f5"/><path d="M395.13 228.47c2.86-6.95 6.64-14.3 10.85-21.86 1.06-1.88 2.11-3.75 3.14-5.58 1.03-1.83 2.06-3.65 3.17-5.36 2.21-3.44 4.6-6.57 6.96-9.48 2.36-2.91 4.7-5.58 6.91-8.07 2.22-2.48 4.33-4.75 6.34-6.74 4.01-3.99 7.62-6.83 10.18-8.67 1.28-.93 2.29-1.61 2.99-2.07.33-.22.6-.39.79-.51.18-.11.27-.17.28-.16 0 .01-.08.07-.25.2-.19.14-.45.32-.77.55-.68.48-1.67 1.19-2.94 2.13a88.001 88.001 0 00-10.06 8.76c-1.99 2-4.08 4.28-6.28 6.76-2.2 2.49-4.53 5.17-6.87 8.08s-4.71 6.04-6.91 9.46c-1.1 1.71-2.12 3.51-3.15 5.34-1.03 1.83-2.08 3.7-3.13 5.58-4.21 7.55-7.98 14.88-10.86 21.8" fill="#e0e0e0"/><path d="M412.41 195.67c-.03 0-.07-.37-.12-1.03-.05-.67-.1-1.63-.14-2.82-.08-2.39-.08-5.68-.06-9.32.02-3.64-.03-6.93-.15-9.3-.06-1.19-.11-2.15-.15-2.81-.04-.66-.05-1.03-.02-1.04.03 0 .1.36.19 1.02.1.66.2 1.62.29 2.81.2 2.38.29 5.68.28 9.32-.02 3.59-.05 6.83-.06 9.31v2.82c-.02.67-.03 1.04-.06 1.04z" fill="#e0e0e0"/><path d="M443.35 193.27c0 .03-.44.03-1.23.01-.79-.01-1.92-.04-3.33-.03-2.81 0-6.69.14-10.97.48-4.28.35-8.14.82-10.92 1.25-1.39.2-2.51.4-3.29.53-.78.13-1.21.19-1.22.16-.01-.03.42-.15 1.18-.33.77-.18 1.88-.42 3.27-.67 2.78-.51 6.64-1.03 10.93-1.38 4.29-.34 8.19-.43 11.01-.35 1.41.03 2.55.1 3.33.17.81.07 1.25.13 1.24.16zM395.56 227.95c-.01 0-.07-.13-.17-.39-.11-.31-.24-.69-.4-1.15-.34-1-.8-2.47-1.35-4.28-1.09-3.63-2.44-8.7-3.85-14.31-1.41-5.61-2.71-10.68-3.72-14.33-.5-1.78-.91-3.24-1.21-4.32-.13-.47-.24-.86-.32-1.18-.07-.27-.1-.41-.08-.42.01 0 .07.13.17.39.11.31.24.69.4 1.15.34 1 .8 2.47 1.35 4.28 1.09 3.63 2.44 8.7 3.85 14.31 1.41 5.61 2.71 10.68 3.72 14.33.5 1.77.91 3.23 1.21 4.32.13.47.24.86.32 1.18.07.27.1.42.08.42z" fill="#e0e0e0"/><path d="M437.27 219.31c0 .02-.14.06-.42.12-.33.07-.73.16-1.21.27-1.12.23-2.63.55-4.47.93-3.77.79-8.97 1.94-14.71 3.22-5.74 1.28-10.96 2.38-14.75 3.09-1.89.36-3.43.63-4.5.8-.49.07-.9.13-1.23.18-.28.04-.43.05-.43.03 0-.01.14-.06.42-.12.33-.07.73-.16 1.21-.27 1.12-.23 2.63-.55 4.47-.93 3.77-.79 8.97-1.94 14.71-3.22 5.74-1.28 10.95-2.38 14.74-3.09 1.89-.36 3.43-.63 4.5-.8.49-.07.9-.14 1.23-.18.29-.04.44-.05.44-.03z" fill="#e0e0e0"/></g><g><path d="M303.63 68.03c1.82-10.42 6.78-25.64 12.73-34.38 5.95-8.74 15.12-15.69 25.59-17.14s22.03 3.46 26.75 12.92c2.53 5.07 2.99 10.91 4.84 16.27 1.84 5.36 5.89 10.72 11.54 11.15 5 .38 9.82-3.22 14.75-2.26 6.41 1.25 8.89 9.15 8.92 15.68.04 6.53-.89 13.78 3.12 18.94 3.28 4.22 8.91 5.67 13.45 8.5 9.81 6.12 14.01 18.75 13.01 30.27-.99 11.52-6.3 22.18-11.93 32.27a252.285 252.285 0 00-19.05-47.89c-4.55-8.72-12.85-16.13-20.2-22.66-11.29-10.02-36.07-14.81-51.05-16.65-14.99-1.84-17.64-2.24-32.47-5.02" fill="#e0e0e0"/></g><g><path d="M203.71 80.3c-37.08 2.69-77.55 7.6-107.23 19l9.37 63.43s57.53-20.59 104.33-19.16l-6.47-63.27z" fill="#5c9ca4"/><path d="M203.71 80.3c-37.08 2.69-77.55 7.6-107.23 19l9.37 63.43s57.53-20.59 104.33-19.16l-6.47-63.27z" fill="#fff" opacity=".8"/><path d="M201.04 135.2c0 .01-.12.03-.36.07-.26.04-.61.08-1.05.14l-4.05.51c-1.76.21-3.91.47-6.4.83s-5.33.71-8.45 1.23c-12.51 1.93-29.72 5.13-48.43 9.96-6.5 1.68-12.77 3.41-18.5 5.21l-.28.09-.04-.29c-2-14.54-3.94-27.08-5.43-35.97-.76-4.42-1.37-7.95-1.79-10.41-.21-1.19-.37-2.12-.49-2.78-.05-.3-.09-.53-.12-.72-.02-.16-.03-.25-.02-.25.01 0 .03.08.07.24.04.18.09.42.16.71.14.66.33 1.58.57 2.77.48 2.42 1.15 5.95 1.93 10.39 1.57 8.88 3.58 21.41 5.62 35.96l-.32-.2c5.75-1.82 12.01-3.55 18.53-5.23 18.72-4.84 35.97-7.98 48.5-9.82 3.13-.5 5.98-.83 8.47-1.16 2.49-.34 4.65-.57 6.41-.74 1.74-.18 3.1-.31 4.06-.41.44-.04.79-.07 1.06-.09.23-.05.35-.05.35-.04z" fill="#5c9ca4"/><path d="M202.3 119.78c-.03.01-.14-.44-.43-1.26-.32-.81-.89-1.97-1.91-3.28-1.02-1.3-2.49-2.73-4.5-3.94-.49-.33-1.05-.56-1.6-.85-.58-.22-1.17-.5-1.81-.65-1.26-.38-2.67-.59-4.12-.4-1.44.17-2.92.69-4.2 1.65-1.29.94-2.41 2.21-3.36 3.65-1.95 2.89-3.22 6.41-4.71 10.06-.79 1.8-1.81 3.67-3.49 5-.83.66-1.81 1.19-2.9 1.39-1.09.21-2.24.05-3.26-.38-4.22-1.67-6.1-6.54-10.37-8.02-2.09-.71-4.42-.43-6.33.52-.96.48-1.82 1.14-2.51 1.94-.69.8-1.2 1.74-1.67 2.69-.95 1.88-1.67 3.97-3.28 5.44-.79.72-1.81 1.22-2.88 1.3-1.06.09-2.11-.19-3.01-.65-1.81-.94-3.16-2.46-4.14-4.07-.96-1.65-1.55-3.37-2.19-4.99-.63-1.63-1.29-3.18-2.17-4.51-.88-1.33-2.02-2.41-3.32-3.08-2.6-1.38-5.51-1.22-7.6-.22-2.16.92-3.77 2.22-4.83 3.48-1.06 1.27-1.56 2.48-1.81 3.31-.26.83-.29 1.3-.33 1.29 0 0 0-.47.23-1.32.22-.85.7-2.1 1.75-3.41s2.68-2.65 4.87-3.62c2.14-1.05 5.17-1.26 7.89.16 1.36.69 2.56 1.81 3.48 3.18.92 1.37 1.6 2.95 2.24 4.58.65 1.62 1.25 3.34 2.18 4.91.95 1.55 2.26 3.01 3.97 3.88.85.43 1.8.67 2.75.59.95-.07 1.87-.52 2.59-1.18 1.48-1.34 2.2-3.39 3.16-5.3.48-.96 1-1.94 1.74-2.8.73-.86 1.65-1.55 2.66-2.06 2.03-1.01 4.49-1.31 6.73-.55 2.27.75 3.9 2.5 5.41 4.08 1.5 1.6 3.05 3.17 4.98 3.96.95.4 1.99.54 2.97.35.99-.18 1.9-.66 2.68-1.28 1.58-1.25 2.58-3.03 3.36-4.8 1.49-3.61 2.79-7.18 4.79-10.11.98-1.47 2.14-2.77 3.48-3.74 1.33-.99 2.89-1.53 4.4-1.69 1.51-.18 2.97.05 4.26.45.66.16 1.25.46 1.85.69.56.3 1.13.55 1.62.89 2.03 1.26 3.5 2.73 4.51 4.07 1.01 1.34 1.55 2.54 1.85 3.37.15.41.2.75.26.97.05.19.08.31.07.31zM104.05 111.45c.03.14-.46.35-1.08.47-.62.12-1.15.1-1.18-.04-.03-.14.46-.35 1.08-.47.63-.12 1.15-.1 1.18.04zM105.69 123.04c.06.13-.3.43-.81.67-.51.24-.97.32-1.03.19-.06-.13.3-.43.81-.67.51-.24.97-.33 1.03-.19zM107.74 135.69c.05.14-.33.39-.84.57-.51.18-.96.21-1.01.08-.05-.14.33-.39.84-.57.51-.18.96-.21 1.01-.08zM110.2 148.13c.04.14-.38.39-.95.57-.57.18-1.06.21-1.1.07-.04-.14.38-.39.95-.57.56-.17 1.05-.2 1.1-.07z" fill="#5c9ca4"/><g><path d="M180.11 88.36c-.03-.02.43-.15 1.21-.27.8-.14 1.96-.31 3.45-.52 2.97-.42 7.21-.97 12.26-1.59l.24-.03.02.24c.39 4.26.85 9.16 1.33 14.36l.02.22.02.25-.25.03c-6.1.75-11.79 1.44-16.58 2.03l-.22.03-.02-.22c-.46-4.35-.85-7.98-1.13-10.59-.12-1.21-.21-2.19-.28-2.92-.06-.69-.09-1.03-.07-1.02.02.01.08.38.18 1.07.1.74.24 1.72.4 2.95.33 2.58.78 6.16 1.33 10.45l-.25-.19c4.78-.61 10.46-1.33 16.57-2.11l-.23.28-.02-.22c-.46-5.2-.89-10.11-1.27-14.37l.26.21c-9.52 1.08-15.09 1.71-16.97 1.93z" fill="#5c9ca4"/><path d="M195.51 90.88c0 .15-2.85.15-6.33.53-3.48.36-6.27.96-6.3.81-.04-.13 2.72-.96 6.25-1.32 3.51-.39 6.39-.15 6.38-.02zM195.69 94.6c0 .15-2.66.25-5.91.57-3.26.31-5.88.72-5.91.57-.03-.13 2.58-.78 5.86-1.09 3.28-.32 5.96-.19 5.96-.05zM191.72 97.84c.02.14-1.49.45-3.37.69-1.88.24-3.42.32-3.44.17-.02-.14 1.49-.45 3.37-.69 1.88-.23 3.42-.31 3.44-.17z" fill="#5c9ca4"/></g><g><path d="M384.43 98.96c-36.3-11.06-66.93-20.51-108.05-20.25l-6.29 64.63c42.71 3.78 56.98 6.58 96.42 20.85l17.92-65.23z" fill="#5c9ca4"/><path d="M384.43 98.96c-36.3-11.06-66.93-20.51-108.05-20.25l-6.29 64.63c42.71 3.78 56.98 6.58 96.42 20.85l17.92-65.23z" fill="#fff" opacity=".8"/><path d="M302.25 110.07l1.6-13.71c-3.81-.44-7.88.67-11.19 3.1-3.91 2.85-6.76 7.52-6.88 13.56-.01.66 0 1.34.06 2.03v.05l16.02-1.8.39-3.23zM318.8 107.83c-1.58-5.09-5.39-9.47-11.41-10.87-.16-.04-.32-.07-.49-.11l-.31-.06c-.31-.06-.62-.1-.93-.14-.01 0-.03 0-.04-.01-.01 0-.03 0-.04-.01l-1.6 13.71-.38 3.22 15.12 5.52.02.01c.38-1.13.64-2.31.78-3.51a18.7 18.7 0 00-.72-7.75z" fill="#5c9ca4"/><path d="M318.8 107.83c-1.58-5.09-5.39-9.47-11.41-10.87-.16-.04-.32-.07-.49-.11l-.31-.06c-.31-.06-.62-.1-.93-.14-.01 0-.03 0-.04-.01-.01 0-.03 0-.04-.01l-1.6 13.71-.38 3.22 15.12 5.52.02.01c.38-1.13.64-2.31.78-3.51a18.7 18.7 0 00-.72-7.75z" opacity=".3"/><path d="M302.48 115.1l-16.02 1.8c.67 7.76 6.33 14.19 13.93 15.12 7.64.94 14.73-3.98 17.22-11.4l-15.12-5.52M370.4 111.28c-.02.03-.52-.17-1.41-.57-.89-.4-2.19-.97-3.8-1.65-3.23-1.35-7.75-3.06-12.88-4.53-5.13-1.46-9.88-2.4-13.33-2.95-1.73-.28-3.13-.48-4.1-.61-.97-.13-1.51-.22-1.5-.26 0-.04.55-.01 1.52.06.98.07 2.39.21 4.13.45 3.48.46 8.26 1.35 13.42 2.82 5.16 1.48 9.69 3.24 12.89 4.69 1.6.72 2.88 1.34 3.75 1.8.85.45 1.33.72 1.31.75zM369.3 118.03c-.02.03-.52-.17-1.41-.57-.89-.4-2.19-.97-3.81-1.65-3.23-1.35-7.75-3.06-12.88-4.53-5.13-1.46-9.88-2.4-13.33-2.95-1.73-.28-3.13-.48-4.1-.61-.97-.13-1.51-.22-1.5-.26 0-.04.55-.01 1.52.06.98.07 2.39.21 4.13.45 3.48.46 8.26 1.35 13.42 2.82 5.16 1.48 9.69 3.24 12.89 4.69 1.6.72 2.88 1.34 3.75 1.8.87.45 1.34.71 1.32.75zM368.2 124.77c-.02.03-.52-.17-1.41-.57-.89-.4-2.19-.97-3.81-1.65-3.23-1.35-7.75-3.06-12.88-4.53-5.13-1.46-9.88-2.4-13.33-2.95-1.73-.28-3.13-.48-4.1-.61-.97-.13-1.51-.22-1.5-.26 0-.04.55-.01 1.52.06.98.07 2.39.21 4.13.45 3.48.46 8.26 1.35 13.42 2.82 5.16 1.48 9.69 3.24 12.89 4.69 1.6.72 2.88 1.34 3.75 1.8.87.45 1.34.72 1.32.75z" fill="#5c9ca4"/><g><path d="M366 131.52c-.02.03-.5-.17-1.37-.57-.86-.4-2.12-.97-3.68-1.64-3.12-1.35-7.51-3.05-12.49-4.52-4.98-1.46-9.59-2.41-12.95-2.96-1.68-.28-3.04-.48-3.99-.61-.94-.13-1.46-.22-1.46-.26 0-.04.53-.01 1.48.06.95.07 2.33.22 4.02.45 3.38.46 8.03 1.35 13.04 2.82 5.01 1.48 9.4 3.25 12.49 4.69 1.55.72 2.79 1.34 3.62 1.8.85.44 1.31.71 1.29.74z" fill="#5c9ca4"/></g><g><path d="M361.22 136.9c-.02.03-.46-.14-1.24-.49-.87-.39-1.98-.88-3.31-1.47-2.8-1.21-6.7-2.82-11.17-4.1-4.47-1.27-8.64-1.97-11.65-2.41-1.43-.2-2.63-.36-3.58-.5-.85-.12-1.31-.2-1.31-.23 0-.04.48-.02 1.33.03.85.05 2.09.16 3.61.33 3.04.35 7.24 1 11.75 2.28 4.51 1.29 8.41 2.96 11.18 4.27 1.38.66 2.49 1.21 3.24 1.62.76.4 1.17.64 1.15.67z" fill="#5c9ca4"/></g><g><path d="M345.09 137.66c-.02.07-1-.17-2.58-.53-1.58-.37-3.77-.84-6.21-1.26-2.44-.43-4.67-.73-6.28-.96-1.61-.22-2.61-.38-2.6-.45.01-.07 1.02-.05 2.64.09s3.87.38 6.32.81c2.46.42 4.65.96 6.22 1.42 1.57.45 2.51.82 2.49.88z" fill="#5c9ca4"/></g><g><path d="M282.68 86.37s.27-.02.83-.04c.59-.02 1.42-.05 2.5-.08 2.21-.05 5.4-.02 9.48.21 8.13.55 19.81 1.92 33.3 5.96l.18.06-.03.19c-2.5 14.32-5.48 31.35-8.66 49.58-.13.74-.26 1.47-.39 2.2l-.05.28-.27-.07c-7.59-1.99-15.07-3.48-22.23-4.59-7.16-1.1-14.01-1.88-20.38-2.28l-.24-.02.03-.24c1.75-15.29 3.22-28.09 4.25-37.1.52-4.46.94-7.97 1.22-10.4.14-1.18.25-2.09.33-2.73.04-.29.07-.52.09-.69.03-.17.04-.25.04-.24 0 0 0 .09-.01.25-.02.18-.04.42-.07.72-.07.65-.16 1.58-.28 2.78-.26 2.44-.63 5.98-1.1 10.46-.97 8.98-2.36 21.75-4.01 37l-.22-.25c6.39.39 13.25 1.15 20.43 2.24 7.18 1.1 14.68 2.58 22.29 4.58l-.32.21c.13-.72.26-1.46.39-2.2 3.21-18.22 6.21-35.24 8.73-49.56l.15.25c-13.41-4.06-25.07-5.51-33.18-6.12-4.06-.27-7.28-.34-9.44-.34-1.07 0-1.9 0-2.48.01l-.88-.03z" fill="#5c9ca4"/></g></g></g><g><path fill="#e8505b" d="M243.04 218.44l35.4 7.84 5.41-7.84-.87-10.09-5.38-4.92h-18.54l-17.32 15.6"/><path d="M243.04 218.44l35.4 7.84 5.41-7.84-.87-10.09-5.38-4.92h-18.54l-17.32 15.6" opacity=".3"/><path d="M297.02 145.54l44.68-6.02 7.03-1.98s16.11-3.54 17.61-4.07c1.74-.62 2.45.07 2.64.72.29 1.02-.69 2.17-2.17 2.75-.51.2-8.68 3.03-8.68 3.03s.81.13 2.76.8c1.95.66 3.83 3.18 4.77 6.12.94 2.94.94 3.84-.18 4.26-.45.17-.91.04-1.3-.18-.64-.36-1.11-.98-1.34-1.68-1.57-4.68-4.5-5.05-4.5-5.05l-.92.26s3.02 2.11 2.97 4.66c-.01.42-.1.78-.24 1.1.43 1.24.18 2.69-.65 3.71-.86 1.06-2.32 1.6-3.66 1.37-.64-.11-1.34-.49-1.43-1.14-.05-.34.08-.68.21-1 .06-.17.13-.35.16-.52l-2.68.37s-6.06.5-8.68 1.02l-41.84 12.6c-5.8 1.75-11.91-1.6-13.55-7.43-1.78-6.37 2.46-12.82 8.99-13.7z" fill="#ffbe9d"/><path d="M342.74 140.66c.07.94 1.01 1.59 1.93 1.78.92.19 1.88.07 2.81.19 2.78.38 4.95 2.91 7.75 3.15.39.03.88-.05 1-.42.11-.35-.19-.68-.46-.92l-6.97-6.16" fill="#ffbe9d"/><path d="M348.79 138.28c.02-.03.32.18.82.59.51.41 1.23 1 2.11 1.75.91.79 1.95 1.68 3.09 2.65l.89.77c.26.27.72.5.81 1.14.03.32-.22.64-.48.74-.26.12-.51.13-.75.12-.46-.04-.91-.12-1.35-.27-1.76-.57-3.11-1.63-4.47-2.27-.67-.33-1.34-.56-1.99-.66-.65-.1-1.28-.08-1.87-.12-1.19-.03-2.16-.54-2.55-1.1-.41-.57-.33-.99-.31-.98.05-.01.05.38.47.84.41.47 1.26.87 2.4.86.57.02 1.21-.03 1.91.06.71.09 1.43.33 2.14.65 1.42.64 2.79 1.68 4.42 2.2.4.13.82.21 1.21.25.39.03.72-.11.68-.32 0-.23-.32-.51-.62-.77l-.88-.79-3.01-2.74c-.85-.79-1.54-1.43-2-1.88-.45-.43-.7-.69-.67-.72zM357.35 144.39c.01.07.69-.3 1.76-.02.52.14 1.08.49 1.53 1.05.45.56.8 1.29 1.1 2.09.31.8.6 1.58 1.02 2.23.42.64.92 1.14 1.46 1.41.54.27 1.09.19 1.37.03.29-.16.4-.3.39-.31-.02-.03-.16.08-.44.19-.28.1-.74.14-1.2-.12-.47-.26-.93-.75-1.31-1.36-.38-.62-.66-1.38-.97-2.18-.31-.81-.67-1.58-1.18-2.17-.49-.6-1.14-.97-1.72-1.09-.58-.12-1.06-.05-1.37.04-.3.09-.45.19-.44.21zM367.39 136.7c-.02-.04-.64.18-1.63.55-1.11.41-2.43.89-3.88 1.43-1.47.51-2.79.98-3.9 1.37-1 .35-1.62.56-1.61.61.01.04.66-.09 1.68-.38 1.02-.29 2.42-.73 3.95-1.28 1.52-.55 2.89-1.1 3.86-1.53.97-.42 1.55-.73 1.53-.77zM356.17 146.88c-.02.02.12.16.35.41.21.24.57.66.5 1.23-.03.28-.22.52-.53.66-.3.15-.67.21-1.08.3-.4.08-.89.23-1.21.65-.3.41-.37.97-.2 1.47.17.51.57.88 1 1.08.44.2.9.27 1.35.2.84-.17 1.52-.48 2.07-.77.55-.3.96-.62 1.19-.89.23-.27.29-.47.28-.47-.03-.01-.12.15-.37.38s-.66.5-1.21.77c-.55.26-1.24.54-2.01.68-.72.11-1.7-.26-1.98-1.07-.13-.4-.08-.85.15-1.16.23-.31.62-.45 1.01-.54.39-.09.79-.16 1.14-.35.35-.17.62-.53.64-.89.04-.71-.41-1.13-.65-1.35-.26-.26-.43-.36-.44-.34z" fill="#eb996e"/><path d="M355.21 152.45c0-.02-.19 0-.44.21-.24.2-.54.64-.5 1.24.04.59.47 1.26 1.18 1.59.71.33 1.6.32 2.43.03.83-.29 1.5-.84 1.93-1.47.43-.63.61-1.31.65-1.87.04-.57-.05-1.02-.14-1.32-.1-.3-.19-.45-.21-.44-.07.01.24.66.11 1.73-.07.52-.26 1.15-.67 1.71-.4.56-1.03 1.06-1.78 1.33s-1.56.28-2.18 0c-.62-.27-1.01-.83-1.07-1.33-.06-.51.16-.91.35-1.12.19-.2.36-.26.34-.29zM347.78 148.78c.03-.01-.01-.32-.29-.77-.27-.44-.8-1.02-1.63-1.33l.02.3c.33-.16.68-.35 1.02-.57 1.93-1.22 2.88-2.86 2.8-2.89-.08-.07-1.13 1.43-2.99 2.6-.33.21-.67.4-.98.56l-.35.18.37.13c.75.26 1.27.75 1.57 1.14.3.38.41.66.46.65z" fill="#eb996e"/><g><path d="M361.69 144c-.07-.06-.54.46-.59 1.28-.06.82.34 1.4.41 1.35.09-.04-.13-.61-.07-1.33.05-.71.34-1.24.25-1.3z" fill="#eb996e"/></g><g><path d="M153.18 159.55s-6.53-10.58-7.68-11.47c-1.16-.9-11.49-4.68-12.37-4.4-.88.28-13.4 2.42-11.97 3.9 1.44 1.49 10.17-.13 10.17-.13l1.17.59s-7.54 1.2-9.13 2.12c-1.46.84-.96 2.63.42 2.49 1.38-.14 7.94-1.41 8.33-1.14.39.27-7.13 1.77-7.94 2.25-1.09.64-1.2 2.58.18 2.49.81-.06 7.9-1.89 7.9-1.89s-5.62 2.17-6.14 2.66c-.85.81-.18 2.03 1.04 1.76.84-.18 4.81-2.08 5.93-2.32 0 0 1.05.28 2 2.4.44.99 2.46 7.15 6.15 7.07 3.27-.07 6.48 2.62 6.48 2.62l5.46-9z" fill="#ffbe9d"/><path d="M121.19 147.61c-.02.07.82.42 2.28.63.73.1 1.61.16 2.58.11.96-.11 2-.25 3.1-.41.81-.12 1.59-.23 2.34-.34l-.14-.01c3.09 1.1 5.35 1.82 5.4 1.69.05-.12-2.14-1.05-5.21-2.22l-.06-.02-.08.01c-.73.1-1.51.2-2.32.31-1.07.16-2.09.31-3.07.45-.94.08-1.79.07-2.5.02-1.42-.1-2.3-.31-2.32-.22z" fill="#eb996e"/><g><path d="M148.29 158.3c-.76.71-2.02.53-2.91 0-.89-.54-1.58-1.36-2.43-1.96-2.55-1.79-6.21-1.37-8.67-3.28-.34-.27-.68-.7-.49-1.09.17-.36.66-.4 1.07-.39 3.44.08 6.88.17 10.31.25" fill="#ffbe9d"/><path d="M145.17 151.81c0-.04-.4-.09-1.11-.14-.72-.05-1.76-.11-3.04-.17-1.34-.05-2.85-.11-4.51-.17-.43-.01-.86-.03-1.3-.04-.41.02-.96-.14-1.51.31-.26.24-.3.68-.17.96.12.29.31.49.52.67.41.31.83.58 1.29.8 1.86.86 3.76 1.02 5.34 1.53.79.24 1.52.55 2.12.96.6.41 1.1.9 1.61 1.31.99.87 2.16 1.19 2.9 1.03.76-.15 1.01-.56.99-.56-.03-.05-.33.27-1.02.34s-1.68-.24-2.6-1.12c-.48-.41-.96-.93-1.6-1.39-.64-.46-1.41-.81-2.23-1.08-1.64-.55-3.54-.74-5.25-1.54-.43-.19-.82-.45-1.17-.72-.33-.27-.5-.63-.31-.77.18-.18.65-.17 1.09-.16.44.01.88.01 1.3.02 1.66.02 3.18.03 4.51.05 1.28 0 2.32 0 3.04-.02.71-.03 1.11-.06 1.11-.1z" fill="#eb996e"/></g></g><g><path d="M204.02 393.78l-2.38 26.23-7.87 20.21a2.69 2.69 0 001.71 3.55c.84.26 1.74.11 2.43-.42 4.43-3.38 20.67-15.87 20.73-17.8.08-2.23 4.35-27.5 4.35-27.5l-18.97-4.27z" fill="#e1a04e"/><path d="M195.47 443.77l23.37-19.99-.13 1.11c-.11.96-.55 1.85-1.26 2.51-1.88 1.76-7.19 6.52-19.47 15.96-.71.55-1.66.71-2.51.41zM214.43 414.73c-.71.38-1.03 1.35-.69 2.07.35.72 1.33 1.06 2.04.7.71-.37 1.14-1.52.71-2.19-.43-.68-1.6-1.02-2.21-.49" fill="#fff" opacity=".6"/><path d="M202.76 433.02c-.16.06-.59-1.38-2.06-2.3-1.44-.96-2.93-.75-2.95-.92-.02-.07.34-.23.96-.25.62-.02 1.49.17 2.3.68.8.52 1.34 1.24 1.58 1.81.24.58.23.97.17.98zM200.49 436.31c-.14.1-.88-.85-2.19-1.39-1.3-.57-2.49-.45-2.52-.62-.06-.14 1.26-.55 2.75.09 1.49.63 2.11 1.87 1.96 1.92zM206.74 428.92c-.14.11-1.27-1.35-3.23-2.37-1.95-1.05-3.79-1.17-3.78-1.35-.03-.14 1.96-.29 4.05.84 2.1 1.1 3.09 2.82 2.96 2.88zM208.13 421.01c-.09.15-1.46-.62-3.34-.9-1.87-.31-3.42 0-3.45-.17-.06-.14 1.53-.73 3.54-.4 2.02.3 3.35 1.36 3.25 1.47zM209.03 413.33c-.1.14-1.45-.9-3.45-1.03-1.99-.18-3.5.63-3.57.48-.04-.06.29-.36.93-.64.64-.28 1.61-.5 2.69-.42 1.07.09 2 .46 2.59.83.58.38.85.72.81.78zM205.79 410.84c-.03 0-.05-.36.08-.99s.42-1.54 1.08-2.5c.34-.45.7-1.05 1.47-1.31.38-.13.92 0 1.19.38.27.37.32.81.28 1.23-.22 1.66-1.83 3.1-3.72 3.13-1.9-.01-3.48-1.27-4.06-2.79-.12-.39-.18-.86.07-1.28.25-.42.8-.54 1.17-.43.76.2 1.2.71 1.62 1.09.82.83 1.29 1.65 1.55 2.24.26.59.33.94.3.95-.1.06-.51-1.36-2.14-2.89-.41-.36-.88-.8-1.44-.92-.27-.06-.52.02-.64.23-.12.2-.11.53 0 .84.49 1.25 1.94 2.4 3.54 2.38 1.6-.01 3.01-1.28 3.2-2.61.04-.32-.01-.66-.16-.87a.584.584 0 00-.65-.22c-.53.15-.94.66-1.27 1.08-1.3 1.8-1.36 3.3-1.47 3.26z" fill="#263238"/></g><g><path d="M228.14 409.17l19.63-155.45-6.28-36.14-37.02 1.96-4.61 186.76c-.04 1.39.94 2.61 2.3 2.88l21.56 3.32c2.15.33 4.14-1.18 4.42-3.33z" fill="#1c2f5c"/><path d="M247.2 258.93l35.7 35.34-51.37 12.49 3.66 25.92 69.54-9.46a21.883 21.883 0 0015.13-34.01l-54.17-79.52-24.2 7.89 5.71 41.35z" fill="#1c2f5c"/><path d="M245.23 249.94c.14-.03.7 1.96 1.24 4.44.54 2.48.87 4.52.73 4.55-.14.03-.7-1.96-1.24-4.44-.54-2.48-.87-4.52-.73-4.55z" fill="#455a64"/><path d="M240.03 310.02s.29-.11.85-.28l2.5-.78c2.22-.67 5.45-1.66 9.58-2.91 8.32-2.5 20.27-6.1 34.86-10.49l-.09.33c-12.09-12.87-26.76-28.5-42.86-45.64l.44-.15c-.85 7.17-1.74 14.66-2.64 22.3-4.42 37.03-8.57 70.52-11.79 94.75-1.6 12.11-3 21.9-4.03 28.65-.57 3.37-.95 5.99-1.34 7.75-.19.87-.33 1.53-.43 2-.1.45-.16.68-.16.68s.03-.24.11-.69c.09-.47.21-1.14.38-2.01.36-1.76.7-4.39 1.24-7.76.97-6.76 2.32-16.55 3.86-28.67 3.12-24.23 7.22-57.73 11.64-94.76.91-7.64 1.8-15.13 2.65-22.3l.07-.55.38.4c16.07 17.17 30.72 32.83 42.78 45.72l.22.24-.31.09c-14.62 4.32-26.58 7.86-34.91 10.32-4.15 1.21-7.39 2.16-9.61 2.81-1.09.31-1.93.55-2.52.72-.57.17-.87.23-.87.23z" fill="#455a64"/><path d="M228.47 406.24c-.14-.02 3.94-33.01 9.11-73.68 5.17-40.69 9.48-73.64 9.62-73.63.14.02-3.93 33-9.11 73.69-5.16 40.67-9.47 73.63-9.62 73.62zM241.41 233.49c.07-.02.39.9.83 2.41.44 1.51.98 3.61 1.49 5.96.51 2.34.89 4.48 1.12 6.04.23 1.55.32 2.52.25 2.54-.07.01-.29-.94-.61-2.47-.36-1.72-.79-3.75-1.27-5.99-.5-2.24-.96-4.26-1.34-5.98-.35-1.54-.55-2.5-.47-2.51zM243.7 230.44c-.06-.03.5-.49 1.45-.16.44.16.97.6 1.08 1.28.12.64-.12 1.46-.81 1.89-.71.41-1.55.23-2.05-.2-.54-.45-.62-1.17-.46-1.62.14-.47.44-.76.67-.89.23-.13.39-.13.39-.1.05.07-.55.28-.7 1.08-.07.38.02.86.41 1.16.37.3 1.01.41 1.48.13.47-.28.68-.89.61-1.37-.06-.49-.41-.84-.76-1.02-.74-.36-1.29-.1-1.31-.18zM293.42 300.32c-.11.12-2.12-1.73-5.01-3.4-2.88-1.69-5.49-2.52-5.44-2.67.02-.13 2.75.49 5.7 2.22 2.96 1.7 4.85 3.76 4.75 3.85z" fill="#455a64"/></g><g><path d="M216.25 111.61l-20.5 9.9 8.84 61.68-3.47 27.68c-.45 3.57.91 7.12 3.61 9.49l33.11-.65 23.19-12.75 10.65-1.8-4.36-21.07 1.95-29.89 24.23 12.94c1.87 1 4.04 1.26 6.09.73l44.43-11.49-2.31-17.12-40.22 4.55-30.63-27.06-22.8-5.13-4.06-6.72h-23.33l-1.63 1.22c-.78.58-1.37 1.39-1.69 2.31l-1.1 3.18z" fill="#e1a04e"/><path d="M195.75 121.51s-6.72 4.26-9.23 12.04c-2.34 7.28-7.63 36.71-7.63 36.71L155.6 155.8l-13.42 14.11 31.05 27.38a15.77 15.77 0 0017.29 2.38c4.77-2.3 8.07-6.84 8.79-12.09l3.81-27.91-7.37-38.16z" fill="#e1a04e"/><path fill="#ffbe9d" d="M265.69 209.69l-1.44-2.12-15.33 2.83-2.82 6.53z"/><path d="M204.73 220.36c13.7 5.51 28.32 3.49 41.37-3.43 3.94-2.09 7.59-4.68 11.54-6.74 3.95-2.06 8.34-3.58 12.79-3.27 4.45.31 8.93 2.77 10.71 6.85 1.78 4.09 0 9.65-4.19 11.18.49.44.99.88 1.48 1.32 6.15-2.86 9.07-11.14 6.07-17.23-2.3-4.67-7.14-7.45-10.68-11.26-5.21-5.6-5.75-16.45-5.79-24.88" fill="#e1a04e"/><path d="M234.78 123.54c0 .03-.36.05-1.01.06-.62.11-1.63.24-2.43 1.12-.79.85-1.23 2.29-1.21 3.91 0 1.61.32 3.47 1.11 5.24l.39.86-.75-.56a40.981 40.981 0 01-5.16-4.57c-3.96-4.13-6.61-8.67-7.94-12.16-.7-1.74-1.06-3.21-1.29-4.23-.18-1.03-.27-1.6-.23-1.6.12-.03.41 2.28 1.86 5.69 1.4 3.41 4.07 7.86 7.98 11.94 1.66 1.74 3.4 3.26 5.08 4.53l-.37.3c-.43-.94-.68-1.89-.85-2.8-.17-.92-.26-1.81-.23-2.65.01-1.68.5-3.21 1.41-4.12.91-.93 2-1.01 2.64-1.07.65.04 1 .08 1 .11z" fill="#263238"/><path d="M236.01 123.54c1.69-.73 4.19.35 5.4 1.73.8.91 1.25 2.18 2.31 2.78 1.06.6 4.39 1.06 5.36.32 0 0 .59-2.85.9-4.03 1.23-4.67 1.76-8.92 2.28-13.68-3.23-1.56-2.34-3.62-8.14-3.23 0 0 1.45 4.28.2 8.18" fill="#e1a04e"/><path d="M244.32 115.61c-.05-.02.21-.77.34-2.19.1-1.41.03-3.52-.72-5.93l-.07-.24.24-.01c1.28-.07 2.76-.19 4.28.39.76.29 1.39.88 1.98 1.42.59.55 1.24 1.03 2 1.39l.16.07-.02.18c-.26 2.43-.55 5.08-1.01 7.82-.3 1.79-.66 3.52-1.08 5.18-.42 1.65-.75 3.24-1.1 4.74l-.02.1-.07.04c-.58.37-1.16.39-1.71.42-.55.01-1.09-.03-1.61-.1s-1.02-.18-1.5-.33c-.47-.14-.96-.37-1.31-.72-.71-.68-1.08-1.49-1.54-2.11-.45-.63-1.02-1.09-1.58-1.43-1.12-.69-2.17-.9-2.88-.9-.71.01-1.07.19-1.08.15 0 0 .34-.25 1.08-.31.73-.06 1.84.12 3.03.8.59.34 1.21.81 1.71 1.47.5.65.89 1.44 1.53 2.03.63.58 1.62.75 2.6.9.5.06 1.01.1 1.53.08.51-.02 1.07-.09 1.44-.34l-.09.14c.34-1.51.67-3.13 1.08-4.77.41-1.64.76-3.36 1.06-5.14.46-2.72.76-5.36 1.03-7.78l.14.25c-.8-.38-1.51-.92-2.11-1.48-.6-.56-1.15-1.09-1.83-1.36-1.36-.54-2.82-.47-4.08-.42l.17-.25c.73 2.51.74 4.64.57 6.07-.1.72-.23 1.27-.34 1.63-.13.36-.2.54-.22.54zM278.48 210.03c-.04 0 .05-.4-.01-1.15-.05-.74-.26-1.86-.99-3.08-.72-1.22-1.93-2.53-3.68-3.55-1.74-1.03-4.02-1.59-6.56-1.8-2.54-.23-5.36-.09-8.39-.3-3.02-.21-6.27-.74-9.46-2.01-3.18-1.25-6.28-3.35-8.53-6.37a14.983 14.983 0 01-2.45-5.14c-.5-1.88-.63-3.85-.56-5.83.16-3.96 1.07-7.71 1.61-11.35.57-3.64.89-7.18 1-10.57.19-6.77-.41-12.87-1.32-17.91-.91-5.04-2.07-9.04-2.95-11.76-.43-1.37-.81-2.41-1.07-3.13-.11-.33-.21-.6-.28-.81-.06-.18-.09-.28-.08-.28.01 0 .05.09.13.26.08.21.19.47.33.8.28.7.7 1.74 1.16 3.1.95 2.71 2.16 6.71 3.12 11.76s1.6 11.18 1.43 17.99c-.1 3.4-.4 6.97-.98 10.63-.55 3.66-1.45 7.4-1.6 11.29-.2 3.87.69 7.73 2.9 10.64 2.17 2.93 5.19 4.99 8.3 6.23 3.12 1.26 6.32 1.79 9.31 2.02 2.99.22 5.82.1 8.39.36 2.56.23 4.9.83 6.67 1.92 1.77 1.07 2.99 2.44 3.7 3.7.72 1.27.9 2.43.92 3.18.02.38-.02.67-.05.86.02.21 0 .31-.01.3z" fill="#263238"/><path d="M263.52 191.79c.02.03-.39.45-1.15 1.19-.38.38-.86.83-1.44 1.31-.58.49-1.22 1.08-1.99 1.65-1.5 1.2-3.37 2.5-5.53 3.83a61.345 61.345 0 01-7.35 3.73c-2.7 1.12-5.36 1.97-7.81 2.62-2.46.61-4.71 1.03-6.61 1.26-.95.15-1.81.19-2.57.26-.76.07-1.41.1-1.95.1-1.07.02-1.66.02-1.66-.02s.59-.1 1.65-.19c.53-.04 1.18-.09 1.93-.19.75-.09 1.61-.17 2.55-.33 1.88-.27 4.1-.73 6.54-1.36a64.91 64.91 0 007.73-2.63 65.3 65.3 0 007.3-3.66c2.16-1.29 4.04-2.55 5.55-3.71.78-.55 1.43-1.11 2.02-1.58.6-.46 1.09-.89 1.49-1.24.82-.69 1.28-1.06 1.3-1.04zM257.08 158.95c.02 0-.01.19-.09.55-.09.41-.21.93-.35 1.56-.15.68-.35 1.5-.66 2.44-.3.94-.59 2.03-1.07 3.18-.22.58-.46 1.19-.7 1.82-.25.63-.56 1.26-.86 1.93-.57 1.35-1.34 2.71-2.11 4.16-1.64 2.85-3.65 5.87-6.08 8.79-2.46 2.9-5.08 5.41-7.6 7.52-1.3 1.01-2.51 2-3.73 2.8-.61.41-1.17.83-1.75 1.18-.58.35-1.14.68-1.67 1.01-1.05.67-2.07 1.14-2.94 1.6-.87.47-1.65.81-2.29 1.08-.6.25-1.08.45-1.47.62-.34.14-.52.2-.53.18s.16-.11.49-.28c.38-.19.85-.42 1.43-.7.63-.29 1.39-.66 2.24-1.15.86-.48 1.86-.98 2.89-1.66.52-.33 1.07-.67 1.64-1.03.57-.36 1.13-.79 1.72-1.2 1.21-.81 2.4-1.8 3.68-2.82 2.49-2.11 5.07-4.61 7.51-7.48 2.4-2.9 4.41-5.88 6.06-8.69.78-1.43 1.55-2.78 2.14-4.11.3-.66.63-1.28.88-1.91.25-.62.49-1.22.73-1.8.49-1.13.81-2.21 1.13-3.13.34-.92.57-1.74.74-2.41.18-.62.33-1.13.44-1.53.1-.35.16-.53.18-.52zM214.91 225.38c-.03.05-.8-.38-1.82-1.36-1.02-.97-2.24-2.55-3.09-4.54-.84-2-1.11-3.98-1.09-5.39.02-1.42.25-2.26.31-2.25.09.01-.01.87.06 2.24.07 1.37.39 3.26 1.2 5.19.82 1.93 1.94 3.48 2.87 4.49.93 1.02 1.61 1.55 1.56 1.62zM214.18 217.59c.15.04-.13 1.32.02 2.9.13 1.58.61 2.8.47 2.86-.11.07-.86-1.13-.99-2.82-.16-1.68.37-2.99.5-2.94zM204.31 181.79c-.02 0-.06-.16-.12-.47-.07-.37-.15-.82-.25-1.36-.21-1.26-.5-2.96-.84-5.01-.7-4.23-1.7-10.07-2.9-16.5a852.15 852.15 0 00-3.25-16.44c-.42-2.04-.76-3.72-1.02-4.98-.1-.54-.19-.99-.26-1.36-.05-.31-.07-.48-.06-.48.02 0 .07.15.16.46.1.36.21.8.35 1.34.3 1.16.7 2.85 1.18 4.94.96 4.18 2.2 9.98 3.4 16.42 1.2 6.44 2.14 12.29 2.75 16.54.31 2.12.54 3.85.68 5.04l.15 1.37c.04.32.05.49.03.49zM268.31 181.79c-.02 0-.03-.17-.05-.5-.01-.38-.03-.85-.04-1.42-.03-1.23-.03-3.02-.02-5.22.04-4.41.23-10.5.74-17.22.51-6.71 1.19-12.77 1.71-17.15.27-2.13.49-3.88.66-5.18.08-.56.15-1.02.21-1.4.05-.32.09-.49.11-.49.02 0 .02.17 0 .5-.03.38-.07.85-.11 1.42-.12 1.31-.29 3.06-.49 5.2-.43 4.39-1.05 10.44-1.55 17.15-.51 6.7-.76 12.78-.9 17.18-.06 2.14-.11 3.9-.15 5.22-.02.57-.04 1.03-.06 1.42-.02.32-.04.49-.06.49zM188.35 184.37c-.18.08-1.49-3.57-4.04-7.53-2.57-3.96-5.55-6.45-5.42-6.58.04-.05.82.52 1.96 1.6 1.13 1.08 2.59 2.7 3.9 4.7 1.3 2.01 2.22 3.97 2.81 5.42.58 1.44.85 2.36.79 2.39z" fill="#263238"/><path d="M190.07 180.02c-.08.03-.42-.76-1.12-1.95-.7-1.18-1.84-2.72-3.46-4.05-1.62-1.32-3.33-2.2-4.58-2.79-1.25-.58-2.05-.91-2.03-.98.02-.06.86.14 2.17.65 1.3.51 3.08 1.35 4.76 2.72 1.68 1.37 2.82 3.02 3.45 4.27.65 1.27.86 2.11.81 2.13z" fill="#263238"/><path d="M200.37 155.97c.01.01-.05.16-.21.44-.17.27-.45.66-.92 1.07-.9.8-2.67 1.67-4.9 1.32-2.21-.33-4.56-1.92-6.16-4.35-.81-1.2-1.46-2.59-2.03-4.04-.28-.73-.56-1.47-.8-2.25-.23-.78-.39-1.63-.28-2.51.12-.86.51-1.72 1.22-2.27.71-.56 1.68-.64 2.47-.44 1.63.41 2.8 1.72 3.29 3.12.52 1.41.31 2.97-.41 4.09-.71 1.13-1.78 1.88-2.85 2.19-1.08.33-2.15.18-2.96-.14-.83-.32-1.43-.81-1.85-1.26-.41-.46-.65-.88-.78-1.17-.13-.3-.16-.46-.15-.47.06-.03.23.65 1.07 1.5.42.41 1.02.85 1.81 1.12.78.28 1.76.38 2.75.06.99-.31 1.96-1.02 2.59-2.06.63-1.03.81-2.42.33-3.7-.45-1.27-1.53-2.44-2.96-2.79-.7-.17-1.47-.09-2.04.36-.57.44-.92 1.17-1.02 1.93-.18 1.55.53 3.07 1.04 4.51.55 1.44 1.18 2.79 1.95 3.96 1.52 2.36 3.74 3.9 5.82 4.25 2.09.38 3.81-.4 4.71-1.11.95-.75 1.22-1.4 1.27-1.36zM239.69 171.33c.01.01-.09.09-.27.24-.21.16-.49.38-.84.65-.75.55-1.85 1.38-3.44 2.16-.8.39-1.73.75-2.8.93-1.07.19-2.29.16-3.51-.23-2.45-.78-4.69-2.88-6.34-5.58-1.66-2.71-2.79-6.13-2.89-9.88-.1-3.73.78-7.81 3.08-11.37 1.12-1.76 2.62-3.49 4.71-4.4 1.04-.45 2.22-.61 3.37-.43 1.14.17 2.29.74 3.02 1.71.75.95 1.04 2.21.94 3.4a7.9 7.9 0 01-1.08 3.4c-1.24 2.08-3.28 3.62-5.56 4.51-2.3.86-4.78 1.1-7.14.74-2.37-.33-4.57-1.34-6.44-2.67-3.75-2.72-6.17-6.66-7.56-10.6-.68-1.97-1.24-4.03-.92-6.07.16-1.01.55-1.97 1.16-2.76.61-.79 1.48-1.38 2.44-1.59 1.93-.42 3.86.41 5.04 1.74 1.22 1.36 1.49 3.22 1.22 4.79-.27 1.6-1.04 3-2.05 4.04-1.01 1.04-2.21 1.74-3.38 2.21-2.37.94-4.6 1.01-6.35.96-1.77-.07-3.13-.28-4.04-.41-.44-.07-.78-.13-1.04-.17-.23-.04-.35-.07-.35-.08 0-.01.12 0 .36.02l1.05.12c.92.1 2.28.27 4.03.31 1.74.02 3.94-.08 6.24-1.03 1.14-.47 2.29-1.17 3.25-2.18.96-1 1.68-2.35 1.93-3.87.25-1.49-.03-3.24-1.15-4.47-1.09-1.22-2.91-1.98-4.64-1.59-1.75.37-2.98 2.14-3.25 4.01-.29 1.9.24 3.9.92 5.84 1.38 3.86 3.76 7.72 7.41 10.35 1.82 1.29 3.93 2.25 6.22 2.57 2.27.35 4.67.11 6.87-.71 2.18-.85 4.13-2.32 5.3-4.28.58-.97.93-2.07 1.02-3.18.09-1.1-.17-2.22-.83-3.06-.64-.85-1.65-1.37-2.7-1.52a5.656 5.656 0 00-3.1.39c-1.95.84-3.41 2.49-4.5 4.2-2.25 3.46-3.13 7.45-3.05 11.1.09 3.67 1.17 7.03 2.78 9.7 1.6 2.66 3.76 4.72 6.11 5.49 2.37.79 4.58.11 6.14-.61 1.58-.75 2.7-1.55 3.47-2.07.36-.25.65-.45.86-.6.17-.11.27-.18.28-.17zM212.1 115.22c.03.01-.07.34-.32.9s-.66 1.34-1.28 2.25c-1.22 1.81-3.41 4.06-6.47 5.52-3.05 1.46-6.18 1.74-8.36 1.56-1.09-.09-1.97-.26-2.56-.42-.59-.16-.9-.29-.9-.32.02-.09 1.32.29 3.47.37 2.13.09 5.16-.25 8.11-1.66 2.95-1.41 5.12-3.55 6.39-5.26 1.31-1.73 1.83-2.99 1.92-2.94zM226.87 119.47c.02.15-1.49.23-2.82 1.38-1.36 1.12-1.68 2.6-1.82 2.56-.06-.01-.08-.4.12-.99.19-.59.64-1.35 1.37-1.97.73-.62 1.56-.94 2.17-1.03.6-.09.98-.01.98.05zM248.02 125.35c-.01.03-.33-.08-.85-.39-.51-.31-1.22-.86-1.88-1.73-.64-.87-1.28-2.06-1.39-3.55-.04-.73.1-1.57.61-2.25.48-.66 1.37-1.2 2.32-.98.92.21 1.56.95 1.82 1.75.29.81.03 1.72-.46 2.3-1 1.2-2.6 1.39-3.62.96-1.06-.41-1.65-1.14-1.98-1.64-.33-.52-.4-.85-.37-.86.04-.02.18.28.54.74.36.45.97 1.09 1.93 1.41.93.34 2.31.12 3.13-.91.4-.5.58-1.19.35-1.84-.21-.64-.76-1.25-1.44-1.4-.68-.16-1.39.23-1.8.78-.43.55-.57 1.25-.54 1.92.07 1.34.63 2.51 1.21 3.35 1.2 1.72 2.49 2.26 2.42 2.34zM252.01 113.68c-.12.1-1.21-1.47-3.3-2.3-2.07-.88-3.95-.52-3.97-.68-.01-.06.43-.24 1.21-.3.77-.06 1.86.05 2.96.5 1.1.45 1.95 1.14 2.46 1.73.5.57.69 1.02.64 1.05zM279.5 125.32c0 .01-.06.05-.2.12-.16.09-.36.19-.6.31-.54.26-1.34.63-2.4 1.02-2.12.78-5.34 1.68-9.42 1.77-1.02.01-2.1-.06-3.2-.31-1.09-.25-2.23-.71-3.15-1.54a4.695 4.695 0 01-1.55-3.42c-.03-1.32.44-2.68 1.33-3.76 1.83-2.17 5.1-2.87 7.96-2.05 2.87.8 5.49 3.09 6.38 6.18.92 3.05.14 6.46-1.91 8.67-2.01 2.25-4.8 3.37-7.41 3.98-2.65.6-5.22.65-7.59.77-2.37.1-4.58.24-6.55.64-3.95.77-6.74 2.81-8.06 4.6-1.35 1.81-1.45 3.14-1.54 3.11-.01 0 0-.08.03-.23.04-.15.07-.38.16-.66.17-.57.51-1.4 1.18-2.34 1.3-1.87 4.12-4 8.15-4.84 2-.43 4.23-.6 6.6-.71 2.37-.13 4.92-.2 7.5-.8 2.55-.61 5.23-1.72 7.13-3.86 1.93-2.09 2.65-5.3 1.79-8.18-.84-2.9-3.31-5.08-6.02-5.84-2.7-.79-5.78-.11-7.46 1.86-.82.98-1.26 2.24-1.24 3.44 0 1.22.54 2.35 1.38 3.11.84.77 1.91 1.22 2.95 1.46 1.05.25 2.1.33 3.1.33 4.03-.04 7.23-.88 9.36-1.59 1.07-.36 1.88-.7 2.43-.93.58-.21.87-.33.87-.31zM254.56 164.59c-.08.04-.43-.84-1.34-2.01-.9-1.16-2.45-2.59-4.56-3.39-2.11-.79-4.22-.74-5.66-.45-1.46.28-2.3.71-2.33.63-.03-.04.76-.6 2.26-.99 1.47-.39 3.7-.51 5.93.33 2.23.84 3.82 2.39 4.67 3.66.85 1.26 1.08 2.2 1.03 2.22zM266.24 172.15c.05.02-.29.92-1.37 2.02-1.05 1.09-2.95 2.29-5.32 2.49-2.37.18-4.44-.71-5.64-1.62-1.23-.91-1.71-1.76-1.67-1.78.07-.06.64.68 1.88 1.48 1.21.79 3.18 1.57 5.4 1.4 2.22-.18 4.04-1.26 5.11-2.23 1.08-.99 1.53-1.82 1.61-1.76zM269.28 152.25c-.04.07-.65-.29-1.71-.57a7.62 7.62 0 00-4.2.08c-1.58.51-2.77 1.53-3.46 2.37-.7.85-.98 1.49-1.06 1.46-.05-.02.11-.73.77-1.68.65-.94 1.88-2.09 3.6-2.64 1.71-.55 3.39-.33 4.46.06 1.09.39 1.63.88 1.6.92zM306.54 143.05c.02 0 .08.25.18.74.06.24.1.55.13.92.05.37.06.79.04 1.27-.02 1.89-.72 4.74-2.87 7.45a13.206 13.206 0 01-4.31 3.55c-1.8.95-3.97 1.44-6.25 1.43-4.54-.02-9.57-2.2-12.85-6.36-.81-1.04-1.46-2.21-1.81-3.46-.35-1.26-.34-2.61.07-3.82.39-1.21 1.22-2.29 2.34-2.85 1.11-.57 2.38-.65 3.52-.42 1.14.24 2.18.79 2.97 1.58a6.75 6.75 0 011.63 2.71c.63 1.96.49 3.95-.05 5.58-.54 1.64-1.42 2.97-2.36 3.96-.94.99-1.91 1.68-2.75 2.13-.85.45-1.56.67-2.04.81-.49.11-.75.16-.75.14-.02-.06 1.05-.21 2.69-1.13 1.59-.92 3.83-2.81 4.86-6.02.49-1.58.6-3.49-.01-5.33-.31-.92-.82-1.8-1.54-2.52-.72-.71-1.69-1.22-2.75-1.43-1.05-.21-2.2-.12-3.19.39-.98.51-1.73 1.46-2.08 2.57-.37 1.11-.38 2.35-.05 3.52.32 1.18.94 2.28 1.72 3.28 3.16 4.02 8.04 6.15 12.44 6.2 2.2.02 4.31-.44 6.05-1.34a12.9 12.9 0 004.22-3.4c2.12-2.61 2.87-5.37 2.95-7.23.09-1.88-.23-2.91-.15-2.92zM314.25 163.76c-.02.02-.26-.21-.61-.69-.35-.47-.79-1.23-1.09-2.26-.29-1.03-.35-2.34-.15-3.73.2-1.39.57-2.86 1.01-4.41.96-3.1 2.47-5.61 3.58-7.38.56-.88 1.04-1.59 1.38-2.06.34-.48.54-.73.57-.71.07.04-.59 1.16-1.63 2.97-1.02 1.81-2.46 4.33-3.4 7.34-.43 1.51-.82 2.99-1.04 4.33-.22 1.34-.19 2.57.03 3.57.51 1.98 1.46 2.97 1.35 3.03zM333.19 140.75c.03-.01.14.24.3.72.17.47.35 1.17.5 2.06.32 1.76.4 4.28-.19 6.97-.6 2.68-1.73 4.94-2.76 6.4-.51.73-.97 1.3-1.32 1.65-.35.36-.55.55-.58.52-.07-.06.66-.88 1.59-2.38.93-1.49 1.98-3.7 2.56-6.31.57-2.61.55-5.06.33-6.8-.2-1.75-.52-2.8-.43-2.83zM267.75 187.52c-.01.01-.16-.06-.44-.22-.27-.16-.67-.41-1.22-.66-1.08-.53-2.73-1.15-4.87-1.37-2.13-.2-4.75.03-7.34 1.18-1.29.57-2.56 1.37-3.67 2.43-.55.52-1.07 1.11-1.44 1.79-.37.67-.6 1.44-.5 2.2.09.76.47 1.48 1.07 1.88.6.4 1.39.39 2.04.09 1.37-.58 1.9-2.16 1.86-3.51-.06-2.81-1.86-5.06-3.71-6.01-1.9-.99-3.75-.89-4.9-.65-1.17.26-1.76.63-1.78.58-.01-.01.13-.11.41-.27.29-.15.72-.35 1.32-.51 1.17-.31 3.09-.48 5.11.52 1.98.97 3.92 3.31 4.02 6.33.02.74-.09 1.53-.42 2.26-.32.73-.92 1.39-1.7 1.73-.76.35-1.76.38-2.53-.13-.76-.5-1.2-1.37-1.3-2.25-.12-.9.16-1.78.57-2.51.41-.74.97-1.36 1.55-1.9 1.16-1.1 2.49-1.92 3.83-2.5 2.69-1.16 5.4-1.36 7.58-1.1 2.19.27 3.86.96 4.93 1.55.54.28.93.56 1.19.76.23.16.36.27.34.29zM271.37 195.79c.12.08-.42 1.11-1.21 2.3-.79 1.19-1.52 2.09-1.64 2.01-.12-.08.42-1.11 1.21-2.3.79-1.19 1.52-2.09 1.64-2.01zM284.07 210.1c-.08.02-.22-.36-.57-.87-.34-.52-.94-1.15-1.76-1.61-.83-.46-1.68-.63-2.3-.65-.62-.02-1.02.06-1.04-.02-.02-.05.35-.27 1.03-.35.67-.08 1.65.05 2.57.56.92.51 1.54 1.27 1.83 1.88.28.62.3 1.05.24 1.06zM242.76 205.01c.04.07-1.2.69-3.13 1.79-1.91 1.11-4.56 2.74-6.8 5.26-2.24 2.51-3.36 5.47-3.6 7.64-.27 2.19.17 3.55.06 3.57-.03.01-.16-.32-.29-.94-.13-.62-.22-1.54-.14-2.67.15-2.26 1.26-5.35 3.58-7.95 2.31-2.59 5.04-4.2 7.01-5.23.99-.52 1.82-.89 2.39-1.14.58-.25.91-.37.92-.33zM257.45 209.89c-.03.04-.56-.33-1.09-1.2-.53-.86-.96-2.27-.83-3.83s.79-2.88 1.46-3.64c.67-.77 1.25-1.05 1.27-1 .06.07-.43.45-.98 1.23-.56.77-1.1 2.01-1.23 3.46-.12 1.45.22 2.76.64 3.61.41.85.83 1.31.76 1.37zM234.49 191.77c-.02.02-.18-.23-.57-.58-.4-.34-1.09-.77-2.08-.93-.98-.15-2.27-.02-3.49.73-1.23.73-2.34 1.97-3.31 3.5-.99 1.52-1.83 3.35-3.09 5.13-1.24 1.79-3.16 3.36-5.51 4.12-2.34.8-5.12.72-7.57-.44-2.43-1.14-4.57-3.23-5.57-5.93-.48-1.35-.63-2.85-.17-4.22.44-1.37 1.43-2.47 2.59-3.18a6.091 6.091 0 013.86-.88c1.32.17 2.51.8 3.43 1.63 1.86 1.68 2.75 4.09 2.71 6.29-.02 2.21-.83 4.19-1.87 5.71a11.638 11.638 0 01-3.62 3.4 14.13 14.13 0 01-3.43 1.49c-.99.29-1.78.42-2.31.49-.27.04-.47.05-.61.06-.14.01-.21.01-.21 0 0-.02.28-.07.8-.17.53-.1 1.3-.27 2.27-.58.97-.31 2.12-.78 3.34-1.55 1.21-.76 2.47-1.85 3.46-3.36.99-1.49 1.74-3.4 1.74-5.51.02-2.08-.85-4.36-2.6-5.93-.86-.78-1.97-1.35-3.17-1.5-1.19-.13-2.47.16-3.54.83-1.07.65-1.98 1.67-2.37 2.91-.41 1.23-.29 2.62.17 3.88.94 2.55 2.98 4.56 5.29 5.65a9.765 9.765 0 007.2.45c2.26-.72 4.09-2.2 5.31-3.92 1.25-1.72 2.11-3.54 3.13-5.08 1.01-1.54 2.17-2.81 3.47-3.55 1.29-.76 2.65-.86 3.67-.68 1.03.19 1.73.67 2.12 1.05.41.4.53.67.53.67zM234.82 207.35c-.03.04-.73-.35-1.61-1.28-.89-.92-1.89-2.43-2.46-4.32-.56-1.89-.55-3.71-.31-4.96.23-1.26.6-1.97.65-1.95.09.03-.15.77-.29 2-.14 1.23-.09 2.95.44 4.76.54 1.8 1.45 3.27 2.24 4.23.79.96 1.4 1.45 1.34 1.52zM238.5 184.3c-.03.05-.71-.34-2.01-.85-1.3-.51-3.23-1.17-5.71-1.5a24.04 24.04 0 00-8.69.42c-1.58.4-3.27.94-4.8 1.8-.73.44-1.41 1.09-1.59 1.9-.16.77.28 1.79 1.03 2.01.36.11.78-.03 1.05-.32.29-.29.47-.7.6-1.12.23-.85.25-1.78.23-2.66-.07-1.77-.54-3.46-1.28-4.91-.72-1.46-1.72-2.69-2.82-3.63-1.1-.94-2.32-1.59-3.48-2-2.35-.83-4.43-.77-5.8-.58-1.38.22-2.1.52-2.12.47-.01-.02.17-.1.52-.23s.87-.3 1.57-.44c1.38-.26 3.51-.39 5.95.43 1.21.41 2.48 1.06 3.64 2.02 1.16.96 2.21 2.23 2.97 3.74.78 1.5 1.28 3.26 1.36 5.1.03.93.02 1.86-.24 2.82-.14.47-.35.95-.73 1.34-.38.39-.99.62-1.56.45-.57-.16-.96-.61-1.19-1.08-.22-.48-.32-1.01-.22-1.54.24-1.05 1.04-1.76 1.83-2.24 1.64-.91 3.32-1.43 4.95-1.83 3.28-.75 6.36-.71 8.86-.32 2.51.38 4.45 1.11 5.74 1.68.65.29 1.13.54 1.45.73.34.22.5.32.49.34zM160.57 187.17c-.03-.04.62-.48 1.61-1.48.97-.99 2.28-2.61 3.14-4.96.85-2.3 1.2-5.49-.25-8.46-.69-1.47-1.78-2.87-3.19-3.94-1.4-1.08-3.17-1.81-5.04-1.89a5.84 5.84 0 00-2.65.55c-.8.38-1.48 1-1.76 1.78-.28.79-.11 1.65.36 2.32.46.67 1.16 1.16 1.9 1.41 1.53.49 3.14.04 4.33-.74 1.21-.78 2.1-1.87 2.63-2.98 1.07-2.25 1.15-4.36 1.25-5.74.03-.66.05-1.19.07-1.62.01-.37.03-.57.05-.57.02 0 .04.2.06.57.02.37.04.92.03 1.63-.05 1.4-.05 3.53-1.12 5.9a7.635 7.635 0 01-2.72 3.18c-1.25.84-3 1.36-4.71.83-.84-.27-1.62-.82-2.16-1.58-.55-.76-.77-1.82-.43-2.77s1.14-1.66 2.01-2.08a6.34 6.34 0 012.89-.61c2 .09 3.86.86 5.33 2 1.48 1.13 2.6 2.6 3.32 4.14.74 1.54 1.02 3.19.99 4.7-.03 1.52-.37 2.9-.82 4.1-.93 2.4-2.31 4.01-3.35 4.98-.52.49-.96.83-1.26 1.04-.33.21-.5.31-.51.29zM181.3 202.05c-.02.02-.32-.26-.78-.83-.47-.57-1.09-1.44-1.71-2.6-1.26-2.3-2.43-5.91-2.17-9.97.27-4.06 1.91-7.49 3.46-9.6.77-1.07 1.5-1.85 2.04-2.35s.86-.74.88-.72c.07.07-1.18 1.13-2.62 3.28-1.44 2.13-2.98 5.48-3.24 9.43-.26 3.94.82 7.47 1.98 9.77 1.14 2.32 2.24 3.53 2.16 3.59zM200.84 180.3c-.09.03-.51-1.51-1.75-3.71-1.22-2.2-3.41-5.03-6.62-7.16-3.22-2.13-6.68-3.03-9.18-3.3-2.52-.28-4.09-.06-4.1-.16 0-.03.38-.11 1.1-.19.71-.08 1.75-.11 3.04-.02 2.55.17 6.13 1.04 9.43 3.23s5.5 5.13 6.66 7.42c.59 1.14.96 2.12 1.17 2.8.21.7.28 1.09.25 1.09z" fill="#fafafa"/><path d="M228.17 208.29c-.95.41-.86 1.93-.06 2.59.8.66 1.93.68 2.97.63 11.73-.56 23.04-6.92 29.63-16.64-9.04 7.42-20.9 10.22-32.3 12.8M226.38 198.09c-.98-1.51-.32-3.63.95-4.9 1.27-1.28 3.01-1.95 4.62-2.75 5.89-2.9 10.73-7.88 13.48-13.84 1.82-3.94 3.2-8.77 7.22-10.39-2.05 13.89-12.39 26.22-25.71 30.66M197.99 146.24c1.01 10.92.23 22.01-2.3 32.68-.54 2.27-1.16 4.56-1.12 6.89.04 2.33 1.49 5.03 3.33 6.47 1.66-3.82 1.69-7.51 2.39-11.63.63-3.72 1.69-12.38 1.69-12.51.15-7.59-1.64-14.08-4.56-20.91M216.84 113.41c1.46 8.02 5.48 15.55 11.32 21.24 2.21 2.15 4.96 4.15 8.05 4.05a18.8 18.8 0 01-1.54-11.79c2.65 1.67 5.32 3.35 8.24 4.48 2.92 1.13 6.14 1.69 9.2 1.05l1.92-16.62c.07-.63.14-1.3-.17-1.86-.31-.55-1.15-.84-1.58-.38-.18.19-.25.47-.31.73-1.13 4.86-1.75 9.2-2.88 14.06-.81.8-3.3.47-4.94-.13-1.43-.53-1.98-1.71-2.92-2.9-.95-1.19-.78-.98-2.18-1.58-2.58-1.09-7.53-.22-8.61 2.09-1.08 2.32-.26 5.36.46 7.64-7.15-4.62-12.46-11.99-14.59-20.24" opacity=".3"/><g opacity=".3"><path d="M271.37 136.87c-.2.4 6.23 22.08 6.23 22.08l-8.33-4.75 2.1-17.33z"/></g></g><g><path d="M219.61 73.97v34.52c0 1.97.7 3.88 1.97 5.39 1.95 2.31 4.3 4.26 6.93 5.74l6.96 3.92 5.76-5.14a8.392 8.392 0 002.79-5.92c.1-2.51.1-5.05.1-5.05s9.76-.7 10.67-10.32c.43-4.53.57-13.81.59-22.36.03-9.76-7.45-17.89-17.18-18.7l-.27-.02c-10.07-.25-18.36 7.86-18.32 17.94z" fill="#ffbe9d"/><path d="M244.11 107.43s-6.1-.15-12.23-4.75c0 0 2.52 7.3 12.21 7.23l.02-2.48z" fill="#eb996e"/><path d="M252.53 80.93c-.03.73-.68 1.3-1.44 1.28-.76-.02-1.35-.63-1.32-1.36.03-.73.68-1.3 1.44-1.28.77.02 1.36.63 1.32 1.36zM252.92 78.63c-.19.17-1.16-.69-2.64-.81-1.48-.14-2.63.53-2.77.34-.07-.09.13-.4.63-.7.49-.3 1.32-.57 2.24-.49.92.08 1.67.48 2.09.87.42.38.54.71.45.79zM238.57 80.23c-.03.73-.68 1.3-1.44 1.28-.76-.02-1.35-.63-1.32-1.36.03-.73.68-1.3 1.44-1.28.77.02 1.35.63 1.32 1.36zM238.35 77.7c-.19.17-1.17-.69-2.64-.81-1.48-.14-2.63.53-2.77.34-.07-.09.13-.4.63-.7.49-.3 1.32-.57 2.24-.49.92.08 1.67.49 2.09.87.41.38.54.71.45.79zM242.81 89.12c0-.08.93-.17 2.44-.23.38-.01.75-.05.83-.31.11-.27-.01-.69-.16-1.14-.28-.94-.57-1.93-.88-2.97-1.21-4.23-2.06-7.69-1.89-7.74.17-.05 1.29 3.34 2.51 7.57.29 1.04.57 2.03.83 2.98.11.44.31.95.07 1.5-.13.27-.42.46-.67.5-.25.05-.46.04-.65.04-1.5-.05-2.43-.12-2.43-.2z" fill="#263238"/><g><path d="M238.37 89.78c.24.01.11 1.61 1.39 2.87 1.28 1.26 3.01 1.22 3 1.44.01.1-.41.28-1.13.24-.71-.03-1.73-.35-2.51-1.12-.78-.77-1.06-1.73-1.06-2.4-.01-.66.2-1.05.31-1.03z" fill="#263238"/></g><g><path d="M239.21 71.93c-.18.39-1.64.08-3.4.14-1.76.03-3.2.42-3.4.04-.09-.18.19-.54.79-.88.59-.34 1.52-.64 2.57-.67 1.05-.03 1.99.22 2.6.53.63.31.92.65.84.84z" fill="#263238"/></g><g><path d="M252.73 74.3c-.29.31-1.28-.12-2.5-.24-1.22-.16-2.28.04-2.49-.33-.09-.18.1-.5.58-.78.47-.28 1.24-.48 2.08-.38.84.1 1.55.46 1.94.84.41.37.52.73.39.89z" fill="#263238"/></g><g><path d="M230.94 64.27a.21.21 0 00-.06.04 7.597 7.597 0 00-3.22 4.67c-.02.07-.03.13-.04.19-.6 2.72-.77 5.52-1.4 8.23-.63 2.71-.51 4.78-3.23 5.39-1.71.39-3.17-.57-3.78-1.54-.24-.37-.24-.84-.24-1.29.04-6.68-1.31-9.27-.72-16.2.16-1.89 1.19-3.59 2.82-4.56 1.54-.92 3.4-1.85 4.95-.96 1.55.9 3.39 4.09 4.54 5.48" fill="#263238"/></g><g><path d="M222.49 78.59c-.16-.08-6.46-2.51-6.79 4.1-.33 6.6 6.36 5.58 6.38 5.39.03-.19.41-9.49.41-9.49z" fill="#ffbe9d"/><path d="M220.2 85.47c-.03-.02-.12.07-.32.15-.19.08-.52.12-.86-.03-.68-.29-1.22-1.43-1.19-2.62.01-.6.17-1.17.41-1.63.23-.47.56-.79.91-.84.35-.06.59.16.66.35.08.19.03.32.06.33.02.02.15-.1.11-.38a.756.756 0 00-.24-.43c-.15-.14-.38-.21-.63-.2-.51.01-.99.45-1.25.96-.29.51-.48 1.14-.49 1.82-.03 1.33.59 2.61 1.53 2.94.46.14.85.02 1.06-.12.22-.14.26-.28.24-.3z" fill="#eb996e"/></g><g><path d="M225.72 59.24c-1.4-2.77 3.35-6.18 6.69-6.94 3.34-.76 7.49 1.18 10.63 2.52 1.98.85 3.94 1.96 6.1 2.05 1.45.06 2.86-.35 4.26-.72s2.85-.7 4.28-.48c1.43.22 2.85 1.1 3.28 2.48.44 1.38-.5 3.14-1.94 3.22 1.91-.85 4.43.68 4.56 2.77.13 2.08-2.2 3.91-4.19 3.3 1-.63 2.33.66 2.12 1.82-.21 1.16-1.34 1.92-2.46 2.31-2.85.98-6.02.33-8.78-.86s-5.28-2.9-8.01-4.16c-2.73-1.26-7.3-3.49-10.21-2.73-2.14.56-3.8 2.95-4.93 2.3-1.09-.63-1.71-1.88-1.84-3.13-.13-1.26.16-2.52.44-3.75" fill="#263238"/></g><g><path d="M259.83 61.27c-.05-.04-.38.46-1.15 1.17-.77.7-2.05 1.59-3.85 2.05-1.78.46-4.14.46-6.26-.77-2.16-1.19-3.91-3.35-5.96-5.43-2.04-2.09-4.52-3.72-7.11-4.17-2.57-.46-5.04.29-6.48 1.66-1.45 1.38-1.86 3.06-1.85 4.13 0 .55.11.96.18 1.23.1.27.16.4.18.39.06-.02-.17-.58-.11-1.62.06-1.01.52-2.57 1.9-3.8 1.36-1.22 3.66-1.87 6.06-1.41 2.41.45 4.76 2 6.75 4.04 2.01 2.03 3.82 4.25 6.13 5.49 2.3 1.29 4.83 1.23 6.67.69 1.88-.54 3.17-1.54 3.91-2.32.37-.4.63-.72.77-.97.17-.22.24-.35.22-.36z" fill="#455a64"/></g><g><path d="M220.84 78.17c.02.02.3-.16.59-.66.29-.49.56-1.33.53-2.36.03-2.13-1.66-4.57-1.65-7.52-.03-1.46.34-2.85 1.05-3.87.7-1.02 1.73-1.63 2.62-1.91.91-.29 1.7-.23 2.22-.12.52.13.8.27.83.22.02-.03-.21-.25-.75-.47-.53-.2-1.41-.35-2.42-.08-1 .25-2.16.87-2.99 2.01-.82 1.12-1.24 2.66-1.22 4.23 0 1.57.46 3.03.93 4.26.47 1.23.85 2.32.92 3.28.18 1.95-.75 2.95-.66 2.99z" fill="#455a64"/></g></g></g><g><path d="M248 268.88s-.5.02-1.49.04c-.99.01-2.45.03-4.37.06-3.84.06-9.5.21-16.78.56-7.28.38-16.18 1.02-26.47 2.19-5.14.62-10.63 1.32-16.42 2.29-5.8.93-11.9 2.08-18.25 3.53-6.35 1.44-12.96 3.17-19.72 5.38-6.74 2.22-13.68 4.86-20.45 8.44-3.38 1.78-6.69 3.85-9.81 6.26-3.09 2.42-6.01 5.27-8.03 8.78-.24.44-.51.88-.74 1.33l-.57 1.41-.28.71c-.08.24-.12.49-.19.74l-.36 1.49c-.23 2.01-.31 4.11.3 6.1.98 4.05 3.65 7.55 6.72 10.49 6.27 5.88 14.26 9.98 22.54 13.42 8.33 3.42 17.17 6.08 26.27 8.31 18.21 4.44 37.51 7.05 57.34 8.44 19.84 1.35 39.3 1.34 58.01.23 18.71-1.14 36.71-3.4 53.56-6.99 8.42-1.81 16.55-3.96 24.28-6.55 7.74-2.57 15.06-5.67 21.71-9.46 3.29-1.95 6.4-4.08 9.15-6.52 2.74-2.44 5.14-5.23 6.63-8.44l.49-1.22c.16-.41.35-.8.42-1.23l.31-1.26c.05-.21.11-.42.14-.63l.05-.64c.24-1.71.06-3.42-.38-5.04-.45-1.63-1.25-3.11-2.11-4.51-.94-1.36-1.95-2.65-3.1-3.8-2.25-2.33-4.77-4.29-7.32-6.03a78.53 78.53 0 00-7.76-4.63c-5.18-2.75-10.3-4.88-15.13-6.73-9.68-3.65-18.29-6.05-25.36-7.82-7.07-1.77-12.62-2.88-16.39-3.6-1.88-.38-3.33-.62-4.29-.8-.97-.18-1.46-.28-1.46-.28s1.99.29 5.77.98c3.78.69 9.34 1.77 16.42 3.51 7.08 1.74 15.7 4.11 25.41 7.74 4.84 1.84 9.98 3.96 15.18 6.71 2.61 1.36 5.23 2.88 7.8 4.63 2.57 1.75 5.1 3.71 7.39 6.07 1.16 1.16 2.19 2.47 3.15 3.85.88 1.43 1.7 2.94 2.17 4.62.46 1.67.64 3.44.4 5.19l-.05.66c-.03.22-.1.43-.14.65l-.31 1.3c-.08.44-.27.85-.43 1.26l-.5 1.25c-1.51 3.28-3.95 6.11-6.71 8.58-2.78 2.47-5.91 4.62-9.21 6.58-6.68 3.81-14.02 6.93-21.78 9.52-7.75 2.6-15.9 4.77-24.33 6.58-16.88 3.6-34.89 5.88-53.63 7.03-18.74 1.12-38.21 1.14-58.08-.22-19.85-1.4-39.17-4.01-57.42-8.47-9.12-2.23-17.97-4.91-26.33-8.34-8.32-3.46-16.34-7.57-22.69-13.53-3.1-2.98-5.83-6.54-6.84-10.72-.62-2.05-.55-4.22-.3-6.29l.37-1.53c.07-.25.11-.51.19-.76l.29-.73.58-1.45c.24-.46.5-.9.75-1.35 2.07-3.58 5.03-6.46 8.15-8.91 3.15-2.43 6.48-4.51 9.88-6.29 6.8-3.58 13.76-6.22 20.52-8.44 6.78-2.2 13.4-3.92 19.76-5.35 6.36-1.44 12.47-2.58 18.27-3.49 5.8-.95 11.3-1.64 16.44-2.25 10.3-1.15 19.21-1.76 26.49-2.11 7.29-.33 12.95-.44 16.79-.47 1.91 0 3.38-.01 4.37-.01 1.02-.03 1.52-.02 1.52-.02z" fill="#5c9ca4"/><path d="M166.28 193.11s-.57.13-1.68.35c-1.11.23-2.77.53-4.94 1-4.34.9-10.73 2.29-18.84 4.51-8.09 2.26-17.98 5.26-28.87 10.2-2.71 1.25-5.49 2.61-8.26 4.19-2.77 1.57-5.58 3.3-8.29 5.32-2.7 2.03-5.36 4.3-7.65 7.03-2.27 2.72-4.29 5.88-5.19 9.51-.96 3.6-.69 7.6.82 11.2 1.48 3.63 3.99 6.85 6.92 9.68 5.92 5.68 13.43 9.98 21.43 13.68 16.11 7.32 34.5 12.23 54.02 15.89 19.55 3.62 40.36 5.86 61.98 6.84 21.62.95 44.07.68 66.94-1.19 22.87-1.9 45.11-5.26 66.05-10.76 10.45-2.77 20.59-6.08 30.08-10.33 4.74-2.14 9.33-4.49 13.59-7.25s8.25-5.89 11.45-9.66c3.19-3.73 5.54-8.3 5.68-13.13.05-.6-.02-1.19-.06-1.79-.07-.59-.03-1.2-.19-1.77l-.39-1.74c-.1-.59-.39-1.12-.57-1.68-.78-2.24-2.09-4.23-3.43-6.13-2.87-3.71-6.43-6.74-10.14-9.37-3.73-2.62-7.67-4.8-11.61-6.79-7.93-3.91-15.95-6.89-23.78-9.34-7.83-2.45-15.48-4.39-22.82-6.02-29.43-6.35-53.83-8.07-70.61-9.01-8.4-.44-14.94-.45-19.37-.57-2.21-.05-3.9-.09-5.04-.11-1.14-.03-1.72-.06-1.72-.06s.58-.01 1.72 0c1.14.01 2.83.03 5.04.06 4.43.08 10.97.06 19.38.47 16.79.87 41.2 2.54 70.68 8.85 7.35 1.62 15.01 3.55 22.86 6 7.85 2.44 15.9 5.42 23.85 9.33 3.96 1.99 7.92 4.17 11.68 6.81 3.74 2.65 7.34 5.7 10.25 9.46 1.37 1.93 2.7 3.95 3.5 6.25.19.57.48 1.12.58 1.72l.4 1.78c.16.59.12 1.21.2 1.82.04.61.12 1.22.06 1.84-.07 2.46-.71 4.9-1.73 7.15-1.01 2.27-2.43 4.35-4.05 6.26-3.25 3.83-7.27 6.98-11.55 9.76-4.29 2.78-8.9 5.15-13.65 7.3-9.53 4.26-19.68 7.59-30.16 10.37-20.97 5.52-43.24 8.88-66.14 10.79-22.9 1.87-45.37 2.14-67.01 1.18-21.64-.98-42.46-3.23-62.04-6.87-19.55-3.68-37.96-8.61-54.11-15.97-8.02-3.72-15.56-8.05-21.52-13.78-2.96-2.86-5.5-6.13-7-9.83-1.54-3.67-1.81-7.77-.82-11.44.92-3.71 2.98-6.9 5.28-9.65 2.32-2.75 5-5.04 7.72-7.07 2.73-2.03 5.55-3.76 8.33-5.32 2.78-1.57 5.57-2.94 8.29-4.18 10.92-4.93 20.82-7.91 28.93-10.14a288.93 288.93 0 0118.88-4.42c4.34-.85 6.64-1.23 6.64-1.23zM201.34 344.02c-.34.05-1.82.29-4.99.79-3.27.52-8.08 1.35-14.22 2.7-6.13 1.37-13.62 3.2-22.03 6.21-4.19 1.53-8.63 3.32-13.1 5.69a58.36 58.36 0 00-6.65 4.06c-2.17 1.55-4.28 3.32-6.11 5.44-.89 1.07-1.75 2.21-2.41 3.48-.71 1.24-1.2 2.62-1.49 4.04-.06.36-.14.72-.18 1.08l-.06 1.1c.01.73.09 1.47.16 2.21.2.72.3 1.47.57 2.17l.42 1.05.21.53.28.5c1.43 2.7 3.59 5.02 6.01 7.07 2.42 2.07 5.18 3.8 8.06 5.41 5.77 3.21 12.17 5.69 18.85 7.87 6.7 2.16 13.74 3.89 21.02 5.37 14.57 2.93 30.1 4.73 46.25 5.53 16.15.78 32.93.59 50.02-.87 17.08-1.48 33.7-4.09 49.27-8.49 7.76-2.24 15.28-4.92 22.2-8.46 3.44-1.8 6.73-3.82 9.66-6.24.76-.57 1.4-1.27 2.11-1.89.69-.64 1.27-1.38 1.91-2.06 1.13-1.48 2.22-3.02 2.84-4.75 1.49-3.41 1.12-7.33-.44-10.54-1.63-3.21-4.17-5.82-6.89-8.02-5.51-4.38-11.76-7.33-17.87-9.78-6.14-2.45-12.26-4.29-18.19-5.83-5.94-1.53-11.71-2.74-17.24-3.71-22.16-3.87-40.42-4.58-52.97-4.85-12.46-.07-18.82-.1-19.53-.11 0 0 6.95-.09 19.53-.01 12.56.23 30.82.9 53.01 4.75 5.54.97 11.31 2.17 17.26 3.7 5.95 1.53 12.08 3.37 18.23 5.82 6.13 2.46 12.4 5.4 17.95 9.81 2.74 2.21 5.3 4.84 6.97 8.11 1.59 3.27 1.97 7.3.46 10.77-.64 1.77-1.75 3.33-2.89 4.83-.64.69-1.24 1.44-1.93 2.09-.71.63-1.36 1.34-2.13 1.91-2.95 2.44-6.25 4.47-9.71 6.28-6.95 3.56-14.47 6.24-22.25 8.49-15.59 4.41-32.23 7.03-49.32 8.51-17.1 1.46-33.9 1.65-50.06.87-16.16-.8-31.71-2.61-46.3-5.55-7.29-1.49-14.34-3.23-21.05-5.39-6.7-2.19-13.11-4.67-18.9-7.91-2.89-1.61-5.66-3.36-8.09-5.44-2.43-2.06-4.61-4.41-6.06-7.15l-.28-.5-.22-.54-.43-1.07c-.27-.71-.38-1.48-.58-2.21-.07-.75-.15-1.51-.16-2.26l.07-1.12c.04-.37.12-.73.18-1.1.3-1.45.8-2.85 1.52-4.11.67-1.28 1.54-2.43 2.44-3.51 1.85-2.14 3.98-3.91 6.16-5.47a57.39 57.39 0 016.68-4.07c4.49-2.37 8.93-4.16 13.13-5.68 8.43-3 15.93-4.81 22.06-6.17 6.15-1.33 10.97-2.13 14.24-2.64 3.27-.52 5-.74 5-.74z" fill="#5c9ca4"/><path d="M331.92 435.47c-.08.02.13-1.35-.83-3.64-.93-2.29-3.41-5.14-7.32-7.72-7.86-5.17-20.99-9.52-37.53-12.17-8.28-1.35-17.43-2.27-27.28-2.67-9.85-.4-20.4-.3-31.46.58-5.53.44-11.17 1.07-16.9 1.99-5.73.92-11.55 2.06-17.36 3.66-2.91.78-5.82 1.69-8.69 2.75-2.88 1.06-5.73 2.25-8.49 3.7-2.74 1.45-5.41 3.15-7.69 5.32-2.27 2.12-4.12 4.99-4.16 8.2.04 3.21 1.89 6.08 4.15 8.21 2.28 2.17 4.95 3.88 7.69 5.33 2.75 1.45 5.61 2.65 8.49 3.7 2.88 1.06 5.78 1.96 8.7 2.75 5.82 1.6 11.64 2.75 17.37 3.66 5.73.91 11.38 1.55 16.91 1.99 11.05.88 21.61.98 31.46.58 9.85-.4 19.01-1.33 27.28-2.67 16.54-2.66 29.67-7 37.53-12.17 3.91-2.58 6.39-5.43 7.32-7.72.94-2.31.73-3.68.81-3.66l-.07.96c0 .32-.09.7-.21 1.16-.08.47-.28.97-.52 1.54-.92 2.31-3.4 5.18-7.31 7.77-7.86 5.2-21 9.57-37.55 12.25-8.28 1.36-17.44 2.29-27.3 2.7-9.86.41-20.42.31-31.48-.56-5.53-.43-11.19-1.07-16.92-1.98-5.73-.92-11.57-2.06-17.39-3.66-2.92-.79-5.83-1.69-8.71-2.75-2.88-1.06-5.75-2.26-8.51-3.71-2.76-1.46-5.44-3.17-7.74-5.36-1.14-1.1-2.2-2.32-2.95-3.74-.77-1.4-1.26-2.99-1.27-4.61.01-1.63.51-3.21 1.28-4.61.75-1.42 1.81-2.64 2.95-3.74 2.3-2.19 4.98-3.9 7.74-5.36 2.76-1.45 5.63-2.65 8.51-3.71s5.79-1.97 8.71-2.75c5.82-1.6 11.65-2.74 17.39-3.66 5.74-.91 11.39-1.55 16.92-1.98 11.06-.87 21.62-.97 31.48-.56 9.86.41 19.02 1.34 27.3 2.7 16.54 2.68 29.69 7.04 37.55 12.25 3.91 2.59 6.39 5.46 7.32 7.77.24.57.44 1.08.52 1.54.11.46.21.84.21 1.16.02.53.04.79.05.94z" fill="#5c9ca4"/><path d="M110.98 280.37c0 1.76-1.43 3.19-3.19 3.19s-3.19-1.43-3.19-3.19 1.43-3.19 3.19-3.19 3.19 1.42 3.19 3.19z" fill="#e1a04e"/><circle cx="396.52" cy="282.53" r="3.19" fill="#e1a04e"/><path d="M269.5 400.17c0 1.76-1.43 3.19-3.19 3.19s-3.19-1.43-3.19-3.19 1.43-3.19 3.19-3.19 3.19 1.43 3.19 3.19zM172.55 318.13c0 .88-.71 1.6-1.6 1.6-.88 0-1.6-.71-1.6-1.6 0-.88.71-1.6 1.6-1.6.88 0 1.6.71 1.6 1.6zM371.06 356.81c0 .88-.71 1.6-1.6 1.6s-1.6-.71-1.6-1.6.71-1.6 1.6-1.6 1.6.72 1.6 1.6zM245.04 430.64c0 .88-.71 1.6-1.6 1.6-.88 0-1.6-.71-1.6-1.6 0-.88.71-1.6 1.6-1.6.89 0 1.6.72 1.6 1.6z" fill="#e1a04e"/><g><circle cx="161.72" cy="151.17" r=".8" fill="#e8505b"/></g></g><g><path d="M305.65 273.97c-38.77 10.26-76.14 9.49-116.87 0l-4.76-74.45c42.09 8.19 84.34 7.16 121.63-1.76v76.21z" fill="#5c9ca4"/><path d="M305.65 273.97c-38.77 10.26-76.14 9.49-116.87 0l-4.76-74.45c42.09 8.19 84.34 7.16 121.63-1.76v76.21z" fill="#fff" opacity=".8"/><path d="M299.64 262.65c0 .01-.08.05-.24.12-.19.08-.43.18-.73.31-.65.26-1.59.68-2.84 1.12-2.48.94-6.13 2.16-10.73 3.37-9.17 2.45-22.27 4.4-36.78 4.2-14.52-.19-27.54-2.18-36.86-3.94-4.66-.89-8.42-1.7-11-2.3-1.29-.29-2.29-.55-2.97-.71-.31-.08-.57-.15-.77-.2-.17-.05-.26-.08-.26-.09 0-.01.09 0 .27.03.21.04.46.09.78.15.72.15 1.72.36 2.99.62 2.6.54 6.36 1.3 11.02 2.14 9.32 1.67 22.33 3.6 36.8 3.79 14.46.2 27.52-1.68 36.69-4.03 4.59-1.15 8.25-2.32 10.75-3.2 1.26-.42 2.21-.81 2.87-1.03.31-.11.55-.19.75-.26.16-.08.25-.1.26-.09z" fill="#5c9ca4"/><path d="M242.67 265.68c-4.86 1.44-9.86 1.06-14.93-.5v-26.5c4.98-1 9.95-1 14.93 0v27zM266.77 264.11c-.01 0-.01-.07-.02-.2-.01-.16-.01-.34-.02-.58-.01-.54-.03-1.28-.06-2.21-.04-1.96-.09-4.74-.16-8.23-.11-7.03-.25-16.87-.43-28.28l.2.24c-4.75-.98-10.1-1.02-15.45.01l.21-.26c0 .17 0 .35.01.53.16 15.66.3 29.81.4 39.91l-.14-.18c2.39.5 4.58.76 6.51.79 1.93.04 3.58-.15 4.91-.4s2.34-.58 3.01-.79c.31-.11.56-.19.76-.26.17-.07.26-.1.27-.09.01 0-.07.04-.24.12-.2.08-.45.19-.76.32-.67.25-1.67.6-3.01.89-1.34.28-3.01.5-4.96.49-1.95 0-4.17-.24-6.58-.72l-.14-.03v-.15c-.14-10.1-.34-24.24-.56-39.9 0-.18 0-.36-.01-.53v-.22l.21-.04c5.41-1.04 10.83-.99 15.65.01l.2.04v.2c.09 11.46.16 21.35.21 28.41.01 3.47.02 6.24.02 8.19 0 .92-.01 1.64-.01 2.17 0 .22-.01.4-.01.55 0 .14 0 .2-.01.2zM289.71 260.99c-4 2.16-9.26 2.45-14.93 2.12v-43.77c5.08-1.08 10.08-1.28 14.93 0v41.65zM218.97 263.52c-.02-.02-.03-.41-.05-1.12-.01-.77-.03-1.79-.06-3.06l-.12-10.75.15.21c-4-1.47-9-2.86-14.37-2.39h-.03l.24-.26c-.01 5.46-.03 10.58-.04 14.93l-.14-.21c2.02.86 4 1.31 5.76 1.64 1.77.32 3.32.5 4.61.63 1.24.11 2.24.19 2.99.25.66.07 1.05.11 1.06.13.02.01-.34.03-1.06.02-.69-.01-1.71-.04-3-.13s-2.86-.24-4.65-.53c-1.78-.31-3.79-.74-5.87-1.59l-.14-.06v-.15c-.01-4.35-.02-9.47-.04-14.93v-.24l.24-.02h.03c5.5-.48 10.56.96 14.58 2.48l.15.06v.16l-.12 10.89c-.02 1.25-.04 2.25-.06 3.01-.02.69-.04 1.04-.06 1.03zM226 224.79c0 .07-1.11.15-2.92.18-1.81.03-4.3-.01-7.05-.17a97.15 97.15 0 01-7.03-.66c-1.79-.24-2.89-.45-2.88-.52.01-.07 1.12.01 2.92.15 1.8.15 4.27.34 7.02.51 2.74.16 5.23.26 7.03.32 1.79.07 2.9.12 2.91.19zM223.77 228.05c0 .07-.98.06-2.56-.01s-3.76-.21-6.17-.4c-2.41-.18-4.59-.38-6.16-.55-1.57-.17-2.54-.31-2.53-.38.01-.07.99-.06 2.57.01 1.58.07 3.76.21 6.16.4 2.4.18 4.58.38 6.15.55 1.57.17 2.54.31 2.54.38z" fill="#5c9ca4"/><path d="M229.23 232.32c-.01-.01-.01-.33.01-.93.03-.64.06-1.5.1-2.58.11-2.26.26-5.44.44-9.35l.19.2c-7.18.09-16.96-.25-27.63-1.53-.26.22.35-.3.29-.24v.1l-.01.11-.01.21-.02.42-.05.84c-.03.56-.07 1.11-.1 1.67-.06 1.1-.13 2.2-.19 3.27-.13 2.15-.25 4.23-.37 6.22l-.22-.26c7.99.98 14.89 1.4 19.79 1.59 2.41.07 4.34.13 5.73.17.62.02 1.12.04 1.51.05.34.02.53.03.54.04.01.01-.16.02-.51.04-.34.01-.88.04-1.55.04-1.33.02-3.28.02-5.74-.03-4.9-.1-11.82-.46-19.84-1.41l-.23-.03.01-.23c.11-1.99.23-4.07.35-6.22.06-1.07.12-2.17.19-3.27.03-.55.06-1.11.1-1.67l.05-.84.02-.42.01-.21.01-.11V217.86c-.06.05.55-.46.29-.24 10.64 1.28 20.39 1.67 27.56 1.67h.2l-.01.2c-.27 3.95-.49 7.16-.65 9.44-.08 1.06-.15 1.91-.19 2.53-.02.58-.05.87-.07.86z" fill="#5c9ca4"/><path d="M232.64 237.93c-.13.07-.96-1.14-1.92-2.67-.97-1.54-1.61-2.88-1.48-2.95.13-.07.96 1.14 1.92 2.67.97 1.54 1.6 2.88 1.48 2.95zM70.64 140.98l12.67 76.67s19.34 36.22 70.75 44.39l-8.3-68.44c.01 0-47.53-14.7-75.12-52.62z" fill="#5c9ca4"/><path d="M70.64 140.98l12.67 76.67s19.34 36.22 70.75 44.39l-8.3-68.44c.01 0-47.53-14.7-75.12-52.62z" fill="#fff" opacity=".8"/><path d="M147.43 256.58c0 .01-.11-.02-.33-.08-.24-.07-.55-.16-.95-.27-.86-.26-2.07-.63-3.62-1.1-1.57-.5-3.52-1.02-5.68-1.9-1.09-.42-2.26-.86-3.5-1.33-1.24-.47-2.55-.96-3.88-1.6-2.68-1.23-5.65-2.48-8.67-4.18-3.09-1.56-6.23-3.52-9.52-5.62-6.5-4.28-13.16-9.79-19.1-16.55-2.65-3.07-5.04-6.24-6.89-9.61l-.02-.03-.01-.04c-2.31-14.94-4.34-28.07-5.8-37.5-.7-4.68-1.27-8.44-1.66-11.06l-.42-2.98c-.04-.32-.07-.57-.1-.77-.02-.17-.03-.26-.02-.27.01 0 .03.09.06.26.04.2.08.45.14.77.12.71.29 1.7.51 2.97.43 2.62 1.05 6.37 1.81 11.04 1.5 9.42 3.6 22.54 5.98 37.47l-.02-.08c1.81 3.29 4.2 6.46 6.83 9.5 5.91 6.72 12.52 12.21 18.97 16.49 3.26 2.09 6.38 4.07 9.45 5.63 3 1.71 5.96 2.98 8.61 4.23 1.32.65 2.62 1.15 3.86 1.63 1.23.48 2.39.94 3.48 1.37 2.15.91 4.09 1.45 5.64 1.98 1.53.51 2.74.91 3.59 1.2.39.13.69.24.93.32.23.06.34.1.33.11z" fill="#5c9ca4"/><path d="M142.91 234.32c0 .01-.05.06-.18.16-.14.11-.32.26-.54.44-.51.4-1.22.95-2.14 1.66-1.9 1.46-4.64 3.55-8.07 6.18l-.13.1-.09-.13c-2.72-3.76-6.07-8.39-9.87-13.66l.3.05c-2.38 1.69-4.92 3.5-7.57 5.39l-.25.18-.11-.29c-2.95-8.01-6.27-17-9.76-26.47-.47-1.28-.94-2.55-1.4-3.81l.48.03c-2.12 4.21-4.19 8.31-6.17 12.24l-.27.53-.19-.56c-5.36-15.46-9.92-28.6-12.88-37.13l.27-.02c-.81 3.41-1.45 6.11-1.89 7.99-.22.9-.39 1.6-.52 2.1-.06.22-.1.4-.14.54-.03.12-.05.18-.06.18-.01 0 0-.06.02-.19.03-.14.06-.32.11-.55.11-.51.26-1.22.45-2.12.41-1.88 1.01-4.59 1.76-8.02l.11-.49.17.47c3 8.51 7.64 21.62 13.08 37.06l-.46-.03c1.98-3.93 4.03-8.03 6.15-12.25l.27-.54.21.56c.46 1.26.93 2.53 1.4 3.81 3.48 9.47 6.77 18.47 9.72 26.49l-.36-.11c2.66-1.88 5.21-3.68 7.59-5.36l.18-.13.13.18c3.77 5.29 7.09 9.95 9.78 13.73l-.22-.03c3.47-2.58 6.24-4.64 8.16-6.07.93-.68 1.66-1.22 2.19-1.6.23-.17.42-.3.57-.4.1-.07.17-.11.17-.11zM141.14 197.55c-.01.03-.39-.05-1.08-.24-.69-.18-1.67-.49-2.87-.88-2.41-.8-5.7-2.03-9.23-3.62-3.53-1.6-6.63-3.25-8.82-4.53-1.1-.64-1.97-1.18-2.56-1.57-.59-.39-.91-.62-.89-.65.02-.03.37.14 1 .48.72.39 1.6.86 2.64 1.42 2.23 1.2 5.34 2.79 8.86 4.38 3.52 1.59 6.77 2.87 9.14 3.75 1.1.41 2.04.75 2.81 1.04.65.23 1.01.38 1 .42zM143.18 200.73c-.02.07-.97-.08-2.48-.44s-3.59-.94-5.82-1.74c-2.24-.8-4.21-1.66-5.61-2.35-1.4-.68-2.23-1.17-2.2-1.24.03-.07.92.31 2.35.9 1.43.59 3.41 1.4 5.64 2.19 2.22.79 4.26 1.43 5.75 1.88 1.47.45 2.39.73 2.37.8z" fill="#5c9ca4"/><path d="M122.93 229.09c0 .63-.39 1.15-.86 1.15s-.86-.51-.86-1.15c0-.63.39-1.15.86-1.15s.86.52.86 1.15z" fill="#5c9ca4"/><ellipse cx="103.26" cy="204.85" rx=".86" ry="1.15" fill="#5c9ca4"/><g><path d="M85.13 179.56c0 .63-.39 1.15-.86 1.15s-.86-.51-.86-1.15.39-1.15.86-1.15.86.52.86 1.15z" fill="#5c9ca4"/></g><g><path d="M405.97 154.64l-6.35 77.9s-18.54 33.31-69.6 34.58l6.31-78.43c.01 0 44.55-1.81 69.64-34.05z" fill="#5c9ca4"/><path d="M405.03 150.58c-1.66-5.39-5.7-13.08-15.3-14.68l-11.35 104.78s21.31-4.25 21.88-15.93c.05-1.01 4.31-53.09 5.38-65.98.23-2.82.23-5.48-.61-8.19z" fill="#5c9ca4"/><path d="M405.97 154.64l-6.35 77.9s-18.54 33.31-69.6 34.58l6.31-78.43c.01 0 44.55-1.81 69.64-34.05z" fill="#fff" opacity=".8"/><path d="M404.45 174.5c-5.09 7.36-7.96 16.24-8.14 25.19-.05 2.58.1 5.26-.88 7.65-.98 2.39-3.55 4.39-6.04 3.7-2.6-.71-3.77-3.79-6.05-5.23-2.03-1.28-4.78-1.06-6.85.14-2.07 1.21-3.54 3.27-4.5 5.47-1.86 4.27-1.98 9.09-3.35 13.54-1.37 4.45-4.72 8.94-9.37 9.14-1.7.07-3.38-.44-5.08-.39-3.59.11-6.71 2.78-8.39 5.96-1.68 3.18-2.18 6.83-2.65 10.39 0 0 27.22 2.59 57.77-33.49l3.53-42.07z" fill="#5c9ca4"/><path d="M361.18 221.75c0 .97-.48 1.75-1.07 1.75-.59 0-1.07-.78-1.07-1.75s.48-1.75 1.07-1.75c.59 0 1.07.79 1.07 1.75zM374 189.37c0 .97-.48 1.75-1.07 1.75s-1.07-.78-1.07-1.75.48-1.75 1.07-1.75 1.07.78 1.07 1.75z" fill="#5c9ca4"/><path d="M403.84 178.26c.01.01-.05.16-.18.44-.15.32-.34.74-.58 1.26-.54 1.14-1.29 2.74-2.24 4.76-1.98 4.12-4.77 9.94-8.12 16.91l-.11.23-.22-.14c-5.66-3.58-12.24-7.74-19.25-12.18l.38-.12c-.25.62-.53 1.29-.8 1.97-4.76 11.66-9.12 22.33-12.43 30.44l-.08.21-.19-.11c-4.8-2.7-8.72-4.87-11.44-6.35-1.36-.74-2.42-1.31-3.15-1.67-.34-.17-.62-.3-.83-.41-.19-.07-.29-.12-.29-.13.03-.1 1.63.59 4.38 2.02 2.76 1.42 6.7 3.54 11.53 6.2l-.28.1 12.32-30.49c.27-.67.55-1.35.8-1.97l.12-.29.26.17c7.01 4.46 13.57 8.64 19.22 12.24l-.33.09c3.41-6.93 6.27-12.72 8.29-16.82 1-2 1.79-3.58 2.36-4.7.27-.51.48-.92.64-1.23.13-.29.21-.44.22-.43z" fill="#5c9ca4"/></g></g></svg>