<svg xmlns="http://www.w3.org/2000/svg" width="39.533" height="37.257" viewBox="0 0 39.533 37.257"><g transform="translate(-1008 -5318.061)"><g transform="translate(1008 5318.061)"><path d="M38.332,6.975H37.6a2.129,2.129,0,0,0-2.126-2.089H33.709V2.127A2.13,2.13,0,0,0,31.581,0H7.952A2.13,2.13,0,0,0,5.825,2.127V4.887H4.057A2.129,2.129,0,0,0,1.931,6.975H1.2A1.2,1.2,0,0,0,0,8.176v6.185a1.2,1.2,0,0,0,1.2,1.2H3.82a1.2,1.2,0,0,0,1.2-1.2V8.176a1.2,1.2,0,0,0-1.2-1.2H3.093a.967.967,0,0,1,.965-.928H5.825V27.573a.58.58,0,0,0,1.161,0V22.788a2.111,2.111,0,0,0,.967.233H31.581a2.111,2.111,0,0,0,.967-.233v9.368a.968.968,0,0,1-.967.967H7.952a.968.968,0,0,1-.967-.967v-1.9a.58.58,0,0,0-1.161,0v1.9a2.13,2.13,0,0,0,2.128,2.127h.6v1.349a1.627,1.627,0,0,0,1.625,1.625h2.608a1.627,1.627,0,0,0,1.624-1.625V34.283H25.12v1.349a1.627,1.627,0,0,0,1.624,1.625h2.608a1.627,1.627,0,0,0,1.625-1.625V34.283h.6a2.13,2.13,0,0,0,2.128-2.127V6.047h1.767a.968.968,0,0,1,.965.928h-.727a1.2,1.2,0,0,0-1.2,1.2v6.185a1.2,1.2,0,0,0,1.2,1.2h2.619a1.2,1.2,0,0,0,1.2-1.2V8.176a1.2,1.2,0,0,0-1.2-1.2ZM3.82,8.136a.04.04,0,0,1,.04.04v6.185a.04.04,0,0,1-.04.04H1.2a.04.04,0,0,1-.04-.04V8.176a.04.04,0,0,1,.04-.04Zm9.433,27.5a.465.465,0,0,1-.464.464H10.18a.465.465,0,0,1-.464-.464V34.283h3.536v1.349Zm16.564,0a.465.465,0,0,1-.464.464H26.744a.465.465,0,0,1-.464-.464V34.283h3.537Zm2.731-28.7H9.116a.58.58,0,0,0,0,1.161H32.548V19.082H28.715a.58.58,0,0,0,0,1.161h3.833v.652a.968.968,0,0,1-.967.967H7.952a.968.968,0,0,1-.967-.967v-.652H26.007a.58.58,0,1,0,0-1.161H20.3l5.474-4.576a.579.579,0,0,0-.743-.889l-6.537,5.465H16l5.474-4.576a.579.579,0,1,0-.743-.889L14.2,19.082H6.985V5.073H32.548Zm0-3.017H6.985V2.127a.968.968,0,0,1,.967-.967H31.581a.968.968,0,0,1,.967.967Zm5.825,10.449a.04.04,0,0,1-.04.04H35.714a.04.04,0,0,1-.04-.04V8.176a.04.04,0,0,1,.04-.04h2.619a.04.04,0,0,1,.04.04Zm0,0" transform="translate(0 0)" fill="#17a6af"/><path d="M116.887,328.162a1.148,1.148,0,0,0,1.146-1.146v-1.1a2.708,2.708,0,0,0-2.7-2.7h-4.218a1.147,1.147,0,0,0-1.146,1.146v1.1a2.708,2.708,0,0,0,2.7,2.7Zm-5.548-2.7v-.871h3.989a1.331,1.331,0,0,1,1.329,1.329v.871H112.67a1.331,1.331,0,0,1-1.33-1.329Zm0,0" transform="translate(-101.801 -298.838)" fill="#17a6af"/><path d="M319.228,328.162a2.708,2.708,0,0,0,2.7-2.7v-1.1a1.147,1.147,0,0,0-1.146-1.146h-4.218a2.708,2.708,0,0,0-2.7,2.7v1.1a1.148,1.148,0,0,0,1.146,1.146Zm-3.989-2.247a1.331,1.331,0,0,1,1.33-1.329h3.988v.871a1.331,1.331,0,0,1-1.329,1.329h-3.989Zm0,0" transform="translate(-290.563 -298.838)" fill="#17a6af"/><path d="M220.155,382.229a.882.882,0,0,0,.881-.881v-1.814a.882.882,0,0,0-.881-.881h-6.071a.882.882,0,0,0-.881.881v1.814a.882.882,0,0,0,.881.881Zm-5.577-2.2h5.082v.825h-5.082Zm0,0" transform="translate(-197.353 -350.901)" fill="#17a6af"/></g></g></svg>