<svg width="32" height="32" viewBox="0 0 32 32" fill="none" xmlns="http://www.w3.org/2000/svg"><path d="M21.1738 5.20335c.4733-.18617.8385.05385.9446.15601.1061.10216.4243.40864.3252.92724l-2.8559 16.4237c-.0991.5186-.4753.7146-.6193.7712-.1646.0648-.5704.1765-.9446-.156L5.73523 12.8594c-.39477-.3243-.36322-.7684-.32526-.9272.03795-.1588.14603-.585.6193-.7712L21.1738 5.20335zm-.2957-.84294L5.73357 10.318c-1.33749.5262-1.64311 2.3251-.57068 3.2462L17.4515 24.0303c.5362.4606 1.2365.5208 1.8126.2942.5762-.2267 1.0694-.7564 1.1916-1.476l2.856-16.42374c.2518-1.41807-1.0961-2.5905-2.4336-2.06435z" fill="#FDBC5A"/></svg>