<svg xmlns="http://www.w3.org/2000/svg" width="20" height="20" fill="none"  xmlns:v="https://vecta.io/nano"><path d="M19.885 3.788c-.133-.145-.347-.183-.522-.092-.18.082-.365.15-.556.2a3.91 3.91 0 0 0 .661-1.272c.062-.232-.076-.47-.308-.532-.124-.033-.256-.01-.36.064a9.14 9.14 0 0 1-2.092.818c-1.5-1.415-3.784-1.592-5.483-.423-1.31.885-2.03 2.414-1.878 3.987-2.837-.242-5.447-1.648-7.21-3.884a.45.45 0 0 0-.37-.163c-.144.01-.274.088-.348.212a4.21 4.21 0 0 0-.48 3.267c.15.57.406 1.106.756 1.58a2.31 2.31 0 0 1-.442-.283c-.186-.15-.46-.123-.612.064-.063.077-.097.174-.097.274.026 1.61.91 3.08 2.317 3.86-.2-.023-.377-.063-.56-.12-.23-.07-.472.06-.542.29-.03.1-.023.208.02.304C2.39 13.3 3.6 14.3 5.072 14.638a7.66 7.66 0 0 1-4.587.944.43.43 0 0 0-.463.297c-.064.197.02.41.2.513a13.03 13.03 0 0 0 6.426 1.826c2.172-.008 4.294-.657 6.1-1.865 3.446-2.287 5.594-6.393 5.295-10.067.737-.545 1.376-1.212 1.9-1.97.106-.166.086-.383-.047-.528z" fill="#fff"/></svg>