<svg xmlns="http://www.w3.org/2000/svg" width="680" height="372" fill="none"  xmlns:v="https://vecta.io/nano"><style><![CDATA[.B{fill:#3f3d56}.C{fill:#d0cde1}.D{fill:#6c63ff}]]></style><g clip-path="url(#A)"><path d="M680 38.615H217.47v301.022H680V38.615z" class="B"/><g class="C"><path d="M238.774 36.93h-35.32v303.83h35.32V36.93zm160.344 83.67h-92.506v1.123h92.506V120.6zM609.92 283.476H482.654v-119.06H609.92v119.06zm-126.145-1.123h125.023V165.538H483.775v116.815z"/><path d="M483.597 164.566l-.765.82 126.144 117.938.766-.82-126.145-117.938z"/><path d="M608.98 164.57L482.83 282.5l.765.82 126.15-117.93-.766-.822zm-171.738 38.596h-130.63v1.123h130.63v-1.123zm0 20.218h-130.63v1.123h130.63v-1.123zm0 20.218h-130.63v1.123h130.63v-1.123z"/></g><path d="M415.42 23.732c6.542 0 11.845-5.312 11.845-11.866S421.962 0 415.42 0s-11.845 5.312-11.845 11.866 5.303 11.866 11.845 11.866z" class="B"/><path d="M448.735 23.732c6.542 0 11.845-5.312 11.845-11.866S455.277 0 448.735 0 436.9 5.312 436.9 11.866s5.303 11.866 11.845 11.866z" class="D"/><path d="M482.05 23.732a11.86 11.86 0 0 0 11.846-11.866A11.86 11.86 0 0 0 482.05 0c-6.542 0-11.845 5.312-11.845 11.866s5.303 11.866 11.845 11.866z" class="C"/><path d="M398.446 370.584H0V372h398.446v-1.416z" class="B"/><g fill="#2f2e41"><path d="M117.597 138.144c4.304 0 7.794-3.495 7.794-7.808s-3.5-7.808-7.794-7.808-7.795 3.496-7.795 7.808 3.5 7.808 7.795 7.808z"/><path d="M134.056 129.18c12.353 0 22.367-11.005 22.367-24.58s-10.014-24.58-22.367-24.58-22.367 11.005-22.367 24.58 10.014 24.58 22.367 24.58zm-15.738 81.115l-.577 2.892s-1.732 1.735-.866 2.603.577 4.916.577 4.916l-1.732 11.278-10.104 45.7s-13.28 8.676-23.672 25.738-10.68 21.4-10.68 21.4l11.548 4.916 28.868-35s8.084-4.916 10.97-9.254 20.785-49.16 20.785-49.16l10.104 46.848s-.577 17.062 2.02 28.05a117.93 117.93 0 0 1 2.887 21.1l13.568-1.446s-.866-41.064-2.3-45.402c0 0 6.062-50.03-6.063-69.982l-7.217-29.208-12.125-.578-25.982 24.58z"/><path d="M85.12 328.572l-14.434-8.965-6.64 12.724s-14.723 8.965-11.548 15.616 6.063 8.387 6.063 8.387l2.02-.868 3.753 6.94s9.815 14.17 25.693 6.94a5.82 5.82 0 0 0 0-6.94c-2.598-3.76-9.238-11.857-9.238-11.857l4.33-21.978zm88.337.288l-15.877 1.157 1.732 13.013s-7.506 18.508-2.3 19.954c3.697.957 7.46 1.633 11.26 2.024l.577-2.024s22.23 12.146 30.313 3.18c0 0 1.732-6.362-3.176-8.386s-14.434-6.362-15.6-8.676-6.93-20.243-6.93-20.243z"/></g><g fill="#ffb8b8"><path d="M134.773 122.384c7.653 0 13.857-6.215 13.857-13.88s-6.204-13.88-13.857-13.88-13.857 6.215-13.857 13.88 6.204 13.88 13.857 13.88z"/><path d="M124.38 116.89s1.732 11.278-6.93 15.616 22.807 9.543 22.807 9.543-4.908-7.52-4.042-10.12 5.196-13.014 5.196-13.014l-17.032-2.024z"/></g><path d="M122.07 132.794s-8.372-4.916-11.26-2.602-3.753 73.163 6.64 76.055l.29 3.76s-3.753 1.735-.29 1.735 19.63-11.857 20.208-16.195 17.322-5.205 17.322-5.205 4.33 18.508 5.773 17.93 1.444-13.013.866-14.748 6.64-7.23 4.62-10.7-7.506-15.326-7.506-15.326.578-7.52-7.217-14.46c0 0-2.278-12.917-12.542-13.1s-16.904-7.133-16.904-7.133z" fill="#575a89"/><path d="M120.977 91.6v15.867h3.668l4.668-5.01-.625 5.01h16.214l-1-5.01 2 5.01h2.584V91.6h-27.51z" fill="#2f2e41"/><path d="M154.897 233.778H35.283v109.428h119.614V233.778z" class="D"/><path d="M106.1 290.757c-10.083 16.49-6.614 37.004-6.614 37.004s19.818-6.224 29.902-22.715 6.614-37.004 6.614-37.004-19.818 6.225-29.902 22.715z" class="B"/><path d="M99.084 327.897l-.573-.09c-.207-.033-20.844-3.458-33.203-18.27S53.246 273.77 53.25 273.56l.012-.58.573.09c.207.033 20.844 3.458 33.203 18.27s12.062 35.765 12.058 35.975l-.012.58z" class="C"/><path d="M100.125 274.326c6.153 0 11.142-4.997 11.142-11.16s-4.99-11.16-11.142-11.16-11.14 4.997-11.14 11.16 4.988 11.16 11.14 11.16z" class="B"/><path d="M100.42 203.355l3.464 25.738s-2.02 22.556 5.774 22.845 2.887-23.135 2.887-23.135l-.867-23.424s-6.35-10.4-11.258-2.024z" fill="#ffb8b8"/><path d="M113.41 131.927s-2.02-5.494-6.352-1.157-8.083 15.616-8.083 22.557.866 47.137.866 47.137-4.62 1.735-1.443 4.337 7.506-1.445 7.506-1.445 5.773 4.048 6.35 4.048.29-4.916.29-4.916 2.886-7.52 2.31-13.303-1.443-57.258-1.443-57.258z" fill="#575a89"/><g class="C"><path d="M609.92 104.885H306.052v-20.78H609.92v20.78zm-302.747-1.123h301.625V85.23H307.173v18.533zM67.017 263.733H37.114c2.308-9.306 2.03-19.373 0-29.955h29.904c-4.186 9.985-4.186 19.97 0 29.955z"/></g><g class="B"><path d="M59.768 240.132H41.644v3.63h18.123v-3.63zm0 7.262H41.644v3.63h18.123v-3.63zm0 7.26H41.644v3.63h18.123v-3.63z"/></g><path d="M336.15 146.358h-29.903c2.308-9.306 2.03-19.373 0-29.955h29.903c-4.186 9.985-4.186 19.97 0 29.955z" class="C"/><g class="B"><path d="M328.9 122.757h-18.124v3.63H328.9v-3.63zm0 7.263h-18.124v3.63H328.9v-3.63zm0 7.26h-18.124v3.63H328.9v-3.63z"/></g><path d="M561.34 191.596h-29.903c2.308-9.306 2.03-19.373 0-29.955h29.903c-4.186 9.985-4.186 19.97 0 29.955z" class="C"/><g class="B"><path d="M554.092 167.995H535.97v3.63h18.123v-3.63zm0 7.262H535.97v3.63h18.123v-3.63zm0 7.263H535.97v3.63h18.123v-3.63z"/></g><path d="M599.79 127.407h-29.904c2.31-9.306 2.03-19.373 0-29.955h29.904c-4.186 9.985-4.186 19.97 0 29.955z" class="C"/><g class="B"><path d="M592.54 103.806h-18.123v3.63h18.123v-3.63zm0 7.26h-18.123v3.63h18.123v-3.63zm0 7.263h-18.123v3.63h18.123v-3.63zm-363.492 43.005H213.18V145.44h15.867v15.894zm-14.647-1.222h13.426v-13.45H214.4v13.45zm14.95 36.68h-15.867v-15.894h15.867v15.894zm-14.647-1.222h13.426v-13.45h-13.426v13.45zm14.95 36.68h-15.867v-15.895h15.867v15.895zm-14.646-1.223h13.426v-13.45h-13.426v13.45z"/></g><path d="M214.094 221.55c2.696 0 4.882-2.19 4.882-4.9s-2.186-4.89-4.882-4.89-4.882 2.2-4.882 4.89 2.185 4.9 4.882 4.9z" class="D"/></g><defs><clipPath id="A"><path fill="#fff" d="M0 0h680v372H0z"/></clipPath></defs></svg>