<svg width="707" height="648" viewBox="0 0 707 648" fill="none" xmlns="http://www.w3.org/2000/svg">
<g clip-path="url(#clip0)">
<path d="M725 301.615H262.47V602.637H725V301.615Z" fill="#3F3D56"/>
<path d="M283.774 299.93H248.454V603.76H283.774V299.93Z" fill="#D0CDE1"/>
<path d="M444.118 383.61H351.612V384.733H444.118V383.61Z" fill="#D0CDE1"/>
<path d="M654.92 546.476H527.654V427.415H654.92V546.476ZM528.775 545.353H653.798V428.538H528.775V545.353Z" fill="#D0CDE1"/>
<path d="M528.597 427.566L527.832 428.387L653.976 546.325L654.742 545.504L528.597 427.566Z" fill="#D0CDE1"/>
<path d="M653.979 427.569L527.829 545.501L528.594 546.322L654.745 428.391L653.979 427.569Z" fill="#D0CDE1"/>
<path d="M482.242 466.166H351.612V467.289H482.242V466.166Z" fill="#D0CDE1"/>
<path d="M482.242 486.384H351.612V487.507H482.242V486.384Z" fill="#D0CDE1"/>
<path d="M482.242 506.602H351.612V507.725H482.242V506.602Z" fill="#D0CDE1"/>
<path d="M460.42 286.732C466.962 286.732 472.265 281.419 472.265 274.866C472.265 268.312 466.962 263 460.42 263C453.878 263 448.575 268.312 448.575 274.866C448.575 281.419 453.878 286.732 460.42 286.732Z" fill="#3F3D56"/>
<path d="M493.735 286.732C500.277 286.732 505.58 281.419 505.58 274.866C505.58 268.312 500.277 263 493.735 263C487.193 263 481.89 268.312 481.89 274.866C481.89 281.419 487.193 286.732 493.735 286.732Z" fill="#6C63FF"/>
<path d="M527.05 286.732C533.592 286.732 538.896 281.419 538.896 274.866C538.896 268.312 533.592 263 527.05 263C520.508 263 515.205 268.312 515.205 274.866C515.205 281.419 520.508 286.732 527.05 286.732Z" fill="#D0CDE1"/>
<path d="M443.446 633.584H45V635H443.446V633.584Z" fill="#3F3D56"/>
<path d="M162.597 401.144C166.901 401.144 170.391 397.649 170.391 393.336C170.391 389.024 166.901 385.528 162.597 385.528C158.292 385.528 154.802 389.024 154.802 393.336C154.802 397.649 158.292 401.144 162.597 401.144Z" fill="#2F2E41"/>
<path d="M179.056 392.179C191.409 392.179 201.423 381.174 201.423 367.599C201.423 354.023 191.409 343.018 179.056 343.018C166.703 343.018 156.689 354.023 156.689 367.599C156.689 381.174 166.703 392.179 179.056 392.179Z" fill="#2F2E41"/>
<path d="M163.318 473.295L162.741 476.187C162.741 476.187 161.009 477.922 161.875 478.79C162.741 479.658 162.452 483.706 162.452 483.706L160.72 494.984L150.616 540.675C150.616 540.675 137.336 549.351 126.944 566.413C116.551 583.475 116.262 587.812 116.262 587.812L127.81 592.728L156.678 557.737C156.678 557.737 164.762 552.821 167.649 548.483C170.535 544.146 188.434 499.322 188.434 499.322L198.538 546.17C198.538 546.17 197.961 563.232 200.559 574.221C202.156 581.156 203.123 588.221 203.446 595.331L217.014 593.885C217.014 593.885 216.148 552.821 214.705 548.483C214.705 548.483 220.767 498.454 208.642 478.501L201.425 449.293L189.3 448.715L163.318 473.295Z" fill="#2F2E41"/>
<path d="M130.119 591.572L115.685 582.607L109.045 595.331C109.045 595.331 94.3221 604.296 97.4977 610.947C100.673 617.599 103.56 619.334 103.56 619.334L105.581 618.466L109.334 625.407C109.334 625.407 119.149 639.577 135.027 632.347C135.772 631.344 136.175 630.127 136.175 628.877C136.175 627.627 135.772 626.41 135.027 625.407C132.429 621.647 125.789 613.55 125.789 613.55L130.119 591.572Z" fill="#2F2E41"/>
<path d="M218.457 591.861L202.58 593.018L204.312 606.031C204.312 606.031 196.806 624.539 202.002 625.985C205.699 626.942 209.463 627.618 213.261 628.009L213.838 625.985C213.838 625.985 236.067 638.131 244.151 629.166C244.151 629.166 245.883 622.804 240.975 620.78C236.067 618.755 226.541 614.418 225.386 612.104C224.231 609.791 218.457 591.861 218.457 591.861Z" fill="#2F2E41"/>
<path d="M179.773 385.384C187.426 385.384 193.63 379.169 193.63 371.503C193.63 363.837 187.426 357.622 179.773 357.622C172.12 357.622 165.916 363.837 165.916 371.503C165.916 379.169 172.12 385.384 179.773 385.384Z" fill="#FFB8B8"/>
<path d="M169.381 379.889C169.381 379.889 171.113 391.167 162.452 395.505C153.792 399.843 185.259 405.048 185.259 405.048C185.259 405.048 180.351 397.529 181.217 394.927C182.083 392.324 186.413 381.913 186.413 381.913L169.381 379.889Z" fill="#FFB8B8"/>
<path d="M167.071 395.794C167.071 395.794 158.699 390.878 155.812 393.192C152.926 395.505 152.059 466.355 162.452 469.247L162.741 473.007C162.741 473.007 158.988 474.742 162.452 474.742C165.916 474.742 182.083 462.885 182.66 458.547C183.238 454.21 199.982 453.342 199.982 453.342C199.982 453.342 204.312 471.85 205.755 471.271C207.199 470.693 207.199 458.258 206.621 456.523C206.044 454.788 213.261 449.293 211.24 445.823C209.22 442.353 203.734 430.497 203.734 430.497C203.734 430.497 204.312 422.978 196.517 416.037C196.517 416.037 194.239 403.12 183.975 402.927C173.711 402.735 167.071 395.794 167.071 395.794Z" fill="#575A89"/>
<path d="M165.977 354.61V370.477H169.645L174.313 365.466L173.688 370.477H189.902L188.901 365.466L190.902 370.477H193.486V354.61H165.977Z" fill="#2F2E41"/>
<path d="M199.897 496.778H80.2827V606.206H199.897V496.778Z" fill="#6C63FF"/>
<path d="M151.11 553.757C141.027 570.248 144.496 590.761 144.496 590.761C144.496 590.761 164.314 584.537 174.398 568.046C184.482 551.555 181.012 531.042 181.012 531.042C181.012 531.042 161.194 537.267 151.11 553.757Z" fill="#3F3D56"/>
<path d="M144.084 590.897L143.511 590.806C143.304 590.773 122.667 587.348 110.308 572.535C97.9487 557.722 98.2461 536.77 98.2501 536.56L98.2624 535.979L98.8358 536.07C99.0431 536.103 119.68 539.528 132.039 554.341C144.398 569.154 144.101 590.106 144.097 590.316L144.084 590.897Z" fill="#D0CDE1"/>
<path d="M145.125 537.326C151.278 537.326 156.267 532.329 156.267 526.165C156.267 520.001 151.278 515.004 145.125 515.004C138.972 515.004 133.983 520.001 133.983 526.165C133.983 532.329 138.972 537.326 145.125 537.326Z" fill="#3F3D56"/>
<path d="M145.42 466.355L148.884 492.093C148.884 492.093 146.863 514.649 154.658 514.938C162.452 515.227 157.545 491.803 157.545 491.803L156.678 468.379C156.678 468.379 150.327 457.969 145.42 466.355Z" fill="#FFB8B8"/>
<path d="M158.411 394.927C158.411 394.927 156.39 389.433 152.059 393.77C147.729 398.108 143.976 409.386 143.976 416.327C143.976 423.267 144.842 463.464 144.842 463.464C144.842 463.464 140.223 465.199 143.399 467.801C146.574 470.404 150.905 466.356 150.905 466.356C150.905 466.356 156.678 470.404 157.256 470.404C157.833 470.404 157.545 465.488 157.545 465.488C157.545 465.488 160.431 457.969 159.854 452.185C159.277 446.402 158.411 394.927 158.411 394.927Z" fill="#575A89"/>
<path d="M654.92 367.885H351.052V347.105H654.92V367.885ZM352.173 366.762H653.798V348.229H352.173V366.762Z" fill="#D0CDE1"/>
<path d="M112.017 526.733H82.1136C84.422 517.427 84.1435 507.36 82.1136 496.778H112.017C107.831 506.763 107.831 516.748 112.017 526.733Z" fill="#D0CDE1"/>
<path d="M104.768 503.132H86.6444V506.763H104.768V503.132Z" fill="#3F3D56"/>
<path d="M104.768 510.394H86.6444V514.024H104.768V510.394Z" fill="#3F3D56"/>
<path d="M104.768 517.655H86.6444V521.286H104.768V517.655Z" fill="#3F3D56"/>
<path d="M381.149 409.358H351.246C353.554 400.052 353.275 389.985 351.246 379.403H381.149C376.963 389.388 376.963 399.373 381.149 409.358Z" fill="#D0CDE1"/>
<path d="M373.9 385.757H355.776V389.388H373.9V385.757Z" fill="#3F3D56"/>
<path d="M373.9 393.019H355.776V396.649H373.9V393.019Z" fill="#3F3D56"/>
<path d="M373.9 400.281H355.776V403.912H373.9V400.281Z" fill="#3F3D56"/>
<path d="M606.341 454.596H576.438C578.746 445.29 578.468 435.223 576.438 424.641H606.341C602.155 434.626 602.155 444.611 606.341 454.596Z" fill="#D0CDE1"/>
<path d="M599.092 430.995H580.969V434.626H599.092V430.995Z" fill="#3F3D56"/>
<path d="M599.092 438.257H580.969V441.888H599.092V438.257Z" fill="#3F3D56"/>
<path d="M599.092 445.519H580.969V449.15H599.092V445.519Z" fill="#3F3D56"/>
<path d="M644.789 390.407H614.885C617.194 381.101 616.915 371.034 614.885 360.452H644.789C640.603 370.437 640.603 380.422 644.789 390.407Z" fill="#D0CDE1"/>
<path d="M637.539 366.806H619.416V370.437H637.539V366.806Z" fill="#3F3D56"/>
<path d="M637.539 374.067H619.416V377.698H637.539V374.067Z" fill="#3F3D56"/>
<path d="M637.539 381.33H619.416V384.961H637.539V381.33Z" fill="#3F3D56"/>
<path d="M274.048 424.335H258.181V408.441H274.048V424.335ZM259.401 423.113H272.827V409.664H259.401V423.113Z" fill="#3F3D56"/>
<path d="M274.351 459.792H258.484V443.898H274.351V459.792ZM259.704 458.57H273.13V445.121H259.704V458.57Z" fill="#3F3D56"/>
<path d="M274.653 495.25H258.786V479.355H274.653V495.25ZM260.007 494.027H273.433V480.578H260.007V494.027Z" fill="#3F3D56"/>
<path d="M259.094 484.551C261.79 484.551 263.976 482.362 263.976 479.661C263.976 476.96 261.79 474.77 259.094 474.77C256.397 474.77 254.212 476.96 254.212 479.661C254.212 482.362 256.397 484.551 259.094 484.551Z" fill="#6C63FF"/>
</g>
<path d="M77.8352 92.3125C76.8636 84.25 70.7614 79.6136 62.6818 79.6136C53.4602 79.6136 46.4205 86.125 46.4205 97.5455C46.4205 108.932 53.3409 115.477 62.6818 115.477C71.6307 115.477 77.0341 109.528 77.8352 103.102L70.3693 103.068C69.6705 106.801 66.7386 108.949 62.8011 108.949C57.5 108.949 53.9034 105.011 53.9034 97.5455C53.9034 90.2841 57.4489 86.142 62.8523 86.142C66.892 86.142 69.8068 88.4773 70.3693 92.3125H77.8352ZM94.821 115.511C102.764 115.511 107.707 110.074 107.707 102.011C107.707 93.8977 102.764 88.4773 94.821 88.4773C86.8778 88.4773 81.9347 93.8977 81.9347 102.011C81.9347 110.074 86.8778 115.511 94.821 115.511ZM94.8551 109.886C91.1903 109.886 89.3153 106.528 89.3153 101.96C89.3153 97.392 91.1903 94.017 94.8551 94.017C98.4517 94.017 100.327 97.392 100.327 101.96C100.327 106.528 98.4517 109.886 94.8551 109.886ZM119.69 99.8636C119.707 96.4886 121.719 94.5114 124.651 94.5114C127.565 94.5114 129.321 96.4205 129.304 99.625V115H136.565V98.3295C136.565 92.2273 132.986 88.4773 127.531 88.4773C123.645 88.4773 120.832 90.3864 119.656 93.4375H119.349V88.8182H112.429V115H119.69V99.8636ZM154.118 115.511C161.089 115.511 165.47 111.42 165.811 105.403H158.959C158.533 108.199 156.692 109.767 154.203 109.767C150.811 109.767 148.612 106.92 148.612 101.909C148.612 96.9659 150.828 94.1364 154.203 94.1364C156.862 94.1364 158.567 95.892 158.959 98.5H165.811C165.504 92.4489 160.919 88.4773 154.084 88.4773C146.141 88.4773 141.232 93.983 141.232 102.011C141.232 109.972 146.055 115.511 154.118 115.511ZM182.392 115.511C188.869 115.511 193.233 112.358 194.256 107.5L187.54 107.057C186.807 109.051 184.932 110.091 182.511 110.091C178.881 110.091 176.58 107.688 176.58 103.784V103.767H194.409V101.773C194.409 92.875 189.023 88.4773 182.102 88.4773C174.398 88.4773 169.403 93.9489 169.403 102.028C169.403 110.33 174.33 115.511 182.392 115.511ZM176.58 99.267C176.733 96.2841 179 93.8977 182.222 93.8977C185.375 93.8977 187.557 96.1477 187.574 99.267H176.58ZM199.148 124.818H206.409V110.807H206.631C207.636 112.989 209.835 115.426 214.062 115.426C220.028 115.426 224.682 110.705 224.682 101.943C224.682 92.9432 219.824 88.4773 214.08 88.4773C209.699 88.4773 207.602 91.0852 206.631 93.2159H206.307V88.8182H199.148V124.818ZM206.256 101.909C206.256 97.2386 208.233 94.2557 211.761 94.2557C215.358 94.2557 217.267 97.375 217.267 101.909C217.267 106.477 215.324 109.648 211.761 109.648C208.267 109.648 206.256 106.58 206.256 101.909ZM243.449 88.8182H238.523V82.5455H231.261V88.8182H227.682V94.2727H231.261V107.909C231.227 113.04 234.722 115.58 239.989 115.358C241.864 115.29 243.193 114.915 243.926 114.676L242.784 109.273C242.426 109.341 241.659 109.511 240.977 109.511C239.528 109.511 238.523 108.966 238.523 106.955V94.2727H243.449V88.8182ZM248.179 115H255.44V88.8182H248.179V115ZM251.827 85.4432C253.991 85.4432 255.764 83.7898 255.764 81.7614C255.764 79.75 253.991 78.0966 251.827 78.0966C249.679 78.0966 247.906 79.75 247.906 81.7614C247.906 83.7898 249.679 85.4432 251.827 85.4432ZM273.087 115.511C281.03 115.511 285.973 110.074 285.973 102.011C285.973 93.8977 281.03 88.4773 273.087 88.4773C265.143 88.4773 260.2 93.8977 260.2 102.011C260.2 110.074 265.143 115.511 273.087 115.511ZM273.121 109.886C269.456 109.886 267.581 106.528 267.581 101.96C267.581 97.392 269.456 94.017 273.121 94.017C276.717 94.017 278.592 97.392 278.592 101.96C278.592 106.528 276.717 109.886 273.121 109.886ZM297.956 99.8636C297.973 96.4886 299.984 94.5114 302.916 94.5114C305.831 94.5114 307.587 96.4205 307.57 99.625V115H314.831V98.3295C314.831 92.2273 311.251 88.4773 305.797 88.4773C301.911 88.4773 299.098 90.3864 297.922 93.4375H297.615V88.8182H290.695V115H297.956V99.8636ZM341.311 115.426C345.538 115.426 347.737 112.989 348.743 110.807H349.05V115H356.209V80.0909H348.964V93.2159H348.743C347.771 91.0852 345.675 88.4773 341.294 88.4773C335.55 88.4773 330.692 92.9432 330.692 101.943C330.692 110.705 335.345 115.426 341.311 115.426ZM343.612 109.648C340.05 109.648 338.107 106.477 338.107 101.909C338.107 97.375 340.016 94.2557 343.612 94.2557C347.141 94.2557 349.118 97.2386 349.118 101.909C349.118 106.58 347.107 109.648 343.612 109.648ZM368.264 80.0909H362.81V83.8068C362.81 86.6875 361.787 88.7841 360.645 90.5909L363.849 92.483C366.253 90.4716 368.264 86.892 368.264 83.7727V80.0909ZM373.101 115H380.362V88.8182H373.101V115ZM376.749 85.4432C378.913 85.4432 380.686 83.7898 380.686 81.7614C380.686 79.75 378.913 78.0966 376.749 78.0966C374.601 78.0966 372.828 79.75 372.828 81.7614C372.828 83.7898 374.601 85.4432 376.749 85.4432ZM393.44 99.8636C393.457 96.4886 395.469 94.5114 398.401 94.5114C401.315 94.5114 403.071 96.4205 403.054 99.625V115H410.315V98.3295C410.315 92.2273 406.736 88.4773 401.281 88.4773C397.395 88.4773 394.582 90.3864 393.406 93.4375H393.099V88.8182H386.179V115H393.44V99.8636ZM429.964 88.8182H425.038V82.5455H417.777V88.8182H414.197V94.2727H417.777V107.909C417.743 113.04 421.237 115.58 426.504 115.358C428.379 115.29 429.709 114.915 430.442 114.676L429.3 109.273C428.942 109.341 428.175 109.511 427.493 109.511C426.044 109.511 425.038 108.966 425.038 106.955V94.2727H429.964V88.8182ZM446.345 115.511C452.822 115.511 457.186 112.358 458.209 107.5L451.493 107.057C450.76 109.051 448.885 110.091 446.464 110.091C442.834 110.091 440.533 107.688 440.533 103.784V103.767H458.362V101.773C458.362 92.875 452.976 88.4773 446.055 88.4773C438.351 88.4773 433.357 93.9489 433.357 102.028C433.357 110.33 438.283 115.511 446.345 115.511ZM440.533 99.267C440.686 96.2841 442.953 93.8977 446.175 93.8977C449.328 93.8977 451.51 96.1477 451.527 99.267H440.533ZM463.101 115H470.362V100.188C470.362 96.9659 472.714 94.75 475.919 94.75C476.925 94.75 478.305 94.9205 478.987 95.142V88.6989C478.339 88.5455 477.436 88.4432 476.703 88.4432C473.771 88.4432 471.368 90.1477 470.413 93.3864H470.141V88.8182H463.101V115ZM498.134 88.8182H492.935V87.0625C492.935 85.2898 493.651 84.25 495.781 84.25C496.651 84.25 497.537 84.4375 498.116 84.625L499.395 79.1705C498.491 78.8977 496.497 78.4545 494.264 78.4545C489.338 78.4545 485.673 81.233 485.673 86.9261V88.8182H481.974V94.2727H485.673V115H492.935V94.2727H498.134V88.8182ZM509.098 115.494C512.967 115.494 515.473 113.807 516.751 111.369H516.956V115H523.842V97.3409C523.842 91.1023 518.558 88.4773 512.729 88.4773C506.456 88.4773 502.331 91.4773 501.325 96.25L508.041 96.7955C508.536 95.0568 510.087 93.7784 512.695 93.7784C515.166 93.7784 516.581 95.0227 516.581 97.1705V97.2727C516.581 98.9602 514.791 99.1818 510.24 99.625C505.058 100.102 500.405 101.841 500.405 107.688C500.405 112.869 504.104 115.494 509.098 115.494ZM511.178 110.483C508.945 110.483 507.342 109.443 507.342 107.449C507.342 105.403 509.03 104.398 511.587 104.04C513.172 103.818 515.763 103.443 516.632 102.864V105.642C516.632 108.386 514.365 110.483 511.178 110.483ZM541.305 115.511C548.277 115.511 552.658 111.42 552.999 105.403H546.146C545.72 108.199 543.879 109.767 541.391 109.767C537.999 109.767 535.8 106.92 535.8 101.909C535.8 96.9659 538.016 94.1364 541.391 94.1364C544.05 94.1364 545.754 95.892 546.146 98.5H552.999C552.692 92.4489 548.107 88.4773 541.271 88.4773C533.328 88.4773 528.419 93.983 528.419 102.011C528.419 109.972 533.243 115.511 541.305 115.511ZM569.58 115.511C576.057 115.511 580.42 112.358 581.443 107.5L574.727 107.057C573.994 109.051 572.119 110.091 569.699 110.091C566.068 110.091 563.767 107.688 563.767 103.784V103.767H581.597V101.773C581.597 92.875 576.21 88.4773 569.29 88.4773C561.585 88.4773 556.591 93.9489 556.591 102.028C556.591 110.33 561.517 115.511 569.58 115.511ZM563.767 99.267C563.92 96.2841 566.188 93.8977 569.409 93.8977C572.562 93.8977 574.744 96.1477 574.761 99.267H563.767ZM608.119 96.2841C607.472 91.4602 603.585 88.4773 596.972 88.4773C590.273 88.4773 585.858 91.5795 585.875 96.625C585.858 100.545 588.33 103.085 593.443 104.108L597.977 105.011C600.261 105.472 601.301 106.307 601.335 107.619C601.301 109.17 599.614 110.278 597.074 110.278C594.483 110.278 592.761 109.17 592.318 107.04L585.176 107.415C585.858 112.426 590.119 115.511 597.057 115.511C603.841 115.511 608.699 112.051 608.716 106.886C608.699 103.102 606.227 100.835 601.148 99.7955L596.409 98.8409C593.972 98.3125 593.068 97.4773 593.085 96.2159C593.068 94.6477 594.841 93.625 597.091 93.625C599.614 93.625 601.114 95.0057 601.472 96.6932L608.119 96.2841ZM70.1818 149.375H77.6818C76.7273 142.472 70.642 137.614 62.75 137.614C53.5284 137.614 46.4205 144.261 46.4205 155.58C46.4205 166.625 53.0682 173.477 62.9034 173.477C71.7159 173.477 78.0057 167.903 78.0057 158.716V154.318H63.3977V159.875H70.8977C70.7955 164.205 67.8466 166.949 62.9375 166.949C57.3977 166.949 53.9034 162.807 53.9034 155.511C53.9034 148.25 57.5341 144.142 62.8693 144.142C66.6705 144.142 69.2443 146.102 70.1818 149.375ZM83.4134 173H90.6747V158.188C90.6747 154.966 93.027 152.75 96.2315 152.75C97.2372 152.75 98.6179 152.92 99.2997 153.142V146.699C98.652 146.545 97.7486 146.443 97.0156 146.443C94.0838 146.443 91.6804 148.148 90.7259 151.386H90.4531V146.818H83.4134V173ZM109.77 173.494C113.639 173.494 116.145 171.807 117.423 169.369H117.628V173H124.514V155.341C124.514 149.102 119.23 146.477 113.401 146.477C107.128 146.477 103.003 149.477 101.997 154.25L108.713 154.795C109.207 153.057 110.759 151.778 113.366 151.778C115.838 151.778 117.253 153.023 117.253 155.17V155.273C117.253 156.96 115.463 157.182 110.912 157.625C105.73 158.102 101.077 159.841 101.077 165.688C101.077 170.869 104.776 173.494 109.77 173.494ZM111.849 168.483C109.616 168.483 108.014 167.443 108.014 165.449C108.014 163.403 109.702 162.398 112.259 162.04C113.844 161.818 116.435 161.443 117.304 160.864V163.642C117.304 166.386 115.037 168.483 111.849 168.483ZM130.148 182.818H137.409V168.807H137.631C138.636 170.989 140.835 173.426 145.062 173.426C151.028 173.426 155.682 168.705 155.682 159.943C155.682 150.943 150.824 146.477 145.08 146.477C140.699 146.477 138.602 149.085 137.631 151.216H137.307V146.818H130.148V182.818ZM137.256 159.909C137.256 155.239 139.233 152.256 142.761 152.256C146.358 152.256 148.267 155.375 148.267 159.909C148.267 164.477 146.324 167.648 142.761 167.648C139.267 167.648 137.256 164.58 137.256 159.909ZM167.784 157.864C167.801 154.489 169.864 152.511 172.83 152.511C175.778 152.511 177.517 154.403 177.5 157.625V173H184.761V156.33C184.778 150.193 181.165 146.477 175.71 146.477C171.739 146.477 169.08 148.352 167.886 151.438H167.58V138.091H160.523V173H167.784V157.864ZM190.476 173H197.737V146.818H190.476V173ZM194.124 143.443C196.288 143.443 198.061 141.79 198.061 139.761C198.061 137.75 196.288 136.097 194.124 136.097C191.976 136.097 190.203 137.75 190.203 139.761C190.203 141.79 191.976 143.443 194.124 143.443ZM228.116 182.818V146.818H220.957V151.216H220.634C219.662 149.085 217.565 146.477 213.185 146.477C207.44 146.477 202.582 150.943 202.582 159.943C202.582 168.705 207.236 173.426 213.202 173.426C217.429 173.426 219.628 170.989 220.634 168.807H220.855V182.818H228.116ZM221.009 159.909C221.009 164.58 218.997 167.648 215.503 167.648C211.94 167.648 209.997 164.477 209.997 159.909C209.997 155.375 211.906 152.256 215.503 152.256C219.031 152.256 221.009 155.239 221.009 159.909ZM250.719 161.852C250.736 165.364 248.332 167.205 245.724 167.205C242.98 167.205 241.207 165.278 241.19 162.193V146.818H233.929V163.489C233.946 169.608 237.526 173.341 242.793 173.341C246.73 173.341 249.56 171.312 250.736 168.244H251.009V173H257.98V146.818H250.719V161.852ZM275.72 173.511C282.197 173.511 286.561 170.358 287.584 165.5L280.868 165.057C280.135 167.051 278.26 168.091 275.839 168.091C272.209 168.091 269.908 165.688 269.908 161.784V161.767H287.737V159.773C287.737 150.875 282.351 146.477 275.43 146.477C267.726 146.477 262.732 151.949 262.732 160.028C262.732 168.33 267.658 173.511 275.72 173.511ZM269.908 157.267C270.061 154.284 272.328 151.898 275.55 151.898C278.703 151.898 280.885 154.148 280.902 157.267H269.908ZM314.26 154.284C313.612 149.46 309.726 146.477 303.112 146.477C296.413 146.477 291.999 149.58 292.016 154.625C291.999 158.545 294.47 161.085 299.584 162.108L304.118 163.011C306.402 163.472 307.442 164.307 307.476 165.619C307.442 167.17 305.754 168.278 303.214 168.278C300.624 168.278 298.902 167.17 298.459 165.04L291.317 165.415C291.999 170.426 296.26 173.511 303.197 173.511C309.982 173.511 314.839 170.051 314.857 164.886C314.839 161.102 312.368 158.835 307.288 157.795L302.55 156.841C300.112 156.312 299.209 155.477 299.226 154.216C299.209 152.648 300.982 151.625 303.232 151.625C305.754 151.625 307.254 153.006 307.612 154.693L314.26 154.284Z" fill="white"/>
<defs>
<clipPath id="clip0">
<rect width="680" height="372" fill="white" transform="translate(45 263)"/>
</clipPath>
</defs>
</svg>
