<svg xmlns="http://www.w3.org/2000/svg" width="80" height="20" fill="none"  xmlns:v="https://vecta.io/nano"><path d="M1.08 3.9h4.134c.988 0 1.86.19 2.613.572a4.14 4.14 0 0 1 1.768 1.586c.425.685.637 1.482.637 2.392s-.212 1.707-.637 2.392c-.416.685-1.005 1.218-1.768 1.6-.754.373-1.625.56-2.613.56H1.08V3.9zm4.03 7.37c.9 0 1.634-.25 2.17-.754.546-.51.82-1.2.82-2.067s-.273-1.55-.82-2.054c-.537-.51-1.26-.767-2.17-.767H3.185v5.642H5.11zM18.527 9.53a22 22 0 0 1-.039.546h-5.29c.095.433.32.776.676 1.027s.797.377 1.326.377c.364 0 .685-.052.962-.156.286-.113.55-.286.793-.52l1.08 1.17c-.66.754-1.62 1.13-2.886 1.13-.79 0-1.486-.152-2.093-.455-.607-.312-1.075-.74-1.404-1.287s-.494-1.166-.494-1.86c0-.685.16-1.3.48-1.846.33-.555.776-.984 1.34-1.287.572-.312 1.21-.468 1.91-.468.685 0 1.304.147 1.86.442a3.17 3.17 0 0 1 1.3 1.274c.32.546.48 1.183.48 1.91zM14.9 7.436c-.46 0-.845.13-1.157.4s-.503.615-.572 1.066h3.445c-.07-.442-.26-.793-.572-1.053-.312-.27-.693-.403-1.144-.403zm.52-4.2h2.184L15.25 5.11h-1.586l1.755-1.872zm6.394 3.692a2.26 2.26 0 0 1 .975-.767c.416-.173.893-.26 1.43-.26v1.872l-.455-.026c-.58 0-1.036.165-1.365.494-.33.32-.494.806-.494 1.456V13h-2.028V6.006h1.937v.923zm6.875 6.175c-.737 0-1.4-.152-1.99-.455-.58-.312-1.036-.74-1.365-1.287s-.494-1.166-.494-1.86.165-1.313.494-1.86.784-.97 1.365-1.274c.59-.312 1.252-.468 1.99-.468s1.395.156 1.976.468c.58.303 1.036.728 1.365 1.274s.494 1.166.494 1.86-.165 1.313-.494 1.86-.784.975-1.365 1.287c-.58.303-1.24.455-1.976.455zm0-1.664c.52 0 .945-.173 1.274-.52.338-.355.507-.828.507-1.417s-.17-1.057-.507-1.404c-.33-.355-.754-.533-1.274-.533s-.95.178-1.287.533c-.338.347-.507.815-.507 1.404s.17 1.062.507 1.417c.338.347.767.52 1.287.52zm12.236-5.434V13h-1.924v-.832a2.76 2.76 0 0 1-.962.702 3.1 3.1 0 0 1-1.209.234c-.92 0-1.647-.264-2.184-.793s-.806-1.313-.806-2.353V6.006h2.028V9.66c0 1.127.472 1.7 1.417 1.7.485 0 .875-.156 1.17-.468.295-.32.442-.793.442-1.417V6.006h2.028zm1.88-2.652h2.028V13h-2.028V3.354zm10.76 6.175a22 22 0 0 1-.039.546h-5.29c.095.433.32.776.676 1.027s.797.377 1.326.377c.364 0 .685-.052.962-.156.286-.113.55-.286.793-.52l1.08 1.17c-.66.754-1.62 1.13-2.886 1.13-.79 0-1.486-.152-2.093-.455-.607-.312-1.075-.74-1.404-1.287s-.494-1.166-.494-1.86c0-.685.16-1.3.48-1.846.33-.555.776-.984 1.34-1.287.572-.312 1.21-.468 1.91-.468.685 0 1.304.147 1.86.442a3.17 3.17 0 0 1 1.3 1.274c.32.546.48 1.183.48 1.91zM49.94 7.436c-.46 0-.845.13-1.157.4s-.503.615-.572 1.066h3.445c-.07-.442-.26-.793-.572-1.053-.312-.27-.693-.403-1.144-.403zm6.914-.507a2.26 2.26 0 0 1 .975-.767c.416-.173.893-.26 1.43-.26v1.872l-.455-.026c-.58 0-1.036.165-1.365.494-.33.32-.494.806-.494 1.456V13h-2.028V6.006h1.937v.923z" fill="#00c2cb"/><path d="M72.885 7.25l-3.017 4.185L66.85 7.25h6.034z" stroke="#00c2cb" stroke-width="3"/></svg>