<svg width="48" height="48" viewBox="0 0 48 48" fill="none" xmlns="http://www.w3.org/2000/svg">
<path d="M11.7 19.65C7.23996 19.65 3.19996 21.41 0.209961 24.26V47.88H23.73C26.61 44.88 28.39 40.82 28.39 36.33C28.38 27.11 20.91 19.65 11.7 19.65Z" fill="#1FBEC8"/>
<path d="M29.81 15.94C28.74 16.86 28.09 18.16 28.09 19.57V19.63H20.32V19.58C20.32 18.21 19.75 16.89 18.7 16.02C16.82 14.45 15.62 12.08 15.62 9.44001C15.62 4.53001 19.76 0.580006 24.74 0.890006C29.12 1.16001 32.64 4.80001 32.77 9.18001C32.85 11.88 31.69 14.31 29.81 15.94Z" fill="#1FBEC8"/>
<path d="M30.4 36.47H18.02V44.22H30.4V36.47Z" fill="#1FBEC8"/>
<path d="M13.75 36.47H1.37V44.22H13.75V36.47Z" fill="#1FBEC8"/>
<path d="M47.05 36.47H34.67V44.22H47.05V36.47Z" fill="#1FBEC8"/>
<path d="M18.22 16.6C19.07 17.3 19.57 18.42 19.57 19.58V19.63C19.57 19.83 19.65 20.02 19.79 20.16C19.93 20.3 20.12 20.38 20.32 20.38H28.09C28.29 20.38 28.48 20.3 28.62 20.16C28.76 20.02 28.84 19.83 28.84 19.63V19.57C28.84 18.42 29.37 17.3 30.29 16.5C32.35 14.72 33.52 12.15 33.52 9.43999C33.52 9.34999 33.52 9.25 33.52 9.16C33.5 8.35 33.37 7.55 33.13 6.77C33.01 6.39 32.59 6.16 32.2 6.27C31.8 6.39 31.58 6.81 31.7 7.21C31.89 7.85 32 8.53 32.02 9.2C32.02 9.28 32.02 9.35999 32.02 9.43999C32.02 11.71 31.03 13.87 29.31 15.37C28.24 16.29 27.56 17.53 27.38 18.88H24.95V11L27.02 8.93C27.31 8.64 27.31 8.16 27.02 7.87C26.73 7.58 26.25 7.58 25.96 7.87L24.2 9.63L22.43 7.87C22.14 7.58 21.66 7.58 21.37 7.87C21.08 8.16 21.08 8.64 21.37 8.93L23.45 11V18.88H21.03C20.85 17.52 20.2 16.3 19.19 15.45C17.4 13.95 16.38 11.76 16.38 9.43999C16.39 5.13999 19.9 1.62999 24.21 1.61999C24.38 1.61999 24.54 1.63 24.69 1.64C26.66 1.76 28.5 2.63 29.88 4.08C30.15 4.37 30.65 4.39 30.94 4.11C31.24 3.83 31.25 3.35 30.97 3.05C29.33 1.32 27.13 0.279995 24.79 0.139995C24.59 0.129995 24.4 0.119995 24.21 0.119995C19.06 0.119995 14.88 4.29999 14.88 9.43999C14.88 12.21 16.1 14.82 18.22 16.6Z" fill="#1C2E5C"/>
<path d="M30.97 5.53999C31.1 5.76999 31.35 5.90999 31.62 5.90999C31.75 5.90999 31.88 5.87999 31.99 5.80999C32.17 5.70999 32.29 5.54999 32.34 5.35999C32.39 5.15999 32.37 4.95999 32.26 4.78999C32.06 4.43999 31.58 4.30999 31.24 4.51999C30.88 4.71999 30.76 5.17999 30.97 5.53999Z" fill="#1C2E5C"/>
<path d="M28.09 21.1H20.33C19.92 21.1 19.58 21.44 19.58 21.85C19.58 22.26 19.92 22.6 20.33 22.6H28.09C28.5 22.6 28.84 22.26 28.84 21.85C28.84 21.44 28.5 21.1 28.09 21.1Z" fill="#1C2E5C"/>
<path d="M47.04 35.72H41.56C41.18 31.27 37.44 27.76 32.89 27.76H24.95V26.72C25.9 26.47 26.67 25.75 26.99 24.83H28.08C28.49 24.83 28.83 24.49 28.83 24.08C28.83 23.67 28.49 23.33 28.08 23.33H20.32C19.91 23.33 19.57 23.67 19.57 24.08C19.57 24.49 19.91 24.83 20.32 24.83H21.41C21.73 25.76 22.5 26.47 23.45 26.72V27.76H15.51C10.96 27.76 7.22 31.27 6.84 35.72H1.36999C0.959995 35.72 0.619995 36.06 0.619995 36.47V44.22C0.619995 44.63 0.959995 44.97 1.36999 44.97H6.68V46.13H5.57C5.16 46.13 4.82 46.47 4.82 46.88C4.82 47.29 5.16 47.63 5.57 47.63H9.27999C9.68999 47.63 10.03 47.29 10.03 46.88C10.03 46.47 9.68999 46.13 9.27999 46.13H8.18V44.97H13.74C14.15 44.97 14.49 44.63 14.49 44.22V36.47C14.49 36.06 14.15 35.72 13.74 35.72H8.34C8.72 32.1 11.79 29.26 15.51 29.26H23.45V35.72H18.01C17.6 35.72 17.26 36.06 17.26 36.47V44.22C17.26 44.63 17.6 44.97 18.01 44.97H23.32V46.13H22.21C21.8 46.13 21.46 46.47 21.46 46.88C21.46 47.29 21.8 47.63 22.21 47.63H25.93C26.34 47.63 26.68 47.29 26.68 46.88C26.68 46.47 26.34 46.13 25.93 46.13H24.82V44.97H30.38C30.79 44.97 31.13 44.63 31.13 44.22V36.47C31.13 36.06 30.79 35.72 30.38 35.72H24.94V29.26H32.88C36.6 29.26 39.67 32.1 40.05 35.72H34.65C34.24 35.72 33.9 36.06 33.9 36.47V44.22C33.9 44.63 34.24 44.97 34.65 44.97H39.96V46.13H38.85C38.44 46.13 38.1 46.47 38.1 46.88C38.1 47.29 38.44 47.63 38.85 47.63H42.56C42.97 47.63 43.31 47.29 43.31 46.88C43.31 46.47 42.97 46.13 42.56 46.13H41.45V44.97H47.01C47.42 44.97 47.76 44.63 47.76 44.22V36.47C47.79 36.06 47.46 35.72 47.04 35.72ZM23.13 24.82H25.28C25.01 25.12 24.64 25.32 24.21 25.32C23.78 25.33 23.4 25.12 23.13 24.82ZM12.99 43.47H2.11999V37.22H13V43.47H12.99ZM29.64 43.47H18.77V37.22H29.65V43.47H29.64ZM46.29 43.47H35.42V37.22H46.3V43.47H46.29Z" fill="#1C2E5C"/>
</svg>
