<svg xmlns="http://www.w3.org/2000/svg" width="20" height="20" fill="none"  xmlns:v="https://vecta.io/nano"><g clip-path="url(#A)"><path d="M3.333 0C1.487 0 0 1.487 0 3.333v13.333C0 18.513 1.487 20 3.333 20h13.333C18.513 20 20 18.513 20 16.667V3.333C20 1.487 18.513 0 16.667 0H3.333zM10 3.75c3.443 0 6.25 2.807 6.25 6.25s-2.807 6.25-6.25 6.25c-.957 0-1.885-.25-2.74-.672l-3.477.653.64-3.49c-.422-.855-.674-1.784-.674-2.74 0-3.443 2.807-6.25 6.25-6.25zm0 1.563c-2.598 0-4.687 2.09-4.687 4.688a4.65 4.65 0 0 0 .599 2.284l.137.246-.32 1.746 1.735-.325.247.14a4.67 4.67 0 0 0 2.288.597c2.598 0 4.688-2.09 4.688-4.687S12.598 5.312 10 5.312h0zM8.13 6.978c.13.001.224.006.3.02s.137.033.184.075.07.1.093.15l.415 1.222c.048.124.032.246-.018.352s-.127.2-.207.283l-.218.23c-.056.068-.077.122-.075.15.003.036.036.13.098.233s.147.222.236.34c.18.237.383.472.474.565a6.61 6.61 0 0 0 .558.472l.34.23c.104.06.2.1.236.104.028.002.084-.025.15-.08s.14-.134.225-.213.176-.158.282-.208.232-.07.357-.022l1.224.415c.095.036.16.1.195.185s.04.18.046.317c.006.144-.01.363-.16.583s-.43.437-.93.592c-.52.162-1.18-.028-1.805-.345s-1.218-.767-1.603-1.152-.83-.98-1.147-1.605-.507-1.284-.345-1.805c.145-.468.34-.738.542-.894a.89.89 0 0 1 .553-.191v-.002z" fill="#fff"/></g><defs><clipPath id="A"><path fill="#fff" d="M0 0h20v20H0z"/></clipPath></defs></svg>